<svg xmlns="http://www.w3.org/2000/svg" xmlns:xlink="http://www.w3.org/1999/xlink" width="435.61" height="398.561" viewBox="0 0 435.61 398.561">
  <defs>
    <clipPath id="clip-path">
      <path id="Trazado_110884" data-name="Trazado 110884" d="M346.238,279.839V224.786h15.355V168H350.952V111.23H229.661V168h10.661v39.516h-56.3V242.34h-6.54v34.831h9.418v31.943h-28.75V264.053h12.563V217.587H144.835l-.765-46.476H62.706v46.476h8.72v46.467H58.862v45.061H50.344v46.476h8.729v46.467H46.5v46.457H209.869v1.625H438.282l-10.7-.755.373-41.7v-5.737h11.425V359.731h-7.936V320.119h21.809V288.482h-8.538V256.835h5.937V225.2h-67.6v31.637H377.12v31.647h8.6v29.046h-26.2m10.364-119.255V240.82" transform="translate(-46.5 -111.23)" fill="#b5abdb"/>
    </clipPath>
    <clipPath id="clip-path-2">
      <path id="Trazado_110887" data-name="Trazado 110887" d="M321.967,215.226a14.7,14.7,0,0,0-29.228,0h0a15.059,15.059,0,0,0-15.059,15.059v8.538h59.355v-8.538a15.068,15.068,0,0,0-15.068-15.059Z" transform="translate(-277.68 -202.074)" fill="#fda551"/>
    </clipPath>
    <clipPath id="clip-path-3">
      <path id="Trazado_110906" data-name="Trazado 110906" d="M153.76,259.221s-1.692,13.691-11.473,9.36c-7.046-3.088-4.283-14.791,1.224-17.659S156.437,247.643,153.76,259.221Z" transform="translate(-138.076 -249.222)" fill="#da8c8d"/>
    </clipPath>
  </defs>
  <g id="Grupo_55211" data-name="Grupo 55211" transform="translate(-249.39 -1089.869)">
    <g id="CF1_banner_copia" data-name="CF1_banner copia" transform="translate(233.07 1041.029)">
      <g id="Grupo_55068" data-name="Grupo 55068" transform="translate(45.175 108.491)">
        <g id="Grupo_55066" data-name="Grupo 55066">
          <path id="Trazado_110880" data-name="Trazado 110880" d="M346.238,279.839V224.786h15.355V168H350.952V111.23H229.661V168h10.661v39.516h-56.3V242.34h-6.54v34.831h9.418v31.943h-28.75V264.053h12.563V217.587H144.835l-.765-46.476H62.706v46.476h8.72v46.467H58.862v45.061H50.344v46.476h8.729v46.467H46.5v46.457H209.869v1.625H438.282l-10.7-.755.373-41.7v-5.737h11.425V359.731h-7.936V320.119h21.809V288.482h-8.538V256.835h5.937V225.2h-67.6v31.637H377.12v31.647h8.6v29.046h-26.2m10.364-119.255V240.82" transform="translate(-46.5 -111.23)" fill="#b5abdb"/>
          <g id="Grupo_55065" data-name="Grupo 55065" clip-path="url(#clip-path)">
            <path id="Trazado_110881" data-name="Trazado 110881" d="M100.706,173.717v46.476h13.433v47.155H94.8v44.373H82.167V461.007H31.79V170.61h68.916v3.107" transform="translate(-45.854 -113.837)" fill="#8296c9" opacity="0.3"/>
            <path id="Trazado_110882" data-name="Trazado 110882" d="M286.768,111.23V168H303.3v39.516H254.2V455.045H181.95V111.23H286.768" transform="translate(-52.446 -111.23)" fill="#8296c9" opacity="0.3"/>
            <path id="Trazado_110883" data-name="Trazado 110883" d="M460.484,307.523h35.94v22.918h30.356v37.087H493.2v41.5H524.7v42.25H372.37l9.112-297.243" transform="translate(-60.805 -113.109)" fill="#8296c9" opacity="0.2"/>
            <rect id="Rectángulo_6304" data-name="Rectángulo 6304" width="42.432" height="238.309" transform="translate(327.542 105.248)" fill="#8296c9" opacity="0.2"/>
            <rect id="Rectángulo_6305" data-name="Rectángulo 6305" width="7.161" height="29.601" transform="translate(31.551 59.881)" fill="#b2bfdf"/>
            <rect id="Rectángulo_6306" data-name="Rectángulo 6306" width="5.937" height="27.402" transform="translate(27.593 153.215)" fill="#b2bfdf"/>
            <rect id="Rectángulo_6307" data-name="Rectángulo 6307" width="7.257" height="29.219" transform="translate(45.157 123.605)" fill="#b2bfdf"/>
            <rect id="Rectángulo_6308" data-name="Rectángulo 6308" width="6.578" height="21.445" transform="translate(18.348 198.439)" fill="#b2bfdf"/>
            <rect id="Rectángulo_6309" data-name="Rectángulo 6309" width="7.783" height="32.565" transform="translate(202.914)" fill="#b2bfdf"/>
            <rect id="Rectángulo_6310" data-name="Rectángulo 6310" width="16.015" height="8.366" transform="translate(193.821 73.515)" fill="#b2bfdf"/>
            <rect id="Rectángulo_6311" data-name="Rectángulo 6311" width="6.635" height="30.108" transform="translate(227.715 56.773)" fill="#b2bfdf"/>
            <rect id="Rectángulo_6312" data-name="Rectángulo 6312" width="8.242" height="29.955" transform="translate(157.375 96.289)" fill="#b2bfdf"/>
            <rect id="Rectángulo_6313" data-name="Rectángulo 6313" width="16.474" height="7.544" transform="translate(130.977 145.28)" fill="#b2bfdf"/>
            <rect id="Rectángulo_6314" data-name="Rectángulo 6314" width="6.224" height="6.224" transform="translate(139.973 180.617)" fill="#b2bfdf"/>
            <rect id="Rectángulo_6315" data-name="Rectángulo 6315" width="5.469" height="17.019" transform="translate(409.441 194.414)" fill="#b2bfdf"/>
            <rect id="Rectángulo_6316" data-name="Rectángulo 6316" width="6.052" height="14.122" transform="translate(348.872 145.605)" fill="#b2bfdf"/>
            <rect id="Rectángulo_6317" data-name="Rectángulo 6317" width="8.701" height="5.488" transform="translate(361.168 127.554)" fill="#b2bfdf"/>
            <rect id="Rectángulo_6318" data-name="Rectángulo 6318" width="6.32" height="21.12" transform="translate(416.373 295.923)" fill="#b2bfdf"/>
          </g>
        </g>
        <g id="Grupo_55067" data-name="Grupo 55067" transform="translate(12.362 56.42)">
          <rect id="Rectángulo_6319" data-name="Rectángulo 6319" width="76.574" height="0.717" transform="translate(181.459)" fill="#8296c9"/>
          <rect id="Rectángulo_6320" data-name="Rectángulo 6320" width="54.383" height="0.717" transform="translate(12.563 49.574)" fill="#8296c9"/>
          <rect id="Rectángulo_6321" data-name="Rectángulo 6321" width="24.581" height="0.717" transform="translate(87.263 96.05)" fill="#8296c9"/>
          <rect id="Rectángulo_6322" data-name="Rectángulo 6322" width="54.966" height="0.717" transform="translate(12.563 96.05)" fill="#8296c9"/>
          <rect id="Rectángulo_6323" data-name="Rectángulo 6323" width="30.461" height="0.717" transform="translate(0 141.111)" fill="#8296c9"/>
          <rect id="Rectángulo_6324" data-name="Rectángulo 6324" width="19.858" height="0.717" transform="translate(125.154 74.337)" fill="#8296c9"/>
          <rect id="Rectángulo_6325" data-name="Rectángulo 6325" width="10.613" height="0.717" transform="translate(128.032 109.168)" fill="#8296c9"/>
          <rect id="Rectángulo_6326" data-name="Rectángulo 6326" width="3.939" height="0.717" transform="translate(128.032 141.111)" fill="#8296c9"/>
          <rect id="Rectángulo_6327" data-name="Rectángulo 6327" width="105.391" height="0.717" transform="translate(181.459 39.516)" fill="#8296c9"/>
          <rect id="Rectángulo_6328" data-name="Rectángulo 6328" width="24.075" height="0.717" transform="translate(268.024)" fill="#8296c9"/>
          <rect id="Rectángulo_6329" data-name="Rectángulo 6329" width="56.381" height="0.717" transform="translate(329.454 88.831)" fill="#8296c9"/>
          <rect id="Rectángulo_6330" data-name="Rectángulo 6330" width="32.259" height="0.717" transform="translate(305.159 160.558)" fill="#8296c9"/>
          <rect id="Rectángulo_6331" data-name="Rectángulo 6331" width="20.881" height="0.717" transform="translate(318.086 197.646)" fill="#8296c9"/>
          <rect id="Rectángulo_6332" data-name="Rectángulo 6332" width="25.308" height="0.717" transform="translate(327.991 239.15)" fill="#8296c9"/>
        </g>
      </g>
      <g id="Grupo_55081" data-name="Grupo 55081" transform="translate(205.934 195.348)">
        <g id="Grupo_55080" data-name="Grupo 55080">
          <rect id="Rectángulo_6333" data-name="Rectángulo 6333" width="174.001" height="234.752" rx="29.17" transform="translate(0 15.925)" fill="#6c58b8"/>
          <rect id="Rectángulo_6334" data-name="Rectángulo 6334" width="147.125" height="206.174" transform="translate(13.433 30.218)" fill="#f2f3f7"/>
          <g id="Grupo_55071" data-name="Grupo 55071" transform="translate(60.273)">
            <g id="Grupo_55070" data-name="Grupo 55070">
              <path id="Trazado_110885" data-name="Trazado 110885" d="M321.967,215.226a14.7,14.7,0,0,0-29.228,0h0a15.059,15.059,0,0,0-15.059,15.059v8.538h59.355v-8.538a15.068,15.068,0,0,0-15.068-15.059Z" transform="translate(-277.68 -202.074)" fill="#fda551"/>
              <g id="Grupo_55069" data-name="Grupo 55069" clip-path="url(#clip-path-2)">
                <path id="Trazado_110886" data-name="Trazado 110886" d="M321.846,215.83s-8.653,16.6-46.916,17.669v7.735h67.1V215.993H321.846" transform="translate(-277.559 -202.678)" fill="#f4c54e" opacity="0.52"/>
              </g>
            </g>
            <circle id="Elipse_4437" data-name="Elipse 4437" cx="3.691" cy="3.691" r="3.691" transform="translate(24.86 5.735) rotate(-22.5)" fill="#f4c54e"/>
          </g>
          <g id="Grupo_55073" data-name="Grupo 55073" transform="translate(31.695 59.81)">
            <path id="Trazado_110888" data-name="Trazado 110888" d="M278.175,295.015H247.79V264.63h30.385Zm-29.639-.736h28.9V265.357H248.517Z" transform="translate(-247.79 -264.63)" fill="#8296c9"/>
            <g id="Grupo_55072" data-name="Grupo 55072" transform="translate(40.214 0.363)">
              <rect id="Rectángulo_6335" data-name="Rectángulo 6335" width="68.553" height="6.482" fill="#e6eaf4"/>
              <rect id="Rectángulo_6336" data-name="Rectángulo 6336" width="68.553" height="6.482" transform="translate(0 11.588)" fill="#e6eaf4"/>
              <rect id="Rectángulo_6337" data-name="Rectángulo 6337" width="34.276" height="6.482" transform="translate(0 23.166)" fill="#e6eaf4"/>
            </g>
          </g>
          <g id="Grupo_55075" data-name="Grupo 55075" transform="translate(31.695 98.675)">
            <path id="Trazado_110889" data-name="Trazado 110889" d="M278.175,335.665H247.79V305.28h30.385Zm-29.639-.736h28.9V306.016H248.517Z" transform="translate(-247.79 -305.28)" fill="#8296c9"/>
            <g id="Grupo_55074" data-name="Grupo 55074" transform="translate(40.214 0.373)">
              <rect id="Rectángulo_6338" data-name="Rectángulo 6338" width="68.553" height="6.482" fill="#e6eaf4"/>
              <rect id="Rectángulo_6339" data-name="Rectángulo 6339" width="68.553" height="6.482" transform="translate(0 11.578)" fill="#e6eaf4"/>
              <rect id="Rectángulo_6340" data-name="Rectángulo 6340" width="34.276" height="6.482" transform="translate(0 23.166)" fill="#e6eaf4"/>
            </g>
          </g>
          <g id="Grupo_55077" data-name="Grupo 55077" transform="translate(31.695 137.55)">
            <path id="Trazado_110890" data-name="Trazado 110890" d="M278.175,376.325H247.79V345.94h30.385Zm-29.639-.736h28.9V346.676H248.517Z" transform="translate(-247.79 -345.94)" fill="#8296c9"/>
            <g id="Grupo_55076" data-name="Grupo 55076" transform="translate(40.214 0.363)">
              <rect id="Rectángulo_6341" data-name="Rectángulo 6341" width="68.553" height="6.482" fill="#e6eaf4"/>
              <rect id="Rectángulo_6342" data-name="Rectángulo 6342" width="68.553" height="6.482" transform="translate(0 11.588)" fill="#e6eaf4"/>
              <rect id="Rectángulo_6343" data-name="Rectángulo 6343" width="34.276" height="6.482" transform="translate(0 23.166)" fill="#e6eaf4"/>
            </g>
          </g>
          <g id="Grupo_55079" data-name="Grupo 55079" transform="translate(31.695 176.416)">
            <path id="Trazado_110891" data-name="Trazado 110891" d="M278.175,416.975H247.79V386.59h30.385Zm-29.639-.736h28.9V387.326H248.517Z" transform="translate(-247.79 -386.59)" fill="#8296c9"/>
            <g id="Grupo_55078" data-name="Grupo 55078" transform="translate(40.214 0.373)">
              <rect id="Rectángulo_6344" data-name="Rectángulo 6344" width="68.553" height="6.482" fill="#e6eaf4"/>
              <rect id="Rectángulo_6345" data-name="Rectángulo 6345" width="68.553" height="6.482" transform="translate(0 11.578)" fill="#e6eaf4"/>
              <rect id="Rectángulo_6346" data-name="Rectángulo 6346" width="34.276" height="6.482" transform="translate(0 23.166)" fill="#e6eaf4"/>
            </g>
          </g>
        </g>
        <path id="Trazado_110892" data-name="Trazado 110892" d="M263.285,282.743l-6.693-7.19a1.252,1.252,0,1,1,1.826-1.711l5.039,5.383,20.92-19.237a1.252,1.252,0,0,1,1.683,1.845Z" transform="translate(-216.465 -204.605)" fill="#343766"/>
        <path id="Trazado_110893" data-name="Trazado 110893" d="M263.287,324.144l-6.693-7.19a1.243,1.243,0,0,1,.057-1.769,1.262,1.262,0,0,1,1.769.057l5.039,5.383,20.958-19.208a1.253,1.253,0,0,1,1.683,1.845Z" transform="translate(-216.467 -206.424)" fill="#343766"/>
      </g>
      <g id="Grupo_55089" data-name="Grupo 55089" transform="translate(91.575 235.286)">
        <g id="Grupo_55088" data-name="Grupo 55088">
          <path id="Trazado_110894" data-name="Trazado 110894" d="M153.635,280l16.741,27.325s1.53,1.807-1.425,4.78-21.522-.679-21.522-.679Z" transform="translate(-97.33 -245.433)" fill="#f4c54e"/>
          <g id="Grupo_55084" data-name="Grupo 55084" transform="translate(17.873 72.202)">
            <g id="Grupo_55082" data-name="Grupo 55082">
              <path id="Trazado_110895" data-name="Trazado 110895" d="M147.346,324.675c.516.755.134,2,0,3q-1.033,7.515-2.084,15.02l-3.212,23.157q-1.912,13.443-3.719,26.857-1.817,13.07-3.624,26.121-1.444,10.469-2.868,20.939l-1.6,11.368-.124.88h-6.406l-2.8-62.481s-11.062-44.449-5.737-57.758c1.673-4.188,1.444-5.153,5.469-6.023,8.213-1.769,17.267-3.146,25.633-1.654A1.645,1.645,0,0,1,147.346,324.675Z" transform="translate(-113.724 -319.543)" fill="#39548b"/>
              <path id="Trazado_110896" data-name="Trazado 110896" d="M153.4,319.676c.545.956,14.4,59.355,13.51,69.9s-10.441,62.214-10.441,62.214l-5.823-.1-.889-60.971s-20.881-43.847-19.638-59.125S153.4,319.676,153.4,319.676Z" transform="translate(-114.441 -319.363)" fill="#39548b"/>
              <path id="Trazado_110897" data-name="Trazado 110897" d="M142.33,373.92l5.947-25.91-.048,39.525Z" transform="translate(-114.98 -320.621)" fill="#343766"/>
            </g>
            <g id="Grupo_55083" data-name="Grupo 55083" transform="translate(9.71 129.492)">
              <path id="Trazado_110898" data-name="Trazado 110898" d="M123.88,454.8h7.008l-.44,5.029s6.463.287,10.316,4.455H124.234Z" transform="translate(-123.88 -454.8)" fill="#1f1949"/>
              <path id="Trazado_110899" data-name="Trazado 110899" d="M151.38,454.8h7.008l-.44,5.029s6.463.287,10.316,4.455H151.734Z" transform="translate(-125.087 -454.8)" fill="#1f1949"/>
            </g>
          </g>
          <path id="Trazado_110900" data-name="Trazado 110900" d="M113.4,323.464c-.564,7.467-3.308,8.854,9.647,16.168,0,0,18.634,9.312,34.84-4.322l-3.107-17.755c-1.348-5.106-1.233-16.684-.249-21.876a28.884,28.884,0,0,0,.669-8.3c-1.272-8.653-11.234-15.345-11.234-15.345l-8.127-.956c-1.023-.115-2.868.956-3.767,1.3-8.672,3.442-14.963,9.475-19.342,17.745,0,0-9.79,21.206-7.343,27.058A10.01,10.01,0,0,0,113.4,323.464Z" transform="translate(-95.468 -245.041)" fill="#f9dd89"/>
          <path id="Trazado_110901" data-name="Trazado 110901" d="M113.761,325.856s4.561,0,7.917-.3-8.538,5.823-8.538,5.823Z" transform="translate(-95.825 -247.432)" fill="#f4c54e"/>
          <path id="Trazado_110902" data-name="Trazado 110902" d="M127.31,311.094l-6.09-1.415s5.909-13.519,5.565-18.319C126.746,291.37,129.672,301.332,127.31,311.094Z" transform="translate(-96.18 -245.932)" fill="#f4c54e"/>
          <path id="Trazado_110903" data-name="Trazado 110903" d="M156.6,253.2l.143,4.9a14.437,14.437,0,0,1-.3,4.207,4.886,4.886,0,0,1-2.5,3.241c-1.912.841-4.13-.086-5.679-1.444a13,13,0,0,1-4.149-8.6,17.459,17.459,0,0,1,.708-6.588,6.473,6.473,0,0,1,1.912-3.346,5.22,5.22,0,0,1,3.662-.956,5.87,5.87,0,0,1,4.943,2.5A12.494,12.494,0,0,1,156.6,253.2Z" transform="translate(-97.182 -243.878)" fill="#343766"/>
          <g id="Grupo_55087" data-name="Grupo 55087" transform="translate(40.27 5.14)">
            <g id="Grupo_55086" data-name="Grupo 55086" transform="translate(0.886)">
              <path id="Trazado_110904" data-name="Trazado 110904" d="M153.76,259.221s-1.692,13.691-11.473,9.36c-7.046-3.088-4.283-14.791,1.224-17.659S156.437,247.643,153.76,259.221Z" transform="translate(-138.076 -249.222)" fill="#da8c8d"/>
              <g id="Grupo_55085" data-name="Grupo 55085" clip-path="url(#clip-path-3)">
                <path id="Trazado_110905" data-name="Trazado 110905" d="M153.13,262.555a16.551,16.551,0,0,1-4.417-2.591,33.864,33.864,0,0,1-6.913-7.238,28.426,28.426,0,0,1,5.02-4.628,7.094,7.094,0,0,1,2.075-1.138,5.985,5.985,0,0,1,3.452.134,14.648,14.648,0,0,1,6.31,4.36,9.064,9.064,0,0,1,2.333,3.891,7.247,7.247,0,0,1-.832,5.029,12.431,12.431,0,0,1-1.482,2.237,1.147,1.147,0,0,1-.889.382,10.249,10.249,0,0,1-1.434.124A9.246,9.246,0,0,1,153.13,262.555Z" transform="translate(-138.239 -249.114)" fill="#c17276"/>
              </g>
            </g>
            <path id="Trazado_110907" data-name="Trazado 110907" d="M138.536,260a94.532,94.532,0,0,1-1.367,12.764,3.557,3.557,0,0,0,1.176,3.04c1.157,1.272,5.029,4.618,6.693,2.868,1.4-1.472.258-16.33.258-16.33Z" transform="translate(-137.149 -249.695)" fill="#da8c8d"/>
            <path id="Trazado_110908" data-name="Trazado 110908" d="M145.891,270.323s-1.606,0-3.9-2.543c0,0,.449,4.1,3.939,5.326C145.929,273.105,145.91,270.467,145.891,270.323Z" transform="translate(-137.361 -250.037)" fill="#c17276"/>
          </g>
          <path id="Trazado_110909" data-name="Trazado 110909" d="M124.411,248.45a11.043,11.043,0,0,0-4.972.956,12.008,12.008,0,0,0-3.824,3.327c-3.643,4.455-6.014,9.781-8.9,14.753s-6.521,9.81-11.684,12.334a26.388,26.388,0,0,0,23.5-2.82,17.028,17.028,0,0,0,3.93-3.518c1.912-2.438,2.868-5.488,3.748-8.462.8-2.639,1.6-5.287,2.4-7.936a14.668,14.668,0,0,1,1.09-2.8,14.091,14.091,0,0,1,1.807-2.247c.574-.708.583-1.339-.21-1.864a10.057,10.057,0,0,0-3.088-1.281A15.909,15.909,0,0,0,124.411,248.45Z" transform="translate(-95.03 -244.048)" fill="#343766"/>
          <path id="Trazado_110910" data-name="Trazado 110910" d="M151.091,247.98s-1.157,9.561-8.089,11.1c0,0-.306-4.3-2.113-3.423s-1.817,5.239,0,6.234c0,0-.5,3.557-3.021,3.93s-5.526-6.6-4.685-14S150.307,240.245,151.091,247.98Z" transform="translate(-96.698 -243.846)" fill="#343766"/>
          <path id="Trazado_110911" data-name="Trazado 110911" d="M134.294,249.21,133,254.277l-.43-.6a1.912,1.912,0,0,1-.363-1.2l.057-2.314a.469.469,0,0,1,.344-.449Z" transform="translate(-96.662 -244.081)" fill="#f4c54e"/>
          <path id="Trazado_110912" data-name="Trazado 110912" d="M169.03,324.91H149.507a1.511,1.511,0,0,1-1.482-2.094l8.6-29.352a3.021,3.021,0,0,1,2.706-2.094H178.9a1.52,1.52,0,0,1,1.482,2.094l-8.6,29.352A3.04,3.04,0,0,1,169.03,324.91Z" transform="translate(-97.351 -245.932)" fill="#8296c9"/>
          <path id="Trazado_110913" data-name="Trazado 110913" d="M156.09,315.7c-1.128-.325-4.618.373-7.3,1.013a25.814,25.814,0,0,0,1.061-3.624l-5.115,4.121h0c-3.547-1.013-15.3-4.245-21.512-4.331a9.093,9.093,0,0,0-4.522,9.016,2.581,2.581,0,0,0,2.534,2.266c4.1.048,13.634-1.2,22.946-1.444a65.617,65.617,0,0,0,7.324-.459C155.727,321.7,157.744,316.169,156.09,315.7Z" transform="translate(-96.066 -246.876)" fill="#da8c8d"/>
          <path id="Trazado_110914" data-name="Trazado 110914" d="M161,291.37s5.249,5.4,1.912,16.77h16.254s4.9-12.1-1.578-16.77Z" transform="translate(-97.926 -245.932)" fill="#fff"/>
        </g>
        <path id="Trazado_110915" data-name="Trazado 110915" d="M114.216,335.69s9.561,10.928,26.857,9.886c0,0-19.122,2.868-27.383-3.165C113.69,342.411,113.642,336.943,114.216,335.69Z" transform="translate(-95.849 -247.878)" fill="#343766"/>
      </g>
      <g id="Grupo_55107" data-name="Grupo 55107" transform="translate(51.103 307.418)">
        <g id="Grupo_55092" data-name="Grupo 55092" transform="translate(0 45.032)">
          <rect id="Rectángulo_6347" data-name="Rectángulo 6347" width="39.86" height="64.164" transform="translate(9.054 30.041)" fill="#febc7c"/>
          <rect id="Rectángulo_6348" data-name="Rectángulo 6348" width="39.841" height="64.336" transform="translate(48.924 30.041)" fill="#fd8f25"/>
          <rect id="Rectángulo_6349" data-name="Rectángulo 6349" width="4.465" height="64.336" transform="translate(25.92 30.041)" fill="#fff"/>
          <rect id="Rectángulo_6350" data-name="Rectángulo 6350" width="4.465" height="64.336" transform="translate(67.453 30.041)" fill="#fff"/>
          <g id="Grupo_55090" data-name="Grupo 55090">
            <path id="Trazado_110916" data-name="Trazado 110916" d="M101.624,396.431H61.754L52.7,366.39H92.56Z" transform="translate(-52.7 -366.39)" fill="#fd8f25"/>
            <path id="Trazado_110917" data-name="Trazado 110917" d="M74.795,366.39H70.33l9.064,30.041h4.465Z" transform="translate(-53.474 -366.39)" fill="#efedea"/>
          </g>
          <g id="Grupo_55091" data-name="Grupo 55091" transform="translate(48.924)">
            <path id="Trazado_110918" data-name="Trazado 110918" d="M103.87,396.431h39.86l9.064-30.041H112.924Z" transform="translate(-103.87 -366.39)" fill="#ce8e49"/>
            <path id="Trazado_110919" data-name="Trazado 110919" d="M132.314,366.39h4.465l-9.064,30.041H123.25Z" transform="translate(-104.721 -366.39)" fill="#efedea"/>
          </g>
        </g>
        <g id="Grupo_55099" data-name="Grupo 55099" transform="translate(138.883)">
          <g id="Grupo_55094" data-name="Grupo 55094" transform="translate(0 92.943)">
            <g id="Grupo_55093" data-name="Grupo 55093">
              <rect id="Rectángulo_6351" data-name="Rectángulo 6351" width="99.282" height="46.467" fill="#fd8f25"/>
              <rect id="Rectángulo_6352" data-name="Rectángulo 6352" width="50.941" height="46.467" fill="#febc7c"/>
            </g>
            <path id="Trazado_110920" data-name="Trazado 110920" d="M248.893,416.5l-6.3,5.88-6.349,5.851c-2.1,1.912-4.236,3.882-6.349,5.823l-6.339,5.87-.124.124-.134-.124L216.94,434.1c-2.113-1.912-4.245-3.872-6.349-5.823l-6.329-5.851L198,416.5l6.425,5.737,6.406,5.737c2.142,1.912,4.255,3.824,6.387,5.737l6.377,5.794h-.258l6.377-5.794c2.132-1.912,4.245-3.824,6.387-5.737l6.406-5.737Z" transform="translate(-197.962 -416.5)" fill="#fd8f25"/>
            <path id="Trazado_110921" data-name="Trazado 110921" d="M198,464.021l6.3-5.87,6.329-5.851c2.1-1.912,4.236-3.891,6.349-5.832l6.358-5.823.134-.115.124.115,6.358,5.823c2.113,1.912,4.245,3.882,6.349,5.832l6.329,5.851,6.3,5.87-6.425-5.737-6.406-5.737c-2.142-1.912-4.255-3.824-6.387-5.794l-6.415-5.775h.258l-6.377,5.737c-2.132,1.912-4.245,3.872-6.387,5.794l-6.406,5.737Z" transform="translate(-197.962 -417.555)" fill="#fd8f25"/>
            <rect id="Rectángulo_6353" data-name="Rectángulo 6353" width="5.861" height="18.701" transform="translate(22.86 14.208)" fill="#fff"/>
          </g>
          <g id="Grupo_55096" data-name="Grupo 55096" transform="translate(12.563 46.476)">
            <g id="Grupo_55095" data-name="Grupo 55095">
              <rect id="Rectángulo_6354" data-name="Rectángulo 6354" width="99.282" height="46.467" fill="#fd8f25"/>
              <rect id="Rectángulo_6355" data-name="Rectángulo 6355" width="50.941" height="46.467" fill="#febc7c"/>
            </g>
            <path id="Trazado_110922" data-name="Trazado 110922" d="M262.043,367.9l-6.3,5.88-6.339,5.842c-2.1,1.912-4.226,3.891-6.349,5.832l-6.349,5.823-.134.115-.134-.115-6.31-5.823c-2.123-1.912-4.245-3.872-6.349-5.832l-6.339-5.842-6.3-5.88,6.435,5.737,6.4,5.737c2.142,1.912,4.264,3.824,6.387,5.794l6.387,5.794h-.268l6.387-5.794c2.123-1.912,4.245-3.872,6.387-5.794l6.4-5.737Z" transform="translate(-211.102 -367.9)" fill="#fd8f25"/>
            <path id="Trazado_110923" data-name="Trazado 110923" d="M262.041,415.424l-6.435-5.737-6.4-5.737q-3.212-2.868-6.387-5.737l-6.387-5.794h.268l-6.387,5.794c-2.123,1.912-4.245,3.824-6.387,5.794l-6.4,5.737-6.435,5.737,6.3-5.88,6.339-5.842c2.1-1.96,4.226-3.891,6.349-5.832l6.349-5.823.134-.115.134.115,6.349,5.823c2.123,1.912,4.245,3.872,6.349,5.832l6.339,5.842Z" transform="translate(-211.1 -368.957)" fill="#fd8f25"/>
            <rect id="Rectángulo_6356" data-name="Rectángulo 6356" width="5.861" height="18.701" transform="translate(22.87 14.198)" fill="#fff"/>
          </g>
          <g id="Grupo_55098" data-name="Grupo 55098" transform="translate(3.796)">
            <g id="Grupo_55097" data-name="Grupo 55097" transform="translate(0.038)">
              <rect id="Rectángulo_6357" data-name="Rectángulo 6357" width="99.282" height="46.467" fill="#fd8f25"/>
              <rect id="Rectángulo_6358" data-name="Rectángulo 6358" width="50.941" height="46.467" fill="#febc7c"/>
            </g>
            <path id="Trazado_110924" data-name="Trazado 110924" d="M252.909,319.29l-6.3,5.88-6.368,5.851-6.349,5.832-6.358,5.813-.134.124-.124-.124-6.358-5.813c-2.123-1.912-4.245-3.882-6.349-5.832l-6.329-5.851-6.31-5.88,6.435,5.737,6.406,5.737,6.387,5.784,6.377,5.8h-.258l6.377-5.8c2.123-1.912,4.245-3.824,6.387-5.784l6.406-5.737Z" transform="translate(-201.93 -319.29)" fill="#fd8f25"/>
            <path id="Trazado_110925" data-name="Trazado 110925" d="M202,366.821l6.31-5.88,6.329-5.851c2.1-1.912,4.226-3.882,6.349-5.823l6.358-5.823.124-.124.134.124,6.358,5.813,6.349,5.832,6.329,5.851,6.3,5.88-6.435-5.737-6.4-5.737c-2.142-1.912-4.264-3.824-6.387-5.784l-6.377-5.8h.258l-6.377,5.8-6.387,5.784-6.406,5.737Z" transform="translate(-201.933 -320.345)" fill="#fd8f25"/>
            <rect id="Rectángulo_6359" data-name="Rectángulo 6359" width="5.861" height="18.701" transform="translate(22.908 14.208)" fill="#fff"/>
          </g>
          <path id="Trazado_110926" data-name="Trazado 110926" d="M249.468,416.5H211.1l38.368,6.339Z" transform="translate(-198.537 -323.557)" fill="#fd8f25" opacity="0.49"/>
          <path id="Trazado_110927" data-name="Trazado 110927" d="M262.041,367.9H211.1l50.941,8.117Z" transform="translate(-198.537 -321.424)" fill="#fd8f25" opacity="0.49"/>
          <rect id="Rectángulo_6360" data-name="Rectángulo 6360" width="48.341" height="6.339" transform="translate(50.932 92.943)" fill="#ce8e49"/>
          <rect id="Rectángulo_6361" data-name="Rectángulo 6361" width="48.341" height="8.117" transform="translate(63.504 46.476)" fill="#ce8e49"/>
        </g>
        <g id="Grupo_55106" data-name="Grupo 55106" transform="translate(73.056 33.291)">
          <g id="Grupo_55101" data-name="Grupo 55101" transform="translate(0 70.752)">
            <g id="Grupo_55100" data-name="Grupo 55100">
              <rect id="Rectángulo_6362" data-name="Rectángulo 6362" width="75.57" height="35.376" fill="#fd8f25"/>
              <rect id="Rectángulo_6363" data-name="Rectángulo 6363" width="38.78" height="35.376" fill="#febc7c"/>
            </g>
            <path id="Trazado_110928" data-name="Trazado 110928" d="M167.885,428.11l-4.781,4.475-4.781,4.446c-1.606,1.492-3.222,2.964-4.838,4.436l-4.838,4.436-.1.086-.105-.086-4.838-4.427c-1.606-1.482-3.222-2.954-4.828-4.446L134,432.585l-4.781-4.475,4.9,4.369,4.876,4.389q2.438,2.2,4.857,4.408l4.857,4.408h-.2l4.857-4.408c1.625-1.472,3.232-2.945,4.867-4.408l4.867-4.389Z" transform="translate(-129.115 -428.11)" fill="#fd8f25"/>
            <path id="Trazado_110929" data-name="Trazado 110929" d="M129.11,464.279l4.781-4.475,4.781-4.446c1.606-1.492,3.222-2.964,4.828-4.436l4.838-4.436.105-.086.1.086,4.838,4.436c1.616,1.472,3.232,2.945,4.838,4.436l4.781,4.446,4.781,4.475-4.9-4.36-4.867-4.4c-1.635-1.453-3.241-2.935-4.867-4.408l-4.857-4.408h.2l-4.857,4.408q-2.419,2.209-4.857,4.408l-4.876,4.4Z" transform="translate(-129.11 -428.913)" fill="#fd8f25"/>
            <rect id="Rectángulo_6364" data-name="Rectángulo 6364" width="4.465" height="14.236" transform="translate(17.411 10.814)" fill="#fff"/>
          </g>
          <g id="Grupo_55103" data-name="Grupo 55103" transform="translate(9.561 35.376)">
            <g id="Grupo_55102" data-name="Grupo 55102">
              <rect id="Rectángulo_6365" data-name="Rectángulo 6365" width="75.57" height="35.376" fill="#fd8f25"/>
              <rect id="Rectángulo_6366" data-name="Rectángulo 6366" width="38.78" height="35.376" fill="#febc7c"/>
            </g>
            <path id="Trazado_110930" data-name="Trazado 110930" d="M177.895,391.11l-4.781,4.475-4.781,4.455-4.828,4.436-4.838,4.427-.105.1-.1-.1-4.838-4.427-4.838-4.436-4.781-4.455-4.781-4.475,4.9,4.369L149,399.868c1.635,1.463,3.241,2.935,4.867,4.408l4.857,4.417h-.2l4.857-4.417q2.419-2.209,4.857-4.408l4.876-4.388Z" transform="translate(-139.115 -391.11)" fill="#fd8f25"/>
            <path id="Trazado_110931" data-name="Trazado 110931" d="M177.89,427.289l-4.9-4.369-4.876-4.388c-1.625-1.463-3.241-2.945-4.857-4.408l-4.857-4.417h.2l-4.857,4.417c-1.625,1.463-3.232,2.945-4.867,4.408l-4.867,4.388-4.9,4.369,4.781-4.475,4.781-4.455,4.838-4.436,4.838-4.427.1-.1.105.1,4.838,4.427,4.828,4.436,4.781,4.455Z" transform="translate(-139.11 -391.913)" fill="#fd8f25"/>
            <rect id="Rectángulo_6367" data-name="Rectángulo 6367" width="4.465" height="14.236" transform="translate(17.411 10.814)" fill="#fff"/>
          </g>
          <g id="Grupo_55105" data-name="Grupo 55105" transform="translate(2.926)">
            <g id="Grupo_55104" data-name="Grupo 55104">
              <rect id="Rectángulo_6368" data-name="Rectángulo 6368" width="75.57" height="35.376" fill="#fd8f25"/>
              <rect id="Rectángulo_6369" data-name="Rectángulo 6369" width="38.78" height="35.376" fill="#febc7c"/>
            </g>
            <path id="Trazado_110932" data-name="Trazado 110932" d="M170.947,354.11l-4.781,4.475-4.781,4.455c-1.6,1.482-3.222,2.954-4.781,4.436l-4.838,4.436-.105.086-.1-.086-4.838-4.436c-1.606-1.482-3.232-2.945-4.828-4.436l-4.781-4.455-4.781-4.475,4.9,4.369,4.876,4.389c1.625,1.463,3.232,2.945,4.857,4.408l4.857,4.417h-.2l4.857-4.417c1.616-1.463,3.232-2.945,4.857-4.4l4.876-4.4Z" transform="translate(-132.177 -354.11)" fill="#fd8f25"/>
            <path id="Trazado_110933" data-name="Trazado 110933" d="M132.17,390.289l4.781-4.475,4.781-4.455c1.6-1.482,3.222-2.954,4.828-4.436L151.4,372.5l.1-.1.105.1,4.838,4.427c1.606,1.482,3.232,2.954,4.781,4.436L166,385.814l4.781,4.475-4.9-4.369-4.714-4.341q-2.438-2.189-4.857-4.408l-4.857-4.408h.2l-4.857,4.408c-1.625,1.472-3.232,2.945-4.857,4.408l-4.876,4.389Z" transform="translate(-132.17 -354.913)" fill="#fd8f25"/>
            <rect id="Rectángulo_6370" data-name="Rectángulo 6370" width="4.465" height="14.236" transform="translate(17.401 10.814)" fill="#fff"/>
          </g>
          <path id="Trazado_110934" data-name="Trazado 110934" d="M168.319,428.11h-29.2l29.2,4.819Z" transform="translate(-129.549 -357.358)" fill="#fd8f25" opacity="0.49"/>
          <path id="Trazado_110935" data-name="Trazado 110935" d="M177.89,391.11H139.12l38.77,6.186Z" transform="translate(-129.549 -355.734)" fill="#fd8f25" opacity="0.49"/>
          <rect id="Rectángulo_6371" data-name="Rectángulo 6371" width="36.791" height="4.819" transform="translate(38.77 70.752)" fill="#ce8e49"/>
          <rect id="Rectángulo_6372" data-name="Rectángulo 6372" width="36.791" height="6.186" transform="translate(48.341 35.376)" fill="#ce8e49"/>
        </g>
      </g>
      <path id="Trazado_110936" data-name="Trazado 110936" d="M436.575,465.159H16.7c-.21,0-.382-.249-.382-.564s.172-.555.382-.555H436.575c.21,0,.382.249.382.555S436.785,465.159,436.575,465.159Z" transform="translate(0 -18.226)" fill="#222a4c"/>
      <g id="Grupo_55111" data-name="Grupo 55111" transform="translate(90.064 48.84)">
        <g id="Grupo_55108" data-name="Grupo 55108" transform="translate(322.245 117.228)">
          <path id="Trazado_110937" data-name="Trazado 110937" d="M440.911,171.45a10.421,10.421,0,0,0-10.422,10.421c0,11.2,10.422,26.283,10.422,26.283s10.422-15.087,10.422-26.283a10.422,10.422,0,0,0-10.422-10.422Z" transform="translate(-430.49 -171.45)" fill="#ef2a66"/>
          <circle id="Elipse_4438" data-name="Elipse 4438" cx="5.163" cy="5.163" r="5.163" transform="translate(3.678 6.897) rotate(-22.5)" fill="#eaedf7"/>
        </g>
        <g id="Grupo_55109" data-name="Grupo 55109" transform="translate(189.672)">
          <path id="Trazado_110938" data-name="Trazado 110938" d="M307.128,48.84a15.3,15.3,0,0,0-15.3,15.3c0,16.378,15.3,38.464,15.3,38.464s15.25-22.086,15.25-38.464a15.3,15.3,0,0,0-15.25-15.3Z" transform="translate(-291.83 -48.84)" fill="#ef2a66"/>
          <circle id="Elipse_4439" data-name="Elipse 4439" cx="7.563" cy="7.563" r="7.563" transform="translate(7.735 6.626)" fill="#eaedf7"/>
        </g>
        <g id="Grupo_55110" data-name="Grupo 55110" transform="translate(0 77.129)">
          <path id="Trazado_110939" data-name="Trazado 110939" d="M103.126,129.51A9.685,9.685,0,0,0,93.45,139.2c0,10.383,9.676,24.4,9.676,24.4s9.676-14.016,9.676-24.4a9.685,9.685,0,0,0-9.676-9.685Z" transform="translate(-93.45 -129.51)" fill="#ef2a66"/>
          <circle id="Elipse_4440" data-name="Elipse 4440" cx="4.8" cy="4.8" r="4.8" transform="translate(3.139 7.185) rotate(-29.34)" fill="#eaedf7"/>
        </g>
      </g>
    </g>
  </g>
</svg>
