<svg xmlns="http://www.w3.org/2000/svg" xmlns:xlink="http://www.w3.org/1999/xlink" width="316.349" height="310.825" viewBox="0 0 316.349 310.825">
  <defs>
    <clipPath id="clip-path">
      <rect id="Rectángulo_4820" data-name="Rectángulo 4820" width="316.349" height="310.825" fill="none"/>
    </clipPath>
    <clipPath id="clip-path-3">
      <rect id="Rectángulo_4773" data-name="Rectángulo 4773" width="269.82" height="269.821" fill="none"/>
    </clipPath>
    <clipPath id="clip-path-4">
      <rect id="Rectángulo_4774" data-name="Rectángulo 4774" width="198.153" height="198.153" fill="none"/>
    </clipPath>
    <clipPath id="clip-path-5">
      <rect id="Rectángulo_4775" data-name="Rectángulo 4775" width="58.643" height="58.642" fill="none"/>
    </clipPath>
    <clipPath id="clip-path-6">
      <rect id="Rectángulo_4776" data-name="Rectángulo 4776" width="43.141" height="43.141" fill="none"/>
    </clipPath>
    <clipPath id="clip-path-7">
      <rect id="Rectángulo_4777" data-name="Rectángulo 4777" width="22.922" height="22.921" fill="none"/>
    </clipPath>
    <clipPath id="clip-path-9">
      <rect id="Rectángulo_4779" data-name="Rectángulo 4779" width="40.724" height="40.733" fill="none"/>
    </clipPath>
    <clipPath id="clip-path-10">
      <rect id="Rectángulo_4780" data-name="Rectángulo 4780" width="40.725" height="40.733" fill="none"/>
    </clipPath>
    <clipPath id="clip-path-14">
      <rect id="Rectángulo_4786" data-name="Rectángulo 4786" width="38.985" height="38.986" fill="none"/>
    </clipPath>
    <clipPath id="clip-path-15">
      <rect id="Rectángulo_4789" data-name="Rectángulo 4789" width="19.139" height="19.138" fill="none"/>
    </clipPath>
    <clipPath id="clip-path-17">
      <rect id="Rectángulo_4795" data-name="Rectángulo 4795" width="19.137" height="19.137" fill="none"/>
    </clipPath>
    <clipPath id="clip-path-19">
      <rect id="Rectángulo_4797" data-name="Rectángulo 4797" width="44.19" height="6.99" fill="none"/>
    </clipPath>
    <clipPath id="clip-path-20">
      <rect id="Rectángulo_4798" data-name="Rectángulo 4798" width="44.19" height="6.991" fill="none"/>
    </clipPath>
    <clipPath id="clip-path-21">
      <rect id="Rectángulo_4799" data-name="Rectángulo 4799" width="31.626" height="2.696" fill="none"/>
    </clipPath>
    <clipPath id="clip-path-22">
      <rect id="Rectángulo_4800" data-name="Rectángulo 4800" width="31.628" height="2.696" fill="none"/>
    </clipPath>
    <clipPath id="clip-path-24">
      <rect id="Rectángulo_4802" data-name="Rectángulo 4802" width="17.552" height="2.696" fill="none"/>
    </clipPath>
    <clipPath id="clip-path-26">
      <rect id="Rectángulo_4804" data-name="Rectángulo 4804" width="32.085" height="2.696" fill="none"/>
    </clipPath>
    <clipPath id="clip-path-27">
      <rect id="Rectángulo_4805" data-name="Rectángulo 4805" width="21.302" height="21.302" fill="none"/>
    </clipPath>
    <clipPath id="clip-path-29">
      <rect id="Rectángulo_4807" data-name="Rectángulo 4807" width="2.696" height="5.672" fill="none"/>
    </clipPath>
    <clipPath id="clip-path-30">
      <rect id="Rectángulo_4808" data-name="Rectángulo 4808" width="5.672" height="2.696" fill="none"/>
    </clipPath>
    <clipPath id="clip-path-37">
      <rect id="Rectángulo_4815" data-name="Rectángulo 4815" width="12.49" height="12.49" fill="none"/>
    </clipPath>
  </defs>
  <g id="Grupo_18930" data-name="Grupo 18930" transform="translate(-1097 -1455.347)">
    <g id="Grupo_18709" data-name="Grupo 18709" transform="translate(1097 1455.347)">
      <g id="Grupo_18708" data-name="Grupo 18708" clip-path="url(#clip-path)">
        <g id="Grupo_18617" data-name="Grupo 18617">
          <g id="Grupo_18616" data-name="Grupo 18616" clip-path="url(#clip-path)">
            <g id="Grupo_18603" data-name="Grupo 18603" transform="translate(15.847 9.323)" style="mix-blend-mode: screen;isolation: isolate">
              <g id="Grupo_18602" data-name="Grupo 18602">
                <g id="Grupo_18601" data-name="Grupo 18601" clip-path="url(#clip-path-3)">
                  <path id="Trazado_34456" data-name="Trazado 34456" d="M23.513,148.743a134.91,134.91,0,1,1,134.91,134.91,134.91,134.91,0,0,1-134.91-134.91" transform="translate(-23.513 -13.833)" fill="#78a09a"/>
                </g>
              </g>
            </g>
            <g id="Grupo_18606" data-name="Grupo 18606" transform="translate(51.681 67.399)" style="mix-blend-mode: screen;isolation: isolate">
              <g id="Grupo_18605" data-name="Grupo 18605">
                <g id="Grupo_18604" data-name="Grupo 18604" clip-path="url(#clip-path-4)">
                  <path id="Trazado_34457" data-name="Trazado 34457" d="M76.679,199.076a99.076,99.076,0,1,1,99.076,99.076,99.076,99.076,0,0,1-99.076-99.076" transform="translate(-76.679 -100)" fill="#78a09a"/>
                </g>
              </g>
            </g>
            <g id="Grupo_18609" data-name="Grupo 18609" transform="translate(47.371 2.145)" style="mix-blend-mode: screen;isolation: isolate">
              <g id="Grupo_18608" data-name="Grupo 18608">
                <g id="Grupo_18607" data-name="Grupo 18607" clip-path="url(#clip-path-5)">
                  <path id="Trazado_34458" data-name="Trazado 34458" d="M70.285,32.5A29.322,29.322,0,1,1,99.606,61.824,29.321,29.321,0,0,1,70.285,32.5" transform="translate(-70.285 -3.182)" fill="#78a09a"/>
                </g>
              </g>
            </g>
            <g id="Grupo_18612" data-name="Grupo 18612" transform="translate(251.805 66.333)" style="mix-blend-mode: screen;isolation: isolate">
              <g id="Grupo_18611" data-name="Grupo 18611">
                <g id="Grupo_18610" data-name="Grupo 18610" clip-path="url(#clip-path-6)">
                  <path id="Trazado_34459" data-name="Trazado 34459" d="M373.6,119.988a21.57,21.57,0,1,1,21.57,21.57,21.57,21.57,0,0,1-21.57-21.57" transform="translate(-373.604 -98.418)" fill="#78a09a"/>
                </g>
              </g>
            </g>
            <g id="Grupo_18615" data-name="Grupo 18615" transform="translate(21.348 241.285)" style="mix-blend-mode: screen;isolation: isolate">
              <g id="Grupo_18614" data-name="Grupo 18614">
                <g id="Grupo_18613" data-name="Grupo 18613" clip-path="url(#clip-path-7)">
                  <path id="Trazado_34460" data-name="Trazado 34460" d="M31.675,369.456a11.461,11.461,0,1,1,11.461,11.461,11.461,11.461,0,0,1-11.461-11.461" transform="translate(-31.675 -357.996)" fill="#78a09a"/>
                </g>
              </g>
            </g>
          </g>
        </g>
        <g id="Grupo_18625" data-name="Grupo 18625">
          <g id="Grupo_18624" data-name="Grupo 18624" clip-path="url(#clip-path)">
            <g id="Grupo_18620" data-name="Grupo 18620" transform="translate(225.961 134.798)" style="mix-blend-mode: multiply;isolation: isolate">
              <g id="Grupo_18619" data-name="Grupo 18619">
                <g id="Grupo_18618" data-name="Grupo 18618" clip-path="url(#clip-path-9)">
                  <path id="Trazado_34461" data-name="Trazado 34461" d="M335.26,220.365a20.363,20.363,0,1,1,20.366,20.368,20.363,20.363,0,0,1-20.366-20.368" transform="translate(-335.26 -200)" fill="#c7e2dd"/>
                  <path id="Trazado_34462" data-name="Trazado 34462" d="M362.45,223.153a3.321,3.321,0,1,1,3.32-3.322h2.7a6.022,6.022,0,0,0-4.668-5.858v-1.286h-2.7v1.285a6.015,6.015,0,0,0,1.348,11.878,3.323,3.323,0,1,1-3.322,3.325h-2.7a6.006,6.006,0,0,0,4.67,5.859v1.285h2.7v-1.286a6.016,6.016,0,0,0-1.348-11.878" transform="translate(-342.162 -204.136)" fill="#78a09a"/>
                </g>
              </g>
            </g>
            <g id="Grupo_18623" data-name="Grupo 18623" transform="translate(33.422 130.014)" style="mix-blend-mode: multiply;isolation: isolate">
              <g id="Grupo_18622" data-name="Grupo 18622">
                <g id="Grupo_18621" data-name="Grupo 18621" clip-path="url(#clip-path-10)">
                  <path id="Trazado_34463" data-name="Trazado 34463" d="M49.588,213.268a20.363,20.363,0,1,1,20.366,20.368,20.363,20.363,0,0,1-20.366-20.368" transform="translate(-49.588 -192.903)" fill="#c7e2dd"/>
                  <path id="Trazado_34464" data-name="Trazado 34464" d="M76.779,216.056a3.321,3.321,0,1,1,3.32-3.322h2.7a6.023,6.023,0,0,0-4.668-5.858V205.59h-2.7v1.285a6.015,6.015,0,0,0,1.348,11.878,3.323,3.323,0,1,1-3.322,3.325h-2.7a6.006,6.006,0,0,0,4.67,5.859v1.285h2.7v-1.286a6.016,6.016,0,0,0-1.348-11.878" transform="translate(-56.491 -197.039)" fill="#78a09a"/>
                </g>
              </g>
            </g>
          </g>
        </g>
        <g id="Grupo_18627" data-name="Grupo 18627">
          <g id="Grupo_18626" data-name="Grupo 18626" clip-path="url(#clip-path)">
            <path id="Trazado_34465" data-name="Trazado 34465" d="M45.776,268.94a22.932,22.932,0,1,1,22.935,22.938A22.932,22.932,0,0,1,45.776,268.94" transform="translate(-14.924 -80.201)" fill="#fce53f"/>
            <path id="Trazado_34466" data-name="Trazado 34466" d="M84.148,252.38a22.927,22.927,0,0,1-31.987,32,22.929,22.929,0,1,0,31.987-32" transform="translate(-17.005 -82.279)" fill="#efbc1b"/>
            <path id="Trazado_34467" data-name="Trazado 34467" d="M46.472,268.289a21.584,21.584,0,1,1,21.587,21.589,21.612,21.612,0,0,1-21.587-21.589m21.587,24.285a24.284,24.284,0,1,0-24.283-24.285,24.308,24.308,0,0,0,24.283,24.285" transform="translate(-14.271 -79.548)" fill="#111416"/>
            <path id="Trazado_34468" data-name="Trazado 34468" d="M76.48,272.25a3.909,3.909,0,1,1,3.909-3.91h2.7a6.608,6.608,0,0,0-5.257-6.466v-1.581h-2.7v1.581a6.606,6.606,0,0,0,1.348,13.073,3.911,3.911,0,1,1-3.91,3.915h-2.7a6.616,6.616,0,0,0,5.258,6.466v1.579h2.7v-1.579A6.608,6.608,0,0,0,76.48,272.25" transform="translate(-22.78 -84.859)" fill="#111416"/>
            <path id="Trazado_34469" data-name="Trazado 34469" d="M272.18,30.5a27.137,27.137,0,1,1,27.142,27.145A27.139,27.139,0,0,1,272.18,30.5" transform="translate(-88.734 -1.094)" fill="#fce53f"/>
            <path id="Trazado_34470" data-name="Trazado 34470" d="M317.59,10.9a27.132,27.132,0,0,1-37.855,37.874A27.135,27.135,0,1,0,317.59,10.9" transform="translate(-91.197 -3.553)" fill="#efbc1b"/>
            <path id="Trazado_34471" data-name="Trazado 34471" d="M272.875,29.844a25.79,25.79,0,1,1,25.794,25.8,25.823,25.823,0,0,1-25.794-25.8m25.794,28.493a28.491,28.491,0,1,0-28.49-28.493,28.52,28.52,0,0,0,28.49,28.493" transform="translate(-88.081 -0.442)" fill="#111416"/>
            <path id="Trazado_34472" data-name="Trazado 34472" d="M308.635,34.661a4.875,4.875,0,1,1,4.873-4.875h2.7a7.577,7.577,0,0,0-6.221-7.443v-2.08h-2.7v2.08a7.567,7.567,0,0,0,1.348,15.014,4.876,4.876,0,1,1-4.874,4.879h-2.7a7.577,7.577,0,0,0,6.222,7.442v2.079h2.7V49.678a7.569,7.569,0,0,0-1.348-15.017" transform="translate(-98.151 -6.606)" fill="#111416"/>
            <path id="Trazado_34473" data-name="Trazado 34473" d="M333.076,275.773a21.835,21.835,0,1,1,21.837,21.84,21.835,21.835,0,0,1-21.837-21.84" transform="translate(-108.587 -82.786)" fill="#fce53f"/>
            <path id="Trazado_34474" data-name="Trazado 34474" d="M369.612,260.005a21.83,21.83,0,0,1-30.456,30.472,21.832,21.832,0,1,0,30.456-30.472" transform="translate(-110.569 -84.765)" fill="#efbc1b"/>
            <path id="Trazado_34475" data-name="Trazado 34475" d="M333.772,275.12a20.487,20.487,0,1,1,20.489,20.492,20.512,20.512,0,0,1-20.489-20.492m20.489,23.188a23.187,23.187,0,1,0-23.185-23.188,23.21,23.21,0,0,0,23.185,23.188" transform="translate(-107.935 -82.134)" fill="#111416"/>
            <path id="Trazado_34476" data-name="Trazado 34476" d="M362.279,278.859a3.658,3.658,0,1,1,3.658-3.659h2.7a6.363,6.363,0,0,0-5.006-6.207v-1.454h-2.7v1.454a6.353,6.353,0,0,0,1.348,12.562,3.66,3.66,0,1,1-3.659,3.662h-2.7a6.364,6.364,0,0,0,5.007,6.207v1.454h2.7v-1.454a6.355,6.355,0,0,0-1.348-12.564" transform="translate(-116.035 -87.221)" fill="#111416"/>
          </g>
        </g>
        <g id="Grupo_18629" data-name="Grupo 18629">
          <g id="Grupo_18628" data-name="Grupo 18628" clip-path="url(#clip-path)">
            <path id="Trazado_34477" data-name="Trazado 34477" d="M92.362,305.168a36.977,36.977,0,1,1,36.983,36.987,36.978,36.978,0,0,1-36.983-36.987" transform="translate(-30.111 -87.432)" fill="#fce53f"/>
            <path id="Trazado_34478" data-name="Trazado 34478" d="M115.19,332.839a29.731,29.731,0,0,1,41.48-41.5,29.734,29.734,0,1,0-41.48,41.5" transform="translate(-33.506 -90.932)" fill="#efbc1b"/>
            <path id="Trazado_34479" data-name="Trazado 34479" d="M93.057,304.516a35.629,35.629,0,1,1,35.635,35.639,35.675,35.675,0,0,1-35.635-35.639m35.635,38.335a38.332,38.332,0,1,0-38.331-38.335,38.371,38.371,0,0,0,38.331,38.335" transform="translate(-29.459 -86.78)" fill="#111416"/>
            <path id="Trazado_34480" data-name="Trazado 34480" d="M103.8,308.019a28.387,28.387,0,1,1,28.394,28.4,28.426,28.426,0,0,1-28.394-28.4m28.394,31.092a31.091,31.091,0,1,0-31.09-31.092,30.865,30.865,0,0,0,31.09,31.092" transform="translate(-32.961 -90.282)" fill="#111416"/>
            <path id="Trazado_34481" data-name="Trazado 34481" d="M143.055,313.222a5.586,5.586,0,1,1,5.584-5.587h2.7a8.286,8.286,0,0,0-6.932-8.161v-2.45h-2.7v2.45a8.276,8.276,0,0,0,1.348,16.443,5.587,5.587,0,1,1-5.586,5.59h-2.7a8.286,8.286,0,0,0,6.934,8.16v2.449h2.7v-2.449a8.278,8.278,0,0,0-1.348-16.446" transform="translate(-43.938 -96.834)" fill="#111416"/>
            <path id="Trazado_34482" data-name="Trazado 34482" d="M187.751,76.392a36.977,36.977,0,1,1,36.982,36.987,36.978,36.978,0,0,1-36.982-36.987" transform="translate(-61.209 -12.848)" fill="#fce53f"/>
            <path id="Trazado_34483" data-name="Trazado 34483" d="M210.579,104.064a29.731,29.731,0,0,1,41.48-41.5,29.734,29.734,0,1,0-41.48,41.5" transform="translate(-64.604 -16.349)" fill="#efbc1b"/>
            <path id="Trazado_34484" data-name="Trazado 34484" d="M188.447,75.74a35.629,35.629,0,1,1,35.634,35.639A35.674,35.674,0,0,1,188.447,75.74m35.634,38.335a38.332,38.332,0,1,0-38.33-38.335,38.37,38.37,0,0,0,38.33,38.335" transform="translate(-60.557 -12.196)" fill="#111416"/>
            <path id="Trazado_34485" data-name="Trazado 34485" d="M199.189,79.243a28.389,28.389,0,1,1,28.394,28.4,28.426,28.426,0,0,1-28.394-28.4m28.394,31.093a31.091,31.091,0,1,0-31.09-31.093,31.122,31.122,0,0,0,31.09,31.093" transform="translate(-64.059 -15.699)" fill="#111416"/>
            <path id="Trazado_34486" data-name="Trazado 34486" d="M238.444,84.446a5.586,5.586,0,1,1,5.584-5.587h2.7a8.286,8.286,0,0,0-6.932-8.161v-2.45h-2.7V70.7a8.276,8.276,0,0,0,1.348,16.443,5.587,5.587,0,1,1-5.586,5.59h-2.7a8.286,8.286,0,0,0,6.934,8.16v2.449h2.7v-2.449a8.278,8.278,0,0,0-1.348-16.446" transform="translate(-75.035 -22.25)" fill="#111416"/>
          </g>
        </g>
        <g id="Grupo_18643" data-name="Grupo 18643">
          <g id="Grupo_18642" data-name="Grupo 18642" clip-path="url(#clip-path)">
            <path id="Trazado_34487" data-name="Trazado 34487" d="M241.719,227.654l-56.485-57.192a9.977,9.977,0,0,0-14.106,0L161,160.337,120.635,200.71s7.105,7.111,10.148,10.15a13.275,13.275,0,0,0,3.024,13.468l51.8,51.8a9.241,9.241,0,0,0,13.069-13.069c3.609,3.609,10.952,6.826,15.436,2.345a9.244,9.244,0,0,0,.007-13.077c3.609,3.609,10.929,5.077,14.531,1.473a9.242,9.242,0,0,0,0-13.074,9.242,9.242,0,0,0,13.072-13.069" transform="translate(-39.328 -52.272)" fill="#ffe3bb"/>
            <path id="Trazado_34488" data-name="Trazado 34488" d="M128.329,211.039h0l-1.44-1.44,1.44,1.441m115.429,21.286-56.485-57.192c-.166-.166-.342-.315-.517-.468l52.509,53.167a9.243,9.243,0,0,1-8.282,15.61c-1.755-.336-2.591.48-2.252,2.228a9.241,9.241,0,0,1-2.541,8.306c-2.188,2.189-5.748,2.507-9.014,1.611-2.111-.58-2.974.677-2.831,2.832a9.235,9.235,0,0,1-2.693,7.161c-2.713,2.711-6.474,2.6-9.821,1.3-2.183-.853-3.127-.011-2.943,2.075a9.244,9.244,0,0,1-10.9,9.9c-1.773-.328-.348,1.943-.348,1.943a9.241,9.241,0,0,0,13.069-13.069c3.609,3.609,10.952,6.826,15.436,2.345A9.244,9.244,0,0,0,216.152,257c3.609,3.609,10.929,5.077,14.531,1.473a9.242,9.242,0,0,0,0-13.074,9.242,9.242,0,0,0,13.072-13.069" transform="translate(-41.367 -56.943)" fill="#edbf96"/>
            <path id="Trazado_34489" data-name="Trazado 34489" d="M193.218,284.624a9.241,9.241,0,0,0-13.071-13.068l-3.519,3.52,3.518-3.522a9.241,9.241,0,1,0-13.069-13.069h0a9.241,9.241,0,0,0-13.069-13.069l-6.534,6.534a9.217,9.217,0,0,0-1.931,2.847L157.7,266.954a9.2,9.2,0,0,0,2.825-1.91,9.205,9.205,0,0,0-1.909,2.826l12.153,12.154A9.214,9.214,0,0,0,173.6,278.1a9.228,9.228,0,0,0-1.921,2.837l12.154,12.154a9.212,9.212,0,0,0,2.823-1.908,9.227,9.227,0,0,0-1.908,2.824l8.971,8.971a9.183,9.183,0,0,0,4.514,2.475,9.3,9.3,0,0,0,1.513-1.221l6.535-6.539a9.2,9.2,0,0,0,2.531-4.74,9.213,9.213,0,0,0-2.025-3.044,15.83,15.83,0,0,0,2.176,1.8,9.233,9.233,0,0,0-15.748-7.085" transform="translate(-47.449 -79.126)" fill="#edbf96"/>
            <path id="Trazado_34490" data-name="Trazado 34490" d="M275.671,197.226l-40.25-40.251-6.247,6.245c-5.36-2.864-19.011-3.007-23.222,1.2l-2.3,2.354v0L188.944,181.49c-.23.191-.478.349-.7.564s-.375.468-.566.7l-.316.313.031.031a10.857,10.857,0,0,0,15.247,15.248l.16.158,16.2-16.2,40.538,41.023,2.665-2.658a13.045,13.045,0,0,0,3.255-13.236l10.211-10.21" transform="translate(-60.338 -51.176)" fill="#ffe3bb"/>
            <path id="Trazado_34491" data-name="Trazado 34491" d="M238.23,159.785l-2.809-2.809-6.247,6.245c-5.36-2.864-19.011-3.007-23.222,1.2l-2.3,2.354v0l-14.708,14.711c-.229.191-.478.349-.7.564s-.375.468-.566.7l-.316.313.031.031a10.853,10.853,0,0,0,2.385,15.672,10.91,10.91,0,0,1,.423-12.864l-.031-.03.316-.313c.191-.23.35-.481.566-.7s.466-.374.7-.565l14.708-14.711v0l2.3-2.354c4.212-4.209,17.862-4.067,23.222-1.2l6.247-6.244m-16.419,25.332-.017.017,37.746,38.2.017-.016Z" transform="translate(-60.338 -51.176)" fill="#fff9f3"/>
            <path id="Trazado_34492" data-name="Trazado 34492" d="M199.846,194.8l-.159-.158a10.908,10.908,0,0,1-12.309.769,10.817,10.817,0,0,0,16.016,2.938l.159.158,16.176-16.172-3.685-3.73Zm36.325-37.821,36.543,36.544L262.5,203.73a13.042,13.042,0,0,1-3.255,13.236L256.6,219.6l3.685,3.729,2.664-2.658a13.042,13.042,0,0,0,3.255-13.236l10.212-10.211Z" transform="translate(-61.087 -51.176)" fill="#edbf96"/>
            <path id="Trazado_34493" data-name="Trazado 34493" d="M279.7,231.685a12.742,12.742,0,0,0,2.62-6.05l-46.913-31.073,40.538,41.023,3.544-3.685c.008-.009.086-.088.21-.214" transform="translate(-76.747 -63.429)" fill="#edbf96"/>
            <path id="Trazado_34494" data-name="Trazado 34494" d="M151.168,265.025l6.534-6.538a9.241,9.241,0,0,0-13.069-13.069l-6.534,6.535a9.242,9.242,0,0,0,13.069,13.073" transform="translate(-44.14 -79.126)" fill="#ffe3bb"/>
            <path id="Trazado_34495" data-name="Trazado 34495" d="M140.762,254.614l6.534-6.534c3.609-3.609,8.268-4.8,10.406-2.664a9.241,9.241,0,0,0-13.069,0l-6.534,6.534a9.246,9.246,0,0,0,0,13.072c-2.138-2.138-.946-6.8,2.664-10.409" transform="translate(-44.139 -79.126)" fill="#fff9f3"/>
            <path id="Trazado_34496" data-name="Trazado 34496" d="M159.013,246.728c2.137,2.14.944,6.8-2.665,10.4l-6.535,6.538c-3.61,3.607-8.271,4.8-10.406,2.663h0a9.245,9.245,0,0,0,13.069,0l6.534-6.539a9.239,9.239,0,0,0,0-13.068" transform="translate(-45.448 -80.436)" fill="#edbf96"/>
            <path id="Trazado_34497" data-name="Trazado 34497" d="M170.559,284.414l6.534-6.539a9.241,9.241,0,1,0-13.069-13.069l-6.534,6.535a9.243,9.243,0,0,0,13.069,13.073" transform="translate(-50.461 -85.447)" fill="#ffe3bb"/>
            <path id="Trazado_34498" data-name="Trazado 34498" d="M160.154,274l6.534-6.534c3.609-3.609,8.268-4.8,10.406-2.664a9.241,9.241,0,0,0-13.069,0l-6.534,6.534a9.245,9.245,0,0,0,0,13.072c-2.138-2.138-.946-6.8,2.664-10.409" transform="translate(-50.461 -85.448)" fill="#fff9f3"/>
            <path id="Trazado_34499" data-name="Trazado 34499" d="M178.4,266.117c2.137,2.14.944,6.8-2.665,10.4L169.2,283.06c-3.61,3.607-8.271,4.8-10.406,2.663h0a9.245,9.245,0,0,0,13.069,0l6.534-6.539a9.239,9.239,0,0,0,0-13.068" transform="translate(-51.77 -86.757)" fill="#edbf96"/>
            <path id="Trazado_34500" data-name="Trazado 34500" d="M189.95,303.808l6.534-6.539A9.241,9.241,0,1,0,183.416,284.2l-6.534,6.535a9.243,9.243,0,0,0,13.069,13.073" transform="translate(-56.783 -91.77)" fill="#ffe3bb"/>
            <path id="Trazado_34501" data-name="Trazado 34501" d="M179.545,293.4l6.534-6.534c3.609-3.609,8.268-4.8,10.406-2.664a9.241,9.241,0,0,0-13.069,0l-6.534,6.534a9.245,9.245,0,0,0,0,13.072c-2.138-2.138-.946-6.8,2.664-10.409" transform="translate(-56.783 -91.77)" fill="#fff9f3"/>
            <path id="Trazado_34502" data-name="Trazado 34502" d="M197.8,285.511c2.137,2.14.944,6.8-2.665,10.4l-6.535,6.538c-3.61,3.607-8.271,4.8-10.406,2.663h0a9.245,9.245,0,0,0,13.069,0l6.534-6.539a9.239,9.239,0,0,0,0-13.068" transform="translate(-58.092 -93.08)" fill="#edbf96"/>
            <path id="Trazado_34503" data-name="Trazado 34503" d="M209.34,323.2l6.534-6.539a9.241,9.241,0,0,0-13.069-13.069l-6.534,6.535A9.243,9.243,0,0,0,209.34,323.2" transform="translate(-63.104 -98.091)" fill="#ffe3bb"/>
            <path id="Trazado_34504" data-name="Trazado 34504" d="M198.935,312.788l6.534-6.534c3.609-3.609,8.267-4.8,10.405-2.664a9.24,9.24,0,0,0-13.069,0l-6.534,6.534a9.245,9.245,0,0,0,0,13.072c-2.138-2.138-.946-6.8,2.664-10.409" transform="translate(-63.104 -98.092)" fill="#fff9f3"/>
            <path id="Trazado_34505" data-name="Trazado 34505" d="M217.185,304.9c2.138,2.14.944,6.8-2.664,10.4l-6.536,6.538c-3.609,3.607-8.271,4.8-10.405,2.663h0a9.244,9.244,0,0,0,13.068,0l6.534-6.539a9.237,9.237,0,0,0,0-13.068" transform="translate(-64.413 -99.402)" fill="#edbf96"/>
            <path id="Trazado_34506" data-name="Trazado 34506" d="M216.454,288.245A10.59,10.59,0,0,0,230.7,272.607a1.348,1.348,0,0,0-1.906,1.907c4.086,4.086,12.17,7.515,17.342,2.345a10.59,10.59,0,0,0,.007-14.983,1.348,1.348,0,1,0-1.906,1.906,14.522,14.522,0,0,0,9.823,3.946,9.1,9.1,0,0,0,6.615-2.473,10.594,10.594,0,0,0,0-14.981,1.348,1.348,0,0,0-1.906,1.907,10.59,10.59,0,0,0,14.978-14.975l-43.721-44.244a1.348,1.348,0,0,0-1.918,1.9l43.726,44.25a7.894,7.894,0,1,1-11.159,11.168,1.348,1.348,0,0,1-1.906,1.907,7.9,7.9,0,0,1,0,11.168,6.6,6.6,0,0,1-4.708,1.683,11.7,11.7,0,0,1-7.916-3.156,1.348,1.348,0,1,0-1.906,1.906,7.894,7.894,0,0,1-.007,11.17c-3.815,3.813-10.329.855-13.53-2.345a1.348,1.348,0,0,1-1.906,1.907,7.893,7.893,0,0,1-10.619,11.657,1.348,1.348,0,0,0-1.724,2.073" transform="translate(-70.408 -62.777)" fill="#111416"/>
            <path id="Trazado_34507" data-name="Trazado 34507" d="M182.044,166.477a11.269,11.269,0,0,0-12.521,2.379,1.348,1.348,0,0,1,1.906,0L161.3,158.732a1.347,1.347,0,0,0-1.906,0L119.03,199.1a1.348,1.348,0,0,0,0,1.906l10.15,10.15a1.35,1.35,0,0,1-.332-1.363,14.641,14.641,0,0,0,3.355,14.83l.127.128a1.348,1.348,0,1,0,1.9-1.909l-.126-.127a11.952,11.952,0,0,1-2.691-12.1,1.349,1.349,0,0,0-.332-1.362L120.936,199.1a1.347,1.347,0,0,1,0,1.906L161.3,160.638a1.347,1.347,0,0,1-1.906,0l10.125,10.124a1.347,1.347,0,0,0,1.906,0,8.587,8.587,0,0,1,9.542-1.813,1.348,1.348,0,1,0,1.074-2.473" transform="translate(-38.676 -51.62)" fill="#111416"/>
            <path id="Trazado_34508" data-name="Trazado 34508" d="M209.647,323.5l6.537-6.534a10.59,10.59,0,0,0-14.977-14.976l-6.537,6.535A10.59,10.59,0,1,0,209.647,323.5M196.575,321.6a7.906,7.906,0,0,1,0-11.163l6.536-6.534a7.894,7.894,0,1,1,11.165,11.163l-6.537,6.534a7.907,7.907,0,0,1-11.165,0" transform="translate(-62.456 -97.444)" fill="#111416"/>
            <path id="Trazado_34509" data-name="Trazado 34509" d="M190.253,304.111l6.536-6.534A10.591,10.591,0,0,0,181.812,282.6l-6.535,6.536a10.59,10.59,0,1,0,14.975,14.977M177.183,302.2a7.905,7.905,0,0,1,0-11.165l6.534-6.535a7.9,7.9,0,0,1,11.165,11.166l-6.537,6.534a7.893,7.893,0,0,1-11.163,0" transform="translate(-56.133 -91.121)" fill="#111416"/>
            <path id="Trazado_34510" data-name="Trazado 34510" d="M170.86,284.715l6.534-6.535A10.59,10.59,0,0,0,162.419,263.2l-6.536,6.54a10.589,10.589,0,0,0,14.976,14.973m-13.07-1.907a7.891,7.891,0,0,1,0-11.161l6.535-6.539a7.894,7.894,0,1,1,11.163,11.165l-6.534,6.535a7.9,7.9,0,0,1-11.163,0" transform="translate(-49.809 -84.796)" fill="#111416"/>
            <path id="Trazado_34511" data-name="Trazado 34511" d="M151.473,265.328l6.534-6.539a10.589,10.589,0,0,0-14.975-14.975l-6.534,6.535a10.591,10.591,0,1,0,14.975,14.979M138.4,263.421a7.909,7.909,0,0,1,0-11.168l6.534-6.534A7.893,7.893,0,1,1,156.1,256.882l-6.534,6.539a7.9,7.9,0,0,1-11.163,0" transform="translate(-43.49 -78.476)" fill="#111416"/>
            <path id="Trazado_34512" data-name="Trazado 34512" d="M259.844,223.634l2.664-2.658a14.447,14.447,0,0,0,3.588-14.6,1.345,1.345,0,0,1-.332,1.361l10.212-10.21a1.348,1.348,0,0,0,0-1.907l-40.25-40.251a1.348,1.348,0,0,0-1.906,0l-6.247,6.245a1.348,1.348,0,0,1,1.589-.236c-5.593-2.988-19.964-3.406-24.81,1.438l-2.31,2.365a1.349,1.349,0,0,0-.384.942,1.342,1.342,0,0,1,.395-.95l-14.708,14.711a1.178,1.178,0,0,1,.091-.083c-.061.05-.133.105-.211.164a4.305,4.305,0,0,0-1.06,1.06c-.059.078-.114.15-.164.212a1.178,1.178,0,0,1,.087-.1l-.316.313a1.347,1.347,0,0,0,0,1.915,1.305,1.305,0,0,1-.084-1.756,12.2,12.2,0,0,0,17.138,17.14,1.348,1.348,0,0,1-1.777-.1l.159.158a1.349,1.349,0,0,0,1.9-.005l16.2-16.195A1.348,1.348,0,0,0,217.4,180.7l-16.2,16.2a1.349,1.349,0,0,1,1.9-.005l-.16-.158a1.347,1.347,0,0,0-1.777-.1,9.51,9.51,0,0,1-13.355-13.357,1.348,1.348,0,0,0-.115-1.787,1.3,1.3,0,0,1,.384.942,1.326,1.326,0,0,1-.414.942l.315-.313a1.052,1.052,0,0,0,.087-.1c.091-.109.172-.216.243-.31a3.15,3.15,0,0,1,.244-.3,3.456,3.456,0,0,1,.291-.235c.094-.071.2-.152.31-.243q.047-.039.091-.083l14.708-14.711a1.348,1.348,0,0,0,.394-.953,1.34,1.34,0,0,1-.384.939l2.3-2.354c3.594-3.591,16.506-3.69,21.623-.955a1.347,1.347,0,0,0,1.588-.236l6.247-6.245a1.347,1.347,0,0,1-1.906,0l40.25,40.252a1.348,1.348,0,0,1,0-1.907l-10.212,10.211a1.345,1.345,0,0,0-.331,1.36,11.756,11.756,0,0,1-2.924,11.876l-2.662,2.656a1.348,1.348,0,0,0,1.9,1.909" transform="translate(-59.689 -50.524)" fill="#111416"/>
            <rect id="Rectángulo_4784" data-name="Rectángulo 4784" width="72.757" height="37.788" transform="translate(43.077 121.286) rotate(-45)" fill="#472ea6"/>
            <g id="Grupo_18632" data-name="Grupo 18632" transform="translate(43.077 109.02)" style="mix-blend-mode: multiply;isolation: isolate">
              <g id="Grupo_18631" data-name="Grupo 18631">
                <g id="Grupo_18630" data-name="Grupo 18630" clip-path="url(#clip-path-14)">
                  <rect id="Rectángulo_4785" data-name="Rectángulo 4785" width="17.347" height="37.788" transform="matrix(0.707, -0.707, 0.707, 0.707, 0, 12.266)" fill="#949b9a"/>
                </g>
              </g>
            </g>
            <rect id="Rectángulo_4787" data-name="Rectángulo 4787" width="65.721" height="8.26" transform="matrix(0.707, -0.707, 0.707, 0.707, 72.417, 145.649)" fill="#fff"/>
            <g id="Grupo_18635" data-name="Grupo 18635" transform="translate(72.415 132.35)" style="mix-blend-mode: multiply;isolation: isolate">
              <g id="Grupo_18634" data-name="Grupo 18634">
                <g id="Grupo_18633" data-name="Grupo 18633" clip-path="url(#clip-path-15)">
                  <rect id="Rectángulo_4788" data-name="Rectángulo 4788" width="18.806" height="8.259" transform="translate(0 13.298) rotate(-45)" fill="#b8d1cd"/>
                </g>
              </g>
            </g>
            <path id="Trazado_34513" data-name="Trazado 34513" d="M62.308,155.368l26.72,26.72a1.349,1.349,0,0,0,1.906,0l51.446-51.448a1.348,1.348,0,0,0,0-1.907l-26.72-26.72a1.348,1.348,0,0,0-1.906,1.906l26.72,26.72a1.349,1.349,0,0,1,0-1.907L89.028,180.181a1.347,1.347,0,0,1,1.906,0l-26.72-26.72a1.348,1.348,0,0,0-1.906,1.906" transform="translate(-20.184 -33.129)" fill="#111416"/>
            <path id="Trazado_34514" data-name="Trazado 34514" d="M105.838,193.921l5.841,5.84a1.348,1.348,0,0,0,1.906,0l46.472-46.471a1.347,1.347,0,0,0,0-1.906l-5.841-5.84a1.348,1.348,0,1,0-1.906,1.906l5.841,5.84a1.347,1.347,0,0,1,0-1.906l-46.472,46.472a1.348,1.348,0,0,1,1.906,0l-5.841-5.84a1.348,1.348,0,0,0-1.906,1.906" transform="translate(-34.376 -47.32)" fill="#111416"/>
            <path id="Trazado_34515" data-name="Trazado 34515" d="M98.519,178.162a2.868,2.868,0,1,0,4.055,0,2.867,2.867,0,0,0-4.055,0" transform="translate(-31.845 -57.809)" fill="#111416"/>
            <rect id="Rectángulo_4790" data-name="Rectángulo 4790" width="37.788" height="72.757" transform="translate(175.352 94.126) rotate(-45)" fill="#fd8f25"/>
            <g id="Grupo_18638" data-name="Grupo 18638" transform="translate(214.534 106.587)" style="mix-blend-mode: multiply;isolation: isolate">
              <g id="Grupo_18637" data-name="Grupo 18637">
                <g id="Grupo_18636" data-name="Grupo 18636" clip-path="url(#clip-path-14)">
                  <rect id="Rectángulo_4791" data-name="Rectángulo 4791" width="37.788" height="17.346" transform="translate(-0.001 26.721) rotate(-45.001)" fill="#949b9a"/>
                </g>
              </g>
            </g>
            <rect id="Rectángulo_4793" data-name="Rectángulo 4793" width="8.259" height="65.72" transform="translate(171.869 102.585) rotate(-45)" fill="#fff"/>
            <g id="Grupo_18641" data-name="Grupo 18641" transform="translate(205.043 129.919)" style="mix-blend-mode: multiply;isolation: isolate">
              <g id="Grupo_18640" data-name="Grupo 18640">
                <g id="Grupo_18639" data-name="Grupo 18639" clip-path="url(#clip-path-17)">
                  <rect id="Rectángulo_4794" data-name="Rectángulo 4794" width="8.259" height="18.805" transform="matrix(0.707, -0.707, 0.707, 0.707, -0.001, 5.84)" fill="#b8d1cd"/>
                </g>
              </g>
            </g>
            <path id="Trazado_34516" data-name="Trazado 34516" d="M336.733,149.853l-26.72,26.72a1.348,1.348,0,0,1,1.907,0l-51.446-51.448a1.348,1.348,0,0,1,0,1.906l26.719-26.72a1.348,1.348,0,1,0-1.906-1.906l-26.72,26.72a1.348,1.348,0,0,0,0,1.906l51.446,51.448a1.348,1.348,0,0,0,1.907,0l26.72-26.72a1.348,1.348,0,1,0-1.906-1.906" transform="translate(-84.167 -31.953)" fill="#111416"/>
            <path id="Trazado_34517" data-name="Trazado 34517" d="M305.709,188.407l-5.84,5.84a1.348,1.348,0,0,1,1.906,0L255.3,147.775a1.347,1.347,0,0,1,0,1.906l5.841-5.84a1.348,1.348,0,0,0-1.906-1.906l-5.841,5.84a1.347,1.347,0,0,0,0,1.906l46.472,46.472a1.348,1.348,0,0,0,1.906,0l5.84-5.84a1.348,1.348,0,1,0-1.906-1.906" transform="translate(-82.482 -46.144)" fill="#111416"/>
            <path id="Trazado_34518" data-name="Trazado 34518" d="M338.768,174.553a2.868,2.868,0,1,1-4.055,0,2.867,2.867,0,0,1,4.055,0" transform="translate(-108.846 -56.633)" fill="#111416"/>
          </g>
        </g>
        <g id="Grupo_18702" data-name="Grupo 18702">
          <g id="Grupo_18701" data-name="Grupo 18701" clip-path="url(#clip-path)">
            <g id="Grupo_18646" data-name="Grupo 18646" transform="translate(0 92.054)" style="mix-blend-mode: multiply;isolation: isolate">
              <g id="Grupo_18645" data-name="Grupo 18645">
                <g id="Grupo_18644" data-name="Grupo 18644" clip-path="url(#clip-path-19)">
                  <path id="Trazado_34519" data-name="Trazado 34519" d="M.395,141.03a8.7,8.7,0,0,0,12.281,0,6,6,0,0,1,8.471,0,8.682,8.682,0,0,0,12.275,0,5.987,5.987,0,0,1,8.466,0,1.348,1.348,0,0,0,1.907-1.907,8.685,8.685,0,0,0-12.279,0,5.985,5.985,0,0,1-8.463,0,8.7,8.7,0,0,0-12.282,0,6,6,0,0,1-8.47,0A1.348,1.348,0,0,0,.395,141.03" transform="translate(0 -136.581)" fill="#567771"/>
                </g>
              </g>
            </g>
            <g id="Grupo_18649" data-name="Grupo 18649" transform="translate(204.632 222.519)" style="mix-blend-mode: multiply;isolation: isolate">
              <g id="Grupo_18648" data-name="Grupo 18648">
                <g id="Grupo_18647" data-name="Grupo 18647" clip-path="url(#clip-path-20)">
                  <path id="Trazado_34520" data-name="Trazado 34520" d="M304.008,334.6a8.7,8.7,0,0,0,12.281,0,6,6,0,0,1,8.471,0,8.681,8.681,0,0,0,12.275,0,5.989,5.989,0,0,1,8.466,0,1.348,1.348,0,0,0,1.907-1.906,8.684,8.684,0,0,0-12.279,0,5.986,5.986,0,0,1-8.464,0,8.7,8.7,0,0,0-12.281,0,6,6,0,0,1-8.47,0,1.348,1.348,0,1,0-1.906,1.907" transform="translate(-303.613 -330.152)" fill="#b8d1cd"/>
                </g>
              </g>
            </g>
            <g id="Grupo_18652" data-name="Grupo 18652" transform="translate(164.269 243.883)" style="mix-blend-mode: multiply;isolation: isolate">
              <g id="Grupo_18651" data-name="Grupo 18651">
                <g id="Grupo_18650" data-name="Grupo 18650" clip-path="url(#clip-path-21)">
                  <path id="Trazado_34521" data-name="Trazado 34521" d="M274,361.851h-28.93a1.348,1.348,0,1,0,0,2.7H274a1.348,1.348,0,1,0,0-2.7" transform="translate(-243.726 -361.851)" fill="#78a09a"/>
                </g>
              </g>
            </g>
            <g id="Grupo_18655" data-name="Grupo 18655" transform="translate(270.65 85.597)" style="mix-blend-mode: multiply;isolation: isolate">
              <g id="Grupo_18654" data-name="Grupo 18654">
                <g id="Grupo_18653" data-name="Grupo 18653" clip-path="url(#clip-path-22)">
                  <path id="Trazado_34522" data-name="Trazado 34522" d="M431.844,127H402.912a1.348,1.348,0,0,0,0,2.7h28.932a1.348,1.348,0,0,0,0-2.7" transform="translate(-401.564 -127)" fill="#78a09a"/>
                </g>
              </g>
            </g>
            <g id="Grupo_18658" data-name="Grupo 18658" transform="translate(119.83)" style="mix-blend-mode: multiply;isolation: isolate">
              <g id="Grupo_18657" data-name="Grupo 18657">
                <g id="Grupo_18656" data-name="Grupo 18656" clip-path="url(#clip-path-22)">
                  <path id="Trazado_34523" data-name="Trazado 34523" d="M208.073,0H179.141a1.348,1.348,0,0,0,0,2.7h28.932a1.348,1.348,0,0,0,0-2.7" transform="translate(-177.793)" fill="#78a09a"/>
                </g>
              </g>
            </g>
            <g id="Grupo_18661" data-name="Grupo 18661" transform="translate(146.219 256.11)" style="mix-blend-mode: multiply;isolation: isolate">
              <g id="Grupo_18660" data-name="Grupo 18660">
                <g id="Grupo_18659" data-name="Grupo 18659" clip-path="url(#clip-path-24)">
                  <path id="Trazado_34524" data-name="Trazado 34524" d="M233.15,379.991H218.294a1.348,1.348,0,1,0,0,2.7H233.15a1.348,1.348,0,1,0,0-2.7" transform="translate(-216.946 -379.991)" fill="#b8d1cd"/>
                </g>
              </g>
            </g>
            <g id="Grupo_18664" data-name="Grupo 18664" transform="translate(38.847 76.835)" style="mix-blend-mode: multiply;isolation: isolate">
              <g id="Grupo_18663" data-name="Grupo 18663">
                <g id="Grupo_18662" data-name="Grupo 18662" clip-path="url(#clip-path-24)">
                  <path id="Trazado_34525" data-name="Trazado 34525" d="M73.841,114H58.985a1.348,1.348,0,0,0,0,2.7H73.841a1.348,1.348,0,1,0,0-2.7" transform="translate(-57.637 -114)" fill="#253330"/>
                </g>
              </g>
            </g>
            <g id="Grupo_18667" data-name="Grupo 18667" transform="translate(284.263 99.076)" style="mix-blend-mode: multiply;isolation: isolate">
              <g id="Grupo_18666" data-name="Grupo 18666">
                <g id="Grupo_18665" data-name="Grupo 18665" clip-path="url(#clip-path-26)">
                  <path id="Trazado_34526" data-name="Trazado 34526" d="M452.5,147H423.111a1.348,1.348,0,0,0,0,2.7H452.5a1.348,1.348,0,1,0,0-2.7" transform="translate(-421.763 -147)" fill="#b8d1cd"/>
                </g>
              </g>
            </g>
            <g id="Grupo_18670" data-name="Grupo 18670" transform="translate(58.687 251.532)" style="mix-blend-mode: multiply;isolation: isolate">
              <g id="Grupo_18669" data-name="Grupo 18669">
                <g id="Grupo_18668" data-name="Grupo 18668" clip-path="url(#clip-path-27)">
                  <path id="Trazado_34527" data-name="Trazado 34527" d="M99.073,393.153A10.664,10.664,0,0,0,88.422,382.5a1.348,1.348,0,1,0,0,2.7,10.662,10.662,0,0,0,10.651-10.65,1.348,1.348,0,1,0-2.7,0,10.662,10.662,0,0,0,10.65,10.65,1.348,1.348,0,1,0,0-2.7,10.664,10.664,0,0,0-10.65,10.652,1.348,1.348,0,0,0,2.7,0m7.954-10.652a7.963,7.963,0,0,1-7.954-7.954,1.348,1.348,0,1,0-2.7,0,7.964,7.964,0,0,1-7.955,7.954,1.348,1.348,0,1,0,0,2.7,7.965,7.965,0,0,1,7.955,7.956,1.348,1.348,0,0,0,2.7,0,7.965,7.965,0,0,1,7.954-7.956,1.348,1.348,0,1,0,0-2.7" transform="translate(-87.074 -373.199)" fill="#567771"/>
                </g>
              </g>
            </g>
            <g id="Grupo_18673" data-name="Grupo 18673" transform="translate(5.196 142.886)" style="mix-blend-mode: multiply;isolation: isolate">
              <g id="Grupo_18672" data-name="Grupo 18672">
                <g id="Grupo_18671" data-name="Grupo 18671" clip-path="url(#clip-path-27)">
                  <path id="Trazado_34528" data-name="Trazado 34528" d="M19.709,231.954A10.664,10.664,0,0,0,9.058,221.3a1.348,1.348,0,1,0,0,2.7,10.663,10.663,0,0,0,10.651-10.65,1.348,1.348,0,1,0-2.7,0A10.663,10.663,0,0,0,27.663,224a1.348,1.348,0,0,0,0-2.7,10.663,10.663,0,0,0-10.65,10.652,1.348,1.348,0,1,0,2.7,0M27.663,221.3a7.964,7.964,0,0,1-7.954-7.954,1.348,1.348,0,1,0-2.7,0A7.964,7.964,0,0,1,9.058,221.3a1.348,1.348,0,1,0,0,2.7,7.964,7.964,0,0,1,7.955,7.956,1.348,1.348,0,1,0,2.7,0A7.964,7.964,0,0,1,27.663,224a1.348,1.348,0,0,0,0-2.7" transform="translate(-7.71 -212)" fill="#253330"/>
                </g>
              </g>
            </g>
            <g id="Grupo_18676" data-name="Grupo 18676" transform="translate(281.68 144.795)" style="mix-blend-mode: multiply;isolation: isolate">
              <g id="Grupo_18675" data-name="Grupo 18675">
                <g id="Grupo_18674" data-name="Grupo 18674" clip-path="url(#clip-path-29)">
                  <path id="Trazado_34529" data-name="Trazado 34529" d="M417.93,216.181v2.976a1.348,1.348,0,1,0,2.7,0v-2.976a1.348,1.348,0,1,0-2.7,0" transform="translate(-417.93 -214.833)" fill="#253330"/>
                </g>
              </g>
            </g>
            <g id="Grupo_18679" data-name="Grupo 18679" transform="translate(275.783 150.692)" style="mix-blend-mode: multiply;isolation: isolate">
              <g id="Grupo_18678" data-name="Grupo 18678">
                <g id="Grupo_18677" data-name="Grupo 18677" clip-path="url(#clip-path-30)">
                  <path id="Trazado_34530" data-name="Trazado 34530" d="M413.5,223.583h-2.976a1.348,1.348,0,0,0,0,2.7H413.5a1.348,1.348,0,1,0,0-2.7" transform="translate(-409.18 -223.583)" fill="#253330"/>
                </g>
              </g>
            </g>
            <g id="Grupo_18682" data-name="Grupo 18682" transform="translate(281.68 153.613)" style="mix-blend-mode: multiply;isolation: isolate">
              <g id="Grupo_18681" data-name="Grupo 18681">
                <g id="Grupo_18680" data-name="Grupo 18680" clip-path="url(#clip-path-29)">
                  <path id="Trazado_34531" data-name="Trazado 34531" d="M420.626,232.24v-2.976a1.348,1.348,0,1,0-2.7,0v2.976a1.348,1.348,0,1,0,2.7,0" transform="translate(-417.93 -227.916)" fill="#253330"/>
                </g>
              </g>
            </g>
            <g id="Grupo_18685" data-name="Grupo 18685" transform="translate(284.601 150.692)" style="mix-blend-mode: multiply;isolation: isolate">
              <g id="Grupo_18684" data-name="Grupo 18684">
                <g id="Grupo_18683" data-name="Grupo 18683" clip-path="url(#clip-path-30)">
                  <path id="Trazado_34532" data-name="Trazado 34532" d="M423.611,226.279h2.976a1.348,1.348,0,1,0,0-2.7h-2.976a1.348,1.348,0,0,0,0,2.7" transform="translate(-422.264 -223.583)" fill="#253330"/>
                </g>
              </g>
            </g>
            <g id="Grupo_18688" data-name="Grupo 18688" transform="translate(119.024 16.401)" style="mix-blend-mode: multiply;isolation: isolate">
              <g id="Grupo_18687" data-name="Grupo 18687">
                <g id="Grupo_18686" data-name="Grupo 18686" clip-path="url(#clip-path-29)">
                  <path id="Trazado_34533" data-name="Trazado 34533" d="M176.6,25.682v2.976a1.348,1.348,0,1,0,2.7,0V25.682a1.348,1.348,0,1,0-2.7,0" transform="translate(-176.596 -24.334)" fill="#253330"/>
                </g>
              </g>
            </g>
            <g id="Grupo_18691" data-name="Grupo 18691" transform="translate(113.126 22.298)" style="mix-blend-mode: multiply;isolation: isolate">
              <g id="Grupo_18690" data-name="Grupo 18690">
                <g id="Grupo_18689" data-name="Grupo 18689" clip-path="url(#clip-path-30)">
                  <path id="Trazado_34534" data-name="Trazado 34534" d="M172.17,33.084h-2.976a1.348,1.348,0,1,0,0,2.7h2.976a1.348,1.348,0,1,0,0-2.7" transform="translate(-167.846 -33.084)" fill="#253330"/>
                </g>
              </g>
            </g>
            <g id="Grupo_18694" data-name="Grupo 18694" transform="translate(119.024 25.218)" style="mix-blend-mode: multiply;isolation: isolate">
              <g id="Grupo_18693" data-name="Grupo 18693">
                <g id="Grupo_18692" data-name="Grupo 18692" clip-path="url(#clip-path-29)">
                  <path id="Trazado_34535" data-name="Trazado 34535" d="M179.292,41.74V38.764a1.348,1.348,0,1,0-2.7,0V41.74a1.348,1.348,0,1,0,2.7,0" transform="translate(-176.596 -37.416)" fill="#253330"/>
                </g>
              </g>
            </g>
            <g id="Grupo_18697" data-name="Grupo 18697" transform="translate(121.945 22.298)" style="mix-blend-mode: multiply;isolation: isolate">
              <g id="Grupo_18696" data-name="Grupo 18696">
                <g id="Grupo_18695" data-name="Grupo 18695" clip-path="url(#clip-path-30)">
                  <path id="Trazado_34536" data-name="Trazado 34536" d="M182.278,35.78h2.976a1.348,1.348,0,0,0,0-2.7h-2.976a1.348,1.348,0,0,0,0,2.7" transform="translate(-180.93 -33.084)" fill="#253330"/>
                </g>
              </g>
            </g>
            <g id="Grupo_18700" data-name="Grupo 18700" transform="translate(232.626 66.491)" style="mix-blend-mode: multiply;isolation: isolate">
              <g id="Grupo_18699" data-name="Grupo 18699">
                <g id="Grupo_18698" data-name="Grupo 18698" clip-path="url(#clip-path-37)">
                  <path id="Trazado_34537" data-name="Trazado 34537" d="M347.844,104.9a3.549,3.549,0,1,1,3.549,3.549,3.553,3.553,0,0,1-3.549-3.549m3.549,6.245a6.245,6.245,0,1,0-6.245-6.245,6.252,6.252,0,0,0,6.245,6.245" transform="translate(-345.148 -98.653)" fill="#253330"/>
                </g>
              </g>
            </g>
          </g>
        </g>
      </g>
    </g>
  </g>
</svg>
