<svg xmlns="http://www.w3.org/2000/svg" xmlns:xlink="http://www.w3.org/1999/xlink" width="341.601" height="341.601" viewBox="0 0 341.601 341.601">
  <defs>
    <clipPath id="clip-path">
      <rect id="Rectángulo_4750" data-name="Rectángulo 4750" width="341.601" height="341.601" fill="none"/>
    </clipPath>
    <clipPath id="clip-path-2">
      <path id="Trazado_34310" data-name="Trazado 34310" d="M429.466,345.964A102.731,102.731,0,1,0,532.2,243.233,102.733,102.733,0,0,0,429.466,345.964" transform="translate(-429.466 -243.233)" fill="none"/>
    </clipPath>
    <clipPath id="clip-path-4">
      <rect id="Rectángulo_4751" data-name="Rectángulo 4751" width="188.817" height="156.057" fill="none"/>
    </clipPath>
    <clipPath id="clip-path-5">
      <rect id="Rectángulo_4752" data-name="Rectángulo 4752" width="64.669" height="61.621" fill="none"/>
    </clipPath>
    <clipPath id="clip-path-6">
      <rect id="Rectángulo_4754" data-name="Rectángulo 4754" width="15.823" height="15.895" fill="none"/>
    </clipPath>
    <clipPath id="clip-path-7">
      <rect id="Rectángulo_4755" data-name="Rectángulo 4755" width="79.905" height="38.01" fill="none"/>
    </clipPath>
    <clipPath id="clip-path-8">
      <rect id="Rectángulo_4757" data-name="Rectángulo 4757" width="63.924" height="78.177" fill="none"/>
    </clipPath>
    <clipPath id="clip-path-9">
      <rect id="Rectángulo_4758" data-name="Rectángulo 4758" width="17.999" height="18.083" fill="none"/>
    </clipPath>
    <clipPath id="clip-path-10">
      <rect id="Rectángulo_4760" data-name="Rectángulo 4760" width="33.346" height="33.347" fill="none"/>
    </clipPath>
    <clipPath id="clip-path-11">
      <rect id="Rectángulo_4761" data-name="Rectángulo 4761" width="19.843" height="19.932" fill="none"/>
    </clipPath>
    <clipPath id="clip-path-12">
      <rect id="Rectángulo_4762" data-name="Rectángulo 4762" width="64.985" height="63.14" fill="none"/>
    </clipPath>
    <clipPath id="clip-path-13">
      <rect id="Rectángulo_4763" data-name="Rectángulo 4763" width="76.159" height="21.372" fill="none"/>
    </clipPath>
    <clipPath id="clip-path-14">
      <rect id="Rectángulo_4766" data-name="Rectángulo 4766" width="51.757" height="63.168" fill="none"/>
    </clipPath>
    <clipPath id="clip-path-15">
      <rect id="Rectángulo_4767" data-name="Rectángulo 4767" width="14.233" height="14.299" fill="none"/>
    </clipPath>
  </defs>
  <g id="Grupo_18928" data-name="Grupo 18928" transform="translate(-1047.945 -703.763)">
    <g id="Grupo_18597" data-name="Grupo 18597" transform="translate(1037.945 623.763)">
      <g id="Grupo_18598" data-name="Grupo 18598" transform="translate(10 80)">
        <g id="Grupo_18555" data-name="Grupo 18555" transform="translate(0 0)">
          <g id="Grupo_18554" data-name="Grupo 18554" clip-path="url(#clip-path)">
            <path id="Trazado_34295" data-name="Trazado 34295" d="M634.929,345.964A102.732,102.732,0,1,1,532.2,243.233,102.733,102.733,0,0,1,634.929,345.964" transform="translate(-360.308 -204.065)" fill="#97bf69"/>
          </g>
        </g>
        <g id="Grupo_18557" data-name="Grupo 18557" transform="translate(69.158 39.168)">
          <g id="Grupo_18556" data-name="Grupo 18556" clip-path="url(#clip-path-2)">
            <path id="Trazado_34296" data-name="Trazado 34296" d="M1070.2,470.521a7.3,7.3,0,0,1,5.713,1.06c2.964,1.9,1.269,1.058-.422,4.233s-2.963,2.114-1.9,5.712,1.27,1.906-.847,4.233-2.751,1.905-2.962,4.445-7.406,1.9-5.291,4.444,4.022,7.195,2.117,10.37-5.078.634-4.444-2.963,3.173-11.006-.422-10.16-.425-1.057-2.541,3.174-8.887-1.268-8.252,2.752,3.595,6.137,5.29,8.677,1.9,7.409-.424,10.16-4.657,6.348-3.176,9.311.213,5.926-2.115,5.926-5.078-8.678-8.252-2.327,7.618,2.539,2.115,9.734-9.523,3.175-8.677,8.254,4.869,7.195,1.693,10.158-9.523,3.6-7.83-.635-4.447-7.619-7.2-6.984-2.327-6.985-4.444-3.6-4.022,2.963-4.022,7.619,4.022,10.157-.21,7.829-3.918-16.719-9.1-16.083c-9,1.1-5.82-9.312-11.747-3.915-1.908,1.739-4.015,4.02-2.75,7.618,2.012,5.714-5.393,2.329-7.511,5.926s-3.808,6.455-2.964,11.111,1.481,6.561-1.058,9.947-4.651,7.424-4.232,11.005c.953,8.148-12.911,12.486-16.3,9.1s-.846-7.617-3.174-11.851-2.963-8.466-1.906-10.793,1.059-8.253-1.692-10.794-3.388-4.02-8.254-2.54-12.909-.424-12.909-8.465.422-7.2,5.925-13.119,8.042-4.022,11.641-6.349,6.135-.213,7.195,1.9,4.234,4.445,6.349,2.538,2.115,1.059,6.772,0,8.042-5.077,4.866-5.289c0,0-6.032,2.116-5.818-.53s.212-4.126,5.5-3.6,6.454-1.271,4.02-2.857-2.539-4.551-5.078-2.224-4.444.424-4.232,2.644-2.222,2.647-4.022,2.859,1.48,2.223.105,4.761-2.539-2.117-3.281-3.492-3.595-5.714-5.29-6.137,1.27,3.6,2.858,4.549,1.059,4.551,0,4.656-3.493-.423-1.9-1.376a2.075,2.075,0,0,0-1.061-3.809c-2.222-.318-1.481-2.541-2.325-2.965s-3.493.108-3.812,2.012-1.163,2.223-3.175,2.327-2.117,1.7-1.374,2.645-4.445,2.646-5.608.953-2.751-4.867-.847-6.455,5.713,1.059,6.032-.422-2.752-3.388-1.27-4.128,1.374-1.48,2.644-2.433.424-2.645,2.435-3.281,4.022-.424,5.186-1.8c0,0,.281-.953,2.539-.388s4.441.566,4.936-.21-2.89-2.892-1.55-3.809,4.513-.636,3.526-2.188-3.245-1.341-2.89-3.173,2.819-3.811,2.256-5.008-.212-3.246-1.483-2.047-3.808,3.881-3.174,5.22-.281,2.611.706,3.527.989,1.34-.492,2.963-2.611,3.738-3.741,2.116,0-3.95-2.469-2.258-3.316-.21-2.751-3.245,1.34-3.173,3.173-4.938a7.318,7.318,0,0,0,2.188-4.585,4.573,4.573,0,0,1,4.163-4.8c4.233-.775,6.913-3.1,6.913,0s11-.352,8.464,4.444-5.148,0-4.656,1.906,1.2,5.219,4.585,2.115,1.977-6.207,5.574-6.49,7.337-1.269,6.49-2.328.14-2.329,2.046-1.551,5.432,4.09,4.02,1.2-3.033-5.854-1.411-6.631,2.4-.845,2.893,1.906,0,5.079,1.128,6.983,2.539.424,2.468-2.679-.632-4.656,1.411-5.009.141-1.27-.844-3.245.986-2.186,2.891-3.952-1.623-3.244,1.481-5.291,4.375-1.48,5.291-3.878,3.527-2.4,3.949-.494,4.446,2.4,2.47,5.572,2.68,2.541,3.527.566,4.585.493,5.784.7,2.4-1.55,4.165-2.327,2.115,2.752,4.161,3.6,3.667.281,4.161-1.694.987-4.938,5.078-3.738,5.5,2.044,7.339.071,2.609-2.188,4.585-.635,1.2,3.032,4.091.7,5.784-3.527,8.958-2.046a20.235,20.235,0,0,0,5.715,1.764" transform="translate(-849.486 -430.639)" fill="#241f4e"/>
            <path id="Trazado_34297" data-name="Trazado 34297" d="M1695.791,1161.4s4.8,1.128,5.927-.705,4.656-2.4,5.36-1.27-.987,3.811,1.693,3.951,2.962-5.22,5.22-1.694,3.669,5.926,2.539,10.582-4.938,7.2-6.35,9.736-5.5.986-6.488-.847-1.412-5.221-4.091-4.656-8.183-.282-10.158,1.693-4.516,1.128-3.667-.988,2.679-6.913,2.4-8.323,4.373-2.963,6.49-4.514,1.128-2.964,1.128-2.964" transform="translate(-1483.327 -1011.4)" fill="#241f4e"/>
            <path id="Trazado_34298" data-name="Trazado 34298" d="M703.886,492.029a5.871,5.871,0,0,1,7.2,2.118c.636,1.27,8.466-1.639,12.063-1.216s3.174,4.231,1.692,4.656a11.874,11.874,0,0,0-4.866,3.174c-1.695,1.691-2.541,2.538-5.927,2.538s-1.9,2.541-6.349,5.078-6.561-3.173-4.656-3.173,3.278-3.146,2.963-4.443c-.546-2.263-5.715-7.248-2.117-8.732" transform="translate(-658.398 -451.565)" fill="#241f4e"/>
            <path id="Trazado_34299" data-name="Trazado 34299" d="M985.152,728.746s2.115.7,1.621,2.117-2.327,2.891-.422,3.244,3.95-.776,3.808-2.682-2.47-1.622-2.187-2.961-2.327-2.681-1.9-3.81-3.386.494-2.823,2.61.989,1.623,1.906,1.481" transform="translate(-894.021 -646.819)" fill="#241f4e"/>
            <path id="Trazado_34300" data-name="Trazado 34300" d="M968.534,755.342s2.185-.141,1.975-1.835-1.9-1.2-1.481-2.328-3.457,2.047-2.329,2.963a8.151,8.151,0,0,0,1.835,1.2" transform="translate(-880.014 -669.182)" fill="#241f4e"/>
            <path id="Trazado_34301" data-name="Trazado 34301" d="M1532.442,1051.674s4.374,8.889,8.324,9.311,1.13-2.114.565-3.668-2.963-.705-3.527-2.257-1.835-4.514-3.527-4.093-1.834.707-1.834.707" transform="translate(-1354.826 -920.86)" fill="#241f4e"/>
            <path id="Trazado_34302" data-name="Trazado 34302" d="M1617.249,1051.509s-.283-3.1.987-4.374-.563-2.4-2.539-1.41-2.821,2.257-2.682,3.81-.14,3.526-.987,4.232,1.131,4.8,4.514,3.105.849-3.246.706-5.363" transform="translate(-1421.433 -916.182)" fill="#241f4e"/>
            <path id="Trazado_34303" data-name="Trazado 34303" d="M1728.581,1092.4s.282-.706,2.256-1.13,3.388,2.681,4.657,1.272-3.245-2.4-4.374-4.375a3.637,3.637,0,0,0-4.092-1.694c-.7.284-2.823-1.552-5.643-1.269s-1.974,2.539.848,2.821,4.232,1.127,4.654,3.1.281,2.118,1.693,1.271" transform="translate(-1511.884 -949.594)" fill="#241f4e"/>
            <path id="Trazado_34304" data-name="Trazado 34304" d="M593.29,484.615a5.579,5.579,0,0,0,3.881.14,1.878,1.878,0,0,1,2.54,1.976c-.353.634-2.611.352-2.611,1.622s2.328,3.6,2.963,2.611-.069-1.27,1.481-1.27,2.468-.495,2.117-1.622-1.552-1.695-.351-2.823-.706-.848-2.682-1.129-3-1.447-2.857-2.294-2.434,1.448-2.928,1.87-.7-2.187-2.256,0,.7.918.7.918" transform="translate(-565.861 -443.25)" fill="#241f4e"/>
            <path id="Trazado_34305" data-name="Trazado 34305" d="M344.658,591.113c-1.376-.741-2.964-2.54-4.552-2.116s-4.549.53-4.761-2.435-2.434-5.288-5.5-4.019-3.279-5.5-4.549-4.231-2.012-.955-4.022,0-2.434-1.165-3.7-.955-3.494,1.906-4.657,2.752-1.376-.317-3.7-.846-1.588-3.809-1.588-5.291-2.221-.424-3.069-1.694,1.059-2.645-.21-3.492-2.858,2.327-4.974,3.28-3.385-4.338-3.7-5.185-.422-2.327,2.01-4.126,4.02-.74,5.608-2.116,2.329-.53,3.81,0,.424,5.5,1.588,5.608,1.479-3.807,1.267-5.819,3.176-2.965,4.657-3.281,2.328-3.173,2.328-4.444,2.327-1.692,4.337-3.385-.317-2.962.212-5.716,3.384-3.173,6.772-3.173,5.078,1.693,6.244-3.279-5.715-1.8-3.6-4.55.529-5.292-.21-6.454S329,528.683,327.409,529s-.741-1.695-.422-3.81-.424-2.646-1.588-1.481-2.75-1.057-4.338.529-1.692,2.222-1.692,3.81,1.586,2.963-.424,4.337-.636,3.388-2.329,4.868-1.481-2.223-1.059-4.126,0-1.8-1.586-1.482-5.82-.106-5.4-2.752-.953-1.057-1.164-3.175,1.481-5.184,4.444-5.291,3.81-2.011,3.81-2.327.742-2.011,3.915-2.222,2.647-4.868,1.693-6.031-1.9,2.117-3.81,2.857-1.8-1.375-.739-3.387.847-5.925-.952-5.925-4.761,4.655-4.445,6.455-2.856,1.376-4.442.316-1.589-.528-4.023.637-4.337-1.058-2.749-3.282a1.166,1.166,0,0,0,.19-.41c.458-.812,1.889-2.618,5.84-3.5,5.184-1.165,5.4-4.232,3.069-4.762s-5.715-2.01-5.715-3.7-1.691-2.012-4.444-.423-8.359.952-9.1,3.173-3.386,4.445-4.867,4.127c-2.54-.425-5.925-8.255-13.862-7.831s-6.244,8.465-6.244,8.465a4.99,4.99,0,0,0-4.761-.1c-2.751,1.27,1.693,1.9,1.8,3.7s-2.432.1-4.866,1.481-.952,4.021-1.057,7.09,3.6,1.8,3.808,2.857-3.6,2.539-4.974,4.444,5.079-.425,6.561-.529,2.645-2.752,2.962-4.762,2.751-.741,3.388-1.588,1.375,2.539,3.174,2.118,4.761,2.116,3.913,4.021-.21,3.28,1.695,6.138,2.644,4.443.742,4.126-2.542.317-1.589,2.856,3.386,4.127,1.269,9.524.741,12.486,2.222,13.543,2.647,4.762,3.28,7.513,3.072,4.127,2.54,1.268-3.386-6.135-1.9-7.088,1.695,4.762,3.174,5.607,2.54,2.647,2.54,5.4,5.5,4.655,6.455,4.021,2.963,2.434,5.82,3.279,3.279.213,4.232,1.9,3.7,2.539,5.818,2.857.53,2.328.427,3.7-2.118,2.434-2.861,3.173-.951,2.962-.42,4.233,2.326.635,3.49,4.761,6.032,5.185,6.667,6.35,1.376,4.654.529,5.924-.424,7.83-.424,8.677,1.059,3.068-.317,4.657.212,4.231-.212,5.923,1.9,2.646.635,4.445,2.222,4.656,2.646,7.089,3.068,1.8,5.4,1.692-1.166-2.433-2.33-4.762-.739-.737.636-2.221.529-2.117.212-4.655.951-1.27,1.586-3.916,1.9-1.8,3.491-3.386-1.481-3.6,2.857-4.126,2.964-1.906,4.127-6.138,1.059-3.7,5.82-5.609,2.117-5.5,2.327-8.148,2.966-2.646,3.7-5.61-3.174-2.538-4.549-3.279" transform="translate(-282.873 -453.353)" fill="#241f4e"/>
            <path id="Trazado_34306" data-name="Trazado 34306" d="M542.765,454.028s1.586-.265,1,.793.265,1.8,1.323,1.269,1.483-1.058,2.539-.952,2.964.264,2.592-.634-1.109-1.165-.525-1.907-.9-.794-1.75.107-2.274.476-2.167-.107-.053-.738-.635-.634-1.641-.74-3.068-.423-4.605,1.64-3.282,1.746,1.536,1.429,2.647.794,1.323-.051,1.323-.051" transform="translate(-520.924 -417.936)" fill="#241f4e"/>
            <path id="Trazado_34307" data-name="Trazado 34307" d="M690.29,424.517s11-1.376,10-.319-5.822,1.483-5.716,2.434-2.646,1.8-3.438,1.376-2.8,1.482-3.228.265-.265-1.588,1.376-2.171,1.481-1.216,1.006-1.586" transform="translate(-646.122 -394.722)" fill="#241f4e"/>
            <path id="Trazado_34308" data-name="Trazado 34308" d="M636.052,449.868s.687,1.852,2.011,1.27,2.115-1.217,3.068-.583,1.9-.847.951-2.116-1.3-1.614-.635-3.12c.19-.433-1.533-.212-2.062.952a1.622,1.622,0,0,1-2.384.9c-.634-.531-2.643,1-.949,2.7" transform="translate(-602.228 -412.604)" fill="#241f4e"/>
            <path id="Trazado_34309" data-name="Trazado 34309" d="M1671.521,977.384s-3.6-2.963-2.539-5.077,1.9-4.023,1.48-6.562,1.27-4.867,3.176-3.6,1.481,4.869,2.115,7.619-.634,2.541,1.693,5.5-2.749,4.019-5.925,2.116" transform="translate(-1469.215 -846.078)" fill="#241f4e"/>
          </g>
        </g>
        <g id="Grupo_18595" data-name="Grupo 18595" transform="translate(0 0)">
          <g id="Grupo_18594" data-name="Grupo 18594" clip-path="url(#clip-path)">
            <g id="Grupo_18560" data-name="Grupo 18560" transform="translate(85.805 88.576)" style="mix-blend-mode: multiply;isolation: isolate">
              <g id="Grupo_18559" data-name="Grupo 18559">
                <g id="Grupo_18558" data-name="Grupo 18558" clip-path="url(#clip-path-4)">
                  <path id="Trazado_34311" data-name="Trazado 34311" d="M706.75,550.048a112.5,112.5,0,0,1,.858,13.852,113.48,113.48,0,0,1-174.77,95.545,102.742,102.742,0,0,0,173.911-109.4" transform="translate(-532.838 -550.048)" fill="#c5d7b4"/>
                </g>
              </g>
            </g>
            <g id="Grupo_18563" data-name="Grupo 18563" transform="translate(103.895 64.06)" style="mix-blend-mode: soft-light;isolation: isolate">
              <g id="Grupo_18562" data-name="Grupo 18562">
                <g id="Grupo_18561" data-name="Grupo 18561" clip-path="url(#clip-path-5)">
                  <path id="Trazado_34312" data-name="Trazado 34312" d="M673.2,422.241c13.512-12.6,36.975-6.682,36.637-17.7-.289-9.495-44.475-6.164-44.475-6.164-1.221,0-18.17,2.828-19.239,18.784,0,0-3.643,39.584,3.342,42.081,7.609,2.722,10.466-24.623,23.735-37" transform="translate(-645.175 -397.811)" fill="#fff"/>
                </g>
              </g>
            </g>
            <path id="Trazado_34313" data-name="Trazado 34313" d="M695.485,1579.04a.973.973,0,0,1-.972.973H616.552a.972.972,0,0,1-.972-.973v-36.065a.972.972,0,0,1,.972-.972h77.961a.972.972,0,0,1,.972.972Z" transform="translate(-516.452 -1293.69)" fill="#ffb300"/>
            <path id="Trazado_34314" data-name="Trazado 34314" d="M1002.965,1694.271a.962.962,0,0,1-.963.963H990.126a.963.963,0,0,1-.963-.963V1683.68a.964.964,0,0,1,.963-.963H1002a.963.963,0,0,1,.963.963Z" transform="translate(-829.875 -1411.744)" fill="#ffd240"/>
            <path id="Trazado_34315" data-name="Trazado 34315" d="M669.855,1696.218a.872.872,0,0,1-.872.872h-13.1a.872.872,0,0,1,0-1.744h13.1a.872.872,0,0,1,.872.872" transform="translate(-549.53 -1422.339)" fill="#ffd240"/>
            <path id="Trazado_34316" data-name="Trazado 34316" d="M669.855,1717.05a.871.871,0,0,1-.872.87h-13.1a.87.87,0,1,1,0-1.741h13.1a.871.871,0,0,1,.872.87" transform="translate(-549.53 -1439.818)" fill="#ffd240"/>
            <path id="Trazado_34317" data-name="Trazado 34317" d="M669.855,1737.869a.872.872,0,0,1-.872.873h-13.1a.872.872,0,0,1,0-1.743h13.1a.872.872,0,0,1,.872.871" transform="translate(-549.53 -1457.284)" fill="#ffd240"/>
            <rect id="Rectángulo_4753" data-name="Rectángulo 4753" width="13.605" height="14.902" transform="translate(132.278 248.313)" fill="#e14e92"/>
            <g id="Grupo_18566" data-name="Grupo 18566" transform="translate(102.336 250.947)" opacity="0.5" style="mix-blend-mode: soft-light;isolation: isolate">
              <g id="Grupo_18565" data-name="Grupo 18565">
                <g id="Grupo_18564" data-name="Grupo 18564" clip-path="url(#clip-path-6)">
                  <path id="Trazado_34318" data-name="Trazado 34318" d="M642.268,1564.53c3.338-3.3,9.136-1.748,9.053-4.629-.072-2.483-14.823-1.221-14.823-1.221a.546.546,0,0,0-.545.546s-1.276,14.326.449,14.979c1.88.712,2.586-6.438,5.866-9.675" transform="translate(-635.499 -1558.36)" fill="#fff"/>
                </g>
              </g>
            </g>
            <g id="Grupo_18569" data-name="Grupo 18569" transform="translate(99.129 248.313)" style="mix-blend-mode: multiply;isolation: isolate">
              <g id="Grupo_18568" data-name="Grupo 18568">
                <g id="Grupo_18567" data-name="Grupo 18567" clip-path="url(#clip-path-7)">
                  <path id="Trazado_34319" data-name="Trazado 34319" d="M694.513,1542h-6.14a89.233,89.233,0,0,1-.632,15.311c-.536,3.666-1.663,7.755-5.188,9.67a19.289,19.289,0,0,1-9.419,2.1c-9.747,0-48.158.033-57.553.064v9.9a.972.972,0,0,0,.972.973h77.961a.973.973,0,0,0,.972-.973v-36.065a.972.972,0,0,0-.972-.972" transform="translate(-615.581 -1542.002)" fill="#ffe2ad"/>
                </g>
              </g>
            </g>
            <path id="Trazado_34320" data-name="Trazado 34320" d="M729.123,1135.75a.972.972,0,0,1-.972.973H666.172a.972.972,0,0,1-.972-.973v-76.232a.972.972,0,0,1,.972-.973h61.979a.972.972,0,0,1,.972.973Z" transform="translate(-558.081 -888.084)" fill="#ffb300"/>
            <path id="Trazado_34321" data-name="Trazado 34321" d="M940.4,1436.215a1.2,1.2,0,0,1-1.2,1.2H924.445a1.2,1.2,0,0,1-1.2-1.2v-13.16a1.2,1.2,0,0,1,1.2-1.2H939.2a1.2,1.2,0,0,1,1.2,1.2Z" transform="translate(-774.575 -1192.892)" fill="#ffd240"/>
            <path id="Trazado_34322" data-name="Trazado 34322" d="M714.547,1445.754a.987.987,0,0,1-.987.988H698.709a.988.988,0,0,1,0-1.976H713.56a.987.987,0,0,1,.987.988" transform="translate(-585.365 -1212.111)" fill="#ffd240"/>
            <path id="Trazado_34323" data-name="Trazado 34323" d="M714.547,1469.354a.986.986,0,0,1-.987.987H698.709a.987.987,0,1,1,0-1.974H713.56a.987.987,0,0,1,.987.987" transform="translate(-585.365 -1231.911)" fill="#ffd240"/>
            <path id="Trazado_34324" data-name="Trazado 34324" d="M714.547,1492.953a.988.988,0,0,1-.987.989H698.709a.988.988,0,0,1,0-1.976H713.56a.987.987,0,0,1,.987.987" transform="translate(-585.365 -1251.71)" fill="#ffd240"/>
            <rect id="Rectángulo_4756" data-name="Rectángulo 4756" width="13.605" height="16.845" transform="translate(133.059 170.437)" fill="#e14e92"/>
            <g id="Grupo_18572" data-name="Grupo 18572" transform="translate(107.119 170.461)" style="mix-blend-mode: multiply;isolation: isolate">
              <g id="Grupo_18571" data-name="Grupo 18571">
                <g id="Grupo_18570" data-name="Grupo 18570" clip-path="url(#clip-path-8)">
                  <path id="Trazado_34325" data-name="Trazado 34325" d="M728.151,1058.545h-7.083v.244c0,10.665.088,42.383-.329,47.555-.3,3.725-.5,7.551-2.051,11a10.342,10.342,0,0,1-7.806,5.788c-5,.731-35.533.3-45.681.28v12.337a.972.972,0,0,0,.972.973h61.979a.972.972,0,0,0,.972-.973v-76.232a.973.973,0,0,0-.972-.973" transform="translate(-665.2 -1058.546)" fill="#ffe2ad"/>
                </g>
              </g>
            </g>
            <g id="Grupo_18575" data-name="Grupo 18575" transform="translate(110.678 174.175)" opacity="0.5" style="mix-blend-mode: soft-light;isolation: isolate">
              <g id="Grupo_18574" data-name="Grupo 18574">
                <g id="Grupo_18573" data-name="Grupo 18573" clip-path="url(#clip-path-9)">
                  <path id="Trazado_34326" data-name="Trazado 34326" d="M695,1088.631c3.8-3.75,10.392-1.988,10.3-5.265-.081-2.824-16.861-1.389-16.861-1.389a.62.62,0,0,0-.62.621s-1.453,16.3.511,17.041c2.138.809,2.942-7.325,6.672-11.007" transform="translate(-687.298 -1081.612)" fill="#fff"/>
                </g>
              </g>
            </g>
            <rect id="Rectángulo_4759" data-name="Rectángulo 4759" width="35.08" height="9.976" transform="translate(61.691 125.093)" fill="#383383"/>
            <path id="Trazado_34327" data-name="Trazado 34327" d="M544.754,937.87V776.69H533.948l-.021,171.986h97.3V937.87Z" transform="translate(-447.947 -651.617)" fill="#e14e92"/>
            <path id="Trazado_34328" data-name="Trazado 34328" d="M474.637,1674.925a22.979,22.979,0,1,1-22.978-22.979,22.979,22.979,0,0,1,22.978,22.979" transform="translate(-359.648 -1385.928)" fill="#241f4e"/>
            <path id="Trazado_34329" data-name="Trazado 34329" d="M518.609,1729.345a12.534,12.534,0,1,1-12.534-12.533,12.533,12.533,0,0,1,12.534,12.533" transform="translate(-414.065 -1440.348)" fill="#fff"/>
            <g id="Grupo_18578" data-name="Grupo 18578" transform="translate(75.337 272.323)" style="mix-blend-mode: multiply;isolation: isolate">
              <g id="Grupo_18577" data-name="Grupo 18577">
                <g id="Grupo_18576" data-name="Grupo 18576" clip-path="url(#clip-path-10)">
                  <path id="Trazado_34330" data-name="Trazado 34330" d="M484.51,1691.1a16.674,16.674,0,1,0,16.673,16.674A16.673,16.673,0,0,0,484.51,1691.1m0,26.931a10.258,10.258,0,1,1,10.257-10.257,10.256,10.256,0,0,1-10.257,10.257" transform="translate(-467.837 -1691.097)" fill="#9b97bc"/>
                </g>
              </g>
            </g>
            <path id="Trazado_34331" data-name="Trazado 34331" d="M1234.532,1529a.923.923,0,0,1-.923.923h-63.141a.922.922,0,0,1-.922-.923v-61.3a.921.921,0,0,1,.922-.922h63.141a.922.922,0,0,1,.923.922Z" transform="translate(-981.21 -1230.578)" fill="#ffb300"/>
            <g id="Grupo_18581" data-name="Grupo 18581" transform="translate(192.472 242.62)" opacity="0.5" style="mix-blend-mode: soft-light;isolation: isolate">
              <g id="Grupo_18580" data-name="Grupo 18580">
                <g id="Grupo_18579" data-name="Grupo 18579" clip-path="url(#clip-path-11)">
                  <path id="Trazado_34332" data-name="Trazado 34332" d="M1203.721,1514.388c4.186-4.133,11.456-2.192,11.352-5.8-.089-3.113-18.586-1.532-18.586-1.532a.683.683,0,0,0-.684.683s-1.6,17.966.563,18.785c2.359.893,3.244-8.074,7.355-12.132" transform="translate(-1195.233 -1506.651)" fill="#fff"/>
                </g>
              </g>
            </g>
            <path id="Trazado_34333" data-name="Trazado 34333" d="M1444.1,1751.766a1.136,1.136,0,0,1-1.136,1.136h-14.008a1.136,1.136,0,0,1-1.135-1.136v-12.494a1.135,1.135,0,0,1,1.135-1.135h14.008a1.136,1.136,0,0,1,1.136,1.135Z" transform="translate(-1197.896 -1458.239)" fill="#ffd240"/>
            <path id="Trazado_34334" data-name="Trazado 34334" d="M1229.7,1760.819a.938.938,0,0,1-.937.938h-14.1a.938.938,0,0,1,0-1.875h14.1a.937.937,0,0,1,.938.937" transform="translate(-1018.28 -1476.483)" fill="#ffd240"/>
            <path id="Trazado_34335" data-name="Trazado 34335" d="M1229.7,1783.225a.939.939,0,0,1-.937.938h-14.1a.938.938,0,0,1,0-1.876h14.1a.937.937,0,0,1,.938.938" transform="translate(-1018.28 -1495.281)" fill="#ffd240"/>
            <path id="Trazado_34336" data-name="Trazado 34336" d="M1229.7,1805.623a.937.937,0,0,1-.937.937h-14.1a.937.937,0,1,1,0-1.875h14.1a.939.939,0,0,1,.938.938" transform="translate(-1018.28 -1514.071)" fill="#ffd240"/>
            <g id="Grupo_18584" data-name="Grupo 18584" transform="translate(188.336 236.2)" style="mix-blend-mode: multiply;isolation: isolate">
              <g id="Grupo_18583" data-name="Grupo 18583">
                <g id="Grupo_18582" data-name="Grupo 18582" clip-path="url(#clip-path-12)">
                  <path id="Trazado_34337" data-name="Trazado 34337" d="M1233.61,1466.778h-6.243c-.377,8.123-.077,33.01-.837,37.413a16.508,16.508,0,0,1-4.715,8.917c-2.979,2.655-7.336,3.664-11.173,3.639-4.412-.029-41.072-.022-41.072-.022l-.022,12.271a.922.922,0,0,0,.922.923h63.141a.923.923,0,0,0,.923-.923v-61.3a.922.922,0,0,0-.923-.922" transform="translate(-1169.547 -1466.778)" fill="#ffe2c3"/>
                </g>
              </g>
            </g>
            <path id="Trazado_34338" data-name="Trazado 34338" d="M1212.823,1487.275a1.231,1.231,0,0,1-1.229,1.23h-73.7a1.231,1.231,0,0,1-1.23-1.23l3.382-18.913a1.23,1.23,0,0,1,1.23-1.229h67.5a1.23,1.23,0,0,1,1.23,1.229Z" transform="translate(-953.623 -1230.876)" fill="#f78c00"/>
            <g id="Grupo_18587" data-name="Grupo 18587" transform="translate(183.04 236.257)" style="mix-blend-mode: multiply;isolation: isolate">
              <g id="Grupo_18586" data-name="Grupo 18586">
                <g id="Grupo_18585" data-name="Grupo 18585" clip-path="url(#clip-path-13)">
                  <path id="Trazado_34339" data-name="Trazado 34339" d="M1210,1468.362a1.23,1.23,0,0,0-1.23-1.229h-5.833a45.3,45.3,0,0,1-3.527,6.751,22.651,22.651,0,0,1-5.317,5.934,21.723,21.723,0,0,1-8.264,3.542c-8.028,1.881-16.259,1.818-24.454,1.818,0,0-24.2-.108-24.329-.059l-.386,2.156a1.231,1.231,0,0,0,1.23,1.23h73.7a1.231,1.231,0,0,0,1.229-1.23Z" transform="translate(-1136.663 -1467.133)" fill="#fed4b4"/>
                </g>
              </g>
            </g>
            <path id="Trazado_34340" data-name="Trazado 34340" d="M1329.474,1275.862h-11.787v17.164h-2.823l8.716,11.484,8.717-11.484h-2.823Z" transform="translate(-1103.127 -1070.406)" fill="#e14e92"/>
            <path id="Trazado_34341" data-name="Trazado 34341" d="M966.213,1530.313a1.222,1.222,0,0,1-1.223,1.222H915.677a1.222,1.222,0,0,1-1.222-1.222v-60.725a1.222,1.222,0,0,1,1.222-1.222h49.312a1.222,1.222,0,0,1,1.223,1.222Z" transform="translate(-767.197 -1231.91)" fill="#de3483"/>
            <rect id="Rectángulo_4764" data-name="Rectángulo 4764" width="44.669" height="56.446" transform="translate(150.598 239.817)" fill="#fff"/>
            <path id="Trazado_34342" data-name="Trazado 34342" d="M1012.744,1427.135h20.286v-13.17h-20.286Zm17.678-2.382h-15.07v-8.618h15.07Z" transform="translate(-849.659 -1186.271)" fill="#241f4e"/>
            <rect id="Rectángulo_4765" data-name="Rectángulo 4765" width="24.929" height="5.261" transform="translate(160.764 237.913)" fill="#241f4e"/>
            <path id="Trazado_34343" data-name="Trazado 34343" d="M976.328,1550.012a.233.233,0,0,1-.233.232h-7.685a.233.233,0,0,1-.233-.232v-7.454a.234.234,0,0,1,.233-.233H976.1a.233.233,0,0,1,.233.233Z" transform="translate(-812.269 -1293.96)" fill="#e14e92"/>
            <path id="Trazado_34344" data-name="Trazado 34344" d="M1068.867,1550.56a1.044,1.044,0,0,1-1.108.967h-20.173a.976.976,0,1,1,0-1.934h20.173a1.045,1.045,0,0,1,1.108.967" transform="translate(-877.96 -1300.057)" fill="#31b0c6"/>
            <path id="Trazado_34345" data-name="Trazado 34345" d="M1068.867,1573.2a1.045,1.045,0,0,1-1.108.967h-20.173a.976.976,0,1,1,0-1.933h20.173a1.045,1.045,0,0,1,1.108.967" transform="translate(-877.96 -1319.048)" fill="#31b0c6"/>
            <path id="Trazado_34346" data-name="Trazado 34346" d="M976.328,1624.041a.231.231,0,0,1-.233.231h-7.685a.232.232,0,0,1-.233-.231v-7.452a.233.233,0,0,1,.233-.233H976.1a.233.233,0,0,1,.233.233Z" transform="translate(-812.269 -1356.068)" fill="#e14e92"/>
            <path id="Trazado_34347" data-name="Trazado 34347" d="M1068.867,1624.586a1.044,1.044,0,0,1-1.108.968h-20.173a.976.976,0,1,1,0-1.934h20.173a1.044,1.044,0,0,1,1.108.967" transform="translate(-877.96 -1362.163)" fill="#31b0c6"/>
            <path id="Trazado_34348" data-name="Trazado 34348" d="M1068.867,1647.221a1.045,1.045,0,0,1-1.108.968h-20.173a.976.976,0,1,1,0-1.933h20.173a1.044,1.044,0,0,1,1.108.966" transform="translate(-877.96 -1381.153)" fill="#31b0c6"/>
            <path id="Trazado_34349" data-name="Trazado 34349" d="M976.328,1698.066a.233.233,0,0,1-.233.232h-7.685a.233.233,0,0,1-.233-.232v-7.452a.234.234,0,0,1,.233-.233H976.1a.233.233,0,0,1,.233.233Z" transform="translate(-812.269 -1418.174)" fill="#e14e92"/>
            <path id="Trazado_34350" data-name="Trazado 34350" d="M1068.867,1698.612a1.046,1.046,0,0,1-1.108.968h-20.173a.976.976,0,1,1,0-1.935h20.173a1.044,1.044,0,0,1,1.108.967" transform="translate(-877.96 -1424.269)" fill="#31b0c6"/>
            <path id="Trazado_34351" data-name="Trazado 34351" d="M1068.867,1721.238a1.045,1.045,0,0,1-1.108.967h-20.173a.976.976,0,1,1,0-1.935h20.173a1.046,1.046,0,0,1,1.108.967" transform="translate(-877.96 -1443.25)" fill="#31b0c6"/>
            <path id="Trazado_34352" data-name="Trazado 34352" d="M976.328,1772.088a.233.233,0,0,1-.233.233h-7.685a.233.233,0,0,1-.233-.233v-7.453a.234.234,0,0,1,.233-.232H976.1a.234.234,0,0,1,.233.232Z" transform="translate(-812.269 -1480.275)" fill="#e14e92"/>
            <path id="Trazado_34353" data-name="Trazado 34353" d="M1068.867,1772.638a1.045,1.045,0,0,1-1.108.967h-20.173a.976.976,0,1,1,0-1.933h20.173a1.045,1.045,0,0,1,1.108.967" transform="translate(-877.96 -1486.373)" fill="#31b0c6"/>
            <path id="Trazado_34354" data-name="Trazado 34354" d="M1068.867,1795.274a1.044,1.044,0,0,1-1.108.966h-20.173a.976.976,0,1,1,0-1.933h20.173a1.045,1.045,0,0,1,1.108.967" transform="translate(-877.96 -1505.364)" fill="#31b0c6"/>
            <g id="Grupo_18590" data-name="Grupo 18590" transform="translate(147.258 236.456)" style="mix-blend-mode: multiply;isolation: isolate">
              <g id="Grupo_18589" data-name="Grupo 18589">
                <g id="Grupo_18588" data-name="Grupo 18588" clip-path="url(#clip-path-14)">
                  <path id="Trazado_34355" data-name="Trazado 34355" d="M964.989,1468.367h-7.746a47.816,47.816,0,0,1,1.094,10.137,48.1,48.1,0,0,1-43.882,47.919v3.891a1.222,1.222,0,0,0,1.222,1.222h49.312a1.222,1.222,0,0,0,1.223-1.222v-60.724a1.222,1.222,0,0,0-1.223-1.222" transform="translate(-914.455 -1468.367)" fill="#e3d1dc"/>
                </g>
              </g>
            </g>
            <g id="Grupo_18593" data-name="Grupo 18593" transform="translate(151.838 241.774)" style="mix-blend-mode: soft-light;isolation: isolate">
              <g id="Grupo_18592" data-name="Grupo 18592">
                <g id="Grupo_18591" data-name="Grupo 18591" clip-path="url(#clip-path-15)">
                  <path id="Trazado_34356" data-name="Trazado 34356" d="M948.985,1506.946c3-2.966,8.218-1.572,8.144-4.164-.064-2.234-13.333-1.1-13.333-1.1a.491.491,0,0,0-.49.491s-1.149,12.886.4,13.475c1.692.639,2.327-5.792,5.275-8.7" transform="translate(-942.897 -1501.396)" fill="#fff"/>
                </g>
              </g>
            </g>
            <path id="Trazado_34357" data-name="Trazado 34357" d="M1695.792,762.8h-4.319a4.5,4.5,0,0,1-.082-3.937h2.675a2.789,2.789,0,0,0,0-5.578h-32.483a2.789,2.789,0,1,0,0,5.578h9.9a3.274,3.274,0,0,1-.229,3.937h-2.215a2.3,2.3,0,0,0,0,4.593h26.75a2.3,2.3,0,0,0,0-4.593" transform="translate(-1391.672 -631.98)" fill="#e14e92"/>
            <path id="Trazado_34358" data-name="Trazado 34358" d="M730.494,250.179h-3.207a3.341,3.341,0,0,1-.06-2.923h1.987a2.071,2.071,0,0,0,0-4.142H705.091a2.071,2.071,0,0,0,0,4.142h7.355a2.429,2.429,0,0,1-.172,2.923h-1.643a1.706,1.706,0,1,0,0,3.411h19.863a1.706,1.706,0,0,0,0-3.411" transform="translate(-589.81 -203.965)" fill="#31b0c6"/>
            <path id="Trazado_34359" data-name="Trazado 34359" d="M1597.686,1204.672h-3.209a3.344,3.344,0,0,1-.06-2.923h1.987a2.071,2.071,0,0,0,0-4.143h-24.122a2.071,2.071,0,0,0,0,4.143h7.355a2.429,2.429,0,0,1-.171,2.923h-1.645a1.706,1.706,0,0,0,0,3.411h19.865a1.706,1.706,0,0,0,0-3.411" transform="translate(-1317.355 -1004.752)" fill="#31b0c6"/>
            <path id="Trazado_34360" data-name="Trazado 34360" d="M281.512,1224.164h-7.835a2.968,2.968,0,0,1-.037-3.365h2.892a2.791,2.791,0,0,0,0-5.5H249.522a2.791,2.791,0,0,0,0,5.5h4.3a2.258,2.258,0,0,1-.207,3.365h-2.544a2.716,2.716,0,0,0,0,5.428h30.437a2.716,2.716,0,0,0,0-5.428" transform="translate(-207.395 -1019.594)" fill="#31b0c6"/>
            <path id="Trazado_34361" data-name="Trazado 34361" d="M1285.415,644.222H1280a2.051,2.051,0,0,1-.026-2.325h2a1.928,1.928,0,0,0,0-3.8h-18.66a1.928,1.928,0,0,0,0,3.8h2.975a1.561,1.561,0,0,1-.143,2.325h-1.759a1.876,1.876,0,0,0,0,3.75h21.028a1.876,1.876,0,0,0,0-3.75" transform="translate(-1058.534 -535.342)" fill="#e14e92"/>
            <path id="Trazado_34362" data-name="Trazado 34362" d="M276.761,579.319h-1.839a3.549,3.549,0,0,1,.361-3.236h1.357a2.384,2.384,0,1,0,0-4.768H254.349a2.384,2.384,0,0,0,0,4.768h1.065a2.946,2.946,0,0,1,.416,3.236h-3.46a2.608,2.608,0,1,0,0,5.216h24.391a2.608,2.608,0,0,0,0-5.216" transform="translate(-209.542 -479.314)" fill="#ffd240"/>
            <path id="Trazado_34363" data-name="Trazado 34363" d="M471.759,460.971c-.244-4.422-3.606-7.929-7.726-7.929a7.164,7.164,0,0,0-2.3.378,9.555,9.555,0,0,0-8.484-5.517,8.933,8.933,0,0,0-3.824.86,10.889,10.889,0,0,0-8.915-4.825,11.356,11.356,0,0,0-10.7,8.625,7.589,7.589,0,0,0-2.441-.4c-4.5,0-8.143,3.931-8.216,8.81Z" transform="translate(-351.655 -372.449)" fill="#00ffe2"/>
            <path id="Trazado_34364" data-name="Trazado 34364" d="M1399.15,408.836c-.245-4.423-3.605-7.93-7.727-7.93a7.164,7.164,0,0,0-2.3.378,9.557,9.557,0,0,0-8.485-5.517,8.93,8.93,0,0,0-3.824.861,10.888,10.888,0,0,0-8.915-4.826,11.356,11.356,0,0,0-10.7,8.625,7.6,7.6,0,0,0-2.441-.4c-4.5,0-8.143,3.932-8.215,8.81Z" transform="translate(-1129.705 -328.709)" fill="#00ffe2"/>
          </g>
        </g>
      </g>
    </g>
  </g>
</svg>
