<svg xmlns="http://www.w3.org/2000/svg" width="891.429" height="531.805" viewBox="0 0 891.429 531.805">
  <g id="Grupo_18932" data-name="Grupo 18932" transform="translate(-500 -3231)">
    <g id="Grupo_18875" data-name="Grupo 18875">
      <path id="Trazado_34540" data-name="Trazado 34540" d="M447.11,249.122c0,146.37-118.656,265.023-265.025,265.023a264.625,264.625,0,0,1-71.105-9.654c18.167-68,51.007-204.871,58.362-235.623l2.385-6.916,1.2,1.4.439,4.2-.07-3.758-.037-2.385-.016-1.825-.018-.827.614-.981.105-.176,1.72-1.825c-.3.158-.579.3-.878.439L319.1,22.219A264.888,264.888,0,0,1,447.11,249.122Z" transform="translate(583.817 3247.781)" fill="#ed7d31"/>
      <path id="Trazado_34541" data-name="Trazado 34541" d="M294.131,38.624,149.815,272.618l-1.316.683c-.088.053-.174.088-.263.14L144.04.833q6.5-.342,13.077-.333A263.68,263.68,0,0,1,294.131,38.624Z" transform="translate(608.786 3231.378)" fill="#5b9bd5"/>
      <path id="Trazado_34542" data-name="Trazado 34542" d="M221.115,272.762c-1.018.527-2.036,1.053-3.072,1.58L46.38,74.156A264.123,264.123,0,0,1,193.608,1.98Z" transform="translate(535.028 3232.495)" fill="#997316"/>
      <path id="Trazado_34543" data-name="Trazado 34543" d="M241.2,243.287c-.035.018-.053.035-.107.07h-.014c-78.126-43.706-176.051-98.471-225.36-126.1A266.188,266.188,0,0,1,69.537,43.1Z" transform="translate(511.872 3263.552)" fill="#636363"/>
      <path id="Trazado_34544" data-name="Trazado 34544" d="M252.571,211.448q-1.237.629-2.475,1.264c-82.707,10.126-184.268,22.52-246.4,30A266.249,266.249,0,0,1,27.213,85.351C76.52,112.977,174.445,167.742,252.571,211.448Z" transform="translate(500.377 3295.461)" fill="#9f4811"/>
      <path id="Trazado_34545" data-name="Trazado 34545" d="M241.465,158.6l-170.61,181A266.455,266.455,0,0,1,17.46,268.97c62.908-30.84,146.616-73.352,219.616-110.774.107-.035.211-.088.316-.123h.018c1.09-.123,2.159-.263,3.247-.4Z" transform="translate(513.187 3350.08)" fill="#4572c5"/>
      <path id="Trazado_34546" data-name="Trazado 34546" d="M219.1,158.937l-.616,1s-.523,2.212-1.49,6.231l-78.914,228.99A264.929,264.929,0,0,1,47.88,339.2l170.608-181Z" transform="translate(536.161 3350.48)" fill="#fec02d"/>
      <path id="Trazado_34547" data-name="Trazado 34547" d="M178.186,162.74c-7.354,30.752-40.2,167.626-58.362,235.623q-10.455-2.894-20.554-6.633Z" transform="translate(574.974 3353.909)" fill="#a5a5a4"/>
      <path id="Trazado_35379" data-name="Trazado 35379" d="M.841,0,0,1.387" transform="translate(757.76 3503.994)" fill="none"/>
      <path id="Trazado_34548" data-name="Trazado 34548" d="M145.43,159.86l.562-.914.316-.525.247-.369.1-.176.546-.9" transform="translate(609.835 3349.558)" fill="none"/>
      <path id="Trazado_34549" data-name="Trazado 34549" d="M146.43,156v.965l.019.369v.384" transform="translate(610.591 3348.819)" fill="none"/>
      <path id="Trazado_34550" data-name="Trazado 34550" d="M158.643,273.3c-.281.14-.579.3-.878.439L130.259,2.954C138.21,1.831,146.288,1.076,154.446.69Z" transform="translate(598.378 3231.521)" fill="#264479"/>
      <path id="Trazado_34551" data-name="Trazado 34551" d="M145.93,156.25l.09.807.088.843.053.456v.088l.018.158.123,1.264v.018l.228,2.247" transform="translate(610.213 3349.007)" fill="none"/>
      <path id="Trazado_35380" data-name="Trazado 35380" d="M.281.316,0,0" transform="translate(755.265 3509.417)" fill="none"/>
      <path id="Trazado_34552" data-name="Trazado 34552" d="M144.952,158.063l-.527-.614-.035-.053-.018-.018-.193-.228" transform="translate(608.892 3349.687)" fill="none"/>
      <path id="Trazado_34553" data-name="Trazado 34553" d="M142.805,157.9a.223.223,0,0,1-.105.018" transform="translate(607.773 3350.254)" fill="none"/>
      <path id="Trazado_34554" data-name="Trazado 34554" d="M248.722,157.91l-.211.105c-80.568,29.664-170.364,62.766-231.184,85.375A263.144,263.144,0,0,1,2.32,187.907C64.456,180.43,166.014,168.038,248.722,157.91Z" transform="translate(501.752 3350.261)" fill="#255e91"/>
      <path id="Trazado_34555" data-name="Trazado 34555" d="M242.054,157.97c-73,37.422-156.708,79.934-219.616,110.774a263.16,263.16,0,0,1-11.567-25.4C71.689,220.738,161.488,187.634,242.054,157.97Z" transform="translate(508.209 3350.306)" fill="#6fac47"/>
      <path id="Trazado_34556" data-name="Trazado 34556" d="M145.08,159.62l.509-.546.579-.613.579-.614.316-.333.4-.421.509-.562.018-.019.195-.191" transform="translate(609.571 3349.061)" fill="none"/>
      <path id="Trazado_35376" data-name="Trazado 35376" d="M0,0H531.8V531.8H0Z" transform="translate(500 3231)" fill="none"/>
      <path id="Trazado_35381" data-name="Trazado 35381" d="M7,0A7,7,0,1,1,0,7,7,7,0,0,1,7,0Z" transform="translate(750 3500)" fill="#fff"/>
      <path id="Trazado_35384" data-name="Trazado 35384" d="M12.579-5.7v2.761H10.71V0H7.616V-2.943H.473V-5.715l5.5-9.808H10.71V-5.7Zm-9.238,0H7.616v-7.96ZM19.4-10.065q5.962,0,5.962,4.9a5.233,5.233,0,0,1-1.5,3.926A5.436,5.436,0,0,1,19.895.226a6.575,6.575,0,0,1-2.777-.575A4.791,4.791,0,0,1,15.1-2.057a4.574,4.574,0,0,1-.763-2.616,4.829,4.829,0,0,1,.064-.773l3.072-.14A4.541,4.541,0,0,0,17.4-4.9a2.09,2.09,0,0,0,.7,1.713,2.631,2.631,0,0,0,1.729.575,2.384,2.384,0,0,0,1.8-.661,2.461,2.461,0,0,0,.634-1.778A2.213,2.213,0,0,0,21.5-6.864,4.142,4.142,0,0,0,18.9-7.5H14.824l.645-8.024h9.163v2.761H18.251l-.2,2.7ZM30.819-8.5a3.472,3.472,0,0,1-2.557-1.058,3.511,3.511,0,0,1-1.053-2.573,3.5,3.5,0,0,1,1.058-2.557,3.468,3.468,0,0,1,2.551-1.063,3.481,3.481,0,0,1,2.562,1.063,3.5,3.5,0,0,1,1.058,2.557,3.516,3.516,0,0,1-1.053,2.567A3.476,3.476,0,0,1,30.819-8.5ZM30.035.011l8.121-15.544h2.589L32.613.011Zm.784-10.57a1.513,1.513,0,0,0,1.123-.451,1.527,1.527,0,0,0,.446-1.117,1.492,1.492,0,0,0-.462-1.1,1.518,1.518,0,0,0-1.106-.457,1.528,1.528,0,0,0-1.106.451,1.487,1.487,0,0,0-.462,1.106,1.508,1.508,0,0,0,.457,1.117A1.522,1.522,0,0,0,30.819-10.56ZM40.068.183A3.5,3.5,0,0,1,37.49-.875a3.5,3.5,0,0,1-1.053-2.562A3.481,3.481,0,0,1,37.5-6a3.507,3.507,0,0,1,2.567-1.058A3.459,3.459,0,0,1,42.614-6a3.5,3.5,0,0,1,1.053,2.562A3.5,3.5,0,0,1,42.614-.881,3.451,3.451,0,0,1,40.068.183Zm0-2.073a1.528,1.528,0,0,0,1.106-.451,1.474,1.474,0,0,0,.462-1.1,1.5,1.5,0,0,0-.467-1.106,1.515,1.515,0,0,0-1.1-.462,1.535,1.535,0,0,0-1.123.451,1.508,1.508,0,0,0-.457,1.117,1.483,1.483,0,0,0,.457,1.1A1.535,1.535,0,0,0,40.068-1.891Z" transform="translate(918 3636)" fill="#fff"/>
      <path id="Trazado_35382" data-name="Trazado 35382" d="M6.145-15.522H9.088V0H6V-12.343L2.438-9.023V-12.2Zm13.138,0h2.943V0H19.143V-12.343L15.576-9.023V-12.2ZM30.819-8.5a3.472,3.472,0,0,1-2.557-1.058,3.511,3.511,0,0,1-1.053-2.573,3.5,3.5,0,0,1,1.058-2.557,3.468,3.468,0,0,1,2.551-1.063,3.481,3.481,0,0,1,2.562,1.063,3.5,3.5,0,0,1,1.058,2.557,3.516,3.516,0,0,1-1.053,2.567A3.476,3.476,0,0,1,30.819-8.5ZM30.035.011l8.121-15.544h2.589L32.613.011Zm.784-10.57a1.513,1.513,0,0,0,1.123-.451,1.527,1.527,0,0,0,.446-1.117,1.492,1.492,0,0,0-.462-1.1,1.518,1.518,0,0,0-1.106-.457,1.528,1.528,0,0,0-1.106.451,1.487,1.487,0,0,0-.462,1.106,1.508,1.508,0,0,0,.457,1.117A1.522,1.522,0,0,0,30.819-10.56ZM40.068.183A3.5,3.5,0,0,1,37.49-.875a3.5,3.5,0,0,1-1.053-2.562A3.481,3.481,0,0,1,37.5-6a3.507,3.507,0,0,1,2.567-1.058A3.459,3.459,0,0,1,42.614-6a3.5,3.5,0,0,1,1.053,2.562A3.5,3.5,0,0,1,42.614-.881,3.451,3.451,0,0,1,40.068.183Zm0-2.073a1.528,1.528,0,0,0,1.106-.451,1.474,1.474,0,0,0,.462-1.1,1.5,1.5,0,0,0-.467-1.106,1.515,1.515,0,0,0-1.1-.462,1.535,1.535,0,0,0-1.123.451,1.508,1.508,0,0,0-.457,1.117,1.483,1.483,0,0,0,.457,1.1A1.535,1.535,0,0,0,40.068-1.891Z" transform="translate(795 3291)" fill="#fff"/>
      <path id="Trazado_35378" data-name="Trazado 35378" d="M6.145-15.522H9.088V0H6V-12.343L2.438-9.023V-12.2Zm13.138,0h2.943V0H19.143V-12.343L15.576-9.023V-12.2ZM30.819-8.5a3.472,3.472,0,0,1-2.557-1.058,3.511,3.511,0,0,1-1.053-2.573,3.5,3.5,0,0,1,1.058-2.557,3.468,3.468,0,0,1,2.551-1.063,3.481,3.481,0,0,1,2.562,1.063,3.5,3.5,0,0,1,1.058,2.557,3.516,3.516,0,0,1-1.053,2.567A3.476,3.476,0,0,1,30.819-8.5ZM30.035.011l8.121-15.544h2.589L32.613.011Zm.784-10.57a1.513,1.513,0,0,0,1.123-.451,1.527,1.527,0,0,0,.446-1.117,1.492,1.492,0,0,0-.462-1.1,1.518,1.518,0,0,0-1.106-.457,1.528,1.528,0,0,0-1.106.451,1.487,1.487,0,0,0-.462,1.106,1.508,1.508,0,0,0,.457,1.117A1.522,1.522,0,0,0,30.819-10.56ZM40.068.183A3.5,3.5,0,0,1,37.49-.875a3.5,3.5,0,0,1-1.053-2.562A3.481,3.481,0,0,1,37.5-6a3.507,3.507,0,0,1,2.567-1.058A3.459,3.459,0,0,1,42.614-6a3.5,3.5,0,0,1,1.053,2.562A3.5,3.5,0,0,1,42.614-.881,3.451,3.451,0,0,1,40.068.183Zm0-2.073a1.528,1.528,0,0,0,1.106-.451,1.474,1.474,0,0,0,.462-1.1,1.5,1.5,0,0,0-.467-1.106,1.515,1.515,0,0,0-1.1-.462,1.535,1.535,0,0,0-1.123.451,1.508,1.508,0,0,0-.457,1.117,1.483,1.483,0,0,0,.457,1.1A1.535,1.535,0,0,0,40.068-1.891Z" transform="translate(638 3300)" fill="#fff"/>
      <path id="Trazado_35377" data-name="Trazado 35377" d="M6.263-10.065q5.962,0,5.962,4.9a5.233,5.233,0,0,1-1.5,3.926A5.436,5.436,0,0,1,6.757.226,6.575,6.575,0,0,1,3.98-.349,4.791,4.791,0,0,1,1.966-2.057,4.574,4.574,0,0,1,1.2-4.673a4.829,4.829,0,0,1,.064-.773l3.072-.14a4.541,4.541,0,0,0-.075.688,2.09,2.09,0,0,0,.7,1.713,2.631,2.631,0,0,0,1.729.575,2.384,2.384,0,0,0,1.8-.661,2.461,2.461,0,0,0,.634-1.778,2.213,2.213,0,0,0-.773-1.815,4.142,4.142,0,0,0-2.6-.634H1.687l.645-8.024h9.163v2.761H5.113l-.2,2.7ZM17.682-8.5a3.472,3.472,0,0,1-2.557-1.058,3.511,3.511,0,0,1-1.053-2.573,3.5,3.5,0,0,1,1.058-2.557,3.468,3.468,0,0,1,2.551-1.063,3.481,3.481,0,0,1,2.562,1.063A3.5,3.5,0,0,1,21.3-12.128a3.516,3.516,0,0,1-1.053,2.567A3.476,3.476,0,0,1,17.682-8.5ZM16.9.011l8.121-15.544h2.589L19.476.011Zm.784-10.57a1.513,1.513,0,0,0,1.123-.451,1.527,1.527,0,0,0,.446-1.117,1.492,1.492,0,0,0-.462-1.1,1.518,1.518,0,0,0-1.106-.457,1.528,1.528,0,0,0-1.106.451,1.487,1.487,0,0,0-.462,1.106,1.508,1.508,0,0,0,.457,1.117A1.522,1.522,0,0,0,17.682-10.56ZM26.931.183A3.5,3.5,0,0,1,24.353-.875,3.5,3.5,0,0,1,23.3-3.437,3.481,3.481,0,0,1,24.363-6a3.507,3.507,0,0,1,2.567-1.058A3.459,3.459,0,0,1,29.477-6a3.5,3.5,0,0,1,1.053,2.562A3.5,3.5,0,0,1,29.477-.881,3.451,3.451,0,0,1,26.931.183Zm0-2.073a1.528,1.528,0,0,0,1.106-.451,1.474,1.474,0,0,0,.462-1.1,1.5,1.5,0,0,0-.467-1.106,1.515,1.515,0,0,0-1.1-.462,1.535,1.535,0,0,0-1.123.451,1.508,1.508,0,0,0-.457,1.117,1.483,1.483,0,0,0,.457,1.1A1.535,1.535,0,0,0,26.931-1.891Z" transform="translate(568 3378)" fill="#fff"/>
      <path id="Trazado_35383" data-name="Trazado 35383" d="M6.6.215a6.211,6.211,0,0,1-4.055-1.3,4.271,4.271,0,0,1-1.6-3.491A4.35,4.35,0,0,1,1.6-6.956a4.454,4.454,0,0,1,1.8-1.606A3.932,3.932,0,0,1,2.111-9.883a3.412,3.412,0,0,1-.467-1.762A3.641,3.641,0,0,1,3.029-14.6,5.451,5.451,0,0,1,6.6-15.737,5.362,5.362,0,0,1,10.114-14.6a3.646,3.646,0,0,1,1.38,2.959,3.477,3.477,0,0,1-.451,1.756A3.964,3.964,0,0,1,9.8-8.562,4.432,4.432,0,0,1,11.58-6.956a4.378,4.378,0,0,1,.645,2.379,4.46,4.46,0,0,1-.741,2.551A4.665,4.665,0,0,1,9.469-.354,6.965,6.965,0,0,1,6.6.215Zm0-9.679a2.064,2.064,0,0,0,1.472-.58,1.878,1.878,0,0,0,.612-1.418,1.833,1.833,0,0,0-.612-1.4A2.085,2.085,0,0,0,6.6-13.428a2.093,2.093,0,0,0-1.488.569,1.84,1.84,0,0,0-.607,1.4,1.881,1.881,0,0,0,.607,1.423A2.083,2.083,0,0,0,6.6-9.464Zm0,6.907a2.594,2.594,0,0,0,1.815-.655,2.265,2.265,0,0,0,.72-1.762A2.2,2.2,0,0,0,8.406-6.7a2.611,2.611,0,0,0-1.81-.65,2.641,2.641,0,0,0-1.832.65,2.2,2.2,0,0,0-.725,1.724,2.257,2.257,0,0,0,.725,1.762A2.628,2.628,0,0,0,6.6-2.557ZM17.682-8.5a3.472,3.472,0,0,1-2.557-1.058,3.511,3.511,0,0,1-1.053-2.573,3.5,3.5,0,0,1,1.058-2.557,3.468,3.468,0,0,1,2.551-1.063,3.481,3.481,0,0,1,2.562,1.063A3.5,3.5,0,0,1,21.3-12.128a3.516,3.516,0,0,1-1.053,2.567A3.476,3.476,0,0,1,17.682-8.5ZM16.9.011l8.121-15.544h2.589L19.476.011Zm.784-10.57a1.513,1.513,0,0,0,1.123-.451,1.527,1.527,0,0,0,.446-1.117,1.492,1.492,0,0,0-.462-1.1,1.518,1.518,0,0,0-1.106-.457,1.528,1.528,0,0,0-1.106.451,1.487,1.487,0,0,0-.462,1.106,1.508,1.508,0,0,0,.457,1.117A1.522,1.522,0,0,0,17.682-10.56ZM26.931.183A3.5,3.5,0,0,1,24.353-.875,3.5,3.5,0,0,1,23.3-3.437,3.481,3.481,0,0,1,24.363-6a3.507,3.507,0,0,1,2.567-1.058A3.459,3.459,0,0,1,29.477-6a3.5,3.5,0,0,1,1.053,2.562A3.5,3.5,0,0,1,29.477-.881,3.451,3.451,0,0,1,26.931.183Zm0-2.073a1.528,1.528,0,0,0,1.106-.451,1.474,1.474,0,0,0,.462-1.1,1.5,1.5,0,0,0-.467-1.106,1.515,1.515,0,0,0-1.1-.462,1.535,1.535,0,0,0-1.123.451,1.508,1.508,0,0,0-.457,1.117,1.483,1.483,0,0,0,.457,1.1A1.535,1.535,0,0,0,26.931-1.891Z" transform="translate(545 3482)" fill="#fff"/>
      <path id="Trazado_35385" data-name="Trazado 35385" d="M6.542.215A5.57,5.57,0,0,1,2.31-1.2,6.149,6.149,0,0,1,.978-5.543l3.169-.14a11.222,11.222,0,0,0,.048,1.139,3.936,3.936,0,0,0,.193.881A1.576,1.576,0,0,0,4.8-3a1.855,1.855,0,0,0,.7.381,3.45,3.45,0,0,0,1.047.14A2.517,2.517,0,0,0,8.374-3.1a2.178,2.178,0,0,0,.639-1.633A2.2,2.2,0,0,0,8.4-6.418a2.3,2.3,0,0,0-1.644-.575h-.6V-9.4h.559A1.68,1.68,0,0,0,8-9.947a1.954,1.954,0,0,0,.51-1.386,1.561,1.561,0,0,0-.559-1.289,2.271,2.271,0,0,0-1.472-.451,2.206,2.206,0,0,0-.838.145,1.563,1.563,0,0,0-.564.371,1.639,1.639,0,0,0-.333.569,2.992,2.992,0,0,0-.161.677,6.758,6.758,0,0,0-.038.752l-3.126-.15A4.969,4.969,0,0,1,2.75-14.443a5.079,5.079,0,0,1,3.7-1.294A5.283,5.283,0,0,1,9.99-14.55a3.717,3.717,0,0,1,1.4,2.949,3.356,3.356,0,0,1-.6,2A3.413,3.413,0,0,1,9.432-8.422a3.825,3.825,0,0,1,.988.44,4.051,4.051,0,0,1,.865.741,3.307,3.307,0,0,1,.639,1.128,4.538,4.538,0,0,1,.236,1.5A4.387,4.387,0,0,1,10.624-1.1,6.059,6.059,0,0,1,6.542.215ZM17.682-8.5a3.472,3.472,0,0,1-2.557-1.058,3.511,3.511,0,0,1-1.053-2.573,3.5,3.5,0,0,1,1.058-2.557,3.468,3.468,0,0,1,2.551-1.063,3.481,3.481,0,0,1,2.562,1.063A3.5,3.5,0,0,1,21.3-12.128a3.516,3.516,0,0,1-1.053,2.567A3.476,3.476,0,0,1,17.682-8.5ZM16.9.011l8.121-15.544h2.589L19.476.011Zm.784-10.57a1.513,1.513,0,0,0,1.123-.451,1.527,1.527,0,0,0,.446-1.117,1.492,1.492,0,0,0-.462-1.1,1.518,1.518,0,0,0-1.106-.457,1.528,1.528,0,0,0-1.106.451,1.487,1.487,0,0,0-.462,1.106,1.508,1.508,0,0,0,.457,1.117A1.522,1.522,0,0,0,17.682-10.56ZM26.931.183A3.5,3.5,0,0,1,24.353-.875,3.5,3.5,0,0,1,23.3-3.437,3.481,3.481,0,0,1,24.363-6a3.507,3.507,0,0,1,2.567-1.058A3.459,3.459,0,0,1,29.477-6a3.5,3.5,0,0,1,1.053,2.562A3.5,3.5,0,0,1,29.477-.881,3.451,3.451,0,0,1,26.931.183Zm0-2.073a1.528,1.528,0,0,0,1.106-.451,1.474,1.474,0,0,0,.462-1.1,1.5,1.5,0,0,0-.467-1.106,1.515,1.515,0,0,0-1.1-.462,1.535,1.535,0,0,0-1.123.451,1.508,1.508,0,0,0-.457,1.117,1.483,1.483,0,0,0,.457,1.1A1.535,1.535,0,0,0,26.931-1.891Z" transform="translate(543 3561)" fill="#fff"/>
      <path id="Trazado_35386" data-name="Trazado 35386" d="M12.278-5.21a5.06,5.06,0,0,1-.457,2.181,5.146,5.146,0,0,1-1.257,1.724A5.918,5.918,0,0,1,8.723-.2a6.109,6.109,0,0,1-2.2.4,6.1,6.1,0,0,1-2.24-.414A5.516,5.516,0,0,1,2.465-1.343a5.266,5.266,0,0,1-1.2-1.724A5.251,5.251,0,0,1,.827-5.2,6.451,6.451,0,0,1,2.2-8.991l4.834-6.531h3.513L6.521-10.27a5.234,5.234,0,0,1,.709-.043,5.06,5.06,0,0,1,1.907.365,5.163,5.163,0,0,1,1.606,1.015,4.7,4.7,0,0,1,1.112,1.617A5.43,5.43,0,0,1,12.278-5.21ZM9.249-5.285a2.652,2.652,0,0,0-.752-2,2.735,2.735,0,0,0-2.03-.779A2.622,2.622,0,0,0,4.5-7.283a2.77,2.77,0,0,0-.784,1.955,2.656,2.656,0,0,0,.72,1.993,2.668,2.668,0,0,0,2,.757,2.8,2.8,0,0,0,2.02-.752A2.621,2.621,0,0,0,9.249-5.285ZM17.682-8.5a3.472,3.472,0,0,1-2.557-1.058,3.511,3.511,0,0,1-1.053-2.573,3.5,3.5,0,0,1,1.058-2.557,3.468,3.468,0,0,1,2.551-1.063,3.481,3.481,0,0,1,2.562,1.063A3.5,3.5,0,0,1,21.3-12.128a3.516,3.516,0,0,1-1.053,2.567A3.476,3.476,0,0,1,17.682-8.5ZM16.9.011l8.121-15.544h2.589L19.476.011Zm.784-10.57a1.513,1.513,0,0,0,1.123-.451,1.527,1.527,0,0,0,.446-1.117,1.492,1.492,0,0,0-.462-1.1,1.518,1.518,0,0,0-1.106-.457,1.528,1.528,0,0,0-1.106.451,1.487,1.487,0,0,0-.462,1.106,1.508,1.508,0,0,0,.457,1.117A1.522,1.522,0,0,0,17.682-10.56ZM26.931.183A3.5,3.5,0,0,1,24.353-.875,3.5,3.5,0,0,1,23.3-3.437,3.481,3.481,0,0,1,24.363-6a3.507,3.507,0,0,1,2.567-1.058A3.459,3.459,0,0,1,29.477-6a3.5,3.5,0,0,1,1.053,2.562A3.5,3.5,0,0,1,29.477-.881,3.451,3.451,0,0,1,26.931.183Zm0-2.073a1.528,1.528,0,0,0,1.106-.451,1.474,1.474,0,0,0,.462-1.1,1.5,1.5,0,0,0-.467-1.106,1.515,1.515,0,0,0-1.1-.462,1.535,1.535,0,0,0-1.123.451,1.508,1.508,0,0,0-.457,1.117,1.483,1.483,0,0,0,.457,1.1A1.535,1.535,0,0,0,26.931-1.891Z" transform="translate(579 3636)" fill="#fff"/>
      <path id="Trazado_35400" data-name="Trazado 35400" d="M1.192-15.522H12.117v2.385L5.1,0H1.6L8.637-12.772H1.192ZM17.682-8.5a3.472,3.472,0,0,1-2.557-1.058,3.511,3.511,0,0,1-1.053-2.573,3.5,3.5,0,0,1,1.058-2.557,3.468,3.468,0,0,1,2.551-1.063,3.481,3.481,0,0,1,2.562,1.063A3.5,3.5,0,0,1,21.3-12.128a3.516,3.516,0,0,1-1.053,2.567A3.476,3.476,0,0,1,17.682-8.5ZM16.9.011l8.121-15.544h2.589L19.476.011Zm.784-10.57a1.513,1.513,0,0,0,1.123-.451,1.527,1.527,0,0,0,.446-1.117,1.492,1.492,0,0,0-.462-1.1,1.518,1.518,0,0,0-1.106-.457,1.528,1.528,0,0,0-1.106.451,1.487,1.487,0,0,0-.462,1.106,1.508,1.508,0,0,0,.457,1.117A1.522,1.522,0,0,0,17.682-10.56ZM26.931.183A3.5,3.5,0,0,1,24.353-.875,3.5,3.5,0,0,1,23.3-3.437,3.481,3.481,0,0,1,24.363-6a3.507,3.507,0,0,1,2.567-1.058A3.459,3.459,0,0,1,29.477-6a3.5,3.5,0,0,1,1.053,2.562A3.5,3.5,0,0,1,29.477-.881,3.451,3.451,0,0,1,26.931.183Zm0-2.073a1.528,1.528,0,0,0,1.106-.451,1.474,1.474,0,0,0,.462-1.1,1.5,1.5,0,0,0-.467-1.106,1.515,1.515,0,0,0-1.1-.462,1.535,1.535,0,0,0-1.123.451,1.508,1.508,0,0,0-.457,1.117,1.483,1.483,0,0,0,.457,1.1A1.535,1.535,0,0,0,26.931-1.891Z" transform="translate(638 3688)" fill="#fff"/>
      <path id="Trazado_35403" data-name="Trazado 35403" d="M5.4-2.761h6.617V0H1.074V-2.331L7.251-8.637a3.887,3.887,0,0,0,1.343-2.675,1.892,1.892,0,0,0-.553-1.439,2.178,2.178,0,0,0-1.563-.526q-2.2,0-2.2,2.5v1.149L1.192-9.937v-.773A4.841,4.841,0,0,1,2.61-14.443a5.431,5.431,0,0,1,3.846-1.316A5.689,5.689,0,0,1,10.2-14.566a4.019,4.019,0,0,1,1.445,3.276,4.646,4.646,0,0,1-.489,2.127A8.89,8.89,0,0,1,9.6-7.09ZM17.682-8.5a3.472,3.472,0,0,1-2.557-1.058,3.511,3.511,0,0,1-1.053-2.573,3.5,3.5,0,0,1,1.058-2.557,3.468,3.468,0,0,1,2.551-1.063,3.481,3.481,0,0,1,2.562,1.063A3.5,3.5,0,0,1,21.3-12.128a3.516,3.516,0,0,1-1.053,2.567A3.476,3.476,0,0,1,17.682-8.5ZM16.9.011l8.121-15.544h2.589L19.476.011Zm.784-10.57a1.513,1.513,0,0,0,1.123-.451,1.527,1.527,0,0,0,.446-1.117,1.492,1.492,0,0,0-.462-1.1,1.518,1.518,0,0,0-1.106-.457,1.528,1.528,0,0,0-1.106.451,1.487,1.487,0,0,0-.462,1.106,1.508,1.508,0,0,0,.457,1.117A1.522,1.522,0,0,0,17.682-10.56ZM26.931.183A3.5,3.5,0,0,1,24.353-.875,3.5,3.5,0,0,1,23.3-3.437,3.481,3.481,0,0,1,24.363-6a3.507,3.507,0,0,1,2.567-1.058A3.459,3.459,0,0,1,29.477-6a3.5,3.5,0,0,1,1.053,2.562A3.5,3.5,0,0,1,29.477-.881,3.451,3.451,0,0,1,26.931.183Zm0-2.073a1.528,1.528,0,0,0,1.106-.451,1.474,1.474,0,0,0,.462-1.1,1.5,1.5,0,0,0-.467-1.106,1.515,1.515,0,0,0-1.1-.462,1.535,1.535,0,0,0-1.123.451,1.508,1.508,0,0,0-.457,1.117,1.483,1.483,0,0,0,.457,1.1A1.535,1.535,0,0,0,26.931-1.891Z" transform="translate(685 3723)" fill="#fff"/>
      <path id="Trazado_35387" data-name="Trazado 35387" d="M5.4-2.761h6.617V0H1.074V-2.331L7.251-8.637a3.887,3.887,0,0,0,1.343-2.675,1.892,1.892,0,0,0-.553-1.439,2.178,2.178,0,0,0-1.563-.526q-2.2,0-2.2,2.5v1.149L1.192-9.937v-.773A4.841,4.841,0,0,1,2.61-14.443a5.431,5.431,0,0,1,3.846-1.316A5.689,5.689,0,0,1,10.2-14.566a4.019,4.019,0,0,1,1.445,3.276,4.646,4.646,0,0,1-.489,2.127A8.89,8.89,0,0,1,9.6-7.09ZM17.682-8.5a3.472,3.472,0,0,1-2.557-1.058,3.511,3.511,0,0,1-1.053-2.573,3.5,3.5,0,0,1,1.058-2.557,3.468,3.468,0,0,1,2.551-1.063,3.481,3.481,0,0,1,2.562,1.063A3.5,3.5,0,0,1,21.3-12.128a3.516,3.516,0,0,1-1.053,2.567A3.476,3.476,0,0,1,17.682-8.5ZM16.9.011l8.121-15.544h2.589L19.476.011Zm.784-10.57a1.513,1.513,0,0,0,1.123-.451,1.527,1.527,0,0,0,.446-1.117,1.492,1.492,0,0,0-.462-1.1,1.518,1.518,0,0,0-1.106-.457,1.528,1.528,0,0,0-1.106.451,1.487,1.487,0,0,0-.462,1.106,1.508,1.508,0,0,0,.457,1.117A1.522,1.522,0,0,0,17.682-10.56ZM26.931.183A3.5,3.5,0,0,1,24.353-.875,3.5,3.5,0,0,1,23.3-3.437,3.481,3.481,0,0,1,24.363-6a3.507,3.507,0,0,1,2.567-1.058A3.459,3.459,0,0,1,29.477-6a3.5,3.5,0,0,1,1.053,2.562A3.5,3.5,0,0,1,29.477-.881,3.451,3.451,0,0,1,26.931.183Zm0-2.073a1.528,1.528,0,0,0,1.106-.451,1.474,1.474,0,0,0,.462-1.1,1.5,1.5,0,0,0-.467-1.106,1.515,1.515,0,0,0-1.1-.462,1.535,1.535,0,0,0-1.123.451,1.508,1.508,0,0,0-.457,1.117,1.483,1.483,0,0,0,.457,1.1A1.535,1.535,0,0,0,26.931-1.891Z" transform="translate(554 3597)" fill="#fff"/>
      <path id="Trazado_35388" data-name="Trazado 35388" d="M0,0H25V25H0Z" transform="translate(1086 3332)" fill="#5b9bd5"/>
      <path id="Trazado_35389" data-name="Trazado 35389" d="M0,0H25V25H0Z" transform="translate(1086 3385)" fill="#ed7d31"/>
      <path id="Trazado_35390" data-name="Trazado 35390" d="M0,0H25V25H0Z" transform="translate(1086 3438)" fill="#636363"/>
      <path id="Trazado_35391" data-name="Trazado 35391" d="M0,0H25V25H0Z" transform="translate(1086 3491)" fill="#fec02d"/>
      <path id="Trazado_35392" data-name="Trazado 35392" d="M0,0H25V25H0Z" transform="translate(1086 3544)" fill="#4572c5"/>
      <path id="Trazado_35393" data-name="Trazado 35393" d="M0,0H25V25H0Z" transform="translate(1086 3597)" fill="#6fac47"/>
      <path id="Trazado_35401" data-name="Trazado 35401" d="M0,0H25V25H0Z" transform="translate(1086 3652)" fill="#264479"/>
      <path id="Trazado_35394" data-name="Trazado 35394" d="M7.165.215A7.5,7.5,0,0,1,2.857-.972,4.761,4.761,0,0,1,.763-4.3l3.33-.763A2.828,2.828,0,0,0,5.119-3.1a3.4,3.4,0,0,0,2.175.682,2.81,2.81,0,0,0,1.7-.478,1.612,1.612,0,0,0,.645-1.413,1.506,1.506,0,0,0-.548-1.149A3.58,3.58,0,0,0,8-6.161q-.542-.209-1.746-.575-.161-.054-.236-.075Q5.4-7,5.027-7.133T4.1-7.493a6.188,6.188,0,0,1-.9-.451A6.607,6.607,0,0,1,2.449-8.5a2.926,2.926,0,0,1-.623-.714,3.8,3.8,0,0,1-.376-.892,3.935,3.935,0,0,1-.15-1.106,4.155,4.155,0,0,1,.725-2.444A4.441,4.441,0,0,1,3.98-15.216a7.116,7.116,0,0,1,2.8-.521,8.84,8.84,0,0,1,2.025.226,7.093,7.093,0,0,1,1.81.693,4.434,4.434,0,0,1,1.445,1.278,4.807,4.807,0,0,1,.822,1.885l-3.115.773a2.524,2.524,0,0,0-2.793-2.224,3.058,3.058,0,0,0-1.729.451,1.529,1.529,0,0,0-.677,1.364q0,.849,1.128,1.375a16.808,16.808,0,0,0,2.159.741q.634.193,1.031.322t1,.376A6.942,6.942,0,0,1,10.86-8a7.234,7.234,0,0,1,.816.6,3.211,3.211,0,0,1,.693.773,4.182,4.182,0,0,1,.424.961,4.018,4.018,0,0,1,.172,1.2,4.706,4.706,0,0,1-.312,1.751A3.811,3.811,0,0,1,11.8-1.4a4.959,4.959,0,0,1-1.284.908A6.228,6.228,0,0,1,8.938.048,9.082,9.082,0,0,1,7.165.215Zm18.756-5.9-.032.741H17.7a2.859,2.859,0,0,0,.881,2.02,2.817,2.817,0,0,0,1.944.7A2.715,2.715,0,0,0,21.984-2.6a2.344,2.344,0,0,0,.929-1.112l2.836.419A4.821,4.821,0,0,1,23.815-.709,5.749,5.749,0,0,1,20.55.215a5.978,5.978,0,0,1-4.3-1.52,5.546,5.546,0,0,1-1.6-4.216,5.579,5.579,0,0,1,1.6-4.216,5.8,5.8,0,0,1,4.2-1.542,5.544,5.544,0,0,1,3.964,1.407A5.52,5.52,0,0,1,25.921-5.683ZM20.475-9.088a2.445,2.445,0,0,0-2.686,2.127h5.07A2.326,2.326,0,0,0,22.1-8.54,2.417,2.417,0,0,0,20.475-9.088ZM33.269.2A5.9,5.9,0,0,1,29-1.386,5.491,5.491,0,0,1,27.35-5.532,5.479,5.479,0,0,1,29-9.679a5.918,5.918,0,0,1,4.27-1.579,5.884,5.884,0,0,1,3.577,1.063,4.748,4.748,0,0,1,1.848,3l-2.857.312a2.448,2.448,0,0,0-.924-1.45,2.809,2.809,0,0,0-1.676-.483,2.533,2.533,0,0,0-2.02.9,3.538,3.538,0,0,0-.773,2.385,3.542,3.542,0,0,0,.773,2.379,2.526,2.526,0,0,0,2.02.908,2.785,2.785,0,0,0,1.67-.483,2.505,2.505,0,0,0,.929-1.45l2.857.312a4.761,4.761,0,0,1-1.864,3A5.86,5.86,0,0,1,33.269.2ZM45.01,0a3.335,3.335,0,0,1-2.492-.9,3.489,3.489,0,0,1-.881-2.551V-8.669h-2.17v-2.374h.7A1.822,1.822,0,0,0,41.54-11.5a2.378,2.378,0,0,0,.44-1.644v-1.461h2.793v3.566h2.277v2.374H44.773v4.888q0,1.429,1.278,1.429h1V0Zm9.539.215a6.944,6.944,0,0,1-3.126-.677A5.058,5.058,0,0,1,49.28-2.449,5.922,5.922,0,0,1,48.5-5.532a5.4,5.4,0,0,1,1.676-4.189,6.217,6.217,0,0,1,4.372-1.536,6.232,6.232,0,0,1,4.383,1.536,5.4,5.4,0,0,1,1.676,4.189,5.432,5.432,0,0,1-1.676,4.206A6.219,6.219,0,0,1,54.549.215Zm-.032-2.46a2.835,2.835,0,0,0,2.186-.9,3.378,3.378,0,0,0,.833-2.385A3.378,3.378,0,0,0,56.7-7.917a2.835,2.835,0,0,0-2.186-.9,2.731,2.731,0,0,0-2.122.908,3.409,3.409,0,0,0-.822,2.379A3.409,3.409,0,0,0,52.4-3.153,2.731,2.731,0,0,0,54.517-2.245ZM65.871-9.292a3.585,3.585,0,0,1,1.45-1.327,4.425,4.425,0,0,1,2.159-.553v2.761a4.183,4.183,0,0,0-2.643.666,2.908,2.908,0,0,0-.816,2.363V0H62.906V-11.043h2.965Zm17.617-1.966a5.371,5.371,0,0,1,2.063.4,5.161,5.161,0,0,1,1.692,1.117,5.054,5.054,0,0,1,1.144,1.821A6.76,6.76,0,0,1,88.806-5.5a6.76,6.76,0,0,1-.419,2.422,5.054,5.054,0,0,1-1.144,1.821A5.161,5.161,0,0,1,85.551-.14a5.371,5.371,0,0,1-2.062.4,4.792,4.792,0,0,1-2-.408A3.131,3.131,0,0,1,80.1-1.311V5.371H77.011V-11.043h2.933l.086,1.482a3.025,3.025,0,0,1,1.38-1.251A4.744,4.744,0,0,1,83.488-11.258Zm-.7,8.948a2.779,2.779,0,0,0,2.089-.865A3.212,3.212,0,0,0,85.712-5.5a3.212,3.212,0,0,0-.833-2.326A2.779,2.779,0,0,0,82.79-8.69a2.784,2.784,0,0,0-2.105.881,3.213,3.213,0,0,0-.838,2.31,3.213,3.213,0,0,0,.838,2.31A2.784,2.784,0,0,0,82.79-2.31Zm18.734-3.373-.032.741H93.307a2.859,2.859,0,0,0,.881,2.02,2.817,2.817,0,0,0,1.944.7A2.715,2.715,0,0,0,97.587-2.6a2.344,2.344,0,0,0,.929-1.112l2.836.419A4.821,4.821,0,0,1,99.419-.709a5.749,5.749,0,0,1-3.266.924,5.978,5.978,0,0,1-4.3-1.52,5.546,5.546,0,0,1-1.6-4.216,5.579,5.579,0,0,1,1.6-4.216,5.8,5.8,0,0,1,4.2-1.542,5.544,5.544,0,0,1,3.964,1.407A5.52,5.52,0,0,1,101.524-5.683ZM96.078-9.088a2.445,2.445,0,0,0-2.686,2.127h5.07A2.326,2.326,0,0,0,97.7-8.54,2.417,2.417,0,0,0,96.078-9.088ZM107.991,0A3.335,3.335,0,0,1,105.5-.9a3.489,3.489,0,0,1-.881-2.551V-8.669h-2.17v-2.374h.7a1.822,1.822,0,0,0,1.375-.462,2.378,2.378,0,0,0,.44-1.644v-1.461h2.793v3.566h2.277v2.374h-2.277v4.888q0,1.429,1.278,1.429h1V0Zm7.4-9.292a3.585,3.585,0,0,1,1.45-1.327A4.425,4.425,0,0,1,119-11.172v2.761a4.183,4.183,0,0,0-2.643.666,2.908,2.908,0,0,0-.816,2.363V0h-3.115V-11.043h2.965ZM125.9.215a6.944,6.944,0,0,1-3.126-.677,5.058,5.058,0,0,1-2.143-1.987,5.922,5.922,0,0,1-.779-3.083,5.4,5.4,0,0,1,1.676-4.189,6.217,6.217,0,0,1,4.372-1.536,6.232,6.232,0,0,1,4.383,1.536,5.4,5.4,0,0,1,1.676,4.189,5.432,5.432,0,0,1-1.676,4.206A6.219,6.219,0,0,1,125.9.215Zm-.032-2.46a2.835,2.835,0,0,0,2.186-.9,3.378,3.378,0,0,0,.833-2.385,3.378,3.378,0,0,0-.833-2.385,2.835,2.835,0,0,0-2.186-.9,2.731,2.731,0,0,0-2.122.908,3.409,3.409,0,0,0-.822,2.379,3.409,3.409,0,0,0,.822,2.379A2.731,2.731,0,0,0,125.866-2.245ZM134.256,0V-16.5h3.126V0Zm16.715-5.683-.032.741h-8.186a2.859,2.859,0,0,0,.881,2.02,2.817,2.817,0,0,0,1.944.7,2.715,2.715,0,0,0,1.456-.381,2.344,2.344,0,0,0,.929-1.112L150.8-3.3a4.821,4.821,0,0,1-1.934,2.589A5.749,5.749,0,0,1,145.6.215a5.978,5.978,0,0,1-4.3-1.52,5.546,5.546,0,0,1-1.6-4.216,5.579,5.579,0,0,1,1.6-4.216,5.8,5.8,0,0,1,4.2-1.542,5.543,5.543,0,0,1,3.964,1.407A5.52,5.52,0,0,1,150.971-5.683Zm-5.446-3.405a2.445,2.445,0,0,0-2.686,2.127h5.07a2.326,2.326,0,0,0-.763-1.579A2.417,2.417,0,0,0,145.524-9.088Zm10.764-.2a3.585,3.585,0,0,1,1.45-1.327,4.425,4.425,0,0,1,2.159-.553v2.761a4.183,4.183,0,0,0-2.643.666,2.908,2.908,0,0,0-.816,2.363V0h-3.115V-11.043h2.965ZM166.794.215a6.944,6.944,0,0,1-3.126-.677,5.058,5.058,0,0,1-2.143-1.987,5.922,5.922,0,0,1-.779-3.083,5.4,5.4,0,0,1,1.676-4.189,6.217,6.217,0,0,1,4.372-1.536,6.232,6.232,0,0,1,4.383,1.536,5.4,5.4,0,0,1,1.676,4.189,5.432,5.432,0,0,1-1.676,4.206A6.219,6.219,0,0,1,166.794.215Zm-.032-2.46a2.835,2.835,0,0,0,2.186-.9,3.378,3.378,0,0,0,.833-2.385,3.378,3.378,0,0,0-.833-2.385,2.835,2.835,0,0,0-2.186-.9,2.731,2.731,0,0,0-2.122.908,3.409,3.409,0,0,0-.822,2.379,3.409,3.409,0,0,0,.822,2.379A2.731,2.731,0,0,0,166.762-2.245Z" transform="translate(1137 3352)" fill="#00223d"/>
      <path id="Trazado_35395" data-name="Trazado 35395" d="M10.205,0,6.166-6.832H5.231V0H2.009V-15.522H7.638a6.511,6.511,0,0,1,2.256.36,3.9,3.9,0,0,1,1.563,1,4.278,4.278,0,0,1,.881,1.466,5.363,5.363,0,0,1,.3,1.815,3.791,3.791,0,0,1-.849,2.551A4.277,4.277,0,0,1,9.346-6.993L14.019,0ZM5.231-12.848v3.706h1.9q2.417,0,2.417-1.848a1.682,1.682,0,0,0-.591-1.364,2.809,2.809,0,0,0-1.826-.494ZM25.706-5.683l-.032.741H17.488a2.859,2.859,0,0,0,.881,2.02,2.817,2.817,0,0,0,1.944.7A2.715,2.715,0,0,0,21.769-2.6,2.344,2.344,0,0,0,22.7-3.717l2.836.419A4.821,4.821,0,0,1,23.6-.709a5.749,5.749,0,0,1-3.266.924,5.978,5.978,0,0,1-4.3-1.52,5.546,5.546,0,0,1-1.6-4.216,5.579,5.579,0,0,1,1.6-4.216,5.8,5.8,0,0,1,4.2-1.542A5.544,5.544,0,0,1,24.2-9.872,5.52,5.52,0,0,1,25.706-5.683ZM20.26-9.088a2.445,2.445,0,0,0-2.686,2.127h5.07a2.326,2.326,0,0,0-.763-1.579A2.417,2.417,0,0,0,20.26-9.088ZM31.947.215a6.171,6.171,0,0,1-3.223-.773,3.269,3.269,0,0,1-1.579-2.3l2.589-.73a2.08,2.08,0,0,0,2.213,1.644A2.285,2.285,0,0,0,33.075-2.2a.879.879,0,0,0,.44-.854.9.9,0,0,0-.183-.569,1.446,1.446,0,0,0-.564-.408,7.026,7.026,0,0,0-.752-.29q-.371-.118-.983-.285T30.014-4.92a6.836,6.836,0,0,1-.972-.414,4.147,4.147,0,0,1-.806-.569,2.3,2.3,0,0,1-.6-.865,3.12,3.12,0,0,1-.209-1.182,2.821,2.821,0,0,1,1.2-2.471,5.352,5.352,0,0,1,3.131-.838,5.487,5.487,0,0,1,2.89.709,3.209,3.209,0,0,1,1.482,2.213l-2.4.537a1.876,1.876,0,0,0-1.966-1.4,2.153,2.153,0,0,0-1.085.247.794.794,0,0,0-.43.73.837.837,0,0,0,.064.333.659.659,0,0,0,.226.269,3.29,3.29,0,0,0,.312.2,2.35,2.35,0,0,0,.44.177q.29.091.483.14l.564.145.575.15q.591.161,1.037.322a6.071,6.071,0,0,1,.951.451,3.412,3.412,0,0,1,.833.65,2.9,2.9,0,0,1,.542.913,3.372,3.372,0,0,1,.215,1.23,3.322,3.322,0,0,1-.371,1.6,2.782,2.782,0,0,1-1.015,1.08,4.941,4.941,0,0,1-1.434.58A7.439,7.439,0,0,1,31.947.215ZM42.829,0a3.335,3.335,0,0,1-2.492-.9,3.489,3.489,0,0,1-.881-2.551V-8.669h-2.17v-2.374h.7a1.822,1.822,0,0,0,1.375-.462,2.378,2.378,0,0,0,.44-1.644v-1.461h2.793v3.566H44.87v2.374H42.593v4.888q0,1.429,1.278,1.429h1V0Zm9.539.215a6.944,6.944,0,0,1-3.126-.677A5.058,5.058,0,0,1,47.1-2.449a5.922,5.922,0,0,1-.779-3.083A5.4,5.4,0,0,1,48-9.722a6.217,6.217,0,0,1,4.372-1.536,6.232,6.232,0,0,1,4.383,1.536,5.4,5.4,0,0,1,1.676,4.189,5.432,5.432,0,0,1-1.676,4.206A6.219,6.219,0,0,1,52.368.215Zm-.032-2.46a2.835,2.835,0,0,0,2.186-.9,3.378,3.378,0,0,0,.833-2.385,3.378,3.378,0,0,0-.833-2.385,2.835,2.835,0,0,0-2.186-.9,2.731,2.731,0,0,0-2.122.908,3.409,3.409,0,0,0-.822,2.379,3.409,3.409,0,0,0,.822,2.379A2.731,2.731,0,0,0,52.336-2.245ZM74.271-16.5h3.094V0H74.433l-.075-1.439a3.154,3.154,0,0,1-1.4,1.251,4.719,4.719,0,0,1-2.068.446,5.371,5.371,0,0,1-2.062-.4,5.12,5.12,0,0,1-1.692-1.123,5.117,5.117,0,0,1-1.144-1.821A6.717,6.717,0,0,1,65.57-5.5a6.278,6.278,0,0,1,.73-3.078,5.005,5.005,0,0,1,1.928-2,5.31,5.31,0,0,1,2.659-.677,4.837,4.837,0,0,1,2,.4,3.128,3.128,0,0,1,1.38,1.144ZM71.6-2.31a2.754,2.754,0,0,0,2.089-.881,3.225,3.225,0,0,0,.833-2.31,3.232,3.232,0,0,0-.838-2.315A2.751,2.751,0,0,0,71.6-8.7a2.783,2.783,0,0,0-2.1.87A3.231,3.231,0,0,0,68.664-5.5,3.216,3.216,0,0,0,69.5-3.18,2.783,2.783,0,0,0,71.6-2.31ZM90.954-5.683l-.032.741H82.736a2.859,2.859,0,0,0,.881,2.02,2.817,2.817,0,0,0,1.944.7A2.715,2.715,0,0,0,87.017-2.6a2.344,2.344,0,0,0,.929-1.112l2.836.419A4.821,4.821,0,0,1,88.849-.709a5.749,5.749,0,0,1-3.266.924,5.978,5.978,0,0,1-4.3-1.52,5.546,5.546,0,0,1-1.6-4.216,5.579,5.579,0,0,1,1.6-4.216,5.8,5.8,0,0,1,4.2-1.542A5.544,5.544,0,0,1,89.45-9.872,5.52,5.52,0,0,1,90.954-5.683ZM85.508-9.088a2.445,2.445,0,0,0-2.686,2.127h5.07A2.326,2.326,0,0,0,87.13-8.54,2.417,2.417,0,0,0,85.508-9.088Zm17.4,9.3a6.171,6.171,0,0,1-3.223-.773,3.269,3.269,0,0,1-1.579-2.3l2.589-.73a2.08,2.08,0,0,0,2.213,1.644,2.285,2.285,0,0,0,1.128-.252.879.879,0,0,0,.44-.854.9.9,0,0,0-.183-.569,1.446,1.446,0,0,0-.564-.408,7.026,7.026,0,0,0-.752-.29q-.371-.118-.983-.285t-1.021-.317A6.836,6.836,0,0,1,100-5.333,4.147,4.147,0,0,1,99.2-5.9a2.3,2.3,0,0,1-.6-.865,3.12,3.12,0,0,1-.209-1.182,2.821,2.821,0,0,1,1.2-2.471,5.352,5.352,0,0,1,3.131-.838,5.487,5.487,0,0,1,2.89.709,3.209,3.209,0,0,1,1.482,2.213l-2.4.537a1.876,1.876,0,0,0-1.966-1.4,2.153,2.153,0,0,0-1.085.247.794.794,0,0,0-.43.73.837.837,0,0,0,.064.333.659.659,0,0,0,.226.269,3.29,3.29,0,0,0,.312.2,2.35,2.35,0,0,0,.44.177q.29.091.483.14l.564.145.575.15q.591.161,1.037.322a6.071,6.071,0,0,1,.951.451,3.412,3.412,0,0,1,.833.65,2.9,2.9,0,0,1,.542.913,3.372,3.372,0,0,1,.215,1.23,3.322,3.322,0,0,1-.371,1.6,2.782,2.782,0,0,1-1.015,1.08,4.941,4.941,0,0,1-1.434.58A7.439,7.439,0,0,1,102.91.215Zm17.155-5.9-.032.741h-8.186a2.859,2.859,0,0,0,.881,2.02,2.817,2.817,0,0,0,1.944.7,2.715,2.715,0,0,0,1.456-.381,2.344,2.344,0,0,0,.929-1.112l2.836.419A4.821,4.821,0,0,1,117.96-.709a5.749,5.749,0,0,1-3.266.924,5.978,5.978,0,0,1-4.3-1.52,5.546,5.546,0,0,1-1.6-4.216,5.579,5.579,0,0,1,1.6-4.216,5.8,5.8,0,0,1,4.2-1.542,5.544,5.544,0,0,1,3.964,1.407A5.52,5.52,0,0,1,120.065-5.683Zm-5.446-3.405a2.445,2.445,0,0,0-2.686,2.127H117a2.326,2.326,0,0,0-.763-1.579A2.417,2.417,0,0,0,114.619-9.088ZM127.413.2a5.9,5.9,0,0,1-4.265-1.59,5.491,5.491,0,0,1-1.654-4.146,5.479,5.479,0,0,1,1.649-4.146,5.918,5.918,0,0,1,4.27-1.579,5.884,5.884,0,0,1,3.577,1.063,4.748,4.748,0,0,1,1.848,3l-2.857.312a2.448,2.448,0,0,0-.924-1.45,2.809,2.809,0,0,0-1.676-.483,2.533,2.533,0,0,0-2.02.9,3.538,3.538,0,0,0-.773,2.385,3.542,3.542,0,0,0,.773,2.379,2.526,2.526,0,0,0,2.02.908,2.785,2.785,0,0,0,1.67-.483,2.505,2.505,0,0,0,.929-1.45l2.857.312a4.761,4.761,0,0,1-1.864,3A5.86,5.86,0,0,1,127.413.2ZM139.154,0a3.335,3.335,0,0,1-2.492-.9,3.489,3.489,0,0,1-.881-2.551V-8.669h-2.17v-2.374h.7a1.822,1.822,0,0,0,1.375-.462,2.378,2.378,0,0,0,.44-1.644v-1.461h2.793v3.566H141.2v2.374h-2.277v4.888q0,1.429,1.278,1.429h1V0Zm9.539.215a6.944,6.944,0,0,1-3.126-.677,5.058,5.058,0,0,1-2.143-1.987,5.922,5.922,0,0,1-.779-3.083,5.4,5.4,0,0,1,1.676-4.189,6.217,6.217,0,0,1,4.372-1.536,6.232,6.232,0,0,1,4.383,1.536,5.4,5.4,0,0,1,1.676,4.189,5.432,5.432,0,0,1-1.676,4.206A6.219,6.219,0,0,1,148.693.215Zm-.032-2.46a2.835,2.835,0,0,0,2.186-.9,3.378,3.378,0,0,0,.833-2.385,3.378,3.378,0,0,0-.833-2.385,2.835,2.835,0,0,0-2.186-.9,2.731,2.731,0,0,0-2.122.908,3.409,3.409,0,0,0-.822,2.379,3.409,3.409,0,0,0,.822,2.379A2.731,2.731,0,0,0,148.661-2.245Zm11.354-7.047a3.585,3.585,0,0,1,1.45-1.327,4.425,4.425,0,0,1,2.159-.553v2.761a4.183,4.183,0,0,0-2.643.666,2.908,2.908,0,0,0-.816,2.363V0h-3.115V-11.043h2.965Zm15.748,3.609-.032.741h-8.186a2.859,2.859,0,0,0,.881,2.02,2.817,2.817,0,0,0,1.944.7,2.715,2.715,0,0,0,1.456-.381,2.344,2.344,0,0,0,.929-1.112l2.836.419a4.821,4.821,0,0,1-1.934,2.589,5.749,5.749,0,0,1-3.266.924,5.978,5.978,0,0,1-4.3-1.52,5.546,5.546,0,0,1-1.6-4.216,5.579,5.579,0,0,1,1.6-4.216,5.8,5.8,0,0,1,4.2-1.542,5.543,5.543,0,0,1,3.964,1.407A5.52,5.52,0,0,1,175.764-5.683Zm-5.446-3.405a2.445,2.445,0,0,0-2.686,2.127h5.07a2.326,2.326,0,0,0-.763-1.579A2.417,2.417,0,0,0,170.317-9.088ZM182,.215a6.171,6.171,0,0,1-3.223-.773,3.269,3.269,0,0,1-1.579-2.3l2.589-.73A2.08,2.08,0,0,0,182-1.944a2.285,2.285,0,0,0,1.128-.252.879.879,0,0,0,.44-.854.9.9,0,0,0-.183-.569,1.446,1.446,0,0,0-.564-.408,7.026,7.026,0,0,0-.752-.29q-.371-.118-.983-.285t-1.021-.317a6.836,6.836,0,0,1-.972-.414,4.147,4.147,0,0,1-.806-.569,2.3,2.3,0,0,1-.6-.865,3.12,3.12,0,0,1-.209-1.182,2.821,2.821,0,0,1,1.2-2.471,5.352,5.352,0,0,1,3.131-.838,5.487,5.487,0,0,1,2.89.709,3.209,3.209,0,0,1,1.482,2.213l-2.4.537a1.876,1.876,0,0,0-1.966-1.4,2.153,2.153,0,0,0-1.085.247.794.794,0,0,0-.43.73.837.837,0,0,0,.064.333.659.659,0,0,0,.226.269,3.289,3.289,0,0,0,.312.2,2.35,2.35,0,0,0,.44.177q.29.091.483.14l.564.145.575.15q.591.161,1.037.322a6.072,6.072,0,0,1,.951.451,3.412,3.412,0,0,1,.833.65,2.9,2.9,0,0,1,.542.913,3.372,3.372,0,0,1,.215,1.23,3.322,3.322,0,0,1-.371,1.6,2.782,2.782,0,0,1-1.015,1.08,4.941,4.941,0,0,1-1.434.58A7.439,7.439,0,0,1,182,.215Z" transform="translate(1137 3406)" fill="#00223d"/>
      <path id="Trazado_35396" data-name="Trazado 35396" d="M12.4,0,11.269-3.2H4.748L3.62,0H.322L6.037-15.522H9.979L15.694,0Zm-6.7-5.9h4.63l-2.31-6.585Zm19.465-5.146H28.1V-.827a8.261,8.261,0,0,1-.414,2.75,4.535,4.535,0,0,1-1.2,1.885,4.993,4.993,0,0,1-1.837,1.058,7.744,7.744,0,0,1-2.406.344q-4.372,0-5.693-3.427l2.567-1.1a3.746,3.746,0,0,0,1.192,1.6,3.04,3.04,0,0,0,1.815.516Q25,2.8,25-.6V-1.891A3.479,3.479,0,0,1,23.606-.8a4.625,4.625,0,0,1-1.96.414,4.887,4.887,0,0,1-1.939-.392,4.925,4.925,0,0,1-1.606-1.1,5.1,5.1,0,0,1-1.09-1.735,6.087,6.087,0,0,1-.4-2.234,6.075,6.075,0,0,1,.4-2.24,4.9,4.9,0,0,1,1.1-1.713,5.042,5.042,0,0,1,1.611-1.074,4.973,4.973,0,0,1,1.95-.387,4.491,4.491,0,0,1,2.046.457,3.264,3.264,0,0,1,1.37,1.219Zm-4.748,7.3a2.725,2.725,0,0,0,2.03.849,2.708,2.708,0,0,0,2.03-.859A2.908,2.908,0,0,0,25.3-5.844a2.932,2.932,0,0,0-.822-2.105,2.7,2.7,0,0,0-2.036-.859,2.706,2.706,0,0,0-2.036.843,2.938,2.938,0,0,0-.811,2.122A2.918,2.918,0,0,0,20.41-3.738ZM34.278-9.292a3.585,3.585,0,0,1,1.45-1.327,4.425,4.425,0,0,1,2.159-.553v2.761a4.183,4.183,0,0,0-2.643.666,2.908,2.908,0,0,0-.816,2.363V0H31.313V-11.043h2.965ZM44.784.215a6.944,6.944,0,0,1-3.126-.677,5.058,5.058,0,0,1-2.143-1.987,5.922,5.922,0,0,1-.779-3.083,5.4,5.4,0,0,1,1.676-4.189,6.217,6.217,0,0,1,4.372-1.536,6.232,6.232,0,0,1,4.383,1.536,5.4,5.4,0,0,1,1.676,4.189,5.432,5.432,0,0,1-1.676,4.206A6.219,6.219,0,0,1,44.784.215Zm-.032-2.46a2.835,2.835,0,0,0,2.186-.9,3.378,3.378,0,0,0,.833-2.385,3.378,3.378,0,0,0-.833-2.385,2.835,2.835,0,0,0-2.186-.9,2.731,2.731,0,0,0-2.122.908,3.409,3.409,0,0,0-.822,2.379,3.409,3.409,0,0,0,.822,2.379A2.731,2.731,0,0,0,44.752-2.245Zm14.867-9.013a5.371,5.371,0,0,1,2.063.4,5.161,5.161,0,0,1,1.692,1.117,5.054,5.054,0,0,1,1.144,1.821A6.76,6.76,0,0,1,64.937-5.5a6.76,6.76,0,0,1-.419,2.422,5.054,5.054,0,0,1-1.144,1.821A5.161,5.161,0,0,1,61.682-.14a5.371,5.371,0,0,1-2.062.4,4.792,4.792,0,0,1-2-.408,3.131,3.131,0,0,1-1.386-1.16V5.371H53.142V-11.043h2.933l.086,1.482a3.025,3.025,0,0,1,1.38-1.251A4.744,4.744,0,0,1,59.619-11.258Zm-.7,8.948a2.779,2.779,0,0,0,2.089-.865A3.212,3.212,0,0,0,61.843-5.5a3.212,3.212,0,0,0-.833-2.326,2.779,2.779,0,0,0-2.089-.865,2.784,2.784,0,0,0-2.105.881,3.213,3.213,0,0,0-.838,2.31,3.213,3.213,0,0,0,.838,2.31A2.784,2.784,0,0,0,58.921-2.31ZM77.655-5.683l-.032.741H69.438a2.859,2.859,0,0,0,.881,2.02,2.817,2.817,0,0,0,1.944.7A2.715,2.715,0,0,0,73.718-2.6a2.344,2.344,0,0,0,.929-1.112l2.836.419A4.821,4.821,0,0,1,75.55-.709a5.749,5.749,0,0,1-3.266.924,5.978,5.978,0,0,1-4.3-1.52,5.546,5.546,0,0,1-1.6-4.216,5.579,5.579,0,0,1,1.6-4.216,5.8,5.8,0,0,1,4.2-1.542,5.544,5.544,0,0,1,3.964,1.407A5.52,5.52,0,0,1,77.655-5.683ZM72.209-9.088a2.445,2.445,0,0,0-2.686,2.127h5.07a2.326,2.326,0,0,0-.763-1.579A2.417,2.417,0,0,0,72.209-9.088ZM85,.2a5.9,5.9,0,0,1-4.265-1.59,5.491,5.491,0,0,1-1.654-4.146,5.479,5.479,0,0,1,1.649-4.146A5.918,5.918,0,0,1,85-11.258a5.884,5.884,0,0,1,3.577,1.063,4.748,4.748,0,0,1,1.848,3l-2.857.312a2.448,2.448,0,0,0-.924-1.45,2.809,2.809,0,0,0-1.676-.483,2.533,2.533,0,0,0-2.02.9,3.538,3.538,0,0,0-.773,2.385,3.542,3.542,0,0,0,.773,2.379,2.526,2.526,0,0,0,2.02.908,2.785,2.785,0,0,0,1.67-.483,2.505,2.505,0,0,0,.929-1.45l2.857.312a4.761,4.761,0,0,1-1.864,3A5.86,5.86,0,0,1,85,.2ZM99.945-11.043h3.094V0h-2.933l-.075-1.332A4.217,4.217,0,0,1,96.519.215a4.3,4.3,0,0,1-3.051-.994A3.684,3.684,0,0,1,92.4-3.609v-7.434h3.1v6.768a1.909,1.909,0,0,0,.553,1.515,2.1,2.1,0,0,0,1.434.483,2.49,2.49,0,0,0,1.756-.628,2.7,2.7,0,0,0,.693-2.046ZM115.3-3a10.331,10.331,0,0,0,.269,2.7V0h-2.89l-.247-1.2A3.591,3.591,0,0,1,110.881-.14a5.7,5.7,0,0,1-2,.354,5.254,5.254,0,0,1-1.031-.1,3.506,3.506,0,0,1-.929-.328,2.82,2.82,0,0,1-.768-.575,2.52,2.52,0,0,1-.516-.875,3.488,3.488,0,0,1-.193-1.2,3.321,3.321,0,0,1,.2-1.2,2.807,2.807,0,0,1,.537-.9,3.258,3.258,0,0,1,.87-.655,6.658,6.658,0,0,1,1.1-.473,13.092,13.092,0,0,1,1.311-.344l1.815-.408a2,2,0,0,0,.822-.349.7.7,0,0,0,.242-.553A1.14,1.14,0,0,0,111.8-8.8a2.533,2.533,0,0,0-1.316-.322,1.894,1.894,0,0,0-2.159,1.687l-2.739-.494a3.708,3.708,0,0,1,1.6-2.519,6.362,6.362,0,0,1,3.47-.811q4.641,0,4.641,3.985ZM109.85-1.88a2.488,2.488,0,0,0,1.912-.8,3.372,3.372,0,0,0,.741-2.369l-2.621.741a3.1,3.1,0,0,0-1.1.451.927.927,0,0,0-.381.795,1.029,1.029,0,0,0,.408.875A1.689,1.689,0,0,0,109.85-1.88Zm11.419-7.412a3.585,3.585,0,0,1,1.45-1.327,4.425,4.425,0,0,1,2.159-.553v2.761a4.183,4.183,0,0,0-2.643.666,2.908,2.908,0,0,0-.816,2.363V0H118.3V-11.043h2.965Zm7-3.405A1.737,1.737,0,0,1,127-13.218a1.71,1.71,0,0,1-.526-1.262,1.69,1.69,0,0,1,.532-1.251,1.742,1.742,0,0,1,1.262-.521,1.712,1.712,0,0,1,1.246.521,1.7,1.7,0,0,1,.526,1.251,1.71,1.71,0,0,1-.526,1.262A1.712,1.712,0,0,1,128.272-12.7ZM126.693,0V-11.043h3.115V0Zm11.462.215a6.944,6.944,0,0,1-3.126-.677,5.058,5.058,0,0,1-2.143-1.987,5.922,5.922,0,0,1-.779-3.083,5.4,5.4,0,0,1,1.676-4.189,6.217,6.217,0,0,1,4.372-1.536,6.232,6.232,0,0,1,4.383,1.536,5.4,5.4,0,0,1,1.676,4.189,5.432,5.432,0,0,1-1.676,4.206A6.219,6.219,0,0,1,138.155.215Zm-.032-2.46a2.835,2.835,0,0,0,2.186-.9,3.378,3.378,0,0,0,.833-2.385,3.378,3.378,0,0,0-.833-2.385,2.835,2.835,0,0,0-2.186-.9A2.731,2.731,0,0,0,136-7.912a3.409,3.409,0,0,0-.822,2.379A3.409,3.409,0,0,0,136-3.153,2.731,2.731,0,0,0,138.123-2.245Z" transform="translate(1137 3457)" fill="#00223d"/>
      <path id="Trazado_35397" data-name="Trazado 35397" d="M19.8,0H16.586L15.565-11.7,11.634,0H9.55L5.618-11.7,4.587,0H1.364l1.3-15.522h4.6L10.57-5.779l3.352-9.743h4.6Zm4.544-12.7a1.737,1.737,0,0,1-1.268-.521,1.71,1.71,0,0,1-.526-1.262,1.69,1.69,0,0,1,.532-1.251,1.742,1.742,0,0,1,1.262-.521,1.712,1.712,0,0,1,1.246.521,1.7,1.7,0,0,1,.526,1.251,1.71,1.71,0,0,1-.526,1.262A1.712,1.712,0,0,1,24.342-12.7ZM22.763,0V-11.043h3.115V0ZM35.6-11.258a4.3,4.3,0,0,1,3.051.994,3.684,3.684,0,0,1,1.063,2.831V0h-3.1V-6.768a1.923,1.923,0,0,0-.553-1.525,2.084,2.084,0,0,0-1.423-.483,2.908,2.908,0,0,0-.924.14,2.373,2.373,0,0,0-.773.435,1.923,1.923,0,0,0-.553.833,3.85,3.85,0,0,0-.209,1.278V0H29.079V-11.043h3.094v1.225A4.255,4.255,0,0,1,35.6-11.258ZM53.1-5.683l-.032.741H44.881a2.859,2.859,0,0,0,.881,2.02,2.817,2.817,0,0,0,1.944.7A2.715,2.715,0,0,0,49.162-2.6a2.344,2.344,0,0,0,.929-1.112l2.836.419A4.821,4.821,0,0,1,50.993-.709a5.749,5.749,0,0,1-3.266.924,5.978,5.978,0,0,1-4.3-1.52,5.546,5.546,0,0,1-1.6-4.216,5.579,5.579,0,0,1,1.6-4.216,5.8,5.8,0,0,1,4.2-1.542,5.544,5.544,0,0,1,3.964,1.407A5.52,5.52,0,0,1,53.1-5.683ZM47.652-9.088a2.445,2.445,0,0,0-2.686,2.127h5.07a2.326,2.326,0,0,0-.763-1.579A2.417,2.417,0,0,0,47.652-9.088Zm10.764-.2a3.585,3.585,0,0,1,1.45-1.327,4.425,4.425,0,0,1,2.159-.553v2.761a4.183,4.183,0,0,0-2.643.666,2.908,2.908,0,0,0-.816,2.363V0H55.451V-11.043h2.965Zm6.037-3.266,2.814-3.953,1.525,1.074-2.438,2.879ZM63.841,0V-11.043h3.115V0ZM79.213-3a10.331,10.331,0,0,0,.269,2.7V0h-2.89l-.247-1.2A3.591,3.591,0,0,1,74.8-.14a5.7,5.7,0,0,1-2,.354,5.254,5.254,0,0,1-1.031-.1,3.506,3.506,0,0,1-.929-.328,2.82,2.82,0,0,1-.768-.575,2.52,2.52,0,0,1-.516-.875,3.488,3.488,0,0,1-.193-1.2,3.321,3.321,0,0,1,.2-1.2,2.807,2.807,0,0,1,.537-.9,3.258,3.258,0,0,1,.87-.655,6.658,6.658,0,0,1,1.1-.473,13.092,13.092,0,0,1,1.311-.344L75.2-6.832a2,2,0,0,0,.822-.349.7.7,0,0,0,.242-.553A1.14,1.14,0,0,0,75.716-8.8,2.533,2.533,0,0,0,74.4-9.12a1.894,1.894,0,0,0-2.159,1.687L69.5-7.928a3.708,3.708,0,0,1,1.6-2.519,6.362,6.362,0,0,1,3.47-.811q4.641,0,4.641,3.985ZM73.767-1.88a2.488,2.488,0,0,0,1.912-.8,3.372,3.372,0,0,0,.741-2.369L73.8-4.308a3.1,3.1,0,0,0-1.1.451.927.927,0,0,0-.381.795,1.029,1.029,0,0,0,.408.875A1.689,1.689,0,0,0,73.767-1.88Z" transform="translate(1137 3514)" fill="#00223d"/>
      <path id="Trazado_35398" data-name="Trazado 35398" d="M2.009,0V-15.522H5.231V0ZM15.351-11.258a4.3,4.3,0,0,1,3.051.994,3.684,3.684,0,0,1,1.063,2.831V0h-3.1V-6.768a1.924,1.924,0,0,0-.553-1.525,2.084,2.084,0,0,0-1.423-.483,2.908,2.908,0,0,0-.924.14,2.373,2.373,0,0,0-.773.435,1.923,1.923,0,0,0-.553.833,3.85,3.85,0,0,0-.209,1.278V0H8.83V-11.043h3.094v1.225A4.255,4.255,0,0,1,15.351-11.258ZM30.293-16.5h3.094V0H30.454l-.075-1.439a3.154,3.154,0,0,1-1.4,1.251,4.719,4.719,0,0,1-2.068.446,5.371,5.371,0,0,1-2.062-.4,5.12,5.12,0,0,1-1.692-1.123,5.117,5.117,0,0,1-1.144-1.821A6.717,6.717,0,0,1,21.592-5.5a6.278,6.278,0,0,1,.73-3.078,5.005,5.005,0,0,1,1.928-2,5.31,5.31,0,0,1,2.659-.677,4.837,4.837,0,0,1,2,.4,3.128,3.128,0,0,1,1.38,1.144ZM27.618-2.31a2.754,2.754,0,0,0,2.089-.881A3.225,3.225,0,0,0,30.54-5.5,3.232,3.232,0,0,0,29.7-7.815,2.751,2.751,0,0,0,27.618-8.7a2.783,2.783,0,0,0-2.1.87A3.231,3.231,0,0,0,24.686-5.5a3.216,3.216,0,0,0,.833,2.32A2.783,2.783,0,0,0,27.618-2.31ZM43.9-11.043H47V0H44.064l-.075-1.332A4.217,4.217,0,0,1,40.477.215a4.3,4.3,0,0,1-3.051-.994,3.684,3.684,0,0,1-1.063-2.831v-7.434h3.1v6.768a1.909,1.909,0,0,0,.553,1.515,2.1,2.1,0,0,0,1.434.483,2.49,2.49,0,0,0,1.756-.628A2.7,2.7,0,0,0,43.9-4.952ZM54.087.215a6.171,6.171,0,0,1-3.223-.773,3.269,3.269,0,0,1-1.579-2.3l2.589-.73a2.08,2.08,0,0,0,2.213,1.644A2.285,2.285,0,0,0,55.215-2.2a.879.879,0,0,0,.44-.854.9.9,0,0,0-.183-.569,1.446,1.446,0,0,0-.564-.408,7.026,7.026,0,0,0-.752-.29q-.371-.118-.983-.285T52.153-4.92a6.836,6.836,0,0,1-.972-.414,4.147,4.147,0,0,1-.806-.569,2.3,2.3,0,0,1-.6-.865,3.12,3.12,0,0,1-.209-1.182,2.821,2.821,0,0,1,1.2-2.471,5.352,5.352,0,0,1,3.131-.838,5.487,5.487,0,0,1,2.89.709,3.209,3.209,0,0,1,1.482,2.213l-2.4.537A1.876,1.876,0,0,0,53.9-9.2a2.153,2.153,0,0,0-1.085.247.794.794,0,0,0-.43.73.837.837,0,0,0,.064.333.659.659,0,0,0,.226.269,3.29,3.29,0,0,0,.312.2,2.35,2.35,0,0,0,.44.177q.29.091.483.14l.564.145.575.15q.591.161,1.037.322a6.071,6.071,0,0,1,.951.451,3.412,3.412,0,0,1,.833.65,2.9,2.9,0,0,1,.542.913,3.372,3.372,0,0,1,.215,1.23,3.322,3.322,0,0,1-.371,1.6,2.782,2.782,0,0,1-1.015,1.08,4.941,4.941,0,0,1-1.434.58A7.439,7.439,0,0,1,54.087.215ZM64.969,0a3.335,3.335,0,0,1-2.492-.9A3.489,3.489,0,0,1,61.6-3.448V-8.669h-2.17v-2.374h.7A1.822,1.822,0,0,0,61.5-11.5a2.378,2.378,0,0,0,.44-1.644v-1.461h2.793v3.566H67.01v2.374H64.732v4.888q0,1.429,1.278,1.429h1V0Zm7.4-9.292a3.585,3.585,0,0,1,1.45-1.327,4.425,4.425,0,0,1,2.159-.553v2.761a4.183,4.183,0,0,0-2.643.666,2.908,2.908,0,0,0-.816,2.363V0H69.405V-11.043H72.37Zm7-3.405a1.737,1.737,0,0,1-1.268-.521,1.71,1.71,0,0,1-.526-1.262,1.69,1.69,0,0,1,.532-1.251,1.742,1.742,0,0,1,1.262-.521,1.712,1.712,0,0,1,1.246.521,1.7,1.7,0,0,1,.526,1.251,1.71,1.71,0,0,1-.526,1.262A1.712,1.712,0,0,1,79.374-12.7ZM77.795,0V-11.043H80.91V0ZM93.167-3a10.331,10.331,0,0,0,.269,2.7V0h-2.89L90.3-1.2A3.591,3.591,0,0,1,88.752-.14a5.7,5.7,0,0,1-2,.354,5.254,5.254,0,0,1-1.031-.1,3.506,3.506,0,0,1-.929-.328,2.82,2.82,0,0,1-.768-.575,2.52,2.52,0,0,1-.516-.875,3.488,3.488,0,0,1-.193-1.2,3.321,3.321,0,0,1,.2-1.2,2.807,2.807,0,0,1,.537-.9,3.258,3.258,0,0,1,.87-.655,6.658,6.658,0,0,1,1.1-.473,13.092,13.092,0,0,1,1.311-.344l1.815-.408a2,2,0,0,0,.822-.349.7.7,0,0,0,.242-.553A1.14,1.14,0,0,0,89.67-8.8a2.533,2.533,0,0,0-1.316-.322A1.894,1.894,0,0,0,86.2-7.434l-2.739-.494a3.708,3.708,0,0,1,1.6-2.519,6.362,6.362,0,0,1,3.47-.811q4.641,0,4.641,3.985ZM87.721-1.88a2.488,2.488,0,0,0,1.912-.8,3.372,3.372,0,0,0,.741-2.369l-2.621.741a3.1,3.1,0,0,0-1.1.451.927.927,0,0,0-.381.795,1.029,1.029,0,0,0,.408.875A1.689,1.689,0,0,0,87.721-1.88Zm27.253-9.378a4.219,4.219,0,0,1,2.847.9,3.209,3.209,0,0,1,1.042,2.573V0h-3.094V-6.907a1.845,1.845,0,0,0-.494-1.4,1.731,1.731,0,0,0-1.246-.473,2,2,0,0,0-1.5.6,2.732,2.732,0,0,0-.58,1.944V0h-3.126V-6.875a1.894,1.894,0,0,0-.494-1.423,1.762,1.762,0,0,0-1.278-.478,1.932,1.932,0,0,0-1.493.634,3.027,3.027,0,0,0-.58,2.073V0H101.89V-11.043h3.083v1.3a3.755,3.755,0,0,1,3.2-1.515,4.722,4.722,0,0,1,2.079.424,2.829,2.829,0,0,1,1.305,1.23A3.9,3.9,0,0,1,114.974-11.258ZM130.926-3a10.331,10.331,0,0,0,.269,2.7V0H128.3l-.247-1.2A3.591,3.591,0,0,1,126.511-.14a5.7,5.7,0,0,1-2,.354,5.254,5.254,0,0,1-1.031-.1,3.506,3.506,0,0,1-.929-.328,2.82,2.82,0,0,1-.768-.575,2.52,2.52,0,0,1-.516-.875,3.488,3.488,0,0,1-.193-1.2,3.321,3.321,0,0,1,.2-1.2,2.807,2.807,0,0,1,.537-.9,3.258,3.258,0,0,1,.87-.655,6.658,6.658,0,0,1,1.1-.473,13.092,13.092,0,0,1,1.311-.344l1.815-.408a2,2,0,0,0,.822-.349.7.7,0,0,0,.242-.553,1.14,1.14,0,0,0-.542-1.063,2.533,2.533,0,0,0-1.316-.322,1.894,1.894,0,0,0-2.159,1.687l-2.739-.494a3.708,3.708,0,0,1,1.6-2.519,6.362,6.362,0,0,1,3.47-.811q4.641,0,4.641,3.985ZM125.479-1.88a2.488,2.488,0,0,0,1.912-.8,3.372,3.372,0,0,0,.741-2.369l-2.621.741a3.1,3.1,0,0,0-1.1.451.927.927,0,0,0-.381.795,1.029,1.029,0,0,0,.408.875A1.689,1.689,0,0,0,125.479-1.88Zm14.975-9.378a4.3,4.3,0,0,1,3.051.994,3.684,3.684,0,0,1,1.063,2.831V0h-3.1V-6.768a1.923,1.923,0,0,0-.553-1.525,2.084,2.084,0,0,0-1.423-.483,2.908,2.908,0,0,0-.924.14,2.373,2.373,0,0,0-.773.435,1.923,1.923,0,0,0-.553.833,3.85,3.85,0,0,0-.209,1.278V0h-3.094V-11.043h3.094v1.225A4.255,4.255,0,0,1,140.454-11.258Zm14.427.215h3.094V0h-2.933l-.075-1.332A4.217,4.217,0,0,1,151.454.215,4.3,4.3,0,0,1,148.4-.779a3.684,3.684,0,0,1-1.063-2.831v-7.434h3.1v6.768A1.909,1.909,0,0,0,151-2.761a2.1,2.1,0,0,0,1.434.483,2.49,2.49,0,0,0,1.756-.628,2.7,2.7,0,0,0,.693-2.046Zm12.525-2.986h-.064q-.3,0-.457.005t-.44.038a1.783,1.783,0,0,0-.446.1,2.272,2.272,0,0,0-.371.2.989.989,0,0,0-.322.322,1.947,1.947,0,0,0-.193.478,2.5,2.5,0,0,0-.081.666v1.182h2.374v2.374h-2.374V0h-3.083V-8.669H159.79v-2.374h2.159v-1.192a6.458,6.458,0,0,1,.14-1.407,4.282,4.282,0,0,1,.376-1.069,2.5,2.5,0,0,1,.628-.768A3.708,3.708,0,0,1,163.91-16a4.665,4.665,0,0,1,1.015-.312,8.9,8.9,0,0,1,1.166-.156q.575-.038,1.316-.038ZM178.17-3a10.331,10.331,0,0,0,.269,2.7V0h-2.89L175.3-1.2A3.591,3.591,0,0,1,173.755-.14a5.7,5.7,0,0,1-2,.354,5.254,5.254,0,0,1-1.031-.1,3.506,3.506,0,0,1-.929-.328,2.82,2.82,0,0,1-.768-.575,2.52,2.52,0,0,1-.516-.875,3.488,3.488,0,0,1-.193-1.2,3.322,3.322,0,0,1,.2-1.2,2.807,2.807,0,0,1,.537-.9,3.258,3.258,0,0,1,.87-.655,6.658,6.658,0,0,1,1.1-.473,13.092,13.092,0,0,1,1.311-.344l1.815-.408a2,2,0,0,0,.822-.349.7.7,0,0,0,.242-.553,1.14,1.14,0,0,0-.542-1.063,2.533,2.533,0,0,0-1.316-.322A1.894,1.894,0,0,0,171.2-7.434l-2.739-.494a3.708,3.708,0,0,1,1.6-2.519,6.362,6.362,0,0,1,3.47-.811q4.641,0,4.641,3.985ZM172.724-1.88a2.488,2.488,0,0,0,1.912-.8,3.372,3.372,0,0,0,.741-2.369l-2.621.741a3.1,3.1,0,0,0-1.1.451.927.927,0,0,0-.381.795,1.029,1.029,0,0,0,.408.875A1.689,1.689,0,0,0,172.724-1.88ZM185.926.2a5.9,5.9,0,0,1-4.265-1.59,5.491,5.491,0,0,1-1.654-4.146,5.479,5.479,0,0,1,1.649-4.146,5.918,5.918,0,0,1,4.27-1.579,5.884,5.884,0,0,1,3.577,1.063,4.748,4.748,0,0,1,1.848,3l-2.857.312a2.448,2.448,0,0,0-.924-1.45,2.809,2.809,0,0,0-1.676-.483,2.533,2.533,0,0,0-2.02.9,3.538,3.538,0,0,0-.773,2.385,3.542,3.542,0,0,0,.773,2.379,2.526,2.526,0,0,0,2.02.908,2.785,2.785,0,0,0,1.67-.483,2.505,2.505,0,0,0,.929-1.45l2.857.312a4.761,4.761,0,0,1-1.864,3A5.86,5.86,0,0,1,185.926.2ZM197.667,0a3.335,3.335,0,0,1-2.492-.9,3.489,3.489,0,0,1-.881-2.551V-8.669h-2.17v-2.374h.7A1.822,1.822,0,0,0,194.2-11.5a2.378,2.378,0,0,0,.44-1.644v-1.461h2.793v3.566h2.277v2.374h-2.277v4.888q0,1.429,1.278,1.429h1V0Zm11.752-11.043h3.094V0H209.58L209.5-1.332A4.217,4.217,0,0,1,205.992.215a4.3,4.3,0,0,1-3.051-.994,3.684,3.684,0,0,1-1.063-2.831v-7.434h3.1v6.768a1.909,1.909,0,0,0,.553,1.515,2.1,2.1,0,0,0,1.434.483,2.49,2.49,0,0,0,1.756-.628,2.7,2.7,0,0,0,.693-2.046Zm9.26,1.751a3.585,3.585,0,0,1,1.45-1.327,4.425,4.425,0,0,1,2.159-.553v2.761a4.183,4.183,0,0,0-2.643.666,2.908,2.908,0,0,0-.816,2.363V0h-3.115V-11.043h2.965Zm15.748,3.609-.032.741h-8.186a2.859,2.859,0,0,0,.881,2.02,2.817,2.817,0,0,0,1.944.7A2.715,2.715,0,0,0,230.49-2.6a2.344,2.344,0,0,0,.929-1.112l2.836.419a4.821,4.821,0,0,1-1.934,2.589,5.749,5.749,0,0,1-3.266.924,5.978,5.978,0,0,1-4.3-1.52,5.546,5.546,0,0,1-1.6-4.216,5.579,5.579,0,0,1,1.6-4.216,5.8,5.8,0,0,1,4.2-1.542,5.543,5.543,0,0,1,3.964,1.407A5.52,5.52,0,0,1,234.427-5.683ZM228.98-9.088a2.445,2.445,0,0,0-2.686,2.127h5.07A2.326,2.326,0,0,0,230.6-8.54,2.417,2.417,0,0,0,228.98-9.088Zm10.764-.2a3.585,3.585,0,0,1,1.45-1.327,4.425,4.425,0,0,1,2.159-.553v2.761a4.183,4.183,0,0,0-2.643.666,2.908,2.908,0,0,0-.816,2.363V0h-3.115V-11.043h2.965ZM254.16-3a10.331,10.331,0,0,0,.269,2.7V0h-2.89l-.247-1.2A3.591,3.591,0,0,1,249.745-.14a5.7,5.7,0,0,1-2,.354,5.254,5.254,0,0,1-1.031-.1,3.506,3.506,0,0,1-.929-.328,2.82,2.82,0,0,1-.768-.575,2.52,2.52,0,0,1-.516-.875,3.488,3.488,0,0,1-.193-1.2,3.322,3.322,0,0,1,.2-1.2,2.807,2.807,0,0,1,.537-.9,3.258,3.258,0,0,1,.87-.655,6.658,6.658,0,0,1,1.1-.473,13.092,13.092,0,0,1,1.311-.344l1.815-.408a2,2,0,0,0,.822-.349.7.7,0,0,0,.242-.553,1.14,1.14,0,0,0-.542-1.063,2.533,2.533,0,0,0-1.316-.322,1.894,1.894,0,0,0-2.159,1.687l-2.739-.494a3.708,3.708,0,0,1,1.6-2.519,6.362,6.362,0,0,1,3.47-.811q4.641,0,4.641,3.985ZM248.714-1.88a2.488,2.488,0,0,0,1.912-.8,3.372,3.372,0,0,0,.741-2.369l-2.621.741a3.1,3.1,0,0,0-1.1.451.927.927,0,0,0-.381.795,1.029,1.029,0,0,0,.408.875A1.689,1.689,0,0,0,248.714-1.88Z" transform="translate(1137 3565)" fill="#00223d"/>
      <path id="Trazado_35399" data-name="Trazado 35399" d="M11.011-12.687H5.253v3.523h5.1v2.8h-5.1v3.513h5.758V0h-9V-15.522h9ZM13.922,0V-16.5h3.126V0ZM30.637-5.683l-.032.741H22.419a2.859,2.859,0,0,0,.881,2.02,2.817,2.817,0,0,0,1.944.7A2.715,2.715,0,0,0,26.7-2.6a2.344,2.344,0,0,0,.929-1.112l2.836.419A4.821,4.821,0,0,1,28.531-.709a5.749,5.749,0,0,1-3.266.924,5.978,5.978,0,0,1-4.3-1.52,5.546,5.546,0,0,1-1.6-4.216,5.579,5.579,0,0,1,1.6-4.216,5.8,5.8,0,0,1,4.2-1.542,5.544,5.544,0,0,1,3.964,1.407A5.52,5.52,0,0,1,30.637-5.683ZM25.19-9.088A2.445,2.445,0,0,0,22.5-6.961h5.07a2.326,2.326,0,0,0-.763-1.579A2.417,2.417,0,0,0,25.19-9.088ZM37.984.2a5.9,5.9,0,0,1-4.265-1.59,5.491,5.491,0,0,1-1.654-4.146,5.479,5.479,0,0,1,1.649-4.146,5.918,5.918,0,0,1,4.27-1.579,5.884,5.884,0,0,1,3.577,1.063,4.748,4.748,0,0,1,1.848,3l-2.857.312a2.448,2.448,0,0,0-.924-1.45,2.809,2.809,0,0,0-1.676-.483,2.533,2.533,0,0,0-2.02.9,3.538,3.538,0,0,0-.773,2.385,3.542,3.542,0,0,0,.773,2.379,2.526,2.526,0,0,0,2.02.908,2.785,2.785,0,0,0,1.67-.483,2.505,2.505,0,0,0,.929-1.45l2.857.312a4.761,4.761,0,0,1-1.864,3A5.86,5.86,0,0,1,37.984.2ZM49.726,0a3.335,3.335,0,0,1-2.492-.9,3.489,3.489,0,0,1-.881-2.551V-8.669h-2.17v-2.374h.7a1.822,1.822,0,0,0,1.375-.462,2.378,2.378,0,0,0,.44-1.644v-1.461h2.793v3.566h2.277v2.374H49.489v4.888q0,1.429,1.278,1.429h1V0Zm7.4-9.292a3.585,3.585,0,0,1,1.45-1.327,4.425,4.425,0,0,1,2.159-.553v2.761a4.183,4.183,0,0,0-2.643.666,2.908,2.908,0,0,0-.816,2.363V0H54.162V-11.043h2.965Zm7-3.405a1.737,1.737,0,0,1-1.268-.521,1.71,1.71,0,0,1-.526-1.262,1.69,1.69,0,0,1,.532-1.251,1.742,1.742,0,0,1,1.262-.521,1.712,1.712,0,0,1,1.246.521A1.7,1.7,0,0,1,65.9-14.48a1.71,1.71,0,0,1-.526,1.262A1.712,1.712,0,0,1,64.131-12.7ZM62.552,0V-11.043h3.115V0ZM73.863.2A5.9,5.9,0,0,1,69.6-1.386a5.491,5.491,0,0,1-1.654-4.146,5.479,5.479,0,0,1,1.649-4.146,5.918,5.918,0,0,1,4.27-1.579,5.884,5.884,0,0,1,3.577,1.063,4.748,4.748,0,0,1,1.848,3l-2.857.312a2.448,2.448,0,0,0-.924-1.45,2.809,2.809,0,0,0-1.676-.483,2.533,2.533,0,0,0-2.02.9,3.538,3.538,0,0,0-.773,2.385,3.542,3.542,0,0,0,.773,2.379,2.526,2.526,0,0,0,2.02.908,2.785,2.785,0,0,0,1.67-.483,2.505,2.505,0,0,0,.929-1.45l2.857.312a4.761,4.761,0,0,1-1.864,3A5.86,5.86,0,0,1,73.863.2Zm9.206-12.9a1.737,1.737,0,0,1-1.268-.521,1.71,1.71,0,0,1-.526-1.262,1.69,1.69,0,0,1,.532-1.251,1.742,1.742,0,0,1,1.262-.521,1.712,1.712,0,0,1,1.246.521,1.7,1.7,0,0,1,.526,1.251,1.71,1.71,0,0,1-.526,1.262A1.712,1.712,0,0,1,83.069-12.7ZM81.49,0V-11.043h3.115V0ZM95.638-16.5h3.094V0H95.8l-.075-1.439a3.154,3.154,0,0,1-1.4,1.251,4.719,4.719,0,0,1-2.068.446,5.371,5.371,0,0,1-2.062-.4A5.12,5.12,0,0,1,88.5-1.262a5.117,5.117,0,0,1-1.144-1.821A6.717,6.717,0,0,1,86.937-5.5a6.278,6.278,0,0,1,.73-3.078,5.005,5.005,0,0,1,1.928-2,5.31,5.31,0,0,1,2.659-.677,4.837,4.837,0,0,1,2,.4,3.128,3.128,0,0,1,1.38,1.144ZM92.963-2.31a2.754,2.754,0,0,0,2.089-.881,3.225,3.225,0,0,0,.833-2.31,3.232,3.232,0,0,0-.838-2.315A2.751,2.751,0,0,0,92.963-8.7a2.783,2.783,0,0,0-2.1.87A3.231,3.231,0,0,0,90.03-5.5a3.216,3.216,0,0,0,.833,2.32A2.783,2.783,0,0,0,92.963-2.31ZM110.988-3a10.331,10.331,0,0,0,.269,2.7V0h-2.89l-.247-1.2A3.591,3.591,0,0,1,106.573-.14a5.7,5.7,0,0,1-2,.354,5.254,5.254,0,0,1-1.031-.1,3.506,3.506,0,0,1-.929-.328,2.82,2.82,0,0,1-.768-.575,2.52,2.52,0,0,1-.516-.875,3.488,3.488,0,0,1-.193-1.2,3.321,3.321,0,0,1,.2-1.2,2.807,2.807,0,0,1,.537-.9,3.258,3.258,0,0,1,.87-.655,6.658,6.658,0,0,1,1.1-.473,13.092,13.092,0,0,1,1.311-.344l1.815-.408a2,2,0,0,0,.822-.349.7.7,0,0,0,.242-.553,1.14,1.14,0,0,0-.542-1.063,2.533,2.533,0,0,0-1.316-.322,1.894,1.894,0,0,0-2.159,1.687l-2.739-.494a3.708,3.708,0,0,1,1.6-2.519,6.362,6.362,0,0,1,3.47-.811q4.641,0,4.641,3.985ZM105.542-1.88a2.488,2.488,0,0,0,1.912-.8,3.372,3.372,0,0,0,.741-2.369l-2.621.741a3.1,3.1,0,0,0-1.1.451.927.927,0,0,0-.381.795,1.029,1.029,0,0,0,.408.875A1.689,1.689,0,0,0,105.542-1.88ZM121.58-16.5h3.094V0h-2.933l-.075-1.439a3.154,3.154,0,0,1-1.4,1.251A4.719,4.719,0,0,1,118.2.258a5.371,5.371,0,0,1-2.062-.4,5.12,5.12,0,0,1-1.692-1.123A5.117,5.117,0,0,1,113.3-3.083a6.717,6.717,0,0,1-.419-2.417,6.278,6.278,0,0,1,.73-3.078,5.005,5.005,0,0,1,1.928-2,5.31,5.31,0,0,1,2.659-.677,4.837,4.837,0,0,1,2,.4,3.128,3.128,0,0,1,1.38,1.144ZM118.905-2.31a2.754,2.754,0,0,0,2.089-.881,3.225,3.225,0,0,0,.833-2.31,3.232,3.232,0,0,0-.838-2.315,2.751,2.751,0,0,0-2.084-.886,2.783,2.783,0,0,0-2.1.87,3.231,3.231,0,0,0-.833,2.331,3.216,3.216,0,0,0,.833,2.32A2.783,2.783,0,0,0,118.905-2.31Zm11.14,6.263h-2.213l1.343-7.025h3.18Zm18.369-15h2.943V-.827a8.261,8.261,0,0,1-.414,2.75,4.535,4.535,0,0,1-1.2,1.885,4.992,4.992,0,0,1-1.837,1.058,7.744,7.744,0,0,1-2.406.344q-4.372,0-5.693-3.427l2.567-1.1a3.746,3.746,0,0,0,1.192,1.6,3.039,3.039,0,0,0,1.815.516q2.868,0,2.868-3.405V-1.891A3.479,3.479,0,0,1,146.862-.8a4.625,4.625,0,0,1-1.96.414,4.887,4.887,0,0,1-1.939-.392,4.925,4.925,0,0,1-1.606-1.1,5.1,5.1,0,0,1-1.09-1.735,6.087,6.087,0,0,1-.4-2.234,6.075,6.075,0,0,1,.4-2.24,4.9,4.9,0,0,1,1.1-1.713,5.042,5.042,0,0,1,1.611-1.074,4.973,4.973,0,0,1,1.95-.387,4.491,4.491,0,0,1,2.046.457,3.264,3.264,0,0,1,1.37,1.219Zm-4.748,7.3a2.725,2.725,0,0,0,2.03.849,2.708,2.708,0,0,0,2.03-.859,2.908,2.908,0,0,0,.827-2.095,2.932,2.932,0,0,0-.822-2.105,2.7,2.7,0,0,0-2.036-.859,2.706,2.706,0,0,0-2.036.843,2.938,2.938,0,0,0-.811,2.122A2.918,2.918,0,0,0,143.666-3.738ZM163.625-3a10.331,10.331,0,0,0,.269,2.7V0H161l-.247-1.2A3.591,3.591,0,0,1,159.21-.14a5.7,5.7,0,0,1-2,.354,5.254,5.254,0,0,1-1.031-.1,3.506,3.506,0,0,1-.929-.328,2.82,2.82,0,0,1-.768-.575,2.52,2.52,0,0,1-.516-.875,3.488,3.488,0,0,1-.193-1.2,3.322,3.322,0,0,1,.2-1.2,2.807,2.807,0,0,1,.537-.9,3.258,3.258,0,0,1,.87-.655,6.658,6.658,0,0,1,1.1-.473,13.092,13.092,0,0,1,1.311-.344l1.815-.408a2,2,0,0,0,.822-.349.7.7,0,0,0,.242-.553,1.14,1.14,0,0,0-.542-1.063,2.533,2.533,0,0,0-1.316-.322,1.894,1.894,0,0,0-2.159,1.687l-2.739-.494a3.708,3.708,0,0,1,1.6-2.519,6.362,6.362,0,0,1,3.47-.811q4.641,0,4.641,3.985ZM158.179-1.88a2.488,2.488,0,0,0,1.912-.8,3.372,3.372,0,0,0,.741-2.369l-2.621.741a3.1,3.1,0,0,0-1.1.451.927.927,0,0,0-.381.795,1.029,1.029,0,0,0,.408.875A1.689,1.689,0,0,0,158.179-1.88ZM170.521.215A6.171,6.171,0,0,1,167.3-.559a3.269,3.269,0,0,1-1.579-2.3l2.589-.73a2.08,2.08,0,0,0,2.213,1.644,2.285,2.285,0,0,0,1.128-.252.879.879,0,0,0,.44-.854.9.9,0,0,0-.183-.569,1.446,1.446,0,0,0-.564-.408,7.026,7.026,0,0,0-.752-.29q-.371-.118-.983-.285t-1.021-.317a6.836,6.836,0,0,1-.972-.414,4.147,4.147,0,0,1-.806-.569,2.3,2.3,0,0,1-.6-.865A3.12,3.12,0,0,1,166-7.949a2.821,2.821,0,0,1,1.2-2.471,5.352,5.352,0,0,1,3.131-.838,5.487,5.487,0,0,1,2.89.709A3.209,3.209,0,0,1,174.7-8.336l-2.4.537a1.876,1.876,0,0,0-1.966-1.4,2.153,2.153,0,0,0-1.085.247.794.794,0,0,0-.43.73.837.837,0,0,0,.064.333.659.659,0,0,0,.226.269,3.289,3.289,0,0,0,.312.2,2.35,2.35,0,0,0,.44.177q.29.091.483.14l.564.145.575.15q.591.161,1.037.322a6.072,6.072,0,0,1,.951.451,3.412,3.412,0,0,1,.833.65,2.9,2.9,0,0,1,.542.913,3.372,3.372,0,0,1,.215,1.23,3.322,3.322,0,0,1-.371,1.6,2.782,2.782,0,0,1-1.015,1.08,4.941,4.941,0,0,1-1.434.58A7.439,7.439,0,0,1,170.521.215Zm19.712-11.258H193.4L186.592,5.2h-3.137l2.524-5.65-4.544-10.592h3.373l2.632,7.262ZM209.806-3a10.331,10.331,0,0,0,.269,2.7V0h-2.89l-.247-1.2A3.591,3.591,0,0,1,205.391-.14a5.7,5.7,0,0,1-2,.354,5.254,5.254,0,0,1-1.031-.1,3.506,3.506,0,0,1-.929-.328,2.82,2.82,0,0,1-.768-.575,2.52,2.52,0,0,1-.516-.875,3.488,3.488,0,0,1-.193-1.2,3.322,3.322,0,0,1,.2-1.2,2.807,2.807,0,0,1,.537-.9,3.258,3.258,0,0,1,.87-.655,6.658,6.658,0,0,1,1.1-.473,13.092,13.092,0,0,1,1.311-.344l1.815-.408a2,2,0,0,0,.822-.349.7.7,0,0,0,.242-.553,1.14,1.14,0,0,0-.542-1.063,2.533,2.533,0,0,0-1.316-.322,1.894,1.894,0,0,0-2.159,1.687l-2.739-.494a3.708,3.708,0,0,1,1.6-2.519,6.362,6.362,0,0,1,3.47-.811q4.641,0,4.641,3.985ZM204.359-1.88a2.488,2.488,0,0,0,1.912-.8,3.372,3.372,0,0,0,.741-2.369l-2.621.741a3.1,3.1,0,0,0-1.1.451.927.927,0,0,0-.381.795,1.029,1.029,0,0,0,.408.875A1.689,1.689,0,0,0,204.359-1.88Zm15.813-9.163h2.943V-.827a8.261,8.261,0,0,1-.414,2.75,4.535,4.535,0,0,1-1.2,1.885,4.992,4.992,0,0,1-1.837,1.058,7.744,7.744,0,0,1-2.406.344q-4.372,0-5.693-3.427l2.567-1.1a3.746,3.746,0,0,0,1.192,1.6,3.039,3.039,0,0,0,1.815.516q2.868,0,2.868-3.405V-1.891A3.479,3.479,0,0,1,218.62-.8a4.625,4.625,0,0,1-1.96.414,4.887,4.887,0,0,1-1.939-.392,4.925,4.925,0,0,1-1.606-1.1,5.1,5.1,0,0,1-1.09-1.735,6.087,6.087,0,0,1-.4-2.234,6.075,6.075,0,0,1,.4-2.24,4.9,4.9,0,0,1,1.1-1.713,5.042,5.042,0,0,1,1.611-1.074,4.973,4.973,0,0,1,1.95-.387,4.491,4.491,0,0,1,2.046.457,3.264,3.264,0,0,1,1.37,1.219Zm-4.748,7.3a2.725,2.725,0,0,0,2.03.849,2.708,2.708,0,0,0,2.03-.859,2.908,2.908,0,0,0,.827-2.095,2.932,2.932,0,0,0-.822-2.105,2.7,2.7,0,0,0-2.036-.859,2.706,2.706,0,0,0-2.036.843,2.938,2.938,0,0,0-.811,2.122A2.918,2.918,0,0,0,215.424-3.738Zm18.219-7.3h3.094V0H233.8l-.075-1.332A4.217,4.217,0,0,1,230.216.215a4.3,4.3,0,0,1-3.051-.994A3.684,3.684,0,0,1,226.1-3.609v-7.434h3.1v6.768a1.909,1.909,0,0,0,.553,1.515,2.1,2.1,0,0,0,1.434.483,2.49,2.49,0,0,0,1.756-.628,2.7,2.7,0,0,0,.693-2.046ZM248.993-3a10.331,10.331,0,0,0,.269,2.7V0h-2.89l-.247-1.2A3.591,3.591,0,0,1,244.578-.14a5.7,5.7,0,0,1-2,.354,5.254,5.254,0,0,1-1.031-.1,3.506,3.506,0,0,1-.929-.328,2.82,2.82,0,0,1-.768-.575,2.52,2.52,0,0,1-.516-.875,3.488,3.488,0,0,1-.193-1.2,3.322,3.322,0,0,1,.2-1.2,2.807,2.807,0,0,1,.537-.9,3.258,3.258,0,0,1,.87-.655,6.658,6.658,0,0,1,1.1-.473,13.092,13.092,0,0,1,1.311-.344l1.815-.408a2,2,0,0,0,.822-.349.7.7,0,0,0,.242-.553A1.14,1.14,0,0,0,245.5-8.8a2.533,2.533,0,0,0-1.316-.322,1.894,1.894,0,0,0-2.159,1.687l-2.739-.494a3.708,3.708,0,0,1,1.6-2.519,6.362,6.362,0,0,1,3.47-.811q4.641,0,4.641,3.985ZM243.547-1.88a2.488,2.488,0,0,0,1.912-.8,3.372,3.372,0,0,0,.741-2.369l-2.621.741a3.1,3.1,0,0,0-1.1.451.927.927,0,0,0-.381.795,1.029,1.029,0,0,0,.408.875A1.689,1.689,0,0,0,243.547-1.88Z" transform="translate(1137 3614)" fill="#00223d"/>
      <path id="Trazado_35402" data-name="Trazado 35402" d="M8.884.215A8.664,8.664,0,0,1,5.72-.354,7.439,7.439,0,0,1,3.2-1.944,7.167,7.167,0,0,1,1.547-4.469a8.8,8.8,0,0,1-.6-3.3,8.408,8.408,0,0,1,1.031-4.216,7.021,7.021,0,0,1,2.831-2.788,8.476,8.476,0,0,1,4.077-.967,8.237,8.237,0,0,1,4.555,1.257,6.88,6.88,0,0,1,2.782,3.459l-3.008,1.1a4.252,4.252,0,0,0-1.665-2.095,4.756,4.756,0,0,0-2.664-.752,4.559,4.559,0,0,0-3.395,1.354A4.98,4.98,0,0,0,4.157-7.767,4.988,4.988,0,0,0,5.495-4.109,4.554,4.554,0,0,0,8.884-2.75a4.738,4.738,0,0,0,2.659-.757,4.271,4.271,0,0,0,1.67-2.1l3.008,1.1a6.908,6.908,0,0,1-2.782,3.464A8.211,8.211,0,0,1,8.884.215ZM23.6.215a6.944,6.944,0,0,1-3.126-.677,5.058,5.058,0,0,1-2.143-1.987,5.922,5.922,0,0,1-.779-3.083,5.4,5.4,0,0,1,1.676-4.189A6.217,6.217,0,0,1,23.6-11.258a6.232,6.232,0,0,1,4.383,1.536,5.4,5.4,0,0,1,1.676,4.189,5.432,5.432,0,0,1-1.676,4.206A6.219,6.219,0,0,1,23.6.215Zm-.032-2.46a2.835,2.835,0,0,0,2.186-.9,3.378,3.378,0,0,0,.833-2.385,3.378,3.378,0,0,0-.833-2.385,2.835,2.835,0,0,0-2.186-.9,2.731,2.731,0,0,0-2.122.908,3.409,3.409,0,0,0-.822,2.379,3.409,3.409,0,0,0,.822,2.379A2.731,2.731,0,0,0,23.568-2.245Zm14.91-9.013a4.3,4.3,0,0,1,3.051.994,3.684,3.684,0,0,1,1.063,2.831V0h-3.1V-6.768a1.923,1.923,0,0,0-.553-1.525,2.084,2.084,0,0,0-1.423-.483,2.908,2.908,0,0,0-.924.14,2.373,2.373,0,0,0-.773.435,1.923,1.923,0,0,0-.553.833,3.85,3.85,0,0,0-.209,1.278V0H31.958V-11.043h3.094v1.225A4.255,4.255,0,0,1,38.479-11.258Zm11,11.473a6.171,6.171,0,0,1-3.223-.773,3.269,3.269,0,0,1-1.579-2.3l2.589-.73a2.08,2.08,0,0,0,2.213,1.644A2.285,2.285,0,0,0,50.606-2.2a.879.879,0,0,0,.44-.854.9.9,0,0,0-.183-.569,1.446,1.446,0,0,0-.564-.408,7.026,7.026,0,0,0-.752-.29q-.371-.118-.983-.285T47.545-4.92a6.836,6.836,0,0,1-.972-.414,4.147,4.147,0,0,1-.806-.569,2.3,2.3,0,0,1-.6-.865,3.12,3.12,0,0,1-.209-1.182,2.821,2.821,0,0,1,1.2-2.471,5.352,5.352,0,0,1,3.131-.838,5.487,5.487,0,0,1,2.89.709,3.209,3.209,0,0,1,1.482,2.213l-2.4.537A1.876,1.876,0,0,0,49.3-9.2a2.153,2.153,0,0,0-1.085.247.794.794,0,0,0-.43.73.837.837,0,0,0,.064.333.659.659,0,0,0,.226.269,3.29,3.29,0,0,0,.312.2,2.35,2.35,0,0,0,.44.177q.29.091.483.14l.564.145.575.15q.591.161,1.037.322a6.071,6.071,0,0,1,.951.451,3.412,3.412,0,0,1,.833.65,2.9,2.9,0,0,1,.542.913,3.372,3.372,0,0,1,.215,1.23,3.322,3.322,0,0,1-.371,1.6,2.782,2.782,0,0,1-1.015,1.08A4.941,4.941,0,0,1,51.2.027,7.439,7.439,0,0,1,49.479.215ZM60.36,0a3.335,3.335,0,0,1-2.492-.9,3.489,3.489,0,0,1-.881-2.551V-8.669h-2.17v-2.374h.7a1.822,1.822,0,0,0,1.375-.462,2.378,2.378,0,0,0,.44-1.644v-1.461h2.793v3.566H62.4v2.374H60.124v4.888q0,1.429,1.278,1.429h1V0Zm7.4-9.292a3.585,3.585,0,0,1,1.45-1.327,4.425,4.425,0,0,1,2.159-.553v2.761a4.183,4.183,0,0,0-2.643.666,2.908,2.908,0,0,0-.816,2.363V0H64.8V-11.043h2.965ZM80.5-11.043H83.6V0H80.663l-.075-1.332A4.217,4.217,0,0,1,77.075.215a4.3,4.3,0,0,1-3.051-.994,3.684,3.684,0,0,1-1.063-2.831v-7.434h3.1v6.768a1.909,1.909,0,0,0,.553,1.515,2.1,2.1,0,0,0,1.434.483,2.49,2.49,0,0,0,1.756-.628A2.7,2.7,0,0,0,80.5-4.952ZM91.792.2a5.9,5.9,0,0,1-4.265-1.59,5.491,5.491,0,0,1-1.654-4.146,5.479,5.479,0,0,1,1.649-4.146,5.918,5.918,0,0,1,4.27-1.579,5.884,5.884,0,0,1,3.577,1.063,4.748,4.748,0,0,1,1.848,3l-2.857.312a2.448,2.448,0,0,0-.924-1.45,2.809,2.809,0,0,0-1.676-.483,2.533,2.533,0,0,0-2.02.9,3.538,3.538,0,0,0-.773,2.385,3.542,3.542,0,0,0,.773,2.379,2.526,2.526,0,0,0,2.02.908,2.785,2.785,0,0,0,1.67-.483,2.505,2.505,0,0,0,.929-1.45l2.857.312a4.761,4.761,0,0,1-1.864,3A5.86,5.86,0,0,1,91.792.2Zm12.622,0a5.9,5.9,0,0,1-4.265-1.59A5.491,5.491,0,0,1,98.5-5.532a5.479,5.479,0,0,1,1.649-4.146,5.918,5.918,0,0,1,4.27-1.579,5.884,5.884,0,0,1,3.577,1.063,4.748,4.748,0,0,1,1.848,3l-2.857.312a2.448,2.448,0,0,0-.924-1.45,2.809,2.809,0,0,0-1.676-.483,2.533,2.533,0,0,0-2.02.9,3.538,3.538,0,0,0-.773,2.385,3.542,3.542,0,0,0,.773,2.379,2.526,2.526,0,0,0,2.02.908,2.785,2.785,0,0,0,1.67-.483,2.505,2.505,0,0,0,.929-1.45l2.857.312a4.761,4.761,0,0,1-1.864,3A5.86,5.86,0,0,1,104.414.2Zm9.206-12.9a1.737,1.737,0,0,1-1.268-.521,1.71,1.71,0,0,1-.526-1.262,1.69,1.69,0,0,1,.532-1.251,1.742,1.742,0,0,1,1.262-.521,1.712,1.712,0,0,1,1.246.521,1.7,1.7,0,0,1,.526,1.251,1.71,1.71,0,0,1-.526,1.262A1.712,1.712,0,0,1,113.62-12.7ZM112.041,0V-11.043h3.115V0Zm10.506-12.547,2.814-3.953,1.525,1.074-2.438,2.879ZM123.5.215a6.944,6.944,0,0,1-3.126-.677,5.058,5.058,0,0,1-2.143-1.987,5.922,5.922,0,0,1-.779-3.083,5.4,5.4,0,0,1,1.676-4.189,6.217,6.217,0,0,1,4.372-1.536,6.232,6.232,0,0,1,4.383,1.536,5.4,5.4,0,0,1,1.676,4.189,5.432,5.432,0,0,1-1.676,4.206A6.219,6.219,0,0,1,123.5.215Zm-.032-2.46a2.835,2.835,0,0,0,2.186-.9,3.378,3.378,0,0,0,.833-2.385,3.378,3.378,0,0,0-.833-2.385,2.835,2.835,0,0,0-2.186-.9,2.731,2.731,0,0,0-2.122.908,3.409,3.409,0,0,0-.822,2.379,3.409,3.409,0,0,0,.822,2.379A2.731,2.731,0,0,0,123.471-2.245Zm14.91-9.013a4.3,4.3,0,0,1,3.051.994A3.684,3.684,0,0,1,142.5-7.434V0h-3.1V-6.768a1.923,1.923,0,0,0-.553-1.525,2.084,2.084,0,0,0-1.423-.483,2.908,2.908,0,0,0-.924.14,2.373,2.373,0,0,0-.773.435,1.923,1.923,0,0,0-.553.833,3.85,3.85,0,0,0-.209,1.278V0H131.86V-11.043h3.094v1.225A4.255,4.255,0,0,1,138.381-11.258Z" transform="translate(1137 3672)" fill="#00223d"/>
    </g>
  </g>
</svg>
