<svg xmlns="http://www.w3.org/2000/svg" width="361.109" height="454.747" viewBox="0 0 361.109 454.747">
  <g id="Grupo_18934" data-name="Grupo 18934" transform="translate(-741.025 -6016)">
    <g id="Grupo_18710" data-name="Grupo 18710" transform="translate(741.025 6016)">
      <path id="Trazado_34559" data-name="Trazado 34559" d="M366.007,640.274a.3.3,0,0,1-.172.193.6.6,0,0,1-.378.062,1.164,1.164,0,0,1-.536-.337c-.11-.1-.234-.241-.186-.385a1.491,1.491,0,0,0,.193-.028c.268-.041.805-.021.97.186a.386.386,0,0,1,.11.309" transform="translate(-113.921 -199.829)" fill="#d8d8d8"/>
      <path id="Trazado_34560" data-name="Trazado 34560" d="M366.007,640.274a.3.3,0,0,1-.172.193.6.6,0,0,1-.378.062,1.164,1.164,0,0,1-.536-.337c-.11-.1-.234-.241-.186-.385a1.491,1.491,0,0,0,.193-.028c.268-.041.805-.021.97.186A.386.386,0,0,1,366.007,640.274Z" transform="translate(-113.921 -199.829)" fill="#d8d8d8"/>
      <path id="Trazado_34561" data-name="Trazado 34561" d="M360.891,640.292c-.1-.076-.269-.151-.351-.048-.034.041-.055.1-.1.11h-.014a.62.62,0,0,0-.419.069.376.376,0,0,0-.014.584.628.628,0,0,0,.5.055,1.041,1.041,0,0,0,.481-.227.331.331,0,0,0,.131-.248c0-.124-.11-.213-.212-.3m-.358.062c.089-.007.2-.028.2,0a.963.963,0,0,1-.2,0" transform="translate(-112.401 -199.964)" fill="#d8d8d8"/>
      <path id="Trazado_34562" data-name="Trazado 34562" d="M360.891,640.292c-.1-.076-.269-.151-.351-.048-.034.041-.055.1-.1.11h-.014a.62.62,0,0,0-.419.069.376.376,0,0,0-.014.584.628.628,0,0,0,.5.055,1.041,1.041,0,0,0,.481-.227.331.331,0,0,0,.131-.248C361.1,640.464,360.994,640.375,360.891,640.292Zm-.358.062c.089-.007.2-.028.2,0A.963.963,0,0,1,360.533,640.354Z" transform="translate(-112.401 -199.964)" fill="#d8d8d8"/>
      <path id="Trazado_34563" data-name="Trazado 34563" d="M384.427,646.02c-.2.076-.413-.082-.571-.241s-.351-.33-.516-.5c-.089-.076-.179-.179-.144-.289.047-.144.247-.151.4-.124.069.014.144.034.213.048.021,0,.041.007.041.028s-.008.014-.014.014a1.376,1.376,0,0,1,.591,1.059" transform="translate(-119.689 -201.421)" fill="#d8d8d8"/>
      <path id="Trazado_34564" data-name="Trazado 34564" d="M384.427,646.02c-.2.076-.413-.082-.571-.241s-.351-.33-.516-.5c-.089-.076-.179-.179-.144-.289.047-.144.247-.151.4-.124.069.014.144.034.213.048.021,0,.041.007.041.028s-.008.014-.014.014A1.376,1.376,0,0,1,384.427,646.02Z" transform="translate(-119.689 -201.421)" fill="#d8d8d8"/>
      <path id="Trazado_34565" data-name="Trazado 34565" d="M381.081,641.092a.027.027,0,0,0-.007.014,2.123,2.123,0,0,1-.666-.55,3.043,3.043,0,0,0-1.053-.688,1.15,1.15,0,0,1-.3-.159.29.29,0,0,1-.117-.3c.041-.131.192-.193.323-.234a.3.3,0,0,1,.068-.014.593.593,0,0,1,.1-.014.476.476,0,0,1,.2.09,5.217,5.217,0,0,1,1.4,1.471c.075.111.138.283.047.385" transform="translate(-118.357 -199.637)" fill="#d8d8d8"/>
      <path id="Trazado_34566" data-name="Trazado 34566" d="M381.081,641.092a.027.027,0,0,0-.007.014,2.123,2.123,0,0,1-.666-.55,3.043,3.043,0,0,0-1.053-.688,1.15,1.15,0,0,1-.3-.159.29.29,0,0,1-.117-.3c.041-.131.192-.193.323-.234a.3.3,0,0,1,.068-.014.593.593,0,0,1,.1-.014.476.476,0,0,1,.2.09,5.217,5.217,0,0,1,1.4,1.471C381.109,640.818,381.171,640.99,381.081,641.092Z" transform="translate(-118.357 -199.637)" fill="#d8d8d8"/>
      <path id="Trazado_34571" data-name="Trazado 34571" d="M407.149,656.389a4.557,4.557,0,0,1-.392.234c-.151.1-.268.227-.406.329a.7.7,0,0,1-.488.172.335.335,0,0,1-.3-.371.537.537,0,0,1,.2-.247c.158-.131.316-.261.481-.392a1.133,1.133,0,0,1,.977-.378c.214.062-.117.227.1.261a.4.4,0,0,1-.172.392" transform="translate(-126.676 -204.811)" fill="#d8d8d8"/>
      <path id="Trazado_34572" data-name="Trazado 34572" d="M407.149,656.389a4.557,4.557,0,0,1-.392.234c-.151.1-.268.227-.406.329a.7.7,0,0,1-.488.172.335.335,0,0,1-.3-.371.537.537,0,0,1,.2-.247c.158-.131.316-.261.481-.392a1.133,1.133,0,0,1,.977-.378c.214.062-.117.227.1.261A.4.4,0,0,1,407.149,656.389Z" transform="translate(-126.676 -204.811)" fill="#d8d8d8"/>
      <path id="Trazado_34573" data-name="Trazado 34573" d="M393.872,658.722a.939.939,0,0,0-1.01-.406,2.146,2.146,0,0,0-.7-.929.34.34,0,0,0-.234-.083.258.258,0,0,0-.138.117c-.179.255-.172.647-.446.8-.344.193-.792-.206-1.163-.055a.658.658,0,0,0-.206.131c-.254.206-.536.474-.5.8a.659.659,0,0,0,.413.488,2.13,2.13,0,0,0,.66.11,2.19,2.19,0,0,0,1.21-.165.555.555,0,0,1,.1-.049,2.092,2.092,0,0,0,1.244.283,1.137,1.137,0,0,0,.6-.186.595.595,0,0,0,.172-.852m-1.884.8a.025.025,0,0,1,.021.007l.021.021a.16.16,0,0,1-.042-.028" transform="translate(-121.652 -205.308)" fill="#d8d8d8"/>
      <path id="Trazado_34574" data-name="Trazado 34574" d="M393.872,658.722a.939.939,0,0,0-1.01-.406,2.146,2.146,0,0,0-.7-.929.34.34,0,0,0-.234-.083.258.258,0,0,0-.138.117c-.179.255-.172.647-.446.8-.344.193-.792-.206-1.163-.055a.658.658,0,0,0-.206.131c-.254.206-.536.474-.5.8a.659.659,0,0,0,.413.488,2.13,2.13,0,0,0,.66.11,2.19,2.19,0,0,0,1.21-.165.555.555,0,0,1,.1-.049,2.092,2.092,0,0,0,1.244.283,1.137,1.137,0,0,0,.6-.186.595.595,0,0,0,.172-.852Zm-1.884.8a.025.025,0,0,1,.021.007l.021.021A.16.16,0,0,1,391.988,659.52Z" transform="translate(-121.652 -205.308)" fill="#d8d8d8"/>
      <path id="Trazado_34575" data-name="Trazado 34575" d="M144.959,107.83c0,.026-.008.048-.011.074s-.03.019-.045.03Z" transform="translate(-45.26 -33.681)" fill="#d8d8d8"/>
      <path id="Trazado_34576" data-name="Trazado 34576" d="M202.734,520.2l.173.077c-.055.093-.288-.007-.173-.077" transform="translate(-63.314 -162.482)" fill="#d8d8d8"/>
      <path id="Trazado_34577" data-name="Trazado 34577" d="M202.734,520.2l.173.077C202.852,520.365,202.619,520.265,202.734,520.2Z" transform="translate(-63.314 -162.482)" fill="#d8d8d8"/>
      <path id="Trazado_34578" data-name="Trazado 34578" d="M403.83,599.9a.983.983,0,0,0-.247.207l.447-2.2a2.478,2.478,0,0,1,.033,1.175Z" transform="translate(-126.059 -186.754)" fill="#d8d8d8"/>
      <path id="Trazado_34579" data-name="Trazado 34579" d="M403.83,599.9a.983.983,0,0,0-.247.207l.447-2.2a2.478,2.478,0,0,1,.033,1.175Z" transform="translate(-126.059 -186.754)" fill="#d8d8d8"/>
      <path id="Trazado_34580" data-name="Trazado 34580" d="M404.647,594.629l-.455,2.249a1.763,1.763,0,0,0-.089-.269l.155-.961a3.218,3.218,0,0,1,.388-1.019" transform="translate(-126.222 -185.732)" fill="#d8d8d8"/>
      <path id="Trazado_34581" data-name="Trazado 34581" d="M404.647,594.629l-.455,2.249a1.763,1.763,0,0,0-.089-.269l.155-.961A3.218,3.218,0,0,1,404.647,594.629Z" transform="translate(-126.222 -185.732)" fill="#d8d8d8"/>
      <path id="Trazado_34584" data-name="Trazado 34584" d="M231.922,60.336a.068.068,0,0,0-.036-.007.21.21,0,0,1-.006-.062c.014.021.027.041.042.069" transform="translate(-72.427 -18.824)" fill="#d8d8d8"/>
      <path id="Trazado_34585" data-name="Trazado 34585" d="M68.068,428.473a.962.962,0,0,1-.468-.007c.151.007.309.007.468.007" transform="translate(-21.115 -133.831)" fill="#d8d8d8"/>
      <path id="Trazado_34586" data-name="Trazado 34586" d="M102.247,146.3a.428.428,0,0,0-.2.124.138.138,0,0,0-.028.055l4.078-1.74c-1.286.523-2.565,1.038-3.851,1.561" transform="translate(-31.866 -45.208)" fill="#d8d8d8"/>
      <path id="Trazado_34587" data-name="Trazado 34587" d="M232.971,175.351l-1.919,7.688,3.363,2.888,3.843,7.688-3.843,1.925-8.169,3.363-5.289,1.444s-4.325,12.495-5.769,14.42,2.881,7.695,2.881,7.695l-3.845,8.988H202.694l-3.37-3.225v-5.288l-3.844-3.665-4.758,12.178-7.736,7.832s-8.658,4.807-12.02,6.251,0,9.131,0,9.131l-1.884,3.259-.007.007-3.4,5.866-2.421,2.592-4.312,4.621V276.3a50.067,50.067,0,0,1-5.763,3.844c-3.369,1.919,0,5.769,0,5.769s-15.865,12.976-18.12,14.42-2.352,8.052-2.352,8.052l-6.368-2.352-6.333-2.338-2.881-5.288-.963-5.288,3.363-7.207,13.182-5.288v-5.288l2.352-6.25-2.352-7.207s-1.162-5.769-1.74-7.213,3.459-5.288,3.459-5.288l6.732-14.9v-5.288c0-1.444-2.407-6.251-2.407-7.688s-6.044-6.732-6.044-6.732l-4.525-7.207-2.888-6.732,5.611-4.325s-.8-4.807,0-5.047-4.167-6.973-5.611-8.417,0-5.762,0-5.762l-5.769-1.444-7.207,1.444v-5.288a52.732,52.732,0,0,0-3.845-4.807c-1.444-1.444-.481-6.251-.481-6.251l4.325-3.844h7.207v-7.743l-6.244-4.759-6.251-4.325-1.925-5.288v-9.613l-5-8.513a3.132,3.132,0,0,0,1.946-1c-.055-.186-.254-.275-.419-.392-.144-.1-.276-.282-.213-.433l4.078-1.74a7.851,7.851,0,0,0,1.43-.7,7.557,7.557,0,0,0,1.073-.921.682.682,0,0,0,.069-.076,19.393,19.393,0,0,1,2.145-2.042,24.027,24.027,0,0,1,2.187-1.114,3.127,3.127,0,0,0,1.23-1.307c.179-.358.29-.743.468-1.093.454-.86,1.334-1.458,1.725-2.345.227-.516.276-1.1.516-1.616a4.623,4.623,0,0,1,.709-1.011A10.912,10.912,0,0,1,121.2,97.53c.09-.034.179-.069.269-.1l3.349,8.7v12.02l-2.4,6.725v9.132s-4.806,6.732-2.407,6.732,14.421,4.807,14.421,4.807l10.095-13.939s4.807-2.407,6.251-3.844,9.132-5.288,9.132-5.288l5.287-2.888,7.7,5.769,2.881,6.251-1.925,4.807-1.437,4.325,5.769,8.169s8.843.963,8.988,0,3.6-9.613,3.6-9.613l-.041-9.132s2.833-11.057,2.833-12.495v-6.251a23.617,23.617,0,0,0-2.833-9.613c-1.492-2.407-4.182-8.651-3.555-10.576s-2.744-8.169-2.744-8.169l6.341-3.369-.041-7.88-3.555-5.783,3.555-10.837a.21.21,0,0,0,.006.062.063.063,0,0,1,.035.007.61.61,0,0,0-.041-.069l8.6-3.858.97-5.377,8.644-1.939,2.888,2.936,1.919,8.307,7.461,4.037c-.44,1.368-.592,2.813-1.031,4.181-.811,2.586-1.692,4.951-3.632,6.54a7.382,7.382,0,0,1-1.326.873c-1.575.811-3.4,2.049-3.226,3.816.1.908.73,1.692.832,2.592.207,1.767-1.547,3.053-2.454,4.573a1.575,1.575,0,0,0-.269.839,1.837,1.837,0,0,0,.393.846,3.55,3.55,0,0,1,.729,2.991,4.146,4.146,0,0,1-.846,1.252q-2.229,2.537-4.464,5.068a14.583,14.583,0,0,0-1.857,2.434,36.267,36.267,0,0,0-1.637,4.422,5.319,5.319,0,0,1-3.067,3.383c3.391.034,7.193-.1,9.5-2.565a5.932,5.932,0,0,1,2.3,3.947c2.077-.371,4.347-.6,5.681,1.038,2.331,2.881,1.106,7.248,2.448,10.707,1.588,4.112,6.326,6.01,9.015,9.51a2.228,2.228,0,0,1,.454.839c.158.722-.337,1.4-.529,2.118a6.783,6.783,0,0,0,.227,2.916c.454,2.558-1.637,3.053-2.145,5.261-.248,1.086-.5,2.18-.743,3.266a6.815,6.815,0,0,0-.068,4.153,6.371,6.371,0,0,1,.825,1.953,5.443,5.443,0,0,1-.207,1.32,3.533,3.533,0,0,0,.488,2.682,2.437,2.437,0,0,0,2.428,1.038c1.114-.248,1.946-1.389,3.088-1.389a2.446,2.446,0,0,1,2.076,1.76,17.424,17.424,0,0,1,.537,2.537c.021.1.041.2.068.3a13.069,13.069,0,0,0,1.706,3.459c.048.083.1.158.151.241.957,1.492,2.2,3.046,3.934,3.067h.117a5.972,5.972,0,0,0,1.815-.454c.921-.337,1.842-.674,2.757-1.011l-7.021,5.46-2.881,4.325Z" transform="translate(-31.269 -13.749)" fill="#d8d8d8"/>
      <path id="Trazado_34588" data-name="Trazado 34588" d="M392.529,404.955a4.443,4.443,0,0,1-4.222,1.472q-1.1-4.8-2.207-9.579c-.6-2.621-1.341-5.454-3.466-7.11-1.121-.873-2.592-1.383-3.349-2.586-1.582-2.516,1.045-5.569,1.334-8.526-2.117-1.19-4.765.206-6.533,1.87s-3.431,3.748-5.824,4.181c-1.5.275-3.445.034-4.153,1.388-.626,1.2-.083,3.356-1.43,3.5a1.855,1.855,0,0,1-.963-.254,22.837,22.837,0,0,1-5.652-4,3.018,3.018,0,0,0-1.031-.77,2,2,0,0,0-2.344,1.313,5.726,5.726,0,0,0-.1,2.936c.475.309.963.625,1.444.941a2.326,2.326,0,0,1-2.055,2.145,7.62,7.62,0,0,1-3.2-.384,40.251,40.251,0,0,0-16.332-.73,16.034,16.034,0,0,1-5.013.379c-1.616-.254-3.122-1.107-4.759-1.19-2.447-.124-5.171,1.423-7.179.028a4.643,4.643,0,0,0-1.038-.695c-1.073-.378-2.049.708-2.668,1.664a4.034,4.034,0,0,0-6.065.165,4.674,4.674,0,0,0-.777,1.712,13.259,13.259,0,0,0-.219,3.143q.092,6.065.192,12.129a14.342,14.342,0,0,1,7.867.571c1.238.461,3.108.792,3.445-.481.688.309,1.382.619,2.07.928a3.175,3.175,0,0,0,.908-1.437,14.278,14.278,0,0,0,4.9,1.066,3.648,3.648,0,0,0,1.183,4.147,7.546,7.546,0,0,1-2,3.218c.7.736,1.389,1.465,2.09,2.2a3.228,3.228,0,0,0-.976,1.52,3.043,3.043,0,0,1-1.8-.337,3.44,3.44,0,0,1-6.175-1.774,6.571,6.571,0,0,1-3.088,2.09c-1.224.268-2.758-.468-2.84-1.726a21.787,21.787,0,0,1-11.229,4.236c-.344,5.811-.357,11.828-.357,17.652,0,.179-.049.446-.049.626a5.367,5.367,0,0,1,.777.852c.034.042.241.083.276.118a4.828,4.828,0,0,0-.035,1.444,1.7,1.7,0,0,0,.337.763,2.745,2.745,0,0,0,.591.5c.646.454,1.286.9,1.932,1.348a2.483,2.483,0,0,0,.8.433c.289.083.6.061.894.131.661.158,1.128.729,1.705,1.079a7.615,7.615,0,0,1,.894.523c.2.164.358.364.55.523a3.359,3.359,0,0,0,.928.5q1.321.525,2.682.956a.85.85,0,0,1,.557.371c.076.164.034.364.117.529.055.1.144.186.2.289.138.295-.1.626-.123.942-.021.571.6.928.811,1.451a1.882,1.882,0,0,1-.639,1.828,4.107,4.107,0,0,0-.53.668,1.649,1.649,0,0,0-.151,1.2l.3.453c.5.5,1,1,1.506,1.507a5.721,5.721,0,0,1,.8.928,1.794,1.794,0,0,1,.3,1.17c-.034.282-.151.591.007.832a.849.849,0,0,0,.275.241c.764.468,1.527.941,2.29,1.41a1.662,1.662,0,0,1,.33.254c.44.529-.117,1.472.358,1.98a1.937,1.937,0,0,1,.179.165c.894.956-.481,2.255-.433,3.28a3.73,3.73,0,0,0,.378,1.162,6.687,6.687,0,0,1,.406,1.307,7.105,7.105,0,0,1,.138,1.747.407.407,0,0,1-.048.2.43.43,0,0,1-.172.131,5.15,5.15,0,0,1-.853.33l-.288.419a1.652,1.652,0,0,1-.324,1.183l.207,1.417c0,.069.1.089.164.089-.089.378-.179.75-.261,1.128l-.612.523a5.883,5.883,0,0,1-.014.928L316,481.064a2.41,2.41,0,0,1-.3,1.127l.082.757a3.812,3.812,0,0,1-.371.853l-.124.743a.073.073,0,0,1,.082.089.258.258,0,0,1-.062.131,2.514,2.514,0,0,0-.337.791c-.034.124-.075.254-.11.371l-.11,1.189c-.158.393-.323.785-.481,1.183-.014.034-.076.048-.083.028l-.241,1.2a2.005,2.005,0,0,1,.028,1.156l-.261.64c.021.447.028.894.014,1.341l-.3.921a2.872,2.872,0,0,1-.055.97l-.247.866a1.024,1.024,0,0,1-.1.86l-.6,1.361a3.122,3.122,0,0,1-.041.881l-.288,1.437a2.918,2.918,0,0,1-.42,1,1.3,1.3,0,0,0,.117-.076l-.1.88a1.926,1.926,0,0,1,.138,1.059l-.413.749c-.048.331-.1.675-.151,1.012l-.316,1.011a4.991,4.991,0,0,1-.1.783l-.351.929a2.217,2.217,0,0,0-.041.735l-7.227,2.442a1.376,1.376,0,0,0-.44-.8.549.549,0,0,0-.344-.144.682.682,0,0,0-.378.186c-.646.494-1.292.983-1.932,1.478a1.8,1.8,0,0,1-.983.468c-.364.006-.756-.33-.653-.688l-.157.1a4.521,4.521,0,0,0-.172-1.712c-.1-.3-.31-.633-.62-.584-.193.027-.316.213-.433.364a1.219,1.219,0,0,1-.571.488.521.521,0,0,1-.653-.24,2.907,2.907,0,0,1-.062-.426c-.083-.358-.5-.523-.86-.578a1.91,1.91,0,0,1-1.038-.3,1.691,1.691,0,0,1-.413-1.135c-.055-.406-.193-.874-.578-1.018a1.3,1.3,0,0,0-.915.117,13.708,13.708,0,0,1-1.733.5.444.444,0,0,1-.364-.042.278.278,0,0,1-.089-.157.848.848,0,0,1,.413-.908,2.357,2.357,0,0,1,1.018-.31.536.536,0,0,0-.378-.522,1.7,1.7,0,0,0-.695-.049,20.822,20.822,0,0,1-2.372.049,1.288,1.288,0,0,1-.831-.241c-.3-.269-.31-.777-.647-1-.556-.378-1.423.371-1.932-.069a1.664,1.664,0,0,1-.31-.625,1.635,1.635,0,0,0-.406-.564c-.055-.041-.131-.089-.193-.069a.183.183,0,0,0-.1.124c-.158.446.337.962.1,1.375-.186.337-.7.282-1.038.089a1.942,1.942,0,0,1-.914-1.507.971.971,0,0,1-.812-.838,2.721,2.721,0,0,1,.158-1.231c-.908.006-2.015-.1-2.393-.928a2.529,2.529,0,0,0-.2-.468c-.454-.646-1.589-.041-2.228-.494-.53-.378-.474-1.3-1.058-1.588-.5-.241-1.039.151-1.547.364a2.408,2.408,0,0,1-2.318-.268c-.2.611-.4,1.217-.6,1.829a4.463,4.463,0,0,0-1.623-.53,1.574,1.574,0,0,0-1.485.675c-.268.474-.186,1.08-.419,1.568a2.13,2.13,0,0,1-2.434.777,11.775,11.775,0,0,0-2.661-.66,1.417,1.417,0,0,0-1.1.44c-.227.275-.3.694-.625.846a.755.755,0,0,1-.874-.337,4.341,4.341,0,0,1-.378-.949,3.094,3.094,0,0,0-1.8-1.809,6.134,6.134,0,0,1-.619,1.843,12.216,12.216,0,0,0-.866-2.71,1.535,1.535,0,0,0-.344-.529c-.646-.571-1.767.138-2.489-.323-.275-.172-.447-.5-.75-.613-.832-.323-1.795,1.1-2.469.523-.523-.454-.076-1.657-.75-1.809a.883.883,0,0,0-.612.18,9.944,9.944,0,0,0-2.84,2.118c-.3.358-.557.763-.839,1.148a17.814,17.814,0,0,1-1.63,1.822c-.385.4-.681.722-1.141.413a.526.526,0,0,1-.626.3,3.649,3.649,0,0,1-.708-.289,1.757,1.757,0,0,0-2.276,1.334,3.611,3.611,0,0,1-.117.818c-.3.736-1.362.647-2.125.433s-1.822-.295-2.125.448a1.664,1.664,0,0,1-.158.4c-.227.316-.846.034-.756-.351a5.173,5.173,0,0,1-1.864.083,1.805,1.805,0,0,1-1.4-1.107c-1.6.172-3.2.351-4.807.523-.2.021-.433.028-.55-.144a.637.637,0,0,1-.055-.413,1.541,1.541,0,0,0-.474-1.265,1.058,1.058,0,0,0-1.287-.083c-.433.33-.468.949-.6,1.472s-.619,1.093-1.121.887c-.695-.289-.509-1.726-1.265-1.706-.227.448-.461.9-.688,1.349a3.322,3.322,0,0,1-1.025-.908,3.2,3.2,0,0,1-1.788,1.7,8.89,8.89,0,0,1-2.469.565c.385-1.073-1.073-2.084-.907-3.211a2.232,2.232,0,0,1-2.346-.523c.193.172.014.523-.233.571a.821.821,0,0,1-.675-.3,2.692,2.692,0,0,0-.556-.516.861.861,0,0,0-.97.144c-.014-.6-.571-1.01-1.011-1.409s-.811-1.093-.44-1.561c.309-.379.97-.379,1.183-.818a1.8,1.8,0,0,0,.083-.695,1.6,1.6,0,0,1,1.265-1.445c-.2-.082-.385-.164-.585-.247a2.425,2.425,0,0,0-.722-2.05c-.234-.213-.529-.446-.5-.756.021-.241.234-.413.4-.585a3.023,3.023,0,0,0,.791-2.042,3.065,3.065,0,0,1-1.423-.688c-.371-.378-.626-1.265-.13-1.451.219-.083.075-.454-.152-.5a3.923,3.923,0,0,0-.695.055c-.75-.034-1.1-1.183-1.85-1.155.069.419.145.839.213,1.258-.832-.2-1.664-.392-2.489-.584.034.268.069.529.11.8a2.529,2.529,0,0,1-2.056-1.141,1.5,1.5,0,0,1-2.145-.921,3.419,3.419,0,0,1-2.31-.659.617.617,0,0,1-.283-.392c-.041-.4.543-.5.826-.784.35-.338.226-.9.137-1.382s-.021-1.108.447-1.231c.193-.049.44,0,.564-.159.193-.24-.151-.536-.406-.7a2.465,2.465,0,0,1-1.1-2.235,7.271,7.271,0,0,1-1.547-.784.546.546,0,0,1-.234-.248c-.048-.151.049-.3.11-.448a2.3,2.3,0,0,0-.405-2.358,6.6,6.6,0,0,0-1.988-1.534c-.413-.248-.928-.488-1.341-.248a2.631,2.631,0,0,0-1.444-1.706,1.793,1.793,0,0,1-.578,1.61c-.076-.268-.447-.3-.7-.2a2.682,2.682,0,0,1-.756.316c-.612.047-.935-.7-1.059-1.3-.275-1.244-.55-2.489-.825-3.726a3.833,3.833,0,0,1-1.313.935,1.3,1.3,0,0,1-1.478-.358c-.179.063-.364.117-.543.172a3.927,3.927,0,0,0-1.754-2.407c-.055.482-.117.963-.179,1.452-.633-.172-1.011-.832-1.616-1.086-1.045-.44-2.269.516-3.342.158-1.437-.481-1.341-2.689-2.531-3.618a1.159,1.159,0,0,1,1.582-.907,4.544,4.544,0,0,0-2.214-2.648c.007-.006.007-.013.007-.028.027-.137-.117-.233-.241-.3a1.834,1.834,0,0,1-.866-1.012,1.145,1.145,0,0,1-.034-.406.937.937,0,0,1,.488-.763,12.608,12.608,0,0,0-3.988-5.776q-1.362-1.269-2.716-2.537a1.04,1.04,0,0,0-.481-.309c-.5-.11-1.011.523-1.485.3-.227-.1-.33-.364-.529-.516-.557-.4-1.389.255-1.98-.082-.571-.309-.406-1.141-.323-1.787a3.727,3.727,0,0,0-.282-1.932,1.633,1.633,0,0,0-.124-.248,1.509,1.509,0,0,0-1.444-.894c-.529.089-.88.557-1.313.894a2.064,2.064,0,0,1-.371.227,1.88,1.88,0,0,1-1.664-.227,2.326,2.326,0,0,1-.275-.186c-.55-.412-.99-.962-1.54-1.375-1.045-.777-2.579-1.155-3-2.392-.461.412-1.19.083-1.685-.289s-1.121-.791-1.671-.523c-.75.364-.736,1.719-1.554,1.828a1.423,1.423,0,0,1-.605-.1q-3.724-1.258-7.447-2.51a4.4,4.4,0,0,1-1.8-.943c-.5-.516-.908-1.348-1.616-1.251a.721.721,0,0,1-.481.839,2.219,2.219,0,0,1-1.059.021c-1.231-.186-2.469-.392-3.7-.578-.337-1.231-1.547-1.974-2.579-2.716a16.293,16.293,0,0,1-3.246-3.136,3.422,3.422,0,0,1-.86-1.829,14.705,14.705,0,0,1-2.07.144c-.234,0-.509-.041-.612-.247-.2-.413.516-.97.165-1.273a2.13,2.13,0,0,1-2.441-.006,1.093,1.093,0,0,0-.468-.261c-.234-.034-.454.123-.681.172-.646.138-1.217-.557-1.87-.523a1.8,1.8,0,0,0-.571.165c-.282.117-.564.234-.839.351-.206.083-.413.172-.612.274h-.007a2.549,2.549,0,0,0-1.265,1.128c-.22.461-.206,1-.392,1.478-.509,1.32-2.2,1.637-3.6,1.754l-1.719-4.106-2.145-5.109v-9.133l2.888-3.2v-8.334l7.207-2.565s4.325-.8,6.251,0,0,2.565,0,2.565v7.688s5.769,1.443,7.207,0,6.251,0,6.251,0l1.925-3.844-5.288-2.4-2.888-3.851,1.527-5.831,6.368,2.352s.089-6.615,2.352-8.052,18.12-14.42,18.12-14.42-3.369-3.852,0-5.77a49.891,49.891,0,0,0,5.763-3.844v-5.287l4.312-4.622,1.939,2.215,5.666,3.369-.206,4.325v3.363l5.6,11.538-5.391,4.807,5.391,4.807h7.688l1.685,4.807,5.137,2.764,7.123-3.727s1.919-9.613,1.919-11.057v-6.732l4.325-2.221h7.695l10.576-4.985,2.881-3.363,12.976-3.369,2.888-1.919,18.264-.481,4.325.481,10.095.962,10.576-2.407,4.807,2.407,3.843-3.369,2.889-4.807v-2.882l6.243-7.213,4.869-4.325h5.708l3.85-3.844,6.244,2.4,3.37,2.407,5.762-4.806h6.251l8.169-4.807H359.92L365,322.127q1.279,1.661,2.551,3.314c.268.344.536.695.805,1.038a6.617,6.617,0,0,1,1.182,1.993,4.266,4.266,0,0,1,.166,1.238c-.014.97-.276,1.96-.351,2.936-.117,1.4.426,3.115,1.809,3.383.894.178,1.815-.344,2.709-.2,1.616.276,2.09,2.339,2.2,3.975l.227,3.342a10.918,10.918,0,0,1,2.51,2.083,1.732,1.732,0,0,1,.536.984c.048.688-.619,1.183-1.2,1.554a49.05,49.05,0,0,0-13.6,12.859c.571-.55,1.712-.269,2.51.117,1.4.66,3.37,1.141,4.532,2.159q4.054,3.548,8.114,7.1c1.368,1.2,2.833,2.579,2.978,4.394.082,1.031-.3,2.1-.007,3.1.309,1.08,1.307,1.8,2.049,2.634,1.719,1.946,2.132,4.669,2.682,7.207a50.247,50.247,0,0,0,4.078,11.635c.942,1.884,2.008,4.105,1.052,5.983" transform="translate(-31.794 -100.616)" fill="#d8d8d8"/>
      <path id="Trazado_34589" data-name="Trazado 34589" d="M103.161,282.458l6.732-14.9v-5.289c0-1.444-2.407-6.251-2.407-7.688s-6.044-6.732-6.044-6.732l-4.525-7.207-2.888-6.732,5.611-4.325s-.8-4.807,0-5.047-4.167-6.973-5.611-8.417,0-5.763,0-5.763l-5.769-1.444-7.207,1.444V205.07a52.811,52.811,0,0,0-3.844-4.807c-1.444-1.444-.481-6.251-.481-6.251l4.325-3.844H88.26v-7.743l-6.244-4.759-6.251-4.325-1.925-5.288V158.44l-5-8.513a8.152,8.152,0,0,1-3.005.344c-.193-.021-.385-.055-.578-.076h-.007a1.775,1.775,0,0,0-.426-.021.907.907,0,0,0-.8.543c-.028.089-.034.179-.055.268-.124.44-.578.681-.887,1.018s-.364,1.018.076,1.128a1.57,1.57,0,0,0,.633-.089.424.424,0,0,1,.1-.007,1.167,1.167,0,0,1,.75.426c.591.578,1.19,1.155,1.781,1.726a3.379,3.379,0,0,1,1.423,3.232c0,.151-.007.3-.007.461-.014.474-.028.949-.034,1.43a3.808,3.808,0,0,0,.021.626c.076.543.378,1.031.426,1.582.021.33-.048.653-.034.983a.96.96,0,0,0,.419.839c-.289.138-.557.44-.385.708a3.124,3.124,0,0,0,.7.64.912.912,0,0,1,.392.825,1.878,1.878,0,0,0-.736.447.684.684,0,0,0-.131.791.7.7,0,0,1,.151.268.429.429,0,0,1-.076.234c-.529.915-1.162,1.925-2.2,2.145a3.678,3.678,0,0,1-2.579-.756,1.692,1.692,0,0,1-.818-.8,1.791,1.791,0,0,1,.282-1.355c.138-.261.275-.523.406-.784.055-.1.138-.22.248-.22a.308.308,0,0,1,.172.062c.351.22.7.44,1.059.66a.965.965,0,0,0-.351-.983c.227-.138.516-.014.784,0a.494.494,0,0,0,.433-.248.187.187,0,0,0-.021-.227,1.519,1.519,0,0,1-.626-.172l.206-.6c.028-.076.048-.144.076-.213a.166.166,0,0,1-.186,0H65.43a.217.217,0,0,1-.117-.227,1.164,1.164,0,0,1,.117-.2.459.459,0,0,0-.22-.578.894.894,0,0,0-.378-.11,2.038,2.038,0,0,0-.289-.021,2.128,2.128,0,0,1-.667,1.038.866.866,0,0,1-1.141-.069,1.093,1.093,0,0,1,.193-1.286,3.231,3.231,0,0,0,.756-1.162,2.065,2.065,0,0,1-.763.1.625.625,0,0,1-.543-.474.9.9,0,0,1,.186-.591c.165-.275.33-.55.488-.818a2.035,2.035,0,0,0-1.052-.22c-.481.089-.866.529-1.355.523a1.151,1.151,0,0,1-.894-.591,8.016,8.016,0,0,1-.44-1.031,8.455,8.455,0,0,0-3.136-3.287,4.491,4.491,0,0,0-1.444-.681,4.989,4.989,0,0,1-1.224-.392,1.594,1.594,0,0,1-.591-2.022,23.646,23.646,0,0,1-3.177-2.62c-.034,1.19-1.142,2-1.87,2.936a1.159,1.159,0,0,0-.275.578,1.326,1.326,0,0,0,.413.928l1.932,2.386a4.635,4.635,0,0,1,.949,1.547,8.745,8.745,0,0,0,.426,1.919,5.193,5.193,0,0,0,.591.743,12.083,12.083,0,0,1,1.183,2.1,29.8,29.8,0,0,1,1.857,3.287,4.671,4.671,0,0,1,.241,1.932,2.94,2.94,0,0,1-.963,2.145,3.57,3.57,0,0,1-.516.316c-.2.1-.406.193-.612.3a9.48,9.48,0,0,0-3.6,3.053c-.468.667-.853,1.4-1.375,2.035-.743.9-1.747,1.568-2.427,2.524-.509.722-1.08,1.946-2.2,1.506a2.562,2.562,0,0,1-1.183-1.169,9.582,9.582,0,0,1-.626-1.21c-.248-.564-.509-1.224-1.093-1.43a1.285,1.285,0,0,0-1.417.529,2.314,2.314,0,0,0-.33,1.554,12.264,12.264,0,0,0,.323,1.588,2.52,2.52,0,0,1,.055,1.011,1.01,1.01,0,0,1-.6.763,2.666,2.666,0,0,1-.7.062A2.656,2.656,0,0,0,35.9,183.34a7.4,7.4,0,0,0-.791,2.407,8.693,8.693,0,0,1-.743,2.434c.206.832,1.155,1.155,1.781,1.747a6.339,6.339,0,0,1,.674.908c1.045,1.444,2.854,2.125,4.05,3.438.488.55.853,1.437.351,1.974-.433.454-1.252.344-1.685.811a1.166,1.166,0,0,0-.1,1.272,3.411,3.411,0,0,0,.894,1.018c.172-.419.344-.825.516-1.238.5.364,1,.729,1.492,1.1,1.045.763,2.18,1.692,2.3,2.978a7.326,7.326,0,0,0,.069,1.4c.131.447.633.853,1.052.633a2.461,2.461,0,0,0-.062-1.41c.64.069,1.176-.646,1.815-.557.7.089.9.97,1.135,1.63a3.821,3.821,0,0,0,1.2,1.7,1.633,1.633,0,0,1,.371.351,1.267,1.267,0,0,1,.083.818c-.144,1.313-.3,2.634-.44,3.947a1.7,1.7,0,0,1-1.2.172c.151.605,1.245.619,1.279,1.245a1.07,1.07,0,0,1-.289.633,2.882,2.882,0,0,0-.454,2.132.684.684,0,0,1-.935-.179,4.033,4.033,0,0,1-.454-.97,1.007,1.007,0,0,0-.777-.66.261.261,0,0,0-.158.041.275.275,0,0,0-.089.254c.014.681.605,1.368.282,1.96-.1.186-.282.323-.378.509-.3.591.289,1.224.825,1.623.571.426.633.928,1.114,1.451.33.358.853.736,1.245.454a34.03,34.03,0,0,0,3.06,6.973,1.52,1.52,0,0,1,.282.743,1.556,1.556,0,0,1-.358.866c-.866,1.252-1.726,2.51-2.586,3.761-.227.33-.584.7-.956.55-.323-.144-.419-.646-.77-.708-.254-.048-.474.165-.667.344a2.812,2.812,0,0,1-2.235.674,1.146,1.146,0,0,0-.86.062.652.652,0,0,0-.138.8,1.9,1.9,0,0,0,.585.633l-.516.66c.4.289.8.578,1.2.873-.069-.426.481-.77.887-.605a.993.993,0,0,1,.516,1.086,1.976,1.976,0,0,1,1.08.069.709.709,0,0,1,.413.887l-.811.083a4.547,4.547,0,0,1,.158,2.771.887.887,0,0,1,.688-.44,3.986,3.986,0,0,1,.811,1.733,3.237,3.237,0,0,1-1.355-.7,13.039,13.039,0,0,0,.089,3.149,1.249,1.249,0,0,1,.309-.915.388.388,0,0,1,.254-.158c.241-.027.378.268.378.509a1.2,1.2,0,0,0,.062.7,5.271,5.271,0,0,1,2.214-.729c-.681.234-1.444.543-1.685,1.224-.516-.014-1.025-.034-1.533-.048.426.866.846,1.74,1.265,2.606a1.571,1.571,0,0,1,.234.75,2.127,2.127,0,0,1-.165.612,8.638,8.638,0,0,0-.591,2.909c.021-.138.048-.282.069-.426a2.653,2.653,0,0,0,.309,1.417,28.478,28.478,0,0,0,2.3,2.847c.5.516,1.093,1.155.921,1.857-.77.083-1.19-.915-1.912-1.19a6.925,6.925,0,0,1-.117,3.074,9.748,9.748,0,0,0-.64,2.723,2.863,2.863,0,0,0,1.3,2.276,4.927,4.927,0,0,1-3.019,2.145c-.007.337-.007.674-.007,1.011a.772.772,0,0,0-.887.674c-.028.351.206.7.138,1.045a1.753,1.753,0,0,1-.8.2.634.634,0,0,1-.619-.447c-.076-.323.151-.791-.144-.928a4.833,4.833,0,0,0-1.011,1.774,4.48,4.48,0,0,0-.426,1.774,2.492,2.492,0,0,0,.144.743,3.043,3.043,0,0,0,.165.372,5.408,5.408,0,0,0,.729,1.065c.275.33.688.674,1.08.51.316-.131.474-.558.811-.613.474-.069.695.605.543,1.059a1.9,1.9,0,0,1-.6.866c1.293.371,1.6,2.255,2.881,2.62a3.655,3.655,0,0,1,.8-1.946c.392-.681.6-1.458,1.052-2.1a.889.889,0,0,1,.591-.433.67.67,0,0,1,.591.371,2.038,2.038,0,0,1,.186.7c.254-.034.5-.062.75-.1.151-.014.371.021.364.172a.3.3,0,0,1-.089.158,10.567,10.567,0,0,1-1.052.949.582.582,0,0,1-.089.921,1,1,0,0,1-1.038-.075,2.232,2.232,0,0,1-1.506,1.065.643.643,0,0,0,.523.53,1.789,1.789,0,0,0,.784-.076c.089.131-.076.289-.1.447a.515.515,0,0,0,.117.351,2.8,2.8,0,0,0,2.255.956,5.889,5.889,0,0,0,2.586-.516.427.427,0,0,0,.248-.213c.055-.165-.1-.323-.248-.426-.2-.152-.406-.3-.605-.454a.816.816,0,0,1,1.121-.11c.268-.178.536-.358.8-.543a.783.783,0,0,1,.351-.151.246.246,0,0,1,.261.227.351.351,0,0,1-.117.2c-.268.3-.543.585-.811.88a2.552,2.552,0,0,1,.887-.419.911.911,0,0,1,.894.281,4.223,4.223,0,0,1-2.214.694,1.019,1.019,0,0,1,.5,1.107.785.785,0,0,1-1.025.516c-.33-.151-.564-.578-.928-.523a1.636,1.636,0,0,1,.351.729.623.623,0,0,1-.33.681,1.283,1.283,0,0,0-.323.11.553.553,0,0,0-.172.309c-.089.316-.186.626-.268.942a.776.776,0,0,0,.021.708c.144.179.4.193.585.323a.842.842,0,0,1,.3.777.769.769,0,0,1-.3.592.41.41,0,0,1-.584-.124,2.433,2.433,0,0,1-2.111,1.617,6.315,6.315,0,0,0-.729.041,1.268,1.268,0,0,0-.763.488,12.084,12.084,0,0,1-1.533,2.029c-.083.069-.172.165-.124.261a.332.332,0,0,0,.131.1,1.614,1.614,0,0,1,.66.419.543.543,0,0,1-.007.715c-.138.117-.364.144-.44.309-.062.144.034.316,0,.468-.069.33-.543.282-.873.324a1.989,1.989,0,0,0-.8.35,27.438,27.438,0,0,0-4.25,3.349A2.387,2.387,0,0,1,46,295.173a1.283,1.283,0,0,1,1.066.846.647.647,0,0,1,.007.344.765.765,0,0,1-.695.481c-.3.034-.6-.014-.9.028-.069.014-.144.027-.213.048-.743.241-1.21,1.038-1.754,1.65a4.8,4.8,0,0,1-1.953,1.335,2.765,2.765,0,0,0-.7.309,2.15,2.15,0,0,0-.4.392c-.447.543-.9,1.073-1.355,1.616a1.934,1.934,0,0,0,1.066-.158,1.084,1.084,0,0,1,1.038.1c.131.241-.117.516-.351.653a.809.809,0,0,1,.22.7.766.766,0,0,1-.66.453,2.727,2.727,0,0,0-.825.158c-.254.117-.447.448-.3.681.248.385.481.468.282.976a1.163,1.163,0,0,1-.915.722c.062.254.083.584-.144.708a.755.755,0,0,1-.33.041,4.113,4.113,0,0,0-1.417.172c.089.419.626.53,1.052.543s.949.062,1.114.454l-1.925.165c-.481.048-1.08.179-1.19.653a2.274,2.274,0,0,0,.014.571,2.45,2.45,0,0,1-.344,1.141c-.44-.378-.88-.763-1.32-1.148a.544.544,0,0,0-.358-.179.578.578,0,0,0-.282.138c-.268.2-.529.4-.8.6a.7.7,0,0,0-.268.316.653.653,0,0,0,.021.3c.048.213.1.441.144.66a.417.417,0,0,1,.007.206.278.278,0,0,1-.138.144.69.69,0,0,1-.963-.351c-.089-.261-.083-.646-.358-.695a.349.349,0,0,0-.351.234,1.628,1.628,0,0,0-.1.447,2.73,2.73,0,0,1-.915,1.389,14.505,14.505,0,0,1-1.733,1.43,6.473,6.473,0,0,0-.777-2.441,1.361,1.361,0,0,0-.529-.584,1.484,1.484,0,0,0-1.073.041c-.419.124-.839.241-1.258.364-.3.089-.241.488-.254.8a1.805,1.805,0,0,1-.158.921,1.366,1.366,0,0,1-.426.364c-.268.179-.543.358-.818.536a.509.509,0,0,1-.275.11.551.551,0,0,1-.289-.1,3.315,3.315,0,0,0-.887-.309c-.227-.048-.529-.027-.591.2a.559.559,0,0,0,.028.261c.1.323.2.639.3.957a.4.4,0,0,1,.014.281.341.341,0,0,1-.131.151c-.186.151-.378.3-.564.447-.062-.5-.193-1.073-.653-1.251a1.779,1.779,0,0,1-.282-.111c-.186-.131-.193-.385-.213-.612s-.1-.481-.323-.523a.689.689,0,0,0-.234.021,2.377,2.377,0,0,0-1.155.66,1.163,1.163,0,0,0-.227,1.252c-.481-.042-.963-.09-1.444-.138a.791.791,0,0,0-.564.1c-.131.11-.186.3-.323.386-.261.164-.695-.076-.887.164a.717.717,0,0,0-.076.165c-.165.509-.337,1.018-.5,1.527a2.319,2.319,0,0,1-.529,1c-.234.22-.571.351-.743.626a1.087,1.087,0,0,0,.413,1.334,1,1,0,0,1,.275.261.8.8,0,0,1,0,.592,1.926,1.926,0,0,0-.076.983.757.757,0,0,0,.695.605c.22-.007.5-.1.605.083s-.083.454-.089.639a1.874,1.874,0,0,0,.117.543A2.356,2.356,0,0,1,14,326.337c-.117.3-.227.585-.344.88a1.207,1.207,0,0,1-.516.715,1.422,1.422,0,0,1-1.08-.158c-.351-.131-.818-.186-1.031.124a.619.619,0,0,0-.028.591,2.036,2.036,0,0,0,.344.5.192.192,0,0,0,.089.062c.076,0,.11-.089.165-.138.1-.083.248,0,.344.083a8.476,8.476,0,0,1,1.43,1.547c-.241.344-.488.763-.323,1.142a.759.759,0,0,0,.585.426,1.277,1.277,0,0,0,.729-.158c.076.371.151.743.227,1.107a1.828,1.828,0,0,1,.048.667.606.606,0,0,1-.413.488c.11.186.22.378.33.564-.172.158-.344.323-.516.481a.4.4,0,0,1-.234.138.464.464,0,0,1-.227-.089c-.371-.261-.743-.626-1.19-.591-.337.027-.646.275-.976.22-.3-.055-.523-.344-.825-.336a1.066,1.066,0,0,0-.55.254.565.565,0,0,1-.578.1c-.11-.062-.165-.179-.248-.275-.364-.468-1.052-.447-1.637-.543a3.505,3.505,0,0,1-1.135-.4,1.4,1.4,0,0,1,.014.508.756.756,0,0,1,.117-.034l-.268.241a2.317,2.317,0,0,0-.777-.131,2.1,2.1,0,0,0-.99.433,20.677,20.677,0,0,0-4.5,4.958.153.153,0,0,0-.034.076.145.145,0,0,0,.034.089,5.951,5.951,0,0,0,1.98,1.857c.509.289.791.935,1.142,1.4a1.233,1.233,0,0,0,.722-.406c.481.254.97.509,1.451.763-.055.172-.1.337-.158.5A27.173,27.173,0,0,1,8.5,346.637l2.359,2.083c1.4,1.245,2.916,2.537,4.759,2.819,1.1.172,2.448.076,3.06,1,.358.536.316,1.272.715,1.795a2.6,2.6,0,0,0,.811.619q5.126,2.929,10.26,5.859a9.772,9.772,0,0,0,3.122,1.327c1.843.316,3.679-.433,5.481-.956a3.212,3.212,0,0,1,1.829-.151,1.241,1.241,0,0,1,.935,1.389c-.186.7-1.2,1.293-.8,1.912a1.027,1.027,0,0,0,.454.344c1.781.922,3.555,1.836,5.336,2.758.138.467-.55.756-.681,1.231a1.182,1.182,0,0,0,.124.742,12.516,12.516,0,0,0,1.788,3.308,5.38,5.38,0,0,0,1.382,1.2c.743.44,1.059.124,1.843-.068,1.045-.262,2.111.633,3.17.461.021-.008.048-.008.069-.014.385-.076.729-.3,1.114-.351a2.572,2.572,0,0,1,.915.062,22.142,22.142,0,0,1,6.4,2.345,2.724,2.724,0,0,0,1.726.516c.358-.062.674-.289,1.045-.337a2.832,2.832,0,0,1,1.155.214A1.323,1.323,0,0,0,68,376.673c.323-.234.344-.839-.034-.955.928.164,1.85.329,2.778.5a2.4,2.4,0,0,1,.873.268c.241.151.419.392.66.543a2.476,2.476,0,0,0,1.582.207l-1.719-4.106L70,368.022V358.89l2.888-3.2v-8.334l7.207-2.566s4.325-.8,6.251,0,0,2.566,0,2.566v7.687s5.769,1.444,7.207,0,6.251,0,6.251,0l1.925-3.844-5.288-2.4-2.888-3.85,1.527-5.832-6.333-2.338-2.881-5.288L84.9,326.2l3.363-7.207,13.182-5.288v-5.288l2.352-6.25-2.352-7.207s-1.162-5.769-1.74-7.214,3.459-5.288,3.459-5.288M46.485,341.465c.151.007.309.007.468.007a.961.961,0,0,1-.468-.007" transform="translate(0 -46.83)" fill="#d8d8d8"/>
      <path id="Trazado_34590" data-name="Trazado 34590" d="M377.029,598.159a4.033,4.033,0,0,1-.667.736l-.736,1.21a3,3,0,0,1-.474.873l-.908,1.1a1.914,1.914,0,0,1-.536.934l-.571.708a2.819,2.819,0,0,1-.378.826c-.055.083-.13.172-.234.157l-.639.895c-.2.24-.4.481-.6.715l-.632.88a1.89,1.89,0,0,1-.537.668l-.309.873a.719.719,0,0,1-.055.1,2.017,2.017,0,0,1-.124.213c-.158.214-.433.371-.461.633l-.853.976c-.1.221-.212.441-.323.66a1.747,1.747,0,0,1-.364.571l-.633.819-.887.681-.193,1.2a10.12,10.12,0,0,0-.674.86l-.736,1.093a.274.274,0,0,1-.048.042,1.133,1.133,0,0,0-.254.295c-.063.11-.082.234-.138.351a.337.337,0,0,1-.288.207l-.565,1.038a2.631,2.631,0,0,0-.523,1.1l-.86.8a2.656,2.656,0,0,1-.509.887l-.6.53a3.408,3.408,0,0,1-.5.736l-.681.921c-.178.261-.358.523-.536.79l-.117.282a2.639,2.639,0,0,1-.337.777,3.13,3.13,0,0,0,.812-.3.905.905,0,0,1,.838-.008c.241.159.323.481.53.681.461.448,1.238.076,1.871.227a.928.928,0,0,1,.227.076l-1.348.02a.759.759,0,0,1-1.155.22c-.186-.172-.289-.446-.523-.536a.839.839,0,0,0-.75.234,12.228,12.228,0,0,0-1.155,1,2.846,2.846,0,0,1-1.368.955,3.289,3.289,0,0,0,3.129-.247,5.119,5.119,0,0,1,.66-.44,2.566,2.566,0,0,1,1.8-.021,7.158,7.158,0,0,0,1.78.406c.75.008,1.575-.309,2.207.09a2.745,2.745,0,0,0,.392.247,1.793,1.793,0,0,0,.639.014c.873-.055,1.822.5,2.558.02a2.43,2.43,0,0,1-.2-.79.8.8,0,0,1,.351-.7,1,1,0,0,1,.97.125,2.651,2.651,0,0,0,.908.446c.33.055.688-.075.99.055a1.329,1.329,0,0,1,.426.351,6.182,6.182,0,0,1,1.41,2.077,3.163,3.163,0,0,0,.529,1.265,2.87,2.87,0,0,0,.977.53,6.682,6.682,0,0,1,1.643,1.051c.055.049-.062.124-.062.193-.007.028.014.055.027.076.069.1.138.206.2.3.151.227.309.454.461.675a1.527,1.527,0,0,0,.8.715c.014.007.042.013.042.034s-.014.021-.027.013l.013.117a20.259,20.259,0,0,1,1.534,2.489.894.894,0,0,1,.13.8.905.905,0,0,1-.378.338,4.621,4.621,0,0,1-3.018.935c-.5-.09-1.094-.324-1.452.041.784.659,1.575,1.32,2.359,1.98.613.51,1.485,1.046,2.139.584a2.007,2.007,0,0,1,.488-.351c.516-.157.881.565,1.4.668.5.089.894-.379,1.3-.681a4.377,4.377,0,0,1,1.334-.6q2.991-.971,5.989-1.933c1.217-.4-.11-7.667-.494-7.467s-.826.563-.7.983c.089.323.461.461.791.5s.275,3.734.062,3.4c-.089.881-.983,1.424-1.774,1.823a9.024,9.024,0,0,1-2.674,1,4.577,4.577,0,0,1-4.69-2.606,2.3,2.3,0,0,1-.22-.819,7.362,7.362,0,0,1,.688-2.11l.386-1.121a3.778,3.778,0,0,0-.021-.785l.138-1.348c.076-.24.151-.481.22-.728l.076-1.156c.069-.213.144-.426.213-.64l.282-1.361a1.863,1.863,0,0,0,.152-.723l.336-1.664c.028-.474.063-.955.089-1.43l.681-1.76c.083-.316.152-.639.206-.963l.193-1.2c.117-.371.234-.75.344-1.114l.33-1.706a4.245,4.245,0,0,0,.089-1.017l.213-.778a2.5,2.5,0,0,0,.241-1.4l.316-.97a7.223,7.223,0,0,0,.193-1.382l.557-1.341c.007-.365.007-.722.014-1.086,0-.151-.02-.331-.151-.4l.22-1.382c.089-.351.186-.7.268-1.053l.364-.983a.591.591,0,0,1,.027-.537c.041-.068.083-.193,0-.206l.323-.915a.765.765,0,0,0,.055-.647l.406-.873v-.461l.165-.812c-.2.227-.358.489-.626.441a.677.677,0,0,1-.337-.234c-.358-.386-.743-.957-.454-1.4.118-.186.323-.3.468-.461a1,1,0,0,0-.316-1.383,1.754,1.754,0,0,0-1.54-.062,10.334,10.334,0,0,0-1.41.75,2.625,2.625,0,0,1-1.52.392.269.269,0,0,1-.206-.089.326.326,0,0,1-.063-.2,7.47,7.47,0,0,0-.089-1.244l-5.57,1.877c-.062.089-.123.166-.193.255M359.934,627.04a1.054,1.054,0,0,1-.481.227.634.634,0,0,1-.5-.055.376.376,0,0,1,.014-.585.625.625,0,0,1,.419-.069h.014c.048-.006.069-.068.1-.11.082-.1.248-.028.351.048s.212.172.212.3a.331.331,0,0,1-.131.248m3.342-.234a.6.6,0,0,1-.378.062,1.17,1.17,0,0,1-.536-.338c-.11-.1-.234-.24-.186-.384a1.766,1.766,0,0,0,.193-.028c.268-.042.805-.021.97.185a.386.386,0,0,1,.11.309.3.3,0,0,1-.172.193m8.411-1a.493.493,0,0,1-.221.117,5.259,5.259,0,0,1-1.568.234,1.509,1.509,0,0,0-.839.144c-.289.186-.378.565-.605.812a1.228,1.228,0,0,1-.743.344.827.827,0,0,1-.86-.316.687.687,0,0,1,.172-.763,3.017,3.017,0,0,1,.688-.475l-.248.008c.846-.276,1.555-.887,2.414-1.1a3.185,3.185,0,0,1,1.643.062c.049.117.1.227.151.344.089.193.165.441.014.591m2.4,1.815a.027.027,0,0,0-.007.014,2.127,2.127,0,0,1-.667-.55,3.05,3.05,0,0,0-1.052-.688,1.128,1.128,0,0,1-.3-.159.29.29,0,0,1-.117-.3c.041-.131.192-.193.323-.234a.3.3,0,0,1,.069-.013v-.007l-.715-.785a3.778,3.778,0,0,1,.681.3,8.048,8.048,0,0,1,2.668,2.771,9.354,9.354,0,0,1,.75,1.252c.055.131.11.255.165.385Zm1.444,2.9c-.172-.165-.35-.331-.516-.5-.089-.075-.178-.179-.144-.289.048-.144.248-.151.4-.123.069.013.144.034.213.048.021,0,.042.007.042.027s-.008.013-.014.013a1.377,1.377,0,0,1,.591,1.059c-.2.076-.413-.083-.571-.24m14.923,7.337c.158-.131.316-.261.481-.393.275-.233.241.736.1.839a.7.7,0,0,1-.488.172.334.334,0,0,1-.295-.371.529.529,0,0,1,.2-.247m-8.954.419a.255.255,0,0,1,.138-.117.34.34,0,0,1,.234.082,2.147,2.147,0,0,1,.7.929.939.939,0,0,1,1.01.406.595.595,0,0,1-.172.852,1.138,1.138,0,0,1-.6.186,2.091,2.091,0,0,1-1.244-.283.562.562,0,0,0-.1.049,2.2,2.2,0,0,1-1.21.165,2.128,2.128,0,0,1-.66-.11.659.659,0,0,1-.413-.488c-.041-.324.241-.592.5-.8a.656.656,0,0,1,.206-.131c.371-.151.819.248,1.163.055.274-.151.267-.543.446-.8m-3.294-6.271c.481.585.97,1.162,1.451,1.747L377,630.835c.089.063.179.125.261.193a6.716,6.716,0,0,1,.942.983" transform="translate(-111.362 -187.22)" fill="#d8d8d8"/>
      <path id="Trazado_34591" data-name="Trazado 34591" d="M33.3,18.113a5.769,5.769,0,0,0-1.888-.336,4.978,4.978,0,0,0-1.052.447,18.557,18.557,0,0,0-1.9.62c-.58.326-.975,1.164-.524,1.652a4.046,4.046,0,0,0-1.877-.927c-.4.494.025,1.256.583,1.555s1.23.358,1.766.7.842,1.193.344,1.585c-.635.5-1.677-.351-2.335.118a.944.944,0,0,0,.092,1.43,2.335,2.335,0,0,0,1.577.377,42.74,42.74,0,0,1-.17,5.19,2.908,2.908,0,0,1-.281,1.16c-.3.532-.895.824-1.278,1.3-1.09,1.352-.174,3.669-1.382,4.921-.354.369-.9.657-.935,1.171a1.62,1.62,0,0,0,.111.554,5.676,5.676,0,0,1,.144,2.716,11.23,11.23,0,0,1-.591,1.88q-2.033,5.359-4.063,10.714a1.67,1.67,0,0,1-.543.846,1.687,1.687,0,0,1-.835.207c-1.367.089-2.915.118-3.9-.835-1.012-.975-1.009-2.579-.853-3.975a8.239,8.239,0,0,1,.872-3.262,15.92,15.92,0,0,0,1.573-2.467c.528-1.5-.2-3.3.562-4.7a1.805,1.805,0,0,0,.27-.629,1.244,1.244,0,0,0-.506-.946A12.322,12.322,0,0,0,13.723,37.3a1.144,1.144,0,0,1-.469-.369,1.09,1.09,0,0,1,.041-.9,17.9,17.9,0,0,1,1.814-3.664c.543-.839,1.171-1.914.624-2.749-.3-.455-.883-.695-1.068-1.2a1.654,1.654,0,0,1,.288-1.359,8.465,8.465,0,0,1,4.928-3.827c.173-1.366-1.208-2.623-.9-3.964a2.674,2.674,0,0,1,.706-1.175c2.157-2.306,5.936-3.133,7.081-6.073,1.013-.089,1.762.86,2.427,1.629a11.514,11.514,0,0,0,5.442,3.521c.144.628-.7,1.045-1.337.946" transform="translate(-4.114 -3.752)" fill="#d8d8d8"/>
      <path id="Trazado_34592" data-name="Trazado 34592" d="M75.93,25.53a11.656,11.656,0,0,1-.107,3.926,3.946,3.946,0,0,1-2.453,2.874c-1.056.325-2.456.159-3.007,1.119-.248.432-.221.976-.466,1.411-.525.931-1.869.835-2.867,1.216-.839.314-1.492,1.016-2.339,1.3a2.647,2.647,0,0,1-3.409-3.225,5.246,5.246,0,0,0,.336-1.208c.044-1.559-2.55-2.564-1.951-4,.17-.4.561-.668.776-1.049A3.123,3.123,0,0,0,60.7,26.52a8.461,8.461,0,0,1,2.4-5.457,7.281,7.281,0,0,1,5.516-2.131,8.382,8.382,0,0,1,3.764-5.124,4.486,4.486,0,0,0,3.133,2.527c.632.129,1.522.414,1.363,1.042a1.071,1.071,0,0,1-.543.576c-.583.362-1.163.724-1.747,1.09q.616,1.369,1.23,2.738a1.309,1.309,0,0,0,.558.72c.639.292,1.5-.5,2.032-.044A3.408,3.408,0,0,1,75.93,25.53" transform="translate(-18.609 -4.313)" fill="#d8d8d8"/>
      <path id="Trazado_34593" data-name="Trazado 34593" d="M72.926,11.5a3.066,3.066,0,0,1,.17.536c.078.591-.528,1.023-1.053,1.311a.575.575,0,0,1-.3.092.467.467,0,0,1-.259-.122,4.662,4.662,0,0,1-1.168-1.592,1.844,1.844,0,0,1-.254-.695c-.059-.765.783-1.245,1.5-1.529.539-.215,1.078-.429,1.621-.647.255-.1.591-.188.772.023-.64.746-1.326,1.684-1.031,2.623" transform="translate(-21.884 -2.731)" fill="#d8d8d8" stroke="#01223d" stroke-width="2" stroke-dasharray="6"/>
      <path id="Trazado_34594" data-name="Trazado 34594" d="M199.456,55.138,195.9,65.975l3.555,5.783.042,7.88-6.341,3.369s3.369,6.244,2.744,8.169,2.063,8.169,3.555,10.576a23.606,23.606,0,0,1,2.833,9.613v6.251c0,1.437-2.833,12.495-2.833,12.495l.042,9.132s-3.453,8.658-3.6,9.613-8.988,0-8.988,0l-5.769-8.169,1.437-4.325,1.925-4.807-2.881-6.251-7.695-5.769-5.288,2.888s-7.688,3.844-9.132,5.288-6.251,3.844-6.251,3.844L143.165,145.5s-12.013-4.807-14.42-4.807,2.407-6.732,2.407-6.732v-9.132l2.4-6.725v-12.02l-3.349-8.7a6.537,6.537,0,0,0,.963-.385c.392-.206.722-.509,1.121-.695a8.449,8.449,0,0,1,2.647-.3,4.426,4.426,0,0,0,1.85-.633.741.741,0,0,1-.681.846c.447.392,1.059.811,1.588.543.282-.144.468-.454.763-.543a1.769,1.769,0,0,1,.86.117,2.249,2.249,0,0,0,1.616-.309,2.777,2.777,0,0,0,.371-.261,7.1,7.1,0,0,0,1.362-1.637,3.014,3.014,0,0,0,.626-1.4,2.839,2.839,0,0,0-.309-1.265,7.427,7.427,0,0,0-1.252-2.063,3.254,3.254,0,0,0-2.1-1.093c.028-.124.041-.254.069-.378a4.643,4.643,0,0,0,2.015-3.1,2.215,2.215,0,0,1,.289-.97c.241-.323.688-.454.887-.8a2.049,2.049,0,0,0,.158-.743,2.446,2.446,0,0,1,1.643-1.925,6.207,6.207,0,0,0-1.368-1.643,1.927,1.927,0,0,1-.6-1.946c.289.22.578.447.866.667a.933.933,0,0,1,.282-.846,3.078,3.078,0,0,1,.3-.22,1.216,1.216,0,0,0,.151-.11c.605-.536.3-1.527-.041-2.262a2.639,2.639,0,0,0-1.093.5c-.041-.083-.083-.158-.124-.241a2.906,2.906,0,0,0-.743-.935,1.27,1.27,0,0,1,.536-.839,1.265,1.265,0,0,0,1.265.413,1.286,1.286,0,0,0,.921-.963c.1-.523-.131-1.08.021-1.6.193-.667,1-1.08,1.066-1.781a1.66,1.66,0,0,0-.254-.9,7.481,7.481,0,0,0-.825-1.258.853.853,0,0,1-.213-.344c-.089-.323.2-.626.461-.839.811-.688,1.616-1.368,2.434-2.049a4.9,4.9,0,0,1,1-.708c.344-.165.722-.241,1.08-.371a3.789,3.789,0,0,0,2.345-3.376c.4.413,1.086.144,1.582-.138,1.348-.777,2.7-1.54,4.043-2.317A4.473,4.473,0,0,0,159.3,55.09a6.8,6.8,0,0,1,.7-1.031c.433-.406,1.08-.488,1.52-.88s.605-1.045,1.038-1.458c.7-.681,1.836-.509,2.785-.282l.715.165q5.054,1.176,10.122,2.352a8.706,8.706,0,0,0,2.331.323,4.549,4.549,0,0,0,3.823-2.455,2.876,2.876,0,0,0,.323-1.712c-.158-.963-.976-1.946-.5-2.8.22-.392.674-.605.935-.983.323-.481.468-1.293,1.052-1.252.234.014.468.193.681.089.151-.069.213-.248.316-.378.385-.488,1.169-.186,1.692.151-.021-.7.832-1.107,1.54-1.093,1.279.041,2.393.832,3.555,1.382a10.36,10.36,0,0,0,6.2.853l-.117.268q3.858-.021,7.715-.055a9.8,9.8,0,0,0,3.294-.392l-.97,5.377Z" transform="translate(-40.004 -13.695)" fill="#d8d8d8"/>
      <path id="Trazado_34595" data-name="Trazado 34595" d="M310.46,10.945a7.83,7.83,0,0,1-5.006,3.191.94.94,0,0,0-1.485-.75,1.15,1.15,0,0,0,.241,1.8c-.653,2.18-3.246,3.019-5.46,3.521q-4.312.99-8.623,1.974a11.722,11.722,0,0,0-5.075,2.035c-1.836,1.533-2.544,4-3.411,6.23a31.66,31.66,0,0,1-3.8,7.021,2.195,2.195,0,0,1-1.272,1.038c-.612.11-1.2-.3-1.815-.385-1.169-.179-2.187.75-3.005,1.609-2.056,2.173-4.126,4.47-5.034,7.317l-7.461-4.037L257.332,33.2l-2.888-2.936L245.8,32.207c1.705-.6,2.929-2.056,4.263-3.273a18.869,18.869,0,0,1,4.958-3.225,11.309,11.309,0,0,0,3.108-1.65c.715-.64,1.2-1.5,1.933-2.125a8.413,8.413,0,0,1,3.617-1.527c1.946-.474,3.885-.956,5.824-1.43a17.582,17.582,0,0,0,5.7-2.125,9.188,9.188,0,0,0,3.453-4.27q.669-1.619,1.341-3.232a1.8,1.8,0,0,0,.117-1.623c-.158-.248-.441-.392-.633-.619s-.261-.619-.014-.784a.728.728,0,0,1,.454-.076,13.881,13.881,0,0,0,5.089-.667c.336.131.33.64.144.949a4.329,4.329,0,0,0-.591.915.856.856,0,0,0,1.362.894c.419-.33.44-.949.695-1.41.536-.083,1.169.529,1.54.138.3-.309-.021-.8-.316-1.093s-.612-.791-.309-1.086c-.481.144-.963.282-1.437.426a.421.421,0,0,1-.364-.007c-.179-.124-.069-.406.069-.585a7.326,7.326,0,0,1,2.764-2.159c.144-.062.33-.124.454-.021a.412.412,0,0,1,.124.22c.138.44.282.88.419,1.313.186-.406.729-.447,1.176-.516s.977-.406.839-.832a2.747,2.747,0,0,0-.234-.406.611.611,0,0,1,.6-.811c.344.041.57.364.791.626s.578.516.887.364c-.151-.268-.3-.529-.454-.8a5.854,5.854,0,0,0,1.588.062c-.193-.151-.378-.3-.571-.454.234-.241-.055-.667-.385-.695a1.741,1.741,0,0,0-.928.309.913.913,0,0,1-.942.034,2.455,2.455,0,0,1,2.6-.915,13.092,13.092,0,0,0,2.9.461A5.267,5.267,0,0,1,298.46.445c1.238.172,1.912,1.891,3.163,1.857a2.5,2.5,0,0,1,.64-.021c.563.131.756.963,1.327,1.059a2.163,2.163,0,0,0,.846-.172c.894-.2,1.692.557,2.3,1.245a2.9,2.9,0,0,0,.79,2.331c.551.763,1.1,1.527,1.658,2.283l-.956-.956a11.194,11.194,0,0,0,2.235,2.874" transform="translate(-76.775 0)" fill="#d8d8d8"/>
      <path id="Trazado_34596" data-name="Trazado 34596" d="M402.994,240.182c-1.533,2.531-3.211,4.985-4.807,7.468a7.288,7.288,0,0,0-.915,1.767c-.351,1.183-.076,2.462-.331,3.665-.743,3.507-5.6,5.254-5.68,8.829-.068,2.778,2.929,4.958,2.793,7.736-.069,1.485-1.032,2.764-1.417,4.2-.543,2.022.089,4.112.667,6.148.076.261.152.523.22.777.626,2.269,1.148,4.985-.364,6.794l-5.081,5.467H375.1l-8.169,4.807h-6.251l-5.763,4.806-3.369-2.407-6.244-2.4-3.851,3.843h-5.708l-4.869,4.325-6.243,7.213v2.881l-2.888,4.807-3.844,3.369-4.807-2.407-10.576,2.407-10.1-.963-4.325-.481-18.263.481-2.889,1.919-12.976,3.37-2.881,3.363-10.576,4.985h-7.695l-4.326,2.221v6.732c0,1.445-1.919,11.057-1.919,11.057l-7.123,3.727-5.137-2.764-1.684-4.807h-7.689l-5.391-4.807,5.391-4.807-5.6-11.539v-3.363l.206-4.325-5.667-3.369L191.94,318.7l2.421-2.592,3.4-5.866.007-.007,1.884-3.259s-3.363-7.688,0-9.131,12.02-6.251,12.02-6.251l7.736-7.832,4.758-12.178,3.844,3.665v5.288l3.37,3.225h11.531l3.845-8.988s-4.325-5.769-2.881-7.695,5.769-14.42,5.769-14.42l5.289-1.444,8.169-3.363,3.843-1.925-3.843-7.688-3.363-2.888,1.919-7.688,2.407-5.769,2.881-4.325,7.021-5.46a5.861,5.861,0,0,1,2.511-.523,2,2,0,0,1,1.857,1.513,3.175,3.175,0,0,1,2.9-.564,2.339,2.339,0,0,0,1.066.206c.344-.069.618-.351.97-.406.777-.124,1.327.908,2.118.921a5.167,5.167,0,0,0,.907-.186c1.073-.151,2.022,1.059,3.081.832a4.194,4.194,0,0,0,.866-.378c3.273-1.527,5.515,2.111,8.836.873,1.623-.6,3.005-1.719,4.607-2.352a8.175,8.175,0,0,1,3.852-.509,22.071,22.071,0,0,1,4.634,1.313,23.544,23.544,0,0,0,6.154,1.245c1.472.083,2.944,0,4.415.034a7.046,7.046,0,0,1,2.483.406,8.076,8.076,0,0,1,2.6,2.035,21.67,21.67,0,0,1,3.927,4.93c.556,1.073.921,2.249,1.54,3.287,1.63,2.778,4.724,4.339,6.774,6.808,1.513,1.822,2.916,4.181,4.9,5.467a1.848,1.848,0,0,1,2.173-.983,2.939,2.939,0,0,1,.756.227c1.038.488,1.878,1.375,2.971,1.705.447-.915.893-1.836,1.341-2.751.323.117.646.241.97.358a2.4,2.4,0,0,1,2.359-1.148,12.338,12.338,0,0,1,2.689.715c4.408,1.341,9.1-.131,13.656-.9a5.737,5.737,0,0,1,2.394-.034c1.059.275,1.9,1.107,2.957,1.4a3.189,3.189,0,0,0,3.06-.791,3.267,3.267,0,0,1,.763-.688c1.018-.516,2.022.7,3.1,1.073a2.277,2.277,0,0,0,2.861-2.221c1.781.172,3.685.323,5.274-.5.529-.275,1-.653,1.54-.9,2.5-1.148,5.322.708,7.241,2.675s3.453,3.39,1.933,5.886" transform="translate(-59.952 -66.057)" fill="#d8d8d8"/>
      <line id="Línea_35" data-name="Línea 35" x1="5.04" y2="0.179" transform="translate(79.128 325.869)" fill="none"/>
    </g>
  </g>
</svg>
