<svg xmlns="http://www.w3.org/2000/svg" width="559.372" height="681.904" viewBox="0 0 559.372 681.904">
  <g id="Grupo_55214" data-name="Grupo 55214" transform="translate(-475 -4069.287)">
    <g id="CF1_regiones" transform="translate(4.829 4027.257)">
      <g id="Grupo_54912" data-name="Grupo 54912" transform="translate(530.271 42.03)">
        <path id="Trazado_105814" data-name="Trazado 105814" d="M764.146,193.99c-2.731-.93-2.8-3.443-3.787-5.474-.275-.562.31-1.389-.4-1.905-6.266-4.59-6.886-11.832-8.791-18.442-1.584-5.486-2.376-6.151-7.712-4.969-.264-.264-.631-.471-.757-.78-2.02-5.256-1.974-5.2-6.943-2.3-1.928,1.148-3.89,0-5.853-.356a9.64,9.64,0,0,1-4.017,2.731c-1.354.459-1.721,1.779-1.848,3.122a22.208,22.208,0,0,0,.356,6.105,6.014,6.014,0,0,1-1.274,5.382c-.092.092-.161.2-.252.3-3.7,4.269-2.972,9.181-2.364,14.208,1.48.218,1.618-.872,2-1.572a9.18,9.18,0,0,1,2.226-3.087,1.871,1.871,0,0,1,3.19,1.148,8.87,8.87,0,0,1-.964,6.6,12.164,12.164,0,0,0-2,5.738c-.1,1.905.161,3.351,2.3,4.223,2.685,1.067,2.892,2.2,1.63,4.751-.172.333-.7.723-.62.907,1.848,4.43-2.731,5.991-4.028,9a2.984,2.984,0,0,1-3.259,1.526c-.6,0-1.354-.275-1.423.712a1.377,1.377,0,0,0,1.148,1.377,10.122,10.122,0,0,0,2.215.562,12.887,12.887,0,0,1,4.51.757c.631.321,1.239.3,1.584-.436.93-1.962,2.835-1.939,4.591-2.3a45.776,45.776,0,0,0,4.9-.7,3.328,3.328,0,0,1,4.177,2.456c.574,2.3,2.192,4.04,3.007,6.094,1.71,4.3,3.638,8.733,2.571,13.588-.2.9,0,1.067.734,1.32a65.5,65.5,0,0,1,8.366,4.2,19.235,19.235,0,0,1,3.052,2.3c1.848,1.515,3.225,1.607,5.1.264a11.717,11.717,0,0,1,3.764-1.836,6.944,6.944,0,0,0,3.707-1.882,5.956,5.956,0,0,1,4.074-2.685,6.44,6.44,0,0,1-.5-2.4v-3.443c0-6.163-2.3-7.964-8.446-6.53a3.822,3.822,0,0,1-4.59-3.443c-.551-3.512-2.169-6.7-3.5-9.95a25.54,25.54,0,0,0-1.721-4.326c-.436-.677-.688-2.548.677-2.938,2.3-.643,2.892-3.144,4.969-3.925s2.02-2.41,1.951-4.212c-.092-2.3-1.641-4.5-.1-6.955C766.212,195.619,764.961,194.265,764.146,193.99Z" transform="translate(-493.458 -24.888)" fill="#472ea6"/>
        <path id="Trazado_105815" data-name="Trazado 105815" d="M779.647,392.258c1.974-.93,3.443.057,4.763,1.389a3.718,3.718,0,0,0,2.823.9,18.361,18.361,0,0,0,6.4-1.033,11.132,11.132,0,0,1,6.759-.425,15.367,15.367,0,0,0,4.189.333,69.342,69.342,0,0,0,18.2-1.7c.9-.241,1.389-.551,1.412-1.435v-3.443l-.2-56.773c0-4.476,0-8.951-.092-13.427,0-2.617-.78-3.11-3.248-2.3a5.234,5.234,0,0,0-1.744.792c-4.051,3.133-8.963,4.923-12.922,8.217a12.775,12.775,0,0,1-2.639,1.526c-4.591,2.215-9.674,3.305-13.565,6.886a4.591,4.591,0,0,1-4.705.826,4.591,4.591,0,0,0-4.59.838,7.494,7.494,0,0,1-6.564,1.285,10.248,10.248,0,0,0-6.691.838,47.448,47.448,0,0,1-6.484,2.3c-3.971,1.01-5.084.23-6.163-3.8-.2-.734-.413-1.469-.562-2.215a4.659,4.659,0,0,0-2.617-3.581,5.061,5.061,0,0,1-3.363-5.049c0-1.239-.815-2.077-2.353-2.3-.207,1.262-.413,2.5-.6,3.753a69.644,69.644,0,0,1-2.777,12.325c-.953,2.835-2.1,3.087-4.441,1.446A9.33,9.33,0,0,0,729.3,337c-2.467.78-3.443.333-4.59-2.008-.7-1.5-1.148-3.1-1.836-4.59-.838-1.985-4.923-2.835-6.564-1.435a1.274,1.274,0,0,0-.436,1.687c1.331,2.456,0,5.314,1.3,7.838a2.835,2.835,0,0,1-1.148,3.443c-4.074,3.03-8.033,6.633-13.771,4.992-.643-.184-1.308-.459-1.79,0-1.7,1.8-4.269,2.9-4.349,5.968a12.543,12.543,0,0,1-3.443,8.24c-1.641,1.836-3.018,3.443-5.738,2.7-.643-.184-1.515-.161-1.664.482-.689,2.835-3.133,4.59-3.581,7.827-.861,6.105-1.7,12.624-8.515,15.642-.149.069-.161.425-.241.654.631.907,1.641.436,2.456.654,2.146.551,2.043,2.754,3.122,4.051s3.822.425,4.487,2.9c.723,2.7,1.148,5.3-.975,7.574a8.033,8.033,0,0,0-1.939,4.877c-.712,6.782,1.331,13.152,2.777,19.613a1.894,1.894,0,0,0,.562.987c3.443,2.869,5.738,7.23,11.212,7.2,2.605,0,5.027,1.148,5.531,4.315a1.687,1.687,0,0,0,1.859,1.549,3.752,3.752,0,0,1,2.708,1.262c1.148,1.251,2.548.987,3.925.551,3.707-1.148,7.287-2.869,11.247-2.066,0-4.292.069-8.114,0-11.935-.115-4.981-.459-9.961-.516-14.919,0-3.317.551-3.569,3.89-2.926s6.622,2.043,10.168,1.389a31.9,31.9,0,0,1,6.105-.459,8.883,8.883,0,0,0,7.1-3.133,12.922,12.922,0,0,0,2.663-4.59c.849-2.571,3.776-3.718,4.992-1.951,1.653,2.433,2.743,2.3,4.441.287a4.362,4.362,0,0,1,2.02-1.044c3.133-1.01,5.371-4.384,9.181-3.535a1.18,1.18,0,0,0,.631-.4c1.962-2.456,4.349-3.19,7.46-1.216C777.972,395.184,777.593,393.188,779.647,392.258Z" transform="translate(-500.34 -1.884)" fill="#fd8f25"/>
        <path id="Trazado_105816" data-name="Trazado 105816" d="M710.749,182.072c.78,3.087,1.618,6.174,2.536,9.181a19.865,19.865,0,0,1,.757,8.332c-.344,2.743-1.285,5.5-.115,8.263-1.951,3.443-.689,6.564.7,9.778a5.2,5.2,0,0,1-.161,3.443,7.689,7.689,0,0,0,.677,6,8.745,8.745,0,0,1,7.586-.31,3.7,3.7,0,0,0,1.515.092c.517,0,1.148-.333,1.148-.838.115-2.479,3.948-2.617,3.374-5.52-.241-1.216-.7-2.479.069-3.73.436-.7,0-1.148-.666-1.457-2.594-1.148-2.72-3.443-2.743-5.818a16.067,16.067,0,0,1,2.364-7.7c-.149-.677-.3-.712-.551-.448-1.148,1.148-2.3,2.685-4.177,2.18-2.158-.585-1.974-2.743-2.4-4.43-.482-1.859.585-4.086-1.549-5.6-.631-.448,0-1.469.493-2.031,2.066-2.169,2.7-5.21,4.59-7.471,1.32-1.549.712-3.443.448-5.176a14.071,14.071,0,0,1,.184-6.45c.459-1.526,1.148-3.03,2.743-3.443,2.3-.654,3.638-2.3,4.981-4.005l.184-.23c1.515-3.833,4.063-7.115,4.786-11.476.516-3.144,3.982-5.738,6.61-8.114,1.458-1.32,2.169-2.456.861-4.659-2.226-3.776-.241-7.746.8-11.419.7-2.444,1.6-4.763,1.4-7.322a4.2,4.2,0,0,1,.1-1.389c-2.3-2.3-5.21-2.582-8.263-2.456-3.822.161-4.935-1.148-3.581-4.728.172-.471.459-.907.643-1.389,1.148-2.823.287-4.5-2.731-5.325-2.421-.677-2.559-.9-2.158-3.443.5-3.19-.138-3.948-3.259-3.649-3.581.344-6.886,1.664-10.845,2.685,4.464,3.087,3.328,6.4,1.044,9.755a11.649,11.649,0,0,0-1.538,3.9,5.061,5.061,0,0,1-4.1,4.063c-1.917.425-3.443,1.572-5.245,2.3-3.982,1.653-5.509,5.061-6.633,8.848-.367,1.251.207,1.894,1.01,2.617,3.236,2.915,5.486,6.691,8.446,9.87a9.525,9.525,0,0,1,2.3,5.979c.241,3.443-1.664,5.072-4.946,4.246a3.212,3.212,0,0,1-.723-.264,5.05,5.05,0,0,0-6.025.7,7.791,7.791,0,0,1-1.756.838c.379,1.216,1.515,1.32,2.3,1.882a8.033,8.033,0,0,1,3.443,5.348,4.3,4.3,0,0,0,1.905,3.443,4.67,4.67,0,0,1,1.733,3.317c.321,1.756.47,3.523,1.962,4.831a1.664,1.664,0,0,1,.356,2.123C709.406,177.907,710.221,180,710.749,182.072Z" transform="translate(-496.5 -33.582)" fill="#21bfaa"/>
        <path id="Trazado_105817" data-name="Trazado 105817" d="M685.281,359.261a1.515,1.515,0,0,0,2.3,1.94c1.676-2.3,4.258-4.189,4.086-7.528a7.551,7.551,0,0,1,3.271-6.576c.792-.631,1.423-1.469,2.192-2.135a3.592,3.592,0,0,0,1.285-3.741c-.252-1.251-.333-2.536-.482-3.8a9.755,9.755,0,0,1,2.077-7.827c2.433-3.007,4.223-6.461,3.19-10.57,0-1.584.057-3.11,0-4.59a2.031,2.031,0,0,0-1.4-2.077c-1.148-.321-1.446.769-1.779,1.561a13.9,13.9,0,0,1-2.3,3.936c-2.054,2.3-2.685,4.877-1.32,7.769a4.659,4.659,0,0,1,.356,3.351,30.779,30.779,0,0,0-1.148,9.422,5.1,5.1,0,0,1-3.03,4.912c-3.236,1.721-3.443,1.974-2.846,5.463a7.517,7.517,0,0,1-1.411,6.14C687.29,356.3,686.245,357.757,685.281,359.261Z" transform="translate(-498.552 -2.133)" fill="#472ea6"/>
        <path id="Trazado_105818" data-name="Trazado 105818" d="M636.052,358.224c-1.549,3.443-1.469,7.551-3.936,10.684a2.4,2.4,0,0,0-.3,1.469,25.408,25.408,0,0,1-3.443,13.921,2.571,2.571,0,0,0,.138,3.213c1.389,1.492,2.8,3.133,4.717,3.833,1.6.585,2.594-1.285,3.971-1.836a5.732,5.732,0,0,0,1-.574c3.133-2.031,7.046-3.225,8.033-7.528a1.435,1.435,0,0,1,.78-.815c2.066-.769,2.548-2.651,3.317-4.407.5-1.148,1.021-2.881,2.3-2.823,2.846.138,5.933-.115,8.492.9,1.848.723,2.961.849,4.43-.2a11.478,11.478,0,0,1,1.985-1.148,3.362,3.362,0,0,1,3.58.689c1.044.815.918,1.951.643,3.144-.218.907-1.228,1.664-.654,2.926,2.49-.7,5.291-1.641,6.036-3.707.838-2.364,2.858-4.705,1.538-7.781-.792-1.836.367-3.6,2.479-4.005,5.555-1.079,6.679-5.853,8.24-9.961,1.469-3.913.3-8.355,1.974-12.98-1.262.138-1.871.413-2.215.207-2.605-1.457-4.786-.757-7.276.608-2.215,1.148-4.487.069-6.243-1.641s-.964-3.764.092-5.577,2.3-3.707,1.951-5.738c-.585-3.6.493-6.886,1.526-10.1,1.572-4.969-.585-10.076.666-15.068a14.535,14.535,0,0,0,.1-3.81c0-.838-.436-1.7-1.343-1.423-1.917.562-3.787.138-5.681.1a3.041,3.041,0,0,0-3.133,2.226c-1.733,4.246-2.858,4.59-6.955,2.731a1.974,1.974,0,0,0-1.561-.115,3.962,3.962,0,0,1-.528,1.262c-1.813,2.054-2.559,4.246-1.5,6.978a3.145,3.145,0,0,1-1.148,3.443,5.738,5.738,0,0,0-1.526,5.543c.975,5.027.62,5.612-3.856,8.205-1.871,1.148-4.177,2.3-4.4,4.522-.471,4.786-2.548,9.055-3.672,13.611a6.117,6.117,0,0,1-3.294,4.4C638.622,352.9,637.325,355.446,636.052,358.224Z" transform="translate(-506.991 -4.149)" fill="#472ea6"/>
        <path id="Trazado_105819" data-name="Trazado 105819" d="M683.425,378.247a6.7,6.7,0,0,0,3.443-5.187c.6-3.385,2-6.6,2.135-10.1a2.5,2.5,0,0,1,.78-1.675c1.744-1.331,2.054-3.443,3.122-5.2.78-1.228.861-2.5-.367-4.246-.356.643-.528.975-.723,1.3-1.641,2.64-3.351,5.13-6.886,5.52-1.148.126-1.32,1.044-.746,2.008a3.34,3.34,0,0,1-.551,4.51,3.913,3.913,0,0,0-.815,2.1c-.838,3.443-6.163,7.4-9.755,7.161a6,6,0,0,1-1.848-.413c-1.6-.712-1.94-1.859-1-3.374.562-.9,1.584-1.549,1.5-2.789-.516-.092-.826-.253-.987-.161-2.628,1.584-5.176,3.615-8.332,1.021a.781.781,0,0,0-.712,0c-1.974,1.216-3.649.057-5.738-1.01-1.148,2.9-1.894,6.013-4.889,7.459-.149.069-.184.471-.2.723-.092,1.63-1.343,2.3-2.433,3.236a63.557,63.557,0,0,1-8.733,5.52,3.936,3.936,0,0,0-2.3,4.682,19.836,19.836,0,0,0,.723,3.351c1.331,3.443,2.617,6.886,3.913,10.386a10.121,10.121,0,0,1,.689,2.169c.241,1.962-.47,2.64-2.41,3.144-3.018.769-4.831-.7-6.094-3.053-1.148.31-1.458,1.262-2.02,1.905-1.48,1.687-3.443,2.02-5.543,2.169-1.148.08-2.02-1.423-3.19-.5s-.872,2.353-1.48,3.443a11.479,11.479,0,0,0-.688,1.779c-2.077,6.128-2.077,6.128-8.263,5.21-2.559-.379-3.385.448-2.605,2.926.516,1.607,1.216,3.11.4,4.774-.631,1.274.2,1.526,1.148,1.767,4.143,1.044,4.476,1.412,5.049,5.405.436,3.076.413,3.2,3.638,3.73,1.859.31,3.213.849,3.443,2.881s1.412,1.79,2.766,1.32,2.594-1.044,3.649-.08c1.825,1.653,3.144.826,3.994-.757,2.548-4.786,7.012-8.1,9.629-12.807.528-.918,1.228-1.848,2.3-1.767,2.444.172,3.374-1.5,4.269-3.2a23.493,23.493,0,0,1,6.346-7.6c1.859-1.458,2.972-3.1,2.708-5.509a4.005,4.005,0,0,1,2.685-4.522,10.191,10.191,0,0,0,5.337-5.738,5.428,5.428,0,0,1,2.869-3.443,2.777,2.777,0,0,0,1.871-3.03c-.218-2.628,1.056-4.671,2.456-6.668C677.492,383.744,679.684,380.266,683.425,378.247Z" transform="translate(-509.607 3.704)" fill="#472ea6"/>
        <path id="Trazado_105820" data-name="Trazado 105820" d="M646.224,327.149a16.491,16.491,0,0,1,4.522-3.443,11.811,11.811,0,0,0,2.3-1.377,1.962,1.962,0,0,0,.482-2.123c-.3-1.021-1.148-.7-1.894-.7-1.779,0-3.558.08-5.325.092-1.549,0-2.926,0-3.925,1.653a4.82,4.82,0,0,1-3.925,2c-2.456.253-2.674.666-2.3,3.145.711,4.981,3.225,9.25,5.44,14.093a21.4,21.4,0,0,0,2.9-9.238A6.392,6.392,0,0,1,646.224,327.149Z" transform="translate(-505.79 -1.076)" fill="#472ea6"/>
        <path id="Trazado_105821" data-name="Trazado 105821" d="M835.84,389.486a11.661,11.661,0,0,0,4.774-2.835c-2.238-.3-3.443.8-4.786,1.389s-2.456,1.343-3.638.757c-3.018-1.492-6.381-1.676-9.468-2.846-3.672-1.377-7.287-2.881-11.361-.975a9.984,9.984,0,0,1-5.291.562,24.627,24.627,0,0,0-6.886.115,12.073,12.073,0,0,1-4.59-.264,14.069,14.069,0,0,0-7.161.344c-4.292,1.205-8.687,2.3-12.406-1.366-.975.964-.448,1.871-.493,2.72-.161,2.4-1.148,3.179-3.443,2.7a8.537,8.537,0,0,1-1.756-.711c-.585-.275-1.274-.643-1.767-.092a8.033,8.033,0,0,1-6.886,2.605c-.689,0-1.079.631-1.458,1.148a3.764,3.764,0,0,1-2.5,1.607,6.76,6.76,0,0,0-4.131,2.5c-1.561,1.71-3.225,1.572-5.061,0-.562-.459-.666-1.435-1.63-1.469-.528.241-.562.769-.723,1.228-1.974,5.486-7.425,9.181-12.624,8.527a11.831,11.831,0,0,0-3.443.23,21.093,21.093,0,0,1-10.581-.517c-2.376-.838-3.03-.287-2.949,2.18.115,3.443.356,6.886.482,10.329.229,6.381-.069,12.784.884,19.131.161,1.148,0,2.226.918,3.179a18.672,18.672,0,0,1,5.8,9.64,2.65,2.65,0,0,0,1.033,1.561,74.5,74.5,0,0,1,7.322,7.3c2.72,2.892,5.646,5.348,9.846,2.387a5.189,5.189,0,0,1,1.148-.425,11.421,11.421,0,0,0-.1-1.882,9.56,9.56,0,0,1,2.949-7.2c1.721-1.687,5.176-1.917,7.907-1.148,5.291,1.469,8.779,5.8,13.106,8.8.826,4.246,4.292,6.564,6.886,9.479a1.206,1.206,0,0,1,.172.344c.734,1.584,1.894,2.043,3.684,2.054a6.5,6.5,0,0,0,4.591-1.148,9.182,9.182,0,0,1,3.144-1.331,12.451,12.451,0,0,0,8.756-8.366c.482-1.435,1.148-2.3,2.743-1.756a2.582,2.582,0,0,0,2.685-.792c2.123-1.8,2.3-3.512,1.067-5.956s-.953-3.845,1.3-5.245c1.8-1.148,2.559-2.421,2.1-4.4-.907-3.822.7-6.978,2.513-10.122.941-1.63,2.123-2.467,4.086-1.882a5.336,5.336,0,0,0,5.566-1.6c1.549-1.526,3.282-2.858,4.785-4.418a5.164,5.164,0,0,1,4.063-1.526,53.643,53.643,0,0,0,11.361-1.079c6.105-1.457,12.291-2.605,18.132-5.313a23.873,23.873,0,0,0,6.771-5.072c-2.215-.356-4.372-.138-6.45-.425-1.687-.218-3.225-.482-4.832.356a3.925,3.925,0,0,1-4.912-.849,4.189,4.189,0,0,0-4.131-1.148c-3.753.666-5.291-.493-5.738-4.223-.31-2.7-1.274-4.441-3.994-5.417-2.364-.849-2.731-2.513-1.251-4.533a14.175,14.175,0,0,1,5.876-4.854Z" transform="translate(-494.045 8.462)" fill="#9182ca"/>
        <path id="Trazado_105822" data-name="Trazado 105822" d="M849.794,413.323c-1.836-.723-3.259.207-4.59,1.148a8.516,8.516,0,0,1-5.738,1.813,5.015,5.015,0,0,0-2.215.459,38.676,38.676,0,0,1-15.286,3.007c-2.169,0-4.177,1.285-6.427.7-.654-.172-1.148.471-1.6.9-1.5,1.389-3.064,2.708-4.591,4.108-2.054,1.939-4.281,3.236-7.241,2.421a1.6,1.6,0,0,0-2.008.677c-1.274,2.467-3.018,4.705-2.3,7.861.689,2.881.413,5.646-2.8,7.161a1.624,1.624,0,0,0-.7,2.548,9.54,9.54,0,0,1,.5,1.033c1.71,4.441-.161,8.114-4.82,9.043a3.867,3.867,0,0,0-2.892,2.054c-2.4,3.936-5.543,6.955-10.329,8.033-1.366.3-3.282.689-3.11,2.743a23.909,23.909,0,0,0,1.148,3.626,2.3,2.3,0,0,0,2.754,1.962c1.228-.1,1.813.677,2.112,1.8a11.97,11.97,0,0,0,2.008,4.1c1.148,1.5,2.054,2.812,4.281,2.41,1.744-.31,2.949.918,3.592,2.364,1.262,2.858,3.523,3.707,6.415,3.936,1.859.149,3.856.344,5.279,1.905.161.184.5.436.643.379,4.051-1.8,6.564,2.5,10.26,2.571a5.256,5.256,0,0,1,5,4.108c.126.482.206,1.32.459,1.377,2.949.734,2.766,3.236,3.236,5.417a9.833,9.833,0,0,0,1.021,2.467c1.308,2.444,1.756,2.651,4.59,1.928a49.317,49.317,0,0,0,4.751-1.469c3.936-1.4,4.131-1.343,5.738,2.387a5.668,5.668,0,0,0,1.721,2.915c1.148.757,2.089,1.4,3.443.229a8.8,8.8,0,0,1,2.651-1.515,3.971,3.971,0,0,1,4.705,2.215c.459,1.32-.471,1.779-1.423,2.3-2.571,1.377-2.628,1.813-2.066,4.384a19.315,19.315,0,0,1,0,9.089,4.969,4.969,0,0,0,.631,4.372c.574.838,1.251,1.618,1.848,2.444.734,1.021.941,2.7,2.3,2.938,1.549.275,1.687-1.653,2.628-2.433a4.464,4.464,0,0,1,4.59-1,6.657,6.657,0,0,0,4.086.539,2.777,2.777,0,0,1,3.512,1.561c.849,1.676,2.134,1.848,3.867,1.389,2.892-.769,3.523-.585,4.246,2.112s2.18,3.248,4.59,3.649l1.389.241c.08-2.112.115-4.223,0-6.346a2.054,2.054,0,0,0-.78-1.917c-2.938-2-4.349-5.348-6.886-7.689a4.292,4.292,0,0,1-.746-6.105,3.891,3.891,0,0,0-.138-4.935c-1.905-2.18-3.443-4.694-5.623-6.645-.953-.849-2.3-2-3.064-1.756-3.19.987-3.638-1.664-5.061-3.167-1.7-1.79-3.569-3.581-3.374-6.163.62-7.678.138-15.355.367-23.033,0-.953-.057-2.158,1.148-2.685,3.11-1.377,6.358-2.444,8.894-4.935.459-.448,1.779-.23,2.605,0s1.756.539,2.3-.08c2.421-2.8,5.83-2.066,9.181-2.708.551,4.59,5.738,2.708,7.609,5.738,1.917-1,3.133-2.5,5.1-3.076-.9-1.917-1.974-3.443-1.457-5.279,1-3.535-.975-6.2-2.077-9.3-1.228-3.443-3.328-3.225-5.6-2.926-4.82.631-9.56.861-14.208-.838a3.179,3.179,0,0,0-4.223,1.538v-.769a3.626,3.626,0,0,1-1.148-3.064c-.069-6.013,0-12.05-.471-18.029a8.029,8.029,0,0,1,0-1.148,4.074,4.074,0,0,0-2.72-.872c-2.49.321-4.1-.918-5.428-2.835a7.964,7.964,0,0,0-5.451-3.81c-2.617-.448-3.133-3.236-1.389-5.818C847.843,415.756,849.462,415.113,849.794,413.323Z" transform="translate(-485.472 12.742)" fill="#9182ca"/>
        <path id="Trazado_105823" data-name="Trazado 105823" d="M901.817,267.757a10.869,10.869,0,0,1-6.507-.654c-4.51-2.089-8.481-.7-12.3,1.331a10.145,10.145,0,0,1-7.138,1.148c-.4.3-.826.585-1.262.861a9.181,9.181,0,0,1-6.53,1.687,9.468,9.468,0,0,0-6.886,1.641,19.511,19.511,0,0,1-4.671,2.433,3.282,3.282,0,0,0-2.3,2.364c-.275.975-.953,1.848-1.148,2.823-1.48,6.656-6.782,9.376-12.406,10.466-6.369,1.239-10.994,5.245-16.342,8.033a4.166,4.166,0,0,0-1.71,2.9,7.8,7.8,0,0,1-4.591,5.245c-4.487,2.1-7.069,6.461-10.581,9.732-1.079,1.01-.815,2.628-.815,4.04v24.18q.2,25.133.436,50.266c0,4.51,1,5.738,5.474,6.484a11.476,11.476,0,0,1,4.751,1.331,4.074,4.074,0,0,0,4.659-.172,8.951,8.951,0,0,1,7.666-1.056c2.513.792,6.886-2.582,7.563-5.635a11.9,11.9,0,0,1,4.143-7.437c1.32-1.079,3.133-3.282,2.158-5.945a4.591,4.591,0,0,1,.333-3.374c.459-1.044,1.32-1.917,2.3-1.6,3.2,1.033,5.979-.861,8.94-.861.643-1.331-.838-2.628.264-3.753a5.623,5.623,0,0,1,3.856-1.389c3.9-.31,7.448-1.4,10.214-4.418,1.343-1.469,3.294-1.905,5.164-2.353a2.1,2.1,0,0,1,2.421.746c.838,1.538,2.215,1.228,3.546,1.538,2.226.516,4.04.918,5.681-1.308.746-1.01,2.41-.723,3.661-.6,5.738.562,11.075-1.767,16.675-2.192,1.618-.126,2.3-1.446,2.938-2.731,1.148-2.4,2.869-3.9,5.738-3.328a2.823,2.823,0,0,0,2.777-.964c2.881-3.317,6.645-3.443,10.558-2.858a3.959,3.959,0,0,0,2.846-.528,6.7,6.7,0,0,1,7.919.425,4.59,4.59,0,0,0,5.187.838c-.7-4.59-3.03-8.848-3.741-13.519-1.01-6.518-3.443-12.75-.918-19.659a14.506,14.506,0,0,0-.47-10.329,4.866,4.866,0,0,1,.184-3.443c.252-.643,1.2-1.262.838-1.848-3.34-5.405,1.538-7.241,4.269-10.007s3.363-5.979,3.064-9.594a6.564,6.564,0,0,1,2.605-6.243c4.59-3.718,5.738-10.535,3.581-14.919-1.067-2.123-2.112-3.282-4.671-2.3-1.905.723-3.144-.964-4.59-1.859-4.843-3-4.407-2.008-8.515.241s-8.309,4.453-13.381,3.282a4.935,4.935,0,0,0-4.659.987,8.951,8.951,0,0,1-9.181,1.572C906.58,266.655,904.124,267.344,901.817,267.757Z" transform="translate(-480.607 -9.921)" fill="#fd8f25"/>
        <path id="Trazado_105824" data-name="Trazado 105824" d="M686.767,270.422c-1.859,1.148-1.985,3.167-1.572,5.049s1.228,3.546,3.443,3.535c1.871,0,3.558,1.308,5.589.379,1.2-.562,2.2.482,2.559,1.676a13.961,13.961,0,0,1,.4,3.03c.126,2.089,1.056,3.328,3.271,3.443a5.612,5.612,0,0,1,4.131,1.721,6.886,6.886,0,0,0,7.287,2.146,28.555,28.555,0,0,1,4.889-.872c2.2-.138,3.179-1.148,3.271-3.34a15.034,15.034,0,0,1,3.523-8.722,2.5,2.5,0,0,1,3.672-.723,8.733,8.733,0,0,1,3.592,8.733c3.6-1.974,7.792-2.915,10.638-6.2a1.572,1.572,0,0,1,1.79-.367c2.192.872,3.363-.367,4.349-2.008,1.148-1.882,2.3-3.707,4.728-4.12,1.148-.2,1.3-1.148,1.216-2.077a30.055,30.055,0,0,0-.539-3.007c-.493-2.639-1.148-5.256-1.434-7.907-.2-1.756,1.148-2.835,3.19-3.041,1.813-.2,2.743.574,3.03,2.548.1.757,0,1.549.161,2.3.218.975,1.24,1.32,1.687.631,1.733-2.64,4.969-4.59,3.741-8.653a7.288,7.288,0,0,1,.264-5.268,2.594,2.594,0,0,0-1.4-3.822c-3.443-1.262-6.105-4.04-9.8-4.866-2.571-.585-3.317-1.939-2.169-4.166a6.392,6.392,0,0,0,.253-5.52c-1.274-2.984-1.148-6.587-3.879-8.974-1.343-1.148-.229-4.384-2.789-4.361a43.9,43.9,0,0,0-5.669.562c-.643.092-1.423.149-1.653.78-1.148,3.19-3.156,2.674-5.486,1.457a6.221,6.221,0,0,0-2.617-.493c-3.213-.126-5.738-1.251-6.736-4.59-.367-1.148-.93-1.572-2.3-1-3.317,1.435-4.923.493-5.44-3.087a13.7,13.7,0,0,1,.08-5.738c.654-2.364-.78-4.166-1.63-6.128a.757.757,0,0,0-.941-.436c-.31.115-.769.493-.746.712.344,2.869-1.148,6.014.677,8.6,2.054,2.938,1.251,5.738.666,8.8s.734,6.564-1.721,9.181-2.812,5.589-3.684,8.642a4.3,4.3,0,0,0,1.5,5.015c2.513,2.146,2.444,2.559-.253,4.453-3.248,2.3-6.668,4.4-8.963,7.678a15.55,15.55,0,0,1-7.333,5.876c-2.858,1.148-2.789,1.251-2.1,4.166C690.348,265.429,690.015,268.367,686.767,270.422Z" transform="translate(-498.558 -18.875)" fill="#472ea6"/>
        <path id="Trazado_105825" data-name="Trazado 105825" d="M679.75,284.628a5.933,5.933,0,0,0,6.082.551,6.88,6.88,0,0,1,1.148-.31c4.659-1.4,6.782-1.641,6.989,5.313.1,3.558,1.262,5.818,4.361,7.3a9.892,9.892,0,0,1,3.5,2.926c1.067,1.377,2.157,1.148,3.121-.172.608-.815,1.148-1.7,1.767-2.5a8.757,8.757,0,0,1,5.359-3.443c3.19-.6,3.271-.654,4.005,2.594.207.861.413,1.377,1.389,1.435,1.9.092,2.525,1.48,2.892,3.064A5.13,5.13,0,0,0,722.843,305c2.364,1.412,2.663,4.246,3.753,6.518a6.335,6.335,0,0,1-.608,6.886c-1.148,1.733-.815,2.846,1.148,3.6,2.421.918,4.258,2.158,5.061,4.728a2.112,2.112,0,0,0,2.066,1.446,3,3,0,0,1,2.835,1.641c.528,1.148,1.24,1.572,2.4.826s2.376-1.7,1.767-3.03c-2.433-5.268.436-8.378,4.258-11.155.941-.689,1.366-1.32.884-2.548a5.405,5.405,0,0,1,0-4.843,24.455,24.455,0,0,1,5.245-6.564c1.457-1.148,2.846-.241,4.074.872,2.754,2.479,2.984,2.479,5.233-.413,1.779-2.3,4.43-3.741,5.807-6.461.723-1.446,2.387-1.779,4.04-1.63,1.446.138,3.007-1.251,3.661-3.018.551-1.515-.448-2-1.469-2.628q-2.617-1.618-5.1-3.443c-2.146-1.526-2.215-2.812,0-4.384.975-.7,1.48-1.308,1.331-2.456a5.6,5.6,0,0,1,.528-2.984,2.789,2.789,0,0,0-.31-2.858c-1.848-2.972-1.469-5.738.792-8.458a37.761,37.761,0,0,0,2.731-4.166c.482-.757.975-1.836,1.825-1.859,4.981-.172,4.258-4.843,5.956-7.517.838-1.308.528-3.294,2.3-4.235a.884.884,0,0,0,.448-.585c0-3.569,2.548-5.991,3.822-8.986.149-.356.31-.7.482-1.044h-.849a4.705,4.705,0,0,1-2.433-.826,16.063,16.063,0,0,1-1.916,1.32c-2.64,1.526-5.13,3.225-8.114,4.063a5.314,5.314,0,0,0-2.146,1.549c-1.148,1.216-2.043,2.743-4.12,1.63-.746-.39-1.148.31-1.4.884a5.738,5.738,0,0,0-.126,4.12c1.239,5.072-2.421,8.033-4.958,11.419-.654.872-1.882.689-2.9.425s-1.859-.585-2.777-.9a6.462,6.462,0,0,0,.448,3.661,10.259,10.259,0,0,1,.276,4.177c-.092,1.561-.757,2.892-2.3,3.1-2.089.275-3.03,1.618-3.982,3.19-1.251,2.031-2.777,3.718-5.52,3.363a3.27,3.27,0,0,0-2.089.8,43.84,43.84,0,0,1-5.038,2.754,7.6,7.6,0,0,0-4.591,4.258c-.47,1.148-1.148,2.4-2.766,2.226s-2.146-1.63-2.49-3.007a5.806,5.806,0,0,1,.149-3.764c.379-.9,1.641-1.5,1.044-2.674a5.452,5.452,0,0,0-2.479-2.938c-2.708,1.848-3,4.809-3.512,7.666-.207,1.148-.2,2.3-.459,3.443-.207.9-.769,1.825-1.825,1.584-2.789-.631-5.291.62-7.919.975-3.328.448-6.392.23-8.837-2.421a5.314,5.314,0,0,0-3.007-1.48c-4.5-1-5.164-1.836-5.543-6.381a9.092,9.092,0,0,0-.218-1.148c-3.948.792-8.779-1.538-11.866-5.738-1.274.2-1.148,1.3-1.148,2.054a14.563,14.563,0,0,1-2.181,9.479A5.989,5.989,0,0,0,679.75,284.628Z" transform="translate(-499.333 -13.48)" fill="#472ea6"/>
        <path id="Trazado_105826" data-name="Trazado 105826" d="M619.124,456.745c.31,3.041,2.41,4.659,4.877,5.922a2.49,2.49,0,0,0,2.215-.172c2.674-1.148,5.279-2.685,8.286-.689.654.436,1.572-.2,1.825-.953s-.413-1.079-1.148-1.205c-2.364-.448-3.328-2.869-5.451-3.822-1.148-.5-1.308-2.387-1.148-3.856.459-3.018.6-6.128,2.915-8.573a15.263,15.263,0,0,1-1.549-1.492c-.815-1.01-4.59-4.2-5.612-4.522-2.3-.7-2.743-2.3-2.789-4.453-.08-3.34-.161-3.34-3.443-4.051-2.64-.574-3.753-2.215-2.72-4.671a3.374,3.374,0,0,0-.149-3.213,5.084,5.084,0,0,1-.482-2.984c.253-2.582,1.343-3.6,3.982-3.558a20.52,20.52,0,0,1,4.166.539,1.767,1.767,0,0,0,2.3-1.308c.757-2.18,1.48-4.361,2.3-6.53,1.148-3.362,2.353-4.063,5.738-3.053a3.948,3.948,0,0,0,4.923-1.779,16.669,16.669,0,0,1,1.09-1.572c1.607-1.871,2.743-1.813,4.258.241.459.608.746,1.343,1.148,1.962a1.5,1.5,0,0,0,2.066.39c.746-.4.39-1.09.172-1.676q-1.733-4.464-3.305-9a18.612,18.612,0,0,1-1.354-6.3A4.831,4.831,0,0,0,640,382.15c-.93-.654-1.7-1.549-2.605-2.3a4.808,4.808,0,0,1-1.974-5.05c.413-1.974-.723-2.605-2.3-3.363-3.443-1.721-7.035-.689-10.558-.734-.93,0-1.067.964-1.148,1.71-.585,3.443-2.754,5-6.163,5.049a2.819,2.819,0,0,0-1.469.241c-2.077,2.158-4.831,2.3-7.459,3.1-2.112.654-3.443.654-4.659-.93a4.235,4.235,0,0,0-4.981-1.779c-2.054.539-3.913-.241-5.887-1-2.9-1.148-4.74-3.7-7.6-4.831-1.285-.516-1.549-2.3-1.985-3.592-.115-.356-.23-.677-.356-.987-1.458.975-1.744,3.443-2.157,5.222-.918,3.879-2.617,7.012-6.255,8.779-2.513,1.228-2.49,3.73-2.984,5.807-1.056,4.476-1.549,5.268-5.83,5.738a4.247,4.247,0,0,0-2.146.689,2.344,2.344,0,0,0,0,.287,5.039,5.039,0,0,0,1.435,3.81c2.834,3.271,5.738,6.473,7.012,10.834a3.443,3.443,0,0,0,3.443,2.605c3,.2,5.887,1.274,9,0,1.813-.712,3.443.126,4.086,2.3a8.641,8.641,0,0,0,4.281,5.164c3.156,1.756,3.443,5.474.689,7.953-1.48,1.343-3.317,2.387-3.741,4.694l5.818,1.951c1.767.62,2.88-.413,4.04-1.492,2.846-2.628,4.361-2.513,6.266.723a10.959,10.959,0,0,0,2.846,3.007c2.8,2.3,3.053,3.443,1.079,6.392-1.446,2.18-.746,4.166.184,6.14a1.3,1.3,0,0,0,2.238.344c1.274-1.343,3.248-1.48,4.464-2.9a1.607,1.607,0,0,1,2.651.138c1.434,1.675,2.731,3.443,2.157,5.853a15.023,15.023,0,0,0-.31,5.026Z" transform="translate(-516.791 6.044)" fill="#ef2a66"/>
        <path id="Trazado_105827" data-name="Trazado 105827" d="M646.405,289.383c-.975.31-1.974.838-2.972.356-1.825-.884-3.259-.08-4.59.987-1.148.907-3.122,1.469-2.674,3.294s2.3.838,3.615.941a3.638,3.638,0,0,1,3.684,3.626c0,1.939-1.618,3.856-3.615,3.638-2.467-.264-2.743.918-2.858,2.812a43.1,43.1,0,0,1-.8,4.533c4.453-2,5-1.813,6.473,2.3.448,1.251.815,2.123,2.364,1.664,3.041-.9,5.5.207,7.609,2.364.539.551,1.01,1.216,1.928.746s1.5-1.148,1.148-2.158c-1.148-2.938-.207-5.268,1.423-7.827,2.02-3.213,2.123-3.523,5.818-2.158,2.3.838,2.594.884,3.305-1.5a4.751,4.751,0,0,1,5.44-3.753c2.3.207,4.59-.516,6.817-.413,1.216,0,1.538-.608,1.813-1.5.62-2.077,1.308-4.131,1.836-6.232a33.428,33.428,0,0,0,.516-9.915,1.836,1.836,0,0,0-1.228-1.767c-.918-.321-1.4.356-1.871.953s-1.044,1.457-1.526,2.2c-1.676,2.559-3.615,4.074-7.023,3.11-2.628-.746-4.223.425-5.291,3a17.2,17.2,0,0,1-.93,2.1c-1.056,1.894-2.536,3.259-4.843,3.19a4.59,4.59,0,0,1-4.591-3.443c-.723-3.1-3.317-4.751-4.717-7.264-.379-.689-.849-.884-1.538-.5s-1.423.757-1.251,1.687c.08.493.47.918.6,1.4C649.079,288.133,648.712,288.672,646.405,289.383Z" transform="translate(-505.776 -7)" fill="#472ea6"/>
        <path id="Trazado_105828" data-name="Trazado 105828" d="M616.969,345.4a37.366,37.366,0,0,0-6.886,3.294,2.64,2.64,0,0,1-4.005-.735,2.3,2.3,0,0,0-2.582-1.148c-.471.1-1.228.092-1.458-.2-1.882-2.3-4.59-1.894-7.023-2.146a5.658,5.658,0,0,1-3.156-1.274c-2-1.687-4.315-1.917-6.817-1.721a2.674,2.674,0,0,0-1.94.941c-1.515,1.618-3.11,3.133-4.763,4.591l.218.184c1.389,1.01,1.4,2.777,2.571,3.81.574-.792,1.687-1.262,2.181-2.123,2.031-3.535,3.822-3.259,6.392.356-.941,1.148-2.525,1.848-3.179,3.443.448,3.087,2.628,3.225,5.05,3.064,1.515-.1,3.259-.3,3.443,1.905.1,1.446.551,3.259-1.882,3.443-.528,0-1.48.516-1.469.734.321,4.751-3.041,6.025-6.564,7.356-1.389.516-1.974,2.158-2.674,3.443-.539.952-.711,1.939-1.561,2.605.149.4.3.815.448,1.262.482,1.6,1.148,2.789,2.892,3.19a3.282,3.282,0,0,1,2.008,1.033,8.573,8.573,0,0,0,9.181,3.213,4.407,4.407,0,0,1,4.8,1.607c.838,1.148,1.63,1.308,3.2.964,2.456-.539,4.969-.528,6.886-2.548a2.077,2.077,0,0,1,1.457-.333c3.546.149,4.866-1.779,5.394-5.038.459-2.869,1.3-3.122,4.223-2.3a2.962,2.962,0,0,0,1.446.287c3.443-1.056,6.541.161,9.686,1.262,2.364.826,2.8.585,3.443-1.859a11.958,11.958,0,0,0,.5-3.018c-.069-6.174,3.087-11.476,4.843-17.065a12.406,12.406,0,0,1,5.83-7.769,2.227,2.227,0,0,0,1.079-3.2,70.615,70.615,0,0,0-3.443-8.527,22.493,22.493,0,0,1-2.582-11.476c.069-3.03.436-3.385,3.363-3.087a2.926,2.926,0,0,0,2.858-.734c-2.479-.241-3.81-2.7-6.507-2.066-.93.207-1.458-.884-1.79-1.744-.677-1.79-1.239-3.626-2.008-5.371s-1.584-1.836-3.592-1.021c-2.926,1.148-4.131,4.063-6.381,5.91a20.763,20.763,0,0,1-3.913,3.007,8.033,8.033,0,0,0-4.8,7.287,6.036,6.036,0,0,1-1.905,4.82c-.5.425-1.067,1.148-.769,1.63,1.148,2.066.918,4.8,2.571,6.438s1.033,2.605,0,3.867a5.612,5.612,0,0,1-2.318,1.549Z" transform="translate(-514.303 -2.414)" fill="#ef2a66"/>
        <path id="Trazado_105829" data-name="Trazado 105829" d="M599.017,481.3c0-2.043-.207-3.753-2.421-4.682a2.123,2.123,0,0,1-.872-3.512c2.571-3.558,2.846-8.183,5.577-11.694,1.2-1.561,1.6-3.443-.62-4.946-1.492-1.021-1.148-2.708-.516-4.189a7.919,7.919,0,0,1,5.268-4.131c.976-.31,2-.459,2.961-.792,1.71-.585,2.789-1.331,2.123-3.626s-.78-4.59,1.021-6.53a1.5,1.5,0,0,0-.459-2.559,8.71,8.71,0,0,1-4.177-4.843c-1.366,0-1.744.78-2.3,1.274-2.077,1.859-4.292,2.743-6.966,1.251a17.1,17.1,0,0,0-4.063-1.067c-2.869-.769-3.649-2.605-2.192-5.21a16.711,16.711,0,0,1,3.867-4.223c1.905-1.7,1.825-2.789-.39-4.108a11.981,11.981,0,0,1-4.694-5.417c-.631-1.343-1.148-2.3-2.777-1.446-3.741,1.917-7.207-.448-10.788-.815-1.859-.2-2.858-2.158-3.328-3.9-1.021-3.741-3.535-6.507-5.956-9.261a10.49,10.49,0,0,1-2.353-3.833,36.39,36.39,0,0,1-3.959,1.813c-.585-.757-1.825-1.216-1.836-2.3,0-1.469-.516-1.917-1.974-1.974-1.894-.057-1.446,1.744-2.043,2.192-1.239.941-.115,2.4-1.7,3.443-3,1.882-3.73-1.033-5.417-1.79-2.3.448-3.959,1.584-4.223,3.936-.126,1.2-1.056,2.169-1.6,2.192-2.226.069-3.1,1.274-3.018,3.179.092,2.112-.666,4.246,1.423,6.209,3.581,3.385,2.536,8.825-1.871,11.017-1.366.677-1.48,2.3-1.056,2.605,1.228.78.677,1.985.953,2.846.47,1.457,0,2.364-2.192,1.962-10.776-2.008-10.019-.39-13.921,7.035,2.4,2.571,4.751,5.29,8.182,6.691,3.718,1.515,5.291,4.809,6.886,8.033.734,1.492,1.343,3.11,3.443,2.674,4.4-.907,7.448,1.435,9.491,4.682s4.694,4.028,7.792,4.476a14.921,14.921,0,0,1,6.14,2.353c3.443,2.3,7.138,3.822,11.476,3.144,2.146-.321,4.338-.562,4.763,3a6.7,6.7,0,0,0,4.843,5.738c2.112.562,1.951,2,1.905,3.512a4.177,4.177,0,0,0,3.1,4.5c2.743.6,5.474,1.8,8.32,1.756C598.971,484.409,598.983,482.872,599.017,481.3Z" transform="translate(-522.54 9.422)" fill="#ef2a66"/>
        <path id="Trazado_105830" data-name="Trazado 105830" d="M599.774,186.058a2.536,2.536,0,0,1,1.882,1.928c.7,5.864,4.166,10.96,4.59,16.881a6.174,6.174,0,0,1-1.917,5.371c-6.886-1.607-7.287-2.8-2.582-9.365a9.366,9.366,0,0,1-2.617-1.733,7.689,7.689,0,0,1-3.03,6.117c-.378.275-.86.849-.8,1.147.425,2.743-.654,4.992-2.054,7.2a1.561,1.561,0,0,0,.5,2.043,9.887,9.887,0,0,0,1.48,1.228c8.183,5,13.2,13.06,19.36,20,3.2,3.6,1.607,7.758,1.423,11.729,0,1.044-1.148,1.148-2.135,1.09a11.075,11.075,0,0,1-4.923-1.985c-2.571-1.6-4.59-.712-5.359,2.3a11.545,11.545,0,0,0-.149,1.905c-.149,1.733-.907,2.892-2.789,3.064a8.514,8.514,0,0,0-1.882.344c-1.664.551-2.112,2.3-.631,3.11,2.192,1.274,3.638,2.731,3.443,5.428-.069.734.539,1.148,1.148,1.4a4.59,4.59,0,0,1,2.708,5.061c-.333,4.1,3.018,6.266,4.59,9.353a1.412,1.412,0,0,0,1.7.516c3.1-.723,6.255-1.274,9.261-2.3,3.374-1.148,7.712.436,8.481,3.879a52.721,52.721,0,0,0,5.336,13.048,9.182,9.182,0,0,1,.952,6.312,15.034,15.034,0,0,0-.092,5.738c.425,2.41,1.79,2.869,3.764,1.377,1.32-1,2.559-2.112,3.856-3.156,1.974-1.6,4.108-2.571,6.737-1.882a2.089,2.089,0,0,0,1.825-.344c-.712-4.017.2-5.738,3.776-7.012,1.492-.539,2.869-.528,3.443,1.285a6.978,6.978,0,0,0,2.617,3.661c1.3,1,1.549,2.582,2.066,4.028s1.148,2.777,2.8,2.731,2.353-1.389,2.869-2.754c.711-1.859.93-3.982,3.305-4.8a9.582,9.582,0,0,1,5.623-.62c1.813.471,2.9-.425,3.833-1.8.78-1.148,1.584-2.3,2.444-3.443s1.94-1.962,3.282-1.5c1.767.585,2.3,0,3.041-1.6a13.06,13.06,0,0,0,1.63-6.886,9.055,9.055,0,0,1,2.777-7.333c1.7-1.618,2.077-4.338,4.682-5.245.792-.264.78-1.526.826-2.433a10.949,10.949,0,0,0-.562-3.374c-.941-3.592-.712-4.131,2.674-5.405a15.86,15.86,0,0,0,8.033-6.174c2.135-3.213,5.738-5.049,8.6-7.563,0-1.48-1.8-1.894-1.653-3.34-1.871,0-2.628,1.32-3.707,2.112-2.215,1.618-4.5,2.949-7.414,2.3a3.925,3.925,0,0,1-3.546-3.443,7.414,7.414,0,0,0-.516-2.605,9.319,9.319,0,0,1,0-10.156c.092-.149-.1-.459-.161-.712-1.607.367-1.917,1.894-2.685,3-1.389,2.008-2.192,2.077-3.776.184a7.425,7.425,0,0,1-2.054-5.968c.275-2.146.367-4.327.551-6.5a2.836,2.836,0,0,1,.23-1.48c2.858-2.5,1.343-5.669,1.033-8.424-.4-3.443-2.628-6.243-5.118-8.653a24.913,24.913,0,0,0-2.846-1.951c-1.148-.884-2.226-1.148-3.294.184a3.8,3.8,0,0,1-2.662,1.354,14.092,14.092,0,0,0-7.517,2.433c-1.492,1.148-2.961.138-4.235-.712-1.561-1.033-2.685-.975-3.833.689-2.3,3.213-3.822,7.012-7.712,8.8-.574.275-.6,1.079-.78,1.7-.849,2.846-.918,3.018-3.443,2.169-1.377-.459-1.8,0-2.387.975-2.135,3.443-4.981,6.5-6.036,10.615-.585,2.3-2.5,2.984-4.694,3.282-4.476.6-9.02-.448-13.393.321-5.359.941-8.263-.7-9.617-6.048-.769-3.03-3.2-5.474-3.822-8.722-.539-2.846-.321-5.256,1.974-7.345a9.548,9.548,0,0,0,3-6.461c.276-3.351,1.5-6.473,2.227-9.709a6.885,6.885,0,0,1,3.248-4.1,6.886,6.886,0,0,0,2.949-5.13c.333-2.754.264-3.053-2.548-4.005a4.74,4.74,0,0,1-3.443-4.189c-.3-2.18-.425-4.372-2.743-5.554a1.446,1.446,0,0,1-.631-.93,2.935,2.935,0,0,0-.115-.551,19.58,19.58,0,0,0-2.3,2.628c-3.087,4.3-7.035,6.105-11.717,7.081-1.148.241-2.3.689-3.443.826-1.5.184-2.766.574-3.064,2.3a2.582,2.582,0,0,0,1.859,3.167Z" transform="translate(-512.131 -23.13)" fill="#472ea6"/>
        <path id="Trazado_105831" data-name="Trazado 105831" d="M573.6,248.064a5.279,5.279,0,0,1,2.1,6.036c-.78,2.5.413,4.327,3.362,4.177,2.066-.1,3,1.067,3.856,2.7,2.754,5.2,2.72,10.868,3.087,16.514.3,4.59-1.412,9.181,2.479,13.588,2.938,3.294-1.412,11.27-5.979,11.648-2.008.161-3.007,1.423-4.154,2.467-1.641,1.469-1.148,3.259,1.148,3.684,1.079.218,2.353.253,2.605,1.251.907,3.661,3.787,7.023,1.951,11.109-.815,1.813-1.228,3.328.792,4.59,1.458.953.769,2.536.723,3.822-.092,2.846.092,5.382,2.7,7.345,1.653,1.251,2.3,2.835.5,5s-1.63,5.554-2.433,8.366c-.448,1.6-.207,3.317-2.915,4.177a8.32,8.32,0,0,0-4.981,5.451,6.347,6.347,0,0,0,.7,4.315c.8-.666,1.6-1.343,2.376-2.043a16.575,16.575,0,0,0,1.63-1.607c2.571-3.03,5.2-3.868,8.974-2.181,3.5,1.561,6.782,3.581,10.833,3.087,1.951,2.123,5.566.826,7.264,3.523a1.148,1.148,0,0,0,1.676.31c2.066-1.561,4.648-2.089,6.943-3.34-1.3-2.949-1-6.174-2.387-9.032-.608-1.228.218-2.513,1.308-3.34a4.35,4.35,0,0,0,1.641-3.672,9.881,9.881,0,0,1,5.738-8.871,21.737,21.737,0,0,0,6.886-6.427c1.538-2,1.469-2.938-.287-4.59a9.284,9.284,0,0,1-2.433-2.915c-2.72-6.151-2.8-8.492,3.236-12.991a6.669,6.669,0,0,1,.975-.62c3.122-1.572,4.131-3.89,4.3-7.551a20.542,20.542,0,0,0-3.362-12.624c-1.343-2.077-1.71-4.522-2.376-6.886-.964-3.317-2.823-4.258-6.151-3.374-3.076.826-6.22,1.446-9.33,2.123a3.764,3.764,0,0,1-4.476-2.112,6.884,6.884,0,0,0-1.377-2.3c-2.456-1.928-3.167-4.453-3.087-7.437,0-1.561-.344-3.064-2.135-3.684a2.754,2.754,0,0,1-1.871-3.018,3.19,3.19,0,0,0-1.917-3.443c-2.215-1.044-2.685-2.926-2.3-5.153a3.592,3.592,0,0,1,3.913-2.926c1.664-.057,2.2-.838,2.192-2.387a6.324,6.324,0,0,1,2.2-4.338c2.1-2.215,3.879-2.479,6.484-.93a10.043,10.043,0,0,0,3.615,1.859c1.044-3.121,1.469-6.105-.953-8.825-5.933-6.645-10.822-14.253-18.568-19.2-3.959-2.513-4.063-3.856-1.756-7.9a4.522,4.522,0,0,0,.792-3.959,2.6,2.6,0,0,1,1.6-3.7,4.671,4.671,0,0,0,2.571-4.407c0-.93.08-1.871.126-2.8-1.8-2.88-5.738-3.867-8.114-6.53-1.641-1.825-3.443-3.294-4.223-5.807-.975-2.926-3.225-3.443-6.048-1.951-3.626,1.917-4.04,2.949-2.3,6.14a10.33,10.33,0,0,0,2.3,3.443c5.279,3.994,5.164,10.753,8.274,15.872,1.285,2.135-.884,4.361-2.559,6.059A84.106,84.106,0,0,0,577.511,225.7a4.486,4.486,0,0,0-2-1.044c-1.721-.356-2.7-2.571-4.591-1.985s-2.1,2.364-2.41,4.154c-.23,1.308-1.928,1.618-3.007,2.3-4.59,2.9-4.877,4.533-1.538,8.5C567.1,241.2,569.6,245.218,573.6,248.064Z" transform="translate(-516.756 -21.73)" fill="#ef2a66"/>
        <path id="Trazado_105832" data-name="Trazado 105832" d="M621.02,178.058c.367,2.192.907,3.879,3.615,4.04,1.928.126,2.846,1.48,2.823,3.443,0,3.822-.528,7.437-4.074,9.778-3.305,2.192-3.443,5.968-4.005,9.181-.838,4.349-1.492,8.527-4.935,11.74-1.285,1.148-.9,2.9-.528,4.361,1.079,4.258,3.982,7.712,5.371,11.843.241.723.964.746,1.607.746l15.734-.138a4.1,4.1,0,0,0,4.43-3.328c1.343-4.476,4.809-7.792,7.115-11.763.115-.207.367-.344.528-.551,1.01-1.331,3.156,1.239,3.833-1.148a3.718,3.718,0,0,1,2.938-2.662,4.441,4.441,0,0,0,2.2-2.054c.93-1.377,1.882-2.743,2.8-4.131,2.869-4.281,3.259-4.441,8.033-2.4,1.056.459,1.985.643,2.823-.149,1.515-1.446,3.351-1.607,5.313-1.756,3.018-.218,4.258-1.5,4.694-4.59.23-1.618-.149-3.317.712-4.889.344-.631-.092-1.148-.757-1.492a6.047,6.047,0,0,0-3.638-1,3.443,3.443,0,0,1-2.915-.551c-1.3-1.148-2.1-.562-3.225.436-2.938,2.594-4.407,2.433-7.379-.264a9.055,9.055,0,0,0-2.3-1.423c-2-.907-3.03-2.3-2.479-4.59.321-1.377-.425-2.444-1.148-3.5a6.886,6.886,0,0,1-1.01-5.853,4.591,4.591,0,0,1,3.684-3.948,17.317,17.317,0,0,0,2.949-.838c1.894-.746,2.3-2.4.562-3.443A15.414,15.414,0,0,1,659.511,163a2.891,2.891,0,0,0-1.664-.838c-1.894-.413-3.776-.654-4.292-3.087-.161-.734-1.148-.975-1.894-1.148-2.3-.6-4.12-2.02-6.117-3.122s-3.569-2.444-4.04-4.487c-2.054.138-3.362,1.664-4.831,3.1-2.869,2.8-4.361,6.564-6.886,9.629a11.648,11.648,0,0,1-4.946,3.592,31.053,31.053,0,0,0-7.276,4.189C618.954,173.249,620.572,175.384,621.02,178.058Z" transform="translate(-509.104 -26.044)" fill="#21bfaa"/>
        <path id="Trazado_105833" data-name="Trazado 105833" d="M974.658,442.945c.379-1.641-.769-2.972-1.561-4.189a28.689,28.689,0,0,1-4.992-12.693,5.865,5.865,0,0,0-2.582-4.694c-2.582-1.71-2.812-4.74-2.7-7.586a5.244,5.244,0,0,0-1.917-4.659c-2.135-1.825-4.1-3.718-4.831-6.817-.39-1.584-1.676-4.315-4.866-2.835a1.94,1.94,0,0,1-2.651-1.813c-.206-3.638-2.766-4.3-5.738-4.212-1.767,0-3.443.126-4.269-1.882,4.786-4.786,9.4-9.64,14.3-14.2,2.3-2.135,2.376-6.14,6.094-6.817-.126-4.281-1.641-7.563-5.359-9.778s-3.833-6.427-4.923-9.973c-.711-2.3-.367-4.992-3.925-5a1.377,1.377,0,0,1-1.148-.62c-.3.138-.6.275-.9.448a4.177,4.177,0,0,1-4.694-.539c-2.7-2.066-5.382-2.972-8.194-.138-.815.826-1.79.6-2.823.1-3.133-1.515-5.922-.551-8.412,1.538-1.4,1.148-2.743,2.467-4.74,1.894a2.743,2.743,0,0,0-3.626,1.917c-1.148,2.892-3.374,3.982-6.289,4.189-5.463.4-10.7,2.651-16.3,2.031a2.146,2.146,0,0,0-2.158,1.285,2.915,2.915,0,0,1-2.927,1.492c-2.387-.241-4.717-.952-7.161-.5-.482.092-.907-.31-1.3-.677-1.744-1.618-3-1.871-4.177-.3-2.708,3.615-6.61,4.407-10.615,4.958-1.905.264-3.053.448-2.662,2.926.241,1.515-1.239,2.525-2.823,2.467-2.823-.115-5.29,2.02-8.263,1.148-.964-.287-1.274.964-1.021,1.6,1.148,2.731-.115,4.9-1.48,7.069-.333.539-.562,1.377-1.033,1.538-2.938,1.021-3.34,3.512-3.9,6.071a8.205,8.205,0,0,1-4.59,5.738c-4.177,2.215-8.033,5-12.44,6.805a11.351,11.351,0,0,0-3.822,3.248c-.092,1.239.666,1.343,1.148,1.572a6.633,6.633,0,0,1,4.12,5.956c.3,3.064.5,3.144,3.6,2.892,1.021-.08,2.215-.471,3.007.1,2.353,1.71,4.476,2.571,7.609,1.492,2.4-.826,5.2,1.148,7.93.367a3.924,3.924,0,0,1,1.894,0c1.308.321,2.972.264,3.328,2.054s-.872,2.479-2.181,3.167c-.746.39-1.939.757-1.446,1.894,1.262,2.9-.689,4.533-2.3,6.335-.333.39-.734.712-1.056,1.148-.769.952-1.021,1.939.482,2.3,2.7.654,4.384,2.49,5.945,4.59.608.8,1.2,2.008,2.3,1.871a8.183,8.183,0,0,1,4.774.861,3.959,3.959,0,0,1,3.053-1.148c2.525,0,3.925-1.216,5.382-2.8s5.164-2.043,6.036-.344c2.915,5.738,8.033,4.763,12.762,4.487,6.392-.367,12.784-.654,19.2-.734,5.5-.069,10.994-.516,16.5-.7.907,0,1.458-.757,2.3-.8l1.538.769c-3.856-3.5-4.212-5.176-2.3-8.848,1.148-2.3,3.615-1.894,4.074-.677,1.676,4.327,7.3,5.176,7.666,10.329,2.054-1.148,3.9-1.021,5.176-2.3l1.538-.769c-1.653-.6-2.123-1.756-1.148-3.053a12.75,12.75,0,0,1,5.405-3.753A10.489,10.489,0,0,0,949,423.47c1.917-3.087,5.107-4.453,8.871-4.59a4.9,4.9,0,0,1,.528,4.82c-1.848,4.349.482,7.253,3.259,9.548a13.771,13.771,0,0,1,5.325,11.993c-.092,2.3-.275,4.5,1.423,6.6,1.216,1.5.275,3.764.482,5.681.482,4.464.78,4.59,5.371,3.89a3.225,3.225,0,0,0,3.076-5.428C975.232,451.908,973.522,447.742,974.658,442.945Z" transform="translate(-479.036 2.423)" fill="#9182ca"/>
        <path id="Trazado_105834" data-name="Trazado 105834" d="M662.375,193.506c1.262,1.148,2.364,1.021,3.294-.092,1.974-2.364,4.04-2.881,6.656-.987.539.39,1.5.149,2.215.356,5.268,1.549,6.564.987,6.7,7.2,2.135-2.008,4.086-3.718,5.876-5.6a2.192,2.192,0,0,0-.08-2.548,10.111,10.111,0,0,1-.987-5.956,5.738,5.738,0,0,0-.654-3.328,7.4,7.4,0,0,1-.849-5.2c.333-1.859-.493-2.972-1.962-4.154-2.754-2.226-4.59-5.509-7.746-7.322-.2-.115-.448-.4-.436-.6.172-3.672-3.064-6.45-2.662-10.156a2.743,2.743,0,0,0-1.664-3.11c-2.192-1.044-4.051-2.64-6.278-3.672a9.846,9.846,0,0,0-4.349-1.148c-3.672,0-5.1-1.71-3.776-5.05.9-2.3.218-3.213-1.676-3.615-2.663-.574-3.305-2.192-3.443-4.659a46.781,46.781,0,0,0-1.515-7.115,6.105,6.105,0,0,0-2.754-3.879c-.321.815-.608,1.607-1.664,1.733h1.538c2.1.344,2.88,1.366,1.939,3.443-.643,1.4-1.148,2.869-1.859,4.258-1.148,2.008-1.618,4.407,0,6.45a3.443,3.443,0,0,1-.092,4.59,11.086,11.086,0,0,0-2.3,7.322c0,2.628-1.411,4.453-3.362,4.281a6.428,6.428,0,0,0,2.135,1.767,44.767,44.767,0,0,0,4.028,2.238c2.3,1,4.9,1.446,6.163,4.12.229.493,1.343.585,2.066.815a5.313,5.313,0,0,1,3.133,2.077,8.378,8.378,0,0,0,3.443,2.881,4.591,4.591,0,0,1,2.743,4.694c-.218,2.112-1.721,3.317-3.833,3.718a9.3,9.3,0,0,0-1.148.356c-3.776,1.148-4.59,3.351-2.525,6.817.459.769,1.354,1.641,1.228,2.3C657.142,190.637,660.309,191.647,662.375,193.506Z" transform="translate(-505.128 -30.096)" fill="#21bfaa"/>
        <path id="Trazado_105835" data-name="Trazado 105835" d="M859.516,268.545c-.149-.459-.574-1.148-.9-1.148-3.018-.172-5.577-1.09-7.242-3.81-3.443.31-7.1-1.239-10.5.712-1.148.631-2.3,1.148-3.443,1.641a7.414,7.414,0,0,1-6.633,0,9.181,9.181,0,0,0-7.31-.092c-2.3.884-4.063,1.366-5.956-.436a2.2,2.2,0,0,0-1.343-.666c-3.8.057-7.655-.907-11.384.539-3.363,1.3-6.748,2.433-10.409,1.354-.93-.275-1.767.287-2.628.23-6.886-.471-12.773,3.11-19.246,4.3-3.362.631-5.084.413-6.782-2.513-.436-.757-.62-1.664-.987-2.479a.975.975,0,0,0-1.216-.666c-.941.31-.539,1.021-.264,1.526.585,1.148,2.066,2.02,1.446,3.351-1.377,2.984.092,6.714-2.972,9.3,1.836,1.262,3.362,2.41,4.969,3.443,2.731,1.721,3.2,3.11,1.825,5.968a12.5,12.5,0,0,0-1.572,3.443c-.551,3.443-1.813,3.822-4.487,1.8a2.008,2.008,0,0,0-1.733-.7c-1.148,3.041-4.223,4.8-6.335,7.448a7.161,7.161,0,0,1-4.809,2.858c-1.7.218-2.364-1.274-3.259-2.3s-1.664-1.044-2.49,0-1.894,2.41-2.835,3.626a3.087,3.087,0,0,0-.471,3.248c1.274,2.915.3,4.717-2.376,6.289-3.236,1.905-3.822,5.084-2.3,8.458a12.787,12.787,0,0,0,3.282,3.672c1.01.964,2.364,1.848,2.18,3.443-.23,1.962.872,2.663,2.3,3.443a6.358,6.358,0,0,1,3.351,4.43c.23,1,.631,1.962.769,2.961.218,1.721,1.216,2.008,2.708,1.779a29.173,29.173,0,0,0,7.241-2.4,9.743,9.743,0,0,1,7.069-.8,5.578,5.578,0,0,0,5.371-1.205c1.251-1.021,2.777-1.917,4.212-1.389,3.19,1.148,5.359-.138,7.482-2.192a5.828,5.828,0,0,1,2.008-1.148c6.369-2.364,12.13-5.83,17.914-9.319,3.156-1.905,5.91-4.59,9.617-5.451a8.182,8.182,0,0,0,4.246-2.926c3.913-4.12,7.15-9.032,12.624-11.407a3.179,3.179,0,0,0,1.985-2.192,8.848,8.848,0,0,1,5.991-6.886,9.409,9.409,0,0,0,2.49-1.767,21.437,21.437,0,0,1,10.03-4.5,19.28,19.28,0,0,0,6.45-2.3c2.651-1.584,5.061-3.248,5.738-6.691.482-2.3,1.8-4.464,2.823-6.886a8.975,8.975,0,0,1-4.246-5Z" transform="translate(-491.165 -9.367)" fill="#fd8f25"/>
        <path id="Trazado_105836" data-name="Trazado 105836" d="M889.668,537.409c-2.594-.436-4.671-1.24-5.256-4.154-.23-1.148-.884-1.8-2.215-1.3a4.361,4.361,0,0,1-5.394-1.71c-.666-.872-1.274-1.607-2.5-1.067a1.147,1.147,0,0,1-.746.092c-3.443-1.572-6.14-1.021-8.183,2.5-.677,1.148-2.421.964-3.443-.138-2.41-2.789-4.774-5.635-5.9-9.25a3.57,3.57,0,0,1-.229-1.871c1.044-3.626.516-7.2,0-10.811a17.873,17.873,0,0,1,.275-3.776c-1.916.379-3.672.987-5.417-.459a8.768,8.768,0,0,1-3.1-4.212c-.482-1.526-1.3-1.917-2.881-1.274a33.756,33.756,0,0,1-5.864,1.744c-3,.608-4.51-.138-6.013-2.835a19.193,19.193,0,0,1-1.664-3.867c-.425-1.435-.252-3.053-2.3-3.512-.941-.207-1.044-1.366-1.148-2.3-.241-2.169-1.71-3.041-3.615-3.351s-4.063-.493-5.532-2.238c-.448-.528-1.148-.425-1.79-.3-.861.172-1.71.677-2.617.252-1.848-.861-3.248.126-4.522,1.205a11.03,11.03,0,0,1-6.392,3.167A4.935,4.935,0,0,0,800.085,490c-1.779,2-3.753,3.271-6.668,2.949a3.512,3.512,0,0,0-3.936,3.305c-.207,3.558-1.985,5.233-5.336,5.933a6.53,6.53,0,0,0-4.763,4.59c-.3.838-.493,1.733-.872,2.536-1.446,3.133-3.523,3.833-6.369,1.848-1.526-1.067-2.49-.964-3.512.413l-.689.918c-3.523,4.591-4.809,4.751-8.963.608-1.549-1.538-3.546-1.962-5.5-2.49a24.667,24.667,0,0,1-3.443-.551c-2.789-1.148-5.038-1.744-6.415,2.031-.528,1.469-2.4,1.457-3.443,0-1.32-1.917-2.731-1.79-4.591-1.285-2.766.734-5.29.574-6.886-2.467a2.8,2.8,0,0,0-3.879-1.412,3.34,3.34,0,0,1-3.569-.746,5.027,5.027,0,0,0-2.72-1.354c-7.861-.792-15.458-1.148-23.125,2.41L687.63,510.8c.092.287.184.585.252.884a11.052,11.052,0,0,0,1.848,4.258c1.274,1.7,2.364,3.443.9,5.738a3.018,3.018,0,0,0,.677,3.443c3.064,3.133,6.4,5.738,11.132,5.348,2.066-.161,3.615.264,4.59,2.3s2.364,3.374,4.946,3.167c1.021-.08,1.882,1.067,2.7,1.836,1.744,1.653,3.144,3.638,6.128,3.581,1.779,0,3.672,5.738,3.041,8.7-.413,1.917-1.366,3.684-1.148,5.738.493,4.59,1.733,5.9,6.541,5.313,6.978-.849,10.811,2.915,9.663,9.674a28.208,28.208,0,0,0,0,6.886c.092,1.079,1.148,2.662,1.848,2.571,5.5-.711,6.346,5.991,10.765,6.6,5.8.792,11.534-.3,17.272-1.056a55.073,55.073,0,0,1,7.666-.62c4.992.08,8.492-2.376,11.855-5.245,2-1.687,3.581-3.867,6.576-3.362,1.5.252,1.584-1.974,3.087-1.572.241-.126.493,0,.757.39,3.856,5.543,9.594,5.268,15.344,5a5.876,5.876,0,0,1,3.867.723c3.305,2.3,5.268,2.1,8.033-.356a21.708,21.708,0,0,0,1.916-1.928c1.8-2.066,3.661-2.134,5.738-.4a23.617,23.617,0,0,1,3.81,3.11,2.777,2.777,0,0,0,2.7,1.148c2.686-.321,4.717.539,5.359,3.443.2.884.689,1.148,1.549,1.148,1.836.092,3.122,1.354,4.59,2.226,2.387,1.389,4.315,3.282,7.643,3.443,2.123.1,4.189,3.179,6.071,5.13a2.708,2.708,0,0,1-.275,2.628c-5.015,7.746-9.881,15.573-15.229,23.125-3.581,5.05-7.219,10.237-9.732,16.067-.448,1.01-.826,2.054-1.733,2.49l1.721-.252c.792,1.458,2.7,1.733,3.362,1.148,2.743-2.536,4.59-1.148,6.358,1.033,4.912-3.087,5.141-3.03,8.343-.975a11.567,11.567,0,0,1,3,2.766c2.926,3.879,5.738,7.9,8.492,11.866l.241.861a.666.666,0,0,1,.2-.425c2.3-2.192,1.664-5.153,2.18-7.746,2.467-12.119,4.591-24.318,6.886-36.471,1.63-8.55,3.121-17.134,4.682-25.7,1.733-9.456,3.03-19,5.1-28.381a141.512,141.512,0,0,0,3.213-22.161A21.435,21.435,0,0,0,889.668,537.409Z" transform="translate(-498.17 23.1)" fill="#9182ca"/>
        <path id="Trazado_105837" data-name="Trazado 105837" d="M660.757,495.218c3.018,3.581,5.738,5.589,11.029,3.1,3.592-1.687,6.576-1.366,9.181,1.584,1.561,1.721,3.558,2,5.738,1.939,3.741-.08,7.735,2.02,8.228,5.382.367,2.525,1.653,3.363,3.248,4.591a12.543,12.543,0,0,1,3,3.34c3.833-1.618,7.609-3.374,11.476-4.935a53.454,53.454,0,0,1,9.032-2.674,4.74,4.74,0,0,0-3.661-1.48,13.175,13.175,0,0,1-9.342-3.81,5.99,5.99,0,0,0-5.245-1.756,31.329,31.329,0,0,1-3.443.218c-2.777,0-3.443-.321-4.051-3.053-.5-2.066-1.492-3.087-3.581-3.294a3.661,3.661,0,0,1-3.156-2.949,9.858,9.858,0,0,0-1.492-3.087,4.189,4.189,0,0,0-3.822-2.054c-3.294.207-5.153-1.8-6.45-4.522-2.089-4.361-4.476-8.481-8.653-11.258a2.593,2.593,0,0,1-1.148-1.435c-.425-3.649-3.179-4.281-6-4.591s-5.417-.551-6.45-3.764c-.172-.551-.734-.666-1.239-.757a85.525,85.525,0,0,1-8.458-2.031c-2.846-.792-5.153-1.871-6.794-4.407s-1.917-2.605-4.705-.8c-1.813,1.148-3.558,2.571-5.876.677-1.148-.907-2.5-.172-3.615.425-2.123,1.148-4.177,1.882-6.473.4-2.651-1.721-4.877-3.718-5.382-7.081a12.819,12.819,0,0,1,0-4.189,14.032,14.032,0,0,0,.31-2.662c0-1.79-.677-2.2-2.387-1.641a4.821,4.821,0,0,0-1.767.689,5.348,5.348,0,0,1-5.2,1.653c-.953-.229-1.7.448-2.433.941-1.767,1.148-3.89,1.205-5.738,1.974a4.969,4.969,0,0,0-2.605,2.158c-.9,1.6.631,1.905,1.366,2.651a3.592,3.592,0,0,1,.792,3.581,9.352,9.352,0,0,1-1.377,3.546c-2.5,3.087-2.777,7.127-4.717,10.42-.505.849-.241,1.377.551,1.859,1.733,1.056,2.135,2.766,2.123,4.591s0,3.879,0,5.807a8.536,8.536,0,0,0,1.148-.448,3.179,3.179,0,0,1,2.708.62c4.843,2.812,9.743,5.394,15.722,2.869a7.127,7.127,0,0,1,5.738.367c3,1.607,5.049.711,6.955-1.618,3.443-4.223,8.263-4.361,11.476.057,1.389,1.94,2.5,3.684,5.084,3.776,1.216,0,1.653,1.343,1.813,1.951,1.056,3.776,4.258,3.6,6.564,2.858,2.8-.9,4.051-.31,5.061,2.1.562,1.354,1.366,2.525,3.064,2.3S659.575,493.818,660.757,495.218Z" transform="translate(-512.783 16.483)" fill="#9182ca"/>
        <path id="Trazado_105838" data-name="Trazado 105838" d="M635.907,460.495a6.059,6.059,0,0,0,3.89,2.892c3.2.723,6.082,2.559,9.445,2.651,1.148,0,2.582.241,2.949,1.435.78,2.49,2.651,2.548,4.74,2.961,3.535.712,7.574,1.056,8.228,5.933,0,.287.493.539.792.769a30.445,30.445,0,0,1,8.814,11.683c.815,1.836,1.905,3.615,4.131,3.443,4.017-.379,5.83,2.169,7.2,5.153.792,1.744,1.469,3.133,3.626,3.362,1.836.207,2.8,1.549,3.443,3.236,1.044,2.915,1.148,3.053,3.959,2.5a8.951,8.951,0,0,1,8.756,2.605,9.25,9.25,0,0,0,5.807,2.708c4.407.482,8.653,1.148,11.476,5.141.069.092.2.241.287.23,3.764-.241,7.138,1.894,10.592,2.135,3.007.218,5.176.6,6.771,3.053A2.594,2.594,0,0,0,744.1,523.6a7.54,7.54,0,0,1,7.758.918l.815-1.148c2.066-3.03,2.3-3.1,5.44-1.446a14,14,0,0,0,4.418,1.148c3.305.517,6.45,1.32,8.745,4.154,1.423,1.767,2.18,1.618,3.626-.138.493-.585.872-1.262,1.366-1.859,2.3-2.812,3.581-3.122,6.805-1.148,1.607.975,2.3.4,2.961-.953.31-.689.448-1.469.711-2.18a8.929,8.929,0,0,1,6.4-6.094c2.525-.551,3.2-1.905,3.592-4.143a6.22,6.22,0,0,1,6.473-5.291,5.2,5.2,0,0,0,4.671-1.985,7.953,7.953,0,0,1,5.21-2.949c2.3-.3,3.9-1.676,5.945-4.349-4.694.4-7.4-1.308-9.02-4.786a1.951,1.951,0,0,0-2.525-1.148,3.351,3.351,0,0,1-3.925-1.63,29.16,29.16,0,0,1-2.238-3.11c-.964-1.756-1.458-3.8-4.154-3.741-.861,0-1.308-1.148-1.63-1.974a29.191,29.191,0,0,0-1.435-3.672c-.711-1.366-1.607-2.789-3.443-2.41-2.364.471-3.569-.907-4.59-2.628-.78-1.32-1.435-2.754-3.018-3.328a5.233,5.233,0,0,1-3.443-4.3c-.356-1.71-.941-3.156-2.869-3.684a2.708,2.708,0,0,1-1.526-1.09c-1.561-2.789-4.476-3.546-6.886-5.084a5.841,5.841,0,0,0-8.883,6.335c.643,2.559.149,3.11-2.364,3.741-.608.149-1.412,0-1.859.31-3.294,2.433-5.876.838-8.561-1.2-3.994-3.018-6.656-7.425-10.822-10.26a2.422,2.422,0,0,1-1.01-2c0-3.248-2.3-5.486-4.074-7.586a8.86,8.86,0,0,1-2.582-5.635c-.183-2.617-1.148-3.305-3.821-2.846a21.321,21.321,0,0,0-6.243,1.767c-4.384,2.3-7.643-1.216-11.476-1.894-.425-.069-.918-.953-1.021-1.526-.62-3.6-3.236-4.235-6.232-4.235a6.5,6.5,0,0,1-4.476-1.894c-1.8-1.63-3.523-3.351-5.313-4.992a5.739,5.739,0,0,1-1.882-3.248c-.723-3.89-2.043-7.655-2.444-11.614-.562-5.5-1.251-10.914,2.766-15.711,1.492-1.79.425-4.04-1.882-4.59a3.443,3.443,0,0,1-2.846-2.7c-.413-1.664-1.458-2.066-3.053-2.3a4.2,4.2,0,0,0-4.522,2.066c-1.32,2.054-2.708,4.017-2.525,6.668a3.982,3.982,0,0,1-2.651,4.235,3.971,3.971,0,0,0-2.181,2.5,12.3,12.3,0,0,1-5.738,6.427,3.248,3.248,0,0,0-1.939,3.363,6.186,6.186,0,0,1-2.2,5.463,28.323,28.323,0,0,0-7.9,9.261c-.907,1.676-1.974,3.374-4.338,3.213a1.974,1.974,0,0,0-1.985,1.515,14.426,14.426,0,0,1-3.305,4.177,29.642,29.642,0,0,0-4.659,6.071A12.873,12.873,0,0,1,633.439,440c-2.066,1.836-2.456,1.985-4.981.471-1.228-.723-2.536-.826-3.03.207-.987,2.043-2.777,3.787-2.892,6.163s-1.653,5.543,2.605,6.151c.172,0,.321.39.425.62,1.01,2.031,3.305,2.72,4.958,3.041a7.322,7.322,0,0,1,5.383,3.845Z" transform="translate(-507.832 8.067)" fill="#9182ca"/>
        <path id="Trazado_105839" data-name="Trazado 105839" d="M635.856,293.906c-.287-.493-.907-.356-1.412-.344a10.328,10.328,0,0,1-4.154-.528,2.008,2.008,0,0,0-2.134.287c-1.228.918-2.559,1.687-3.753,2.64-2.949,2.387-3.443,4.464-2.617,7.528.734,2.536,3.053,3.7,4.338,5.738a2.3,2.3,0,0,0,2.433,1.148c3.443-.126,4.912.539,5.532,3.925.769,4.223,4.717,4.292,6.989,6.484,3.959,0,7.9.872,11.843.321a2.3,2.3,0,0,0,1.813-3.121,6.817,6.817,0,0,0-6.4-3.994c-4.59.287-4.59.287-6.2-4.028a5.419,5.419,0,0,0-.666-.884c-.666.493-1.148.9-1.676,1.239-1.412.907-2.972,1.148-4.246,0s-1.067-2.812,0-4.154a6.29,6.29,0,0,0,1.079-3.592c.3-3.994.78-4.487,4.671-5.073.631-.092,1.354,0,1.377-.884s-.7-.953-1.331-.93C639.3,295.719,637.2,296.155,635.856,293.906Z" transform="translate(-507.942 -5.004)" fill="#472ea6"/>
        <path id="Trazado_105840" data-name="Trazado 105840" d="M680.1,284.821a39.575,39.575,0,0,1-1.894,11.27c-.746,2.548-2.3,4.82-2.3,7.632s.31,5.623-.516,8.389a3.821,3.821,0,0,0,.264,2.628,8.032,8.032,0,0,1,.161,5.268c-.838,4.074-2.433,8.033-1.974,12.325.252,2.421-1.033,4.717-2.387,6.771s.138,2.926,1.641,3.317a2.559,2.559,0,0,0,2.215-.287c2.605-2.031,5.291-1.825,8.32-.93,3.523,1.044,4.235,1.63,3.34,5.222s-.585,7.345-1.033,11.006a3.053,3.053,0,0,0,.677,2.961c2.158-2.192,3.741-4.246,2.674-7.482-.585-1.744.115-3.546.78-5.222.562-1.412,1.963-1.423,3.145-1.859,1.653-.6,2.157-1.962,2.089-3.684a25.249,25.249,0,0,1,.838-8.733,4.269,4.269,0,0,0-.4-2.938,8.469,8.469,0,0,1,.964-8.033,47.461,47.461,0,0,0,3.73-6.22c1.308-2.594,3.959-2.777,5.968-.631a5.818,5.818,0,0,1,1.549,3.443c.574,6.346.436,12.555-4.258,17.639a3.845,3.845,0,0,0-1.147,3.133c.287,2.915.551,5.841.723,8.768.069,1.033.654,1.239,1.458,1.377,2.02.333,8.986-3.11,10.007-4.969.115-.218.333-.539.252-.689-1.148-2.3.08-5.118-1.435-7.31-1.2-1.756-.585-3.1.643-4.43,2.146-2.3,4.774-1.917,7.494-1.492,2.157.333,3.512,1.148,3.971,3.443a25.019,25.019,0,0,0,1.469,3.982c.3.769.746,1.366,1.722,1.021,3.913-1.412,7.482.333,11.143,1.228,2.192-5.072,3.179-10.811,2.41-14.437-.849.275-1.7.528-2.536.815a2.008,2.008,0,0,1-2.685-.78c-.734-1.63-2.054-2.112-3.546-2.571a3.558,3.558,0,0,1-2.18-2.043,7.413,7.413,0,0,0-4.212-4.12c-3.133-1.366-4.017-3.936-2.364-6.886,1.044-1.871,1.446-3.443.425-5.359s-1.09-4.108-3.11-5.118a4.809,4.809,0,0,1-2.651-3.512c-.321-1.3-.666-2.444-2.513-2.043-1.423.31-2.02-.734-2.3-1.985-.161-.734.172-1.561-.631-2.4-2.926.918-3.041.975-4.441,2.846-.608.815-1.148,1.733-1.79,2.49-2.169,2.444-4.269,2.525-6.484.126a12.141,12.141,0,0,0-3.443-2.926c-3.787-1.836-5.532-4.774-5.027-8.986a4.306,4.306,0,0,0-.08-1.148c-.39-2.4-.9-2.72-3.294-2.146-1.974.459-3.89,1.538-5.979,1.021C680.6,280.827,680.1,281.573,680.1,284.821Z" transform="translate(-500.635 -6.856)" fill="#472ea6"/>
        <path id="Trazado_105841" data-name="Trazado 105841" d="M798.425,237.2a8.274,8.274,0,0,1-7.322-1.274,5.061,5.061,0,0,0-5.371-.264,15.389,15.389,0,0,1-6.886,1.079,22.555,22.555,0,0,0-1.388,2.674c-1.205,2.743-2.479,5.474-3.684,8.205a63.115,63.115,0,0,1-3.443,7.437c-.264.436-.757.872-.757,1.308-.057,3.443-1.928,4.59-5.187,5.256-2.089.4-2.376,3.374-4.1,5.107a6.449,6.449,0,0,1,3.73,4.361c.712,2.4,1.871,2.467,4.464,1.951,6.725-1.308,13.037-4.5,20.06-4.384a10.932,10.932,0,0,1,2.3,0c3.271.815,6.22-.2,9.307-1.148,5.313-1.6,10.719-2.2,15.872.769.608.356,1.331.551,1.79.1,2.376-2.3,5.44-.425,8.033-1.4a2.192,2.192,0,0,1,2.089.746,3.948,3.948,0,0,0,5,.218c4.591-2.915,9.686-2.754,14.827-2.525,1.09,0,2.112.1,2.559,1.228a3.73,3.73,0,0,0,3.867,2.467,4.051,4.051,0,0,1,3.948,3.076,5.589,5.589,0,0,0,2.5,3.259c1.871,1.067,3.443,1.6,5.612.184a11.58,11.58,0,0,1,9.089-2.066,6.393,6.393,0,0,0,4.705-1.262h0a9.57,9.57,0,0,1-1.687-1.538c-8.332-9.583-16.709-19.131-24.915-28.817-3.03-3.569-6.266-4.866-10.822-3.122a6.323,6.323,0,0,1-6.473-1.469,14.657,14.657,0,0,0-5.038-3.213c-3.581-1.251-6.76-2.112-10.065.8a11.04,11.04,0,0,1-7.62,2.376c-.643,0-1.435-.367-1.917.367-2.135,3.259-4.59,1.721-6.886.367a7.287,7.287,0,0,0-6.2-.861Z" transform="translate(-487.444 -13.841)" fill="#fd8f25"/>
        <path id="Trazado_105842" data-name="Trazado 105842" d="M647,123.965h0a8.493,8.493,0,0,1,3.615,5.853c.31,1.63.941,3.2,1.148,4.843.31,2.41.93,4.131,3.6,5.153,2.972,1.148,3.11,2.192,1.962,5.474-.448,1.262-.677,2.594,1.079,2.3,2.41-.39,4.2.574,6.082,1.71,2.181,1.32,4.407,2.571,6.622,3.833a4.074,4.074,0,0,1,2.157,4.154,6.691,6.691,0,0,0,1.435,5.027c.321.379.711.941.643,1.354-.482,2.949,1.6,4.315,3.443,5.818,2.18,1.756,3.535,4.315,5.945,5.9,1.308.861,1.572,2.594,1.526,4.177,0,.757-.551,1.71-.252,2.3,2.112,3.707.9,8.033,2.3,11.832,1.2,3.248.757,4.946-1.974,6.966-2.123,1.561-3.087,4.418-6.14,4.992-1.148.207-.631,1.607,0,2.215a21.084,21.084,0,0,0,3.339,2.525c2.972,1.894,6.656,7.964,6.886,11.407,0,.39-.149.826,0,1.148,1.148,2.812,2.054,5.554-1.148,7.746-.275,3.523-1.412,7.092.172,11.212,1.664-1.779,2.7-3.282,4.281-4.131a2.708,2.708,0,0,1,3.225,0,2.892,2.892,0,0,1,.8,3.156,2.858,2.858,0,0,1-.436,1.056,7.3,7.3,0,0,0-.115,8.928,3.753,3.753,0,0,1,.413,1.067c1.148,3.856,2.066,4.327,5.463,2.3a54.876,54.876,0,0,0,5.9-4.384c.976-.757,1.021-2.008,1.285-3.121.654-2.731,1.148-5.566,3.443-7.494,1.274-5.2,3.19-10.4.792-15.745a7.885,7.885,0,0,1-.849-4.43,15.114,15.114,0,0,0,.092-3.81c-.344-2.938,0-3.535,2.513-4.877s2.9-1.859,2.3-4.407a10.478,10.478,0,0,1,.356-4.9,18.6,18.6,0,0,0-.321-9.456c-1.148-4.051-2.3-8.125-3.19-12.234a3.1,3.1,0,0,0-2.7-2.708c-2.662-.585-4.889-2.662-7.884-2.3a2.134,2.134,0,0,1-1.71-.734c-2.433-3.569-7.047-3.9-9.9-6.782a4.005,4.005,0,0,0-3.11-1.148,6.059,6.059,0,0,1-6.036-3.89,10.6,10.6,0,0,0-4.361-4.728,5.21,5.21,0,0,1-2.869-4.9,22.114,22.114,0,0,0-2.915-11.373,3.8,3.8,0,0,1,.643-5.164c1.5-1.6,1.285-2.226-.712-3.443-4.028-2.376-4.12-2.4-3.018-6.886a2.835,2.835,0,0,0-1.148-3.328c-1.859-1.354-3.672-2.915-6.014-3.236-3.753-.516-5.118-2.961-5.531-6.312a11.48,11.48,0,0,1-.138-1.526c0-2.731.138-5.417-1.63-7.861-2.88,3.041-4.166,7.264-7.689,9.915-2.066,1.561-.78,4.59-.333,6.771C648.756,121.8,648.641,123.644,647,123.965Z" transform="translate(-504.167 -33.016)" fill="#21bfaa"/>
        <path id="Trazado_105843" data-name="Trazado 105843" d="M657.726,104.841a6.886,6.886,0,0,1,1.216,4.705,32.634,32.634,0,0,0,.149,3.822c.264,2.685,1.377,4.487,4.4,4.854,2.731.344,4.59,2.605,7.333,3.856,3.661-5.3,7.046-10.547,6.668-17.444a13.232,13.232,0,0,0-2.3-7.551,14.278,14.278,0,0,1-2.364-4.843,7.8,7.8,0,0,0-1.859,1.63c-3.443,3.971-6.668,8.228-12.624,8.561a2.95,2.95,0,0,0-1.366.608,4.521,4.521,0,0,0,.746,1.8Z" transform="translate(-502.694 -34.618)" fill="#21bfaa"/>
        <path id="Trazado_105844" data-name="Trazado 105844" d="M716.322,95.061c-1.274,2.846-.757,5.738-1.148,8.653-.31,2.571,1.538,3.443,4.246,2.708a50.232,50.232,0,0,1,6.358-1.389c3.718-.516,5.99,1.549,6.048,5.451a1.7,1.7,0,0,0,.861,1.79c4.8,3.144,5.13,4.384,2.961,9.732a6.88,6.88,0,0,0-.207,1.435c2.3-.333,4.281.356,6.358.746a7.9,7.9,0,0,1,4.487,2.226,8.607,8.607,0,0,1,1.687-1.239c2.444-1.4,2.984-3.443,3.925-5.807a174.862,174.862,0,0,1,8.343-17.295c1.354-2.559,4.246-3.271,6.886-3.822a6.886,6.886,0,0,0,5.554-4.59c1.974-4.464,4.281-8.848,6.622-13.186a9.606,9.606,0,0,1,7.8-5.2,28.931,28.931,0,0,0,10.329-3.615c2.3-1.228,4.5-2.777,7.31-2.662,1.285,0,1.756-.666,1.974-1.905s-.069-2.571,1.48-3.753c1.48-.344,3.592,1.262,5.451-.792s2.123-3.994.252-5.738A5.52,5.52,0,0,1,812,52.141c.126-3.317-2.4-4.246-4.958-4.59a10.455,10.455,0,0,1-6.886-3.879c-1.962-2.3-3.443-2.2-4.912.4s-2.823,4.453-6.209,4.281c-1.882-.092-2.789,1.939-3.844,3.581-2.3-1.549-4.143-1.216-5.084,1.584-2.031-.78-3.443-2.754-5.738-1.148s-2.3,3.81-1.767,5.8a4.74,4.74,0,0,1-1.653,5.382c-4.59,3.776-8.825,7.907-15.321,8.607-3.271.356-6.255,2.536-8.458,5.233-3.936,4.831-10.145,6.782-14.322,11.407-1.274,1.435-3.787,1.653-6.025,1.687-3.225.069-6.518-.6-9.594.826A12.082,12.082,0,0,1,716.322,95.061Z" transform="translate(-494.109 -42.03)" fill="#21bfaa"/>
        <path id="Trazado_105845" data-name="Trazado 105845" d="M675.039,96.455c4.59,7.058,3.822,14.23.39,21.449-1.48,3.11-3.707,5.818-4.877,9.1-.333.964-.769,1.894-1.067,2.869-.436,1.4-.172,2.49,1.4,3.03a6.048,6.048,0,0,1,2.617,1.549c1.733,1.917,1.859,3.718,0,5.658-.953.987-1.3,1.721-.516,2.949,2.112,3.34,2.617,7.184,3.018,10.971a5.451,5.451,0,0,0,2.617,4.682,10.776,10.776,0,0,1,4.281,4.82,4.281,4.281,0,0,0,4.51,2.823c.631,0,1.572-.207,1.859.126,2.651,3.122,7.2,3.2,9.87,6.22a8.894,8.894,0,0,0,1.951,1.813c1.733,1.044,3.913-.252,5.532,1.079a7.414,7.414,0,0,0,5.107,1.813,23.567,23.567,0,0,1-1.492-5.279c-.126-.62-.207-1.549-.608-1.756-2.64-1.377-2.9-3.833-3.443-6.358a5.267,5.267,0,0,0-3.707-3.6c-1.446-.539-2.49-1.343-2.3-3.076.207-1.538,1.148-2.226,2.548-2.984,3.076-1.7,6.048-2.387,9.41-.987,1.4.585,2.146,0,2.031-1.676a7.666,7.666,0,0,0-2.3-5.13c-3.064-2.915-4.923-6.886-8.343-9.468-1.584-1.148-1.285-2.881-.941-4.59,1.389-6.645,5.945-10.329,11.993-12.2a6.14,6.14,0,0,0,4.717-4.774,22.874,22.874,0,0,1,2.3-4.407c.78-1.492,1.148-2.881-.8-3.856a2.5,2.5,0,0,1-1.148-3.6,5.2,5.2,0,0,0,.069-3.982c-.861-3.248-.252-6.668.585-9.789.252-.918.482-1.825.689-2.743-1.4.218-3.179-.93-4.258-1.905-1.94-1.767-3.959-1.985-5.738-.62-2.135,1.63-3.317.057-4.591-.872-4.453-3.1-6.53-.689-7.2,3.443a13.978,13.978,0,0,1-2.387,6.53,5.027,5.027,0,0,1-4.258,2.3,8.917,8.917,0,0,0-3.443.4c-5.2,2.376-9.181-1.148-13.4-2.869a7.173,7.173,0,0,0-2.3-.562,11.776,11.776,0,0,0,1.618,3.466Z" transform="translate(-500.876 -36.079)" fill="#21bfaa"/>
      </g>
      <g id="Grupo_54913" data-name="Grupo 54913" transform="translate(470.171 107.657)">
        <path id="Trazado_105846" data-name="Trazado 105846" d="M491.653,104.69c-2.777-4.407-4.292-4.659-7.241-.723-1.825,2.421-3.535,4.659-6.541,5.818-1.343.516-2.169,1.744-.953,3.822a4.912,4.912,0,0,1-1.377,6.059,19.692,19.692,0,0,0-3.753,3.89c-.574.964-1.584,2.169-.2,3.867,1.8,2.215,1.526,4.889.184,7.632-1.148,2.41-1.5,5.084,1.033,7.287,1.607,1.377,1.561,3.569,1.148,5.313-1,3.81-1.239,7.689-1.871,11.476-.516,3.087-1.641,6.059-1.894,9.181-.161,1.882.539,3.317,2.3,3.776,1.377.356,2.3-.6,3.11-1.813a24.443,24.443,0,0,0,3.879-8.469,87.572,87.572,0,0,1,5.91-18.121c1.205-2.513,4.338-3.179,4.843-6.243-3.041-2.823-3.443-6.151-.815-9.388,1.825-2.3,1.94-4.028,0-6.243a6.886,6.886,0,0,1-1.5-3.03c-.321-1.721-.6-4.522,1.813-4.418,3.776.149,5.486-2.3,7.678-4.4v-.379C496.118,107.3,493.065,106.928,491.653,104.69Z" transform="translate(-470.171 -98.924)" fill="#21bfaa"/>
        <path id="Trazado_105847" data-name="Trazado 105847" d="M534.635,115.291c-3.615-2.777-8.24-4.682-7.1-10.007-3.133-.264-4.774,1.435-4.877,3.018-.207,2.961-2.1,3.294-4.017,3.374-3.523.149-5.532,2.433-7.666,4.671l.379.39c0,2.766.184,5.348-2.146,7.827-1.526,1.618-.93,4.763.677,6.7a4.43,4.43,0,0,1,.8,5.474c-.792,1.744.264,3.443,2.2,4.177.379-.126.907-.138,1.148-.4,4.223-5.118,10.96-6.45,15.849-10.627,1.572-1.331,3.144-2.066,2.2-4.315C530.469,121.8,531.536,118.584,534.635,115.291Z" transform="translate(-464.539 -98.324)" fill="#21bfaa"/>
        <path id="Trazado_105848" data-name="Trazado 105848" d="M518.981,104.247c2.754-1.813,1.343-3.363,0-5.027h-.769c-2.2-.126-2.559,2.043-4.212,2.881C515.343,104.236,516.3,106.026,518.981,104.247Z" transform="translate(-463.701 -99.215)" fill="#21bfaa"/>
      </g>
    </g>
    <g id="Grupo_54914" data-name="Grupo 54914" transform="translate(-1162.507 4368.88)">
      <circle id="Elipse_4055" data-name="Elipse 4055" cx="21.255" cy="21.255" r="21.255" transform="translate(1867.507 -195.135)" fill="#ec1c24"/>
      <path id="Trazado_100482" data-name="Trazado 100482" d="M1888.331-178.614h-.042l-2.372,1.281-.357-1.407,2.981-1.6h1.575v13.647h-1.785Z" fill="#fff"/>
    </g>
    <g id="Grupo_54915" data-name="Grupo 54915" transform="translate(-1162.507 4470.029)">
      <circle id="Elipse_4056" data-name="Elipse 4056" cx="21.255" cy="21.255" r="21.255" transform="translate(1867.507 -142.284)" fill="#ec1c24"/>
      <path id="Trazado_100483" data-name="Trazado 100483" d="M1884.321-113.688v-1.134l1.449-1.407c3.485-3.316,5.059-5.08,5.081-7.139a2.435,2.435,0,0,0-2.709-2.666,4.643,4.643,0,0,0-2.9,1.155l-.588-1.3a5.983,5.983,0,0,1,3.864-1.387,3.84,3.84,0,0,1,4.177,3.969c0,2.519-1.826,4.556-4.7,7.328l-1.092,1.008v.041h6.131v1.533Z" fill="#fff"/>
    </g>
    <g id="Grupo_54916" data-name="Grupo 54916" transform="translate(-1267.507 4459.688)">
      <circle id="Elipse_4057" data-name="Elipse 4057" cx="21.255" cy="21.255" r="21.255" transform="translate(1867.507 -89.433)" fill="#ec1c24"/>
      <path id="Trazado_100484" data-name="Trazado 100484" d="M1884.762-62.809a6.173,6.173,0,0,0,3.023.861c2.372,0,3.108-1.512,3.087-2.645-.021-1.911-1.743-2.73-3.527-2.73h-1.03v-1.386h1.03c1.344,0,3.044-.692,3.044-2.309,0-1.092-.693-2.058-2.394-2.058a5.01,5.01,0,0,0-2.729.9l-.484-1.344a6.484,6.484,0,0,1,3.571-1.051c2.687,0,3.9,1.6,3.9,3.255a3.389,3.389,0,0,1-2.52,3.212v.043a3.555,3.555,0,0,1,3.045,3.506c0,2.183-1.7,4.093-4.976,4.093a6.935,6.935,0,0,1-3.548-.923Z" fill="#fff"/>
    </g>
    <g id="Grupo_54917" data-name="Grupo 54917" transform="translate(-1015.017 4404.31)">
      <circle id="Elipse_4058" data-name="Elipse 4058" cx="21.255" cy="21.255" r="21.255" transform="translate(1867.507 -36.582)" fill="#ec1c24"/>
      <path id="Trazado_100485" data-name="Trazado 100485" d="M1890.032-7.688V-11.4h-6.342v-1.217l6.09-8.713h1.994v8.482h1.911V-11.4h-1.911v3.717Zm0-5.165v-4.556c0-.715.021-1.427.063-2.142h-.063c-.42.8-.756,1.386-1.134,2.015L1885.56-12.9v.042Z" fill="#fff"/>
    </g>
    <g id="Grupo_54918" data-name="Grupo 54918" transform="translate(-1057.507 4512.476)">
      <circle id="Elipse_4059" data-name="Elipse 4059" cx="21.255" cy="21.255" r="21.255" transform="translate(1867.507 16.269)" fill="#ec1c24"/>
      <path id="Trazado_100486" data-name="Trazado 100486" d="M1892.468,33.218h-5.207l-.526,3.506a7.445,7.445,0,0,1,1.114-.084,5.778,5.778,0,0,1,2.939.735,3.892,3.892,0,0,1,1.952,3.507c0,2.666-2.12,4.66-5.081,4.66a6.681,6.681,0,0,1-3.4-.839l.462-1.407a6.105,6.105,0,0,0,2.918.756,3.012,3.012,0,0,0,3.234-2.961c-.021-1.763-1.2-3.023-3.927-3.023a14.117,14.117,0,0,0-1.889.147l.882-6.55h6.53Z" fill="#fff"/>
    </g>
  </g>
</svg>
