<svg xmlns="http://www.w3.org/2000/svg" width="1328" height="739.985" viewBox="0 0 1328 739.985">
  <g id="Grupo_56945" data-name="Grupo 56945" transform="translate(-136 -4902.435)">
    <path id="Unión_3" data-name="Unión 3" d="M5411,12385.672v-315.751H6739v234.951c-62.243-15.21-167.406-46.493-345.078-108.771-219.715-77.016-436.909-12.977-633.849,98.459-137.524,77.815-247.737,92.867-312.431,92.867A364.914,364.914,0,0,1,5411,12385.672Zm0-315.751V11754.17c52.966-5.349,180.5-4.273,349.073,91.111,196.94,111.438,414.134,175.477,633.849,98.465,177.672-62.282,282.835-93.565,345.078-108.776v234.951Z" transform="translate(-5274.999 -6745.008)" fill="#472ea6" opacity="0.06"/>
    <g id="CF1_regiones" transform="translate(4.83 4860.405)">
      <g id="Grupo_54912" data-name="Grupo 54912" transform="translate(533.954 42.03)">
        <path id="Trazado_105814" data-name="Trazado 105814" d="M766.88,196.186c-2.9-.987-2.972-3.654-4.019-5.81-.292-.6.329-1.474-.426-2.022-6.65-4.872-7.308-12.557-9.33-19.573-1.681-5.822-2.521-6.528-8.185-5.274-.28-.28-.67-.5-.8-.828-2.144-5.578-2.095-5.517-7.369-2.436-2.046,1.218-4.129,0-6.212-.378a10.23,10.23,0,0,1-4.263,2.9c-1.437.487-1.827,1.888-1.961,3.313a23.568,23.568,0,0,0,.378,6.48,6.382,6.382,0,0,1-1.352,5.712c-.1.1-.17.207-.268.317-3.922,4.531-3.155,9.744-2.509,15.078,1.571.231,1.717-.926,2.119-1.669a9.743,9.743,0,0,1,2.363-3.276,1.985,1.985,0,0,1,3.386,1.218,9.414,9.414,0,0,1-1.023,7,12.91,12.91,0,0,0-2.119,6.09c-.11,2.022.171,3.556,2.436,4.482,2.85,1.133,3.069,2.338,1.729,5.042-.183.353-.743.767-.658.962,1.961,4.7-2.9,6.358-4.275,9.549a3.167,3.167,0,0,1-3.459,1.62c-.633,0-1.437-.292-1.51.755a1.462,1.462,0,0,0,1.218,1.462,10.742,10.742,0,0,0,2.351.6,13.677,13.677,0,0,1,4.787.8c.67.341,1.315.317,1.681-.463.987-2.083,3.008-2.058,4.872-2.436a48.584,48.584,0,0,0,5.2-.743,3.532,3.532,0,0,1,4.433,2.606c.609,2.436,2.326,4.287,3.191,6.467,1.815,4.567,3.861,9.269,2.728,14.421-.207.95,0,1.133.78,1.4a69.521,69.521,0,0,1,8.879,4.458,20.413,20.413,0,0,1,3.24,2.436c1.961,1.608,3.422,1.705,5.408.28a12.434,12.434,0,0,1,3.995-1.949,7.37,7.37,0,0,0,3.934-2,6.321,6.321,0,0,1,4.324-2.85,6.834,6.834,0,0,1-.536-2.546v-3.654c0-6.54-2.436-8.453-8.964-6.93a4.056,4.056,0,0,1-4.872-3.654c-.585-3.727-2.3-7.113-3.715-10.56A27.108,27.108,0,0,0,760.656,218c-.463-.719-.731-2.7.719-3.118,2.436-.682,3.069-3.337,5.274-4.165s2.144-2.558,2.071-4.47c-.1-2.436-1.742-4.774-.11-7.381C769.072,197.916,767.745,196.478,766.88,196.186Z" transform="translate(-479.601 -16.72)" fill="#472ea6"/>
        <path id="Trazado_105815" data-name="Trazado 105815" d="M786.188,397.055c2.095-.987,3.654.061,5.055,1.474a3.946,3.946,0,0,0,3,.95,19.487,19.487,0,0,0,6.8-1.1,11.814,11.814,0,0,1,7.174-.451,16.308,16.308,0,0,0,4.446.353,73.592,73.592,0,0,0,19.317-1.8c.95-.256,1.474-.585,1.5-1.522v-3.654l-.207-60.252c0-4.75,0-9.5-.1-14.25,0-2.777-.828-3.3-3.447-2.436a5.556,5.556,0,0,0-1.851.84c-4.3,3.325-9.512,5.225-13.714,8.721a13.559,13.559,0,0,1-2.8,1.62c-4.872,2.351-10.267,3.508-14.4,7.308a4.872,4.872,0,0,1-4.994.877,4.872,4.872,0,0,0-4.872.889,7.954,7.954,0,0,1-6.967,1.364,10.877,10.877,0,0,0-7.1.889,50.352,50.352,0,0,1-6.881,2.436c-4.214,1.072-5.4.244-6.54-4.031-.207-.78-.438-1.559-.6-2.351a4.945,4.945,0,0,0-2.777-3.8,5.371,5.371,0,0,1-3.569-5.359c0-1.315-.865-2.2-2.5-2.436-.219,1.34-.438,2.655-.633,3.983A73.918,73.918,0,0,1,746.58,338.4c-1.011,3.008-2.229,3.276-4.713,1.535a9.9,9.9,0,0,0-9.11-1.522c-2.619.828-3.654.353-4.872-2.131-.743-1.6-1.218-3.288-1.949-4.872-.889-2.107-5.225-3.008-6.967-1.522a1.352,1.352,0,0,0-.463,1.79c1.413,2.606,0,5.639,1.376,8.319a3.008,3.008,0,0,1-1.218,3.654c-4.324,3.215-8.526,7.04-14.615,5.3-.682-.195-1.388-.487-1.9,0-1.8,1.912-4.531,3.081-4.616,6.333a13.312,13.312,0,0,1-3.654,8.745c-1.742,1.949-3.2,3.654-6.09,2.862-.682-.195-1.608-.171-1.766.512-.731,3.008-3.325,4.872-3.8,8.306-.914,6.48-1.8,13.4-9.037,16.6-.158.073-.171.451-.256.694.67.962,1.742.463,2.606.694,2.278.585,2.168,2.923,3.313,4.3s4.056.451,4.762,3.081c.767,2.862,1.218,5.627-1.035,8.039a8.526,8.526,0,0,0-2.058,5.176c-.755,7.2,1.413,13.958,2.947,20.815a2.01,2.01,0,0,0,.6,1.047c3.654,3.045,6.09,7.673,11.9,7.637,2.765,0,5.335,1.218,5.87,4.58a1.791,1.791,0,0,0,1.973,1.644,3.982,3.982,0,0,1,2.874,1.34c1.218,1.328,2.7,1.048,4.165.585,3.934-1.218,7.734-3.045,11.936-2.192,0-4.555.073-8.611,0-12.667-.122-5.286-.487-10.572-.548-15.833,0-3.52.585-3.788,4.129-3.106s7.028,2.168,10.791,1.474a33.856,33.856,0,0,1,6.48-.487,9.427,9.427,0,0,0,7.539-3.325A13.714,13.714,0,0,0,754,410.928c.9-2.728,4.007-3.946,5.3-2.071,1.754,2.582,2.911,2.436,4.713.3a4.629,4.629,0,0,1,2.144-1.108c3.325-1.072,5.7-4.653,9.744-3.751a1.252,1.252,0,0,0,.67-.426c2.083-2.606,4.616-3.386,7.917-1.291C784.41,400.161,784.008,398.042,786.188,397.055Z" transform="translate(-489.762 17.245)" fill="#fd8f25"/>
        <path id="Trazado_105816" data-name="Trazado 105816" d="M711.473,187.148c.828,3.276,1.717,6.553,2.692,9.744a21.083,21.083,0,0,1,.8,8.842c-.365,2.911-1.364,5.834-.122,8.769-2.07,3.654-.731,6.967.743,10.377a5.517,5.517,0,0,1-.171,3.654,8.16,8.16,0,0,0,.719,6.37,9.281,9.281,0,0,1,8.051-.329,3.922,3.922,0,0,0,1.608.1c.548,0,1.218-.353,1.218-.889.122-2.631,4.19-2.777,3.581-5.858-.256-1.291-.743-2.631.073-3.958.463-.743,0-1.218-.706-1.547-2.753-1.218-2.887-3.654-2.911-6.175a17.052,17.052,0,0,1,2.509-8.172c-.158-.719-.317-.755-.585-.475-1.218,1.218-2.436,2.85-4.433,2.314-2.29-.621-2.095-2.911-2.546-4.7-.512-1.973.621-4.336-1.644-5.944-.67-.475,0-1.559.524-2.156,2.192-2.3,2.862-5.53,4.872-7.929,1.4-1.644.755-3.654.475-5.493a14.933,14.933,0,0,1,.195-6.845c.487-1.62,1.218-3.215,2.911-3.654,2.436-.694,3.861-2.436,5.286-4.251l.195-.244c1.608-4.068,4.311-7.551,5.079-12.18.548-3.337,4.226-6.09,7.015-8.611,1.547-1.4,2.3-2.606.913-4.945-2.363-4.007-.256-8.221.853-12.119.743-2.594,1.693-5.055,1.486-7.771a4.456,4.456,0,0,1,.11-1.474c-2.436-2.436-5.529-2.74-8.769-2.606-4.056.171-5.237-1.218-3.8-5.018.183-.5.487-.962.682-1.474,1.218-3,.3-4.774-2.9-5.651-2.57-.719-2.716-.95-2.29-3.654.536-3.386-.146-4.19-3.459-3.873-3.8.365-7.308,1.766-11.51,2.85,4.738,3.276,3.532,6.8,1.108,10.353a12.364,12.364,0,0,0-1.632,4.141,5.371,5.371,0,0,1-4.348,4.312c-2.034.451-3.654,1.669-5.566,2.436-4.226,1.754-5.846,5.371-7.04,9.39-.39,1.328.219,2.01,1.072,2.777,3.435,3.094,5.822,7.1,8.964,10.474a10.109,10.109,0,0,1,2.436,6.346c.256,3.654-1.766,5.383-5.249,4.506a3.409,3.409,0,0,1-.767-.28,5.359,5.359,0,0,0-6.394.743,8.268,8.268,0,0,1-1.864.889c.4,1.291,1.608,1.4,2.436,2a8.526,8.526,0,0,1,3.654,5.676,4.568,4.568,0,0,0,2.022,3.654,4.957,4.957,0,0,1,1.839,3.52c.341,1.863.5,3.739,2.083,5.128a1.766,1.766,0,0,1,.377,2.253C710.048,182.727,710.912,184.944,711.473,187.148Z" transform="translate(-484.093 -29.556)" fill="#21bfaa"/>
        <path id="Trazado_105817" data-name="Trazado 105817" d="M685.3,362.139a1.608,1.608,0,0,0,2.436,2.058c1.778-2.436,4.519-4.446,4.336-7.99a8.014,8.014,0,0,1,3.471-6.979c.84-.67,1.51-1.559,2.326-2.265a3.812,3.812,0,0,0,1.364-3.971c-.268-1.328-.353-2.692-.511-4.031a10.353,10.353,0,0,1,2.2-8.306c2.582-3.191,4.482-6.857,3.386-11.217,0-1.681.061-3.3,0-4.872a2.156,2.156,0,0,0-1.486-2.2c-1.218-.341-1.535.816-1.888,1.656a14.749,14.749,0,0,1-2.436,4.178c-2.18,2.436-2.85,5.176-1.4,8.246a4.945,4.945,0,0,1,.378,3.556,32.665,32.665,0,0,0-1.218,10,5.407,5.407,0,0,1-3.215,5.213c-3.435,1.827-3.654,2.095-3.021,5.8a7.978,7.978,0,0,1-1.5,6.516C687.427,359,686.319,360.543,685.3,362.139Z" transform="translate(-487.122 16.877)" fill="#472ea6"/>
        <path id="Trazado_105818" data-name="Trazado 105818" d="M636.553,361.875c-1.644,3.654-1.559,8.014-4.178,11.339a2.546,2.546,0,0,0-.317,1.559,26.966,26.966,0,0,1-3.654,14.774,2.728,2.728,0,0,0,.146,3.41c1.474,1.583,2.972,3.325,5.006,4.068,1.693.621,2.753-1.364,4.214-1.949a6.084,6.084,0,0,0,1.06-.609c3.325-2.156,7.478-3.422,8.526-7.99a1.523,1.523,0,0,1,.828-.865c2.192-.816,2.7-2.814,3.52-4.677.536-1.218,1.084-3.057,2.436-3,3.021.146,6.3-.122,9.013.95,1.961.767,3.142.9,4.7-.207a12.186,12.186,0,0,1,2.107-1.218,3.568,3.568,0,0,1,3.8.731c1.108.865.974,2.07.682,3.337-.231.962-1.3,1.766-.694,3.106,2.643-.743,5.615-1.742,6.406-3.934.889-2.509,3.033-4.994,1.632-8.258-.84-1.949.39-3.824,2.631-4.251,5.895-1.145,7.089-6.212,8.745-10.572,1.559-4.153.317-8.867,2.095-13.775-1.34.146-1.985.438-2.351.219-2.765-1.547-5.079-.8-7.722.646-2.351,1.218-4.762.073-6.626-1.742s-1.023-3.995.1-5.919,2.436-3.934,2.071-6.09c-.621-3.824.524-7.308,1.62-10.718,1.669-5.274-.621-10.694.706-15.992a15.423,15.423,0,0,0,.11-4.044c0-.889-.463-1.8-1.425-1.51-2.034.6-4.019.146-6.029.11a3.228,3.228,0,0,0-3.325,2.363c-1.839,4.506-3.033,4.872-7.381,2.9a2.1,2.1,0,0,0-1.656-.122,4.2,4.2,0,0,1-.56,1.34c-1.924,2.18-2.716,4.507-1.6,7.405a3.337,3.337,0,0,1-1.218,3.654,6.09,6.09,0,0,0-1.62,5.883c1.035,5.335.658,5.956-4.092,8.708-1.985,1.218-4.433,2.436-4.665,4.8-.5,5.079-2.7,9.61-3.9,14.445a6.492,6.492,0,0,1-3.5,4.665C639.281,356.224,637.9,358.928,636.553,361.875Z" transform="translate(-499.581 13.901)" fill="#472ea6"/>
        <path id="Trazado_105819" data-name="Trazado 105819" d="M687.916,379.865a7.113,7.113,0,0,0,3.654-5.505c.633-3.593,2.119-7,2.265-10.718a2.655,2.655,0,0,1,.828-1.778c1.851-1.413,2.18-3.654,3.313-5.517.828-1.3.914-2.655-.39-4.506-.378.682-.56,1.035-.767,1.376-1.742,2.8-3.556,5.444-7.308,5.858-1.218.134-1.4,1.108-.792,2.131a3.544,3.544,0,0,1-.585,4.786,4.153,4.153,0,0,0-.865,2.229c-.889,3.654-6.54,7.856-10.353,7.6a6.368,6.368,0,0,1-1.961-.438c-1.693-.755-2.058-1.973-1.06-3.581.6-.95,1.681-1.644,1.6-2.96-.548-.1-.877-.268-1.047-.171-2.789,1.681-5.493,3.837-8.842,1.084a.828.828,0,0,0-.755,0c-2.095,1.291-3.873.061-6.09-1.072-1.218,3.081-2.01,6.382-5.189,7.917-.158.073-.195.5-.207.767-.1,1.73-1.425,2.436-2.582,3.435a67.455,67.455,0,0,1-9.269,5.858,4.178,4.178,0,0,0-2.436,4.969,21.047,21.047,0,0,0,.767,3.556c1.413,3.654,2.777,7.308,4.153,11.022a10.741,10.741,0,0,1,.731,2.3c.256,2.083-.5,2.8-2.558,3.337-3.2.816-5.128-.743-6.467-3.24-1.218.329-1.547,1.34-2.144,2.022-1.571,1.79-3.654,2.144-5.883,2.3-1.218.085-2.144-1.51-3.386-.536s-.926,2.5-1.571,3.654a12.176,12.176,0,0,0-.731,1.888c-2.2,6.5-2.2,6.5-8.769,5.53-2.716-.4-3.593.475-2.765,3.106.548,1.705,1.291,3.3.426,5.067-.67,1.352.207,1.62,1.218,1.876,4.4,1.108,4.75,1.5,5.359,5.737.463,3.264.438,3.4,3.861,3.958,1.973.329,3.41.9,3.654,3.057s1.5,1.9,2.935,1.4,2.753-1.108,3.873-.085c1.937,1.754,3.337.877,4.238-.8,2.7-5.079,7.442-8.6,10.219-13.592.56-.974,1.3-1.961,2.436-1.876,2.594.183,3.581-1.6,4.531-3.4a24.933,24.933,0,0,1,6.735-8.063c1.973-1.547,3.154-3.289,2.874-5.846a4.251,4.251,0,0,1,2.85-4.8,10.815,10.815,0,0,0,5.664-6.09,5.761,5.761,0,0,1,3.045-3.654,2.947,2.947,0,0,0,1.985-3.215c-.232-2.789,1.12-4.957,2.606-7.076C681.619,385.7,683.945,382.009,687.916,379.865Z" transform="translate(-503.444 25.495)" fill="#472ea6"/>
        <path id="Trazado_105820" data-name="Trazado 105820" d="M646.849,327.621a17.5,17.5,0,0,1,4.8-3.654,12.534,12.534,0,0,0,2.436-1.462,2.083,2.083,0,0,0,.512-2.253c-.317-1.084-1.218-.743-2.01-.743-1.888,0-3.776.085-5.651.1-1.644,0-3.106,0-4.165,1.754a5.115,5.115,0,0,1-4.165,2.119c-2.607.268-2.838.706-2.436,3.337.755,5.286,3.422,9.817,5.773,14.956a22.713,22.713,0,0,0,3.081-9.8A6.784,6.784,0,0,1,646.849,327.621Z" transform="translate(-497.808 18.437)" fill="#472ea6"/>
        <path id="Trazado_105821" data-name="Trazado 105821" d="M843.211,389.818a12.376,12.376,0,0,0,5.067-3.008c-2.375-.317-3.654.853-5.079,1.474s-2.606,1.425-3.861.8c-3.2-1.583-6.772-1.778-10.048-3.021-3.9-1.462-7.734-3.057-12.058-1.035a10.6,10.6,0,0,1-5.615.6,26.136,26.136,0,0,0-7.308.122,12.812,12.812,0,0,1-4.872-.28,14.932,14.932,0,0,0-7.6.365c-4.555,1.279-9.22,2.436-13.166-1.449-1.035,1.023-.475,1.985-.524,2.887-.171,2.546-1.218,3.374-3.654,2.862a9.06,9.06,0,0,1-1.863-.755c-.621-.292-1.352-.682-1.876-.1a8.525,8.525,0,0,1-7.308,2.765c-.731,0-1.145.67-1.547,1.218a4,4,0,0,1-2.655,1.705,7.174,7.174,0,0,0-4.385,2.655c-1.656,1.815-3.422,1.669-5.371,0-.6-.487-.706-1.522-1.729-1.559-.56.256-.6.816-.767,1.3-2.095,5.822-7.88,9.744-13.4,9.049a12.556,12.556,0,0,0-3.654.244,22.386,22.386,0,0,1-11.23-.548c-2.521-.889-3.215-.3-3.13,2.314.122,3.654.378,7.308.512,10.962.244,6.772-.073,13.568.938,20.3.171,1.218,0,2.363.974,3.374a19.817,19.817,0,0,1,6.151,10.231,2.813,2.813,0,0,0,1.1,1.656,79.063,79.063,0,0,1,7.771,7.746c2.886,3.069,5.992,5.676,10.45,2.533a5.509,5.509,0,0,1,1.218-.451,12.121,12.121,0,0,0-.11-2,10.146,10.146,0,0,1,3.13-7.637c1.827-1.79,5.493-2.034,8.392-1.218,5.615,1.559,9.317,6.151,13.909,9.342.877,4.506,4.555,6.967,7.308,10.06a1.28,1.28,0,0,1,.183.365c.78,1.681,2.01,2.168,3.91,2.18a6.893,6.893,0,0,0,4.872-1.218,9.745,9.745,0,0,1,3.337-1.413,13.215,13.215,0,0,0,9.293-8.879c.511-1.522,1.218-2.436,2.911-1.863a2.74,2.74,0,0,0,2.85-.84c2.253-1.912,2.436-3.727,1.133-6.321s-1.011-4.08,1.376-5.566c1.912-1.218,2.716-2.57,2.229-4.665-.962-4.056.743-7.405,2.667-10.742,1-1.729,2.253-2.619,4.336-2a5.663,5.663,0,0,0,5.907-1.693c1.644-1.62,3.483-3.033,5.079-4.689a5.481,5.481,0,0,1,4.312-1.62,56.931,56.931,0,0,0,12.058-1.145c6.479-1.547,13.044-2.765,19.244-5.639A25.336,25.336,0,0,0,870.2,412.2c-2.351-.378-4.64-.146-6.845-.451-1.79-.231-3.422-.512-5.128.378a4.165,4.165,0,0,1-5.213-.9,4.446,4.446,0,0,0-4.385-1.218c-3.983.706-5.615-.524-6.09-4.482-.329-2.862-1.352-4.713-4.238-5.749-2.509-.9-2.9-2.667-1.328-4.811a15.043,15.043,0,0,1,6.236-5.152Z" transform="translate(-480.467 32.521)" fill="#9182ca"/>
        <path id="Trazado_105822" data-name="Trazado 105822" d="M854.461,413.339c-1.949-.767-3.459.219-4.872,1.218a9.038,9.038,0,0,1-6.09,1.924,5.322,5.322,0,0,0-2.351.487,41.047,41.047,0,0,1-16.223,3.191c-2.3,0-4.433,1.364-6.82.743-.694-.183-1.218.5-1.693.95-1.6,1.474-3.252,2.874-4.872,4.36-2.18,2.058-4.543,3.435-7.685,2.57a1.693,1.693,0,0,0-2.131.719c-1.352,2.619-3.2,4.994-2.436,8.343.731,3.057.438,5.992-2.972,7.6-1.218.585-1.364,1.559-.743,2.7a10.121,10.121,0,0,1,.536,1.1c1.815,4.713-.171,8.611-5.115,9.6a4.1,4.1,0,0,0-3.069,2.18c-2.546,4.178-5.883,7.381-10.962,8.526-1.449.317-3.483.731-3.3,2.911a25.371,25.371,0,0,0,1.218,3.849,2.436,2.436,0,0,0,2.923,2.083c1.3-.11,1.924.719,2.241,1.912a12.7,12.7,0,0,0,2.131,4.348c1.218,1.6,2.18,2.984,4.543,2.558,1.851-.329,3.13.974,3.812,2.509,1.34,3.033,3.739,3.934,6.808,4.178,1.973.158,4.092.365,5.6,2.022.171.195.536.463.682.4,4.3-1.912,6.967,2.655,10.888,2.728a5.578,5.578,0,0,1,5.31,4.36c.134.512.219,1.4.487,1.462,3.13.78,2.935,3.435,3.435,5.749a10.434,10.434,0,0,0,1.084,2.619c1.388,2.594,1.864,2.813,4.872,2.046a52.334,52.334,0,0,0,5.042-1.559c4.178-1.486,4.385-1.425,6.09,2.533a6.016,6.016,0,0,0,1.827,3.094c1.218.8,2.217,1.486,3.654.244a9.343,9.343,0,0,1,2.814-1.608,4.214,4.214,0,0,1,4.994,2.351c.487,1.4-.5,1.888-1.51,2.436-2.728,1.462-2.789,1.924-2.192,4.653a20.5,20.5,0,0,1,0,9.646,5.274,5.274,0,0,0,.67,4.64c.609.889,1.328,1.717,1.961,2.594.779,1.084,1,2.862,2.436,3.118,1.644.292,1.79-1.754,2.789-2.582a4.738,4.738,0,0,1,4.872-1.06,7.065,7.065,0,0,0,4.336.572,2.947,2.947,0,0,1,3.727,1.656c.9,1.778,2.265,1.961,4.1,1.474,3.069-.816,3.739-.621,4.506,2.241s2.314,3.447,4.872,3.873l1.474.256c.085-2.241.122-4.482,0-6.735a2.18,2.18,0,0,0-.828-2.034c-3.118-2.119-4.616-5.676-7.308-8.16a4.555,4.555,0,0,1-.792-6.48,4.129,4.129,0,0,0-.146-5.237c-2.022-2.314-3.654-4.981-5.968-7.052-1.011-.9-2.436-2.119-3.252-1.864-3.386,1.047-3.861-1.766-5.371-3.362-1.8-1.9-3.788-3.8-3.581-6.54.658-8.148.146-16.3.39-24.444,0-1.011-.061-2.29,1.218-2.85,3.3-1.462,6.747-2.594,9.439-5.237.487-.475,1.888-.244,2.765,0s1.863.572,2.436-.085c2.57-2.972,6.187-2.192,9.744-2.874.585,4.872,6.09,2.874,8.075,6.09,2.034-1.06,3.325-2.655,5.408-3.264-.95-2.034-2.095-3.654-1.547-5.6,1.06-3.751-1.035-6.577-2.2-9.865-1.3-3.654-3.532-3.422-5.944-3.106-5.115.67-10.146.913-15.078-.889a3.374,3.374,0,0,0-4.482,1.632v-.816a3.849,3.849,0,0,1-1.218-3.252c-.073-6.382,0-12.789-.5-19.134a8.53,8.53,0,0,1,0-1.218,4.323,4.323,0,0,0-2.887-.926c-2.643.341-4.348-.974-5.761-3.008a8.452,8.452,0,0,0-5.785-4.044c-2.777-.475-3.325-3.435-1.474-6.175C852.391,415.921,854.108,415.239,854.461,413.339Z" transform="translate(-467.809 38.84)" fill="#9182ca"/>
        <path id="Trazado_105823" data-name="Trazado 105823" d="M907.653,268.261a11.535,11.535,0,0,1-6.906-.694c-4.787-2.217-9-.743-13.057,1.413a10.766,10.766,0,0,1-7.576,1.218c-.426.317-.877.621-1.34.913a9.744,9.744,0,0,1-6.93,1.79,10.048,10.048,0,0,0-7.308,1.742,20.707,20.707,0,0,1-4.957,2.582,3.483,3.483,0,0,0-2.436,2.509c-.292,1.035-1.011,1.961-1.218,3-1.571,7.064-7.2,9.951-13.166,11.108-6.76,1.315-11.668,5.566-17.344,8.526a4.421,4.421,0,0,0-1.815,3.081,8.282,8.282,0,0,1-4.872,5.566c-4.762,2.229-7.5,6.857-11.229,10.328-1.145,1.072-.865,2.789-.865,4.287v25.662q.207,26.673.463,53.346c0,4.787,1.06,6.09,5.81,6.881a12.179,12.179,0,0,1,5.042,1.413,4.324,4.324,0,0,0,4.945-.183,9.5,9.5,0,0,1,8.136-1.121c2.667.84,7.308-2.74,8.026-5.98a12.63,12.63,0,0,1,4.4-7.892c1.4-1.145,3.325-3.483,2.29-6.309a4.872,4.872,0,0,1,.353-3.581c.487-1.108,1.4-2.034,2.436-1.693,3.4,1.1,6.346-.913,9.488-.913.682-1.413-.889-2.789.28-3.983a5.968,5.968,0,0,1,4.092-1.474c4.141-.329,7.9-1.486,10.84-4.689,1.425-1.559,3.5-2.022,5.481-2.5a2.229,2.229,0,0,1,2.57.792c.889,1.632,2.351,1.3,3.764,1.632,2.363.548,4.287.974,6.029-1.389.792-1.072,2.558-.767,3.885-.633,6.09.6,11.753-1.876,17.7-2.326,1.717-.134,2.436-1.535,3.118-2.9,1.218-2.546,3.045-4.141,6.09-3.532a3,3,0,0,0,2.947-1.023c3.057-3.52,7.052-3.654,11.205-3.033a4.2,4.2,0,0,0,3.021-.56,7.113,7.113,0,0,1,8.4.451,4.872,4.872,0,0,0,5.505.889c-.743-4.872-3.215-9.39-3.971-14.348-1.072-6.918-3.654-13.531-.974-20.864a15.4,15.4,0,0,0-.5-10.962,5.164,5.164,0,0,1,.195-3.654c.268-.682,1.279-1.34.889-1.961-3.544-5.737,1.632-7.685,4.531-10.621s3.569-6.346,3.252-10.182a6.967,6.967,0,0,1,2.765-6.626c4.872-3.946,6.09-11.181,3.8-15.833-1.133-2.253-2.241-3.483-4.957-2.436-2.022.767-3.337-1.023-4.872-1.973-5.14-3.179-4.677-2.131-9.037.256s-8.818,4.726-14.2,3.483a5.237,5.237,0,0,0-4.945,1.047,9.5,9.5,0,0,1-9.744,1.669C912.707,267.092,910.1,267.822,907.653,268.261Z" transform="translate(-460.626 5.378)" fill="#fd8f25"/>
        <path id="Trazado_105824" data-name="Trazado 105824" d="M686.875,274.806c-1.973,1.218-2.107,3.362-1.669,5.359s1.3,3.763,3.654,3.751c1.985,0,3.776,1.388,5.931.4,1.279-.6,2.339.512,2.716,1.778a14.816,14.816,0,0,1,.426,3.215c.134,2.217,1.121,3.532,3.471,3.654a5.955,5.955,0,0,1,4.384,1.827,7.308,7.308,0,0,0,7.734,2.278,30.306,30.306,0,0,1,5.189-.926c2.338-.146,3.374-1.218,3.471-3.544a15.956,15.956,0,0,1,3.739-9.257,2.655,2.655,0,0,1,3.9-.767,9.269,9.269,0,0,1,3.812,9.269c3.824-2.095,8.27-3.094,11.29-6.577a1.669,1.669,0,0,1,1.9-.39c2.326.926,3.569-.39,4.616-2.131,1.218-2,2.436-3.934,5.018-4.372,1.218-.207,1.376-1.218,1.291-2.2a31.886,31.886,0,0,0-.573-3.191c-.524-2.8-1.218-5.578-1.522-8.392-.207-1.863,1.218-3.008,3.386-3.228,1.924-.207,2.911.609,3.215,2.7.11.8,0,1.644.17,2.436.231,1.035,1.315,1.4,1.79.67,1.839-2.8,5.274-4.872,3.97-9.183a7.734,7.734,0,0,1,.28-5.59,2.753,2.753,0,0,0-1.486-4.056c-3.654-1.34-6.479-4.287-10.4-5.164-2.728-.621-3.52-2.058-2.3-4.421a6.783,6.783,0,0,0,.268-5.858c-1.352-3.167-1.218-6.991-4.117-9.524-1.425-1.218-.244-4.653-2.96-4.628a46.589,46.589,0,0,0-6.017.6c-.682.1-1.51.158-1.754.828-1.218,3.386-3.349,2.838-5.822,1.547a6.6,6.6,0,0,0-2.777-.524c-3.41-.134-6.09-1.328-7.149-4.872-.39-1.218-.987-1.669-2.436-1.06-3.52,1.522-5.225.524-5.773-3.276a14.541,14.541,0,0,1,.085-6.09c.694-2.509-.828-4.421-1.729-6.5a.8.8,0,0,0-1-.463c-.329.122-.816.524-.792.755.365,3.045-1.218,6.382.719,9.122,2.18,3.118,1.328,6.09.706,9.342s.78,6.967-1.827,9.744-2.984,5.931-3.91,9.171a4.568,4.568,0,0,0,1.6,5.322c2.667,2.278,2.594,2.716-.268,4.726-3.447,2.436-7.076,4.665-9.512,8.148a16.5,16.5,0,0,1-7.783,6.236c-3.033,1.218-2.96,1.328-2.229,4.421C690.675,269.508,690.322,272.626,686.875,274.806Z" transform="translate(-487.131 -7.842)" fill="#472ea6"/>
        <path id="Trazado_105825" data-name="Trazado 105825" d="M679.75,287.644a6.3,6.3,0,0,0,6.455.585,7.3,7.3,0,0,1,1.218-.329c4.945-1.486,7.2-1.742,7.417,5.639.11,3.776,1.34,6.175,4.628,7.746a10.5,10.5,0,0,1,3.715,3.106c1.133,1.462,2.29,1.218,3.313-.183.646-.865,1.218-1.8,1.876-2.655a9.293,9.293,0,0,1,5.688-3.654c3.386-.633,3.471-.694,4.251,2.753.219.913.438,1.462,1.474,1.522,2.022.1,2.679,1.571,3.069,3.252a5.445,5.445,0,0,0,2.631,3.837c2.509,1.5,2.826,4.506,3.983,6.918a6.723,6.723,0,0,1-.646,7.308c-1.218,1.839-.865,3.02,1.218,3.824,2.57.974,4.519,2.29,5.371,5.018a2.241,2.241,0,0,0,2.192,1.535,3.179,3.179,0,0,1,3.008,1.742c.56,1.218,1.315,1.669,2.546.877s2.521-1.8,1.876-3.215c-2.582-5.59.463-8.891,4.519-11.839,1-.731,1.449-1.4.938-2.7a5.736,5.736,0,0,1,0-5.14,25.955,25.955,0,0,1,5.566-6.967c1.547-1.218,3.021-.256,4.324.926,2.923,2.631,3.167,2.631,5.554-.438,1.888-2.436,4.7-3.971,6.163-6.857.767-1.535,2.533-1.888,4.287-1.73,1.535.146,3.191-1.328,3.885-3.2.585-1.608-.475-2.119-1.559-2.789q-2.777-1.717-5.408-3.654c-2.278-1.62-2.351-2.984,0-4.653,1.035-.743,1.571-1.388,1.413-2.606a5.945,5.945,0,0,1,.56-3.167,2.959,2.959,0,0,0-.329-3.033c-1.961-3.154-1.559-6.09.84-8.976a40.066,40.066,0,0,0,2.9-4.421c.512-.8,1.035-1.949,1.937-1.973,5.286-.183,4.519-5.14,6.321-7.978.889-1.388.56-3.5,2.436-4.494a.938.938,0,0,0,.475-.621c0-3.788,2.7-6.358,4.056-9.537.158-.378.329-.743.512-1.108h-.9a4.994,4.994,0,0,1-2.582-.877,17.044,17.044,0,0,1-2.034,1.4c-2.8,1.62-5.444,3.422-8.611,4.311a5.639,5.639,0,0,0-2.277,1.644c-1.218,1.291-2.168,2.911-4.373,1.729-.792-.414-1.218.329-1.486.938a6.09,6.09,0,0,0-.134,4.372c1.315,5.383-2.57,8.526-5.262,12.119-.694.926-2,.731-3.081.451s-1.973-.621-2.947-.95a6.857,6.857,0,0,0,.475,3.885,10.887,10.887,0,0,1,.292,4.433c-.1,1.656-.8,3.069-2.436,3.288-2.217.292-3.215,1.717-4.226,3.386-1.328,2.156-2.947,3.946-5.858,3.569a3.47,3.47,0,0,0-2.217.853,46.528,46.528,0,0,1-5.347,2.923,8.063,8.063,0,0,0-4.872,4.519c-.5,1.218-1.218,2.546-2.935,2.363s-2.278-1.73-2.643-3.191a6.162,6.162,0,0,1,.158-3.995c.4-.95,1.742-1.6,1.108-2.838a5.785,5.785,0,0,0-2.631-3.118c-2.874,1.961-3.179,5.1-3.727,8.136-.219,1.218-.207,2.436-.487,3.654-.219.95-.816,1.937-1.937,1.681-2.96-.67-5.615.658-8.4,1.035-3.532.475-6.784.244-9.378-2.57a5.639,5.639,0,0,0-3.191-1.571c-4.774-1.06-5.481-1.949-5.883-6.772a9.653,9.653,0,0,0-.232-1.218c-4.19.84-9.317-1.632-12.594-6.09-1.352.207-1.218,1.376-1.218,2.18a15.456,15.456,0,0,1-2.314,10.06A6.357,6.357,0,0,0,679.75,287.644Z" transform="translate(-488.275 0.123)" fill="#472ea6"/>
        <path id="Trazado_105826" data-name="Trazado 105826" d="M622.657,462.2c.329,3.228,2.558,4.945,5.176,6.285a2.643,2.643,0,0,0,2.351-.183c2.838-1.218,5.6-2.85,8.794-.731.694.463,1.669-.207,1.937-1.011s-.439-1.145-1.218-1.279c-2.509-.475-3.532-3.045-5.785-4.056-1.218-.536-1.388-2.533-1.218-4.092.487-3.2.633-6.5,3.094-9.1a16.192,16.192,0,0,1-1.644-1.583c-.865-1.072-4.872-4.458-5.956-4.8-2.436-.743-2.911-2.436-2.96-4.726-.085-3.544-.17-3.544-3.654-4.3-2.8-.609-3.983-2.351-2.887-4.957a3.581,3.581,0,0,0-.158-3.41,5.4,5.4,0,0,1-.512-3.167c.268-2.74,1.425-3.824,4.226-3.776a21.778,21.778,0,0,1,4.421.572,1.876,1.876,0,0,0,2.436-1.389c.8-2.314,1.571-4.628,2.436-6.93,1.218-3.569,2.5-4.312,6.09-3.24a4.19,4.19,0,0,0,5.225-1.888,17.683,17.683,0,0,1,1.157-1.669c1.705-1.985,2.911-1.924,4.519.256.487.646.792,1.425,1.218,2.083a1.6,1.6,0,0,0,2.192.414c.792-.426.414-1.157.183-1.778q-1.839-4.738-3.508-9.549a19.754,19.754,0,0,1-1.437-6.687,5.127,5.127,0,0,0-2.363-4.482c-.987-.694-1.8-1.644-2.765-2.436a5.1,5.1,0,0,1-2.095-5.359c.438-2.095-.767-2.765-2.436-3.569-3.654-1.827-7.466-.731-11.205-.779-.987,0-1.133,1.023-1.218,1.815-.621,3.654-2.923,5.31-6.54,5.359a2.991,2.991,0,0,0-1.559.256c-2.2,2.29-5.128,2.436-7.917,3.288-2.241.694-3.654.694-4.945-.987a4.494,4.494,0,0,0-5.286-1.888c-2.18.572-4.153-.256-6.248-1.06-3.081-1.218-5.03-3.922-8.063-5.128-1.364-.548-1.644-2.436-2.107-3.812-.122-.378-.244-.719-.378-1.047-1.547,1.035-1.851,3.654-2.29,5.542-.974,4.117-2.777,7.442-6.638,9.317-2.667,1.3-2.643,3.958-3.167,6.163-1.12,4.75-1.644,5.59-6.187,6.09a4.507,4.507,0,0,0-2.278.731,2.485,2.485,0,0,0,0,.3,5.347,5.347,0,0,0,1.523,4.044c3.008,3.471,6.09,6.869,7.442,11.5a3.654,3.654,0,0,0,3.654,2.765c3.179.207,6.248,1.352,9.549,0,1.924-.755,3.654.134,4.336,2.436a9.17,9.17,0,0,0,4.543,5.481c3.349,1.864,3.654,5.81.731,8.44-1.571,1.425-3.52,2.533-3.971,4.981l6.175,2.071c1.876.658,3.057-.438,4.287-1.583,3.021-2.789,4.628-2.667,6.65.767a11.633,11.633,0,0,0,3.021,3.191c2.972,2.436,3.24,3.654,1.145,6.784-1.535,2.314-.792,4.421.195,6.516a1.376,1.376,0,0,0,2.375.365c1.352-1.425,3.447-1.571,4.738-3.081a1.705,1.705,0,0,1,2.813.146c1.522,1.778,2.9,3.654,2.29,6.212a15.942,15.942,0,0,0-.329,5.335Z" transform="translate(-514.052 28.95)" fill="#ef2a66"/>
        <path id="Trazado_105827" data-name="Trazado 105827" d="M647.036,290c-1.035.329-2.095.889-3.155.378-1.937-.938-3.459-.085-4.872,1.047-1.218.962-3.313,1.559-2.838,3.5s2.436.889,3.837,1a3.861,3.861,0,0,1,3.91,3.849c0,2.058-1.717,4.092-3.837,3.861-2.619-.28-2.911.974-3.033,2.984a45.746,45.746,0,0,1-.853,4.811c4.726-2.119,5.31-1.924,6.869,2.436.475,1.328.865,2.253,2.509,1.766,3.228-.95,5.834.219,8.075,2.509.572.585,1.072,1.291,2.046.792s1.6-1.218,1.218-2.29c-1.218-3.118-.219-5.59,1.51-8.306,2.144-3.41,2.253-3.739,6.175-2.29,2.436.889,2.753.938,3.508-1.6a5.042,5.042,0,0,1,5.773-3.983c2.436.219,4.872-.548,7.235-.438,1.291,0,1.632-.646,1.924-1.6.658-2.2,1.388-4.385,1.949-6.613a35.477,35.477,0,0,0,.548-10.523,1.949,1.949,0,0,0-1.3-1.876c-.974-.341-1.486.378-1.985,1.011s-1.108,1.547-1.62,2.339c-1.778,2.716-3.837,4.324-7.454,3.3-2.789-.792-4.482.451-5.615,3.179a18.247,18.247,0,0,1-.986,2.229c-1.121,2.01-2.692,3.459-5.14,3.386a4.872,4.872,0,0,1-4.872-3.654c-.767-3.288-3.52-5.042-5.006-7.71-.4-.731-.9-.938-1.632-.536s-1.51.8-1.328,1.79c.085.524.5.974.633,1.486C649.874,288.672,649.485,289.245,647.036,290Z" transform="translate(-497.788 9.691)" fill="#472ea6"/>
        <path id="Trazado_105828" data-name="Trazado 105828" d="M619.336,347.548a39.656,39.656,0,0,0-7.308,3.5,2.8,2.8,0,0,1-4.251-.78,2.436,2.436,0,0,0-2.74-1.218c-.5.11-1.3.1-1.547-.207-2-2.436-4.872-2.01-7.454-2.278a6.005,6.005,0,0,1-3.349-1.352c-2.119-1.79-4.58-2.034-7.235-1.827a2.838,2.838,0,0,0-2.058,1c-1.608,1.717-3.3,3.325-5.055,4.872l.231.195c1.474,1.072,1.486,2.947,2.728,4.044.609-.84,1.79-1.34,2.314-2.253,2.156-3.751,4.056-3.459,6.784.378-1,1.218-2.68,1.961-3.374,3.654.475,3.276,2.789,3.422,5.359,3.252,1.608-.11,3.459-.317,3.654,2.022.11,1.535.585,3.459-2,3.654-.56,0-1.571.548-1.559.78.341,5.042-3.228,6.394-6.967,7.807-1.474.548-2.095,2.29-2.838,3.654-.572,1.011-.755,2.058-1.656,2.765.158.426.317.865.475,1.34.512,1.693,1.218,2.96,3.069,3.386a3.484,3.484,0,0,1,2.131,1.1,9.1,9.1,0,0,0,9.744,3.41,4.677,4.677,0,0,1,5.091,1.705c.889,1.218,1.729,1.388,3.4,1.023,2.606-.572,5.274-.56,7.308-2.7a2.2,2.2,0,0,1,1.547-.353c3.764.158,5.164-1.888,5.724-5.347.487-3.045,1.376-3.313,4.482-2.436.5.146,1.1.438,1.535.3,3.654-1.121,6.942.171,10.28,1.34,2.509.877,2.972.621,3.654-1.973a12.692,12.692,0,0,0,.536-3.2c-.073-6.553,3.276-12.18,5.14-18.111a13.167,13.167,0,0,1,6.187-8.246,2.363,2.363,0,0,0,1.145-3.4,74.944,74.944,0,0,0-3.654-9.049,23.872,23.872,0,0,1-2.74-12.18c.073-3.215.463-3.593,3.569-3.276a3.106,3.106,0,0,0,3.033-.78c-2.631-.256-4.044-2.862-6.906-2.192-.987.219-1.547-.938-1.9-1.851-.719-1.9-1.315-3.849-2.131-5.7s-1.681-1.949-3.812-1.084c-3.106,1.218-4.385,4.312-6.772,6.272A22.034,22.034,0,0,1,627,320.388a8.526,8.526,0,0,0-5.091,7.734,6.406,6.406,0,0,1-2.022,5.115c-.536.451-1.133,1.218-.816,1.729,1.218,2.192.974,5.091,2.728,6.833s1.1,2.765,0,4.1a5.957,5.957,0,0,1-2.46,1.644Z" transform="translate(-510.378 16.463)" fill="#ef2a66"/>
        <path id="Trazado_105829" data-name="Trazado 105829" d="M603.7,486.86c0-2.168-.219-3.983-2.57-4.969a2.253,2.253,0,0,1-.926-3.727c2.728-3.776,3.021-8.684,5.919-12.411,1.279-1.656,1.693-3.654-.658-5.249-1.583-1.084-1.218-2.874-.548-4.445a8.4,8.4,0,0,1,5.59-4.385c1.035-.329,2.119-.487,3.142-.84,1.815-.621,2.96-1.413,2.253-3.849s-.828-4.872,1.084-6.93a1.6,1.6,0,0,0-.487-2.716,9.244,9.244,0,0,1-4.433-5.14c-1.449,0-1.851.828-2.436,1.352-2.2,1.973-4.555,2.911-7.393,1.328a18.147,18.147,0,0,0-4.312-1.133c-3.045-.816-3.873-2.765-2.326-5.53a17.734,17.734,0,0,1,4.1-4.482c2.022-1.8,1.937-2.96-.414-4.36a12.715,12.715,0,0,1-4.982-5.749c-.67-1.425-1.218-2.436-2.947-1.535-3.971,2.034-7.649-.475-11.449-.865-1.973-.207-3.033-2.29-3.532-4.141-1.084-3.971-3.751-6.906-6.321-9.829a11.135,11.135,0,0,1-2.5-4.068,38.609,38.609,0,0,1-4.2,1.924c-.621-.8-1.937-1.291-1.949-2.436,0-1.559-.548-2.034-2.095-2.095-2.01-.061-1.535,1.851-2.168,2.326-1.315,1-.122,2.546-1.8,3.654-3.179,2-3.958-1.1-5.749-1.9-2.436.475-4.2,1.681-4.482,4.178-.134,1.279-1.12,2.3-1.693,2.326-2.363.073-3.288,1.352-3.2,3.374.1,2.241-.706,4.506,1.51,6.589,3.8,3.593,2.692,9.366-1.985,11.692-1.449.719-1.571,2.436-1.12,2.765,1.3.828.719,2.107,1.011,3.021.5,1.547,0,2.509-2.326,2.083-11.437-2.131-10.633-.414-14.774,7.466,2.546,2.728,5.042,5.615,8.684,7.1,3.946,1.608,5.615,5.1,7.308,8.526.78,1.583,1.425,3.3,3.654,2.838,4.665-.962,7.9,1.522,10.073,4.969s4.981,4.275,8.27,4.75a15.836,15.836,0,0,1,6.516,2.5c3.654,2.436,7.576,4.056,12.18,3.337,2.278-.341,4.6-.6,5.055,3.179a7.113,7.113,0,0,0,5.14,6.09c2.241.6,2.07,2.119,2.022,3.727a4.433,4.433,0,0,0,3.288,4.774c2.911.633,5.81,1.912,8.83,1.864C603.656,490.16,603.668,488.528,603.7,486.86Z" transform="translate(-522.54 33.939)" fill="#ef2a66"/>
        <path id="Trazado_105830" data-name="Trazado 105830" d="M600.186,187.038a2.692,2.692,0,0,1,2,2.046c.743,6.224,4.421,11.631,4.872,17.916a6.552,6.552,0,0,1-2.034,5.7c-7.308-1.705-7.734-2.972-2.74-9.938a9.94,9.94,0,0,1-2.777-1.839,8.161,8.161,0,0,1-3.216,6.492c-.4.292-.913.9-.852,1.218.451,2.911-.694,5.3-2.18,7.637a1.656,1.656,0,0,0,.536,2.168,10.494,10.494,0,0,0,1.571,1.3c8.684,5.31,14.007,13.86,20.547,21.229,3.4,3.824,1.705,8.233,1.51,12.448,0,1.108-1.218,1.218-2.265,1.157a11.754,11.754,0,0,1-5.225-2.107c-2.728-1.693-4.872-.755-5.688,2.436a12.258,12.258,0,0,0-.158,2.022c-.158,1.839-.962,3.069-2.96,3.252a9.038,9.038,0,0,0-2,.365c-1.766.585-2.241,2.436-.67,3.3,2.326,1.352,3.861,2.9,3.654,5.761-.073.779.572,1.218,1.218,1.486a4.872,4.872,0,0,1,2.874,5.371c-.353,4.348,3.2,6.65,4.872,9.926a1.5,1.5,0,0,0,1.8.548c3.288-.767,6.638-1.352,9.829-2.436,3.581-1.218,8.185.463,9,4.117a55.953,55.953,0,0,0,5.664,13.848,9.744,9.744,0,0,1,1.011,6.7,15.957,15.957,0,0,0-.1,6.09c.451,2.558,1.9,3.045,3.995,1.462,1.4-1.06,2.716-2.241,4.092-3.349,2.095-1.693,4.36-2.728,7.149-2a2.217,2.217,0,0,0,1.937-.365c-.755-4.263.207-6.09,4.007-7.442,1.583-.572,3.045-.56,3.654,1.364a7.405,7.405,0,0,0,2.777,3.885c1.376,1.06,1.644,2.74,2.192,4.275s1.218,2.947,2.972,2.9,2.5-1.474,3.045-2.923c.755-1.973.987-4.226,3.508-5.091a10.17,10.17,0,0,1,5.968-.658c1.924.5,3.082-.451,4.068-1.912.828-1.218,1.681-2.436,2.594-3.654s2.058-2.083,3.483-1.6c1.876.621,2.436,0,3.228-1.693a13.861,13.861,0,0,0,1.729-7.308,9.61,9.61,0,0,1,2.947-7.783c1.8-1.717,2.2-4.6,4.969-5.566.84-.28.828-1.62.877-2.582a11.621,11.621,0,0,0-.6-3.581c-1-3.812-.755-4.385,2.838-5.737a16.832,16.832,0,0,0,8.526-6.553c2.265-3.41,6.09-5.359,9.122-8.026,0-1.571-1.912-2.01-1.754-3.544-1.985,0-2.789,1.4-3.934,2.241-2.351,1.717-4.774,3.13-7.868,2.436a4.165,4.165,0,0,1-3.764-3.654,7.868,7.868,0,0,0-.548-2.765,9.89,9.89,0,0,1,0-10.779c.1-.158-.11-.487-.171-.755-1.705.39-2.034,2.01-2.85,3.179-1.474,2.131-2.326,2.2-4.007.195a7.88,7.88,0,0,1-2.18-6.333c.292-2.278.39-4.592.585-6.894a3.009,3.009,0,0,1,.244-1.571c3.033-2.655,1.425-6.017,1.1-8.94-.426-3.654-2.789-6.626-5.432-9.183a26.438,26.438,0,0,0-3.021-2.07c-1.218-.938-2.363-1.218-3.5.195a4.031,4.031,0,0,1-2.826,1.437,14.956,14.956,0,0,0-7.978,2.582c-1.583,1.218-3.142.146-4.494-.755-1.656-1.1-2.85-1.035-4.068.731-2.436,3.41-4.056,7.442-8.185,9.342-.609.292-.633,1.145-.828,1.8-.9,3.021-.974,3.2-3.654,2.3-1.462-.487-1.912,0-2.533,1.035-2.265,3.654-5.286,6.894-6.406,11.266-.621,2.436-2.655,3.167-4.982,3.483-4.75.633-9.573-.475-14.214.341-5.688,1-8.769-.743-10.206-6.419-.816-3.215-3.4-5.81-4.056-9.256-.572-3.021-.341-5.578,2.095-7.795a10.133,10.133,0,0,0,3.179-6.857c.292-3.556,1.6-6.869,2.363-10.3a7.307,7.307,0,0,1,3.447-4.348,7.308,7.308,0,0,0,3.13-5.444c.353-2.923.28-3.24-2.7-4.251a5.03,5.03,0,0,1-3.654-4.446c-.317-2.314-.451-4.64-2.911-5.895a1.534,1.534,0,0,1-.67-.987,3.117,3.117,0,0,0-.122-.585,20.781,20.781,0,0,0-2.436,2.789c-3.276,4.567-7.466,6.48-12.435,7.515-1.218.256-2.436.731-3.654.877-1.6.195-2.935.609-3.252,2.436a2.74,2.74,0,0,0,1.973,3.362Z" transform="translate(-507.171 -14.125)" fill="#472ea6"/>
        <path id="Trazado_105831" data-name="Trazado 105831" d="M574.325,252.264a5.6,5.6,0,0,1,2.229,6.406c-.828,2.655.438,4.592,3.569,4.433,2.192-.11,3.179,1.133,4.092,2.862,2.923,5.517,2.887,11.534,3.276,17.526.317,4.872-1.5,9.744,2.631,14.421,3.118,3.5-1.5,11.96-6.346,12.362-2.131.171-3.191,1.51-4.409,2.619-1.742,1.559-1.218,3.459,1.218,3.91,1.145.231,2.5.268,2.765,1.328.962,3.885,4.019,7.454,2.071,11.79-.865,1.924-1.3,3.532.84,4.872,1.547,1.011.816,2.692.767,4.056-.1,3.021.1,5.712,2.862,7.795,1.754,1.328,2.436,3.008.536,5.31s-1.729,5.895-2.582,8.879c-.475,1.693-.219,3.52-3.094,4.433a8.83,8.83,0,0,0-5.286,5.785,6.736,6.736,0,0,0,.743,4.58c.853-.706,1.693-1.425,2.521-2.168a17.586,17.586,0,0,0,1.729-1.705c2.728-3.215,5.517-4.1,9.524-2.314,3.715,1.656,7.2,3.8,11.5,3.276,2.071,2.253,5.907.877,7.71,3.739a1.218,1.218,0,0,0,1.778.329c2.192-1.656,4.933-2.217,7.369-3.544-1.376-3.13-1.06-6.553-2.533-9.585-.646-1.3.231-2.667,1.389-3.544a4.616,4.616,0,0,0,1.742-3.9,10.487,10.487,0,0,1,6.09-9.415,23.068,23.068,0,0,0,7.308-6.821c1.632-2.119,1.559-3.118-.3-4.872a9.853,9.853,0,0,1-2.582-3.094c-2.887-6.528-2.972-9.013,3.435-13.787a7.082,7.082,0,0,1,1.035-.658c3.313-1.669,4.385-4.129,4.567-8.014a21.8,21.8,0,0,0-3.569-13.4c-1.425-2.2-1.815-4.8-2.521-7.308-1.023-3.52-3-4.519-6.528-3.581-3.264.877-6.6,1.535-9.9,2.253a4,4,0,0,1-4.75-2.241,7.307,7.307,0,0,0-1.462-2.436c-2.606-2.046-3.362-4.726-3.276-7.892,0-1.656-.365-3.252-2.265-3.91a2.923,2.923,0,0,1-1.985-3.2,3.386,3.386,0,0,0-2.034-3.654c-2.351-1.108-2.85-3.106-2.436-5.469a3.812,3.812,0,0,1,4.153-3.106c1.766-.061,2.338-.889,2.326-2.533a6.711,6.711,0,0,1,2.339-4.6c2.229-2.351,4.117-2.631,6.881-.987a10.659,10.659,0,0,0,3.837,1.973c1.108-3.313,1.559-6.479-1.011-9.366-6.3-7.052-11.485-15.127-19.707-20.376-4.2-2.667-4.312-4.092-1.863-8.38a4.8,4.8,0,0,0,.84-4.2,2.765,2.765,0,0,1,1.693-3.922,4.957,4.957,0,0,0,2.728-4.677c0-.987.085-1.985.134-2.972-1.912-3.057-6.09-4.1-8.611-6.93-1.742-1.937-3.654-3.5-4.482-6.163-1.035-3.106-3.422-3.654-6.419-2.071-3.849,2.034-4.287,3.13-2.436,6.516a10.962,10.962,0,0,0,2.436,3.654c5.6,4.238,5.481,11.412,8.781,16.844,1.364,2.265-.938,4.628-2.716,6.431a89.261,89.261,0,0,0-12.18,14.676,4.761,4.761,0,0,0-2.119-1.108c-1.827-.378-2.862-2.728-4.872-2.107s-2.229,2.509-2.558,4.409c-.244,1.388-2.046,1.717-3.191,2.436-4.872,3.081-5.176,4.811-1.632,9.025C567.431,244.98,570.086,249.243,574.325,252.264Z" transform="translate(-514 -12.058)" fill="#ef2a66"/>
        <path id="Trazado_105832" data-name="Trazado 105832" d="M621.477,179.758c.39,2.326.962,4.117,3.837,4.287,2.046.134,3.021,1.571,3,3.654,0,4.056-.56,7.892-4.324,10.377-3.508,2.326-3.654,6.333-4.251,9.744-.889,4.616-1.583,9.049-5.237,12.46-1.364,1.218-.95,3.081-.56,4.628,1.145,4.519,4.226,8.185,5.7,12.569.256.767,1.023.792,1.705.792l16.7-.146a4.348,4.348,0,0,0,4.7-3.532c1.425-4.75,5.1-8.27,7.551-12.484.122-.219.39-.365.56-.585,1.072-1.413,3.349,1.315,4.068-1.218a3.946,3.946,0,0,1,3.118-2.826,4.714,4.714,0,0,0,2.338-2.18c.987-1.462,2-2.911,2.972-4.385,3.045-4.543,3.459-4.713,8.526-2.546,1.121.487,2.107.682,3-.158,1.608-1.535,3.556-1.705,5.639-1.863,3.2-.231,4.519-1.6,4.981-4.872.244-1.717-.158-3.52.755-5.188.365-.67-.1-1.218-.8-1.583a6.418,6.418,0,0,0-3.861-1.06,3.654,3.654,0,0,1-3.094-.585c-1.376-1.218-2.229-.6-3.422.463-3.118,2.753-4.677,2.582-7.831-.28a9.609,9.609,0,0,0-2.436-1.51c-2.119-.962-3.215-2.436-2.631-4.872.341-1.462-.451-2.594-1.218-3.715a7.308,7.308,0,0,1-1.072-6.212,4.872,4.872,0,0,1,3.91-4.19,18.377,18.377,0,0,0,3.13-.889c2.01-.792,2.436-2.546.6-3.654a16.358,16.358,0,0,1-5.188-4.421,3.069,3.069,0,0,0-1.766-.889c-2.01-.438-4.007-.694-4.555-3.276-.171-.779-1.218-1.035-2.01-1.218-2.436-.633-4.372-2.144-6.492-3.313s-3.788-2.594-4.287-4.762c-2.18.146-3.569,1.766-5.128,3.288-3.045,2.972-4.628,6.967-7.308,10.219a12.362,12.362,0,0,1-5.249,3.812,32.957,32.957,0,0,0-7.722,4.446C619.285,174.655,621,176.92,621.477,179.758Z" transform="translate(-502.702 -18.427)" fill="#21bfaa"/>
        <path id="Trazado_105833" data-name="Trazado 105833" d="M984.306,449.061c.4-1.742-.816-3.155-1.656-4.446a30.447,30.447,0,0,1-5.3-13.471,6.224,6.224,0,0,0-2.74-4.981c-2.741-1.815-2.984-5.03-2.862-8.051a5.566,5.566,0,0,0-2.034-4.945c-2.265-1.937-4.348-3.946-5.128-7.235-.414-1.681-1.778-4.58-5.164-3.008A2.059,2.059,0,0,1,956.61,401c-.219-3.861-2.935-4.567-6.09-4.47-1.876,0-3.654.134-4.531-2,5.079-5.079,9.975-10.231,15.176-15.066,2.436-2.265,2.521-6.516,6.467-7.235-.134-4.543-1.742-8.026-5.688-10.377s-4.068-6.821-5.225-10.584c-.755-2.436-.39-5.3-4.165-5.31a1.462,1.462,0,0,1-1.218-.658c-.317.146-.633.292-.95.475a4.433,4.433,0,0,1-4.982-.572c-2.862-2.192-5.712-3.155-8.7-.146-.865.877-1.9.633-3,.11-3.325-1.608-6.285-.585-8.928,1.632-1.486,1.218-2.911,2.619-5.03,2.01a2.911,2.911,0,0,0-3.849,2.034c-1.218,3.069-3.581,4.226-6.674,4.445-5.8.426-11.351,2.813-17.295,2.156a2.277,2.277,0,0,0-2.29,1.364,3.093,3.093,0,0,1-3.106,1.583c-2.533-.256-5.006-1.011-7.6-.536-.511.1-.962-.329-1.376-.719-1.851-1.717-3.179-1.985-4.433-.317-2.874,3.837-7.015,4.677-11.266,5.262-2.022.28-3.24.475-2.826,3.106.256,1.608-1.315,2.68-3,2.619-3-.122-5.615,2.144-8.769,1.218-1.023-.3-1.352,1.023-1.084,1.693,1.218,2.9-.122,5.2-1.571,7.5-.353.572-.6,1.462-1.1,1.632-3.118,1.084-3.544,3.727-4.141,6.443a8.708,8.708,0,0,1-4.872,6.09c-4.433,2.351-8.526,5.31-13.2,7.222a12.046,12.046,0,0,0-4.056,3.447c-.1,1.315.706,1.425,1.218,1.669a7.04,7.04,0,0,1,4.373,6.321c.317,3.252.536,3.337,3.824,3.069,1.084-.085,2.351-.5,3.191.11,2.5,1.815,4.75,2.728,8.075,1.583,2.546-.877,5.517,1.218,8.416.39a4.164,4.164,0,0,1,2.01,0c1.388.341,3.154.28,3.532,2.18s-.926,2.631-2.314,3.362c-.792.414-2.058.8-1.535,2.01,1.34,3.081-.731,4.811-2.436,6.723-.353.414-.779.755-1.12,1.218-.816,1.011-1.084,2.058.511,2.436,2.862.694,4.653,2.643,6.309,4.872.646.853,1.279,2.131,2.436,1.985a8.684,8.684,0,0,1,5.067.913,4.2,4.2,0,0,1,3.24-1.218c2.68,0,4.165-1.291,5.712-2.972s5.481-2.168,6.406-.365c3.094,6.09,8.526,5.055,13.544,4.762,6.784-.39,13.568-.694,20.376-.78,5.834-.073,11.668-.548,17.514-.743.962,0,1.547-.8,2.436-.853l1.632.816c-4.092-3.715-4.47-5.493-2.436-9.39,1.218-2.436,3.837-2.01,4.324-.719,1.778,4.592,7.746,5.493,8.136,10.962,2.18-1.218,4.141-1.084,5.493-2.436l1.632-.816c-1.754-.633-2.253-1.863-1.218-3.24a13.531,13.531,0,0,1,5.737-3.983,11.131,11.131,0,0,0,5.737-4.531c2.034-3.276,5.42-4.726,9.415-4.872a5.2,5.2,0,0,1,.56,5.115c-1.961,4.616.511,7.7,3.459,10.133a14.616,14.616,0,0,1,5.651,12.728c-.1,2.436-.292,4.774,1.51,7,1.291,1.6.292,3.995.511,6.029.511,4.738.828,4.872,5.7,4.129a3.422,3.422,0,0,0,3.264-5.761C984.915,458.573,983.1,454.152,984.306,449.061Z" transform="translate(-458.308 23.604)" fill="#9182ca"/>
        <path id="Trazado_105834" data-name="Trazado 105834" d="M663.716,197.835c1.34,1.218,2.509,1.084,3.5-.1,2.095-2.509,4.287-3.057,7.064-1.047.572.414,1.6.158,2.351.378,5.59,1.644,6.967,1.047,7.113,7.637,2.265-2.131,4.336-3.946,6.236-5.944a2.326,2.326,0,0,0-.085-2.7,10.73,10.73,0,0,1-1.047-6.321,6.089,6.089,0,0,0-.694-3.532,7.856,7.856,0,0,1-.9-5.517c.353-1.973-.524-3.154-2.083-4.409-2.923-2.363-4.872-5.846-8.221-7.771-.207-.122-.475-.426-.463-.633.183-3.9-3.252-6.845-2.826-10.779a2.911,2.911,0,0,0-1.766-3.3c-2.326-1.108-4.3-2.8-6.662-3.9a10.45,10.45,0,0,0-4.616-1.218c-3.9,0-5.408-1.815-4.007-5.359.95-2.436.231-3.41-1.778-3.837-2.826-.609-3.508-2.326-3.654-4.945a49.655,49.655,0,0,0-1.608-7.551,6.48,6.48,0,0,0-2.923-4.117c-.341.865-.646,1.705-1.766,1.839h1.632c2.229.365,3.057,1.449,2.058,3.654-.682,1.486-1.218,3.045-1.973,4.519-1.218,2.131-1.717,4.677,0,6.845a3.654,3.654,0,0,1-.1,4.872,11.766,11.766,0,0,0-2.436,7.771c0,2.789-1.5,4.726-3.569,4.543a6.822,6.822,0,0,0,2.265,1.876,47.51,47.51,0,0,0,4.275,2.375c2.436,1.06,5.2,1.535,6.54,4.372.244.524,1.425.621,2.192.865a5.639,5.639,0,0,1,3.325,2.2,8.891,8.891,0,0,0,3.654,3.057,4.872,4.872,0,0,1,2.911,4.981c-.232,2.241-1.827,3.52-4.068,3.946a9.865,9.865,0,0,0-1.218.378c-4.007,1.218-4.872,3.556-2.68,7.235.487.816,1.437,1.742,1.3,2.436C658.163,194.79,661.524,195.862,663.716,197.835Z" transform="translate(-496.832 -24.41)" fill="#21bfaa"/>
        <path id="Trazado_105835" data-name="Trazado 105835" d="M867.143,268.867c-.158-.487-.609-1.218-.95-1.218-3.2-.183-5.919-1.157-7.685-4.044-3.654.329-7.539-1.315-11.144.755-1.218.67-2.436,1.218-3.654,1.742a7.868,7.868,0,0,1-7.04,0,9.743,9.743,0,0,0-7.758-.1c-2.436.938-4.312,1.449-6.321-.463a2.339,2.339,0,0,0-1.425-.706c-4.031.061-8.124-.962-12.082.572-3.569,1.376-7.162,2.582-11.047,1.437-.987-.292-1.876.3-2.789.244-7.308-.5-13.556,3.3-20.425,4.567-3.569.67-5.4.438-7.2-2.667-.463-.8-.658-1.766-1.047-2.631a1.035,1.035,0,0,0-1.291-.706c-1,.329-.572,1.084-.28,1.62.621,1.218,2.192,2.144,1.535,3.556-1.462,3.167.1,7.125-3.155,9.865,1.949,1.34,3.569,2.558,5.274,3.654,2.9,1.827,3.4,3.3,1.937,6.333a13.262,13.262,0,0,0-1.669,3.654c-.585,3.654-1.924,4.056-4.762,1.912a2.131,2.131,0,0,0-1.839-.743c-1.218,3.228-4.482,5.091-6.723,7.9a7.6,7.6,0,0,1-5.1,3.033c-1.8.231-2.509-1.352-3.459-2.436s-1.766-1.108-2.643,0-2.01,2.558-3.008,3.849a3.276,3.276,0,0,0-.5,3.447c1.352,3.094.317,5.006-2.521,6.674-3.435,2.022-4.056,5.4-2.436,8.976a13.57,13.57,0,0,0,3.483,3.9c1.072,1.023,2.509,1.961,2.314,3.654-.244,2.083.926,2.826,2.436,3.654a6.748,6.748,0,0,1,3.556,4.7c.244,1.06.67,2.083.816,3.142.231,1.827,1.291,2.131,2.874,1.888a30.959,30.959,0,0,0,7.685-2.545,10.341,10.341,0,0,1,7.5-.853,5.919,5.919,0,0,0,5.7-1.279c1.328-1.084,2.947-2.034,4.47-1.474,3.386,1.218,5.688-.146,7.941-2.326a6.185,6.185,0,0,1,2.131-1.218c6.76-2.509,12.874-6.187,19.012-9.89,3.349-2.022,6.273-4.872,10.206-5.785a8.684,8.684,0,0,0,4.507-3.106c4.153-4.372,7.588-9.585,13.4-12.106a3.374,3.374,0,0,0,2.107-2.326,9.39,9.39,0,0,1,6.358-7.308,9.986,9.986,0,0,0,2.643-1.876,22.751,22.751,0,0,1,10.645-4.774,20.464,20.464,0,0,0,6.845-2.436c2.813-1.681,5.371-3.447,6.09-7.1.512-2.436,1.912-4.738,3-7.308A9.524,9.524,0,0,1,867.143,268.867Z" transform="translate(-476.216 6.196)" fill="#fd8f25"/>
        <path id="Trazado_105836" data-name="Trazado 105836" d="M902.051,540.729c-2.753-.463-4.957-1.315-5.578-4.409-.244-1.218-.938-1.912-2.351-1.376a4.628,4.628,0,0,1-5.724-1.815c-.706-.926-1.352-1.705-2.655-1.133a1.217,1.217,0,0,1-.792.1c-3.654-1.669-6.516-1.084-8.684,2.655-.719,1.218-2.57,1.023-3.654-.146-2.558-2.96-5.067-5.98-6.26-9.817a3.789,3.789,0,0,1-.243-1.985c1.108-3.849.548-7.637,0-11.473a18.97,18.97,0,0,1,.292-4.007c-2.034.4-3.9,1.047-5.749-.487a9.305,9.305,0,0,1-3.288-4.47c-.512-1.62-1.376-2.034-3.057-1.352a35.829,35.829,0,0,1-6.224,1.851c-3.179.646-4.786-.146-6.382-3.008a20.369,20.369,0,0,1-1.766-4.1c-.451-1.523-.268-3.24-2.436-3.727-1-.219-1.108-1.449-1.218-2.436-.256-2.3-1.815-3.228-3.837-3.556s-4.312-.524-5.871-2.375c-.475-.56-1.218-.451-1.9-.317-.913.183-1.815.719-2.777.268-1.961-.913-3.447.134-4.8,1.279a11.706,11.706,0,0,1-6.784,3.362,5.237,5.237,0,0,0-3.337,2.168c-1.888,2.119-3.983,3.471-7.076,3.13a3.727,3.727,0,0,0-4.178,3.508c-.219,3.776-2.107,5.554-5.664,6.3a6.93,6.93,0,0,0-5.054,4.872c-.317.889-.524,1.839-.926,2.692-1.535,3.325-3.739,4.068-6.76,1.961-1.62-1.133-2.643-1.023-3.727.438l-.731.974c-3.739,4.872-5.1,5.042-9.512.646-1.644-1.632-3.763-2.083-5.834-2.643a26.171,26.171,0,0,1-3.654-.585c-2.96-1.218-5.347-1.851-6.808,2.156-.56,1.559-2.546,1.547-3.654,0-1.4-2.034-2.9-1.9-4.872-1.364-2.935.78-5.615.609-7.308-2.619a2.972,2.972,0,0,0-4.117-1.5,3.544,3.544,0,0,1-3.788-.792,5.336,5.336,0,0,0-2.887-1.437c-8.343-.84-16.406-1.218-24.542,2.558l-8.258,3.776c.1.3.195.621.268.938a11.729,11.729,0,0,0,1.961,4.519c1.352,1.8,2.509,3.654.95,6.09a3.2,3.2,0,0,0,.719,3.654c3.252,3.325,6.8,6.09,11.814,5.676,2.192-.171,3.837.28,4.872,2.436s2.509,3.581,5.249,3.362c1.084-.085,2,1.133,2.862,1.949,1.851,1.754,3.337,3.861,6.5,3.8,1.888,0,3.9,6.09,3.228,9.232-.438,2.034-1.449,3.91-1.218,6.09.524,4.872,1.839,6.26,6.942,5.639,7.405-.9,11.473,3.094,10.255,10.267a29.946,29.946,0,0,0,0,7.308c.1,1.145,1.218,2.826,1.961,2.728,5.834-.755,6.735,6.358,11.424,7,6.151.84,12.24-.317,18.33-1.121a58.457,58.457,0,0,1,8.136-.658c5.3.085,9.013-2.521,12.581-5.566,2.119-1.79,3.8-4.1,6.979-3.569,1.6.268,1.681-2.095,3.276-1.669.256-.134.524,0,.8.414,4.092,5.883,10.182,5.59,16.284,5.31a6.235,6.235,0,0,1,4.1.767c3.508,2.436,5.591,2.229,8.526-.378a23.058,23.058,0,0,0,2.034-2.046c1.912-2.192,3.885-2.265,6.09-.426a25.067,25.067,0,0,1,4.044,3.3,2.947,2.947,0,0,0,2.862,1.218c2.85-.341,5.006.572,5.688,3.654.207.938.731,1.218,1.644,1.218,1.949.1,3.313,1.437,4.872,2.363,2.533,1.474,4.579,3.483,8.112,3.654,2.253.11,4.446,3.374,6.443,5.444a2.874,2.874,0,0,1-.292,2.789c-5.322,8.221-10.487,16.528-16.162,24.542-3.8,5.359-7.661,10.864-10.328,17.051-.475,1.072-.877,2.18-1.839,2.643l1.827-.268c.84,1.547,2.862,1.839,3.569,1.218,2.911-2.692,4.872-1.218,6.747,1.1,5.213-3.276,5.456-3.216,8.854-1.035a12.274,12.274,0,0,1,3.179,2.935c3.106,4.117,6.09,8.379,9.013,12.594l.256.914a.706.706,0,0,1,.207-.451c2.436-2.326,1.766-5.469,2.314-8.221,2.619-12.862,4.872-25.808,7.308-38.707,1.729-9.074,3.313-18.184,4.969-27.27,1.839-10.036,3.215-20.169,5.408-30.12a150.176,150.176,0,0,0,3.41-23.519A22.745,22.745,0,0,0,902.051,540.729Z" transform="translate(-486.558 54.133)" fill="#9182ca"/>
        <path id="Trazado_105837" data-name="Trazado 105837" d="M665.177,498.7c3.2,3.8,6.09,5.931,11.7,3.288,3.812-1.79,6.979-1.449,9.744,1.681,1.656,1.827,3.776,2.119,6.09,2.058,3.971-.085,8.209,2.144,8.733,5.712.39,2.68,1.754,3.569,3.447,4.872a13.313,13.313,0,0,1,3.179,3.544c4.068-1.717,8.075-3.581,12.18-5.237a56.726,56.726,0,0,1,9.585-2.838,5.03,5.03,0,0,0-3.885-1.571,13.983,13.983,0,0,1-9.914-4.044,6.357,6.357,0,0,0-5.566-1.863,33.264,33.264,0,0,1-3.654.231c-2.948,0-3.654-.341-4.3-3.24-.536-2.192-1.583-3.276-3.8-3.5a3.885,3.885,0,0,1-3.349-3.13,10.458,10.458,0,0,0-1.583-3.276,4.445,4.445,0,0,0-4.056-2.18c-3.5.219-5.469-1.912-6.845-4.8-2.217-4.628-4.75-9-9.183-11.948a2.753,2.753,0,0,1-1.218-1.522c-.451-3.873-3.374-4.543-6.37-4.872s-5.749-.585-6.845-3.995c-.183-.585-.78-.706-1.315-.8a90.77,90.77,0,0,1-8.976-2.156c-3.021-.84-5.469-1.985-7.21-4.677s-2.034-2.765-4.994-.853c-1.924,1.218-3.776,2.728-6.236.719-1.218-.962-2.655-.183-3.837.451-2.253,1.218-4.433,2-6.869.426-2.813-1.827-5.176-3.946-5.712-7.515a13.6,13.6,0,0,1,0-4.446,14.9,14.9,0,0,0,.329-2.826c0-1.9-.719-2.338-2.533-1.742a5.116,5.116,0,0,0-1.876.731,5.675,5.675,0,0,1-5.517,1.754c-1.011-.244-1.8.475-2.582,1-1.876,1.218-4.129,1.279-6.09,2.095a5.274,5.274,0,0,0-2.765,2.29c-.95,1.693.67,2.022,1.449,2.813a3.812,3.812,0,0,1,.84,3.8,9.926,9.926,0,0,1-1.462,3.763c-2.655,3.276-2.947,7.564-5.006,11.059-.536.9-.256,1.462.584,1.973,1.839,1.121,2.266,2.935,2.253,4.872s0,4.117,0,6.163a9.057,9.057,0,0,0,1.218-.475,3.373,3.373,0,0,1,2.874.658c5.14,2.984,10.341,5.724,16.686,3.045a7.563,7.563,0,0,1,6.09.39c3.179,1.705,5.359.755,7.381-1.717,3.654-4.482,8.769-4.628,12.18.061,1.474,2.058,2.655,3.91,5.4,4.007,1.291,0,1.754,1.425,1.924,2.071,1.12,4.007,4.519,3.824,6.967,3.033,2.972-.95,4.3-.329,5.371,2.229.6,1.437,1.449,2.68,3.252,2.436S663.923,497.214,665.177,498.7Z" transform="translate(-508.134 44.363)" fill="#9182ca"/>
        <path id="Trazado_105838" data-name="Trazado 105838" d="M636.748,465.343a6.431,6.431,0,0,0,4.129,3.069c3.4.767,6.455,2.716,10.024,2.813,1.218,0,2.74.256,3.13,1.522.828,2.643,2.813,2.7,5.03,3.142,3.751.755,8.039,1.121,8.733,6.3,0,.3.524.572.84.816a32.311,32.311,0,0,1,9.354,12.4c.865,1.949,2.022,3.837,4.385,3.654,4.263-.4,6.187,2.3,7.637,5.469.84,1.851,1.559,3.325,3.849,3.569,1.949.219,2.972,1.644,3.654,3.435,1.108,3.094,1.218,3.24,4.2,2.655a9.5,9.5,0,0,1,9.293,2.765,9.817,9.817,0,0,0,6.163,2.874c4.677.512,9.183,1.218,12.18,5.456.073.1.207.256.3.244,3.995-.256,7.576,2.01,11.242,2.265,3.191.231,5.493.633,7.186,3.24a2.753,2.753,0,0,0,3.5,1.291,8,8,0,0,1,8.233.974l.865-1.218c2.192-3.215,2.436-3.288,5.773-1.535a14.859,14.859,0,0,0,4.689,1.218c3.508.548,6.845,1.4,9.281,4.409,1.51,1.876,2.314,1.717,3.849-.146.524-.621.926-1.34,1.449-1.973,2.436-2.984,3.8-3.313,7.222-1.218,1.705,1.035,2.436.426,3.142-1.011.329-.731.475-1.559.755-2.314a9.476,9.476,0,0,1,6.8-6.467c2.68-.585,3.4-2.022,3.812-4.4a6.6,6.6,0,0,1,6.869-5.615,5.517,5.517,0,0,0,4.957-2.107,8.44,8.44,0,0,1,5.53-3.13c2.436-.317,4.141-1.778,6.309-4.616-4.981.426-7.856-1.389-9.573-5.079a2.071,2.071,0,0,0-2.68-1.218,3.556,3.556,0,0,1-4.165-1.729,30.944,30.944,0,0,1-2.375-3.3c-1.023-1.863-1.547-4.031-4.409-3.97-.914,0-1.388-1.218-1.729-2.095a30.983,30.983,0,0,0-1.522-3.9c-.755-1.449-1.705-2.96-3.654-2.558-2.509.5-3.788-.962-4.872-2.789-.828-1.4-1.522-2.923-3.2-3.532a5.554,5.554,0,0,1-3.654-4.567c-.378-1.815-1-3.349-3.045-3.91a2.874,2.874,0,0,1-1.62-1.157c-1.656-2.96-4.75-3.763-7.308-5.4a6.2,6.2,0,0,0-9.427,6.723c.682,2.716.158,3.3-2.509,3.971-.646.158-1.5,0-1.973.329-3.5,2.582-6.236.889-9.086-1.279-4.238-3.2-7.064-7.88-11.485-10.889a2.57,2.57,0,0,1-1.072-2.119c0-3.447-2.436-5.822-4.324-8.051a9.4,9.4,0,0,1-2.74-5.98c-.195-2.777-1.218-3.508-4.056-3.021A22.628,22.628,0,0,0,724,439.534c-4.653,2.436-8.112-1.291-12.18-2.01-.451-.073-.974-1.011-1.084-1.62-.658-3.824-3.435-4.494-6.613-4.494a6.893,6.893,0,0,1-4.75-2.01c-1.912-1.73-3.739-3.556-5.639-5.3a6.091,6.091,0,0,1-2-3.447c-.767-4.129-2.168-8.124-2.594-12.326-.6-5.834-1.328-11.583,2.935-16.674,1.583-1.9.451-4.287-2-4.872a3.654,3.654,0,0,1-3.02-2.862c-.438-1.766-1.547-2.192-3.24-2.436a4.458,4.458,0,0,0-4.8,2.192c-1.4,2.18-2.874,4.263-2.68,7.076a4.226,4.226,0,0,1-2.813,4.494,4.214,4.214,0,0,0-2.314,2.655,13.056,13.056,0,0,1-6.09,6.82,3.447,3.447,0,0,0-2.058,3.569,6.565,6.565,0,0,1-2.339,5.8,30.059,30.059,0,0,0-8.379,9.829c-.962,1.778-2.095,3.581-4.6,3.41a2.1,2.1,0,0,0-2.107,1.608,15.31,15.31,0,0,1-3.508,4.433,31.461,31.461,0,0,0-4.945,6.443,13.662,13.662,0,0,1-3.057,3.776c-2.192,1.949-2.606,2.107-5.286.5-1.3-.767-2.692-.877-3.215.219-1.047,2.168-2.947,4.019-3.069,6.54s-1.754,5.883,2.765,6.528c.183,0,.341.414.451.658,1.072,2.156,3.508,2.886,5.262,3.228a7.77,7.77,0,0,1,5.713,4.08Z" transform="translate(-500.824 31.937)" fill="#9182ca"/>
        <path id="Trazado_105839" data-name="Trazado 105839" d="M636.74,293.971c-.3-.524-.962-.378-1.5-.365a10.961,10.961,0,0,1-4.409-.56,2.131,2.131,0,0,0-2.265.3c-1.3.974-2.716,1.79-3.983,2.8-3.13,2.533-3.654,4.738-2.777,7.99.779,2.692,3.24,3.922,4.6,6.09a2.436,2.436,0,0,0,2.582,1.218c3.654-.134,5.213.572,5.871,4.165.816,4.482,5.006,4.555,7.417,6.881,4.2,0,8.38.926,12.569.341a2.436,2.436,0,0,0,1.924-3.313,7.234,7.234,0,0,0-6.8-4.239c-4.872.3-4.872.3-6.577-4.275a5.749,5.749,0,0,0-.706-.938c-.706.524-1.218.95-1.778,1.315-1.5.962-3.155,1.218-4.506,0s-1.133-2.984,0-4.409a6.676,6.676,0,0,0,1.145-3.812c.317-4.239.828-4.762,4.957-5.383.67-.1,1.437,0,1.462-.938s-.743-1.011-1.413-.987C640.394,295.9,638.165,296.358,636.74,293.971Z" transform="translate(-500.987 12.638)" fill="#472ea6"/>
        <path id="Trazado_105840" data-name="Trazado 105840" d="M680.662,285.1a42,42,0,0,1-2.01,11.96c-.792,2.7-2.436,5.115-2.436,8.1s.329,5.968-.548,8.9a4.055,4.055,0,0,0,.28,2.789,8.524,8.524,0,0,1,.17,5.59c-.889,4.324-2.582,8.526-2.095,13.081.268,2.57-1.1,5.006-2.533,7.186s.146,3.106,1.742,3.52a2.716,2.716,0,0,0,2.351-.3c2.765-2.156,5.615-1.936,8.83-.986,3.739,1.108,4.494,1.73,3.544,5.542s-.621,7.795-1.1,11.68a3.24,3.24,0,0,0,.719,3.142c2.29-2.326,3.971-4.506,2.838-7.941-.621-1.851.122-3.763.828-5.542.6-1.5,2.083-1.51,3.337-1.973,1.754-.633,2.29-2.083,2.217-3.91a26.8,26.8,0,0,1,.889-9.269,4.531,4.531,0,0,0-.426-3.118,8.988,8.988,0,0,1,1.023-8.526,50.368,50.368,0,0,0,3.959-6.6c1.388-2.753,4.2-2.948,6.333-.67a6.175,6.175,0,0,1,1.644,3.654c.609,6.735.463,13.324-4.519,18.72a4.08,4.08,0,0,0-1.218,3.325c.3,3.094.585,6.2.767,9.305.073,1.1.694,1.315,1.547,1.462,2.144.353,9.537-3.3,10.621-5.274.122-.231.353-.572.268-.731-1.218-2.436.085-5.432-1.523-7.758-1.279-1.863-.621-3.288.682-4.7,2.278-2.436,5.067-2.034,7.953-1.583,2.29.353,3.727,1.218,4.214,3.654a26.549,26.549,0,0,0,1.559,4.226c.317.816.792,1.449,1.827,1.084,4.153-1.5,7.941.353,11.826,1.3,2.326-5.383,3.374-11.473,2.558-15.322-.9.292-1.8.56-2.692.865a2.131,2.131,0,0,1-2.85-.828c-.779-1.73-2.18-2.241-3.764-2.728a3.776,3.776,0,0,1-2.314-2.168,7.868,7.868,0,0,0-4.47-4.373c-3.325-1.449-4.263-4.178-2.509-7.308,1.108-1.985,1.535-3.654.451-5.688s-1.157-4.36-3.3-5.432a5.1,5.1,0,0,1-2.813-3.727c-.341-1.376-.706-2.594-2.667-2.168-1.51.329-2.144-.78-2.436-2.107-.17-.78.183-1.656-.67-2.546-3.106.974-3.228,1.035-4.714,3.021-.646.865-1.218,1.839-1.9,2.643-2.3,2.594-4.531,2.68-6.882.134A12.886,12.886,0,0,0,699.6,293.6c-4.019-1.949-5.871-5.067-5.335-9.537a4.57,4.57,0,0,0-.085-1.218c-.414-2.546-.95-2.887-3.5-2.278-2.095.487-4.129,1.632-6.346,1.084C681.2,280.859,680.662,281.651,680.662,285.1Z" transform="translate(-490.198 9.904)" fill="#472ea6"/>
        <path id="Trazado_105841" data-name="Trazado 105841" d="M800.763,237.46a8.781,8.781,0,0,1-7.771-1.352,5.371,5.371,0,0,0-5.7-.28,16.332,16.332,0,0,1-7.308,1.145,23.943,23.943,0,0,0-1.474,2.838c-1.279,2.911-2.631,5.81-3.91,8.708a66.977,66.977,0,0,1-3.654,7.892c-.28.463-.8.926-.8,1.388-.061,3.654-2.046,4.872-5.505,5.578-2.217.426-2.521,3.581-4.348,5.42a6.845,6.845,0,0,1,3.958,4.628c.755,2.546,1.985,2.619,4.738,2.071,7.137-1.388,13.836-4.774,21.29-4.653a11.6,11.6,0,0,1,2.436,0c3.471.865,6.6-.207,9.878-1.218,5.639-1.693,11.376-2.339,16.844.816.646.378,1.413.585,1.9.11,2.521-2.436,5.773-.451,8.526-1.486a2.326,2.326,0,0,1,2.217.792,4.19,4.19,0,0,0,5.31.231c4.872-3.094,10.28-2.923,15.736-2.68,1.157,0,2.241.11,2.716,1.3a3.958,3.958,0,0,0,4.1,2.619,4.3,4.3,0,0,1,4.19,3.264,5.931,5.931,0,0,0,2.655,3.459c1.985,1.133,3.654,1.693,5.956.195a12.289,12.289,0,0,1,9.646-2.192,6.784,6.784,0,0,0,4.994-1.34h0a10.156,10.156,0,0,1-1.79-1.632c-8.842-10.17-17.733-20.3-26.442-30.583-3.215-3.788-6.65-5.164-11.485-3.313a6.711,6.711,0,0,1-6.869-1.559,15.555,15.555,0,0,0-5.347-3.41c-3.8-1.328-7.174-2.241-10.681.853a11.717,11.717,0,0,1-8.087,2.521c-.682,0-1.522-.39-2.034.39-2.265,3.459-4.872,1.827-7.308.39a7.734,7.734,0,0,0-6.577-.914Z" transform="translate(-470.721 -0.409)" fill="#fd8f25"/>
        <path id="Trazado_105842" data-name="Trazado 105842" d="M647,125.245h0a9.013,9.013,0,0,1,3.837,6.212c.329,1.73,1,3.4,1.218,5.14.329,2.558.987,4.385,3.824,5.469,3.154,1.218,3.3,2.326,2.083,5.81-.475,1.34-.719,2.753,1.145,2.436,2.558-.414,4.458.609,6.455,1.815,2.314,1.4,4.677,2.728,7.028,4.068a4.324,4.324,0,0,1,2.29,4.409,7.1,7.1,0,0,0,1.523,5.335c.341.4.755,1,.682,1.437-.512,3.13,1.693,4.579,3.654,6.175,2.314,1.863,3.751,4.58,6.309,6.26,1.389.913,1.669,2.753,1.62,4.433,0,.8-.585,1.815-.268,2.436,2.241,3.934.95,8.526,2.436,12.557,1.279,3.447.8,5.249-2.095,7.393-2.253,1.656-3.276,4.689-6.516,5.3-1.218.219-.67,1.705,0,2.351a22.377,22.377,0,0,0,3.544,2.68c3.155,2.01,7.064,8.453,7.308,12.106,0,.414-.158.877,0,1.218,1.218,2.984,2.18,5.895-1.218,8.221-.292,3.739-1.5,7.527.183,11.9,1.766-1.888,2.862-3.483,4.543-4.385a2.874,2.874,0,0,1,3.423,0,3.07,3.07,0,0,1,.853,3.349,3.033,3.033,0,0,1-.463,1.121,7.746,7.746,0,0,0-.122,9.476,3.984,3.984,0,0,1,.438,1.133c1.218,4.092,2.192,4.592,5.8,2.436a58.233,58.233,0,0,0,6.26-4.653c1.035-.8,1.084-2.131,1.364-3.313.694-2.9,1.218-5.907,3.654-7.953,1.352-5.517,3.386-11.035.84-16.71a8.368,8.368,0,0,1-.9-4.7,16.04,16.04,0,0,0,.1-4.044c-.365-3.118,0-3.751,2.667-5.176s3.081-1.973,2.436-4.677a11.121,11.121,0,0,1,.378-5.2,19.742,19.742,0,0,0-.341-10.036c-1.218-4.3-2.436-8.623-3.386-12.983a3.289,3.289,0,0,0-2.862-2.874c-2.826-.621-5.189-2.826-8.367-2.436a2.265,2.265,0,0,1-1.815-.779c-2.582-3.788-7.478-4.141-10.511-7.2a4.251,4.251,0,0,0-3.3-1.218,6.431,6.431,0,0,1-6.406-4.129,11.254,11.254,0,0,0-4.628-5.018,5.529,5.529,0,0,1-3.045-5.2,23.469,23.469,0,0,0-3.094-12.07,4.031,4.031,0,0,1,.682-5.481c1.6-1.693,1.364-2.363-.755-3.654-4.275-2.521-4.372-2.546-3.2-7.308a3.008,3.008,0,0,0-1.218-3.532c-1.973-1.437-3.9-3.094-6.382-3.435-3.983-.548-5.432-3.142-5.871-6.7a12.187,12.187,0,0,1-.146-1.62c0-2.9.146-5.749-1.729-8.343-3.057,3.228-4.421,7.71-8.16,10.523-2.192,1.656-.828,4.872-.353,7.186C648.863,122.943,648.742,124.9,647,125.245Z" transform="translate(-495.413 -28.721)" fill="#21bfaa"/>
        <path id="Trazado_105843" data-name="Trazado 105843" d="M657.772,105.613a7.308,7.308,0,0,1,1.291,4.994,34.635,34.635,0,0,0,.158,4.056c.28,2.85,1.462,4.762,4.665,5.152,2.9.365,4.872,2.765,7.783,4.092,3.885-5.627,7.478-11.193,7.076-18.513a14.043,14.043,0,0,0-2.436-8.014,15.153,15.153,0,0,1-2.509-5.14,8.282,8.282,0,0,0-1.973,1.729c-3.654,4.214-7.076,8.733-13.4,9.086a3.131,3.131,0,0,0-1.449.646,4.8,4.8,0,0,0,.792,1.912Z" transform="translate(-493.238 -31.086)" fill="#21bfaa"/>
        <path id="Trazado_105844" data-name="Trazado 105844" d="M716.394,98.312c-1.352,3.021-.8,6.09-1.218,9.183-.329,2.728,1.632,3.654,4.506,2.874a53.311,53.311,0,0,1,6.748-1.474c3.946-.548,6.358,1.644,6.419,5.785a1.8,1.8,0,0,0,.913,1.9c5.091,3.337,5.444,4.653,3.142,10.328a7.3,7.3,0,0,0-.219,1.522c2.436-.353,4.543.378,6.747.792a8.38,8.38,0,0,1,4.762,2.363,9.134,9.134,0,0,1,1.79-1.315c2.594-1.486,3.167-3.654,4.165-6.163a185.6,185.6,0,0,1,8.855-18.355c1.437-2.716,4.506-3.471,7.308-4.056a7.308,7.308,0,0,0,5.895-4.872c2.095-4.738,4.543-9.39,7.028-13.994a10.194,10.194,0,0,1,8.282-5.517,30.7,30.7,0,0,0,10.962-3.837c2.436-1.3,4.774-2.947,7.758-2.826,1.364,0,1.863-.706,2.095-2.022s-.073-2.728,1.571-3.983c1.571-.365,3.812,1.34,5.785-.84s2.253-4.238.268-6.09a5.858,5.858,0,0,1-2.022-4.957c.134-3.52-2.546-4.506-5.261-4.872a11.1,11.1,0,0,1-7.308-4.117c-2.083-2.436-3.654-2.338-5.213.426s-3,4.726-6.589,4.543c-2-.1-2.96,2.058-4.08,3.8-2.436-1.644-4.4-1.291-5.4,1.681C781.932,53.394,780.434,51.3,778,53s-2.436,4.044-1.876,6.151a5.03,5.03,0,0,1-1.754,5.712C769.5,68.874,765,73.258,758.109,74c-3.471.378-6.638,2.692-8.976,5.554-4.178,5.128-10.767,7.2-15.2,12.106-1.352,1.522-4.019,1.754-6.394,1.79-3.422.073-6.918-.633-10.182.877A12.823,12.823,0,0,1,716.394,98.312Z" transform="translate(-480.562 -42.03)" fill="#21bfaa"/>
        <path id="Trazado_105845" data-name="Trazado 105845" d="M675.391,97.32c4.872,7.49,4.056,15.1.414,22.764-1.571,3.3-3.934,6.175-5.176,9.658-.353,1.023-.816,2.01-1.133,3.045-.463,1.486-.183,2.643,1.486,3.215a6.418,6.418,0,0,1,2.777,1.644c1.839,2.034,1.973,3.946,0,6-1.011,1.047-1.376,1.827-.548,3.13,2.241,3.544,2.777,7.624,3.2,11.644a5.785,5.785,0,0,0,2.777,4.969,11.436,11.436,0,0,1,4.543,5.115,4.543,4.543,0,0,0,4.786,3c.67,0,1.669-.219,1.973.134,2.813,3.313,7.637,3.4,10.474,6.6a9.439,9.439,0,0,0,2.07,1.924c1.839,1.108,4.153-.268,5.871,1.145a7.868,7.868,0,0,0,5.42,1.924,25.01,25.01,0,0,1-1.583-5.6c-.134-.658-.219-1.644-.646-1.863-2.8-1.462-3.081-4.068-3.654-6.747a5.59,5.59,0,0,0-3.934-3.824c-1.535-.572-2.643-1.425-2.436-3.264.219-1.632,1.218-2.363,2.7-3.167,3.264-1.8,6.419-2.533,9.987-1.047,1.486.621,2.278,0,2.156-1.778a8.136,8.136,0,0,0-2.436-5.444c-3.252-3.094-5.225-7.308-8.855-10.048-1.681-1.218-1.364-3.057-1-4.872,1.474-7.052,6.309-10.962,12.728-12.947a6.516,6.516,0,0,0,5.006-5.067,24.277,24.277,0,0,1,2.436-4.677c.828-1.583,1.218-3.057-.853-4.092a2.655,2.655,0,0,1-1.218-3.824,5.517,5.517,0,0,0,.073-4.226c-.913-3.447-.268-7.076.621-10.389.268-.974.511-1.937.731-2.911-1.486.231-3.374-.987-4.519-2.022-2.058-1.876-4.2-2.107-6.09-.658-2.265,1.729-3.52.061-4.872-.926-4.726-3.288-6.93-.731-7.637,3.654a14.835,14.835,0,0,1-2.533,6.93,5.335,5.335,0,0,1-4.519,2.436,9.464,9.464,0,0,0-3.654.426c-5.517,2.521-9.744-1.218-14.226-3.045a7.613,7.613,0,0,0-2.436-.6,12.5,12.5,0,0,0,1.718,3.678Z" transform="translate(-490.554 -33.243)" fill="#21bfaa"/>
      </g>
      <g id="Grupo_54913" data-name="Grupo 54913" transform="translate(470.171 111.679)">
        <path id="Trazado_105846" data-name="Trazado 105846" d="M492.97,104.9c-2.947-4.677-4.555-4.945-7.685-.767-1.937,2.57-3.751,4.945-6.942,6.175-1.425.548-2.3,1.851-1.011,4.056a5.213,5.213,0,0,1-1.462,6.431,20.9,20.9,0,0,0-3.983,4.129c-.609,1.023-1.681,2.3-.207,4.1,1.912,2.351,1.62,5.188.195,8.1-1.218,2.558-1.6,5.4,1.1,7.734,1.705,1.462,1.656,3.788,1.218,5.639-1.06,4.044-1.315,8.16-1.985,12.18-.548,3.276-1.742,6.431-2.01,9.744-.171,2,.572,3.52,2.436,4.007,1.462.378,2.436-.633,3.3-1.924a25.941,25.941,0,0,0,4.117-8.989,92.94,92.94,0,0,1,6.272-19.232c1.279-2.667,4.6-3.374,5.14-6.626-3.228-3-3.654-6.528-.865-9.963,1.937-2.436,2.058-4.275,0-6.626a7.308,7.308,0,0,1-1.6-3.215c-.341-1.827-.633-4.8,1.924-4.689,4.007.158,5.822-2.436,8.148-4.665v-.4C497.708,107.67,494.468,107.28,492.97,104.9Z" transform="translate(-470.171 -98.785)" fill="#21bfaa"/>
        <path id="Trazado_105847" data-name="Trazado 105847" d="M536.248,115.906c-3.837-2.947-8.745-4.969-7.539-10.621-3.325-.28-5.067,1.522-5.176,3.2-.219,3.142-2.229,3.5-4.263,3.581-3.739.158-5.871,2.582-8.136,4.957l.4.414c0,2.935.195,5.676-2.278,8.306-1.62,1.717-.987,5.055.719,7.113a4.7,4.7,0,0,1,.853,5.81c-.84,1.851.28,3.654,2.339,4.433.4-.134.962-.146,1.218-.426,4.482-5.432,11.631-6.845,16.82-11.278,1.669-1.413,3.337-2.192,2.338-4.579C531.827,122.812,532.959,119.4,536.248,115.906Z" transform="translate(-461.856 -97.899)" fill="#21bfaa"/>
        <path id="Trazado_105848" data-name="Trazado 105848" d="M519.286,104.556c2.923-1.924,1.425-3.569,0-5.335h-.816c-2.338-.134-2.716,2.168-4.47,3.057C515.425,104.543,516.436,106.443,519.286,104.556Z" transform="translate(-460.618 -99.215)" fill="#21bfaa"/>
      </g>
    </g>
  </g>
</svg>
