<svg xmlns="http://www.w3.org/2000/svg" xmlns:xlink="http://www.w3.org/1999/xlink" width="424.48" height="426.445" viewBox="0 0 424.48 426.445">
  <defs>
    <linearGradient id="linear-gradient" y1="0.499" x2="1.001" y2="0.499" gradientUnits="objectBoundingBox">
      <stop offset="0" stop-color="#dae3fe"/>
      <stop offset="1" stop-color="#e9effd"/>
    </linearGradient>
    <linearGradient id="linear-gradient-2" x1="0" y1="0.5" x2="0.999" y2="0.5" xlink:href="#linear-gradient"/>
    <linearGradient id="linear-gradient-3" x1="0.003" y1="0.502" x2="1" y2="0.502" xlink:href="#linear-gradient"/>
    <linearGradient id="linear-gradient-4" x1="0.003" y1="0.499" x2="1.003" y2="0.499" xlink:href="#linear-gradient"/>
    <linearGradient id="linear-gradient-5" x1="4.181" y1="-18.947" x2="2.813" y2="-11.752" gradientUnits="objectBoundingBox">
      <stop offset="0" stop-color="#ff928e"/>
      <stop offset="1" stop-color="#fe7062"/>
    </linearGradient>
    <linearGradient id="linear-gradient-6" x1="1.449" y1="-17.204" x2="1.062" y2="-9.995" xlink:href="#linear-gradient-5"/>
    <linearGradient id="linear-gradient-7" x1="2.852" y1="-8.941" x2="1.817" y2="-4.797" xlink:href="#linear-gradient-5"/>
    <linearGradient id="linear-gradient-8" x1="1.04" y1="-0.823" x2="0.859" y2="-0.38" xlink:href="#linear-gradient-5"/>
    <linearGradient id="linear-gradient-9" x1="0.75" y1="-17.306" x2="0.663" y2="-11.145" xlink:href="#linear-gradient-5"/>
    <linearGradient id="linear-gradient-10" x1="0.553" y1="-0.52" x2="0.439" y2="1.691" xlink:href="#linear-gradient-5"/>
    <linearGradient id="linear-gradient-11" x1="0.501" y1="-2.049" x2="0.501" y2="1.324" xlink:href="#linear-gradient-5"/>
    <linearGradient id="linear-gradient-12" x1="0.754" y1="-1.057" x2="0.334" y2="1.517" xlink:href="#linear-gradient-5"/>
    <linearGradient id="linear-gradient-13" x1="1.186" y1="-1.139" x2="0.521" y2="0.314" xlink:href="#linear-gradient-5"/>
    <linearGradient id="linear-gradient-14" x1="0.001" y1="0.5" x2="0.999" y2="0.5" gradientUnits="objectBoundingBox">
      <stop offset="0" stop-color="#e1473d"/>
      <stop offset="1" stop-color="#e9605a"/>
    </linearGradient>
  </defs>
  <g id="Grupo_55210" data-name="Grupo 55210" transform="translate(-915 -568.71)">
    <g id="CF1_nuevo_banner" data-name="CF1 nuevo_banner" transform="translate(864.462 513.277)">
      <g id="Layer_1" data-name="Layer 1" transform="translate(50.538 55.433)">
        <g id="Grupo_55064" data-name="Grupo 55064">
          <path id="Trazado_110751" data-name="Trazado 110751" d="M423.937,422.217a152.2,152.2,0,0,1-23.29,19.606c-76.071,54.582-166.1,38.67-185.234,34.789-28.253-5.734-82.856-16.827-122.338-63.261C33.3,343.128,42.666,232.446,88.954,159.392c8.471-13.362,53.239-87.528,144.223-99.423,55.071-7.191,119.258,7.284,165.743,46.267C496.49,187.979,489.539,353.119,423.937,422.217Z" transform="translate(-50.511 -55.321)" fill="#f1eefd"/>
          <g id="Grupo_55019" data-name="Grupo 55019" transform="translate(29.321)">
            <path id="Trazado_110752" data-name="Trazado 110752" d="M94.091,57.99a2.289,2.289,0,0,1,3.965-1.811c15.214,16.65,51.085,65.654,35.184,145.4-19.887,100.037-1.686,138.541,22.78,162.944,0,0-35.163-13.289-54.956-52.386C52.475,216.136,98.992,97.128,94.091,57.99Z" transform="translate(-78.715 -55.433)" fill="#f9aac2"/>
            <path id="Trazado_110753" data-name="Trazado 110753" d="M103.323,89.123c1.2,11.447,2.175,22.811,2.726,34.248s.885,22.894.8,34.341-.489,22.894-1.322,34.258-2.081,22.748-3.361,34.143-2.57,22.894-2.726,34.518a116.032,116.032,0,0,0,4.4,34.7c.833,2.8,1.727,5.6,2.768,8.325s2.081,5.432,3.288,8.107A120.372,120.372,0,0,0,140.661,353.9a2.217,2.217,0,0,0,3-3.257h0c-2.081-1.936-4.09-3.9-6.015-5.952-1.041-1.041-1.925-2.081-2.883-3.122s-1.873-2.081-2.758-3.195a116.216,116.216,0,0,1-9.824-13.674,127.332,127.332,0,0,1-13.653-30.751,110.738,110.738,0,0,1-3.413-16.453,126.254,126.254,0,0,1-.978-16.848c.062-11.3,1.28-22.676,2.446-34.071s2.237-22.894,2.841-34.341q.489-8.617.656-17.254c.073-2.872.083-5.755.1-8.627s0-5.755-.062-8.637q-.312-17.254-1.665-34.456c-.968-11.447-2.237-22.894-3.954-34.227a.583.583,0,0,0-.676-.5.593.593,0,0,0-.5.583Z" transform="translate(-77.874 -54.088)" fill="#fff"/>
          </g>
          <g id="Grupo_55020" data-name="Grupo 55020" transform="translate(0 29.421)">
            <path id="Trazado_110754" data-name="Trazado 110754" d="M115.466,344.516A5.765,5.765,0,0,1,106.1,346.6c-16.421-15.381-59.025-63.188-53.562-140.83,4.61-65.561.885-101.608-1.946-117.832a3.611,3.611,0,0,1,6.057-3.226C84.434,111.2,168.07,206.027,115.466,344.516Z" transform="translate(-50.538 -83.705)" fill="#91b3fa"/>
            <path id="Trazado_110755" data-name="Trazado 110755" d="M109.054,341.618a1.313,1.313,0,0,1-.271.135,1.6,1.6,0,0,1-2.081-.895c-.364-.926-36.8-93.939-34.508-185.443a1.6,1.6,0,1,1,3.195.083C73.11,246.326,109.3,338.767,109.678,339.693A1.6,1.6,0,0,1,109.054,341.618Z" transform="translate(-49.662 -80.859)" fill="#fff"/>
          </g>
          <g id="Grupo_55027" data-name="Grupo 55027" transform="translate(228.498 1.891)">
            <g id="Grupo_55024" data-name="Grupo 55024">
              <g id="Grupo_55021" data-name="Grupo 55021" transform="translate(5.499)">
                <path id="Trazado_110756" data-name="Trazado 110756" d="M275.91,96.2a.615.615,0,0,1-.229,0,.531.531,0,0,1-.239-.687c.3-.614.6-1.228.916-1.842a.514.514,0,1,1,.916.468c-.312.6-.614,1.207-.905,1.821A.52.52,0,0,1,275.91,96.2Z" transform="translate(-275.396 -55.781)" fill="#f9aac2"/>
                <path id="Trazado_110757" data-name="Trazado 110757" d="M403.089,103.174a.5.5,0,0,1-.479-.333c-.468-1.259-.978-2.508-1.519-3.726a.512.512,0,0,1,.937-.416c.541,1.238,1.041,2.508,1.54,3.788a.5.5,0,0,1-.3.656A.49.49,0,0,1,403.089,103.174Zm-4.5-9.647a.531.531,0,0,1-.447-.26c-.656-1.166-1.353-2.331-2.081-3.455a.51.51,0,0,1,.146-.708.52.52,0,0,1,.708.156c.739,1.134,1.447,2.321,2.081,3.5a.51.51,0,0,1-.2.7A.416.416,0,0,1,398.593,93.527Zm-118.633-3.4a.52.52,0,0,1-.271-.083.51.51,0,0,1-.156-.708c.728-1.145,1.509-2.279,2.31-3.372a.51.51,0,1,1,.822.593c-.78,1.041-1.551,2.206-2.269,3.33a.531.531,0,0,1-.458.239Zm112.733-5.443a.5.5,0,0,1-.406-.2c-.822-1.041-1.7-2.081-2.581-3.122a.5.5,0,0,1,0-.718.51.51,0,0,1,.718,0c.905,1.041,1.79,2.081,2.622,3.122a.51.51,0,0,1-.083.718.468.468,0,0,1-.291.2ZM286.37,81.632a.51.51,0,0,1-.385-.853c.895-1.041,1.842-2.019,2.8-2.976a.51.51,0,0,1,.718,0,.489.489,0,0,1,0,.718c-.937.947-1.863,1.936-2.747,2.935A.531.531,0,0,1,286.37,81.632Zm99.09-4.787a.52.52,0,0,1-.333-.083c-.978-.916-2-1.811-3.018-2.664a.5.5,0,0,1-.062-.718.51.51,0,0,1,.718-.073c1.041.864,2.081,1.769,3.122,2.706a.52.52,0,0,1,0,.718.5.5,0,0,1-.427.114Zm-91.452-2.622a.51.51,0,0,1-.323-.905c1.041-.874,2.081-1.717,3.216-2.529a.513.513,0,1,1,.614.822c-1.041.8-2.154,1.634-3.174,2.487A.51.51,0,0,1,294.009,74.223ZM377.146,70.2a.552.552,0,0,1-.281-.083c-1.1-.76-2.248-1.488-3.392-2.165a.513.513,0,1,1,.52-.885c1.165.7,2.321,1.436,3.444,2.2a.52.52,0,0,1,.135.718A.5.5,0,0,1,377.146,70.2ZM302.7,68.052a.531.531,0,0,1-.447-.239.52.52,0,0,1,.177-.708c1.166-.7,2.373-1.374,3.569-2a.531.531,0,0,1,.7.219.51.51,0,0,1-.219.687c-1.186.624-2.373,1.28-3.517,1.967a.489.489,0,0,1-.26.073Zm65.217-3.122a.562.562,0,0,1-.219,0c-1.207-.572-2.446-1.113-3.684-1.613a.51.51,0,0,1-.291-.666.52.52,0,0,1,.666-.281c1.259.5,2.518,1.041,3.746,1.634a.51.51,0,0,1-.219.978Zm-55.7-1.6a.51.51,0,0,1-.468-.323.5.5,0,0,1,.281-.666c1.249-.51,2.539-.989,3.83-1.415a.5.5,0,0,1,.645.312.52.52,0,0,1-.312.656c-1.27.427-2.55.895-3.778,1.394a.448.448,0,0,1-.2.021Zm45.788-2.2h-.146c-1.28-.385-2.591-.728-3.892-1.041a.533.533,0,0,1,.229-1.041c1.322.312,2.654.656,3.954,1.041a.525.525,0,1,1-.146,1.041ZM322.4,60.091a.52.52,0,0,1-.5-.4.51.51,0,0,1,.385-.614c1.322-.3,2.664-.583,4.006-.812a.51.51,0,0,1,.593.416.52.52,0,0,1-.416.593c-1.322.229-2.654.5-3.954.8Zm25.2-1.207h-.073c-1.322-.177-2.664-.323-4.007-.427a.522.522,0,1,1,.083-1.041c1.353.1,2.716.25,4.059.427a.52.52,0,0,1,.437.583.51.51,0,0,1-.531.447Zm-14.683-.416a.52.52,0,0,1-.51-.479.5.5,0,0,1,.468-.541c1.353-.1,2.726-.177,4.09-.2a.52.52,0,1,1,0,1.041c-1.332,0-2.685.094-4.017.2Z" transform="translate(-275.231 -57.25)" fill="#f9aac2"/>
                <path id="Trazado_110758" data-name="Trazado 110758" d="M400.719,109.468a.531.531,0,0,1-.5-.4c-.156-.656-.312-1.322-.489-1.967a.51.51,0,0,1,.354-.635.52.52,0,0,1,.635.364q.271,1.041.5,2a.51.51,0,0,1-.375.614Z" transform="translate(-270.343 -55.25)" fill="#f9aac2"/>
              </g>
              <g id="Grupo_55022" data-name="Grupo 55022" transform="translate(0 82.036)">
                <path id="Trazado_110759" data-name="Trazado 110759" d="M392.37,160.158a.52.52,0,0,1-.271-.083.5.5,0,0,1-.156-.7c.354-.583.708-1.155,1.041-1.738a.51.51,0,1,1,.885.51c-.354.593-.708,1.186-1.041,1.769a.5.5,0,0,1-.458.239Z" transform="translate(-265.164 -135.216)" fill="#f9aac2"/>
                <path id="Trazado_110760" data-name="Trazado 110760" d="M338.595,193.186c-1.124,0-2.269,0-3.393-.083a.51.51,0,0,1-.489-.531.531.531,0,0,1,.541-.489c1.311.062,2.643.094,3.965.073h0a.52.52,0,1,1,0,1.041Zm7.108-.364a.52.52,0,1,1,0-1.041c1.3-.135,2.633-.312,3.934-.52a.511.511,0,1,1,.156,1.009c-1.322.219-2.664.4-3.986.531Zm-16.931-.333H328.7c-1.322-.2-2.654-.427-3.965-.687a.5.5,0,0,1-.4-.6.51.51,0,0,1,.593-.406c1.29.271,2.612.489,3.913.676a.522.522,0,1,1-.073,1.041Zm27.244-1.519a.525.525,0,0,1-.135-1.041c1.28-.323,2.56-.7,3.809-1.1a.513.513,0,0,1,.312.978c-1.27.406-2.57.78-3.861,1.124Zm-37.463-.739h-.146c-1.28-.385-2.57-.812-3.819-1.27a.52.52,0,0,1,.354-.968c1.228.458,2.5.874,3.757,1.259a.525.525,0,1,1-.146,1.041Zm47.38-2.643a.515.515,0,0,1-.2-.989c1.207-.52,2.414-1.041,3.59-1.665a.51.51,0,0,1,.687.229.5.5,0,0,1-.229.687c-1.2.593-2.425,1.165-3.642,1.7a.738.738,0,0,1-.271.042Zm-57.152-1.134a.427.427,0,0,1-.219-.052c-1.207-.572-2.4-1.186-3.58-1.832a.512.512,0,1,1,.5-.895c1.145.635,2.331,1.238,3.517,1.811a.51.51,0,0,1-.219.968Zm66.435-3.725a.5.5,0,0,1-.427-.239.51.51,0,0,1,.156-.708c1.124-.7,2.237-1.436,3.309-2.2a.511.511,0,0,1,.593.833c-1.093.77-2.227,1.53-3.361,2.237a.5.5,0,0,1-.333.073Zm-75.509-1.488a.489.489,0,0,1-.291-.094c-1.1-.749-2.2-1.54-3.257-2.352a.512.512,0,1,1,.624-.812c1.041.8,2.081,1.582,3.205,2.321a.5.5,0,0,1,.135.708.51.51,0,0,1-.479.229Zm83.959-4.714a.51.51,0,0,1-.333-.905c1.041-.853,1.977-1.759,2.935-2.664a.5.5,0,0,1,.718,0,.52.52,0,0,1,0,.728c-.968.926-1.967,1.832-2.976,2.706a.531.531,0,0,1-.406.135ZM291.516,174.7a.52.52,0,0,1-.354-.135c-.864-.812-1.738-1.655-2.57-2.518l-.291-.3a.512.512,0,1,1,.739-.708l.281.3c.833.843,1.686,1.675,2.539,2.477a.52.52,0,0,1,0,.728.531.531,0,0,1-.406.156Zm99.558-5.588a.5.5,0,0,1-.385-.843c.864-1.041,1.707-2.081,2.508-3.122a.5.5,0,0,1,.718-.094.52.52,0,0,1,.094.718c-.812,1.041-1.665,2.081-2.539,3.122a.5.5,0,0,1-.458.219ZM284.4,167.035a.5.5,0,0,1-.406-.2c-.833-1.041-1.644-2.081-2.414-3.216a.511.511,0,0,1,.832-.593c.76,1.041,1.561,2.144,2.383,3.174a.51.51,0,0,1-.083.718.52.52,0,0,1-.375.1Zm-5.89-8.669a.52.52,0,0,1-.447-.26c-.666-1.155-1.3-2.352-1.894-3.538a.512.512,0,1,1,.916-.458c.583,1.166,1.207,2.352,1.863,3.5a.5.5,0,0,1-.187.7.552.552,0,0,1-.312.052ZM274,148.907a.52.52,0,0,1-.479-.323c-.479-1.249-.926-2.518-1.342-3.8a.513.513,0,0,1,.978-.312c.406,1.259.843,2.518,1.322,3.736a.51.51,0,0,1-.291.666Z" transform="translate(-270.029 -135.755)" fill="#f9aac2"/>
                <path id="Trazado_110761" data-name="Trazado 110761" d="M271.036,139.119a.5.5,0,0,1-.5-.4c-.156-.676-.291-1.342-.416-2.019a.529.529,0,1,1,1.041-.187c.125.656.26,1.322.406,1.988a.52.52,0,0,1-.4.6Z" transform="translate(-270.112 -136.082)" fill="#f9aac2"/>
              </g>
              <g id="Grupo_55023" data-name="Grupo 55023" transform="translate(15.42 15.858)">
                <path id="Trazado_110762" data-name="Trazado 110762" d="M284.93,129.58a.843.843,0,0,0,.531.812l9.366,3.736a44.249,44.249,0,0,0,4.839,13.424l-4.839,8.877a.843.843,0,0,0,.114.957l8.179,8.96a.832.832,0,0,0,.937.208l9.283-4.006a44.135,44.135,0,0,0,12.925,6.057l2.851,9.709a.853.853,0,0,0,.76.593l12.113.562a.833.833,0,0,0,.812-.531l3.736-9.366a44.155,44.155,0,0,0,13.424-4.839l8.877,4.839a.833.833,0,0,0,.957-.114l8.96-8.179a.822.822,0,0,0,.208-.937l-3.975-9.272a43.906,43.906,0,0,0,6.067-12.925l9.7-2.851a.822.822,0,0,0,.593-.76l.562-12.124a.812.812,0,0,0-.52-.8l-9.366-3.736a43.9,43.9,0,0,0-4.849-13.424l4.839-8.877a.822.822,0,0,0-.114-.957l-8.169-8.97a.833.833,0,0,0-.947-.2L363.5,89.453a43.9,43.9,0,0,0-12.935-6.109l-2.851-9.7a.812.812,0,0,0-.76-.593l-12.113-.562a.833.833,0,0,0-.812.52l-3.736,9.366a44,44,0,0,0-13.424,4.849l-8.9-4.839a.822.822,0,0,0-.957.114l-8.96,8.211a.853.853,0,0,0-.208.947l4.007,9.283a44.136,44.136,0,0,0-6.057,12.925l-9.751,2.862a.843.843,0,0,0-.593.76Z" transform="translate(-284.93 -72.489)" fill="#f9aac2"/>
                <path id="Trazado_110763" data-name="Trazado 110763" d="M336.76,135.9a11.53,11.53,0,1,1,9.647-5.2A11.53,11.53,0,0,1,336.76,135.9Zm0-21.531a10,10,0,1,0,5.495,1.655,9.876,9.876,0,0,0-5.453-1.686Z" transform="translate(-283.291 -70.849)" fill="url(#linear-gradient)"/>
                <path id="Trazado_110764" data-name="Trazado 110764" d="M337.714,155.077a29.95,29.95,0,0,1-22.207-9.782c-.312-.343-.614-.687-.905-1.041a30.885,30.885,0,0,1-2.352-3.236h0c-.125-.187-.239-.385-.364-.583h0l-.156-.25,1.332-.78a27.879,27.879,0,0,0,3.59,4.891h0a28.514,28.514,0,0,0,40.106,2.008l.156-.146a28.5,28.5,0,1,0-46.506-29.3l-1.478-.437A30.054,30.054,0,1,1,337.714,155.1Z" transform="translate(-283.954 -71.575)" fill="url(#linear-gradient-2)"/>
              </g>
            </g>
            <path id="Trazado_110765" data-name="Trazado 110765" d="M395.552,137.189l5.411,1.665a24.342,24.342,0,0,0,3.309,7.285l-2.31,5.2a.458.458,0,0,0,.1.531l4.964,4.641a.458.458,0,0,0,.531.073l5.005-2.643a24.883,24.883,0,0,0,7.493,2.81l2.019,5.3a.468.468,0,0,0,.458.291l6.785-.219a.489.489,0,0,0,.437-.333l1.665-5.411a24.839,24.839,0,0,0,7.285-3.309l5.2,2.31a.458.458,0,0,0,.531-.1l4.641-4.964a.458.458,0,0,0,.073-.531l-2.654-5.005a24.435,24.435,0,0,0,2.81-7.493l5.3-2.019a.489.489,0,0,0,.3-.458l-.229-6.785a.468.468,0,0,0-.333-.437l-5.411-1.665a24.685,24.685,0,0,0-3.3-7.284l2.31-5.2a.468.468,0,0,0-.115-.531l-4.964-4.673a.468.468,0,0,0-.541-.073l-5.006,2.654a24.674,24.674,0,0,0-7.482-2.82l-2.029-5.286a.479.479,0,0,0-.448-.3l-6.8.229a.448.448,0,0,0-.427.323l-1.675,5.422a24.809,24.809,0,0,0-7.284,3.3l-5.2-2.31a.458.458,0,0,0-.531.1l-4.631,5.006a.468.468,0,0,0-.062.541l2.643,5.005a24.976,24.976,0,0,0-2.81,7.482l-5.3,2.081a.468.468,0,0,0-.291.447l.219,6.8A.468.468,0,0,0,395.552,137.189Z" transform="translate(-265.036 -55.415)" fill="#f9aac2"/>
            <path id="Trazado_110766" data-name="Trazado 110766" d="M424.027,138.273a6.827,6.827,0,1,1,1.894-.271,6.567,6.567,0,0,1-1.894.271Zm0-12.071a4.984,4.984,0,0,0-1.457.208,5.266,5.266,0,0,0-1.093,9.668h0a5.2,5.2,0,0,0,4.007.458,5.277,5.277,0,0,0-1.447-10.334Z" transform="translate(-264.134 -54.512)" fill="url(#linear-gradient-3)"/>
            <g id="Grupo_55025" data-name="Grupo 55025" transform="translate(123.36 40.116)">
              <path id="Trazado_110767" data-name="Trazado 110767" d="M389.17,126.561h-.083a.51.51,0,0,1-.427-.583c.1-.687.229-1.374.364-2.081a.532.532,0,0,1,1.041.219c-.146.645-.26,1.322-.364,1.977A.51.51,0,0,1,389.17,126.561Z" transform="translate(-388.654 -94.675)" fill="#f9aac2"/>
              <path id="Trazado_110768" data-name="Trazado 110768" d="M391.51,119.038a.6.6,0,0,1-.2,0,.531.531,0,0,1-.281-.676,37.6,37.6,0,0,1,1.738-3.621l.177-.323a.512.512,0,0,1,.895.5l-.177.323a36.673,36.673,0,0,0-1.686,3.465.51.51,0,0,1-.468.333Zm5.859-9.532a.531.531,0,0,1-.333-.125.51.51,0,0,1-.052-.718,35.636,35.636,0,0,1,3.007-3.122.5.5,0,0,1,.718,0,.51.51,0,0,1,0,.728,36.658,36.658,0,0,0-2.914,3.049.541.541,0,0,1-.427.219Zm53.749-1.873a.52.52,0,0,1-.364-.156,34.978,34.978,0,0,0-3.122-2.831.511.511,0,1,1,.635-.8,38.822,38.822,0,0,1,3.226,2.914.52.52,0,0,1-.375.874Zm-45.258-5.38a.531.531,0,0,1-.437-.239.52.52,0,0,1,.146-.8,37.535,37.535,0,0,1,3.819-2.081.52.52,0,0,1,.676.25.5.5,0,0,1-.25.676,37.459,37.459,0,0,0-3.7,2.019.5.5,0,0,1-.25.177Zm36.277-1.259a.551.551,0,0,1-.239-.062,35.208,35.208,0,0,0-3.83-1.8.51.51,0,0,1-.291-.666.5.5,0,0,1,.656-.291,36.423,36.423,0,0,1,3.944,1.8.52.52,0,0,1,.219.7.531.531,0,0,1-.458.271Zm-26.016-3.122A.524.524,0,0,1,416,96.83a37.182,37.182,0,0,1,4.267-.822.52.52,0,0,1,.572.447.51.51,0,0,1-.437.572,35.184,35.184,0,0,0-4.163.791Zm15.4-.552h-.094a37.9,37.9,0,0,0-4.163-.5.51.51,0,0,1-.489-.541.52.52,0,0,1,.541-.479,35.025,35.025,0,0,1,4.308.52.522.522,0,1,1-.083,1.041Z" transform="translate(-388.559 -95.8)" fill="#f9aac2"/>
              <path id="Trazado_110769" data-name="Trazado 110769" d="M454.061,114.108a.541.541,0,0,1-.447-.25q-.5-.874-1.041-1.717a.52.52,0,0,1,.146-.708.51.51,0,0,1,.708.146c.385.572.749,1.166,1.093,1.759a.52.52,0,0,1-.177.708A.593.593,0,0,1,454.061,114.108Z" transform="translate(-386.06 -95.168)" fill="#f9aac2"/>
            </g>
            <g id="Grupo_55026" data-name="Grupo 55026" transform="translate(127.073 84.929)">
              <path id="Trazado_110770" data-name="Trazado 110770" d="M457.34,141.857a.354.354,0,0,1-.146,0,.51.51,0,0,1-.343-.635c.2-.645.375-1.3.52-1.946a.534.534,0,0,1,1.041.239c-.156.666-.343,1.342-.541,2A.5.5,0,0,1,457.34,141.857Z" transform="translate(-389.596 -138.862)" fill="#f9aac2"/>
              <path id="Trazado_110771" data-name="Trazado 110771" d="M427.249,167.434a.52.52,0,0,1,0-1.041,36.826,36.826,0,0,0,4.163-.51.5.5,0,0,1,.593.406.51.51,0,0,1-.406.593,36.8,36.8,0,0,1-4.235.531Zm-6.827-.187h-.062a38.253,38.253,0,0,1-4.163-.76.52.52,0,0,1-.375-.624.51.51,0,0,1,.614-.375,36.2,36.2,0,0,0,4.09.739.513.513,0,0,1-.1,1.02Zm17.587-2.185a.51.51,0,0,1-.427-.364.5.5,0,0,1,.291-.656,37.467,37.467,0,0,0,3.778-1.717.51.51,0,0,1,.7.208.531.531,0,0,1-.219.7,38.217,38.217,0,0,1-3.882,1.759A.406.406,0,0,1,438.009,165.061Zm-28.191-.8a.469.469,0,0,1-.208,0c-.895-.406-1.769-.843-2.622-1.322-.4-.208-.78-.437-1.166-.666a.51.51,0,0,1-.167-.7.5.5,0,0,1,.7-.177l1.124.645c.833.458,1.686.895,2.55,1.29a.51.51,0,0,1,.26.676.5.5,0,0,1-.468.25Zm37.755-4.683a.52.52,0,0,1-.406-.187.51.51,0,0,1,.083-.718,37.121,37.121,0,0,0,3.122-2.768.51.51,0,0,1,.728,0,.52.52,0,0,1,0,.728,35.987,35.987,0,0,1-3.216,2.862.509.509,0,0,1-.312.083Zm-47-1.322a.51.51,0,0,1-.333-.125,36.032,36.032,0,0,1-3.018-3.028.51.51,0,1,1,.76-.676,35.5,35.5,0,0,0,2.935,2.935.52.52,0,0,1,0,.728A.51.51,0,0,1,400.577,158.256Zm54.467-6.764a.52.52,0,0,1-.427-.8c.593-.885,1.166-1.811,1.686-2.747l.437-.822a.512.512,0,0,1,.905.479l-.447.833c-.531.968-1.113,1.925-1.727,2.831a.52.52,0,0,1-.427.229Z" transform="translate(-392.025 -138.537)" fill="#f9aac2"/>
              <path id="Trazado_110772" data-name="Trazado 110772" d="M393.76,149.75a.51.51,0,0,1-.437-.25c-.354-.593-.7-1.207-1.041-1.821a.5.5,0,0,1,.219-.687.52.52,0,0,1,.687.219c.312.593.645,1.186.978,1.759a.51.51,0,0,1-.177.708.572.572,0,0,1-.229.073Z" transform="translate(-392.222 -138.534)" fill="#f9aac2"/>
            </g>
            <path id="Trazado_110773" data-name="Trazado 110773" d="M424.559,149.02a17.212,17.212,0,0,1-13.747-6.879l-.364-.51,1.259-.874a16.083,16.083,0,0,0,2.175,2.518,15.9,15.9,0,0,0,3.257,2.341,15.693,15.693,0,0,0,12.269,1.1l.239-.083h0a15.61,15.61,0,0,0,5.661-3.465h0a1.645,1.645,0,0,0,.135-.135c.146-.135.291-.291.427-.437a15.516,15.516,0,0,0,4.225-10.667V131.4a15.61,15.61,0,0,0-30.907-2.789l-1.5-.323a17.16,17.16,0,0,1,33.935,3.059c0,.187,0,.385,0,.583a17.16,17.16,0,0,1-17.171,17.15Z" transform="translate(-264.52 -54.915)" fill="url(#linear-gradient-4)"/>
          </g>
          <g id="Grupo_55029" data-name="Grupo 55029" transform="translate(10.876 76.661)">
            <path id="Trazado_110774" data-name="Trazado 110774" d="M324.907,142.306,194.265,129.1,63.4,141.546,60.99,431.178l130.8-6,130.684,9.116,130.673-10.968,2.393-286.583Z" transform="translate(-60.99 -129.1)" fill="#fff"/>
            <path id="Trazado_110775" data-name="Trazado 110775" d="M194.284,418.26,70.01,423.952,72.3,149.2,196.625,137.39Z" transform="translate(-60.623 -128.763)" fill="#7d97f4"/>
            <path id="Trazado_110776" data-name="Trazado 110776" d="M313.6,426.907,189.43,418.26l2.341-280.87L315.9,149.919Z" transform="translate(-55.77 -128.763)" fill="#91b3fa"/>
            <path id="Trazado_110777" data-name="Trazado 110777" d="M432.909,416.228l-124.159,10.4,2.3-276.988,124.128-5.276Z" transform="translate(-50.92 -128.48)" fill="#7d97f4"/>
            <rect id="Rectángulo_6291" data-name="Rectángulo 6291" width="2.81" height="280.953" transform="translate(133.285 8.602) rotate(0.51)" fill="#fff" opacity="0.47"/>
            <g id="Grupo_55028" data-name="Grupo 55028" transform="translate(26.655 62.093)">
              <path id="Trazado_110778" data-name="Trazado 110778" d="M276.989,316.142q-.749,5.89-1.228,11.79c-.073.937.114,2.217,1.041,2.31a1.757,1.757,0,0,0,1.374-.822c1.561-1.79,3.236-4.1,2.487-6.379-.291-.853-.885-1.561-1.113-2.425-.354-1.3.2-2.685.052-4.027s-1.748-2.664-2.654-1.686Z" transform="translate(-78.917 -183.655)" fill="#6c58b8"/>
              <path id="Trazado_110779" data-name="Trazado 110779" d="M184.1,192.327c-6.15-3.247-10.021-3.684-16.65-2.966-6.244.676-10.469,3.819-14.756,8.325a11.281,11.281,0,0,1-3.184,2.706c-5.3,2.445-12.019,1.956-17.431,4.371-6.431,2.872-8.252,11.811-14.132,15.766-3.4,2.289-7.7,2.581-11.447,4.163-5.536,2.425-8.086,7.451-11.229,12.352-1.936,3.018-9.054,8.179-8.648,11.7a4.412,4.412,0,0,0,.676,1.79c1.956,3.122,4.891,3.5,7.982,4.4,4.079,1.186,6.535,3.018,10.146,5.578,3.767,2.664,8.887,4.985,9.22,9.7.146,2.185-.874,4.246-1.374,6.369-2.248,9.605,6.1,18.222,14.226,23.414s17.691,10.323,20.282,19.824a5.2,5.2,0,0,0,1.041,2.435c2.362,2.331,4.163-2.945,4.86-4.631a3.372,3.372,0,0,0-.676-3.288,17.149,17.149,0,0,0-2.6-2.3,15.079,15.079,0,0,1-5.255-10.282,2.352,2.352,0,0,1,.239-1.467c1.4-2.081,4.912-3.007,6.639-5.588,2.456-3.694,3.018-7.2,3.445-11.582,1.54-16.109,16.2-10.406,25.413-17.556a8.825,8.825,0,0,0,3.288-5.567,5.848,5.848,0,0,0-.51-3.465,7.285,7.285,0,0,0-4.683-3.559,20.75,20.75,0,0,0-5.952-.447l-5.557.114a4.017,4.017,0,0,0-1.613.26,3.642,3.642,0,0,0-1.571,1.707,14.142,14.142,0,0,0-1.748,7.42c-2.435.853-4.808-1.467-6.14-3.757a28.1,28.1,0,0,1-3.257-8.554,5.089,5.089,0,0,1,.208-3.476,4.443,4.443,0,0,1,1.342-1.374,14.652,14.652,0,0,1,7-2.987c4.339-.479,8.564,1.665,12.123,4.287s8.981,5.536,12.821,1.915c1.977-1.873,2.008-5.276.635-7.649-2.237-3.861-7.951-5.88-11.676-7.836a7.284,7.284,0,0,1-3.351-4.745,22.019,22.019,0,0,1-.4-6.025,18.492,18.492,0,0,1,16.109,1.114c.687.4,1.426.947,1.5,1.748a3.529,3.529,0,0,1-1.041,2.185c-4.454,5.828-.447,10.531,4.8,13.82.125-14.777.156-29.627.167-44.425a59.8,59.8,0,0,1-9.283-3.934Z" transform="translate(-86.604 -188.756)" fill="#472ea6"/>
              <path id="Trazado_110780" data-name="Trazado 110780" d="M226.464,204.565c-.718-.968-2.144-.718-3.33-.718-3.757,0-6.754-3.257-10.406-4.329a21.853,21.853,0,0,0-5.88-.531,59.6,59.6,0,0,1-17.691-3.007c0,14.8,0,29.648-.167,44.425a50.46,50.46,0,0,0,9.491,4.433c2.633.926,5.2,2.456,7.961,1.884,2.612-.531,4.964-3.476,7.67-4.225,1.967-.552,4.059-.26,6.046-.676s4.069-1.956,3.986-4.059c-.073-1.707-1.519-2.987-2.966-3.819a14.018,14.018,0,0,1-2.737-2.331c-2.185-4.381,1.041-8.231,2.206-12.009,1.759-5.474-.853-8.689,4.558-11.718C226.391,207.24,227.3,205.637,226.464,204.565Z" transform="translate(-82.443 -188.475)" fill="#6c58b8"/>
              <path id="Trazado_110781" data-name="Trazado 110781" d="M155.024,338.056a19.649,19.649,0,0,1,1.915,5.453c.895,6.941-4.881,15.474-7.337,21.854a10.885,10.885,0,0,0-1.041,5.505,10.719,10.719,0,0,0,.739,2.269c2.227,5.432,6.608,10.406,10.5,14.569,1.332-3.6,1.238-12.217.864-16.047a8.5,8.5,0,0,1,.125-3.767c1.436-3.778,6.129-8.991,9.366-11.249s7.337-3.986,8.159-7.846c.312-1.488,0-3.122.52-4.527a15.431,15.431,0,0,1,1.218-2.414c2.081-3.944,3.216-11.562-.895-14.361-4.589-3.122-11.083,1.457-15.027-3.653a25.724,25.724,0,0,0-1.707-2.362,5.567,5.567,0,0,0-4.933-1.395C145.9,322.083,151.569,330.782,155.024,338.056Z" transform="translate(-84.087 -183.435)" fill="#472ea6"/>
              <path id="Trazado_110782" data-name="Trazado 110782" d="M224.93,286.07c3.673,2.425,10-2.9,12.321-9.126a7.347,7.347,0,0,1,1.093-2.217c1.041-1.27,2.955-1.436,4.589-1.2s3.247.77,4.881.552a7.513,7.513,0,0,0,5.359-4.329,23.277,23.277,0,0,0,1.863-7.024,7.961,7.961,0,0,1,5.2.479c1.249.572,2.5,1.842,2.144,3.226a3.871,3.871,0,0,1-1.041,1.592,45.956,45.956,0,0,0-3.83,4.672c-.728,1.041-1.436,2.331-.895,3.455,1.488,3.122,4.163,1.478,3.413,5.869-.978,5.505-8.211,7.763-4.079,14.33A8.825,8.825,0,0,0,263,300.358c1.988.094,4.433-.968,4.464-3.028a5.892,5.892,0,0,1,0-1.811,2.154,2.154,0,0,1,1.832-1.249c2.477-.385,4.881.895,7.17,1.967a2.4,2.4,0,0,0,2.175.229c2.144-1.27,1.145-2.321,4.059-2.6,2.477-.239,5.391,1.738,6.8,3.7a1.78,1.78,0,0,1,.427,1.613c-.187.479-.7.718-.957,1.155a1.738,1.738,0,0,0,.676,2.1,6.139,6.139,0,0,0,2.31.739c3.736.791,3.819,4.475,6.462,6.306,2.133,1.5,7.586,1.79,7.108-2.5-.177-1.571-1.7-2.862-1.446-4.412.219-1.374,1.707-2.081,3.039-2.279s2.758,0,3.944-.687a18.278,18.278,0,0,0,2.081-1.7c4.454-3.361,15.006-.51,18.419,3.257,3.195,3.507,3.549,9.564,7.659,11.843a18.857,18.857,0,0,0-6.244-12.144,5.713,5.713,0,0,1-1.675-1.894,4.965,4.965,0,0,1-.229-2.144,47.058,47.058,0,0,1,1.863-10.594c-.114.416,2.612-7.087.645-5.671,3.507-2.539,11.166-6.712,15.558-6.442a6.515,6.515,0,0,1,5.505,3.663,5.359,5.359,0,0,1-1.509,6.358c-1.811,1.28-4.319,1.041-6.161,2.279a4.943,4.943,0,0,0-1.7,5.776,8.221,8.221,0,0,1,4.808-3.288c2.57-.614,5.484,0,7.7-1.447a6.244,6.244,0,0,0,2.518-5.2,11.708,11.708,0,0,0-1.665-5.713,17.91,17.91,0,0,1-1.9-3.882,8.44,8.44,0,0,1,1.363-6.629,18.44,18.44,0,0,1,21.354-7.659,2.238,2.238,0,0,1,1.374.916c.406.728,0,1.655.187,2.477a1.79,1.79,0,0,0,3,.77,6.109,6.109,0,0,0,.749-2.6c.562-2.3,2.841-3.715,5.047-4.371,2.706-.812,9.959-4.527,10.708.385a4.716,4.716,0,0,0,.229,1.28c.51,1.1,2.206.947,3.008.052,1.665-1.852,1.956-4.881,3.569-6.951,1.426-1.821,3.538-2.914,4.724-4.953A10.157,10.157,0,0,0,407.6,231.27c-4.933-2.341-10.667-1.3-16.016-.312-3.673.687-16.3,3.309-17.2-2.851a4.464,4.464,0,0,0-.291-1.5c-.291-.552-.905-.843-1.28-1.342a7.616,7.616,0,0,1-.749-2.279c-.937-2.768-4.444-3.278-7.284-3.309.281-1.717.437-3.809-.895-4.87a4.589,4.589,0,0,0-2.726-.708c-2.466-.114-8.429.8-10.479-.687-2.716-1.988-.843-5.359-2.029-8.1-1.259-2.893-5.932-3.3-6.452-6.431-.114-.687,0-1.384-.062-2.081-.2-1.665-1.509-2.924-2.737-4.017-2.217-1.988-4.745-4.1-7.68-4.017-.552.447-.052,1.394.572,1.738s1.415.52,1.728,1.166c.6,1.249-1.124,2.279-2.456,2.539-.062,1.821,1.707,3.028,3.122,4.163a13.768,13.768,0,0,1,4.579,7.742,50.191,50.191,0,0,1-14.174.6c-5.692-.562-9.366,8.783-16.1,6.244a17.633,17.633,0,0,0-2.924-1.27c-2.633-.52-4.745,2.081-7.108,3.351-3.59,1.977-7.992.947-11.842-.406-4.6-1.623-10.2-3.965-14.829-1.155-1.738,1.041-3.122,2.674-4.953,3.517-3.85,1.769-8.221-.406-12.415-.822-10.354-1.041-16.577,9.449-19.939,18.18a10.407,10.407,0,0,0-.905,4.163,4.006,4.006,0,0,0,2.019,3.486c1.863.874,4.027-.51,5.2-2.206s1.946-3.778,3.434-5.2,4.215-1.915,5.391-.187a5.265,5.265,0,0,1,.6,3.007c0,1.977,0,3.944,0,5.921a7.857,7.857,0,0,1-.427,3.195c-.708,1.665-2.4,2.57-3.986,3.361l-10.271,5.151a15.151,15.151,0,0,0-3.309,2.019c-4.475,3.913-1.467,9.366-4.922,13.081-1.394,1.509-3.7,1.967-4.849,3.694a7.8,7.8,0,0,0-.8,4.485C222.318,282.667,223.39,285.04,224.93,286.07Z" transform="translate(-81.097 -188.768)" fill="#6c58b8"/>
              <path id="Trazado_110783" data-name="Trazado 110783" d="M340.156,313.938c-1.384,2.591-1.2,5.984-4.329,7.42-2.081.947-4.756.51-6.452,2.081-1.936,1.8-1.436,4.985-1.041,7.638a2.644,2.644,0,0,1-.062,1.426c-.5,1.176-2.289,1.145-2.9,2.248s.125,2.154.916,2.883a7.284,7.284,0,0,0,8.96.676c.718-.489,1.488-1.155,2.321-.937s1.3,1.467,1.571,2.466a9.574,9.574,0,0,0,3.424,5.432c5.526,3.944,13.289-.864,19.429,4.714a5.026,5.026,0,0,1,1.686,2.508c.239,1.093-.114,2.352.479,3.288.749,1.176,2.581,1.041,3.58.073a8.325,8.325,0,0,0,1.821-3.715,6.129,6.129,0,0,1,2.081-3.486c1.936-1.259,4.163-.78,5.2-3.34,1.332-3.257-2.654-5.953-1.394-8.929.572-1.322,1.478-2.768.905-4.1a6.025,6.025,0,0,0-1.4-1.644c-2.362-2.445-2.768-4.745-5.911-6.244-2.008-.957-6.181.281-7-3.184-.219-.905.094-2.081-.583-2.664a2.081,2.081,0,0,0-1.447-.364c-3.528,0-7.711.062-9.72-2.935-2.227-3.309-2.487-5.692-6.993-4.048a5.5,5.5,0,0,0-3.132,2.737Z" transform="translate(-76.909 -183.813)" fill="#6c58b8"/>
              <path id="Trazado_110784" data-name="Trazado 110784" d="M239.379,296.421c-.728,1.041-1.145,2.321-1.915,3.351-2.185,2.872-3.122.333-5.588,1.3a20.74,20.74,0,0,1-2.5,1.145c-1.79.427-3.569-.812-5.411-.822-7.087,0-3.372,11.759.062,14.017a3.829,3.829,0,0,0,2.185.416l7.014-.073a3.2,3.2,0,0,1,1.925.4c1.7,1.2.083,4.163,1.1,6.015.7,1.27,2.321,1.5,3.7,1.759,2.924.552,3.569,3.85,5.359,5.88,2.31,2.622,4.506,3.673,5.807,7.472.77,2.258,1.041,4.693,2.081,6.837a10.188,10.188,0,0,0,12.04,5.286,10.739,10.739,0,0,0,6.764-11.582c-.479-2.841-2.081-5.318-3.122-7.961-2.217-5.339-.718-11.843,5.411-12.862,1.551-.25,3.517-.343,4.09-1.852.832-2.175-2.373-4.714-1.041-6.6.479-.687,1.4-.926,1.821-1.644.572-.968-.073-2.227-.864-3.007a6.775,6.775,0,0,1-2.081-2.539c-1.832-6.077-7.857-2.279-11.874-1.478a10.407,10.407,0,0,1-8.606-1.53C251.055,295.578,244.052,289.719,239.379,296.421Z" transform="translate(-81.185 -184.518)" fill="#6c58b8"/>
              <path id="Trazado_110785" data-name="Trazado 110785" d="M253.367,204.976c.531-1.041,1.821-1.259,2.945-1.332a42.583,42.583,0,0,1,11.541.77c-3.122,2.55-6.65,5.2-10.635,5.1-1.811-.062-3.694-.708-5.38-.052a4.287,4.287,0,0,1,.562-3.7Z" transform="translate(-79.896 -188.167)" fill="#6c58b8"/>
              <path id="Trazado_110786" data-name="Trazado 110786" d="M210.479,250.256c3.944,3.226,17.826-1.041,11.343-5.2a8.773,8.773,0,0,0-3.517-1.041,13.352,13.352,0,0,0-4.933-.166,4.745,4.745,0,0,0-3.684,3.122,2.955,2.955,0,0,0,.791,3.288Z" transform="translate(-81.61 -186.535)" fill="#6c58b8"/>
              <path id="Trazado_110787" data-name="Trazado 110787" d="M375.264,222.959c2.435,2.206,5.848,2.747,9.054,3.205,1.6.219,3.694.156,4.246-1.415s-1.29-3.184-2.987-3.372-3.5.271-5.068-.416c-1.384-.614-2.487-2.081-4-2.081-1.759,0-2.831,2.674-1.592,3.975Z" transform="translate(-74.908 -187.544)" fill="#6c58b8"/>
            </g>
            <path id="Trazado_110788" data-name="Trazado 110788" d="M432.95,416.848,308.78,427.254l2.31-276.988,124.128-5.286Z" transform="translate(-50.919 -128.455)" fill="#fff" opacity="0.12"/>
          </g>
          <g id="Grupo_55034" data-name="Grupo 55034" transform="translate(50.556 112.678)">
            <rect id="Rectángulo_6292" data-name="Rectángulo 6292" width="128.009" height="34.404" rx="14.26" fill="#6c58b8"/>
            <g id="Grupo_55032" data-name="Grupo 55032" transform="translate(7.881 3.528)">
              <g id="Grupo_55031" data-name="Grupo 55031" transform="translate(8.145 5.713)">
                <path id="Trazado_110789" data-name="Trazado 110789" d="M134.633,180.068H116.578a.874.874,0,1,1,0-1.738h18.055a.874.874,0,1,1,0,1.738Z" transform="translate(-114.476 -172.357)" fill="#fff"/>
                <g id="Grupo_55030" data-name="Grupo 55030" transform="translate(6.92 1.072)">
                  <path id="Trazado_110790" data-name="Trazado 110790" d="M122.034,191.862c-.479,0-.864-.635-.864-1.426V175.056c0-.791.385-1.436.864-1.436s.874.645.874,1.436v15.433C122.877,191.228,122.481,191.862,122.034,191.862Z" transform="translate(-121.17 -173.62)" fill="#fff"/>
                  <path id="Trazado_110791" data-name="Trazado 110791" d="M128.344,191.862c-.479,0-.864-.635-.864-1.426V175.056c0-.791.385-1.436.864-1.436s.874.645.874,1.436v15.433C129.218,191.228,128.833,191.862,128.344,191.862Z" transform="translate(-120.914 -173.62)" fill="#fff"/>
                </g>
                <path id="Trazado_110792" data-name="Trazado 110792" d="M134.078,185.858h-17.41a.874.874,0,1,1,0-1.738h17.41a.874.874,0,1,1,0,1.738Z" transform="translate(-114.472 -172.122)" fill="#fff"/>
                <path id="Trazado_110793" data-name="Trazado 110793" d="M135.094,192.851H116.06a1.54,1.54,0,0,1-1.54-1.54V174.13a1.54,1.54,0,0,1,1.54-1.54h19.033a1.54,1.54,0,0,1,1.54,1.54v17.181a1.54,1.54,0,0,1-1.54,1.54Zm-17.5-3.07h15.974V175.66H117.59Z" transform="translate(-114.52 -172.59)" fill="#fff"/>
              </g>
              <path id="Trazado_110794" data-name="Trazado 110794" d="M116.378,193.074H108.23a1.54,1.54,0,0,1-1.134-.51,1.509,1.509,0,0,1-.4-1.176l2.206-22.894a1.54,1.54,0,0,1,1.53-1.394h3.934a1.551,1.551,0,0,1,1.53,1.4l2.008,22.894a1.571,1.571,0,0,1-.406,1.176,1.551,1.551,0,0,1-1.124.5ZM109.926,190H114.7l-1.738-19.887h-1.134Z" transform="translate(-106.693 -167.1)" fill="#fff"/>
            </g>
            <g id="Grupo_55033" data-name="Grupo 55033" transform="translate(46.142 8.284)" opacity="0.79">
              <rect id="Rectángulo_6293" data-name="Rectángulo 6293" width="42.562" height="3.257" rx="1.35" fill="#fff"/>
              <rect id="Rectángulo_6294" data-name="Rectángulo 6294" width="42.562" height="3.257" rx="1.35" transform="translate(0 6.92)" fill="#fff"/>
              <rect id="Rectángulo_6295" data-name="Rectángulo 6295" width="17.337" height="3.257" rx="1.35" transform="translate(0 13.83)" fill="#fff"/>
            </g>
            <path id="Trazado_110795" data-name="Trazado 110795" d="M199.965,191.776,217.1,181.37a.905.905,0,0,0,0-1.426l-17.223-10.282c-.4-.239-.843.146-.843.708v3.361a.718.718,0,0,1-.593.78l-9.033.073c-.333,0-.593.343-.593.78V186.23a.718.718,0,0,0,.593.78l9.043-.073a.708.708,0,0,1,.593.78v3.351C199.123,191.641,199.57,192.016,199.965,191.776Z" transform="translate(-95.474 -163.471)" fill="#fff"/>
          </g>
          <g id="Grupo_55037" data-name="Grupo 55037" transform="translate(290.518 142.149)">
            <rect id="Rectángulo_6296" data-name="Rectángulo 6296" width="128.009" height="34.404" rx="14.26" fill="#6c58b8"/>
            <g id="Grupo_55035" data-name="Grupo 55035" transform="translate(8.294 10.594)">
              <path id="Trazado_110796" data-name="Trazado 110796" d="M357.681,215.582H345.193a.728.728,0,0,1-.708-.562,1.541,1.541,0,0,0-.1-.281h0a1.853,1.853,0,0,0-.177-.312,2.269,2.269,0,0,0-1.873-1.041,2.3,2.3,0,0,0-1.873,1.041,1.853,1.853,0,0,0-.177.312h0a1.542,1.542,0,0,0-.1.281.728.728,0,0,1-.708.562h-.624a1.166,1.166,0,0,1-1.166-1.166V203.376a1.165,1.165,0,0,1,1.166-1.166h18.836a1.165,1.165,0,0,1,1.166,1.166v11.041A1.166,1.166,0,0,1,357.681,215.582Zm-11.936-1.457H357.39V203.719H339.158v10.1l.135-.208a3.715,3.715,0,0,1,6.15,0,3.271,3.271,0,0,1,.291.531Z" transform="translate(-337.68 -202.21)" fill="#fff"/>
              <path id="Trazado_110797" data-name="Trazado 110797" d="M366.006,215.489h-.531a.739.739,0,0,1-.718-.562,1.491,1.491,0,0,0-.094-.281h0a1.854,1.854,0,0,0-.177-.312,2.258,2.258,0,0,0-3.746,0,1.855,1.855,0,0,0-.177.312h0a1.486,1.486,0,0,0-.094.281.739.739,0,0,1-.718.562h-.167a1.165,1.165,0,0,1-1.165-1.166v-8.637a1.165,1.165,0,0,1,1.165-1.166h1.884a5.526,5.526,0,0,1,5.744,6.129v3.673a1.166,1.166,0,0,1-1.207,1.166Zm-3.413-3.642a3.746,3.746,0,0,1,3.122,1.623v-2.945a4.163,4.163,0,0,0-1.041-3.257,4.246,4.246,0,0,0-3.174-1.29h-1.634v7.087a3.715,3.715,0,0,1,2.727-1.218Z" transform="translate(-336.837 -202.116)" fill="#fff"/>
              <path id="Trazado_110798" data-name="Trazado 110798" d="M342.257,218.024a1.972,1.972,0,1,1,1.967-1.977A1.977,1.977,0,0,1,342.257,218.024Zm0-2.487a.468.468,0,0,0-.364.167h0a.541.541,0,0,0-.125.323.52.52,0,0,0,1.041,0,.541.541,0,0,0-.125-.323h0A.468.468,0,0,0,342.257,215.537Z" transform="translate(-337.574 -201.728)" fill="#fff"/>
              <path id="Trazado_110799" data-name="Trazado 110799" d="M362.507,218.024a1.977,1.977,0,0,1-1.967-1.977,1.972,1.972,0,0,1,3.944,0,1.988,1.988,0,0,1-1.977,1.977Zm0-2.487a.468.468,0,0,0-.364.167h0a.479.479,0,0,0-.125.323.52.52,0,1,0,1.041,0,.479.479,0,0,0-.125-.323h0A.468.468,0,0,0,362.507,215.537Z" transform="translate(-336.751 -201.728)" fill="#fff"/>
            </g>
            <g id="Grupo_55036" data-name="Grupo 55036" transform="translate(45.778 8.284)" opacity="0.84">
              <rect id="Rectángulo_6297" data-name="Rectángulo 6297" width="42.562" height="3.257" rx="1.35" fill="#fff"/>
              <rect id="Rectángulo_6298" data-name="Rectángulo 6298" width="42.562" height="3.257" rx="1.35" transform="translate(0 6.92)" fill="#fff"/>
              <rect id="Rectángulo_6299" data-name="Rectángulo 6299" width="17.337" height="3.257" rx="1.35" transform="translate(0 13.841)" fill="#fff"/>
            </g>
            <path id="Trazado_110800" data-name="Trazado 110800" d="M430.206,220.106l17.15-10.406a.916.916,0,0,0,0-1.426L430.122,198c-.4-.229-.843.146-.843.718v3.351a.708.708,0,0,1-.593.781l-9.033.073a.708.708,0,0,0-.593.78V214.57a.708.708,0,0,0,.593.78l9.043-.062a.7.7,0,0,1,.593.77v3.361C429.4,219.96,429.81,220.345,430.206,220.106Z" transform="translate(-326.079 -191.79)" fill="#fff"/>
          </g>
          <g id="Grupo_55040" data-name="Grupo 55040" transform="translate(217.777 334.21)">
            <rect id="Rectángulo_6300" data-name="Rectángulo 6300" width="128.009" height="34.404" rx="14.26" fill="#6c58b8"/>
            <g id="Grupo_55038" data-name="Grupo 55038" transform="translate(3.761 3.778)">
              <path id="Trazado_110801" data-name="Trazado 110801" d="M279.461,387.14h7.732a1.041,1.041,0,0,0,1.041-1.041v-4.839a1.041,1.041,0,0,0-1.041-1.041h-7.732a1.041,1.041,0,0,0-1.041,1.041V386.1A1.041,1.041,0,0,0,279.461,387.14Zm.52-1.582v-3.788h6.691v3.788Z" transform="translate(-262.814 -380.22)" fill="#fff"/>
              <path id="Trazado_110802" data-name="Trazado 110802" d="M300.259,390.456a1.727,1.727,0,0,0-1.509-.895H294.5v-1.041a1.041,1.041,0,0,0-1.041-1.041h-7.732a1.041,1.041,0,0,0-1.041,1.041v4.485h-.635v-4.485a1.041,1.041,0,0,0-1.041-1.041h-7.732a1.041,1.041,0,0,0-1.041,1.041v4.558l-9.168.073a1.655,1.655,0,0,0-1.353,2.6l3.746,5.453a3.767,3.767,0,0,0,3.122,1.623h21.489a3.122,3.122,0,0,0,2.685-1.478l5.557-9.1a1.738,1.738,0,0,0-.062-1.8Zm-14.017,2.508v-3.9h6.681v.541h-2.081a2.955,2.955,0,0,0-2.414,1.27l-1.457,2.081Zm-10.479-3.9h6.691v3.965l-6.535.052h-.156Zm23.113,2.373-5.547,9.074a1.582,1.582,0,0,1-1.342.739H270.5a2.175,2.175,0,0,1-1.79-.947l-3.746-5.453a.1.1,0,0,1,0-.083.062.062,0,0,1,.062,0l10.906-.083,8.263-.062H287.4a.853.853,0,0,0,.645-.343l1.7-2.466a1.342,1.342,0,0,1,1.1-.583h7.909a.114.114,0,0,1,.125.166Z" transform="translate(-263.424 -379.925)" fill="#fff"/>
            </g>
            <g id="Grupo_55039" data-name="Grupo 55039" transform="translate(44.394 8.284)" opacity="0.75">
              <rect id="Rectángulo_6301" data-name="Rectángulo 6301" width="42.562" height="3.257" rx="1.35" fill="#fff"/>
              <rect id="Rectángulo_6302" data-name="Rectángulo 6302" width="42.562" height="3.257" rx="1.35" transform="translate(0 6.92)" fill="#fff"/>
              <rect id="Rectángulo_6303" data-name="Rectángulo 6303" width="17.337" height="3.257" rx="1.35" transform="translate(0 13.841)" fill="#fff"/>
            </g>
            <path id="Trazado_110803" data-name="Trazado 110803" d="M358.964,404.666l17.15-10.406a.916.916,0,0,0,0-1.426l-17.233-10.282c-.385-.239-.832.146-.832.718v3.351c0,.427-.26.78-.583.78l-9.043.073c-.323,0-.583.354-.583.78V399.12c0,.437.26.78.593.78l9.033-.073a.708.708,0,0,1,.593.78v3.361C358.132,404.521,358.579,404.875,358.964,404.666Z" transform="translate(-256.232 -376.351)" fill="#fff"/>
          </g>
          <g id="Grupo_55047" data-name="Grupo 55047" transform="translate(0.928 265.042)">
            <g id="Grupo_55042" data-name="Grupo 55042" transform="translate(0 73.665)">
              <path id="Trazado_110804" data-name="Trazado 110804" d="M51.43,452.381V394.823A13.809,13.809,0,0,1,65.073,381c22.7-.239,69.515-.25,107.821,2.976a10.406,10.406,0,0,1,9.48,9.959l3.58,55.664a13.175,13.175,0,0,1-12.925,13.612L64.615,465.3A12.935,12.935,0,0,1,51.43,452.381Z" transform="translate(-51.43 -380.911)" fill="#6e2ee1"/>
              <path id="Trazado_110805" data-name="Trazado 110805" d="M64.072,400.43c-.1,4.9,0,12.675.167,17.691a4.433,4.433,0,0,0,4.964,4.3l18.732-2.185a4.444,4.444,0,0,0,3.871-5.068l-2.3-15.3a4.433,4.433,0,0,0-4.381-3.778H68.5A4.423,4.423,0,0,0,64.072,400.43Z" transform="translate(-50.918 -380.294)" fill="#fff"/>
              <path id="Trazado_110806" data-name="Trazado 110806" d="M111.122,430.029l15.61,1.675a3.507,3.507,0,0,0,3.882-3.746l-3.4-46.35c-6.535-.208-12.977-.364-19.2-.468v45.393a3.528,3.528,0,0,0,3.112,3.5Z" transform="translate(-49.13 -380.902)" fill="#fff" opacity="0.37"/>
              <path id="Trazado_110807" data-name="Trazado 110807" d="M117.2,421.99a1.571,1.571,0,0,0,1.571,1.478h.094a1.561,1.561,0,0,0,1.467-1.655l-2.352-40.45-3.122-.073Z" transform="translate(-48.852 -380.895)" fill="#fff"/>
              <g id="Grupo_55041" data-name="Grupo 55041" transform="translate(17.242 20.387)">
                <path id="Trazado_110808" data-name="Trazado 110808" d="M72.422,414.829a.52.52,0,0,1-.52-.489L71.09,401.6a.52.52,0,0,1,.489-.562.51.51,0,0,1,.552.489l.812,12.748a.52.52,0,0,1-.489.552Z" transform="translate(-67.873 -400.48)" fill="#12263f"/>
                <path id="Trazado_110809" data-name="Trazado 110809" d="M74.037,414.838a.51.51,0,0,1-.52-.5l-.427-12.987a.52.52,0,0,1,.5-.541.489.489,0,0,1,.541.5l.427,12.987a.52.52,0,0,1-.51.541Z" transform="translate(-67.791 -400.489)" fill="#12263f"/>
                <path id="Trazado_110810" data-name="Trazado 110810" d="M76.154,414.834a.52.52,0,0,1-.52-.5c-.1-2.133-.614-12.79-.614-13.008a.531.531,0,0,1,1.041,0c0,.281.4,8.6.6,12.966a.52.52,0,0,1-.5.541Zm-.083-13.528Z" transform="translate(-67.713 -400.485)" fill="#12263f"/>
                <path id="Trazado_110811" data-name="Trazado 110811" d="M79.515,415.371a1.041,1.041,0,0,1-1.041-1.041c-.447-12.592-.364-12.873-.323-13.06a1.049,1.049,0,0,1,2.05.416c0,.76.2,8.075.354,12.561a1.041,1.041,0,0,1-1.041,1.041Z" transform="translate(-67.587 -400.502)" fill="#12263f"/>
                <path id="Trazado_110812" data-name="Trazado 110812" d="M81.651,414.833a.52.52,0,0,1-.52-.52V401.575a.531.531,0,1,1,1.041,0v12.737a.52.52,0,0,1-.52.52Z" transform="translate(-67.465 -400.484)" fill="#12263f"/>
                <path id="Trazado_110813" data-name="Trazado 110813" d="M83.434,414.828a.52.52,0,0,1-.52-.51c-.1-4.423-.333-11.655-.541-12.488a.51.51,0,0,1,0-.541.52.52,0,0,1,.718-.146c.281.187.552.364.843,13.2a.51.51,0,0,1-.51.531Z" transform="translate(-67.417 -400.479)" fill="#12263f"/>
                <path id="Trazado_110814" data-name="Trazado 110814" d="M69.738,416.014a1.041,1.041,0,0,1-1.041-1.041L68,401.643a1.042,1.042,0,1,1,2.081-.114l.7,13.383a1.041,1.041,0,0,1-1.041,1.1Z" transform="translate(-67.998 -400.5)" fill="#12263f"/>
              </g>
            </g>
            <g id="Grupo_55044" data-name="Grupo 55044" transform="translate(16.91)">
              <path id="Trazado_110815" data-name="Trazado 110815" d="M67.68,375.2V322.785c0-6.889,4.787-12.488,10.739-12.571,17.868-.229,54.707-.239,84.854,2.706,4.163.4,7.285,4.3,7.461,9.074l2.82,50.69c.208,6.7-4.371,12.3-10.167,12.425l-85.333,1.884C72.363,387.117,67.68,381.8,67.68,375.2Z" transform="translate(-67.68 -310.123)" fill="#f25585"/>
              <path id="Trazado_110816" data-name="Trazado 110816" d="M77.631,327.894c-.083,4.454,0,11.541.125,16.109a3.689,3.689,0,0,0,3.9,3.913l14.7-1.988a3.986,3.986,0,0,0,3.039-4.62l-1.8-13.924a3.7,3.7,0,0,0-3.455-3.445H81.138a3.778,3.778,0,0,0-3.507,3.954Z" transform="translate(-67.277 -309.562)" fill="#fff"/>
              <path id="Trazado_110817" data-name="Trazado 110817" d="M114.646,354.849l12.259,1.53a3,3,0,0,0,3.06-3.424l-2.685-42.208c-5.141-.187-10.209-.323-15.1-.427v41.345A3.122,3.122,0,0,0,114.646,354.849Z" transform="translate(-65.872 -310.115)" fill="#fff" opacity="0.37"/>
              <path id="Trazado_110818" data-name="Trazado 110818" d="M119.452,347.518a1.332,1.332,0,0,0,1.228,1.353h.073a1.363,1.363,0,0,0,1.155-1.5l-1.811-36.86-2.477-.062Z" transform="translate(-65.65 -310.11)" fill="#fff"/>
              <g id="Grupo_55043" data-name="Grupo 55043" transform="translate(13.56 18.603)">
                <path id="Trazado_110819" data-name="Trazado 110819" d="M84.2,341.011a.437.437,0,0,1-.406-.447l-.645-11.6a.468.468,0,0,1,.385-.51.427.427,0,0,1,.437.447l.635,11.572a.447.447,0,0,1-.385.5Z" transform="translate(-80.612 -327.982)" fill="#12263f"/>
                <path id="Trazado_110820" data-name="Trazado 110820" d="M85.449,341.019a.458.458,0,0,1-.416-.468L84.7,328.729a.458.458,0,0,1,.4-.489.424.424,0,0,1,.427.458l.333,11.78a.448.448,0,0,1-.4.5Z" transform="translate(-80.549 -327.99)" fill="#12263f"/>
                <path id="Trazado_110821" data-name="Trazado 110821" d="M87.135,341.02a.437.437,0,0,1-.406-.458c-.083-1.946-.479-11.655-.479-11.853a.416.416,0,1,1,.822,0c0,.26.312,7.836.479,11.811a.447.447,0,0,1-.4.489Zm-.1-12.311Z" transform="translate(-80.486 -327.991)" fill="#12263f"/>
                <path id="Trazado_110822" data-name="Trazado 110822" d="M89.783,341.527a.884.884,0,0,1-.822-.916c-.343-11.447-.291-11.718-.25-11.884a.833.833,0,0,1,1.041-.676.978.978,0,0,1,.6,1.041c0,.687.156,7.357.281,11.447a.916.916,0,0,1-.791.978Z" transform="translate(-80.387 -327.999)" fill="#12263f"/>
                <path id="Trazado_110823" data-name="Trazado 110823" d="M91.466,341.011a.448.448,0,0,1-.406-.479v-11.6a.437.437,0,0,1,.406-.479.447.447,0,0,1,.416.479v11.6A.458.458,0,0,1,91.466,341.011Z" transform="translate(-80.29 -327.982)" fill="#12263f"/>
                <path id="Trazado_110824" data-name="Trazado 110824" d="M92.865,341.013a.447.447,0,0,1-.406-.468c-.083-4.038-.26-10.615-.427-11.447a.541.541,0,0,1,0-.489.385.385,0,0,1,.572-.135c.229.167.437.333.666,12.019a.468.468,0,0,1-.406.489Z" transform="translate(-80.253 -327.984)" fill="#12263f"/>
                <path id="Trazado_110825" data-name="Trazado 110825" d="M82.052,342.08a.905.905,0,0,1-.822-.905l-.51-12.134A.916.916,0,0,1,81.5,328a.905.905,0,0,1,.864.905l.541,12.186a.905.905,0,0,1-.77,1.041Z" transform="translate(-80.711 -328)" fill="#12263f"/>
              </g>
            </g>
            <g id="Grupo_55046" data-name="Grupo 55046" transform="translate(89.256 83.308)">
              <path id="Trazado_110826" data-name="Trazado 110826" d="M148.772,464.274A11.353,11.353,0,0,1,137.2,452.92V402.376a12.1,12.1,0,0,1,11.967-12.113c19.928-.219,61.034-.229,94.7,2.612a9.1,9.1,0,0,1,8.325,8.741l3.122,48.91A11.551,11.551,0,0,1,243.97,462.5Z" transform="translate(-137.2 -390.177)" fill="#fd8f25"/>
              <path id="Trazado_110827" data-name="Trazado 110827" d="M148.291,407.309c-.083,4.3,0,11.124.146,15.526a3.892,3.892,0,0,0,4.339,3.778l16.4-1.925a3.892,3.892,0,0,0,3.4-4.444l-2.019-13.424a3.892,3.892,0,0,0-3.85-3.32H152.152a3.882,3.882,0,0,0-3.861,3.809Z" transform="translate(-136.751 -389.636)" fill="#fff"/>
              <path id="Trazado_110828" data-name="Trazado 110828" d="M189.579,433.286l13.684,1.447a3.122,3.122,0,0,0,3.4-3.288l-3.007-40.668c-5.744-.177-11.447-.312-16.858-.406v39.857a3.122,3.122,0,0,0,2.779,3.06Z" transform="translate(-135.184 -390.17)" fill="#fff" opacity="0.37"/>
              <path id="Trazado_110829" data-name="Trazado 110829" d="M194.942,426.236a1.374,1.374,0,0,0,1.374,1.29h.073a1.384,1.384,0,0,0,1.3-1.457l-2.081-35.517-2.768-.062Z" transform="translate(-134.939 -390.165)" fill="#fff"/>
              <g id="Grupo_55045" data-name="Grupo 55045" transform="translate(15.121 17.95)">
                <path id="Trazado_110830" data-name="Trazado 110830" d="M155.616,419.953a.468.468,0,0,1-.458-.437l-.708-11.187a.458.458,0,0,1,.437-.479.437.437,0,0,1,.479.427l.7,11.177a.458.458,0,0,1-.427.489Z" transform="translate(-151.619 -407.409)" fill="#12263f"/>
                <path id="Trazado_110831" data-name="Trazado 110831" d="M157.033,419.963a.458.458,0,0,1-.458-.448l-.375-11.447a.458.458,0,0,1,.447-.468.427.427,0,0,1,.468.448l.375,11.4a.468.468,0,0,1-.447.479Z" transform="translate(-151.548 -407.419)" fill="#12263f"/>
                <path id="Trazado_110832" data-name="Trazado 110832" d="M158.9,419.96a.468.468,0,0,1-.458-.437c-.094-1.873-.541-11.239-.541-11.447a.468.468,0,0,1,.926,0c0,.25.343,7.545.531,11.385a.468.468,0,0,1-.437.479Zm-.073-11.863Z" transform="translate(-151.479 -407.416)" fill="#12263f"/>
                <path id="Trazado_110833" data-name="Trazado 110833" d="M161.848,420.428a.916.916,0,0,1-.916-.885c-.385-11.052-.323-11.3-.281-11.447a.916.916,0,0,1,1.134-.635.905.905,0,0,1,.666,1.041c0,.666.177,7.1.312,11.031a.916.916,0,0,1-.885.957Z" transform="translate(-151.369 -407.426)" fill="#12263f"/>
                <path id="Trazado_110834" data-name="Trazado 110834" d="M163.728,419.953a.458.458,0,0,1-.458-.458V408.308a.447.447,0,0,1,.458-.458.458.458,0,0,1,.458.458v11.145a.458.458,0,0,1-.458.5Z" transform="translate(-151.261 -407.409)" fill="#12263f"/>
                <path id="Trazado_110835" data-name="Trazado 110835" d="M165.289,419.954a.458.458,0,0,1-.458-.447c-.083-3.892-.291-10.24-.479-11a.468.468,0,0,1,0-.479.458.458,0,0,1,.635-.135c.25.166.489.323.739,11.593a.458.458,0,0,1-.447.468Z" transform="translate(-151.22 -407.41)" fill="#12263f"/>
                <path id="Trazado_110836" data-name="Trazado 110836" d="M153.26,420.988a.926.926,0,0,1-.916-.874l-.614-11.749a.926.926,0,0,1,1.842-.094l.6,11.749a.905.905,0,0,1-.864.957Z" transform="translate(-151.73 -407.424)" fill="#12263f"/>
              </g>
            </g>
          </g>
          <g id="Grupo_55059" data-name="Grupo 55059" transform="translate(55.216 98.635)">
            <g id="Grupo_55052" data-name="Grupo 55052" transform="translate(18.131 71.424)">
              <g id="Grupo_55051" data-name="Grupo 55051" transform="translate(1.466 1.811)">
                <g id="Grupo_55048" data-name="Grupo 55048" transform="translate(169.797 70.144)">
                  <path id="Trazado_110837" data-name="Trazado 110837" d="M291.355,295.836a2.3,2.3,0,0,1-1.571-.624l-3.372-3.174a2.289,2.289,0,1,1,3.122-3.34l3.372,3.122a2.3,2.3,0,0,1-1.571,3.975Z" transform="translate(-285.594 -287.994)" fill="#fff"/>
                  <path id="Trazado_110838" data-name="Trazado 110838" d="M324.529,327.034a2.3,2.3,0,0,1-1.571-.624l-9.21-8.689a2.289,2.289,0,1,1,3.122-3.34l9.241,8.689a2.3,2.3,0,0,1-1.582,3.965Zm-18.471-17.379a2.3,2.3,0,0,1-1.571-.624l-9.241-8.689a2.289,2.289,0,0,1,3.122-3.34l9.241,8.689a2.289,2.289,0,0,1-1.571,3.965Z" transform="translate(-285.227 -287.65)" fill="#fff"/>
                  <path id="Trazado_110839" data-name="Trazado 110839" d="M332.454,340.171a2.445,2.445,0,0,1-.666-.094,2.289,2.289,0,0,1-1.53-2.862l.926-3.07-2.341-2.2a2.3,2.3,0,0,1,3.122-3.351l3.382,3.174a2.3,2.3,0,0,1,.624,2.341l-1.342,4.433a2.289,2.289,0,0,1-2.175,1.623Z" transform="translate(-283.859 -286.363)" fill="#fff"/>
                  <path id="Trazado_110840" data-name="Trazado 110840" d="M326.4,360.152a2.443,2.443,0,0,1-.666-.094,2.31,2.31,0,0,1-1.53-2.862l3.819-12.623a2.295,2.295,0,0,1,4.392,1.332L328.6,358.518a2.29,2.29,0,0,1-2.2,1.634Z" transform="translate(-284.028 -285.761)" fill="#fff"/>
                </g>
                <g id="Grupo_55049" data-name="Grupo 55049" transform="translate(96.526)">
                  <path id="Trazado_110841" data-name="Trazado 110841" d="M217.49,274.466a2.3,2.3,0,0,1-2.3-2.289v-4.631a2.3,2.3,0,1,1,4.589,0v4.631A2.3,2.3,0,0,1,217.49,274.466Z" transform="translate(-215.185 -218.781)" fill="#fff"/>
                  <path id="Trazado_110842" data-name="Trazado 110842" d="M217.49,262.965a2.3,2.3,0,0,1-2.3-2.289V247.459a2.3,2.3,0,1,1,4.589,0v13.216A2.3,2.3,0,0,1,217.49,262.965Zm0-26.432a2.289,2.289,0,0,1-2.3-2.289V231.5a2.3,2.3,0,1,1,4.589,0V234.2a2.289,2.289,0,0,1-2.289,2.331Z" transform="translate(-215.185 -220.246)" fill="#fff"/>
                  <path id="Trazado_110843" data-name="Trazado 110843" d="M217.49,229.96a2.3,2.3,0,0,1-2.3-2.3v-4.631a2.289,2.289,0,0,1,2.289-2.289h4.641a2.3,2.3,0,0,1,0,4.589h-2.341v2.341a2.3,2.3,0,0,1-2.289,2.289Z" transform="translate(-215.185 -220.584)" fill="#fff"/>
                  <path id="Trazado_110844" data-name="Trazado 110844" d="M230.906,225.309a2.3,2.3,0,1,1,0-4.589h14.767a2.3,2.3,0,1,1,0,4.589Zm29.565,0a2.3,2.3,0,0,1,0-4.589h14.788a2.3,2.3,0,0,1,0,4.589Zm29.565,0a2.3,2.3,0,0,1,0-4.589h14.788a2.3,2.3,0,0,1,0,4.589Z" transform="translate(-214.646 -220.585)" fill="#fff"/>
                  <path id="Trazado_110845" data-name="Trazado 110845" d="M320.5,225.179a2.3,2.3,0,0,1,0-4.589h4.631a2.3,2.3,0,0,1,0,4.589h-4.641Z" transform="translate(-210.992 -220.59)" fill="#fff"/>
                </g>
                <g id="Grupo_55050" data-name="Grupo 55050" transform="translate(0 65.555)">
                  <path id="Trazado_110846" data-name="Trazado 110846" d="M129.2,288.179h-4.631a2.3,2.3,0,0,1,0-4.589H129.2a2.3,2.3,0,1,1,0,4.589Z" transform="translate(-122.428 -283.585)" fill="url(#linear-gradient-5)"/>
                  <path id="Trazado_110847" data-name="Trazado 110847" d="M165.192,288.179h-2.674a2.3,2.3,0,0,1,0-4.589h2.674a2.3,2.3,0,0,1,0,4.589Zm-15.516,0H136.814a2.3,2.3,0,0,1,0-4.589h12.852a2.3,2.3,0,0,1,0,4.589Z" transform="translate(-121.931 -283.585)" fill="url(#linear-gradient-6)"/>
                  <path id="Trazado_110848" data-name="Trazado 110848" d="M175.758,291.572a2.258,2.258,0,0,1-1.675-.728l-2.477-2.664h-3.642a2.3,2.3,0,0,1,0-4.589h4.631a2.29,2.29,0,0,1,1.686.728l3.122,3.393a2.289,2.289,0,0,1-.114,3.236,2.248,2.248,0,0,1-1.53.624Z" transform="translate(-120.665 -283.585)" fill="url(#linear-gradient-7)"/>
                  <path id="Trazado_110849" data-name="Trazado 110849" d="M246.531,367.7a2.269,2.269,0,0,1-1.644-.7c-.687-.708-1.384-1.332-2.081-1.936a19.6,19.6,0,0,1-3.393-3.611c-.905-1.207-1.8-2.248-2.747-3.351l-.77-.905a2.292,2.292,0,0,1,3.5-2.966l.76.885c.968,1.124,1.967,2.289,2.966,3.632a.906.906,0,0,1,.073.1,15.88,15.88,0,0,0,2.685,2.8c.7.624,1.478,1.332,2.279,2.154a2.3,2.3,0,0,1-1.644,3.892ZM228.175,348.03a2.331,2.331,0,0,1-1.665-.708c-2.955-3.122-5.838-6.244-8.627-9.293l-.781-.864a2.3,2.3,0,1,1,3.382-3.122l.78.864c2.779,3.039,5.64,6.171,8.564,9.22a2.3,2.3,0,0,1-1.655,3.882ZM209.36,327.842a2.29,2.29,0,0,1-1.644-.7c-2-2.081-3.861-3.892-5.713-5.64l-.114-.114-3.84-4.163a2.3,2.3,0,0,1,3.372-3.122c1.249,1.353,2.508,2.726,3.788,4.1,1.884,1.78,3.778,3.653,5.8,5.734a2.3,2.3,0,0,1-1.644,3.892Zm-18.908-20.053a2.269,2.269,0,0,1-1.7-.749c-3.174-3.476-6.244-6.827-9.272-10.24a2.292,2.292,0,1,1,3.413-3.06c3.059,3.393,6.077,6.733,9.251,10.219a2.289,2.289,0,0,1-1.7,3.83Z" transform="translate(-120.133 -283.203)" fill="url(#linear-gradient-8)"/>
                  <path id="Trazado_110850" data-name="Trazado 110850" d="M404.32,373.14a2.321,2.321,0,0,1-1.041-.239,24.242,24.242,0,0,0-2.966-.25,2.3,2.3,0,1,1,.239-4.589c3.882.208,4.672.447,5.38,1.176a2.3,2.3,0,0,1-1.644,3.9ZM403.436,372.932ZM402.686,372.442Zm0,0Zm-112.65.52a2.3,2.3,0,0,1,0-4.589c4.34,0,8.97,0,13.8-.073h0a2.3,2.3,0,0,1,0,4.589c-4.829,0-9.47.062-13.809.073Zm-13.8,0h0c-6.587,0-11.135-.125-13.913-.291a2.293,2.293,0,0,1,.26-4.579c2.7.156,7.17.25,13.674.281a2.3,2.3,0,0,1,0,4.589Zm41.407-.187a2.3,2.3,0,0,1,0-4.589l13.809-.125h0a2.3,2.3,0,0,1,0,4.589Zm27.619-.25a2.3,2.3,0,0,1,0-4.589l13.809-.114h0a2.3,2.3,0,0,1,0,4.589l-13.8.114Zm41.407-.166H372.914a2.3,2.3,0,0,1,0-4.589h13.83a2.3,2.3,0,0,1,0,4.589Z" transform="translate(-116.831 -280.163)" fill="url(#linear-gradient-9)"/>
                </g>
              </g>
              <circle id="Elipse_4425" data-name="Elipse 4425" cx="5.932" cy="5.932" r="5.932" transform="translate(0 62.522)" fill="#fff"/>
              <circle id="Elipse_4426" data-name="Elipse 4426" cx="5.932" cy="5.932" r="5.932" transform="translate(94.938 50.939)" fill="#fff"/>
              <circle id="Elipse_4427" data-name="Elipse 4427" cx="5.932" cy="5.932" r="5.932" transform="translate(94.938)" fill="#fff"/>
              <circle id="Elipse_4428" data-name="Elipse 4428" cx="5.932" cy="5.932" r="5.932" transform="translate(167.887 68.308)" fill="#fff"/>
              <circle id="Elipse_4429" data-name="Elipse 4429" cx="5.932" cy="5.932" r="5.932" transform="translate(130.83 152.829)" fill="#fff"/>
              <path id="Trazado_110851" data-name="Trazado 110851" d="M289.212,292.95a2.466,2.466,0,0,1-.541-.062l-14.278-3.434A2.289,2.289,0,1,1,275.434,285l14.278,3.424a2.3,2.3,0,0,1-.531,4.527Zm-28.555-6.858a2.465,2.465,0,0,1-.541-.062L245.838,282.6a2.3,2.3,0,0,1,1.041-4.464l14.278,3.434a2.3,2.3,0,0,1-.531,4.527ZM232.1,279.224a2.463,2.463,0,0,1-.541-.062l-14.267-3.434a2.289,2.289,0,1,1,1.041-4.454l14.34,3.424a2.3,2.3,0,0,1-.531,4.527Z" transform="translate(-117.183 -216.723)" fill="#fff"/>
            </g>
            <g id="Grupo_55054" data-name="Grupo 55054" transform="translate(0 58.348)">
              <g id="Grupo_55053" data-name="Grupo 55053" transform="translate(0.639 0.443)">
                <circle id="Elipse_4430" data-name="Elipse 4430" cx="22.01" cy="22.01" r="22.01" transform="translate(0.04)" fill="#f25585"/>
                <path id="Trazado_110852" data-name="Trazado 110852" d="M148.229,226.73H104.252S102.5,238.947,122.14,272.4a4.818,4.818,0,0,0,8.242,0C150.019,238.958,148.229,226.73,148.229,226.73Z" transform="translate(-104.212 -205.896)" fill="#f25585"/>
              </g>
              <path id="Trazado_110853" data-name="Trazado 110853" d="M126.276,276.273v.125h0a5.463,5.463,0,0,1-4.672-2.7c-11.447-19.554-15.682-31.917-17.191-38.837a22.072,22.072,0,0,1-.749-4.756,11.031,11.031,0,0,1,0-2.393v-.354a22.644,22.644,0,0,1,45.2.229v1.29a22.571,22.571,0,0,1-.905,6.358c-1.561,6.92-5.8,19.158-17.077,38.389a5.339,5.339,0,0,1-4.6,2.643Zm-21.4-47.724c0,.333,0,.8.062,1.509h0a20.876,20.876,0,0,0,.718,4.485h0c1.478,6.827,5.64,19.044,17.046,38.5a4.163,4.163,0,0,0,3.559,2.029h0A4.319,4.319,0,0,0,129.835,273c11.218-19.1,15.4-31.219,16.931-38.056h0a21.3,21.3,0,0,0,.739-6.025l-.125-.094h0a8.488,8.488,0,0,1,.094-1.041h.062a21.344,21.344,0,0,0-42.614.229v.645Z" transform="translate(-103.597 -206.284)" fill="#fff" opacity="0.8"/>
              <circle id="Elipse_4431" data-name="Elipse 4431" cx="12.706" cy="12.706" r="12.706" transform="translate(10.055 9.673)" fill="#fff"/>
              <path id="Trazado_110854" data-name="Trazado 110854" d="M125.995,241.739a13.424,13.424,0,1,1,13.414-13.424,13.424,13.424,0,0,1-13.414,13.424Zm0-25.423a12,12,0,1,0,12,12,12,12,0,0,0-12-12Z" transform="translate(-103.233 -205.935)" fill="url(#linear-gradient-10)"/>
            </g>
            <g id="Grupo_55056" data-name="Grupo 55056" transform="translate(125.814 144.311)">
              <g id="Grupo_55055" data-name="Grupo 55055" transform="translate(0 0)">
                <circle id="Elipse_4432" data-name="Elipse 4432" cx="22.01" cy="22.01" r="22.01" transform="translate(0 42.842) rotate(-76.72)" fill="#f25585"/>
                <path id="Trazado_110855" data-name="Trazado 110855" d="M272.779,313.22H228.8s-1.748,12.259,17.9,45.663a4.8,4.8,0,0,0,8.231,0C274.559,325.479,272.779,313.22,272.779,313.22Z" transform="translate(-224.324 -287.901)" fill="#f25585"/>
              </g>
              <path id="Trazado_110856" data-name="Trazado 110856" d="M250.826,362.731v.125h0a5.453,5.453,0,0,1-4.662-2.7c-11.447-19.554-15.682-31.917-17.191-38.837a22.092,22.092,0,0,1-.76-4.756,11.032,11.032,0,0,1,0-2.393l.062-.354a22.644,22.644,0,0,1,45.185.219,9.19,9.19,0,0,1,0,1.218v.083a22.573,22.573,0,0,1-.905,6.358c-1.561,6.92-5.8,19.158-17.077,38.389a5.338,5.338,0,0,1-4.652,2.643Zm-21.4-47.724a12.812,12.812,0,0,0,.062,1.509h0a20.345,20.345,0,0,0,.718,4.485h0c1.488,6.827,5.651,19.033,17.056,38.5a4.163,4.163,0,0,0,3.559,2.029h0a4.339,4.339,0,0,0,3.569-2.081c11.208-19.1,15.4-31.219,16.931-38.067h0a21.3,21.3,0,0,0,.739-6.025l-.135-.094h0a7.476,7.476,0,0,1,.1-1.041h.062a21.344,21.344,0,0,0-42.666.219v.562Z" transform="translate(-224.349 -288.731)" fill="#fff" opacity="0.8"/>
              <circle id="Elipse_4433" data-name="Elipse 4433" cx="12.706" cy="12.706" r="12.706" transform="matrix(0.957, -0.29, 0.29, 0.957, 10.692, 17.976)" fill="#fff"/>
              <path id="Trazado_110857" data-name="Trazado 110857" d="M250.525,328.229A13.424,13.424,0,1,1,263.939,314.8a13.424,13.424,0,0,1-13.414,13.424Zm0-25.423a12,12,0,1,0,11.988,12A12,12,0,0,0,250.525,302.806Z" transform="translate(-223.986 -288.383)" fill="url(#linear-gradient-11)"/>
            </g>
            <g id="Grupo_55058" data-name="Grupo 55058" transform="translate(208.076)">
              <g id="Grupo_55057" data-name="Grupo 55057" transform="translate(0.649 0.369)">
                <circle id="Elipse_4434" data-name="Elipse 4434" cx="22.01" cy="22.01" r="22.01" transform="translate(0.03)" fill="#f25585"/>
                <path id="Trazado_110858" data-name="Trazado 110858" d="M348.179,170.58H304.212S302.453,182.8,322.1,216.254a4.808,4.808,0,0,0,8.231,0C349.969,182.808,348.179,170.58,348.179,170.58Z" transform="translate(-304.171 -149.757)" fill="#f25585"/>
              </g>
              <path id="Trazado_110859" data-name="Trazado 110859" d="M326.226,220.131v.125h0a5.432,5.432,0,0,1-4.662-2.7c-11.447-19.554-15.693-31.917-17.2-38.837a22.071,22.071,0,0,1-.749-4.756,11.03,11.03,0,0,1,0-2.393l.062-.354a22.644,22.644,0,0,1,45.185.219,10.091,10.091,0,0,1,0,1.218v.083a22.624,22.624,0,0,1-.905,6.358c-1.561,6.91-5.786,19.158-17.077,38.389a5.328,5.328,0,0,1-4.652,2.643Zm-21.4-47.724c0,.323,0,.8.062,1.509h0a21.084,21.084,0,0,0,.718,4.485h0c1.488,6.827,5.651,19.033,17.046,38.5a4.163,4.163,0,0,0,3.569,2.029h0a4.339,4.339,0,0,0,3.569-2.081c11.218-19.106,15.4-31.219,16.942-38.067h0a21.227,21.227,0,0,0,.728-6.015l-.125-.094h0a9.025,9.025,0,0,1,.094-1.041h.062a21.344,21.344,0,0,0-42.666.219v.552Z" transform="translate(-303.547 -150.215)" fill="#fff" opacity="0.8"/>
              <circle id="Elipse_4435" data-name="Elipse 4435" cx="12.706" cy="12.706" r="12.706" transform="matrix(0.957, -0.29, 0.29, 0.957, 6.912, 13.862)" fill="#fff"/>
              <path id="Trazado_110860" data-name="Trazado 110860" d="M325.944,185.588a13.414,13.414,0,1,1,13.414-13.414,13.414,13.414,0,0,1-13.414,13.414Zm0-25.412a12.009,12.009,0,1,0,8.515,3.5,12,12,0,0,0-8.515-3.5Z" transform="translate(-303.182 -149.868)" fill="url(#linear-gradient-12)"/>
            </g>
          </g>
          <g id="Grupo_55063" data-name="Grupo 55063" transform="translate(269.862 179.436)">
            <path id="Trazado_110861" data-name="Trazado 110861" d="M385.829,454.55c4.693.406,12.852,1.041,19.273,1.353,3.871.166,6.088-.208,7.378-.718v.406a1.332,1.332,0,0,1-1.259,1.259,226.116,226.116,0,0,1-25.246,0,.947.947,0,0,1-.77-1.426A8.019,8.019,0,0,1,385.829,454.55Z" transform="translate(-306.803 -218.648)" fill="#7d97f4"/>
            <path id="Trazado_110862" data-name="Trazado 110862" d="M405.073,456.273c-6.421-.281-14.569-.947-19.273-1.353,4.61-5.661,19.273-9.48,19.273-9.48h4.163a17.348,17.348,0,0,1,3.236,10.115C411.16,456.065,408.9,456.429,405.073,456.273Z" transform="translate(-306.774 -219.018)" fill="#12263f"/>
            <path id="Trazado_110863" data-name="Trazado 110863" d="M409.3,438.94l-.385,7.67a1.748,1.748,0,0,1-1.5,1.644A6.8,6.8,0,0,1,404.3,448a2.081,2.081,0,0,1-1.384-1.592l-1.342-7.472Z" transform="translate(-306.133 -219.282)" fill="#6c58b8"/>
            <g id="Grupo_55060" data-name="Grupo 55060" transform="translate(139.118 222.019)">
              <path id="Trazado_110864" data-name="Trazado 110864" d="M455.426,463.175a4.027,4.027,0,0,0,3.351-3.195h0a3.642,3.642,0,0,1-1.79,3.9,9.365,9.365,0,0,1-4.943,1.041,4.558,4.558,0,0,1-3.694-2.206h0C449.88,463.674,452.034,463.789,455.426,463.175Z" transform="translate(-443.35 -440.446)" fill="#7d97f4"/>
              <path id="Trazado_110865" data-name="Trazado 110865" d="M446.017,441.21h3.424c5.2-.135,8.46,14.049,9.532,19.533a4.027,4.027,0,0,1-3.351,3.195c-3.393.614-5.547.5-7.087-.479-2.81-4.777-4.163-11.78-4.87-15.87C442.9,442.948,446.017,441.21,446.017,441.21Z" transform="translate(-443.545 -441.209)" fill="#12263f"/>
            </g>
            <path id="Trazado_110866" data-name="Trazado 110866" d="M449.064,434.37l1.9,7.545a2.081,2.081,0,0,1-1.041,2.321,7.284,7.284,0,0,1-3.923.947,1.7,1.7,0,0,1-1.394-1.134l-2.82-7.982Z" transform="translate(-304.498 -219.468)" fill="#6c58b8"/>
            <path id="Trazado_110867" data-name="Trazado 110867" d="M384.68,339s16.952,105.927,16.65,106.51a14.122,14.122,0,0,0,9.782.271s-1.53-56.621-5.12-78.34c0,0,28.919,50.617,38.1,75.832a22.956,22.956,0,0,0,8.762-3.184s-31.147-91.1-39.451-103.221Z" transform="translate(-306.819 -223.43)" fill="#12263f"/>
            <path id="Trazado_110868" data-name="Trazado 110868" d="M404.979,366.191a.489.489,0,0,0,.416-.76l-6.327-10.115a.52.52,0,0,0-.323-.229l-4.662-.937a.51.51,0,0,0-.593.4.5.5,0,0,0,.4.583l4.443.895,6.244,9.938a.51.51,0,0,0,.406.229Z" transform="translate(-306.462 -222.728)" fill="#6c58b8"/>
            <path id="Trazado_110869" data-name="Trazado 110869" d="M310.006,239.25s11.447,2.518,18.388,5.734a6.306,6.306,0,0,1,3.122,3.122c2.081,4.558,8.325,15.984,20.376,21.437-1.738,2.31-4.537,7.108-5.765,15.173-7.285-5.4-13.528-14.4-16.5-29.138a5.911,5.911,0,0,1-5.141-.146,51.16,51.16,0,0,1-4.558-2.591,5.994,5.994,0,0,1-2.654-3.549,21.032,21.032,0,0,1-.2-5.515l-5.88-1.821a2.081,2.081,0,0,1-1.186-2.706Z" transform="translate(-309.86 -227.398)" fill="#fcd4e0"/>
            <path id="Trazado_110870" data-name="Trazado 110870" d="M344.66,283.563c1.228-8.065,4.027-12.862,5.765-15.173,7.493,3.393,17.243,4.475,29.669.167a13.248,13.248,0,0,1,3.549-.7c6.608-.385,28.4-1.093,46.423,4.86a14.007,14.007,0,0,1,8.45,7.69c4.881,11.2,12.769,36.683-9.147,49.545a55.15,55.15,0,0,0-5.266-10.011c3.528-5.952,4.568-14.08-1.7-24.674-4.548,12.29-6.723,30.324-7.17,38.306a16.984,16.984,0,0,0,1.342,7.659l.1.26a.905.905,0,0,1-.635,1.238c-12.342,2.768-25.173,2.019-29,1.707a1.6,1.6,0,0,1-1.415-1.207c-5.994-25.288-6.015-42.531-4.537-53.437C375.473,291.045,358.313,293.72,344.66,283.563Z" transform="translate(-308.446 -226.245)" fill="url(#linear-gradient-13)"/>
            <path id="Trazado_110871" data-name="Trazado 110871" d="M379.66,290.226a.51.51,0,0,0,.5-.437c1.4-10.646,4.277-15.3,4.308-15.339a.5.5,0,1,0-.853-.531c-.115.187-3.008,4.839-4.454,15.734a.5.5,0,0,0,.437.562Z" transform="translate(-307.044 -225.999)" fill="url(#linear-gradient-14)"/>
            <path id="Trazado_110872" data-name="Trazado 110872" d="M409.381,253.7s1.249,13.2,2.352,17.1a1.342,1.342,0,0,1-.635,1.53c-1.863,1.041-6.337,2.8-12.488-.2a2.789,2.789,0,0,1-1.54-2.612l.541-12.758Z" transform="translate(-306.316 -226.811)" fill="#fcd4e0"/>
            <g id="Grupo_55061" data-name="Grupo 55061" transform="translate(85.893)">
              <path id="Trazado_110873" data-name="Trazado 110873" d="M397.536,237.47s-4,9.168-4.256,13.986-1.311,7.94,4.256,8.908,10.261-1.8,12.8-6.6c0,0,3.975-7.389,3.122-10.406S397.536,237.47,397.536,237.47Z" transform="translate(-392.373 -227.47)" fill="#fcd4e0"/>
              <path id="Trazado_110874" data-name="Trazado 110874" d="M408.457,250.712l-.323-.146a.76.76,0,0,1-.364-1.041c.781-1.509,2.31-4.985.333-5.8-2.55-1.041-12.633-3.122-14.819-6.691a6.65,6.65,0,0,1,2.55-9.137.375.375,0,0,1,.5.156l.239.437a.375.375,0,0,0,.7-.062h0a.375.375,0,0,1,.676-.1c.676,1.041,2.477,2.81,7.285,3.7,6.868,1.27,11.447,4.048,11.52,8.783a.385.385,0,0,0,.593.312c.5-.3,1.311-.447,2.4.458,1.883,1.592,1.113,5.7-3.028,9.085a.375.375,0,0,0,0,.6c.749.489,1.863,1.655-1.041,3.205a9.751,9.751,0,0,1-6,1.311.364.364,0,0,1-.3-.458l.916-4.163a.375.375,0,0,0-.375-.458Z" transform="translate(-392.399 -227.861)" fill="#12263f"/>
              <path id="Trazado_110875" data-name="Trazado 110875" d="M407.66,250.835s1.53-5.859,4.163-4.163-1.363,6.566-3.476,6.785Z" transform="translate(-391.779 -227.109)" fill="#fcd4e0"/>
            </g>
            <path id="Trazado_110876" data-name="Trazado 110876" d="M326.155,253.953a.52.52,0,0,0,.312-.114.5.5,0,0,0,.073-.708c-.437-.531-4.267-5.2-5.744-6.057-.541-.3-.864-.614-.926-.905a.707.707,0,0,1,.062-.468l4.506.905,2.56,2.185a.51.51,0,0,0,.708,0,.5.5,0,0,0-.062-.708l-2.654-2.279a.427.427,0,0,0-.219-.1l-5-1.041a.489.489,0,0,0-.51.208,1.873,1.873,0,0,0-.375,1.54,2.6,2.6,0,0,0,1.4,1.551c1.113.624,4.329,4.412,5.463,5.817A.51.51,0,0,0,326.155,253.953Z" transform="translate(-309.495 -227.178)" fill="#f8a570"/>
            <path id="Trazado_110877" data-name="Trazado 110877" d="M408.541,334.259l-17.691.219,6.181-5.817a4.61,4.61,0,0,1,5.651-.531,13.708,13.708,0,0,1,3.122,2.8s11.01-4.027,16.349-13.029a55.151,55.151,0,0,1,5.286,10.011C422.7,330.721,416.5,332.927,408.541,334.259Z" transform="translate(-306.569 -224.201)" fill="#fcd4e0"/>
            <g id="Grupo_55062" data-name="Grupo 55062" transform="translate(11.932 72.084)">
              <path id="Trazado_110878" data-name="Trazado 110878" d="M407.835,335.957h-.1l-44.748-.052a1.988,1.988,0,1,1,0-3.965h44.8a1.988,1.988,0,0,1,.094,3.965Z" transform="translate(-319.72 -295.715)" fill="#12263f"/>
              <path id="Trazado_110879" data-name="Trazado 110879" d="M324.3,297.13h37.276A7.118,7.118,0,0,1,368,301.168l17.243,36.183H338.917a4.319,4.319,0,0,1-4.017-2.706l-13.372-33.488a2.955,2.955,0,0,1,2.768-4.027Z" transform="translate(-321.327 -297.13)" fill="#12263f"/>
              <ellipse id="Elipse_4436" data-name="Elipse 4436" cx="2.935" cy="4.735" rx="2.935" ry="4.735" transform="translate(22.174 15.889) rotate(-18.24)" fill="#7d97f4"/>
            </g>
          </g>
        </g>
      </g>
    </g>
  </g>
</svg>
