<svg xmlns="http://www.w3.org/2000/svg" width="295" height="549" viewBox="0 0 295 549">
  <g id="Grupo_56928" data-name="Grupo 56928" transform="translate(-810 -5900.705)">
    <rect id="Rect치ngulo_6715" data-name="Rect치ngulo 6715" width="295" height="549" rx="13" transform="translate(810 5900.705)" fill="#faede0"/>
    <g id="CF1_tarejta_3_copia" data-name="CF1_tarejta 3 copia" transform="translate(810 5857.986)">
      <rect id="Rect치ngulo_6709" data-name="Rect치ngulo 6709" width="295" height="19.08" transform="translate(0 572.4)" fill="#472ea6"/>
      <g id="Grupo_56371" data-name="Grupo 56371">
        <path id="Trazado_115856" data-name="Trazado 115856" d="M73.06,521a50.61,50.61,0,0,1,62.49-49.19,74,74,0,0,0,34.77,0,50.61,50.61,0,1,1,0,98.39,74,74,0,0,0-34.77,0A50.61,50.61,0,0,1,73.06,521Z" fill="#febc7c"/>
        <g id="Grupo_56369" data-name="Grupo 56369" opacity="0.32">
          <path id="Trazado_115857" data-name="Trazado 115857" d="M131.73,521a50.62,50.62,0,0,1,39-49.29l-.44.1a74,74,0,0,1-34.77,0,50.61,50.61,0,1,0,0,98.39,74,74,0,0,1,34.77,0l.44.1a50.63,50.63,0,0,1-39-49.3Z" fill="#fda551"/>
        </g>
        <ellipse id="Elipse_4508" data-name="Elipse 4508" cx="45" cy="28.93" rx="45" ry="28.93" transform="translate(107.93 492.1)" fill="#fda551"/>
        <path id="Trazado_115858" data-name="Trazado 115858" d="M135,541.81a5.76,5.76,0,0,1-3.6-5.41V536a20.11,20.11,0,0,0-40.22,0v.13a5.81,5.81,0,0,1-3.74,5.48,22.6,22.6,0,1,0,20.48,40,5.66,5.66,0,0,1,6.15,0A22.61,22.61,0,1,0,135,541.81Z" fill="#eaf5fb"/>
        <path id="Trazado_115859" data-name="Trazado 115859" d="M94.15,562.72a22.6,22.6,0,0,1,14.524-21.111,5.74,5.74,0,0,0,3.656-5.439V536a20.092,20.092,0,0,1,9.574-17.122A20.11,20.11,0,0,0,91.24,536v.13a5.8,5.8,0,0,1-3.74,5.48,22.6,22.6,0,1,0,18.7,41.07,22.61,22.61,0,0,1-12.05-19.96Z" fill="#cceafb"/>
        <circle id="Elipse_4509" data-name="Elipse 4509" cx="19.46" cy="19.46" r="19.46" transform="translate(193.86 456.75)" fill="#eaf5fb"/>
        <path id="Trazado_115860" data-name="Trazado 115860" d="M208.78,475a19.45,19.45,0,0,1,10.85-17.23,19.16,19.16,0,0,0-6.08-1.05,19.46,19.46,0,1,0,8.39,36.91A19.48,19.48,0,0,1,208.78,475Z" fill="#cceafb"/>
        <circle id="Elipse_4510" data-name="Elipse 4510" cx="11.46" cy="11.46" r="11.46" transform="translate(79.35 474.29)" fill="#eaf5fb"/>
        <path id="Trazado_115861" data-name="Trazado 115861" d="M88.13,485.05a11.44,11.44,0,0,1,6.39-10.14,11.22,11.22,0,0,0-3.58-.62A11.46,11.46,0,1,0,95.88,496a11.46,11.46,0,0,1-7.75-10.95Z" fill="#cceafb"/>
        <g id="Grupo_56370" data-name="Grupo 56370">
          <path id="Trazado_115862" data-name="Trazado 115862" d="M127.22,506.37v4.47a2.41,2.41,0,0,0,4.82,0v-4.47a2.41,2.41,0,1,0-4.82,0Z" fill="#12263f"/>
          <path id="Trazado_115863" data-name="Trazado 115863" d="M173.82,506.37v4.47a2.41,2.41,0,0,0,4.82,0v-4.47a2.41,2.41,0,1,0-4.82,0Z" fill="#12263f"/>
          <path id="Trazado_115864" data-name="Trazado 115864" d="M157.26,509.13a5.73,5.73,0,0,1-8.65,0A2.41,2.41,0,1,0,145,512.3a10.56,10.56,0,0,0,15.92,0,2.41,2.41,0,1,0-3.63-3.17Z" fill="#12263f"/>
        </g>
      </g>
    </g>
  </g>
</svg>
