<svg xmlns="http://www.w3.org/2000/svg" width="295" height="612.648" viewBox="0 0 295 612.648">
  <g id="Grupo_54993" data-name="Grupo 54993" transform="translate(-495 -5658)">
    <g id="Grupo_54327" data-name="Grupo 54327" transform="translate(-490.317 5723.29)">
      <rect id="Rectángulo_5206" data-name="Rectángulo 5206" width="295" height="512.649" transform="translate(985.318 34.711)" fill="none"/>
      <g id="Grupo_54222" data-name="Grupo 54222">
        <path id="Trazado_101975" data-name="Trazado 101975" d="M985.318,44.711V428.952a463.853,463.853,0,0,0,72.845,11.054c123.357,8.465,222.155-8.3,222.155-8.3v-387Z" fill="#c0b6db"/>
        <path id="Trazado_101976" data-name="Trazado 101976" d="M985.318-65.289V418.952a463.853,463.853,0,0,0,72.845,11.054c123.357,8.465,222.155-8.3,222.155-8.3v-487Z" fill="#f1eefd"/>
      </g>
    </g>
    <g id="CF1_icono_1_copia_10" data-name="CF1_icono 1 copia 10" transform="translate(567.061 6088)">
      <circle id="Elipse_4281" data-name="Elipse 4281" cx="75" cy="75" r="75" transform="translate(-0.061)" fill="#bbabf5"/>
      <path id="Trazado_106604" data-name="Trazado 106604" d="M35.593,23a1.783,1.783,0,0,1-1.783-1.783,9.423,9.423,0,0,1,9.423-9.423H61.419a1.8,1.8,0,0,1,0,3.58H43.158a5.857,5.857,0,0,0-5.842,5.842A1.783,1.783,0,0,1,35.593,23Z" transform="translate(16.558 5.872)" fill="#ffba57"/>
      <path id="Trazado_106605" data-name="Trazado 106605" d="M63.319,7.39H55.3a4.494,4.494,0,0,0-4.494,4.494v7.97L52.967,22H65.686l2.157-2.142v-7.97A4.494,4.494,0,0,0,63.349,7.39Z" transform="translate(25.024 3.681)" fill="#f4e9d3"/>
      <path id="Trazado_106606" data-name="Trazado 106606" d="M67.833,15.71H50.8v4.284l8.524,4.3,8.509-4.3Z" transform="translate(25.019 7.824)" fill="#e5d6be"/>
      <path id="Trazado_106607" data-name="Trazado 106607" d="M74.813,28.292H48.372L46.23,26.15v-2.8a4.779,4.779,0,0,1,4.764-4.779h21.2a4.764,4.764,0,0,1,4.764,4.779v2.8Z" transform="translate(22.743 9.249)" fill="#ffe27a"/>
      <path id="Trazado_106608" data-name="Trazado 106608" d="M46.23,27.929l15.37,4.3,15.355-4.3v-4.3H46.23Z" transform="translate(22.743 11.769)" fill="#f9cf58"/>
      <path id="Trazado_106609" data-name="Trazado 106609" d="M95.449,114.1H40.441c-6.951,0-6.951-7.49-6.951-7.49l7.026-73.554a7.146,7.146,0,0,1,7.131-6.472H88.184A7.146,7.146,0,0,1,95.3,33.052l7.026,73.554S102.385,114.1,95.449,114.1Z" transform="translate(16.398 13.238)" fill="#f57fa3"/>
      <path id="Trazado_106610" data-name="Trazado 106610" d="M102.456,79.92a7.161,7.161,0,0,1-6.936,5.423H40.512a7.161,7.161,0,0,1-6.951-5.423l-.18,1.873a7.161,7.161,0,0,0,7.131,7.85H95.52a7.161,7.161,0,0,0,7.116-7.85Z" transform="translate(16.327 39.804)" fill="#ff78cf"/>
      <path id="Trazado_106611" data-name="Trazado 106611" d="M76.87,60.924C76.121,49.6,69.56,40.73,61.575,40.73s-14.5,8.794-15.3,20.059c0,.749,0,21.722,15.3,21.722S76.915,61.628,76.87,60.924Z" transform="translate(22.768 20.285)" fill="#f4e9d3"/>
      <path id="Trazado_106612" data-name="Trazado 106612" d="M61.6,74.4c-8,0-14.561-8.868-15.3-20.194,0,.7-.075,1.423-.075,2.142,0,12.344,6.876,22.336,15.37,22.336S76.955,68.7,76.955,56.352V54.21C76.206,65.535,69.644,74.4,61.66,74.4Z" transform="translate(22.743 26.999)" fill="#e5d6be"/>
      <rect id="Rectángulo_5818" data-name="Rectángulo 5818" width="25.617" height="3.206" transform="translate(39.102 45.421)" fill="#959cb5"/>
      <rect id="Rectángulo_5819" data-name="Rectángulo 5819" width="6.397" height="9.602" transform="translate(32.691 51.817)" fill="#7f8499"/>
      <path id="Trazado_106613" data-name="Trazado 106613" d="M22.533,38.852h6.412a1.6,1.6,0,0,0,1.6-1.6v-6.4a1.6,1.6,0,0,0-1.6-1.6H22.533a1.6,1.6,0,0,0-1.6,1.6v6.4a1.6,1.6,0,0,0,1.6,1.6Z" transform="translate(10.143 14.568)" fill="#afb9d2"/>
      <path id="Trazado_106614" data-name="Trazado 106614" d="M47.129,35.662h-1.6a3.206,3.206,0,0,1-3.206-3.206h0a3.206,3.206,0,0,1,3.206-3.206h1.6a1.588,1.588,0,0,1,1.588,1.6v3.206a1.588,1.588,0,0,1-1.588,1.6Z" transform="translate(20.796 14.568)" fill="#afb9d2"/>
      <path id="Trazado_106615" data-name="Trazado 106615" d="M12.364,48.732a4.824,4.824,0,0,1,4.165-2.382H52.017a4.824,4.824,0,0,1,4.165,2.382c5.273,8.988,8.524,21.062,8.524,34.455s-3.251,25.467-8.524,34.455a4.839,4.839,0,0,1-4.165,2.352H16.528a4.839,4.839,0,0,1-4.165-2.367C7.076,108.743,3.84,96.549,3.84,83.172S7.076,57.66,12.364,48.732Z" transform="translate(1.631 23.084)" fill="#6c58b8"/>
      <path id="Trazado_106616" data-name="Trazado 106616" d="M51.882,116.8a3.206,3.206,0,0,0-3.206-3.206H40.033a15.939,15.939,0,0,1-15.355-11.475,92.6,92.6,0,0,1-3.221-25.347A100.609,100.609,0,0,1,25.831,46.35h-9.3a4.824,4.824,0,0,0-4.165,2.382C7.076,57.66,3.84,69.794,3.84,83.172s3.236,25.572,8.524,34.455a4.839,4.839,0,0,0,4.165,2.367H48.676a3.191,3.191,0,0,0,3.206-3.191Z" transform="translate(1.631 23.084)" fill="#472ea6"/>
      <path id="Trazado_106617" data-name="Trazado 106617" d="M35.875,39.94h-16a3.206,3.206,0,0,0-3.206,3.206v6.4H39.141v-6.4a3.206,3.206,0,0,0-3.266-3.206Z" transform="translate(8.021 19.892)" fill="#afb9d2"/>
      <path id="Trazado_106618" data-name="Trazado 106618" d="M27.875,39.94h-8a3.206,3.206,0,0,0-3.206,3.206v6.4h7.985v-6.4a3.206,3.206,0,0,1,3.221-3.206Z" transform="translate(8.021 19.892)" fill="#959cb5"/>
      <path id="Trazado_106619" data-name="Trazado 106619" d="M25.754,37.25v-6.4a1.6,1.6,0,0,1,1.6-1.6H22.533a1.6,1.6,0,0,0-1.6,1.6v6.4a1.6,1.6,0,0,0,1.6,1.6h4.809a1.6,1.6,0,0,1-1.588-1.6Z" transform="translate(10.143 14.568)" fill="#959cb5"/>
      <path id="Trazado_106620" data-name="Trazado 106620" d="M71.89,27h6.337V42.879H71.89Z" transform="translate(35.523 13.447)" fill="#e2dee2"/>
      <path id="Trazado_106621" data-name="Trazado 106621" d="M82.383,46.052H69.74V37.663a1.783,1.783,0,0,1,1.783-1.783h9.093A1.783,1.783,0,0,1,82.4,37.663Z" transform="translate(34.452 17.87)" fill="#5f99d7"/>
      <path id="Trazado_106622" data-name="Trazado 106622" d="M74,35.88V46.052h6.322V37.663a1.783,1.783,0,0,0-1.828-1.783Z" transform="translate(36.574 17.87)" fill="#3c87d0"/>
      <path id="Trazado_106623" data-name="Trazado 106623" d="M66.36,53.6V43.442A2.517,2.517,0,0,1,68.817,41h17.8a2.517,2.517,0,0,1,2.517,2.517V53.673Z" transform="translate(32.769 20.42)" fill="#fe7d43"/>
      <path id="Trazado_106624" data-name="Trazado 106624" d="M81.982,41H75.66a2.517,2.517,0,0,1,2.517,2.517V53.673H84.5V43.442A2.517,2.517,0,0,0,81.982,41Z" transform="translate(37.401 20.42)" fill="#fd6930"/>
      <path id="Trazado_106625" data-name="Trazado 106625" d="M108.047,118.386H61.608a9.468,9.468,0,0,1-9.468-9.468v-21.5a40.926,40.926,0,0,1,8.853-25.467L73.442,46.3h22.77l12.449,15.685a40.927,40.927,0,0,1,8.853,25.467v21.467A9.468,9.468,0,0,1,108.047,118.386Z" transform="translate(25.687 23.059)" fill="#fdfdfd"/>
      <path id="Trazado_106626" data-name="Trazado 106626" d="M96.11,61.985,83.662,46.3H77.34L89.774,61.985a40.941,40.941,0,0,1,8.868,25.467v21.467a9.468,9.468,0,0,1-9.468,9.468H95.5a9.468,9.468,0,0,0,9.468-9.468v-21.5A40.927,40.927,0,0,0,96.11,61.955Z" transform="translate(38.237 23.059)" fill="#abfff3"/>
      <path id="Trazado_106627" data-name="Trazado 106627" d="M117.515,79.832v21.5a9.468,9.468,0,0,1-9.468,9.468H61.608a9.468,9.468,0,0,1-9.468-9.468v-21.5a40.777,40.777,0,0,1,3.955-17.6h0c6.711-1.243,14.576-1.183,20.628,3.386,13.318,10.037,22.141,15.1,40.357,8.194a41.541,41.541,0,0,1,.434,5.992Z" transform="translate(25.687 30.649)" fill="#d5fff9"/>
      <path id="Trazado_106628" data-name="Trazado 106628" d="M100.595,69.77a57.775,57.775,0,0,1-6.082,1.962c.12,1.318.195,2.652.195,4v21.5A9.468,9.468,0,0,1,85.24,106.7h6.322a9.468,9.468,0,0,0,9.468-9.468v-21.5a41.539,41.539,0,0,0-.434-5.962Z" transform="translate(42.172 34.748)" fill="#6bd9e7"/>
      <path id="Trazado_106629" data-name="Trazado 106629" d="M95.129,25.284a.854.854,0,0,0-.854-.854H70.606a19.055,19.055,0,0,0-11.25,3.745L55.626,30.9a.839.839,0,0,0-.18,1.183l2.667,3.685a.854.854,0,0,0,1.183.18l3.73-2.741a12.883,12.883,0,0,1,7.58-2.472H94.275a.869.869,0,0,0,.854-.854v-4.6Z" transform="translate(27.249 12.167)" fill="#f3f0f3"/>
    </g>
  </g>
</svg>
