<svg xmlns="http://www.w3.org/2000/svg" width="295" height="512.649" viewBox="0 0 295 512.649">
  <g id="Grupo_55017" data-name="Grupo 55017" transform="translate(-810 -3824.676)">
    <g id="Grupo_54317" data-name="Grupo 54317" transform="translate(-175.318 3789.965)">
      <rect id="Rectángulo_5206" data-name="Rectángulo 5206" width="295" height="512.649" transform="translate(985.318 34.711)" fill="none"/>
      <g id="Grupo_54222" data-name="Grupo 54222">
        <path id="Trazado_101975" data-name="Trazado 101975" d="M985.318,44.711V428.952a463.853,463.853,0,0,0,72.845,11.054c123.357,8.465,222.155-8.3,222.155-8.3v-387Z" fill="#c0b6db"/>
        <path id="Trazado_101976" data-name="Trazado 101976" d="M985.318,34.711V418.952a463.853,463.853,0,0,0,72.845,11.054c123.357,8.465,222.155-8.3,222.155-8.3v-387Z" fill="#f1eefd"/>
      </g>
    </g>
    <g id="Grupo_54997" data-name="Grupo 54997">
      <g id="Grupo_54996" data-name="Grupo 54996">
        <g id="CF1_icono_1_copia_2" data-name="CF1_icono 1 copia 2" transform="translate(891.626 4181)">
          <ellipse id="Elipse_4290" data-name="Elipse 4290" cx="74.5" cy="75" rx="74.5" ry="75" transform="translate(0.374)" fill="#bbabf5"/>
          <path id="Trazado_106674" data-name="Trazado 106674" d="M18.147,52.624l6.846-1.9a1.828,1.828,0,0,0,.824-.464l4.03-3.895a1.933,1.933,0,0,1,1.962-.33l1.723.659a1.962,1.962,0,0,0,1.5,0l2.007-.9a1.932,1.932,0,0,1,2.547.974h0l.9,2.112a3.775,3.775,0,0,1,.315,2.157l-1.5,7.97a2.771,2.771,0,0,0,.6,2.322l2.367,2.831A9.123,9.123,0,0,1,44.3,68.488l.974,5.348a1.918,1.918,0,0,0,1.663,1.5h.734a4.689,4.689,0,0,1,2.681,1.273l5.633,5.708a3.715,3.715,0,0,0,2.022,1l6.4.989a1.947,1.947,0,0,1,1.6,2.217,1.873,1.873,0,0,1-.36.854l-1.633,2.127a1.783,1.783,0,0,0-.345.794l-.3,1.6a3.73,3.73,0,0,0,.554,2.756l3.91,5.9a1.992,1.992,0,0,0,1.2.824l.959.21a1.932,1.932,0,0,1,1.5,2.292,2.127,2.127,0,0,1-.1.33l-.929,2.2a1.977,1.977,0,0,0,.18,1.828l.824,1.228a1.917,1.917,0,0,1-.1,2.292l-1.618,2.007a1.917,1.917,0,0,0,.255,2.7,1.9,1.9,0,0,1,.689,1.5v6.292a2.786,2.786,0,0,0,1.678,2.562l.734.33a1.917,1.917,0,0,0,2.4-.764l2.457-3.955a4.644,4.644,0,0,0,.659-3l-.509-4.165a1.918,1.918,0,0,1,.839-1.828l4.734-3.221a3.775,3.775,0,0,0,1.393-1.768l1.094-2.906a7.49,7.49,0,0,1,2.577-3.4l4.06-3a4.689,4.689,0,0,0,1.932-3.73v-.539A1.932,1.932,0,0,1,95.9,93.116l3.326-1.423a1.932,1.932,0,0,0,1.034-2.5l-.345-.884a5.573,5.573,0,0,0-4.165-3.416l-4.929-.9a1.858,1.858,0,0,1-1.3-.929l-.989-1.678A3.79,3.79,0,0,0,85.9,79.6L69.769,77.012a1.887,1.887,0,0,0-1.109.15l-1.888.854a1.932,1.932,0,0,1-2.337-.584L62.054,74.3a1.917,1.917,0,0,0-1.019-.689l-2.052-.554a1.932,1.932,0,0,1-1.109-2.906l2.067-3.221a1.932,1.932,0,0,1,2.667-.584h.09l3.97,2.891a1.962,1.962,0,0,0,1.258.36h1a1.932,1.932,0,0,0,1.828-1.888v-3.94a4.629,4.629,0,0,1,.884-2.667l3.67-5.048a1.977,1.977,0,0,1,1.5-.794h3.176a6.486,6.486,0,0,0,2.5-.509l3.535-1.5a3.745,3.745,0,0,0,2.082-4.644l-1.678-5.243a5.648,5.648,0,0,0-2.187-2.876L79,37.029a3.73,3.73,0,0,0-2.921-.509l-1.258.3a1.917,1.917,0,0,0-1.5,2.127l.24,1.843a1.9,1.9,0,0,1-.989,1.932l-.554.315a1.947,1.947,0,0,1-1.813,0l-3.82-1.962a3.715,3.715,0,0,1-2.022-3.46v-.4a3.745,3.745,0,0,1,1.5-2.876l6.217-4.494a3.445,3.445,0,0,0,1.408-3,2.8,2.8,0,0,0-2.906-2.622l-9.108.33a3.505,3.505,0,0,0-3.311,2.8,1.917,1.917,0,0,1-2.277,1.5.4.4,0,0,1-.18,0l-2.082-.644a8,8,0,0,0-3.311-.345l-6.831.644a5.588,5.588,0,0,0-4.6,3.371l-.464,1.079a1.932,1.932,0,0,1-2.157,1.124l-4.359-.9a4.659,4.659,0,0,0-3.4.6l-7.49,4.629a3.745,3.745,0,0,0-1.753,3.176V43.89a1.917,1.917,0,0,1-.914,1.633L15.66,47.186a2.816,2.816,0,0,0-1.079,3.535l.18.375a2.786,2.786,0,0,0,3.3,1.5Z" transform="translate(6.648 12.062)" fill="#9182ca"/>
          <path id="Trazado_106675" data-name="Trazado 106675" d="M63.113,22.815l-.719.659a3.281,3.281,0,0,0-1.183,2.517v2.442a3.3,3.3,0,0,0,1.5,2.786l3.715,2.322a3.326,3.326,0,0,1,1.3,1.5l2.427,5.887a8.839,8.839,0,0,0,1.019,1.8l4.494,5.992a3.79,3.79,0,0,0,3.281,1.5h.3a2.786,2.786,0,0,0,2.577-3,1.5,1.5,0,0,0,0-.36l-.794-3.82a3.386,3.386,0,0,1,.345-2.262l2.831-5.108a4.6,4.6,0,0,0,.375-3.655l-.869-2.8a3.311,3.311,0,0,0-2.652-2.277l-4.494-.674a3.251,3.251,0,0,1-.749-.195l-9.378-3.775A3.236,3.236,0,0,0,63.113,22.815Z" transform="translate(29.993 10.98)" fill="#9182ca"/>
          <path id="Trazado_106676" data-name="Trazado 106676" d="M22.605,90.673h53.84a4.239,4.239,0,0,0,4.239-4.239V60.248a1.693,1.693,0,0,0-1.693-1.678H15.1Z" transform="translate(7.028 29.17)" fill="#d5fff9"/>
          <path id="Trazado_106677" data-name="Trazado 106677" d="M61.415,58.57H56.337a1.693,1.693,0,0,1,1.693,1.678V86.389a4.239,4.239,0,0,1-4.239,4.284h5.078a4.239,4.239,0,0,0,4.224-4.284V60.248A1.693,1.693,0,0,0,61.4,58.57Z" transform="translate(26.298 29.17)" fill="#abfff3"/>
          <path id="Trazado_106678" data-name="Trazado 106678" d="M79.472,109.28H30.037a3.505,3.505,0,0,1-3.431-2.711L15.251,57.208h-7.8a3.49,3.49,0,1,1,0-6.966H18.038a3.49,3.49,0,0,1,3.4,2.637l11.325,49.435H79.472a3.49,3.49,0,1,1,0,6.981Z" transform="translate(1.364 25.019)" fill="#9182ca"/>
          <path id="Trazado_106679" data-name="Trazado 106679" d="M63.848,91.94c0,4.584-2.037,8.134-6.621,8.134a8.357,8.357,0,0,1-1.618,0,8.314,8.314,0,0,1,0-16.314,9.753,9.753,0,0,1,1.618,0C61.811,83.791,63.848,87.342,63.848,91.94Z" transform="translate(23.864 41.7)" fill="#7a6d79"/>
          <path id="Trazado_106680" data-name="Trazado 106680" d="M54.993,83.66a7.97,7.97,0,0,0-1.6.165,8.314,8.314,0,0,1,0,16.3,7.967,7.967,0,0,0,1.6.165,8.314,8.314,0,1,0,0-16.628Z" transform="translate(26.098 41.666)" fill="#685e68"/>
          <circle id="Elipse_4291" data-name="Elipse 4291" cx="2.726" cy="2.726" r="2.726" transform="translate(78.365 130.914)" fill="#d5fff9"/>
          <path id="Trazado_106681" data-name="Trazado 106681" d="M30.818,91.94c0,4.584-2.037,8.134-6.621,8.134a8.358,8.358,0,0,1-1.618,0,8.314,8.314,0,0,1,0-16.314,9.753,9.753,0,0,1,1.618,0C28.781,83.791,30.818,87.342,30.818,91.94Z" transform="translate(7.414 41.7)" fill="#7a6d79"/>
          <path id="Trazado_106682" data-name="Trazado 106682" d="M21.968,83.665a8.224,8.224,0,0,0-1.618.165,8.3,8.3,0,0,1,0,16.3A8.314,8.314,0,1,0,21.968,83.65Z" transform="translate(9.643 41.661)" fill="#685e68"/>
          <circle id="Elipse_4292" data-name="Elipse 4292" cx="2.726" cy="2.726" r="2.726" transform="translate(28.885 130.914)" fill="#d5fff9"/>
          <path id="Trazado_106683" data-name="Trazado 106683" d="M58.836,67.6H30.718a1.273,1.273,0,0,1,0-2.532H58.836a1.273,1.273,0,0,1,0,2.532Z" transform="translate(14.241 32.408)" fill="#9182ca"/>
          <path id="Trazado_106684" data-name="Trazado 106684" d="M54.37,74.3H33.023a1.258,1.258,0,0,1-1.273-1.258,1.273,1.273,0,0,1,1.273-1.273H54.37a1.273,1.273,0,0,1,1.258,1.273A1.258,1.258,0,0,1,54.37,74.3Z" transform="translate(15.321 35.745)" fill="#9182ca"/>
        </g>
      </g>
    </g>
  </g>
</svg>
