<svg xmlns="http://www.w3.org/2000/svg" width="295" height="512.649" viewBox="0 0 295 512.649">
  <g id="Grupo_55026" data-name="Grupo 55026" transform="translate(-1020 -4445.675)">
    <g id="Grupo_54322" data-name="Grupo 54322" transform="translate(34.682 4410.965)">
      <rect id="Rectángulo_5206" data-name="Rectángulo 5206" width="295" height="512.649" transform="translate(985.318 34.711)" fill="none"/>
      <g id="Grupo_54222" data-name="Grupo 54222">
        <path id="Trazado_101975" data-name="Trazado 101975" d="M985.318,44.711V428.952a463.853,463.853,0,0,0,72.845,11.054c123.357,8.465,222.155-8.3,222.155-8.3v-387Z" fill="#c0b6db"/>
        <path id="Trazado_101976" data-name="Trazado 101976" d="M985.318,34.711V418.952a463.853,463.853,0,0,0,72.845,11.054c123.357,8.465,222.155-8.3,222.155-8.3v-387Z" fill="#f1eefd"/>
      </g>
    </g>
    <g id="Grupo_55024" data-name="Grupo 55024">
      <g id="Grupo_55001" data-name="Grupo 55001">
        <g id="CF1_icono_1_copia_6" data-name="CF1_icono 1 copia 6" transform="translate(1092.357 4774)">
          <circle id="Elipse_4300" data-name="Elipse 4300" cx="75" cy="75" r="75" transform="translate(-0.357)" fill="#bbabf5"/>
          <path id="Trazado_106720" data-name="Trazado 106720" d="M86.526,42.163l-.539-5.408.539-.854-.9-9.707-1.5-.974H73.493l-1.288.974L71.291,35.9l.569.629-.569,5.9-.659.539L68.19,68.334l1.168.869H88.533l1.034-.869L87.185,42.867Z" transform="translate(33.876 12.561)" fill="#dbedff"/>
          <path id="Trazado_106721" data-name="Trazado 106721" d="M78.017,42.972l.659-.539.569-5.9-.569-.629.914-9.707,1.288-.974h-7.49l-1.288.974L71.186,35.9l.569.629-.569,5.9-.659.539L68.19,68.334l1.168.869h7.49l-1.2-.869Z" transform="translate(33.876 12.561)" fill="#b5dcff"/>
          <path id="Trazado_106722" data-name="Trazado 106722" d="M100.064,54H63.2L61.28,55.858v42.5h39.593l.569-.509V55.408A1.378,1.378,0,0,0,100.064,54Z" transform="translate(30.435 26.894)" fill="#8479c2"/>
          <path id="Trazado_106723" data-name="Trazado 106723" d="M71.631,55.408A1.378,1.378,0,0,1,72.995,54H63.2L61.28,55.858v42.5H72.2l-.569-.509Z" transform="translate(30.435 26.894)" fill="#6e60b8"/>
          <path id="Trazado_106724" data-name="Trazado 106724" d="M85.724,21.165H70.743a1.273,1.273,0,0,0-1.273,1.273v4.494a1.273,1.273,0,0,0,1.273,1.273h14.98a1.288,1.288,0,0,0,1.288-1.273V22.423a1.288,1.288,0,0,0-1.288-1.273Z" transform="translate(34.514 10.534)" fill="#b5dcff"/>
          <path id="Trazado_106725" data-name="Trazado 106725" d="M76.676,26.917V22.423a1.288,1.288,0,0,1,1.288-1.273H70.743a1.273,1.273,0,0,0-1.273,1.273v4.494a1.273,1.273,0,0,0,1.273,1.273h7.221a1.288,1.288,0,0,1-1.288-1.273Z" transform="translate(34.514 10.534)" fill="#8bcaff"/>
          <path id="Trazado_106726" data-name="Trazado 106726" d="M86.247,11.042a1.109,1.109,0,0,1-1.213-.6A7.191,7.191,0,0,0,73.753,8.39a1.109,1.109,0,0,1-1.5,0,7.206,7.206,0,0,0-9.722,0,1.094,1.094,0,0,1-1.5,0,7.206,7.206,0,1,0,0,10.621,1.094,1.094,0,0,1,1.5,0,7.206,7.206,0,0,0,9.722,0,1.109,1.109,0,0,1,1.5,0,7.206,7.206,0,0,0,8.988.629,1.109,1.109,0,0,1,1.363,0,4.988,4.988,0,1,0,2.172-8.629Z" transform="translate(24.299 3.235)" fill="#dbedff"/>
          <path id="Trazado_106727" data-name="Trazado 106727" d="M84.04,12.586a1.109,1.109,0,0,0-1.348,0,7.176,7.176,0,0,1-8.988-.614,1.094,1.094,0,0,0-1.5,0,7.191,7.191,0,0,1-9.722,0,1.109,1.109,0,0,0-1.5,0,7.251,7.251,0,0,1-11.52-2.5A7.3,7.3,0,0,0,49,12.211a7.206,7.206,0,0,0,11.984,5.3,1.094,1.094,0,0,1,1.5,0,7.191,7.191,0,0,0,9.722,0,1.124,1.124,0,0,1,1.5,0,7.206,7.206,0,0,0,8.988.629,1.079,1.079,0,0,1,1.363,0,4.988,4.988,0,0,0,8.239-3.775A4.824,4.824,0,0,0,91.44,11.6a5.033,5.033,0,0,1-7.4.989Z" transform="translate(24.318 4.716)" fill="#b5dcff"/>
          <path id="Trazado_106728" data-name="Trazado 106728" d="M69.77,39.421H86.4l-.659-7.071H70.429Z" transform="translate(34.663 16.112)" fill="#f27182"/>
          <path id="Trazado_106729" data-name="Trazado 106729" d="M70.429,32.35l-.659,7.071h7.49l.659-7.071Z" transform="translate(34.663 16.112)" fill="#ed5469"/>
          <path id="Trazado_106730" data-name="Trazado 106730" d="M68,78.55H89.991v7.4H68Z" transform="translate(33.782 39.121)" fill="#00d2fc"/>
          <path id="Trazado_106731" data-name="Trazado 106731" d="M68,78.55H78.366v7.4H68Z" transform="translate(33.782 39.121)" fill="#00c2fb"/>
          <path id="Trazado_106732" data-name="Trazado 106732" d="M68,69.54H89.991v7.385H68Z" transform="translate(33.782 34.634)" fill="#00d2fc"/>
          <path id="Trazado_106733" data-name="Trazado 106733" d="M68,69.54H78.366v7.385H68Z" transform="translate(33.782 34.634)" fill="#00c2fb"/>
          <path id="Trazado_106734" data-name="Trazado 106734" d="M68.874,45.893,47.183,56.814a1.5,1.5,0,0,0-.824,1.333l-.839.869v43.443H70.028l1.019-.509V47.227a1.5,1.5,0,0,0-2.172-1.333Z" transform="translate(22.586 22.777)" fill="#fd8f25"/>
          <path id="Trazado_106735" data-name="Trazado 106735" d="M68,74.26H89.991v6.756H68Z" transform="translate(33.782 36.985)" fill="#62ddfc"/>
          <path id="Trazado_106736" data-name="Trazado 106736" d="M68,74.26H78.366v6.756H68Z" transform="translate(33.782 36.985)" fill="#00d2fc"/>
          <path id="Trazado_106737" data-name="Trazado 106737" d="M89.677,64.78H68.3a.809.809,0,0,1-.33,0v7.49H90.006V64.78a.854.854,0,0,1-.33,0Z" transform="translate(33.767 32.263)" fill="#62ddfc"/>
          <path id="Trazado_106738" data-name="Trazado 106738" d="M78.172,64.78H68.12a.21.21,0,0,1-.15,0v7.49H78.336V64.78A.255.255,0,0,1,78.172,64.78Z" transform="translate(33.767 32.263)" fill="#00d2fc"/>
          <path id="Trazado_106739" data-name="Trazado 106739" d="M90,60.56H68.618a1.288,1.288,0,0,0-1.288,1.288v4.494a1.3,1.3,0,0,0,1.288,1.288H90a1.288,1.288,0,0,0,1.273-1.288V61.848A1.273,1.273,0,0,0,90,60.56Z" transform="translate(33.448 30.161)" fill="#dbedff"/>
          <path id="Trazado_106740" data-name="Trazado 106740" d="M77.337,66.342V61.848a1.273,1.273,0,0,1,1.288-1.288H68.588A1.288,1.288,0,0,0,67.3,61.848v4.494a1.3,1.3,0,0,0,1.288,1.288H78.625A1.288,1.288,0,0,1,77.337,66.342Z" transform="translate(33.433 30.161)" fill="#b5dcff"/>
          <path id="Trazado_106741" data-name="Trazado 106741" d="M52.986,60.544A1.5,1.5,0,0,1,53.81,59.2l16.958-8.569v-3.4A1.5,1.5,0,0,0,68.6,45.893L46.9,56.814a1.5,1.5,0,0,0-.824,1.333v43.818h6.906Z" transform="translate(22.865 22.777)" fill="#ffa90f"/>
          <path id="Trazado_106742" data-name="Trazado 106742" d="M52.459,45.9,30.768,56.817a1.5,1.5,0,0,0-.824,1.333l-1.064.869v44.117H52.744l1.9-1.168V47.229A1.5,1.5,0,0,0,52.459,45.9Z" transform="translate(14.298 22.774)" fill="#fd8f25"/>
          <path id="Trazado_106743" data-name="Trazado 106743" d="M36.511,60.547a1.5,1.5,0,0,1,.824-1.348L54.293,50.63v-3.4A1.5,1.5,0,0,0,52.106,45.9L30.414,56.817a1.5,1.5,0,0,0-.824,1.333v43.818h6.921Z" transform="translate(14.652 22.774)" fill="#ffa90f"/>
          <path id="Trazado_106744" data-name="Trazado 106744" d="M35.626,45.893,13.934,56.814a1.5,1.5,0,0,0-.824,1.333v43.818H37.8V47.227a1.5,1.5,0,0,0-2.172-1.333Z" transform="translate(6.444 22.777)" fill="#fd8f25"/>
          <path id="Trazado_106745" data-name="Trazado 106745" d="M20.031,60.544a1.5,1.5,0,0,1,.824-1.348L37.8,50.627v-3.4a1.5,1.5,0,0,0-2.172-1.333L13.934,56.814a1.5,1.5,0,0,0-.824,1.333v43.818h6.921Z" transform="translate(6.444 22.777)" fill="#ffa90f"/>
          <path id="Trazado_106746" data-name="Trazado 106746" d="M130.258,83.11H11.6a1.783,1.783,0,0,0-1.8,1.783v3.895a1.8,1.8,0,0,0,1.8,1.783h118.66a1.8,1.8,0,0,0,1.783-1.783V84.893a1.783,1.783,0,0,0-1.783-1.783Z" transform="translate(4.796 41.392)" fill="#dbedff"/>
          <path id="Trazado_106747" data-name="Trazado 106747" d="M130.258,86.193H11.6A1.783,1.783,0,0,1,9.8,84.41v3.73a1.8,1.8,0,0,0,1.8,1.783h118.66a1.8,1.8,0,0,0,1.783-1.783V84.41a1.783,1.783,0,0,1-1.783,1.783Z" transform="translate(4.796 42.04)" fill="#b5dcff"/>
          <path id="Trazado_106748" data-name="Trazado 106748" d="M60.352,57.69H52.038a1.5,1.5,0,0,0-1.5,1.5v9.3a1.5,1.5,0,0,0,1.5,1.5h8.314a1.5,1.5,0,0,0,1.5-1.5V59.218a1.5,1.5,0,0,0-1.5-1.5Z" transform="translate(25.086 28.732)" fill="#00d2fc"/>
          <path id="Trazado_106749" data-name="Trazado 106749" d="M43.872,57.69H35.558a1.5,1.5,0,0,0-1.5,1.5v9.3a1.5,1.5,0,0,0,1.5,1.5h8.314a1.5,1.5,0,0,0,1.5-1.5V59.218a1.5,1.5,0,0,0-1.5-1.528Z" transform="translate(16.878 28.732)" fill="#00d2fc"/>
          <path id="Trazado_106750" data-name="Trazado 106750" d="M27.392,57.69H19.078a1.5,1.5,0,0,0-1.5,1.5v9.3a1.5,1.5,0,0,0,1.5,1.5h8.314a1.5,1.5,0,0,0,1.5-1.5V59.218a1.5,1.5,0,0,0-1.5-1.528Z" transform="translate(8.67 28.732)" fill="#00d2fc"/>
          <path id="Trazado_106751" data-name="Trazado 106751" d="M56.2,68.511v-9.3a1.5,1.5,0,0,1,1.5-1.5H52.038a1.5,1.5,0,0,0-1.5,1.5v9.3a1.5,1.5,0,0,0,1.5,1.5h5.678a1.5,1.5,0,0,1-1.513-1.5Z" transform="translate(25.086 28.742)" fill="#00c2fb"/>
          <path id="Trazado_106752" data-name="Trazado 106752" d="M39.708,68.511v-9.3a1.5,1.5,0,0,1,1.5-1.5H35.558a1.5,1.5,0,0,0-1.5,1.5v9.3a1.5,1.5,0,0,0,1.5,1.5h5.678a1.5,1.5,0,0,1-1.528-1.5Z" transform="translate(16.878 28.742)" fill="#00c2fb"/>
          <path id="Trazado_106753" data-name="Trazado 106753" d="M23.228,68.511v-9.3a1.5,1.5,0,0,1,1.5-1.5H19.078a1.5,1.5,0,0,0-1.5,1.5v9.3a1.5,1.5,0,0,0,1.5,1.5h5.678a1.5,1.5,0,0,1-1.528-1.5Z" transform="translate(8.67 28.742)" fill="#00c2fb"/>
        </g>
      </g>
    </g>
  </g>
</svg>
