<svg xmlns="http://www.w3.org/2000/svg" width="295" height="478.324" viewBox="0 0 295 478.324">
  <g id="Grupo_55022" data-name="Grupo 55022" transform="translate(-390.001 -4445.676)">
    <path id="Trazado_101975" data-name="Trazado 101975" d="M985.318,44.711V428.952a463.853,463.853,0,0,0,72.845,11.054c123.357,8.465,222.155-8.3,222.155-8.3v-387Z" transform="translate(-595.317 4410.965)" fill="#c0b6db"/>
    <path id="Trazado_101976" data-name="Trazado 101976" d="M985.318,34.711V418.952a463.853,463.853,0,0,0,72.845,11.054c123.357,8.465,222.155-8.3,222.155-8.3v-387Z" transform="translate(-595.317 4410.965)" fill="#f1eefd"/>
    <g id="Grupo_55021" data-name="Grupo 55021">
      <g id="Grupo_54999" data-name="Grupo 54999">
        <g id="CF1_icono_1_copia_4" data-name="CF1_icono 1 copia 4" transform="translate(474.991 4774)">
          <circle id="Elipse_4296" data-name="Elipse 4296" cx="75" cy="75" r="75" transform="translate(0.008)" fill="#bbabf5"/>
          <path id="Trazado_106698" data-name="Trazado 106698" d="M83.708,36.78,78.884,59.895H78V36.78Z" transform="translate(38.559 18.318)" fill="none"/>
          <path id="Trazado_106699" data-name="Trazado 106699" d="M77.862,33.637A1.753,1.753,0,0,1,76.109,31.9V23.84a8.239,8.239,0,1,0-16.478,0V31.9a1.753,1.753,0,0,1-3.49,0V23.84a11.73,11.73,0,1,1,23.459,0V31.9A1.738,1.738,0,0,1,77.862,33.637Z" transform="translate(27.671 6.031)" fill="#7a6d79"/>
          <path id="Trazado_106700" data-name="Trazado 106700" d="M91.03,62.952H49.25V24.542a2.307,2.307,0,0,1,2.322-2.322H88.708a2.307,2.307,0,0,1,2.322,2.322Z" transform="translate(24.24 11.066)" fill="#fe99a0"/>
          <path id="Trazado_106701" data-name="Trazado 106701" d="M79.456,22.22H72.49a2.307,2.307,0,0,1,2.262,2.322v38.41h6.966V24.542A2.307,2.307,0,0,0,79.456,22.22Z" transform="translate(35.814 11.067)" fill="#fd8087"/>
          <path id="Trazado_106702" data-name="Trazado 106702" d="M65.363,60.073H32.87V30.247A2.322,2.322,0,0,1,35.192,28H63.026a2.337,2.337,0,0,1,2.337,2.322Z" transform="translate(16.082 13.945)" fill="#fee97d"/>
          <path id="Trazado_106703" data-name="Trazado 106703" d="M56.881,28H49.9a2.322,2.322,0,0,1,2.322,2.322V60.073H59.2V30.247A2.337,2.337,0,0,0,56.881,28Z" transform="translate(24.564 13.945)" fill="#fedf30"/>
          <path id="Trazado_106704" data-name="Trazado 106704" d="M32.247,80.862H106.2a5.812,5.812,0,0,0,5.812-5.8V39.112A2.322,2.322,0,0,0,109.7,36.79H22Z" transform="translate(10.668 18.323)" fill="#d5fff9"/>
          <path id="Trazado_106705" data-name="Trazado 106705" d="M85.561,36.82H78.6a2.322,2.322,0,0,1,2.337,2.322V75.1a5.812,5.812,0,0,1-5.812,5.8h6.966A5.812,5.812,0,0,0,87.9,75.1V39.142a2.307,2.307,0,0,0-2.322-2.322Z" transform="translate(37.124 18.338)" fill="#abfff3"/>
          <path id="Trazado_106706" data-name="Trazado 106706" d="M110.274,106.474H42.293a4.809,4.809,0,0,1-4.674-3.76L22.07,34.957H11.344a4.794,4.794,0,0,1,0-9.587H25.89a4.779,4.779,0,0,1,4.659,3.73L46.173,96.887h64.1a4.794,4.794,0,0,1,0,9.587Z" transform="translate(2.973 12.635)" fill="#9182ca"/>
          <path id="Trazado_106707" data-name="Trazado 106707" d="M88.9,82.659c0,6.292-2.786,11.175-9.093,11.175a10.848,10.848,0,0,1-2.2,0,11.415,11.415,0,0,1,0-22.4,10.846,10.846,0,0,1,2.2,0C86.117,71.469,88.9,76.352,88.9,82.659Z" transform="translate(33.782 35.552)" fill="#7a6d79"/>
          <path id="Trazado_106708" data-name="Trazado 106708" d="M76.732,71.29a11.8,11.8,0,0,0-2.2.21,11.415,11.415,0,0,1,0,22.4,10.666,10.666,0,0,0,2.2.225,11.415,11.415,0,1,0,0-22.83Z" transform="translate(36.83 35.505)" fill="#685e68"/>
          <circle id="Elipse_4297" data-name="Elipse 4297" cx="3.73" cy="3.73" r="3.73" transform="translate(109.862 114.48)" fill="#d5fff9"/>
          <path id="Trazado_106709" data-name="Trazado 106709" d="M43.533,82.659c0,6.292-2.786,11.175-9.093,11.175a10.848,10.848,0,0,1-2.2,0,11.415,11.415,0,0,1,0-22.4,10.847,10.847,0,0,1,2.2,0C40.747,71.469,43.533,76.352,43.533,82.659Z" transform="translate(11.186 35.552)" fill="#7a6d79"/>
          <path id="Trazado_106710" data-name="Trazado 106710" d="M31.382,71.29a11.8,11.8,0,0,0-2.2.21,11.415,11.415,0,0,1,0,22.4,10.666,10.666,0,0,0,2.2.225,11.415,11.415,0,1,0,0-22.83Z" transform="translate(14.244 35.505)" fill="#685e68"/>
          <circle id="Elipse_4298" data-name="Elipse 4298" cx="3.73" cy="3.73" r="3.73" transform="translate(41.896 114.48)" fill="#d5fff9"/>
          <path id="Trazado_106711" data-name="Trazado 106711" d="M82.141,49.243h-38.6a1.753,1.753,0,1,1,0-3.49h38.6a1.753,1.753,0,0,1,0,3.49Z" transform="translate(20.441 22.783)" fill="#9182ca"/>
          <path id="Trazado_106712" data-name="Trazado 106712" d="M76.031,58.431H46.714a1.753,1.753,0,1,1,0-3.416H76.031a1.753,1.753,0,0,1,0,3.49Z" transform="translate(21.907 27.377)" fill="#9182ca"/>
        </g>
      </g>
    </g>
  </g>
</svg>
