<svg xmlns="http://www.w3.org/2000/svg" width="295" height="512.649" viewBox="0 0 295 512.649">
  <g id="Grupo_54990" data-name="Grupo 54990" transform="translate(-495 -5066.676)">
    <g id="Grupo_54323" data-name="Grupo 54323" transform="translate(-490.317 5031.965)">
      <rect id="Rectángulo_5206" data-name="Rectángulo 5206" width="295" height="512.649" transform="translate(985.318 34.711)" fill="none"/>
      <g id="Grupo_54222" data-name="Grupo 54222">
        <path id="Trazado_101975" data-name="Trazado 101975" d="M985.318,44.711V428.952a463.853,463.853,0,0,0,72.845,11.054c123.357,8.465,222.155-8.3,222.155-8.3v-387Z" fill="#c0b6db"/>
        <path id="Trazado_101976" data-name="Trazado 101976" d="M985.318,34.711V418.952a463.853,463.853,0,0,0,72.845,11.054c123.357,8.465,222.155-8.3,222.155-8.3v-387Z" fill="#f1eefd"/>
      </g>
    </g>
    <g id="CF1_icono_1_copia_7" data-name="CF1_icono 1 copia 7" transform="translate(569.557 5385)">
      <ellipse id="Elipse_4301" data-name="Elipse 4301" cx="74.5" cy="75" rx="74.5" ry="75" transform="translate(0.443)" fill="#bbabf5"/>
      <path id="Trazado_106754" data-name="Trazado 106754" d="M32.955,40.12H125.13V88.057H29.09L32.955,53.6Z" transform="translate(13.988 19.981)" fill="#9182ca" fill-rule="evenodd"/>
      <path id="Trazado_106755" data-name="Trazado 106755" d="M43.31,89.732H10.353c-1.5,0-2.052-.719-2.052-2.067V73.089a2.891,2.891,0,0,1,1.917-2.831l8.808-3.565L35.34,49h7.97Z" transform="translate(3.633 24.404)" fill="#f25585" fill-rule="evenodd"/>
      <path id="Trazado_106756" data-name="Trazado 106756" d="M43.309,89.732H10.352c-1.5,0-2.052-.719-2.052-2.067V83.29H31.7a5.168,5.168,0,0,0,5.168-5.153V49h6.442Z" transform="translate(3.634 24.404)" fill="#cb5769" fill-rule="evenodd"/>
      <path id="Trazado_106757" data-name="Trazado 106757" d="M117.4,41.44h6.442V85.363H31.67V78.921h79.291a6.472,6.472,0,0,0,6.442-6.442Z" transform="translate(15.273 20.639)" fill="#6c58b8" fill-rule="evenodd"/>
      <path id="Trazado_106758" data-name="Trazado 106758" d="M126.661,70.76a2.067,2.067,0,0,1,2.067,2.067v4a2.067,2.067,0,0,1-2.067,2.067H31.67V70.76Z" transform="translate(15.273 35.242)" fill="#b5abdb" fill-rule="evenodd"/>
      <path id="Trazado_106759" data-name="Trazado 106759" d="M36.19,44.119,62.2,46.456l26.291-2.337L63.829,20.42a1.917,1.917,0,0,0-3,0Z" transform="translate(17.525 9.811)" fill="#fff3be" fill-rule="evenodd"/>
      <path id="Trazado_106760" data-name="Trazado 106760" d="M60.78,41.683l19.969,2.2,17.108-2.2L80.809,25.31a1.917,1.917,0,0,0-3,0Z" transform="translate(29.771 12.246)" fill="#ffe07d" fill-rule="evenodd"/>
      <path id="Trazado_106761" data-name="Trazado 106761" d="M28.417,36H129.311a2.067,2.067,0,0,1,2.067,2.067v4.015a2.067,2.067,0,0,1-2.067,2.052H28.417a2.067,2.067,0,0,1-2.067-2.052v-4A2.067,2.067,0,0,1,28.417,36Z" transform="translate(12.624 17.93)" fill="#b5abdb" fill-rule="evenodd"/>
      <path id="Trazado_106762" data-name="Trazado 106762" d="M82.531,65.832,91.52,50.118a4.075,4.075,0,0,1,7.041,4.075l-8.988,15.7a4.064,4.064,0,1,1-7.041-4.06Zm-37.96,0,8.988-15.714A4.075,4.075,0,0,1,60.6,54.192l-8.988,15.7a4.064,4.064,0,1,1-7.041-4.06Zm18.98,0,8.988-15.714a4.075,4.075,0,0,1,7.041,4.075L70.592,69.877a4.06,4.06,0,0,1-7.041-4.045Z" transform="translate(21.428 24.05)" fill="#6c58b8" fill-rule="evenodd"/>
      <path id="Trazado_106763" data-name="Trazado 106763" d="M15.5,66.694H29.731A1.828,1.828,0,0,0,31.8,64.627V49H25.807a3,3,0,0,0-3,1.873Z" transform="translate(7.22 24.402)" fill="#90d8f9" fill-rule="evenodd"/>
      <path id="Trazado_106764" data-name="Trazado 106764" d="M23.606,90.642A10.846,10.846,0,1,0,12.76,79.8,10.846,10.846,0,0,0,23.606,90.642Z" transform="translate(5.855 34.34)" fill="#0c5e7f" fill-rule="evenodd"/>
      <path id="Trazado_106765" data-name="Trazado 106765" d="M87.2,90.642A10.846,10.846,0,1,0,76.35,79.8,10.846,10.846,0,0,0,87.2,90.642Z" transform="translate(37.526 34.34)" fill="#0c5e7f" fill-rule="evenodd"/>
      <path id="Trazado_106766" data-name="Trazado 106766" d="M97.55,74a10.846,10.846,0,1,1-20.718,0A10.846,10.846,0,0,0,97.55,74Z" transform="translate(37.523 36.855)" fill="#174b67" fill-rule="evenodd"/>
      <path id="Trazado_106767" data-name="Trazado 106767" d="M67.286,90.642A10.846,10.846,0,1,0,56.44,79.8,10.846,10.846,0,0,0,67.286,90.642Z" transform="translate(27.61 34.34)" fill="#0c5e7f" fill-rule="evenodd"/>
      <path id="Trazado_106768" data-name="Trazado 106768" d="M77.637,74a10.486,10.486,0,0,1,.494,3.221A10.846,10.846,0,1,1,56.919,74a10.846,10.846,0,0,0,20.718,0Z" transform="translate(27.61 36.855)" fill="#174b67" fill-rule="evenodd"/>
      <path id="Trazado_106769" data-name="Trazado 106769" d="M33.975,74a10.861,10.861,0,1,1-20.718,0,10.846,10.846,0,0,0,20.718,0Z" transform="translate(5.853 36.855)" fill="#174b67" fill-rule="evenodd"/>
      <path id="Trazado_106770" data-name="Trazado 106770" d="M21.25,81.2a3.76,3.76,0,1,0-3.76-3.76,3.76,3.76,0,0,0,3.76,3.76Z" transform="translate(8.211 36.696)" fill="#e0dbee" fill-rule="evenodd"/>
      <path id="Trazado_106771" data-name="Trazado 106771" d="M84.84,81.2a3.76,3.76,0,1,0-3.76-3.76,3.76,3.76,0,0,0,3.76,3.76Z" transform="translate(39.882 36.696)" fill="#e0dbee" fill-rule="evenodd"/>
      <path id="Trazado_106772" data-name="Trazado 106772" d="M64.93,81.2a3.76,3.76,0,1,0-3.76-3.76,3.76,3.76,0,0,0,3.76,3.76Z" transform="translate(29.966 36.696)" fill="#e0dbee" fill-rule="evenodd"/>
      <path id="Trazado_106773" data-name="Trazado 106773" d="M67.491,31.715,60.78,38.142H97.857L91.16,31.7H67.491Z" transform="translate(29.771 15.788)" fill="#ffd064" fill-rule="evenodd"/>
      <path id="Trazado_106774" data-name="Trazado 106774" d="M73.027,38.142,79.738,31.7H42.9L36.19,38.142Z" transform="translate(17.525 15.788)" fill="#fff0af" fill-rule="evenodd"/>
    </g>
  </g>
</svg>
