<svg xmlns="http://www.w3.org/2000/svg" width="295" height="506.324" viewBox="0 0 295 506.324">
  <g id="Grupo_55020" data-name="Grupo 55020" transform="translate(-495.001 -3824.676)">
    <path id="Trazado_101975" data-name="Trazado 101975" d="M985.318,44.711V428.952a463.853,463.853,0,0,0,72.845,11.054c123.357,8.465,222.155-8.3,222.155-8.3v-387Z" transform="translate(-490.317 3789.965)" fill="#c0b6db"/>
    <g id="Grupo_55019" data-name="Grupo 55019">
      <path id="Trazado_101976" data-name="Trazado 101976" d="M985.318,34.711V418.952a463.853,463.853,0,0,0,72.845,11.054c123.357,8.465,222.155-8.3,222.155-8.3v-387Z" transform="translate(-490.317 3789.965)" fill="#f1eefd"/>
      <g id="Grupo_54995" data-name="Grupo 54995" transform="translate(-26)">
        <g id="CF1_icono_1_copia" data-name="CF1_icono 1 copia" transform="translate(594.089 4181)">
          <circle id="Elipse_4304" data-name="Elipse 4304" cx="75" cy="75" r="75" transform="translate(-0.089)" fill="#bbabf5"/>
          <path id="Trazado_106800" data-name="Trazado 106800" d="M112.161,35.16V99.471a3.43,3.43,0,0,1-3.386,3.475H24.046a3.431,3.431,0,0,1-3.386-3.475V35.16Z" transform="translate(9.653 17.511)" fill="#febc7c"/>
          <path id="Trazado_106801" data-name="Trazado 106801" d="M105.391,35.16V99.471a3.266,3.266,0,0,1-3,3.475H27.059a3.266,3.266,0,0,1-3-3.475V35.16Z" transform="translate(11.344 17.511)" fill="#fed2a8"/>
          <path id="Trazado_106802" data-name="Trazado 106802" d="M22.92,18.2h84.729V30.05H22.92Z" transform="translate(10.778 9.064)" fill="#802f34"/>
          <path id="Trazado_106803" data-name="Trazado 106803" d="M26.31,18.2h74.573V30.05H26.31Z" transform="translate(12.467 9.064)" fill="#cc4b4c"/>
          <path id="Trazado_106804" data-name="Trazado 106804" d="M73.783,45.918V86.59H26.31V45.918A1.708,1.708,0,0,1,28,44.21H72.075A1.708,1.708,0,0,1,73.783,45.918Z" transform="translate(12.467 22.018)" fill="#90bae1"/>
          <path id="Trazado_106805" data-name="Trazado 106805" d="M64.594,56.309,62.541,61a1.5,1.5,0,0,1-1.932.884l-2.217-.659a1.691,1.691,0,0,0-2.172,1.633V75.949a1.5,1.5,0,0,1-1.5,1.588H40.775a1.5,1.5,0,0,1-1.5-1.5V62.856a1.693,1.693,0,0,0-2.2-1.633l-2.217.659A1.5,1.5,0,0,1,32.925,61l-1.947-4.689a1.633,1.633,0,0,1,.6-2.037l10.711-5.393a2.487,2.487,0,0,1,1.5,0,15.625,15.625,0,0,0,7.97,0,2.442,2.442,0,0,1,1.5,0l10.786,5.393a1.618,1.618,0,0,1,.554,2.037Z" transform="translate(14.72 24.285)" fill="#894b9d"/>
          <path id="Trazado_106806" data-name="Trazado 106806" d="M22.353,14.8h88.115a1.693,1.693,0,0,1,1.693,1.693v3.4a1.693,1.693,0,0,1-1.693,1.693H22.353a1.693,1.693,0,0,1-1.693-1.693v-3.4A1.693,1.693,0,0,1,22.353,14.8Z" transform="translate(9.653 7.371)" fill="#c03a2b"/>
          <path id="Trazado_106807" data-name="Trazado 106807" d="M25.743,14.8h77.9a1.708,1.708,0,0,1,1.693,1.693v3.4a1.708,1.708,0,0,1-1.693,1.693h-77.9a1.708,1.708,0,0,1-1.693-1.693v-3.4A1.708,1.708,0,0,1,25.743,14.8Z" transform="translate(11.341 7.371)" fill="#ef2a66"/>
          <path id="Trazado_106808" data-name="Trazado 106808" d="M116.677,33.449,109.905,25H25.176L18.39,33.479" transform="translate(8.522 12.451)" fill="#c03a2b"/>
          <path id="Trazado_106809" data-name="Trazado 106809" d="M109.9,33.449,103.134,25H28.561L21.79,33.479" transform="translate(10.216 12.451)" fill="#ef2a66"/>
          <path id="Trazado_106810" data-name="Trazado 106810" d="M98.041,30.64h18.636v6.831a1.708,1.708,0,0,1-1.6,1.693c-6.636.4-7.161,3.341-14.786,3.341-8.209,0-8.209-3.386-16.4-3.386S75.705,42.5,67.511,42.5s-8.179-3.386-16.359-3.386S42.958,42.5,34.764,42.5c-7.61,0-8.149-3-14.771-3.341a1.708,1.708,0,0,1-1.6-1.693V30.64Z" transform="translate(8.522 15.26)" fill="#802f34"/>
          <path id="Trazado_106811" data-name="Trazado 106811" d="M76.538,74.761H25.695a1.708,1.708,0,0,1,0-3.4H76.538a1.708,1.708,0,0,1,0,3.4Z" transform="translate(11.389 35.54)" fill="#ef2a66"/>
          <path id="Trazado_106812" data-name="Trazado 106812" d="M90.755,95.054V44.21H67.041a3.4,3.4,0,0,0-3.4,3.4V98.439H87.369a3.386,3.386,0,0,0,3.386-3.386Z" transform="translate(31.059 22.018)" fill="#ef2a66"/>
          <path id="Trazado_106813" data-name="Trazado 106813" d="M84.554,44.21V95.054a3.386,3.386,0,0,1-3.386,3.386H76.09a3.386,3.386,0,0,0,3.386-3.386V44.21Z" transform="translate(37.259 22.018)" fill="#c03a2b"/>
          <path id="Trazado_106814" data-name="Trazado 106814" d="M88.5,48.74V62.222H69.863A1.693,1.693,0,0,1,68.17,60.53v-10.1a1.693,1.693,0,0,1,1.693-1.693Z" transform="translate(33.315 24.275)" fill="#90bae1"/>
          <path id="Trazado_106815" data-name="Trazado 106815" d="M83.4,48.74V62.222H69.913A1.693,1.693,0,0,1,68.22,60.53v-10.1a1.693,1.693,0,0,1,1.693-1.693Z" transform="translate(33.34 24.275)" fill="#b0d3f0"/>
          <path id="Trazado_106816" data-name="Trazado 106816" d="M69.863,67.966a1.693,1.693,0,0,1-1.693-1.693v-3.4a1.693,1.693,0,1,1,3.386,0v3.4a1.708,1.708,0,0,1-1.693,1.693Z" transform="translate(33.315 30.47)" fill="#802f34"/>
          <path id="Trazado_106817" data-name="Trazado 106817" d="M83.62,48.74l-7.985,7.985a1.753,1.753,0,0,1-2.412,0,1.723,1.723,0,0,1,0-2.412L78.8,48.74Z" transform="translate(35.586 24.275)" fill="#fff"/>
          <path id="Trazado_106818" data-name="Trazado 106818" d="M43.84,57.229c-5.213,0-5.108-7.8-5.078-8.449a2.457,2.457,0,0,1,1.094,0,15.625,15.625,0,0,0,7.97,0,2.457,2.457,0,0,1,1.094,0C48.934,49.425,49.054,57.229,43.84,57.229Z" transform="translate(18.665 24.264)" fill="#5d4c72"/>
          <path id="Trazado_106819" data-name="Trazado 106819" d="M44.406,44.21v7.4a1.693,1.693,0,1,1-3.386,0v-7.4Z" transform="translate(19.793 22.018)" fill="#3d324c"/>
        </g>
      </g>
    </g>
  </g>
</svg>
