<svg xmlns="http://www.w3.org/2000/svg" width="295" height="549" viewBox="0 0 295 549">
  <g id="Grupo_56925" data-name="Grupo 56925" transform="translate(-810 -5229.495)">
    <rect id="Rect치ngulo_6735" data-name="Rect치ngulo 6735" width="295" height="549" rx="13" transform="translate(810 5229.495)" fill="#faede0"/>
    <g id="CF1_tarejta_9" data-name="CF1_tarejta 9" transform="translate(810 5186.703)">
      <g id="Layer_1" data-name="Layer 1">
        <rect id="Rect치ngulo_6734" data-name="Rect치ngulo 6734" width="295" height="19.08" transform="translate(0 572.4)" fill="#472ea6"/>
        <g id="Grupo_56417" data-name="Grupo 56417">
          <g id="Grupo_56402" data-name="Grupo 56402">
            <path id="Trazado_115956" data-name="Trazado 115956" d="M48.37,576.01l-1.52,1.2,65.09-9.19,1.63-1.06Z" fill="#63331e"/>
            <path id="Trazado_115957" data-name="Trazado 115957" d="M143,522.6l15.59,12.31L96.2,543.63S69,526.43,70.56,525.89c7.42-2.6,14.62-.91,17.17-1.84a21.769,21.769,0,0,1,10-1.47c3.7.5,10.71-.42,14.39-1.39,2.68-.7,1.07,1.81,5.61,0,1.27-.51,5,.18,5.24.12,4-1.12,11.36-.71,11.93-.56h.1a2.4,2.4,0,0,1,1,.54c.48.44,2.18-.49,2.86-.32.89.23,1.85.3,2.75.45C142,521.54,143,521.65,143,522.6Z" fill="#63331e"/>
            <g id="Grupo_56399" data-name="Grupo 56399" opacity="0.2">
              <path id="Trazado_115958" data-name="Trazado 115958" d="M82.91,531.18c2.93-1.18,6.27-1.2,9.39-1.25a36.283,36.283,0,0,1,7.66.48c2,.38,10.52,1.51,11.19-1.2-2-1.21-5.05-.48-7.14.11-1.08.31-4.22,1.48-5.1.33.92-2.67,6.35-2.64,8.58-2.72,3.89-.13,7.39.29,11.2-.62,1.75-.42,4.11-1.49,5.9-1.24,2.5.34.29,1.81-1,2.07-1.06.22-4.33,1-3.14,2.76.61.91,2.73.54,3.6.47a49.741,49.741,0,0,0,6.43-1c2.74-.6,5.23-1.16,8-1.53,2-.27,3.95-1,6-1.28.53-.08,1.73-.14,3.08-.28L144.72,524c-1.38,0-2.79-.11-4.15,0-2,.22-3.9.74-5.88,1-.84.12-5.53,1.1-6,0s1.69-1.37,2.31-1.63c2.69-1.16-1.78-1.35-2.77-1.28-2.63.18-5.26.45-7.88.71-.81.08-3.86-.26-4.2.69a5,5,0,0,1,2.25,1c-.48,2-3.35,0-4.27-.24a7.84,7.84,0,0,0-3.08.17,48.828,48.828,0,0,1-5.42.32c-3.33.06-6.37-.37-9.69-.63-1.42-.11-4.92-.57-5.56,1.22,1.45.6,3.27-.55,4.84-.14,1,.25,1.65.49,1.27,1.4-.48,1.18-3.09,1-4.12,1-5-.3-10-.93-15-1.19a22.262,22.262,0,0,0-6.1.46c1.44,1.25,4.67,3.52,8.36,6a22.28,22.28,0,0,1,3.28-1.68Z" fill="#6b391e"/>
              <path id="Trazado_115959" data-name="Trazado 115959" d="M153.49,530.9c-1.92.41-3.81.93-5.72,1.39a51.379,51.379,0,0,1-8.22,1.78c-.73.06-7.61,1-7.7-.09,1.47-1.58,5-1.13,6.86-1.15,1.64,0,5.35,0,6-2-.95-1.93-7.14-.23-8.68,0-3.52.61-7.07,1.31-10.64,1.6a29.423,29.423,0,0,1-5.63,0c-1.1-.13-2.65-.62-3.65,0,.72.27,2.25.59,2.15,1.61-.13,1.19-1.94.83-2.84.82-6.07-.1-12.33-.23-18.11,1.79-1,.35-7.22,2.73-7,.4.08-1,3-1.84,3.69-2.09,1.51-.51,5.28-.69,6.38-1.92-1-1.71-5.06-.73-6.49-.57a56.346,56.346,0,0,0-7.66.9c-.57.15-2.22.81-3.87,1.26,4.71,3.12,9.6,6.26,12.11,7.87,1.78-.82,3.51-1.71,5.16-2.6a22.89,22.89,0,0,1,8.29-2.65,49.085,49.085,0,0,1,9.92.18c1,.11,5.65,1.19,5.77-.55-1.63-.86-3.59.37-5.29-.12,1.16-1.34,5.65-1.5,7.47-1.44,2.2.06,4.38.44,6.58.46s4.42-.23,6.63-.23,4.15-.42,6.23-.52c1.38-.07,2.71.16,4.11,0a56.6,56.6,0,0,0,6.94-1.21l.78-.18Z" fill="#6b391e"/>
            </g>
            <path id="Trazado_115960" data-name="Trazado 115960" d="M96.36,538.84c-.64-.64-.16-1.25-.75-1.94a2.62,2.62,0,0,1-.67-1.45,3.55,3.55,0,0,0-2-2.2c-1.92-1.06-4.42-1-5.89-2.75a4.45,4.45,0,0,0-1.74-1.5,16.337,16.337,0,0,0-3.94-.61c-3.45-.44-6.5-3-10-2.61A28.081,28.081,0,0,0,66.9,527a16.688,16.688,0,0,1-2.56.08,12.62,12.62,0,0,0-1.91.71A2.19,2.19,0,0,1,61,527.7a3.252,3.252,0,0,0-1-.17c-.94.08-1.12.93-1.76,1.41s-1.5.42-2.12.88a6.906,6.906,0,0,1-1,.7,10.507,10.507,0,0,1-1.77.76A37.176,37.176,0,0,0,48.58,534a2.8,2.8,0,0,1-1.46.72,3.55,3.55,0,0,0-2.16,2c-1,1.92-.82,4.34-2.53,5.86A4.24,4.24,0,0,0,41,544.41a14.66,14.66,0,0,0-.43,3.86c-.29,3.37-2.82,6.45-2.2,9.84a29.1,29.1,0,0,0,1.44,4.28c.32.87,0,1.57.22,2.49a12,12,0,0,0,.81,1.81,2,2,0,0,1,0,1.41,3.07,3.07,0,0,0-.13.95c.14.92,1,1.05,1.54,1.65s.5,1.43,1,2a6.25,6.25,0,0,1,.76.94c.2.32.5.44.71.67.43.48,0,.44.16,1,.1.29.56.59.79.76s.71,1.1,1.19,1.12c0-.06,1.3-.43,1.32-.49s22.55-19.8,22.55-19.8l.67.88L96.64,541.4C97.22,540.66,96.66,539.13,96.36,538.84Z" fill="#7a4527"/>
            <path id="Trazado_115961" data-name="Trazado 115961" d="M53.23,534.21h0a30.87,30.87,0,0,0-5,42.53l24.3-18,24.16-17.3C86.6,528.4,67.17,525.16,53.23,534.21Z" fill="#9e532e"/>
            <path id="Trazado_115962" data-name="Trazado 115962" d="M95,542.48l61.94-6.52-42.7,30.56-64.55,9.01L69.3,556.07Z" fill="#cc8747"/>
            <path id="Trazado_115963" data-name="Trazado 115963" d="M54.41,535.73h-.06a28.89,28.89,0,0,0-4.66,39.8l21.7-17.73L95,542.48a30.15,30.15,0,0,0-20.34-11.32c-.2,0-2.84,8.47-2.84,8.47s1.44-8.61,1-8.64a30.34,30.34,0,0,0-18.41,4.74Z" fill="#e0a065"/>
            <path id="Trazado_115964" data-name="Trazado 115964" d="M96.63,541.42,95,542.48l61.94-6.52,1.63-1.06Z" fill="#9e532e"/>
            <path id="Trazado_115965" data-name="Trazado 115965" d="M49.69,575.53l-1.52,1.2,64.44-9.16,1.63-1.05Z" fill="#9e532e"/>
            <g id="Grupo_56400" data-name="Grupo 56400">
              <path id="Trazado_115966" data-name="Trazado 115966" d="M52,573.65l.69-.56c-5.4-12.57-4.51-14.24-1.73-21.84,3.76-10.31,14-15.9,22.3-14.34,2.75.46,11.91,2.9,18.54,7.66l1.47-1c-2.13-1.88-5.92-4.48-13.49-7.24C59,528.78,38.33,547.56,52,573.65Z" fill="#e0a065" opacity="0.2"/>
              <path id="Trazado_115967" data-name="Trazado 115967" d="M65.41,561.7c.13.2.28.41.44.63l2.28-1.86a7.27,7.27,0,0,1-.64-2c-.47-3.71,2.49-6.71,6.1-4.49a10.553,10.553,0,0,1,1.74,1.24l2.1-1.36C70.64,549.49,61,555.17,65.41,561.7Z" fill="#e0a065" opacity="0.2"/>
              <path id="Trazado_115968" data-name="Trazado 115968" d="M69.87,558.65c.06.09-.06.29,0,.38l1.51-1.23L74.1,556C71.3,554.43,69.12,556.51,69.87,558.65Z" fill="#e0a065" opacity="0.4"/>
              <path id="Trazado_115969" data-name="Trazado 115969" d="M59,563.91c.22,1.22.5,2.34.78,3.36L62,565.44c-.13-.6-.28-1.24-.44-2-3-9.62,6.77-22.14,20.86-12.83l1.12-.73C73.26,540.79,55.88,547.39,59,563.91Z" fill="#e0a065" opacity="0.2"/>
              <path id="Trazado_115970" data-name="Trazado 115970" d="M54.2,554.53c2-15.63,24.4-16.76,32.79-6.85l1-.65c-2.23-3.16-6.15-6.53-17.57-7.54-9.87-.76-17.7,7.35-18.81,14.59-1.18,4.87,2.1,10.58,5,15.77L58.93,568C56.12,563.17,53.32,558.42,54.2,554.53Z" fill="#e0a065" opacity="0.2"/>
            </g>
            <g id="Grupo_56401" data-name="Grupo 56401" opacity="0.5">
              <path id="Trazado_115971" data-name="Trazado 115971" d="M93.25,543.62l60.76-5.56-1.07.76-61.16,5.75Z" fill="#cc8747"/>
              <path id="Trazado_115972" data-name="Trazado 115972" d="M87.99,547.03l61.72-5.89-2.62,1.88-60.1,4.66Z" fill="#cc8747"/>
              <path id="Trazado_115973" data-name="Trazado 115973" d="M83.58,549.89l60.69-4.86-2.69,1.92-59.12,3.67Z" fill="#cc8747"/>
              <path id="Trazado_115974" data-name="Trazado 115974" d="M77.43,553.88l59.45-3.56-2.05,1.47-59.5,3.45Z" fill="#cc8747"/>
              <path id="Trazado_115975" data-name="Trazado 115975" d="M68.13,560.47l61.91-5.26-2.01,1.44-62.18,5.68Z" fill="#cc8747"/>
              <path id="Trazado_115976" data-name="Trazado 115976" d="M62.04,565.44l62.01-5.94-1.76,1.26L59.8,567.27Z" fill="#cc8747"/>
              <path id="Trazado_115977" data-name="Trazado 115977" d="M58.93,567.98l62.36-6.5-1.48,1.05-63.17,7.32Z" fill="#cc8747"/>
              <path id="Trazado_115978" data-name="Trazado 115978" d="M52.67,573.09l64.04-8.34-1.26.9-63.47,8Z" fill="#cc8747"/>
              <path id="Trazado_115979" data-name="Trazado 115979" d="M74.1,556.04l53.54-2.38-57.76,5.37Z" fill="#cc8747"/>
            </g>
          </g>
          <g id="Grupo_56406" data-name="Grupo 56406">
            <path id="Trazado_115980" data-name="Trazado 115980" d="M208.09,542.45l-14.27-12.88-65.58,33.81s-16.09,19.45-13.8,19.19c11-1.26,19.07-7.79,22.88-8.18s9.22-1.34,13.58-4.24,13.81-6,19.08-7c3.84-.75.19-3,7.09-3.45,1.93-.14,6.23-3.3,6.54-3.36,5.82-1,14.81-6,15.44-6.58l.09-.05h0a3.43,3.43,0,0,0,1-1.3c.32-.85,3.07-.72,3.81-1.35,1-.83,2.15-1.5,3.19-2.25C207.57,544.38,208.73,543.65,208.09,542.45Z" fill="#63331e"/>
            <path id="Trazado_115981" data-name="Trazado 115981" d="M199.29,545.6a34.159,34.159,0,0,0,8.93-2.8,1.889,1.889,0,0,0-.13-.35l-12.42-11.21q-3.09.18-6.13.54l-61.3,31.6s-6.73,8.14-10.87,13.82c8.36-4.06,18.43-4.55,27.27-7.19,4.18-1.25,7.51-3.67,11.49-5.24,1.51-.6,2.86-1.31,4.3-2,1.12-.56,4-.91,3.53-2.28s-3.09.81-4.09,1.25c-2.08.91-4.18,1.66-6.33,2.41-3.78,1.31-7.58,2.62-11.39,3.87-2,.68-6.49,3.14-7.16.85s5.95-2.67,8.09-3.36c5.5-1.77,11.16-3,16.69-4.68s11-4.07,16.7-5.57a55.3,55.3,0,0,0,6.15-1.9c1.37-.53,3.49-2.35,4.32-1.12.63.94-2.66,1.27-2.22,2.09.78,1.44,3.16-.76,4.43-1.6,2.14-1.4,5.78-1.92,6-4.46.13-1.7-2.91.48-3.81,1-1.27.79-4.17,2.4-4.65,1C185.32,546.33,195.39,546.25,199.29,545.6Z" fill="#6b391e" opacity="0.2"/>
            <path id="Trazado_115982" data-name="Trazado 115982" d="M133.09,567.75,101.7,539.43,69.26,569.92h0L69,570a1.62,1.62,0,0,0,.44,1.25c.21.34.56,1,1,1.2.79.35.8-.29,1.43.38.31.32.44.74.87,1.07A11.428,11.428,0,0,1,74,575.07c.76.79,2,.9,2.74,1.69s.84,2,2.14,2.36a4.319,4.319,0,0,0,1.39,0,3.1,3.1,0,0,1,2,.21,19.684,19.684,0,0,0,2.49,1.4c1.3.39,2.35.11,3.55.68a41.992,41.992,0,0,0,6,2.63c4.78,1.38,9.63-1.6,14.53-1.46,1.8.05,3.86.43,5.63,0a6.19,6.19,0,0,0,2.8-1.69c2.46-2.1,5.93-1.48,8.85-2.54a5,5,0,0,0,3.26-2.63,3.68,3.68,0,0,1,1.27-1.87c1-.84.46-1.79,1.5-2.54C132.6,571,133.73,569,133.09,567.75Z" fill="#784021"/>
            <path id="Trazado_115983" data-name="Trazado 115983" d="M101.7,539.43,71,568.33c17.33,15.65,45.15,15.39,62.14-.58Z" fill="#9c4d27"/>
            <g id="Grupo_56404" data-name="Grupo 56404">
              <path id="Trazado_115984" data-name="Trazado 115984" d="M101.7,539.43l-28.76,27a41.89,41.89,0,0,0,16.35,9.06c.25.07,4.73-10.78,4.73-10.78s-3.7,11.06-3.58,11.09c1.2.32,2.41.58,3.63.79.1,0,.93-7.09.93-7.09s-.21,7.21,0,7.24a44.21,44.21,0,0,0,26.85-4.34,32.555,32.555,0,0,0-2.15-3.76s3.32,3.13,3.65,2.94a41,41,0,0,0,7.71-5.69Z" fill="#de9a5b"/>
              <path id="Trazado_115985" data-name="Trazado 115985" d="M101.71,539.43,90.45,550c6.35,5.73,17,1.48,22.75-.21Z" fill="#e0a065" opacity="0.2"/>
              <g id="Grupo_56403" data-name="Grupo 56403" opacity="0.3">
                <path id="Trazado_115986" data-name="Trazado 115986" d="M91.43,565a52.832,52.832,0,0,0,11.23,2.56,31.862,31.862,0,0,0,11.29-1,37.1,37.1,0,0,0,10-4.49c.54-.35,1.07-.72,1.59-1.09l-1.81-1.64a37.47,37.47,0,0,1-10.33,5.28,30,30,0,0,1-10.56,1.3,50.935,50.935,0,0,1-11-2.13c-3.69-1-7.4-2.16-11.07-3.52l-.79-.31-.84.78,1.24.5C84,562.58,87.75,563.8,91.43,565Z" fill="#e0a065"/>
                <path id="Trazado_115987" data-name="Trazado 115987" d="M96.77,544.29a18.142,18.142,0,0,0,3.31.78,11.781,11.781,0,0,0,3.51-.06,19.862,19.862,0,0,0,3.38-.83l-1.68-1.52a16.186,16.186,0,0,1-2,.52,10,10,0,0,1-3,.16,16.635,16.635,0,0,1-2.3-.43l-1.4,1.31Z" fill="#e0a065"/>
                <path id="Trazado_115988" data-name="Trazado 115988" d="M128.24,563.38a40.862,40.862,0,0,1-10.2,5.46A45.92,45.92,0,0,1,90.87,570c-3.58-1.11-6.39-3.22-9.1-4.65a34.771,34.771,0,0,0-5.26-2.27l-.61.58a35.7,35.7,0,0,1,5.33,2.59c2.55,1.49,5.26,3.82,9.17,5.15a47.929,47.929,0,0,0,13,2,43.751,43.751,0,0,0,15.38-2.5A42.78,42.78,0,0,0,130,565Z" fill="#e0a065"/>
                <path id="Trazado_115989" data-name="Trazado 115989" d="M95.25,549.36a27.59,27.59,0,0,0,13.92-.56c.71-.22,1.4-.47,2.09-.75l-2.21-2c-.22.07-.44.15-.67.21a25.63,25.63,0,0,1-12.49.31l-1.41-.36-2.4,2.26A31.721,31.721,0,0,0,95.25,549.36Z" fill="#e0a065"/>
                <path id="Trazado_115990" data-name="Trazado 115990" d="M107.77,560a40.364,40.364,0,0,1-6.31.31c-1,0-2.09-.09-3.17-.18a14.846,14.846,0,0,1-2.84-.87c-3.44-1.36-6.82-2.9-10.21-4.38l-.88.83c3.47,1.62,6.92,3.31,10.54,4.85a14.666,14.666,0,0,0,3.24,1.06c1,.12,2.15.22,3.25.28a42.705,42.705,0,0,0,6.59-.12,35.84,35.84,0,0,0,12.82-3.62l1-.57-1.73-1.56-.37.22A34.4,34.4,0,0,1,107.77,560Z" fill="#e0a065"/>
                <path id="Trazado_115991" data-name="Trazado 115991" d="M107,553.22a32.2,32.2,0,0,1-12.7-.62,36.9,36.9,0,0,1-4.87-1.6L87,553.25a37.189,37.189,0,0,0,6.58,2.22,35.421,35.421,0,0,0,13.91.5,32.171,32.171,0,0,0,9.16-3L114.5,551A29.357,29.357,0,0,1,107,553.22Z" fill="#e0a065"/>
              </g>
            </g>
            <path id="Trazado_115992" data-name="Trazado 115992" d="M206.36,540.9l-73.27,26.85-2.03-1.83,73.28-26.85Z" fill="#9e532e"/>
            <g id="Grupo_56405" data-name="Grupo 56405">
              <path id="Trazado_115993" data-name="Trazado 115993" d="M131.06,565.92l73.28-26.85-29.36-26.5-73.27,26.86Z" fill="#f0b46c"/>
              <path id="Trazado_115994" data-name="Trazado 115994" d="M105.29,542.66l72.53-27.52.92.82-71.77,28.22Z" fill="#f0b46c" opacity="0.3"/>
              <path id="Trazado_115995" data-name="Trazado 115995" d="M109.05,546.06l71.77-28.22,1.6,1.45-71.16,28.76Z" fill="#f0b46c" opacity="0.3"/>
              <path id="Trazado_115996" data-name="Trazado 115996" d="M131.06,565.92l73.28-26.85-29.36-26.5-58.32,40.36Z" fill="#cc8747" opacity="0.5"/>
              <path id="Trazado_115997" data-name="Trazado 115997" d="M114.5,550.98l71.76-28.22,1.61,1.45-71.16,28.76Z" fill="#f0b46c" opacity="0.3"/>
              <path id="Trazado_115998" data-name="Trazado 115998" d="M120.11,556.05l71.77-28.22,1.6,1.44-71.63,28.34Z" fill="#f0b46c" opacity="0.3"/>
              <path id="Trazado_115999" data-name="Trazado 115999" d="M123.68,559.26l71.76-28.22,1.61,1.45L125.49,560.9Z" fill="#f0b46c" opacity="0.3"/>
              <path id="Trazado_116000" data-name="Trazado 116000" d="M128.24,563.38,200,535.16l1.61,1.45-71.56,28.4Z" fill="#f0b46c" opacity="0.3"/>
              <path id="Trazado_116001" data-name="Trazado 116001" d="M101.71,539.43l73.27-26.86,9.51,8.58L113.2,549.8Z" fill="#f0b46c" opacity="0.3"/>
            </g>
          </g>
          <g id="Grupo_56410" data-name="Grupo 56410">
            <path id="Trazado_116002" data-name="Trazado 116002" d="M213.67,491.71l23.84,8.86L165.7,535.14s-39.81-10.32-38.17-11.56c7.9-6,17.29-6.73,20-8.83s6.78-4.8,11.46-5.63,12.77-4.64,16.82-7.22c2.95-1.88,2,1.78,6.79-2.15,1.33-1.1,6.14-1.71,6.38-1.87,4.41-2.91,13.43-5.23,14.18-5.27h.09a3.18,3.18,0,0,1,1.45.25c.75.35,2.43-1.43,3.32-1.48,1.17-.07,2.36-.36,3.51-.52C212.09,490.79,213.31,490.55,213.67,491.71Z" fill="#804227"/>
            <g id="Grupo_56407" data-name="Grupo 56407" opacity="0.2">
              <path id="Trazado_116003" data-name="Trazado 116003" d="M144.6,525.22c3.06-2.56,7.08-3.87,10.83-5.13a46.32,46.32,0,0,1,9.46-2.37c2.55-.3,13.32-2.23,13-5.76-2.9-.69-6.29,1.37-8.57,2.88-1.19.79-4.5,3.41-6,2.36,0-3.58,6.59-5.64,9.26-6.59,4.64-1.65,9-2.49,13.27-5.06,1.94-1.18,4.35-3.38,6.62-3.77,3.15-.55,1.09,2.07-.3,2.86-1.19.68-4.83,2.87-2.68,4.55,1.12.86,3.52-.4,4.55-.82a63.282,63.282,0,0,0,7.35-3.72c3.06-1.79,5.84-3.42,9.06-4.94,2.34-1.11,4.37-2.7,6.69-3.84.61-.3,2-.84,3.61-1.53l-4.42-1.64c-1.64.57-3.41.93-5,1.64-2.32,1-4.41,2.4-6.69,3.5-1,.47-6.22,3.46-7.25,2.3s1.49-2.31,2.12-2.86c2.79-2.43-2.69-.95-3.87-.48-3.1,1.23-6.16,2.57-9.21,3.89-1,.42-4.78,1.17-4.8,2.46a6.016,6.016,0,0,1,3.13.33c.23,2.59-4,1.34-5.26,1.35s-2.56.88-3.66,1.39a61.938,61.938,0,0,1-6.41,2.47c-4,1.36-7.85,2-12,3-1.76.41-6.17,1.21-6.23,3.61,2,.18,3.74-1.93,5.8-2,1.25-.06,2.19,0,2.11,1.2-.11,1.61-3.32,2.46-4.58,2.78-6.17,1.58-12.43,2.72-18.59,4.34a27.691,27.691,0,0,0-7.17,2.91c2.24.95,7.08,2.45,12.54,4A28.36,28.36,0,0,1,144.6,525.22Z" fill="#99522b"/>
              <path id="Trazado_116004" data-name="Trazado 116004" d="M229.75,497.68c-2.16,1.23-4.22,2.6-6.35,3.89-3.12,1.9-5.74,3.89-9.21,5.32-.85.36-8.79,4.1-9.33,2.85,1.13-2.47,5.53-3.27,7.81-4,2-.66,6.46-2.1,6.48-4.68-1.93-2-8.72,2.47-10.47,3.39-4,2.1-8,4.3-12.2,6a37.41,37.41,0,0,1-6.82,2.11c-1.39.27-3.45.27-4.4,1.42,1,0,3-.16,3.24,1.11.33,1.49-2,1.76-3.08,2.08-7.39,2.22-15,4.48-21.15,9.15-1.05.8-7.61,6.08-8.34,3.19-.32-1.26,2.82-3.36,3.61-3.94,1.62-1.21,6.1-2.88,6.92-4.78-1.87-1.69-6.4,1.06-8.07,1.8-3,1.34-6.1,2.31-8.87,4-.64.4-2.36,1.84-4.17,3,7,2,14.15,3.88,17.83,4.84,1.82-1.67,3.55-3.41,5.17-5.11a28.519,28.519,0,0,1,8.94-6.4,61.579,61.579,0,0,1,12.06-3.61c1.23-.25,7.31-.74,6.74-2.88-2.31-.42-4.18,1.83-6.44,1.89.85-2.07,6.22-4,8.44-4.63,2.68-.77,5.47-1.15,8.14-2s5.23-2,7.92-2.83c2.53-.8,4.84-2.1,7.31-3,1.64-.61,3.34-.85,5-1.55a72.178,72.178,0,0,0,7.89-4.14l.87-.52Z" fill="#99522b"/>
            </g>
            <path id="Trazado_116005" data-name="Trazado 116005" d="M165.35,532.31,141.54,561.8l-33.28-22.68h-.24a1.45,1.45,0,0,1,.21-1.17c.14-.33.35-1,.69-1.2.65-.42.76.15,1.22-.53a5.908,5.908,0,0,1,.61-1.07,10.17,10.17,0,0,0,.93-1.23c.56-.8,1.63-1.06,2.19-1.87s.45-1.92,1.56-2.39a4.062,4.062,0,0,1,1.25-.17,2.8,2.8,0,0,0,1.77-.46,16.36,16.36,0,0,1,2-1.59c1.1-.53,2.08-.42,3.06-1.09a37,37,0,0,1,4.92-3.16c4.05-1.88,8.8.1,13.14-.69,1.59-.29,3.37-.91,5-.79a5.631,5.631,0,0,1,2.74,1.12c2.49,1.53,5.49.51,8.24,1.05a4.52,4.52,0,0,1,3.28,1.89,3.4,3.4,0,0,0,1.4,1.49c1,.61.67,1.53,1.7,2C164.45,529.52,165.75,531.16,165.35,532.31Z" fill="#754225"/>
            <path id="Trazado_116006" data-name="Trazado 116006" d="M141.54,561.8,110,540.3c13.15-16.29,37.94-19.87,55.36-8Z" fill="#a85831"/>
            <g id="Grupo_56409" data-name="Grupo 56409">
              <path id="Trazado_116007" data-name="Trazado 116007" d="M141.54,561.8,112,541.69c12.3-15.24,35.48-18.59,51.78-7.48Z" fill="#e0a065"/>
              <path id="Trazado_116008" data-name="Trazado 116008" d="M141.54,561.8,130,553.93c4.81-6,14.86-3.64,20.27-2.93Z" fill="#e0a065" opacity="0.2"/>
              <g id="Grupo_56408" data-name="Grupo 56408" opacity="0.3">
                <path id="Trazado_116009" data-name="Trazado 116009" d="M128.7,540.51a47.282,47.282,0,0,1,9.62-3.82,28.541,28.541,0,0,1,10.19-.63,33.433,33.433,0,0,1,9.5,2.63c.54.24,1.06.5,1.58.75l-1.38,1.71a33.808,33.808,0,0,0-10-3.28,26.919,26.919,0,0,0-9.58.29,45.47,45.47,0,0,0-9.45,3.4c-3.15,1.39-6.28,2.93-9.34,4.65l-.66.38-.86-.58,1-.61Q124.045,542.745,128.7,540.51Z" fill="#e0a065"/>
                <path id="Trazado_116010" data-name="Trazado 116010" d="M136.44,558.16a16.607,16.607,0,0,1,2.83-1.15,10.508,10.508,0,0,1,3.13-.43,18,18,0,0,1,3.13.27l-1.28,1.59a14.635,14.635,0,0,0-1.87-.19,9,9,0,0,0-2.66.27,13.345,13.345,0,0,0-2,.7l-1.44-1Z" fill="#e0a065"/>
                <path id="Trazado_116011" data-name="Trazado 116011" d="M161.67,536.86a37,37,0,0,0-9.86-3.46,41.43,41.43,0,0,0-24.34,2.66c-3,1.48-5.22,3.75-7.43,5.39a30.757,30.757,0,0,1-4.35,2.74l-.63-.43a31.76,31.76,0,0,0,4.37-3c2-1.68,4.13-4.12,7.41-5.84a43.215,43.215,0,0,1,11.33-3.54,39.439,39.439,0,0,1,14,.11A39,39,0,0,1,163,535.16Z" fill="#e0a065"/>
                <path id="Trazado_116012" data-name="Trazado 116012" d="M134.36,553.86a24.63,24.63,0,0,1,12.46-1.41c.66.09,1.32.22,2,.37l-1.68,2.08-.63-.1a23.07,23.07,0,0,0-11.15,1.44c-.4.16-.81.33-1.2.51l-2.47-1.68A28.143,28.143,0,0,1,134.36,553.86Z" fill="#e0a065"/>
                <path id="Trazado_116013" data-name="Trazado 116013" d="M144,542.65a36.994,36.994,0,0,0-5.66.59c-.93.16-1.85.37-2.79.6a13.07,13.07,0,0,0-2.4,1.16c-2.87,1.68-5.65,3.52-8.45,5.29l-.91-.61c2.86-1.91,5.68-3.89,8.68-5.76a12.443,12.443,0,0,1,2.73-1.38c.92-.25,1.88-.5,2.85-.7a38.331,38.331,0,0,1,5.88-.8,32.368,32.368,0,0,1,11.93,1.47c.34.11.67.24,1,.36l-1.31,1.63-.36-.15a31.279,31.279,0,0,0-11.19-1.7Z" fill="#e0a065"/>
                <path id="Trazado_116014" data-name="Trazado 116014" d="M144.27,548.81a29,29,0,0,0-11.21,2.29,32.739,32.739,0,0,0-4.12,2.12l-2.48-1.69a32.53,32.53,0,0,1,17.84-5.24,29.091,29.091,0,0,1,8.59,1.45l-1.64,2a26.132,26.132,0,0,0-6.98-.93Z" fill="#e0a065"/>
              </g>
            </g>
            <path id="Trazado_116015" data-name="Trazado 116015" d="M237.51,500.57,165.35,532.3l-1.54,1.91,72.17-31.74Z" fill="#a85831"/>
            <path id="Trazado_116016" data-name="Trazado 116016" d="M163.81,534.21l72.17-31.74-22.28,27.6L141.54,561.8Z" fill="#cc8747"/>
            <path id="Trazado_116017" data-name="Trazado 116017" d="M144.25,558.44l71.61-31.05.69-.86-71.02,30.32Z" fill="#cc8747" opacity="0.3"/>
            <path id="Trazado_116018" data-name="Trazado 116018" d="M147.11,554.9l71.02-30.32,1.22-1.51-70.56,29.75Z" fill="#cc8747" opacity="0.3"/>
            <path id="Trazado_116019" data-name="Trazado 116019" d="M151.25,549.78l71.01-30.32,1.22-1.51L152.92,547.7Z" fill="#cc8747" opacity="0.3"/>
            <path id="Trazado_116020" data-name="Trazado 116020" d="M155.51,544.5l71.01-30.32,1.22-1.51-70.92,30.2Z" fill="#cc8747" opacity="0.3"/>
            <path id="Trazado_116021" data-name="Trazado 116021" d="M158.21,541.15l71.02-30.32,1.21-1.51-70.85,30.12Z" fill="#cc8747" opacity="0.3"/>
            <path id="Trazado_116022" data-name="Trazado 116022" d="M161.67,536.86l71.02-30.32,1.22-1.5-70.86,30.12Z" fill="#cc8747" opacity="0.3"/>
            <path id="Trazado_116023" data-name="Trazado 116023" d="M141.54,561.8l72.16-31.73,7.21-8.94L150.26,551Z" fill="#cc8747" opacity="0.3"/>
          </g>
          <g id="Grupo_56416" data-name="Grupo 56416">
            <g id="Grupo_56414" data-name="Grupo 56414">
              <path id="Trazado_116024" data-name="Trazado 116024" d="M259.69,547.68,245.43,534.8l-65.58,33.81s-16.09,19.45-13.8,19.19c11-1.26,19.06-7.79,22.88-8.18s9.21-1.34,13.58-4.24,13.81-6,19.08-7c3.84-.75.19-3,7.09-3.45,1.93-.14,6.23-3.3,6.54-3.36,5.81-1,14.81-6,15.44-6.58l.09-.05h0a3.43,3.43,0,0,0,.95-1.3c.31-.85,3.07-.72,3.81-1.35,1-.83,2.15-1.5,3.19-2.25C259.18,549.61,260.34,548.87,259.69,547.68Z" fill="#63331e"/>
              <path id="Trazado_116025" data-name="Trazado 116025" d="M250.89,550.83a34.351,34.351,0,0,0,8.94-2.8,1.421,1.421,0,0,0-.14-.35l-12.42-11.21c-2.05.12-4.1.3-6.12.54l-61.3,31.6s-6.74,8.14-10.87,13.82c8.36-4.06,18.42-4.55,27.27-7.19,4.18-1.25,7.5-3.67,11.48-5.24,1.52-.6,2.86-1.31,4.31-2,1.12-.56,4-.91,3.53-2.28s-3.09.81-4.09,1.25c-2.08.91-4.18,1.66-6.33,2.41-3.78,1.31-7.58,2.62-11.39,3.87-2,.68-6.49,3.14-7.16.85s5.94-2.67,8.08-3.36c5.51-1.77,11.16-3,16.69-4.68s11-4.07,16.7-5.57a55.455,55.455,0,0,0,6.16-1.9c1.36-.53,3.49-2.35,4.32-1.12.62.94-2.66,1.27-2.22,2.09.77,1.44,3.15-.76,4.43-1.6,2.14-1.4,5.78-1.92,6-4.46.12-1.7-2.91.48-3.81,1-1.27.79-4.17,2.4-4.65,1C236.93,551.56,247,551.48,250.89,550.83Z" fill="#6b391e" opacity="0.2"/>
              <path id="Trazado_116026" data-name="Trazado 116026" d="M184.69,573l-31.38-28.32-32.44,30.49h-.26a1.58,1.58,0,0,0,.44,1.25c.21.34.56,1,1,1.2.8.35.81-.29,1.44.37.31.33.43.75.86,1.08a10.571,10.571,0,0,1,1.23,1.18c.76.79,2,.9,2.75,1.69s.83,2,2.13,2.36a4.383,4.383,0,0,0,1.4,0,3.1,3.1,0,0,1,2,.21,18.989,18.989,0,0,0,2.49,1.4c1.29.39,2.35.11,3.55.68a41,41,0,0,0,6,2.63c4.78,1.38,9.62-1.6,14.53-1.46,1.8.05,3.86.43,5.63,0a6.29,6.29,0,0,0,2.8-1.69c2.45-2.1,5.92-1.48,8.84-2.54a5,5,0,0,0,3.26-2.63,3.77,3.77,0,0,1,1.28-1.87c1-.84.45-1.79,1.49-2.54C184.21,576.18,185.34,574.18,184.69,573Z" fill="#7a4527"/>
              <path id="Trazado_116027" data-name="Trazado 116027" d="M153.31,544.66l-30.75,28.9c17.33,15.65,45.15,15.39,62.13-.58Z" fill="#9e532e"/>
              <g id="Grupo_56412" data-name="Grupo 56412">
                <path id="Trazado_116028" data-name="Trazado 116028" d="M153.31,544.66l-28.77,27a43.15,43.15,0,0,0,32.51,10.66l1.52-7.53,2.68,7a42.15,42.15,0,0,0,21.42-10.65Z" fill="#e0a065"/>
                <path id="Trazado_116029" data-name="Trazado 116029" d="M153.32,544.66l-11.26,10.58c6.34,5.73,16.94,1.48,22.75-.21Z" fill="#e0a065" opacity="0.2"/>
                <g id="Grupo_56411" data-name="Grupo 56411" opacity="0.3">
                  <path id="Trazado_116030" data-name="Trazado 116030" d="M143,570.18a52.559,52.559,0,0,0,11.23,2.56,31.81,31.81,0,0,0,11.28-1,36.82,36.82,0,0,0,9.95-4.49c.55-.35,1.08-.72,1.6-1.09l-1.81-1.64A37.528,37.528,0,0,1,165,569.77a30,30,0,0,1-10.56,1.3,50.993,50.993,0,0,1-11-2.13c-3.7-1-7.4-2.16-11.07-3.52l-.79-.31-.84.78,1.24.5C135.65,567.81,139.36,569,143,570.18Z" fill="#e0a065"/>
                  <path id="Trazado_116031" data-name="Trazado 116031" d="M148.38,549.51a17.36,17.36,0,0,0,3.31.79,11.721,11.721,0,0,0,3.5-.06,19.994,19.994,0,0,0,3.39-.83l-1.69-1.52a16,16,0,0,1-2,.52,10,10,0,0,1-3,.16,16.748,16.748,0,0,1-2.29-.43l-1.4,1.31A1.147,1.147,0,0,0,148.38,549.51Z" fill="#e0a065"/>
                  <path id="Trazado_116032" data-name="Trazado 116032" d="M179.85,568.61a40.862,40.862,0,0,1-10.2,5.46,45.92,45.92,0,0,1-27.17,1.19c-3.58-1.11-6.39-3.22-9.11-4.65a34.274,34.274,0,0,0-5.25-2.27l-.62.58a35.231,35.231,0,0,1,5.33,2.59c2.56,1.49,5.27,3.82,9.18,5.15a47.926,47.926,0,0,0,13.05,2,43.691,43.691,0,0,0,15.37-2.5,43,43,0,0,0,11.23-5.9Z" fill="#e0a065"/>
                  <path id="Trazado_116033" data-name="Trazado 116033" d="M146.86,554.59a27.55,27.55,0,0,0,13.91-.56q1.06-.33,2.1-.75l-2.21-2-.67.21a25.63,25.63,0,0,1-12.49.31q-.7-.16-1.41-.36l-2.4,2.26A31.751,31.751,0,0,0,146.86,554.59Z" fill="#e0a065"/>
                  <path id="Trazado_116034" data-name="Trazado 116034" d="M159.38,565.25a40.432,40.432,0,0,1-6.32.31c-1,0-2.08-.09-3.16-.19a13.9,13.9,0,0,1-2.84-.86c-3.44-1.36-6.83-2.9-10.21-4.38L136,561c3.47,1.62,6.92,3.31,10.54,4.85a14,14,0,0,0,3.24,1.05c1.05.13,2.15.23,3.25.29a42.713,42.713,0,0,0,6.59-.12,35.9,35.9,0,0,0,12.82-3.62c.35-.18.7-.38,1-.57l-1.73-1.56-.37.22a34.351,34.351,0,0,1-11.96,3.71Z" fill="#e0a065"/>
                  <path id="Trazado_116035" data-name="Trazado 116035" d="M158.63,558.45a32.2,32.2,0,0,1-12.7-.62,36.995,36.995,0,0,1-4.9-1.63l-2.42,2.28a37.286,37.286,0,0,0,6.59,2.22,35.421,35.421,0,0,0,13.91.5,32.171,32.171,0,0,0,9.16-3l-2.16-1.95a29.48,29.48,0,0,1-7.48,2.2Z" fill="#e0a065"/>
                </g>
              </g>
              <path id="Trazado_116036" data-name="Trazado 116036" d="M257.97,546.13l-73.28,26.85-2.02-1.83,73.27-26.85Z" fill="#9e532e"/>
              <g id="Grupo_56413" data-name="Grupo 56413">
                <path id="Trazado_116037" data-name="Trazado 116037" d="M182.67,571.15l73.27-26.85-29.35-26.5-73.27,26.86Z" fill="#f0b46c"/>
                <path id="Trazado_116038" data-name="Trazado 116038" d="M156.89,547.89l72.54-27.52.91.82-71.76,28.22Z" fill="#f0b46c" opacity="0.3"/>
                <path id="Trazado_116039" data-name="Trazado 116039" d="M160.66,551.29l71.76-28.22,1.61,1.45-71.16,28.76Z" fill="#f0b46c" opacity="0.3"/>
                <path id="Trazado_116040" data-name="Trazado 116040" d="M166.11,556.21l71.76-28.22,1.61,1.44L168.32,558.2Z" fill="#f0b46c" opacity="0.3"/>
                <path id="Trazado_116041" data-name="Trazado 116041" d="M171.72,561.27l71.77-28.22,1.6,1.45-71.64,28.34Z" fill="#f0b46c" opacity="0.3"/>
                <path id="Trazado_116042" data-name="Trazado 116042" d="M175.29,564.49l71.76-28.22,1.61,1.45L177.1,566.13Z" fill="#f0b46c" opacity="0.3"/>
                <path id="Trazado_116043" data-name="Trazado 116043" d="M179.85,568.61l71.76-28.22,1.61,1.45-71.56,28.41Z" fill="#f0b46c" opacity="0.3"/>
                <path id="Trazado_116044" data-name="Trazado 116044" d="M153.32,544.66l73.27-26.86,9.5,8.58-71.28,28.65Z" fill="#f0b46c" opacity="0.3"/>
              </g>
            </g>
            <path id="Trazado_116045" data-name="Trazado 116045" d="M168.34,558.26l-1.01,2.89,4.91.52,38.25-18.12Z" fill="#cc8747" opacity="0.4"/>
            <path id="Trazado_116046" data-name="Trazado 116046" d="M167.33,561.15l1.01-2.89,42.15-14.71-40.71,16Z" fill="#cc8747" opacity="0.5"/>
            <g id="Grupo_56415" data-name="Grupo 56415">
              <path id="Trazado_116047" data-name="Trazado 116047" d="M155.12,546.29l-.41,1.14,1.33-.32,8.42-4.02Z" fill="#cc8747" opacity="0.4"/>
              <path id="Trazado_116048" data-name="Trazado 116048" d="M154.71,547.43l.75-.84,9-3.5-9.34,3.2Z" fill="#cc8747" opacity="0.5"/>
            </g>
          </g>
        </g>
      </g>
    </g>
  </g>
</svg>
