<svg xmlns="http://www.w3.org/2000/svg" width="295" height="549.21" viewBox="0 0 295 549.21">
  <g id="Grupo_56921" data-name="Grupo 56921" transform="translate(-705 -4548.705)">
    <rect id="Rectángulo_6682" data-name="Rectángulo 6682" width="295" height="549" rx="13" transform="translate(705 4548.705)" fill="#faede0"/>
    <g id="CF1_tarejta_5_copia" data-name="CF1_tarejta 5 copia" transform="translate(705 4506.435)">
      <g id="Layer_1" data-name="Layer 1">
        <rect id="Rectángulo_6684" data-name="Rectángulo 6684" width="295" height="19.08" transform="translate(0 572.4)" fill="#472ea6"/>
        <g id="Grupo_56338" data-name="Grupo 56338">
          <path id="Trazado_115687" data-name="Trazado 115687" d="M266,573.14c0,1-48.32,1.86-107.94,1.86s-107.93-.83-107.93-1.86,48.32-1.85,107.93-1.85S266,572.12,266,573.14Z" fill="#93857f" opacity="0.6"/>
          <g id="Grupo_56337" data-name="Grupo 56337">
            <g id="Grupo_56333" data-name="Grupo 56333">
              <g id="Grupo_56322" data-name="Grupo 56322">
                <rect id="Rectángulo_6685" data-name="Rectángulo 6685" width="4.54" height="7.87" transform="translate(53.46 538.03)" fill="#bc2e1b"/>
                <rect id="Rectángulo_6686" data-name="Rectángulo 6686" width="5.23" height="10.74" rx="1.03" transform="translate(56.1 536.46)" fill="#120c2a"/>
              </g>
              <g id="Grupo_56323" data-name="Grupo 56323">
                <rect id="Rectángulo_6687" data-name="Rectángulo 6687" width="3.38" height="5.62" rx="1.28" transform="translate(227.95 538.53)" fill="#bc2e1b"/>
                <path id="Trazado_115688" data-name="Trazado 115688" d="M224.23,545.18h4.13a1.29,1.29,0,0,0,1.28-1.29v-5.1a1.28,1.28,0,0,0-1.28-1.28h-6.6Z" fill="#373737"/>
              </g>
              <rect id="Rectángulo_6688" data-name="Rectángulo 6688" width="3.09" height="38.21" transform="translate(118.82 474.66)" fill="#81868a"/>
              <rect id="Rectángulo_6689" data-name="Rectángulo 6689" width="10.29" height="33.95" rx="2.54" transform="translate(115.39 508.12)" fill="#373737"/>
              <path id="Trazado_115689" data-name="Trazado 115689" d="M219.34,543.83V533.27H146.53v5.38H115.39v5.18Z" fill="#120c2a"/>
              <path id="Trazado_115690" data-name="Trazado 115690" d="M107.2,543.45V526.83H62.26v26.84H213.9V543.45Z" fill="#120c2a"/>
              <path id="Trazado_115691" data-name="Trazado 115691" d="M115.39,480.75a1,1,0,0,0-1-1H70.26a1,1,0,0,0-1,1v.42a.28.28,0,0,0,0,.09h0L58,509.2v46.52H70.13l.54-.16a20.53,20.53,0,0,1,37.47-11.44h7.25V481.26h0Z" fill="#febc7c"/>
              <path id="Trazado_115692" data-name="Trazado 115692" d="M99.91,508.44v28.68a20.55,20.55,0,0,0-29.24,18.44l-.54.16H64.56V508.44Z" fill="#fda551"/>
              <g id="Grupo_56325" data-name="Grupo 56325">
                <path id="Trazado_115693" data-name="Trazado 115693" d="M233.25,489.37l-.12.15c-.81,1-2.58,1.42-4.27,1.73-1,.18-1.91.31-2.63.48a101.481,101.481,0,0,1-14,1.87h0c-1.68.15-3.35.29-5,.45h0l-1.57.16c-3.49.38-7,.71-10.56,1q-3.65.29-7.3.5c-1.42.09-2.83.16-4.25.23l-5,.21-1.68.05-2.39.06c-2,.05-4,.07-5.95.09-3,0-6,0-9-.18-1.74-.09-3.48-.2-5.24-.35l-1.33-.12c-1.38-.13-3.27.12-4.55-.4l-10.43-19a14,14,0,0,1,4.07-4.7c.7-.55,1.45-1.07,2.23-1.6a2.424,2.424,0,0,0,.28-.22.27.27,0,0,0,.08-.07h0c1.76-1.55,4.68-6.2,6.9-8a3.22,3.22,0,0,1,1.21-.67c4.38-1,6.29,2.74,9.66,4.27,8.56-9.89,14.66,2,16.13,2.9.34-2.68,14.28-10.94,18.61-10.94,16.94,0,34.65,20.07,35.38,21.7C233.64,481.51,235.2,486.74,233.25,489.37Z" fill="#35237d"/>
                <g id="Grupo_56324" data-name="Grupo 56324">
                  <path id="Trazado_115694" data-name="Trazado 115694" d="M146.37,471.83a2.22,2.22,0,0,1-.06.51,2.17,2.17,0,0,1-4.28-.51,1.929,1.929,0,0,1,0-.24,2.17,2.17,0,0,1,2.16-1.93h.43a2.18,2.18,0,0,1,1.75,2.17Z" fill="#93857f"/>
                  <path id="Trazado_115695" data-name="Trazado 115695" d="M156.43,467.72a6.12,6.12,0,0,1-11.88,2v-.09h.11c1.76-1.55,4.68-6.2,6.9-8a6.12,6.12,0,0,1,4.87,6.09Z" fill="#241753"/>
                  <path id="Trazado_115696" data-name="Trazado 115696" d="M160.93,476.94A2.95,2.95,0,1,1,158,474,2.95,2.95,0,0,1,160.93,476.94Z" fill="#241753"/>
                  <path id="Trazado_115697" data-name="Trazado 115697" d="M156.43,484.91a5,5,0,1,1-5-5A5,5,0,0,1,156.43,484.91Z" fill="#93857f"/>
                  <path id="Trazado_115698" data-name="Trazado 115698" d="M163.1,490.76a5.85,5.85,0,1,1-5.85-5.85,5.85,5.85,0,0,1,5.85,5.85Z" fill="#93857f"/>
                  <circle id="Elipse_4499" data-name="Elipse 4499" cx="3.1" cy="3.1" r="3.1" transform="translate(165.548 490.278) rotate(-5.65)" fill="#93857f"/>
                  <path id="Trazado_115699" data-name="Trazado 115699" d="M179.52,493.86a3.1,3.1,0,1,1-3.1-3.1,3.1,3.1,0,0,1,3.1,3.1Z" fill="#93857f"/>
                  <path id="Trazado_115700" data-name="Trazado 115700" d="M183.86,494.48a3.651,3.651,0,0,1-.3,1.451,3.72,3.72,0,0,1-1,1.389,4.38,4.38,0,0,0-4.22.41,3.74,3.74,0,0,1-1-.89,3.492,3.492,0,0,1-.43-.65,3.64,3.64,0,0,1-.42-1.71,3.7,3.7,0,0,1,1.77-3.16h0a3.679,3.679,0,0,1,1.95-.56,3.73,3.73,0,0,1,3.65,3.72Z" fill="#93857f"/>
                  <path id="Trazado_115701" data-name="Trazado 115701" d="M195.2,494.39a3.589,3.589,0,0,1-.09.81q-3.65.29-7.3.5a3.81,3.81,0,1,1,7.39-1.31Z" fill="#93857f"/>
                  <path id="Trazado_115702" data-name="Trazado 115702" d="M176.42,475.7a6,6,0,1,1-6-6,6,6,0,0,1,6,6Z" fill="#241753"/>
                  <path id="Trazado_115703" data-name="Trazado 115703" d="M185.18,477.11a3.76,3.76,0,1,1-3.76-3.76A3.76,3.76,0,0,1,185.18,477.11Z" fill="#241753"/>
                  <path id="Trazado_115704" data-name="Trazado 115704" d="M199,467a3.76,3.76,0,1,1-3.76-3.76A3.76,3.76,0,0,1,199,467Z" fill="#241753"/>
                  <path id="Trazado_115705" data-name="Trazado 115705" d="M198,479a3.31,3.31,0,1,1-3.31-3.31A3.31,3.31,0,0,1,198,479Z" fill="#93857f"/>
                  <path id="Trazado_115706" data-name="Trazado 115706" d="M181.42,485.54a4.67,4.67,0,1,1-4.67-4.67,4.67,4.67,0,0,1,4.67,4.67Z" fill="#93857f"/>
                  <path id="Trazado_115707" data-name="Trazado 115707" d="M192.57,479.81a2.5,2.5,0,1,1-2.5-2.49,2.5,2.5,0,0,1,2.5,2.49Z" fill="#93857f"/>
                  <path id="Trazado_115708" data-name="Trazado 115708" d="M200,477.69a3.7,3.7,0,1,1-3.7-3.69,3.7,3.7,0,0,1,3.7,3.69Z" fill="#241753"/>
                  <path id="Trazado_115709" data-name="Trazado 115709" d="M214.22,478.68a4.84,4.84,0,1,1-1.414-3.429,4.85,4.85,0,0,1,1.414,3.429Z" fill="#241753"/>
                  <path id="Trazado_115710" data-name="Trazado 115710" d="M215.77,467.72a4.84,4.84,0,1,1-1.414-3.429,4.85,4.85,0,0,1,1.414,3.429Z" fill="#241753"/>
                  <circle id="Elipse_4500" data-name="Elipse 4500" cx="2.95" cy="2.95" r="2.95" transform="translate(215.77 479.01)" fill="#93857f"/>
                  <path id="Trazado_115711" data-name="Trazado 115711" d="M203.14,486.54a4.22,4.22,0,1,1-1.232-2.99,4.23,4.23,0,0,1,1.232,2.99Z" fill="#93857f"/>
                  <path id="Trazado_115712" data-name="Trazado 115712" d="M214.22,489.7a4.85,4.85,0,1,1-4.84-4.84,4.85,4.85,0,0,1,4.84,4.84Z" fill="#93857f"/>
                  <path id="Trazado_115713" data-name="Trazado 115713" d="M223.54,489a2.4,2.4,0,1,1-.7-1.707,2.41,2.41,0,0,1,.7,1.707Z" fill="#93857f"/>
                  <path id="Trazado_115714" data-name="Trazado 115714" d="M233.25,489.37l-.12.15c-.81,1-2.58,1.42-4.27,1.73a2.95,2.95,0,0,1,4.39-1.88Z" fill="#93857f"/>
                  <path id="Trazado_115715" data-name="Trazado 115715" d="M229.43,481.39a2.95,2.95,0,1,1-2.94-2.94,2.95,2.95,0,0,1,2.94,2.94Z" fill="#241753"/>
                </g>
              </g>
              <path id="Trazado_115716" data-name="Trazado 115716" d="M93.87,518a.59.59,0,0,1-.6.59H88.56A.58.58,0,0,1,88,518h0a.59.59,0,0,1,.59-.6H93.3a.6.6,0,0,1,.6.6Z" fill="#120c2a"/>
              <path id="Trazado_115717" data-name="Trazado 115717" d="M99.91,485.5H72.41l-7.85,22.94H99.91Z" fill="#f1eefd"/>
              <rect id="Rectángulo_6690" data-name="Rectángulo 6690" width="7.84" height="10.4" rx="2.73" transform="translate(116.45 470.56)" fill="#373737"/>
              <g id="Grupo_56328" data-name="Grupo 56328">
                <rect id="Rectángulo_6691" data-name="Rectángulo 6691" width="16.43" height="15.36" rx="2.73" transform="translate(50.91 545.9)" fill="#120c2a"/>
                <g id="Grupo_56327" data-name="Grupo 56327">
                  <rect id="Rectángulo_6692" data-name="Rectángulo 6692" width="33.92" height="17.15" rx="2.73" transform="translate(116.71 545.9)" fill="#81868a"/>
                  <g id="Grupo_56326" data-name="Grupo 56326">
                    <rect id="Rectángulo_6693" data-name="Rectángulo 6693" width="2.49" height="17.15" transform="translate(140.81 545.9)" fill="#eaeaea"/>
                    <rect id="Rectángulo_6694" data-name="Rectángulo 6694" width="2.49" height="17.15" transform="translate(124.04 545.9)" fill="#eaeaea"/>
                  </g>
                </g>
              </g>
              <path id="Trazado_115718" data-name="Trazado 115718" d="M143.12,534.56a1.7,1.7,0,0,1,1.66-1.7h76.73L229,548.23h-3.79l-5.86-12h-74.6a1.7,1.7,0,0,1-1.63-1.67Z" fill="#120c2a"/>
              <path id="Trazado_115719" data-name="Trazado 115719" d="M137.99,461.61l17.08,19.35h83.18l21.72,38.16-8.85,14.72H141.67l-14.48-72.23Z" fill="#febc7c"/>
              <g id="Grupo_56329" data-name="Grupo 56329">
                <path id="Trazado_115720" data-name="Trazado 115720" d="M233.41,521.61A4.7,4.7,0,0,0,237,523.9h6.11c1.26,0,1.7-1,1-2.29l-14.87-26.35a4.65,4.65,0,0,0-3.57-2.28h-6.11c-1.26,0-1.71,1-1,2.28Z" fill="#fda551"/>
                <path id="Trazado_115721" data-name="Trazado 115721" d="M215.22,521.61a4.7,4.7,0,0,0,3.58,2.29h6.11c1.26,0,1.7-1,1-2.29L211,495.26a4.65,4.65,0,0,0-3.57-2.28h-6.11c-1.26,0-1.71,1-1,2.28Z" fill="#fda551"/>
                <path id="Trazado_115722" data-name="Trazado 115722" d="M197,521.61a4.68,4.68,0,0,0,3.58,2.29h6.11c1.26,0,1.7-1,1-2.29l-14.87-26.35a4.65,4.65,0,0,0-3.57-2.28h-6.11c-1.27,0-1.71,1-1,2.28Z" fill="#fda551"/>
                <path id="Trazado_115723" data-name="Trazado 115723" d="M178.84,521.61a4.67,4.67,0,0,0,3.57,2.29h6.11c1.27,0,1.71-1,1-2.29l-14.87-26.35a4.65,4.65,0,0,0-3.58-2.28H165c-1.26,0-1.7,1-1,2.28Z" fill="#fda551"/>
                <path id="Trazado_115724" data-name="Trazado 115724" d="M160.65,521.61a4.67,4.67,0,0,0,3.57,2.29h6.11c1.27,0,1.71-1,1-2.29l-14.87-26.35a4.65,4.65,0,0,0-3.58-2.28h-6.11c-1.26,0-1.7,1-1,2.28Z" fill="#fda551"/>
              </g>
              <path id="Trazado_115725" data-name="Trazado 115725" d="M242.14,487.8H132.44l-.62-3.08H240.39Z" fill="#fda551"/>
              <g id="Grupo_56331" data-name="Grupo 56331">
                <rect id="Rectángulo_6695" data-name="Rectángulo 6695" width="14.72" height="13.88" rx="3.1" transform="translate(125.02 528.09)" fill="#81868a"/>
                <rect id="Rectángulo_6696" data-name="Rectángulo 6696" width="14.72" height="1.07" transform="translate(125.02 531.86)" fill="#eaeaea"/>
                <g id="Grupo_56330" data-name="Grupo 56330">
                  <rect id="Rectángulo_6697" data-name="Rectángulo 6697" width="0.66" height="5.86" transform="translate(135.92 533.84)" fill="#eaeaea"/>
                  <rect id="Rectángulo_6698" data-name="Rectángulo 6698" width="0.67" height="5.86" transform="translate(133.34 533.84)" fill="#eaeaea"/>
                  <rect id="Rectángulo_6699" data-name="Rectángulo 6699" width="0.66" height="5.86" transform="translate(130.76 533.84)" fill="#eaeaea"/>
                  <rect id="Rectángulo_6700" data-name="Rectángulo 6700" width="0.67" height="5.86" transform="translate(128.19 533.84)" fill="#eaeaea"/>
                </g>
              </g>
              <g id="Grupo_56332" data-name="Grupo 56332">
                <path id="Trazado_115726" data-name="Trazado 115726" d="M70.37,500.2v11.44a.491.491,0,0,1,0,.12.48.48,0,0,1-.45.35H64.65a.47.47,0,0,1-.47-.47V500.2a.47.47,0,0,1,.47-.47h5.26a.48.48,0,0,1,.45.35A.49.49,0,0,1,70.37,500.2Z" fill="#120c2a"/>
                <path id="Trazado_115727" data-name="Trazado 115727" d="M70.37,500.2v11.44a.491.491,0,0,1,0,.12.48.48,0,0,1-.45.35h-1.7a.47.47,0,0,1-.47-.47V500.2a.47.47,0,0,1,.47-.47h1.7a.48.48,0,0,1,.45.35A.49.49,0,0,1,70.37,500.2Z" fill="#787d82"/>
              </g>
            </g>
            <g id="Grupo_56334" data-name="Grupo 56334">
              <path id="Trazado_115728" data-name="Trazado 115728" d="M107.91,557.77v-3.24h-.41a17.221,17.221,0,0,0-.69-3.4l.38-.16-1.28-3-.38.16a16.2,16.2,0,0,0-1.74-2.58l.29-.29-2.29-2.3-.29.3a15.781,15.781,0,0,0-2.69-1.8l.16-.38-3-1.26-.16.38a16.862,16.862,0,0,0-3.28-.65v-.42H89.3v.42a16.67,16.67,0,0,0-3.4.69l-.16-.38-3,1.27.16.38a16.719,16.719,0,0,0-2.58,1.75l-.29-.3-2.29,2.3.29.29a16.738,16.738,0,0,0-1.8,2.68l-.38-.16-1.25,3,.38.16a16.261,16.261,0,0,0-.66,3.29H73.9v3.24h.42a16.439,16.439,0,0,0,.69,3.39l-.38.16,1.27,3,.38-.17a17,17,0,0,0,1.75,2.58l-.29.3,2.29,2.29.29-.29a17.424,17.424,0,0,0,2.68,1.8l-.16.38,3,1.25.16-.38a17.131,17.131,0,0,0,3.29.66v.41h3.24v-.41a17.128,17.128,0,0,0,3.39-.69l.17.37,3-1.27-.16-.38A17.152,17.152,0,0,0,101.5,569l.29.29,2.29-2.29-.29-.3a17,17,0,0,0,1.8-2.68l.38.16,1.25-3-.38-.16a16.16,16.16,0,0,0,.66-3.28Z" fill="#262a2d"/>
              <path id="Trazado_115729" data-name="Trazado 115729" d="M100.29,556.15a9.37,9.37,0,1,1-9.37-9.37A9.37,9.37,0,0,1,100.29,556.15Z" fill="#262a2d"/>
              <path id="Trazado_115730" data-name="Trazado 115730" d="M90.92,570.39a14.25,14.25,0,1,1,14.25-14.24,14.25,14.25,0,0,1-14.25,14.24Zm0-27.15a12.91,12.91,0,1,0,12.9,12.91,12.91,12.91,0,0,0-12.9-12.91Z" fill="#32373a"/>
              <path id="Trazado_115731" data-name="Trazado 115731" d="M98,556.15A7.13,7.13,0,1,1,90.92,549,7.13,7.13,0,0,1,98,556.15Z" fill="#fff"/>
              <path id="Trazado_115732" data-name="Trazado 115732" d="M93.73,556.15a2.81,2.81,0,1,1-.819-1.993A2.81,2.81,0,0,1,93.73,556.15Z" fill="#262a2d"/>
            </g>
            <g id="Grupo_56335" data-name="Grupo 56335">
              <path id="Trazado_115733" data-name="Trazado 115733" d="M190.32,557.77v-3.24h-.42a16.531,16.531,0,0,0-.69-3.4l.38-.16-1.27-3-.38.16a16.252,16.252,0,0,0-1.75-2.58l.3-.29-2.3-2.3-.29.3a16.1,16.1,0,0,0-2.68-1.8l.16-.38-3-1.26-.16.38a17,17,0,0,0-3.29-.65v-.42H171.7v.42a16.439,16.439,0,0,0-3.39.69l-.16-.38-3,1.27.17.38a16.253,16.253,0,0,0-2.58,1.75l-.3-.3-2.29,2.3.29.29a17.43,17.43,0,0,0-1.8,2.68l-.38-.16-1.25,3,.38.16a17,17,0,0,0-.66,3.29h-.41v3.24h.41a17.129,17.129,0,0,0,.69,3.39l-.37.16,1.27,3,.38-.17a16.2,16.2,0,0,0,1.74,2.58l-.29.3,2.29,2.29.3-.29a17,17,0,0,0,2.68,1.8l-.16.38,3,1.25.16-.38a16.867,16.867,0,0,0,3.28.66v.41h3.24v-.41a17.218,17.218,0,0,0,3.4-.69l.16.37,3-1.27-.16-.38A16.2,16.2,0,0,0,183.9,569l.29.29,2.3-2.29-.3-.3A16.3,16.3,0,0,0,188,564l.38.16,1.26-3-.38-.16a16.859,16.859,0,0,0,.65-3.28Z" fill="#262a2d"/>
              <path id="Trazado_115734" data-name="Trazado 115734" d="M182.7,556.15a9.38,9.38,0,1,1-9.38-9.37,9.38,9.38,0,0,1,9.38,9.37Z" fill="#262a2d"/>
              <path id="Trazado_115735" data-name="Trazado 115735" d="M173.32,570.39a14.25,14.25,0,1,1,14.25-14.24,14.25,14.25,0,0,1-14.25,14.24Zm0-27.15a12.91,12.91,0,1,0,12.91,12.91A12.91,12.91,0,0,0,173.32,543.24Z" fill="#32373a"/>
              <path id="Trazado_115736" data-name="Trazado 115736" d="M180.45,556.15a7.13,7.13,0,1,1-7.13-7.13,7.13,7.13,0,0,1,7.13,7.13Z" fill="#fff"/>
              <path id="Trazado_115737" data-name="Trazado 115737" d="M176.14,556.15a2.81,2.81,0,1,1-.823-2A2.82,2.82,0,0,1,176.14,556.15Z" fill="#262a2d"/>
            </g>
            <g id="Grupo_56336" data-name="Grupo 56336">
              <path id="Trazado_115738" data-name="Trazado 115738" d="M226.37,557.77v-3.24H226a17.221,17.221,0,0,0-.69-3.4l.37-.16-1.27-3-.38.16a16.2,16.2,0,0,0-1.74-2.58l.29-.29-2.29-2.3-.3.3a15.7,15.7,0,0,0-2.68-1.8l.16-.38-3-1.26-.16.38a16.862,16.862,0,0,0-3.28-.65v-.42h-3.24v.42a16.53,16.53,0,0,0-3.4.69l-.16-.38-3,1.27.16.38a16.719,16.719,0,0,0-2.58,1.75l-.29-.3-2.29,2.3.29.29a16.738,16.738,0,0,0-1.8,2.68l-.38-.16-1.26,3,.38.16a17,17,0,0,0-.65,3.29h-.42v3.24h.42a16.439,16.439,0,0,0,.69,3.39l-.38.16,1.27,3,.38-.17a16.249,16.249,0,0,0,1.75,2.58l-.29.3,2.29,2.29.29-.29a17.423,17.423,0,0,0,2.68,1.8l-.16.38,3,1.25.16-.38a17,17,0,0,0,3.29.66v.41H211v-.41a17.128,17.128,0,0,0,3.39-.69l.16.37,3-1.27-.17-.38A16.2,16.2,0,0,0,220,569l.3.29,2.29-2.29-.29-.3a17,17,0,0,0,1.8-2.68l.38.16,1.25-3-.38-.16a16.871,16.871,0,0,0,.66-3.28Z" fill="#262a2d"/>
              <path id="Trazado_115739" data-name="Trazado 115739" d="M218.75,556.15a9.37,9.37,0,1,1-9.37-9.37,9.37,9.37,0,0,1,9.37,9.37Z" fill="#262a2d"/>
              <path id="Trazado_115740" data-name="Trazado 115740" d="M209.38,570.39a14.25,14.25,0,1,1,14.24-14.243,14.25,14.25,0,0,1-14.24,14.243Zm0-27.15a12.91,12.91,0,1,0,12.9,12.91,12.91,12.91,0,0,0-12.9-12.91Z" fill="#32373a"/>
              <path id="Trazado_115741" data-name="Trazado 115741" d="M216.5,556.15a7.12,7.12,0,1,1-2.082-5.041,7.13,7.13,0,0,1,2.082,5.041Z" fill="#fff"/>
              <path id="Trazado_115742" data-name="Trazado 115742" d="M212.19,556.15a2.81,2.81,0,1,1-.819-1.993A2.82,2.82,0,0,1,212.19,556.15Z" fill="#262a2d"/>
            </g>
          </g>
        </g>
      </g>
    </g>
  </g>
</svg>
