<svg xmlns="http://www.w3.org/2000/svg" width="295" height="549.21" viewBox="0 0 295 549.21">
  <g id="Grupo_56924" data-name="Grupo 56924" transform="translate(-495 -5229.495)">
    <rect id="Rectángulo_6736" data-name="Rectángulo 6736" width="295" height="549" rx="13" transform="translate(495 5229.495)" fill="#e9e3ff"/>
    <g id="CF1_tarejta_5_copia" data-name="CF1_tarejta 5 copia" transform="translate(495 5187.225)">
      <g id="Layer_1" data-name="Layer 1">
        <rect id="Rectángulo_6717" data-name="Rectángulo 6717" width="295" height="19.08" transform="translate(0 572.4)" fill="#472ea6"/>
        <g id="Grupo_56398" data-name="Grupo 56398">
          <path id="Trazado_115900" data-name="Trazado 115900" d="M266,573.14c0,1-48.32,1.86-107.94,1.86s-107.93-.83-107.93-1.86,48.32-1.85,107.93-1.85S266,572.12,266,573.14Z" fill="#93857f" opacity="0.6"/>
          <g id="Grupo_56397" data-name="Grupo 56397">
            <g id="Grupo_56393" data-name="Grupo 56393">
              <g id="Grupo_56382" data-name="Grupo 56382">
                <rect id="Rectángulo_6718" data-name="Rectángulo 6718" width="4.54" height="7.87" transform="translate(53.46 538.03)" fill="#bc2e1b"/>
                <rect id="Rectángulo_6719" data-name="Rectángulo 6719" width="5.23" height="10.74" rx="1.03" transform="translate(56.1 536.46)" fill="#120c2a"/>
              </g>
              <g id="Grupo_56383" data-name="Grupo 56383">
                <rect id="Rectángulo_6720" data-name="Rectángulo 6720" width="3.38" height="5.62" rx="1.28" transform="translate(227.95 538.53)" fill="#bc2e1b"/>
                <path id="Trazado_115901" data-name="Trazado 115901" d="M224.23,545.18h4.13a1.29,1.29,0,0,0,1.28-1.29v-5.1a1.28,1.28,0,0,0-1.28-1.28h-6.6Z" fill="#373737"/>
              </g>
              <rect id="Rectángulo_6721" data-name="Rectángulo 6721" width="3.09" height="38.21" transform="translate(118.82 474.66)" fill="#81868a"/>
              <rect id="Rectángulo_6722" data-name="Rectángulo 6722" width="10.29" height="33.95" rx="2.54" transform="translate(115.39 508.12)" fill="#373737"/>
              <path id="Trazado_115902" data-name="Trazado 115902" d="M219.34,543.83V533.27H146.53v5.38H115.39v5.18Z" fill="#120c2a"/>
              <path id="Trazado_115903" data-name="Trazado 115903" d="M107.2,543.45V526.83H62.26v26.84H213.9V543.45Z" fill="#120c2a"/>
              <path id="Trazado_115904" data-name="Trazado 115904" d="M115.39,480.75a1,1,0,0,0-1-1H70.26a1,1,0,0,0-1,1v.42a.28.28,0,0,0,0,.09h0L58,509.2v46.52H70.13l.54-.16a20.53,20.53,0,0,1,37.47-11.44h7.25V481.26h0Z" fill="#febc7c"/>
              <path id="Trazado_115905" data-name="Trazado 115905" d="M99.91,508.44v28.68a20.55,20.55,0,0,0-29.24,18.44l-.54.16H64.56V508.44Z" fill="#fda551"/>
              <g id="Grupo_56385" data-name="Grupo 56385">
                <path id="Trazado_115906" data-name="Trazado 115906" d="M233.25,489.37l-.12.15c-.81,1-2.58,1.42-4.27,1.73-1,.18-1.91.31-2.63.48a101.481,101.481,0,0,1-14,1.87h0c-1.68.15-3.35.29-5,.45h0l-1.57.16c-3.49.38-7,.71-10.56,1q-3.65.29-7.3.5c-1.42.09-2.83.16-4.25.23l-5,.21-1.68.05-2.39.06c-2,.05-4,.07-5.95.09-3,0-6,0-9-.18-1.74-.09-3.48-.2-5.24-.35l-1.33-.12c-1.38-.13-3.27.12-4.55-.4l-10.43-19a14,14,0,0,1,4.07-4.7c.7-.55,1.45-1.07,2.23-1.6a2.424,2.424,0,0,0,.28-.22.27.27,0,0,0,.08-.07h0c1.76-1.55,4.68-6.2,6.9-8a3.22,3.22,0,0,1,1.21-.67c4.38-1,6.29,2.74,9.66,4.27,8.56-9.89,14.66,2,16.13,2.9.34-2.68,14.28-10.94,18.61-10.94,16.94,0,34.65,20.07,35.38,21.7C233.64,481.51,235.2,486.74,233.25,489.37Z" fill="#35237d"/>
                <g id="Grupo_56384" data-name="Grupo 56384">
                  <path id="Trazado_115907" data-name="Trazado 115907" d="M146.37,471.83a2.22,2.22,0,0,1-.06.51,2.17,2.17,0,0,1-4.28-.51,1.929,1.929,0,0,1,0-.24,2.17,2.17,0,0,1,2.16-1.93h.43a2.18,2.18,0,0,1,1.75,2.17Z" fill="#93857f"/>
                  <path id="Trazado_115908" data-name="Trazado 115908" d="M156.43,467.72a6.12,6.12,0,0,1-11.88,2v-.09h.11c1.76-1.55,4.68-6.2,6.9-8a6.12,6.12,0,0,1,4.87,6.09Z" fill="#241753"/>
                  <path id="Trazado_115909" data-name="Trazado 115909" d="M160.93,476.94A2.95,2.95,0,1,1,158,474,2.95,2.95,0,0,1,160.93,476.94Z" fill="#241753"/>
                  <path id="Trazado_115910" data-name="Trazado 115910" d="M156.43,484.91a5,5,0,1,1-5-5A5,5,0,0,1,156.43,484.91Z" fill="#93857f"/>
                  <path id="Trazado_115911" data-name="Trazado 115911" d="M163.1,490.76a5.85,5.85,0,1,1-5.85-5.85,5.85,5.85,0,0,1,5.85,5.85Z" fill="#93857f"/>
                  <circle id="Elipse_4514" data-name="Elipse 4514" cx="3.1" cy="3.1" r="3.1" transform="translate(165.548 490.278) rotate(-5.65)" fill="#93857f"/>
                  <path id="Trazado_115912" data-name="Trazado 115912" d="M179.52,493.86a3.1,3.1,0,1,1-3.1-3.1,3.1,3.1,0,0,1,3.1,3.1Z" fill="#93857f"/>
                  <path id="Trazado_115913" data-name="Trazado 115913" d="M183.86,494.48a3.651,3.651,0,0,1-.3,1.451,3.72,3.72,0,0,1-1,1.389,4.38,4.38,0,0,0-4.22.41,3.74,3.74,0,0,1-1-.89,3.492,3.492,0,0,1-.43-.65,3.64,3.64,0,0,1-.42-1.71,3.7,3.7,0,0,1,1.77-3.16h0a3.679,3.679,0,0,1,1.95-.56,3.73,3.73,0,0,1,3.65,3.72Z" fill="#93857f"/>
                  <path id="Trazado_115914" data-name="Trazado 115914" d="M195.2,494.39a3.589,3.589,0,0,1-.09.81q-3.65.29-7.3.5a3.81,3.81,0,1,1,7.39-1.31Z" fill="#93857f"/>
                  <path id="Trazado_115915" data-name="Trazado 115915" d="M176.42,475.7a6,6,0,1,1-6-6,6,6,0,0,1,6,6Z" fill="#241753"/>
                  <path id="Trazado_115916" data-name="Trazado 115916" d="M185.18,477.11a3.76,3.76,0,1,1-3.76-3.76A3.76,3.76,0,0,1,185.18,477.11Z" fill="#241753"/>
                  <path id="Trazado_115917" data-name="Trazado 115917" d="M199,467a3.76,3.76,0,1,1-3.76-3.76A3.76,3.76,0,0,1,199,467Z" fill="#241753"/>
                  <path id="Trazado_115918" data-name="Trazado 115918" d="M198,479a3.31,3.31,0,1,1-3.31-3.31A3.31,3.31,0,0,1,198,479Z" fill="#93857f"/>
                  <path id="Trazado_115919" data-name="Trazado 115919" d="M181.42,485.54a4.67,4.67,0,1,1-4.67-4.67,4.67,4.67,0,0,1,4.67,4.67Z" fill="#93857f"/>
                  <path id="Trazado_115920" data-name="Trazado 115920" d="M192.57,479.81a2.5,2.5,0,1,1-2.5-2.49,2.5,2.5,0,0,1,2.5,2.49Z" fill="#93857f"/>
                  <path id="Trazado_115921" data-name="Trazado 115921" d="M200,477.69a3.7,3.7,0,1,1-3.7-3.69,3.7,3.7,0,0,1,3.7,3.69Z" fill="#241753"/>
                  <path id="Trazado_115922" data-name="Trazado 115922" d="M214.22,478.68a4.84,4.84,0,1,1-1.414-3.429,4.85,4.85,0,0,1,1.414,3.429Z" fill="#241753"/>
                  <path id="Trazado_115923" data-name="Trazado 115923" d="M215.77,467.72a4.84,4.84,0,1,1-1.414-3.429,4.85,4.85,0,0,1,1.414,3.429Z" fill="#241753"/>
                  <circle id="Elipse_4515" data-name="Elipse 4515" cx="2.95" cy="2.95" r="2.95" transform="translate(215.77 479.01)" fill="#93857f"/>
                  <path id="Trazado_115924" data-name="Trazado 115924" d="M203.14,486.54a4.22,4.22,0,1,1-1.232-2.99,4.23,4.23,0,0,1,1.232,2.99Z" fill="#93857f"/>
                  <path id="Trazado_115925" data-name="Trazado 115925" d="M214.22,489.7a4.85,4.85,0,1,1-4.84-4.84,4.85,4.85,0,0,1,4.84,4.84Z" fill="#93857f"/>
                  <path id="Trazado_115926" data-name="Trazado 115926" d="M223.54,489a2.4,2.4,0,1,1-.7-1.707,2.41,2.41,0,0,1,.7,1.707Z" fill="#93857f"/>
                  <path id="Trazado_115927" data-name="Trazado 115927" d="M233.25,489.37l-.12.15c-.81,1-2.58,1.42-4.27,1.73a2.95,2.95,0,0,1,4.39-1.88Z" fill="#93857f"/>
                  <path id="Trazado_115928" data-name="Trazado 115928" d="M229.43,481.39a2.95,2.95,0,1,1-2.94-2.94,2.95,2.95,0,0,1,2.94,2.94Z" fill="#241753"/>
                </g>
              </g>
              <path id="Trazado_115929" data-name="Trazado 115929" d="M93.87,518a.59.59,0,0,1-.6.59H88.56A.58.58,0,0,1,88,518h0a.59.59,0,0,1,.59-.6H93.3a.6.6,0,0,1,.6.6Z" fill="#120c2a"/>
              <path id="Trazado_115930" data-name="Trazado 115930" d="M99.91,485.5H72.41l-7.85,22.94H99.91Z" fill="#f1eefd"/>
              <rect id="Rectángulo_6723" data-name="Rectángulo 6723" width="7.84" height="10.4" rx="2.73" transform="translate(116.45 470.56)" fill="#373737"/>
              <g id="Grupo_56388" data-name="Grupo 56388">
                <rect id="Rectángulo_6724" data-name="Rectángulo 6724" width="16.43" height="15.36" rx="2.73" transform="translate(50.91 545.9)" fill="#120c2a"/>
                <g id="Grupo_56387" data-name="Grupo 56387">
                  <rect id="Rectángulo_6725" data-name="Rectángulo 6725" width="33.92" height="17.15" rx="2.73" transform="translate(116.71 545.9)" fill="#81868a"/>
                  <g id="Grupo_56386" data-name="Grupo 56386">
                    <rect id="Rectángulo_6726" data-name="Rectángulo 6726" width="2.49" height="17.15" transform="translate(140.81 545.9)" fill="#eaeaea"/>
                    <rect id="Rectángulo_6727" data-name="Rectángulo 6727" width="2.49" height="17.15" transform="translate(124.04 545.9)" fill="#eaeaea"/>
                  </g>
                </g>
              </g>
              <path id="Trazado_115931" data-name="Trazado 115931" d="M143.12,534.56a1.7,1.7,0,0,1,1.66-1.7h76.73L229,548.23h-3.79l-5.86-12h-74.6a1.7,1.7,0,0,1-1.63-1.67Z" fill="#120c2a"/>
              <path id="Trazado_115932" data-name="Trazado 115932" d="M137.99,461.61l17.08,19.35h83.18l21.72,38.16-8.85,14.72H141.67l-14.48-72.23Z" fill="#febc7c"/>
              <g id="Grupo_56389" data-name="Grupo 56389">
                <path id="Trazado_115933" data-name="Trazado 115933" d="M233.41,521.61A4.7,4.7,0,0,0,237,523.9h6.11c1.26,0,1.7-1,1-2.29l-14.87-26.35a4.65,4.65,0,0,0-3.57-2.28h-6.11c-1.26,0-1.71,1-1,2.28Z" fill="#fda551"/>
                <path id="Trazado_115934" data-name="Trazado 115934" d="M215.22,521.61a4.7,4.7,0,0,0,3.58,2.29h6.11c1.26,0,1.7-1,1-2.29L211,495.26a4.65,4.65,0,0,0-3.57-2.28h-6.11c-1.26,0-1.71,1-1,2.28Z" fill="#fda551"/>
                <path id="Trazado_115935" data-name="Trazado 115935" d="M197,521.61a4.68,4.68,0,0,0,3.58,2.29h6.11c1.26,0,1.7-1,1-2.29l-14.87-26.35a4.65,4.65,0,0,0-3.57-2.28h-6.11c-1.27,0-1.71,1-1,2.28Z" fill="#fda551"/>
                <path id="Trazado_115936" data-name="Trazado 115936" d="M178.84,521.61a4.67,4.67,0,0,0,3.57,2.29h6.11c1.27,0,1.71-1,1-2.29l-14.87-26.35a4.65,4.65,0,0,0-3.58-2.28H165c-1.26,0-1.7,1-1,2.28Z" fill="#fda551"/>
                <path id="Trazado_115937" data-name="Trazado 115937" d="M160.65,521.61a4.67,4.67,0,0,0,3.57,2.29h6.11c1.27,0,1.71-1,1-2.29l-14.87-26.35a4.65,4.65,0,0,0-3.58-2.28h-6.11c-1.26,0-1.7,1-1,2.28Z" fill="#fda551"/>
              </g>
              <path id="Trazado_115938" data-name="Trazado 115938" d="M242.14,487.8H132.44l-.62-3.08H240.39Z" fill="#fda551"/>
              <g id="Grupo_56391" data-name="Grupo 56391">
                <rect id="Rectángulo_6728" data-name="Rectángulo 6728" width="14.72" height="13.88" rx="3.1" transform="translate(125.02 528.09)" fill="#81868a"/>
                <rect id="Rectángulo_6729" data-name="Rectángulo 6729" width="14.72" height="1.07" transform="translate(125.02 531.86)" fill="#eaeaea"/>
                <g id="Grupo_56390" data-name="Grupo 56390">
                  <rect id="Rectángulo_6730" data-name="Rectángulo 6730" width="0.66" height="5.86" transform="translate(135.92 533.84)" fill="#eaeaea"/>
                  <rect id="Rectángulo_6731" data-name="Rectángulo 6731" width="0.67" height="5.86" transform="translate(133.34 533.84)" fill="#eaeaea"/>
                  <rect id="Rectángulo_6732" data-name="Rectángulo 6732" width="0.66" height="5.86" transform="translate(130.76 533.84)" fill="#eaeaea"/>
                  <rect id="Rectángulo_6733" data-name="Rectángulo 6733" width="0.67" height="5.86" transform="translate(128.19 533.84)" fill="#eaeaea"/>
                </g>
              </g>
              <g id="Grupo_56392" data-name="Grupo 56392">
                <path id="Trazado_115939" data-name="Trazado 115939" d="M70.37,500.2v11.44a.491.491,0,0,1,0,.12.48.48,0,0,1-.45.35H64.65a.47.47,0,0,1-.47-.47V500.2a.47.47,0,0,1,.47-.47h5.26a.48.48,0,0,1,.45.35A.49.49,0,0,1,70.37,500.2Z" fill="#120c2a"/>
                <path id="Trazado_115940" data-name="Trazado 115940" d="M70.37,500.2v11.44a.491.491,0,0,1,0,.12.48.48,0,0,1-.45.35h-1.7a.47.47,0,0,1-.47-.47V500.2a.47.47,0,0,1,.47-.47h1.7a.48.48,0,0,1,.45.35A.49.49,0,0,1,70.37,500.2Z" fill="#787d82"/>
              </g>
            </g>
            <g id="Grupo_56394" data-name="Grupo 56394">
              <path id="Trazado_115941" data-name="Trazado 115941" d="M107.91,557.77v-3.24h-.41a17.221,17.221,0,0,0-.69-3.4l.38-.16-1.28-3-.38.16a16.2,16.2,0,0,0-1.74-2.58l.29-.29-2.29-2.3-.29.3a15.781,15.781,0,0,0-2.69-1.8l.16-.38-3-1.26-.16.38a16.862,16.862,0,0,0-3.28-.65v-.42H89.3v.42a16.67,16.67,0,0,0-3.4.69l-.16-.38-3,1.27.16.38a16.719,16.719,0,0,0-2.58,1.75l-.29-.3-2.29,2.3.29.29a16.738,16.738,0,0,0-1.8,2.68l-.38-.16-1.25,3,.38.16a16.261,16.261,0,0,0-.66,3.29H73.9v3.24h.42a16.439,16.439,0,0,0,.69,3.39l-.38.16,1.27,3,.38-.17a17,17,0,0,0,1.75,2.58l-.29.3,2.29,2.29.29-.29a17.424,17.424,0,0,0,2.68,1.8l-.16.38,3,1.25.16-.38a17.131,17.131,0,0,0,3.29.66v.41h3.24v-.41a17.128,17.128,0,0,0,3.39-.69l.17.37,3-1.27-.16-.38A17.152,17.152,0,0,0,101.5,569l.29.29,2.29-2.29-.29-.3a17,17,0,0,0,1.8-2.68l.38.16,1.25-3-.38-.16a16.16,16.16,0,0,0,.66-3.28Z" fill="#262a2d"/>
              <path id="Trazado_115942" data-name="Trazado 115942" d="M100.29,556.15a9.37,9.37,0,1,1-9.37-9.37A9.37,9.37,0,0,1,100.29,556.15Z" fill="#262a2d"/>
              <path id="Trazado_115943" data-name="Trazado 115943" d="M90.92,570.39a14.25,14.25,0,1,1,14.25-14.24,14.25,14.25,0,0,1-14.25,14.24Zm0-27.15a12.91,12.91,0,1,0,12.9,12.91,12.91,12.91,0,0,0-12.9-12.91Z" fill="#32373a"/>
              <path id="Trazado_115944" data-name="Trazado 115944" d="M98,556.15A7.13,7.13,0,1,1,90.92,549,7.13,7.13,0,0,1,98,556.15Z" fill="#fff"/>
              <path id="Trazado_115945" data-name="Trazado 115945" d="M93.73,556.15a2.81,2.81,0,1,1-.819-1.993A2.81,2.81,0,0,1,93.73,556.15Z" fill="#262a2d"/>
            </g>
            <g id="Grupo_56395" data-name="Grupo 56395">
              <path id="Trazado_115946" data-name="Trazado 115946" d="M190.32,557.77v-3.24h-.42a16.531,16.531,0,0,0-.69-3.4l.38-.16-1.27-3-.38.16a16.252,16.252,0,0,0-1.75-2.58l.3-.29-2.3-2.3-.29.3a16.1,16.1,0,0,0-2.68-1.8l.16-.38-3-1.26-.16.38a17,17,0,0,0-3.29-.65v-.42H171.7v.42a16.439,16.439,0,0,0-3.39.69l-.16-.38-3,1.27.17.38a16.253,16.253,0,0,0-2.58,1.75l-.3-.3-2.29,2.3.29.29a17.43,17.43,0,0,0-1.8,2.68l-.38-.16-1.25,3,.38.16a17,17,0,0,0-.66,3.29h-.41v3.24h.41a17.129,17.129,0,0,0,.69,3.39l-.37.16,1.27,3,.38-.17a16.2,16.2,0,0,0,1.74,2.58l-.29.3,2.29,2.29.3-.29a17,17,0,0,0,2.68,1.8l-.16.38,3,1.25.16-.38a16.867,16.867,0,0,0,3.28.66v.41h3.24v-.41a17.218,17.218,0,0,0,3.4-.69l.16.37,3-1.27-.16-.38A16.2,16.2,0,0,0,183.9,569l.29.29,2.3-2.29-.3-.3A16.3,16.3,0,0,0,188,564l.38.16,1.26-3-.38-.16a16.859,16.859,0,0,0,.65-3.28Z" fill="#262a2d"/>
              <path id="Trazado_115947" data-name="Trazado 115947" d="M182.7,556.15a9.38,9.38,0,1,1-9.38-9.37,9.38,9.38,0,0,1,9.38,9.37Z" fill="#262a2d"/>
              <path id="Trazado_115948" data-name="Trazado 115948" d="M173.32,570.39a14.25,14.25,0,1,1,14.25-14.24,14.25,14.25,0,0,1-14.25,14.24Zm0-27.15a12.91,12.91,0,1,0,12.91,12.91A12.91,12.91,0,0,0,173.32,543.24Z" fill="#32373a"/>
              <path id="Trazado_115949" data-name="Trazado 115949" d="M180.45,556.15a7.13,7.13,0,1,1-7.13-7.13,7.13,7.13,0,0,1,7.13,7.13Z" fill="#fff"/>
              <path id="Trazado_115950" data-name="Trazado 115950" d="M176.14,556.15a2.81,2.81,0,1,1-.823-2A2.82,2.82,0,0,1,176.14,556.15Z" fill="#262a2d"/>
            </g>
            <g id="Grupo_56396" data-name="Grupo 56396">
              <path id="Trazado_115951" data-name="Trazado 115951" d="M226.37,557.77v-3.24H226a17.221,17.221,0,0,0-.69-3.4l.37-.16-1.27-3-.38.16a16.2,16.2,0,0,0-1.74-2.58l.29-.29-2.29-2.3-.3.3a15.7,15.7,0,0,0-2.68-1.8l.16-.38-3-1.26-.16.38a16.862,16.862,0,0,0-3.28-.65v-.42h-3.24v.42a16.53,16.53,0,0,0-3.4.69l-.16-.38-3,1.27.16.38a16.719,16.719,0,0,0-2.58,1.75l-.29-.3-2.29,2.3.29.29a16.738,16.738,0,0,0-1.8,2.68l-.38-.16-1.26,3,.38.16a17,17,0,0,0-.65,3.29h-.42v3.24h.42a16.439,16.439,0,0,0,.69,3.39l-.38.16,1.27,3,.38-.17a16.249,16.249,0,0,0,1.75,2.58l-.29.3,2.29,2.29.29-.29a17.423,17.423,0,0,0,2.68,1.8l-.16.38,3,1.25.16-.38a17,17,0,0,0,3.29.66v.41H211v-.41a17.128,17.128,0,0,0,3.39-.69l.16.37,3-1.27-.17-.38A16.2,16.2,0,0,0,220,569l.3.29,2.29-2.29-.29-.3a17,17,0,0,0,1.8-2.68l.38.16,1.25-3-.38-.16a16.871,16.871,0,0,0,.66-3.28Z" fill="#262a2d"/>
              <path id="Trazado_115952" data-name="Trazado 115952" d="M218.75,556.15a9.37,9.37,0,1,1-9.37-9.37,9.37,9.37,0,0,1,9.37,9.37Z" fill="#262a2d"/>
              <path id="Trazado_115953" data-name="Trazado 115953" d="M209.38,570.39a14.25,14.25,0,1,1,14.24-14.243,14.25,14.25,0,0,1-14.24,14.243Zm0-27.15a12.91,12.91,0,1,0,12.9,12.91,12.91,12.91,0,0,0-12.9-12.91Z" fill="#32373a"/>
              <path id="Trazado_115954" data-name="Trazado 115954" d="M216.5,556.15a7.12,7.12,0,1,1-2.082-5.041,7.13,7.13,0,0,1,2.082,5.041Z" fill="#fff"/>
              <path id="Trazado_115955" data-name="Trazado 115955" d="M212.19,556.15a2.81,2.81,0,1,1-.819-1.993A2.82,2.82,0,0,1,212.19,556.15Z" fill="#262a2d"/>
            </g>
          </g>
        </g>
      </g>
    </g>
  </g>
</svg>
