<svg xmlns="http://www.w3.org/2000/svg" width="295" height="512.649" viewBox="0 0 295 512.649">
  <g id="Grupo_55018" data-name="Grupo 55018" transform="translate(-1125 -3824.676)">
    <g id="Grupo_54223" data-name="Grupo 54223" transform="translate(139.682 3789.965)">
      <rect id="Rectángulo_5206" data-name="Rectángulo 5206" width="295" height="512.649" transform="translate(985.318 34.711)" fill="none"/>
      <g id="Grupo_54222" data-name="Grupo 54222">
        <path id="Trazado_101975" data-name="Trazado 101975" d="M985.318,44.711V428.952a463.853,463.853,0,0,0,72.845,11.054c123.357,8.465,222.155-8.3,222.155-8.3v-387Z" fill="#c0b6db"/>
        <path id="Trazado_101976" data-name="Trazado 101976" d="M985.318,34.711V418.952a463.853,463.853,0,0,0,72.845,11.054c123.357,8.465,222.155-8.3,222.155-8.3v-387Z" fill="#f1eefd"/>
      </g>
    </g>
    <g id="Grupo_54998" data-name="Grupo 54998">
      <g id="CF1_icono_1_copia_3" data-name="CF1_icono 1 copia 3" transform="translate(1218.793 4181)">
        <circle id="Elipse_4293" data-name="Elipse 4293" cx="75" cy="75" r="75" transform="translate(0.208)" fill="#bbabf5"/>
        <path id="Trazado_106685" data-name="Trazado 106685" d="M69.553,128.846a58.813,58.813,0,1,1,58.813-58.813A58.813,58.813,0,0,1,69.553,128.846Z" transform="translate(5.475 5.588)" fill="#fcd4e0"/>
        <path id="Trazado_106686" data-name="Trazado 106686" d="M50,11.22V128.846A58.813,58.813,0,1,0,50,11.22Z" transform="translate(25.028 5.588)" fill="#f9aac2"/>
        <path id="Trazado_106687" data-name="Trazado 106687" d="M69.553,11.22a58.813,58.813,0,1,0,58.813,58.813A58.813,58.813,0,0,0,69.553,11.22ZM106.12,77.733a89.882,89.882,0,0,1-12.584,3c.255-3.49.375-7.071.375-10.7s-.12-7.206-.375-10.711a87.741,87.741,0,0,1,12.584,3c10.1,3.281,12.374,6.741,12.374,7.7S116.217,74.437,106.12,77.733ZM69.553,118.959c-3.625,0-9.767-9.363-12.748-26.965,4.135.315,8.4.479,12.748.479s8.614-.165,12.748-.479C79.32,109.6,73.178,118.959,69.553,118.959Zm0-36.343c-4.809,0-9.513-.195-13.992-.6-.315-3.73-.494-7.73-.494-11.984s.18-8.254.494-11.984c4.494-.4,9.183-.614,13.992-.614s9.513.21,13.992.614c.315,3.73.494,7.73.494,11.984s-.18,8.254-.494,11.984C79.066,82.422,74.362,82.617,69.553,82.617ZM20.612,70.033c0-.959,2.277-4.419,12.374-7.7a87.741,87.741,0,0,1,12.584-3c-.255,3.505-.375,7.086-.375,10.711s.12,7.206.375,10.7a89.883,89.883,0,0,1-12.584-3c-10.1-3.311-12.374-6.771-12.374-7.715ZM69.553,21.092c3.625,0,9.767,9.363,12.748,26.965-4.135-.315-8.4-.479-12.748-.479s-8.614.165-12.748.479C59.786,30.455,65.928,21.092,69.553,21.092Zm46.814,34.74a57.088,57.088,0,0,0-7.191-2.846A102.96,102.96,0,0,0,92.458,49.21a97.957,97.957,0,0,0-4.494-18.875A57.672,57.672,0,0,0,85.1,23.654a49.181,49.181,0,0,1,31.264,32.178ZM54.048,23.609a57.676,57.676,0,0,0-2.861,6.756A97.958,97.958,0,0,0,46.693,49.24a102.961,102.961,0,0,0-16.718,3.775,57.092,57.092,0,0,0-7.191,2.846A49.181,49.181,0,0,1,54.048,23.609ZM22.739,84.295a57.093,57.093,0,0,0,7.191,2.846,102.962,102.962,0,0,0,16.718,3.775,97.522,97.522,0,0,0,4.494,18.86A56.566,56.566,0,0,0,54,116.458,49.151,49.151,0,0,1,22.739,84.295Zm62.319,32.163a57.376,57.376,0,0,0,2.861-6.7,97.956,97.956,0,0,0,4.494-18.875,102.961,102.961,0,0,0,16.718-3.775,57.091,57.091,0,0,0,7.191-2.846,49.151,49.151,0,0,1-31.264,32.178Z" transform="translate(5.475 5.588)" fill="#9182ca"/>
        <path id="Trazado_106688" data-name="Trazado 106688" d="M50,11.22v9.872c3.625,0,9.767,9.363,12.748,26.965-4.135-.315-8.4-.479-12.748-.479V57.45c4.809,0,9.513.21,13.992.614.315,3.73.494,7.73.494,11.984s-.18,8.254-.494,11.984c-4.494.4-9.183.6-13.992.6v9.887c4.344,0,8.614-.165,12.748-.479C59.752,109.611,53.625,119,50,119v9.887A58.813,58.813,0,1,0,50,11.265ZM96.814,55.832a57.089,57.089,0,0,0-7.191-2.846A102.961,102.961,0,0,0,72.905,49.21a97.957,97.957,0,0,0-4.494-18.875,57.675,57.675,0,0,0-2.861-6.681A49.181,49.181,0,0,1,96.814,55.832ZM65.5,116.443a57.375,57.375,0,0,0,2.861-6.681A97.959,97.959,0,0,0,72.86,90.886a102.96,102.96,0,0,0,16.718-3.775,57.09,57.09,0,0,0,7.191-2.846A49.151,49.151,0,0,1,65.5,116.443ZM86.567,77.733a89.882,89.882,0,0,1-12.584,3c.255-3.49.375-7.071.375-10.7s-.12-7.206-.375-10.711a87.739,87.739,0,0,1,12.584,3c10.1,3.281,12.374,6.741,12.374,7.7S96.664,74.437,86.567,77.733Z" transform="translate(25.028 5.588)" fill="#9182ca"/>
        <path id="Trazado_106689" data-name="Trazado 106689" d="M19.865,90.673H73.7a4.239,4.239,0,0,0,4.224-4.239V60.248a1.678,1.678,0,0,0-1.693-1.678H12.36Z" transform="translate(6.282 29.17)" fill="#d5fff9"/>
        <path id="Trazado_106690" data-name="Trazado 106690" d="M58.66,58.57H53.582a1.678,1.678,0,0,1,1.693,1.678V86.389a4.239,4.239,0,0,1-4.224,4.284h5.078a4.239,4.239,0,0,0,4.224-4.239V60.248A1.678,1.678,0,0,0,58.66,58.57Z" transform="translate(25.551 29.17)" fill="#abfff3"/>
        <path id="Trazado_106691" data-name="Trazado 106691" d="M76.717,109.28H27.282a3.475,3.475,0,0,1-3.4-2.711L12.511,57.208h-7.8a3.49,3.49,0,1,1,0-6.966H15.283a3.475,3.475,0,0,1,3.4,2.637l11.34,49.435H76.717a3.49,3.49,0,1,1,0,6.981Z" transform="translate(0.618 25.019)" fill="#9182ca"/>
        <path id="Trazado_106692" data-name="Trazado 106692" d="M61.093,91.94c0,4.584-2.022,8.134-6.621,8.134a8.192,8.192,0,0,1-1.6,0,8.314,8.314,0,0,1,0-16.314,9.559,9.559,0,0,1,1.6,0C59.071,83.791,61.093,87.342,61.093,91.94Z" transform="translate(23.118 41.7)" fill="#7a6d79"/>
        <path id="Trazado_106693" data-name="Trazado 106693" d="M52.243,83.66a8.2,8.2,0,0,0-1.6.165,8.3,8.3,0,0,1,0,16.3,8.194,8.194,0,0,0,1.6.165,8.314,8.314,0,1,0,0-16.628Z" transform="translate(25.347 41.666)" fill="#685e68"/>
        <circle id="Elipse_4294" data-name="Elipse 4294" cx="2.726" cy="2.726" r="2.726" transform="translate(74.863 130.914)" fill="#d5fff9"/>
        <path id="Trazado_106694" data-name="Trazado 106694" d="M28.063,91.94c0,4.584-2.022,8.134-6.621,8.134a8.192,8.192,0,0,1-1.6,0,8.314,8.314,0,0,1,0-16.314,9.559,9.559,0,0,1,1.6,0C26.041,83.791,28.063,87.342,28.063,91.94Z" transform="translate(6.668 41.7)" fill="#7a6d79"/>
        <path id="Trazado_106695" data-name="Trazado 106695" d="M19.213,83.66a8.194,8.194,0,0,0-1.6.165,8.314,8.314,0,0,1,0,16.3,8.192,8.192,0,0,0,1.6.165,8.314,8.314,0,1,0,0-16.628Z" transform="translate(8.897 41.666)" fill="#685e68"/>
        <circle id="Elipse_4295" data-name="Elipse 4295" cx="2.726" cy="2.726" r="2.726" transform="translate(25.383 130.914)" fill="#d5fff9"/>
        <path id="Trazado_106696" data-name="Trazado 106696" d="M56.172,67.6h-28.1a1.273,1.273,0,1,1,0-2.532h28.1a1.273,1.273,0,1,1,0,2.532Z" transform="translate(13.403 32.405)" fill="#9182ca"/>
        <path id="Trazado_106697" data-name="Trazado 106697" d="M51.615,74.3H30.283a1.258,1.258,0,0,1-1.273-1.258,1.273,1.273,0,0,1,1.273-1.273H51.615a1.273,1.273,0,0,1,1.273,1.273A1.258,1.258,0,0,1,51.615,74.3Z" transform="translate(14.574 35.745)" fill="#9182ca"/>
      </g>
    </g>
  </g>
</svg>
