<svg xmlns="http://www.w3.org/2000/svg" width="295" height="580" viewBox="0 0 295 580">
  <g id="Grupo_54995" data-name="Grupo 54995" transform="translate(-1125 -5658)">
    <path id="Trazado_101975" data-name="Trazado 101975" d="M985.318,44.711V428.952a463.853,463.853,0,0,0,72.845,11.054c123.357,8.465,222.155-8.3,222.155-8.3v-387Z" transform="translate(139.682 5723.29)" fill="#c0b6db"/>
    <path id="Trazado_101976" data-name="Trazado 101976" d="M985.318-65.289V418.952a463.853,463.853,0,0,0,72.845,11.054c123.357,8.465,222.155-8.3,222.155-8.3v-487Z" transform="translate(139.682 5723.29)" fill="#f1eefd"/>
    <g id="CF1_icono_1_copia_12" data-name="CF1_icono 1 copia 12" transform="translate(1198.427 6088)">
      <circle id="Elipse_4286" data-name="Elipse 4286" cx="75" cy="75" r="75" transform="translate(-0.427)" fill="#bbabf5"/>
      <path id="Trazado_106639" data-name="Trazado 106639" d="M38.233,23a1.783,1.783,0,0,1-1.783-1.783,9.423,9.423,0,0,1,9.423-9.423H64.134a1.8,1.8,0,0,1,0,3.58H45.873a5.857,5.857,0,0,0-5.842,5.842A1.783,1.783,0,0,1,38.233,23Z" transform="translate(18.076 5.872)" fill="#ffba57"/>
      <path id="Trazado_106640" data-name="Trazado 106640" d="M66.009,7.39H57.994A4.494,4.494,0,0,0,53.5,11.884v7.97L55.657,22H68.376l2.157-2.142v-7.97A4.494,4.494,0,0,0,66.039,7.39Z" transform="translate(26.568 3.681)" fill="#f4e9d3"/>
      <path id="Trazado_106641" data-name="Trazado 106641" d="M70.523,15.71H53.49v4.284l8.524,4.3,8.509-4.3Z" transform="translate(26.563 7.824)" fill="#e5d6be"/>
      <path id="Trazado_106642" data-name="Trazado 106642" d="M77.5,28.292H51.062L48.92,26.15v-2.8a4.764,4.764,0,0,1,4.764-4.779h21.2a4.764,4.764,0,0,1,4.764,4.779v2.8Z" transform="translate(24.287 9.249)" fill="#ffe27a"/>
      <path id="Trazado_106643" data-name="Trazado 106643" d="M48.92,27.929l15.37,4.3,15.355-4.3v-4.3H48.92Z" transform="translate(24.287 11.769)" fill="#f9cf58"/>
      <path id="Trazado_106644" data-name="Trazado 106644" d="M98.139,114.1H43.131c-6.951,0-6.951-7.49-6.951-7.49l7.026-73.554a7.146,7.146,0,0,1,7.131-6.472h40.6a7.146,7.146,0,0,1,7.116,6.472l7.026,73.554S105.075,114.1,98.139,114.1Z" transform="translate(17.942 13.238)" fill="#f57fa3"/>
      <path id="Trazado_106645" data-name="Trazado 106645" d="M105.146,79.92a7.161,7.161,0,0,1-6.936,5.423H43.2a7.161,7.161,0,0,1-6.951-5.423l-.18,1.873a7.161,7.161,0,0,0,7.131,7.85H98.21a7.161,7.161,0,0,0,7.116-7.85Z" transform="translate(17.871 39.804)" fill="#ff78cf"/>
      <path id="Trazado_106646" data-name="Trazado 106646" d="M79.545,60.924C78.8,49.6,72.235,40.73,64.25,40.73S49.749,49.524,49,60.789c0,.749,0,21.722,15.3,21.722S79.59,61.628,79.545,60.924Z" transform="translate(24.326 20.285)" fill="#f4e9d3"/>
      <path id="Trazado_106647" data-name="Trazado 106647" d="M64.265,74.4c-8,0-14.561-8.868-15.3-20.194v2.142c0,12.344,6.876,22.336,15.37,22.336S79.695,68.7,79.695,56.352V54.21C78.946,65.535,72.384,74.4,64.4,74.4Z" transform="translate(24.312 26.999)" fill="#e5d6be"/>
      <rect id="Rect치ngulo_5820" data-name="Rect치ngulo 5820" width="25.617" height="3.206" transform="translate(43.336 45.421)" fill="#959cb5"/>
      <rect id="Rect치ngulo_5821" data-name="Rect치ngulo 5821" width="6.397" height="9.602" transform="translate(36.924 51.817)" fill="#7f8499"/>
      <path id="Trazado_106648" data-name="Trazado 106648" d="M25.233,38.852h6.442a1.6,1.6,0,0,0,1.6-1.6v-6.4a1.6,1.6,0,0,0-1.6-1.6H25.233a1.6,1.6,0,0,0-1.6,1.6v6.4a1.6,1.6,0,0,0,1.6,1.6Z" transform="translate(11.691 14.568)" fill="#afb9d2"/>
      <path id="Trazado_106649" data-name="Trazado 106649" d="M49.809,35.662H48.221A3.206,3.206,0,0,1,45,32.456h0a3.206,3.206,0,0,1,3.206-3.206h1.588a1.6,1.6,0,0,1,1.6,1.6v3.206a1.6,1.6,0,0,1-1.588,1.6Z" transform="translate(22.334 14.568)" fill="#afb9d2"/>
      <path id="Trazado_106650" data-name="Trazado 106650" d="M15.054,48.732a4.824,4.824,0,0,1,4.165-2.382H54.692a4.824,4.824,0,0,1,4.165,2.382c5.273,8.988,8.524,21.062,8.524,34.455s-3.251,25.467-8.524,34.455a4.839,4.839,0,0,1-4.165,2.367H19.218a4.839,4.839,0,0,1-4.165-2.367C9.781,108.654,6.53,96.564,6.53,83.187S9.781,57.66,15.054,48.732Z" transform="translate(3.175 23.084)" fill="#6c58b8"/>
      <path id="Trazado_106651" data-name="Trazado 106651" d="M54.572,116.8a3.206,3.206,0,0,0-3.206-3.206H42.678a15.939,15.939,0,0,1-15.355-11.475,92.594,92.594,0,0,1-3.176-25.347A100.144,100.144,0,0,1,28.521,46.35h-9.3a4.824,4.824,0,0,0-4.165,2.382C9.781,57.72,6.53,69.794,6.53,83.187s3.251,25.467,8.524,34.455a4.839,4.839,0,0,0,4.165,2.352H51.366a3.191,3.191,0,0,0,3.206-3.191Z" transform="translate(3.175 23.084)" fill="#472ea6"/>
      <path id="Trazado_106652" data-name="Trazado 106652" d="M38.565,39.94h-16a3.191,3.191,0,0,0-3.206,3.206v6.4H41.831v-6.4a3.206,3.206,0,0,0-3.266-3.206Z" transform="translate(9.564 19.892)" fill="#afb9d2"/>
      <path id="Trazado_106653" data-name="Trazado 106653" d="M30.565,39.94h-8a3.191,3.191,0,0,0-3.206,3.206v6.4h8v-6.4a3.206,3.206,0,0,1,3.206-3.206Z" transform="translate(9.564 19.892)" fill="#959cb5"/>
      <path id="Trazado_106654" data-name="Trazado 106654" d="M28.439,37.25v-6.4a1.6,1.6,0,0,1,1.6-1.6H25.233a1.6,1.6,0,0,0-1.6,1.6v6.4a1.6,1.6,0,0,0,1.6,1.6h4.809a1.6,1.6,0,0,1-1.6-1.6Z" transform="translate(11.691 14.568)" fill="#959cb5"/>
      <path id="Trazado_106655" data-name="Trazado 106655" d="M74.58,27h6.337V42.879H74.58Z" transform="translate(37.066 13.447)" fill="#e2dee2"/>
      <path id="Trazado_106656" data-name="Trazado 106656" d="M85.073,46.052H72.43V37.663a1.783,1.783,0,0,1,1.783-1.783h9.078a1.783,1.783,0,0,1,1.783,1.783Z" transform="translate(35.996 17.87)" fill="#5f99d7"/>
      <path id="Trazado_106657" data-name="Trazado 106657" d="M76.65,35.88V46.052h6.322V37.663a1.783,1.783,0,0,0-1.783-1.783Z" transform="translate(38.097 17.87)" fill="#3c87d0"/>
      <path id="Trazado_106658" data-name="Trazado 106658" d="M69.05,53.6V43.442A2.517,2.517,0,0,1,71.567,41H89.3a2.517,2.517,0,0,1,2.517,2.517V53.673Z" transform="translate(34.312 20.42)" fill="#fe7d43"/>
      <path id="Trazado_106659" data-name="Trazado 106659" d="M84.672,41H78.35a2.517,2.517,0,0,1,2.472,2.442V53.6h6.322V43.442A2.517,2.517,0,0,0,84.672,41Z" transform="translate(38.944 20.42)" fill="#fd6930"/>
      <path id="Trazado_106660" data-name="Trazado 106660" d="M110.737,118.386H64.3a9.468,9.468,0,0,1-9.468-9.468v-21.5a40.926,40.926,0,0,1,8.853-25.467L76.132,46.3H98.9l12.449,15.685A40.927,40.927,0,0,1,120.2,87.451v21.467A9.468,9.468,0,0,1,110.737,118.386Z" transform="translate(27.23 23.059)" fill="#fdfdfd"/>
      <path id="Trazado_106661" data-name="Trazado 106661" d="M98.815,61.985,86.367,46.3H80L92.434,61.985A40.941,40.941,0,0,1,101.3,87.451v21.467a9.468,9.468,0,0,1-9.468,9.468h6.322a9.468,9.468,0,0,0,9.468-9.468v-21.5A40.927,40.927,0,0,0,98.77,61.955Z" transform="translate(39.766 23.059)" fill="#abfff3"/>
      <path id="Trazado_106662" data-name="Trazado 106662" d="M120.2,79.832v21.5a9.468,9.468,0,0,1-9.468,9.468H64.3a9.468,9.468,0,0,1-9.468-9.468v-21.5a40.777,40.777,0,0,1,3.955-17.6h0c6.711-1.243,14.576-1.183,20.628,3.386,13.318,10.1,22.111,15.16,40.357,8.254a41.541,41.541,0,0,1,.434,5.992Z" transform="translate(27.23 30.649)" fill="#d5fff9"/>
      <path id="Trazado_106663" data-name="Trazado 106663" d="M103.285,69.77A57.776,57.776,0,0,1,97.2,71.732c.12,1.318.195,2.652.195,4v21.5A9.468,9.468,0,0,1,87.93,106.7h6.322a9.468,9.468,0,0,0,9.468-9.468v-21.5A41.539,41.539,0,0,0,103.285,69.77Z" transform="translate(43.715 34.748)" fill="#6bd9e7"/>
      <path id="Trazado_106664" data-name="Trazado 106664" d="M97.844,25.284a.854.854,0,0,0-.854-.854H73.321A19.055,19.055,0,0,0,62,28.145l-3.73,2.726a.839.839,0,0,0-.18,1.183l2.741,3.715a.854.854,0,0,0,1.183.18l3.73-2.741a12.883,12.883,0,0,1,7.58-2.472H96.99a.869.869,0,0,0,.854-.854Z" transform="translate(28.768 12.167)" fill="#f3f0f3"/>
      <path id="Trazado_106665" data-name="Trazado 106665" d="M26,78.442A26.066,26.066,0,0,1,58.223,53.1a38.125,38.125,0,0,0,17.977,0,26.081,26.081,0,1,1,0,50.694,38.126,38.126,0,0,0-17.977,0A26.066,26.066,0,0,1,26,78.442Z" transform="translate(12.871 26.076)" fill="#f57fa3"/>
      <g id="Grupo_54936" data-name="Grupo 54936" transform="translate(38.888 78.406)" opacity="0.32">
        <path id="Trazado_106666" data-name="Trazado 106666" d="M56.255,78.451A26.082,26.082,0,0,1,76.364,53.058h-.23a38.125,38.125,0,0,1-17.977,0,26.066,26.066,0,1,0,0,50.694,38.126,38.126,0,0,1,17.977,0h.225a26.081,26.081,0,0,1-20.1-25.467Z" transform="translate(-26.011 -52.339)" fill="#f25585"/>
      </g>
      <ellipse id="Elipse_4287" data-name="Elipse 4287" cx="23.175" cy="14.906" rx="23.175" ry="14.906" transform="translate(56.878 89.613)" fill="#f25585"/>
      <path id="Trazado_106667" data-name="Trazado 106667" d="M57.981,81.217a3,3,0,0,1-1.858-2.771v-.21a10.366,10.366,0,0,0-20.718,0h0a3,3,0,0,1-1.9,2.906A11.64,11.64,0,1,0,43.99,101.77a2.906,2.906,0,0,1,3.161,0A11.64,11.64,0,1,0,57.936,81.232Z" transform="translate(12.858 33.998)" fill="#ebf6fc"/>
      <path id="Trazado_106668" data-name="Trazado 106668" d="M36.818,92.134a11.61,11.61,0,0,1,7.49-10.861A3,3,0,0,0,46.181,78.5h0a10.367,10.367,0,0,1,4.929-8.988A10.351,10.351,0,0,0,35.32,78.337h0A3,3,0,0,1,33.4,81.288,11.64,11.64,0,1,0,43.02,102.47a11.64,11.64,0,0,1-6.2-10.337Z" transform="translate(12.959 33.852)" fill="#cdebfc"/>
      <circle id="Elipse_4288" data-name="Elipse 4288" cx="10.022" cy="10.022" r="10.022" transform="translate(101.145 71.412)" fill="#ebf6fc"/>
      <path id="Trazado_106669" data-name="Trazado 106669" d="M75.27,57.168a10.007,10.007,0,0,1,5.588-8.988,10.322,10.322,0,0,0-3.131-.539,10.037,10.037,0,1,0,4.314,19.025,10.022,10.022,0,0,1-6.771-9.5Z" transform="translate(33.56 23.726)" fill="#cdebfc"/>
      <circle id="Elipse_4289" data-name="Elipse 4289" cx="5.902" cy="5.902" r="5.902" transform="translate(42.152 80.445)" fill="#ebf6fc"/>
      <path id="Trazado_106670" data-name="Trazado 106670" d="M32.719,59.243A5.9,5.9,0,0,1,36,54.015a5.348,5.348,0,0,0-1.843-.315A5.9,5.9,0,1,0,36.7,64.891,5.992,5.992,0,0,1,32.719,59.243Z" transform="translate(13.957 26.745)" fill="#cdebfc"/>
      <path id="Trazado_106671" data-name="Trazado 106671" d="M44.65,65.143V67.45a1.243,1.243,0,0,0,2.487,0V65.143a1.243,1.243,0,1,0-2.487,0Z" transform="translate(22.16 31.825)" fill="#12263f"/>
      <path id="Trazado_106672" data-name="Trazado 106672" d="M60.682,65.189V67.5a1.243,1.243,0,1,0,2.472,0V65.189a1.243,1.243,0,1,0-2.472,0Z" transform="translate(30.141 31.78)" fill="#12263f"/>
      <path id="Trazado_106673" data-name="Trazado 106673" d="M57.22,65.824a3,3,0,0,1-2.232,1,2.906,2.906,0,0,1-2.262-1,1.228,1.228,0,0,0-1.753-.12,1.213,1.213,0,0,0-.12,1.738,5.423,5.423,0,0,0,8.194,0,1.243,1.243,0,0,0-1.828-1.618Z" transform="translate(25.095 32.568)" fill="#12263f"/>
    </g>
  </g>
</svg>
