<svg xmlns="http://www.w3.org/2000/svg" width="295" height="478.324" viewBox="0 0 295 478.324">
  <g id="Grupo_55023" data-name="Grupo 55023" transform="translate(-705 -4445.676)">
    <path id="Trazado_101975" data-name="Trazado 101975" d="M985.318,44.711V428.952a463.853,463.853,0,0,0,72.845,11.054c123.357,8.465,222.155-8.3,222.155-8.3v-387Z" transform="translate(-280.318 4410.965)" fill="#c0b6db"/>
    <path id="Trazado_101976" data-name="Trazado 101976" d="M985.318,34.711V418.952a463.853,463.853,0,0,0,72.845,11.054c123.357,8.465,222.155-8.3,222.155-8.3v-387Z" transform="translate(-280.318 4410.965)" fill="#f1eefd"/>
    <g id="Grupo_55000" data-name="Grupo 55000">
      <g id="CF1_icono_1_copia_5" data-name="CF1_icono 1 copia 5" transform="translate(779.158 4774)">
        <circle id="Elipse_4299" data-name="Elipse 4299" cx="75" cy="75" r="75" transform="translate(-0.158)" fill="#bbabf5"/>
        <path id="Trazado_106713" data-name="Trazado 106713" d="M71.455,14.86H51.891a3.281,3.281,0,0,0,0,6.561h6.5v9.872a3.281,3.281,0,0,0,6.561,0V21.421h6.5a3.281,3.281,0,1,0,0-6.561Z" transform="translate(24.539 7.401)" fill="#f57fa3"/>
        <path id="Trazado_106714" data-name="Trazado 106714" d="M67.112,14.86H57.33V34.544a3.281,3.281,0,0,0,3.281-3.281V21.421h6.5a3.281,3.281,0,1,0,0-6.561Z" transform="translate(28.882 7.401)" fill="#f25585"/>
        <path id="Trazado_106715" data-name="Trazado 106715" d="M40.561,71.141H21.206A3.281,3.281,0,0,1,18,67.86V52.67A23.025,23.025,0,0,1,40.935,29.6h70.408a3.281,3.281,0,0,1,3.281,3.281V52.235a3.281,3.281,0,0,1-3.281,3.281H43.931V67.86a3.281,3.281,0,0,1-3.371,3.281Z" transform="translate(9.294 14.742)" fill="#fed2a8"/>
        <path id="Trazado_106716" data-name="Trazado 106716" d="M91.68,29.6H57.33V55.516H91.68a3.281,3.281,0,0,0,3.281-3.281V32.881A3.281,3.281,0,0,0,91.68,29.6Z" transform="translate(28.882 14.742)" fill="#fda551"/>
        <path id="Trazado_106717" data-name="Trazado 106717" d="M69.429,23.64H56.486A10.591,10.591,0,0,0,46,34.216v22.62A10.591,10.591,0,0,0,56.486,67.413h12.9A10.591,10.591,0,0,0,80.006,56.837V34.216A10.591,10.591,0,0,0,69.429,23.64Z" transform="translate(23.239 11.774)" fill="#fda551"/>
        <path id="Trazado_106718" data-name="Trazado 106718" d="M63.787,23.64H57.33V67.413h6.457A10.591,10.591,0,0,0,74.363,56.837V34.216A10.591,10.591,0,0,0,63.787,23.64Z" transform="translate(28.882 11.774)" fill="#be6b1c"/>
        <path id="Trazado_106719" data-name="Trazado 106719" d="M31.776,102.218h0A14.98,14.98,0,0,1,16.87,87.342c0-9.378,11.145-22.471,12.419-23.969a3.281,3.281,0,0,1,2.487-1.124,3.745,3.745,0,0,1,3,1.768c.3.375.779.959,1.363,1.708,1.034,1.3,2.592,3.371,4.15,5.738,4.224,6.382,6.352,11.73,6.352,15.879A14.98,14.98,0,0,1,31.776,102.218Z" transform="translate(8.731 31.003)" fill="#abfff3"/>
      </g>
    </g>
  </g>
</svg>
