<svg xmlns="http://www.w3.org/2000/svg" width="295" height="549.07" viewBox="0 0 295 549.07">
  <g id="Grupo_56927" data-name="Grupo 56927" transform="translate(-495 -5900.705)">
    <rect id="Rectángulo_6714" data-name="Rectángulo 6714" width="295" height="549" rx="13" transform="translate(495 5900.705)" fill="#e2fffb"/>
    <g id="CF1_tarejta_2_copia" data-name="CF1_tarejta 2 copia" transform="translate(495 5858.294)">
      <g id="Grupo_56381" data-name="Grupo 56381" transform="translate(22.51 480.197)">
        <path id="Trazado_115846" data-name="Trazado 115846" d="M211.15,423.88H217.2V439.1H211.15Z" transform="translate(-182.864 -420.296)" fill="#e1dde1"/>
        <path id="Trazado_115847" data-name="Trazado 115847" d="M218.349,453.85H206.26v-8.007a1.7,1.7,0,0,1,1.7-1.7h8.682a1.7,1.7,0,0,1,1.7,1.7Z" transform="translate(-181.059 -427.773)" fill="#5f98d6"/>
        <path id="Trazado_115848" data-name="Trazado 115848" d="M215.84,444.14v9.711h6.045v-8.007a1.7,1.7,0,0,0-1.7-1.7Z" transform="translate(-184.595 -427.773)" fill="#3c86cf"/>
        <path id="Trazado_115849" data-name="Trazado 115849" d="M198.59,467.748v-9.7a2.4,2.4,0,0,1,2.4-2.4h16.96a2.4,2.4,0,0,1,2.4,2.4v9.7Z" transform="translate(-178.229 -432.017)" fill="#fd8f25"/>
        <path id="Trazado_115850" data-name="Trazado 115850" d="M225.745,455.64H219.7a2.4,2.4,0,0,1,2.4,2.4v9.7h6.045v-9.7a2.4,2.4,0,0,0-2.4-2.4Z" transform="translate(-186.019 -432.017)" fill="#fc6930"/>
        <path id="Trazado_115851" data-name="Trazado 115851" d="M219.75,536.694H175.374a9.048,9.048,0,0,1-9.054-9.054V507.076a39.117,39.117,0,0,1,8.472-24.308l11.889-14.988h21.768l11.887,14.985a39.119,39.119,0,0,1,8.474,24.311v20.55a9.048,9.048,0,0,1-9.061,9.067Z" transform="translate(-166.32 -436.497)" fill="#f25585"/>
        <path id="Trazado_115852" data-name="Trazado 115852" d="M241.442,482.765,229.555,467.78H223.51L235.4,482.765a39.119,39.119,0,0,1,8.468,24.311v20.55a9.048,9.048,0,0,1-9.048,9.067h6.038a9.048,9.048,0,0,0,9.054-9.054V507.076a39.117,39.117,0,0,0-8.472-24.308Z" transform="translate(-187.425 -436.497)" fill="#f57fa3"/>
        <path id="Trazado_115853" data-name="Trazado 115853" d="M228.81,519.868v20.55a9.048,9.048,0,0,1-9.061,9.067H175.374a9.048,9.048,0,0,1-9.054-9.054V519.868a39.063,39.063,0,0,1,3.786-16.765h0c6.417-1.193,13.944-1.129,19.724,3.237,12.714,9.6,21.15,14.436,38.564,7.811a39.844,39.844,0,0,1,.416,5.679Z" transform="translate(-166.32 -449.289)" fill="#ef2a66"/>
        <path id="Trazado_115854" data-name="Trazado 115854" d="M256.112,521a55.467,55.467,0,0,1-5.824,1.893q.189,1.893.189,3.824v20.55a9.048,9.048,0,0,1-9.048,9.067h6.038a9.048,9.048,0,0,0,9.054-9.054V526.717A39.845,39.845,0,0,0,256.112,521Z" transform="translate(-194.038 -456.137)" fill="#f25585"/>
        <path id="Trazado_115855" data-name="Trazado 115855" d="M211.487,419.008a.8.8,0,0,0-.8-.808H188.059a18.191,18.191,0,0,0-10.821,3.54l-3.571,2.644a.814.814,0,0,0-.177,1.129l2.625,3.578a.808.808,0,0,0,1.123.177l3.571-2.618a12.272,12.272,0,0,1,7.25-2.372h22.626a.8.8,0,0,0,.8-.8v-4.417Z" transform="translate(-168.91 -418.2)" fill="#f2eff2"/>
      </g>
      <rect id="Rectángulo_6706" data-name="Rectángulo 6706" width="295" height="19.08" transform="translate(0 572.4)" fill="#472ea6"/>
      <g id="Grupo_56366" data-name="Grupo 56366" transform="translate(70.45 487.068)">
        <rect id="Rectángulo_6707" data-name="Rectángulo 6707" width="24.481" height="3.06" transform="translate(32.141 1.527)" fill="#949bb4"/>
        <rect id="Rectángulo_6708" data-name="Rectángulo 6708" width="6.12" height="9.18" transform="translate(26.021 7.647)" fill="#7f8398"/>
        <g id="Grupo_56364" data-name="Grupo 56364" transform="translate(24.488 0)">
          <path id="Trazado_115830" data-name="Trazado 115830" d="M84.527,438.271h6.127a1.527,1.527,0,0,0,1.527-1.533v-6.12a1.527,1.527,0,0,0-1.527-1.527H84.527A1.527,1.527,0,0,0,83,430.617v6.12a1.533,1.533,0,0,0,1.527,1.533Z" transform="translate(-83 -429.09)" fill="#aeb8d1"/>
          <path id="Trazado_115831" data-name="Trazado 115831" d="M136.1,435.21H134.57a3.06,3.06,0,0,1-3.06-3.06h0a3.06,3.06,0,0,1,3.06-3.06H136.1a1.527,1.527,0,0,1,1.533,1.527v3.06a1.533,1.533,0,0,1-1.533,1.533Z" transform="translate(-100.902 -429.09)" fill="#aeb8d1"/>
        </g>
        <path id="Trazado_115832" data-name="Trazado 115832" d="M52.336,470.161a4.619,4.619,0,0,1,3.975-2.272H90.225a4.619,4.619,0,0,1,3.975,2.271c5.048,8.531,8.146,20.134,8.146,32.924s-3.1,24.393-8.146,32.924a4.619,4.619,0,0,1-3.975,2.271H56.311a4.619,4.619,0,0,1-3.975-2.271c-5.048-8.531-8.146-20.134-8.146-32.924S47.294,478.686,52.336,470.161Z" transform="translate(-44.19 -443.409)" fill="#6c58b8"/>
        <path id="Trazado_115833" data-name="Trazado 115833" d="M90.13,535.22a3.06,3.06,0,0,0-3.06-3.06h-8.3A15.219,15.219,0,0,1,64.1,521.194a88.539,88.539,0,0,1-3.041-24.229,95.723,95.723,0,0,1,4.19-29.075H56.311a4.619,4.619,0,0,0-3.975,2.271c-5.048,8.531-8.146,20.134-8.146,32.924s3.1,24.393,8.146,32.924a4.619,4.619,0,0,0,3.975,2.271H87.039a3.06,3.06,0,0,0,3.092-3.06Z" transform="translate(-44.19 -443.409)" fill="#472ea6"/>
        <path id="Trazado_115834" data-name="Trazado 115834" d="M91.661,453.34H76.36a3.06,3.06,0,0,0-3.06,3.06v6.12H94.753V456.4a3.06,3.06,0,0,0-3.092-3.06Z" transform="translate(-54.933 -438.039)" fill="#aeb8d1"/>
        <g id="Grupo_56365" data-name="Grupo 56365" transform="translate(18.367 0)">
          <path id="Trazado_115835" data-name="Trazado 115835" d="M84.014,453.34H76.36a3.06,3.06,0,0,0-3.06,3.06v6.12h7.647V456.4A3.066,3.066,0,0,1,84.014,453.34Z" transform="translate(-73.3 -438.039)" fill="#949bb4"/>
          <path id="Trazado_115836" data-name="Trazado 115836" d="M87.593,436.737v-6.12a1.527,1.527,0,0,1,1.527-1.527H84.527A1.527,1.527,0,0,0,83,430.617v6.12a1.533,1.533,0,0,0,1.527,1.533H89.12a1.527,1.527,0,0,1-1.527-1.533Z" transform="translate(-76.88 -429.09)" fill="#949bb4"/>
        </g>
      </g>
      <g id="Grupo_56380" data-name="Grupo 56380" transform="translate(182.45 480.197)">
        <rect id="Rectángulo_6707-2" data-name="Rectángulo 6707" width="24.481" height="3.06" transform="translate(32.141 1.527)" fill="#949bb4"/>
        <rect id="Rectángulo_6708-2" data-name="Rectángulo 6708" width="6.12" height="9.18" transform="translate(26.021 7.647)" fill="#7f8398"/>
        <g id="Grupo_56364-2" data-name="Grupo 56364" transform="translate(24.488 0)">
          <path id="Trazado_115830-2" data-name="Trazado 115830" d="M84.527,438.271h6.127a1.527,1.527,0,0,0,1.527-1.533v-6.12a1.527,1.527,0,0,0-1.527-1.527H84.527A1.527,1.527,0,0,0,83,430.617v6.12a1.533,1.533,0,0,0,1.527,1.533Z" transform="translate(-83 -429.09)" fill="#aeb8d1"/>
          <path id="Trazado_115831-2" data-name="Trazado 115831" d="M136.1,435.21H134.57a3.06,3.06,0,0,1-3.06-3.06h0a3.06,3.06,0,0,1,3.06-3.06H136.1a1.527,1.527,0,0,1,1.533,1.527v3.06a1.533,1.533,0,0,1-1.533,1.533Z" transform="translate(-100.902 -429.09)" fill="#aeb8d1"/>
        </g>
        <path id="Trazado_115832-2" data-name="Trazado 115832" d="M52.336,470.161a4.619,4.619,0,0,1,3.975-2.272H90.225a4.619,4.619,0,0,1,3.975,2.271c5.048,8.531,8.146,20.134,8.146,32.924s-3.1,24.393-8.146,32.924a4.619,4.619,0,0,1-3.975,2.271H56.311a4.619,4.619,0,0,1-3.975-2.271c-5.048-8.531-8.146-20.134-8.146-32.924S47.294,478.686,52.336,470.161Z" transform="translate(-44.19 -443.409)" fill="#6c58b8"/>
        <path id="Trazado_115833-2" data-name="Trazado 115833" d="M90.13,535.22a3.06,3.06,0,0,0-3.06-3.06h-8.3A15.219,15.219,0,0,1,64.1,521.194a88.539,88.539,0,0,1-3.041-24.229,95.723,95.723,0,0,1,4.19-29.075H56.311a4.619,4.619,0,0,0-3.975,2.271c-5.048,8.531-8.146,20.134-8.146,32.924s3.1,24.393,8.146,32.924a4.619,4.619,0,0,0,3.975,2.271H87.039a3.06,3.06,0,0,0,3.092-3.06Z" transform="translate(-44.19 -443.409)" fill="#472ea6"/>
        <path id="Trazado_115834-2" data-name="Trazado 115834" d="M91.661,453.34H76.36a3.06,3.06,0,0,0-3.06,3.06v6.12H94.753V456.4a3.06,3.06,0,0,0-3.092-3.06Z" transform="translate(-54.933 -438.039)" fill="#aeb8d1"/>
        <g id="Grupo_56365-2" data-name="Grupo 56365" transform="translate(18.367 0)">
          <path id="Trazado_115835-2" data-name="Trazado 115835" d="M84.014,453.34H76.36a3.06,3.06,0,0,0-3.06,3.06v6.12h7.647V456.4A3.066,3.066,0,0,1,84.014,453.34Z" transform="translate(-73.3 -438.039)" fill="#949bb4"/>
          <path id="Trazado_115836-2" data-name="Trazado 115836" d="M87.593,436.737v-6.12a1.527,1.527,0,0,1,1.527-1.527H84.527A1.527,1.527,0,0,0,83,430.617v6.12a1.533,1.533,0,0,0,1.527,1.533H89.12a1.527,1.527,0,0,1-1.527-1.533Z" transform="translate(-76.88 -429.09)" fill="#949bb4"/>
        </g>
      </g>
      <g id="Grupo_56367" data-name="Grupo 56367" transform="translate(105.703 465.818)">
        <path id="Trazado_115837" data-name="Trazado 115837" d="M102.706,416.11a1.71,1.71,0,0,1-1.716-1.71,9.023,9.023,0,0,1,9.01-9.01h17.452a1.71,1.71,0,1,1,0,3.42H110a5.6,5.6,0,0,0-5.584,5.59,1.71,1.71,0,0,1-1.71,1.71Z" transform="translate(-100.404 -399.093)" fill="#ffb957"/>
        <path id="Trazado_115838" data-name="Trazado 115838" d="M151.639,395.41h-7.66a4.3,4.3,0,0,0-4.309,4.3v7.609l2.057,2.051h12.165l2.051-2.051v-7.609a4.3,4.3,0,0,0-4.3-4.3Z" transform="translate(-114.678 -395.41)" fill="#f3e8d2"/>
        <path id="Trazado_115839" data-name="Trazado 115839" d="M155.943,414.29H139.67V418.4l8.139,4.108,8.133-4.108Z" transform="translate(-114.678 -402.377)" fill="#e4d5bd"/>
        <path id="Trazado_115840" data-name="Trazado 115840" d="M156.611,430.083h-25.27l-2.051-2.057v-2.694a4.562,4.562,0,0,1,4.562-4.562H154.1a4.556,4.556,0,0,1,4.562,4.562v2.675Z" transform="translate(-110.848 -404.769)" fill="#ffe17a"/>
        <path id="Trazado_115841" data-name="Trazado 115841" d="M129.29,436.378l14.689,4.108,14.682-4.108V432.27H129.29Z" transform="translate(-110.848 -409.013)" fill="#f8ce58"/>
        <path id="Trazado_115842" data-name="Trazado 115842" d="M159.6,522.5H107.024c-6.644,0-6.644-7.237-6.644-7.237l6.7-70.3a6.846,6.846,0,0,1,6.814-6.19h38.8a6.84,6.84,0,0,1,6.808,6.189l6.726,70.3S166.233,522.5,159.6,522.5Z" transform="translate(-100.179 -411.415)" fill="#fd8f25"/>
        <path id="Trazado_115843" data-name="Trazado 115843" d="M166.116,560a6.84,6.84,0,0,1-6.638,5.186H106.906A6.852,6.852,0,0,1,100.262,560l-.17,1.8a6.846,6.846,0,0,0,6.814,7.5h52.572a6.846,6.846,0,0,0,6.8-7.5Z" transform="translate(-100.061 -456.15)" fill="#be6b1c"/>
        <path id="Trazado_115844" data-name="Trazado 115844" d="M158.64,490.375c-.713-10.827-6.985-19.295-14.619-19.295s-13.881,8.4-14.613,19.169c-.05.713,0,20.765,14.613,20.765S158.684,491.05,158.64,490.375Z" transform="translate(-110.889 -423.335)" fill="#f3e8d2"/>
        <path id="Trazado_115845" data-name="Trazado 115845" d="M143.979,520.955c-7.635,0-13.881-8.467-14.619-19.295-.044.675-.069,1.363-.069,2.057,0,11.786,6.575,21.345,14.689,21.345s14.682-9.559,14.682-21.345c0-.694,0-1.382-.063-2.057C157.885,512.487,151.613,520.955,143.979,520.955Z" transform="translate(-110.848 -434.62)" fill="#e4d5bd"/>
      </g>
      <g id="Grupo_56368" data-name="Grupo 56368" transform="translate(147.51 480.197)">
        <path id="Trazado_115846-2" data-name="Trazado 115846" d="M211.15,423.88H217.2V439.1H211.15Z" transform="translate(-182.864 -420.296)" fill="#e1dde1"/>
        <path id="Trazado_115847-2" data-name="Trazado 115847" d="M218.349,453.85H206.26v-8.007a1.7,1.7,0,0,1,1.7-1.7h8.682a1.7,1.7,0,0,1,1.7,1.7Z" transform="translate(-181.059 -427.773)" fill="#5f98d6"/>
        <path id="Trazado_115848-2" data-name="Trazado 115848" d="M215.84,444.14v9.711h6.045v-8.007a1.7,1.7,0,0,0-1.7-1.7Z" transform="translate(-184.595 -427.773)" fill="#3c86cf"/>
        <path id="Trazado_115849-2" data-name="Trazado 115849" d="M198.59,467.748v-9.7a2.4,2.4,0,0,1,2.4-2.4h16.96a2.4,2.4,0,0,1,2.4,2.4v9.7Z" transform="translate(-178.229 -432.017)" fill="#fd8f25"/>
        <path id="Trazado_115850-2" data-name="Trazado 115850" d="M225.745,455.64H219.7a2.4,2.4,0,0,1,2.4,2.4v9.7h6.045v-9.7a2.4,2.4,0,0,0-2.4-2.4Z" transform="translate(-186.019 -432.017)" fill="#fc6930"/>
        <path id="Trazado_115851-2" data-name="Trazado 115851" d="M219.75,536.694H175.374a9.048,9.048,0,0,1-9.054-9.054V507.076a39.117,39.117,0,0,1,8.472-24.308l11.889-14.988h21.768l11.887,14.985a39.119,39.119,0,0,1,8.474,24.311v20.55a9.048,9.048,0,0,1-9.061,9.067Z" transform="translate(-166.32 -436.497)" fill="#f25585"/>
        <path id="Trazado_115852-2" data-name="Trazado 115852" d="M241.442,482.765,229.555,467.78H223.51L235.4,482.765a39.119,39.119,0,0,1,8.468,24.311v20.55a9.048,9.048,0,0,1-9.048,9.067h6.038a9.048,9.048,0,0,0,9.054-9.054V507.076a39.117,39.117,0,0,0-8.472-24.308Z" transform="translate(-187.425 -436.497)" fill="#f57fa3"/>
        <path id="Trazado_115853-2" data-name="Trazado 115853" d="M228.81,519.868v20.55a9.048,9.048,0,0,1-9.061,9.067H175.374a9.048,9.048,0,0,1-9.054-9.054V519.868a39.063,39.063,0,0,1,3.786-16.765h0c6.417-1.193,13.944-1.129,19.724,3.237,12.714,9.6,21.15,14.436,38.564,7.811a39.844,39.844,0,0,1,.416,5.679Z" transform="translate(-166.32 -449.289)" fill="#ef2a66"/>
        <path id="Trazado_115854-2" data-name="Trazado 115854" d="M256.112,521a55.467,55.467,0,0,1-5.824,1.893q.189,1.893.189,3.824v20.55a9.048,9.048,0,0,1-9.048,9.067h6.038a9.048,9.048,0,0,0,9.054-9.054V526.717A39.845,39.845,0,0,0,256.112,521Z" transform="translate(-194.038 -456.137)" fill="#f25585"/>
        <path id="Trazado_115855-2" data-name="Trazado 115855" d="M211.487,419.008a.8.8,0,0,0-.8-.808H188.059a18.191,18.191,0,0,0-10.821,3.54l-3.571,2.644a.814.814,0,0,0-.177,1.129l2.625,3.578a.808.808,0,0,0,1.123.177l3.571-2.618a12.272,12.272,0,0,1,7.25-2.372h22.626a.8.8,0,0,0,.8-.8v-4.417Z" transform="translate(-168.91 -418.2)" fill="#f2eff2"/>
      </g>
    </g>
  </g>
</svg>
