<svg xmlns="http://www.w3.org/2000/svg" xmlns:xlink="http://www.w3.org/1999/xlink" width="275.453" height="182.555" viewBox="0 0 275.453 182.555">
  <defs>
    <clipPath id="clip-path">
      <rect id="Rectángulo_3440" data-name="Rectángulo 3440" width="275.453" height="182.555" fill="none"/>
    </clipPath>
  </defs>
  <g id="Grupo_18890" data-name="Grupo 18890" transform="translate(-1146.484 -7370.443)">
    <g id="Grupo_12381" data-name="Grupo 12381" transform="translate(1146.484 7370.443)">
      <path id="Trazado_32771" data-name="Trazado 32771" d="M466.349,11.971l4.1,174.689,31.485-1.529L485.138,11.967" transform="translate(-262.428 -6.734)" fill="#c7ddeb"/>
      <rect id="Rectángulo_3438" data-name="Rectángulo 3438" width="143.059" height="36.131" transform="translate(46.562 146.352)" fill="#c7ddeb"/>
      <rect id="Rectángulo_3439" data-name="Rectángulo 3439" width="106.134" height="31.993" transform="translate(64.8 108.341)" fill="#c7ddeb"/>
      <g id="Grupo_12380" data-name="Grupo 12380">
        <g id="Grupo_12379" data-name="Grupo 12379" clip-path="url(#clip-path)">
          <path id="Trazado_32772" data-name="Trazado 32772" d="M422.073,99.5a3.047,3.047,0,0,1-.017-6.094l40.851-.229h.018a3.047,3.047,0,0,1,.017,6.094l-40.851.229Z" transform="translate(-235.799 -52.433)" fill="#f04f4c"/>
          <path id="Trazado_32773" data-name="Trazado 32773" d="M193.358,122.3l10.282,0,.941,45.249-12.148,0Z" transform="translate(-108.288 -68.822)" fill="#7eb9c7"/>
          <path id="Trazado_32774" data-name="Trazado 32774" d="M260.875,122.289l13.334,0,1.219,45.249-15.754,0Z" transform="translate(-146.126 -68.814)" fill="#7eb9c7"/>
          <path id="Trazado_32775" data-name="Trazado 32775" d="M334.039,122.276l13.334,0,1.219,45.249-15.754,0Z" transform="translate(-187.298 -68.807)" fill="#7eb9c7"/>
          <path id="Trazado_32776" data-name="Trazado 32776" d="M512.26,181.454H476.618L462.11,6.119,429.3,6.271h-.014a3.047,3.047,0,0,1-.014-6.093L467.718,0,482.229,175.36H512.26a3.047,3.047,0,1,1,0,6.094" transform="translate(-239.855 0.001)" fill="#3d4451"/>
          <path id="Trazado_32777" data-name="Trazado 32777" d="M122.652,263.934a2.539,2.539,0,0,1-2.54-2.539l-.007-40.1,124.843-.024a2.539,2.539,0,1,1,0,5.078l-119.764.022.007,35.02a2.54,2.54,0,0,1-2.539,2.54" transform="translate(-67.587 -124.518)" fill="#3d4451"/>
          <path id="Trazado_32778" data-name="Trazado 32778" d="M170.125,166.971l1.309-49.312,17.29,0,1.328,49.312Zm5.266-45.25L174.3,162.908l11.581,0-1.109-41.186Z" transform="translate(-95.734 -66.209)" fill="#3d4451"/>
          <path id="Trazado_32779" data-name="Trazado 32779" d="M242.386,167.989l1.309-49.312,17.29,0,1.328,49.312Zm5.266-45.25-1.094,41.186,11.582,0-1.109-41.186Z" transform="translate(-136.398 -66.781)" fill="#3d4451"/>
          <path id="Trazado_32780" data-name="Trazado 32780" d="M314.646,169.008l1.31-49.312,17.289,0L334.572,169Zm5.266-45.25-1.094,41.186,11.581,0-1.108-41.186Z" transform="translate(-177.061 -67.355)" fill="#3d4451"/>
          <path id="Trazado_32781" data-name="Trazado 32781" d="M195.224,278.089l-12.408,0,0-9.289a4.609,4.609,0,0,1,4.609-4.611h3.189a4.61,4.61,0,0,1,4.611,4.609Z" transform="translate(-102.875 -148.668)" fill="#fdc345"/>
          <path id="Trazado_32782" data-name="Trazado 32782" d="M179.332,277.654l0-10.813a6.134,6.134,0,0,1,6.132-6.134h3.19a6.134,6.134,0,0,1,6.133,6.133l0,10.813Zm9.32-13.9h-3.189a3.084,3.084,0,0,0-3.086,3.087v7.766h9.362V266.84a3.091,3.091,0,0,0-3.087-3.087" transform="translate(-100.914 -146.707)" fill="#3d4451"/>
          <path id="Trazado_32783" data-name="Trazado 32783" d="M261.941,278.077l-12.408,0,0-9.289a4.61,4.61,0,0,1,4.609-4.611h3.189a4.61,4.61,0,0,1,4.611,4.609Z" transform="translate(-140.418 -148.661)" fill="#fdc345"/>
          <path id="Trazado_32784" data-name="Trazado 32784" d="M246.049,277.641l0-10.813a6.134,6.134,0,0,1,6.132-6.134h3.19a6.141,6.141,0,0,1,6.133,6.133l0,10.813Zm9.32-13.9H252.18a3.09,3.09,0,0,0-3.086,3.087l0,7.766,9.362,0v-7.765a3.091,3.091,0,0,0-3.087-3.086" transform="translate(-138.458 -146.7)" fill="#3d4451"/>
          <path id="Trazado_32785" data-name="Trazado 32785" d="M329.653,278.063l-12.409,0,0-9.289a4.61,4.61,0,0,1,4.61-4.611h3.189a4.609,4.609,0,0,1,4.61,4.609Z" transform="translate(-178.522 -148.654)" fill="#fdc345"/>
          <path id="Trazado_32786" data-name="Trazado 32786" d="M313.761,277.628l0-10.813a6.134,6.134,0,0,1,6.132-6.134h3.19a6.133,6.133,0,0,1,6.133,6.132l0,10.813Zm9.32-13.9h-3.189a3.09,3.09,0,0,0-3.086,3.087l0,7.766,9.362,0v-7.766a3.09,3.09,0,0,0-3.087-3.086" transform="translate(-176.562 -146.692)" fill="#3d4451"/>
          <path id="Trazado_32787" data-name="Trazado 32787" d="M146.418,374l-15.435,0,0-11.554a5.734,5.734,0,0,1,5.733-5.735h3.966a5.734,5.734,0,0,1,5.735,5.733Z" transform="translate(-73.707 -200.734)" fill="#fdc345"/>
          <path id="Trazado_32788" data-name="Trazado 32788" d="M127.5,373.567l0-13.077a7.266,7.266,0,0,1,7.256-7.26h3.969a7.259,7.259,0,0,1,7.256,7.256l0,13.078Zm11.222-17.29h-3.968a4.216,4.216,0,0,0-4.21,4.211l0,10.031,12.387,0,0-10.031a4.209,4.209,0,0,0-4.21-4.21" transform="translate(-71.746 -198.773)" fill="#3d4451"/>
          <path id="Trazado_32789" data-name="Trazado 32789" d="M221.145,373.987l-15.434,0,0-11.555a5.733,5.733,0,0,1,5.733-5.735h3.966a5.734,5.734,0,0,1,5.735,5.733Z" transform="translate(-115.758 -200.726)" fill="#fdc345"/>
          <path id="Trazado_32790" data-name="Trazado 32790" d="M202.227,373.553l0-13.078a7.256,7.256,0,0,1,7.256-7.259h3.968a7.266,7.266,0,0,1,7.258,7.256l0,13.078Zm11.221-17.291h-3.967a4.21,4.21,0,0,0-4.21,4.211l0,10.031,12.387,0,0-10.031a4.215,4.215,0,0,0-4.211-4.21" transform="translate(-113.798 -198.765)" fill="#3d4451"/>
          <path id="Trazado_32791" data-name="Trazado 32791" d="M297.132,373.972l-15.434,0,0-11.555a5.734,5.734,0,0,1,5.733-5.735h3.966a5.734,5.734,0,0,1,5.735,5.733Z" transform="translate(-158.518 -200.717)" fill="#fdc345"/>
          <path id="Trazado_32792" data-name="Trazado 32792" d="M278.214,373.539l0-13.078a7.257,7.257,0,0,1,7.256-7.259h3.968a7.266,7.266,0,0,1,7.257,7.257l0,13.077Zm11.221-17.291h-3.967a4.21,4.21,0,0,0-4.21,4.211l0,10.031,12.387,0,0-10.031a4.215,4.215,0,0,0-4.21-4.21" transform="translate(-156.558 -198.757)" fill="#3d4451"/>
          <path id="Trazado_32793" data-name="Trazado 32793" d="M370.827,373.959l-15.434,0,0-11.555a5.733,5.733,0,0,1,5.733-5.735h3.967a5.734,5.734,0,0,1,5.735,5.733Z" transform="translate(-199.989 -200.71)" fill="#fdc345"/>
          <path id="Trazado_32794" data-name="Trazado 32794" d="M351.909,373.525l0-13.078a7.257,7.257,0,0,1,7.256-7.259h3.968a7.266,7.266,0,0,1,7.258,7.256l0,13.078Zm11.221-17.29h-3.967a4.21,4.21,0,0,0-4.21,4.211l0,10.031,12.387,0,0-10.031a4.215,4.215,0,0,0-4.211-4.21" transform="translate(-198.029 -198.749)" fill="#3d4451"/>
          <path id="Trazado_32795" data-name="Trazado 32795" d="M39.36,356.805H3.047a3.047,3.047,0,0,1,0-6.094H33.266l-.008-41.028,169.171-.032.008,42.776a3.047,3.047,0,1,1-6.094,0l-.007-36.682-156.984.029Z" transform="translate(0 -174.25)" fill="#3d4451"/>
          <path id="Trazado_32796" data-name="Trazado 32796" d="M401.471,139.089q-.14,0-.282-.013a3.047,3.047,0,0,1-2.756-3.312L410.6,3.176a3.047,3.047,0,0,1,6.068.557L404.5,136.32a3.048,3.048,0,0,1-3.031,2.769" transform="translate(-224.203 -0.229)" fill="#3d4451"/>
          <path id="Trazado_32797" data-name="Trazado 32797" d="M420.179,67.721a4.514,4.514,0,0,1-.025-9.028l40.851-.229h.025a4.514,4.514,0,0,1,.025,9.028l-40.851.228h-.026" transform="translate(-233.908 -32.899)" fill="#3d4451"/>
          <path id="Trazado_32798" data-name="Trazado 32798" d="M170.125,166.971l1.309-49.312,17.29,0,1.328,49.312Zm5.266-45.25L174.3,162.908l11.581,0-1.109-41.186Z" transform="translate(-95.734 -66.209)" fill="#3d4451"/>
          <path id="Trazado_32799" data-name="Trazado 32799" d="M278.255,33.3a5.117,5.117,0,0,0-5.232-4.787,5.483,5.483,0,0,0-2.231.47,11.274,11.274,0,0,0-10.925-7.624c-6.276,0-11.367,4.7-11.37,10.505a10.37,10.37,0,0,0,.087,1.317H248.5c-4.707,0-8.524,3.165-8.526,7.057s3.812,7.064,8.518,7.066l28.235.016c4.707,0,8.524-3.17,8.526-7.061,0-3.461-3.016-6.363-7-6.958" transform="translate(-135.039 -12.022)" fill="#c7ddeb"/>
          <path id="Trazado_32800" data-name="Trazado 32800" d="M263.814,40.765H263.8l-34.364-.019c-6.5,0-11.792-4.5-11.789-10.024a9.272,9.272,0,0,1,3.556-7.166,12.666,12.666,0,0,1,6.823-2.773c0-.084,0-.168,0-.252,0-7.835,6.846-14.207,15.252-14.207h.01a15.366,15.366,0,0,1,14.152,8.92,8.14,8.14,0,0,1,1.855-.212h0a7.684,7.684,0,0,1,7.656,6.047c5.074,1.18,8.651,5.108,8.648,9.67a9.277,9.277,0,0,1-3.555,7.168,12.883,12.883,0,0,1-8.236,2.847M229.444,23.556a10.043,10.043,0,0,0-6.422,2.19,6.482,6.482,0,0,0-2.527,4.977c0,3.955,4.011,7.175,8.947,7.178l34.364.019h.007a10.036,10.036,0,0,0,6.42-2.193,6.487,6.487,0,0,0,2.527-4.981c0-3.458-3.07-6.428-7.3-7.061l-1.167-.175-.043-1.18a4.788,4.788,0,0,0-4.948-4.456h0a5.209,5.209,0,0,0-2.133.449l-1.465.652-.472-1.533c-1.5-4.87-6.409-8.273-11.938-8.276h-.008c-6.839,0-12.4,5.1-12.408,11.364a11.259,11.259,0,0,0,.1,1.43l.194,1.594h-1.718Z" transform="translate(-122.479 -3.559)" fill="#3d4451"/>
        </g>
      </g>
    </g>
  </g>
</svg>
