<svg xmlns="http://www.w3.org/2000/svg" xmlns:xlink="http://www.w3.org/1999/xlink" width="754.588" height="218.137" viewBox="0 0 754.588 218.137">
  <defs>
    <clipPath id="clip-path">
      <rect id="Rectángulo_3223" data-name="Rectángulo 3223" width="127.724" height="111.019" fill="none"/>
    </clipPath>
    <clipPath id="clip-path-2">
      <rect id="Rectángulo_3230" data-name="Rectángulo 3230" width="119.454" height="115.014" fill="none"/>
    </clipPath>
    <clipPath id="clip-path-3">
      <rect id="Rectángulo_3222" data-name="Rectángulo 3222" width="95.234" height="87.882" fill="none"/>
    </clipPath>
    <clipPath id="clip-path-4">
      <rect id="Rectángulo_3235" data-name="Rectángulo 3235" width="121.541" height="101.385" fill="none"/>
    </clipPath>
  </defs>
  <g id="Grupo_18885" data-name="Grupo 18885" transform="translate(-560.953 -1956.458)">
    <path id="Trazado_31964" data-name="Trazado 31964" d="M1903.516,814.137s324.984-256.881,629.3,0" transform="translate(-1278.016 1296)" fill="none" stroke="#472ea6" stroke-width="2"/>
    <g id="Grupo_12149" data-name="Grupo 12149" transform="translate(731.768 1966.801)">
      <g id="Grupo_12148" data-name="Grupo 12148" clip-path="url(#clip-path)">
        <path id="Trazado_31910" data-name="Trazado 31910" d="M138.421,141.789a5.665,5.665,0,0,1-5.817,5.5H42.471a5.665,5.665,0,0,1-5.817-5.5V89.557a5.665,5.665,0,0,1,5.817-5.5H132.6a5.665,5.665,0,0,1,5.817,5.5Z" transform="translate(-26.984 -61.882)" fill="#c7ddeb"/>
        <path id="Trazado_31911" data-name="Trazado 31911" d="M100.078,115.694H0V49.4H100.078Zm-97.1-2.983H97.1V52.387H2.983Z" transform="translate(0 -36.37)" fill="#3d4451"/>
        <path id="Trazado_31912" data-name="Trazado 31912" d="M211.346,41.112a35.2,35.2,0,1,1,35.2,35.2,35.2,35.2,0,0,1-35.2-35.2" transform="translate(-155.589 -4.349)" fill="#f5fafc"/>
        <path id="Trazado_31913" data-name="Trazado 31913" d="M233.654,57.206c0-17.03,14.075-30.835,31.438-30.835s31.438,13.805,31.438,30.835-14.075,30.835-31.438,30.835-31.438-13.806-31.438-30.835" transform="translate(-172.012 -19.414)" fill="#7eb9c7"/>
        <path id="Trazado_31914" data-name="Trazado 31914" d="M242.2,73.527a36.763,36.763,0,1,1,36.763-36.763A36.8,36.8,0,0,1,242.2,73.527m0-70.41a33.646,33.646,0,1,0,33.647,33.647A33.685,33.685,0,0,0,242.2,3.117" transform="translate(-151.241)" fill="#3d4451"/>
        <path id="Trazado_31915" data-name="Trazado 31915" d="M352.18,11.038,341.654,44.812l35.351-2.9s-2.163-24.018-24.825-30.872" transform="translate(-251.52 -8.126)" fill="#f04f4c"/>
        <path id="Trazado_31916" data-name="Trazado 31916" d="M334.675,41.707l11.5-36.89,1.252.379a35.231,35.231,0,0,1,21.713,18.687,41.676,41.676,0,0,1,4.044,13.33l.119,1.324ZM347.906,8.122l-9.548,30.635,32.01-2.628a41.44,41.44,0,0,0-3.639-11.167A32.089,32.089,0,0,0,347.906,8.122" transform="translate(-246.382 -3.546)" fill="#3d4451"/>
        <path id="Trazado_31917" data-name="Trazado 31917" d="M340.154,133.336l33.459,13.584a29.7,29.7,0,0,0,2.969-16.53" transform="translate(-250.416 -95.991)" fill="#fdc345"/>
        <path id="Trazado_31918" data-name="Trazado 31918" d="M369.378,144.572,333.64,130.063l.992-2.445,33.549,13.62a29.913,29.913,0,0,0,2.292-14.729l-.119-1.314,2.627-.239.119,1.314c.93,10.241-2.978,17.033-3.145,17.317Z" transform="translate(-245.62 -91.992)" fill="#3d4451"/>
        <path id="Trazado_31919" data-name="Trazado 31919" d="M84.684,131.284a11.769,11.769,0,1,0-11.146-11.135,11.77,11.77,0,0,0,11.146,11.135" transform="translate(-54.126 -79.333)" fill="#3d4451"/>
        <path id="Trazado_31920" data-name="Trazado 31920" d="M39.189,208.493l-5,12.321a4.832,4.832,0,0,1-6.115,2.7,5.092,5.092,0,0,1-2.937-2.826c-.594-1.433,0-3.05.44-4.462l4.81-15.317c1.357-4.321,2.788-9.279,6.093-12.568a16.789,16.789,0,0,1,11.59-5.28c1.87,0,9.416-.025,13.66.241,0,0,22.26-5.692,23.573-5.908a5.61,5.61,0,0,1,3.859.6,3.45,3.45,0,0,1,1.573,2.123,4.639,4.639,0,0,1-1.147,4.127c-1.978,2.18-5.228,3.032-7.892,4.021l-9.481,3.52c-1.913.71-3.825,1.136-5.184,2.746a11.582,11.582,0,0,0-2.209,4.517,32.109,32.109,0,0,0-.8,6.481c-.378,6.812-.939,13.645-.936,20.461,0,3.242.1,6.484.1,9.726a4.97,4.97,0,0,1-4.17,4.947,4.919,4.919,0,0,1-5.643-4.852V218.837H48.87v16.337a4.976,4.976,0,0,1-4.156,4.956,4.919,4.919,0,0,1-5.657-4.85V208.493" transform="translate(-18.324 -130.519)" fill="#3d4451"/>
        <path id="Trazado_31921" data-name="Trazado 31921" d="M110.318,210.316h6.392l-2.3,3.835,1.79,10.995-2.813,4.346-3.068-4.346,2.045-10.995Z" transform="translate(-81.214 -154.831)" fill="#f04f4c"/>
        <path id="Trazado_31922" data-name="Trazado 31922" d="M255.585,137.993l28.746-20.831a1.4,1.4,0,0,0-1.545-2.34l-30.271,18.161" transform="translate(-185.897 -84.383)" fill="#3d4451"/>
      </g>
    </g>
    <g id="Grupo_12154" data-name="Grupo 12154" transform="translate(-20 -1)">
      <circle id="Elipse_941" data-name="Elipse 941" cx="30" cy="30" r="30" transform="translate(1054 1984)" fill="#fff"/>
      <g id="Grupo_12151" data-name="Grupo 12151" transform="translate(1024.175 1957.458)">
        <g id="Grupo_12150" data-name="Grupo 12150" clip-path="url(#clip-path-2)">
          <path id="Trazado_31923" data-name="Trazado 31923" d="M311.823,330.828a1.355,1.355,0,0,1-.689-2.522,43.305,43.305,0,0,0,13.272-12.168,1.354,1.354,0,1,1,2.206,1.572,46.025,46.025,0,0,1-14.1,12.931,1.35,1.35,0,0,1-.686.187" transform="translate(-230.667 -234.458)" fill="#f04f4c"/>
          <path id="Trazado_31924" data-name="Trazado 31924" d="M388.627,212.085a1.356,1.356,0,0,1-1.288-1.774,43.039,43.039,0,0,0,2.1-13.336,43.551,43.551,0,0,0-.506-6.621,1.354,1.354,0,1,1,2.677-.413,46.264,46.264,0,0,1,.537,7.034,45.739,45.739,0,0,1-2.237,14.174,1.355,1.355,0,0,1-1.288.936" transform="translate(-287.731 -140.267)" fill="#f04f4c"/>
          <path id="Trazado_31925" data-name="Trazado 31925" d="M270.861,58.252a1.35,1.35,0,0,1-.931-.371,42.668,42.668,0,0,0-24.56-11.5,1.355,1.355,0,0,1,.314-2.691,45.356,45.356,0,0,1,26.109,12.221,1.354,1.354,0,0,1-.931,2.338" transform="translate(-181.412 -32.456)" fill="#f04f4c"/>
          <path id="Trazado_31926" data-name="Trazado 31926" d="M54.414,153.878a1.4,1.4,0,0,1-.208-.016,1.355,1.355,0,0,1-1.132-1.545,45.416,45.416,0,0,1,4.655-14.157,1.354,1.354,0,1,1,2.4,1.256,42.709,42.709,0,0,0-4.378,13.314,1.355,1.355,0,0,1-1.337,1.148" transform="translate(-39.42 -102.108)" fill="#f04f4c"/>
          <path id="Trazado_31927" data-name="Trazado 31927" d="M100.992,336.131a1.35,1.35,0,0,1-.69-.19A45.819,45.819,0,0,1,87.761,325a1.355,1.355,0,1,1,2.121-1.685,43.114,43.114,0,0,0,11.8,10.3,1.355,1.355,0,0,1-.692,2.52" transform="translate(-64.986 -239.83)" fill="#f04f4c"/>
          <path id="Trazado_31928" data-name="Trazado 31928" d="M198.017,265.963a10.294,10.294,0,1,0-9.946-9.737,10.4,10.4,0,0,0,9.946,9.737" transform="translate(-139.72 -182.32)" fill="#c7ddeb"/>
          <path id="Trazado_31929" data-name="Trazado 31929" d="M195.449,376.684a3.522,3.522,0,0,0,3.295-4.285c-1.771-9.418-9.012-17.843-17.678-17.843s-15.9,8.425-17.676,17.843a3.522,3.522,0,0,0,3.3,4.285Z" transform="translate(-121.344 -263.424)" fill="#c7ddeb"/>
          <path id="Trazado_31930" data-name="Trazado 31930" d="M184.36,246.968q-.379,0-.759-.019a15.167,15.167,0,1,1,.759.019m-.6-3.266a11.871,11.871,0,1,0-11.24-11.23,11.911,11.911,0,0,0,11.24,11.23" transform="translate(-125.753 -161.02)" fill="#3d4451"/>
          <path id="Trazado_31931" data-name="Trazado 31931" d="M177.562,358.556H139.6a6.07,6.07,0,0,1-5.943-7.271,32.043,32.043,0,0,1,8.7-16.317,21.933,21.933,0,0,1,32.447,0,32.036,32.036,0,0,1,8.7,16.317,6.07,6.07,0,0,1-5.943,7.271m-18.984-27.51a19.981,19.981,0,0,0-13.932,6.229,28.756,28.756,0,0,0-7.806,14.647,2.829,2.829,0,0,0,.587,2.358,2.794,2.794,0,0,0,2.169,1.026h37.966a2.794,2.794,0,0,0,2.169-1.026,2.83,2.83,0,0,0,.587-2.357,28.754,28.754,0,0,0-7.806-14.647,19.985,19.985,0,0,0-13.934-6.229" transform="translate(-99.211 -243.541)" fill="#3d4451"/>
          <path id="Trazado_31932" data-name="Trazado 31932" d="M75.879,46.284a1.291,1.291,0,0,1-.232-.021c-1.362-.249-12.8-2.484-15.452-7.818l-5.212-.16c-7.412,0-14.4-1.937-19.67-5.445-5.439-3.619-8.434-8.483-8.434-13.7s3-10.078,8.434-13.7C40.591,1.934,47.584,0,55,0s14.412,1.934,19.69,5.446c5.439,3.619,8.434,8.483,8.434,13.7,0,6.292-4.455,12.112-11.961,15.687-.031,2.642.981,6.146,5.423,9.1a1.285,1.285,0,0,1-.711,2.355M55,2.57C40.913,2.57,29.449,10,29.449,19.143S40.913,35.715,55,35.715h.039l6.075.186a1.285,1.285,0,0,1,1.2.93c.716,2.5,5.1,4.449,8.92,5.658a12.231,12.231,0,0,1-2.592-8.61,1.284,1.284,0,0,1,.757-1.065c6.987-3.115,11.159-8.226,11.159-13.673C80.557,10,69.094,2.57,55,2.57" transform="translate(-19.97)" fill="#3d4451"/>
          <path id="Trazado_31933" data-name="Trazado 31933" d="M114.916,43.742q-.009-.221-.032-.445a6.3,6.3,0,0,0-5.725-5.772,5.975,5.975,0,0,0-5.512,3.147A5.974,5.974,0,0,0,98.1,37.526a6.312,6.312,0,0,0-5.7,5.887,7.024,7.024,0,0,0,.2,2.406,2.939,2.939,0,0,0,.666,1.233L103.586,58.33l10.006-10.958a5.1,5.1,0,0,0,1.324-3.631" transform="translate(-68.629 -27.873)" fill="#f04f4c"/>
          <path id="Trazado_31934" data-name="Trazado 31934" d="M99.478,56.327,88.111,43.9a4.368,4.368,0,0,1-.992-1.829,8.425,8.425,0,0,1-.245-2.892A7.739,7.739,0,0,1,93.91,32a7.26,7.26,0,0,1,5.628,2.21,7.234,7.234,0,0,1,5.587-2.212,7.742,7.742,0,0,1,7.063,7.045c.019.18.031.357.039.533a6.543,6.543,0,0,1-1.695,4.648Zm-5.149-21.5q-.125,0-.252.007a4.884,4.884,0,0,0-4.371,4.591,5.592,5.592,0,0,0,.161,1.919,1.519,1.519,0,0,0,.341.637l9.267,10.131,8.957-9.809a3.679,3.679,0,0,0,.953-2.613h0q-.007-.178-.026-.358a4.882,4.882,0,0,0-4.387-4.5,4.565,4.565,0,0,0-4.2,2.424l-1.239,2.2-1.239-2.2a4.589,4.589,0,0,0-3.97-2.43" transform="translate(-64.521 -23.763)" fill="#3d4451"/>
          <path id="Trazado_31935" data-name="Trazado 31935" d="M380.879,89.39l-5.489,0,0-5.212s0-2.2,0-2.627a.912.912,0,0,0-.389-.689l-3.144,0c-.517,0-.646.259-.646.259s-2.839,6.505-4.087,8.616a4.494,4.494,0,0,1-3.789,2.026l.006,11.2,3.7,0,2.413,2.066,10.207-.006a2.678,2.678,0,0,0,1.719-.626l1.225-1.028a2.679,2.679,0,0,0,.956-2.053l-.005-9.253a2.677,2.677,0,0,0-2.679-2.676" transform="translate(-269.943 -60.081)" fill="#f5fafc"/>
          <path id="Trazado_31936" data-name="Trazado 31936" d="M379.865,107.2l-5.169,0,0-4.077s0-1.718,0-2.055a.714.714,0,0,0-.367-.539l-2.961,0c-.487,0-.608.2-.608.2s-2.674,5.089-3.85,6.74a4.612,4.612,0,0,1-3.569,1.585l0,8.761,3.489,0,2.273,1.616,9.614-.005a2.852,2.852,0,0,0,1.62-.49l1.154-.8a1.974,1.974,0,0,0,.9-1.606l0-7.238a2.05,2.05,0,0,0-1.222-1.794,2.919,2.919,0,0,0-1.3-.3" transform="translate(-269.948 -74.691)" fill="#fdc345"/>
          <path id="Trazado_31937" data-name="Trazado 31937" d="M366.921,103.561l-2.413-2.066-4.195,0-.007-12.78.8.027A3.666,3.666,0,0,0,364.2,87.1c1.21-2.045,4.015-8.467,4.044-8.531l.017-.036a1.43,1.43,0,0,1,1.34-.689l3.379,0,.2.13a1.663,1.663,0,0,1,.736,1.336l0,7.061,4.712,0a3.432,3.432,0,0,1,1.781.493,3.473,3.473,0,0,1,1.675,2.959l.005,9.253a3.447,3.447,0,0,1-1.234,2.648l-1.225,1.028a3.461,3.461,0,0,1-2.219.808Zm-1.839-3.62,2.413,2.065,9.92-.005a1.9,1.9,0,0,0,1.22-.445l1.225-1.027a1.9,1.9,0,0,0,.679-1.457l-.005-9.253a1.9,1.9,0,0,0-1.9-1.9h0l-6.266,0,0-8.527-2.756,0h-.025c-.5,1.15-2.894,6.555-4.039,8.493a5.021,5.021,0,0,1-3.681,2.349l.005,9.7Z" transform="translate(-267.697 -57.834)" fill="#3d4451"/>
          <rect id="Rectángulo_3224" data-name="Rectángulo 3224" width="12.312" height="14.729" transform="translate(82.487 29.989)" fill="#7eb9c7"/>
          <path id="Trazado_31938" data-name="Trazado 31938" d="M317.89,129.929l-.009-16.283,13.866-.007.009,16.283Zm1.546-14.73.007,13.175,10.759-.006-.007-13.175Z" transform="translate(-236.176 -84.429)" fill="#3d4451"/>
          <rect id="Rectángulo_3225" data-name="Rectángulo 3225" width="10.337" height="2.894" transform="translate(83.495 30.913)" fill="#f5fafc"/>
          <path id="Trazado_31939" data-name="Trazado 31939" d="M364.778,253.805a2.444,2.444,0,0,1-1.657-.73l-8.139-8.032a1.8,1.8,0,0,1,.179-2.766,2.446,2.446,0,0,1,3.134.147l6.373,6.253,13.244-14.806a2.437,2.437,0,0,1,3.117-.334,1.787,1.787,0,0,1,.378,2.729L366.525,252.98a2.339,2.339,0,0,1-1.677.826Z" transform="translate(-263.321 -173.204)" fill="#4ece46"/>
          <path id="Trazado_31940" data-name="Trazado 31940" d="M362.259,252.1h-.07a3.321,3.321,0,0,1-2.285-.987l-8.141-8.034a2.722,2.722,0,0,1-.826-2.09,2.776,2.776,0,0,1,1.083-2.019,3.329,3.329,0,0,1,4.312.213l5.7,5.6,12.619-14.107a3.317,3.317,0,0,1,4.291-.475,2.807,2.807,0,0,1,1.221,1.961,2.651,2.651,0,0,1-.682,2.1L364.6,250.975a3.235,3.235,0,0,1-2.346,1.126m-8.2-12.026a1.528,1.528,0,0,0-.937.308.974.974,0,0,0-.4.709.921.921,0,0,0,.294.711l8.141,8.034a1.542,1.542,0,0,0,1.028.472h.07a1.47,1.47,0,0,0,1.008-.526l14.882-16.713a.874.874,0,0,0,.24-.7,1.006,1.006,0,0,0-.457-.7,1.539,1.539,0,0,0-1.941.193l-13.87,15.505-7.042-6.91a1.456,1.456,0,0,0-1.019-.389" transform="translate(-260.733 -170.603)" fill="#3d4451"/>
          <path id="Trazado_31941" data-name="Trazado 31941" d="M37.006,241.283l-10.59,5.974-10.59-5.974V229.334l10.59-5.974,10.59,5.974Z" transform="translate(-11.758 -165.95)" fill="#fdc345"/>
          <path id="Trazado_31942" data-name="Trazado 31942" d="M14.735,237.928,0,230V214.022l14.735-7.928,14.735,7.928V230ZM2.056,228.772l12.679,6.822,12.679-6.822V215.25l-12.679-6.822L2.056,215.25Z" transform="translate(0 -153.121)" fill="#3d4451"/>
          <rect id="Rectángulo_3226" data-name="Rectángulo 3226" width="2.056" height="15.173" transform="translate(13.504 68.515)" fill="#3d4451"/>
          <rect id="Rectángulo_3227" data-name="Rectángulo 3227" width="15.473" height="2.056" transform="translate(14.255 67.606) rotate(-26.927)" fill="#3d4451"/>
          <rect id="Rectángulo_3228" data-name="Rectángulo 3228" width="2.056" height="15.357" transform="translate(0.588 62.429) rotate(-62.845)" fill="#3d4451"/>
          <rect id="Rectángulo_3229" data-name="Rectángulo 3229" width="2.056" height="15.434" transform="matrix(0.47, -0.882, 0.882, 0.47, 7.81, 58.563)" fill="#3d4451"/>
        </g>
      </g>
    </g>
    <g id="Grupo_12147" data-name="Grupo 12147" transform="translate(560.953 2086.713)">
      <g id="Grupo_12146" data-name="Grupo 12146" clip-path="url(#clip-path-3)">
        <path id="Trazado_31898" data-name="Trazado 31898" d="M48.126,103.9a33.005,33.005,0,1,1,33.005,32.982A32.994,32.994,0,0,1,48.126,103.9" transform="translate(-36.895 -54.365)" fill="#c7ddeb"/>
        <path id="Trazado_31899" data-name="Trazado 31899" d="M157.243,172.231a5.964,5.964,0,1,1,5.964,5.965,5.965,5.965,0,0,1-5.964-5.965" transform="translate(-120.549 -127.467)" fill="#f04f4c"/>
        <path id="Trazado_31900" data-name="Trazado 31900" d="M159.708,175.762a7.03,7.03,0,1,1,7.03-7.03,7.038,7.038,0,0,1-7.03,7.03m0-11.929a4.9,4.9,0,1,0,4.9,4.9,4.9,4.9,0,0,0-4.9-4.9" transform="translate(-117.05 -123.968)" fill="#3d4451"/>
        <path id="Trazado_31901" data-name="Trazado 31901" d="M131.03,156.113a16.058,16.058,0,1,1,16.058-16.058,16.076,16.076,0,0,1-16.058,16.058m0-29.363a13.305,13.305,0,1,0,13.305,13.305A13.32,13.32,0,0,0,131.03,126.75" transform="translate(-88.142 -95.061)" fill="#3d4451"/>
        <path id="Trazado_31902" data-name="Trazado 31902" d="M91.087,128.329A28.216,28.216,0,1,1,119.3,100.113a28.248,28.248,0,0,1-28.216,28.216m0-51.845a23.628,23.628,0,1,0,23.628,23.628A23.655,23.655,0,0,0,91.087,76.485" transform="translate(-48.199 -55.119)" fill="#3d4451"/>
        <path id="Trazado_31903" data-name="Trazado 31903" d="M42.888,94.8A42.888,42.888,0,1,1,85.776,51.913,42.937,42.937,0,0,1,42.888,94.8m0-78.914A36.026,36.026,0,1,0,78.914,51.913,36.067,36.067,0,0,0,42.888,15.887" transform="translate(0 -6.919)" fill="#3d4451"/>
        <path id="Trazado_31904" data-name="Trazado 31904" d="M177.527,100.965a1.606,1.606,0,0,1-1.01-2.856l33.263-26.84a1.606,1.606,0,1,1,2.017,2.5l-33.263,26.84a1.6,1.6,0,0,1-1.007.356" transform="translate(-134.867 -54.365)" fill="#3d4451"/>
        <path id="Trazado_31905" data-name="Trazado 31905" d="M280.507,33.063l-2-11.414,12.268-10.055L292.2,24.638Z" transform="translate(-213.517 -8.888)" fill="#f04f4c"/>
        <path id="Trazado_31906" data-name="Trazado 31906" d="M274.552,26.6l-2.52-14.4L286.916,0l1.794,16.405Zm.5-13.28,1.474,8.425,9.236-6.652-1.059-9.683Z" transform="translate(-208.551)" fill="#3d4451"/>
        <path id="Trazado_31907" data-name="Trazado 31907" d="M289.692,79.2l10.926,5.058,13.6-8.359-12.73-5Z" transform="translate(-222.089 -54.357)" fill="#f04f4c"/>
        <path id="Trazado_31908" data-name="Trazado 31908" d="M291.6,80.68,277.8,74.3l14.381-10.119,16.025,6.292ZM283.352,73.8l8.059,3.73,10.584-6.506-9.434-3.7Z" transform="translate(-212.975 -49.2)" fill="#3d4451"/>
      </g>
    </g>
    <g id="Grupo_12153" data-name="Grupo 12153" transform="translate(1194 2072.885)">
      <g id="Grupo_12152" data-name="Grupo 12152" clip-path="url(#clip-path-4)">
        <path id="Trazado_31943" data-name="Trazado 31943" d="M53.892,29.82A11.538,11.538,0,1,0,42.965,18.9,11.539,11.539,0,0,0,53.892,29.82" transform="translate(-31.377 -4.938)" fill="#c7ddeb"/>
        <path id="Trazado_31944" data-name="Trazado 31944" d="M33.012,119.03v16.463H24.63v25.083c5.71.4,8.474,7.247,8.474,7.247H14.5V135.292H6.762V111.055c0-9.26,7.829-13.89,7.829-13.89" transform="translate(-4.94 -70.984)" fill="#c7ddeb"/>
        <path id="Trazado_31945" data-name="Trazado 31945" d="M336.9,29.82A11.538,11.538,0,1,1,347.831,18.9,11.539,11.539,0,0,1,336.9,29.82" transform="translate(-237.262 -4.938)" fill="#c7ddeb"/>
        <path id="Trazado_31946" data-name="Trazado 31946" d="M365.064,97.164s7.829,4.63,7.829,13.89v24.237h-7.737v32.532H346.551s2.763-6.844,8.474-7.247V135.492h-8.382V119.029" transform="translate(-253.174 -70.984)" fill="#c7ddeb"/>
        <path id="Trazado_31947" data-name="Trazado 31947" d="M109.241,108.579l10.408,10.408,7.333-.088a5.5,5.5,0,0,0,.21,1.842c.571,1.972,2.277,3.537,3.862,4.892.455.389.9.784,1.349,1.183H113.846l-11.1-11.1" transform="translate(-75.061 -79.323)" fill="#c7ddeb"/>
        <path id="Trazado_31948" data-name="Trazado 31948" d="M269.515,108.579l-10.408,10.408-7.333-.088a5.5,5.5,0,0,1-.209,1.842c-.571,1.972-2.277,3.537-3.863,4.892-.455.389-.9.784-1.348,1.183H264.91l11.1-11.1" transform="translate(-179.975 -79.323)" fill="#c7ddeb"/>
        <path id="Trazado_31949" data-name="Trazado 31949" d="M212.613,133.342a5.383,5.383,0,0,0-5.44-4.99c-1.9,0-3.57,1.719-4.548,3.152-.978-1.433-2.649-3.152-4.548-3.152a5.412,5.412,0,0,0-4.793,2.852,5.155,5.155,0,0,0-.594,2.14" transform="translate(-140.771 -93.768)" fill="#c7ddeb"/>
        <path id="Trazado_31950" data-name="Trazado 31950" d="M212.809,176.261c1.272,1.137,2.518,2.3,3.827,3.4.941.795,1.085.633,1.862-.143,1.028-1.025,2.19-2.132,3.34-3.261" transform="translate(-155.468 -128.768)" fill="#c7ddeb"/>
        <path id="Trazado_31951" data-name="Trazado 31951" d="M211.545,128.833q-.008-.21-.03-.423a5.989,5.989,0,0,0-5.44-5.485,5.678,5.678,0,0,0-5.236,2.99,5.676,5.676,0,0,0-5.268-2.988,6,6,0,0,0-5.419,5.593,6.673,6.673,0,0,0,.193,2.286,2.8,2.8,0,0,0,.633,1.171l9.8,10.716,9.507-10.411a4.844,4.844,0,0,0,1.258-3.45" transform="translate(-138.897 -89.797)" fill="#c7ddeb"/>
        <path id="Trazado_31952" data-name="Trazado 31952" d="M49.533,26.719q-.335,0-.671-.017A13.36,13.36,0,0,1,40.1,3.916a13.36,13.36,0,1,1,9.435,22.8m.008-23.076a9.717,9.717,0,0,0-9.7,10.23,9.791,9.791,0,0,0,9.2,9.19h0A9.716,9.716,0,0,0,59.251,12.85a9.789,9.789,0,0,0-9.195-9.194q-.259-.013-.515-.013" transform="translate(-26.438 0)" fill="#3d4451"/>
        <path id="Trazado_31953" data-name="Trazado 31953" d="M30.864,164.705H7.737V132.173H0V106.115C0,95.933,8.367,90.867,8.724,90.657a1.822,1.822,0,1,1,1.855,3.136c-.278.167-6.934,4.257-6.934,12.322v22.415h7.737v32.532H25.033c-1.157-1.61-3-3.434-5.471-3.608l-1.694-.119v-28.6H26.25V114.09a1.822,1.822,0,0,1,3.644,0v18.285H21.512V154.1c5.6,1.47,8.222,7.809,8.341,8.1Z" transform="translate(0 -66.044)" fill="#3d4451"/>
        <path id="Trazado_31954" data-name="Trazado 31954" d="M331.385,26.719a13.36,13.36,0,0,1-13.357-14.053,13.36,13.36,0,1,1,26.684,1.393A13.47,13.47,0,0,1,332.056,26.7h0q-.336.017-.671.017m-.008-23.076q-.257,0-.516.013a9.789,9.789,0,0,0-9.195,9.194,9.717,9.717,0,0,0,10.206,10.213h0a9.791,9.791,0,0,0,9.2-9.19,9.717,9.717,0,0,0-9.7-10.23" transform="translate(-232.324 0)" fill="#3d4451"/>
        <path id="Trazado_31955" data-name="Trazado 31955" d="M359.656,164.705H336.529l1.011-2.5c.119-.295,2.742-6.633,8.341-8.1V132.375H337.5V114.09a1.822,1.822,0,0,1,3.644,0v14.641h8.382v28.6l-1.694.119a7.25,7.25,0,0,0-5.082,3.093c-.138.173-.268.345-.39.515h13.653V128.53h7.737V106.115c0-8.065-6.656-12.155-6.939-12.325a1.822,1.822,0,0,1,1.86-3.133c.356.21,8.724,5.276,8.724,15.458v26.059h-7.737Z" transform="translate(-245.852 -66.044)" fill="#3d4451"/>
        <path id="Trazado_31956" data-name="Trazado 31956" d="M132.23,123.7H108.151L96.517,112.064a1.822,1.822,0,0,1,2.576-2.576l10.567,10.567h13.11a9.454,9.454,0,0,1-2.27-3.746c-.049-.168-.091-.337-.128-.507l-6.41.077-10.951-10.951a1.822,1.822,0,0,1,2.577-2.577l9.865,9.866,8.516-.1-.109,1.947a3.679,3.679,0,0,0,.14,1.234c.425,1.468,1.861,2.788,3.3,4.014.418.357.857.742,1.38,1.21Z" transform="translate(-70.121 -74.383)" fill="#3d4451"/>
        <path id="Trazado_31957" data-name="Trazado 31957" d="M252.738,123.7H228.659l3.553-3.18c.522-.467.96-.851,1.379-1.21,1.435-1.226,2.871-2.545,3.3-4.014a3.682,3.682,0,0,0,.14-1.234l-.109-1.947,8.515.1,9.865-9.866a1.822,1.822,0,1,1,2.577,2.577l-10.951,10.951-6.41-.077q-.055.255-.128.508a9.465,9.465,0,0,1-2.27,3.746h13.11l10.567-10.567a1.822,1.822,0,1,1,2.577,2.576Z" transform="translate(-167.048 -74.383)" fill="#3d4451"/>
        <path id="Trazado_31958" data-name="Trazado 31958" d="M187.753,130.225l-.1,0a1.822,1.822,0,0,1-1.716-1.922,6.955,6.955,0,0,1,.8-2.893,7.222,7.222,0,0,1,6.4-3.819,6.671,6.671,0,0,1,4.548,2.144,6.673,6.673,0,0,1,4.548-2.144,7.241,7.241,0,0,1,4.135,1.256,7.362,7.362,0,0,1,3.124,5.465,1.822,1.822,0,0,1-3.639.185,3.563,3.563,0,0,0-3.62-3.261c-.871,0-2.066.925-3.043,2.358l-1.505,2.205-1.5-2.205c-.977-1.432-2.171-2.357-3.043-2.357a3.585,3.585,0,0,0-3.184,1.885,3.334,3.334,0,0,0-.383,1.388,1.822,1.822,0,0,1-1.817,1.719" transform="translate(-135.831 -88.827)" fill="#3d4451"/>
        <path id="Trazado_31959" data-name="Trazado 31959" d="M212.638,177.074a3.345,3.345,0,0,1-2.117-.957c-.951-.8-1.873-1.637-2.765-2.445q-.549-.5-1.1-.993a1.822,1.822,0,0,1,2.429-2.715q.56.5,1.117,1.007c.758.686,1.539,1.393,2.325,2.068.533-.528,1.091-1.068,1.676-1.636.468-.454.944-.916,1.419-1.382a1.822,1.822,0,1,1,2.553,2.6c-.48.471-.962.938-1.435,1.4-.67.649-1.3,1.262-1.894,1.853l-.026.026a3.2,3.2,0,0,1-2.181,1.176" transform="translate(-150.529 -123.829)" fill="#3d4451"/>
        <path id="Trazado_31960" data-name="Trazado 31960" d="M211.545,128.833q-.008-.21-.03-.423a5.989,5.989,0,0,0-5.44-5.485,5.678,5.678,0,0,0-5.236,2.99,5.676,5.676,0,0,0-5.268-2.988,6,6,0,0,0-5.419,5.593,6.673,6.673,0,0,0,.193,2.286,2.8,2.8,0,0,0,.633,1.171l9.8,10.716,9.507-10.411a4.844,4.844,0,0,0,1.258-3.45" transform="translate(-138.897 -89.797)" fill="#f04f4c"/>
        <path id="Trazado_31961" data-name="Trazado 31961" d="M195.842,140.455l-11.149-12.187a4.628,4.628,0,0,1-1.05-1.935,8.481,8.481,0,0,1-.247-2.91,7.826,7.826,0,0,1,7.127-7.255,7.338,7.338,0,0,1,5.375,1.916,7.347,7.347,0,0,1,5.333-1.918,7.831,7.831,0,0,1,7.155,7.117q.028.269.039.535a6.691,6.691,0,0,1-1.733,4.754ZM190.949,119.8q-.105,0-.211.006a4.169,4.169,0,0,0-3.712,3.933,4.857,4.857,0,0,0,.139,1.663.97.97,0,0,0,.216.407l8.457,9.246L204,126.114a3.019,3.019,0,0,0,.783-2.146h0q-.006-.154-.022-.31a4.165,4.165,0,0,0-3.725-3.854,3.871,3.871,0,0,0-3.552,2.064l-1.588,2.823-1.588-2.823a3.892,3.892,0,0,0-3.362-2.069" transform="translate(-133.957 -84.858)" fill="#3d4451"/>
        <path id="Trazado_31962" data-name="Trazado 31962" d="M200.967,262.368,186.6,270.473l-14.368-8.105v-16.21l14.368-8.105,14.368,8.105Z" transform="translate(-125.824 -173.91)" fill="#fdc345"/>
        <path id="Trazado_31963" data-name="Trazado 31963" d="M171.566,258.77l-20.057-10.791V226.223l20.057-10.79,20.056,10.79v21.756Zm-17.137-12.535,17.137,9.22,17.137-9.22V227.968l-17.137-9.22-17.137,9.22Z" transform="translate(-110.685 -157.385)" fill="#3d4451"/>
        <rect id="Rectángulo_3231" data-name="Rectángulo 3231" width="2.919" height="20.585" transform="translate(59.145 79.208)" fill="#3d4451"/>
        <rect id="Rectángulo_3232" data-name="Rectángulo 3232" width="20.993" height="2.919" transform="translate(60.2 77.917) rotate(-26.929)" fill="#3d4451"/>
        <rect id="Rectángulo_3233" data-name="Rectángulo 3233" width="2.92" height="20.835" transform="translate(41.657 71.009) rotate(-62.846)" fill="#3d4451"/>
        <rect id="Rectángulo_3234" data-name="Rectángulo 3234" width="2.919" height="20.94" transform="matrix(0.47, -0.882, 0.882, 0.47, 51.454, 65.763)" fill="#3d4451"/>
      </g>
    </g>
    <path id="Polígono_13" data-name="Polígono 13" d="M9,0l9,15H0Z" transform="translate(940.536 1991.402) rotate(-30)" fill="#ff8f00"/>
    <path id="Polígono_14" data-name="Polígono 14" d="M9,0l9,15H0Z" transform="matrix(0.616, -0.788, 0.788, 0.616, 667.629, 2073.872)" fill="#ff8f00"/>
    <path id="Polígono_15" data-name="Polígono 15" d="M9,0l9,15H0Z" transform="translate(1157.461 2041.71) rotate(-5)" fill="#ff8f00"/>
  </g>
</svg>
