<svg xmlns="http://www.w3.org/2000/svg" xmlns:xlink="http://www.w3.org/1999/xlink" width="314.528" height="242.234" viewBox="0 0 314.528 242.234">
  <defs>
    <clipPath id="clip-path">
      <rect id="Rectángulo_3436" data-name="Rectángulo 3436" width="314.528" height="242.234" fill="none"/>
    </clipPath>
    <clipPath id="clip-path-2">
      <rect id="Rectángulo_3435" data-name="Rectángulo 3435" width="314.529" height="242.234" fill="none"/>
    </clipPath>
    <clipPath id="clip-path-3">
      <rect id="Rectángulo_3422" data-name="Rectángulo 3422" width="43.797" height="48.355" fill="none"/>
    </clipPath>
    <clipPath id="clip-path-4">
      <rect id="Rectángulo_3424" data-name="Rectángulo 3424" width="53.533" height="35.668" fill="none"/>
    </clipPath>
    <clipPath id="clip-path-5">
      <rect id="Rectángulo_3426" data-name="Rectángulo 3426" width="26.688" height="17.782" fill="none"/>
    </clipPath>
    <clipPath id="clip-path-6">
      <rect id="Rectángulo_3428" data-name="Rectángulo 3428" width="26.687" height="17.782" fill="none"/>
    </clipPath>
    <clipPath id="clip-path-7">
      <rect id="Rectángulo_3430" data-name="Rectángulo 3430" width="34.092" height="22.716" fill="none"/>
    </clipPath>
    <clipPath id="clip-path-8">
      <rect id="Rectángulo_3432" data-name="Rectángulo 3432" width="34.093" height="22.716" fill="none"/>
    </clipPath>
  </defs>
  <g id="Grupo_18888" data-name="Grupo 18888" transform="translate(-1107 -6436.886)">
    <g id="Grupo_12376" data-name="Grupo 12376" transform="translate(1107 6436.886)">
      <g id="Grupo_12375" data-name="Grupo 12375" clip-path="url(#clip-path)">
        <g id="Grupo_12374" data-name="Grupo 12374">
          <g id="Grupo_12373" data-name="Grupo 12373" clip-path="url(#clip-path-2)">
            <path id="Trazado_32590" data-name="Trazado 32590" d="M900.409,189.756a8.99,8.99,0,0,0-7.137-2.853q-4.7,0-7.171,2.839a11.183,11.183,0,0,0,.017,14.041,8.936,8.936,0,0,0,7.12,2.853,9.088,9.088,0,0,0,7.154-2.825,11.083,11.083,0,0,0,.017-14.055m-4.522,11.891a3.127,3.127,0,0,1-5.23.014,11.064,11.064,0,0,1-.781-4.947q0-3.908.849-5.131a2.929,2.929,0,0,1,2.581-1.223,2.7,2.7,0,0,1,2.615,1.42,12.269,12.269,0,0,1,.747,5.159,10.387,10.387,0,0,1-.781,4.708" transform="translate(-625.471 -132.298)" fill="#c9c9c9"/>
            <path id="Trazado_32591" data-name="Trazado 32591" d="M846.351,122.147l-25.8,38.372h5.15l25.839-38.372Z" transform="translate(-580.821 -86.461)" fill="#c9c9c9"/>
            <path id="Trazado_32592" data-name="Trazado 32592" d="M815,138.094a11.088,11.088,0,0,0,.017-14.069,9.036,9.036,0,0,0-7.15-2.839q-4.676,0-7.15,2.853a10.371,10.371,0,0,0-2.474,7.042,10.246,10.246,0,0,0,2.491,6.985,8.918,8.918,0,0,0,7.1,2.854A9.114,9.114,0,0,0,815,138.094m-9.761-2.164a11.464,11.464,0,0,1-.751-4.934,11.441,11.441,0,0,1,.751-4.962,2.759,2.759,0,0,1,2.662-1.391,2.724,2.724,0,0,1,2.628,1.405,12.116,12.116,0,0,1,.751,5.145,10.409,10.409,0,0,1-.785,4.751,2.767,2.767,0,0,1-2.628,1.405,2.717,2.717,0,0,1-2.628-1.419" transform="translate(-565.029 -85.78)" fill="#c9c9c9"/>
            <path id="Trazado_32593" data-name="Trazado 32593" d="M893.238,211.929a9.088,9.088,0,0,0,7.154-2.825,10.224,10.224,0,0,0,2.521-7.07c0-.353-.015-.7-.042-1.036l-6.53-2.679a18.724,18.724,0,0,1,.326,3.913,10.383,10.383,0,0,1-.781,4.708,3.127,3.127,0,0,1-5.23.014,11.068,11.068,0,0,1-.781-4.947q0-3.908.849-5.131a2.767,2.767,0,0,1,.592-.619l-4.575-1.877a7.73,7.73,0,0,0-.642.655,11.183,11.183,0,0,0,.017,14.041,8.937,8.937,0,0,0,7.12,2.853" transform="translate(-625.471 -137.59)" fill="#c9c9c9"/>
            <path id="Trazado_32594" data-name="Trazado 32594" d="M838.361,185.111l-4.051-1.662-13.758,20.462h5.15Z" transform="translate(-580.821 -129.853)" fill="#c9c9c9"/>
            <path id="Trazado_32595" data-name="Trazado 32595" d="M807.831,164.837A9.114,9.114,0,0,0,815,162.011c.035-.039.065-.082.1-.122l-4.675-1.918a2.776,2.776,0,0,1-2.556,1.295,2.717,2.717,0,0,1-2.628-1.419,6.794,6.794,0,0,1-.6-2.25l-6.393-2.623c0,.008,0,.015,0,.024a10.247,10.247,0,0,0,2.491,6.985,8.918,8.918,0,0,0,7.1,2.854" transform="translate(-565.029 -109.697)" fill="#c9c9c9"/>
            <path id="Trazado_32596" data-name="Trazado 32596" d="M409.882,168.8q-31.76,0-49.409-20.739T342.823,95.643q0-31.054,17.208-52.265t50.1-21.209q32.644,0,50.1,21.209T477.7,95.226q0,31.372-17.524,52.475t-50.294,21.1m.506-122.77q-14.3,0-19.928,10.891t-5.63,38.2q0,27.513,5.883,38.249T410.262,144.1q13.538,0,19.611-10.525t6.074-37.1q0-29.179-5.947-39.811T410.389,46.035" transform="translate(-242.665 -15.692)" fill="#c9c9c9"/>
            <path id="Trazado_32597" data-name="Trazado 32597" d="M409.882,265.921q32.768,0,50.294-21.1a72.8,72.8,0,0,0,13.164-23.758c1.027-3.09-37.573-18.946-37.573-18.946q-.852,19.828-5.894,28.583-6.073,10.526-19.611,10.525-13.664,0-19.548-10.734t-5.883-38.249q0-8.227.514-14.957c.074-.976-36.441-17.912-36.441-17.912a88.161,88.161,0,0,0-6.08,33.39q0,31.685,17.651,52.422t49.409,20.739" transform="translate(-242.665 -112.808)" fill="#c9c9c9"/>
            <path id="Trazado_32599" data-name="Trazado 32599" d="M409.763,471.8a.646.646,0,0,1-.605-.573l-13.91-70.483a.919.919,0,0,1,.42-.96.477.477,0,0,1,.69.4l13.993,70.672a.786.786,0,0,1-.452.918.493.493,0,0,1-.136.022" transform="translate(-279.762 -282.942)" fill="#002a66"/>
            <path id="Trazado_32600" data-name="Trazado 32600" d="M475.646,472.091c-.346.009-.638-.31,2.248-.727l-3.463-69.837c-2.928-.421-2.661-.834-2.309-.923s.655.18.676.6l3.487,70.056a.748.748,0,0,1-.612.828l-.028,0" transform="translate(-334.039 -283.552)" fill="#002a66"/>
            <path id="Trazado_32601" data-name="Trazado 32601" d="M547.029,471.518H547a.759.759,0,0,1-.682-.824l1.579-69.393a.935.935,0,0,1,.723-.913.63.63,0,0,1,.688.713l-1.588,69.623a.767.767,0,0,1-.689.794" transform="translate(-386.705 -283.406)" fill="#002a66"/>
            <path id="Trazado_32602" data-name="Trazado 32602" d="M607.589,470.311a.751.751,0,0,1-.1,0,.818.818,0,0,1-.671-.924l6.925-69.13a.981.981,0,0,1,.864-.9.7.7,0,0,1,.695.831l-6.971,69.369a.806.806,0,0,1-.744.756" transform="translate(-429.529 -282.68)" fill="#002a66"/>
            <path id="Trazado_32603" data-name="Trazado 32603" d="M666.442,468.663a.756.756,0,0,1-.221-.026.873.873,0,0,1-.588-1.06l16.659-69.068a1.05,1.05,0,0,1,1.072-.817A.773.773,0,0,1,684,398.7L667.223,468a.845.845,0,0,1-.781.663" transform="translate(-471.145 -281.499)" fill="#002a66"/>
            <path id="Trazado_32604" data-name="Trazado 32604" d="M466.327,457.593a1.039,1.039,0,0,1-.152.007l-131.652-3.847c-.284-.008-.481-.327-.441-.713s.3-.692.585-.685L466.439,455.7a.836.836,0,0,1,.821.977,1.1,1.1,0,0,1-.933.917" transform="translate(-236.474 -320.196)" fill="#002a66"/>
            <path id="Trazado_32605" data-name="Trazado 32605" d="M479.629,519.052a1.035,1.035,0,0,1-.131,0l-120.675-5.863c-.3-.015-.505-.345-.47-.737s.3-.7.6-.685l120.769,5.4a.867.867,0,0,1,.829.986,1.03,1.03,0,0,1-.921.891" transform="translate(-253.654 -362.253)" fill="#002a66"/>
            <path id="Trazado_32606" data-name="Trazado 32606" d="M492.2,582.682c-.024,0-.048,0-.073,0L388.806,579.6a.642.642,0,0,1-.528-.74.682.682,0,0,1,.6-.713l103.366,2.689a.88.88,0,0,1,.857.945.96.96,0,0,1-.895.9" transform="translate(-274.839 -409.237)" fill="#002a66"/>
            <path id="Trazado_32607" data-name="Trazado 32607" d="M364.039,361.629c-1.837-2.619-5.208-4.2-10.609-4.97-32.459-4.637-137.406-2-137.406-2l-7.377-12.521-23.006.213a2.768,2.768,0,1,0-2.033,5.149l22.57.495,5.588,10.439.014.026L250.4,430.6c-1.511,4.108-7.355,22.891-9.288,28.45-1.71,4.915-.133,8.226.959,9.762a7.8,7.8,0,0,0,5.987,3.438H347.19a2.768,2.768,0,0,0,0-5.536H248.072a2.708,2.708,0,0,1-1.576-1.231,5.215,5.215,0,0,1-.16-4.617c1.828-5.255,7.274-22.966,9.017-27.71h72.8c7.989,0,14.66-6,16.652-10.046,5.961-12.12,17.582-39.979,20.432-53.66.651-3.129.248-5.761-1.2-7.826m-5.9,6.414c-2.745,13.179-12.42,40.672-18.3,52.628-1.007,2.047-5.8,6.953-11.685,6.953H255.08l-35.721-66.736s96.093-1.736,125.965.968c3.7.335,11.631,1.423,12.5,2.668.2.284.806,1.148.312,3.518" transform="translate(-128.725 -242.179)" fill="#002a67"/>
            <path id="Trazado_32608" data-name="Trazado 32608" d="M661.6,755.928a11.253,11.253,0,1,0,11.254-11.254A11.254,11.254,0,0,0,661.6,755.928" transform="translate(-468.308 -527.112)" fill="#1c5384"/>
            <path id="Trazado_32609" data-name="Trazado 32609" d="M675.987,766.112a7.05,7.05,0,1,0,7.05-7.05,7.05,7.05,0,0,0-7.05,7.05" transform="translate(-478.492 -537.296)" fill="#fff"/>
            <path id="Trazado_32610" data-name="Trazado 32610" d="M695.424,779.871a1.371,1.371,0,1,0,1.371-1.371,1.372,1.372,0,0,0-1.371,1.371" transform="translate(-492.25 -551.055)" fill="#1c5281"/>
            <path id="Trazado_32611" data-name="Trazado 32611" d="M410.275,755.928a11.253,11.253,0,1,0,11.253-11.254,11.254,11.254,0,0,0-11.253,11.254" transform="translate(-290.41 -527.112)" fill="#1c5384"/>
            <path id="Trazado_32612" data-name="Trazado 32612" d="M424.663,766.112a7.05,7.05,0,1,0,7.05-7.05,7.05,7.05,0,0,0-7.05,7.05" transform="translate(-300.594 -537.296)" fill="#fff"/>
            <path id="Trazado_32613" data-name="Trazado 32613" d="M444.1,779.871a1.371,1.371,0,1,0,1.371-1.371,1.371,1.371,0,0,0-1.371,1.371" transform="translate(-314.351 -551.055)" fill="#1c5281"/>
            <path id="Trazado_32614" data-name="Trazado 32614" d="M181.124,331.053l-26.732-.33a3.922,3.922,0,0,0-3.984,3.86l-.034,2.187a3.923,3.923,0,0,0,3.86,3.984l26.686.329Z" transform="translate(-106.441 -234.099)" fill="#1c5384"/>
            <g id="Grupo_12357" data-name="Grupo 12357" transform="translate(193.019 112.332)" opacity="0.37" style="mix-blend-mode: multiply;isolation: isolate">
              <g id="Grupo_12356" data-name="Grupo 12356">
                <g id="Grupo_12355" data-name="Grupo 12355" clip-path="url(#clip-path-3)">
                  <path id="Trazado_32615" data-name="Trazado 32615" d="M702.961,391.61c-1.837-2.619-5.208-4.2-10.609-4.97-7.369-1.052-18.48-1.729-31.244-2.149l-.07,6.242c6.468.162,12.336.38,17.218.669l-3.781,15.673-13.617-.345-.192,17.092c-.053,4.785,3.13,8.7,7.112,8.745l24.918.28c4.9-11.941,9.756-25.215,11.464-33.411.651-3.129.248-5.762-1.2-7.826m-39.492,32.2-.041.005a15.293,15.293,0,0,0-2.144.266l1.109-1.415,2.173-.053c.006.028.015.055.023.084a3.287,3.287,0,0,0-1.12,1.113m7.941-4.878a7.822,7.822,0,0,0-2.238.178l-.128.03c-.194.046-.4.076-.58.136a4.3,4.3,0,0,0,.736-.68,2.185,2.185,0,0,0-.453-.224c.01,0,.02,0,0-.006-.076-.008-1.457-.694-3.3,1.667a14.583,14.583,0,0,0,.324-1.68l3.257-4.154a3.431,3.431,0,0,0-.522-4.767c-.064-.048-.132-.1-.2-.142s-.127-.12-.2-.176a5.239,5.239,0,0,0-.7-.426l6.631.194-2.429,10.07c-.064-.005-.138-.017-.2-.022m16.953,7.911-1.323-.059a17.3,17.3,0,0,0-1.4-1.793c-3.19-3.561-8.318-5.247-12.344-5.843l2.473-10.214,18.3.535c-1.61,5.423-3.6,11.461-5.7,17.374m8.7-28.818c-.557,2.675-1.41,5.958-2.449,9.563L676.2,407.12l3.778-15.609c1.536.1,2.967.21,4.266.327,3.7.335,11.63,1.424,12.5,2.669.2.284.806,1.148.312,3.518" transform="translate(-660.666 -384.492)" fill="#001c44"/>
                </g>
              </g>
            </g>
            <g id="Grupo_12360" data-name="Grupo 12360" transform="translate(35.027 23.458)" opacity="0.79">
              <g id="Grupo_12359" data-name="Grupo 12359">
                <g id="Grupo_12358" data-name="Grupo 12358" clip-path="url(#clip-path-4)">
                  <path id="Trazado_32616" data-name="Trazado 32616" d="M119.89,84.756l.121,26.98c.011,2.342,1.6,4.233,3.547,4.224l46.356-.208c1.948-.009,3.519-1.914,3.509-4.256l-.121-26.98c-.011-2.342-1.6-4.233-3.547-4.225L123.4,80.5c-1.949.009-3.52,1.914-3.509,4.256" transform="translate(-119.89 -80.292)" fill="#3276a5"/>
                  <path id="Trazado_32617" data-name="Trazado 32617" d="M123.4,80.9l9.192-.041L173.313,104.1l.109,7.8c.01,2.342-1.56,4.247-3.509,4.256l-46.356.208c-1.948.009-3.537-1.883-3.547-4.224l-.121-26.98c-.01-2.342,1.561-4.247,3.509-4.256" transform="translate(-119.889 -80.695)" fill="#0d4282"/>
                  <path id="Trazado_32618" data-name="Trazado 32618" d="M206.293,128.47l-21.237.086.972-5.253,20.273-.188Z" transform="translate(-166.017 -110.603)" fill="#fff"/>
                  <path id="Trazado_32619" data-name="Trazado 32619" d="M125.166,129.067l-.022-5.355,32.9-.411,5.814,3.317.031,1.984Z" transform="translate(-123.609 -110.735)" fill="#cff3ff"/>
                  <path id="Trazado_32620" data-name="Trazado 32620" d="M173.3,93.209l.021,4.719-53.412.216-.021-4.7a5.1,5.1,0,0,1,.04-.659l53.33-.216a5.118,5.118,0,0,1,.043.636" transform="translate(-119.89 -88.985)" fill="#002b69"/>
                  <path id="Trazado_32621" data-name="Trazado 32621" d="M148.057,98.285l-28.146.152-.021-4.7a5.1,5.1,0,0,1,.04-.66l18.876-.1Z" transform="translate(-119.889 -89.277)" fill="#001c44"/>
                  <path id="Trazado_32622" data-name="Trazado 32622" d="M129.924,165.241l6.511-.026a.653.653,0,0,0,.648-.654l-.025-6.192a.653.653,0,0,0-.654-.648l-6.511.026a.652.652,0,0,0-.648.654l.025,6.192a.653.653,0,0,0,.654.648" transform="translate(-126.513 -135.1)" fill="#3276a5"/>
                  <path id="Trazado_32623" data-name="Trazado 32623" d="M130.371,128.21a1.515,1.515,0,0,0-1.232-.028.9.9,0,0,0-.363.294.827.827,0,0,0-.151.381,4.7,4.7,0,0,0-.013.589l.025,1.06a2.731,2.731,0,0,0,.106.8.729.729,0,0,0,.366.407,1.394,1.394,0,0,0,.687.134,1.2,1.2,0,0,0,.667-.193.816.816,0,0,0,.342-.421,2.788,2.788,0,0,0,.061-.8l0-.141-.943.022.01.456a1.319,1.319,0,0,1-.024.38.133.133,0,0,1-.136.084.135.135,0,0,1-.143-.077,1.174,1.174,0,0,1-.039-.344l-.039-1.685a1.275,1.275,0,0,1,.023-.36.139.139,0,0,1,.146-.086.13.13,0,0,1,.135.065,1.127,1.127,0,0,1,.038.343l.015.63.943-.022-.008-.345a2.412,2.412,0,0,0-.1-.746.775.775,0,0,0-.365-.394" transform="translate(-126.062 -114.108)" fill="#0d4282"/>
                  <path id="Trazado_32624" data-name="Trazado 32624" d="M139.433,129.106a1.2,1.2,0,0,0-.165-.672.622.622,0,0,0-.391-.254,5.115,5.115,0,0,0-.905-.031l-.668.016.084,3.627.943-.022-.038-1.635q.2,0,.242.064a.827.827,0,0,1,.054.36l.028,1.205.876-.02-.022-.957a3.367,3.367,0,0,0-.036-.536.557.557,0,0,0-.125-.211.707.707,0,0,0-.381-.177.554.554,0,0,0,.41-.185,1.058,1.058,0,0,0,.092-.571m-.874.13q.006.24-.057.285a.414.414,0,0,1-.222.049l-.019-.807a.35.35,0,0,1,.226.049.3.3,0,0,1,.067.225Z" transform="translate(-132.216 -114.164)" fill="#0d4282"/>
                  <path id="Trazado_32625" data-name="Trazado 32625" d="M146.754,130.008l.589-.013-.016-.69-.589.014-.016-.688.63-.015-.017-.726-1.573.037.084,3.627,1.636-.038-.017-.726-.692.016Z" transform="translate(-138.203 -113.984)" fill="#0d4282"/>
                  <path id="Trazado_32626" data-name="Trazado 32626" d="M154.29,128.038a.71.71,0,0,0-.371-.2,4.386,4.386,0,0,0-.926-.041l-.706.016.084,3.627,1.19-.028a2.56,2.56,0,0,0,.505-.048.668.668,0,0,0,.279-.137.49.49,0,0,0,.154-.261,2.954,2.954,0,0,0,.031-.654l-.029-1.27a4.811,4.811,0,0,0-.047-.69.651.651,0,0,0-.164-.316m-.7,2.229a1.2,1.2,0,0,1-.037.446q-.046.083-.249.088l-.055-2.386a.468.468,0,0,1,.211.027.151.151,0,0,1,.074.1,1.914,1.914,0,0,1,.023.316Z" transform="translate(-142.823 -113.917)" fill="#0d4282"/>
                  <rect id="Rectángulo_3423" data-name="Rectángulo 3423" width="0.943" height="3.628" transform="translate(12.001 13.839) rotate(-1.33)" fill="#0d4282"/>
                  <path id="Trazado_32627" data-name="Trazado 32627" d="M164.957,128.18l.558-.013.067,2.9.943-.022-.067-2.9.56-.013-.017-.726-2.061.048Z" transform="translate(-151.778 -113.641)" fill="#0d4282"/>
                  <path id="Trazado_32628" data-name="Trazado 32628" d="M177.263,127.122a1.512,1.512,0,0,0-1.232-.028.9.9,0,0,0-.363.294.826.826,0,0,0-.151.381,4.7,4.7,0,0,0-.013.589l.025,1.06a2.73,2.73,0,0,0,.106.8.731.731,0,0,0,.366.408,1.39,1.39,0,0,0,.687.134,1.2,1.2,0,0,0,.667-.193.815.815,0,0,0,.342-.421,2.787,2.787,0,0,0,.061-.8l0-.141-.943.022.01.456a1.322,1.322,0,0,1-.023.38.161.161,0,0,1-.279.006,1.172,1.172,0,0,1-.039-.344l-.039-1.685a1.27,1.27,0,0,1,.023-.359.14.14,0,0,1,.146-.086.13.13,0,0,1,.135.065,1.129,1.129,0,0,1,.038.343l.015.63.943-.022-.008-.345a2.413,2.413,0,0,0-.1-.746.774.774,0,0,0-.365-.394" transform="translate(-159.254 -113.337)" fill="#0d4282"/>
                  <path id="Trazado_32629" data-name="Trazado 32629" d="M184.148,127.025l-.4,3.638.975-.022.041-.653.337-.008.066.651.964-.022-.623-3.615Zm.593,2.32q.026-.483.146-1.528.093.906.179,1.52Z" transform="translate(-165.094 -113.349)" fill="#0d4282"/>
                  <path id="Trazado_32630" data-name="Trazado 32630" d="M194.3,127.832a1.2,1.2,0,0,0-.165-.672.622.622,0,0,0-.391-.254,5.093,5.093,0,0,0-.905-.03l-.668.015.084,3.627.943-.022-.038-1.635q.2,0,.242.064a.829.829,0,0,1,.054.36l.028,1.205.876-.02-.022-.957a3.367,3.367,0,0,0-.036-.536.552.552,0,0,0-.125-.211.709.709,0,0,0-.381-.177.554.554,0,0,0,.41-.184,1.059,1.059,0,0,0,.092-.571m-.874.13q.006.24-.057.285a.417.417,0,0,1-.222.049l-.019-.806a.35.35,0,0,1,.226.049.3.3,0,0,1,.067.225Z" transform="translate(-171.054 -113.263)" fill="#0d4282"/>
                  <path id="Trazado_32631" data-name="Trazado 32631" d="M202.8,127.231a.652.652,0,0,0-.164-.316.706.706,0,0,0-.371-.2,4.384,4.384,0,0,0-.926-.041l-.706.016.084,3.627,1.19-.028a2.565,2.565,0,0,0,.505-.049.668.668,0,0,0,.279-.137.492.492,0,0,0,.154-.261,2.93,2.93,0,0,0,.031-.654l-.029-1.27a4.9,4.9,0,0,0-.047-.69m-.868,1.913a1.2,1.2,0,0,1-.037.446q-.045.083-.249.088l-.056-2.386a.473.473,0,0,1,.212.027.15.15,0,0,1,.074.1,1.862,1.862,0,0,1,.023.316Z" transform="translate(-177.04 -113.123)" fill="#0d4282"/>
                </g>
              </g>
            </g>
            <g id="Grupo_12363" data-name="Grupo 12363" transform="translate(54.657 136.643)" opacity="0.74">
              <g id="Grupo_12362" data-name="Grupo 12362">
                <g id="Grupo_12361" data-name="Grupo 12361" clip-path="url(#clip-path-5)">
                  <path id="Trazado_32632" data-name="Trazado 32632" d="M187.079,469.926l.06,13.45a1.961,1.961,0,0,0,1.768,2.106l23.11-.1a1.961,1.961,0,0,0,1.749-2.122l-.06-13.45a1.961,1.961,0,0,0-1.768-2.106l-23.11.1a1.961,1.961,0,0,0-1.749,2.122" transform="translate(-187.079 -467.701)" fill="#3276a5"/>
                  <path id="Trazado_32633" data-name="Trazado 32633" d="M188.828,468.006l4.582-.02,20.3,11.584.054,3.889a1.961,1.961,0,0,1-1.749,2.122l-23.11.1a1.961,1.961,0,0,1-1.768-2.106l-.06-13.45a1.961,1.961,0,0,1,1.749-2.122" transform="translate(-187.079 -467.903)" fill="#0d4282"/>
                  <path id="Trazado_32634" data-name="Trazado 32634" d="M230.153,491.719l-10.588.043.485-2.619,10.107-.094Z" transform="translate(-210.075 -482.812)" fill="#fff"/>
                  <path id="Trazado_32635" data-name="Trazado 32635" d="M189.709,492.016l-.011-2.67,16.4-.2L209,490.8l.015.989Z" transform="translate(-188.933 -482.878)" fill="#cff3ff"/>
                  <path id="Trazado_32636" data-name="Trazado 32636" d="M213.707,474.14l.011,2.352-26.627.108-.011-2.341a2.583,2.583,0,0,1,.02-.329l26.586-.108a2.577,2.577,0,0,1,.021.317" transform="translate(-187.079 -472.034)" fill="#002b69"/>
                  <path id="Trazado_32637" data-name="Trazado 32637" d="M201.122,476.67l-14.032.076-.011-2.341a2.582,2.582,0,0,1,.02-.329l9.41-.048Z" transform="translate(-187.08 -472.18)" fill="#001c44"/>
                  <path id="Trazado_32638" data-name="Trazado 32638" d="M192.081,510.05l3.246-.013a.325.325,0,0,0,.323-.325l-.012-3.087a.326.326,0,0,0-.326-.323l-3.246.013a.326.326,0,0,0-.323.326l.013,3.087a.325.325,0,0,0,.326.323" transform="translate(-190.38 -495.024)" fill="#3276a5"/>
                  <path id="Trazado_32639" data-name="Trazado 32639" d="M192.3,491.59a.756.756,0,0,0-.614-.014.442.442,0,0,0-.181.147.41.41,0,0,0-.076.19,2.346,2.346,0,0,0-.006.294l.012.528a1.363,1.363,0,0,0,.053.4.365.365,0,0,0,.183.2.691.691,0,0,0,.342.067.6.6,0,0,0,.332-.1.406.406,0,0,0,.171-.21,1.381,1.381,0,0,0,.03-.4v-.07l-.47.011.005.227a.667.667,0,0,1-.012.19.066.066,0,0,1-.068.041.067.067,0,0,1-.071-.039.583.583,0,0,1-.02-.171l-.02-.84a.641.641,0,0,1,.011-.179.07.07,0,0,1,.073-.043.065.065,0,0,1,.067.032.574.574,0,0,1,.019.171l.007.314.47-.011,0-.172a1.21,1.21,0,0,0-.051-.372.386.386,0,0,0-.182-.2" transform="translate(-190.156 -484.56)" fill="#0d4282"/>
                  <path id="Trazado_32640" data-name="Trazado 32640" d="M196.822,492.036a.592.592,0,0,0-.082-.335.311.311,0,0,0-.195-.127,2.587,2.587,0,0,0-.451-.015l-.333.008.042,1.808.47-.011-.019-.815c.065,0,.105.009.121.032a.411.411,0,0,1,.027.179l.014.6.437-.01-.011-.477a1.729,1.729,0,0,0-.018-.268.282.282,0,0,0-.062-.105.355.355,0,0,0-.19-.088.276.276,0,0,0,.2-.092.526.526,0,0,0,.046-.285m-.435.065c0,.08-.008.127-.029.142a.2.2,0,0,1-.111.024l-.009-.4a.176.176,0,0,1,.113.024.15.15,0,0,1,.033.112Z" transform="translate(-193.224 -484.587)" fill="#0d4282"/>
                  <path id="Trazado_32641" data-name="Trazado 32641" d="M200.472,492.486l.294-.007-.008-.344-.294.007-.008-.343.314-.007-.008-.362-.784.018.042,1.808.815-.019-.008-.362-.345.008Z" transform="translate(-196.209 -484.497)" fill="#0d4282"/>
                  <path id="Trazado_32642" data-name="Trazado 32642" d="M204.229,491.5a.358.358,0,0,0-.185-.1,2.192,2.192,0,0,0-.461-.02l-.352.008.042,1.808.593-.014a1.289,1.289,0,0,0,.252-.024.333.333,0,0,0,.139-.068.244.244,0,0,0,.077-.13,1.485,1.485,0,0,0,.015-.326l-.015-.633a2.441,2.441,0,0,0-.024-.344.329.329,0,0,0-.082-.157m-.351,1.111a.6.6,0,0,1-.018.222c-.015.027-.056.042-.124.044l-.028-1.189a.226.226,0,0,1,.105.014.075.075,0,0,1,.037.05.951.951,0,0,1,.011.157Z" transform="translate(-198.512 -484.464)" fill="#0d4282"/>
                  <rect id="Rectángulo_3425" data-name="Rectángulo 3425" width="0.47" height="1.809" transform="translate(5.983 6.899) rotate(-1.317)" fill="#0d4282"/>
                  <path id="Trazado_32643" data-name="Trazado 32643" d="M209.546,491.574l.278-.006.034,1.446.47-.011-.033-1.447.279-.006-.008-.362-1.028.024Z" transform="translate(-202.976 -484.327)" fill="#0d4282"/>
                  <path id="Trazado_32644" data-name="Trazado 32644" d="M215.682,491.047a.756.756,0,0,0-.614-.014.444.444,0,0,0-.181.147.412.412,0,0,0-.075.19,2.346,2.346,0,0,0-.006.294l.012.528a1.364,1.364,0,0,0,.053.4.365.365,0,0,0,.183.2.691.691,0,0,0,.342.067.6.6,0,0,0,.332-.1.406.406,0,0,0,.171-.21,1.381,1.381,0,0,0,.03-.4v-.07l-.47.011.005.227a.66.66,0,0,1-.012.19.066.066,0,0,1-.068.041.067.067,0,0,1-.071-.039.582.582,0,0,1-.02-.171l-.02-.84a.643.643,0,0,1,.011-.179.07.07,0,0,1,.073-.043.065.065,0,0,1,.067.032.56.56,0,0,1,.019.171l.007.314.47-.011,0-.172a1.2,1.2,0,0,0-.051-.372.387.387,0,0,0-.182-.2" transform="translate(-206.703 -484.175)" fill="#0d4282"/>
                  <path id="Trazado_32645" data-name="Trazado 32645" d="M219.114,491l-.2,1.814.486-.011.021-.325.168,0,.033.324.48-.011-.311-1.8Zm.3,1.157q.013-.241.073-.762.046.451.089.758Z" transform="translate(-209.615 -484.18)" fill="#0d4282"/>
                  <path id="Trazado_32646" data-name="Trazado 32646" d="M224.174,491.4a.6.6,0,0,0-.082-.335.312.312,0,0,0-.195-.127,2.559,2.559,0,0,0-.451-.015l-.333.008.042,1.808.47-.011-.019-.815q.1,0,.121.032a.415.415,0,0,1,.027.179l.014.6.437-.01-.011-.477a1.729,1.729,0,0,0-.018-.267.278.278,0,0,0-.062-.105.357.357,0,0,0-.19-.089.275.275,0,0,0,.2-.092.526.526,0,0,0,.046-.285m-.436.065c0,.079-.008.127-.029.142a.206.206,0,0,1-.11.024l-.009-.4a.174.174,0,0,1,.113.024.149.149,0,0,1,.033.112Z" transform="translate(-212.585 -484.138)" fill="#0d4282"/>
                  <path id="Trazado_32647" data-name="Trazado 32647" d="M228.41,491.1a.326.326,0,0,0-.082-.157.358.358,0,0,0-.185-.1,2.187,2.187,0,0,0-.461-.02l-.352.008.042,1.808.593-.014a1.285,1.285,0,0,0,.252-.024.332.332,0,0,0,.139-.068.244.244,0,0,0,.077-.13,1.487,1.487,0,0,0,.015-.326l-.015-.633a2.444,2.444,0,0,0-.024-.344m-.433.954a.6.6,0,0,1-.018.222c-.015.027-.056.042-.124.044l-.028-1.19a.228.228,0,0,1,.105.014.074.074,0,0,1,.037.05.916.916,0,0,1,.011.157Z" transform="translate(-215.57 -484.068)" fill="#0d4282"/>
                </g>
              </g>
            </g>
            <g id="Grupo_12366" data-name="Grupo 12366" transform="translate(228.296)" opacity="0.34">
              <g id="Grupo_12365" data-name="Grupo 12365">
                <g id="Grupo_12364" data-name="Grupo 12364" clip-path="url(#clip-path-6)">
                  <path id="Trazado_32648" data-name="Trazado 32648" d="M781.413,2.225l.06,13.45a1.961,1.961,0,0,0,1.768,2.106l23.11-.1a1.962,1.962,0,0,0,1.75-2.122l-.06-13.45A1.961,1.961,0,0,0,806.272,0l-23.11.1a1.961,1.961,0,0,0-1.749,2.122" transform="translate(-781.413 0)" fill="#3276a5"/>
                  <path id="Trazado_32649" data-name="Trazado 32649" d="M783.162.305l4.583-.02,20.3,11.584.054,3.889a1.961,1.961,0,0,1-1.749,2.122l-23.11.1a1.961,1.961,0,0,1-1.768-2.106l-.06-13.45A1.961,1.961,0,0,1,783.162.305" transform="translate(-781.413 -0.202)" fill="#0d4282"/>
                  <path id="Trazado_32650" data-name="Trazado 32650" d="M824.488,24.019l-10.587.043.485-2.619,10.107-.094Z" transform="translate(-804.409 -15.112)" fill="#fff"/>
                  <path id="Trazado_32651" data-name="Trazado 32651" d="M784.043,24.316l-.011-2.67,16.4-.2,2.9,1.654.015.989Z" transform="translate(-783.267 -15.177)" fill="#cff3ff"/>
                  <path id="Trazado_32652" data-name="Trazado 32652" d="M808.041,6.44l.01,2.352L781.424,8.9l-.011-2.341a2.571,2.571,0,0,1,.02-.329l26.586-.108a2.528,2.528,0,0,1,.021.317" transform="translate(-781.413 -4.334)" fill="#002b69"/>
                  <path id="Trazado_32653" data-name="Trazado 32653" d="M795.456,8.97l-14.032.076-.01-2.341a2.583,2.583,0,0,1,.02-.329l9.41-.048Z" transform="translate(-781.414 -4.48)" fill="#001c44"/>
                  <path id="Trazado_32654" data-name="Trazado 32654" d="M786.415,42.35l3.246-.013a.326.326,0,0,0,.323-.326l-.013-3.087a.326.326,0,0,0-.326-.323l-3.246.013a.325.325,0,0,0-.323.326l.013,3.087a.325.325,0,0,0,.326.323" transform="translate(-784.715 -27.323)" fill="#3276a5"/>
                  <path id="Trazado_32655" data-name="Trazado 32655" d="M786.639,23.889a.753.753,0,0,0-.614-.014.446.446,0,0,0-.181.147.409.409,0,0,0-.075.19,2.28,2.28,0,0,0-.007.294l.012.528a1.354,1.354,0,0,0,.053.4.363.363,0,0,0,.182.2.7.7,0,0,0,.342.067.6.6,0,0,0,.333-.1.406.406,0,0,0,.17-.21,1.387,1.387,0,0,0,.031-.4l0-.071-.47.011.005.227a.657.657,0,0,1-.012.19.065.065,0,0,1-.067.042.067.067,0,0,1-.071-.039.569.569,0,0,1-.02-.171l-.019-.84a.629.629,0,0,1,.011-.179.07.07,0,0,1,.073-.043.064.064,0,0,1,.067.033.566.566,0,0,1,.019.171l.007.314.47-.011,0-.172a1.2,1.2,0,0,0-.051-.372.386.386,0,0,0-.182-.2" transform="translate(-784.49 -16.858)" fill="#0d4282"/>
                  <path id="Trazado_32656" data-name="Trazado 32656" d="M791.155,24.335a.591.591,0,0,0-.082-.335.311.311,0,0,0-.2-.127,2.545,2.545,0,0,0-.451-.015l-.333.008.042,1.808.47-.011-.019-.815c.065,0,.1.009.121.032a.415.415,0,0,1,.027.179l.014.6.437-.01-.011-.477a1.713,1.713,0,0,0-.018-.267.272.272,0,0,0-.062-.105.351.351,0,0,0-.19-.088.276.276,0,0,0,.2-.092.524.524,0,0,0,.046-.285m-.435.065c0,.079-.008.127-.029.142a.205.205,0,0,1-.111.024l-.009-.4a.174.174,0,0,1,.113.024.152.152,0,0,1,.033.112Z" transform="translate(-787.558 -16.886)" fill="#0d4282"/>
                  <path id="Trazado_32657" data-name="Trazado 32657" d="M794.806,24.786l.294-.007-.008-.344-.294.007-.008-.343.314-.007-.008-.362-.784.018.042,1.808.815-.019-.008-.362-.345.008Z" transform="translate(-790.544 -16.797)" fill="#0d4282"/>
                  <path id="Trazado_32658" data-name="Trazado 32658" d="M798.562,23.8a.354.354,0,0,0-.185-.1,2.172,2.172,0,0,0-.462-.02l-.352.008.042,1.808.593-.014a1.236,1.236,0,0,0,.252-.024.331.331,0,0,0,.139-.068.245.245,0,0,0,.077-.13,1.5,1.5,0,0,0,.015-.326l-.015-.633a2.39,2.39,0,0,0-.024-.344.325.325,0,0,0-.082-.157m-.351,1.111a.613.613,0,0,1-.018.222q-.023.041-.124.044l-.027-1.19a.233.233,0,0,1,.105.014.074.074,0,0,1,.037.05.918.918,0,0,1,.012.157Z" transform="translate(-792.846 -16.763)" fill="#0d4282"/>
                  <rect id="Rectángulo_3427" data-name="Rectángulo 3427" width="0.47" height="1.809" transform="translate(5.983 6.899) rotate(-1.317)" fill="#0d4282"/>
                  <path id="Trazado_32659" data-name="Trazado 32659" d="M803.881,23.874l.278-.006.033,1.446.47-.011-.033-1.446.279-.006-.009-.362-1.027.024Z" transform="translate(-797.311 -16.626)" fill="#0d4282"/>
                  <path id="Trazado_32660" data-name="Trazado 32660" d="M810.016,23.346a.756.756,0,0,0-.614-.014.446.446,0,0,0-.181.147.409.409,0,0,0-.075.19,2.273,2.273,0,0,0-.007.294l.012.528a1.352,1.352,0,0,0,.053.4.363.363,0,0,0,.182.2.694.694,0,0,0,.342.067.6.6,0,0,0,.332-.1.407.407,0,0,0,.171-.21,1.4,1.4,0,0,0,.031-.4l0-.071-.47.011.005.227a.66.66,0,0,1-.012.19.066.066,0,0,1-.068.042.067.067,0,0,1-.071-.039.57.57,0,0,1-.02-.171l-.019-.84a.628.628,0,0,1,.011-.179.07.07,0,0,1,.073-.043.065.065,0,0,1,.067.033.566.566,0,0,1,.019.171l.007.314.47-.011,0-.172a1.2,1.2,0,0,0-.051-.372.386.386,0,0,0-.182-.2" transform="translate(-801.038 -16.474)" fill="#0d4282"/>
                  <path id="Trazado_32661" data-name="Trazado 32661" d="M813.449,23.3l-.2,1.814.486-.011.021-.325.168,0,.033.325.481-.011-.311-1.8Zm.3,1.156q.013-.241.072-.762.046.451.089.758Z" transform="translate(-803.95 -16.479)" fill="#0d4282"/>
                  <path id="Trazado_32662" data-name="Trazado 32662" d="M818.508,23.7a.592.592,0,0,0-.082-.335.312.312,0,0,0-.2-.127,2.524,2.524,0,0,0-.451-.015l-.333.008.042,1.808.47-.011-.019-.815c.065,0,.1.009.121.032a.417.417,0,0,1,.027.179l.014.6.437-.01-.011-.477a1.66,1.66,0,0,0-.018-.267.272.272,0,0,0-.062-.105.353.353,0,0,0-.19-.088.275.275,0,0,0,.2-.092.522.522,0,0,0,.046-.285m-.435.065q0,.12-.029.142a.2.2,0,0,1-.111.024l-.009-.4a.176.176,0,0,1,.113.024.152.152,0,0,1,.033.112Z" transform="translate(-806.92 -16.437)" fill="#0d4282"/>
                  <path id="Trazado_32663" data-name="Trazado 32663" d="M822.744,23.4a.324.324,0,0,0-.082-.157.354.354,0,0,0-.185-.1,2.174,2.174,0,0,0-.462-.02l-.352.008.042,1.808.593-.014a1.238,1.238,0,0,0,.252-.024.332.332,0,0,0,.139-.068.245.245,0,0,0,.077-.13,1.48,1.48,0,0,0,.015-.326l-.015-.633a2.411,2.411,0,0,0-.024-.344m-.433.954a.6.6,0,0,1-.018.222c-.015.027-.056.042-.124.044l-.028-1.189a.235.235,0,0,1,.105.014.073.073,0,0,1,.037.05.914.914,0,0,1,.011.157Z" transform="translate(-809.905 -16.367)" fill="#0d4282"/>
                </g>
              </g>
            </g>
            <g id="Grupo_12369" data-name="Grupo 12369" transform="translate(0 109.768)" opacity="0.34">
              <g id="Grupo_12368" data-name="Grupo 12368">
                <g id="Grupo_12367" data-name="Grupo 12367" clip-path="url(#clip-path-7)">
                  <path id="Trazado_32664" data-name="Trazado 32664" d="M0,378.558.077,395.74a2.5,2.5,0,0,0,2.259,2.69l29.522-.132a2.505,2.505,0,0,0,2.235-2.71l-.077-17.182a2.505,2.505,0,0,0-2.259-2.69l-29.522.132A2.505,2.505,0,0,0,0,378.558" transform="translate(0 -375.715)" fill="#3276a5"/>
                  <path id="Trazado_32665" data-name="Trazado 32665" d="M2.235,376.1l5.854-.026,25.935,14.8.069,4.969a2.5,2.5,0,0,1-2.234,2.71l-29.522.132A2.5,2.5,0,0,1,.077,396L0,378.814a2.505,2.505,0,0,1,2.235-2.71" transform="translate(0 -375.971)" fill="#0d4282"/>
                  <path id="Trazado_32666" data-name="Trazado 32666" d="M55.026,406.4l-13.525.055.619-3.345,12.911-.12Z" transform="translate(-29.377 -395.019)" fill="#fff"/>
                  <path id="Trazado_32667" data-name="Trazado 32667" d="M3.36,406.777l-.014-3.411L24.3,403.1l3.7,2.113.02,1.263Z" transform="translate(-2.369 -395.103)" fill="#cff3ff"/>
                  <path id="Trazado_32668" data-name="Trazado 32668" d="M34.016,383.941l.013,3.005-34.016.138L0,384.093a3.256,3.256,0,0,1,.025-.42l33.963-.138a3.235,3.235,0,0,1,.027.405" transform="translate(0 -381.251)" fill="#002b69"/>
                  <path id="Trazado_32669" data-name="Trazado 32669" d="M17.939,387.174l-17.925.1L0,384.281a3.25,3.25,0,0,1,.025-.42l12.021-.061Z" transform="translate(0 -381.438)" fill="#001c44"/>
                  <path id="Trazado_32670" data-name="Trazado 32670" d="M6.3,429.814l4.327-.018a.326.326,0,0,0,.323-.326l-.017-4.124a.325.325,0,0,0-.326-.323l-4.327.018a.325.325,0,0,0-.323.326l.017,4.124a.325.325,0,0,0,.326.323" transform="translate(-4.217 -410.618)" fill="#3276a5"/>
                  <path id="Trazado_32671" data-name="Trazado 32671" d="M6.675,406.232a.966.966,0,0,0-.785-.018.576.576,0,0,0-.231.187.527.527,0,0,0-.1.243,2.994,2.994,0,0,0-.008.375l.015.675a1.737,1.737,0,0,0,.067.507.465.465,0,0,0,.233.259.884.884,0,0,0,.437.086.765.765,0,0,0,.425-.123.521.521,0,0,0,.218-.268,1.773,1.773,0,0,0,.039-.51l0-.09-.6.014.007.29a.834.834,0,0,1-.015.242.084.084,0,0,1-.086.053.085.085,0,0,1-.091-.049.744.744,0,0,1-.025-.219l-.025-1.073a.8.8,0,0,1,.015-.228.088.088,0,0,1,.093-.055.083.083,0,0,1,.086.042.728.728,0,0,1,.024.218l.009.4.6-.014-.005-.219a1.536,1.536,0,0,0-.065-.475.494.494,0,0,0-.233-.25" transform="translate(-3.931 -397.251)" fill="#0d4282"/>
                  <path id="Trazado_32672" data-name="Trazado 32672" d="M12.447,406.8a.759.759,0,0,0-.1-.428.4.4,0,0,0-.249-.162,3.275,3.275,0,0,0-.576-.019l-.425.01.053,2.31.6-.014-.024-1.041c.083,0,.134.011.155.041a.531.531,0,0,1,.034.229l.018.768.558-.013-.014-.609a2.147,2.147,0,0,0-.023-.341.351.351,0,0,0-.079-.134.454.454,0,0,0-.242-.113.352.352,0,0,0,.261-.117.675.675,0,0,0,.058-.364m-.556.083c0,.1-.01.162-.037.181a.264.264,0,0,1-.141.032l-.012-.514a.223.223,0,0,1,.144.031.191.191,0,0,1,.043.143Z" transform="translate(-7.851 -397.286)" fill="#0d4282"/>
                  <path id="Trazado_32673" data-name="Trazado 32673" d="M17.108,407.377l.375-.009-.01-.439-.375.008-.01-.438.4-.009-.011-.462-1,.023.054,2.31,1.042-.024-.011-.462-.441.01Z" transform="translate(-11.663 -397.171)" fill="#0d4282"/>
                  <path id="Trazado_32674" data-name="Trazado 32674" d="M21.908,406.122a.45.45,0,0,0-.236-.126,2.792,2.792,0,0,0-.59-.027l-.449.011.054,2.31.758-.017a1.619,1.619,0,0,0,.322-.031.425.425,0,0,0,.178-.087.312.312,0,0,0,.1-.167,1.869,1.869,0,0,0,.02-.417l-.019-.809a3.086,3.086,0,0,0-.03-.44.416.416,0,0,0-.1-.2m-.448,1.419a.771.771,0,0,1-.023.284q-.029.053-.159.056l-.035-1.52a.3.3,0,0,1,.135.018.1.1,0,0,1,.047.064,1.223,1.223,0,0,1,.015.2Z" transform="translate(-14.605 -397.129)" fill="#0d4282"/>
                  <rect id="Rectángulo_3429" data-name="Rectángulo 3429" width="0.601" height="2.31" transform="matrix(1, -0.023, 0.023, 1, 7.643, 8.814)" fill="#0d4282"/>
                  <path id="Trazado_32675" data-name="Trazado 32675" d="M28.7,406.212l.355-.008.043,1.848.6-.014-.043-1.848.357-.008L30,405.719l-1.313.03Z" transform="translate(-20.308 -396.953)" fill="#0d4282"/>
                  <path id="Trazado_32676" data-name="Trazado 32676" d="M36.538,405.539a.967.967,0,0,0-.785-.018.571.571,0,0,0-.231.187.526.526,0,0,0-.1.243,3.04,3.04,0,0,0-.008.375l.016.675a1.737,1.737,0,0,0,.067.507.464.464,0,0,0,.233.259.885.885,0,0,0,.437.086.766.766,0,0,0,.425-.123.521.521,0,0,0,.218-.268,1.784,1.784,0,0,0,.039-.51l0-.09-.6.014.007.29a.845.845,0,0,1-.015.242.084.084,0,0,1-.086.053.085.085,0,0,1-.091-.049.751.751,0,0,1-.025-.219l-.025-1.073a.807.807,0,0,1,.015-.229.089.089,0,0,1,.093-.055.083.083,0,0,1,.086.041.719.719,0,0,1,.025.218l.009.4.6-.014-.005-.219a1.534,1.534,0,0,0-.065-.475.494.494,0,0,0-.233-.251" transform="translate(-25.069 -396.76)" fill="#0d4282"/>
                  <path id="Trazado_32677" data-name="Trazado 32677" d="M40.924,405.476l-.253,2.317.621-.014.027-.416.215,0,.042.414.614-.014-.4-2.3Zm.377,1.477q.017-.307.093-.973.059.577.114.968Z" transform="translate(-28.789 -396.767)" fill="#0d4282"/>
                  <path id="Trazado_32678" data-name="Trazado 32678" d="M47.388,405.99a.761.761,0,0,0-.1-.428.4.4,0,0,0-.25-.162,3.23,3.23,0,0,0-.576-.02l-.425.01.054,2.31.6-.014-.024-1.041c.083,0,.134.012.154.041a.525.525,0,0,1,.035.229l.018.768.558-.013-.014-.609a2.186,2.186,0,0,0-.023-.342.356.356,0,0,0-.08-.134.452.452,0,0,0-.242-.113.351.351,0,0,0,.261-.117.674.674,0,0,0,.059-.364m-.556.083q0,.152-.037.181a.264.264,0,0,1-.141.031l-.012-.514a.224.224,0,0,1,.144.031.192.192,0,0,1,.043.143Z" transform="translate(-32.583 -396.712)" fill="#0d4282"/>
                  <path id="Trazado_32679" data-name="Trazado 32679" d="M52.8,405.608a.413.413,0,0,0-.1-.2.45.45,0,0,0-.236-.126,2.815,2.815,0,0,0-.589-.026l-.45.01.054,2.31.758-.017a1.606,1.606,0,0,0,.322-.031.426.426,0,0,0,.178-.087.314.314,0,0,0,.1-.167,1.894,1.894,0,0,0,.02-.417l-.019-.809a3.069,3.069,0,0,0-.03-.44m-.553,1.218a.758.758,0,0,1-.023.284c-.019.035-.072.053-.159.056l-.035-1.52a.3.3,0,0,1,.135.018.1.1,0,0,1,.047.064,1.232,1.232,0,0,1,.015.2Z" transform="translate(-36.397 -396.623)" fill="#0d4282"/>
                </g>
              </g>
            </g>
            <g id="Grupo_12372" data-name="Grupo 12372" transform="translate(240.353 163.687)" opacity="0.34">
              <g id="Grupo_12371" data-name="Grupo 12371">
                <g id="Grupo_12370" data-name="Grupo 12370" clip-path="url(#clip-path-8)">
                  <path id="Trazado_32680" data-name="Trazado 32680" d="M822.681,563.112l.077,17.183a2.505,2.505,0,0,0,2.259,2.69l29.522-.132a2.5,2.5,0,0,0,2.234-2.711L856.7,562.96a2.5,2.5,0,0,0-2.259-2.69l-29.522.132a2.505,2.505,0,0,0-2.235,2.71" transform="translate(-822.681 -560.27)" fill="#3276a5"/>
                  <path id="Trazado_32681" data-name="Trazado 32681" d="M824.916,560.658l5.854-.026,25.935,14.8.069,4.968a2.505,2.505,0,0,1-2.234,2.711l-29.522.132a2.506,2.506,0,0,1-2.259-2.69l-.077-17.183a2.505,2.505,0,0,1,2.235-2.71" transform="translate(-822.681 -560.526)" fill="#0d4282"/>
                  <path id="Trazado_32682" data-name="Trazado 32682" d="M877.707,590.952l-13.525.055.619-3.346,12.911-.12Z" transform="translate(-852.057 -579.573)" fill="#fff"/>
                  <path id="Trazado_32683" data-name="Trazado 32683" d="M826.041,591.332l-.014-3.411,20.95-.261,3.7,2.113.02,1.263Z" transform="translate(-825.05 -579.657)" fill="#cff3ff"/>
                  <path id="Trazado_32684" data-name="Trazado 32684" d="M856.7,568.5l.014,3.005-34.016.138-.013-2.991a3.3,3.3,0,0,1,.025-.42l33.963-.138a3.234,3.234,0,0,1,.027.405" transform="translate(-822.68 -565.806)" fill="#002b69"/>
                  <path id="Trazado_32685" data-name="Trazado 32685" d="M840.62,571.727l-17.925.1-.013-2.99a3.259,3.259,0,0,1,.025-.42l12.021-.061Z" transform="translate(-822.681 -565.991)" fill="#001c44"/>
                  <path id="Trazado_32686" data-name="Trazado 32686" d="M828.981,614.368l4.327-.018a.325.325,0,0,0,.323-.326l-.017-4.123a.326.326,0,0,0-.326-.323l-4.326.018a.325.325,0,0,0-.323.325l.017,4.124a.325.325,0,0,0,.326.323" transform="translate(-826.898 -595.172)" fill="#3276a5"/>
                  <path id="Trazado_32687" data-name="Trazado 32687" d="M829.356,590.787a.969.969,0,0,0-.785-.018.575.575,0,0,0-.231.188.529.529,0,0,0-.1.243,3,3,0,0,0-.008.375l.016.675a1.738,1.738,0,0,0,.067.508.466.466,0,0,0,.233.259.884.884,0,0,0,.437.086.767.767,0,0,0,.425-.123.52.52,0,0,0,.218-.268,1.772,1.772,0,0,0,.039-.51l0-.09-.6.014.007.29a.848.848,0,0,1-.015.242.084.084,0,0,1-.086.053.086.086,0,0,1-.091-.049.755.755,0,0,1-.025-.219l-.025-1.073a.821.821,0,0,1,.015-.229.089.089,0,0,1,.093-.055.083.083,0,0,1,.086.042.716.716,0,0,1,.025.218l.009.4.6-.014,0-.22a1.54,1.54,0,0,0-.065-.475.5.5,0,0,0-.233-.251" transform="translate(-826.611 -581.805)" fill="#0d4282"/>
                  <path id="Trazado_32688" data-name="Trazado 32688" d="M835.128,591.356a.759.759,0,0,0-.1-.428.4.4,0,0,0-.25-.162,3.263,3.263,0,0,0-.576-.019l-.425.01.053,2.31.6-.014-.024-1.042c.083,0,.134.012.155.041a.525.525,0,0,1,.034.229l.018.767.558-.013-.014-.609a2.147,2.147,0,0,0-.023-.341.358.358,0,0,0-.079-.134.452.452,0,0,0-.242-.113.35.35,0,0,0,.261-.117.671.671,0,0,0,.059-.364m-.556.083c0,.1-.01.162-.037.181a.261.261,0,0,1-.141.031l-.012-.514a.223.223,0,0,1,.144.031.193.193,0,0,1,.042.143Z" transform="translate(-830.532 -581.841)" fill="#0d4282"/>
                  <path id="Trazado_32689" data-name="Trazado 32689" d="M839.79,591.931l.375-.008-.01-.439-.375.008-.01-.438.4-.009-.011-.462-1,.023.054,2.31,1.042-.024-.011-.462-.441.01Z" transform="translate(-834.344 -581.726)" fill="#0d4282"/>
                  <path id="Trazado_32690" data-name="Trazado 32690" d="M844.589,590.676a.452.452,0,0,0-.236-.126,2.8,2.8,0,0,0-.59-.026l-.45.01.054,2.31.758-.018a1.6,1.6,0,0,0,.322-.031.42.42,0,0,0,.178-.086.312.312,0,0,0,.1-.167,1.891,1.891,0,0,0,.02-.416l-.019-.809a3.1,3.1,0,0,0-.03-.44.414.414,0,0,0-.1-.2m-.448,1.419a.756.756,0,0,1-.023.284c-.019.035-.072.054-.158.056l-.035-1.52a.3.3,0,0,1,.135.018.1.1,0,0,1,.047.064,1.2,1.2,0,0,1,.015.2Z" transform="translate(-837.286 -581.683)" fill="#0d4282"/>
                  <rect id="Rectángulo_3431" data-name="Rectángulo 3431" width="0.601" height="2.311" transform="translate(7.643 8.814) rotate(-1.309)" fill="#0d4282"/>
                  <path id="Trazado_32691" data-name="Trazado 32691" d="M851.383,590.766l.355-.008.043,1.848.6-.014-.043-1.848.357-.008-.011-.462-1.312.031Z" transform="translate(-842.99 -581.507)" fill="#0d4282"/>
                  <path id="Trazado_32692" data-name="Trazado 32692" d="M859.22,590.092a.965.965,0,0,0-.785-.018.577.577,0,0,0-.231.188.534.534,0,0,0-.1.243,3.021,3.021,0,0,0-.008.375l.016.675a1.741,1.741,0,0,0,.067.508.467.467,0,0,0,.233.259.883.883,0,0,0,.437.085.766.766,0,0,0,.425-.123.519.519,0,0,0,.218-.268,1.749,1.749,0,0,0,.039-.51l0-.09-.6.014.006.29a.843.843,0,0,1-.015.242.085.085,0,0,1-.087.053.085.085,0,0,1-.091-.049.735.735,0,0,1-.025-.219l-.025-1.073a.794.794,0,0,1,.015-.229.089.089,0,0,1,.093-.055.083.083,0,0,1,.086.042.72.72,0,0,1,.024.218l.009.4.6-.014-.005-.22a1.537,1.537,0,0,0-.065-.475.5.5,0,0,0-.233-.25" transform="translate(-847.75 -581.314)" fill="#0d4282"/>
                  <path id="Trazado_32693" data-name="Trazado 32693" d="M863.6,590.031l-.253,2.317.621-.015.026-.416.215,0,.042.414.614-.014-.4-2.3Zm.377,1.477q.016-.307.093-.973.06.576.114.968Z" transform="translate(-851.47 -581.322)" fill="#0d4282"/>
                  <path id="Trazado_32694" data-name="Trazado 32694" d="M870.069,590.545a.759.759,0,0,0-.1-.428.4.4,0,0,0-.25-.162,3.271,3.271,0,0,0-.576-.019l-.425.01.053,2.31.6-.014-.024-1.042c.083,0,.134.012.154.041a.521.521,0,0,1,.034.229l.018.768.558-.013-.014-.609a2.128,2.128,0,0,0-.023-.341.353.353,0,0,0-.079-.134.454.454,0,0,0-.242-.113.351.351,0,0,0,.261-.117.67.67,0,0,0,.058-.364m-.556.083q0,.153-.036.181a.262.262,0,0,1-.141.031l-.012-.514a.223.223,0,0,1,.144.031.191.191,0,0,1,.042.143Z" transform="translate(-855.264 -581.267)" fill="#0d4282"/>
                  <path id="Trazado_32695" data-name="Trazado 32695" d="M875.48,590.162a.415.415,0,0,0-.1-.2.453.453,0,0,0-.236-.126,2.805,2.805,0,0,0-.59-.026l-.45.01.054,2.31.757-.018a1.623,1.623,0,0,0,.322-.031.422.422,0,0,0,.178-.086.314.314,0,0,0,.1-.167,1.89,1.89,0,0,0,.02-.416l-.019-.809a3.048,3.048,0,0,0-.03-.44m-.553,1.218a.759.759,0,0,1-.023.284c-.019.035-.072.054-.159.056l-.035-1.52a.3.3,0,0,1,.134.018.1.1,0,0,1,.047.064,1.192,1.192,0,0,1,.015.2Z" transform="translate(-859.078 -581.177)" fill="#0d4282"/>
                </g>
              </g>
            </g>
            <path id="Trazado_32696" data-name="Trazado 32696" d="M415.973,247.83l.081,18.153a2.647,2.647,0,0,0,2.387,2.842l31.189-.14a2.647,2.647,0,0,0,2.361-2.863l-.082-18.153a2.647,2.647,0,0,0-2.386-2.842l-31.189.14a2.647,2.647,0,0,0-2.361,2.863" transform="translate(-294.443 -173.299)" fill="#3276a5"/>
            <path id="Trazado_32697" data-name="Trazado 32697" d="M418.334,245.239l6.184-.028,27.4,15.634.073,5.249a2.647,2.647,0,0,1-2.361,2.864l-31.189.14a2.647,2.647,0,0,1-2.387-2.842l-.081-18.153a2.647,2.647,0,0,1,2.361-2.863" transform="translate(-294.443 -173.571)" fill="#0d4282"/>
            <path id="Trazado_32698" data-name="Trazado 32698" d="M474.106,277.243l-14.289.058.654-3.535,13.64-.126Z" transform="translate(-325.478 -193.694)" fill="#fff"/>
            <path id="Trazado_32699" data-name="Trazado 32699" d="M419.522,277.644l-.015-3.6,22.133-.276L445.552,276l.021,1.335Z" transform="translate(-296.945 -193.782)" fill="#cff3ff"/>
            <path id="Trazado_32700" data-name="Trazado 32700" d="M451.909,253.519l.014,3.175-35.937.146-.014-3.159a3.409,3.409,0,0,1,.027-.444l35.881-.145a3.43,3.43,0,0,1,.029.428" transform="translate(-294.443 -179.148)" fill="#002b69"/>
            <path id="Trazado_32701" data-name="Trazado 32701" d="M434.925,256.934l-18.937.1-.014-3.159a3.411,3.411,0,0,1,.027-.444l12.7-.064Z" transform="translate(-294.443 -179.345)" fill="#001c44"/>
            <path id="Trazado_32702" data-name="Trazado 32702" d="M422.609,301.982l4.608-.019a.325.325,0,0,0,.323-.326l-.018-4.393a.325.325,0,0,0-.326-.323l-4.608.018a.326.326,0,0,0-.323.326l.018,4.393a.326.326,0,0,0,.326.323" transform="translate(-298.897 -210.174)" fill="#3276a5"/>
            <path id="Trazado_32703" data-name="Trazado 32703" d="M423.025,277.069a1.019,1.019,0,0,0-.829-.019.6.6,0,0,0-.244.2.554.554,0,0,0-.1.257,3.129,3.129,0,0,0-.009.4l.016.713a1.83,1.83,0,0,0,.072.536.491.491,0,0,0,.246.274.934.934,0,0,0,.462.09.808.808,0,0,0,.449-.13.548.548,0,0,0,.23-.283,1.877,1.877,0,0,0,.041-.539l0-.095-.635.015.007.307a.887.887,0,0,1-.016.256.108.108,0,0,1-.188,0,.785.785,0,0,1-.027-.232l-.026-1.134a.851.851,0,0,1,.015-.242.094.094,0,0,1,.1-.058.087.087,0,0,1,.091.044.757.757,0,0,1,.026.23l.01.424.635-.015-.006-.232a1.625,1.625,0,0,0-.069-.5.52.52,0,0,0-.246-.265" transform="translate(-298.595 -196.052)" fill="#0d4282"/>
            <path id="Trazado_32704" data-name="Trazado 32704" d="M429.121,277.67a.8.8,0,0,0-.111-.452.418.418,0,0,0-.263-.171,3.421,3.421,0,0,0-.609-.02l-.449.01.057,2.44.635-.015-.025-1.1q.131,0,.163.043a.558.558,0,0,1,.036.242l.019.811.59-.014-.015-.644a2.318,2.318,0,0,0-.024-.361.377.377,0,0,0-.084-.142.478.478,0,0,0-.256-.119.373.373,0,0,0,.276-.124.712.712,0,0,0,.062-.385m-.588.088c0,.108-.01.171-.039.192a.279.279,0,0,1-.149.033l-.013-.543a.234.234,0,0,1,.152.033.2.2,0,0,1,.045.151Z" transform="translate(-302.736 -196.089)" fill="#0d4282"/>
            <path id="Trazado_32705" data-name="Trazado 32705" d="M434.047,278.278l.4-.009-.011-.465-.4.009-.011-.463.424-.01-.011-.488-1.058.025.057,2.44,1.1-.026-.011-.488-.466.011Z" transform="translate(-306.764 -195.968)" fill="#0d4282"/>
            <path id="Trazado_32706" data-name="Trazado 32706" d="M439.117,276.952a.479.479,0,0,0-.25-.133,2.983,2.983,0,0,0-.623-.028l-.475.011.057,2.44.8-.019a1.712,1.712,0,0,0,.34-.033.449.449,0,0,0,.188-.092.329.329,0,0,0,.1-.176,1.982,1.982,0,0,0,.021-.44l-.02-.855a3.3,3.3,0,0,0-.032-.465.445.445,0,0,0-.11-.213m-.474,1.5a.81.81,0,0,1-.025.3q-.031.056-.168.059l-.037-1.605a.311.311,0,0,1,.142.018.1.1,0,0,1,.05.068,1.306,1.306,0,0,1,.016.212Z" transform="translate(-309.872 -195.923)" fill="#0d4282"/>
            <rect id="Rectángulo_3433" data-name="Rectángulo 3433" width="0.635" height="2.441" transform="translate(129.605 80.84) rotate(-1.318)" fill="#0d4282"/>
            <path id="Trazado_32707" data-name="Trazado 32707" d="M446.295,277.047l.375-.009.045,1.952.635-.015-.045-1.952.377-.008-.011-.488-1.387.032Z" transform="translate(-315.898 -195.737)" fill="#0d4282"/>
            <path id="Trazado_32708" data-name="Trazado 32708" d="M454.575,276.336a1.019,1.019,0,0,0-.829-.019.6.6,0,0,0-.244.2.55.55,0,0,0-.1.257,3.235,3.235,0,0,0-.009.4l.017.713a1.846,1.846,0,0,0,.071.536.494.494,0,0,0,.246.274.94.94,0,0,0,.462.09.81.81,0,0,0,.449-.13.548.548,0,0,0,.23-.283,1.873,1.873,0,0,0,.041-.538l0-.1-.635.015.007.307a.89.89,0,0,1-.016.256.108.108,0,0,1-.188,0,.787.787,0,0,1-.026-.232l-.026-1.134a.84.84,0,0,1,.016-.242.094.094,0,0,1,.1-.058.087.087,0,0,1,.091.044.76.76,0,0,1,.026.23l.01.424.635-.015-.005-.232a1.626,1.626,0,0,0-.069-.5.521.521,0,0,0-.246-.265" transform="translate(-320.928 -195.533)" fill="#0d4282"/>
            <path id="Trazado_32709" data-name="Trazado 32709" d="M459.207,276.27l-.267,2.448.656-.015.028-.439.227-.005.044.438.648-.015-.42-2.432Zm.4,1.561q.018-.325.1-1.028.063.61.12,1.023Z" transform="translate(-324.857 -195.541)" fill="#0d4282"/>
            <path id="Trazado_32710" data-name="Trazado 32710" d="M466.037,276.814a.8.8,0,0,0-.111-.452.419.419,0,0,0-.264-.171,3.452,3.452,0,0,0-.609-.02l-.449.011.057,2.44.635-.015-.026-1.1q.131,0,.163.043a.562.562,0,0,1,.037.242l.019.811.589-.014-.015-.644a2.328,2.328,0,0,0-.024-.361.377.377,0,0,0-.084-.142.479.479,0,0,0-.256-.119.372.372,0,0,0,.276-.124.71.71,0,0,0,.062-.384m-.588.087q0,.161-.039.192a.279.279,0,0,1-.149.033l-.013-.543a.236.236,0,0,1,.152.033.2.2,0,0,1,.045.151Z" transform="translate(-328.867 -195.483)" fill="#0d4282"/>
            <path id="Trazado_32711" data-name="Trazado 32711" d="M471.753,276.409a.44.44,0,0,0-.11-.212.478.478,0,0,0-.25-.133,2.972,2.972,0,0,0-.623-.028l-.475.011.057,2.44.8-.018a1.73,1.73,0,0,0,.34-.033.444.444,0,0,0,.188-.092.329.329,0,0,0,.1-.176,1.986,1.986,0,0,0,.021-.44l-.02-.855a3.245,3.245,0,0,0-.032-.465m-.584,1.287a.811.811,0,0,1-.024.3q-.031.056-.168.059l-.037-1.605a.315.315,0,0,1,.142.018.1.1,0,0,1,.05.067,1.3,1.3,0,0,1,.016.212Z" transform="translate(-332.895 -195.388)" fill="#0d4282"/>
            <path id="Trazado_32712" data-name="Trazado 32712" d="M701.521,269.711l-.619,55.128c-.054,4.785,3.13,8.7,7.111,8.745l94.718,1.063c3.981.044,7.252-3.8,7.306-8.583l.618-55.128c.054-4.785-3.13-8.7-7.111-8.745l-94.719-1.063c-3.981-.045-7.252,3.8-7.306,8.583" transform="translate(-496.128 -184.837)" fill="#3276a5"/>
            <path id="Trazado_32713" data-name="Trazado 32713" d="M708.827,261.127l18.782.211,82.457,48.781-.028,15.944c-.053,4.785-3.325,8.628-7.306,8.583l-94.718-1.063c-3.982-.045-7.166-3.96-7.111-8.745l.619-55.128c.053-4.785,3.325-8.628,7.306-8.583" transform="translate(-496.128 -184.836)" fill="#0d4282"/>
            <path id="Trazado_32714" data-name="Trazado 32714" d="M878.075,361.5,834.682,361l2.156-10.7,41.427.266Z" transform="translate(-590.823 -247.954)" fill="#fff"/>
            <path id="Trazado_32715" data-name="Trazado 32715" d="M712.384,361.146l.128-10.942,67.224.216,11.772,6.964v4.054Z" transform="translate(-504.255 -247.889)" fill="#cff3ff"/>
            <path id="Trazado_32716" data-name="Trazado 32716" d="M811.9,288.469l-.108,9.642-109.135-1.271.108-9.595a10.45,10.45,0,0,1,.1-1.347l108.967,1.27a10.389,10.389,0,0,1,.067,1.3" transform="translate(-497.367 -202.371)" fill="#002b69"/>
            <path id="Trazado_32717" data-name="Trazado 32717" d="M760.164,297.432l-57.512-.592.108-9.6a10.4,10.4,0,0,1,.1-1.346l38.569.411Z" transform="translate(-497.367 -202.371)" fill="#001c44"/>
            <path id="Trazado_32718" data-name="Trazado 32718" d="M720.188,433.329l14.643.171a.662.662,0,0,0,.668-.652l.163-13.992a.662.662,0,0,0-.653-.668l-14.643-.171a.662.662,0,0,0-.668.652l-.163,13.992a.662.662,0,0,0,.652.668" transform="translate(-509.318 -295.89)" fill="#3276a5"/>
            <path id="Trazado_32719" data-name="Trazado 32719" d="M723.293,357.617a3.092,3.092,0,0,0-2.517-.1,1.824,1.824,0,0,0-.751.59,1.683,1.683,0,0,0-.322.774,9.659,9.659,0,0,0-.046,1.2l.016,2.166a5.587,5.587,0,0,0,.191,1.631,1.491,1.491,0,0,0,.734.844,2.841,2.841,0,0,0,1.4.3,2.462,2.462,0,0,0,1.369-.373,1.666,1.666,0,0,0,.712-.849,5.677,5.677,0,0,0,.15-1.633l0-.289-1.928.014.007.932a2.707,2.707,0,0,1-.06.777.271.271,0,0,1-.28.167.274.274,0,0,1-.29-.163,2.384,2.384,0,0,1-.069-.7l-.026-3.443a2.565,2.565,0,0,1,.058-.733.285.285,0,0,1,.3-.172.265.265,0,0,1,.274.138,2.317,2.317,0,0,1,.067.7l.01,1.288,1.928-.014-.006-.7a4.929,4.929,0,0,0-.185-1.528,1.583,1.583,0,0,0-.734-.816" transform="translate(-509.403 -252.911)" fill="#0d4282"/>
            <path id="Trazado_32720" data-name="Trazado 32720" d="M741.873,359.72a2.446,2.446,0,0,0-.315-1.378,1.272,1.272,0,0,0-.792-.532,10.444,10.444,0,0,0-1.848-.091l-1.365.01.056,7.414,1.928-.015-.025-3.343q.4,0,.493.138a1.694,1.694,0,0,1,.1.737l.019,2.463,1.791-.013-.015-1.955a6.959,6.959,0,0,0-.056-1.1,1.139,1.139,0,0,0-.249-.435,1.447,1.447,0,0,0-.772-.374,1.131,1.131,0,0,0,.845-.364,2.156,2.156,0,0,0,.207-1.165m-1.789.238q0,.49-.126.58a.846.846,0,0,1-.455.093l-.013-1.648a.718.718,0,0,1,.461.106.62.62,0,0,1,.129.462Z" transform="translate(-522.071 -253.207)" fill="#0d4282"/>
            <path id="Trazado_32721" data-name="Trazado 32721" d="M756.8,361.852l1.2-.009-.01-1.41-1.2.009-.011-1.406,1.287-.01-.011-1.484-3.215.024.056,7.413,3.343-.025-.011-1.484-1.415.011Z" transform="translate(-534.308 -253.084)" fill="#0d4282"/>
            <path id="Trazado_32722" data-name="Trazado 32722" d="M772.262,358.016a1.451,1.451,0,0,0-.752-.416,8.977,8.977,0,0,0-1.89-.114l-1.442.011.056,7.414,2.431-.018a5.2,5.2,0,0,0,1.034-.083,1.359,1.359,0,0,0,.575-.27,1.006,1.006,0,0,0,.323-.529,6.056,6.056,0,0,0,.084-1.335l-.02-2.6a9.748,9.748,0,0,0-.075-1.412,1.332,1.332,0,0,0-.325-.65m-1.509,4.531a2.445,2.445,0,0,1-.089.91q-.095.168-.512.171l-.037-4.877a.953.953,0,0,1,.431.063.306.306,0,0,1,.148.207,3.9,3.9,0,0,1,.037.645Z" transform="translate(-543.749 -253.043)" fill="#0d4282"/>
            <rect id="Rectángulo_3434" data-name="Rectángulo 3434" width="1.928" height="7.414" transform="translate(229.612 104.415) rotate(-0.434)" fill="#0d4282"/>
            <path id="Trazado_32723" data-name="Trazado 32723" d="M794.05,358.737l1.14-.008.045,5.93,1.928-.015-.044-5.93,1.145-.009-.011-1.484-4.213.032Z" transform="translate(-562.054 -252.857)" fill="#0d4282"/>
            <path id="Trazado_32724" data-name="Trazado 32724" d="M819.135,356.9a3.093,3.093,0,0,0-2.517-.1,1.826,1.826,0,0,0-.751.59,1.687,1.687,0,0,0-.322.774,9.683,9.683,0,0,0-.046,1.2l.016,2.166a5.578,5.578,0,0,0,.191,1.631,1.493,1.493,0,0,0,.734.844,2.842,2.842,0,0,0,1.4.3,2.459,2.459,0,0,0,1.369-.373,1.666,1.666,0,0,0,.713-.849,5.69,5.69,0,0,0,.15-1.633l0-.29-1.927.015.007.932a2.713,2.713,0,0,1-.061.776.329.329,0,0,1-.57,0,2.387,2.387,0,0,1-.069-.7l-.026-3.443a2.568,2.568,0,0,1,.059-.733.284.284,0,0,1,.3-.172.266.266,0,0,1,.274.138,2.314,2.314,0,0,1,.067.7l.009,1.288,1.928-.014-.006-.7a4.927,4.927,0,0,0-.185-1.528,1.581,1.581,0,0,0-.734-.816" transform="translate(-577.244 -252.401)" fill="#0d4282"/>
            <path id="Trazado_32725" data-name="Trazado 32725" d="M833.015,356.97l-.927,7.421,1.993-.015.106-1.333.689-.006.113,1.332,1.97-.015-1.158-7.405Zm1.137,4.759q.068-.985.347-3.116.161,1.853.317,3.111Z" transform="translate(-588.987 -252.664)" fill="#0d4282"/>
            <path id="Trazado_32726" data-name="Trazado 32726" d="M854.014,358.877a2.443,2.443,0,0,0-.315-1.378,1.273,1.273,0,0,0-.792-.532,10.446,10.446,0,0,0-1.849-.091l-1.364.01.056,7.414,1.928-.015-.025-3.343q.4,0,.494.138a1.694,1.694,0,0,1,.1.737l.019,2.464,1.79-.013-.015-1.955a6.939,6.939,0,0,0-.056-1.1,1.14,1.14,0,0,0-.248-.435,1.445,1.445,0,0,0-.772-.374,1.131,1.131,0,0,0,.845-.364,2.16,2.16,0,0,0,.206-1.165m-1.789.238q0,.49-.126.58a.847.847,0,0,1-.455.093l-.012-1.648a.714.714,0,0,1,.461.106.617.617,0,0,1,.129.462Z" transform="translate(-601.45 -252.61)" fill="#0d4282"/>
            <path id="Trazado_32727" data-name="Trazado 32727" d="M871.391,357.923a1.331,1.331,0,0,0-.325-.65,1.45,1.45,0,0,0-.752-.416,8.975,8.975,0,0,0-1.89-.114l-1.442.011.056,7.414,2.431-.018a5.207,5.207,0,0,0,1.035-.083,1.361,1.361,0,0,0,.575-.27,1,1,0,0,0,.323-.529,6.038,6.038,0,0,0,.084-1.335l-.02-2.6a9.829,9.829,0,0,0-.075-1.412m-1.834,3.881a2.448,2.448,0,0,1-.089.91q-.095.168-.512.171l-.037-4.877a.952.952,0,0,1,.431.063.305.305,0,0,1,.148.207,3.855,3.855,0,0,1,.037.645Z" transform="translate(-613.686 -252.517)" fill="#0d4282"/>
          </g>
        </g>
      </g>
    </g>
  </g>
</svg>
