<svg xmlns="http://www.w3.org/2000/svg" xmlns:xlink="http://www.w3.org/1999/xlink" width="268.057" height="278.532" viewBox="0 0 268.057 278.532">
  <defs>
    <clipPath id="clip-path">
      <rect id="Rectángulo_3270" data-name="Rectángulo 3270" width="268.057" height="278.532" fill="none"/>
    </clipPath>
    <clipPath id="clip-path-3">
      <rect id="Rectángulo_3267" data-name="Rectángulo 3267" width="53.099" height="30.384" fill="none"/>
    </clipPath>
  </defs>
  <g id="Grupo_12353" data-name="Grupo 12353" transform="translate(-1115 -4509.06)">
    <g id="Grupo_12162" data-name="Grupo 12162" transform="translate(1115 4509.06)">
      <g id="Grupo_12161" data-name="Grupo 12161" clip-path="url(#clip-path)">
        <rect id="Rectángulo_3264" data-name="Rectángulo 3264" width="200.26" height="131.001" transform="translate(40.3 11.507)" fill="#933f25"/>
        <path id="Trazado_31973" data-name="Trazado 31973" d="M42.869,220.633,39.232,350.526H271.5l-3.2-129.894Z" transform="translate(-14.627 -82.261)" fill="#b55935"/>
        <g id="Grupo_12160" data-name="Grupo 12160">
          <g id="Grupo_12159" data-name="Grupo 12159" clip-path="url(#clip-path)">
            <path id="Trazado_31974" data-name="Trazado 31974" d="M80.761,220.294c-.044-.223-.745-.562-.815-.248-.993,4.458-.493,9.515-.531,14.068q-.07,8.231-.082,16.462-.044,16.475-.049,32.95-.017,32.969.064,65.937c0,.646,1.806,1.185,1.81.413q.175-32.354.162-64.709.016-15.891,0-31.782c-.006-5.5-.006-10.994-.043-16.49-.037-5.391.529-11.3-.52-16.6" transform="translate(-29.558 -81.995)" fill="#933f25"/>
            <path id="Trazado_31975" data-name="Trazado 31975" d="M121.6,220.294c-.044-.223-.745-.562-.815-.248-.993,4.458-.494,9.515-.531,14.068q-.07,8.231-.082,16.462-.044,16.475-.049,32.95-.017,32.969.064,65.937c0,.646,1.806,1.185,1.81.413q.175-32.354.162-64.709.016-15.891,0-31.782c-.006-5.5-.006-10.994-.043-16.49-.037-5.391.529-11.3-.52-16.6" transform="translate(-44.785 -81.995)" fill="#933f25"/>
            <path id="Trazado_31976" data-name="Trazado 31976" d="M162.444,220.294c-.044-.223-.745-.562-.815-.248-.993,4.458-.494,9.515-.531,14.068q-.07,8.231-.082,16.462-.044,16.475-.049,32.95-.017,32.969.064,65.937c0,.646,1.806,1.185,1.81.413q.175-32.354.162-64.709.016-15.891,0-31.782c-.006-5.5-.006-10.994-.043-16.49-.037-5.391.529-11.3-.52-16.6" transform="translate(-60.013 -81.995)" fill="#933f25"/>
            <path id="Trazado_31977" data-name="Trazado 31977" d="M203.285,220.294c-.044-.223-.745-.562-.815-.248-.993,4.458-.494,9.515-.531,14.068q-.07,8.231-.082,16.462-.044,16.475-.049,32.95-.017,32.969.064,65.937c0,.646,1.806,1.185,1.81.413q.175-32.354.162-64.709.016-15.891,0-31.782c-.006-5.5-.006-10.994-.043-16.49-.037-5.391.529-11.3-.52-16.6" transform="translate(-75.24 -81.995)" fill="#933f25"/>
            <path id="Trazado_31978" data-name="Trazado 31978" d="M244.126,220.294c-.045-.223-.745-.562-.815-.248-.993,4.458-.494,9.515-.531,14.068q-.07,8.231-.082,16.462-.044,16.475-.049,32.95-.017,32.969.064,65.937c0,.646,1.806,1.185,1.81.413q.175-32.354.162-64.709.016-15.891,0-31.782c-.006-5.5-.006-10.994-.044-16.49-.036-5.391.529-11.3-.519-16.6" transform="translate(-90.467 -81.995)" fill="#933f25"/>
            <path id="Trazado_31979" data-name="Trazado 31979" d="M284.968,220.294c-.045-.223-.745-.562-.815-.248-.993,4.458-.494,9.515-.531,14.068q-.07,8.231-.082,16.462-.045,16.475-.049,32.95-.017,32.969.064,65.937c0,.646,1.806,1.185,1.81.413q.175-32.354.162-64.709.016-15.891,0-31.782c-.006-5.5-.006-10.994-.044-16.49-.036-5.391.529-11.3-.519-16.6" transform="translate(-105.695 -81.995)" fill="#933f25"/>
            <path id="Trazado_31980" data-name="Trazado 31980" d="M325.809,220.294c-.045-.223-.745-.562-.815-.248-.993,4.458-.494,9.515-.531,14.068q-.07,8.231-.082,16.462-.045,16.475-.049,32.95-.017,32.969.064,65.937c0,.646,1.806,1.185,1.81.413q.175-32.354.162-64.709.015-15.891,0-31.782c-.007-5.5-.006-10.994-.044-16.49-.036-5.391.529-11.3-.519-16.6" transform="translate(-120.922 -81.995)" fill="#933f25"/>
            <path id="Trazado_31981" data-name="Trazado 31981" d="M288.755,122.119a6.324,6.324,0,0,0-1.264-5.886,13.632,13.632,0,0,0-5.066-3.626,42.144,42.144,0,0,0-20.843-3.346,85.7,85.7,0,0,0-20.771,4.644c-3.478,1.164-7.067,2.532-9.512,5.266-2.114,2.362-3.014,6.325-.8,8.591,1.227,1.255,3.063,1.657,4.793,1.955a102.9,102.9,0,0,0,46.582-2.748c2.8-.83,5.9-2.1,6.879-4.849" transform="translate(-85.461 -40.684)" fill="#d68934"/>
            <path id="Trazado_31982" data-name="Trazado 31982" d="M245.078,120.047a8.82,8.82,0,0,0-3.117,2.47,8.573,8.573,0,0,0-2.139,3.557,2.9,2.9,0,0,0-.385,1.994c-.025.307-.045.617-.041.932,0,.391.882.692,1.15.442a21.315,21.315,0,0,0,5.664-8.766c.156-.457-.824-.771-1.131-.628" transform="translate(-89.247 -44.746)" fill="#ba6817"/>
            <path id="Trazado_31983" data-name="Trazado 31983" d="M263.814,116.224c-1.582-.608-2.759,1.174-3.516,2.313a13.949,13.949,0,0,0-1.949,4.4c-.368,1.068-.9,2.818-.08,3.535a.838.838,0,0,0,.906.144,8.831,8.831,0,0,0,1.953-2.476,36.777,36.777,0,0,0,2.1-3.538c.5-.948,2.394-3.683.587-4.376" transform="translate(-96.133 -43.287)" fill="#ba6817"/>
            <path id="Trazado_31984" data-name="Trazado 31984" d="M281.035,112.533c-1.395-.778-2.061.505-2.774,1.561q-.289.429-.557.87a14.043,14.043,0,0,0-3.357,8.24c-.03.4,1,.776,1.252.48A32.594,32.594,0,0,0,280,117c.41-.817,2.34-3.745,1.038-4.471" transform="translate(-102.288 -41.868)" fill="#ba6817"/>
            <path id="Trazado_31985" data-name="Trazado 31985" d="M298.275,114.2a1.907,1.907,0,0,0-2.21.581.272.272,0,0,0-.255.1c-.134.223-.267.448-.4.672-.11.15-.216.3-.316.449a10.742,10.742,0,0,0-1.892,5.726.4.4,0,0,0,.174.308c.009.157.022.316.042.477a.889.889,0,0,0,1.189.457,13.4,13.4,0,0,0,3.58-5.059c.369-.885,1.405-3.148.083-3.711" transform="translate(-109.32 -42.523)" fill="#ba6817"/>
            <path id="Trazado_31986" data-name="Trazado 31986" d="M312.9,118.439c-2.07-1.4-3.34,2.884-3.361,4.238a.477.477,0,0,0,.26.379.893.893,0,0,0,.87.2c.016-.009.029-.021.045-.031a.38.38,0,0,0,.113-.054c.046-.037.095-.078.142-.119a5.738,5.738,0,0,0,1.888-2.083c.4-.734.9-1.952.043-2.531" transform="translate(-115.41 -44.055)" fill="#ba6817"/>
            <path id="Trazado_31987" data-name="Trazado 31987" d="M143.561,257.786q-1.693,18.223-2.125,36.536a9.914,9.914,0,0,1,8.582,12.97q41.286,1.33,82.595-.426a14.555,14.555,0,0,1,12.278-14.341q-1.353-16.674-2.7-33.346a12.24,12.24,0,0,1-11.257-11.963c-23.23.4-72.709,0-72.709,0-2.13,6.48-10.071,10.813-14.66,10.57" transform="translate(-52.734 -92.173)" fill="#ffd8a9"/>
            <path id="Trazado_31988" data-name="Trazado 31988" d="M341.827,122.119a6.324,6.324,0,0,0-1.264-5.886,13.629,13.629,0,0,0-5.067-3.626,42.141,42.141,0,0,0-20.842-3.346,85.689,85.689,0,0,0-20.771,4.644c-3.478,1.164-7.067,2.532-9.512,5.266-2.114,2.362-3.014,6.325-.8,8.591,1.227,1.255,3.063,1.657,4.793,1.955a102.9,102.9,0,0,0,46.581-2.748c2.8-.83,5.9-2.1,6.88-4.849" transform="translate(-105.249 -40.684)" fill="#edaa5a"/>
            <path id="Trazado_31989" data-name="Trazado 31989" d="M298.149,120.047a8.82,8.82,0,0,0-3.117,2.47,8.567,8.567,0,0,0-2.139,3.557,2.9,2.9,0,0,0-.385,1.994c-.025.307-.045.617-.041.932,0,.391.882.692,1.15.442a21.314,21.314,0,0,0,5.664-8.766c.156-.457-.824-.771-1.131-.628" transform="translate(-109.034 -44.746)" fill="#d68934"/>
            <path id="Trazado_31990" data-name="Trazado 31990" d="M316.884,116.224c-1.582-.608-2.759,1.174-3.516,2.313a13.933,13.933,0,0,0-1.949,4.4c-.368,1.068-.9,2.818-.08,3.535a.837.837,0,0,0,.906.144,8.831,8.831,0,0,0,1.953-2.476,36.783,36.783,0,0,0,2.1-3.538c.5-.948,2.394-3.683.587-4.376" transform="translate(-115.92 -43.287)" fill="#d68934"/>
            <path id="Trazado_31991" data-name="Trazado 31991" d="M334.107,112.533c-1.395-.778-2.061.505-2.774,1.561-.193.286-.378.576-.557.87a14.043,14.043,0,0,0-3.357,8.24c-.03.4,1,.776,1.252.48a32.6,32.6,0,0,0,4.4-6.68c.41-.817,2.34-3.745,1.038-4.471" transform="translate(-122.076 -41.868)" fill="#d68934"/>
            <path id="Trazado_31992" data-name="Trazado 31992" d="M351.346,114.2a1.909,1.909,0,0,0-2.21.581.272.272,0,0,0-.254.1c-.134.223-.267.448-.4.672-.11.15-.216.3-.316.449a10.742,10.742,0,0,0-1.892,5.726.4.4,0,0,0,.174.308c.009.157.022.316.042.477a.889.889,0,0,0,1.189.457,13.409,13.409,0,0,0,3.58-5.059c.368-.885,1.4-3.148.083-3.711" transform="translate(-129.107 -42.523)" fill="#d68934"/>
            <path id="Trazado_31993" data-name="Trazado 31993" d="M365.972,118.439c-2.07-1.4-3.34,2.884-3.361,4.238a.477.477,0,0,0,.26.379.893.893,0,0,0,.87.2c.016-.009.029-.021.045-.031a.37.37,0,0,0,.113-.054c.046-.037.1-.078.142-.119a5.739,5.739,0,0,0,1.888-2.083c.4-.734.9-1.952.043-2.531" transform="translate(-135.197 -44.055)" fill="#d68934"/>
            <path id="Trazado_31994" data-name="Trazado 31994" d="M135.943,122.119a6.322,6.322,0,0,0-1.264-5.886,13.632,13.632,0,0,0-5.066-3.626,42.144,42.144,0,0,0-20.843-3.346A85.7,85.7,0,0,0,88,113.9c-3.478,1.164-7.067,2.532-9.512,5.266-2.114,2.362-3.013,6.325-.8,8.591,1.228,1.255,3.064,1.657,4.793,1.955a102.9,102.9,0,0,0,46.581-2.748c2.8-.83,5.9-2.1,6.879-4.849" transform="translate(-28.487 -40.684)" fill="#edaa5a"/>
            <path id="Trazado_31995" data-name="Trazado 31995" d="M92.266,120.047a8.82,8.82,0,0,0-3.117,2.47,8.56,8.56,0,0,0-2.139,3.557,2.9,2.9,0,0,0-.385,1.994c-.025.307-.045.617-.041.932,0,.391.882.692,1.15.442a21.307,21.307,0,0,0,5.663-8.766c.156-.457-.824-.771-1.131-.628" transform="translate(-32.272 -44.746)" fill="#d68934"/>
            <path id="Trazado_31996" data-name="Trazado 31996" d="M111,116.224c-1.582-.608-2.759,1.174-3.516,2.313a13.935,13.935,0,0,0-1.949,4.4c-.368,1.068-.9,2.818-.079,3.535a.837.837,0,0,0,.906.144,8.831,8.831,0,0,0,1.953-2.476,36.78,36.78,0,0,0,2.1-3.538c.5-.948,2.393-3.683.587-4.376" transform="translate(-39.158 -43.287)" fill="#d68934"/>
            <path id="Trazado_31997" data-name="Trazado 31997" d="M128.223,112.533c-1.395-.778-2.061.505-2.774,1.561-.193.286-.377.576-.557.87a14.047,14.047,0,0,0-3.357,8.24c-.029.4,1,.776,1.252.48a32.618,32.618,0,0,0,4.4-6.68c.41-.817,2.34-3.745,1.038-4.471" transform="translate(-45.313 -41.868)" fill="#d68934"/>
            <path id="Trazado_31998" data-name="Trazado 31998" d="M145.463,114.2a1.907,1.907,0,0,0-2.209.581.274.274,0,0,0-.255.1c-.134.223-.267.448-.4.672-.11.15-.215.3-.316.449a10.742,10.742,0,0,0-1.892,5.726.4.4,0,0,0,.175.308c.009.157.022.316.041.477a.889.889,0,0,0,1.189.457,13.41,13.41,0,0,0,3.581-5.059c.368-.885,1.4-3.148.083-3.711" transform="translate(-52.345 -42.523)" fill="#d68934"/>
            <path id="Trazado_31999" data-name="Trazado 31999" d="M160.089,118.439c-2.069-1.4-3.34,2.884-3.361,4.238a.479.479,0,0,0,.26.379.893.893,0,0,0,.87.2c.016-.009.029-.021.045-.031a.381.381,0,0,0,.114-.054c.046-.037.095-.078.142-.119a5.742,5.742,0,0,0,1.888-2.083c.4-.734.9-1.952.043-2.531" transform="translate(-58.435 -44.055)" fill="#d68934"/>
            <path id="Trazado_32000" data-name="Trazado 32000" d="M366.65,220.294c-.045-.223-.745-.562-.815-.248-.993,4.458-.494,9.515-.531,14.068q-.07,8.231-.082,16.462-.045,16.475-.049,32.95-.017,32.969.064,65.937c0,.646,1.806,1.185,1.81.413q.175-32.354.162-64.709.015-15.891,0-31.782c-.007-5.5-.006-10.994-.044-16.49-.036-5.391.529-11.3-.519-16.6" transform="translate(-136.149 -81.995)" fill="#933f25"/>
            <rect id="Rectángulo_3265" data-name="Rectángulo 3265" width="234.066" height="6.847" transform="translate(22.811 132.814)" fill="#c16f38"/>
            <path id="Trazado_32001" data-name="Trazado 32001" d="M36.372,203.256,53.49,188.933H254.121l16.317,14.323Z" transform="translate(-13.561 -70.443)" fill="#dd8f54"/>
            <path id="Trazado_32002" data-name="Trazado 32002" d="M0,291.764c22.684,11.062,51.471,10.5,74.058-.754-23.981-5.336-50.124-4.79-74.058.754" transform="translate(0 -107.115)" fill="#c16f38"/>
            <path id="Trazado_32003" data-name="Trazado 32003" d="M67.518,274.979c6.62-21.476,13.363-43.225,25.244-62.3a14.885,14.885,0,0,1,3.574-4.322,5.459,5.459,0,0,1,5.313-.872c3.1,1.394,3.213,5.694,2.773,9.065a262.179,262.179,0,0,1-14.795,58.925Z" transform="translate(-25.174 -77.224)" fill="#edaa5a"/>
            <path id="Trazado_32004" data-name="Trazado 32004" d="M13.534,280.1A263.128,263.128,0,0,1,.481,226.955c-.392-2.846-.431-6.374,2.034-7.851a5.075,5.075,0,0,1,5.2.393,14.213,14.213,0,0,1,3.715,4A194.188,194.188,0,0,1,39.5,282.314Z" transform="translate(-0.105 -81.486)" fill="#edaa5a"/>
            <path id="Trazado_32005" data-name="Trazado 32005" d="M46.066,270.969c-.553-16.849,1.338-45.266,5.409-61.625.675-2.711,1.863-5.863,4.589-6.474,2.014-.452,4.1.812,5.241,2.532a14.911,14.911,0,0,1,1.876,5.851,273.328,273.328,0,0,1,2.978,67Z" transform="translate(-17.14 -75.604)" fill="#edaa5a"/>
            <path id="Trazado_32006" data-name="Trazado 32006" d="M74.65,293.537c-25.059,9.247-50.023,11.124-74.65.555q4.965,44.953,13.495,89.46a100.115,100.115,0,0,0,51.562.269,873.165,873.165,0,0,0,9.594-90.284" transform="translate(0 -109.443)" fill="#dd8f54"/>
            <path id="Trazado_32007" data-name="Trazado 32007" d="M22.248,294.367a9.878,9.878,0,0,0-5.362-5.353c-5.579-2.031-7.78,6.7-7.807,10.548,0,.546,1.3.974,1.586.484l.26-.446a.2.2,0,0,0-.024-.247c.953-2.9,3.641-11.375,6.888-7.779,2.7,2.989,2.69,7.093,4.214,10.555.219.5,2.04,1.375,2.275.525.724-2.613-.893-5.962-2.031-8.287" transform="translate(-3.385 -107.644)" fill="#dd8f54"/>
            <path id="Trazado_32008" data-name="Trazado 32008" d="M47.169,277.391c-.1-.2-.877-.6-.973-.225l-.13.515c-.045.177.214.349.442.388,1.917,4.872,3.954,10.145,6.706,14.549.123.2,1.117.573,1,.152-1.5-5.241-4.527-10.551-7.041-15.379" transform="translate(-17.174 -103.282)" fill="#d68934"/>
            <path id="Trazado_32009" data-name="Trazado 32009" d="M75.805,279.84a58.952,58.952,0,0,0-4.828,15.884c-.149.383.926.758,1.02.391,1.382-5.377,3.054-10.659,4.478-16.018.068-.253-.554-.494-.67-.258" transform="translate(-26.458 -104.3)" fill="#d68934"/>
            <path id="Trazado_32010" data-name="Trazado 32010" d="M80.171,287.325c-.616.318-1.3.909-1.078,1.565a1.5,1.5,0,0,0,.942.776,17.057,17.057,0,0,0,6.993,1.3,6.946,6.946,0,0,0,4.548-1.464,1.788,1.788,0,0,0,.62-2.09,2.019,2.019,0,0,0-1.1-.749,13.727,13.727,0,0,0-10.925.664" transform="translate(-29.473 -106.571)" fill="#d68934"/>
            <path id="Trazado_32011" data-name="Trazado 32011" d="M98.561,268.154a9.092,9.092,0,0,0-10.176-.2c-.291.2-.6.464-.59.815.01.448.51.7.938.837a19.23,19.23,0,0,0,9.037.623c.67-.115,1.5-.466,1.459-1.145a1.368,1.368,0,0,0-.669-.928" transform="translate(-32.734 -99.361)" fill="#d68934"/>
            <path id="Trazado_32012" data-name="Trazado 32012" d="M94.81,251.836c-.074.509.466.877.942,1.069a9.545,9.545,0,0,0,7.969-.442c.236-.127.492-.3.527-.565.058-.441-.491-.68-.926-.771-2.554-.531-5.288-1.047-7.7-.061-.362.148-.753.384-.81.77" transform="translate(-35.347 -93.4)" fill="#d68934"/>
            <path id="Trazado_32013" data-name="Trazado 32013" d="M102.62,238.492a11.554,11.554,0,0,0,3.6-.124,4.88,4.88,0,0,0,2.983-1.9,14.587,14.587,0,0,0-6.754-.238c-.69.14-1.528.538-1.472,1.24s.94.959,1.641,1.02" transform="translate(-37.648 -87.971)" fill="#d68934"/>
            <path id="Trazado_32014" data-name="Trazado 32014" d="M112.48,223.714a6.276,6.276,0,0,0-5.123.189c-.292.172-.6.447-.553.784.049.383.5.557.877.629a8.847,8.847,0,0,0,4.667-.386c.369-.135.8-.445.673-.816a.781.781,0,0,0-.542-.4" transform="translate(-39.82 -83.242)" fill="#d68934"/>
            <path id="Trazado_32015" data-name="Trazado 32015" d="M55.2,275.348a28.244,28.244,0,0,0,7.383.317,9.432,9.432,0,0,0,3.154-.714,4.09,4.09,0,0,0,2.209-2.262,18.689,18.689,0,0,0-12.332-.519,3.424,3.424,0,0,0-1.557.9,1.384,1.384,0,0,0-.164,1.677,2.012,2.012,0,0,0,1.306.6" transform="translate(-20.013 -101.172)" fill="#d68934"/>
            <path id="Trazado_32016" data-name="Trazado 32016" d="M56.053,258.637c.219.576.946.74,1.562.78a14.832,14.832,0,0,0,7.473-1.483c.311-.153.669-.493.473-.779a.617.617,0,0,0-.322-.2,12.293,12.293,0,0,0-7.7-.093,2.849,2.849,0,0,0-1.141.594,1.143,1.143,0,0,0-.339,1.179" transform="translate(-20.878 -95.556)" fill="#d68934"/>
            <path id="Trazado_32017" data-name="Trazado 32017" d="M58.821,245.013a9.541,9.541,0,0,0,6.993-.737c.246-.13.522-.343.474-.617-.042-.238-.3-.358-.534-.433a13.237,13.237,0,0,0-6.606-.4,2.524,2.524,0,0,0-1.008.369.984.984,0,0,0-.438.928c.092.495.637.751,1.121.889" transform="translate(-21.509 -90.446)" fill="#d68934"/>
            <path id="Trazado_32018" data-name="Trazado 32018" d="M60.556,233.155a4.759,4.759,0,0,0,5.071-1.732,7.656,7.656,0,0,0-5.032-.241c-.49.145-1.044.446-1.066.956s.528.87,1.027,1.017" transform="translate(-22.195 -86.077)" fill="#d68934"/>
            <path id="Trazado_32019" data-name="Trazado 32019" d="M64.923,218.8c-1.325-.516-2.751.331-3.947,1.1a1.731,1.731,0,0,0,1.384,1.072,5.086,5.086,0,0,0,1.825-.117c.692-.129,1.563-.472,1.522-1.174a1.122,1.122,0,0,0-.784-.882" transform="translate(-22.735 -81.519)" fill="#d68934"/>
            <path id="Trazado_32020" data-name="Trazado 32020" d="M39.491,284.391a8.379,8.379,0,0,0-7.972,3.256c-.372.511-.65,1.308-.156,1.7a1.317,1.317,0,0,0,.86.193,22.579,22.579,0,0,0,10.355-2.7c.552-.3,1.172-.786,1.047-1.4-.1-.478-.6-.741-1.064-.9-1.489-.531-1.511.113-3.071-.147" transform="translate(-11.594 -105.994)" fill="#d68934"/>
            <path id="Trazado_32021" data-name="Trazado 32021" d="M32.5,269.2a5.622,5.622,0,0,0-6.174,3.487,14.978,14.978,0,0,0,8.342-1.676c.576-.307,1.2-.77,1.194-1.422-1.474-.759-1.737-.066-3.363-.389" transform="translate(-9.814 -100.336)" fill="#d68934"/>
            <path id="Trazado_32022" data-name="Trazado 32022" d="M22.139,257.646a1.349,1.349,0,0,0-.659,1.114c.083.646.914.852,1.565.838a9.878,9.878,0,0,0,7.063-3.261,8.482,8.482,0,0,0-7.969,1.309" transform="translate(-8.007 -95.399)" fill="#d68934"/>
            <path id="Trazado_32023" data-name="Trazado 32023" d="M23.125,244.681a5.191,5.191,0,0,0-4.023-.033,3.89,3.89,0,0,0-1.607,1.183,1.114,1.114,0,0,0-.283.877.892.892,0,0,0,.709.622,2.277,2.277,0,0,0,.985-.073,11.36,11.36,0,0,0,4.249-2.021c.115-.088.24-.213.2-.352-.028-.1-.135-.162-.233-.2" transform="translate(-6.412 -91.07)" fill="#d68934"/>
            <path id="Trazado_32024" data-name="Trazado 32024" d="M13.9,230.284a4.687,4.687,0,0,0-.941.837,1.058,1.058,0,0,0-.348.921c.117.422.647.559,1.084.559a4.561,4.561,0,0,0,3.1-1.231,1.339,1.339,0,0,0-1-1.5,2.382,2.382,0,0,0-1.893.416" transform="translate(-4.694 -85.682)" fill="#d68934"/>
            <path id="Trazado_32025" data-name="Trazado 32025" d="M70.292,303.949a105.886,105.886,0,0,1-34.326,5.415c-11.819-.158-22.9-2.918-34.062-6.557-.3-.1-.384.124-.1.255,10.672,4.861,22.925,6.794,34.57,7.1a94.853,94.853,0,0,0,34.788-5.53c.537-.2-.509-.8-.872-.679" transform="translate(-0.608 -112.891)" fill="#c16f38"/>
            <path id="Trazado_32026" data-name="Trazado 32026" d="M25.171,337.842c-.874-8.9-1.228-17.878-2.3-26.75-.026-.213-.62-.412-.622-.142-.032,8.869,1.02,17.836,1.884,26.655.867,8.852,1.566,17.9,3.281,26.634.048.248.767.489.743.169-.669-8.869-2.115-17.71-2.984-26.566" transform="translate(-8.294 -115.887)" fill="#c16f38"/>
            <path id="Trazado_32027" data-name="Trazado 32027" d="M34.917,339.167q-1.048-12.707-2.221-25.4c-.016-.175-.5-.315-.49-.112q.836,12.659,1.8,25.31c.639,8.391.726,17.072,2.095,25.376.041.248.74.5.743.169.082-8.389-1.239-16.978-1.929-25.338" transform="translate(-12.008 -116.905)" fill="#c16f38"/>
            <path id="Trazado_32028" data-name="Trazado 32028" d="M41.494,322.056c-.021-.2-.582-.368-.568-.129.5,8.645.886,17.41,2.068,25.993.029.216.636.416.63.144-.192-8.665-1.239-17.39-2.129-26.008" transform="translate(-15.259 -119.985)" fill="#c16f38"/>
            <path id="Trazado_32029" data-name="Trazado 32029" d="M36.528,333.81a32.045,32.045,0,0,1-18.072-1.119c-.384-.138-.493.164-.125.326a27.505,27.505,0,0,0,18.78,1.335c.4-.119-.339-.592-.583-.541" transform="translate(-6.75 -124.028)" fill="#c16f38"/>
            <path id="Trazado_32030" data-name="Trazado 32030" d="M33.892,343.987a48.978,48.978,0,0,1-13.139-1.823c-.494-.154-.669.255-.163.425A33.316,33.316,0,0,0,34.3,344.572c.542-.055-.152-.575-.41-.585" transform="translate(-7.564 -127.561)" fill="#c16f38"/>
            <path id="Trazado_32031" data-name="Trazado 32031" d="M32.532,357.571a27.856,27.856,0,0,1-7.927.272c-.618-.083-.169.549.2.61a17.025,17.025,0,0,0,8.26-.389c.384-.132-.333-.522-.531-.493" transform="translate(-9.06 -133.317)" fill="#c16f38"/>
            <path id="Trazado_32032" data-name="Trazado 32032" d="M85.2,370.912c-.013,6.509-.522,13.269.146,19.745.027.26.716.5.753.172.657-6.063.162-12.42.151-18.518-.012-6.586.006-13.171-.188-19.755-.008-.238-.665-.444-.674-.154-.185,6.169-.177,12.339-.189,18.51" transform="translate(-31.693 -131.338)" fill="#c16f38"/>
            <path id="Trazado_32033" data-name="Trazado 32033" d="M93.58,367.662c.006-.213-.591-.4-.6-.138-.305,6.313-.676,13.046.374,19.3.043.25.751.5.753.171.028-6.445-.688-12.867-.523-19.336" transform="translate(-34.546 -136.981)" fill="#c16f38"/>
            <path id="Trazado_32034" data-name="Trazado 32034" d="M91.449,374.1c-3.145.4-5.826.554-8.736-1-.362-.193-.881.034-.371.323,2.7,1.53,6.614,2.538,9.564,1.105.329-.16-.292-.445-.457-.424" transform="translate(-30.621 -139.079)" fill="#c16f38"/>
            <path id="Trazado_32035" data-name="Trazado 32035" d="M89.3,384.481a20.5,20.5,0,0,1-6.078-.851c-.542-.173-.73.275-.179.465a16.271,16.271,0,0,0,6.666.971c.535-.045-.141-.581-.409-.585" transform="translate(-30.838 -143.019)" fill="#c16f38"/>
            <path id="Trazado_32036" data-name="Trazado 32036" d="M87.894,398.692a4.134,4.134,0,0,1-3.4-.431c-.146-.076-.817-.118-.5.189a4.479,4.479,0,0,0,4.559.752c.41-.162-.391-.594-.656-.511" transform="translate(-31.284 -148.469)" fill="#c16f38"/>
            <path id="Trazado_32037" data-name="Trazado 32037" d="M78.952,391.185a92.992,92.992,0,0,0-.581,17.316c.014.2.574.389.586.134.263-5.754.315-11.516.576-17.273.009-.192-.558-.369-.581-.177" transform="translate(-29.152 -145.82)" fill="#c16f38"/>
            <path id="Trazado_32038" data-name="Trazado 32038" d="M78.808,402.76a5.443,5.443,0,0,1-4.364-.674c-.245-.157-.827-.018-.43.247a6.233,6.233,0,0,0,5.383.885c.371-.117-.352-.517-.59-.459" transform="translate(-27.546 -149.891)" fill="#c16f38"/>
            <path id="Trazado_32039" data-name="Trazado 32039" d="M289.639,405.6a12.019,12.019,0,0,0,11.58-2.622,93,93,0,0,0,61.292-1.505c1.826,1.947,3.8,3.982,6.379,4.654s5.883-.7,6.248-3.34-2.209-4.84-2.55-7.495c-.282-2.2,1-4.246,1.856-6.289,2.827-6.715,1.251-14.413-.842-21.391s-4.7-14.118-3.788-21.347q-33.225.982-66.461-.494c-.956,10.016-9.363,17.672-12.556,27.214a27.679,27.679,0,0,0,4.09,25.023,8.107,8.107,0,0,0-5.247,7.59" transform="translate(-107.915 -128.92)" fill="#dd8f54"/>
            <path id="Trazado_32040" data-name="Trazado 32040" d="M309.605,327.077c-2.07,3.431-2.675,7.52-3.237,11.486,10.682,6.124,23.169,8.748,35.479,8.542s24.467-3.152,35.959-7.57q-.8-7.224-1.6-14.448a59.342,59.342,0,0,0-66.6,1.989" transform="translate(-114.227 -117.754)" fill="#efaa65"/>
            <path id="Trazado_32041" data-name="Trazado 32041" d="M415.991,382.432c-1.738-7.995-7.592-14.209-7-22.814.014-.193-.559-.391-.6-.184-1.569,7.123,3.1,13.5,5.552,19.842,3.065,7.918,1.183,16.468-2.169,23.942-.182.406.971.867,1.172.449,3.178-6.614,4.624-13.992,3.05-21.234" transform="translate(-152.147 -133.98)" fill="#c16f38"/>
            <path id="Trazado_32042" data-name="Trazado 32042" d="M416.264,427.438c-1.968.174-4,1.841-5.428,3.1-.243.215.484.563.7.391a19.441,19.441,0,0,1,2.669-1.773,11.628,11.628,0,0,0,2.56-1.326c.219-.212-.372-.4-.5-.39" transform="translate(-153.159 -159.367)" fill="#c16f38"/>
            <path id="Trazado_32043" data-name="Trazado 32043" d="M417.776,431.532c-.769-.616-2.32-1.294-3.292-.815-.335.166.254.441.4.454a3.348,3.348,0,0,1,2.4.839,4.717,4.717,0,0,1,1.067,2.179c.061.213.764.6.847.259a3.066,3.066,0,0,0-1.422-2.916" transform="translate(-154.5 -160.53)" fill="#c16f38"/>
            <path id="Trazado_32044" data-name="Trazado 32044" d="M417.426,389.932a3.346,3.346,0,0,0-3.072,1.268c-.249.292.58.672.8.446a3.867,3.867,0,0,1,1.191-.843c.457-.208.972-.186,1.422-.384.341-.15-.2-.455-.341-.487" transform="translate(-154.472 -145.363)" fill="#c16f38"/>
            <path id="Trazado_32045" data-name="Trazado 32045" d="M419.767,393.221c-.509,0-.057.465.241.465.509,0,.057-.465-.241-.465" transform="translate(-156.422 -146.61)" fill="#c16f38"/>
            <path id="Trazado_32046" data-name="Trazado 32046" d="M306.347,434.692a30.56,30.56,0,0,0-4.755-1.265c-.406-.066-.364.259-.043.383a31.116,31.116,0,0,0,4.746,1.34c.484.1.44-.326.051-.457" transform="translate(-112.337 -161.597)" fill="#c16f38"/>
            <path id="Trazado_32047" data-name="Trazado 32047" d="M365.248,302.959c-4.779-5.015-11.342-9.01-18.241-8.391-6.726.6-12.349,5.444-16.384,10.859s-6.984,11.6-11.291,16.8c8.814,3.66,18.593,4.513,28.114,3.844s18.871-2.8,28.175-4.927a43.7,43.7,0,0,0-10.372-18.189" transform="translate(-119.06 -109.804)" fill="#fff"/>
            <rect id="Rectángulo_3266" data-name="Rectángulo 3266" width="208.904" height="6.028" transform="translate(35.865 87.719)" fill="#b55935"/>
            <path id="Trazado_32048" data-name="Trazado 32048" d="M179.976,265.713a61.209,61.209,0,0,1-6.321,4.109c.111-1.014.041-2.076-.807-2.549-1.814-1.011-3.348.058-4.513,1.751.245-1.3.512-2.605.827-3.9.765-3.15,2.009-6.166,2.755-9.31.09-.378-.784-.707-.976-.375-3.35,5.763-4.467,13.3-5.044,19.848-.014.156.114.308.3.426-.194.236-.387.475-.57.726-.679.933-.842,2.351.439,2.842,1.53.588,2.771-.006,4.031-.926,2.138-1.561,2.886-4.48,3.3-6.929a86.928,86.928,0,0,0,7.9-4.975c.456-.354-.891-1.074-1.32-.737m-7.7,2.766a7.594,7.594,0,0,1,0,2.193,28.783,28.783,0,0,0-4.666,3.521,13.14,13.14,0,0,1,.842-2.516c.013-.029,3.529-5,3.823-3.2m-3.42,9.18q-2.021,2.114-1.528-1.3a15.07,15.07,0,0,1,1.87-1.947,20.03,20.03,0,0,1,2.717-2.053,12.461,12.461,0,0,1-3.059,5.3" transform="translate(-61.559 -95.187)" fill="#933f25"/>
            <path id="Trazado_32049" data-name="Trazado 32049" d="M203.688,266.723a17.594,17.594,0,0,0-5.114,6.6,89.608,89.608,0,0,1,4.5-13.59c.183-.462-1.053-.939-1.283-.493-1.721,3.348-3.462,6.684-5.421,9.9-.532.874-1.106,1.723-1.682,2.569.56-.823-2.115,3.564-2.548,2.1-.612-2.078.3-5,.8-7.015.132-.526-1.114-1-1.374-.527l-.194.354a2.047,2.047,0,0,0-2.214-.365c-2.763,1.278-4.027,4.2-4.356,7.089-.128,1.123.51,3.017,2.1,2.421,1.068-.4,1.7-1.8,2.281-2.665.554-.828,1.081-1.674,1.6-2.527-.272,2.64-.029,5.333,2.333,4.591,2.121-.667,3.511-3.752,4.614-5.5.119-.189.226-.385.343-.575a46.972,46.972,0,0,0-1.857,9.535c-.04.48,1.264.936,1.476.45.879-2.008,1.78-4,2.828-5.922a23.855,23.855,0,0,1,2.551-3.725c.1-.126,3.047-3.018,3.112-1.988.024.376,1.15.807,1.224.373.4-2.337-2.508-1.947-3.72-1.092M186.254,274.7c.356-.405.244-2.65.468-3.385.154-.509,3.1-5.357,4.216-3.882a39.921,39.921,0,0,1-4.684,7.267" transform="translate(-68.899 -96.591)" fill="#933f25"/>
            <path id="Trazado_32050" data-name="Trazado 32050" d="M231.957,266.242a22.556,22.556,0,0,1-4.06,8.786,10.505,10.505,0,0,1-3.583,3.185c-2.8,1.394-2.97-1.135-2.613-3.34a.849.849,0,0,1,.366-.115,4.717,4.717,0,0,0,3.34-2.125c.916-1.234.692-3.272-1-3.658-2.633-.6-3.909,3.281-4.379,5.188a15.568,15.568,0,0,1-2.911,3.809c-3.438,3.111-5.751-.777-5.728-3.791,0-.3-.884-.628-.96-.293-1.287,5.68,4.934,7.6,8.691,4.282a7.366,7.366,0,0,0,.993-1.368,3.819,3.819,0,0,0,2.294,2.389c5.939,2.28,10.237-8.3,11.048-12.376.117-.59-1.375-1.113-1.5-.576m-8.186,3.991.5,1.035a3.869,3.869,0,0,1-1.262,1.721,1.99,1.99,0,0,1-.993.419,8.76,8.76,0,0,1,.346-1.061,8.192,8.192,0,0,1,1.407-2.114" transform="translate(-78.393 -99.183)" fill="#933f25"/>
            <path id="Trazado_32051" data-name="Trazado 32051" d="M254.558,268.19a32.618,32.618,0,0,1-6.142,8.723,6.944,6.944,0,0,1-1.863,1.346c-1.091.356-1.806-.056-2.088-1.349a5.574,5.574,0,0,1,.185-2.165,24.5,24.5,0,0,1,1.842-5.3c.559-1.232.249-2.413-1.18-2.74a3.1,3.1,0,0,0-1.571.076c.425-1.371.633-2.872-.1-3.668-.7-.762-2.174-1.594-3.138-.639-2.266,2.243-.623,4.606,1.685,5.273-.085.4-.175.805-.272,1.2-.077.31.674.6.817.314.159-.323.378-.791.6-1.333a4.217,4.217,0,0,0,1.3-.156c.606-.175-.984,4.245-1.086,4.557a16.738,16.738,0,0,0-.723,3.453,3.418,3.418,0,0,0,2.782,3.622c2.029.463,3.636-1.09,4.946-2.381a24.732,24.732,0,0,0,5.488-8.262c.213-.533-1.219-1.086-1.483-.569m-13.626-4.064c.9-2.082,1.945.063,1.59,1.192-.007.179-.027.357-.043.536-.983.367-1.654-.26-1.548-1.728" transform="translate(-89.267 -97.702)" fill="#933f25"/>
            <path id="Trazado_32052" data-name="Trazado 32052" d="M275.073,271.107l-.394-.388c-.2-.193-1.514-.554-1.161.018-.124-.2-1.942.7-4.137,1.9a65.355,65.355,0,0,0,.77-7.967c.026-.45-1.067-.827-1.358-.521q-2.258,2.368-4.685,4.548c-2.3,2.068-.5-2.033-.3-3.178.036-.209-.458-.45-.588-.274-.817,1.109-2.7,4.426-.586,5.24a1.94,1.94,0,0,0,1.861-.4,24.023,24.023,0,0,0,4.041-3.6,43.567,43.567,0,0,1-1.175,7.281c-2.7,1.526-5.377,3.129-5.918,3.506-1.68,1.169-4.992,4.834-1.532,6.218,3.373,1.348,5.629-1.745,7.189-4.369a17.836,17.836,0,0,0,1.921-4.817c1.97-.952,3.994-1.8,5.99-2.694a.286.286,0,0,0,.062-.5m-12.289,10.886q-3.845.974-2.637-1.579a6.34,6.34,0,0,1,1.749-1.851,32.923,32.923,0,0,1,4.948-3.148l0,0a16.357,16.357,0,0,1-4.064,6.579" transform="translate(-96.34 -98.445)" fill="#933f25"/>
            <path id="Trazado_32053" data-name="Trazado 32053" d="M55.286,150.695a20.581,20.581,0,0,1-1.477-4.844,6.917,6.917,0,0,1,.979-4.864,6.623,6.623,0,0,1,5.61-2.518,14.044,14.044,0,0,1,6.068,1.873,33.121,33.121,0,0,1,13.586,13.412Z" transform="translate(-20.033 -51.626)" fill="#d68934"/>
            <path id="Trazado_32054" data-name="Trazado 32054" d="M81.649,146.727a22.16,22.16,0,0,1,8.91-13.913c1.8-1.267,4.04-2.292,6.147-1.664,2.695.8,3.955,3.888,4.388,6.666a25.771,25.771,0,0,1-1.084,12.276Z" transform="translate(-30.442 -48.827)" fill="#d68934"/>
            <path id="Trazado_32055" data-name="Trazado 32055" d="M122.88,151.872A28.748,28.748,0,0,1,137.444,137.9a11.613,11.613,0,0,1,4.391-1.1,5.373,5.373,0,0,1,4.1,1.644,6.338,6.338,0,0,1,1.336,3.824c.295,4.606-1.9,8.994-4.386,12.884Z" transform="translate(-45.815 -51.007)" fill="#d68934"/>
            <path id="Trazado_32056" data-name="Trazado 32056" d="M105,146.011a32,32,0,0,1,13.386-15.778c1.761-1.044,3.852-1.938,5.806-1.33,2.318.721,3.55,3.323,3.748,5.743s-.356,4.845-.283,7.272c.165,5.492-5.575,9.094-10.85,10.632a9.693,9.693,0,0,1-7.578-.532c-2.242-1.325-3.594-4.309-2.5-6.674Z" transform="translate(-39.148 -47.987)" fill="#d68934"/>
            <path id="Trazado_32057" data-name="Trazado 32057" d="M120.68,155.272c-24.016.682-47.751,1.076-71.081,1.786q1.189,14.383,2.378,28.765,32.912,2.109,65.925,1.052.76-15.849,2.778-31.6" transform="translate(-18.493 -57.892)" fill="#efaa65"/>
            <path id="Trazado_32058" data-name="Trazado 32058" d="M42.41,173.7a120.414,120.414,0,0,0,26.171-17.343q-10.374-.327-20.754.186A42.709,42.709,0,0,0,42.41,173.7" transform="translate(-15.812 -58.249)" fill="#f2d1a5"/>
            <path id="Trazado_32059" data-name="Trazado 32059" d="M129.765,155.2a126.732,126.732,0,0,0,21.284,16.563,79.157,79.157,0,0,0,1.964-16.924,73.367,73.367,0,0,0-23.249.361" transform="translate(-48.382 -57.449)" fill="#f2d1a5"/>
            <path id="Trazado_32060" data-name="Trazado 32060" d="M72.75,147.045a12.281,12.281,0,0,0-6.268-4.367,10.633,10.633,0,0,0-7.57.6c.217,1.75,1.668,3.078,3.148,4.037a20,20,0,0,0,8.9,3.1,2.487,2.487,0,0,0,2.337-.651c.576-.811.061-1.936-.542-2.727" transform="translate(-21.965 -53.037)" fill="#edaa5a"/>
            <path id="Trazado_32061" data-name="Trazado 32061" d="M95.011,135.108c-3.054,2.465-5.682,5.906-5.776,9.829a2.026,2.026,0,0,0,.622,1.767c.746.521,1.752-.014,2.495-.54,3.083-2.183,6.374-4.654,7.362-8.3.378-1.4.188-3.216-1.126-3.819-1.193-.548-2.554.238-3.576,1.062" transform="translate(-33.27 -49.91)" fill="#edaa5a"/>
            <path id="Trazado_32062" data-name="Trazado 32062" d="M121.422,143.44a19.615,19.615,0,0,0,7.691-7.394,2.864,2.864,0,0,0,.522-1.636,2.047,2.047,0,0,0-1.916-1.668,4.831,4.831,0,0,0-2.623.717,16.557,16.557,0,0,0-7.276,7.74,2.561,2.561,0,0,0-.3,1.759,1.836,1.836,0,0,0,1.767,1.149,4.559,4.559,0,0,0,2.13-.667" transform="translate(-43.794 -49.487)" fill="#edaa5a"/>
            <path id="Trazado_32063" data-name="Trazado 32063" d="M145.635,139.313a16.123,16.123,0,0,0-10.05,5.222c-.564.632-1.1,1.522-.711,2.272.46.878,1.732.774,2.692.527,3.436-.882,6.949-2.024,9.543-4.443a3.926,3.926,0,0,0,1.01-1.315,1.709,1.709,0,0,0-.087-1.6,2.475,2.475,0,0,0-2.4-.663" transform="translate(-50.237 -51.927)" fill="#edaa5a"/>
            <path id="Trazado_32064" data-name="Trazado 32064" d="M135.589,141.448a20.122,20.122,0,0,0-4.926,3.8c-1.375,1.285-3.276,2.821-4.037,4.568-.09.207.4.337.526.245,1.612-1.149,2.886-2.979,4.332-4.354,1.425-1.355,3.237-2.5,4.472-4.019.124-.152-.255-.294-.367-.242" transform="translate(-47.208 -52.734)" fill="#ba6817"/>
            <path id="Trazado_32065" data-name="Trazado 32065" d="M110.5,144.062a12.776,12.776,0,0,0-3.428,5.871c-.047.241.492.448.619.238.546-.9.887-1.937,1.372-2.879.544-1.057,1.239-2.019,1.8-3.061.067-.125-.278-.25-.361-.169" transform="translate(-39.919 -53.703)" fill="#ba6817"/>
            <path id="Trazado_32066" data-name="Trazado 32066" d="M87.418,153.263a17.929,17.929,0,0,0-3.9-4.88c-.115-.107-.66-.212-.445.051,1.3,1.577,2.462,3.249,3.739,4.839.106.132.761.3.608-.009" transform="translate(-30.954 -55.281)" fill="#ba6817"/>
            <path id="Trazado_32067" data-name="Trazado 32067" d="M162.57,166.235s-.056,2.761,0,3.846c18.492,3.587,37.191,2.537,55.938.788l.261-3.922c-9.119-2.65-48.9-2.689-56.2-.711" transform="translate(-60.604 -61.461)" fill="#9edadd"/>
            <g id="Grupo_12158" data-name="Grupo 12158" transform="translate(103.582 75.977)" opacity="0.48">
              <g id="Grupo_12157" data-name="Grupo 12157">
                <g id="Grupo_12156" data-name="Grupo 12156" clip-path="url(#clip-path-3)">
                  <path id="Trazado_32068" data-name="Trazado 32068" d="M205.765,131.442a26.017,26.017,0,0,0-11.981-3.546c.033-1.119.052-2.238.041-3.358a2.221,2.221,0,0,0,2.662-2.346,8.982,8.982,0,0,0-6.754-.677c-.876.263-1.819.8-1.966,1.7a1.667,1.667,0,0,0,.875,1.662,2.276,2.276,0,0,0,1.937.043q.023,1.506.045,3.013a24.029,24.029,0,0,0-8.294,2.08c-8.253,3.789-14.117,9.875-17.167,20.686a426.273,426.273,0,0,0,53.1,0,26.38,26.38,0,0,0-12.5-19.257" transform="translate(-165.162 -121.145)" fill="#e8d2cd"/>
                </g>
              </g>
            </g>
            <path id="Trazado_32069" data-name="Trazado 32069" d="M190.363,151.838a3.942,3.942,0,0,0-4.685,3.318,1.128,1.128,0,0,0,.286,1.071,1.252,1.252,0,0,0,1.087.05,15.075,15.075,0,0,0,2.852-1.121,4.134,4.134,0,0,0,4.36.22,6.4,6.4,0,0,0,4.963,1.9,15.05,15.05,0,0,0,5.281-1.365c.828,1.78,3.182.48,4.352,0,.152.648.891.94,1.529,1.131a2.554,2.554,0,0,0,2.036.023,1.465,1.465,0,0,0,.532-1.73,1.966,1.966,0,0,0-1.475-1.164c.266.051.049-1.782,0-1.937a4.932,4.932,0,0,0-1.037-1.658,3.865,3.865,0,0,0-4.033-.906,7.111,7.111,0,0,0-10.938.327,5.325,5.325,0,0,0-1.383-.408,3.374,3.374,0,0,0-1.52.36,3.906,3.906,0,0,0-2.205,1.892" transform="translate(-69.221 -54.905)" fill="#a85720"/>
            <path id="Trazado_32070" data-name="Trazado 32070" d="M216.911,152.115a4.776,4.776,0,0,0-1.7,4.775c.026.077.325.2.342.078a18.484,18.484,0,0,1,.256-2.252,6.579,6.579,0,0,1,1.393-2.437c.092-.115-.206-.232-.293-.164" transform="translate(-80.183 -56.708)" fill="#a85720"/>
            <path id="Trazado_32071" data-name="Trazado 32071" d="M225.19,157.707a1.782,1.782,0,0,0-1.021.486,1.754,1.754,0,0,0-.639.987c-.039.174.337.3.433.166a5.957,5.957,0,0,1,.707-.874,2.55,2.55,0,0,1,.419-.319c.134-.085.276-.111.368-.241.073-.1-.209-.206-.267-.206" transform="translate(-83.341 -58.8)" fill="#a85720"/>
            <path id="Trazado_32072" data-name="Trazado 32072" d="M200.2,151.9a3.821,3.821,0,0,0-1.875,4.5c.041.111.431.25.423.064a5.138,5.138,0,0,1,1.7-4.406c.093-.092-.175-.2-.247-.163" transform="translate(-73.875 -56.634)" fill="#a85720"/>
            <path id="Trazado_32073" data-name="Trazado 32073" d="M192.134,157.7a3.5,3.5,0,0,1-.382-1.192,2.873,2.873,0,0,1,.26-1.251c.033-.1-.21-.2-.27-.126a2.075,2.075,0,0,0,.112,2.572c.048.053.351.144.28,0" transform="translate(-71.343 -57.832)" fill="#a85720"/>
            <path id="Trazado_32074" data-name="Trazado 32074" d="M203.312,150.2a3.4,3.4,0,0,0-.86,2.054,1.682,1.682,0,0,0,.332,1.223,2.025,2.025,0,0,0,1.766.432,10.169,10.169,0,0,0,5.2-2.13c.436-.346.881-.83.785-1.378-.1-.578-.739-.874-1.3-1.046a8.4,8.4,0,0,0-3.114-.435,4.243,4.243,0,0,0-2.81,1.28" transform="translate(-75.481 -55.516)" fill="#a85720"/>
            <path id="Trazado_32075" data-name="Trazado 32075" d="M218.657,152.833a2.3,2.3,0,0,0-1.21,1.309,1.494,1.494,0,0,0,1.306,1.61,3.147,3.147,0,0,0,2.17-.645,1.964,1.964,0,0,0,1.057-1.536,1.376,1.376,0,0,0-.985-1.189,4.21,4.21,0,0,0-2.339.451" transform="translate(-81.066 -56.798)" fill="#a85720"/>
            <path id="Trazado_32076" data-name="Trazado 32076" d="M194.465,153.313a2.913,2.913,0,0,1-.675.914c-.24.3-.386.766-.119,1.039a.842.842,0,0,0,.526.2,2.957,2.957,0,0,0,3.243-2.612c-.728-.308-2.754-.3-2.975.456" transform="translate(-72.156 -56.92)" fill="#a85720"/>
            <path id="Trazado_32077" data-name="Trazado 32077" d="M189.173,156.281a.7.7,0,0,0-.753-.064,3.582,3.582,0,0,0-2.051,1.946,2.315,2.315,0,0,0,2.816-1.194.658.658,0,0,0-.011-.688" transform="translate(-69.486 -58.216)" fill="#a85720"/>
            <path id="Trazado_32078" data-name="Trazado 32078" d="M227.183,159.6a1.223,1.223,0,0,0-.673-.731.651.651,0,0,0-.836.369,1.031,1.031,0,0,0,.259.8,1.875,1.875,0,0,0,.43.492.629.629,0,0,0,.62.088c.344-.168.344-.667.2-1.022" transform="translate(-84.134 -59.22)" fill="#a85720"/>
            <path id="Trazado_32079" data-name="Trazado 32079" d="M204.278,156.431a3.941,3.941,0,0,0-4.685,3.318,1.127,1.127,0,0,0,.286,1.07,1.248,1.248,0,0,0,1.087.05,15.031,15.031,0,0,0,2.852-1.12,4.135,4.135,0,0,0,4.36.219,6.394,6.394,0,0,0,4.963,1.9,15.05,15.05,0,0,0,5.281-1.365c.828,1.78,3.182.48,4.352,0,.152.648.891.94,1.529,1.13a2.549,2.549,0,0,0,2.036.023,1.464,1.464,0,0,0,.532-1.73,1.965,1.965,0,0,0-1.475-1.164c.266.051.049-1.782,0-1.937a4.926,4.926,0,0,0-1.037-1.658,3.864,3.864,0,0,0-4.033-.906,7.112,7.112,0,0,0-10.938.326A5.351,5.351,0,0,0,208,154.18a3.373,3.373,0,0,0-1.52.36,3.9,3.9,0,0,0-2.205,1.891" transform="translate(-74.409 -56.617)" fill="#c16f38"/>
            <path id="Trazado_32080" data-name="Trazado 32080" d="M230.826,156.708a4.778,4.778,0,0,0-1.7,4.775c.025.077.325.2.342.078a18.487,18.487,0,0,1,.256-2.252,6.577,6.577,0,0,1,1.393-2.438c.092-.114-.206-.231-.293-.164" transform="translate(-85.371 -58.42)" fill="#a85720"/>
            <path id="Trazado_32081" data-name="Trazado 32081" d="M239.105,162.3a1.782,1.782,0,0,0-1.021.486,1.754,1.754,0,0,0-.639.987c-.039.173.337.3.433.166a5.924,5.924,0,0,1,.707-.874,2.515,2.515,0,0,1,.419-.319c.134-.085.276-.111.368-.241.073-.1-.209-.206-.267-.206" transform="translate(-88.529 -60.513)" fill="#a85720"/>
            <path id="Trazado_32082" data-name="Trazado 32082" d="M214.117,156.5a3.821,3.821,0,0,0-1.875,4.5c.041.111.431.25.423.064a5.137,5.137,0,0,1,1.7-4.406c.093-.092-.176-.2-.247-.163" transform="translate(-79.063 -58.347)" fill="#a85720"/>
            <path id="Trazado_32083" data-name="Trazado 32083" d="M206.049,162.3a3.5,3.5,0,0,1-.382-1.191,2.876,2.876,0,0,1,.26-1.251c.033-.1-.211-.2-.27-.125a2.075,2.075,0,0,0,.112,2.572c.048.053.351.143.28,0" transform="translate(-76.531 -59.545)" fill="#a85720"/>
            <path id="Trazado_32084" data-name="Trazado 32084" d="M217.227,154.792a3.394,3.394,0,0,0-.86,2.054,1.683,1.683,0,0,0,.332,1.223,2.027,2.027,0,0,0,1.766.432,10.176,10.176,0,0,0,5.2-2.13c.436-.346.881-.831.785-1.378-.1-.578-.739-.874-1.3-1.046a8.4,8.4,0,0,0-3.114-.435,4.24,4.24,0,0,0-2.81,1.28" transform="translate(-80.669 -57.229)" fill="#dd8f54"/>
            <path id="Trazado_32085" data-name="Trazado 32085" d="M232.572,157.427a2.3,2.3,0,0,0-1.209,1.309,1.493,1.493,0,0,0,1.306,1.609,3.14,3.14,0,0,0,2.17-.645,1.965,1.965,0,0,0,1.057-1.535,1.377,1.377,0,0,0-.985-1.189,4.211,4.211,0,0,0-2.339.451" transform="translate(-86.254 -58.511)" fill="#dd8f54"/>
            <path id="Trazado_32086" data-name="Trazado 32086" d="M208.38,157.907a2.92,2.92,0,0,1-.675.914c-.24.3-.386.766-.119,1.039a.841.841,0,0,0,.526.2,2.957,2.957,0,0,0,3.243-2.613c-.727-.308-2.754-.3-2.975.457" transform="translate(-77.344 -58.633)" fill="#dd8f54"/>
            <path id="Trazado_32087" data-name="Trazado 32087" d="M203.088,160.875a.7.7,0,0,0-.753-.064,3.581,3.581,0,0,0-2.051,1.946,2.315,2.315,0,0,0,2.816-1.195.657.657,0,0,0-.011-.687" transform="translate(-74.674 -59.928)" fill="#dd8f54"/>
            <path id="Trazado_32088" data-name="Trazado 32088" d="M241.1,164.193a1.226,1.226,0,0,0-.673-.731.652.652,0,0,0-.836.369,1.031,1.031,0,0,0,.259.8,1.863,1.863,0,0,0,.43.492.627.627,0,0,0,.62.088c.344-.169.344-.667.2-1.022" transform="translate(-89.322 -60.932)" fill="#dd8f54"/>
            <path id="Trazado_32089" data-name="Trazado 32089" d="M173.349,157.361a3.94,3.94,0,0,0-4.684,3.318,1.125,1.125,0,0,0,.285,1.07,1.25,1.25,0,0,0,1.087.05,15.015,15.015,0,0,0,2.852-1.12,4.135,4.135,0,0,0,4.36.22,6.394,6.394,0,0,0,4.963,1.9,15.063,15.063,0,0,0,5.281-1.364c.827,1.78,3.181.48,4.351,0,.152.648.891.94,1.529,1.13a2.556,2.556,0,0,0,2.037.023,1.465,1.465,0,0,0,.531-1.73,1.967,1.967,0,0,0-1.474-1.164c.265.051.048-1.782,0-1.937a4.929,4.929,0,0,0-1.037-1.658,3.864,3.864,0,0,0-4.033-.906,7.112,7.112,0,0,0-10.938.326,5.327,5.327,0,0,0-1.383-.407,3.37,3.37,0,0,0-1.52.359,3.9,3.9,0,0,0-2.206,1.892" transform="translate(-62.878 -56.964)" fill="#c16f38"/>
            <path id="Trazado_32090" data-name="Trazado 32090" d="M199.9,157.637a4.777,4.777,0,0,0-1.7,4.775c.026.077.325.2.342.079a18.5,18.5,0,0,1,.256-2.252,6.585,6.585,0,0,1,1.393-2.438c.093-.114-.206-.231-.293-.164" transform="translate(-73.839 -58.767)" fill="#a85720"/>
            <path id="Trazado_32091" data-name="Trazado 32091" d="M208.176,163.23a1.781,1.781,0,0,0-1.021.485,1.756,1.756,0,0,0-.639.988c-.039.173.338.3.433.166a5.929,5.929,0,0,1,.707-.874,2.583,2.583,0,0,1,.419-.319c.134-.085.276-.11.369-.241.073-.1-.21-.206-.267-.205" transform="translate(-76.997 -60.859)" fill="#a85720"/>
            <path id="Trazado_32092" data-name="Trazado 32092" d="M183.188,157.428a3.821,3.821,0,0,0-1.875,4.5c.041.111.431.25.423.063a5.137,5.137,0,0,1,1.7-4.405c.093-.093-.175-.2-.247-.163" transform="translate(-67.531 -58.694)" fill="#a85720"/>
            <path id="Trazado_32093" data-name="Trazado 32093" d="M175.121,163.227a3.505,3.505,0,0,1-.382-1.191,2.876,2.876,0,0,1,.26-1.251c.033-.1-.21-.2-.27-.125a2.076,2.076,0,0,0,.112,2.572c.048.053.351.143.28,0" transform="translate(-64.999 -59.892)" fill="#a85720"/>
            <path id="Trazado_32094" data-name="Trazado 32094" d="M186.3,155.721a3.4,3.4,0,0,0-.86,2.054A1.683,1.683,0,0,0,185.77,159a2.027,2.027,0,0,0,1.766.432,10.179,10.179,0,0,0,5.2-2.13c.435-.346.881-.83.784-1.378-.1-.578-.739-.874-1.3-1.046a8.383,8.383,0,0,0-3.114-.435,4.239,4.239,0,0,0-2.81,1.28" transform="translate(-69.137 -57.575)" fill="#dd8f54"/>
            <path id="Trazado_32095" data-name="Trazado 32095" d="M201.643,158.356a2.3,2.3,0,0,0-1.209,1.31,1.493,1.493,0,0,0,1.306,1.61,3.144,3.144,0,0,0,2.17-.645,1.964,1.964,0,0,0,1.057-1.535,1.375,1.375,0,0,0-.985-1.189,4.216,4.216,0,0,0-2.339.45" transform="translate(-74.722 -58.857)" fill="#dd8f54"/>
            <path id="Trazado_32096" data-name="Trazado 32096" d="M177.451,158.836a2.905,2.905,0,0,1-.675.914c-.24.3-.386.766-.119,1.04a.84.84,0,0,0,.526.2,2.956,2.956,0,0,0,3.243-2.612c-.728-.308-2.754-.3-2.975.456" transform="translate(-65.812 -58.98)" fill="#dd8f54"/>
            <path id="Trazado_32097" data-name="Trazado 32097" d="M172.159,161.8a.7.7,0,0,0-.753-.064,3.584,3.584,0,0,0-2.051,1.946,2.315,2.315,0,0,0,2.816-1.195.656.656,0,0,0-.011-.687" transform="translate(-63.143 -60.275)" fill="#dd8f54"/>
            <path id="Trazado_32098" data-name="Trazado 32098" d="M210.169,165.123a1.224,1.224,0,0,0-.673-.731.652.652,0,0,0-.836.369,1.028,1.028,0,0,0,.26.8,1.842,1.842,0,0,0,.43.492.627.627,0,0,0,.62.088c.344-.169.344-.667.2-1.022" transform="translate(-77.79 -61.279)" fill="#dd8f54"/>
            <path id="Trazado_32099" data-name="Trazado 32099" d="M194.592,174.562a10.712,10.712,0,0,0,15.108.119c-5.027-.548-10.146-1.093-15.108-.119" transform="translate(-72.552 -64.884)" fill="#9edadd"/>
            <path id="Trazado_32100" data-name="Trazado 32100" d="M202.626,178.568q.745,6.532,1.491,13.064l2.124-.1,1.669-13.211Z" transform="translate(-75.548 -66.486)" fill="#9edadd"/>
            <path id="Trazado_32101" data-name="Trazado 32101" d="M201.906,199.146a13.578,13.578,0,0,0,5.57-.519,1.841,1.841,0,0,0,1.181-.942,1.331,1.331,0,0,0-.263-1.256,2.918,2.918,0,0,0-1.081-.775,7.684,7.684,0,0,0-5.868-.246,3.43,3.43,0,0,0-1.542,1.007,1.665,1.665,0,0,0-.257,1.745c.4.764,1.4.931,2.261.985" transform="translate(-74.381 -72.683)" fill="#9edadd"/>
            <path id="Trazado_32102" data-name="Trazado 32102" d="M195.65,198.505a29.473,29.473,0,0,0-10.1,4.233c8.795.2,18.214.17,27.25.024A38.893,38.893,0,0,0,199.93,198.4Z" transform="translate(-69.182 -73.97)" fill="#9edadd"/>
            <path id="Trazado_32103" data-name="Trazado 32103" d="M206.4,175.911a28.214,28.214,0,0,0-7,.441c-.2.038.053.22.153.219,2.351-.024,4.768-.058,7.108-.285.353-.035-.1-.364-.262-.374" transform="translate(-74.319 -65.566)" fill="#71bfbf"/>
            <path id="Trazado_32104" data-name="Trazado 32104" d="M207.2,179.991c-.733-.1-1.467-.155-2.205-.211-.384-.029-.031.329.181.351.73.075,1.456.157,2.189.182.363.013.018-.295-.166-.321" transform="translate(-76.367 -67.029)" fill="#71bfbf"/>
            <path id="Trazado_32105" data-name="Trazado 32105" d="M206.868,196.365a2.734,2.734,0,0,1-1.734-.08c-.1-.047-.426-.016-.254.149.5.487,1.864.921,2.381.236.138-.183-.264-.323-.393-.3" transform="translate(-76.37 -73.176)" fill="#71bfbf"/>
            <path id="Trazado_32106" data-name="Trazado 32106" d="M207.246,200.211c-1.764.047-3.481-.039-5.241-.106-.131-.005-.026.105.04.123a14.18,14.18,0,0,0,5.483.3c.317-.045-.13-.323-.282-.319" transform="translate(-75.293 -74.608)" fill="#71bfbf"/>
            <path id="Trazado_32107" data-name="Trazado 32107" d="M87.81,168.735,110.1,167.8q.193-2.18.386-4.358l-22.6,1.206a8,8,0,0,0-.072,4.09" transform="translate(-32.653 -60.937)" fill="#dd8f54"/>
            <path id="Trazado_32108" data-name="Trazado 32108" d="M128.785,50.132a9.56,9.56,0,0,0-3.306-1.459,36.564,36.564,0,0,0-6.9-1.248h0S103.547,46.2,91.9,47.31a174.169,174.169,0,0,1,0,28.8q.071-.387.14-.775l5.809.992c8.735.215,15.194.339,24.544-.166,1.4-.081,4.014-.189,5.081-1.2,1.116-1.064.8-3.635.786-5.009-.065-4.929.166-8.263-.531-13.135,1.21.186,2.376-2.529,2.526-3.671a3.426,3.426,0,0,0-1.473-3.007" transform="translate(-34.265 -17.465)" fill="#633022"/>
            <path id="Trazado_32109" data-name="Trazado 32109" d="M98.008,70.222c-.058-4.928.147-8.263-.47-13.134,1.072.186,2.1-2.529,2.237-3.672a3.593,3.593,0,0,0-1.3-3.007,8.025,8.025,0,0,0-2.928-1.459c-6.371-2.023-13.533-1.964-19.411,1.336a4.033,4.033,0,0,0-2.093,2.142c-.3,1,.4,4.041,1.389,3.89a159.956,159.956,0,0,0,.788,17.651,2.48,2.48,0,0,0,.505,1.545A2.154,2.154,0,0,0,78.044,76a78.363,78.363,0,0,0,14.766.433c1.238-.081,3.556-.189,4.5-1.2.988-1.064.713-3.635.7-5.009" transform="translate(-27.578 -17.742)" fill="#9e5647"/>
            <path id="Trazado_32110" data-name="Trazado 32110" d="M97.66,70.146a128.91,128.91,0,0,0-.41-13.745c.933.172,1.833-.779,1.949-1.839a3.435,3.435,0,0,0-1.136-2.788,6.824,6.824,0,0,0-2.55-1.353c-5.548-1.876-11.785-1.821-16.9,1.238a3.644,3.644,0,0,0-1.823,1.986c-.266.933.352,2.183,1.21,2.043-.055,5.986.175,11.975.687,17.933a2.4,2.4,0,0,0,.44,1.432,1.805,1.805,0,0,0,1.153.453,64.077,64.077,0,0,0,12.859.4c1.077-.075,3.1-.175,3.919-1.117.86-.987.621-3.371.606-4.645" transform="translate(-28.606 -18.328)" fill="#c68a6a"/>
            <path id="Trazado_32111" data-name="Trazado 32111" d="M134.45,62.393c-5.254-.172-10.834-.146-16.152-.344-.485-.018.16.486.359.513a61.755,61.755,0,0,0,16.21.426c.569-.08-.175-.587-.417-.6" transform="translate(-44.041 -23.134)" fill="#471c12"/>
            <path id="Trazado_32112" data-name="Trazado 32112" d="M135.551,51.976c-.04-.435-.5-.692-.9-.857-4.506-1.844-9.535-1.764-14.4-1.654-.825.018-1.839.163-2.125.936a1.429,1.429,0,0,0,.683,1.6,4.184,4.184,0,0,0,1.8.484,60.363,60.363,0,0,0,13.575.492c.625-.072,1.428-.373,1.37-1" transform="translate(-44.018 -18.425)" fill="#824233"/>
            <path id="Trazado_32113" data-name="Trazado 32113" d="M84.323,72c-.189-.233-1.1-.655-1.268-.2a1.784,1.784,0,0,0,.2,1.732,3.158,3.158,0,0,0,.088,1.079c.084.33.9.8,1.178.452a2.467,2.467,0,0,0-.2-3.066" transform="translate(-30.916 -26.696)" fill="#b26e50"/>
            <path id="Trazado_32114" data-name="Trazado 32114" d="M89.5,76.785a.676.676,0,0,0-.027-.123.724.724,0,0,0-.795-.305.573.573,0,0,0-.217.17c-.151.058-.223.2-.14.471-.011.066-.022.132-.028.2a3.432,3.432,0,0,0,.064,1.04c.088.435,1.061.857,1.337.408a1.528,1.528,0,0,0-.194-1.858" transform="translate(-32.914 -28.455)" fill="#b26e50"/>
            <path id="Trazado_32115" data-name="Trazado 32115" d="M88.47,70.175c-.024-.022-.053-.04-.079-.061a.562.562,0,0,0-.033-.321.762.762,0,0,0-.824-.316.575.575,0,0,0-.358.578.268.268,0,0,0-.03.108,1.219,1.219,0,0,0,.058.306.165.165,0,0,0,0,.018c0,.008.008.016.01.024.009.029.016.058.026.088h.011c.206.4,1.084.734,1.33.309a.53.53,0,0,0-.113-.732" transform="translate(-32.492 -25.894)" fill="#b26e50"/>
            <path id="Trazado_32116" data-name="Trazado 32116" d="M92.852,53.715a1.341,1.341,0,0,0-1.218,0,.557.557,0,0,0-.149.154,2.268,2.268,0,0,0-.458.241,1.836,1.836,0,0,0-.694,1.126c-.1.524.694.791,1.082.834a1.857,1.857,0,0,0,2.134-1.717c.01-.312-.472-.549-.7-.642" transform="translate(-33.677 -19.973)" fill="#b26e50"/>
            <path id="Trazado_32117" data-name="Trazado 32117" d="M98.228,57.7a.7.7,0,0,0-.49-.335c-.544-.115-.852.2-1.158.6-.287.377.4.717.685.774.472.093,1.342.122,1.529-.461.093-.29-.245-.488-.566-.581" transform="translate(-35.984 -21.378)" fill="#b26e50"/>
            <path id="Trazado_32118" data-name="Trazado 32118" d="M106.022,82.174c0-.279-.414-.494-.625-.575-.179-.069-.852-.234-.917.1a4.909,4.909,0,0,0-.131.785c-.175.394.993.881,1.25.558a1.713,1.713,0,0,0,.126-.205.23.23,0,0,0,.087-.049.845.845,0,0,0,.21-.618" transform="translate(-38.899 -30.386)" fill="#b26e50"/>
            <path id="Trazado_32119" data-name="Trazado 32119" d="M101.174,85.843c-.041-.018-.085-.026-.129-.041a.7.7,0,0,0-.389-.139,1.557,1.557,0,0,0-.174.011c-.064-.006-.125-.021-.191-.021-.265,0-.539.03-.566.339a1.865,1.865,0,0,0,0,.5c-.024.405.981.782,1.293.514a1.382,1.382,0,0,0,.255-.315.632.632,0,0,0,.366-.173c.27-.283-.262-.584-.465-.672" transform="translate(-37.175 -31.935)" fill="#b26e50"/>
            <path id="Trazado_32120" data-name="Trazado 32120" d="M103.907,77.272a.377.377,0,0,0-.056-.244.694.694,0,0,0-.658-.3q-.107.017-.213.043c-.1.04-.152.131-.261.169-.306.107-.112.42.056.551.251.2.738.379,1.029.164l.086-.063c.121-.09.105-.2.017-.315" transform="translate(-38.238 -28.604)" fill="#b26e50"/>
            <path id="Trazado_32121" data-name="Trazado 32121" d="M185.33,50.132a9.56,9.56,0,0,0-3.306-1.459,36.565,36.565,0,0,0-6.9-1.248h0s-15.03-1.226-26.674-.114a174.166,174.166,0,0,1,0,28.8q.071-.387.14-.775l5.809.992c8.735.215,15.194.339,24.544-.166,1.4-.081,4.014-.189,5.081-1.2,1.116-1.064.8-3.635.786-5.009-.065-4.929.166-8.263-.531-13.135,1.21.186,2.376-2.529,2.526-3.671a3.426,3.426,0,0,0-1.473-3.007" transform="translate(-55.347 -17.465)" fill="#633022"/>
            <path id="Trazado_32122" data-name="Trazado 32122" d="M154.553,70.222c-.058-4.928.147-8.263-.47-13.134,1.072.186,2.1-2.529,2.237-3.672a3.593,3.593,0,0,0-1.3-3.007,8.025,8.025,0,0,0-2.928-1.459c-6.371-2.023-13.533-1.964-19.411,1.336a4.033,4.033,0,0,0-2.093,2.142c-.3,1,.4,4.041,1.389,3.89a159.956,159.956,0,0,0,.788,17.651,2.48,2.48,0,0,0,.505,1.545,2.154,2.154,0,0,0,1.324.489,78.363,78.363,0,0,0,14.766.433c1.238-.081,3.556-.189,4.5-1.2.988-1.064.713-3.635.7-5.009" transform="translate(-48.66 -17.742)" fill="#9e5647"/>
            <path id="Trazado_32123" data-name="Trazado 32123" d="M154.205,70.146A128.9,128.9,0,0,0,153.8,56.4c.933.172,1.833-.779,1.949-1.839a3.435,3.435,0,0,0-1.136-2.788,6.824,6.824,0,0,0-2.55-1.353c-5.548-1.876-11.785-1.821-16.9,1.238a3.644,3.644,0,0,0-1.823,1.986c-.266.933.351,2.183,1.21,2.043-.055,5.986.175,11.975.687,17.933a2.4,2.4,0,0,0,.44,1.432,1.805,1.805,0,0,0,1.153.453,64.077,64.077,0,0,0,12.859.4c1.077-.075,3.1-.175,3.919-1.117.86-.987.62-3.371.606-4.645" transform="translate(-49.688 -18.328)" fill="#c68a6a"/>
            <path id="Trazado_32124" data-name="Trazado 32124" d="M190.995,62.393c-5.254-.172-10.834-.146-16.152-.344-.485-.018.16.486.359.513a61.755,61.755,0,0,0,16.21.426c.569-.08-.175-.587-.417-.6" transform="translate(-65.123 -23.134)" fill="#471c12"/>
            <path id="Trazado_32125" data-name="Trazado 32125" d="M192.1,51.976c-.04-.435-.5-.692-.9-.857-4.506-1.844-9.535-1.764-14.4-1.654-.825.018-1.839.163-2.125.936a1.428,1.428,0,0,0,.683,1.6,4.184,4.184,0,0,0,1.8.484,60.363,60.363,0,0,0,13.575.492c.625-.072,1.428-.373,1.37-1" transform="translate(-65.1 -18.425)" fill="#824233"/>
            <path id="Trazado_32126" data-name="Trazado 32126" d="M140.868,72c-.189-.233-1.1-.655-1.268-.2a1.784,1.784,0,0,0,.2,1.732,3.158,3.158,0,0,0,.088,1.079c.084.33.9.8,1.178.452a2.467,2.467,0,0,0-.2-3.066" transform="translate(-51.998 -26.696)" fill="#b26e50"/>
            <path id="Trazado_32127" data-name="Trazado 32127" d="M146.046,76.785a.674.674,0,0,0-.027-.123.724.724,0,0,0-.795-.305.573.573,0,0,0-.217.17c-.151.058-.223.2-.14.471-.011.066-.022.132-.028.2a3.433,3.433,0,0,0,.064,1.04c.088.435,1.061.857,1.337.408a1.529,1.529,0,0,0-.194-1.858" transform="translate(-53.997 -28.455)" fill="#b26e50"/>
            <path id="Trazado_32128" data-name="Trazado 32128" d="M145.015,70.175c-.024-.022-.053-.04-.079-.061a.562.562,0,0,0-.033-.321.762.762,0,0,0-.824-.316.576.576,0,0,0-.359.578.278.278,0,0,0-.029.108,1.219,1.219,0,0,0,.058.306.165.165,0,0,0,0,.018c0,.008.008.016.01.024.009.029.016.058.026.088h.011c.206.4,1.084.734,1.33.309a.53.53,0,0,0-.113-.732" transform="translate(-53.574 -25.894)" fill="#b26e50"/>
            <path id="Trazado_32129" data-name="Trazado 32129" d="M149.4,53.715a1.34,1.34,0,0,0-1.218,0,.557.557,0,0,0-.149.154,2.268,2.268,0,0,0-.458.241,1.836,1.836,0,0,0-.694,1.126c-.1.524.694.791,1.082.834a1.857,1.857,0,0,0,2.134-1.717c.01-.312-.472-.549-.7-.642" transform="translate(-54.759 -19.973)" fill="#b26e50"/>
            <path id="Trazado_32130" data-name="Trazado 32130" d="M154.773,57.7a.7.7,0,0,0-.49-.335c-.544-.115-.852.2-1.158.6-.287.377.4.717.685.774.472.093,1.342.122,1.529-.461.093-.29-.245-.488-.566-.581" transform="translate(-57.066 -21.378)" fill="#b26e50"/>
            <path id="Trazado_32131" data-name="Trazado 32131" d="M162.567,82.174c0-.279-.414-.494-.625-.575-.179-.069-.852-.234-.918.1a4.977,4.977,0,0,0-.13.785c-.175.394.993.881,1.25.558a1.713,1.713,0,0,0,.126-.205.229.229,0,0,0,.087-.049.845.845,0,0,0,.21-.618" transform="translate(-59.981 -30.386)" fill="#b26e50"/>
            <path id="Trazado_32132" data-name="Trazado 32132" d="M157.718,85.843c-.041-.018-.085-.026-.128-.041a.7.7,0,0,0-.389-.139,1.547,1.547,0,0,0-.174.011c-.064-.006-.126-.021-.191-.021-.265,0-.539.03-.566.339a1.814,1.814,0,0,0,0,.5c-.024.405.98.782,1.292.514a1.4,1.4,0,0,0,.256-.315.636.636,0,0,0,.366-.173c.27-.283-.262-.584-.465-.672" transform="translate(-58.258 -31.935)" fill="#b26e50"/>
            <path id="Trazado_32133" data-name="Trazado 32133" d="M160.452,77.272a.377.377,0,0,0-.056-.244.694.694,0,0,0-.658-.3q-.107.017-.213.043c-.1.04-.152.131-.261.169-.306.107-.112.42.056.551.251.2.737.379,1.029.164l.086-.063c.121-.09.105-.2.017-.315" transform="translate(-59.321 -28.604)" fill="#b26e50"/>
            <path id="Trazado_32134" data-name="Trazado 32134" d="M239.4,81.737c10.744,1.895,21.88,2.1,32.5-.8,2.451-.67,5.267-1.954,5.792-4.66.5-2.555-1.376-4.86-3.249-6.437a31.259,31.259,0,0,0-34.529-3.678,13.908,13.908,0,0,0-6.024,5.439c-1.329,2.5-1.375,5.984.482,7.986,1.3,1.4,3.22,1.833,5.032,2.152" transform="translate(-86.843 -23.333)" fill="#c16f38"/>
            <path id="Trazado_32135" data-name="Trazado 32135" d="M252.653,72.686a146.119,146.119,0,0,1,19.987-7.7,6.742,6.742,0,0,0-4.748-1.476,15.973,15.973,0,0,0-4.928,1.21,26.4,26.4,0,0,0-5.941,3.01,13.288,13.288,0,0,0-4.37,4.955" transform="translate(-94.2 -23.677)" fill="#a04d15"/>
            <path id="Trazado_32136" data-name="Trazado 32136" d="M270.419,72.686a146.142,146.142,0,0,0-19.986-7.7,6.74,6.74,0,0,1,4.748-1.476,15.973,15.973,0,0,1,4.928,1.21,26.393,26.393,0,0,1,5.941,3.01,13.283,13.283,0,0,1,4.37,4.955" transform="translate(-93.372 -23.677)" fill="#a04d15"/>
            <path id="Trazado_32137" data-name="Trazado 32137" d="M290.581,76.035c10.291,3.621,21.244,5.639,32.193,4.507,2.527-.261,5.515-1.07,6.474-3.653.907-2.44-.565-5.02-2.156-6.881a31.259,31.259,0,0,0-33.467-9.261,13.909,13.909,0,0,0-6.831,4.384c-1.718,2.249-2.332,5.68-.827,7.959,1.056,1.6,2.878,2.333,4.614,2.944" transform="translate(-106.302 -22.056)" fill="#c16f38"/>
            <path id="Trazado_32138" data-name="Trazado 32138" d="M305.559,68.879a146.138,146.138,0,0,1,20.974-4.336,6.738,6.738,0,0,0-4.443-2.23,15.989,15.989,0,0,0-5.059.389,26.4,26.4,0,0,0-6.352,2,13.289,13.289,0,0,0-5.12,4.176" transform="translate(-113.926 -23.206)" fill="#a04d15"/>
            <path id="Trazado_32139" data-name="Trazado 32139" d="M323.833,70.7A146.184,146.184,0,0,0,305.37,59.841a6.747,6.747,0,0,1,4.925-.682,16,16,0,0,1,4.664,2,26.447,26.447,0,0,1,5.371,3.939,13.293,13.293,0,0,1,3.5,5.6" transform="translate(-113.855 -21.991)" fill="#a04d15"/>
            <rect id="Rectángulo_3268" data-name="Rectángulo 3268" width="208.904" height="6.028" transform="translate(35.865 58.183)" fill="#b55935"/>
            <path id="Trazado_32140" data-name="Trazado 32140" d="M159.955,23.819l-4.6-.148c-13.459-.427-26.237.655-39.7.4-12.117-.233-24.238-.375-36.358-.263-9.486.087-18.992.28-28.453,1.034-1.015.082-11.105.533-11.273,1.376a7.209,7.209,0,0,0,6.674,8.254,7.207,7.207,0,0,0,6.841-8.114c-1.551,3.828,1.681,8.724,5.8,8.782s7.484-4.746,6.041-8.615a6.812,6.812,0,0,0,6.735,7.654,6.819,6.819,0,0,0,5.892-8.326,6.539,6.539,0,1,0,12.845,1.082c-1.541,3.939,1.584,8.933,5.787,9.251s8.037-4.153,7.1-8.278c-1.848,1.958-.891,5.568,1.479,6.839s5.462.479,7.432-1.356a12.779,12.779,0,0,0,3.466-7.151,8.3,8.3,0,1,0,16.371,1.29c-2.354,3.559,1.786,8.706,6.023,8.3,4.642-.444,6.278-4.531,8.421-8.16a7.176,7.176,0,0,0,6.008,7.639c3.511.378,6.356-4.043,6.721-7.666a6.694,6.694,0,0,0,3.513,7.507,8.258,8.258,0,0,0,8.334-1,13.05,13.05,0,0,0,4.669-7.47,5.553,5.553,0,0,0,2.919,6.313,7.229,7.229,0,0,0,7.05-.732,12.837,12.837,0,0,0,4.495-5.922c-1.772,4.31,3.76,9,7.41,8.937a7.477,7.477,0,0,0,7.049-6.559,14.9,14.9,0,0,0,1.9,5.627,7.3,7.3,0,0,0,4.688,3.415,7.445,7.445,0,0,0,6.383-2.342,16.753,16.753,0,0,0,3.52-6.088,7.641,7.641,0,0,0,15.255-.5,8.922,8.922,0,0,0,3.418,6.927,7.636,7.636,0,0,0,7.547.939,6.777,6.777,0,0,0,3.962-6.386,6.065,6.065,0,0,0,2.754,4.924,8.285,8.285,0,0,0,5.615,1.192,10.586,10.586,0,0,0,8.942-10c-6.711-.376-60.477-.95-72.742-1.377q-17.963-.625-35.928-1.229" transform="translate(-14.711 -8.788)" fill="#e8b374"/>
            <path id="Trazado_32141" data-name="Trazado 32141" d="M55.829,0,38.366,17.69h229.9L252.73,0Z" transform="translate(-14.305)" fill="#ffd8a9"/>
            <path id="Trazado_32142" data-name="Trazado 32142" d="M214.119,301.941c0-.921-2.722-1.815-2.835-.865-.3,2.495-.551,5.071-.711,7.665-1.078,1.565-3.4,1.887-5.434,1.624-.012-3.02.3-6.134-.215-9.114.117-.691-1.851-1.444-2.117-.7-.912,2.543-.871,5.4-.987,8.077-.014.335-.017.671-.026,1.006-.417.022-.766.178-.723.627q.421,4.356.845,8.711c.122,1.234,3.555,2.254,3.476.793-.135-2.505-.2-5.009-.233-7.516a11.873,11.873,0,0,0,5.268-.126,65.718,65.718,0,0,0,.233,7.935c.12,1.25,3.537,2.1,3.362.766.357-6.228.112-12.636.1-18.88" transform="translate(-74.967 -111.944)" fill="#933f25"/>
            <path id="Trazado_32143" data-name="Trazado 32143" d="M234.059,304.706c-4.226-1.071-6.492,5.005-5.668,8.183a.517.517,0,0,0,.036.083c-.573,2.839-.219,5.749,3.025,6.993,4.479,1.719,6.86-2.075,7.582-6.035.729-4.006-.841-8.176-4.975-9.224m1.543,7.271a9.75,9.75,0,0,1-2.157,5.582c-1.188,1.481-2.421-.73-2.689-1.74a6.25,6.25,0,0,1-.172-1.787.462.462,0,0,0,.343-.369,19.427,19.427,0,0,1,1.412-4.685c.448-.9,2.012-3.336,2.909-.5a10.745,10.745,0,0,1,.352,3.5" transform="translate(-85.084 -113.561)" fill="#933f25"/>
            <path id="Trazado_32144" data-name="Trazado 32144" d="M262.155,305.339c-2.277-5-8.275-4.764-12.776-3.533a.5.5,0,0,0-.365.519c.012.555.016,1.11.024,1.666a.491.491,0,0,0-.1.26,57.288,57.288,0,0,0-.152,7.545c-.218.188-.174.414.025.642.1,2.445.271,4.889.382,7.307.058,1.272,3.591,2.29,3.535.806-.092-2.435-.211-4.87-.332-7.3,3.891-.886,12.068-2.833,9.757-7.906m-4.361,2.989c-1.357,1.231-3.484,1.815-5.523,2.346-.119-2.407-.233-4.813-.323-7.22,1-.181,2-.351,3.024-.452,4.133-.411,5.17,3.2,2.822,5.327" transform="translate(-92.705 -112.249)" fill="#933f25"/>
            <path id="Trazado_32145" data-name="Trazado 32145" d="M187.214,310.76c-1.4-1.066-4.419-.987-5.332-2.549s1.619-7.185,3.631-5.656c.266.2,1.772.788,1.693-.023-.169-1.725-2.191-2.228-3.642-2.361-2.664-.244-4.835,2.622-5.443,4.867-.654,2.42,1.193,4.869,3.365,5.708,2.288.884,4.539,1.237,4.872,4.093a4.843,4.843,0,0,1-1.3,3.592c-1.294,1.557-2.785.007-2.426-1.57.259-1.137-2.551-2.247-3.009-1.155-1.082,2.588.973,4.621,3.259,5.472a5.349,5.349,0,0,0,6.574-2.618c1.543-2.7-.019-6.113-2.241-7.8" transform="translate(-66.362 -111.911)" fill="#933f25"/>
          </g>
        </g>
      </g>
    </g>
  </g>
</svg>
