<svg xmlns="http://www.w3.org/2000/svg" xmlns:xlink="http://www.w3.org/1999/xlink" width="345.463" height="254.425" viewBox="0 0 345.463 254.425">
  <defs>
    <clipPath id="clip-path">
      <rect id="Rectángulo_3273" data-name="Rectángulo 3273" width="10.268" height="57.378" fill="none"/>
    </clipPath>
    <clipPath id="clip-path-2">
      <rect id="Rectángulo_3274" data-name="Rectángulo 3274" width="14.454" height="56.196" fill="none"/>
    </clipPath>
    <clipPath id="clip-path-3">
      <rect id="Rectángulo_3275" data-name="Rectángulo 3275" width="2.921" height="6.01" fill="none"/>
    </clipPath>
    <clipPath id="clip-path-4">
      <rect id="Rectángulo_3276" data-name="Rectángulo 3276" width="3.177" height="6.01" fill="none"/>
    </clipPath>
    <clipPath id="clip-path-5">
      <rect id="Rectángulo_3277" data-name="Rectángulo 3277" width="19.869" height="15.907" fill="none"/>
    </clipPath>
    <clipPath id="clip-path-6">
      <rect id="Rectángulo_3278" data-name="Rectángulo 3278" width="10.889" height="52.783" fill="none"/>
    </clipPath>
    <clipPath id="clip-path-7">
      <rect id="Rectángulo_3279" data-name="Rectángulo 3279" width="7.448" height="56.756" fill="none"/>
    </clipPath>
    <clipPath id="clip-path-8">
      <rect id="Rectángulo_3280" data-name="Rectángulo 3280" width="10.28" height="56.611" fill="none"/>
    </clipPath>
    <clipPath id="clip-path-9">
      <rect id="Rectángulo_3281" data-name="Rectángulo 3281" width="5.892" height="1.699" fill="none"/>
    </clipPath>
    <clipPath id="clip-path-10">
      <rect id="Rectángulo_3282" data-name="Rectángulo 3282" width="2.586" height="6.101" fill="none"/>
    </clipPath>
    <clipPath id="clip-path-11">
      <rect id="Rectángulo_3370" data-name="Rectángulo 3370" width="9.563" height="51.593" fill="none"/>
    </clipPath>
    <clipPath id="clip-path-12">
      <rect id="Rectángulo_3371" data-name="Rectángulo 3371" width="13.736" height="5.789" fill="none"/>
    </clipPath>
    <clipPath id="clip-path-13">
      <rect id="Rectángulo_3372" data-name="Rectángulo 3372" width="14.741" height="54.565" fill="none"/>
    </clipPath>
    <clipPath id="clip-path-14">
      <rect id="Rectángulo_3373" data-name="Rectángulo 3373" width="14.267" height="13.574" fill="none"/>
    </clipPath>
    <clipPath id="clip-path-15">
      <rect id="Rectángulo_3374" data-name="Rectángulo 3374" width="9.881" height="54.48" fill="none"/>
    </clipPath>
    <clipPath id="clip-path-16">
      <rect id="Rectángulo_3375" data-name="Rectángulo 3375" width="9.88" height="54.538" fill="none"/>
    </clipPath>
    <clipPath id="clip-path-17">
      <rect id="Rectángulo_3376" data-name="Rectángulo 3376" width="10.549" height="5.767" fill="none"/>
    </clipPath>
    <clipPath id="clip-path-18">
      <rect id="Rectángulo_3377" data-name="Rectángulo 3377" width="5.842" height="56.501" fill="none"/>
    </clipPath>
  </defs>
  <g id="Grupo_18886" data-name="Grupo 18886" transform="translate(-1115 -4982.179)">
    <g id="Grupo_12352" data-name="Grupo 12352">
      <g id="Grupo_12295" data-name="Grupo 12295" transform="translate(-2213 1194)">
        <path id="Trazado_32146" data-name="Trazado 32146" d="M54.614,136.166a10.57,10.57,0,0,1,2.719-2.6h-2.9Z" transform="translate(3315.268 3756.94)" fill="#507e50"/>
        <path id="Trazado_32147" data-name="Trazado 32147" d="M51.282,284.759l4.832-.6,5.436-56.774H51.282Z" transform="translate(3316.006 3734.997)" fill="#c39276"/>
        <g id="Grupo_12165" data-name="Grupo 12165" transform="translate(3367.287 3962.378)" opacity="0.1">
          <g id="Grupo_12164" data-name="Grupo 12164">
            <g id="Grupo_12163" data-name="Grupo 12163" clip-path="url(#clip-path)">
              <path id="Trazado_32148" data-name="Trazado 32148" d="M51.282,284.759l1.006-.1,1.007-55.767,8.255-1.51H51.282Z" transform="translate(-51.281 -227.381)"/>
            </g>
          </g>
        </g>
        <path id="Trazado_32149" data-name="Trazado 32149" d="M73.947,284.759l4.832-.6,5.436-56.774H73.947Z" transform="translate(3310.705 3734.997)" fill="#c39276"/>
        <path id="Trazado_32150" data-name="Trazado 32150" d="M42.462,164.451l-.527,19.169-2.162,7.191,1.007,4.559,1.662,2.083a.94.94,0,0,0,1.212-.9c.116-1.184.518-6.513.518-6.513s.771-.318.913.7.608,2.56,1.8,2.508l-.375-4.843L45.4,184.017l-.021,0,2.8-18.5,6.055-24.9-7.759-.98Z" transform="translate(3318.698 3755.519)" fill="#c39276"/>
        <g id="Grupo_12168" data-name="Grupo 12168" transform="translate(3358.47 3895.156)" opacity="0.1">
          <g id="Grupo_12167" data-name="Grupo 12167">
            <g id="Grupo_12166" data-name="Grupo 12166" clip-path="url(#clip-path-2)">
              <path id="Trazado_32151" data-name="Trazado 32151" d="M42.462,164.451l-.527,19.169-2.162,7.191,1.007,4.559.37.464a34.387,34.387,0,0,1,.965-7.552c.383-1.592,1.159-3.058,1.538-4.643.4-1.655-.013-14.594.506-18.656.473-3.7,1.8-12.54,2.517-16.206a20.226,20.226,0,0,0,5.134,2.114l2.416-10.274-7.759-.98Z" transform="translate(-39.773 -139.637)"/>
            </g>
          </g>
        </g>
        <path id="Trazado_32152" data-name="Trazado 32152" d="M60.942,304.066l-5.156-2.772-4.885-.049a11.142,11.142,0,0,0-.92,6.009H64.744s-.245-2.821-3.8-3.189" transform="translate(3316.334 3717.721)" fill="#d86736"/>
        <g id="Grupo_12171" data-name="Grupo 12171" transform="translate(3366.211 4018.966)" opacity="0.1">
          <g id="Grupo_12170" data-name="Grupo 12170">
            <g id="Grupo_12169" data-name="Grupo 12169" clip-path="url(#clip-path-3)">
              <path id="Trazado_32153" data-name="Trazado 32153" d="M51.758,303.042a6.074,6.074,0,0,1,.4-1.8H50.9a11.138,11.138,0,0,0-.919,6.009H52.8a7.334,7.334,0,0,1-1.04-4.213" transform="translate(-49.877 -301.245)"/>
            </g>
          </g>
        </g>
        <path id="Trazado_32154" data-name="Trazado 32154" d="M86.627,304.066l-7.875-2.821H73.565a11.142,11.142,0,0,0-.92,6.009H90.429s-.245-2.821-3.8-3.189" transform="translate(3311.033 3717.721)" fill="#d86736"/>
        <g id="Grupo_12174" data-name="Grupo 12174" transform="translate(3383.575 4018.966)" opacity="0.1">
          <g id="Grupo_12173" data-name="Grupo 12173">
            <g id="Grupo_12172" data-name="Grupo 12172" clip-path="url(#clip-path-4)">
              <path id="Trazado_32155" data-name="Trazado 32155" d="M74.474,302.84a7.84,7.84,0,0,1,.377-1.6H73.566a11.146,11.146,0,0,0-.919,6.009h3.073a5.953,5.953,0,0,1-1.245-4.414" transform="translate(-72.542 -301.245)"/>
            </g>
          </g>
        </g>
        <g id="Grupo_12177" data-name="Grupo 12177" transform="translate(3362.002 3886.276)" opacity="0.1">
          <g id="Grupo_12176" data-name="Grupo 12176">
            <g id="Grupo_12175" data-name="Grupo 12175" clip-path="url(#clip-path-5)">
              <path id="Trazado_32156" data-name="Trazado 32156" d="M52.084,132.274a7.067,7.067,0,0,0-4.659,4.211l-3.042,5.83c.208.069,1.423.762,2.924,1.638,1.079-2.625,3.367-6.872,3.915-7.958,1.664-3.3,5.894-4.2,8.688-5.382.028-.079,4.371-2.254,4.339-2.487a.24.24,0,0,1,0-.048l-.09-.033Z" transform="translate(-44.383 -128.046)"/>
            </g>
          </g>
        </g>
        <path id="Trazado_32157" data-name="Trazado 32157" d="M94.26,184.015,90.838,164.7,88.97,141.58l-8.017-.858,4.134,24.794,5.768,18.795-.019,0-1.228,4.36L89.1,193.5c1.186.084,1.695-1.44,1.864-2.458s.932-.677.932-.677.254,5.338.339,6.524a.939.939,0,0,0,1.186.932l1.718-2.036,1.132-4.53-1.963-7.247Z" transform="translate(3309.066 3755.265)" fill="#c39276"/>
        <g id="Grupo_12180" data-name="Grupo 12180" transform="translate(3390.02 3895.987)" opacity="0.1">
          <g id="Grupo_12179" data-name="Grupo 12179">
            <g id="Grupo_12178" data-name="Grupo 12178" clip-path="url(#clip-path-6)">
              <path id="Trazado_32158" data-name="Trazado 32158" d="M86.105,150.137c-.008-.143,3.36-2.421,3.36-2.421l-.495-6.136-8.017-.858,4.134,24.793,5.768,18.795-.019,0-1.228,4.361L89.1,193.5a1.176,1.176,0,0,0,.714-.174s1.679-7.307,2.029-8.664L87.4,165.6c-.853-4.685-1.092-11.944-1.293-15.468" transform="translate(-80.954 -140.722)"/>
            </g>
          </g>
        </g>
        <path id="Trazado_32159" data-name="Trazado 32159" d="M82.459,142.818l-2.15-5.788h.012l-.544-1.241a6.906,6.906,0,0,0-4.141-3.392l-11.363-3.972a2.154,2.154,0,0,0-.974,0L52.084,132.35a7.065,7.065,0,0,0-4.659,4.211l-3.042,5.83c.482.161,6.382,3.672,8.744,5.082l1.338,19.4-4.4,11.781a42.033,42.033,0,0,0-.888,9.618l.492,15.953H77.451v-17.6a60.424,60.424,0,0,0-.561-8.22l-3.037-11.525,1.019-19.7c2.449-1.449,7.142-4.213,7.587-4.361" transform="translate(3317.619 3758.155)" fill="#d86736"/>
        <path id="Trazado_32160" data-name="Trazado 32160" d="M69.391,97.825H64.86a7.566,7.566,0,0,0-7.566,7.565l-.6,9.6a5.387,5.387,0,0,0,5.386,5.387h9.5a5.386,5.386,0,0,0,5.386-5.387v-9.6a7.565,7.565,0,0,0-7.565-7.565" transform="translate(3314.741 3765.298)" fill="#623e3b"/>
        <path id="Trazado_32161" data-name="Trazado 32161" d="M61.793,116.645a7.1,7.1,0,1,0,14.194,0v-8.571H61.793Z" transform="translate(3313.547 3762.901)" fill="#c39276"/>
        <path id="Trazado_32162" data-name="Trazado 32162" d="M64.421,131.971a2.67,2.67,0,0,0,2.671,2.67h3.115a2.67,2.67,0,0,0,2.67-2.67V120.95H64.421Z" transform="translate(3312.933 3759.89)" fill="#c39276"/>
        <path id="Trazado_32163" data-name="Trazado 32163" d="M60.2,107.1l.076,11.124,2.151,3.824h1.7l-.038-16.9Z" transform="translate(3313.92 3763.585)" fill="#623e3b"/>
        <path id="Trazado_32164" data-name="Trazado 32164" d="M62.22,109.008l2.378.906a2.139,2.139,0,0,1,2.246-2.246v-1.3H62.22Z" transform="translate(3313.448 3763.301)" fill="#623e3b"/>
        <g id="Grupo_12183" data-name="Grupo 12183" transform="translate(3366.785 3905.622)" opacity="0.1">
          <g id="Grupo_12182" data-name="Grupo 12182">
            <g id="Grupo_12181" data-name="Grupo 12181" clip-path="url(#clip-path-7)">
              <path id="Trazado_32165" data-name="Trazado 32165" d="M56.564,154.236c-.1-.056-1.911-.875-2-.938l1.361,19.4-4.4,11.78a42.033,42.033,0,0,0-.888,9.618l.492,15.953h2.34s-.348-12.431-.075-16.66c.556-8.632,2.164-13.012,4.555-20.625l.051-.011s0-.056-.006-.13l.006-.021h-.008c0-.024,0-.047,0-.077l.011.077.076-13.539-1.162-2.124c-.121-1.24-.24-2.207-.348-2.708" transform="translate(-50.625 -153.298)"/>
            </g>
          </g>
        </g>
        <path id="Trazado_32166" data-name="Trazado 32166" d="M76.539,140.955s-18.9.67-18.9,3.264l-.368,8.223a4.539,4.539,0,0,0,4.311,4.715H75.45a4.539,4.539,0,0,0,4.31-4.715v-.326s-.85-11.161-3.221-11.161" transform="translate(3314.605 3755.211)" fill="#d86736"/>
        <g id="Grupo_12186" data-name="Grupo 12186" transform="translate(3384.639 3962.378)" opacity="0.1">
          <g id="Grupo_12185" data-name="Grupo 12185">
            <g id="Grupo_12184" data-name="Grupo 12184" clip-path="url(#clip-path-8)">
              <path id="Trazado_32167" data-name="Trazado 32167" d="M73.931,283.992l1.2-.013.075-54.988,9.009-1.611H73.943Z" transform="translate(-73.931 -227.381)"/>
            </g>
          </g>
        </g>
        <g id="Grupo_12189" data-name="Grupo 12189" transform="translate(3379.917 3885.37)" opacity="0.1">
          <g id="Grupo_12188" data-name="Grupo 12188">
            <g id="Grupo_12187" data-name="Grupo 12187" clip-path="url(#clip-path-9)">
              <path id="Trazado_32168" data-name="Trazado 32168" d="M67.768,126.864a4.908,4.908,0,0,0,5.891,1.188v-.761c-2.636,1.521-5.891-.427-5.891-.427" transform="translate(-67.767 -126.863)"/>
            </g>
          </g>
        </g>
        <g id="Grupo_12192" data-name="Grupo 12192" transform="translate(3384.049 3873.807)" opacity="0.1">
          <g id="Grupo_12191" data-name="Grupo 12191">
            <g id="Grupo_12190" data-name="Grupo 12190" clip-path="url(#clip-path-10)">
              <path id="Trazado_32169" data-name="Trazado 32169" d="M75.12,116.943H73.16c1.333,1.96,2.586.208,2.586.208l-.784-5.38Z" transform="translate(-73.161 -111.77)"/>
            </g>
          </g>
        </g>
        <rect id="Rectángulo_3283" data-name="Rectángulo 3283" width="345.463" height="24.516" transform="translate(3328 4018.088)" fill="#b4a2fa"/>
        <rect id="Rectángulo_3284" data-name="Rectángulo 3284" width="115.284" height="3.425" transform="translate(3513.472 3888.458)" fill="#cabef4"/>
        <rect id="Rectángulo_3285" data-name="Rectángulo 3285" width="4.185" height="125.938" transform="translate(3513.472 3884.273)" fill="#cabef4"/>
        <rect id="Rectángulo_3286" data-name="Rectángulo 3286" width="4.185" height="125.938" transform="translate(3624.572 3884.273)" fill="#cabef4"/>
        <rect id="Rectángulo_3287" data-name="Rectángulo 3287" width="130.123" height="2.854" transform="translate(3506.053 4010.21)" fill="#cabef4"/>
        <rect id="Rectángulo_3288" data-name="Rectángulo 3288" width="3.415" height="8.566" transform="translate(3506.053 4010.21)" fill="#cabef4"/>
        <rect id="Rectángulo_3289" data-name="Rectángulo 3289" width="3.414" height="8.566" transform="translate(3632.762 4010.21)" fill="#cabef4"/>
        <path id="Trazado_32170" data-name="Trazado 32170" d="M242.3,153.774H257.65v-7.882H243.188Z" transform="translate(3271.328 3754.056)" fill="#565150"/>
        <path id="Trazado_32171" data-name="Trazado 32171" d="M250.827,136.013a4.006,4.006,0,0,1,.661-2.114c1.253-1.435,1.367-2.235,1.257-2.645a2.793,2.793,0,0,0-5.331-1.064h1.361a1.655,1.655,0,0,1,2.831,1.167,3.9,3.9,0,0,1-.977,1.792,5.073,5.073,0,0,0-.942,2.845v2.919l-9.119,4.286c.016.022.034.04.048.064a5,5,0,0,0,.689.851l8.954-4.209,9.3,4.276c.131-.359.241-.726.349-1.086l-9.08-4.186Z" transform="translate(3271.734 3758.11)" fill="#fff"/>
        <path id="Trazado_32172" data-name="Trazado 32172" d="M252.5,145.3s-.338,5.21-7.676,5.21-7.676-5.21-7.676-5.21l-11.482,5.21-8.243,11.335,7.581,5,4.623-5s2.956,11.776-.723,27.968c0,0,4.564,2.355,13.248,2.355h5.342c8.685,0,13.248-2.355,13.248-2.355-3.68-16.192-.723-27.968-.723-27.968l5.39,5,6.815-5-8.243-11.335Z" transform="translate(3277.147 3754.195)" fill="#372322"/>
        <path id="Trazado_32173" data-name="Trazado 32173" d="M250.576,149.474c-6.37,0-6.963-4.648-6.977-4.821l-1.58.551c0,.061.485,6.037,8.557,6.037s8.554-5.976,8.557-6.037l-1.514-.551c-.015.179-.673,4.821-7.044,4.821" transform="translate(3271.394 3754.346)" fill="#d86736"/>
        <path id="Trazado_32174" data-name="Trazado 32174" d="M278.614,171.147l1.028,1.437,7.922-5.649-1.028-1.437Z" transform="translate(3262.835 3749.47)" fill="#d86736"/>
        <path id="Trazado_32175" data-name="Trazado 32175" d="M216.362,166.935l7.922,5.649,1.028-1.437L217.39,165.5Z" transform="translate(3277.395 3749.47)" fill="#d86736"/>
        <path id="Trazado_32176" data-name="Trazado 32176" d="M335.969,147.86,317,139.117v-2.9a4,4,0,0,1,.661-2.114c1.253-1.435,1.367-2.235,1.257-2.645a2.793,2.793,0,0,0-5.331-1.065h1.361a1.656,1.656,0,0,1,2.831,1.168,3.886,3.886,0,0,1-.977,1.792,5.079,5.079,0,0,0-.942,2.845v2.92L297.819,147.6c-.186.1-1.114.64-1.1,1.5.008.549.346,1.44,1.8,1.44h36.185c.392-.049,1.695-.281,1.952-1.154.149-.5-.083-1.017-.69-1.528m-1.333,1.54H298.23c-.4,0-.368-.287-.372-.313,0-.089.241-.338.473-.465l18.1-8.51,18.855,8.671a.4.4,0,0,1,.27.28c-.11.124-.109.338-.925.338" transform="translate(3258.601 3758.062)" fill="#fff"/>
        <path id="Trazado_32177" data-name="Trazado 32177" d="M332.613,148.993l-7.221-3.7s-1.3,6.468-6.992,6.468-6.992-6.468-6.992-6.468l-7.271,3.722s3.716,11.751-.195,13.907l2.151,17.5h24.613l2.152-17.5c-3.438-2.664-.245-13.933-.245-13.933" transform="translate(3256.911 3754.195)" fill="#d5493d"/>
        <path id="Trazado_32178" data-name="Trazado 32178" d="M319.6,191.154H304.643l-6.454,32.491s4.672,2.41,18.865,2.41c13.836,0,18.865-2.41,18.865-2.41l-6.454-32.491Z" transform="translate(3258.257 3743.47)" fill="#d5493d"/>
        <rect id="Rectángulo_3290" data-name="Rectángulo 3290" width="26.377" height="4.533" transform="translate(3562.123 3932.565)" fill="#fff"/>
        <path id="Trazado_32179" data-name="Trazado 32179" d="M321.347,187.015c-2.382,0-4.313,1.448-4.313,3.234s1.931,3.234,4.313,3.234,4.312-1.447,4.312-3.234-1.931-3.234-4.312-3.234" transform="translate(3253.849 3744.438)" fill="#fff"/>
        <path id="Trazado_32180" data-name="Trazado 32180" d="M306.414,147.86l-18.965-8.743v-2.9a3.99,3.99,0,0,1,.661-2.114c1.253-1.435,1.367-2.235,1.256-2.645a2.792,2.792,0,0,0-5.331-1.065H285.4a1.655,1.655,0,0,1,2.831,1.168,3.9,3.9,0,0,1-.977,1.792,5.067,5.067,0,0,0-.942,2.845v2.92L268.265,147.6c-.186.1-1.114.64-1.1,1.5.008.549.346,1.44,1.8,1.44h36.185c.393-.049,1.695-.281,1.952-1.154.149-.5-.083-1.017-.69-1.528m-1.332,1.54H268.675c-.4,0-.367-.287-.371-.313,0-.089.241-.338.472-.465l18.1-8.51,18.854,8.671a.4.4,0,0,1,.271.28c-.111.124-.109.338-.925.338" transform="translate(3265.513 3758.062)" fill="#fff"/>
        <path id="Trazado_32181" data-name="Trazado 32181" d="M301.149,162.926c-3.437-2.664-.245-13.933-.245-13.933l-7.221-3.7s-1.3,6.469-6.992,6.469S279.7,145.3,279.7,145.3l-7.271,3.723s3.716,11.751-.195,13.906l2.151,17.5-.1,0-9.1,47.052s7.322,2.409,21.515,2.409c13.835,0,21.514-2.409,21.514-2.409l-9.092-47.994Z" transform="translate(3265.978 3754.195)" fill="#eabc45"/>
        <path id="Trazado_32182" data-name="Trazado 32182" d="M295.546,147.86l-18.965-8.743v-2.9a3.991,3.991,0,0,1,.661-2.114c1.253-1.435,1.367-2.235,1.257-2.645a2.793,2.793,0,0,0-5.331-1.065h1.361a1.656,1.656,0,0,1,2.831,1.168,3.9,3.9,0,0,1-.977,1.792,5.073,5.073,0,0,0-.942,2.845v2.92L257.4,147.6c-.185.1-1.114.64-1.1,1.5.008.549.346,1.44,1.8,1.44h36.186c.392-.049,1.694-.281,1.951-1.154.149-.5-.083-1.017-.69-1.528m-1.332,1.54H257.808c-.4,0-.368-.287-.372-.313,0-.089.241-.338.473-.465l18.1-8.51,18.854,8.671a.4.4,0,0,1,.271.28c-.111.124-.109.338-.925.338" transform="translate(3268.055 3758.062)" fill="#fff"/>
        <path id="Trazado_32183" data-name="Trazado 32183" d="M292.19,148.993l-7.221-3.7s-1.3,6.468-6.992,6.468-6.992-6.468-6.992-6.468l-7.271,3.722s3.716,11.751-.195,13.907l2.152,17.5h24.612l2.152-17.5c-3.437-2.664-.245-13.933-.245-13.933" transform="translate(3266.366 3754.195)" fill="#ea5164"/>
        <path id="Trazado_32184" data-name="Trazado 32184" d="M278.373,191.154H263.412l-9.1,47.052s7.322,2.409,21.515,2.409c13.836,0,21.515-2.409,21.515-2.409l-9.1-47.052Z" transform="translate(3268.52 3743.47)" fill="#ea5164"/>
        <rect id="Rectángulo_3291" data-name="Rectángulo 3291" width="26.377" height="4.533" transform="translate(3531.154 3932.565)" fill="#fff"/>
        <path id="Trazado_32185" data-name="Trazado 32185" d="M280.925,187.015c-2.381,0-4.312,1.448-4.312,3.234s1.931,3.234,4.312,3.234,4.312-1.447,4.312-3.234-1.931-3.234-4.312-3.234" transform="translate(3263.303 3744.438)" fill="#fff"/>
        <path id="Trazado_32186" data-name="Trazado 32186" d="M350.133,153.774h15.345v-7.882H351.016Z" transform="translate(3246.108 3754.056)" fill="#ded1ce"/>
        <path id="Trazado_32187" data-name="Trazado 32187" d="M358.655,136.013a4,4,0,0,1,.661-2.114c1.253-1.435,1.367-2.235,1.256-2.645a2.793,2.793,0,0,0-5.331-1.064H356.6a1.655,1.655,0,0,1,2.831,1.167,3.893,3.893,0,0,1-.978,1.792,5.077,5.077,0,0,0-.942,2.845v2.919l-9.119,4.286c.015.022.034.04.048.064a5.027,5.027,0,0,0,.689.851l8.955-4.209,9.3,4.276c.13-.359.241-.726.349-1.086l-9.08-4.186Z" transform="translate(3246.514 3758.11)" fill="#fff"/>
        <path id="Trazado_32188" data-name="Trazado 32188" d="M360.327,145.3s-.338,5.21-7.676,5.21-7.676-5.21-7.676-5.21l-11.481,5.21-8.243,11.335,7.581,5,4.624-5s2.956,11.776-.723,27.968c0,0,4.563,2.355,13.248,2.355h5.343c8.685,0,13.248-2.355,13.248-2.355-3.68-16.192-.723-27.968-.723-27.968l5.39,5,6.815-5-8.243-11.335Z" transform="translate(3251.927 3754.195)" fill="#363636"/>
        <path id="Trazado_32189" data-name="Trazado 32189" d="M358.4,149.474c-6.371,0-6.963-4.648-6.977-4.821l-1.58.551c0,.061.485,6.037,8.557,6.037s8.554-5.976,8.557-6.037l-1.514-.551c-.015.179-.673,4.821-7.044,4.821" transform="translate(3246.175 3754.346)" fill="#ea5164"/>
        <path id="Trazado_32190" data-name="Trazado 32190" d="M386.442,171.147l1.028,1.437,7.922-5.649-1.028-1.437Z" transform="translate(3237.615 3749.47)" fill="#ea5164"/>
        <path id="Trazado_32191" data-name="Trazado 32191" d="M324.19,166.935l7.922,5.649,1.028-1.437-7.922-5.649Z" transform="translate(3252.176 3749.47)" fill="#ea5164"/>
        <rect id="Rectángulo_3326" data-name="Rectángulo 3326" width="116.879" height="78.575" transform="translate(3343.882 3940.202)" fill="#b4a2fa"/>
        <path id="Trazado_32279" data-name="Trazado 32279" d="M111.776,133.066H76.349a2,2,0,0,0-2,2v22.5a2,2,0,0,0,2,2h35.427a2,2,0,0,0,2-2v-22.5a2,2,0,0,0-2-2" transform="translate(3310.611 3757.056)" fill="#565150"/>
        <path id="Trazado_32280" data-name="Trazado 32280" d="M101.187,144.52h-5.5a1.216,1.216,0,0,0-1.214,1.154l-1.428,27.639H103.83L102.4,145.674a1.216,1.216,0,0,0-1.214-1.154" transform="translate(3306.239 3754.377)" fill="#736c6b"/>
        <rect id="Rectángulo_3327" data-name="Rectángulo 3327" width="4.464" height="1.267" transform="translate(3384.958 3895.591)" fill="#414141"/>
        <rect id="Rectángulo_3328" data-name="Rectángulo 3328" width="4.464" height="1.268" transform="translate(3384.958 3897.975)" fill="#414141"/>
        <rect id="Rectángulo_3329" data-name="Rectángulo 3329" width="4.464" height="1.267" transform="translate(3384.958 3900.359)" fill="#414141"/>
        <rect id="Rectángulo_3330" data-name="Rectángulo 3330" width="4.464" height="1.268" transform="translate(3384.958 3902.743)" fill="#414141"/>
        <rect id="Rectángulo_3331" data-name="Rectángulo 3331" width="4.464" height="1.268" transform="translate(3384.958 3905.126)" fill="#414141"/>
        <rect id="Rectángulo_3332" data-name="Rectángulo 3332" width="4.464" height="1.268" transform="translate(3384.958 3907.51)" fill="#414141"/>
        <rect id="Rectángulo_3333" data-name="Rectángulo 3333" width="4.464" height="1.268" transform="translate(3384.958 3909.895)" fill="#414141"/>
        <rect id="Rectángulo_3334" data-name="Rectángulo 3334" width="4.464" height="1.267" transform="translate(3419.926 3895.591)" fill="#414141"/>
        <rect id="Rectángulo_3335" data-name="Rectángulo 3335" width="4.464" height="1.268" transform="translate(3419.926 3897.975)" fill="#414141"/>
        <rect id="Rectángulo_3336" data-name="Rectángulo 3336" width="4.464" height="1.267" transform="translate(3419.926 3900.359)" fill="#414141"/>
        <rect id="Rectángulo_3337" data-name="Rectángulo 3337" width="4.464" height="1.268" transform="translate(3419.926 3902.743)" fill="#414141"/>
        <rect id="Rectángulo_3338" data-name="Rectángulo 3338" width="4.464" height="1.268" transform="translate(3419.926 3905.126)" fill="#414141"/>
        <rect id="Rectángulo_3339" data-name="Rectángulo 3339" width="4.464" height="1.268" transform="translate(3419.926 3907.51)" fill="#414141"/>
        <rect id="Rectángulo_3340" data-name="Rectángulo 3340" width="4.464" height="1.268" transform="translate(3419.926 3909.895)" fill="#414141"/>
        <rect id="Rectángulo_3341" data-name="Rectángulo 3341" width="47.566" height="12.599" transform="translate(3380.89 3927.603)" fill="#565150"/>
        <path id="Trazado_32307" data-name="Trazado 32307" d="M133.218,34.5a4.162,4.162,0,1,0,4.163,4.162,4.162,4.162,0,0,0-4.163-4.162" transform="translate(3297.815 3780.109)" fill="#fff"/>
        <rect id="Rectángulo_3352" data-name="Rectángulo 3352" width="1.187" height="26.479" transform="translate(3430.357 3788.179)" fill="#f6f6f6"/>
        <path id="Trazado_32308" data-name="Trazado 32308" d="M125.56,39.435h13.516L132.318,29.2Z" transform="translate(3298.633 3781.35)" fill="#dadada"/>
        <path id="Trazado_32309" data-name="Trazado 32309" d="M75.115,34.5a4.162,4.162,0,1,0,4.163,4.162A4.162,4.162,0,0,0,75.115,34.5" transform="translate(3311.405 3780.109)" fill="#fff"/>
        <rect id="Rectángulo_3353" data-name="Rectángulo 3353" width="1.187" height="26.479" transform="translate(3385.844 3788.179)" fill="#f6f6f6"/>
        <path id="Trazado_32310" data-name="Trazado 32310" d="M67.458,39.435H80.974L74.216,29.2Z" transform="translate(3312.222 3781.35)" fill="#dadada"/>
        <path id="Trazado_32311" data-name="Trazado 32311" d="M191.32,34.5a4.162,4.162,0,1,0,4.163,4.162A4.162,4.162,0,0,0,191.32,34.5" transform="translate(3284.226 3780.109)" fill="#fff"/>
        <rect id="Rectángulo_3354" data-name="Rectángulo 3354" width="1.187" height="26.479" transform="translate(3474.87 3788.179)" fill="#f6f6f6"/>
        <path id="Trazado_32312" data-name="Trazado 32312" d="M183.663,39.435h13.516L190.42,29.2Z" transform="translate(3285.043 3781.35)" fill="#dadada"/>
        <path id="Trazado_32313" data-name="Trazado 32313" d="M249.423,34.5a4.162,4.162,0,1,0,4.163,4.162,4.162,4.162,0,0,0-4.163-4.162" transform="translate(3270.636 3780.109)" fill="#fff"/>
        <rect id="Rectángulo_3355" data-name="Rectángulo 3355" width="1.187" height="26.479" transform="translate(3519.384 3788.179)" fill="#f6f6f6"/>
        <path id="Trazado_32314" data-name="Trazado 32314" d="M241.765,39.435H255.28L248.523,29.2Z" transform="translate(3271.454 3781.35)" fill="#dadada"/>
        <path id="Trazado_32351" data-name="Trazado 32351" d="M195.849,149.755l.173-2.5h-2.789a10.164,10.164,0,0,1,2.616,2.5" transform="translate(3282.805 3753.738)" fill="#507e50"/>
        <path id="Trazado_32352" data-name="Trazado 32352" d="M191.08,292.162l4.65.581,1.162-55.214h-9.881Z" transform="translate(3284.26 3732.623)" fill="#eab99f"/>
        <path id="Trazado_32353" data-name="Trazado 32353" d="M169.269,292.162l4.65.581,1.162-55.214H165.2Z" transform="translate(3289.361 3732.623)" fill="#eab99f"/>
        <path id="Trazado_32354" data-name="Trazado 32354" d="M204.149,176.973,200.295,153.1l-7.467.942L198.654,178l2.69,17.8-.02,0-1.066,4.227-.361,4.659c1.143.05,1.592-1.43,1.728-2.413s.878-.676.878-.676.386,5.128.5,6.267a.9.9,0,0,0,1.166.866l1.6-2,.969-4.388-2.079-6.92Z" transform="translate(3282.9 3752.371)" fill="#eab99f"/>
        <g id="Grupo_12273" data-name="Grupo 12273" transform="translate(3475.728 3905.466)" opacity="0.1">
          <g id="Grupo_12272" data-name="Grupo 12272">
            <g id="Grupo_12271" data-name="Grupo 12271" clip-path="url(#clip-path-11)">
              <path id="Trazado_32355" data-name="Trazado 32355" d="M197.523,163.844c-.073-.726,2.071-2.6,3.814-4.268l-1.043-6.48-7.467.942L198.654,178l2.69,17.8-.02,0-1.066,4.227-.361,4.659a1.14,1.14,0,0,0,.6-.135c.217-1.033,1.954-6.813,1.9-8.162-.074-1.7-1.756-16.423-2.3-20.106-.542-3.652-2.2-8.736-2.566-12.441" transform="translate(-192.828 -153.095)"/>
            </g>
          </g>
        </g>
        <path id="Trazado_32356" data-name="Trazado 32356" d="M166.97,308.6l-7.847,2.721c-3.422.354-3.658,3.068-3.658,3.068h17.113a10.719,10.719,0,0,0-.886-5.783Z" transform="translate(3291.638 3716.001)" fill="#565150"/>
        <g id="Grupo_12276" data-name="Grupo 12276" transform="translate(3447.104 4024.6)" opacity="0.1">
          <g id="Grupo_12275" data-name="Grupo 12275">
            <g id="Grupo_12274" data-name="Grupo 12274" clip-path="url(#clip-path-12)">
              <path id="Trazado_32357" data-name="Trazado 32357" d="M159.124,311.32c-3.422.354-3.658,3.068-3.658,3.068h5.582a87.6,87.6,0,0,1,8.154-5.783l-2.23-.007Z" transform="translate(-155.465 -308.599)"/>
            </g>
          </g>
        </g>
        <path id="Trazado_32358" data-name="Trazado 32358" d="M157.343,177.211,154.051,195.8l-.048,0-1.889,6.974,1.09,4.359,1.653,1.959a.9.9,0,0,0,1.142-.9c.082-1.142.326-6.279.326-6.279s.734-.326.9.653.653,2.445,1.794,2.364l-.49-4.648-1.181-4.2-.018,0L162.877,178l3.978-23.857-7.714.825Z" transform="translate(3292.422 3752.127)" fill="#eab99f"/>
        <g id="Grupo_12279" data-name="Grupo 12279" transform="translate(3444.536 3906.267)" opacity="0.1">
          <g id="Grupo_12278" data-name="Grupo 12278">
            <g id="Grupo_12277" data-name="Grupo 12277" clip-path="url(#clip-path-13)">
              <path id="Trazado_32359" data-name="Trazado 32359" d="M157.343,177.211,154.051,195.8l-.048,0-1.889,6.974,1.09,4.359,1.331,1.577c-.049-.12-.1-.239-.141-.367-1.207-3.688-.238-7.1.386-10.775.559-3.3,5.541-27.786,5.541-35.219,0-.218,2.609-.342,5.2-.179l1.338-8.026-7.714.826Z" transform="translate(-152.114 -154.14)"/>
            </g>
          </g>
        </g>
        <path id="Trazado_32360" data-name="Trazado 32360" d="M195.36,155.673l-2.927-5.611a6.8,6.8,0,0,0-4.483-4.051l-10.794-3.778c-.008-.071-.013-.142-.023-.213a.3.3,0,0,1,0-.046l-.085-.031-.362.126-.362-.126-.086.031a.3.3,0,0,1,0,.046c-.009.071-.014.142-.023.213l-10.934,3.822a6.65,6.65,0,0,0-3.985,3.265l-.264.528c-.182.4-2.317,6.237-2.317,6.237.348.116,3.4,1.9,5.8,3.308-.038-.409,2.484,19.841,2.484,19.841l-2.923,11.089a58.222,58.222,0,0,0-.539,7.911v16.939h26.735l.473-15.352a40.394,40.394,0,0,0-.854-9.255l-4.234-11.337,1.288-18.666c2.272-1.357,7.95-4.736,8.413-4.89" transform="translate(3290.877 3754.98)" fill="#fff"/>
        <path id="Trazado_32361" data-name="Trazado 32361" d="M187.131,190.613s-12.449.07-18.68.09l-2.9,11a58.225,58.225,0,0,0-.54,7.911v16.939h26.736l.473-15.352a40.438,40.438,0,0,0-.854-9.255Z" transform="translate(3289.406 3743.596)" fill="#ea5164"/>
        <g id="Grupo_12282" data-name="Grupo 12282" transform="translate(3449.598 3898.343)" opacity="0.1">
          <g id="Grupo_12281" data-name="Grupo 12281">
            <g id="Grupo_12280" data-name="Grupo 12280" clip-path="url(#clip-path-14)">
              <path id="Trazado_32362" data-name="Trazado 32362" d="M172.981,143.8l-7.7,2.691a6.649,6.649,0,0,0-3.985,3.264l-.264.528a5.7,5.7,0,0,0-.26.667h.012l-2.068,5.569c-.011-.011,1.522.817,1.6.853.908-2.434,2.14-6.335,3.233-8.089,1.381-2.216,9.142-4.9,9.142-4.9.559-.493.124-.44.29-.581" transform="translate(-158.721 -143.797)"/>
            </g>
          </g>
        </g>
        <path id="Trazado_32363" data-name="Trazado 32363" d="M171.965,130.972a6.829,6.829,0,0,0,13.658,0v-8.249H171.965Z" transform="translate(3287.779 3759.475)" fill="#eab99f"/>
        <path id="Trazado_32364" data-name="Trazado 32364" d="M176.643,142.18a27.576,27.576,0,0,0,4.138.631,16.8,16.8,0,0,0,4-.578v-7.119h-8.137Z" transform="translate(3286.685 3756.577)" fill="#eab99f"/>
        <g id="Grupo_12285" data-name="Grupo 12285" transform="translate(3454.562 3970.152)" opacity="0.1">
          <g id="Grupo_12284" data-name="Grupo 12284">
            <g id="Grupo_12283" data-name="Grupo 12283" clip-path="url(#clip-path-15)">
              <path id="Trazado_32365" data-name="Trazado 32365" d="M165.2,237.53l4.041,54.48.532-.047-2.906-53.035,8.213-1.4Z" transform="translate(-165.201 -237.529)"/>
            </g>
          </g>
        </g>
        <g id="Grupo_12288" data-name="Grupo 12288" transform="translate(3471.272 3970.152)" opacity="0.1">
          <g id="Grupo_12287" data-name="Grupo 12287">
            <g id="Grupo_12286" data-name="Grupo 12286" clip-path="url(#clip-path-16)">
              <path id="Trazado_32366" data-name="Trazado 32366" d="M187.012,237.53l4.056,54.538.518-.055-3.051-53.036,8.358-1.446Z" transform="translate(-187.012 -237.529)"/>
            </g>
          </g>
        </g>
        <path id="Trazado_32367" data-name="Trazado 32367" d="M189.669,308.646l-4.941,2.675c-3.423.354-3.659,3.068-3.659,3.068h14.207a10.723,10.723,0,0,0-.885-5.783Z" transform="translate(3285.65 3715.999)" fill="#565150"/>
        <g id="Grupo_12291" data-name="Grupo 12291" transform="translate(3466.719 4024.622)" opacity="0.1">
          <g id="Grupo_12290" data-name="Grupo 12290">
            <g id="Grupo_12289" data-name="Grupo 12289" clip-path="url(#clip-path-17)">
              <path id="Trazado_32368" data-name="Trazado 32368" d="M184.728,311.327c-3.423.354-3.658,3.068-3.658,3.068h3.975a66.457,66.457,0,0,1,6.574-5.767l-1.907.01Z" transform="translate(-181.069 -308.628)"/>
            </g>
          </g>
        </g>
        <path id="Trazado_32369" data-name="Trazado 32369" d="M180.887,112.861h-4.36a7.28,7.28,0,0,0-7.28,7.28v26.228a5.183,5.183,0,0,0,5.183,5.184h9.137a5.183,5.183,0,0,0,5.183-5.184l-.581-26.228a7.28,7.28,0,0,0-7.28-7.28" transform="translate(3288.415 3761.782)" fill="#ce9b25"/>
        <g id="Grupo_12294" data-name="Grupo 12294" transform="translate(3454.392 3913.652)" opacity="0.1">
          <g id="Grupo_12293" data-name="Grupo 12293">
            <g id="Grupo_12292" data-name="Grupo 12292" clip-path="url(#clip-path-18)">
              <path id="Trazado_32370" data-name="Trazado 32370" d="M165.958,164.5c-.038-.409,2.484,19.841,2.484,19.841l-2.923,11.09a58.222,58.222,0,0,0-.539,7.91v16.939h2.588c-1.067-4.265-.139-21.11.387-25.289.469-3.722,2.907-11.527,2.866-11.831-.5-3.819-3.726-16.746-4.331-19.38-.308.2-.673.637-.532.72" transform="translate(-164.979 -163.779)"/>
            </g>
          </g>
        </g>
        <path id="Trazado_32395" data-name="Trazado 32395" d="M251.778,162.635a.67.67,0,0,0-.978,0l-1.59,1.7a.41.41,0,0,0-.111.281v5.948a.411.411,0,0,0,.411.411h3.559a.411.411,0,0,0,.411-.411v-5.948a.41.41,0,0,0-.111-.281Z" transform="translate(3269.739 3750.19)" fill="#eabc45"/>
        <path id="Trazado_32396" data-name="Trazado 32396" d="M251.842,163.75a.379.379,0,1,0,.379.379.38.38,0,0,0-.379-.379" transform="translate(3269.186 3749.879)" fill="#706f6f"/>
        <path id="Trazado_32397" data-name="Trazado 32397" d="M251.79,157.327c-.4,0-.552.5-.552,1.791,0,.034.033,3.387.552,3.387s.552-3.353.552-3.387c0-1.289-.155-1.791-.552-1.791m0,4.954a10.962,10.962,0,0,1-.349-3.163c0-1.589.263-1.589.349-1.589s.349,0,.349,1.589a10.962,10.962,0,0,1-.349,3.163" transform="translate(3269.238 3751.382)" fill="#ededed"/>
        <path id="Trazado_32398" data-name="Trazado 32398" d="M251.2,162.637l-.4.431c.011.019.513.591.617.494a.357.357,0,0,1,.288-.12c.014,0-.037-.935-.048-1.01a.663.663,0,0,0-.454.205" transform="translate(3269.342 3750.188)" fill="#eabc45"/>
        <path id="Trazado_32399" data-name="Trazado 32399" d="M252.57,156.85h-2.12a.365.365,0,0,0,0,.731h2.12a.365.365,0,1,0,0-.731m0,.643h-2.12a.277.277,0,0,1,0-.555h2.12a.277.277,0,0,1,0,.555" transform="translate(3269.508 3751.493)" fill="#706f6f"/>
        <path id="Trazado_32400" data-name="Trazado 32400" d="M250.784,156.908h-.319a.321.321,0,1,0,0,.643h.319c.177,0,.177-.643,0-.643" transform="translate(3269.494 3751.48)" fill="#706f6f"/>
        <path id="Trazado_32401" data-name="Trazado 32401" d="M253.241,156.85a.365.365,0,1,0,.365.366.367.367,0,0,0-.365-.366m0,.643a.277.277,0,1,1,.277-.277.278.278,0,0,1-.277.277" transform="translate(3268.855 3751.493)" fill="#706f6f"/>
        <path id="Trazado_32402" data-name="Trazado 32402" d="M361.778,164.635a.67.67,0,0,0-.978,0l-1.59,1.7a.41.41,0,0,0-.111.28v5.949a.411.411,0,0,0,.411.411h3.559a.411.411,0,0,0,.411-.411v-5.949a.41.41,0,0,0-.111-.28Z" transform="translate(3244.011 3749.722)" fill="#eabc45"/>
        <path id="Trazado_32403" data-name="Trazado 32403" d="M361.842,165.75a.379.379,0,1,0,.379.379.38.38,0,0,0-.379-.379" transform="translate(3243.458 3749.411)" fill="#706f6f"/>
        <path id="Trazado_32404" data-name="Trazado 32404" d="M361.79,159.326c-.4,0-.552.5-.552,1.792,0,.034.033,3.387.552,3.387s.552-3.353.552-3.387c0-1.289-.155-1.792-.552-1.792m0,4.955a10.933,10.933,0,0,1-.349-3.163c0-1.589.263-1.589.349-1.589s.349,0,.349,1.589a10.961,10.961,0,0,1-.349,3.163" transform="translate(3243.51 3750.914)" fill="#ededed"/>
        <path id="Trazado_32405" data-name="Trazado 32405" d="M361.2,164.637l-.4.43c.012.02.513.592.616.495a.359.359,0,0,1,.289-.12c.014,0-.037-.935-.048-1.01a.663.663,0,0,0-.454.205" transform="translate(3243.614 3749.72)" fill="#eabc45"/>
        <path id="Trazado_32406" data-name="Trazado 32406" d="M362.57,158.85h-2.12a.365.365,0,0,0,0,.731h2.12a.365.365,0,1,0,0-.731m0,.643h-2.12a.277.277,0,0,1,0-.555h2.12a.277.277,0,1,1,0,.555" transform="translate(3243.78 3751.025)" fill="#706f6f"/>
        <path id="Trazado_32407" data-name="Trazado 32407" d="M360.784,158.908h-.32a.321.321,0,0,0,0,.643h.32c.177,0,.177-.643,0-.643" transform="translate(3243.766 3751.012)" fill="#706f6f"/>
        <path id="Trazado_32408" data-name="Trazado 32408" d="M363.241,158.85a.365.365,0,1,0,.365.365.367.367,0,0,0-.365-.365m0,.643a.277.277,0,1,1,.277-.277.278.278,0,0,1-.277.277" transform="translate(3243.127 3751.025)" fill="#706f6f"/>
      </g>
    </g>
  </g>
</svg>
