<svg xmlns="http://www.w3.org/2000/svg" xmlns:xlink="http://www.w3.org/1999/xlink" width="331.844" height="230.347" viewBox="0 0 331.844 230.347">
  <defs>
    <clipPath id="clip-path">
      <rect id="Rectángulo_3408" data-name="Rectángulo 3408" width="331.844" height="230.347" fill="none"/>
    </clipPath>
    <clipPath id="clip-path-2">
      <rect id="Rectángulo_3407" data-name="Rectángulo 3407" width="331.843" height="230.347" fill="none"/>
    </clipPath>
    <clipPath id="clip-path-3">
      <rect id="Rectángulo_3379" data-name="Rectángulo 3379" width="331.316" height="27.145" fill="none"/>
    </clipPath>
    <clipPath id="clip-path-4">
      <rect id="Rectángulo_3383" data-name="Rectángulo 3383" width="57.502" height="4.765" fill="none"/>
    </clipPath>
    <clipPath id="clip-path-5">
      <rect id="Rectángulo_3384" data-name="Rectángulo 3384" width="57.501" height="4.765" fill="none"/>
    </clipPath>
    <clipPath id="clip-path-6">
      <rect id="Rectángulo_3386" data-name="Rectángulo 3386" width="247.401" height="5.018" fill="none"/>
    </clipPath>
    <clipPath id="clip-path-7">
      <rect id="Rectángulo_3389" data-name="Rectángulo 3389" width="46.55" height="43.402" fill="none"/>
    </clipPath>
    <clipPath id="clip-path-8">
      <rect id="Rectángulo_3390" data-name="Rectángulo 3390" width="46.549" height="43.402" fill="none"/>
    </clipPath>
    <clipPath id="clip-path-9">
      <rect id="Rectángulo_3391" data-name="Rectángulo 3391" width="39.452" height="46.442" fill="none"/>
    </clipPath>
    <clipPath id="clip-path-10">
      <rect id="Rectángulo_3393" data-name="Rectángulo 3393" width="39.452" height="57.561" fill="none"/>
    </clipPath>
    <clipPath id="clip-path-11">
      <rect id="Rectángulo_3395" data-name="Rectángulo 3395" width="41.123" height="61.286" fill="none"/>
    </clipPath>
    <clipPath id="clip-path-12">
      <rect id="Rectángulo_3396" data-name="Rectángulo 3396" width="26.118" height="52.826" fill="none"/>
    </clipPath>
    <clipPath id="clip-path-14">
      <rect id="Rectángulo_3399" data-name="Rectángulo 3399" width="26.117" height="52.826" fill="none"/>
    </clipPath>
    <clipPath id="clip-path-15">
      <rect id="Rectángulo_3400" data-name="Rectángulo 3400" width="19.802" height="12.095" fill="none"/>
    </clipPath>
    <clipPath id="clip-path-16">
      <rect id="Rectángulo_3402" data-name="Rectángulo 3402" width="3.537" height="8.781" fill="none"/>
    </clipPath>
    <clipPath id="clip-path-17">
      <rect id="Rectángulo_3404" data-name="Rectángulo 3404" width="29.281" height="1.33" fill="none"/>
    </clipPath>
  </defs>
  <g id="Grupo_12351" data-name="Grupo 12351" transform="translate(-1107 -5438.383)">
    <g id="Grupo_12347" data-name="Grupo 12347" transform="translate(1107 5438.383)">
      <g id="Grupo_12346" data-name="Grupo 12346" clip-path="url(#clip-path)">
        <g id="Grupo_12345" data-name="Grupo 12345">
          <g id="Grupo_12344" data-name="Grupo 12344" clip-path="url(#clip-path-2)">
            <g id="Grupo_12298" data-name="Grupo 12298" transform="translate(0 203.202)" style="mix-blend-mode: multiply;isolation: isolate">
              <g id="Grupo_12297" data-name="Grupo 12297">
                <g id="Grupo_12296" data-name="Grupo 12296" clip-path="url(#clip-path-3)">
                  <path id="Trazado_32409" data-name="Trazado 32409" d="M331.316,1110.736c0,7.5-74.168,13.573-165.658,13.573S0,1118.232,0,1110.736s74.168-13.573,165.658-13.573,165.658,6.077,165.658,13.573" transform="translate(0 -1097.163)" fill="#f0f0f0"/>
                </g>
              </g>
            </g>
            <path id="Trazado_32410" data-name="Trazado 32410" d="M577.144,32.461H397.331a3.3,3.3,0,0,1-3.3-3.3V3.3a3.3,3.3,0,0,1,3.3-3.3H577.144a3.3,3.3,0,0,1,3.3,3.3V29.159a3.3,3.3,0,0,1-3.3,3.3" transform="translate(-321.052)" fill="#f0c0c7"/>
            <path id="Trazado_32411" data-name="Trazado 32411" d="M466.743,54.808V51.767h9.884v3.041h-3.25V65.072h-3.364V54.808Z" transform="translate(-380.299 -42.18)" fill="#d16674"/>
            <path id="Trazado_32412" data-name="Trazado 32412" d="M542.677,64.578v.494h-3.8l-2.28-3.915h-1.768v3.915h-3.4v-13.3h5.835c5.227.019,6.177,6.311,2.813,8.59Zm-5.417-9.77c-.8-.019-1.634,0-2.433,0V58.1h2.433c1.844,0,1.939-3.27,0-3.289" transform="translate(-433.002 -42.179)" fill="#d16674"/>
            <path id="Trazado_32413" data-name="Trazado 32413" d="M606.8,62.649h-5.245l-.779,1.673h-3.326v-.494l5.987-12.981H604.9l6.006,12.981v.494h-3.327Zm-2.642-6.424-1.483,3.5h3Z" transform="translate(-486.801 -41.43)" fill="#d16674"/>
            <path id="Trazado_32414" data-name="Trazado 32414" d="M672.629,59.313h.1l3.041-7.546h3.269v.514l-5.645,12.942h-1.444l-5.7-12.942v-.514h3.269Z" transform="translate(-542.851 -42.18)" fill="#d16674"/>
            <path id="Trazado_32415" data-name="Trazado 32415" d="M754.322,54.808H749.4V56.69h4.523v3.022H749.4v2.337h5.094v3.022h-8.477v-13.3h8.306Z" transform="translate(-607.849 -42.18)" fill="#d16674"/>
            <path id="Trazado_32416" data-name="Trazado 32416" d="M810.94,62.012h4.828v3.06h-8.249v-13.3h3.422Z" transform="translate(-657.961 -42.18)" fill="#d16674"/>
            <path id="Trazado_32417" data-name="Trazado 32417" d="M893.266,62.649h-5.245l-.779,1.673h-3.326v-.494L889.9,50.847h1.463l6.006,12.981v.494h-3.326Zm-2.642-6.424-1.483,3.5h3Z" transform="translate(-720.209 -41.43)" fill="#d16674"/>
            <path id="Trazado_32418" data-name="Trazado 32418" d="M968.461,50.848c2.68.019,5.474,1.405,6.12,4.712h-3.345a2.721,2.721,0,0,0-2.775-1.6c-2.148,0-3.307,1.671-3.307,3.706,0,2.2,1.292,3.649,3.307,3.649a2.706,2.706,0,0,0,2.851-1.636H968.48V56.74h6.291a9.675,9.675,0,0,1-.381,3.9c-.95,2.776-3.478,3.84-5.93,3.84a6.813,6.813,0,1,1,0-13.626" transform="translate(-783.536 -41.431)" fill="#d16674"/>
            <path id="Trazado_32419" data-name="Trazado 32419" d="M1055.47,54.808h-4.923V56.69h4.524v3.022h-4.524v2.337h5.094v3.022h-8.477v-13.3h8.306Z" transform="translate(-853.223 -42.18)" fill="#d16674"/>
            <path id="Trazado_32420" data-name="Trazado 32420" d="M1112.284,58.281V64.82h-3.516V51.458H1110l6.728,6.577v-6.52h3.478V64.838h-1.216Z" transform="translate(-903.417 -41.928)" fill="#d16674"/>
            <path id="Trazado_32421" data-name="Trazado 32421" d="M1191.366,50.948c2.756,0,5.74,1.5,6.253,5.056h-3.345a2.791,2.791,0,0,0-2.908-1.957c-2,0-3.307,1.5-3.307,3.706a3.449,3.449,0,0,0,3.307,3.686,2.832,2.832,0,0,0,2.965-2.148h3.345c-.495,3.764-3.478,5.246-6.31,5.246a6.795,6.795,0,1,1,0-13.589" transform="translate(-965.158 -41.512)" fill="#d16674"/>
            <path id="Trazado_32422" data-name="Trazado 32422" d="M1269.18,65.072h-3.365V59.483l-4.466-7.2v-.514h3.669l2.413,4.429h.133l2.413-4.429h3.688v.514l-4.485,7.2Z" transform="translate(-1027.739 -42.18)" fill="#d16674"/>
            <rect id="Rectángulo_3380" data-name="Rectángulo 3380" width="3.302" height="8.605" transform="translate(95.35 32.461)" fill="#d698a1"/>
            <rect id="Rectángulo_3381" data-name="Rectángulo 3381" width="3.302" height="8.605" transform="translate(233.718 32.461)" fill="#d698a1"/>
            <rect id="Rectángulo_3382" data-name="Rectángulo 3382" width="247.402" height="159.902" transform="translate(42.484 41.721)" fill="#f0c0c7"/>
            <g id="Grupo_12301" data-name="Grupo 12301" transform="translate(73.377 139.322)" style="mix-blend-mode: multiply;isolation: isolate">
              <g id="Grupo_12300" data-name="Grupo 12300">
                <g id="Grupo_12299" data-name="Grupo 12299" clip-path="url(#clip-path-4)">
                  <path id="Trazado_32423" data-name="Trazado 32423" d="M451.31,757.015H398.573a2.383,2.383,0,0,1,0-4.765H451.31a2.383,2.383,0,0,1,0,4.765" transform="translate(-396.191 -752.25)" fill="#e6dbeb"/>
                </g>
              </g>
            </g>
            <g id="Grupo_12304" data-name="Grupo 12304" transform="translate(201.892 139.322)" style="mix-blend-mode: multiply;isolation: isolate">
              <g id="Grupo_12303" data-name="Grupo 12303">
                <g id="Grupo_12302" data-name="Grupo 12302" clip-path="url(#clip-path-5)">
                  <path id="Trazado_32424" data-name="Trazado 32424" d="M1145.208,757.015h-52.737a2.383,2.383,0,0,1,0-4.765h52.737a2.383,2.383,0,0,1,0,4.765" transform="translate(-1090.089 -752.25)" fill="#e6dbeb"/>
                </g>
              </g>
            </g>
            <path id="Trazado_32425" data-name="Trazado 32425" d="M1484.692,225.268h-4.975a7.149,7.149,0,0,0,0,14.3h2.345a2.631,2.631,0,0,1,2.631,2.631v9.036a2.631,2.631,0,0,1-2.631,2.631h-2.345a7.149,7.149,0,0,0,0,14.3h2.345a2.631,2.631,0,0,1,2.631,2.631v9.036a2.631,2.631,0,0,1-2.631,2.631h-2.345a7.149,7.149,0,0,0,0,14.3h2.345a2.631,2.631,0,0,1,2.631,2.631v9.036a2.631,2.631,0,0,1-2.631,2.631h-2.345a7.149,7.149,0,0,0,0,14.3h2.345a2.631,2.631,0,0,1,2.631,2.631v9.036a2.63,2.63,0,0,1-2.631,2.631h-2.345a7.149,7.149,0,0,0,0,14.3h2.345a2.631,2.631,0,0,1,2.631,2.631v9.036a2.631,2.631,0,0,1-2.631,2.631h-2.345a7.149,7.149,0,0,0-7.149,7.148h0a7.148,7.148,0,0,0,7.149,7.149h2.345a2.631,2.631,0,0,1,2.631,2.631h5.033v-159.9Z" transform="translate(-1199.839 -183.547)" fill="#d16674"/>
            <path id="Trazado_32426" data-name="Trazado 32426" d="M246.545,232.417h0a7.149,7.149,0,0,0-7.149-7.149H229.388v159.9h5.033a2.631,2.631,0,0,1,2.631-2.631H239.4a7.148,7.148,0,0,0,7.149-7.149h0a7.149,7.149,0,0,0-7.149-7.148h-2.345a2.631,2.631,0,0,1-2.631-2.631v-9.036a2.631,2.631,0,0,1,2.631-2.631H239.4a7.149,7.149,0,0,0,0-14.3h-2.345a2.631,2.631,0,0,1-2.631-2.631V327.98a2.631,2.631,0,0,1,2.631-2.631H239.4a7.149,7.149,0,0,0,0-14.3h-2.345a2.631,2.631,0,0,1-2.631-2.631v-9.036a2.631,2.631,0,0,1,2.631-2.631H239.4a7.149,7.149,0,1,0,0-14.3h-2.345a2.631,2.631,0,0,1-2.631-2.631v-9.036a2.631,2.631,0,0,1,2.631-2.631H239.4a7.149,7.149,0,0,0,0-14.3h-2.345a2.631,2.631,0,0,1-2.631-2.631V242.2a2.631,2.631,0,0,1,2.631-2.631H239.4a7.149,7.149,0,0,0,7.149-7.149" transform="translate(-186.904 -183.547)" fill="#d16674"/>
            <g id="Grupo_12307" data-name="Grupo 12307" transform="translate(42.641 56.691)" style="mix-blend-mode: multiply;isolation: isolate">
              <g id="Grupo_12306" data-name="Grupo 12306">
                <g id="Grupo_12305" data-name="Grupo 12305" clip-path="url(#clip-path-6)">
                  <rect id="Rectángulo_3385" data-name="Rectángulo 3385" width="247.402" height="5.018" fill="#c2d1be"/>
                </g>
              </g>
            </g>
            <path id="Trazado_32427" data-name="Trazado 32427" d="M430.425,236.565H162.963a2.789,2.789,0,0,1-2.789-2.788V223.548a2.788,2.788,0,0,1,2.789-2.788H430.425a2.788,2.788,0,0,1,2.788,2.788v10.228a2.789,2.789,0,0,1-2.788,2.788" transform="translate(-130.509 -179.874)" fill="#d16674"/>
            <rect id="Rectángulo_3387" data-name="Rectángulo 3387" width="266.177" height="9.308" transform="translate(33.097 201.623)" fill="#d698a1"/>
            <rect id="Rectángulo_3388" data-name="Rectángulo 3388" width="50.905" height="58.074" transform="translate(140.733 141.707)" fill="#fdfaff"/>
            <path id="Trazado_32428" data-name="Trazado 32428" d="M820.066,784.79h-35.49a3.843,3.843,0,0,1-3.843,3.843v42.48a3.843,3.843,0,0,1,3.843,3.843h35.49a3.843,3.843,0,0,1,3.843-3.843v-42.48a3.843,3.843,0,0,1-3.843-3.843" transform="translate(-636.136 -639.442)" fill="#f0c0c7"/>
            <path id="Trazado_32429" data-name="Trazado 32429" d="M1108.812,807.5v39.333a3.843,3.843,0,0,1,3.843,3.843h42.48a3.843,3.843,0,0,1,3.843-3.843V807.5a3.843,3.843,0,0,1-3.843-3.843h-42.48a3.843,3.843,0,0,1-3.843,3.843" transform="translate(-903.453 -654.818)" fill="#d698a1"/>
            <path id="Trazado_32430" data-name="Trazado 32430" d="M414.914,807.5v39.333a3.843,3.843,0,0,1,3.843,3.843h42.48a3.843,3.843,0,0,1,3.843-3.843V807.5a3.843,3.843,0,0,1-3.843-3.843h-42.48a3.843,3.843,0,0,1-3.843,3.843" transform="translate(-338.069 -654.818)" fill="#d698a1"/>
            <g id="Grupo_12310" data-name="Grupo 12310" transform="translate(205.359 148.843)" style="mix-blend-mode: multiply;isolation: isolate">
              <g id="Grupo_12309" data-name="Grupo 12309">
                <g id="Grupo_12308" data-name="Grupo 12308" clip-path="url(#clip-path-7)">
                  <path id="Trazado_32431" data-name="Trazado 32431" d="M1110.1,808.79a3.843,3.843,0,0,0,3.843-3.843h41.419a3.828,3.828,0,0,1-.225-1.287h-42.48a3.843,3.843,0,0,1-3.843,3.843v39.333a3.826,3.826,0,0,1,1.287.225Z" transform="translate(-1108.811 -803.66)" fill="#d9d0bb"/>
                </g>
              </g>
            </g>
            <g id="Grupo_12313" data-name="Grupo 12313" transform="translate(76.845 148.843)" style="mix-blend-mode: multiply;isolation: isolate">
              <g id="Grupo_12312" data-name="Grupo 12312">
                <g id="Grupo_12311" data-name="Grupo 12311" clip-path="url(#clip-path-8)">
                  <path id="Trazado_32432" data-name="Trazado 32432" d="M416.2,808.79a3.843,3.843,0,0,0,3.843-3.843h41.419a3.827,3.827,0,0,1-.225-1.287h-42.48a3.843,3.843,0,0,1-3.843,3.843v39.333a3.826,3.826,0,0,1,1.287.225Z" transform="translate(-414.913 -803.66)" fill="#d9d0bb"/>
                </g>
              </g>
            </g>
            <g id="Grupo_12316" data-name="Grupo 12316" transform="translate(144.597 145.348)" style="mix-blend-mode: multiply;isolation: isolate">
              <g id="Grupo_12315" data-name="Grupo 12315">
                <g id="Grupo_12314" data-name="Grupo 12314" clip-path="url(#clip-path-9)">
                  <path id="Trazado_32433" data-name="Trazado 32433" d="M781.666,789.566a3.843,3.843,0,0,0,3.843-3.843h34.676a3.843,3.843,0,0,1-.119-.933h-35.49a3.843,3.843,0,0,1-3.843,3.843v42.48a3.832,3.832,0,0,1,.933.119Z" transform="translate(-780.733 -784.79)" fill="#d9d0bb"/>
                </g>
              </g>
            </g>
            <rect id="Rectángulo_3392" data-name="Rectángulo 3392" width="50.905" height="69.194" transform="translate(140.733 73.537)" fill="#fdfaff"/>
            <path id="Trazado_32434" data-name="Trazado 32434" d="M820.066,416.714h-35.49a3.843,3.843,0,0,1-3.843,3.843v53.6A3.843,3.843,0,0,1,784.576,478h35.49a3.843,3.843,0,0,1,3.843-3.843v-53.6a3.843,3.843,0,0,1-3.843-3.843" transform="translate(-636.136 -339.536)" fill="#f0c0c7"/>
            <g id="Grupo_12319" data-name="Grupo 12319" transform="translate(144.597 77.178)" style="mix-blend-mode: multiply;isolation: isolate">
              <g id="Grupo_12318" data-name="Grupo 12318">
                <g id="Grupo_12317" data-name="Grupo 12317" clip-path="url(#clip-path-10)">
                  <path id="Trazado_32435" data-name="Trazado 32435" d="M781.666,421.491a3.843,3.843,0,0,0,3.843-3.843h34.676a3.843,3.843,0,0,1-.119-.933h-35.49a3.843,3.843,0,0,1-3.843,3.843v53.6a3.832,3.832,0,0,1,.933.119Z" transform="translate(-780.733 -416.715)" fill="#d9d0bb"/>
                </g>
              </g>
            </g>
            <rect id="Rectángulo_3394" data-name="Rectángulo 3394" width="50.905" height="69.194" transform="translate(204.99 73.537)" fill="#fdfaff"/>
            <path id="Trazado_32436" data-name="Trazado 32436" d="M1167.016,416.714h-35.49a3.843,3.843,0,0,1-3.843,3.843v53.6a3.843,3.843,0,0,1,3.843,3.843h35.49a3.843,3.843,0,0,1,3.843-3.843v-53.6a3.843,3.843,0,0,1-3.843-3.843" transform="translate(-918.829 -339.536)" fill="#85d4f7"/>
            <g id="Grupo_12322" data-name="Grupo 12322" transform="translate(208.854 77.178)" style="mix-blend-mode: screen;isolation: isolate">
              <g id="Grupo_12321" data-name="Grupo 12321">
                <g id="Grupo_12320" data-name="Grupo 12320" clip-path="url(#clip-path-11)">
                  <path id="Trazado_32437" data-name="Trazado 32437" d="M1168.805,419.959a3.837,3.837,0,0,1-1.79-3.245h-24.074l-15.259,30.864v26.578a3.843,3.843,0,0,1,3.843,3.843h8.585Z" transform="translate(-1127.682 -416.714)" fill="#1f282e"/>
                </g>
              </g>
            </g>
            <g id="Grupo_12325" data-name="Grupo 12325" transform="translate(225.913 85.637)" style="mix-blend-mode: screen;isolation: isolate">
              <g id="Grupo_12324" data-name="Grupo 12324">
                <g id="Grupo_12323" data-name="Grupo 12323" clip-path="url(#clip-path-12)">
                  <path id="Trazado_32438" data-name="Trazado 32438" d="M1232.121,515.215l13.788-27.889V462.389l-26.117,52.826Z" transform="translate(-1219.792 -462.389)" fill="#1f282e"/>
                </g>
              </g>
            </g>
            <rect id="Rectángulo_3397" data-name="Rectángulo 3397" width="50.905" height="69.194" transform="translate(76.475 73.537)" fill="#fdfaff"/>
            <path id="Trazado_32439" data-name="Trazado 32439" d="M473.117,416.714h-35.49a3.843,3.843,0,0,1-3.843,3.843v53.6A3.843,3.843,0,0,1,437.627,478h35.49a3.843,3.843,0,0,1,3.843-3.843v-53.6a3.843,3.843,0,0,1-3.843-3.843" transform="translate(-353.444 -339.536)" fill="#85d4f7"/>
            <g id="Grupo_12328" data-name="Grupo 12328" transform="translate(80.34 77.178)" style="mix-blend-mode: screen;isolation: isolate">
              <g id="Grupo_12327" data-name="Grupo 12327">
                <g id="Grupo_12326" data-name="Grupo 12326" clip-path="url(#clip-path-11)">
                  <path id="Trazado_32440" data-name="Trazado 32440" d="M474.907,419.959a3.837,3.837,0,0,1-1.79-3.245H449.043l-15.259,30.864v26.578A3.843,3.843,0,0,1,437.627,478h8.585Z" transform="translate(-433.784 -416.714)" fill="#1f282e"/>
                </g>
              </g>
            </g>
            <g id="Grupo_12331" data-name="Grupo 12331" transform="translate(97.399 85.637)" style="mix-blend-mode: screen;isolation: isolate">
              <g id="Grupo_12330" data-name="Grupo 12330">
                <g id="Grupo_12329" data-name="Grupo 12329" clip-path="url(#clip-path-14)">
                  <path id="Trazado_32441" data-name="Trazado 32441" d="M538.223,515.215l13.788-27.889V462.389l-26.117,52.826Z" transform="translate(-525.894 -462.389)" fill="#1f282e"/>
                </g>
              </g>
            </g>
            <path id="Trazado_32442" data-name="Trazado 32442" d="M450.229,752.383H397.492a2.383,2.383,0,0,1,0-4.765h52.737a2.383,2.383,0,0,1,0,4.765" transform="translate(-321.933 -609.154)" fill="#fdfaff"/>
            <path id="Trazado_32443" data-name="Trazado 32443" d="M1144.127,752.383h-52.737a2.383,2.383,0,0,1,0-4.765h52.737a2.383,2.383,0,0,1,0,4.765" transform="translate(-887.317 -609.154)" fill="#fdfaff"/>
            <g id="Grupo_12334" data-name="Grupo 12334" transform="translate(157.777 95.825)" style="mix-blend-mode: multiply;isolation: isolate">
              <g id="Grupo_12333" data-name="Grupo 12333">
                <g id="Grupo_12332" data-name="Grupo 12332" clip-path="url(#clip-path-15)">
                  <path id="Trazado_32444" data-name="Trazado 32444" d="M852.177,529.488l-.281-.2,8.329-11.9L871.7,526.05l-.206.274-11.229-8.687Z" transform="translate(-851.896 -517.393)" fill="#d9d0bb"/>
                </g>
              </g>
            </g>
            <path id="Trazado_32445" data-name="Trazado 32445" d="M895.422,516.574a.486.486,0,1,1-.486-.486.486.486,0,0,1,.486.486" transform="translate(-728.792 -420.505)" fill="#d698a1"/>
            <rect id="Rectángulo_3401" data-name="Rectángulo 3401" width="23.676" height="7.663" transform="matrix(0.986, -0.165, 0.165, 0.986, 155.875, 107.533)" fill="#fdfaff"/>
            <path id="Trazado_32446" data-name="Trazado 32446" d="M747.751,510.211h55.394V378.732H747.751Zm3.491-127.989h48.412v124.5H751.242Z" transform="translate(-609.263 -308.588)" fill="#fdfaff"/>
            <path id="Trazado_32447" data-name="Trazado 32447" d="M1007.115,750.586h-.242a1.738,1.738,0,0,1-1.738-1.739v-5.894a1.739,1.739,0,0,1,1.738-1.739h.242a1.739,1.739,0,0,1,1.738,1.739v5.894a1.738,1.738,0,0,1-1.738,1.739" transform="translate(-818.977 -603.937)" fill="#f0c0c7"/>
            <g id="Grupo_12337" data-name="Grupo 12337" transform="translate(186.34 137.869)" style="mix-blend-mode: multiply;isolation: isolate">
              <g id="Grupo_12336" data-name="Grupo 12336">
                <g id="Grupo_12335" data-name="Grupo 12335" clip-path="url(#clip-path-16)">
                  <path id="Trazado_32448" data-name="Trazado 32448" d="M1009.227,744.405a1.449,1.449,0,0,1,.182.7v6.121a1.754,1.754,0,0,1-1.859,1.625,1.971,1.971,0,0,1-1.434-.591,1.893,1.893,0,0,0,1.678.928,1.754,1.754,0,0,0,1.859-1.625v-6.121a1.5,1.5,0,0,0-.425-1.034" transform="translate(-1006.116 -744.405)" fill="#d9d0bb"/>
                </g>
              </g>
            </g>
            <path id="Trazado_32449" data-name="Trazado 32449" d="M118.27,1088.286h-19.7a4.791,4.791,0,0,1-4.791-4.791v-18.313h29.281v18.313a4.791,4.791,0,0,1-4.791,4.791" transform="translate(-76.411 -867.903)" fill="#a3727a"/>
            <path id="Trazado_32450" data-name="Trazado 32450" d="M114.541,1019.79H84.688a1.716,1.716,0,0,0-1.716,1.716v4.975a1.716,1.716,0,0,0,1.716,1.716h29.853a1.716,1.716,0,0,0,1.716-1.716v-4.975a1.716,1.716,0,0,0-1.716-1.716" transform="translate(-67.605 -830.918)" fill="#a3727a"/>
            <g id="Grupo_12340" data-name="Grupo 12340" transform="translate(17.369 197.278)" style="mix-blend-mode: multiply;isolation: isolate">
              <g id="Grupo_12339" data-name="Grupo 12339">
                <g id="Grupo_12338" data-name="Grupo 12338" clip-path="url(#clip-path-17)">
                  <rect id="Rectángulo_3403" data-name="Rectángulo 3403" width="29.281" height="1.33" transform="translate(0 0)" fill="#edcccd"/>
                </g>
              </g>
            </g>
            <path id="Trazado_32451" data-name="Trazado 32451" d="M168.164,810.8h-2.745l.93-47.5,1.128,1.066Z" transform="translate(-134.782 -621.931)" fill="#805947"/>
            <path id="Trazado_32452" data-name="Trazado 32452" d="M172.156,843.456c10.79.247,15.759-12.1,16.3-23.6a.493.493,0,0,1,.985.007c0,.209-.009.354-.009.354-1.087,15.984-7.749,23.843-16.928,24.872-.858-.515-.343-1.63-.343-1.63" transform="translate(-140.147 -667.623)" fill="#805947"/>
            <path id="Trazado_32453" data-name="Trazado 32453" d="M116.9,805.186c-9.837-.743-13.225-8.678-12.653-18.286,1.086-.172.686.4.686.4-.214,9.836,3.789,16.228,11.852,16.628.515.4.114,1.258.114,1.258" transform="translate(-84.886 -641.135)" fill="#805947"/>
            <path id="Trazado_32454" data-name="Trazado 32454" d="M47.112,453.229c-7.778-3.067-10.918,5.418-6.9,9.711-9.589,3.475-5.261,8.075-1.487,10.426-10.866,2.351-4.689,8.484-2.86,9.506-6.634,3.271-.915,8.075,2.631,9.711-8.921,4.4-4.551,7.564,2.7,6.542-4.072,4.907-.511,9.577,6.344,4.584-1.381,5.842,2.787,5.845,4.91,3.389-1.83,9.609,7.863,10.67,9.936,4.773,2.417,6.369,6.649,2.894,6.649,1.667,4.346,5.418,6.062-2.249,6.177-3.067,9.265,2.658,8.006-4.089,6.291-5.929,7.663-2.146,6.863-6.951,3.431-8.689,9.036-4.5,4-7.36-.229-7.36,7.778-4.8,4.461-7.36,1.144-8.178,9.608-4.5,2.745-9-1.144-10.018,6.748-6.44,0-9.609-4.461-8.791,3.546-7.053-.114-11.244-6.216-9.471,4.843-8.111-3.947-7.974-6.692-6.441-2.173-13.186-13.022-5.247-13.365.784-7.125-4.4-10.98,2.044-6.863,6.849" transform="translate(-26.449 -357.237)" fill="#4e8c3f"/>
            <path id="Trazado_32455" data-name="Trazado 32455" d="M105.161,529.362c5.033-1.6,4.06,4.4,1.2,4.289,1.487,3.832-3.031,5.261-3.489,2.288-3.6.515-3.66-2.459-1.83-3.031-2.688-1.716.086-4.289,1.344-3.031.129-2.874,3.117-3.031,2.774-.515" transform="translate(-81.364 -429.877)" fill="#fdfaff"/>
            <path id="Trazado_32456" data-name="Trazado 32456" d="M196.521,622.947c-5.662-2.831-4.8,1.887-3.346,2.488-2.059,3.689,2.23,4.375,3.86,3.088,2.659,3.946,6.348-1.586,4.2-2.938,3.86-1.952-.172-3.324-1.544-2.724-.172-4.2-3.174-3.346-3.174.086" transform="translate(-156.516 -505.197)" fill="#fdfaff"/>
            <path id="Trazado_32457" data-name="Trazado 32457" d="M170.122,462.983c1.8,4.546,5.319-1.03,3.346-2.574,3.689-2.059,1.008-4.375-1.083-3.517,1.208-4.249-3.958-3.112-3.668-.183-4.943-1.361-3.484,4.13-1.082,3.7-3.346,3.174,1.458,6.091,2.488,2.574" transform="translate(-134.783 -369.996)" fill="#fdfaff"/>
            <path id="Trazado_32458" data-name="Trazado 32458" d="M245.079,721.766c2.248-5.29,5.462-.351,2.974,1.258,3.946,1.609,1.973,4.375-.515,3.431.84,3.946-3.46,3.642-3.717.629-3.174,1.962-4.632-2.23-1.144-3.546-2.631-2.573.515-4.689,2.4-1.773" transform="translate(-196.087 -586.149)" fill="#fdfaff"/>
            <path id="Trazado_32459" data-name="Trazado 32459" d="M142.3,764.675c1.215-3.088,5.2-.172,3.336.944,3.883,2.144-.212,3.86-1.424,3.174-.011,3.774-3.957,2.709-3.1.154-5.233.1-3-3.5-1.544-3.07.172-3.346,1.946-2.917,2.731-1.2" transform="translate(-112.296 -621.931)" fill="#fdfaff"/>
            <path id="Trazado_32460" data-name="Trazado 32460" d="M84.019,663.6c-3.088,1.887-5.29-2.874-1.087-2.445-2.516-3.246,1.659-3.834,2.484-1.2.661-4.119,3.521-1.091,2.034.968,4.161-.415,2.574,4.175-.229,2.8.486,4.032-3.932,3.6-3.2-.129" transform="translate(-65.68 -536.058)" fill="#fdfaff"/>
            <path id="Trazado_32461" data-name="Trazado 32461" d="M257.768,568.265c-4.461-2.316,1.716-4.632,2.145-1.544,1.8-2.573,3.174-1.115,2.831.686,3.517.772,1.373,4.106-.343,3.339.429,4.381-3,2.58-2.917.521-4.546,3.088-6.348-2.745-1.716-3" transform="translate(-207.822 -460.548)" fill="#fdfaff"/>
            <path id="Trazado_32462" data-name="Trazado 32462" d="M1562.9,1088.286h-19.7a4.791,4.791,0,0,1-4.791-4.791v-18.313h29.281v18.313a4.791,4.791,0,0,1-4.791,4.791" transform="translate(-1253.486 -867.903)" fill="#a3727a"/>
            <path id="Trazado_32463" data-name="Trazado 32463" d="M1559.17,1019.79h-29.853a1.716,1.716,0,0,0-1.716,1.716v4.975a1.716,1.716,0,0,0,1.716,1.716h29.853a1.716,1.716,0,0,0,1.716-1.716v-4.975a1.716,1.716,0,0,0-1.716-1.716" transform="translate(-1244.679 -830.918)" fill="#a3727a"/>
            <g id="Grupo_12343" data-name="Grupo 12343" transform="translate(284.924 197.278)" style="mix-blend-mode: multiply;isolation: isolate">
              <g id="Grupo_12342" data-name="Grupo 12342">
                <g id="Grupo_12341" data-name="Grupo 12341" clip-path="url(#clip-path-17)">
                  <rect id="Rectángulo_3405" data-name="Rectángulo 3405" width="29.281" height="1.33" transform="translate(0 0)" fill="#edcccd"/>
                </g>
              </g>
            </g>
            <path id="Trazado_32464" data-name="Trazado 32464" d="M1612.792,810.8h-2.745l.93-47.5,1.128,1.066Z" transform="translate(-1311.856 -621.931)" fill="#805947"/>
            <path id="Trazado_32465" data-name="Trazado 32465" d="M1616.784,846.8c10.79.247,14.994-11.338,15.53-22.842a.493.493,0,0,1,.985.007c0,.209-.009.354-.009.354-1.087,15.985-6.984,23.082-16.162,24.111-.858-.515-.343-1.63-.343-1.63" transform="translate(-1317.221 -670.972)" fill="#805947"/>
            <path id="Trazado_32466" data-name="Trazado 32466" d="M1561.524,805.186c-9.837-.743-13.225-8.678-12.653-18.286,1.087-.172.686.4.686.4-.214,9.836,3.789,16.228,11.853,16.628.515.4.115,1.258.115,1.258" transform="translate(-1261.96 -641.135)" fill="#805947"/>
            <path id="Trazado_32467" data-name="Trazado 32467" d="M1491.739,453.229c-7.778-3.067-10.918,5.418-6.9,9.711-9.59,3.475-5.261,8.075-1.487,10.426-10.866,2.351-4.69,8.484-2.86,9.506-6.634,3.271-.915,8.075,2.631,9.711-8.922,4.4-4.551,7.564,2.7,6.542-4.073,4.907-.511,9.577,6.344,4.584-1.38,5.842,2.787,5.845,4.911,3.389-1.83,9.609,7.863,10.67,9.936,4.773,2.417,6.369,6.649,2.894,6.649,1.667,4.346,5.418,6.062-2.249,6.177-3.067,9.264,2.658,8.006-4.089,6.291-5.929,7.663-2.146,6.863-6.951,3.431-8.689,9.036-4.5,4-7.36-.229-7.36,7.778-4.8,4.46-7.36,1.144-8.178,9.608-4.5,2.745-9-1.144-10.018,6.748-6.44,0-9.609-4.461-8.791,3.546-7.053-.114-11.244-6.215-9.471,4.843-8.111-3.947-7.974-6.693-6.441-2.173-13.186-13.022-5.247-13.365.784-7.125-4.4-10.98,2.044-6.863,6.849" transform="translate(-1203.522 -357.237)" fill="#4e8c3f"/>
            <path id="Trazado_32468" data-name="Trazado 32468" d="M1549.789,529.362c5.033-1.6,4.06,4.4,1.2,4.289,1.487,3.832-3.031,5.261-3.489,2.288-3.6.515-3.66-2.459-1.83-3.031-2.688-1.716.086-4.289,1.344-3.031.129-2.874,3.117-3.031,2.774-.515" transform="translate(-1258.438 -429.877)" fill="#fdfaff"/>
            <path id="Trazado_32469" data-name="Trazado 32469" d="M1641.149,622.947c-5.662-2.831-4.8,1.887-3.345,2.488-2.059,3.689,2.23,4.375,3.86,3.088,2.66,3.946,6.348-1.586,4.2-2.938,3.86-1.952-.172-3.324-1.544-2.724-.172-4.2-3.174-3.346-3.174.086" transform="translate(-1333.589 -505.197)" fill="#fdfaff"/>
            <path id="Trazado_32470" data-name="Trazado 32470" d="M1614.75,462.983c1.8,4.546,5.319-1.03,3.346-2.574,3.689-2.059,1.008-4.375-1.083-3.517,1.208-4.249-3.958-3.112-3.668-.183-4.943-1.361-3.484,4.13-1.082,3.7-3.346,3.174,1.458,6.091,2.488,2.574" transform="translate(-1311.856 -369.996)" fill="#fdfaff"/>
            <path id="Trazado_32471" data-name="Trazado 32471" d="M1689.707,721.766c2.248-5.29,5.462-.351,2.974,1.258,3.946,1.609,1.973,4.375-.515,3.431.84,3.946-3.46,3.642-3.717.629-3.174,1.962-4.633-2.23-1.144-3.546-2.631-2.573.515-4.689,2.4-1.773" transform="translate(-1373.16 -586.149)" fill="#fdfaff"/>
            <path id="Trazado_32472" data-name="Trazado 32472" d="M1586.926,764.675c1.215-3.088,5.2-.172,3.336.944,3.884,2.144-.211,3.86-1.424,3.174-.011,3.774-3.957,2.709-3.1.154-5.233.1-3-3.5-1.544-3.07.172-3.346,1.946-2.917,2.731-1.2" transform="translate(-1289.37 -621.931)" fill="#fdfaff"/>
            <path id="Trazado_32473" data-name="Trazado 32473" d="M1528.646,663.6c-3.088,1.887-5.29-2.874-1.087-2.445-2.516-3.246,1.659-3.834,2.484-1.2.661-4.119,3.521-1.091,2.034.968,4.161-.415,2.573,4.175-.229,2.8.486,4.032-3.932,3.6-3.2-.129" transform="translate(-1242.753 -536.058)" fill="#fdfaff"/>
            <path id="Trazado_32474" data-name="Trazado 32474" d="M1702.4,568.265c-4.461-2.316,1.716-4.632,2.145-1.544,1.8-2.573,3.174-1.115,2.831.686,3.517.772,1.372,4.106-.343,3.339.429,4.381-3,2.58-2.917.521-4.547,3.088-6.348-2.745-1.716-3" transform="translate(-1384.896 -460.548)" fill="#fdfaff"/>
          </g>
        </g>
      </g>
    </g>
  </g>
</svg>
