<svg xmlns="http://www.w3.org/2000/svg" xmlns:xlink="http://www.w3.org/1999/xlink" width="263.436" height="252.578" viewBox="0 0 263.436 252.578">
  <defs>
    <clipPath id="clip-path">
      <rect id="Rectángulo_3437" data-name="Rectángulo 3437" width="263.435" height="252.578" fill="none"/>
    </clipPath>
  </defs>
  <g id="Grupo_18889" data-name="Grupo 18889" transform="translate(-1145.709 -6921)">
    <g id="Grupo_12378" data-name="Grupo 12378" transform="translate(1145.709 6920.997)">
      <g id="Grupo_12377" data-name="Grupo 12377" transform="translate(0 0.003)" clip-path="url(#clip-path)">
        <path id="Trazado_32728" data-name="Trazado 32728" d="M182.008,270.216a92.152,92.152,0,1,1,82.176,101.149,92.152,92.152,0,0,1-82.176-101.149" transform="translate(-149.08 -154.034)" fill="#fef7ff"/>
        <path id="Trazado_32729" data-name="Trazado 32729" d="M590.574,24.709a1.766,1.766,0,0,1-.992-.3c-3.334-2.253-6.818-4.362-10.354-6.271a1.774,1.774,0,1,1,1.686-3.122c3.639,1.964,7.223,4.136,10.654,6.453a1.774,1.774,0,0,1-.995,3.244m-21.586-11.65a1.771,1.771,0,0,1-.683-.137c-3.711-1.549-7.543-2.928-11.387-4.1a1.774,1.774,0,1,1,1.033-3.394c3.957,1.2,7.9,2.623,11.721,4.218a1.774,1.774,0,0,1-.684,3.412m-84.2-4.04a1.774,1.774,0,0,1-.522-3.47c3.954-1.218,8.017-2.25,12.076-3.068a1.774,1.774,0,0,1,.7,3.478c-3.944.795-7.891,1.8-11.732,2.981a1.778,1.778,0,0,1-.523.079m60.736-3.1a1.784,1.784,0,0,1-.347-.034c-3.937-.78-7.965-1.372-11.972-1.76a1.774,1.774,0,1,1,.341-3.532c4.124.4,8.269,1.008,12.321,1.811a1.774,1.774,0,0,1-.343,3.515M508.839,4.169A1.774,1.774,0,0,1,508.665.63C512.771.22,516.957.009,521.106,0h0a1.774,1.774,0,0,1,0,3.548c-4.035.006-8.1.212-12.094.61-.06.006-.12.009-.178.009" transform="translate(-396.715 -0.002)" fill="#1d6487"/>
        <path id="Trazado_32730" data-name="Trazado 32730" d="M833.924,858.931a1.774,1.774,0,0,1-.367-3.51c3.936-.836,7.874-1.88,11.7-3.1a1.774,1.774,0,0,1,1.08,3.38c-3.943,1.26-8,2.335-12.047,3.2a1.783,1.783,0,0,1-.37.039m23.379-7.468a1.774,1.774,0,0,1-.706-3.4c3.686-1.6,7.338-3.4,10.854-5.364a1.774,1.774,0,1,1,1.728,3.1c-3.619,2.018-7.377,3.875-11.171,5.52a1.769,1.769,0,0,1-.7.147m21.431-11.949a1.774,1.774,0,0,1-1.015-3.23c3.3-2.3,6.525-4.784,9.584-7.4a1.774,1.774,0,1,1,2.3,2.7c-3.148,2.687-6.466,5.248-9.861,7.61a1.766,1.766,0,0,1-1.012.318m18.657-15.927a1.774,1.774,0,0,1-1.279-3c2.787-2.9,5.461-5.971,7.948-9.129a1.774,1.774,0,0,1,2.788,2.195c-2.559,3.25-5.31,6.41-8.178,9.393a1.769,1.769,0,0,1-1.279.545m15.171-19.27a1.775,1.775,0,0,1-1.494-2.729c2.164-3.39,4.182-6.926,6-10.509a1.774,1.774,0,0,1,3.165,1.6c-1.868,3.687-3.944,7.325-6.171,10.814a1.773,1.773,0,0,1-1.5.82m11.08-21.872a1.775,1.775,0,0,1-1.654-2.415c1.451-3.75,2.73-7.616,3.8-11.491a1.774,1.774,0,0,1,3.42.944c-1.1,3.988-2.417,7.967-3.911,11.827a1.775,1.775,0,0,1-1.655,1.134m6.53-23.644a1.776,1.776,0,0,1-1.751-2.074c.677-3.955,1.165-8,1.449-12.016a1.774,1.774,0,1,1,3.539.25c-.292,4.134-.794,8.295-1.491,12.364a1.774,1.774,0,0,1-1.746,1.475" transform="translate(-683.47 -610.299)" fill="#1d6487"/>
        <path id="Trazado_32731" data-name="Trazado 32731" d="M40.7,863.585a1.767,1.767,0,0,1-1.2-.469c-3.044-2.8-5.984-5.789-8.738-8.878a1.774,1.774,0,1,1,2.648-2.361c2.676,3,5.534,5.9,8.492,8.629a1.774,1.774,0,0,1-1.2,3.079M24.375,845.273a1.771,1.771,0,0,1-1.435-.73c-2.438-3.348-4.735-6.854-6.826-10.421a1.774,1.774,0,0,1,3.061-1.795c2.033,3.466,4.265,6.873,6.634,10.127a1.774,1.774,0,0,1-1.433,2.818m-12.41-21.163a1.774,1.774,0,0,1-1.613-1.033c-1.73-3.762-3.288-7.653-4.633-11.566a1.774,1.774,0,0,1,3.355-1.153c1.307,3.8,2.821,7.582,4.5,11.237a1.775,1.775,0,0,1-1.611,2.516m-7.977-23.2a1.775,1.775,0,0,1-1.725-1.368c-.947-4.024-1.7-8.147-2.247-12.254a1.774,1.774,0,0,1,3.518-.466c.528,3.991,1.262,8,2.183,11.907a1.775,1.775,0,0,1-1.728,2.181" transform="translate(0 -644.972)" fill="#1d6487"/>
        <path id="Trazado_32732" data-name="Trazado 32732" d="M151.313,129.714a3.515,3.515,0,0,0-4.307-4.386l-35.174,9.027-7.708,2.182c-10.211,2.89-17.259,13.131-17.259,23.743l0,19.863h24.973c0-18.585,0-25.055,0-31.214a8.507,8.507,0,0,1,6.193-8.186l31.107-8.793a3.1,3.1,0,0,0,2.181-2.237" transform="translate(-71.341 -102.828)" fill="#fff"/>
        <path id="Trazado_32733" data-name="Trazado 32733" d="M104.775,174.63H79.8a1.536,1.536,0,0,1-1.536-1.536l0-19.864c0-11.6,7.729-22.207,18.377-25.221l7.708-2.182.037-.01,35.158-9.023a5.034,5.034,0,0,1,4.819,1.215,5.184,5.184,0,0,1,1.38,5.012,4.63,4.63,0,0,1-3.257,3.357l-31.107,8.793a7,7,0,0,0-5.075,6.708V149.6c0,5.03,0,11.908,0,23.5a1.536,1.536,0,0,1-1.536,1.536m-23.437-3.072h21.9c0-10.67,0-17.159,0-21.962v-7.716a10.082,10.082,0,0,1,7.312-9.664l31.107-8.793a1.556,1.556,0,0,0,1.1-1.116h0a2.071,2.071,0,0,0-.52-2.081,1.925,1.925,0,0,0-1.874-.47l-.036.01-35.156,9.023-7.689,2.177a21.783,21.783,0,0,0-11.628,8.392,24.077,24.077,0,0,0-4.514,13.874Z" transform="translate(-64.282 -95.778)" fill="#1d6487"/>
        <path id="Trazado_32734" data-name="Trazado 32734" d="M203.91,382.8c0,1.621-1.046,3.085-2.484,3.085H173.619c-4.3,0-7.644.175-9.978,1.351l-51.789,28.653v12.34H86.885v-43.9h24.967v8.8c28.618-10.4,17.777-6.457,47.031-17.106a36.715,36.715,0,0,1,12.592-2.222h22.248c6.3,0,10.187,6.529,10.187,9" transform="translate(-71.361 -307.008)" fill="#fff"/>
        <path id="Trazado_32735" data-name="Trazado 32735" d="M104.791,422.7H79.825a1.536,1.536,0,0,1-1.536-1.536v-43.9a1.536,1.536,0,0,1,1.536-1.536h24.967a1.536,1.536,0,0,1,1.536,1.536v6.609l15.728-5.717c7.979-2.9,9.207-3.347,29.242-10.64a38.142,38.142,0,0,1,13.118-2.315h22.248c7.294,0,11.723,7.319,11.723,10.538,0,2.548-1.8,4.621-4.02,4.621H166.559c-4.26,0-7.3.2-9.262,1.174l-50.969,28.2v11.434a1.536,1.536,0,0,1-1.536,1.536m-23.431-3.072h21.895v-10.8a1.536,1.536,0,0,1,.793-1.344l51.789-28.653.053-.028c2.516-1.267,5.817-1.515,10.669-1.515h27.807c.5,0,.948-.738.948-1.549,0-1.6-3.15-7.466-8.651-7.466H164.415a35.081,35.081,0,0,0-12.065,2.129c-20.038,7.294-21.266,7.74-29.245,10.64l-17.788,6.466a1.536,1.536,0,0,1-2.061-1.444V378.8H81.361Z" transform="translate(-64.301 -299.948)" fill="#1d6487"/>
        <path id="Trazado_32736" data-name="Trazado 32736" d="M103.322,683.954H78.25a1.813,1.813,0,0,1-1.813-1.813v-1.889a1.813,1.813,0,0,1,1.813-1.813h25.073a1.813,1.813,0,0,1,1.813,1.813v1.889a1.813,1.813,0,0,1-1.813,1.813" transform="translate(-62.78 -557.222)" fill="#fff"/>
        <path id="Trazado_32737" data-name="Trazado 32737" d="M96.262,678.43H71.19a3.353,3.353,0,0,1-3.349-3.349v-1.889a3.353,3.353,0,0,1,3.349-3.349H96.262a3.352,3.352,0,0,1,3.349,3.349v1.889a3.353,3.353,0,0,1-3.349,3.349M71.19,672.916a.277.277,0,0,0-.277.277v1.889a.277.277,0,0,0,.277.277H96.262a.277.277,0,0,0,.277-.277v-1.889a.277.277,0,0,0-.277-.277Z" transform="translate(-55.72 -550.163)" fill="#1d6487"/>
        <path id="Trazado_32738" data-name="Trazado 32738" d="M200.581,286.943a5.664,5.664,0,1,1,0-11.329Z" transform="translate(-160.091 -226.37)" fill="#fff"/>
        <path id="Trazado_32739" data-name="Trazado 32739" d="M193.521,281.418a7.2,7.2,0,1,1,0-14.4,1.536,1.536,0,0,1,1.536,1.536v11.329a1.536,1.536,0,0,1-1.536,1.536m-1.536-11.032a4.129,4.129,0,0,0,0,7.664Z" transform="translate(-153.031 -219.31)" fill="#1d6487"/>
        <path id="Trazado_32740" data-name="Trazado 32740" d="M627.263,441.443v2.37c0,1.621-1.65,2.937-3.668,2.937h-10.58c-2.018,0-3.657-1.316-3.657-2.937v-2.37Z" transform="translate(-500.483 -362.57)" fill="#fff"/>
        <path id="Trazado_32741" data-name="Trazado 32741" d="M616.536,441.226h-10.58c-2.863,0-5.193-2.007-5.193-4.473v-2.37a1.536,1.536,0,0,1,1.536-1.536H620.2a1.536,1.536,0,0,1,1.536,1.536v2.37c0,2.466-2.335,4.473-5.2,4.473m-12.7-5.307v.834c0,.663.871,1.4,2.121,1.4h10.58c1.256,0,2.132-.738,2.132-1.4v-.834Z" transform="translate(-493.424 -355.51)" fill="#1d6487"/>
        <line id="Línea_17" data-name="Línea 17" y2="26.143" transform="translate(22.312 85.847)" fill="#fff"/>
        <path id="Trazado_32742" data-name="Trazado 32742" d="M117.82,501.1a1.536,1.536,0,0,1-1.536-1.536V473.417a1.536,1.536,0,0,1,3.072,0V499.56a1.536,1.536,0,0,1-1.536,1.536" transform="translate(-95.507 -387.57)" fill="#1d6487"/>
        <path id="Trazado_32743" data-name="Trazado 32743" d="M621.473,548.215a11.5,11.5,0,0,1-22.995,0c0-6.35,11.5-21.045,11.5-21.045s11.5,14.7,11.5,21.045" transform="translate(-491.547 -432.98)" fill="#c5fbfc"/>
        <path id="Trazado_32744" data-name="Trazado 32744" d="M602.916,554.188a13.048,13.048,0,0,1-13.033-13.033c0-2.933,2.016-7.554,5.993-13.735,2.879-4.476,5.711-8.1,5.831-8.257a1.536,1.536,0,0,1,2.419,0c1.21,1.547,11.824,15.305,11.824,21.991a13.048,13.048,0,0,1-13.033,13.033m0-31.542c-3.6,4.84-9.961,14.271-9.961,18.509a9.961,9.961,0,0,0,19.923,0c0-4.238-6.362-13.669-9.961-18.509" transform="translate(-484.488 -425.92)" fill="#1d6487"/>
        <path id="Trazado_32745" data-name="Trazado 32745" d="M1120.305,1021.08v3.8c0,2.522-1.41,4.567-3.148,4.567H1109.8c-1.739,0-3.148-2.045-3.148-4.567v-3.8" transform="translate(-908.926 -838.643)" fill="#fff"/>
        <path id="Trazado_32746" data-name="Trazado 32746" d="M1110.1,1023.921h-7.356c-2.627,0-4.684-2.68-4.684-6.1v-3.8a1.536,1.536,0,1,1,3.072,0v3.8c0,1.707.867,3.031,1.613,3.031h7.356c.745,0,1.612-1.324,1.612-3.031v-3.8a1.536,1.536,0,1,1,3.072,0v3.8c0,3.422-2.057,6.1-4.684,6.1" transform="translate(-901.866 -831.583)" fill="#1d6487"/>
        <path id="Trazado_32747" data-name="Trazado 32747" d="M967.65,401.317s5.229-2.415,6.863-14.642a46.948,46.948,0,0,1,6.032-17.789c.319-.538.629-1.054.926-1.539a88.019,88.019,0,0,1,5.593-7.89,42.225,42.225,0,0,0,8.673-27.076,41.455,41.455,0,1,0-73.884,27.191,63.453,63.453,0,0,1,4.128,5.9c.157.252.325.525.5.814a60.637,60.637,0,0,1,7.808,21.7c1.818,11.084,6.667,13.323,6.667,13.323" transform="translate(-749.749 -240.034)" fill="#fff"/>
        <path id="Trazado_32748" data-name="Trazado 32748" d="M961.233,395.65l-1.288-2.789-.026.012c.045-.023,4.536-2.432,6.011-13.463a48.281,48.281,0,0,1,6.233-18.369c.323-.544.636-1.065.936-1.556a89.9,89.9,0,0,1,5.688-8.029,40.668,40.668,0,0,0,8.353-26.09,39.918,39.918,0,0,0-79.816,1.275,40.189,40.189,0,0,0,8.67,24.913,64.777,64.777,0,0,1,4.228,6.047c.161.257.331.535.511.831a62.009,62.009,0,0,1,8.011,22.251c.859,5.235,2.412,8.282,3.564,9.917a7.408,7.408,0,0,0,2.257,2.273l-.026-.012-1.288,2.789c-.572-.264-5.643-2.914-7.539-14.469a58.953,58.953,0,0,0-7.606-21.155c-.172-.284-.336-.55-.49-.8a61.722,61.722,0,0,0-4.027-5.763,43.273,43.273,0,0,1-9.336-26.824,42.99,42.99,0,0,1,41.275-42.956,42.281,42.281,0,0,1,16.894,2.79,43.327,43.327,0,0,1,14.09,8.817,42.547,42.547,0,0,1,13.7,29.98,43.748,43.748,0,0,1-8.993,28.063,87.222,87.222,0,0,0-5.5,7.751c-.293.48-.6.99-.916,1.522a45.227,45.227,0,0,0-5.83,17.209c-.711,5.32-2.162,9.556-4.314,12.591a9.711,9.711,0,0,1-3.428,3.242" transform="translate(-742.689 -232.972)" fill="#1d6487"/>
        <path id="Trazado_32749" data-name="Trazado 32749" d="M1089.152,923.333h-22.87a3.762,3.762,0,0,1-3.762-3.762V902.685h29.423v17.857a2.791,2.791,0,0,1-2.791,2.791" transform="translate(-872.678 -741.402)" fill="#c5fbfc"/>
        <path id="Trazado_32750" data-name="Trazado 32750" d="M1082.093,917.808h-22.87a5.3,5.3,0,0,1-5.3-5.3V895.624a1.536,1.536,0,0,1,1.536-1.536h29.423a1.536,1.536,0,0,1,1.536,1.536v17.857a4.332,4.332,0,0,1-4.327,4.327M1057,897.16v15.351a2.228,2.228,0,0,0,2.226,2.226h22.87a1.257,1.257,0,0,0,1.255-1.255V897.16Z" transform="translate(-865.619 -734.341)" fill="#1d6487"/>
        <line id="Línea_18" data-name="Línea 18" x2="29.423" transform="translate(189.842 171.566)" fill="#fff"/>
        <path id="Trazado_32751" data-name="Trazado 32751" d="M1084.884,954.714h-29.423a1.536,1.536,0,0,1,0-3.072h29.423a1.536,1.536,0,1,1,0,3.072" transform="translate(-865.619 -781.612)" fill="#1d6487"/>
        <path id="Trazado_32752" data-name="Trazado 32752" d="M1075.462,735.949l7.01,10.837,1.921,18.954" transform="translate(-883.308 -604.457)" fill="#fff"/>
        <path id="Trazado_32753" data-name="Trazado 32753" d="M1077.329,760.216a1.536,1.536,0,0,1-1.526-1.381l-1.883-18.586-6.808-10.526a1.536,1.536,0,1,1,2.579-1.668l7.009,10.836a1.534,1.534,0,0,1,.239.679l1.921,18.954a1.536,1.536,0,0,1-1.373,1.683c-.052.005-.1.008-.157.008" transform="translate(-876.247 -597.397)" fill="#1d6487"/>
        <path id="Trazado_32754" data-name="Trazado 32754" d="M1174.382,735.949l-7.01,10.837-1.921,18.954" transform="translate(-957.219 -604.457)" fill="#fff"/>
        <path id="Trazado_32755" data-name="Trazado 32755" d="M1158.392,760.215c-.052,0-.1,0-.157-.008a1.536,1.536,0,0,1-1.373-1.683l1.921-18.954a1.534,1.534,0,0,1,.239-.68l7.01-10.836a1.536,1.536,0,0,1,2.579,1.668l-6.808,10.526-1.883,18.586a1.536,1.536,0,0,1-1.526,1.381" transform="translate(-950.158 -597.396)" fill="#1d6487"/>
        <line id="Línea_19" data-name="Línea 19" y1="5.556" x2="11.669" transform="translate(248.133 63.022)" fill="#fff"/>
        <path id="Trazado_32756" data-name="Trazado 32756" d="M1381.706,352.758a1.536,1.536,0,0,1-.661-2.923l11.669-5.556a1.536,1.536,0,1,1,1.321,2.773l-11.669,5.556a1.53,1.53,0,0,1-.659.15" transform="translate(-1133.572 -282.644)" fill="#1d6487"/>
        <line id="Línea_20" data-name="Línea 20" x2="7.793" transform="translate(254.106 91.575)" fill="#fff"/>
        <path id="Trazado_32757" data-name="Trazado 32757" d="M1422.933,507.015h-7.793a1.536,1.536,0,1,1,0-3.072h7.793a1.536,1.536,0,0,1,0,3.072" transform="translate(-1161.034 -413.903)" fill="#1d6487"/>
        <line id="Línea_21" data-name="Línea 21" y1="6.443" x2="4.384" transform="translate(232.105 45.021)" fill="#fff"/>
        <path id="Trazado_32758" data-name="Trazado 32758" d="M1292,252.9a1.536,1.536,0,0,1-1.268-2.4l4.384-6.443a1.536,1.536,0,1,1,2.539,1.728l-4.384,6.443a1.534,1.534,0,0,1-1.271.672" transform="translate(-1059.894 -199.896)" fill="#1d6487"/>
        <line id="Línea_22" data-name="Línea 22" x1="11.669" y1="5.556" transform="translate(149.304 63.022)" fill="#fff"/>
        <path id="Trazado_32759" data-name="Trazado 32759" d="M840.245,352.759a1.529,1.529,0,0,1-.659-.15l-11.669-5.556a1.536,1.536,0,1,1,1.321-2.773l11.669,5.556a1.536,1.536,0,0,1-.661,2.923" transform="translate(-679.272 -282.645)" fill="#1d6487"/>
        <line id="Línea_23" data-name="Línea 23" x1="7.794" transform="translate(147.207 91.575)" fill="#fff"/>
        <path id="Trazado_32760" data-name="Trazado 32760" d="M824.632,507.015h-7.794a1.536,1.536,0,1,1,0-3.072h7.794a1.536,1.536,0,0,1,0,3.072" transform="translate(-669.631 -413.903)" fill="#1d6487"/>
        <line id="Línea_24" data-name="Línea 24" x1="4.384" y1="6.443" transform="translate(172.617 45.021)" fill="#fff"/>
        <path id="Trazado_32761" data-name="Trazado 32761" d="M963.443,252.9a1.534,1.534,0,0,1-1.271-.672l-4.384-6.443a1.536,1.536,0,1,1,2.54-1.728l4.384,6.443a1.536,1.536,0,0,1-1.268,2.4" transform="translate(-786.44 -199.896)" fill="#1d6487"/>
        <line id="Línea_25" data-name="Línea 25" y1="6.819" transform="translate(205.208 37.934)" fill="#fff"/>
        <path id="Trazado_32762" data-name="Trazado 32762" d="M1141.46,213.607a1.536,1.536,0,0,1-1.536-1.536v-6.82a1.536,1.536,0,1,1,3.072,0v6.82a1.536,1.536,0,0,1-1.536,1.536" transform="translate(-936.252 -167.318)" fill="#1d6487"/>
        <path id="Trazado_32763" data-name="Trazado 32763" d="M1075.446,409.682l-.218-25.143-14.973,35.592,15.042-4.108.217,25.143,14.973-35.592Z" transform="translate(-870.818 -315.833)" fill="#c5fbfc"/>
        <path id="Trazado_32764" data-name="Trazado 32764" d="M1068.455,435.641a1.536,1.536,0,0,1-1.537-1.523l-.2-23.15-13.119,3.583a1.536,1.536,0,0,1-1.82-2.077l14.973-35.592a1.536,1.536,0,0,1,2.952.582l.2,23.149,13.118-3.583a1.536,1.536,0,0,1,1.82,2.077L1069.87,434.7a1.536,1.536,0,0,1-1.415.94m-.218-28.215a1.536,1.536,0,0,1,1.536,1.523l.153,17.7,10.862-25.82-12,3.276a1.536,1.536,0,0,1-1.941-1.468l-.153-17.7-10.862,25.821,12-3.276a1.534,1.534,0,0,1,.4-.054" transform="translate(-863.758 -308.773)" fill="#1d6487"/>
        <path id="Trazado_32765" data-name="Trazado 32765" d="M396.2,858.825a53.585,53.585,0,1,0-53.585,53.585A53.585,53.585,0,0,0,396.2,858.825" transform="translate(-237.389 -661.367)" fill="#fff"/>
        <path id="Trazado_32766" data-name="Trazado 32766" d="M335.555,906.885a55.12,55.12,0,1,1,38.976-16.144,54.76,54.76,0,0,1-38.976,16.144m0-107.169a52.049,52.049,0,1,0,36.8,15.245,51.709,51.709,0,0,0-36.8-15.245" transform="translate(-230.329 -654.307)" fill="#1d6487"/>
        <path id="Trazado_32767" data-name="Trazado 32767" d="M479.447,973.855c8.442-2.541,14.366-8.645,15.575-17.485.886-6.481-3.342-12.994-3.342-12.994-6.21-7.6.235-20.933.235-20.933-14.352,4.279-14.842,12.181-14.842,12.181-15.183-7.917-7.207-32.579-7.207-32.579-19.558,8.039-11.965,29.9-11.965,29.9,4.262,9.337-2.843,12-2.843,12-5.777-.678-3.049-14.21-3.049-14.21-9.035,3.98-9.565,19.214-9.565,19.214-.775,10.956,7.172,21.567,18.7,25.023" transform="translate(-363.35 -740.876)" fill="#c5fbfc"/>
        <path id="Trazado_32768" data-name="Trazado 32768" d="M454.089,968.455a1.542,1.542,0,0,1-.442-.065,28.861,28.861,0,0,1-14.753-10.251,24.558,24.558,0,0,1-5.04-16.326c.038-.987.788-16.268,10.48-20.537a1.536,1.536,0,0,1,2.125,1.709c-.666,3.318-1.123,9.407.485,11.623a1.741,1.741,0,0,0,.867.677,5.478,5.478,0,0,0,2.453-2.718c.746-1.851.472-4.22-.815-7.04-.02-.044-.038-.089-.054-.134a33.53,33.53,0,0,1-1.431-12.57c.535-6.33,3.443-14.81,14.263-19.258a1.536,1.536,0,0,1,2.045,1.893,49.625,49.625,0,0,0-2.017,12.936c-.093,7.937,2.2,13.58,6.821,16.809,1.187-2.962,4.741-8.13,15.344-11.292a1.536,1.536,0,0,1,1.822,2.14c-.06.124-5.939,12.546-.428,19.293a1.515,1.515,0,0,1,.1.135c.185.286,4.527,7.072,3.575,14.038-1.244,9.1-7.314,15.937-16.654,18.748a1.536,1.536,0,1,1-.885-2.941,21.3,21.3,0,0,0,9.807-5.944,18.691,18.691,0,0,0,4.688-10.278c.753-5.508-2.668-11.239-3.071-11.891-4.769-5.933-2.789-14.628-1.184-19.286-3.154,1.246-6.555,3.125-8.752,5.879a8.278,8.278,0,0,0-1.888,3.865,1.5,1.5,0,0,1-.76,1.242,1.533,1.533,0,0,1-1.482.014c-6.756-3.523-10.257-10.66-10.123-20.64a51.7,51.7,0,0,1,1.289-10.457c-5.667,3.25-8.839,8.336-9.441,15.159a31.024,31.024,0,0,0,1.245,11.34c1.635,3.616,1.907,6.8.809,9.454a8.613,8.613,0,0,1-4.544,4.548,1.532,1.532,0,0,1-.718.087,4.765,4.765,0,0,1-3.367-2.006c-1.9-2.617-1.841-7.336-1.512-10.6-5.566,5.069-6.017,16.008-6.021,16.133,0,.018,0,.037,0,.055a21.489,21.489,0,0,0,4.434,14.3,25.767,25.767,0,0,0,13.176,9.148,1.536,1.536,0,0,1-.44,3.008" transform="translate(-356.292 -733.816)" fill="#1d6487"/>
        <path id="Trazado_32769" data-name="Trazado 32769" d="M523.766,1159.486c-4.728-2.364-6.064-5.911-5.8-9.681,0,0,.167-7.168,4.643-9.14,0,0-.124-10.126,9.566-14.109,0,0-3.952,12.219,3.571,16.141,0,0,.243-3.915,7.353-6.035-2.192,4.535-1,9.289-.116,10.372,0,0,2.094,3.227,1.655,6.438a7.793,7.793,0,0,1-3.6,5.93" transform="translate(-425.396 -925.274)" fill="#fff"/>
        <path id="Trazado_32770" data-name="Trazado 32770" d="M516.7,1153.963a1.529,1.529,0,0,1-.686-.162c-4.752-2.376-6.988-6.121-6.644-11.13.021-.647.343-7.325,4.687-10.012a18.9,18.9,0,0,1,1.208-5.171,16.406,16.406,0,0,1,9.264-9.411,1.536,1.536,0,0,1,2.045,1.893c-.032.1-2.879,9.185,1.372,13.271.955-1.627,3.051-3.738,7.652-5.11a1.536,1.536,0,0,1,1.822,2.14c-1.878,3.885-.872,8.013-.309,8.732a1.552,1.552,0,0,1,.1.134c.1.151,2.4,3.748,1.889,7.482a9.256,9.256,0,0,1-4.3,7.021,1.536,1.536,0,1,1-1.64-2.6,6.275,6.275,0,0,0,2.9-4.839,9.322,9.322,0,0,0-1.4-5.351c-1-1.341-1.877-4.83-1.113-8.612-2.916,1.543-3.291,3.275-3.329,3.512a1.461,1.461,0,0,1-.74,1.244,1.533,1.533,0,0,1-1.5,0c-3.624-1.89-5.5-5.667-5.432-10.924a25.063,25.063,0,0,1,.325-3.611c-5.792,4.1-5.784,11.043-5.783,11.122a1.536,1.536,0,0,1-.917,1.424c-2.921,1.286-3.681,6.047-3.727,7.773,0,.022,0,.048,0,.07-.267,3.771,1.307,6.376,4.952,8.2a1.536,1.536,0,0,1-.688,2.91" transform="translate(-418.334 -918.215)" fill="#1d6487"/>
      </g>
    </g>
  </g>
</svg>
