<svg xmlns="http://www.w3.org/2000/svg" width="420" height="407.628" viewBox="0 0 420 407.628">
  <g id="Grupo_54992" data-name="Grupo 54992" transform="translate(-285 -1965.297)">
    <g id="CF1_1.2" transform="translate(262.91 1924.629)">
      <g id="Layer_1" data-name="Layer 1" transform="translate(22.09 40.668)">
        <ellipse id="Elipse_4102" data-name="Elipse 4102" cx="210" cy="119.291" rx="210" ry="119.291" transform="translate(0 169.047)" fill="#f1eefd"/>
        <path id="Trazado_101770" data-name="Trazado 101770" d="M199.48,262.444l53.674-29.694,65.3,37.69-53.683,29.7Z" transform="translate(-33.577 -53.107)" fill="#e4ddfb"/>
        <ellipse id="Elipse_4103" data-name="Elipse 4103" cx="54.328" cy="30.863" rx="54.328" ry="30.863" transform="translate(280.059 238.629)" fill="#e4ddfb"/>
        <path id="Trazado_101771" data-name="Trazado 101771" d="M281.27,406.569,167.489,341.953l-1.2.692c-11.719-6.734-27.983-10.9-45.967-10.9-35.7,0-64.644,16.442-64.644,36.727s28.946,36.727,64.644,36.727c1.244,0,2.469,0,3.685-.065l76.3,43.7a18.228,18.228,0,0,0,18,.075l62.951-35.427a3.965,3.965,0,0,0,.009-6.911Z" transform="translate(-24.265 -59.517)" fill="#e4ddfb"/>
        <g id="Grupo_54158" data-name="Grupo 54158" transform="translate(139.863)">
          <g id="Grupo_54156" data-name="Grupo 54156">
            <path id="Trazado_101772" data-name="Trazado 101772" d="M301.2,127.5c0-33.977-18.985-64.392-44.144-78.916-12.635-7.295-23.718-8.782-31.611-4.143h0L204.23,56.595h0q-.589.309-1.15.673l.243-.15-.346.2h0C195.542,62.1,191.09,72.559,191.09,88.991c0,34.249,18.985,64.392,44.144,78.916,12.635,7.295,23.708,8.847,31.6,4.255l21.342-12.252.729-.412.374-.215h0C296.735,154.543,301.2,144.077,301.2,127.5Z" transform="translate(-172.896 -40.741)" fill="#be6b1c"/>
            <ellipse id="Elipse_4104" data-name="Elipse 4104" cx="36.858" cy="63.989" rx="36.858" ry="63.989" transform="translate(0 34.22) rotate(-27.66)" fill="#fd8f25"/>
            <path id="Trazado_101773" data-name="Trazado 101773" d="M248.014,123.857c0-18.359-5.219-26.851-10.437-29.862s-10.447-.552-10.447,17.77,5.219,26.851,10.447,29.872S248.014,142.207,248.014,123.857Z" transform="translate(-175.23 -44.051)" fill="#7f4813"/>
          </g>
          <g id="Grupo_54157" data-name="Grupo 54157" transform="translate(122.21 160.485)">
            <path id="Trazado_101774" data-name="Trazado 101774" d="M431.876,299.066c0-33.977-18.985-64.392-44.144-78.916-12.635-7.295-23.718-8.773-31.611-4.143h0L334.91,228.165h0c-.393.206-.776.44-1.15.673l.243-.15-.346.2h0c-7.435,4.788-11.887,15.244-11.887,31.677,0,34.258,18.985,64.4,44.144,78.916,12.635,7.295,23.708,8.847,31.6,4.255l21.342-12.242.729-.421.374-.215h0C427.415,326.132,431.876,315.676,431.876,299.066Z" transform="translate(-303.568 -212.336)" fill="#be6b1c"/>
            <ellipse id="Elipse_4105" data-name="Elipse 4105" cx="36.858" cy="63.989" rx="36.858" ry="63.989" transform="translate(0 34.22) rotate(-27.66)" fill="#fd8f25"/>
            <path id="Trazado_101775" data-name="Trazado 101775" d="M378.694,295.447c0-18.359-5.219-26.86-10.437-29.872s-10.447-.552-10.447,17.77,5.228,26.86,10.447,29.872S378.694,313.806,378.694,295.447Z" transform="translate(-305.902 -215.647)" fill="#7f4813"/>
          </g>
          <path id="Trazado_101776" data-name="Trazado 101776" d="M356.546,112.19l-21.819,12.495L221.3,251.008l40.1,23.157,21.81-12.495L396.649,135.347Z" transform="translate(-174.852 -45.3)" fill="#be6b1c"/>
          <path id="Trazado_101777" data-name="Trazado 101777" d="M377.616,149.445,264.18,275.768l21.81-12.495L399.426,136.95Z" transform="translate(-177.629 -46.903)" opacity="0.3"/>
          <path id="Trazado_101778" data-name="Trazado 101778" d="M334.727,125.55l40.113,23.157L261.4,275.03l-40.1-23.157Z" transform="translate(-174.852 -46.165)" fill="#fd8f25"/>
        </g>
        <g id="Grupo_54159" data-name="Grupo 54159" transform="translate(118.426 36.44)">
          <path id="Trazado_101779" data-name="Trazado 101779" d="M172.513,114.239l2.235,6.547a5.125,5.125,0,0,0,1.683,2.385l4.994,3.741c1.87,1.365,2.563,4.386,1.235,5.116l-3.61,1.983a1.786,1.786,0,0,0-.645,1.871l.851,6.229c.318,2.291-1.6,2.806-3.236.851l-4.47-5.284a2.871,2.871,0,0,0-2.076-1.206l-4.461.14c-1.646,0-3.563-2.665-3.245-4.592l.851-5.256a4.181,4.181,0,0,0-.645-2.647l-3.61-6.154c-1.328-2.263-.589-4.433,1.244-3.685l4.985,2.039a1.235,1.235,0,0,0,1.683-.44l2.235-3.928C169.334,110.48,171.7,111.845,172.513,114.239Z" transform="translate(-149.297 -81.685)" fill="#2cffe2"/>
          <path id="Trazado_101780" data-name="Trazado 101780" d="M418.843,163.429l2.235,6.547a5.172,5.172,0,0,0,1.683,2.385l4.994,3.741c1.87,1.365,2.563,4.4,1.235,5.116l-3.61,1.983a1.8,1.8,0,0,0-.645,1.917l.851,6.229c.318,2.291-1.6,2.806-3.236.851l-4.47-5.293a2.9,2.9,0,0,0-2.076-1.2l-4.461.131c-1.646,0-3.563-2.665-3.245-4.592l.851-5.247a4.208,4.208,0,0,0-.645-2.656l-3.61-6.145c-1.328-2.263-.589-4.442,1.244-3.741l4.985,2.048a1.244,1.244,0,0,0,1.683-.44l2.235-3.937C415.654,159.669,418.03,161.035,418.843,163.429Z" transform="translate(-165.248 -84.87)" fill="#2cffe2"/>
          <path id="Trazado_101781" data-name="Trazado 101781" d="M396.655,188.455l1.384,4.031a3.17,3.17,0,0,0,1.038,1.468l3.086,2.3c1.132.842,1.581,2.712.767,3.161l-2.235,1.225a1.122,1.122,0,0,0-.4,1.188l.533,3.853c.2,1.412-.991,1.721-2.011.524l-2.806-3.273a1.786,1.786,0,0,0-1.281-.739l-2.759.084c-1.019,0-2.207-1.646-2.011-2.806l.524-3.245a2.525,2.525,0,0,0-.393-1.637l-2.188-3.872c-.823-1.4-.365-2.75.767-2.282l3.086,1.263a.758.758,0,0,0,1.038-.271L394.176,187C394.681,186.126,396.15,186.977,396.655,188.455Z" transform="translate(-164.177 -86.561)" fill="#2cffe2"/>
          <path id="Trazado_101782" data-name="Trazado 101782" d="M157.885,81.416l1.384,4.022a3.152,3.152,0,0,0,1.038,1.478l3.086,2.3c1.132.842,1.59,2.712.767,3.161L161.925,93.6a1.1,1.1,0,0,0-.393,1.178l.542,3.9c.2,1.412-.991,1.721-2,.524l-2.806-3.273a1.786,1.786,0,0,0-1.291-.739l-2.759.075c-1.019,0-2.2-1.646-2.011-2.806l.533-3.245a2.619,2.619,0,0,0-.4-1.646l-2.207-3.853c-.814-1.394-.365-2.74.767-2.273l3.086,1.263a.767.767,0,0,0,1.047-.271L155.407,80C155.912,79.088,157.4,79.976,157.885,81.416Z" transform="translate(-148.716 -79.631)" fill="#2cffe2"/>
        </g>
        <g id="Grupo_54203" data-name="Grupo 54203" transform="translate(42.984 75.671)">
          <g id="Grupo_54166" data-name="Grupo 54166" transform="translate(0 87.026)">
            <g id="Grupo_54163" data-name="Grupo 54163" transform="translate(0 3.301)">
              <path id="Trazado_101783" data-name="Trazado 101783" d="M142.754,218.45s-1.263,54.8-10.2,69.4-46.117,45.2-46.117,45.2l-6.3-8.417s19.967-36.877,29.1-41.422l7.155-65.046Z" transform="translate(-68.832 -218.16)" fill="#0e1d2f"/>
              <g id="Grupo_54162" data-name="Grupo 54162" transform="translate(0 95.986)">
                <g id="Grupo_54160" data-name="Grupo 54160" transform="translate(0 21.135)">
                  <path id="Trazado_101784" data-name="Trazado 101784" d="M72.86,361.5l4.9-2.1-2.132-4.05Z" transform="translate(-68.361 -344.164)" fill="#472ea6"/>
                  <path id="Trazado_101785" data-name="Trazado 101785" d="M70.014,343.39h0a10.98,10.98,0,0,0-1.244,4.181l-.72,8.165,4.5,4.985,2.806-6.145Z" transform="translate(-68.05 -343.39)" fill="#472ea6"/>
                </g>
                <g id="Grupo_54161" data-name="Grupo 54161" transform="translate(0 21.135)">
                  <path id="Trazado_101786" data-name="Trazado 101786" d="M72.86,361.5l4.9-2.1-2.132-4.05Z" transform="translate(-68.361 -344.164)" opacity="0.5"/>
                  <path id="Trazado_101787" data-name="Trazado 101787" d="M70.014,343.39h0a10.98,10.98,0,0,0-1.244,4.181l-.72,8.165,4.5,4.985,2.806-6.145Z" transform="translate(-68.05 -343.39)" opacity="0.2"/>
                </g>
                <path id="Trazado_101788" data-name="Trazado 101788" d="M85.367,320.986s1.655,9.352,10.035,10.288c0,0,1.15,1.337-1.655,4.34s-7.987,9.287-7.987,9.287.533,9.773,4.34,13.468c1.87,1.87,3.835,3.788,5.322,5.293a2.609,2.609,0,0,1-.711,4.181h0a12.962,12.962,0,0,1-14.262-1.87l-1.524-1.337a8.5,8.5,0,0,1-2.806-5.462l-.655-6.014-5.134-7.482a3.516,3.516,0,0,1-.168-3.685C73.367,336.063,83.206,318.77,85.367,320.986Z" transform="translate(-68.158 -320.792)" fill="#472ea6"/>
              </g>
            </g>
            <g id="Grupo_54165" data-name="Grupo 54165" transform="translate(29.128)">
              <path id="Trazado_101789" data-name="Trazado 101789" d="M111.367,214.63s-17.031,17.676-10.8,39.065,19.958,50.765,19.958,50.765-2.086,6.369,3.741,19.911,11.223,28.6,11.223,28.6,5.611,3.18,10.811-2.376l-14.8-111.734s11.3-7.912,9.82-21.071Z" transform="translate(-99.195 -214.63)" fill="#12263f"/>
              <g id="Grupo_54164" data-name="Grupo 54164" transform="translate(32.633 127.282)">
                <path id="Trazado_101790" data-name="Trazado 101790" d="M139.14,377.64l2.011,8.941,5.116,2.778-.206-6.519Z" transform="translate(-134.415 -352.468)" fill="#472ea6"/>
                <path id="Trazado_101791" data-name="Trazado 101791" d="M139.14,377.64l2.011,8.941,5.116,2.778-.206-6.519Z" transform="translate(-134.415 -352.468)" opacity="0.2"/>
                <path id="Trazado_101792" data-name="Trazado 101792" d="M146.746,389.719l2.563-1.693L146.54,383.2Z" transform="translate(-134.894 -352.828)" fill="#472ea6"/>
                <path id="Trazado_101793" data-name="Trazado 101793" d="M146.746,389.719l2.563-1.693L146.54,383.2Z" transform="translate(-134.894 -352.828)" opacity="0.5"/>
                <path id="Trazado_101794" data-name="Trazado 101794" d="M135.034,354.48s7.2,3.283,12.607-2.039l-.243-1.683s1.87-.542,2.506,2.806,4.031,19.687,4.031,19.687,6.126,7.865,10.55,9.624,5.378,4.283,2.441,6.472l-.084.065a11.7,11.7,0,0,1-12.018,1.15l-3.46-1.665a6.762,6.762,0,0,1-3.142-3.133l-.412-.86a12.476,12.476,0,0,0-4.788-5.247L140.45,378.1a3.6,3.6,0,0,1-1.637-2.245l-4.676-19.565a1.637,1.637,0,0,1,.879-1.87Z" transform="translate(-134.088 -350.725)" fill="#472ea6"/>
              </g>
            </g>
          </g>
          <g id="Grupo_54199" data-name="Grupo 54199" transform="translate(54.044 45.978)">
            <g id="Grupo_54171" data-name="Grupo 54171" transform="translate(12.444 73.826)">
              <g id="Grupo_54167" data-name="Grupo 54167">
                <path id="Trazado_101795" data-name="Trazado 101795" d="M140.88,285.406a1.74,1.74,0,0,1-.87-3.245l55.7-32.247a1.741,1.741,0,0,1,1.749,3.012l-55.713,32.247a1.758,1.758,0,0,1-.87.234Z" transform="translate(-139.141 -249.678)" fill="#12263f"/>
                <path id="Trazado_101796" data-name="Trazado 101796" d="M143.719,337.907a1.73,1.73,0,0,1-.87-3.236l55.713-32.247a1.735,1.735,0,0,1,1.74,3l-55.713,32.247a1.758,1.758,0,0,1-.87.234Z" transform="translate(-139.324 -253.078)" fill="#12263f"/>
              </g>
              <g id="Grupo_54170" data-name="Grupo 54170" transform="translate(0.639 4.523)">
                <g id="Grupo_54168" data-name="Grupo 54168" transform="translate(0 8.711)">
                  <path id="Trazado_101797" data-name="Trazado 101797" d="M140.69,298.022a.87.87,0,0,1-.44-1.618l56.115-32.472a.87.87,0,0,1,.87,1.506L141.12,297.91A.87.87,0,0,1,140.69,298.022Z" transform="translate(-139.824 -263.828)" fill="#12263f"/>
                  <path id="Trazado_101798" data-name="Trazado 101798" d="M142.375,311.334a.87.87,0,0,1-.4-1.59l56.115-32.472a.879.879,0,0,1,1.188.318.86.86,0,0,1-.318,1.188L142.843,311.25A.842.842,0,0,1,142.375,311.334Z" transform="translate(-139.938 -264.691)" fill="#12263f"/>
                  <path id="Trazado_101799" data-name="Trazado 101799" d="M142.37,324.691a.87.87,0,0,1-.43-1.627l56.115-32.472a.879.879,0,0,1,1.188.318.86.86,0,0,1-.318,1.188L142.809,324.57A.842.842,0,0,1,142.37,324.691Z" transform="translate(-139.932 -265.553)" fill="#12263f"/>
                </g>
                <g id="Grupo_54169" data-name="Grupo 54169" transform="translate(6.607)">
                  <path id="Trazado_101800" data-name="Trazado 101800" d="M196.656,305.687a.86.86,0,0,1-.86-.823l-2.806-49.5a.87.87,0,0,1,1.73-.1l2.806,49.512a.87.87,0,0,1-.823.935Z" transform="translate(-149.874 -254.514)" fill="#12263f"/>
                  <path id="Trazado_101801" data-name="Trazado 101801" d="M188.975,310.161a.879.879,0,0,1-.87-.823L185.3,259.826a.871.871,0,1,1,1.74-.094l2.806,49.512a.86.86,0,0,1-.823.935Z" transform="translate(-149.376 -254.798)" fill="#12263f"/>
                  <path id="Trazado_101802" data-name="Trazado 101802" d="M181.3,314.631a.87.87,0,0,1-.87-.823l-2.806-49.5a.87.87,0,0,1,.823-.935.879.879,0,0,1,.935.814l2.806,49.512a.87.87,0,0,1-.814.935Z" transform="translate(-148.878 -255.087)" fill="#12263f"/>
                  <path id="Trazado_101803" data-name="Trazado 101803" d="M173.606,319.1a.87.87,0,0,1-.86-.814l-2.806-49.512a.87.87,0,1,1,1.73-.094l2.806,49.5a.86.86,0,0,1-.814.935Z" transform="translate(-148.381 -255.373)" fill="#12263f"/>
                  <path id="Trazado_101804" data-name="Trazado 101804" d="M165.926,323.587a.86.86,0,0,1-.86-.823l-2.806-49.5a.87.87,0,0,1,1.73-.1L166.8,322.67a.87.87,0,0,1-.814.935Z" transform="translate(-147.884 -255.673)" fill="#12263f"/>
                  <path id="Trazado_101805" data-name="Trazado 101805" d="M158.245,328.051a.87.87,0,0,1-.87-.814l-2.806-49.512a.879.879,0,0,1,.823-.935.87.87,0,0,1,.935.823l2.806,49.5a.87.87,0,0,1-.823.935Z" transform="translate(-147.386 -255.956)" fill="#12263f"/>
                  <path id="Trazado_101806" data-name="Trazado 101806" d="M150.565,332.531a.87.87,0,0,1-.87-.823L146.89,282.2a.871.871,0,1,1,1.74-.094l2.806,49.512a.879.879,0,0,1-.823.935Z" transform="translate(-146.889 -256.247)" fill="#12263f"/>
                </g>
              </g>
            </g>
            <g id="Grupo_54172" data-name="Grupo 54172" transform="translate(61.431)">
              <path id="Trazado_101807" data-name="Trazado 101807" d="M229.379,192.6,191.52,170.74v25.495l37.859,21.894,8.922-2.319V205.222Zm3.227,17.19a4.742,4.742,0,0,1-2.142-3.741c0-1.375.935-1.927,2.142-1.244a4.751,4.751,0,0,1,2.151,3.741c-.047,1.375-1.01,1.927-2.2,1.244Z" transform="translate(-191.52 -170.74)" fill="#472ea6"/>
              <path id="Trazado_101808" data-name="Trazado 101808" d="M229.379,192.6,191.52,170.74v25.495l37.859,21.894,8.922-2.319V205.222Zm3.227,17.19a4.742,4.742,0,0,1-2.142-3.741c0-1.375.935-1.927,2.142-1.244a4.751,4.751,0,0,1,2.151,3.741c-.047,1.375-1.01,1.927-2.2,1.244Z" transform="translate(-191.52 -170.74)" fill="#fd8f25"/>
              <path id="Trazado_101809" data-name="Trazado 101809" d="M235.768,256.206a.9.9,0,0,1-.477-1.674l6.865-4.209a15.338,15.338,0,0,0,7.276-12.991V224.539a9.221,9.221,0,0,0-4.386-7.809l-9.493-5.845a.911.911,0,0,1,.954-1.553L246,215.139a11.045,11.045,0,0,1,5.247,9.352v12.785a17.143,17.143,0,0,1-8.137,14.534l-6.865,4.209a.935.935,0,0,1-.477.187Z" transform="translate(-194.327 -173.231)" fill="#472ea6"/>
              <path id="Trazado_101810" data-name="Trazado 101810" d="M235.768,256.206a.9.9,0,0,1-.477-1.674l6.865-4.209a15.338,15.338,0,0,0,7.276-12.991V224.539a9.221,9.221,0,0,0-4.386-7.809l-9.493-5.845a.911.911,0,0,1,.954-1.553L246,215.139a11.045,11.045,0,0,1,5.247,9.352v12.785a17.143,17.143,0,0,1-8.137,14.534l-6.865,4.209a.935.935,0,0,1-.477.187Z" transform="translate(-194.327 -173.231)" opacity="0.9"/>
            </g>
            <g id="Grupo_54177" data-name="Grupo 54177" transform="translate(0 43.352)">
              <g id="Grupo_54173" data-name="Grupo 54173" transform="translate(76.582 136.224)">
                <path id="Trazado_101811" data-name="Trazado 101811" d="M221.758,380.187c0,4.012-2.806,5.611-6.294,3.629a13.888,13.888,0,0,1-6.294-10.9c0-4.012,2.806-5.612,6.294-3.629A13.916,13.916,0,0,1,221.758,380.187Z" transform="translate(-207.814 -363.118)" fill="#455a64"/>
                <path id="Trazado_101812" data-name="Trazado 101812" d="M217.9,378.161c0,1.375-.935,1.927-2.151,1.244a4.77,4.77,0,0,1-2.151-3.741c0-1.375.935-1.927,2.151-1.244a4.77,4.77,0,0,1,2.151,3.741Z" transform="translate(-208.101 -363.486)" fill="#0e1d2f"/>
                <path id="Trazado_101813" data-name="Trazado 101813" d="M224.868,378.416a13.907,13.907,0,0,0-6.257-10.9c-2.478-1.431-4.62-1.01-5.611.8a5.7,5.7,0,0,1,2.806.851,13.916,13.916,0,0,1,6.2,10.9c0,1.983-.692,3.376-1.805,4.05l2.731-1.581h0C224.12,381.942,224.868,380.474,224.868,378.416Z" transform="translate(-208.062 -363.003)" fill="#0e1d2f"/>
                <path id="Trazado_101814" data-name="Trazado 101814" d="M215.642,366.215c-4.377-2.525-7.922-.477-7.922,4.573l15.843,9.184A17.514,17.514,0,0,0,215.642,366.215Z" transform="translate(-207.72 -362.904)" fill="#472ea6"/>
                <path id="Trazado_101815" data-name="Trazado 101815" d="M218.731,363.835c-3.208-1.87-5.976-1.235-7.211,1.225a6.407,6.407,0,0,1,4.368,1,17.49,17.49,0,0,1,7.922,13.72l2.806-2.226C226.652,372.5,223.108,366.36,218.731,363.835Z" transform="translate(-207.966 -362.749)" fill="#472ea6"/>
                <path id="Trazado_101816" data-name="Trazado 101816" d="M218.731,363.835c-3.208-1.87-5.976-1.235-7.211,1.225a6.407,6.407,0,0,1,4.368,1,17.49,17.49,0,0,1,7.922,13.72l2.806-2.226C226.652,372.5,223.108,366.36,218.731,363.835Z" transform="translate(-207.966 -362.749)" opacity="0.5"/>
              </g>
              <g id="Grupo_54174" data-name="Grupo 54174" transform="translate(122.848 162.953)">
                <path id="Trazado_101817" data-name="Trazado 101817" d="M271.219,408.767c0,4.012-2.806,5.611-6.294,3.629a13.907,13.907,0,0,1-6.285-10.9c0-4.012,2.806-5.612,6.285-3.629A13.888,13.888,0,0,1,271.219,408.767Z" transform="translate(-257.284 -391.698)" fill="#455a64"/>
                <path id="Trazado_101818" data-name="Trazado 101818" d="M267.363,406.721c0,1.375-.935,1.927-2.151,1.244a4.76,4.76,0,0,1-2.142-3.741c0-1.375.935-1.927,2.142-1.244A4.77,4.77,0,0,1,267.363,406.721Z" transform="translate(-257.571 -392.065)" fill="#0e1d2f"/>
                <path id="Trazado_101819" data-name="Trazado 101819" d="M274.336,407a13.888,13.888,0,0,0-6.294-10.9c-2.478-1.431-4.611-1.01-5.611.8a5.668,5.668,0,0,1,2.806.851,13.888,13.888,0,0,1,6.294,10.9c0,1.983-.692,3.376-1.805,4.05l2.731-1.581h0C273.587,410.485,274.336,409.044,274.336,407Z" transform="translate(-257.529 -391.583)" fill="#0e1d2f"/>
                <path id="Trazado_101820" data-name="Trazado 101820" d="M265.112,394.8c-4.377-2.525-7.922-.477-7.922,4.573l15.834,9.147A17.505,17.505,0,0,0,265.112,394.8Z" transform="translate(-257.19 -391.484)" fill="#472ea6"/>
                <path id="Trazado_101821" data-name="Trazado 101821" d="M268.2,392.415c-3.217-1.87-5.976-1.235-7.22,1.225a6.435,6.435,0,0,1,4.377,1,17.505,17.505,0,0,1,7.912,13.72l2.806-2.226C276.112,401.085,272.568,394.94,268.2,392.415Z" transform="translate(-257.435 -391.329)" fill="#472ea6"/>
                <path id="Trazado_101822" data-name="Trazado 101822" d="M268.2,392.415c-3.217-1.87-5.976-1.235-7.22,1.225a6.435,6.435,0,0,1,4.377,1,17.505,17.505,0,0,1,7.912,13.72l2.806-2.226C276.112,401.085,272.568,394.94,268.2,392.415Z" transform="translate(-257.435 -391.329)" opacity="0.5"/>
              </g>
              <g id="Grupo_54175" data-name="Grupo 54175" transform="translate(67.295 195.154)">
                <path id="Trazado_101823" data-name="Trazado 101823" d="M211.828,443.187c0,4.012-2.806,5.611-6.294,3.629a13.888,13.888,0,0,1-6.294-10.9c0-4.012,2.806-5.612,6.294-3.629A13.916,13.916,0,0,1,211.828,443.187Z" transform="translate(-197.884 -426.127)" fill="#455a64"/>
                <path id="Trazado_101824" data-name="Trazado 101824" d="M207.972,441.171c0,1.375-.935,1.927-2.151,1.244a4.742,4.742,0,0,1-2.151-3.741c0-1.365.935-1.927,2.151-1.244a4.77,4.77,0,0,1,2.151,3.741Z" transform="translate(-198.171 -426.496)" fill="#0e1d2f"/>
                <path id="Trazado_101825" data-name="Trazado 101825" d="M214.934,441.426a13.907,13.907,0,0,0-6.322-10.9c-2.478-1.431-4.62-1.01-5.611.8a5.7,5.7,0,0,1,2.806.851,13.916,13.916,0,0,1,6.266,10.886c0,1.983-.692,3.376-1.805,4.05L213,445.541h0C214.223,444.943,214.934,443.493,214.934,441.426Z" transform="translate(-198.127 -426.013)" fill="#0e1d2f"/>
                <path id="Trazado_101826" data-name="Trazado 101826" d="M205.712,429.225c-4.377-2.525-7.922-.477-7.922,4.573l15.843,9.175C213.633,437.895,210.088,431.75,205.712,429.225Z" transform="translate(-197.79 -425.914)" fill="#472ea6"/>
                <path id="Trazado_101827" data-name="Trazado 101827" d="M208.8,426.845c-3.208-1.87-5.976-1.235-7.211,1.225a6.407,6.407,0,0,1,4.368,1,17.5,17.5,0,0,1,7.922,13.72l2.806-2.226A17.317,17.317,0,0,0,208.8,426.845Z" transform="translate(-198.036 -425.759)" fill="#472ea6"/>
                <path id="Trazado_101828" data-name="Trazado 101828" d="M208.8,426.845c-3.208-1.87-5.976-1.235-7.211,1.225a6.407,6.407,0,0,1,4.368,1,17.5,17.5,0,0,1,7.922,13.72l2.806-2.226A17.317,17.317,0,0,0,208.8,426.845Z" transform="translate(-198.036 -425.759)" opacity="0.5"/>
              </g>
              <path id="Trazado_101829" data-name="Trazado 101829" d="M268.521,395.844a1.74,1.74,0,0,1-.851-3.255,2.619,2.619,0,0,0,0-4.564l-58.593-32.874a12.579,12.579,0,0,1-6.434-10.288L196.3,231.035a9.352,9.352,0,0,0-4.676-7.6l-4.1-2.4a3.638,3.638,0,0,0-3.6,0l-3.432,1.927a1.74,1.74,0,0,1-1.7-3.03L182.226,218a7.127,7.127,0,0,1,7.061.065l4.1,2.394a12.878,12.878,0,0,1,6.36,10.419l6.341,113.838a9.128,9.128,0,0,0,4.676,7.482l58.584,32.874a6.088,6.088,0,0,1,0,10.624,1.749,1.749,0,0,1-.823.15Z" transform="translate(-129.212 -217.094)" fill="#0e1d2f"/>
              <path id="Trazado_101830" data-name="Trazado 101830" d="M221.473,370.859a2.516,2.516,0,0,1-1.272-.337l-10.54-5.864a2.609,2.609,0,1,1,2.553-4.545l10.54,5.92a2.6,2.6,0,0,1-1.281,4.873Z" transform="translate(-131.171 -226.329)" fill="#472ea6"/>
              <path id="Trazado_101831" data-name="Trazado 101831" d="M226.915,373.067a1.721,1.721,0,0,1-.842-.224l-3.685-2.058a1.749,1.749,0,0,1-.664-2.366,1.73,1.73,0,0,1,2.366-.664l3.676,2.058a1.74,1.74,0,0,1-.851,3.255Z" transform="translate(-132.031 -226.835)" fill="#253239"/>
              <path id="Trazado_101832" data-name="Trazado 101832" d="M271.977,399.233a2.6,2.6,0,0,1-1.272-.327l-10.54-5.92a2.609,2.609,0,0,1,2.553-4.545l10.54,5.92a2.6,2.6,0,0,1-1.281,4.873Z" transform="translate(-134.455 -228.171)" fill="#472ea6"/>
              <path id="Trazado_101833" data-name="Trazado 101833" d="M274.665,407.451a1.74,1.74,0,0,1-.851-3.255,2.619,2.619,0,0,0,0-4.564,1.74,1.74,0,1,1,1.7-3.03,6.088,6.088,0,0,1,0,10.624,1.749,1.749,0,0,1-.851.224Z" transform="translate(-135.356 -228.701)" fill="#455a64"/>
              <g id="Grupo_54176" data-name="Grupo 54176" transform="translate(19.791 168.424)">
                <ellipse id="Elipse_4106" data-name="Elipse 4106" cx="5.134" cy="8.894" rx="5.134" ry="8.894" transform="translate(0 8.304) rotate(-30)" fill="#455a64"/>
                <path id="Trazado_101834" data-name="Trazado 101834" d="M158.5,412.591c0,1.375-.935,1.927-2.142,1.244a4.742,4.742,0,0,1-2.151-3.741c0-1.365.935-1.927,2.151-1.244a4.788,4.788,0,0,1,2.142,3.741Z" transform="translate(-147.465 -397.916)" fill="#0e1d2f"/>
                <path id="Trazado_101835" data-name="Trazado 101835" d="M165.476,412.846a13.888,13.888,0,0,0-6.294-10.9c-2.478-1.431-4.611-1.01-5.611.8a5.7,5.7,0,0,1,2.806.851,13.907,13.907,0,0,1,6.285,10.9c0,1.983-.683,3.376-1.805,4.05l2.74-1.581h0C164.727,416.334,165.476,414.912,165.476,412.846Z" transform="translate(-147.423 -397.432)" fill="#0e1d2f"/>
                <path id="Trazado_101836" data-name="Trazado 101836" d="M156.252,400.645c-4.377-2.525-7.922-.477-7.922,4.573l15.843,9.147A17.519,17.519,0,0,0,156.252,400.645Z" transform="translate(-147.084 -397.334)" fill="#472ea6"/>
                <path id="Trazado_101837" data-name="Trazado 101837" d="M159.34,398.265c-3.217-1.87-5.976-1.235-7.22,1.225a6.434,6.434,0,0,1,4.377,1,17.5,17.5,0,0,1,7.922,13.72l2.806-2.226C167.262,406.935,163.717,400.753,159.34,398.265Z" transform="translate(-147.33 -397.179)" fill="#472ea6"/>
                <path id="Trazado_101838" data-name="Trazado 101838" d="M159.34,398.265c-3.217-1.87-5.976-1.235-7.22,1.225a6.434,6.434,0,0,1,4.377,1,17.5,17.5,0,0,1,7.922,13.72l2.806-2.226C167.262,406.935,163.717,400.753,159.34,398.265Z" transform="translate(-147.33 -397.179)" opacity="0.5"/>
              </g>
              <path id="Trazado_101839" data-name="Trazado 101839" d="M215.418,421.548a17.611,17.611,0,0,1-8.6-2.226L149.2,386.991a12.57,12.57,0,0,1-6.434-10.288l-6.341-113.847a9.409,9.409,0,0,0-4.676-7.6l-4.237-2.534a3.386,3.386,0,0,1,.047-5.873l47.885-26.86a1.73,1.73,0,0,1,2.366.664,1.749,1.749,0,0,1-.664,2.366l-47.7,26.757,4.134,2.413a12.878,12.878,0,0,1,6.36,10.419l6.341,113.838a9.128,9.128,0,0,0,4.676,7.482l57.611,32.331a14.2,14.2,0,0,0,13.795,0l41.983-23.531a1.74,1.74,0,0,1,1.693,3.03l-41.974,23.531A17.582,17.582,0,0,1,215.418,421.548Z" transform="translate(-125.836 -217.266)" fill="#455a64"/>
              <path id="Trazado_101840" data-name="Trazado 101840" d="M162.09,405.29a2.6,2.6,0,0,1-1.272-.327l-10.54-5.92a2.6,2.6,0,1,1,2.544-4.545l10.55,5.92a2.6,2.6,0,0,1-1.281,4.873Z" transform="translate(-127.332 -228.56)" fill="#472ea6"/>
              <path id="Trazado_101841" data-name="Trazado 101841" d="M212.58,433.62a2.6,2.6,0,0,1-1.272-.327l-10.54-5.92a2.6,2.6,0,1,1,2.544-4.545l10.55,5.92a2.6,2.6,0,0,1-1.281,4.873Z" transform="translate(-130.602 -230.395)" fill="#472ea6"/>
              <path id="Trazado_101842" data-name="Trazado 101842" d="M221.1,435.223h0a17.424,17.424,0,0,1-6.547-1.263,1.74,1.74,0,0,1,1.291-3.227,14.029,14.029,0,0,0,5.256,1.019,1.74,1.74,0,0,1,0,3.47Z" transform="translate(-131.515 -230.922)" fill="#455a64"/>
              <path id="Trazado_101843" data-name="Trazado 101843" d="M157.59,399.7a2.646,2.646,0,0,1-1.281-.337,2.609,2.609,0,0,1-.982-3.554l1.936-3.4a2.6,2.6,0,1,1,4.527,2.572l-1.927,3.4a2.628,2.628,0,0,1-2.273,1.319Z" transform="translate(-127.724 -228.361)" fill="#472ea6"/>
              <path id="Trazado_101844" data-name="Trazado 101844" d="M160.4,392.476a1.74,1.74,0,0,1-1.515-2.6l8.6-15.17a7.314,7.314,0,0,1,6.35-3.741h4.274a6.444,6.444,0,0,0,6.435-6.435,1.74,1.74,0,1,1,3.47,0,9.914,9.914,0,0,1-9.9,9.9h-4.274a3.844,3.844,0,0,0-3.329,1.945l-8.6,15.17a1.739,1.739,0,0,1-1.506.926Z" transform="translate(-127.961 -226.52)" fill="#455a64"/>
              <path id="Trazado_101845" data-name="Trazado 101845" d="M139.589,277.51a1.73,1.73,0,0,1-.87-3.236L194.834,241.8a1.74,1.74,0,1,1,1.74,3.011l-56.115,32.462a1.712,1.712,0,0,1-.87.234Z" transform="translate(-126.613 -218.677)" fill="#455a64"/>
              <path id="Trazado_101846" data-name="Trazado 101846" d="M167.532,407.5a1.739,1.739,0,0,1-.851-.215l-3.676-2.067a1.74,1.74,0,0,1,1.693-3.03l3.685,2.067a1.73,1.73,0,0,1-.851,3.245Z" transform="translate(-128.192 -229.069)" fill="#455a64"/>
            </g>
            <g id="Grupo_54181" data-name="Grupo 54181" transform="translate(69.441 75.105)">
              <g id="Grupo_54180" data-name="Grupo 54180" transform="translate(0 5.457)">
                <g id="Grupo_54178" data-name="Grupo 54178" transform="translate(8.983)">
                  <path id="Trazado_101847" data-name="Trazado 101847" d="M210.56,305.784a.87.87,0,0,1-.87-.87V257.75a.87.87,0,0,1,1.74,0v47.164a.87.87,0,0,1-.87.87Z" transform="translate(-209.69 -256.88)" fill="#0e1d2f"/>
                  <path id="Trazado_101848" data-name="Trazado 101848" d="M218.14,310.114a.87.87,0,0,1-.87-.87V262.08a.87.87,0,0,1,1.74,0v47.164a.87.87,0,0,1-.87.87Z" transform="translate(-210.181 -257.16)" fill="#0e1d2f"/>
                  <path id="Trazado_101849" data-name="Trazado 101849" d="M225.72,314.434a.87.87,0,0,1-.87-.87V266.4a.87.87,0,0,1,1.74,0v47.164a.87.87,0,0,1-.87.87Z" transform="translate(-210.672 -257.44)" fill="#0e1d2f"/>
                  <path id="Trazado_101850" data-name="Trazado 101850" d="M233.3,318.764a.87.87,0,0,1-.87-.87V270.73a.87.87,0,0,1,1.74,0v47.164a.87.87,0,0,1-.87.87Z" transform="translate(-211.163 -257.721)" fill="#0e1d2f"/>
                  <path id="Trazado_101851" data-name="Trazado 101851" d="M240.88,323.084a.87.87,0,0,1-.87-.87V275.05a.87.87,0,1,1,1.74,0v47.164a.86.86,0,0,1-.87.87Z" transform="translate(-211.653 -258)" fill="#0e1d2f"/>
                  <path id="Trazado_101852" data-name="Trazado 101852" d="M248.46,327.408a.87.87,0,0,1-.86-.87V279.374a.87.87,0,1,1,1.73,0v47.164a.87.87,0,0,1-.87.87Z" transform="translate(-212.145 -258.274)" fill="#0e1d2f"/>
                  <path id="Trazado_101853" data-name="Trazado 101853" d="M256.04,331.728a.86.86,0,0,1-.86-.87V283.694a.87.87,0,1,1,1.73,0v47.164a.86.86,0,0,1-.87.87Z" transform="translate(-212.635 -258.554)" fill="#0e1d2f"/>
                  <path id="Trazado_101854" data-name="Trazado 101854" d="M263.629,336.058a.87.87,0,0,1-.87-.87V288.024a.87.87,0,1,1,1.73,0v47.164a.87.87,0,0,1-.861.87Z" transform="translate(-213.126 -258.835)" fill="#0e1d2f"/>
                  <path id="Trazado_101855" data-name="Trazado 101855" d="M271.209,340.378a.86.86,0,0,1-.87-.87V292.344a.87.87,0,1,1,1.73,0v47.164a.86.86,0,0,1-.86.87Z" transform="translate(-213.617 -259.114)" fill="#0e1d2f"/>
                  <path id="Trazado_101856" data-name="Trazado 101856" d="M278.79,344.714a.87.87,0,0,1-.87-.87V296.68a.87.87,0,0,1,1.74,0v47.164A.87.87,0,0,1,278.79,344.714Z" transform="translate(-214.108 -259.401)" fill="#0e1d2f"/>
                  <path id="Trazado_101857" data-name="Trazado 101857" d="M286.37,349.034a.86.86,0,0,1-.87-.87V301a.87.87,0,1,1,1.74,0v47.164a.87.87,0,0,1-.87.87Z" transform="translate(-214.599 -259.681)" fill="#0e1d2f"/>
                  <path id="Trazado_101858" data-name="Trazado 101858" d="M293.94,353.364a.87.87,0,0,1-.87-.87V305.33a.87.87,0,1,1,1.74,0v47.164a.87.87,0,0,1-.87.87Z" transform="translate(-215.089 -259.961)" fill="#0e1d2f"/>
                  <path id="Trazado_101859" data-name="Trazado 101859" d="M301.53,353.644a.87.87,0,0,1-.87-.87V309.65a.87.87,0,0,1,1.74,0v43.124a.87.87,0,0,1-.87.87Z" transform="translate(-215.581 -260.241)" fill="#0e1d2f"/>
                  <path id="Trazado_101860" data-name="Trazado 101860" d="M309.11,347.852a.87.87,0,0,1-.87-.87V313.94a.87.87,0,0,1,1.74,0v33a.87.87,0,0,1-.87.907Z" transform="translate(-216.072 -260.519)" fill="#0e1d2f"/>
                  <path id="Trazado_101861" data-name="Trazado 101861" d="M316.69,341.073a.87.87,0,0,1-.87-.87V318.3a.87.87,0,0,1,1.74,0v21.9a.87.87,0,0,1-.87.87Z" transform="translate(-216.562 -260.801)" fill="#0e1d2f"/>
                  <path id="Trazado_101862" data-name="Trazado 101862" d="M324.27,334.966a.87.87,0,0,1-.87-.87V322.63a.87.87,0,0,1,1.74,0v11.513A.87.87,0,0,1,324.27,334.966Z" transform="translate(-217.053 -261.081)" fill="#0e1d2f"/>
                </g>
                <g id="Grupo_54179" data-name="Grupo 54179" transform="translate(0 6.852)">
                  <path id="Trazado_101863" data-name="Trazado 101863" d="M316.322,332.043a.814.814,0,0,1-.43-.122L200.52,265.828a.87.87,0,0,1-.318-1.188.86.86,0,0,1,1.178-.318l115.372,66.094a.87.87,0,0,1-.43,1.627Z" transform="translate(-200.085 -264.206)" fill="#0e1d2f"/>
                  <path id="Trazado_101864" data-name="Trazado 101864" d="M308.241,340.04a.833.833,0,0,1-.43-.122L201.969,279.268a.86.86,0,0,1-.327-1.178.87.87,0,0,1,1.188-.327l105.851,60.651a.87.87,0,0,1-.44,1.627Z" transform="translate(-200.179 -265.077)" fill="#0e1d2f"/>
                  <path id="Trazado_101865" data-name="Trazado 101865" d="M300.722,348.348a.87.87,0,0,1-.43-.112L202.68,292.308a.86.86,0,0,1-.318-1.178.87.87,0,0,1,1.188-.327l97.6,55.928a.87.87,0,0,1-.43,1.618Z" transform="translate(-200.225 -265.921)" fill="#0e1d2f"/>
                </g>
              </g>
              <path id="Trazado_101866" data-name="Trazado 101866" d="M292.924,353.609a1.674,1.674,0,0,1-.86-.234l-88.54-50.718a1.74,1.74,0,0,1,1.73-3.011l87.427,50.082,28.88-26.608L201.429,254.286a1.734,1.734,0,0,1,1.721-3.011l122.208,70a1.768,1.768,0,0,1,.86,1.319,1.7,1.7,0,0,1-.552,1.468L294.112,353.15a1.749,1.749,0,0,1-1.188.458Z" transform="translate(-200.116 -251.045)" fill="#0e1d2f"/>
            </g>
            <g id="Grupo_54182" data-name="Grupo 54182" transform="translate(22.369 127.317)">
              <path id="Trazado_101867" data-name="Trazado 101867" d="M150.62,340a.87.87,0,0,1-.44-1.618l53.973-31.387a.872.872,0,1,1,.879,1.506L151.05,339.875a.87.87,0,0,1-.43.122Z" transform="translate(-149.754 -306.873)" fill="#12263f"/>
              <path id="Trazado_101868" data-name="Trazado 101868" d="M158.2,344.325a.87.87,0,0,1-.44-1.618l53.973-31.377a.87.87,0,1,1,.879,1.5L158.63,344.2A.786.786,0,0,1,158.2,344.325Z" transform="translate(-150.245 -307.151)" fill="#12263f"/>
              <path id="Trazado_101869" data-name="Trazado 101869" d="M165.78,348.647a.851.851,0,0,1-.748-.43.87.87,0,0,1,.309-1.188l53.973-31.377a.872.872,0,1,1,.879,1.506L166.22,348.535A.936.936,0,0,1,165.78,348.647Z" transform="translate(-150.736 -307.433)" fill="#12263f"/>
              <path id="Trazado_101870" data-name="Trazado 101870" d="M173.36,352.978a.87.87,0,0,1-.44-1.618L226.9,319.992a.865.865,0,1,1,.87,1.5L173.8,352.866a.842.842,0,0,1-.44.112Z" transform="translate(-151.227 -307.715)" fill="#12263f"/>
              <path id="Trazado_101871" data-name="Trazado 101871" d="M180.94,357.3a.851.851,0,0,1-.748-.43.87.87,0,0,1,.309-1.188L234.483,324.3a.87.87,0,1,1,.87,1.506L181.38,357.184A.935.935,0,0,1,180.94,357.3Z" transform="translate(-151.717 -307.993)" fill="#12263f"/>
              <path id="Trazado_101872" data-name="Trazado 101872" d="M188.52,361.624a.87.87,0,0,1-.44-1.618l53.982-31.377a.87.87,0,1,1,.87,1.5L188.96,361.5a.841.841,0,0,1-.44.122Z" transform="translate(-152.208 -308.271)" fill="#12263f"/>
              <path id="Trazado_101873" data-name="Trazado 101873" d="M196.1,365.951a.851.851,0,0,1-.748-.43.86.86,0,0,1,.318-1.188l53.973-31.34a.87.87,0,0,1,.87,1.506l-53.973,31.377A.935.935,0,0,1,196.1,365.951Z" transform="translate(-152.699 -308.557)" fill="#12263f"/>
              <path id="Trazado_101874" data-name="Trazado 101874" d="M203.68,370.274a.87.87,0,0,1-.748-.43.86.86,0,0,1,.318-1.188l53.982-31.378a.87.87,0,1,1,.87,1.5l-53.973,31.377a.842.842,0,0,1-.449.122Z" transform="translate(-153.19 -308.831)" fill="#12263f"/>
              <path id="Trazado_101875" data-name="Trazado 101875" d="M211.26,374.607a.87.87,0,0,1-.43-1.627L264.8,341.6a.879.879,0,0,1,1.188.318.86.86,0,0,1-.318,1.188L211.7,374.485A.935.935,0,0,1,211.26,374.607Z" transform="translate(-153.68 -309.114)" fill="#12263f"/>
              <path id="Trazado_101876" data-name="Trazado 101876" d="M218.849,378.927a.935.935,0,0,1-.758-.43.86.86,0,0,1,.318-1.188l53.973-31.377a.86.86,0,0,1,1.188.318.851.851,0,0,1-.318,1.178l-53.973,31.378A.833.833,0,0,1,218.849,378.927Z" transform="translate(-154.172 -309.394)" fill="#12263f"/>
              <path id="Trazado_101877" data-name="Trazado 101877" d="M226.429,383.257a.935.935,0,0,1-.758-.44.87.87,0,0,1,.318-1.188l53.973-31.377a.879.879,0,0,1,1.188.318.86.86,0,0,1-.318,1.188l-53.926,31.378a.935.935,0,0,1-.477.122Z" transform="translate(-154.663 -309.674)" fill="#12263f"/>
              <path id="Trazado_101878" data-name="Trazado 101878" d="M234.01,387.579a.935.935,0,0,1-.758-.43.879.879,0,0,1,.318-1.188l53.973-31.377a.87.87,0,0,1,.879,1.5L234.44,387.458a.786.786,0,0,1-.43.122Z" transform="translate(-155.154 -309.956)" fill="#12263f"/>
            </g>
            <g id="Grupo_54185" data-name="Grupo 54185" transform="translate(33.738 67.702)">
              <g id="Grupo_54183" data-name="Grupo 54183" transform="translate(3.348 31.181)">
                <path id="Trazado_101879" data-name="Trazado 101879" d="M208.633,360.539,165.49,335.624V276.47l43.143,24.915Z" transform="translate(-165.49 -276.47)" fill="#472ea6"/>
                <path id="Trazado_101880" data-name="Trazado 101880" d="M211.62,360.539V301.385l43.152-24.915v59.154Z" transform="translate(-168.477 -276.47)" fill="#472ea6"/>
              </g>
              <path id="Trazado_101881" data-name="Trazado 101881" d="M208.633,360.539,165.49,335.624V276.47l43.143,24.915Z" transform="translate(-162.142 -245.289)" opacity="0.5"/>
              <path id="Trazado_101882" data-name="Trazado 101882" d="M211.62,360.539V301.385l43.152-24.915v59.154Z" transform="translate(-165.129 -245.289)" opacity="0.7"/>
              <path id="Trazado_101883" data-name="Trazado 101883" d="M208.4,296.813,161.91,269.972,208.4,243.13l46.5,26.842Z" transform="translate(-161.91 -243.13)" fill="#472ea6"/>
              <g id="Grupo_54184" data-name="Grupo 54184" transform="translate(20.22 11.672)">
                <path id="Trazado_101884" data-name="Trazado 101884" d="M183.53,259.108l46.491,26.841,6.06-3.5-46.5-26.842Z" transform="translate(-183.53 -255.61)" fill="#472ea6"/>
                <path id="Trazado_101885" data-name="Trazado 101885" d="M183.53,259.108l46.491,26.841,6.06-3.5-46.5-26.842Z" transform="translate(-183.53 -255.61)" fill="#fff" opacity="0.8"/>
                <path id="Trazado_101886" data-name="Trazado 101886" d="M236.081,259.108l-46.5,26.841-6.051-3.5,46.491-26.842Z" transform="translate(-183.53 -255.61)" fill="#472ea6"/>
                <path id="Trazado_101887" data-name="Trazado 101887" d="M236.081,259.108l-46.5,26.841-6.051-3.5,46.491-26.842Z" transform="translate(-183.53 -255.61)" fill="#fff" opacity="0.8"/>
              </g>
              <path id="Trazado_101888" data-name="Trazado 101888" d="M208.4,307.958,161.91,281.117V271.83L208.4,298.672Z" transform="translate(-161.91 -244.988)" fill="#472ea6"/>
              <path id="Trazado_101889" data-name="Trazado 101889" d="M211.62,307.958v-9.287l46.5-26.842v9.287Z" transform="translate(-165.129 -244.988)" fill="#472ea6"/>
              <path id="Trazado_101890" data-name="Trazado 101890" d="M208.4,307.958,161.91,281.117V271.83L208.4,298.672Z" transform="translate(-161.91 -244.988)" opacity="0.3"/>
              <path id="Trazado_101891" data-name="Trazado 101891" d="M211.62,307.958v-9.287l46.5-26.842v9.287Z" transform="translate(-165.129 -244.988)" opacity="0.5"/>
              <path id="Trazado_101892" data-name="Trazado 101892" d="M189.581,349.4l-6.051-3.47V284.31l6.051,3.5Z" transform="translate(-163.31 -245.797)" fill="#472ea6"/>
              <path id="Trazado_101893" data-name="Trazado 101893" d="M233.24,349.4l6.06-3.47V284.31l-6.06,3.5Z" transform="translate(-166.529 -245.797)" fill="#472ea6"/>
            </g>
            <g id="Grupo_54190" data-name="Grupo 54190" transform="translate(85.878 89.486)">
              <g id="Grupo_54187" data-name="Grupo 54187" transform="translate(12.794)">
                <g id="Grupo_54186" data-name="Grupo 54186" transform="translate(0 16.762)">
                  <path id="Trazado_101894" data-name="Trazado 101894" d="M235.081,297.8a4.152,4.152,0,0,1-1.87,3.264c-1.047.608-1.87.122-1.87-1.085a4.143,4.143,0,0,1,1.87-3.264C234.239,296.1,235.081,296.59,235.081,297.8Z" transform="translate(-231.34 -285.128)" fill="#472ea6"/>
                  <path id="Trazado_101895" data-name="Trazado 101895" d="M256.081,285.678a4.162,4.162,0,0,1-1.87,3.264c-1.038.608-1.87.112-1.87-1.085a4.2,4.2,0,0,1,1.871-3.273C255.23,284.022,256.081,284.471,256.081,285.678Z" transform="translate(-232.7 -284.344)" fill="#472ea6"/>
                </g>
                <path id="Trazado_101896" data-name="Trazado 101896" d="M233.265,297.433a.935.935,0,0,1-.935-.935V283.488a15.75,15.75,0,0,1,7.6-13.43l4.6-2.759a6.1,6.1,0,0,1,9.25,5.237V285.19a.935.935,0,1,1-1.814,0V272.574a4.293,4.293,0,0,0-6.481-3.741l-4.6,2.806a13.907,13.907,0,0,0-6.715,11.868v13.037a.935.935,0,0,1-.907.888Z" transform="translate(-231.404 -266.422)" fill="#472ea6"/>
                <path id="Trazado_101897" data-name="Trazado 101897" d="M233.265,297.433a.935.935,0,0,1-.935-.935V283.488a15.75,15.75,0,0,1,7.6-13.43l4.6-2.759a6.1,6.1,0,0,1,9.25,5.237V285.19a.935.935,0,1,1-1.814,0V272.574a4.293,4.293,0,0,0-6.481-3.741l-4.6,2.806a13.907,13.907,0,0,0-6.715,11.868v13.037a.935.935,0,0,1-.907.888Z" transform="translate(-231.404 -266.422)" opacity="0.9"/>
              </g>
              <path id="Trazado_101898" data-name="Trazado 101898" d="M265.04,274l22.39,14.01v63.428l-22.39-14Z" transform="translate(-220.728 -266.912)" fill="#472ea6"/>
              <path id="Trazado_101899" data-name="Trazado 101899" d="M217.66,363.017V299.588L261.972,274v63.438Z" transform="translate(-217.66 -266.912)" fill="#472ea6"/>
              <path id="Trazado_101900" data-name="Trazado 101900" d="M217.66,363.017V299.588L261.972,274v63.438Z" transform="translate(-217.66 -266.912)" opacity="0.3"/>
              <path id="Trazado_101901" data-name="Trazado 101901" d="M221.067,344.541l6.2-36.269a22.661,22.661,0,0,1,11-15.806l23.222-13.4a9.268,9.268,0,0,1,13.8,6.734l6.145,43.676a23.157,23.157,0,0,1-18.976,26.056l-25.878,4.489a13.411,13.411,0,0,1-15.516-15.478Z" transform="translate(-217.868 -267.16)" fill="#472ea6"/>
              <path id="Trazado_101902" data-name="Trazado 101902" d="M221.067,344.541l6.2-36.269a22.661,22.661,0,0,1,11-15.806l23.222-13.4a9.268,9.268,0,0,1,13.8,6.734l6.145,43.676a23.157,23.157,0,0,1-18.976,26.056l-25.878,4.489a13.411,13.411,0,0,1-15.516-15.478Z" transform="translate(-217.868 -267.16)" fill="#fff" opacity="0.8"/>
              <path id="Trazado_101903" data-name="Trazado 101903" d="M241.59,378V314.568l44.321-25.588v63.428Z" transform="translate(-219.21 -267.882)" fill="#472ea6"/>
              <path id="Trazado_101904" data-name="Trazado 101904" d="M241.59,378V314.568l44.321-25.588v63.428Z" transform="translate(-219.21 -267.882)" opacity="0.5"/>
              <path id="Trazado_101905" data-name="Trazado 101905" d="M217.66,301.36l22.38,14.01V378.8l-22.38-14.01Z" transform="translate(-217.66 -268.684)" fill="#472ea6"/>
              <path id="Trazado_101906" data-name="Trazado 101906" d="M229.62,360.953V308.86l11.195,7v63.428Z" transform="translate(-218.434 -269.17)" opacity="0.3"/>
              <g id="Grupo_54189" data-name="Grupo 54189" transform="translate(32.874 14.971)">
                <g id="Grupo_54188" data-name="Grupo 54188" transform="translate(0 16.781)">
                  <path id="Trazado_101907" data-name="Trazado 101907" d="M256.551,313.837a4.2,4.2,0,0,1-1.87,3.273c-1.047.6-1.87.112-1.87-1.094a4.152,4.152,0,0,1,1.87-3.264C255.7,312.154,256.551,312.64,256.551,313.837Z" transform="translate(-252.81 -301.157)" fill="#472ea6"/>
                  <path id="Trazado_101908" data-name="Trazado 101908" d="M277.541,301.717a4.171,4.171,0,0,1-1.87,3.273c-1.038.6-1.871.112-1.871-1.094a4.171,4.171,0,0,1,1.871-3.264C276.7,300.024,277.541,300.52,277.541,301.717Z" transform="translate(-254.169 -300.372)" fill="#472ea6"/>
                </g>
                <path id="Trazado_101909" data-name="Trazado 101909" d="M254.725,313.471a.935.935,0,0,1-.935-.935V299.526a15.712,15.712,0,0,1,7.594-13.421l4.6-2.806a6.107,6.107,0,0,1,9.25,5.237v12.654a.935.935,0,1,1-1.814,0V288.575a4.293,4.293,0,0,0-6.5-3.675l-4.573,2.74a13.907,13.907,0,0,0-6.715,11.868v13.037A.935.935,0,0,1,254.725,313.471Z" transform="translate(-252.873 -282.429)" fill="#472ea6"/>
                <path id="Trazado_101910" data-name="Trazado 101910" d="M254.725,313.471a.935.935,0,0,1-.935-.935V299.526a15.712,15.712,0,0,1,7.594-13.421l4.6-2.806a6.107,6.107,0,0,1,9.25,5.237v12.654a.935.935,0,1,1-1.814,0V288.575a4.293,4.293,0,0,0-6.5-3.675l-4.573,2.74a13.907,13.907,0,0,0-6.715,11.868v13.037A.935.935,0,0,1,254.725,313.471Z" transform="translate(-252.873 -282.429)" opacity="0.9"/>
              </g>
            </g>
            <g id="Grupo_54193" data-name="Grupo 54193" transform="translate(102.968 145.048)">
              <g id="Grupo_54191" data-name="Grupo 54191">
                <path id="Trazado_101911" data-name="Trazado 101911" d="M271.4,361.051a1.74,1.74,0,0,1-.832-3.264l57.555-31.677a1.74,1.74,0,1,1,1.674,3.04l-57.555,31.686a1.814,1.814,0,0,1-.842.215Z" transform="translate(-238.118 -325.83)" fill="#12263f"/>
                <path id="Trazado_101912" data-name="Trazado 101912" d="M237.66,392.143a1.74,1.74,0,0,1-.842-3.255l57.555-31.677a1.74,1.74,0,1,1,1.683,3.04l-57.564,31.677a1.673,1.673,0,0,1-.832.215Z" transform="translate(-235.934 -327.845)" fill="#12263f"/>
              </g>
              <g id="Grupo_54192" data-name="Grupo 54192" transform="translate(15.909 9.45)">
                <path id="Trazado_101913" data-name="Trazado 101913" d="M283.32,366.756a.935.935,0,0,1-.645-.281.87.87,0,0,1,.056-1.225l31.555-29.086a.87.87,0,1,1,1.178,1.281L283.9,366.531a.935.935,0,0,1-.58.225Z" transform="translate(-254.855 -335.934)" fill="#12263f"/>
                <path id="Trazado_101914" data-name="Trazado 101914" d="M253.819,382.868a.87.87,0,0,1-.645-.281.86.86,0,0,1,.056-1.225L284.795,352.3a.87.87,0,0,1,1.178,1.281l-31.565,29.086A.851.851,0,0,1,253.819,382.868Z" transform="translate(-252.945 -336.979)" fill="#12263f"/>
                <path id="Trazado_101915" data-name="Trazado 101915" d="M268.19,374.776a.851.851,0,0,1-.636-.281.87.87,0,0,1,.047-1.225l31.565-29.086a.87.87,0,0,1,1.178,1.281l-31.565,29.077A.842.842,0,0,1,268.19,374.776Z" transform="translate(-253.876 -336.454)" fill="#12263f"/>
              </g>
            </g>
            <g id="Grupo_54197" data-name="Grupo 54197" transform="translate(12.315 106.78)">
              <path id="Trazado_101916" data-name="Trazado 101916" d="M231.384,387.479a1.8,1.8,0,0,1-.87-.224l-88.53-50.728a1.74,1.74,0,1,1,1.73-3.011l87.427,50.092,28.88-26.6L139.879,288.165a1.741,1.741,0,0,1,1.73-3.021L263.8,355.138a1.721,1.721,0,0,1,.87,1.309,1.758,1.758,0,0,1-.552,1.478l-31.593,29.1a1.693,1.693,0,0,1-1.141.458Z" transform="translate(-139.004 -284.914)" fill="#455a64"/>
              <g id="Grupo_54196" data-name="Grupo 54196" transform="translate(0.198 5.627)">
                <g id="Grupo_54194" data-name="Grupo 54194" transform="translate(8.983)">
                  <path id="Trazado_101917" data-name="Trazado 101917" d="M149.69,339.834a.87.87,0,0,1-.87-.87V291.8a.87.87,0,0,1,1.74,0v47.164a.87.87,0,0,1-.87.87Z" transform="translate(-148.82 -290.93)" fill="#455a64"/>
                  <path id="Trazado_101918" data-name="Trazado 101918" d="M157.27,344.164a.87.87,0,0,1-.87-.87V296.13a.87.87,0,0,1,1.74,0v47.164a.87.87,0,0,1-.87.87Z" transform="translate(-149.311 -291.21)" fill="#455a64"/>
                  <path id="Trazado_101919" data-name="Trazado 101919" d="M164.85,348.484a.87.87,0,0,1-.87-.87V300.45a.87.87,0,1,1,1.74,0v47.164a.87.87,0,0,1-.87.87Z" transform="translate(-149.802 -291.49)" fill="#455a64"/>
                  <path id="Trazado_101920" data-name="Trazado 101920" d="M172.43,352.814a.87.87,0,0,1-.87-.87V304.78a.87.87,0,1,1,1.74,0v47.164A.87.87,0,0,1,172.43,352.814Z" transform="translate(-150.293 -291.771)" fill="#455a64"/>
                  <path id="Trazado_101921" data-name="Trazado 101921" d="M180.01,357.134a.87.87,0,0,1-.87-.87V309.1a.87.87,0,0,1,1.74,0v47.164a.87.87,0,0,1-.87.87Z" transform="translate(-150.783 -292.05)" fill="#455a64"/>
                  <path id="Trazado_101922" data-name="Trazado 101922" d="M187.59,361.464a.87.87,0,0,1-.87-.87V313.43a.87.87,0,1,1,1.74,0v47.164a.87.87,0,0,1-.87.87Z" transform="translate(-151.274 -292.331)" fill="#455a64"/>
                  <path id="Trazado_101923" data-name="Trazado 101923" d="M195.17,365.79a.86.86,0,0,1-.86-.87V317.756a.87.87,0,0,1,1.73,0V364.92a.86.86,0,0,1-.87.87Z" transform="translate(-151.766 -292.617)" fill="#455a64"/>
                  <path id="Trazado_101924" data-name="Trazado 101924" d="M202.75,370.108a.87.87,0,0,1-.86-.87V322.074a.87.87,0,1,1,1.73,0v47.164A.87.87,0,0,1,202.75,370.108Z" transform="translate(-152.256 -292.885)" fill="#455a64"/>
                  <path id="Trazado_101925" data-name="Trazado 101925" d="M210.34,374.44a.86.86,0,0,1-.87-.86V326.406a.87.87,0,0,1,1.73,0V373.58A.86.86,0,0,1,210.34,374.44Z" transform="translate(-152.747 -293.177)" fill="#455a64"/>
                  <path id="Trazado_101926" data-name="Trazado 101926" d="M217.939,378.758a.87.87,0,0,1-.87-.87V330.724a.87.87,0,1,1,1.73,0v47.164a.87.87,0,0,1-.86.87Z" transform="translate(-153.239 -293.445)" fill="#455a64"/>
                  <path id="Trazado_101927" data-name="Trazado 101927" d="M225.5,383.084a.86.86,0,0,1-.87-.86V335.05a.87.87,0,0,1,1.74,0v47.174a.87.87,0,0,1-.87.86Z" transform="translate(-153.729 -293.731)" fill="#455a64"/>
                  <path id="Trazado_101928" data-name="Trazado 101928" d="M233.08,387.414a.87.87,0,0,1-.87-.87V339.38a.87.87,0,0,1,1.74,0v47.164a.87.87,0,0,1-.87.87Z" transform="translate(-154.22 -294.011)" fill="#455a64"/>
                  <path id="Trazado_101929" data-name="Trazado 101929" d="M240.66,387.694a.87.87,0,0,1-.87-.87V343.7a.87.87,0,0,1,1.74,0v43.124A.87.87,0,0,1,240.66,387.694Z" transform="translate(-154.711 -294.291)" fill="#455a64"/>
                  <path id="Trazado_101930" data-name="Trazado 101930" d="M248.24,381.9a.87.87,0,0,1-.87-.87v-33a.87.87,0,0,1,1.74,0v33a.87.87,0,0,1-.87.87Z" transform="translate(-155.202 -294.571)" fill="#455a64"/>
                  <path id="Trazado_101931" data-name="Trazado 101931" d="M255.82,375.123a.87.87,0,0,1-.87-.87v-21.9a.87.87,0,0,1,1.74,0v21.9a.87.87,0,0,1-.87.87Z" transform="translate(-155.692 -294.851)" fill="#455a64"/>
                  <path id="Trazado_101932" data-name="Trazado 101932" d="M263.4,369.016a.87.87,0,0,1-.87-.87V356.68a.87.87,0,1,1,1.74,0v11.466A.87.87,0,0,1,263.4,369.016Z" transform="translate(-156.183 -295.131)" fill="#455a64"/>
                </g>
                <g id="Grupo_54195" data-name="Grupo 54195" transform="translate(0 6.861)">
                  <path id="Trazado_101933" data-name="Trazado 101933" d="M255.452,366.094a.87.87,0,0,1-.43-.112L139.65,299.888a.87.87,0,0,1-.318-1.188.86.86,0,0,1,1.178-.318L255.92,364.466a.879.879,0,0,1,.327,1.188A.935.935,0,0,1,255.452,366.094Z" transform="translate(-139.215 -298.266)" fill="#455a64"/>
                  <path id="Trazado_101934" data-name="Trazado 101934" d="M247.371,374.09a.832.832,0,0,1-.43-.122L141.089,313.327a.871.871,0,0,1,.86-1.515l105.86,60.651a.87.87,0,0,1-.44,1.627Z" transform="translate(-139.308 -299.136)" fill="#455a64"/>
                  <path id="Trazado_101935" data-name="Trazado 101935" d="M239.855,382.4a.87.87,0,0,1-.43-.112L141.814,326.36a.87.87,0,0,1,.86-1.506l97.612,55.928a.87.87,0,0,1-.43,1.618Z" transform="translate(-139.359 -299.982)" fill="#455a64"/>
                </g>
              </g>
            </g>
            <g id="Grupo_54198" data-name="Grupo 54198" transform="translate(0.839 45.018)">
              <path id="Trazado_101936" data-name="Trazado 101936" d="M133.74,248.125a2.609,2.609,0,0,1-1.272-4.882l42.9-24.036a2.6,2.6,0,1,1,2.544,4.545l-42.9,24.036a2.516,2.516,0,0,1-1.272.337Z" transform="translate(-127.019 -218.875)" fill="#472ea6"/>
              <path id="Trazado_101937" data-name="Trazado 101937" d="M128.47,251.807a1.74,1.74,0,0,1-.851-3.255l4.237-2.376a1.74,1.74,0,0,1,1.7,3.03l-4.237,2.4a1.758,1.758,0,0,1-.851.2Z" transform="translate(-126.734 -220.631)" fill="#455a64"/>
            </g>
          </g>
          <g id="Grupo_54202" data-name="Grupo 54202" transform="translate(20.603)">
            <path id="Trazado_101938" data-name="Trazado 101938" d="M188.246,217.828c-1.141-2.4-2.806-6.219-5.144-7.529l-12.046-7.351h0L145.309,185.59l-15.029,7.117c7.875,8.576,33.37,17.77,33.37,17.77a13.647,13.647,0,0,0,1.038,2.226h-.065c.178.4,5.967,13.383,7.875,13.187.842-.075.991-1.206.935-2.441l-1.047-5.032c1.281.383,2.45.6,3.311.823,1.263.337,2.525,2.806,3.18,3.937a2.516,2.516,0,0,0,3.479.87l5.032-3.114a2.375,2.375,0,0,0,1.122-2.17,2.282,2.282,0,0,0-.262-.935Z" transform="translate(-92.683 -125.724)" fill="#ffa8a7"/>
            <path id="Trazado_101939" data-name="Trazado 101939" d="M106.3,136.527l-9.82,42.4a11.859,11.859,0,0,0,1,8.1h0a11.9,11.9,0,0,0,16.629,4.817l22.081-13.093V136.48Z" transform="translate(-90.474 -122.544)" fill="#0e1d2f"/>
            <path id="Trazado_101940" data-name="Trazado 101940" d="M111.67,171.611l22.446-9.156a10.774,10.774,0,0,1,14.833,9.979v11.878l-33.977,10.606Z" transform="translate(-91.477 -124.174)" fill="#ffa8a7"/>
            <path id="Trazado_101941" data-name="Trazado 101941" d="M132.387,163.679s7.108,4.433,8.062,11.793c0,0-3.853,6.163-16.077,5.817,0,0-2.806-9.783-7.613-11.737l-5.116,2.086-.393,24.578,3.507,5.013a4.1,4.1,0,0,1,.3,4.171l-2.909,5.827s5.256,9.025,18.967,9.025a21.062,21.062,0,0,0,13.655-5.434l-.468-15.562s17.367-11.737-7.753-37.176Z" transform="translate(-91.45 -124.201)" fill="#472ea6"/>
            <g id="Grupo_54201" data-name="Grupo 54201" transform="translate(15.38)">
              <path id="Trazado_101942" data-name="Trazado 101942" d="M113.2,126.443s-1.3-4.947-2.188-4.863-.767,4.424-.767,4.424-4.115-.365-3.685.823,5.219,2.385,5.219,2.385Z" transform="translate(-106.524 -121.579)" fill="#0e1d2f"/>
              <path id="Trazado_101943" data-name="Trazado 101943" d="M106.782,143.69c1.87,13.982,13.636,13.982,13.636,13.982L145.1,146.813a9.222,9.222,0,0,0,2.432-5.378,16.535,16.535,0,0,0,0-4.629.4.4,0,0,1,0-.047c-.786-5.873-5.181-12.158-14.758-14.132a31.611,31.611,0,0,0-6.369-.608,27.185,27.185,0,0,0-3.077.159c-7.482.72-12.654,4.2-15.142,9.6a17.031,17.031,0,0,0-1.225,3.816,24.2,24.2,0,0,0-.178,8.1Z" transform="translate(-106.524 -121.607)" fill="#0e1d2f"/>
              <path id="Trazado_101944" data-name="Trazado 101944" d="M124.158,172.521h0a5.7,5.7,0,0,0,9.193-4.489V150H121.38v16.834a7.21,7.21,0,0,0,2.777,5.686Z" transform="translate(-107.486 -123.419)" fill="#ffa8a7"/>
              <path id="Trazado_101945" data-name="Trazado 101945" d="M133.351,165.759a20.968,20.968,0,0,1-11.971-11.382V150h11.971Z" transform="translate(-107.486 -123.419)" fill="#f28f8f"/>
              <path id="Trazado_101946" data-name="Trazado 101946" d="M130.5,126.47c4.536,0,14.188,2.535,15.3,14.412s0,21.08-6.088,21.969-20.36-3.554-22.268-18.929S126.067,126.47,130.5,126.47Z" transform="translate(-107.216 -121.896)" fill="#ffa8a7"/>
              <path id="Trazado_101947" data-name="Trazado 101947" d="M139.06,147.25v7l4.1-1.263Z" transform="translate(-108.631 -123.241)" fill="#f28f8f"/>
              <g id="Grupo_54200" data-name="Grupo 54200" transform="translate(24.434 18.938)">
                <path id="Trazado_101948" data-name="Trazado 101948" d="M132.65,148.442a1.431,1.431,0,1,0,1.431-1.422,1.431,1.431,0,0,0-1.431,1.422Z" transform="translate(-132.65 -142.165)" fill="#0e1d2f"/>
                <path id="Trazado_101949" data-name="Trazado 101949" d="M142.69,147.381a1.431,1.431,0,1,0,1.422-1.431A1.431,1.431,0,0,0,142.69,147.381Z" transform="translate(-133.3 -142.095)" fill="#0e1d2f"/>
                <path id="Trazado_101950" data-name="Trazado 101950" d="M145.876,144.14l-2.806-1.655s1.066-1.113,2.132-.44A1.936,1.936,0,0,1,145.876,144.14Z" transform="translate(-133.325 -141.829)" fill="#0e1d2f"/>
              </g>
              <path id="Trazado_101951" data-name="Trazado 101951" d="M140.853,157.7a6.107,6.107,0,0,1-3.844-1.029s-.262,2.029,1.431,2.413a2.2,2.2,0,0,0,2.413-1.384Z" transform="translate(-108.497 -123.851)" fill="#f28f8f"/>
              <path id="Trazado_101952" data-name="Trazado 101952" d="M141.94,130.359s-1.7,16.4-24,16.909c0,0-6.734-16.292,6.547-21.585S141.94,130.359,141.94,130.359Z" transform="translate(-107.153 -121.744)" fill="#0e1d2f"/>
              <path id="Trazado_101953" data-name="Trazado 101953" d="M121.43,149.31c1.44,2.478,1.066,5.49-.935,6.547-1.291.664-5.078-.767-6.547-3.255s-.627-4.611,1.328-5.733S120.037,146.823,121.43,149.31Z" transform="translate(-106.956 -123.188)" fill="#ffa8a7"/>
            </g>
            <path id="Trazado_101954" data-name="Trazado 101954" d="M114.916,189.868,111.25,198a7.061,7.061,0,0,0,2.946-.627l1.609-7.2a.469.469,0,0,0-.888-.3Z" transform="translate(-91.45 -125.98)" fill="#f28f8f"/>
            <path id="Trazado_101955" data-name="Trazado 101955" d="M148.514,240.556a12.925,12.925,0,0,0-4.929-6.014l-2.142-1.375s5.789,1.319,5.855-.627-13.692-7-13.692-7l-27.552-20.931s1.955-3.18,4.246-7.8c3.937-.215,6.238-3.423,7.547-6.547a15.123,15.123,0,0,0-3.011-16.376c-.514-.524-.851-.8-.851-.8a6.874,6.874,0,0,0-2.123-1.487l-1.87.758a19.893,19.893,0,0,0-10.531,9.9c-3.535,7.379-8.586,18.7-9.352,24.8-1.178,9.483,34.323,24.522,34.323,24.522,2.151,7.482,8.642,10.222,11.485,11.167a4.919,4.919,0,0,1,2.862,2.469h0a2.5,2.5,0,0,0,3.4,1.1l5.237-2.806a2.366,2.366,0,0,0,1.094-2.965Z" transform="translate(-90.079 -124.818)" fill="#ffa8a7"/>
            <path id="Trazado_101956" data-name="Trazado 101956" d="M114.225,197.373l1.609-7.2a.449.449,0,0,0-.4-.561c-1.178,3.021-2.506,5.9-3.741,8.37A7.258,7.258,0,0,0,114.225,197.373Z" transform="translate(-91.479 -125.984)" fill="#f28f8f"/>
          </g>
        </g>
      </g>
    </g>
  </g>
</svg>
