<svg xmlns="http://www.w3.org/2000/svg" xmlns:xlink="http://www.w3.org/1999/xlink" width="642.45" height="377.01" viewBox="0 0 642.45 377.01">
  <defs>
    <clipPath id="clip-path">
      <rect width="189.69" height="9" fill="none"/>
    </clipPath>
  </defs>
  <g id="Grupo_55523" data-name="Grupo 55523" transform="translate(-479 -2367)">
    <g id="CF1_ponderacion" transform="translate(429.07 2296.77)">
      <g id="Grupo">
        <text id="_2.20" data-name="$2.20" transform="translate(53.89 103.22)" fill="#12263f" font-size="16" font-family="Roboto-Regular, Roboto"><tspan x="0" y="0">$2.20</tspan></text>
        <text id="_2.00" data-name="$2.00" transform="translate(53.89 141.62)" fill="#12263f" font-size="16" font-family="Roboto-Regular, Roboto"><tspan x="0" y="0">$2.00</tspan></text>
        <text id="_1.80" data-name="$ 1.80" transform="translate(49.93 180.02)" fill="#12263f" font-size="16" font-family="Roboto-Regular, Roboto"><tspan x="0" y="0">$ 1.80</tspan></text>
        <text id="_1.60" data-name="$ 1.60" transform="translate(49.93 218.42)" fill="#12263f" font-size="16" font-family="Roboto-Regular, Roboto"><tspan x="0" y="0">$ 1.60</tspan></text>
        <text id="_1.40" data-name="$ 1.40" transform="translate(49.93 256.82)" fill="#12263f" font-size="16" font-family="Roboto-Regular, Roboto"><tspan x="0" y="0">$ 1.40</tspan></text>
        <text id="_1.20" data-name="$1.20" transform="translate(53.89 295.22)" fill="#12263f" font-size="16" font-family="Roboto-Regular, Roboto"><tspan x="0" y="0">$1.20</tspan></text>
        <text id="_1.00" data-name="$ 1.00" transform="translate(49.93 333.62)" fill="#12263f" font-size="16" font-family="Roboto-Regular, Roboto"><tspan x="0" y="0">$ 1.00</tspan></text>
      </g>
      <line id="Línea_162" data-name="Línea 162" y2="301.58" transform="translate(109.58 70.23)" fill="none" stroke="#472ea6" stroke-miterlimit="10" stroke-width="1"/>
      <line id="Línea_163" data-name="Línea 163" x1="10.41" transform="translate(99.17 328.34)" fill="none" stroke="#472ea6" stroke-miterlimit="10" stroke-width="1"/>
      <g id="Cuadrícula_de_repetición_2" data-name="Cuadrícula de repetición 2" transform="translate(109.08 371.811)" clip-path="url(#clip-path)">
        <g transform="translate(-109.08 -371.811)">
          <line id="Línea_179" data-name="Línea 179" y2="9" transform="translate(109.58 371.811)" fill="none" stroke="#472ea6" stroke-miterlimit="10" stroke-width="1"/>
        </g>
        <g transform="translate(-78.08 -371.811)">
          <line id="Línea_179-2" data-name="Línea 179" y2="9" transform="translate(109.58 371.811)" fill="none" stroke="#472ea6" stroke-miterlimit="10" stroke-width="1"/>
        </g>
        <g transform="translate(-47.08 -371.811)">
          <line id="Línea_179-3" data-name="Línea 179" y2="9" transform="translate(109.58 371.811)" fill="none" stroke="#472ea6" stroke-miterlimit="10" stroke-width="1"/>
        </g>
        <g transform="translate(-16.08 -371.811)">
          <line id="Línea_179-4" data-name="Línea 179" y2="9" transform="translate(109.58 371.811)" fill="none" stroke="#472ea6" stroke-miterlimit="10" stroke-width="1"/>
        </g>
        <g transform="translate(14.92 -371.811)">
          <line id="Línea_179-5" data-name="Línea 179" y2="9" transform="translate(109.58 371.811)" fill="none" stroke="#472ea6" stroke-miterlimit="10" stroke-width="1"/>
        </g>
        <g transform="translate(45.92 -371.811)">
          <line id="Línea_179-6" data-name="Línea 179" y2="9" transform="translate(109.58 371.811)" fill="none" stroke="#472ea6" stroke-miterlimit="10" stroke-width="1"/>
        </g>
        <g transform="translate(76.92 -371.811)">
          <line id="Línea_179-7" data-name="Línea 179" y2="9" transform="translate(109.58 371.811)" fill="none" stroke="#472ea6" stroke-miterlimit="10" stroke-width="1"/>
        </g>
      </g>
      <line id="Línea_164" data-name="Línea 164" x1="10.41" transform="translate(99.17 289.97)" fill="none" stroke="#472ea6" stroke-miterlimit="10" stroke-width="1"/>
      <line id="Línea_165" data-name="Línea 165" x1="10.41" transform="translate(99.17 251.6)" fill="none" stroke="#472ea6" stroke-miterlimit="10" stroke-width="1"/>
      <line id="Línea_166" data-name="Línea 166" x1="10.41" transform="translate(99.17 213.23)" fill="none" stroke="#472ea6" stroke-miterlimit="10" stroke-width="1"/>
      <line id="Línea_167" data-name="Línea 167" x1="10.41" transform="translate(99.17 174.86)" fill="none" stroke="#472ea6" stroke-miterlimit="10" stroke-width="1"/>
      <line id="Línea_168" data-name="Línea 168" x1="10.41" transform="translate(99.17 136.48)" fill="none" stroke="#472ea6" stroke-miterlimit="10" stroke-width="1"/>
      <line id="Línea_169" data-name="Línea 169" x1="10.41" transform="translate(99.17 98.11)" fill="none" stroke="#472ea6" stroke-miterlimit="10" stroke-width="1"/>
      <line id="Línea_170" data-name="Línea 170" x2="582.8" transform="translate(109.58 371.81)" fill="none" stroke="#472ea6" stroke-miterlimit="10" stroke-width="1"/>
      <path id="Trazado_34040" data-name="Trazado 34040" d="M172.18,330.51l29.2-32.39,20.5-37.21,17.17-34.59,20.86-37.64,15.9-48.13,9.63-46" fill="none" stroke="#fd8f25" stroke-width="2"/>
      <g id="Trazado_35194" data-name="Trazado 35194">
        <path id="Trazado_102019" data-name="Trazado 102019" d="M200.05,302.45a3.24,3.24,0,1,1,2.3-.945,3.25,3.25,0,0,1-2.3.945Z" fill="#fff"/>
        <path id="Trazado_102020" data-name="Trazado 102020" d="M200.05,296.68a2.53,2.53,0,1,0,2.53,2.53,2.53,2.53,0,0,0-2.53-2.53m0-1.44a4,4,0,1,1-4,4A4,4,0,0,1,200.05,295.24Z" fill="#fd8f25"/>
      </g>
      <g id="Trazado_35195" data-name="Trazado 35195">
        <path id="Trazado_102021" data-name="Trazado 102021" d="M221.68,263.52a3.25,3.25,0,1,1,3.24-3.24,3.25,3.25,0,0,1-3.24,3.24Z" fill="#fff"/>
        <path id="Trazado_102022" data-name="Trazado 102022" d="M221.68,257.75a2.53,2.53,0,1,0,2.52,2.53,2.53,2.53,0,0,0-2.52-2.53m0-1.44a4,4,0,1,1-4,4A4,4,0,0,1,221.68,256.31Z" fill="#fd8f25"/>
      </g>
      <g id="Trazado_35196" data-name="Trazado 35196">
        <path id="Trazado_102023" data-name="Trazado 102023" d="M240.42,228.92a3.25,3.25,0,1,1,3.25-3.25,3.25,3.25,0,0,1-3.25,3.25Z" fill="#fff"/>
        <path id="Trazado_102024" data-name="Trazado 102024" d="M240.42,223.15a2.52,2.52,0,1,0,1.788.735,2.53,2.53,0,0,0-1.788-.735m0-1.44a4,4,0,1,1-4,4A4,4,0,0,1,240.42,221.71Z" fill="#fd8f25"/>
      </g>
      <g id="Trazado_35197" data-name="Trazado 35197">
        <path id="Trazado_102025" data-name="Trazado 102025" d="M259.17,192.87a3.25,3.25,0,1,1,3.24-3.24A3.25,3.25,0,0,1,259.17,192.87Z" fill="#fff"/>
        <path id="Trazado_102026" data-name="Trazado 102026" d="M259.17,187.1a2.53,2.53,0,1,0,2.52,2.53,2.53,2.53,0,0,0-2.52-2.53m0-1.44a4,4,0,1,1-4,4A4,4,0,0,1,259.17,185.66Z" fill="#fd8f25"/>
      </g>
      <g id="Trazado_35198" data-name="Trazado 35198">
        <path id="Trazado_102027" data-name="Trazado 102027" d="M275.75,144.57a3.25,3.25,0,1,1,3.24-3.24A3.25,3.25,0,0,1,275.75,144.57Z" fill="#fff"/>
        <path id="Trazado_102028" data-name="Trazado 102028" d="M275.75,138.8a2.53,2.53,0,1,0,2.52,2.53,2.53,2.53,0,0,0-2.52-2.53m0-1.44a4,4,0,1,1-4,4A4,4,0,0,1,275.75,137.36Z" fill="#fd8f25"/>
      </g>
      <g id="Trazado_35199" data-name="Trazado 35199">
        <path id="Trazado_102029" data-name="Trazado 102029" d="M285.84,98.43a3.24,3.24,0,1,1,2.3-.945A3.25,3.25,0,0,1,285.84,98.43Z" fill="#fff"/>
        <path id="Trazado_102030" data-name="Trazado 102030" d="M285.84,92.66a2.53,2.53,0,1,0,2.53,2.53,2.53,2.53,0,0,0-2.53-2.53m0-1.44a4,4,0,1,1-4,4A4,4,0,0,1,285.84,91.22Z" fill="#fd8f25"/>
      </g>
      <g id="Trazado_35200" data-name="Trazado 35200">
        <path id="Trazado_102031" data-name="Trazado 102031" d="M171.94,333.45a3.25,3.25,0,1,1,3.24-3.24A3.25,3.25,0,0,1,171.94,333.45Z" fill="#fff"/>
        <path id="Trazado_102032" data-name="Trazado 102032" d="M171.94,327.68a2.53,2.53,0,1,0,2.52,2.53,2.53,2.53,0,0,0-2.52-2.53m0-1.44a4,4,0,1,1-4,4A4,4,0,0,1,171.94,326.24Z" fill="#fd8f25"/>
      </g>
      <path id="Trazado_34041" data-name="Trazado 34041" d="M328,330.57H174.58" fill="none" stroke="#b9b9b9" stroke-width="1"/>
      <path id="Trazado_34042" data-name="Trazado 34042" d="M328,299.57H204.14" fill="none" stroke="#b9b9b9" stroke-width="1"/>
      <path id="Trazado_34043" data-name="Trazado 34043" d="M329.46,260.64H225.77" fill="none" stroke="#b9b9b9" stroke-width="1"/>
      <path id="Trazado_34044" data-name="Trazado 34044" d="M329.46,226H244.51" fill="none" stroke="#b9b9b9" stroke-width="1"/>
      <path id="Trazado_34045" data-name="Trazado 34045" d="M328,190H262.53" fill="none" stroke="#b9b9b9" stroke-width="1"/>
      <path id="Trazado_34046" data-name="Trazado 34046" d="M328,141.69H279.84" fill="none" stroke="#b9b9b9" stroke-width="1"/>
      <path id="Trazado_34047" data-name="Trazado 34047" d="M329.46,94.83H289.93" fill="none" stroke="#b9b9b9" stroke-width="1"/>
      <text id="_2.20_por_galón_720_millones_de_galones_" data-name="($ 2.20 por galón, 720 millones de galones)" transform="translate(341.51 97.94)" fill="#12263f" font-size="16" font-family="Roboto-Regular, Roboto"><tspan x="0" y="0">($ 2.20 por galón, 720 millones de galones)</tspan></text>
      <text id="_300_400_500_600_700_800_900" data-name="300 400 500 600 700 800 900" transform="translate(95.53 401.01)" fill="#12263f" font-size="16" font-family="Roboto-Regular, Roboto"><tspan x="0" y="0">300 400 500 600 700 800 900</tspan></text>
      <text id="Cantidad_de_gasolina_millones_de_galones_" data-name="Cantidad de gasolina (millones de galones)" transform="translate(95.53 443.24)" fill="#12263f" font-size="16" font-family="Roboto-Bold, Roboto" font-weight="700"><tspan x="0" y="0">Cantidad de gasolina (millones de galones)</tspan></text>
      <text id="_2.00_por_galón_700_millones_de_galones_" data-name="($ 2.00 por galón, 700 millones de galones)" transform="translate(341.51 145.52)" fill="#12263f" font-size="16" font-family="Roboto-Regular, Roboto"><tspan x="0" y="0">($ 2.00 por galón, 700 millones de galones)</tspan></text>
      <text id="_1.80_por_galón_680_millones_de_galones_" data-name="($ 1.80 por galón, 680 millones de galones)" transform="translate(341.51 193.82)" fill="#12263f" font-size="16" font-family="Roboto-Regular, Roboto"><tspan x="0" y="0">($ 1.80 por galón, 680 millones de galones)</tspan></text>
      <text id="_1.60_por_galón_640_millones_de_galones_" data-name="($ 1.60 por galón, 640 millones de galones)" transform="translate(341.51 229.14)" fill="#12263f" font-size="16" font-family="Roboto-Regular, Roboto"><tspan x="0" y="0">($ 1.60 por galón, 640 millones de galones)</tspan></text>
      <text id="_1.40_por_galón_600_millones_de_galones_" data-name="($ 1.40 por galón, 600 millones de galones)" transform="translate(341.51 260.86)" fill="#12263f" font-size="16" font-family="Roboto-Regular, Roboto"><tspan x="0" y="0">($ 1.40 por galón, 600 millones de galones)</tspan></text>
      <text id="_1.20_por_galón_550_millones_de_galones_" data-name="($ 1.20 por galón, 550 millones de galones)" transform="translate(341.51 301.96)" fill="#12263f" font-size="16" font-family="Roboto-Regular, Roboto"><tspan x="0" y="0">($ 1.20 por galón, 550 millones de galones)</tspan></text>
      <text id="_1.00_por_galón_500_millones_de_galones_" data-name="($1.00 por galón, 500 millones de galones)" transform="translate(341.51 335.47)" fill="#12263f" font-size="16" font-family="Roboto-Regular, Roboto"><tspan x="0" y="0">($1.00 por galón, 500 millones de galones)</tspan></text>
    </g>
  </g>
</svg>
