<svg xmlns="http://www.w3.org/2000/svg" xmlns:xlink="http://www.w3.org/1999/xlink" width="365.497" height="201.318" viewBox="0 0 365.497 201.318">
  <defs>
    <clipPath id="clip-path">
      <rect id="Rectángulo_3480" data-name="Rectángulo 3480" width="267.877" height="178.984" fill="none"/>
    </clipPath>
    <clipPath id="clip-path-3">
      <path id="Trazado_32880" data-name="Trazado 32880" d="M136.394,60.873c-14.859,5.461-15.656,8.612-31.177,14.434C92.346,80.05,77.943,84.46,65.379,89.8c-5.823,2.668-13.875,4.15-16.633,10.078-2.759,5.632-4.291,18.3.919,23.344l105.94,46.15c6.436,4.15,15.936-7,22.064-9.072,9.5-3.556,18.081-9.062,27.275-12.917,18.693-8,20.757-15.531,39.757-22.941,10.112-4.15,19-6.305,26.047-14.605,2.758-2.964,4.9-15.333,1.532-19.483-4.29-5.335-14.876-6.179-21.311-8.551-6.743-2.668-19.056-7.419-26.41-8.308-7.048-.889-60.584-16.428-67.326-17.613a20.121,20.121,0,0,0-3.09-.237c-6.344,0-11.932,2.93-17.748,5.232" transform="translate(-46.213 -55.641)" fill="none"/>
    </clipPath>
    <linearGradient id="linear-gradient" x1="-0.105" y1="1.253" x2="-0.102" y2="1.253" gradientUnits="objectBoundingBox">
      <stop offset="0" stop-color="#dcebf3"/>
      <stop offset="0.376" stop-color="#eff7fa"/>
      <stop offset="1" stop-color="#eff7fa"/>
    </linearGradient>
    <clipPath id="clip-path-5">
      <rect id="Rectángulo_3449" data-name="Rectángulo 3449" width="121.495" height="80.376" fill="none"/>
    </clipPath>
    <clipPath id="clip-path-6">
      <rect id="Rectángulo_3450" data-name="Rectángulo 3450" width="113.149" height="67.861" fill="none"/>
    </clipPath>
    <clipPath id="clip-path-7">
      <rect id="Rectángulo_3451" data-name="Rectángulo 3451" width="94.35" height="30.708" fill="none"/>
    </clipPath>
    <clipPath id="clip-path-8">
      <rect id="Rectángulo_3452" data-name="Rectángulo 3452" width="28.831" height="30.024" fill="none"/>
    </clipPath>
    <clipPath id="clip-path-9">
      <rect id="Rectángulo_3453" data-name="Rectángulo 3453" width="73.637" height="25.121" fill="none"/>
    </clipPath>
    <clipPath id="clip-path-10">
      <rect id="Rectángulo_3454" data-name="Rectángulo 3454" width="64.465" height="17.019" fill="none"/>
    </clipPath>
    <clipPath id="clip-path-11">
      <rect id="Rectángulo_3455" data-name="Rectángulo 3455" width="55.228" height="27.53" fill="none"/>
    </clipPath>
    <clipPath id="clip-path-12">
      <rect id="Rectángulo_3456" data-name="Rectángulo 3456" width="26.01" height="22.32" fill="none"/>
    </clipPath>
    <clipPath id="clip-path-13">
      <rect id="Rectángulo_3457" data-name="Rectángulo 3457" width="29.207" height="37.289" fill="none"/>
    </clipPath>
    <clipPath id="clip-path-14">
      <rect id="Rectángulo_3458" data-name="Rectángulo 3458" width="80.34" height="32.658" fill="none"/>
    </clipPath>
    <clipPath id="clip-path-15">
      <rect id="Rectángulo_3459" data-name="Rectángulo 3459" width="59.232" height="30.621" fill="none"/>
    </clipPath>
    <clipPath id="clip-path-16">
      <rect id="Rectángulo_3460" data-name="Rectángulo 3460" width="76.549" height="25.768" fill="none"/>
    </clipPath>
    <clipPath id="clip-path-17">
      <rect id="Rectángulo_3461" data-name="Rectángulo 3461" width="170.054" height="54.779" fill="none"/>
    </clipPath>
    <clipPath id="clip-path-18">
      <rect id="Rectángulo_3462" data-name="Rectángulo 3462" width="16.689" height="29.848" fill="none"/>
    </clipPath>
    <clipPath id="clip-path-19">
      <rect id="Rectángulo_3463" data-name="Rectángulo 3463" width="93.138" height="43.396" fill="none"/>
    </clipPath>
    <clipPath id="clip-path-20">
      <rect id="Rectángulo_3464" data-name="Rectángulo 3464" width="2.472" height="2.466" fill="none"/>
    </clipPath>
    <clipPath id="clip-path-21">
      <path id="Trazado_32936" data-name="Trazado 32936" d="M257.592,214.339a.879.879,0,0,0,.748.969.837.837,0,0,0,.882-.81.88.88,0,0,0-.748-.967.663.663,0,0,0-.075,0,.841.841,0,0,0-.807.811" transform="translate(-257.589 -213.528)" fill="none"/>
    </clipPath>
    <radialGradient id="radial-gradient" cx="0.499" cy="0.49" r="0.38" gradientTransform="matrix(-1.083, -0.097, 0.114, -1.084, -155.437, 50.104)" gradientUnits="objectBoundingBox">
      <stop offset="0" stop-color="#e6e6e6"/>
      <stop offset="1" stop-color="gray"/>
    </radialGradient>
    <clipPath id="clip-path-23">
      <rect id="Rectángulo_3466" data-name="Rectángulo 3466" width="2.471" height="2.465" fill="none"/>
    </clipPath>
    <clipPath id="clip-path-24">
      <path id="Trazado_32940" data-name="Trazado 32940" d="M250.85,274.193a.878.878,0,0,0,.747.968.835.835,0,0,0,.882-.807.883.883,0,0,0-.748-.97c-.025,0-.049,0-.074,0a.842.842,0,0,0-.807.812" transform="translate(-250.847 -273.381)" fill="none"/>
    </clipPath>
    <radialGradient id="radial-gradient-2" cx="0.499" cy="0.491" r="0.38" gradientTransform="matrix(-1.084, -0.097, 0.115, -1.084, -149.779, 17.727)" xlink:href="#radial-gradient"/>
    <clipPath id="clip-path-26">
      <rect id="Rectángulo_3468" data-name="Rectángulo 3468" width="2.408" height="2.306" fill="none"/>
    </clipPath>
    <clipPath id="clip-path-27">
      <path id="Trazado_32969" data-name="Trazado 32969" d="M467.441,96.139a.96.96,0,0,0-.854.906.722.722,0,0,0,.73.833.968.968,0,0,0,.856-.907.727.727,0,0,0-.7-.833h-.036" transform="translate(-466.584 -96.138)" fill="none"/>
    </clipPath>
    <radialGradient id="radial-gradient-3" cx="0.499" cy="0.495" r="0.411" gradientTransform="matrix(-1.002, -0.047, 0.052, -1.097, -276.229, 129.433)" xlink:href="#radial-gradient"/>
    <clipPath id="clip-path-30">
      <path id="Trazado_32977" data-name="Trazado 32977" d="M462.878,159.561a.964.964,0,0,0-.857.906.723.723,0,0,0,.73.833.966.966,0,0,0,.856-.906.728.728,0,0,0-.695-.834h-.034" transform="translate(-462.018 -159.56)" fill="none"/>
    </clipPath>
    <radialGradient id="radial-gradient-4" cx="0.499" cy="0.495" r="0.411" gradientTransform="matrix(-1.003, -0.047, 0.052, -1.097, -272.848, 90.719)" xlink:href="#radial-gradient"/>
    <clipPath id="clip-path-32">
      <path id="Trazado_32982" data-name="Trazado 32982" d="M145.765,70.246c-3.313,1.057-11.756,1.778-13.2,5.231l1.931-.155c4.137-1.293,10.693.652,15.394,1.073,12.492,1.119,25.55,9.817,36.813,15.279,5.336,2.588,59.043,17.588,64.289,20.142,5.069,2.47,9.3,7.42,8.995,13.069-.231,4.245.582,9.334-.571,14.234-1.138,4.833,4.432,4.55,9.108,3.83,2.273-.35,7.3-.908,9.577-1.479a15.193,15.193,0,0,0,3.452-1.269c2.006-1.14,2.649-.485,3.363-2.568,1.448-4.22.671-9.469,1.393-13.752,1.557-9.225.9-19.571-8.225-24.595-5.158-2.841-11.647-2.878-17.519-3.743-6.965-1.025-61.495-15.355-67.835-18.2-9.8-4.4-20.226-8.549-31.526-9.637-.86-.083-1.691-.121-2.5-.121-4.612,0-8.509,1.251-12.943,2.665" transform="translate(-132.569 -67.581)" fill="none"/>
    </clipPath>
    <linearGradient id="linear-gradient-2" x1="-0.435" y1="1.124" x2="-0.431" y2="1.124" gradientUnits="objectBoundingBox">
      <stop offset="0" stop-color="#f8f8f8"/>
      <stop offset="0.695" stop-color="#f8f8f8"/>
      <stop offset="1" stop-color="#bdbdbd"/>
    </linearGradient>
    <clipPath id="clip-path-34">
      <rect id="Rectángulo_3474" data-name="Rectángulo 3474" width="129.816" height="71.692" fill="none"/>
    </clipPath>
    <clipPath id="clip-path-35">
      <rect id="Rectángulo_3475" data-name="Rectángulo 3475" width="104.827" height="37.234" fill="none"/>
    </clipPath>
    <clipPath id="clip-path-36">
      <rect id="Rectángulo_3476" data-name="Rectángulo 3476" width="27.692" height="34.667" fill="none"/>
    </clipPath>
    <clipPath id="clip-path-37">
      <rect id="Rectángulo_3477" data-name="Rectángulo 3477" width="31.35" height="45.355" fill="none"/>
    </clipPath>
    <clipPath id="clip-path-38">
      <rect id="Rectángulo_3478" data-name="Rectángulo 3478" width="263.348" height="123.605" fill="none"/>
    </clipPath>
    <clipPath id="clip-path-39">
      <rect id="Rectángulo_3492" data-name="Rectángulo 3492" width="194.42" height="76.55" fill="none"/>
    </clipPath>
    <clipPath id="clip-path-40">
      <path id="Trazado_32997" data-name="Trazado 32997" d="M163.731,0C143.521.026,65.31,1.366,33.965,4.593-10.095,9.132-9.026,67.775,24.178,75.674a33.235,33.235,0,0,0,7.594.876h.2a39.826,39.826,0,0,0,5.906-.465c45.96-6.945,82.182-16.539,107.009-18.743s34.317-1.835,34.317-1.835a43.351,43.351,0,0,0,11.208-12.885,29.883,29.883,0,0,0,4-14.481v-.215q0-.842-.06-1.7a29.528,29.528,0,0,0-2.189-9.25,22.045,22.045,0,0,0-1.264-2.6l-20.142-.2,17.709-3.337a28.406,28.406,0,0,0-6.406-5.62A33.264,33.264,0,0,0,168.4.053C168,.02,166.775,0,164.863,0Z" transform="translate(-0.005)" fill="none"/>
    </clipPath>
    <linearGradient id="linear-gradient-3" x1="0.086" y1="0.86" x2="0.092" y2="0.86" gradientUnits="objectBoundingBox">
      <stop offset="0" stop-color="#a15c34"/>
      <stop offset="0.285" stop-color="#9c5730"/>
      <stop offset="0.625" stop-color="#8d4b25"/>
      <stop offset="0.991" stop-color="#753714"/>
      <stop offset="1" stop-color="#753714"/>
    </linearGradient>
    <clipPath id="clip-path-42">
      <rect id="Rectángulo_3482" data-name="Rectángulo 3482" width="139.202" height="33.133" fill="none"/>
    </clipPath>
    <clipPath id="clip-path-43">
      <path id="Trazado_32998" data-name="Trazado 32998" d="M180,25.052c-2.845,2.347-5.927,4.508-6.519,4.631-.991.206-2.046,1.252-6.882.873s-10.04-.22-13.265-.472-4.236.233-10.382.034-6.406-1.067-13.008.395a70.126,70.126,0,0,1-13.44,1.772c-.967-.076-1.222-.942-5.869.388s-4.712,2.174-7.615,1.947,1.334-.461-5.459-.71-7.136.007-8.081-.35-1.224-.944-5.161-.4l-5.246.718c-1.311.181-3.7,1.689-6.3,1.767s1.979-.41-5.224.438-6.492.058-8.75-.119l-5.48-.43a13.977,13.977,0,0,0-4.236.234L40.8,13.084c2.021-.972,14.671-5.067,17.916-5.1s7.739.607,10.64.834,8.061.63,10.385-.035S96.813,6.168,96.813,6.168s3.033-1.457,9.46-.672,7,1.678,10.6,1.394,3.979-1.1,7.247-1.41,2.6-.078,6.537-.618,3.525.558,5.826.173,1.311-.18,4.924-.745-2.147-1.581,5.224-.438,8.319,1.5,9.952,1.344,2.946-.334,4.579-.488,2.346-.948,4.279-.8c1.1.087,1.678.131,2.269.127a28.372,28.372,0,0,1,6.4,5.62L156.4,13l20.142.2a22.367,22.367,0,0,1,1.264,2.6A29.557,29.557,0,0,1,180,25.052" transform="translate(-40.798 -3.333)" fill="none"/>
    </clipPath>
    <linearGradient id="linear-gradient-4" x1="-2.274" y1="0.893" x2="-2.244" y2="0.893" xlink:href="#linear-gradient-3"/>
    <clipPath id="clip-path-44">
      <rect id="Rectángulo_3484" data-name="Rectángulo 3484" width="71.868" height="7.719" fill="none"/>
    </clipPath>
    <clipPath id="clip-path-45">
      <path id="Trazado_32999" data-name="Trazado 32999" d="M49.454,26.31s27.649-.944,29-1.685,1.575-3.549,4.41-2.48,9.2,2.7,11.411,3.434,9.371.452,10.382-.034,4.2-3.909,4.2-3.909,6.882-.875,8.172-.773-12.941-.448-14.253-.268-7.7,3.069-9.916,2.331-9.753-3.871-11.667-4.3-7.723,3.35-10.69,3.964A52.39,52.39,0,0,1,59.692,24c-5.2.157-14.444-1.978-14.444-1.978Z" transform="translate(-45.248 -18.591)" fill="none"/>
    </clipPath>
    <linearGradient id="linear-gradient-5" x1="-6.579" y1="1.15" x2="-6.481" y2="1.15" xlink:href="#linear-gradient-3"/>
    <clipPath id="clip-path-46">
      <rect id="Rectángulo_3486" data-name="Rectángulo 3486" width="68.032" height="8.269" fill="none"/>
    </clipPath>
    <clipPath id="clip-path-47">
      <path id="Trazado_33000" data-name="Trazado 33000" d="M78.136,9.911c1.31-.18,13.505-2.615,17.075-2.618s10.185,2.492,11.13,2.849,7.782.043,10.839-1.694,5.29-1.282,6.991-2.278,13.695-.906,13.695-.906-1.509,2.707-2.477,2.631-10.317-.807-12.04.471S117.3,11,115.3,11.691s-9.762.366-11.329-.322a28.584,28.584,0,0,0-7.006-1.678c-1.935-.151-11.335,3.915-12.3,3.838s-7.46-.018-7.46-.018l-7.371-1.142Z" transform="translate(-69.833 -5.262)" fill="none"/>
    </clipPath>
    <linearGradient id="linear-gradient-6" x1="-8.864" y1="1.454" x2="-8.765" y2="1.454" xlink:href="#linear-gradient-3"/>
    <clipPath id="clip-path-48">
      <rect id="Rectángulo_3488" data-name="Rectángulo 3488" width="166.238" height="35.262" fill="none"/>
    </clipPath>
    <clipPath id="clip-path-49">
      <path id="Trazado_33001" data-name="Trazado 33001" d="M184.121,31.873a40.341,40.341,0,0,1-4.124,6v.007a42.084,42.084,0,0,1-7.085,6.875s-9.49-.365-34.317,1.833S77.547,58.39,31.587,65.335a40.3,40.3,0,0,1-5,.45,33.576,33.576,0,0,1-8.7-.861,26.475,26.475,0,0,1,2.739-3.176c4.932-4.981,37.614-20.5,37.614-20.5,17.068,1.618,47.557-2.492,50.636-4.512s3.276-4.545,7.122-3.963,5.842,4.13,11.088,3.411,16.34-1.547,20.73-3.745,14.452-2.259,15.352-1.341c.692.7,14.479.783,20.955.776" transform="translate(-17.884 -30.538)" fill="none"/>
    </clipPath>
    <linearGradient id="linear-gradient-7" x1="-1.71" y1="0.606" x2="-1.682" y2="0.606" xlink:href="#linear-gradient-3"/>
    <clipPath id="clip-path-50">
      <rect id="Rectángulo_3490" data-name="Rectángulo 3490" width="153.41" height="27.903" fill="none"/>
    </clipPath>
    <clipPath id="clip-path-51">
      <path id="Trazado_33002" data-name="Trazado 33002" d="M177.732,35.971a42.084,42.084,0,0,1-7.085,6.875s-9.49-.365-34.317,1.833S75.281,56.477,29.321,63.422a40.3,40.3,0,0,1-5,.45c3.238-2.977,20.77-9.855,20.77-9.855a31.4,31.4,0,0,0,9.672.757s4.6-.769,6.258-1.2,4.256-.514,7.57-1.384,3.656-1.126,7.825-.518,14.26-3.97,18.26-5.351,3.526.56,6.061,1.322,15.571-4.148,16.818-3.486,4.17.608,6.88-.875,5.4-2.684,6.991-2.277,4.471.915,4.471.915l8.023-3.045s1.832-2.681,3.291-.589a4.063,4.063,0,0,0,4.4,1.756c.988-.2,2.989-.9,5.311-1.562s3.891.022,4.859.1,1.656-.434,4.537.073a14.413,14.413,0,0,0,7.892-1.36,26.565,26.565,0,0,1,3.515-1.317" transform="translate(-24.321 -35.971)" fill="none"/>
    </clipPath>
    <linearGradient id="linear-gradient-8" x1="-2.254" y1="0.59" x2="-2.22" y2="0.59" xlink:href="#linear-gradient-3"/>
  </defs>
  <g id="Grupo_18892" data-name="Grupo 18892" transform="translate(-1075.38 -8461)">
    <g id="Grupo_12521" data-name="Grupo 12521" transform="translate(0 -15)">
      <g id="Grupo_12489" data-name="Grupo 12489" transform="translate(1173 8498.334)">
        <g id="Grupo_12488" data-name="Grupo 12488" clip-path="url(#clip-path)">
          <g id="Grupo_12391" data-name="Grupo 12391">
            <g id="Grupo_12390" data-name="Grupo 12390" clip-path="url(#clip-path)">
              <path id="Trazado_32864" data-name="Trazado 32864" d="M21.245,172.6C17,171.589,2.018,170.732,1.052,164.195c-.483-4.67,14.4-7.939,18.744-9.341,28.485-11.675,108.594-2.584,135.147-18.929,8.208-5.137-47.277-18.9-41.483-26.369,4.346-5.136,8.208-12.609,13.037-16.344,7.242-5.6,60.313,11.425,67.072,14.694,9.173,4.67,19.795,7.472,29.451,12.142,6.276,3.269,14,6.071,19.312,10.741s10.384,8.714,16.835,11.756c16.32,7.7-.8,13.25-13.466,16.771-13.025,3.622-23.165,8.366-33.3,13.036-21.244,9.34-26.073,13.543-46.35,24.75-6.76,4.2-14,11.209-19.313,16.812-6.276,7.472-10.307,6.244-17.864,1.868-13.256-7.676-47.109-20.853-58.213-26.456,0,0-37.519-13.892-49.414-16.725" transform="translate(-0.455 -40.309)" fill="#ccc"/>
              <path id="Trazado_32865" data-name="Trazado 32865" d="M209.31,69.539l-.852-65.826,7.964,2.626-2.494,65.573Z" transform="translate(-91.245 -1.625)" fill="#bc753b"/>
              <path id="Trazado_32866" data-name="Trazado 32866" d="M220.679,6.676l8.034-2.191-7.434,66.093-3.094,1.672Z" transform="translate(-95.504 -1.963)" fill="#905b2e"/>
              <path id="Trazado_32867" data-name="Trazado 32867" d="M208.458,2.087l7.964,2.626,8.033-2.191L217.048,0Z" transform="translate(-91.246 0)" fill="#d19a6d"/>
              <path id="Trazado_32868" data-name="Trazado 32868" d="M220.916,8.382l-2.063,54.259s-.889-41.905,2.063-54.259" transform="translate(-95.741 -3.669)" fill="#d19a6d"/>
              <path id="Trazado_32869" data-name="Trazado 32869" d="M228.5,19.81l4.321-1.53s81.227-8.515,121.768,32.231l-.514,5.332Z" transform="translate(-100.017 -7.678)" fill="#d19a6d"/>
              <path id="Trazado_32870" data-name="Trazado 32870" d="M352.059,56.456S332.88,37.11,284.51,25c-32.088-7.337-58.027-4.009-58.027-4.009L223.9,67.157l125.29,37.049,2.872-46.044Z" transform="translate(-98.004 -8.859)" fill="#ac6c37"/>
              <path id="Trazado_32871" data-name="Trazado 32871" d="M228.5,20.706s63.8-5.7,118.993,30.209c0,0-47.285-38.285-118.993-30.209" transform="translate(-100.017 -8.573)" fill="#dfb899"/>
              <path id="Trazado_32872" data-name="Trazado 32872" d="M352.552,60.653c-8.508,7.293-9.546,6.662-20.406,3.882-3.862-1.245-7.724-1.245-11.588-3.113-4.184-1.868-7.4-4.359-11.909-4.981-7.4-1.245-62.4-15.784-69.808-17.652-12.193-3.326-10.417-7.535-10.6-18.044-.732.288-1.123.468-1.123.468l-1.772,31.633c1,.21,1.882.4,2.552.575,24.784,7.161,97.167,24.19,120.02,36.332.977.472,1.885.935,2.734,1.363Z" transform="translate(-98.638 -9.08)" fill="#9b6132"/>
              <path id="Trazado_32873" data-name="Trazado 32873" d="M410.185,56.5l3.667-1.2L411.2,57.1v3.1Z" transform="translate(-179.545 -24.207)" fill="#905b2e"/>
              <path id="Trazado_32874" data-name="Trazado 32874" d="M414.64,55.3l-2.656,1.8v3.1l1.329-3.2Z" transform="translate(-180.333 -24.207)" fill="#dfb899"/>
              <path id="Trazado_32875" data-name="Trazado 32875" d="M215.559,9.289l1.774-3.014,2.425-1.058-4.215.467Z" transform="translate(-94.347 -2.284)" fill="#774b27"/>
              <path id="Trazado_32876" data-name="Trazado 32876" d="M271.129,22.7V20.446l1.329-1.877-2.592,1.505,1.263,3.587Z" transform="translate(-118.125 -8.128)" fill="#dfb899"/>
              <path id="Trazado_32877" data-name="Trazado 32877" d="M269.7,23.661l-1.263-3.587,2.592-1.506-4.426,1.685Z" transform="translate(-116.698 -8.127)" fill="#905b2e"/>
              <path id="Trazado_32878" data-name="Trazado 32878" d="M253.543,134.012,304.9,147.33,188.472,207.817l-76.815-36.169L229.7,122.817Z" transform="translate(-48.874 -53.759)" fill="#774b27"/>
              <path id="Trazado_32879" data-name="Trazado 32879" d="M360.1,153,251.7,210.137l-3.574-1.036,110.428-58.914s7.3-3.094,1.543,2.809" transform="translate(-108.611 -65.385)" fill="#362b25"/>
            </g>
          </g>
          <g id="Grupo_12393" data-name="Grupo 12393" transform="translate(25.985 31.286)">
            <g id="Grupo_12392" data-name="Grupo 12392" clip-path="url(#clip-path-3)">
              <rect id="Rectángulo_3448" data-name="Rectángulo 3448" width="231.196" height="117.876" transform="translate(-1.758 0)" fill="url(#linear-gradient)"/>
            </g>
          </g>
          <g id="Grupo_12443" data-name="Grupo 12443">
            <g id="Grupo_12442" data-name="Grupo 12442" clip-path="url(#clip-path)">
              <path id="Trazado_32881" data-name="Trazado 32881" d="M277.54,165.818c18.693-8,20.757-15.531,39.757-22.941,10.113-4.151,19-6.306,26.048-14.605,2.758-2.964,4.9-15.333,1.532-19.483-4.29-5.335-14.876-6.18-21.311-8.551-1.8-.714-4.006-1.576-6.4-2.473a12.462,12.462,0,0,1,1.608.795c1.77,1.09,3.379,2.49,5.311,3.269,2.414.934,4.989.622,7.564,1.4,3.862,1.09,9.334,2.8,11.427,6.538,4.024,6.693.644,15.411-4.184,20.392-.483-2.024.482-4.67-.644-6.538-.644,1.868.644,5.292-.483,6.849-1.931,2.491-3.218-.778-3.7-2.8-.643-2.179-.8-8.406-3.218-9.34.965,2.919,2.575,7.161,1.931,10.586-.161,1.556-.873,5.247-2.415,6.382-6.276,4.62-7.242-1.324-7.564-3.892-1.126.624.323,5.293-.16,6.695-.643,1.712-3.058,2.023-4.506,3.269a5.538,5.538,0,0,1-4.668,1.245c-2.092-.778-1.931-3.579-3.7-2.335-1.448.934-1.77,3.425-3.541,4.514a19.8,19.8,0,0,1-5.793,2.8c-3.7,1.246-8.208,1.868-11.1,4.67-1.288,1.4-1.932,3.269-3.54,4.515-1.61,1.4,10.46-2.491,8.529-1.4-2.9,1.556-6.921,4.2-10.3,2.957-2.736-.933-2.9-2.957-4.506.157-.805,1.4-.965,3.268-1.931,4.669-1.61,2.646-3.058,2.646-5.311,3.269-1.77.467-4.183,3.114-4.827-.311-1.771,1.712-2.092,3.892-4.345,5.449a34.2,34.2,0,0,1-6.76,3.424c-1.77.778-4.667,1.712-6.277,0-1.609-1.868,0-4.981-.322-7-2.575,2.179-1.609,7-2.9,9.962-1.61,3.581-5.633,3.581-7.726.156-3.058-4.981-.391-14.908,2.413-20.392,1.288-4.047-3.862-3.113-6.276-3.269-3.541-.312-7.4-1.713-10.782-2.958-3.7-1.556-9.5-4.981-11.748.311-2.9,7,4.666,15.411,8.208,20.859,1.77,2.958,2.575,4.359,1.609,7.628a15.867,15.867,0,0,0-.605,3.655l6.277,3.867c6.436,4.15,15.936-7,22.065-9.071,9.5-3.557,18.08-9.063,27.274-12.917" transform="translate(-92.825 -42.793)" fill="#d6e3e9"/>
              <g id="Grupo_12396" data-name="Grupo 12396" transform="translate(132.282 65.555)" style="mix-blend-mode: multiply;isolation: isolate">
                <g id="Grupo_12395" data-name="Grupo 12395">
                  <g id="Grupo_12394" data-name="Grupo 12394" clip-path="url(#clip-path-5)">
                    <path id="Trazado_32882" data-name="Trazado 32882" d="M354.648,116.587c-.437,3.642-8.908,6.156-11.726,7.179-6.76,2.8-8.691,7-15.933,8.406-14,2.335-23.174,8.873-36.21,13.543-6.277,2.335,1.447-.935-4.346,2.335-6.277,3.736-10.622,9.34-15.933,14.01-9.657,7-27.52,10.273-32.348,21.481a39.085,39.085,0,0,0-2.894,10.6l3.094,1.906c6.436,4.15,15.936-7,22.065-9.071,9.5-3.557,18.08-9.062,27.273-12.917,18.693-8,20.757-15.531,39.757-22.941,10.113-4.151,19-6.306,26.048-14.605,2.758-2.964,4.9-15.333,1.532-19.483-.121-.151-.25-.3-.38-.441" transform="translate(-235.26 -116.587)" fill="#f8f8f8"/>
                  </g>
                </g>
              </g>
              <path id="Trazado_32883" data-name="Trazado 32883" d="M249.2,235.647l111.918-58.762.3-9.1L248.27,227.5Z" transform="translate(-108.672 -73.443)" fill="#905b2e"/>
              <path id="Trazado_32884" data-name="Trazado 32884" d="M433.952,174.48,413,185.532l20.956-8Z" transform="translate(-180.776 -76.373)" fill="#774b27"/>
              <path id="Trazado_32885" data-name="Trazado 32885" d="M247.04,275.076l15.9-5.56-15.29,8.051Z" transform="translate(-108.134 -117.972)" fill="#774b27"/>
              <g id="Grupo_12399" data-name="Grupo 12399" transform="translate(139.598 94.343)" style="mix-blend-mode: multiply;isolation: isolate">
                <g id="Grupo_12398" data-name="Grupo 12398">
                  <g id="Grupo_12397" data-name="Grupo 12397" clip-path="url(#clip-path-6)">
                    <path id="Trazado_32886" data-name="Trazado 32886" d="M404.857,181.034c.015-.006,21.716-9.872,20.143-6.3s-14.772,12.349-14.805,12.371l19.462-10.219.3-9.1Z" transform="translate(-316.811 -167.786)" fill="#ccc"/>
                    <path id="Trazado_32887" data-name="Trazado 32887" d="M300.988,240.114,269.679,255.7s-14.731,8.716-14.572,4.556a4.547,4.547,0,0,1,3.95-4.556,97.123,97.123,0,0,1,12.6-8.888L248.27,259.16l.928,8.146Z" transform="translate(-248.27 -199.445)" fill="#ccc"/>
                  </g>
                </g>
              </g>
              <path id="Trazado_32888" data-name="Trazado 32888" d="M362.981,154.486l-.18,5.722L253.66,218.223l-1.131-5.294Z" transform="translate(-110.537 -67.621)" fill="#503f36"/>
              <path id="Trazado_32889" data-name="Trazado 32889" d="M359.385,157.737c.9,1.342-1.6,4.651-7.616,6.644s-23.174,11.413-28.163,14.524-23.574,15.441-36.372,20.705-28.284,15.567-30.263,13.578c-1.769-1.777,2.783-4.263,3.77-4.771l-8.212,4.148,1.131,5.294L362.8,159.844l.181-6.188-14.967,8.479s10.469-5.74,11.37-4.4" transform="translate(-110.536 -67.258)" fill="#362b25"/>
              <path id="Trazado_32890" data-name="Trazado 32890" d="M267.461,250.881h0l-.006,0,.006,0" transform="translate(-117.07 -109.815)" fill="#362b25"/>
              <path id="Trazado_32891" data-name="Trazado 32891" d="M29.34,111.714c1.448-6.071.7-10.206,2.414-17.278.966-3.986,13.518-7.005,18.83-8.406,12.553-3.736,27.949-7,40.985-9.807,15.933-4.2,11.1-6.538,28.486-3.269,12.07,1.868,71.9,20.3,83.97,23.567,11.105,2.8,28.969,1.4,34.28,12.609,4.829,11.675-2.9,24.283,0,35.491-11.1,4.67-19.795,11.675-31.383,15.411-11.1,3.269-7.725,1.4-18.829,4.67-11.105,3.736-18.829,16.812-29.934,18.213-6.759.935-14.967-4.67-20.278-8.873C125.81,165.169,67.911,143,56.806,132.728Z" transform="translate(-12.843 -31.259)" fill="#e74131"/>
              <g id="Grupo_12402" data-name="Grupo 12402" transform="translate(138.445 16.763)" style="mix-blend-mode: multiply;isolation: isolate">
                <g id="Grupo_12401" data-name="Grupo 12401">
                  <g id="Grupo_12400" data-name="Grupo 12400" clip-path="url(#clip-path-7)">
                    <path id="Trazado_32892" data-name="Trazado 32892" d="M340.568,49.945c-4.549-1.137-8.719-3.791-13.269-5.118a59.228,59.228,0,0,0-12.7-2.085c-10.235-.758-10.235-.758-25.968-7.013-9.878-3.927-30.327-6.255-40.753-5.876-3.412.189-.568-.759-.189,4.17.38,3.222,5.118,6.445,7.2,8.53,4.928,5.118,11.183,9.288,17.249,12.7,15.164,8.34,32.981,5.307,48.524.948Z" transform="translate(-246.219 -29.812)" fill="#ccc"/>
                  </g>
                </g>
              </g>
              <g id="Grupo_12405" data-name="Grupo 12405" transform="translate(156.055 26.728)" style="mix-blend-mode: multiply;isolation: isolate">
                <g id="Grupo_12404" data-name="Grupo 12404">
                  <g id="Grupo_12403" data-name="Grupo 12403" clip-path="url(#clip-path-8)">
                    <path id="Trazado_32893" data-name="Trazado 32893" d="M299.562,47.535c1.795.717,5,5.656,6.086,7.993a4.756,4.756,0,0,1,.61,3.308c-.59,1.375-3.116,4.351-4.1,5.919-1.724,2.626-10.78,9.758-17.154,10.835-1.818.307-3.541,1.492-5.344,1.861-4.964.856.224-3.527,1.127-7.992.959-4.2,1.579-7.6,3.424-11.218,5.487-4.149,10.6-7.69,15.351-10.706" transform="translate(-277.539 -47.535)" fill="#ccc"/>
                  </g>
                </g>
              </g>
              <path id="Trazado_32894" data-name="Trazado 32894" d="M188.47,55.957c6.841-6.579,8.251-14.395,12.535-19.848,4.53-5.418,10.845-6.576,12.9-13.217,3.362,2.215,5.58-.806,21.3,2.214,4.52.861,8.781,3.925,12.947,6.544,4.709,2.589,9.581,2.755,13.963,5.029-.876,1.919.408,4.447-.15,6.614-.76,2.445-1.2,5.147-2.159,7.5-1.533,3.808-8.329,10-13.467,12.634-8.171,4.071-22.83,2.6-30.34.407a188.335,188.335,0,0,1-27.523-7.879" transform="translate(-82.497 -10.02)" fill="#e9f0f0"/>
              <path id="Trazado_32895" data-name="Trazado 32895" d="M229.724,31.468a23.359,23.359,0,0,1,13.726-1.592c-.056.087-7.492-3.237-13.726,1.592" transform="translate(-100.554 -12.624)" fill="#fff"/>
              <g id="Grupo_12408" data-name="Grupo 12408" transform="translate(105.973 30.857)" style="mix-blend-mode: multiply;isolation: isolate">
                <g id="Grupo_12407" data-name="Grupo 12407">
                  <g id="Grupo_12406" data-name="Grupo 12406" clip-path="url(#clip-path-9)">
                    <path id="Trazado_32896" data-name="Trazado 32896" d="M262.034,54.878a12.571,12.571,0,0,0-.348,1.712c-.356,1.32-1.052,1.821-2.143,2.827-1.126.924-1.96,2.109-3.33,2.856-1.594.784-3.239,1.136-4.7,2.139-2.424,1.745-3.993,3.036-7.255,4.008-3.031.919-6.089,2.544-9.395,3.215a52.256,52.256,0,0,1-9.375.879c-7.178.27-13.092-2.616-19.711-3.915-3.795-.718-8.4-1.7-10.214-6.076a8.009,8.009,0,0,1-.427-1.826,34.51,34.51,0,0,1-6.669,9.261,188.432,188.432,0,0,0,27.524,7.879c7.51,2.193,22.17,3.664,30.34-.408C251.472,74.794,258.268,68.6,259.8,64.8c.96-2.355,1.4-5.057,2.159-7.5a6.691,6.691,0,0,0,.075-2.416" transform="translate(-188.47 -54.878)" fill="#f1f4f4"/>
                  </g>
                </g>
              </g>
              <path id="Trazado_32897" data-name="Trazado 32897" d="M304.749,65.87a4,4,0,0,1-3.571,3.809c-2.349.137-4.57-.907-6.917-.914a31.631,31.631,0,0,0,8.726,1.968c-.537,1.185-2.245,1.884-3.252,2.936,4.192-.791,3.978-4.983,5.378-7.138q-.181-.329-.363-.661" transform="translate(-128.803 -28.832)" fill="#bdcbcd"/>
              <g id="Grupo_12411" data-name="Grupo 12411" transform="translate(105.973 38.959)" style="mix-blend-mode: multiply;isolation: isolate">
                <g id="Grupo_12410" data-name="Grupo 12410">
                  <g id="Grupo_12409" data-name="Grupo 12409" clip-path="url(#clip-path-10)">
                    <path id="Trazado_32898" data-name="Trazado 32898" d="M246.333,83.737a34.925,34.925,0,0,0,6.6-4.569c-3.276.061-7.131,1.777-10.056,2.387-3.677.773-7.409.513-11.083.428a86.12,86.12,0,0,1-19.952-3.469c-6.933-2.273-13.793-2.849-17.972-9.228a31.887,31.887,0,0,1-5.4,6.978,188.412,188.412,0,0,0,27.524,7.879c7.509,2.193,22.17,3.664,30.34-.408" transform="translate(-188.47 -69.287)" fill="#e6e6e6"/>
                  </g>
                </g>
              </g>
              <g id="Grupo_12414" data-name="Grupo 12414" transform="translate(118.497 18.032)" style="mix-blend-mode: screen;isolation: isolate">
                <g id="Grupo_12413" data-name="Grupo 12413">
                  <g id="Grupo_12412" data-name="Grupo 12412" clip-path="url(#clip-path-11)">
                    <path id="Trazado_32899" data-name="Trazado 32899" d="M239.356,32.311c-4.721.247-9.659-1.03-14.263.609A59.345,59.345,0,0,0,211.9,41.386c.956,4.441-2.856,8.255-.2,13.023,2.231,3.682,6.938,3.675,11.03,3.744,6.976.273,14.391,2.544,21.835.783,4.73-1.191,6.382-3.659,9.959-6.031,3.308-1.832,7.338-1.933,9.762-4.656,6.088-6.412-5.838-9.288-11.945-11.936a77.513,77.513,0,0,0-12.988-4" transform="translate(-210.743 -32.069)" fill="#666"/>
                  </g>
                </g>
              </g>
              <g id="Grupo_12417" data-name="Grupo 12417" transform="translate(153.376 33.537)" style="mix-blend-mode: multiply;isolation: isolate">
                <g id="Grupo_12416" data-name="Grupo 12416">
                  <g id="Grupo_12415" data-name="Grupo 12415" clip-path="url(#clip-path-12)">
                    <path id="Trazado_32900" data-name="Trazado 32900" d="M283.235,79.516c5.139-2.635,11.935-8.826,13.467-12.633.926-2.272,1.37-4.863,2.082-7.238-2.349.636-5.059.963-7.3,1.921-3.359,1.256-6.09,3.821-8.37,6.431-2.4,2.857-4.113,6.452-6.412,9.764-1.215,1.473-2.895,2.6-3.932,4.2a29.869,29.869,0,0,0,10.461-2.448" transform="translate(-272.774 -59.644)" fill="#e6e6e6"/>
                  </g>
                </g>
              </g>
              <g id="Grupo_12420" data-name="Grupo 12420" transform="translate(218.881 39.733)" style="mix-blend-mode: multiply;isolation: isolate">
                <g id="Grupo_12419" data-name="Grupo 12419">
                  <g id="Grupo_12418" data-name="Grupo 12418" clip-path="url(#clip-path-13)">
                    <path id="Trazado_32901" data-name="Trazado 32901" d="M413.542,70.664c1.949.54,3.876,10.343,4.795,14.014.486,1.985-.382,6.38-.825,8.052-.8,2.3-1.358,3.984-6.066,7.118a80.4,80.4,0,0,1-13.378,6.594,17.179,17.179,0,0,1-5.82,1.5c-5.336.148-2.114-1.18-.86-6.584,1.3-5.084,2.174-9.263,4.414-13.888q9.374-8.061,17.74-16.806" transform="translate(-389.273 -70.664)" fill="#b3b3b3"/>
                  </g>
                </g>
              </g>
              <path id="Trazado_32902" data-name="Trazado 32902" d="M291.743,80.983c7.3-3.851,8.873-10.708,13.522-15.1,4.921-4.39,11.855-5.293,14.2-12,3.7,1.956,2.524,1.137,20.061,1.735,5.046.1,13.329,1.034,17.827,3.57,5.1,2.411,10.541,1.383,15.22,3.609-1.159,3.173.021,6.759-.809,10.183-1.072,3.839-1.809,7.929-3.07,11.423-2.038,5.851-9.843,13.914-15.478,16.24-8.958,3.766-24.4-1.543-32.352-5.407a258.019,258.019,0,0,1-29.118-14.259" transform="translate(-127.701 -23.588)" fill="#e9f0f0"/>
              <path id="Trazado_32903" data-name="Trazado 32903" d="M336.551,62.214a34.657,34.657,0,0,1,15.187-2.129c-.052.019-8.287-2.536-15.187,2.129" transform="translate(-147.314 -26.002)" fill="#fff"/>
              <g id="Grupo_12423" data-name="Grupo 12423" transform="translate(164.042 45.692)" style="mix-blend-mode: multiply;isolation: isolate">
                <g id="Grupo_12422" data-name="Grupo 12422">
                  <g id="Grupo_12421" data-name="Grupo 12421" clip-path="url(#clip-path-14)">
                    <path id="Trazado_32904" data-name="Trazado 32904" d="M372.079,81.261c-.259.916-.4,1.885-.55,2.676-.518,2.065-1.331,2.923-2.618,4.531-1.316,1.486-2.33,3.268-3.887,4.4-1.8,1.186-3.617,1.716-5.278,3.081-2.761,2.351-4.547,3.97-8.131,4.98-3.329.958-6.716,2.611-10.3,2.955a44.482,44.482,0,0,1-10.106-.38c-7.7-.94-13.955-5.016-21.023-7.559-4.05-1.448-8.939-3.435-10.848-7.753a7.335,7.335,0,0,1-.443-1.725,20.16,20.16,0,0,1-7.151,6.5,258.21,258.21,0,0,0,29.118,14.259c7.949,3.864,23.394,9.173,32.352,5.407,5.635-2.326,13.44-10.389,15.478-16.239,1.261-3.495,2-7.585,3.07-11.424a14.543,14.543,0,0,0,.317-3.706" transform="translate(-291.743 -81.262)" fill="#f1f4f4"/>
                  </g>
                </g>
              </g>
              <path id="Trazado_32905" data-name="Trazado 32905" d="M417.517,98.548c0,2.3-1.927,5.327-4.211,5.582-2.553.189-4.883-1.226-7.433-1.234a29.172,29.172,0,0,0,9.3,2.719c-.684,1.69-2.585,2.624-3.755,4.014,4.573-.86,4.719-6.917,6.435-10.141q-.169-.471-.335-.94" transform="translate(-177.657 -43.136)" fill="#bdcbcd"/>
              <g id="Grupo_12426" data-name="Grupo 12426" transform="translate(176.247 35.377)" style="mix-blend-mode: screen;isolation: isolate">
                <g id="Grupo_12425" data-name="Grupo 12425">
                  <g id="Grupo_12424" data-name="Grupo 12424" clip-path="url(#clip-path-15)">
                    <path id="Trazado_32906" data-name="Trazado 32906" d="M344.509,62.916c-5.149.756-10.476-.265-15.474,1.421A114.284,114.284,0,0,0,314.81,71.63c.944,4.3-3.121,7.139-.417,12.039,2.263,3.872,7.178,4.893,11.475,5.672,7.325,1.443,15.011,5.11,22.943,3.985,5.054-.877,6.961-3.746,10.933-6.675,3.655-2.3,7.961-2.528,10.8-6.534,7.18-10.06-5.506-12.117-12.056-14.264-3.188-1.188-8.044-2.093-13.98-2.936" transform="translate(-313.449 -62.916)" fill="#666"/>
                  </g>
                </g>
              </g>
              <g id="Grupo_12429" data-name="Grupo 12429" transform="translate(164.042 52.581)" style="mix-blend-mode: multiply;isolation: isolate">
                <g id="Grupo_12428" data-name="Grupo 12428">
                  <g id="Grupo_12427" data-name="Grupo 12427" clip-path="url(#clip-path-16)">
                    <path id="Trazado_32907" data-name="Trazado 32907" d="M368.291,102.764c-1.93,2.084-3.535,5.19-5.726,6.784-3.6,2.649-6.37,2.149-10.347.4-5.562-2.279-11.755-3.547-17.552-4.683-3.162-.633-6.575-.832-9.741-1.607-3.3-.913-6.607-2.111-9.892-2.455-4-.577-17.138-1.573-17.439-7.688a19.108,19.108,0,0,1-5.852,4.814,258.057,258.057,0,0,0,29.118,14.259c7.949,3.864,23.394,9.173,32.353,5.407,5.318-2.194,12.565-9.5,15.078-15.23" transform="translate(-291.743 -93.514)" fill="#e6e6e6"/>
                  </g>
                </g>
              </g>
              <g id="Grupo_12432" data-name="Grupo 12432" transform="translate(30.134 45.742)" style="mix-blend-mode: screen;isolation: isolate">
                <g id="Grupo_12431" data-name="Grupo 12431">
                  <g id="Grupo_12430" data-name="Grupo 12430" clip-path="url(#clip-path-17)">
                    <path id="Trazado_32908" data-name="Trazado 32908" d="M222.042,114.879c-6.759-11.519-77.21-29.171-89.442-31.972L102.023,81.35c-1.254,0-2.513.037-3.775.089-11.634,2.6-25.765,5.581-37.049,8.94-1.677.442-4.075,1.046-6.6,1.79-5.036,4.414,10.214,8.781,15.883,10.974,8.047,3.425,65.227,16.826,72.63,21.5,13.84,8.095,25.352,13.549,42.411,10.747,9.657-1.868,14.957-5.873,24.291-8.365,6.76-1.868,18.025-2.49,12.23-12.142" transform="translate(-53.592 -81.35)" fill="#2f140c"/>
                  </g>
                </g>
              </g>
              <path id="Trazado_32909" data-name="Trazado 32909" d="M316.933,181.527c-.648.148-1.226.286-1.68.4-10.3,3.736-17.38,15.878-27.037,20.858-7.725,4.359-12.875,1.868-20.6,3.425-7.725,1.868-9.012,14.321-19.633,12.453-6.76-1.556-10.623-14.01-10.944-19.925L209.68,216.17c-.044.146-.087.3-.13.445,2.324,1.912,4.714,3.789,7.211,5.625,5.311,4.2,13.519,9.807,20.278,8.873,11.105-1.4,18.829-14.477,29.934-18.213,11.1-3.269,7.724-1.4,18.829-4.669,11.588-3.737,20.278-10.742,31.382-15.412a29.549,29.549,0,0,1-.251-11.292" transform="translate(-91.724 -79.458)" fill="#d33a32"/>
              <g id="Grupo_12435" data-name="Grupo 12435" transform="translate(210.29 89.536)" style="mix-blend-mode: overlay;isolation: isolate">
                <g id="Grupo_12434" data-name="Grupo 12434">
                  <g id="Grupo_12433" data-name="Grupo 12433" clip-path="url(#clip-path-18)">
                    <path id="Trazado_32910" data-name="Trazado 32910" d="M380.1,162.029c-2.317.949-4.8,2.172-5.687,4.674-1,2.8-.007,6.527.743,9.274.964,3.529,2.226,6.919,2.286,10.625a16.809,16.809,0,0,1-.172,2.481q.6-.338,1.208-.674a21.945,21.945,0,0,0,.046-3.158c-.223-3.437-1.483-6.689-2.382-9.982-.756-2.766-1.926-7.236.191-9.676a10.747,10.747,0,0,1,3.8-2.352,34.349,34.349,0,0,1,5.918-1.91c1.5-.368,3.009-.668,4.528-.936.038-.387.073-.774.1-1.16a50.342,50.342,0,0,0-10.58,2.793" transform="translate(-373.993 -159.236)" fill="#666"/>
                  </g>
                </g>
              </g>
              <g id="Grupo_12438" data-name="Grupo 12438" transform="translate(132.323 108.363)" style="mix-blend-mode: multiply;isolation: isolate">
                <g id="Grupo_12437" data-name="Grupo 12437">
                  <g id="Grupo_12436" data-name="Grupo 12436" clip-path="url(#clip-path-19)">
                    <path id="Trazado_32911" data-name="Trazado 32911" d="M356.079,197.719a22.056,22.056,0,0,1-.657-5,15.806,15.806,0,0,0-4.236.893c-3.7,1.279-7.108,4.123-10.378,6.4-5.971,4.123-10.378,13.221-18.907,11.657-3.981-.568-8.388-3.27-10.236-6.824-.995-1.848-2.7-10.8-5.4-10.8-5.261,0-4.123,16.064-4.549,18.907-.529,3.439-1.06,6.385-3.306,8.839a29.111,29.111,0,0,1,7.46-3.986c11.1-3.269,7.724-1.4,18.828-4.67,11.588-3.736,20.279-10.741,31.383-15.411" transform="translate(-262.942 -192.72)" fill="#e9d9c9"/>
                    <path id="Trazado_32912" data-name="Trazado 32912" d="M259.889,248.6c-3.98,1.421-7.961-.426-11.231-2.559-2.985-2.132-7.392-6.4-6.966-10.52l-5.971,11.657a19.819,19.819,0,0,0-.389,3.786c4.213,2.491,8.871,4.353,12.992,3.784,4.887-.617,9.119-3.5,13.273-6.843a11.763,11.763,0,0,1-1.709.694" transform="translate(-235.332 -211.454)" fill="#e9d9c9"/>
                  </g>
                </g>
              </g>
              <path id="Trazado_32913" data-name="Trazado 32913" d="M6.065,167.006,0,96.081l8.889,2.972,2.44,70.573Z" transform="translate(0 -42.057)" fill="#bc753b"/>
              <path id="Trazado_32914" data-name="Trazado 32914" d="M15.809,99.729l8.338-2.1-2.8,70.993-3.1,1.685Z" transform="translate(-6.92 -42.732)" fill="#905b2e"/>
              <path id="Trazado_32915" data-name="Trazado 32915" d="M0,94.539l8.889,2.972,8.338-2.1L8.949,92.557Z" transform="translate(0 -40.514)" fill="#d19a6d"/>
              <path id="Trazado_32916" data-name="Trazado 32916" d="M15.809,101.367l2.44,70.573s.983-42.42-2.44-70.573" transform="translate(-6.92 -44.37)" fill="#d19a6d"/>
              <path id="Trazado_32917" data-name="Trazado 32917" d="M23.391,118.095l5.624-2.85s77.827-6.286,116.14,40.568l.767,10.359Z" transform="translate(-10.239 -50.322)" fill="#d19a6d"/>
              <path id="Trazado_32918" data-name="Trazado 32918" d="M23.391,120.532l.235,48.246,120.68,45.848-.011-49.436Z" transform="translate(-10.239 -52.759)" fill="#ac6c37"/>
              <path id="Trazado_32919" data-name="Trazado 32919" d="M23.391,120.392s85.441-5.5,120.347,44.4l-19.727,4.235L29.4,134.8Z" transform="translate(-10.239 -52.619)" fill="#ac6c37"/>
              <path id="Trazado_32920" data-name="Trazado 32920" d="M23.391,120s75.033-9.135,116.646,39.2c0,0-36.7-41.423-116.646-39.2" transform="translate(-10.239 -52.224)" fill="#dfb899"/>
              <path id="Trazado_32921" data-name="Trazado 32921" d="M14.517,218.886V211.4l-1.65,6.666Z" transform="translate(-5.632 -92.533)" fill="#774b27"/>
              <path id="Trazado_32922" data-name="Trazado 32922" d="M6.188,97.264l.707,6.9,1.026-6.321,3.16-1.717Z" transform="translate(-2.709 -42.077)" fill="#774b27"/>
              <path id="Trazado_32923" data-name="Trazado 32923" d="M69.038,119.146l-5.894,1.027v3.915l1.525-3.691Z" transform="translate(-27.639 -52.152)" fill="#905b2e"/>
              <path id="Trazado_32924" data-name="Trazado 32924" d="M67.639,119.146l-5.894,1.027v3.915l-1.8-4.116Z" transform="translate(-26.241 -52.152)" fill="#dfb899"/>
              <path id="Trazado_32925" data-name="Trazado 32925" d="M31.487,170.494l111.2,39.351.482-31.652-8.047-6.137s-39.112-39.585-98.2-34.908l-5.184-1.33Z" transform="translate(-13.782 -59.45)" fill="#975f30"/>
              <path id="Trazado_32926" data-name="Trazado 32926" d="M214.006,272.416l-1.137-5.552-1.814,4.679Z" transform="translate(-92.382 -116.811)" fill="#905b2e"/>
              <path id="Trazado_32927" data-name="Trazado 32927" d="M23.7,184.983l120.68,45.848-.006-26.141a83.3,83.3,0,0,0-1.139,11.415c-.161,2.49-.482,8.094-2.575,9.807-2.9,2.024-6.116-.419-8.208-1.821-3.38-2.179-7.564-3.58-11.1-5.292-4.023-2.024-13.251-4.772-17.435-6.328-4.024-1.4-52.964-16.82-57.148-18.376a63.128,63.128,0,0,1-12.714-6.072c-3.862-2.335-8.047-3.58-9.013-8.406-.643-2.8,0-5.759.161-8.561a47.562,47.562,0,0,0-.482-9.5,22.443,22.443,0,0,0-1.152-4.008Z" transform="translate(-10.317 -68.963)" fill="#905b2e"/>
              <path id="Trazado_32928" data-name="Trazado 32928" d="M235.937,250.877,237.508,177l9.983,3.449-6.649,73.563Z" transform="translate(-103.274 -77.476)" fill="#bc753b"/>
              <path id="Trazado_32929" data-name="Trazado 32929" d="M251.309,181.136l7.53-2.567-10.131,73.5L244.66,254.7Z" transform="translate(-107.092 -78.163)" fill="#905b2e"/>
              <path id="Trazado_32930" data-name="Trazado 32930" d="M238.731,175.432l9.983,3.449,7.53-2.567-8.416-2.9Z" transform="translate(-104.497 -75.908)" fill="#d19a6d"/>
              <path id="Trazado_32931" data-name="Trazado 32931" d="M260.1,199.7l-1.576,8.665-.661,10.464,1.479-9.789Z" transform="translate(-112.873 -87.414)" fill="#774b27"/>
              <path id="Trazado_32932" data-name="Trazado 32932" d="M252.781,266.641l-1.93,4.6v8.177l1.814-7.7Z" transform="translate(-109.802 -116.714)" fill="#774b27"/>
              <g id="Grupo_12441" data-name="Grupo 12441" transform="translate(144.76 119.805)" style="mix-blend-mode: multiply;isolation: isolate">
                <g id="Grupo_12440" data-name="Grupo 12440">
                  <g id="Grupo_12439" data-name="Grupo 12439" clip-path="url(#clip-path-20)">
                    <path id="Trazado_32933" data-name="Trazado 32933" d="M259.83,215.081c-.4.689-.763.476-1.455.129-.655-.328-.964-.615-.919-1.208a1.09,1.09,0,0,1,1.5-.834,1.644,1.644,0,0,1,.878,1.913" transform="translate(-257.451 -213.069)" fill="#b3b3b3"/>
                  </g>
                </g>
              </g>
              <path id="Trazado_32934" data-name="Trazado 32934" d="M259.458,214.177a1.028,1.028,0,0,1-1.084,1,1.08,1.08,0,0,1-.919-1.19,1.028,1.028,0,0,1,1.084-1,1.083,1.083,0,0,1,.919,1.191" transform="translate(-112.691 -93.226)" fill="gray"/>
            </g>
          </g>
          <g id="Grupo_12445" data-name="Grupo 12445" transform="translate(144.838 120.063)">
            <g id="Grupo_12444" data-name="Grupo 12444" clip-path="url(#clip-path-21)">
              <path id="Trazado_32935" data-name="Trazado 32935" d="M259.261,213.413l-1.829-.178-.15,1.976,1.829.178Z" transform="translate(-257.454 -213.4)" fill="url(#radial-gradient)"/>
            </g>
          </g>
          <g id="Grupo_12450" data-name="Grupo 12450">
            <g id="Grupo_12449" data-name="Grupo 12449" clip-path="url(#clip-path)">
              <g id="Grupo_12448" data-name="Grupo 12448" transform="translate(140.97 153.461)" style="mix-blend-mode: multiply;isolation: isolate">
                <g id="Grupo_12447" data-name="Grupo 12447">
                  <g id="Grupo_12446" data-name="Grupo 12446" clip-path="url(#clip-path-23)">
                    <path id="Trazado_32937" data-name="Trazado 32937" d="M253.087,274.936c-.4.69-.764.477-1.455.129-.656-.328-.963-.615-.918-1.208a1.089,1.089,0,0,1,1.495-.834,1.644,1.644,0,0,1,.879,1.912" transform="translate(-250.71 -272.925)" fill="#b3b3b3"/>
                  </g>
                </g>
              </g>
              <path id="Trazado_32938" data-name="Trazado 32938" d="M252.715,274.033a1.027,1.027,0,0,1-1.084.994,1.081,1.081,0,0,1-.92-1.19,1.025,1.025,0,0,1,1.085-.994,1.081,1.081,0,0,1,.919,1.19" transform="translate(-109.739 -119.427)" fill="gray"/>
            </g>
          </g>
          <g id="Grupo_12452" data-name="Grupo 12452" transform="translate(141.047 153.717)">
            <g id="Grupo_12451" data-name="Grupo 12451" clip-path="url(#clip-path-24)">
              <path id="Trazado_32939" data-name="Trazado 32939" d="M252.519,273.266l-1.828-.178-.15,1.976,1.828.178Z" transform="translate(-250.713 -273.253)" fill="url(#radial-gradient-2)"/>
            </g>
          </g>
          <g id="Grupo_12457" data-name="Grupo 12457">
            <g id="Grupo_12456" data-name="Grupo 12456" clip-path="url(#clip-path)">
              <path id="Trazado_32941" data-name="Trazado 32941" d="M251.309,183.134,244.66,256.7s1.338-43.405,6.649-73.564" transform="translate(-107.092 -80.161)" fill="#d19a6d"/>
              <path id="Trazado_32942" data-name="Trazado 32942" d="M238.435,300.569l.849-12.094v12.637Z" transform="translate(-104.367 -126.271)" fill="#774b27"/>
              <path id="Trazado_32943" data-name="Trazado 32943" d="M244.65,239.185l3.03.907,2.936-.907-2.316,3.4Z" transform="translate(-107.088 -104.696)" fill="#774b27"/>
              <path id="Trazado_32944" data-name="Trazado 32944" d="M244.65,239.185l3.65,3.615,2.316-3.615-2.715,5.642Z" transform="translate(-107.088 -104.696)" fill="#d19a6d"/>
              <path id="Trazado_32945" data-name="Trazado 32945" d="M246.608,179.385l-1.957,6.408.877-6.781,2.105-.735Z" transform="translate(-107.088 -78.035)" fill="#774b27"/>
              <path id="Trazado_32946" data-name="Trazado 32946" d="M247.633,178.276l-1.026,1.109-1.957,6.408,2.983-6.054Z" transform="translate(-107.088 -78.035)" fill="#d19a6d"/>
              <path id="Trazado_32947" data-name="Trazado 32947" d="M34.114,160.822l13.594,4.972-14.29-3.756Z" transform="translate(-14.628 -70.395)" fill="#825229"/>
              <path id="Trazado_32948" data-name="Trazado 32948" d="M219.752,243.589l-12.564-6.371,12.58,4.508Z" transform="translate(-90.69 -103.834)" fill="#825229"/>
              <path id="Trazado_32949" data-name="Trazado 32949" d="M183.228,157.1v-4.485l5.8-1.331-7.688.021Z" transform="translate(-79.375 -66.222)" fill="#dfb899"/>
              <path id="Trazado_32950" data-name="Trazado 32950" d="M184.7,157.1v-4.485l5.8-1.331-3.844,2.339Z" transform="translate(-80.846 -66.222)" fill="#905b2e"/>
              <path id="Trazado_32951" data-name="Trazado 32951" d="M85.756,185.88c-2.939-.551-14.326-3.49-16.347-.918,4.041,2.387,6.245,5.694,11.021,7.163,3.673,1.1,7.347.184,10.836,1.47,2.021.918,3.858,2.387,5.878,3.122,3.306.919,3.122-.367.735-2.02-3.674-2.572-6.245-6.245-10.47-8.266Z" transform="translate(-30.382 -80.506)" fill="#88552b"/>
              <path id="Trazado_32952" data-name="Trazado 32952" d="M91.284,191.621c-.249,1-2.873,1.207-5.86.461s-5.206-2.159-4.957-3.159,2.873-1.206,5.86-.461,5.206,2.159,4.957,3.158" transform="translate(-35.214 -82.297)" fill="#975f30"/>
              <path id="Trazado_32953" data-name="Trazado 32953" d="M132.478,227.4a28.676,28.676,0,0,0-7.839-7.639c-3.342-2.293-6.66-4.581-9.946-6.957a60.026,60.026,0,0,0-10.2-6.178,35.822,35.822,0,0,0-11.336-2.718c-2.254-.24-4.5-.488-6.724-.945-2.35-.483-4.6-1.3-6.968-1.725-4.447-.793-8.986-.842-13.4-1.835-7.337-1.649-12.493-8.014-19.838-9.653-3.357-.75-6.831-.132-10.211.112a24.446,24.446,0,0,1-4.477-.029l0,.56a23.613,23.613,0,0,0,3.165.106c3.659-.1,7.344-.949,10.993-.286,3.714.676,6.951,2.765,10.072,4.774,3.028,1.949,6.1,3.911,9.614,4.834,4.372,1.148,8.953,1.2,13.4,1.877a63.527,63.527,0,0,1,6.438,1.565,44.931,44.931,0,0,0,6.389,1.047c2.211.247,4.422.451,6.613.846a27.528,27.528,0,0,1,6.425,2.158,60.225,60.225,0,0,1,10.154,6.262c3.284,2.374,6.608,4.652,9.948,6.945a29.8,29.8,0,0,1,8.468,9.051c.1.158.2.313.3.47l.833.3c-.615-.992-1.224-1.985-1.865-2.938" transform="translate(-13.802 -82.899)" fill="#a26634"/>
              <path id="Trazado_32954" data-name="Trazado 32954" d="M134.65,205.336c-4.117-1.28-8.333-1.951-12.492-3.042a103.738,103.738,0,0,1-11.963-4.148c-3.75-1.493-7.539-2.892-11.276-4.418a49.024,49.024,0,0,1-10.329-5.634c-3.177-2.3-6.129-4.879-9.395-7.068a35.028,35.028,0,0,0-10.279-4.873,42.731,42.731,0,0,0-12.588-1.073c-4.226.151-8.456,1.217-12.677.6-3.424-.5-6.643-1.985-9.968-2.887a20.681,20.681,0,0,0-2.024-.437l0,.554c.32.06.637.125.946.2,3.426.79,6.653,2.262,10.1,2.979,3.851.8,7.664-.029,11.521-.319a49.442,49.442,0,0,1,13.576.707,32.363,32.363,0,0,1,11.113,5.043c3.281,2.16,6.248,4.729,9.395,7.068a45.929,45.929,0,0,0,9.639,5.347c3.682,1.549,7.449,2.891,11.155,4.383a123.18,123.18,0,0,0,11.922,4.255c4.293,1.233,8.707,1.861,12.988,3.163,3,.914,5.979,1.906,9.014,2.68l.009-.581c-2.821-.723-5.595-1.629-8.38-2.5" transform="translate(-13.856 -75.443)" fill="#a26634"/>
              <path id="Trazado_32955" data-name="Trazado 32955" d="M33.585,147.2q-.875-.176-1.748-.362l0,.572c.533.113,1.066.229,1.6.338A91.27,91.27,0,0,0,45.92,149.4,61.335,61.335,0,0,1,58.474,151a27.083,27.083,0,0,1,11,6.237c2.584,2.34,4.851,4.471,8.318,5.317,1.691.413,3.434.585,5.085,1.154a59.841,59.841,0,0,1,5.693,2.445c3.165,1.474,6.436,2.964,9.939,3.38,4.143.49,8.381-.211,12.487-.747a51.574,51.574,0,0,1,12.876-.454c.486.058.97.127,1.455.2-.308-.23-.621-.462-.942-.7a47.942,47.942,0,0,0-12.39.258c-4.15.517-8.36,1.254-12.555.973-4.041-.27-7.786-2.1-11.4-3.779-1.513-.7-3.033-1.384-4.594-1.972a40.907,40.907,0,0,0-5.506-1.306c-3.934-.888-6.456-3.809-9.391-6.344-6.1-5.264-13.905-6.3-21.644-6.774A96.812,96.812,0,0,1,33.585,147.2" transform="translate(-13.934 -64.273)" fill="#a26634"/>
              <path id="Trazado_32956" data-name="Trazado 32956" d="M31.487,196.969l1.207-.666L142.71,234.534l-.027,1.786Z" transform="translate(-13.782 -85.925)" fill="#b67e4f"/>
              <path id="Trazado_32957" data-name="Trazado 32957" d="M31.487,170.494l1.207-.666.965-33.514-1.931-.5Z" transform="translate(-13.782 -59.45)" fill="#825229"/>
              <path id="Trazado_32958" data-name="Trazado 32958" d="M183.613,196.877c-3.412-4.359-10.8-3.412-15.732-2.654-2.654.38-5.308,1.327-7.772,1.517-2.274.189-5.876-.948-7.013,1.326,3.98,2.464,8.151,2.464,12.131,4.359,4.359,1.9,7.771,4.928,12.131,6.634,2.843,1.137,7.2,3.223,9.478.759,3.222-3.412,0-8.15-2.086-10.994Z" transform="translate(-67.013 -84.731)" fill="#88552b"/>
              <path id="Trazado_32959" data-name="Trazado 32959" d="M182.843,197.631c-2.647.18-8.952-.34-10.5,2.045,4.113,1.809,9.743,6.366,14.484,6.233,2.269-.154,4.663-1.268,4.483-3.916-.219-3.215-3.889-4.1-6.373-4.315Z" transform="translate(-75.438 -86.507)" fill="#975f30"/>
              <path id="Trazado_32960" data-name="Trazado 32960" d="M138.2,167.112c-2.96.577-6.406-2.806-9.33-1.519-3.9,1.622,4.115,5.342,6,5.958,3.181.977,6.163.825,9.308,1.093,1.995.042,3.862.373,5.865.557,1.86.19,5.1-.4,2.164-2.246-1.464-.779-3.728-.522-5.468-1.145-2.329-1.021-4.724-3.319-7.407-2.9Z" transform="translate(-55.944 -72.354)" fill="#a26634"/>
              <path id="Trazado_32961" data-name="Trazado 32961" d="M447.361,138.259,446.081,64.7l9.73,1.944-3.666,73.967Z" transform="translate(-195.258 -28.319)" fill="#bc753b"/>
              <path id="Trazado_32962" data-name="Trazado 32962" d="M460.532,65.4l7.323-3.539-7.054,74.4-3.935,3.108Z" transform="translate(-199.979 -27.078)" fill="#905b2e"/>
              <path id="Trazado_32963" data-name="Trazado 32963" d="M467.714,85.474l-1.125,6.9.028,10.591L468.175,92.3Z" transform="translate(-204.234 -37.413)" fill="#774b27"/>
              <path id="Trazado_32964" data-name="Trazado 32964" d="M462.385,147.072l-.106,7.892-1.484,7.908,2.566-8.066Z" transform="translate(-201.698 -64.376)" fill="#774b27"/>
              <path id="Trazado_32965" data-name="Trazado 32965" d="M446.081,62.188l9.731,1.944,7.323-3.539-8.2-1.628Z" transform="translate(-195.258 -25.81)" fill="#d19a6d"/>
              <g id="Grupo_12455" data-name="Grupo 12455" transform="translate(262.276 53.777)" style="mix-blend-mode: multiply;isolation: isolate">
                <g id="Grupo_12454" data-name="Grupo 12454">
                  <g id="Grupo_12453" data-name="Grupo 12453" clip-path="url(#clip-path-26)">
                    <path id="Trazado_32966" data-name="Trazado 32966" d="M468.767,97.419c-.383.723-.742.567-1.418.328-.638-.227-.938-.461-.9-1.042a1.231,1.231,0,0,1,1.453-1.017,1.394,1.394,0,0,1,.86,1.731" transform="translate(-466.449 -95.641)" fill="#b3b3b3"/>
                  </g>
                </g>
              </g>
              <path id="Trazado_32967" data-name="Trazado 32967" d="M468.4,96.6a1.191,1.191,0,0,1-1.054,1.116.888.888,0,0,1-.9-1.024A1.187,1.187,0,0,1,467.5,95.58a.892.892,0,0,1,.9,1.024" transform="translate(-204.173 -41.837)" fill="gray"/>
            </g>
          </g>
          <g id="Grupo_12459" data-name="Grupo 12459" transform="translate(262.352 54.057)">
            <g id="Grupo_12458" data-name="Grupo 12458" clip-path="url(#clip-path-27)">
              <path id="Trazado_32968" data-name="Trazado 32968" d="M468.209,95.988l-1.79.084-.134,1.846,1.79-.084Z" transform="translate(-466.453 -96.073)" fill="url(#radial-gradient-3)"/>
            </g>
          </g>
          <g id="Grupo_12464" data-name="Grupo 12464">
            <g id="Grupo_12463" data-name="Grupo 12463" clip-path="url(#clip-path)">
              <path id="Trazado_32970" data-name="Trazado 32970" d="M460.532,68.155s-3.614,57.952-3.666,73.967c0,0,4.4-43.142,3.666-73.967" transform="translate(-199.978 -29.833)" fill="#d19a6d"/>
              <path id="Trazado_32971" data-name="Trazado 32971" d="M451.463,190.814l.395-8.011.788,8.592Z" transform="translate(-197.614 -80.016)" fill="#774b27"/>
              <path id="Trazado_32972" data-name="Trazado 32972" d="M455.33,140.961l1.811.873,3.2-1.274Z" transform="translate(-199.306 -61.525)" fill="#774b27"/>
              <path id="Trazado_32973" data-name="Trazado 32973" d="M455.33,140.961l1.811.873,3.2-1.274-3.115,2.547Z" transform="translate(-199.306 -61.525)" fill="#d19a6d"/>
              <g id="Grupo_12462" data-name="Grupo 12462" transform="translate(259.71 89.439)" style="mix-blend-mode: multiply;isolation: isolate">
                <g id="Grupo_12461" data-name="Grupo 12461">
                  <g id="Grupo_12460" data-name="Grupo 12460" clip-path="url(#clip-path-26)">
                    <path id="Trazado_32974" data-name="Trazado 32974" d="M464.2,160.841c-.383.724-.743.568-1.418.328-.638-.226-.94-.461-.9-1.042a1.23,1.23,0,0,1,1.453-1.016,1.4,1.4,0,0,1,.862,1.73" transform="translate(-461.885 -159.064)" fill="#b3b3b3"/>
                  </g>
                </g>
              </g>
              <path id="Trazado_32975" data-name="Trazado 32975" d="M463.837,160.029a1.185,1.185,0,0,1-1.051,1.114.89.89,0,0,1-.9-1.024A1.184,1.184,0,0,1,462.94,159a.889.889,0,0,1,.9,1.024" transform="translate(-202.175 -69.599)" fill="gray"/>
            </g>
          </g>
          <g id="Grupo_12466" data-name="Grupo 12466" transform="translate(259.785 89.718)">
            <g id="Grupo_12465" data-name="Grupo 12465" clip-path="url(#clip-path-30)">
              <path id="Trazado_32976" data-name="Trazado 32976" d="M463.645,159.41l-1.789.084-.134,1.846,1.789-.084Z" transform="translate(-461.889 -159.495)" fill="url(#radial-gradient-4)"/>
            </g>
          </g>
          <g id="Grupo_12468" data-name="Grupo 12468">
            <g id="Grupo_12467" data-name="Grupo 12467" clip-path="url(#clip-path)">
              <path id="Trazado_32978" data-name="Trazado 32978" d="M451.829,65.343l2.833-.646-1.416.929-1.031,5.929Z" transform="translate(-197.773 -28.319)" fill="#774b27"/>
              <path id="Trazado_32979" data-name="Trazado 32979" d="M453.534,65.626l1.416-.929V65.91l-2.463,5.372Z" transform="translate(-198.062 -28.319)" fill="#d19a6d"/>
              <path id="Trazado_32980" data-name="Trazado 32980" d="M234.751,111.613c4.006.9,12.07,5.137,15.692,7.938-.484-2.8-4.828-5.136-7.483-6.3,2.413-.7,6.276,2.335,8.208,3.736,2.9,2.335,4.344,4.2,4.344,8.172,0,2.569-.723,5.37-.482,8.173.242,2.1-.482,8.172.725,9.807,2.414,3.5,6.517.7,7.725-2.1,3.138-6.538,1.69-17.279-1.449-23.35-5.552-10.975-68.52-27.77-79.383-32.674-7-3.035-14-6.538-21.244-9.106a74.274,74.274,0,0,0-14.526-3.618c-2.8.755-5.687,2.327-13.235,4.318q-4.123.886-8.183,1.84a44.954,44.954,0,0,1,10.114-.672,73.983,73.983,0,0,1,17.381,3.5c13.036,4.2,73.832,23.1,85.66,29.871l2.9,1.4c-1.931.233-3.621-.774-6.759-.934" transform="translate(-54.916 -31.641)" fill="#c13b2b"/>
              <path id="Trazado_32981" data-name="Trazado 32981" d="M173.388,96.2c4.851,1.333,8.815,3.988,13.394,5.673,5.677,2.091,11.539,3.107,14.1,7.5a6.617,6.617,0,0,1-1.407-.374c-.9-2.762-5.375-2.732-7.474-4.53-4.63-.485-9.006-3.365-12.839-5.015-4.273-1.84-8.3-3.9-13.048-5.1Z" transform="translate(-72.712 -41.3)" fill="#e13c2c"/>
            </g>
          </g>
          <g id="Grupo_12470" data-name="Grupo 12470" transform="translate(74.541 38)">
            <g id="Grupo_12469" data-name="Grupo 12469" clip-path="url(#clip-path-32)">
              <rect id="Rectángulo_3473" data-name="Rectángulo 3473" width="162.819" height="164.767" transform="matrix(0.695, -0.719, 0.719, 0.695, -38.163, 39.519)" fill="url(#linear-gradient-2)"/>
            </g>
          </g>
          <g id="Grupo_12487" data-name="Grupo 12487">
            <g id="Grupo_12486" data-name="Grupo 12486" clip-path="url(#clip-path)">
              <g id="Grupo_12473" data-name="Grupo 12473" transform="translate(74.541 41.958)" style="mix-blend-mode: multiply;isolation: isolate">
                <g id="Grupo_12472" data-name="Grupo 12472">
                  <g id="Grupo_12471" data-name="Grupo 12471" clip-path="url(#clip-path-34)">
                    <path id="Trazado_32983" data-name="Trazado 32983" d="M251,114.9c5.07,2.47,9.3,7.42,8.995,13.068-.231,4.245.582,9.334-.571,14.235-.627,2.665.787,3.773,2.964,4.111-1.745-1.256-2.376-1.569-2.232-4.491.321-3.736-.322-9.807,1.609-13.076-.321.623-.8,1.245-1.126,1.868-.322-2.49.966-4.67.322-7.316a10.224,10.224,0,0,0-4.023-5.915,30.017,30.017,0,0,0-7.242-4.67c-1.513-.675-3.446-1.917-5.191-2.554,1.455.383,3.087.846,4.065.531-1.931-1.4-52.588-14.071-55-14.85-2.575-.934-4.185-2.335-6.277-4.047a3.355,3.355,0,0,0,1.7,2.692,58.269,58.269,0,0,1-6.206-3.47c-4.183-2.49-7.4-4.67-12.231-6.071-3.54-1.245-6.6-3.113-9.978-4.67-4.184-2.023-7.4-2.023-11.91-2.335-2.9-.312-9.334-.156-11.587-1.713.957-.579,2.092-.986,3.075-1.6-3.3.768-6.713,1.856-7.581,3.939L134.5,78.4c4.137-1.293,10.693.652,15.395,1.073,12.492,1.119,25.55,9.817,36.813,15.28C192.044,97.345,245.75,112.344,251,114.9" transform="translate(-132.569 -74.621)" fill="#f2f2f2"/>
                  </g>
                </g>
              </g>
              <g id="Grupo_12476" data-name="Grupo 12476" transform="translate(93.692 42.628)" style="mix-blend-mode: multiply;isolation: isolate">
                <g id="Grupo_12475" data-name="Grupo 12475">
                  <g id="Grupo_12474" data-name="Grupo 12474" clip-path="url(#clip-path-35)">
                    <path id="Trazado_32984" data-name="Trazado 32984" d="M166.629,76.124A104.645,104.645,0,0,1,198.19,87.029c8.605,4.461,65.578,20.574,73.265,26.018.064-1.677-3.766-4.589-5.239-5.482-2.811-1.705-6.323-2.372-9.109-3.827-2.989-1.561-54.635-14.9-57.56-16.459-2.542-1.353-4.756-3.492-7.465-4.064a8.318,8.318,0,0,1,5.422.31A3.106,3.106,0,0,1,195.22,82.4c-4.1.21-9.113-2.389-12.836-3.789-4.326-1.626-7.689-2.786-12.537-2.8Z" transform="translate(-166.629 -75.813)" fill="#f2f2f2"/>
                  </g>
                </g>
              </g>
              <path id="Trazado_32985" data-name="Trazado 32985" d="M150.608,121.1s-7.945-2.562-10.48-4.309-1-1.425-5.383-1.334-8.873-5.232-19.608-9.011c0,0,10.153,7.214,19.608,10.24s15.863,4.413,15.863,4.413" transform="translate(-50.397 -46.593)" fill="#e13c2c"/>
              <path id="Trazado_32986" data-name="Trazado 32986" d="M149.3,120.154a130.709,130.709,0,0,1-20.984-5.833c-9.9-3.842-12.309-8.055-16.172-10.034a71.42,71.42,0,0,0,16.172,8.868,208.207,208.207,0,0,0,20.984,7" transform="translate(-49.086 -45.648)" fill="#eb6d5d"/>
              <path id="Trazado_32987" data-name="Trazado 32987" d="M99.369,91.963c10,0,17.744,3.546,26.781,6.312a67.051,67.051,0,0,1,12.424,5.588c2.419,1.32,5.386,2.86,6.838,5.44a5.055,5.055,0,0,0-.072-1.719c-3.037-1.541-4.914-4.059-7.652-6.048-3.3-2.4-7.44-3.307-10.675-5.231,1.327.036,4.323-.319,6.057.654-2.405-.441-4.043-1.343-6.664-1.572s-5.605.094-8.047-.622c-2.491-.732-4.868-2.342-7.419-3.113-2.579-.779-5.488-.623-8.353-.623Z" transform="translate(-43.496 -39.839)" fill="#e13c2c"/>
              <g id="Grupo_12479" data-name="Grupo 12479" transform="translate(201.247 79.105)" style="mix-blend-mode: multiply;isolation: isolate">
                <g id="Grupo_12478" data-name="Grupo 12478">
                  <g id="Grupo_12477" data-name="Grupo 12477" clip-path="url(#clip-path-36)">
                    <path id="Trazado_32988" data-name="Trazado 32988" d="M377.851,168.559c-6.394,6.416-16.908,4.425-19.941,3.677-.052,3.663,4.972,3.373,9.253,2.714,2.273-.35,7.3-.908,9.577-1.479a15.2,15.2,0,0,0,3.451-1.269c2.006-1.14,2.649-.486,3.364-2.568,1.447-4.22.671-9.469,1.393-13.752.857-5.085,1.039-10.509-.5-15.2.671,8.06-.466,21.714-6.6,27.873" transform="translate(-357.911 -140.686)" fill="#f2f2f2"/>
                  </g>
                </g>
              </g>
              <path id="Trazado_32989" data-name="Trazado 32989" d="M203.73,137.295s6.69,4.2,10.055,4.837,9.8,3.824,18.381,6.826c0,0-7.993-5.821-13.607-7.761s-14.828-3.9-14.828-3.9" transform="translate(-89.176 -60.096)" fill="#ea5c4c"/>
              <path id="Trazado_32990" data-name="Trazado 32990" d="M202.08,135.159c2.819.394,6.767,2.48,9.7,3.15a36.554,36.554,0,0,1,9.679,3.411c3.417,1.641,6.373,3.636,9.779,5.408,2.863,1.457,1.412,1.719-.91.577-1.779-.827-3.842-1.68-5.468-2.625-3.781-2.336-6.891-4.213-11.219-5.276a25.9,25.9,0,0,1-6.272-1.64c-1.792-.7-5.282-1.549-6.293-2.966a2.264,2.264,0,0,1,1-.04" transform="translate(-88.015 -59.147)" fill="#e94e3e"/>
              <path id="Trazado_32991" data-name="Trazado 32991" d="M312.885,156.3c3.411.568,6.634,4.359,2.654,6.255,5.307-2.274,4.17,3.98,4.927,7.392,2.274-5.5.38-10.615-4.738-13.079Z" transform="translate(-136.955 -68.415)" fill="#e13c2c"/>
              <path id="Trazado_32992" data-name="Trazado 32992" d="M239.564,127.308a58.31,58.31,0,0,0,9.91,3.561c3.407.929,6.039,2.942,9.292,4.027,5.574,2.013,12.232,3.1,17.189,6.658a18.752,18.752,0,0,0-7.279-4.49c-2.478-.929-4.8-.929-7.278-2.168-5.265-2.323-10.53-4.646-16.259-5.73Z" transform="translate(-104.861 -55.725)" fill="#e13c2c"/>
              <g id="Grupo_12482" data-name="Grupo 12482" transform="translate(197.591 68.418)" style="mix-blend-mode: multiply;isolation: isolate">
                <g id="Grupo_12481" data-name="Grupo 12481">
                  <g id="Grupo_12480" data-name="Grupo 12480" clip-path="url(#clip-path-37)">
                    <path id="Trazado_32993" data-name="Trazado 32993" d="M377.347,163.882c2.006-1.14,2.649-.485,3.363-2.568,1.448-4.22.671-9.469,1.394-13.752,1.557-9.225.9-19.571-8.226-24.595a19.044,19.044,0,0,0-2.925-1.288c3.771,2.854,7.885,7.934,7.508,12.642-.568,5.876-4.549,9.477-10.046,9.667-4.549.189-7.96-1.138-12.131-2.843-1.5-.642-3.157-1.552-4.876-2.437a12.819,12.819,0,0,1,4.372,9.858c-.231,4.245.583,9.334-.57,14.234-1.138,4.833,4.431,4.55,9.108,3.83,2.273-.349,7.3-.908,9.576-1.479a15.158,15.158,0,0,0,3.452-1.269" transform="translate(-351.409 -121.68)" fill="#f5f5f5"/>
                  </g>
                </g>
              </g>
              <g id="Grupo_12485" data-name="Grupo 12485" transform="translate(2.808 52.932)" style="mix-blend-mode: multiply;isolation: isolate">
                <g id="Grupo_12484" data-name="Grupo 12484">
                  <g id="Grupo_12483" data-name="Grupo 12483" clip-path="url(#clip-path-38)">
                    <path id="Trazado_32994" data-name="Trazado 32994" d="M268.343,94.137c-43.689,85.98-123.807,70.712-123.807,70.712C60.358,179.6,4.995,128.07,4.995,128.07h0l3.256,38.084,5.265,2.621,3.1-1.685.368-9.33,13.853,5.262a61.87,61.87,0,0,0,7.8,3.313c.839.311,3.476,1.181,7.186,2.381L135.1,202.636l-.254,11.971,2.063,1.319.19.122,2.652,1.7,4.048-2.626,1.824-13.237,89.545-47.016,0,0,19.012-9.983.109,6.262,1.746.857h0l.724.355,2.315,1.136,3.935-3.108,5.333-56.248Z" transform="translate(-4.995 -94.137)" fill="#eee"/>
                  </g>
                </g>
              </g>
            </g>
          </g>
        </g>
      </g>
      <g id="Grupo_12520" data-name="Grupo 12520" transform="translate(1075.38 8476)">
        <g id="Grupo_12519" data-name="Grupo 12519" clip-path="url(#clip-path-39)">
          <path id="Trazado_32995" data-name="Trazado 32995" d="M144.759,8.07,139.531,12.2l-15.349-.072,7.9-4.278Z" transform="translate(43.714 2.763)" fill="#69381c"/>
          <g id="Grupo_12491" data-name="Grupo 12491" transform="translate(0.007)">
            <g id="Grupo_12490" data-name="Grupo 12490" clip-path="url(#clip-path-40)">
              <path id="Trazado_32996" data-name="Trazado 32996" d="M197.651-10.9l10.88,90.621L-3.324,95.12-14.2,4.5Z" transform="translate(-5.007 -3.836)" fill="url(#linear-gradient-3)"/>
            </g>
          </g>
          <g id="Grupo_12518" data-name="Grupo 12518" transform="translate(0 0)">
            <g id="Grupo_12517" data-name="Grupo 12517" clip-path="url(#clip-path-39)">
              <g id="Grupo_12496" data-name="Grupo 12496" transform="translate(55.159 4.506)" opacity="0.2" style="mix-blend-mode: screen;isolation: isolate">
                <g id="Grupo_12495" data-name="Grupo 12495">
                  <g id="Grupo_12494" data-name="Grupo 12494" clip-path="url(#clip-path-42)">
                    <g id="Grupo_12493" data-name="Grupo 12493" transform="translate(0.001 -0.001)">
                      <g id="Grupo_12492" data-name="Grupo 12492" clip-path="url(#clip-path-43)">
                        <rect id="Rectángulo_3481" data-name="Rectángulo 3481" width="44.976" height="141.446" transform="matrix(0.078, -0.997, 0.997, 0.078, -2.661, 33.389)" fill="url(#linear-gradient-4)"/>
                      </g>
                    </g>
                  </g>
                </g>
              </g>
              <g id="Grupo_12501" data-name="Grupo 12501" transform="translate(61.176 25.134)" opacity="0.3" style="mix-blend-mode: screen;isolation: isolate">
                <g id="Grupo_12500" data-name="Grupo 12500">
                  <g id="Grupo_12499" data-name="Grupo 12499" clip-path="url(#clip-path-44)">
                    <g id="Grupo_12498" data-name="Grupo 12498" transform="translate(0 0)">
                      <g id="Grupo_12497" data-name="Grupo 12497" clip-path="url(#clip-path-45)">
                        <rect id="Rectángulo_3483" data-name="Rectángulo 3483" width="13.804" height="73.486" transform="matrix(0.078, -0.997, 0.997, 0.078, -0.632, 7.68)" fill="url(#linear-gradient-5)"/>
                      </g>
                    </g>
                  </g>
                </g>
              </g>
              <g id="Grupo_12506" data-name="Grupo 12506" transform="translate(94.415 7.115)" opacity="0.3" style="mix-blend-mode: screen;isolation: isolate">
                <g id="Grupo_12505" data-name="Grupo 12505">
                  <g id="Grupo_12504" data-name="Grupo 12504" clip-path="url(#clip-path-46)">
                    <g id="Grupo_12503" data-name="Grupo 12503" transform="translate(0 0)">
                      <g id="Grupo_12502" data-name="Grupo 12502" clip-path="url(#clip-path-47)">
                        <rect id="Rectángulo_3485" data-name="Rectángulo 3485" width="13.716" height="68.483" transform="translate(-0.656 8.293) rotate(-85.525)" fill="url(#linear-gradient-6)"/>
                      </g>
                    </g>
                  </g>
                </g>
              </g>
              <g id="Grupo_12511" data-name="Grupo 12511" transform="translate(24.179 41.287)" opacity="0.2" style="mix-blend-mode: multiply;isolation: isolate">
                <g id="Grupo_12510" data-name="Grupo 12510">
                  <g id="Grupo_12509" data-name="Grupo 12509" clip-path="url(#clip-path-48)">
                    <g id="Grupo_12508" data-name="Grupo 12508" transform="translate(0.001 -0.001)">
                      <g id="Grupo_12507" data-name="Grupo 12507" clip-path="url(#clip-path-49)">
                        <rect id="Rectángulo_3487" data-name="Rectángulo 3487" width="48.553" height="168.515" transform="matrix(0.078, -0.997, 0.997, 0.078, -2.776, 35.116)" fill="url(#linear-gradient-7)"/>
                      </g>
                    </g>
                  </g>
                </g>
              </g>
              <g id="Grupo_12516" data-name="Grupo 12516" transform="translate(32.883 48.633)" opacity="0.2" style="mix-blend-mode: multiply;isolation: isolate">
                <g id="Grupo_12515" data-name="Grupo 12515">
                  <g id="Grupo_12514" data-name="Grupo 12514" clip-path="url(#clip-path-50)">
                    <g id="Grupo_12513" data-name="Grupo 12513" transform="translate(-0.001 0)">
                      <g id="Grupo_12512" data-name="Grupo 12512" clip-path="url(#clip-path-51)">
                        <rect id="Rectángulo_3489" data-name="Rectángulo 3489" width="39.786" height="155.119" transform="matrix(0.078, -0.997, 0.997, 0.078, -2.17, 27.732)" fill="url(#linear-gradient-8)"/>
                      </g>
                    </g>
                  </g>
                </g>
              </g>
              <path id="Trazado_33003" data-name="Trazado 33003" d="M37.88,74.923C-8.08,81.874-15.518,8.53,33.965,3.432c33.569-3.4,54.01,61.48,3.915,71.492" transform="translate(0.002 1.162)" fill="#fff5a6"/>
              <path id="Trazado_33004" data-name="Trazado 33004" d="M37.882,74.916c-45.96,6.951-53.415-66.5-3.915-71.492C63.393.455,86.547,63.849,37.882,74.916" transform="translate(0 1.169)" fill="#fad882"/>
              <path id="Trazado_33005" data-name="Trazado 33005" d="M33.034,6.248c-44.223,4.562-37.578,70.11,3.5,63.9,44.775-8.948,26.508-66.93-3.5-63.9m3.9,58.2C.741,69.924-5.12,12.172,33.845,8.153c26.435-2.67,42.53,48.413,3.088,56.3" transform="translate(0.945 2.159)" fill="#f5c772"/>
              <path id="Trazado_33006" data-name="Trazado 33006" d="M31.814,10.418c-33.859,3.775-28.955,56.264,2.5,51.17,34.291-7.29,20.468-53.684-2.5-51.17m2.177,48.944C6.016,63.887,1.656,17.21,31.765,13.852c20.432-2.24,32.721,39.023,2.225,45.51" transform="translate(2.99 3.632)" fill="#f5c772"/>
              <path id="Trazado_33007" data-name="Trazado 33007" d="M30.324,14.355C5.178,17.133,8.832,55.928,32.191,52.175,57.656,46.8,47.377,12.5,30.324,14.355m-.388,34.8C10.654,52.386,7.706,19.5,28.461,17.1c14.081-1.6,22.5,27.457,1.475,32.064" transform="translate(4.58 5.027)" fill="#f5c772"/>
              <path id="Trazado_33008" data-name="Trazado 33008" d="M27.274,18.993c-15.628,1.9-13.471,27.382,1.055,24.85,15.833-3.606,9.549-26.111-1.055-24.85M28.2,42.372c-12.787,2.225-14.69-20.211-.929-21.886,9.334-1.114,14.868,18.708.929,21.886" transform="translate(5.795 6.668)" fill="#f5c772"/>
              <path id="Trazado_33009" data-name="Trazado 33009" d="M23.9,35.173c-6.889,1.084-7.978-10.2-.562-11,5.031-.534,8.072,9.445.562,11" transform="translate(6.421 8.501)" fill="#f5c772"/>
              <path id="Trazado_33010" data-name="Trazado 33010" d="M19.622,26.671c.37.783,2.4,5.273,2.873,4.744s3.189-4.835,3.189-4.835l-3.444,2.555Z" transform="translate(6.907 9.356)" fill="#5e3a25"/>
            </g>
          </g>
        </g>
      </g>
    </g>
  </g>
</svg>
