<svg xmlns="http://www.w3.org/2000/svg" xmlns:xlink="http://www.w3.org/1999/xlink" width="333.256" height="258.441" viewBox="0 0 333.256 258.441">
  <defs>
    <clipPath id="clip-path">
      <rect id="Rectángulo_3543" data-name="Rectángulo 3543" width="172.6" height="171.55" fill="none"/>
    </clipPath>
    <clipPath id="clip-path-3">
      <rect id="Rectángulo_3510" data-name="Rectángulo 3510" width="150.469" height="62.552" fill="none"/>
    </clipPath>
    <clipPath id="clip-path-4">
      <rect id="Rectángulo_3511" data-name="Rectángulo 3511" width="150.846" height="67.193" fill="none"/>
    </clipPath>
    <clipPath id="clip-path-5">
      <rect id="Rectángulo_3512" data-name="Rectángulo 3512" width="150.846" height="62.056" fill="none"/>
    </clipPath>
    <clipPath id="clip-path-6">
      <rect id="Rectángulo_3513" data-name="Rectángulo 3513" width="88.253" height="39.04" fill="none"/>
    </clipPath>
    <clipPath id="clip-path-7">
      <rect id="Rectángulo_3514" data-name="Rectángulo 3514" width="88.398" height="44.022" fill="none"/>
    </clipPath>
    <clipPath id="clip-path-8">
      <rect id="Rectángulo_3515" data-name="Rectángulo 3515" width="63.87" height="34.728" fill="none"/>
    </clipPath>
    <clipPath id="clip-path-9">
      <rect id="Rectángulo_3516" data-name="Rectángulo 3516" width="6.72" height="6.72" fill="none"/>
    </clipPath>
    <clipPath id="clip-path-10">
      <rect id="Rectángulo_3517" data-name="Rectángulo 3517" width="6.718" height="5.176" fill="none"/>
    </clipPath>
    <clipPath id="clip-path-11">
      <rect id="Rectángulo_3518" data-name="Rectángulo 3518" width="1.814" height="2.64" fill="none"/>
    </clipPath>
    <clipPath id="clip-path-12">
      <rect id="Rectángulo_3519" data-name="Rectángulo 3519" width="0.842" height="0.91" fill="none"/>
    </clipPath>
    <clipPath id="clip-path-13">
      <rect id="Rectángulo_3520" data-name="Rectángulo 3520" width="3.508" height="3.08" fill="none"/>
    </clipPath>
    <clipPath id="clip-path-14">
      <rect id="Rectángulo_3521" data-name="Rectángulo 3521" width="9.604" height="9.604" fill="none"/>
    </clipPath>
    <clipPath id="clip-path-15">
      <rect id="Rectángulo_3522" data-name="Rectángulo 3522" width="9.602" height="7.396" fill="none"/>
    </clipPath>
    <clipPath id="clip-path-16">
      <rect id="Rectángulo_3523" data-name="Rectángulo 3523" width="2.592" height="3.771" fill="none"/>
    </clipPath>
    <clipPath id="clip-path-17">
      <rect id="Rectángulo_3524" data-name="Rectángulo 3524" width="1.204" height="1.3" fill="none"/>
    </clipPath>
    <clipPath id="clip-path-18">
      <rect id="Rectángulo_3525" data-name="Rectángulo 3525" width="5.014" height="4.402" fill="none"/>
    </clipPath>
    <clipPath id="clip-path-19">
      <rect id="Rectángulo_3526" data-name="Rectángulo 3526" width="13.144" height="13.145" fill="none"/>
    </clipPath>
    <clipPath id="clip-path-20">
      <rect id="Rectángulo_3527" data-name="Rectángulo 3527" width="13.14" height="10.122" fill="none"/>
    </clipPath>
    <clipPath id="clip-path-21">
      <rect id="Rectángulo_3528" data-name="Rectángulo 3528" width="3.547" height="5.162" fill="none"/>
    </clipPath>
    <clipPath id="clip-path-22">
      <rect id="Rectángulo_3529" data-name="Rectángulo 3529" width="1.647" height="1.779" fill="none"/>
    </clipPath>
    <clipPath id="clip-path-23">
      <rect id="Rectángulo_3530" data-name="Rectángulo 3530" width="6.861" height="6.025" fill="none"/>
    </clipPath>
    <clipPath id="clip-path-24">
      <rect id="Rectángulo_3531" data-name="Rectángulo 3531" width="15.718" height="15.718" fill="none"/>
    </clipPath>
    <clipPath id="clip-path-25">
      <rect id="Rectángulo_3532" data-name="Rectángulo 3532" width="15.714" height="12.105" fill="none"/>
    </clipPath>
    <clipPath id="clip-path-26">
      <rect id="Rectángulo_3533" data-name="Rectángulo 3533" width="4.242" height="6.173" fill="none"/>
    </clipPath>
    <clipPath id="clip-path-27">
      <rect id="Rectángulo_3534" data-name="Rectángulo 3534" width="1.97" height="2.128" fill="none"/>
    </clipPath>
    <clipPath id="clip-path-28">
      <rect id="Rectángulo_3535" data-name="Rectángulo 3535" width="8.205" height="7.205" fill="none"/>
    </clipPath>
    <clipPath id="clip-path-29">
      <rect id="Rectángulo_3536" data-name="Rectángulo 3536" width="6.146" height="6.146" fill="none"/>
    </clipPath>
    <clipPath id="clip-path-30">
      <rect id="Rectángulo_3537" data-name="Rectángulo 3537" width="6.144" height="4.733" fill="none"/>
    </clipPath>
    <clipPath id="clip-path-31">
      <rect id="Rectángulo_3538" data-name="Rectángulo 3538" width="1.659" height="2.414" fill="none"/>
    </clipPath>
    <clipPath id="clip-path-32">
      <rect id="Rectángulo_3539" data-name="Rectángulo 3539" width="0.77" height="0.832" fill="none"/>
    </clipPath>
    <clipPath id="clip-path-33">
      <rect id="Rectángulo_3540" data-name="Rectángulo 3540" width="3.209" height="2.817" fill="none"/>
    </clipPath>
    <clipPath id="clip-path-34">
      <rect id="Rectángulo_3541" data-name="Rectángulo 3541" width="89.485" height="8.387" fill="none"/>
    </clipPath>
    <clipPath id="clip-path-35">
      <rect id="Rectángulo_3509" data-name="Rectángulo 3509" width="254.173" height="126.725" fill="none"/>
    </clipPath>
  </defs>
  <g id="Grupo_18896" data-name="Grupo 18896" transform="translate(-1106.505 -10293.559)">
    <g id="Grupo_12627" data-name="Grupo 12627" transform="translate(1278.668 10293.559)">
      <path id="Trazado_33043" data-name="Trazado 33043" d="M330.931,74.5h0a63.464,63.464,0,0,0-12.972,38.448v45.864a3.405,3.405,0,0,0,3.4,3.405H340.07V74.5Z" transform="translate(-317.959 -53.514)" fill="#66ad5a"/>
      <path id="Trazado_33044" data-name="Trazado 33044" d="M374.2,74.5h-9.14v87.718h18.707a3.405,3.405,0,0,0,3.4-3.4V112.951A63.467,63.467,0,0,0,374.2,74.5" transform="translate(-342.948 -53.514)" fill="#5b9b4e"/>
      <rect id="Rectángulo_3506" data-name="Rectángulo 3506" width="9.145" height="16.726" transform="translate(22.108 4.264)" fill="#ffdd71"/>
      <rect id="Rectángulo_3507" data-name="Rectángulo 3507" width="9.138" height="16.726" transform="translate(12.97 4.264)" fill="#fff085"/>
      <path id="Trazado_33045" data-name="Trazado 33045" d="M364.458,38.429c0,1.525-2.047,2.761-4.572,2.761s-4.572-1.236-4.572-2.761,2.047-2.761,4.572-2.761,4.572,1.236,4.572,2.761" transform="translate(-337.778 -32.909)" fill="#efbe52"/>
      <path id="Trazado_33046" data-name="Trazado 33046" d="M347.663,29.791a2.342,2.342,0,0,0-2.076,2.538v1.725h9.138V29.791Z" transform="translate(-332.617 -29.791)" fill="#fff085"/>
      <path id="Trazado_33047" data-name="Trazado 33047" d="M374.2,32.329a2.342,2.342,0,0,0-2.076-2.538h-7.069v4.263H374.2Z" transform="translate(-342.945 -29.791)" fill="#ffdd71"/>
      <rect id="Rectángulo_3508" data-name="Rectángulo 3508" width="18.283" height="1.731" transform="translate(12.969 3.988)" fill="#efbe52"/>
      <path id="Trazado_33048" data-name="Trazado 33048" d="M377.91,126.985H365.229V163.5H377.91a1.684,1.684,0,0,0,1.684-1.684v-33.15a1.684,1.684,0,0,0-1.684-1.684" transform="translate(-343.039 -81.359)" fill="#78c168"/>
      <path id="Trazado_33049" data-name="Trazado 33049" d="M336.315,126.985a1.684,1.684,0,0,0-1.684,1.684v33.15a1.684,1.684,0,0,0,1.684,1.684H349V126.985Z" transform="translate(-326.805 -81.359)" fill="#9cdd8e"/>
    </g>
    <g id="Grupo_12628" data-name="Grupo 12628" transform="translate(1106.505 10359.767)">
      <g id="Grupo_12624" data-name="Grupo 12624" clip-path="url(#clip-path)">
        <g id="Grupo_12623" data-name="Grupo 12623" transform="translate(0 0)">
          <g id="Grupo_12622" data-name="Grupo 12622" clip-path="url(#clip-path)">
            <path id="Trazado_33058" data-name="Trazado 33058" d="M364.907,335.551a75.588,75.588,0,1,0-75.588,75.587,75.587,75.587,0,0,0,75.588-75.587" transform="translate(-196.98 -239.589)" fill="#0f6d96"/>
            <path id="Trazado_33059" data-name="Trazado 33059" d="M145.893,409.306a76.447,76.447,0,0,0,4.962-19.407,35.224,35.224,0,0,0-8.994-27.347,37.583,37.583,0,0,0-9.745-8.216c-8.1-5.293-17.426-8.862-26.152-12.758q-5.738-2.562-11.576-4.909c-.41-.168-.822-.333-1.233-.5s-.822-.331-1.235-.494q-5.838-2.341-11.749-4.482c-8.991-3.237-18.19-7.127-27.7-8.922a37.585,37.585,0,0,0-12.719-.828,35.223,35.223,0,0,0-25.434,13.487,76.45,76.45,0,0,0-9.869,17.431c-.661,1.6-1.254,3.211-1.764,4.838A48.281,48.281,0,0,0,.174,376.447c1.071,10.667,6.888,21.683,16.164,27.461q.948.678,1.94,1.309a220.3,220.3,0,0,0,39.339,19.221,220.3,220.3,0,0,0,41.683,13.4q1.153.235,2.306.4c10.692,2.262,22.519-1.651,30.683-8.6a48.276,48.276,0,0,0,11.522-15.619c.76-1.527,1.452-3.1,2.081-4.712" transform="translate(0 -296.042)" fill="#b1ebfe"/>
            <g id="Grupo_12528" data-name="Grupo 12528" transform="translate(0 25.176)" opacity="0.5" style="mix-blend-mode: screen;isolation: isolate">
              <g id="Grupo_12527" data-name="Grupo 12527">
                <g id="Grupo_12526" data-name="Grupo 12526" clip-path="url(#clip-path-3)">
                  <path id="Trazado_33060" data-name="Trazado 33060" d="M1.122,380.245A48.279,48.279,0,0,1,3.636,361c.51-1.627,1.1-3.242,1.764-4.838A76.451,76.451,0,0,1,15.27,338.73,35.222,35.222,0,0,1,40.7,325.243a37.58,37.58,0,0,1,12.719.828c9.506,1.794,18.705,5.684,27.7,8.922q5.912,2.129,11.749,4.482c.412.163.823.33,1.235.494s.822.331,1.233.5q5.832,2.357,11.576,4.909c8.726,3.9,18.055,7.465,26.152,12.757a37.583,37.583,0,0,1,9.745,8.216,37.091,37.091,0,0,1,7.661,13.5,36.472,36.472,0,0,0-8.609-17.3,37.582,37.582,0,0,0-9.745-8.216c-8.1-5.293-17.426-8.862-26.152-12.758q-5.738-2.562-11.576-4.909c-.41-.168-.822-.333-1.233-.5s-.822-.331-1.235-.494q-5.838-2.341-11.749-4.482c-8.991-3.237-18.19-7.127-27.7-8.922a37.582,37.582,0,0,0-12.719-.828,35.222,35.222,0,0,0-25.434,13.486,76.45,76.45,0,0,0-9.869,17.431c-.661,1.6-1.254,3.211-1.764,4.838A48.279,48.279,0,0,0,.175,376.447a38.834,38.834,0,0,0,1.482,7.324c-.231-1.174-.416-2.352-.534-3.526" transform="translate(0 -321.218)" fill="#b1ebfe"/>
                </g>
              </g>
            </g>
            <g id="Grupo_12531" data-name="Grupo 12531" transform="translate(0.222 75.644)" style="mix-blend-mode: multiply;isolation: isolate">
              <g id="Grupo_12530" data-name="Grupo 12530">
                <g id="Grupo_12529" data-name="Grupo 12529" clip-path="url(#clip-path-4)">
                  <path id="Trazado_33061" data-name="Trazado 33061" d="M153.471,983.347a34.026,34.026,0,0,0-3.006-18.213,33.582,33.582,0,0,1-.069,6.774c-2.727,24.1-20.939,54.326-49.247,48.337q-1.153-.168-2.306-.4c-14.535-2.957-28.449-8.237-42.2-13.672S28.081,994.638,15.88,985.916A34.663,34.663,0,0,1,2.839,970.27c1.168,10.549,6.949,21.375,16.116,27.085q.948.677,1.94,1.309a220.315,220.315,0,0,0,39.339,19.221,220.3,220.3,0,0,0,41.683,13.4q1.153.234,2.306.4c10.692,2.262,22.519-1.651,30.683-8.6a48.276,48.276,0,0,0,11.522-15.619c.76-1.527,1.452-3.1,2.081-4.712a76.446,76.446,0,0,0,4.962-19.407" transform="translate(-2.839 -965.134)" fill="#b1ebfe"/>
                </g>
              </g>
            </g>
            <g id="Grupo_12534" data-name="Grupo 12534" transform="translate(0.222 80.781)" opacity="0.6" style="mix-blend-mode: multiply;isolation: isolate">
              <g id="Grupo_12533" data-name="Grupo 12533">
                <g id="Grupo_12532" data-name="Grupo 12532" clip-path="url(#clip-path-5)">
                  <path id="Trazado_33062" data-name="Trazado 33062" d="M153.471,1043.744a33.6,33.6,0,0,0-.728-11.689,33.567,33.567,0,0,1-.03,7.242,76.448,76.448,0,0,1-4.962,19.407c-.629,1.609-1.321,3.185-2.081,4.711a48.277,48.277,0,0,1-11.522,15.619c-8.163,6.95-19.991,10.862-30.683,8.6q-1.153-.168-2.306-.4a220.3,220.3,0,0,1-41.683-13.4,220.3,220.3,0,0,1-39.339-19.221q-.994-.63-1.94-1.309c-7.868-4.9-13.234-13.571-15.34-22.6l-.018-.039c1.168,10.549,6.949,21.375,16.116,27.085q.948.677,1.94,1.308a220.315,220.315,0,0,0,39.339,19.221,220.3,220.3,0,0,0,41.683,13.4q1.153.235,2.306.4c10.692,2.262,22.519-1.651,30.683-8.6a48.279,48.279,0,0,0,11.522-15.619c.76-1.527,1.452-3.1,2.081-4.712a76.446,76.446,0,0,0,4.962-19.407" transform="translate(-2.839 -1030.667)" fill="#b1ebfe"/>
                </g>
              </g>
            </g>
            <path id="Trazado_33063" data-name="Trazado 33063" d="M455.468,652.037c-5.368,13.333-29.023,16.37-52.834,6.784s-38.763-28.167-33.395-41.5,29.023-16.37,52.834-6.784,38.763,28.167,33.395,41.5" transform="translate(-339.293 -557.529)" fill="#b1ebfe"/>
            <g id="Grupo_12537" data-name="Grupo 12537" transform="translate(29.633 70.822)" opacity="0.5" style="mix-blend-mode: screen;isolation: isolate">
              <g id="Grupo_12536" data-name="Grupo 12536">
                <g id="Grupo_12535" data-name="Grupo 12535" clip-path="url(#clip-path-6)">
                  <path id="Trazado_33064" data-name="Trazado 33064" d="M465.561,919.245a15.847,15.847,0,0,1-.936,8.055c-5.368,13.333-29.023,16.37-52.834,6.784-17.717-7.133-30.521-19.244-33.708-30.469,1.561,12,15.036,25.676,34.331,33.445,23.811,9.586,47.466,6.549,52.834-6.784a16.81,16.81,0,0,0,.313-11.03" transform="translate(-378.083 -903.614)" fill="#b1ebfe"/>
                </g>
              </g>
            </g>
            <g id="Grupo_12540" data-name="Grupo 12540" transform="translate(28.855 47.413)" style="mix-blend-mode: multiply;isolation: isolate">
              <g id="Grupo_12539" data-name="Grupo 12539">
                <g id="Grupo_12538" data-name="Grupo 12538" clip-path="url(#clip-path-7)">
                  <path id="Trazado_33065" data-name="Trazado 33065" d="M369.372,623.573c5.368-13.333,29.022-16.37,52.834-6.784,18.619,7.5,31.819,20.49,34.125,32.175,2.217-12.989-12.216-29.557-34.249-38.427-23.811-9.587-47.466-6.549-52.834,6.784a16.223,16.223,0,0,0-.73,9.324,14.918,14.918,0,0,1,.854-3.073" transform="translate(-368.157 -604.943)" fill="#b1ebfe"/>
                </g>
              </g>
            </g>
            <g id="Grupo_12543" data-name="Grupo 12543" transform="translate(42.349 63.475)" style="mix-blend-mode: multiply;isolation: isolate">
              <g id="Grupo_12542" data-name="Grupo 12542">
                <g id="Grupo_12541" data-name="Grupo 12541" clip-path="url(#clip-path-8)">
                  <path id="Trazado_33066" data-name="Trazado 33066" d="M546.847,819.759q-.954-.823-1.7-1.576a4.8,4.8,0,0,1-.706-6.37c1.959-2.661,5.755-2.232,8.349-.856,1.6.848,3.792,2.271,3.191,4.339a1.838,1.838,0,0,1-.9,1.15c-.9.446-1.423-.329-2.039-.843a6.5,6.5,0,0,0-3.223-1.447c-.875-.126-1.679.27-1.34,1.3.232.7,1.406,1.31,1.978,1.785a10.4,10.4,0,0,1,2.857,3.385c1.688,3.548-1.706,6.608-5.053,6.711a10.008,10.008,0,0,1-6.674-2.782,3.723,3.723,0,0,1-1.262-2.694c.051-.818.854-1.944,1.773-1.954.875-.009,2.446,2.019,3.265,2.524.86.531,2.749,1.541,3.336.128a1.5,1.5,0,0,0-.285-1.454,10.785,10.785,0,0,0-1.569-1.348" transform="translate(-540.324 -809.868)" fill="#b1ebfe"/>
                  <path id="Trazado_33067" data-name="Trazado 33067" d="M735.657,895.525a9.825,9.825,0,0,1,2.012-3.221,7.539,7.539,0,0,1,5.836-2.381,10.288,10.288,0,0,1,6.258,2.519,7.848,7.848,0,0,1,1.9,2.562,7.661,7.661,0,0,1,.68,3.208,9.836,9.836,0,0,1-.781,3.716,10.113,10.113,0,0,1-2,3.237,7.572,7.572,0,0,1-2.693,1.866,7.692,7.692,0,0,1-3.148.529,9.95,9.95,0,0,1-3.379-.747A9.753,9.753,0,0,1,737.391,905a7.593,7.593,0,0,1-1.88-2.582,7.826,7.826,0,0,1-.637-3.206,9.927,9.927,0,0,1,.783-3.685m4.523,1.821a5.716,5.716,0,0,0-.446,3.792,3.59,3.59,0,0,0,5,2.013,7.265,7.265,0,0,0,2.755-6.806,3.285,3.285,0,0,0-2.045-2.137,3.351,3.351,0,0,0-2.951.111,5.6,5.6,0,0,0-2.313,3.026" transform="translate(-719.626 -883.645)" fill="#b1ebfe"/>
                  <path id="Trazado_33068" data-name="Trazado 33068" d="M940.96,981.222c1.225-.506,3.118.127,4.226.752,2.378,1.342,1.832,3.606,1.631,5.9q-.171,1.947-.387,4.006t-.437,4.059c-.1.931.187,2.462-.393,3.264-1.047,1.447-4.282-.188-4.407-1.678a4.871,4.871,0,0,1,.014-.868c.057-.589.374-1.3.141-1.881-.4-1.007-1.684-1.443-2.651-1.651-1.526-.326-1.932-.048-2.822,1.179-.756,1.042-1.061,1.568-2.441,1.2a3.486,3.486,0,0,1-2.177-1.6c-.737-1.567,1.567-3.5,2.43-4.54,1.552-1.87,3.107-3.741,4.7-5.573.86-.99,1.5-2.13,2.575-2.573m1.627,4.25q-.777.914-1.738,2.031T939,989.811l3.116,1.255q.194-1.5.351-2.94t.27-2.593Z" transform="translate(-900.485 -967.623)" fill="#b1ebfe"/>
                  <path id="Trazado_33069" data-name="Trazado 33069" d="M1149.783,1062.3a.987.987,0,0,1-.788.071,9.99,9.99,0,0,1-1.2-.4,5.635,5.635,0,0,1-.983-.5,1.947,1.947,0,0,1-.615-.613,1.46,1.46,0,0,1-.2-.81,3.307,3.307,0,0,1,.274-1.116l1.692-4.2,1.392-3.458c.47-1.167.81-2.427,1.332-3.555a2.592,2.592,0,0,1,1.175-1.286c1.432-.684,3.809.369,5.15.909a8.909,8.909,0,0,1,4.705,3.617,5.281,5.281,0,0,1,.216,4.76,6.517,6.517,0,0,1-1.285,2.067,4.968,4.968,0,0,1-1.844,1.243,5.6,5.6,0,0,1-2.38.327,9.3,9.3,0,0,1-2.528-.579c-.583-.206-1.75-.951-2.2-.6-.5.39-.754,2.007-1.026,2.621-.256.577-.446,1.233-.886,1.5m4.693-7.271a2.588,2.588,0,0,0,1.818.162,2.017,2.017,0,0,0,1.167-1.267,1.992,1.992,0,0,0,0-1.708,2.748,2.748,0,0,0-1.514-1.208q-.4-.162-.671-.255a4.457,4.457,0,0,0-.566-.155l-1.568,3.9Z" transform="translate(-1098.527 -1027.687)" fill="#b1ebfe"/>
                </g>
              </g>
            </g>
            <path id="Trazado_33070" data-name="Trazado 33070" d="M535.236,790.725q-.954-.822-1.7-1.576a4.8,4.8,0,0,1-.706-6.37c1.959-2.661,5.755-2.231,8.349-.856,1.6.848,3.792,2.271,3.191,4.339a1.838,1.838,0,0,1-.9,1.15c-.9.446-1.423-.329-2.039-.843a6.5,6.5,0,0,0-3.223-1.447c-.875-.126-1.679.27-1.34,1.3.232.7,1.406,1.31,1.978,1.785a10.4,10.4,0,0,1,2.857,3.385c1.688,3.548-1.706,6.608-5.053,6.711a10.007,10.007,0,0,1-6.674-2.782,3.723,3.723,0,0,1-1.262-2.694c.051-.818.854-1.944,1.773-1.954.875-.009,2.446,2.019,3.265,2.524.86.531,2.749,1.542,3.336.128a1.5,1.5,0,0,0-.285-1.454,10.8,10.8,0,0,0-1.569-1.348" transform="translate(-487.274 -719.634)" fill="#caf5ff"/>
            <path id="Trazado_33071" data-name="Trazado 33071" d="M724.046,866.491a9.825,9.825,0,0,1,2.012-3.221,7.539,7.539,0,0,1,5.836-2.381,10.288,10.288,0,0,1,6.258,2.519,7.847,7.847,0,0,1,1.9,2.562,7.659,7.659,0,0,1,.68,3.208,9.838,9.838,0,0,1-.781,3.716,10.114,10.114,0,0,1-2,3.237A7.575,7.575,0,0,1,735.256,878a7.692,7.692,0,0,1-3.148.529,9.947,9.947,0,0,1-3.379-.747,9.751,9.751,0,0,1-2.949-1.815,7.594,7.594,0,0,1-1.88-2.582,7.824,7.824,0,0,1-.637-3.206,9.925,9.925,0,0,1,.783-3.685m4.523,1.821a5.716,5.716,0,0,0-.446,3.792,3.59,3.59,0,0,0,5,2.013,7.266,7.266,0,0,0,2.755-6.806,3.285,3.285,0,0,0-2.045-2.137,3.352,3.352,0,0,0-2.951.111,5.6,5.6,0,0,0-2.313,3.026" transform="translate(-666.576 -793.411)" fill="#caf5ff"/>
            <path id="Trazado_33072" data-name="Trazado 33072" d="M929.349,952.188c1.225-.506,3.118.127,4.226.752,2.378,1.342,1.832,3.606,1.631,5.9q-.171,1.947-.387,4.006t-.437,4.059c-.1.931.187,2.462-.393,3.263-1.047,1.447-4.282-.187-4.407-1.678a4.872,4.872,0,0,1,.014-.868c.057-.589.374-1.3.141-1.881-.4-1.007-1.684-1.443-2.651-1.65-1.526-.326-1.932-.048-2.822,1.178-.756,1.042-1.061,1.568-2.441,1.2a3.486,3.486,0,0,1-2.177-1.6c-.737-1.567,1.567-3.5,2.43-4.54,1.552-1.87,3.107-3.741,4.7-5.573.86-.99,1.5-2.13,2.575-2.573m1.627,4.25q-.777.914-1.738,2.031t-1.849,2.308l3.116,1.254q.194-1.5.351-2.94t.27-2.593Z" transform="translate(-847.436 -877.389)" fill="#caf5ff"/>
            <path id="Trazado_33073" data-name="Trazado 33073" d="M1138.172,1033.263a.986.986,0,0,1-.788.071,9.9,9.9,0,0,1-1.2-.4,5.635,5.635,0,0,1-.982-.5,1.948,1.948,0,0,1-.615-.613,1.461,1.461,0,0,1-.2-.81,3.307,3.307,0,0,1,.274-1.116l1.692-4.2,1.392-3.458c.47-1.167.811-2.427,1.332-3.555a2.592,2.592,0,0,1,1.174-1.285c1.432-.684,3.809.369,5.15.909a8.909,8.909,0,0,1,4.706,3.617,5.281,5.281,0,0,1,.216,4.76,6.516,6.516,0,0,1-1.285,2.067A4.968,4.968,0,0,1,1147.2,1030a5.605,5.605,0,0,1-2.38.327,9.318,9.318,0,0,1-2.528-.579c-.583-.206-1.75-.951-2.2-.6-.5.39-.754,2.007-1.026,2.621-.256.577-.446,1.233-.887,1.5m4.693-7.271a2.589,2.589,0,0,0,1.818.162,2.018,2.018,0,0,0,1.167-1.268,1.992,1.992,0,0,0,0-1.708,2.749,2.749,0,0,0-1.514-1.208q-.4-.162-.671-.255a4.432,4.432,0,0,0-.566-.155l-1.568,3.9Z" transform="translate(-1045.478 -937.454)" fill="#caf5ff"/>
            <g id="Grupo_12546" data-name="Grupo 12546" transform="translate(102.607 32.842)" style="mix-blend-mode: multiply;isolation: isolate">
              <g id="Grupo_12545" data-name="Grupo 12545">
                <g id="Grupo_12544" data-name="Grupo 12544" clip-path="url(#clip-path-9)">
                  <path id="Trazado_33074" data-name="Trazado 33074" d="M1315.625,423.63a3.359,3.359,0,1,0-4.371,1.862,3.359,3.359,0,0,0,4.371-1.862" transform="translate(-1309.149 -419.016)" fill="#d2f3ff"/>
                </g>
              </g>
            </g>
            <path id="Trazado_33075" data-name="Trazado 33075" d="M1314.054,418.728a3.359,3.359,0,1,0-4.371,1.862,3.359,3.359,0,0,0,4.371-1.862" transform="translate(-1205.094 -381.657)" fill="#d2f3ff"/>
            <g id="Grupo_12549" data-name="Grupo 12549" transform="translate(102.485 34.002)" opacity="0.5" style="mix-blend-mode: multiply;isolation: isolate">
              <g id="Grupo_12548" data-name="Grupo 12548">
                <g id="Grupo_12547" data-name="Grupo 12547" clip-path="url(#clip-path-10)">
                  <path id="Trazado_33076" data-name="Trazado 33076" d="M1313.774,433.824a3.357,3.357,0,0,1-4.555,2.492,3.34,3.34,0,0,1-1.569-1.3,3.359,3.359,0,1,0,6.124-1.191" transform="translate(-1307.591 -433.824)" fill="#d2f3ff"/>
                </g>
              </g>
            </g>
            <g id="Grupo_12552" data-name="Grupo 12552" transform="translate(103.083 34.492)" opacity="0.6">
              <g id="Grupo_12551" data-name="Grupo 12551">
                <g id="Grupo_12550" data-name="Grupo 12550" clip-path="url(#clip-path-11)">
                  <path id="Trazado_33077" data-name="Trazado 33077" d="M1317.047,441.4c.006.729-.395,1.323-.9,1.327s-.912-.583-.918-1.312.395-1.323.9-1.327.912.583.918,1.312" transform="translate(-1315.233 -440.084)" fill="#fff"/>
                </g>
              </g>
            </g>
            <g id="Grupo_12555" data-name="Grupo 12555" transform="translate(103.949 33.365)" opacity="0.6">
              <g id="Grupo_12554" data-name="Grupo 12554">
                <g id="Grupo_12553" data-name="Grupo 12553" clip-path="url(#clip-path-12)">
                  <path id="Trazado_33078" data-name="Trazado 33078" d="M1326.976,426.378a.384.384,0,1,1,.017-.62.45.45,0,0,1-.017.62" transform="translate(-1326.266 -425.699)" fill="#fff"/>
                </g>
              </g>
            </g>
            <g id="Grupo_12558" data-name="Grupo 12558" transform="translate(105.262 35.753)" opacity="0.3">
              <g id="Grupo_12557" data-name="Grupo 12557">
                <g id="Grupo_12556" data-name="Grupo 12556" clip-path="url(#clip-path-13)">
                  <path id="Trazado_33079" data-name="Trazado 33079" d="M1345.086,458.943a1.624,1.624,0,0,1-1.661.132c-.87-.515-.174-1.37.474-1.432,1.974-.189,2.082-1.8,2.483-1.418s-.051,1.961-1.3,2.719" transform="translate(-1343.017 -456.167)" fill="#fff"/>
                </g>
              </g>
            </g>
            <g id="Grupo_12561" data-name="Grupo 12561" transform="translate(39.619 14.131)" style="mix-blend-mode: multiply;isolation: isolate">
              <g id="Grupo_12560" data-name="Grupo 12560">
                <g id="Grupo_12559" data-name="Grupo 12559" clip-path="url(#clip-path-14)">
                  <path id="Trazado_33080" data-name="Trazado 33080" d="M514.751,186.892a4.8,4.8,0,1,0-6.246,2.661,4.8,4.8,0,0,0,6.246-2.661" transform="translate(-505.496 -180.297)" fill="#d2f3ff"/>
                </g>
              </g>
            </g>
            <path id="Trazado_33081" data-name="Trazado 33081" d="M512.506,179.886a4.8,4.8,0,1,0-6.246,2.661,4.8,4.8,0,0,0,6.246-2.661" transform="translate(-463.808 -159.709)" fill="#d2f3ff"/>
            <g id="Grupo_12564" data-name="Grupo 12564" transform="translate(39.445 15.79)" opacity="0.5" style="mix-blend-mode: multiply;isolation: isolate">
              <g id="Grupo_12563" data-name="Grupo 12563">
                <g id="Grupo_12562" data-name="Grupo 12562" clip-path="url(#clip-path-15)">
                  <path id="Trazado_33082" data-name="Trazado 33082" d="M512.106,201.46a4.8,4.8,0,0,1-6.51,3.562,4.775,4.775,0,0,1-2.242-1.859,4.8,4.8,0,1,0,8.752-1.7" transform="translate(-503.27 -201.46)" fill="#d2f3ff"/>
                </g>
              </g>
            </g>
            <g id="Grupo_12567" data-name="Grupo 12567" transform="translate(40.301 16.491)" opacity="0.6">
              <g id="Grupo_12566" data-name="Grupo 12566">
                <g id="Grupo_12565" data-name="Grupo 12565" clip-path="url(#clip-path-16)">
                  <path id="Trazado_33083" data-name="Trazado 33083" d="M516.784,212.281c.009,1.042-.564,1.891-1.28,1.9s-1.3-.833-1.312-1.875.564-1.891,1.28-1.9,1.3.833,1.312,1.875" transform="translate(-514.192 -210.407)" fill="#fff"/>
                </g>
              </g>
            </g>
            <g id="Grupo_12570" data-name="Grupo 12570" transform="translate(41.536 14.88)" opacity="0.6">
              <g id="Grupo_12569" data-name="Grupo 12569">
                <g id="Grupo_12568" data-name="Grupo 12568" clip-path="url(#clip-path-17)">
                  <path id="Trazado_33084" data-name="Trazado 33084" d="M530.974,190.817a.548.548,0,1,1,.024-.885.642.642,0,0,1-.024.885" transform="translate(-529.959 -189.848)" fill="#fff"/>
                </g>
              </g>
            </g>
            <g id="Grupo_12573" data-name="Grupo 12573" transform="translate(43.413 18.292)" opacity="0.3">
              <g id="Grupo_12572" data-name="Grupo 12572">
                <g id="Grupo_12571" data-name="Grupo 12571" clip-path="url(#clip-path-18)">
                  <path id="Trazado_33085" data-name="Trazado 33085" d="M556.854,237.358a2.321,2.321,0,0,1-2.373.188c-1.244-.736-.249-1.958.678-2.047,2.82-.27,2.976-2.567,3.549-2.027s-.074,2.8-1.854,3.885" transform="translate(-553.898 -233.391)" fill="#fff"/>
                </g>
              </g>
            </g>
            <g id="Grupo_12576" data-name="Grupo 12576" transform="translate(89.803 16.604)" style="mix-blend-mode: multiply;isolation: isolate">
              <g id="Grupo_12575" data-name="Grupo 12575">
                <g id="Grupo_12574" data-name="Grupo 12574" clip-path="url(#clip-path-19)">
                  <path id="Trazado_33086" data-name="Trazado 33086" d="M1158.458,220.881a6.57,6.57,0,1,0-8.549,3.641,6.57,6.57,0,0,0,8.549-3.641" transform="translate(-1145.792 -211.855)" fill="#d2f3ff"/>
                </g>
              </g>
            </g>
            <path id="Trazado_33087" data-name="Trazado 33087" d="M1155.386,211.292a6.57,6.57,0,1,0-8.549,3.641,6.57,6.57,0,0,0,8.549-3.641" transform="translate(-1053.156 -186.413)" fill="#d2f3ff"/>
            <g id="Grupo_12579" data-name="Grupo 12579" transform="translate(89.565 18.875)" opacity="0.5" style="mix-blend-mode: multiply;isolation: isolate">
              <g id="Grupo_12578" data-name="Grupo 12578">
                <g id="Grupo_12577" data-name="Grupo 12577" clip-path="url(#clip-path-20)">
                  <path id="Trazado_33088" data-name="Trazado 33088" d="M1154.838,240.817a6.564,6.564,0,0,1-11.977,2.33,6.569,6.569,0,1,0,11.977-2.33" transform="translate(-1142.746 -240.817)" fill="#d2f3ff"/>
                </g>
              </g>
            </g>
            <g id="Grupo_12582" data-name="Grupo 12582" transform="translate(90.736 19.834)" opacity="0.6">
              <g id="Grupo_12581" data-name="Grupo 12581">
                <g id="Grupo_12580" data-name="Grupo 12580" clip-path="url(#clip-path-21)">
                  <path id="Trazado_33089" data-name="Trazado 33089" d="M1161.239,255.627c.012,1.425-.772,2.588-1.751,2.6s-1.783-1.14-1.8-2.566.772-2.588,1.752-2.6,1.783,1.14,1.8,2.566" transform="translate(-1157.692 -253.061)" fill="#fff"/>
                </g>
              </g>
            </g>
            <g id="Grupo_12585" data-name="Grupo 12585" transform="translate(92.427 17.629)" opacity="0.6">
              <g id="Grupo_12584" data-name="Grupo 12584">
                <g id="Grupo_12583" data-name="Grupo 12583" clip-path="url(#clip-path-22)">
                  <path id="Trazado_33090" data-name="Trazado 33090" d="M1180.659,226.252a.75.75,0,1,1,.033-1.212.879.879,0,0,1-.033,1.212" transform="translate(-1179.27 -224.926)" fill="#fff"/>
                </g>
              </g>
            </g>
            <g id="Grupo_12588" data-name="Grupo 12588" transform="translate(94.995 22.3)" opacity="0.3">
              <g id="Grupo_12587" data-name="Grupo 12587">
                <g id="Grupo_12586" data-name="Grupo 12586" clip-path="url(#clip-path-23)">
                  <path id="Trazado_33091" data-name="Trazado 33091" d="M1216.077,289.946a3.176,3.176,0,0,1-3.248.258c-1.7-1.007-.341-2.68.928-2.8,3.86-.369,4.072-3.514,4.857-2.774s-.1,3.835-2.537,5.317" transform="translate(-1212.032 -284.517)" fill="#fff"/>
                </g>
              </g>
            </g>
            <g id="Grupo_12591" data-name="Grupo 12591" transform="translate(25.33 0.898)" style="mix-blend-mode: multiply;isolation: isolate">
              <g id="Grupo_12590" data-name="Grupo 12590">
                <g id="Grupo_12589" data-name="Grupo 12589" clip-path="url(#clip-path-24)">
                  <path id="Trazado_33092" data-name="Trazado 33092" d="M338.336,22.258a7.857,7.857,0,1,0-10.223,4.354,7.857,7.857,0,0,0,10.223-4.354" transform="translate(-323.189 -11.465)" fill="#d2f3ff"/>
                </g>
              </g>
            </g>
            <path id="Trazado_33093" data-name="Trazado 33093" d="M334.663,10.792a7.857,7.857,0,1,0-10.223,4.354,7.857,7.857,0,0,0,10.223-4.354" transform="translate(-294.473 0.001)" fill="#d2f3ff"/>
            <g id="Grupo_12594" data-name="Grupo 12594" transform="translate(25.045 3.613)" opacity="0.5" style="mix-blend-mode: multiply;isolation: isolate">
              <g id="Grupo_12593" data-name="Grupo 12593">
                <g id="Grupo_12592" data-name="Grupo 12592" clip-path="url(#clip-path-25)">
                  <path id="Trazado_33094" data-name="Trazado 33094" d="M334.007,46.1a7.849,7.849,0,0,1-14.323,2.786A7.856,7.856,0,1,0,334.007,46.1" transform="translate(-319.547 -46.1)" fill="#d2f3ff"/>
                </g>
              </g>
            </g>
            <g id="Grupo_12597" data-name="Grupo 12597" transform="translate(26.446 4.761)" opacity="0.6">
              <g id="Grupo_12596" data-name="Grupo 12596">
                <g id="Grupo_12595" data-name="Grupo 12595" clip-path="url(#clip-path-26)">
                  <path id="Trazado_33095" data-name="Trazado 33095" d="M341.663,63.81c.015,1.7-.923,3.094-2.095,3.1s-2.133-1.364-2.147-3.068.923-3.094,2.095-3.1,2.133,1.364,2.147,3.068" transform="translate(-337.421 -60.741)" fill="#fff"/>
                </g>
              </g>
            </g>
            <g id="Grupo_12600" data-name="Grupo 12600" transform="translate(28.468 2.124)" opacity="0.6">
              <g id="Grupo_12599" data-name="Grupo 12599">
                <g id="Grupo_12598" data-name="Grupo 12598" clip-path="url(#clip-path-27)">
                  <path id="Trazado_33096" data-name="Trazado 33096" d="M364.885,28.682a.9.9,0,1,1,.04-1.449,1.051,1.051,0,0,1-.04,1.449" transform="translate(-363.224 -27.096)" fill="#fff"/>
                </g>
              </g>
            </g>
            <g id="Grupo_12603" data-name="Grupo 12603" transform="translate(31.539 7.709)" opacity="0.3">
              <g id="Grupo_12602" data-name="Grupo 12602">
                <g id="Grupo_12601" data-name="Grupo 12601" clip-path="url(#clip-path-28)">
                  <path id="Trazado_33097" data-name="Trazado 33097" d="M407.242,104.851a3.8,3.8,0,0,1-3.884.308c-2.035-1.2-.408-3.2,1.11-3.35,4.616-.441,4.87-4.2,5.809-3.318s-.12,4.587-3.034,6.359" transform="translate(-402.404 -98.358)" fill="#fff"/>
                </g>
              </g>
            </g>
            <g id="Grupo_12606" data-name="Grupo 12606" transform="translate(111.894 25.364)" style="mix-blend-mode: multiply;isolation: isolate">
              <g id="Grupo_12605" data-name="Grupo 12605">
                <g id="Grupo_12604" data-name="Grupo 12604" clip-path="url(#clip-path-29)">
                  <path id="Trazado_33098" data-name="Trazado 33098" d="M1433.561,327.845a3.072,3.072,0,1,0-4,1.7,3.072,3.072,0,0,0,4-1.7" transform="translate(-1427.639 -323.624)" fill="#d2f3ff"/>
                </g>
              </g>
            </g>
            <path id="Trazado_33099" data-name="Trazado 33099" d="M1432.125,323.362a3.072,3.072,0,1,0-4,1.7,3.072,3.072,0,0,0,4-1.7" transform="translate(-1314.421 -294.128)" fill="#d2f3ff"/>
            <g id="Grupo_12609" data-name="Grupo 12609" transform="translate(111.782 26.426)" opacity="0.5" style="mix-blend-mode: multiply;isolation: isolate">
              <g id="Grupo_12608" data-name="Grupo 12608">
                <g id="Grupo_12607" data-name="Grupo 12607" clip-path="url(#clip-path-30)">
                  <path id="Trazado_33100" data-name="Trazado 33100" d="M1431.869,337.167a3.069,3.069,0,0,1-4.166,2.279,3.055,3.055,0,0,1-1.435-1.19,3.072,3.072,0,1,0,5.6-1.089" transform="translate(-1426.216 -337.167)" fill="#d2f3ff"/>
                </g>
              </g>
            </g>
            <g id="Grupo_12612" data-name="Grupo 12612" transform="translate(112.33 26.875)" opacity="0.6">
              <g id="Grupo_12611" data-name="Grupo 12611">
                <g id="Grupo_12610" data-name="Grupo 12610" clip-path="url(#clip-path-31)">
                  <path id="Trazado_33101" data-name="Trazado 33101" d="M1434.863,344.091c.006.666-.361,1.21-.819,1.214s-.834-.533-.839-1.2.361-1.21.819-1.214.834.533.839,1.2" transform="translate(-1433.204 -342.892)" fill="#fff"/>
                </g>
              </g>
            </g>
            <g id="Grupo_12615" data-name="Grupo 12615" transform="translate(113.12 25.844)" opacity="0.6">
              <g id="Grupo_12614" data-name="Grupo 12614">
                <g id="Grupo_12613" data-name="Grupo 12613" clip-path="url(#clip-path-32)">
                  <path id="Trazado_33102" data-name="Trazado 33102" d="M1443.942,330.356a.351.351,0,1,1,.016-.567.411.411,0,0,1-.016.567" transform="translate(-1443.293 -329.736)" fill="#fff"/>
                </g>
              </g>
            </g>
            <g id="Grupo_12618" data-name="Grupo 12618" transform="translate(114.321 28.028)" opacity="0.3">
              <g id="Grupo_12617" data-name="Grupo 12617">
                <g id="Grupo_12616" data-name="Grupo 12616" clip-path="url(#clip-path-33)">
                  <path id="Trazado_33103" data-name="Trazado 33103" d="M1460.5,360.139a1.485,1.485,0,0,1-1.518.121c-.8-.471-.16-1.253.433-1.31,1.8-.173,1.9-1.643,2.271-1.3s-.047,1.793-1.186,2.486" transform="translate(-1458.613 -357.601)" fill="#fff"/>
                </g>
              </g>
            </g>
            <path id="Trazado_33104" data-name="Trazado 33104" d="M1409.17,583.569a11.832,11.832,0,1,0-15.4,6.557,11.832,11.832,0,0,0,15.4-6.557" transform="translate(-1277.7 -522.851)" fill="#f0fcff"/>
            <path id="Trazado_33105" data-name="Trazado 33105" d="M1706.658,557.342a11.832,11.832,0,1,0-15.4,6.557,11.832,11.832,0,0,0,15.4-6.557" transform="translate(-1551.873 -498.678)" fill="#f0fcff"/>
            <path id="Trazado_33106" data-name="Trazado 33106" d="M271.872,303.527a11.832,11.832,0,1,0-15.4,6.557,11.832,11.832,0,0,0,15.4-6.557" transform="translate(-229.54 -264.758)" fill="#f0fcff"/>
            <path id="Trazado_33107" data-name="Trazado 33107" d="M1678.426,804.839a15.74,15.74,0,1,0-20.479,8.723,15.74,15.74,0,0,0,20.479-8.723" transform="translate(-1518.91 -721.831)" fill="#f0fcff"/>
            <path id="Trazado_33108" data-name="Trazado 33108" d="M1584.055,750.1a9.579,9.579,0,1,0-12.463,5.308,9.579,9.579,0,0,0,12.463-5.308" transform="translate(-1442.882 -679.184)" fill="#f0fcff"/>
            <path id="Trazado_33109" data-name="Trazado 33109" d="M2091.941,688.628a4.672,4.672,0,1,0-6.079,2.589,4.672,4.672,0,0,0,6.079-2.589" transform="translate(-1919.681 -628.741)" fill="#f0fcff"/>
            <path id="Trazado_33110" data-name="Trazado 33110" d="M1507.164,972.177a3.951,3.951,0,1,0-5.141,2.19,3.951,3.951,0,0,0,5.141-2.19" transform="translate(-1382.016 -890.978)" fill="#f0fcff"/>
            <path id="Trazado_33111" data-name="Trazado 33111" d="M143.171,143.8a6.55,6.55,0,1,0-8.523,3.63,6.55,6.55,0,0,0,8.523-3.63" transform="translate(-120.311 -124.237)" fill="#f0fcff"/>
            <path id="Trazado_33112" data-name="Trazado 33112" d="M1593.156,594.668a7.688,7.688,0,1,0-10,4.261,7.688,7.688,0,0,0,10-4.261" transform="translate(-1454.629 -538.326)" fill="#f0fcff"/>
            <path id="Trazado_33113" data-name="Trazado 33113" d="M107.55,418.692A9.188,9.188,0,1,0,95.6,423.784a9.188,9.188,0,0,0,11.954-5.092" transform="translate(-82.795 -374.244)" fill="#f0fcff"/>
            <path id="Trazado_33114" data-name="Trazado 33114" d="M507.371,352.281a5.841,5.841,0,1,0-7.6,3.237,5.841,5.841,0,0,0,7.6-3.237" transform="translate(-457.227 -317.275)" fill="#f0fcff"/>
            <path id="Trazado_33115" data-name="Trazado 33115" d="M702.449,297.524a5.841,5.841,0,1,0-7.6,3.237,5.841,5.841,0,0,0,7.6-3.237" transform="translate(-637.015 -266.81)" fill="#f0fcff"/>
            <path id="Trazado_33116" data-name="Trazado 33116" d="M1018.954,388.657a4.384,4.384,0,1,0-5.7,2.429,4.384,4.384,0,0,0,5.7-2.429" transform="translate(-931.303 -352.645)" fill="#f0fcff"/>
            <path id="Trazado_33117" data-name="Trazado 33117" d="M518.915,651.3a3.749,3.749,0,1,0-4.878,2.077,3.749,3.749,0,0,0,4.878-2.077" transform="translate(-471.583 -595.506)" fill="#f0fcff"/>
            <path id="Trazado_33118" data-name="Trazado 33118" d="M494.018,470.131a10.463,10.463,0,1,0-13.613,5.8,10.463,10.463,0,0,0,13.613-5.8" transform="translate(-436.708 -420.037)" fill="#f0fcff"/>
            <path id="Trazado_33119" data-name="Trazado 33119" d="M784.46,324.941a10.463,10.463,0,1,0-13.613,5.8,10.462,10.462,0,0,0,13.613-5.8" transform="translate(-704.386 -286.227)" fill="#f0fcff"/>
            <path id="Trazado_33120" data-name="Trazado 33120" d="M1023.9,513.8a5.923,5.923,0,1,0-7.706,3.282,5.923,5.923,0,0,0,7.706-3.282" transform="translate(-933.131 -466.035)" fill="#f0fcff"/>
            <path id="Trazado_33121" data-name="Trazado 33121" d="M243.981,499.461a12.838,12.838,0,1,0-16.7,7.114,12.838,12.838,0,0,0,16.7-7.114" transform="translate(-202.048 -444.061)" fill="#f0fcff"/>
            <path id="Trazado_33122" data-name="Trazado 33122" d="M184,835.226a6.005,6.005,0,1,0-7.813,3.328A6.005,6.005,0,0,0,184,835.226" transform="translate(-158.909 -762.161)" fill="#f0fcff"/>
            <g id="Grupo_12621" data-name="Grupo 12621" transform="translate(46.461 149.903)" opacity="0.3" style="mix-blend-mode: multiply;isolation: isolate">
              <g id="Grupo_12620" data-name="Grupo 12620">
                <g id="Grupo_12619" data-name="Grupo 12619" clip-path="url(#clip-path-34)">
                  <path id="Trazado_33123" data-name="Trazado 33123" d="M682.28,1916.784c0,2.316-20.032,4.194-44.742,4.194s-44.742-1.878-44.742-4.194,20.032-4.194,44.742-4.194,44.742,1.878,44.742,4.194" transform="translate(-592.795 -1912.59)" fill="#c4c4c4"/>
                </g>
              </g>
            </g>
          </g>
        </g>
      </g>
    </g>
    <g id="Grupo_12626" data-name="Grupo 12626" transform="translate(1185.588 10425.274)">
      <g id="Grupo_12523" data-name="Grupo 12523" clip-path="url(#clip-path-35)">
        <path id="Trazado_33011" data-name="Trazado 33011" d="M254.174,232.936c0,6.269-56.9,11.353-127.086,11.353S0,239.205,0,232.936s56.9-11.353,127.086-11.353,127.086,5.083,127.086,11.353" transform="translate(-0.001 -117.563)" fill="#9b9280"/>
        <rect id="Rectángulo_3498" data-name="Rectángulo 3498" width="1.86" height="20.163" transform="translate(27.897 41.718)" fill="#d1ecfb"/>
        <path id="Trazado_33012" data-name="Trazado 33012" d="M63.39,88.868h0v0Z" transform="translate(-33.632 -47.15)" fill="#d1ecfb"/>
        <rect id="Rectángulo_3499" data-name="Rectángulo 3499" width="1.861" height="20.163" transform="translate(29.758 41.718)" fill="#bfe4ef"/>
        <path id="Trazado_33013" data-name="Trazado 33013" d="M63.39,108.942h0v0Z" transform="translate(-33.632 -57.8)" fill="#fff"/>
        <path id="Trazado_33014" data-name="Trazado 33014" d="M63.39,102.336h0v0Z" transform="translate(-33.632 -54.295)" fill="#fff"/>
        <path id="Trazado_33015" data-name="Trazado 33015" d="M52.731,102.336a.789.789,0,0,0-.789.789v2.528a5.935,5.935,0,0,0-4.36,5.7V117.6a5.934,5.934,0,0,0,5.917,5.917H55V102.336Z" transform="translate(-25.245 -54.295)" fill="#fff"/>
        <path id="Trazado_33016" data-name="Trazado 33016" d="M66.45,105.654v-2.528a.789.789,0,0,0-.789-.789H63.389v21.185h1.5a5.933,5.933,0,0,0,5.916-5.916v-6.252a5.935,5.935,0,0,0-4.36-5.7" transform="translate(-33.632 -54.296)" fill="#e1f5ff"/>
        <path id="Trazado_33017" data-name="Trazado 33017" d="M38.692,85.07a.976.976,0,0,0-.941.975V87.58a.976.976,0,0,0,.941.975l11.095.4V84.671Z" transform="translate(-20.029 -44.923)" fill="#fff"/>
        <path id="Trazado_33018" data-name="Trazado 33018" d="M69.363,84.213l-5.974.215v4.283l5.974.215a.976.976,0,0,0,1.011-.975V85.188a.975.975,0,0,0-1.011-.975" transform="translate(-33.632 -44.68)" fill="#fff"/>
        <path id="Trazado_33019" data-name="Trazado 33019" d="M35.274,123.266a9.809,9.809,0,0,0-9.809,9.809v43.817a4.327,4.327,0,0,0,4.326,4.327H43.268V123.266Z" transform="translate(-13.511 -65.4)" fill="#76dcf4"/>
        <path id="Trazado_33020" data-name="Trazado 33020" d="M71.385,123.266H63.39v57.953H76.867a4.327,4.327,0,0,0,4.327-4.327V133.075a9.809,9.809,0,0,0-9.809-9.809" transform="translate(-33.632 -65.4)" fill="#51cce0"/>
        <path id="Trazado_33021" data-name="Trazado 33021" d="M106.185,145.743V70.09H104.64A21.449,21.449,0,0,0,83.192,91.539v13.573a7.2,7.2,0,0,0,1.21,4l3.237,4.857a9.734,9.734,0,0,1-.753,11.787l-1.926,2.215a7.2,7.2,0,0,0-1.768,4.728v4.486a7.927,7.927,0,0,0,4.056,6.917l2.94,1.644h16Z" transform="translate(-44.138 -37.187)" fill="#fff085"/>
        <path id="Trazado_33022" data-name="Trazado 33022" d="M153.919,109.109a7.2,7.2,0,0,0,1.21-4V91.539A21.449,21.449,0,0,0,133.68,70.091h-1.508v75.653h15.96l2.94-1.645a7.927,7.927,0,0,0,4.056-6.917V132.7a7.206,7.206,0,0,0-1.768-4.728l-1.927-2.215a9.734,9.734,0,0,1-.753-11.787Z" transform="translate(-70.125 -37.188)" fill="#ffdd71"/>
        <path id="Trazado_33023" data-name="Trazado 33023" d="M114.026,231.246H98v7.433a2.85,2.85,0,0,0,2.85,2.85h13.172Z" transform="translate(-51.997 -122.69)" fill="#6d6460"/>
        <path id="Trazado_33024" data-name="Trazado 33024" d="M132.133,231.246v10.283h13.172a2.849,2.849,0,0,0,2.849-2.85v-7.433H132.133Z" transform="translate(-70.104 -122.69)" fill="#594a42"/>
        <path id="Trazado_33025" data-name="Trazado 33025" d="M294.8,103.035H281.477v47.738H294.8a5.454,5.454,0,0,0,5.454-5.453v-36.83a5.454,5.454,0,0,0-5.454-5.454" transform="translate(-149.34 -54.666)" fill="#4ec2dd"/>
        <path id="Trazado_33026" data-name="Trazado 33026" d="M246.931,103.035a5.454,5.454,0,0,0-5.453,5.454v36.83a5.453,5.453,0,0,0,5.453,5.453h13.324V103.035Z" transform="translate(-128.119 -54.666)" fill="#76dcf4"/>
        <path id="Trazado_33027" data-name="Trazado 33027" d="M200.937,68.647H187.555v90.467h9.779a4.956,4.956,0,0,0,4.512-2.893c4.715-10.338,7.7-25.7,7.7-42.843,0-18.226-3.377-34.427-8.614-44.73" transform="translate(-99.509 -36.421)" fill="#d34529"/>
        <path id="Trazado_33028" data-name="Trazado 33028" d="M149.315,68.647c-5.237,10.3-8.614,26.5-8.614,44.73,0,17.148,2.99,32.506,7.7,42.843a4.956,4.956,0,0,0,4.512,2.893H162.7V68.647Z" transform="translate(-74.65 -36.421)" fill="#e05c4b"/>
        <path id="Trazado_33029" data-name="Trazado 33029" d="M153.808,46.032h0a2.553,2.553,0,0,0,2.553,2.553h13.288V43.479H156.361a2.553,2.553,0,0,0-2.553,2.553" transform="translate(-81.604 -23.068)" fill="#fff"/>
        <path id="Trazado_33030" data-name="Trazado 33030" d="M200.854,43.478h-13.3v5.106h13.3a2.553,2.553,0,0,0,0-5.106" transform="translate(-99.508 -23.068)" fill="#e1f5ff"/>
        <rect id="Rectángulo_3500" data-name="Rectángulo 3500" width="13.392" height="6.709" transform="translate(88.046 25.516)" fill="#e1f5ff"/>
        <rect id="Rectángulo_3501" data-name="Rectángulo 3501" width="13.381" height="6.709" transform="translate(74.664 25.516)" fill="#fff"/>
        <path id="Trazado_33031" data-name="Trazado 33031" d="M172.431,54.355H159.05v1.916h26.773V54.355Z" transform="translate(-84.385 -28.839)" fill="#bfe4ef"/>
        <path id="Trazado_33032" data-name="Trazado 33032" d="M187.553,98.424v58.391c9.908,0,17.941-13.071,17.941-29.2s-8.033-29.2-17.941-29.2" transform="translate(-99.508 -52.22)" fill="#ef6359"/>
        <path id="Trazado_33033" data-name="Trazado 33033" d="M149.335,127.619c0,16.124,8.032,29.2,17.941,29.2V98.424c-9.909,0-17.941,13.071-17.941,29.2" transform="translate(-79.231 -52.22)" fill="#f97d73"/>
        <path id="Trazado_33034" data-name="Trazado 33034" d="M453.244,91.55l3.114,59.953a2.45,2.45,0,0,0,2.448,2.324h9.632V91.55Z" transform="translate(-240.473 -48.573)" fill="#00a79d"/>
        <path id="Trazado_33035" data-name="Trazado 33035" d="M485.609,91.55v62.277h9.632a2.451,2.451,0,0,0,2.447-2.324L500.8,91.55Z" transform="translate(-257.645 -48.573)" fill="#0e998b"/>
        <rect id="Rectángulo_3502" data-name="Rectángulo 3502" width="15.193" height="3.591" transform="translate(212.771 39.386)" fill="#0e998b"/>
        <rect id="Rectángulo_3503" data-name="Rectángulo 3503" width="15.193" height="3.591" transform="translate(227.965 39.386)" fill="#098475"/>
        <path id="Trazado_33036" data-name="Trazado 33036" d="M462.99,224.212a2.856,2.856,0,0,0-2.856,2.856v4.853a2.856,2.856,0,0,0,2.856,2.856h9.1V224.212Z" transform="translate(-244.129 -118.958)" fill="#fff"/>
        <path id="Trazado_33037" data-name="Trazado 33037" d="M494.74,224.212h-9.13v10.565h9.13a2.856,2.856,0,0,0,2.856-2.856v-4.853a2.856,2.856,0,0,0-2.856-2.856" transform="translate(-257.645 -118.958)" fill="#e1f5ff"/>
        <path id="Trazado_33038" data-name="Trazado 33038" d="M427.856,102.035h-3.125v70.94h13.911a5.156,5.156,0,0,0,5.155-5.156V117.977a15.942,15.942,0,0,0-15.942-15.942" transform="translate(-225.345 -54.136)" fill="#ffdd71"/>
        <path id="Trazado_33039" data-name="Trazado 33039" d="M400.056,102.035a15.942,15.942,0,0,0-15.942,15.942v49.842a5.156,5.156,0,0,0,5.156,5.156h13.911v-70.94Z" transform="translate(-203.796 -54.136)" fill="#fff085"/>
        <rect id="Rectángulo_3504" data-name="Rectángulo 3504" width="1.861" height="20.163" transform="translate(197.525 26.904)" fill="#594a42"/>
        <rect id="Rectángulo_3505" data-name="Rectángulo 3505" width="1.861" height="20.163" transform="translate(199.385 26.905)" fill="#3d312c"/>
        <path id="Trazado_33040" data-name="Trazado 33040" d="M414.073,70.779a.789.789,0,0,0-.789.789V73.88h-1.842a2.526,2.526,0,0,0-2.518,2.519v9.65h7.42V70.779Z" transform="translate(-216.959 -37.553)" fill="#6d6460"/>
        <path id="Trazado_33041" data-name="Trazado 33041" d="M429.633,73.88h-1.842V71.568a.789.789,0,0,0-.789-.789h-2.272V86.048h7.42V76.4a2.526,2.526,0,0,0-2.518-2.518" transform="translate(-225.345 -37.553)" fill="#594a42"/>
        <path id="Trazado_33042" data-name="Trazado 33042" d="M429.539,54.964c-11.03-2.311-18.423-.063-18.5-.04l-.982-3.136c.333-.1,8.292-2.525,20.153-.04Z" transform="translate(-217.561 -26.863)" fill="#6d6460"/>
        <path id="Trazado_33043-2" data-name="Trazado 33043" d="M330.931,74.5h0a63.464,63.464,0,0,0-12.972,38.448v45.864a3.405,3.405,0,0,0,3.4,3.405H340.07V74.5Z" transform="translate(-168.696 -39.528)" fill="#66ad5a"/>
        <path id="Trazado_33044-2" data-name="Trazado 33044" d="M374.2,74.5h-9.14v87.718h18.707a3.405,3.405,0,0,0,3.4-3.4V112.951A63.467,63.467,0,0,0,374.2,74.5" transform="translate(-193.686 -39.528)" fill="#5b9b4e"/>
        <rect id="Rectángulo_3506-2" data-name="Rectángulo 3506" width="9.145" height="16.726" transform="translate(171.37 18.249)" fill="#ffdd71"/>
        <rect id="Rectángulo_3507-2" data-name="Rectángulo 3507" width="9.138" height="16.726" transform="translate(162.232 18.249)" fill="#fff085"/>
        <path id="Trazado_33045-2" data-name="Trazado 33045" d="M364.458,38.429c0,1.525-2.047,2.761-4.572,2.761s-4.572-1.236-4.572-2.761,2.047-2.761,4.572-2.761,4.572,1.236,4.572,2.761" transform="translate(-188.515 -18.924)" fill="#efbe52"/>
        <path id="Trazado_33046-2" data-name="Trazado 33046" d="M347.663,29.791a2.342,2.342,0,0,0-2.076,2.538v1.725h9.138V29.791Z" transform="translate(-183.355 -15.806)" fill="#fff085"/>
        <path id="Trazado_33047-2" data-name="Trazado 33047" d="M374.2,32.329a2.342,2.342,0,0,0-2.076-2.538h-7.069v4.263H374.2Z" transform="translate(-193.683 -15.806)" fill="#ffdd71"/>
        <rect id="Rectángulo_3508-2" data-name="Rectángulo 3508" width="18.283" height="1.731" transform="translate(162.232 17.973)" fill="#efbe52"/>
        <path id="Trazado_33048-2" data-name="Trazado 33048" d="M377.91,126.985H365.229V163.5H377.91a1.684,1.684,0,0,0,1.684-1.684v-33.15a1.684,1.684,0,0,0-1.684-1.684" transform="translate(-193.776 -67.373)" fill="#78c168"/>
        <path id="Trazado_33049-2" data-name="Trazado 33049" d="M336.315,126.985a1.684,1.684,0,0,0-1.684,1.684v33.15a1.684,1.684,0,0,0,1.684,1.684H349V126.985Z" transform="translate(-177.542 -67.373)" fill="#9cdd8e"/>
        <path id="Trazado_33050" data-name="Trazado 33050" d="M250.447,0a8.24,8.24,0,0,0-5.369,2.053A39.12,39.12,0,0,0,238.652,9.3c-.576.821-1.142,1.672-1.693,2.561a65.96,65.96,0,0,0-3.508,6.469H256V0Z" transform="translate(-123.86)" fill="#fff"/>
        <path id="Trazado_33051" data-name="Trazado 33051" d="M300.514,11.861c-.551-.89-1.117-1.74-1.693-2.561A39.1,39.1,0,0,0,292.4,2.053,8.239,8.239,0,0,0,287.027,0h-5.55V18.33h22.545a65.864,65.864,0,0,0-3.508-6.469" transform="translate(-149.34)" fill="#e1f5ff"/>
        <path id="Trazado_33052" data-name="Trazado 33052" d="M221.855,39.048c-6.341,13.364-10.261,31.795-10.261,52.149,0,19.733,3.685,37.657,9.688,50.91a8.572,8.572,0,0,0,7.681,5.306H244.4V39.048Z" transform="translate(-112.263 -20.717)" fill="#46addb"/>
        <path id="Trazado_33053" data-name="Trazado 33053" d="M304.023,39.048H281.478V147.412h15.437a8.572,8.572,0,0,0,7.681-5.306c6-13.253,9.688-31.176,9.688-50.91,0-20.354-3.92-38.785-10.261-52.149" transform="translate(-149.341 -20.717)" fill="#3197c4"/>
        <path id="Trazado_33054" data-name="Trazado 33054" d="M281.478,17.227V31.514a7.143,7.143,0,0,0,0-14.287" transform="translate(-149.341 -9.14)" fill="#e1f5ff"/>
        <path id="Trazado_33055" data-name="Trazado 33055" d="M266.26,24.37a7.144,7.144,0,0,0,7.144,7.143V17.227a7.144,7.144,0,0,0-7.144,7.143" transform="translate(-141.267 -9.14)" fill="#fff"/>
        <path id="Trazado_33056" data-name="Trazado 33056" d="M294.8,103.035H281.477v47.738H294.8a5.454,5.454,0,0,0,5.454-5.453v-36.83a5.454,5.454,0,0,0-5.454-5.454" transform="translate(-149.34 -54.666)" fill="#51cce0"/>
        <path id="Trazado_33057" data-name="Trazado 33057" d="M246.931,103.035a5.454,5.454,0,0,0-5.453,5.454v36.83a5.453,5.453,0,0,0,5.453,5.453h13.324V103.035Z" transform="translate(-128.119 -54.666)" fill="#76dcf4"/>
      </g>
    </g>
  </g>
</svg>
