<svg xmlns="http://www.w3.org/2000/svg" xmlns:xlink="http://www.w3.org/1999/xlink" width="370.62" height="184.783" viewBox="0 0 370.62 184.783">
  <defs>
    <clipPath id="clip-path">
      <rect id="Rectángulo_3509" data-name="Rectángulo 3509" width="370.62" height="184.784" fill="none"/>
    </clipPath>
  </defs>
  <g id="Grupo_18894" data-name="Grupo 18894" transform="translate(-1081.819 -9515.166)">
    <g id="Grupo_12524" data-name="Grupo 12524" transform="translate(1081.819 9515.166)">
      <g id="Grupo_12523" data-name="Grupo 12523" clip-path="url(#clip-path)">
        <path id="Trazado_33011" data-name="Trazado 33011" d="M370.621,238.137c0,9.142-82.966,16.554-185.31,16.554S0,247.279,0,238.137s82.966-16.554,185.31-16.554,185.31,7.412,185.31,16.554" transform="translate(0 -69.907)" fill="#9b9280"/>
        <rect id="Rectángulo_3498" data-name="Rectángulo 3498" width="2.713" height="29.401" transform="translate(40.678 60.831)" fill="#d1ecfb"/>
        <path id="Trazado_33012" data-name="Trazado 33012" d="M63.39,88.868h0v0Z" transform="translate(-19.999 -28.037)" fill="#d1ecfb"/>
        <rect id="Rectángulo_3499" data-name="Rectángulo 3499" width="2.713" height="29.401" transform="translate(43.391 60.831)" fill="#bfe4ef"/>
        <path id="Trazado_33013" data-name="Trazado 33013" d="M63.39,108.942h0v0Z" transform="translate(-19.999 -34.37)" fill="#fff"/>
        <path id="Trazado_33014" data-name="Trazado 33014" d="M63.39,102.336h0v0Z" transform="translate(-19.999 -32.286)" fill="#fff"/>
        <path id="Trazado_33015" data-name="Trazado 33015" d="M55.09,102.336a1.15,1.15,0,0,0-1.151,1.15v3.687a8.654,8.654,0,0,0-6.357,8.312V124.6a8.653,8.653,0,0,0,8.628,8.628H58.4V102.336Z" transform="translate(-15.012 -32.286)" fill="#fff"/>
        <path id="Trazado_33016" data-name="Trazado 33016" d="M67.852,107.174v-3.687a1.15,1.15,0,0,0-1.151-1.15H63.389v30.891h2.194a8.652,8.652,0,0,0,8.626-8.627v-9.116a8.654,8.654,0,0,0-6.357-8.312" transform="translate(-19.999 -32.286)" fill="#e1f5ff"/>
        <path id="Trazado_33017" data-name="Trazado 33017" d="M39.123,85.252a1.423,1.423,0,0,0-1.372,1.422v2.238a1.423,1.423,0,0,0,1.372,1.422l16.178.581V84.671Z" transform="translate(-11.91 -26.713)" fill="#fff"/>
        <path id="Trazado_33018" data-name="Trazado 33018" d="M72.1,84.214l-8.711.313v6.245l8.711.313a1.423,1.423,0,0,0,1.474-1.422V85.635A1.422,1.422,0,0,0,72.1,84.214" transform="translate(-19.999 -26.568)" fill="#fff"/>
        <path id="Trazado_33019" data-name="Trazado 33019" d="M39.768,123.266a14.3,14.3,0,0,0-14.3,14.3V201.46a6.309,6.309,0,0,0,6.308,6.309H51.424v-84.5Z" transform="translate(-8.034 -38.889)" fill="#76dcf4"/>
        <path id="Trazado_33020" data-name="Trazado 33020" d="M75.047,123.266H63.39v84.5H83.042a6.309,6.309,0,0,0,6.309-6.309V137.569a14.3,14.3,0,0,0-14.3-14.3" transform="translate(-19.999 -38.889)" fill="#51cce0"/>
        <path id="Trazado_33021" data-name="Trazado 33021" d="M116.719,180.4V70.09h-2.253a31.275,31.275,0,0,0-31.275,31.275v19.791a10.5,10.5,0,0,0,1.765,5.827l4.72,7.082a14.194,14.194,0,0,1-1.1,17.187l-2.809,3.23a10.5,10.5,0,0,0-2.578,6.894v6.542a11.558,11.558,0,0,0,5.914,10.086l4.287,2.4h23.326Z" transform="translate(-26.246 -22.113)" fill="#fff085"/>
        <path id="Trazado_33022" data-name="Trazado 33022" d="M163.882,126.985a10.5,10.5,0,0,0,1.765-5.828V101.366a31.275,31.275,0,0,0-31.275-31.275h-2.2V180.4h23.273l4.287-2.4a11.558,11.558,0,0,0,5.915-10.086v-6.541a10.508,10.508,0,0,0-2.578-6.894l-2.809-3.23a14.194,14.194,0,0,1-1.1-17.187Z" transform="translate(-41.699 -22.113)" fill="#ffdd71"/>
        <path id="Trazado_33023" data-name="Trazado 33023" d="M121.366,231.246H98v10.839a4.155,4.155,0,0,0,4.156,4.155h19.206Z" transform="translate(-30.919 -72.956)" fill="#6d6460"/>
        <path id="Trazado_33024" data-name="Trazado 33024" d="M132.133,231.246V246.24H151.34a4.155,4.155,0,0,0,4.155-4.155V231.246H132.133Z" transform="translate(-41.687 -72.956)" fill="#594a42"/>
        <path id="Trazado_33025" data-name="Trazado 33025" d="M300.9,103.035H281.477v69.609H300.9a7.952,7.952,0,0,0,7.953-7.952v-53.7a7.953,7.953,0,0,0-7.953-7.953" transform="translate(-88.803 -32.507)" fill="#4ec2dd"/>
        <path id="Trazado_33026" data-name="Trazado 33026" d="M249.43,103.035a7.952,7.952,0,0,0-7.952,7.953v53.7a7.952,7.952,0,0,0,7.952,7.952h19.428V103.035Z" transform="translate(-76.184 -32.507)" fill="#76dcf4"/>
        <path id="Trazado_33027" data-name="Trazado 33027" d="M207.068,68.647H187.555V200.56h14.259a7.226,7.226,0,0,0,6.579-4.219c6.875-15.074,11.235-37.467,11.235-62.472,0-26.575-4.924-50.2-12.56-65.223" transform="translate(-59.172 -21.657)" fill="#d34529"/>
        <path id="Trazado_33028" data-name="Trazado 33028" d="M153.261,68.647c-7.636,15.023-12.56,38.647-12.56,65.223,0,25,4.36,47.4,11.235,62.472a7.226,7.226,0,0,0,6.579,4.219h14.258V68.647Z" transform="translate(-44.39 -21.657)" fill="#e05c4b"/>
        <path id="Trazado_33029" data-name="Trazado 33029" d="M153.808,47.2h0a3.723,3.723,0,0,0,3.722,3.722h19.376V43.479H157.53a3.722,3.722,0,0,0-3.722,3.722" transform="translate(-48.525 -13.717)" fill="#fff"/>
        <path id="Trazado_33030" data-name="Trazado 33030" d="M206.947,43.478H187.553v7.445h19.394a3.723,3.723,0,0,0,0-7.445" transform="translate(-59.171 -13.717)" fill="#e1f5ff"/>
        <rect id="Rectángulo_3500" data-name="Rectángulo 3500" width="19.527" height="9.783" transform="translate(128.383 37.207)" fill="#e1f5ff"/>
        <rect id="Rectángulo_3501" data-name="Rectángulo 3501" width="19.512" height="9.783" transform="translate(108.871 37.207)" fill="#fff"/>
        <path id="Trazado_33031" data-name="Trazado 33031" d="M178.562,54.355H159.05v2.793h39.039V54.355Z" transform="translate(-50.179 -17.149)" fill="#bfe4ef"/>
        <path id="Trazado_33032" data-name="Trazado 33032" d="M187.553,98.424v85.142c14.448,0,26.161-19.059,26.161-42.571S202,98.424,187.553,98.424" transform="translate(-59.171 -31.052)" fill="#ef6359"/>
        <path id="Trazado_33033" data-name="Trazado 33033" d="M149.335,141c0,23.512,11.712,42.571,26.161,42.571V98.424c-14.449,0-26.161,19.06-26.161,42.571" transform="translate(-47.114 -31.052)" fill="#f97d73"/>
        <path id="Trazado_33034" data-name="Trazado 33034" d="M453.244,91.55l4.54,87.42a3.573,3.573,0,0,0,3.569,3.388H475.4V91.55Z" transform="translate(-142.994 -28.883)" fill="#00a79d"/>
        <path id="Trazado_33035" data-name="Trazado 33035" d="M485.609,91.55v90.808h14.045a3.573,3.573,0,0,0,3.568-3.388l4.54-87.42Z" transform="translate(-153.205 -28.883)" fill="#0e998b"/>
        <rect id="Rectángulo_3502" data-name="Rectángulo 3502" width="22.154" height="5.236" transform="translate(310.25 57.43)" fill="#0e998b"/>
        <rect id="Rectángulo_3503" data-name="Rectángulo 3503" width="22.153" height="5.236" transform="translate(332.405 57.43)" fill="#098475"/>
        <path id="Trazado_33036" data-name="Trazado 33036" d="M464.3,224.212a4.164,4.164,0,0,0-4.164,4.164v7.076a4.165,4.165,0,0,0,4.164,4.165h13.275v-15.4Z" transform="translate(-145.168 -70.737)" fill="#fff"/>
        <path id="Trazado_33037" data-name="Trazado 33037" d="M498.923,224.212H485.61v15.4h13.313a4.165,4.165,0,0,0,4.164-4.165v-7.076a4.164,4.164,0,0,0-4.164-4.164" transform="translate(-153.205 -70.737)" fill="#e1f5ff"/>
        <path id="Trazado_33038" data-name="Trazado 33038" d="M429.288,102.035h-4.557v103.44h20.285a7.518,7.518,0,0,0,7.517-7.518V125.28a23.245,23.245,0,0,0-23.245-23.245" transform="translate(-133.998 -32.191)" fill="#ffdd71"/>
        <path id="Trazado_33039" data-name="Trazado 33039" d="M407.359,102.035a23.245,23.245,0,0,0-23.245,23.245v72.677a7.518,7.518,0,0,0,7.518,7.518h20.284V102.035Z" transform="translate(-121.184 -32.191)" fill="#fff085"/>
        <rect id="Rectángulo_3504" data-name="Rectángulo 3504" width="2.713" height="29.401" transform="translate(288.019 39.23)" fill="#594a42"/>
        <rect id="Rectángulo_3505" data-name="Rectángulo 3505" width="2.713" height="29.401" transform="translate(290.732 39.231)" fill="#3d312c"/>
        <path id="Trazado_33040" data-name="Trazado 33040" d="M416.432,70.779a1.151,1.151,0,0,0-1.151,1.151V75.3H412.6a3.683,3.683,0,0,0-3.672,3.672V93.044h10.82V70.779Z" transform="translate(-129.011 -22.33)" fill="#6d6460"/>
        <path id="Trazado_33041" data-name="Trazado 33041" d="M431.879,75.3h-2.685V71.929a1.15,1.15,0,0,0-1.151-1.15h-3.312V93.043h10.82V78.973a3.683,3.683,0,0,0-3.672-3.672" transform="translate(-133.998 -22.33)" fill="#594a42"/>
        <path id="Trazado_33042" data-name="Trazado 33042" d="M438.463,56.95c-16.084-3.369-26.864-.092-26.971-.058l-1.432-4.573c.486-.152,12.091-3.681,29.386-.059Z" transform="translate(-129.37 -15.974)" fill="#6d6460"/>
        <path id="Trazado_33043" data-name="Trazado 33043" d="M336.874,74.5h0a92.54,92.54,0,0,0-18.915,56.063v66.877a4.965,4.965,0,0,0,4.965,4.965H350.2V74.5Z" transform="translate(-100.313 -23.505)" fill="#66ad5a"/>
        <path id="Trazado_33044" data-name="Trazado 33044" d="M378.386,74.5H365.059v127.9h27.277a4.965,4.965,0,0,0,4.965-4.965V130.566A92.544,92.544,0,0,0,378.386,74.5" transform="translate(-115.172 -23.505)" fill="#5b9b4e"/>
        <rect id="Rectángulo_3506" data-name="Rectángulo 3506" width="13.334" height="24.388" transform="translate(249.882 26.609)" fill="#ffdd71"/>
        <rect id="Rectángulo_3507" data-name="Rectángulo 3507" width="13.325" height="24.388" transform="translate(236.558 26.61)" fill="#fff085"/>
        <path id="Trazado_33045" data-name="Trazado 33045" d="M368.647,39.694c0,2.224-2.985,4.026-6.667,4.026s-6.667-1.8-6.667-4.026,2.984-4.026,6.667-4.026,6.667,1.8,6.667,4.026" transform="translate(-112.098 -11.253)" fill="#efbe52"/>
        <path id="Trazado_33046" data-name="Trazado 33046" d="M348.614,29.791c-1.672,0-3.027,1.657-3.027,3.7v2.516h13.325V29.791Z" transform="translate(-109.029 -9.399)" fill="#fff085"/>
        <path id="Trazado_33047" data-name="Trazado 33047" d="M378.387,33.492c0-2.044-1.355-3.7-3.027-3.7H365.053v6.217h13.334Z" transform="translate(-115.171 -9.399)" fill="#ffdd71"/>
        <rect id="Rectángulo_3508" data-name="Rectángulo 3508" width="26.66" height="2.524" transform="translate(236.557 26.208)" fill="#efbe52"/>
        <path id="Trazado_33048" data-name="Trazado 33048" d="M383.719,126.985h-18.49v53.249h18.49a2.456,2.456,0,0,0,2.456-2.455V129.44a2.456,2.456,0,0,0-2.456-2.455" transform="translate(-115.226 -40.062)" fill="#78c168"/>
        <path id="Trazado_33049" data-name="Trazado 33049" d="M337.086,126.985a2.456,2.456,0,0,0-2.455,2.455v48.338a2.456,2.456,0,0,0,2.455,2.455h18.49V126.985Z" transform="translate(-105.573 -40.062)" fill="#9cdd8e"/>
        <path id="Trazado_33050" data-name="Trazado 33050" d="M258.233,0A12.015,12.015,0,0,0,250.4,2.994a57.043,57.043,0,0,0-9.37,10.567c-.84,1.2-1.665,2.438-2.468,3.734a96.182,96.182,0,0,0-5.115,9.433h32.874V0Z" transform="translate(-73.651)" fill="#fff"/>
        <path id="Trazado_33051" data-name="Trazado 33051" d="M309.236,17.295c-.8-1.3-1.628-2.537-2.468-3.734A57.022,57.022,0,0,0,297.4,2.994,12.014,12.014,0,0,0,289.57,0h-8.093V26.728h32.874a96.04,96.04,0,0,0-5.115-9.433" transform="translate(-88.803)" fill="#e1f5ff"/>
        <path id="Trazado_33052" data-name="Trazado 33052" d="M226.555,39.048c-9.246,19.487-14.961,46.361-14.961,76.04,0,28.774,5.373,54.909,14.126,74.234,2.151,4.748,6.474,7.736,11.2,7.736H259.43V39.048Z" transform="translate(-66.756 -12.319)" fill="#46addb"/>
        <path id="Trazado_33053" data-name="Trazado 33053" d="M314.352,39.048H281.478v158.01h22.509c4.726,0,9.049-2.989,11.2-7.736,8.754-19.324,14.127-45.46,14.127-74.234,0-29.679-5.716-56.554-14.962-76.04" transform="translate(-88.803 -12.319)" fill="#3197c4"/>
        <path id="Trazado_33054" data-name="Trazado 33054" d="M281.478,17.227V38.059a10.416,10.416,0,1,0,0-20.832" transform="translate(-88.803 -5.435)" fill="#e1f5ff"/>
        <path id="Trazado_33055" data-name="Trazado 33055" d="M266.26,27.643a10.416,10.416,0,0,0,10.417,10.416V17.227A10.416,10.416,0,0,0,266.26,27.643" transform="translate(-84.002 -5.435)" fill="#fff"/>
        <path id="Trazado_33056" data-name="Trazado 33056" d="M300.9,103.035H281.477v69.609H300.9a7.952,7.952,0,0,0,7.953-7.952v-53.7a7.953,7.953,0,0,0-7.953-7.953" transform="translate(-88.803 -32.507)" fill="#51cce0"/>
        <path id="Trazado_33057" data-name="Trazado 33057" d="M249.43,103.035a7.952,7.952,0,0,0-7.952,7.953v53.7a7.952,7.952,0,0,0,7.952,7.952h19.428V103.035Z" transform="translate(-76.184 -32.507)" fill="#76dcf4"/>
      </g>
    </g>
  </g>
</svg>
