<svg xmlns="http://www.w3.org/2000/svg" width="64.482" height="158.511" viewBox="0 0 64.482 158.511">
  <g id="Grupo_18893" data-name="Grupo 18893" transform="translate(-1234.465 -9030.559)">
    <g id="Grupo_12525" data-name="Grupo 12525" transform="translate(54)">
      <path id="Trazado_33043" data-name="Trazado 33043" d="M336.874,74.5h0a92.54,92.54,0,0,0-18.915,56.063v66.877a4.965,4.965,0,0,0,4.965,4.965H350.2V74.5Z" transform="translate(862.506 8986.661)" fill="#66ad5a"/>
      <path id="Trazado_33044" data-name="Trazado 33044" d="M378.386,74.5H365.059v127.9h27.277a4.965,4.965,0,0,0,4.965-4.965V130.566A92.544,92.544,0,0,0,378.386,74.5" transform="translate(847.646 8986.661)" fill="#5b9b4e"/>
      <rect id="Rectángulo_3506" data-name="Rectángulo 3506" width="13.334" height="24.388" transform="translate(1212.701 9036.775)" fill="#ffdd71"/>
      <rect id="Rectángulo_3507" data-name="Rectángulo 3507" width="13.325" height="24.388" transform="translate(1199.376 9036.775)" fill="#fff085"/>
      <path id="Trazado_33045" data-name="Trazado 33045" d="M368.647,39.694c0,2.224-2.985,4.026-6.667,4.026s-6.667-1.8-6.667-4.026,2.984-4.026,6.667-4.026,6.667,1.8,6.667,4.026" transform="translate(850.721 8998.913)" fill="#efbe52"/>
      <path id="Trazado_33046" data-name="Trazado 33046" d="M348.614,29.791c-1.672,0-3.027,1.657-3.027,3.7v2.516h13.325V29.791Z" transform="translate(853.789 9000.768)" fill="#fff085"/>
      <path id="Trazado_33047" data-name="Trazado 33047" d="M378.387,33.492c0-2.044-1.355-3.7-3.027-3.7H365.053v6.217h13.334Z" transform="translate(847.648 9000.768)" fill="#ffdd71"/>
      <rect id="Rectángulo_3508" data-name="Rectángulo 3508" width="26.66" height="2.524" transform="translate(1199.376 9036.374)" fill="#efbe52"/>
      <path id="Trazado_33048" data-name="Trazado 33048" d="M383.719,126.985h-18.49v53.249h18.49a2.456,2.456,0,0,0,2.456-2.455V129.44a2.456,2.456,0,0,0-2.456-2.455" transform="translate(847.593 8970.104)" fill="#78c168"/>
      <path id="Trazado_33049" data-name="Trazado 33049" d="M337.086,126.985a2.456,2.456,0,0,0-2.455,2.455v48.338a2.456,2.456,0,0,0,2.455,2.455h18.49V126.985Z" transform="translate(857.246 8970.104)" fill="#9cdd8e"/>
    </g>
  </g>
</svg>
