<svg xmlns="http://www.w3.org/2000/svg" xmlns:xlink="http://www.w3.org/1999/xlink" width="308.073" height="244.967" viewBox="0 0 308.073 244.967">
  <defs>
    <clipPath id="clip-path">
      <rect id="Rectángulo_3417" data-name="Rectángulo 3417" width="308.073" height="244.967" transform="translate(0 0)" fill="none"/>
    </clipPath>
  </defs>
  <g id="Grupo_18887" data-name="Grupo 18887" transform="translate(-1107 -5801)">
    <g id="Grupo_12350" data-name="Grupo 12350" transform="translate(-23.248 -53)">
      <g id="Grupo_12349" data-name="Grupo 12349" transform="translate(1130.248 5854)">
        <g id="Grupo_12348" data-name="Grupo 12348" transform="translate(0 0)" clip-path="url(#clip-path)">
          <path id="Trazado_32475" data-name="Trazado 32475" d="M557,130.633A89.852,89.852,0,1,1,467.152,40.78,89.853,89.853,0,0,1,557,130.633" transform="translate(-320.016 -34.588)" fill="#b1e2e3"/>
          <path id="Trazado_32476" data-name="Trazado 32476" d="M1134.648,219.62s-2.495.429-2.495,2.086a22.585,22.585,0,0,0,.832,4.566l.831,3.117,2.428,2.079.9-1.233a4.281,4.281,0,0,1,1.871-.984c3.1-.373,3.117-1.281,3.117-1.281l2.7-1.49s1.038-2.079,0-2.7-4.041-2.494-4.307-2.494-1.72-3.949-1.72-3.949l-3.049-4.157s-2.147,1.723-1.732,2.836,1.04,1.529.832,2.568Z" transform="translate(-960.264 -180.812)" fill="#00c0c2"/>
          <path id="Trazado_32477" data-name="Trazado 32477" d="M1140.494,560.846a21.232,21.232,0,0,1-5.113,2.128c-6.269,1.915-8.01,2.611-14.975,3.831s-14.627-1.916-20.722,1.916-7.2,3.946-7.2,3.946l-2.96.581s-7.986-1.269-9.285-.059c-1.133,1.055.289.059-4.935,6.328s-3.453,3.666-5.224,6.269c-3.858,5.672-4.875,3.134-3.483,8.358s7.314,10.1,7.314,10.1,9.055.7,10.8,1.393,14.628,1.568,14.628,1.568,9.222,13.233,10.963,16.02,1.875,5.729,3.142,10.8c.209.832.376,1.532.512,2.121a89.572,89.572,0,0,0,27.2-64.4,90.753,90.753,0,0,0-.654-10.894" transform="translate(-904.159 -475.695)" fill="#00c0c2"/>
          <path id="Trazado_32478" data-name="Trazado 32478" d="M1072.526,120.4c.833,1.874,1.458-4.581,3.957-4.79s.209-1.874-2.5-3.4-4.581-7.847-6.246-9.93,2.5-6.665,6.664-8.468,3.332,2.222,5.2,4.093-.416,3.541,1.249,6.768,1.878,3.852,3.723,2.813-.8-2.206-1.085-5.831c-.136-1.737-.136-3.538,2.568-1.291,2.651,2.2,3.9,9.9,3.366.6a89.912,89.912,0,0,0-77.943-58.661l13.542,6.816,7.442,3.022s10.935,1.4,12.1,2.327,1.161,3.723,2.327,4.33,5.813,4.976,12.094,6.6c3.678.956,5.042,4.871,5.541,7.948a4.078,4.078,0,0,0-1.79,3.11c0,.834,1.043,1.877.835,2.966s-2.914.785-4.788.255-.834-.094-1.877,0-2.7,1.361-4.163,3.273-4.581,1.839-7.08,2.268-1.874-1.054-5.205,0-4.791,8.315-3.538,11.438.621,5-.214,8.018-2,4.327-2.288,13.435c-.482,15.2,6.249,8.95,10.415,9.578s3.539-1.458,4.369-3.126-1.874-6.036-2.08-9.993-.418-4.791,0-5.855,2.289-3.1,3.954-4.976,6.041-2.08,7.5-2.08,10,8.329,12.7,12.076.415,4.791,1.249,6.664" transform="translate(-857.915 -35.884)" fill="#00c0c2"/>
          <path id="Trazado_32479" data-name="Trazado 32479" d="M386.866,185.178a1.806,1.806,0,0,0-.048.3c-.22,3.166-1.551,6.637-3.352,10.5-1.475,3.174-1.772,4.184-2.7,5.261a1.791,1.791,0,0,0-.225.335,89.913,89.913,0,0,0-3.241,23.981c0,1.78.058,3.545.16,5.3a1.764,1.764,0,0,0,.336.664l.976,1.188a1.733,1.733,0,0,0,1.282.637c1.013.024,2.684.311,2.481,1.95-.286,2.335,1.322,4.81,1.245,5.813s2.457,1.265,2.3,5.221a20.765,20.765,0,0,0,.478,5.831,1.718,1.718,0,0,1,.053.572c-.07.94-.293,3.894-.482,6.386a9.191,9.191,0,0,0,1.888,6.2c.849,1.322,1.174,1.723,1.2,4.7a1.8,1.8,0,0,0,.051.366,90.034,90.034,0,0,0,55.384,42.179,4.991,4.991,0,0,0,.552-1.685v-.018c.067-.877.608-4.959.721-5.805a1.508,1.508,0,0,0,.014-.307c-.039-.877-.218-5.33.2-6.816.458-1.646-.829-2.4-3.806-7.675s.024-4.707.6-8.029.332-4.351,1.153-6.309,0,0-.548-1.723-8.781-9.868-10.776-13.258-3.628-.947-6.617-1.51,0,0-6.743-.939c-3.376-.473-3.516.467-4.644.26-1.479-.269-2.717.294-5.062-.38s-5.624,2.823-7.565,1.726a11.218,11.218,0,0,1-3.071-2.524c-.885-.814-3.751-1.069-4.912-4.475s.063-2.859-.821-5.864-.577-3.5-.888-3.852-2.453-2.034-1.153-5.893c.6-1.8-.531-.8-.227-4.81s3.2-1.22,4.68-2.947,3.433-.933,5.306-3.481,5.558-2.275,8.738-5.376,6.235-3.321,6.518-3.978l9.92-7.406a1.556,1.556,0,0,0,.136-.116,4.059,4.059,0,0,0,.374-5.9c-2.782-3.236,1.27-3.436-2.782-3.236a10.014,10.014,0,0,0-5.11,1.775,1.742,1.742,0,0,1-2.5-.565,23.994,23.994,0,0,0-1.286-2.049c-.828-1.15-2.783-3.812-3.5-4.792a1.721,1.721,0,0,0-.7-.559c-.71-.319-2.147-.941-3.03-1.234a1.777,1.777,0,0,1-1.112-1.072c-.255-.713-.5-1.423-.712-2.115a1.742,1.742,0,0,1,.841-2.066l7.918-4.222a1.737,1.737,0,0,1,2.328.661,11.793,11.793,0,0,0,3.1,3.674c1.961,1.388,5.445,1.968,6.648,2.132a1.715,1.715,0,0,0,.776-.077c.636-.206,1.936-.521,2.156.319a12.046,12.046,0,0,0,4.415,6.246,1.745,1.745,0,0,0,2.737-.892l2.65-9.01a1.772,1.772,0,0,1,.273-.545l5.473-7.4a4.708,4.708,0,0,0,.51-4.733l-.982-2.178a3.746,3.746,0,0,0-3.132-2.2l-2.8-.21-10.692-.241a1.743,1.743,0,0,1-1.335-.671c-.532-.678-1.583-1.409-3.076.392l-1.639,1.981a1.742,1.742,0,0,1-1.492.625l-7.414-.639a1.81,1.81,0,0,1-.387-.077c-.525-.172-2.045-.661-3.037-.916a1.742,1.742,0,0,1-1.063-.81c-.3-.489-.838-1.077-.853-1.625-.12-6.937,5.194-12.941,6.653-14.456a90.246,90.246,0,0,0-27.7,32.485" transform="translate(-320.016 -129.51)" fill="#00c0c2"/>
          <path id="Trazado_32480" data-name="Trazado 32480" d="M1408.513,199.261a4.752,4.752,0,0,0-9.5,0c0,.091,0,.181.008.27h-.008c0,3.618,4.751,9.288,4.751,9.288s4.752-5.67,4.752-9.288h-.008c.005-.089.008-.179.008-.27m-4.752,3.079a3.078,3.078,0,1,1,3.079-3.079,3.078,3.078,0,0,1-3.079,3.079" transform="translate(-1186.605 -164.978)" fill="#192454"/>
          <path id="Trazado_32481" data-name="Trazado 32481" d="M1161.7,708.955a4.752,4.752,0,1,0-9.5,0c0,.09,0,.18.009.27h-.009c0,3.618,4.752,9.288,4.752,9.288s4.752-5.67,4.752-9.288h-.008c0-.089.008-.179.008-.27m-4.752,3.078a3.078,3.078,0,1,1,3.078-3.078,3.079,3.079,0,0,1-3.078,3.078" transform="translate(-977.268 -597.287)" fill="#00858a"/>
          <path id="Trazado_32482" data-name="Trazado 32482" d="M611.462,406.8a4.752,4.752,0,1,0-9.5,0c0,.091,0,.181.008.27h-.008c0,3.618,4.752,9.288,4.752,9.288s4.752-5.67,4.752-9.288h-.008c.005-.089.008-.179.008-.27m-4.752,3.078a3.078,3.078,0,1,1,3.078-3.078,3.078,3.078,0,0,1-3.078,3.078" transform="translate(-510.566 -341.005)" fill="#192454"/>
          <path id="Trazado_32483" data-name="Trazado 32483" d="M476.623,214.731a4.752,4.752,0,1,0-9.5,0c0,.09,0,.181.008.27h-.008c0,3.618,4.752,9.288,4.752,9.288s4.752-5.67,4.752-9.288h-.008c0-.089.008-.18.008-.27m-4.752,3.079a3.078,3.078,0,1,1,3.078-3.079,3.079,3.079,0,0,1-3.078,3.079" transform="translate(-396.2 -178.099)" fill="#00858a"/>
          <path id="Trazado_32484" data-name="Trazado 32484" d="M1247.441,250.833a4.752,4.752,0,1,0-9.5,0c0,.091,0,.181.009.27h-.009c0,3.618,4.752,9.288,4.752,9.288s4.752-5.67,4.752-9.288h-.008c0-.089.008-.179.008-.27m-4.752,3.078a3.078,3.078,0,1,1,3.079-3.078,3.078,3.078,0,0,1-3.079,3.078" transform="translate(-1049.987 -208.72)" fill="#fff"/>
          <path id="Trazado_32485" data-name="Trazado 32485" d="M1417.075,644.817h-11.648v10.22l1.778-1.778h9.869Z" transform="translate(-1192.049 -546.918)" fill="#192454"/>
          <path id="Trazado_32486" data-name="Trazado 32486" d="M751.1,203.4H736.992v12.383l2.155-2.155H751.1Z" transform="translate(-625.098 -172.518)" fill="#f1f1f1"/>
          <path id="Trazado_32487" data-name="Trazado 32487" d="M435.454,455.515H421.341V467.9l2.155-2.154h11.958Z" transform="translate(-357.371 -386.356)" fill="#00858a"/>
          <path id="Trazado_32488" data-name="Trazado 32488" d="M1045.042,413.457h21.021V431.9l-3.209-3.209h-17.812Z" transform="translate(-886.379 -350.684)" fill="#f1f1f1"/>
          <path id="Trazado_32489" data-name="Trazado 32489" d="M1143.066,0h-14.113V12.382l2.155-2.154h11.958Z" transform="translate(-957.55 0.001)" fill="#192454"/>
          <path id="Trazado_32490" data-name="Trazado 32490" d="M436.891,1060.609a.013.013,0,0,0-.009,0c.036.015.041.017.009,0" transform="translate(-370.552 -899.581)" fill="#192454"/>
          <path id="Trazado_32491" data-name="Trazado 32491" d="M708.108,651.607a5.026,5.026,0,0,0-2.073.446,9.525,9.525,0,0,0-15.758-1.389,6.615,6.615,0,0,0-9.444,5.977h32.31a5.036,5.036,0,0,0-5.035-5.035" transform="translate(-577.466 -548.872)" fill="#b1e2e3"/>
          <path id="Trazado_32492" data-name="Trazado 32492" d="M550.7,58.012a5.83,5.83,0,0,0-9.458-4.566,10.272,10.272,0,0,0-17.981-.761,5.536,5.536,0,0,0-4.426.642,8.689,8.689,0,0,0-16.007,4.685Z" transform="translate(-426.489 -40.494)" fill="#b1e2e3"/>
          <path id="Trazado_32493" data-name="Trazado 32493" d="M302.972,567.948c0-2.442-2.47-4.422-5.518-4.422a6.716,6.716,0,0,0-1.964.288,5.61,5.61,0,0,0-10.5.673,4.107,4.107,0,0,0-1.451-.263,3.824,3.824,0,0,0-3.917,3.723Z" transform="translate(-237.168 -475.387)" fill="#e9e9e9"/>
          <path id="Trazado_32494" data-name="Trazado 32494" d="M326.242,1523.894a9.8,9.8,0,0,0,1.091,2.76c.566.646,2.881,4.818,3.845,5.155s2.923.762,2.941,1.2-.24,2.485-3.07,2.13-3.565-.519-4.148-1.311-3.646-3.178-4.389-3.271l.223,3.54-.743-.094s-.157-4.476-.617-5.4.533-3.958,2.143-5.05a1.964,1.964,0,0,1,2.724.341" transform="translate(-272.487 -1291.891)" fill="#d3957a"/>
          <path id="Trazado_32495" data-name="Trazado 32495" d="M320.579,1529.7a9.8,9.8,0,0,0,1.426,2.6c.642.571,3.458,4.422,4.457,4.636s3,.392,3.066.82.071,2.5-2.781,2.5-3.6-.071-4.279-.785-3.351-2.781-4.1-2.781v3.566h-.749s-.713-4.421-1.283-5.277.036-3.994,1.5-5.277a1.964,1.964,0,0,1,2.745,0" transform="translate(-268.128 -1296.965)" fill="#ffb490"/>
          <path id="Trazado_32496" data-name="Trazado 32496" d="M325.9,1555.31s-3.173.356-4.493-.713-2.944-3.69-5.626-3.806c0,0-.991,1.208.517,4.058a34.822,34.822,0,0,1,.759,3.777h.749v-3.566a15.246,15.246,0,0,1,4.467,3.352s5.446,1,6.515-.677a2.258,2.258,0,0,0,.357-1.676c-.232-.838-3.245-.748-3.245-.748" transform="translate(-267.57 -1315.342)" fill="#4f5980"/>
          <path id="Trazado_32497" data-name="Trazado 32497" d="M325.611,1213.421c-.116,1.449-2.435,5.12-3.285,6.2s-9.12,19.708-9.12,19.708l-2.125-.656s.734-2.821.464-9.043,5.315-13.84,6.17-14.608a3.367,3.367,0,0,0,.554-4.135,21.791,21.791,0,0,0-1.5-2.193c-.3-.4-.619-.832-.959-1.282-2.261-2.988-5.232-6.726-5.232-6.726a34.245,34.245,0,0,1-3.865-4.792c-2.628-3.671.155-8.347.155-8.347,6.453-1.314,13.177,2.975,13.177,2.975a14.5,14.5,0,0,0,1.585,6.183c1.585,2.9,4.1,15.265,3.98,16.714" transform="translate(-259.19 -1007.037)" fill="#292c47"/>
          <path id="Trazado_32498" data-name="Trazado 32498" d="M306.289,1188.409s-3.464,3.5.555,10.84c0,0,.3,4.193.334,5.584s.811,6.608.27,9.12-2.2,6.26-1.7,9.893,1.781,14.144,1.2,16.81h4.132s1.584-22.1,1.932-22.877a10.293,10.293,0,0,0,1.623-5.874c-.077-3.44,4.753-16.617,4.831-20.52s-13.178-2.976-13.178-2.976" transform="translate(-258.61 -1007.897)" fill="#292c47"/>
          <rect id="Rectángulo_3410" data-name="Rectángulo 3410" width="60.955" height="1.181" transform="translate(8.313 240.905) rotate(-57.726)" fill="#252740"/>
          <path id="Trazado_32499" data-name="Trazado 32499" d="M251.24,1218.732a16.28,16.28,0,0,1-1.841,1.859c-.618.435-1.826,1.182-1.6,2.37s.029,3.96.991,4.064,2.8-4.687,3.2-5.748a12.224,12.224,0,0,1,.914-1.9Z" transform="translate(-210.152 -1033.698)" fill="#ffb490"/>
          <path id="Trazado_32500" data-name="Trazado 32500" d="M39.8,1584.485a2.491,2.491,0,1,1-.776-3.436,2.49,2.49,0,0,1,.776,3.436" transform="translate(-29.862 -1340.679)" fill="#252740"/>
          <path id="Trazado_32501" data-name="Trazado 32501" d="M9.188,1389.43l-8.171-5.159a2.183,2.183,0,0,1-.68-3.011l16.145-25.568a2.182,2.182,0,0,1,3.011-.681l8.171,5.159a2.183,2.183,0,0,1,.68,3.011L12.2,1388.75a2.183,2.183,0,0,1-3.011.68" transform="translate(0 -1149)" fill="#ffd236"/>
          <rect id="Rectángulo_3411" data-name="Rectángulo 3411" width="34.605" height="0.291" transform="translate(4.983 237.774) rotate(-57.742)" fill="#ffaa3f"/>
          <path id="Trazado_32502" data-name="Trazado 32502" d="M268.69,1024.2c-.256.3-1.3,2.021-2.409,3.863h0l-.55.914-.436.726-.46.762c-.618,1.026-1.139,1.879-1.4,2.26a47.555,47.555,0,0,0-2.37,5.958c-.312.8-2.061,8.8-2.061,8.8s-4.254-.206-4.108-.521,2.218-8.936,2.61-10.23c.517-1.7,2.4-6.247,2.583-6.581s4.019-7.377,4.552-8.594a13,13,0,0,1,3.078-4.814,3.576,3.576,0,0,1,4.489-.942c1.854,1.478-3,7.79-3.523,8.4" transform="translate(-216.197 -861.218)" fill="#00858a"/>
          <path id="Trazado_32503" data-name="Trazado 32503" d="M354.984,983.027a13.426,13.426,0,0,0,0-3.4s5.085,2.35,4.2,2.988a1.6,1.6,0,0,0-.5.867,9.934,9.934,0,0,0-.222,2.674l1.686,2.01c1.489,2.043-5.3-4.46-5.172-5.136" transform="translate(-301.087 -830.893)" fill="#ffb490"/>
          <path id="Trazado_32504" data-name="Trazado 32504" d="M347.443,905.247a5.723,5.723,0,0,1,5.863,5.412,13.976,13.976,0,0,1-.488,2.142c-.319.94.451,3.758.225,3.89a6.193,6.193,0,0,1-1.146.282s-1.071,3.025-2.142,2.969a8.887,8.887,0,0,1-6.909-4.861c-1.8-3.852-2.23-9.7,4.6-9.834" transform="translate(-289.827 -767.807)" fill="#ffb490"/>
          <path id="Trazado_32505" data-name="Trazado 32505" d="M350.96,906.541a15.176,15.176,0,0,1-5.524,2.092c-2.731.3-4.548,3.06-4.548,3.06s-4-5.315-.538-9.423,11.35-.927,10.61,4.272" transform="translate(-287.481 -763.69)" fill="#252e3b"/>
          <path id="Trazado_32506" data-name="Trazado 32506" d="M320.736,1017.821c-.84.884-.15,2.932-.263,4.1-.03.31-.128,1.331-.263,2.683-.14,1.4-.32,3.15-.507,4.84h0c-.074.675-.15,1.34-.224,1.969a34.668,34.668,0,0,1-.6,4.024c-.414,1.165-9.628,1.221-13.273-2.725,0,0-.642-1.3,3.542-8.858.839-1.516.017-9.036-.66-11.028s-.917-8.761,4.586-10.785c0,0,3.306,2.856,4.433,4.134s4.81,5.9,5.148,7.291-1,3.4-1.917,4.359" transform="translate(-259.174 -849.903)" fill="#00c0c2"/>
          <path id="Trazado_32507" data-name="Trazado 32507" d="M363.31,987.333a1.6,1.6,0,0,0-.5.867,8.774,8.774,0,0,1-2.972-3.01,9.09,9.09,0,0,0,3.469,2.143" transform="translate(-305.208 -835.613)" fill="#ff9f84"/>
          <path id="Trazado_32508" data-name="Trazado 32508" d="M323.712,1066.543l-.4.748-.42.785c-.188-2.256-.275-7.754-.275-7.754a25.105,25.105,0,0,0,.487,2.492c.231.8.556,3.346.6,3.729" transform="translate(-273.638 -899.338)" fill="#dc8d3f"/>
          <path id="Trazado_32509" data-name="Trazado 32509" d="M304.986,900.391s-7.091-.548-6.776,8.079-1.133,10.9-4.27,14.805-.386,8.784,2.655,6.274a20.2,20.2,0,0,0,6.591-14.239,103.791,103.791,0,0,1,1.8-14.92" transform="translate(-248.137 -763.683)" fill="#252e3b"/>
          <path id="Trazado_32510" data-name="Trazado 32510" d="M364.364,948.567a.838.838,0,0,0-1.447-.639c-.883.7.207,3.232.921,3.006s.526-1.824.526-2.368" transform="translate(-307.537 -803.78)" fill="#ffb490"/>
          <path id="Trazado_32511" data-name="Trazado 32511" d="M340.059,1038.019a12.938,12.938,0,0,1-5.455-3.028c-2.282-2.112-3.748-5.526-4.129-9.615a18.265,18.265,0,0,1,1.43-9.495c.939-1.8,2.192-2.632,3.531-2.34,2.133.464,5.4,4.55,9.716,12.143,3.2,5.629,5.815,11.2,5.841,11.251l.076.163-.164.073a18.913,18.913,0,0,1-5.567,1.3q-.688.053-1.359.053a14.954,14.954,0,0,1-3.92-.5m-4.7-24.134c-1.169-.255-2.286.513-3.145,2.16a17.9,17.9,0,0,0-1.392,9.3c.373,4,1.8,7.337,4.018,9.39a13.533,13.533,0,0,0,10.458,3.385,18.915,18.915,0,0,0,5.3-1.2c-.971-2.041-10.583-22.022-15.236-23.035" transform="translate(-280.221 -859.613)" fill="#4f5980"/>
          <path id="Trazado_32512" data-name="Trazado 32512" d="M386.741,1134.013a10.416,10.416,0,0,0,2.029.414,11.682,11.682,0,0,0,2.478-.72,3.741,3.741,0,0,1,2.423-.028c.976.229.872.893,1.495,1.2s1.1.457,1.038.893-.145,1.6-.477,1.641a38.532,38.532,0,0,1-9.657-1.129c-4.15-1.156.673-2.275.673-2.275" transform="translate(-326.024 -961.404)" fill="#ffb490"/>
          <path id="Trazado_32513" data-name="Trazado 32513" d="M357.727,1147.841l-12.272-1.748a2.107,2.107,0,0,0-2.31,1.462l-2.634,8.49a2.108,2.108,0,0,0,1.673,2.7l15.132,2.473a2.107,2.107,0,0,0,2.446-2.131l-.226-9.216a2.108,2.108,0,0,0-1.81-2.035" transform="translate(-288.733 -972.07)" fill="#192454"/>
          <path id="Trazado_32514" data-name="Trazado 32514" d="M263.746,1245.655a1.356,1.356,0,1,0-.8-1.742,1.356,1.356,0,0,0,.8,1.742" transform="translate(-222.952 -1054.305)" fill="#252740"/>
          <path id="Trazado_32515" data-name="Trazado 32515" d="M336.147,1072.618s-1.953,4.791-1.519,5.322,5.648,2.909,5.648,2.909-7.539-1.24-7.591-2.495,3.461-5.737,3.461-5.737" transform="translate(-282.175 -909.768)" fill="#00c0c2"/>
          <path id="Trazado_32516" data-name="Trazado 32516" d="M309.421,1016.565s-6.554,10.221-6.554,12.768.526,3.155,5.149,4.513,8.8,2.6,8.8,2.6l.942-3.184s-9.274-3.211-9.662-3.848,5.426-9.634,5.426-9.634,1.661-2.741-.554-4.014a2.592,2.592,0,0,0-3.551.8" transform="translate(-256.884 -861.198)" fill="#00858a"/>
          <path id="Trazado_32517" data-name="Trazado 32517" d="M375.979,1247.263c0,1.164-2.085,12.294-2.085,12.294-.3-.4-.619-.832-.959-1.282Z" transform="translate(-316.314 -1057.897)" fill="#171929"/>
          <path id="Trazado_32518" data-name="Trazado 32518" d="M1570.04,901.178s-3.579,1.751-2.694,6.513,1.277,5.4.287,7.266-2.158,9.8-1.267,11.3,11.027-6.612,12.432-13.422-.891-9.839-1.7-10.968-3.9-2.3-7.056-.693" transform="translate(-1328.283 -763.69)" fill="#0d2d3d"/>
          <path id="Trazado_32519" data-name="Trazado 32519" d="M1556.88,1018.81a4.981,4.981,0,0,0-2.844,1.876c-.712,1.048-.77,3.375-.872,3.813s-1.462,5.4-1.462,5.4l3.8,2.543Z" transform="translate(-1316.115 -864.129)" fill="#285173"/>
          <path id="Trazado_32520" data-name="Trazado 32520" d="M1481.349,1547.886s-2.476,3.334-2.137,3.863,2.943.6,4.529,0,1.623-4.511,2.34-6.189c.3-.7-.342-2.778-1.245-2.928a3.8,3.8,0,0,0-1.886.291s.937,2.365-1.6,4.964" transform="translate(-1254.604 -1308.395)" fill="#1d3b54"/>
          <path id="Trazado_32521" data-name="Trazado 32521" d="M1490.476,1542.628a15.729,15.729,0,0,0-.711,2.775c-.158,1.124-1.765,3.512-1.689,3.813s2.113.576,2.944-.2,1.365-3.042,1.547-4.4a10.878,10.878,0,0,1,.386-1.885s-1.683-.935-2.476-.105" transform="translate(-1262.147 -1308.127)" fill="#ffb490"/>
          <path id="Trazado_32522" data-name="Trazado 32522" d="M1623.811,1547.951s-2.387,3.278-2.048,3.807,2.944.6,4.53,0,1.623-4.512,2.34-6.189c.3-.7-.342-2.778-1.245-2.928a4.055,4.055,0,0,0-1.963.323s.924,2.388-1.614,4.987" transform="translate(-1375.511 -1308.404)" fill="#1d3b54"/>
          <path id="Trazado_32523" data-name="Trazado 32523" d="M1632.977,1542.274a22.431,22.431,0,0,1-.491,2.642c-.3,1.094-1.925,3.586-1.849,3.887s2.113.576,2.944-.2,1.472-3.032,1.547-4.4a7.245,7.245,0,0,0-.188-2.254,1.844,1.844,0,0,0-1.963.323" transform="translate(-1383.064 -1307.714)" fill="#ffb490"/>
          <path id="Trazado_32524" data-name="Trazado 32524" d="M1512.721,1147.188s-2.125,9.885-2.613,12.374-1.854,14.544-2,16.594-2.217,9.773-2.12,10.5-3.07,15.438-3.07,15.438a1.906,1.906,0,0,0,2.223.079c.586-.408,6.951-13.767,6.951-17.427,0-5.06,3.741-11.665,4.224-12.8,4.485-10.515,3.6-13.73,4.187-14.413s.637.422.978,1.935,1.073,14.592,1.513,16.251.1,7.272.342,10.1,1.315,15.635,1.315,15.635a1.164,1.164,0,0,0,1.994.034c.25-.273,2.01-14.263,2.059-17.63s.1-8.012.2-9.469c.9-13.954,3.126-15.947-.374-25.823-6.553-18.491-15.8-1.387-15.8-1.387" transform="translate(-1274.737 -966.903)" fill="#ffb490"/>
          <path id="Trazado_32525" data-name="Trazado 32525" d="M1557.551,1169.244s6.054,8.473,3.448,26.5c0,0-14.36,1.953-22.053-2.259,0,0,3.182-18.583,4.334-21.474s14.271-2.763,14.271-2.763" transform="translate(-1305.296 -991.723)" fill="#1d3b54"/>
          <path id="Trazado_32526" data-name="Trazado 32526" d="M1522.539,1560.156v3.49h-.453v-2.7Z" transform="translate(-1290.996 -1323.286)" fill="#1d3b54"/>
          <path id="Trazado_32527" data-name="Trazado 32527" d="M1665.1,1560.156v3.49h-.453v-2.7Z" transform="translate(-1411.913 -1323.286)" fill="#1d3b54"/>
          <path id="Trazado_32528" data-name="Trazado 32528" d="M1565.983,1010.017a23.316,23.316,0,0,1-3,1.208c-.775.155-3.779,4.058-4.306,5.483s0,3.562,1.084,6.072.062,3.346.557,5.855a58.317,58.317,0,0,1,.837,9.216c-.093,1.394,12.529,1.657,15.41-.883,0,0-2.9-4.336-3.267-4.956s-.062-4,.279-4.863,2.609-8.244,2.609-8.244,1.855-5.664.179-6.966c-1.456-1.131-5.424-1.534-6.136-1.782a12.165,12.165,0,0,0-4.241-.139" transform="translate(-1321.852 -856.572)" fill="#ffd236"/>
          <path id="Trazado_32529" data-name="Trazado 32529" d="M1595.711,1011.208l-1.355-1.587,1.177-4.178a27.591,27.591,0,0,1,.178,5.765" transform="translate(-1352.293 -852.792)" fill="#d4c3bc"/>
          <path id="Trazado_32530" data-name="Trazado 32530" d="M1600.958,976.662s.062.559.133,1.332c.031.343.066.728.1,1.125a25.587,25.587,0,0,1,.122,2.967s2.317,2.323,4.953-2.71a6.911,6.911,0,0,1-.274-4.9c.834-2.826-5.032,2.189-5.032,2.189" transform="translate(-1357.893 -825.791)" fill="#ffb490"/>
          <path id="Trazado_32531" data-name="Trazado 32531" d="M1603.283,1029.441v2.122l2.667-1.993Z" transform="translate(-1359.865 -873.146)" fill="#ffb490"/>
          <path id="Trazado_32532" data-name="Trazado 32532" d="M1603.283,1014.991l1.107-1.371,3.731-3.718,1.207,1.162Z" transform="translate(-1359.865 -856.574)" fill="#d4c3bc"/>
          <path id="Trazado_32533" data-name="Trazado 32533" d="M1620.168,1012.244s-3.131,4.751-3.28,6.842a189.624,189.624,0,0,0,2.214,22.76c1.051,5.028,8.649-.567,8.649-.567s-5.1-8.263-3.145-14.88,2.672-9.262,2.672-9.262-.674-3.684-3.064-4.2c-2.095-.454-4.046-.69-4.046-.69" transform="translate(-1371.394 -858.56)" fill="#285173"/>
          <path id="Trazado_32534" data-name="Trazado 32534" d="M1558.1,1022.1s-.565,2,1.635,6.414c0,0-.034,5.652-.1,7.417s-1.311,8.115-1.311,8.115l3.006,1.6a.614.614,0,0,0,.92-.6c-.616-5.081-2.62-24.355,1.709-29.536l-1.737.512a14.062,14.062,0,0,0-4.125,6.08" transform="translate(-1321.489 -861.324)" fill="#285173"/>
          <path id="Trazado_32535" data-name="Trazado 32535" d="M1584.816,1009.621l-1.708.472,2.884-4.65Z" transform="translate(-1342.753 -852.791)" fill="#f8e4dc"/>
          <path id="Trazado_32536" data-name="Trazado 32536" d="M1610.573,1013.621l1.56,2.044,3.2-5.338-1.032-.424Z" transform="translate(-1366.048 -856.575)" fill="#f8e4dc"/>
          <rect id="Rectángulo_3412" data-name="Rectángulo 3412" width="6.678" height="0.565" transform="translate(237.679 170.2) rotate(-51.625)" fill="#ffaa3f"/>
          <path id="Trazado_32537" data-name="Trazado 32537" d="M1580.206,1112.149a1.21,1.21,0,0,1-.657-.188c-.449-.339-.611-1.173-1.4-1.113s-1.162,2.549-.963,3.019,1.3.707,2.928.382.1-2.1.1-2.1" transform="translate(-1337.682 -942.191)" fill="#ffb490"/>
          <path id="Trazado_32538" data-name="Trazado 32538" d="M1552.4,1105.855a24.866,24.866,0,0,0-2.457-.673,5.545,5.545,0,0,0-2.668-.131c-.15.224,1.124.416,2.256.737,1.042.3.794.4.794.4s.069-.034-1.121-.146c-1.279-.119-2.6-.117-2.725.139-.063.124-.019.208.441.325-.277-.012-.316.059-.326.171-.054.576,1.811,1.034,2.551,1.217-.57-.136-1-.178-.795.208.234.442,2.9.976,3.835,1.255,1.024.3.215-3.5.215-3.5" transform="translate(-1311.667 -937.181)" fill="#ffb490"/>
          <path id="Trazado_32539" data-name="Trazado 32539" d="M1604.435,1017.1c.785-.254,3.087.562,3.476,2.923s.545,4.982.908,6.253,1.289,6.9.511,7.371a8.816,8.816,0,0,1-4.32.894c-2.135,0-10.413.371-10.413.371l-.519-2.94s3.144-.162,4.773-.41c1.45-.219,3.46-.837,5.827-1.1a39.638,39.638,0,0,0-.866-4.475c-.363-.985-2.905-7.749.623-8.89" transform="translate(-1352.057 -862.644)" fill="#285173"/>
          <path id="Trazado_32540" data-name="Trazado 32540" d="M1560.4,1116.792l-.389.946.832-.6Z" transform="translate(-1323.163 -947.235)" fill="#ffb490"/>
          <path id="Trazado_32541" data-name="Trazado 32541" d="M1511.478,1066.114l-8.338-1.655-6.184-13.232,8.9.935Z" transform="translate(-1269.68 -891.625)" fill="#00858a"/>
          <path id="Trazado_32542" data-name="Trazado 32542" d="M1516.929,1100.5a6.768,6.768,0,0,1-.865-1.018,15.154,15.154,0,0,1-1.617-3.006,4.527,4.527,0,0,1,2.458.133c.358.322-.353.449-.353.449s1.082.112,1,.416-.728.221-.728.221.871.167.739.435-.551.266-.551.266.772.1.676.389-1.316.57-1.153.812a5.774,5.774,0,0,1,.389.9" transform="translate(-1284.51 -929.911)" fill="#ffb490"/>
          <path id="Trazado_32543" data-name="Trazado 32543" d="M1577.8,908.2s-5.2,1.633-2.376,10.6,9.918-1.04,9.176-6.5-6.8-4.1-6.8-4.1" transform="translate(-1335.522 -770.183)" fill="#ffb490"/>
          <path id="Trazado_32544" data-name="Trazado 32544" d="M1574.572,909.407a11.723,11.723,0,0,0,6.9,2.851,10.965,10.965,0,0,1,1.789,2.712s3.856-6.572-.884-10.511-9.55,3.326-7.808,4.949" transform="translate(-1335.203 -766.159)" fill="#0d2d3d"/>
          <path id="Trazado_32545" data-name="Trazado 32545" d="M1621.706,953.439c.034-.653.436-2.138,1.406-1.722s-.059,3.44-.7,3.254c0,0-.782.012-.7-1.532" transform="translate(-1375.485 -807.161)" fill="#ffb490"/>
          <path id="Trazado_32546" data-name="Trazado 32546" d="M1601.837,988.166c.031.343.066.728.1,1.125h0c3-1.483,3.465-3.622,3.479-3.689-2.141,2.766-3.577,2.564-3.577,2.564" transform="translate(-1358.638 -835.963)" fill="#ff9f84"/>
          <path id="Trazado_32547" data-name="Trazado 32547" d="M1214.629,961.633c.518,1.355.1,2.772-.923,3.165s-2.28-.389-2.8-1.745-.1-2.772.923-3.165,2.281.389,2.8,1.745" transform="translate(-1026.873 -814.067)" fill="#192454"/>
          <path id="Trazado_32548" data-name="Trazado 32548" d="M1277.549,969.9l-3.827-6.6s2-.764,2.662-.99,2.241-2.507,3.953-3.6c0,0-6.529-1.09-7.3-1.42l.688-4.107s5.255,1.7,8.127,1.467,5.443.629,5.255,2.807-5.978,7.735-7.188,8.936a12.257,12.257,0,0,0-2.369,3.507" transform="translate(-1079.758 -808.465)" fill="#ffd236"/>
          <rect id="Rectángulo_3413" data-name="Rectángulo 3413" width="17.453" height="13.763" transform="translate(191.592 141.108)" fill="#192454"/>
          <path id="Trazado_32549" data-name="Trazado 32549" d="M1270.33,1559.818c.97.291,1.261,1.939,2.085,2.424s4.848.824,4.994-.437-1.688-2.39-2.512-3.02a17.85,17.85,0,0,1-3.3-3.7.934.934,0,0,1-.99.427c-1-.081-1.227-.309-1.227-.309-.159.993-.3,1.668-.4,2.047a2.024,2.024,0,0,0,1.358,2.57" transform="translate(-1076.239 -1318.983)" fill="#1a384f"/>
          <path id="Trazado_32550" data-name="Trazado 32550" d="M1175.4,1561.864c.969.291,1.261,1.939,2.084,2.424s4.849.824,4.994-.436-1.688-2.39-2.512-3.02a17.835,17.835,0,0,1-3.3-3.7.935.935,0,0,1-.99.427c-1-.08-1.228-.309-1.228-.309-.159.992-.3,1.669-.4,2.047a2.024,2.024,0,0,0,1.358,2.57" transform="translate(-995.718 -1320.719)" fill="#1a384f"/>
          <path id="Trazado_32551" data-name="Trazado 32551" d="M1176.5,1165.428a20.382,20.382,0,0,0-3.492,7.809c-.745,4.237-.72,18.281-.752,20.375s-.489,6.932-.431,11.43c.051,3.965-.174,20.135-.174,20.135l4.525-.07s2.189-16.695,2.432-18.351,1.041-7.8,1.138-8.487,3.57-19.04,3.57-22.095-.191-15.732-6.816-10.747" transform="translate(-993.767 -987.513)" fill="#285173"/>
          <path id="Trazado_32552" data-name="Trazado 32552" d="M1239.807,1174.415c.176.974,3.338,17.868,3.577,20.048a59.063,59.063,0,0,1,.655,6.371c-.244,2.338-.449,4.636-.449,4.636l-3.38,26.705-4.5-.086s-.635-15.174-.544-18.4,2.267-9.079,1.924-10.486-6.3-17.112-6.3-17.112-4.3-18.1,9.016-11.68" transform="translate(-1043.364 -994.941)" fill="#285173"/>
          <path id="Trazado_32553" data-name="Trazado 32553" d="M1193.228,1038.954c.168,1.157,1.74,7.227,1.74,7.227-7.639,2.458-19.5.632-19.5.632.152-.839,4.226-10.413,4.531-11.022a7.416,7.416,0,0,0,.3-4.45,21.763,21.763,0,0,0-1.169-3.34c-.292-.688-.5-1.19-.809-1.948h0c-1.316-3.223-2.609-6.7-2.366-7.334.432-1.118,2.54-1.626,3.556-1.8s4.675-1.55,4.675-1.55h3.9s4.611.75,5.054,1.175c.9.859,1.652,5.4,1.652,5.4,1.116,3.15-.347,6.569-.594,7.37a28,28,0,0,0-.891,4.443,46.3,46.3,0,0,0-.079,5.2" transform="translate(-997 -861.206)" fill="#ffd236"/>
          <path id="Trazado_32554" data-name="Trazado 32554" d="M1217.44,915.023c1.4-.152,4.922-.186,5.354,4.971s-.813,7.748-1.956,8.307-4.318-.331-5.741-2.82-2.774-7.67-.766-9.3,3.109-1.161,3.109-1.161" transform="translate(-1029.104 -776.047)" fill="#ffb490"/>
          <path id="Trazado_32555" data-name="Trazado 32555" d="M1219.006,913.926a5.08,5.08,0,0,1,1.644,2.039s.927-6.517-4.633-7.053a4.558,4.558,0,0,0-5.279,5.288,26.383,26.383,0,0,0,1.417,4.809s.4-1.315,1.155-1.352,5.563-2.873,5.7-3.73" transform="translate(-1026.872 -770.888)" fill="#192454"/>
          <path id="Trazado_32556" data-name="Trazado 32556" d="M1225.583,985.273a3.154,3.154,0,0,1-2.927-2.5s.521-3.38-.816-5.632,5.42,3.624,5.42,3.624-.006.55.028,1.209a5.446,5.446,0,0,0,.324,1.769s.359,1.535-2.029,1.535" transform="translate(-1036.186 -828.346)" fill="#ffb490"/>
          <path id="Trazado_32557" data-name="Trazado 32557" d="M1223.34,956.721c-.255-.247-1.448-.657-1.474.864s1.7,2.642,1.854,1.574a3.053,3.053,0,0,0-.381-2.438" transform="translate(-1036.357 -811.261)" fill="#ffb490"/>
          <path id="Trazado_32558" data-name="Trazado 32558" d="M1238.815,998.139c-.083-.023-.173-.051-.273-.085a6.725,6.725,0,0,1-3.287-2.368,5.685,5.685,0,0,0,3.531,1.244s-.006.55.029,1.209" transform="translate(-1047.713 -844.516)" fill="#ff9f84"/>
          <path id="Trazado_32559" data-name="Trazado 32559" d="M1316.063,921.658a3.618,3.618,0,0,1,2.946-1.381c2.218.054,2.893,1.013,2.758,1.448s-5.36.966-5.7-.067" transform="translate(-1116.252 -780.555)" fill="#ffb490"/>
          <path id="Trazado_32560" data-name="Trazado 32560" d="M1312.5,925.224s-1.672.415-1.377.842,1.271-.078,1.271-.078Z" transform="translate(-1112.035 -784.752)" fill="#ffb490"/>
          <path id="Trazado_32561" data-name="Trazado 32561" d="M1167.137,1198.231a1.35,1.35,0,0,0,.739.194c.627-.068,1.261-.778,1.988-.265s-.344,3.116-.8,3.455-1.655-.066-3.035-1.311,1.112-2.073,1.112-2.073" transform="translate(-988.641 -1016.093)" fill="#ffb490"/>
          <path id="Trazado_32562" data-name="Trazado 32562" d="M1180.285,1198.271a27.925,27.925,0,0,1,2.748.76c1.253.422,2.627,1.134,2.641,1.4.016.3-1.32-.244-2.592-.584-1.171-.312-.995-.066-.995-.066s-.047-.073,1.161.5c1.3.618,2.563,1.375,2.542,1.7-.01.156-.1.212-.611.06.274.147.27.238.217.352-.278.585-2.333-.043-3.15-.292.626.2,1.063.4.645.655-.478.29-3.344-.722-4.407-.991-1.159-.294,1.8-3.493,1.8-3.493" transform="translate(-999.333 -1016.343)" fill="#ffb490"/>
          <path id="Trazado_32563" data-name="Trazado 32563" d="M1125.261,1029.321s-3.872-1.008-5.641,1.169a20.878,20.878,0,0,0-3.46,5.2c-.634,1.367-2.73,4.987-2.944,5.362s-3.743,4.547-3.3,6.513,8.675,9.878,8.5,10.231,2.341-2.673,2.341-2.673-2.8-3.954-3.236-4.824c-.716-1.413-2.568-3.263-1.7-4.487,1.016-1.437,4.246-6.348,4.857-7.026s6.645-7.74,4.58-9.462" transform="translate(-941.374 -872.847)" fill="#ffd236"/>
          <path id="Trazado_32564" data-name="Trazado 32564" d="M1967.6,1459.245a3.277,3.277,0,1,1,2.784-3.239,3.041,3.041,0,0,1-2.784,3.239m0-6.221a3.023,3.023,0,1,0,2.526,2.982,2.786,2.786,0,0,0-2.526-2.982" transform="translate(-1666.506 -1232.2)" fill="#252e3b"/>
          <rect id="Rectángulo_3414" data-name="Rectángulo 3414" width="13.964" height="20.257" transform="translate(294.109 223.805)" fill="#192454"/>
          <path id="Trazado_32565" data-name="Trazado 32565" d="M1873.416,1428.721a3.951,3.951,0,1,1,3.356-3.906,3.667,3.667,0,0,1-3.356,3.906m0-7.5a3.645,3.645,0,1,0,3.046,3.6,3.359,3.359,0,0,0-3.046-3.6" transform="translate(-1586.138 -1205.179)" fill="#252e3b"/>
          <path id="Trazado_32566" data-name="Trazado 32566" d="M1748.413,1455.3c-2.306,0-4.182-2.186-4.182-4.874s1.876-4.873,4.182-4.873,4.182,2.186,4.182,4.873-1.876,4.874-4.182,4.874m0-9.437c-2.135,0-3.871,2.048-3.871,4.563s1.737,4.563,3.871,4.563,3.872-2.047,3.872-4.563-1.737-4.563-3.872-4.563" transform="translate(-1479.413 -1226.081)" fill="#252e3b"/>
          <rect id="Rectángulo_3415" data-name="Rectángulo 3415" width="19.718" height="19.718" transform="translate(259.141 224.344)" fill="#00c0c2"/>
          <rect id="Rectángulo_3416" data-name="Rectángulo 3416" width="16.838" height="24.427" transform="translate(278.859 219.636)" fill="#ffaa3f"/>
          <path id="Trazado_32567" data-name="Trazado 32567" d="M906.6,805.565a4.752,4.752,0,0,0-9.436,1.125c.011.09.024.179.04.267H897.2c.428,3.592,5.818,8.659,5.818,8.659s4.047-6.192,3.619-9.785h-.008c-.006-.089-.013-.179-.024-.269m-4.354,3.619a3.078,3.078,0,1,1,2.693-3.422,3.079,3.079,0,0,1-2.693,3.422" transform="translate(-760.925 -679.707)" fill="#fff"/>
          <path id="Trazado_32568" data-name="Trazado 32568" d="M591.229,1220.959a3.71,3.71,0,0,1,.481,1.273,6.108,6.108,0,0,0,.588,1.5,14.319,14.319,0,0,1,.714,2.506,11.554,11.554,0,0,0-.337,1.678c.057.363.265,1.083-.061,1.13s-.7-.542-.7-.542a.479.479,0,0,1-.245.462.809.809,0,0,1-.82.03s-.2.368-.446.416a1.011,1.011,0,0,1-.816-.11.988.988,0,0,1-.62.2.812.812,0,0,1-.687-.427s-.613.124-.791-.162a2.757,2.757,0,0,1-.22-.85,9.892,9.892,0,0,1,.777-4.283,3.8,3.8,0,0,0-.2-3.328Z" transform="translate(-498.092 -1035.158)" fill="#ffb490"/>
          <path id="Trazado_32569" data-name="Trazado 32569" d="M591.822,1254.775s.055-2.1-.5-2.546-.615.311-.615.311.075-.749-.529-.849-.629.788-.629.788a.583.583,0,0,0-.733-.458c-.634.118-.483.856-.483.856s-.606-.723-1-.029a3.094,3.094,0,0,0-.024,2.556s.187.317.79.162a.834.834,0,0,0,1.307.229s.925.509,1.262-.307a.766.766,0,0,0,1.151-.711" transform="translate(-497.908 -1061.645)" fill="#d89a7c"/>
          <path id="Trazado_32570" data-name="Trazado 32570" d="M598.94,997.2s-3.593,11.978-4.808,16.4c-.381,1.386-1.3,14.618-1.465,15.151s-4.721,1.262-4.721,1.262.552-16.553.6-17.456,5.029-19.388,6.477-20.048c1.085-.494,1.657-.086,3.024.929a3.2,3.2,0,0,1,.889,3.767" transform="translate(-498.681 -841.64)" fill="#285173"/>
          <path id="Trazado_32571" data-name="Trazado 32571" d="M919.983,885a2.15,2.15,0,0,1-.212.652s-.27.322-.447.561a2.082,2.082,0,0,0-.129.191,3.907,3.907,0,0,1-.68,1.056c-.392.4-1.917,1.661-1.917,1.661l-1.308-1.11-1.357-.608a25.566,25.566,0,0,1,1.083-3.716,1.243,1.243,0,0,1,.1-.112,5.044,5.044,0,0,1,.851-.585c.066-.055.765-.558,1.013-.494a.84.84,0,0,1,.628.524,2.013,2.013,0,0,1,.929.6,1.249,1.249,0,0,1,.808.75s.613.243.64.632" transform="translate(-775.175 -748.503)" fill="#eda886"/>
          <path id="Trazado_32572" data-name="Trazado 32572" d="M617.1,1553.842s-.327,2.274-.369,2.615-3.644-.2-3.644-.2l-.292-2.707s3.854-.028,4.3.293" transform="translate(-519.761 -1317.681)" fill="#414773"/>
          <path id="Trazado_32573" data-name="Trazado 32573" d="M613.63,1569.941a9.738,9.738,0,0,0,2.246,1.967c1.1.6,2.839.833,3.492,1.452.471.446,1.717,2.367-2.869,2.328s-6.8.271-7.288-.465.711-5.437.711-5.437a9.7,9.7,0,0,0,3.708.154" transform="translate(-516.617 -1331.453)" fill="#192454"/>
          <path id="Trazado_32574" data-name="Trazado 32574" d="M787.148,1553.842s-.328,2.274-.368,2.615-3.644-.2-3.644-.2l-.292-2.707s3.854-.028,4.3.293" transform="translate(-663.989 -1317.681)" fill="#414773"/>
          <path id="Trazado_32575" data-name="Trazado 32575" d="M783.674,1569.941a9.732,9.732,0,0,0,2.246,1.967c1.1.6,5.167,1.088,5.82,1.706.472.446,1.256,2.242-5.2,2.075-4.584-.119-6.8.271-7.288-.465s.711-5.437.711-5.437a8.812,8.812,0,0,0,3.708.154" transform="translate(-660.844 -1331.453)" fill="#192454"/>
          <path id="Trazado_32576" data-name="Trazado 32576" d="M616.943,1178.418s-3.386,5.38-3.133,10.242-1.227,10.171-1.736,15.25c-.567,5.663-2.887,19.068-2.971,22.1s.36,12.7.36,12.7l5.024.106s3.522-23.436,4.532-25.828,6.021-19.439,6.189-21.352-8.264-13.217-8.264-13.217" transform="translate(-516.617 -999.505)" fill="#292c47"/>
          <path id="Trazado_32577" data-name="Trazado 32577" d="M669.106,1173.973s2.552,13.327,2.888,16.3.562,14.4.73,16.262,1.573,24.283,2.021,27.1h-5.939s-4.558-16.342-4.558-24.074-3.521-16.809-5.794-21.911-7.477-5.222-8.874-14.687c0,0,17.635-2,19.526,1" transform="translate(-550.958 -994.33)" fill="#292c47"/>
          <path id="Trazado_32578" data-name="Trazado 32578" d="M682.126,878.224s4.544-1.7,6.64,1.762,1.893,10.385-.4,11.236-5.731.406-6.9-1.758a17.336,17.336,0,0,1-2.181-7.385,4.557,4.557,0,0,1,2.842-3.856" transform="translate(-576.15 -744.535)" fill="#ffb490"/>
          <path id="Trazado_32579" data-name="Trazado 32579" d="M695.106,943.109a3.928,3.928,0,0,0,.124,1.831c.313.6-5.887.62-5.887.62a40.852,40.852,0,0,0-1.458-6.065c-.954-2.778,7.221,3.613,7.221,3.613" transform="translate(-583.381 -796.263)" fill="#ffb490"/>
          <path id="Trazado_32580" data-name="Trazado 32580" d="M678.54,884.842s.428.706,2.175.432,3.878-2.6,4.607-2.853.736-.684.736-.684l.456.667.775.049s-.707-2.079.359-2.927-1.106-6.728-6.708-4.771c0,0-4.3,1.186-4.146,3.633s.783,5.234,1.746,6.453" transform="translate(-574.036 -741.61)" fill="#292c47"/>
          <path id="Trazado_32581" data-name="Trazado 32581" d="M700.218,969.3s-.02-1.155-.543-1.265-5.777-.616-6.42-.364v1.346s1.238.761,6.963.284" transform="translate(-588.002 -820.693)" fill="#00c0c2"/>
          <path id="Trazado_32582" data-name="Trazado 32582" d="M654.145,923.221c-3.6-.474-8.69-1.749-8.69-1.749l-6.963-.284a67.777,67.777,0,0,0-8.907,2.544c-.239.107-.24,5.7-.9,7.168l2.087,4.4s1.206,8.72,1.455,12.6c.115,1.78-2.486,16.695-2.486,16.695a48.147,48.147,0,0,0,7.54,1.344c4.752.524,16.626-.189,16.7-.751s-2.3-20.9-2.4-21.955c-.161-1.617.557-10.207.557-10.207,1.1-.851,10.732-5.323,13.36-7.653.7-.624,3.672-3.515,4.516-4.513a81.11,81.11,0,0,0,5.737-7.219c.338-.372-3.247-2.321-3.572-2.429-.285-.095-4.324,5.139-5.879,6.824a43.5,43.5,0,0,1-3.575,2.847s-6.324,2.466-8.578,2.336" transform="translate(-533.238 -772.868)" fill="#285173"/>
          <path id="Trazado_32583" data-name="Trazado 32583" d="M674.8,883.24s-5.794.454-.178,9.134Z" transform="translate(-570.122 -749.142)" fill="#292c47"/>
          <path id="Trazado_32584" data-name="Trazado 32584" d="M426.675,231.039l-.423-.553.541-.411c.5-.38.9-.681,1.084-.852l.47.514c-.211.192-.6.486-1.133.892Z" transform="translate(-361.536 -194.421)" fill="#d4d4d4"/>
          <path id="Trazado_32585" data-name="Trazado 32585" d="M560.455,321.543l-.694-.059c.12-1.408.188-2.786.2-4.1l.7.008c-.015,1.327-.085,2.721-.206,4.146m-.622-8.243a34.9,34.9,0,0,0-.556-4.042l.683-.137a35.693,35.693,0,0,1,.567,4.122Zm-1.638-7.961a22.593,22.593,0,0,0-1.7-3.677l.6-.35a23.3,23.3,0,0,1,1.758,3.79Zm-143.049-1.692q-.959,0-1.908-.014l.011-.7q2.034.031,4.116,0l.012.7q-1.122.018-2.23.019m6.367-.145-.031-.7c1.333-.059,2.717-.137,4.114-.231l.047.695c-1.4.1-2.792.173-4.13.232M409.1,303.5c-1.408-.073-2.8-.174-4.131-.3l.066-.694c1.324.126,2.7.227,4.1.3Zm20.665-.549-.061-.694c1.33-.118,2.711-.253,4.1-.4l.074.693c-1.4.149-2.781.284-4.116.4m-28.91-.244c-1.4-.2-2.771-.443-4.084-.714l.14-.682c1.3.267,2.661.5,4.044.706Zm37.133-.629-.084-.691c1.321-.161,2.7-.339,4.091-.528l.094.691c-1.4.189-2.776.367-4.1.528m-45.247-1.043c-1.352-.351-2.7-.711-3.991-1.07l.186-.672c1.293.358,2.632.717,3.98,1.067Zm53.439-.065-.1-.689q2.034-.3,4.079-.62l.108.688q-2.048.321-4.086.622m8.158-1.277-.113-.687q2.03-.335,4.066-.684l.118.686q-2.036.35-4.07.685m-69.561-.864c-1.344-.4-2.674-.805-3.951-1.211l.211-.664c1.273.4,2.6.81,3.938,1.206Zm169.34-.438a20.519,20.519,0,0,0-2.979-2.737l.419-.556a21.235,21.235,0,0,1,3.081,2.83Zm-91.641-.091-.121-.686q2.034-.358,4.066-.724l.123.685q-2.033.366-4.068.725m8.138-1.461-.125-.685,4.07-.742.125.685ZM376.9,296.32c-1.333-.458-2.643-.926-3.892-1.392l.243-.653c1.244.464,2.548.931,3.875,1.386Zm101.845-.967-.124-.685q2.039-.37,4.065-.733l.122.685q-2.023.363-4.062.733m8.127-1.452-.119-.686q2.045-.358,4.071-.7l.117.687q-2.023.342-4.068.7m60.819-.393a29.251,29.251,0,0,0-3.752-1.584l.227-.659a29.881,29.881,0,0,1,3.841,1.623Zm-178.536-.087c-1.313-.538-2.591-1.09-3.8-1.64l.289-.634c1.2.546,2.47,1.095,3.774,1.63Zm125.855-.893-.11-.688q2.056-.331,4.083-.638l.1.689q-2.022.3-4.077.637m8.159-1.229-.1-.69c1.406-.195,2.786-.376,4.1-.538l.086.691c-1.311.162-2.686.342-4.089.537m36.839-.487c-1.271-.288-2.627-.534-4.031-.73l.1-.69c1.422.2,2.8.448,4.088.741Zm-28.655-.518-.073-.693c1.412-.148,2.8-.278,4.119-.386l.057.694c-1.317.108-2.7.238-4.1.385m-149.725-.316c-1.275-.656-2.5-1.329-3.629-2l.355-.6c1.122.665,2.33,1.332,3.593,1.981Zm170.268-.325c-1.307-.1-2.688-.159-4.1-.188l.014-.7c1.428.03,2.821.093,4.14.19Zm-12.33-.027-.038-.7c1.42-.077,2.812-.131,4.137-.158l.015.7c-1.317.027-2.7.08-4.114.158m-165.054-3.9a38.5,38.5,0,0,1-3.27-2.57l.461-.522a37.866,37.866,0,0,0,3.211,2.523Zm-6.188-5.551a18.841,18.841,0,0,1-2.322-3.487l.621-.315a18.144,18.144,0,0,0,2.237,3.357Zm-3.661-7.477a12.766,12.766,0,0,1-.18-2.133,13.206,13.206,0,0,1,.167-2.085l.688.11a12.521,12.521,0,0,0-.159,1.975,12.093,12.093,0,0,0,.17,2.017Zm1.864-7.947-.634-.29a21.944,21.944,0,0,1,2.117-3.614l.567.4a21.231,21.231,0,0,0-2.05,3.5m4.652-6.639-.507-.478c.9-.955,1.911-1.923,3.005-2.879l.458.524c-1.078.941-2.072,1.894-2.956,2.832" transform="translate(-292.186 -216.077)" fill="#d4d4d4"/>
          <path id="Trazado_32586" data-name="Trazado 32586" d="M1757.757,723.749l-.687-.117c.118-.69.228-1.382.326-2.055l.69.1c-.1.679-.21,1.376-.329,2.072" transform="translate(-1490.303 -612.023)" fill="#d4d4d4"/>
          <path id="Trazado_32587" data-name="Trazado 32587" d="M1730.928,772.385l8.873-24.357-6.225,4.69Z" transform="translate(-1468.13 -634.459)" fill="#d4d4d4"/>
          <path id="Trazado_32588" data-name="Trazado 32588" d="M1719.533,813.708l-2.04-13.027,4.323-3.933Z" transform="translate(-1456.735 -675.782)" fill="#e6e6e6"/>
          <path id="Trazado_32589" data-name="Trazado 32589" d="M1737.76,784.918l2.2,1.864-9.037,16.892Z" transform="translate(-1468.13 -665.748)" fill="silver"/>
        </g>
      </g>
    </g>
  </g>
</svg>
