<svg xmlns="http://www.w3.org/2000/svg" xmlns:xlink="http://www.w3.org/1999/xlink" width="251.675" height="250.145" viewBox="0 0 251.675 250.145">
  <defs>
    <clipPath id="clip-path">
      <rect id="Rectángulo_3543" data-name="Rectángulo 3543" width="251.675" height="250.145" fill="none"/>
    </clipPath>
    <clipPath id="clip-path-3">
      <rect id="Rectángulo_3510" data-name="Rectángulo 3510" width="219.405" height="91.21" fill="none"/>
    </clipPath>
    <clipPath id="clip-path-4">
      <rect id="Rectángulo_3511" data-name="Rectángulo 3511" width="219.955" height="97.977" fill="none"/>
    </clipPath>
    <clipPath id="clip-path-5">
      <rect id="Rectángulo_3512" data-name="Rectángulo 3512" width="219.955" height="90.487" fill="none"/>
    </clipPath>
    <clipPath id="clip-path-6">
      <rect id="Rectángulo_3513" data-name="Rectángulo 3513" width="128.685" height="56.926" fill="none"/>
    </clipPath>
    <clipPath id="clip-path-7">
      <rect id="Rectángulo_3514" data-name="Rectángulo 3514" width="128.897" height="64.19" fill="none"/>
    </clipPath>
    <clipPath id="clip-path-8">
      <rect id="Rectángulo_3515" data-name="Rectángulo 3515" width="93.131" height="50.638" fill="none"/>
    </clipPath>
    <clipPath id="clip-path-9">
      <rect id="Rectángulo_3516" data-name="Rectángulo 3516" width="9.799" height="9.799" fill="none"/>
    </clipPath>
    <clipPath id="clip-path-10">
      <rect id="Rectángulo_3517" data-name="Rectángulo 3517" width="9.796" height="7.547" fill="none"/>
    </clipPath>
    <clipPath id="clip-path-11">
      <rect id="Rectángulo_3518" data-name="Rectángulo 3518" width="2.645" height="3.849" fill="none"/>
    </clipPath>
    <clipPath id="clip-path-12">
      <rect id="Rectángulo_3519" data-name="Rectángulo 3519" width="1.227" height="1.327" fill="none"/>
    </clipPath>
    <clipPath id="clip-path-13">
      <rect id="Rectángulo_3520" data-name="Rectángulo 3520" width="5.115" height="4.491" fill="none"/>
    </clipPath>
    <clipPath id="clip-path-14">
      <rect id="Rectángulo_3521" data-name="Rectángulo 3521" width="14.005" height="14.004" fill="none"/>
    </clipPath>
    <clipPath id="clip-path-15">
      <rect id="Rectángulo_3522" data-name="Rectángulo 3522" width="14" height="10.785" fill="none"/>
    </clipPath>
    <clipPath id="clip-path-16">
      <rect id="Rectángulo_3523" data-name="Rectángulo 3523" width="3.779" height="5.499" fill="none"/>
    </clipPath>
    <clipPath id="clip-path-17">
      <rect id="Rectángulo_3524" data-name="Rectángulo 3524" width="1.755" height="1.896" fill="none"/>
    </clipPath>
    <clipPath id="clip-path-18">
      <rect id="Rectángulo_3525" data-name="Rectángulo 3525" width="7.31" height="6.419" fill="none"/>
    </clipPath>
    <clipPath id="clip-path-19">
      <rect id="Rectángulo_3526" data-name="Rectángulo 3526" width="19.165" height="19.167" fill="none"/>
    </clipPath>
    <clipPath id="clip-path-20">
      <rect id="Rectángulo_3527" data-name="Rectángulo 3527" width="19.16" height="14.76" fill="none"/>
    </clipPath>
    <clipPath id="clip-path-21">
      <rect id="Rectángulo_3528" data-name="Rectángulo 3528" width="5.173" height="7.527" fill="none"/>
    </clipPath>
    <clipPath id="clip-path-22">
      <rect id="Rectángulo_3529" data-name="Rectángulo 3529" width="2.402" height="2.594" fill="none"/>
    </clipPath>
    <clipPath id="clip-path-23">
      <rect id="Rectángulo_3530" data-name="Rectángulo 3530" width="10.004" height="8.785" fill="none"/>
    </clipPath>
    <clipPath id="clip-path-24">
      <rect id="Rectángulo_3531" data-name="Rectángulo 3531" width="22.92" height="22.92" fill="none"/>
    </clipPath>
    <clipPath id="clip-path-25">
      <rect id="Rectángulo_3532" data-name="Rectángulo 3532" width="22.913" height="17.651" fill="none"/>
    </clipPath>
    <clipPath id="clip-path-26">
      <rect id="Rectángulo_3533" data-name="Rectángulo 3533" width="6.185" height="9.001" fill="none"/>
    </clipPath>
    <clipPath id="clip-path-27">
      <rect id="Rectángulo_3534" data-name="Rectángulo 3534" width="2.872" height="3.103" fill="none"/>
    </clipPath>
    <clipPath id="clip-path-28">
      <rect id="Rectángulo_3535" data-name="Rectángulo 3535" width="11.964" height="10.506" fill="none"/>
    </clipPath>
    <clipPath id="clip-path-29">
      <rect id="Rectángulo_3536" data-name="Rectángulo 3536" width="8.961" height="8.962" fill="none"/>
    </clipPath>
    <clipPath id="clip-path-30">
      <rect id="Rectángulo_3537" data-name="Rectángulo 3537" width="8.959" height="6.902" fill="none"/>
    </clipPath>
    <clipPath id="clip-path-31">
      <rect id="Rectángulo_3538" data-name="Rectángulo 3538" width="2.419" height="3.52" fill="none"/>
    </clipPath>
    <clipPath id="clip-path-32">
      <rect id="Rectángulo_3539" data-name="Rectángulo 3539" width="1.123" height="1.213" fill="none"/>
    </clipPath>
    <clipPath id="clip-path-33">
      <rect id="Rectángulo_3540" data-name="Rectángulo 3540" width="4.679" height="4.107" fill="none"/>
    </clipPath>
    <clipPath id="clip-path-34">
      <rect id="Rectángulo_3541" data-name="Rectángulo 3541" width="130.481" height="12.23" fill="none"/>
    </clipPath>
  </defs>
  <g id="Grupo_18895" data-name="Grupo 18895" transform="translate(-1141.505 -9881.646)">
    <g id="Grupo_12625" data-name="Grupo 12625" transform="translate(1141.505 9881.646)">
      <g id="Grupo_12624" data-name="Grupo 12624" clip-path="url(#clip-path)">
        <g id="Grupo_12623" data-name="Grupo 12623" transform="translate(0 0)">
          <g id="Grupo_12622" data-name="Grupo 12622" clip-path="url(#clip-path)">
            <path id="Trazado_33058" data-name="Trazado 33058" d="M434.167,370.181A110.217,110.217,0,1,0,323.949,480.4,110.217,110.217,0,0,0,434.167,370.181" transform="translate(-189.306 -230.254)" fill="#0f6d96"/>
            <path id="Trazado_33059" data-name="Trazado 33059" d="M212.732,449.663a111.47,111.47,0,0,0,7.235-28.3c1.678-14.833-3.5-28.979-13.115-39.876a54.8,54.8,0,0,0-14.21-11.98c-11.807-7.717-25.41-12.922-38.133-18.6q-8.367-3.735-16.88-7.158c-.6-.245-1.2-.485-1.8-.728s-1.2-.483-1.8-.721q-8.513-3.414-17.131-6.535c-13.109-4.72-26.524-10.393-40.385-13.009a54.8,54.8,0,0,0-18.546-1.208c-14.483,1.195-28.019,7.806-37.087,19.665A111.475,111.475,0,0,0,6.492,366.631c-.964,2.327-1.829,4.682-2.572,7.054C.891,383.108-.643,392.815.254,401.749,1.815,417.3,10.3,433.367,23.824,441.791q1.382.988,2.829,1.908c17.722,11.226,37.235,20.346,57.362,28.027,19.834,8.407,40.223,15.351,60.78,19.537q1.681.342,3.362.585c15.59,3.3,32.836-2.407,44.739-12.54,6.837-5.82,12.456-13.882,16.8-22.774,1.108-2.226,2.117-4.523,3.034-6.87" transform="translate(0 -284.508)" fill="#b1ebfe"/>
            <g id="Grupo_12528" data-name="Grupo 12528" transform="translate(0 36.711)" opacity="0.5" style="mix-blend-mode: screen;isolation: isolate">
              <g id="Grupo_12527" data-name="Grupo 12527">
                <g id="Grupo_12526" data-name="Grupo 12526" clip-path="url(#clip-path-3)">
                  <path id="Trazado_33060" data-name="Trazado 33060" d="M1.636,407.288c-.9-8.935.637-18.641,3.666-28.064.744-2.372,1.608-4.727,2.572-7.054a111.476,111.476,0,0,1,14.391-25.417c9.068-11.859,22.6-18.471,37.087-19.665A54.8,54.8,0,0,1,77.9,328.295c13.86,2.616,27.275,8.289,40.385,13.009q8.621,3.1,17.131,6.535c.6.238,1.2.48,1.8.721s1.2.483,1.8.728q8.5,3.437,16.88,7.158c12.723,5.68,26.326,10.885,38.133,18.6a54.8,54.8,0,0,1,14.21,11.98,54.085,54.085,0,0,1,11.171,19.686,53.181,53.181,0,0,0-12.553-25.225,54.8,54.8,0,0,0-14.21-11.98c-11.807-7.717-25.41-12.922-38.133-18.6q-8.367-3.735-16.88-7.158c-.6-.245-1.2-.485-1.8-.728s-1.2-.483-1.8-.721q-8.513-3.414-17.131-6.535c-13.109-4.72-26.524-10.393-40.385-13.009a54.8,54.8,0,0,0-18.546-1.208c-14.483,1.195-28.019,7.806-37.087,19.665A111.475,111.475,0,0,0,6.493,366.631c-.964,2.327-1.828,4.682-2.572,7.054C.892,383.108-.642,392.815.254,401.749a56.624,56.624,0,0,0,2.16,10.679c-.337-1.713-.607-3.43-.779-5.141" transform="translate(0 -321.218)" fill="#b1ebfe"/>
                </g>
              </g>
            </g>
            <g id="Grupo_12531" data-name="Grupo 12531" transform="translate(0.324 110.3)" style="mix-blend-mode: multiply;isolation: isolate">
              <g id="Grupo_12530" data-name="Grupo 12530">
                <g id="Grupo_12529" data-name="Grupo 12529" clip-path="url(#clip-path-4)">
                  <path id="Trazado_33061" data-name="Trazado 33061" d="M222.482,991.691a49.615,49.615,0,0,0-4.383-26.557,48.968,48.968,0,0,1-.1,9.877c-3.977,35.145-30.532,79.215-71.81,70.483q-1.681-.245-3.362-.585c-21.194-4.312-41.482-12.01-61.541-19.936s-41.64-16.817-59.431-29.536c-8.471-5.276-14.962-13.548-19.015-22.813,1.7,15.382,10.132,31.168,23.5,39.494q1.382.988,2.829,1.908c17.722,11.225,37.235,20.346,57.362,28.027,19.834,8.407,40.224,15.351,60.78,19.537q1.681.342,3.362.585c15.59,3.3,32.836-2.407,44.74-12.54,6.837-5.82,12.456-13.882,16.8-22.774,1.108-2.226,2.117-4.523,3.034-6.87a111.47,111.47,0,0,0,7.235-28.3" transform="translate(-2.839 -965.134)" fill="#b1ebfe"/>
                </g>
              </g>
            </g>
            <g id="Grupo_12534" data-name="Grupo 12534" transform="translate(0.324 117.79)" opacity="0.6" style="mix-blend-mode: multiply;isolation: isolate">
              <g id="Grupo_12533" data-name="Grupo 12533">
                <g id="Grupo_12532" data-name="Grupo 12532" clip-path="url(#clip-path-5)">
                  <path id="Trazado_33062" data-name="Trazado 33062" d="M222.482,1049.735a49,49,0,0,0-1.062-17.045,48.944,48.944,0,0,1-.044,10.56,111.471,111.471,0,0,1-7.235,28.3c-.918,2.346-1.926,4.644-3.034,6.87-4.345,8.893-9.964,16.954-16.8,22.774-11.9,10.134-29.149,15.838-44.739,12.54q-1.681-.245-3.362-.585c-20.557-4.186-40.946-11.13-60.78-19.536-20.126-7.682-39.639-16.8-57.362-28.027q-1.449-.918-2.829-1.908c-11.473-7.145-19.3-19.788-22.368-32.952-.008-.019-.018-.038-.026-.057,1.7,15.382,10.132,31.168,23.5,39.494q1.382.988,2.829,1.908c17.722,11.225,37.235,20.346,57.362,28.027,19.834,8.407,40.224,15.351,60.78,19.536q1.681.342,3.362.585c15.59,3.3,32.836-2.407,44.74-12.54,6.837-5.82,12.456-13.882,16.8-22.774,1.108-2.226,2.117-4.523,3.034-6.87a111.469,111.469,0,0,0,7.235-28.3" transform="translate(-2.839 -1030.667)" fill="#b1ebfe"/>
                </g>
              </g>
            </g>
            <path id="Trazado_33063" data-name="Trazado 33063" d="M495.473,673.613c-7.827,19.441-42.319,23.87-77.039,9.892s-56.522-41.071-48.695-60.512,42.319-23.87,77.039-9.892,56.522,41.071,48.695,60.512" transform="translate(-326.074 -535.807)" fill="#b1ebfe"/>
            <g id="Grupo_12537" data-name="Grupo 12537" transform="translate(43.209 103.269)" opacity="0.5" style="mix-blend-mode: screen;isolation: isolate">
              <g id="Grupo_12536" data-name="Grupo 12536">
                <g id="Grupo_12535" data-name="Grupo 12535" clip-path="url(#clip-path-6)">
                  <path id="Trazado_33064" data-name="Trazado 33064" d="M505.639,926.406a23.107,23.107,0,0,1-1.365,11.745c-7.827,19.441-42.319,23.87-77.039,9.892-25.834-10.4-44.5-28.061-49.151-44.429,2.277,17.5,21.924,37.44,50.06,48.767,34.721,13.978,69.212,9.549,77.039-9.892a24.511,24.511,0,0,0,.456-16.084" transform="translate(-378.083 -903.614)" fill="#b1ebfe"/>
                </g>
              </g>
            </g>
            <g id="Grupo_12540" data-name="Grupo 12540" transform="translate(42.075 69.135)" style="mix-blend-mode: multiply;isolation: isolate">
              <g id="Grupo_12539" data-name="Grupo 12539">
                <g id="Grupo_12538" data-name="Grupo 12538" clip-path="url(#clip-path-7)">
                  <path id="Trazado_33065" data-name="Trazado 33065" d="M369.928,632.109c7.827-19.442,42.319-23.87,77.039-9.892,27.148,10.93,46.4,29.878,49.76,46.916,3.233-18.94-17.813-43.1-49.94-56.032-34.72-13.979-69.212-9.55-77.039,9.892a23.656,23.656,0,0,0-1.065,13.6,21.752,21.752,0,0,1,1.245-4.481" transform="translate(-368.157 -604.943)" fill="#b1ebfe"/>
                </g>
              </g>
            </g>
            <g id="Grupo_12543" data-name="Grupo 12543" transform="translate(61.751 92.556)" style="mix-blend-mode: multiply;isolation: isolate">
              <g id="Grupo_12542" data-name="Grupo 12542">
                <g id="Grupo_12541" data-name="Grupo 12541" clip-path="url(#clip-path-8)">
                  <path id="Trazado_33066" data-name="Trazado 33066" d="M549.835,824.291q-1.391-1.2-2.481-2.3c-2.513-2.533-3.255-6.267-1.03-9.289,2.857-3.88,8.392-3.254,12.174-1.248,2.331,1.236,5.53,3.311,4.653,6.327a2.679,2.679,0,0,1-1.306,1.677c-1.311.65-2.074-.48-2.973-1.23a9.478,9.478,0,0,0-4.7-2.11c-1.276-.184-2.449.394-1.953,1.9.338,1.027,2.05,1.91,2.884,2.6a15.17,15.17,0,0,1,4.166,4.935c2.461,5.174-2.487,9.636-7.368,9.785a14.592,14.592,0,0,1-9.731-4.056,5.429,5.429,0,0,1-1.84-3.928c.075-1.192,1.245-2.835,2.585-2.849,1.276-.013,3.566,2.943,4.76,3.681,1.254.775,4.009,2.248,4.864.187a2.193,2.193,0,0,0-.416-2.12,15.738,15.738,0,0,0-2.288-1.965" transform="translate(-540.324 -809.868)" fill="#b1ebfe"/>
                  <path id="Trazado_33067" data-name="Trazado 33067" d="M736.015,898.093a14.327,14.327,0,0,1,2.934-4.7,10.993,10.993,0,0,1,8.509-3.472,15,15,0,0,1,9.124,3.673,11.444,11.444,0,0,1,2.775,3.736,11.171,11.171,0,0,1,.991,4.678,14.344,14.344,0,0,1-1.139,5.419,14.745,14.745,0,0,1-2.922,4.721,11.043,11.043,0,0,1-3.927,2.72,11.216,11.216,0,0,1-4.59.771,14.506,14.506,0,0,1-4.927-1.09,14.219,14.219,0,0,1-4.3-2.646,11.073,11.073,0,0,1-2.742-3.765,11.411,11.411,0,0,1-.929-4.675,14.474,14.474,0,0,1,1.142-5.374m6.6,2.655a8.334,8.334,0,0,0-.651,5.53,5.235,5.235,0,0,0,7.292,2.936,10.594,10.594,0,0,0,4.017-9.924,4.79,4.79,0,0,0-2.982-3.116,4.887,4.887,0,0,0-4.3.162,8.171,8.171,0,0,0-3.373,4.412" transform="translate(-712.64 -880.77)" fill="#b1ebfe"/>
                  <path id="Trazado_33068" data-name="Trazado 33068" d="M945.47,981.307c1.786-.737,4.547.185,6.162,1.1,3.467,1.957,2.671,5.258,2.378,8.605q-.249,2.839-.564,5.842t-.637,5.919c-.15,1.358.272,3.59-.573,4.759-1.527,2.109-6.244-.274-6.425-2.446a7.1,7.1,0,0,1,.021-1.266c.083-.858.545-1.892.206-2.743-.587-1.469-2.456-2.1-3.866-2.407-2.225-.476-2.817-.07-4.115,1.718-1.1,1.519-1.548,2.287-3.559,1.748a5.083,5.083,0,0,1-3.175-2.328c-1.075-2.285,2.285-5.1,3.543-6.62,2.264-2.727,4.531-5.454,6.849-8.126,1.253-1.443,2.19-3.105,3.755-3.751m2.372,6.2q-1.133,1.332-2.534,2.962t-2.7,3.365l4.543,1.829q.283-2.186.512-4.287t.394-3.78Z" transform="translate(-886.453 -961.477)" fill="#b1ebfe"/>
                  <path id="Trazado_33069" data-name="Trazado 33069" d="M1151.516,1069.667a1.438,1.438,0,0,1-1.15.1,14.556,14.556,0,0,1-1.748-.576,8.212,8.212,0,0,1-1.433-.726,2.841,2.841,0,0,1-.9-.894,2.129,2.129,0,0,1-.291-1.181,4.821,4.821,0,0,1,.4-1.627l2.468-6.129,2.03-5.042c.685-1.7,1.182-3.539,1.942-5.183a3.781,3.781,0,0,1,1.713-1.874c2.088-1,5.554.539,7.51,1.326q5.057,2.036,6.861,5.275a7.7,7.7,0,0,1,.314,6.94,9.505,9.505,0,0,1-1.874,3.014,7.244,7.244,0,0,1-2.689,1.813,8.168,8.168,0,0,1-3.47.477,13.562,13.562,0,0,1-3.686-.844c-.851-.3-2.552-1.387-3.212-.874-.732.569-1.1,2.927-1.5,3.822-.373.841-.65,1.8-1.293,2.182m6.844-10.6a3.773,3.773,0,0,0,2.651.236,2.942,2.942,0,0,0,1.7-1.848,2.9,2.9,0,0,0,0-2.49,4.007,4.007,0,0,0-2.208-1.761q-.587-.236-.978-.372a6.464,6.464,0,0,0-.825-.226l-2.287,5.68Z" transform="translate(-1076.779 -1019.201)" fill="#b1ebfe"/>
                </g>
              </g>
            </g>
            <path id="Trazado_33070" data-name="Trazado 33070" d="M538.224,795.257q-1.391-1.2-2.481-2.3c-2.513-2.534-3.255-6.268-1.03-9.289,2.857-3.88,8.392-3.254,12.174-1.248,2.331,1.236,5.53,3.311,4.653,6.327a2.679,2.679,0,0,1-1.306,1.677c-1.311.65-2.074-.48-2.973-1.23a9.479,9.479,0,0,0-4.7-2.11c-1.276-.184-2.449.394-1.953,1.9.338,1.027,2.05,1.91,2.884,2.6a15.168,15.168,0,0,1,4.166,4.935c2.461,5.174-2.487,9.636-7.368,9.785a14.593,14.593,0,0,1-9.731-4.056,5.429,5.429,0,0,1-1.84-3.928c.075-1.192,1.245-2.835,2.585-2.849,1.276-.013,3.566,2.943,4.761,3.681,1.254.775,4.009,2.248,4.864.187a2.193,2.193,0,0,0-.416-2.12,15.738,15.738,0,0,0-2.288-1.965" transform="translate(-468.289 -691.596)" fill="#caf5ff"/>
            <path id="Trazado_33071" data-name="Trazado 33071" d="M724.4,869.059a14.329,14.329,0,0,1,2.934-4.7,10.993,10.993,0,0,1,8.509-3.472,15,15,0,0,1,9.124,3.674,11.442,11.442,0,0,1,2.775,3.736,11.169,11.169,0,0,1,.991,4.678A14.345,14.345,0,0,1,747.6,878.4a14.747,14.747,0,0,1-2.922,4.721,11.045,11.045,0,0,1-3.927,2.72,11.215,11.215,0,0,1-4.59.771,14.5,14.5,0,0,1-4.927-1.09,14.218,14.218,0,0,1-4.3-2.646,11.073,11.073,0,0,1-2.742-3.766,11.41,11.41,0,0,1-.929-4.675,14.471,14.471,0,0,1,1.142-5.374m6.6,2.655a8.335,8.335,0,0,0-.651,5.53,5.235,5.235,0,0,0,7.292,2.936,10.594,10.594,0,0,0,4.017-9.924,4.79,4.79,0,0,0-2.982-3.116,4.888,4.888,0,0,0-4.3.162A8.171,8.171,0,0,0,731,871.715" transform="translate(-640.605 -762.499)" fill="#caf5ff"/>
            <path id="Trazado_33072" data-name="Trazado 33072" d="M933.859,952.273c1.786-.737,4.547.185,6.162,1.1,3.467,1.957,2.671,5.258,2.378,8.605q-.249,2.839-.564,5.842t-.637,5.919c-.15,1.358.272,3.59-.573,4.759-1.527,2.11-6.244-.273-6.425-2.446a7.1,7.1,0,0,1,.021-1.266c.083-.858.545-1.892.206-2.744-.587-1.469-2.456-2.1-3.866-2.406-2.225-.476-2.817-.07-4.115,1.718-1.1,1.52-1.548,2.287-3.559,1.748a5.083,5.083,0,0,1-3.175-2.328c-1.075-2.285,2.285-5.1,3.543-6.62,2.264-2.726,4.531-5.454,6.849-8.126,1.253-1.443,2.19-3.105,3.755-3.751m2.372,6.2q-1.133,1.332-2.534,2.962T931,964.8l4.543,1.829q.283-2.186.512-4.287t.394-3.78Z" transform="translate(-814.418 -843.205)" fill="#caf5ff"/>
            <path id="Trazado_33073" data-name="Trazado 33073" d="M1139.906,1040.633a1.439,1.439,0,0,1-1.15.1,14.482,14.482,0,0,1-1.748-.576,8.2,8.2,0,0,1-1.433-.726,2.84,2.84,0,0,1-.9-.894,2.13,2.13,0,0,1-.291-1.181,4.822,4.822,0,0,1,.4-1.627l2.468-6.129,2.03-5.042c.685-1.7,1.182-3.539,1.942-5.183a3.78,3.78,0,0,1,1.713-1.874c2.088-1,5.554.538,7.51,1.326q5.057,2.036,6.861,5.275a7.7,7.7,0,0,1,.314,6.94,9.5,9.5,0,0,1-1.874,3.014,7.243,7.243,0,0,1-2.689,1.813,8.172,8.172,0,0,1-3.47.477,13.572,13.572,0,0,1-3.686-.844c-.85-.3-2.552-1.387-3.212-.874-.732.569-1.1,2.927-1.5,3.822-.374.841-.65,1.8-1.293,2.182m6.844-10.6a3.775,3.775,0,0,0,2.652.236,2.941,2.941,0,0,0,1.7-1.848,2.9,2.9,0,0,0,0-2.49,4.008,4.008,0,0,0-2.208-1.762q-.587-.236-.978-.372a6.459,6.459,0,0,0-.825-.226l-2.287,5.68Z" transform="translate(-1004.744 -900.929)" fill="#caf5ff"/>
            <g id="Grupo_12546" data-name="Grupo 12546" transform="translate(149.615 47.888)" style="mix-blend-mode: multiply;isolation: isolate">
              <g id="Grupo_12545" data-name="Grupo 12545">
                <g id="Grupo_12544" data-name="Grupo 12544" clip-path="url(#clip-path-9)">
                  <path id="Trazado_33074" data-name="Trazado 33074" d="M1318.593,425.745a4.9,4.9,0,1,0-6.373,2.714,4.9,4.9,0,0,0,6.373-2.714" transform="translate(-1309.149 -419.016)" fill="#d2f3ff"/>
                </g>
              </g>
            </g>
            <path id="Trazado_33075" data-name="Trazado 33075" d="M1317.021,420.843a4.9,4.9,0,1,0-6.373,2.714,4.9,4.9,0,0,0,6.373-2.714" transform="translate(-1158.142 -366.787)" fill="#d2f3ff"/>
            <g id="Grupo_12549" data-name="Grupo 12549" transform="translate(149.437 49.579)" opacity="0.5" style="mix-blend-mode: multiply;isolation: isolate">
              <g id="Grupo_12548" data-name="Grupo 12548">
                <g id="Grupo_12547" data-name="Grupo 12547" clip-path="url(#clip-path-10)">
                  <path id="Trazado_33076" data-name="Trazado 33076" d="M1316.606,433.824a4.895,4.895,0,0,1-6.642,3.634,4.869,4.869,0,0,1-2.288-1.9,4.9,4.9,0,1,0,8.929-1.737" transform="translate(-1307.591 -433.824)" fill="#d2f3ff"/>
                </g>
              </g>
            </g>
            <g id="Grupo_12552" data-name="Grupo 12552" transform="translate(150.31 50.295)" opacity="0.6">
              <g id="Grupo_12551" data-name="Grupo 12551">
                <g id="Grupo_12550" data-name="Grupo 12550" clip-path="url(#clip-path-11)">
                  <path id="Trazado_33077" data-name="Trazado 33077" d="M1317.878,442c.009,1.063-.576,1.929-1.306,1.935s-1.33-.85-1.339-1.913.576-1.929,1.306-1.935,1.33.85,1.339,1.913" transform="translate(-1315.233 -440.084)" fill="#fff"/>
                </g>
              </g>
            </g>
            <g id="Grupo_12555" data-name="Grupo 12555" transform="translate(151.572 48.651)" opacity="0.6">
              <g id="Grupo_12554" data-name="Grupo 12554">
                <g id="Grupo_12553" data-name="Grupo 12553" clip-path="url(#clip-path-12)">
                  <path id="Trazado_33078" data-name="Trazado 33078" d="M1327.3,426.688a.559.559,0,1,1,.025-.9.655.655,0,0,1-.025.9" transform="translate(-1326.267 -425.699)" fill="#fff"/>
                </g>
              </g>
            </g>
            <g id="Grupo_12558" data-name="Grupo 12558" transform="translate(153.486 52.133)" opacity="0.3">
              <g id="Grupo_12557" data-name="Grupo 12557">
                <g id="Grupo_12556" data-name="Grupo 12556" clip-path="url(#clip-path-13)">
                  <path id="Trazado_33079" data-name="Trazado 33079" d="M1346.033,460.215a2.368,2.368,0,0,1-2.421.192c-1.269-.75-.254-2,.692-2.088,2.878-.275,3.036-2.62,3.621-2.068s-.075,2.859-1.891,3.964" transform="translate(-1343.018 -456.167)" fill="#fff"/>
                </g>
              </g>
            </g>
            <g id="Grupo_12561" data-name="Grupo 12561" transform="translate(57.77 20.606)" style="mix-blend-mode: multiply;isolation: isolate">
              <g id="Grupo_12560" data-name="Grupo 12560">
                <g id="Grupo_12559" data-name="Grupo 12559" clip-path="url(#clip-path-14)">
                  <path id="Trazado_33080" data-name="Trazado 33080" d="M518.992,189.914a7,7,0,1,0-9.108,3.879,7,7,0,0,0,9.108-3.879" transform="translate(-505.496 -180.298)" fill="#d2f3ff"/>
                </g>
              </g>
            </g>
            <path id="Trazado_33081" data-name="Trazado 33081" d="M516.747,182.908a7,7,0,1,0-9.108,3.879,7,7,0,0,0,9.108-3.879" transform="translate(-445.737 -153.487)" fill="#d2f3ff"/>
            <g id="Grupo_12564" data-name="Grupo 12564" transform="translate(57.516 23.024)" opacity="0.5" style="mix-blend-mode: multiply;isolation: isolate">
              <g id="Grupo_12563" data-name="Grupo 12563">
                <g id="Grupo_12562" data-name="Grupo 12562" clip-path="url(#clip-path-15)">
                  <path id="Trazado_33082" data-name="Trazado 33082" d="M516.154,201.46a7,7,0,0,1-9.492,5.194,6.962,6.962,0,0,1-3.269-2.711,7,7,0,1,0,12.761-2.482" transform="translate(-503.27 -201.46)" fill="#d2f3ff"/>
                </g>
              </g>
            </g>
            <g id="Grupo_12567" data-name="Grupo 12567" transform="translate(58.764 24.047)" opacity="0.6">
              <g id="Grupo_12566" data-name="Grupo 12566">
                <g id="Grupo_12565" data-name="Grupo 12565" clip-path="url(#clip-path-16)">
                  <path id="Trazado_33083" data-name="Trazado 33083" d="M517.971,213.14c.013,1.519-.823,2.757-1.866,2.766s-1.9-1.215-1.913-2.734.823-2.757,1.866-2.766,1.9,1.215,1.913,2.734" transform="translate(-514.192 -210.407)" fill="#fff"/>
                </g>
              </g>
            </g>
            <g id="Grupo_12570" data-name="Grupo 12570" transform="translate(60.566 21.697)" opacity="0.6">
              <g id="Grupo_12569" data-name="Grupo 12569">
                <g id="Grupo_12568" data-name="Grupo 12568" clip-path="url(#clip-path-17)">
                  <path id="Trazado_33084" data-name="Trazado 33084" d="M531.439,191.261a.8.8,0,1,1,.035-1.291.936.936,0,0,1-.035,1.291" transform="translate(-529.959 -189.848)" fill="#fff"/>
                </g>
              </g>
            </g>
            <g id="Grupo_12573" data-name="Grupo 12573" transform="translate(63.302 26.673)" opacity="0.3">
              <g id="Grupo_12572" data-name="Grupo 12572">
                <g id="Grupo_12571" data-name="Grupo 12571" clip-path="url(#clip-path-18)">
                  <path id="Trazado_33085" data-name="Trazado 33085" d="M558.209,239.176a3.384,3.384,0,0,1-3.46.275c-1.814-1.073-.364-2.855.988-2.984,4.113-.393,4.339-3.744,5.175-2.956s-.107,4.086-2.7,5.665" transform="translate(-553.898 -233.391)" fill="#fff"/>
                </g>
              </g>
            </g>
            <g id="Grupo_12576" data-name="Grupo 12576" transform="translate(130.946 24.211)" style="mix-blend-mode: multiply;isolation: isolate">
              <g id="Grupo_12575" data-name="Grupo 12575">
                <g id="Grupo_12574" data-name="Grupo 12574" clip-path="url(#clip-path-19)">
                  <path id="Trazado_33086" data-name="Trazado 33086" d="M1164.262,225.016a9.58,9.58,0,1,0-12.465,5.309,9.58,9.58,0,0,0,12.465-5.309" transform="translate(-1145.792 -211.854)" fill="#d2f3ff"/>
                </g>
              </g>
            </g>
            <path id="Trazado_33087" data-name="Trazado 33087" d="M1161.189,215.427a9.58,9.58,0,1,0-12.465,5.309,9.581,9.581,0,0,0,12.465-5.309" transform="translate(-1012.124 -179.15)" fill="#d2f3ff"/>
            <g id="Grupo_12579" data-name="Grupo 12579" transform="translate(130.598 27.522)" opacity="0.5" style="mix-blend-mode: multiply;isolation: isolate">
              <g id="Grupo_12578" data-name="Grupo 12578">
                <g id="Grupo_12577" data-name="Grupo 12577" clip-path="url(#clip-path-20)">
                  <path id="Trazado_33088" data-name="Trazado 33088" d="M1160.378,240.817a9.571,9.571,0,0,1-17.464,3.4,9.579,9.579,0,1,0,17.464-3.4" transform="translate(-1142.747 -240.817)" fill="#d2f3ff"/>
                </g>
              </g>
            </g>
            <g id="Grupo_12582" data-name="Grupo 12582" transform="translate(132.306 28.921)" opacity="0.6">
              <g id="Grupo_12581" data-name="Grupo 12581">
                <g id="Grupo_12580" data-name="Grupo 12580" clip-path="url(#clip-path-21)">
                  <path id="Trazado_33089" data-name="Trazado 33089" d="M1162.864,256.8c.018,2.078-1.126,3.773-2.554,3.785s-2.6-1.663-2.618-3.741,1.126-3.773,2.554-3.785,2.6,1.663,2.618,3.741" transform="translate(-1157.692 -253.061)" fill="#fff"/>
                </g>
              </g>
            </g>
            <g id="Grupo_12585" data-name="Grupo 12585" transform="translate(134.772 25.706)" opacity="0.6">
              <g id="Grupo_12584" data-name="Grupo 12584">
                <g id="Grupo_12583" data-name="Grupo 12583" clip-path="url(#clip-path-22)">
                  <path id="Trazado_33090" data-name="Trazado 33090" d="M1181.3,226.86a1.094,1.094,0,1,1,.049-1.767,1.281,1.281,0,0,1-.049,1.767" transform="translate(-1179.27 -224.926)" fill="#fff"/>
                </g>
              </g>
            </g>
            <g id="Grupo_12588" data-name="Grupo 12588" transform="translate(138.516 32.516)" opacity="0.3">
              <g id="Grupo_12587" data-name="Grupo 12587">
                <g id="Grupo_12586" data-name="Grupo 12586" clip-path="url(#clip-path-23)">
                  <path id="Trazado_33091" data-name="Trazado 33091" d="M1217.931,292.433a4.631,4.631,0,0,1-4.735.376c-2.482-1.468-.5-3.907,1.353-4.084,5.628-.538,5.938-5.124,7.083-4.045s-.147,5.592-3.7,7.753" transform="translate(-1212.031 -284.517)" fill="#fff"/>
                </g>
              </g>
            </g>
            <g id="Grupo_12591" data-name="Grupo 12591" transform="translate(36.935 1.31)" style="mix-blend-mode: multiply;isolation: isolate">
              <g id="Grupo_12590" data-name="Grupo 12590">
                <g id="Grupo_12589" data-name="Grupo 12589" clip-path="url(#clip-path-24)">
                  <path id="Trazado_33092" data-name="Trazado 33092" d="M345.276,27.2a11.457,11.457,0,1,0-14.907,6.349A11.457,11.457,0,0,0,345.276,27.2" transform="translate(-323.189 -11.464)" fill="#d2f3ff"/>
                </g>
              </g>
            </g>
            <path id="Trazado_33093" data-name="Trazado 33093" d="M341.6,15.737A11.457,11.457,0,1,0,326.7,22.086,11.457,11.457,0,0,0,341.6,15.737" transform="translate(-283 0.001)" fill="#d2f3ff"/>
            <g id="Grupo_12594" data-name="Grupo 12594" transform="translate(36.519 5.269)" opacity="0.5" style="mix-blend-mode: multiply;isolation: isolate">
              <g id="Grupo_12593" data-name="Grupo 12593">
                <g id="Grupo_12592" data-name="Grupo 12592" clip-path="url(#clip-path-25)">
                  <path id="Trazado_33094" data-name="Trazado 33094" d="M340.632,46.1a11.445,11.445,0,0,1-20.885,4.063A11.455,11.455,0,1,0,340.632,46.1" transform="translate(-319.547 -46.1)" fill="#d2f3ff"/>
                </g>
              </g>
            </g>
            <g id="Grupo_12597" data-name="Grupo 12597" transform="translate(38.562 6.942)" opacity="0.6">
              <g id="Grupo_12596" data-name="Grupo 12596">
                <g id="Grupo_12595" data-name="Grupo 12595" clip-path="url(#clip-path-26)">
                  <path id="Trazado_33095" data-name="Trazado 33095" d="M343.606,65.215c.021,2.485-1.346,4.512-3.054,4.526s-3.11-1.989-3.131-4.474,1.346-4.512,3.054-4.526,3.11,1.989,3.131,4.474" transform="translate(-337.421 -60.741)" fill="#fff"/>
                </g>
              </g>
            </g>
            <g id="Grupo_12600" data-name="Grupo 12600" transform="translate(41.511 3.097)" opacity="0.6">
              <g id="Grupo_12599" data-name="Grupo 12599">
                <g id="Grupo_12598" data-name="Grupo 12598" clip-path="url(#clip-path-27)">
                  <path id="Trazado_33096" data-name="Trazado 33096" d="M365.646,29.409a1.533,1.533,0,0,1-2.03.589,1.533,1.533,0,0,1,.058-2.113,1.533,1.533,0,0,1,2.03-.589,1.532,1.532,0,0,1-.058,2.113" transform="translate(-363.224 -27.096)" fill="#fff"/>
                </g>
              </g>
            </g>
            <g id="Grupo_12603" data-name="Grupo 12603" transform="translate(45.988 11.241)" opacity="0.3">
              <g id="Grupo_12602" data-name="Grupo 12602">
                <g id="Grupo_12601" data-name="Grupo 12601" clip-path="url(#clip-path-28)">
                  <path id="Trazado_33097" data-name="Trazado 33097" d="M409.459,107.826a5.538,5.538,0,0,1-5.663.45c-2.968-1.755-.595-4.673,1.618-4.884,6.73-.643,7.1-6.127,8.47-4.837s-.176,6.688-4.425,9.272" transform="translate(-402.404 -98.358)" fill="#fff"/>
                </g>
              </g>
            </g>
            <g id="Grupo_12606" data-name="Grupo 12606" transform="translate(163.157 36.985)" style="mix-blend-mode: multiply;isolation: isolate">
              <g id="Grupo_12605" data-name="Grupo 12605">
                <g id="Grupo_12604" data-name="Grupo 12604" clip-path="url(#clip-path-29)">
                  <path id="Trazado_33098" data-name="Trazado 33098" d="M1436.275,329.778a4.48,4.48,0,1,0-5.829,2.482,4.48,4.48,0,0,0,5.829-2.482" transform="translate(-1427.639 -323.624)" fill="#d2f3ff"/>
                </g>
              </g>
            </g>
            <path id="Trazado_33099" data-name="Trazado 33099" d="M1434.839,325.3a4.48,4.48,0,1,0-5.828,2.482,4.479,4.479,0,0,0,5.828-2.482" transform="translate(-1263.21 -282.668)" fill="#d2f3ff"/>
            <g id="Grupo_12609" data-name="Grupo 12609" transform="translate(162.995 38.533)" opacity="0.5" style="mix-blend-mode: multiply;isolation: isolate">
              <g id="Grupo_12608" data-name="Grupo 12608">
                <g id="Grupo_12607" data-name="Grupo 12607" clip-path="url(#clip-path-30)">
                  <path id="Trazado_33100" data-name="Trazado 33100" d="M1434.46,337.167a4.475,4.475,0,0,1-8.166,1.589,4.479,4.479,0,1,0,8.166-1.589" transform="translate(-1426.216 -337.167)" fill="#d2f3ff"/>
                </g>
              </g>
            </g>
            <g id="Grupo_12612" data-name="Grupo 12612" transform="translate(163.792 39.187)" opacity="0.6">
              <g id="Grupo_12611" data-name="Grupo 12611">
                <g id="Grupo_12610" data-name="Grupo 12610" clip-path="url(#clip-path-31)">
                  <path id="Trazado_33101" data-name="Trazado 33101" d="M1435.622,344.641c.008.972-.526,1.764-1.194,1.77s-1.216-.777-1.224-1.749.526-1.764,1.194-1.77,1.216.778,1.224,1.749" transform="translate(-1433.203 -342.892)" fill="#fff"/>
                </g>
              </g>
            </g>
            <g id="Grupo_12615" data-name="Grupo 12615" transform="translate(164.946 37.684)" opacity="0.6">
              <g id="Grupo_12614" data-name="Grupo 12614">
                <g id="Grupo_12613" data-name="Grupo 12613" clip-path="url(#clip-path-32)">
                  <path id="Trazado_33102" data-name="Trazado 33102" d="M1444.24,330.64a.512.512,0,1,1,.023-.826.6.6,0,0,1-.023.826" transform="translate(-1443.292 -329.736)" fill="#fff"/>
                </g>
              </g>
            </g>
            <g id="Grupo_12618" data-name="Grupo 12618" transform="translate(166.696 40.868)" opacity="0.3">
              <g id="Grupo_12617" data-name="Grupo 12617">
                <g id="Grupo_12616" data-name="Grupo 12616" clip-path="url(#clip-path-33)">
                  <path id="Trazado_33103" data-name="Trazado 33103" d="M1461.371,361.3a2.166,2.166,0,0,1-2.214.176c-1.161-.686-.233-1.827.632-1.91,2.632-.252,2.776-2.4,3.312-1.891s-.069,2.615-1.73,3.625" transform="translate(-1458.613 -357.601)" fill="#fff"/>
                </g>
              </g>
            </g>
            <path id="Trazado_33104" data-name="Trazado 33104" d="M1419.62,591.016a17.253,17.253,0,1,0-22.448,9.561,17.253,17.253,0,0,0,22.448-9.561" transform="translate(-1227.919 -502.48)" fill="#f0fcff"/>
            <path id="Trazado_33105" data-name="Trazado 33105" d="M1717.109,564.788a17.253,17.253,0,1,0-22.448,9.561,17.253,17.253,0,0,0,22.448-9.561" transform="translate(-1491.41 -479.249)" fill="#f0fcff"/>
            <path id="Trazado_33106" data-name="Trazado 33106" d="M282.322,310.974a17.253,17.253,0,1,0-22.448,9.561,17.253,17.253,0,0,0,22.448-9.561" transform="translate(-220.597 -254.442)" fill="#f0fcff"/>
            <path id="Trazado_33107" data-name="Trazado 33107" d="M1692.328,814.745a22.951,22.951,0,1,0-29.862,12.719,22.951,22.951,0,0,0,29.862-12.719" transform="translate(-1459.731 -693.707)" fill="#f0fcff"/>
            <path id="Trazado_33108" data-name="Trazado 33108" d="M1592.516,756.131a13.968,13.968,0,1,0-18.173,7.74,13.968,13.968,0,0,0,18.173-7.74" transform="translate(-1386.666 -652.722)" fill="#f0fcff"/>
            <path id="Trazado_33109" data-name="Trazado 33109" d="M2096.068,691.568a6.812,6.812,0,1,0-8.864,3.775,6.812,6.812,0,0,0,8.864-3.775" transform="translate(-1844.887 -604.244)" fill="#f0fcff"/>
            <path id="Trazado_33110" data-name="Trazado 33110" d="M1510.654,974.664a5.762,5.762,0,1,0-7.5,3.193,5.762,5.762,0,0,0,7.5-3.193" transform="translate(-1328.171 -856.264)" fill="#f0fcff"/>
            <path id="Trazado_33111" data-name="Trazado 33111" d="M148.957,147.923a9.551,9.551,0,1,0-12.428,5.293,9.552,9.552,0,0,0,12.428-5.293" transform="translate(-115.624 -119.396)" fill="#f0fcff"/>
            <path id="Trazado_33112" data-name="Trazado 33112" d="M1599.947,599.507a11.211,11.211,0,1,0-14.586,6.213,11.211,11.211,0,0,0,14.586-6.213" transform="translate(-1397.955 -517.352)" fill="#f0fcff"/>
            <path id="Trazado_33113" data-name="Trazado 33113" d="M115.665,424.475A13.4,13.4,0,1,0,98.234,431.9a13.4,13.4,0,0,0,17.431-7.424" transform="translate(-79.569 -359.663)" fill="#f0fcff"/>
            <path id="Trazado_33114" data-name="Trazado 33114" d="M512.53,355.956a8.516,8.516,0,1,0-11.081,4.72,8.517,8.517,0,0,0,11.081-4.72" transform="translate(-439.413 -304.914)" fill="#f0fcff"/>
            <path id="Trazado_33115" data-name="Trazado 33115" d="M707.607,301.2a8.516,8.516,0,1,0-11.081,4.72,8.517,8.517,0,0,0,11.081-4.72" transform="translate(-612.196 -256.414)" fill="#f0fcff"/>
            <path id="Trazado_33116" data-name="Trazado 33116" d="M1022.826,391.416a6.392,6.392,0,1,0-8.317,3.542,6.392,6.392,0,0,0,8.317-3.542" transform="translate(-895.018 -338.905)" fill="#f0fcff"/>
            <path id="Trazado_33117" data-name="Trazado 33117" d="M522.226,653.658a5.466,5.466,0,1,0-7.112,3.029,5.466,5.466,0,0,0,7.112-3.029" transform="translate(-453.21 -572.304)" fill="#f0fcff"/>
            <path id="Trazado_33118" data-name="Trazado 33118" d="M503.259,476.716a15.256,15.256,0,1,0-19.85,8.454,15.256,15.256,0,0,0,19.85-8.454" transform="translate(-419.693 -403.672)" fill="#f0fcff"/>
            <path id="Trazado_33119" data-name="Trazado 33119" d="M793.7,331.526a15.256,15.256,0,1,0-19.85,8.454,15.256,15.256,0,0,0,19.85-8.454" transform="translate(-676.942 -275.075)" fill="#f0fcff"/>
            <path id="Trazado_33120" data-name="Trazado 33120" d="M1029.136,517.532a8.636,8.636,0,1,0-11.236,4.786,8.636,8.636,0,0,0,11.236-4.786" transform="translate(-896.775 -447.878)" fill="#f0fcff"/>
            <path id="Trazado_33121" data-name="Trazado 33121" d="M255.32,507.54a18.72,18.72,0,1,0-24.356,10.374A18.72,18.72,0,0,0,255.32,507.54" transform="translate(-194.176 -426.759)" fill="#f0fcff"/>
            <path id="Trazado_33122" data-name="Trazado 33122" d="M189.3,839.005a8.756,8.756,0,1,0-11.393,4.852,8.756,8.756,0,0,0,11.393-4.852" transform="translate(-152.717 -732.466)" fill="#f0fcff"/>
            <g id="Grupo_12621" data-name="Grupo 12621" transform="translate(67.747 218.579)" opacity="0.3" style="mix-blend-mode: multiply;isolation: isolate">
              <g id="Grupo_12620" data-name="Grupo 12620">
                <g id="Grupo_12619" data-name="Grupo 12619" clip-path="url(#clip-path-34)">
                  <path id="Trazado_33123" data-name="Trazado 33123" d="M723.277,1918.7c0,3.377-29.209,6.115-65.241,6.115s-65.241-2.738-65.241-6.115,29.209-6.115,65.241-6.115,65.241,2.738,65.241,6.115" transform="translate(-592.795 -1912.59)" fill="#c4c4c4"/>
                </g>
              </g>
            </g>
          </g>
        </g>
      </g>
    </g>
  </g>
</svg>
