<svg xmlns="http://www.w3.org/2000/svg" xmlns:xlink="http://www.w3.org/1999/xlink" width="251.756" height="263.904" viewBox="0 0 251.756 263.904">
  <defs>
    <linearGradient id="linear-gradient" x1="-0.312" y1="1.061" x2="2.478" y2="-1.142" gradientUnits="objectBoundingBox">
      <stop offset="0" stop-color="#f57fa3"/>
      <stop offset="1" stop-color="#f25585"/>
    </linearGradient>
    <linearGradient id="linear-gradient-2" x1="1.526" y1="-0.634" x2="-0.483" y2="1.586" xlink:href="#linear-gradient"/>
    <linearGradient id="linear-gradient-3" y1="0.5" x2="1" y2="0.5" gradientUnits="objectBoundingBox">
      <stop offset="0" stop-color="#dae3fe"/>
      <stop offset="1" stop-color="#e9effd"/>
    </linearGradient>
    <linearGradient id="linear-gradient-4" x1="0" y1="0.5" x2="1" y2="0.5" xlink:href="#linear-gradient-3"/>
    <linearGradient id="linear-gradient-5" x1="0" y1="0.5" x2="1" y2="0.5" xlink:href="#linear-gradient-3"/>
    <linearGradient id="linear-gradient-6" x1="0" y1="0.49" x2="1.001" y2="0.49" xlink:href="#linear-gradient-3"/>
    <linearGradient id="linear-gradient-7" x1="0" y1="0.493" x2="1.001" y2="0.493" xlink:href="#linear-gradient-3"/>
    <linearGradient id="linear-gradient-8" x1="314.677" y1="-0.484" x2="311.84" y2="6.012" gradientUnits="objectBoundingBox">
      <stop offset="0" stop-color="#241753"/>
      <stop offset="1" stop-color="#472ea6"/>
    </linearGradient>
    <linearGradient id="linear-gradient-9" x1="1244.597" y1="0.5" x2="1245.597" y2="0.5" gradientUnits="objectBoundingBox">
      <stop offset="0" stop-color="#febbba"/>
      <stop offset="1" stop-color="#ff928e"/>
    </linearGradient>
    <linearGradient id="linear-gradient-10" x1="378.567" y1="0.031" x2="375.67" y2="0.887" xlink:href="#linear-gradient-8"/>
    <linearGradient id="linear-gradient-11" x1="778.896" y1="-2.22" x2="771.88" y2="5.38" xlink:href="#linear-gradient-8"/>
    <linearGradient id="linear-gradient-12" x1="1444.175" y1="0.498" x2="1445.178" y2="0.498" xlink:href="#linear-gradient-9"/>
    <linearGradient id="linear-gradient-13" x1="266.819" y1="-0.035" x2="264.778" y2="0.806" xlink:href="#linear-gradient-8"/>
    <linearGradient id="linear-gradient-14" x1="0.407" y1="0.325" x2="1.973" y2="-2.025" gradientUnits="objectBoundingBox">
      <stop offset="0" stop-color="#9182ca"/>
      <stop offset="1" stop-color="#6c58b8"/>
    </linearGradient>
    <linearGradient id="linear-gradient-15" x1="238.953" y1="-0.492" x2="239.298" y2="0.348" xlink:href="#linear-gradient-9"/>
    <linearGradient id="linear-gradient-16" x1="707.052" y1="0.04" x2="708.079" y2="1.768" xlink:href="#linear-gradient-9"/>
    <linearGradient id="linear-gradient-17" x1="1716.623" y1="1.734" x2="1714.745" y2="-0.456" xlink:href="#linear-gradient-9"/>
    <linearGradient id="linear-gradient-18" x1="0.845" y1="0.152" x2="4.767" y2="-5.858" xlink:href="#linear-gradient-14"/>
    <linearGradient id="linear-gradient-19" x1="192.551" y1="0.5" x2="193.55" y2="0.5" xlink:href="#linear-gradient-9"/>
    <linearGradient id="linear-gradient-20" x1="617.917" y1="0.5" x2="618.916" y2="0.5" xlink:href="#linear-gradient-9"/>
    <linearGradient id="linear-gradient-21" x1="486.858" y1="0.503" x2="487.858" y2="0.503" xlink:href="#linear-gradient-9"/>
    <linearGradient id="linear-gradient-22" x1="161.504" y1="-48.194" x2="161.183" y2="-49.259" xlink:href="#linear-gradient-9"/>
    <linearGradient id="linear-gradient-23" x1="123.067" y1="-38.056" x2="123.272" y2="-36.875" xlink:href="#linear-gradient-8"/>
    <linearGradient id="linear-gradient-24" x1="525.344" y1="-236.219" x2="524.4" y2="-240.866" xlink:href="#linear-gradient-9"/>
  </defs>
  <g id="Grupo_56924" data-name="Grupo 56924" transform="translate(-406.744 -2646.222)">
    <g id="CF1_que_es" data-name="CF1_que es" transform="translate(379.924 2635.025)">
      <g id="Grupo_56878" data-name="Grupo 56878">
        <path id="Trazado_117406" data-name="Trazado 117406" d="M200.49,267a1.67,1.67,0,0,1-1.13-.67c-4-5.35-32.83-47.21,5.58-85.47,36.46-36.32,53-43.77,55.18-65.11a2.51,2.51,0,0,1,4.74-.85c8.28,16.79,21.19,56-21.53,81.69-47.11,28.37-43.25,59.47-41,68.3a1.7,1.7,0,0,1-1.87,2.11Z" fill="#91b3fa"/>
        <path id="Trazado_117407" data-name="Trazado 117407" d="M206.33,267.79a2.42,2.42,0,0,1-2.08-2c-1.13-7.28-3.89-34.48,16.15-41.69,22-7.94,39.86,12.61,56.08-3.47a1.23,1.23,0,0,1,2.08,1.07c-1.44,8.4-7.87,27.85-36.47,31.77-30.61,4.19-34.06,7.7-33.44,12.06a2,2,0,0,1-2.32,2.3Z" fill="#91b3fa"/>
        <path id="Trazado_117408" data-name="Trazado 117408" d="M259.06,137.5a32.66,32.66,0,0,1-1.47,4.55,45.325,45.325,0,0,1-2,4.31,57,57,0,0,1-5.09,8,66.36,66.36,0,0,1-13.58,13.3,87.2,87.2,0,0,1-8,5.17,72.145,72.145,0,0,0-7.56,5.06,79.55,79.55,0,0,0-13.09,12.65,67.9,67.9,0,0,0-15,32.76,63.62,63.62,0,0,0-.1,18.23A75.449,75.449,0,0,0,198,259.28a.59.59,0,0,1-.33.78.6.6,0,0,1-.76-.3,71.55,71.55,0,0,1-5.77-17.91,64.569,64.569,0,0,1-1-9.42,62.86,62.86,0,0,1,.46-9.5,64.44,64.44,0,0,1,5.11-18.3,73.391,73.391,0,0,1,9.93-16.21,79.14,79.14,0,0,1,13.59-13.29,75.426,75.426,0,0,1,7.9-5.34,84.938,84.938,0,0,0,7.73-4.9,73,73,0,0,0,13.43-12.25,64.32,64.32,0,0,0,5.44-7.35,47.871,47.871,0,0,0,4.2-8.1h0a.6.6,0,0,1,1.13.31Z" fill="#fff" opacity="0.47"/>
        <path id="Trazado_117409" data-name="Trazado 117409" d="M205.06,262.86a1.81,1.81,0,0,0,.06-.76v-2.25q0-1.5.06-3c.09-2,.26-4,.53-6a44.938,44.938,0,0,1,3-11.63,21.29,21.29,0,0,1,7.46-9.54,16.44,16.44,0,0,1,5.71-2.35A21.051,21.051,0,0,1,228,227c8,.93,15.78,2.45,23.61,3.69a41.9,41.9,0,0,0,11.69.58,17.749,17.749,0,0,0,2.8-.64,14.169,14.169,0,0,0,2.61-1.17,18.42,18.42,0,0,0,4.44-3.69h0a.49.49,0,0,1,.73.64,19.42,19.42,0,0,1-4.61,4,15.91,15.91,0,0,1-2.8,1.32,18.171,18.171,0,0,1-3,.75,42.72,42.72,0,0,1-12.07-.45c-3.95-.56-7.86-1.29-11.78-1.93s-7.86-1.25-11.75-1.71a19.68,19.68,0,0,0-5.74.24,15.07,15.07,0,0,0-5.28,2.12,20,20,0,0,0-7.17,8.88A43.68,43.68,0,0,0,206.52,251q-.45,2.92-.63,5.89-.09,1.5-.12,3v2.23a1.56,1.56,0,0,0,.12.73.454.454,0,1,1-.81.41.5.5,0,0,1,0-.36Z" fill="#fff" opacity="0.47"/>
      </g>
      <g id="Grupo_56881" data-name="Grupo 56881">
        <g id="Grupo_56879" data-name="Grupo 56879">
          <path id="Trazado_117410" data-name="Trazado 117410" d="M163.43,14.2c-12-.09-24.11,1.81-34.83,6.26C103.66,30.8,82.5,58.18,90.78,86.15c2.69,9.09,1.28,19.11,10.33,23.06,4.89,2.13,18.23,3.41,23.3,1.72,13.48-4.47,22.34-16.72,15-30.3C137.07,76.28,134,72.31,132,67.8s-2.95-9.85-.88-14.34c4.06-8.82,17.53-11.62,26.27-11.35A30.58,30.58,0,0,1,182.6,56.27c6.92,10.91,8.67,24.17,7.66,36.83-1.09,13.55-6.8,23.9-15.36,34.29-7.37,9-15.48,17.54-20.38,28-4.5,9.65-6,20.33-6.17,30.89,0,2-10.21,21.32-10.17,27.2,0,.84,11.54,3.59,12.37,3.6l21.16.24a1.69,1.69,0,0,0,1.71-1.67c.32-28.64,9.13-56,31.44-75.2,8.11-7,16.86-12.7,23.17-21.53,9-12.6,13.43-25,12.15-40.54C239,64.23,234.33,50,225.08,39c-9.94-11.84-24.5-19.23-39.63-22.42a111.579,111.579,0,0,0-22.02-2.38Z" fill="#ef2a66"/>
          <path id="Trazado_117411" data-name="Trazado 117411" d="M185.57,249.47c0,13.17-7.3,24.83-20.48,24.83-2.84,0-12.52,0-15.05-.89-9.19-3.32-9.22-10.37-9.22-20.7,0-13.17,4.45-26.13,17.62-26.13S185.57,236.3,185.57,249.47Z" fill="#ef2a66"/>
        </g>
        <g id="Grupo_56880" data-name="Grupo 56880">
          <path id="Trazado_117412" data-name="Trazado 117412" d="M152,11.2c-12-.1-24.11,1.81-34.83,6.25C92.25,27.8,71.09,55.18,79.37,83.15c2.69,9.08,8.91,20.52,18,24.47a22.14,22.14,0,0,0,15.67.31c13.48-4.47,22.34-16.72,15-30.3-2.35-4.35-5.39-8.32-7.41-12.83s-2.95-9.86-.89-14.35c4.06-8.81,17.53-11.61,26.27-11.35a30.6,30.6,0,0,1,25.21,14.17c6.92,10.91,8.67,24.17,7.66,36.83-1.08,13.55-6.79,23.9-15.36,34.29-7.37,9-15.48,17.53-20.38,28-4.5,9.65-6,20.33-6.17,30.88,0,2.05.65,23.41.69,29.3a1.53,1.53,0,0,0,1.51,1.51l21.16.24a1.69,1.69,0,0,0,1.71-1.67c.32-28.65,9.13-56,31.44-75.2,8.12-7,16.86-12.7,23.17-21.54,9-12.59,13.43-25,12.15-40.53C227.6,61.23,222.93,47,213.67,36c-9.94-11.84-24.5-19.23-39.63-22.42A111.409,111.409,0,0,0,152,11.2Z" fill="url(#linear-gradient)"/>
          <circle id="Elipse_4571" data-name="Elipse 4571" cx="23.85" cy="23.85" r="23.85" transform="translate(129.42 225.86)" fill="url(#linear-gradient-2)"/>
        </g>
        <path id="Trazado_117413" data-name="Trazado 117413" d="M87.27,80.41a.31.31,0,0,1-.3-.24c-1.67-7.55-1.92-19.37,6.41-32.81,8.12-13.13,19.51-21.91,33.87-26.1,15.34-4.49,33.55-3.53,54.13,2.85a.31.31,0,0,1,.2.39.3.3,0,0,1-.38.2c-39.54-12.26-70.55-4.09-87.3,23C85.68,61,85.92,72.6,87.57,80a.31.31,0,0,1-.24.36Z" fill="#fff" opacity="0.63"/>
        <path id="Trazado_117414" data-name="Trazado 117414" d="M92.28,92.55a.3.3,0,0,1-.24-.12,31.12,31.12,0,0,1-3.39-6.66.31.31,0,0,1,.57-.22,31.21,31.21,0,0,0,3.31,6.52.3.3,0,0,1-.06.42.33.33,0,0,1-.19.06Z" fill="#fff" opacity="0.63"/>
        <path id="Trazado_117415" data-name="Trazado 117415" d="M161.25,234.25a.32.32,0,0,1-.14,0,17.15,17.15,0,0,0-7.84-1.87A.31.31,0,0,1,153,232a.3.3,0,0,1,.31-.3,17.85,17.85,0,0,1,8.12,1.93.3.3,0,0,1,.13.41.29.29,0,0,1-.31.21Z" fill="#fff" opacity="0.63"/>
        <path id="Trazado_117416" data-name="Trazado 117416" d="M143.39,264.67a.27.27,0,0,1-.17-.06,18,18,0,0,1,1.55-30.74.3.3,0,0,1,.41.12.31.31,0,0,1-.12.42,17.37,17.37,0,0,0-1.5,29.7.31.31,0,0,1-.17.56Z" fill="#fff" opacity="0.63"/>
      </g>
      <g id="Grupo_56890" data-name="Grupo 56890">
        <g id="Grupo_56885" data-name="Grupo 56885">
          <g id="Grupo_56882" data-name="Grupo 56882" opacity="0.3">
            <path id="Trazado_117417" data-name="Trazado 117417" d="M73.92,55.82a.72.72,0,0,1-1,.11,20.342,20.342,0,0,0-1.88-1.4.71.71,0,0,1-.2-1h0a.73.73,0,0,1,1-.19q1,.69,2,1.47a.72.72,0,0,1,.15.95Zm-6.18-3.2c-.69-.34-1.41-.66-2.13-.94a.72.72,0,0,1-.41-.94.71.71,0,0,1,.93-.4,23.71,23.71,0,0,1,2.25,1,.72.72,0,0,1,.33,1v.07A.72.72,0,0,1,67.74,52.62ZM62,50.54c-.75-.18-1.52-.33-2.29-.44a.72.72,0,0,1-.61-.82.73.73,0,0,1,.82-.61c.81.12,1.62.28,2.42.47a.71.71,0,0,1,.53.87.92.92,0,0,1-.09.23.73.73,0,0,1-.78.3Zm-6.1-.74a22.869,22.869,0,0,0-2.34.08.72.72,0,0,1-.77-.66.73.73,0,0,1,.66-.78c.82-.06,1.65-.09,2.46-.08a.73.73,0,0,1,.72.73.64.64,0,0,1-.12.38.7.7,0,0,1-.61.33Zm-6.09.64c-.76.16-1.52.36-2.26.59a.723.723,0,1,1-.43-1.38c.78-.24,1.58-.45,2.38-.62a.72.72,0,0,1,.76,1.09A.74.74,0,0,1,49.81,50.44ZM44,52.4c-.7.33-1.4.69-2.07,1.08a.721.721,0,0,1-.72-1.25c.71-.41,1.44-.79,2.18-1.14a.73.73,0,0,1,1,.35.72.72,0,0,1-.05.7A.7.7,0,0,1,44,52.4ZM27.73,73.7a.71.71,0,0,1-.6-.82c.12-.8.28-1.62.47-2.41a.72.72,0,1,1,1.4.33c-.18.76-.33,1.53-.44,2.3a.86.86,0,0,1-.11.28.72.72,0,0,1-.72.32ZM38.78,55.6c-.61.48-1.21,1-1.78,1.52a.729.729,0,0,1-1-1.06c.6-.56,1.23-1.09,1.88-1.6a.73.73,0,0,1,1,.13.74.74,0,0,1,0,.84.91.91,0,0,1-.1.17Zm-9.57,12a.72.72,0,0,1-.4-.94c.29-.76.63-1.51,1-2.25a.73.73,0,0,1,1.3.65c-.35.69-.67,1.41-1,2.13a.54.54,0,0,1-.07.13.72.72,0,0,1-.83.27Zm5.2-7.7a18.961,18.961,0,0,0-1.4,1.87.72.72,0,0,1-1,.2.73.73,0,0,1-.2-1h0c.46-.67,1-1.34,1.47-2a.73.73,0,0,1,1-.11.75.75,0,0,1,.15,1Z" fill="#91b3fa"/>
            <path id="Trazado_117418" data-name="Trazado 117418" d="M28.15,78.44a.65.65,0,0,0,.11-.41V76.9a.72.72,0,1,0-1.44,0v1.18a.72.72,0,0,0,1.33.37Z" fill="#91b3fa"/>
          </g>
          <g id="Grupo_56883" data-name="Grupo 56883" opacity="0.3">
            <path id="Trazado_117419" data-name="Trazado 117419" d="M37.37,98.42a.71.71,0,0,0-.12-.92c-.27-.25-.55-.51-.82-.78a.72.72,0,1,0-1,1c.28.28.57.55.86.82a.73.73,0,0,0,1,0,.36.36,0,0,0,.08-.12Z" fill="#91b3fa"/>
            <path id="Trazado_117420" data-name="Trazado 117420" d="M79,94.1a.72.72,0,0,1-1.17-.84c.44-.62.87-1.26,1.27-1.93a.72.72,0,0,1,1.23.75c-.17.29-.35.57-.53.85S79.27,93.72,79,94.1ZM81.18,89a.72.72,0,0,1-.37-.95c.3-.7.58-1.43.82-2.15a.72.72,0,0,1,.91-.46.74.74,0,0,1,.46.92c-.26.76-.55,1.52-.87,2.26a.24.24,0,0,1-.06.11.72.72,0,0,1-.89.27Zm-4.7,8.16c-.55.59-1.14,1.15-1.74,1.68a.72.72,0,0,1-1-.06.73.73,0,0,1,.06-1,17.706,17.706,0,0,0,1.66-1.59.72.72,0,0,1,1.13.89.43.43,0,0,1-.11.04Zm6.66-14a.72.72,0,0,1-.57-.85c.14-.75.25-1.51.33-2.27a.72.72,0,1,1,1.43.14c-.08.8-.2,1.61-.34,2.4a.76.76,0,0,1-.11.26.73.73,0,0,1-.74.25ZM71.62,101.2c-.67.44-1.36.86-2.07,1.25a.72.72,0,1,1-.69-1.26c.67-.37,1.33-.77,2-1.19a.72.72,0,0,1,1,.2.71.71,0,0,1,0,.79A.7.7,0,0,1,71.62,101.2ZM66,104.11c-.75.28-1.52.54-2.29.77a.74.74,0,0,1-.9-.49.72.72,0,0,1,.5-.9c.73-.21,1.46-.46,2.18-.73a.72.72,0,0,1,.93.41.73.73,0,0,1-.07.66.76.76,0,0,1-.35.28Zm-6.13,1.61c-.8.12-1.61.2-2.41.25a.721.721,0,1,1-.09-1.44,15.884,15.884,0,0,0,2.28-.24.71.71,0,0,1,.82.61.72.72,0,0,1-.1.5.75.75,0,0,1-.52.32ZM53.5,106c-.8-.06-1.61-.15-2.4-.28a.72.72,0,1,1,.22-1.42c.76.12,1.53.21,2.29.26a.72.72,0,0,1,.67.77.63.63,0,0,1-.12.34.71.71,0,0,1-.66.33Zm-6.24-1.17c-.77-.23-1.54-.5-2.28-.8a.74.74,0,0,1-.41-.94.72.72,0,0,1,.94-.4c.71.29,1.44.54,2.17.76a.72.72,0,0,1,.48.9,1.08,1.08,0,0,1-.08.19.72.72,0,0,1-.82.24Zm-5.83-2.5c-.51-.29-1-.6-1.52-.93l-.53-.35a.7.7,0,0,1-.19-1,.71.71,0,0,1,1-.19l.51.33c.47.31.95.61,1.44.88a.73.73,0,0,1,.28,1h0a.72.72,0,0,1-.99.21Z" fill="#91b3fa"/>
            <path id="Trazado_117421" data-name="Trazado 117421" d="M84.34,76.58a.74.74,0,0,0,.12-.42,6.679,6.679,0,0,0-.07-1.18.722.722,0,0,0-1.44.11,5.968,5.968,0,0,0,.07,1.12.72.72,0,0,0,.74.7A.71.71,0,0,0,84.34,76.58Z" fill="#91b3fa"/>
          </g>
          <g id="Grupo_56884" data-name="Grupo 56884">
            <path id="Trazado_117422" data-name="Trazado 117422" d="M75.29,68.14a.33.33,0,0,0-.31-.23l-4.11-.09a18.09,18.09,0,0,0-3.74-4.42l.58-4.06a.33.33,0,0,0-.18-.35l-4.38-2.26a.34.34,0,0,0-.38.06l-3,2.84A17.92,17.92,0,0,0,54,59.15l-2.46-3.29a.36.36,0,0,0-.38-.12L46.5,57.25a.33.33,0,0,0-.23.31l-.09,4.11a17.51,17.51,0,0,0-4.42,3.74l-4.07-.59a.34.34,0,0,0-.34.18l-2.26,4.38a.35.35,0,0,0,.06.39l2.84,3a18,18,0,0,0-.48,5.78L34.22,81a.35.35,0,0,0-.12.37L35.6,86a.36.36,0,0,0,.32.24l4.1.09a18.13,18.13,0,0,0,3.75,4.42l-.59,4.06a.34.34,0,0,0,.18.35l4.38,2.25a.33.33,0,0,0,.39,0l3-2.84a18,18,0,0,0,5.78.48l2.46,3.28a.31.31,0,0,0,.37.12l4.69-1.5a.34.34,0,0,0,.24-.31l.09-4.11a17.87,17.87,0,0,0,4.42-3.74l4.06.58a.34.34,0,0,0,.35-.18L75.8,84.8a.33.33,0,0,0,0-.39l-2.84-3a17.63,17.63,0,0,0,.47-5.77l3.29-2.46a.32.32,0,0,0,.12-.37Z" fill="#fed2a8"/>
            <path id="Trazado_117423" data-name="Trazado 117423" d="M59.16,80.36a3.067,3.067,0,1,0-.01-.01Zm-7.5-3a3.84,3.84,0,1,0,.98-2.78,3,3,0,0,0-.34.45,3.77,3.77,0,0,0-.64,2.3Z" fill="#febc7c"/>
            <path id="Trazado_117424" data-name="Trazado 117424" d="M65.54,83.77a10.651,10.651,0,0,0,.63-1.09h0a3.777,3.777,0,0,0,.17-.35,12.19,12.19,0,0,0,.7-1.82h0V80.3A.27.27,0,0,0,67,80h-.08a.29.29,0,0,0-.35.21,12.87,12.87,0,0,1-.89,2.3,11.6,11.6,0,0,1-15.62,5,9.549,9.549,0,0,1-1-.6,11.579,11.579,0,0,1,11.62-20,9.744,9.744,0,0,1,1,.59A11.52,11.52,0,0,1,65.19,71a.38.38,0,0,0,.09.09.29.29,0,0,0,.31,0,.28.28,0,0,0,.09-.4A12.1,12.1,0,0,0,62,66.91c-.34-.22-.7-.43-1.06-.62a12.18,12.18,0,0,0-12.23,21q.53.33,1.08.63a12.18,12.18,0,0,0,15.77-4.17Z" fill="#febc7c"/>
          </g>
        </g>
        <g id="Grupo_56889" data-name="Grupo 56889">
          <g id="Grupo_56886" data-name="Grupo 56886" opacity="0.3">
            <path id="Trazado_117425" data-name="Trazado 117425" d="M103.34,45.47a.44.44,0,0,0,0-.53c-.24-.29-.5-.57-.77-.85a.45.45,0,0,0-.64.62c.26.26.5.53.74.81a.45.45,0,0,0,.63,0Z" fill="#91b3fa"/>
            <path id="Trazado_117426" data-name="Trazado 117426" d="M100.85,43.12a.46.46,0,0,1-.63.07,18.2,18.2,0,0,0-1.51-1.1l-.34-.21a.46.46,0,0,1-.14-.62.47.47,0,0,1,.62-.14l.34.22c.55.36,1.08.74,1.59,1.15a.45.45,0,0,1,.1.59ZM96.38,40.8a19.2,19.2,0,0,0-2.11-.8.45.45,0,0,1-.29-.56.46.46,0,0,1,.57-.29,19.8,19.8,0,0,1,2.21.86.45.45,0,0,1,.21.6h0a.43.43,0,0,1-.59.19Zm-4.3-1.37a17.08,17.08,0,0,0-2.25-.28.46.46,0,0,1-.42-.48.45.45,0,0,1,.48-.41,17,17,0,0,1,2.35.29.45.45,0,0,1,.36.52.33.33,0,0,1-.07.16.44.44,0,0,1-.45.2Zm-4.51-.28a17.081,17.081,0,0,0-2.25.28.46.46,0,0,1-.52-.36.44.44,0,0,1,.36-.52,18.4,18.4,0,0,1,2.35-.29.43.43,0,0,1,.47.41.41.41,0,0,1-.07.27.43.43,0,0,1-.34.21ZM83.12,40a20.82,20.82,0,0,0-2.11.81.44.44,0,0,1-.59-.22.45.45,0,0,1,.22-.59,19.741,19.741,0,0,1,2.21-.85.492.492,0,0,1,.56.67A.45.45,0,0,1,83.12,40ZM79,41.86a19.93,19.93,0,0,0-1.85,1.31.45.45,0,0,1-.56-.7,21.867,21.867,0,0,1,1.94-1.37.45.45,0,0,1,.61.63A.44.44,0,0,1,79,41.86Zm-3.5,2.83A18.529,18.529,0,0,0,74,46.41a.45.45,0,0,1-.63.09.46.46,0,0,1-.08-.63,18.76,18.76,0,0,1,1.54-1.8.441.441,0,1,1,.69.55.18.18,0,0,1-.02.07Zm-4.31,5.87A.43.43,0,0,1,71,50c.27-.63.57-1.25.9-1.85l.16-.28a.446.446,0,0,1,.77.45l-.15.26a19.26,19.26,0,0,0-.86,1.77.25.25,0,0,1,0,.07.44.44,0,0,1-.63.14Z" fill="#91b3fa"/>
          </g>
          <g id="Grupo_56887" data-name="Grupo 56887" opacity="0.3">
            <path id="Trazado_117427" data-name="Trazado 117427" d="M104.68,68.19a17.139,17.139,0,0,1-1.41,1.86.44.44,0,0,1-.63,0,.45.45,0,0,1,0-.63,19.118,19.118,0,0,0,1.34-1.77.44.44,0,0,1,.62-.12.45.45,0,0,1,.13.61Zm.58-1.82a.44.44,0,0,1-.19-.59,19.45,19.45,0,0,0,.88-2.05.45.45,0,0,1,.58-.26.44.44,0,0,1,.26.57,18.449,18.449,0,0,1-.93,2.14h0a.44.44,0,0,1-.6.19Zm-3.62,5.36a18.461,18.461,0,0,1-1.82,1.46.45.45,0,1,1-.51-.73,19.259,19.259,0,0,0,1.74-1.39.43.43,0,0,1,.62,0,.44.44,0,0,1,0,.54Zm5.28-9.6a.43.43,0,0,1-.33-.53,18.329,18.329,0,0,0,.36-2.2.46.46,0,0,1,.49-.4.45.45,0,0,1,.4.49,20.22,20.22,0,0,1-.38,2.31.61.61,0,0,1-.07.14A.44.44,0,0,1,106.92,62.13ZM97.84,74.42a17.731,17.731,0,0,1-2.12,1,.44.44,0,0,1-.57-.25.45.45,0,0,1,.25-.58,16.822,16.822,0,0,0,2-.94.44.44,0,0,1,.6.19.43.43,0,0,1,0,.45.46.46,0,0,1-.16.13Zm-4.34,1.7a17.82,17.82,0,0,1-2.29.45.448.448,0,1,1-.11-.89,18.221,18.221,0,0,0,2.18-.42.44.44,0,0,1,.54.32.43.43,0,0,1,0,.35.45.45,0,0,1-.32.19Zm-4.62.61a20.19,20.19,0,0,1-2.33-.11.45.45,0,0,1,.1-.89,18.24,18.24,0,0,0,2.22.11.45.45,0,0,1,.45.44.41.41,0,0,1-.07.25A.44.44,0,0,1,88.88,76.73Z" fill="#91b3fa"/>
            <path id="Trazado_117428" data-name="Trazado 117428" d="M107.87,57.39a.43.43,0,0,0,.07-.25c0-.38,0-.77,0-1.14a.45.45,0,0,0-.48-.41.44.44,0,0,0-.41.48v1.08a.45.45,0,0,0,.82.24Z" fill="#91b3fa"/>
          </g>
          <g id="Grupo_56888" data-name="Grupo 56888">
            <path id="Trazado_117429" data-name="Trazado 117429" d="M101.83,51.42a.22.22,0,0,0-.21-.15l-2.74-.06a11.79,11.79,0,0,0-2.51-3l.39-2.72a.2.2,0,0,0-.12-.23l-2.93-1.51a.23.23,0,0,0-.26,0l-2,1.9a12.09,12.09,0,0,0-3.87-.32L86,43.2a.26.26,0,0,0-.25-.08l-3.14,1a.24.24,0,0,0-.16.21l-.06,2.75a12.15,12.15,0,0,0-3,2.5l-2.71-.39a.24.24,0,0,0-.24.12l-1.51,2.93a.25.25,0,0,0,0,.26l1.9,2a12.11,12.11,0,0,0-.32,3.87L74.35,60a.22.22,0,0,0-.08.25l1,3.14a.23.23,0,0,0,.21.16l2.74.06a12,12,0,0,0,2.51,3l-.39,2.72a.21.21,0,0,0,.12.23L83.4,71a.23.23,0,0,0,.26,0l2-1.9a12.09,12.09,0,0,0,3.87.32l1.64,2.2a.22.22,0,0,0,.25.08l3.14-1a.25.25,0,0,0,.16-.21l.06-2.75a12,12,0,0,0,3-2.51l2.71.39a.22.22,0,0,0,.24-.12l1.51-2.93a.23.23,0,0,0,0-.25l-1.9-2a12,12,0,0,0,.32-3.86l2.2-1.65a.22.22,0,0,0,.08-.25Z" fill="#fed2a8"/>
            <path id="Trazado_117430" data-name="Trazado 117430" d="M91.08,59.64a3.31,3.31,0,0,1-2.31,1.13,3.364,3.364,0,1,1,2.61-1.53A2.87,2.87,0,0,1,91.08,59.64Zm-4.17-.37a2.43,2.43,0,0,0,1.8.61,2.46,2.46,0,0,0,1.71-.83h0a2.52,2.52,0,0,0,.61-1.8,2.48,2.48,0,0,0-4.34-1.48,3.149,3.149,0,0,0-.22.29,2.5,2.5,0,0,0,.44,3.21Z" fill="#febc7c"/>
            <path id="Trazado_117431" data-name="Trazado 117431" d="M95.53,62c.15-.24.29-.49.42-.74a7.83,7.83,0,0,0,.63-1.6v-.07a.45.45,0,0,0-.19-.49l-.13-.06a.45.45,0,0,0-.54.32,7.54,7.54,0,0,1-.58,1.49h0a.589.589,0,0,0,0,.08,7.42,7.42,0,0,1-4.28,3.61H90.8a7.46,7.46,0,0,1-5.73-.47c-.23-.12-.45-.25-.67-.39a7.477,7.477,0,0,1,1.8-13.4,7.44,7.44,0,0,1,5.72.48,7.079,7.079,0,0,1,.66.38,7.46,7.46,0,0,1,2.28,2.33.47.47,0,0,0,.14.14.44.44,0,0,0,.48,0,.45.45,0,0,0,.14-.61,8.36,8.36,0,0,0-2.55-2.61c-.24-.15-.49-.29-.74-.42a8.4,8.4,0,0,0-8.43,14.5c.24.15.49.3.74.43A8.42,8.42,0,0,0,95.53,62Z" fill="#febc7c"/>
          </g>
        </g>
      </g>
      <g id="Grupo_56891" data-name="Grupo 56891">
        <path id="Trazado_117432" data-name="Trazado 117432" d="M193.63,92.27l-12.96,13.26,15.55-4.15Z" fill="#fda551"/>
        <path id="Trazado_117433" data-name="Trazado 117433" d="M270.78,97.76l-73.67,3.57A3.31,3.31,0,0,1,193.63,98V67.72a6.1,6.1,0,0,1,5.91-6.1l66.39-2a9,9,0,0,1,9,8.95V93.44a4.32,4.32,0,0,1-4.15,4.32Z" fill="#fda551"/>
        <path id="Trazado_117434" data-name="Trazado 117434" d="M199.31,100.12a4.56,4.56,0,0,1-4.55-4.56V68.25a6,6,0,0,1,5.88-5.92l64.28-1.94A8.73,8.73,0,0,1,273.76,69V92.56a4.29,4.29,0,0,1-4.14,4.23l-70.09,3.32Zm65.62-39.41-64.28,1.94a5.64,5.64,0,0,0-5.57,5.6V95.56a4.22,4.22,0,0,0,4.44,4.23l70.09-3.32a4,4,0,0,0,3.83-3.91V69a8.42,8.42,0,0,0-8.51-8.29Z" fill="#fff" opacity="0.85"/>
        <path id="Trazado_117435" data-name="Trazado 117435" d="M264.71,66.23l-58.9,2.21a1,1,0,0,0-1,.85v.52a.94.94,0,0,0,1.07.76l58.91-2.15a1,1,0,0,0,1-.85V67a.94.94,0,0,0-1.08-.77Z" fill="url(#linear-gradient-3)"/>
        <path id="Trazado_117436" data-name="Trazado 117436" d="M259.44,81.15l-58.9,2.19a1,1,0,0,0-1,.88v.54a1,1,0,0,0,1.07.79l58.91-2.14a1,1,0,0,0,1-.88v-.59A1,1,0,0,0,259.44,81.15Z" fill="url(#linear-gradient-4)"/>
        <path id="Trazado_117437" data-name="Trazado 117437" d="M266.32,87.38l-65.66,2.48c-.65,0-1.16.43-1.14.9v.54c0,.47.55.82,1.18.8l65.67-2.42c.65,0,1.16-.43,1.14-.9v-.6C267.49,87.72,267,87.36,266.32,87.38Z" fill="url(#linear-gradient-5)"/>
        <path id="Trazado_117438" data-name="Trazado 117438" d="M232.42,75l-32.11,1c-.32,0-.55.44-.52,1v.61c0,.51.3.92.61.92l32.11-.88c.32,0,.56-.44.53-1v-.67C233,75.43,232.73,75,232.42,75Z" fill="url(#linear-gradient-6)"/>
        <path id="Trazado_117439" data-name="Trazado 117439" d="M267.79,73.92l-30.34.87c-.3,0-.52.44-.5,1v.6c0,.52.29.93.58.92l30.35-.81c.3,0,.52-.44.5-1v-.67C268.35,74.32,268.09,73.91,267.79,73.92Z" fill="url(#linear-gradient-7)"/>
      </g>
      <g id="Grupo_56896" data-name="Grupo 56896">
        <path id="Trazado_117440" data-name="Trazado 117440" d="M81.77,264.92s-.6,3.44-.9,6.84a2.34,2.34,0,0,0,2.24,2.54c4.53.19,14.23.56,17.71.4a.76.76,0,0,0,.67-1h0a1.72,1.72,0,0,0-.88-.92l-16-7.36Z" fill="url(#linear-gradient-8)"/>
        <path id="Trazado_117441" data-name="Trazado 117441" d="M81.28,262.9l.49,4.11s2.8,1.31,4.72-.16l-1.17-4.58Z" fill="url(#linear-gradient-9)"/>
        <path id="Trazado_117442" data-name="Trazado 117442" d="M81.64,185.6c-.21,1.07-1.13,53.58,4.49,77.11a.81.81,0,0,1-.47.93,14,14,0,0,1-4.57.93,1.38,1.38,0,0,1-1.37-1c-1.6-5.46-9.29-32.81-10.29-58.94-1.13-29.2,0-1,0-1l.65-18Z" fill="url(#linear-gradient-10)"/>
        <path id="Trazado_117443" data-name="Trazado 117443" d="M63.36,266.71a24.79,24.79,0,0,0-1.91,6.35,1.43,1.43,0,0,0,1.26,1.71c1.5.15,3.8.34,5.65.33a1.43,1.43,0,0,0,1.41-1.59,12,12,0,0,0-2.81-6.6Z" fill="url(#linear-gradient-11)"/>
        <path id="Trazado_117444" data-name="Trazado 117444" d="M62.51,261.43l1.14,6.21a4,4,0,0,0,3.35.23l-.54-6.69Z" fill="url(#linear-gradient-12)"/>
        <path id="Trazado_117445" data-name="Trazado 117445" d="M59.43,187.21c-4.59,27.7,1,68.47,2.88,76.45a1.24,1.24,0,0,0,1,.95,8.44,8.44,0,0,0,3.59-.14,1.15,1.15,0,0,0,.82-1.05c.26-6.46-.2-46.06,4.08-61.71a3.47,3.47,0,0,1,1.37-2l8.3-5.91.64-9.54Z" fill="url(#linear-gradient-13)"/>
        <g id="Grupo_56892" data-name="Grupo 56892">
          <path id="Trazado_117446" data-name="Trazado 117446" d="M88.68,134.71c-13.76-.22-28.94,3.62-28.94,3.62-4.1,23.92-.71,51.52-.71,51.52,10.65,2.8,22.66-1.7,22.66-1.7,1.77-10,10-38.15,10-38.15a45.51,45.51,0,0,0,16.82-5.34,29.41,29.41,0,0,1-5.83-12.2,46,46,0,0,1-14,2.25Z" fill="url(#linear-gradient-14)"/>
          <path id="Trazado_117447" data-name="Trazado 117447" d="M129.32,114.45a2.65,2.65,0,0,0-3.07-.86c-2,8.55-12.64,15.49-23.54,18.87a29.41,29.41,0,0,0,5.83,12.2C126.64,134.48,129.32,114.45,129.32,114.45Z" fill="url(#linear-gradient-15)"/>
        </g>
        <g id="Grupo_56893" data-name="Grupo 56893">
          <path id="Trazado_117448" data-name="Trazado 117448" d="M129,114.87c.14.44-1.5,1.13-2.46-.71,0-.88-.57-4.66,0-5.37a70.182,70.182,0,0,1,8.25-8.62,1.31,1.31,0,0,1,.16,1.8l-2.64,2.75a12.759,12.759,0,0,1,1.54,3,3.7,3.7,0,0,1-.37,2.72,32.183,32.183,0,0,1-1.69,2.77,3.68,3.68,0,0,1-2.79,1.66Z" fill="url(#linear-gradient-16)"/>
          <path id="Trazado_117449" data-name="Trazado 117449" d="M131.1,106.5l-2.41,2-.75,2,2.14,2.38a27.271,27.271,0,0,1,1.26-4.89C131.87,107.17,131.6,106.75,131.1,106.5Z" fill="url(#linear-gradient-17)"/>
        </g>
        <path id="Trazado_117450" data-name="Trazado 117450" d="M65,151.65l-5.28-13.32s-12.85,8.73-15,19.8a30.45,30.45,0,0,1,11.17,3C56.9,155.89,65,151.65,65,151.65Z" fill="url(#linear-gradient-18)"/>
        <path id="Trazado_117451" data-name="Trazado 117451" d="M76.25,164.18s-14.43,8.16-19.3,1.19a5.46,5.46,0,0,1-1-4.25,30.45,30.45,0,0,0-11.17-3,15.27,15.27,0,0,0,1.66,10.47c8.53,15.6,31.72-.86,31.72-.86Z" fill="url(#linear-gradient-19)"/>
        <g id="Grupo_56894" data-name="Grupo 56894">
          <path id="Trazado_117452" data-name="Trazado 117452" d="M74.52,174.5,82.39,147a.8.8,0,0,1,.68-.58c1.42-.16,5.56-.63,10.33-1,5.75-.48,12.43-.88,16.42-.54a.8.8,0,0,1,.65,1.16c-2.27,4.59-11.6,23.26-16.27,29.37a.77.77,0,0,1-.65.32l-18.27-.17a.79.79,0,0,1-.76-1.06Z" fill="#91b3fa"/>
          <path id="Trazado_117453" data-name="Trazado 117453" d="M94.22,143l5.71-.95a.41.41,0,0,1,.45.53l-.56,1.71a.41.41,0,0,1-.34.28l-5.49.74a.41.41,0,0,1-.45-.5l.35-1.5a.39.39,0,0,1,.33-.31Z" fill="#bdd0fb"/>
          <path id="Trazado_117454" data-name="Trazado 117454" d="M89.94,147.83l.47-2.45a.56.56,0,0,1,.5-.45l11.53-1.17a.56.56,0,0,1,.61.69l-.73,3.06a.57.57,0,0,1-.53.43l-11.26.57a.58.58,0,0,1-.59-.68Z" fill="#bdd0fb"/>
          <path id="Trazado_117455" data-name="Trazado 117455" d="M76.42,167.85s-1.1-4.51-.66-6.11,1.3-3.65,4.16-3.2a42.211,42.211,0,0,1,6.23,1.66,1.64,1.64,0,0,1-2.34,1.42l1.34,1s-.19,1.67-2,.78l1.25,1.38a1.46,1.46,0,0,1-2.14.49C80.89,164.43,80.24,168.4,76.42,167.85Z" fill="url(#linear-gradient-20)"/>
        </g>
        <path id="Trazado_117456" data-name="Trazado 117456" d="M74.74,123.55,70.37,136.2a.45.45,0,0,0,.2.55A10.31,10.31,0,0,0,81.25,136a2.19,2.19,0,0,0,1-1.54l1.41-11Z" fill="url(#linear-gradient-21)"/>
        <g id="Grupo_56895" data-name="Grupo 56895">
          <path id="Trazado_117457" data-name="Trazado 117457" d="M84.27,111.82s4.81,9.05,4.19,12.71-6.57,3.39-11.78.42l-3.63-9.77Z" fill="url(#linear-gradient-22)"/>
          <path id="Trazado_117458" data-name="Trazado 117458" d="M76.91,120.15a.37.37,0,0,0,.17-.54,9.64,9.64,0,0,1-1.34-2.84s-.86-.56,2.2-1.29,7.63-1.87,8.59-4.48-1.52-8.93-5.45-3.84a.37.37,0,0,1-.59,0c-.64-.83-2.33-2.57-4.68-1.52a3.54,3.54,0,0,0-2.42,3.41.37.37,0,0,1-.44.38,4.31,4.31,0,0,0-5,2.34c-1,2.25-.36,3.53.25,4.15a.37.37,0,0,1-.16.62,2.24,2.24,0,0,0-1.58,2.55c.13,2.37,2.78,2.16,3.53,2a.37.37,0,0,1,.33.12c.65.71,3.56,3.75,6.7,4.11a.37.37,0,0,0,.4-.49l-1.36-4a.37.37,0,0,1,.2-.47Z" fill="url(#linear-gradient-23)"/>
          <path id="Trazado_117459" data-name="Trazado 117459" d="M77.46,120.71s-3.42-2.34-3.67-.37,3.08,2.87,4.73,2.13Z" fill="url(#linear-gradient-24)"/>
        </g>
      </g>
    </g>
  </g>
</svg>
