<svg xmlns="http://www.w3.org/2000/svg" xmlns:xlink="http://www.w3.org/1999/xlink" width="368.706" height="202.866" viewBox="0 0 368.706 202.866">
  <defs>
    <clipPath id="clip-path">
      <rect id="Rectángulo_3445" data-name="Rectángulo 3445" width="368.706" height="202.866" fill="none"/>
    </clipPath>
    <clipPath id="clip-path-2">
      <path id="Trazado_32855" data-name="Trazado 32855" d="M4.135,130.539c-.416,1,11.25,5.334,33.667,4.917s35.917-3.917,35.25-4.917-12.333-5.083-33.75-5.25c-.4,0-.787-.005-1.178-.005-20.726,0-33.58,4.273-33.989,5.255" fill="none"/>
    </clipPath>
  </defs>
  <g id="Grupo_18891" data-name="Grupo 18891" transform="translate(-1072 -7960)">
    <g id="Grupo_12388" data-name="Grupo 12388" transform="translate(1072 7960)">
      <g id="Grupo_12383" data-name="Grupo 12383">
        <g id="Grupo_12382" data-name="Grupo 12382" clip-path="url(#clip-path)">
          <path id="Trazado_32801" data-name="Trazado 32801" d="M205.253,84.453s.743-3.6,3.542-5.227,5.449-2.636,6.155-1.162-2.106,4.849-2.106,4.849-1.871,2.288-2.686,2.363a38.995,38.995,0,0,1-4.9-.823" fill="#36312f"/>
          <path id="Trazado_32802" data-name="Trazado 32802" d="M164.838,69.4s9.81,13.5,11.476,14.515,15.953.917,15.953.917l1.646,14.49s-21.8,2.523-25.8,1.637-15.193-16.741-15.193-16.741Z" fill="#ff8426"/>
          <path id="Trazado_32803" data-name="Trazado 32803" d="M187.8,100.689c-1.441-1.324-.078-17.2.72-17.49s15.109,1.678,16.73,1.255,11.67-4.109,15.3-3.581,7.591,4.291,6.261,8.717-7.561,5.574-12.05,6.531c-2.039.435-5.143.216-5.884.5s-19.633,5.39-21.073,4.066" fill="#36312f"/>
          <path id="Trazado_32804" data-name="Trazado 32804" d="M363.465,166.855c-9.262-4.937-18.953-6.219-29.308-6.412l-9.156-.17c-4.748-.088-9.5-.176-14.243-.34-4.509-.157-9.019-.382-13.511-.8-3.359-.315-6.71-.739-10.077-.958-5.528-.359-11.074-.162-16.613-.079-7.372.112-14.746.024-22.119-.063-6.1-.073-12.2-.146-18.291-.269-14.642-.3-30.952-3.083-45.383-.113a11.143,11.143,0,0,0-6.264,3.4c-2.8.155-5.6.261-8.4.226-2.771-.035-5.491.731-8.237.98-3.243.293-5.2-.649-8.285-1.382a15.249,15.249,0,0,0-4.737-.12c-8.363.669-16.83,2.137-25.21,2.3-2.37.04-4.71.25-7.07.321-2.89.079-5.63-.791-8.491-.851-3.24-.08-8.54,1.46-10.729,4.04-1.91,2.27-.32,6.28,1.729,7.88,1.56,1.22,3.45,1.16,5.332,1.361,6.474.688,12.33,7.465,18.3,10.012,7.674,3.273,16.4,2.278,24.459,3.749,5.983,1.093,11.632,3.5,17.456,5.249,8.012,2.4,15.1.7,23.08,1.6,6.891.779,13.687,2.241,20.593,2.906,15.46,1.489,31.076-1.054,46.562.148,8.754.679,17.383,2.551,26.137,3.239,17.417,1.372,32.7-6.709,49.445-10.146,5.437-1.116,11.028-1.243,16.508-2.124,7.3-1.171,19.371-5.7,21.445-13.935,1.149-4.529-.99-7.548-4.931-9.65" fill="#662910"/>
          <path id="Trazado_32805" data-name="Trazado 32805" d="M96.488,156.935S78.333,156.291,77.3,157s-2.268,2.495-2.9,5.641a113.217,113.217,0,0,0-1.9,14.014c-.228,3.18-1,6.355-.657,9.562.631,5.976,9.063,4.116,11.153.237,2.26-4.2,2.958-9.3,5.369-13.415.142-.244,7.51-.95,7.51-.95Z" fill="#36312f"/>
          <path id="Trazado_32806" data-name="Trazado 32806" d="M189.719,150.414s3.216,7.194-.413,13.914c-4.254,7.878-24.962,5.961-24.962,5.961s2.375-14.125,2.375-14.5,23-5.375,23-5.375" fill="#f57f25"/>
          <path id="Trazado_32807" data-name="Trazado 32807" d="M89.219,132.039s-2.875,11.375,1.75,16.75,12.8,7.375,12.8,7.375-8.8-.5-9.3.625-.329,16,1.585,16.25,21.415,1.375,28.415,2,37.5,1.625,42.5-4.875a16.3,16.3,0,0,0,3.009-13.5s-44.509-29.25-46.009-29.875-34.75,5.25-34.75,5.25" fill="#ffa058"/>
          <path id="Trazado_32808" data-name="Trazado 32808" d="M169.969,74.789c-.131,1.13-14.911,13.394-16,13.773-.39.13-2.17-1.77-4.319-4.28-2.54-2.95-3.61-8.913-5.509-11.313-1.1-1.39-1.811-2.31-1.811-2.31l1.8-10.19,2.4-13.55a.18.18,0,0,0,.07.02c.029.01.059.03.09.04.269.09.88.31,1.67.65a29.416,29.416,0,0,1,3.53,1.72,16.4,16.4,0,0,1,4.05,3.07c3.03,3.37,10.16,16.24,11.53,18.37s2.63,2.87,2.5,4" fill="#d9c08d"/>
          <path id="Trazado_32809" data-name="Trazado 32809" d="M163.642,7.677c-.174-.241-.12-1.107-.2-1.434a6.253,6.253,0,0,0-.636-1.654,3.339,3.339,0,0,0-2.362-1.6,9.316,9.316,0,0,0-2.61.028c-.5.054-1.533.4-1.953.02-.663-.608-.72-1.606-1.415-2.22a3.663,3.663,0,0,0-2.6-.819A4.609,4.609,0,0,0,150.4.292c-.429.159-.839.685-1.271.769-1.181.229-2.753-.379-4.017-.355a11.33,11.33,0,0,0-4.292.711c-1.014.452-1.748,1.4-2.826,1.724-1.677.509-3.149.13-4.014,2.026a7.257,7.257,0,0,0-1.36.291c-1.676.5-3.123,1.495-3.16,3.429-.02,1.09.48,2.021.2,3.051-.472,1.733-1.346,3.436-.2,5.136a2.5,2.5,0,0,1,.522.953,3.262,3.262,0,0,1-.013.609c-.044,1.309,1.008,2.468,1.275,3.725.333,1.562.4,3.176.753,4.737.381,1.673,1.359,3.142,1.828,4.788.323,1.138-.38,3.395.952,4.061a.224.224,0,0,0,.31-.13,7.772,7.772,0,0,0,.06-3.37,9.093,9.093,0,0,1,1.4-.53,2.127,2.127,0,0,0,1.111-.45,11.757,11.757,0,0,0,3.219-4.449c.81-2.011.8-3.33,2.94-4.36.83-.4,1.69-.741,2.53-1.131,1.85-.83,3.65-1.7,4.82-3.429.991-1.481.89-2.461,3.02-2.791.84-.13,1.71-.179,2.56-.3a25.481,25.481,0,0,0,5.05-.83c1.8-.67,3.14-4.7,1.84-6.5" fill="#662910"/>
          <path id="Trazado_32810" data-name="Trazado 32810" d="M158.752,14.128s-.21,3.33-.62,7.56c-.021.24-.05.48-.07.73-.02.28-.05.57-.081.86-.019.21-.04.41-.059.62a111.143,111.143,0,0,1-1.79,12.44c-1.2,5.08-4.58,6.53-7.86,6.46-2.791-.06-7.69-2.68-9.02-4.31s-3.5-8.48-3.5-8.48-.45-11.04-.37-11.28,3.25-4.63,5.09-5.52,8.03-3.16,8.03-3.16Z" fill="#ff8426"/>
          <path id="Trazado_32811" data-name="Trazado 32811" d="M136.615,23.79s-3.38-2.053-5.191.442.831,6.6,2.837,7.233a30,30,0,0,0,5.215.9Z" fill="#ff8426"/>
          <path id="Trazado_32812" data-name="Trazado 32812" d="M146.925,42.174l-.849,1.811-1.668,3.6-2.837,6.086-4.631,4.594-5.717-.968-3.824-8.85,7.917-17.875Z" fill="#ff8426"/>
          <path id="Trazado_32813" data-name="Trazado 32813" d="M146.74,42.571l-1.661,3.6a16.72,16.72,0,0,1-3.737-1.387c-3.841-2-3.645-4.861-3.153-5.171s1.849-.2,3.757,1.152a13.161,13.161,0,0,0,4.794,1.811" fill="#e66617"/>
          <path id="Trazado_32814" data-name="Trazado 32814" d="M146.065,24.576a.512.512,0,0,0-.617-.256,1.523,1.523,0,0,0-.839,1.424.625.625,0,0,0,1.042.207,1.469,1.469,0,0,0,.43-1.34.371.371,0,0,0-.016-.035" fill="#36312f"/>
          <path id="Trazado_32815" data-name="Trazado 32815" d="M156.624,25.7c-.039-.178-.121-.395-.329-.422-.637-.084-1.174.866-1.053,1.414a.575.575,0,0,0,.945.247,1.418,1.418,0,0,0,.437-1.239" fill="#36312f"/>
          <path id="Trazado_32816" data-name="Trazado 32816" d="M152.414,29.214a3.983,3.983,0,0,1-.766-1.63c-.15-.662.057-1.389-.115-2.019s-.529.209-.63.5a6.483,6.483,0,0,0-.279,2.824,3.362,3.362,0,0,0,1.281,2.4c.52.361,1.52.872,1.935.1.464-.869-.739-1.453-1.228-1.947-.069-.071-.136-.144-.2-.22" fill="#e66617"/>
          <path id="Trazado_32817" data-name="Trazado 32817" d="M152.966,33.538a.658.658,0,0,0-.178-.193.548.548,0,0,0-.413-.081,2.24,2.24,0,0,0-.82.4,1.862,1.862,0,0,1-.96.342,2.631,2.631,0,0,1-1.3-.257,2.348,2.348,0,0,1-.933-.979.824.824,0,0,0-.451-.357c-.9-.239-.856,1.406-.684,1.879.688,1.895,3.295,2.151,4.742,1.222.447-.288,1.364-1.351,1-1.973" fill="#fff"/>
          <path id="Trazado_32818" data-name="Trazado 32818" d="M147.743,21.46a2.547,2.547,0,0,0-2.835-.9c-.448.086-3.051.745-2.44,1.526.439.563,1.445.244,2.074.21.493-.027,3.9.387,3.2-.84" fill="#662910"/>
          <path id="Trazado_32819" data-name="Trazado 32819" d="M158.132,21.688c-.021.24-.05.48-.07.73-.02.28-.05.57-.08.86a.688.688,0,0,0-.13-.02c-.5-.04-3.91.26-3.18-.94a2.542,2.542,0,0,1,2.859-.8,5.232,5.232,0,0,1,.6.17" fill="#662910"/>
          <path id="Trazado_32820" data-name="Trazado 32820" d="M162.832,10.738c-.091-.24-.69-1.69-.74-1.69a.729.729,0,0,0-.96-.64c-2.09-1.65-5.42-1.39-7.9-1.58-3.929-.32-7.92-.54-11.089,2.03-2.6,2.1-6.17,4.49-7.77,7.49-.811,1.52-.21,3.3.17,4.87-.19.71.7,2.89,1.37,3.07a.3.3,0,0,0,.289-.07,5.863,5.863,0,0,0,1.261-2.97,5.456,5.456,0,0,1,.75-2.77c.66-.83,1.62-1.06,2.21-2.02.13-.22.38-1.01.51-1.2.95-1.39.83-.81,1.969-1a6.558,6.558,0,0,0,2.37-.51c.821-.42,2.141-2.08,2.991-2.21,1.16-.19,1.12,1.04,1.87,1.59,1.069.8,2.22.14,3.41.36a4.87,4.87,0,0,1,1.83.85c1.46.94,2.449,1.6,4.26,1.59,1.84-.01,3.34-.87,3.609-2.81a4.215,4.215,0,0,0-.409-2.38" fill="#662910"/>
          <path id="Trazado_32821" data-name="Trazado 32821" d="M152.179,55.109c-.53,5.16-4.98,12.99-8.04,17.86-1.66,2.64-2.91,4.4-2.91,4.4l-12.08,42.13-17.22-.92-18-.96s4.25-27.37,5.12-36.12,4.05-21.6,7.13-28a22.068,22.068,0,0,1,19.479-11.62,19,19,0,0,1,3.311.35,17.04,17.04,0,0,1,1.68.39c6.79,1.91,12.11,2.6,15.88,4.3a.18.18,0,0,0,.07.02,14.873,14.873,0,0,1,1.769.98,9.18,9.18,0,0,1,3.47,4.08,3.211,3.211,0,0,1,.221.69,6.828,6.828,0,0,1,.12,2.42" fill="#f2e2c2"/>
          <path id="Trazado_32822" data-name="Trazado 32822" d="M93.927,117.623s-9.083,13.791-8.958,15.666,4.5,3,11.625,3.5,9.25-1.875,15-2.25,3.75.25,10.5-.625,11.125-3.125,11.375-3.5-4.32-10.916-4.32-10.916-15.18-9.459-16.805-9.459-18.417,7.584-18.417,7.584" fill="#f2e2c2"/>
          <path id="Trazado_32823" data-name="Trazado 32823" d="M152.229,79.039c-.1.741-.311,1.8-.61,3.1-2.48,10.97-10.9,39.15-10.9,39.15H112.1s-.15-1.43-.17-2.71a5.45,5.45,0,0,1,.17-1.79c.37-.87,15.62-55.31,15.62-55.31a65.459,65.459,0,0,0-.32-9.82c-1.15-6.96-1.7-9.58-1.74-9.78a19,19,0,0,1,3.31.35,39.1,39.1,0,0,1,1.19,4.31,94.534,94.534,0,0,1,1.62,12.69s7.349.85,12.349,1.24c2.54.2,4.471.28,4.531.07.15-.51-.17-9.57-.29-12.62a2.62,2.62,0,0,0-.01-.29,29.416,29.416,0,0,1,3.53,1.72c.04.74.1,1.9.17,3.34.04.74.08,1.55.12,2.42.33,7.53,1.456,13.263.05,23.93" fill="#36312f"/>
          <path id="Trazado_32824" data-name="Trazado 32824" d="M114.219,115.456a44.656,44.656,0,0,1-10.656,1.3,34.772,34.772,0,0,1-9.3-1.3l-.935,3.085a27.31,27.31,0,0,0,9.611,1.873,63.78,63.78,0,0,0,10.572-.915Z" fill="#36312f"/>
          <path id="Trazado_32825" data-name="Trazado 32825" d="M111.927,119.75s-1.208,3.039,1.042,7.414,37.4,24.875,39.949,27,6.551,9.25,10.926,8.25,8.75-4.875,14.5-6.25,13.75-3.625,14.125-4.625-4.5-11.25-18.375-16.375-26.5-10.682-28.25-11.716-4.865-3.032-4.865-3.032-11.26-1.252-12.635-1.252-16.417.586-16.417.586" fill="#36312f"/>
          <path id="Trazado_32826" data-name="Trazado 32826" d="M.094,130.914c-1.125,2.875,8.162,29.13,12.991,33.966,2.75,2.753,47.509,2.439,52.384-1.091,3.37-2.44,13.375-30.7,11.375-33.875s-13-6.465-41-6.465c-19.878,0-34.625,4.59-35.75,7.465" fill="#ffddae"/>
          <path id="Trazado_32827" data-name="Trazado 32827" d="M230.125,137.544c-.48-1.428-1.91-1.338-3.042-.83a1.365,1.365,0,0,1-.634.168c-.58-.037-1.1-.525-1.72-.587a2.261,2.261,0,0,0-2.263,1.667,4.448,4.448,0,0,0,.767,3.51,4.535,4.535,0,0,0,5.35.9c1.719-.843,2.11-3.143,1.542-4.832" fill="#c93d2e"/>
          <path id="Trazado_32828" data-name="Trazado 32828" d="M194.925,110.707c-.48-1.427-1.91-1.338-3.042-.83a1.366,1.366,0,0,1-.634.169c-.58-.038-1.095-.525-1.72-.588a2.263,2.263,0,0,0-2.263,1.668,4.449,4.449,0,0,0,.767,3.51,4.537,4.537,0,0,0,5.351.9c1.719-.842,2.109-3.143,1.541-4.832" fill="#c93d2e"/>
          <path id="Trazado_32829" data-name="Trazado 32829" d="M205.376,86.874c-.48-1.427-1.91-1.338-3.042-.83a1.365,1.365,0,0,1-.634.168c-.58-.037-1.1-.525-1.72-.587a2.261,2.261,0,0,0-2.263,1.667,4.44,4.44,0,0,0,.767,3.51,4.534,4.534,0,0,0,5.35.9c1.719-.843,2.109-3.143,1.542-4.832" fill="#f26555"/>
          <path id="Trazado_32830" data-name="Trazado 32830" d="M244.562,139.527c-.728-2.849-2.166-3.971-4.919-4.563-1.334-.287-2.982-.691-4.2-.048-1.062-.273-2.132-.486-3.2-.667.025-.039.051-.077.076-.117.213-.229.422-.466.648-.684,1.011-.969,4.607-3.646,4.043-5.279a2.022,2.022,0,0,0-1.7-1.369c-2.144-.254-3.2,1.6-4.289,3.087a10.156,10.156,0,0,0-1.831,2.9q-.426.5-.839,1.016a34.005,34.005,0,0,0-6.611.265c.559-.918,1.072-1.885,1.592-2.812.861-1.533,2.581-4.772-.591-5.348-1.947-.353-3.58,2.084-4.38,3.515a12.427,12.427,0,0,0-1.314,3.326,4.635,4.635,0,0,0,.219,2.258,18.12,18.12,0,0,0-7.952,5.152c-.26-3.654-.481-7.313-.481-11,0-5.937.3-11.85.653-17.756a15.416,15.416,0,0,1,4.567-1.661,8.6,8.6,0,0,0-.012,3.754c.366,2.036,1.854,5.854,4.489,5.647a1.664,1.664,0,0,0,1.51-1.149c.637-1.526-.646-3.693-1.087-5.113a15.171,15.171,0,0,0-1.445-3.719,21.1,21.1,0,0,1,2.125-.158,18.837,18.837,0,0,1,3.872.436c-.253,2.812,1,8.972,4.318,9.777,2.383.579,2.6-2.082,1.92-3.642a27.531,27.531,0,0,0-1.952-2.862,8.717,8.717,0,0,1-.957-2.5c.679.161,1.366.316,2.074.443.051.01.113.008.169.013,1.2,1.215,3.348,2.179,4.851,3.013.833.462,8.988,2.26,6.886-.486-1.089-1.422-1.76-3.222-3.318-4.176-1.682-1.03-4-.878-5.882-.921a20.191,20.191,0,0,1-4-.582c.2-.112.39-.228.581-.343a1.348,1.348,0,0,0,.333-.094c1.871-.824,3.864-1.032,5.189-2.79,1-1.321.928-3.124-1.083-3.221-2.189-.105-8.571,2.932-8.74,5.473-.005.06-.009.121-.013.181-.236-.039-.472-.081-.713-.112a28.531,28.531,0,0,0-5.049-.235c.189-.231.371-.475.547-.735a14.609,14.609,0,0,0,1.638-2.683,4.29,4.29,0,0,0,1.077-1.672,1.4,1.4,0,0,0-2.028-1.56,9.549,9.549,0,0,0-2.655,2.844,10.2,10.2,0,0,0-.637.81c-.82.941-1.821,1.793-1.577,3.172a1.154,1.154,0,0,0,.106.311,13.5,13.5,0,0,0-4.737,2.1c-.076.054-.154.11-.231.167.333-5.455.681-10.906.85-16.369a.671.671,0,0,0,.329-.267,26.426,26.426,0,0,1,10.14-3.768,1.288,1.288,0,0,0,.081.162A11.507,11.507,0,0,0,223,95.265c1.4,1.9,3.547,1.642,3.954-.8.352-2.118-.878-4.424-2.379-6.111a50.141,50.141,0,0,1,7.316.327,1.426,1.426,0,0,0,.059.24,5.808,5.808,0,0,0,.225,3.691c.6,1.528,2.327,3.921,4.275,3.493,2.314-.51,1.261-3.516.656-4.9a12.084,12.084,0,0,0-.858-1.568,1.123,1.123,0,0,0,.968.431c1.759-.116,2.989,1.73,5.2,1.465a1.256,1.256,0,0,0,1.231-1.229c-.072-1.829-2.551-3.413-4.217-3.753-.675-.138-1.328.186-1.977.141a17.583,17.583,0,0,1-1.926-.265,10.087,10.087,0,0,0,4.031-3.093c.969-1.362,1.668-4.731-.976-4.708-2.093.018-4.653,1.818-6,3.3-.714.788-2.057,2.393-1.794,3.618a34.069,34.069,0,0,0-5.642-.278,30.612,30.612,0,0,0,2.345-3.949,1.3,1.3,0,0,0-1.1-1.922c-2.443-.2-5.51,3.724-5.512,6.313A20.11,20.11,0,0,0,210.516,90.5c.021-.976.051-1.952.057-2.929.61-2.6.709-5.326,1.22-7.954.021-.1.046-.207.068-.311a20.455,20.455,0,0,0,2.512-.964,11.867,11.867,0,0,0,2.565-1.564c1.05-.807,2.869-1.979,2.042-3.6-.813-1.589-2.857-.618-3.994-.048a8.553,8.553,0,0,0-1.982,1.4q.465-1.708.971-3.4a1.5,1.5,0,0,0,.538-.3,22.684,22.684,0,0,0,3.992-3.938c.836-1.177,1.226-3.84-.239-4.758-1.533-.961-2.8.714-3.567,1.774a18.3,18.3,0,0,0-1.441,2.182,24.434,24.434,0,0,0-1.277-2.9c-.433-.868-.792-2.067-1.821-2.358a1.448,1.448,0,0,0-1.743.662c-.709,1.291.164,3.385.566,4.667a5.626,5.626,0,0,0,1.724,3.134,1.76,1.76,0,0,0,.964.37c-.291.8-.566,1.627-.829,2.475-.448-.646-.933-1.286-1.408-1.9-.684-.883-2.1-2.209-3.231-1.226-1.156,1,.245,3.092.94,3.987a11.46,11.46,0,0,0,1.734,1.943c.3.241.637.53,1,.774a38.908,38.908,0,0,0-1.125,11.159,16.248,16.248,0,0,0-5.246-3.14,1.414,1.414,0,0,0-.625-.264c-1.245-.518-2.4-.974-3.211-1.411-.5-.268-1.026-.516-1.564-.762.393-.807.969-1.6,1.286-2.422a7.77,7.77,0,0,0,.822-3.842,1.371,1.371,0,0,0-1.71-1.3c-1.829.6-2.517,3.35-3.186,4.941-.155.367-.305.778-.459,1.19a25.9,25.9,0,0,1-2.56-1.282,1.34,1.34,0,0,0,.013-.19c.994-2.536,2.279-3.971,1.374-6.954a1.306,1.306,0,0,0-2.164-.571c-1.19,1.353-1.227,2.939-1.725,4.642a7.422,7.422,0,0,1-.3.8c-1.716-1.767-2.855-2.959-5.421-3.759a1.252,1.252,0,0,0-1.524,1.524c.513,2.531,2.74,3.521,4.722,4.715-1.758.753-3.647,1.614-4.615,3.436A1.3,1.3,0,0,0,183.119,84c1.947.936,4.448-.816,5.9-2.061a9.52,9.52,0,0,0,1.315-1.388c1,.5,2.062.906,3.092,1.388.089.041.177.086.266.129a6.5,6.5,0,0,0-2.947,2.957c-.3.795.456,1.449,1.155,1.517a3.024,3.024,0,0,0,2.32-1.195c.559-.538,1.535-1.237,2.172-1.954,1.259.633,2.52,1.27,3.79,1.865-.529.494-1.054.992-1.538,1.531a1.41,1.41,0,0,0,.143,2.1,1.355,1.355,0,0,0,1.826-.133l.018.023c.524-.529,1.077-1.025,1.638-1.514.279-.243.582-.482.865-.737,2.47.93,4.2,1.338,5.516,3.755-.723,4.1-1.511,8.2-1.875,12.281-.2,2.283-.412,4.56-.61,6.833-2.412-1.808-7.129-2.3-10.984-2.223a1.05,1.05,0,0,0,.557-.966,3.858,3.858,0,0,0-.855-2.208,7.556,7.556,0,0,1-1.051-2.467c-.3-1.168-1.061-2.622-2.526-2.092-3.094,1.119-.9,5.912,1.1,7.9a19.226,19.226,0,0,0-1.919.278,28.373,28.373,0,0,0-3.7,1.086c-.156-.212-.488-.564-.8-1.036a6.914,6.914,0,0,0-2.24-2.226,6.419,6.419,0,0,0-5.512-.433,1.388,1.388,0,0,0,0,2.65c1.923.6,2.876,1.6,4.265,2.662l-.3.114c-2.515.923-5.119,1.731-5.015,4.764a1.076,1.076,0,0,0,1.6.918c1.586-.871,3.353-2.181,5.119-2.949a7.452,7.452,0,0,0-.287.838c-.36,1.287-.707,4.113.758,4.829,1.729.845,2.621-1.006,3.018-2.322a18.6,18.6,0,0,0,1.107-5.471,1.47,1.47,0,0,0-.021-.226c1.192-.386,2.175-.674,2.666-.794.576-.141,1.2-.26,1.858-.358a6.3,6.3,0,0,0-1.5,2.418c-.376,1.1-.635,3.255.282,4.18,1.437,1.451,2.764-.417,3.3-1.644.574-1.314,1.674-3.609,1.375-5.23,3.39-.053,7.018.51,9.536,2.017-.494,5.9-.886,11.788-.886,17.757,0,3.957.35,7.887.648,11.824a19.334,19.334,0,0,0-5.624-4.019,15.768,15.768,0,0,0-4.957-1.227,1.219,1.219,0,0,0-.321-.275c-.876-2.192-1.758-8.407-4.685-5.834-1.572,1.382-.861,4.044.563,5.8l-.062,0c-2.75-.222-5.248-1.445-7.933-1.09a18.016,18.016,0,0,0-1.4-1.374,14.129,14.129,0,0,0-3.6-2.04,1.29,1.29,0,0,0-1.615,1.23,2.653,2.653,0,0,0,1.285,2.437c-2.771.783-5.312,2.477-4.431,4.6a1.23,1.23,0,0,0,1.128.859c2.4.052,4.733-1.106,6.942-2.085-.386.387-.741.848-1.075,1.216-1.034,1.136-2.355,3-1.421,4.591,1.12,1.91,3.18.268,4.133-.864a19.072,19.072,0,0,0,1.976-2.8,10.323,10.323,0,0,0,.7-1.52,4.968,4.968,0,0,0,.2-.684c.043-.195.208-.587.035-.306a1.535,1.535,0,0,0,.123-.252,16.078,16.078,0,0,0,2.147.68,18.186,18.186,0,0,0,2.819.311c-.1.079-.184.146-.22.182a7.224,7.224,0,0,0-1.555,2.1c-.459,1.035-.833,2.617-.127,3.606a1.456,1.456,0,0,0,1.963.515c1.974-1.41,3.355-3.475,4.936-5.285a1.237,1.237,0,0,0,.427-.7c.329.068.658.142.986.241a15.332,15.332,0,0,1,8.042,5.593c.3.39.585.77.874,1.141.019,1.251-.036,2.5-.108,3.749.055-1-5.221-3.671-6.076-3.17l-.276.162c-2.657,1.558,2.548,5.5,3.512,6.4a6.935,6.935,0,0,0,2.609,1.676,32.645,32.645,0,0,1-.355,6.973c-1.1,5.162-2.633,10.785-.373,15.868,1.264,2.833,3.812-3.141,3.965-3.929.578-2.973-.506-6.037-.022-8.944a53.243,53.243,0,0,0,1.23-9.157c0-.757-.023-1.512-.044-2.268,1.749-.85,3.454-1.812,5.195-2.687a1.209,1.209,0,0,0-.607-2.237,38.807,38.807,0,0,0-4.805.075q-.121-2.031-.268-4.06a19.182,19.182,0,0,1,1.326-2.217,13.549,13.549,0,0,1,3.341-2.837,14.623,14.623,0,0,1,2.394-1.128c-.84,1.538.156,3.66,1.253,4.883,1.478,1.644,3.918,3.692,6.31,3.42a1.633,1.633,0,0,0,1.385-2.414,12.452,12.452,0,0,0-1.195-1.808c-.477-.709-.879-1.465-1.367-2.168a12.451,12.451,0,0,0-2.581-2.9c.32-.056.64-.106.96-.152a38.136,38.136,0,0,1,6.281-.349c-.043.086-.084.173-.118.259a4.241,4.241,0,0,0,.242,3.391c1.028,2.322,4.053,5.9,6.881,5.61a1.435,1.435,0,0,0,1.358-1.783,5.289,5.289,0,0,0-1.131-1.811c-.732-1.051-1.594-2.046-2.239-3.15a12.661,12.661,0,0,0-1.611-2.332c.926.074,1.855.163,2.8.264a.337.337,0,0,0,.028.268c.107.172.215.337.325.5a1.268,1.268,0,0,0,.739,1.005,8.524,8.524,0,0,0,2.336,2.005,22,22,0,0,0,4.945,1.83,3.131,3.131,0,0,0,1.44.2c1.445-.261,1.112-2.242.861-3.227" fill="#608d5c"/>
          <path id="Trazado_32831" data-name="Trazado 32831" d="M196.78,82.763c-.6-1.769-2.366-1.658-3.77-1.029a1.678,1.678,0,0,1-.785.209c-.718-.047-1.358-.649-2.132-.727a2.8,2.8,0,0,0-2.8,2.067,5.505,5.505,0,0,0,.951,4.349c1.516,1.9,4.542,2.141,6.629,1.119,2.13-1.045,2.614-3.895,1.91-5.988" fill="#c93d2e"/>
          <path id="Trazado_32832" data-name="Trazado 32832" d="M223.53,109.436c-.6-1.769-2.366-1.658-3.77-1.028a1.715,1.715,0,0,1-.785.209c-.718-.047-1.358-.651-2.132-.728a2.8,2.8,0,0,0-2.8,2.066,5.5,5.5,0,0,0,.951,4.349c1.516,1.9,4.542,2.143,6.629,1.12,2.13-1.044,2.614-3.9,1.91-5.988" fill="#f26555"/>
          <path id="Trazado_32833" data-name="Trazado 32833" d="M200.779,140.344c-.6-1.769-2.366-1.658-3.769-1.028a1.709,1.709,0,0,1-.785.209c-.719-.047-1.359-.651-2.132-.728a2.8,2.8,0,0,0-2.8,2.066,5.507,5.507,0,0,0,.951,4.349c1.517,1.9,4.542,2.143,6.629,1.12,2.13-1.045,2.614-3.9,1.91-5.988" fill="#c93d2e"/>
          <path id="Trazado_32834" data-name="Trazado 32834" d="M209.375,145.806c-.48-1.427-1.91-1.338-3.042-.83a1.366,1.366,0,0,1-.634.169c-.58-.038-1.1-.525-1.72-.588a2.262,2.262,0,0,0-2.263,1.668,4.449,4.449,0,0,0,.767,3.51,4.536,4.536,0,0,0,5.35.9c1.719-.842,2.11-3.143,1.542-4.832" fill="#f26555"/>
          <path id="Trazado_32835" data-name="Trazado 32835" d="M228.209,87.319c-.48-1.427-1.91-1.338-3.042-.83a1.366,1.366,0,0,1-.634.169c-.58-.038-1.1-.525-1.72-.588a2.262,2.262,0,0,0-2.263,1.668,4.449,4.449,0,0,0,.767,3.51,4.539,4.539,0,0,0,5.351.9c1.718-.843,2.109-3.144,1.541-4.833" fill="#c93d2e"/>
          <path id="Trazado_32836" data-name="Trazado 32836" d="M217.289,174.385l.037-.029a3.015,3.015,0,0,0-3.454-.716c-.971.307-1.854.932-2.823,1.28-2.458.88-2.961.072-5.021-.705-4.391-1.657-13.572-2.084-14.472,4.185a1.52,1.52,0,0,0,.673,1.654c2.415,1.237,4.737-.285,7.211-.659,3-.454,4.991.779,7.755.923,2.839.148,4.763-1.391,6.983-2.814a25.574,25.574,0,0,0,3.148-1.781.852.852,0,0,0-.037-1.338" fill="#662910"/>
          <path id="Trazado_32837" data-name="Trazado 32837" d="M293.75,110.222c-.6-1.769-2.367-1.658-3.77-1.028a1.718,1.718,0,0,1-.785.209c-.718-.047-1.358-.651-2.132-.728a2.8,2.8,0,0,0-2.8,2.066,5.508,5.508,0,0,0,.951,4.349c1.517,1.9,4.543,2.143,6.63,1.119,2.129-1.044,2.614-3.894,1.91-5.987" fill="#f26555"/>
          <path id="Trazado_32838" data-name="Trazado 32838" d="M327.673,138.688a6.773,6.773,0,0,0-3.459-2.319c1.007.151,1.663-1.3,1.106-2.155a2.5,2.5,0,0,0-2.748-.774,14.486,14.486,0,0,0-2.732,1.344c-2.813,1.451-6.118,1.47-9.282,1.457a6.757,6.757,0,0,0,1.828-3.429c.126-1.31-.876-2.806-2.185-2.668-1.778.188-2.026,2.627-2.917,4.178-2.322,4.045-9.847,2.238-11.883,6.433q.987-10.108,1.975-20.218c.148-1.5.369-3.16,1.509-4.151,1.017-.884,2.815-1.474,2.577-2.8a1.643,1.643,0,0,0-2.006-1.076,4.777,4.777,0,0,0-2.1,1.376l-.126-2.613a18.054,18.054,0,0,1,9.582-1.238,12.05,12.05,0,0,0,1.542,6.293,2.31,2.31,0,0,0,1.335,1.256c1.211.278,2.058-1.237,2.113-2.479a7.019,7.019,0,0,0-1.428-4.529,21.392,21.392,0,0,1,4.313,1.456,18.972,18.972,0,0,0,.8,6.327,2.941,2.941,0,0,0,1.085,1.754c1.092.671,2.6-.29,2.959-1.52a6.358,6.358,0,0,0-.455-3.757q2.175,1.41,4.349,2.821c.542.351,1.252.706,1.79.349a1.35,1.35,0,0,0,.479-1.161c-.016-2.48-2.691-3.964-4.983-4.913l4.339-2.327a2.055,2.055,0,0,0,1.125-1.053c.281-.923-.789-1.685-1.728-1.907a7.386,7.386,0,0,0-7.874,3.4l-5.4-1.776c.824-1.472,2.247-2.589,2.832-4.171s-.446-3.916-2.1-3.581a2.881,2.881,0,0,0-1.6,1.219,11.272,11.272,0,0,0-2.25,6.149,18.2,18.2,0,0,0-10.683,1.261c.337-.15-.41-7.239-.442-8.071-.03-.793-.037-1.588-.062-2.382.923-1.4,1.842-2.924,2.924-4.27a5.707,5.707,0,0,0,.864.694,6.577,6.577,0,0,0,2.273,2.145c.839.408,2.209.628,2.78-.33.647-1.085-.686-1.95-1.3-2.642a20.684,20.684,0,0,1-1.377-1.747c-.159-.225-.323-.47-.5-.709a13.182,13.182,0,0,1,4.065-1.865l.229-.068a7.683,7.683,0,0,0,1.328,2.413l.281.388a19.9,19.9,0,0,0,1.288,1.85,1.331,1.331,0,0,0,2.417-.208c.629-1.12.06-2.551-.411-3.613a6.505,6.505,0,0,0-1.465-1.756,4.48,4.48,0,0,1,1.429-.066,1.339,1.339,0,0,0,.166.009,1.028,1.028,0,0,0,.108.1c2.049,1.409,5.565,2.174,7.625.507a.9.9,0,0,0,.874-.881c-.065-4.52-6.518-2.009-8.739-2.177-.119-.009-.243-.009-.365-.012a6.014,6.014,0,0,0,1.266-2.168c.339-1.067.442-3.3-1.268-3.195-1.384.088-2.612,2.032-3.154,3.116a5.7,5.7,0,0,0-.671,2.741,20.857,20.857,0,0,0-4.707,1.928c.239-.972.425-1.964.641-2.9.224-.98.01-2.556-1.314-2.534-1.482.024-1.812,2.176-1.979,3.265a6.421,6.421,0,0,0,.11,2.848c-.1.43-.026.86-.344,1.207-.74.805-3.18,2.9-3.18,4.071-.061-3.221-.088-6.445-.05-9.668.35-1.919.181-3.983.433-5.916a16.029,16.029,0,0,1,1.421-4.815,10.64,10.64,0,0,0,3.061-1.187c1.366-.925,1.95-3.3.5-4.09a2.691,2.691,0,0,0-2.9.673c-.444-1.537.924-3.017,2.353-3.736s3.095-1.112,4.175-2.292.953-3.58-.614-3.9a2.625,2.625,0,0,0-1.644.324,6.861,6.861,0,0,0-3.019,2.909,13.6,13.6,0,0,0-2.607-4.416,2.173,2.173,0,0,0-1.927-.968c-.943.215-1.217,1.437-1.115,2.4a7.729,7.729,0,0,0,3.256,5.47A108.444,108.444,0,0,0,294.835,76c-.851-.9-1.09-2.206-1.764-3.243s-2.289-1.716-3.091-.777a1.869,1.869,0,0,0-.389,1.037c-.205,2,1.34,3.686,2.635,5.221s2.483,3.678,1.534,5.448a4.018,4.018,0,0,0-1.06-2.43c-.688-.583-2.008-.436-2.212.442a2.009,2.009,0,0,0,.331,1.328q1.5,2.889,2.99,5.778a103.048,103.048,0,0,0-9.439-4.283,7.478,7.478,0,0,0-3.748-6.259c-.9-.5-2.381-.576-2.62.425a1.91,1.91,0,0,0,.251,1.2l1.7,3.744-5.3-.159a10.147,10.147,0,0,0-6.408-7.112,2.654,2.654,0,0,0-2.132-.042c-1.09.6-1.011,2.214-.542,3.37a9.208,9.208,0,0,0,3.926,4.489c-1.783-1.02-6.741-.127-7.291,2.132-.82,3.368,4.815,1.956,6.283,1.278-1.18,1.313-2.438,3.113-1.632,4.684.879,1.715,3.655,1.44,4.882-.048s1.344-3.571,1.4-5.5a28.906,28.906,0,0,1,7.156.192,8.469,8.469,0,0,0-2.6,5.123c-.132,1.092.122,2.45,1.158,2.823.964.347,1.97-.392,2.637-1.171a11.192,11.192,0,0,0,2.614-6.079c3.583.535,7.735,1.475,9.24,4.771a10.983,10.983,0,0,1,.6,4.954l-.369,11.418a12.75,12.75,0,0,0-4.385-2.726,13.828,13.828,0,0,0-3.34-6.419c-.879-.95-2.749-1.6-3.2-.381a2.078,2.078,0,0,0,.361,1.637q1.2,2.217,2.408,4.432l-5.671-.137a8.871,8.871,0,0,0-7.881-6.127,2.642,2.642,0,0,0-1.385.228c-1.508.822-.614,3.27.864,4.146s3.382,1.151,4.447,2.5a25.446,25.446,0,0,0-7.169.181,8.58,8.58,0,0,0-5.794,3.894,1.684,1.684,0,0,0-.266,1.238c.238.833,1.363.944,2.223.846a28.461,28.461,0,0,0,11.392-3.855c.359,1.653-1.1,3.066-2.214,4.337s-1.9,3.457-.54,4.465c1.274.946,3.06-.208,4.005-1.484a12.646,12.646,0,0,0,2.465-7.556,15.552,15.552,0,0,1,5.941.2,34.9,34.9,0,0,0-2.858,6.5c-.333,1.029-.551,2.328.255,3.049.977.875,2.539.114,3.446-.833a10.135,10.135,0,0,0,2.758-7.55c1.509-.615,3.274.506,3.95,1.988a9.662,9.662,0,0,1,.424,4.813q-.962,11.757-1.924,23.513a23.278,23.278,0,0,0-7.635-5.721,9.721,9.721,0,0,0-2.528-8.334,3.059,3.059,0,0,0-2.676-1.169c-1.507.333-1.9,2.393-1.375,3.844s1.617,2.672,1.971,4.174a8.415,8.415,0,0,1-8.633-3.727c-.791-1.284-1.264-2.829-2.446-3.766s-3.448-.622-3.59.879a3.01,3.01,0,0,0,.832,1.971l3.354,4.464a21.045,21.045,0,0,0-7.409-.091c-2.421.556-4.755,2.179-5.435,4.568a2.661,2.661,0,0,0,.128,2.071c.9,1.512,3.2.885,4.763.077l8.942-4.622q-2.42,3.162-4.841,6.322a2.372,2.372,0,0,0-.61,1.259c-.061,1.34,1.893,1.687,3.161,1.251a9.046,9.046,0,0,0,5.94-8.435,32.619,32.619,0,0,1,6.913,1.016,33.015,33.015,0,0,0-5.275,6.048,2.47,2.47,0,0,0-.546,1.332c0,1.253,1.672,1.742,2.912,1.561a8.353,8.353,0,0,0,6.9-7.473,8.915,8.915,0,0,1,5.826,10.514l-4.453-.344a1.836,1.836,0,0,0-1.257.206c-.678.509-.3,1.662.409,2.128a21.534,21.534,0,0,0,2.36.928c2.2,1.1,2.437,4.089,2.378,6.547q-.148,6.252-.3,12.506c-.072,2.976.087,6.444,2.5,8.193,3.373-2.9,2.91-8.164,2.132-12.546s-1.315-9.614,1.99-12.594c1.473-1.33,3.527-1.974,4.77-3.521a1.658,1.658,0,0,0,.363-1.849,1.7,1.7,0,0,0-1.254-.613,6.392,6.392,0,0,0-5.787,2.4c-.978-2.762,1.579-5.417,3.908-7.2,2.309-1.765,5.688-3.469,7.859-1.535,1.09.97,1.39,2.533,2.153,3.776s2.627,2.139,3.615,1.065a2.46,2.46,0,0,0,.442-1.987,6.3,6.3,0,0,0-1.973-3.82,14.394,14.394,0,0,0,5.069-.6,11.959,11.959,0,0,0,3.348,6.6,2.932,2.932,0,0,0,1.253.836c1.425.381,2.681-1.357,2.438-2.812s-1.4-2.563-2.485-3.557a19.368,19.368,0,0,0,5.182,2.184,3.111,3.111,0,0,0,1.467.116c1.376-.322,1.748-2.288,1-3.487" fill="#608d5c"/>
          <path id="Trazado_32839" data-name="Trazado 32839" d="M309.947,140.344c-.6-1.769-2.367-1.658-3.77-1.028a1.706,1.706,0,0,1-.785.209c-.718-.047-1.358-.651-2.132-.728a2.8,2.8,0,0,0-2.8,2.066,5.507,5.507,0,0,0,.951,4.349c1.517,1.9,4.543,2.143,6.63,1.12,2.13-1.045,2.614-3.9,1.91-5.988" fill="#c93d2e"/>
          <path id="Trazado_32840" data-name="Trazado 32840" d="M283.9,135.524c-.479-1.427-1.909-1.338-3.041-.83a1.371,1.371,0,0,1-.634.168c-.58-.037-1.1-.525-1.721-.587a2.261,2.261,0,0,0-2.262,1.667,4.443,4.443,0,0,0,.766,3.51,4.536,4.536,0,0,0,5.351.9c1.719-.843,2.109-3.143,1.541-4.832" fill="#f26555"/>
          <path id="Trazado_32841" data-name="Trazado 32841" d="M283.9,107.089c-.479-1.427-1.909-1.338-3.041-.83a1.371,1.371,0,0,1-.634.168c-.58-.037-1.1-.525-1.721-.587a2.261,2.261,0,0,0-2.262,1.667,4.443,4.443,0,0,0,.766,3.51,4.536,4.536,0,0,0,5.351.9c1.719-.843,2.109-3.143,1.541-4.832" fill="#c93d2e"/>
          <path id="Trazado_32842" data-name="Trazado 32842" d="M310.709,89.826c-.48-1.427-1.91-1.338-3.042-.83a1.365,1.365,0,0,1-.634.168c-.58-.037-1.1-.525-1.72-.587a2.261,2.261,0,0,0-2.263,1.667,4.448,4.448,0,0,0,.767,3.51,4.536,4.536,0,0,0,5.351.9c1.718-.843,2.109-3.143,1.541-4.832" fill="#c93d2e"/>
          <path id="Trazado_32843" data-name="Trazado 32843" d="M278.772,85.551c-.479-1.428-1.909-1.338-3.041-.83a1.371,1.371,0,0,1-.634.168c-.58-.037-1.1-.525-1.721-.587a2.261,2.261,0,0,0-2.262,1.667,4.443,4.443,0,0,0,.766,3.51,4.536,4.536,0,0,0,5.351.9c1.719-.843,2.109-3.143,1.541-4.832" fill="#f26555"/>
          <path id="Trazado_32844" data-name="Trazado 32844" d="M311.031,174.578c-3.105-2.125-6.488-1.481-10.036-1.3-2.115.11-4.165-.094-6.2.568a12.152,12.152,0,0,0-1.779.824c-1.087.565-.817.715-1.021.7-.892-.077-1.84-1.22-3.037-1.247a6.152,6.152,0,0,0-3.852,1.5c-1.449,1.168-2.7,3.035-1.946,4.938a1.148,1.148,0,0,0,1.663.677l.62-.387a.915.915,0,0,0,.4-.557,4.039,4.039,0,0,1,1.494-.86c2.795-.681.723.233,2.52.63a7.283,7.283,0,0,0,4.637-.414c5.3-1.694,11.6.022,16.541-3.148a1.128,1.128,0,0,0,0-1.922" fill="#662910"/>
          <path id="Trazado_32845" data-name="Trazado 32845" d="M135.147,76.229s4.947,15.935,6.2,17.435,14.81,6,14.81,6l-3.1,14.25s-21.457-4.625-24.957-6.75-9-20.739-9-20.739Z" fill="#ff8426"/>
          <path id="Trazado_32846" data-name="Trazado 32846" d="M137.214,79.03c-.4,1.065-17.043,10.138-18.191,10.246-.411.032-1.683-2.239-3.168-5.192-1.759-3.473-2.011-10.23-3.281-13.015-.734-1.614-1.2-2.677-1.2-2.677l4.192-9.461,9.531-14.513s3.5,7.125,4.258,8.55c2.133,4,5.576,19.183,6.394,21.579s1.865,3.417,1.468,4.483" fill="#f2e2c2"/>
          <path id="Trazado_32847" data-name="Trazado 32847" d="M152.046,114.956c-1.219-1.532,2.589-17,3.423-17.167s14.666,4,16.333,3.834,12.167-2.25,15.667-1.167,6.833,5.417,4.833,9.583-8.333,4.334-12.917,4.584c-2.082.113-5.114-.584-5.891-.417s-20.23,2.281-21.448.75" fill="#36312f"/>
          <path id="Trazado_32848" data-name="Trazado 32848" d="M35.135,139.676c-7.821,0-16.234-.407-21.93-1.526-9.863-1.94-11.924-5.432-12.007-5.58a.5.5,0,0,1,.871-.493c.034.057,2.047,3.266,11.33,5.091,9.485,1.865,26.633,1.73,35.782,1.04C67.6,136.816,74.4,132.9,74.464,132.859a.5.5,0,1,1,.51.86c-.279.166-7.066,4.076-25.717,5.486-3.731.282-8.79.471-14.122.471" fill="#f2c588"/>
        </g>
      </g>
      <g id="Grupo_12385" data-name="Grupo 12385">
        <g id="Grupo_12384" data-name="Grupo 12384" clip-path="url(#clip-path-2)">
          <path id="Trazado_32849" data-name="Trazado 32849" d="M4.135,130.539c.417-1,13.75-5.417,35.167-5.25s33.083,4.25,33.75,5.25-12.833,4.5-35.25,4.917-34.083-3.917-33.667-4.917" fill="#f2c588"/>
          <path id="Trazado_32850" data-name="Trazado 32850" d="M23.465,131.375A1.673,1.673,0,0,0,22.4,130.29a2.5,2.5,0,0,0-1.478.16,2.85,2.85,0,0,1-1.6.023,3.124,3.124,0,0,0-2.177-.2,2.3,2.3,0,0,0-1.347,1.519,4.449,4.449,0,0,0,.767,3.51,4.537,4.537,0,0,0,5.351.9c1.719-.842,2.109-3.143,1.541-4.832" fill="#f26555"/>
          <path id="Trazado_32851" data-name="Trazado 32851" d="M44.139,133.43a1.767,1.767,0,0,0-1.251-.952,5.732,5.732,0,0,0-1.768.015,11.852,11.852,0,0,1-2.425-.287,2.264,2.264,0,0,0-2.264,1.668,4.447,4.447,0,0,0,.768,3.51,4.536,4.536,0,0,0,5.35.9,4.254,4.254,0,0,0,1.59-4.857" fill="#c93d2e"/>
          <path id="Trazado_32852" data-name="Trazado 32852" d="M32.359,132.127c.141-1.694-1.493-2.062-2.8-2.427a4.674,4.674,0,0,1-1.469-.63,13.911,13.911,0,0,0-1.26-1.012,2.8,2.8,0,0,0-3.393.785,5.512,5.512,0,0,0-.851,4.37c.641,2.345,3.323,3.768,5.644,3.655,2.369-.115,3.943-2.54,4.126-4.741" fill="#c93d2e"/>
          <path id="Trazado_32853" data-name="Trazado 32853" d="M51.812,129.975a2.021,2.021,0,0,0-1.845-1.4c-1.156-.064-2.038.849-3.229.546-.87-.22-1.756-.744-2.687-.374a2.861,2.861,0,0,0-1.716,1.957,5.511,5.511,0,0,0,1.048,4.327c1.558,1.865,4.588,2.042,6.653.972,2.1-1.091,2.527-3.951,1.776-6.028" fill="#f26555"/>
          <path id="Trazado_32854" data-name="Trazado 32854" d="M56.266,127.8a2.038,2.038,0,0,0-2.071.481c-.7.665-.736,1.694-1.289,2.448-.488.663-1.323.917-1.869,1.516a2.8,2.8,0,0,0-.013,3.483,5.5,5.5,0,0,0,4.058,1.83c2.429-.085,4.429-2.369,4.852-4.655.432-2.332-1.568-4.42-3.668-5.1" fill="#c93d2e"/>
        </g>
      </g>
      <g id="Grupo_12387" data-name="Grupo 12387">
        <g id="Grupo_12386" data-name="Grupo 12386" clip-path="url(#clip-path)">
          <path id="Trazado_32856" data-name="Trazado 32856" d="M117.573,87.519c-1.075-.954-1.826-3.066-2.487-4.317-.471-.892-.878-1.76-1.37-2.635-1.589-2.823-2.037-5.541-2.476-8.694-.191-1.369-.086-2.794-.4-4.145a23.65,23.65,0,0,0-1.366-3.619,14.025,14.025,0,0,1,.125-11.282.484.484,0,0,0,.125-.288c0-.037,0-.073.008-.11a.5.5,0,0,0-.931-.252,15.068,15.068,0,0,0-1.353,8.646,23.287,23.287,0,0,0,1.86,5.506,20.7,20.7,0,0,1,.862,5.19c.414,3.249.855,6.193,2.447,9.1.566,1.035,1.018,2.061,1.61,3.085.8,1.391,1.436,3.449,2.644,4.52.479.426,1.189-.279.707-.707" fill="#d9c08d"/>
          <path id="Trazado_32857" data-name="Trazado 32857" d="M140.651,157.12c-.6-1.293-3.505-1.773-4.767-1.989-1.94-.332-4,.247-5.955.25-1.849,0-3.624.211-5.464.377a21.9,21.9,0,0,1-5.593.121c-1.378-.216-2.756-.535-4.145-.644a49.494,49.494,0,0,0-9.842.471c-.63.078-.637,1.079,0,1a67.151,67.151,0,0,1,8.41-.5c2.967.007,5.785.982,8.769.83,2.946-.151,5.838-.553,8.788-.65,2.218-.074,3.944-.484,6.158.139.638.179,2.485.472,2.777,1.1.271.583,1.134.076.864-.505" fill="#f57f25"/>
          <path id="Trazado_32858" data-name="Trazado 32858" d="M201.071,173.737c-2.315-.775-10.055,1.462-10.836,1.526-2.162.178-3.944-1.643-6.254-1.56-.393.014-4.482,1.31-4.075,1.816-.4-.5-1.106.21-.707.707.044.055.089.11.133.166a.49.49,0,0,0,.487.128,26.6,26.6,0,0,0,2.661-1.425c2.955-1.213,4.46,1.033,7.071,1.39,1.4.19,2.986-.623,4.307-1.011a14.8,14.8,0,0,1,4.351-.859c1.085.018,3.373,1.391,3.509-.075.038-.4-.207-.656-.647-.8" fill="#8f482b"/>
          <path id="Trazado_32859" data-name="Trazado 32859" d="M239.052,174.706c-3.1-.1-5.819.566-8.885-.286-2.9-.8-5.342.308-8.281.289-2.328-.015-4.549-1.795-6.966-1.439a28.24,28.24,0,0,0-3.454,1.046c-.519.15-1.092.182-1.229.757-.151.625.813.892.963.266.011-.044,2.147-.464,2.44-.563a6.7,6.7,0,0,1,4.411-.058,13.132,13.132,0,0,0,2.494.943,16.194,16.194,0,0,0,3.923.051c1.215-.158,2.253-.727,3.523-.706,1.205.02,2.135.616,3.284.81,2.655.451,5.158-.19,7.777-.11.644.02.643-.98,0-1" fill="#8f482b"/>
          <path id="Trazado_32860" data-name="Trazado 32860" d="M221.185,186.723a40.968,40.968,0,0,0-6.125-1.17c-2.219-.109-4.241.789-6.472.671s-4.415-.656-6.661-.147a33.527,33.527,0,0,1-7.208,1.128.5.5,0,0,0,0,1,12.507,12.507,0,0,0,2.827-.361c.87-.177,1.687-.074,2.572-.212a30.874,30.874,0,0,1,3.687-.758,22.6,22.6,0,0,1,3.582.229,18.682,18.682,0,0,0,5.871-.373c2.653-.528,5.1.451,7.661.957.628.125.9-.839.266-.964" fill="#8f482b"/>
          <path id="Trazado_32861" data-name="Trazado 32861" d="M278.533,167.372c-1.872,0-3.565.1-5.288-.749a7.014,7.014,0,0,0-2.144-.92c-2.42-.375-4.487.794-6.823,1.091-1.559.2-2.788-.329-4.281-.558a19.316,19.316,0,0,0-3.127-.031c-.25,0-3.884.481-3.484.98-.4-.5-1.106.209-.708.707.06.075.121.149.18.224a.506.506,0,0,0,.606.078,9.4,9.4,0,0,1,5.284-1.027c2.165.062,3.94,1.018,6.135.562,2.8-.581,5.077-1.735,7.857-.242,1.943,1.043,3.555.885,5.793.885a.5.5,0,0,0,0-1" fill="#8f482b"/>
          <path id="Trazado_32862" data-name="Trazado 32862" d="M299.467,183.453a48.028,48.028,0,0,0-5.58-1.114,23.9,23.9,0,0,0-6.473.174,47.13,47.13,0,0,0-6.608,2.2c-2.932.99-5.474.563-8.358-.2a9.968,9.968,0,0,0-4.313-.183c-2.1.368-4.135,1.384-6.289,1.193-2.375-.211-4.487-1.38-6.929-1.494a15.491,15.491,0,0,0-5.427.953c-.609.192-.391,1.169.224.974a14.862,14.862,0,0,1,6.263-.843c2.251.259,4.267,1.412,6.545,1.448,1.935.03,3.892-.825,5.794-1.165,2.24-.4,3.831.287,6,.717,4.284.847,7.715-.98,11.691-2.2a20.2,20.2,0,0,1,7.441-.6c2.149.159,4.215,1.22,6.38,1.115a.516.516,0,0,0,.5-.346c.011-.046.023-.091.034-.137.036-.143-.327-.312-.9-.487" fill="#8f482b"/>
          <path id="Trazado_32863" data-name="Trazado 32863" d="M321.917,172.219c-2.227.053-4.547-.579-6.752-.83-2.278-.26-4.72,1.049-6.885.243a11.363,11.363,0,0,0-4.947-.922,7.687,7.687,0,0,0-2.6.353c-.784.294-1.486.964-2.287,1.174a.5.5,0,0,0,.266.964,9.239,9.239,0,0,0,1.533-.791,9.573,9.573,0,0,1,4.236-.734c2.1.031,3.5,1.267,5.544,1.221,2.12-.048,3.961-.6,6.169-.288a35.926,35.926,0,0,0,5.718.61.5.5,0,0,0,0-1" fill="#8f482b"/>
        </g>
      </g>
    </g>
  </g>
</svg>
