<svg xmlns="http://www.w3.org/2000/svg" xmlns:xlink="http://www.w3.org/1999/xlink" width="197.018" height="209.818" viewBox="0 0 197.018 209.818">
  <defs>
    <clipPath id="clip-path">
      <rect id="Rectángulo_5007" data-name="Rectángulo 5007" width="197.018" height="209.818" fill="none"/>
    </clipPath>
  </defs>
  <g id="Grupo_18951" data-name="Grupo 18951" transform="translate(-461.924 -7400.182)">
    <g id="Grupo_18855" data-name="Grupo 18855" transform="translate(461.924 7400.182)">
      <rect id="Rectángulo_5000" data-name="Rectángulo 5000" width="39.251" height="37.773" transform="translate(9.462 172.045)" fill="#fdc345"/>
      <rect id="Rectángulo_5001" data-name="Rectángulo 5001" width="39.251" height="37.773" transform="translate(143.129 171.681)" fill="#7eb9c7"/>
      <rect id="Rectángulo_5002" data-name="Rectángulo 5002" width="39.252" height="37.773" transform="translate(75.804 171.571)" fill="#f04f4c"/>
      <rect id="Rectángulo_5003" data-name="Rectángulo 5003" width="76.684" height="88.518" transform="translate(58.838 47.044)" fill="#c7ddeb"/>
      <rect id="Rectángulo_5004" data-name="Rectángulo 5004" width="90.737" height="107.925" transform="translate(82.322 19.59)" fill="#c7ddeb"/>
      <path id="Trazado_35049" data-name="Trazado 35049" d="M186.412,183.657H90.577V67.941h22.684v6.627H97.2V177.03h82.581V163.011h6.627Z" transform="translate(-47.762 -35.826)" fill="#3d4451"/>
      <path id="Trazado_35050" data-name="Trazado 35050" d="M151.125,6.627h84.111V117.245H151.125ZM144.5,123.872h97.365V0H144.5Z" transform="translate(-76.195)" fill="#3d4451"/>
      <g id="Grupo_18854" data-name="Grupo 18854">
        <g id="Grupo_18853" data-name="Grupo 18853" clip-path="url(#clip-path)">
          <path id="Trazado_35051" data-name="Trazado 35051" d="M221.614,47.838h-35.64a3.191,3.191,0,0,1-3.191-3.191V44.4a3.191,3.191,0,0,1,3.191-3.191h35.64a3.191,3.191,0,0,1,3.191,3.191v.246a3.191,3.191,0,0,1-3.191,3.191" transform="translate(-96.383 -21.731)" fill="#3d4451"/>
          <path id="Trazado_35052" data-name="Trazado 35052" d="M223.279,82.27h-38.53c-1.269,0-2.3-1.484-2.3-3.314s1.029-3.314,2.3-3.314h38.53c1.269,0,2.3,1.484,2.3,3.314s-1.029,3.314-2.3,3.314" transform="translate(-96.208 -39.887)" fill="#3d4451"/>
          <path id="Trazado_35053" data-name="Trazado 35053" d="M222.531,114.469H184c-1.269,0-2.3-1.483-2.3-3.314s1.029-3.314,2.3-3.314h38.53c1.269,0,2.3,1.484,2.3,3.314s-1.029,3.314-2.3,3.314" transform="translate(-95.814 -56.866)" fill="#3d4451"/>
          <path id="Trazado_35054" data-name="Trazado 35054" d="M325.261,384.162H277.686V336.587h47.575Zm-42.841-4.734h38.108V341.32H282.419Z" transform="translate(-146.426 -177.485)" fill="#3d4451"/>
          <path id="Trazado_35055" data-name="Trazado 35055" d="M186.418,384.162H138.843V336.587h47.575Zm-42.841-4.734h38.108V341.32H143.576Z" transform="translate(-73.213 -177.485)" fill="#3d4451"/>
          <path id="Trazado_35056" data-name="Trazado 35056" d="M47.575,384.162H0V336.587H47.575ZM4.734,379.428H42.842V341.32H4.734Z" transform="translate(0 -177.485)" fill="#3d4451"/>
          <rect id="Rectángulo_5005" data-name="Rectángulo 5005" width="39.651" height="8.204" transform="translate(103.546 179.243)" fill="#3d4451"/>
          <rect id="Rectángulo_5006" data-name="Rectángulo 5006" width="43.753" height="8.204" transform="translate(32.447 178.787)" fill="#3d4451"/>
          <path id="Trazado_35057" data-name="Trazado 35057" d="M42.588,301.241v-31.1H65.527" transform="translate(-22.457 -142.45)" fill="#f5fafc"/>
          <path id="Trazado_35058" data-name="Trazado 35058" d="M42.235,297.829H36.118V263.675h26v6.117H42.235Z" transform="translate(-19.045 -139.038)" fill="#3d4451"/>
          <path id="Trazado_35059" data-name="Trazado 35059" d="M378.132,275.942H359.78v-6.117h12.235V177.047H343.468V170.93h34.664Z" transform="translate(-181.113 -90.133)" fill="#3d4451"/>
          <path id="Trazado_35060" data-name="Trazado 35060" d="M208.172,183.559a5.013,5.013,0,0,1-3.4-1.5L188.094,165.6a3.693,3.693,0,0,1,.368-5.668,5.015,5.015,0,0,1,6.423.3l13.06,12.816,27.143-30.344a4.994,4.994,0,0,1,6.387-.684,3.662,3.662,0,0,1,.776,5.592l-30.5,34.254a4.8,4.8,0,0,1-3.436,1.691Z" transform="translate(-98.575 -74.443)" fill="#4ece46"/>
          <path id="Trazado_35061" data-name="Trazado 35061" d="M206.268,183.337h-.144a6.808,6.808,0,0,1-4.682-2.021l-16.685-16.466a5.575,5.575,0,0,1-1.692-4.281,5.689,5.689,0,0,1,2.219-4.14,6.823,6.823,0,0,1,8.837.437l11.69,11.47,25.861-28.911a6.8,6.8,0,0,1,8.794-.973,5.749,5.749,0,0,1,2.5,4.018,5.43,5.43,0,0,1-1.4,4.311l-30.5,34.25a6.637,6.637,0,0,1-4.808,2.306m-16.8-24.647a3.13,3.13,0,0,0-1.92.632,2,2,0,0,0-.813,1.454,1.888,1.888,0,0,0,.6,1.458L204.018,178.7a3.166,3.166,0,0,0,2.107.967h.144a3.02,3.02,0,0,0,2.067-1.078l30.5-34.252a1.79,1.79,0,0,0,.492-1.431,2.055,2.055,0,0,0-.937-1.429,3.155,3.155,0,0,0-3.978.4l-28.425,31.777-14.433-14.161a2.985,2.985,0,0,0-2.088-.8" transform="translate(-96.528 -72.385)" fill="#3d4451"/>
        </g>
      </g>
    </g>
  </g>
</svg>
