<svg xmlns="http://www.w3.org/2000/svg" width="100" height="100" viewBox="0 0 100 100">
  <g id="Grupo_55517" data-name="Grupo 55517" transform="translate(-751 -5673)">
    <g id="CF1_iconos_copia_9" data-name="CF1_iconos  copia 9" transform="translate(750.847 5672.661)">
      <circle id="Elipse_4472" data-name="Elipse 4472" cx="50" cy="50" r="50" transform="translate(0.153 0.339)" fill="#bbabf5"/>
      <g id="_Group_2" data-name=" Group 2" transform="translate(11.919 8.304)">
        <path id="Trazado_111638" data-name="Trazado 111638" d="M129.686,69.685v36.158a4.125,4.125,0,0,1-4.125,4.125H101.055a4.125,4.125,0,0,1-4.125-4.125h0V69.685a4.125,4.125,0,0,1,4.125-4.125h5.578a3.067,3.067,0,0,0,3.067,3.08h7.218a3.067,3.067,0,0,0,3.067-3.067h5.578a4.125,4.125,0,0,1,4.125,4.111Zm-21.293,22.88V86.672H102.5v5.892Z" transform="translate(-43.852 -30.065)" fill="#febc7c"/>
        <path id="Trazado_111639" data-name="Trazado 111639" d="M111.42,63.951v-.187a3.073,3.073,0,0,1,3.067-3.073H121.7a3.067,3.067,0,0,1,3.067,3.073h0v.2a3.067,3.067,0,0,1-3.067,3.067h-7.218a3.067,3.067,0,0,1-3.067-3.067h0Z" transform="translate(-48.639 -28.456)" fill="#6fe3ff"/>
        <path id="Trazado_111640" data-name="Trazado 111640" d="M101.333,41.49V54.346h-1.266A3.067,3.067,0,0,0,97,57.42h0v.187H91.423A4.125,4.125,0,0,0,87.3,61.732h0V88.341L67.78,99.61V60.861L101.333,41.49Z" transform="translate(-34.22 -22.112)" fill="#be6b1c"/>
        <path id="Trazado_111641" data-name="Trazado 111641" d="M60.788,54.148,43.68,44.271,77.233,24.9h0l17.108,9.876Z" transform="translate(-26.257 -16.631)" fill="#fed2a8"/>
        <rect id="Rectángulo_6417" data-name="Rectángulo 6417" width="5.899" height="5.899" transform="translate(58.649 56.607)" fill="#6fe3ff"/>
        <path id="Trazado_111642" data-name="Trazado 111642" d="M67.668,22.045,34.115,41.423,17.67,31.928,51.223,12.55Z" transform="translate(-17.663 -12.55)" fill="#febc7c"/>
        <path id="Trazado_111643" data-name="Trazado 111643" d="M51.22,60.861V99.61L17.66,80.239V41.49h.007l16.445,9.495Z" transform="translate(-17.66 -22.112)" fill="#fda551"/>
        <path id="Trazado_111644" data-name="Trazado 111644" d="M105.921,86.506h-1.339a1.252,1.252,0,0,1-1.252-1.252V79.382a1.252,1.252,0,0,1,1.252-1.252h5.892a1.252,1.252,0,0,1,1.286,1.252v.844a1.252,1.252,0,0,1-2.437.408h-3.462V84h.06a1.252,1.252,0,1,1,0,2.5Z" transform="translate(-45.966 -34.218)" fill="#6fe3ff"/>
        <path id="Trazado_111645" data-name="Trazado 111645" d="M105.921,120.737h-1.339a1.245,1.245,0,0,1-1.252-1.252h0v-5.892a1.252,1.252,0,0,1,1.252-1.252h5.892a1.252,1.252,0,0,1,1.252,1.252v1.2a1.252,1.252,0,1,1-2.5.047h-3.395v3.395h.06a1.252,1.252,0,1,1,0,2.5Z" transform="translate(-45.966 -45.522)" fill="#6fe3ff"/>
        <path id="Trazado_111646" data-name="Trazado 111646" d="M111.245,86.857a1.245,1.245,0,0,1-.884-.368l-2.009-2.009a1.252,1.252,0,1,1,1.768-1.768l1.118,1.112,3.669-3.663a1.252,1.252,0,1,1,1.774,1.761l-4.553,4.553a1.245,1.245,0,0,1-.884.382Z" transform="translate(-47.487 -34.749)" fill="#2561a1"/>
        <path id="Trazado_111647" data-name="Trazado 111647" d="M111.3,121.372a1.239,1.239,0,0,1-.884-.362L108.4,119a1.252,1.252,0,0,1,1.768-1.768l1.118,1.112,3.669-3.663a1.252,1.252,0,1,1,1.768,1.768L112.174,121A1.212,1.212,0,0,1,111.3,121.372Z" transform="translate(-47.538 -46.157)" fill="#2561a1"/>
        <path id="Trazado_111648" data-name="Trazado 111648" d="M132.995,85h-7.868a1.252,1.252,0,1,1,0-2.5h7.868a1.252,1.252,0,1,1,0,2.5Z" transform="translate(-52.724 -35.661)" fill="#e48e66"/>
        <path id="Trazado_111649" data-name="Trazado 111649" d="M133.04,102.124h-7.868a1.252,1.252,0,1,1,0-2.5h7.868a1.252,1.252,0,0,1,0,2.5Z" transform="translate(-52.769 -41.319)" fill="#e48e66"/>
        <path id="Trazado_111650" data-name="Trazado 111650" d="M133.04,119.244h-7.868a1.252,1.252,0,1,1,0-2.5h7.868a1.252,1.252,0,0,1,0,2.5Z" transform="translate(-52.769 -46.975)" fill="#e48e66"/>
      </g>
    </g>
  </g>
</svg>
