<svg xmlns="http://www.w3.org/2000/svg" width="138.2" height="98.372" viewBox="0 0 138.2 98.372">
  <g id="Grupo_55218" data-name="Grupo 55218" transform="translate(-366.819 -2003.314)">
    <path id="Trazado_100479" data-name="Trazado 100479" d="M732.8,1237.979v-23.618c0-2.4-2.709-4.34-6.053-4.34H652.969c-3.342,0-6.053,1.944-6.053,4.34v23.618c0,2.4-2.709,4.34-6.053,4.34H630c-5.136,0-7.938,4.3-4.647,7.123l59.852,51.391a7.705,7.705,0,0,0,9.292,0l59.857-51.391c3.293-2.827.491-7.123-4.645-7.123H738.85C735.508,1242.32,732.8,1240.378,732.8,1237.979Z" transform="translate(-253.934 796.293)" fill="#472ea6" stroke="#bbabf5" stroke-width="6"/>
    <path id="Trazado_111312" data-name="Trazado 111312" d="M17.044,12.352h-4.5V17H10.2V5.625h7.406v1.9H12.544v2.938h4.5ZM21.2,17H18.934V8.547H21.2ZM18.8,6.359a1.112,1.112,0,0,1,.34-.836,1.465,1.465,0,0,1,1.848,0,1.105,1.105,0,0,1,.344.836,1.108,1.108,0,0,1-.348.844,1.448,1.448,0,0,1-1.836,0A1.108,1.108,0,0,1,18.8,6.359Zm6.336,2.188.07.977a2.951,2.951,0,0,1,2.43-1.133,2.453,2.453,0,0,1,2,.789,3.682,3.682,0,0,1,.672,2.359V17H28.051V11.594a1.465,1.465,0,0,0-.312-1.043,1.4,1.4,0,0,0-1.039-.324,1.553,1.553,0,0,0-1.43.813V17H23.012V8.547Zm10.773,8.609a4.15,4.15,0,0,1-3.027-1.141,4.054,4.054,0,0,1-1.168-3.039v-.219a5.106,5.106,0,0,1,.492-2.277A3.612,3.612,0,0,1,33.6,8.934a3.914,3.914,0,0,1,2.059-.543,3.508,3.508,0,0,1,2.73,1.094,4.444,4.444,0,0,1,1,3.1v.922H34a2.1,2.1,0,0,0,.66,1.328,2,2,0,0,0,1.395.5,2.437,2.437,0,0,0,2.039-.945l1.109,1.242a3.389,3.389,0,0,1-1.375,1.121A4.511,4.511,0,0,1,35.911,17.156Zm-.258-6.945a1.411,1.411,0,0,0-1.09.455,2.357,2.357,0,0,0-.535,1.3h3.141v-.181a1.681,1.681,0,0,0-.406-1.165A1.456,1.456,0,0,0,35.653,10.211Zm9.594,4.453a.727.727,0,0,0-.41-.652,4.659,4.659,0,0,0-1.316-.426Q40.5,12.953,40.5,11.023a2.323,2.323,0,0,1,.934-1.879,3.766,3.766,0,0,1,2.441-.754,4.053,4.053,0,0,1,2.574.758,2.388,2.388,0,0,1,.965,1.969H45.161a1.092,1.092,0,0,0-.312-.8A1.322,1.322,0,0,0,43.872,10a1.351,1.351,0,0,0-.883.258.814.814,0,0,0-.312.656.7.7,0,0,0,.355.605,3.657,3.657,0,0,0,1.2.4,9.8,9.8,0,0,1,1.422.379,2.336,2.336,0,0,1,1.789,2.273,2.2,2.2,0,0,1-.992,1.871,4.28,4.28,0,0,1-2.562.715A4.47,4.47,0,0,1,42,16.777a3.166,3.166,0,0,1-1.293-1.039,2.414,2.414,0,0,1-.469-1.426H42.38a1.179,1.179,0,0,0,.445.922,1.766,1.766,0,0,0,1.109.32,1.635,1.635,0,0,0,.98-.246A.766.766,0,0,0,45.247,14.664Z" transform="translate(408.766 2042.974)" fill="#fff"/>
  </g>
</svg>
