<svg xmlns="http://www.w3.org/2000/svg" xmlns:xlink="http://www.w3.org/1999/xlink" width="156" height="156" viewBox="0 0 156 156">
  <defs>
    <clipPath id="clip-path">
      <rect id="Rectángulo_4924" data-name="Rectángulo 4924" width="111.073" height="112.577" fill="none"/>
    </clipPath>
    <clipPath id="clip-path-2">
      <path id="Trazado_34908" data-name="Trazado 34908" d="M56.847,89.882A35.288,35.288,0,1,1,92.135,125.15,35.318,35.318,0,0,1,56.847,89.882m-2.277,0A37.565,37.565,0,1,0,92.135,52.337,37.6,37.6,0,0,0,54.57,89.882" transform="translate(-54.57 -52.337)" fill="none"/>
    </clipPath>
    <linearGradient id="linear-gradient" x1="-0.156" y1="1.173" x2="-0.152" y2="1.173" gradientUnits="objectBoundingBox">
      <stop offset="0" stop-color="#3d4451"/>
      <stop offset="1" stop-color="#3d4451"/>
    </linearGradient>
    <clipPath id="clip-path-3">
      <path id="Trazado_34909" data-name="Trazado 34909" d="M133.541,56.429a72.246,72.246,0,0,0-8.71,22.784c-2.548,12.433-2.878,31.122,10.018,49.549a1.138,1.138,0,1,0,1.865-1.305c-12.411-17.734-12.109-35.73-9.67-47.7a71.4,71.4,0,0,1,8.409-22.089,1.138,1.138,0,0,0-1.914-1.233" transform="translate(-123.427 -55.908)" fill="none"/>
    </clipPath>
    <linearGradient id="linear-gradient-2" x1="-1.359" y1="1.263" x2="-1.346" y2="1.263" xlink:href="#linear-gradient"/>
    <clipPath id="clip-path-4">
      <path id="Trazado_34910" data-name="Trazado 34910" d="M103.5,57.707c-.187.137-18.71,13.94-20.263,34.273-.952,12.456,4.539,24.741,16.318,36.514a.57.57,0,0,0,.8-.806c-11.531-11.524-16.91-23.506-15.989-35.612,1.509-19.808,19.619-33.316,19.8-33.451a.569.569,0,0,0-.673-.918" transform="translate(-83.136 -57.597)" fill="none"/>
    </clipPath>
    <linearGradient id="linear-gradient-3" x1="-0.684" y1="1.284" x2="-0.674" y2="1.284" xlink:href="#linear-gradient"/>
    <clipPath id="clip-path-5">
      <path id="Trazado_34911" data-name="Trazado 34911" d="M156.952,52.777a1.138,1.138,0,0,0-.146,1.6,77.406,77.406,0,0,1,12.087,22.576C174.8,94.669,172.653,110.9,162.5,125.2a1.139,1.139,0,0,0,1.857,1.318c13.218-18.615,10.924-37.657,6.672-50.354a78.2,78.2,0,0,0-12.474-23.242,1.139,1.139,0,0,0-1.6-.145" transform="translate(-156.542 -52.513)" fill="none"/>
    </clipPath>
    <linearGradient id="linear-gradient-4" x1="-1.487" y1="1.251" x2="-1.477" y2="1.251" xlink:href="#linear-gradient"/>
    <clipPath id="clip-path-6">
      <path id="Trazado_34912" data-name="Trazado 34912" d="M178.851,57.827a.569.569,0,0,0,.12.8c.212.156,21.209,15.905,21.85,36.642.355,11.483-5.539,22.4-17.519,32.456a.569.569,0,0,0,.732.872c12.261-10.29,18.291-21.515,17.925-33.364-.658-21.283-22.1-37.363-22.312-37.523a.57.57,0,0,0-.8.12" transform="translate(-178.739 -57.596)" fill="none"/>
    </clipPath>
    <linearGradient id="linear-gradient-5" x1="-1.631" y1="1.28" x2="-1.621" y2="1.28" xlink:href="#linear-gradient"/>
    <clipPath id="clip-path-7">
      <path id="Trazado_34913" data-name="Trazado 34913" d="M128.814,162.211c-.28.157-28.6,15.5-71.963,1.052a1.138,1.138,0,1,0-.72,2.16,118.4,118.4,0,0,0,37.488,6.333,97.442,97.442,0,0,0,16.154-1.311c12.717-2.142,19.854-6.08,20.152-6.246a1.138,1.138,0,0,0-1.111-1.987" transform="translate(-55.352 -162.067)" fill="none"/>
    </clipPath>
    <linearGradient id="linear-gradient-6" x1="-0.231" y1="2.393" x2="-0.227" y2="2.393" xlink:href="#linear-gradient"/>
    <clipPath id="clip-path-8">
      <path id="Trazado_34914" data-name="Trazado 34914" d="M142.956,69.389c-17.465,8.449-38.592,1.377-38.8,1.3a.569.569,0,0,0-.369,1.077,66.932,66.932,0,0,0,19.368,2.9,46.659,46.659,0,0,0,20.3-4.252.569.569,0,0,0-.248-1.081.576.576,0,0,0-.248.056" transform="translate(-103.398 -69.333)" fill="none"/>
    </clipPath>
    <linearGradient id="linear-gradient-7" x1="-0.832" y1="6.431" x2="-0.824" y2="6.431" xlink:href="#linear-gradient"/>
    <clipPath id="clip-path-9">
      <path id="Trazado_34915" data-name="Trazado 34915" d="M129.709,121.15c-.238.142-24.326,14.031-68.149,1.368a.569.569,0,1,0-.316,1.094,127.723,127.723,0,0,0,35.48,5.361c21.734,0,33.4-6.746,33.567-6.846a.569.569,0,0,0-.583-.978" transform="translate(-60.833 -121.07)" fill="none"/>
    </clipPath>
    <linearGradient id="linear-gradient-8" x1="-0.278" y1="3.179" x2="-0.273" y2="3.179" xlink:href="#linear-gradient"/>
    <clipPath id="clip-path-10">
      <path id="Trazado_34916" data-name="Trazado 34916" d="M134.435,205.757c-33.259,16.708-64.817,2.26-65.132,2.112a.569.569,0,0,0-.484,1.03,81.267,81.267,0,0,0,31.267,6.045,77.079,77.079,0,0,0,34.861-8.171.569.569,0,0,0-.511-1.017" transform="translate(-68.491 -205.697)" fill="none"/>
    </clipPath>
    <linearGradient id="linear-gradient-9" x1="-0.322" y1="1.823" x2="-0.318" y2="1.823" xlink:href="#linear-gradient"/>
    <clipPath id="clip-path-11">
      <path id="Trazado_34917" data-name="Trazado 34917" d="M51.939,86.564a36.874,36.874,0,1,1,36.874,36.853A36.906,36.906,0,0,1,51.939,86.564m-2.379,0A39.254,39.254,0,1,0,88.814,47.332,39.288,39.288,0,0,0,49.56,86.564" transform="translate(-49.56 -47.332)" fill="none"/>
    </clipPath>
    <linearGradient id="linear-gradient-10" x1="-0.128" y1="1.144" x2="-0.124" y2="1.144" xlink:href="#linear-gradient"/>
    <clipPath id="clip-path-12">
      <path id="Trazado_34918" data-name="Trazado 34918" d="M153.057,5.6a2.664,2.664,0,1,1,2.664,2.661A2.666,2.666,0,0,1,153.057,5.6M155.721,0a5.6,5.6,0,1,0,5.6,5.6A5.61,5.61,0,0,0,155.721,0Z" transform="translate(-150.116)" fill="none"/>
    </clipPath>
    <linearGradient id="linear-gradient-11" x1="-3.918" y1="8.911" x2="-3.891" y2="8.911" xlink:href="#linear-gradient"/>
    <clipPath id="clip-path-13">
      <rect id="Rectángulo_4937" data-name="Rectángulo 4937" width="7.648" height="7.643" fill="none"/>
    </clipPath>
    <linearGradient id="linear-gradient-12" x1="-11.829" y1="6.62" x2="-11.79" y2="6.62" xlink:href="#linear-gradient"/>
    <clipPath id="clip-path-14">
      <path id="Trazado_34919" data-name="Trazado 34919" d="M305.96,164.881h7.2v7.2h-7.2Zm-.446,7.643h8.094v-8.089h-8.094Z" transform="translate(-305.514 -164.435)" fill="none"/>
    </clipPath>
    <linearGradient id="linear-gradient-13" x1="-11.15" y1="6.283" x2="-11.113" y2="6.283" xlink:href="#linear-gradient"/>
    <clipPath id="clip-path-15">
      <path id="Trazado_34920" data-name="Trazado 34920" d="M176.9,14.206a46.038,46.038,0,0,1,46,45.973h3.254A49.3,49.3,0,0,0,176.9,10.953Z" transform="translate(-176.9 -10.953)" fill="none"/>
    </clipPath>
    <linearGradient id="linear-gradient-14" x1="-1.007" y1="2.008" x2="-1.001" y2="2.008" xlink:href="#linear-gradient"/>
    <clipPath id="clip-path-16">
      <path id="Trazado_34921" data-name="Trazado 34921" d="M149.1,306.347a2.663,2.663,0,1,1,2.664,2.661,2.666,2.666,0,0,1-2.664-2.661m-2.941,0a5.6,5.6,0,1,0,5.6-5.6,5.61,5.61,0,0,0-5.6,5.6" transform="translate(-146.156 -300.745)" fill="none"/>
    </clipPath>
    <linearGradient id="linear-gradient-15" x1="-3.813" y1="0.94" x2="-3.786" y2="0.94" xlink:href="#linear-gradient"/>
    <linearGradient id="linear-gradient-16" x1="0.034" y1="7.354" x2="0.073" y2="7.354" xlink:href="#linear-gradient"/>
    <clipPath id="clip-path-18">
      <path id="Trazado_34922" data-name="Trazado 34922" d="M.446,146h7.2v7.2H.446ZM0,153.641H8.094v-8.089H0Z" transform="translate(0 -145.552)" fill="none"/>
    </clipPath>
    <linearGradient id="linear-gradient-17" x1="0.059" y1="6.976" x2="0.096" y2="6.976" xlink:href="#linear-gradient"/>
    <clipPath id="clip-path-19">
      <path id="Trazado_34923" data-name="Trazado 34923" d="M6.506,176.992a49.3,49.3,0,0,0,49.253,49.226v-3.253a46.038,46.038,0,0,1-46-45.973Z" transform="translate(-6.506 -176.992)" fill="none"/>
    </clipPath>
    <linearGradient id="linear-gradient-18" x1="0.02" y1="1.007" x2="0.026" y2="1.007" xlink:href="#linear-gradient"/>
    <clipPath id="clip-path-20">
      <path id="Trazado_34924" data-name="Trazado 34924" d="M112.784,132.856a4.555,4.555,0,1,0,4.555-4.552,4.554,4.554,0,0,0-4.555,4.552" transform="translate(-112.784 -128.304)" fill="none"/>
    </clipPath>
    <linearGradient id="linear-gradient-19" x1="-3.617" y1="6.767" x2="-3.584" y2="6.767" xlink:href="#linear-gradient"/>
    <clipPath id="clip-path-21">
      <path id="Trazado_34925" data-name="Trazado 34925" d="M231.025,127.2a2.277,2.277,0,1,0,2.278-2.276,2.277,2.277,0,0,0-2.278,2.276" transform="translate(-231.025 -124.927)" fill="none"/>
    </clipPath>
    <linearGradient id="linear-gradient-20" x1="-15.003" y1="13.696" x2="-14.938" y2="13.696" xlink:href="#linear-gradient"/>
    <clipPath id="clip-path-22">
      <path id="Trazado_34926" data-name="Trazado 34926" d="M92.515,218.365a2.277,2.277,0,1,0,2.278-2.276,2.277,2.277,0,0,0-2.278,2.276" transform="translate(-92.515 -216.089)" fill="none"/>
    </clipPath>
    <linearGradient id="linear-gradient-21" x1="-5.972" y1="7.75" x2="-5.907" y2="7.75" xlink:href="#linear-gradient"/>
    <clipPath id="clip-path-23">
      <path id="Trazado_34927" data-name="Trazado 34927" d="M187.107,222.879a3.416,3.416,0,1,0,3.416-3.414,3.415,3.415,0,0,0-3.416,3.414" transform="translate(-187.107 -219.465)" fill="none"/>
    </clipPath>
    <linearGradient id="linear-gradient-22" x1="-8.073" y1="5.039" x2="-8.029" y2="5.039" xlink:href="#linear-gradient"/>
  </defs>
  <g id="Grupo_18945" data-name="Grupo 18945" transform="translate(-422 -5809)">
    <g id="Elipse_1001" data-name="Elipse 1001" transform="translate(422 5809)" fill="#fff" stroke="#fd8f25" stroke-width="2">
      <circle cx="78" cy="78" r="78" stroke="none"/>
      <circle cx="78" cy="78" r="77" fill="none"/>
    </g>
    <g id="Grupo_18787" data-name="Grupo 18787" transform="translate(445 5826.411)">
      <g id="Grupo_18740" data-name="Grupo 18740" transform="translate(0 -0.001)">
        <g id="Grupo_18739" data-name="Grupo 18739" clip-path="url(#clip-path)">
          <path id="Trazado_34906" data-name="Trazado 34906" d="M87.662,123.18a30.783,30.783,0,1,1,30.783,30.783A30.783,30.783,0,0,1,87.662,123.18" transform="translate(-58.114 -61.252)" fill="#c7ddeb"/>
          <path id="Trazado_34907" data-name="Trazado 34907" d="M151.891,309.216a4.059,4.059,0,1,1,4.059,4.059,4.06,4.06,0,0,1-4.059-4.059" transform="translate(-100.693 -202.297)" fill="#f04f4c"/>
        </g>
      </g>
      <g id="Grupo_18742" data-name="Grupo 18742" transform="translate(18.394 17.641)">
        <g id="Grupo_18741" data-name="Grupo 18741" clip-path="url(#clip-path-2)">
          <rect id="Rectángulo_4925" data-name="Rectángulo 4925" width="85.278" height="85.244" transform="translate(-10.834 1.597) rotate(-8.386)" fill="url(#linear-gradient)"/>
        </g>
      </g>
      <g id="Grupo_18744" data-name="Grupo 18744" transform="translate(41.604 18.844)">
        <g id="Grupo_18743" data-name="Grupo 18743" clip-path="url(#clip-path-3)">
          <rect id="Rectángulo_4926" data-name="Rectángulo 4926" width="25.656" height="74.761" transform="translate(-12.055 1.56) rotate(-8.386)" fill="url(#linear-gradient-2)"/>
        </g>
      </g>
      <g id="Grupo_18746" data-name="Grupo 18746" transform="translate(28.023 19.414)">
        <g id="Grupo_18745" data-name="Grupo 18745" clip-path="url(#clip-path-4)">
          <rect id="Rectángulo_4927" data-name="Rectángulo 4927" width="32.322" height="73.54" transform="translate(-11.099 1.511) rotate(-8.386)" fill="url(#linear-gradient-3)"/>
        </g>
      </g>
      <g id="Grupo_18748" data-name="Grupo 18748" transform="translate(52.766 17.7)">
        <g id="Grupo_18747" data-name="Grupo 18747" clip-path="url(#clip-path-5)">
          <rect id="Rectángulo_4928" data-name="Rectángulo 4928" width="31.806" height="76.775" transform="translate(-10.885 1.584) rotate(-8.386)" fill="url(#linear-gradient-4)"/>
        </g>
      </g>
      <g id="Grupo_18750" data-name="Grupo 18750" transform="translate(60.248 19.413)">
        <g id="Grupo_18749" data-name="Grupo 18749" clip-path="url(#clip-path-6)">
          <rect id="Rectángulo_4929" data-name="Rectángulo 4929" width="33.781" height="73.821" transform="translate(-10.338 1.513) rotate(-8.386)" fill="url(#linear-gradient-5)"/>
        </g>
      </g>
      <g id="Grupo_18752" data-name="Grupo 18752" transform="translate(18.657 54.627)">
        <g id="Grupo_18751" data-name="Grupo 18751" clip-path="url(#clip-path-7)">
          <rect id="Rectángulo_4930" data-name="Rectángulo 4930" width="76.932" height="26.48" transform="translate(-2.397 0.333) rotate(-8.386)" fill="url(#linear-gradient-6)"/>
        </g>
      </g>
      <g id="Grupo_18754" data-name="Grupo 18754" transform="translate(34.853 23.369)">
        <g id="Grupo_18753" data-name="Grupo 18753" clip-path="url(#clip-path-8)">
          <rect id="Rectángulo_4931" data-name="Rectángulo 4931" width="41.334" height="14.325" transform="translate(-1.298 0.181) rotate(-8.386)" fill="url(#linear-gradient-7)"/>
        </g>
      </g>
      <g id="Grupo_18756" data-name="Grupo 18756" transform="translate(20.505 40.808)">
        <g id="Grupo_18755" data-name="Grupo 18755" clip-path="url(#clip-path-9)">
          <rect id="Rectángulo_4932" data-name="Rectángulo 4932" width="71.192" height="24.151" transform="matrix(0.989, -0.146, 0.146, 0.989, -2.1, 0.3)" fill="url(#linear-gradient-8)"/>
        </g>
      </g>
      <g id="Grupo_18758" data-name="Grupo 18758" transform="translate(23.086 69.334)">
        <g id="Grupo_18757" data-name="Grupo 18757" clip-path="url(#clip-path-10)">
          <rect id="Rectángulo_4933" data-name="Rectángulo 4933" width="68.658" height="26.349" transform="translate(-2.499 0.357) rotate(-8.386)" fill="url(#linear-gradient-9)"/>
        </g>
      </g>
      <g id="Grupo_18760" data-name="Grupo 18760" transform="translate(16.705 15.954)">
        <g id="Grupo_18759" data-name="Grupo 18759" clip-path="url(#clip-path-11)">
          <rect id="Rectángulo_4934" data-name="Rectángulo 4934" width="89.111" height="89.075" transform="translate(-11.32 1.669) rotate(-8.386)" fill="url(#linear-gradient-10)"/>
        </g>
      </g>
      <g id="Grupo_18762" data-name="Grupo 18762" transform="translate(50.6 -0.001)">
        <g id="Grupo_18761" data-name="Grupo 18761" clip-path="url(#clip-path-12)">
          <rect id="Rectángulo_4935" data-name="Rectángulo 4935" width="12.723" height="12.719" transform="translate(-1.616 0.238) rotate(-8.386)" fill="url(#linear-gradient-11)"/>
        </g>
      </g>
      <g id="Grupo_18764" data-name="Grupo 18764" transform="translate(103.203 55.649)">
        <g id="Grupo_18763" data-name="Grupo 18763" clip-path="url(#clip-path-13)">
          <rect id="Rectángulo_4936" data-name="Rectángulo 4936" width="8.681" height="8.677" transform="matrix(0.989, -0.146, 0.146, 0.989, -1.103, 0.163)" fill="url(#linear-gradient-12)"/>
        </g>
      </g>
      <g id="Grupo_18766" data-name="Grupo 18766" transform="translate(102.98 55.425)">
        <g id="Grupo_18765" data-name="Grupo 18765" clip-path="url(#clip-path-14)">
          <rect id="Rectángulo_4938" data-name="Rectángulo 4938" width="9.187" height="9.183" transform="translate(-1.167 0.172) rotate(-8.386)" fill="url(#linear-gradient-13)"/>
        </g>
      </g>
      <g id="Grupo_18768" data-name="Grupo 18768" transform="translate(59.628 3.691)">
        <g id="Grupo_18767" data-name="Grupo 18767" clip-path="url(#clip-path-15)">
          <rect id="Rectángulo_4939" data-name="Rectángulo 4939" width="55.905" height="55.882" transform="translate(-7.102 1.047) rotate(-8.386)" fill="url(#linear-gradient-14)"/>
        </g>
      </g>
      <g id="Grupo_18770" data-name="Grupo 18770" transform="translate(49.265 101.371)">
        <g id="Grupo_18769" data-name="Grupo 18769" clip-path="url(#clip-path-16)">
          <rect id="Rectángulo_4940" data-name="Rectángulo 4940" width="12.723" height="12.719" transform="translate(-1.617 0.238) rotate(-8.386)" fill="url(#linear-gradient-15)"/>
        </g>
      </g>
      <g id="Grupo_18772" data-name="Grupo 18772" transform="translate(0.223 49.283)">
        <g id="Grupo_18771" data-name="Grupo 18771" clip-path="url(#clip-path-13)">
          <rect id="Rectángulo_4941" data-name="Rectángulo 4941" width="8.681" height="8.677" transform="translate(-1.103 0.163) rotate(-8.386)" fill="url(#linear-gradient-16)"/>
        </g>
      </g>
      <g id="Grupo_18774" data-name="Grupo 18774" transform="translate(0 49.061)">
        <g id="Grupo_18773" data-name="Grupo 18773" clip-path="url(#clip-path-18)">
          <rect id="Rectángulo_4943" data-name="Rectángulo 4943" width="9.187" height="9.184" transform="translate(-1.167 0.172) rotate(-8.386)" fill="url(#linear-gradient-17)"/>
        </g>
      </g>
      <g id="Grupo_18776" data-name="Grupo 18776" transform="translate(2.193 59.658)">
        <g id="Grupo_18775" data-name="Grupo 18775" clip-path="url(#clip-path-19)">
          <rect id="Rectángulo_4944" data-name="Rectángulo 4944" width="55.905" height="55.882" transform="matrix(0.989, -0.146, 0.146, 0.989, -7.102, 1.047)" fill="url(#linear-gradient-18)"/>
        </g>
      </g>
      <g id="Grupo_18778" data-name="Grupo 18778" transform="translate(38.016 43.247)">
        <g id="Grupo_18777" data-name="Grupo 18777" clip-path="url(#clip-path-20)">
          <rect id="Rectángulo_4945" data-name="Rectángulo 4945" width="10.34" height="10.335" transform="translate(-1.314 0.194) rotate(-8.386)" fill="url(#linear-gradient-19)"/>
        </g>
      </g>
      <g id="Grupo_18780" data-name="Grupo 18780" transform="translate(77.872 42.108)">
        <g id="Grupo_18779" data-name="Grupo 18779" clip-path="url(#clip-path-21)">
          <rect id="Rectángulo_4946" data-name="Rectángulo 4946" width="5.17" height="5.168" transform="translate(-0.657 0.097) rotate(-8.386)" fill="url(#linear-gradient-20)"/>
        </g>
      </g>
      <g id="Grupo_18782" data-name="Grupo 18782" transform="translate(31.184 72.836)">
        <g id="Grupo_18781" data-name="Grupo 18781" clip-path="url(#clip-path-22)">
          <rect id="Rectángulo_4947" data-name="Rectángulo 4947" width="5.17" height="5.168" transform="translate(-0.657 0.097) rotate(-8.386)" fill="url(#linear-gradient-21)"/>
        </g>
      </g>
      <g id="Grupo_18784" data-name="Grupo 18784" transform="translate(63.068 73.974)">
        <g id="Grupo_18783" data-name="Grupo 18783" clip-path="url(#clip-path-23)">
          <rect id="Rectángulo_4948" data-name="Rectángulo 4948" width="7.755" height="7.752" transform="matrix(0.989, -0.146, 0.146, 0.989, -0.985, 0.145)" fill="url(#linear-gradient-22)"/>
        </g>
      </g>
      <g id="Grupo_18786" data-name="Grupo 18786" transform="translate(0 -0.001)">
        <g id="Grupo_18785" data-name="Grupo 18785" clip-path="url(#clip-path)">
          <path id="Trazado_34928" data-name="Trazado 34928" d="M156.909,10.137a3.045,3.045,0,1,1,3.044,3.044,3.045,3.045,0,0,1-3.044-3.044" transform="translate(-104.02 -4.702)" fill="#fdc345"/>
        </g>
      </g>
    </g>
  </g>
</svg>
