<svg id="Grupo_18859" data-name="Grupo 18859" xmlns="http://www.w3.org/2000/svg" xmlns:xlink="http://www.w3.org/1999/xlink" width="118.315" height="118.902" viewBox="0 0 118.315 118.902">
  <defs>
    <clipPath id="clip-path">
      <rect id="Rectángulo_5018" data-name="Rectángulo 5018" width="118.315" height="118.902" fill="none"/>
    </clipPath>
  </defs>
  <g id="Grupo_18858" data-name="Grupo 18858" clip-path="url(#clip-path)">
    <path id="Trazado_35122" data-name="Trazado 35122" d="M87.85,30.882a44.121,44.121,0,1,0,0,62.4,44.12,44.12,0,0,0,0-62.4M82.733,88.161a36.884,36.884,0,1,1,0-52.161,36.884,36.884,0,0,1,0,52.161" transform="translate(-8.888 -12.737)" fill="#c7ddeb"/>
    <path id="Trazado_35123" data-name="Trazado 35123" d="M325.12,326.164c1.809,1.809,2.063,4.658.463,6.259l-4.245,4.245c-1.6,1.6-4.45,1.346-6.258-.464l-16.147-16.147a4.388,4.388,0,0,1-.378-6.173l4.245-4.245a4.389,4.389,0,0,1,6.173.377Z" transform="translate(-210.964 -218.826)" fill="#c7ddeb"/>
    <path id="Trazado_35124" data-name="Trazado 35124" d="M127.806,205.831c0,2.928-10.93,5.3-24.413,5.3s-24.413-2.374-24.413-5.3,10.93-5.3,24.413-5.3,24.413,2.374,24.413,5.3" transform="translate(-56.015 -142.22)" fill="#7eb9c7"/>
    <path id="Trazado_35125" data-name="Trazado 35125" d="M45.924,91.826A45.886,45.886,0,1,1,78.4,78.4,45.782,45.782,0,0,1,45.924,91.826m0-88.22A42.319,42.319,0,1,0,75.847,16a42.042,42.042,0,0,0-29.923-12.4" transform="translate(-0.001)" fill="#3d4451"/>
    <path id="Trazado_35126" data-name="Trazado 35126" d="M65.215,103.231A38.014,38.014,0,1,1,92.109,92.109a37.912,37.912,0,0,1-26.893,11.121m0-73.866A35.851,35.851,0,1,0,90.579,39.853,35.754,35.754,0,0,0,65.216,29.365" transform="translate(-19.292 -19.293)" fill="#3d4451"/>
    <path id="Trazado_35127" data-name="Trazado 35127" d="M268.981,266.929l-13.1-13.1,8.4-8.4,13.1,13.1Zm-10.5-13.1,10.5,10.5,5.8-5.8-10.5-10.5Z" transform="translate(-181.478 -174.065)" fill="#3d4451"/>
    <path id="Trazado_35128" data-name="Trazado 35128" d="M318.606,318.6c-.081,0-.162,0-.244-.005a5.71,5.71,0,0,1-3.8-1.679L298.42,300.771a5.513,5.513,0,0,1-1.637-3.766,5.047,5.047,0,0,1,1.472-3.739l4.558-4.558a5.028,5.028,0,0,1,3.739-1.472,5.516,5.516,0,0,1,3.766,1.636l16.148,16.147a5.709,5.709,0,0,1,1.678,3.8,4.984,4.984,0,0,1-1.429,3.8l-4.557,4.558a4.959,4.959,0,0,1-3.552,1.434m-12.192-29.785a3.47,3.47,0,0,0-2.481,1.011l-4.558,4.558a3.478,3.478,0,0,0-1.009,2.579,3.941,3.941,0,0,0,1.174,2.688L315.686,315.8a4.186,4.186,0,0,0,2.744,1.216,3.43,3.43,0,0,0,2.609-.967l4.557-4.558a3.42,3.42,0,0,0,.967-2.608,4.187,4.187,0,0,0-1.217-2.745L309.2,289.992a3.938,3.938,0,0,0-2.688-1.174h-.1" transform="translate(-210.485 -203.715)" fill="#3d4451"/>
    <path id="Trazado_35129" data-name="Trazado 35129" d="M317.019,317.666c-.091,0-.181,0-.273-.006a6.356,6.356,0,0,1-4.227-1.869l-16.147-16.147a6.162,6.162,0,0,1-1.827-4.21,5.69,5.69,0,0,1,1.662-4.216l4.558-4.558A5.714,5.714,0,0,1,304.981,285a6.163,6.163,0,0,1,4.21,1.827l16.148,16.147a6.361,6.361,0,0,1,1.869,4.228,5.628,5.628,0,0,1-1.62,4.284l-4.557,4.558a5.6,5.6,0,0,1-4.011,1.625m-12.192-29.786a2.827,2.827,0,0,0-2.022.82l-4.558,4.558a2.833,2.833,0,0,0-.819,2.1,3.29,3.29,0,0,0,.983,2.244l16.147,16.147a3.528,3.528,0,0,0,2.312,1.026A2.777,2.777,0,0,0,318.99,314l4.558-4.558a2.777,2.777,0,0,0,.777-2.119,3.528,3.528,0,0,0-1.026-2.312l-16.148-16.147a3.288,3.288,0,0,0-2.244-.983h-.08" transform="translate(-208.898 -202.127)" fill="#3d4451"/>
    <path id="Trazado_35130" data-name="Trazado 35130" d="M330.026,337.022a.788.788,0,0,1-.559-.232l-15.145-15.145a.791.791,0,0,1,1.119-1.119l15.145,15.145a.792.792,0,0,1-.559,1.351" transform="translate(-222.761 -227.162)" fill="#3d4451"/>
    <path id="Trazado_35131" data-name="Trazado 35131" d="M131.929,272.112a10.194,10.194,0,1,0-9.654-9.645,10.194,10.194,0,0,0,9.654,9.645" transform="translate(-86.711 -178.54)" fill="#7eb9c7"/>
    <path id="Trazado_35132" data-name="Trazado 35132" d="M129.233,270.235q-.288,0-.577-.015h0a11.54,11.54,0,1,1,.578.015m-.446-2.641a8.879,8.879,0,1,0-8.407-8.4,8.915,8.915,0,0,0,8.407,8.4Z" transform="translate(-83.504 -175.335)" fill="#3d4451"/>
    <path id="Trazado_35133" data-name="Trazado 35133" d="M130.437,346.671a3.357,3.357,0,0,0,3.285-4.024c-1.766-8.843-8.985-16.755-17.624-16.755s-15.855,7.912-17.622,16.755a3.357,3.357,0,0,0,3.285,4.024Z" transform="translate(-69.795 -231.132)" fill="#7eb9c7"/>
    <path id="Trazado_35134" data-name="Trazado 35134" d="M127.23,344.779H98.554a4.672,4.672,0,0,1-4.574-5.6c2.028-10.155,10.158-17.812,18.911-17.812s16.885,7.658,18.913,17.812a4.672,4.672,0,0,1-4.574,5.6M112.891,324a15.006,15.006,0,0,0-10.461,4.679A21.631,21.631,0,0,0,96.559,339.7a2.051,2.051,0,0,0,.425,1.708,2.024,2.024,0,0,0,1.57.743H127.23a2.024,2.024,0,0,0,1.57-.743,2.051,2.051,0,0,0,.425-1.709,21.629,21.629,0,0,0-5.872-11.018A15.008,15.008,0,0,0,112.891,324" transform="translate(-66.588 -227.925)" fill="#3d4451"/>
    <rect id="Rectángulo_5016" data-name="Rectángulo 5016" width="27.328" height="29.013" transform="translate(37.877 31.5)" fill="#fdc345"/>
    <rect id="Rectángulo_5017" data-name="Rectángulo 5017" width="23.672" height="26.71" transform="translate(34.282 27.042)" fill="#fdc345"/>
    <path id="Trazado_35135" data-name="Trazado 35135" d="M158.413,141.183H128.284v-6.026h2.331v3.7h25.467V110.89h-5.089V108.56h7.42Z" transform="translate(-90.983 -76.994)" fill="#3d4451"/>
    <path id="Trazado_35136" data-name="Trazado 35136" d="M130.13,112.9H99.6V78.238H130.13Zm-28.195-2.331H127.8v-30H101.936Z" transform="translate(-70.643 -55.489)" fill="#3d4451"/>
    <path id="Trazado_35137" data-name="Trazado 35137" d="M133.435,117.112a2.879,2.879,0,0,1-1.951-.86L121.9,106.8a2.121,2.121,0,0,1,.211-3.256,2.881,2.881,0,0,1,3.69.173l7.5,7.362L148.9,93.643a2.869,2.869,0,0,1,3.67-.393,2.1,2.1,0,0,1,.445,3.213L135.491,116.14a2.754,2.754,0,0,1-1.974.972Z" transform="translate(-85.985 -65.791)" fill="#4ece46"/>
    <path id="Trazado_35138" data-name="Trazado 35138" d="M130.945,115.582h-.082a3.911,3.911,0,0,1-2.69-1.161l-9.585-9.459a3.206,3.206,0,0,1-.972-2.46,3.268,3.268,0,0,1,1.275-2.378,3.919,3.919,0,0,1,5.077.251l6.715,6.589,14.856-16.608a3.906,3.906,0,0,1,5.052-.559,3.3,3.3,0,0,1,1.438,2.308,3.122,3.122,0,0,1-.8,2.477l-17.519,19.675a3.809,3.809,0,0,1-2.761,1.325m-9.653-14.159a1.8,1.8,0,0,0-1.1.363,1.144,1.144,0,0,0-.467.835,1.084,1.084,0,0,0,.345.837l9.585,9.459a1.818,1.818,0,0,0,1.211.556h.082a1.733,1.733,0,0,0,1.187-.619l17.52-19.677a1.03,1.03,0,0,0,.282-.823,1.183,1.183,0,0,0-.538-.821,1.813,1.813,0,0,0-2.285.227l-16.329,18.255-8.291-8.136a1.716,1.716,0,0,0-1.2-.457" transform="translate(-83.413 -63.207)" fill="#3d4451"/>
  </g>
</svg>
