<svg xmlns="http://www.w3.org/2000/svg" xmlns:xlink="http://www.w3.org/1999/xlink" width="136.224" height="125.707" viewBox="0 0 136.224 125.707">
  <defs>
    <clipPath id="clip-path">
      <rect id="Rectángulo_3222" data-name="Rectángulo 3222" width="136.224" height="125.707" fill="none"/>
    </clipPath>
  </defs>
  <g id="Grupo_18953" data-name="Grupo 18953" transform="translate(-1232.964 -10797.888)">
    <g id="Grupo_18860" data-name="Grupo 18860" transform="translate(1232.964 10797.888)">
      <g id="Grupo_12146" data-name="Grupo 12146" clip-path="url(#clip-path)">
        <path id="Trazado_31898" data-name="Trazado 31898" d="M48.126,118.091a47.211,47.211,0,1,1,47.211,47.177,47.194,47.194,0,0,1-47.211-47.177" transform="translate(-32.062 -47.242)" fill="#c7ddeb"/>
        <path id="Trazado_31899" data-name="Trazado 31899" d="M157.243,174.8a8.532,8.532,0,1,1,8.532,8.532,8.532,8.532,0,0,1-8.532-8.532" transform="translate(-104.755 -110.767)" fill="#f04f4c"/>
        <path id="Trazado_31900" data-name="Trazado 31900" d="M162.734,181.813a10.055,10.055,0,1,1,10.055-10.055,10.067,10.067,0,0,1-10.055,10.055m0-17.063a7.008,7.008,0,1,0,7.008,7.008,7.016,7.016,0,0,0-7.008-7.008" transform="translate(-101.715 -107.727)" fill="#3d4451"/>
        <path id="Trazado_31901" data-name="Trazado 31901" d="M137.942,169.936a22.97,22.97,0,1,1,22.97-22.969,23,23,0,0,1-22.97,22.969m0-42a19.032,19.032,0,1,0,19.032,19.032,19.053,19.053,0,0,0-19.032-19.032" transform="translate(-76.595 -82.607)" fill="#3d4451"/>
        <path id="Trazado_31902" data-name="Trazado 31902" d="M103.232,152.618a40.361,40.361,0,1,1,40.361-40.361,40.406,40.406,0,0,1-40.361,40.361m0-74.159a33.8,33.8,0,1,0,33.8,33.8,33.836,33.836,0,0,0-33.8-33.8" transform="translate(-41.885 -47.898)" fill="#3d4451"/>
        <path id="Trazado_31903" data-name="Trazado 31903" d="M61.347,131.719a61.347,61.347,0,1,1,61.347-61.347,61.417,61.417,0,0,1-61.347,61.347m0-112.879a51.532,51.532,0,1,0,51.532,51.532A51.59,51.59,0,0,0,61.347,18.841" transform="translate(0 -6.012)" fill="#3d4451"/>
        <path id="Trazado_31904" data-name="Trazado 31904" d="M178.219,113.9a2.3,2.3,0,0,1-1.444-4.085l47.58-38.392A2.3,2.3,0,1,1,227.239,75L179.66,113.39a2.289,2.289,0,0,1-1.441.509" transform="translate(-117.198 -47.243)" fill="#3d4451"/>
        <path id="Trazado_31905" data-name="Trazado 31905" d="M281.367,42.3,278.51,25.977l17.548-14.383L298.1,30.253Z" transform="translate(-185.544 -7.724)" fill="#f04f4c"/>
        <path id="Trazado_31906" data-name="Trazado 31906" d="M275.637,38.052l-3.6-20.6L293.322,0l2.566,23.466Zm.72-19,2.109,12.051,13.212-9.515L290.162,7.74Z" transform="translate(-181.228)" fill="#3d4451"/>
        <path id="Trazado_31907" data-name="Trazado 31907" d="M289.692,82.775l15.629,7.234,19.451-11.957L306.564,70.9Z" transform="translate(-192.993 -47.236)" fill="#f04f4c"/>
        <path id="Trazado_31908" data-name="Trazado 31908" d="M297.533,87.784,277.8,78.651l20.571-14.475,22.922,9ZM285.74,77.936l11.527,5.335,15.14-9.306-13.494-5.3Z" transform="translate(-185.073 -42.754)" fill="#3d4451"/>
      </g>
    </g>
  </g>
</svg>
