<svg xmlns="http://www.w3.org/2000/svg" xmlns:xlink="http://www.w3.org/1999/xlink" width="156" height="156" viewBox="0 0 156 156">
  <defs>
    <clipPath id="clip-path">
      <rect id="Rectángulo_4967" data-name="Rectángulo 4967" width="105.313" height="68.861" fill="none"/>
    </clipPath>
  </defs>
  <g id="Grupo_18948" data-name="Grupo 18948" transform="translate(-422 -6422)">
    <g id="Elipse_1004" data-name="Elipse 1004" transform="translate(422 6422)" fill="#fff" stroke="#fd8f25" stroke-width="2">
      <circle cx="78" cy="78" r="78" stroke="none"/>
      <circle cx="78" cy="78" r="77" fill="none"/>
    </g>
    <g id="Grupo_18795" data-name="Grupo 18795" transform="translate(448 6458.949)">
      <path id="Trazado_34963" data-name="Trazado 34963" d="M235.689,228.333l-11.31,6.085-11.31-6.085v-12.17l11.31-6.085,11.31,6.085Z" transform="translate(-173.07 -170.641)" fill="#f5fafc"/>
      <path id="Trazado_34964" data-name="Trazado 34964" d="M246.012,241.976l-8.1,4.572-8.1-4.572v-9.144l8.1-4.572,8.1,4.572Z" transform="translate(-186.663 -185.409)" fill="#fdc345"/>
      <path id="Trazado_34965" data-name="Trazado 34965" d="M221.755,232.126l-11.916-6.411V212.82l11.916-6.411,11.916,6.411v12.894Zm-10.7-7.136,10.7,5.759,10.7-5.759V213.545l-10.7-5.759-10.7,5.759Z" transform="translate(-170.446 -167.66)" fill="#3d4451"/>
      <rect id="Rectángulo_4962" data-name="Rectángulo 4962" width="1.213" height="12.519" transform="translate(50.535 51.298)" fill="#3d4451"/>
      <rect id="Rectángulo_4963" data-name="Rectángulo 4963" width="12.767" height="1.213" transform="translate(51.023 50.765) rotate(-26.938)" fill="#3d4451"/>
      <rect id="Rectángulo_4964" data-name="Rectángulo 4964" width="1.213" height="12.671" transform="translate(39.747 46.063) rotate(-62.846)" fill="#3d4451"/>
      <g id="Grupo_18794" data-name="Grupo 18794">
        <g id="Grupo_18793" data-name="Grupo 18793" clip-path="url(#clip-path)">
          <path id="Trazado_34966" data-name="Trazado 34966" d="M59.927,228l2.729,6.969c-8.474,1.53-17.234,10.538-17.234,10.538L46,234.973l-8.33-3.4s10.771-11.388,20.25-11.388" transform="translate(-30.595 -178.851)" fill="#f04f4c"/>
          <path id="Trazado_34967" data-name="Trazado 34967" d="M38.14,244.061l.664-12.185-8.915-3.638.847-.9a54.263,54.263,0,0,1,6.684-5.794c5.294-3.887,10.065-5.858,14.179-5.858v1.687c-2.572,0-6.943.957-13.158,5.514a55.478,55.478,0,0,0-5.6,4.73l7.71,3.146-.491,9.007c2.787-2.543,8.884-7.554,15.128-9.072l-2.366-6.043,1.571-.615,3.1,7.924-1.01.182c-8.1,1.463-16.694,10.208-16.779,10.3Z" transform="translate(-24.279 -175.2)" fill="#3d4451"/>
          <path id="Trazado_34968" data-name="Trazado 34968" d="M380.069,228l-2.729,6.969c8.474,1.53,17.235,10.538,17.235,10.538L394,234.973l8.33-3.4s-10.772-11.388-20.251-11.388" transform="translate(-306.502 -178.851)" fill="#f04f4c"/>
          <path id="Trazado_34969" data-name="Trazado 34969" d="M390.521,244.061l-1.57-1.612c-.086-.088-8.675-8.833-16.779-10.3l-1.01-.182,3.1-7.924,1.571.615L373.47,230.7c6.243,1.517,12.341,6.528,15.128,9.072l-.491-9.007,7.71-3.146a55.5,55.5,0,0,0-5.6-4.73c-3.43-2.515-8.5-5.514-13.158-5.514v-1.687c4.115,0,8.885,1.971,14.179,5.858a54.252,54.252,0,0,1,6.684,5.794l.847.9-8.915,3.638Z" transform="translate(-301.484 -175.2)" fill="#3d4451"/>
          <path id="Trazado_34970" data-name="Trazado 34970" d="M154.6,148.742l-6.673,15.048c-18.146-13.631-39.87-13.626-58.011,0l-6.672-15.048c22.136-16.783,49.221-16.783,71.356,0" transform="translate(-67.618 -110.594)" fill="#fff"/>
          <path id="Trazado_34971" data-name="Trazado 34971" d="M142.3,158.621c-18.266-14.2-40.4-14.2-58.656,0q-3.864-8.409-7.726-16.819c10.7-8.406,23.28-13.941,37.054-13.941s26.354,5.533,37.054,13.941L142.3,158.621m-57.983-3.136c18.015-13.043,39.294-13.043,57.309,0l5.663-13.238c-21.423-15.645-47.215-15.644-68.636,0q2.832,6.619,5.663,13.238" transform="translate(-61.666 -103.858)" fill="#3d4451"/>
          <path id="Trazado_34972" data-name="Trazado 34972" d="M166.13,166.332c-1.4,2.655-2.523,5.429-3.922,8.083-8.953-5.1-17.6-8.917-28.059-8.62-10.367.295-18.675,3.833-27.553,8.99a54.865,54.865,0,0,0-4.052-8.083c10.234-6.1,19.558-9.943,31.605-10.224,12.148-.283,21.678,3.775,31.982,9.854" transform="translate(-83.293 -127.091)" fill="#f04f4c"/>
          <path id="Trazado_34973" data-name="Trazado 34973" d="M156.793,172.232c-9.063-5.244-17.8-9.268-28.434-8.969-10.54.3-19.053,4.086-28.063,9.339a61.978,61.978,0,0,0-4.879-9.281c5.248-3.111,10.5-6.483,16.324-8.428a57.155,57.155,0,0,1,16.618-2.457c12.714-.293,22.555,4.17,33.313,10.515-1.76,3.034-3.12,6.247-4.879,9.281m-55.437-1.815c8.706-5.033,16.865-8.337,27-8.621,10.267-.288,18.764,3.293,27.6,8.251,1.088-2.289,2.036-4.632,3.124-6.921-9.874-5.793-19.161-9.489-30.719-9.221-11.472.266-20.528,3.754-30.326,9.591a53.046,53.046,0,0,1,3.323,6.921" transform="translate(-77.504 -123.808)" fill="#3d4451"/>
          <path id="Trazado_34974" data-name="Trazado 34974" d="M262.356,16.5l-7.142-.008.008-6.782s0-2.858,0-3.418a1.187,1.187,0,0,0-.5-.9l-4.091,0c-.673,0-.841.335-.841.335s-3.709,8.459-5.337,11.2a5.849,5.849,0,0,1-4.936,2.628L239.5,34.127l4.821.005,3.136,2.693,13.283.015a3.484,3.484,0,0,0,2.239-.811l1.6-1.335a3.485,3.485,0,0,0,1.249-2.669l.014-12.041a3.484,3.484,0,0,0-3.48-3.488" transform="translate(-194.538 -4.376)" fill="#f5fafc"/>
          <path id="Trazado_34975" data-name="Trazado 34975" d="M261.022,49.11l-6.727-.008L254.3,43.8s0-2.236,0-2.674a.929.929,0,0,0-.476-.7l-3.854,0c-.634,0-.792.262-.792.262s-3.491,6.616-5.025,8.762S239.51,51.5,239.51,51.5L239.5,62.9l4.541.005,2.954,2.107,12.511.014a3.71,3.71,0,0,0,2.109-.634l1.5-1.044a2.568,2.568,0,0,0,1.176-2.087l.011-9.419a2.67,2.67,0,0,0-1.587-2.337,3.8,3.8,0,0,0-1.691-.392" transform="translate(-194.536 -32.83)" fill="#fdc345"/>
          <path id="Trazado_34976" data-name="Trazado 34976" d="M256.363,33.476h0L242.7,33.461l-3.136-2.693-5.458-.006.019-16.631,1.045.037a4.787,4.787,0,0,0,4.031-2.134c1.578-2.659,5.244-11.009,5.28-11.093L244.5.894A1.861,1.861,0,0,1,246.247,0h0l4.4.005.254.17a2.164,2.164,0,0,1,.955,1.74l-.01,9.189,6.131.007a4.495,4.495,0,0,1,4.49,4.5l-.014,12.041a4.486,4.486,0,0,1-1.611,3.443l-1.6,1.335a4.5,4.5,0,0,1-2.884,1.047m-12.912-2.037,12.909.014h0a2.478,2.478,0,0,0,1.586-.576l1.6-1.335a2.465,2.465,0,0,0,.887-1.894l.014-12.041a2.472,2.472,0,0,0-2.47-2.476l-8.153-.009.012-11.1-3.586,0h-.033c-.659,1.495-3.78,8.523-5.275,11.042a6.533,6.533,0,0,1-4.8,3.049l-.014,12.627,4.184,0Z" transform="translate(-190.158)" fill="#3d4451"/>
          <rect id="Rectángulo_4965" data-name="Rectángulo 4965" width="19.168" height="16.022" transform="matrix(0.001, -1, 1, 0.001, 30.769, 32.117)" fill="#7eb9c7"/>
          <path id="Trazado_34977" data-name="Trazado 34977" d="M176.553,84.8l-18.045-.02.024-21.19,18.045.02Zm-16.02-2.04,14,.016.02-17.145-14-.016Z" transform="translate(-128.751 -51.648)" fill="#3d4451"/>
          <rect id="Rectángulo_4966" data-name="Rectángulo 4966" width="3.767" height="13.452" transform="matrix(0.001, -1, 1, 0.001, 32.1, 17.919)" fill="#f5fafc"/>
          <path id="Trazado_34978" data-name="Trazado 34978" d="M72.482,107.793l2.973-3.832a.64.64,0,0,0,.089-.628l-1.786-4.509,3.832,2.973a.64.64,0,0,0,.628.089l4.509-1.786-2.973,3.832a.639.639,0,0,0-.089.628l1.786,4.509L77.619,106.1a.64.64,0,0,0-.628-.089Z" transform="translate(-58.875 -80.272)" fill="#fdc345"/>
          <path id="Trazado_34979" data-name="Trazado 34979" d="M75.634,103.658l-5.382-4.176a.1.1,0,0,0-.1-.014l-6.334,2.508,4.176-5.382a.1.1,0,0,0,.014-.1L65.5,90.159l5.382,4.175a.1.1,0,0,0,.1.014l6.333-2.508L73.14,97.223a.1.1,0,0,0-.014.1Zm-5.447-5.27a1.181,1.181,0,0,1,.723.246l2.281,1.77L72.128,97.72a1.181,1.181,0,0,1,.164-1.155l1.77-2.281-2.685,1.063a1.181,1.181,0,0,1-1.155-.164l-2.281-1.77L69,96.1a1.182,1.182,0,0,1-.164,1.155l-1.77,2.282,2.685-1.063a1.176,1.176,0,0,1,.432-.082" transform="translate(-51.836 -73.233)" fill="#3d4451"/>
          <path id="Trazado_34980" data-name="Trazado 34980" d="M6.758,206.226l2.12-3.715a.566.566,0,0,0,0-.56l-2.12-3.715,3.716,2.12a.564.564,0,0,0,.559,0l3.716-2.12-2.12,3.715a.566.566,0,0,0,0,.56l2.12,3.715-3.716-2.12a.564.564,0,0,0-.559,0Z" transform="translate(-5.489 -161.021)" fill="#fdc345"/>
          <path id="Trazado_34981" data-name="Trazado 34981" d="M10.528,202.006l-5.219-2.977a.092.092,0,0,0-.09,0L0,202.006l2.977-5.219a.092.092,0,0,0,0-.091L0,191.478l5.219,2.977a.092.092,0,0,0,.09,0l5.219-2.977L7.551,196.7a.092.092,0,0,0,0,.091Zm-5.264-3.935a1.037,1.037,0,0,1,.515.136l2.212,1.262-1.262-2.212a1.042,1.042,0,0,1,0-1.029l1.262-2.212-2.212,1.262a1.042,1.042,0,0,1-1.029,0l-2.212-1.262L3.8,196.228a1.042,1.042,0,0,1,0,1.029l-1.262,2.212,2.212-1.262a1.036,1.036,0,0,1,.514-.136" transform="translate(0 -155.532)" fill="#3d4451"/>
          <path id="Trazado_34982" data-name="Trazado 34982" d="M421.468,100.531l4.3,2.454a.653.653,0,0,0,.648,0l4.3-2.454-2.454,4.3a.653.653,0,0,0,0,.648l2.454,4.3-4.3-2.454a.655.655,0,0,0-.648,0l-4.3,2.454,2.454-4.3a.654.654,0,0,0,0-.648Z" transform="translate(-342.346 -81.658)" fill="#fdc345"/>
          <path id="Trazado_34983" data-name="Trazado 34983" d="M413.643,104.9l3.447-6.042a.106.106,0,0,0,0-.1l-3.447-6.042,6.042,3.447a.105.105,0,0,0,.1,0l6.042-3.447-3.447,6.042a.105.105,0,0,0,0,.1l3.447,6.042-6.042-3.447a.107.107,0,0,0-.105,0Zm6.094-4.556a1.2,1.2,0,0,1,.6.157l2.561,1.461L421.433,99.4a1.206,1.206,0,0,1,0-1.191l1.461-2.561-2.561,1.461a1.207,1.207,0,0,1-1.191,0l-2.561-1.461,1.461,2.561a1.208,1.208,0,0,1,0,1.191l-1.461,2.561,2.561-1.461a1.2,1.2,0,0,1,.6-.157" transform="translate(-335.99 -75.303)" fill="#3d4451"/>
          <path id="Trazado_34984" data-name="Trazado 34984" d="M503.879,187l4.3,2.454a.653.653,0,0,0,.648,0l4.3-2.454-2.454,4.3a.654.654,0,0,0,0,.648l2.454,4.3-4.3-2.454a.654.654,0,0,0-.648,0l-4.3,2.454,2.454-4.3a.654.654,0,0,0,0-.648Z" transform="translate(-409.286 -151.892)" fill="#fdc345"/>
          <path id="Trazado_34985" data-name="Trazado 34985" d="M508.244,191.362l-6.042-3.447a.106.106,0,0,0-.105,0l-6.041,3.447,3.447-6.042a.106.106,0,0,0,0-.1l-3.447-6.042,6.042,3.447a.107.107,0,0,0,.1,0l6.042-3.447-3.447,6.042a.106.106,0,0,0,0,.105Zm-9.251-9.251,1.461,2.561a1.206,1.206,0,0,1,0,1.191l-1.461,2.561,2.561-1.461a1.207,1.207,0,0,1,1.19,0l2.561,1.461-1.461-2.561a1.207,1.207,0,0,1,0-1.191l1.461-2.561-2.561,1.461a1.208,1.208,0,0,1-1.191,0Z" transform="translate(-402.931 -145.538)" fill="#3d4451"/>
        </g>
      </g>
    </g>
  </g>
</svg>
