<svg xmlns="http://www.w3.org/2000/svg" xmlns:xlink="http://www.w3.org/1999/xlink" width="156" height="156" viewBox="0 0 156 156">
  <defs>
    <clipPath id="clip-path">
      <rect id="Rectángulo_4912" data-name="Rectángulo 4912" width="106.489" height="85.321" fill="none"/>
    </clipPath>
  </defs>
  <g id="Grupo_18943" data-name="Grupo 18943" transform="translate(-422 -5401)">
    <g id="Elipse_999" data-name="Elipse 999" transform="translate(422 5401)" fill="#fff" stroke="#fd8f25" stroke-width="2">
      <circle cx="78" cy="78" r="78" stroke="none"/>
      <circle cx="78" cy="78" r="77" fill="none"/>
    </g>
    <g id="Grupo_18735" data-name="Grupo 18735" transform="translate(447 5431.679)">
      <g id="Grupo_18734" data-name="Grupo 18734" clip-path="url(#clip-path)">
        <path id="Trazado_34847" data-name="Trazado 34847" d="M106.489,310.252c0,3.311-23.838,5.994-53.245,5.994S0,313.563,0,310.252s23.838-5.994,53.245-5.994,53.245,2.684,53.245,5.994" transform="translate(0 -230.926)" fill="#c7ddeb"/>
        <path id="Trazado_34848" data-name="Trazado 34848" d="M256.632,224.584v7.562c0,2.943-7.532,5.329-16.824,5.329s-16.824-2.386-16.824-5.329v-7.562" transform="translate(-169.241 -170.455)" fill="#fdc345"/>
        <path id="Trazado_34849" data-name="Trazado 34849" d="M236.907,238.4a41.972,41.972,0,0,1-12.174-1.6c-3.644-1.154-5.571-2.761-5.571-4.647v-7.562H221v7.562c0,1.841,6.05,4.408,15.9,4.408s15.9-2.568,15.9-4.408v-7.562h1.843v7.562c0,1.886-1.926,3.493-5.571,4.647a41.966,41.966,0,0,1-12.174,1.6" transform="translate(-166.34 -170.455)" fill="#3d4451"/>
        <path id="Trazado_34850" data-name="Trazado 34850" d="M222.985,209.237c0,2.72,7.532,4.926,16.824,4.926s16.824-2.206,16.824-4.926-7.532-4.926-16.824-4.926-16.824,2.205-16.824,4.926" transform="translate(-169.241 -155.068)" fill="#fdc345"/>
        <path id="Trazado_34851" data-name="Trazado 34851" d="M237.019,212.259c-8.8,0-17.709-2-17.709-5.811s8.909-5.811,17.709-5.811,17.709,2,17.709,5.811-8.909,5.811-17.709,5.811m0-9.851c-9.729,0-15.938,2.393-15.938,4.04s6.209,4.04,15.938,4.04,15.938-2.393,15.938-4.04-6.209-4.04-15.938-4.04" transform="translate(-166.452 -152.279)" fill="#3d4451"/>
        <path id="Trazado_34852" data-name="Trazado 34852" d="M252.584,181.744v6.744c0,2.626-6.718,4.754-15.006,4.754s-15.006-2.128-15.006-4.754v-6.744" transform="translate(-168.928 -137.94)" fill="#fdc345"/>
        <path id="Trazado_34853" data-name="Trazado 34853" d="M234.99,194.064a37.422,37.422,0,0,1-10.859-1.431c-3.251-1.03-4.969-2.463-4.969-4.145v-6.744h1.644v6.744c0,1.642,5.4,3.932,14.184,3.932s14.184-2.29,14.184-3.932v-6.744h1.644v6.744c0,1.682-1.718,3.115-4.969,4.145a37.422,37.422,0,0,1-10.859,1.431" transform="translate(-166.34 -137.94)" fill="#3d4451"/>
        <path id="Trazado_34854" data-name="Trazado 34854" d="M222.572,168.056c0,2.426,6.718,4.394,15.006,4.394s15.006-1.967,15.006-4.394-6.718-4.394-15.006-4.394-15.006,1.967-15.006,4.394" transform="translate(-168.928 -124.216)" fill="#fdc345"/>
        <path id="Trazado_34855" data-name="Trazado 34855" d="M235.09,170.75c-7.85,0-15.8-1.781-15.8-5.184s7.946-5.184,15.8-5.184,15.8,1.781,15.8,5.184-7.946,5.184-15.8,5.184m0-8.787c-8.678,0-14.216,2.134-14.216,3.6s5.538,3.6,14.216,3.6,14.216-2.134,14.216-3.6-5.538-3.6-14.216-3.6" transform="translate(-166.44 -121.727)" fill="#3d4451"/>
        <path id="Trazado_34856" data-name="Trazado 34856" d="M114.034,218.183v7.005c0,2.727-6.978,4.938-15.587,4.938s-15.587-2.211-15.587-4.938v-7.005" transform="translate(-62.89 -165.596)" fill="#fdc345"/>
        <path id="Trazado_34857" data-name="Trazado 34857" d="M95.759,230.979a38.874,38.874,0,0,1-11.279-1.486c-3.376-1.07-5.161-2.558-5.161-4.305v-7.006h1.707v7.006c0,1.705,5.6,4.084,14.733,4.084s14.733-2.379,14.733-4.084v-7.006H112.2v7.006c0,1.747-1.785,3.235-5.161,4.305a38.874,38.874,0,0,1-11.279,1.486" transform="translate(-60.202 -165.596)" fill="#3d4451"/>
        <path id="Trazado_34858" data-name="Trazado 34858" d="M82.861,203.963c0,2.52,6.979,4.564,15.587,4.564s15.587-2.043,15.587-4.564-6.978-4.563-15.587-4.563-15.587,2.043-15.587,4.563" transform="translate(-62.89 -151.341)" fill="#fdc345"/>
        <path id="Trazado_34859" data-name="Trazado 34859" d="M95.862,206.764c-8.153,0-16.407-1.85-16.407-5.384s8.254-5.384,16.407-5.384,16.407,1.85,16.407,5.384-8.254,5.384-16.407,5.384m0-9.127c-9.014,0-14.766,2.217-14.766,3.743s5.752,3.743,14.766,3.743,14.766-2.217,14.766-3.743-5.752-3.743-14.766-3.743" transform="translate(-60.305 -148.756)" fill="#3d4451"/>
        <path id="Trazado_34860" data-name="Trazado 34860" d="M178.922,266.214v7.562c0,2.944-7.532,5.329-16.824,5.329s-16.824-2.386-16.824-5.329v-7.562" transform="translate(-110.261 -202.051)" fill="#fdc345"/>
        <path id="Trazado_34861" data-name="Trazado 34861" d="M159.2,280.026a41.965,41.965,0,0,1-12.174-1.6c-3.644-1.155-5.571-2.762-5.571-4.647v-7.561h1.843v7.561c0,1.841,6.05,4.408,15.9,4.408s15.9-2.568,15.9-4.408v-7.561h1.843v7.561c0,1.886-1.926,3.493-5.571,4.647a41.966,41.966,0,0,1-12.174,1.6" transform="translate(-107.359 -202.051)" fill="#3d4451"/>
        <path id="Trazado_34862" data-name="Trazado 34862" d="M145.275,250.867c0,2.72,7.532,4.926,16.824,4.926s16.824-2.205,16.824-4.926-7.532-4.926-16.824-4.926-16.824,2.205-16.824,4.926" transform="translate(-110.261 -186.664)" fill="#fdc345"/>
        <path id="Trazado_34863" data-name="Trazado 34863" d="M159.309,253.889c-8.8,0-17.709-2-17.709-5.811s8.909-5.811,17.709-5.811,17.709,2,17.709,5.811-8.909,5.811-17.709,5.811m0-9.851c-9.729,0-15.938,2.393-15.938,4.04s6.209,4.04,15.938,4.04,15.938-2.393,15.938-4.04-6.209-4.04-15.938-4.04" transform="translate(-107.472 -183.875)" fill="#3d4451"/>
        <path id="Trazado_34864" data-name="Trazado 34864" d="M179.345,216.207v7.562c0,2.943-7.532,5.329-16.824,5.329s-16.824-2.386-16.824-5.329v-7.562" transform="translate(-110.582 -164.097)" fill="#fdc345"/>
        <path id="Trazado_34865" data-name="Trazado 34865" d="M159.62,230.02a41.973,41.973,0,0,1-12.174-1.6c-3.644-1.154-5.571-2.761-5.571-4.647v-7.562h1.843v7.562c0,1.841,6.05,4.408,15.9,4.408s15.9-2.568,15.9-4.408v-7.562h1.843v7.562c0,1.886-1.926,3.493-5.571,4.647a41.973,41.973,0,0,1-12.174,1.6" transform="translate(-107.68 -164.097)" fill="#3d4451"/>
        <path id="Trazado_34866" data-name="Trazado 34866" d="M145.7,200.86c0,2.72,7.532,4.926,16.824,4.926s16.824-2.205,16.824-4.926-7.532-4.926-16.824-4.926S145.7,198.14,145.7,200.86" transform="translate(-110.582 -148.71)" fill="#fdc345"/>
        <path id="Trazado_34867" data-name="Trazado 34867" d="M159.732,203.882c-8.8,0-17.709-2-17.709-5.811s8.909-5.811,17.709-5.811,17.709,2,17.709,5.811-8.909,5.811-17.709,5.811m0-9.851c-9.729,0-15.938,2.393-15.938,4.04s6.209,4.04,15.938,4.04,15.938-2.393,15.938-4.04-6.209-4.04-15.938-4.04" transform="translate(-107.793 -145.921)" fill="#3d4451"/>
        <path id="Trazado_34868" data-name="Trazado 34868" d="M165.654,43.461a15.372,15.372,0,1,1,15.372,15.428,15.4,15.4,0,0,1-15.372-15.428" transform="translate(-125.728 -21.277)" fill="#fdc345"/>
        <path id="Trazado_34869" data-name="Trazado 34869" d="M196.6,49.38v2.89H194.66V49.46a10.862,10.862,0,0,1-5.035-1.225v-3.69a7.76,7.76,0,0,0,2.3,1.159,10.625,10.625,0,0,0,2.731.613V41.468a10.3,10.3,0,0,1-4.256-2.51,4.946,4.946,0,0,1-1.139-3.3,4.841,4.841,0,0,1,1.478-3.563,6.213,6.213,0,0,1,3.916-1.712V27.909H196.6v2.424a9.874,9.874,0,0,1,4.2.906v3.6a10.07,10.07,0,0,0-4.2-1.385V38.5a10.693,10.693,0,0,1,4.182,2.4,4.612,4.612,0,0,1,1.265,3.269,4.706,4.706,0,0,1-1.412,3.563A6.74,6.74,0,0,1,196.6,49.38M194.66,37.725V33.5q-1.851.333-1.851,1.931,0,1.372,1.851,2.291m1.945,4.5v4.035q1.9-.292,1.9-1.9,0-1.305-1.9-2.131" transform="translate(-143.649 -21.182)" fill="#3d4451"/>
        <path id="Trazado_34870" data-name="Trazado 34870" d="M157.135,37.149A18.574,18.574,0,1,1,175.71,18.574a18.6,18.6,0,0,1-18.574,18.574m0-35.251a16.676,16.676,0,1,0,16.676,16.676A16.7,16.7,0,0,0,157.135,1.9" transform="translate(-105.165)" fill="#3d4451"/>
        <path id="Trazado_34871" data-name="Trazado 34871" d="M168.663,45.017A14.914,14.914,0,1,1,183.577,30.1a14.931,14.931,0,0,1-14.914,14.914m0-28.743A13.829,13.829,0,1,0,182.492,30.1a13.845,13.845,0,0,0-13.829-13.829" transform="translate(-116.692 -11.528)" fill="#3d4451"/>
        <path id="Trazado_34872" data-name="Trazado 34872" d="M178.922,166.3v7.562c0,2.943-7.532,5.329-16.824,5.329s-16.824-2.386-16.824-5.329V166.3" transform="translate(-110.261 -126.219)" fill="#fdc345"/>
        <path id="Trazado_34873" data-name="Trazado 34873" d="M159.2,180.113a41.974,41.974,0,0,1-12.174-1.6c-3.644-1.154-5.571-2.761-5.571-4.647V166.3h1.843v7.562c0,1.841,6.05,4.408,15.9,4.408s15.9-2.568,15.9-4.408V166.3h1.843v7.562c0,1.886-1.926,3.493-5.571,4.647a41.967,41.967,0,0,1-12.174,1.6" transform="translate(-107.359 -126.218)" fill="#3d4451"/>
        <path id="Trazado_34874" data-name="Trazado 34874" d="M145.275,150.954c0,2.72,7.532,4.926,16.824,4.926s16.824-2.205,16.824-4.926-7.532-4.926-16.824-4.926-16.824,2.206-16.824,4.926" transform="translate(-110.261 -110.832)" fill="#fdc345"/>
        <path id="Trazado_34875" data-name="Trazado 34875" d="M159.309,153.976c-8.8,0-17.709-2-17.709-5.811s8.909-5.811,17.709-5.811,17.709,2,17.709,5.811-8.909,5.811-17.709,5.811m0-9.851c-9.729,0-15.938,2.393-15.938,4.04s6.209,4.04,15.938,4.04,15.938-2.393,15.938-4.04-6.209-4.04-15.938-4.04" transform="translate(-107.472 -108.043)" fill="#3d4451"/>
        <path id="Trazado_34876" data-name="Trazado 34876" d="M182.065,121.37v7.278c0,2.833-7.25,5.13-16.193,5.13s-16.192-2.3-16.192-5.13V121.37" transform="translate(-113.604 -92.117)" fill="#fdc345"/>
        <path id="Trazado_34877" data-name="Trazado 34877" d="M163.079,134.664a40.39,40.39,0,0,1-11.718-1.544c-3.508-1.111-5.362-2.658-5.362-4.473V121.37h1.774v7.278c0,1.772,5.823,4.243,15.306,4.243s15.306-2.471,15.306-4.243V121.37h1.774v7.278c0,1.815-1.854,3.362-5.362,4.473a40.39,40.39,0,0,1-11.718,1.544" transform="translate(-110.811 -92.117)" fill="#3d4451"/>
        <path id="Trazado_34878" data-name="Trazado 34878" d="M149.68,106.6c0,2.618,7.25,4.741,16.192,4.741s16.193-2.123,16.193-4.741-7.25-4.741-16.193-4.741-16.192,2.123-16.192,4.741" transform="translate(-113.604 -77.308)" fill="#fdc345"/>
        <path id="Trazado_34879" data-name="Trazado 34879" d="M163.187,109.509c-8.47,0-17.045-1.921-17.045-5.593s8.575-5.593,17.045-5.593,17.045,1.921,17.045,5.593-8.575,5.593-17.045,5.593m0-9.482c-9.364,0-15.34,2.3-15.34,3.889s5.976,3.888,15.34,3.888,15.34-2.3,15.34-3.888-5.976-3.889-15.34-3.889" transform="translate(-110.919 -74.624)" fill="#3d4451"/>
        <path id="Trazado_34880" data-name="Trazado 34880" d="M60.015,277.181v7.972c0,3.1-7.941,5.619-17.737,5.619s-17.737-2.516-17.737-5.619v-7.972" transform="translate(-18.626 -210.375)" fill="#fdc345"/>
        <path id="Trazado_34881" data-name="Trazado 34881" d="M39.219,291.743a44.243,44.243,0,0,1-12.835-1.691c-3.842-1.217-5.873-2.911-5.873-4.9v-7.972h1.943v7.972c0,1.941,6.378,4.647,16.766,4.647s16.766-2.707,16.766-4.647v-7.972h1.943v7.972c0,1.988-2.031,3.682-5.873,4.9a44.243,44.243,0,0,1-12.835,1.691" transform="translate(-15.567 -210.375)" fill="#3d4451"/>
        <path id="Trazado_34882" data-name="Trazado 34882" d="M24.541,261c0,2.868,7.941,5.193,17.737,5.193S60.015,263.869,60.015,261s-7.941-5.193-17.737-5.193S24.541,258.133,24.541,261" transform="translate(-18.626 -194.153)" fill="#fdc345"/>
        <path id="Trazado_34883" data-name="Trazado 34883" d="M39.337,264.187c-9.278,0-18.671-2.1-18.671-6.127s9.393-6.127,18.671-6.127,18.671,2.1,18.671,6.127-9.393,6.127-18.671,6.127m0-10.386c-10.257,0-16.8,2.523-16.8,4.259s6.546,4.259,16.8,4.259,16.8-2.523,16.8-4.259-6.546-4.259-16.8-4.259" transform="translate(-15.685 -191.212)" fill="#3d4451"/>
        <path id="Trazado_34884" data-name="Trazado 34884" d="M304.738,276.391v7.562c0,2.943-7.532,5.329-16.823,5.329s-16.824-2.386-16.824-5.329v-7.562" transform="translate(-205.753 -209.775)" fill="#fdc345"/>
        <path id="Trazado_34885" data-name="Trazado 34885" d="M285.014,290.2a41.973,41.973,0,0,1-12.174-1.6c-3.644-1.154-5.571-2.761-5.571-4.647V276.39h1.843v7.562c0,1.841,6.05,4.408,15.9,4.408s15.9-2.568,15.9-4.408V276.39h1.843v7.562c0,1.886-1.926,3.493-5.571,4.647a41.972,41.972,0,0,1-12.174,1.6" transform="translate(-202.852 -209.774)" fill="#3d4451"/>
        <path id="Trazado_34886" data-name="Trazado 34886" d="M271.092,261.044c0,2.72,7.532,4.926,16.824,4.926s16.823-2.206,16.823-4.926-7.532-4.926-16.823-4.926-16.824,2.205-16.824,4.926" transform="translate(-205.753 -194.388)" fill="#fdc345"/>
        <path id="Trazado_34887" data-name="Trazado 34887" d="M285.126,264.066c-8.8,0-17.709-2-17.709-5.811s8.909-5.811,17.709-5.811,17.709,2,17.709,5.811-8.909,5.811-17.709,5.811m0-9.851c-9.729,0-15.938,2.393-15.938,4.04s6.209,4.04,15.938,4.04,15.938-2.393,15.938-4.04-6.209-4.04-15.938-4.04" transform="translate(-202.964 -191.599)" fill="#3d4451"/>
      </g>
    </g>
  </g>
</svg>
