<svg xmlns="http://www.w3.org/2000/svg" xmlns:xlink="http://www.w3.org/1999/xlink" width="156" height="156" viewBox="0 0 156 156">
  <defs>
    <clipPath id="clip-path">
      <rect id="Rectángulo_4956" data-name="Rectángulo 4956" width="88.245" height="75.236" fill="none"/>
    </clipPath>
  </defs>
  <g id="Grupo_18946" data-name="Grupo 18946" transform="translate(-422 -6014)">
    <g id="Elipse_1002" data-name="Elipse 1002" transform="translate(422 6014)" fill="#fff" stroke="#fd8f25" stroke-width="2">
      <circle cx="78" cy="78" r="78" stroke="none"/>
      <circle cx="78" cy="78" r="77" fill="none"/>
    </g>
    <g id="Grupo_18790" data-name="Grupo 18790" transform="translate(456 6053.285)">
      <rect id="Rectángulo_4951" data-name="Rectángulo 4951" width="4.339" height="32.856" transform="translate(14.794 31.541)" fill="#c7ddeb"/>
      <rect id="Rectángulo_4952" data-name="Rectángulo 4952" width="4.34" height="42.775" transform="translate(27.812 13.873)" fill="#c7ddeb"/>
      <rect id="Rectángulo_4953" data-name="Rectángulo 4953" width="4.34" height="48.664" transform="translate(45.17 15.733)" fill="#c7ddeb"/>
      <rect id="Rectángulo_4954" data-name="Rectángulo 4954" width="4.34" height="29.756" transform="translate(61.288 19.762)" fill="#c7ddeb"/>
      <rect id="Rectángulo_4955" data-name="Rectángulo 4955" width="4.339" height="40.295" transform="translate(73.376 6.124)" fill="#c7ddeb"/>
      <g id="Grupo_18789" data-name="Grupo 18789">
        <g id="Grupo_18788" data-name="Grupo 18788" clip-path="url(#clip-path)">
          <path id="Trazado_34929" data-name="Trazado 34929" d="M86.24,75.236h0L0,75.124V2.005a2.005,2.005,0,1,1,4.011,0V71.119l82.232.107a2.005,2.005,0,0,1,0,4.011" fill="#3d4451"/>
          <path id="Trazado_34930" data-name="Trazado 34930" d="M53.281,117.522l-2.652-2.608L77.423,87.668l10,12.418,28.942-29.8,2.668,2.591L87.16,105.693,77.146,93.255Z" transform="translate(-38.556 -53.526)" fill="#3d4451"/>
          <path id="Trazado_34931" data-name="Trazado 34931" d="M300.006,48.547l14.548-2.066L312.695,60Z" transform="translate(-228.469 -35.398)" fill="#3d4451"/>
          <path id="Trazado_34932" data-name="Trazado 34932" d="M148.082,143.272a3.152,3.152,0,1,1,3.152,3.152,3.151,3.151,0,0,1-3.152-3.152" transform="translate(-112.772 -106.708)" fill="#3d4451"/>
          <path id="Trazado_34933" data-name="Trazado 34933" d="M192.029,195.963a3.344,3.344,0,1,1,3.344,3.344,3.344,3.344,0,0,1-3.344-3.344" transform="translate(-146.239 -146.689)" fill="#3d4451"/>
          <path id="Trazado_34934" data-name="Trazado 34934" d="M252.759,132.571a3.263,3.263,0,1,1,3.263,3.263,3.263,3.263,0,0,1-3.263-3.263" transform="translate(-192.488 -98.474)" fill="#3d4451"/>
          <path id="Trazado_34935" data-name="Trazado 34935" d="M48.363,235.777a4.859,4.859,0,1,1,4.859,4.859,4.859,4.859,0,0,1-4.859-4.859" transform="translate(-36.831 -175.855)" fill="#fdc345"/>
          <path id="Trazado_34936" data-name="Trazado 34936" d="M49.922,238.369a5.893,5.893,0,1,1,5.893-5.893,5.9,5.9,0,0,1-5.893,5.893m0-9.719a3.826,3.826,0,1,0,3.826,3.826,3.83,3.83,0,0,0-3.826-3.826" transform="translate(-33.53 -172.555)" fill="#3d4451"/>
          <path id="Trazado_34937" data-name="Trazado 34937" d="M91.713,35.123H80.771a5.065,5.065,0,0,0-5.05,5.05v4.208a5.065,5.065,0,0,0,5.05,5.05H86.61l4.58,5.8s.2-3.639.168-5.8h.355a5.065,5.065,0,0,0,5.05-5.05V40.173a5.065,5.065,0,0,0-5.05-5.05" transform="translate(-57.665 -26.748)" fill="#7cbc31"/>
          <path id="Trazado_34938" data-name="Trazado 34938" d="M88.694,54.7l-6-7.6H77.368a6.122,6.122,0,0,1-6.116-6.116V36.77a6.122,6.122,0,0,1,6.116-6.116H88.31a6.122,6.122,0,0,1,6.116,6.116v4.208a6.125,6.125,0,0,1-5.4,6.075c-.021,2.111-.164,4.708-.171,4.836ZM77.368,32.785a3.989,3.989,0,0,0-3.985,3.985v4.208a3.989,3.989,0,0,0,3.985,3.985h6.355l3.124,3.957c.033-.984.055-2.045.042-2.875l-.017-1.082H88.31a3.989,3.989,0,0,0,3.985-3.985V36.77a3.99,3.99,0,0,0-3.985-3.985Z" transform="translate(-54.262 -23.345)" fill="#3d4451"/>
          <path id="Trazado_34939" data-name="Trazado 34939" d="M268.984,207.7h10.942a5.065,5.065,0,0,0,5.05-5.05v-4.208a5.065,5.065,0,0,0-5.05-5.05h-5.839l-4.58-5.8s-.2,3.639-.168,5.8h-.356a5.065,5.065,0,0,0-5.05,5.05v4.208a5.065,5.065,0,0,0,5.05,5.05" transform="translate(-200.999 -142.86)" fill="#f04f4c"/>
          <path id="Trazado_34940" data-name="Trazado 34940" d="M276.524,199.6H265.582a6.122,6.122,0,0,1-6.116-6.116V189.28a6.125,6.125,0,0,1,5.4-6.075c.021-2.111.164-4.708.171-4.836l.156-2.81,6,7.6h5.323a6.122,6.122,0,0,1,6.116,6.116v4.208a6.122,6.122,0,0,1-6.116,6.116M265.582,185.3a3.989,3.989,0,0,0-3.985,3.985v4.208a3.989,3.989,0,0,0,3.985,3.985h10.942a3.99,3.99,0,0,0,3.985-3.985V189.28a3.989,3.989,0,0,0-3.985-3.985h-6.355l-3.123-3.957c-.033.983-.056,2.045-.042,2.874l.017,1.082Z" transform="translate(-197.596 -133.697)" fill="#3d4451"/>
        </g>
      </g>
    </g>
  </g>
</svg>
