<svg xmlns="http://www.w3.org/2000/svg" xmlns:xlink="http://www.w3.org/1999/xlink" width="118.142" height="113.428" viewBox="0 0 118.142 113.428">
  <defs>
    <clipPath id="clip-path">
      <rect id="Rectángulo_5015" data-name="Rectángulo 5015" width="118.142" height="113.428" fill="none"/>
    </clipPath>
  </defs>
  <g id="Grupo_18952" data-name="Grupo 18952" transform="translate(-1217 -8843.229)">
    <g id="Grupo_18857" data-name="Grupo 18857" transform="translate(1217 8843.229)">
      <g id="Grupo_18856" data-name="Grupo 18856" clip-path="url(#clip-path)">
        <path id="Trazado_35093" data-name="Trazado 35093" d="M53.955,150.323a1.867,1.867,0,0,1-1.867-1.867A43.863,43.863,0,0,1,59.673,123.8a46.5,46.5,0,0,1,19.6-16.367A1.867,1.867,0,0,1,80.8,110.84a42.769,42.769,0,0,0-18.03,15.05,40.144,40.144,0,0,0-6.944,22.566,1.867,1.867,0,0,1-1.867,1.867" transform="translate(-39.508 -81.361)" fill="#f04f4c"/>
        <path id="Trazado_35094" data-name="Trazado 35094" d="M166.169,437.808a46.739,46.739,0,0,1-24.282-6.782,1.811,1.811,0,1,1,1.882-3.1,43.24,43.24,0,0,0,44.787.008,1.811,1.811,0,0,1,1.88,3.1,46.739,46.739,0,0,1-24.267,6.772" transform="translate(-106.959 -324.38)" fill="#7eb9c7"/>
        <path id="Trazado_35095" data-name="Trazado 35095" d="M348.433,151.073a1.867,1.867,0,0,1-1.867-1.867,40.158,40.158,0,0,0-6.61-22.064,42.722,42.722,0,0,0-17.237-15.029,1.867,1.867,0,0,1,1.619-3.364A46.453,46.453,0,0,1,343.079,125.1a43.883,43.883,0,0,1,7.221,24.111,1.867,1.867,0,0,1-1.867,1.867" transform="translate(-243.976 -82.344)" fill="#fdc345"/>
        <path id="Trazado_35096" data-name="Trazado 35096" d="M48.191,329.017c3.145.174,5.727-2.673,5.567-6.139a5.613,5.613,0,0,0-5.018-5.529c-3.147-.175-5.731,2.674-5.57,6.141a5.613,5.613,0,0,0,5.021,5.527" transform="translate(-32.739 -240.699)" fill="#c7ddeb"/>
        <path id="Trazado_35097" data-name="Trazado 35097" d="M49.493,396.1a2.158,2.158,0,0,0,1.828-2.679c-.982-5.888-5-11.156-9.806-11.156s-8.822,5.268-9.8,11.156a2.158,2.158,0,0,0,1.828,2.679Z" transform="translate(-24.024 -289.945)" fill="#c7ddeb"/>
        <path id="Trazado_35098" data-name="Trazado 35098" d="M30.461,320.748q-.222,0-.446-.011a8.9,8.9,0,1,1,.446.011m-.324-2.423a6.46,6.46,0,0,0,6.785-6.789,6.508,6.508,0,0,0-6.113-6.112,6.46,6.46,0,0,0-6.788,6.792,6.509,6.509,0,0,0,6.116,6.11" transform="translate(-16.382 -229.822)" fill="#3d4451"/>
        <path id="Trazado_35099" data-name="Trazado 35099" d="M25.3,388.192H3.728a3.732,3.732,0,0,1-3.655-4.47c1.545-7.737,7.752-13.572,14.438-13.572s12.894,5.835,14.439,13.572a3.732,3.732,0,0,1-3.655,4.47M14.511,372.564A11.069,11.069,0,0,0,6.8,376.02a16.046,16.046,0,0,0-4.356,8.174,1.325,1.325,0,0,0,.274,1.1,1.292,1.292,0,0,0,1.012.479H25.3a1.291,1.291,0,0,0,1.012-.479,1.324,1.324,0,0,0,.274-1.1,16.042,16.042,0,0,0-4.355-8.174,11.072,11.072,0,0,0-7.715-3.456" transform="translate(0 -280.753)" fill="#3d4451"/>
        <path id="Trazado_35100" data-name="Trazado 35100" d="M417.191,329.017c3.145.174,5.727-2.673,5.567-6.139a5.613,5.613,0,0,0-5.018-5.529c-3.147-.175-5.731,2.674-5.57,6.141a5.613,5.613,0,0,0,5.021,5.527" transform="translate(-312.621 -240.699)" fill="#c7ddeb"/>
        <path id="Trazado_35101" data-name="Trazado 35101" d="M418.493,396.1a2.158,2.158,0,0,0,1.828-2.679c-.982-5.888-5-11.156-9.806-11.156s-8.822,5.268-9.8,11.156a2.158,2.158,0,0,0,1.828,2.679Z" transform="translate(-303.906 -289.945)" fill="#c7ddeb"/>
        <path id="Trazado_35102" data-name="Trazado 35102" d="M399.461,320.748q-.222,0-.446-.011a8.9,8.9,0,1,1,.446.011m-.324-2.423a6.46,6.46,0,0,0,6.785-6.789,6.508,6.508,0,0,0-6.113-6.112,6.46,6.46,0,0,0-6.788,6.792,6.509,6.509,0,0,0,6.116,6.11" transform="translate(-296.263 -229.822)" fill="#3d4451"/>
        <path id="Trazado_35103" data-name="Trazado 35103" d="M394.3,388.192H372.728a3.732,3.732,0,0,1-3.655-4.47c1.545-7.737,7.752-13.572,14.438-13.572s12.894,5.835,14.439,13.572a3.732,3.732,0,0,1-3.655,4.47m-10.784-15.628a11.069,11.069,0,0,0-7.714,3.456,16.046,16.046,0,0,0-4.356,8.174,1.325,1.325,0,0,0,.274,1.1,1.292,1.292,0,0,0,1.012.479H394.3a1.291,1.291,0,0,0,1.012-.479,1.324,1.324,0,0,0,.274-1.1,16.042,16.042,0,0,0-4.355-8.174,11.072,11.072,0,0,0-7.715-3.456" transform="translate(-279.882 -280.753)" fill="#3d4451"/>
        <path id="Trazado_35104" data-name="Trazado 35104" d="M233.191,26.017c3.145.174,5.727-2.673,5.567-6.139a5.613,5.613,0,0,0-5.018-5.529c-3.147-.175-5.731,2.674-5.57,6.141a5.613,5.613,0,0,0,5.021,5.527" transform="translate(-173.059 -10.878)" fill="#c7ddeb"/>
        <path id="Trazado_35105" data-name="Trazado 35105" d="M234.493,93.1a2.158,2.158,0,0,0,1.828-2.679c-.982-5.888-5-11.156-9.806-11.156s-8.822,5.268-9.8,11.156a2.158,2.158,0,0,0,1.828,2.679Z" transform="translate(-164.344 -60.123)" fill="#c7ddeb"/>
        <path id="Trazado_35106" data-name="Trazado 35106" d="M215.461,17.749q-.222,0-.446-.011A8.874,8.874,0,1,1,215.932.012a8.874,8.874,0,0,1,5.816,15.137,8.9,8.9,0,0,1-6.286,2.6m-.324-2.423a6.46,6.46,0,0,0,6.785-6.789,6.508,6.508,0,0,0-6.113-6.112,6.46,6.46,0,0,0-6.788,6.792,6.509,6.509,0,0,0,6.116,6.11" transform="translate(-156.702 0)" fill="#3d4451"/>
        <path id="Trazado_35107" data-name="Trazado 35107" d="M210.3,85.192H188.728a3.732,3.732,0,0,1-3.655-4.47c1.545-7.737,7.752-13.572,14.438-13.572s12.894,5.835,14.439,13.572a3.732,3.732,0,0,1-3.655,4.47M199.511,69.564A11.069,11.069,0,0,0,191.8,73.02a16.046,16.046,0,0,0-4.356,8.174,1.325,1.325,0,0,0,.274,1.1,1.292,1.292,0,0,0,1.012.479H210.3a1.291,1.291,0,0,0,1.012-.479,1.325,1.325,0,0,0,.274-1.1,16.045,16.045,0,0,0-4.356-8.174,11.071,11.071,0,0,0-7.715-3.456" transform="translate(-140.32 -50.932)" fill="#3d4451"/>
        <path id="Trazado_35108" data-name="Trazado 35108" d="M312.019,230.522l9.354,11.645,7.47-6.427a4.019,4.019,0,0,0,.594-5.458l-6.044-8.059Z" transform="translate(-236.663 -168.553)" fill="#7eb9c7"/>
        <path id="Trazado_35109" data-name="Trazado 35109" d="M115.618,231.509l-8.453,13.525-9.375-5.781a3.689,3.689,0,0,1-1.149-5.162l6.528-9.958Z" transform="translate(-72.843 -170.001)" fill="#7eb9c7"/>
        <path id="Trazado_35110" data-name="Trazado 35110" d="M239.235,258.952a.842.842,0,0,1-.528-.186l-5.419-4.343q-3.849-3.084-7.695-6.173c-.609.234-1.23.484-1.832.728a40.526,40.526,0,0,1-5.558,1.935,3.6,3.6,0,0,1-1.735.085,4.088,4.088,0,0,1-2.549-2.684,1.849,1.849,0,0,1,.643-1.907l6.888-5.57a.838.838,0,0,1,.179-.111,5.426,5.426,0,0,1,4.015-.208l5.824,1.969,2.9-1.6a.845.845,0,0,1,1.071.216l9.3,11.75a.846.846,0,0,1-.072,1.129l-4.845,4.733a.844.844,0,0,1-.591.241M225.69,246.489c.027,0,.055,0,.083,0a1.3,1.3,0,0,1,.733.322q3.915,3.149,7.839,6.289l4.835,3.875,3.765-3.678-8.383-10.591-2.6,1.436a.843.843,0,0,1-.679.061l-6.177-2.088a3.744,3.744,0,0,0-2.676.1l-6.811,5.507c-.046.037-.08.064-.045.219a2.5,2.5,0,0,0,1.3,1.408,2.191,2.191,0,0,0,.934-.086,39.26,39.26,0,0,0,5.322-1.859c.677-.274,1.378-.556,2.069-.818a1.345,1.345,0,0,1,.493-.1" transform="translate(-162.216 -182.21)" fill="#3d4451"/>
        <path id="Trazado_35111" data-name="Trazado 35111" d="M154.795,257.772l-6.219-5.487,8.115-12.91,2.452,1.032,5.286-2.2a4.72,4.72,0,0,1,3.9.129l.059.032,2.785,1.666-.868,1.451-2.755-1.648a3.026,3.026,0,0,0-2.477-.069l-5.939,2.467-1.78-.75-6.586,10.478,5.141,4.536Z" transform="translate(-112.693 -180.407)" fill="#3d4451"/>
        <path id="Trazado_35112" data-name="Trazado 35112" d="M174.517,312.1a3.073,3.073,0,0,1-2.334-5.066l1.95-2.289a3.073,3.073,0,1,1,4.678,3.986l-1.95,2.289a3.053,3.053,0,0,1-2.094,1.07q-.125.01-.25.01m1.956-6.743a1.38,1.38,0,0,0-1.053.485l-1.95,2.289a1.383,1.383,0,0,0,.156,1.949h0a1.382,1.382,0,0,0,1.948-.156l1.95-2.289a1.382,1.382,0,0,0-1.051-2.278" transform="translate(-130.042 -230.327)" fill="#3d4451"/>
        <path id="Trazado_35113" data-name="Trazado 35113" d="M188.565,320.243a3.058,3.058,0,0,1-1.99-.732h0a3.077,3.077,0,0,1-.346-4.332l2.986-3.5a3.073,3.073,0,1,1,4.678,3.986l-2.986,3.5a3.068,3.068,0,0,1-2.341,1.078m-.894-2.019a1.383,1.383,0,0,0,1.948-.156l2.986-3.5a1.382,1.382,0,1,0-2.1-1.793l-2.986,3.5a1.384,1.384,0,0,0,.156,1.949" transform="translate(-140.696 -235.583)" fill="#3d4451"/>
        <path id="Trazado_35114" data-name="Trazado 35114" d="M204.134,332.829a2.982,2.982,0,0,1-1.941-.714h0l-.117-.1a3,3,0,0,1-.337-4.223L204.121,325a3,3,0,0,1,4.223-.337l.117.1a3,3,0,0,1,.338,4.223l-2.381,2.795a2.99,2.99,0,0,1-2.283,1.052m-.844-2a1.307,1.307,0,0,0,1.84-.147l2.381-2.795a1.307,1.307,0,0,0-.147-1.84l-.117-.1a1.306,1.306,0,0,0-1.84.147l-2.381,2.795a1.307,1.307,0,0,0,.147,1.84Z" transform="translate(-152.475 -245.708)" fill="#3d4451"/>
        <path id="Trazado_35115" data-name="Trazado 35115" d="M220.684,343.421a3,3,0,0,1-2.127-.88h0a3.013,3.013,0,0,1,0-4.255l2.223-2.223a3.009,3.009,0,1,1,4.255,4.255l-2.223,2.223a3,3,0,0,1-2.127.88m-.932-2.075a1.32,1.32,0,0,0,1.864,0l2.223-2.223a1.318,1.318,0,0,0-1.864-1.864l-2.223,2.223a1.32,1.32,0,0,0,0,1.864Z" transform="translate(-165.105 -254.231)" fill="#3d4451"/>
        <path id="Trazado_35116" data-name="Trazado 35116" d="M276,305.558a3.056,3.056,0,0,1-1.84-.613l-9.828-7.189a.845.845,0,0,1,1-1.365l9.836,7.2a1.382,1.382,0,1,0,1.667-2.205l-.022-.017-3.822-3.075a.845.845,0,0,1,1.06-1.317l3.812,3.067a3.072,3.072,0,0,1-1.86,5.52" transform="translate(-200.231 -224.685)" fill="#3d4451"/>
        <path id="Trazado_35117" data-name="Trazado 35117" d="M268.081,322.414a3.057,3.057,0,0,1-1.84-.613l-8.828-6.523a.845.845,0,0,1,1-1.359l8.833,6.527a1.382,1.382,0,1,0,1.664-2.207.845.845,0,0,1,1.015-1.352,3.072,3.072,0,0,1-1.848,5.529" transform="translate(-194.984 -237.977)" fill="#3d4451"/>
        <path id="Trazado_35118" data-name="Trazado 35118" d="M255.34,324.975a3.05,3.05,0,0,1-1.838-.615l-7.158-5.3a.845.845,0,1,1,1.006-1.359l7.162,5.3a1.382,1.382,0,1,0,1.663-2.208L249,315.265a.845.845,0,1,1,1.032-1.339l7.163,5.524a3.073,3.073,0,0,1-1.419,5.493,3.113,3.113,0,0,1-.44.031" transform="translate(-186.589 -237.976)" fill="#3d4451"/>
        <path id="Trazado_35119" data-name="Trazado 35119" d="M305.548,229.98a.844.844,0,0,1-.667-.326L292.3,213.5a.845.845,0,0,1,.164-1.2l8.4-6.216a5.27,5.27,0,0,1,7.318.987l7.333,9.341a4.864,4.864,0,0,1-.882,6.876l-8.567,6.513a.842.842,0,0,1-.511.172m-11.386-16.831L305.7,227.956l7.9-6.008a3.174,3.174,0,0,0,.576-4.486l-7.333-9.341a3.589,3.589,0,0,0-4.983-.672Z" transform="translate(-221.567 -155.521)" fill="#3d4451"/>
        <path id="Trazado_35120" data-name="Trazado 35120" d="M105.616,232.323a.842.842,0,0,1-.443-.126l-9.542-5.891a4.948,4.948,0,0,1-1.526-6.942l7.14-10.784a4.605,4.605,0,0,1,6.442-1.257l9.434,6.46a.845.845,0,0,1,.232,1.157l-11.026,17a.844.844,0,0,1-.71.385m-.525-24.116a2.937,2.937,0,0,0-.565.055,2.894,2.894,0,0,0-1.872,1.252L95.514,220.3a3.258,3.258,0,0,0,1.005,4.57l8.839,5.457,10.127-15.612-8.754-5.995a2.892,2.892,0,0,0-1.64-.511" transform="translate(-70.752 -156.639)" fill="#3d4451"/>
        <path id="Trazado_35121" data-name="Trazado 35121" d="M247.616,353.492a4.5,4.5,0,0,1-2.21-.583l-.05-.031-1.739-1.146a.845.845,0,1,1,.93-1.412l1.713,1.128a2.79,2.79,0,0,0,3.548-.717l.182-.23a.845.845,0,1,1,1.325,1.05l-.182.23a4.476,4.476,0,0,1-3.516,1.71" transform="translate(-184.491 -265.609)" fill="#3d4451"/>
      </g>
    </g>
  </g>
</svg>
