<svg xmlns="http://www.w3.org/2000/svg" width="100" height="100" viewBox="0 0 100 100">
  <g id="Grupo_55516" data-name="Grupo 55516" transform="translate(-751 -5511)">
    <g id="CF1_iconos_copia_8" data-name="CF1_iconos  copia 8" transform="translate(751.034 5510.661)">
      <circle id="Elipse_4469" data-name="Elipse 4469" cx="50" cy="50" r="50" transform="translate(-0.034 0.339)" fill="#bbabf5"/>
      <path id="Trazado_111610" data-name="Trazado 111610" d="M85.683,35H78.606L75.78,42.078h7.071Z" transform="translate(-25.266 -11.664)" fill="#639aff"/>
      <path id="Trazado_111611" data-name="Trazado 111611" d="M80.074,69.532h6.455A4.875,4.875,0,0,1,91.4,74.4v.79L85.739,93.584H80.074L82.906,75.19H68.758A5.658,5.658,0,0,1,63.1,69.532a14.356,14.356,0,0,1,.281-2.832H80.074Z" transform="translate(-21.077 -22.138)" fill="#ffceb6"/>
      <path id="Trazado_111612" data-name="Trazado 111612" d="M80.074,69.532h6.455A4.875,4.875,0,0,1,91.4,74.4v.79L85.739,93.584H80.074L82.906,75.19H68.758A5.658,5.658,0,0,1,63.1,69.532a14.356,14.356,0,0,1,.281-2.832H80.074Z" transform="translate(-21.077 -22.138)" fill="#718799"/>
      <path id="Trazado_111613" data-name="Trazado 111613" d="M91.536,58.145a3.006,3.006,0,0,1-3.006,3.006H78.693a5.665,5.665,0,0,1-4.419-2.123l-.569-.71H63.52a14.9,14.9,0,0,1,.8-2.611L68.79,44.994a5.939,5.939,0,0,1,11.423,2.283v6.8l4.245.536,4.446.556a3,3,0,0,1,2.631,2.98Z" transform="translate(-21.215 -13.757)" fill="#ffceb6"/>
      <path id="Trazado_111614" data-name="Trazado 111614" d="M84.458,54.61v6.542H78.693a5.665,5.665,0,0,1-4.419-2.123l-.569-.71H63.52a14.9,14.9,0,0,1,.8-2.611L68.79,44.994a5.939,5.939,0,0,1,11.423,2.283v6.8Z" transform="translate(-21.215 -13.757)" fill="#7dafff"/>
      <path id="Trazado_111615" data-name="Trazado 111615" d="M14.49,49.8H39.934V75.244H14.49Z" transform="translate(-5.015 -16.554)" fill="#fd8f25"/>
      <path id="Trazado_111616" data-name="Trazado 111616" d="M34.226,61.8H31.4V57.553a1.413,1.413,0,1,1,2.826,0Z" transform="translate(-10.603 -18.648)" fill="#be6b1c"/>
      <path id="Trazado_111617" data-name="Trazado 111617" d="M31.415,94.911,27.17,90.666V87.84H38.493Z" transform="translate(-9.205 -29.122)" fill="#ef5e3b"/>
      <ellipse id="Elipse_4470" data-name="Elipse 4470" cx="8.49" cy="8.49" rx="8.49" ry="8.49" transform="translate(13.72 70.034)" fill="#b6caf0"/>
      <path id="Trazado_111618" data-name="Trazado 111618" d="M28.623,122.436a9.9,9.9,0,1,1,9.9-9.9,9.9,9.9,0,0,1-9.9,9.9Zm0-16.981a7.071,7.071,0,1,0,5.007,2.071A7.078,7.078,0,0,0,28.623,105.456Z" transform="translate(-6.413 -34.009)" fill="#718799"/>
      <ellipse id="Elipse_4471" data-name="Elipse 4471" cx="8.49" cy="8.49" rx="8.49" ry="8.49" transform="translate(74.565 70.034)" fill="#b6caf0"/>
      <path id="Trazado_111619" data-name="Trazado 111619" d="M119.493,122.436a9.9,9.9,0,1,1,9.9-9.9A9.9,9.9,0,0,1,119.493,122.436Zm0-16.981a7.078,7.078,0,1,0,5.026,2.061A7.078,7.078,0,0,0,119.493,105.456Z" transform="translate(-36.437 -34.009)" fill="#718799"/>
      <path id="Trazado_111620" data-name="Trazado 111620" d="M107.47,104.755l9.06,9.026a3,3,0,0,0,5.129-2.123h0a3.006,3.006,0,0,0-.884-2.123l-9.026-9.026Z" transform="translate(-35.737 -33.309)" fill="#d1e4ff"/>
      <path id="Trazado_111621" data-name="Trazado 111621" d="M111.7,94.17h12.722a4.245,4.245,0,0,1,4.245,4.245v2.832H111.7Z" transform="translate(-37.135 -31.214)" fill="#548aff"/>
      <path id="Trazado_111622" data-name="Trazado 111622" d="M106.965,82.937v4.239H101.3l-9.9,19.813H63.1V98.5h8.49L78.7,99.784l8.437,1.547,7.078-14.155L91.4,73h4.245l5.658,8.49Z" transform="translate(-21.077 -24.219)" fill="#4f7ff7"/>
      <path id="Trazado_111623" data-name="Trazado 111623" d="M20.83,73H37.811a4.245,4.245,0,0,1-4.245,4.245h-8.49A4.245,4.245,0,0,1,20.83,73Z" transform="translate(-7.11 -24.219)" fill="#be6b1c"/>
      <path id="Trazado_111624" data-name="Trazado 111624" d="M36.416,69.524V68.138a5.658,5.658,0,1,0-11.316,0v1.386Z" transform="translate(-8.521 -20.743)" fill="#ffb401"/>
      <path id="Trazado_111625" data-name="Trazado 111625" d="M34.945,87.84H67.487v4.239A12.722,12.722,0,0,1,54.765,104.8H37.8L29.28,96.324Z" transform="translate(-9.902 -29.122)" fill="#548aff"/>
      <path id="Trazado_111626" data-name="Trazado 111626" d="M52.53,79.38H70.924a4.245,4.245,0,0,1,4.245,4.245v1.42H52.53Z" transform="translate(-17.584 -26.327)" fill="#486be0"/>
      <path id="Trazado_111627" data-name="Trazado 111627" d="M39.19,118.855H29.28V113.19h5.665Z" transform="translate(-9.902 -37.498)" fill="#d1e4ff"/>
      <path id="Trazado_111628" data-name="Trazado 111628" d="M105.36,69.524V62.48h5.658l4.245,2.826-1.44,4.218Z" transform="translate(-35.04 -20.743)" fill="#548aff"/>
      <path id="Trazado_111629" data-name="Trazado 111629" d="M87.438,56.074l-3.348-.422-3.87-7.647,2.531-1.266Z" transform="translate(-26.733 -15.543)" fill="#639aff"/>
      <path id="Trazado_111630" data-name="Trazado 111630" d="M85.7,28.7v5.658H78.621L71.55,30.113V25.875a5.658,5.658,0,0,1,5.658-5.665,8.49,8.49,0,0,1,8.49,8.484Z" transform="translate(-23.869 -6.777)" fill="#548aff"/>
      <path id="Trazado_111631" data-name="Trazado 111631" d="M88.49,30.8v2.832L80,29.382V26.55h7.365A8.45,8.45,0,0,1,88.49,30.8Z" transform="translate(-26.661 -8.872)" fill="#9ce6ed"/>
      <path id="Trazado_111632" data-name="Trazado 111632" d="M96.263,109.679l-1.426,2.832L86.4,110.965l1.339-4.125H93.4Z" transform="translate(-28.775 -35.4)" fill="#e0edff"/>
      <path id="Trazado_111633" data-name="Trazado 111633" d="M101.13,47.68h4.245a2.832,2.832,0,0,1,2.832,2.832v2.832h-4.245a2.839,2.839,0,0,1-2.832-2.832Z" transform="translate(-33.642 -15.853)" fill="#718799"/>
      <path id="Trazado_111634" data-name="Trazado 111634" d="M107.47,56.14H110.3v4.245H107.47Z" transform="translate(-35.737 -18.648)" fill="#62798c"/>
      <path id="Trazado_111635" data-name="Trazado 111635" d="M120.15,91.378V85.72l5.665,1.42v4.239Z" transform="translate(-39.927 -28.422)" fill="#7dafff"/>
      <path id="Trazado_111636" data-name="Trazado 111636" d="M53.323,120.268H40.6L33.51,113.19H53.323Z" transform="translate(-11.3 -37.498)" fill="#e0edff"/>
      <path id="Trazado_111637" data-name="Trazado 111637" d="M87.26,66.3H81.495a7.024,7.024,0,0,1-5.524-2.678L72,58.7l2.21-1.768,3.964,4.948a4.2,4.2,0,0,0,3.348,1.594h5.765Z" transform="translate(-24.017 -18.91)" fill="#639aff"/>
    </g>
  </g>
</svg>
