<svg xmlns="http://www.w3.org/2000/svg" xmlns:xlink="http://www.w3.org/1999/xlink" width="156" height="156" viewBox="0 0 156 156">
  <defs>
    <clipPath id="clip-path">
      <rect id="Rectángulo_4908" data-name="Rectángulo 4908" width="82" height="94.792" fill="none"/>
    </clipPath>
  </defs>
  <g id="Grupo_18942" data-name="Grupo 18942" transform="translate(-422 -5199)">
    <g id="Elipse_998" data-name="Elipse 998" transform="translate(422 5199)" fill="#fff" stroke="#fd8f25" stroke-width="2">
      <circle cx="78" cy="78" r="78" stroke="none"/>
      <circle cx="78" cy="78" r="77" fill="none"/>
    </g>
    <g id="Grupo_18733" data-name="Grupo 18733" transform="translate(459 5229.547)">
      <rect id="Rectángulo_4905" data-name="Rectángulo 4905" width="39.934" height="31.418" transform="translate(21.458 9.116)" fill="#f5fafc"/>
      <path id="Trazado_34838" data-name="Trazado 34838" d="M117.533,27.419l6.522-5.966h24.9l5.336,5.966" transform="translate(-92.903 -16.958)" fill="#fdc345"/>
      <rect id="Rectángulo_4906" data-name="Rectángulo 4906" width="33.136" height="25.841" transform="translate(28.256 14.693)" fill="#fdc345"/>
      <path id="Trazado_34839" data-name="Trazado 34839" d="M106.255,0l-.85.383L98.338,8.395l1.7,1.5,6.729-7.628h25.89L138.1,9.808l1.838-1.326L134.155.47,133.236,0Z" transform="translate(-77.73)" fill="#3d4451"/>
      <path id="Trazado_34840" data-name="Trazado 34840" d="M138.839,71.449H99.652l-1.133-1.133V39.363l1.133-1.133h39.187l1.133,1.133V70.316Zm-38.054-2.266h36.921V40.5H100.785Z" transform="translate(-77.873 -30.219)" fill="#3d4451"/>
      <rect id="Rectángulo_4907" data-name="Rectángulo 4907" width="2.389" height="6.345" transform="translate(40.178 2.23)" fill="#3d4451"/>
      <g id="Grupo_18732" data-name="Grupo 18732" transform="translate(0 0)">
        <g id="Grupo_18731" data-name="Grupo 18731" clip-path="url(#clip-path)">
          <path id="Trazado_34841" data-name="Trazado 34841" d="M140.257,238.163h0a4.286,4.286,0,0,0-6.2,0l-16.04,16.548a4.54,4.54,0,0,0,.294-1.61,4.362,4.362,0,0,0-4.292-4.428H90.092a3.978,3.978,0,0,0-2.722,1.086L75.325,261.085l12.357,12.748,4.854-5.142a2.486,2.486,0,0,1,1.785-.763h21.613a3.959,3.959,0,0,0,2.843-1.215l21.48-22.159a4.622,4.622,0,0,0,0-6.392" transform="translate(-59.54 -187.208)" fill="#c7ddeb"/>
          <path id="Trazado_34842" data-name="Trazado 34842" d="M38.961,346.971l15.2,15.677a.712.712,0,0,1,0,.984l-4.9,5.055a.66.66,0,0,1-.954,0l-15.414-15.9a.711.711,0,0,1,.022-1.005l5.117-4.83a.66.66,0,0,1,.932.021" transform="translate(-25.841 -274.099)" fill="#7eb9c7"/>
          <path id="Trazado_34843" data-name="Trazado 34843" d="M51.682,248.677,36.613,233.131l13.866-13.04a5.511,5.511,0,0,1,3.78-1.506H79.974a5.9,5.9,0,0,1,5.679,4.518l14.957-15.431a5.854,5.854,0,0,1,8.45,0,6.23,6.23,0,0,1,0,8.606L85.979,240.089a5.54,5.54,0,0,1-3.951,1.685H58.8a1.414,1.414,0,0,0-1.021.44ZM40.17,233.213l11.488,11.852,4.32-4.576a3.952,3.952,0,0,1,2.825-1.211H82.028a2.99,2.99,0,0,0,2.159-.926l23.081-23.812a3.713,3.713,0,0,0,0-5.13,3.358,3.358,0,0,0-4.865,0L85.336,227.017a5.866,5.866,0,0,1-5.362,3.582h-14.4a1.248,1.248,0,0,1,0-2.5h14.4a3.373,3.373,0,0,0,3.117-2.189c.008-.023.017-.045.026-.068a3.628,3.628,0,0,0,.222-1.253,3.444,3.444,0,0,0-3.364-3.51H54.26a3.021,3.021,0,0,0-2.071.829Z" transform="translate(-28.94 -162.728)" fill="#3d4451"/>
          <path id="Trazado_34844" data-name="Trazado 34844" d="M18.537,348.183h0a1.947,1.947,0,0,1-1.408-.6L.565,330.5a2.012,2.012,0,0,1,.063-2.857l5.5-5.19a1.946,1.946,0,0,1,2.755.062l16.329,16.846a2.024,2.024,0,0,1,0,2.8l-5.265,5.431a1.948,1.948,0,0,1-1.409.6M2.7,329.115l15.834,16.336,4.551-4.7L7.456,324.629ZM23.418,341.1h0ZM7.088,324.25h0" transform="translate(0 -254.45)" fill="#3d4451"/>
          <path id="Trazado_34845" data-name="Trazado 34845" d="M147.731,85.848a1.781,1.781,0,0,1-1.323-.689l-6.227-7.341a2.056,2.056,0,0,1,.084-2.718,1.653,1.653,0,0,1,2.476.092l4.672,3.617,15.379-12.324a1.657,1.657,0,0,1,2.452-.38,2.026,2.026,0,0,1,.355,2.672L149.091,85.009a1.746,1.746,0,0,1-1.306.838h-.055" transform="translate(-110.432 -51.95)" fill="#4ece46"/>
          <path id="Trazado_34846" data-name="Trazado 34846" d="M142.821,82.244a3.057,3.057,0,0,1-2.285-1.144l-6.23-7.344a3.37,3.37,0,0,1,.15-4.471,2.95,2.95,0,0,1,4.288.048l3.771,2.919,14.451-11.58a3.023,3.023,0,0,1,1.93-1.123,2.926,2.926,0,0,1,2.287.648,3.313,3.313,0,0,1,.6,4.414l-.071.1L145.2,80.952a2.942,2.942,0,0,1-2.27,1.291h-.108m-6.244-11.26a.382.382,0,0,0-.272.126.762.762,0,0,0-.021.96l6.23,7.345a.7.7,0,0,0,.31.231h.026a.818.818,0,0,0,.284-.274l.071-.1,16.483-16.207a.724.724,0,0,0-.155-.852.347.347,0,0,0-.272-.085.428.428,0,0,0-.284.2l-.109.158L142.542,75.56l-5.587-4.325-.087-.1a.389.389,0,0,0-.28-.15h-.011" transform="translate(-105.547 -47.046)" fill="#3d4451"/>
        </g>
      </g>
    </g>
  </g>
</svg>
