<svg xmlns="http://www.w3.org/2000/svg" xmlns:xlink="http://www.w3.org/1999/xlink" width="156" height="156" viewBox="0 0 156 156">
  <defs>
    <clipPath id="clip-path">
      <rect id="Rectángulo_4971" data-name="Rectángulo 4971" width="89.505" height="95.84" fill="none"/>
    </clipPath>
  </defs>
  <g id="Grupo_18947" data-name="Grupo 18947" transform="translate(-422 -6222)">
    <g id="Elipse_1003" data-name="Elipse 1003" transform="translate(422 6222)" fill="#fff" stroke="#fd8f25" stroke-width="2">
      <circle cx="78" cy="78" r="78" stroke="none"/>
      <circle cx="78" cy="78" r="77" fill="none"/>
    </g>
    <g id="Grupo_18797" data-name="Grupo 18797" transform="translate(451 6250.128)">
      <g id="Grupo_18796" data-name="Grupo 18796" clip-path="url(#clip-path)">
        <path id="Trazado_34986" data-name="Trazado 34986" d="M121.755,175.084l60.267.022a1.739,1.739,0,0,0,1.74-1.738l.025-67.747a1.739,1.739,0,0,0-1.738-1.739l-60.267-.023a1.739,1.739,0,0,0-1.74,1.739l-.025,67.747a1.739,1.739,0,0,0,1.738,1.74" transform="translate(-94.283 -81.589)" fill="#c7ddeb"/>
        <path id="Trazado_34987" data-name="Trazado 34987" d="M146.62,128.62h0l-61-.023a2.963,2.963,0,0,1-2.963-2.965l.027-72.881a2.963,2.963,0,0,1,2.964-2.963h0l61,.023a2.963,2.963,0,0,1,2.963,2.965l-.027,72.881a2.964,2.964,0,0,1-2.964,2.963M85.644,52.086a.666.666,0,0,0-.666.666l-.027,72.881a.665.665,0,0,0,.665.666h0l61,.023h0a.666.666,0,0,0,.666-.666l.027-72.881a.666.666,0,0,0-.665-.666l-61-.023Z" transform="translate(-64.93 -39.112)" fill="#3d4451"/>
        <path id="Trazado_34988" data-name="Trazado 34988" d="M271.217,124.855a1.715,1.715,0,0,1-1.19-.589l-5.779-6.351a1.469,1.469,0,0,1,.172-2.15,1.682,1.682,0,0,1,2.27.153l4.526,4.945,9.823-11.355a1.68,1.68,0,0,1,2.264-.221,1.452,1.452,0,0,1,.233,2.128L272.5,124.235a1.662,1.662,0,0,1-1.228.622h-.051" transform="translate(-207.281 -85.587)" fill="#4ece46"/>
        <path id="Trazado_34989" data-name="Trazado 34989" d="M268.177,122.613h-.086a2.546,2.546,0,0,1-1.8-.865l-5.78-6.352a2.3,2.3,0,0,1-.6-1.737,2.322,2.322,0,0,1,.87-1.645,2.545,2.545,0,0,1,3.429.24l3.882,4.241,9.2-10.634a2.542,2.542,0,0,1,3.422-.34,2.323,2.323,0,0,1,.915,1.618,2.281,2.281,0,0,1-.556,1.739L270.028,121.7a2.482,2.482,0,0,1-1.851.917m-.056-1.7h.057a.872.872,0,0,0,.564-.327l11.039-12.819a.592.592,0,0,0,.152-.458.642.642,0,0,0-.258-.443.831.831,0,0,0-1.105.1l-10.448,12.077-5.17-5.649a.835.835,0,0,0-1.11-.066.641.641,0,0,0-.243.451.615.615,0,0,0,.165.465l5.781,6.353a.879.879,0,0,0,.577.311" transform="translate(-204.17 -82.495)" fill="#3d4451"/>
        <path id="Trazado_34990" data-name="Trazado 34990" d="M271.023,226.469a1.714,1.714,0,0,1-1.19-.589l-5.779-6.351a1.469,1.469,0,0,1,.172-2.15,1.682,1.682,0,0,1,2.27.153l4.526,4.945,9.823-11.355a1.68,1.68,0,0,1,2.264-.221,1.452,1.452,0,0,1,.233,2.128L272.3,225.848a1.661,1.661,0,0,1-1.228.621h-.051" transform="translate(-207.128 -165.413)" fill="#4ece46"/>
        <path id="Trazado_34991" data-name="Trazado 34991" d="M267.984,224.227H267.9a2.547,2.547,0,0,1-1.8-.864l-5.781-6.353a2.294,2.294,0,0,1-.6-1.737,2.322,2.322,0,0,1,.869-1.645,2.546,2.546,0,0,1,3.429.24l3.882,4.242,9.2-10.634a2.543,2.543,0,0,1,3.422-.34,2.324,2.324,0,0,1,.915,1.618,2.282,2.282,0,0,1-.556,1.74L269.834,223.31a2.481,2.481,0,0,1-1.85.916m-.057-1.7h.057a.856.856,0,0,0,.565-.327l11.039-12.819a.592.592,0,0,0,.152-.458.641.641,0,0,0-.258-.443.832.832,0,0,0-1.106.1l-10.448,12.077-5.17-5.649a.836.836,0,0,0-1.11-.066.64.64,0,0,0-.243.451.614.614,0,0,0,.165.465l5.781,6.353a.877.877,0,0,0,.577.311" transform="translate(-204.018 -162.321)" fill="#3d4451"/>
        <path id="Trazado_34992" data-name="Trazado 34992" d="M270.833,325.733a1.714,1.714,0,0,1-1.19-.589l-5.779-6.351a1.469,1.469,0,0,1,.172-2.15,1.682,1.682,0,0,1,2.27.153l4.525,4.945,9.823-11.355a1.68,1.68,0,0,1,2.264-.221,1.452,1.452,0,0,1,.233,2.128l-11.04,12.819a1.662,1.662,0,0,1-1.228.622h-.051" transform="translate(-206.98 -243.392)" fill="#4ece46"/>
        <path id="Trazado_34993" data-name="Trazado 34993" d="M267.793,323.49h-.086a2.544,2.544,0,0,1-1.8-.864l-5.781-6.353a2.3,2.3,0,0,1-.6-1.737,2.321,2.321,0,0,1,.87-1.644,2.546,2.546,0,0,1,3.429.24l3.882,4.241,9.2-10.634a2.542,2.542,0,0,1,3.422-.34,2.325,2.325,0,0,1,.916,1.619,2.282,2.282,0,0,1-.556,1.739l-11.038,12.818a2.482,2.482,0,0,1-1.851.916m-5.813-9.459a.831.831,0,0,0-.523.18.641.641,0,0,0-.244.451.616.616,0,0,0,.165.465l5.781,6.353a.877.877,0,0,0,.577.311h.058a.814.814,0,0,0,.564-.327L279.4,308.646a.592.592,0,0,0,.152-.458.643.643,0,0,0-.259-.443.832.832,0,0,0-1.105.1l-10.448,12.077-5.17-5.649a.8.8,0,0,0-.587-.246" transform="translate(-203.869 -240.299)" fill="#3d4451"/>
        <rect id="Rectángulo_4969" data-name="Rectángulo 4969" width="5.131" height="12.211" transform="translate(30.524 25.408)" fill="#f5fafc"/>
        <rect id="Rectángulo_4970" data-name="Rectángulo 4970" width="5.131" height="12.211" transform="translate(30.524 47.309)" fill="#f5fafc"/>
        <path id="Trazado_34994" data-name="Trazado 34994" d="M153.039,126.921H136.5v-15.7h16.535Zm-14.567-1.968h12.6V113.192h-12.6Z" transform="translate(-107.234 -87.376)" fill="#3d4451"/>
        <path id="Trazado_34995" data-name="Trazado 34995" d="M153.039,228.478H136.5v-15.7h16.535Zm-14.567-1.968h12.6V214.749h-12.6Z" transform="translate(-107.234 -167.157)" fill="#3d4451"/>
        <path id="Trazado_34996" data-name="Trazado 34996" d="M44.524,278.251a8.871,8.871,0,1,0-8.671-8.388,9.014,9.014,0,0,0,8.671,8.388" transform="translate(-28.155 -204.668)" fill="#3d4451"/>
        <path id="Trazado_34997" data-name="Trazado 34997" d="M1.7,341.663c.768-3.287,1.93-6.519,4.37-8.871a12.4,12.4,0,0,1,8.435-3.721c1.361,0,6.853-.017,9.942.17,0,0,13.951-3.741,14.906-3.895a4.2,4.2,0,0,1,2.809.426,2.44,2.44,0,0,1,1.145,1.5,3.2,3.2,0,0,1-.835,2.908c-1.439,1.536-3.8,2.137-5.745,2.834-2.2.79-4.384,1.614-6.594,2.37-1.914.655-2.962,3.233-3.435,4.959-.407,1.486.1,7.446.014,8.981v1.856c-6.464,0-12.932.054-19.4,0,.1-2.727.008-5.486.006-8.22q-.686,4.121-1.373,8.242a38.2,38.2,0,0,1-4.7.123c-1.142-.116-1.384-.26-1.2-1.287.174-.988.385-1.972.577-2.958.337-1.725.642-3.577,1.071-5.411" transform="translate(0 -255.53)" fill="#3d4451"/>
        <path id="Trazado_34998" data-name="Trazado 34998" d="M185.762,287.837,201.775,273.1l-1.192-.981-17.258,13.428" transform="translate(-144.015 -213.774)" fill="#3d4451"/>
        <path id="Trazado_34999" data-name="Trazado 34999" d="M69.107,360.93l1.6-6.883-1.464-3.059h4.392l-1.6,3.059L73.9,360.93Z" transform="translate(-54.289 -275.728)" fill="#f04f4c"/>
        <path id="Trazado_35000" data-name="Trazado 35000" d="M188.647,10.51h-8.965a5.6,5.6,0,0,0,.038-.649,6.107,6.107,0,0,0-12.2,0,5.642,5.642,0,0,0,.038.649h-7.834a3.431,3.431,0,0,0-3.5,3.355v4.977a3.431,3.431,0,0,0,3.5,3.354l28.925,0a3.431,3.431,0,0,0,3.5-3.355V13.864a3.431,3.431,0,0,0-3.5-3.354m-15.027,2.2a2.473,2.473,0,0,1-2.525-2.418,2.527,2.527,0,0,1,5.05,0,2.474,2.474,0,0,1-2.525,2.418" transform="translate(-122.723 -3.157)" fill="#fdc345"/>
        <path id="Trazado_35001" data-name="Trazado 35001" d="M156.566,19.9a4.3,4.3,0,0,1-4.364-4.216V10.711a4.118,4.118,0,0,1,1.291-2.994,4.417,4.417,0,0,1,3.073-1.222H163.5a6.541,6.541,0,0,1,2.049-4.542A7.058,7.058,0,0,1,170.462,0h0a7.057,7.057,0,0,1,4.91,1.95,6.54,6.54,0,0,1,2.05,4.541h8.068a4.3,4.3,0,0,1,4.365,4.216v4.977a4.117,4.117,0,0,1-1.291,2.994,4.416,4.416,0,0,1-3.073,1.222l-28.925,0Zm13.9-18.179h0A5.343,5.343,0,0,0,166.744,3.2a4.787,4.787,0,0,0-1.488,4.059l.111.961h-8.8a2.7,2.7,0,0,0-1.881.743,2.408,2.408,0,0,0-.76,1.749v4.977a2.573,2.573,0,0,0,2.641,2.492l28.925,0a2.7,2.7,0,0,0,1.881-.743,2.408,2.408,0,0,0,.76-1.75V10.707a2.573,2.573,0,0,0-2.641-2.492h-9.932l.111-.961A4.789,4.789,0,0,0,174.18,3.2a5.342,5.342,0,0,0-3.718-1.472m0,8.694a3.423,3.423,0,0,1-2.381-.947,3.208,3.208,0,0,1,0-4.665,3.423,3.423,0,0,1,2.382-.948,3.339,3.339,0,0,1,3.387,3.28,3.338,3.338,0,0,1-3.386,3.28Zm0-4.837a1.709,1.709,0,0,0-1.189.469,1.485,1.485,0,0,0,0,2.175,1.708,1.708,0,0,0,1.189.469,1.614,1.614,0,0,0,1.663-1.557,1.615,1.615,0,0,0-1.663-1.556" transform="translate(-119.566 -0.001)" fill="#3d4451"/>
      </g>
    </g>
  </g>
</svg>
