<svg xmlns="http://www.w3.org/2000/svg" xmlns:xlink="http://www.w3.org/1999/xlink" width="156" height="156" viewBox="0 0 156 156">
  <defs>
    <clipPath id="clip-path">
      <rect id="Rectángulo_4960" data-name="Rectángulo 4960" width="113.114" height="111.935" fill="none"/>
    </clipPath>
  </defs>
  <g id="Grupo_18949" data-name="Grupo 18949" transform="translate(-422 -6629)">
    <g id="Elipse_1005" data-name="Elipse 1005" transform="translate(422 6629)" fill="#fff" stroke="#fd8f25" stroke-width="2">
      <circle cx="78" cy="78" r="78" stroke="none"/>
      <circle cx="78" cy="78" r="77" fill="none"/>
    </g>
    <g id="Grupo_18792" data-name="Grupo 18792" transform="translate(447 6645)">
      <g id="Grupo_18791" data-name="Grupo 18791" clip-path="url(#clip-path)">
        <path id="Trazado_34941" data-name="Trazado 34941" d="M60.037,305.637c.978-5.474,4.8-8.187,8.4-11.925,2.316-2.409,4.845-4.591,6.348-7.575a12.621,12.621,0,0,1,1.811-3.006,3.611,3.611,0,0,1,5.1-.29c1.554,1.511,1.509,4,.772,5.9-.811,2.088-2.875,3.276-3.759,5.334-.674,1.569-1.69,3.85-.176,4.765,5.539,3.35,9.212-.019,11.248-2.373a25.413,25.413,0,0,1,5-4.506,22.977,22.977,0,0,1,3.009-1.7c.778-.367,2.7-.711,3.132-1.456,1.159-2,1.936-3.612,4.827-3.32,2.809.284,3.761,2.479,4.954,4.644,9.869,17.91-10.648,34.036-27.223,33.7-3.85-.077-7.673-.87-11.522-.746s-7.939,1.364-10.232,4.458" transform="translate(-46.064 -216.303)" fill="#c7ddeb"/>
        <path id="Trazado_34942" data-name="Trazado 34942" d="M58.862,324.372l-1.885-1.4c3.021-4.076,8.275-4.84,11.137-4.932a49.663,49.663,0,0,1,6.623.374c1.632.166,3.319.338,4.96.371,9.875.193,21.011-5.755,25.9-13.845a17.284,17.284,0,0,0,.273-18.121q-.148-.269-.293-.538c-1.143-2.112-1.881-3.316-3.752-3.505-2-.2-2.475.63-3.527,2.452l-.168.291c-.527.907-1.748,1.3-2.825,1.64a8.591,8.591,0,0,0-.82.287,21.885,21.885,0,0,0-2.855,1.617,24.31,24.31,0,0,0-4.771,4.3,12.515,12.515,0,0,1-4.776,3.653,8.775,8.775,0,0,1-7.966-1.044c-2.36-1.427-1.041-4.5-.332-6.144l.037-.087a10.75,10.75,0,0,1,2.056-2.914,8.3,8.3,0,0,0,1.688-2.382c.582-1.5.655-3.512-.5-4.631a2.172,2.172,0,0,0-1.576-.59,2.625,2.625,0,0,0-1.848.836,9.719,9.719,0,0,0-1.411,2.309c-.071.143-.142.286-.213.428a26.033,26.033,0,0,1-5.2,6.494c-.445.446-.905.908-1.347,1.367-.675.7-1.356,1.367-2.016,2.01-2.866,2.8-5.341,5.212-6.073,9.308l-2.309-.412c.864-4.837,3.72-7.624,6.743-10.575.646-.631,1.314-1.282,1.963-1.957.456-.474.924-.944,1.376-1.4a23.911,23.911,0,0,0,4.77-5.892q.1-.206.206-.413a11.581,11.581,0,0,1,1.791-2.861,4.985,4.985,0,0,1,3.507-1.588,4.475,4.475,0,0,1,3.273,1.254c1.282,1.247,2.326,3.871,1.047,7.162a10.192,10.192,0,0,1-2.125,3.1,8.851,8.851,0,0,0-1.65,2.277l-.038.088c-.427.993-1.221,2.841-.609,3.211,4.6,2.783,7.63.32,9.754-2.136a26.653,26.653,0,0,1,5.236-4.712,24.215,24.215,0,0,1,3.162-1.791,9.5,9.5,0,0,1,1.109-.4,6.6,6.6,0,0,0,1.531-.62l.143-.248c1.125-1.951,2.29-3.968,5.794-3.613,3.2.323,4.463,2.66,5.579,4.722q.141.261.285.523a19.523,19.523,0,0,1-.32,20.466c-5.375,8.895-17.139,15.2-27.955,14.977-1.737-.035-3.472-.212-5.151-.383a47.283,47.283,0,0,0-6.31-.364c-4.151.134-7.55,1.586-9.328,3.984" transform="translate(-42.257 -212.437)" fill="#3d4451"/>
        <path id="Trazado_34943" data-name="Trazado 34943" d="M113.238,357.584a1.173,1.173,0,0,1-.477-2.245c4.167-1.852,3.933-5.057,3.686-8.45q-.021-.279-.04-.553a1.173,1.173,0,1,1,2.34-.161q.019.268.039.542c.254,3.479.6,8.243-5.072,10.765a1.166,1.166,0,0,1-.475.1" transform="translate(-85.982 -264.767)" fill="#3d4451"/>
        <path id="Trazado_34944" data-name="Trazado 34944" d="M131.444,370.973c-.11,0-.221,0-.334-.009-2.377-.122-4.675-1.263-6.7-2.27-.577-.287-1.122-.557-1.653-.8-12.46-5.665-16.793.469-16.972.733a1.173,1.173,0,0,1-1.96-1.289c.218-.335,5.508-8.123,19.9-1.579.568.258,1.157.551,1.726.833a15.8,15.8,0,0,0,5.778,2.028c3.089.156,4.939-3.378,6.432-6.706,1.162-2.591,3.539-4.866,6.23-4.11a4.651,4.651,0,0,1,3.029,2.7,3.7,3.7,0,0,1-.161,3.26,1.173,1.173,0,1,1-2.033-1.17,1.386,1.386,0,0,0,.022-1.2,2.319,2.319,0,0,0-1.492-1.327c-1.429-.4-2.849,1.462-3.455,2.812-1.278,2.849-3.632,8.1-8.359,8.1" transform="translate(-79.514 -274.416)" fill="#3d4451"/>
        <path id="Trazado_34945" data-name="Trazado 34945" d="M164.125,360.758a12.321,12.321,0,0,1,6.144,6.144" transform="translate(-125.926 -276.794)" fill="#fff"/>
        <path id="Trazado_34946" data-name="Trazado 34946" d="M166.41,364.209a1.173,1.173,0,0,1-1.067-.684,11.283,11.283,0,0,0-5.5-5.538,1.173,1.173,0,0,1,.839-2.19,13.453,13.453,0,0,1,6.792,6.751,1.173,1.173,0,0,1-1.065,1.662" transform="translate(-122.066 -272.927)" fill="#3d4451"/>
        <path id="Trazado_34947" data-name="Trazado 34947" d="M190.815,320.443a1.173,1.173,0,0,1-.693-2.12c.074-.054,7.445-5.514,9.435-12.559a1.173,1.173,0,1,1,2.257.638c-2.214,7.835-9.979,13.575-10.309,13.816a1.166,1.166,0,0,1-.691.226" transform="translate(-145.503 -233.944)" fill="#3d4451"/>
        <path id="Trazado_34948" data-name="Trazado 34948" d="M214.7,320.544a1.173,1.173,0,0,1-.683-2.127,27.781,27.781,0,0,0,10.032-12.292A18.04,18.04,0,0,0,225.432,300a1.175,1.175,0,0,1,1.155-1.189h.018a1.171,1.171,0,0,1,1.172,1.15c.008.464.06,11.47-12.394,20.367a1.169,1.169,0,0,1-.681.218" transform="translate(-163.83 -229.263)" fill="#3d4451"/>
        <path id="Trazado_34949" data-name="Trazado 34949" d="M265.279,324.512a1.173,1.173,0,0,1-1.048-1.7c.925-1.857,3.052-7.506.771-9.067-.37-.254-.883-.524-1.219-.369-.645.295-1.148,1.861-1.263,2.878a1.173,1.173,0,0,1-2.331-.264c.043-.383.486-3.772,2.618-4.747a3.447,3.447,0,0,1,3.519.566c1.343.919,2.721,2.959,1.655,7.454a23.7,23.7,0,0,1-1.652,4.6,1.173,1.173,0,0,1-1.05.648" transform="translate(-199.626 -238.607)" fill="#3d4451"/>
        <path id="Trazado_34950" data-name="Trazado 34950" d="M268.162,327.585s4.121-8.2.384-10.56c-3.648-2.3-4.608,4.032-4.608,4.032" transform="translate(-202.508 -242.852)" fill="#c7ddeb"/>
        <path id="Trazado_34951" data-name="Trazado 34951" d="M264.294,324.893a1.173,1.173,0,0,1-1.047-1.7c.943-1.883,3.115-7.583.806-9.041-.725-.458-1.051-.31-1.158-.261-.827.376-1.482,2.3-1.665,3.479a1.173,1.173,0,0,1-2.319-.353c.065-.427.7-4.2,3.008-5.259a3.423,3.423,0,0,1,3.386.411c1.389.878,2.816,2.879,1.723,7.431a24.1,24.1,0,0,1-1.686,4.647,1.173,1.173,0,0,1-1.049.646" transform="translate(-198.641 -238.987)" fill="#3d4451"/>
        <path id="Trazado_34952" data-name="Trazado 34952" d="M181.163,140.071l-27.652,15.655-27.652-15.655V108.212L153.6,98.63l27.567,9.582Z" transform="translate(-96.566 -75.674)" fill="#fff"/>
        <path id="Trazado_34953" data-name="Trazado 34953" d="M149.307,152.744,120.38,136.367V102.855l29.014-10.022,28.841,10.024v33.509ZM122.93,134.88l26.377,14.933,26.377-14.933V104.671l-26.293-9.139-26.461,9.141Z" transform="translate(-92.362 -71.227)" fill="#3d4451"/>
        <path id="Trazado_34954" data-name="Trazado 34954" d="M193.251,155.859l-22.389,12.5-22.389-12.5v-25l22.334-8.039,22.444,7.241Z" transform="translate(-113.917 -94.234)" fill="#fdc345"/>
        <rect id="Rectángulo_4958" data-name="Rectángulo 4958" width="1.686" height="35.938" transform="matrix(1, -0.005, 0.005, 1, 55.501, 44.498)" fill="#3d4451"/>
        <path id="Trazado_34955" data-name="Trazado 34955" d="M150.981,149.945l-2.6-1.3-24.095-10.988.85-1.864,24.145,11.012,1.774.887,28.375-11.89.792,1.889Z" transform="translate(-95.36 -104.189)" fill="#3d4451"/>
        <path id="Trazado_34956" data-name="Trazado 34956" d="M241.364,15.546a1.024,1.024,0,0,1-1.024-1.024V1.024a1.024,1.024,0,0,1,2.048,0v13.5a1.024,1.024,0,0,1-1.024,1.024" transform="translate(-184.402)" fill="#3d4451"/>
        <path id="Trazado_34957" data-name="Trazado 34957" d="M337.637,69.3a1.024,1.024,0,0,1-.536-1.9l13.228-8.1a1.024,1.024,0,0,1,1.07,1.747l-13.228,8.1a1.021,1.021,0,0,1-.534.151" transform="translate(-258.267 -45.387)" fill="#3d4451"/>
        <path id="Trazado_34958" data-name="Trazado 34958" d="M395.446,173.7a1.08,1.08,0,0,1-.135-2.151l19.167-2.43a1.08,1.08,0,1,1,.272,2.142l-19.167,2.43a1.093,1.093,0,0,1-.137.009" transform="translate(-302.581 -129.747)" fill="#3d4451"/>
        <path id="Trazado_34959" data-name="Trazado 34959" d="M99.084,61.292a1.019,1.019,0,0,1-.606-.2L84.17,50.564a1.024,1.024,0,1,1,1.214-1.65L99.692,59.443a1.024,1.024,0,0,1-.608,1.849" transform="translate(-64.26 -37.377)" fill="#3d4451"/>
        <path id="Trazado_34960" data-name="Trazado 34960" d="M20.519,170.755a1.071,1.071,0,0,1-.165-.013L.917,167.773a1.08,1.08,0,1,1,.326-2.135l19.437,2.969a1.08,1.08,0,0,1-.162,2.148" transform="translate(0 -127.077)" fill="#3d4451"/>
        <path id="Trazado_34961" data-name="Trazado 34961" d="M194.718,207.695a3.174,3.174,0,0,1-2.087-.863l-10.251-9.5a2.051,2.051,0,0,1,.226-3.271,3.236,3.236,0,0,1,3.948.174l8.027,7.395,16.681-17.509a3.217,3.217,0,0,1,3.926-.395,2.038,2.038,0,0,1,.476,3.227l-18.744,19.765a3.021,3.021,0,0,1-2.112.976Z" transform="translate(-139.387 -140.59)" fill="#4ece46"/>
        <path id="Trazado_34962" data-name="Trazado 34962" d="M191.2,205.177h-.088a4.25,4.25,0,0,1-2.828-1.153l-10.253-9.5a3.183,3.183,0,0,1-1.055-2.512,3.278,3.278,0,0,1,1.377-2.442,4.323,4.323,0,0,1,5.334.251l7.237,6.667,15.939-16.731a4.3,4.3,0,0,1,5.309-.56,3.331,3.331,0,0,1,1.552,2.378,3.087,3.087,0,0,1-.876,2.521L194.108,203.86a4.122,4.122,0,0,1-2.905,1.317M180.874,190.96a2.09,2.09,0,0,0-1.227.373,1.089,1.089,0,0,0-.487.8.985.985,0,0,0,.356.784l10.254,9.5a2.071,2.071,0,0,0,1.344.572h.088a1.954,1.954,0,0,0,1.319-.636l18.744-19.765a.932.932,0,0,0,.289-.758,1.146,1.146,0,0,0-.566-.8,2.142,2.142,0,0,0-2.541.23l-17.423,18.288-8.817-8.123a1.985,1.985,0,0,0-1.334-.469" transform="translate(-135.784 -136.98)" fill="#3d4451"/>
        <rect id="Rectángulo_4959" data-name="Rectángulo 4959" width="29.694" height="1.396" transform="translate(42.142 37.364) rotate(-20.665)" fill="#3d4451"/>
      </g>
    </g>
  </g>
</svg>
