<svg xmlns="http://www.w3.org/2000/svg" xmlns:xlink="http://www.w3.org/1999/xlink" width="156" height="156" viewBox="0 0 156 156">
  <defs>
    <clipPath id="clip-path">
      <rect id="Rectángulo_4903" data-name="Rectángulo 4903" width="95.948" height="94.691" fill="none"/>
    </clipPath>
  </defs>
  <g id="Grupo_18941" data-name="Grupo 18941" transform="translate(-422 -5001)">
    <g id="Elipse_983" data-name="Elipse 983" transform="translate(422 5001)" fill="#fff" stroke="#fd8f25" stroke-width="2">
      <circle cx="78" cy="78" r="78" stroke="none"/>
      <circle cx="78" cy="78" r="77" fill="none"/>
    </g>
    <g id="Grupo_18730" data-name="Grupo 18730" transform="translate(452 5030.864)">
      <g id="Grupo_18729" data-name="Grupo 18729" clip-path="url(#clip-path)">
        <path id="Trazado_34824" data-name="Trazado 34824" d="M127.6,238.611c0,2.5-9.23,4.533-20.617,4.533s-20.616-2.029-20.616-4.533,9.23-4.533,20.616-4.533,20.617,2.029,20.617,4.533" transform="translate(-68.687 -186.159)" fill="#7eb9c7"/>
        <path id="Trazado_34825" data-name="Trazado 34825" d="M37.242,79.322a37.212,37.212,0,1,1,26.334-10.89,37.128,37.128,0,0,1-26.334,10.89M12.976,66.364A34.318,34.318,0,1,0,2.924,42.1,34.357,34.357,0,0,0,12.976,66.364" transform="translate(0 -3.861)" fill="#3d4451"/>
        <path id="Trazado_34826" data-name="Trazado 34826" d="M62.161,97.844A30.828,30.828,0,1,1,83.97,88.825a30.745,30.745,0,0,1-21.809,9.019m0-59.9A29.074,29.074,0,1,0,82.73,46.448a28.995,28.995,0,0,0-20.568-8.506" transform="translate(-24.919 -28.78)" fill="#3d4451"/>
        <path id="Trazado_34827" data-name="Trazado 34827" d="M305.941,305.42l-10.475-10.475,6.664-6.665,10.475,10.475Zm-8.66-10.475,8.66,8.66,4.849-4.85-8.66-8.66Z" transform="translate(-234.98 -229.265)" fill="#3d4451"/>
        <path id="Trazado_34828" data-name="Trazado 34828" d="M359.553,361.151q-.1,0-.2,0a4.629,4.629,0,0,1-3.077-1.362l-13.094-13.094a4.472,4.472,0,0,1-1.327-3.054,4.09,4.09,0,0,1,1.194-3.032l3.7-3.7a4.1,4.1,0,0,1,3.032-1.194,4.472,4.472,0,0,1,3.054,1.327l13.1,13.094a4.631,4.631,0,0,1,1.361,3.078,4.041,4.041,0,0,1-1.159,3.078l-3.7,3.7a4.02,4.02,0,0,1-2.88,1.163M349.666,337a2.814,2.814,0,0,0-2.012.82l-3.7,3.7a2.821,2.821,0,0,0-.818,2.091,3.2,3.2,0,0,0,.952,2.18l13.094,13.095a3.4,3.4,0,0,0,2.226.987,2.782,2.782,0,0,0,2.115-.784l3.7-3.7a2.771,2.771,0,0,0,.784-2.115,3.394,3.394,0,0,0-.986-2.226l-13.1-13.094a3.194,3.194,0,0,0-2.18-.952h-.079" transform="translate(-271.873 -266.988)" fill="#3d4451"/>
        <path id="Trazado_34829" data-name="Trazado 34829" d="M357.5,359.629c-.074,0-.147,0-.221,0a5.157,5.157,0,0,1-3.428-1.516l-13.094-13.094a5,5,0,0,1-1.482-3.414,4.614,4.614,0,0,1,1.348-3.419l3.7-3.7a4.634,4.634,0,0,1,3.419-1.349,5,5,0,0,1,3.414,1.482l13.1,13.094a5.156,5.156,0,0,1,1.515,3.429,4.564,4.564,0,0,1-1.314,3.475l-3.7,3.7a4.542,4.542,0,0,1-3.253,1.318m-9.888-24.155a2.292,2.292,0,0,0-1.64.665l-3.7,3.7a2.3,2.3,0,0,0-.664,1.7,2.667,2.667,0,0,0,.8,1.82l13.095,13.095a2.86,2.86,0,0,0,1.875.832,2.241,2.241,0,0,0,1.719-.63l3.7-3.7a2.252,2.252,0,0,0,.631-1.719,2.862,2.862,0,0,0-.832-1.876L349.5,336.272a2.669,2.669,0,0,0-1.82-.8h-.065" transform="translate(-269.821 -264.938)" fill="#3d4451"/>
        <path id="Trazado_34830" data-name="Trazado 34830" d="M374.715,387.359a.641.641,0,0,1-.454-.188l-12.282-12.282a.642.642,0,0,1,.908-.908l12.282,12.282a.642.642,0,0,1-.454,1.1" transform="translate(-287.728 -297.273)" fill="#3d4451"/>
        <path id="Trazado_34831" data-name="Trazado 34831" d="M142.787,128.929l-15.353,8.383-15.353-8.383V112.162l15.353-7.113,15.353,7.113Z" transform="translate(-89.137 -83.545)" fill="#fdc345"/>
        <path id="Trazado_34832" data-name="Trazado 34832" d="M110.616,110.839,91.554,99.879V77.9l19.062-9.3,19.062,9.3V99.879Zm-16.752-12.3,16.752,9.631,16.751-9.631v-19.2l-16.751-8.171L93.865,79.343Z" transform="translate(-72.812 -54.557)" fill="#3d4451"/>
        <path id="Trazado_34833" data-name="Trazado 34833" d="M122.877,129.975l-16-7.718.554-1.148,15.448,7.452,15.6-7.453.549,1.15Z" transform="translate(-84.999 -96.316)" fill="#3d4451"/>
        <path id="Trazado_34834" data-name="Trazado 34834" d="M146.73,172.644a1.909,1.909,0,0,1-1.3-.575l-6.375-6.328a1.425,1.425,0,0,1,.14-2.179,1.908,1.908,0,0,1,2.455.116l4.991,4.926,10.373-11.664a1.9,1.9,0,0,1,2.441-.263,1.413,1.413,0,0,1,.3,2.15L148.1,171.994a1.83,1.83,0,0,1-1.313.65Z" transform="translate(-110.24 -124.344)" fill="#6b968b"/>
        <path id="Trazado_34835" data-name="Trazado 34835" d="M142.809,169.683h-.055a2.919,2.919,0,0,1-2.017-.871l-6.376-6.33a2.466,2.466,0,0,1-.74-1.888,2.509,2.509,0,0,1,.969-1.822,2.925,2.925,0,0,1,3.805.192l4.224,4.169,9.656-10.858a2.915,2.915,0,0,1,3.787-.425,2.532,2.532,0,0,1,1.092,1.767,2.407,2.407,0,0,1-.612,1.905l-11.654,13.165a2.818,2.818,0,0,1-2.08,1m-6.421-9.475a.867.867,0,0,0-.534.175.456.456,0,0,0-.19.327.411.411,0,0,0,.136.318l6.377,6.33a.9.9,0,0,0,.577.278h.055a.835.835,0,0,0,.547-.306l11.655-13.166a.381.381,0,0,0,.111-.3.484.484,0,0,0-.223-.326.876.876,0,0,0-1.093.1L142.716,166.1l-5.758-5.683a.813.813,0,0,0-.57-.214" transform="translate(-106.264 -120.359)" fill="#3d4451"/>
        <path id="Trazado_34836" data-name="Trazado 34836" d="M219.17,14.7a6.524,6.524,0,1,1,9.23,0,6.527,6.527,0,0,1-9.23,0" transform="translate(-172.781 -2.828)" fill="#f04f4c"/>
        <path id="Trazado_34837" data-name="Trazado 34837" d="M220.962,14.51a7.251,7.251,0,1,1,5.129-2.12,7.241,7.241,0,0,1-5.129,2.12m-.01-13.048a5.8,5.8,0,1,0,4.1,1.7,5.772,5.772,0,0,0-4.1-1.7" transform="translate(-169.955 0)" fill="#3d4451"/>
      </g>
    </g>
  </g>
</svg>
