<svg xmlns="http://www.w3.org/2000/svg" xmlns:xlink="http://www.w3.org/1999/xlink" width="179.839" height="207.234" viewBox="0 0 179.839 207.234">
  <defs>
    <clipPath id="clip-path">
      <rect id="Rectángulo_4885" data-name="Rectángulo 4885" width="179.839" height="207.234" fill="none"/>
    </clipPath>
  </defs>
  <g id="Grupo_18938" data-name="Grupo 18938" transform="translate(-1205 -2287.213)">
    <g id="Grupo_18728" data-name="Grupo 18728" transform="translate(1205 2287.213)">
      <g id="Grupo_18727" data-name="Grupo 18727" clip-path="url(#clip-path)">
        <path id="Trazado_34794" data-name="Trazado 34794" d="M42.921,243.83H163.25a3.507,3.507,0,0,0,3.507-3.506V102.367a3.507,3.507,0,0,0-3.507-3.507H42.921a3.507,3.507,0,0,0-3.506,3.507V240.324a3.506,3.506,0,0,0,3.506,3.506" transform="translate(-22.726 -57.002)" fill="#c7ddeb"/>
        <path id="Trazado_34795" data-name="Trazado 34795" d="M127.427,206.039H6.177A6.184,6.184,0,0,1,0,199.862V60.281A6.184,6.184,0,0,1,6.177,54.1h121.25a6.184,6.184,0,0,1,6.177,6.177V199.862a6.184,6.184,0,0,1-6.177,6.177M6.177,59.377a.905.905,0,0,0-.9.9V199.862a.905.905,0,0,0,.9.9h121.25a.905.905,0,0,0,.9-.9V60.281a.905.905,0,0,0-.9-.9Z" transform="translate(0 -31.196)" fill="#3d4451"/>
        <rect id="Rectángulo_4878" data-name="Rectángulo 4878" width="62.929" height="4.049" transform="translate(49.934 130.928)" fill="#3d4451"/>
        <rect id="Rectángulo_4879" data-name="Rectángulo 4879" width="62.929" height="4.049" transform="translate(49.934 144.223)" fill="#3d4451"/>
        <path id="Trazado_34796" data-name="Trazado 34796" d="M216.229,310.724c0-16.083,13.419-29.121,29.972-29.121s29.972,13.038,29.972,29.121-13.419,29.121-29.972,29.121-29.972-13.038-29.972-29.121" transform="translate(-124.676 -162.371)" fill="#7eb9c7"/>
        <path id="Trazado_34797" data-name="Trazado 34797" d="M232.5,326.555c0-13.735,11.782-24.87,26.315-24.87s26.315,11.135,26.315,24.87-11.782,24.87-26.315,24.87S232.5,340.29,232.5,326.555" transform="translate(-134.057 -173.95)" fill="#f5fafc"/>
        <path id="Trazado_34798" data-name="Trazado 34798" d="M261.834,273.17a37.991,37.991,0,1,0,0,53.727,37.99,37.99,0,0,0,0-53.727m-5.814,47.913a29.768,29.768,0,1,1,0-42.1,29.769,29.769,0,0,1,0,42.1" transform="translate(-113.578 -151.092)" fill="#f04f4c"/>
        <path id="Trazado_34799" data-name="Trazado 34799" d="M233.305,337.582A39.215,39.215,0,1,1,261.034,326.1a38.956,38.956,0,0,1-27.728,11.486m0-75.982a36.769,36.769,0,1,0,26,10.769,36.526,36.526,0,0,0-26-10.769m0,67.745a30.977,30.977,0,1,1,21.914-9.063,30.892,30.892,0,0,1-21.914,9.063m0-59.522a28.546,28.546,0,1,0,20.185,8.361,28.359,28.359,0,0,0-20.185-8.361" transform="translate(-111.912 -149.427)" fill="#3d4451"/>
        <path id="Trazado_34800" data-name="Trazado 34800" d="M388.015,450.209a3.444,3.444,0,0,1,.354,4.786l-3.246,3.246a3.445,3.445,0,0,1-4.786-.354L367.99,445.539a3.357,3.357,0,0,1-.289-4.721l3.246-3.246a3.357,3.357,0,0,1,4.721.289Z" transform="translate(-211.53 -251.818)" fill="#7eb9c7"/>
        <path id="Trazado_34801" data-name="Trazado 34801" d="M232.964,337.23a39.511,39.511,0,1,1,27.962-11.563,39.416,39.416,0,0,1-27.962,11.563m0-75.964A36.439,36.439,0,1,0,258.73,271.94a36.2,36.2,0,0,0-25.766-10.673" transform="translate(-111.526 -148.855)" fill="#3d4451"/>
        <rect id="Rectángulo_4880" data-name="Rectángulo 4880" width="7.677" height="12.759" transform="translate(147.082 177.306) rotate(-45)" fill="#f5fafc"/>
        <path id="Trazado_34802" data-name="Trazado 34802" d="M353.945,419.737l-10.826-10.825,7.233-7.232,10.825,10.825Zm-7.218-10.825,7.218,7.218,3.625-3.625-7.218-7.218Z" transform="translate(-197.841 -231.607)" fill="#3d4451"/>
        <path id="Trazado_34803" data-name="Trazado 34803" d="M383.189,449.522a4.372,4.372,0,0,1-3.081-1.277L367.76,435.9a4.219,4.219,0,0,1-1.252-2.88,3.861,3.861,0,0,1,1.126-2.86l3.485-3.485a3.892,3.892,0,0,1,2.859-1.126,4.216,4.216,0,0,1,2.88,1.251l12.348,12.348a4.365,4.365,0,0,1,1.283,2.9,3.814,3.814,0,0,1-1.093,2.9l-3.485,3.485a3.822,3.822,0,0,1-2.724,1.086m-9.316-22.767a2.654,2.654,0,0,0-1.9.773l-3.486,3.485a2.656,2.656,0,0,0-.771,1.972,3.01,3.01,0,0,0,.9,2.055l12.348,12.348a2.942,2.942,0,0,0,4.093.191l3.486-3.486a2.615,2.615,0,0,0,.74-1.994,3.2,3.2,0,0,0-.931-2.1L376,427.653a3.011,3.011,0,0,0-2.055-.9h-.075" transform="translate(-211.326 -245.367)" fill="#3d4451"/>
        <path id="Trazado_34804" data-name="Trazado 34804" d="M382.272,449.3a5.033,5.033,0,0,1-3.552-1.493l-12.347-12.348a4.886,4.886,0,0,1-1.448-3.337,4.524,4.524,0,0,1,1.322-3.35l3.485-3.485a4.486,4.486,0,0,1,3.35-1.322,4.888,4.888,0,0,1,3.336,1.447l12.348,12.348a5.034,5.034,0,0,1,1.479,3.347,4.473,4.473,0,0,1-1.289,3.405l-3.485,3.485a4.491,4.491,0,0,1-3.2,1.3M372.96,426.51a1.99,1.99,0,0,0-1.424.576l-3.486,3.485a2,2,0,0,0-.575,1.481,2.345,2.345,0,0,0,.7,1.6L380.524,446a2.268,2.268,0,0,0,3.145.191l3.485-3.485a1.953,1.953,0,0,0,.544-1.491,2.525,2.525,0,0,0-.735-1.654l-12.348-12.348a2.345,2.345,0,0,0-1.6-.7h-.057" transform="translate(-210.413 -244.452)" fill="#3d4451"/>
        <path id="Trazado_34805" data-name="Trazado 34805" d="M261.093,343.956a3.362,3.362,0,0,1-2.338-1.161L247.4,330.273a2.9,2.9,0,0,1,.337-4.238,3.3,3.3,0,0,1,4.458.3l8.889,9.749,19.3-22.391a3.291,3.291,0,0,1,4.448-.436,2.869,2.869,0,0,1,.458,4.2l-21.686,25.277a3.262,3.262,0,0,1-2.413,1.226l-.1,0" transform="translate(-142.211 -180.239)" fill="#4ece46"/>
        <path id="Trazado_34806" data-name="Trazado 34806" d="M258.959,343.366h-.069l-.1,0a5,5,0,0,1-3.543-1.707l-11.354-12.524a4.529,4.529,0,0,1-1.184-3.42,4.578,4.578,0,0,1,1.707-3.238,4.994,4.994,0,0,1,6.745.473l7.62,8.357,18.068-20.963a4.987,4.987,0,0,1,6.73-.67,4.577,4.577,0,0,1,1.8,3.186,4.5,4.5,0,0,1-1.091,3.426L262.6,341.557a4.873,4.873,0,0,1-3.64,1.809m-.111-3.343.113,0a1.705,1.705,0,0,0,1.1-.644L281.749,314.1a1.2,1.2,0,0,0,.3-.908,1.268,1.268,0,0,0-.509-.876,1.623,1.623,0,0,0-2.162.2l-20.529,23.819L248.69,325.2a1.628,1.628,0,0,0-2.172-.129,1.268,1.268,0,0,0-.479.893,1.22,1.22,0,0,0,.324.921l11.354,12.525a1.742,1.742,0,0,0,1.129.613" transform="translate(-139.936 -177.975)" fill="#3d4451"/>
        <path id="Trazado_34807" data-name="Trazado 34807" d="M140.789,33.414h-15.61a6.911,6.911,0,0,0,.066-.949c0-4.72-4.758-8.546-10.625-8.546S104,27.748,104,32.468a6.983,6.983,0,0,0,.067.95H90.422c-3.369,0-6.1,2.2-6.1,4.907v7.28c0,2.71,2.731,4.906,6.1,4.906l50.367,0c3.369,0,6.1-2.2,6.1-4.907V38.32c0-2.71-2.731-4.906-6.1-4.906m-26.167-.186c-2.428,0-4.4-1.583-4.4-3.537s1.968-3.537,4.4-3.538,4.4,1.583,4.4,3.537-1.968,3.537-4.4,3.538" transform="translate(-48.62 -13.792)" fill="#fdc345"/>
        <path id="Trazado_34808" data-name="Trazado 34808" d="M84.474,36.607a8.1,8.1,0,0,1-8.221-7.952V19.672a7.771,7.771,0,0,1,2.436-5.652,8.316,8.316,0,0,1,5.783-2.3H96.663a12.947,12.947,0,0,1,25.776,0l14.231,0h0a8.1,8.1,0,0,1,8.22,7.952v8.983a7.771,7.771,0,0,1-2.436,5.652,8.316,8.316,0,0,1-5.783,2.3ZM109.55,3.8a8.9,8.9,0,0,0-9.11,8.646,8.315,8.315,0,0,0,.057.953l.246,2.117-16.27,0a4.531,4.531,0,0,0-3.156,1.246,4,4,0,0,0-1.265,2.909v8.983a4.3,4.3,0,0,0,4.422,4.153l52.2-.005a4.531,4.531,0,0,0,3.155-1.246,4,4,0,0,0,1.265-2.908V19.665a4.3,4.3,0,0,0-4.422-4.153l-18.31,0,.245-2.118a8.321,8.321,0,0,0,.057-.953A8.9,8.9,0,0,0,109.55,3.8m0,15.689a6.521,6.521,0,0,1-4.536-1.8,6.134,6.134,0,0,1,0-8.915,6.52,6.52,0,0,1,4.535-1.807h0a6.521,6.521,0,0,1,4.535,1.805,6.134,6.134,0,0,1,0,8.915,6.523,6.523,0,0,1-4.536,1.806Zm0-8.728a2.743,2.743,0,0,0-1.909.75,2.337,2.337,0,0,0,0,3.428,2.738,2.738,0,0,0,1.908.75v0a2.741,2.741,0,0,0,1.909-.751,2.338,2.338,0,0,0,0-3.428,2.742,2.742,0,0,0-1.909-.75" transform="translate(-43.966 0)" fill="#3d4451"/>
        <path id="Trazado_34809" data-name="Trazado 34809" d="M52.719,112.71h-.087l-4.794,2.256-.959-4.077,6.493-3.048h4.967V133.57H52.719Z" transform="translate(-27.031 -62.181)" fill="#3d4451"/>
        <path id="Trazado_34810" data-name="Trazado 34810" d="M46.957,226.614v-3.483l2.833-3.285c3.661-4.235,6.667-7.758,6.667-11.439a3.308,3.308,0,0,0-3.617-3.522,8.551,8.551,0,0,0-4.27,1.306l-1-4.037a13.645,13.645,0,0,1,6.319-1.584c6.188,0,8.193,3.76,8.193,7.441,0,4.829-3.312,8.708-6.581,12.152l-1.7,1.82v.079h8.672v4.552Z" transform="translate(-27.075 -115.648)" fill="#3d4451"/>
        <path id="Trazado_34811" data-name="Trazado 34811" d="M49.654,319.856a9.523,9.523,0,0,0,4.227.99c2.746,0,4.271-1.544,4.271-3.72,0-2.85-2.4-4.077-5.316-4.077h-.785v-3.8h.566c2.092-.039,4.794-.832,4.794-3.325,0-1.86-1.307-2.969-3.312-2.969a7.42,7.42,0,0,0-3.573,1.03l-.741-3.919a13,13,0,0,1,5.84-1.346c4.968,0,7.452,2.929,7.452,6.214a6.273,6.273,0,0,1-4.052,5.779v.079a6.518,6.518,0,0,1,4.837,6.531c0,3.918-3.312,7.758-9.457,7.758a12.986,12.986,0,0,1-5.578-1.148Z" transform="translate(-28.153 -172.24)" fill="#3d4451"/>
        <rect id="Rectángulo_4881" data-name="Rectángulo 4881" width="62.929" height="4.049" transform="translate(49.934 49.631)" fill="#3d4451"/>
        <rect id="Rectángulo_4882" data-name="Rectángulo 4882" width="62.929" height="4.049" transform="translate(49.934 64.185)" fill="#3d4451"/>
        <rect id="Rectángulo_4883" data-name="Rectángulo 4883" width="62.929" height="4.049" transform="translate(49.934 88.671)" fill="#3d4451"/>
        <rect id="Rectángulo_4884" data-name="Rectángulo 4884" width="62.929" height="4.049" transform="translate(49.934 103.225)" fill="#3d4451"/>
      </g>
    </g>
  </g>
</svg>
