<svg xmlns="http://www.w3.org/2000/svg" width="138.2" height="98.372" viewBox="0 0 138.2 98.372">
  <g id="Grupo_55219" data-name="Grupo 55219" transform="translate(-366.819 -2126.315)">
    <path id="Trazado_105849" data-name="Trazado 105849" d="M732.8,1237.979v-23.618c0-2.4-2.709-4.34-6.053-4.34H652.969c-3.342,0-6.053,1.944-6.053,4.34v23.618c0,2.4-2.709,4.34-6.053,4.34H630c-5.136,0-7.938,4.3-4.647,7.123l59.852,51.391a7.705,7.705,0,0,0,9.292,0l59.857-51.391c3.293-2.827.491-7.123-4.645-7.123H738.85C735.508,1242.32,732.8,1240.378,732.8,1237.979Z" transform="translate(-253.934 919.294)" fill="#472ea6" stroke="#bbabf5" stroke-width="6"/>
    <path id="Trazado_111313" data-name="Trazado 111313" d="M6.087,5.625l2.922,8.25,2.906-8.25h3.078V17H12.641V13.891l.234-5.367L9.805,17H8.2L5.133,8.531l.234,5.359V17H3.024V5.625Zm14.7,11.531a4.15,4.15,0,0,1-3.027-1.141,4.054,4.054,0,0,1-1.168-3.039v-.219a5.106,5.106,0,0,1,.492-2.277,3.612,3.612,0,0,1,1.395-1.547,3.914,3.914,0,0,1,2.059-.543,3.508,3.508,0,0,1,2.73,1.094,4.444,4.444,0,0,1,1,3.1v.922H18.876a2.1,2.1,0,0,0,.66,1.328,2,2,0,0,0,1.395.5,2.437,2.437,0,0,0,2.039-.945l1.109,1.242A3.389,3.389,0,0,1,22.7,16.754,4.511,4.511,0,0,1,20.782,17.156Zm-.258-6.945a1.411,1.411,0,0,0-1.09.455,2.357,2.357,0,0,0-.535,1.3H22.04v-.181a1.681,1.681,0,0,0-.406-1.165A1.456,1.456,0,0,0,20.524,10.211Zm4.664,2.5a5.094,5.094,0,0,1,.887-3.148A2.877,2.877,0,0,1,28.5,8.391a2.589,2.589,0,0,1,2.039.922V5h2.266V17H30.766l-.109-.9a2.657,2.657,0,0,1-2.172,1.055A2.869,2.869,0,0,1,26.09,15.98,5.258,5.258,0,0,1,25.188,12.711Zm2.258.168A3.337,3.337,0,0,0,27.86,14.7a1.349,1.349,0,0,0,1.2.634,1.511,1.511,0,0,0,1.477-.884V11.111a1.489,1.489,0,0,0-1.461-.884Q27.446,10.227,27.446,12.879ZM36.938,17H34.672V8.547h2.266ZM34.54,6.359a1.112,1.112,0,0,1,.34-.836,1.465,1.465,0,0,1,1.848,0,1.105,1.105,0,0,1,.344.836,1.108,1.108,0,0,1-.348.844,1.448,1.448,0,0,1-1.836,0A1.108,1.108,0,0,1,34.54,6.359ZM38.446,12.7a5.013,5.013,0,0,1,.484-2.242A3.546,3.546,0,0,1,40.325,8.93a4.069,4.069,0,0,1,2.113-.539,3.849,3.849,0,0,1,2.793,1.047,4.2,4.2,0,0,1,1.207,2.844l.016.578a4.418,4.418,0,0,1-1.086,3.121,4.209,4.209,0,0,1-5.832,0,4.5,4.5,0,0,1-1.09-3.187Zm2.258.16a3.16,3.16,0,0,0,.453,1.843,1.628,1.628,0,0,0,2.578.008,3.457,3.457,0,0,0,.461-2.015,3.128,3.128,0,0,0-.461-1.831,1.5,1.5,0,0,0-1.3-.649,1.474,1.474,0,0,0-1.281.646A3.516,3.516,0,0,0,40.7,12.856Zm11.719,1.808a.727.727,0,0,0-.41-.652,4.659,4.659,0,0,0-1.316-.426q-3.016-.633-3.016-2.562a2.323,2.323,0,0,1,.934-1.879,3.766,3.766,0,0,1,2.441-.754,4.053,4.053,0,0,1,2.574.758,2.388,2.388,0,0,1,.965,1.969H52.337a1.092,1.092,0,0,0-.312-.8A1.322,1.322,0,0,0,51.047,10a1.351,1.351,0,0,0-.883.258.814.814,0,0,0-.312.656.7.7,0,0,0,.355.605,3.657,3.657,0,0,0,1.2.4,9.8,9.8,0,0,1,1.422.379,2.336,2.336,0,0,1,1.789,2.273,2.2,2.2,0,0,1-.992,1.871,4.28,4.28,0,0,1-2.562.715,4.47,4.47,0,0,1-1.887-.379,3.166,3.166,0,0,1-1.293-1.039,2.414,2.414,0,0,1-.469-1.426h2.141a1.179,1.179,0,0,0,.445.922,1.766,1.766,0,0,0,1.109.32,1.635,1.635,0,0,0,.98-.246A.766.766,0,0,0,52.422,14.664Z" transform="translate(408.766 2165.975)" fill="#fff"/>
  </g>
</svg>
