<svg xmlns="http://www.w3.org/2000/svg" width="102" height="100" viewBox="0 0 102 100">
  <g id="Grupo_55514" data-name="Grupo 55514" transform="translate(-749 -5184)">
    <g id="CF1_iconos_copia_6" data-name="CF1_iconos  copia 6" transform="translate(749.33 5183.661)">
      <ellipse id="Elipse_4466" data-name="Elipse 4466" cx="51" cy="50" rx="51" ry="50" transform="translate(-0.33 0.339)" fill="#bbabf5"/>
      <rect id="Rectángulo_6407" data-name="Rectángulo 6407" width="26.958" height="18.963" transform="translate(41.167 70.536)" fill="#ffa700"/>
      <rect id="Rectángulo_6408" data-name="Rectángulo 6408" width="13.479" height="18.963" transform="translate(54.652 70.536)" fill="#ff6900"/>
      <path id="Trazado_111593" data-name="Trazado 111593" d="M96.552,81.237H27.324A4.647,4.647,0,0,1,22.69,76.61V31.62A4.647,4.647,0,0,1,27.324,27H96.552a4.647,4.647,0,0,1,4.634,4.627V76.59a4.647,4.647,0,0,1-4.634,4.647Z" transform="translate(-7.289 -9.02)" fill="#fff"/>
      <path id="Trazado_111594" data-name="Trazado 111594" d="M120.555,31.62V76.583a4.64,4.64,0,0,1-4.634,4.654H81.31V27h34.611A4.64,4.64,0,0,1,120.555,31.62Z" transform="translate(-26.658 -9.02)" fill="#fff4aa"/>
      <rect id="Rectángulo_6409" data-name="Rectángulo 6409" width="42.86" height="4.473" transform="translate(33.218 88.4)" fill="#00d4d1"/>
      <rect id="Rectángulo_6410" data-name="Rectángulo 6410" width="21.434" height="4.473" transform="translate(54.652 88.4)" fill="#009ca0"/>
      <rect id="Rectángulo_6411" data-name="Rectángulo 6411" width="70.802" height="43.711" transform="translate(19.251 21.616)" fill="#12263f"/>
      <rect id="Rectángulo_6412" data-name="Rectángulo 6412" width="35.401" height="43.711" transform="translate(54.652 21.616)" fill="#0e1d2f"/>
      <path id="Trazado_111595" data-name="Trazado 111595" d="M51.067,86.334,43.4,113.787a1.58,1.58,0,0,1-2.893.348l-3.81-6.843-8.149,8.156a1.574,1.574,0,0,1-2.23,0l-3.167-3.154-3.288-3.288a1.587,1.587,0,0,1,0-2.23l8.115-8.109-6.656-3.716a1.574,1.574,0,0,1,.341-2.886l27.453-7.674a1.58,1.58,0,0,1,1.942,1.942Z" transform="translate(-6.204 -27.965)" fill="#47568c"/>
      <path id="Trazado_111596" data-name="Trazado 111596" d="M52.915,86.553l-7.667,27.453a1.58,1.58,0,0,1-2.893.348l-3.81-6.843L30.4,115.667a1.574,1.574,0,0,1-2.23,0L25,112.513,52.513,85a1.574,1.574,0,0,1,.4,1.54Z" transform="translate(-8.053 -28.184)" fill="#2c3b73"/>
      <path id="Trazado_111597" data-name="Trazado 111597" d="M73.68,78.343V77.051c2.893-.288,3.234-.509,3.234-3.636V63.886c0-2.866-.141-3.053-2.913-3.515v-1.1a30.312,30.312,0,0,0,6.589-1.848v16c0,3.14.321,3.348,3.348,3.649v1.292ZM78.488,52.9a2.524,2.524,0,0,1-2.451-2.444,2.5,2.5,0,0,1,2.5-2.544,2.411,2.411,0,0,1,2.35,2.544,2.451,2.451,0,0,1-2.4,2.431Z" transform="translate(-24.137 -15.929)" fill="#fff"/>
    </g>
  </g>
</svg>
