<svg xmlns="http://www.w3.org/2000/svg" xmlns:xlink="http://www.w3.org/1999/xlink" width="300" height="300" viewBox="0 0 300 300">
  <defs>
    <linearGradient id="linear-gradient" x1="179.766" y1="-4.126" x2="177.317" y2="1.101" gradientUnits="objectBoundingBox">
      <stop offset="0" stop-color="#e1473d"/>
      <stop offset="1" stop-color="#e9605a"/>
    </linearGradient>
    <linearGradient id="linear-gradient-2" x1="726.93" y1="-2.1" x2="721.963" y2="5.431" gradientUnits="objectBoundingBox">
      <stop offset="0" stop-color="#febbba"/>
      <stop offset="1" stop-color="#ff928e"/>
    </linearGradient>
    <linearGradient id="linear-gradient-3" x1="209.015" y1="0.5" x2="210.015" y2="0.5" xlink:href="#linear-gradient-2"/>
    <linearGradient id="linear-gradient-4" x1="739.79" y1="-0.843" x2="739.283" y2="2.39" xlink:href="#linear-gradient-2"/>
    <linearGradient id="linear-gradient-5" x1="751.66" y1="-0.224" x2="751.146" y2="2.539" xlink:href="#linear-gradient-2"/>
    <linearGradient id="linear-gradient-6" x1="334.173" y1="41.672" x2="332.908" y2="43.211" xlink:href="#linear-gradient-2"/>
    <linearGradient id="linear-gradient-7" x1="377.358" y1="66.774" x2="375.925" y2="69.214" xlink:href="#linear-gradient-2"/>
    <linearGradient id="linear-gradient-8" x1="313.4" y1="-0.222" x2="312.582" y2="2.966" xlink:href="#linear-gradient-2"/>
    <linearGradient id="linear-gradient-9" x1="-83.274" y1="-42.01" x2="-84.346" y2="-40.728" xlink:href="#linear-gradient-2"/>
    <linearGradient id="linear-gradient-10" x1="-242.278" y1="-138.362" x2="-239.82" y2="-141.011" xlink:href="#linear-gradient-2"/>
  </defs>
  <g id="Grupo_55521" data-name="Grupo 55521" transform="translate(-245 -7897)">
    <g id="Grupo_55520" data-name="Grupo 55520">
      <rect id="Rect치ngulo_6487" data-name="Rect치ngulo 6487" width="300" height="300" transform="translate(245 7897)" fill="none"/>
      <g id="Grupo_55519" data-name="Grupo 55519" transform="translate(1668.777 6460.112)">
        <g id="Grupo_55515" data-name="Grupo 55515" transform="translate(-1359.033 1453.589)">
          <path id="Trazado_113121" data-name="Trazado 113121" d="M-1147.737,1739.621a4.219,4.219,0,0,0,.489-.029,4.231,4.231,0,0,0,3.721-4.687l-26.564-231.168a4.236,4.236,0,0,0-4.687-3.72,4.231,4.231,0,0,0-3.721,4.688l26.564,231.168A4.232,4.232,0,0,0-1147.737,1739.621Z" transform="translate(1306.771 -1467.023)" fill="#91b3fa"/>
          <path id="Trazado_113122" data-name="Trazado 113122" d="M-1342.449,1739.621a4.233,4.233,0,0,0,4.125-3.307l51.832-231.168a4.233,4.233,0,0,0-3.2-5.055,4.236,4.236,0,0,0-5.055,3.2l-51.831,231.168a4.233,4.233,0,0,0,3.2,5.056A4.3,4.3,0,0,0-1342.449,1739.621Z" transform="translate(1355.458 -1467.023)" fill="#91b3fa"/>
          <path id="Trazado_113123" data-name="Trazado 113123" d="M-1219.246,1787.334a4.232,4.232,0,0,0,4.232-4.232V1669.016a4.233,4.233,0,0,0-4.232-4.232,4.233,4.233,0,0,0-4.232,4.232V1783.1A4.232,4.232,0,0,0-1219.246,1787.334Z" transform="translate(1319.786 -1514.736)" fill="#91b3fa"/>
          <path id="Trazado_113124" data-name="Trazado 113124" d="M-1173.8,1464.924l-14.879,187.406a7.488,7.488,0,0,1-7.647,6.893l-155.4-3.791a7.489,7.489,0,0,1-7.213-8.663l29.75-186.869a7.489,7.489,0,0,1,7.569-6.309l140.528,3.254A7.488,7.488,0,0,1-1173.8,1464.924Z" transform="translate(1359.033 -1453.589)" fill="#472ea6"/>
          <path id="Trazado_113125" data-name="Trazado 113125" d="M-1184.292,1464.2l-130.314-3.017a7.488,7.488,0,0,0-7.569,6.309l-28.071,176.333a7.489,7.489,0,0,0,7.213,8.663l144.346,3.52a7.489,7.489,0,0,0,7.648-6.894l14.04-176.836A7.489,7.489,0,0,0-1184.292,1464.2Z" transform="translate(1356.517 -1455.788)" fill="#fff" opacity="0.97"/>
          <path id="Trazado_113126" data-name="Trazado 113126" d="M-1216.121,1490.817l65.679,3.662a1.2,1.2,0,0,1,1.125,1.3l-.091,1.055a1.2,1.2,0,0,1-1.277,1.09l-65.589-4.718a1.2,1.2,0,0,1-1.105-1.294A1.2,1.2,0,0,1-1216.121,1490.817Z" transform="translate(1318.021 -1464.367)" fill="#91b3fa"/>
          <rect id="Rect치ngulo_6486" data-name="Rect치ngulo 6486" width="2.842" height="68.143" rx="1.421" transform="translate(100.03 34.675) rotate(-85.096)" fill="#91b3fa"/>
          <path id="Trazado_113127" data-name="Trazado 113127" d="M-1190.772,1510.307l-.016.2a1.194,1.194,0,0,0,1.088,1.293l45.627,3.916a1.2,1.2,0,0,0,1.294-1.089l.08-.927a1.2,1.2,0,0,0-1.108-1.3l-45.689-3.186A1.2,1.2,0,0,0-1190.772,1510.307Z" transform="translate(1310.323 -1469.694)" fill="#91b3fa"/>
          <g id="Grupo_55514" data-name="Grupo 55514" transform="translate(36.243 24.748)">
            <path id="Trazado_113128" data-name="Trazado 113128" d="M-1190.049,1550.315a1.163,1.163,0,0,1-.812-.33l-19.99-19.4-22.58,13.662a1.168,1.168,0,0,1-1.563-.333l-26.486-38.156c-4.923,3.6-27.128,19.855-30.182,22.084a1.164,1.164,0,0,1-1.63-.255,1.165,1.165,0,0,1,.254-1.63c3.437-2.509,31.144-22.788,31.144-22.788a1.155,1.155,0,0,1,.882-.209,1.168,1.168,0,0,1,.766.485l26.545,38.238,22.414-13.56a1.164,1.164,0,0,1,1.415.161l19.93,19.338,12.2-8.9a1.166,1.166,0,0,1,1.629.255,1.166,1.166,0,0,1-.255,1.629l-13,9.48A1.159,1.159,0,0,1-1190.049,1550.315Z" transform="translate(1303.821 -1492.628)" fill="#91b3fa"/>
            <path id="Trazado_113129" data-name="Trazado 113129" d="M-1254.674,1564.007c-.023,0-.045,0-.069,0a.777.777,0,0,1-.706-.843l.205-2.323a.784.784,0,0,1,.843-.706.778.778,0,0,1,.706.843l-.206,2.323A.779.779,0,0,1-1254.674,1564.007Zm.684-7.746c-.023,0-.046,0-.069,0a.778.778,0,0,1-.706-.844l.205-2.323a.785.785,0,0,1,.843-.706.778.778,0,0,1,.706.843l-.205,2.324A.778.778,0,0,1-1253.99,1556.262Zm.683-7.745c-.023,0-.045,0-.069,0a.777.777,0,0,1-.706-.843l.205-2.324a.778.778,0,0,1,.843-.706.777.777,0,0,1,.706.843l-.205,2.324A.779.779,0,0,1-1253.307,1548.517Zm.684-7.746c-.023,0-.046,0-.069,0a.778.778,0,0,1-.707-.843l.2-2.323a.786.786,0,0,1,.843-.707.778.778,0,0,1,.707.843l-.2,2.324A.778.778,0,0,1-1252.622,1540.771Zm.683-7.745c-.023,0-.046,0-.068,0a.778.778,0,0,1-.707-.843l.2-2.324a.786.786,0,0,1,.843-.706.778.778,0,0,1,.707.843l-.2,2.323A.778.778,0,0,1-1251.939,1533.026Zm.683-7.745c-.022,0-.046,0-.069,0a.777.777,0,0,1-.706-.843l.2-2.324a.789.789,0,0,1,.844-.706.777.777,0,0,1,.706.843l-.205,2.324A.778.778,0,0,1-1251.255,1525.281Zm.684-7.746c-.023,0-.045,0-.069,0a.778.778,0,0,1-.706-.844l.205-2.324a.782.782,0,0,1,.843-.705.778.778,0,0,1,.706.843l-.206,2.323A.778.778,0,0,1-1250.572,1517.535Z" transform="translate(1292.8 -1495.729)" fill="#91b3fa"/>
            <path id="Trazado_113130" data-name="Trazado 113130" d="M-1212.573,1580.764l-.069,0a.778.778,0,0,1-.706-.843l.2-2.324a.79.79,0,0,1,.843-.706.778.778,0,0,1,.706.843l-.205,2.324A.777.777,0,0,1-1212.573,1580.764Zm.683-7.745c-.023,0-.046,0-.069,0a.777.777,0,0,1-.706-.843l.205-2.324a.783.783,0,0,1,.843-.706.778.778,0,0,1,.706.843l-.205,2.324A.778.778,0,0,1-1211.89,1573.019Zm.684-7.746-.07,0a.778.778,0,0,1-.706-.843l.2-2.324a.784.784,0,0,1,.844-.706.778.778,0,0,1,.705.843l-.205,2.324A.778.778,0,0,1-1211.205,1565.273Z" transform="translate(1280.611 -1509.55)" fill="#91b3fa"/>
            <path id="Trazado_113131" data-name="Trazado 113131" d="M-1180.767,1578.56h-.045a.777.777,0,0,1-.732-.82l.133-2.33a.772.772,0,0,1,.82-.732.777.777,0,0,1,.732.821l-.133,2.33A.777.777,0,0,1-1180.767,1578.56Zm.443-7.763h-.045a.777.777,0,0,1-.732-.821l.133-2.329a.77.77,0,0,1,.821-.731.777.777,0,0,1,.731.82l-.132,2.328A.778.778,0,0,1-1180.324,1570.8Zm.443-7.763h-.045a.777.777,0,0,1-.732-.821l.133-2.329a.766.766,0,0,1,.821-.732.777.777,0,0,1,.731.821l-.132,2.329A.777.777,0,0,1-1179.88,1563.034Zm.443-7.763h-.045a.777.777,0,0,1-.732-.821l.133-2.328a.765.765,0,0,1,.821-.732.777.777,0,0,1,.731.82l-.133,2.329A.777.777,0,0,1-1179.437,1555.271Zm.443-7.762a.445.445,0,0,1-.046,0,.776.776,0,0,1-.731-.821l.133-2.329a.761.761,0,0,1,.82-.731.777.777,0,0,1,.732.82l-.133,2.329A.777.777,0,0,1-1178.994,1547.509Z" transform="translate(1271.402 -1504.404)" fill="#91b3fa"/>
            <path id="Trazado_113132" data-name="Trazado 113132" d="M-1150.189,1588.282l-.07,0a.778.778,0,0,1-.706-.843l.205-2.324a.781.781,0,0,1,.843-.706.778.778,0,0,1,.706.844l-.205,2.324A.778.778,0,0,1-1150.189,1588.282Zm.683-7.745c-.023,0-.045,0-.069,0a.777.777,0,0,1-.706-.843l.205-2.324a.782.782,0,0,1,.844-.706.778.778,0,0,1,.706.843l-.205,2.324A.779.779,0,0,1-1149.506,1580.537Zm.684-7.746-.07,0a.778.778,0,0,1-.706-.843l.205-2.324a.783.783,0,0,1,.844-.706.778.778,0,0,1,.706.843l-.205,2.324A.778.778,0,0,1-1148.822,1572.791Z" transform="translate(1262.549 -1511.727)" fill="#91b3fa"/>
            <g id="Grupo_55511" data-name="Grupo 55511" transform="translate(4.326)">
              <path id="Trazado_113133" data-name="Trazado 113133" d="M-1300.763,1562.954c-.039,0-.078,0-.117-.005a1.167,1.167,0,0,1-1.045-1.276l7.01-70.107a1.165,1.165,0,0,1,1.276-1.045,1.165,1.165,0,0,1,1.044,1.276l-7.01,70.107A1.166,1.166,0,0,1-1300.763,1562.954Z" transform="translate(1301.931 -1489.028)" fill="#91b3fa"/>
              <g id="Grupo_55510" data-name="Grupo 55510" transform="translate(3.779)">
                <path id="Trazado_113134" data-name="Trazado 113134" d="M-1296.613,1495.3l4.328-3.544,3.542,4.331.334-3.341-3.542-4.328-4.329,3.541Z" transform="translate(1296.613 -1488.422)" fill="#91b3fa"/>
              </g>
            </g>
            <g id="Grupo_55513" data-name="Grupo 55513" transform="translate(0 67.79)">
              <path id="Trazado_113135" data-name="Trazado 113135" d="M-1181.99,1597.194a1,1,0,0,1-.1-.005l-124.863-11.023a1.167,1.167,0,0,1-1.059-1.265,1.17,1.17,0,0,1,1.264-1.059l124.862,11.023a1.167,1.167,0,0,1,1.059,1.265A1.166,1.166,0,0,1-1181.99,1597.194Z" transform="translate(1308.021 -1583.838)" fill="#91b3fa"/>
              <g id="Grupo_55512" data-name="Grupo 55512" transform="translate(121.053 7.842)">
                <path id="Trazado_113136" data-name="Trazado 113136" d="M-1137.637,1602.754l4.289-3.591-3.594-4.287,3.345.3,3.591,4.287-4.287,3.591Z" transform="translate(1137.637 -1594.875)" fill="#91b3fa"/>
              </g>
            </g>
          </g>
        </g>
        <g id="Grupo_55518" data-name="Grupo 55518" transform="translate(-1338.752 1491.458)">
          <path id="Trazado_113137" data-name="Trazado 113137" d="M-1274.13,1831.136a1.34,1.34,0,0,0-.036-.352c-1.754-6.953-10.458-11.283-10.458-11.283l-3.449.27c-1.983,6.129-1.728,9.887-1.41,11.561.009.047.023.092.036.137A81.827,81.827,0,0,0-1274.13,1831.136Z" transform="translate(1318.678 -1597.4)" fill="#12263f"/>
          <path id="Trazado_113138" data-name="Trazado 113138" d="M-1289.344,1836.21a1.494,1.494,0,0,0,1.095,1.1c4.047.852,10.48.166,13.181-.187a1.255,1.255,0,0,0,1.042-1.251A81.829,81.829,0,0,1-1289.344,1836.21Z" transform="translate(1318.575 -1602.141)" fill="#472ea6"/>
          <g id="Grupo_55516" data-name="Grupo 55516" transform="translate(79.465)">
            <path id="Trazado_113139" data-name="Trazado 113139" d="M-1218.6,1517.112l22.719-8.247,1.751,3.668-21.839,8.229A3,3,0,0,1-1218.6,1517.112Z" transform="translate(1218.639 -1507.462)" fill="url(#linear-gradient)"/>
            <path id="Trazado_113140" data-name="Trazado 113140" d="M-1186.656,1508.516c-.669,2.028,1.751,3.668,1.751,3.668l4.12-2.916a8.27,8.27,0,0,1-.435-1.608Z" transform="translate(1209.412 -1507.113)" fill="url(#linear-gradient-2)"/>
            <path id="Trazado_113141" data-name="Trazado 113141" d="M-1178.957,1507.438a8.231,8.231,0,0,0,.435,1.608l3.045-2.156Z" transform="translate(1207.15 -1506.89)" fill="#12263f"/>
          </g>
          <path id="Trazado_113142" data-name="Trazado 113142" d="M-1311.615,1662.642a32.141,32.141,0,0,1-7.473,5.465,62.073,62.073,0,0,0,13.661,12.148l1.69,3.792,5.415-6.49S-1308.039,1672.722-1311.615,1662.642Z" transform="translate(1327.186 -1551.985)" fill="url(#linear-gradient-3)"/>
          <path id="Trazado_113143" data-name="Trazado 113143" d="M-1289.362,1812.651l1.461,7.032a1.151,1.151,0,0,0,.983.946,9.743,9.743,0,0,0,2.263-.036,1.446,1.446,0,0,0,1.145-1.7l-1.015-6.243Z" transform="translate(1318.58 -1595.417)" fill="url(#linear-gradient-4)"/>
          <path id="Trazado_113144" data-name="Trazado 113144" d="M-1249.531,1835.85c-3.809-.106-5.78-.555-6.8-.971,0,.378,0,.764.012,1.164a.752.752,0,0,0,.718.764l20.916-.135a.955.955,0,0,0,.768-1.39C-1236.658,1835.509-1243.642,1836.015-1249.531,1835.85Z" transform="translate(1309.016 -1601.853)" fill="#472ea6"/>
          <path id="Trazado_113145" data-name="Trazado 113145" d="M-1233.915,1831.27a.966.966,0,0,0-.082-.158c-1.847-2.581-6.552-7.72-15.849-9.949l-4.46-.141s-1.986,3.451-2.023,9.845c1.019.416,2.989.865,6.8.971C-1243.642,1832-1236.657,1831.5-1233.915,1831.27Z" transform="translate(1309.016 -1597.84)" fill="#12263f"/>
          <path id="Trazado_113146" data-name="Trazado 113146" d="M-1254.645,1811.068c.05.332.661,5.385.9,7.343a.972.972,0,0,0,.819.877,10.2,10.2,0,0,0,3.063-.047,1.319,1.319,0,0,0,1-1.324v-7.93Z" transform="translate(1308.528 -1594.646)" fill="url(#linear-gradient-5)"/>
          <path id="Trazado_113147" data-name="Trazado 113147" d="M-1271.229,1681.732s10.756,40.878,10.563,92.319a1.992,1.992,0,0,1-1.58,1.941,23.2,23.2,0,0,1-4.986.577,1.848,1.848,0,0,1-1.761-1.542c-1.509-8.844-10.163-58.672-15.095-66.761,0,0-3.245,44.378-2.207,67.4a1.092,1.092,0,0,1-.963,1.135,18.368,18.368,0,0,1-4-.012,1.46,1.46,0,0,1-1.3-1.24c-1.074-7.486-7.258-52.042-6.995-84.139.015-1.81,4.786-9.68,4.786-9.68Z" transform="translate(1321.534 -1557.512)" fill="#12263f"/>
          <path id="Trazado_113148" data-name="Trazado 113148" d="M-1245.007,1557.832c-4.722,8.789-12.56,17.756-25.311,20.16-11.773,2.219-32.913,4.96-41.41,6.031a10.406,10.406,0,0,0-6.576,3.53c-6.679,7.728-21.333,28.887-4.084,50.208a32.135,32.135,0,0,0,7.473-5.464c-1.908-5.379-2.064-12.253,1.935-20.683a19.779,19.779,0,0,0,.511,1.981,122.639,122.639,0,0,1,5.793,35.343,1.107,1.107,0,0,0,.694,1.033c7.254,2.907,21.219,1.177,25.906.479a1.577,1.577,0,0,0,1.319-1.79c-2.3-16.668,9.507-44.086,12.625-50.954a4.55,4.55,0,0,1,2.266-2.266c17.833-8.068,25.586-20.486,28.729-31.673C-1237.855,1560.116-1242.07,1558.521-1245.007,1557.832Z" transform="translate(1330.486 -1521.639)" fill="#472ea6"/>
          <path id="Trazado_113149" data-name="Trazado 113149" d="M-1200.3,1555.87a54.14,54.14,0,0,0,.847-25.311h-4.062a65.793,65.793,0,0,1-6.655,19.377C-1207.235,1550.625-1203.021,1552.219-1200.3,1555.87Z" transform="translate(1295.652 -1513.743)" fill="url(#linear-gradient-6)"/>
          <path id="Trazado_113150" data-name="Trazado 113150" d="M-1200.659,1527.1s-6.185-8.012-4.176-12.186,8.9-3.767,8.9-3.767l.965,3.27a4.11,4.11,0,0,1-.1,2.619l-3.807,10.063Z" transform="translate(1294.223 -1508.119)" fill="url(#linear-gradient-7)"/>
          <path id="Trazado_113151" data-name="Trazado 113151" d="M-1287.006,1571.962l-1.4,14.284s8.036,2.421,13.881-1.7l-4.109-12.982Z" transform="translate(1318.302 -1525.614)" fill="url(#linear-gradient-8)"/>
          <g id="Grupo_55517" data-name="Grupo 55517" transform="translate(24.746 22.992)">
            <path id="Trazado_113152" data-name="Trazado 113152" d="M-1277.642,1548.965c.194.183,8.163,15.832,8.163,15.832l-9.032,4.36-9.756-13.71S-1280.88,1545.917-1277.642,1548.965Z" transform="translate(1293.517 -1541.889)" fill="url(#linear-gradient-9)"/>
            <path id="Trazado_113153" data-name="Trazado 113153" d="M-1286.411,1553.188a1.445,1.445,0,0,0,.109,1.265l4.5,7.51a1.439,1.439,0,0,0,.247.308c.536.5,2.371,1.951,3.79-.026,1.209-1.684,2.343-3.216,3.559-3.848a1.44,1.44,0,0,1,1.943.64,53.854,53.854,0,0,1,3.083,7.313,1.435,1.435,0,0,1-.835,1.759,39.936,39.936,0,0,1-8.651,2.524,1.442,1.442,0,0,1-1.362-.579c-1.38-1.891-5.269-7.174-6.6-8.5-1.233-1.228-3.51-.765-4.535-.47a1.451,1.451,0,0,1-1.151-.151c-1.041-.627-2.857-2.188-1.2-4.831a1.441,1.441,0,0,0-.445-1.958,3.188,3.188,0,0,1-1.222-4.522,4.5,4.5,0,0,1,4.867-2.382,1.5,1.5,0,0,0,1.569-.872.953.953,0,0,1,.743-.586,1.4,1.4,0,0,0,1.132-1.642,3.691,3.691,0,0,1,2.061-4.228c3.9-2.143,7.311,1.349,8.179,4.3s-3.489,5.03-6.23,5.378C-1284.863,1549.842-1285.966,1552.039-1286.411,1553.188Z" transform="translate(1295.656 -1539.251)" fill="#12263f"/>
            <path id="Trazado_113154" data-name="Trazado 113154" d="M-1283.237,1572.535s-1.733-5.071-3.951-4.884-3.964,2.4-1.215,4.88C-1284.984,1575.621-1283.237,1572.535-1283.237,1572.535Z" transform="translate(1293.964 -1547.472)" fill="url(#linear-gradient-10)"/>
          </g>
          <path id="Trazado_113155" data-name="Trazado 113155" d="M-1307.71,1624.454c-2.924-8-1.864-17.664-1.852-17.761l.806.092c-.011.1-1.049,9.572,1.808,17.39Z" transform="translate(1324.485 -1535.786)" fill="#472ea6"/>
          <path id="Trazado_113156" data-name="Trazado 113156" d="M-1281.7,1714.221a.4.4,0,0,1-.391-.3c-.892-3.44-7.572-7.22-7.639-7.259a.405.405,0,0,1-.156-.552.4.4,0,0,1,.552-.155c.288.16,7.049,3.988,8.027,7.762a.406.406,0,0,1-.291.495A.421.421,0,0,1-1281.7,1714.221Z" transform="translate(1318.745 -1564.509)" fill="#12263f"/>
        </g>
      </g>
    </g>
  </g>
</svg>
