<svg xmlns="http://www.w3.org/2000/svg" xmlns:xlink="http://www.w3.org/1999/xlink" width="706" height="310.315" viewBox="0 0 706 310.315">
  <defs>
    <linearGradient id="linear-gradient" y1="0.5" x2="1" y2="0.5" gradientUnits="objectBoundingBox">
      <stop offset="0" stop-color="#9182ca"/>
      <stop offset="0.53" stop-color="#472ea6"/>
      <stop offset="1" stop-color="#35237d"/>
    </linearGradient>
  </defs>
  <g id="Grupo_55522" data-name="Grupo 55522" transform="translate(-399 -1474.7)">
    <g id="Grupo_55209" data-name="Grupo 55209" transform="translate(219)">
      <text id="Determinar_los_objetivos_y_las_cantidades_de_recursos_necesarios_para_alcanzarlos." data-name="Determinar los objetivos y las cantidades de recursos necesarios para alcanzarlos." transform="translate(548 1666.7)" fill="#12263f" font-size="16" font-family="Roboto-Bold, Roboto" font-weight="700"><tspan x="0" y="17">Determinar los objetivos y las cantidades de </tspan><tspan x="0" y="41">recursos necesarios para alcanzarlos.</tspan></text>
      <g id="CF1_planear_copia" data-name="CF1_planear copia" transform="translate(137.695 1385.819)">
        <g id="Layer_1" data-name="Layer 1">
          <path id="Trazado_111300" data-name="Trazado 111300" d="M294.64,364.81c0,1.1-40.57,2-90.61,2s-90.61-.9-90.61-2,40.57-2,90.61-2S294.64,363.71,294.64,364.81Z" fill="#606060" opacity="0.25"/>
          <g id="Grupo_55205" data-name="Grupo 55205">
            <path id="Trazado_111301" data-name="Trazado 111301" d="M266.84,185.34c42.42,49.65,51.26,107.22-.91,156.29-41.12,38.67-112.09,26.14-154.51-23.51s-42-119.61.91-156.28S224.43,135.7,266.84,185.34Z" fill="url(#linear-gradient)"/>
            <ellipse id="Elipse_4443" data-name="Elipse 4443" cx="102.21" cy="116.75" rx="102.21" ry="116.75" transform="matrix(0.76, -0.65, 0.65, 0.76, 42.305, 221.668)" fill="#9182ca"/>
            <ellipse id="Elipse_4444" data-name="Elipse 4444" cx="87.13" cy="99.53" rx="87.13" ry="99.53" transform="matrix(0.76, -0.65, 0.65, 0.76, 64.956, 224.965)" fill="#fff"/>
            <ellipse id="Elipse_4445" data-name="Elipse 4445" cx="73.25" cy="83.68" rx="73.25" ry="83.68" transform="matrix(0.76, -0.65, 0.65, 0.76, 85.805, 227.999)" fill="#9182ca"/>
            <ellipse id="Elipse_4446" data-name="Elipse 4446" cx="58.83" cy="67.2" rx="58.83" ry="67.2" transform="matrix(0.76, -0.65, 0.65, 0.76, 107.473, 231.162)" fill="#fff"/>
            <ellipse id="Elipse_4447" data-name="Elipse 4447" cx="44.28" cy="50.58" rx="44.28" ry="50.58" transform="matrix(0.76, -0.65, 0.65, 0.76, 129.331, 234.346)" fill="#9182ca"/>
            <ellipse id="Elipse_4448" data-name="Elipse 4448" cx="29.53" cy="33.73" rx="29.53" ry="33.73" transform="matrix(0.76, -0.65, 0.65, 0.76, 151.491, 237.576)" fill="#fff"/>
            <path id="Trazado_111302" data-name="Trazado 111302" d="M205.57,235.74c5.25,6.13,5.14,14.83-.23,19.42s-14,3.33-19.22-2.8-5.13-14.83.24-19.42S200.33,229.6,205.57,235.74Z" fill="#9182ca"/>
          </g>
          <g id="Grupo_55206" data-name="Grupo 55206">
            <path id="Trazado_111303" data-name="Trazado 111303" d="M349.67,177.14s35.7-20.52,40-16.4-3.16,15.39-3.16,15.39Z" fill="#ef2a66"/>
            <path id="Trazado_111304" data-name="Trazado 111304" d="M349.7,178.59s36.48,19.11,40.6,14.82-3.76-15.25-3.76-15.25Z" fill="#f25585"/>
            <line id="Línea_176" data-name="Línea 176" x1="189.02" y2="1.16" transform="translate(197.79 177.32)" fill="none" stroke="#004968" stroke-miterlimit="10" stroke-width="2.1"/>
          </g>
          <g id="Grupo_55207" data-name="Grupo 55207">
            <path id="Trazado_111305" data-name="Trazado 111305" d="M347.23,244s35.71-20.52,40-16.4-3.17,15.4-3.17,15.4Z" fill="#fd8f25"/>
            <path id="Trazado_111306" data-name="Trazado 111306" d="M347.26,245.42s36.48,19.11,40.6,14.83S384.1,245,384.1,245Z" fill="#febc7c"/>
            <line id="Línea_177" data-name="Línea 177" x1="189.02" y2="1.15" transform="translate(195.35 244.16)" fill="none" stroke="#004968" stroke-miterlimit="10" stroke-width="2.1"/>
          </g>
          <g id="Grupo_55208" data-name="Grupo 55208">
            <path id="Trazado_111307" data-name="Trazado 111307" d="M349.67,299.14s35.7-20.52,40-16.4-3.16,15.39-3.16,15.39Z" fill="#472ea6"/>
            <path id="Trazado_111308" data-name="Trazado 111308" d="M349.7,300.59s36.48,19.11,40.6,14.82-3.76-15.25-3.76-15.25Z" fill="#6c58b8"/>
            <line id="Línea_178" data-name="Línea 178" x1="189.02" y2="1.16" transform="translate(197.79 299.32)" fill="none" stroke="#004968" stroke-miterlimit="10" stroke-width="2.1"/>
          </g>
        </g>
      </g>
      <text id="Especificar_metas_y_objetivos." data-name="Especificar metas y objetivos." transform="translate(548 1556)" fill="#12263f" font-size="16" font-family="Roboto-Bold, Roboto" font-weight="700"><tspan x="0" y="17">Especificar metas y objetivos.</tspan></text>
      <text id="Elegir_políticas_programas_procedimientos_y_prácticas_para_alcanzar_los_objetivos." data-name="Elegir políticas, programas, procedimientos y prácticas para alcanzar los objetivos." transform="translate(548 1608)" fill="#12263f" font-size="16" font-family="Roboto-Bold, Roboto" font-weight="700"><tspan x="0" y="17">Elegir políticas, programas, procedimientos y </tspan><tspan x="0" y="41">prácticas para alcanzar los objetivos.</tspan></text>
    </g>
  </g>
</svg>
