<svg xmlns="http://www.w3.org/2000/svg" xmlns:xlink="http://www.w3.org/1999/xlink" width="637.84" height="282.875" viewBox="0 0 637.84 282.875">
  <defs>
    <clipPath id="clip-path">
      <rect id="Rectángulo_4847" data-name="Rectángulo 4847" width="139.046" height="108.771" fill="none"/>
    </clipPath>
    <clipPath id="clip-path-2">
      <rect id="Rectángulo_4855" data-name="Rectángulo 4855" width="104.645" height="120.586" fill="none"/>
    </clipPath>
    <clipPath id="clip-path-3">
      <rect id="Rectángulo_4844" data-name="Rectángulo 4844" width="227.136" height="273.944" fill="none"/>
    </clipPath>
    <clipPath id="clip-path-4">
      <rect id="Rectángulo_4856" data-name="Rectángulo 4856" width="105.131" height="108.54" fill="none"/>
    </clipPath>
  </defs>
  <g id="Grupo_18936" data-name="Grupo 18936" transform="translate(-563 -908.307)">
    <g id="Grupo_18718" data-name="Grupo 18718" transform="translate(803 908.307)" clip-path="url(#clip-path)">
      <path id="Trazado_34621" data-name="Trazado 34621" d="M283.251,72.288h1.58a4.732,4.732,0,0,1,4.961,4.465V90.208a4.672,4.672,0,0,1-4.881,4.411l-10.747.136,3.6,7.31-9.895-7.11H254.44a4.675,4.675,0,0,1-4.9-4.411" transform="translate(-190.544 -55.198)" fill="#c7ddeb"/>
      <path id="Trazado_34622" data-name="Trazado 34622" d="M273.372,99.917,258.6,88.5H243.7a6.7,6.7,0,0,1-6.776-6.6H239.3a4.315,4.315,0,0,0,4.4,4.217h15.713l7.787,6.016L264.34,85.9l14.078-.192a4.321,4.321,0,0,0,4.392-4.217V65a4.383,4.383,0,0,0-4.467-4.284h-1.8V58.341h1.8A6.763,6.763,0,0,1,285.189,65V81.494a6.7,6.7,0,0,1-6.75,6.6l-10.416.142Z" transform="translate(-180.907 -44.548)" fill="#3d4451"/>
      <path id="Trazado_34623" data-name="Trazado 34623" d="M25.377,347.472c2.088-10.421,10.588-19.736,20.746-19.725,9.144.01,16.924,6.883,19.9,16l1.594-.149c.828-2.709,1.656-4.727,2.484-7.436L72.04,329.8c.7-2.28,1.249-4.722,2.634-6.706,1.357-1.943,4.514-3.773,6.734-2.019,2.5,1.976.164,5.489-1.945,6.7l-5.576,24.411s-10.108-.009-10.108-.012a3.959,3.959,0,0,1-.818.088l-33.726-.038a3.955,3.955,0,0,1-3.858-4.747" transform="translate(-19.317 -244.627)" fill="#7eb9c7"/>
      <path id="Trazado_34624" data-name="Trazado 34624" d="M55.582,327.491l-3.454-.461L55.671,300.5l1.191-.262a4.657,4.657,0,0,0,.864-.4c.277-.147.59-.313.922-.453,3.317-1.4,5.551-4.416,4.78-6.455a2.686,2.686,0,0,0-1.561-1.488,7.9,7.9,0,0,0-5.947.358c-3.317,1.4-5.551,4.416-4.78,6.455a2.255,2.255,0,0,0,.466.733l.754.821-5.553,13.331-1.775-2.96c-4.493-7.493-11.542-11.972-18.855-11.98h-.018A20.789,20.789,0,0,0,11.7,304.763c-5.423,5.5-8.338,13.354-8.207,22.117l-3.484.052c-.145-9.7,3.125-18.447,9.21-24.616a24.282,24.282,0,0,1,16.943-7.6h.022c7.579.009,14.858,4.029,19.985,10.9l2.168-5.2a5.522,5.522,0,0,1-.453-.925c-1.477-3.908,1.459-8.695,6.685-10.9a11.4,11.4,0,0,1,8.675-.35,6.117,6.117,0,0,1,3.447,3.459c1.477,3.908-1.459,8.695-6.685,10.9-.189.08-.41.2-.643.32-.17.09-.347.184-.532.275Z" transform="translate(0 -219.562)" fill="#3d4451"/>
      <path id="Trazado_34625" data-name="Trazado 34625" d="M60.847,232.552A14.613,14.613,0,1,0,47.4,218.715a14.414,14.414,0,0,0,13.445,13.837" transform="translate(-36.181 -155.278)" fill="#fff"/>
      <path id="Trazado_34626" data-name="Trazado 34626" d="M57.076,229.441q-.417,0-.837-.022a15.383,15.383,0,0,1-10.227-4.7,16.264,16.264,0,0,1,.171-22.777,15.312,15.312,0,0,1,21.934.2,16.266,16.266,0,0,1-.179,22.775,15.257,15.257,0,0,1-10.862,4.522m-.689-2.827a12.483,12.483,0,0,0,9.569-3.686,13.449,13.449,0,0,0,3.9-10.178,13.111,13.111,0,0,0-12.111-12.508,12.51,12.51,0,0,0-9.577,3.688,13.444,13.444,0,0,0-3.894,10.181,13.114,13.114,0,0,0,12.117,12.5" transform="translate(-31.647 -150.743)" fill="#3d4451"/>
      <path id="Trazado_34627" data-name="Trazado 34627" d="M73.531,251.693a10.644,10.644,0,1,0-9.815-10.085,10.513,10.513,0,0,0,9.815,10.085" transform="translate(-48.642 -175.949)" fill="#7eb9c7"/>
      <path id="Trazado_34628" data-name="Trazado 34628" d="M43.3,410.929a1.264,1.264,0,0,1-1.264-1.264v-12.69a1.264,1.264,0,0,1,2.528,0v12.69a1.264,1.264,0,0,1-1.264,1.264" transform="translate(-32.099 -302.159)" fill="#3d4451"/>
      <path id="Trazado_34629" data-name="Trazado 34629" d="M418.372,235.994a14.671,14.671,0,1,0-13.809-13.9,14.633,14.633,0,0,0,13.809,13.9" transform="translate(-308.903 -157.812)" fill="#fff"/>
      <path id="Trazado_34630" data-name="Trazado 34630" d="M414.925,233.119q-.407,0-.816-.021a15.99,15.99,0,0,1-15.04-15.129A15.933,15.933,0,0,1,415.787,201.2a15.987,15.987,0,0,1,15.033,15.136,15.935,15.935,0,0,1-15.895,16.782m.04-29.34a13.308,13.308,0,0,0-9.387,3.88,13.389,13.389,0,0,0,8.665,22.843,13.122,13.122,0,0,0,10.066-3.86,13.39,13.39,0,0,0-8.657-22.846q-.344-.018-.687-.018" transform="translate(-304.707 -153.617)" fill="#3d4451"/>
      <path id="Trazado_34631" data-name="Trazado 34631" d="M354.592,360.162c1.721-13.91,14.3-29.293,27.342-29.279s24.641,13.863,26.584,28.587" transform="translate(-270.76 -252.657)" fill="#fff"/>
      <path id="Trazado_34632" data-name="Trazado 34632" d="M351.716,356.125l-2.579-.319a39.1,39.1,0,0,1,9.746-20.568c5.678-6.353,12.378-9.851,18.867-9.851h.02c6.543.008,13.084,3.278,18.42,9.208a39.026,39.026,0,0,1,9.451,20.509l-2.577.34a36.363,36.363,0,0,0-8.806-19.11c-4.837-5.376-10.693-8.34-16.49-8.347h-.017c-5.656,0-11.826,3.274-16.929,8.984a36.968,36.968,0,0,0-9.1,19.155" transform="translate(-266.595 -248.46)" fill="#3d4451"/>
      <path id="Trazado_34633" data-name="Trazado 34633" d="M421.284,380.648a3.376,3.376,0,0,0,3.081-4.375c-2.937-10.021-11.154-18.518-20.257-18.528-10.389-.012-20.408,12.285-21.779,23.4Z" transform="translate(-291.94 -273.168)" fill="#7eb9c7"/>
      <path id="Trazado_34634" data-name="Trazado 34634" d="M429.9,254.282c6.57.36,11.971-5.407,11.646-12.434-.279-6.018-4.846-10.914-10.473-11.224-6.574-.363-11.98,5.409-11.65,12.439.282,6.018,4.851,10.911,10.478,11.22" transform="translate(-320.252 -176.088)" fill="#7eb9c7"/>
      <path id="Trazado_34635" data-name="Trazado 34635" d="M452.831,342.716c-3.946.271-8.085-1.171-11.5-3.181a16.481,16.481,0,0,1-5.34-5.329,29.2,29.2,0,0,1-3.819-9.155c-.265-1.129-.5-2.264-.787-3.389a7.216,7.216,0,1,1,9.744-1.081s3.281,9.058,12.464,10.6" transform="translate(-327.173 -235.633)" fill="#f5fafc"/>
      <path id="Trazado_34636" data-name="Trazado 34636" d="M457.735,352.21c-3.209.248-10.6-1.2-13.38-3.038a14.359,14.359,0,0,1-4.344-4.877,28.636,28.636,0,0,1-3.106-8.378c-.216-1.033-.411-2.072-.64-3.1a6.939,6.939,0,0,1-2.373-5.33c0-3.664,2.626-6.634,5.865-6.634s5.866,2.97,5.866,6.634a7.131,7.131,0,0,1-1.432,4.34s3.569,11.055,13.544,11.055" transform="translate(-331.312 -244.996)" fill="#7eb9c7"/>
      <path id="Trazado_34637" data-name="Trazado 34637" d="M446.968,336.217a22.662,22.662,0,0,1-11.41-3.526,18.155,18.155,0,0,1-5.881-5.979,31.707,31.707,0,0,1-4.04-9.893c-.1-.438-.2-.876-.294-1.315-.12-.541-.242-1.1-.371-1.643a9.145,9.145,0,0,1-3.1-6.858,8.809,8.809,0,1,1,17.614,0,9.152,9.152,0,0,1-1.543,5.091c.971,2.092,4.267,7.981,11.005,9.134l-.527,3.074c-10.016-1.715-13.587-11.491-13.734-11.906l-.3-.842.576-.684a6.006,6.006,0,0,0,1.4-3.869,5.691,5.691,0,1,0-11.376,0,5.909,5.909,0,0,0,2.319,4.745l.437.334.131.534c.182.742.348,1.491.508,2.216.1.43.19.861.289,1.29a28.6,28.6,0,0,0,3.637,8.923,15.08,15.08,0,0,0,4.854,4.975,18.82,18.82,0,0,0,10.641,3.05l.219,3.111q-.523.037-1.059.037" transform="translate(-322.135 -227.543)" fill="#3d4451"/>
      <path id="Trazado_34638" data-name="Trazado 34638" d="M403.529,421.168s11.665.659,16.023,2.767" transform="translate(-308.128 -321.596)" fill="#7eb9c7"/>
      <path id="Trazado_34639" data-name="Trazado 34639" d="M418.751,420.914c-4.078-1.972-15.417-2.633-15.531-2.639l.146-2.6c.487.028,11.976.7,16.516,2.895Z" transform="translate(-307.892 -317.405)" fill="#3d4451"/>
      <path id="Trazado_34640" data-name="Trazado 34640" d="M203.183,5.41H160.439a8.569,8.569,0,0,0-8.5,8.64V30.014a8.568,8.568,0,0,0,8.5,8.639h.848L159,50.133l10.936-11.48h33.249a8.568,8.568,0,0,0,8.5-8.639V14.05a8.569,8.569,0,0,0-8.5-8.64" transform="translate(-116.021 -4.131)" fill="#f5fafc"/>
      <path id="Trazado_34641" data-name="Trazado 34641" d="M210.917,28.817H172.576a7.363,7.363,0,0,0-7.621,7.076V48.968a7.363,7.363,0,0,0,7.621,7.076h.761l-2.053,9.4,9.81-9.4h29.824a7.363,7.363,0,0,0,7.621-7.076V35.893a7.363,7.363,0,0,0-7.621-7.076" transform="translate(-125.957 -22.004)" fill="#c7ddeb"/>
      <line id="Línea_36" data-name="Línea 36" x2="8.806" transform="translate(72.495 13.873)" fill="#fff"/>
      <path id="Trazado_34642" data-name="Trazado 34642" d="M310.407,55.2H301.6a1.56,1.56,0,1,1,0-3.119h8.806a1.56,1.56,0,1,1,0,3.119" transform="translate(-229.106 -39.771)" fill="#3d4451"/>
      <line id="Línea_37" data-name="Línea 37" x2="3.786" transform="translate(62.635 13.873)" fill="#fff"/>
      <path id="Trazado_34643" data-name="Trazado 34643" d="M263.681,55.2H259.9a1.56,1.56,0,0,1,0-3.119h3.786a1.56,1.56,0,0,1,0,3.119" transform="translate(-197.261 -39.771)" fill="#3d4451"/>
      <line id="Línea_38" data-name="Línea 38" x2="8.127" transform="translate(48.711 13.873)" fill="#fff"/>
      <path id="Trazado_34644" data-name="Trazado 34644" d="M209.128,55.2H201a1.56,1.56,0,1,1,0-3.119h8.127a1.56,1.56,0,1,1,0,3.119" transform="translate(-152.29 -39.771)" fill="#3d4451"/>
      <path id="Trazado_34645" data-name="Trazado 34645" d="M300.05,95.368c4.06.122,8.442.122,12.549,0" transform="translate(-229.113 -72.821)" fill="#fff"/>
      <path id="Trazado_34646" data-name="Trazado 34646" d="M301.269,91.983c-2.127,0-4.248-.031-6.3-.093a1.56,1.56,0,1,1,.094-3.118c4.051.122,8.358.122,12.456,0a1.56,1.56,0,0,1,.093,3.118c-2.079.062-4.212.093-6.339.093" transform="translate(-224.075 -67.784)" fill="#3d4451"/>
      <path id="Trazado_34647" data-name="Trazado 34647" d="M206.038,95.368c6.845.122,9.857.122,16.566,0" transform="translate(-157.327 -72.821)" fill="#fff"/>
      <path id="Trazado_34648" data-name="Trazado 34648" d="M209.335,91.981c-2.466,0-4.949-.031-8.362-.091a1.56,1.56,0,1,1,.056-3.119c6.858.123,9.789.123,16.51,0h.029a1.56,1.56,0,0,1,.028,3.119c-3.345.061-5.794.091-8.26.091" transform="translate(-152.29 -67.784)" fill="#3d4451"/>
      <path id="Trazado_34649" data-name="Trazado 34649" d="M152.75,50.078l2.851-14.3a9.874,9.874,0,0,1-9.069-9.893V9.919A9.859,9.859,0,0,1,156.307,0h42.744a9.859,9.859,0,0,1,9.775,9.919V25.883a9.859,9.859,0,0,1-9.775,9.918h-32.7Zm3.557-47.52a7.3,7.3,0,0,0-7.217,7.361V25.883a7.3,7.3,0,0,0,7.217,7.36h2.407l-1.731,8.683,8.271-8.683h33.8a7.3,7.3,0,0,0,7.217-7.36V9.919a7.3,7.3,0,0,0-7.217-7.361Z" transform="translate(-111.889)" fill="#3d4451"/>
    </g>
    <g id="Grupo_18720" data-name="Grupo 18720" transform="translate(971 908.31)" clip-path="url(#clip-path-2)">
      <path id="Trazado_34650" data-name="Trazado 34650" d="M41.455,183.216h70.018a2.04,2.04,0,0,0,2.04-2.04V100.9a2.041,2.041,0,0,0-2.04-2.041H41.455a2.04,2.04,0,0,0-2.04,2.041v80.275a2.04,2.04,0,0,0,2.04,2.04" transform="translate(-29.704 -74.504)" fill="#c7ddeb"/>
      <path id="Trazado_34651" data-name="Trazado 34651" d="M74.148,142.512H3.594A3.6,3.6,0,0,1,0,138.918V57.7A3.6,3.6,0,0,1,3.594,54.1H74.148A3.6,3.6,0,0,1,77.742,57.7v81.22a3.6,3.6,0,0,1-3.594,3.594M3.594,57.172a.527.527,0,0,0-.526.526v81.22a.527.527,0,0,0,.526.526H74.148a.527.527,0,0,0,.526-.526V57.7a.527.527,0,0,0-.526-.526Z" transform="translate(0 -40.774)" fill="#3d4451"/>
      <rect id="Rectángulo_4848" data-name="Rectángulo 4848" width="36.618" height="2.356" transform="translate(29.056 76.185)" fill="#3d4451"/>
      <rect id="Rectángulo_4849" data-name="Rectángulo 4849" width="36.618" height="2.356" transform="translate(29.056 83.921)" fill="#3d4451"/>
      <path id="Trazado_34652" data-name="Trazado 34652" d="M216.229,298.548a17.447,17.447,0,1,1,17.44,16.945,17.2,17.2,0,0,1-17.44-16.945" transform="translate(-162.956 -212.224)" fill="#7eb9c7"/>
      <path id="Trazado_34653" data-name="Trazado 34653" d="M232.5,316.156c0-7.992,6.856-14.471,15.312-14.471s15.313,6.479,15.313,14.471-6.856,14.471-15.313,14.471S232.5,324.149,232.5,316.156" transform="translate(-175.217 -227.358)" fill="#f5fafc"/>
      <path id="Trazado_34654" data-name="Trazado 34654" d="M234.718,268.517a22.106,22.106,0,1,0,0,31.263,22.106,22.106,0,0,0,0-31.263m-3.383,27.88a17.322,17.322,0,1,1,0-24.5,17.322,17.322,0,0,1,0,24.5" transform="translate(-148.45 -197.482)" fill="#f04f4c"/>
      <path id="Trazado_34655" data-name="Trazado 34655" d="M216.91,304.79a22.818,22.818,0,1,1,16.135-6.683,22.668,22.668,0,0,1-16.135,6.683m0-44.213a21.4,21.4,0,1,0,15.128,6.266,21.254,21.254,0,0,0-15.128-6.266m0,39.42a18.025,18.025,0,1,1,12.751-5.273A17.975,17.975,0,0,1,216.91,300m0-34.635a16.61,16.61,0,1,0,11.745,4.865,16.5,16.5,0,0,0-11.745-4.865" transform="translate(-146.273 -195.306)" fill="#3d4451"/>
      <path id="Trazado_34656" data-name="Trazado 34656" d="M379.171,444.575a2,2,0,0,1,.206,2.785l-1.889,1.889a2,2,0,0,1-2.785-.206l-7.185-7.185a1.953,1.953,0,0,1-.168-2.747l1.889-1.889a1.953,1.953,0,0,1,2.747.168Z" transform="translate(-276.477 -329.134)" fill="#7eb9c7"/>
      <path id="Trazado_34657" data-name="Trazado 34657" d="M216.43,304.171a22.991,22.991,0,1,1,16.27-6.728,22.935,22.935,0,0,1-16.27,6.728m0-44.2a21.2,21.2,0,1,0,14.993,6.21,21.063,21.063,0,0,0-14.993-6.21" transform="translate(-145.767 -194.558)" fill="#3d4451"/>
      <rect id="Rectángulo_4850" data-name="Rectángulo 4850" width="4.467" height="7.424" transform="translate(85.585 103.171) rotate(-45)" fill="#f5fafc"/>
      <path id="Trazado_34658" data-name="Trazado 34658" d="M349.418,412.187l-6.3-6.3,4.209-4.208,6.3,6.3Zm-4.2-6.3,4.2,4.2,2.109-2.109-4.2-4.2Z" transform="translate(-258.584 -302.717)" fill="#3d4451"/>
      <path id="Trazado_34659" data-name="Trazado 34659" d="M376.214,439.5a2.544,2.544,0,0,1-1.793-.743l-7.185-7.185a2.455,2.455,0,0,1-.728-1.676,2.246,2.246,0,0,1,.655-1.664l2.028-2.028a2.265,2.265,0,0,1,1.664-.655,2.453,2.453,0,0,1,1.676.728l7.185,7.185a2.54,2.54,0,0,1,.747,1.689,2.219,2.219,0,0,1-.636,1.689l-2.028,2.028a2.224,2.224,0,0,1-1.585.632m-5.421-13.248a1.544,1.544,0,0,0-1.1.45l-2.028,2.028a1.546,1.546,0,0,0-.449,1.148,1.752,1.752,0,0,0,.522,1.2l7.185,7.185a1.712,1.712,0,0,0,2.382.111l2.028-2.028a1.522,1.522,0,0,0,.43-1.16,1.861,1.861,0,0,0-.542-1.221l-7.185-7.185a1.752,1.752,0,0,0-1.2-.522h-.044" transform="translate(-276.21 -320.703)" fill="#3d4451"/>
      <path id="Trazado_34660" data-name="Trazado 34660" d="M375.018,438.7a2.929,2.929,0,0,1-2.067-.869l-7.185-7.185a2.843,2.843,0,0,1-.843-1.942,2.633,2.633,0,0,1,.769-1.95l2.028-2.028a2.61,2.61,0,0,1,1.95-.769,2.844,2.844,0,0,1,1.941.842l7.185,7.185a2.929,2.929,0,0,1,.861,1.948,2.6,2.6,0,0,1-.75,1.982l-2.028,2.028a2.613,2.613,0,0,1-1.863.758M369.6,425.443a1.158,1.158,0,0,0-.829.335l-2.028,2.028a1.162,1.162,0,0,0-.335.862,1.365,1.365,0,0,0,.408.93L374,436.784a1.319,1.319,0,0,0,1.83.111l2.028-2.028a1.136,1.136,0,0,0,.317-.868,1.469,1.469,0,0,0-.427-.963l-7.185-7.185a1.364,1.364,0,0,0-.93-.408H369.6" transform="translate(-275.016 -319.507)" fill="#3d4451"/>
      <path id="Trazado_34661" data-name="Trazado 34661" d="M255.05,330.842a1.956,1.956,0,0,1-1.36-.676l-6.605-7.286a1.689,1.689,0,0,1,.2-2.466,1.917,1.917,0,0,1,2.594.176l5.172,5.672,11.229-13.029a1.915,1.915,0,0,1,2.588-.254,1.669,1.669,0,0,1,.266,2.441L256.512,330.13a1.9,1.9,0,0,1-1.4.713h-.058" transform="translate(-185.875 -235.577)" fill="#4ece46"/>
      <path id="Trazado_34662" data-name="Trazado 34662" d="M252.158,328.857h-.1a2.907,2.907,0,0,1-2.062-.993l-6.606-7.288a2.635,2.635,0,0,1-.689-1.99,2.664,2.664,0,0,1,.993-1.884,2.906,2.906,0,0,1,3.925.275l4.434,4.863,10.513-12.2a2.9,2.9,0,0,1,3.916-.39,2.663,2.663,0,0,1,1.045,1.854,2.62,2.62,0,0,1-.635,1.994L254.276,327.8a2.836,2.836,0,0,1-2.118,1.053m-.065-1.945h.066a.992.992,0,0,0,.642-.375l12.619-14.708a.7.7,0,0,0,.175-.529.738.738,0,0,0-.3-.509.944.944,0,0,0-1.258.117l-11.946,13.86-5.911-6.483a.947.947,0,0,0-1.264-.075.738.738,0,0,0-.279.52.71.71,0,0,0,.189.536l6.607,7.288a1.013,1.013,0,0,0,.657.357" transform="translate(-182.901 -232.62)" fill="#3d4451"/>
      <path id="Trazado_34663" data-name="Trazado 34663" d="M117.179,29.444H108.1a4.022,4.022,0,0,0,.039-.552c0-2.747-2.768-4.973-6.182-4.973s-6.182,2.227-6.182,4.974a4.063,4.063,0,0,0,.039.553H87.872c-1.96,0-3.549,1.279-3.549,2.855v4.236c0,1.577,1.589,2.855,3.549,2.855l29.307,0c1.96,0,3.549-1.279,3.549-2.855V32.3c0-1.577-1.589-2.855-3.549-2.855m-15.226-.108a2.35,2.35,0,0,1-2.559-2.058,2.619,2.619,0,0,1,5.117,0,2.35,2.35,0,0,1-2.558,2.058" transform="translate(-63.548 -18.027)" fill="#fdc345"/>
      <path id="Trazado_34664" data-name="Trazado 34664" d="M81.036,21.3a4.713,4.713,0,0,1-4.784-4.627V11.447a4.522,4.522,0,0,1,1.417-3.289,4.839,4.839,0,0,1,3.365-1.339h7.094a7.533,7.533,0,0,1,15,0h8.281a4.713,4.713,0,0,1,4.783,4.627V16.67a4.522,4.522,0,0,1-1.418,3.289A4.839,4.839,0,0,1,111.41,21.3ZM95.627,2.211a5.178,5.178,0,0,0-5.3,5.031,4.838,4.838,0,0,0,.033.554L90.5,9.028H81.035a2.637,2.637,0,0,0-1.836.725,2.33,2.33,0,0,0-.736,1.693v5.227a2.5,2.5,0,0,0,2.573,2.417l30.374,0a2.636,2.636,0,0,0,1.836-.725,2.33,2.33,0,0,0,.736-1.692V11.443a2.5,2.5,0,0,0-2.573-2.416H100.754l.143-1.233a4.842,4.842,0,0,0,.033-.555,5.177,5.177,0,0,0-5.3-5.03m0,9.129a3.794,3.794,0,0,1-2.639-1.05,3.569,3.569,0,0,1,0-5.188,3.794,3.794,0,0,1,2.639-1.051h0A3.794,3.794,0,0,1,98.267,5.1a3.569,3.569,0,0,1,0,5.188,3.8,3.8,0,0,1-2.639,1.051Zm0-5.078a1.6,1.6,0,0,0-1.111.437,1.36,1.36,0,0,0,0,1.995,1.593,1.593,0,0,0,1.11.437v0a1.6,1.6,0,0,0,1.111-.437,1.36,1.36,0,0,0,0-1.995,1.6,1.6,0,0,0-1.111-.436" transform="translate(-57.466 0)" fill="#3d4451"/>
      <path id="Trazado_34665" data-name="Trazado 34665" d="M50.278,110.675h-.051l-2.789,1.313-.558-2.372,3.778-1.773h2.89v14.97H50.278Z" transform="translate(-35.33 -81.273)" fill="#3d4451"/>
      <path id="Trazado_34666" data-name="Trazado 34666" d="M46.957,215.725V213.7l1.648-1.911c2.13-2.464,3.88-4.514,3.88-6.656a1.925,1.925,0,0,0-2.1-2.05,4.975,4.975,0,0,0-2.485.76l-.584-2.349a7.94,7.94,0,0,1,3.677-.921c3.6,0,4.768,2.188,4.768,4.33,0,2.81-1.927,5.067-3.829,7.071l-.989,1.059v.046h5.046v2.649Z" transform="translate(-35.388 -151.155)" fill="#3d4451"/>
      <path id="Trazado_34667" data-name="Trazado 34667" d="M49.308,311.019a5.541,5.541,0,0,0,2.46.576c1.6,0,2.485-.9,2.485-2.165,0-1.658-1.395-2.372-3.093-2.372H50.7v-2.211h.329c1.217-.023,2.789-.484,2.789-1.935a1.7,1.7,0,0,0-1.927-1.728,4.318,4.318,0,0,0-2.079.6l-.431-2.28a7.561,7.561,0,0,1,3.4-.783c2.891,0,4.336,1.7,4.336,3.616A3.65,3.65,0,0,1,54.76,305.7v.046a3.793,3.793,0,0,1,2.815,3.8c0,2.28-1.927,4.514-5.5,4.514a7.556,7.556,0,0,1-3.246-.668Z" transform="translate(-36.797 -225.124)" fill="#3d4451"/>
      <rect id="Rectángulo_4851" data-name="Rectángulo 4851" width="36.618" height="2.356" transform="translate(29.056 28.88)" fill="#3d4451"/>
      <rect id="Rectángulo_4852" data-name="Rectángulo 4852" width="36.618" height="2.356" transform="translate(29.056 37.348)" fill="#3d4451"/>
      <rect id="Rectángulo_4853" data-name="Rectángulo 4853" width="36.618" height="2.356" transform="translate(29.056 51.596)" fill="#3d4451"/>
      <rect id="Rectángulo_4854" data-name="Rectángulo 4854" width="36.618" height="2.356" transform="translate(29.056 60.065)" fill="#3d4451"/>
    </g>
    <g id="Grupo_18711" data-name="Grupo 18711" transform="translate(563 917.238)" clip-path="url(#clip-path-3)">
      <path id="Trazado_34602" data-name="Trazado 34602" d="M146.21,429.7a2.931,2.931,0,0,0,2.931-2.931V395.409a2.931,2.931,0,1,0-5.863,0v31.355a2.931,2.931,0,0,0,2.931,2.931" transform="translate(-8.426 -155.751)" fill="#3d4451"/>
      <path id="Trazado_34603" data-name="Trazado 34603" d="M163.714,300.145H109.291c-13.037,0-13.032-6.675-12.517-19.7.7-17.745-4.138-42.115-.146-57.575,5.927-22.954-32.2-21.161-34.746-66.331h0v.577c.016-56.021,40.3-88.649,88.462-88.649s87.222,34.826,87.222,77.786c0,12-.636,20.472-6.082,30.624l-12.671,1.284s5.694,25.7-8.425,36.076-7.059,33.574-18.61,36.625S167.4,235.6,167.4,235.6s-4.894,49.229-3.685,64.546" transform="translate(-47.752 -27.169)" fill="#c7ddeb"/>
      <path id="Trazado_34604" data-name="Trazado 34604" d="M58.987,280.225a3.512,3.512,0,0,0,3.512-3.512V191.02l-1.015-1.027c-20.6-20.833-23.571-44.243-23.758-64.4,0-36.112,17.1-58.859,31.439-71.578,18.679-16.564,44.275-26.064,70.227-26.064,51.227,0,92.9,37.684,92.9,84,0,12.2-.454,21.689-6.319,32.817a3.512,3.512,0,0,0,6.214,3.275c6.6-12.528,7.129-23.3,7.129-36.092,0-50.192-44.827-91.028-99.928-91.028-27.645,0-54.941,10.145-74.887,27.832A99.016,99.016,0,0,0,39.967,81.756,104.535,104.535,0,0,0,30.7,125.63c.2,21.263,3.322,45.917,24.773,68.261v82.823a3.511,3.511,0,0,0,3.512,3.512" transform="translate(-30.702 -8.307)" fill="#3d4451"/>
      <path id="Trazado_34605" data-name="Trazado 34605" d="M103.9,397.956a85.96,85.96,0,0,0,19.873-2.116c3.048-.785,4.941-1.624,5.594-3.59a3.513,3.513,0,0,0-5.7-3.7c-5,2.124-41.29,7.711-61.7-11.168a3.512,3.512,0,0,0-4.769,5.156c13.227,12.234,31.979,15.42,46.7,15.42m18.8-7.922v0m0,0v0" transform="translate(63.779 -149.389)" fill="#3d4451"/>
      <path id="Trazado_34606" data-name="Trazado 34606" d="M3.623,335.389h.026a3.511,3.511,0,0,0,3.486-3.537c-.007-1.027-.027-2.135-.047-3.294A100.113,100.113,0,0,1,7.444,315c.636-4.945,1.823-5.606,1.835-5.609,3.568-1.095,5.123-3.144,5.8-4.67a7.993,7.993,0,0,0,.3-5.391l.152-1.627c2.7-1.642,6.515-4.5,7.214-7.831a5.4,5.4,0,0,0-1.065-4.53c-.191-.241-.388-.474-.587-.7,10.52-.67,16.746-3.223,19.007-7.784,1.126-2.271,1.706-6.068-1.93-11.257C22.75,243.593,13.522,228.895,13.43,228.749a3.512,3.512,0,0,0-5.952,3.73c.092.147,9.407,14.982,24.934,37.151,1.275,1.82,1.782,3.319,1.39,4.109-.639,1.287-4.52,3.576-15.018,3.988l-.205.014c-1.817.179-5.6.55-6.705,3.616-1.032,2.858,1.151,5.064,2.746,6.673.287.29.578.584.852.876a21.438,21.438,0,0,1-4.922,3.549l-1.668.89-.671,7.137.4.721a1.178,1.178,0,0,1,.045.679c-.069.144-.457.493-1.434.793C-.355,305-.132,317.582.065,328.683c.021,1.134.04,2.217.047,3.22a3.511,3.511,0,0,0,3.511,3.486" transform="translate(186.183 -90.123)" fill="#3d4451"/>
      <path id="Trazado_34607" data-name="Trazado 34607" d="M63.419,342.34a1.857,1.857,0,0,0,.862-3.5c-.758-.4-5.172-2.265-17.813-.186a1.856,1.856,0,1,0,.6,3.664c4.663-.766,12.993-1.493,15.49-.187a1.85,1.85,0,0,0,.859.212" transform="translate(134.769 -134.008)" fill="#3d4451"/>
      <path id="Trazado_34608" data-name="Trazado 34608" d="M140.3,168.715c8.993,0,16.387-2.8,20.1-7.827a24.1,24.1,0,0,1,6.674-6.066,59.357,59.357,0,0,0,22.16,4.206c26.125,0,47.38-16.32,47.38-36.38l-.008-.477c.223-8.482-4.691-17.782-13.488-25.529C206.4,81.929,179.5,75.425,151.146,79.238c-21.866,2.942-37.269,11.041-45.78,24.071-12.16,18.616-5.672,40.251-5.39,41.163,5.139,14.68,21.219,21.944,33.436,23.728a47.688,47.688,0,0,0,6.888.515" transform="translate(-68.581 -31.02)" fill="#7eb9c7"/>
    </g>
    <g id="Grupo_18722" data-name="Grupo 18722" transform="translate(1095.709 908.307)" clip-path="url(#clip-path-4)">
      <path id="Trazado_34668" data-name="Trazado 34668" d="M177.082,54.931h38.89c3.224,0,5.863,2.327,5.863,5.17V73.372c0,2.844-2.638,5.17-5.863,5.17h-4.593l.3,7.905-8.815-7.905H177.082c-3.225,0-5.863-2.327-5.863-5.17V60.1c0-2.844,2.638-5.17,5.863-5.17" transform="translate(-131.581 -42.214)" fill="#7eb9c7"/>
      <path id="Trazado_34669" data-name="Trazado 34669" d="M105.765,51.013H65.9c-3.306,0-6.01,2.337-6.01,5.193V69.534c0,2.856,2.7,5.193,6.01,5.193h4.708l-1.077,10.18,9.806-10.18h26.431c3.306,0,6.01-2.337,6.01-5.193V56.206c0-2.856-2.7-5.193-6.01-5.193" transform="translate(-46.024 -39.203)" fill="#fdc345"/>
      <path id="Trazado_34670" data-name="Trazado 34670" d="M180.672,51.013h-23.3V65.528c0,4.357,2.625,7.923,5.835,7.923h19.92a5.026,5.026,0,0,0,3.193-4.517v-12.9c0-2.763-2.539-5.025-5.643-5.025" transform="translate(-120.937 -39.203)" fill="#f04f4c"/>
      <path id="Trazado_34671" data-name="Trazado 34671" d="M68.136,306.692c5.036.285,9.175-4.287,8.926-9.858-.213-4.771-3.714-8.651-8.027-8.9-5.039-.287-9.183,4.289-8.93,9.862.216,4.771,3.718,8.649,8.031,8.893" transform="translate(-46.182 -221.268)" fill="#c7ddeb"/>
      <path id="Trazado_34672" data-name="Trazado 34672" d="M61.694,392.881a3.022,3.022,0,0,0,2.74-3.7c-1.462-8.148-7.466-15.442-14.661-15.45S36.56,381,35.081,389.147a3.022,3.022,0,0,0,2.732,3.71Z" transform="translate(-26.916 -287.209)" fill="#c7ddeb"/>
      <path id="Trazado_34673" data-name="Trazado 34673" d="M45.213,278.532c-.214,0-.427-.006-.641-.016a12.549,12.549,0,1,1,.641.016m-.495-2.872a9.654,9.654,0,1,0-9.131-9.142,9.689,9.689,0,0,0,9.131,9.142" transform="translate(-25.141 -194.819)" fill="#3d4451"/>
      <path id="Trazado_34674" data-name="Trazado 34674" d="M36.253,380.247h-.006l-31.179-.032A5.08,5.08,0,0,1,.1,374.125a26.409,26.409,0,0,1,7.187-13.442,19.151,19.151,0,0,1,13.378-5.9h.017a19.151,19.151,0,0,1,13.385,5.932,26.405,26.405,0,0,1,7.159,13.457,5.079,5.079,0,0,1-4.975,6.079M20.666,357.639A16.319,16.319,0,0,0,9.3,362.714a23.523,23.523,0,0,0-6.4,11.973,2.23,2.23,0,0,0,.46,1.858,2.2,2.2,0,0,0,1.707.81l31.179.033h0a2.2,2.2,0,0,0,1.706-.806,2.228,2.228,0,0,0,.464-1.857,23.517,23.517,0,0,0-6.371-11.987,16.32,16.32,0,0,0-11.371-5.1Z" transform="translate(0 -272.646)" fill="#3d4451"/>
      <path id="Trazado_34675" data-name="Trazado 34675" d="M46.116,279.163q-.313,0-.627-.016a12.27,12.27,0,1,1,.627.016m-.509-2.328a9.926,9.926,0,1,0-9.389-9.4,9.976,9.976,0,0,0,9.389,9.4" transform="translate(-26.045 -195.722)" fill="#3d4451"/>
      <path id="Trazado_34676" data-name="Trazado 34676" d="M37.157,380.879h-.005l-31.179-.032a4.808,4.808,0,0,1-4.7-5.764,26.14,26.14,0,0,1,7.112-13.3,18.882,18.882,0,0,1,13.187-5.825h.017a18.88,18.88,0,0,1,13.193,5.853,26.13,26.13,0,0,1,7.084,13.317,4.807,4.807,0,0,1-4.708,5.754M21.57,358.27a16.588,16.588,0,0,0-11.557,5.155,23.8,23.8,0,0,0-6.472,12.113,2.5,2.5,0,0,0,.516,2.084,2.472,2.472,0,0,0,1.917.91l31.179.032h0a2.471,2.471,0,0,0,1.916-.905,2.5,2.5,0,0,0,.521-2.083,23.793,23.793,0,0,0-6.446-12.127,16.589,16.589,0,0,0-11.563-5.179Z" transform="translate(-0.903 -273.55)" fill="#3d4451"/>
      <path id="Trazado_34677" data-name="Trazado 34677" d="M199.3,237.453a6.659,6.659,0,1,0,.752-13.264c-4.229-.2-7.706,3.032-7.494,6.973a6.924,6.924,0,0,0,6.742,6.291" transform="translate(-147.972 -172.281)" fill="#c7ddeb"/>
      <path id="Trazado_34678" data-name="Trazado 34678" d="M193.89,313.846a2.448,2.448,0,0,0,2.3-2.973c-1.228-6.541-6.267-12.4-12.306-12.4s-11.089,5.839-12.33,12.378a2.448,2.448,0,0,0,2.293,2.978Z" transform="translate(-131.801 -229.372)" fill="#c7ddeb"/>
      <path id="Trazado_34679" data-name="Trazado 34679" d="M186.535,215.743q-.271,0-.542-.014a10.6,10.6,0,1,1,.542.014m-.418-2.427a8.156,8.156,0,1,0-7.715-7.724,8.186,8.186,0,0,0,7.715,7.724" transform="translate(-135.237 -149.548)" fill="#3d4451"/>
      <path id="Trazado_34680" data-name="Trazado 34680" d="M178.965,301.682h0l-26.343-.027a4.292,4.292,0,0,1-4.2-5.145,22.314,22.314,0,0,1,6.073-11.357,16.181,16.181,0,0,1,11.3-4.989h.014a16.179,16.179,0,0,1,11.309,5.012,22.313,22.313,0,0,1,6.049,11.369,4.292,4.292,0,0,1-4.2,5.136M165.8,282.58a13.788,13.788,0,0,0-9.6,4.289,19.87,19.87,0,0,0-5.4,10.116,1.883,1.883,0,0,0,.388,1.57,1.86,1.86,0,0,0,1.442.684l26.343.027h0a1.858,1.858,0,0,0,1.441-.681,1.884,1.884,0,0,0,.392-1.569,19.872,19.872,0,0,0-5.383-10.128,13.79,13.79,0,0,0-9.607-4.309Z" transform="translate(-113.995 -215.305)" fill="#3d4451"/>
      <path id="Trazado_34681" data-name="Trazado 34681" d="M186.535,215.743q-.271,0-.542-.014a10.6,10.6,0,1,1,.542.014m-.418-2.427a8.156,8.156,0,1,0-7.715-7.724,8.186,8.186,0,0,0,7.715,7.724" transform="translate(-135.237 -149.548)" fill="#3d4451"/>
      <path id="Trazado_34682" data-name="Trazado 34682" d="M178.965,301.682h0l-26.343-.027a4.292,4.292,0,0,1-4.2-5.145,22.314,22.314,0,0,1,6.073-11.357,16.181,16.181,0,0,1,11.3-4.989h.014a16.179,16.179,0,0,1,11.309,5.012,22.313,22.313,0,0,1,6.049,11.369,4.292,4.292,0,0,1-4.2,5.136M165.8,282.58a13.788,13.788,0,0,0-9.6,4.289,19.87,19.87,0,0,0-5.4,10.116,1.883,1.883,0,0,0,.388,1.57,1.86,1.86,0,0,0,1.442.684l26.343.027h0a1.858,1.858,0,0,0,1.441-.681,1.884,1.884,0,0,0,.392-1.569,19.872,19.872,0,0,0-5.383-10.128,13.79,13.79,0,0,0-9.607-4.309Z" transform="translate(-113.995 -215.305)" fill="#3d4451"/>
      <path id="Trazado_34683" data-name="Trazado 34683" d="M352.939,305.1c5.26.3,9.584-4.495,9.323-10.336-.223-5-3.879-9.07-8.384-9.328-5.263-.3-9.591,4.5-9.327,10.34.225,5,3.883,9.068,8.388,9.324" transform="translate(-264.777 -219.346)" fill="#c7ddeb"/>
      <path id="Trazado_34684" data-name="Trazado 34684" d="M346.211,395.463a3.166,3.166,0,0,0,2.861-3.883c-1.527-8.543-7.8-16.191-15.313-16.2s-13.8,7.626-15.346,16.166a3.166,3.166,0,0,0,2.853,3.889Z" transform="translate(-244.654 -288.48)" fill="#c7ddeb"/>
      <path id="Trazado_34685" data-name="Trazado 34685" d="M320.821,282.587q-.321,0-.641-.016a12.549,12.549,0,1,1,.641.016m.03-22.166a9.639,9.639,0,1,0,.5.013c-.166-.009-.333-.013-.5-.013" transform="translate(-236.945 -197.935)" fill="#3d4451"/>
      <path id="Trazado_34686" data-name="Trazado 34686" d="M311.862,384.3h-.005l-31.179-.033a5.079,5.079,0,0,1-4.967-6.09,26.406,26.406,0,0,1,7.187-13.441,19.151,19.151,0,0,1,13.378-5.9h.017a19.148,19.148,0,0,1,13.385,5.932,26.406,26.406,0,0,1,7.159,13.457,5.08,5.08,0,0,1-4.975,6.08m0-2.86h0a2.2,2.2,0,0,0,1.706-.806,2.23,2.23,0,0,0,.464-1.857,23.518,23.518,0,0,0-6.372-11.987,16.319,16.319,0,0,0-11.371-5.1h-.014a16.32,16.32,0,0,0-11.366,5.076,23.52,23.52,0,0,0-6.4,11.973,2.229,2.229,0,0,0,.46,1.858,2.2,2.2,0,0,0,1.707.81Z" transform="translate(-211.805 -275.763)" fill="#3d4451"/>
      <path id="Trazado_34687" data-name="Trazado 34687" d="M321.725,283.219q-.313,0-.627-.016a12.282,12.282,0,1,1,.627.016m.03-22.166a9.907,9.907,0,1,0,.513.013q-.257-.013-.513-.013" transform="translate(-237.849 -198.84)" fill="#3d4451"/>
      <path id="Trazado_34688" data-name="Trazado 34688" d="M312.766,384.934h0l-31.179-.033a4.807,4.807,0,0,1-4.7-5.764,26.133,26.133,0,0,1,7.112-13.3,18.88,18.88,0,0,1,13.187-5.825h.017a18.879,18.879,0,0,1,13.193,5.853,26.132,26.132,0,0,1,7.084,13.317,4.807,4.807,0,0,1-4.708,5.754m0-2.315h0a2.472,2.472,0,0,0,1.917-.906,2.5,2.5,0,0,0,.52-2.082,23.791,23.791,0,0,0-6.446-12.127,16.587,16.587,0,0,0-11.562-5.179h-.015a16.587,16.587,0,0,0-11.557,5.155,23.792,23.792,0,0,0-6.472,12.113,2.5,2.5,0,0,0,.516,2.084,2.472,2.472,0,0,0,1.917.909Z" transform="translate(-212.708 -276.666)" fill="#3d4451"/>
      <path id="Trazado_34689" data-name="Trazado 34689" d="M45.806,63.63l.932-15.341H42.862a7.631,7.631,0,0,1-7.68-7.564V24.283a7.631,7.631,0,0,1,7.68-7.564H86.117a7.631,7.631,0,0,1,7.68,7.564V40.724a7.631,7.631,0,0,1-7.68,7.564H58ZM42.862,19.037A5.311,5.311,0,0,0,37.5,24.283V40.724a5.311,5.311,0,0,0,5.362,5.247H49.2l-.636,10.463,8.316-10.463H86.117a5.311,5.311,0,0,0,5.362-5.247V24.283a5.311,5.311,0,0,0-5.362-5.247Z" transform="translate(-27.037 -12.848)" fill="#3d4451"/>
      <path id="Trazado_34690" data-name="Trazado 34690" d="M201.557,60.047,188.313,47.87H159.265a7.771,7.771,0,0,1-7.976-7.53v-16.1a7.771,7.771,0,0,1,7.976-7.53H203.82a7.771,7.771,0,0,1,7.976,7.53v16.1a7.771,7.771,0,0,1-7.976,7.53h-3.83ZM159.265,19.232a5.255,5.255,0,0,0-5.458,5.012v16.1a5.255,5.255,0,0,0,5.458,5.012h30.029l8.884,8.167-1.051-8.167h6.693a5.255,5.255,0,0,0,5.458-5.012v-16.1a5.255,5.255,0,0,0-5.458-5.012Z" transform="translate(-116.265 -12.845)" fill="#3d4451"/>
      <path id="Trazado_34691" data-name="Trazado 34691" d="M179.168,34.3a2.994,2.994,0,0,1-2.116-1.029l-10.39-11.315a2.708,2.708,0,0,1,.229-3.9,2.9,2.9,0,0,1,4,.207l8.136,8.809L195.934,6.221a2.9,2.9,0,0,1,3.979-.47,2.677,2.677,0,0,1,.483,3.844l-19,23.545a2.9,2.9,0,0,1-2.14,1.163Z" transform="translate(-127.526 -3.972)" fill="#4ece46"/>
      <path id="Trazado_34692" data-name="Trazado 34692" d="M175.27,31.531h-.09a4.159,4.159,0,0,1-3-1.415L161.789,18.8a3.91,3.91,0,0,1,.33-5.618,4.12,4.12,0,0,1,5.667.3l7.195,7.79L191.014,1.493a4.113,4.113,0,0,1,5.637-.672,3.9,3.9,0,0,1,1.534,2.654,3.846,3.846,0,0,1-.844,2.9l-19,23.542a4.081,4.081,0,0,1-3.075,1.61M164.8,14.589a1.706,1.706,0,0,0-1.115.412,1.511,1.511,0,0,0-.529,1.065,1.494,1.494,0,0,0,.4,1.106l10.393,11.318a1.821,1.821,0,0,0,1.231.64h.09a1.742,1.742,0,0,0,1.206-.717l19-23.544a1.464,1.464,0,0,0,.326-1.106,1.513,1.513,0,0,0-.6-1.028A1.692,1.692,0,0,0,192.88,3L175.1,24.94l-9.077-9.828a1.655,1.655,0,0,0-1.219-.523" transform="translate(-123.539 0)" fill="#3d4451"/>
    </g>
  </g>
</svg>
