<svg xmlns="http://www.w3.org/2000/svg" xmlns:xlink="http://www.w3.org/1999/xlink" width="746.597" height="208.552" viewBox="0 0 746.597 208.552">
  <defs>
    <clipPath id="clip-path">
      <rect id="Rectángulo_4876" data-name="Rectángulo 4876" width="746.597" height="208.552" fill="none"/>
    </clipPath>
  </defs>
  <g id="Grupo_18937" data-name="Grupo 18937" transform="translate(-587 -1846.448)">
    <g id="Grupo_18726" data-name="Grupo 18726" transform="translate(587 1846.448)">
      <rect id="Rectángulo_4858" data-name="Rectángulo 4858" width="159.346" height="101.581" transform="translate(299.437 2.548)" fill="#fff"/>
      <path id="Trazado_34702" data-name="Trazado 34702" d="M620.079,5.1H774.328v96.484H620.079Zm-5.1,101.581H779.424V0H614.982Z" transform="translate(-318.094)" fill="#3d4451"/>
      <g id="Grupo_18725" data-name="Grupo 18725">
        <g id="Grupo_18724" data-name="Grupo 18724" clip-path="url(#clip-path)">
          <path id="Trazado_34703" data-name="Trazado 34703" d="M652.43,106.812H774.506a6,6,0,0,0,6-6V35.682a6,6,0,0,0-6-6H652.43a6,6,0,0,0-6,6v65.129a6,6,0,0,0,6,6" transform="translate(-334.359 -15.352)" fill="#c7ddeb"/>
          <path id="Trazado_34704" data-name="Trazado 34704" d="M125.755,270.408v-52.65c0-4.762,4.3-8.624,9.612-8.624H167.48c5.308,0,9.612,3.861,9.612,8.624v52.65" transform="translate(-65.046 -108.173)" fill="#fdc345"/>
          <path id="Trazado_34705" data-name="Trazado 34705" d="M168.135,258.766h-4.616V196.013a8.225,8.225,0,0,0-8.44-7.971H119.166a8.225,8.225,0,0,0-8.44,7.971v62.753H106.11V196.013a12.842,12.842,0,0,1,13.056-12.587h35.913a12.842,12.842,0,0,1,13.056,12.587Z" transform="translate(-54.884 -94.875)" fill="#3d4451"/>
          <path id="Trazado_34706" data-name="Trazado 34706" d="M195.219,203.732c12.094.638,22.036-9.564,21.436-22-.513-10.648-8.921-19.308-19.279-19.859-12.1-.643-22.052,9.568-21.446,22.007.52,10.647,8.931,19.3,19.289,19.851" transform="translate(-90.984 -83.714)" fill="#fff"/>
          <path id="Trazado_34707" data-name="Trazado 34707" d="M147.8,280.136c-.4-26.551,17.773-43.7,35.049-43.68,12.016.014,22.646,7.487,29.191,18.4l5.448-13.077a5.72,5.72,0,0,1-1.167-1.86c-1.618-4.277,2.064-9.85,8.224-12.447s12.464-1.235,14.081,3.041-2.065,9.85-8.224,12.448a19.9,19.9,0,0,1-3,1.356l-4.85,36.328" transform="translate(-76.443 -116.976)" fill="#fff"/>
          <path id="Trazado_34708" data-name="Trazado 34708" d="M160.5,282.939c3-14.95,15.19-28.314,29.763-28.3,13.118.015,24.28,9.874,28.543,22.947l2.287-.214c1.188-3.886,2.376-6.782,3.563-10.668q1.394-4.56,2.787-9.12c1-3.271,1.791-6.775,3.779-9.621,1.946-2.788,6.476-5.413,9.66-2.9,3.588,2.835.236,7.875-2.789,9.605l-8,35.02s-14.5-.013-14.5-.017a5.642,5.642,0,0,1-1.174.126l-48.383-.055a5.673,5.673,0,0,1-5.535-6.81" transform="translate(-82.959 -126.235)" fill="#7eb9c7"/>
          <path id="Trazado_34709" data-name="Trazado 34709" d="M222.36,278.4l-4.746-.633,5.072-37.989,1.637-.36a6.578,6.578,0,0,0,1.266-.578c.414-.22.842-.447,1.315-.646,4.893-2.063,8.06-6.366,6.915-9.395a3.956,3.956,0,0,0-2.3-2.2c-2.3-.985-5.517-.793-8.615.513-4.894,2.063-8.06,6.366-6.915,9.394a3.318,3.318,0,0,0,.689,1.085l1.038,1.128-7.861,18.87-2.439-4.067c-6.466-10.782-16.611-17.226-27.14-17.238h-.025c-7.137,0-14.612,3.43-20.512,9.412-8,8.116-12.307,19.654-12.115,32.487l-4.788.071c-.211-14.126,4.581-26.884,13.494-35.921,6.8-6.9,15.549-10.837,23.952-10.838,10.895.012,21.356,5.822,28.7,15.748l3.2-7.688a7.826,7.826,0,0,1-.67-1.356c-2.1-5.552,2.088-12.361,9.533-15.5,4.272-1.8,8.893-1.988,12.363-.5a8.671,8.671,0,0,1,4.888,4.9c2.1,5.552-2.088,12.361-9.534,15.5-.276.116-.594.285-.931.463-.258.137-.528.28-.811.417Z" transform="translate(-73.878 -114.42)" fill="#3d4451"/>
          <path id="Trazado_34710" data-name="Trazado 34710" d="M195.219,203.732c12.094.638,22.036-9.564,21.436-22-.513-10.648-8.921-19.308-19.279-19.859-12.1-.643-22.052,9.568-21.446,22.007.52,10.647,8.931,19.3,19.289,19.851" transform="translate(-90.984 -83.714)" fill="#fff"/>
          <path id="Trazado_34711" data-name="Trazado 34711" d="M193.75,203.59q-.609,0-1.221-.032c-11.511-.607-20.978-10.326-21.554-22.124a23.7,23.7,0,0,1,6.879-17.945,22.284,22.284,0,0,1,17.084-6.569c11.512.612,20.975,10.334,21.544,22.135a23.708,23.708,0,0,1-6.883,17.938,22.261,22.261,0,0,1-15.848,6.6m-.969-4.814a17.541,17.541,0,0,0,13.441-5.178,18.915,18.915,0,0,0,5.478-14.314c-.452-9.377-7.926-17.1-17.015-17.584a17.528,17.528,0,0,0-13.452,5.18,18.905,18.905,0,0,0-5.475,14.318c.458,9.377,7.936,17.1,17.024,17.577" transform="translate(-88.42 -81.148)" fill="#3d4451"/>
          <path id="Trazado_34712" data-name="Trazado 34712" d="M201.468,211.376a15.27,15.27,0,1,0-14.081-14.468,15.082,15.082,0,0,0,14.081,14.468" transform="translate(-96.915 -93.551)" fill="#7eb9c7"/>
          <path id="Trazado_34713" data-name="Trazado 34713" d="M173.664,322.574a1.813,1.813,0,0,1-1.812-1.781l-.276-15.958a1.813,1.813,0,1,1,3.626-.063l.275,15.958a1.813,1.813,0,0,1-1.781,1.844h-.032" transform="translate(-88.746 -156.719)" fill="#3d4451"/>
          <path id="Trazado_34714" data-name="Trazado 34714" d="M141.483,308.284V280.875c0-.854.459-1.546,1.025-1.546h35.464c.566,0,1.025.692,1.025,1.546v27.409Z" transform="translate(-73.181 -144.48)" fill="#c7ddeb"/>
          <path id="Trazado_34715" data-name="Trazado 34715" d="M185.661,301.221h-4.083V269.756H141.086v29.832H137V269.117a3.374,3.374,0,0,1,3.293-3.443h42.072a3.375,3.375,0,0,1,3.293,3.443Z" transform="translate(-70.864 -137.417)" fill="#3d4451"/>
          <path id="Trazado_34716" data-name="Trazado 34716" d="M157.038,259.513V263.6a2.811,2.811,0,0,0,2.863,2.756l23.648,0a2.811,2.811,0,0,0,2.864-2.755v-4.088a2.811,2.811,0,0,0-2.863-2.756h-6.406a4.626,4.626,0,0,0,.032-.533,4.992,4.992,0,0,0-9.977,0,4.736,4.736,0,0,0,.031.533H159.9a2.811,2.811,0,0,0-2.864,2.755" transform="translate(-81.226 -130.048)" fill="#fdc345"/>
          <path id="Trazado_34717" data-name="Trazado 34717" d="M182.018,266.258h0l-23.647,0a4.327,4.327,0,0,1-3.016-1.206,4.1,4.1,0,0,1-1.276-2.978v-4.088A4.1,4.1,0,0,1,155.356,255a4.323,4.323,0,0,1,3.015-1.206h5.935a6.114,6.114,0,0,1,1.835-3.528,6.477,6.477,0,0,1,4.517-1.8h0a6.48,6.48,0,0,1,4.518,1.806,6.114,6.114,0,0,1,1.834,3.528h5.011a4.244,4.244,0,0,1,4.292,4.184v4.089a4.1,4.1,0,0,1-1.277,2.978,4.323,4.323,0,0,1-3.015,1.206m-23.647-9.6a1.48,1.48,0,0,0-1.034.408,1.269,1.269,0,0,0-.4.919v4.089a1.27,1.27,0,0,0,.4.919,1.48,1.48,0,0,0,1.034.408l23.648,0a1.48,1.48,0,0,0,1.034-.408,1.268,1.268,0,0,0,.4-.918v-4.089a1.385,1.385,0,0,0-1.435-1.327H174.01l.184-1.593a3.113,3.113,0,0,0,.022-.369,3.262,3.262,0,0,0-1.022-2.364,3.634,3.634,0,0,0-2.537-1.007h0a3.631,3.631,0,0,0-2.536,1.007,3.226,3.226,0,0,0-1,2.735l.182,1.591Z" transform="translate(-79.695 -128.517)" fill="#3d4451"/>
          <path id="Trazado_34718" data-name="Trazado 34718" d="M7.261,383.138V340.882H746.848v43.989" transform="translate(-3.756 -176.318)" fill="#fff"/>
          <path id="Trazado_34719" data-name="Trazado 34719" d="M746.6,381.115h-7.01V340.632H7.011v38.751H0V333.622H746.6Z" transform="translate(0 -172.563)" fill="#3d4451"/>
          <rect id="Rectángulo_4859" data-name="Rectángulo 4859" width="707.854" height="29.762" transform="translate(18.699 177.058)" fill="#c7ddeb"/>
          <path id="Trazado_34720" data-name="Trazado 34720" d="M421.762,270.407v-52.65c0-4.762,5.79-8.624,12.932-8.624H477.9c7.142,0,12.933,3.861,12.933,8.624v52.65" transform="translate(-218.153 -108.173)" fill="#fdc345"/>
          <path id="Trazado_34721" data-name="Trazado 34721" d="M483.508,258.284h-5.517V195.53c0-4.076-5.769-7.52-12.6-7.52H414.08c-6.829,0-12.6,3.444-12.6,7.52v62.753h-5.517V195.53c0-7.311,7.958-13.037,18.116-13.037h51.312c10.159,0,18.116,5.726,18.116,13.037Z" transform="translate(-204.809 -94.393)" fill="#3d4451"/>
          <path id="Trazado_34722" data-name="Trazado 34722" d="M482.074,196.862a22.828,22.828,0,1,0-21.6-21.622,22.829,22.829,0,0,0,21.6,21.622" transform="translate(-238.163 -78.227)" fill="#fff"/>
          <path id="Trazado_34723" data-name="Trazado 34723" d="M480.307,196.7q-.655,0-1.312-.033a25.658,25.658,0,1,1,1.312.033m-1.031-5.512a20.084,20.084,0,1,0-19-19.02,20.16,20.16,0,0,0,19,19.02" transform="translate(-235.225 -75.289)" fill="#3d4451"/>
          <path id="Trazado_34724" data-name="Trazado 34724" d="M491.12,204.4c9.361.5,17.057-7.574,16.593-17.42-.4-8.432-6.9-15.289-14.923-15.725-9.367-.508-17.07,7.577-16.6,17.427.4,8.431,6.912,15.286,14.93,15.719" transform="translate(-246.294 -88.569)" fill="#7eb9c7"/>
          <path id="Trazado_34725" data-name="Trazado 34725" d="M502.369,290.809a39.224,39.224,0,1,0-78.449,0" transform="translate(-219.269 -130.129)" fill="#f5fafc"/>
          <path id="Trazado_34726" data-name="Trazado 34726" d="M506.123,298.009c0-17.114-14.4-30.987-32.164-30.987S441.8,280.9,441.8,298.009" transform="translate(-228.514 -138.115)" fill="#7eb9c7"/>
          <path id="Trazado_34727" data-name="Trazado 34727" d="M504.526,285.348h-5.486c0-21.414-16.894-38.835-37.659-38.835s-37.659,17.421-37.659,38.835h-5.486c0-24.439,19.354-44.321,43.144-44.321s43.144,19.882,43.144,44.321" transform="translate(-216.33 -124.669)" fill="#3d4451"/>
          <rect id="Rectángulo_4860" data-name="Rectángulo 4860" width="67.673" height="8.031" transform="translate(223.557 155.187)" fill="#f04f4c"/>
          <path id="Trazado_34728" data-name="Trazado 34728" d="M530.621,329.357h-71.39V317.61h71.39Zm-67.673-3.717H526.9v-4.314H462.948Z" transform="translate(-237.533 -164.281)" fill="#3d4451"/>
          <path id="Trazado_34729" data-name="Trazado 34729" d="M441.221,324.67a13.4,13.4,0,0,0-26.8,0Z" transform="translate(-214.355 -161.002)" fill="#7eb9c7"/>
          <path id="Trazado_34730" data-name="Trazado 34730" d="M441.094,324.542H410.7v-1.794a15.195,15.195,0,1,1,30.39,0Zm-26.663-3.589h22.936a11.608,11.608,0,0,0-22.936,0" transform="translate(-212.433 -159.079)" fill="#3d4451"/>
          <rect id="Rectángulo_4861" data-name="Rectángulo 4861" width="62.171" height="8.428" transform="translate(224.954 148.302)" fill="#fff"/>
          <path id="Trazado_34731" data-name="Trazado 34731" d="M528.06,315.538H463.446V304.667H528.06Zm-62.171-2.443h59.728V307.11H465.889Z" transform="translate(-239.713 -157.586)" fill="#3d4451"/>
          <path id="Trazado_34732" data-name="Trazado 34732" d="M1338.565,274.551V225.059c0-4.477-5.443-8.107-12.157-8.107h-40.617c-6.714,0-12.157,3.629-12.157,8.107v49.492" transform="translate(-658.775 -112.216)" fill="#fdc345"/>
          <path id="Trazado_34733" data-name="Trazado 34733" d="M1344.212,263.154h-5.187v-58.99c0-3.832-5.424-7.069-11.843-7.069h-48.234c-6.42,0-11.844,3.237-11.844,7.069v58.99h-5.187v-58.99c0-6.873,7.48-12.255,17.03-12.255h48.234c9.549,0,17.029,5.383,17.029,12.255Z" transform="translate(-652.715 -99.263)" fill="#3d4451"/>
          <path id="Trazado_34734" data-name="Trazado 34734" d="M1310.932,200.74c-12.094.639-22.036-9.564-21.436-22,.513-10.648,8.921-19.308,19.279-19.859,12.1-.643,22.053,9.568,21.446,22.007-.519,10.647-8.931,19.3-19.289,19.851" transform="translate(-666.967 -82.166)" fill="#fff"/>
          <path id="Trazado_34735" data-name="Trazado 34735" d="M1304.315,277.144c.4-26.551-17.773-43.7-35.049-43.68-12.017.014-22.646,7.487-29.191,18.4l-5.448-13.077a5.718,5.718,0,0,0,1.167-1.86c1.618-4.277-2.065-9.85-8.224-12.447s-12.463-1.235-14.081,3.041,2.065,9.85,8.224,12.448a19.89,19.89,0,0,0,3,1.356l4.85,36.327" transform="translate(-627.469 -115.429)" fill="#fff"/>
          <path id="Trazado_34736" data-name="Trazado 34736" d="M1301.431,279.947c-3-14.95-15.19-28.314-29.763-28.3-13.119.015-24.281,9.874-28.543,22.947l-2.287-.214c-1.187-3.886-2.376-6.782-3.563-10.669l-2.787-9.119c-1-3.271-1.791-6.775-3.779-9.621-1.947-2.787-6.476-5.413-9.66-2.9-3.589,2.836-.236,7.875,2.789,9.606l8,35.02s14.5-.013,14.5-.017a5.645,5.645,0,0,0,1.174.126l48.384-.055a5.673,5.673,0,0,0,5.535-6.81" transform="translate(-630.773 -124.687)" fill="#7eb9c7"/>
          <path id="Trazado_34737" data-name="Trazado 34737" d="M1224.616,275.412l-4.661-34.913c-.284-.137-.553-.28-.811-.417-.336-.179-.655-.347-.931-.464-7.445-3.139-11.632-9.948-9.533-15.5a8.672,8.672,0,0,1,4.889-4.9c3.468-1.487,8.089-1.3,12.362.5,7.445,3.14,11.632,9.949,9.534,15.5a7.871,7.871,0,0,1-.671,1.356l3.2,7.688c7.342-9.926,17.8-15.736,28.7-15.748h.031c8.41,0,17.126,3.949,23.921,10.838,8.913,9.037,13.706,21.795,13.494,35.922l-4.787-.072c.192-12.834-4.111-24.371-12.116-32.487-5.9-5.983-13.375-9.412-20.512-9.412h-.025c-10.53.012-20.675,6.456-27.141,17.238l-2.439,4.067-7.861-18.87,1.038-1.127a3.319,3.319,0,0,0,.689-1.086c1.146-3.029-2.021-7.331-6.915-9.395-3.1-1.306-6.317-1.5-8.615-.513a3.956,3.956,0,0,0-2.3,2.2c-1.145,3.029,2.021,7.331,6.915,9.395.472.2.9.426,1.315.646a6.578,6.578,0,0,0,1.265.577l1.637.361,5.072,37.988Z" transform="translate(-624.898 -112.872)" fill="#3d4451"/>
          <path id="Trazado_34738" data-name="Trazado 34738" d="M1310.932,200.74c-12.094.639-22.036-9.564-21.436-22,.513-10.648,8.921-19.308,19.279-19.859,12.1-.643,22.053,9.568,21.446,22.007-.519,10.647-8.931,19.3-19.289,19.851" transform="translate(-666.967 -82.166)" fill="#fff"/>
          <path id="Trazado_34739" data-name="Trazado 34739" d="M1307.273,200.6a22.263,22.263,0,0,1-15.849-6.6,23.711,23.711,0,0,1-6.883-17.938c.569-11.8,10.032-21.523,21.544-22.134a22.3,22.3,0,0,1,17.084,6.569,23.7,23.7,0,0,1,6.879,17.944c-.575,11.8-10.043,21.518-21.554,22.125-.409.021-.817.032-1.222.032m.032-41.915c-.321,0-.643.009-.966.026-9.089.483-16.563,8.207-17.015,17.584a18.917,18.917,0,0,0,5.479,14.314,17.541,17.541,0,0,0,13.439,5.178c9.089-.48,16.567-8.2,17.025-17.577a18.907,18.907,0,0,0-5.476-14.318,17.54,17.54,0,0,0-12.486-5.207" transform="translate(-664.403 -79.602)" fill="#3d4451"/>
          <path id="Trazado_34740" data-name="Trazado 34740" d="M1316.46,208.384a15.27,15.27,0,1,1,14.081-14.469,15.082,15.082,0,0,1-14.081,14.469" transform="translate(-672.814 -92.003)" fill="#7eb9c7"/>
          <path id="Trazado_34741" data-name="Trazado 34741" d="M1371.995,319.582h-.031a1.813,1.813,0,0,1-1.782-1.844l.276-15.958a1.813,1.813,0,0,1,3.625.062l-.276,15.958a1.813,1.813,0,0,1-1.812,1.781" transform="translate(-708.714 -155.171)" fill="#3d4451"/>
          <rect id="Rectángulo_4862" data-name="Rectángulo 4862" width="54.536" height="8.931" transform="translate(609.739 149.601)" fill="#fff"/>
          <path id="Trazado_34742" data-name="Trazado 34742" d="M1317.487,318.739h-56.759V307.585h56.759Zm-54.536-2.223h52.312v-6.707h-52.312Z" transform="translate(-652.1 -159.096)" fill="#3d4451"/>
          <rect id="Rectángulo_4863" data-name="Rectángulo 4863" width="57.652" height="4.296" transform="translate(608.182 158.532)" fill="#f04f4c"/>
          <path id="Trazado_34743" data-name="Trazado 34743" d="M1317.348,332.575h-60.642V325.29h60.642Zm-57.652-2.99h54.662v-1.306H1259.7Z" transform="translate(-650.02 -168.253)" fill="#3d4451"/>
          <rect id="Rectángulo_4864" data-name="Rectángulo 4864" width="17.634" height="1.357" transform="translate(610.895 154.01)" fill="#3d4451"/>
          <rect id="Rectángulo_4865" data-name="Rectángulo 4865" width="17.635" height="1.357" transform="translate(641.416 154.01)" fill="#3d4451"/>
          <path id="Trazado_34744" data-name="Trazado 34744" d="M348.442,111.466l-42.763.161c-3.545.014-6.437,2.539-6.426,5.612l.054,14.342c.012,3.073,2.922,5.577,6.468,5.563l3.753-.014,1.3,0-1.115,10.959,10.477-10.994,28.35-.107c3.545-.014,6.437-2.539,6.426-5.612l-.054-14.342c-.011-3.073-2.922-5.577-6.467-5.563" transform="translate(-154.786 -57.655)" fill="#c7ddeb"/>
          <path id="Trazado_34745" data-name="Trazado 34745" d="M296.574,139.392l1.173-20.3h-3.925a9.752,9.752,0,0,1-9.611-9.868V88.912a9.753,9.753,0,0,1,9.611-9.868H344.6a9.753,9.753,0,0,1,9.611,9.868v20.31a9.753,9.753,0,0,1-9.611,9.868H311.911Zm-2.753-56.438a5.84,5.84,0,0,0-5.7,5.958v20.31a5.84,5.84,0,0,0,5.7,5.957h8.068l-.668,11.574,8.743-11.574H344.6a5.84,5.84,0,0,0,5.7-5.957V88.912a5.84,5.84,0,0,0-5.7-5.958Z" transform="translate(-147.006 -40.885)" fill="#3d4451"/>
          <path id="Trazado_34746" data-name="Trazado 34746" d="M718.261,323.721h47.766a5.338,5.338,0,0,0,5.338-5.338v-1.339a5.338,5.338,0,0,0-5.338-5.337H718.261Z" transform="translate(-371.514 -161.228)" fill="#fff"/>
          <path id="Trazado_34747" data-name="Trazado 34747" d="M728.915,274.477h36.721a4.284,4.284,0,0,0,4.284-4.284v-1.455a4.284,4.284,0,0,0-4.284-4.284H728.915Z" transform="translate(-377.025 -136.786)" fill="#f5fafc"/>
          <path id="Trazado_34748" data-name="Trazado 34748" d="M764.441,274.4H726.6V262.143h37.836a5.406,5.406,0,0,1,5.4,5.4V269a5.405,5.405,0,0,1-5.4,5.4m-35.605-2.23h35.605A3.173,3.173,0,0,0,767.61,269v-1.455a3.173,3.173,0,0,0-3.169-3.169H728.835Z" transform="translate(-375.83 -135.591)" fill="#3d4451"/>
          <path id="Trazado_34749" data-name="Trazado 34749" d="M734.467,277.327h32.054a2.248,2.248,0,0,0,2.452-1.961V274.6a2.248,2.248,0,0,0-2.452-1.96H734.467" transform="translate(-379.896 -141.022)" fill="#c7ddeb"/>
          <path id="Trazado_34750" data-name="Trazado 34750" d="M720.865,322.961v.5a2.654,2.654,0,0,0,2.84,2.417H765.99a2.656,2.656,0,0,0,2.841-2.417v-.5a2.656,2.656,0,0,0-2.841-2.414H723.705a2.654,2.654,0,0,0-2.84,2.414" transform="translate(-372.861 -165.8)" fill="#c7ddeb"/>
          <path id="Trazado_34751" data-name="Trazado 34751" d="M764.671,323.616H717.918V308.647h46.753a6.689,6.689,0,0,1,6.682,6.682v1.606a6.689,6.689,0,0,1-6.682,6.682m-43.8-2.955h43.8a3.731,3.731,0,0,0,3.727-3.727v-1.606a3.731,3.731,0,0,0-3.727-3.727h-43.8Z" transform="translate(-371.336 -159.645)" fill="#3d4451"/>
          <rect id="Rectángulo_4866" data-name="Rectángulo 4866" width="2.744" height="9.786" transform="translate(384.502 127.937)" fill="#3d4451"/>
          <rect id="Rectángulo_4867" data-name="Rectángulo 4867" width="2.911" height="11.008" transform="translate(389.373 150.604)" fill="#3d4451"/>
          <path id="Trazado_34752" data-name="Trazado 34752" d="M724.175,299.354H765.2a4.865,4.865,0,0,0,4.865-4.866v-1.821A4.865,4.865,0,0,0,765.2,287.8h-41.02Z" transform="translate(-374.573 -148.863)" fill="#fff"/>
          <path id="Trazado_34753" data-name="Trazado 34753" d="M727.369,302.75H763.95a2.5,2.5,0,0,0,2.5-2.5v-.59a2.5,2.5,0,0,0-2.5-2.5H727.369a2.5,2.5,0,0,0-2.5,2.5v.59a2.5,2.5,0,0,0,2.5,2.5" transform="translate(-374.933 -153.706)" fill="#c7ddeb"/>
          <path id="Trazado_34754" data-name="Trazado 34754" d="M763.714,299.256h-42.4V284.941h42.4a6.254,6.254,0,0,1,6.247,6.247v1.821a6.254,6.254,0,0,1-6.247,6.247m-39.638-2.763h39.638a3.488,3.488,0,0,0,3.484-3.484v-1.821a3.488,3.488,0,0,0-3.484-3.485H724.076Z" transform="translate(-373.093 -147.383)" fill="#3d4451"/>
          <rect id="Rectángulo_4868" data-name="Rectángulo 4868" width="2.652" height="10.584" transform="translate(386.365 139.059)" fill="#3d4451"/>
          <path id="Trazado_34755" data-name="Trazado 34755" d="M769.034,275.615v22.669l-4.373-4.853L759.9,298.77V275.615Z" transform="translate(-393.05 -142.559)" fill="#f04f4c"/>
          <path id="Trazado_34756" data-name="Trazado 34756" d="M757.262,300.744V272.98h11.68v27.254l-5.64-6.26Zm2.544-25.22v18.546l3.487-3.908,3.105,3.446V275.525Z" transform="translate(-391.687 -141.196)" fill="#3d4451"/>
          <path id="Trazado_34757" data-name="Trazado 34757" d="M669.772,78.691a32.6,32.6,0,1,1,32.6,32.6,32.6,32.6,0,0,1-32.6-32.6" transform="translate(-346.433 -23.838)" fill="#f5fafc"/>
          <path id="Trazado_34758" data-name="Trazado 34758" d="M685.284,87.142c0-14.668,12.123-26.559,27.078-26.559S739.44,72.474,739.44,87.142,727.317,113.7,712.362,113.7s-27.078-11.891-27.078-26.559" transform="translate(-354.457 -31.336)" fill="#7eb9c7"/>
          <path id="Trazado_34759" data-name="Trazado 34759" d="M700.83,111.193a34.048,34.048,0,1,1,34.048-34.048,34.086,34.086,0,0,1-34.048,34.048m0-65.209a31.161,31.161,0,1,0,31.161,31.161A31.2,31.2,0,0,0,700.83,45.983" transform="translate(-344.887 -22.292)" fill="#3d4451"/>
          <path id="Trazado_34760" data-name="Trazado 34760" d="M745.471,48.683l-9.749,31.279,32.74-2.688s-2-22.244-22.991-28.591" transform="translate(-380.545 -25.181)" fill="#f04f4c"/>
          <path id="Trazado_34761" data-name="Trazado 34761" d="M732.19,79.7l10.648-34.165,1.16.35a32.628,32.628,0,0,1,20.109,17.306,38.592,38.592,0,0,1,3.746,12.345l.111,1.226Zm12.253-31.1L735.6,76.967l29.641-2.434c-.779-4.528-4.625-20.378-20.8-25.938" transform="translate(-378.719 -23.552)" fill="#3d4451"/>
          <path id="Trazado_34762" data-name="Trazado 34762" d="M734.963,111.817,765.951,124.4a27.51,27.51,0,0,0,2.749-15.309" transform="translate(-380.153 -56.425)" fill="#fdc345"/>
          <path id="Trazado_34763" data-name="Trazado 34763" d="M764.764,124.5l-33.1-13.437.919-2.264,31.071,12.614a27.707,27.707,0,0,0,2.122-13.641l-.111-1.217,2.433-.221.111,1.217a28.554,28.554,0,0,1-2.913,16.038Z" transform="translate(-378.448 -55.003)" fill="#3d4451"/>
          <line id="Línea_39" data-name="Línea 39" x2="38.308" transform="translate(400.387 31.3)" fill="#fff"/>
          <rect id="Rectángulo_4869" data-name="Rectángulo 4869" width="38.308" height="5.097" transform="translate(400.387 28.751)" fill="#3d4451"/>
          <line id="Línea_40" data-name="Línea 40" x2="38.308" transform="translate(400.387 52.065)" fill="#fff"/>
          <rect id="Rectángulo_4870" data-name="Rectángulo 4870" width="38.308" height="5.097" transform="translate(400.387 49.516)" fill="#3d4451"/>
          <line id="Línea_41" data-name="Línea 41" x2="38.308" transform="translate(400.387 72.829)" fill="#fff"/>
          <rect id="Rectángulo_4871" data-name="Rectángulo 4871" width="38.308" height="5.097" transform="translate(400.387 70.281)" fill="#3d4451"/>
          <path id="Trazado_34764" data-name="Trazado 34764" d="M1147.827,103.093h-25.9V108.7h-6.671v38.862h32.537v-11.81h.036Z" transform="translate(-576.855 -53.324)" fill="#c7ddeb"/>
          <path id="Trazado_34765" data-name="Trazado 34765" d="M1139.894,146.392H1104.2V104.663h8.819v2.868h-5.95v35.993h29.953v-4.8h2.868Z" transform="translate(-571.139 -54.136)" fill="#3d4451"/>
          <path id="Trazado_34766" data-name="Trazado 34766" d="M1159.786,125.547h-36.157V81.183l52.884.913-16.7,10.647Zm-33.289-2.868h30.423l.031-31.51,9.988-6.37-40.443-.7Z" transform="translate(-581.187 -41.991)" fill="#3d4451"/>
          <rect id="Rectángulo_4872" data-name="Rectángulo 4872" width="22.74" height="2.32" transform="translate(549.152 54.449)" fill="#3d4451"/>
          <rect id="Rectángulo_4873" data-name="Rectángulo 4873" width="22.74" height="2.32" transform="translate(549.152 61.249)" fill="#3d4451"/>
          <rect id="Rectángulo_4874" data-name="Rectángulo 4874" width="22.74" height="2.32" transform="translate(549.152 68.161)" fill="#3d4451"/>
          <rect id="Rectángulo_4875" data-name="Rectángulo 4875" width="6.55" height="7.946" transform="translate(549.867 41.963)" fill="#fdc345"/>
          <path id="Trazado_34767" data-name="Trazado 34767" d="M1145.479,94.789h-8.772V84.621h8.772Zm-6.55-2.222h4.328V86.844h-4.328Z" transform="translate(-587.951 -43.769)" fill="#3d4451"/>
          <path id="Trazado_34768" data-name="Trazado 34768" d="M974.867,259.444H954.14l-5.48-12.783v12.783H900.679c-.367-6.31-.826-12.619-1.2-18.919a56.549,56.549,0,0,0-1.582-12.074,21.065,21.065,0,0,0-4.353-8.419c-2.673-3-6.439-3.794-10.211-5.117q-9.33-3.28-18.67-6.561c-5.25-1.844-11.649-3.432-15.548-7.492a8.312,8.312,0,0,1-2.255-7.69,6.461,6.461,0,0,1,3.1-3.959,11.593,11.593,0,0,1,7.6-1.125c2.582.4,46.429,11.012,46.429,11.012,8.363-.5,23.227-.449,26.906-.449,8.716,0,16.772,4.128,22.829,9.839,6.511,6.126,9.328,15.366,12,23.419q4.57,13.766,9.139,27.537" transform="translate(-437.913 -97.192)" fill="#fff"/>
          <path id="Trazado_34769" data-name="Trazado 34769" d="M976.875,270.917l-18.722.02-4.962-10.864.012,10.869-43.34.047c-.338-5.364-.758-10.729-1.1-16.086a45.422,45.422,0,0,0-1.44-10.264,17.576,17.576,0,0,0-3.939-7.154c-2.418-2.55-5.821-3.22-9.228-4.341l-16.871-5.56c-4.745-1.563-10.526-2.907-14.051-6.356a6.8,6.8,0,0,1-2.044-6.537,5.557,5.557,0,0,1,2.794-3.369,11.051,11.051,0,0,1,6.866-.964c2.333.338,41.949,9.317,41.949,9.317,7.554-.431,20.98-.4,24.3-.408,7.873-.008,15.154,3.493,20.631,8.343,5.887,5.2,8.44,13.057,10.862,19.9q4.14,11.7,8.28,23.4" transform="translate(-445.336 -108.727)" fill="#7eb9c7"/>
          <path id="Trazado_34770" data-name="Trazado 34770" d="M975.487,259.305H950.7l-2.186-5.1v5.1H896.676l-.109-1.87c-.189-3.25-.406-6.558-.617-9.758-.2-3.055-.4-6.108-.582-9.16a55.048,55.048,0,0,0-1.511-11.655,19.023,19.023,0,0,0-3.922-7.633c-1.862-2.092-4.438-2.933-7.419-3.907-.652-.213-1.31-.428-1.968-.659L861.876,208.1c-.838-.294-1.706-.582-2.588-.874-4.746-1.574-10.125-3.358-13.734-7.116a10.227,10.227,0,0,1-2.74-9.579,8.421,8.421,0,0,1,4.011-5.157A13.55,13.55,0,0,1,855.739,184c2.538.394,40.634,9.6,46.3,10.974,7.883-.449,20.885-.44,25.819-.435h.907c8.5,0,17.093,3.686,24.191,10.379,6.55,6.163,9.51,15.12,12.121,23.022Zm-22.169-3.971h16.667l-8.676-26.147c-2.464-7.454-5.255-15.9-11.074-21.377-6.36-6-13.984-9.3-21.468-9.3h-.911c-4.965,0-18.148-.013-25.878.446l-.3.018-.288-.07c-17.593-4.257-44.433-10.695-46.267-10.979a9.617,9.617,0,0,0-6.294.875,4.477,4.477,0,0,0-2.183,2.756,6.334,6.334,0,0,0,1.77,5.807c2.926,3.048,7.6,4.6,12.118,6.1.9.3,1.794.6,2.654.9l18.671,6.561c.63.221,1.261.427,1.886.631,3.233,1.057,6.576,2.149,9.149,5.039a22.928,22.928,0,0,1,4.782,9.2,58.047,58.047,0,0,1,1.652,12.5c.18,3.04.38,6.085.58,9.131.171,2.6.346,5.263.508,7.918h44.125V234.866Z" transform="translate(-435.783 -95.067)" fill="#3d4451"/>
          <path id="Trazado_34771" data-name="Trazado 34771" d="M1011.084,225.594H997.738l4.8,7.576L998.8,254.89l5.873,8.586,6.407-8.586-4.271-21.719Z" transform="translate(-516.071 -116.687)" fill="#f04f4c"/>
          <path id="Trazado_34772" data-name="Trazado 34772" d="M1002.216,264.281l-7.137-10.435L998.82,232.1l-5.757-9.078h17.727l-5.089,9.028,4.289,21.81ZM997.7,253.275l4.608,6.738,5.039-6.754-4.253-21.629,3.453-6.125h-8.966l3.852,6.075Z" transform="translate(-513.653 -115.357)" fill="#3d4451"/>
          <path id="Trazado_34773" data-name="Trazado 34773" d="M988.68,160.563c-13.018.65-23.72-9.741-23.075-22.4.553-10.844,9.6-19.664,20.753-20.224,13.027-.655,23.738,9.744,23.085,22.411-.559,10.843-9.613,19.659-20.763,20.216" transform="translate(-499.436 -60.986)" fill="#fff"/>
          <path id="Trazado_34774" data-name="Trazado 34774" d="M988.68,160.563c-13.018.65-23.72-9.741-23.075-22.4.553-10.844,9.6-19.664,20.753-20.224,13.027-.655,23.738,9.744,23.085,22.411-.559,10.843-9.613,19.659-20.763,20.216" transform="translate(-499.436 -60.986)" fill="#fff"/>
          <path id="Trazado_34775" data-name="Trazado 34775" d="M984.861,160.412a24.8,24.8,0,0,1-17.539-7.206,23.317,23.317,0,0,1-6.907-17.859c.614-12.052,10.774-21.98,23.13-22.6a24.836,24.836,0,0,1,18.812,7.178,23.311,23.311,0,0,1,6.9,17.865c-.621,12.05-10.786,21.973-23.141,22.59q-.629.032-1.257.031m-.048-42.684q-.506,0-1.016.026c-9.819.493-17.891,8.333-18.375,17.849a18.361,18.361,0,0,0,5.446,14.061,19.811,19.811,0,0,0,15,5.711c9.818-.49,17.894-8.328,18.385-17.842a18.356,18.356,0,0,0-5.443-14.065,19.779,19.779,0,0,0-14-5.74" transform="translate(-496.75 -58.301)" fill="#3d4451"/>
          <path id="Trazado_34776" data-name="Trazado 34776" d="M994.63,168.346c-9.508.479-17.33-7.085-16.864-16.309a15.85,15.85,0,0,1,15.15-14.741c9.515-.483,17.344,7.087,16.871,16.315a15.853,15.853,0,0,1-15.157,14.735" transform="translate(-505.73 -71.004)" fill="#7eb9c7"/>
          <path id="Trazado_34777" data-name="Trazado 34777" d="M975.487,259.305H950.7l-2.186-5.1v5.1H896.676l-.109-1.87c-.189-3.25-.406-6.558-.617-9.758-.2-3.055-.4-6.108-.582-9.16a55.048,55.048,0,0,0-1.511-11.655,19.023,19.023,0,0,0-3.922-7.633c-1.862-2.092-4.438-2.933-7.419-3.907-.652-.213-1.31-.428-1.968-.659L861.876,208.1c-.838-.294-1.706-.582-2.588-.874-4.746-1.574-10.125-3.358-13.734-7.116a10.227,10.227,0,0,1-2.74-9.579,8.421,8.421,0,0,1,4.011-5.157A13.55,13.55,0,0,1,855.739,184c2.538.394,40.634,9.6,46.3,10.974,7.883-.449,20.885-.44,25.819-.435h.907c8.5,0,17.093,3.686,24.191,10.379,6.55,6.163,9.51,15.12,12.121,23.022Zm-22.169-3.971h16.667l-8.676-26.147c-2.464-7.454-5.255-15.9-11.074-21.377-6.36-6-13.984-9.3-21.468-9.3h-.911c-4.965,0-18.148-.013-25.878.446l-.3.018-.288-.07c-17.593-4.257-44.433-10.695-46.267-10.979a9.617,9.617,0,0,0-6.294.875,4.477,4.477,0,0,0-2.183,2.756,6.334,6.334,0,0,0,1.77,5.807c2.926,3.048,7.6,4.6,12.118,6.1.9.3,1.794.6,2.654.9l18.671,6.561c.63.221,1.261.427,1.886.631,3.233,1.057,6.576,2.149,9.149,5.039a22.928,22.928,0,0,1,4.782,9.2,58.047,58.047,0,0,1,1.652,12.5c.18,3.04.38,6.085.58,9.131.171,2.6.346,5.263.508,7.918h44.125V234.866Z" transform="translate(-435.783 -95.067)" fill="#3d4451"/>
          <path id="Trazado_34778" data-name="Trazado 34778" d="M39.158,135.909l10.88-3.367a1.5,1.5,0,0,0,1.018-1.088L53.7,120.375l3.366,10.88a1.5,1.5,0,0,0,1.088,1.018l11.079,2.639-10.88,3.366a1.5,1.5,0,0,0-1.018,1.088l-2.639,11.079-3.366-10.88a1.5,1.5,0,0,0-1.088-1.018Z" transform="translate(-20.254 -62.263)" fill="#fdc345"/>
          <path id="Trazado_34779" data-name="Trazado 34779" d="M49.892,150.115l-4.686-15.143a.283.283,0,0,0-.2-.192l-15.42-3.673,15.143-4.686a.284.284,0,0,0,.192-.205L48.589,110.8l4.685,15.143a.285.285,0,0,0,.205.192l15.42,3.672L53.757,134.49a.285.285,0,0,0-.192.205ZM38.828,130.8l6.739,1.605a2.733,2.733,0,0,1,1.971,1.845l2.048,6.618,1.605-6.739a2.735,2.735,0,0,1,1.845-1.971l6.618-2.047-6.739-1.605a2.736,2.736,0,0,1-1.971-1.845L48.9,120.044l-1.605,6.739a2.735,2.735,0,0,1-1.845,1.971Z" transform="translate(-15.301 -57.309)" fill="#3d4451"/>
          <path id="Trazado_34780" data-name="Trazado 34780" d="M1427.158,134.909l10.881-3.367a1.5,1.5,0,0,0,1.018-1.088l2.639-11.079,3.367,10.88a1.5,1.5,0,0,0,1.088,1.018l11.079,2.639-10.88,3.366a1.5,1.5,0,0,0-1.018,1.088l-2.639,11.079-3.366-10.88a1.5,1.5,0,0,0-1.088-1.018Z" transform="translate(-738.184 -61.746)" fill="#fdc345"/>
          <path id="Trazado_34781" data-name="Trazado 34781" d="M1437.892,149.115l-4.685-15.143a.286.286,0,0,0-.205-.192l-15.42-3.673,15.143-4.686a.284.284,0,0,0,.191-.2l3.673-15.42,4.685,15.143a.282.282,0,0,0,.2.192l15.42,3.673-15.143,4.685a.286.286,0,0,0-.192.2ZM1426.828,129.8l6.739,1.605a2.735,2.735,0,0,1,1.971,1.844l2.047,6.619,1.605-6.739a2.735,2.735,0,0,1,1.844-1.971l6.619-2.047-6.739-1.605a2.735,2.735,0,0,1-1.971-1.845l-2.048-6.618-1.605,6.739a2.734,2.734,0,0,1-1.845,1.971Z" transform="translate(-733.231 -56.792)" fill="#3d4451"/>
          <path id="Trazado_34782" data-name="Trazado 34782" d="M492.4,22.094c-14.785-.107-22.458,16.8-13.875,26.18,5.776,6.311,3.917,11.934,3.917,11.934h17.747c-2.08-6.623,1.349-8.6,2.4-10.3,11.284-12.346,3.611-27.71-10.191-27.81" transform="translate(-245.658 -11.428)" fill="#fff"/>
          <path id="Trazado_34783" data-name="Trazado 34783" d="M504.251,56.317c-.921,1.144-4.4,2.941-3.06,8.234h-9.466s.733-4.494-2.991-9.537c-3.691-5-3.4-13.046.954-17.559a10.773,10.773,0,0,1,7.992-3.362,11.438,11.438,0,0,1,5.385,1.514,10.894,10.894,0,0,1,5.083,7.293,16.433,16.433,0,0,1-1.33,9.907,21.393,21.393,0,0,1-2.543,3.541" transform="translate(-251.47 -17.632)" fill="#fdc345"/>
          <path id="Trazado_34784" data-name="Trazado 34784" d="M500.186,60.139H479.717l.431-1.3c.065-.2,1.568-5.191-3.707-10.954a16.1,16.1,0,0,1-2.718-17.377c2.885-6.552,9.362-10.463,17.324-10.463,6.03,0,11.9,4.131,14.613,10.28,2.853,6.471,1.528,13.438-3.63,19.125a10.51,10.51,0,0,1-.815,1.043c-1.32,1.554-2.963,3.486-1.432,8.361Zm-17.894-1.982h15.245c-1.164-5.032.9-7.457,2.165-8.95a8.247,8.247,0,0,0,.691-.882l.112-.149c4.654-5.093,5.871-11.308,3.339-17.053-2.361-5.357-7.624-9.1-12.8-9.1-7.153,0-12.951,3.469-15.51,9.28a13.943,13.943,0,0,0,2.367,15.24c4.492,4.908,4.65,9.456,4.389,11.612" transform="translate(-244.301 -10.367)" fill="#3d4451"/>
          <path id="Trazado_34785" data-name="Trazado 34785" d="M496.451,78.639c0-5.182.241-10.457-.2-15.626-.151-1.761-2.026-4.763-4.055-2.715-1.674,1.69.534,4.387,2.161,4.987a5.752,5.752,0,0,0,6.962-2.316c.85-1.455,1.37-4.619-1.19-4.531-2.466.084-3.679,3.133-2.461,5.07,1.329,2.115,4.407,2.742,6.693,2.227,1.834-.413,4.9-2.124,3.566-4.438-1.49-2.578-4.994-1.011-5.81,1.226-.781,2.142-.326,4.981-.265,7.211.085,3.1.246,6.2.379,9.3.038.883,1.415.888,1.377,0-.186-4.335-.445-8.673-.437-13.013q-.007-.866.02-1.732-.084-3.4,2.764-.69c-.207.468-1.52.717-1.962.811a5.8,5.8,0,0,1-2.937-.141c-1.052-.328-3.685-1.831-2.293-3.46q2.533-1.29,1.763.593l-.4.875a3.886,3.886,0,0,1-3.5,1.963c-.623,0-3.575-.348-3.31-1.515q1.92-1.454,1.572.616.046.956.078,1.913c.152,4.461.109,8.925.1,13.387a.689.689,0,0,0,1.378,0" transform="translate(-254.274 -30.226)" fill="#3d4451"/>
          <path id="Trazado_34786" data-name="Trazado 34786" d="M507.639,105.776h-20.3a1.612,1.612,0,0,1-1.608-1.608v-.941a1.613,1.613,0,0,1,1.608-1.609h20.3a1.613,1.613,0,0,1,1.608,1.609v.941a1.612,1.612,0,0,1-1.608,1.608" transform="translate(-251.242 -52.561)" fill="#7eb9c7"/>
          <path id="Trazado_34787" data-name="Trazado 34787" d="M506.71,105.714h-20.3a2.478,2.478,0,0,1-2.475-2.475V102.3a2.478,2.478,0,0,1,2.475-2.476h20.3a2.478,2.478,0,0,1,2.475,2.476v.941a2.478,2.478,0,0,1-2.475,2.475m-20.3-4.158a.742.742,0,0,0-.741.741v.941a.742.742,0,0,0,.741.741h20.3a.742.742,0,0,0,.741-.741V102.3a.742.742,0,0,0-.741-.741Z" transform="translate(-250.313 -51.632)" fill="#3d4451"/>
          <path id="Trazado_34788" data-name="Trazado 34788" d="M507.126,113.875h-20.3a1.613,1.613,0,0,1-1.608-1.609v-.941a1.613,1.613,0,0,1,1.608-1.608h20.3a1.613,1.613,0,0,1,1.608,1.608v.941a1.613,1.613,0,0,1-1.608,1.609" transform="translate(-250.977 -56.75)" fill="#7eb9c7"/>
          <path id="Trazado_34789" data-name="Trazado 34789" d="M506.2,113.814H485.9a2.478,2.478,0,0,1-2.475-2.476V110.4a2.478,2.478,0,0,1,2.475-2.476h20.3a2.478,2.478,0,0,1,2.475,2.476v.941a2.478,2.478,0,0,1-2.475,2.476m-20.3-4.158a.742.742,0,0,0-.741.741v.941a.742.742,0,0,0,.741.741h20.3a.742.742,0,0,0,.741-.741V110.4a.742.742,0,0,0-.741-.741Z" transform="translate(-250.048 -55.821)" fill="#3d4451"/>
        </g>
      </g>
    </g>
  </g>
</svg>
