<svg xmlns="http://www.w3.org/2000/svg" xmlns:xlink="http://www.w3.org/1999/xlink" width="297" height="275.894" viewBox="0 0 297 275.894">
  <defs>
    <linearGradient id="linear-gradient" x1="275.959" y1="-82.475" x2="277.483" y2="-79.787" gradientUnits="objectBoundingBox">
      <stop offset="0" stop-color="#f57fa3"/>
      <stop offset="1" stop-color="#ef2a66"/>
    </linearGradient>
    <linearGradient id="linear-gradient-2" x1="0.489" y1="0.119" x2="0.539" y2="1.908" xlink:href="#linear-gradient"/>
    <linearGradient id="linear-gradient-3" x1="0.555" y1="0.45" x2="1.218" y2="-0.175" xlink:href="#linear-gradient"/>
    <linearGradient id="linear-gradient-4" x1="1.271" y1="-0.401" x2="-1.502" y2="2.852" xlink:href="#linear-gradient"/>
    <linearGradient id="linear-gradient-5" x1="0.04" y1="1.595" x2="0.639" y2="0.173" gradientUnits="objectBoundingBox">
      <stop offset="0" stop-color="#cb236d"/>
      <stop offset="0.07" stop-color="#b5abdb"/>
      <stop offset="1" stop-color="#6c58b8"/>
    </linearGradient>
    <linearGradient id="linear-gradient-6" x1="-170.245" y1="-183.675" x2="-171.098" y2="-182.252" xlink:href="#linear-gradient-5"/>
    <linearGradient id="linear-gradient-7" x1="5.282" y1="6.836" x2="6.283" y2="6.836" gradientUnits="objectBoundingBox">
      <stop offset="0" stop-color="#53d8ff"/>
      <stop offset="1" stop-color="#3840f7"/>
    </linearGradient>
    <linearGradient id="linear-gradient-8" x1="115.393" y1="1.17" x2="139.391" y2="1.17" xlink:href="#linear-gradient-7"/>
    <linearGradient id="linear-gradient-9" x1="7.502" y1="7.342" x2="8.504" y2="7.342" xlink:href="#linear-gradient-7"/>
    <linearGradient id="linear-gradient-10" x1="3.164" y1="1.478" x2="4.17" y2="1.478" xlink:href="#linear-gradient-7"/>
    <linearGradient id="linear-gradient-11" x1="64.529" y1="1.396" x2="64.713" y2="1.396" xlink:href="#linear-gradient-7"/>
    <linearGradient id="linear-gradient-12" x1="127.418" y1="2.583" x2="127.782" y2="2.583" xlink:href="#linear-gradient-7"/>
    <linearGradient id="linear-gradient-13" x1="125.722" y1="1.79" x2="126.429" y2="1.79" xlink:href="#linear-gradient-7"/>
    <linearGradient id="linear-gradient-14" x1="143.89" y1="2.797" x2="144.301" y2="2.797" xlink:href="#linear-gradient-7"/>
    <linearGradient id="linear-gradient-15" x1="0.361" y1="0.498" x2="0.641" y2="0.501" xlink:href="#linear-gradient-7"/>
    <linearGradient id="linear-gradient-16" x1="0.235" y1="0.45" x2="0.671" y2="0.492" xlink:href="#linear-gradient-7"/>
    <linearGradient id="linear-gradient-17" x1="0" y1="0.057" x2="1.014" y2="0.955" xlink:href="#linear-gradient-7"/>
    <linearGradient id="linear-gradient-18" x1="-23.698" y1="-1.474" x2="1.152" y2="0.573" xlink:href="#linear-gradient-7"/>
    <linearGradient id="linear-gradient-19" x1="253.148" y1="0.5" x2="254.148" y2="0.5" gradientUnits="objectBoundingBox">
      <stop offset="0" stop-color="#2b3582"/>
      <stop offset="1" stop-color="#150e42"/>
    </linearGradient>
    <linearGradient id="linear-gradient-20" x1="259.852" y1="-12.983" x2="256.155" y2="11.155" xlink:href="#linear-gradient-7"/>
    <linearGradient id="linear-gradient-21" x1="163.565" y1="-4.127" x2="161.115" y2="1.101" xlink:href="#linear-gradient-7"/>
    <linearGradient id="linear-gradient-22" x1="660.994" y1="-2.1" x2="656.022" y2="5.431" gradientUnits="objectBoundingBox">
      <stop offset="0" stop-color="#fdf53f"/>
      <stop offset="1" stop-color="#d93c65"/>
    </linearGradient>
    <linearGradient id="linear-gradient-23" x1="1135.862" y1="-8.41" x2="1131.362" y2="0.997" xlink:href="#linear-gradient-7"/>
    <linearGradient id="linear-gradient-24" x1="189.894" y1="0.5" x2="190.894" y2="0.5" gradientUnits="objectBoundingBox">
      <stop offset="0" stop-color="#f9b776"/>
      <stop offset="1" stop-color="#f47960"/>
    </linearGradient>
    <linearGradient id="linear-gradient-25" x1="671.125" y1="-0.844" x2="670.619" y2="2.391" xlink:href="#linear-gradient-24"/>
    <linearGradient id="linear-gradient-26" x1="176.303" y1="-5.403" x2="173.787" y2="17.725" xlink:href="#linear-gradient-7"/>
    <linearGradient id="linear-gradient-27" x1="175.897" y1="0.5" x2="176.897" y2="0.5" xlink:href="#linear-gradient-19"/>
    <linearGradient id="linear-gradient-28" x1="682.233" y1="-0.226" x2="681.719" y2="2.542" xlink:href="#linear-gradient-24"/>
    <linearGradient id="linear-gradient-29" x1="103.205" y1="-0.312" x2="100.758" y2="1.239" xlink:href="#linear-gradient-19"/>
    <linearGradient id="linear-gradient-30" x1="42.004" y1="-0.048" x2="41.075" y2="2.024" gradientUnits="objectBoundingBox">
      <stop offset="0" stop-color="#f25585"/>
      <stop offset="1" stop-color="#b3204d"/>
    </linearGradient>
    <linearGradient id="linear-gradient-31" x1="334.746" y1="-0.138" x2="332.997" y2="1.017" xlink:href="#linear-gradient-24"/>
    <linearGradient id="linear-gradient-32" x1="379.51" y1="0.257" x2="377.52" y2="2.087" xlink:href="#linear-gradient-24"/>
    <linearGradient id="linear-gradient-33" x1="284.721" y1="-0.222" x2="283.903" y2="2.967" xlink:href="#linear-gradient-24"/>
    <linearGradient id="linear-gradient-34" x1="-45.314" y1="-91.885" x2="-46.386" y2="-90.603" xlink:href="#linear-gradient-24"/>
    <linearGradient id="linear-gradient-35" x1="-32.481" y1="-60.51" x2="-31.574" y2="-60.51" xlink:href="#linear-gradient-19"/>
    <linearGradient id="linear-gradient-36" x1="-133.747" y1="-304.136" x2="-131.291" y2="-306.785" xlink:href="#linear-gradient-24"/>
    <linearGradient id="linear-gradient-37" x1="1409.51" y1="-0.964" x2="1401.14" y2="1.467" xlink:href="#linear-gradient"/>
    <linearGradient id="linear-gradient-38" x1="457.453" y1="-0.867" x2="456.53" y2="0.839" xlink:href="#linear-gradient-19"/>
    <linearGradient id="linear-gradient-39" x1="915.375" y1="-1.058" x2="900.475" y2="4.254" xlink:href="#linear-gradient-19"/>
    <linearGradient id="linear-gradient-40" x1="105.093" y1="-33.061" x2="103.389" y2="55.422" xlink:href="#linear-gradient-19"/>
    <linearGradient id="linear-gradient-41" x1="83.535" y1="-2.999" x2="82.181" y2="15.391" xlink:href="#linear-gradient-19"/>
    <linearGradient id="linear-gradient-42" x1="126.19" y1="0.5" x2="127.191" y2="0.5" xlink:href="#linear-gradient-24"/>
    <linearGradient id="linear-gradient-43" x1="175.409" y1="0.006" x2="175.205" y2="3.202" xlink:href="#linear-gradient"/>
    <linearGradient id="linear-gradient-44" x1="59.134" y1="0.5" x2="60.133" y2="0.5" xlink:href="#linear-gradient-24"/>
    <linearGradient id="linear-gradient-45" x1="54.33" y1="2.213" x2="54.491" y2="0.817" gradientUnits="objectBoundingBox">
      <stop offset="0" stop-color="#a737d5"/>
      <stop offset="1" stop-color="#ef497a"/>
    </linearGradient>
    <linearGradient id="linear-gradient-46" x1="133.884" y1="-2.155" x2="133.725" y2="6.267" xlink:href="#linear-gradient"/>
    <linearGradient id="linear-gradient-47" x1="125.109" y1="0.171" x2="125.729" y2="1.621" gradientUnits="objectBoundingBox">
      <stop offset="0" stop-color="#ef2a66"/>
      <stop offset="1" stop-color="#472ea6"/>
    </linearGradient>
    <linearGradient id="linear-gradient-48" x1="278.736" y1="1.885" x2="278.506" y2="0.326" xlink:href="#linear-gradient-24"/>
    <linearGradient id="linear-gradient-49" x1="175.042" y1="0.3" x2="176.325" y2="1.092" xlink:href="#linear-gradient-24"/>
    <linearGradient id="linear-gradient-50" x1="160.964" y1="-0.704" x2="159.015" y2="0.923" xlink:href="#linear-gradient-19"/>
    <linearGradient id="linear-gradient-51" x1="637.284" y1="-0.903" x2="641.951" y2="1.648" xlink:href="#linear-gradient-24"/>
    <linearGradient id="linear-gradient-52" x1="65.269" y1="0.5" x2="66.269" y2="0.5" xlink:href="#linear-gradient-24"/>
    <linearGradient id="linear-gradient-53" x1="114.322" y1="-0.179" x2="112.956" y2="0.949" xlink:href="#linear-gradient-19"/>
    <linearGradient id="linear-gradient-54" x1="69.502" y1="17.442" x2="68.766" y2="19.878" xlink:href="#linear-gradient-19"/>
    <linearGradient id="linear-gradient-55" x1="56.955" y1="0.134" x2="56.555" y2="0.8" xlink:href="#linear-gradient-19"/>
    <linearGradient id="linear-gradient-56" x1="569.199" y1="-0.3" x2="567.359" y2="1.58" xlink:href="#linear-gradient-7"/>
  </defs>
  <g id="Grupo_55216" data-name="Grupo 55216" transform="translate(-265 -994.442)">
    <g id="CF1_planear" transform="translate(254.193 968.132)">
      <g id="Grupo_55185" data-name="Grupo 55185" transform="translate(29.011 26.31)">
        <g id="Grupo_55159" data-name="Grupo 55159" transform="translate(0)">
          <path id="Trazado_111183" data-name="Trazado 111183" d="M99.461,26.335h0a2.592,2.592,0,0,0-2.617,2.42q-.148,2.328-.246,4.668a2.5,2.5,0,0,0,2.506,2.6h0a47.594,47.594,0,1,1-38.881,20.2c-2.7-1.632-5.345-3.368-8.116-4.926A57.354,57.354,0,1,0,99.461,26.31Z" transform="translate(-41.035 -26.31)" fill="#b5abdb"/>
          <path id="Trazado_111184" data-name="Trazado 111184" d="M43.356,62.226c3.892-1.595,15.746-5.912,18.018-6.737a.3.3,0,0,1,.4.265L62.79,75.946a2.636,2.636,0,0,1-.985,2.2L57.2,81.839a.3.3,0,0,1-.474-.16L53.184,67.4a.3.3,0,0,0-.413-.2L41.909,72.042a1.1,1.1,0,0,1-1.484-1.349L43.184,62.4A.308.308,0,0,1,43.356,62.226Z" transform="translate(-40.369 -37.515)" fill="#b5abdb"/>
          <path id="Trazado_111185" data-name="Trazado 111185" d="M116.892,198.577a55.291,55.291,0,0,1-29.558-8.51.222.222,0,0,1-.074-.3.228.228,0,0,1,.308-.074,54.983,54.983,0,0,0,68.722-8.2.222.222,0,1,1,.314.308,55.3,55.3,0,0,1-39.737,16.774Z" transform="translate(-58.373 -85.901)" fill="#b5abdb"/>
          <path id="Trazado_111186" data-name="Trazado 111186" d="M204.512,172.072a.246.246,0,0,1-.142-.049.228.228,0,0,1,0-.314,55.277,55.277,0,0,0,4.778-6.792.222.222,0,1,1,.376.228,55.456,55.456,0,0,1-4.84,6.872.228.228,0,0,1-.172.055Z" transform="translate(-103.357 -79.514)" fill="#b5abdb"/>
          <path id="Trazado_111187" data-name="Trazado 111187" d="M213.954,158.587a.209.209,0,0,1-.1-.031.216.216,0,0,1-.086-.3,54.436,54.436,0,0,0,2.87-6.1.222.222,0,1,1,.413.166,56.363,56.363,0,0,1-2.894,6.158.228.228,0,0,1-.2.1Z" transform="translate(-106.979 -74.612)" fill="#b5abdb"/>
          <path id="Trazado_111188" data-name="Trazado 111188" d="M46.031,64.211a.228.228,0,0,1-.209-.142.222.222,0,0,1,.135-.283l15.77-5.795a.223.223,0,0,1,.154.419L46.105,64.2a.154.154,0,0,1-.074.012Z" transform="translate(-42.459 -38.477)" fill="#b5abdb"/>
        </g>
        <g id="Grupo_55184" data-name="Grupo 55184" transform="translate(14.189 11.115)">
          <g id="Grupo_55163" data-name="Grupo 55163" transform="translate(0 26.239)">
            <g id="Grupo_55160" data-name="Grupo 55160" opacity="0.64">
              <path id="Trazado_111189" data-name="Trazado 111189" d="M65.51,143.045a.48.48,0,0,1-.462-.345c-.074-.246-.142-.5-.209-.751a.48.48,0,1,1,.93-.24c.062.24.129.48.2.727a.48.48,0,0,1-.326.616Z" transform="translate(-63.952 -107.859)" fill="#fff"/>
              <path id="Trazado_111190" data-name="Trazado 111190" d="M64.235,118.929a.474.474,0,0,1-.474-.406c-.086-.523-.154-1.053-.209-1.583a.48.48,0,0,1,.431-.523.474.474,0,0,1,.523.431c.055.5.123,1.016.2,1.521a.48.48,0,0,1-.4.554Zm-.345-4.1a.486.486,0,0,1-.48-.474v-.172c0-.468,0-.948.037-1.422a.481.481,0,1,1,.961.049c0,.456-.037.918-.037,1.373v.166a.474.474,0,0,1-.474.48Zm.289-4.095h-.074a.48.48,0,0,1-.4-.548c.074-.523.166-1.053.277-1.57a.48.48,0,0,1,.936.2c-.1.5-.191,1.01-.265,1.515a.48.48,0,0,1-.474.406Zm.905-4.009a.573.573,0,0,1-.142,0,.486.486,0,0,1-.32-.616c.16-.5.333-1.016.517-1.515a.48.48,0,1,1,.9.339q-.271.72-.5,1.459a.48.48,0,0,1-.456.333ZM66.6,102.9a.5.5,0,0,1-.209-.049.48.48,0,0,1-.222-.616c.234-.48.48-.954.745-1.416a.474.474,0,0,1,.653-.179.48.48,0,0,1,.179.653c-.252.443-.493.905-.714,1.361a.48.48,0,0,1-.431.246Zm2.1-3.547a.462.462,0,0,1-.277-.086.474.474,0,0,1-.117-.665c.3-.437.616-.868.948-1.281a.488.488,0,0,1,.757.616c-.32.4-.616.819-.918,1.232A.474.474,0,0,1,68.7,99.353Zm2.6-3.177a.468.468,0,0,1-.333-.135.48.48,0,0,1,0-.677c.363-.382.745-.757,1.133-1.121a.48.48,0,1,1,.653.7c-.369.351-.739.714-1.1,1.084a.474.474,0,0,1-.369.148Zm3.079-2.746a.48.48,0,0,1-.3-.862c.425-.32.856-.616,1.293-.93a.481.481,0,0,1,.542.794c-.425.283-.844.616-1.232.9a.468.468,0,0,1-.339.1Zm3.442-2.248a.468.468,0,0,1-.419-.246.48.48,0,0,1,.185-.653c.468-.252.942-.5,1.422-.727a.481.481,0,1,1,.413.868c-.462.222-.924.456-1.373.7a.5.5,0,0,1-.259.055Zm25.21-.234a.474.474,0,0,1-.222-.055c-.456-.234-.918-.462-1.386-.671a.48.48,0,0,1,.394-.874c.486.216.967.45,1.435.7a.48.48,0,0,1-.222.905Zm-21.5-1.453a.48.48,0,0,1-.16-.936c.493-.179,1-.345,1.509-.493a.474.474,0,0,1,.616.32.48.48,0,0,1-.32.616c-.493.148-.985.308-1.459.48a.53.53,0,0,1-.185.012Zm17.685-.166a.474.474,0,0,1-.154,0c-.48-.166-.979-.314-1.472-.45a.483.483,0,0,1,.259-.93c.511.142,1.022.3,1.521.468a.48.48,0,0,1,.3.616A.474.474,0,0,1,99.224,89.328ZM85.5,88.4a.486.486,0,0,1-.474-.388.48.48,0,0,1,.382-.56c.523-.1,1.053-.191,1.576-.259a.48.48,0,1,1,.123.948c-.5.068-1.016.154-1.515.252Zm9.742-.086h-.062c-.5-.086-1.016-.16-1.527-.222a.48.48,0,1,1,.111-.954c.53.062,1.059.142,1.583.228a.48.48,0,0,1-.086.954Zm-5.659-.382a.48.48,0,1,1,0-.961h1.595a.486.486,0,0,1,.474.486.493.493,0,0,1-.493.474H89.618Z" transform="translate(-63.41 -86.97)" fill="#fff"/>
              <path id="Trazado_111191" data-name="Trazado 111191" d="M131.647,95.373a.505.505,0,0,1-.277-.086l-.616-.419a.486.486,0,0,1-.142-.665.48.48,0,0,1,.665-.142l.647.437a.48.48,0,0,1-.277.874Z" transform="translate(-89.201 -89.665)" fill="#fff"/>
            </g>
            <g id="Grupo_55161" data-name="Grupo 55161" transform="translate(10.501 21.37)" opacity="0.64">
              <path id="Trazado_111192" data-name="Trazado 111192" d="M149.964,123.39a.486.486,0,0,1-.474-.4c-.037-.246-.086-.493-.135-.739a.481.481,0,1,1,.942-.191c.049.252.1.511.142.77a.48.48,0,0,1-.388.554Z" transform="translate(-106.928 -121.674)" fill="#fff"/>
              <path id="Trazado_111193" data-name="Trazado 111193" d="M98.392,156.706h0a10.618,10.618,0,0,1-1.4-.062h-.172a.468.468,0,0,1-.437-.511.48.48,0,0,1,.511-.443h.166c.443.031.9.049,1.349.055a.48.48,0,0,1,.468.493.474.474,0,0,1-.486.468Zm2.5-.068a.481.481,0,1,1-.037-.961c.5-.037,1.01-.092,1.509-.154a.48.48,0,0,1,.542.413.486.486,0,0,1-.413.536c-.517.068-1.041.123-1.564.166Zm-6.533-.308h-.08c-.517-.086-1.035-.191-1.539-.308a.474.474,0,0,1-.357-.573.48.48,0,0,1,.573-.363c.486.117.985.216,1.484.3a.487.487,0,0,1,.394.554A.474.474,0,0,1,94.359,156.33Zm10.536-.3a.474.474,0,0,1-.468-.369.48.48,0,0,1,.357-.579c.493-.111.985-.24,1.466-.382a.48.48,0,1,1,.271.918c-.5.148-1.01.283-1.521.4Zm-14.459-.671a.616.616,0,0,1-.154,0c-.493-.166-.991-.345-1.478-.542a.481.481,0,1,1,.357-.893c.468.191.942.363,1.422.523a.48.48,0,0,1,.308.616A.486.486,0,0,1,90.437,155.358Zm18.32-.536a.48.48,0,0,1-.179-.93c.462-.185.93-.388,1.386-.616a.474.474,0,0,1,.616.228.486.486,0,0,1-.234.616c-.468.222-.954.431-1.441.616A.438.438,0,0,1,108.756,154.822ZM86.7,153.793a.449.449,0,0,1-.216-.055c-.468-.234-.93-.493-1.379-.751a.48.48,0,0,1-.166-.659.474.474,0,0,1,.653-.172c.437.252.881.5,1.33.727a.48.48,0,0,1-.222.911Zm25.684-.757a.474.474,0,0,1-.413-.234.48.48,0,0,1,.172-.659c.431-.252.862-.523,1.281-.8a.474.474,0,0,1,.665.129.48.48,0,0,1-.129.665c-.437.289-.881.573-1.33.837A.5.5,0,0,1,112.383,153.036Zm3.325-2.3a.486.486,0,0,1-.376-.179.48.48,0,0,1,.074-.677c.388-.314.776-.647,1.145-.985a.48.48,0,1,1,.647.708c-.382.351-.782.7-1.188,1.022a.48.48,0,0,1-.271.111Zm2.937-2.783a.443.443,0,0,1-.32-.123.48.48,0,0,1-.037-.677c.339-.369.671-.757.991-1.152a.483.483,0,1,1,.745.616c-.333.406-.671.807-1.022,1.195A.487.487,0,0,1,118.646,147.95Zm2.463-3.19a.462.462,0,0,1-.265-.08.48.48,0,0,1-.135-.665c.277-.419.548-.85.8-1.287a.486.486,0,0,1,.659-.172.48.48,0,0,1,.172.659c-.265.45-.542.9-.831,1.33a.474.474,0,0,1-.376.216Zm1.977-3.528a.616.616,0,0,1-.2-.043.486.486,0,0,1-.234-.616c.216-.456.413-.924.616-1.392a.486.486,0,0,1,.616-.271.474.474,0,0,1,.265.616c-.191.486-.4.973-.616,1.447a.486.486,0,0,1-.4.259Zm1.416-3.793h-.129a.48.48,0,0,1-.333-.616c.142-.48.271-.973.382-1.466a.474.474,0,0,1,.573-.357.48.48,0,0,1,.363.573c-.117.5-.246,1.016-.394,1.521a.48.48,0,0,1-.437.351Zm.825-3.959h-.062a.48.48,0,0,1-.413-.536c.068-.5.117-1,.154-1.509a.48.48,0,0,1,.511-.443.486.486,0,0,1,.45.517c-.043.517-.092,1.041-.16,1.558a.487.487,0,0,1-.456.413Zm.265-4.04a.48.48,0,0,1-.48-.468c0-.5-.037-1.016-.074-1.515a.48.48,0,0,1,.443-.517.474.474,0,0,1,.511.443c.043.517.068,1.047.08,1.57a.48.48,0,0,1-.474.486Z" transform="translate(-82.156 -123.697)" fill="#fff"/>
              <path id="Trazado_111194" data-name="Trazado 111194" d="M81.545,166.216a.486.486,0,0,1-.283-.092l-.616-.468a.49.49,0,1,1,.616-.764c.2.154.4.3.616.45a.48.48,0,0,1-.277.874Z" transform="translate(-80.463 -138.238)" fill="#fff"/>
            </g>
            <g id="Grupo_55162" data-name="Grupo 55162" transform="translate(6.52 6.249)">
              <path id="Trazado_111195" data-name="Trazado 111195" d="M80.256,132.656a.314.314,0,0,0,.357.092l3.695-1.342a16.989,16.989,0,0,0,4.822,2.586l.893,3.8a.314.314,0,0,0,.277.24l4.661.474a.32.32,0,0,0,.32-.185l1.638-3.541a16.971,16.971,0,0,0,5.277-1.589l3.319,2.057a.314.314,0,0,0,.369,0l3.627-2.962a.314.314,0,0,0,.1-.357l-1.349-3.695a16.835,16.835,0,0,0,2.611-4.852l3.8-.893a.314.314,0,0,0,.246-.277l.474-4.661a.32.32,0,0,0-.185-.32l-3.541-1.638a17.137,17.137,0,0,0-1.589-5.277L112.135,107a.326.326,0,0,0,0-.369L109.173,103a.314.314,0,0,0-.357-.1l-3.695,1.349a17.014,17.014,0,0,0-4.852-2.617l-.893-3.793a.314.314,0,0,0-.277-.246l-4.661-.474a.333.333,0,0,0-.326.185l-1.638,3.572a17.137,17.137,0,0,0-5.277,1.589l-3.319-2.057a.326.326,0,0,0-.369,0l-3.633,2.962a.314.314,0,0,0-.092.357l1.342,3.695a17.149,17.149,0,0,0-2.611,4.852l-3.8.893a.314.314,0,0,0-.24.277L74,118.1a.32.32,0,0,0,.185.32l3.541,1.638a16.971,16.971,0,0,0,1.589,5.277l-2.057,3.319a.314.314,0,0,0,0,.369Z" transform="translate(-73.998 -97.118)" fill="url(#linear-gradient)"/>
              <path id="Trazado_111196" data-name="Trazado 111196" d="M104.75,132.483a4.545,4.545,0,1,1,.671-.049A4.928,4.928,0,0,1,104.75,132.483Zm0-8.319a3.467,3.467,0,0,0-.554.043,3.756,3.756,0,1,0,.554-.043Z" transform="translate(-84.058 -107.216)" fill="#fff"/>
              <path id="Trazado_111197" data-name="Trazado 111197" d="M100.554,134.926a10.718,10.718,0,0,1-1.17-.062,11.53,11.53,0,0,1-1.718-.3h-.3l-.228-.068-.129-.043a.191.191,0,0,1-.135-.185.092.092,0,0,1,0-.055.185.185,0,0,1,.24-.123,11.294,11.294,0,0,0,2.315.48,11.084,11.084,0,0,0,12.168-9.926c.037-.382.055-.757.055-1.133A11.1,11.1,0,0,0,89.482,122.4q-.055.56-.055,1.127a11.087,11.087,0,0,0,1.048,4.707.216.216,0,0,1,0,.084.2.2,0,0,1-.111.172.191.191,0,0,1-.252-.092,11.5,11.5,0,0,1-1.09-4.871,7.375,7.375,0,0,1,.062-1.164A11.491,11.491,0,0,1,112,123.51a8.316,8.316,0,0,1-.055,1.17,11.5,11.5,0,0,1-11.392,10.247Z" transform="translate(-79.77 -102.781)" fill="#fff"/>
            </g>
          </g>
          <g id="Grupo_55167" data-name="Grupo 55167" transform="translate(47.526 6.509)">
            <path id="Trazado_111198" data-name="Trazado 111198" d="M149.82,80.3l1.989-.911a9.674,9.674,0,0,0,2.82,1.232l.671,2.088a.172.172,0,0,0,.166.123l2.623.055a.179.179,0,0,0,.172-.117l.757-2.051a9.385,9.385,0,0,0,2.876-1.09l1.946,1a.191.191,0,0,0,.2,0l1.9-1.847a.179.179,0,0,0,.037-.2l-.911-2.032a9.637,9.637,0,0,0,1.232-2.826l2.081-.665a.185.185,0,0,0,.123-.166l.055-2.623a.172.172,0,0,0-.117-.172l-2.051-.757a9.544,9.544,0,0,0-1.121-2.876l1-1.946a.185.185,0,0,0,0-.209l-1.817-1.89a.185.185,0,0,0-.2-.043l-1.989.918a9.637,9.637,0,0,0-2.826-1.232l-.69-2.075a.179.179,0,0,0-.166-.123l-2.623-.055a.166.166,0,0,0-.172.117l-.733,2.051a9.385,9.385,0,0,0-2.876,1.121l-1.946-1a.185.185,0,0,0-.209,0l-1.89,1.817a.179.179,0,0,0-.043.2L149,66.1a9.514,9.514,0,0,0-1.232,2.82l-2.081.671a.179.179,0,0,0-.123.166l-.055,2.623a.172.172,0,0,0,.117.172l2.032.788a9.385,9.385,0,0,0,1.121,2.876l-1,1.946a.166.166,0,0,0,0,.2l1.847,1.9A.166.166,0,0,0,149.82,80.3Z" transform="translate(-142.48 -56.805)" fill="url(#linear-gradient-2)"/>
            <path id="Trazado_111199" data-name="Trazado 111199" d="M162.633,79.505a2.53,2.53,0,1,1,.56-.068A2.26,2.26,0,0,1,162.633,79.505Zm0-4.661a2.137,2.137,0,1,0,2.131,1.975,2.137,2.137,0,0,0-2.131-1.975Z" transform="translate(-148.088 -62.436)" fill="#fff" opacity="0.56"/>
            <g id="Grupo_55166" data-name="Grupo 55166">
              <g id="Grupo_55164" data-name="Grupo 55164" opacity="0.64">
                <path id="Trazado_111200" data-name="Trazado 111200" d="M144.558,90.852a.487.487,0,0,1-.406-.222c-.142-.216-.283-.443-.413-.671a.48.48,0,0,1,.172-.659.486.486,0,0,1,.659.172,6.585,6.585,0,0,0,.388.616.486.486,0,0,1-.142.665A.511.511,0,0,1,144.558,90.852Z" transform="translate(-141.774 -68.111)" fill="#fff"/>
                <path id="Trazado_111201" data-name="Trazado 111201" d="M141.957,74.869a.48.48,0,0,1-.45-.314,14.61,14.61,0,0,1-.456-1.447.493.493,0,0,1,.345-.616.48.48,0,0,1,.585.351,12.583,12.583,0,0,0,.425,1.342.486.486,0,0,1-.283.616A.529.529,0,0,1,141.957,74.869Zm-.837-3.738a.487.487,0,0,1-.48-.443c0-.4-.049-.813-.049-1.232v-.283a.474.474,0,0,1,.486-.474.48.48,0,0,1,.468.493v.265a8.864,8.864,0,0,0,.049,1.145.48.48,0,0,1-.437.517Zm.2-3.824h-.092a.486.486,0,0,1-.382-.567c.1-.493.222-.985.363-1.466a.48.48,0,0,1,.616-.32.474.474,0,0,1,.32.616c-.135.45-.246.911-.339,1.373a.474.474,0,0,1-.486.345Zm1.232-3.627a.517.517,0,0,1-.209-.049.474.474,0,0,1-.216-.616,13.083,13.083,0,0,1,.745-1.312.48.48,0,1,1,.807.511c-.252.4-.486.813-.7,1.232a.48.48,0,0,1-.437.234Zm2.155-3.165a.48.48,0,0,1-.357-.807c.339-.369.7-.727,1.071-1.065a.48.48,0,1,1,.616.714,12.709,12.709,0,0,0-1,1,.493.493,0,0,1-.333.16Zm2.907-2.463a.468.468,0,0,1-.406-.228.48.48,0,0,1,.148-.659,13.843,13.843,0,0,1,1.318-.739.481.481,0,0,1,.425.862,12.776,12.776,0,0,0-1.232.69.48.48,0,0,1-.252.074Zm3.485-1.583a.487.487,0,0,1-.135-.954c.289-.086.616-.166.893-.24l.573-.117a.48.48,0,1,1,.179.942l-.536.111c-.283.068-.56.142-.837.222a.511.511,0,0,1-.111.043Zm5.247-.53H156.3c-.468-.037-.942-.055-1.41-.049a.474.474,0,0,1-.493-.468.493.493,0,0,1,.474-.493q.757,0,1.515.055a.48.48,0,0,1,.431.523.474.474,0,0,1-.45.437Z" transform="translate(-140.59 -54.93)" fill="#fff"/>
                <path id="Trazado_111202" data-name="Trazado 111202" d="M170.469,56.869h-.148c-.24-.08-.474-.148-.714-.209a.481.481,0,1,1,.246-.93c.252.068.511.142.764.222a.48.48,0,0,1-.148.936Z" transform="translate(-151.601 -55.231)" fill="#fff"/>
              </g>
              <g id="Grupo_55165" data-name="Grupo 55165" transform="translate(9.132 7.375)" opacity="0.64">
                <path id="Trazado_111203" data-name="Trazado 111203" d="M184.354,68.553a.474.474,0,0,1-.431-.271c-.1-.228-.222-.45-.339-.665a.482.482,0,0,1,.85-.456c.123.234.24.468.357.708a.486.486,0,0,1-.234.616A.462.462,0,0,1,184.354,68.553Z" transform="translate(-166.219 -66.907)" fill="#fff"/>
                <path id="Trazado_111204" data-name="Trazado 111204" d="M162.9,90.6a14.964,14.964,0,0,1-1.663-.1.48.48,0,1,1,.111-.954,13.011,13.011,0,0,0,1.546.092h0a.48.48,0,0,1,0,.961Zm2.648-.252a.48.48,0,0,1-.092-.954l.493-.1c.345-.08.7-.172,1.035-.277a.474.474,0,0,1,.616.314.48.48,0,0,1-.314.616c-.357.111-.733.209-1.1.3-.179.043-.351.08-.53.111Zm4-1.422a.461.461,0,0,1-.228-.868,12.992,12.992,0,0,0,1.336-.825.486.486,0,0,1,.671.123.48.48,0,0,1-.123.665,14.21,14.21,0,0,1-1.435.881.474.474,0,0,1-.222.025Zm3.4-2.556a.511.511,0,0,1-.339-.135.493.493,0,0,1,.018-.671,13.551,13.551,0,0,0,1.035-1.182.488.488,0,1,1,.757.616,15.488,15.488,0,0,1-1.1,1.269.486.486,0,0,1-.357.1Zm2.463-3.461a.579.579,0,0,1-.222-.049.486.486,0,0,1-.209-.616,13.631,13.631,0,0,0,.616-1.441.48.48,0,0,1,.616-.283.474.474,0,0,1,.283.616,14.335,14.335,0,0,1-.677,1.546.468.468,0,0,1-.376.228Zm1.336-4.04h-.08a.486.486,0,0,1-.394-.554,13.346,13.346,0,0,0,.172-1.564.481.481,0,1,1,.961.049,15.3,15.3,0,0,1-.185,1.675.486.486,0,0,1-.443.394Zm.062-4.261a.474.474,0,0,1-.474-.413c-.055-.394-.129-.794-.222-1.182a1.44,1.44,0,0,0-.086-.357.48.48,0,1,1,.93-.24l.092.382a12.766,12.766,0,0,1,.234,1.269.48.48,0,0,1-.406.542Z" transform="translate(-157.49 -68.882)" fill="#fff"/>
                <path id="Trazado_111205" data-name="Trazado 111205" d="M156.627,100.39a.364.364,0,0,1-.142,0c-.252-.074-.5-.166-.751-.259a.474.474,0,0,1-.283-.616.486.486,0,0,1,.616-.283c.228.086.462.172.7.246a.48.48,0,0,1-.142.936Z" transform="translate(-155.419 -79.316)" fill="#fff"/>
              </g>
            </g>
            <path id="Trazado_111206" data-name="Trazado 111206" d="M160.14,80.97H160a6.447,6.447,0,0,1-1.373-.172.2.2,0,0,1-.148-.191.123.123,0,0,1,0-.043.191.191,0,0,1,.228-.142,6.582,6.582,0,0,0,1.3.166,6.158,6.158,0,0,0,6.269-6v-.135a6.158,6.158,0,0,0-12.273-.129c0,.043,0,.086,0,.135a6.1,6.1,0,0,0,.807,3.036.16.16,0,0,1,0,.092.2.2,0,0,1-.1.166.191.191,0,0,1-.259-.068,6.521,6.521,0,0,1-.856-3.227v-.142a6.522,6.522,0,1,1,13.042.135v.142a6.527,6.527,0,0,1-6.515,6.386Z" transform="translate(-145.589 -59.898)" fill="#fff" opacity="0.56"/>
          </g>
          <g id="Grupo_55171" data-name="Grupo 55171" transform="translate(54.294 34.533)">
            <g id="Grupo_55168" data-name="Grupo 55168" opacity="0.64">
              <path id="Trazado_111207" data-name="Trazado 111207" d="M153.1,138.054a.48.48,0,0,1-.456-.345c-.074-.252-.148-.5-.209-.764a.48.48,0,0,1,.351-.579.486.486,0,0,1,.616.351c.055.24.123.486.191.72a.48.48,0,0,1-.462.616Z" transform="translate(-151.902 -114.235)" fill="#fff"/>
              <path id="Trazado_111208" data-name="Trazado 111208" d="M152.153,121.106a.48.48,0,0,1-.48-.431c-.049-.511-.08-1.041-.092-1.558a.486.486,0,0,1,.474-.493.48.48,0,0,1,.486.474,14.758,14.758,0,0,0,.086,1.478.474.474,0,0,1-.425.53Zm.031-3.99h-.055a.48.48,0,0,1-.419-.536c.062-.517.148-1.035.252-1.546a.48.48,0,0,1,.936.2c-.1.48-.179.973-.234,1.466a.493.493,0,0,1-.48.388Zm.918-3.892a.4.4,0,0,1-.166-.031.48.48,0,0,1-.289-.616,13,13,0,0,1,.616-1.453.481.481,0,0,1,.874.4c-.2.45-.394.911-.56,1.373a.474.474,0,0,1-.474.3Zm1.755-3.59a.5.5,0,0,1-.259-.074.48.48,0,0,1-.142-.665c.277-.437.579-.868.9-1.281a.48.48,0,0,1,.671-.086.474.474,0,0,1,.086.671c-.3.388-.585.8-.85,1.232a.468.468,0,0,1-.406.172Zm2.512-3.079a.48.48,0,0,1-.333-.825c.369-.363.757-.714,1.158-1.047a.48.48,0,1,1,.616.733c-.382.32-.751.653-1.1,1a.48.48,0,0,1-.326.086Zm3.141-2.463a.468.468,0,0,1-.406-.228.474.474,0,0,1,.154-.659c.437-.277.9-.536,1.361-.77a.48.48,0,0,1,.647.209.486.486,0,0,1-.209.616c-.437.222-.874.468-1.293.727a.48.48,0,0,1-.253.037Zm16.8-1.108a.456.456,0,0,1-.2-.043c-.45-.2-.911-.388-1.373-.548a.486.486,0,0,1-.3-.616.474.474,0,0,1,.616-.289c.493.172.979.369,1.453.579a.48.48,0,0,1-.2.918Zm-13.2-.616a.48.48,0,0,1-.154-.936c.493-.166,1-.32,1.5-.443a.48.48,0,1,1,.234.93c-.474.123-.954.265-1.416.425a.48.48,0,0,1-.16-.037Zm9.4-.616h-.123c-.48-.1-.973-.179-1.466-.234a.48.48,0,1,1,.111-.954c.517.062,1.035.142,1.546.246a.48.48,0,0,1-.092.948Zm-5.505-.252a.481.481,0,0,1-.049-.961c.517-.055,1.041-.086,1.558-.1h0a.48.48,0,1,1,0,.961,14.757,14.757,0,0,0-1.478.092Z" transform="translate(-151.58 -100.44)" fill="#fff"/>
              <path id="Trazado_111209" data-name="Trazado 111209" d="M197.287,106.2a.474.474,0,0,1-.277-.086c-.2-.142-.413-.277-.616-.413a.48.48,0,1,1,.517-.807c.222.135.443.283.653.431a.48.48,0,0,1,.123.671A.468.468,0,0,1,197.287,106.2Z" transform="translate(-168.702 -102.113)" fill="#fff"/>
            </g>
            <g id="Grupo_55169" data-name="Grupo 55169" transform="translate(7.032 14.252)" opacity="0.64">
              <path id="Trazado_111210" data-name="Trazado 111210" d="M209.714,125.3a.474.474,0,0,1-.474-.406c-.043-.246-.086-.493-.135-.733a.481.481,0,0,1,.942-.191c.049.252.1.517.142.776a.487.487,0,0,1-.4.548Z" transform="translate(-180.709 -123.584)" fill="#fff"/>
              <path id="Trazado_111211" data-name="Trazado 111211" d="M176.045,148h-.616a.48.48,0,1,1,0-.961h1.484a.481.481,0,1,1,.049.961Zm-3.03-.259h-.086c-.5-.086-1.01-.191-1.5-.32a.48.48,0,0,1-.345-.585.486.486,0,0,1,.616-.345c.468.123.948.222,1.422.308a.474.474,0,0,1,.394.548.468.468,0,0,1-.5.388Zm6.343-.055a.48.48,0,0,1-.092-.948q.72-.142,1.422-.333a.486.486,0,0,1,.616.333.474.474,0,0,1-.333.616c-.493.142-1,.259-1.5.351Zm-10.13-1.022a.487.487,0,0,1-.179-.037c-.474-.191-.942-.413-1.4-.616a.468.468,0,0,1-.209-.616.474.474,0,0,1,.647-.209c.431.222.874.425,1.324.616a.48.48,0,0,1,.265.616.486.486,0,0,1-.45.24Zm13.886-.129a.48.48,0,0,1-.191-.918c.443-.191.887-.406,1.312-.616a.48.48,0,1,1,.456.844c-.45.24-.918.468-1.386.671a.524.524,0,0,1-.191.012Zm3.411-1.946a.474.474,0,0,1-.388-.2.48.48,0,0,1,.1-.7c.394-.283.776-.616,1.145-.905a.48.48,0,0,1,.677.049.486.486,0,0,1-.049.677,14.852,14.852,0,0,1-1.232.954.486.486,0,0,1-.259.117Zm2.913-2.642a.486.486,0,0,1-.363-.8c.32-.363.616-.745.924-1.133a.48.48,0,0,1,.77.573c-.308.413-.616.813-.973,1.232a.48.48,0,0,1-.357.123Zm2.26-3.214a.437.437,0,0,1-.228-.062.48.48,0,0,1-.191-.653,10.055,10.055,0,0,0,.616-1.305.486.486,0,0,1,.616-.246.48.48,0,0,1,.246.616c-.209.468-.437.936-.684,1.386a.5.5,0,0,1-.376.259Zm1.509-3.633a.48.48,0,0,1-.462-.616c.129-.462.246-.942.345-1.416a.48.48,0,0,1,.942.185c-.1.5-.228,1.01-.369,1.5a.474.474,0,0,1-.456.32Zm.671-3.873h-.031a.48.48,0,0,1-.45-.511v-1.459a.48.48,0,0,1,.468-.493h0a.486.486,0,0,1,.48.474v.376q0,.579-.037,1.164a.48.48,0,0,1-.431.443Z" transform="translate(-164.689 -125.573)" fill="#fff"/>
              <path id="Trazado_111212" data-name="Trazado 111212" d="M164.083,153.866a.493.493,0,0,1-.277-.086c-.216-.154-.431-.308-.616-.468a.474.474,0,0,1-.092-.671.48.48,0,0,1,.677-.092,6.862,6.862,0,0,0,.616.443.474.474,0,0,1,.117.671A.48.48,0,0,1,164.083,153.866Z" transform="translate(-162.999 -134.674)" fill="#fff"/>
            </g>
            <g id="Grupo_55170" data-name="Grupo 55170" transform="translate(4.495 4.297)">
              <path id="Trazado_111213" data-name="Trazado 111213" d="M163.092,131.176a.209.209,0,0,0,.24.068l2.463-.905a11.306,11.306,0,0,0,3.245,1.749l.616,2.543a.222.222,0,0,0,.191.166l3.116.314a.209.209,0,0,0,.216-.123l1.1-2.371a11.305,11.305,0,0,0,3.535-1.059l2.223,1.373a.2.2,0,0,0,.246,0l2.426-1.977a.222.222,0,0,0,.068-.246l-.9-2.463a11.46,11.46,0,0,0,1.712-3.227l2.537-.616a.216.216,0,0,0,.166-.191l.314-3.116a.2.2,0,0,0-.123-.216l-2.371-1.1a11.4,11.4,0,0,0-1.059-3.535l1.373-2.217a.222.222,0,0,0,0-.252l-1.983-2.426a.216.216,0,0,0-.24-.068l-2.463.905a11.343,11.343,0,0,0-3.251-1.749l-.616-2.543a.209.209,0,0,0-.185-.166l-3.122-.314a.215.215,0,0,0-.216.123l-1.078,2.383a11.318,11.318,0,0,0-3.528,1.059l-2.217-1.361a.2.2,0,0,0-.246,0l-2.463,1.977a.222.222,0,0,0-.062.246l.9,2.463a11.306,11.306,0,0,0-1.749,3.245l-2.543.616a.216.216,0,0,0-.16.191l-.32,3.116a.222.222,0,0,0,.123.216l2.371,1.1a11.533,11.533,0,0,0,1.065,3.535l-1.379,2.217a.234.234,0,0,0,0,.252Z" transform="translate(-158.879 -107.418)" fill="url(#linear-gradient-3)"/>
              <path id="Trazado_111214" data-name="Trazado 111214" d="M179.321,131.2a3.367,3.367,0,1,1,.5-.037A3.4,3.4,0,0,1,179.321,131.2Zm0-5.542a2.9,2.9,0,0,0-.326,0,2.21,2.21,0,0,0,.647,4.372h0a2.2,2.2,0,0,0-.32-4.391Z" transform="translate(-165.446 -113.971)" fill="#fff" opacity="0.56"/>
              <path id="Trazado_111215" data-name="Trazado 111215" d="M176.65,132.792a6.833,6.833,0,0,1-.788-.043h0a7.518,7.518,0,0,1-1.613-.339.191.191,0,0,1-.135-.179.221.221,0,0,1,0-.062.191.191,0,0,1,.24-.123,7.223,7.223,0,0,0,1.533.32,7.389,7.389,0,0,0,8.079-6.589c0-.252.037-.5.037-.751a7.389,7.389,0,0,0-14.7-.733c0,.246-.037.5-.037.745a7.39,7.39,0,0,0,.7,3.122.216.216,0,0,1,0,.086.2.2,0,0,1-.111.172.191.191,0,0,1-.252-.092,7.679,7.679,0,0,1-.733-3.288,5.542,5.542,0,0,1,.037-.782,7.759,7.759,0,0,1,15.475.77,4.832,4.832,0,0,1-.043.788,7.771,7.771,0,0,1-7.679,6.977Z" transform="translate(-162.714 -111.22)" fill="#fff" opacity="0.56"/>
            </g>
          </g>
          <g id="Grupo_55175" data-name="Grupo 55175" transform="translate(45.956 67.025)">
            <g id="Grupo_55172" data-name="Grupo 55172" opacity="0.64">
              <path id="Trazado_111216" data-name="Trazado 111216" d="M138.973,173.517a.48.48,0,0,1-.462-.345c-.074-.259-.142-.523-.2-.782a.486.486,0,0,1,.376-.567.48.48,0,0,1,.567.369c.049.24.111.474.179.708a.486.486,0,0,1-.326.616Z" transform="translate(-138.142 -160.355)" fill="#fff"/>
              <path id="Trazado_111217" data-name="Trazado 111217" d="M138.5,163.2h0a.486.486,0,0,1-.456-.5c0-.068,0-.142,0-.209a9.852,9.852,0,0,1,.185-1.349.481.481,0,1,1,.942.191,8.145,8.145,0,0,0-.166,1.232,1.848,1.848,0,0,0,0,.191A.486.486,0,0,1,138.5,163.2Zm.973-3.781a.517.517,0,0,1-.209-.049.48.48,0,0,1-.216-.647,9.6,9.6,0,0,1,.819-1.336.48.48,0,1,1,.782.554,9.365,9.365,0,0,0-.727,1.232A.474.474,0,0,1,139.468,159.421Zm2.408-3.079a.456.456,0,0,1-.363-.172.474.474,0,0,1,.055-.671,9.817,9.817,0,0,1,1.269-.924.481.481,0,0,1,.5.819,9.66,9.66,0,0,0-1.158.831.45.45,0,0,1-.308.117Zm3.43-1.847a.48.48,0,0,1-.142-.942,10.019,10.019,0,0,1,1.533-.339.482.482,0,0,1,.135.954,9.043,9.043,0,0,0-1.392.3.524.524,0,0,1-.135.006Zm5.357-.062a.469.469,0,0,1-.129,0,9.666,9.666,0,0,0-1.4-.271.48.48,0,0,1,.111-.954,10.879,10.879,0,0,1,1.546.3.48.48,0,0,1-.129.942Z" transform="translate(-138.039 -153.205)" fill="#fff"/>
              <path id="Trazado_111218" data-name="Trazado 111218" d="M162.524,156.52a.462.462,0,0,1-.277-.086c-.2-.135-.406-.271-.616-.388a.48.48,0,1,1,.48-.831c.228.135.462.277.677.431a.486.486,0,0,1,.123.671A.468.468,0,0,1,162.524,156.52Z" transform="translate(-147.006 -153.949)" fill="#fff"/>
            </g>
            <g id="Grupo_55173" data-name="Grupo 55173" transform="translate(3.728 7.58)" opacity="0.64">
              <path id="Trazado_111219" data-name="Trazado 111219" d="M169.451,167.236a.486.486,0,0,1-.48-.425,3.659,3.659,0,0,0-.117-.72.481.481,0,1,1,.942-.191c.055.265.1.536.129.8a.474.474,0,0,1-.419.53Z" transform="translate(-153.603 -165.514)" fill="#fff"/>
              <path id="Trazado_111220" data-name="Trazado 111220" d="M152.92,179.9a.481.481,0,1,1-.037-.961,9.45,9.45,0,0,0,1.379-.216.481.481,0,0,1,.222.936,10.647,10.647,0,0,1-1.527.24Zm-2.383-.1h-.086a10.415,10.415,0,0,1-1.5-.369.48.48,0,0,1-.3-.616.468.468,0,0,1,.616-.3,9.478,9.478,0,0,0,1.355.339.48.48,0,0,1-.074.954Zm6.072-.961a.486.486,0,0,1-.425-.259.48.48,0,0,1,.2-.647,9.51,9.51,0,0,0,1.182-.745.48.48,0,0,1,.573.77,10.408,10.408,0,0,1-1.312.825.474.474,0,0,1-.222.055Zm2.974-2.432a.5.5,0,0,1-.3-.1.486.486,0,0,1-.068-.677,9.1,9.1,0,0,0,.8-1.145.48.48,0,1,1,.825.486,9.967,9.967,0,0,1-.887,1.269.48.48,0,0,1-.369.172Zm1.786-3.4a.468.468,0,0,1-.129,0,.486.486,0,0,1-.333-.616,9.3,9.3,0,0,0,.289-1.367.48.48,0,1,1,.948.123,10.47,10.47,0,0,1-.314,1.515A.48.48,0,0,1,161.369,173Z" transform="translate(-145.835 -167.452)" fill="#fff"/>
              <path id="Trazado_111221" data-name="Trazado 111221" d="M145.2,182.414a.456.456,0,0,1-.259-.08c-.222-.142-.443-.3-.659-.462a.481.481,0,1,1,.585-.764,5.672,5.672,0,0,0,.616.419.48.48,0,0,1-.265.887Z" transform="translate(-144.094 -171.468)" fill="#fff"/>
            </g>
            <g id="Grupo_55174" data-name="Grupo 55174" transform="translate(2.593 2.435)">
              <path id="Trazado_111222" data-name="Trazado 111222" d="M144.516,169.949a.117.117,0,0,0,.129,0l1.318-.48a5.943,5.943,0,0,0,1.743.936l.32,1.367a.117.117,0,0,0,.1.086l1.675.172a.123.123,0,0,0,.117-.068l.616-1.275a6.157,6.157,0,0,0,1.9-.567l1.195.739a.111.111,0,0,0,.129,0l1.305-1.065a.123.123,0,0,0,.037-.129l-.486-1.312a6.023,6.023,0,0,0,.936-1.743l1.33-.314a.111.111,0,0,0,.086-.1l.172-1.669a.117.117,0,0,0-.068-.117l-1.269-.616a6.158,6.158,0,0,0-.573-1.89l.739-1.195a.123.123,0,0,0,0-.135l-1.059-1.3a.117.117,0,0,0-.129-.037l-1.318.486a6.109,6.109,0,0,0-1.743-.942l-.32-1.361a.117.117,0,0,0-.1-.092l-1.675-.166a.111.111,0,0,0-.117.068l-.616,1.269a6,6,0,0,0-1.9.573l-1.195-.739a.111.111,0,0,0-.129,0l-1.305,1.065a.123.123,0,0,0-.037.129l.486,1.318a5.942,5.942,0,0,0-.936,1.743l-1.367.32a.1.1,0,0,0-.086.1l-.172,1.675a.123.123,0,0,0,.068.117l1.269.616a6.22,6.22,0,0,0,.573,1.9l-.739,1.188a.123.123,0,0,0,0,.135Z" transform="translate(-142.25 -157.158)" fill="url(#linear-gradient-4)"/>
              <path id="Trazado_111223" data-name="Trazado 111223" d="M153.052,170.066a2.083,2.083,0,1,1,.3-.025,1.706,1.706,0,0,1-.3.025Zm0-2.987h-.135a.918.918,0,1,0,1.041.776.9.9,0,0,0-.357-.616A.924.924,0,0,0,153.052,167.079Z" transform="translate(-145.595 -160.526)" fill="#fff" opacity="0.56"/>
              <path id="Trazado_111224" data-name="Trazado 111224" d="M151.751,170.875a3.377,3.377,0,0,1-.431,0l-.277-.037h0a1.8,1.8,0,0,1-.431-.092h-.154a.191.191,0,0,1-.135-.179.185.185,0,0,1,0-.062.191.191,0,0,1,.24-.123,3.541,3.541,0,0,0,.807.166h0a3.867,3.867,0,0,0,4.23-3.393.209.209,0,0,1,0-.062v-.4a3.867,3.867,0,0,0-7.71-.382,2.881,2.881,0,0,0,0,.394,3.769,3.769,0,0,0,.369,1.638.191.191,0,0,1,0,.08.2.2,0,0,1-.111.179.2.2,0,0,1-.259-.092,4.261,4.261,0,0,1-.4-1.8v-.431a4.249,4.249,0,0,1,8.479.419v.437A4.261,4.261,0,0,1,151.751,170.875Z" transform="translate(-144.263 -159.181)" fill="#fff" opacity="0.56"/>
            </g>
          </g>
          <g id="Grupo_55179" data-name="Grupo 55179" transform="translate(31.19 19.219)">
            <g id="Grupo_55176" data-name="Grupo 55176" opacity="0.64">
              <path id="Trazado_111225" data-name="Trazado 111225" d="M114.726,93.181a.2.2,0,0,1-.185-.135c-.043-.16-.086-.32-.123-.48a.193.193,0,0,1,.376-.086,1.712,1.712,0,0,0,.117.456.2.2,0,0,1-.129.24Z" transform="translate(-114.196 -82.01)" fill="#fff"/>
              <path id="Trazado_111226" data-name="Trazado 111226" d="M114.306,85.349a.2.2,0,0,1-.191-.172,8.375,8.375,0,0,1-.055-.961.2.2,0,0,1,.191-.2h0a.191.191,0,0,1,.191.191,7.741,7.741,0,0,0,.055.922.185.185,0,0,1-.166.211Zm0-1.884h0a.191.191,0,0,1-.172-.216,8.444,8.444,0,0,1,.154-.948.192.192,0,1,1,.376.08,7.594,7.594,0,0,0-.148.911.191.191,0,0,1-.216.172Zm.406-1.847h-.074a.2.2,0,0,1-.123-.246,9.35,9.35,0,0,1,.363-.893.2.2,0,1,1,.351.166q-.191.419-.351.85a.185.185,0,0,1-.172.129Zm.807-1.7a.172.172,0,0,1-.1,0,.2.2,0,0,1-.062-.265c.172-.271.357-.536.554-.788a.2.2,0,0,1,.271,0,.191.191,0,0,1,.031.271c-.185.24-.363.493-.53.751a.185.185,0,0,1-.166.037Zm1.164-1.478a.191.191,0,0,1-.135-.326,7.125,7.125,0,0,1,.714-.616.191.191,0,1,1,.24.3,8.091,8.091,0,0,0-.684.616.191.191,0,0,1-.142.037Zm1.466-1.188a.2.2,0,0,1-.166-.086.191.191,0,0,1,.062-.265,7.939,7.939,0,0,1,.837-.474.2.2,0,0,1,.259.086.2.2,0,0,1-.086.259,7.924,7.924,0,0,0-.807.45.154.154,0,0,1-.1.037Zm8.116-.536a.172.172,0,0,1-.08,0q-.419-.194-.856-.345a.191.191,0,0,1-.123-.24.2.2,0,0,1,.246-.123,9.305,9.305,0,0,1,.893.357.191.191,0,0,1,.092.259.2.2,0,0,1-.179.1Zm-6.435-.265a.2.2,0,0,1-.185-.129.185.185,0,0,1,.117-.24,7.969,7.969,0,0,1,.924-.277.19.19,0,1,1,.086.369,9.023,9.023,0,0,0-.881.265Zm4.643-.308h-.043a8.923,8.923,0,0,0-.905-.142.192.192,0,0,1,.037-.382,9.508,9.508,0,0,1,.948.148.176.176,0,0,1-.018.351Zm-2.814-.129a.185.185,0,0,1-.191-.166.191.191,0,0,1,.166-.216,8.382,8.382,0,0,1,.961-.062h0a.191.191,0,1,1,0,.382,9.059,9.059,0,0,0-.918.062Z" transform="translate(-114.06 -75.57)" fill="#fff"/>
              <path id="Trazado_111227" data-name="Trazado 111227" d="M135.509,78.195a.2.2,0,0,1-.111-.037l-.388-.259a.191.191,0,0,1-.068-.265.2.2,0,0,1,.265-.062c.142.086.277.179.413.271a.193.193,0,0,1-.111.351Z" transform="translate(-122.073 -76.329)" fill="#fff"/>
            </g>
            <g id="Grupo_55177" data-name="Grupo 55177" transform="translate(3.327 6.726)" opacity="0.64">
              <path id="Trazado_111228" data-name="Trazado 111228" d="M141.459,87.353a.2.2,0,0,1-.191-.166,2.338,2.338,0,0,0-.08-.462.2.2,0,0,1,.148-.228.191.191,0,0,1,.228.148,3.357,3.357,0,0,0,.086.486.191.191,0,0,1-.166.216Z" transform="translate(-127.808 -86.493)" fill="#fff"/>
              <path id="Trazado_111229" data-name="Trazado 111229" d="M125.511,97.86h-.394a.2.2,0,0,1-.185-.2.2.2,0,0,1,.2-.185,7.388,7.388,0,0,0,.905,0,.2.2,0,0,1,.2.179.191.191,0,0,1-.179.2Q125.788,97.86,125.511,97.86Zm-1.312-.1h0a7.957,7.957,0,0,1-.924-.2.185.185,0,0,1-.135-.234.191.191,0,0,1,.234-.135,8.738,8.738,0,0,0,.887.191.185.185,0,0,1,.16.216.191.191,0,0,1-.191.16Zm2.771,0a.179.179,0,0,1-.185-.154.185.185,0,0,1,.154-.222,8.706,8.706,0,0,0,.881-.209.193.193,0,1,1,.111.369c-.3.086-.616.16-.924.216Zm-4.557-.456h-.074c-.289-.117-.579-.252-.862-.394a.2.2,0,0,1,.185-.345,8.227,8.227,0,0,0,.819.382.191.191,0,0,1-.068.369Zm6.336-.062a.191.191,0,0,1-.074-.369,7.613,7.613,0,0,0,.813-.394.2.2,0,0,1,.265.074.191.191,0,0,1-.074.259,7.8,7.8,0,0,1-.856.413Zm1.638-.954a.179.179,0,0,1-.154-.08.191.191,0,0,1,.043-.265,7.924,7.924,0,0,0,.708-.567.192.192,0,1,1,.271.271c-.24.209-.486.406-.745.616a.228.228,0,0,1-.123.025Zm1.386-1.232a.209.209,0,0,1-.154,0,.191.191,0,0,1,0-.271,8,8,0,0,0,.573-.708.192.192,0,0,1,.308.228,7.639,7.639,0,0,1-.616.739.2.2,0,0,1-.129.043Zm1.078-1.472a.179.179,0,0,1-.1,0,.185.185,0,0,1-.068-.259,8.285,8.285,0,0,0,.4-.813.191.191,0,0,1,.252-.1.185.185,0,0,1,.1.252,9.056,9.056,0,0,1-.419.85.2.2,0,0,1-.166.068Zm.727-1.7h-.055a.191.191,0,0,1-.123-.24,8.739,8.739,0,0,0,.216-.881.191.191,0,1,1,.376.068,8.089,8.089,0,0,1-.228.924.191.191,0,0,1-.191.129Zm.345-1.847h0a.185.185,0,0,1-.172-.2v-.905a.191.191,0,1,1,.382,0v.961a.191.191,0,0,1-.216.172Z" transform="translate(-120.205 -87.356)" fill="#fff"/>
              <path id="Trazado_111230" data-name="Trazado 111230" d="M120.027,100.775a.185.185,0,0,1-.111-.037c-.135-.092-.271-.185-.4-.283a.2.2,0,0,1,0-.271.191.191,0,0,1,.265-.037l.382.277a.191.191,0,0,1,.049.265.185.185,0,0,1-.185.086Z" transform="translate(-119.462 -91.724)" fill="#fff"/>
            </g>
            <g id="Grupo_55178" data-name="Grupo 55178" transform="translate(2.1 2.007)">
              <path id="Trazado_111231" data-name="Trazado 111231" d="M119.44,90.018a.1.1,0,0,0,.117,0l1.152-.425a5.339,5.339,0,0,0,1.533.825l.283,1.232a.1.1,0,0,0,.086.08l1.472.148a.111.111,0,0,0,.1-.062l.517-1.115a5.487,5.487,0,0,0,1.663-.5l1.047.653a.111.111,0,0,0,.117,0l1.145-.936a.1.1,0,0,0,.031-.117l-.443-1.145a5.339,5.339,0,0,0,.825-1.533l1.2-.283a.092.092,0,0,0,.074-.086l.148-1.472a.1.1,0,0,0-.055-.1l-1.115-.517a5.486,5.486,0,0,0-.5-1.663l.653-1.047a.1.1,0,0,0,0-.117l-.93-1.145a.1.1,0,0,0-.117,0l-1.158.425a5.3,5.3,0,0,0-1.527-.825l-.283-1.232a.1.1,0,0,0-.092-.074l-1.429-.148a.1.1,0,0,0-.1.055L123.332,80a5.487,5.487,0,0,0-1.663.5l-1.047-.653a.1.1,0,0,0-.117,0l-1.176.93a.1.1,0,0,0,0,.117l.425,1.158a5.3,5.3,0,0,0-.825,1.527l-1.232.283a.111.111,0,0,0-.08.092l-.148,1.466a.111.111,0,0,0,.062.1l1.115.517a5.486,5.486,0,0,0,.5,1.663l-.653,1.078a.111.111,0,0,0,0,.117Z" transform="translate(-117.47 -78.829)" fill="url(#linear-gradient-5)"/>
              <path id="Trazado_111232" data-name="Trazado 111232" d="M127.221,90.021a1.484,1.484,0,1,1,.216,0A1.267,1.267,0,0,1,127.221,90.021Zm0-2.623h-.166a1.121,1.121,0,0,0,.326,2.217h0a1.121,1.121,0,0,0-.16-2.229Z" transform="translate(-120.688 -81.99)" fill="#fff" opacity="0.56"/>
              <path id="Trazado_111233" data-name="Trazado 111233" d="M125.768,90.836h-.382a4.206,4.206,0,0,1-.782-.166.191.191,0,0,1-.135-.179.185.185,0,0,1,0-.062.191.191,0,0,1,.24-.123,3.393,3.393,0,0,0,.7.148h0A3.375,3.375,0,0,0,128.539,89a3.288,3.288,0,0,0,.56-1.484v-.08a3.376,3.376,0,0,0-6.718-.684,3.229,3.229,0,0,0,0,.345,3.356,3.356,0,0,0,.314,1.429.2.2,0,0,1-.363.166A3.769,3.769,0,0,1,122,87.08V86.7a3.762,3.762,0,0,1,7.5.369q0,.2,0,.388A3.769,3.769,0,0,1,125.768,90.836Z" transform="translate(-119.21 -80.571)" fill="#fff" opacity="0.56"/>
            </g>
          </g>
          <g id="Grupo_55183" data-name="Grupo 55183" transform="translate(31.005)">
            <g id="Grupo_55180" data-name="Grupo 55180" opacity="0.64">
              <path id="Trazado_111234" data-name="Trazado 111234" d="M119.795,72.854a.185.185,0,0,1-.092-.031l-.289-.24a.148.148,0,0,1,0-.209.142.142,0,0,1,.2,0l.283.228a.148.148,0,0,1-.092.265Z" transform="translate(-115.915 -55.107)" fill="#fff"/>
              <path id="Trazado_111235" data-name="Trazado 111235" d="M116.8,61.437a.142.142,0,0,1-.1-.043c-.179-.179-.357-.369-.517-.56a.148.148,0,0,1,0-.209.154.154,0,0,1,.209,0c.16.185.333.369.5.542a.154.154,0,0,1,0,.209.142.142,0,0,1-.092.062Zm-.979-1.139a.16.16,0,0,1-.123-.062c-.148-.2-.289-.419-.425-.616a.148.148,0,1,1,.246-.154c.135.209.271.413.419.616a.142.142,0,0,1,0,.2.148.148,0,0,1-.117-.006Zm-.8-1.324a.148.148,0,0,1-.129-.074c-.117-.228-.228-.462-.326-.7a.148.148,0,0,1,.271-.111c.1.222.2.45.32.665a.142.142,0,0,1-.135.216Zm-.616-1.379a.142.142,0,0,1-.135-.1c-.086-.24-.16-.486-.222-.733a.149.149,0,0,1,.289-.068c.062.234.129.474.209.708a.148.148,0,0,1-.092.185Zm-.369-1.459a.148.148,0,0,1-.148-.123c-.043-.252-.074-.5-.1-.757a.148.148,0,0,1,.129-.16.142.142,0,0,1,.16.135,5.1,5.1,0,0,0,.1.733.148.148,0,0,1-.117.172Zm-.129-1.472a.148.148,0,0,1-.148-.148v-.788a.148.148,0,0,1,.16-.135.142.142,0,0,1,.135.154v.573a1.5,1.5,0,0,0,0,.166.16.16,0,0,1-.148.179Zm.086-1.5h0a.142.142,0,0,1-.123-.166,3.625,3.625,0,0,1,.129-.751.148.148,0,0,1,.179-.111.142.142,0,0,1,.111.172c-.049.246-.1.486-.129.733a.154.154,0,0,1-.154.123Zm.32-1.472h-.043a.148.148,0,0,1-.1-.185c.074-.24.154-.486.246-.72a.148.148,0,0,1,.191-.086.154.154,0,0,1,.086.191,6.73,6.73,0,0,0-.24.7.154.154,0,0,1-.129.1Zm.536-1.4a.117.117,0,0,1-.062,0,.142.142,0,0,1-.068-.191c.1-.234.228-.462.351-.677a.147.147,0,0,1,.259.142c-.123.216-.24.437-.345.659a.148.148,0,0,1-.123.068Zm.751-1.305a.2.2,0,0,1-.086,0,.148.148,0,0,1-.037-.209c.142-.209.3-.413.456-.616a.148.148,0,0,1,.228.185c-.154.2-.3.394-.443.616a.142.142,0,0,1-.1.025Zm.936-1.176a.142.142,0,0,1-.1-.037.148.148,0,0,1,0-.209c.172-.185.357-.369.542-.542a.148.148,0,0,1,.2.222c-.179.166-.357.339-.523.517a.154.154,0,0,1-.1.049Zm1.108-1.016a.129.129,0,0,1-.111-.055.142.142,0,0,1,0-.209c.2-.154.406-.308.616-.443a.148.148,0,0,1,.166.24c-.209.142-.406.283-.616.437a.154.154,0,0,1-.043.031Zm1.232-.831a.148.148,0,0,1-.074-.277c.222-.129.45-.246.677-.351a.148.148,0,0,1,.2.074.135.135,0,0,1-.068.191c-.222.1-.45.222-.665.339a.093.093,0,0,1-.031.025Zm1.361-.616a.142.142,0,0,1-.135-.092.148.148,0,0,1,.086-.191c.24-.086.48-.172.727-.24a.142.142,0,0,1,.179.1.148.148,0,0,1-.1.185c-.234.068-.474.148-.7.234Zm1.447-.413a.15.15,0,0,1-.031-.3c.252-.049.5-.092.757-.123a.146.146,0,1,1,.037.289c-.246.031-.493.074-.733.123Z" transform="translate(-113.76 -44.417)" fill="#fff"/>
              <path id="Trazado_111236" data-name="Trazado 111236" d="M129.038,44.656a.148.148,0,1,1,0-.3h.369a.154.154,0,0,1,.154.148.148.148,0,0,1-.148.148h-.363Z" transform="translate(-119.573 -44.36)" fill="#fff"/>
            </g>
            <g id="Grupo_55181" data-name="Grupo 55181" transform="translate(9.44 2.631)" opacity="0.64">
              <path id="Trazado_111237" data-name="Trazado 111237" d="M140.926,49.185a.154.154,0,0,1-.1-.049l-.259-.252a.148.148,0,0,1,0-.209.154.154,0,0,1,.209,0c.086.086.179.172.265.265a.148.148,0,0,1,0,.209.172.172,0,0,1-.111.037Z" transform="translate(-133.481 -48.633)" fill="#fff"/>
              <path id="Trazado_111238" data-name="Trazado 111238" d="M131.057,66.327a.148.148,0,0,1-.012-.3,6.968,6.968,0,0,0,.72-.086.16.16,0,0,1,.172.123.148.148,0,0,1-.123.172c-.246.037-.5.068-.751.086Zm1.459-.228a.142.142,0,0,1-.142-.111.148.148,0,0,1,.111-.179c.234-.055.474-.123.7-.2a.148.148,0,0,1,.086.283c-.234.074-.48.142-.72.2Zm1.41-.443a.154.154,0,0,1-.135-.092.148.148,0,0,1,.086-.2c.222-.086.443-.191.665-.3a.148.148,0,0,1,.129.265c-.222.111-.456.216-.69.308ZM135.276,65a.135.135,0,0,1-.123-.074.142.142,0,0,1,.049-.2l.123-.08c.166-.1.333-.209.493-.32a.154.154,0,0,1,.2.037.148.148,0,0,1-.037.209c-.16.111-.333.222-.5.326l-.129.08A.148.148,0,0,1,135.276,65Zm1.232-.85a.148.148,0,0,1-.1-.265c.191-.154.376-.314.548-.48a.148.148,0,1,1,.2.216c-.179.166-.369.339-.56.493a.148.148,0,0,1-.092.037Zm1.071-1.022a.142.142,0,0,1-.1-.037.148.148,0,0,1,0-.209c.16-.179.32-.369.468-.56a.149.149,0,0,1,.234.185q-.228.3-.48.573a.166.166,0,0,1-.154.055Zm.905-1.17a.123.123,0,0,1-.08,0,.148.148,0,0,1-.043-.2c.135-.2.259-.413.376-.616a.154.154,0,0,1,.2-.062.148.148,0,0,1,.055.2,6.586,6.586,0,0,1-.388.616.148.148,0,0,1-.154.068Zm.714-1.293h-.062a.148.148,0,0,1-.068-.2c.1-.222.191-.45.277-.677a.154.154,0,0,1,.191-.086.148.148,0,0,1,.086.191c-.086.234-.185.468-.289.7a.142.142,0,0,1-.166.08Zm.517-1.392h-.043a.142.142,0,0,1-.1-.179c.068-.234.123-.474.172-.708a.16.16,0,0,1,.179-.117.148.148,0,0,1,.111.179c-.049.24-.111.486-.179.727a.142.142,0,0,1-.172.1Zm.3-1.447h0a.148.148,0,0,1-.129-.166c.031-.24.055-.486.068-.727a.148.148,0,1,1,.3.018,6.087,6.087,0,0,1-.068.745.154.154,0,0,1-.2.135Zm.08-1.478a.148.148,0,0,1-.148-.148,4.112,4.112,0,0,0-.043-.727.142.142,0,0,1,.129-.16.148.148,0,0,1,.16.129c0,.252.043.5.049.751a.148.148,0,0,1-.148.154Zm-.179-1.435a.148.148,0,0,1-.142-.123c-.043-.24-.1-.48-.154-.714a.148.148,0,0,1,.283-.074c.062.24.117.493.16.733a.154.154,0,0,1-.123.172Zm-.333-1.466a.154.154,0,0,1-.142-.1c-.08-.228-.166-.456-.259-.677a.142.142,0,0,1,.074-.2.154.154,0,0,1,.2.08c.1.228.185.468.265.7a.142.142,0,0,1-.092.185Zm-.616-1.367a.142.142,0,0,1-.129-.08c-.1-.2-.216-.4-.339-.616v-.043a.154.154,0,0,1,.049-.2.148.148,0,0,1,.2.049v.043c.123.2.24.406.345.616a.148.148,0,0,1-.062.2A.123.123,0,0,1,138.97,52.078Zm-.776-1.232a.16.16,0,0,1-.123-.062c-.142-.2-.289-.388-.45-.573a.154.154,0,0,1,0-.209.148.148,0,0,1,.209,0,6.688,6.688,0,0,1,.462.616.142.142,0,0,1-.031.2.148.148,0,0,1-.068,0Z" transform="translate(-129.789 -49.143)" fill="#fff"/>
              <path id="Trazado_111239" data-name="Trazado 111239" d="M129.595,76.406h-.357a.148.148,0,1,1,0-.3h.363a.148.148,0,0,1,.148.148.154.154,0,0,1-.154.148Z" transform="translate(-129.09 -59.19)" fill="#fff"/>
            </g>
            <g id="Grupo_55182" data-name="Grupo 55182" transform="translate(2.412 2.373)">
              <path id="Trazado_111240" data-name="Trazado 111240" d="M123.991,63.175a.123.123,0,0,0,.129-.049l.807-1.176a6.158,6.158,0,0,0,2-.252L128,62.64a.111.111,0,0,0,.135,0l1.49-.85a.111.111,0,0,0,.055-.123l-.259-1.4a6.158,6.158,0,0,0,1.232-1.589l1.422-.092a.111.111,0,0,0,.1-.086l.456-1.65a.129.129,0,0,0-.043-.129l-1.17-.788a6.016,6.016,0,0,0-.246-2l.942-1.071a.1.1,0,0,0,0-.135l-.844-1.49a.111.111,0,0,0-.123-.055l-1.4.259A6.391,6.391,0,0,0,128.16,50.2l-.092-1.422a.117.117,0,0,0-.086-.1l-1.65-.456a.129.129,0,0,0-.129.043l-.807,1.182a6.355,6.355,0,0,0-2,.246l-1.071-.942a.123.123,0,0,0-.135,0l-1.49.844a.111.111,0,0,0-.055.123l.259,1.4a6.158,6.158,0,0,0-1.232,1.595l-1.422.086a.135.135,0,0,0-.111.086l-.45,1.65a.1.1,0,0,0,.043.129l1.182.807a6,6,0,0,0,.246,2l-.942,1.078a.111.111,0,0,0,0,.135l.85,1.49a.123.123,0,0,0,.123.062l1.4-.265A6.25,6.25,0,0,0,122.18,61.2l.092,1.429a.117.117,0,0,0,.086.1Z" transform="translate(-117.677 -48.214)" fill="url(#linear-gradient-6)"/>
              <path id="Trazado_111241" data-name="Trazado 111241" d="M128.811,60.964a1.726,1.726,0,1,1,1.176-.468A1.644,1.644,0,0,1,128.811,60.964Zm0-3.042a1.355,1.355,0,0,0-.948.382,1.379,1.379,0,0,0,1.9,2h0a1.373,1.373,0,0,0-.954-2.365Z" transform="translate(-121.321 -51.816)" fill="#fff" opacity="0.56"/>
              <path id="Trazado_111242" data-name="Trazado 111242" d="M128.4,61.684a.16.16,0,0,1-.142-.1v-.043a.154.154,0,0,1,.1-.142,3.953,3.953,0,0,0,.776-.339,4.113,4.113,0,0,0,.825-.616h0a3.981,3.981,0,1,0-4.785.659.148.148,0,0,1,.074.123.166.166,0,0,1,0,.074.148.148,0,0,1-.2.055,4.373,4.373,0,1,1,6.238-2.562,4.243,4.243,0,0,1-2.014,2.586h0l-.185.1h0c-.148.074-.3.135-.462.2h-.123Z" transform="translate(-119.674 -50.116)" fill="#fff" opacity="0.56"/>
            </g>
          </g>
        </g>
      </g>
      <g id="Grupo_55193" data-name="Grupo 55193" transform="translate(131.048 41.285)">
        <g id="Grupo_55189" data-name="Grupo 55189">
          <path id="Trazado_111243" data-name="Trazado 111243" d="M434.177,330.532a3.978,3.978,0,0,0,.468,0,4.04,4.04,0,0,0,3.553-4.471L412.853,105.487a4.04,4.04,0,0,0-8.005.924l25.34,220.556a4.033,4.033,0,0,0,3.99,3.565Z" transform="translate(-282.443 -70.441)" fill="#b5abdb"/>
          <path id="Trazado_111244" data-name="Trazado 111244" d="M223.7,330.345a4.04,4.04,0,0,0,3.935-3.159L277.086,106.63a4.036,4.036,0,0,0-7.876-1.767L219.75,325.419a4.046,4.046,0,0,0,3.079,4.828,4.35,4.35,0,0,0,.868.1Z" transform="translate(-211.29 -70.254)" fill="#b5abdb"/>
          <path id="Trazado_111245" data-name="Trazado 111245" d="M359.328,399.947a4.033,4.033,0,0,0,4.033-4.033V287.061a4.04,4.04,0,1,0-8.073,0V395.92A4.04,4.04,0,0,0,359.328,399.947Z" transform="translate(-263.402 -139.856)" fill="#b5abdb"/>
          <path id="Trazado_111246" data-name="Trazado 111246" d="M382.807,61.442,368.6,240.254a7.143,7.143,0,0,1-7.3,6.583l-148.275-3.621a7.143,7.143,0,0,1-6.866-8.239l28.388-178.3a7.143,7.143,0,0,1,7.2-6.047L375.83,53.708a7.155,7.155,0,0,1,6.977,7.734Z" transform="translate(-206.072 -50.628)" fill="#12263f"/>
          <path id="Trazado_111247" data-name="Trazado 111247" d="M374.068,61.875,249.728,59a7.155,7.155,0,0,0-7.223,6.022l-26.78,168.245a7.143,7.143,0,0,0,6.909,8.264l137.733,3.356a7.143,7.143,0,0,0,7.3-6.577L381.057,69.584a7.143,7.143,0,0,0-6.989-7.71Z" transform="translate(-209.747 -53.843)" fill="#fff" opacity="0.97"/>
          <path id="Trazado_111248" data-name="Trazado 111248" d="M363.233,91.607l62.669,3.5a1.133,1.133,0,0,1,1.078,1.232l-.086,1.01a1.145,1.145,0,0,1-1.232,1.041l-62.6-4.5a1.145,1.145,0,0,1-1.053-1.232h0a1.133,1.133,0,0,1,1.225-1.047Z" transform="translate(-265.983 -66.371)" fill="url(#linear-gradient-7)"/>
          <rect id="Rectngulo_6377" data-name="Rectngulo 6377" width="2.709" height="65.021" rx="1.355" transform="translate(95.418 33.078) rotate(-85.1)" fill="url(#linear-gradient-8)"/>
          <path id="Trazado_111249" data-name="Trazado 111249" d="M391.3,112.909v.185a1.145,1.145,0,0,0,1.041,1.232l43.53,3.732a1.139,1.139,0,0,0,1.232-1.035l.074-.887a1.145,1.145,0,0,0-1.059-1.232l-43.591-3.036A1.145,1.145,0,0,0,391.3,112.909Z" transform="translate(-277.237 -74.156)" fill="url(#linear-gradient-9)"/>
          <g id="Grupo_55188" data-name="Grupo 55188" transform="translate(34.908 23.611)">
            <path id="Trazado_111250" data-name="Trazado 111250" d="M377.147,150.021a.764.764,0,0,1-.53-.216l-19.268-18.7-21.774,13.178a.757.757,0,0,1-1.016-.216L309.1,107.366c-4.021,2.943-26.109,19.089-29.09,21.288a.761.761,0,1,1-.893-1.232l29.718-21.743a.751.751,0,0,1,1.065.179l25.518,36.762,21.676-13.11a.751.751,0,0,1,.918.1l19.206,18.7,11.885-8.67a.761.761,0,0,1,.893,1.232l-12.4,9.046A.776.776,0,0,1,377.147,150.021Z" transform="translate(-268.923 -95.333)" fill="url(#linear-gradient-10)"/>
            <path id="Trazado_111251" data-name="Trazado 111251" d="M320.344,169.174h-.049a.5.5,0,0,1-.456-.548l.062-.727a.507.507,0,0,1,1.01.086l-.068.727A.5.5,0,0,1,320.344,169.174Zm.369-4.249h-.043a.5.5,0,0,1-.456-.548l.129-1.509a.507.507,0,1,1,1.01.086l-.135,1.509a.505.505,0,0,1-.5.462Zm.45-5.031h-.049a.5.5,0,0,1-.456-.548l.129-1.509a.507.507,0,0,1,1.01.086l-.135,1.509a.5.5,0,0,1-.493.462Zm.443-5.031h-.049a.5.5,0,0,1-.456-.548l.135-1.509a.5.5,0,0,1,1,.092l-.135,1.509a.5.5,0,0,1-.5.456Zm.443-5.025H322a.5.5,0,0,1-.456-.548l.135-1.509a.5.5,0,0,1,1,.092l-.135,1.509a.5.5,0,0,1-.5.456Zm.443-5.031h-.043a.511.511,0,0,1-.462-.548l.135-1.509a.5.5,0,1,1,1,.086l-.135,1.509a.5.5,0,0,1-.5.462Zm.443-5.031h-.043a.511.511,0,0,1-.462-.548l.135-1.509a.511.511,0,0,1,.548-.462.5.5,0,0,1,.456.548l-.129,1.509a.5.5,0,0,1-.505.462Zm.443-5.031h-.043a.511.511,0,0,1-.462-.548l.135-1.509a.511.511,0,0,1,.548-.462.5.5,0,0,1,.456.548l-.129,1.509a.5.5,0,0,1-.505.462Zm.443-5.031h-.043a.511.511,0,0,1-.462-.548l.135-1.509a.5.5,0,1,1,1,.092l-.129,1.509a.5.5,0,0,1-.5.456Zm.443-5.025h-.018a.5.5,0,0,1-.456-.548l.129-1.509a.507.507,0,1,1,1.01.092l-.135,1.509a.511.511,0,0,1-.548.456Zm.443-5.031h-.043a.5.5,0,0,1-.456-.542l.129-1.515a.507.507,0,1,1,1.01.092l-.135,1.509A.5.5,0,0,1,324.71,119.659Z" transform="translate(-284.689 -99.794)" fill="url(#linear-gradient-11)"/>
            <path id="Trazado_111252" data-name="Trazado 111252" d="M366.874,190.9h-.049a.5.5,0,0,1-.456-.548v-.074a.5.5,0,0,1,1,.092v.074a.5.5,0,0,1-.5.456Zm.314-3.6h-.043a.511.511,0,0,1-.462-.548l.135-1.509a.5.5,0,1,1,1,.092l-.129,1.509a.511.511,0,0,1-.5.456Zm.443-5.031h-.043a.5.5,0,0,1-.462-.542l.135-1.515a.5.5,0,0,1,1,.092l-.129,1.509A.5.5,0,0,1,367.631,182.269Zm.443-5.031h-.043a.5.5,0,0,1-.456-.548l.129-1.509a.507.507,0,0,1,1.01.086l-.111,1.509a.5.5,0,0,1-.53.493Zm.443-5.031h-.043a.5.5,0,0,1-.456-.548l.129-1.509a.507.507,0,1,1,1.01.086l-.135,1.509A.5.5,0,0,1,368.518,172.207Z" transform="translate(-302.567 -119.983)" fill="url(#linear-gradient-12)"/>
            <path id="Trazado_111253" data-name="Trazado 111253" d="M402.354,182.905h-.031a.5.5,0,0,1-.474-.53l.092-1.533a.5.5,0,1,1,1,.062l-.086,1.509A.5.5,0,0,1,402.354,182.905Zm.283-5.043h0a.511.511,0,0,1-.48-.536l.086-1.509a.506.506,0,1,1,1.01.055l-.086,1.515A.5.5,0,0,1,402.638,177.862Zm.289-5.043H402.9a.5.5,0,0,1-.474-.53l.086-1.515a.506.506,0,1,1,1.01.055l-.086,1.515a.5.5,0,0,1-.5.493Zm.289-5.037h-.043a.5.5,0,0,1-.474-.53l.086-1.515a.5.5,0,0,1,.53-.474.511.511,0,0,1,.48.536l-.086,1.509a.511.511,0,0,1-.493.474Zm.289-5.043h-.031A.511.511,0,0,1,403,162.2l.086-1.509a.5.5,0,1,1,1,.055L404,162.264a.5.5,0,0,1-.5.474Zm.283-5.043h0a.5.5,0,0,1-.48-.53l.086-1.515a.511.511,0,0,1,.536-.474.5.5,0,0,1,.474.53l-.086,1.515a.5.5,0,0,1-.53.474Zm.289-5.037h-.031a.5.5,0,0,1-.474-.53l.086-1.515a.506.506,0,1,1,1.01.062l-.086,1.509a.511.511,0,0,1-.5.474Z" transform="translate(-316.2 -112.472)" fill="url(#linear-gradient-13)"/>
            <path id="Trazado_111254" data-name="Trazado 111254" d="M436.064,195.574h-.049a.5.5,0,0,1-.456-.548l.135-1.509a.5.5,0,0,1,1,.086l-.135,1.509A.5.5,0,0,1,436.064,195.574Zm.443-5.031h-.062a.5.5,0,0,1-.462-.548l.135-1.509a.5.5,0,1,1,1,.092l-.135,1.509A.5.5,0,0,1,436.507,190.543Zm.443-5.025h-.043a.5.5,0,0,1-.462-.548l.135-1.509a.5.5,0,0,1,1,.092l-.129,1.509A.5.5,0,0,1,436.95,185.519Zm.443-5.031h-.043a.511.511,0,0,1-.462-.548l.135-1.509a.511.511,0,0,1,.548-.462.5.5,0,0,1,.456.548l-.129,1.509a.5.5,0,0,1-.5.462Z" transform="translate(-329.151 -123.164)" fill="url(#linear-gradient-14)"/>
            <g id="Grupo_55186" data-name="Grupo 55186" transform="translate(4.153)">
              <path id="Trazado_111255" data-name="Trazado 111255" d="M270.259,159.814h-.074a.757.757,0,0,1-.677-.831l6.774-67.7a.758.758,0,0,1,1.509.148l-6.774,67.736A.764.764,0,0,1,270.259,159.814Z" transform="translate(-269.504 -89.596)" fill="url(#linear-gradient-15)"/>
              <path id="Trazado_111256" data-name="Trazado 111256" d="M277.09,93.441l2.808-2.3,2.3,2.808.222-2.168-2.3-2.814-2.808,2.3Z" transform="translate(-272.418 -88.97)" fill="url(#linear-gradient-16)"/>
            </g>
            <g id="Grupo_55187" data-name="Grupo 55187" transform="translate(0 65.04)">
              <path id="Trazado_111257" data-name="Trazado 111257" d="M383.491,206.7h-.068L263.474,196.106a.757.757,0,1,1,.129-1.509l119.949,10.585a.758.758,0,1,1-.062,1.515Z" transform="translate(-262.76 -194.592)" fill="url(#linear-gradient-17)"/>
              <path id="Trazado_111258" data-name="Trazado 111258" d="M453.57,213.547l2.783-2.334-2.334-2.783,2.174.191,2.334,2.783-2.79,2.334Z" transform="translate(-336.072 -199.909)" fill="url(#linear-gradient-18)"/>
            </g>
          </g>
        </g>
        <g id="Grupo_55192" data-name="Grupo 55192" transform="translate(12.875 36.13)">
          <path id="Trazado_111259" data-name="Trazado 111259" d="M286.729,464.553a1.267,1.267,0,0,0-.037-.339c-1.675-6.632-9.976-10.764-9.976-10.764l-3.294.259c-1.89,5.844-1.65,9.428-1.342,11.029a.993.993,0,0,0,0,.129A78.64,78.64,0,0,0,286.729,464.553Z" transform="translate(-244.227 -241.527)" fill="url(#linear-gradient-19)"/>
          <path id="Trazado_111260" data-name="Trazado 111260" d="M272.27,471.8a1.422,1.422,0,0,0,1.047,1.053c3.861.813,10,.16,12.574-.179a1.2,1.2,0,0,0,1-1.188,78.643,78.643,0,0,1-14.619.314Z" transform="translate(-244.381 -248.459)" fill="url(#linear-gradient-20)"/>
          <g id="Grupo_55190" data-name="Grupo 55190" transform="translate(75.823)">
            <path id="Trazado_111261" data-name="Trazado 111261" d="M350.148,119.35l21.676-7.87,1.669,3.5-20.832,7.851A2.862,2.862,0,0,1,350.148,119.35Z" transform="translate(-350.112 -110.138)" fill="url(#linear-gradient-21)"/>
            <path id="Trazado_111262" data-name="Trazado 111262" d="M385.3,110.969c-.616,1.934,1.669,3.5,1.669,3.5l3.935-2.783a8.245,8.245,0,0,1-.419-1.533Z" transform="translate(-363.593 -109.627)" fill="url(#linear-gradient-22)"/>
            <path id="Trazado_111263" data-name="Trazado 111263" d="M393.79,109.823a8.245,8.245,0,0,0,.419,1.533l2.906-2.057Z" transform="translate(-366.894 -109.3)" fill="url(#linear-gradient-23)"/>
          </g>
          <path id="Trazado_111264" data-name="Trazado 111264" d="M246.661,280.77a30.713,30.713,0,0,1-7.131,5.21,59.2,59.2,0,0,0,13.036,11.6l1.607,3.615L259.34,295S250.072,290.389,246.661,280.77Z" transform="translate(-231.802 -175.181)" fill="url(#linear-gradient-24)"/>
          <path id="Trazado_111265" data-name="Trazado 111265" d="M272.25,445.91l1.4,6.706a1.1,1.1,0,0,0,.936.905,9.574,9.574,0,0,0,2.161-.037,1.379,1.379,0,0,0,1.09-1.62l-.967-5.955Z" transform="translate(-244.374 -238.63)" fill="url(#linear-gradient-25)"/>
          <path id="Trazado_111266" data-name="Trazado 111266" d="M315.1,471.3a19.677,19.677,0,0,1-6.484-.924v1.108a.714.714,0,0,0,.684.727l19.958-.123a.918.918,0,0,0,.733-1.33C327.389,470.977,320.726,471.464,315.1,471.3Z" transform="translate(-258.347 -248.032)" fill="url(#linear-gradient-26)"/>
          <path id="Trazado_111267" data-name="Trazado 111267" d="M330.006,464.9a.688.688,0,0,0-.08-.148c-1.761-2.463-6.25-7.389-15.124-9.5l-4.255-.135s-1.89,3.294-1.927,9.4a19.675,19.675,0,0,0,6.484.924C320.726,465.6,327.389,465.114,330.006,464.9Z" transform="translate(-258.348 -242.169)" fill="url(#linear-gradient-27)"/>
          <path id="Trazado_111268" data-name="Trazado 111268" d="M310.47,444.016c.049.314.616,5.136.856,7.008a.93.93,0,0,0,.782.837,9.814,9.814,0,0,0,2.925-.049,1.232,1.232,0,0,0,.954-1.262V443Z" transform="translate(-259.058 -237.512)" fill="url(#linear-gradient-28)"/>
          <path id="Trazado_111269" data-name="Trazado 111269" d="M288.066,301.78s10.265,39,10.074,88.088a1.9,1.9,0,0,1-1.5,1.847,22.3,22.3,0,0,1-4.76.548,1.767,1.767,0,0,1-1.681-1.472c-1.435-8.436-9.7-55.981-14.4-63.7,0,0-3.079,42.341-2.106,64.306a1.041,1.041,0,0,1-.918,1.084,17.243,17.243,0,0,1-3.818,0,1.392,1.392,0,0,1-1.232-1.182c-1.022-7.137-6.921-49.651-6.675-80.28,0-1.724,4.569-9.237,4.569-9.237Z" transform="translate(-240.066 -183.254)" fill="url(#linear-gradient-29)"/>
          <path id="Trazado_111270" data-name="Trazado 111270" d="M308.541,165.38c-4.508,8.387-11.965,16.946-24.151,19.237-11.232,2.118-31.405,4.735-39.509,5.758a9.933,9.933,0,0,0-6.275,3.368c-6.373,7.389-20.358,27.563-3.9,47.9a30.713,30.713,0,0,0,7.131-5.21c-1.847-5.136-1.971-11.7,1.847-19.705a18.515,18.515,0,0,0,.486,1.89,117.061,117.061,0,0,1,5.542,33.72,1.047,1.047,0,0,0,.659.985c6.921,2.777,20.247,1.127,24.718.456a1.509,1.509,0,0,0,1.262-1.706c-2.2-15.906,9.07-42.064,12.045-48.647a4.31,4.31,0,0,1,2.161-2.161c17.014-7.7,24.41-19.551,27.409-30.223C315.364,167.56,311.355,166.039,308.541,165.38Z" transform="translate(-226.98 -130.847)" fill="url(#linear-gradient-30)"/>
          <path id="Trazado_111271" data-name="Trazado 111271" d="M368.83,159.511a51.646,51.646,0,0,0,.788-24.151h-3.879a62.667,62.667,0,0,1-6.349,18.474C362.229,154.5,366.238,156.026,368.83,159.511Z" transform="translate(-277.854 -119.313)" fill="url(#linear-gradient-31)"/>
          <path id="Trazado_111272" data-name="Trazado 111272" d="M369.274,129.209s-5.905-7.642-3.984-11.626,8.467-3.59,8.467-3.59l.918,3.122a3.91,3.91,0,0,1-.092,2.5l-3.633,9.6Z" transform="translate(-279.973 -111.099)" fill="url(#linear-gradient-32)"/>
          <path id="Trazado_111273" data-name="Trazado 111273" d="M274.64,180.882l-1.33,13.627s7.667,2.309,13.246-1.626L282.633,180.5Z" transform="translate(-244.781 -136.656)" fill="url(#linear-gradient-33)"/>
          <g id="Grupo_55191" data-name="Grupo 55191" transform="translate(23.631 21.998)">
            <path id="Trazado_111274" data-name="Trazado 111274" d="M283.592,155.532c.185.179,7.79,15.105,7.79,15.105l-8.621,4.163-9.311-13.079S280.507,152.626,283.592,155.532Z" transform="translate(-268.466 -148.841)" fill="url(#linear-gradient-34)"/>
            <path id="Trazado_111275" data-name="Trazado 111275" d="M274.158,158.261a1.367,1.367,0,0,0,.1,1.232l4.311,7.168a1.232,1.232,0,0,0,.234.3c.511.474,2.26,1.847,3.615,0,1.158-1.607,2.235-3.079,3.4-3.695a1.373,1.373,0,0,1,1.847.616,50.494,50.494,0,0,1,2.937,6.977,1.355,1.355,0,0,1-.794,1.675,37.784,37.784,0,0,1-8.251,2.408,1.361,1.361,0,0,1-1.3-.548c-1.318-1.8-5.031-6.848-6.3-8.11-1.176-1.17-3.344-.727-4.311-.45a1.386,1.386,0,0,1-1.1-.142c-.991-.616-2.722-2.088-1.139-4.612a1.367,1.367,0,0,0-.425-1.847,3.04,3.04,0,0,1-1.164-4.31,4.3,4.3,0,0,1,4.643-2.272,1.435,1.435,0,0,0,1.5-.831.911.911,0,0,1,.708-.56,1.336,1.336,0,0,0,1.084-1.564,3.516,3.516,0,0,1,1.964-4.033c3.695-2.044,6.977,1.287,7.8,4.095s-3.331,4.8-5.942,5.13C275.636,155.071,274.583,157.165,274.158,158.261Z" transform="translate(-265.356 -145.024)" fill="url(#linear-gradient-35)"/>
            <path id="Trazado_111276" data-name="Trazado 111276" d="M278.083,180.852s-1.656-4.834-3.775-4.655-3.781,2.285-1.158,4.655C276.383,183.8,278.083,180.852,278.083,180.852Z" transform="translate(-267.834 -156.999)" fill="url(#linear-gradient-36)"/>
          </g>
          <path id="Trazado_111277" data-name="Trazado 111277" d="M251.782,236.116c-2.79-7.63-1.773-16.854-1.767-16.946l.77.092c0,.086-1,9.132,1.724,16.589Z" transform="translate(-235.759 -151.514)" fill="url(#linear-gradient-37)"/>
          <path id="Trazado_111278" data-name="Trazado 111278" d="M279.488,336.328a.394.394,0,0,1-.376-.289c-.85-3.282-7.223-6.891-7.285-6.928a.385.385,0,1,1,.376-.671c.277.154,6.724,3.806,7.66,7.389a.388.388,0,0,1-.277.474Z" transform="translate(-244.136 -193.478)" fill="url(#linear-gradient-38)"/>
        </g>
      </g>
      <g id="Grupo_55200" data-name="Grupo 55200" transform="translate(10.807 149.02)">
        <g id="Grupo_55194" data-name="Grupo 55194" transform="translate(34.159 97.317)">
          <rect id="Rectngulo_6378" data-name="Rectngulo 6378" width="3.411" height="36.861" transform="translate(21.06 45.125) rotate(180)" fill="url(#linear-gradient-39)"/>
          <path id="Trazado_111279" data-name="Trazado 111279" d="M0,0H29.884V.209a2.007,2.007,0,0,1-2.007,2.007H2.014A2.007,2.007,0,0,1,.006.209V0Z" transform="translate(34.281 45.833) rotate(180)" fill="url(#linear-gradient-40)"/>
          <rect id="Rectngulo_6379" data-name="Rectngulo 6379" width="37.538" height="10.647" rx="5.323" fill="url(#linear-gradient-41)"/>
        </g>
        <g id="Grupo_55195" data-name="Grupo 55195" transform="translate(30.317 74.077)">
          <path id="Trazado_111280" data-name="Trazado 111280" d="M130.965,357.12a29.73,29.73,0,0,1,10.758,4.594,2.826,2.826,0,0,1,1.232,2.709,120.3,120.3,0,0,1-12.728,39.964,4.311,4.311,0,0,0-.413,2.95l1.607,7.469,2.98,2.8h-7.654l-5.111-13.824,2.186-.69a4.138,4.138,0,0,0,2.888-3.873l.252-14.828a16.885,16.885,0,0,1,4.052-11.164l-12.254-.616Z" transform="translate(-82.601 -350.199)" fill="url(#linear-gradient-42)"/>
          <path id="Trazado_111281" data-name="Trazado 111281" d="M138.158,447.61c.7.911-7.519,2.118-11.7.123,0,0-5.758-10.019-5.758-15.173,0,0,.456-1.053,3.836-.813,0,0,1.934,11.86,3.972,13.184s5.708.135,5.708.135S137.129,446.262,138.158,447.61Z" transform="translate(-83.347 -378.858)" fill="url(#linear-gradient-43)"/>
          <path id="Trazado_111282" data-name="Trazado 111282" d="M121.28,374.61c.068-.111,13.19-1.576,13.19-1.576a30.432,30.432,0,0,0,.918,9.483c1.342,5.5,20.616,29.3,20.616,29.3l-2.026,6.41a32.52,32.52,0,0,0,18.474,1.108l-12.55-7.543s-11.7-39.94-18.9-47.071l-13.159-4.551Z" transform="translate(-83.57 -351.37)" fill="url(#linear-gradient-44)"/>
          <path id="Trazado_111283" data-name="Trazado 111283" d="M68.31,345.88s-7.562,11.25-8.184,16.38,2.075,7.217,10.007,7.562,29.12.339,29.12.339L117.339,354.7s-13.178-4.7-16.626-6.029S68.31,345.88,68.31,345.88Z" transform="translate(-60.041 -345.88)" fill="url(#linear-gradient-45)"/>
          <path id="Trazado_111284" data-name="Trazado 111284" d="M174.863,450.94s-2.174,2.112-.7,4.452c0,0,17.242,3.079,21.916,1.669,0,0-.973-2.217-6.244-4.742l.388.3a.616.616,0,0,1-.413,1.127C186.335,453.551,179.149,452.917,174.863,450.94Z" transform="translate(-103.691 -386.246)" fill="url(#linear-gradient-46)"/>
        </g>
        <g id="Grupo_55196" data-name="Grupo 55196" transform="translate(25.382)">
          <path id="Trazado_111285" data-name="Trazado 111285" d="M89.12,318.017s8.812-8.387,13.122-13.941a11.786,11.786,0,0,0,2-10.61c-1.977-6.663-5.5-13.547-5.819-14.65-.486-1.644-10.364-1.576-10.364-1.576S68.62,289.851,60.96,311.213l8.646,2.673a100.322,100.322,0,0,1,10.087-13.923s-8.676,11.46-8.984,16.152Z" transform="translate(-55.459 -245.43)" fill="url(#linear-gradient-47)"/>
          <path id="Trazado_111286" data-name="Trazado 111286" d="M116.836,264.02c-.1.345-2.679,8.886-2.882,9.064s-5.653.468-8.215-1.281l4.354-9.114Z" transform="translate(-72.664 -239.84)" fill="url(#linear-gradient-48)"/>
          <path id="Trazado_111287" data-name="Trazado 111287" d="M111.714,235.527s4.649,1.971,7.814,8.689.8,9.853-2.168,10.259-7.389.357-12.1-3.984S105.66,233.2,111.714,235.527Z" transform="translate(-71.771 -229.297)" fill="url(#linear-gradient-49)"/>
          <path id="Trazado_111288" data-name="Trazado 111288" d="M104.544,243.187s-3.51-9.853,5.21-9.951l2.051,1.435s3.2-5.456-2.051-8.061a11.17,11.17,0,0,0-15.327,6.774c-2.235,7.075-.924,11.645,2.8,15.031s5.246-.456,5.246-.456-2.02-3.165-1.232-4.859,2.728.351,2.728.351Z" transform="translate(-67.896 -225.583)" fill="url(#linear-gradient-50)"/>
          <path id="Trazado_111289" data-name="Trazado 111289" d="M106.979,253.8s-1.773-5.068-4.144-3.048,1.927,4.68,3.6,5.542Z" transform="translate(-71.28 -235.071)" fill="url(#linear-gradient-51)"/>
          <path id="Trazado_111290" data-name="Trazado 111290" d="M105.84,339.836,99.368,333.6l-8.954,3.781s-8.91,1.385-14.009,0L71.306,336l-11.546-3.59-1.81,5.117a3.079,3.079,0,0,0,1.127,3.541,20.4,20.4,0,0,0,2.913,1.81c1.515.665,37.409-.456,37.409-.456Z" transform="translate(-54.235 -266.628)" fill="url(#linear-gradient-52)"/>
          <path id="Trazado_111291" data-name="Trazado 111291" d="M79.24,237.863a2,2,0,0,0-1.188-3.325c-5.111-.8-12.931,0-16.183,10.961-3.695,12.316-6.09,18.474-8.553,19.576a2,2,0,0,0-.111,3.695,8.5,8.5,0,0,0,5.339.191C77.387,264.8,72.664,244.588,79.24,237.863Z" transform="translate(-52.026 -228.936)" fill="url(#linear-gradient-53)"/>
        </g>
        <g id="Grupo_55197" data-name="Grupo 55197" transform="translate(50.862 42.068)">
          <path id="Trazado_111292" data-name="Trazado 111292" d="M95.04,347.127h.086l37.563-.043a1.681,1.681,0,1,0,0-3.356l-37.563.037a1.682,1.682,0,1,0-.08,3.362Z" transform="translate(-93.404 -313.043)" fill="url(#linear-gradient-54)"/>
          <path id="Trazado_111293" data-name="Trazado 111293" d="M180.11,293.9H148.822a5.948,5.948,0,0,0-5.388,3.418L129,327.959h38.85a3.621,3.621,0,0,0,3.369-2.291l11.2-28.356a2.463,2.463,0,0,0-2.309-3.411Z" transform="translate(-107.081 -293.9)" fill="url(#linear-gradient-55)"/>
          <path id="Trazado_111294" data-name="Trazado 111294" d="M176,317.449c-.677,2.1-.179,4.144,1.115,4.563s2.894-.954,3.572-3.079.179-4.15-1.115-4.569S176.679,315.343,176,317.449Z" transform="translate(-125.023 -301.734)" fill="url(#linear-gradient-56)"/>
        </g>
        <g id="Grupo_55199" data-name="Grupo 55199" transform="translate(0 75.764)">
          <path id="Trazado_111295" data-name="Trazado 111295" d="M10.84,350.375a1.392,1.392,0,0,1,.326-1.232,1.6,1.6,0,0,1,1.195-.523H169a1.81,1.81,0,0,1,1.5.77,1.576,1.576,0,0,1,.117,1.6l-1.7,3.442a2.383,2.383,0,0,1-2.155,1.293H13.432a1.773,1.773,0,0,1-1.767-1.33Z" transform="translate(-10.807 -348.62)" fill="#6c58b8"/>
          <g id="Grupo_55198" data-name="Grupo 55198" transform="translate(2.021 2.956)">
            <path id="Trazado_111296" data-name="Trazado 111296" d="M234.6,424.8a1.386,1.386,0,0,0,1.232-1.964l-28.8-68.568a1.373,1.373,0,0,0-1.81-.739,1.422,1.422,0,0,0-.714,1.847l28.825,68.6A1.385,1.385,0,0,0,234.6,424.8Z" transform="translate(-87.208 -353.42)" fill="#6c58b8"/>
            <path id="Trazado_111297" data-name="Trazado 111297" d="M199.835,424.806a1.385,1.385,0,0,0,1.269-.85l28.825-68.568a1.422,1.422,0,0,0-.72-1.847,1.367,1.367,0,0,0-1.8.739l-28.831,68.562a1.392,1.392,0,0,0,1.232,1.964Z" transform="translate(-84.923 -353.424)" fill="#6c58b8"/>
            <path id="Trazado_111298" data-name="Trazado 111298" d="M50.235,424.8a1.374,1.374,0,0,0,.542-.111,1.422,1.422,0,0,0,.72-1.847L22.672,354.27a1.373,1.373,0,0,0-1.81-.739,1.429,1.429,0,0,0-.72,1.847l28.813,68.6A1.386,1.386,0,0,0,50.235,424.8Z" transform="translate(-16.372 -353.42)" fill="#6c58b8"/>
            <path id="Trazado_111299" data-name="Trazado 111299" d="M15.475,424.806a1.373,1.373,0,0,0,1.262-.825l28.831-68.592a1.422,1.422,0,0,0-.72-1.847,1.367,1.367,0,0,0-1.8.739L14.213,422.841a1.392,1.392,0,0,0,1.262,1.964Z" transform="translate(-14.09 -353.424)" fill="#6c58b8"/>
          </g>
        </g>
      </g>
    </g>
  </g>
</svg>
