<svg xmlns="http://www.w3.org/2000/svg" xmlns:xlink="http://www.w3.org/1999/xlink" width="300" height="300" viewBox="0 0 300 300">
  <defs>
    <linearGradient id="linear-gradient" x1="1.638" y1="23.731" x2="0.414" y2="24.974" gradientUnits="objectBoundingBox">
      <stop offset="0" stop-color="#2b3582"/>
      <stop offset="1" stop-color="#150e42"/>
    </linearGradient>
    <linearGradient id="linear-gradient-2" x1="-0.001" y1="0.5" x2="1.002" y2="0.5" gradientUnits="objectBoundingBox">
      <stop offset="0" stop-color="#4042e2"/>
      <stop offset="1" stop-color="#4f52ff"/>
    </linearGradient>
    <linearGradient id="linear-gradient-3" x1="-0.017" y1="0.5" x2="0.983" y2="0.5" xlink:href="#linear-gradient-2"/>
    <linearGradient id="linear-gradient-4" x1="166.95" y1="45.865" x2="163.94" y2="49.457" xlink:href="#linear-gradient"/>
    <linearGradient id="linear-gradient-5" x1="2.88" y1="362.749" x2="1.8" y2="368.308" xlink:href="#linear-gradient"/>
    <linearGradient id="linear-gradient-6" x1="2.709" y1="-22.272" x2="2.638" y2="-37.771" xlink:href="#linear-gradient"/>
    <linearGradient id="linear-gradient-7" x1="1.043" y1="0.009" x2="-0.019" y2="0.837" gradientUnits="objectBoundingBox">
      <stop offset="0" stop-color="#241753"/>
      <stop offset="1" stop-color="#472ea6"/>
    </linearGradient>
    <linearGradient id="linear-gradient-8" x1="13.088" y1="-31.649" x2="14.087" y2="-31.649" xlink:href="#linear-gradient-7"/>
    <linearGradient id="linear-gradient-9" x1="0" y1="0.5" x2="1" y2="0.5" xlink:href="#linear-gradient-2"/>
    <linearGradient id="linear-gradient-10" x1="1.341" y1="0.363" x2="-1.799" y2="0.888" gradientUnits="objectBoundingBox">
      <stop offset="0" stop-color="#ff928e"/>
      <stop offset="1" stop-color="#feb3b1"/>
    </linearGradient>
    <linearGradient id="linear-gradient-11" x1="3.053" y1="0.266" x2="0.506" y2="0.537" xlink:href="#linear-gradient-10"/>
    <linearGradient id="linear-gradient-12" x1="0" y1="0.5" x2="1" y2="0.5" xlink:href="#linear-gradient-10"/>
    <linearGradient id="linear-gradient-13" x1="-839.12" y1="-1.447" x2="-839.955" y2="0.427" xlink:href="#linear-gradient-7"/>
    <linearGradient id="linear-gradient-14" x1="-1160.644" y1="-207.589" x2="-1161.602" y2="-206.18" xlink:href="#linear-gradient-7"/>
    <linearGradient id="linear-gradient-15" x1="0" y1="0.5" x2="1" y2="0.5" xlink:href="#linear-gradient-10"/>
    <linearGradient id="linear-gradient-16" x1="1.206" y1="-0.089" x2="-1.003" y2="1.397" xlink:href="#linear-gradient-10"/>
    <linearGradient id="linear-gradient-17" x1="1.762" y1="-0.516" x2="-5.939" y2="5.654" xlink:href="#linear-gradient-10"/>
    <linearGradient id="linear-gradient-18" x1="0.224" y1="-0.715" x2="0.706" y2="1.359" xlink:href="#linear-gradient-10"/>
  </defs>
  <g id="Grupo_55521" data-name="Grupo 55521" transform="translate(-245 -8343)">
    <g id="CF1_empresa_copia_4" data-name="CF1_empresa copia 4" transform="translate(245 8343)">
      <rect id="Rectángulo_6443" data-name="Rectángulo 6443" width="300" height="300" fill="none"/>
      <path id="Trazado_111833" data-name="Trazado 111833" d="M136.8,47.06l126.08,5.47a13.08,13.08,0,0,1,12.51,13l1.38,183.19a9.65,9.65,0,0,1-9.88,9.71l-144.62-3.64a9.15,9.15,0,0,1-8.91-9.54l8-184A14.84,14.84,0,0,1,136.8,47.06Z" fill="url(#linear-gradient)"/>
      <path id="Trazado_111834" data-name="Trazado 111834" d="M143.54,252.72h0l-16.15-.91a10.15,10.15,0,0,1-9.53-10.53l1.06-24.41a.5.5,0,0,1,.53-.48.52.52,0,0,1,.48.53l-1.06,24.41a9.12,9.12,0,0,0,8.57,9.47l16.16.91a.51.51,0,0,1,0,1Z" fill="url(#linear-gradient-2)"/>
      <path id="Trazado_111835" data-name="Trazado 111835" d="M119.72,209.84h0a.51.51,0,0,1-.48-.53l.17-3.95a.5.5,0,1,1,1,.04l-.17,4A.5.5,0,0,1,119.72,209.84Z" fill="url(#linear-gradient-3)"/>
      <path id="Trazado_111836" data-name="Trazado 111836" d="M137.26,45.6c17.11,3.08,76,12.87,125.11,11.23a4,4,0,0,1,4.13,3.94l1.8,184a4.59,4.59,0,0,1-4.52,4.64c-20.64.32-105.62,1.36-135.73-3.12a3.63,3.63,0,0,1-3.09-3.74l7.23-192.89a4.3,4.3,0,0,1,5.07-4.06Z" fill="#91b3fa"/>
      <path id="Trazado_111837" data-name="Trazado 111837" d="M138.89,50.44c16.47,3,73.15,12.38,120.41,10.81a3.84,3.84,0,0,1,4,3.79l1.7,177.1a4.4,4.4,0,0,1-4.34,4.45c-19.86.32-101.65,1.31-130.62-3a3.49,3.49,0,0,1-3-3.59L134,54.37a4.15,4.15,0,0,1,4.89-3.93Z" fill="#bdd0fb"/>
      <g id="Grupo_55484" data-name="Grupo 55484" opacity="0.6">
        <path id="Trazado_111838" data-name="Trazado 111838" d="M251.83,76.43c1.1,0,2-.49,2-1.19s-.88-1.33-2-1.39l-44.38-2.72c-1.1-.07-1.77.66-1.48,1.61a2.9,2.9,0,0,0,2.53,1.81Z" fill="#fff"/>
      </g>
      <g id="Grupo_55485" data-name="Grupo 55485" opacity="0.6">
        <path id="Trazado_111839" data-name="Trazado 111839" d="M207.18,78.19c-1.1-.06-1.76.66-1.48,1.61a2.89,2.89,0,0,0,2.54,1.81l43.28,1.88c1.11.05,2-.49,2-1.19s-.89-1.32-2-1.39Z" fill="#fff"/>
      </g>
      <g id="Grupo_55486" data-name="Grupo 55486" opacity="0.6">
        <path id="Trazado_111840" data-name="Trazado 111840" d="M206.87,85.36c-1.1-.07-1.77.65-1.48,1.6a2.92,2.92,0,0,0,2.54,1.82l43.28,1.87c1.11,0,2-.48,2-1.18s-.89-1.33-2-1.4Z" fill="#fff"/>
      </g>
      <g id="Grupo_55487" data-name="Grupo 55487" opacity="0.6">
        <path id="Trazado_111841" data-name="Trazado 111841" d="M255,105.64c1.1,0,2-.49,2-1.19s-.94-1.32-2-1.38l-105.5-5.4c-1.1-.06-1.47.63-.82,1.52l.2.27a4.71,4.71,0,0,0,3.19,1.72Z" fill="#fff"/>
      </g>
      <g id="Grupo_55488" data-name="Grupo 55488" opacity="0.6">
        <path id="Trazado_111842" data-name="Trazado 111842" d="M149.2,104.73c-1.11-.06-1.48.63-.83,1.52l.2.28a4.76,4.76,0,0,0,3.19,1.71l102.92,4.46c1.11,0,2-.49,2-1.19s-.93-1.32-2-1.38Z" fill="#fff"/>
      </g>
      <path id="Trazado_111843" data-name="Trazado 111843" d="M165.61,140.71h0l-14.2-.29a3.84,3.84,0,0,1-3.89-3.32l-1.12-11.93a2.62,2.62,0,0,1,.64-2,3.15,3.15,0,0,1,2.21-1.06h0c1.2-.06,2.85-.19,4.66-.32,4-.29,8.44-.63,11.08-.63H165a4,4,0,0,1,3.93,2.85c.71,2.75.59,7.93.38,13.44A3.54,3.54,0,0,1,165.61,140.71ZM149.27,123.3a2,2,0,0,0-1.39.66,1.44,1.44,0,0,0-.37,1.1L148.63,137a2.7,2.7,0,0,0,2.76,2.27l14.2.29h0a2.38,2.38,0,0,0,2.54-2.11c.19-5.43.32-10.51-.36-13.11a2.85,2.85,0,0,0-2.85-2c-2.59,0-7.25.35-11,.62-1.82.14-3.48.26-4.69.33Z" fill="#fff"/>
      <path id="Trazado_111844" data-name="Trazado 111844" d="M150.79,124.51c3-.17,9.47-.75,12.55-.76a2.75,2.75,0,0,1,2.73,1.93c.57,2.2.44,6.58.29,10.61a2.37,2.37,0,0,1-2.52,2.14l-11.34-.24a2.61,2.61,0,0,1-2.66-2.23l-.9-9.53a1.86,1.86,0,0,1,1.85-1.92Z" fill="#fff" opacity="0.6"/>
      <g id="Grupo_55489" data-name="Grupo 55489" opacity="0.6">
        <path id="Trazado_111845" data-name="Trazado 111845" d="M179.05,128.51a1.44,1.44,0,0,0-1.52,1.88l.82,3.22a2.75,2.75,0,0,0,2.5,2l69.81.77a2,2,0,0,0,2-2V133.1a2.13,2.13,0,0,0-2-2.08Z" fill="#fff"/>
      </g>
      <path id="Trazado_111846" data-name="Trazado 111846" d="M151.37,126.39h0a2.18,2.18,0,0,1,3,.85l2.74,5a.7.7,0,0,0,1.25,0l7.12-15.39a.78.78,0,0,1,1.48.35,30.56,30.56,0,0,1-9.12,21.16s-4.15-1.67-7.42-9.07a2.29,2.29,0,0,1,.95-2.9Z" fill="#ef2a66"/>
      <path id="Trazado_111847" data-name="Trazado 111847" d="M165.27,171.15h0L151,170.86a3.87,3.87,0,0,1-3.9-3.32L146,155.61a2.67,2.67,0,0,1,.65-2,3.15,3.15,0,0,1,2.2-1.06h0c1.2-.07,2.85-.19,4.67-.32,4-.3,8.44-.63,11.07-.64h.06a4,4,0,0,1,3.92,2.86c.71,2.74.59,7.92.39,13.44a3.55,3.55,0,0,1-3.69,3.26Zm-16.33-17.41a2,2,0,0,0-1.4.66,1.46,1.46,0,0,0-.36,1.1l1.12,11.93a2.69,2.69,0,0,0,2.76,2.27l14.2.29h0a2.39,2.39,0,0,0,2.53-2.11c.2-5.43.32-10.52-.35-13.11a2.89,2.89,0,0,0-2.85-2c-2.59,0-7.25.35-11,.63-1.83.14-3.49.26-4.69.33Z" fill="#fff"/>
      <path id="Trazado_111848" data-name="Trazado 111848" d="M150.45,155c3-.17,9.48-.76,12.55-.76a2.77,2.77,0,0,1,2.74,1.93c.56,2.2.44,6.57.29,10.61a2.35,2.35,0,0,1-2.52,2.13l-11.35-.23a2.63,2.63,0,0,1-2.66-2.23l-.89-9.54a1.85,1.85,0,0,1,1.84-1.91Z" fill="#fff" opacity="0.6"/>
      <g id="Grupo_55490" data-name="Grupo 55490" opacity="0.6">
        <path id="Trazado_111849" data-name="Trazado 111849" d="M178.72,159a1.43,1.43,0,0,0-1.52,1.88l.81,3.22a2.76,2.76,0,0,0,2.5,2l69.82.76a2,2,0,0,0,2-2v-1.28a2.14,2.14,0,0,0-2-2.08Z" fill="#fff"/>
      </g>
      <path id="Trazado_111850" data-name="Trazado 111850" d="M151,156.83h0a2.16,2.16,0,0,1,3,.85l2.75,5a.7.7,0,0,0,1.25,0l7.12-15.39a.78.78,0,0,1,1.48.35,30.57,30.57,0,0,1-9.12,21.15s-4.15-1.66-7.42-9.07a2.26,2.26,0,0,1,.94-2.89Z" fill="#ef2a66"/>
      <path id="Trazado_111851" data-name="Trazado 111851" d="M163.62,200.36h0l-14.2-.29a3.86,3.86,0,0,1-3.9-3.32l-1.11-11.93a2.62,2.62,0,0,1,.64-2,3.15,3.15,0,0,1,2.2-1.06h0c1.2-.07,2.85-.19,4.67-.32,3.76-.28,8.44-.63,11.08-.63a4,4,0,0,1,4,2.85c.72,2.75.59,7.93.39,13.44a3.54,3.54,0,0,1-3.77,3.26ZM147.29,183a2,2,0,0,0-1.4.66,1.47,1.47,0,0,0-.36,1.1l1.12,11.93a2.7,2.7,0,0,0,2.76,2.27l14.2.29a2.43,2.43,0,0,0,2.56-2.11c.2-5.43.32-10.51-.35-13.11a2.89,2.89,0,0,0-2.85-2c-2.59,0-7.25.34-11,.62-1.82.14-3.48.26-4.68.33Z" fill="#fff"/>
      <path id="Trazado_111852" data-name="Trazado 111852" d="M148.8,184.16c3-.17,9.48-.76,12.56-.76a2.76,2.76,0,0,1,2.73,1.93c.57,2.2.44,6.57.29,10.61a2.35,2.35,0,0,1-2.52,2.13l-11.35-.23a2.63,2.63,0,0,1-2.66-2.23l-.89-9.53a1.85,1.85,0,0,1,1.84-1.92Z" fill="#fff" opacity="0.6"/>
      <g id="Grupo_55491" data-name="Grupo 55491" opacity="0.6">
        <path id="Trazado_111853" data-name="Trazado 111853" d="M177.07,188.16a1.44,1.44,0,0,0-1.52,1.88l.81,3.22a2.76,2.76,0,0,0,2.5,2l69.82.77a2,2,0,0,0,2-2v-1.28a2.14,2.14,0,0,0-2-2.08Z" fill="#fff"/>
      </g>
      <path id="Trazado_111854" data-name="Trazado 111854" d="M149.39,186h0a2.18,2.18,0,0,1,3,.85l2.74,5.05a.7.7,0,0,0,1.25,0l7.12-15.39a.78.78,0,0,1,1.48.35A30.57,30.57,0,0,1,155.86,198s-4.15-1.66-7.42-9.06A2.28,2.28,0,0,1,149.39,186Z" fill="#ef2a66"/>
      <path id="Trazado_111855" data-name="Trazado 111855" d="M161.68,230.48h0l-14.2-.29a3.85,3.85,0,0,1-3.89-3.32l-1.12-11.93a2.66,2.66,0,0,1,.64-2,3.12,3.12,0,0,1,2.21-1.05h0c1.2-.07,2.85-.2,4.67-.33,4-.29,8.44-.63,11.07-.63a4,4,0,0,1,4,2.85c.71,2.75.59,7.93.39,13.44a3.55,3.55,0,0,1-3.77,3.26Zm-16.33-17.41a2,2,0,0,0-1.4.66,1.47,1.47,0,0,0-.36,1.1l1.11,11.93a2.7,2.7,0,0,0,2.77,2.27l14.2.29h0a2.37,2.37,0,0,0,2.53-2.11c.2-5.43.32-10.51-.35-13.11a2.92,2.92,0,0,0-2.86-2c-2.59,0-7.24.35-11,.62-1.82.14-3.48.26-4.68.33Z" fill="#fff"/>
      <path id="Trazado_111856" data-name="Trazado 111856" d="M146.86,214.28c3-.17,9.48-.75,12.55-.76a2.75,2.75,0,0,1,2.73,1.93c.57,2.2.45,6.58.3,10.61a2.37,2.37,0,0,1-2.52,2.14l-11.35-.2a2.63,2.63,0,0,1-2.66-2.23L145,216.2a1.85,1.85,0,0,1,1.86-1.92Z" fill="#fff" opacity="0.6"/>
      <g id="Grupo_55492" data-name="Grupo 55492" opacity="0.6">
        <path id="Trazado_111857" data-name="Trazado 111857" d="M175.13,218.28a1.43,1.43,0,0,0-1.52,1.88l.81,3.22a2.76,2.76,0,0,0,2.5,2l69.82.77a2,2,0,0,0,2-2v-1.28a2.12,2.12,0,0,0-2-2.08Z" fill="#fff"/>
      </g>
      <path id="Trazado_111858" data-name="Trazado 111858" d="M147.44,216.16h0a2.18,2.18,0,0,1,3,.85l2.75,5.05a.7.7,0,0,0,1.25,0l7.12-15.39A.77.77,0,0,1,163,207a30.54,30.54,0,0,1-9.11,21.16s-4.15-1.67-7.43-9.07a2.3,2.3,0,0,1,.98-2.93Z" fill="#ef2a66"/>
      <path id="Trazado_111859" data-name="Trazado 111859" d="M208.74,25.21c-4.42-3.36-8.38-3.47-11.2-2.77a5.55,5.55,0,0,0-4.2,5.67L194,41.29l14.25,1.89S217.4,31.81,208.74,25.21ZM202,35.52a3.56,3.56,0,1,1,2.569-.932A3.57,3.57,0,0,1,202,35.52Z" fill="url(#linear-gradient-4)"/>
      <path id="Trazado_111860" data-name="Trazado 111860" d="M195.38,36.14a.73.73,0,0,1-.44-.62l-.1-2.1a.711.711,0,0,1,1.42-.07l.1,2.1a.71.71,0,0,1-.67.74.63.63,0,0,1-.31-.05Zm-.2-4.11a.71.71,0,0,1-.43-.62l-.08-1.6A5.68,5.68,0,0,1,199,24a11,11,0,0,1,5.41,0,.711.711,0,1,1-.34,1.38,9.71,9.71,0,0,0-4.73,0,4.26,4.26,0,0,0-3.2,4.34l.07,1.59a.71.71,0,0,1-.67.74.65.65,0,0,1-.36-.05Z" fill="#fff"/>
      <path id="Trazado_111861" data-name="Trazado 111861" d="M174.08,48.92l.28-6.6a4,4,0,0,1,4.34-3.84L224.12,42a3.92,3.92,0,0,1,3.61,3.84l.11,6.36Z" fill="url(#linear-gradient-5)"/>
      <path id="Trazado_111862" data-name="Trazado 111862" d="M191.41,41.68h0l-1.95-.09a.5.5,0,0,1,0-1l2,.08a.52.52,0,0,1,.48.53.5.5,0,0,1-.53.48Z" fill="#fff"/>
      <path id="Trazado_111863" data-name="Trazado 111863" d="M176.37,47.27a.71.71,0,0,1-.43-.69l.11-2.67A4.1,4.1,0,0,1,180.33,40l7.19.31a.711.711,0,1,1-.06,1.42l-7.19-.32a2.69,2.69,0,0,0-2.8,2.57l-.12,2.67a.7.7,0,0,1-.74.68,1,1,0,0,1-.24-.06Z" fill="#fff"/>
      <path id="Trazado_111864" data-name="Trazado 111864" d="M159.93,45.89l79.54,3.44a5.89,5.89,0,0,1,5.58,5.13v.39a5.06,5.06,0,0,1-5.23,5.7L158.27,57a3.28,3.28,0,0,1-3.13-3.58l.33-3.65A4.29,4.29,0,0,1,159.93,45.89Z" fill="url(#linear-gradient-6)"/>
      <path id="Trazado_111865" data-name="Trazado 111865" d="M148.56,108.8,33.13,129.32a8.44,8.44,0,0,0-6.69,10.42l.21.79a7.84,7.84,0,0,0,9.6,5.61l113.9-30.33Z" fill="url(#linear-gradient-7)"/>
      <ellipse id="Elipse_4475" data-name="Elipse 4475" cx="53.41" cy="54.39" rx="53.41" ry="54.39" transform="matrix(0.172, -0.985, 0.985, 0.172, 139.832, 137.013)" fill="#fff" opacity="0.5"/>
      <path id="Trazado_111866" data-name="Trazado 111866" d="M212.84,35.22C179.91,29.47,148.64,51,143,83.34s16.45,63.2,49.38,69,64.19-15.79,69.84-48.12S245.76,41,212.84,35.22Zm-19,108.48c-28.09-4.91-47-31.25-42.13-58.83s31.51-46,59.59-41.05,46.95,31.25,42.13,58.83S222,148.61,193.87,143.7Z" fill="url(#linear-gradient-8)"/>
      <path id="Trazado_111867" data-name="Trazado 111867" d="M146.24,91.18a.23.23,0,0,1-.14-.21c.07-1.41.19-2.84.37-4.25a.22.22,0,0,1,.24-.19.23.23,0,0,1,.19.25c-.17,1.39-.29,2.81-.36,4.21a.23.23,0,0,1-.23.21Zm3.27-16.3a.21.21,0,0,1-.12-.27,54.38,54.38,0,0,1,5.12-10.41A55.74,55.74,0,0,1,179,43.1a57.46,57.46,0,0,1,61.61,9.72.21.21,0,0,1,0,.3.22.22,0,0,1-.31,0,56.77,56.77,0,0,0-28.22-13.68,55.93,55.93,0,0,0-57.21,25,54.42,54.42,0,0,0-5.08,10.33.22.22,0,0,1-.28.13Z" fill="url(#linear-gradient-9)"/>
      <path id="Trazado_111868" data-name="Trazado 111868" d="M83.34,174.91,71.07,178l3.07,23A26.18,26.18,0,0,0,68,211.72c-1.53,6.13-3,31.89-3,31.89l-2.91,1.76-.35,1.47,8.47,11.39-1.41-9.07c-.22-1.43.17-4.35.05-4.41,4.6-12.27,14.44-46.84,14.44-46.84Z" fill="url(#linear-gradient-10)"/>
      <path id="Trazado_111869" data-name="Trazado 111869" d="M86.92,247h-.39c.59-7.4,3.3-39.95,6-52.15,3.07-13.81-4.6-41.41-4.6-41.41l-13.8,13.8,7.67,26.07c-5.26,7.88.85,54.05.72,54v.1l-2,2.75.24,1.49L93,258.9l-4.81-7.81A8.77,8.77,0,0,1,86.92,247Z" fill="url(#linear-gradient-11)"/>
      <path id="Trazado_111870" data-name="Trazado 111870" d="M71.4,92.22s-26.88,37.29,0,56.41l2.74-2.44s-13.35-15.73,0-35Z" fill="url(#linear-gradient-12)"/>
      <path id="Trazado_111871" data-name="Trazado 111871" d="M93.81,260h-3.9a2.34,2.34,0,0,1-1.86-.92c-1.22-1.58-3.74-4.66-4.94-4.74-1.63-.11-1.42,5.66-1.42,5.66h-.91l-1.15-7.17a4.24,4.24,0,0,1,2.23-4.43h0a6,6,0,0,0,2.38,4c2,1.21,8.18,5.55,8.18,5.55A5.481,5.481,0,0,1,94,258a1,1,0,1,1-.19,2Z" fill="url(#linear-gradient-13)"/>
      <path id="Trazado_111872" data-name="Trazado 111872" d="M70.56,259.58,67,258.07a2.35,2.35,0,0,1-1.37-1.56c-.51-1.93-1.63-5.75-2.71-6.29-1.45-.73-3.5,4.66-3.5,4.66l-.84-.35,1.72-7.05a4.24,4.24,0,0,1,3.7-3.22h0a6,6,0,0,0,.66,4.57c1.38,1.89,5.39,8.29,5.39,8.29a5.389,5.389,0,0,1,1.44.65,1.017,1.017,0,0,1-.93,1.81Z" fill="url(#linear-gradient-14)"/>
      <path id="Trazado_111873" data-name="Trazado 111873" d="M91.46,130.1s-.46,2.76.21,10.36S95.49,165.9,94.84,183c0,0-9,2.09-24.58,1.1,0,0-6.59-26.66-5-36.79s10.3-17.4,10.3-17.4Z" fill="#12263f"/>
      <path id="Trazado_111874" data-name="Trazado 111874" d="M84.82,79.31l1.1,12.91H75.49l2.59-19.7Z" fill="url(#linear-gradient-15)"/>
      <path id="Trazado_111875" data-name="Trazado 111875" d="M72.4,90.43c3.6-.2,11.65-.56,17.35-.25a6.62,6.62,0,0,1,6.13,5.26l1.39,6.66a16.12,16.12,0,0,1-.23,7.5l-5.58,20.5s-5,3-15.88-.21c0,0-9.57-22.84-5.65-37.45a2.72,2.72,0,0,1,2.47-2.01Z" fill="#ef2a66"/>
      <path id="Trazado_111876" data-name="Trazado 111876" d="M95.6,94.24c1.54,4.05,2.93,8.29,4.42,12.26.76,2,1.52,3.94,2.35,5.73.41.89.87,1.71,1.29,2.46a11.361,11.361,0,0,0,1.14,1.63.575.575,0,0,1-.17.07c-.05,0,1,.18,1.37.23h1.28a43.291,43.291,0,0,0,6-.82c4.22-.79,8.6-1.89,13.11-2.73h0a1.59,1.59,0,0,1,1.85,1.27,1.61,1.61,0,0,1-.51,1.48A46.24,46.24,0,0,1,122,120c-1,.61-2,1.21-3.06,1.79s-2.12,1.08-3.23,1.59a37.62,37.62,0,0,1-7.16,2.43c-.69.12-1.38.24-2.09.33a23.733,23.733,0,0,1-2.41,0,9.72,9.72,0,0,1-1.4-.17,6.33,6.33,0,0,1-.73-.13c-.32-.1-.64-.2-1-.32a9.681,9.681,0,0,1-1.61-.82,15.282,15.282,0,0,1-1.24-.91A16.73,16.73,0,0,1,95,120.21a29.47,29.47,0,0,1-2-3.49,47.109,47.109,0,0,1-2.72-6.87,64.83,64.83,0,0,1-2.84-13.91,4.18,4.18,0,0,1,8.07-1.85Z" fill="url(#linear-gradient-16)"/>
      <path id="Trazado_111877" data-name="Trazado 111877" d="M125,115.13l1.86-4.42,9.79-2.44s.79,1.7-3.33,2.44a3.59,3.59,0,0,1,.69,3.53C133.21,116.15,124.88,118.07,125,115.13Z" fill="url(#linear-gradient-17)"/>
      <path id="Trazado_111878" data-name="Trazado 111878" d="M89.24,64.4c.37.22,3.3,10.57.84,14.91s-10-.52-12-6.8S79.32,58.55,89.24,64.4Z" fill="url(#linear-gradient-18)"/>
      <path id="Trazado_111879" data-name="Trazado 111879" d="M69.78,72.51c-1.69,8.26-7.27,6-11.22,9.67C52.16,88.13,43,82,34.09,87.63c-6.43,4.07-9.53,14.48-6.45,22.89,4.28,11.65,18.88,16.43,26.45,12.89C61.33,120,60.3,109.87,70,105.94c4.13-1.66,6.17-.58,8.65-3C83,98.57,81.84,90.18,81.39,87c-1-7-3.33-8.27-2.2-11.36,2.18-6,12.37-4.75,13.22-9,.78-3.85-6.61-11.16-13.56-10C68.09,58.38,70.53,68.84,69.78,72.51Z" fill="#781533"/>
    </g>
  </g>
</svg>
