<svg xmlns="http://www.w3.org/2000/svg" width="875" height="353" viewBox="0 0 875 353">
  <g id="Grupo_18939" data-name="Grupo 18939" transform="translate(-422 -2669)">
    <g id="Grupo_18877" data-name="Grupo 18877">
      <path id="Trazado_35412" data-name="Trazado 35412" d="M51,0H823a51,51,0,0,1,0,102H51A51,51,0,0,1,51,0Z" transform="translate(423 2920)" fill="#bafaf1"/>
      <path id="Trazado_35407" data-name="Trazado 35407" d="M51,0H821a51,51,0,0,1,0,102H51A51,51,0,0,1,51,0Z" transform="translate(423 2795)" fill="#fadec2"/>
      <path id="Trazado_35404" data-name="Trazado 35404" d="M51,0H556a51,51,0,0,1,0,102H51A51,51,0,0,1,51,0Z" transform="translate(422 2669)" fill="#ddd5fc"/>
      <path id="Trazado_35408" data-name="Trazado 35408" d="M9.766-11.846H4.355v3.857H9.141v2.061H4.355V-2.09h5.41V0H1.992V-13.926H9.766ZM15.83.186a5.057,5.057,0,0,1-2.754-.7,2.915,2.915,0,0,1-1.348-2.026l1.9-.537A2.035,2.035,0,0,0,14.4-1.841a2.376,2.376,0,0,0,1.426.415,2.276,2.276,0,0,0,1.191-.293,1,1,0,0,0,.479-.947.916.916,0,0,0-.127-.483,1.328,1.328,0,0,0-.3-.352,2.113,2.113,0,0,0-.5-.278,5.674,5.674,0,0,0-.6-.215l-.728-.215q-.459-.137-.762-.234a6.943,6.943,0,0,1-.937-.361,4.449,4.449,0,0,1-.771-.488,1.911,1.911,0,0,1-.591-.767,2.7,2.7,0,0,1-.2-1.079,2.583,2.583,0,0,1,.5-1.611A2.832,2.832,0,0,1,13.789-9.7a5.36,5.36,0,0,1,1.855-.3,4.585,4.585,0,0,1,2.485.635,2.774,2.774,0,0,1,1.255,1.943L17.607-7A1.771,1.771,0,0,0,16.9-8.1a2.177,2.177,0,0,0-1.245-.352,2.175,2.175,0,0,0-1.138.278.92.92,0,0,0-.464.845,1.146,1.146,0,0,0,.034.288.562.562,0,0,0,.132.239q.1.107.176.19a.917.917,0,0,0,.254.171q.176.088.283.137a3.074,3.074,0,0,0,.352.122l.361.107q.117.034.405.107l.405.1q.547.146.933.273a5.381,5.381,0,0,1,.85.376,2.961,2.961,0,0,1,.752.552,2.466,2.466,0,0,1,.483.786,2.857,2.857,0,0,1,.2,1.079,2.914,2.914,0,0,1-.312,1.382,2.376,2.376,0,0,1-.854.928,4.187,4.187,0,0,1-1.211.5A6.055,6.055,0,0,1,15.83.186Zm11.66-10.2a4.578,4.578,0,0,1,2.329.605A4.416,4.416,0,0,1,31.5-7.622a5.64,5.64,0,0,1,.635,2.72,6.034,6.034,0,0,1-.366,2.144,4.607,4.607,0,0,1-1,1.621A4.486,4.486,0,0,1,29.292-.132a4.587,4.587,0,0,1-1.8.356,4.027,4.027,0,0,1-1.919-.459,3.167,3.167,0,0,1-1.313-1.26V4.863H22.012V-9.824H24.16l.059,1.6a3.117,3.117,0,0,1,1.313-1.313A4.042,4.042,0,0,1,27.49-10.01ZM27-1.68a2.719,2.719,0,0,0,2.061-.879,3.274,3.274,0,0,0,.83-2.344,3.239,3.239,0,0,0-.83-2.334A2.734,2.734,0,0,0,27-8.105a2.726,2.726,0,0,0-2.08.9,3.244,3.244,0,0,0-.84,2.3,3.275,3.275,0,0,0,.84,2.314A2.719,2.719,0,0,0,27-1.68Zm16.455-3.4-.029.566H35.957a2.964,2.964,0,0,0,.859,2.148,2.806,2.806,0,0,0,1.982.742,2.694,2.694,0,0,0,1.46-.4,2.524,2.524,0,0,0,.972-1.143l2.051.352a4.318,4.318,0,0,1-1.7,2.207,4.88,4.88,0,0,1-2.764.791,5.036,5.036,0,0,1-3.682-1.357,4.994,4.994,0,0,1-1.387-3.74,5.014,5.014,0,0,1,1.387-3.74A4.926,4.926,0,0,1,38.75-10.02a4.677,4.677,0,0,1,3.408,1.255A4.947,4.947,0,0,1,43.457-5.078ZM38.76-8.35a2.867,2.867,0,0,0-1.772.532,2.592,2.592,0,0,0-.933,1.626H41.2A2.368,2.368,0,0,0,40.42-7.8,2.5,2.5,0,0,0,38.76-8.35ZM50.107.176a4.985,4.985,0,0,1-3.662-1.411A4.958,4.958,0,0,1,45.02-4.922,4.933,4.933,0,0,1,46.45-8.6a5,5,0,0,1,3.657-1.406,4.992,4.992,0,0,1,3.013.9,4.264,4.264,0,0,1,1.646,2.524l-2.09.273a2.618,2.618,0,0,0-.962-1.406A2.71,2.71,0,0,0,50.088-8.2a2.577,2.577,0,0,0-2.031.9,3.479,3.479,0,0,0-.791,2.378,3.479,3.479,0,0,0,.791,2.378,2.577,2.577,0,0,0,2.031.9,2.729,2.729,0,0,0,1.626-.483,2.593,2.593,0,0,0,.962-1.4l2.09.264A4.27,4.27,0,0,1,53.11-.732,4.984,4.984,0,0,1,50.107.176ZM58.174-11.7A1.342,1.342,0,0,1,57.2-12.1a1.318,1.318,0,0,1-.41-.972,1.325,1.325,0,0,1,.405-.972,1.337,1.337,0,0,1,.981-.405,1.33,1.33,0,0,1,.967.405,1.318,1.318,0,0,1,.41.972,1.318,1.318,0,0,1-.41.972A1.33,1.33,0,0,1,58.174-11.7ZM57.021,0V-9.824h2.256V0Zm6.035-11.367a5.816,5.816,0,0,1,.112-1.2,3.528,3.528,0,0,1,.313-.913,2.253,2.253,0,0,1,.513-.654,2.866,2.866,0,0,1,.664-.439,3.662,3.662,0,0,1,.83-.264,7.448,7.448,0,0,1,.942-.132Q66.895-15,67.49-15v1.826h-.352q-.1,0-.332.015a1.875,1.875,0,0,0-.342.044q-.107.029-.3.093a.762.762,0,0,0-.288.151q-.093.088-.225.225a.813.813,0,0,0-.19.317,3.749,3.749,0,0,0-.107.43,2.875,2.875,0,0,0-.049.552v1.523H67.49v1.758H65.3V0H63.057V-8.066h-1.9V-9.824h1.9ZM70.42-11.7a1.342,1.342,0,0,1-.977-.405,1.318,1.318,0,0,1-.41-.972,1.325,1.325,0,0,1,.405-.972,1.337,1.337,0,0,1,.981-.405,1.33,1.33,0,0,1,.967.405,1.318,1.318,0,0,1,.41.972,1.318,1.318,0,0,1-.41.972A1.33,1.33,0,0,1,70.42-11.7ZM69.268,0V-9.824h2.256V0Zm9.7.176A4.985,4.985,0,0,1,75.3-1.235a4.958,4.958,0,0,1-1.426-3.687A4.933,4.933,0,0,1,75.308-8.6a5,5,0,0,1,3.657-1.406,4.992,4.992,0,0,1,3.013.9,4.264,4.264,0,0,1,1.646,2.524l-2.09.273a2.618,2.618,0,0,0-.962-1.406A2.71,2.71,0,0,0,78.945-8.2a2.577,2.577,0,0,0-2.031.9,3.479,3.479,0,0,0-.791,2.378,3.479,3.479,0,0,0,.791,2.378,2.577,2.577,0,0,0,2.031.9,2.729,2.729,0,0,0,1.626-.483,2.593,2.593,0,0,0,.962-1.4l2.09.264A4.27,4.27,0,0,1,81.968-.732,4.984,4.984,0,0,1,78.965.176Zm9.229.01a4.077,4.077,0,0,1-1.5-.259A2.383,2.383,0,0,1,85.6-.952a2.614,2.614,0,0,1-.435-1.538,2.849,2.849,0,0,1,.2-1.1,2.4,2.4,0,0,1,.527-.806,3.1,3.1,0,0,1,.83-.566,5.953,5.953,0,0,1,1.016-.386q.513-.142,1.187-.269l1.484-.273q.908-.176.908-.889A1.4,1.4,0,0,0,90.771-8a2.331,2.331,0,0,0-1.377-.386,2.305,2.305,0,0,0-1.416.415,1.817,1.817,0,0,0-.664,1.313l-2.021-.371Q85.791-10,89.531-10a6.923,6.923,0,0,1,1.167.093,4.168,4.168,0,0,1,1.064.337,3.062,3.062,0,0,1,.894.62,2.706,2.706,0,0,1,.6,1,4.159,4.159,0,0,1,.225,1.421v3.809a1.555,1.555,0,0,0,.205.938.883.883,0,0,0,.723.254h.156V0H93.5Q91.826,0,91.5-1.3H91.4A3.193,3.193,0,0,1,90-.176,4.6,4.6,0,0,1,88.193.186Zm.527-1.768a2.612,2.612,0,0,0,1.963-.811,2.939,2.939,0,0,0,.781-2.129l-2.51.557a3.009,3.009,0,0,0-1.211.454.981.981,0,0,0-.4.835.944.944,0,0,0,.381.82A1.67,1.67,0,0,0,88.721-1.582ZM98.906-8.174a2.967,2.967,0,0,1,1.245-1.25,3.884,3.884,0,0,1,1.919-.508v2.051a3.461,3.461,0,0,0-2.319.659,2.8,2.8,0,0,0-.757,2.212V0H96.738V-9.824h2.168Zm21.025-1.836a3.452,3.452,0,0,1,2.412.815,2.96,2.96,0,0,1,.9,2.31V0h-2.256V-6.26A1.929,1.929,0,0,0,120.5-7.69a1.677,1.677,0,0,0-1.23-.483,1.841,1.841,0,0,0-1.411.581,2.554,2.554,0,0,0-.542,1.792V0h-2.285V-6.211a2,2,0,0,0-.493-1.465,1.691,1.691,0,0,0-1.255-.5,1.827,1.827,0,0,0-1.416.6,2.714,2.714,0,0,0-.547,1.87V0h-2.236V-9.824h2.236v1.211a3.169,3.169,0,0,1,2.773-1.4,3.724,3.724,0,0,1,1.758.4,2.6,2.6,0,0,1,1.133,1.138A3.261,3.261,0,0,1,119.932-10.01Zm15.234,4.932-.029.566h-7.471a2.964,2.964,0,0,0,.859,2.148,2.806,2.806,0,0,0,1.982.742,2.694,2.694,0,0,0,1.46-.4,2.524,2.524,0,0,0,.972-1.143l2.051.352a4.318,4.318,0,0,1-1.7,2.207,4.88,4.88,0,0,1-2.764.791,5.036,5.036,0,0,1-3.682-1.357,4.994,4.994,0,0,1-1.387-3.74,5.014,5.014,0,0,1,1.387-3.74,4.926,4.926,0,0,1,3.613-1.367,4.677,4.677,0,0,1,3.408,1.255A4.947,4.947,0,0,1,135.166-5.078Zm-4.7-3.271a2.867,2.867,0,0,0-1.772.532,2.592,2.592,0,0,0-.933,1.626h5.146a2.368,2.368,0,0,0-.781-1.611A2.5,2.5,0,0,0,130.469-8.35ZM140.957,0a2.778,2.778,0,0,1-2.07-.752,2.888,2.888,0,0,1-.742-2.119v-5.2h-1.963V-9.824h.674a1.536,1.536,0,0,0,1.157-.376,1.9,1.9,0,0,0,.356-1.313v-1.523h2.051v3.213h2.139v1.758H140.42v4.961a1.408,1.408,0,0,0,.337,1.021,1.214,1.214,0,0,0,.913.347h.889V0Zm6.152.186a4.077,4.077,0,0,1-1.5-.259,2.383,2.383,0,0,1-1.094-.879,2.614,2.614,0,0,1-.435-1.538,2.849,2.849,0,0,1,.2-1.1,2.406,2.406,0,0,1,.527-.806,3.1,3.1,0,0,1,.83-.566,5.953,5.953,0,0,1,1.016-.386q.513-.142,1.187-.269l1.484-.273q.908-.176.908-.889A1.4,1.4,0,0,0,149.688-8a2.331,2.331,0,0,0-1.377-.386,2.3,2.3,0,0,0-1.416.415,1.817,1.817,0,0,0-.664,1.313l-2.021-.371q.5-2.969,4.238-2.969a6.923,6.923,0,0,1,1.167.093,4.168,4.168,0,0,1,1.064.337,3.062,3.062,0,0,1,.894.62,2.706,2.706,0,0,1,.6,1,4.159,4.159,0,0,1,.225,1.421v3.809a1.555,1.555,0,0,0,.205.938.883.883,0,0,0,.723.254h.156V0h-1.064q-1.67,0-1.992-1.3h-.107a3.193,3.193,0,0,1-1.392,1.123A4.6,4.6,0,0,1,147.109.186Zm.527-1.768a2.612,2.612,0,0,0,1.963-.811,2.939,2.939,0,0,0,.781-2.129l-2.51.557a3.009,3.009,0,0,0-1.211.454.981.981,0,0,0-.4.835.944.944,0,0,0,.381.82A1.67,1.67,0,0,0,147.637-1.582Zm11.3,1.768a5.057,5.057,0,0,1-2.754-.7,2.915,2.915,0,0,1-1.348-2.026l1.9-.537a2.035,2.035,0,0,0,.771,1.235,2.376,2.376,0,0,0,1.426.415,2.276,2.276,0,0,0,1.191-.293,1,1,0,0,0,.479-.947.916.916,0,0,0-.127-.483,1.328,1.328,0,0,0-.3-.352,2.113,2.113,0,0,0-.5-.278,5.674,5.674,0,0,0-.6-.215l-.728-.215q-.459-.137-.762-.234a6.943,6.943,0,0,1-.937-.361,4.449,4.449,0,0,1-.771-.488,1.911,1.911,0,0,1-.591-.767,2.7,2.7,0,0,1-.2-1.079,2.583,2.583,0,0,1,.5-1.611,2.832,2.832,0,0,1,1.309-.952,5.36,5.36,0,0,1,1.855-.3,4.585,4.585,0,0,1,2.485.635,2.774,2.774,0,0,1,1.255,1.943L160.713-7A1.771,1.771,0,0,0,160-8.1a2.177,2.177,0,0,0-1.245-.352,2.175,2.175,0,0,0-1.138.278.92.92,0,0,0-.464.845,1.146,1.146,0,0,0,.034.288.562.562,0,0,0,.132.239q.1.107.176.19a.917.917,0,0,0,.254.171q.176.088.283.137a3.073,3.073,0,0,0,.352.122l.361.107q.117.034.405.107l.405.1q.547.146.933.273a5.382,5.382,0,0,1,.85.376,2.961,2.961,0,0,1,.752.552,2.466,2.466,0,0,1,.483.786,2.857,2.857,0,0,1,.2,1.079,2.914,2.914,0,0,1-.312,1.382,2.376,2.376,0,0,1-.854.928,4.187,4.187,0,0,1-1.211.5A6.055,6.055,0,0,1,158.936.186Zm17.617-10.01h2.334L173.008,4.619h-2.295l2.109-4.941-3.936-9.5h2.471l2.549,7.031ZM190.205.186A5.163,5.163,0,0,1,186.484-1.2a4.912,4.912,0,0,1-1.445-3.726,4.887,4.887,0,0,1,1.445-3.706,5.163,5.163,0,0,1,3.721-1.382,5.187,5.187,0,0,1,3.73,1.377,4.884,4.884,0,0,1,1.445,3.711A4.912,4.912,0,0,1,193.936-1.2,5.176,5.176,0,0,1,190.205.186Zm-.02-1.816a2.755,2.755,0,0,0,2.129-.908,3.394,3.394,0,0,0,.83-2.383,3.376,3.376,0,0,0-.83-2.378,2.762,2.762,0,0,0-2.129-.9,2.7,2.7,0,0,0-2.09.9,3.4,3.4,0,0,0-.82,2.378,3.431,3.431,0,0,0,.815,2.383A2.688,2.688,0,0,0,190.186-1.631Zm13.057-8.379a4.544,4.544,0,0,1,1.8.361,4.482,4.482,0,0,1,1.479,1.011,4.711,4.711,0,0,1,1,1.616,5.867,5.867,0,0,1,.371,2.119,6.005,6.005,0,0,1-.366,2.134,4.607,4.607,0,0,1-1,1.621,4.55,4.55,0,0,1-1.479,1.011,4.533,4.533,0,0,1-1.8.361,4.025,4.025,0,0,1-1.973-.483,3.123,3.123,0,0,1-1.309-1.313L199.9,0h-2.148V-15h2.236L200-8.291a3.126,3.126,0,0,1,1.309-1.265A4.074,4.074,0,0,1,203.242-10.01Zm-2.578,7.422a2.689,2.689,0,0,0,2.07.908,2.732,2.732,0,0,0,2.075-.889,3.27,3.27,0,0,0,.835-2.334,3.253,3.253,0,0,0-.835-2.329,2.739,2.739,0,0,0-2.075-.884,2.693,2.693,0,0,0-2.065.908,3.273,3.273,0,0,0-.835,2.3A3.3,3.3,0,0,0,200.664-2.588ZM211.445-11.7a1.342,1.342,0,0,1-.977-.405,1.318,1.318,0,0,1-.41-.972,1.325,1.325,0,0,1,.405-.972,1.337,1.337,0,0,1,.981-.405,1.33,1.33,0,0,1,.967.405,1.318,1.318,0,0,1,.41.972,1.318,1.318,0,0,1-.41.972A1.33,1.33,0,0,1,211.445-11.7ZM208.154,4.6V2.783a1.942,1.942,0,0,0,1.714-.62,4.757,4.757,0,0,0,.415-2.407v-9.58h2.275v9.58a5.5,5.5,0,0,1-1.016,3.716A4.376,4.376,0,0,1,208.154,4.6Zm16.5-9.678-.029.566h-7.471a2.964,2.964,0,0,0,.859,2.148A2.806,2.806,0,0,0,220-1.621a2.694,2.694,0,0,0,1.46-.4,2.524,2.524,0,0,0,.972-1.143l2.051.352a4.318,4.318,0,0,1-1.7,2.207,4.88,4.88,0,0,1-2.764.791,5.036,5.036,0,0,1-3.682-1.357,4.994,4.994,0,0,1-1.387-3.74,5.014,5.014,0,0,1,1.387-3.74,4.926,4.926,0,0,1,3.613-1.367,4.677,4.677,0,0,1,3.408,1.255A4.947,4.947,0,0,1,224.658-5.078Zm-4.7-3.271a2.867,2.867,0,0,0-1.772.532,2.592,2.592,0,0,0-.933,1.626H222.4a2.368,2.368,0,0,0-.781-1.611A2.5,2.5,0,0,0,219.961-8.35ZM230.449,0a2.778,2.778,0,0,1-2.07-.752,2.888,2.888,0,0,1-.742-2.119v-5.2h-1.963V-9.824h.674A1.536,1.536,0,0,0,227.5-10.2a1.9,1.9,0,0,0,.356-1.313v-1.523h2.051v3.213h2.139v1.758h-2.139v4.961a1.408,1.408,0,0,0,.337,1.021,1.214,1.214,0,0,0,.913.347h.889V0Zm5.068-11.7a1.342,1.342,0,0,1-.977-.405,1.318,1.318,0,0,1-.41-.972,1.325,1.325,0,0,1,.405-.972,1.337,1.337,0,0,1,.981-.405,1.33,1.33,0,0,1,.967.405,1.318,1.318,0,0,1,.41.972,1.318,1.318,0,0,1-.41.972A1.33,1.33,0,0,1,235.518-11.7ZM234.365,0V-9.824h2.256V0Zm11.7-9.824h2.393L244.365,0h-1.943l-4.062-9.824h2.383l2.646,7.246ZM254.15.186A5.163,5.163,0,0,1,250.43-1.2a4.912,4.912,0,0,1-1.445-3.726,4.887,4.887,0,0,1,1.445-3.706,5.163,5.163,0,0,1,3.721-1.382,5.187,5.187,0,0,1,3.73,1.377,4.884,4.884,0,0,1,1.445,3.711A4.912,4.912,0,0,1,257.881-1.2,5.176,5.176,0,0,1,254.15.186Zm-.02-1.816a2.755,2.755,0,0,0,2.129-.908,3.394,3.394,0,0,0,.83-2.383,3.376,3.376,0,0,0-.83-2.378,2.762,2.762,0,0,0-2.129-.9,2.7,2.7,0,0,0-2.09.9,3.4,3.4,0,0,0-.82,2.378,3.431,3.431,0,0,0,.815,2.383A2.688,2.688,0,0,0,254.131-1.631ZM264.98.186a5.057,5.057,0,0,1-2.754-.7,2.915,2.915,0,0,1-1.348-2.026l1.9-.537a2.035,2.035,0,0,0,.771,1.235,2.376,2.376,0,0,0,1.426.415,2.276,2.276,0,0,0,1.191-.293,1,1,0,0,0,.479-.947.916.916,0,0,0-.127-.483,1.328,1.328,0,0,0-.3-.352,2.112,2.112,0,0,0-.5-.278,5.674,5.674,0,0,0-.6-.215l-.728-.215q-.459-.137-.762-.234A6.943,6.943,0,0,1,262.7-4.8a4.448,4.448,0,0,1-.771-.488,1.911,1.911,0,0,1-.591-.767,2.7,2.7,0,0,1-.2-1.079,2.583,2.583,0,0,1,.5-1.611,2.832,2.832,0,0,1,1.309-.952,5.36,5.36,0,0,1,1.855-.3,4.585,4.585,0,0,1,2.485.635,2.774,2.774,0,0,1,1.255,1.943L266.758-7A1.771,1.771,0,0,0,266.05-8.1a2.177,2.177,0,0,0-1.245-.352,2.175,2.175,0,0,0-1.138.278.92.92,0,0,0-.464.845,1.146,1.146,0,0,0,.034.288.562.562,0,0,0,.132.239q.1.107.176.19a.917.917,0,0,0,.254.171q.176.088.283.137a3.076,3.076,0,0,0,.352.122l.361.107q.117.034.405.107l.405.1q.547.146.933.273a5.381,5.381,0,0,1,.85.376,2.961,2.961,0,0,1,.752.552,2.466,2.466,0,0,1,.483.786,2.857,2.857,0,0,1,.2,1.079,2.914,2.914,0,0,1-.312,1.382,2.376,2.376,0,0,1-.854.928,4.187,4.187,0,0,1-1.211.5A6.054,6.054,0,0,1,264.98.186Zm7.8.01a1.33,1.33,0,0,1-.967-.405,1.307,1.307,0,0,1-.41-.962,1.318,1.318,0,0,1,.41-.972,1.33,1.33,0,0,1,.967-.405,1.325,1.325,0,0,1,.972.405,1.325,1.325,0,0,1,.405.972,1.309,1.309,0,0,1-.405.967A1.334,1.334,0,0,1,272.783.2Z" transform="translate(562 2723)" fill="#00223d"/>
      <path id="Trazado_35410" data-name="Trazado 35410" d="M8.789-10.661H3.92v3.472H8.227v1.854H3.92v3.454H8.789V0h-7V-12.533h7ZM11.294,0V-13.5h2.039V0ZM24.223-4.57l-.026.51H17.473a2.667,2.667,0,0,0,.773,1.934,2.525,2.525,0,0,0,1.784.668,2.424,2.424,0,0,0,1.314-.36,2.272,2.272,0,0,0,.875-1.028l1.846.316A3.886,3.886,0,0,1,22.535-.545a4.392,4.392,0,0,1-2.487.712,4.533,4.533,0,0,1-3.313-1.222,4.494,4.494,0,0,1-1.248-3.366,4.512,4.512,0,0,1,1.248-3.366,4.433,4.433,0,0,1,3.252-1.23,4.21,4.21,0,0,1,3.067,1.129A4.453,4.453,0,0,1,24.223-4.57ZM20-7.515a2.58,2.58,0,0,0-1.6.479,2.332,2.332,0,0,0-.839,1.463h4.632a2.131,2.131,0,0,0-.7-1.45A2.251,2.251,0,0,0,20-7.515ZM32.607-8.842h1.951V-.554a4.813,4.813,0,0,1-1.191,3.546,4.473,4.473,0,0,1-3.309,1.191q-3.349,0-4.43-2.725L27.308.7a3.11,3.11,0,0,0,1.037,1.4,2.756,2.756,0,0,0,1.635.461,2.319,2.319,0,0,0,1.9-.778,3.387,3.387,0,0,0,.642-2.21v-1.31a2.923,2.923,0,0,1-1.182,1.05,3.664,3.664,0,0,1-1.7.4,3.8,3.8,0,0,1-2.861-1.23A4.374,4.374,0,0,1,25.6-4.658a4.794,4.794,0,0,1,.325-1.78,4.076,4.076,0,0,1,.875-1.38,4,4,0,0,1,1.288-.875,3.93,3.93,0,0,1,1.564-.316,3.552,3.552,0,0,1,1.736.426,2.85,2.85,0,0,1,1.165,1.129ZM30.129-1.951a2.418,2.418,0,0,0,1.828-.791A2.689,2.689,0,0,0,32.7-4.658a2.713,2.713,0,0,0-.743-1.92,2.408,2.408,0,0,0-1.833-.8A2.426,2.426,0,0,0,28.3-6.6a2.7,2.7,0,0,0-.738,1.942,2.677,2.677,0,0,0,.747,1.929A2.427,2.427,0,0,0,30.129-1.951Zm8.323-8.578a1.207,1.207,0,0,1-.879-.365,1.186,1.186,0,0,1-.369-.875,1.193,1.193,0,0,1,.365-.875,1.2,1.2,0,0,1,.883-.365,1.2,1.2,0,0,1,.87.365,1.186,1.186,0,0,1,.369.875,1.186,1.186,0,0,1-.369.875A1.2,1.2,0,0,1,38.452-10.529ZM37.415,0V-8.842h2.03V0Zm6.847-7.356a2.67,2.67,0,0,1,1.121-1.125,3.5,3.5,0,0,1,1.727-.457v1.846a3.115,3.115,0,0,0-2.087.593,2.523,2.523,0,0,0-.681,1.991V0h-2.03V-8.842h1.951ZM58.351-9.009a4.12,4.12,0,0,1,2.1.545,3.975,3.975,0,0,1,1.516,1.6,5.076,5.076,0,0,1,.571,2.448,5.431,5.431,0,0,1-.33,1.929,4.146,4.146,0,0,1-.9,1.459,4.038,4.038,0,0,1-1.332.905A4.128,4.128,0,0,1,58.351.2a3.624,3.624,0,0,1-1.727-.413,2.851,2.851,0,0,1-1.182-1.134V4.377H53.42V-8.842h1.934L55.406-7.4a2.805,2.805,0,0,1,1.182-1.182A3.638,3.638,0,0,1,58.351-9.009Zm-.439,7.5A2.447,2.447,0,0,0,59.766-2.3a2.946,2.946,0,0,0,.747-2.109,2.915,2.915,0,0,0-.747-2.1,2.461,2.461,0,0,0-1.854-.782,2.453,2.453,0,0,0-1.872.813,2.92,2.92,0,0,0-.756,2.07,2.948,2.948,0,0,0,.756,2.083A2.447,2.447,0,0,0,57.911-1.512ZM68.616.167a4.647,4.647,0,0,1-3.349-1.244,4.421,4.421,0,0,1-1.3-3.353,4.4,4.4,0,0,1,1.3-3.335,4.647,4.647,0,0,1,3.349-1.244A4.668,4.668,0,0,1,71.974-7.77a4.4,4.4,0,0,1,1.3,3.34,4.421,4.421,0,0,1-1.3,3.353A4.658,4.658,0,0,1,68.616.167ZM68.6-1.468a2.479,2.479,0,0,0,1.916-.817,3.055,3.055,0,0,0,.747-2.145,3.039,3.039,0,0,0-.747-2.14A2.485,2.485,0,0,0,68.6-7.383a2.428,2.428,0,0,0-1.881.813,3.061,3.061,0,0,0-.738,2.14,3.088,3.088,0,0,0,.734,2.145A2.419,2.419,0,0,0,68.6-1.468ZM75.41,0V-13.5h2.039V0Zm5.247-10.2,2.259-3.059,1.028.738L81.967-10.2ZM80.314,0V-8.842h2.03V0Zm7.954,0a2.5,2.5,0,0,1-1.863-.677,2.6,2.6,0,0,1-.668-1.907V-7.26H83.971V-8.842h.606a1.382,1.382,0,0,0,1.042-.338,1.709,1.709,0,0,0,.321-1.182v-1.371h1.846v2.892H89.71V-7.26H87.785v4.465a1.267,1.267,0,0,0,.3.918,1.093,1.093,0,0,0,.822.312h.8V0ZM92.83-10.529a1.207,1.207,0,0,1-.879-.365,1.186,1.186,0,0,1-.369-.875,1.193,1.193,0,0,1,.365-.875,1.2,1.2,0,0,1,.883-.365,1.2,1.2,0,0,1,.87.365,1.186,1.186,0,0,1,.369.875,1.186,1.186,0,0,1-.369.875A1.2,1.2,0,0,1,92.83-10.529ZM91.793,0V-8.842h2.03V0Zm8.728.158a4.487,4.487,0,0,1-3.3-1.27A4.462,4.462,0,0,1,95.941-4.43a4.439,4.439,0,0,1,1.288-3.313,4.5,4.5,0,0,1,3.292-1.266,4.493,4.493,0,0,1,2.711.813,3.838,3.838,0,0,1,1.481,2.272l-1.881.246a2.356,2.356,0,0,0-.866-1.266,2.439,2.439,0,0,0-1.463-.439,2.32,2.32,0,0,0-1.828.813,3.131,3.131,0,0,0-.712,2.14,3.131,3.131,0,0,0,.712,2.14,2.32,2.32,0,0,0,1.828.813,2.456,2.456,0,0,0,1.463-.435,2.334,2.334,0,0,0,.866-1.261l1.881.237a3.843,3.843,0,0,1-1.49,2.276A4.485,4.485,0,0,1,100.521.158Zm8.306.009a3.669,3.669,0,0,1-1.349-.233,2.144,2.144,0,0,1-.984-.791,2.353,2.353,0,0,1-.391-1.384,2.564,2.564,0,0,1,.18-.989,2.165,2.165,0,0,1,.475-.725,2.789,2.789,0,0,1,.747-.51,5.358,5.358,0,0,1,.914-.347q.461-.127,1.068-.242l1.336-.246q.817-.158.817-.8a1.256,1.256,0,0,0-.492-1.1,2.1,2.1,0,0,0-1.239-.347,2.075,2.075,0,0,0-1.274.374,1.636,1.636,0,0,0-.6,1.182l-1.819-.334Q106.664-9,110.03-9a6.23,6.23,0,0,1,1.05.083,3.751,3.751,0,0,1,.958.3,2.756,2.756,0,0,1,.8.558,2.435,2.435,0,0,1,.536.9,3.743,3.743,0,0,1,.2,1.279v3.428a1.4,1.4,0,0,0,.185.844.8.8,0,0,0,.65.229h.141V0H113.6q-1.5,0-1.793-1.169h-.1a2.874,2.874,0,0,1-1.252,1.011A4.143,4.143,0,0,1,108.826.167Zm.475-1.591a2.351,2.351,0,0,0,1.767-.729,2.645,2.645,0,0,0,.7-1.916l-2.259.5a2.708,2.708,0,0,0-1.09.409.883.883,0,0,0-.36.751.849.849,0,0,0,.343.738A1.5,1.5,0,0,0,109.3-1.424ZM119.47.167a4.552,4.552,0,0,1-2.479-.628,2.623,2.623,0,0,1-1.213-1.824l1.714-.483a1.832,1.832,0,0,0,.694,1.112,2.138,2.138,0,0,0,1.283.374,2.049,2.049,0,0,0,1.072-.264.9.9,0,0,0,.431-.853.824.824,0,0,0-.114-.435,1.2,1.2,0,0,0-.272-.316,1.9,1.9,0,0,0-.453-.25,5.107,5.107,0,0,0-.536-.193l-.655-.193q-.413-.123-.686-.211a6.249,6.249,0,0,1-.844-.325,4,4,0,0,1-.694-.439,1.72,1.72,0,0,1-.532-.69,2.434,2.434,0,0,1-.18-.971,2.324,2.324,0,0,1,.448-1.45,2.549,2.549,0,0,1,1.178-.857A4.824,4.824,0,0,1,119.3-9a4.127,4.127,0,0,1,2.237.571,2.5,2.5,0,0,1,1.129,1.749l-1.6.378a1.594,1.594,0,0,0-.637-.984,1.96,1.96,0,0,0-1.121-.316,1.957,1.957,0,0,0-1.024.25.828.828,0,0,0-.417.76,1.032,1.032,0,0,0,.031.259.506.506,0,0,0,.119.215l.158.171a.825.825,0,0,0,.229.154q.158.079.255.123a2.767,2.767,0,0,0,.316.11l.325.1q.105.031.365.1l.365.092q.492.132.839.246a4.843,4.843,0,0,1,.765.338,2.665,2.665,0,0,1,.677.5,2.219,2.219,0,0,1,.435.708,2.571,2.571,0,0,1,.176.971,2.623,2.623,0,0,1-.281,1.244,2.139,2.139,0,0,1-.769.835,3.768,3.768,0,0,1-1.09.453A5.449,5.449,0,0,1,119.47.167Zm7.04,3.041h-1.459l1.09-5.6h2.092ZM140.44-9.009a4.12,4.12,0,0,1,2.1.545,3.975,3.975,0,0,1,1.516,1.6,5.076,5.076,0,0,1,.571,2.448,5.431,5.431,0,0,1-.33,1.929,4.146,4.146,0,0,1-.9,1.459,4.038,4.038,0,0,1-1.332.905A4.128,4.128,0,0,1,140.44.2a3.624,3.624,0,0,1-1.727-.413,2.851,2.851,0,0,1-1.182-1.134V4.377H135.51V-8.842h1.934L137.5-7.4a2.805,2.805,0,0,1,1.182-1.182A3.638,3.638,0,0,1,140.44-9.009ZM140-1.512a2.447,2.447,0,0,0,1.854-.791,2.946,2.946,0,0,0,.747-2.109,2.915,2.915,0,0,0-.747-2.1A2.461,2.461,0,0,0,140-7.295a2.453,2.453,0,0,0-1.872.813,2.92,2.92,0,0,0-.756,2.07,2.948,2.948,0,0,0,.756,2.083A2.447,2.447,0,0,0,140-1.512Zm8.736-5.845a2.67,2.67,0,0,1,1.121-1.125,3.5,3.5,0,0,1,1.727-.457v1.846A3.115,3.115,0,0,0,149.5-6.5a2.523,2.523,0,0,0-.681,1.991V0h-2.03V-8.842h1.951ZM157.052.167A4.647,4.647,0,0,1,153.7-1.077a4.421,4.421,0,0,1-1.3-3.353,4.4,4.4,0,0,1,1.3-3.335,4.647,4.647,0,0,1,3.349-1.244,4.668,4.668,0,0,1,3.357,1.239,4.4,4.4,0,0,1,1.3,3.34,4.421,4.421,0,0,1-1.3,3.353A4.658,4.658,0,0,1,157.052.167Zm-.018-1.635a2.479,2.479,0,0,0,1.916-.817A3.055,3.055,0,0,0,159.7-4.43a3.039,3.039,0,0,0-.747-2.14,2.485,2.485,0,0,0-1.916-.813,2.428,2.428,0,0,0-1.881.813,3.061,3.061,0,0,0-.738,2.14,3.088,3.088,0,0,0,.734,2.145A2.419,2.419,0,0,0,157.034-1.468Zm13.043-7.374h1.951V-.554a4.813,4.813,0,0,1-1.191,3.546,4.473,4.473,0,0,1-3.309,1.191q-3.349,0-4.43-2.725L164.777.7a3.11,3.11,0,0,0,1.037,1.4,2.756,2.756,0,0,0,1.635.461,2.319,2.319,0,0,0,1.9-.778,3.387,3.387,0,0,0,.642-2.21v-1.31a2.923,2.923,0,0,1-1.182,1.05,3.664,3.664,0,0,1-1.7.4,3.8,3.8,0,0,1-2.861-1.23,4.374,4.374,0,0,1-1.173-3.146,4.794,4.794,0,0,1,.325-1.78,4.076,4.076,0,0,1,.875-1.38,4,4,0,0,1,1.288-.875,3.93,3.93,0,0,1,1.564-.316,3.552,3.552,0,0,1,1.736.426,2.85,2.85,0,0,1,1.165,1.129ZM167.6-1.951a2.418,2.418,0,0,0,1.828-.791,2.689,2.689,0,0,0,.747-1.916,2.713,2.713,0,0,0-.743-1.92,2.408,2.408,0,0,0-1.833-.8,2.426,2.426,0,0,0-1.828.773,2.7,2.7,0,0,0-.738,1.942,2.677,2.677,0,0,0,.747,1.929A2.427,2.427,0,0,0,167.6-1.951Zm9.237-5.405a2.67,2.67,0,0,1,1.121-1.125,3.5,3.5,0,0,1,1.727-.457v1.846A3.115,3.115,0,0,0,177.6-6.5a2.523,2.523,0,0,0-.681,1.991V0h-2.03V-8.842h1.951ZM183.313.167a3.669,3.669,0,0,1-1.349-.233,2.144,2.144,0,0,1-.984-.791,2.353,2.353,0,0,1-.391-1.384,2.564,2.564,0,0,1,.18-.989,2.165,2.165,0,0,1,.475-.725,2.789,2.789,0,0,1,.747-.51,5.358,5.358,0,0,1,.914-.347q.461-.127,1.068-.242l1.336-.246q.817-.158.817-.8a1.256,1.256,0,0,0-.492-1.1,2.1,2.1,0,0,0-1.239-.347,2.075,2.075,0,0,0-1.274.374,1.636,1.636,0,0,0-.6,1.182L180.7-6.328Q181.151-9,184.518-9a6.23,6.23,0,0,1,1.05.083,3.751,3.751,0,0,1,.958.3,2.756,2.756,0,0,1,.8.558,2.435,2.435,0,0,1,.536.9,3.743,3.743,0,0,1,.2,1.279v3.428a1.4,1.4,0,0,0,.185.844.8.8,0,0,0,.65.229h.141V0h-.958q-1.5,0-1.793-1.169h-.1a2.874,2.874,0,0,1-1.252,1.011A4.143,4.143,0,0,1,183.313.167Zm.475-1.591a2.351,2.351,0,0,0,1.767-.729,2.645,2.645,0,0,0,.7-1.916l-2.259.5a2.708,2.708,0,0,0-1.09.409.883.883,0,0,0-.36.751.849.849,0,0,0,.343.738A1.5,1.5,0,0,0,183.788-1.424Zm16.98-7.585a3.107,3.107,0,0,1,2.171.734,2.664,2.664,0,0,1,.809,2.079V0h-2.03V-5.634a1.736,1.736,0,0,0-.439-1.288,1.509,1.509,0,0,0-1.107-.435,1.657,1.657,0,0,0-1.27.523,2.3,2.3,0,0,0-.488,1.613V0h-2.057V-5.59a1.8,1.8,0,0,0-.444-1.318,1.522,1.522,0,0,0-1.129-.448,1.644,1.644,0,0,0-1.274.541,2.442,2.442,0,0,0-.492,1.683V0H191V-8.842h2.013v1.09a2.852,2.852,0,0,1,2.5-1.257,3.351,3.351,0,0,1,1.582.356,2.342,2.342,0,0,1,1.02,1.024A2.935,2.935,0,0,1,200.769-9.009Zm7.77,9.176a3.669,3.669,0,0,1-1.349-.233,2.144,2.144,0,0,1-.984-.791,2.353,2.353,0,0,1-.391-1.384,2.564,2.564,0,0,1,.18-.989,2.165,2.165,0,0,1,.475-.725,2.789,2.789,0,0,1,.747-.51,5.358,5.358,0,0,1,.914-.347q.461-.127,1.068-.242l1.336-.246q.817-.158.817-.8a1.256,1.256,0,0,0-.492-1.1,2.1,2.1,0,0,0-1.239-.347,2.075,2.075,0,0,0-1.274.374,1.636,1.636,0,0,0-.6,1.182l-1.819-.334Q206.376-9,209.742-9a6.23,6.23,0,0,1,1.05.083,3.751,3.751,0,0,1,.958.3,2.756,2.756,0,0,1,.8.558,2.435,2.435,0,0,1,.536.9,3.743,3.743,0,0,1,.2,1.279v3.428a1.4,1.4,0,0,0,.185.844.8.8,0,0,0,.65.229h.141V0h-.958q-1.5,0-1.793-1.169h-.1a2.874,2.874,0,0,1-1.252,1.011A4.143,4.143,0,0,1,208.538.167Zm.475-1.591a2.351,2.351,0,0,0,1.767-.729,2.645,2.645,0,0,0,.7-1.916l-2.259.5a2.708,2.708,0,0,0-1.09.409.883.883,0,0,0-.36.751.849.849,0,0,0,.343.738A1.5,1.5,0,0,0,209.013-1.424ZM219.182.167A4.552,4.552,0,0,1,216.7-.461a2.623,2.623,0,0,1-1.213-1.824l1.714-.483a1.832,1.832,0,0,0,.694,1.112,2.138,2.138,0,0,0,1.283.374,2.049,2.049,0,0,0,1.072-.264.9.9,0,0,0,.431-.853.824.824,0,0,0-.114-.435,1.2,1.2,0,0,0-.272-.316,1.9,1.9,0,0,0-.453-.25,5.107,5.107,0,0,0-.536-.193l-.655-.193q-.413-.123-.686-.211a6.249,6.249,0,0,1-.844-.325,4,4,0,0,1-.694-.439,1.72,1.72,0,0,1-.532-.69,2.434,2.434,0,0,1-.18-.971,2.324,2.324,0,0,1,.448-1.45,2.549,2.549,0,0,1,1.178-.857A4.824,4.824,0,0,1,219.015-9a4.127,4.127,0,0,1,2.237.571,2.5,2.5,0,0,1,1.129,1.749l-1.6.378a1.594,1.594,0,0,0-.637-.984,1.96,1.96,0,0,0-1.121-.316,1.957,1.957,0,0,0-1.024.25.828.828,0,0,0-.417.76,1.032,1.032,0,0,0,.031.259.506.506,0,0,0,.119.215l.158.171a.825.825,0,0,0,.229.154q.158.079.255.123a2.767,2.767,0,0,0,.316.11l.325.1q.105.031.365.1l.365.092q.492.132.839.246a4.843,4.843,0,0,1,.765.338,2.665,2.665,0,0,1,.677.5,2.219,2.219,0,0,1,.435.708,2.571,2.571,0,0,1,.176.971,2.623,2.623,0,0,1-.281,1.244,2.139,2.139,0,0,1-.769.835,3.768,3.768,0,0,1-1.09.453A5.449,5.449,0,0,1,219.182.167Zm7.04,3.041h-1.459l1.09-5.6h2.092ZM240.152-9.009a4.12,4.12,0,0,1,2.1.545,3.975,3.975,0,0,1,1.516,1.6,5.076,5.076,0,0,1,.571,2.448,5.431,5.431,0,0,1-.33,1.929,4.146,4.146,0,0,1-.9,1.459,4.038,4.038,0,0,1-1.332.905A4.128,4.128,0,0,1,240.152.2a3.624,3.624,0,0,1-1.727-.413,2.851,2.851,0,0,1-1.182-1.134V4.377h-2.021V-8.842h1.934l.053,1.441a2.805,2.805,0,0,1,1.182-1.182A3.638,3.638,0,0,1,240.152-9.009Zm-.439,7.5a2.447,2.447,0,0,0,1.854-.791,2.946,2.946,0,0,0,.747-2.109,2.915,2.915,0,0,0-.747-2.1,2.461,2.461,0,0,0-1.854-.782,2.453,2.453,0,0,0-1.872.813,2.92,2.92,0,0,0-.756,2.07,2.948,2.948,0,0,0,.756,2.083A2.447,2.447,0,0,0,239.713-1.512Zm8.736-5.845a2.67,2.67,0,0,1,1.121-1.125,3.5,3.5,0,0,1,1.727-.457v1.846a3.115,3.115,0,0,0-2.087.593,2.523,2.523,0,0,0-.681,1.991V0H246.5V-8.842h1.951ZM256.764.167a4.647,4.647,0,0,1-3.349-1.244,4.421,4.421,0,0,1-1.3-3.353,4.4,4.4,0,0,1,1.3-3.335,4.647,4.647,0,0,1,3.349-1.244,4.668,4.668,0,0,1,3.357,1.239,4.4,4.4,0,0,1,1.3,3.34,4.421,4.421,0,0,1-1.3,3.353A4.658,4.658,0,0,1,256.764.167Zm-.018-1.635a2.479,2.479,0,0,0,1.916-.817,3.055,3.055,0,0,0,.747-2.145,3.039,3.039,0,0,0-.747-2.14,2.485,2.485,0,0,0-1.916-.813,2.428,2.428,0,0,0-1.881.813,3.061,3.061,0,0,0-.738,2.14,3.088,3.088,0,0,0,.734,2.145A2.419,2.419,0,0,0,256.746-1.468ZM267.39.158a4.487,4.487,0,0,1-3.3-1.27,4.462,4.462,0,0,1-1.283-3.318A4.439,4.439,0,0,1,264.1-7.743a4.5,4.5,0,0,1,3.292-1.266A4.493,4.493,0,0,1,270.1-8.2a3.838,3.838,0,0,1,1.481,2.272l-1.881.246a2.356,2.356,0,0,0-.866-1.266,2.439,2.439,0,0,0-1.463-.439,2.32,2.32,0,0,0-1.828.813,3.131,3.131,0,0,0-.712,2.14,3.131,3.131,0,0,0,.712,2.14,2.32,2.32,0,0,0,1.828.813,2.456,2.456,0,0,0,1.463-.435,2.334,2.334,0,0,0,.866-1.261l1.881.237a3.843,3.843,0,0,1-1.49,2.276A4.485,4.485,0,0,1,267.39.158ZM281.637-4.57l-.026.51h-6.724a2.667,2.667,0,0,0,.773,1.934,2.525,2.525,0,0,0,1.784.668,2.424,2.424,0,0,0,1.314-.36,2.272,2.272,0,0,0,.875-1.028l1.846.316a3.886,3.886,0,0,1-1.529,1.986,4.392,4.392,0,0,1-2.487.712,4.533,4.533,0,0,1-3.313-1.222A4.494,4.494,0,0,1,272.9-4.421a4.512,4.512,0,0,1,1.248-3.366,4.433,4.433,0,0,1,3.252-1.23,4.21,4.21,0,0,1,3.067,1.129A4.453,4.453,0,0,1,281.637-4.57Zm-4.228-2.944a2.58,2.58,0,0,0-1.6.479,2.332,2.332,0,0,0-.839,1.463h4.632a2.131,2.131,0,0,0-.7-1.45A2.251,2.251,0,0,0,277.409-7.515ZM290.18-13.5H292.2V0h-1.934l-.053-1.406a2.845,2.845,0,0,1-1.182,1.178A3.608,3.608,0,0,1,287.271.2a4.08,4.08,0,0,1-1.622-.325,4.1,4.1,0,0,1-1.332-.91,4.2,4.2,0,0,1-.905-1.459,5.341,5.341,0,0,1-.334-1.92,5.28,5.28,0,0,1,.334-1.907,4.2,4.2,0,0,1,.905-1.455,4.082,4.082,0,0,1,1.336-.91,4.089,4.089,0,0,1,1.617-.325A3.656,3.656,0,0,1,289-8.6a2.84,2.84,0,0,1,1.182,1.121ZM285.847-2.312a2.472,2.472,0,0,0,1.872.8,2.42,2.42,0,0,0,1.863-.817,2.968,2.968,0,0,0,.747-2.083,2.946,2.946,0,0,0-.751-2.074,2.424,2.424,0,0,0-1.859-.817,2.465,2.465,0,0,0-1.868.8,2.927,2.927,0,0,0-.751,2.1A2.953,2.953,0,0,0,285.847-2.312ZM296.1-10.529a1.207,1.207,0,0,1-.879-.365,1.186,1.186,0,0,1-.369-.875,1.193,1.193,0,0,1,.365-.875,1.2,1.2,0,0,1,.883-.365,1.2,1.2,0,0,1,.87.365,1.186,1.186,0,0,1,.369.875,1.186,1.186,0,0,1-.369.875A1.2,1.2,0,0,1,296.1-10.529ZM295.066,0V-8.842h2.03V0Zm14.66-9.009a3.107,3.107,0,0,1,2.171.734,2.664,2.664,0,0,1,.809,2.079V0h-2.03V-5.634a1.736,1.736,0,0,0-.439-1.288,1.509,1.509,0,0,0-1.107-.435,1.657,1.657,0,0,0-1.27.523,2.3,2.3,0,0,0-.488,1.613V0h-2.057V-5.59a1.8,1.8,0,0,0-.444-1.318,1.522,1.522,0,0,0-1.129-.448,1.644,1.644,0,0,0-1.274.541,2.442,2.442,0,0,0-.492,1.683V0h-2.013V-8.842h2.013v1.09a2.852,2.852,0,0,1,2.5-1.257,3.351,3.351,0,0,1,1.582.356,2.342,2.342,0,0,1,1.02,1.024A2.935,2.935,0,0,1,309.727-9.009Zm6.724-1.521a1.207,1.207,0,0,1-.879-.365,1.186,1.186,0,0,1-.369-.875,1.193,1.193,0,0,1,.365-.875,1.2,1.2,0,0,1,.883-.365,1.2,1.2,0,0,1,.87.365,1.186,1.186,0,0,1,.369.875,1.186,1.186,0,0,1-.369.875A1.2,1.2,0,0,1,316.45-10.529ZM315.413,0V-8.842h2.03V0Zm12.92-4.57-.026.51h-6.724a2.667,2.667,0,0,0,.773,1.934,2.525,2.525,0,0,0,1.784.668,2.424,2.424,0,0,0,1.314-.36,2.272,2.272,0,0,0,.875-1.028l1.846.316a3.886,3.886,0,0,1-1.529,1.986,4.392,4.392,0,0,1-2.487.712,4.533,4.533,0,0,1-3.313-1.222A4.494,4.494,0,0,1,319.6-4.421a4.512,4.512,0,0,1,1.248-3.366,4.433,4.433,0,0,1,3.252-1.23,4.21,4.21,0,0,1,3.067,1.129A4.453,4.453,0,0,1,328.333-4.57Zm-4.228-2.944a2.58,2.58,0,0,0-1.6.479,2.332,2.332,0,0,0-.839,1.463H326.3a2.131,2.131,0,0,0-.7-1.45A2.251,2.251,0,0,0,324.105-7.515Zm11.083-1.494a3.273,3.273,0,0,1,2.338.8,2.96,2.96,0,0,1,.844,2.263V0h-2.039V-5.511a1.814,1.814,0,0,0-.488-1.393,1.768,1.768,0,0,0-1.252-.453A2.066,2.066,0,0,0,333.1-6.8a2.311,2.311,0,0,0-.589,1.718V0h-2.021V-8.842h2.021V-7.8a2.987,2.987,0,0,1,1.138-.9A3.658,3.658,0,0,1,335.188-9.009ZM344.118,0a2.5,2.5,0,0,1-1.863-.677,2.6,2.6,0,0,1-.668-1.907V-7.26H339.82V-8.842h.606a1.382,1.382,0,0,0,1.042-.338,1.709,1.709,0,0,0,.321-1.182v-1.371h1.846v2.892h1.925V-7.26h-1.925v4.465a1.267,1.267,0,0,0,.3.918,1.093,1.093,0,0,0,.822.312h.8V0Zm7.374.167a4.647,4.647,0,0,1-3.349-1.244,4.421,4.421,0,0,1-1.3-3.353,4.4,4.4,0,0,1,1.3-3.335,4.647,4.647,0,0,1,3.349-1.244A4.668,4.668,0,0,1,354.85-7.77a4.4,4.4,0,0,1,1.3,3.34,4.421,4.421,0,0,1-1.3,3.353A4.658,4.658,0,0,1,351.492.167Zm-.018-1.635a2.479,2.479,0,0,0,1.916-.817,3.055,3.055,0,0,0,.747-2.145,3.039,3.039,0,0,0-.747-2.14,2.485,2.485,0,0,0-1.916-.813,2.428,2.428,0,0,0-1.881.813,3.061,3.061,0,0,0-.738,2.14,3.088,3.088,0,0,0,.734,2.145A2.419,2.419,0,0,0,351.475-1.468ZM361.239.167a4.552,4.552,0,0,1-2.479-.628,2.623,2.623,0,0,1-1.213-1.824l1.714-.483a1.832,1.832,0,0,0,.694,1.112,2.138,2.138,0,0,0,1.283.374,2.049,2.049,0,0,0,1.072-.264.9.9,0,0,0,.431-.853.824.824,0,0,0-.114-.435,1.2,1.2,0,0,0-.272-.316,1.9,1.9,0,0,0-.453-.25,5.107,5.107,0,0,0-.536-.193l-.655-.193q-.413-.123-.686-.211a6.249,6.249,0,0,1-.844-.325,4,4,0,0,1-.694-.439,1.72,1.72,0,0,1-.532-.69,2.434,2.434,0,0,1-.18-.971,2.324,2.324,0,0,1,.448-1.45,2.549,2.549,0,0,1,1.178-.857A4.824,4.824,0,0,1,361.072-9a4.127,4.127,0,0,1,2.237.571,2.5,2.5,0,0,1,1.129,1.749l-1.6.378a1.594,1.594,0,0,0-.637-.984,1.96,1.96,0,0,0-1.121-.316,1.957,1.957,0,0,0-1.024.25.828.828,0,0,0-.417.76,1.032,1.032,0,0,0,.031.259.506.506,0,0,0,.119.215l.158.171a.825.825,0,0,0,.229.154q.158.079.255.123a2.767,2.767,0,0,0,.316.11l.325.1q.105.031.365.1l.365.092q.492.132.839.246a4.843,4.843,0,0,1,.765.338,2.665,2.665,0,0,1,.677.5,2.219,2.219,0,0,1,.435.708,2.571,2.571,0,0,1,.176.971,2.623,2.623,0,0,1-.281,1.244,2.139,2.139,0,0,1-.769.835,3.768,3.768,0,0,1-1.09.453A5.449,5.449,0,0,1,361.239.167Zm15.855-9.009h2.1l-5.291,13h-2.065l1.9-4.447L370.2-8.842h2.224l2.294,6.328Zm13.3-.167a4.12,4.12,0,0,1,2.1.545A3.975,3.975,0,0,1,394-6.86a5.076,5.076,0,0,1,.571,2.448,5.431,5.431,0,0,1-.33,1.929,4.146,4.146,0,0,1-.9,1.459,4.038,4.038,0,0,1-1.332.905A4.128,4.128,0,0,1,390.393.2a3.624,3.624,0,0,1-1.727-.413,2.851,2.851,0,0,1-1.182-1.134V4.377h-2.021V-8.842H387.4l.053,1.441a2.805,2.805,0,0,1,1.182-1.182A3.638,3.638,0,0,1,390.393-9.009Zm-.439,7.5a2.447,2.447,0,0,0,1.854-.791,2.946,2.946,0,0,0,.747-2.109,2.915,2.915,0,0,0-.747-2.1,2.461,2.461,0,0,0-1.854-.782,2.453,2.453,0,0,0-1.872.813,2.92,2.92,0,0,0-.756,2.07,2.948,2.948,0,0,0,.756,2.083A2.447,2.447,0,0,0,389.953-1.512Zm8.736-5.845a2.67,2.67,0,0,1,1.121-1.125,3.5,3.5,0,0,1,1.727-.457v1.846a3.115,3.115,0,0,0-2.087.593,2.523,2.523,0,0,0-.681,1.991V0h-2.03V-8.842h1.951Zm7.189-2.848,2.259-3.059,1.028.738-1.978,2.32ZM405.167.167a3.669,3.669,0,0,1-1.349-.233,2.144,2.144,0,0,1-.984-.791,2.353,2.353,0,0,1-.391-1.384,2.564,2.564,0,0,1,.18-.989,2.165,2.165,0,0,1,.475-.725,2.789,2.789,0,0,1,.747-.51,5.358,5.358,0,0,1,.914-.347q.461-.127,1.068-.242l1.336-.246q.817-.158.817-.8a1.256,1.256,0,0,0-.492-1.1,2.1,2.1,0,0,0-1.239-.347,2.075,2.075,0,0,0-1.274.374,1.636,1.636,0,0,0-.6,1.182l-1.819-.334Q403-9,406.371-9a6.23,6.23,0,0,1,1.05.083,3.751,3.751,0,0,1,.958.3,2.756,2.756,0,0,1,.8.558,2.435,2.435,0,0,1,.536.9,3.743,3.743,0,0,1,.2,1.279v3.428a1.4,1.4,0,0,0,.185.844.8.8,0,0,0,.65.229h.141V0h-.958q-1.5,0-1.793-1.169h-.1A2.874,2.874,0,0,1,406.8-.158,4.143,4.143,0,0,1,405.167.167Zm.475-1.591a2.351,2.351,0,0,0,1.767-.729,2.645,2.645,0,0,0,.7-1.916l-2.259.5a2.708,2.708,0,0,0-1.09.409.883.883,0,0,0-.36.751.849.849,0,0,0,.343.738A1.5,1.5,0,0,0,405.642-1.424ZM416.487.158a4.487,4.487,0,0,1-3.3-1.27,4.462,4.462,0,0,1-1.283-3.318A4.439,4.439,0,0,1,413.2-7.743a4.5,4.5,0,0,1,3.292-1.266A4.493,4.493,0,0,1,419.2-8.2a3.838,3.838,0,0,1,1.481,2.272l-1.881.246a2.356,2.356,0,0,0-.866-1.266,2.439,2.439,0,0,0-1.463-.439,2.32,2.32,0,0,0-1.828.813,3.131,3.131,0,0,0-.712,2.14,3.131,3.131,0,0,0,.712,2.14,2.32,2.32,0,0,0,1.828.813,2.456,2.456,0,0,0,1.463-.435,2.334,2.334,0,0,0,.866-1.261l1.881.237a3.843,3.843,0,0,1-1.49,2.276A4.485,4.485,0,0,1,416.487.158ZM425.769,0a2.5,2.5,0,0,1-1.863-.677,2.6,2.6,0,0,1-.668-1.907V-7.26h-1.767V-8.842h.606a1.382,1.382,0,0,0,1.042-.338,1.709,1.709,0,0,0,.321-1.182v-1.371h1.846v2.892h1.925V-7.26h-1.925v4.465a1.267,1.267,0,0,0,.3.918,1.093,1.093,0,0,0,.822.312h.8V0Zm4.562-10.529a1.207,1.207,0,0,1-.879-.365,1.186,1.186,0,0,1-.369-.875,1.193,1.193,0,0,1,.365-.875,1.2,1.2,0,0,1,.883-.365,1.2,1.2,0,0,1,.87.365,1.186,1.186,0,0,1,.369.875,1.186,1.186,0,0,1-.369.875A1.2,1.2,0,0,1,430.33-10.529ZM429.293,0V-8.842h2.03V0Zm8.728.158a4.487,4.487,0,0,1-3.3-1.27,4.462,4.462,0,0,1-1.283-3.318,4.439,4.439,0,0,1,1.288-3.313,4.5,4.5,0,0,1,3.292-1.266,4.493,4.493,0,0,1,2.711.813,3.838,3.838,0,0,1,1.481,2.272l-1.881.246a2.356,2.356,0,0,0-.866-1.266A2.439,2.439,0,0,0,438-7.383a2.32,2.32,0,0,0-1.828.813,3.131,3.131,0,0,0-.712,2.14,3.131,3.131,0,0,0,.712,2.14A2.32,2.32,0,0,0,438-1.477a2.456,2.456,0,0,0,1.463-.435,2.334,2.334,0,0,0,.866-1.261l1.881.237a3.843,3.843,0,0,1-1.49,2.276A4.485,4.485,0,0,1,438.021.158Zm8.306.009a3.669,3.669,0,0,1-1.349-.233,2.144,2.144,0,0,1-.984-.791,2.353,2.353,0,0,1-.391-1.384,2.564,2.564,0,0,1,.18-.989,2.165,2.165,0,0,1,.475-.725,2.789,2.789,0,0,1,.747-.51,5.358,5.358,0,0,1,.914-.347q.461-.127,1.068-.242l1.336-.246q.817-.158.817-.8a1.256,1.256,0,0,0-.492-1.1,2.1,2.1,0,0,0-1.239-.347,2.075,2.075,0,0,0-1.274.374,1.636,1.636,0,0,0-.6,1.182l-1.819-.334Q444.164-9,447.53-9a6.23,6.23,0,0,1,1.05.083,3.751,3.751,0,0,1,.958.3,2.756,2.756,0,0,1,.8.558,2.435,2.435,0,0,1,.536.9,3.743,3.743,0,0,1,.2,1.279v3.428a1.4,1.4,0,0,0,.185.844.8.8,0,0,0,.65.229h.141V0H451.1q-1.5,0-1.793-1.169h-.1a2.874,2.874,0,0,1-1.252,1.011A4.143,4.143,0,0,1,446.326.167Zm.475-1.591a2.351,2.351,0,0,0,1.767-.729,2.645,2.645,0,0,0,.7-1.916l-2.259.5a2.708,2.708,0,0,0-1.09.409.883.883,0,0,0-.36.751.849.849,0,0,0,.343.738A1.5,1.5,0,0,0,446.8-1.424ZM456.97.167a4.552,4.552,0,0,1-2.479-.628,2.623,2.623,0,0,1-1.213-1.824l1.714-.483a1.832,1.832,0,0,0,.694,1.112,2.138,2.138,0,0,0,1.283.374,2.049,2.049,0,0,0,1.072-.264.9.9,0,0,0,.431-.853.824.824,0,0,0-.114-.435,1.2,1.2,0,0,0-.272-.316,1.9,1.9,0,0,0-.453-.25,5.107,5.107,0,0,0-.536-.193l-.655-.193q-.413-.123-.686-.211a6.249,6.249,0,0,1-.844-.325,4,4,0,0,1-.694-.439,1.72,1.72,0,0,1-.532-.69,2.434,2.434,0,0,1-.18-.971,2.324,2.324,0,0,1,.448-1.45,2.549,2.549,0,0,1,1.178-.857A4.824,4.824,0,0,1,456.8-9a4.127,4.127,0,0,1,2.237.571,2.5,2.5,0,0,1,1.129,1.749l-1.6.378a1.594,1.594,0,0,0-.637-.984,1.96,1.96,0,0,0-1.121-.316,1.957,1.957,0,0,0-1.024.25.828.828,0,0,0-.417.76,1.032,1.032,0,0,0,.031.259.506.506,0,0,0,.119.215l.158.171a.825.825,0,0,0,.229.154q.158.079.255.123a2.767,2.767,0,0,0,.316.11l.325.1q.105.031.365.1l.365.092q.492.132.839.246a4.843,4.843,0,0,1,.765.338,2.665,2.665,0,0,1,.677.5,2.219,2.219,0,0,1,.435.708,2.571,2.571,0,0,1,.176.971,2.623,2.623,0,0,1-.281,1.244,2.139,2.139,0,0,1-.769.835,3.768,3.768,0,0,1-1.09.453A5.449,5.449,0,0,1,456.97.167Zm15.17-9.176a4.12,4.12,0,0,1,2.1.545,3.975,3.975,0,0,1,1.516,1.6,5.076,5.076,0,0,1,.571,2.448,5.431,5.431,0,0,1-.33,1.929,4.146,4.146,0,0,1-.9,1.459,4.038,4.038,0,0,1-1.332.905A4.128,4.128,0,0,1,472.14.2a3.624,3.624,0,0,1-1.727-.413,2.851,2.851,0,0,1-1.182-1.134V4.377h-2.021V-8.842h1.934L469.2-7.4a2.805,2.805,0,0,1,1.182-1.182A3.638,3.638,0,0,1,472.14-9.009Zm-.439,7.5a2.447,2.447,0,0,0,1.854-.791,2.946,2.946,0,0,0,.747-2.109,2.915,2.915,0,0,0-.747-2.1,2.461,2.461,0,0,0-1.854-.782,2.453,2.453,0,0,0-1.872.813,2.92,2.92,0,0,0-.756,2.07,2.948,2.948,0,0,0,.756,2.083A2.447,2.447,0,0,0,471.7-1.512ZM480.568.167a3.669,3.669,0,0,1-1.349-.233,2.144,2.144,0,0,1-.984-.791,2.353,2.353,0,0,1-.391-1.384,2.564,2.564,0,0,1,.18-.989,2.165,2.165,0,0,1,.475-.725,2.789,2.789,0,0,1,.747-.51,5.358,5.358,0,0,1,.914-.347q.461-.127,1.068-.242l1.336-.246q.817-.158.817-.8a1.256,1.256,0,0,0-.492-1.1,2.1,2.1,0,0,0-1.239-.347,2.075,2.075,0,0,0-1.274.374,1.636,1.636,0,0,0-.6,1.182l-1.819-.334Q478.406-9,481.772-9a6.23,6.23,0,0,1,1.05.083,3.751,3.751,0,0,1,.958.3,2.756,2.756,0,0,1,.8.558,2.435,2.435,0,0,1,.536.9,3.743,3.743,0,0,1,.2,1.279v3.428a1.4,1.4,0,0,0,.185.844.8.8,0,0,0,.65.229h.141V0h-.958q-1.5,0-1.793-1.169h-.1A2.874,2.874,0,0,1,482.2-.158,4.143,4.143,0,0,1,480.568.167Zm.475-1.591a2.351,2.351,0,0,0,1.767-.729,2.645,2.645,0,0,0,.7-1.916l-2.259.5a2.708,2.708,0,0,0-1.09.409.883.883,0,0,0-.36.751.849.849,0,0,0,.343.738A1.5,1.5,0,0,0,481.043-1.424Zm9.167-5.933a2.67,2.67,0,0,1,1.121-1.125,3.5,3.5,0,0,1,1.727-.457v1.846a3.115,3.115,0,0,0-2.087.593,2.523,2.523,0,0,0-.681,1.991V0h-2.03V-8.842h1.951ZM496.688.167a3.669,3.669,0,0,1-1.349-.233,2.144,2.144,0,0,1-.984-.791,2.353,2.353,0,0,1-.391-1.384,2.564,2.564,0,0,1,.18-.989,2.165,2.165,0,0,1,.475-.725,2.789,2.789,0,0,1,.747-.51,5.358,5.358,0,0,1,.914-.347q.461-.127,1.068-.242l1.336-.246q.817-.158.817-.8a1.256,1.256,0,0,0-.492-1.1,2.1,2.1,0,0,0-1.239-.347,2.075,2.075,0,0,0-1.274.374,1.636,1.636,0,0,0-.6,1.182l-1.819-.334Q494.525-9,497.892-9a6.23,6.23,0,0,1,1.05.083,3.751,3.751,0,0,1,.958.3,2.756,2.756,0,0,1,.8.558,2.435,2.435,0,0,1,.536.9,3.743,3.743,0,0,1,.2,1.279v3.428a1.4,1.4,0,0,0,.185.844.8.8,0,0,0,.65.229h.141V0h-.958q-1.5,0-1.793-1.169h-.1a2.874,2.874,0,0,1-1.252,1.011A4.143,4.143,0,0,1,496.688.167Zm.475-1.591a2.351,2.351,0,0,0,1.767-.729,2.645,2.645,0,0,0,.7-1.916l-2.259.5a2.708,2.708,0,0,0-1.09.409.883.883,0,0,0-.36.751.849.849,0,0,0,.343.738A1.5,1.5,0,0,0,497.162-1.424ZM511.137.167a3.669,3.669,0,0,1-1.349-.233,2.144,2.144,0,0,1-.984-.791,2.353,2.353,0,0,1-.391-1.384,2.564,2.564,0,0,1,.18-.989,2.165,2.165,0,0,1,.475-.725,2.789,2.789,0,0,1,.747-.51,5.358,5.358,0,0,1,.914-.347q.461-.127,1.068-.242l1.336-.246q.817-.158.817-.8a1.256,1.256,0,0,0-.492-1.1,2.1,2.1,0,0,0-1.239-.347,2.075,2.075,0,0,0-1.274.374,1.636,1.636,0,0,0-.6,1.182l-1.819-.334Q508.975-9,512.341-9a6.23,6.23,0,0,1,1.05.083,3.751,3.751,0,0,1,.958.3,2.756,2.756,0,0,1,.8.558,2.435,2.435,0,0,1,.536.9,3.743,3.743,0,0,1,.2,1.279v3.428a1.4,1.4,0,0,0,.185.844.8.8,0,0,0,.65.229h.141V0h-.958q-1.5,0-1.793-1.169h-.1a2.874,2.874,0,0,1-1.252,1.011A4.143,4.143,0,0,1,511.137.167Zm.475-1.591a2.351,2.351,0,0,0,1.767-.729,2.645,2.645,0,0,0,.7-1.916l-2.259.5a2.708,2.708,0,0,0-1.09.409.883.883,0,0,0-.36.751.849.849,0,0,0,.343.738A1.5,1.5,0,0,0,511.611-1.424ZM518.827,0V-13.5h2.039V0Zm8.736.158a4.487,4.487,0,0,1-3.3-1.27,4.462,4.462,0,0,1-1.283-3.318,4.439,4.439,0,0,1,1.288-3.313,4.5,4.5,0,0,1,3.292-1.266,4.493,4.493,0,0,1,2.711.813,3.838,3.838,0,0,1,1.481,2.272l-1.881.246a2.356,2.356,0,0,0-.866-1.266,2.439,2.439,0,0,0-1.463-.439,2.32,2.32,0,0,0-1.828.813,3.131,3.131,0,0,0-.712,2.14,3.131,3.131,0,0,0,.712,2.14,2.32,2.32,0,0,0,1.828.813,2.456,2.456,0,0,0,1.463-.435,2.334,2.334,0,0,0,.866-1.261l1.881.237a3.843,3.843,0,0,1-1.49,2.276A4.485,4.485,0,0,1,527.563.158Zm8.306.009a3.669,3.669,0,0,1-1.349-.233,2.144,2.144,0,0,1-.984-.791,2.353,2.353,0,0,1-.391-1.384,2.564,2.564,0,0,1,.18-.989,2.165,2.165,0,0,1,.475-.725,2.789,2.789,0,0,1,.747-.51,5.358,5.358,0,0,1,.914-.347q.461-.127,1.068-.242l1.336-.246q.817-.158.817-.8a1.256,1.256,0,0,0-.492-1.1,2.1,2.1,0,0,0-1.239-.347,2.075,2.075,0,0,0-1.274.374,1.636,1.636,0,0,0-.6,1.182l-1.819-.334Q533.707-9,537.073-9a6.23,6.23,0,0,1,1.05.083,3.751,3.751,0,0,1,.958.3,2.756,2.756,0,0,1,.8.558,2.435,2.435,0,0,1,.536.9,3.743,3.743,0,0,1,.2,1.279v3.428a1.4,1.4,0,0,0,.185.844.8.8,0,0,0,.65.229h.141V0h-.958q-1.5,0-1.793-1.169h-.1A2.874,2.874,0,0,1,537.5-.158,4.143,4.143,0,0,1,535.869.167Zm.475-1.591a2.351,2.351,0,0,0,1.767-.729,2.645,2.645,0,0,0,.7-1.916l-2.259.5a2.708,2.708,0,0,0-1.09.409.883.883,0,0,0-.36.751.849.849,0,0,0,.343.738A1.5,1.5,0,0,0,536.344-1.424Zm11.918-7.585a3.273,3.273,0,0,1,2.338.8,2.96,2.96,0,0,1,.844,2.263V0H549.4V-5.511a1.814,1.814,0,0,0-.488-1.393,1.768,1.768,0,0,0-1.252-.453,2.066,2.066,0,0,0-1.494.558,2.311,2.311,0,0,0-.589,1.718V0H543.56V-8.842h2.021V-7.8a2.987,2.987,0,0,1,1.138-.9A3.658,3.658,0,0,1,548.262-9.009Zm12.059.167-4.28,7.251h4.219V0H553.1l4.254-7.242h-3.964v-1.6ZM564.029.167a3.669,3.669,0,0,1-1.349-.233,2.144,2.144,0,0,1-.984-.791,2.353,2.353,0,0,1-.391-1.384,2.564,2.564,0,0,1,.18-.989,2.165,2.165,0,0,1,.475-.725,2.789,2.789,0,0,1,.747-.51,5.358,5.358,0,0,1,.914-.347q.461-.127,1.068-.242l1.336-.246q.817-.158.817-.8a1.256,1.256,0,0,0-.492-1.1,2.1,2.1,0,0,0-1.239-.347,2.075,2.075,0,0,0-1.274.374,1.636,1.636,0,0,0-.6,1.182l-1.819-.334Q561.867-9,565.233-9a6.23,6.23,0,0,1,1.05.083,3.751,3.751,0,0,1,.958.3,2.756,2.756,0,0,1,.8.558,2.435,2.435,0,0,1,.536.9,3.743,3.743,0,0,1,.2,1.279v3.428a1.4,1.4,0,0,0,.185.844.8.8,0,0,0,.65.229h.141V0H568.8q-1.5,0-1.793-1.169h-.1A2.874,2.874,0,0,1,565.66-.158,4.143,4.143,0,0,1,564.029.167Zm.475-1.591a2.351,2.351,0,0,0,1.767-.729,2.645,2.645,0,0,0,.7-1.916l-2.259.5a2.708,2.708,0,0,0-1.09.409.883.883,0,0,0-.36.751.849.849,0,0,0,.343.738A1.5,1.5,0,0,0,564.5-1.424Zm9.167-5.933a2.67,2.67,0,0,1,1.121-1.125,3.5,3.5,0,0,1,1.727-.457v1.846a3.115,3.115,0,0,0-2.087.593,2.523,2.523,0,0,0-.681,1.991V0h-2.03V-8.842h1.951ZM582.829,0V-13.5h2.039V0Zm8.824.167A4.647,4.647,0,0,1,588.3-1.077,4.421,4.421,0,0,1,587-4.43a4.4,4.4,0,0,1,1.3-3.335,4.647,4.647,0,0,1,3.349-1.244,4.668,4.668,0,0,1,3.357,1.239,4.4,4.4,0,0,1,1.3,3.34,4.421,4.421,0,0,1-1.3,3.353A4.658,4.658,0,0,1,591.653.167Zm-.018-1.635a2.479,2.479,0,0,0,1.916-.817A3.055,3.055,0,0,0,594.3-4.43a3.039,3.039,0,0,0-.747-2.14,2.485,2.485,0,0,0-1.916-.813,2.428,2.428,0,0,0-1.881.813,3.061,3.061,0,0,0-.738,2.14,3.088,3.088,0,0,0,.734,2.145A2.419,2.419,0,0,0,591.636-1.468ZM601.4.167a4.552,4.552,0,0,1-2.479-.628,2.623,2.623,0,0,1-1.213-1.824l1.714-.483a1.832,1.832,0,0,0,.694,1.112,2.138,2.138,0,0,0,1.283.374,2.049,2.049,0,0,0,1.072-.264A.9.9,0,0,0,602.9-2.4a.824.824,0,0,0-.114-.435,1.2,1.2,0,0,0-.272-.316,1.9,1.9,0,0,0-.453-.25,5.107,5.107,0,0,0-.536-.193l-.655-.193q-.413-.123-.686-.211a6.249,6.249,0,0,1-.844-.325,4,4,0,0,1-.694-.439,1.72,1.72,0,0,1-.532-.69,2.434,2.434,0,0,1-.18-.971,2.324,2.324,0,0,1,.448-1.45,2.549,2.549,0,0,1,1.178-.857A4.824,4.824,0,0,1,601.233-9a4.127,4.127,0,0,1,2.237.571A2.5,2.5,0,0,1,604.6-6.68L603-6.3a1.594,1.594,0,0,0-.637-.984,1.96,1.96,0,0,0-1.121-.316,1.957,1.957,0,0,0-1.024.25.828.828,0,0,0-.417.76,1.032,1.032,0,0,0,.031.259.506.506,0,0,0,.119.215l.158.171a.825.825,0,0,0,.229.154q.158.079.255.123a2.767,2.767,0,0,0,.316.11l.325.1q.105.031.365.1l.365.092q.492.132.839.246a4.843,4.843,0,0,1,.765.338,2.665,2.665,0,0,1,.677.5,2.219,2.219,0,0,1,.435.708,2.571,2.571,0,0,1,.176.971,2.623,2.623,0,0,1-.281,1.244,2.139,2.139,0,0,1-.769.835,3.768,3.768,0,0,1-1.09.453A5.449,5.449,0,0,1,601.4.167Zm14.159,0a4.647,4.647,0,0,1-3.349-1.244,4.421,4.421,0,0,1-1.3-3.353,4.4,4.4,0,0,1,1.3-3.335,4.647,4.647,0,0,1,3.349-1.244,4.668,4.668,0,0,1,3.357,1.239,4.4,4.4,0,0,1,1.3,3.34,4.421,4.421,0,0,1-1.3,3.353A4.658,4.658,0,0,1,615.56.167Zm-.018-1.635a2.479,2.479,0,0,0,1.916-.817,3.055,3.055,0,0,0,.747-2.145,3.039,3.039,0,0,0-.747-2.14,2.485,2.485,0,0,0-1.916-.813,2.428,2.428,0,0,0-1.881.813,3.061,3.061,0,0,0-.738,2.14,3.088,3.088,0,0,0,.734,2.145A2.419,2.419,0,0,0,615.542-1.468Zm11.751-7.541a4.089,4.089,0,0,1,1.617.325,4.034,4.034,0,0,1,1.332.91,4.24,4.24,0,0,1,.9,1.455,5.28,5.28,0,0,1,.334,1.907,5.4,5.4,0,0,1-.33,1.92,4.146,4.146,0,0,1-.9,1.459,4.1,4.1,0,0,1-1.332.91A4.08,4.08,0,0,1,627.293.2a3.622,3.622,0,0,1-1.775-.435,2.81,2.81,0,0,1-1.178-1.182L624.287,0h-1.934V-13.5h2.013l.009,6.038A2.813,2.813,0,0,1,625.553-8.6,3.667,3.667,0,0,1,627.293-9.009Zm-2.32,6.68a2.42,2.42,0,0,0,1.863.817,2.458,2.458,0,0,0,1.868-.8,2.943,2.943,0,0,0,.751-2.1,2.927,2.927,0,0,0-.751-2.1,2.465,2.465,0,0,0-1.868-.8,2.424,2.424,0,0,0-1.859.817,2.946,2.946,0,0,0-.751,2.074A2.968,2.968,0,0,0,624.973-2.329Zm9.7-8.2a1.207,1.207,0,0,1-.879-.365,1.186,1.186,0,0,1-.369-.875,1.193,1.193,0,0,1,.365-.875,1.2,1.2,0,0,1,.883-.365,1.2,1.2,0,0,1,.87.365,1.186,1.186,0,0,1,.369.875,1.186,1.186,0,0,1-.369.875A1.2,1.2,0,0,1,634.676-10.529ZM631.714,4.14V2.5a1.747,1.747,0,0,0,1.542-.558A4.281,4.281,0,0,0,633.63-.22V-8.842h2.048V-.22a4.946,4.946,0,0,1-.914,3.344A3.938,3.938,0,0,1,631.714,4.14Zm14.854-8.71-.026.51h-6.724a2.667,2.667,0,0,0,.773,1.934,2.525,2.525,0,0,0,1.784.668,2.424,2.424,0,0,0,1.314-.36,2.272,2.272,0,0,0,.875-1.028l1.846.316A3.886,3.886,0,0,1,644.88-.545a4.392,4.392,0,0,1-2.487.712,4.533,4.533,0,0,1-3.313-1.222,4.494,4.494,0,0,1-1.248-3.366,4.512,4.512,0,0,1,1.248-3.366,4.433,4.433,0,0,1,3.252-1.23A4.21,4.21,0,0,1,645.4-7.888,4.453,4.453,0,0,1,646.567-4.57ZM642.34-7.515a2.58,2.58,0,0,0-1.6.479,2.332,2.332,0,0,0-.839,1.463h4.632a2.131,2.131,0,0,0-.7-1.45A2.251,2.251,0,0,0,642.34-7.515ZM651.779,0a2.5,2.5,0,0,1-1.863-.677,2.6,2.6,0,0,1-.668-1.907V-7.26h-1.767V-8.842h.606a1.382,1.382,0,0,0,1.042-.338,1.709,1.709,0,0,0,.321-1.182v-1.371H651.3v2.892h1.925V-7.26H651.3v4.465a1.267,1.267,0,0,0,.3.918,1.093,1.093,0,0,0,.822.312h.8V0Zm4.562-10.529a1.207,1.207,0,0,1-.879-.365,1.186,1.186,0,0,1-.369-.875,1.193,1.193,0,0,1,.365-.875,1.2,1.2,0,0,1,.883-.365,1.2,1.2,0,0,1,.87.365,1.186,1.186,0,0,1,.369.875,1.186,1.186,0,0,1-.369.875A1.2,1.2,0,0,1,656.341-10.529ZM655.3,0V-8.842h2.03V0Zm10.529-8.842h2.153L664.3,0h-1.749L658.9-8.842h2.145l2.382,6.521ZM673.11.167a4.647,4.647,0,0,1-3.349-1.244,4.421,4.421,0,0,1-1.3-3.353,4.4,4.4,0,0,1,1.3-3.335,4.647,4.647,0,0,1,3.349-1.244,4.668,4.668,0,0,1,3.357,1.239,4.4,4.4,0,0,1,1.3,3.34,4.421,4.421,0,0,1-1.3,3.353A4.658,4.658,0,0,1,673.11.167Zm-.018-1.635a2.479,2.479,0,0,0,1.916-.817,3.055,3.055,0,0,0,.747-2.145,3.039,3.039,0,0,0-.747-2.14,2.485,2.485,0,0,0-1.916-.813,2.428,2.428,0,0,0-1.881.813,3.061,3.061,0,0,0-.738,2.14,3.088,3.088,0,0,0,.734,2.145A2.419,2.419,0,0,0,673.093-1.468ZM682.857.167a4.552,4.552,0,0,1-2.479-.628,2.623,2.623,0,0,1-1.213-1.824l1.714-.483a1.832,1.832,0,0,0,.694,1.112,2.138,2.138,0,0,0,1.283.374,2.049,2.049,0,0,0,1.072-.264.9.9,0,0,0,.431-.853.824.824,0,0,0-.114-.435,1.2,1.2,0,0,0-.272-.316,1.9,1.9,0,0,0-.453-.25,5.107,5.107,0,0,0-.536-.193l-.655-.193q-.413-.123-.686-.211a6.249,6.249,0,0,1-.844-.325,4,4,0,0,1-.694-.439,1.72,1.72,0,0,1-.532-.69,2.434,2.434,0,0,1-.18-.971,2.324,2.324,0,0,1,.448-1.45,2.549,2.549,0,0,1,1.178-.857A4.824,4.824,0,0,1,682.69-9a4.127,4.127,0,0,1,2.237.571,2.5,2.5,0,0,1,1.129,1.749l-1.6.378a1.594,1.594,0,0,0-.637-.984A1.96,1.96,0,0,0,682.7-7.6a1.957,1.957,0,0,0-1.024.25.828.828,0,0,0-.417.76,1.032,1.032,0,0,0,.031.259.506.506,0,0,0,.119.215l.158.171a.825.825,0,0,0,.229.154q.158.079.255.123a2.767,2.767,0,0,0,.316.11l.325.1q.105.031.365.1l.365.092q.492.132.839.246a4.843,4.843,0,0,1,.765.338,2.665,2.665,0,0,1,.677.5,2.219,2.219,0,0,1,.435.708,2.571,2.571,0,0,1,.176.971,2.623,2.623,0,0,1-.281,1.244,2.139,2.139,0,0,1-.769.835,3.768,3.768,0,0,1-1.09.453A5.449,5.449,0,0,1,682.857.167Zm7.022.009a1.2,1.2,0,0,1-.87-.365,1.176,1.176,0,0,1-.369-.866,1.186,1.186,0,0,1,.369-.875,1.2,1.2,0,0,1,.87-.365,1.193,1.193,0,0,1,.875.365,1.193,1.193,0,0,1,.365.875,1.178,1.178,0,0,1-.365.87A1.2,1.2,0,0,1,689.88.176Z" transform="translate(562 2852)" fill="#00223d"/>
      <path id="Trazado_35414" data-name="Trazado 35414" d="M1.793,0V-12.533H6.082a6.831,6.831,0,0,1,2.566.453A4.772,4.772,0,0,1,10.5-10.8,5.605,5.605,0,0,1,11.6-8.82a8.185,8.185,0,0,1,.374,2.544A7.746,7.746,0,0,1,11.325-3,4.9,4.9,0,0,1,9.338-.8,6.247,6.247,0,0,1,6.082,0Zm2.1-1.881h2.1A3.448,3.448,0,0,0,8.82-3.028a4.978,4.978,0,0,0,.945-3.248A4.963,4.963,0,0,0,8.82-9.514a3.448,3.448,0,0,0-2.826-1.147h-2.1ZM22.4-4.57l-.026.51H15.653a2.667,2.667,0,0,0,.773,1.934,2.525,2.525,0,0,0,1.784.668,2.424,2.424,0,0,0,1.314-.36A2.272,2.272,0,0,0,20.4-2.848l1.846.316A3.886,3.886,0,0,1,20.716-.545a4.392,4.392,0,0,1-2.487.712,4.533,4.533,0,0,1-3.313-1.222,4.494,4.494,0,0,1-1.248-3.366,4.512,4.512,0,0,1,1.248-3.366,4.433,4.433,0,0,1,3.252-1.23,4.21,4.21,0,0,1,3.067,1.129A4.453,4.453,0,0,1,22.4-4.57ZM18.176-7.515a2.58,2.58,0,0,0-1.6.479,2.332,2.332,0,0,0-.839,1.463h4.632a2.131,2.131,0,0,0-.7-1.45A2.251,2.251,0,0,0,18.176-7.515ZM27.615,0a2.5,2.5,0,0,1-1.863-.677,2.6,2.6,0,0,1-.668-1.907V-7.26H23.317V-8.842h.606a1.382,1.382,0,0,0,1.042-.338,1.709,1.709,0,0,0,.321-1.182v-1.371h1.846v2.892h1.925V-7.26H27.132v4.465a1.267,1.267,0,0,0,.3.918,1.093,1.093,0,0,0,.822.312h.8V0ZM39.094-4.57l-.026.51H32.344a2.667,2.667,0,0,0,.773,1.934,2.525,2.525,0,0,0,1.784.668,2.424,2.424,0,0,0,1.314-.36,2.272,2.272,0,0,0,.875-1.028l1.846.316A3.886,3.886,0,0,1,37.406-.545a4.392,4.392,0,0,1-2.487.712,4.533,4.533,0,0,1-3.313-1.222,4.494,4.494,0,0,1-1.248-3.366,4.512,4.512,0,0,1,1.248-3.366,4.433,4.433,0,0,1,3.252-1.23,4.21,4.21,0,0,1,3.067,1.129A4.453,4.453,0,0,1,39.094-4.57ZM34.866-7.515a2.58,2.58,0,0,0-1.6.479,2.332,2.332,0,0,0-.839,1.463h4.632a2.131,2.131,0,0,0-.7-1.45A2.251,2.251,0,0,0,34.866-7.515Zm8.332.158a2.67,2.67,0,0,1,1.121-1.125,3.5,3.5,0,0,1,1.727-.457v1.846a3.115,3.115,0,0,0-2.087.593,2.523,2.523,0,0,0-.681,1.991V0h-2.03V-8.842H43.2ZM57.445-9.009a3.107,3.107,0,0,1,2.171.734A2.664,2.664,0,0,1,60.425-6.2V0h-2.03V-5.634a1.736,1.736,0,0,0-.439-1.288,1.509,1.509,0,0,0-1.107-.435,1.657,1.657,0,0,0-1.27.523,2.3,2.3,0,0,0-.488,1.613V0H53.033V-5.59a1.8,1.8,0,0,0-.444-1.318,1.522,1.522,0,0,0-1.129-.448,1.644,1.644,0,0,0-1.274.541,2.442,2.442,0,0,0-.492,1.683V0H47.681V-8.842h2.013v1.09a2.852,2.852,0,0,1,2.5-1.257,3.351,3.351,0,0,1,1.582.356,2.342,2.342,0,0,1,1.02,1.024A2.935,2.935,0,0,1,57.445-9.009Zm6.724-1.521a1.207,1.207,0,0,1-.879-.365,1.186,1.186,0,0,1-.369-.875,1.193,1.193,0,0,1,.365-.875,1.2,1.2,0,0,1,.883-.365,1.2,1.2,0,0,1,.87.365,1.186,1.186,0,0,1,.369.875,1.186,1.186,0,0,1-.369.875A1.2,1.2,0,0,1,64.169-10.529ZM63.132,0V-8.842h2.03V0Zm9.6-9.009a3.273,3.273,0,0,1,2.338.8,2.96,2.96,0,0,1,.844,2.263V0H73.872V-5.511A1.814,1.814,0,0,0,73.384-6.9a1.768,1.768,0,0,0-1.252-.453,2.066,2.066,0,0,0-1.494.558,2.311,2.311,0,0,0-.589,1.718V0H68.027V-8.842h2.021V-7.8a2.987,2.987,0,0,1,1.138-.9A3.658,3.658,0,0,1,72.729-9.009ZM80.684.167a3.669,3.669,0,0,1-1.349-.233,2.144,2.144,0,0,1-.984-.791,2.353,2.353,0,0,1-.391-1.384,2.564,2.564,0,0,1,.18-.989,2.165,2.165,0,0,1,.475-.725,2.789,2.789,0,0,1,.747-.51,5.358,5.358,0,0,1,.914-.347q.461-.127,1.068-.242L82.679-5.3q.817-.158.817-.8A1.256,1.256,0,0,0,83-7.2a2.1,2.1,0,0,0-1.239-.347,2.075,2.075,0,0,0-1.274.374,1.636,1.636,0,0,0-.6,1.182l-1.819-.334Q78.521-9,81.888-9a6.23,6.23,0,0,1,1.05.083,3.751,3.751,0,0,1,.958.3,2.756,2.756,0,0,1,.8.558,2.435,2.435,0,0,1,.536.9,3.743,3.743,0,0,1,.2,1.279v3.428a1.4,1.4,0,0,0,.185.844.8.8,0,0,0,.65.229h.141V0h-.958q-1.5,0-1.793-1.169h-.1A2.874,2.874,0,0,1,82.314-.158,4.143,4.143,0,0,1,80.684.167Zm.475-1.591a2.351,2.351,0,0,0,1.767-.729,2.645,2.645,0,0,0,.7-1.916l-2.259.5a2.708,2.708,0,0,0-1.09.409.883.883,0,0,0-.36.751.849.849,0,0,0,.343.738A1.5,1.5,0,0,0,81.158-1.424Zm9.167-5.933a2.67,2.67,0,0,1,1.121-1.125,3.5,3.5,0,0,1,1.727-.457v1.846a3.115,3.115,0,0,0-2.087.593A2.523,2.523,0,0,0,90.4-4.509V0h-2.03V-8.842h1.951ZM99.483,0V-13.5h2.039V0Zm8.824.167a4.647,4.647,0,0,1-3.349-1.244,4.421,4.421,0,0,1-1.3-3.353,4.4,4.4,0,0,1,1.3-3.335,4.647,4.647,0,0,1,3.349-1.244,4.668,4.668,0,0,1,3.357,1.239,4.4,4.4,0,0,1,1.3,3.34,4.421,4.421,0,0,1-1.3,3.353A4.658,4.658,0,0,1,108.308.167Zm-.018-1.635a2.479,2.479,0,0,0,1.916-.817,3.055,3.055,0,0,0,.747-2.145,3.039,3.039,0,0,0-.747-2.14,2.485,2.485,0,0,0-1.916-.813,2.428,2.428,0,0,0-1.881.813,3.061,3.061,0,0,0-.738,2.14,3.088,3.088,0,0,0,.734,2.145A2.419,2.419,0,0,0,108.29-1.468ZM118.055.167a4.552,4.552,0,0,1-2.479-.628,2.623,2.623,0,0,1-1.213-1.824l1.714-.483a1.832,1.832,0,0,0,.694,1.112,2.138,2.138,0,0,0,1.283.374,2.049,2.049,0,0,0,1.072-.264.9.9,0,0,0,.431-.853.824.824,0,0,0-.114-.435,1.2,1.2,0,0,0-.272-.316,1.9,1.9,0,0,0-.453-.25,5.107,5.107,0,0,0-.536-.193l-.655-.193q-.413-.123-.686-.211A6.249,6.249,0,0,1,116-4.324a4,4,0,0,1-.694-.439,1.72,1.72,0,0,1-.532-.69,2.434,2.434,0,0,1-.18-.971,2.324,2.324,0,0,1,.448-1.45,2.549,2.549,0,0,1,1.178-.857A4.824,4.824,0,0,1,117.888-9a4.127,4.127,0,0,1,2.237.571,2.5,2.5,0,0,1,1.129,1.749l-1.6.378a1.594,1.594,0,0,0-.637-.984A1.96,1.96,0,0,0,117.9-7.6a1.957,1.957,0,0,0-1.024.25.828.828,0,0,0-.417.76,1.032,1.032,0,0,0,.031.259.506.506,0,0,0,.119.215l.158.171a.825.825,0,0,0,.229.154q.158.079.255.123a2.767,2.767,0,0,0,.316.11l.325.1q.105.031.365.1l.365.092q.492.132.839.246a4.843,4.843,0,0,1,.765.338,2.665,2.665,0,0,1,.677.5,2.219,2.219,0,0,1,.435.708,2.571,2.571,0,0,1,.176.971,2.623,2.623,0,0,1-.281,1.244,2.139,2.139,0,0,1-.769.835,3.768,3.768,0,0,1-1.09.453A5.449,5.449,0,0,1,118.055.167Zm14.159,0a4.647,4.647,0,0,1-3.349-1.244,4.421,4.421,0,0,1-1.3-3.353,4.4,4.4,0,0,1,1.3-3.335,4.647,4.647,0,0,1,3.349-1.244,4.668,4.668,0,0,1,3.357,1.239,4.4,4.4,0,0,1,1.3,3.34,4.421,4.421,0,0,1-1.3,3.353A4.658,4.658,0,0,1,132.214.167ZM132.2-1.468a2.479,2.479,0,0,0,1.916-.817,3.055,3.055,0,0,0,.747-2.145,3.039,3.039,0,0,0-.747-2.14,2.485,2.485,0,0,0-1.916-.813,2.428,2.428,0,0,0-1.881.813,3.061,3.061,0,0,0-.738,2.14,3.088,3.088,0,0,0,.734,2.145A2.419,2.419,0,0,0,132.2-1.468Zm11.751-7.541a4.089,4.089,0,0,1,1.617.325,4.034,4.034,0,0,1,1.332.91,4.24,4.24,0,0,1,.9,1.455,5.28,5.28,0,0,1,.334,1.907,5.4,5.4,0,0,1-.33,1.92,4.146,4.146,0,0,1-.9,1.459,4.1,4.1,0,0,1-1.332.91A4.08,4.08,0,0,1,143.947.2a3.622,3.622,0,0,1-1.775-.435,2.81,2.81,0,0,1-1.178-1.182L140.941,0h-1.934V-13.5h2.013l.009,6.038A2.813,2.813,0,0,1,142.207-8.6,3.667,3.667,0,0,1,143.947-9.009Zm-2.32,6.68a2.42,2.42,0,0,0,1.863.817,2.458,2.458,0,0,0,1.868-.8,2.943,2.943,0,0,0,.751-2.1,2.927,2.927,0,0,0-.751-2.1,2.465,2.465,0,0,0-1.868-.8,2.424,2.424,0,0,0-1.859.817,2.946,2.946,0,0,0-.751,2.074A2.968,2.968,0,0,0,141.627-2.329Zm9.7-8.2a1.207,1.207,0,0,1-.879-.365,1.186,1.186,0,0,1-.369-.875,1.193,1.193,0,0,1,.365-.875,1.2,1.2,0,0,1,.883-.365,1.2,1.2,0,0,1,.87.365,1.186,1.186,0,0,1,.369.875,1.186,1.186,0,0,1-.369.875A1.2,1.2,0,0,1,151.33-10.529ZM148.368,4.14V2.5a1.747,1.747,0,0,0,1.542-.558,4.281,4.281,0,0,0,.374-2.167V-8.842h2.048V-.22a4.946,4.946,0,0,1-.914,3.344A3.938,3.938,0,0,1,148.368,4.14Zm14.854-8.71-.026.51h-6.724a2.667,2.667,0,0,0,.773,1.934,2.525,2.525,0,0,0,1.784.668,2.424,2.424,0,0,0,1.314-.36,2.272,2.272,0,0,0,.875-1.028l1.846.316a3.886,3.886,0,0,1-1.529,1.986,4.392,4.392,0,0,1-2.487.712,4.533,4.533,0,0,1-3.313-1.222,4.494,4.494,0,0,1-1.248-3.366,4.512,4.512,0,0,1,1.248-3.366,4.433,4.433,0,0,1,3.252-1.23,4.21,4.21,0,0,1,3.067,1.129A4.453,4.453,0,0,1,163.222-4.57Zm-4.228-2.944a2.58,2.58,0,0,0-1.6.479,2.332,2.332,0,0,0-.839,1.463h4.632a2.131,2.131,0,0,0-.7-1.45A2.251,2.251,0,0,0,158.994-7.515ZM168.434,0a2.5,2.5,0,0,1-1.863-.677,2.6,2.6,0,0,1-.668-1.907V-7.26h-1.767V-8.842h.606a1.382,1.382,0,0,0,1.042-.338,1.709,1.709,0,0,0,.321-1.182v-1.371h1.846v2.892h1.925V-7.26H167.95v4.465a1.267,1.267,0,0,0,.3.918,1.093,1.093,0,0,0,.822.312h.8V0ZM173-10.529a1.207,1.207,0,0,1-.879-.365,1.186,1.186,0,0,1-.369-.875,1.193,1.193,0,0,1,.365-.875,1.2,1.2,0,0,1,.883-.365,1.2,1.2,0,0,1,.87.365,1.186,1.186,0,0,1,.369.875,1.186,1.186,0,0,1-.369.875A1.2,1.2,0,0,1,173-10.529ZM171.958,0V-8.842h2.03V0Zm10.529-8.842h2.153L180.958,0h-1.749l-3.656-8.842H177.7l2.382,6.521ZM189.765.167a4.647,4.647,0,0,1-3.349-1.244,4.421,4.421,0,0,1-1.3-3.353,4.4,4.4,0,0,1,1.3-3.335,4.647,4.647,0,0,1,3.349-1.244,4.668,4.668,0,0,1,3.357,1.239,4.4,4.4,0,0,1,1.3,3.34,4.421,4.421,0,0,1-1.3,3.353A4.658,4.658,0,0,1,189.765.167Zm-.018-1.635a2.479,2.479,0,0,0,1.916-.817,3.055,3.055,0,0,0,.747-2.145,3.039,3.039,0,0,0-.747-2.14,2.485,2.485,0,0,0-1.916-.813,2.428,2.428,0,0,0-1.881.813,3.061,3.061,0,0,0-.738,2.14,3.088,3.088,0,0,0,.734,2.145A2.419,2.419,0,0,0,189.747-1.468ZM199.512.167a4.552,4.552,0,0,1-2.479-.628,2.623,2.623,0,0,1-1.213-1.824l1.714-.483a1.832,1.832,0,0,0,.694,1.112,2.138,2.138,0,0,0,1.283.374,2.049,2.049,0,0,0,1.072-.264.9.9,0,0,0,.431-.853.824.824,0,0,0-.114-.435,1.2,1.2,0,0,0-.272-.316,1.9,1.9,0,0,0-.453-.25,5.107,5.107,0,0,0-.536-.193l-.655-.193q-.413-.123-.686-.211a6.249,6.249,0,0,1-.844-.325,4,4,0,0,1-.694-.439,1.72,1.72,0,0,1-.532-.69,2.434,2.434,0,0,1-.18-.971,2.324,2.324,0,0,1,.448-1.45,2.549,2.549,0,0,1,1.178-.857A4.824,4.824,0,0,1,199.345-9a4.127,4.127,0,0,1,2.237.571,2.5,2.5,0,0,1,1.129,1.749l-1.6.378a1.594,1.594,0,0,0-.637-.984,1.96,1.96,0,0,0-1.121-.316,1.957,1.957,0,0,0-1.024.25.828.828,0,0,0-.417.76,1.032,1.032,0,0,0,.031.259.506.506,0,0,0,.119.215l.158.171a.825.825,0,0,0,.229.154q.158.079.255.123a2.767,2.767,0,0,0,.316.11l.325.1q.105.031.365.1l.365.092q.492.132.839.246a4.843,4.843,0,0,1,.765.338,2.665,2.665,0,0,1,.677.5,2.219,2.219,0,0,1,.435.708,2.571,2.571,0,0,1,.176.971,2.623,2.623,0,0,1-.281,1.244,2.139,2.139,0,0,1-.769.835,3.768,3.768,0,0,1-1.09.453A5.449,5.449,0,0,1,199.512.167Zm15.855-9.009h2.1l-5.291,13h-2.065l1.9-4.447-3.542-8.552h2.224l2.294,6.328ZM223.734,0V-13.5h2.039V0Zm6.987.167a3.669,3.669,0,0,1-1.349-.233,2.144,2.144,0,0,1-.984-.791A2.353,2.353,0,0,1,228-2.241a2.564,2.564,0,0,1,.18-.989,2.165,2.165,0,0,1,.475-.725,2.789,2.789,0,0,1,.747-.51,5.358,5.358,0,0,1,.914-.347q.461-.127,1.068-.242l1.336-.246q.817-.158.817-.8a1.256,1.256,0,0,0-.492-1.1A2.1,2.1,0,0,0,231.8-7.55a2.075,2.075,0,0,0-1.274.374,1.636,1.636,0,0,0-.6,1.182l-1.819-.334Q228.56-9,231.926-9a6.23,6.23,0,0,1,1.05.083,3.751,3.751,0,0,1,.958.3,2.756,2.756,0,0,1,.8.558,2.435,2.435,0,0,1,.536.9,3.743,3.743,0,0,1,.2,1.279v3.428a1.4,1.4,0,0,0,.185.844.8.8,0,0,0,.65.229h.141V0h-.958q-1.5,0-1.793-1.169h-.1a2.874,2.874,0,0,1-1.252,1.011A4.143,4.143,0,0,1,230.722.167Zm.475-1.591a2.351,2.351,0,0,0,1.767-.729,2.645,2.645,0,0,0,.7-1.916l-2.259.5a2.708,2.708,0,0,0-1.09.409.883.883,0,0,0-.36.751.849.849,0,0,0,.343.738A1.5,1.5,0,0,0,231.2-1.424ZM241.365.167a4.552,4.552,0,0,1-2.479-.628,2.623,2.623,0,0,1-1.213-1.824l1.714-.483a1.832,1.832,0,0,0,.694,1.112,2.138,2.138,0,0,0,1.283.374,2.049,2.049,0,0,0,1.072-.264.9.9,0,0,0,.431-.853.824.824,0,0,0-.114-.435,1.2,1.2,0,0,0-.272-.316,1.9,1.9,0,0,0-.453-.25,5.107,5.107,0,0,0-.536-.193l-.655-.193q-.413-.123-.686-.211a6.249,6.249,0,0,1-.844-.325,4,4,0,0,1-.694-.439,1.72,1.72,0,0,1-.532-.69,2.434,2.434,0,0,1-.18-.971,2.324,2.324,0,0,1,.448-1.45,2.549,2.549,0,0,1,1.178-.857A4.824,4.824,0,0,1,241.2-9a4.127,4.127,0,0,1,2.237.571,2.5,2.5,0,0,1,1.129,1.749l-1.6.378a1.594,1.594,0,0,0-.637-.984,1.96,1.96,0,0,0-1.121-.316,1.957,1.957,0,0,0-1.024.25.828.828,0,0,0-.417.76,1.032,1.032,0,0,0,.031.259.506.506,0,0,0,.119.215l.158.171a.825.825,0,0,0,.229.154q.158.079.255.123a2.767,2.767,0,0,0,.316.11l.325.1q.105.031.365.1l.365.092q.492.132.839.246a4.843,4.843,0,0,1,.765.338,2.665,2.665,0,0,1,.677.5,2.219,2.219,0,0,1,.435.708,2.571,2.571,0,0,1,.176.971,2.623,2.623,0,0,1-.281,1.244,2.139,2.139,0,0,1-.769.835,3.768,3.768,0,0,1-1.09.453A5.449,5.449,0,0,1,241.365.167ZM255.437.158a4.487,4.487,0,0,1-3.3-1.27,4.462,4.462,0,0,1-1.283-3.318,4.439,4.439,0,0,1,1.288-3.313,4.5,4.5,0,0,1,3.292-1.266,4.493,4.493,0,0,1,2.711.813,3.838,3.838,0,0,1,1.481,2.272l-1.881.246a2.356,2.356,0,0,0-.866-1.266,2.439,2.439,0,0,0-1.463-.439,2.32,2.32,0,0,0-1.828.813,3.131,3.131,0,0,0-.712,2.14,3.131,3.131,0,0,0,.712,2.14,2.32,2.32,0,0,0,1.828.813,2.456,2.456,0,0,0,1.463-.435,2.334,2.334,0,0,0,.866-1.261l1.881.237a3.843,3.843,0,0,1-1.49,2.276A4.485,4.485,0,0,1,255.437.158Zm8.306.009a3.669,3.669,0,0,1-1.349-.233,2.144,2.144,0,0,1-.984-.791,2.353,2.353,0,0,1-.391-1.384,2.564,2.564,0,0,1,.18-.989,2.165,2.165,0,0,1,.475-.725,2.789,2.789,0,0,1,.747-.51,5.358,5.358,0,0,1,.914-.347q.461-.127,1.068-.242l1.336-.246q.817-.158.817-.8a1.256,1.256,0,0,0-.492-1.1,2.1,2.1,0,0,0-1.239-.347,2.075,2.075,0,0,0-1.274.374,1.636,1.636,0,0,0-.6,1.182l-1.819-.334Q261.58-9,264.946-9a6.23,6.23,0,0,1,1.05.083,3.751,3.751,0,0,1,.958.3,2.756,2.756,0,0,1,.8.558,2.435,2.435,0,0,1,.536.9,3.743,3.743,0,0,1,.2,1.279v3.428a1.4,1.4,0,0,0,.185.844.8.8,0,0,0,.65.229h.141V0h-.958q-1.5,0-1.793-1.169h-.1a2.874,2.874,0,0,1-1.252,1.011A4.143,4.143,0,0,1,263.742.167Zm.475-1.591a2.351,2.351,0,0,0,1.767-.729,2.645,2.645,0,0,0,.7-1.916l-2.259.5a2.708,2.708,0,0,0-1.09.409.883.883,0,0,0-.36.751.849.849,0,0,0,.343.738A1.5,1.5,0,0,0,264.217-1.424Zm11.918-7.585a3.273,3.273,0,0,1,2.338.8,2.96,2.96,0,0,1,.844,2.263V0h-2.039V-5.511A1.814,1.814,0,0,0,276.79-6.9a1.768,1.768,0,0,0-1.252-.453,2.066,2.066,0,0,0-1.494.558,2.311,2.311,0,0,0-.589,1.718V0h-2.021V-8.842h2.021V-7.8a2.987,2.987,0,0,1,1.138-.9A3.658,3.658,0,0,1,276.135-9.009ZM285.064,0A2.5,2.5,0,0,1,283.2-.677a2.6,2.6,0,0,1-.668-1.907V-7.26h-1.767V-8.842h.606a1.382,1.382,0,0,0,1.042-.338,1.709,1.709,0,0,0,.321-1.182v-1.371h1.846v2.892h1.925V-7.26h-1.925v4.465a1.267,1.267,0,0,0,.3.918,1.093,1.093,0,0,0,.822.312h.8V0Zm4.562-10.529a1.207,1.207,0,0,1-.879-.365,1.186,1.186,0,0,1-.369-.875,1.193,1.193,0,0,1,.365-.875,1.2,1.2,0,0,1,.883-.365,1.2,1.2,0,0,1,.87.365,1.186,1.186,0,0,1,.369.875,1.186,1.186,0,0,1-.369.875A1.2,1.2,0,0,1,289.626-10.529ZM288.589,0V-8.842h2.03V0Zm11.285-13.5H301.9V0h-1.934l-.053-1.406a2.845,2.845,0,0,1-1.182,1.178A3.608,3.608,0,0,1,296.965.2a4.08,4.08,0,0,1-1.622-.325,4.1,4.1,0,0,1-1.332-.91,4.2,4.2,0,0,1-.905-1.459,5.341,5.341,0,0,1-.334-1.92,5.28,5.28,0,0,1,.334-1.907,4.2,4.2,0,0,1,.905-1.455,4.082,4.082,0,0,1,1.336-.91,4.089,4.089,0,0,1,1.617-.325,3.656,3.656,0,0,1,1.727.409,2.84,2.84,0,0,1,1.182,1.121ZM295.541-2.312a2.472,2.472,0,0,0,1.872.8,2.42,2.42,0,0,0,1.863-.817,2.968,2.968,0,0,0,.747-2.083,2.946,2.946,0,0,0-.751-2.074,2.424,2.424,0,0,0-1.859-.817,2.465,2.465,0,0,0-1.868.8,2.927,2.927,0,0,0-.751,2.1A2.953,2.953,0,0,0,295.541-2.312Zm11.3,2.479a3.669,3.669,0,0,1-1.349-.233,2.144,2.144,0,0,1-.984-.791,2.353,2.353,0,0,1-.391-1.384,2.564,2.564,0,0,1,.18-.989,2.165,2.165,0,0,1,.475-.725,2.789,2.789,0,0,1,.747-.51,5.358,5.358,0,0,1,.914-.347q.461-.127,1.068-.242l1.336-.246q.817-.158.817-.8a1.256,1.256,0,0,0-.492-1.1,2.1,2.1,0,0,0-1.239-.347,2.075,2.075,0,0,0-1.274.374,1.636,1.636,0,0,0-.6,1.182l-1.819-.334Q304.682-9,308.048-9a6.23,6.23,0,0,1,1.05.083,3.751,3.751,0,0,1,.958.3,2.756,2.756,0,0,1,.8.558,2.435,2.435,0,0,1,.536.9,3.743,3.743,0,0,1,.2,1.279v3.428a1.4,1.4,0,0,0,.185.844.8.8,0,0,0,.65.229h.141V0h-.958q-1.5,0-1.793-1.169h-.1a2.874,2.874,0,0,1-1.252,1.011A4.143,4.143,0,0,1,306.844.167Zm.475-1.591a2.351,2.351,0,0,0,1.767-.729,2.645,2.645,0,0,0,.7-1.916l-2.259.5a2.708,2.708,0,0,0-1.09.409.883.883,0,0,0-.36.751.849.849,0,0,0,.343.738A1.5,1.5,0,0,0,307.318-1.424Zm13.4-12.076h2.021V0H320.81l-.053-1.406a2.845,2.845,0,0,1-1.182,1.178A3.608,3.608,0,0,1,317.813.2a4.08,4.08,0,0,1-1.622-.325,4.1,4.1,0,0,1-1.332-.91,4.2,4.2,0,0,1-.905-1.459,5.341,5.341,0,0,1-.334-1.92,5.28,5.28,0,0,1,.334-1.907,4.2,4.2,0,0,1,.905-1.455,4.082,4.082,0,0,1,1.336-.91,4.089,4.089,0,0,1,1.617-.325,3.656,3.656,0,0,1,1.727.409,2.84,2.84,0,0,1,1.182,1.121ZM316.389-2.312a2.472,2.472,0,0,0,1.872.8,2.42,2.42,0,0,0,1.863-.817,2.968,2.968,0,0,0,.747-2.083,2.946,2.946,0,0,0-.751-2.074,2.424,2.424,0,0,0-1.859-.817,2.465,2.465,0,0,0-1.868.8,2.927,2.927,0,0,0-.751,2.1A2.953,2.953,0,0,0,316.389-2.312ZM333.633-4.57l-.026.51h-6.724a2.667,2.667,0,0,0,.773,1.934,2.525,2.525,0,0,0,1.784.668,2.424,2.424,0,0,0,1.314-.36,2.272,2.272,0,0,0,.875-1.028l1.846.316a3.886,3.886,0,0,1-1.529,1.986,4.392,4.392,0,0,1-2.487.712,4.533,4.533,0,0,1-3.313-1.222A4.494,4.494,0,0,1,324.9-4.421a4.512,4.512,0,0,1,1.248-3.366,4.433,4.433,0,0,1,3.252-1.23,4.21,4.21,0,0,1,3.067,1.129A4.453,4.453,0,0,1,333.633-4.57Zm-4.228-2.944a2.58,2.58,0,0,0-1.6.479,2.332,2.332,0,0,0-.839,1.463H331.6a2.131,2.131,0,0,0-.7-1.45A2.251,2.251,0,0,0,329.405-7.515ZM338.739.167a4.552,4.552,0,0,1-2.479-.628,2.623,2.623,0,0,1-1.213-1.824l1.714-.483a1.832,1.832,0,0,0,.694,1.112,2.138,2.138,0,0,0,1.283.374,2.049,2.049,0,0,0,1.072-.264.9.9,0,0,0,.431-.853.824.824,0,0,0-.114-.435,1.2,1.2,0,0,0-.272-.316,1.9,1.9,0,0,0-.453-.25,5.107,5.107,0,0,0-.536-.193l-.655-.193q-.413-.123-.686-.211a6.249,6.249,0,0,1-.844-.325,4,4,0,0,1-.694-.439,1.72,1.72,0,0,1-.532-.69,2.434,2.434,0,0,1-.18-.971,2.324,2.324,0,0,1,.448-1.45,2.549,2.549,0,0,1,1.178-.857A4.824,4.824,0,0,1,338.572-9a4.127,4.127,0,0,1,2.237.571,2.5,2.5,0,0,1,1.129,1.749l-1.6.378a1.594,1.594,0,0,0-.637-.984,1.96,1.96,0,0,0-1.121-.316,1.957,1.957,0,0,0-1.024.25.828.828,0,0,0-.417.76,1.032,1.032,0,0,0,.031.259.506.506,0,0,0,.119.215l.158.171a.825.825,0,0,0,.229.154q.158.079.255.123a2.767,2.767,0,0,0,.316.11l.325.1q.105.031.365.1l.365.092q.492.132.839.246a4.843,4.843,0,0,1,.765.338,2.665,2.665,0,0,1,.677.5,2.219,2.219,0,0,1,.435.708,2.571,2.571,0,0,1,.176.971,2.623,2.623,0,0,1-.281,1.244,2.139,2.139,0,0,1-.769.835,3.768,3.768,0,0,1-1.09.453A5.449,5.449,0,0,1,338.739.167ZM355.368-13.5h2.021V0h-1.934L355.4-1.406a2.845,2.845,0,0,1-1.182,1.178A3.608,3.608,0,0,1,352.459.2a4.08,4.08,0,0,1-1.622-.325,4.1,4.1,0,0,1-1.332-.91,4.2,4.2,0,0,1-.905-1.459,5.341,5.341,0,0,1-.334-1.92,5.28,5.28,0,0,1,.334-1.907,4.2,4.2,0,0,1,.905-1.455,4.082,4.082,0,0,1,1.336-.91,4.089,4.089,0,0,1,1.617-.325,3.656,3.656,0,0,1,1.727.409,2.84,2.84,0,0,1,1.182,1.121ZM351.035-2.312a2.472,2.472,0,0,0,1.872.8,2.42,2.42,0,0,0,1.863-.817,2.968,2.968,0,0,0,.747-2.083,2.946,2.946,0,0,0-.751-2.074,2.424,2.424,0,0,0-1.859-.817,2.465,2.465,0,0,0-1.868.8,2.927,2.927,0,0,0-.751,2.1A2.953,2.953,0,0,0,351.035-2.312ZM368.279-4.57l-.026.51h-6.724a2.667,2.667,0,0,0,.773,1.934,2.525,2.525,0,0,0,1.784.668,2.424,2.424,0,0,0,1.314-.36,2.272,2.272,0,0,0,.875-1.028l1.846.316a3.886,3.886,0,0,1-1.529,1.986A4.392,4.392,0,0,1,364.1.167a4.533,4.533,0,0,1-3.313-1.222,4.494,4.494,0,0,1-1.248-3.366,4.512,4.512,0,0,1,1.248-3.366,4.433,4.433,0,0,1,3.252-1.23,4.21,4.21,0,0,1,3.067,1.129A4.453,4.453,0,0,1,368.279-4.57Zm-4.228-2.944a2.58,2.58,0,0,0-1.6.479,2.332,2.332,0,0,0-.839,1.463h4.632a2.131,2.131,0,0,0-.7-1.45A2.251,2.251,0,0,0,364.052-7.515Zm13.008.158a2.67,2.67,0,0,1,1.121-1.125,3.5,3.5,0,0,1,1.727-.457v1.846a3.115,3.115,0,0,0-2.087.593,2.523,2.523,0,0,0-.681,1.991V0h-2.03V-8.842h1.951ZM389.479-4.57l-.026.51h-6.724a2.667,2.667,0,0,0,.773,1.934,2.525,2.525,0,0,0,1.784.668,2.424,2.424,0,0,0,1.314-.36,2.272,2.272,0,0,0,.875-1.028l1.846.316a3.886,3.886,0,0,1-1.529,1.986A4.392,4.392,0,0,1,385.3.167a4.533,4.533,0,0,1-3.313-1.222,4.494,4.494,0,0,1-1.248-3.366,4.512,4.512,0,0,1,1.248-3.366,4.433,4.433,0,0,1,3.252-1.23,4.21,4.21,0,0,1,3.067,1.129A4.453,4.453,0,0,1,389.479-4.57Zm-4.228-2.944a2.58,2.58,0,0,0-1.6.479,2.332,2.332,0,0,0-.839,1.463h4.632a2.131,2.131,0,0,0-.7-1.45A2.251,2.251,0,0,0,385.251-7.515ZM395.464.158a4.487,4.487,0,0,1-3.3-1.27,4.462,4.462,0,0,1-1.283-3.318,4.439,4.439,0,0,1,1.288-3.313,4.5,4.5,0,0,1,3.292-1.266,4.493,4.493,0,0,1,2.711.813,3.838,3.838,0,0,1,1.481,2.272l-1.881.246a2.356,2.356,0,0,0-.866-1.266,2.439,2.439,0,0,0-1.463-.439,2.32,2.32,0,0,0-1.828.813,3.131,3.131,0,0,0-.712,2.14,3.131,3.131,0,0,0,.712,2.14,2.32,2.32,0,0,0,1.828.813,2.456,2.456,0,0,0,1.463-.435,2.334,2.334,0,0,0,.866-1.261l1.881.237a3.843,3.843,0,0,1-1.49,2.276A4.485,4.485,0,0,1,395.464.158Zm11.9-9h2.021V0h-1.925l-.053-1.107A3.163,3.163,0,0,1,404.684.167a3.273,3.273,0,0,1-2.338-.8,2.96,2.96,0,0,1-.844-2.263v-5.95h2.039v5.511a1.814,1.814,0,0,0,.488,1.393,1.781,1.781,0,0,0,1.261.453,2.051,2.051,0,0,0,1.49-.558,2.322,2.322,0,0,0,.584-1.718ZM414.2-7.356a2.67,2.67,0,0,1,1.121-1.125,3.5,3.5,0,0,1,1.727-.457v1.846a3.115,3.115,0,0,0-2.087.593,2.523,2.523,0,0,0-.681,1.991V0h-2.03V-8.842H414.2ZM421.638.167a4.552,4.552,0,0,1-2.479-.628,2.623,2.623,0,0,1-1.213-1.824l1.714-.483a1.832,1.832,0,0,0,.694,1.112,2.138,2.138,0,0,0,1.283.374,2.049,2.049,0,0,0,1.072-.264.9.9,0,0,0,.431-.853.824.824,0,0,0-.114-.435,1.2,1.2,0,0,0-.272-.316,1.9,1.9,0,0,0-.453-.25,5.107,5.107,0,0,0-.536-.193l-.655-.193q-.413-.123-.686-.211a6.249,6.249,0,0,1-.844-.325,4,4,0,0,1-.694-.439,1.72,1.72,0,0,1-.532-.69,2.434,2.434,0,0,1-.18-.971,2.324,2.324,0,0,1,.448-1.45,2.549,2.549,0,0,1,1.178-.857A4.824,4.824,0,0,1,421.471-9a4.127,4.127,0,0,1,2.237.571,2.5,2.5,0,0,1,1.129,1.749l-1.6.378a1.594,1.594,0,0,0-.637-.984,1.96,1.96,0,0,0-1.121-.316,1.957,1.957,0,0,0-1.024.25.828.828,0,0,0-.417.76,1.032,1.032,0,0,0,.031.259.506.506,0,0,0,.119.215l.158.171a.825.825,0,0,0,.229.154q.158.079.255.123a2.767,2.767,0,0,0,.316.11l.325.1q.105.031.365.1l.365.092q.492.132.839.246a4.843,4.843,0,0,1,.765.338,2.665,2.665,0,0,1,.677.5,2.219,2.219,0,0,1,.435.708,2.571,2.571,0,0,1,.176.971,2.623,2.623,0,0,1-.281,1.244,2.139,2.139,0,0,1-.769.835,3.768,3.768,0,0,1-1.09.453A5.449,5.449,0,0,1,421.638.167Zm9.483,0a4.647,4.647,0,0,1-3.349-1.244,4.421,4.421,0,0,1-1.3-3.353,4.4,4.4,0,0,1,1.3-3.335,4.647,4.647,0,0,1,3.349-1.244,4.668,4.668,0,0,1,3.357,1.239,4.4,4.4,0,0,1,1.3,3.34,4.421,4.421,0,0,1-1.3,3.353A4.658,4.658,0,0,1,431.121.167ZM431.1-1.468a2.479,2.479,0,0,0,1.916-.817,3.055,3.055,0,0,0,.747-2.145,3.039,3.039,0,0,0-.747-2.14,2.485,2.485,0,0,0-1.916-.813,2.428,2.428,0,0,0-1.881.813,3.061,3.061,0,0,0-.738,2.14,3.088,3.088,0,0,0,.734,2.145A2.419,2.419,0,0,0,431.1-1.468ZM440.868.167a4.552,4.552,0,0,1-2.479-.628,2.623,2.623,0,0,1-1.213-1.824l1.714-.483a1.832,1.832,0,0,0,.694,1.112,2.138,2.138,0,0,0,1.283.374,2.049,2.049,0,0,0,1.072-.264.9.9,0,0,0,.431-.853.824.824,0,0,0-.114-.435,1.2,1.2,0,0,0-.272-.316,1.9,1.9,0,0,0-.453-.25A5.107,5.107,0,0,0,441-3.595l-.655-.193q-.413-.123-.686-.211a6.249,6.249,0,0,1-.844-.325,4,4,0,0,1-.694-.439,1.72,1.72,0,0,1-.532-.69,2.434,2.434,0,0,1-.18-.971,2.324,2.324,0,0,1,.448-1.45,2.549,2.549,0,0,1,1.178-.857A4.824,4.824,0,0,1,440.7-9a4.127,4.127,0,0,1,2.237.571,2.5,2.5,0,0,1,1.129,1.749l-1.6.378a1.594,1.594,0,0,0-.637-.984A1.96,1.96,0,0,0,440.71-7.6a1.957,1.957,0,0,0-1.024.25.828.828,0,0,0-.417.76,1.032,1.032,0,0,0,.031.259.506.506,0,0,0,.119.215l.158.171a.825.825,0,0,0,.229.154q.158.079.255.123a2.767,2.767,0,0,0,.316.11l.325.1q.105.031.365.1l.365.092q.492.132.839.246a4.843,4.843,0,0,1,.765.338,2.665,2.665,0,0,1,.677.5,2.219,2.219,0,0,1,.435.708,2.571,2.571,0,0,1,.176.971,2.623,2.623,0,0,1-.281,1.244,2.139,2.139,0,0,1-.769.835,3.768,3.768,0,0,1-1.09.453A5.449,5.449,0,0,1,440.868.167ZM455.81-9.009a3.273,3.273,0,0,1,2.338.8,2.96,2.96,0,0,1,.844,2.263V0h-2.039V-5.511a1.814,1.814,0,0,0-.488-1.393,1.768,1.768,0,0,0-1.252-.453,2.066,2.066,0,0,0-1.494.558,2.311,2.311,0,0,0-.589,1.718V0h-2.021V-8.842h2.021V-7.8a2.987,2.987,0,0,1,1.138-.9A3.658,3.658,0,0,1,455.81-9.009Zm13.9,4.438-.026.51h-6.724a2.667,2.667,0,0,0,.773,1.934,2.525,2.525,0,0,0,1.784.668,2.424,2.424,0,0,0,1.314-.36,2.272,2.272,0,0,0,.875-1.028l1.846.316a3.886,3.886,0,0,1-1.529,1.986,4.392,4.392,0,0,1-2.487.712,4.533,4.533,0,0,1-3.313-1.222,4.494,4.494,0,0,1-1.248-3.366,4.512,4.512,0,0,1,1.248-3.366,4.433,4.433,0,0,1,3.252-1.23,4.21,4.21,0,0,1,3.067,1.129A4.453,4.453,0,0,1,469.705-4.57Zm-4.228-2.944a2.58,2.58,0,0,0-1.6.479,2.332,2.332,0,0,0-.839,1.463h4.632a2.131,2.131,0,0,0-.7-1.45A2.251,2.251,0,0,0,465.478-7.515ZM475.69.158a4.487,4.487,0,0,1-3.3-1.27,4.462,4.462,0,0,1-1.283-3.318A4.439,4.439,0,0,1,472.4-7.743a4.5,4.5,0,0,1,3.292-1.266A4.493,4.493,0,0,1,478.4-8.2a3.838,3.838,0,0,1,1.481,2.272L478-5.678a2.356,2.356,0,0,0-.866-1.266,2.439,2.439,0,0,0-1.463-.439,2.32,2.32,0,0,0-1.828.813,3.131,3.131,0,0,0-.712,2.14,3.131,3.131,0,0,0,.712,2.14,2.32,2.32,0,0,0,1.828.813,2.456,2.456,0,0,0,1.463-.435A2.334,2.334,0,0,0,478-3.173l1.881.237a3.843,3.843,0,0,1-1.49,2.276A4.485,4.485,0,0,1,475.69.158ZM489.938-4.57l-.026.51h-6.724a2.667,2.667,0,0,0,.773,1.934,2.525,2.525,0,0,0,1.784.668,2.424,2.424,0,0,0,1.314-.36,2.272,2.272,0,0,0,.875-1.028l1.846.316A3.886,3.886,0,0,1,488.25-.545a4.392,4.392,0,0,1-2.487.712,4.533,4.533,0,0,1-3.313-1.222A4.494,4.494,0,0,1,481.2-4.421a4.512,4.512,0,0,1,1.248-3.366,4.433,4.433,0,0,1,3.252-1.23,4.21,4.21,0,0,1,3.067,1.129A4.453,4.453,0,0,1,489.938-4.57ZM485.71-7.515a2.58,2.58,0,0,0-1.6.479,2.332,2.332,0,0,0-.839,1.463h4.632a2.131,2.131,0,0,0-.7-1.45A2.251,2.251,0,0,0,485.71-7.515ZM495.044.167a4.552,4.552,0,0,1-2.479-.628,2.623,2.623,0,0,1-1.213-1.824l1.714-.483a1.832,1.832,0,0,0,.694,1.112,2.138,2.138,0,0,0,1.283.374,2.049,2.049,0,0,0,1.072-.264.9.9,0,0,0,.431-.853.824.824,0,0,0-.114-.435,1.2,1.2,0,0,0-.272-.316,1.9,1.9,0,0,0-.453-.25,5.107,5.107,0,0,0-.536-.193l-.655-.193q-.413-.123-.686-.211a6.249,6.249,0,0,1-.844-.325,4,4,0,0,1-.694-.439,1.72,1.72,0,0,1-.532-.69,2.434,2.434,0,0,1-.18-.971,2.324,2.324,0,0,1,.448-1.45,2.549,2.549,0,0,1,1.178-.857A4.824,4.824,0,0,1,494.877-9a4.127,4.127,0,0,1,2.237.571,2.5,2.5,0,0,1,1.129,1.749l-1.6.378a1.594,1.594,0,0,0-.637-.984,1.96,1.96,0,0,0-1.121-.316,1.957,1.957,0,0,0-1.024.25.828.828,0,0,0-.417.76,1.032,1.032,0,0,0,.031.259.506.506,0,0,0,.119.215l.158.171a.825.825,0,0,0,.229.154q.158.079.255.123a2.767,2.767,0,0,0,.316.11l.325.1q.105.031.365.1l.365.092q.492.132.839.246a4.843,4.843,0,0,1,.765.338,2.665,2.665,0,0,1,.677.5,2.219,2.219,0,0,1,.435.708,2.571,2.571,0,0,1,.176.971,2.623,2.623,0,0,1-.281,1.244,2.139,2.139,0,0,1-.769.835,3.768,3.768,0,0,1-1.09.453A5.449,5.449,0,0,1,495.044.167Zm7.646,0a3.669,3.669,0,0,1-1.349-.233,2.144,2.144,0,0,1-.984-.791,2.353,2.353,0,0,1-.391-1.384,2.564,2.564,0,0,1,.18-.989,2.165,2.165,0,0,1,.475-.725,2.789,2.789,0,0,1,.747-.51,5.358,5.358,0,0,1,.914-.347q.461-.127,1.068-.242l1.336-.246q.817-.158.817-.8a1.256,1.256,0,0,0-.492-1.1,2.1,2.1,0,0,0-1.239-.347,2.075,2.075,0,0,0-1.274.374,1.636,1.636,0,0,0-.6,1.182l-1.819-.334Q500.528-9,503.895-9a6.23,6.23,0,0,1,1.05.083,3.751,3.751,0,0,1,.958.3,2.756,2.756,0,0,1,.8.558,2.435,2.435,0,0,1,.536.9,3.743,3.743,0,0,1,.2,1.279v3.428a1.4,1.4,0,0,0,.185.844.8.8,0,0,0,.65.229h.141V0h-.958q-1.5,0-1.793-1.169h-.1a2.874,2.874,0,0,1-1.252,1.011A4.143,4.143,0,0,1,502.69.167Zm.475-1.591a2.351,2.351,0,0,0,1.767-.729,2.645,2.645,0,0,0,.7-1.916l-2.259.5a2.708,2.708,0,0,0-1.09.409.883.883,0,0,0-.36.751.849.849,0,0,0,.343.738A1.5,1.5,0,0,0,503.165-1.424Zm9.167-5.933a2.67,2.67,0,0,1,1.121-1.125,3.5,3.5,0,0,1,1.727-.457v1.846a3.115,3.115,0,0,0-2.087.593,2.523,2.523,0,0,0-.681,1.991V0h-2.03V-8.842h1.951Zm5.52-3.173a1.207,1.207,0,0,1-.879-.365,1.186,1.186,0,0,1-.369-.875,1.193,1.193,0,0,1,.365-.875,1.2,1.2,0,0,1,.883-.365,1.2,1.2,0,0,1,.87.365,1.186,1.186,0,0,1,.369.875,1.186,1.186,0,0,1-.369.875A1.2,1.2,0,0,1,517.852-10.529ZM516.814,0V-8.842h2.03V0Zm8.815.167a4.647,4.647,0,0,1-3.349-1.244,4.421,4.421,0,0,1-1.3-3.353,4.4,4.4,0,0,1,1.3-3.335,4.647,4.647,0,0,1,3.349-1.244,4.668,4.668,0,0,1,3.357,1.239,4.4,4.4,0,0,1,1.3,3.34,4.421,4.421,0,0,1-1.3,3.353A4.658,4.658,0,0,1,525.63.167Zm-.018-1.635a2.479,2.479,0,0,0,1.916-.817,3.055,3.055,0,0,0,.747-2.145,3.039,3.039,0,0,0-.747-2.14,2.485,2.485,0,0,0-1.916-.813,2.428,2.428,0,0,0-1.881.813,3.061,3.061,0,0,0-.738,2.14,3.088,3.088,0,0,0,.734,2.145A2.419,2.419,0,0,0,525.612-1.468ZM535.377.167A4.552,4.552,0,0,1,532.9-.461a2.623,2.623,0,0,1-1.213-1.824l1.714-.483a1.832,1.832,0,0,0,.694,1.112,2.138,2.138,0,0,0,1.283.374,2.049,2.049,0,0,0,1.072-.264.9.9,0,0,0,.431-.853.824.824,0,0,0-.114-.435,1.2,1.2,0,0,0-.272-.316,1.9,1.9,0,0,0-.453-.25,5.107,5.107,0,0,0-.536-.193l-.655-.193q-.413-.123-.686-.211a6.249,6.249,0,0,1-.844-.325,4,4,0,0,1-.694-.439,1.72,1.72,0,0,1-.532-.69,2.434,2.434,0,0,1-.18-.971,2.324,2.324,0,0,1,.448-1.45,2.549,2.549,0,0,1,1.178-.857A4.824,4.824,0,0,1,535.21-9a4.127,4.127,0,0,1,2.237.571,2.5,2.5,0,0,1,1.129,1.749l-1.6.378a1.594,1.594,0,0,0-.637-.984,1.96,1.96,0,0,0-1.121-.316,1.957,1.957,0,0,0-1.024.25.828.828,0,0,0-.417.76,1.032,1.032,0,0,0,.031.259.506.506,0,0,0,.119.215l.158.171a.825.825,0,0,0,.229.154q.158.079.255.123a2.767,2.767,0,0,0,.316.11l.325.1q.105.031.365.1l.365.092q.492.132.839.246a4.843,4.843,0,0,1,.765.338,2.665,2.665,0,0,1,.677.5,2.219,2.219,0,0,1,.435.708,2.571,2.571,0,0,1,.176.971,2.623,2.623,0,0,1-.281,1.244,2.139,2.139,0,0,1-.769.835,3.768,3.768,0,0,1-1.09.453A5.449,5.449,0,0,1,535.377.167Zm15.17-9.176a4.12,4.12,0,0,1,2.1.545,3.975,3.975,0,0,1,1.516,1.6,5.076,5.076,0,0,1,.571,2.448,5.431,5.431,0,0,1-.33,1.929,4.146,4.146,0,0,1-.9,1.459,4.038,4.038,0,0,1-1.332.905A4.128,4.128,0,0,1,550.547.2a3.624,3.624,0,0,1-1.727-.413,2.851,2.851,0,0,1-1.182-1.134V4.377h-2.021V-8.842h1.934L547.6-7.4a2.805,2.805,0,0,1,1.182-1.182A3.638,3.638,0,0,1,550.547-9.009Zm-.439,7.5a2.447,2.447,0,0,0,1.854-.791,2.946,2.946,0,0,0,.747-2.109,2.915,2.915,0,0,0-.747-2.1,2.461,2.461,0,0,0-1.854-.782,2.453,2.453,0,0,0-1.872.813,2.92,2.92,0,0,0-.756,2.07,2.948,2.948,0,0,0,.756,2.083A2.447,2.447,0,0,0,550.107-1.512ZM558.976.167a3.669,3.669,0,0,1-1.349-.233,2.144,2.144,0,0,1-.984-.791,2.353,2.353,0,0,1-.391-1.384,2.564,2.564,0,0,1,.18-.989,2.165,2.165,0,0,1,.475-.725,2.789,2.789,0,0,1,.747-.51,5.358,5.358,0,0,1,.914-.347q.461-.127,1.068-.242l1.336-.246q.817-.158.817-.8a1.256,1.256,0,0,0-.492-1.1,2.1,2.1,0,0,0-1.239-.347,2.075,2.075,0,0,0-1.274.374,1.636,1.636,0,0,0-.6,1.182l-1.819-.334Q556.813-9,560.18-9a6.23,6.23,0,0,1,1.05.083,3.751,3.751,0,0,1,.958.3,2.756,2.756,0,0,1,.8.558,2.435,2.435,0,0,1,.536.9,3.743,3.743,0,0,1,.2,1.279v3.428a1.4,1.4,0,0,0,.185.844.8.8,0,0,0,.65.229h.141V0h-.958q-1.5,0-1.793-1.169h-.1a2.874,2.874,0,0,1-1.252,1.011A4.143,4.143,0,0,1,558.976.167Zm.475-1.591a2.351,2.351,0,0,0,1.767-.729,2.645,2.645,0,0,0,.7-1.916l-2.259.5a2.708,2.708,0,0,0-1.09.409.883.883,0,0,0-.36.751.849.849,0,0,0,.343.738A1.5,1.5,0,0,0,559.45-1.424Zm9.167-5.933a2.67,2.67,0,0,1,1.121-1.125,3.5,3.5,0,0,1,1.727-.457v1.846a3.115,3.115,0,0,0-2.087.593,2.523,2.523,0,0,0-.681,1.991V0h-2.03V-8.842h1.951ZM575.095.167a3.669,3.669,0,0,1-1.349-.233,2.144,2.144,0,0,1-.984-.791,2.353,2.353,0,0,1-.391-1.384,2.564,2.564,0,0,1,.18-.989,2.165,2.165,0,0,1,.475-.725,2.789,2.789,0,0,1,.747-.51,5.358,5.358,0,0,1,.914-.347q.461-.127,1.068-.242L577.09-5.3q.817-.158.817-.8a1.256,1.256,0,0,0-.492-1.1,2.1,2.1,0,0,0-1.239-.347,2.075,2.075,0,0,0-1.274.374,1.636,1.636,0,0,0-.6,1.182l-1.819-.334Q572.933-9,576.3-9a6.23,6.23,0,0,1,1.05.083,3.751,3.751,0,0,1,.958.3,2.756,2.756,0,0,1,.8.558,2.435,2.435,0,0,1,.536.9,3.743,3.743,0,0,1,.2,1.279v3.428a1.4,1.4,0,0,0,.185.844.8.8,0,0,0,.65.229h.141V0h-.958q-1.5,0-1.793-1.169h-.1a2.874,2.874,0,0,1-1.252,1.011A4.143,4.143,0,0,1,575.095.167Zm.475-1.591a2.351,2.351,0,0,0,1.767-.729,2.645,2.645,0,0,0,.7-1.916l-2.259.5a2.708,2.708,0,0,0-1.09.409.883.883,0,0,0-.36.751.849.849,0,0,0,.343.738A1.5,1.5,0,0,0,575.569-1.424ZM589.544.167a3.669,3.669,0,0,1-1.349-.233,2.144,2.144,0,0,1-.984-.791,2.353,2.353,0,0,1-.391-1.384A2.564,2.564,0,0,1,587-3.23a2.165,2.165,0,0,1,.475-.725,2.789,2.789,0,0,1,.747-.51,5.358,5.358,0,0,1,.914-.347q.461-.127,1.068-.242l1.336-.246q.817-.158.817-.8a1.256,1.256,0,0,0-.492-1.1,2.1,2.1,0,0,0-1.239-.347,2.075,2.075,0,0,0-1.274.374,1.636,1.636,0,0,0-.6,1.182l-1.819-.334Q587.382-9,590.748-9a6.23,6.23,0,0,1,1.05.083,3.751,3.751,0,0,1,.958.3,2.756,2.756,0,0,1,.8.558,2.435,2.435,0,0,1,.536.9,3.743,3.743,0,0,1,.2,1.279v3.428a1.4,1.4,0,0,0,.185.844.8.8,0,0,0,.65.229h.141V0h-.958q-1.5,0-1.793-1.169h-.1a2.874,2.874,0,0,1-1.252,1.011A4.143,4.143,0,0,1,589.544.167Zm.475-1.591a2.351,2.351,0,0,0,1.767-.729,2.645,2.645,0,0,0,.7-1.916l-2.259.5a2.708,2.708,0,0,0-1.09.409.883.883,0,0,0-.36.751.849.849,0,0,0,.343.738A1.5,1.5,0,0,0,590.019-1.424ZM597.234,0V-13.5h2.039V0Zm8.736.158a4.487,4.487,0,0,1-3.3-1.27,4.462,4.462,0,0,1-1.283-3.318,4.439,4.439,0,0,1,1.288-3.313,4.5,4.5,0,0,1,3.292-1.266,4.493,4.493,0,0,1,2.711.813,3.838,3.838,0,0,1,1.481,2.272l-1.881.246a2.356,2.356,0,0,0-.866-1.266,2.439,2.439,0,0,0-1.463-.439,2.32,2.32,0,0,0-1.828.813,3.131,3.131,0,0,0-.712,2.14,3.131,3.131,0,0,0,.712,2.14,2.32,2.32,0,0,0,1.828.813,2.456,2.456,0,0,0,1.463-.435,2.334,2.334,0,0,0,.866-1.261l1.881.237a3.843,3.843,0,0,1-1.49,2.276A4.485,4.485,0,0,1,605.971.158Zm8.306.009a3.669,3.669,0,0,1-1.349-.233,2.144,2.144,0,0,1-.984-.791,2.353,2.353,0,0,1-.391-1.384,2.564,2.564,0,0,1,.18-.989,2.165,2.165,0,0,1,.475-.725,2.789,2.789,0,0,1,.747-.51,5.358,5.358,0,0,1,.914-.347q.461-.127,1.068-.242l1.336-.246q.817-.158.817-.8a1.256,1.256,0,0,0-.492-1.1,2.1,2.1,0,0,0-1.239-.347,2.075,2.075,0,0,0-1.274.374,1.636,1.636,0,0,0-.6,1.182l-1.819-.334Q612.114-9,615.48-9a6.23,6.23,0,0,1,1.05.083,3.751,3.751,0,0,1,.958.3,2.756,2.756,0,0,1,.8.558,2.435,2.435,0,0,1,.536.9,3.743,3.743,0,0,1,.2,1.279v3.428a1.4,1.4,0,0,0,.185.844.8.8,0,0,0,.65.229h.141V0h-.958q-1.5,0-1.793-1.169h-.1a2.874,2.874,0,0,1-1.252,1.011A4.143,4.143,0,0,1,614.276.167Zm.475-1.591a2.351,2.351,0,0,0,1.767-.729,2.645,2.645,0,0,0,.7-1.916l-2.259.5a2.708,2.708,0,0,0-1.09.409.883.883,0,0,0-.36.751.849.849,0,0,0,.343.738A1.5,1.5,0,0,0,614.751-1.424Zm11.918-7.585a3.273,3.273,0,0,1,2.338.8,2.96,2.96,0,0,1,.844,2.263V0h-2.039V-5.511a1.814,1.814,0,0,0-.488-1.393,1.768,1.768,0,0,0-1.252-.453,2.066,2.066,0,0,0-1.494.558,2.311,2.311,0,0,0-.589,1.718V0h-2.021V-8.842h2.021V-7.8a2.987,2.987,0,0,1,1.138-.9A3.658,3.658,0,0,1,626.669-9.009Zm12.059.167-4.28,7.251h4.219V0H631.5l4.254-7.242h-3.964v-1.6ZM642.437.167a3.669,3.669,0,0,1-1.349-.233,2.144,2.144,0,0,1-.984-.791,2.353,2.353,0,0,1-.391-1.384,2.564,2.564,0,0,1,.18-.989,2.165,2.165,0,0,1,.475-.725,2.789,2.789,0,0,1,.747-.51,5.358,5.358,0,0,1,.914-.347q.461-.127,1.068-.242l1.336-.246q.817-.158.817-.8a1.256,1.256,0,0,0-.492-1.1,2.1,2.1,0,0,0-1.239-.347,2.075,2.075,0,0,0-1.274.374,1.636,1.636,0,0,0-.6,1.182l-1.819-.334Q640.274-9,643.641-9a6.23,6.23,0,0,1,1.05.083,3.751,3.751,0,0,1,.958.3,2.756,2.756,0,0,1,.8.558,2.435,2.435,0,0,1,.536.9,3.743,3.743,0,0,1,.2,1.279v3.428a1.4,1.4,0,0,0,.185.844.8.8,0,0,0,.65.229h.141V0h-.958q-1.5,0-1.793-1.169h-.1a2.874,2.874,0,0,1-1.252,1.011A4.143,4.143,0,0,1,642.437.167Zm.475-1.591a2.351,2.351,0,0,0,1.767-.729,2.645,2.645,0,0,0,.7-1.916l-2.259.5a2.708,2.708,0,0,0-1.09.409.883.883,0,0,0-.36.751.849.849,0,0,0,.343.738A1.5,1.5,0,0,0,642.911-1.424Zm9.167-5.933A2.67,2.67,0,0,1,653.2-8.481a3.5,3.5,0,0,1,1.727-.457v1.846a3.115,3.115,0,0,0-2.087.593,2.523,2.523,0,0,0-.681,1.991V0h-2.03V-8.842h1.951ZM656.561,0V-13.5H658.6V0Zm8.824.167a4.647,4.647,0,0,1-3.349-1.244,4.421,4.421,0,0,1-1.3-3.353,4.4,4.4,0,0,1,1.3-3.335,4.647,4.647,0,0,1,3.349-1.244,4.668,4.668,0,0,1,3.357,1.239,4.4,4.4,0,0,1,1.3,3.34,4.421,4.421,0,0,1-1.3,3.353A4.658,4.658,0,0,1,665.385.167Zm-.018-1.635a2.479,2.479,0,0,0,1.916-.817,3.055,3.055,0,0,0,.747-2.145,3.039,3.039,0,0,0-.747-2.14,2.485,2.485,0,0,0-1.916-.813,2.428,2.428,0,0,0-1.881.813,3.061,3.061,0,0,0-.738,2.14,3.088,3.088,0,0,0,.734,2.145A2.419,2.419,0,0,0,665.367-1.468ZM675.132.167a4.552,4.552,0,0,1-2.479-.628,2.623,2.623,0,0,1-1.213-1.824l1.714-.483a1.832,1.832,0,0,0,.694,1.112,2.138,2.138,0,0,0,1.283.374,2.049,2.049,0,0,0,1.072-.264.9.9,0,0,0,.431-.853.824.824,0,0,0-.114-.435,1.2,1.2,0,0,0-.272-.316,1.9,1.9,0,0,0-.453-.25,5.107,5.107,0,0,0-.536-.193l-.655-.193q-.413-.123-.686-.211a6.249,6.249,0,0,1-.844-.325,4,4,0,0,1-.694-.439,1.72,1.72,0,0,1-.532-.69,2.434,2.434,0,0,1-.18-.971,2.324,2.324,0,0,1,.448-1.45,2.549,2.549,0,0,1,1.178-.857A4.824,4.824,0,0,1,674.965-9a4.127,4.127,0,0,1,2.237.571,2.5,2.5,0,0,1,1.129,1.749l-1.6.378a1.594,1.594,0,0,0-.637-.984,1.96,1.96,0,0,0-1.121-.316,1.957,1.957,0,0,0-1.024.25.828.828,0,0,0-.417.76,1.032,1.032,0,0,0,.031.259.506.506,0,0,0,.119.215l.158.171a.825.825,0,0,0,.229.154q.158.079.255.123a2.767,2.767,0,0,0,.316.11l.325.1q.105.031.365.1l.365.092q.492.132.839.246a4.843,4.843,0,0,1,.765.338,2.665,2.665,0,0,1,.677.5,2.219,2.219,0,0,1,.435.708,2.571,2.571,0,0,1,.176.971A2.623,2.623,0,0,1,678.3-1.27a2.139,2.139,0,0,1-.769.835,3.768,3.768,0,0,1-1.09.453A5.449,5.449,0,0,1,675.132.167Zm7.022.009a1.2,1.2,0,0,1-.87-.365,1.176,1.176,0,0,1-.369-.866,1.186,1.186,0,0,1,.369-.875,1.2,1.2,0,0,1,.87-.365,1.193,1.193,0,0,1,.875.365,1.193,1.193,0,0,1,.365.875,1.178,1.178,0,0,1-.365.87A1.2,1.2,0,0,1,682.154.176Z" transform="translate(562 2977)" fill="#00223d"/>
      <path id="Trazado_35405" data-name="Trazado 35405" d="M51,0A51,51,0,1,1,0,51,51,51,0,0,1,51,0Z" transform="translate(422 2669)" fill="#472ea6"/>
      <path id="Trazado_35406" data-name="Trazado 35406" d="M8.886-10.661H3.92V-7.2H8.227v1.863H3.92V0H1.793V-12.533H8.886Zm3.12.132a1.207,1.207,0,0,1-.879-.365,1.186,1.186,0,0,1-.369-.875,1.193,1.193,0,0,1,.365-.875,1.2,1.2,0,0,1,.883-.365,1.2,1.2,0,0,1,.87.365,1.186,1.186,0,0,1,.369.875,1.186,1.186,0,0,1-.369.875A1.2,1.2,0,0,1,12.006-10.529ZM10.969,0V-8.842H13V0Zm9.6-9.009a3.273,3.273,0,0,1,2.338.8,2.96,2.96,0,0,1,.844,2.263V0H21.709V-5.511A1.814,1.814,0,0,0,21.221-6.9a1.768,1.768,0,0,0-1.252-.453,2.066,2.066,0,0,0-1.494.558,2.311,2.311,0,0,0-.589,1.718V0H15.864V-8.842h2.021V-7.8a2.987,2.987,0,0,1,1.138-.9A3.658,3.658,0,0,1,20.566-9.009Zm13.9,4.438-.026.51H27.712a2.667,2.667,0,0,0,.773,1.934,2.525,2.525,0,0,0,1.784.668,2.424,2.424,0,0,0,1.314-.36,2.272,2.272,0,0,0,.875-1.028l1.846.316A3.886,3.886,0,0,1,32.774-.545a4.392,4.392,0,0,1-2.487.712,4.533,4.533,0,0,1-3.313-1.222,4.494,4.494,0,0,1-1.248-3.366,4.512,4.512,0,0,1,1.248-3.366,4.433,4.433,0,0,1,3.252-1.23,4.21,4.21,0,0,1,3.067,1.129A4.453,4.453,0,0,1,34.462-4.57ZM30.234-7.515a2.58,2.58,0,0,0-1.6.479A2.332,2.332,0,0,0,27.8-5.572h4.632a2.131,2.131,0,0,0-.7-1.45A2.251,2.251,0,0,0,30.234-7.515ZM39.568.167A4.552,4.552,0,0,1,37.09-.461a2.623,2.623,0,0,1-1.213-1.824l1.714-.483a1.832,1.832,0,0,0,.694,1.112,2.138,2.138,0,0,0,1.283.374,2.049,2.049,0,0,0,1.072-.264.9.9,0,0,0,.431-.853.824.824,0,0,0-.114-.435,1.2,1.2,0,0,0-.272-.316,1.9,1.9,0,0,0-.453-.25,5.107,5.107,0,0,0-.536-.193l-.655-.193q-.413-.123-.686-.211a6.249,6.249,0,0,1-.844-.325,4,4,0,0,1-.694-.439,1.72,1.72,0,0,1-.532-.69,2.434,2.434,0,0,1-.18-.971,2.324,2.324,0,0,1,.448-1.45,2.549,2.549,0,0,1,1.178-.857A4.824,4.824,0,0,1,39.4-9a4.127,4.127,0,0,1,2.237.571A2.5,2.5,0,0,1,42.768-6.68l-1.6.378a1.594,1.594,0,0,0-.637-.984A1.96,1.96,0,0,0,39.41-7.6a1.957,1.957,0,0,0-1.024.25.828.828,0,0,0-.417.76A1.032,1.032,0,0,0,38-6.333a.506.506,0,0,0,.119.215l.158.171a.825.825,0,0,0,.229.154q.158.079.255.123a2.767,2.767,0,0,0,.316.11l.325.1q.105.031.365.1l.365.092q.492.132.839.246a4.843,4.843,0,0,1,.765.338,2.665,2.665,0,0,1,.677.5,2.219,2.219,0,0,1,.435.708,2.571,2.571,0,0,1,.176.971,2.623,2.623,0,0,1-.281,1.244,2.139,2.139,0,0,1-.769.835,3.768,3.768,0,0,1-1.09.453A5.449,5.449,0,0,1,39.568.167Z" transform="translate(451 2724)" fill="#fff"/>
      <path id="Trazado_35409" data-name="Trazado 35409" d="M51,0A51,51,0,1,1,0,51,51,51,0,0,1,51,0Z" transform="translate(422 2795)" fill="#fd8f25"/>
      <path id="Trazado_35411" data-name="Trazado 35411" d="M15.618,0H13.535l-.826-9.9L9.114,0H7.8L4.219-9.879,3.384,0H1.292l1-12.533H5.221L8.446-3.674,11.7-12.533h2.927ZM26.279-4.57l-.026.51H19.529A2.667,2.667,0,0,0,20.3-2.127a2.525,2.525,0,0,0,1.784.668,2.424,2.424,0,0,0,1.314-.36,2.272,2.272,0,0,0,.875-1.028l1.846.316A3.886,3.886,0,0,1,24.592-.545,4.392,4.392,0,0,1,22.1.167a4.533,4.533,0,0,1-3.313-1.222,4.494,4.494,0,0,1-1.248-3.366,4.512,4.512,0,0,1,1.248-3.366,4.433,4.433,0,0,1,3.252-1.23A4.21,4.21,0,0,1,25.11-7.888,4.453,4.453,0,0,1,26.279-4.57ZM22.052-7.515a2.58,2.58,0,0,0-1.6.479,2.332,2.332,0,0,0-.839,1.463h4.632a2.131,2.131,0,0,0-.7-1.45A2.251,2.251,0,0,0,22.052-7.515ZM34.822-13.5h2.021V0H34.91l-.053-1.406A2.845,2.845,0,0,1,33.675-.229,3.608,3.608,0,0,1,31.913.2a4.08,4.08,0,0,1-1.622-.325,4.1,4.1,0,0,1-1.332-.91,4.2,4.2,0,0,1-.905-1.459,5.341,5.341,0,0,1-.334-1.92,5.28,5.28,0,0,1,.334-1.907,4.2,4.2,0,0,1,.905-1.455,4.082,4.082,0,0,1,1.336-.91,4.089,4.089,0,0,1,1.617-.325A3.656,3.656,0,0,1,33.64-8.6a2.84,2.84,0,0,1,1.182,1.121ZM30.489-2.312a2.472,2.472,0,0,0,1.872.8,2.42,2.42,0,0,0,1.863-.817,2.968,2.968,0,0,0,.747-2.083,2.946,2.946,0,0,0-.751-2.074A2.424,2.424,0,0,0,32.361-7.3a2.465,2.465,0,0,0-1.868.8,2.927,2.927,0,0,0-.751,2.1A2.953,2.953,0,0,0,30.489-2.312Zm10.257-8.218a1.207,1.207,0,0,1-.879-.365,1.186,1.186,0,0,1-.369-.875,1.193,1.193,0,0,1,.365-.875,1.2,1.2,0,0,1,.883-.365,1.2,1.2,0,0,1,.87.365,1.186,1.186,0,0,1,.369.875,1.186,1.186,0,0,1-.369.875A1.2,1.2,0,0,1,40.746-10.529ZM39.709,0V-8.842h2.03V0Zm8.815.167a4.647,4.647,0,0,1-3.349-1.244,4.421,4.421,0,0,1-1.3-3.353,4.4,4.4,0,0,1,1.3-3.335,4.647,4.647,0,0,1,3.349-1.244A4.668,4.668,0,0,1,51.882-7.77a4.4,4.4,0,0,1,1.3,3.34,4.421,4.421,0,0,1-1.3,3.353A4.658,4.658,0,0,1,48.524.167Zm-.018-1.635a2.479,2.479,0,0,0,1.916-.817A3.055,3.055,0,0,0,51.17-4.43a3.039,3.039,0,0,0-.747-2.14,2.485,2.485,0,0,0-1.916-.813,2.428,2.428,0,0,0-1.881.813,3.061,3.061,0,0,0-.738,2.14,3.088,3.088,0,0,0,.734,2.145A2.419,2.419,0,0,0,48.507-1.468ZM58.271.167a4.552,4.552,0,0,1-2.479-.628A2.623,2.623,0,0,1,54.58-2.285l1.714-.483a1.832,1.832,0,0,0,.694,1.112,2.138,2.138,0,0,0,1.283.374,2.049,2.049,0,0,0,1.072-.264.9.9,0,0,0,.431-.853.824.824,0,0,0-.114-.435,1.2,1.2,0,0,0-.272-.316,1.9,1.9,0,0,0-.453-.25,5.107,5.107,0,0,0-.536-.193l-.655-.193q-.413-.123-.686-.211a6.249,6.249,0,0,1-.844-.325,4,4,0,0,1-.694-.439,1.72,1.72,0,0,1-.532-.69,2.434,2.434,0,0,1-.18-.971,2.324,2.324,0,0,1,.448-1.45,2.549,2.549,0,0,1,1.178-.857A4.824,4.824,0,0,1,58.1-9a4.127,4.127,0,0,1,2.237.571A2.5,2.5,0,0,1,61.471-6.68l-1.6.378a1.594,1.594,0,0,0-.637-.984A1.96,1.96,0,0,0,58.113-7.6a1.957,1.957,0,0,0-1.024.25.828.828,0,0,0-.417.76,1.032,1.032,0,0,0,.031.259.506.506,0,0,0,.119.215l.158.171a.825.825,0,0,0,.229.154q.158.079.255.123a2.767,2.767,0,0,0,.316.11l.325.1q.105.031.365.1l.365.092q.492.132.839.246a4.843,4.843,0,0,1,.765.338,2.665,2.665,0,0,1,.677.5,2.219,2.219,0,0,1,.435.708,2.571,2.571,0,0,1,.176.971,2.623,2.623,0,0,1-.281,1.244,2.139,2.139,0,0,1-.769.835,3.768,3.768,0,0,1-1.09.453A5.449,5.449,0,0,1,58.271.167Z" transform="translate(442 2852)" fill="#fff"/>
      <path id="Trazado_35413" data-name="Trazado 35413" d="M51,0A51,51,0,1,1,0,51,51,51,0,0,1,51,0Z" transform="translate(422 2920)" fill="#00ffe2"/>
      <path id="Trazado_35415" data-name="Trazado 35415" d="M8.5,0,5.247-5.59H3.894V0h-2.1V-12.533H6.144a5.038,5.038,0,0,1,1.753.281,3.09,3.09,0,0,1,1.226.787,3.367,3.367,0,0,1,.7,1.151,4.158,4.158,0,0,1,.233,1.419,3.2,3.2,0,0,1-.721,2.149A3.262,3.262,0,0,1,7.356-5.669L10.969,0ZM3.894-10.758v3.612H5.836a2.443,2.443,0,0,0,1.657-.479,1.665,1.665,0,0,0,.541-1.314,1.7,1.7,0,0,0-.545-1.327,2.4,2.4,0,0,0-1.652-.492ZM20.408-4.57l-.026.51H13.658a2.667,2.667,0,0,0,.773,1.934,2.525,2.525,0,0,0,1.784.668,2.424,2.424,0,0,0,1.314-.36A2.272,2.272,0,0,0,18.4-2.848l1.846.316A3.886,3.886,0,0,1,18.721-.545a4.392,4.392,0,0,1-2.487.712A4.533,4.533,0,0,1,12.92-1.055a4.494,4.494,0,0,1-1.248-3.366A4.512,4.512,0,0,1,12.92-7.787a4.433,4.433,0,0,1,3.252-1.23,4.21,4.21,0,0,1,3.067,1.129A4.453,4.453,0,0,1,20.408-4.57ZM16.181-7.515a2.58,2.58,0,0,0-1.6.479,2.332,2.332,0,0,0-.839,1.463h4.632a2.131,2.131,0,0,0-.7-1.45A2.251,2.251,0,0,0,16.181-7.515ZM26.394.158a4.487,4.487,0,0,1-3.3-1.27A4.462,4.462,0,0,1,21.814-4.43,4.439,4.439,0,0,1,23.1-7.743a4.5,4.5,0,0,1,3.292-1.266A4.493,4.493,0,0,1,29.1-8.2a3.838,3.838,0,0,1,1.481,2.272l-1.881.246a2.356,2.356,0,0,0-.866-1.266,2.439,2.439,0,0,0-1.463-.439,2.32,2.32,0,0,0-1.828.813,3.131,3.131,0,0,0-.712,2.14,3.131,3.131,0,0,0,.712,2.14,2.32,2.32,0,0,0,1.828.813,2.456,2.456,0,0,0,1.463-.435,2.334,2.334,0,0,0,.866-1.261l1.881.237A3.843,3.843,0,0,1,29.1-.659,4.485,4.485,0,0,1,26.394.158Zm11.9-9h2.021V0H38.391l-.053-1.107A3.163,3.163,0,0,1,35.613.167a3.273,3.273,0,0,1-2.338-.8,2.96,2.96,0,0,1-.844-2.263v-5.95h2.039v5.511a1.814,1.814,0,0,0,.488,1.393,1.781,1.781,0,0,0,1.261.453,2.051,2.051,0,0,0,1.49-.558,2.322,2.322,0,0,0,.584-1.718Zm6.838,1.485a2.67,2.67,0,0,1,1.121-1.125,3.5,3.5,0,0,1,1.727-.457v1.846a3.115,3.115,0,0,0-2.087.593,2.523,2.523,0,0,0-.681,1.991V0h-2.03V-8.842h1.951ZM52.567.167a4.552,4.552,0,0,1-2.479-.628,2.623,2.623,0,0,1-1.213-1.824l1.714-.483a1.832,1.832,0,0,0,.694,1.112,2.138,2.138,0,0,0,1.283.374,2.049,2.049,0,0,0,1.072-.264A.9.9,0,0,0,54.07-2.4a.824.824,0,0,0-.114-.435,1.2,1.2,0,0,0-.272-.316,1.9,1.9,0,0,0-.453-.25,5.107,5.107,0,0,0-.536-.193l-.655-.193q-.413-.123-.686-.211a6.249,6.249,0,0,1-.844-.325,4,4,0,0,1-.694-.439,1.72,1.72,0,0,1-.532-.69,2.434,2.434,0,0,1-.18-.971,2.324,2.324,0,0,1,.448-1.45,2.549,2.549,0,0,1,1.178-.857A4.824,4.824,0,0,1,52.4-9a4.127,4.127,0,0,1,2.237.571A2.5,2.5,0,0,1,55.767-6.68l-1.6.378a1.594,1.594,0,0,0-.637-.984A1.96,1.96,0,0,0,52.409-7.6a1.957,1.957,0,0,0-1.024.25.828.828,0,0,0-.417.76A1.032,1.032,0,0,0,51-6.333a.506.506,0,0,0,.119.215l.158.171a.825.825,0,0,0,.229.154q.158.079.255.123a2.767,2.767,0,0,0,.316.11l.325.1q.105.031.365.1l.365.092q.492.132.839.246a4.843,4.843,0,0,1,.765.338,2.665,2.665,0,0,1,.677.5,2.219,2.219,0,0,1,.435.708,2.571,2.571,0,0,1,.176.971A2.623,2.623,0,0,1,55.74-1.27a2.139,2.139,0,0,1-.769.835,3.768,3.768,0,0,1-1.09.453A5.449,5.449,0,0,1,52.567.167Zm9.483,0A4.647,4.647,0,0,1,58.7-1.077,4.421,4.421,0,0,1,57.4-4.43a4.4,4.4,0,0,1,1.3-3.335,4.647,4.647,0,0,1,3.349-1.244A4.668,4.668,0,0,1,65.408-7.77a4.4,4.4,0,0,1,1.3,3.34,4.421,4.421,0,0,1-1.3,3.353A4.658,4.658,0,0,1,62.051.167Zm-.018-1.635a2.479,2.479,0,0,0,1.916-.817A3.055,3.055,0,0,0,64.7-4.43a3.039,3.039,0,0,0-.747-2.14,2.485,2.485,0,0,0-1.916-.813,2.428,2.428,0,0,0-1.881.813,3.061,3.061,0,0,0-.738,2.14,3.088,3.088,0,0,0,.734,2.145A2.419,2.419,0,0,0,62.033-1.468ZM71.8.167a4.552,4.552,0,0,1-2.479-.628,2.623,2.623,0,0,1-1.213-1.824l1.714-.483a1.832,1.832,0,0,0,.694,1.112,2.138,2.138,0,0,0,1.283.374,2.049,2.049,0,0,0,1.072-.264A.9.9,0,0,0,73.3-2.4a.824.824,0,0,0-.114-.435,1.2,1.2,0,0,0-.272-.316,1.9,1.9,0,0,0-.453-.25,5.107,5.107,0,0,0-.536-.193l-.655-.193q-.413-.123-.686-.211a6.249,6.249,0,0,1-.844-.325,4,4,0,0,1-.694-.439,1.72,1.72,0,0,1-.532-.69,2.434,2.434,0,0,1-.18-.971,2.324,2.324,0,0,1,.448-1.45,2.549,2.549,0,0,1,1.178-.857A4.824,4.824,0,0,1,71.631-9a4.127,4.127,0,0,1,2.237.571A2.5,2.5,0,0,1,75-6.68L73.4-6.3a1.594,1.594,0,0,0-.637-.984A1.96,1.96,0,0,0,71.64-7.6a1.957,1.957,0,0,0-1.024.25.828.828,0,0,0-.417.76,1.032,1.032,0,0,0,.031.259.506.506,0,0,0,.119.215l.158.171a.825.825,0,0,0,.229.154q.158.079.255.123a2.767,2.767,0,0,0,.316.11l.325.1q.105.031.365.1l.365.092q.492.132.839.246a4.843,4.843,0,0,1,.765.338,2.665,2.665,0,0,1,.677.5,2.219,2.219,0,0,1,.435.708,2.571,2.571,0,0,1,.176.971,2.623,2.623,0,0,1-.281,1.244,2.139,2.139,0,0,1-.769.835,3.768,3.768,0,0,1-1.09.453A5.449,5.449,0,0,1,71.8.167Z" transform="translate(435 2977)" fill="#00223d"/>
    </g>
  </g>
</svg>
