<svg xmlns="http://www.w3.org/2000/svg" width="295" height="448.351" viewBox="0 0 295 448.351">
  <g id="Grupo_56919" data-name="Grupo 56919" transform="translate(-705 -7719.777)">
    <g id="Grupo_56918" data-name="Grupo 56918">
      <rect id="Rect치ngulo_6904" data-name="Rect치ngulo 6904" width="295" height="448" rx="13" transform="translate(705 7719.777)" fill="#faede0"/>
      <g id="CF1_tarejta_11" data-name="CF1_tarejta 11" transform="translate(705 7576.648)">
        <g id="Layer_1" data-name="Layer 1">
          <rect id="Rect치ngulo_6892" data-name="Rect치ngulo 6892" width="295" height="19.08" transform="translate(0 572.4)" fill="#472ea6"/>
          <g id="Grupo_56856" data-name="Grupo 56856">
            <g id="Grupo_56841" data-name="Grupo 56841">
              <path id="Trazado_117181" data-name="Trazado 117181" d="M46.79,568.35l-1.52,1.2,65.1-9.2L112,559.3Z" fill="#63331e"/>
              <path id="Trazado_117182" data-name="Trazado 117182" d="M141.41,514.94,157,527.24,94.6,536S67.45,518.76,69,518.22c7.42-2.59,14.63-.9,17.17-1.83a21.651,21.651,0,0,1,10-1.48c3.71.5,10.72-.42,14.39-1.38,2.68-.71,1.08,1.81,5.62,0,1.27-.51,5,.18,5.24.12,4-1.12,11.36-.71,11.93-.56h.07a2.44,2.44,0,0,1,1,.53c.47.44,2.18-.48,2.85-.31.9.23,1.85.29,2.76.45C140.46,513.87,141.43,514,141.41,514.94Z" fill="#63331e"/>
              <g id="Grupo_56838" data-name="Grupo 56838" opacity="0.2">
                <path id="Trazado_117183" data-name="Trazado 117183" d="M81.34,523.52c2.93-1.18,6.26-1.2,9.38-1.26a37.1,37.1,0,0,1,7.67.49c2,.38,10.52,1.51,11.19-1.2-2-1.21-5.06-.48-7.14.11-1.09.31-4.22,1.48-5.1.33.92-2.68,6.35-2.65,8.58-2.72,3.88-.13,7.38.29,11.2-.62,1.74-.42,4.1-1.49,5.9-1.24,2.49.34.29,1.8-1,2.06-1.06.23-4.33,1-3.15,2.76.62.92,2.73.55,3.61.47a48.326,48.326,0,0,0,6.43-1c2.74-.61,5.23-1.17,8-1.53,2-.27,4-1,6-1.28.54-.08,1.73-.14,3.09-.29l-2.89-2.28a35.924,35.924,0,0,0-4.15.05c-2,.22-3.89.74-5.88,1-.83.12-5.52,1.1-6,0s1.7-1.37,2.31-1.63c2.7-1.15-1.77-1.35-2.77-1.28-2.63.18-5.25.46-7.87.72-.82.08-3.87-.27-4.2.69a5,5,0,0,1,2.25,1c-.48,2-3.36,0-4.27-.25a8.091,8.091,0,0,0-3.09.17,51.329,51.329,0,0,1-5.41.33c-3.33,0-6.38-.38-9.69-.63-1.42-.12-4.92-.57-5.57,1.21,1.45.61,3.28-.55,4.85-.13.94.25,1.64.49,1.27,1.39-.48,1.18-3.1,1.06-4.12,1-5-.29-10-.93-15-1.19a22.3,22.3,0,0,0-6.1.47c1.44,1.24,4.68,3.52,8.36,6a21.292,21.292,0,0,1,3.31-1.72Z" fill="#6b391e"/>
                <path id="Trazado_117184" data-name="Trazado 117184" d="M151.92,523.23c-1.92.41-3.81.94-5.72,1.4a54,54,0,0,1-8.23,1.78c-.73.06-7.6,1-7.69-.09,1.46-1.59,5-1.13,6.86-1.16,1.64,0,5.35,0,6-1.95-.95-1.93-7.15-.23-8.68,0-3.52.62-7.08,1.31-10.64,1.6a27.867,27.867,0,0,1-5.63-.05c-1.11-.12-2.66-.61-3.65,0,.71.27,2.25.58,2.14,1.6-.13,1.19-1.94.84-2.83.82-6.08-.1-12.33-.22-18.11,1.8-1,.35-7.22,2.73-7,.39.08-1,3-1.83,3.69-2.08,1.51-.52,5.29-.7,6.38-1.92-1-1.71-5.05-.74-6.49-.58a56,56,0,0,0-7.65.91c-.58.15-2.23.81-3.88,1.25,4.72,3.13,9.61,6.27,12.12,7.87,1.78-.82,3.51-1.7,5.15-2.59a22.81,22.81,0,0,1,8.3-2.65,49.115,49.115,0,0,1,9.92.17c1,.11,5.65,1.19,5.77-.54-1.63-.86-3.6.37-5.3-.12,1.16-1.35,5.66-1.5,7.48-1.45,2.2.06,4.38.44,6.58.46s4.41-.23,6.63-.22,4.15-.42,6.23-.52c1.38-.07,2.71.16,4.1,0a55.926,55.926,0,0,0,6.94-1.21l.78-.18Z" fill="#6b391e"/>
              </g>
              <path id="Trazado_117185" data-name="Trazado 117185" d="M94.79,531.17c-.64-.64-.16-1.24-.75-1.94a2.6,2.6,0,0,1-.68-1.45,3.47,3.47,0,0,0-2-2.19c-1.92-1.06-4.42-1-5.9-2.75a4.339,4.339,0,0,0-1.76-1.49,16.26,16.26,0,0,0-3.94-.6c-3.45-.44-6.49-3-10-2.62a30.713,30.713,0,0,0-4.47,1.19c-.9.27-1.61-.05-2.56.09a12.894,12.894,0,0,0-1.9.7,2.22,2.22,0,0,1-1.45-.07,2.88,2.88,0,0,0-1-.18c-.95.09-1.13.94-1.77,1.42s-1.49.41-2.11.88a8.48,8.48,0,0,1-1,.69,9.584,9.584,0,0,1-1.78.76A39.125,39.125,0,0,0,47,526.35a2.68,2.68,0,0,1-1.45.73,3.52,3.52,0,0,0-2.16,2c-1,1.91-.82,4.34-2.53,5.85a4.37,4.37,0,0,0-1.45,1.79A15.519,15.519,0,0,0,39,540.6c-.28,3.38-2.81,6.46-2.19,9.84a26.7,26.7,0,0,0,1.44,4.29c.32.86,0,1.56.21,2.48a12.1,12.1,0,0,0,.82,1.82,2,2,0,0,1,0,1.4,2.82,2.82,0,0,0-.13,1c.13.91,1,1,1.54,1.64s.5,1.43,1,2a8.546,8.546,0,0,1,.76.93c.2.32.5.44.71.68.43.48,0,.44.16,1,.09.29.56.59.79.76s.71,1.09,1.19,1.12c0-.06,1.3-.43,1.32-.49s22.55-19.8,22.55-19.8l.67.87,25.24-16.37A2.636,2.636,0,0,0,94.79,531.17Z" fill="#7a4527"/>
              <path id="Trazado_117186" data-name="Trazado 117186" d="M51.66,526.54h0a30.88,30.88,0,0,0-5,42.53l24.29-18,24.17-17.29C85,520.73,65.6,517.5,51.66,526.54Z" fill="#9e532e"/>
              <path id="Trazado_117187" data-name="Trazado 117187" d="M93.43,534.82l61.94-6.52-42.7,30.55-64.55,9.01,19.6-19.46Z" fill="#cc8747"/>
              <path id="Trazado_117188" data-name="Trazado 117188" d="M52.83,528.06h-.06a28.89,28.89,0,0,0-4.66,39.79l21.71-17.73,23.61-15.31A30.09,30.09,0,0,0,73.08,523.5c-.2,0-2.83,8.47-2.83,8.47s1.44-8.61,1-8.64A30.429,30.429,0,0,0,52.83,528.06Z" fill="#e0a065"/>
              <path id="Trazado_117189" data-name="Trazado 117189" d="M95.06,533.76l-1.63,1.06,61.94-6.52,1.63-1.06Z" fill="#9e532e"/>
              <path id="Trazado_117190" data-name="Trazado 117190" d="M48.12,567.86l-1.52,1.2,64.44-9.15,1.63-1.06Z" fill="#9e532e"/>
              <g id="Grupo_56839" data-name="Grupo 56839">
                <path id="Trazado_117191" data-name="Trazado 117191" d="M50.41,566l.69-.56c-5.4-12.58-4.52-14.25-1.73-21.84,3.76-10.32,14-15.9,22.29-14.35,2.76.47,11.91,2.91,18.55,7.67l1.46-1c-2.13-1.88-5.91-4.47-13.49-7.24C57.39,521.12,36.75,539.89,50.41,566Z" fill="#e0a065" opacity="0.2"/>
                <path id="Trazado_117192" data-name="Trazado 117192" d="M63.84,554c.13.21.28.42.43.63l2.28-1.86a7.37,7.37,0,0,1-.63-2c-.48-3.71,2.48-6.71,6.09-4.48a19.5,19.5,0,0,1,1.74,1.24l2.1-1.36C69.07,541.83,59.38,547.51,63.84,554Z" fill="#e0a065" opacity="0.2"/>
                <path id="Trazado_117193" data-name="Trazado 117193" d="M68.3,551c.06.09-.06.28,0,.38l1.51-1.24,2.71-1.76C69.72,546.76,67.54,548.85,68.3,551Z" fill="#e0a065" opacity="0.4"/>
                <path id="Trazado_117194" data-name="Trazado 117194" d="M57.44,556.25c.22,1.21.5,2.34.78,3.35l2.25-1.83c-.14-.59-.28-1.23-.44-2-3-9.62,6.77-22.14,20.85-12.84l1.13-.72C71.69,533.12,54.31,539.72,57.44,556.25Z" fill="#e0a065" opacity="0.2"/>
                <path id="Trazado_117195" data-name="Trazado 117195" d="M52.63,546.87c2-15.63,24.4-16.76,32.79-6.86l1-.65c-2.24-3.16-6.16-6.52-17.58-7.53C59,531.07,51.15,539.17,50,546.41c-1.17,4.88,2.11,10.58,5,15.78l2.3-1.88C54.55,555.51,51.74,550.76,52.63,546.87Z" fill="#e0a065" opacity="0.2"/>
              </g>
              <g id="Grupo_56840" data-name="Grupo 56840" opacity="0.5">
                <path id="Trazado_117196" data-name="Trazado 117196" d="M91.67,535.95l60.76-5.55-1.06.76L90.21,536.9Z" fill="#cc8747"/>
                <path id="Trazado_117197" data-name="Trazado 117197" d="M86.42,539.36l61.71-5.88-2.62,1.87-60.09,4.66Z" fill="#cc8747"/>
                <path id="Trazado_117198" data-name="Trazado 117198" d="M82.01,542.23l60.69-4.87-2.69,1.93-59.12,3.66Z" fill="#cc8747"/>
                <path id="Trazado_117199" data-name="Trazado 117199" d="M75.85,546.22l59.46-3.57-2.06,1.47-59.5,3.46Z" fill="#cc8747"/>
                <path id="Trazado_117200" data-name="Trazado 117200" d="M66.55,552.8l61.92-5.25-2.02,1.44-62.18,5.67Z" fill="#cc8747"/>
                <path id="Trazado_117201" data-name="Trazado 117201" d="M60.47,557.77l62.01-5.93-1.76,1.25-62.5,6.52Z" fill="#cc8747"/>
                <path id="Trazado_117202" data-name="Trazado 117202" d="M57.36,560.31l62.35-6.5-1.47,1.06-63.18,7.32Z" fill="#cc8747"/>
                <path id="Trazado_117203" data-name="Trazado 117203" d="M51.1,565.42l64.03-8.33-1.25.9-63.47,8Z" fill="#cc8747"/>
                <path id="Trazado_117204" data-name="Trazado 117204" d="M72.53,548.38,126.06,546l-57.75,5.37Z" fill="#cc8747"/>
              </g>
            </g>
            <g id="Grupo_56845" data-name="Grupo 56845">
              <path id="Trazado_117205" data-name="Trazado 117205" d="M206.51,534.79l-14.27-12.88-65.58,33.8s-16.08,19.46-13.79,19.2c11-1.26,19.06-7.79,22.88-8.18s9.21-1.34,13.57-4.24,13.82-6,19.09-7c3.84-.75.19-2.94,7.08-3.44,1.94-.14,6.24-3.3,6.55-3.36,5.81-1,14.81-6,15.44-6.59h.09a3.46,3.46,0,0,0,1-1.31c.31-.84,3.06-.71,3.8-1.34,1-.84,2.16-1.5,3.2-2.26C206,536.71,207.16,536,206.51,534.79Z" fill="#63331e"/>
              <path id="Trazado_117206" data-name="Trazado 117206" d="M197.71,537.94a34.739,34.739,0,0,0,8.94-2.8,1.7,1.7,0,0,0-.14-.35l-12.42-11.21c-2.05.11-4.1.29-6.13.54l-61.3,31.59s-6.73,8.14-10.86,13.82c8.36-4,18.42-4.54,27.27-7.19,4.18-1.25,7.5-3.66,11.48-5.24,1.52-.6,2.86-1.31,4.31-2,1.12-.56,4-.91,3.53-2.28s-3.09.81-4.1,1.25c-2.07.91-4.18,1.66-6.32,2.4-3.79,1.32-7.58,2.63-11.39,3.88-2.05.67-6.49,3.14-7.17.85s6-2.67,8.09-3.36c5.51-1.78,11.16-3,16.69-4.69s11-4.07,16.7-5.56a57.7,57.7,0,0,0,6.16-1.91c1.36-.53,3.49-2.35,4.31-1.11.63.94-2.65,1.27-2.21,2.09.77,1.44,3.15-.76,4.43-1.6,2.14-1.4,5.78-1.92,6-4.46.12-1.71-2.91.47-3.82,1-1.26.79-4.16,2.4-4.64,1C183.75,538.66,193.82,538.58,197.71,537.94Z" fill="#6b391e" opacity="0.2"/>
              <path id="Trazado_117207" data-name="Trazado 117207" d="M131.51,560.09l-31.38-28.32L67.69,562.26h-.26a1.61,1.61,0,0,0,.43,1.25c.22.33.57,1,1,1.2.8.34.81-.29,1.44.37.3.32.43.75.86,1.08a9.8,9.8,0,0,1,1.23,1.18c.76.78,2,.89,2.75,1.69s.83,2,2.13,2.36a4.7,4.7,0,0,0,1.4,0,3.1,3.1,0,0,1,2,.21A17.889,17.889,0,0,0,83.2,573c1.29.4,2.35.11,3.55.68a41.467,41.467,0,0,0,6,2.64c4.78,1.37,9.63-1.6,14.54-1.46,1.79.05,3.86.43,5.63,0a6.29,6.29,0,0,0,2.8-1.69c2.45-2.1,5.92-1.49,8.84-2.55a5,5,0,0,0,3.26-2.62,3.72,3.72,0,0,1,1.28-1.87c1-.84.45-1.79,1.49-2.54C131,563.29,132.16,561.28,131.51,560.09Z" fill="#784021"/>
              <path id="Trazado_117208" data-name="Trazado 117208" d="M100.13,531.77l-30.75,28.9c17.33,15.64,45.15,15.38,62.13-.58Z" fill="#9c4d27"/>
              <g id="Grupo_56843" data-name="Grupo 56843">
                <path id="Trazado_117209" data-name="Trazado 117209" d="M100.13,531.77l-28.77,27a41.631,41.631,0,0,0,16.35,9.06c.26.08,4.73-10.77,4.73-10.77s-3.7,11.06-3.57,11.09c1.2.31,2.41.58,3.63.79.1,0,.93-7.09.93-7.09s-.21,7.21,0,7.24a44.25,44.25,0,0,0,26.84-4.34,32.688,32.688,0,0,0-2.15-3.77s3.32,3.14,3.65,3a40.389,40.389,0,0,0,7.72-5.7Z" fill="#de9a5b"/>
                <path id="Trazado_117210" data-name="Trazado 117210" d="M100.14,531.77,88.87,542.35c6.35,5.73,16.95,1.48,22.76-.21Z" fill="#e0a065" opacity="0.2"/>
                <g id="Grupo_56842" data-name="Grupo 56842" opacity="0.3">
                  <path id="Trazado_117211" data-name="Trazado 117211" d="M89.86,557.29a53.167,53.167,0,0,0,11.23,2.56,31.809,31.809,0,0,0,11.28-1,36.538,36.538,0,0,0,9.95-4.5c.55-.35,1.07-.72,1.6-1.08l-1.82-1.64a37.468,37.468,0,0,1-10.33,5.28,30,30,0,0,1-10.56,1.3,51.448,51.448,0,0,1-11-2.13c-3.7-1-7.41-2.16-11.08-3.53l-.79-.31-.83.79,1.23.49C82.47,554.91,86.18,556.14,89.86,557.29Z" fill="#e0a065"/>
                  <path id="Trazado_117212" data-name="Trazado 117212" d="M95.19,536.62a18.562,18.562,0,0,0,3.31.79,12.119,12.119,0,0,0,3.51-.06,21,21,0,0,0,3.39-.83L103.71,535a16.516,16.516,0,0,1-2,.52,10,10,0,0,1-3,.15,14.184,14.184,0,0,1-2.29-.43L95,536.56Z" fill="#e0a065"/>
                  <path id="Trazado_117213" data-name="Trazado 117213" d="M126.66,555.71a40.671,40.671,0,0,1-10.19,5.47,46.08,46.08,0,0,1-27.17,1.19c-3.58-1.11-6.39-3.22-9.11-4.65a35.413,35.413,0,0,0-5.25-2.28l-.62.58a35.362,35.362,0,0,1,5.33,2.6c2.56,1.49,5.27,3.82,9.17,5.15a48.081,48.081,0,0,0,13.06,2,43.9,43.9,0,0,0,15.37-2.49,43,43,0,0,0,11.23-5.9Z" fill="#e0a065"/>
                  <path id="Trazado_117214" data-name="Trazado 117214" d="M93.68,541.69a27.33,27.33,0,0,0,13.91-.56c.71-.21,1.41-.47,2.1-.74l-2.21-2-.67.21a25.631,25.631,0,0,1-12.49.3q-.7-.15-1.41-.36L90.5,540.8a31.864,31.864,0,0,0,3.18.89Z" fill="#e0a065"/>
                  <path id="Trazado_117215" data-name="Trazado 117215" d="M106.2,552.36a41.755,41.755,0,0,1-6.32.31c-1,0-2.08-.09-3.16-.19a14,14,0,0,1-2.84-.87c-3.44-1.36-6.83-2.9-10.21-4.37l-.88.83c3.47,1.61,6.92,3.31,10.54,4.85A14.328,14.328,0,0,0,96.57,554c1.05.12,2.15.23,3.24.29a42.813,42.813,0,0,0,6.6-.13,35.55,35.55,0,0,0,12.82-3.62,10.467,10.467,0,0,0,1-.57l-1.73-1.56c-.13.07-.24.16-.37.23A34.78,34.78,0,0,1,106.2,552.36Z" fill="#e0a065"/>
                  <path id="Trazado_117216" data-name="Trazado 117216" d="M105.45,545.55a32.381,32.381,0,0,1-12.7-.61,38.548,38.548,0,0,1-4.9-1.63l-2.42,2.27a36.37,36.37,0,0,0,20.5,2.73,32.17,32.17,0,0,0,9.16-3l-2.16-2a28.687,28.687,0,0,1-7.48,2.24Z" fill="#e0a065"/>
                </g>
              </g>
              <path id="Trazado_117217" data-name="Trazado 117217" d="M204.79,533.23l-73.28,26.86-2.02-1.83,73.27-26.86Z" fill="#9e532e"/>
              <g id="Grupo_56844" data-name="Grupo 56844">
                <path id="Trazado_117218" data-name="Trazado 117218" d="M129.49,558.26l73.27-26.86-29.35-26.49-73.27,26.86Z" fill="#f0b46c"/>
                <path id="Trazado_117219" data-name="Trazado 117219" d="M103.71,535l72.54-27.52.91.82L105.4,536.52Z" fill="#f0b46c" opacity="0.3"/>
                <path id="Trazado_117220" data-name="Trazado 117220" d="M107.48,538.4l71.76-28.22,1.61,1.44-71.16,28.77Z" fill="#f0b46c" opacity="0.3"/>
                <path id="Trazado_117221" data-name="Trazado 117221" d="M129.49,558.26l73.27-26.86-29.35-26.49-58.32,40.36Z" fill="#cc8747" opacity="0.5"/>
                <path id="Trazado_117222" data-name="Trazado 117222" d="M112.93,543.31l71.76-28.22,1.6,1.45-71.15,28.77Z" fill="#f0b46c" opacity="0.3"/>
                <path id="Trazado_117223" data-name="Trazado 117223" d="M118.54,548.38l71.77-28.22,1.6,1.45-71.64,28.33Z" fill="#f0b46c" opacity="0.3"/>
                <path id="Trazado_117224" data-name="Trazado 117224" d="M122.1,551.6l71.77-28.22,1.6,1.45-71.55,28.41Z" fill="#f0b46c" opacity="0.3"/>
                <path id="Trazado_117225" data-name="Trazado 117225" d="M126.67,555.71l71.76-28.22,1.6,1.45-71.55,28.41Z" fill="#f0b46c" opacity="0.3"/>
                <path id="Trazado_117226" data-name="Trazado 117226" d="M100.14,531.77l73.27-26.86,9.5,8.58-71.28,28.65Z" fill="#f0b46c" opacity="0.3"/>
              </g>
            </g>
            <g id="Grupo_56849" data-name="Grupo 56849">
              <path id="Trazado_117227" data-name="Trazado 117227" d="M212.1,484.05l23.84,8.85-71.82,34.58s-39.8-10.32-38.17-11.56c7.91-6,17.3-6.73,20-8.83s6.78-4.81,11.47-5.63,12.77-4.64,16.82-7.22c3-1.88,2,1.77,6.78-2.15,1.33-1.1,6.15-1.72,6.38-1.87,4.41-2.91,13.43-5.24,14.19-5.28h.09a3.231,3.231,0,0,1,1.46.26c.75.34,2.43-1.43,3.31-1.48,1.18-.07,2.36-.36,3.52-.52C210.51,483.13,211.73,482.88,212.1,484.05Z" fill="#804227"/>
              <g id="Grupo_56846" data-name="Grupo 56846" opacity="0.2">
                <path id="Trazado_117228" data-name="Trazado 117228" d="M143,517.56c3.06-2.56,7.08-3.87,10.83-5.14a46.129,46.129,0,0,1,9.46-2.36c2.55-.31,13.31-2.24,13-5.76-2.9-.7-6.3,1.36-8.58,2.88-1.18.79-4.5,3.41-6,2.36,0-3.58,6.59-5.64,9.25-6.59,4.64-1.65,9-2.49,13.27-5.06,2-1.18,4.36-3.38,6.63-3.78,3.15-.54,1.09,2.07-.31,2.87-1.19.67-4.82,2.87-2.67,4.54,1.11.87,3.51-.39,4.54-.82a58.879,58.879,0,0,0,7.38-3.7c3.06-1.78,5.84-3.42,9.06-4.93,2.35-1.11,4.38-2.71,6.69-3.84.62-.31,2-.85,3.61-1.54L214.75,485c-1.64.58-3.41.94-5,1.65-2.32,1-4.4,2.39-6.68,3.5-1,.46-6.23,3.45-7.26,2.29s1.49-2.3,2.13-2.86c2.78-2.43-2.69-.94-3.87-.48-3.1,1.23-6.16,2.58-9.22,3.9-.95.41-4.78,1.17-4.79,2.46a6.092,6.092,0,0,1,3.12.32c.23,2.59-4,1.34-5.26,1.35s-2.56.89-3.65,1.4a62.82,62.82,0,0,1-6.41,2.47c-4,1.35-7.86,2-12,3-1.77.42-6.18,1.21-6.23,3.62,2,.17,3.73-1.93,5.79-2,1.25-.06,2.19,0,2.11,1.19-.1,1.62-3.31,2.47-4.58,2.79-6.16,1.57-12.43,2.72-18.58,4.33a27.779,27.779,0,0,0-7.18,2.92c2.24.94,7.08,2.44,12.54,4a26.7,26.7,0,0,1,3.27-3.29Z" fill="#99522b"/>
                <path id="Trazado_117229" data-name="Trazado 117229" d="M228.17,490c-2.15,1.23-4.22,2.6-6.34,3.89-3.13,1.9-5.75,3.89-9.21,5.32-.86.35-8.8,4.09-9.33,2.85,1.12-2.48,5.53-3.28,7.81-4,2-.65,6.45-2.1,6.48-4.67-1.94-2-8.73,2.47-10.47,3.38a135.149,135.149,0,0,1-12.2,6,36.361,36.361,0,0,1-6.82,2.11c-1.39.27-3.46.28-4.41,1.43,1,0,3-.17,3.25,1.11.33,1.48-2,1.75-3.09,2.08-7.38,2.22-15,4.48-21.14,9.15-1,.79-7.61,6.07-8.34,3.18-.32-1.26,2.82-3.35,3.61-3.94,1.61-1.2,6.1-2.88,6.92-4.77-1.87-1.69-6.4,1-8.07,1.8-3,1.33-6.1,2.31-8.88,4-.64.4-2.36,1.84-4.17,3,7,2,14.15,3.87,17.84,4.84,1.81-1.68,3.54-3.41,5.17-5.12a28.26,28.26,0,0,1,8.94-6.39,61.507,61.507,0,0,1,12.05-3.62c1.23-.24,7.31-.74,6.75-2.88-2.32-.41-4.19,1.84-6.45,1.9.86-2.08,6.23-4,8.45-4.63,2.68-.77,5.47-1.16,8.13-2s5.24-2,7.92-2.82,4.84-2.11,7.31-3c1.64-.62,3.34-.85,5-1.56a70.475,70.475,0,0,0,7.89-4.14l.87-.51Z" fill="#99522b"/>
              </g>
              <path id="Trazado_117230" data-name="Trazado 117230" d="M163.77,524.64,140,554.14l-33.28-22.68h-.23a1.45,1.45,0,0,1,.2-1.17c.14-.33.36-1,.69-1.2.66-.42.76.15,1.23-.53a5.422,5.422,0,0,1,.61-1.08,8.484,8.484,0,0,0,.92-1.22c.56-.8,1.63-1.07,2.2-1.88s.44-1.92,1.55-2.39a3.8,3.8,0,0,1,1.25-.16,2.75,2.75,0,0,0,1.77-.47,17.231,17.231,0,0,1,2-1.58c1.09-.53,2.07-.42,3.06-1.09a36.926,36.926,0,0,1,4.91-3.16c4.06-1.88,8.8.1,13.15-.7,1.59-.29,3.37-.91,5-.78a5.471,5.471,0,0,1,2.73,1.12c2.49,1.53,5.49.5,8.24,1a4.54,4.54,0,0,1,3.28,1.9,3.4,3.4,0,0,0,1.41,1.48c1,.61.66,1.53,1.7,2.06C162.88,521.86,164.18,523.49,163.77,524.64Z" fill="#754225"/>
              <path id="Trazado_117231" data-name="Trazado 117231" d="M140,554.14l-31.54-21.5c13.15-16.29,37.93-19.87,55.35-8Z" fill="#a85831"/>
              <g id="Grupo_56848" data-name="Grupo 56848">
                <path id="Trazado_117232" data-name="Trazado 117232" d="M140,554.14,110.45,534c12.3-15.24,35.49-18.59,51.79-7.49Z" fill="#e0a065"/>
                <path id="Trazado_117233" data-name="Trazado 117233" d="M140,554.14l-11.56-7.88c4.82-6,14.87-3.63,20.28-2.92Z" fill="#e0a065" opacity="0.2"/>
                <g id="Grupo_56847" data-name="Grupo 56847" opacity="0.3">
                  <path id="Trazado_117234" data-name="Trazado 117234" d="M127.12,532.84a47.335,47.335,0,0,1,9.63-3.81,28.48,28.48,0,0,1,10.18-.63,33.5,33.5,0,0,1,9.51,2.63c.53.24,1.05.49,1.57.75l-1.37,1.7a34,34,0,0,0-10-3.27,26.9,26.9,0,0,0-9.58.28,46.523,46.523,0,0,0-9.46,3.4c-3.14,1.39-6.27,2.94-9.34,4.66l-.66.38-.85-.58,1-.61C120.9,536,124,534.37,127.12,532.84Z" fill="#e0a065"/>
                  <path id="Trazado_117235" data-name="Trazado 117235" d="M134.87,550.5a16.8,16.8,0,0,1,2.83-1.16,11.148,11.148,0,0,1,3.13-.43,19.074,19.074,0,0,1,3.13.28l-1.28,1.58a14.992,14.992,0,0,0-1.87-.18,8.789,8.789,0,0,0-2.67.26,15.368,15.368,0,0,0-2,.7l-1.44-1Z" fill="#e0a065"/>
                  <path id="Trazado_117236" data-name="Trazado 117236" d="M160.1,529.2a36.921,36.921,0,0,0-9.87-3.46,41.381,41.381,0,0,0-24.34,2.66c-3,1.48-5.22,3.74-7.43,5.39a31.65,31.65,0,0,1-4.34,2.74l-.63-.43a32.324,32.324,0,0,0,4.36-3c2.06-1.68,4.14-4.12,7.42-5.84a42.757,42.757,0,0,1,11.32-3.55,39.68,39.68,0,0,1,24.88,3.83Z" fill="#e0a065"/>
                  <path id="Trazado_117237" data-name="Trazado 117237" d="M132.78,546.19a24.76,24.76,0,0,1,12.46-1.41c.67.1,1.32.23,2,.38l-1.67,2.07-.63-.09a23,23,0,0,0-11.15,1.44c-.41.16-.81.33-1.21.51l-2.46-1.68a28.362,28.362,0,0,1,2.66-1.22Z" fill="#e0a065"/>
                  <path id="Trazado_117238" data-name="Trazado 117238" d="M142.37,535a37.087,37.087,0,0,0-5.66.59c-.93.16-1.84.37-2.79.6a12.736,12.736,0,0,0-2.4,1.16c-2.86,1.68-5.65,3.52-8.45,5.29l-.9-.62c2.85-1.91,5.68-3.89,8.67-5.76a13.925,13.925,0,0,1,2.73-1.38c.92-.25,1.88-.5,2.85-.7a38.484,38.484,0,0,1,5.88-.79,32.331,32.331,0,0,1,11.93,1.46l1,.37-1.32,1.62-.36-.15A31.269,31.269,0,0,0,142.37,535Z" fill="#e0a065"/>
                  <path id="Trazado_117239" data-name="Trazado 117239" d="M142.69,541.14a29.071,29.071,0,0,0-11.21,2.29,35.464,35.464,0,0,0-4.11,2.12l-2.49-1.69a33.1,33.1,0,0,1,5.54-2.88,31.93,31.93,0,0,1,12.3-2.35,29,29,0,0,1,8.59,1.45l-1.64,2a26.48,26.48,0,0,0-6.98-.94Z" fill="#e0a065"/>
                </g>
              </g>
              <path id="Trazado_117240" data-name="Trazado 117240" d="M235.94,492.9l-72.16,31.74-1.54,1.9,72.16-31.73Z" fill="#a85831"/>
              <path id="Trazado_117241" data-name="Trazado 117241" d="M162.24,526.54l72.16-31.73L212.13,522.4l-72.16,31.74Z" fill="#cc8747"/>
              <path id="Trazado_117242" data-name="Trazado 117242" d="M142.68,550.77l71.6-31.04.7-.86-71.02,30.32Z" fill="#cc8747" opacity="0.3"/>
              <path id="Trazado_117243" data-name="Trazado 117243" d="M145.54,547.23l71.02-30.32,1.21-1.5-70.56,29.75Z" fill="#cc8747" opacity="0.3"/>
              <path id="Trazado_117244" data-name="Trazado 117244" d="M149.67,542.11l71.02-30.32,1.22-1.5-70.56,29.74Z" fill="#cc8747" opacity="0.3"/>
              <path id="Trazado_117245" data-name="Trazado 117245" d="M153.93,536.83l71.02-30.31,1.22-1.51-70.92,30.2Z" fill="#cc8747" opacity="0.3"/>
              <path id="Trazado_117246" data-name="Trazado 117246" d="M156.63,533.49l71.02-30.32,1.22-1.51-70.86,30.12Z" fill="#cc8747" opacity="0.3"/>
              <path id="Trazado_117247" data-name="Trazado 117247" d="M160.1,529.2l71.01-30.32,1.22-1.51-70.86,30.12Z" fill="#cc8747" opacity="0.3"/>
              <path id="Trazado_117248" data-name="Trazado 117248" d="M139.97,554.14l72.16-31.74,7.21-8.94-70.65,29.88Z" fill="#cc8747" opacity="0.3"/>
            </g>
            <g id="Grupo_56855" data-name="Grupo 56855">
              <g id="Grupo_56853" data-name="Grupo 56853">
                <path id="Trazado_117249" data-name="Trazado 117249" d="M258.12,540l-14.27-12.88-65.58,33.8s-16.09,19.46-13.8,19.2c11.06-1.26,19.07-7.79,22.88-8.18s9.22-1.34,13.58-4.24,13.81-6,19.08-7.05c3.85-.75.19-2.94,7.09-3.44,1.94-.14,6.24-3.3,6.54-3.36,5.82-1,14.82-6,15.45-6.59h.09a3.441,3.441,0,0,0,.94-1.31c.32-.84,3.07-.71,3.81-1.34,1-.84,2.15-1.51,3.19-2.26C257.61,541.94,258.76,541.21,258.12,540Z" fill="#63331e"/>
                <path id="Trazado_117250" data-name="Trazado 117250" d="M249.32,543.17a34.541,34.541,0,0,0,8.93-2.8,1.249,1.249,0,0,0-.13-.35L245.7,528.81q-3.09.16-6.13.54l-61.3,31.59s-6.73,8.14-10.86,13.82c8.35-4,18.42-4.54,27.26-7.19,4.19-1.25,7.51-3.66,11.49-5.24,1.52-.6,2.86-1.31,4.31-2,1.11-.56,4-.91,3.52-2.28s-3.08.81-4.09,1.25c-2.07.91-4.18,1.66-6.32,2.4-3.79,1.32-7.59,2.63-11.39,3.88-2.05.67-6.49,3.14-7.17.85s5.95-2.67,8.09-3.36c5.5-1.78,11.16-3,16.69-4.69s11-4.07,16.7-5.56a56.817,56.817,0,0,0,6.15-1.91c1.37-.53,3.5-2.35,4.32-1.11.63.94-2.65,1.27-2.21,2.09.77,1.44,3.15-.76,4.43-1.6,2.14-1.4,5.78-1.92,6-4.46.12-1.71-2.91.47-3.82,1-1.26.79-4.17,2.4-4.64,1C235.36,543.89,245.42,543.81,249.32,543.17Z" fill="#6b391e" opacity="0.2"/>
                <path id="Trazado_117251" data-name="Trazado 117251" d="M183.12,565.32,151.74,537,119.3,567.49h-.25a1.61,1.61,0,0,0,.43,1.25c.21.33.57,1,1,1.2.8.34.81-.29,1.44.37.3.32.43.75.86,1.08a9.794,9.794,0,0,1,1.23,1.18c.76.78,2,.89,2.74,1.69s.84,2,2.14,2.35a4.385,4.385,0,0,0,1.4,0,3.06,3.06,0,0,1,2,.21,18.608,18.608,0,0,0,2.5,1.39c1.29.4,2.34.11,3.55.68a41.465,41.465,0,0,0,5.95,2.64c4.78,1.37,9.63-1.6,14.54-1.46,1.79,0,3.85.42,5.62,0a6.19,6.19,0,0,0,2.8-1.69c2.46-2.1,5.93-1.49,8.85-2.55a5,5,0,0,0,3.26-2.62,3.68,3.68,0,0,1,1.28-1.87c1-.84.45-1.79,1.49-2.54C182.63,568.52,183.77,566.51,183.12,565.32Z" fill="#7a4527"/>
                <path id="Trazado_117252" data-name="Trazado 117252" d="M151.74,537,121,565.9c17.33,15.64,45.15,15.38,62.13-.58Z" fill="#9e532e"/>
                <g id="Grupo_56851" data-name="Grupo 56851">
                  <path id="Trazado_117253" data-name="Trazado 117253" d="M151.74,537,123,564a43.19,43.19,0,0,0,32.5,10.67l1.53-7.53,2.67,7a42,42,0,0,0,21.42-10.65Z" fill="#e0a065"/>
                  <path id="Trazado_117254" data-name="Trazado 117254" d="M151.74,537l-11.26,10.58c6.35,5.73,17,1.48,22.76-.21Z" fill="#e0a065" opacity="0.2"/>
                  <g id="Grupo_56850" data-name="Grupo 56850" opacity="0.3">
                    <path id="Trazado_117255" data-name="Trazado 117255" d="M141.47,562.52a53.171,53.171,0,0,0,11.23,2.56A31.579,31.579,0,0,0,164,564a36.491,36.491,0,0,0,10-4.49c.55-.35,1.07-.72,1.6-1.09l-1.82-1.63a37.167,37.167,0,0,1-10.33,5.27,29.78,29.78,0,0,1-10.56,1.31,51.448,51.448,0,0,1-11-2.13c-3.7-1-7.41-2.16-11.08-3.53l-.79-.31-.83.79,1.23.49C134.08,560.14,137.79,561.36,141.47,562.52Z" fill="#e0a065"/>
                    <path id="Trazado_117256" data-name="Trazado 117256" d="M146.8,541.85a19.467,19.467,0,0,0,3.31.79,12.119,12.119,0,0,0,3.51-.06,21.249,21.249,0,0,0,3.39-.83l-1.69-1.52a18.144,18.144,0,0,1-2,.52,9.929,9.929,0,0,1-3,.15,13.784,13.784,0,0,1-2.29-.43l-1.4,1.32Z" fill="#e0a065"/>
                    <path id="Trazado_117257" data-name="Trazado 117257" d="M178.27,560.94a40.721,40.721,0,0,1-10.2,5.47,46,46,0,0,1-27.16,1.19c-3.59-1.11-6.4-3.23-9.11-4.65a35.5,35.5,0,0,0-5.26-2.28l-.61.58a35.831,35.831,0,0,1,5.33,2.6c2.55,1.49,5.27,3.82,9.17,5.15a48,48,0,0,0,13.06,2,43.9,43.9,0,0,0,15.37-2.49,43.081,43.081,0,0,0,11.22-5.9Z" fill="#e0a065"/>
                    <path id="Trazado_117258" data-name="Trazado 117258" d="M145.29,546.92a27.339,27.339,0,0,0,13.91-.56c.71-.21,1.41-.47,2.09-.74l-2.21-2-.67.21a25.589,25.589,0,0,1-12.48.3,13.358,13.358,0,0,1-1.42-.36l-2.4,2.26A31.122,31.122,0,0,0,145.29,546.92Z" fill="#e0a065"/>
                    <path id="Trazado_117259" data-name="Trazado 117259" d="M157.8,557.59a41.569,41.569,0,0,1-6.31.31c-1.05,0-2.09-.09-3.16-.19a13.788,13.788,0,0,1-2.84-.87c-3.45-1.36-6.83-2.9-10.22-4.37l-.88.83c3.47,1.61,6.93,3.31,10.54,4.85a14.67,14.67,0,0,0,3.24,1.05c1.06.12,2.15.23,3.25.29a42.691,42.691,0,0,0,6.59-.13,35.44,35.44,0,0,0,12.82-3.62,9.378,9.378,0,0,0,1-.57l-1.73-1.56c-.13.07-.24.16-.37.23a34.76,34.76,0,0,1-11.93,3.75Z" fill="#e0a065"/>
                    <path id="Trazado_117260" data-name="Trazado 117260" d="M157.06,550.78a32.429,32.429,0,0,1-12.71-.61,38.419,38.419,0,0,1-4.89-1.63L137,550.81a35.731,35.731,0,0,0,6.59,2.22,35.36,35.36,0,0,0,13.9.51,32.227,32.227,0,0,0,9.17-3l-2.17-2a28.617,28.617,0,0,1-7.43,2.24Z" fill="#e0a065"/>
                  </g>
                </g>
                <path id="Trazado_117261" data-name="Trazado 117261" d="M256.39,538.46l-73.27,26.86-2.03-1.83,73.28-26.86Z" fill="#9e532e"/>
                <g id="Grupo_56852" data-name="Grupo 56852">
                  <path id="Trazado_117262" data-name="Trazado 117262" d="M181.09,563.49l73.28-26.86-29.36-26.49L151.74,537Z" fill="#f0b46c"/>
                  <path id="Trazado_117263" data-name="Trazado 117263" d="M155.32,540.23l72.54-27.52.91.82L157,541.75Z" fill="#f0b46c" opacity="0.3"/>
                  <path id="Trazado_117264" data-name="Trazado 117264" d="M159.09,543.63l71.76-28.22,1.6,1.44-71.16,28.77Z" fill="#f0b46c" opacity="0.3"/>
                  <path id="Trazado_117265" data-name="Trazado 117265" d="M164.53,548.54l71.77-28.22,1.6,1.45-71.16,28.77Z" fill="#f0b46c" opacity="0.3"/>
                  <path id="Trazado_117266" data-name="Trazado 117266" d="M170.15,553.61l71.76-28.22,1.61,1.45-71.64,28.33Z" fill="#f0b46c" opacity="0.3"/>
                  <path id="Trazado_117267" data-name="Trazado 117267" d="M173.71,556.83l71.77-28.22,1.6,1.44-71.55,28.42Z" fill="#f0b46c" opacity="0.3"/>
                  <path id="Trazado_117268" data-name="Trazado 117268" d="M178.27,560.94l71.77-28.22,1.6,1.45-71.55,28.41Z" fill="#f0b46c" opacity="0.3"/>
                  <path id="Trazado_117269" data-name="Trazado 117269" d="M151.74,537l73.27-26.86,9.51,8.58-71.28,28.65Z" fill="#f0b46c" opacity="0.3"/>
                </g>
              </g>
              <path id="Trazado_117270" data-name="Trazado 117270" d="M166.76,550.6l-1,2.89,4.9.51,38.25-18.11Z" fill="#cc8747" opacity="0.4"/>
              <path id="Trazado_117271" data-name="Trazado 117271" d="M165.75,553.49l1.01-2.89,42.15-14.71-40.7,15.99Z" fill="#cc8747" opacity="0.5"/>
              <g id="Grupo_56854" data-name="Grupo 56854">
                <path id="Trazado_117272" data-name="Trazado 117272" d="M153.54,538.63l-.4,1.14,1.32-.32,8.43-4.02Z" fill="#cc8747" opacity="0.4"/>
                <path id="Trazado_117273" data-name="Trazado 117273" d="M153.14,539.77l.74-.84,9.01-3.5-9.35,3.2Z" fill="#cc8747" opacity="0.5"/>
              </g>
            </g>
          </g>
        </g>
      </g>
    </g>
  </g>
</svg>
