<svg xmlns="http://www.w3.org/2000/svg" width="295" height="362.174" viewBox="0 0 295 362.174">
  <g id="Grupo_54993" data-name="Grupo 54993" transform="translate(-346 -7770.826)">
    <g id="Grupo_54593" data-name="Grupo 54593" transform="translate(-1008.318 7909.792)">
      <g id="Grupo_54222" data-name="Grupo 54222" transform="translate(369 -303.676)">
        <path id="Trazado_101975" data-name="Trazado 101975" d="M985.318,164.711V428.952a463.853,463.853,0,0,0,72.845,11.054c123.357,8.465,222.155-8.3,222.155-8.3v-267Z" fill="#c0b6db"/>
        <path id="Trazado_101976" data-name="Trazado 101976" d="M985.318,164.711V418.952a463.853,463.853,0,0,0,72.845,11.054c123.357,8.465,222.155-8.3,222.155-8.3v-257Z" fill="#f1eefd"/>
      </g>
    </g>
    <g id="CF1_subsectores_copia" data-name="CF1_subsectores copia" transform="translate(422.542 7983.417)">
      <path id="Trazado_108946" data-name="Trazado 108946" d="M74.5,0C115.645,0,149,33.579,149,75s-33.355,75-74.5,75S0,116.421,0,75,33.355,0,74.5,0Z" transform="translate(0.458 -0.417)" fill="#ffd4e1"/>
      <path id="Trazado_108796" data-name="Trazado 108796" d="M48.446,24.47c-25.788,0-32.908-10.979-33.133-11.443a2.094,2.094,0,0,1,3.545-2.214,16.738,16.738,0,0,0,5.983,4.7C28.91,17.694,36.329,20.3,48.505,20.3A74.313,74.313,0,0,0,89,8.136a2.085,2.085,0,1,1,2.483,3.351h0A76.976,76.976,0,0,1,48.446,24.44Z" transform="translate(7.469 3.831)" fill="#95573a"/>
      <path id="Trazado_108797" data-name="Trazado 108797" d="M38.074,33.477a2.094,2.094,0,0,1-2.094-2.094V12.566a2.094,2.094,0,0,1,4.173,0V31.383a2.094,2.094,0,0,1-2.079,2.094Z" transform="translate(17.84 5.28)" fill="#ad6643"/>
      <path id="Trazado_108798" data-name="Trazado 108798" d="M109.819,70.494c0,35.616-16.708,41.794-16.708,41.794a18.608,18.608,0,0,1-33.447,0C43,101.4,43,70.494,43,70.494c0-19.82,16.664-35.541,16.664-35.541a18.608,18.608,0,0,1,33.447,0C110.866,53.905,109.819,70.494,109.819,70.494Z" transform="translate(21.321 12.151)" fill="#ad6643"/>
      <path id="Trazado_108799" data-name="Trazado 108799" d="M98.72,69.082c0,20.777-8.975,35.526-25.085,35.526S48.55,89.919,48.55,69.082,57.525,35.65,73.635,35.65,98.72,48.365,98.72,69.082Z" transform="translate(24.073 17.676)" fill="#8a5237"/>
      <ellipse id="Elipse_4320" data-name="Elipse 4320" cx="10.456" cy="4.173" rx="10.456" ry="4.173" transform="translate(95.614 59.654)" fill="#5e3725"/>
      <ellipse id="Elipse_4321" data-name="Elipse 4321" cx="10.456" cy="4.173" rx="10.456" ry="4.173" transform="translate(76.796 59.654)" fill="#5e3725"/>
      <ellipse id="Elipse_4322" data-name="Elipse 4322" cx="10.456" cy="4.173" rx="10.456" ry="4.173" transform="translate(87.252 65.921)" fill="#7a4830"/>
      <ellipse id="Elipse_4323" data-name="Elipse 4323" cx="10.456" cy="4.173" rx="10.456" ry="4.173" transform="translate(97.693 72.204)" fill="#5e3725"/>
      <ellipse id="Elipse_4324" data-name="Elipse 4324" cx="10.456" cy="4.173" rx="10.456" ry="4.173" transform="translate(76.796 72.204)" fill="#5e3725"/>
      <ellipse id="Elipse_4325" data-name="Elipse 4325" cx="10.456" cy="4.173" rx="10.456" ry="4.173" transform="translate(87.252 78.471)" fill="#7a4830"/>
      <ellipse id="Elipse_4326" data-name="Elipse 4326" cx="10.456" cy="4.173" rx="10.456" ry="4.173" transform="translate(97.693 84.739)" fill="#5e3725"/>
      <ellipse id="Elipse_4327" data-name="Elipse 4327" cx="10.456" cy="4.173" rx="10.456" ry="4.173" transform="translate(76.796 84.739)" fill="#5e3725"/>
      <ellipse id="Elipse_4328" data-name="Elipse 4328" cx="10.456" cy="4.173" rx="10.456" ry="4.173" transform="translate(87.252 91.006)" fill="#7a4830"/>
      <ellipse id="Elipse_4329" data-name="Elipse 4329" cx="10.456" cy="4.173" rx="10.456" ry="4.173" transform="translate(97.693 97.274)" fill="#5e3725"/>
      <ellipse id="Elipse_4330" data-name="Elipse 4330" cx="10.456" cy="4.173" rx="10.456" ry="4.173" transform="translate(76.796 97.274)" fill="#5e3725"/>
      <ellipse id="Elipse_4331" data-name="Elipse 4331" cx="10.456" cy="4.173" rx="10.456" ry="4.173" transform="translate(87.252 103.542)" fill="#7a4830"/>
      <ellipse id="Elipse_4332" data-name="Elipse 4332" cx="10.456" cy="4.173" rx="10.456" ry="4.173" transform="translate(76.796 107.73)" fill="#5e3725"/>
      <path id="Trazado_108800" data-name="Trazado 108800" d="M81.909,70.489c0,35.616-16.723,41.794-16.723,41.794a18.593,18.593,0,0,1-33.432,0C15.12,101.393,15,70.489,15,70.489c0-19.82,16.753-35.541,16.753-35.541a18.608,18.608,0,0,1,33.432,0C82.956,53.9,81.909,70.489,81.909,70.489Z" transform="translate(7.437 12.156)" fill="#95573a"/>
      <path id="Trazado_108801" data-name="Trazado 108801" d="M38.077,114.47a2.094,2.094,0,0,1-2.094-2.094V30.853a2.094,2.094,0,1,1,4.173,0v81.508A2.094,2.094,0,0,1,38.077,114.47Z" transform="translate(17.838 14.172)" fill="#ad6643"/>
      <path id="Trazado_108802" data-name="Trazado 108802" d="M35.95,108.767a2.079,2.079,0,0,1-1.78-.987c-.434-.7-10.77-17.531-10.77-36.633S33.676,33.3,34.11,32.525a2.094,2.094,0,0,1,3.65,2.019c-.1.179-10.187,18.668-10.187,36.6s10.052,34.344,10.187,34.434a2.079,2.079,0,0,1-.718,2.9,2.019,2.019,0,0,1-1.092.284Z" transform="translate(11.602 15.671)" fill="#ad6643"/>
      <path id="Trazado_108803" data-name="Trazado 108803" d="M43.717,108.852a2.094,2.094,0,0,1-2.079-2.094,2.019,2.019,0,0,1,.314-1.092c.03-.09,10.067-16.544,10.067-34.494s-10.082-36.424-10.187-36.6a2.094,2.094,0,1,1,3.635-2.079h0c.434.778,10.71,19.58,10.71,38.622s-10.336,35.9-10.77,36.633A2.079,2.079,0,0,1,43.717,108.852Z" transform="translate(20.604 15.586)" fill="#ad6643"/>
      <ellipse id="Elipse_4333" data-name="Elipse 4333" cx="10.456" cy="4.173" rx="10.456" ry="4.173" transform="translate(68.434 124.453)" fill="#5e3725"/>
      <ellipse id="Elipse_4334" data-name="Elipse 4334" cx="10.456" cy="4.173" rx="10.456" ry="4.173" transform="translate(89.346 126.532)" fill="#5e3725"/>
      <ellipse id="Elipse_4335" data-name="Elipse 4335" cx="10.456" cy="4.173" rx="10.456" ry="4.173" transform="translate(110.243 126.532)" fill="#5e3725"/>
      <ellipse id="Elipse_4336" data-name="Elipse 4336" cx="10.456" cy="4.173" rx="10.456" ry="4.173" transform="translate(87.252 116.092)" fill="#7a4830"/>
      <path id="Trazado_108804" data-name="Trazado 108804" d="M87.74,86.982c-1.152,2-5.445.778-10.471-2.094S69.79,78.53,71,76.526s5.43-.763,10.471,2.094S88.876,84.977,87.74,86.982Z" transform="translate(35.053 37.457)" fill="#5e3725"/>
      <ellipse id="Elipse_4337" data-name="Elipse 4337" cx="10.456" cy="4.173" rx="10.456" ry="4.173" transform="translate(87.252 53.386)" fill="#7a4830"/>
    </g>
  </g>
</svg>
