<svg xmlns="http://www.w3.org/2000/svg" width="295" height="362.174" viewBox="0 0 295 362.174">
  <g id="Grupo_54994" data-name="Grupo 54994" transform="translate(-661 -7770.826)">
    <g id="Grupo_54594" data-name="Grupo 54594" transform="translate(-693.318 7909.792)">
      <g id="Grupo_54222" data-name="Grupo 54222" transform="translate(369 -303.676)">
        <path id="Trazado_101975" data-name="Trazado 101975" d="M985.318,164.711V428.952a463.853,463.853,0,0,0,72.845,11.054c123.357,8.465,222.155-8.3,222.155-8.3v-267Z" fill="#c0b6db"/>
        <path id="Trazado_101976" data-name="Trazado 101976" d="M985.318,164.711V418.952a463.853,463.853,0,0,0,72.845,11.054c123.357,8.465,222.155-8.3,222.155-8.3v-257Z" fill="#f1eefd"/>
      </g>
    </g>
    <g id="CF1_subsectores" transform="translate(739.083 7983.417)">
      <circle id="Elipse_4338" data-name="Elipse 4338" cx="75" cy="75" r="75" transform="translate(-0.083 -0.417)" fill="#ffd4e1"/>
      <path id="Trazado_108805" data-name="Trazado 108805" d="M92.353,58.307l-37.112,5.55-24.786-5.55s-12.326,0-12.326-16.768S30.456,24.77,30.456,24.77h61.9Z" transform="translate(8.989 12.282)" fill="#ab7b64"/>
      <path id="Trazado_108806" data-name="Trazado 108806" d="M91.426,45.988V48.98L55.706,52.9,29.528,49.039A12.191,12.191,0,0,1,20,43.46a13.118,13.118,0,0,0,3.575.643H81.808a16.709,16.709,0,0,0,7.9,1.974A16.349,16.349,0,0,0,91.426,45.988Z" transform="translate(9.917 21.549)" fill="#9a6a53"/>
      <path id="Trazado_108807" data-name="Trazado 108807" d="M44.183,34.485H18.32a20.073,20.073,0,0,1,.853-3.695h25.01a1.855,1.855,0,0,1,0,3.695Z" transform="translate(9.084 15.267)" fill="#ab7b64"/>
      <path id="Trazado_108808" data-name="Trazado 108808" d="M56.135,40.54a1.84,1.84,0,0,1-1.84,1.855H19.173A20.075,20.075,0,0,1,18.32,38.7h35.9a1.84,1.84,0,0,1,1.915,1.84Z" transform="translate(9.084 19.188)" fill="#ab7b64"/>
      <path id="Trazado_108809" data-name="Trazado 108809" d="M52.284,32.612a1.87,1.87,0,0,1-1.855,1.855H43.04a1.855,1.855,0,1,1,0-3.695h7.389a1.855,1.855,0,0,1,1.855,1.84Z" transform="translate(20.338 15.254)" fill="#ab7b64"/>
      <path id="Trazado_108810" data-name="Trazado 108810" d="M62.662,40.542A1.855,1.855,0,0,1,60.808,42.4H50.95a1.855,1.855,0,1,1,0-3.695h9.858a1.855,1.855,0,0,1,1.855,1.84Z" transform="translate(24.26 19.186)" fill="#ab7b64"/>
      <path id="Trazado_108811" data-name="Trazado 108811" d="M46.023,32.61a1.855,1.855,0,0,1-1.84,1.855H18.32a20.074,20.074,0,0,1,.853-3.695h25.01A1.84,1.84,0,0,1,46.023,32.61Z" transform="translate(9.084 15.257)" fill="#9a6a53"/>
      <path id="Trazado_108812" data-name="Trazado 108812" d="M52.284,32.612a1.87,1.87,0,0,1-1.855,1.855H43.04a1.855,1.855,0,1,1,0-3.695h7.389a1.855,1.855,0,0,1,1.855,1.84Z" transform="translate(20.338 15.254)" fill="#9a6a53"/>
      <path id="Trazado_108813" data-name="Trazado 108813" d="M56.135,40.54a1.84,1.84,0,0,1-1.84,1.855H19.173A20.075,20.075,0,0,1,18.32,38.7h35.9a1.84,1.84,0,0,1,1.915,1.84Z" transform="translate(9.084 19.188)" fill="#9a6a53"/>
      <path id="Trazado_108814" data-name="Trazado 108814" d="M65.744,42.4H50.95a1.855,1.855,0,1,1,0-3.695H63.276Z" transform="translate(24.26 19.186)" fill="#9a6a53"/>
      <circle id="Elipse_4339" data-name="Elipse 4339" cx="16.768" cy="16.768" r="16.768" transform="translate(84.574 37.052)" fill="#fed2a8"/>
      <path id="Trazado_108815" data-name="Trazado 108815" d="M88.421,40.661A16.753,16.753,0,0,1,60,52.627,16.768,16.768,0,0,0,80.777,26.6a16.753,16.753,0,0,1,7.644,14.061Z" transform="translate(29.75 13.189)" fill="#fda551"/>
      <path id="Trazado_108816" data-name="Trazado 108816" d="M63.033,45.61a1.885,1.885,0,0,1-1.675-1.047,11.219,11.219,0,0,1,10.112-16.08,1.855,1.855,0,1,1,0,3.695,7.479,7.479,0,0,0-6.776,10.785,1.84,1.84,0,0,1-1.66,2.648Z" transform="translate(29.874 14.119)" fill="#febc7c"/>
      <path id="Trazado_108817" data-name="Trazado 108817" d="M69.319,47.859a10.845,10.845,0,0,1-3.455-.553A1.847,1.847,0,0,1,67,43.79a7.479,7.479,0,0,0,9.843-7.12,1.855,1.855,0,1,1,3.695,0A11.234,11.234,0,0,1,69.319,47.889Z" transform="translate(32.023 17.18)" fill="#febc7c"/>
      <path id="Trazado_108818" data-name="Trazado 108818" d="M80.489,80.727H20.566S8.24,81.011,8.24,64.093s12.326-16.9,12.326-16.9H80.489Z" transform="translate(4.086 23.398)" fill="#ab7b64"/>
      <path id="Trazado_108819" data-name="Trazado 108819" d="M79.462,66.31v4.936H19.539A11.967,11.967,0,0,1,10.31,66.31Z" transform="translate(5.112 32.879)" fill="#9a6a53"/>
      <path id="Trazado_108820" data-name="Trazado 108820" d="M21.22,56.58H8.49a18.578,18.578,0,0,1,.972-3.71H21.22a1.855,1.855,0,0,1,0,3.71Z" transform="translate(4.21 26.215)" fill="#ab7b64"/>
      <path id="Trazado_108821" data-name="Trazado 108821" d="M33.221,63.135a1.84,1.84,0,0,1-1.84,1.84H9.288A21.316,21.316,0,0,1,8.42,61.28H31.336a1.855,1.855,0,0,1,1.885,1.855Z" transform="translate(4.175 30.385)" fill="#ab7b64"/>
      <path id="Trazado_108822" data-name="Trazado 108822" d="M53.007,63.137a1.855,1.855,0,0,1-1.84,1.84H37.6a1.855,1.855,0,1,1,0-3.695H51.167A1.87,1.87,0,0,1,53.007,63.137Z" transform="translate(17.641 30.382)" fill="#ab7b64"/>
      <path id="Trazado_108823" data-name="Trazado 108823" d="M55.779,56.58H28.615a1.855,1.855,0,1,1,0-3.71H55.779a1.855,1.855,0,0,1,0,3.71Z" transform="translate(13.268 26.215)" fill="#ab7b64"/>
      <path id="Trazado_108824" data-name="Trazado 108824" d="M90.5,47.19H55.8V80.727H90.728Z" transform="translate(27.667 23.398)" fill="#ab7b64"/>
      <path id="Trazado_108825" data-name="Trazado 108825" d="M90.361,71.236H56.54V66.3H90.316Z" transform="translate(28.034 32.874)" fill="#9a6a53"/>
      <circle id="Elipse_4340" data-name="Elipse 4340" cx="16.768" cy="16.768" r="16.768" transform="translate(101.343 70.588)" fill="#fed2a8"/>
      <path id="Trazado_108826" data-name="Trazado 108826" d="M79.941,72.479a1.69,1.69,0,0,1-.539-.09A11.279,11.279,0,0,1,71.46,61.664a11.159,11.159,0,0,1,5.3-9.573,1.843,1.843,0,1,1,1.93,3.141,7.479,7.479,0,0,0-3.59,6.417,7.6,7.6,0,0,0,5.325,7.195,1.855,1.855,0,0,1-.538,3.62Z" transform="translate(35.432 25.693)" fill="#febc7c"/>
      <path id="Trazado_108827" data-name="Trazado 108827" d="M83.427,70.8a1.84,1.84,0,0,1-1.137-3.321,7.479,7.479,0,0,0-.359-12.206A1.855,1.855,0,0,1,84,52.279,11.219,11.219,0,0,1,84.534,70.5a1.87,1.87,0,0,1-1.122.374Z" transform="translate(40.368 25.848)" fill="#febc7c"/>
      <path id="Trazado_108828" data-name="Trazado 108828" d="M57.619,54.725a1.855,1.855,0,0,1-1.84,1.855H28.615a1.855,1.855,0,1,1,0-3.71H55.779a1.855,1.855,0,0,1,1.84,1.855Z" transform="translate(13.268 26.215)" fill="#9a6a53"/>
      <path id="Trazado_108829" data-name="Trazado 108829" d="M23.015,54.725A1.87,1.87,0,0,1,21.22,56.58H8.49a18.578,18.578,0,0,1,.972-3.71H21.22A1.87,1.87,0,0,1,23.015,54.725Z" transform="translate(4.21 26.215)" fill="#9a6a53"/>
      <path id="Trazado_108830" data-name="Trazado 108830" d="M33.221,63.135a1.84,1.84,0,0,1-1.84,1.84H9.288A21.316,21.316,0,0,1,8.42,61.28H31.336a1.855,1.855,0,0,1,1.885,1.855Z" transform="translate(4.175 30.385)" fill="#9a6a53"/>
      <path id="Trazado_108831" data-name="Trazado 108831" d="M53.007,63.137a1.855,1.855,0,0,1-1.84,1.84H37.6a1.855,1.855,0,1,1,0-3.695H51.167A1.87,1.87,0,0,1,53.007,63.137Z" transform="translate(17.641 30.382)" fill="#9a6a53"/>
      <circle id="Elipse_4341" data-name="Elipse 4341" cx="16.768" cy="16.768" r="16.768" transform="translate(67.806 70.588)" fill="#fed2a8"/>
      <path id="Trazado_108832" data-name="Trazado 108832" d="M55.447,70.293a1.84,1.84,0,0,1-.942-.269,11.249,11.249,0,0,1-5.5-9.6,11.084,11.084,0,0,1,1.227-5.086,1.846,1.846,0,0,1,3.291,1.675,7.479,7.479,0,0,0,2.962,9.858,1.84,1.84,0,0,1-1.032,3.425Z" transform="translate(24.296 26.936)" fill="#febc7c"/>
      <path id="Trazado_108833" data-name="Trazado 108833" d="M60.8,72.6a1.84,1.84,0,0,1-.748-3.59,7.479,7.479,0,0,0-2.992-14.45,1.855,1.855,0,0,1,0-3.695,11.219,11.219,0,0,1,4.368,21.555,2.034,2.034,0,0,1-.718.135Z" transform="translate(27.455 25.223)" fill="#febc7c"/>
      <path id="Trazado_108834" data-name="Trazado 108834" d="M100.8,61.673A16.768,16.768,0,0,1,68.74,68.553,16.768,16.768,0,0,0,97.55,51.8a16.679,16.679,0,0,1,3.246,9.873Z" transform="translate(34.084 25.684)" fill="#fda551"/>
      <path id="Trazado_108835" data-name="Trazado 108835" d="M78.376,61.672A16.768,16.768,0,0,1,46.32,68.553,16.768,16.768,0,0,0,75.175,51.8a17.456,17.456,0,0,1,1.87,3.291,16.768,16.768,0,0,1,1.331,6.567Z" transform="translate(22.967 25.684)" fill="#fda551"/>
    </g>
  </g>
</svg>
