<svg xmlns="http://www.w3.org/2000/svg" xmlns:xlink="http://www.w3.org/1999/xlink" width="296" height="448.45" viewBox="0 0 296 448.45">
  <defs>
    <clipPath id="clip-path">
      <rect id="Rectángulo_6901" data-name="Rectángulo 6901" width="295" height="191.37" transform="translate(0 381.03)" fill="none"/>
    </clipPath>
  </defs>
  <g id="Grupo_56920" data-name="Grupo 56920" transform="translate(-1019 -7719.777)">
    <rect id="Rectángulo_6905" data-name="Rectángulo 6905" width="295" height="448" rx="13" transform="translate(1019 7719.777)" fill="#fee7ee"/>
    <g id="CF1_tarejta_12" data-name="CF1_tarejta 12" transform="translate(1020 7576.747)">
      <rect id="Rectángulo_6893" data-name="Rectángulo 6893" width="295" height="19.08" transform="translate(0 572.4)" fill="#472ea6"/>
      <g id="Grupo_56859" data-name="Grupo 56859" clip-path="url(#clip-path)">
        <g id="Grupo_56858" data-name="Grupo 56858">
          <g id="Grupo_56857" data-name="Grupo 56857">
            <path id="Trazado_117274" data-name="Trazado 117274" d="M142.37,436.83c-1.77,10.67-8.44,17.22-15.86,17.22s-14.08-8.25-15.7-17.22a15.84,15.84,0,0,0,2.53-3.82,14.27,14.27,0,0,0,2.8,6.39c3.83,4.39,7.08,6.4,10.37,6.4s6.55-2,10.38-6.4a14.23,14.23,0,0,0,2.8-6.43h.19a16.169,16.169,0,0,0,2.53,3.78Z" fill="#f6b961"/>
            <path id="Trazado_117275" data-name="Trazado 117275" d="M154,444.63s-.08,16.61-.12,31.49c0,9.35,0,18,.12,21.42-1.1,1.48-2.28,3-3.52,4.43-1.86,2.12-5.26,4.13-8.94,6.36-6.89.61-8.44-.76-8.44-.76s-2.27,2.31,3.33,3.49c-1.85.68-2.95.87-3.89,3.06h-9.58v12.53H98.43c0-2.91,0-14,.19-27.1h0c6.89.23,13.32.53,16.69,1.44l.34.11-7.08,9.09a2.88,2.88,0,0,0,.5,4,2.74,2.74,0,0,0,1.74.61,2.87,2.87,0,0,0,2.27-1.1l8.51-11c5.19,1.4,8.79,2.16,10.34.27a33.185,33.185,0,0,1,3.21-3.41h6.17l.5-11.7h0c3.74-1.89,6.47-9,7.34-26.76-1.44.57-2.84,1.1-4.13,1.63a130.87,130.87,0,0,0,4.13-20.32,27.717,27.717,0,0,0,3.82,1.85A9.15,9.15,0,0,1,154,444.63Z" fill="#f57fa3"/>
            <path id="Trazado_117276" data-name="Trazado 117276" d="M173.83,463.51c-8.82,6.36-12.3,16.85-12.3,16.85a45.809,45.809,0,0,0-7.65-4.24h0c0-14.88.12-31.49.12-31.49C161.56,447.92,167.05,453.41,173.83,463.51Z" fill="#472ea6"/>
            <path id="Trazado_117277" data-name="Trazado 117277" d="M128.79,414.91h11.92c0,3.67,0,7.12-.15,10.26a46.619,46.619,0,0,1-.87,7.8,14.23,14.23,0,0,1-2.8,6.43c-3.83,4.39-7.08,6.4-10.38,6.4s-6.54-2-10.37-6.4a14.27,14.27,0,0,1-2.8-6.39,46.211,46.211,0,0,1-.87-7.84c-.15-3.14-.15-6.59-.15-10.26h16.47Z" fill="#ffcd91"/>
            <path id="Trazado_117278" data-name="Trazado 117278" d="M138,488.23a5.16,5.16,0,0,1-2.65,1.21,13.32,13.32,0,0,0-3.71-1.7h-.07a2.189,2.189,0,0,0-.34-.64c.45-.42.87-.84,1.28-1.29A18.62,18.62,0,0,0,138,488.23Z" fill="#e77800"/>
            <path id="Trazado_117279" data-name="Trazado 117279" d="M131.25,487.1a2.19,2.19,0,0,1,.34.64c-.46,0-2.8-.3-3.87-1.67a2.73,2.73,0,0,1,2.12-.07,2.291,2.291,0,0,1,.8.42A2,2,0,0,1,131.25,487.1Z" fill="#472ea6"/>
            <path id="Trazado_117280" data-name="Trazado 117280" d="M208.88,640.05v12.49H167.92V640.05h40.96Z" fill="#fd8f25"/>
            <path id="Trazado_117281" data-name="Trazado 117281" d="M208.88,608.56v12.53H167.92V608.56h40.96Z" fill="#fd8f25"/>
            <path id="Trazado_117282" data-name="Trazado 117282" d="M208.88,577.45v12.53H167.92V577.45h40.96Z" fill="#fd8f25"/>
            <path id="Trazado_117283" data-name="Trazado 117283" d="M208.88,545.76v12.5H167.92v-12.5h40.96Z" fill="#fda551"/>
            <path id="Trazado_117284" data-name="Trazado 117284" d="M208.61,514.12v12.53H167.66V514.12Z" fill="#fda551"/>
            <path id="Trazado_117285" data-name="Trazado 117285" d="M201.08,542.36c4.66,0,4.88,3.4,0,3.4H167.92v12.5h17.15v.22s-.87,1,0,3.07H145.29V574h55.79c4.66,0,4.88,3.41,0,3.41H167.92V590h17.34s-.87,1,0,3.17v.12h-40v12.49h41v-.61H201.1c4.66,0,4.88,3.41,0,3.41H167.92v12.53h17.57s-.91,1,0,3.14v.11h-40.2v12.53h41v-.26h14.84c4.66,0,4.88,3.44,0,3.44H167.92V651c-1.77-1.85-3.82,0-3.82,0V640.05H123.15V651a3.73,3.73,0,0,0-4.24,0V640.05h-40c.91-2.16,0-3.18,0-3.18H96.27V624.34H63.19c-4.88,0-4.66-3.4,0-3.4H78v.15h41V608.56H79a2.88,2.88,0,0,0-.11-2.8H96.27V593.27H63.19c-4.88,0-4.66-3.45,0-3.45H78V590h41V577.45H79.28c.9-2.12,0-3.15,0-3.15V574h17V561.55H63.19c-4.88,0-4.66-3.41,0-3.41H78v.12h41v-12.5H79c.91-2.15,0-3.17,0-3.17H96.27V530.06H63.19c-4.88,0-4.66-3.41,0-3.41H163.87V515a2.93,2.93,0,0,0,3.79,0v11.66h17.22v.11s-.91,1.06,0,3.18v.12H145.29V542.6h41v-.23h14.84Zm-37,78.73V608.56H123.15v12.53Zm0-31.11V577.45H123.15V590Zm0-31.72v-12.5H123.15v12.5Zm-22.6,78.61V624.34H100.55v12.53Zm0-31.11V593.27H100.55v12.49Zm0-31.72V561.55H100.55V574Zm0-31.45V530.06H100.55v12.53Z" fill="#5e5e5e"/>
            <path id="Trazado_117286" data-name="Trazado 117286" d="M186.24,636.61v.26H145.29V624.35h40.95Z" fill="#fd8f25"/>
            <path id="Trazado_117287" data-name="Trazado 117287" d="M186.24,605.15v.61H145.29V593.27h40.95Z" fill="#fd8f25"/>
            <path id="Trazado_117288" data-name="Trazado 117288" d="M185.03,561.55h1.21v12.49H145.29V561.55Z" fill="#fd8f25"/>
            <path id="Trazado_117289" data-name="Trazado 117289" d="M186.24,542.36v.23H145.29V530.06h40.95Z" fill="#be6b1c"/>
            <path id="Trazado_117290" data-name="Trazado 117290" d="M136.13,514.12c-2.27,2.16-2.08,7.19-2.08,7.19-1.4.84-3-3.86-1.55-7.19.94-2.19,2-2.38,3.89-3.06a17.892,17.892,0,0,0,3.49-1.71l1.62-1c3.68-2.23,7.08-4.24,8.94-6.36,1.24-1.44,2.42-3,3.52-4.43a141.271,141.271,0,0,0,10.14-15.48,45.63,45.63,0,0,1,12.76-13.89c.94,1.55,2,3.18,3,4.92,2.12,3.56,4.42,9.24,2.72,10.37s-11.66,15.52-21,20.33a71.211,71.211,0,0,1-8.82,10.33c-5.3,5.07-6.85,6.47-8.06,6.93s2.72-4.7,3-5.38-1.06-1.55-3.52,2.65S139,524.76,140,521.8s3.41-6,2.95-6.47c-.95-1-5.33,8.67-6.74,6.66-1.06-1.43,2.24-5.86,2.73-7.87.19-.72,0-1.13-.83-1a3.39,3.39,0,0,0-1.98,1Z" fill="#f6b961"/>
            <path id="Trazado_117291" data-name="Trazado 117291" d="M177.58,467.68a6.94,6.94,0,0,0-.72.49,45.63,45.63,0,0,0-12.76,13.89l-2.57-1.7s3.48-10.49,12.3-16.85a19.2,19.2,0,0,1,1.89-1.24,12.46,12.46,0,0,0,1.86,5.41Z" fill="#9182ca"/>
            <path id="Trazado_117292" data-name="Trazado 117292" d="M164.1,650.99v1.55H123.14V640.05H164.1Z" fill="#fd8f25"/>
            <rect id="Rectángulo_6894" data-name="Rectángulo 6894" width="40.96" height="12.53" transform="translate(123.15 608.56)" fill="#fd8f25"/>
            <rect id="Rectángulo_6895" data-name="Rectángulo 6895" width="40.96" height="12.53" transform="translate(123.15 577.45)" fill="#fd8f25"/>
            <rect id="Rectángulo_6896" data-name="Rectángulo 6896" width="40.96" height="12.49" transform="translate(123.15 545.76)" fill="#fd8f25"/>
            <path id="Trazado_117293" data-name="Trazado 117293" d="M163.87,515v11.66H122.92V514.12h9.58c-1.41,3.33.15,8,1.55,7.19,0,0-.19-5,2.08-7.19h2.8c-.49,2-3.79,6.44-2.73,7.87,1.41,2,5.79-7.64,6.74-6.66.46.46-2,3.56-2.95,6.47s1.7.69,4.16-3.48,3.79-3.37,3.52-2.65-4.27,5.87-3,5.38,2.76-1.86,8.06-6.93h11.16Z" fill="#fd8f25"/>
            <path id="Trazado_117294" data-name="Trazado 117294" d="M149.15,442.36A130.869,130.869,0,0,1,145,462.68q-1.31.51-2.49,1H108.46A136.622,136.622,0,0,1,104,442.36a25.049,25.049,0,0,0,6.78-5.53c1.62,9,8.29,17.22,15.7,17.22s14.09-6.55,15.86-17.22h0a24.12,24.12,0,0,0,6.81,5.53Z" fill="#9182ca"/>
            <path id="Trazado_117295" data-name="Trazado 117295" d="M145,462.68c1.29-.53,2.69-1.06,4.13-1.63-.87,17.76-3.6,24.87-7.34,26.76a5.59,5.59,0,0,1-3.79.42,18.62,18.62,0,0,1-5.49-2.42,24.882,24.882,0,0,0,2.58-3.63l2.46-3.75c.79-1.29,1.62-2.54,2.38-3.82l-.19-.16c-1,1.1-2,2.2-3.06,3.26l-3,3.33a24.728,24.728,0,0,0-2.92,3.41c-5.71-4.62-7.34-8.44-2.68-12.72,2.65-2.42,7.34-5,14.46-8Q143.71,463.19,145,462.68Z" fill="#dad5ed"/>
            <path id="Trazado_117296" data-name="Trazado 117296" d="M143.74,410.37v4.54H128.79v-4.54h14.95Z" fill="#e57900"/>
            <path id="Trazado_117297" data-name="Trazado 117297" d="M143.4,414.91c1.55,2.84.15,9.73-2.84,10.26.15-3.14.15-6.59.15-10.26Z" fill="#f6b961"/>
            <path id="Trazado_117298" data-name="Trazado 117298" d="M98.84,474.57c.23-16.28.38-29.94.38-29.94.31-.15.65-.27,1-.42a28.293,28.293,0,0,0,3.82-1.85,136.62,136.62,0,0,0,4.43,21.34h34.07c-7.12,3-11.81,5.61-14.46,8H110.81l.6,14.87c-1.89-.6-4.54-1.59-9.2-2.72-1.13-.3-2.3-.53-3.44-.72C98.81,480.24,98.84,477.37,98.84,474.57Z" fill="#f57fa3"/>
            <path id="Trazado_117299" data-name="Trazado 117299" d="M142.45,410.26v.11H128.79v-15.9A16,16,0,0,1,142.45,410.26Z" fill="#ff9500"/>
            <path id="Trazado_117300" data-name="Trazado 117300" d="M141.81,487.81h0l-.5,11.7h-6.17a30.841,30.841,0,0,1,3.49-3c1.21-.91.56-4.58-3.26-7.12a5.16,5.16,0,0,0,2.65-1.21,5.59,5.59,0,0,0,3.79-.37Z" fill="#f25585"/>
            <rect id="Rectángulo_6897" data-name="Rectángulo 6897" width="40.95" height="12.53" transform="translate(100.55 624.34)" fill="#fd8f25"/>
            <rect id="Rectángulo_6898" data-name="Rectángulo 6898" width="40.95" height="12.49" transform="translate(100.55 593.27)" fill="#fd8f25"/>
            <rect id="Rectángulo_6899" data-name="Rectángulo 6899" width="40.95" height="12.49" transform="translate(100.55 561.55)" fill="#be6b1c"/>
            <rect id="Rectángulo_6900" data-name="Rectángulo 6900" width="40.95" height="12.53" transform="translate(100.55 530.06)" fill="#fda551"/>
            <path id="Trazado_117301" data-name="Trazado 117301" d="M141.5,508.33l-1.62,1a17.89,17.89,0,0,1-3.49,1.71c-5.6-1.18-3.33-3.49-3.33-3.49S134.61,508.94,141.5,508.33Z" fill="#f6b961"/>
            <path id="Trazado_117302" data-name="Trazado 117302" d="M139.76,474.45l.19.16c-.76,1.28-1.59,2.53-2.38,3.82l-2.46,3.75a24.881,24.881,0,0,1-2.58,3.63c-.41.45-.83.87-1.28,1.29a2,2,0,0,0-.61-.68,2.291,2.291,0,0,0-.8-.42,8.687,8.687,0,0,1,.54-.95,3,3,0,0,1,.37-.6,24.733,24.733,0,0,1,2.92-3.41l3-3.33C137.72,476.65,138.74,475.55,139.76,474.45Z" fill="#472ea6"/>
            <path id="Trazado_117303" data-name="Trazado 117303" d="M138.1,513.1c.87-.11,1,.3.83,1h-2.8A3.39,3.39,0,0,1,138.1,513.1Z" fill="#fc8c00"/>
            <path id="Trazado_117304" data-name="Trazado 117304" d="M127.72,486.07c1.07,1.37,3.41,1.63,3.87,1.67h.07a13.319,13.319,0,0,1,3.71,1.7c3.82,2.54,4.47,6.21,3.26,7.12a30.841,30.841,0,0,0-3.49,3,33.185,33.185,0,0,0-3.21,3.41c-1.55,1.89-5.15,1.13-10.34-.27-1.78-.49-3.78-1.06-5.94-1.63l-.34-.11c-3.37-.91-9.8-1.21-16.69-1.44-10.68-.34-22.41-.53-25.7-2.54-5.41-3.25,0-18.77,0-18.77,4-1.32,16.54-4.62,22.14,2.27l-1.63,2.08c1.71.12,3.52.31,5.34.61,1.14.19,2.31.42,3.44.72,4.66,1.13,7.31,2.12,9.2,2.72a8.26,8.26,0,0,0,6,.16c4.54-1.44,6.81-3.18,11.92-1.94l1,.23a8.692,8.692,0,0,0-.54.95,2.73,2.73,0,0,0-2.07.06Z" fill="#f6b961"/>
            <path id="Trazado_117305" data-name="Trazado 117305" d="M130.75,484.45a3,3,0,0,0-.37.6l-1-.23c-5.11-1.24-7.38.5-11.92,1.94a8.26,8.26,0,0,1-6-.16l-.6-14.87h17.26C123.41,476,125,479.83,130.75,484.45Z" fill="#f25585"/>
            <path id="Trazado_117306" data-name="Trazado 117306" d="M128.79,410.37v4.54h-4.55V392.05h4.55v18.32Z" fill="#e57900"/>
            <path id="Trazado_117307" data-name="Trazado 117307" d="M124.24,410.37v4.54H109.29v-4.54h14.95Z" fill="#e57900"/>
            <path id="Trazado_117308" data-name="Trazado 117308" d="M124.24,394.47v15.9H110.58v-.11a16,16,0,0,1,13.66-15.79Z" fill="#ff9500"/>
            <path id="Trazado_117309" data-name="Trazado 117309" d="M121.59,502.69l-8.51,11a2.87,2.87,0,0,1-2.27,1.1,2.74,2.74,0,0,1-1.74-.61,2.88,2.88,0,0,1-.5-4l7.08-9.09C117.81,501.63,119.81,502.2,121.59,502.69Z" fill="#472ea6"/>
            <path id="Trazado_117310" data-name="Trazado 117310" d="M118.91,650.99v1.55H77.95V640.05h40.96Z" fill="#fd8f25"/>
            <path id="Trazado_117311" data-name="Trazado 117311" d="M79.01,608.56h39.9v12.53H77.95V608.56Z" fill="#fd8f25"/>
            <path id="Trazado_117312" data-name="Trazado 117312" d="M118.91,577.45v12.53H77.95V577.45h40.96Z" fill="#fd8f25"/>
            <path id="Trazado_117313" data-name="Trazado 117313" d="M118.91,545.76v12.5H77.95v-12.5h40.96Z" fill="#fda551"/>
            <path id="Trazado_117314" data-name="Trazado 117314" d="M112.47,425.17h0c-3-.53-4.12-7.42-2.53-10.26h2.42C112.32,418.58,112.32,422,112.47,425.17Z" fill="#f6b961"/>
            <path id="Trazado_117315" data-name="Trazado 117315" d="M99.22,444.63s-.15,13.66-.38,29.94l-1.74,2.65c-6.28-6.17-16-5.76-20.21-5.19C84.12,454.85,89.69,448.71,99.22,444.63Z" fill="#472ea6"/>
            <path id="Trazado_117316" data-name="Trazado 117316" d="M76.89,472c4.24-.57,13.93-1,20.21,5.19l-2,3.25c-5.6-6.89-18.13-3.59-22.14-2.27a11.429,11.429,0,0,0-1.29.42c3.14-4.66,3.14-6.25,3.14-6.25a19.825,19.825,0,0,1,2.08-.34Z" fill="#9182ca"/>
            <path id="Trazado_117317" data-name="Trazado 117317" d="M96.27,624.35v12.52H55.32V624.35H96.27Z" fill="#fd8f25"/>
            <path id="Trazado_117318" data-name="Trazado 117318" d="M96.27,593.27v12.49H55.32V593.27H96.27Z" fill="#fd8f25"/>
            <path id="Trazado_117319" data-name="Trazado 117319" d="M96.27,561.55v12.49H55.32V561.55H96.27Z" fill="#fd8f25"/>
            <path id="Trazado_117320" data-name="Trazado 117320" d="M96.27,530.06v12.53H55.32V530.06H96.27Z" fill="#fd8f25"/>
          </g>
          <path id="Trazado_117321" data-name="Trazado 117321" d="M98.64,480.9a51.623,51.623,0,0,1,8,1.67c2,.63,4.15,1.39,5.94,2a6.179,6.179,0,0,0,2.22.48,13.339,13.339,0,0,0,2.61-.42,35.918,35.918,0,0,1,6.35-1.29,12.68,12.68,0,0,1,6.46,1.63l-.06.28a13.77,13.77,0,0,0-6.14-.43,44.91,44.91,0,0,0-5.92,1.93,9,9,0,0,1-6.26.39c-2-.61-4-1.3-6-1.86a65.066,65.066,0,0,0-7.13-1.76Z" fill="#f25585"/>
          <path id="Trazado_117322" data-name="Trazado 117322" d="M128.66,394.46a15.79,15.79,0,0,1,13.75,16h-.19a35.419,35.419,0,0,0-2.13-5.15,23.911,23.911,0,0,0-6.69-7.78,18.724,18.724,0,0,0-2.26-1.48c-.73-.51-1.63-.89-2.52-1.4Z" fill="#ff7900"/>
          <path id="Trazado_117323" data-name="Trazado 117323" d="M110.32,410.46a15.79,15.79,0,0,1,13.75-16v.19a32.906,32.906,0,0,0-4.77,2.87,24.08,24.08,0,0,0-6.69,7.79,34.508,34.508,0,0,0-2.13,5.15Z" fill="#ffb600"/>
          <path id="Trazado_117324" data-name="Trazado 117324" d="M139.72,432.7a15.83,15.83,0,0,1-.82,5.08,11,11,0,0,1-1.31,2.39,23.12,23.12,0,0,1-1.58,2c-2.19,2.54-5.27,5.09-9.39,5.36-4.15,0-7.38-2.53-9.6-5.05a19.061,19.061,0,0,1-3-4.33,14.58,14.58,0,0,1-1-5.06h.19a17.1,17.1,0,0,0,1.65,4.62,17.489,17.489,0,0,0,3.13,3.76c2.32,2.24,5.21,4.33,8.52,4.21s6.11-2.23,8.4-4.51a15.11,15.11,0,0,0,3-3.83,19,19,0,0,0,1.54-4.67Z" fill="#c68230"/>
          <path id="Trazado_117325" data-name="Trazado 117325" d="M110.6,436.65A18,18,0,0,0,113,433l.36.15a15.56,15.56,0,0,1-2.28,5.6Z" fill="#ffcd91"/>
          <path id="Trazado_117326" data-name="Trazado 117326" d="M111.08,438.77a22.761,22.761,0,0,1-6.31,6.29l-.5.34-.38-3.27a25,25,0,0,0,6.71-5.48Z" fill="#5e5e5e"/>
          <path id="Trazado_117327" data-name="Trazado 117327" d="M104.27,445.4a21.76,21.76,0,0,1-2.78,1.57c-.91.44-1.69.84-2.46,1.28l.06-3.88a39.515,39.515,0,0,0,4.24-1.92l.56-.32Z" fill="#f9aac2"/>
          <path id="Trazado_117328" data-name="Trazado 117328" d="M99,448.25c-.15.08-.3.16-.44.25a29.351,29.351,0,0,0-5.15,3.42c-3.21,2.48-5.84,5.82-8.5,9.39s-5.15,7.48-8.16,11.22l-.35-.14a112.4,112.4,0,0,1,5.93-12.56A37.759,37.759,0,0,1,91.07,449a30.7,30.7,0,0,1,6-3.68c.68-.33,1.38-.63,2.07-.92Z" fill="#9182ca"/>
          <path id="Trazado_117329" data-name="Trazado 117329" d="M153.83,444.37a30.993,30.993,0,0,1,4.23,2.13c6.75,4.14,11.51,10.59,15.78,17l-.31.21c-3.27-2.46-6.06-5.15-8.87-7.59a58.54,58.54,0,0,0-8.57-6.4c-.75-.49-1.47-.91-2.23-1.31Z" fill="#9182ca"/>
          <path id="Trazado_117330" data-name="Trazado 117330" d="M154.54,448.42c-.75-.4-1.54-.78-2.43-1.19a30.281,30.281,0,0,1-2.8-1.55l.55-3.45c1.48.82,3.07,1.46,4.65,2.14Z" fill="#f57fa3"/>
          <path id="Trazado_117331" data-name="Trazado 117331" d="M148.63,445.68a18.326,18.326,0,0,1-2.6-1.89,20.849,20.849,0,0,1-4.24-4.7l.47-2.49a24.53,24.53,0,0,0,5.41,4.7,15.7,15.7,0,0,0,1.51.93Z" fill="#5e5e5e"/>
          <path id="Trazado_117332" data-name="Trazado 117332" d="M141.79,439.09a14.32,14.32,0,0,1-2.25-5.92l.35-.15a17.79,17.79,0,0,0,2.37,3.58Z" fill="#ffcd91"/>
          <path id="Trazado_117333" data-name="Trazado 117333" d="M124.12,448.11a3.48,3.48,0,0,0,4.48,0l.06.07a2.14,2.14,0,0,1-.84,1.22,2.91,2.91,0,0,1-1.46.48,3,3,0,0,1-1.46-.47,2.15,2.15,0,0,1-.84-1.23Z" fill="#c68230"/>
          <path id="Trazado_117334" data-name="Trazado 117334" d="M110.75,436.89a25.47,25.47,0,0,0,5.21,11.3c2.6,3.19,6.38,5.83,10.59,5.73a14.15,14.15,0,0,0,10.71-5.6,24.68,24.68,0,0,0,4.88-11.43h.18a21.6,21.6,0,0,1-3.92,12.33,15.43,15.43,0,0,1-11.79,6.56c-5.07,0-9.23-3.13-11.8-6.69a22.15,22.15,0,0,1-4.24-12.19Z" fill="#5e5e5e"/>
          <path id="Trazado_117335" data-name="Trazado 117335" d="M142.36,463.88c-5.67.79-11.35,1.12-17,1.38l-8.52.18c-2.83.12-5.67-.05-8.51-.08h-1.19l-.31-1.1a74.821,74.821,0,0,1-2.25-10.8,65.121,65.121,0,0,1-.77-11H104a135.68,135.68,0,0,0,4.49,21.29l-.16-.12,34.05.07Z" fill="#f25585"/>
          <path id="Trazado_117336" data-name="Trazado 117336" d="M149.06,442.47a33.819,33.819,0,0,1-.12,5.23c-.15,1.73-.49,3.44-.77,5.15a32.267,32.267,0,0,1-1.33,5,34.391,34.391,0,0,1-1.91,4.87h-.09A151.063,151.063,0,0,0,149,442.45Z" fill="#f9aac2"/>
          <path id="Trazado_117337" data-name="Trazado 117337" d="M129.34,504a3.37,3.37,0,0,0,2.51-1.3c.63-.77,1.3-1.53,2-2.25a43.619,43.619,0,0,1,4.55-3.93l.11.15a12.14,12.14,0,0,1-1.47,2.83c-.54.85-1.27,1.49-1.84,2.28-.79.61-1.37,1.26-2.24,1.88a5.191,5.191,0,0,1-1.78.87,3.06,3.06,0,0,1-1.81-.34Z" fill="#e57900"/>
          <path id="Trazado_117338" data-name="Trazado 117338" d="M129.34,504a3.29,3.29,0,0,0,2.09-1.79,22,22,0,0,1,1.84-2.61,20.131,20.131,0,0,1,2.11-2.4l1.19-1.1.63-.54.16-.13.08-.07h.05l-.19.16h0a1.829,1.829,0,0,0,.22-.25.31.31,0,0,0-.18.2.14.14,0,0,1,0-.09,2.6,2.6,0,0,0,0-.35,7.13,7.13,0,0,0-.27-1,6.35,6.35,0,0,0-1.32-2.08,15.561,15.561,0,0,0-4.54-3.18h.22a6.85,6.85,0,0,1-2.33-.9,3.77,3.77,0,0,1-1.67-1.77l.16-.11a5.5,5.5,0,0,0,3.91,1.68h0a13.069,13.069,0,0,1,5.42,3,8.21,8.21,0,0,1,1.83,2.56,3.5,3.5,0,0,1,.08,3.17c-1.62,1.36-3.19,2.64-4.64,4.12-.73.72-1.44,1.47-2.11,2.25a3.68,3.68,0,0,1-2.74,1.4Z" fill="#c68230"/>
          <path id="Trazado_117339" data-name="Trazado 117339" d="M100,499.67q-.09,3.29-.24,6.58l-.54,10.24-.82,10.25h-.19q0-13.57.11-27.13Z" fill="#ef2a66"/>
          <path id="Trazado_117340" data-name="Trazado 117340" d="M98.44,483.24q.23-19.26.54-38.52h.18L99.82,455l.33,10.26c.17,6.12.1,12.23.13,18.34Z" fill="#f9aac2"/>
          <path id="Trazado_117341" data-name="Trazado 117341" d="M153.91,444.72v26.46c0,8.81-.11,17.63,0,26.45h-.19a123.222,123.222,0,0,1-1.33-13.23c-.27-4.41-.24-8.82-.37-13.23.14-4.41.14-8.82.41-13.22s.6-8.82,1.29-13.23Z" fill="#f25585"/>
          <path id="Trazado_117342" data-name="Trazado 117342" d="M149,461.18l-8.84,4.28a79.28,79.28,0,0,0-8.53,4.61c-2.62,1.65-5.5,3.76-5.78,6.62a6.43,6.43,0,0,0,1.52,4.15,23.464,23.464,0,0,0,3.22,3.64l-.06.07a24.29,24.29,0,0,1-3.55-3.4,7.06,7.06,0,0,1-1.87-4.48,6.63,6.63,0,0,1,2.15-4.35,21,21,0,0,1,3.86-3c5.61-3.44,11.75-5.83,17.85-8.19Z" fill="#aaa"/>
          <path id="Trazado_117343" data-name="Trazado 117343" d="M132.41,485.87a22.67,22.67,0,0,0,4.43,1.72,5.92,5.92,0,0,0,4.3-.16c2.52-1.34,3.71-4.53,4.53-7.47a70,70,0,0,0,1.92-9.3l1.38-9.53h.09c-.35,6.4-.8,12.85-2.48,19.08-.93,3-2.1,6.4-5.14,7.88a6.49,6.49,0,0,1-4.75,0,22.52,22.52,0,0,1-4.33-2.11Z" fill="#666566"/>
          <path id="Trazado_117344" data-name="Trazado 117344" d="M140.66,415c0,6.28.22,12.63-1.15,18.83a15.819,15.819,0,0,1-1.73,4.42,20.78,20.78,0,0,1-3.08,3.6c-2.24,2.15-5,4.19-8.34,4.2s-6.1-2.05-8.34-4.2a20.421,20.421,0,0,1-3.08-3.6,15.82,15.82,0,0,1-1.73-4.42c-1.37-6.2-1.1-12.55-1.15-18.83h.19c.26,3.15.52,6.3.89,9.41a48.52,48.52,0,0,0,1.49,9.07,17.83,17.83,0,0,0,1.67,3.87,19.641,19.641,0,0,0,2.92,3.26c2.15,2,4.65,3.63,7.14,3.55s5-1.53,7.14-3.55a19.769,19.769,0,0,0,2.89-3.22,17.289,17.289,0,0,0,1.69-3.91,47.707,47.707,0,0,0,1.49-9.07c.38-3.11.64-6.26.9-9.41Z" fill="#ffdaae"/>
          <path id="Trazado_117345" data-name="Trazado 117345" d="M143.59,415.16a55.661,55.661,0,0,1-17.23,2.41,56.66,56.66,0,0,1-17.23-2.41v-.29l17.23-.14,17.23.14Z" fill="#f6b961"/>
          <path id="Trazado_117346" data-name="Trazado 117346" d="M72.9,478.33a63.229,63.229,0,0,0-1,9.48,19.87,19.87,0,0,0,.22,4.47,4.29,4.29,0,0,0,1.5,2.93s.24.14.17.08l.54.23.8.17c.65.15,1.38.29,2.12.4,1.49.21,3,.34,4.61.43,3.13.19,6.32.25,9.52.3,6.39.46,12.83.47,19.36,1.5a34.681,34.681,0,0,1,5,1.16l4.57,1.62a39.831,39.831,0,0,0,9.06,2.9v.28c-6.57,0-12.47-3.36-18.86-3.77-6.39-.59-12.82-.62-19.25-.85-3.21-.13-6.42-.28-9.63-.56-1.6-.14-3.21-.32-4.8-.59a11.07,11.07,0,0,1-4.62-1.58,6.54,6.54,0,0,1-1.95-4.45,21.24,21.24,0,0,1,.14-4.85,50.611,50.611,0,0,1,2.23-9.4Z" fill="#ffcd91"/>
          <path id="Trazado_117347" data-name="Trazado 117347" d="M81.14,482.75a65.669,65.669,0,0,1,12.54-.23A57.37,57.37,0,0,1,106,484.84c4,1,8,3.58,12,1.6a44.734,44.734,0,0,1,6-1.9,14.32,14.32,0,0,1,6.24.5v.18a14.7,14.7,0,0,0-6,.31,48.7,48.7,0,0,0-5.71,2.3,11.08,11.08,0,0,1-3.32,1,9.82,9.82,0,0,1-3.65-.38c-2.13-.6-4-1.23-6-1.75a65.092,65.092,0,0,0-12-2.7c-4.06-.57-8.19-.86-12.4-1.05Z" fill="#ffcd91"/>
          <path id="Trazado_117348" data-name="Trazado 117348" d="M144.43,521a28.31,28.31,0,0,0,4.11-4.34c1.26-1.58,2.61-3.12,3.93-4.61a55.671,55.671,0,0,0,3.63-4.67c1.14-1.6,2.36-3.2,3.37-4.78l.28-.43.57-.32a40.441,40.441,0,0,0,8.41-6.86c2.74-2.55,5.31-5.35,7.85-8.23a42.651,42.651,0,0,1,4.16-4.38c.72.42.5-1.76,0-3.43a49.2,49.2,0,0,0-1.85-5.26c-.8-1.77-1.62-3.54-2.34-5.36l.24-.16c2,3.29,4.26,6.5,5.58,10.2a14.31,14.31,0,0,1,.75,2.84,4.26,4.26,0,0,1,0,1.51,2.05,2.05,0,0,1-.89,1.25c-1.31,1.36-2.5,2.92-3.75,4.39a111.59,111.59,0,0,1-7.77,8.64,40.149,40.149,0,0,1-9.24,7.09l.09-.07a74,74,0,0,1-7.84,9.29l-4.4,4.19c-1.51,1.33-2.89,2.87-4.78,3.77Z" fill="#ffcd91"/>
          <path id="Trazado_117349" data-name="Trazado 117349" d="M164,482.18c-2.2,3.95-4.61,7.78-7.17,11.51-1.29,1.86-2.63,3.69-4,5.47a26.309,26.309,0,0,1-4.62,5,67.56,67.56,0,0,1-5.68,3.72,35.5,35.5,0,0,1-6,3.29c-5,.32-6,7.76-2.73,10.13l.07.18c-.78.2-1.17-.53-1.55-.94a7.329,7.329,0,0,1-.8-1.61,8.31,8.31,0,0,1-.49-3.67,6.63,6.63,0,0,1,1.64-3.62,10.851,10.851,0,0,1,3.33-1.86,50.112,50.112,0,0,0,5.57-3.37,64.859,64.859,0,0,0,5.44-3.74,12.468,12.468,0,0,0,2.25-2l2.17-2.53,4.16-5.24c2.76-3.53,5.43-7.16,8.22-10.76Z" fill="#ffcd91"/>
        </g>
      </g>
    </g>
  </g>
</svg>
