<svg xmlns="http://www.w3.org/2000/svg" width="295" height="362.174" viewBox="0 0 295 362.174">
  <g id="Grupo_54995" data-name="Grupo 54995" transform="translate(-976 -7770.826)">
    <g id="Grupo_54595" data-name="Grupo 54595" transform="translate(-378.318 7909.792)">
      <g id="Grupo_54222" data-name="Grupo 54222" transform="translate(369 -303.676)">
        <path id="Trazado_101975" data-name="Trazado 101975" d="M985.318,164.711V428.952a463.853,463.853,0,0,0,72.845,11.054c123.357,8.465,222.155-8.3,222.155-8.3v-267Z" fill="#c0b6db"/>
        <path id="Trazado_101976" data-name="Trazado 101976" d="M985.318,164.711V418.952a463.853,463.853,0,0,0,72.845,11.054c123.357,8.465,222.155-8.3,222.155-8.3v-257Z" fill="#f1eefd"/>
      </g>
    </g>
    <g id="CF1_subsectores_copia_2" data-name="CF1_subsectores copia 2" transform="translate(1060 7983.417)">
      <circle id="Elipse_4318" data-name="Elipse 4318" cx="75" cy="75" r="75" transform="translate(0 -0.417)" fill="#ffd4e1"/>
      <path id="Trazado_108782" data-name="Trazado 108782" d="M13.625,45.18h26.4a1.87,1.87,0,0,1,1.885,1.885V62.158a1.885,1.885,0,0,1-1.885,1.885h-26.4a1.9,1.9,0,0,1-1.885-1.885V47.065A1.885,1.885,0,0,1,13.625,45.18Z" transform="translate(5.821 22.402)" fill="#be6b1c"/>
      <path id="Trazado_108783" data-name="Trazado 108783" d="M47.138,45.18H33.81a1.885,1.885,0,0,0-1.9,1.885V62.158a1.9,1.9,0,0,0,1.9,1.885h26.4a1.9,1.9,0,0,0,1.9-1.885V49.638Z" transform="translate(15.822 22.402)" fill="#fd8f25"/>
      <path id="Trazado_108784" data-name="Trazado 108784" d="M73.087,45.18h7.285a1.885,1.885,0,0,1,1.885,1.885V62.158a1.9,1.9,0,0,1-1.885,1.885H53.985A1.885,1.885,0,0,1,52.1,62.158V49.638Z" transform="translate(25.833 22.402)" fill="#be6b1c"/>
      <path id="Trazado_108785" data-name="Trazado 108785" d="M23.72,57.79h26.4a1.87,1.87,0,0,1,1.885,1.885V74.768a1.87,1.87,0,0,1-1.885,1.885H23.72a1.885,1.885,0,0,1-1.9-1.885V59.675a1.885,1.885,0,0,1,1.9-1.885Z" transform="translate(10.819 28.654)" fill="#f25585"/>
      <path id="Trazado_108786" data-name="Trazado 108786" d="M43.9,57.79H70.3a1.885,1.885,0,0,1,1.9,1.885V74.768a1.885,1.885,0,0,1-1.9,1.885H43.9A1.885,1.885,0,0,1,42,74.768V59.675a1.885,1.885,0,0,1,1.9-1.885Z" transform="translate(20.825 28.654)" fill="#781533"/>
      <path id="Trazado_108787" data-name="Trazado 108787" d="M64.075,57.79H90.491a1.885,1.885,0,0,1,1.885,1.885V74.768a1.885,1.885,0,0,1-1.885,1.885H64.075a1.87,1.87,0,0,1-1.885-1.885V59.675a1.87,1.87,0,0,1,1.885-1.885Z" transform="translate(30.836 28.654)" fill="#f25585"/>
      <path id="Trazado_108788" data-name="Trazado 108788" d="M13.625,70.4h26.4a1.885,1.885,0,0,1,1.885,1.885V87.378a1.885,1.885,0,0,1-1.885,1.87h-26.4a1.9,1.9,0,0,1-1.885-1.9V72.285A1.9,1.9,0,0,1,13.625,70.4Z" transform="translate(5.821 34.907)" fill="#be6b1c"/>
      <path id="Trazado_108789" data-name="Trazado 108789" d="M33.81,70.4h26.4a1.9,1.9,0,0,1,1.9,1.885V87.378a1.9,1.9,0,0,1-1.9,1.87H33.81a1.9,1.9,0,0,1-1.9-1.9V72.285A1.9,1.9,0,0,1,33.81,70.4Z" transform="translate(15.822 34.907)" fill="#fd8f25"/>
      <path id="Trazado_108790" data-name="Trazado 108790" d="M53.985,70.4H80.371a1.9,1.9,0,0,1,1.885,1.885V87.378a1.9,1.9,0,0,1-1.885,1.87H53.985a1.885,1.885,0,0,1-1.885-1.9V72.285A1.885,1.885,0,0,1,53.985,70.4Z" transform="translate(25.833 34.907)" fill="#be6b1c"/>
      <path id="Trazado_108791" data-name="Trazado 108791" d="M80.944,55.009l-37.4,7.973a2.543,2.543,0,0,1-2.737-3.65L58.9,25.631a2.408,2.408,0,0,1,4.054-.194L82.276,51.18a2.423,2.423,0,0,1,.389,2.289,2.363,2.363,0,0,1-1.72,1.541Z" transform="translate(20.099 12.109)" fill="#f0f0f1"/>
      <path id="Trazado_108792" data-name="Trazado 108792" d="M56.4,49.642a1.885,1.885,0,0,1-1.152-3.4L70.015,35.237a2.737,2.737,0,0,0,1.092-2.348l-.194-3.4a6.537,6.537,0,0,1,2.6-5.594l5.445-4.084a1.885,1.885,0,0,1,2.274,3.007l-5.445,4.039A2.752,2.752,0,0,0,74.7,29.254l.194,3.4a6.522,6.522,0,0,1-2.618,5.579L57.525,49.283a1.8,1.8,0,0,1-1.122.359Z" transform="translate(27.019 9.638)" fill="#95a5a5"/>
      <path id="Trazado_108793" data-name="Trazado 108793" d="M71,21.13,85.06,10.659a3.77,3.77,0,0,1,5.28.763l1.047,1.391a3.769,3.769,0,0,1-.748,5.28L76.578,28.564a1.87,1.87,0,0,1-2.633-.374l-3.321-4.413A1.9,1.9,0,0,1,71,21.13Z" transform="translate(34.831 4.912)" fill="#fd8f25"/>
      <path id="Trazado_108794" data-name="Trazado 108794" d="M19.284,50.825A1.885,1.885,0,0,1,17.4,52.71H11.73V49H17.4a1.885,1.885,0,0,1,1.885,1.825Z" transform="translate(5.816 24.296)" fill="#fb7b76"/>
      <path id="Trazado_108795" data-name="Trazado 108795" d="M28.739,52.729H21.185a1.885,1.885,0,1,1,0-3.769h7.554a1.885,1.885,0,1,1,0,3.77Z" transform="translate(9.57 24.276)" fill="#fb7b76"/>
    </g>
  </g>
</svg>
