<svg xmlns="http://www.w3.org/2000/svg" xmlns:xlink="http://www.w3.org/1999/xlink" width="216" height="216" viewBox="0 0 216 216">
  <defs>
    <linearGradient id="linear-gradient" x1="0.478" y1="0.454" x2="0.258" y2="-0.012" gradientUnits="objectBoundingBox">
      <stop offset="0" stop-color="#6c58b8"/>
      <stop offset="1" stop-color="#f25585"/>
    </linearGradient>
    <linearGradient id="linear-gradient-2" y1="0.5" x2="1" y2="0.5" gradientUnits="objectBoundingBox">
      <stop offset="0" stop-color="#b37cff"/>
      <stop offset="1" stop-color="#f895e7"/>
    </linearGradient>
    <linearGradient id="linear-gradient-3" x1="0.388" y1="0.416" x2="1.046" y2="1.222" gradientUnits="objectBoundingBox">
      <stop offset="0" stop-color="#2b3582"/>
      <stop offset="1" stop-color="#150e42"/>
    </linearGradient>
    <linearGradient id="linear-gradient-4" x1="0.48" y1="0.742" x2="0.744" y2="-0.5" gradientUnits="objectBoundingBox">
      <stop offset="0" stop-color="#53d8ff"/>
      <stop offset="1" stop-color="#3840f7"/>
    </linearGradient>
    <linearGradient id="linear-gradient-5" x1="0.336" y1="0.259" x2="1.697" y2="1.988" xlink:href="#linear-gradient-3"/>
    <linearGradient id="linear-gradient-6" x1="0.535" y1="0.272" x2="1.319" y2="-4.141" xlink:href="#linear-gradient-3"/>
    <linearGradient id="linear-gradient-7" x1="1.055" y1="-4.481" x2="2.071" y2="-13.267" xlink:href="#linear-gradient-3"/>
    <linearGradient id="linear-gradient-8" x1="1.027" y1="0.224" x2="0.336" y2="0.657" xlink:href="#linear-gradient-4"/>
    <linearGradient id="linear-gradient-9" x1="0.72" y1="0.213" x2="0.269" y2="0.9" gradientUnits="objectBoundingBox">
      <stop offset="0" stop-color="#f9b776"/>
      <stop offset="1" stop-color="#f47960"/>
    </linearGradient>
    <linearGradient id="linear-gradient-10" x1="0.967" y1="0.057" x2="-1.086" y2="2.133" gradientUnits="objectBoundingBox">
      <stop offset="0" stop-color="#fdf53f"/>
      <stop offset="1" stop-color="#d93c65"/>
    </linearGradient>
    <linearGradient id="linear-gradient-11" x1="0.461" y1="0.791" x2="1.158" y2="-1.38" xlink:href="#linear-gradient-9"/>
    <linearGradient id="linear-gradient-12" x1="0.442" y1="1.061" x2="0.554" y2="0.101" xlink:href="#linear-gradient-9"/>
    <linearGradient id="linear-gradient-13" x1="0.62" y1="0.82" x2="0.309" y2="-0.113" xlink:href="#linear-gradient-9"/>
    <linearGradient id="linear-gradient-14" x1="0.39" y1="-0.469" x2="0.567" y2="0.954" xlink:href="#linear-gradient-3"/>
    <linearGradient id="linear-gradient-15" x1="1.289" y1="2.041" x2="-0.188" y2="-0.902" xlink:href="#linear-gradient-9"/>
    <linearGradient id="linear-gradient-16" x1="0" y1="0.501" x2="1" y2="0.501" xlink:href="#linear-gradient-3"/>
    <linearGradient id="linear-gradient-17" x1="1.016" y1="-0.578" x2="0.278" y2="0.973" xlink:href="#linear-gradient-3"/>
    <linearGradient id="linear-gradient-18" x1="7.297" y1="-1.741" x2="-4.87" y2="2.275" xlink:href="#linear-gradient-10"/>
    <linearGradient id="linear-gradient-19" x1="3.259" y1="-2.534" x2="-0.574" y2="1.673" xlink:href="#linear-gradient-10"/>
    <linearGradient id="linear-gradient-20" x1="2.507" y1="-3.158" x2="0.372" y2="0.672" xlink:href="#linear-gradient-10"/>
    <linearGradient id="linear-gradient-21" x1="0.504" y1="0.262" x2="0.394" y2="1.808" xlink:href="#linear-gradient-4"/>
    <linearGradient id="linear-gradient-22" x1="294.968" y1="-226.088" x2="294.618" y2="-227.099" xlink:href="#linear-gradient"/>
    <linearGradient id="linear-gradient-23" x1="4766.588" y1="0.954" x2="4768.77" y2="-0.303" gradientUnits="objectBoundingBox">
      <stop offset="0" stop-color="#cb236d"/>
      <stop offset="1" stop-color="#4c246d"/>
    </linearGradient>
    <linearGradient id="linear-gradient-24" x1="543.881" y1="0.084" x2="544.13" y2="-21.189" xlink:href="#linear-gradient-23"/>
    <linearGradient id="linear-gradient-25" x1="408.081" y1="4.04" x2="408.279" y2="-0.316" xlink:href="#linear-gradient-10"/>
    <linearGradient id="linear-gradient-26" x1="1176.655" y1="189.526" x2="1176.254" y2="190.643" xlink:href="#linear-gradient-3"/>
    <linearGradient id="linear-gradient-27" x1="3242.341" y1="298.949" x2="3243.448" y2="298.949" xlink:href="#linear-gradient-9"/>
    <linearGradient id="linear-gradient-28" x1="469.172" y1="52.037" x2="469.864" y2="51.126" gradientUnits="objectBoundingBox">
      <stop offset="0" stop-color="#2b3582"/>
      <stop offset="0.23" stop-color="#252a70"/>
      <stop offset="0.73" stop-color="#19164f"/>
      <stop offset="1" stop-color="#150e42"/>
    </linearGradient>
    <linearGradient id="linear-gradient-29" x1="1028.393" y1="256.953" x2="1027.147" y2="260.43" xlink:href="#linear-gradient-3"/>
    <linearGradient id="linear-gradient-30" x1="1000.41" y1="420.864" x2="1001.335" y2="420.864" xlink:href="#linear-gradient-4"/>
    <linearGradient id="linear-gradient-31" x1="2775.423" y1="318.886" x2="2776.321" y2="318.886" xlink:href="#linear-gradient-9"/>
    <linearGradient id="linear-gradient-32" x1="378.689" y1="42.144" x2="378.72" y2="41.166" xlink:href="#linear-gradient-3"/>
    <linearGradient id="linear-gradient-33" x1="830.977" y1="86.52" x2="831.601" y2="85.962" xlink:href="#linear-gradient-23"/>
    <linearGradient id="linear-gradient-34" x1="874.451" y1="156.365" x2="875.447" y2="156.365" xlink:href="#linear-gradient-9"/>
    <linearGradient id="linear-gradient-35" x1="0.216" y1="-0.139" x2="1.182" y2="1.275" xlink:href="#linear-gradient-23"/>
    <linearGradient id="linear-gradient-36" x1="1480.342" y1="144.815" x2="1481.461" y2="144.815" xlink:href="#linear-gradient-9"/>
    <linearGradient id="linear-gradient-37" x1="-0.327" y1="-0.483" x2="1.3" y2="1.466" xlink:href="#linear-gradient-23"/>
    <linearGradient id="linear-gradient-38" x1="469.715" y1="-78.669" x2="468.474" y2="-71.853" xlink:href="#linear-gradient-9"/>
    <linearGradient id="linear-gradient-39" x1="1026.992" y1="-159.556" x2="1025.594" y2="-158.22" xlink:href="#linear-gradient-9"/>
    <linearGradient id="linear-gradient-40" x1="701.086" y1="-228.272" x2="702.091" y2="-228.272" xlink:href="#linear-gradient-3"/>
    <linearGradient id="linear-gradient-41" x1="3399.367" y1="-506.598" x2="3402.643" y2="-508.932" xlink:href="#linear-gradient-9"/>
    <linearGradient id="linear-gradient-42" x1="478.033" y1="210.442" x2="477.288" y2="212.907" xlink:href="#linear-gradient-3"/>
    <linearGradient id="linear-gradient-43" x1="360.372" y1="0.133" x2="359.974" y2="0.799" xlink:href="#linear-gradient-3"/>
    <linearGradient id="linear-gradient-44" x1="531.89" y1="0.5" x2="532.889" y2="0.5" gradientUnits="objectBoundingBox">
      <stop offset="0" stop-color="#9cfffb"/>
      <stop offset="1" stop-color="#9bfffa"/>
    </linearGradient>
    <linearGradient id="linear-gradient-45" x1="531.984" y1="0.5" x2="532.983" y2="0.5" xlink:href="#linear-gradient-44"/>
    <linearGradient id="linear-gradient-46" x1="532.032" y1="0.5" x2="533.036" y2="0.5" xlink:href="#linear-gradient-44"/>
    <linearGradient id="linear-gradient-47" x1="531.888" y1="0.5" x2="532.887" y2="0.5" xlink:href="#linear-gradient-44"/>
    <linearGradient id="linear-gradient-48" x1="125.399" y1="0.5" x2="126.398" y2="0.5" xlink:href="#linear-gradient-44"/>
    <linearGradient id="linear-gradient-49" x1="2332.352" y1="-227.318" x2="2325.964" y2="-230.002" xlink:href="#linear-gradient-4"/>
    <linearGradient id="linear-gradient-50" x1="302.148" y1="-72.078" x2="301.2" y2="-73.778" xlink:href="#linear-gradient-4"/>
    <linearGradient id="linear-gradient-51" x1="357.807" y1="-195.98" x2="356.892" y2="-198.145" xlink:href="#linear-gradient-4"/>
    <linearGradient id="linear-gradient-52" x1="202.079" y1="-247.336" x2="205.245" y2="-248.363" xlink:href="#linear-gradient-4"/>
    <linearGradient id="linear-gradient-53" x1="244.528" y1="0.014" x2="244.103" y2="0.481" xlink:href="#linear-gradient-3"/>
    <linearGradient id="linear-gradient-54" x1="92.308" y1="-0.846" x2="91.964" y2="1.374" xlink:href="#linear-gradient-9"/>
    <linearGradient id="linear-gradient-55" x1="390.534" y1="-17.691" x2="390.364" y2="-20.795" xlink:href="#linear-gradient-23"/>
    <linearGradient id="linear-gradient-56" x1="205.863" y1="66.614" x2="206.051" y2="65.692" xlink:href="#linear-gradient-9"/>
    <linearGradient id="linear-gradient-57" x1="202.023" y1="228.037" x2="203.384" y2="229.111" xlink:href="#linear-gradient-9"/>
    <linearGradient id="linear-gradient-58" x1="189.982" y1="359.989" x2="188.322" y2="362.303" xlink:href="#linear-gradient-3"/>
    <linearGradient id="linear-gradient-59" x1="586.195" y1="754.635" x2="590.13" y2="758.196" xlink:href="#linear-gradient-9"/>
    <linearGradient id="linear-gradient-60" x1="315.258" y1="0.249" x2="316.658" y2="-0.887" xlink:href="#linear-gradient-9"/>
    <linearGradient id="linear-gradient-61" x1="764.443" y1="-3.412" x2="765.434" y2="-3.412" xlink:href="#linear-gradient-3"/>
    <linearGradient id="linear-gradient-62" x1="587.569" y1="-0.719" x2="583.684" y2="-0.389" xlink:href="#linear-gradient-9"/>
    <linearGradient id="linear-gradient-63" x1="642.058" y1="-4.085" x2="643.05" y2="-4.085" xlink:href="#linear-gradient-3"/>
    <linearGradient id="linear-gradient-64" x1="279.523" y1="-1.438" x2="278.492" y2="0.181" xlink:href="#linear-gradient-3"/>
    <linearGradient id="linear-gradient-65" x1="62.788" y1="0.499" x2="63.788" y2="0.499" xlink:href="#linear-gradient-9"/>
    <linearGradient id="linear-gradient-66" x1="148.379" y1="91.002" x2="147.964" y2="91.413" xlink:href="#linear-gradient-3"/>
    <linearGradient id="linear-gradient-67" x1="329.415" y1="-0.444" x2="328.764" y2="1.214" xlink:href="#linear-gradient-9"/>
    <linearGradient id="linear-gradient-68" x1="0.144" y1="-0.644" x2="1.216" y2="2.771" gradientUnits="objectBoundingBox">
      <stop offset="0" stop-color="#f25585"/>
      <stop offset="1" stop-color="#472ea6"/>
    </linearGradient>
    <linearGradient id="linear-gradient-69" x1="0.142" y1="-0.644" x2="1.214" y2="2.771" gradientUnits="objectBoundingBox">
      <stop offset="0" stop-color="#9182ca"/>
      <stop offset="1" stop-color="#472ea6"/>
    </linearGradient>
    <linearGradient id="linear-gradient-70" x1="0.143" y1="-0.644" x2="1.217" y2="2.771" xlink:href="#linear-gradient-69"/>
    <linearGradient id="linear-gradient-71" x1="0.143" y1="-0.645" x2="1.217" y2="2.776" gradientUnits="objectBoundingBox">
      <stop offset="0" stop-color="#9f5699"/>
      <stop offset="1" stop-color="#202278"/>
    </linearGradient>
    <linearGradient id="linear-gradient-72" x1="0.144" y1="-0.645" x2="1.217" y2="2.769" gradientUnits="objectBoundingBox">
      <stop offset="0" stop-color="#f9c200"/>
      <stop offset="1" stop-color="#9b1e5f"/>
    </linearGradient>
  </defs>
  <g id="Grupo_56915" data-name="Grupo 56915" transform="translate(-275 -6621)">
    <g id="CF1_icon" transform="translate(275.2 6621)">
      <g id="Layer_1" data-name="Layer 1">
        <rect id="Rectángulo_6914" data-name="Rectángulo 6914" width="216" height="216" transform="translate(-0.2)" fill="none"/>
        <ellipse id="Elipse_4586" data-name="Elipse 4586" cx="62.474" cy="67.435" rx="62.474" ry="67.435" transform="matrix(0.04, -1, 1, 0.04, 55.601, 176.658)" fill="url(#linear-gradient)"/>
        <ellipse id="Elipse_4587" data-name="Elipse 4587" cx="52.92" cy="49.99" rx="52.92" ry="49.99" transform="translate(69.343 62.957)" opacity="0.26" fill="url(#linear-gradient-2)"/>
        <g id="Grupo_56898" data-name="Grupo 56898" transform="translate(64.573 56.567)" opacity="0.68">
          <path id="Trazado_117510" data-name="Trazado 117510" d="M185.416,139.889q0,8.273-.634,16.524a165.354,165.354,0,0,1-2.088,16.409q-.72,4.075-1.742,8.093a78.417,78.417,0,0,1-2.441,7.92,37.438,37.438,0,0,1-3.6,7.466,14.925,14.925,0,0,1-2.729,3.182,7.92,7.92,0,0,1-1.786,1.152,5.508,5.508,0,0,1-2.1.49,5.278,5.278,0,0,1-2.11-.389,7.315,7.315,0,0,1-1.829-1.087,14.054,14.054,0,0,1-2.786-3.132,36,36,0,0,1-3.686-7.438,76.73,76.73,0,0,1-2.462-7.92q-1.03-4-1.764-8.086c-.986-5.429-1.67-10.908-2.124-16.4s-.684-11.009-.72-16.56c0-2.758.065-5.515.158-8.266s.259-5.508.468-8.258c.41-5.494,1.022-10.98,1.93-16.423.461-2.714.986-5.422,1.627-8.107a76.536,76.536,0,0,1,2.311-7.92,35.8,35.8,0,0,1,3.528-7.5,13.838,13.838,0,0,1,2.722-3.146,7.078,7.078,0,0,1,1.807-1.08,5.234,5.234,0,0,1,2.074-.367,5.558,5.558,0,0,1,2.045.482,7.877,7.877,0,0,1,1.786,1.109,15.12,15.12,0,0,1,2.779,3.089,37.108,37.108,0,0,1,3.816,7.351,75.541,75.541,0,0,1,2.6,7.862c.72,2.657,1.361,5.35,1.9,8.05a157.145,157.145,0,0,1,2.318,16.373C185.171,128.859,185.4,134.374,185.416,139.889Zm-.914,0c0-5.486-.194-10.98-.648-16.452a157.52,157.52,0,0,0-2.16-16.315c-.5-2.7-1.094-5.378-1.793-8.035a76.113,76.113,0,0,0-2.484-7.834,36.669,36.669,0,0,0-3.686-7.315,14.666,14.666,0,0,0-2.678-3.053,7.409,7.409,0,0,0-1.7-1.087,5.04,5.04,0,0,0-1.937-.475,4.809,4.809,0,0,0-1.958.367,6.718,6.718,0,0,0-1.714,1.058,13.349,13.349,0,0,0-2.614,3.1,35.863,35.863,0,0,0-3.4,7.445,79.246,79.246,0,0,0-2.16,7.92c-.6,2.671-1.094,5.378-1.519,8.086a212.261,212.261,0,0,0-2.16,32.839c0,5.486.166,10.98.569,16.452s1.037,10.937,1.98,16.337q.72,4.061,1.678,8.057a74.877,74.877,0,0,0,2.376,7.862,35.892,35.892,0,0,0,3.557,7.351,13.68,13.68,0,0,0,2.578,3.06,6.869,6.869,0,0,0,1.7,1.03,4.608,4.608,0,0,0,1.915.367,4.989,4.989,0,0,0,1.894-.468,7.149,7.149,0,0,0,1.656-1.087,14.472,14.472,0,0,0,2.6-3.089,36.884,36.884,0,0,0,3.506-7.38,76.573,76.573,0,0,0,2.347-7.87c.648-2.664,1.2-5.357,1.663-8.057.929-5.407,1.548-10.865,1.966-16.344S184.509,145.383,184.5,139.889Z" transform="translate(-106.803 -78.7)" fill="#fff"/>
          <path id="Trazado_117511" data-name="Trazado 117511" d="M201.009,139.754a80.638,80.638,0,0,1-2.88,21.053,67.681,67.681,0,0,1-8.82,19.3,51.214,51.214,0,0,1-15.012,14.9,40.154,40.154,0,0,1-9.641,4.414,36.2,36.2,0,0,1-21.017,0,39.6,39.6,0,0,1-9.67-4.406,51.027,51.027,0,0,1-15.041-14.89,67.8,67.8,0,0,1-8.849-19.31,75.721,75.721,0,0,1-2.16-10.433,83.407,83.407,0,0,1-.72-10.634,81.919,81.919,0,0,1,.72-10.627,76.926,76.926,0,0,1,2.16-10.44,67.9,67.9,0,0,1,8.863-19.289,51.12,51.12,0,0,1,15.041-14.868,40.09,40.09,0,0,1,9.662-4.392,35.9,35.9,0,0,1,20.974,0,40.061,40.061,0,0,1,9.655,4.4,51.12,51.12,0,0,1,15.012,14.875,67.63,67.63,0,0,1,8.834,19.289,80.23,80.23,0,0,1,2.887,21.06Zm-1.051,0a79.487,79.487,0,0,0-2.722-20.794,67.542,67.542,0,0,0-8.51-19.159,54.518,54.518,0,0,0-6.559-8.2,45.416,45.416,0,0,0-8.15-6.667,38.952,38.952,0,0,0-9.526-4.406,34.949,34.949,0,0,0-20.736,0,39.2,39.2,0,0,0-9.518,4.414,45.928,45.928,0,0,0-8.107,6.674,54.4,54.4,0,0,0-6.545,8.208,67.183,67.183,0,0,0-8.482,19.145,77.134,77.134,0,0,0-2.009,10.31,80.151,80.151,0,0,0,0,20.952,77.036,77.036,0,0,0,2.045,10.3,67.046,67.046,0,0,0,8.5,19.152,54,54,0,0,0,6.545,8.2,46.079,46.079,0,0,0,8.1,6.66,39.758,39.758,0,0,0,9.49,4.378,34.7,34.7,0,0,0,20.707,0A39.506,39.506,0,0,0,174,194.525a45.821,45.821,0,0,0,8.114-6.646,54.886,54.886,0,0,0,6.581-8.2,67.147,67.147,0,0,0,8.518-19.138,78.913,78.913,0,0,0,2.722-20.786Z" transform="translate(-94.589 -78.565)" fill="#fff"/>
          <path id="Trazado_117512" data-name="Trazado 117512" d="M96.5,129.824l14.062-.122,14.054-.072h28.109l28.08.058,14.054.079,14.054.137a.049.049,0,0,1,.05.05.05.05,0,0,1-.05.043l-14.054.137-14.054.079-28.08.065H124.615l-14.054-.072-14.062-.13a.065.065,0,0,1-.065-.065.1.1,0,0,1,.065-.187Z" transform="translate(-91.556 -92.863)" fill="#fff"/>
          <path id="Trazado_117513" data-name="Trazado 117513" d="M119.175,97.118c3.326-.058,6.653-.086,9.979-.13l9.979-.072c3.326,0,6.653,0,9.979-.036h19.958c3.326,0,6.653,0,9.979.043l9.979.079c3.326.043,6.653.072,9.979.137a.043.043,0,0,1,.043.043.05.05,0,0,1-.043.05c-3.326.058-6.653.086-9.979.137l-9.979.079H149.112c-3.326,0-6.653,0-9.979-.043l-9.979-.072c-3.326,0-6.653-.065-9.979-.122a.072.072,0,0,1-.065-.072A.065.065,0,0,1,119.175,97.118Z" transform="translate(-97.924 -83.693)" fill="#fff"/>
          <path id="Trazado_117514" data-name="Trazado 117514" d="M89.746,162.5l15.278-.13L120.3,162.3l30.557-.058,30.55.065,15.278.079,15.278.137a.05.05,0,0,1,.043.05.043.043,0,0,1-.043.043l-15.278.137-15.278.079-30.55.065-30.557-.058-15.264-.05-15.278-.13a.08.08,0,0,1-.007-.158Z" transform="translate(-89.685 -101.994)" fill="#fff"/>
          <path id="Trazado_117515" data-name="Trazado 117515" d="M96.52,195.208l14.062-.13,14.054-.072c4.68,0,9.36,0,14.054-.036h14.054l28.08.065,14.054.079,14.054.137a.047.047,0,1,1,0,.094l-14.054.137-14.054.079-28.08.058H138.691c-4.687,0-9.36,0-14.054-.043l-14.054-.072L96.52,195.38a.072.072,0,0,1-.065-.072.065.065,0,0,1,.065-.1Z" transform="translate(-91.577 -111.159)" fill="#fff"/>
          <path id="Trazado_117516" data-name="Trazado 117516" d="M201.747,228.231H121.921a.245.245,0,0,1,0-.482h79.826a.245.245,0,1,1,0,.482Z" transform="translate(-98.654 -120.336)" fill="#fff"/>
        </g>
        <path id="Trazado_117517" data-name="Trazado 117517" d="M232.39,97.53s-1.606.079-1.8,3.384a19.044,19.044,0,0,0,8.748,4.154c.382.058-.526-2.578-.662-2.938C238.028,100.41,235.99,99.308,232.39,97.53Z" transform="translate(-64.565 -27.308)" fill="url(#linear-gradient-3)"/>
        <path id="Trazado_117518" data-name="Trazado 117518" d="M207.879,87.213h3.384s10.4-11.484,17.222-12.643c0,0,4.745,6.062-.252,17.388a1.656,1.656,0,0,1-2.354.778,1.317,1.317,0,0,1-.54-.648l.4-9.67s-8.87,7.762-10.411,9.259S205.921,92.26,207.879,87.213Z" transform="translate(-58.119 -20.88)" fill="url(#linear-gradient-4)"/>
        <path id="Trazado_117519" data-name="Trazado 117519" d="M250.34,124.438a12.787,12.787,0,0,0-6.948-3.038l-1.1.677a12.292,12.292,0,0,0,1.987,2.16,14,14,0,0,0,4.529,1.814C250.275,126.224,250.491,125.338,250.34,124.438Z" transform="translate(-67.841 -33.992)" fill="url(#linear-gradient-5)"/>
        <path id="Trazado_117520" data-name="Trazado 117520" d="M238.676,103.235c-.871.288-1.26,1.526-3.478.72a19.613,19.613,0,0,1-4.565-2.4c0,.158-.036.324-.043.5a19.03,19.03,0,0,0,8.957,4.529.5.5,0,0,0,.54-.677,12.514,12.514,0,0,0-1.411-2.671Z" transform="translate(-64.565 -28.434)" fill="url(#linear-gradient-6)"/>
        <path id="Trazado_117521" data-name="Trazado 117521" d="M252.225,126.6a12.522,12.522,0,0,0-1.073-1.066c.151.9-.065,1.786-1.534,1.591a14,14,0,0,1-4.529-1.814,9.814,9.814,0,0,0,6.588,2.527.72.72,0,0,0,.547-1.238Z" transform="translate(-68.625 -35.087)" fill="url(#linear-gradient-7)"/>
        <path id="Trazado_117522" data-name="Trazado 117522" d="M205.5,95.54l15.84.166s9.058,7.5,10.7,18.929c0,0,.274.842-1.361.986a31.464,31.464,0,0,1-9.05-9.9c-4.385-7.762-11.426-4.99-11.426-4.99-8.554,2.88-11.477-1.44-11.52-2.441Z" transform="translate(-55.63 -26.751)" fill="url(#linear-gradient-8)"/>
        <path id="Trazado_117523" data-name="Trazado 117523" d="M207.58,77.78s1.706,8.561,10.08,11.952l2.974-.353.72,1.116-6.984.223a19.109,19.109,0,0,1-9.137-8.806C205.118,81.7,203.376,78.1,207.58,77.78Z" transform="translate(-57.338 -21.778)" fill="url(#linear-gradient-9)"/>
        <path id="Trazado_117524" data-name="Trazado 117524" d="M202.861,87.23A45.641,45.641,0,0,1,200.5,76.819a23.762,23.762,0,0,1,2.311-1.75.634.634,0,0,0,.252-.828,48.867,48.867,0,0,0-4.9-6.739c-1.606-.4-8.2-3.535-12.845,2.815-1.994,2.729.4,11.117,9.439,19.807l.3.058a4.572,4.572,0,0,0,2.974-.432Z" transform="translate(-51.705 -18.585)" fill="url(#linear-gradient-10)"/>
        <path id="Trazado_117525" data-name="Trazado 117525" d="M198.423,82.49s5.4,6.386,12.3,7.322c0,0,1.786-1.627,3.11-1.044s3.146,3.139,3.146,3.139h-8.863s-8.374-.3-12.564-5.371C195.874,84.758,196.9,83.7,198.423,82.49Z" transform="translate(-54.754 -23.097)" fill="url(#linear-gradient-11)"/>
        <path id="Trazado_117526" data-name="Trazado 117526" d="M194.7,61.71l-1.181,3.938a.446.446,0,0,0,.166.482,4.4,4.4,0,0,0,4.1.41.641.641,0,0,0,.41-.547l.281-3.434Z" transform="translate(-54.182 -17.279)" fill="url(#linear-gradient-12)"/>
        <path id="Trazado_117527" data-name="Trazado 117527" d="M201.729,56.233s-.576,4.082-2.16,5.342-4.622.31-5.659-2.772l2.059-5.263Z" transform="translate(-54.295 -14.991)" fill="url(#linear-gradient-13)"/>
        <path id="Trazado_117528" data-name="Trazado 117528" d="M194.861,55.616a.194.194,0,0,0,.259-.158,5.343,5.343,0,0,1,.49-1.634s-.151-.533,1.354.274,3.758,2,5.09,1.3,2.606-4.169-.821-3.521a.2.2,0,0,1-.238-.216,2.081,2.081,0,0,0-1.346-2.3,1.9,1.9,0,0,0-2.2.5.2.2,0,0,1-.317,0,2.326,2.326,0,0,0-2.88-.871c-1.231.547-1.44,1.3-1.4,1.771a.2.2,0,0,1-.281.194,1.21,1.21,0,0,0-1.562.461c-.8,1,.346,1.872.684,2.1a.2.2,0,0,1,.094.166A6.877,6.877,0,0,0,193,57.762a.2.2,0,0,0,.338-.058l.878-2.1a.216.216,0,0,1,.252-.115Z" transform="translate(-53.403 -13.662)" fill="url(#linear-gradient-14)"/>
        <path id="Trazado_117529" data-name="Trazado 117529" d="M195.851,58.243s-.533-2.16-1.346-1.44.209,2.275,1.145,2.57Z" transform="translate(-54.378 -15.864)" fill="url(#linear-gradient-15)"/>
        <path id="Trazado_117530" data-name="Trazado 117530" d="M224.69,90.584l3.974-13.262a1.368,1.368,0,0,1,1.21-.965l5.371-.367a.763.763,0,0,1,.77,1.008l-4.45,12.679a1.116,1.116,0,0,1-.936.72l-5.292.583Z" transform="translate(-62.913 -21.277)" fill="url(#linear-gradient-16)"/>
        <path id="Trazado_117531" data-name="Trazado 117531" d="M221.01,96.205h0l-11.3-.6a.5.5,0,1,1,.05-1.008l11.275.569a.5.5,0,1,1,0,1.008Z" transform="translate(-58.586 -26.488)" fill="url(#linear-gradient-17)"/>
        <path id="Trazado_117532" data-name="Trazado 117532" d="M206.267,78.77h0a.1.1,0,0,1-.1-.1,24.148,24.148,0,0,0-.907-5.508.1.1,0,0,1,.065-.122.108.108,0,0,1,.13.065,24.409,24.409,0,0,1,.914,5.566.1.1,0,0,1-.1.1Z" transform="translate(-57.471 -20.45)" fill="url(#linear-gradient-18)"/>
        <path id="Trazado_117533" data-name="Trazado 117533" d="M198.209,80.508a.115.115,0,0,1-.079,0,28.461,28.461,0,0,1-3.334-5.321.094.094,0,0,1,.058-.13.1.1,0,0,1,.13.058,26.963,26.963,0,0,0,3.3,5.263.1.1,0,0,1,0,.144A.115.115,0,0,1,198.209,80.508Z" transform="translate(-54.541 -21.014)" fill="url(#linear-gradient-19)"/>
        <path id="Trazado_117534" data-name="Trazado 117534" d="M192.457,86.951l-.072-.036c-3.6-1.526-5.76-5.76-5.76-5.832a.1.1,0,0,1,.043-.137.108.108,0,0,1,.137.043c0,.043,2.16,4.183,5.616,5.71l.367-.511a.094.094,0,0,1,.137,0,.108.108,0,0,1,0,.144Z" transform="translate(-52.252 -22.662)" fill="url(#linear-gradient-20)"/>
        <path id="Trazado_117535" data-name="Trazado 117535" d="M104.367,173.38a10.282,10.282,0,0,1-10.03-9.432l-.95-11.88a10.08,10.08,0,0,1,2.592-7.618,9.2,9.2,0,0,1,6.818-2.988l92.765-.173a9.036,9.036,0,0,1,7.157,3.269,9.619,9.619,0,0,1,1.793,8.042l-2.542,12.456a11.981,11.981,0,0,1-11.52,9.238Z" transform="translate(-26.139 -39.56)" fill="url(#linear-gradient-21)"/>
        <path id="Trazado_117536" data-name="Trazado 117536" d="M196.464,144.65l-92.765.166a7.148,7.148,0,0,0-6.97,8l.95,11.887a7.92,7.92,0,0,0,7.646,7.2l86.011.922a9.533,9.533,0,0,0,9.209-7.308l2.534-12.456C204.017,148.5,201.065,144.636,196.464,144.65Z" transform="translate(-27.077 -40.502)" fill="#dad5ed"/>
        <path id="Trazado_117537" data-name="Trazado 117537" d="M128.368,155.585l-4.32,13.082h0a1.822,1.822,0,0,1-1.267,1.231h-.641a1.886,1.886,0,0,1-1.282-1.231l-2.693-8.244-2.7,8.244a1.814,1.814,0,0,1-1.26,1.231h-.634a1.829,1.829,0,0,1-1.282-1.231l-4.32-13.082h0a2.066,2.066,0,0,1-.1-.619,1.843,1.843,0,0,1,1.159-1.757,1.5,1.5,0,0,1,.526-.079,1.75,1.75,0,0,1,1.649,1.3c0,.036,1.483,4.5,2.7,8.208,1.217-3.708,2.678-8.172,2.678-8.208a1.886,1.886,0,0,1,1.044-1.181h.05a.079.079,0,0,1,.05,0h.446a.058.058,0,0,0,.05,0h.1a.18.18,0,0,0,.086,0h.223a1.85,1.85,0,0,1,1.044,1.181c0,.036,1.44,4.5,2.686,8.208,1.21-3.708,2.678-8.172,2.678-8.208a1.793,1.793,0,0,1,1.67-1.3,1.44,1.44,0,0,1,.518.079,1.843,1.843,0,0,1,1.166,1.757,2.067,2.067,0,0,1-.1.619Z" transform="translate(-30.203 -42.876)" fill="#fff"/>
        <path id="Trazado_117538" data-name="Trazado 117538" d="M158.316,155.585,154,168.667h0a1.822,1.822,0,0,1-1.267,1.231h-.677a1.886,1.886,0,0,1-1.282-1.231l-2.693-8.244-2.7,8.244a1.814,1.814,0,0,1-1.26,1.231h-.706a1.829,1.829,0,0,1-1.282-1.231l-4.32-13.082h0a2.067,2.067,0,0,1-.1-.619,1.843,1.843,0,0,1,1.166-1.757,1.44,1.44,0,0,1,.518-.079,1.764,1.764,0,0,1,1.656,1.3c0,.036,1.483,4.5,2.693,8.208,1.217-3.708,2.678-8.172,2.678-8.208a1.886,1.886,0,0,1,1.044-1.181h.086a.058.058,0,0,1,.05,0h.446a.058.058,0,0,0,.05,0h.1a.194.194,0,0,0,.086,0,.158.158,0,0,0,.072,0h.1a.058.058,0,0,0,.036,0h.05a1.85,1.85,0,0,1,1.044,1.181c0,.036,1.44,4.5,2.686,8.208,1.21-3.708,2.678-8.172,2.678-8.208a1.793,1.793,0,0,1,1.67-1.3,1.44,1.44,0,0,1,.518.079,1.843,1.843,0,0,1,1.166,1.757,2.067,2.067,0,0,1-.1.619Z" transform="translate(-38.559 -42.876)" fill="#fff"/>
        <path id="Trazado_117539" data-name="Trazado 117539" d="M188.32,155.585l-4.284,13.082h0a1.814,1.814,0,0,1-1.267,1.231h-.634a1.886,1.886,0,0,1-1.282-1.231l-2.844-8.244-2.7,8.244a1.814,1.814,0,0,1-1.26,1.231h-.634a1.829,1.829,0,0,1-1.282-1.231l-4.284-13.082h0a2.066,2.066,0,0,1-.1-.619,1.843,1.843,0,0,1,1.166-1.757,1.44,1.44,0,0,1,.518-.079,1.764,1.764,0,0,1,1.656,1.3c0,.036,1.483,4.5,2.693,8.208,1.217-3.708,2.678-8.172,2.678-8.208a1.886,1.886,0,0,1,1.044-1.181h.086a.058.058,0,0,1,.05,0h.446a.058.058,0,0,0,.05,0h.108a.158.158,0,0,0,.079,0h.223a1.879,1.879,0,0,1,1.051,1.181c0,.036,1.44,4.5,2.678,8.208,1.21-3.708,2.678-8.172,2.678-8.208a1.793,1.793,0,0,1,1.67-1.3,1.44,1.44,0,0,1,.518.079,1.843,1.843,0,0,1,1.166,1.757,2.066,2.066,0,0,1-.1.619Z" transform="translate(-46.97 -42.876)" fill="#fff"/>
        <path id="Trazado_117540" data-name="Trazado 117540" d="M202.12,168.75a.72.72,0,0,1-.72.72h0a.72.72,0,0,1-.72-.72V148.72a.72.72,0,0,1,.72-.72h0a.72.72,0,0,1,.72.72Z" transform="translate(-56.19 -41.44)" fill="#fff"/>
        <path id="Trazado_117541" data-name="Trazado 117541" d="M231.328,187.8l-10.8-13.169a.374.374,0,0,1-.065-.367.382.382,0,0,1,.274-.259l9.54-2.29a.994.994,0,0,0,.3-1.8L203.407,152.72a.994.994,0,0,0-1.512,1l5.659,34.157a.972.972,0,0,0,.792.806.994.994,0,0,0,1.037-.461l5.278-8.863a.389.389,0,0,1,.31-.187.374.374,0,0,1,.331.151l10.08,12.888a1.771,1.771,0,0,0,2.4.382l3.226-2.16a1.764,1.764,0,0,0,.763-1.217,1.786,1.786,0,0,0-.439-1.418Z" transform="translate(-56.527 -42.718)" fill="#fff"/>
        <path id="Trazado_117542" data-name="Trazado 117542" d="M86.924,215.294a19.44,19.44,0,0,1,1.159-12.91,13.716,13.716,0,0,0,.763-10.289c-.115-.353-.216-.72-.31-1.094-1.354-5.659,1.022-11.074,5.3-12.1s8.842,2.736,10.2,8.4a13.68,13.68,0,0,1,.382,3.406,13.774,13.774,0,0,0,3.514,9.554,20.217,20.217,0,0,1,4.608,8.914,18.92,18.92,0,0,1-1.836,14.134,13.4,13.4,0,0,0-1.764,4.586c-.5,2.7-2.16,4.853-4.6,5.422-2.592.619-5.278-.77-6.926-3.29A14.5,14.5,0,0,0,93.9,226.36a19.325,19.325,0,0,1-6.977-11.066Z" transform="translate(-24.169 -50.046)" fill="#febc7c"/>
        <path id="Trazado_117543" data-name="Trazado 117543" d="M96.68,187.813c.331,3.874.792,7.733,1.289,11.592.13.958.266,1.922.4,2.88l.209,1.44.216,1.44c.144.965.281,1.93.439,2.88l.482,2.88c.346,1.915.67,3.83,1.051,5.76.187.958.353,1.915.562,2.88l.612,2.88c.85,3.794,1.793,7.567,2.93,11.29l.166-.05-.72-2.815-.187-.72-.166-.72-.338-1.44-.338-1.44c-.115-.468-.216-.95-.317-1.44-.209-.95-.425-1.9-.619-2.844q-1.166-5.713-2.16-11.455c-.31-1.915-.634-3.83-.929-5.76l-.223-1.44-.216-1.44c-.144-.965-.281-1.922-.418-2.88-.281-1.915-.547-3.845-.8-5.76s-.511-3.852-.72-5.76Z" transform="translate(-27.07 -52.576)" fill="#fff" opacity="0.57"/>
        <path id="Trazado_117544" data-name="Trazado 117544" d="M86.752,238.329a10.865,10.865,0,0,1-2.16-6.919,7.762,7.762,0,0,0-1.822-5.486c-.137-.158-.274-.324-.4-.5-1.922-2.635-1.858-5.947.13-7.387s5.148-.482,7.063,2.16a7.344,7.344,0,0,1,.929,1.685,7.783,7.783,0,0,0,3.874,4.183,11.39,11.39,0,0,1,4.32,3.6,10.613,10.613,0,0,1,2.1,7.7,7.675,7.675,0,0,0,.072,2.75,3.6,3.6,0,0,1-1.2,3.787,3.708,3.708,0,0,1-4.284-.216,8.006,8.006,0,0,0-2.6-1.145,10.8,10.8,0,0,1-6.019-4.212Z" transform="translate(-22.672 -60.864)" fill="url(#linear-gradient-22)"/>
        <path id="Trazado_117545" data-name="Trazado 117545" d="M84.89,222.873c1.008,1.937,2.074,3.83,3.161,5.717.274.475.554.943.828,1.44l.418.72.425.72c.281.468.562.936.85,1.4l.864,1.382c.59.914,1.174,1.836,1.778,2.743.3.454.6.914.907,1.361l.929,1.267c1.26,1.778,2.556,3.528,3.946,5.213l.072-.065-.986-1.3-.252-.324-.238-.324-.482-.662-.475-.662c-.166-.216-.317-.439-.475-.662l-.929-1.325q-1.822-2.7-3.6-5.458c-.569-.929-1.152-1.843-1.714-2.772l-.432-.72-.418-.72c-.281-.468-.562-.936-.835-1.44q-.842-1.39-1.656-2.808t-1.606-2.765Z" transform="translate(-23.769 -62.392)" fill="#fff" opacity="0.57"/>
        <rect id="Rectángulo_6915" data-name="Rectángulo 6915" width="1.584" height="17.114" transform="translate(181.526 165.478)" fill="url(#linear-gradient-23)"/>
        <path id="Trazado_117546" data-name="Trazado 117546" d="M257.45,253.65H243.59v-.439a.6.6,0,0,1,.6-.59h12.658a.641.641,0,0,1,.641.641Z" transform="translate(-68.205 -70.734)" fill="url(#linear-gradient-24)"/>
        <rect id="Rectángulo_6916" data-name="Rectángulo 6916" width="18.518" height="5.249" rx="2.51" transform="translate(173.347 161.402)" fill="url(#linear-gradient-25)"/>
        <path id="Trazado_117547" data-name="Trazado 117547" d="M231.859,246.213s-5.119,2.2-4.824,4.514c0,0,5.285-1.015,6.235-2.527s.425-2.39.425-2.39Z" transform="translate(-63.566 -68.827)" fill="url(#linear-gradient-26)"/>
        <path id="Trazado_117548" data-name="Trazado 117548" d="M234.623,242.88l.259,2.239a.72.72,0,0,1-.475.792,2.068,2.068,0,0,1-.648.1.864.864,0,0,1-.835-.634l-.5-1.814Z" transform="translate(-65.078 -68.006)" fill="url(#linear-gradient-27)"/>
        <path id="Trazado_117549" data-name="Trazado 117549" d="M244.735,218.99s-9.41-.439-14.09,2.29.238,15.84.238,15.84a4.716,4.716,0,0,0,2.981-.677s-2.513-9.59,1.85-11.261a25.2,25.2,0,0,1,9.986-1.44l-.965-4.478Z" transform="translate(-64.015 -61.31)" fill="url(#linear-gradient-28)"/>
        <path id="Trazado_117550" data-name="Trazado 117550" d="M227.734,250.634c1.066-.23,4.241-1.548,4.723-1.534s1.166.72,1.166.72a1.3,1.3,0,0,1-.23.965,8.878,8.878,0,0,1-4.622,1.93,3.42,3.42,0,0,1-2.93-1.08A4.168,4.168,0,0,1,227.734,250.634Z" transform="translate(-63.235 -69.748)" fill="url(#linear-gradient-29)"/>
        <path id="Trazado_117551" data-name="Trazado 117551" d="M228.591,253.4a8.877,8.877,0,0,0,4.622-1.93,3.953,3.953,0,0,1-1.512,1.31,10.08,10.08,0,0,1-6.163.72c-.547-.209-.374-.72.122-1.2A3.42,3.42,0,0,0,228.591,253.4Z" transform="translate(-63.056 -70.412)" fill="url(#linear-gradient-30)"/>
        <path id="Trazado_117552" data-name="Trazado 117552" d="M237.088,248.044a7.791,7.791,0,0,1-1.253,1.5.857.857,0,0,1-.792.238,2.066,2.066,0,0,1-.569-.2.554.554,0,0,1-.216-.72l1.094-1.994Z" transform="translate(-65.577 -69.124)" fill="url(#linear-gradient-31)"/>
        <path id="Trazado_117553" data-name="Trazado 117553" d="M255.835,217.87s.821,5.825-1.555,7.02-7.582,1.966-9.36,4.99-5.04,8.95-7.92,10.656a4.789,4.789,0,0,1-2.16-1.368s3.485-9.151,4.932-11.369c1.26-1.93,3.1-4.7,5.71-5.9.72-.346.806-1.138.677-1.951l-.245-1.476Z" transform="translate(-65.755 -61.004)" fill="url(#linear-gradient-32)"/>
        <path id="Trazado_117554" data-name="Trazado 117554" d="M233.106,205.34c3.326.95,4.817-8.424,4.81-8.64l5.1,5.969s-3.038,5.35-7.632,5.918a5.422,5.422,0,0,1-2.981-.439,4.737,4.737,0,0,0,.706-2.808Z" transform="translate(-65.072 -55.076)" fill="url(#linear-gradient-33)"/>
        <path id="Trazado_117555" data-name="Trazado 117555" d="M223.65,204.386a2.664,2.664,0,0,1,2.678.59,8.7,8.7,0,0,0,3.485,2.477,4.738,4.738,0,0,1-.72,2.8,7.394,7.394,0,0,1-3.269-3.312.619.619,0,0,0-.821-.274c-.3.144-.619.374-.641.684-.043.6-.763.641-.77.418a9.484,9.484,0,0,1,.562-1.44s-1.663,1.073-2.318,1.476a.943.943,0,0,1-1.2-.266S222.2,204.984,223.65,204.386Z" transform="translate(-61.779 -57.189)" fill="url(#linear-gradient-34)"/>
        <path id="Trazado_117556" data-name="Trazado 117556" d="M255.966,191s-4.442-3.046-15.242,2.47a3.521,3.521,0,0,0-.6,3c.526,1.591,6.941,10.2,7.2,14.234a11.52,11.52,0,0,0,10.08,0S259.264,200.061,255.966,191Z" transform="translate(-67.204 -53.246)" fill="url(#linear-gradient-35)"/>
        <path id="Trazado_117557" data-name="Trazado 117557" d="M246.772,184.7l2.88,4.32a.965.965,0,0,1-.1,1.058,2.808,2.808,0,0,1-3.24.9,1.519,1.519,0,0,1-1.03-1.1l-.922-3.866Z" transform="translate(-68.421 -51.716)" fill="url(#linear-gradient-36)"/>
        <path id="Trazado_117558" data-name="Trazado 117558" d="M264.723,203.426c.3-2.1-5.263-6.185-5.263-6.185l1.951-5.911s10.613,7.582,8.381,13.766a4.32,4.32,0,0,1-1.375,1.994A6.955,6.955,0,0,0,264.723,203.426Z" transform="translate(-72.649 -53.572)" fill="url(#linear-gradient-37)"/>
        <path id="Trazado_117559" data-name="Trazado 117559" d="M254.166,208.77s6.3,1.757,7.6-.158a1.023,1.023,0,0,0,.166-.432,6.955,6.955,0,0,1,3.694,3.665c-3,2.347-8.755-.288-10.318-1.073a1.123,1.123,0,0,0-.835-.072,7.588,7.588,0,0,1-2.059.418c-.785-.043-1.627,2.794-2.966,2.074C249.436,213.155,250.048,208.3,254.166,208.77Z" transform="translate(-69.846 -58.29)" fill="url(#linear-gradient-38)"/>
        <path id="Trazado_117560" data-name="Trazado 117560" d="M238.63,180.595c0,.072,1.3,4.579,1.966,6.876a1.217,1.217,0,0,0,1.649.785l.511-.216c.72-.3,1.937-1.2,2.009-1.966l-.238-5.443S238.724,178.924,238.63,180.595Z" transform="translate(-66.816 -50.361)" fill="url(#linear-gradient-39)"/>
        <path id="Trazado_117561" data-name="Trazado 117561" d="M243.827,178.168a1.21,1.21,0,0,0-.821-1.606,1.706,1.706,0,0,0-1.987.67.468.468,0,0,1-.583.122.36.36,0,0,0-.418.05.461.461,0,0,1-.662-.144,1.382,1.382,0,0,0-1.678-.655c-1.613.418-1.642,2.254-1.116,3.276s2.246.468,3.082-.144a2,2,0,0,1,1.944.079.461.461,0,0,1,.245.317l.454,2.023a14.785,14.785,0,0,1,1.483.238v-.374c0-.677.8-1.145,1.138-1.318a.454.454,0,0,0,.23-.274,1.21,1.21,0,0,0-.958-1.685.461.461,0,0,1-.353-.576Z" transform="translate(-66.152 -49.411)" fill="url(#linear-gradient-40)"/>
        <path id="Trazado_117562" data-name="Trazado 117562" d="M246.83,184.8s-.842-1.822-.187-2.347,1.7-.367,1.591,1.015C248.126,185.188,246.83,184.8,246.83,184.8Z" transform="translate(-68.99 -51.009)" fill="url(#linear-gradient-41)"/>
        <path id="Trazado_117563" data-name="Trazado 117563" d="M238.872,214h-14.7a.662.662,0,0,1,0-1.318h14.71a.655.655,0,0,1,0,1.31Z" transform="translate(-62.601 -59.55)" fill="url(#linear-gradient-42)"/>
        <path id="Trazado_117564" data-name="Trazado 117564" d="M205.616,196h12.24a2.326,2.326,0,0,1,2.11,1.339l5.659,12H210.412a1.44,1.44,0,0,1-1.325-.893l-4.385-11.11a.972.972,0,0,1,.914-1.339Z" transform="translate(-57.296 -54.88)" fill="url(#linear-gradient-43)"/>
        <path id="Trazado_117565" data-name="Trazado 117565" d="M208.509,246.511a.576.576,0,0,1-.245-.05.583.583,0,0,1-.324-.785l12.96-29.167a.634.634,0,0,1,.814-.317.6.6,0,0,1,.324.785l-12.96,29.174a.626.626,0,0,1-.569.36Z" transform="translate(-58.209 -60.52)" fill="url(#linear-gradient-44)"/>
        <path id="Trazado_117566" data-name="Trazado 117566" d="M223.719,246.51a.619.619,0,0,1-.569-.36l-12.96-29.174a.583.583,0,0,1,.324-.785.619.619,0,0,1,.806.317l12.96,29.167a.583.583,0,0,1-.324.785A.562.562,0,0,1,223.719,246.51Z" transform="translate(-58.839 -60.52)" fill="url(#linear-gradient-45)"/>
        <path id="Trazado_117567" data-name="Trazado 117567" d="M264.229,246.511a.576.576,0,0,1-.245-.05.583.583,0,0,1-.324-.785l12.96-29.167a.634.634,0,0,1,.814-.317.59.59,0,0,1,.317.785l-12.96,29.174a.619.619,0,0,1-.562.36Z" transform="translate(-73.81 -60.52)" fill="url(#linear-gradient-46)"/>
        <path id="Trazado_117568" data-name="Trazado 117568" d="M279.475,246.511a.626.626,0,0,1-.569-.36l-12.924-29.174a.6.6,0,0,1,.324-.785.634.634,0,0,1,.814.317l12.96,29.167a.583.583,0,0,1-.324.785.576.576,0,0,1-.281.05Z" transform="translate(-74.462 -60.52)" fill="url(#linear-gradient-47)"/>
        <path id="Trazado_117569" data-name="Trazado 117569" d="M263.447,215.1a.72.72,0,0,0-.13-.54.547.547,0,0,0-.446-.238H203.91a.648.648,0,0,0-.562.346.821.821,0,0,0-.043.72l.634,1.548a.907.907,0,0,0,.814.583h57.715a.72.72,0,0,0,.662-.619Z" transform="translate(-56.908 -60.01)" fill="url(#linear-gradient-48)"/>
        <path id="Trazado_117570" data-name="Trazado 117570" d="M70.24,100.19c7.61.31,16.171,4.37,17.7,12.492,1.3,6.9-5.76,11.268-10.152,13.421a5.594,5.594,0,0,0-2.722,2.88c-1.26,3.031-4.32,8.381-9.864,7.2a.4.4,0,0,1,0-.77,6.038,6.038,0,0,0,3.838-2.642,3.377,3.377,0,0,0-2.729-4.925c-4.55-.374-13.572-2.47-15.754-12.917C47.574,100.809,70.24,100.19,70.24,100.19Z" transform="translate(-14.08 -28.053)" fill="#fda551"/>
        <path id="Trazado_117571" data-name="Trazado 117571" d="M74.212,115.643s-1.08-4.687-5.688-3.168c-4.37,1.44-1.98,7.344,4.939,10.267a2.52,2.52,0,0,0,2.3-.18c2.592-1.613,8.525-5.99,4.234-10.123C77.222,109.768,74.212,115.643,74.212,115.643Z" transform="translate(-18.57 -31.288)" fill="#fff"/>
        <path id="Trazado_117572" data-name="Trazado 117572" d="M89.919,108.256a.353.353,0,0,1-.274-.13c-2.318-2.722-6.912-5.868-15.674-5.386a.367.367,0,0,1-.382-.338.36.36,0,0,1,.338-.382c5.04-.274,11.88.482,16.272,5.638a.367.367,0,0,1-.043.511A.36.36,0,0,1,89.919,108.256Z" transform="translate(-20.605 -28.552)" fill="#fff"/>
        <path id="Trazado_117573" data-name="Trazado 117573" d="M99.924,117.645a.36.36,0,0,1-.353-.31,10.858,10.858,0,0,0-.641-2.03.374.374,0,0,1,.2-.475.36.36,0,0,1,.468.2,10.749,10.749,0,0,1,.684,2.16.36.36,0,0,1-.3.418Z" transform="translate(-27.694 -32.145)" fill="#fff"/>
        <path id="Trazado_117574" data-name="Trazado 117574" d="M106.143,59.658l-.569.252h0a.173.173,0,0,1-.23-.086.18.18,0,0,1,.086-.238h0l.576-.252a.173.173,0,0,1,.23.086.18.18,0,0,1-.086.238Z" transform="translate(-29.492 -16.609)" fill="#b5abdb"/>
        <path id="Trazado_117575" data-name="Trazado 117575" d="M103.541,60.866l-.554.288h0a.173.173,0,0,1-.245-.079.18.18,0,0,1,.072-.245h0l.554-.288a.18.18,0,0,1,.245.079.187.187,0,0,1-.079.245Z" transform="translate(-28.761 -16.946)" fill="#b5abdb"/>
        <path id="Trazado_117576" data-name="Trazado 117576" d="M101.022,62.267l-.533.324h0a.194.194,0,0,1-.259-.065.187.187,0,0,1,.065-.252h0l.54-.324a.187.187,0,0,1,.252.065.18.18,0,0,1-.065.252Z" transform="translate(-28.058 -17.339)" fill="#b5abdb"/>
        <path id="Trazado_117577" data-name="Trazado 117577" d="M98.6,63.794l-.511.353h0a.173.173,0,0,1-.259-.05.18.18,0,0,1,.043-.259h0l.518-.353a.187.187,0,1,1,.209.31Z" transform="translate(-27.381 -17.764)" fill="#b5abdb"/>
        <path id="Trazado_117578" data-name="Trazado 117578" d="M96.261,65.467l-.49.382h0a.19.19,0,1,1-.23-.3h0l.5-.382a.19.19,0,0,1,.23.3Z" transform="translate(-26.73 -18.235)" fill="#b5abdb"/>
        <path id="Trazado_117579" data-name="Trazado 117579" d="M94.01,67.273l-.468.41h0a.2.2,0,1,1-.259-.3h0l.49-.4a.194.194,0,0,1,.252.3Z" transform="translate(-26.092 -18.745)" fill="#b5abdb"/>
        <path id="Trazado_117580" data-name="Trazado 117580" d="M91.894,69.2l-.446.432h0a.187.187,0,0,1-.281,0,.194.194,0,0,1,0-.281h0l.454-.439a.209.209,0,0,1,.288,0,.2.2,0,0,1,0,.281Z" transform="translate(-25.51 -19.278)" fill="#b5abdb"/>
        <path id="Trazado_117581" data-name="Trazado 117581" d="M89.872,71.231l-.418.454h0a.194.194,0,0,1-.288,0,.2.2,0,0,1,0-.288h0l.432-.461a.2.2,0,0,1,.3.281Z" transform="translate(-24.95 -19.844)" fill="#b5abdb"/>
        <path id="Trazado_117582" data-name="Trazado 117582" d="M87.961,73.381l-.4.475h0a.212.212,0,1,1-.324-.274h0l.4-.482a.21.21,0,1,1,.324.266Z" transform="translate(-24.413 -20.447)" fill="#b5abdb"/>
        <path id="Trazado_117583" data-name="Trazado 117583" d="M86.183,75.641l-.374.5h0a.216.216,0,1,1-.346-.259h0l.374-.5a.216.216,0,0,1,.346.252Z" transform="translate(-23.918 -21.087)" fill="#b5abdb"/>
        <path id="Trazado_117584" data-name="Trazado 117584" d="M84.522,77.979l-.338.518h0a.219.219,0,1,1-.367-.238h0l.346-.518a.219.219,0,0,1,.367.238Z" transform="translate(-23.459 -21.74)" fill="#b5abdb"/>
        <path id="Trazado_117585" data-name="Trazado 117585" d="M83,80.416l-.31.533h0a.23.23,0,0,1-.3.079.216.216,0,0,1-.079-.3h0l.317-.547a.221.221,0,1,1,.382.223Z" transform="translate(-23.037 -22.42)" fill="#b5abdb"/>
        <path id="Trazado_117586" data-name="Trazado 117586" d="M81.615,82.932l-.281.554h0a.225.225,0,1,1-.4-.2h0l.288-.562a.224.224,0,1,1,.4.209Z" transform="translate(-22.654 -23.129)" fill="#b5abdb"/>
        <path id="Trazado_117587" data-name="Trazado 117587" d="M80.372,85.523l-.245.569h0A.232.232,0,1,1,79.7,85.9h0l.259-.569a.223.223,0,0,1,.3-.122.23.23,0,0,1,.122.3Z" transform="translate(-22.311 -23.855)" fill="#b5abdb"/>
        <path id="Trazado_117588" data-name="Trazado 117588" d="M79.292,88.18l-.216.583h0a.23.23,0,1,1-.432-.158h0l.216-.583a.238.238,0,0,1,.3-.137.23.23,0,0,1,.137.3Z" transform="translate(-22.016 -24.604)" fill="#b5abdb"/>
        <path id="Trazado_117589" data-name="Trazado 117589" d="M78.349,90.876l-.18.59h0a.238.238,0,1,1-.454-.144h0l.187-.6a.233.233,0,1,1,.446.137Z" transform="translate(-21.757 -25.356)" fill="#b5abdb"/>
        <path id="Trazado_117590" data-name="Trazado 117590" d="M77.578,93.649l-.144.6h0a.245.245,0,0,1-.475-.115h0l.151-.612a.238.238,0,0,1,.3-.173.23.23,0,0,1,.173.288Z" transform="translate(-21.547 -26.135)" fill="#b5abdb"/>
        <path id="Trazado_117591" data-name="Trazado 117591" d="M76.976,96.455l-.115.612h0a.245.245,0,1,1-.482-.086h0l.115-.619a.245.245,0,0,1,.482.086Z" transform="translate(-21.385 -26.925)" fill="#b5abdb"/>
        <path id="Trazado_117592" data-name="Trazado 117592" d="M76.538,99.29l-.072.619h0a.252.252,0,0,1-.274.223.259.259,0,0,1-.223-.281h0l.079-.619a.252.252,0,0,1,.274-.223.259.259,0,0,1,.216.281Z" transform="translate(-21.271 -27.722)" fill="#b5abdb"/>
        <path id="Trazado_117593" data-name="Trazado 117593" d="M76.294,102.148v.619h0a.253.253,0,1,1-.5-.029h0l.036-.626a.252.252,0,1,1,.5,0Z" transform="translate(-21.221 -28.521)" fill="#b5abdb"/>
        <path id="Trazado_117594" data-name="Trazado 117594" d="M76.19,105.005v.634h0a.259.259,0,0,1-.511,0h0v-.626a.259.259,0,1,1,.511,0Z" transform="translate(-21.189 -29.319)" fill="#b5abdb"/>
        <path id="Trazado_117595" data-name="Trazado 117595" d="M76.236,107.88v.619h0a.259.259,0,0,1-.511,0h0l-.036-.626a.259.259,0,1,1,.511,0Z" transform="translate(-21.192 -30.12)" fill="#b5abdb"/>
        <path id="Trazado_117596" data-name="Trazado 117596" d="M76.48,110.757l.072.612h0a.266.266,0,0,1-.23.288.259.259,0,0,1-.281-.23h0l-.072-.619a.252.252,0,0,1,.223-.288.266.266,0,0,1,.288.223Z" transform="translate(-21.271 -30.945)" fill="#b5abdb"/>
        <path id="Trazado_117597" data-name="Trazado 117597" d="M76.87,113.6l.1.612h0a.252.252,0,0,1-.209.3.266.266,0,0,1-.3-.209h0l-.1-.619a.256.256,0,1,1,.5-.086Z" transform="translate(-21.379 -31.745)" fill="#b5abdb"/>
        <path id="Trazado_117598" data-name="Trazado 117598" d="M77.411,116.429l.144.6h0a.266.266,0,0,1-.511.122h0l-.137-.612a.259.259,0,1,1,.5-.122Z" transform="translate(-21.532 -32.542)" fill="#b5abdb"/>
        <path id="Trazado_117599" data-name="Trazado 117599" d="M78.112,119.212l.18.6h0a.262.262,0,1,1-.5.144h0l-.173-.6a.259.259,0,0,1,.173-.324.252.252,0,0,1,.324.18Z" transform="translate(-21.729 -33.323)" fill="#b5abdb"/>
        <path id="Trazado_117600" data-name="Trazado 117600" d="M78.971,121.928l.209.583h0a.274.274,0,0,1-.166.338.266.266,0,0,1-.331-.166h0l-.209-.59a.266.266,0,0,1,.158-.338.274.274,0,0,1,.338.166Z" transform="translate(-21.968 -34.088)" fill="#b5abdb"/>
        <path id="Trazado_117601" data-name="Trazado 117601" d="M79.969,124.656l.238.576h0a.274.274,0,0,1-.144.346.259.259,0,0,1-.346-.144h0l-.245-.576a.266.266,0,0,1,.144-.346.259.259,0,0,1,.346.144Z" transform="translate(-22.247 -34.857)" fill="#b5abdb"/>
        <path id="Trazado_117602" data-name="Trazado 117602" d="M81.13,127.3l.274.562h0a.259.259,0,0,1-.122.353.266.266,0,0,1-.36-.122h0l-.266-.569a.266.266,0,0,1,.475-.23Z" transform="translate(-22.58 -35.609)" fill="#b5abdb"/>
        <path id="Trazado_117603" data-name="Trazado 117603" d="M82.421,129.855l.3.547h0a.274.274,0,0,1-.108.367.266.266,0,0,1-.36-.108h0l-.31-.554a.274.274,0,0,1,.108-.36.259.259,0,0,1,.36.108Z" transform="translate(-22.935 -36.319)" fill="#b5abdb"/>
        <path id="Trazado_117604" data-name="Trazado 117604" d="M83.857,132.349l.331.526h0a.269.269,0,0,1-.454.288h0l-.331-.533a.269.269,0,0,1,.454-.288Z" transform="translate(-23.341 -37.021)" fill="#b5abdb"/>
        <path id="Trazado_117605" data-name="Trazado 117605" d="M85.427,134.753l.36.5h0a.274.274,0,1,1-.446.317h0l-.36-.518a.269.269,0,0,1,.439-.31Z" transform="translate(-23.781 -37.697)" fill="#b5abdb"/>
        <path id="Trazado_117606" data-name="Trazado 117606" d="M87.149,137.067l.389.482h0a.266.266,0,0,1-.043.382.274.274,0,0,1-.382-.036h0l-.389-.5a.274.274,0,0,1,.425-.338Z" transform="translate(-24.271 -38.355)" fill="#b5abdb"/>
        <path id="Trazado_117607" data-name="Trazado 117607" d="M88.976,139.261l.41.461h0a.274.274,0,1,1-.4.367h0l-.425-.468a.266.266,0,0,1,0-.382.274.274,0,0,1,.382,0Z" transform="translate(-24.774 -38.965)" fill="#b5abdb"/>
        <path id="Trazado_117608" data-name="Trazado 117608" d="M90.945,141.349l.446.439h0a.281.281,0,0,1,0,.389.274.274,0,0,1-.389,0h0l-.454-.439a.275.275,0,1,1,.389-.389Z" transform="translate(-25.331 -39.555)" fill="#b5abdb"/>
        <path id="Trazado_117609" data-name="Trazado 117609" d="M93.046,143.324l.468.4h0a.274.274,0,1,1-.36.41h0l-.475-.41a.274.274,0,0,1,0-.389.266.266,0,0,1,.382,0Z" transform="translate(-25.927 -40.112)" fill="#b5abdb"/>
        <path id="Trazado_117610" data-name="Trazado 117610" d="M95.256,145.171l.49.374h0a.274.274,0,0,1,.05.389.281.281,0,0,1-.389.043h0l-.5-.382a.281.281,0,0,1,.338-.439Z" transform="translate(-26.554 -40.634)" fill="#b5abdb"/>
        <path id="Trazado_117611" data-name="Trazado 117611" d="M97.561,146.887l.511.353h0a.281.281,0,0,1,.072.389.288.288,0,0,1-.389.072h0l-.511-.36a.281.281,0,0,1,.31-.461Z" transform="translate(-27.203 -41.119)" fill="#b5abdb"/>
        <path id="Trazado_117612" data-name="Trazado 117612" d="M99.932,148.458l.526.324h0a.283.283,0,1,1-.3.482h0l-.533-.331a.281.281,0,1,1,.3-.475Z" transform="translate(-27.853 -41.553)" fill="#b5abdb"/>
        <path id="Trazado_117613" data-name="Trazado 117613" d="M102.416,149.924l.547.3h0a.281.281,0,0,1,.108.382.274.274,0,0,1-.382.108h0l-.547-.3a.282.282,0,0,1,.266-.5Z" transform="translate(-28.558 -41.967)" fill="#b5abdb"/>
        <path id="Trazado_117614" data-name="Trazado 117614" d="M104.977,151.252l.562.266h0a.283.283,0,1,1-.245.511h0l-.569-.274a.281.281,0,0,1,.245-.5Z" transform="translate(-29.283 -42.345)" fill="#b5abdb"/>
        <path id="Trazado_117615" data-name="Trazado 117615" d="M107.583,152.449l.569.238h0a.288.288,0,1,1-.223.526h0l-.576-.245a.288.288,0,0,1-.151-.374.281.281,0,0,1,.367-.151Z" transform="translate(-30.01 -42.678)" fill="#b5abdb"/>
        <path id="Trazado_117616" data-name="Trazado 117616" d="M110.248,153.514l.583.216h0a.288.288,0,0,1-.2.54h0l-.583-.223a.281.281,0,0,1-.173-.36.288.288,0,0,1,.367-.173Z" transform="translate(-30.76 -42.979)" fill="#b5abdb"/>
        <path id="Trazado_117617" data-name="Trazado 117617" d="M112.965,154.463l.6.18h0a.281.281,0,0,1,.187.353.3.3,0,0,1-.36.194h0l-.6-.187a.288.288,0,0,1-.187-.36.3.3,0,0,1,.36-.187Z" transform="translate(-31.526 -43.244)" fill="#b5abdb"/>
        <path id="Trazado_117618" data-name="Trazado 117618" d="M115.726,155.277l.6.166h0a.288.288,0,1,1-.144.554h0l-.6-.166a.281.281,0,0,1-.209-.346.3.3,0,0,1,.353-.209Z" transform="translate(-32.3 -43.475)" fill="#b5abdb"/>
        <path id="Trazado_117619" data-name="Trazado 117619" d="M118.507,156l.612.13h0a.291.291,0,0,1-.122.569h0l-.612-.137a.288.288,0,1,1,.122-.562Z" transform="translate(-33.079 -43.676)" fill="#b5abdb"/>
        <path id="Trazado_117620" data-name="Trazado 117620" d="M121.348,156.55l.612.108h0a.3.3,0,0,1-.1.576h0l-.619-.108a.3.3,0,0,1,.1-.576Z" transform="translate(-33.89 -43.834)" fill="#b5abdb"/>
        <path id="Trazado_117621" data-name="Trazado 117621" d="M124.177,157l.612.079h0a.291.291,0,1,1-.079.576h0l-.626-.079a.294.294,0,0,1,.079-.583Z" transform="translate(-34.674 -43.957)" fill="#b5abdb"/>
        <path id="Trazado_117622" data-name="Trazado 117622" d="M127.02,157.337l.619.058h0a.3.3,0,0,1-.05.583h0l-.626-.058a.3.3,0,1,1,.058-.583Z" transform="translate(-35.465 -44.052)" fill="#b5abdb"/>
        <path id="Trazado_117623" data-name="Trazado 117623" d="M129.853,157.56h.619a.3.3,0,1,1-.029.59h-.626a.3.3,0,1,1,0-.583Z" transform="translate(-36.253 -44.117)" fill="#b5abdb"/>
        <path id="Trazado_117624" data-name="Trazado 117624" d="M132.782,157.647h.619a.3.3,0,0,1,.3.3.288.288,0,0,1-.3.288h-.626a.3.3,0,0,1-.3-.3.3.3,0,0,1,.3-.3Z" transform="translate(-37.094 -44.139)" fill="#b5abdb"/>
        <path id="Trazado_117625" data-name="Trazado 117625" d="M135.668,157.637h.619a.3.3,0,0,1,0,.59h-.626a.3.3,0,0,1,0-.6Z" transform="translate(-37.913 -44.136)" fill="#b5abdb"/>
        <path id="Trazado_117626" data-name="Trazado 117626" d="M138.528,157.506l.619-.036h0a.3.3,0,0,1,.317.281.31.31,0,0,1-.281.317h-.626a.3.3,0,0,1-.317-.281.31.31,0,0,1,.281-.317Z" transform="translate(-38.707 -44.091)" fill="#b5abdb"/>
        <path id="Trazado_117627" data-name="Trazado 117627" d="M141.406,157.277l.619-.058h0a.3.3,0,0,1,.331.266.31.31,0,0,1-.266.331h0l-.619.058a.3.3,0,0,1-.331-.266.31.31,0,0,1,.274-.331Z" transform="translate(-39.519 -44.021)" fill="#b5abdb"/>
        <path id="Trazado_117628" data-name="Trazado 117628" d="M144.263,156.964l.612-.086h0a.3.3,0,1,1,.079.6h0l-.626.086a.3.3,0,1,1-.079-.6Z" transform="translate(-40.317 -43.924)" fill="#b5abdb"/>
        <path id="Trazado_117629" data-name="Trazado 117629" d="M147.111,156.529l.619-.1h0a.3.3,0,1,1,.1.6h0l-.619.1a.3.3,0,0,1-.353-.245A.317.317,0,0,1,147.111,156.529Z" transform="translate(-41.12 -43.799)" fill="#b5abdb"/>
        <path id="Trazado_117630" data-name="Trazado 117630" d="M149.95,156.023l.6-.115h0a.3.3,0,0,1,.353.245.3.3,0,0,1-.238.353h0l-.612.122a.3.3,0,0,1-.36-.238.317.317,0,0,1,.238-.36Z" transform="translate(-41.914 -43.653)" fill="#b5abdb"/>
        <path id="Trazado_117631" data-name="Trazado 117631" d="M152.765,155.434l.6-.144h0a.31.31,0,0,1,.137.6h0l-.612.137a.31.31,0,0,1-.367-.23.3.3,0,0,1,.23-.36Z" transform="translate(-42.706 -43.481)" fill="#b5abdb"/>
        <path id="Trazado_117632" data-name="Trazado 117632" d="M155.571,154.751l.6-.158h0a.31.31,0,1,1,.151.6h0l-.6.151a.3.3,0,0,1-.151-.59Z" transform="translate(-43.496 -43.281)" fill="#b5abdb"/>
        <path id="Trazado_117633" data-name="Trazado 117633" d="M158.352,154l.6-.166h0a.31.31,0,0,1,.173.59h0l-.6.173a.31.31,0,1,1-.166-.6Z" transform="translate(-44.275 -43.073)" fill="#b5abdb"/>
        <path id="Trazado_117634" data-name="Trazado 117634" d="M161.11,153.182l.576-.187h0a.31.31,0,0,1,.389.2.317.317,0,0,1-.2.389h0l-.6.187a.31.31,0,0,1-.382-.2.3.3,0,0,1,.2-.389Z" transform="translate(-45.046 -42.834)" fill="#b5abdb"/>
        <path id="Trazado_117635" data-name="Trazado 117635" d="M163.858,152.285l.59-.2h0a.312.312,0,1,1,.2.59h0l-.59.2a.317.317,0,0,1-.4-.194.31.31,0,0,1,.194-.4Z" transform="translate(-45.821 -42.579)" fill="#b5abdb"/>
        <path id="Trazado_117636" data-name="Trazado 117636" d="M166.58,151.328l.583-.216h0a.311.311,0,1,1,.216.583h0l-.59.216a.31.31,0,0,1-.209-.583Z" transform="translate(-46.585 -42.306)" fill="#b5abdb"/>
        <path id="Trazado_117637" data-name="Trazado 117637" d="M169.279,150.3l.576-.223h0a.317.317,0,1,1,.23.583h0l-.583.23a.317.317,0,0,1-.23-.59Z" transform="translate(-47.34 -42.009)" fill="#b5abdb"/>
        <path id="Trazado_117638" data-name="Trazado 117638" d="M171.924,149.227l.576-.238h0a.31.31,0,0,1,.41.166.317.317,0,0,1-.166.418h0l-.583.238a.315.315,0,0,1-.238-.583Z" transform="translate(-48.084 -41.71)" fill="#b5abdb"/>
        <path id="Trazado_117639" data-name="Trazado 117639" d="M174.606,148.1l.569-.245h0a.324.324,0,0,1,.418.166.317.317,0,0,1-.158.418h0l-.576.252a.317.317,0,0,1-.418-.166.324.324,0,0,1,.166-.418Z" transform="translate(-48.837 -41.391)" fill="#b5abdb"/>
        <path id="Trazado_117640" data-name="Trazado 117640" d="M177.238,146.887l.569-.259h0a.317.317,0,0,1,.425.151.324.324,0,0,1-.158.425h0l-.569.259a.324.324,0,0,1-.425-.158A.317.317,0,0,1,177.238,146.887Z" transform="translate(-49.574 -41.047)" fill="#b5abdb"/>
        <path id="Trazado_117641" data-name="Trazado 117641" d="M179.856,145.693l.562-.266h0a.31.31,0,0,1,.425.151.324.324,0,0,1-.151.425h0l-.569.266a.319.319,0,0,1-.274-.576Z" transform="translate(-50.307 -40.71)" fill="#b5abdb"/>
        <path id="Trazado_117642" data-name="Trazado 117642" d="M182.459,144.441l.554-.274a.324.324,0,0,1,.432.144.31.31,0,0,1-.144.425h0l-.562.274a.331.331,0,0,1-.432-.151.31.31,0,0,1,.151-.418Z" transform="translate(-51.038 -40.357)" fill="#b5abdb"/>
        <path id="Trazado_117643" data-name="Trazado 117643" d="M185.053,143.163l.562-.281a.324.324,0,0,1,.288.576h0l-.562.281a.324.324,0,0,1-.288-.576Z" transform="translate(-51.773 -40.001)" fill="#b5abdb"/>
        <path id="Trazado_117644" data-name="Trazado 117644" d="M187.622,141.871l.562-.281a.324.324,0,1,1,.288.576h0l-.554.281a.324.324,0,0,1-.432-.144.317.317,0,0,1,.137-.432Z" transform="translate(-52.485 -39.631)" fill="#b5abdb"/>
        <path id="Trazado_117645" data-name="Trazado 117645" d="M190.2,140.546l.554-.281a.324.324,0,0,1,.439.137.331.331,0,0,1-.144.439h0l-.554.281a.324.324,0,0,1-.439-.137.331.331,0,0,1,.144-.439Z" transform="translate(-53.206 -39.264)" fill="#b5abdb"/>
        <path id="Trazado_117646" data-name="Trazado 117646" d="M192.772,139.234l.562-.288a.327.327,0,1,1,.3.583h0l-.562.281a.317.317,0,0,1-.432-.137.324.324,0,0,1,.137-.439Z" transform="translate(-53.927 -38.895)" fill="#b5abdb"/>
        <path id="Trazado_117647" data-name="Trazado 117647" d="M195.351,137.878l.562-.281a.327.327,0,0,1,.3.583h0l-.562.288a.331.331,0,0,1-.439-.144.338.338,0,0,1,.144-.446Z" transform="translate(-54.648 -38.518)" fill="#b5abdb"/>
        <path id="Trazado_117648" data-name="Trazado 117648" d="M197.931,136.622l.562-.281a.331.331,0,0,1,.3.59h0l-.562.281a.33.33,0,0,1-.3-.59Z" transform="translate(-55.371 -38.169)" fill="#b5abdb"/>
        <path id="Trazado_117649" data-name="Trazado 117649" d="M200.527,135.34l.562-.274a.324.324,0,0,1,.439.151.331.331,0,0,1-.151.439h0l-.562.274a.324.324,0,0,1-.439-.151.317.317,0,0,1,.151-.439Z" transform="translate(-56.095 -37.809)" fill="#b5abdb"/>
        <path id="Trazado_117650" data-name="Trazado 117650" d="M203.131,134.084l.569-.266a.324.324,0,0,1,.432.151.331.331,0,0,1-.151.439h0l-.562.266h0a.324.324,0,0,1-.432-.151.331.331,0,0,1,.151-.439Z" transform="translate(-56.827 -37.46)" fill="#b5abdb"/>
        <path id="Trazado_117651" data-name="Trazado 117651" d="M205.759,132.889l.569-.259a.331.331,0,0,1,.432.166.324.324,0,0,1-.166.425h0l-.562.259h0a.31.31,0,0,1-.425-.158.324.324,0,0,1,.158-.432Z" transform="translate(-57.562 -37.129)" fill="#b5abdb"/>
        <path id="Trazado_117652" data-name="Trazado 117652" d="M208.406,131.674l.576-.252a.324.324,0,1,1,.252.59h0l-.569.252h0a.324.324,0,0,1-.259-.59Z" transform="translate(-58.307 -36.785)" fill="#b5abdb"/>
        <path id="Trazado_117653" data-name="Trazado 117653" d="M211.065,130.549l.576-.238a.324.324,0,0,1,.418.173.331.331,0,0,1-.173.418h0l-.576.238h0a.317.317,0,0,1-.41-.173.31.31,0,0,1,.173-.418Z" transform="translate(-59.044 -36.481)" fill="#b5abdb"/>
        <path id="Trazado_117654" data-name="Trazado 117654" d="M213.75,129.473l.583-.23a.316.316,0,0,1,.223.59h0l-.583.223h0a.314.314,0,1,1-.23-.583Z" transform="translate(-59.792 -36.182)" fill="#b5abdb"/>
        <path id="Trazado_117655" data-name="Trazado 117655" d="M216.463,128.462l.59-.209a.31.31,0,0,1,.209.583h0l-.583.209h0a.3.3,0,0,1-.4-.187.31.31,0,0,1,.187-.4Z" transform="translate(-60.554 -35.906)" fill="#b5abdb"/>
        <path id="Trazado_117656" data-name="Trazado 117656" d="M219.208,127.521l.59-.187a.31.31,0,0,1,.389.194.3.3,0,0,1-.194.389h0l-.59.194h0a.3.3,0,0,1-.389-.194.317.317,0,0,1,.194-.4Z" transform="translate(-61.32 -35.649)" fill="#b5abdb"/>
        <path id="Trazado_117657" data-name="Trazado 117657" d="M221.974,126.678l.6-.173a.3.3,0,1,1,.166.583h0l-.6.173h0a.3.3,0,0,1-.382-.209.3.3,0,0,1,.209-.374Z" transform="translate(-62.09 -35.418)" fill="#b5abdb"/>
        <path id="Trazado_117658" data-name="Trazado 117658" d="M224.762,125.935l.6-.158a.3.3,0,0,1,.151.59h0l-.6.151h0a.3.3,0,1,1-.151-.583Z" transform="translate(-62.863 -35.215)" fill="#b5abdb"/>
        <path id="Trazado_117659" data-name="Trazado 117659" d="M227.588,125.247l.619-.13a.3.3,0,0,1,.353.23.3.3,0,0,1-.23.353h0l-.612.13h0a.3.3,0,0,1-.13-.59Z" transform="translate(-63.658 -35.031)" fill="#b5abdb"/>
        <path id="Trazado_117660" data-name="Trazado 117660" d="M230.436,124.686l.619-.108a.3.3,0,0,1,.346.245.3.3,0,0,1-.245.338h0l-.612.108h0a.3.3,0,0,1-.346-.245.3.3,0,0,1,.238-.346Z" transform="translate(-64.454 -34.881)" fill="#b5abdb"/>
        <path id="Trazado_117661" data-name="Trazado 117661" d="M233.3,124.238l.626-.079a.29.29,0,1,1,.072.576h0l-.612.086h0a.294.294,0,0,1-.079-.583Z" transform="translate(-65.256 -34.764)" fill="#b5abdb"/>
        <path id="Trazado_117662" data-name="Trazado 117662" d="M236.191,123.907l.626-.058a.289.289,0,0,1,.05.576h0l-.612.058h0a.289.289,0,1,1-.05-.576Z" transform="translate(-66.063 -34.678)" fill="#b5abdb"/>
        <path id="Trazado_117663" data-name="Trazado 117663" d="M239.081,123.707h.626a.288.288,0,1,1,0,.569h-.619a.288.288,0,0,1,0-.576Z" transform="translate(-66.864 -34.636)" fill="#b5abdb"/>
        <path id="Trazado_117664" data-name="Trazado 117664" d="M242.014,123.639h.648a.288.288,0,1,1,0,.569h-.626a.288.288,0,0,1,0-.569Z" transform="translate(-67.702 -34.618)" fill="#b5abdb"/>
        <path id="Trazado_117665" data-name="Trazado 117665" d="M244.9,123.7l.634.043a.274.274,0,0,1,.259.3.281.281,0,0,1-.3.266h-.619a.288.288,0,0,1,0-.569Z" transform="translate(-68.497 -34.636)" fill="#b5abdb"/>
        <path id="Trazado_117666" data-name="Trazado 117666" d="M247.782,123.927l.626.072a.281.281,0,0,1,.245.31.288.288,0,0,1-.31.245h0l-.612-.072h0a.281.281,0,1,1,.065-.554Z" transform="translate(-69.287 -34.698)" fill="#b5abdb"/>
        <path id="Trazado_117667" data-name="Trazado 117667" d="M250.668,124.318l.619.108a.274.274,0,0,1,.223.317.266.266,0,0,1-.317.223h0l-.612-.1h0a.281.281,0,0,1-.223-.324.266.266,0,0,1,.317-.223Z" transform="translate(-70.099 -34.808)" fill="#b5abdb"/>
        <path id="Trazado_117668" data-name="Trazado 117668" d="M253.521,124.89l.612.144a.274.274,0,0,1,.2.331.281.281,0,0,1-.331.2h0l-.6-.137h0a.266.266,0,0,1-.2-.324.274.274,0,0,1,.331-.2Z" transform="translate(-70.893 -34.969)" fill="#b5abdb"/>
        <path id="Trazado_117669" data-name="Trazado 117669" d="M256.349,125.63l.6.187a.274.274,0,1,1-.158.518h0l-.59-.18h0a.274.274,0,0,1,.158-.518Z" transform="translate(-71.691 -35.176)" fill="#b5abdb"/>
        <path id="Trazado_117670" data-name="Trazado 117670" d="M259.094,126.559l.583.23a.266.266,0,0,1,.158.346.274.274,0,0,1-.346.151h0l-.576-.216h0a.259.259,0,0,1-.151-.338.266.266,0,0,1,.346-.158Z" transform="translate(-72.449 -35.436)" fill="#b5abdb"/>
        <path id="Trazado_117671" data-name="Trazado 117671" d="M261.787,127.685l.569.274a.261.261,0,0,1-.23.468h0l-.562-.266h0a.266.266,0,0,1,.23-.475Z" transform="translate(-73.204 -35.748)" fill="#b5abdb"/>
        <path id="Trazado_117672" data-name="Trazado 117672" d="M264.363,128.989l.547.324a.266.266,0,0,1,.086.36.259.259,0,0,1-.353.086h0l-.533-.317h0a.252.252,0,0,1-.086-.353.259.259,0,0,1,.353-.094Z" transform="translate(-73.916 -36.109)" fill="#b5abdb"/>
        <path id="Trazado_117673" data-name="Trazado 117673" d="M266.845,130.6l.511.374a.259.259,0,1,1-.31.41h0l-.5-.367h0a.255.255,0,1,1,.3-.41Z" transform="translate(-74.605 -36.557)" fill="#b5abdb"/>
        <path id="Trazado_117674" data-name="Trazado 117674" d="M269.1,132.443l.461.439a.255.255,0,1,1-.353.367h0l-.446-.425h0a.259.259,0,0,1,.353-.374Z" transform="translate(-75.235 -37.072)" fill="#b5abdb"/>
        <path id="Trazado_117675" data-name="Trazado 117675" d="M271.112,134.558l.389.5a.245.245,0,1,1-.382.3h0l-.382-.475h0a.248.248,0,0,1,.382-.317Z" transform="translate(-75.791 -37.653)" fill="#b5abdb"/>
        <path id="Trazado_117676" data-name="Trazado 117676" d="M272.829,136.957l.31.554a.238.238,0,0,1-.094.324.23.23,0,0,1-.317-.094h0l-.3-.533h0a.238.238,0,0,1,.4-.252Z" transform="translate(-76.269 -38.317)" fill="#b5abdb"/>
        <path id="Trazado_117677" data-name="Trazado 117677" d="M274.063,139.581l.2.612a.223.223,0,0,1-.144.288.238.238,0,0,1-.288-.144h0l-.2-.576h0a.23.23,0,1,1,.432-.151Z" transform="translate(-76.61 -39.04)" fill="#b5abdb"/>
        <path id="Trazado_117678" data-name="Trazado 117678" d="M274.826,142.425l.072.634a.218.218,0,1,1-.432.058h0l-.079-.6h0a.223.223,0,1,1,.439-.058Z" transform="translate(-76.826 -39.825)" fill="#b5abdb"/>
        <path id="Trazado_117679" data-name="Trazado 117679" d="M274.938,145.368l-.05.641a.209.209,0,0,1-.223.194.223.223,0,0,1-.194-.23h0l.043-.612h0a.216.216,0,0,1,.425,0Z" transform="translate(-76.852 -40.652)" fill="#b5abdb"/>
        <path id="Trazado_117680" data-name="Trazado 117680" d="M274.469,148.269l-.173.612a.2.2,0,1,1-.389-.108h0l.158-.59h0a.194.194,0,0,1,.252-.137.187.187,0,0,1,.137.245Z" transform="translate(-76.692 -41.45)" fill="#b5abdb"/>
        <path id="Trazado_117681" data-name="Trazado 117681" d="M273.41,151.018l-.31.562a.193.193,0,0,1-.338-.187h0l.288-.533h0a.2.2,0,1,1,.346.187Z" transform="translate(-76.367 -42.212)" fill="#b5abdb"/>
        <path id="Trazado_117682" data-name="Trazado 117682" d="M271.7,153.451l-.446.461a.183.183,0,1,1-.266-.252h0l.425-.439h0a.2.2,0,0,1,.266,0,.194.194,0,0,1,0,.266Z" transform="translate(-75.863 -42.888)" fill="#b5abdb"/>
        <path id="Trazado_117683" data-name="Trazado 117683" d="M269.6,155.341l-.158.094a.18.18,0,0,1-.187-.3h0l.151-.094h0a.173.173,0,0,1,.245.058.18.18,0,0,1-.058.245Z" transform="translate(-75.374 -43.403)" fill="#b5abdb"/>
        <path id="Trazado_117684" data-name="Trazado 117684" d="M110.4,54.1l-.108,3.053,2.117-1.238Z" transform="translate(-30.881 -15.148)" fill="url(#linear-gradient-49)"/>
        <path id="Trazado_117685" data-name="Trazado 117685" d="M123.252,51.372l-8.5,6.955a.72.72,0,0,1-.583.166.77.77,0,0,1-.526-.3l-6.66-8.82a.317.317,0,0,1,0-.346.3.3,0,0,1,.31-.144Z" transform="translate(-29.94 -13.688)" fill="url(#linear-gradient-50)"/>
        <path id="Trazado_117686" data-name="Trazado 117686" d="M110.44,53.607l13.8-1.267-12.722,2.693-.065.842Z" transform="translate(-30.923 -14.655)" fill="url(#linear-gradient-51)"/>
        <path id="Trazado_117687" data-name="Trazado 117687" d="M112.112,56.915l-1.822.792,1.181-1.627Z" transform="translate(-30.881 -15.702)" fill="url(#linear-gradient-52)"/>
        <path id="Trazado_117688" data-name="Trazado 117688" d="M58.885,162.438c2.362,1.57,4.529,5.119.194,10.8-3.91,5.119-7.87,8.46-7.279,11.614s-4.018,11.1-13.392,5.9c-9.252-5.119-7.481-14.962,3.744-18.72C48.689,169.862,50.237,156.678,58.885,162.438Z" transform="translate(-9.089 -45.078)" fill="url(#linear-gradient-53)"/>
        <path id="Trazado_117689" data-name="Trazado 117689" d="M76.178,190.3s-3.665,4.392-7.358.821l-1.44,3.312s5.393,4.169,9.482-2.4Z" transform="translate(-18.866 -53.284)" fill="url(#linear-gradient-54)"/>
        <path id="Trazado_117690" data-name="Trazado 117690" d="M64.138,178.894a6.934,6.934,0,0,0-6.8,1.728,1.771,1.771,0,0,0-.5,1.742c.72,2.786,2.758,11.023,1.008,14.58,0,0,3.082,3.406,6.48.662,0,0,1.512-6.581,3.485-9.475,1.368-1.994-2.16-7.488-3.074-8.82a.986.986,0,0,0-.6-.418Z" transform="translate(-15.898 -50.014)" fill="url(#linear-gradient-55)"/>
        <path id="Trazado_117691" data-name="Trazado 117691" d="M63.892,171.6a34.56,34.56,0,0,0-2.412,5.868,3.211,3.211,0,0,0,3.276-.094,46.369,46.369,0,0,1,1.058-4.91Z" transform="translate(-17.214 -48.048)" fill="url(#linear-gradient-56)"/>
        <path id="Trazado_117692" data-name="Trazado 117692" d="M69.06,167.946s.382,6.761-2.462,6.854-3.118-4.709-3.118-4.709.835-3.038,2.16-3.391S69.06,167.946,69.06,167.946Z" transform="translate(-17.774 -46.662)" fill="url(#linear-gradient-57)"/>
        <path id="Trazado_117693" data-name="Trazado 117693" d="M68.155,165.18s1.3,1.332,1.073,2.16-3.01-.043-3.694-.432l-2.3,2.455s.072-3.636,1.656-4.752S68.155,165.18,68.155,165.18Z" transform="translate(-17.704 -45.984)" fill="url(#linear-gradient-58)"/>
        <path id="Trazado_117694" data-name="Trazado 117694" d="M63.918,170.826s-.346-2.318-1.476-1.67.079,2.448.965,2.34Z" transform="translate(-17.355 -47.332)" fill="url(#linear-gradient-59)"/>
        <path id="Trazado_117695" data-name="Trazado 117695" d="M67.985,224.17c0,.3.511,2.671.8,3.931a2.088,2.088,0,0,1-.223,1.5l-9.893,16.646a2.11,2.11,0,0,0-.259.648,14.134,14.134,0,0,0-.36,4.435l.511,1.066-2.218-.5-.482-5.94.626-.382a3,3,0,0,0,1.21-1.44,85.125,85.125,0,0,0,3.686-10.4c.648-3.067,4.054-5.551,4.054-5.551l-.6-1.44Z" transform="translate(-15.641 -62.768)" fill="url(#linear-gradient-60)"/>
        <path id="Trazado_117696" data-name="Trazado 117696" d="M53.12,258.139a13.262,13.262,0,0,0,1.354-2.635c.144-.72.533-2.038,1.267-1.642a42.4,42.4,0,0,1,.23,4.982c-.122,1.4,1.584,1.354,1.584,1.354a1.584,1.584,0,0,1,.814.41.4.4,0,0,1-.266.67,9.6,9.6,0,0,1-2.376-.137.72.72,0,0,1-.583-.67l-.245-4.126-1.526,1.915Z" transform="translate(-14.874 -71.061)" fill="url(#linear-gradient-61)"/>
        <path id="Trazado_117697" data-name="Trazado 117697" d="M62.571,227.688s-.346,14.89-.4,17.006.331,6.8,2.455,8.2l-.922.684a12.391,12.391,0,0,1-2.282-2.88,17.748,17.748,0,0,0-1.649-2.506l.425-.857a1.922,1.922,0,0,0,.151-1.217c-.461-2.218-1.987-9.59-2.4-11.182a7.157,7.157,0,0,1,1.188-6.48C60.85,226.356,62.571,227.688,62.571,227.688Z" transform="translate(-16.138 -63.636)" fill="url(#linear-gradient-62)"/>
        <path id="Trazado_117698" data-name="Trazado 117698" d="M61.256,262.254a.122.122,0,0,1-.13-.108,19.634,19.634,0,0,0-.6-3c-.274-.59-1.174-3.074,0-3.283,0,0,2.923,4.262,3.485,4.838a1.094,1.094,0,0,0,1.267.2,2.16,2.16,0,0,1,.958.72.382.382,0,0,1-.3.619H63.956a1.44,1.44,0,0,1-1.3-.871,7.366,7.366,0,0,0-1.634-2.7l.36,3.449a.13.13,0,0,1-.13.144Z" transform="translate(-16.781 -71.641)" fill="url(#linear-gradient-63)"/>
        <path id="Trazado_117699" data-name="Trazado 117699" d="M63.912,202.583a6.955,6.955,0,0,0,.238,3.744l4.219,14.753a.454.454,0,0,1-.281.554,28.079,28.079,0,0,1-11.1,1.346.641.641,0,0,1-.583-.5c-.374-1.685-1.649-7.423-1.915-8.6-1-4.493-1.966-8.77,2.945-11.7A9.41,9.41,0,0,0,63.912,202.583Z" transform="translate(-15.032 -56.61)" fill="url(#linear-gradient-64)"/>
        <path id="Trazado_117700" data-name="Trazado 117700" d="M59.463,183.63s-.857,12.161,7,6.055a5.285,5.285,0,0,1,2-1.231c.446-.072.958-.122,1.332-.151a.173.173,0,0,1,.108.31,2.268,2.268,0,0,1-.929.425c-.59.058,0,.5-.6,1.627a1.217,1.217,0,0,1-1.57.72s-9,9.216-10.8-6.854C55.942,181.527,58.822,181.686,59.463,183.63Z" transform="translate(-15.68 -51.02)" fill="url(#linear-gradient-65)"/>
        <path id="Trazado_117701" data-name="Trazado 117701" d="M80.888,185.961l-2.671-.353a.857.857,0,0,0-.85.482l-1.757,3.881c-.331.583-.094,1.354.439,1.44l2.16.274a.518.518,0,0,0,.533-.324l2.376-4.745C81.205,186.343,81.1,186,80.888,185.961Z" transform="translate(-21.128 -51.969)" fill="url(#linear-gradient-66)"/>
        <path id="Trazado_117702" data-name="Trazado 117702" d="M80.015,191.889s1.793-2.614,1.584-2.938a6.973,6.973,0,0,0-2.16-.893C79.064,187.951,78.38,190.319,80.015,191.889Z" transform="translate(-22.112 -52.655)" fill="url(#linear-gradient-67)"/>
        <path id="Trazado_117703" data-name="Trazado 117703" d="M40.728,191.719a.094.094,0,0,0,.094-.058.1.1,0,0,0-.058-.13,6.545,6.545,0,0,1-3.283-9.266c1.282-2.275,3.73-3.55,6.1-4.781l.288-.151c2.556-1.332,5.04-2.916,5.969-5.494a.094.094,0,0,0-.058-.122.1.1,0,0,0-.13.058c-.893,2.506-3.348,4.075-5.875,5.386l-.288.151c-2.39,1.246-4.867,2.527-6.17,4.86a6.725,6.725,0,0,0,3.377,9.54Z" transform="translate(-10.207 -48.079)" fill="#fff" opacity="0.75"/>
        <path id="Trazado_117704" data-name="Trazado 117704" d="M44.064,194.749a.1.1,0,0,0,.094-.072.108.108,0,0,0-.072-.122,6.8,6.8,0,0,1-4.45-3.326,4.673,4.673,0,0,1,.677-5.292.1.1,0,0,0,0-.137.108.108,0,0,0-.144,0,4.882,4.882,0,0,0-.72,5.515,7.006,7.006,0,0,0,4.565,3.434Z" transform="translate(-10.893 -52.016)" fill="#fff" opacity="0.75"/>
        <path id="Trazado_117705" data-name="Trazado 117705" d="M231.292,46.448l-13.342-.72A1.814,1.814,0,0,0,216,47.643l.346,12.24a1.8,1.8,0,0,0,1.93,1.721l12.686-.562a1.75,1.75,0,0,0,1.6-1.742l.31-10.987a1.771,1.771,0,0,0-1.577-1.865Z" transform="translate(-60.479 -12.802)" fill="url(#linear-gradient-68)"/>
        <path id="Trazado_117706" data-name="Trazado 117706" d="M225.46,59.79a5.04,5.04,0,1,1,5.04-5.04,5.04,5.04,0,0,1-5.04,5.04Zm0-9.209a4.183,4.183,0,1,0,4.183,4.183,4.183,4.183,0,0,0-4.183-4.183Z" transform="translate(-61.718 -13.919)" fill="#fff"/>
        <path id="Trazado_117707" data-name="Trazado 117707" d="M225.23,57.826v-3.6a.5.5,0,0,1,.756-.425l3.046,1.807a.5.5,0,0,1,0,.857l-3.046,1.778a.5.5,0,0,1-.756-.418Z" transform="translate(-63.064 -15.044)" fill="#fff" fill-rule="evenodd"/>
        <path id="Trazado_117708" data-name="Trazado 117708" d="M82.554,36.147l-13.306-.7a1.814,1.814,0,0,0-1.93,1.894l.346,12.24a1.807,1.807,0,0,0,1.93,1.721l12.614-.6A1.742,1.742,0,0,0,83.8,49L84.124,38a1.742,1.742,0,0,0-1.57-1.858Z" transform="translate(-18.849 -9.925)" fill="#febc7c"/>
        <path id="Trazado_117709" data-name="Trazado 117709" d="M80.353,48.618H73.239a.6.6,0,0,1-.576-.432L70.647,41.4l-2.03-.266a.6.6,0,1,1,.158-1.2l2.419.317a.6.6,0,0,1,.5.425l2,6.732h6.163l.914-4.817a.6.6,0,0,1,1.181.223l-.979,5.27a.612.612,0,0,1-.619.533Z" transform="translate(-19.052 -11.178)" fill="#fff"/>
        <path id="Trazado_117710" data-name="Trazado 117710" d="M82.222,43.771h-9.4a.6.6,0,1,1,0-1.2h9.4a.6.6,0,1,1,0,1.2Z" transform="translate(-20.202 -11.918)" fill="#fff"/>
        <path id="Trazado_117711" data-name="Trazado 117711" d="M77.365,48.764a.612.612,0,0,1-.6-.6V43.335a.6.6,0,1,1,1.21,0v4.824A.612.612,0,0,1,77.365,48.764Z" transform="translate(-21.493 -11.964)" fill="#fff"/>
        <path id="Trazado_117712" data-name="Trazado 117712" d="M82.055,48.764a.612.612,0,0,1-.6-.6V43.335a.6.6,0,1,1,1.21,0v4.824A.612.612,0,0,1,82.055,48.764Z" transform="translate(-22.806 -11.964)" fill="#fff"/>
        <path id="Trazado_117713" data-name="Trazado 117713" d="M82.046,47.46h-8.2a.6.6,0,0,1,0-1.21h8.2a.6.6,0,1,1,0,1.21Z" transform="translate(-20.507 -12.95)" fill="#fff"/>
        <path id="Trazado_117714" data-name="Trazado 117714" d="M77.345,53.6A.835.835,0,1,1,77.1,53a.842.842,0,0,1,.245.6Z" transform="translate(-21.185 -14.773)" fill="#fff"/>
        <path id="Trazado_117715" data-name="Trazado 117715" d="M84.495,53.6a.842.842,0,1,1-.828-.842A.842.842,0,0,1,84.495,53.6Z" transform="translate(-23.187 -14.773)" fill="#fff"/>
        <path id="Trazado_117716" data-name="Trazado 117716" d="M134.256,68.269l-13.342-.72A1.814,1.814,0,0,0,119,69.464l.346,12.24a1.8,1.8,0,0,0,1.922,1.721l12.672-.626a1.75,1.75,0,0,0,1.62-1.678l.31-10.994a1.75,1.75,0,0,0-1.613-1.858Z" transform="translate(-33.319 -18.913)" fill="url(#linear-gradient-69)"/>
        <path id="Trazado_117717" data-name="Trazado 117717" d="M133.02,81.245h-9.36a1.44,1.44,0,0,1-1.44-1.44V73.03a1.44,1.44,0,0,1,1.44-1.44h9.36a1.44,1.44,0,0,1,1.44,1.44v6.775A1.44,1.44,0,0,1,133.02,81.245Zm-9.36-8.438a.252.252,0,0,0-.252.245v6.754a.252.252,0,0,0,.252.252h9.36a.252.252,0,0,0,.252-.252V73.03a.245.245,0,0,0-.252-.245Z" transform="translate(-34.222 -20.045)" fill="#fff"/>
        <path id="Trazado_117718" data-name="Trazado 117718" d="M128.307,77.266a.59.59,0,0,1-.353-.115l-5.234-3.715a.59.59,0,0,1-.144-.835.6.6,0,0,1,.842-.144l4.889,3.463,4.824-3.427a.611.611,0,0,1,.72.986l-5.2,3.658a.554.554,0,0,1-.346.13Z" transform="translate(-34.29 -20.257)" fill="#fff"/>
        <path id="Trazado_117719" data-name="Trazado 117719" d="M123.2,82.4l-.187-1.2.086.6-.5-.324c.108-.173,1.987-3.463,3.226-5.638a.6.6,0,0,1,1.051.6s-.806,1.44-1.62,2.83c-.4.72-.806,1.44-1.116,1.951C123.493,82.35,123.493,82.35,123.2,82.4Z" transform="translate(-34.328 -21.15)" fill="#fff"/>
        <path id="Trazado_117720" data-name="Trazado 117720" d="M136.245,82.458c-.288-.05-.288-.05-.943-1.181l-1.116-1.951-1.613-2.83a.6.6,0,0,1,1.022-.569c1.238,2.16,3.125,5.465,3.233,5.638l-.511.324Z" transform="translate(-37.115 -21.208)" fill="#fff"/>
        <path id="Trazado_117721" data-name="Trazado 117721" d="M273.263,83.559l-13.342-.72A1.814,1.814,0,0,0,258,84.754l.338,12.24a1.807,1.807,0,0,0,1.93,1.721l12.672-.626a1.75,1.75,0,0,0,1.591-1.706l.31-10.994a1.75,1.75,0,0,0-1.577-1.829Z" transform="translate(-72.239 -23.194)" fill="url(#linear-gradient-70)"/>
        <path id="Trazado_117722" data-name="Trazado 117722" d="M269.118,86.992a.338.338,0,0,0-.454.324v6.156a2.88,2.88,0,0,0-1.836-.619,2.1,2.1,0,1,0,2.556,2.045h0V88.771a3.175,3.175,0,0,1,2.1,1.548.31.31,0,0,0,.562-.187C272,88.238,270.033,87.338,269.118,86.992Z" transform="translate(-73.998 -24.352)" fill="#fff"/>
        <path id="Trazado_117723" data-name="Trazado 117723" d="M168.591,111.779l-13.342-.72a1.814,1.814,0,0,0-1.93,1.886l.346,12.24a1.8,1.8,0,0,0,1.922,1.721l12.672-.626a1.742,1.742,0,0,0,1.591-1.706l.31-10.987A1.757,1.757,0,0,0,168.591,111.779Z" transform="translate(-42.929 -31.095)" fill="url(#linear-gradient-71)"/>
        <path id="Trazado_117724" data-name="Trazado 117724" d="M160.271,128.192a1.534,1.534,0,1,1,1.089-.447A1.541,1.541,0,0,1,160.271,128.192Zm0-2.462a.918.918,0,1,1,0,.022Z" transform="translate(-44.444 -35.031)" fill="#fff"/>
        <path id="Trazado_117725" data-name="Trazado 117725" d="M160.6,122.345a3.283,3.283,0,0,1,3.283,3.283,2.557,2.557,0,0,1,0,.331.23.23,0,0,0,.259.245l.475-.072a.223.223,0,0,0,.194-.2q0-.151,0-.3a4.226,4.226,0,0,0-4.716-4.169.223.223,0,0,0-.194.259l.079.468a.223.223,0,0,0,.245.18,3.52,3.52,0,0,1,.374-.022Z" transform="translate(-44.771 -34.001)" fill="#fff"/>
        <path id="Trazado_117726" data-name="Trazado 117726" d="M160.437,119.06a5.659,5.659,0,0,1,5.652,5.652h0a.223.223,0,0,0,.252.223l.468-.072.194-.223a6.574,6.574,0,0,0-6.566-6.48,6.386,6.386,0,0,0-.922.065.216.216,0,0,0-.187.259l.079.461a.223.223,0,0,0,.245.187,5.674,5.674,0,0,1,.785-.072Z" transform="translate(-44.611 -33.085)" fill="#fff"/>
        <path id="Trazado_117727" data-name="Trazado 117727" d="M160.275,115.766a8.028,8.028,0,0,1,8.014,7.675.223.223,0,0,0,.259.216l.461-.072a.223.223,0,0,0,.194-.23,8.921,8.921,0,0,0-10.274-8.4.223.223,0,0,0-.18.259l.079.461a.223.223,0,0,0,.252.187,7.921,7.921,0,0,1,1.2-.1Z" transform="translate(-44.449 -32.159)" fill="#fff"/>
        <path id="Trazado_117728" data-name="Trazado 117728" d="M161.477,37.617l-10.886-.569A1.476,1.476,0,0,0,149,38.589L149.28,48.6a1.44,1.44,0,0,0,1.577,1.4l10.382-.511a1.44,1.44,0,0,0,1.3-1.39l.223-8.935A1.44,1.44,0,0,0,161.477,37.617Z" transform="translate(-41.719 -10.372)" fill="url(#linear-gradient-72)"/>
        <path id="Trazado_117729" data-name="Trazado 117729" d="M160.7,39.4H153c-.72,0-1.692.533-1.692,1.267v4.32c0,.72.986,1.21,1.692,1.21h5.285c.187,0,.252.418.252.6v.634c0,.259.274.353.4.4a.554.554,0,0,0,.3.108.389.389,0,0,0,.288-.122l1.13-1.346c.72,0,1.008-.778,1.008-1.483v-4.32C161.678,39.969,161.4,39.4,160.7,39.4Zm.259,5.551c0,.331,0,.72-.259.72h-.252l-1.44,1.361v-.95c0-.187.137-.4-.05-.4H152.98c-.331,0-.972-.4-.972-.72v-4.1c0-.482.641-.475.972-.475h7.7c.324,0,.259,0,.259.3Z" transform="translate(-42.367 -11.032)" fill="#fff"/>
        <path id="Trazado_117730" data-name="Trazado 117730" d="M160.794,42.328a.245.245,0,0,1-.238.245h-7a.245.245,0,0,1-.238-.245h0a.238.238,0,0,1,.238-.238h7A.238.238,0,0,1,160.794,42.328Z" transform="translate(-42.93 -11.785)" fill="#fff"/>
        <path id="Trazado_117731" data-name="Trazado 117731" d="M160.794,44a.238.238,0,0,1-.238.238h-7A.238.238,0,0,1,153.32,44h0a.245.245,0,0,1,.238-.245h7A.245.245,0,0,1,160.794,44Z" transform="translate(-42.93 -12.253)" fill="#fff"/>
        <path id="Trazado_117732" data-name="Trazado 117732" d="M160.794,46.348a.245.245,0,0,1-.238.245h-7a.245.245,0,0,1-.238-.245h0a.238.238,0,0,1,.238-.238h7A.238.238,0,0,1,160.794,46.348Z" transform="translate(-42.93 -12.911)" fill="#fff"/>
        <path id="Trazado_117733" data-name="Trazado 117733" d="M120.446,41.882l-5.9-.3a.792.792,0,0,0-.85.835l.151,5.422a.8.8,0,0,0,.85.756l5.6-.274a.77.77,0,0,0,.72-.72l.137-4.853a.778.778,0,0,0-.713-.864Z" transform="translate(-31.835 -11.642)" fill="#fff"/>
        <path id="Trazado_117734" data-name="Trazado 117734" d="M134.474,28.586l-4.1-.216a.562.562,0,0,0-.6.583l.108,3.773a.554.554,0,0,0,.59.526l3.9-.194a.54.54,0,0,0,.49-.526l.094-3.377a.54.54,0,0,0-.482-.569Z" transform="translate(-36.338 -7.943)" fill="#fff"/>
        <path id="Trazado_117735" data-name="Trazado 117735" d="M156.048,91.111l-4.81-.252a.655.655,0,0,0-.72.72L150.641,96a.648.648,0,0,0,.72.619l4.543-.259a.634.634,0,0,0,.576-.619l.115-3.96A.634.634,0,0,0,156.048,91.111Z" transform="translate(-42.144 -25.439)" fill="#fff"/>
        <path id="Trazado_117736" data-name="Trazado 117736" d="M177.069,103.372l-2.383-.122a.331.331,0,0,0-.346.338l.065,2.16a.324.324,0,0,0,.346.31l2.261-.115a.31.31,0,0,0,.281-.3l.058-1.958a.324.324,0,0,0-.281-.31Z" transform="translate(-48.815 -28.91)" fill="#fff"/>
        <path id="Trazado_117737" data-name="Trazado 117737" d="M15.108,104.9l-4.81-.252a.655.655,0,0,0-.72.72l.122,4.421a.655.655,0,0,0,.72.619l4.565-.223a.626.626,0,0,0,.576-.619l.108-3.96a.626.626,0,0,0-.562-.706Z" transform="translate(-2.681 -29.301)" fill="#fff"/>
        <path id="Trazado_117738" data-name="Trazado 117738" d="M36.121,117.162l-2.376-.122a.317.317,0,0,0-.346.331l.065,2.16a.317.317,0,0,0,.367.36l2.261-.115a.317.317,0,0,0,.288-.3l.05-1.958a.31.31,0,0,0-.31-.353Z" transform="translate(-9.352 -32.771)" fill="#fff"/>
        <path id="Trazado_117739" data-name="Trazado 117739" d="M71.8,60.324,68.1,60.13a.5.5,0,0,0-.533.526l.094,3.4a.5.5,0,0,0,.533.475l3.506-.173a.475.475,0,0,0,.439-.468l.058-3.046a.49.49,0,0,0-.4-.518Z" transform="translate(-18.919 -16.836)" fill="#fff"/>
        <path id="Trazado_117740" data-name="Trazado 117740" d="M134.435,230.408a.511.511,0,0,1-.2-.043l-2.081-.857a.518.518,0,0,1-.324-.511l.1-1.678a8.64,8.64,0,0,1-1.685-1.678l-1.678.108a.518.518,0,0,1-.511-.317l-.871-2.088a.526.526,0,0,1,.137-.583l1.26-1.116a8.475,8.475,0,0,1,0-2.376l-1.26-1.116a.511.511,0,0,1-.137-.583l.857-2.088a.518.518,0,0,1,.511-.324l1.678.1a8.849,8.849,0,0,1,1.678-1.685l-.1-1.678a.511.511,0,0,1,.317-.511l2.081-.864a.511.511,0,0,1,.583.13l1.123,1.26a8.475,8.475,0,0,1,2.376,0l1.116-1.26a.511.511,0,0,1,.583-.137l2.088.857a.518.518,0,0,1,.317.511l-.1,1.685a8.416,8.416,0,0,1,1.685,1.67l1.678-.1a.518.518,0,0,1,.511.317l.871,2.081a.518.518,0,0,1-.137.583l-1.26,1.123a8.474,8.474,0,0,1,0,2.376l1.26,1.116a.511.511,0,0,1,.137.583l-.857,2.088a.518.518,0,0,1-.511.317l-1.678-.1a8.641,8.641,0,0,1-1.678,1.685l.108,1.685a.518.518,0,0,1-.317.5l-2.088.871a.511.511,0,0,1-.583-.137l-1.123-1.253a8.755,8.755,0,0,1-2.376,0l-1.109,1.267a.54.54,0,0,1-.389.166Zm.079-.72ZM139.734,229.688Zm-7.2-.792,1.814.72,1.282-1.44h.194a7.92,7.92,0,0,0,2.542,0h.194l1.282,1.44,1.814-.756-.122-1.93.166-.115a7.7,7.7,0,0,0,1.786-1.8l.122-.158,1.93.108.72-1.814-1.44-1.274.036-.2a7.877,7.877,0,0,0,0-2.534v-.2l1.44-1.282-.749-1.764-1.93.122-.115-.158a7.733,7.733,0,0,0-1.8-1.793l-.158-.115.108-1.937-1.814-.72-1.274,1.44h-.2a7.877,7.877,0,0,0-2.534,0l-.2.036-1.282-1.44-1.814.756.122,1.93-.166.115a7.848,7.848,0,0,0-1.786,1.8l-.115.166-1.937-.115-.72,1.814,1.44,1.282v.194a7.92,7.92,0,0,0,0,2.542l.036.194-1.44,1.282.72,1.814,1.93-.122.115.166a7.877,7.877,0,0,0,1.8,1.793l.166.115ZM141.664,229.026ZM145.681,224.994ZM132.361,212.034ZM134.449,211.163Zm-.144-.331Zm2.822,15.415a5.81,5.81,0,0,1-5.76-6.646.367.367,0,0,1,.41-.3.36.36,0,0,1,.31.41,5.083,5.083,0,1,0,3.074-3.967,5.76,5.76,0,0,0-.95.518.36.36,0,1,1-.41-.59,5.7,5.7,0,0,1,1.087-.6,5.81,5.81,0,1,1,2.239,11.174Z" transform="translate(-35.601 -58.933)" fill="#fff"/>
        <path id="Trazado_117741" data-name="Trazado 117741" d="M140.07,225.773a2.333,2.333,0,0,1-1.44-.432A2.369,2.369,0,0,1,139.7,221.1h0a2.369,2.369,0,0,1,2.246,3.751,2.333,2.333,0,0,1-1.555.929,1.9,1.9,0,0,1-.317-.007Zm-.23-4a1.651,1.651,0,1,0,1.2.31,1.67,1.67,0,0,0-1.217-.31Z" transform="translate(-38.55 -61.901)" fill="#fff"/>
        <path id="Trazado_117742" data-name="Trazado 117742" d="M160.1,239.178a.439.439,0,0,1-.4-.252l-.3-.648a4.371,4.371,0,0,1-.95-.281l-.6.367a.432.432,0,0,1-.5,0l-.842-.72a.432.432,0,0,1-.13-.49l.245-.662a4.147,4.147,0,0,1-.475-.878l-.72-.158a.446.446,0,0,1-.331-.382l-.094-1.08a.432.432,0,0,1,.252-.446l.648-.3a4.492,4.492,0,0,1,.281-.95l-.374-.6a.446.446,0,0,1,.036-.5l.72-.842a.432.432,0,0,1,.49-.13l.662.245a4.117,4.117,0,0,1,.878-.468l.158-.72a.446.446,0,0,1,.382-.331l1.08-.108a.418.418,0,0,1,.439.252l.3.648a4.492,4.492,0,0,1,.95.281l.6-.367a.432.432,0,0,1,.5,0l.842.72a.425.425,0,0,1,.13.482l-.245.67a4.118,4.118,0,0,1,.468.878l.72.158a.446.446,0,0,1,.338.382l.108,1.08a.439.439,0,0,1-.252.439l-.648.3a4.025,4.025,0,0,1-.288.95l.374.6a.432.432,0,0,1,0,.5l-.72.842a.425.425,0,0,1-.482.13l-.67-.245a3.815,3.815,0,0,1-.878.468l-.166.72a.439.439,0,0,1-.382.331l-1.08.108Zm-1.692-2.009.18.086a3.479,3.479,0,0,0,1.109.338h.194l.382.814.67-.065.209-.878.187-.065a3.506,3.506,0,0,0,1.022-.547l.158-.122.842.31.432-.518-.475-.77.086-.18a3.479,3.479,0,0,0,.338-1.109v-.2l.814-.374-.065-.67-.878-.209-.065-.187a3.506,3.506,0,0,0-.547-1.022l-.122-.158.31-.85-.526-.425-.763.475-.18-.086a3.536,3.536,0,0,0-1.109-.338h-.2l-.374-.814-.67.065-.209.878-.187.065a3.42,3.42,0,0,0-1.022.547l-.158.122-.85-.31-.425.518.475.77-.094.18a3.723,3.723,0,0,0-.331,1.109v.2l-.814.374.065.67.878.209.065.187a3.508,3.508,0,0,0,.547,1.022l.122.158-.31.85.518.425ZM161.148,238.35Zm2.1-1.123ZM163.963,236.391ZM155.6,234.231Zm.85-2.563ZM156.453,231.337Zm6.941-.367ZM156.8,230.919ZM162.89,230.307ZM160.01,229.436Zm.252-.194Zm-.05,7.8a2.988,2.988,0,0,1-2.959-2.686,2.88,2.88,0,0,1,.266-1.562.361.361,0,1,1,.655.3,2.262,2.262,0,1,0,3.47-.785,2.225,2.225,0,0,0-1.656-.5,2.073,2.073,0,0,0-.468.094.36.36,0,0,1-.223-.684,3.062,3.062,0,0,1,.619-.13,2.981,2.981,0,1,1,.6,5.933Z" transform="translate(-43.399 -64.074)" fill="#fff"/>
      </g>
    </g>
  </g>
</svg>
