<svg xmlns="http://www.w3.org/2000/svg" width="448.5" height="377.938" viewBox="0 0 448.5 377.938">
  <g id="Grupo_55013" data-name="Grupo 55013" transform="translate(-265 -4824.826)">
    <g id="CF1_mapa" transform="translate(252.65 4795.886)">
      <g id="Grupo_54960" data-name="Grupo 54960" transform="translate(284.704 39.555)" opacity="0.4">
        <path id="Trazado_107225" data-name="Trazado 107225" d="M582.308,72.951l6.109-25.941-44.38,3.842,29.542,17.059L552.537,55.763l-76.547,44.2,21.265,12.271L573.8,68.04Z" transform="translate(-475.99 -47.01)" fill="#12263f"/>
        <path id="Trazado_107226" data-name="Trazado 107226" d="M657.336,156.073,606.3,185.538l21.265,12.277L678.6,168.35l-10.632-6.139L687.1,173.261l6.115-25.941-44.386,3.848Z" transform="translate(-529.753 -88.395)" fill="#12263f"/>
        <path id="Trazado_107227" data-name="Trazado 107227" d="M634.7,82.81,541.15,136.824,562.415,149.1l93.554-54.014Z" transform="translate(-502.873 -61.78)" fill="#12263f"/>
        <path id="Trazado_107228" data-name="Trazado 107228" d="M730.32,67.91l-44.38,3.842,38.271,22.1Z" transform="translate(-562.61 -55.633)" fill="#12263f"/>
      </g>
      <g id="arrow_chart" data-name="arrow=chart" transform="translate(284.704 29.04)">
        <path id="Trazado_107229" data-name="Trazado 107229" d="M591.83,35.65l38.271,22.1V62.66l-38.271-22.1Z" transform="translate(-523.783 -31.808)" fill="#fd8f25"/>
        <path id="Trazado_107230" data-name="Trazado 107230" d="M475.99,88.208l21.265,12.271L573.8,56.287,552.537,44.01Z" transform="translate(-475.99 -35.257)" fill="#febc7c"/>
        <path id="Trazado_107231" data-name="Trazado 107231" d="M512.19,109.1v4.911l76.547-44.192V64.91Z" transform="translate(-490.925 -43.88)" fill="#bd6b1c"/>
        <path id="Trazado_107232" data-name="Trazado 107232" d="M475.99,119.25v4.911l21.265,12.271v-4.911Z" transform="translate(-475.99 -66.299)" fill="#fd8f25"/>
        <path id="Trazado_107233" data-name="Trazado 107233" d="M591.83,32.952l44.38-3.842L630.1,55.051Z" transform="translate(-523.783 -29.11)" fill="#febc7c"/>
        <path id="Trazado_107234" data-name="Trazado 107234" d="M656.98,59.962l6.109-25.935V29.11L656.98,55.051Z" transform="translate(-550.662 -29.11)" fill="#c99a31"/>
        <path id="Trazado_107235" data-name="Trazado 107235" d="M678.7,135.96l38.271,22.1v4.911l-38.271-22.1Z" transform="translate(-559.623 -73.194)" fill="#ee2a66"/>
        <path id="Trazado_107236" data-name="Trazado 107236" d="M606.3,173.785l21.265,12.277L678.6,156.6,657.336,144.32Z" transform="translate(-529.753 -76.643)" fill="#f15584"/>
        <path id="Trazado_107237" data-name="Trazado 107237" d="M642.5,194.685V199.6l51.036-29.465V165.22Z" transform="translate(-544.688 -85.265)" fill="#b2204d"/>
        <path id="Trazado_107238" data-name="Trazado 107238" d="M606.3,194.48v4.911l21.265,12.277v-4.911Z" transform="translate(-529.753 -97.337)" fill="#ed4346"/>
        <path id="Trazado_107239" data-name="Trazado 107239" d="M678.7,133.262l44.386-3.842-6.115,25.941Z" transform="translate(-559.623 -70.495)" fill="#f15584"/>
        <path id="Trazado_107240" data-name="Trazado 107240" d="M743.85,160.362l6.115-25.935V129.51l-6.115,25.941Z" transform="translate(-586.502 -70.532)" fill="#b2204d"/>
        <path id="Trazado_107241" data-name="Trazado 107241" d="M685.94,56.55l38.271,22.1V83.56l-38.271-22.1Z" transform="translate(-562.61 -40.431)" fill="#d6cdf9"/>
        <path id="Trazado_107242" data-name="Trazado 107242" d="M542.86,118.924,564.125,131.2l93.559-54.014L636.419,64.91Z" transform="translate(-503.579 -43.88)" fill="#d6cdf9"/>
        <path id="Trazado_107243" data-name="Trazado 107243" d="M577.35,139.824v4.911L670.9,90.721V85.81Z" transform="translate(-517.808 -52.503)" fill="#9182ca"/>
        <path id="Trazado_107244" data-name="Trazado 107244" d="M541.01,156.86l-.2,4.911,21.259,12.277.206-4.911Z" transform="translate(-502.733 -81.816)" fill="#d6cdf9"/>
        <path id="Trazado_107245" data-name="Trazado 107245" d="M685.94,53.852l44.38-3.842-6.109,25.941Z" transform="translate(-562.61 -37.733)" fill="#d6cdf9"/>
        <path id="Trazado_107246" data-name="Trazado 107246" d="M751.09,80.862,757.2,54.927V50.01L751.09,75.951Z" transform="translate(-589.489 -37.733)" fill="#6c58b8"/>
      </g>
      <path id="Trazado_107247" data-name="Trazado 107247" d="M12.35,384.957,278.125,231.51,460.85,336.982,195.069,490.453Z" transform="translate(0 -83.575)" fill="#12263f" opacity="0.4"/>
      <path id="Trazado_107248" data-name="Trazado 107248" d="M460.85,330.233l-83.056,28.778-83.056,67.131-83.056,28.772L12.35,339.825l83.056-28.766,83.056-67.137,83.05-28.772Z" transform="translate(0 -76.825)" fill="#fff"/>
      <path id="Trazado_107249" data-name="Trazado 107249" d="M223.349,451.035l74.75-23.973,83.056-67.137,74.75-25.905L272.8,229,198.43,254.436l-83.05,67.131L40.63,346.221Z" transform="translate(-11.668 -82.54)" fill="#9182ca"/>
      <g id="Colombia" transform="translate(122.89 189.907)">
        <path id="Trazado_107250" data-name="Trazado 107250" d="M224.175,364h-.035Z" transform="translate(-210.269 -328.144)" fill="#fcbc40"/>
        <g id="Grupo_54961" data-name="Grupo 54961">
          <path id="Trazado_107251" data-name="Trazado 107251" d="M224.26,363.876a4.384,4.384,0,0,1,.587-.176,3.421,3.421,0,0,0-.535.159Z" transform="translate(-210.319 -328.02)" fill="#fcbc40"/>
          <path id="Trazado_107252" data-name="Trazado 107252" d="M346.211,425.985c-.587.8-1.175,2.966-3.231,3.031a5.1,5.1,0,0,1-2.273-.464c-.311-.182-.476-.411-.329-.687.276-.587,1.815-.975,2.5-1.3a9.521,9.521,0,0,0,2.9-2,6.835,6.835,0,0,0,1.239-2.726,3.9,3.9,0,0,1,.546-1.11c.135-.188.64-.529.7-.723l-.8-1.175-.9-.241a10.907,10.907,0,0,0-1.469-.176,17.4,17.4,0,0,0-2.074,0c-1.339.082-2.661.317-4.018.311a6.168,6.168,0,0,1-2.855-.617,1.6,1.6,0,0,1-.717-.723c-.188-.423.076-.687.405-1.057.458-.858.405-1.245.188-1.369-1.715.258-2.579,1.087-2.42,1.621-3.26-1.762-6.432-3.607-9.61-5.416-1.128-.652-2.285-1.292-3.419-1.944-.394-.223-.781-.452-1.175-.681a5.386,5.386,0,0,1-1.175-1.01,4.852,4.852,0,0,0-1.122-.869,8.977,8.977,0,0,0-1.574-.687,4.657,4.657,0,0,0-3.724-.164c-.723.358-1.122.958-1.827,1.339-.529.282-1.175.411-1.762.652-1.5.652-1.891,1.762-1.051,2.714a3.524,3.524,0,0,0,.928.74,12.338,12.338,0,0,0,1.539.7,13.207,13.207,0,0,1,1.568.728,1.545,1.545,0,0,1,.587.535,1.3,1.3,0,0,1,.141.493c.1.67.188.887.423,1.1a.91.91,0,0,1-.458-.711c-.112.047-.206.54-.2.54a1.657,1.657,0,0,1-.37.482,23.165,23.165,0,0,1-1.927,1.621,1.386,1.386,0,0,1-1.692.335,2.251,2.251,0,0,1-.711-.264,3.789,3.789,0,0,1-1.057-.8c-.305-.405,0-.717-.135-1.081a1.222,1.222,0,0,0-.552-.723c-.746-.429-1.944,0-2.937-.3a11.949,11.949,0,0,0-2.485-.922c-.711-.223-1.075-.587-1.762-.817-1.762-.658-3.66.488-4.805,1.11-2.056,1.116-4.042,2.432-4.817,4.036a2.8,2.8,0,0,0-.141,2.3,22.063,22.063,0,0,0,1.228,1.95c.141.27.241.476,0,.746-2.661,1.38-3.6,1.416-3.994,2.156a3.761,3.761,0,0,0-.135,2.179c0,.229.094.587-.2.8-.493.347-1.251.247-1.545.852-.094.2.153.364-.041.587-.282.323-1.046.317-1.563.4a18.333,18.333,0,0,0-3.4.928,100.639,100.639,0,0,0-12.336,5.14,44.34,44.34,0,0,1-5.5,2.35c-1.909.658-3.436,1.7-5.422,2.279a10.7,10.7,0,0,0-1.88.535l-1.6.587q-1.868.717-3.707,1.451-3.677,1.469-7.243,3.037c-1.651-1.762,1.351-3.572.123-5.328a2.014,2.014,0,0,0-.681-.587,7.635,7.635,0,0,0-1.292-.587,8.73,8.73,0,0,1-1.292-.558,2.162,2.162,0,0,1-.552-.429c-.311-.347-.482-.828,0-1.175.587-.452,2.209-.458,3.178-.54,2.314-.253,3.871-.435,5.422-.629q2.908-.364,5.786-.77c.464-.07,1.11-.123,1.8-.206l1.474-.217c1.316-.253,2.385-.681,2.091-1.533-.094-.264-.517-.587-.658-.869-.217-.441-.376-.9-.587-1.345-.488-1.034-1.075-2.056-1.645-3.078s-1.116-2.038-1.762-3.037c-.129-.194-.341-.687-.587-.846a1.974,1.974,0,0,0-1.38-.17,21.445,21.445,0,0,1-2.314-.652,5.681,5.681,0,0,1-1.762-.347,3.09,3.09,0,0,1-1.51-1.762,4.735,4.735,0,0,0-.77-1.627,2.531,2.531,0,0,0-.693-.587,6.544,6.544,0,0,0-2.685-.587,14.474,14.474,0,0,1-2.878-.64c-.993-.282-2.009-.435-2.937-.617a13.022,13.022,0,0,1-1.345-.3,6.12,6.12,0,0,1-1.375-.558,3.331,3.331,0,0,1-1.022-.881,5.439,5.439,0,0,1-.864-1.568,6.526,6.526,0,0,1-1.85-.37c-.558-.341-.7-.546-1.21-.846-1.521-1.081-1.122-1.439-1.175-1.762s-.352-.587-.382-.911c-.053-.482.358-.793.969-1.1a9.85,9.85,0,0,0,2.267-1.216,4.605,4.605,0,0,0,1.087-1.457c.47-1.034-1.21-1.521-1.9-2.35-.258-1.333.358-1.762,1.351-2.021s1.3-.4,1.486-1.2c.164-1.116.834-1.38.253-2.009-.258-.27-.587-.523-.858-.793a4.7,4.7,0,0,1-1.257-2.109c-.217-.858,0-1.6-.911-2.35-.64-.54-.587-.9-.358-1.263a5.139,5.139,0,0,0,.94-1.269c.07-.176,0-.394.106-.558.223-.341.787-.558,1.087-.875a2.557,2.557,0,0,0,.247-2.814,5.052,5.052,0,0,1-.587-1.833c.1-.8.587-1.175-.3-1.762-.587-.435-.858-.7-.84-1.263a1.762,1.762,0,0,0-.305-1.057c-1.657-.922-2.015-1.069-2.35-1.234a3.854,3.854,0,0,1-1.721-2.179,4.9,4.9,0,0,0-1.7-2.35,2.99,2.99,0,0,1-1.134-1.257c-.458-1.339.405-2.779-.7-4.018a3.684,3.684,0,0,0-.77-.693l-2.126-.211c-.37.059-.693.323-1.051.417-.864.211-1.122-.029-1.956-.2a12.337,12.337,0,0,1-1.88-1.692,8.9,8.9,0,0,0-1.345-.934c-.517-.3-1.063-.587-1.662-.869-.958-.54-1.41-.887-1.539-1.322-.047-.153.029-.317,0-.464-.164-.546-.846-.869-1.386-1.292s-1.175-.858-1.257-1.38.517-.8,1.11-1.175c1.457-.975.229-1.222,0-2.256-.153-.587.358-1.175-.112-1.762a29.145,29.145,0,0,1-2.8-3.313,7.033,7.033,0,0,1-1.5-3.1,2.538,2.538,0,0,0-.535-1.762,1.88,1.88,0,0,1-.417-.91,12.549,12.549,0,0,0-.229-1.762,1.822,1.822,0,0,1-.159-.94c.129-.493.752-.822.5-1.375-.17-.37-.981-.846-.828-1.263s.8-.329,1.433-.329c1.275,0,2.884-.088,3.895.47a5.668,5.668,0,0,1,1.022.858,3.885,3.885,0,0,0,.587.452,1.627,1.627,0,0,0,1.275.159c.752-.182,1.657-1.175.981-1.586a13.147,13.147,0,0,0,2.185-1.433c.217-.176.217-.27.517-.417a6.035,6.035,0,0,1,1.651-.446,7.4,7.4,0,0,1,1.245-.376,8.649,8.649,0,0,1,.946-.147c1.093,0,1.833.053,2.555.088a18.569,18.569,0,0,1,3.4.253,8.759,8.759,0,0,1,1.815.787c.681.488.811.693.687,1.022.065.822.4.84.758.693a6.126,6.126,0,0,1,1.175.117,10.157,10.157,0,0,0,4.112.135c.828-.147,1.392-.358,2.191-.446.993-.117,1.345-.317,2.15-.458.546-.1,1.339-.094,1.886-.17a32.177,32.177,0,0,1,4.67-.288c1.392-.065,2.908-.041,4.282-.164a3.037,3.037,0,0,0,2.35-.781c.217-.634.311-.323.247-1.14a3.889,3.889,0,0,1,.164-1.222l.053-.587c-.065-1.234.17-2.972,2.473-3.1.787-.047,1.533.135,2.35.076a14.2,14.2,0,0,0,5.915-2.35c.587-.5.864-1.1,1.433-1.615a8.922,8.922,0,0,1,1.539-.887c.358-.211.7-.417,1.022-.634a6.692,6.692,0,0,0,1.351-1.351c.47-.629.27-.9-.164-1.474.147-.664,1.175-.535,1.422-.587a7.137,7.137,0,0,1,1.633-.176,7.343,7.343,0,0,1,1.551.464,8.288,8.288,0,0,0,1.645.176,8.735,8.735,0,0,0,3.254-3.119c.317-.517.5-.981.828-1.416a1.492,1.492,0,0,1,.493-.517,4.116,4.116,0,0,1,.587-.376c.188.088.382.446.464.493.922.417,1.228-.288,1.222-.693,1.351.088.417.135.358.141l1.128-.029a1.856,1.856,0,0,0,1.222-.446,1.263,1.263,0,0,0,.552-.869,2.308,2.308,0,0,0,.164-1c-1.016.135-1.492.217-1.762.065-.211-.382.17-.617.276-.74a3.054,3.054,0,0,0,.764-1.762c-.505-.987.587-1.175,1.175-1.762s-.129-1.175.094-1.874c.493-1.557,3.748-.922,5.1-1.651.687-.364.969-.9,2.074-.887a2.286,2.286,0,0,1,1,.241c-.076,1.375.106,1.592.294,1.809a12.479,12.479,0,0,0,2.385.335c.587.082,1.175.153,1.762.217a2.079,2.079,0,0,1,.258-.869,7.049,7.049,0,0,1,4.171.417,12.991,12.991,0,0,0,2.138-3.172c.587-.963,1.533-2.068.957-3.1a34.861,34.861,0,0,1,4.7-.258,4.353,4.353,0,0,1-.47,1.821,3.826,3.826,0,0,0-.176,1.292c0,.587-.963,1.762-.276,2.179-.411.828-.323,1.369.37,1.762a1.275,1.275,0,0,1-1.427.681c-1.551-.358-1.445-.088-.405.681a4.11,4.11,0,0,0,2.2-.681,28.661,28.661,0,0,0,2.7-1.8c1.175-.828,1.075-1.568.4-2.538-.135-.2.276-.411.587-.347,1.175.223,2.244.587,3.389.852a25.846,25.846,0,0,0,4.047.552,33.7,33.7,0,0,0,7.772-.059,18.848,18.848,0,0,1,5.727-.458,10.908,10.908,0,0,1,3.9,1.427c.405.235.787.476,1.175.717a6.352,6.352,0,0,0,1.175-.041l1.063-.305c-.065-.47-.123-.946-.182-1.416-.2-.253-.587-.429-.764-.7a10.256,10.256,0,0,0,4.3-.288c.928-.288,1.586-.787,2.5-1.087.282-.094.587-.129.881-.217.517-.394.417-.623.211-.74a8.573,8.573,0,0,1-1.909-.176c-.535-.323,0-.452.529-.546,1.328-.223,2.79-.223,4.112-.5,1.034-.223,1.9-.7,2.937-.893a9.692,9.692,0,0,1,1.892,0c2.655.07,5.287.247,7.936.394,1.292.07,2.591.141,3.883.223a3.407,3.407,0,0,1,1.175.211,6.826,6.826,0,0,1,1.615,1.6l1.88,1.98c-1.386.07-2.132.411-2.279,1.063l-.088.546c.482.294,1.175.07,1.621,0a17.688,17.688,0,0,0,4.218-.77c1.175-.54,1.563-1.01,3.213-1a5.365,5.365,0,0,1,2.544.376c.852.9,1.175,1.563,1.845,2.156a9.727,9.727,0,0,0,1.533,1.075,3.924,3.924,0,0,1,.77.411,18.456,18.456,0,0,0,7.719,2.461c2.837.27,5.7,0,8.424.646,3,.734,6.009,2.4,9.516,1.939a5.234,5.234,0,0,0,2.638-1c.206-.182.305-.505.646-.64a1.445,1.445,0,0,1,1.028,0c1.034.311,1.539.881,2.761,1.093,1.022.182,2.162.106,3.207.247a9.8,9.8,0,0,1,3.5,1.145,6.316,6.316,0,0,1,1.01.717,2.978,2.978,0,0,1,1.034,3.19c-.217.811-.358,2.168-2.091,2.238a28.073,28.073,0,0,1-7.049-.7,22.159,22.159,0,0,1-2.69-.887l-.916-.329-1.093-.417a11.273,11.273,0,0,0-3.671-.687c-2.937,0-5.575.952-8.406,1.257a2.655,2.655,0,0,1-1.469-.2,6.092,6.092,0,0,0-2.608-.7,19.222,19.222,0,0,0-2.085.188c-5.874.587-11.525,1.41-16.107,3.742-.793.405-1.568.764-2.35,1.1a15.083,15.083,0,0,1-1.6.634c-.9.311-1.627.54-2.408.764a6.691,6.691,0,0,1-2.35.446,5.645,5.645,0,0,0-2.749.153,12.924,12.924,0,0,1-2.643.37c-.587,0-1.175-.059-1.721-.047,1.022.975,2.632.963,4.012,1.333a3.184,3.184,0,0,1,.775.3,1,1,0,0,1,.429.429c.17.423-.294.552-.517.916-.411.687.734.981,1.093,1.557.546.881-.405,1.709-1.31,2.385-2.3,1.521-3.19,3.266-3.1,5.24A1.239,1.239,0,0,1,361,341.4a6.743,6.743,0,0,0-1.281,1.087,2.038,2.038,0,0,1-.587.64,2.52,2.52,0,0,1-1.175.223c-1.692.153-1.533-.047-2.508.429-.217.106-.429.223-.64.335l-1.51.787a9.662,9.662,0,0,0-2.426,1.492c-.9.94.282,1.51,1.175,2.215,1.175.934-.634,1.627-1.034,2.544s-.634,2.144.587,2.837a3.238,3.238,0,0,0,.67.276,10.235,10.235,0,0,1,1.938.435c.3.153.587.311.887.482a25.257,25.257,0,0,1,4.024,2.937,11.542,11.542,0,0,0,1.792,1.38,5.6,5.6,0,0,0,1.1.488c1.14.37,2.309.135,3.454.382a3.377,3.377,0,0,1,1.04.411c.347.194.64.423.94.629a7.431,7.431,0,0,1,1.574,1.175c.27.358.041.746.206,1.116a4.053,4.053,0,0,0,1.069,1.116,13.85,13.85,0,0,0,2.056,1.433c.587.323.922.505,1.281.676a5.246,5.246,0,0,0-.429,2.115,6.191,6.191,0,0,1-.587,2.861,9.908,9.908,0,0,0-.447,2.115,7.383,7.383,0,0,0-.27,1.915c.053.417.858.975,1.245,1.41a3.149,3.149,0,0,0,.811.816,2.109,2.109,0,0,0,.793.241c.388.047.8,0,1.175.047a4.74,4.74,0,0,1,1.986.64c.417.241.793.523,1.175.787s.94.587,1.339.9a1.939,1.939,0,0,1,.452.452c.223.323.147.411.446.587,1.093.488,1.839.617,2.438.958a12.677,12.677,0,0,1,1.281,1.046,9.635,9.635,0,0,0,2.35.993,10.414,10.414,0,0,1,2.05.8c-.458-.182-.94-.352-1.427-.493a8.227,8.227,0,0,1,1.369.587c.787.37.041.182,1.939.535a6.773,6.773,0,0,1,1.68.429,8.935,8.935,0,0,1,3.107,2.561c.429.634.129.993-.587,1.439-.67.065-1.034.347-1.093.84a2.221,2.221,0,0,1-1.821.664,28.159,28.159,0,0,0-4.194.276c-1.439.311-1.8,1.022-2.937,1.5-1.657.7-3.636-.476-5.252.223a3.649,3.649,0,0,0-.734.423c-.206.182-.388.364-.587.523a6.731,6.731,0,0,1-2.391,1.991,5.721,5.721,0,0,0-2,.981,19.8,19.8,0,0,1-2.244.746,8.876,8.876,0,0,0-1.7.752,3.525,3.525,0,0,1-1.762,1.862,4.922,4.922,0,0,0-1.146.764c-.476.505-.247.752-.364,1.228-.141.587-.687.852-1.269,1.286a2.068,2.068,0,0,0-.993,1.4c-.047.558.388.922.7,1.416.206.311.305.493.123.822-.253.452-.94.8-1.093,1.281s.511.84.176,1.292c-.535.717-2.444.881-3.56.634a9.288,9.288,0,0,0-2.414-.423c-1.016,0-1.986,0-3-.065s-1.991-.164-3-.159H351.7c-.94.323-.64.558-.3.752,2.156,1.3,1.592,2.8,1.633,4.036a3,3,0,0,0-.247,2c.07.317.54,1.057.094,1.38a3.571,3.571,0,0,0-1.527.311c-.681.27-.54.288-.529.734s.317,1.222-.229,1.645a9.211,9.211,0,0,0-1.251.388,5.64,5.64,0,0,0-1.145,1.269Q347.109,424.74,346.211,425.985Zm26.61-27.4-.176.082c.194-.047.405-.088.623-.123a.064.064,0,0,1,.047,0v.035l.276-.053-.088-.029a1.49,1.49,0,0,1-.276,0l-.405.1Z" transform="translate(-200.528 -302.961)" fill="#febc7c"/>
        </g>
      </g>
      <path id="Trazado_107253" data-name="Trazado 107253" d="M153.74,331.267,236.8,264.13,436.128,379.219,353.071,446.35Z" transform="translate(-58.334 -97.033)" fill="#12263f" opacity="0.1"/>
      <path id="Trazado_107254" data-name="Trazado 107254" d="M294.738,493.5l-83.056,28.772L12.35,407.186,95.406,378.42Z" transform="translate(0 -144.186)" fill="#12263f" opacity="0.05"/>
      <g id="Grupo_54962" data-name="Grupo 54962" transform="translate(134.191 238.425)" opacity="0.1">
        <ellipse id="Elipse_4310" data-name="Elipse 4310" cx="3.272" cy="1.897" rx="3.272" ry="1.897" transform="matrix(1, -0.003, 0.003, 1, 0, 0.018)" fill="#12263f"/>
      </g>
      <path id="Trazado_107255" data-name="Trazado 107255" d="M224.377,324.66h0l-1.715-1c-1.657-.957-3.948-.822-6.462.64-5.04,2.914-9.093,9.951-9.082,15.755a8.365,8.365,0,0,0,.887,3.965c.053.1.106.2.164.288l8.124,13.94,1.715.993h0l8.018-23.3c.059-.159.112-.317.17-.505a15.726,15.726,0,0,0,.852-4.946C227.02,327.632,226.022,325.611,224.377,324.66Zm-1.633-.552h0Zm1.551.511-.076-.041Zm-.159-.082-.076-.041Zm-.159-.076-.082-.035Zm-.164-.07-.088-.035Zm-.17-.065-.088-.029Zm-.176-.053-.082-.029Zm-.176-.053h0Zm-.176-.041h0Zm-.182-.041h0Zm-.764-.076Zm.388,0Zm-.194,0Zm-.388,0Zm-.2,0Zm-.206,0Zm-.206,0h0Zm-.206.029h0Zm-.211.029h0Zm-.211.041h0Zm-.217.047h0Zm-.217.053h0Zm-.223.065-.1.029Zm-.217.07-.106.029Zm-.229.076-.1.035Zm-.223.082-.106.041Zm-.229.094-.1.041Zm-.235.1-.094.041Zm-.235.112-.094.041Zm-.241.117-.082.041Zm-.247.129-.07.035Zm-3.436,2.614Zm-.8.846-.217.247Zm.488-.529c-.07.07-.141.147-.206.223a2.035,2.035,0,0,0,.206-.194Zm-.987,1.116-.335.423Zm-.84,1.1.282-.388-.282.388-.352.505Zm-.687,1.016c-.112.176-.217.352-.323.529.112-.147.211-.323.323-.5Zm-1.586,2.984c-.082.182-.159.37-.235.558.076-.159.153-.347.235-.529Zm-.975,2.867c.047-.188.1-.382.159-.587-.059.188-.112.382-.159.587-.076.282-.147.587-.206.852A5.27,5.27,0,0,1,209.4,337.119Zm-.535,3.372a7.845,7.845,0,0,1,.059-.828c.029-.276.065-.587.112-.846-.047.282-.082.587-.112.846s-.047.552-.059.828v.546a1.769,1.769,0,0,1-.018-.552Zm0,.852v.558a4.809,4.809,0,0,0,.053.517c0-.17-.041-.341-.053-.517s-.018-.376-.023-.564Zm.723,3.348c.053.106.1.211.159.311l.035.065-.035-.065a1.754,1.754,0,0,1-.182-.317Zm.323.587a.824.824,0,0,0-.059-.094.826.826,0,0,1,.059.094l5.416,9.293Z" transform="translate(-80.355 -121.342)" fill="#168071"/>
      <path id="Trazado_107256" data-name="Trazado 107256" d="M217.915,325.314c2.526-1.463,4.823-1.6,6.462-.634l-1.715-1c-1.657-.958-3.948-.822-6.462.64-5.04,2.9-9.093,9.939-9.082,15.743a8.365,8.365,0,0,0,.887,3.965c.053.1.106.2.164.288l8.124,13.94,1.715.993-8.124-13.957c-.059-.094-.112-.188-.164-.288a8.318,8.318,0,0,1-.887-3.965C208.81,335.259,212.881,328.216,217.915,325.314Z" transform="translate(-80.355 -121.35)" fill="#d6cdf9" opacity="0.3"/>
      <path id="Trazado_107257" data-name="Trazado 107257" d="M228.778,334.152a15.909,15.909,0,0,1-7.2,12.465c-2.555,1.474-4.8,1.245-6.092-.311,1.328,1.1,3.348,1.128,5.6-.176a15.862,15.862,0,0,0,7.2-12.465,5.927,5.927,0,0,0-1.175-3.824A5.369,5.369,0,0,1,228.778,334.152Z" transform="translate(-83.81 -124.143)" fill="#12263f" opacity="0.3"/>
      <path id="Trazado_107258" data-name="Trazado 107258" d="M227.46,333.1a15.893,15.893,0,0,1-7.2,12.465c-2.256,1.3-4.276,1.275-5.6.176a5.909,5.909,0,0,1-1.175-3.818,15.9,15.9,0,0,1,7.2-12.465c2.256-1.3,4.271-1.275,5.6-.182A5.927,5.927,0,0,1,227.46,333.1Z" transform="translate(-82.981 -123.576)" fill="#fff"/>
      <path id="Trazado_107259" data-name="Trazado 107259" d="M227.46,333.1a15.893,15.893,0,0,1-7.2,12.465c-2.256,1.3-4.276,1.275-5.6.176a5.909,5.909,0,0,1-1.175-3.818,15.9,15.9,0,0,1,7.2-12.465c2.256-1.3,4.271-1.275,5.6-.182A5.927,5.927,0,0,1,227.46,333.1Z" transform="translate(-82.981 -123.576)" fill="#fff"/>
      <g id="Grupo_54963" data-name="Grupo 54963" transform="translate(160.652 274.743)" opacity="0.1">
        <ellipse id="Elipse_4311" data-name="Elipse 4311" cx="3.572" cy="2.068" rx="3.572" ry="2.068" fill="#12263f"/>
      </g>
      <path id="Trazado_107260" data-name="Trazado 107260" d="M271.114,384.043h0l-1.762-1.028c-1.709-.993-4.077-.852-6.685.658-5.193,3-9.4,10.256-9.4,16.225a8.664,8.664,0,0,0,.911,4.112c.059.1.112.2.176.294l8.383,14.38,1.762,1.028h0l8.271-24c.059-.164.117-.329.182-.523a16.389,16.389,0,0,0,.875-5.1C273.863,387.109,272.811,385.024,271.114,384.043Zm-1.68-.587h0Zm1.6.529-.076-.047Zm-.164-.088-.076-.041Zm-.164-.076-.082-.041Zm-.17-.076-.088-.029Zm-.176-.065-.088-.029Zm-.176-.059h0Zm-.182-.047h0Zm-.188-.047h0Zm-.188-.035h0Zm-.787-.082Zm.4,0Zm-.194,0Zm-.405,0Zm-.206,0Zm-.211,0Zm-.211,0h0Zm-.217.029h0Zm-.211.029h0Zm-.223.041h0Zm-.223.053h0Zm-.223.053-.106.029Zm-.229.065-.106.035Zm-.229.07-.106.035Zm-.229.082-.106.035Zm-.235.088-.106.041Zm-.235.094-.106.041Zm-.241.106-.1.041Zm-.241.112-.1.047Zm-.253.123-.088.041Zm-.258.135-.07.035Zm-3.525,2.7Zm-.822.869-.223.258Zm.505-.546c-.076.076-.147.153-.217.235a2.509,2.509,0,0,0,.2-.188Zm-1.016,1.175-.352.435Zm-.869,1.134.288-.4-.288.4c-.123.176-.247.347-.364.523.1-.153.223-.323.347-.5Zm-.711,1.052-.335.54Zm-1.639,3.078c-.082.194-.164.388-.241.587.059-.176.141-.37.223-.564Zm-1.028,2.937c.053-.194.112-.388.17-.587-.059.2-.117.394-.17.587q-.112.441-.211.881.082-.435.194-.875Zm-.546,3.483a8.183,8.183,0,0,1,.059-.858c.029-.27.07-.587.112-.869-.041.294-.082.587-.112.869s-.047.587-.059.858v.587a3.306,3.306,0,0,1-.018-.587Zm0,.875a3.9,3.9,0,0,0,.029.587c.029.194.035.358.059.529,0-.17-.041-.347-.059-.529s-.047-.382-.053-.582Zm.746,3.46.159.323.035.065-.035-.065Zm.335.617-.059-.1.059.1,5.586,9.587Z" transform="translate(-99.395 -145.821)" fill="#bd6b1c"/>
      <path id="Trazado_107261" data-name="Trazado 107261" d="M264.459,384.715c2.608-1.5,4.975-1.645,6.685-.652l-1.762-1.028c-1.709-.993-4.077-.852-6.685.658-5.193,3-9.4,10.256-9.4,16.225a8.664,8.664,0,0,0,.911,4.112c.059.1.112.2.176.294l8.383,14.38,1.762,1.028-8.353-14.4c-.065-.094-.117-.194-.176-.294a8.664,8.664,0,0,1-.91-4.112C255.072,394.977,259.266,387.717,264.459,384.715Z" transform="translate(-99.407 -145.829)" fill="#ffe9d3" opacity="0.3"/>
      <path id="Trazado_107262" data-name="Trazado 107262" d="M275.681,393.877a16.417,16.417,0,0,1-7.425,12.865c-2.632,1.521-4.952,1.286-6.285-.317,1.375,1.134,3.454,1.175,5.786-.188a16.34,16.34,0,0,0,7.425-12.865,6.109,6.109,0,0,0-1.175-3.942A5.574,5.574,0,0,1,275.681,393.877Z" transform="translate(-102.987 -148.729)" fill="#12263f" opacity="0.3"/>
      <path id="Trazado_107263" data-name="Trazado 107263" d="M274.35,392.744a16.453,16.453,0,0,1-7.425,12.865c-2.35,1.345-4.412,1.322-5.786.188a6.145,6.145,0,0,1-1.175-3.942A16.4,16.4,0,0,1,267.4,388.99c2.35-1.345,4.406-1.322,5.78-.188A6.109,6.109,0,0,1,274.35,392.744Z" transform="translate(-102.156 -148.125)" fill="#fff"/>
      <path id="Trazado_107264" data-name="Trazado 107264" d="M274.35,392.744a16.453,16.453,0,0,1-7.425,12.865c-2.35,1.345-4.412,1.322-5.786.188a6.145,6.145,0,0,1-1.175-3.942A16.4,16.4,0,0,1,267.4,388.99c2.35-1.345,4.406-1.322,5.78-.188A6.109,6.109,0,0,1,274.35,392.744Z" transform="translate(-102.156 -148.125)" fill="#fff"/>
      <g id="Grupo_54964" data-name="Grupo 54964" transform="translate(295.168 201.966)" opacity="0.1">
        <ellipse id="Elipse_4312" data-name="Elipse 4312" cx="4.423" cy="2.561" rx="4.423" ry="2.561" transform="matrix(1, -0.003, 0.003, 1, 0, 0.025)" fill="#12263f"/>
      </g>
      <path id="Trazado_107265" data-name="Trazado 107265" d="M501.026,260.343h0l-1.762-1.028c-1.715-.993-4.083-.852-6.7.658-5.193,3-9.4,10.268-9.369,16.236a8.594,8.594,0,0,0,.91,4.112c.053.1.112.2.17.294l8.388,14.392,1.762,1.034h0l8.277-24.02.182-.517a16.449,16.449,0,0,0,.875-5.111C503.775,263.409,502.723,261.318,501.026,260.343Zm-1.686-.587h0Zm1.6.529-.082-.041Zm-.164-.088-.082-.035Zm-.164-.076-.088-.035Zm-.176-.07-.082-.035Zm-.17-.065-.088-.035Zm-.182-.059L500,259.9Zm-.182-.053h0Zm-.182-.047h0Zm-.188-.035h0Zm-.787-.082Zm.4,0Zm-.2,0h0Zm-.405,0Zm-.206,0Zm-.211,0h0Zm-.211,0h0Zm-.211.029h0Zm-.217.035h0Zm-.223.041h0Zm-.217.047h0Zm-.229.059h0Zm-.223.123h0Zm-.229.07-.112.035Zm-.235.076-.106.041Zm-.235.088-.106.041Zm-.235.094-.106.047Zm-.241.106-.1.047Zm-.241.112-.1.047Zm-.253.123-.088.047Zm-.258.135-.07.041Zm-3.525,2.7Zm-.817.875-.229.258Zm.5-.546-.217.229Zm-1.016,1.175c-.117.141-.235.288-.347.435a1.994,1.994,0,0,1,.323-.476Zm-.869,1.134c.094-.135.194-.264.294-.4-.1.135-.2.264-.294.4s-.247.347-.364.523a3.887,3.887,0,0,1,.341-.564Zm-.711,1.052c-.112.182-.223.364-.329.546a3.251,3.251,0,0,1,.305-.587Zm-1.639,3.078c-.082.194-.164.388-.241.587a3.425,3.425,0,0,1,.217-.629Zm-1.028,2.937c.053-.194.112-.394.17-.587-.059.194-.117.394-.17.587q-.112.441-.211.881.082-.493.188-.934Zm-.546,3.483a8.19,8.19,0,0,1,.059-.858c.029-.27.065-.587.112-.869-.047.294-.082.587-.112.869s-.047.587-.059.858v.587c0-.1-.035-.452-.023-.64Zm0,.881a3.974,3.974,0,0,0,.029.587c.029.2.035.358.059.535,0-.176-.047-.352-.059-.535s-.053-.446-.059-.64Zm.746,3.46.159.317.035.065-.035-.065Zm.335.617-.059-.1.059.1,5.592,9.593Z" transform="translate(-194.258 -94.785)" fill="#ef2a66"/>
      <path id="Trazado_107266" data-name="Trazado 107266" d="M494.365,261.011c2.614-1.51,4.981-1.651,6.691-.658l-1.762-1.028c-1.715-.993-4.083-.852-6.7.658-5.193,3-9.4,10.268-9.369,16.236a8.593,8.593,0,0,0,.91,4.112c.053.1.112.2.17.294l8.388,14.392,1.762,1.034-8.388-14.392c-.065-.1-.117-.2-.176-.3a8.664,8.664,0,0,1-.911-4.112C484.972,271.279,489.166,264.007,494.365,261.011Z" transform="translate(-194.27 -94.789)" fill="#f57fa3" opacity="0.3"/>
      <path id="Trazado_107267" data-name="Trazado 107267" d="M505.572,270.137a16.409,16.409,0,0,1-7.431,12.871c-2.638,1.521-4.958,1.292-6.291-.317,1.375,1.134,3.46,1.175,5.786-.182a16.41,16.41,0,0,0,7.437-12.876,6.1,6.1,0,0,0-1.175-3.942A5.643,5.643,0,0,1,505.572,270.137Z" transform="translate(-197.829 -97.677)" fill="#12263f" opacity="0.3"/>
      <path id="Trazado_107268" data-name="Trazado 107268" d="M504.242,269.042a16.426,16.426,0,0,1-7.437,12.876c-2.35,1.345-4.412,1.316-5.786.182a6.132,6.132,0,0,1-1.175-3.942,16.426,16.426,0,0,1,7.437-12.876c2.35-1.345,4.412-1.316,5.78-.182A6.1,6.1,0,0,1,504.242,269.042Z" transform="translate(-196.998 -97.087)" fill="#fff"/>
      <path id="Trazado_107269" data-name="Trazado 107269" d="M504.242,269.042a16.426,16.426,0,0,1-7.437,12.876c-2.35,1.345-4.412,1.316-5.786.182a6.132,6.132,0,0,1-1.175-3.942,16.426,16.426,0,0,1,7.437-12.876c2.35-1.345,4.412-1.316,5.78-.182A6.1,6.1,0,0,1,504.242,269.042Z" transform="translate(-196.998 -97.087)" fill="#fff"/>
      <g id="Grupo_54965" data-name="Grupo 54965" transform="translate(202.413 235.609)" opacity="0.1">
        <ellipse id="Elipse_4313" data-name="Elipse 4313" cx="3.243" cy="1.88" rx="3.243" ry="1.88" transform="matrix(1, -0.003, 0.003, 1, 0, 0.018)" fill="#12263f"/>
      </g>
      <path id="Trazado_107270" data-name="Trazado 107270" d="M340.267,311.56h0l-1.939-1.128c-1.874-1.087-4.47-.934-7.337.717-5.692,3.29-10.3,11.261-10.274,17.8a9.4,9.4,0,0,0,1,4.488c.059.112.123.223.188.323l9.2,15.778,1.939,1.128h0l9.076-26.328c.065-.176.129-.358.194-.587a17.922,17.922,0,0,0,.963-5.6C343.3,314.926,342.141,312.635,340.267,311.56Zm-1.85-.623h0Zm1.762.587-.088-.047Zm-.182-.094-.088-.047Zm-.182-.088-.094-.041Zm-.188-.076-.094-.041Zm-.194-.076-.094-.029Zm-.194-.059h0Zm-.2-.059h0Zm-.206-.047h0Zm-.206-.047h0Zm-.858-.088Zm.435.029h0Zm-.217,0Zm-.441,0Zm-.229,0Zm-.229,0Zm-.235,0h0Zm-.235.029h0Zm-.235.041h0Zm-.241.041h0Zm-.247.053-.117.029Zm-.247.065-.117.029Zm-.247.07-.117.035Zm-.253.076-.117.041Zm-.253.088-.117.041Zm-.258.094-.117.047Zm-.258.106-.112.047Zm-.264.112-.112.053Zm-.264.123-.106.053Zm-.276.141-.094.047Zm-.282.147-.076.041Zm-3.889,2.937Zm-.887.969-.247.282Zm.552-.587-.241.253Zm-1.116,1.263-.382.476ZM327,317.934l.323-.441-.323.441c-.135.188-.264.376-.394.587.153-.223.258-.405.394-.6Zm-.775,1.175c-.123.2-.247.394-.364.587.117-.229.241-.405.364-.623Zm-1.815,3.342c-.088.211-.182.423-.264.634A5.812,5.812,0,0,0,324.406,322.451Zm-1.128,3.207c.059-.217.117-.435.182-.646-.065.211-.123.429-.182.646-.082.317-.164.64-.229.963.082-.323.182-.646.247-.963Zm-.587,3.812c0-.305.035-.623.065-.934s.076-.634.123-.958c-.047.323-.088.64-.123.958s-.053.629-.065.934v.623c-.006-.229-.006-.411.006-.623Zm0,.969a4.59,4.59,0,0,0,.029.634c.029.211.041.388.065.587,0-.194-.047-.388-.065-.587s-.023-.423-.029-.623Zm.817,3.795.176.347.041.07-.041-.07Zm.364.67-.065-.106.065.106L330,345.425Z" transform="translate(-127.223 -115.85)" fill="#9182ca"/>
      <path id="Trazado_107271" data-name="Trazado 107271" d="M332.98,312.3c2.867-1.651,5.463-1.8,7.337-.717l-1.939-1.128c-1.874-1.087-4.47-.934-7.337.717-5.692,3.29-10.3,11.261-10.274,17.8a9.4,9.4,0,0,0,1,4.488c.059.112.123.223.188.323l9.2,15.778,1.939,1.128-9.2-15.778c-.065-.106-.129-.211-.188-.323a9.463,9.463,0,0,1-1-4.488C322.665,323.558,327.288,315.586,332.98,312.3Z" transform="translate(-127.243 -115.858)" fill="#9182ca" opacity="0.3"/>
      <path id="Trazado_107272" data-name="Trazado 107272" d="M345.274,322.306c0,5.187-3.63,11.5-8.148,14.1-2.89,1.668-5.434,1.416-6.9-.347,1.51,1.245,3.789,1.275,6.344-.206,4.517-2.6,8.165-8.923,8.148-14.1a6.691,6.691,0,0,0-1.3-4.323A6.127,6.127,0,0,1,345.274,322.306Z" transform="translate(-131.149 -119.023)" fill="#12263f" opacity="0.3"/>
      <path id="Trazado_107273" data-name="Trazado 107273" d="M343.8,321.119c0,5.187-3.63,11.508-8.148,14.1-2.555,1.48-4.835,1.451-6.344.206a6.7,6.7,0,0,1-1.31-4.312c0-5.193,3.63-11.508,8.148-14.1,2.555-1.474,4.835-1.445,6.344-.2a6.691,6.691,0,0,1,1.31,4.306Z" transform="translate(-130.224 -118.389)" fill="#fff"/>
      <path id="Trazado_107274" data-name="Trazado 107274" d="M343.8,321.119c0,5.187-3.63,11.508-8.148,14.1-2.555,1.48-4.835,1.451-6.344.206a6.7,6.7,0,0,1-1.31-4.312c0-5.193,3.63-11.508,8.148-14.1,2.555-1.474,4.835-1.445,6.344-.2a6.691,6.691,0,0,1,1.31,4.306Z" transform="translate(-130.224 -118.389)" fill="#fff"/>
      <path id="Trazado_107275" data-name="Trazado 107275" d="M371.912,395.7c1.234.717,1.856,1.351,1.962,1.692l-3.525,1.369a3.237,3.237,0,0,0-1.292-1.175c-1.985-1.146-5.5-1.175-9.986,1.4-4.3,2.5-4.341,4.423-2.191,5.663a10.367,10.367,0,0,0,1.962.822l-2.591,1.909a11.747,11.747,0,0,1-3.166-1.333c-4.605-2.614-3.019-6.139,2.085-9.076C361.949,393.02,368.387,393.672,371.912,395.7Z" transform="translate(-139.453 -150.651)" fill="#fff"/>
      <path id="Trazado_107276" data-name="Trazado 107276" d="M491.066,462.3c-.963-.558-1-1.474.153-2.109a3.86,3.86,0,0,1,3.695-.065c1.022.587,1.081,1.463-.094,2.144A3.877,3.877,0,0,1,491.066,462.3Z" transform="translate(-197.21 -177.717)" fill="#fff"/>
      <path id="Trazado_107277" data-name="Trazado 107277" d="M486.67,481.279a20.6,20.6,0,0,0-2.773,1.862l-3.172-1.827,1.093-.858h-.053a7.3,7.3,0,0,1-4.4-.811c-1.991-1.146-1.815-2.937.511-4.312,3.419-1.985,7.872-1.057,10.885.652l.294-.17c1.016-.587,1.146-1.38-.094-2.1a9.14,9.14,0,0,0-3.436-1.116l1.7-1.762A15.562,15.562,0,0,1,492.3,472.6c4.006,2.309,1.874,4.3-.77,5.833Zm-2.35-2.62,2.273-1.322a5.088,5.088,0,0,0-5.017-.323c-1.31.758-1.063,1.457-.523,1.762a3.419,3.419,0,0,0,2.573.182,3.524,3.524,0,0,0,.693-.305Z" transform="translate(-191.286 -182.316)" fill="#fff"/>
      <path id="Trazado_107278" data-name="Trazado 107278" d="M463.82,471.655l13.058-7.6,3.525,2.032-13.064,7.6Z" transform="translate(-186.265 -179.519)" fill="#fff"/>
      <path id="Trazado_107279" data-name="Trazado 107279" d="M462.816,453.529c2.555,1.474.852,3.807-2.673,5.874-4.57,2.655-8.935,3.072-11.378,1.657-1.1-.634-1.433-1.351-.822-2.514l-.076-.047-1.762.793-3.013-1.762c1.2-.634,2.726-1.457,3.983-2.185l14.609-8.494,3.525,2.032-6.708,3.93h.053a6.808,6.808,0,0,1,4.265.717Zm-12.083,5.34c1.175.687,3.137.112,5.645-1.345,2.244-1.3,3.2-2.455,2.021-3.137a3.383,3.383,0,0,0-2.385,0,4.946,4.946,0,0,0-.934.388l-3.66,2.15a2.291,2.291,0,0,0-.693.587c-.64.711-.423,1.146,0,1.392Z" transform="translate(-177.712 -172.419)" fill="#fff"/>
      <path id="Trazado_107280" data-name="Trazado 107280" d="M437.97,441.3c2.35,1.351,1.545,3.025-1.6,4.858l-8.283,4.811-3.5-2.015,7.7-4.47c1.492-.869,2.532-1.662,1.457-2.285a3.237,3.237,0,0,0-2.52-.059,6.015,6.015,0,0,0-1.01.464l-8.283,4.811-3.5-2.015,8.224-4.77c.934-.54,2.079-1.333.981-1.968a3.325,3.325,0,0,0-2.5-.076,5.287,5.287,0,0,0-1.122.493l-8.224,4.782-3.5-2.015,9.134-5.287c1.439-.84,2.614-1.615,3.818-2.35l3.066,1.762-1.363.981.053.029a8.224,8.224,0,0,1,4.882.8c1.48.858,1.762,1.762,1.116,2.685l.053.035a10.337,10.337,0,0,1,2.626,0A6.862,6.862,0,0,1,437.97,441.3Z" transform="translate(-165.009 -167.204)" fill="#fff"/>
      <path id="Trazado_107281" data-name="Trazado 107281" d="M412.085,426.458c3.1,1.762,2.385,4.376-1.727,6.767-5.451,3.166-9.822,2.191-11.813,1.04-3.149-1.815-2.573-4.329,1.674-6.8C404.913,424.737,409.465,424.948,412.085,426.458Zm-10.8,6.327c1.134.652,3.619-.452,5.539-1.568,1.762-1.04,3.765-2.532,2.585-3.213-1.292-.746-3.83.417-5.622,1.457C401.541,430.764,400.019,432.05,401.282,432.784Z" transform="translate(-158.509 -163.552)" fill="#fff"/>
      <path id="Trazado_107282" data-name="Trazado 107282" d="M404.221,413.618l-18.486,10.738-3.525-2.033L400.7,411.58Z" transform="translate(-152.595 -157.867)" fill="#fff"/>
      <path id="Trazado_107283" data-name="Trazado 107283" d="M382.084,409.125c3.09,1.762,2.379,4.382-1.733,6.767-5.445,3.172-9.822,2.191-11.813,1.046-3.143-1.821-2.567-4.335,1.68-6.8C374.894,407.427,379.453,407.621,382.084,409.125Zm-10.791,6.3c1.128.652,3.613-.446,5.539-1.568,1.762-1.04,3.765-2.526,2.579-3.213-1.292-.746-3.83.423-5.616,1.463C371.552,413.413,370.03,414.7,371.293,415.428Z" transform="translate(-146.131 -156.405)" fill="#fff"/>
      <path id="Trazado_107284" data-name="Trazado 107284" d="M597.544,562.527l-61.092-35.246-6.2-3.583-5.128-2.937a2.221,2.221,0,0,0-2.2,0L517.8,523.7l-23.233-13.44c6.744-4.206,10.779-9.534,10.779-15.326,0-13.622-22.281-24.672-49.767-24.672S405.82,481.3,405.82,494.932,428.1,519.6,455.581,519.6c12.383,0,23.709-2.238,32.42-5.951h0l23.585,13.617-5.287,3.043a.629.629,0,0,0,0,1.093l5.287,3.049,6.233,3.6,61.163,35.31a2.1,2.1,0,0,0,2.1,0l16.448-9.5a.77.77,0,0,0,.012-1.333Z" transform="translate(-162.335 -182.077)" fill="#12263f" opacity="0.4"/>
      <g id="magnifying-glass" transform="translate(243.485 261.807)">
        <g id="glass">
          <path id="Trazado_107285" data-name="Trazado 107285" d="M455.581,425.36c-27.48,0-49.761,11.038-49.761,24.672S428.1,474.7,455.581,474.7s49.767-11.038,49.767-24.672S483.067,425.36,455.581,425.36Zm-.035,46.994c-21.376,0-39.3-7.413-44.157-17.405a33.848,33.848,0,0,1,6.82-4.934c9.117-5.14,22.481-8.383,37.372-8.383s28.261,3.243,37.378,8.383a34.067,34.067,0,0,1,6.773,4.887c-4.823,10.021-22.775,17.458-44.186,17.458Z" transform="translate(-405.82 -425.36)" fill="#dadad9"/>
          <path id="Trazado_107286" data-name="Trazado 107286" d="M504.182,450.47v1.157a1.2,1.2,0,0,1-.035.341l-.035.223v.047l-.035.217a1.856,1.856,0,0,1-.065.352l-.035.159v.07a1.169,1.169,0,0,1-.029.141v.088a.713.713,0,0,1-.059.211.549.549,0,0,1,0,.094l-.07.258c-.07.241-.147.476-.235.711-.035.106-.076.211-.117.317v.041a.783.783,0,0,1-.1.258l-.047.106a.56.56,0,0,1-.094.211.359.359,0,0,1-.029.07l-.141.305a34.072,34.072,0,0,0-6.773-4.887c-9.117-5.14-22.481-8.383-37.378-8.383s-28.255,3.243-37.372,8.383a33.848,33.848,0,0,0-6.82,4.934c-.053-.1-.1-.206-.147-.311l-.041-.088-.094-.211-.035-.094c-.041-.082-.07-.17-.106-.253q0-.029,0-.059c-.029-.076-.059-.147-.082-.217l-.088-.247a.55.55,0,0,0-.065-.188l-.088-.288a.976.976,0,0,1-.035-.123c-.029-.076-.047-.153-.07-.235s-.041-.159-.059-.241-.047-.17-.065-.253h0l-.053-.258-.053-.253v-.035a4.319,4.319,0,0,0-.07-.482.076.076,0,0,1,0-.035v-.358a1.02,1.02,0,0,0-.029-.288v-.887c0-12.612,20.348-22.833,45.449-22.833S504.182,437.846,504.182,450.47Z" transform="translate(-409.001 -426.309)" fill="#706f6b"/>
          <path id="Trazado_107287" data-name="Trazado 107287" d="M504.182,450.47v1.157a1.2,1.2,0,0,1-.035.341l-.035.223v.047l-.035.217a1.856,1.856,0,0,1-.065.352l-.035.159v.07a1.169,1.169,0,0,1-.029.141v.088a.713.713,0,0,1-.059.211.549.549,0,0,1,0,.094l-.07.258c-.07.241-.147.476-.235.711-.035.106-.076.211-.117.317v.041a.783.783,0,0,1-.1.258l-.047.106a.56.56,0,0,1-.094.211.359.359,0,0,1-.029.07l-.141.305a34.072,34.072,0,0,0-6.773-4.887c-9.117-5.14-22.481-8.383-37.378-8.383s-28.255,3.243-37.372,8.383a33.848,33.848,0,0,0-6.82,4.934c-.053-.1-.1-.206-.147-.311l-.041-.088-.094-.211-.035-.094c-.041-.082-.07-.17-.106-.253q0-.029,0-.059c-.029-.076-.059-.147-.082-.217l-.088-.247a.55.55,0,0,0-.065-.188l-.088-.288a.976.976,0,0,1-.035-.123c-.029-.076-.047-.153-.07-.235s-.041-.159-.059-.241-.047-.17-.065-.253h0l-.053-.258-.053-.253v-.035a4.319,4.319,0,0,0-.07-.482.076.076,0,0,1,0-.035v-.358a1.02,1.02,0,0,0-.029-.288v-.887c0-12.612,20.348-22.833,45.449-22.833S504.182,437.846,504.182,450.47Z" transform="translate(-409.001 -426.309)" fill="#b5e2f0" opacity="0.3"/>
          <path id="Trazado_107288" data-name="Trazado 107288" d="M504,450.453a11.018,11.018,0,0,1-.059,1.175c-1.175,12.072-21.065,21.676-45.4,21.676s-44.192-9.6-45.4-21.676q-.053-.587-.053-1.175c0-12.612,20.348-22.833,45.449-22.833S504,437.829,504,450.453Z" transform="translate(-408.824 -426.292)" fill="#b5e2f0" opacity="0.3"/>
          <ellipse id="Elipse_4314" data-name="Elipse 4314" cx="45.396" cy="21.676" rx="45.396" ry="21.676" transform="translate(4.329 3.648)" fill="#b5e2f0" opacity="0.3"/>
          <path id="Trazado_107289" data-name="Trazado 107289" d="M505.348,467.34v16.278c0,13.617-22.281,24.672-49.767,24.672s-49.761-11.044-49.761-24.672V467.34c0,13.617,22.281,24.672,49.761,24.672S505.348,480.957,505.348,467.34Z" transform="translate(-405.82 -442.68)" fill="#706f6b"/>
          <path id="Trazado_107290" data-name="Trazado 107290" d="M442.43,444.582s24.989-15.6,56.751,0A118.1,118.1,0,0,0,442.43,444.582Z" transform="translate(-420.924 -430.431)" fill="#fff" opacity="0.3"/>
        </g>
        <g id="handle" transform="translate(82.169 39.921)">
          <path id="Trazado_107291" data-name="Trazado 107291" d="M545.7,496.768l6.462-3.448L575.524,506.8l-6.238,3.6Z" transform="translate(-545.7 -493.32)" fill="#dadad9"/>
          <path id="Trazado_107292" data-name="Trazado 107292" d="M545.7,499.23v16.313l24.584,14.051-.981-16.759Z" transform="translate(-545.7 -495.758)" fill="#807e79"/>
          <path id="Trazado_107293" data-name="Trazado 107293" d="M650.373,571.076v14.891l-62.214-35.921-6.227-3.6-5.034-2.9a1.081,1.081,0,0,1-.587-.981v-14.1l5.6,3.219,6.215,3.577Z" transform="translate(-558.329 -507.822)" fill="#d08134"/>
          <path id="Trazado_107294" data-name="Trazado 107294" d="M702.39,593.9l17.9-10.35.088,14.756L702.39,608.692Z" transform="translate(-610.346 -530.547)" fill="#b4712d"/>
          <path id="Trazado_107295" data-name="Trazado 107295" d="M576.637,520.623l16.642-9.587a2.221,2.221,0,0,1,2.2,0l72.412,41.807a.769.769,0,0,1,0,1.333l-16.448,9.5a2.1,2.1,0,0,1-2.1,0l-72.7-41.966a.629.629,0,0,1,0-1.093Z" transform="translate(-558.333 -500.509)" fill="#fd8f25"/>
          <path id="Trazado_107296" data-name="Trazado 107296" d="M585.872,548.984v-.194l-.012-14.18,6.233,3.6.006,14.368Z" transform="translate(-562.269 -510.355)" fill="#dadad9"/>
          <path id="Trazado_107297" data-name="Trazado 107297" d="M585.86,527.048l18.68-10.768,6.2,3.583-18.651,10.785Z" transform="translate(-562.269 -502.793)" fill="#f3f4f4"/>
        </g>
      </g>
      <g id="bar-chart" transform="translate(66.769 28.94)">
        <path id="Trazado_107298" data-name="Trazado 107298" d="M225.87,39.937l-19.05-11-19.05,11,19.05,11Z" transform="translate(-139.143 -28.94)" fill="#d6cdf9"/>
        <path id="Trazado_107299" data-name="Trazado 107299" d="M204.764,58.662v71.484l-19.044-11V47.66Z" transform="translate(-138.297 -36.663)" fill="#9182ca"/>
        <path id="Trazado_107300" data-name="Trazado 107300" d="M237.534,47.66l-19.044,11v71.484l19.044-11Z" transform="translate(-151.817 -36.663)" fill="#6c58b8"/>
        <path id="Trazado_107301" data-name="Trazado 107301" d="M183.625,91.427l-19.05-11-19.044,11,19.044,11Z" transform="translate(-121.716 -50.183)" fill="#febc7c"/>
        <path id="Trazado_107302" data-name="Trazado 107302" d="M164.574,110.147v54.989l-19.044-11V99.15Z" transform="translate(-121.716 -57.907)" fill="#fd8f25"/>
        <path id="Trazado_107303" data-name="Trazado 107303" d="M197,99.15l-19.05,11v54.989l19.05-11Z" transform="translate(-135.091 -57.907)" fill="#bd6b1c"/>
        <path id="Trazado_107304" data-name="Trazado 107304" d="M143.09,152.187l-19.05-11-19.05,11,19.05,11Z" transform="translate(-104.99 -75.251)" fill="#f15584"/>
        <path id="Trazado_107305" data-name="Trazado 107305" d="M124.04,171v32.99l-19.05-11V160Z" transform="translate(-104.99 -83.012)" fill="#ee2a66"/>
        <path id="Trazado_107306" data-name="Trazado 107306" d="M156.47,160l-19.05,11v32.99l19.05-11Z" transform="translate(-118.37 -83.012)" fill="#b2204d"/>
      </g>
      <g id="graph" transform="translate(116.824 45.899)">
        <path id="Trazado_107307" data-name="Trazado 107307" d="M199.98,192.778l86.152-49.737V63.45l-11.484,19.9-22.974,26.528L228.7,116.506l-5.745,16.583-17.329,16.524Z" transform="translate(-194.235 -60.137)" fill="#f25585"/>
        <path id="Trazado_107308" data-name="Trazado 107308" d="M195.945,190.451l-5.745-3.313,5.745-43.111,17.229-16.583,5.745-16.577,22.974-6.632,22.974-26.528,11.49-19.9,5.739,3.313-11.484,19.9-22.974,26.528-22.974,6.632-5.745,16.583L201.59,147.287Z" transform="translate(-190.2 -57.81)" fill="#f57fa3"/>
        <path id="Trazado_107309" data-name="Trazado 107309" d="M306.919,94.993l-5.745-3.313L278.2,118.208l5.745,3.313Z" transform="translate(-226.507 -71.784)" fill="#f9aac2"/>
        <path id="Trazado_107310" data-name="Trazado 107310" d="M235.055,148.13l5.745,3.313-5.745,16.583-5.745-3.319Z" transform="translate(-206.336 -95.074)" fill="#f9aac2"/>
        <path id="Trazado_107311" data-name="Trazado 107311" d="M195.945,204.58l5.645,3.26L195.945,251l-5.745-3.313Z" transform="translate(-190.2 -118.363)" fill="#f9aac2"/>
        <path id="Trazado_107312" data-name="Trazado 107312" d="M219.53,213.384l86.258-49.8-.1-66.268L288.459,113.9l-17.235,29.841H259.739l-11.39,19.843H236.665l-5.645,23.268Z" transform="translate(-202.301 -74.111)" fill="#d75f27"/>
        <path id="Trazado_107313" data-name="Trazado 107313" d="M301.657,94.993l-17.229,16.583-17.235,29.841H255.708l-11.39,19.843H232.634l-5.645,23.268L215.5,211.057l-5.739-3.313,11.484-26.528L226.989,158h11.49l11.484-19.9h11.49l17.229-29.847L295.912,91.68Z" transform="translate(-198.27 -71.784)" fill="#ef8433"/>
        <path id="Trazado_107314" data-name="Trazado 107314" d="M350.064,94.993l-17.229,16.583-5.745-3.319L344.319,91.68Z" transform="translate(-246.677 -71.784)" fill="#ef8433"/>
        <rect id="Rectángulo_5902" data-name="Rectángulo 5902" width="34.464" height="6.632" transform="matrix(0.5, -0.866, 0.866, 0.5, 63.172, 66.312)" fill="#e57f34"/>
        <path id="Trazado_107315" data-name="Trazado 107315" d="M270.134,170.71l5.745,3.313-11.39,19.843-5.839-3.26Z" transform="translate(-218.441 -104.39)" fill="#e57f34"/>
        <path id="Trazado_107316" data-name="Trazado 107316" d="M240.7,207.84l-5.645-3.26L229.31,227.8l5.745,3.313Z" transform="translate(-206.336 -118.363)" fill="#e57f34"/>
        <path id="Trazado_107317" data-name="Trazado 107317" d="M239.09,233.99l86.152-49.737V131.19l-22.974,33.166-17.229,3.313-17.229,23.215h-11.49Z" transform="translate(-210.371 -88.085)" fill="#b5abdb"/>
        <path id="Trazado_107318" data-name="Trazado 107318" d="M321.207,128.863l-22.974,33.166L281,165.342l-17.229,23.215h-11.49l-17.229,43.105-5.745-3.313,17.235-43.111h11.484l17.229-23.209,17.235-3.319,22.974-33.16Z" transform="translate(-206.336 -85.758)" fill="#d6cdf9"/>
        <path id="Trazado_107319" data-name="Trazado 107319" d="M365.583,128.863l-22.974,33.166-5.739-3.319,22.974-33.16Z" transform="translate(-250.712 -85.758)" fill="#d6cdf9"/>
        <path id="Trazado_107320" data-name="Trazado 107320" d="M301.174,190.963l-17.229,23.215-5.745-3.319,17.229-23.209Z" transform="translate(-226.507 -111.379)" fill="#d6cdf9"/>
        <path id="Trazado_107321" data-name="Trazado 107321" d="M252.284,230.479l-5.739-3.319L229.31,270.271l5.745,3.313Z" transform="translate(-206.336 -127.679)" fill="#d6cdf9"/>
      </g>
      <g id="pie-chart" transform="translate(14.001 154.367)">
        <path id="Trazado_107322" data-name="Trazado 107322" d="M90.713,281.336v7.343a74.48,74.48,0,0,1-63.36-2.062V281.33H15.17v8.512c0,12.606,20.625,22.833,46.066,22.833s46.06-10.221,46.06-22.827v-8.512Z" transform="translate(-15.164 -258.497)" fill="#b2204d"/>
        <path id="Trazado_107323" data-name="Trazado 107323" d="M107.292,264.833a12.066,12.066,0,0,0-.587-3.184,15.138,15.138,0,0,0-2.614-4.7h0c-5.064-6.368-15.737-11.337-29-13.405-.305-.053-.587-.094-.928-.141-.893-.129-1.8-.247-2.714-.347a91.512,91.512,0,0,0-10.221-.587c-12.747,0-24.284,2.567-32.62,6.714S15.16,259.012,15.16,265.309c0,12.606,20.625,22.833,46.066,22.833s46.066-10.233,46.066-22.839ZM61.7,276.852c-12.277,0-22.675-3.56-26.152-8.465,3.483-4.9,13.875-8.459,26.152-8.459s22.675,3.554,26.152,8.459C84.382,273.327,73.985,276.852,61.7,276.852Z" transform="translate(-15.16 -242.464)" fill="#f25585"/>
        <path id="Trazado_107324" data-name="Trazado 107324" d="M102.519,271.979a6.174,6.174,0,0,1-1.2,3.525l-.041.053c-2.843-4.006-10.3-7.114-19.638-8.118a61.379,61.379,0,0,0-6.515-.341c-7.637,0-14.568,1.38-19.538,3.607a16.129,16.129,0,0,0-6.614,4.852,6.209,6.209,0,0,1-1.239-3.6c0-3.3,3-6.28,7.854-8.459,4.97-2.226,11.89-3.607,19.538-3.607a59.834,59.834,0,0,1,6.515.347h0c8.312.893,15.126,3.466,18.533,6.832a9.486,9.486,0,0,1,1.392,1.715h0A5.992,5.992,0,0,1,102.519,271.979Z" transform="translate(-28.598 -249.651)" fill="#f25585"/>
        <path id="Trazado_107325" data-name="Trazado 107325" d="M84.543,243.517l-2.52,8.477-8.312,5.087-11.79,1.856H53.985l-2.35-2.608L38.06,249.174c8.336-4.147,19.873-6.714,32.62-6.714a90.6,90.6,0,0,1,12.923.916C83.926,243.423,84.238,243.464,84.543,243.517Z" transform="translate(-24.608 -242.46)" fill="#f9ab31"/>
        <path id="Trazado_107326" data-name="Trazado 107326" d="M87.182,260.277v7.2a61.37,61.37,0,0,0-6.515-.341c-7.637,0-14.568,1.38-19.538,3.607v-7.208c4.97-2.226,11.89-3.607,19.538-3.607a59.834,59.834,0,0,1,6.515.347Z" transform="translate(-34.126 -249.668)" fill="#e79d30"/>
        <path id="Trazado_107327" data-name="Trazado 107327" d="M144.543,265.229l-18.21-.041L105.45,253.44l3.26-10.01c.916.1,1.821.217,2.714.347.311.047.623.088.928.141,13.264,2.068,23.938,7.049,29,13.405h0a15.138,15.138,0,0,1,2.614,4.7,12.066,12.066,0,0,1,.576,3.207Z" transform="translate(-52.411 -242.86)" fill="#9182ca"/>
        <path id="Trazado_107328" data-name="Trazado 107328" d="M126.333,272.239a6.174,6.174,0,0,1-1.2,3.525l-.041.053c-2.843-4.006-10.3-7.114-19.638-8.118V260.52h0c8.312.869,15.126,3.442,18.533,6.808a9.486,9.486,0,0,1,1.392,1.715h0A5.992,5.992,0,0,1,126.333,272.239Z" transform="translate(-52.411 -249.911)" fill="#6c58b8"/>
      </g>
    </g>
  </g>
</svg>
