<svg xmlns="http://www.w3.org/2000/svg" width="575.641" height="495.278" viewBox="0 0 575.641 495.278">
  <g id="Grupo_18898" data-name="Grupo 18898" transform="translate(-672 -2550.309)">
    <g id="Grupo_18863" data-name="Grupo 18863">
      <path id="Trazado_33305" data-name="Trazado 33305" d="M85.33,106.2.868,251.531H576.509L492.05,106.2Z" transform="translate(671.132 2794.056)" fill="#f27c00"/>
      <path id="Trazado_33307" data-name="Trazado 33307" d="M432.983,211.908H26.259L114.11,60.755H345.165Z" transform="translate(730.202 2688.343)" fill="#00ffe2"/>
      <path id="Trazado_33309" data-name="Trazado 33309" d="M283.723,199.783H52.669L168.2.995Z" transform="translate(791.642 2549.314)" fill="#472ea6"/>
      <path id="Trazado_33312" data-name="Trazado 33312" d="M-155.461.2A7.234,7.234,0,0,1-159.6-.918a4.624,4.624,0,0,1-2.03-3.131l2.643-.612A2.942,2.942,0,0,0-157.8-2.648a4.028,4.028,0,0,0,2.433.714,3.507,3.507,0,0,0,2.03-.553,1.888,1.888,0,0,0,.795-1.692,1.756,1.756,0,0,0-.236-.859,2.459,2.459,0,0,0-.5-.628,3.323,3.323,0,0,0-.87-.489q-.591-.247-.967-.365t-1.16-.344a1.351,1.351,0,0,0-.15-.043q-.612-.183-1-.306t-.94-.344a6.073,6.073,0,0,1-.9-.43A6.185,6.185,0,0,1-160-8.524a2.8,2.8,0,0,1-.612-.693,3.786,3.786,0,0,1-.371-.865,3.768,3.768,0,0,1-.15-1.09,3.828,3.828,0,0,1,1.488-3.212,5.977,5.977,0,0,1,3.765-1.149,8.265,8.265,0,0,1,1.966.226,6.755,6.755,0,0,1,1.724.677,4.269,4.269,0,0,1,1.359,1.214,4.567,4.567,0,0,1,.773,1.762l-2.481.623a2.709,2.709,0,0,0-1.1-1.767,3.646,3.646,0,0,0-2.111-.585,3.478,3.478,0,0,0-1.982.537,1.832,1.832,0,0,0-.8,1.633,1.4,1.4,0,0,0,.107.553,2.142,2.142,0,0,0,.247.44,1.6,1.6,0,0,0,.44.376q.3.188.521.3a5.149,5.149,0,0,0,.671.263q.451.15.7.22l.79.22q.5.14.811.231t.8.258q.494.167.8.306t.72.365a3.953,3.953,0,0,1,.677.451,5.961,5.961,0,0,1,.548.542,2.558,2.558,0,0,1,.44.666,4.635,4.635,0,0,1,.263.79,3.981,3.981,0,0,1,.107.945,4.35,4.35,0,0,1-.457,2.03,3.724,3.724,0,0,1-1.241,1.407,5.866,5.866,0,0,1-1.767.79A8.136,8.136,0,0,1-155.461.2Zm18.24-5.79-.032.623h-8.218a3.26,3.26,0,0,0,.945,2.363,3.087,3.087,0,0,0,2.181.816,2.963,2.963,0,0,0,1.606-.44A2.776,2.776,0,0,0-139.67-3.48l2.256.387a4.749,4.749,0,0,1-1.869,2.428,5.368,5.368,0,0,1-3.04.87,5.54,5.54,0,0,1-4.05-1.493A5.493,5.493,0,0,1-147.9-5.4a5.515,5.515,0,0,1,1.525-4.114,5.418,5.418,0,0,1,3.975-1.5,5.145,5.145,0,0,1,3.749,1.38A5.442,5.442,0,0,1-137.221-5.586Zm-5.167-3.6a3.153,3.153,0,0,0-1.95.585,2.851,2.851,0,0,0-1.026,1.789h5.661a2.6,2.6,0,0,0-.859-1.772A2.751,2.751,0,0,0-142.388-9.185ZM-129.905.193a5.484,5.484,0,0,1-4.028-1.552A5.454,5.454,0,0,1-135.5-5.414a5.426,5.426,0,0,1,1.574-4.05,5.5,5.5,0,0,1,4.023-1.547,5.491,5.491,0,0,1,3.314.994,4.691,4.691,0,0,1,1.81,2.777l-2.3.3a2.88,2.88,0,0,0-1.058-1.547,2.981,2.981,0,0,0-1.789-.537,2.835,2.835,0,0,0-2.234.994,3.827,3.827,0,0,0-.87,2.616,3.827,3.827,0,0,0,.87,2.616,2.835,2.835,0,0,0,2.234.994,3,3,0,0,0,1.789-.532,2.852,2.852,0,0,0,1.058-1.542l2.3.29A4.7,4.7,0,0,1-126.6-.806,5.482,5.482,0,0,1-129.905.193ZM-118.562,0a3.055,3.055,0,0,1-2.277-.827,3.176,3.176,0,0,1-.816-2.331V-8.873h-2.159v-1.934h.741a1.69,1.69,0,0,0,1.273-.414,2.089,2.089,0,0,0,.392-1.445v-1.676h2.256v3.534h2.353v1.934h-2.353v5.457a1.549,1.549,0,0,0,.371,1.123,1.336,1.336,0,0,0,1,.381h.978V0Zm9.013.2a5.679,5.679,0,0,1-4.093-1.52,5.4,5.4,0,0,1-1.59-4.1,5.376,5.376,0,0,1,1.59-4.077,5.679,5.679,0,0,1,4.093-1.52,5.705,5.705,0,0,1,4.1,1.515,5.372,5.372,0,0,1,1.59,4.082,5.4,5.4,0,0,1-1.59,4.1A5.694,5.694,0,0,1-109.549.2Zm-.021-2a3.03,3.03,0,0,0,2.342-1,3.734,3.734,0,0,0,.913-2.621,3.714,3.714,0,0,0-.913-2.616,3.038,3.038,0,0,0-2.342-.994,2.968,2.968,0,0,0-2.3.994,3.741,3.741,0,0,0-.9,2.616,3.775,3.775,0,0,0,.9,2.621A2.956,2.956,0,0,0-109.57-1.794Zm10.71-7.2a3.263,3.263,0,0,1,1.37-1.375,4.272,4.272,0,0,1,2.111-.559v2.256a3.807,3.807,0,0,0-2.551.725,3.083,3.083,0,0,0-.833,2.433V0h-2.481V-10.807h2.385Zm17.22-2.02a5.036,5.036,0,0,1,2.562.666,4.858,4.858,0,0,1,1.853,1.96,6.2,6.2,0,0,1,.7,2.992,6.638,6.638,0,0,1-.4,2.358,5.067,5.067,0,0,1-1.1,1.783A4.935,4.935,0,0,1-79.659-.145a5.045,5.045,0,0,1-1.982.392,4.429,4.429,0,0,1-2.111-.5A3.484,3.484,0,0,1-85.2-1.644V5.35h-2.471V-10.807H-85.3l.064,1.762a3.429,3.429,0,0,1,1.445-1.445A4.447,4.447,0,0,1-81.641-11.011Zm-.537,9.163a2.991,2.991,0,0,0,2.267-.967A3.6,3.6,0,0,0-79-5.393a3.563,3.563,0,0,0-.913-2.567,3.007,3.007,0,0,0-2.267-.956,3,3,0,0,0-2.288.994,3.569,3.569,0,0,0-.924,2.53,3.6,3.6,0,0,0,.924,2.546A2.991,2.991,0,0,0-82.178-1.848ZM-71.5-8.991a3.263,3.263,0,0,1,1.37-1.375,4.272,4.272,0,0,1,2.111-.559v2.256a3.807,3.807,0,0,0-2.551.725A3.083,3.083,0,0,0-71.4-5.511V0h-2.481V-10.807H-71.5Zm6.746-3.878a1.476,1.476,0,0,1-1.074-.446,1.449,1.449,0,0,1-.451-1.069,1.458,1.458,0,0,1,.446-1.069,1.47,1.47,0,0,1,1.08-.446,1.463,1.463,0,0,1,1.063.446,1.449,1.449,0,0,1,.451,1.069,1.449,1.449,0,0,1-.451,1.069A1.463,1.463,0,0,1-64.754-12.869ZM-66.021,0V-10.807h2.481V0ZM-48.1-11.011a3.8,3.8,0,0,1,2.653.9,3.256,3.256,0,0,1,.988,2.541V0h-2.481V-6.886a2.122,2.122,0,0,0-.537-1.574,1.845,1.845,0,0,0-1.354-.532,2.025,2.025,0,0,0-1.552.639,2.81,2.81,0,0,0-.6,1.971V0H-53.5V-6.832a2.2,2.2,0,0,0-.542-1.611,1.86,1.86,0,0,0-1.38-.548,2.01,2.01,0,0,0-1.558.661,2.985,2.985,0,0,0-.6,2.057V0h-2.46V-10.807h2.46v1.332a3.486,3.486,0,0,1,3.051-1.536,4.1,4.1,0,0,1,1.934.435,2.863,2.863,0,0,1,1.246,1.251A3.587,3.587,0,0,1-48.1-11.011ZM-38.607.2a4.485,4.485,0,0,1-1.649-.285,2.621,2.621,0,0,1-1.2-.967,2.876,2.876,0,0,1-.478-1.692,3.134,3.134,0,0,1,.22-1.208,2.646,2.646,0,0,1,.58-.886,3.409,3.409,0,0,1,.913-.623,6.548,6.548,0,0,1,1.117-.424q.564-.156,1.305-.3l1.633-.3q1-.193,1-.978a1.535,1.535,0,0,0-.6-1.348,2.565,2.565,0,0,0-1.515-.424,2.536,2.536,0,0,0-1.558.457,2,2,0,0,0-.73,1.445L-41.8-7.734Q-41.25-11-37.136-11a7.615,7.615,0,0,1,1.284.1,4.585,4.585,0,0,1,1.171.371,3.368,3.368,0,0,1,.983.682,2.976,2.976,0,0,1,.655,1.1A4.575,4.575,0,0,1-32.8-7.187V-3a1.711,1.711,0,0,0,.226,1.031.972.972,0,0,0,.795.279h.172V0h-1.171q-1.837,0-2.191-1.429h-.118A3.513,3.513,0,0,1-36.615-.193,5.064,5.064,0,0,1-38.607.2Zm.58-1.944a2.873,2.873,0,0,0,2.159-.892,3.233,3.233,0,0,0,.859-2.342l-2.761.612a3.31,3.31,0,0,0-1.332.5,1.079,1.079,0,0,0-.44.918,1.038,1.038,0,0,0,.419.9A1.837,1.837,0,0,0-38.027-1.74Zm11.2-7.251a3.263,3.263,0,0,1,1.37-1.375,4.272,4.272,0,0,1,2.111-.559v2.256a3.807,3.807,0,0,0-2.551.725,3.083,3.083,0,0,0-.833,2.433V0h-2.481V-10.807h2.385Zm6.746-3.878a1.476,1.476,0,0,1-1.074-.446,1.449,1.449,0,0,1-.451-1.069,1.458,1.458,0,0,1,.446-1.069,1.47,1.47,0,0,1,1.08-.446,1.463,1.463,0,0,1,1.063.446,1.449,1.449,0,0,1,.451,1.069,1.449,1.449,0,0,1-.451,1.069A1.463,1.463,0,0,1-20.077-12.869ZM-21.345,0V-10.807h2.481V0ZM-10.57.2a5.679,5.679,0,0,1-4.093-1.52,5.4,5.4,0,0,1-1.59-4.1,5.376,5.376,0,0,1,1.59-4.077,5.679,5.679,0,0,1,4.093-1.52A5.705,5.705,0,0,1-6.467-9.5a5.372,5.372,0,0,1,1.59,4.082,5.4,5.4,0,0,1-1.59,4.1A5.694,5.694,0,0,1-10.57.2Zm-.021-2a3.03,3.03,0,0,0,2.342-1,3.734,3.734,0,0,0,.913-2.621A3.714,3.714,0,0,0-8.25-8.03a3.038,3.038,0,0,0-2.342-.994,2.968,2.968,0,0,0-2.3.994,3.741,3.741,0,0,0-.9,2.616,3.775,3.775,0,0,0,.9,2.621A2.956,2.956,0,0,0-10.592-1.794ZM8.239.2a5.679,5.679,0,0,1-4.093-1.52,5.4,5.4,0,0,1-1.59-4.1,5.376,5.376,0,0,1,1.59-4.077,5.679,5.679,0,0,1,4.093-1.52,5.705,5.705,0,0,1,4.1,1.515,5.372,5.372,0,0,1,1.59,4.082,5.4,5.4,0,0,1-1.59,4.1A5.694,5.694,0,0,1,8.239.2Zm-.021-2a3.03,3.03,0,0,0,2.342-1,3.734,3.734,0,0,0,.913-2.621A3.714,3.714,0,0,0,10.56-8.03a3.038,3.038,0,0,0-2.342-.994,2.968,2.968,0,0,0-2.3.994,3.741,3.741,0,0,0-.9,2.616,3.775,3.775,0,0,0,.9,2.621A2.956,2.956,0,0,0,8.218-1.794ZM24.8.2a4.485,4.485,0,0,1-1.649-.285,2.621,2.621,0,0,1-1.2-.967,2.876,2.876,0,0,1-.478-1.692,3.134,3.134,0,0,1,.22-1.208,2.646,2.646,0,0,1,.58-.886,3.409,3.409,0,0,1,.913-.623A6.548,6.548,0,0,1,24.3-5.881q.564-.156,1.305-.3l1.633-.3q1-.193,1-.978a1.535,1.535,0,0,0-.6-1.348,2.565,2.565,0,0,0-1.515-.424,2.535,2.535,0,0,0-1.558.457,2,2,0,0,0-.73,1.445l-2.224-.408Q22.161-11,26.275-11a7.615,7.615,0,0,1,1.284.1,4.585,4.585,0,0,1,1.171.371,3.368,3.368,0,0,1,.983.682,2.976,2.976,0,0,1,.655,1.1,4.575,4.575,0,0,1,.247,1.563V-3a1.711,1.711,0,0,0,.226,1.031.972.972,0,0,0,.795.279h.172V0H30.637Q28.8,0,28.445-1.429h-.118A3.513,3.513,0,0,1,26.8-.193,5.064,5.064,0,0,1,24.8.2Zm.58-1.944a2.873,2.873,0,0,0,2.159-.892A3.233,3.233,0,0,0,28.4-4.974l-2.761.612a3.31,3.31,0,0,0-1.332.5,1.079,1.079,0,0,0-.44.918,1.038,1.038,0,0,0,.419.9A1.837,1.837,0,0,0,25.384-1.74Zm16.188-9.066h2.385V-.677A5.883,5.883,0,0,1,42.5,3.658a5.466,5.466,0,0,1-4.044,1.456q-4.093,0-5.414-3.33L35.095.859a3.8,3.8,0,0,0,1.268,1.713,3.368,3.368,0,0,0,2,.564,2.834,2.834,0,0,0,2.32-.951,4.139,4.139,0,0,0,.784-2.7v-1.6A3.572,3.572,0,0,1,40.02-.833a4.479,4.479,0,0,1-2.079.489,4.648,4.648,0,0,1-3.5-1.5,5.346,5.346,0,0,1-1.434-3.846,5.859,5.859,0,0,1,.4-2.175,4.981,4.981,0,0,1,1.069-1.687,4.883,4.883,0,0,1,1.574-1.069,4.8,4.8,0,0,1,1.912-.387,4.341,4.341,0,0,1,2.122.521,3.484,3.484,0,0,1,1.423,1.38ZM38.543-2.385a2.955,2.955,0,0,0,2.234-.967,3.287,3.287,0,0,0,.913-2.342,3.316,3.316,0,0,0-.908-2.347,2.943,2.943,0,0,0-2.24-.972,2.965,2.965,0,0,0-2.234.945,3.3,3.3,0,0,0-.9,2.374,3.271,3.271,0,0,0,.913,2.358A2.967,2.967,0,0,0,38.543-2.385Zm11.29-6.606a3.263,3.263,0,0,1,1.37-1.375,4.272,4.272,0,0,1,2.111-.559v2.256a3.807,3.807,0,0,0-2.551.725,3.083,3.083,0,0,0-.833,2.433V0H47.448V-10.807h2.385ZM60,.2A5.679,5.679,0,0,1,55.9-1.316a5.4,5.4,0,0,1-1.59-4.1A5.376,5.376,0,0,1,55.9-9.491,5.679,5.679,0,0,1,60-11.011,5.705,5.705,0,0,1,64.1-9.5a5.372,5.372,0,0,1,1.59,4.082,5.4,5.4,0,0,1-1.59,4.1A5.694,5.694,0,0,1,60,.2Zm-.021-2a3.03,3.03,0,0,0,2.342-1,3.734,3.734,0,0,0,.913-2.621,3.714,3.714,0,0,0-.913-2.616,3.038,3.038,0,0,0-2.342-.994,2.968,2.968,0,0,0-2.3.994,3.741,3.741,0,0,0-.9,2.616,3.775,3.775,0,0,0,.9,2.621A2.956,2.956,0,0,0,59.974-1.794Zm14.352-9.217a5.036,5.036,0,0,1,2.562.666,4.858,4.858,0,0,1,1.853,1.96,6.2,6.2,0,0,1,.7,2.992,6.638,6.638,0,0,1-.4,2.358,5.067,5.067,0,0,1-1.1,1.783A4.935,4.935,0,0,1,76.307-.145a5.045,5.045,0,0,1-1.982.392,4.429,4.429,0,0,1-2.111-.5A3.484,3.484,0,0,1,70.77-1.644V5.35H68.3V-10.807h2.363l.064,1.762a3.429,3.429,0,0,1,1.445-1.445A4.447,4.447,0,0,1,74.325-11.011Zm-.537,9.163a2.991,2.991,0,0,0,2.267-.967,3.6,3.6,0,0,0,.913-2.578,3.563,3.563,0,0,0-.913-2.567,3.007,3.007,0,0,0-2.267-.956,3,3,0,0,0-2.288.994,3.569,3.569,0,0,0-.924,2.53A3.6,3.6,0,0,0,71.5-2.847,2.991,2.991,0,0,0,73.788-1.848Zm18.1-3.738-.032.623H83.639A3.26,3.26,0,0,0,84.584-2.6a3.087,3.087,0,0,0,2.181.816,2.963,2.963,0,0,0,1.606-.44A2.776,2.776,0,0,0,89.439-3.48l2.256.387A4.749,4.749,0,0,1,89.826-.666a5.368,5.368,0,0,1-3.04.87,5.54,5.54,0,0,1-4.05-1.493A5.493,5.493,0,0,1,81.211-5.4a5.515,5.515,0,0,1,1.525-4.114,5.418,5.418,0,0,1,3.975-1.5,5.145,5.145,0,0,1,3.749,1.38A5.442,5.442,0,0,1,91.889-5.586Zm-5.167-3.6a3.153,3.153,0,0,0-1.95.585,2.851,2.851,0,0,0-1.026,1.789h5.661a2.6,2.6,0,0,0-.859-1.772A2.751,2.751,0,0,0,86.722-9.185ZM99.2.193a5.484,5.484,0,0,1-4.028-1.552,5.454,5.454,0,0,1-1.568-4.055,5.426,5.426,0,0,1,1.574-4.05A5.5,5.5,0,0,1,99.2-11.011a5.491,5.491,0,0,1,3.314.994,4.691,4.691,0,0,1,1.81,2.777l-2.3.3a2.88,2.88,0,0,0-1.058-1.547,2.981,2.981,0,0,0-1.789-.537,2.835,2.835,0,0,0-2.234.994,3.827,3.827,0,0,0-.87,2.616,3.827,3.827,0,0,0,.87,2.616,2.835,2.835,0,0,0,2.234.994,3,3,0,0,0,1.789-.532,2.852,2.852,0,0,0,1.058-1.542l2.3.29a4.7,4.7,0,0,1-1.821,2.782A5.482,5.482,0,0,1,99.2.193Zm14.545-11h2.471V0h-2.353L113.8-1.354A3.866,3.866,0,0,1,110.473.2a4,4,0,0,1-2.857-.972,3.618,3.618,0,0,1-1.031-2.766v-7.272h2.492v6.735a2.217,2.217,0,0,0,.6,1.7,2.176,2.176,0,0,0,1.542.553,2.506,2.506,0,0,0,1.821-.682,2.838,2.838,0,0,0,.714-2.1ZM122.268.2a4.485,4.485,0,0,1-1.649-.285,2.621,2.621,0,0,1-1.2-.967,2.876,2.876,0,0,1-.478-1.692,3.134,3.134,0,0,1,.22-1.208,2.646,2.646,0,0,1,.58-.886,3.409,3.409,0,0,1,.913-.623,6.548,6.548,0,0,1,1.117-.424q.564-.156,1.305-.3l1.633-.3q1-.193,1-.978a1.535,1.535,0,0,0-.6-1.348,2.565,2.565,0,0,0-1.515-.424,2.535,2.535,0,0,0-1.558.457,2,2,0,0,0-.73,1.445l-2.224-.408Q119.625-11,123.739-11a7.615,7.615,0,0,1,1.284.1,4.585,4.585,0,0,1,1.171.371,3.368,3.368,0,0,1,.983.682,2.976,2.976,0,0,1,.655,1.1,4.575,4.575,0,0,1,.247,1.563V-3a1.711,1.711,0,0,0,.226,1.031.972.972,0,0,0,.795.279h.172V0H128.1q-1.837,0-2.191-1.429h-.118A3.513,3.513,0,0,1,124.26-.193,5.064,5.064,0,0,1,122.268.2Zm.58-1.944a2.873,2.873,0,0,0,2.159-.892,3.233,3.233,0,0,0,.859-2.342l-2.761.612a3.31,3.31,0,0,0-1.332.5,1.079,1.079,0,0,0-.44.918,1.038,1.038,0,0,0,.419.9A1.837,1.837,0,0,0,122.848-1.74Zm11.2-7.251a3.263,3.263,0,0,1,1.37-1.375,4.272,4.272,0,0,1,2.111-.559v2.256a3.807,3.807,0,0,0-2.551.725,3.083,3.083,0,0,0-.833,2.433V0h-2.481V-10.807h2.385Zm6.746-3.878a1.476,1.476,0,0,1-1.074-.446,1.449,1.449,0,0,1-.451-1.069,1.458,1.458,0,0,1,.446-1.069,1.47,1.47,0,0,1,1.08-.446,1.463,1.463,0,0,1,1.063.446,1.449,1.449,0,0,1,.451,1.069,1.449,1.449,0,0,1-.451,1.069A1.463,1.463,0,0,1,140.8-12.869ZM139.53,0V-10.807h2.481V0ZM150.3.2a5.679,5.679,0,0,1-4.093-1.52,5.4,5.4,0,0,1-1.59-4.1,5.376,5.376,0,0,1,1.59-4.077,5.679,5.679,0,0,1,4.093-1.52,5.705,5.705,0,0,1,4.1,1.515A5.372,5.372,0,0,1,156-5.414a5.4,5.4,0,0,1-1.59,4.1A5.694,5.694,0,0,1,150.3.2Zm-.021-2a3.03,3.03,0,0,0,2.342-1,3.734,3.734,0,0,0,.913-2.621,3.714,3.714,0,0,0-.913-2.616,3.038,3.038,0,0,0-2.342-.994,2.968,2.968,0,0,0-2.3.994,3.741,3.741,0,0,0-.9,2.616,3.775,3.775,0,0,0,.9,2.621A2.956,2.956,0,0,0,150.283-1.794Z" transform="translate(966.112 2979)" fill="#00223d"/>
      <path id="Trazado_33311" data-name="Trazado 33311" d="M-98.549.2a7.234,7.234,0,0,1-4.136-1.123,4.624,4.624,0,0,1-2.03-3.131l2.643-.612a2.942,2.942,0,0,0,1.187,2.014,4.028,4.028,0,0,0,2.433.714,3.507,3.507,0,0,0,2.03-.553,1.888,1.888,0,0,0,.795-1.692,1.756,1.756,0,0,0-.236-.859,2.459,2.459,0,0,0-.5-.628,3.323,3.323,0,0,0-.87-.489q-.591-.247-.967-.365t-1.16-.344a1.351,1.351,0,0,0-.15-.043q-.612-.183-1-.306t-.94-.344a6.073,6.073,0,0,1-.9-.43,6.185,6.185,0,0,1-.736-.537,2.8,2.8,0,0,1-.612-.693,3.785,3.785,0,0,1-.371-.865,3.768,3.768,0,0,1-.15-1.09,3.828,3.828,0,0,1,1.488-3.212,5.977,5.977,0,0,1,3.765-1.149A8.265,8.265,0,0,1-97-15.308a6.755,6.755,0,0,1,1.724.677,4.269,4.269,0,0,1,1.359,1.214,4.566,4.566,0,0,1,.773,1.762l-2.481.623a2.709,2.709,0,0,0-1.1-1.767,3.646,3.646,0,0,0-2.111-.585,3.478,3.478,0,0,0-1.982.537,1.832,1.832,0,0,0-.8,1.633,1.4,1.4,0,0,0,.107.553,2.142,2.142,0,0,0,.247.44,1.6,1.6,0,0,0,.44.376q.3.188.521.3a5.15,5.15,0,0,0,.671.263q.451.15.7.22l.79.22q.5.14.811.231t.8.258q.494.167.8.306t.72.365a3.952,3.952,0,0,1,.677.451,5.963,5.963,0,0,1,.548.542,2.558,2.558,0,0,1,.44.666,4.635,4.635,0,0,1,.263.79,3.981,3.981,0,0,1,.107.945,4.35,4.35,0,0,1-.457,2.03A3.724,3.724,0,0,1-94.671-.849a5.866,5.866,0,0,1-1.767.79A8.136,8.136,0,0,1-98.549.2Zm18.24-5.79-.032.623h-8.218A3.26,3.26,0,0,0-87.613-2.6a3.087,3.087,0,0,0,2.181.816,2.963,2.963,0,0,0,1.606-.44A2.776,2.776,0,0,0-82.758-3.48l2.256.387A4.749,4.749,0,0,1-82.371-.666a5.368,5.368,0,0,1-3.04.87,5.54,5.54,0,0,1-4.05-1.493A5.493,5.493,0,0,1-90.986-5.4a5.515,5.515,0,0,1,1.525-4.114,5.418,5.418,0,0,1,3.975-1.5,5.145,5.145,0,0,1,3.749,1.38A5.442,5.442,0,0,1-80.309-5.586Zm-5.167-3.6a3.153,3.153,0,0,0-1.95.585,2.851,2.851,0,0,0-1.026,1.789h5.661a2.6,2.6,0,0,0-.859-1.772A2.751,2.751,0,0,0-85.476-9.185ZM-72.993.193a5.484,5.484,0,0,1-4.028-1.552A5.454,5.454,0,0,1-78.59-5.414a5.426,5.426,0,0,1,1.574-4.05,5.5,5.5,0,0,1,4.023-1.547,5.491,5.491,0,0,1,3.314.994,4.691,4.691,0,0,1,1.81,2.777l-2.3.3a2.88,2.88,0,0,0-1.058-1.547,2.981,2.981,0,0,0-1.789-.537,2.835,2.835,0,0,0-2.234.994,3.827,3.827,0,0,0-.87,2.616,3.827,3.827,0,0,0,.87,2.616,2.835,2.835,0,0,0,2.234.994,3,3,0,0,0,1.789-.532,2.852,2.852,0,0,0,1.058-1.542l2.3.29A4.7,4.7,0,0,1-69.69-.806,5.482,5.482,0,0,1-72.993.193ZM-61.649,0a3.055,3.055,0,0,1-2.277-.827,3.176,3.176,0,0,1-.816-2.331V-8.873H-66.9v-1.934h.741a1.69,1.69,0,0,0,1.273-.414,2.089,2.089,0,0,0,.392-1.445v-1.676h2.256v3.534h2.353v1.934H-62.24v5.457a1.549,1.549,0,0,0,.371,1.123,1.336,1.336,0,0,0,1,.381h.978V0Zm9.013.2a5.679,5.679,0,0,1-4.093-1.52,5.4,5.4,0,0,1-1.59-4.1,5.376,5.376,0,0,1,1.59-4.077,5.679,5.679,0,0,1,4.093-1.52,5.705,5.705,0,0,1,4.1,1.515,5.372,5.372,0,0,1,1.59,4.082,5.4,5.4,0,0,1-1.59,4.1A5.694,5.694,0,0,1-52.637.2Zm-.021-2a3.03,3.03,0,0,0,2.342-1A3.734,3.734,0,0,0-49.4-5.414a3.714,3.714,0,0,0-.913-2.616,3.038,3.038,0,0,0-2.342-.994,2.968,2.968,0,0,0-2.3.994,3.741,3.741,0,0,0-.9,2.616,3.775,3.775,0,0,0,.9,2.621A2.956,2.956,0,0,0-52.658-1.794Zm10.71-7.2a3.263,3.263,0,0,1,1.37-1.375,4.272,4.272,0,0,1,2.111-.559v2.256a3.807,3.807,0,0,0-2.551.725,3.083,3.083,0,0,0-.833,2.433V0h-2.481V-10.807h2.385Zm14.8,9.2a5.563,5.563,0,0,1-3.029-.768,3.206,3.206,0,0,1-1.482-2.229l2.095-.591a2.239,2.239,0,0,0,.849,1.359,2.613,2.613,0,0,0,1.568.457,2.5,2.5,0,0,0,1.311-.322,1.1,1.1,0,0,0,.526-1.042,1.007,1.007,0,0,0-.14-.532,1.461,1.461,0,0,0-.333-.387,2.324,2.324,0,0,0-.553-.306,6.242,6.242,0,0,0-.655-.236l-.8-.236q-.5-.15-.838-.258a7.637,7.637,0,0,1-1.031-.4,4.894,4.894,0,0,1-.849-.537,2.1,2.1,0,0,1-.65-.843,2.975,2.975,0,0,1-.22-1.187,2.841,2.841,0,0,1,.548-1.772,3.116,3.116,0,0,1,1.439-1.047A5.9,5.9,0,0,1-27.35-11a5.044,5.044,0,0,1,2.734.7,3.051,3.051,0,0,1,1.38,2.138L-25.19-7.7a1.948,1.948,0,0,0-.779-1.2,2.4,2.4,0,0,0-1.37-.387,2.392,2.392,0,0,0-1.251.306,1.012,1.012,0,0,0-.51.929,1.261,1.261,0,0,0,.038.317.618.618,0,0,0,.145.263q.107.118.193.209a1.009,1.009,0,0,0,.279.188q.193.1.312.15a3.381,3.381,0,0,0,.387.134l.4.118q.129.038.446.118l.446.113q.6.161,1.026.3a5.92,5.92,0,0,1,.935.414,3.257,3.257,0,0,1,.827.607,2.713,2.713,0,0,1,.532.865,3.143,3.143,0,0,1,.215,1.187,3.205,3.205,0,0,1-.344,1.52,2.614,2.614,0,0,1-.94,1.021A4.605,4.605,0,0,1-25.54.021,6.66,6.66,0,0,1-27.146.2Zm16.607-5.79-.032.623h-8.218A3.26,3.26,0,0,0-17.843-2.6a3.087,3.087,0,0,0,2.181.816,2.963,2.963,0,0,0,1.606-.44A2.776,2.776,0,0,0-12.987-3.48l2.256.387A4.749,4.749,0,0,1-12.6-.666a5.368,5.368,0,0,1-3.04.87,5.54,5.54,0,0,1-4.05-1.493A5.493,5.493,0,0,1-21.216-5.4,5.515,5.515,0,0,1-19.69-9.518a5.418,5.418,0,0,1,3.975-1.5,5.145,5.145,0,0,1,3.749,1.38A5.442,5.442,0,0,1-10.538-5.586Zm-5.167-3.6a3.153,3.153,0,0,0-1.95.585,2.851,2.851,0,0,0-1.026,1.789h5.661a2.6,2.6,0,0,0-.859-1.772A2.751,2.751,0,0,0-15.705-9.185ZM-3.223.193A5.484,5.484,0,0,1-7.251-1.359,5.454,5.454,0,0,1-8.819-5.414a5.426,5.426,0,0,1,1.574-4.05,5.5,5.5,0,0,1,4.023-1.547,5.491,5.491,0,0,1,3.314.994A4.691,4.691,0,0,1,1.9-7.24l-2.3.3A2.88,2.88,0,0,0-1.456-8.486a2.981,2.981,0,0,0-1.789-.537,2.835,2.835,0,0,0-2.234.994,3.827,3.827,0,0,0-.87,2.616A3.827,3.827,0,0,0-5.479-2.8,2.835,2.835,0,0,0-3.244-1.8a3,3,0,0,0,1.789-.532A2.852,2.852,0,0,0-.4-3.878l2.3.29A4.7,4.7,0,0,1,.081-.806,5.482,5.482,0,0,1-3.223.193Zm14.545-11h2.471V0H11.44l-.064-1.354A3.866,3.866,0,0,1,8.046.2,4,4,0,0,1,5.188-.768,3.618,3.618,0,0,1,4.157-3.534v-7.272H6.649v6.735a2.217,2.217,0,0,0,.6,1.7,2.176,2.176,0,0,0,1.542.553A2.506,2.506,0,0,0,10.608-2.5a2.838,2.838,0,0,0,.714-2.1Zm11.72-.2a4,4,0,0,1,2.857.972,3.618,3.618,0,0,1,1.031,2.766V0H24.438V-6.735a2.217,2.217,0,0,0-.6-1.7,2.161,2.161,0,0,0-1.531-.553,2.525,2.525,0,0,0-1.826.682,2.825,2.825,0,0,0-.72,2.1V0H17.295V-10.807h2.471v1.278a3.651,3.651,0,0,1,1.391-1.1A4.471,4.471,0,0,1,23.042-11.011ZM38.027-16.5H40.5V0H38.135L38.07-1.719A3.478,3.478,0,0,1,36.625-.279a4.41,4.41,0,0,1-2.154.526,4.986,4.986,0,0,1-1.982-.4,5,5,0,0,1-1.627-1.112,5.129,5.129,0,0,1-1.106-1.783,6.528,6.528,0,0,1-.408-2.347,6.453,6.453,0,0,1,.408-2.331A5.138,5.138,0,0,1,30.862-9.5,4.989,4.989,0,0,1,32.5-10.613a5,5,0,0,1,1.977-.4,4.468,4.468,0,0,1,2.111.5,3.471,3.471,0,0,1,1.445,1.37Zm-5.3,13.675a3.022,3.022,0,0,0,2.288.978,2.958,2.958,0,0,0,2.277-1,3.628,3.628,0,0,0,.913-2.546,3.6,3.6,0,0,0-.918-2.535,2.963,2.963,0,0,0-2.272-1,3.013,3.013,0,0,0-2.283.972,3.578,3.578,0,0,0-.918,2.562A3.61,3.61,0,0,0,32.731-2.825ZM46.546.2A4.485,4.485,0,0,1,44.9-.081a2.621,2.621,0,0,1-1.2-.967,2.876,2.876,0,0,1-.478-1.692,3.134,3.134,0,0,1,.22-1.208,2.646,2.646,0,0,1,.58-.886,3.409,3.409,0,0,1,.913-.623,6.548,6.548,0,0,1,1.117-.424q.564-.156,1.305-.3l1.633-.3q1-.193,1-.978a1.535,1.535,0,0,0-.6-1.348,2.565,2.565,0,0,0-1.515-.424,2.536,2.536,0,0,0-1.558.457,2,2,0,0,0-.73,1.445l-2.224-.408Q43.9-11,48.018-11a7.615,7.615,0,0,1,1.284.1,4.585,4.585,0,0,1,1.171.371,3.368,3.368,0,0,1,.983.682,2.976,2.976,0,0,1,.655,1.1,4.575,4.575,0,0,1,.247,1.563V-3a1.711,1.711,0,0,0,.226,1.031.972.972,0,0,0,.795.279h.172V0H52.379q-1.837,0-2.191-1.429h-.118A3.513,3.513,0,0,1,48.539-.193,5.064,5.064,0,0,1,46.546.2Zm.58-1.944a2.873,2.873,0,0,0,2.159-.892,3.233,3.233,0,0,0,.859-2.342l-2.761.612a3.31,3.31,0,0,0-1.332.5,1.079,1.079,0,0,0-.44.918,1.038,1.038,0,0,0,.419.9A1.837,1.837,0,0,0,47.126-1.74Zm11.2-7.251a3.263,3.263,0,0,1,1.37-1.375,4.272,4.272,0,0,1,2.111-.559v2.256a3.807,3.807,0,0,0-2.551.725,3.083,3.083,0,0,0-.833,2.433V0H55.945V-10.807H58.33Zm6.746-3.878A1.476,1.476,0,0,1,64-13.315a1.449,1.449,0,0,1-.451-1.069A1.458,1.458,0,0,1,64-15.453a1.47,1.47,0,0,1,1.08-.446,1.463,1.463,0,0,1,1.063.446,1.449,1.449,0,0,1,.451,1.069,1.449,1.449,0,0,1-.451,1.069A1.463,1.463,0,0,1,65.076-12.869ZM63.809,0V-10.807H66.29V0ZM74.583.2a5.679,5.679,0,0,1-4.093-1.52,5.4,5.4,0,0,1-1.59-4.1,5.376,5.376,0,0,1,1.59-4.077,5.679,5.679,0,0,1,4.093-1.52,5.705,5.705,0,0,1,4.1,1.515,5.372,5.372,0,0,1,1.59,4.082,5.4,5.4,0,0,1-1.59,4.1A5.694,5.694,0,0,1,74.583.2Zm-.021-2a3.03,3.03,0,0,0,2.342-1,3.734,3.734,0,0,0,.913-2.621A3.714,3.714,0,0,0,76.9-8.03a3.038,3.038,0,0,0-2.342-.994,2.968,2.968,0,0,0-2.3.994,3.741,3.741,0,0,0-.9,2.616,3.775,3.775,0,0,0,.9,2.621A2.956,2.956,0,0,0,74.562-1.794ZM93.393.2A5.679,5.679,0,0,1,89.3-1.316a5.4,5.4,0,0,1-1.59-4.1A5.376,5.376,0,0,1,89.3-9.491a5.679,5.679,0,0,1,4.093-1.52A5.705,5.705,0,0,1,97.5-9.5a5.372,5.372,0,0,1,1.59,4.082,5.4,5.4,0,0,1-1.59,4.1A5.694,5.694,0,0,1,93.393.2Zm-.021-2a3.03,3.03,0,0,0,2.342-1,3.734,3.734,0,0,0,.913-2.621,3.714,3.714,0,0,0-.913-2.616,3.038,3.038,0,0,0-2.342-.994,2.968,2.968,0,0,0-2.3.994,3.741,3.741,0,0,0-.9,2.616,3.775,3.775,0,0,0,.9,2.621A2.956,2.956,0,0,0,93.371-1.794ZM-47.76,17.131a1.476,1.476,0,0,1-1.074-.446,1.449,1.449,0,0,1-.451-1.069,1.458,1.458,0,0,1,.446-1.069,1.47,1.47,0,0,1,1.08-.446,1.463,1.463,0,0,1,1.063.446,1.449,1.449,0,0,1,.451,1.069,1.449,1.449,0,0,1-.451,1.069A1.463,1.463,0,0,1-47.76,17.131ZM-49.027,30V19.193h2.481V30ZM-37.3,18.989a4,4,0,0,1,2.857.972,3.618,3.618,0,0,1,1.031,2.766V30H-35.9V23.265a2.217,2.217,0,0,0-.6-1.7,2.161,2.161,0,0,0-1.531-.553,2.525,2.525,0,0,0-1.826.682,2.825,2.825,0,0,0-.72,2.1V30h-2.471V19.193h2.471v1.278a3.651,3.651,0,0,1,1.391-1.1A4.471,4.471,0,0,1-37.3,18.989ZM-22.312,13.5h2.471V30H-22.2l-.064-1.719a3.478,3.478,0,0,1-1.445,1.439,4.41,4.41,0,0,1-2.154.526,4.986,4.986,0,0,1-1.982-.4,5,5,0,0,1-1.627-1.112,5.129,5.129,0,0,1-1.106-1.783,6.528,6.528,0,0,1-.408-2.347,6.453,6.453,0,0,1,.408-2.331A5.138,5.138,0,0,1-29.477,20.5a4.989,4.989,0,0,1,1.633-1.112,5,5,0,0,1,1.977-.4,4.468,4.468,0,0,1,2.111.5,3.471,3.471,0,0,1,1.445,1.37Zm-5.3,13.675a3.022,3.022,0,0,0,2.288.978,2.958,2.958,0,0,0,2.277-1,3.628,3.628,0,0,0,.913-2.546,3.6,3.6,0,0,0-.918-2.535,2.963,2.963,0,0,0-2.272-1,3.013,3.013,0,0,0-2.283.972,3.578,3.578,0,0,0-.918,2.562A3.61,3.61,0,0,0-27.607,27.175ZM-9.4,19.193h2.471V30H-9.281l-.064-1.354a3.866,3.866,0,0,1-3.33,1.558,4,4,0,0,1-2.857-.972,3.618,3.618,0,0,1-1.031-2.766V19.193h2.492v6.735a2.217,2.217,0,0,0,.6,1.7,2.176,2.176,0,0,0,1.542.553,2.506,2.506,0,0,0,1.821-.682A2.838,2.838,0,0,0-9.4,25.4ZM.183,30.2a5.563,5.563,0,0,1-3.029-.768,3.206,3.206,0,0,1-1.482-2.229l2.095-.591a2.239,2.239,0,0,0,.849,1.359,2.613,2.613,0,0,0,1.568.457,2.5,2.5,0,0,0,1.311-.322,1.1,1.1,0,0,0,.526-1.042,1.007,1.007,0,0,0-.14-.532,1.461,1.461,0,0,0-.333-.387,2.324,2.324,0,0,0-.553-.306,6.242,6.242,0,0,0-.655-.236l-.8-.236q-.5-.15-.838-.258a7.637,7.637,0,0,1-1.031-.4,4.894,4.894,0,0,1-.849-.537,2.1,2.1,0,0,1-.65-.843,2.975,2.975,0,0,1-.22-1.187A2.841,2.841,0,0,1-3.5,20.375a3.116,3.116,0,0,1,1.439-1.047A5.9,5.9,0,0,1-.021,19a5.044,5.044,0,0,1,2.734.7,3.051,3.051,0,0,1,1.38,2.138L2.138,22.3a1.948,1.948,0,0,0-.779-1.2,2.4,2.4,0,0,0-1.37-.387,2.392,2.392,0,0,0-1.251.306,1.012,1.012,0,0,0-.51.929,1.261,1.261,0,0,0,.038.317.618.618,0,0,0,.145.263q.107.118.193.209a1.009,1.009,0,0,0,.279.188q.193.1.312.15a3.382,3.382,0,0,0,.387.134l.4.118q.129.038.446.118l.446.113q.6.161,1.026.3a5.92,5.92,0,0,1,.935.414,3.257,3.257,0,0,1,.827.607,2.713,2.713,0,0,1,.532.865A3.143,3.143,0,0,1,4.4,26.928a3.205,3.205,0,0,1-.344,1.52,2.614,2.614,0,0,1-.94,1.021,4.605,4.605,0,0,1-1.332.553A6.66,6.66,0,0,1,.183,30.2ZM10.721,30a3.055,3.055,0,0,1-2.277-.827,3.176,3.176,0,0,1-.816-2.331V21.127H5.468V19.193h.741a1.69,1.69,0,0,0,1.273-.414,2.089,2.089,0,0,0,.392-1.445V15.659H10.13v3.534h2.353v1.934H10.13v5.457a1.549,1.549,0,0,0,.371,1.123,1.336,1.336,0,0,0,1,.381h.978V30Zm6.692-8.991a3.263,3.263,0,0,1,1.37-1.375,4.272,4.272,0,0,1,2.111-.559v2.256a3.807,3.807,0,0,0-2.551.725,3.083,3.083,0,0,0-.833,2.433V30H15.028V19.193h2.385Zm6.746-3.878a1.476,1.476,0,0,1-1.074-.446,1.5,1.5,0,0,1-.005-2.138,1.511,1.511,0,0,1,2.143,0,1.515,1.515,0,0,1-1.063,2.583ZM22.892,30V19.193h2.481V30Zm8.529.2a4.485,4.485,0,0,1-1.649-.285,2.621,2.621,0,0,1-1.2-.967,2.876,2.876,0,0,1-.478-1.692,3.134,3.134,0,0,1,.22-1.208,2.646,2.646,0,0,1,.58-.886,3.409,3.409,0,0,1,.913-.623,6.548,6.548,0,0,1,1.117-.424q.564-.156,1.305-.3l1.633-.3q1-.193,1-.978a1.535,1.535,0,0,0-.6-1.348,2.565,2.565,0,0,0-1.515-.424,2.536,2.536,0,0,0-1.558.457,2,2,0,0,0-.73,1.445l-2.224-.408Q28.778,19,32.893,19a7.615,7.615,0,0,1,1.284.1,4.584,4.584,0,0,1,1.171.371,3.368,3.368,0,0,1,.983.682,2.976,2.976,0,0,1,.655,1.1,4.575,4.575,0,0,1,.247,1.563V27a1.711,1.711,0,0,0,.226,1.031.972.972,0,0,0,.795.279h.172V30H37.254q-1.837,0-2.191-1.429h-.118a3.513,3.513,0,0,1-1.531,1.235A5.064,5.064,0,0,1,31.421,30.2ZM32,28.26a2.873,2.873,0,0,0,2.159-.892,3.233,3.233,0,0,0,.859-2.342l-2.761.612a3.31,3.31,0,0,0-1.332.5,1.079,1.079,0,0,0-.44.918,1.038,1.038,0,0,0,.419.9A1.837,1.837,0,0,0,32,28.26ZM40.82,30V13.5h2.492V30Z" transform="translate(966.112 2817)" fill="#00223d"/>
      <path id="Trazado_33310" data-name="Trazado 33310" d="M-26.787.186a6.576,6.576,0,0,1-3.76-1.021,4.2,4.2,0,0,1-1.846-2.847l2.4-.557a2.675,2.675,0,0,0,1.079,1.831,3.662,3.662,0,0,0,2.212.649,3.188,3.188,0,0,0,1.846-.5A1.717,1.717,0,0,0-24.131-3.8a1.6,1.6,0,0,0-.215-.781,2.236,2.236,0,0,0-.459-.571A3.021,3.021,0,0,0-25.6-5.6q-.537-.225-.879-.332t-1.055-.312a1.228,1.228,0,0,0-.137-.039q-.557-.166-.908-.278t-.854-.312a5.521,5.521,0,0,1-.815-.391,5.623,5.623,0,0,1-.669-.488,2.541,2.541,0,0,1-.557-.63,3.441,3.441,0,0,1-.337-.786,3.425,3.425,0,0,1-.137-.991,3.48,3.48,0,0,1,1.353-2.92,5.434,5.434,0,0,1,3.423-1.045,7.514,7.514,0,0,1,1.787.205,6.141,6.141,0,0,1,1.567.615,3.881,3.881,0,0,1,1.235,1.1,4.151,4.151,0,0,1,.7,1.6l-2.256.566a2.463,2.463,0,0,0-1-1.606,3.314,3.314,0,0,0-1.919-.532,3.162,3.162,0,0,0-1.8.488A1.666,1.666,0,0,0-29.58-10.2a1.271,1.271,0,0,0,.1.5,1.947,1.947,0,0,0,.225.4,1.453,1.453,0,0,0,.4.342q.273.171.474.273a4.681,4.681,0,0,0,.61.239q.41.137.64.2l.718.2q.459.127.737.21t.728.234q.449.151.728.278t.654.332a3.593,3.593,0,0,1,.615.41,5.42,5.42,0,0,1,.5.493,2.325,2.325,0,0,1,.4.605,4.214,4.214,0,0,1,.239.718,3.619,3.619,0,0,1,.1.859,3.954,3.954,0,0,1-.415,1.846A3.386,3.386,0,0,1-23.262-.771a5.333,5.333,0,0,1-1.606.718A7.4,7.4,0,0,1-26.787.186Zm16.582-5.264-.029.566h-7.471a2.964,2.964,0,0,0,.859,2.148,2.806,2.806,0,0,0,1.982.742,2.694,2.694,0,0,0,1.46-.4,2.524,2.524,0,0,0,.972-1.143l2.051.352a4.318,4.318,0,0,1-1.7,2.207,4.88,4.88,0,0,1-2.764.791,5.036,5.036,0,0,1-3.682-1.357,4.994,4.994,0,0,1-1.387-3.74,5.014,5.014,0,0,1,1.387-3.74,4.926,4.926,0,0,1,3.613-1.367A4.677,4.677,0,0,1-11.5-8.765,4.947,4.947,0,0,1-10.205-5.078ZM-14.9-8.35a2.867,2.867,0,0,0-1.772.532,2.592,2.592,0,0,0-.933,1.626h5.146A2.368,2.368,0,0,0-13.242-7.8,2.5,2.5,0,0,0-14.9-8.35ZM-3.555.176A4.985,4.985,0,0,1-7.217-1.235,4.958,4.958,0,0,1-8.643-4.922,4.933,4.933,0,0,1-7.212-8.6,5,5,0,0,1-3.555-10.01a4.992,4.992,0,0,1,3.013.9A4.264,4.264,0,0,1,1.1-6.582l-2.09.273a2.618,2.618,0,0,0-.962-1.406A2.71,2.71,0,0,0-3.574-8.2a2.577,2.577,0,0,0-2.031.9A3.479,3.479,0,0,0-6.4-4.922a3.479,3.479,0,0,0,.791,2.378,2.577,2.577,0,0,0,2.031.9,2.729,2.729,0,0,0,1.626-.483,2.593,2.593,0,0,0,.962-1.4l2.09.264A4.27,4.27,0,0,1-.552-.732,4.984,4.984,0,0,1-3.555.176ZM6.758,0a2.778,2.778,0,0,1-2.07-.752,2.888,2.888,0,0,1-.742-2.119v-5.2H1.982V-9.824h.674A1.536,1.536,0,0,0,3.813-10.2a1.9,1.9,0,0,0,.356-1.313v-1.523H6.221v3.213H8.359v1.758H6.221v4.961a1.408,1.408,0,0,0,.337,1.021,1.214,1.214,0,0,0,.913.347h.889V0Zm8.193.186A5.163,5.163,0,0,1,11.23-1.2,4.912,4.912,0,0,1,9.785-4.922,4.887,4.887,0,0,1,11.23-8.628a5.163,5.163,0,0,1,3.721-1.382,5.187,5.187,0,0,1,3.73,1.377,4.884,4.884,0,0,1,1.445,3.711A4.912,4.912,0,0,1,18.682-1.2,5.176,5.176,0,0,1,14.951.186Zm-.02-1.816a2.755,2.755,0,0,0,2.129-.908,3.394,3.394,0,0,0,.83-2.383,3.376,3.376,0,0,0-.83-2.378,2.762,2.762,0,0,0-2.129-.9,2.7,2.7,0,0,0-2.09.9,3.4,3.4,0,0,0-.82,2.378,3.432,3.432,0,0,0,.815,2.383A2.688,2.688,0,0,0,14.932-1.631Zm9.736-6.543a2.967,2.967,0,0,1,1.245-1.25,3.884,3.884,0,0,1,1.919-.508v2.051a3.461,3.461,0,0,0-2.319.659,2.8,2.8,0,0,0-.757,2.212V0H22.5V-9.824h2.168ZM-36.387,30a2.778,2.778,0,0,1-2.07-.752,2.888,2.888,0,0,1-.742-2.119v-5.2h-1.963V20.176h.674a1.536,1.536,0,0,0,1.157-.376,1.9,1.9,0,0,0,.356-1.313V16.963h2.051v3.213h2.139v1.758h-2.139v4.961a1.408,1.408,0,0,0,.337,1.021,1.214,1.214,0,0,0,.913.347h.889V30Zm12.754-5.078-.029.566h-7.471a2.964,2.964,0,0,0,.859,2.148,2.806,2.806,0,0,0,1.982.742,2.694,2.694,0,0,0,1.46-.4,2.524,2.524,0,0,0,.972-1.143l2.051.352a4.318,4.318,0,0,1-1.7,2.207,4.88,4.88,0,0,1-2.764.791,5.036,5.036,0,0,1-3.682-1.357,4.994,4.994,0,0,1-1.387-3.74,5.014,5.014,0,0,1,1.387-3.74A4.926,4.926,0,0,1-28.34,19.98a4.677,4.677,0,0,1,3.408,1.255A4.947,4.947,0,0,1-23.633,24.922Zm-4.7-3.271a2.867,2.867,0,0,0-1.772.532,2.592,2.592,0,0,0-.933,1.626h5.146A2.368,2.368,0,0,0-26.67,22.2,2.5,2.5,0,0,0-28.33,21.65Zm9.258.176a2.967,2.967,0,0,1,1.245-1.25,3.884,3.884,0,0,1,1.919-.508v2.051a3.461,3.461,0,0,0-2.319.659,2.8,2.8,0,0,0-.757,2.212V30H-21.24V20.176h2.168Zm9.141,8.35a4.985,4.985,0,0,1-3.662-1.411,4.958,4.958,0,0,1-1.426-3.687A4.933,4.933,0,0,1-13.589,21.4,5,5,0,0,1-9.932,19.99a4.992,4.992,0,0,1,3.013.9,4.264,4.264,0,0,1,1.646,2.524l-2.09.273a2.618,2.618,0,0,0-.962-1.406A2.71,2.71,0,0,0-9.951,21.8a2.577,2.577,0,0,0-2.031.9,3.479,3.479,0,0,0-.791,2.378,3.479,3.479,0,0,0,.791,2.378,2.577,2.577,0,0,0,2.031.9,2.729,2.729,0,0,0,1.626-.483,2.593,2.593,0,0,0,.962-1.4l2.09.264a4.27,4.27,0,0,1-1.655,2.529A4.984,4.984,0,0,1-9.932,30.176ZM-1.865,18.3a1.342,1.342,0,0,1-.977-.405,1.318,1.318,0,0,1-.41-.972,1.325,1.325,0,0,1,.405-.972,1.337,1.337,0,0,1,.981-.405,1.33,1.33,0,0,1,.967.405,1.318,1.318,0,0,1,.41.972A1.318,1.318,0,0,1-.9,17.9,1.33,1.33,0,0,1-1.865,18.3ZM-3.018,30V20.176H-.762V30Zm7.754.186a4.077,4.077,0,0,1-1.5-.259,2.383,2.383,0,0,1-1.094-.879,2.614,2.614,0,0,1-.435-1.538,2.849,2.849,0,0,1,.2-1.1,2.406,2.406,0,0,1,.527-.806,3.1,3.1,0,0,1,.83-.566,5.953,5.953,0,0,1,1.016-.386q.513-.142,1.187-.269l1.484-.273q.908-.176.908-.889A1.4,1.4,0,0,0,7.314,22a2.331,2.331,0,0,0-1.377-.386,2.3,2.3,0,0,0-1.416.415,1.817,1.817,0,0,0-.664,1.313l-2.021-.371Q2.334,20,6.074,20a6.923,6.923,0,0,1,1.167.093,4.168,4.168,0,0,1,1.064.337,3.062,3.062,0,0,1,.894.62,2.706,2.706,0,0,1,.6,1,4.159,4.159,0,0,1,.225,1.421v3.809a1.555,1.555,0,0,0,.205.938.883.883,0,0,0,.723.254H11.1V30H10.039q-1.67,0-1.992-1.3H7.939a3.193,3.193,0,0,1-1.392,1.123A4.6,4.6,0,0,1,4.736,30.186Zm.527-1.768a2.612,2.612,0,0,0,1.963-.811,2.939,2.939,0,0,0,.781-2.129l-2.51.557a3.009,3.009,0,0,0-1.211.454.981.981,0,0,0-.4.835.944.944,0,0,0,.381.82A1.67,1.67,0,0,0,5.264,28.418Zm10.186-6.592a2.967,2.967,0,0,1,1.245-1.25,3.884,3.884,0,0,1,1.919-.508v2.051a3.461,3.461,0,0,0-2.319.659,2.8,2.8,0,0,0-.757,2.212V30H13.281V20.176h2.168ZM21.582,18.3a1.342,1.342,0,0,1-.977-.405,1.362,1.362,0,0,1,0-1.943,1.373,1.373,0,0,1,1.948,0,1.377,1.377,0,0,1-.967,2.349ZM20.43,30V20.176h2.256V30Zm9.795.186A5.163,5.163,0,0,1,26.5,28.8a4.912,4.912,0,0,1-1.445-3.726A4.887,4.887,0,0,1,26.5,21.372a5.163,5.163,0,0,1,3.721-1.382,5.187,5.187,0,0,1,3.73,1.377A4.884,4.884,0,0,1,35.4,25.078,4.912,4.912,0,0,1,33.955,28.8,5.176,5.176,0,0,1,30.225,30.186Zm-.02-1.816a2.755,2.755,0,0,0,2.129-.908,3.394,3.394,0,0,0,.83-2.383,3.376,3.376,0,0,0-.83-2.378,2.762,2.762,0,0,0-2.129-.9,2.7,2.7,0,0,0-2.09.9,3.4,3.4,0,0,0-.82,2.378,3.432,3.432,0,0,0,.815,2.383A2.688,2.688,0,0,0,30.205,28.369ZM-60.7,60.186A5.163,5.163,0,0,1-64.424,58.8a4.912,4.912,0,0,1-1.445-3.726,4.887,4.887,0,0,1,1.445-3.706A5.163,5.163,0,0,1-60.7,49.99a5.187,5.187,0,0,1,3.73,1.377,4.884,4.884,0,0,1,1.445,3.711A4.912,4.912,0,0,1-56.973,58.8,5.176,5.176,0,0,1-60.7,60.186Zm-.02-1.816a2.755,2.755,0,0,0,2.129-.908,3.394,3.394,0,0,0,.83-2.383,3.376,3.376,0,0,0-.83-2.378,2.762,2.762,0,0,0-2.129-.9,2.7,2.7,0,0,0-2.09.9,3.4,3.4,0,0,0-.82,2.378,3.432,3.432,0,0,0,.815,2.383A2.688,2.688,0,0,0-60.723,58.369ZM-40.859,45h2.246V60h-2.148l-.059-1.562a3.161,3.161,0,0,1-1.313,1.309,4.009,4.009,0,0,1-1.958.479,4.533,4.533,0,0,1-1.8-.361,4.55,4.55,0,0,1-1.479-1.011,4.663,4.663,0,0,1-1.006-1.621A5.935,5.935,0,0,1-48.75,55.1a5.867,5.867,0,0,1,.371-2.119,4.671,4.671,0,0,1,1.006-1.616,4.536,4.536,0,0,1,1.484-1.011,4.544,4.544,0,0,1,1.8-.361,4.062,4.062,0,0,1,1.919.454,3.155,3.155,0,0,1,1.313,1.245Zm-4.814,12.432a2.747,2.747,0,0,0,2.08.889,2.689,2.689,0,0,0,2.07-.908,3.3,3.3,0,0,0,.83-2.314,3.273,3.273,0,0,0-.835-2.3,2.693,2.693,0,0,0-2.065-.908,2.739,2.739,0,0,0-2.075.884A3.253,3.253,0,0,0-46.5,55.1,3.282,3.282,0,0,0-45.674,57.432Zm19.16-2.51-.029.566h-7.471a2.964,2.964,0,0,0,.859,2.148,2.806,2.806,0,0,0,1.982.742,2.694,2.694,0,0,0,1.46-.4,2.524,2.524,0,0,0,.972-1.143l2.051.352a4.318,4.318,0,0,1-1.7,2.207,4.88,4.88,0,0,1-2.764.791,5.036,5.036,0,0,1-3.682-1.357,4.994,4.994,0,0,1-1.387-3.74,5.014,5.014,0,0,1,1.387-3.74,4.926,4.926,0,0,1,3.613-1.367,4.677,4.677,0,0,1,3.408,1.255A4.947,4.947,0,0,1-26.514,54.922Zm-4.7-3.271a2.867,2.867,0,0,0-1.772.532,2.592,2.592,0,0,0-.933,1.626h5.146a2.368,2.368,0,0,0-.781-1.611A2.5,2.5,0,0,0-31.211,51.65Zm15.566,8.535a5.057,5.057,0,0,1-2.754-.7,2.915,2.915,0,0,1-1.348-2.026l1.9-.537a2.035,2.035,0,0,0,.771,1.235,2.376,2.376,0,0,0,1.426.415,2.276,2.276,0,0,0,1.191-.293,1,1,0,0,0,.479-.947.916.916,0,0,0-.127-.483,1.328,1.328,0,0,0-.3-.352,2.112,2.112,0,0,0-.5-.278,5.674,5.674,0,0,0-.6-.215l-.728-.215q-.459-.137-.762-.234a6.943,6.943,0,0,1-.937-.361,4.449,4.449,0,0,1-.771-.488,1.911,1.911,0,0,1-.591-.767,2.7,2.7,0,0,1-.2-1.079,2.583,2.583,0,0,1,.5-1.611,2.832,2.832,0,0,1,1.309-.952A5.36,5.36,0,0,1-15.83,50a4.585,4.585,0,0,1,2.485.635,2.774,2.774,0,0,1,1.255,1.943l-1.777.42a1.771,1.771,0,0,0-.708-1.094,2.177,2.177,0,0,0-1.245-.352,2.175,2.175,0,0,0-1.138.278.92.92,0,0,0-.464.845,1.146,1.146,0,0,0,.034.288.562.562,0,0,0,.132.239q.1.107.176.19a.917.917,0,0,0,.254.171q.176.088.283.137a3.074,3.074,0,0,0,.352.122l.361.107q.117.034.405.107l.405.1q.547.146.933.273a5.381,5.381,0,0,1,.85.376,2.961,2.961,0,0,1,.752.552,2.466,2.466,0,0,1,.483.786,2.857,2.857,0,0,1,.2,1.079,2.914,2.914,0,0,1-.312,1.382,2.376,2.376,0,0,1-.854.928,4.187,4.187,0,0,1-1.211.5A6.055,6.055,0,0,1-15.645,60.186Zm15.1-5.264-.029.566H-8.047a2.964,2.964,0,0,0,.859,2.148,2.806,2.806,0,0,0,1.982.742,2.694,2.694,0,0,0,1.46-.4,2.524,2.524,0,0,0,.972-1.143l2.051.352a4.318,4.318,0,0,1-1.7,2.207,4.88,4.88,0,0,1-2.764.791,5.036,5.036,0,0,1-3.682-1.357,4.994,4.994,0,0,1-1.387-3.74,5.014,5.014,0,0,1,1.387-3.74A4.926,4.926,0,0,1-5.254,49.98a4.677,4.677,0,0,1,3.408,1.255A4.947,4.947,0,0,1-.547,54.922Zm-4.7-3.271a2.867,2.867,0,0,0-1.772.532,2.592,2.592,0,0,0-.933,1.626H-2.8A2.368,2.368,0,0,0-3.584,52.2,2.5,2.5,0,0,0-5.244,51.65Zm9.258.176a2.967,2.967,0,0,1,1.245-1.25,3.884,3.884,0,0,1,1.919-.508v2.051a3.461,3.461,0,0,0-2.319.659A2.8,2.8,0,0,0,4.1,54.99V60H1.846V50.176H4.014ZM15.5,50.176h2.393L13.8,60H11.855L7.793,50.176h2.383l2.646,7.246ZM20.781,48.3A1.342,1.342,0,0,1,19.8,47.9a1.362,1.362,0,0,1,0-1.943,1.373,1.373,0,0,1,1.948,0,1.377,1.377,0,0,1-.967,2.349ZM19.629,60V50.176h2.256V60Zm9.7.176a4.862,4.862,0,0,1-5.088-5.1A4.933,4.933,0,0,1,25.669,51.4a5,5,0,0,1,3.657-1.406,4.992,4.992,0,0,1,3.013.9,4.264,4.264,0,0,1,1.646,2.524l-2.09.273a2.618,2.618,0,0,0-.962-1.406,2.71,2.71,0,0,0-1.626-.488,2.577,2.577,0,0,0-2.031.9,3.97,3.97,0,0,0,0,4.756,2.577,2.577,0,0,0,2.031.9,2.729,2.729,0,0,0,1.626-.483,2.593,2.593,0,0,0,.962-1.4l2.09.264a4.27,4.27,0,0,1-1.655,2.529A4.984,4.984,0,0,1,29.326,60.176ZM37.393,48.3a1.342,1.342,0,0,1-.977-.405,1.362,1.362,0,0,1,0-1.943,1.373,1.373,0,0,1,1.948,0,1.377,1.377,0,0,1-.967,2.349ZM36.24,60V50.176H38.5V60Zm9.795.186A5.163,5.163,0,0,1,42.314,58.8a5.5,5.5,0,0,1,0-7.432,5.721,5.721,0,0,1,7.451,0,5.506,5.506,0,0,1,0,7.437A5.176,5.176,0,0,1,46.035,60.186Zm-.02-1.816a2.755,2.755,0,0,0,2.129-.908,3.828,3.828,0,0,0,0-4.761,2.762,2.762,0,0,0-2.129-.9,2.7,2.7,0,0,0-2.09.9,3.873,3.873,0,0,0,0,4.761A2.688,2.688,0,0,0,46.016,58.369Zm10.85,1.816a5.057,5.057,0,0,1-2.754-.7,2.915,2.915,0,0,1-1.348-2.026l1.9-.537a2.035,2.035,0,0,0,.771,1.235,2.376,2.376,0,0,0,1.426.415,2.276,2.276,0,0,0,1.191-.293,1,1,0,0,0,.479-.947.916.916,0,0,0-.127-.483,1.328,1.328,0,0,0-.3-.352,2.112,2.112,0,0,0-.5-.278,5.674,5.674,0,0,0-.6-.215l-.728-.215q-.459-.137-.762-.234a6.943,6.943,0,0,1-.937-.361,4.449,4.449,0,0,1-.771-.488,1.911,1.911,0,0,1-.591-.767,2.7,2.7,0,0,1-.2-1.079,2.583,2.583,0,0,1,.5-1.611,2.832,2.832,0,0,1,1.309-.952A5.36,5.36,0,0,1,56.68,50a4.585,4.585,0,0,1,2.485.635,2.774,2.774,0,0,1,1.255,1.943L58.643,53a1.771,1.771,0,0,0-.708-1.094,2.42,2.42,0,0,0-2.383-.073.92.92,0,0,0-.464.845,1.146,1.146,0,0,0,.034.288.562.562,0,0,0,.132.239q.1.107.176.19a.917.917,0,0,0,.254.171q.176.088.283.137a3.074,3.074,0,0,0,.352.122l.361.107q.117.034.405.107l.405.1q.547.146.933.273a5.382,5.382,0,0,1,.85.376,2.961,2.961,0,0,1,.752.552,2.466,2.466,0,0,1,.483.786,2.857,2.857,0,0,1,.2,1.079,2.914,2.914,0,0,1-.312,1.382,2.376,2.376,0,0,1-.854.928,4.187,4.187,0,0,1-1.211.5A6.055,6.055,0,0,1,56.865,60.186Z" transform="translate(962.112 2661)" fill="#fff"/>
    </g>
  </g>
</svg>
