<svg xmlns="http://www.w3.org/2000/svg" xmlns:xlink="http://www.w3.org/1999/xlink" width="300" height="300" viewBox="0 0 300 300">
  <defs>
    <linearGradient id="linear-gradient" x1="141.64" y1="-3.12" x2="142.591" y2="-2.79" gradientUnits="objectBoundingBox">
      <stop offset="0" stop-color="#e1473d"/>
      <stop offset="1" stop-color="#e9605a"/>
    </linearGradient>
    <linearGradient id="linear-gradient-2" x1="0.682" y1="0.28" x2="0.092" y2="1.77" gradientUnits="objectBoundingBox">
      <stop offset="0" stop-color="#ef2a66"/>
      <stop offset="1" stop-color="#f25585"/>
    </linearGradient>
    <linearGradient id="linear-gradient-3" x1="98.394" y1="-6.861" x2="98.282" y2="-3.857" xlink:href="#linear-gradient"/>
    <linearGradient id="linear-gradient-4" x1="70.034" y1="-3.889" x2="69.966" y2="-1.819" xlink:href="#linear-gradient"/>
    <linearGradient id="linear-gradient-5" x1="41.853" y1="-24.506" x2="41.232" y2="-20.397" xlink:href="#linear-gradient"/>
    <linearGradient id="linear-gradient-6" x1="0.555" y1="-4.445" x2="0.534" y2="-2.486" gradientUnits="objectBoundingBox">
      <stop offset="0" stop-color="#ff928e"/>
      <stop offset="1" stop-color="#feb3b1"/>
    </linearGradient>
    <linearGradient id="linear-gradient-7" x1="0.573" y1="-3.975" x2="0.523" y2="-0.94" xlink:href="#linear-gradient-6"/>
    <linearGradient id="linear-gradient-8" x1="0.775" y1="-16.828" x2="0.612" y2="-6.453" xlink:href="#linear-gradient-6"/>
    <linearGradient id="linear-gradient-9" x1="64.725" y1="-2.926" x2="65.262" y2="-6.312" xlink:href="#linear-gradient"/>
    <linearGradient id="linear-gradient-10" x1="104.093" y1="-12.047" x2="103.429" y2="-9.985" xlink:href="#linear-gradient-2"/>
    <linearGradient id="linear-gradient-11" x1="71.753" y1="-2.346" x2="72.291" y2="-5.732" xlink:href="#linear-gradient"/>
    <linearGradient id="linear-gradient-12" x1="114.696" y1="-10.386" x2="114.032" y2="-8.324" xlink:href="#linear-gradient-2"/>
    <linearGradient id="linear-gradient-13" x1="20.76" y1="-1.027" x2="7.123" y2="0.001" xlink:href="#linear-gradient"/>
    <linearGradient id="linear-gradient-14" x1="-2.779" y1="3.635" x2="-0.247" y2="1.214" xlink:href="#linear-gradient"/>
    <linearGradient id="linear-gradient-15" x1="448.603" y1="147.962" x2="448.258" y2="163.311" gradientUnits="objectBoundingBox">
      <stop offset="0" stop-color="#4042e2"/>
      <stop offset="1" stop-color="#4f52ff"/>
    </linearGradient>
    <linearGradient id="linear-gradient-16" x1="463.66" y1="0.497" x2="464.659" y2="0.497" gradientUnits="objectBoundingBox">
      <stop offset="0" stop-color="#09005d"/>
      <stop offset="1" stop-color="#1a0f91"/>
    </linearGradient>
    <linearGradient id="linear-gradient-17" x1="1604.084" y1="0.501" x2="1605.084" y2="0.501" xlink:href="#linear-gradient-6"/>
    <linearGradient id="linear-gradient-18" x1="1184.829" y1="98.705" x2="1183.915" y2="109.294" xlink:href="#linear-gradient-15"/>
    <linearGradient id="linear-gradient-19" x1="803.379" y1="0.498" x2="804.381" y2="0.498" xlink:href="#linear-gradient-16"/>
    <linearGradient id="linear-gradient-20" x1="1335.979" y1="0.495" x2="1336.977" y2="0.495" xlink:href="#linear-gradient-6"/>
    <linearGradient id="linear-gradient-21" x1="0.409" y1="0.595" x2="-1.508" y2="1.286" xlink:href="#linear-gradient-15"/>
    <linearGradient id="linear-gradient-22" x1="212.269" y1="-0.063" x2="208.66" y2="2.028" xlink:href="#linear-gradient-15"/>
    <linearGradient id="linear-gradient-23" x1="6.363" y1="-4.83" x2="3.277" y2="-2.043" xlink:href="#linear-gradient-15"/>
    <linearGradient id="linear-gradient-24" x1="709.559" y1="0.102" x2="707.677" y2="1.147" xlink:href="#linear-gradient-6"/>
    <linearGradient id="linear-gradient-25" x1="468.325" y1="-0.502" x2="460.399" y2="3.118" xlink:href="#linear-gradient-15"/>
    <linearGradient id="linear-gradient-26" x1="625.049" y1="-0.122" x2="614.443" y2="4.139" gradientUnits="objectBoundingBox">
      <stop offset="0" stop-color="#53d8ff"/>
      <stop offset="1" stop-color="#3840f7"/>
    </linearGradient>
    <linearGradient id="linear-gradient-27" x1="478.069" y1="0.5" x2="479.069" y2="0.5" xlink:href="#linear-gradient-6"/>
    <linearGradient id="linear-gradient-28" x1="647.438" y1="-0.007" x2="647.423" y2="1.885" xlink:href="#linear-gradient-6"/>
    <linearGradient id="linear-gradient-29" x1="949.54" y1="84.65" x2="948.2" y2="85.972" xlink:href="#linear-gradient-6"/>
    <linearGradient id="linear-gradient-30" x1="666.854" y1="54.342" x2="667.98" y2="54.342" xlink:href="#linear-gradient-16"/>
    <linearGradient id="linear-gradient-31" x1="2551.881" y1="257.25" x2="2554.777" y2="254.765" xlink:href="#linear-gradient-6"/>
    <linearGradient id="linear-gradient-32" x1="-179.877" y1="337.254" x2="-180.727" y2="337.884" xlink:href="#linear-gradient-16"/>
    <linearGradient id="linear-gradient-33" x1="-50.554" y1="127.974" x2="-52.83" y2="130.188" xlink:href="#linear-gradient-16"/>
    <linearGradient id="linear-gradient-34" x1="47.634" y1="-28.531" x2="48.592" y2="-28.531" xlink:href="#linear-gradient-16"/>
    <linearGradient id="linear-gradient-35" x1="1332.259" y1="0.502" x2="1333.259" y2="0.502" xlink:href="#linear-gradient-6"/>
    <linearGradient id="linear-gradient-36" y1="0.499" x2="1" y2="0.499" gradientUnits="objectBoundingBox">
      <stop offset="0" stop-color="#dae3fe"/>
      <stop offset="1" stop-color="#e9effd"/>
    </linearGradient>
    <linearGradient id="linear-gradient-37" x1="432.816" y1="586.006" x2="430.793" y2="588.481" xlink:href="#linear-gradient-6"/>
  </defs>
  <g id="CF1_200_copia" data-name="CF1_200 copia" transform="translate(0)">
    <rect id="Rect치ngulo_6947" data-name="Rect치ngulo 6947" width="298.468" height="300" transform="translate(1.532)" fill="none"/>
    <path id="Trazado_118112" data-name="Trazado 118112" d="M129.733,44.347a.427.427,0,0,1-.253-.095c-.411-.348-.839-.681-1.25-1a.412.412,0,1,1,.491-.649c.427.332.855.665,1.282,1.029a.411.411,0,0,1-.269.712Z" transform="translate(64.449 21.22)" fill="#91b3fa"/>
    <path id="Trazado_118113" data-name="Trazado 118113" d="M85.564,81.589a.412.412,0,0,1-.411-.38v-3.4a.412.412,0,1,1,.807,0c0,.6,0,1.2,0,1.788v1.488a.411.411,0,0,1-.4.412Zm.586-8.641h0a.411.411,0,0,1-.332-.475c.19-1.076.427-2.184.7-3.26a.4.4,0,0,1,.776.206c-.269,1.045-.491,2.137-.681,3.165a.411.411,0,0,1-.459.364Zm2.342-8.341a.317.317,0,0,1-.158,0,.4.4,0,0,1-.253-.554c.411-1.029.855-2.057,1.345-3.055a.407.407,0,0,1,.728.364c-.475.965-.918,1.978-1.314,2.991A.411.411,0,0,1,88.492,64.606Zm3.973-7.692a.364.364,0,0,1-.222,0,.4.4,0,0,1-.111-.554c.6-.934,1.25-1.852,1.931-2.722a.427.427,0,0,1,.57,0,.412.412,0,0,1,0,.57c-.665.87-1.3,1.757-1.9,2.675a.411.411,0,0,1-.269.032Zm5.46-6.711a.427.427,0,0,1-.285-.127.4.4,0,0,1,0-.57,30.1,30.1,0,0,1,2.453-2.263.411.411,0,0,1,.57,0,.4.4,0,0,1,0,.57c-.823.712-1.583,1.456-2.406,2.232a.459.459,0,0,1-.332.158Zm6.726-5.46A.405.405,0,0,1,104.43,44c.934-.6,1.9-1.171,2.865-1.709a.411.411,0,0,1,.554.158.427.427,0,0,1-.158.554c-.965.522-1.9,1.092-2.817,1.678a.364.364,0,0,1-.222.063Zm44.315-1.2a.427.427,0,0,1-.19,0c-.95-.554-1.915-1.06-2.9-1.583a.4.4,0,0,1,.348-.728,31.039,31.039,0,0,1,2.944,1.583.4.4,0,0,1,.142.554.364.364,0,0,1-.332.174Zm-36.639-2.77a.4.4,0,0,1-.142-.776c1.029-.411,2.089-.776,3.165-1.108a.406.406,0,1,1,.237.776c-1.045.317-2.073.681-3.086,1.076a.253.253,0,0,1-.158.032ZM141.069,40h-.127c-1.029-.348-2.089-.649-3.165-.918a.4.4,0,1,1,.206-.776c1.06.253,2.137.57,3.165.918a.412.412,0,0,1,.253.522.4.4,0,0,1-.317.253Zm-20.4-1.583a.411.411,0,0,1-.4-.332.427.427,0,0,1,.332-.475c1.092-.19,2.216-.332,3.308-.427a.4.4,0,0,1,.443.364.411.411,0,0,1-.364.443c-1.076.095-2.168.237-3.165.427Zm11.949-.332h0c-1.076-.127-2.184-.206-3.26-.253a.4.4,0,0,1-.4-.411.411.411,0,0,1,.427-.4,29.36,29.36,0,0,1,3.324.253.411.411,0,0,1,.348.459.38.38,0,0,1-.427.38Z" transform="translate(41.443 18.008)" fill="#91b3fa"/>
    <path id="Trazado_118114" data-name="Trazado 118114" d="M86.2,70.462a.411.411,0,0,1-.4-.332c-.111-.538-.222-1.076-.3-1.583a.412.412,0,0,1,.332-.475.4.4,0,0,1,.459.332c.095.522.19,1.06.3,1.583a.411.411,0,0,1-.317.475Z" transform="translate(43.548 33.99)" fill="#91b3fa"/>
    <path id="Trazado_118115" data-name="Trazado 118115" d="M98.375,87.343a.4.4,0,0,1-.222,0c-.459-.285-.918-.586-1.361-.9a.4.4,0,0,1-.095-.554.412.412,0,0,1,.57-.111c.427.3.87.6,1.329.886a.411.411,0,0,1,.127.554A.4.4,0,0,1,98.375,87.343Z" transform="translate(48.998 42.816)" fill="#91b3fa"/>
    <path id="Trazado_118116" data-name="Trazado 118116" d="M118.9,108.077h-1.583a.427.427,0,0,1-.4-.427.411.411,0,0,1,.427-.38h3.165a.38.38,0,0,1,.412.38.411.411,0,0,1-.38.427Zm6.885-.57a.411.411,0,0,1,0-.807c1.06-.174,2.121-.4,3.165-.649a.412.412,0,1,1,.19.791c-1.06.253-2.137.475-3.165.649Zm-13.769,0h0c-1.076-.174-2.152-.4-3.165-.665a.411.411,0,0,1-.3-.491.4.4,0,0,1,.491-.285c1.045.253,2.1.475,3.165.649a.4.4,0,0,1,.332.459.411.411,0,0,1-.522.332ZM134,105.276a.427.427,0,0,1-.38-.269.411.411,0,0,1,.237-.522c1-.38,1.994-.807,2.96-1.266a.411.411,0,0,1,.538.19.4.4,0,0,1-.19.538c-.981.475-1.994.9-3.023,1.3Zm-30.214,0a.237.237,0,0,1-.142,0c-1.013-.38-2.026-.807-3.023-1.282a.411.411,0,0,1-.19-.538.4.4,0,0,1,.538-.19c.965.459,1.963.886,2.96,1.266a.4.4,0,0,1-.142.776Zm37.826-3.814a.418.418,0,0,1-.222-.76c.918-.57,1.8-1.187,2.659-1.82a.4.4,0,0,1,.57,0,.411.411,0,0,1-.095.57c-.87.649-1.773,1.266-2.691,1.868a.522.522,0,0,1-.222.127Zm6.695-5.286a.348.348,0,0,1-.285-.127.4.4,0,0,1,0-.57q1.155-1.108,2.232-2.327a.4.4,0,0,1,.6.538c-.728.823-1.488,1.583-2.263,2.374a.412.412,0,0,1-.285.095Zm5.492-6.5a.475.475,0,0,1-.237,0,.4.4,0,0,1-.095-.554c.6-.886,1.171-1.8,1.709-2.738a.411.411,0,1,1,.7.412c-.538.95-1.124,1.883-1.741,2.786a.411.411,0,0,1-.332.079Zm4.068-7.486h-.158a.427.427,0,0,1-.222-.538c.332-.776.633-1.583.918-2.374a2.281,2.281,0,0,1,.206-.633.408.408,0,1,1,.776.253,2.254,2.254,0,0,1-.222.649c-.285.807-.6,1.583-.934,2.422a.4.4,0,0,1-.364.206Zm2.485-8.151h-.079a.4.4,0,0,1-.317-.475c.206-1.045.38-2.121.506-3.165a.4.4,0,0,1,.443-.348.411.411,0,0,1,.364.443c-.127,1.076-.3,2.168-.522,3.165a.411.411,0,0,1-.4.364Zm.807-8.5a.4.4,0,0,1-.4-.4,20.794,20.794,0,0,0-.158-3.165.427.427,0,0,1,.38-.443.4.4,0,0,1,.427.364c.095,1.092.142,2.2.158,3.292a.411.411,0,0,1-.412.4Z" transform="translate(48.747 29.887)" fill="#91b3fa"/>
    <path id="Trazado_118117" data-name="Trazado 118117" d="M138.484,59.581a.4.4,0,0,1-.38-.332c-.127-.522-.237-1.045-.38-1.583a.411.411,0,0,1,.3-.491.4.4,0,0,1,.491.285l.38,1.583a.412.412,0,0,1-.317.475Z" transform="translate(69.26 28.544)" fill="#91b3fa"/>
    <path id="Trazado_118118" data-name="Trazado 118118" d="M150.8,57.429a.538.538,0,0,0-.538-.269l-6.093.918a26.906,26.906,0,0,0-6.679-5.587l-.174-6.172a.507.507,0,0,0-.348-.475l-7.059-2.216a.522.522,0,0,0-.57.19l-3.656,4.954a26.906,26.906,0,0,0-8.673.776l-4.495-4.242a.459.459,0,0,0-.57,0l-6.568,3.419a.506.506,0,0,0-.269.522l.918,6.109a26.905,26.905,0,0,0-5.6,6.679l-6.157.158a.522.522,0,0,0-.475.364l-2.184,7a.506.506,0,0,0,.19.554l4.954,3.672a26.463,26.463,0,0,0,.776,8.673l-4.242,4.511a.506.506,0,0,0-.095.586l3.434,6.568a.506.506,0,0,0,.522.269l6.172-.965a26.463,26.463,0,0,0,6.663,5.587l.174,6.172a.491.491,0,0,0,.364.459l7.043,2.232a.506.506,0,0,0,.554-.19l3.624-4.891a26.9,26.9,0,0,0,8.673-.776l4.558,4.178a.506.506,0,0,0,.586,0l6.489-3.4a.506.506,0,0,0,.253-.522l-.9-6.109a26.541,26.541,0,0,0,5.587-6.679l6.172-.158a.522.522,0,0,0,.459-.364l2.216-7.059a.491.491,0,0,0-.174-.554l-4.954-3.672A27.347,27.347,0,0,0,149.93,69l4.242-4.479a.538.538,0,0,0,.079-.586Z" transform="translate(44.469 20.884)" fill="#91b3fa"/>
    <path id="Trazado_118119" data-name="Trazado 118119" d="M114.535,73.714a7.17,7.17,0,0,1-6.141-10.936,7.059,7.059,0,0,1,4.447-3.165,7.185,7.185,0,0,1,7.787,10.746h0a7.186,7.186,0,0,1-4.463,3.165A7.47,7.47,0,0,1,114.535,73.714Zm0-13.152A5.962,5.962,0,0,0,111.4,71.609a5.84,5.84,0,0,0,4.495.728,5.9,5.9,0,0,0,3.7-2.675,5.967,5.967,0,0,0-5.065-9.1ZM120.121,70.058Z" transform="translate(53.871 29.476)" fill="#bdd0fb"/>
    <path id="Trazado_118120" data-name="Trazado 118120" d="M118.616,89.215a18.451,18.451,0,1,1,13.785-30.7l-.9.791a17.242,17.242,0,1,0,3.561,16.65,18.2,18.2,0,0,0,.7-3.292s0-.127,0-.174v-.095l1.2.111a17.836,17.836,0,0,1-.776,3.846h0c-.142.459-.3.9-.475,1.345a18.5,18.5,0,0,1-17.125,11.6Z" transform="translate(49.596 25.585)" fill="#bdd0fb"/>
    <path id="Trazado_118121" data-name="Trazado 118121" d="M157.734,79.316a.4.4,0,0,1-.253,0,14.631,14.631,0,0,0-1.25-.965.411.411,0,1,1,.459-.665c.443.317.886.649,1.314,1a.411.411,0,0,1-.269.712Z" transform="translate(78.214 38.743)" fill="#91b3fa"/>
    <path id="Trazado_118122" data-name="Trazado 118122" d="M134.649,94.91h0a.412.412,0,0,1-.348-.459,21.529,21.529,0,0,1,.712-3.419.4.4,0,0,1,.4-.206.38.38,0,0,1,.269.491,21.967,21.967,0,0,0-.7,3.308.38.38,0,0,1-.332.285Zm2.944-8.467a.317.317,0,0,1-.206,0,.411.411,0,0,1-.142-.554,22.636,22.636,0,0,1,2.026-2.849.412.412,0,1,1,.617.522,20.907,20.907,0,0,0-1.947,2.738A.411.411,0,0,1,137.593,86.443Zm6.093-6.584a.411.411,0,0,1-.237-.744,23.892,23.892,0,0,1,3.007-1.788.4.4,0,0,1,.538.174.427.427,0,0,1-.19.554,21.491,21.491,0,0,0-2.9,1.693.38.38,0,0,1-.222.111Zm20.48-2.643h-.142l-.522-.19a26.652,26.652,0,0,0-2.722-.76.405.405,0,0,1,.174-.791,24.8,24.8,0,0,1,2.817.791l.538.19a.411.411,0,0,1,.237.522.4.4,0,0,1-.38.237ZM151.9,76.25a.4.4,0,0,1-.095-.791A23.855,23.855,0,0,1,155.288,75a.412.412,0,0,1,.427.4.4.4,0,0,1-.4.411,21.952,21.952,0,0,0-3.339.443Z" transform="translate(66.344 37.084)" fill="#91b3fa"/>
    <path id="Trazado_118123" data-name="Trazado 118123" d="M134.946,93.028a.411.411,0,0,1-.4-.332q-.158-.807-.285-1.583a.411.411,0,1,1,.807-.111,8.081,8.081,0,0,0,.269,1.583.412.412,0,0,1-.317.475Z" transform="translate(67.558 45.235)" fill="#91b3fa"/>
    <path id="Trazado_118124" data-name="Trazado 118124" d="M141.881,101.9a.444.444,0,0,1-.206,0c-.475-.269-.934-.57-1.393-.886a.4.4,0,0,1,.459-.665c.443.3.886.586,1.345.855a.411.411,0,0,1-.206.76Z" transform="translate(70.402 50.094)" fill="#91b3fa"/>
    <path id="Trazado_118125" data-name="Trazado 118125" d="M153.362,110.79a.38.38,0,0,1-.4-.348.411.411,0,0,1,.348-.459,22.678,22.678,0,0,0,3.245-.665.412.412,0,0,1,.506.285.4.4,0,0,1-.285.491,21.971,21.971,0,0,1-3.371.7Zm-5.476,0h0a22.773,22.773,0,0,1-3.371-.7.412.412,0,0,1-.269-.506.38.38,0,0,1,.491-.269,21.273,21.273,0,0,0,3.26.665.411.411,0,0,1,0,.807Zm13.833-2.817a.38.38,0,0,1-.348-.206.412.412,0,0,1,.142-.554,20.464,20.464,0,0,0,2.738-1.883.411.411,0,1,1,.507.633,23.736,23.736,0,0,1-2.833,1.963.443.443,0,0,1-.253.032Zm6.568-5.888a.364.364,0,0,1-.237,0,.4.4,0,0,1-.079-.57,21.329,21.329,0,0,0,1.757-2.8.4.4,0,1,1,.712.364,20.577,20.577,0,0,1-1.82,2.928.4.4,0,0,1-.38.063Zm3.719-8.008h-.095a.411.411,0,0,1-.3-.491,23.14,23.14,0,0,0,.522-3.276.412.412,0,0,1,.427-.38.427.427,0,0,1,.38.443,22.711,22.711,0,0,1-.538,3.4.427.427,0,0,1-.443.285Z" transform="translate(71.222 44.44)" fill="#91b3fa"/>
    <path id="Trazado_118126" data-name="Trazado 118126" d="M162.182,87.891a.412.412,0,0,1-.4-.332c-.095-.522-.206-1.045-.332-1.583a.411.411,0,0,1,.3-.491.4.4,0,0,1,.491.285q.19.807.332,1.583a.38.38,0,0,1-.316.459Z" transform="translate(77.533 42.681)" fill="#91b3fa"/>
    <path id="Trazado_118127" data-name="Trazado 118127" d="M168.373,85.685a.269.269,0,0,0-.269-.142l-3.165.475a13.88,13.88,0,0,0-3.45-2.9l-.095-3.165a.253.253,0,0,0-.19-.237l-3.656-1.155a.317.317,0,0,0-.3.095l-1.9,2.58a14.245,14.245,0,0,0-4.495.4l-2.327-2.2a.285.285,0,0,0-.317,0l-3.4,1.788a.269.269,0,0,0-.142.269l.475,3.165a14.244,14.244,0,0,0-2.9,3.466l-3.165.095a.3.3,0,0,0-.253.174l-1.187,3.529a.222.222,0,0,0,.095.285l2.564,1.9a13.879,13.879,0,0,0,.411,4.511l-2.216,2.327a.269.269,0,0,0,0,.3l1.773,3.4a.237.237,0,0,0,.269.142l3.165-.475a14.244,14.244,0,0,0,3.466,2.912l.095,3.165a.253.253,0,0,0,.19.237l3.656,1.155a.285.285,0,0,0,.3-.095l1.9-2.58a13.326,13.326,0,0,0,4.495-.4l2.327,2.2a.269.269,0,0,0,.3,0l3.387-1.583a.285.285,0,0,0,.127-.285l-.475-3.165a14.023,14.023,0,0,0,2.912-3.466h3.165a.317.317,0,0,0,.253-.19l1.14-3.672a.253.253,0,0,0-.095-.285l-2.548-2.042a13.879,13.879,0,0,0-.411-4.511l2.2-2.327a.269.269,0,0,0,0-.3Z" transform="translate(67.801 38.516)" fill="#91b3fa"/>
    <path id="Trazado_118128" data-name="Trazado 118128" d="M149.626,94.571a3.956,3.956,0,0,1-2.089-.6,4.036,4.036,0,0,1-1.8-2.5,3.893,3.893,0,0,1,.491-3.023,4.02,4.02,0,1,1,4.352,6.014,4.86,4.86,0,0,1-.95.111Zm0-6.837A2.8,2.8,0,0,0,146.9,91.2a2.754,2.754,0,0,0,1.25,1.741,2.833,2.833,0,0,0,2.121.332,2.8,2.8,0,0,0,1.741-1.25h0a2.817,2.817,0,0,0-.918-3.862,2.785,2.785,0,0,0-1.456-.427Z" transform="translate(72.859 43.077)" fill="#bdd0fb"/>
    <path id="Trazado_118129" data-name="Trazado 118129" d="M151.746,102.617h-.981a10.019,10.019,0,0,1-1.978-.411,9.908,9.908,0,0,1-6.916-9.5,9.5,9.5,0,0,1,.459-2.96,9.876,9.876,0,0,1,16.808-3.609l-.918.807a8.657,8.657,0,1,0,1.788,8.357h0a8.246,8.246,0,0,0,.364-1.709v-.111l1.2.127a10.526,10.526,0,0,1-.411,2.058v.158A9.876,9.876,0,0,1,151.746,102.617Z" transform="translate(70.507 40.955)" fill="#bdd0fb"/>
    <path id="Trazado_118130" data-name="Trazado 118130" d="M104.586,175.09c1.235-2.991,1.994-6.141,3.419-9.053,3.055-6.188,7.581-10.873,11.965-16.033,3.023-3.529,8.167-9.813,3.941-14.339-2.073-2.216-5.444-2.485-8.246-2.152-8.467,1.013-11.538,3.055-9.654-6.98,1.045-5.587,4.02-10.541,5.175-16.08s1.741-21.683-4.178-25.5C96.5,78.2,89.931,103.742,88.3,109.661a4.211,4.211,0,0,0-.127.7,1.583,1.583,0,0,1-2.88.491,6.789,6.789,0,0,1-.76-2.39,34.693,34.693,0,0,1,1.757-10.446,109.6,109.6,0,0,1,4.59-12.9c1.978-4.748,3.165-9.765,1.44-14.8s-5.16-9.037-8.262-13.152c-4.115-5.429-7.011-12.836-13.437-16-7.6-3.751-15.225,1.915-19.293,8.23-6.6,10.224-2.912,21.461,2.089,31.432,3.545,7.059,12.535,17.758,12.3,26.447a1.48,1.48,0,0,1-2.216,1.266,15.368,15.368,0,0,1-4.115-3.624c-4.653-5.16-8.689-10.952-12.867-16.507-2.865-3.814-6.885-10.572-12.2-11.079-6.236-.57-6.141,11.285-5.65,14.972,2.532,18.866,20.037,28.267,29.28,43.382,1.9,3.165,6.046,8.8,5.6,12.661-.823,7.3-9.765-.776-13.659-1.978-5.4-1.583-14.877-1.693-14.941,5.729,0,8.61,7.359,16.033,15.115,18.612,6.2,2.073,13.31,2.8,19.214,5.682,5.381,2.659,2.152,8.626-3.245,6.964-2.247-.681-4.463-1.583-6.647-2.422s-8.309-4.226-9.844-1.06c-1.187,2.406,1.266,6.631,2.232,8.689,10.9,23.107,19.879,18.866,32.477,23.376a12.456,12.456,0,0,1,7.359,7.771c.57,1.583.506,7.249,2.247,7.771,2.406.7,5.761-4.273,6.79-5.7,1.9-2.643,4.21-4.938,6.109-7.581,3.292-4.574,8.657-11.3,8.056-17.41-.3-2.991-2.865-4.194-5.634-4.416-4.748-.364-12.155-1.25-9.164-7.724C101.532,181.468,103.225,178.35,104.586,175.09Z" transform="translate(18.116 15.174)" fill="#bdd0fb"/>
    <path id="Trazado_118131" data-name="Trazado 118131" d="M82.924,227.486a.633.633,0,0,1-.649-.633c0-.317-.665-31.654-7.6-52.624S63,112.5,64.232,101.425c1.092-9.5-2.722-49.7-11-58.829a4.5,4.5,0,0,0-3.308-1.773.649.649,0,0,1-.665-.649.633.633,0,0,1,.633-.665,5.7,5.7,0,0,1,4.3,2.358c9.069,9.987,12.3,51.327,11.348,59.841-1.108,9.734,3.165,50.124,10.382,72.186,6.98,21.192,7.644,52.688,7.644,53a.633.633,0,0,1-.633.665Z" transform="translate(25.172 14.973)" fill="#91b3fa"/>
    <path id="Trazado_118132" data-name="Trazado 118132" d="M80.46,152.491C77.516,153.3,68,161.18,68.448,154.47c.57-8.626,9.971-15.479,10.667-24.31.411-5.144-4.384-8.23-9.037-9.132-8.167-1.583-11.079,14.513-15.1,19.942-.855,1.14-1.773-21.208-1.963-22.158-.57-2.675-1.947-7.549-4.748-8.784-6.758-2.96-9.37,5.824-10.129,10.889a.791.791,0,0,1-.554.617.76.76,0,0,1-.791-.253c-4.3-5.144-1-10.6-3.434-16.571C30,96.5,23.024,104.9,20.191,108.825c-4.859,6.711-5.745,15.827,1.852,21,7,4.827,10.446,7.913,5.856,9.2-6.014,1.662-10.826,8.088-7.8,14.244C23.262,159.6,32.979,163,39.247,165.28c2.453.9,8.895.839,9.4,4.257.411,2.865-3.909,4.162-5.872,5.175-7.359,3.83-9.005,7.724-.886,12.662,16.412,10.05,34.487,7.217,34.313-.364-.079-3.577,2.327-7.913,3.466-11.205,1.219-3.514,2.422-7.011,3.355-10.6S87.376,150.608,80.46,152.491Z" transform="translate(11.111 47.154)" fill="#91b3fa"/>
    <path id="Trazado_118133" data-name="Trazado 118133" d="M70.438,191.26a.649.649,0,0,1-.617-.427c-.127-.348-13.279-35.547-26.763-45.9-10.572-8.151-18.6-20.765-19.515-30.7a15.827,15.827,0,0,1,3.735-12.519.656.656,0,1,1,.981.87,14.529,14.529,0,0,0-3.4,11.522c.886,9.607,8.689,21.857,18.992,29.8,5.793,4.463,12.139,13.643,18.834,27.317,4.985,10.129,8.325,19.1,8.357,19.182a.633.633,0,0,1-.4.839A.507.507,0,0,1,70.438,191.26Z" transform="translate(15.166 47.423)" fill="#7d97f4"/>
    <path id="Trazado_118134" data-name="Trazado 118134" d="M185.6,153.558l17.615-4.748s4.162,1.2,3.545,7.391-18.185,5.065-18.185,5.065Z" transform="translate(91.609 73.898)" fill="url(#linear-gradient)"/>
    <path id="Trazado_118135" data-name="Trazado 118135" d="M125.966,109.759C94.44,118.1,76,140.637,66.82,142.9s-45.662,4.352-51.632,10.256-.267,10.1-7.93,17.679c-8.464,25.5,17.819,33.126,17.819,33.126l238.558-2.073s16.112,1.583,16.468-10.715-3.564-18.438-4.455-29.47-.861-11.6-3.163-17.315-24.71-6.331-29.061-12.661-9.548-16.523-28.051-19.974C189.834,106.926,144.3,104.884,125.966,109.759Z" transform="translate(4.783 49.575)" fill="url(#linear-gradient-2)"/>
    <path id="Trazado_118136" data-name="Trazado 118136" d="M202.737,162.208c-.443,14.086-24.326,11.585-24.421,11.569s-18.992-14.529,7.122-13.975a42.226,42.226,0,0,0,15.827-4.352Z" transform="translate(83.462 76.927)" fill="url(#linear-gradient-3)"/>
    <path id="Trazado_118137" data-name="Trazado 118137" d="M7.245,151.3s-.253,3.593,6.473,7.265c8.341,4.542,37.3-.459,37.3-.459L54.33,176.75l-27.3,1.393C27.678,178.316-8.819,176.148,7.245,151.3Z" transform="translate(3.371 74.49)" fill="url(#linear-gradient-4)"/>
    <path id="Trazado_118138" data-name="Trazado 118138" d="M189.8,146.242s.823-6.331-5.9-14.244-10.636-13.01-15.827-14.355-42.986-6.552-45.471-2.532-5.6,28.757-5.6,28.757Z" transform="translate(55.949 55.728)" fill="#f57fa3"/>
    <path id="Trazado_118139" data-name="Trazado 118139" d="M166.133,117.039c-4.242-.633-36.4-4.384-44.711-3.308l-2.152,8.262,69.29,24.294a18.518,18.518,0,0,0-3.165-10.446C179.618,127.121,170.565,117.593,166.133,117.039Z" transform="translate(57.207 55.686)" fill="#f57fa3"/>
    <path id="Trazado_118140" data-name="Trazado 118140" d="M145.354,115.381c-1.06,4.748-4.906,28.045-4.906,28.045l-81.777-.38s25.766-23.74,45.581-27.428S146.018,112.9,145.354,115.381Z" transform="translate(28.347 55.6)" fill="url(#linear-gradient-5)"/>
    <path id="Trazado_118141" data-name="Trazado 118141" d="M93.383,114.187c16.143-2.247,22.063-1.82,38.982-.332l-1.583,6.758s-25.181-4.938-48.652-2.073a36.4,36.4,0,0,1,11.253-4.352Z" transform="translate(40.515 56.069)" fill="#f57fa3"/>
    <path id="Trazado_118142" data-name="Trazado 118142" d="M17.045,135.693s13.247-4.242,16.492,6.22C36.607,151.9,6.71,154.575,6.71,154.575S8.926,139.84,17.045,135.693Z" transform="translate(5.442 66.68)" fill="url(#linear-gradient-6)"/>
    <path id="Trazado_118143" data-name="Trazado 118143" d="M190.592,137.4a.506.506,0,0,1-.222,0c-3.165-.934-5.729-4.21-8.768-8.008-4.432-5.539-9.5-11.823-17.647-13.39-15.716-2.991-39.567-5.065-39.757-5.1a.744.744,0,0,1-.7-.823.76.76,0,0,1,.823-.712c.237,0,24.136,2.1,39.915,5.128,8.752,1.583,14.244,8.467,18.565,13.928,2.865,3.593,5.35,6.711,8.008,7.5a.776.776,0,0,1,.506.965A.744.744,0,0,1,190.592,137.4Z" transform="translate(59.266 53.805)" fill="url(#linear-gradient-7)"/>
    <path id="Trazado_118144" data-name="Trazado 118144" d="M188.555,135.611a.744.744,0,0,1-.681-.427c-1.3-2.6-7.011-3.783-12.535-4.922-1.978-.4-4.02-.823-5.9-1.314a.776.776,0,1,1,.4-1.488c1.836.475,3.862.9,5.824,1.3,6.157,1.282,11.965,2.469,13.6,5.745a.76.76,0,0,1-.348,1.029A.7.7,0,0,1,188.555,135.611Z" transform="translate(81.801 63.422)" fill="url(#linear-gradient-8)"/>
    <ellipse id="Elipse_4593" data-name="Elipse 4593" cx="24.484" cy="24.484" rx="24.484" ry="24.484" transform="translate(196.4 233.309) rotate(-22.02)" fill="url(#linear-gradient-9)"/>
    <ellipse id="Elipse_4594" data-name="Elipse 4594" cx="15.621" cy="15.621" rx="15.621" ry="15.621" transform="translate(213.883 233.886) rotate(-9.99)" fill="url(#linear-gradient-10)"/>
    <ellipse id="Elipse_4595" data-name="Elipse 4595" cx="24.583" cy="24.583" rx="24.583" ry="24.583" transform="translate(45.733 223.901) rotate(-5.143)" fill="url(#linear-gradient-11)"/>
    <ellipse id="Elipse_4596" data-name="Elipse 4596" cx="15.641" cy="15.641" rx="15.641" ry="15.641" transform="translate(52.058 258.818) rotate(-87.138)" fill="url(#linear-gradient-12)"/>
    <path id="Trazado_118145" data-name="Trazado 118145" d="M110.571,184.2h0a.791.791,0,0,1-.791-.807.776.776,0,0,1,.475-.712c1.583-2.564,3.656-30.245,4.59-47.322a.807.807,0,0,1,.855-.76.839.839,0,0,1,.776.855c0,.127-.681,12.139-1.583,24.025C112.819,183.664,111.616,184.2,110.571,184.2Z" transform="translate(55.327 65.231)" fill="url(#linear-gradient-13)"/>
    <rect id="Rect치ngulo_6948" data-name="Rect치ngulo 6948" width="27.903" height="11.332" rx="3.57" transform="translate(92.606 204.032)" fill="url(#linear-gradient-14)"/>
    <path id="Trazado_118146" data-name="Trazado 118146" d="M66.369,113.062l-1.155-.317h0a.271.271,0,0,1,.142-.522h0l1.171.332a.253.253,0,0,1,.19.317.269.269,0,0,1-.317.19Z" transform="translate(33.45 56.082)" fill="#7d97f4"/>
    <path id="Trazado_118147" data-name="Trazado 118147" d="M63.918,112.418l-1.187-.237h0a.275.275,0,0,1,.111-.538h0l1.2.253a.269.269,0,0,1,.206.317.285.285,0,0,1-.332.222Z" transform="translate(32.217 55.795)" fill="#7d97f4"/>
    <path id="Trazado_118148" data-name="Trazado 118148" d="M61.431,111.939l-1.2-.158h0a.3.3,0,0,1-.237-.332.285.285,0,0,1,.317-.237h0l1.2.19a.272.272,0,0,1-.079.538Z" transform="translate(30.975 55.583)" fill="#7d97f4"/>
    <path id="Trazado_118149" data-name="Trazado 118149" d="M58.912,111.621l-1.2-.111h0a.286.286,0,1,1,.047-.57h0l1.219.111a.269.269,0,0,1,.253.3.3.3,0,0,1-.3.269Z" transform="translate(29.72 55.45)" fill="#7d97f4"/>
    <path id="Trazado_118150" data-name="Trazado 118150" d="M56.394,111.426H55.175a.293.293,0,1,1,.016-.586H56.41a.271.271,0,0,1-.063.538Z" transform="translate(28.465 55.403)" fill="#7d97f4"/>
    <path id="Trazado_118151" data-name="Trazado 118151" d="M53.844,111.427h-1.2a.3.3,0,0,1-.3-.3.317.317,0,0,1,.285-.317h1.219a.317.317,0,0,1,.317.285.3.3,0,0,1-.3.317Z" transform="translate(27.209 55.387)" fill="#7d97f4"/>
    <path id="Trazado_118152" data-name="Trazado 118152" d="M51.335,111.567l-1.2.111h0a.317.317,0,1,1,0-.617h0l1.219-.111a.317.317,0,0,1,.332.285.3.3,0,0,1-.285.332Z" transform="translate(25.93 55.453)" fill="#7d97f4"/>
    <path id="Trazado_118153" data-name="Trazado 118153" d="M48.792,111.865l-1.187.174h0a.32.32,0,0,1-.095-.633h0l1.219-.174a.3.3,0,0,1,.348.253.317.317,0,0,1-.269.364Z" transform="translate(24.697 55.59)" fill="#7d97f4"/>
    <path id="Trazado_118154" data-name="Trazado 118154" d="M46.283,112.312l-1.171.237h0a.323.323,0,0,1-.127-.633h0l1.187-.253a.317.317,0,0,1,.142.617Z" transform="translate(23.461 55.801)" fill="#7d97f4"/>
    <path id="Trazado_118155" data-name="Trazado 118155" d="M43.844,112.888l-1.171.317h0a.332.332,0,1,1-.174-.633h0l1.171-.317a.332.332,0,0,1,.411.222.348.348,0,0,1-.237.412Z" transform="translate(22.218 56.092)" fill="#7d97f4"/>
    <path id="Trazado_118156" data-name="Trazado 118156" d="M41.387,113.609l-1.14.4h0a.348.348,0,0,1-.443-.206.364.364,0,0,1,.222-.427h0l1.155-.4a.333.333,0,1,1,.206.633Z" transform="translate(21.033 56.448)" fill="#7d97f4"/>
    <path id="Trazado_118157" data-name="Trazado 118157" d="M38.991,114.5l-1.108.459h0a.348.348,0,0,1-.253-.649h0l1.124-.459a.348.348,0,0,1,.443.19.332.332,0,0,1-.174.443Z" transform="translate(23.331 56.879)" fill="#7d97f4"/>
    <path id="Trazado_118158" data-name="Trazado 118158" d="M36.66,115.507l-1.076.522h0a.332.332,0,0,1-.459-.158.348.348,0,0,1,.158-.475h0l1.092-.522a.354.354,0,0,1,.317.633Z" transform="translate(21.975 57.381)" fill="#7d97f4"/>
    <path id="Trazado_118159" data-name="Trazado 118159" d="M34.407,116.669l-1.06.586h0a.38.38,0,0,1-.491-.127.364.364,0,0,1,.142-.491h0l1.06-.6a.364.364,0,0,1,.491.142.348.348,0,0,1-.142.475Z" transform="translate(20.651 57.956)" fill="#7d97f4"/>
    <path id="Trazado_118160" data-name="Trazado 118160" d="M32.211,117.964l-1.013.649h0a.38.38,0,0,1-.506-.111A.364.364,0,0,1,30.8,118h0l1.029-.665a.348.348,0,0,1,.491.111.364.364,0,0,1-.111.506Z" transform="translate(19.381 58.594)" fill="#7d97f4"/>
    <path id="Trazado_118161" data-name="Trazado 118161" d="M30.092,119.388l-.981.728h0a.38.38,0,0,1-.443-.6h0l.981-.728a.4.4,0,0,1,.522,0,.38.38,0,0,1,0,.522Z" transform="translate(18.176 59.298)" fill="#7d97f4"/>
    <path id="Trazado_118162" data-name="Trazado 118162" d="M28.089,120.928l-.918.776h0a.38.38,0,1,1-.475-.586h0l.934-.776a.382.382,0,0,1,.491.586Z" transform="translate(16.983 60.077)" fill="#7d97f4"/>
    <path id="Trazado_118163" data-name="Trazado 118163" d="M26.153,122.6l-.87.823h0a.386.386,0,1,1-.538-.554h0l.886-.823a.4.4,0,0,1,.554,0,.38.38,0,0,1,0,.538Z" transform="translate(15.88 60.913)" fill="#7d97f4"/>
    <path id="Trazado_118164" data-name="Trazado 118164" d="M24.324,124.368l-.823.87h0a.411.411,0,0,1-.57,0,.4.4,0,0,1,0-.554h0l.855-.87a.38.38,0,0,1,.554,0,.4.4,0,0,1,0,.554Z" transform="translate(14.828 61.793)" fill="#7d97f4"/>
    <path id="Trazado_118165" data-name="Trazado 118165" d="M22.6,126.26l-.776.918h0a.411.411,0,0,1-.57,0,.4.4,0,0,1,0-.57h0l.791-.934a.38.38,0,0,1,.554,0,.4.4,0,0,1,0,.57Z" transform="translate(13.846 62.72)" fill="#7d97f4"/>
    <path id="Trazado_118166" data-name="Trazado 118166" d="M21.013,128.227l-.728.965h0a.411.411,0,1,1-.649-.491h0l.728-.981a.427.427,0,0,1,.57,0,.4.4,0,0,1,.079.57Z" transform="translate(12.901 63.745)" fill="#7d97f4"/>
    <path id="Trazado_118167" data-name="Trazado 118167" d="M19.527,130.24l-.665,1.013h0a.427.427,0,0,1-.586.111.411.411,0,0,1-.111-.57h0l.681-1.013a.411.411,0,0,1,.57-.127A.427.427,0,0,1,19.527,130.24Z" transform="translate(12.076 64.732)" fill="#7d97f4"/>
    <path id="Trazado_118168" data-name="Trazado 118168" d="M18.145,132.426l-.6,1.045h0a.427.427,0,1,1-.728-.427h0L17.433,132a.418.418,0,0,1,.728.411Z" transform="translate(11.273 65.825)" fill="#7d97f4"/>
    <path id="Trazado_118169" data-name="Trazado 118169" d="M16.9,134.646l-.538,1.076h0a.428.428,0,1,1-.76-.4h0l.554-1.092a.428.428,0,1,1,.76.4Z" transform="translate(10.592 66.934)" fill="#7d97f4"/>
    <path id="Trazado_118170" data-name="Trazado 118170" d="M15.79,136.914l-.475,1.108h0a.432.432,0,1,1-.791-.348h0L15,136.55a.443.443,0,0,1,.807.348Z" transform="translate(9.973 68.097)" fill="#7d97f4"/>
    <path id="Trazado_118171" data-name="Trazado 118171" d="M14.825,139.286l-.411,1.124h0a.459.459,0,0,1-.57.269.443.443,0,0,1-.253-.57h0L14,138.954a.427.427,0,0,1,.554-.253.443.443,0,0,1,.269.554Z" transform="translate(9.434 69.262)" fill="#7d97f4"/>
    <path id="Trazado_118172" data-name="Trazado 118172" d="M14,141.667l-.332,1.171h0a.443.443,0,0,1-.554.3.427.427,0,0,1-.3-.538h0l.332-1.171a.427.427,0,0,1,.554-.3.443.443,0,0,1,.3.538Z" transform="translate(8.989 70.476)" fill="#7d97f4"/>
    <path id="Trazado_118173" data-name="Trazado 118173" d="M13.332,144.127l-.237,1.171h0a.475.475,0,0,1-.538.348.459.459,0,0,1-.332-.538h0l.253-1.187a.443.443,0,0,1,.522-.348.427.427,0,0,1,.332.522Z" transform="translate(8.649 71.703)" fill="#7d97f4"/>
    <path id="Trazado_118174" data-name="Trazado 118174" d="M12.856,146.6l-.158,1.2h0a.427.427,0,0,1-.506.38.443.443,0,0,1-.38-.491h0l.158-1.219a.448.448,0,1,1,.886.127Z" transform="translate(8.412 72.963)" fill="#7d97f4"/>
    <path id="Trazado_118175" data-name="Trazado 118175" d="M12.543,149.111v1.2h0a.475.475,0,0,1-.475.427.443.443,0,0,1-.427-.475h0v-1.219a.443.443,0,0,1,.475-.427.459.459,0,0,1,.427.459Z" transform="translate(8.314 74.227)" fill="#7d97f4"/>
    <path id="Trazado_118176" data-name="Trazado 118176" d="M12.483,151.629v1.2h0a.427.427,0,0,1-.427.459.443.443,0,0,1-.475-.427h0v-1.219a.443.443,0,0,1,.427-.475.427.427,0,0,1,.459.427Z" transform="translate(8.279 75.5)" fill="#7d97f4"/>
    <path id="Trazado_118177" data-name="Trazado 118177" d="M12.658,154.153l.174,1.187h0a.475.475,0,0,1-.4.522.459.459,0,0,1-.506-.4h0l-.158-1.219a.448.448,0,0,1,.886-.127Z" transform="translate(8.388 76.782)" fill="#7d97f4"/>
    <path id="Trazado_118178" data-name="Trazado 118178" d="M13.1,156.609l.285,1.171h0a.459.459,0,0,1-.886.206h0l-.285-1.187a.459.459,0,0,1,.332-.554.443.443,0,0,1,.538.332Z" transform="translate(8.641 78.032)" fill="#7d97f4"/>
    <path id="Trazado_118179" data-name="Trazado 118179" d="M13.8,159.009l.411,1.124h0a.456.456,0,1,1-.855.317h0l-.427-1.14a.459.459,0,1,1,.855-.332Z" transform="translate(9.05 79.256)" fill="#7d97f4"/>
    <path id="Trazado_118180" data-name="Trazado 118180" d="M14.766,161.311c.174.364.38.712.554,1.076h0a.46.46,0,1,1-.823.411h0c-.19-.364-.38-.712-.57-1.092h0a.459.459,0,0,1,.222-.617.443.443,0,0,1,.617.222Z" transform="translate(9.62 77.297)" fill="#7d97f4"/>
    <path id="Trazado_118181" data-name="Trazado 118181" d="M16.022,163.486l.665.981h0a.475.475,0,0,1-.127.649.443.443,0,0,1-.633-.127h0l-.7-1.013a.461.461,0,1,1,.76-.522Z" transform="translate(10.358 78.587)" fill="#7d97f4"/>
    <path id="Trazado_118182" data-name="Trazado 118182" d="M17.514,165.5l.776.9h0a.466.466,0,1,1-.712.6h0l-.807-.934a.466.466,0,0,1,.712-.6Z" transform="translate(11.24 79.784)" fill="#7d97f4"/>
    <path id="Trazado_118183" data-name="Trazado 118183" d="M19.188,167.34l.87.823h0a.464.464,0,1,1-.665.649h0l-.886-.839a.475.475,0,0,1,.649-.681Z" transform="translate(12.256 80.89)" fill="#7d97f4"/>
    <path id="Trazado_118184" data-name="Trazado 118184" d="M21.058,169.064l.934.744h0a.475.475,0,0,1,.079.665.491.491,0,0,1-.665,0h0l-.95-.76a.475.475,0,0,1,.586-.744Z" transform="translate(13.362 81.872)" fill="#7d97f4"/>
    <path id="Trazado_118185" data-name="Trazado 118185" d="M23.081,170.546l.981.681h0a.459.459,0,0,1,.127.649.475.475,0,0,1-.665.127h0l-1.013-.7a.475.475,0,0,1-.111-.649.459.459,0,0,1,.649-.127Z" transform="translate(14.536 82.78)" fill="#7d97f4"/>
    <path id="Trazado_118186" data-name="Trazado 118186" d="M25.206,171.936l1.029.617h0a.479.479,0,0,1-.491.823h0l-1.045-.633a.475.475,0,1,1,.491-.807Z" transform="translate(15.766 83.591)" fill="#7d97f4"/>
    <path id="Trazado_118187" data-name="Trazado 118187" d="M27.395,173.168l1.06.57h0a.491.491,0,0,1,.19.649.459.459,0,0,1-.633.19h0l-1.092-.554a.491.491,0,0,1-.19-.649.475.475,0,0,1,.633-.206Z" transform="translate(17.075 84.336)" fill="#7d97f4"/>
    <path id="Trazado_118188" data-name="Trazado 118188" d="M29.661,174.307l1.092.506h0a.491.491,0,0,1,.222.649.475.475,0,0,1-.633.222h0l-1.108-.506a.475.475,0,0,1-.237-.633.491.491,0,0,1,.649-.237Z" transform="translate(18.402 85.003)" fill="#7d97f4"/>
    <path id="Trazado_118189" data-name="Trazado 118189" d="M31.965,175.338l1.124.459h0a.475.475,0,0,1,.269.617.491.491,0,0,1-.633.269h0l-1.124-.475a.475.475,0,0,1-.269-.617.491.491,0,0,1,.633-.269Z" transform="translate(19.769 85.601)" fill="#7d97f4"/>
    <path id="Trazado_118190" data-name="Trazado 118190" d="M34.341,176.286l1.124.411h0a.491.491,0,0,1-.348.918h0l-1.14-.427a.491.491,0,0,1-.285-.633.506.506,0,0,1,.633-.285Z" transform="translate(21.145 86.157)" fill="#7d97f4"/>
    <path id="Trazado_118191" data-name="Trazado 118191" d="M36.722,177.13l1.155.38h0a.526.526,0,0,1-.332,1h0l-1.155-.38a.491.491,0,0,1-.3-.617.475.475,0,0,1,.617-.3Z" transform="translate(22.546 86.674)" fill="#7d97f4"/>
    <path id="Trazado_118192" data-name="Trazado 118192" d="M39.145,177.924l1.155.332h0a.491.491,0,0,1,.332.6.506.506,0,0,1-.617.332h0l-1.155-.348a.491.491,0,0,1-.332-.617.475.475,0,0,1,.6-.317Z" transform="translate(20.395 87.114)" fill="#7d97f4"/>
    <path id="Trazado_118193" data-name="Trazado 118193" d="M41.576,178.618l1.171.3h0a.49.49,0,1,1-.237.95h0l-1.187-.3a.506.506,0,0,1-.348-.6.475.475,0,0,1,.6-.348Z" transform="translate(21.604 87.529)" fill="#7d97f4"/>
    <path id="Trazado_118194" data-name="Trazado 118194" d="M44.045,179.239l1.187.269h0a.491.491,0,0,1-.222.95h0l-1.187-.269a.507.507,0,0,1-.38-.586.522.522,0,0,1,.6-.38Z" transform="translate(22.821 87.888)" fill="#7d97f4"/>
    <path id="Trazado_118195" data-name="Trazado 118195" d="M46.561,179.772l1.187.237h0a.506.506,0,0,1-.19.981h0l-1.187-.237a.506.506,0,1,1,.19-.981Z" transform="translate(24.023 88.195)" fill="#7d97f4"/>
    <path id="Trazado_118196" data-name="Trazado 118196" d="M49.022,180.222l1.2.19h0a.5.5,0,0,1-.158,1h0l-1.2-.206a.5.5,0,0,1,.158-.981Z" transform="translate(25.287 88.472)" fill="#7d97f4"/>
    <path id="Trazado_118197" data-name="Trazado 118197" d="M51.541,180.6l1.2.142h0a.506.506,0,0,1,.427.57.491.491,0,0,1-.554.427h0l-1.2-.158a.5.5,0,1,1,.127-.981Z" transform="translate(26.527 88.693)" fill="#7d97f4"/>
    <path id="Trazado_118198" data-name="Trazado 118198" d="M54.065,180.892l1.2.127h0a.506.506,0,1,1-.095,1h0l-1.219-.111a.506.506,0,0,1-.443-.554.491.491,0,0,1,.554-.459Z" transform="translate(27.777 88.863)" fill="#7d97f4"/>
    <path id="Trazado_118199" data-name="Trazado 118199" d="M56.588,181.11h1.219a.507.507,0,0,1,.475.538.491.491,0,0,1-.538.459H56.525a.5.5,0,1,1,.063-1Z" transform="translate(29.028 88.993)" fill="#7d97f4"/>
    <path id="Trazado_118200" data-name="Trazado 118200" d="M59.132,181.243h1.2a.522.522,0,1,1,0,1.029H59.116a.506.506,0,0,1,0-1.013Z" transform="translate(30.287 89.066)" fill="#7d97f4"/>
    <path id="Trazado_118201" data-name="Trazado 118201" d="M61.639,181.29h1.219a.522.522,0,0,1,0,1.029H61.639a.522.522,0,0,1,0-1.029Z" transform="translate(31.569 89.098)" fill="#7d97f4"/>
    <path id="Trazado_118202" data-name="Trazado 118202" d="M64.181,181.26h1.2a.538.538,0,0,1,.522.491.506.506,0,0,1-.491.538H64.2a.506.506,0,0,1,0-1.013Z" transform="translate(32.789 89.08)" fill="#7d97f4"/>
    <path id="Trazado_118203" data-name="Trazado 118203" d="M66.769,181.16h1.219a.522.522,0,0,1,0,1.029h0l-1.219.079a.507.507,0,0,1-.538-.491.491.491,0,0,1,.475-.538Z" transform="translate(34.039 89.022)" fill="#7d97f4"/>
    <path id="Trazado_118204" data-name="Trazado 118204" d="M69.285,181.048l1.2-.127h0a.525.525,0,1,1,.111,1.045h0l-1.219.111a.538.538,0,0,1-.57-.475.522.522,0,0,1,.475-.554Z" transform="translate(35.307 88.881)" fill="#7d97f4"/>
    <path id="Trazado_118205" data-name="Trazado 118205" d="M71.81,180.745l1.2-.142h0a.506.506,0,0,1,.586.443.522.522,0,0,1-.443.586h0l-1.219.158a.526.526,0,1,1-.127-1.045Z" transform="translate(36.557 88.693)" fill="#7d97f4"/>
    <path id="Trazado_118206" data-name="Trazado 118206" d="M74.32,180.414l1.2-.19h0a.522.522,0,1,1,.174,1.029h0l-1.2.206a.538.538,0,0,1-.6-.443.522.522,0,0,1,.427-.6Z" transform="translate(37.805 88.47)" fill="#7d97f4"/>
    <path id="Trazado_118207" data-name="Trazado 118207" d="M76.827,180l1.187-.237h0a.538.538,0,0,1,.617.427.522.522,0,0,1-.411.617h0l-1.2.222a.523.523,0,1,1-.19-1.029Z" transform="translate(39.044 88.204)" fill="#7d97f4"/>
    <path id="Trazado_118208" data-name="Trazado 118208" d="M79.31,179.491l1.187-.269h0a.538.538,0,0,1,.237,1.045h0l-1.187.269a.538.538,0,0,1-.633-.411.522.522,0,0,1,.4-.617Z" transform="translate(40.276 87.89)" fill="#7d97f4"/>
    <path id="Trazado_118209" data-name="Trazado 118209" d="M81.786,178.917l1.171-.3h0a.538.538,0,0,1,.649.38.522.522,0,0,1-.38.649h0l-1.187.317a.507.507,0,0,1-.633-.38.538.538,0,0,1,.364-.649Z" transform="translate(41.499 87.53)" fill="#7d97f4"/>
    <path id="Trazado_118210" data-name="Trazado 118210" d="M84.232,178.256l1.155-.348h0a.538.538,0,0,1,.665.364.522.522,0,0,1-.348.665h0l-1.171.348a.536.536,0,0,1-.3-1.029Z" transform="translate(42.708 87.115)" fill="#7d97f4"/>
    <path id="Trazado_118211" data-name="Trazado 118211" d="M86.683,177.526l1.14-.4h0a.538.538,0,0,1,.681.348.522.522,0,0,1-.332.665h0l-1.155.4a.538.538,0,1,1-.332-1.013Z" transform="translate(43.885 86.658)" fill="#7d97f4"/>
    <path id="Trazado_118212" data-name="Trazado 118212" d="M89.051,176.7l1.14-.427h0a.538.538,0,0,1,.7.316.57.57,0,0,1-.317.7h0l-1.155.427a.538.538,0,0,1-.681-.317.522.522,0,0,1,.317-.7Z" transform="translate(45.095 86.154)" fill="#7d97f4"/>
    <path id="Trazado_118213" data-name="Trazado 118213" d="M91.413,175.8l1.124-.459h0a.539.539,0,1,1,.411,1h0l-1.124.459a.539.539,0,0,1-.412-1Z" transform="translate(46.268 85.603)" fill="#7d97f4"/>
    <path id="Trazado_118214" data-name="Trazado 118214" d="M93.747,174.813l1.108-.506h0a.57.57,0,0,1,.728.269.554.554,0,0,1-.285.728h0l-1.108.507a.546.546,0,0,1-.443-1Z" transform="translate(47.426 85.003)" fill="#7d97f4"/>
    <path id="Trazado_118215" data-name="Trazado 118215" d="M96.062,173.748l1.076-.538h0a.545.545,0,0,1,.475.981h0l-1.092.538a.538.538,0,0,1-.728-.237.554.554,0,0,1,.237-.744Z" transform="translate(48.559 84.358)" fill="#7d97f4"/>
    <path id="Trazado_118216" data-name="Trazado 118216" d="M98.3,172.629l1.06-.57h0a.554.554,0,1,1,.522.965h0l-1.076.57a.554.554,0,0,1-.522-.965Z" transform="translate(49.703 83.657)" fill="#7d97f4"/>
    <path id="Trazado_118217" data-name="Trazado 118217" d="M100.533,171.4l1.045-.6h0a.55.55,0,0,1,.554.95h0l-1.045.617a.557.557,0,0,1-.554-.965Z" transform="translate(50.785 82.941)" fill="#7d97f4"/>
    <path id="Trazado_118218" data-name="Trazado 118218" d="M102.72,170.126l1.029-.633h0a.554.554,0,1,1,.586.934h0l-1.029.649a.554.554,0,0,1-.76-.174.522.522,0,0,1,.174-.76Z" transform="translate(51.865 82.156)" fill="#7d97f4"/>
    <path id="Trazado_118219" data-name="Trazado 118219" d="M104.851,168.766l1.013-.665h0a.554.554,0,1,1,.617.918h0l-1.013.681a.57.57,0,0,1-.775-.158.554.554,0,0,1,.158-.76Z" transform="translate(52.927 81.348)" fill="#7d97f4"/>
    <path id="Trazado_118220" data-name="Trazado 118220" d="M106.954,167.351l.981-.712h0a.554.554,0,0,1,.776.127.57.57,0,0,1-.127.776h0l-1,.712a.554.554,0,0,1-.776-.127.538.538,0,0,1,.127-.776Z" transform="translate(53.959 80.499)" fill="#7d97f4"/>
    <path id="Trazado_118221" data-name="Trazado 118221" d="M108.99,165.868l.965-.728h0a.57.57,0,1,1,.681.9h0l-.965.728a.57.57,0,0,1-.791-.095.586.586,0,0,1,.111-.791Z" transform="translate(54.978 79.593)" fill="#7d97f4"/>
    <path id="Trazado_118222" data-name="Trazado 118222" d="M111.014,164.308l.934-.76h0a.57.57,0,0,1,.712.87h0l-.95.776a.554.554,0,0,1-.791-.079.57.57,0,0,1,0-.791Z" transform="translate(55.959 78.715)" fill="#7d97f4"/>
    <path id="Trazado_118223" data-name="Trazado 118223" d="M112.929,162.7l.9-.807h0a.57.57,0,0,1,.807,0,.554.554,0,0,1,0,.791h0l-.918.807a.554.554,0,0,1-.791,0,.57.57,0,0,1,0-.791Z" transform="translate(56.949 77.697)" fill="#7d97f4"/>
    <path id="Trazado_118224" data-name="Trazado 118224" d="M114.843,161.007l.87-.823h0a.538.538,0,0,1,.791,0,.554.554,0,0,1,0,.791h0l-.9.839a.571.571,0,0,1-.776-.839Z" transform="translate(57.872 76.699)" fill="#7d97f4"/>
    <path id="Trazado_118225" data-name="Trazado 118225" d="M116.693,159.266l.855-.855h0a.571.571,0,1,1,.807.807h0l-.87.855a.57.57,0,1,1-.791-.807Z" transform="translate(58.768 79.037)" fill="#7d97f4"/>
    <path id="Trazado_118226" data-name="Trazado 118226" d="M118.456,157.473l.823-.886h0a.577.577,0,1,1,.839.791h0l-.839.87a.554.554,0,0,1-.807,0,.57.57,0,0,1,0-.807Z" transform="translate(59.675 78.12)" fill="#7d97f4"/>
    <path id="Trazado_118227" data-name="Trazado 118227" d="M120.173,155.63l.807-.9h0a.586.586,0,1,1,.87.776h0l-.823.9a.572.572,0,0,1-.855-.76Z" transform="translate(60.523 77.159)" fill="#7d97f4"/>
    <path id="Trazado_118228" data-name="Trazado 118228" d="M121.838,153.711l.776-.934h0a.573.573,0,1,1,.886.728h0l-.776.934a.574.574,0,1,1-.886-.728Z" transform="translate(61.352 76.2)" fill="#7d97f4"/>
    <path id="Trazado_118229" data-name="Trazado 118229" d="M123.446,151.742l.744-.95h0a.586.586,0,0,1,.807-.111.6.6,0,0,1,.111.823h0l-.76.95a.575.575,0,1,1-.9-.712Z" transform="translate(62.148 75.201)" fill="#7d97f4"/>
    <path id="Trazado_118230" data-name="Trazado 118230" d="M124.963,149.713l.712-.981h0a.586.586,0,0,1,.934.681h0l-.712.981a.586.586,0,0,1-.934-.681Z" transform="translate(62.929 74.204)" fill="#7d97f4"/>
    <path id="Trazado_118231" data-name="Trazado 118231" d="M126.434,147.672l.681-1h0a.6.6,0,0,1,.823-.158.586.586,0,0,1,.142.807h0l-.681,1a.586.586,0,0,1-.965-.649Z" transform="translate(63.651 73.128)" fill="#7d97f4"/>
    <path id="Trazado_118232" data-name="Trazado 118232" d="M127.854,145.568l.649-1.013h0a.57.57,0,0,1,.807-.19.586.586,0,0,1,.174.807h0l-.649,1.029a.57.57,0,0,1-.807.19.586.586,0,0,1-.174-.807Z" transform="translate(64.336 72.051)" fill="#7d97f4"/>
    <path id="Trazado_118233" data-name="Trazado 118233" d="M129.179,143.421l.617-1.045h0a.589.589,0,0,1,1.013.6h0l-.617,1.045a.57.57,0,0,1-.807.206A.6.6,0,0,1,129.179,143.421Z" transform="translate(64.996 70.961)" fill="#7d97f4"/>
    <path id="Trazado_118234" data-name="Trazado 118234" d="M130.451,141.255l.57-1.06h0a.6.6,0,1,1,1.045.57h0l-.586,1.06a.591.591,0,1,1-1.045-.554Z" transform="translate(65.618 69.815)" fill="#7d97f4"/>
    <path id="Trazado_118235" data-name="Trazado 118235" d="M131.622,138.988l.554-1.076h0a.586.586,0,0,1,.791-.269.6.6,0,0,1,.269.807h0l-.554,1.076a.591.591,0,1,1-1.06-.522Z" transform="translate(66.209 68.708)" fill="#7d97f4"/>
    <path id="Trazado_118236" data-name="Trazado 118236" d="M132.749,136.69l.491-1.092h0a.6.6,0,0,1,1.076.506h0l-.506,1.108a.586.586,0,0,1-.791.285.617.617,0,0,1-.3-.791Z" transform="translate(66.758 67.586)" fill="#7d97f4"/>
    <path id="Trazado_118237" data-name="Trazado 118237" d="M133.768,134.418l.475-1.124h0a.6.6,0,1,1,1.108.475h0l-.475,1.108a.6.6,0,1,1-1.108-.459Z" transform="translate(67.274 66.383)" fill="#7d97f4"/>
    <path id="Trazado_118238" data-name="Trazado 118238" d="M134.735,132.065l.443-1.124h0a.6.6,0,0,1,1.124.443h0l-.443,1.124a.617.617,0,0,1-.791.348.6.6,0,0,1-.332-.776Z" transform="translate(67.755 65.199)" fill="#7d97f4"/>
    <path id="Trazado_118239" data-name="Trazado 118239" d="M135.643,129.706l.411-1.14h0a.617.617,0,0,1,.776-.364.6.6,0,0,1,.364.776h0l-.411,1.14a.606.606,0,1,1-1.14-.411Z" transform="translate(68.206 64.005)" fill="#7d97f4"/>
    <path id="Trazado_118240" data-name="Trazado 118240" d="M136.5,127.313l.4-1.155h0a.6.6,0,0,1,.776-.364.586.586,0,0,1,.364.76h0l-.4,1.155a.6.6,0,0,1-1.14-.4Z" transform="translate(68.631 62.8)" fill="#7d97f4"/>
    <path id="Trazado_118241" data-name="Trazado 118241" d="M137.321,124.895l.38-1.14h0a.617.617,0,0,1,.76-.4.6.6,0,0,1,.38.76l-.38,1.155a.617.617,0,0,1-.76.4.6.6,0,0,1-.38-.76h0Z" transform="translate(69.036 61.59)" fill="#7d97f4"/>
    <path id="Trazado_118242" data-name="Trazado 118242" d="M138.109,122.48l.364-1.155a.617.617,0,0,1,.76-.4.586.586,0,0,1,.38.76l-.364,1.155a.6.6,0,0,1-.744.4A.617.617,0,0,1,138.109,122.48Z" transform="translate(69.427 60.377)" fill="#7d97f4"/>
    <path id="Trazado_118243" data-name="Trazado 118243" d="M138.881,120.072l.348-1.155a.6.6,0,1,1,1.14.348l-.348,1.171a.6.6,0,0,1-.76.38.586.586,0,0,1-.38-.744Z" transform="translate(69.805 59.129)" fill="#7d97f4"/>
    <path id="Trazado_118244" data-name="Trazado 118244" d="M139.629,117.612l.348-1.155a.6.6,0,1,1,1.14.348l-.364,1.155a.57.57,0,0,1-.728.4A.6.6,0,0,1,139.629,117.612Z" transform="translate(70.176 57.901)" fill="#7d97f4"/>
    <path id="Trazado_118245" data-name="Trazado 118245" d="M140.379,115.161l.348-1.171a.6.6,0,0,1,.744-.38.586.586,0,0,1,.38.728l-.348,1.155a.586.586,0,0,1-1.124-.332Z" transform="translate(70.547 56.722)" fill="#7d97f4"/>
    <path id="Trazado_118246" data-name="Trazado 118246" d="M141.129,112.68l.364-1.155a.586.586,0,0,1,1.108.348l-.348,1.155a.586.586,0,1,1-1.124-.332Z" transform="translate(70.917 55.527)" fill="#7d97f4"/>
    <path id="Trazado_118247" data-name="Trazado 118247" d="M141.9,110.263l.38-1.155a.554.554,0,0,1,.728-.364.57.57,0,0,1,.364.728l-.364,1.155a.586.586,0,0,1-.728.364.57.57,0,0,1-.38-.712Z" transform="translate(71.295 54.288)" fill="#7d97f4"/>
    <path id="Trazado_118248" data-name="Trazado 118248" d="M142.69,107.829l.4-1.155a.586.586,0,0,1,.728-.364.554.554,0,0,1,.348.728h0l-.38,1.155h0a.576.576,0,1,1-1.092-.364Z" transform="translate(71.683 53.077)" fill="#7d97f4"/>
    <path id="Trazado_118249" data-name="Trazado 118249" d="M143.524,105.419l.411-1.14a.57.57,0,1,1,1.06.38h0l-.4,1.14h0a.57.57,0,0,1-.728.348.554.554,0,0,1-.348-.728Z" transform="translate(72.087 51.845)" fill="#7d97f4"/>
    <path id="Trazado_118250" data-name="Trazado 118250" d="M144.394,102.975l.427-1.14a.566.566,0,0,1,1.06.4h0l-.427,1.14h0a.566.566,0,1,1-1.06-.4Z" transform="translate(72.515 50.673)" fill="#7d97f4"/>
    <path id="Trazado_118251" data-name="Trazado 118251" d="M145.314,100.545l.459-1.124a.554.554,0,1,1,1.029.412h0l-.443,1.124h0a.561.561,0,0,1-1.045-.411Z" transform="translate(72.968 49.473)" fill="#7d97f4"/>
    <path id="Trazado_118252" data-name="Trazado 118252" d="M146.3,98.2l.491-1.124a.553.553,0,1,1,1.013.443h0l-.475,1.108h0a.57.57,0,0,1-.744.285.554.554,0,0,1-.285-.728Z" transform="translate(73.447 48.314)" fill="#7d97f4"/>
    <path id="Trazado_118253" data-name="Trazado 118253" d="M147.344,95.841l.538-1.108a.545.545,0,0,1,.981.475h0l-.506,1.092h0a.552.552,0,0,1-1-.475Z" transform="translate(73.966 47.159)" fill="#7d97f4"/>
    <path id="Trazado_118254" data-name="Trazado 118254" d="M148.5,93.5l.57-1.076a.538.538,0,0,1,.728-.222.522.522,0,0,1,.222.712h0l-.57,1.06h0a.538.538,0,1,1-.95-.506Z" transform="translate(74.522 46.019)" fill="#7d97f4"/>
    <path id="Trazado_118255" data-name="Trazado 118255" d="M149.754,91.252l.617-1.06a.525.525,0,0,1,.9.538h0l-.6,1.045h0a.522.522,0,0,1-.728.19.538.538,0,0,1-.19-.712Z" transform="translate(75.137 44.922)" fill="#7d97f4"/>
    <path id="Trazado_118256" data-name="Trazado 118256" d="M151.1,89.044l.665-1.029a.491.491,0,0,1,.7-.142.506.506,0,0,1,.158.7h0l-.665,1.029h0a.522.522,0,0,1-.712.158.506.506,0,0,1-.142-.712Z" transform="translate(75.788 43.845)" fill="#7d97f4"/>
    <path id="Trazado_118257" data-name="Trazado 118257" d="M152.526,86.891l.728-1a.491.491,0,0,1,.681-.111.506.506,0,0,1,.127.7h0l-.7.981h0a.491.491,0,0,1-.7.127.506.506,0,0,1-.127-.7Z" transform="translate(76.497 42.802)" fill="#7d97f4"/>
    <path id="Trazado_118258" data-name="Trazado 118258" d="M154.034,84.793l.76-.965a.491.491,0,0,1,.76.6h0l-.744.95h0a.491.491,0,0,1-.681,0,.475.475,0,0,1-.079-.681Z" transform="translate(77.23 41.809)" fill="#7d97f4"/>
    <path id="Trazado_118259" data-name="Trazado 118259" d="M155.741,82.788l.807-.918a.475.475,0,0,1,.665,0,.459.459,0,0,1,0,.649h0l-.791.9h0a.482.482,0,0,1-.728-.633Z" transform="translate(78.03 40.827)" fill="#7d97f4"/>
    <path id="Trazado_118260" data-name="Trazado 118260" d="M157.427,80.839l.934-.791a.475.475,0,0,1,.649,0,.459.459,0,0,1,0,.649h0l-.839.87h0a.459.459,0,1,1-.665-.633Z" transform="translate(78.918 39.922)" fill="#7d97f4"/>
    <path id="Trazado_118261" data-name="Trazado 118261" d="M159.293,79.065l.9-.823a.442.442,0,1,1,.633.617h0l-.886.807h0a.459.459,0,0,1-.633,0,.443.443,0,0,1,0-.633Z" transform="translate(79.802 39.016)" fill="#7d97f4"/>
    <path id="Trazado_118262" data-name="Trazado 118262" d="M161.25,77.323l.95-.76a.443.443,0,0,1,.6,0,.427.427,0,0,1,0,.6h0l-.95.76h0a.427.427,0,0,1-.617,0,.459.459,0,0,1,0-.617Z" transform="translate(77.342 38.191)" fill="#7d97f4"/>
    <path id="Trazado_118263" data-name="Trazado 118263" d="M163.311,75.752l1-.7a.412.412,0,0,1,.57.111.4.4,0,0,1-.095.554h0l-.981.681h0a.443.443,0,0,1-.586-.095.427.427,0,0,1,.111-.586Z" transform="translate(78.525 37.464)" fill="#7d97f4"/>
    <path id="Trazado_118264" data-name="Trazado 118264" d="M165.464,74.307l1.06-.617a.387.387,0,1,1,.4.665h0l-1.029.633h0a.4.4,0,0,1-.538-.142.364.364,0,0,1,.127-.522Z" transform="translate(79.775 36.791)" fill="#7d97f4"/>
    <path id="Trazado_118265" data-name="Trazado 118265" d="M167.732,73.027l1.108-.522a.348.348,0,0,1,.475.158.364.364,0,0,1-.158.491h0l-1.076.538h0a.38.38,0,0,1-.506-.158.364.364,0,0,1,.174-.491Z" transform="translate(81.084 36.208)" fill="#7d97f4"/>
    <path id="Trazado_118266" data-name="Trazado 118266" d="M170.074,71.936l1.14-.427a.341.341,0,0,1,.253.633h0l-1.124.443h0a.348.348,0,0,1-.253-.649Z" transform="translate(82.445 35.722)" fill="#7d97f4"/>
    <path id="Trazado_118267" data-name="Trazado 118267" d="M172.521,71.053l1.187-.332a.317.317,0,0,1,.174.6h0l-1.155.348h0a.332.332,0,0,1-.411-.222.316.316,0,0,1,.222-.4Z" transform="translate(83.86 35.341)" fill="#7d97f4"/>
    <path id="Trazado_118268" data-name="Trazado 118268" d="M175.018,70.392l1.2-.222a.3.3,0,0,1,.111.586h0l-1.171.222h0a.285.285,0,0,1-.348-.237.3.3,0,0,1,.237-.348Z" transform="translate(85.32 35.07)" fill="#7d97f4"/>
    <path id="Trazado_118269" data-name="Trazado 118269" d="M177.578,69.966l1.2-.095a.271.271,0,0,1,.063.538h0l-1.2.111h0a.271.271,0,1,1-.063-.538Z" transform="translate(86.795 34.922)" fill="#7d97f4"/>
    <path id="Trazado_118270" data-name="Trazado 118270" d="M94.41,189.7c-3.055.269-8.388.7-12.661.87A12.124,12.124,0,0,1,77,190.111v.253a.855.855,0,0,0,.823.823,145.615,145.615,0,0,0,16.476,0,.617.617,0,0,0,.506-.918,5.035,5.035,0,0,0-.4-.57Z" transform="translate(38.971 93.998)" fill="url(#linear-gradient-15)"/>
    <path id="Trazado_118271" data-name="Trazado 118271" d="M81.749,192.849c4.194-.174,9.5-.6,12.662-.87-3.007-3.7-12.662-6.188-12.662-6.188H79.058A11.079,11.079,0,0,0,77,192.453a12.124,12.124,0,0,0,4.748.4Z" transform="translate(38.982 91.72)" fill="url(#linear-gradient-16)"/>
    <path id="Trazado_118272" data-name="Trazado 118272" d="M78,183l.253,5a1.14,1.14,0,0,0,.981,1.076,4.242,4.242,0,0,0,2.026-.174,1.33,1.33,0,0,0,.9-1.029l.87-4.875Z" transform="translate(39.767 90.094)" fill="url(#linear-gradient-17)"/>
    <path id="Trazado_118273" data-name="Trazado 118273" d="M56.69,190.813a2.421,2.421,0,0,1-2.184-1.583h0a1.678,1.678,0,0,0,1.155,1.978,7.739,7.739,0,0,0,3.165.507,3.561,3.561,0,0,0,2.406-1.124h0A8.088,8.088,0,0,1,56.69,190.813Z" transform="translate(28.175 93.724)" fill="url(#linear-gradient-18)"/>
    <path id="Trazado_118274" data-name="Trazado 118274" d="M62.942,183H60.71c-3.387,0-5.524,7.09-6.22,9.86a2.421,2.421,0,0,0,2.184,1.583,8.087,8.087,0,0,0,4.621-.237,21.446,21.446,0,0,0,3.165-8.008,2.817,2.817,0,0,0-1.519-3.2Z" transform="translate(28.133 90.094)" fill="url(#linear-gradient-19)"/>
    <path id="Trazado_118275" data-name="Trazado 118275" d="M59.077,180.05l-1.234,4.922a1.314,1.314,0,0,0,.7,1.583,4.638,4.638,0,0,0,2.564.617,1.124,1.124,0,0,0,.9-.744l1.82-5.175Z" transform="translate(29.816 88.375)" fill="url(#linear-gradient-20)"/>
    <path id="Trazado_118276" data-name="Trazado 118276" d="M57.67,206.683c1.583,1.377,6.536,1.583,6.536,1.583,18.043-43.287,25.418-49.427,25.418-49.427-2.6,16.333-.412,52.5-.412,52.5a10.794,10.794,0,0,0,6.806,0,278.266,278.266,0,0,1,9.211-68.451c-12.187-.285-18.676-4.447-20.8-6.125C74.272,153.109,57.67,206.683,57.67,206.683Z" transform="translate(28.936 63.151)" fill="url(#linear-gradient-21)"/>
    <path id="Trazado_118277" data-name="Trazado 118277" d="M78.09,105.4c-2.311,11.506-1.472,32.1-.934,41.5.142,2.643-1.693,6.331-3.165,8.8a.791.791,0,0,0,.317,1.108,54.175,54.175,0,0,0,20.733,5.745,1.393,1.393,0,0,0,1.409-1.045,272.68,272.68,0,0,1,15.7-44.458C102.828,102.17,78.09,105.4,78.09,105.4Z" transform="translate(36.93 50.625)" fill="url(#linear-gradient-22)"/>
    <path id="Trazado_118278" data-name="Trazado 118278" d="M78.853,152.6a.648.648,0,0,1-.3,0,.586.586,0,0,1-.19-.807,18.074,18.074,0,0,1,7.138-6.2.58.58,0,0,1,.506,1.045,17.236,17.236,0,0,0-6.584,5.745A.57.57,0,0,1,78.853,152.6Z" transform="translate(39.831 72.492)" fill="url(#linear-gradient-23)"/>
    <path id="Trazado_118279" data-name="Trazado 118279" d="M67.4,126.443a39.378,39.378,0,0,0,7.312,17.41l4.083-3.26a21.841,21.841,0,0,1-3.26-14.735,19.7,19.7,0,0,0-8.135.586Z" transform="translate(34.429 62.204)" fill="url(#linear-gradient-24)"/>
    <path id="Trazado_118280" data-name="Trazado 118280" d="M84.555,119.5l-2.58-14.244s-17.22,13.152-14.466,33.031a19.7,19.7,0,0,1,8.135-.586C76.373,131.374,78.794,124.442,84.555,119.5Z" transform="translate(34.211 51.616)" fill="url(#linear-gradient-25)"/>
    <path id="Trazado_118281" data-name="Trazado 118281" d="M100.5,112.65,93.85,126.894c1.076,8.642,5.729,12.377,10.731,13.817a30.2,30.2,0,0,1,2.232-9.322C100.418,124.837,100.5,112.65,100.5,112.65Z" transform="translate(47.33 55.419)" fill="url(#linear-gradient-26)"/>
    <path id="Trazado_118282" data-name="Trazado 118282" d="M102.822,124.53a30.2,30.2,0,0,0-2.232,9.322c13.358,5.175,16.887-4.875,16.887-4.875l-2.469-.427a14.023,14.023,0,0,1-12.187-4.02Z" transform="translate(50.501 61.901)" fill="url(#linear-gradient-27)"/>
    <path id="Trazado_118283" data-name="Trazado 118283" d="M98.774,102.634l-3.165,11.791a2.311,2.311,0,0,1-3.07,1.583,44.93,44.93,0,0,1-4.621-2.121,3.07,3.07,0,0,1-1.092-4.432L93.488,99.5Z" transform="translate(43.648 49.293)" fill="url(#linear-gradient-28)"/>
    <path id="Trazado_118284" data-name="Trazado 118284" d="M100.161,94.8c.111.206,2.437,14.735,2.437,14.735l-8.325,1.155L90,97.283S98.357,91.538,100.161,94.8Z" transform="translate(45.457 46.461)" fill="url(#linear-gradient-29)"/>
    <path id="Trazado_118285" data-name="Trazado 118285" d="M94.49,101.554l1.693,7.249a.775.775,0,0,0,.095.269c.285.506,1.377,2.2,3.039.965a9.5,9.5,0,0,1,4.1-2.184,1.045,1.045,0,0,1,1.092.87,45.565,45.565,0,0,1,.6,6.964,1.013,1.013,0,0,1-.95,1.013,33.538,33.538,0,0,1-7.818-.206,1.092,1.092,0,0,1-.807-.712,86.01,86.01,0,0,0-3.165-8.562c-.791-1.424-2.722-1.583-3.577-1.583a.981.981,0,0,1-.728-.332,2.691,2.691,0,0,1,.411-4.289,1.013,1.013,0,0,0,.142-1.488,2.691,2.691,0,0,1,.111-4.02,3.8,3.8,0,0,1,4.637-.586,1.06,1.06,0,0,0,1.3-.317.791.791,0,0,1,.886-.3,1.045,1.045,0,0,0,1.2-.934,3.165,3.165,0,0,1,2.738-2.96c3.656-.7,5.492,2.96,5.429,5.539s-4.083,3.165-6.331,2.691c-1.725-.332-3.165,1.25-3.83,2.042A1.013,1.013,0,0,0,94.49,101.554Z" transform="translate(43.933 44.48)" fill="url(#linear-gradient-30)"/>
    <path id="Trazado_118286" data-name="Trazado 118286" d="M92.623,104.5s-.079-4.479-1.9-4.906-3.767.886-2.216,3.577C90.439,106.521,92.623,104.5,92.623,104.5Z" transform="translate(44.662 49.607)" fill="url(#linear-gradient-31)"/>
    <path id="Trazado_118287" data-name="Trazado 118287" d="M57.86,162.45l6.9-7.28a2.2,2.2,0,0,0,.253-2.706l-7.439-11.68a2.216,2.216,0,0,0-2.548-.918l-9.1,2.944-1.266-3.893,9.1-2.944a6.331,6.331,0,0,1,7.265,2.611l7.439,11.68a6.331,6.331,0,0,1-.744,7.724l-6.9,7.28Z" transform="translate(23.105 66.677)" fill="url(#linear-gradient-32)"/>
    <path id="Trazado_118288" data-name="Trazado 118288" d="M38.184,215.532l47.845-40.865a10.525,10.525,0,0,0,2.152-13.532c-3.751-6.157-9.021-14.766-12.9-21.034a10.572,10.572,0,0,0-13.659-3.909L4.916,164.11A10.557,10.557,0,0,0,.691,179.257l21.73,33.9A10.588,10.588,0,0,0,38.248,215.5Z" transform="translate(0.968 62.184)" fill="#91b3fa"/>
    <path id="Trazado_118289" data-name="Trazado 118289" d="M37.043,212.329l45.376-38.586a9.908,9.908,0,0,0,2.121-12.662c-3.514-5.745-8.436-13.769-12.044-19.625a9.923,9.923,0,0,0-12.851-3.577L5.99,164.342a10.129,10.129,0,0,0-5.239,6.331,9.8,9.8,0,0,0,1.155,7.993L22.2,210.319a9.813,9.813,0,0,0,6.9,4.337,10.082,10.082,0,0,0,7.945-2.327Z" transform="translate(1.745 63.187)" fill="url(#linear-gradient-33)"/>
    <path id="Trazado_118290" data-name="Trazado 118290" d="M40.8,170.01l-8.578-13.469a7.6,7.6,0,0,0-10.177-2.611l-3.4,2.168c-1.155.744-.9,2.469-.174,3.624l13.643,21.4a2.089,2.089,0,0,0,3.023.871l3.419-2.184a7.075,7.075,0,0,0,2.247-9.8Z" transform="translate(11.932 72.586)" fill="#7d97f4"/>
    <path id="Trazado_118291" data-name="Trazado 118291" d="M32.776,180.828,19.149,159.493a3.165,3.165,0,0,0-3.814-1.092l-2.6,1.583a7.913,7.913,0,0,0-2.327,10.588l8.578,13.469A7.47,7.47,0,0,0,29.2,185.909l2.58-1.583a2.532,2.532,0,0,0,1-3.5Z" transform="translate(6.946 75.616)" fill="#7d97f4"/>
    <path id="Trazado_118292" data-name="Trazado 118292" d="M46.818,164.426a4.606,4.606,0,0,1-6.331-1.409l-5.508-8.626a4.621,4.621,0,0,1,1.409-6.331h0a4.606,4.606,0,0,1,6.331,1.409L48.21,158.1a4.59,4.59,0,0,1-1.409,6.331Z" transform="translate(18.182 72.951)" fill="#7d97f4"/>
    <path id="Trazado_118293" data-name="Trazado 118293" d="M171.8,110.794l-9.5-2.548a3.5,3.5,0,0,0-1.852,0l-59.3,17.726,2.833,20.4,11.443-3.419a1.709,1.709,0,0,0,1-1.045l2.216-6.062a.744.744,0,0,1,.443-.427.665.665,0,0,1,.57.111l4.748,3.941a1.678,1.678,0,0,0,1.472.364l7.66-2.279a1.725,1.725,0,0,0,1.029-1.124l1.678-5.4a.681.681,0,0,1,.475-.475.617.617,0,0,1,.617.19l3.165,3.688a1.583,1.583,0,0,0,1.583.554l5.619-1.678a1.583,1.583,0,0,0,1.092-1.583l.206-5.017a.681.681,0,0,1,.4-.586.633.633,0,0,1,.681.111l4.384,4.1a1.662,1.662,0,0,0,1.583.427l5.919-1.773a4.748,4.748,0,0,0,2.627-2.152l8.23-13.8a1.49,1.49,0,0,0-1.013-2.247Z" transform="translate(48.609 52.832)" fill="#91b3fa"/>
    <path id="Trazado_118294" data-name="Trazado 118294" d="M165.931,112.913a1.583,1.583,0,0,1-1.092,1.852l-64.115,19.182a1.583,1.583,0,0,1-1.915-.95h0a1.488,1.488,0,0,1,1.076-1.836l64.146-19.2a1.583,1.583,0,0,1,1.915.95Z" transform="translate(47.707 55.256)" fill="#7d97f4"/>
    <path id="Trazado_118295" data-name="Trazado 118295" d="M114.538,113.452,84.2,118.2a7.518,7.518,0,0,0-5.65,4.289l-9.1,19.894a8.04,8.04,0,0,0,2.643,9.955l18.486,13.2a8.088,8.088,0,0,0,8.325.633l27.475-13.833a5.065,5.065,0,0,0,2.6-5.983l-8.752-29.3a5.112,5.112,0,0,0-5.682-3.609ZM90.465,157.546a.649.649,0,0,1-.744,0L77.06,148.509a4.083,4.083,0,0,1-1.424-4.843l5.3-13.358a.633.633,0,0,1,1.187,0L90.75,156.8a.665.665,0,0,1-.285.744Z" transform="translate(33.825 54.783)" fill="url(#linear-gradient-34)"/>
    <path id="Trazado_118296" data-name="Trazado 118296" d="M76.567,123.659a.491.491,0,0,1-.206,0,.427.427,0,0,1-.174-.57l.538-1.029a3.672,3.672,0,0,1,2.659-1.9l31.195-4.97a.427.427,0,0,1,.491.364.4.4,0,0,1-.348.475L79.527,121a2.833,2.833,0,0,0-2.042,1.456l-.538,1.029A.427.427,0,0,1,76.567,123.659Z" transform="translate(38.109 57.331)" fill="#91b3fa"/>
    <path id="Trazado_118297" data-name="Trazado 118297" d="M110.966,130.667c.681.522,2.975-.57,4.384-1.329a1.583,1.583,0,0,0,.791-1.915c-.348-1.06-.9-2.453-1.583-2.627C113.387,124.51,108.2,128.5,110.966,130.667Z" transform="translate(55.536 62.19)" fill="url(#linear-gradient-35)"/>
    <path id="Trazado_118298" data-name="Trazado 118298" d="M56.418,143.22c.111-.222.222-.443.348-.665a21.382,21.382,0,0,1,8.974-8.119c5.065-2.564,10.477-3.324,14.466-1.868l2.152-4.748c-5.349-1.947-12.551-1.187-18.992,2.042a26.462,26.462,0,0,0-11.079,10.161c-.158.269-.285.538-.427.807a5.334,5.334,0,0,1,4.558,2.39Z" transform="translate(26.496 62.805)" fill="#fff"/>
    <path id="Trazado_118299" data-name="Trazado 118299" d="M88.377,128.77l-2.216,5.714c1.266,2.516-.506,6.109-2.881,9.5a22.616,22.616,0,0,1-8.088,6.726,21.255,21.255,0,0,1-11.854,2.453c-3.292-.38-5.714-1.773-6.806-3.925a6.062,6.062,0,0,1-.348-.886h0a18.549,18.549,0,0,0-2.817-4.115,2.5,2.5,0,0,0-2.327-.222,11.7,11.7,0,0,0,.95,7.549c1.9,3.719,5.714,6.093,10.762,6.679a21.051,21.051,0,0,0,2.453.142,28.8,28.8,0,0,0,22.316-11.49C90.957,141.954,93.014,133.676,88.377,128.77Z" transform="translate(25.8 63.286)" fill="url(#linear-gradient-36)"/>
    <path id="Trazado_118300" data-name="Trazado 118300" d="M77.506,136.789l7.106,3.165,1.44,4.337s-1.219.586-3.165-1.171a35.55,35.55,0,0,0-4.748-3.545s-3.751-.3-2.39-2.865Z" transform="translate(38.389 68.074)" fill="url(#linear-gradient-37)"/>
    <path id="Trazado_118301" data-name="Trazado 118301" d="M97.576,96.532h0a.222.222,0,0,1-.158-.253s.728-3.165-1.124-4.574a.206.206,0,0,1,0-.3.19.19,0,0,1,.285,0c2.073,1.583,1.329,4.859,1.3,5A.237.237,0,0,1,97.576,96.532Z" transform="translate(48.814 45.543)" fill="#fff"/>
  </g>
</svg>
