<svg xmlns="http://www.w3.org/2000/svg" xmlns:xlink="http://www.w3.org/1999/xlink" width="300" height="300" viewBox="0 0 300 300">
  <defs>
    <linearGradient id="linear-gradient" x1="4.642" y1="-1.848" x2="5.306" y2="-0.783" gradientUnits="objectBoundingBox">
      <stop offset="0" stop-color="#6c58b8"/>
      <stop offset="1" stop-color="#472ea6"/>
    </linearGradient>
    <linearGradient id="linear-gradient-2" x1="-0.885" y1="1.478" x2="-1.49" y2="0.599" gradientUnits="objectBoundingBox">
      <stop offset="0" stop-color="#a737d5"/>
      <stop offset="1" stop-color="#ef497a"/>
    </linearGradient>
    <linearGradient id="linear-gradient-3" x1="19.013" y1="-22.314" x2="18" y2="-21.525" gradientUnits="objectBoundingBox">
      <stop offset="0" stop-color="#f25585"/>
      <stop offset="1" stop-color="#472ea6"/>
    </linearGradient>
    <linearGradient id="linear-gradient-4" x1="25.163" y1="-5.175" x2="25.943" y2="-6.011" gradientUnits="objectBoundingBox">
      <stop offset="0" stop-color="#b37cff"/>
      <stop offset="1" stop-color="#f895e7"/>
    </linearGradient>
    <linearGradient id="linear-gradient-5" x1="-1.285" y1="-0.216" x2="1.912" y2="1.116" xlink:href="#linear-gradient"/>
    <linearGradient id="linear-gradient-6" x1="0.384" y1="0.282" x2="1.506" y2="2.288" gradientUnits="objectBoundingBox">
      <stop offset="0" stop-color="#b5abdb"/>
      <stop offset="1" stop-color="#6c58b8"/>
    </linearGradient>
    <linearGradient id="linear-gradient-7" x1="-174.41" y1="0.504" x2="-173.41" y2="0.504" gradientUnits="objectBoundingBox">
      <stop offset="0" stop-color="#53d8ff"/>
      <stop offset="1" stop-color="#3840f7"/>
    </linearGradient>
    <linearGradient id="linear-gradient-8" x1="-179.351" y1="0.497" x2="-178.351" y2="0.497" gradientUnits="objectBoundingBox">
      <stop offset="0" stop-color="#2b3582"/>
      <stop offset="1" stop-color="#150e42"/>
    </linearGradient>
    <linearGradient id="linear-gradient-9" x1="-618.686" y1="0.494" x2="-617.686" y2="0.494" gradientUnits="objectBoundingBox">
      <stop offset="0" stop-color="#f9b776"/>
      <stop offset="1" stop-color="#f47960"/>
    </linearGradient>
    <linearGradient id="linear-gradient-10" x1="-455.537" y1="0.5" x2="-454.536" y2="0.5" xlink:href="#linear-gradient-7"/>
    <linearGradient id="linear-gradient-11" x1="-308.392" y1="0.498" x2="-307.397" y2="0.498" xlink:href="#linear-gradient-8"/>
    <linearGradient id="linear-gradient-12" x1="-518.931" y1="0.504" x2="-517.928" y2="0.504" xlink:href="#linear-gradient-9"/>
    <linearGradient id="linear-gradient-13" x1="-69.024" y1="0.067" x2="-70.18" y2="1.243" xlink:href="#linear-gradient-7"/>
    <linearGradient id="linear-gradient-14" x1="-415.806" y1="1.092" x2="-415.201" y2="-0.107" xlink:href="#linear-gradient-7"/>
    <linearGradient id="linear-gradient-15" x1="-113.301" y1="0.308" x2="-114.171" y2="1.355" xlink:href="#linear-gradient-9"/>
    <linearGradient id="linear-gradient-16" x1="-4.274" y1="0.03" x2="3.863" y2="0.828" gradientUnits="objectBoundingBox">
      <stop offset="0" stop-color="#cb236d"/>
      <stop offset="1" stop-color="#4c246d"/>
    </linearGradient>
    <linearGradient id="linear-gradient-17" x1="-325.259" y1="1.47" x2="-324.987" y2="0.427" xlink:href="#linear-gradient-9"/>
    <linearGradient id="linear-gradient-18" x1="-232.029" y1="0.349" x2="-233.141" y2="1.106" xlink:href="#linear-gradient-9"/>
    <linearGradient id="linear-gradient-19" x1="-168.179" y1="0.15" x2="-167.429" y2="1.118" xlink:href="#linear-gradient-8"/>
    <linearGradient id="linear-gradient-20" x1="-951.7" y1="-0.696" x2="-956.257" y2="1.808" xlink:href="#linear-gradient-9"/>
    <linearGradient id="linear-gradient-21" x1="-0.034" y1="1.921" x2="-2.885" y2="9.571" xlink:href="#linear-gradient-8"/>
    <linearGradient id="linear-gradient-22" x1="-0.55" y1="2.735" x2="-4.886" y2="11.955" xlink:href="#linear-gradient-8"/>
    <linearGradient id="linear-gradient-23" x1="0.76" y1="0.231" x2="0.172" y2="1.37" xlink:href="#linear-gradient-8"/>
    <linearGradient id="linear-gradient-24" x1="-13.092" y1="228.982" x2="-13.652" y2="244.712" gradientUnits="objectBoundingBox">
      <stop offset="0" stop-color="#fed2a8"/>
      <stop offset="1" stop-color="#fda551"/>
    </linearGradient>
    <linearGradient id="linear-gradient-25" x1="-33.306" y1="38.901" x2="-34.709" y2="41.55" xlink:href="#linear-gradient-24"/>
    <linearGradient id="linear-gradient-26" x1="-117.683" y1="38.141" x2="-122.553" y2="40.729" xlink:href="#linear-gradient-24"/>
    <linearGradient id="linear-gradient-27" x1="-18.276" y1="21.472" x2="-18.302" y2="22.194" xlink:href="#linear-gradient-24"/>
    <linearGradient id="linear-gradient-28" x1="-25.73" y1="29.956" x2="-25.553" y2="31.698" xlink:href="#linear-gradient-24"/>
    <linearGradient id="linear-gradient-29" x1="-11.064" y1="61.522" x2="-11.513" y2="66.537" xlink:href="#linear-gradient-24"/>
    <linearGradient id="linear-gradient-30" x1="0.87" y1="0.29" x2="-1.197" y2="1.21" xlink:href="#linear-gradient-9"/>
    <linearGradient id="linear-gradient-31" x1="0.683" y1="0.513" x2="-3.576" y2="1.636" xlink:href="#linear-gradient-9"/>
    <linearGradient id="linear-gradient-32" x1="0.5" y1="1.241" x2="0.494" y2="18.031" xlink:href="#linear-gradient-16"/>
    <linearGradient id="linear-gradient-33" x1="0.604" y1="-3.128" x2="0.395" y2="4.184" xlink:href="#linear-gradient-24"/>
    <linearGradient id="linear-gradient-34" x1="3.039" y1="0.23" x2="-7.437" y2="1.41" xlink:href="#linear-gradient-24"/>
    <linearGradient id="linear-gradient-35" x1="0.435" y1="-0.135" x2="0.672" y2="2.253" xlink:href="#linear-gradient-24"/>
    <linearGradient id="linear-gradient-36" x1="1.109" y1="1.421" x2="-0.152" y2="-0.289" xlink:href="#linear-gradient-7"/>
    <linearGradient id="linear-gradient-37" x1="159.49" y1="-169.566" x2="159.069" y2="-168.54" xlink:href="#linear-gradient-8"/>
    <linearGradient id="linear-gradient-38" x1="-792.799" y1="1956.78" x2="-793.182" y2="1958.354" xlink:href="#linear-gradient-8"/>
    <linearGradient id="linear-gradient-39" x1="-361.496" y1="119.654" x2="-364.24" y2="121.169" xlink:href="#linear-gradient-8"/>
    <linearGradient id="linear-gradient-40" x1="1.615" y1="0.674" x2="0.086" y2="0.443" xlink:href="#linear-gradient-7"/>
    <linearGradient id="linear-gradient-41" x1="283.047" y1="-45.152" x2="282.807" y2="-43.717" xlink:href="#linear-gradient-24"/>
    <linearGradient id="linear-gradient-42" x1="2531.296" y1="873.023" x2="2532.406" y2="873.023" xlink:href="#linear-gradient-8"/>
    <linearGradient id="linear-gradient-43" x1="4439.008" y1="1368.932" x2="4438.958" y2="1369.651" xlink:href="#linear-gradient-8"/>
    <linearGradient id="linear-gradient-44" x1="4592.978" y1="1426.568" x2="4592.927" y2="1427.317" xlink:href="#linear-gradient-8"/>
    <linearGradient id="linear-gradient-45" x1="4607.423" y1="1429.695" x2="4607.372" y2="1430.446" xlink:href="#linear-gradient-8"/>
    <linearGradient id="linear-gradient-46" x1="4553.507" y1="1403.615" x2="4553.458" y2="1404.352" xlink:href="#linear-gradient-8"/>
    <linearGradient id="linear-gradient-47" x1="2583.159" y1="872.807" x2="2584.292" y2="872.807" xlink:href="#linear-gradient-8"/>
    <linearGradient id="linear-gradient-48" x1="4437.44" y1="1378.979" x2="4437.392" y2="1379.703" xlink:href="#linear-gradient-8"/>
    <linearGradient id="linear-gradient-49" x1="4474.178" y1="1388.007" x2="4474.129" y2="1388.735" xlink:href="#linear-gradient-8"/>
    <linearGradient id="linear-gradient-50" x1="4537.668" y1="1424.124" x2="4537.618" y2="1424.871" xlink:href="#linear-gradient-8"/>
    <linearGradient id="linear-gradient-51" x1="4723.653" y1="1462.05" x2="4723.601" y2="1462.817" xlink:href="#linear-gradient-8"/>
    <linearGradient id="linear-gradient-52" x1="2639.883" y1="881.319" x2="2641.042" y2="881.319" xlink:href="#linear-gradient-8"/>
    <linearGradient id="linear-gradient-53" x1="4486.965" y1="1390.655" x2="4486.916" y2="1391.384" xlink:href="#linear-gradient-8"/>
    <linearGradient id="linear-gradient-54" x1="4550.925" y1="1418.323" x2="4550.875" y2="1419.068" xlink:href="#linear-gradient-8"/>
    <linearGradient id="linear-gradient-55" x1="4536.119" y1="1418.448" x2="4536.069" y2="1419.192" xlink:href="#linear-gradient-8"/>
    <linearGradient id="linear-gradient-56" x1="4616.129" y1="1434.747" x2="4616.078" y2="1435.5" xlink:href="#linear-gradient-8"/>
    <linearGradient id="linear-gradient-57" x1="2649.302" y1="876.005" x2="2650.465" y2="876.005" xlink:href="#linear-gradient-8"/>
    <linearGradient id="linear-gradient-58" x1="4311.604" y1="1356.976" x2="4311.557" y2="1357.688" xlink:href="#linear-gradient-8"/>
    <linearGradient id="linear-gradient-59" x1="4549.374" y1="1425.267" x2="4549.324" y2="1426.015" xlink:href="#linear-gradient-8"/>
    <linearGradient id="linear-gradient-60" x1="4720.669" y1="1451.682" x2="4720.617" y2="1452.443" xlink:href="#linear-gradient-8"/>
    <linearGradient id="linear-gradient-61" x1="4636.773" y1="1437.031" x2="4636.722" y2="1437.784" xlink:href="#linear-gradient-8"/>
    <linearGradient id="linear-gradient-62" x1="2276.519" y1="4208.987" x2="2277.519" y2="4208.987" xlink:href="#linear-gradient-8"/>
    <linearGradient id="linear-gradient-63" x1="4533.519" y1="1425.793" x2="4533.469" y2="1426.54" xlink:href="#linear-gradient-8"/>
    <linearGradient id="linear-gradient-64" x1="4483.562" y1="1402.616" x2="4483.513" y2="1403.351" xlink:href="#linear-gradient-8"/>
    <linearGradient id="linear-gradient-65" x1="4620.381" y1="1456.802" x2="4620.331" y2="1457.566" xlink:href="#linear-gradient-8"/>
    <linearGradient id="linear-gradient-66" x1="4532.707" y1="1419.831" x2="4532.657" y2="1420.587" xlink:href="#linear-gradient-8"/>
    <linearGradient id="linear-gradient-67" x1="2647.461" y1="877.397" x2="2648.625" y2="877.397" xlink:href="#linear-gradient-8"/>
    <linearGradient id="linear-gradient-68" x1="4531.999" y1="1420.109" x2="4531.949" y2="1420.853" xlink:href="#linear-gradient-8"/>
    <linearGradient id="linear-gradient-69" x1="4611.906" y1="1436.427" x2="4611.855" y2="1437.18" xlink:href="#linear-gradient-8"/>
    <linearGradient id="linear-gradient-70" x1="4545.864" y1="1426.669" x2="4545.814" y2="1427.417" xlink:href="#linear-gradient-8"/>
    <linearGradient id="linear-gradient-71" x1="4430.481" y1="1380.277" x2="4430.432" y2="1381" xlink:href="#linear-gradient-8"/>
    <linearGradient id="linear-gradient-72" x1="2649.069" y1="889.488" x2="2650.234" y2="889.488" xlink:href="#linear-gradient-8"/>
    <linearGradient id="linear-gradient-73" x1="4466.723" y1="1389.625" x2="4466.673" y2="1390.353" xlink:href="#linear-gradient-8"/>
    <linearGradient id="linear-gradient-74" x1="4530.09" y1="1407.173" x2="4530.04" y2="1407.91" xlink:href="#linear-gradient-8"/>
    <linearGradient id="linear-gradient-75" x1="4544.313" y1="1426.097" x2="4544.263" y2="1426.843" xlink:href="#linear-gradient-8"/>
    <linearGradient id="linear-gradient-76" x1="4428.886" y1="1385.787" x2="4428.837" y2="1386.512" xlink:href="#linear-gradient-8"/>
    <linearGradient id="linear-gradient-77" x1="2648.154" y1="884.534" x2="2649.318" y2="884.534" xlink:href="#linear-gradient-8"/>
    <linearGradient id="linear-gradient-78" x1="4543.281" y1="1432.887" x2="4543.231" y2="1433.637" xlink:href="#linear-gradient-8"/>
    <linearGradient id="linear-gradient-79" x1="4531.38" y1="1429.385" x2="4531.331" y2="1430.133" xlink:href="#linear-gradient-8"/>
    <linearGradient id="linear-gradient-80" x1="4539.957" y1="1427.942" x2="4539.907" y2="1428.701" xlink:href="#linear-gradient-8"/>
    <linearGradient id="linear-gradient-81" x1="-26.686" y1="18.471" x2="-28.507" y2="19.704" xlink:href="#linear-gradient-16"/>
    <linearGradient id="linear-gradient-82" x1="-163.284" y1="136.523" x2="-168.784" y2="140.611" xlink:href="#linear-gradient-24"/>
    <linearGradient id="linear-gradient-83" x1="-53.726" y1="1023.463" x2="-51.292" y2="1024.029" xlink:href="#linear-gradient-8"/>
    <linearGradient id="linear-gradient-84" x1="-54.911" y1="99.659" x2="-52.452" y2="99.713" xlink:href="#linear-gradient-8"/>
    <linearGradient id="linear-gradient-85" x1="-87.96" y1="98.898" x2="-89.38" y2="101.543" xlink:href="#linear-gradient-8"/>
    <linearGradient id="linear-gradient-86" x1="0.111" y1="-0.676" x2="0.885" y2="1.286" xlink:href="#linear-gradient-8"/>
    <linearGradient id="linear-gradient-87" x1="-0.518" y1="-1.722" x2="1.473" y2="2.235" xlink:href="#linear-gradient-8"/>
    <linearGradient id="linear-gradient-88" x1="-10.384" y1="37.457" x2="-11.091" y2="39.924" xlink:href="#linear-gradient-16"/>
    <linearGradient id="linear-gradient-89" x1="2.616" y1="-0.106" x2="-1.962" y2="1.205" xlink:href="#linear-gradient-8"/>
    <linearGradient id="linear-gradient-90" x1="-857.584" y1="44.911" x2="-859.193" y2="46.458" xlink:href="#linear-gradient-8"/>
    <linearGradient id="linear-gradient-91" x1="2.917" y1="-0.485" x2="-0.133" y2="0.766" xlink:href="#linear-gradient-7"/>
    <linearGradient id="linear-gradient-92" x1="-971.352" y1="128.299" x2="-973.171" y2="132.698" xlink:href="#linear-gradient-8"/>
    <linearGradient id="linear-gradient-93" x1="0.95" y1="-1.79" x2="0.464" y2="0.682" xlink:href="#linear-gradient-24"/>
    <linearGradient id="linear-gradient-94" x1="0.62" y1="-2.686" x2="0.324" y2="5.191" xlink:href="#linear-gradient-24"/>
    <linearGradient id="linear-gradient-95" x1="0.582" y1="-1.482" x2="0.284" y2="5.715" xlink:href="#linear-gradient-24"/>
    <linearGradient id="linear-gradient-96" x1="0.541" y1="-0.471" x2="0.244" y2="6.557" xlink:href="#linear-gradient-24"/>
  </defs>
  <g id="CF1_200_copia_2" data-name="CF1_200 copia 2" transform="translate(-0.029 0.219)">
    <rect id="Rectángulo_6923" data-name="Rectángulo 6923" width="299.574" height="300" transform="translate(0.029 -0.219)" fill="none"/>
    <path id="Trazado_117744" data-name="Trazado 117744" d="M7.918,75.7a1.092,1.092,0,0,1,2.121-.222c3.783,10.382,14.545,37.336,29.011,50.978,23.55,22.158,40.944,59.841,28.488,80.954C67.49,207.408-9.207,199.178,7.918,75.7Z" transform="translate(4.078 32.876)" fill="url(#linear-gradient)"/>
    <path id="Trazado_117745" data-name="Trazado 117745" d="M9.412,84.889l.222.839.222.886.491,1.757,1.029,3.514c.7,2.342,1.409,4.748,2.152,7,1.488,4.637,3.055,9.275,4.748,13.864,3.324,9.164,6.885,18.248,10.936,27.127,2.042,4.432,4.1,8.847,6.331,13.168s4.574,8.61,7.075,12.788a156.527,156.527,0,0,0,17.061,23.74.269.269,0,0,1,0,.348.237.237,0,0,1-.332,0,123.641,123.641,0,0,1-9.5-11.19c-2.944-3.925-5.65-8.008-8.262-12.155a231.406,231.406,0,0,1-13.643-26.035c-2.026-4.463-3.893-8.99-5.682-13.532s-3.514-9.148-5.08-13.785-3.07-9.29-4.447-13.991c-.681-2.358-1.345-4.748-1.963-7.075-.317-1.187-.633-2.358-.918-3.561l-.522-1.8-.206-.9A2.664,2.664,0,0,1,9,84.92a.243.243,0,0,1,.475-.095Z" transform="translate(6.161 38.802)" fill="#fff" opacity="0.43"/>
    <path id="Trazado_117746" data-name="Trazado 117746" d="M14.563,27.881C28.807,37.52,109.224,96.966,67,182.478c0,0-63.038-25.513-54.7-153.521a1.456,1.456,0,0,1,2.263-1.076Z" transform="translate(7.641 15.745)" fill="url(#linear-gradient-2)"/>
    <path id="Trazado_117747" data-name="Trazado 117747" d="M17.14,38.133c1.693,2.342,3.324,4.748,4.938,7.138s3.165,4.748,4.748,7.265c3.07,4.891,6.046,9.86,8.879,14.893A302.925,302.925,0,0,1,51.089,98.5a201.115,201.115,0,0,1,10.9,32.872c.665,2.833,1.2,5.666,1.693,8.531.111.712.237,1.424.332,2.137l.3,2.152c.174,1.44.348,2.881.475,4.337a93.728,93.728,0,0,1,0,17.41.427.427,0,0,1-.475.4.443.443,0,0,1-.411-.475h0a92.034,92.034,0,0,0,0-17.22c-.111-1.44-.285-2.865-.443-4.289l-.3-2.137c-.095-.712-.222-1.424-.332-2.137q-.7-4.273-1.583-8.483A201.175,201.175,0,0,0,50.5,98.75,308.452,308.452,0,0,0,35.262,67.681q-4.21-7.534-8.816-14.909-2.279-3.688-4.748-7.28c-1.583-2.406-3.165-4.748-4.891-7.138h0a.2.2,0,1,1,.332-.222Z" transform="translate(10.683 16.678)" fill="#fff" opacity="0.43"/>
    <path id="Trazado_117748" data-name="Trazado 117748" d="M137.2,228.962s24.563-109,78.9-168.588a7.233,7.233,0,0,1,12.123,2.691C238.793,97.678,259.906,202.737,137.2,228.962Z" transform="translate(63.436 23.38)" fill="url(#linear-gradient-3)"/>
    <path id="Trazado_117749" data-name="Trazado 117749" d="M144.266,208.908a.3.3,0,0,0,.411.443c11.269-8.214,54.634-48.541,69.306-128.7a.222.222,0,0,0-.427-.095C208.4,99.132,187.125,167.679,144.266,208.908Z" transform="translate(67.497 35.62)" fill="#fff" opacity="0.24"/>
    <path id="Trazado_117750" data-name="Trazado 117750" d="M139.77,164.74s5.1-83.17,45.581-133.4c2.722-3.371,9.306-3.055,11.6.57C212.273,56.183,248.643,131.123,139.77,164.74Z" transform="translate(64.933 16.533)" fill="url(#linear-gradient-4)"/>
    <path id="Trazado_117751" data-name="Trazado 117751" d="M145.561,148.479c-.206.222.19.491.443.285,9.053-7.36,42.543-42.131,43.144-102.875,0-.206-.38-.222-.4,0C186.98,60.133,178.418,113.106,145.561,148.479Z" transform="translate(68.274 20.86)" fill="#fff" opacity="0.5"/>
    <path id="Trazado_117752" data-name="Trazado 117752" d="M154.642,48h11.506a28.488,28.488,0,0,1,28.488,28.488V221.32a13.215,13.215,0,0,1-13.215,13.215H154.515A13.215,13.215,0,0,1,141.3,221.32V61.216A13.215,13.215,0,0,1,154.642,48Z" transform="translate(65.825 18.241)" fill="url(#linear-gradient-5)"/>
    <path id="Trazado_117753" data-name="Trazado 117753" d="M227.251,72.443,43.39,72.9a4.558,4.558,0,0,0-4.226,4.748V224.492a6.774,6.774,0,0,0,6.331,7.154H228.833a92.5,92.5,0,0,0,16.1-1.187c8.357-1.741,9.908-5.7,9.338-11.38l-.111-160.485c0-.554-.412-2.928-.507-2.374-1.045,5.666-5.919,14.434-26.273,16.223Z" transform="translate(6.305 22.251)" fill="url(#linear-gradient-6)"/>
    <path id="Trazado_117754" data-name="Trazado 117754" d="M253.319,220.785a7.74,7.74,0,0,1-2.437,3.529,12.251,12.251,0,0,1-3.783,2.073,26.907,26.907,0,0,1-4.163,1.092c-1.409.253-2.833.427-4.273.554-2.849.253-5.714.332-8.578.332H46.462a6.448,6.448,0,0,1-1.092-.142,6.331,6.331,0,0,1-3.624-2.374,6.014,6.014,0,0,1-.95-1.978,4.969,4.969,0,0,1-.206-1.076V80.005a7.486,7.486,0,0,1,1.393-4.131,7.391,7.391,0,0,1,3.45-2.643,7.8,7.8,0,0,1,2.137-.459H88.387l137.472-.142h0a74.217,74.217,0,0,0,8.167-1,43.9,43.9,0,0,0,7.913-2.184,25.578,25.578,0,0,0,3.688-1.788,18.991,18.991,0,0,0,3.276-2.437l.364-.348.348-.364c.237-.253.475-.506.681-.776a17.409,17.409,0,0,0,1.187-1.583l.506-.886c.158-.317.317-.617.443-.934a18.467,18.467,0,0,0,.744-1.915.142.142,0,0,1,.206.127,16.7,16.7,0,0,1-1.662,3.814,12.66,12.66,0,0,1-1.187,1.709c-.206.269-.443.538-.665.791l-.364.38-.364.364a18.99,18.99,0,0,1-3.324,2.516,27.14,27.14,0,0,1-3.719,1.852,43.254,43.254,0,0,1-7.913,2.247,75.284,75.284,0,0,1-8.2,1.013h0L88.5,73.326H47.57a7.454,7.454,0,0,0-2.058.269,7.17,7.17,0,0,0-3.26,2.5,6.98,6.98,0,0,0-1.314,3.909V222.811a5.619,5.619,0,0,0,.19,1.029,5.84,5.84,0,0,0,.9,1.868,5.761,5.761,0,0,0,3.419,2.232,5.555,5.555,0,0,0,1.029.142H230.133a77.42,77.42,0,0,0,8.562-.317c1.424-.127,2.849-.3,4.257-.554a25.956,25.956,0,0,0,4.131-1.076,12.518,12.518,0,0,0,3.719-2.042,7.5,7.5,0,0,0,2.39-3.45.079.079,0,0,1,.111,0,.095.095,0,0,1,.016.142Z" transform="translate(7.143 23.56)" fill="#fff"/>
    <path id="Trazado_117755" data-name="Trazado 117755" d="M142.7,199.552H96.2V78.54h46.5Zm-46.009-.506h45.5V79.031h-45.5Z" transform="translate(47.122 35.219)" fill="#fff"/>
    <path id="Trazado_117756" data-name="Trazado 117756" d="M145.086,79.031H91.907a.253.253,0,0,1-.237-.253.237.237,0,0,1,.237-.237h53.178a.245.245,0,1,1,0,.491Z" transform="translate(44.688 39.111)" fill="#fff"/>
    <path id="Trazado_117757" data-name="Trazado 117757" d="M96.437,202.021a.237.237,0,0,1-.237-.237V78.777a.237.237,0,0,1,.237-.237.253.253,0,0,1,.253.237V201.784A.253.253,0,0,1,96.437,202.021Z" transform="translate(48.551 35.089)" fill="#fff"/>
    <path id="Trazado_117758" data-name="Trazado 117758" d="M93.647,194.537a.253.253,0,0,1-.237-.253V78.747a.237.237,0,0,1,.237-.237.253.253,0,0,1,.253.237V194.284A.253.253,0,0,1,93.647,194.537Z" transform="translate(47.169 35.46)" fill="#fff"/>
    <path id="Trazado_117759" data-name="Trazado 117759" d="M99.065,152.006H91.943a.253.253,0,0,1,0-.506h7.122a.253.253,0,1,1,0,.506Z" transform="translate(46.131 75.768)" fill="#fff"/>
    <path id="Trazado_117760" data-name="Trazado 117760" d="M142.446,120.181H96.437a.237.237,0,0,1-.237-.237.253.253,0,0,1,.237-.253h46.009a.245.245,0,1,1,0,.491Z" transform="translate(47.122 59.786)" fill="#fff"/>
    <ellipse id="Elipse_4588" data-name="Elipse 4588" cx="0.807" cy="0.807" rx="0.807" ry="0.807" transform="translate(139.981 117.268)" fill="#fff"/>
    <path id="Trazado_117761" data-name="Trazado 117761" d="M94.674,152.046a.823.823,0,1,1-.316-.9A.823.823,0,0,1,94.674,152.046Z" transform="translate(46.965 75.471)" fill="#fff"/>
    <ellipse id="Elipse_4589" data-name="Elipse 4589" cx="0.807" cy="0.807" rx="0.807" ry="0.807" transform="translate(144.183 231.461)" fill="#fff"/>
    <ellipse id="Elipse_4590" data-name="Elipse 4590" cx="0.807" cy="0.807" rx="0.807" ry="0.807" transform="translate(187.653 231.461)" fill="#fff"/>
    <path id="Trazado_117762" data-name="Trazado 117762" d="M110.308,157.463a1.092,1.092,0,0,1-.19.649.981.981,0,0,1-.554.364h0a.87.87,0,0,1,.823.965,1.234,1.234,0,0,1-.348.918,1.393,1.393,0,0,1-.981.332,2.027,2.027,0,0,1-.918-.19v-.7a1.2,1.2,0,0,0,.412.174,1.3,1.3,0,0,0,.411,0,.728.728,0,0,0,.491-.142.649.649,0,0,0,.174-.475c0-.427-.253-.633-.76-.633h-.237v-.57h.222a.76.76,0,0,0,.522-.158.617.617,0,0,0,.174-.475.506.506,0,0,0-.111-.364.4.4,0,0,0-.332-.127.965.965,0,0,0-.617.269l-.348-.507a1.424,1.424,0,0,1,1.06-.427,1.156,1.156,0,0,1,.807.269.918.918,0,0,1,.3.823Z" transform="translate(54.417 78.06)" fill="#fff"/>
    <path id="Trazado_117763" data-name="Trazado 117763" d="M109.856,158.893a3.4,3.4,0,0,1,.4-1.836,1.345,1.345,0,0,1,1.2-.586h.411v.633a1.582,1.582,0,0,0-.38,0,.934.934,0,0,0-.538.142.871.871,0,0,0-.3.427,2.357,2.357,0,0,0-.142.791h0a.839.839,0,0,1,.285-.364.649.649,0,0,1,.4-.111.76.76,0,0,1,.649.332,1.82,1.82,0,0,1,.222.965,1.583,1.583,0,0,1-.3,1.045,1,1,0,0,1-.823.38.966.966,0,0,1-.855-.459,2.6,2.6,0,0,1-.222-1.361Zm1.14,1.171a.3.3,0,0,0,.269-.19,1.124,1.124,0,0,0,.111-.586,1.044,1.044,0,0,0-.095-.491.3.3,0,0,0-.554-.016.855.855,0,0,0-.095.427,1.582,1.582,0,0,0,.095.633.317.317,0,0,0,.269.174Z" transform="translate(55.26 78.113)" fill="#fff"/>
    <path id="Trazado_117764" data-name="Trazado 117764" d="M92.536,122.258a1.092,1.092,0,0,1-1-.776h0a.934.934,0,0,1-.855.57,1.06,1.06,0,0,1-.981-1.187.971.971,0,0,1,.965-1.076.95.95,0,0,1,.855.649h0a1.029,1.029,0,0,1,1-.728,1.3,1.3,0,0,1,.016,2.548Zm-1.9-.681c.38,0,.586-.253.712-.7a.744.744,0,0,0-.665-.586.586.586,0,0,0-.633.617.6.6,0,0,0,.586.665Zm1.931-1.345c-.459,0-.7.3-.855.807a.807.807,0,0,0,.76.7.76.76,0,0,0,.095-1.5Z" transform="translate(45.242 59.733)" fill="#fff"/>
    <path id="Trazado_117765" data-name="Trazado 117765" d="M92.586,120.388a1.108,1.108,0,0,1-1-.776h0a.918.918,0,0,1-.855.57A1.06,1.06,0,0,1,89.753,119a1,1,0,0,1,.965-1.076.95.95,0,0,1,.855.649h0a1.045,1.045,0,0,1,1-.728,1.155,1.155,0,0,1,1.06,1.314,1.124,1.124,0,0,1-1.045,1.234Zm-1.9-.681c.38,0,.586-.269.712-.7a.744.744,0,0,0-.665-.6.6.6,0,0,0-.633.617.617.617,0,0,0,.586.649Zm1.931-1.345c-.459,0-.7.285-.855.791a.855.855,0,0,0,.76.712.712.712,0,0,0,.744-.744.665.665,0,0,0-.649-.76Z" transform="translate(45.267 58.795)" fill="#fff"/>
    <path id="Trazado_117766" data-name="Trazado 117766" d="M100.669,175.456H54.17V119.54h46.5Zm-46.009-.491h45.518V120.031H54.661Z" transform="translate(26.91 57.668)" fill="#fff"/>
    <path id="Trazado_117767" data-name="Trazado 117767" d="M54.423,199.417a.253.253,0,0,1-.253-.237V78.673a.245.245,0,1,1,.491,0V199.179a.237.237,0,0,1-.237.237Z" transform="translate(27.719 35.166)" fill="#fff"/>
    <path id="Trazado_117768" data-name="Trazado 117768" d="M51.667,170.433a.237.237,0,0,1-.237-.237V119.55h50.646a.245.245,0,1,1,0,.491H51.921v50.171a.253.253,0,0,1-.253.222Z" transform="translate(25.505 57.893)" fill="#fff"/>
    <path id="Trazado_117769" data-name="Trazado 117769" d="M56.474,151.881H50.9a.245.245,0,1,1,0-.491h5.571a.253.253,0,0,1,.237.253.237.237,0,0,1-.237.237Z" transform="translate(25.894 75.713)" fill="#fff"/>
    <path id="Trazado_117770" data-name="Trazado 117770" d="M55.656,155.023a.823.823,0,1,1-.807-.823.807.807,0,0,1,.807.823Z" transform="translate(27.622 77.079)" fill="#fff"/>
    <ellipse id="Elipse_4591" data-name="Elipse 4591" cx="0.807" cy="0.807" rx="0.807" ry="0.807" transform="translate(124.803 230.98)" fill="#fff"/>
    <path id="Trazado_117771" data-name="Trazado 117771" d="M52.706,119.987a.823.823,0,1,1-.823-.807.823.823,0,0,1,.823.807Z" transform="translate(26.161 59.495)" fill="#fff"/>
    <path id="Trazado_117772" data-name="Trazado 117772" d="M52.706,151.853a.823.823,0,1,1-.823-.823.807.807,0,0,1,.823.823Z" transform="translate(26.161 75.488)" fill="#fff"/>
    <path id="Trazado_117773" data-name="Trazado 117773" d="M70.391,159.27h-.427v.87h-.712v-.87H67.89v-.617l1.25-2.643h.823v2.627h.427Zm-1.14-.633v-1.583h0a3.705,3.705,0,0,1-.206.554l-.506,1.076Z" transform="translate(34.481 77.888)" fill="#fff"/>
    <path id="Trazado_117774" data-name="Trazado 117774" d="M71.471,160.112h-.76v-3.339l-.142.174-.411.6-.427-.475,1.092-1.013h.7Z" transform="translate(35.406 77.917)" fill="#fff"/>
    <path id="Trazado_117775" data-name="Trazado 117775" d="M51.86,138.267H50.831v1.741H50.5l-2.469-1.583v-.538l2.342-.095v-.522h.4v.538H51.8Zm-1.424,0H48.584l.57.285,1.314.886h0Z" transform="translate(24.63 68.54)" fill="#fff"/>
    <path id="Trazado_117776" data-name="Trazado 117776" d="M48.351,135.889a3.676,3.676,0,0,0,0,.38,1.583,1.583,0,0,0,1.393,1.266h0a1.108,1.108,0,0,1-.475-.886,1.14,1.14,0,0,1,1.187-1.187,1.266,1.266,0,0,1,1.361,1.2c0,.807-.57,1.361-1.583,1.393a2.326,2.326,0,0,1-1.725-.586A1.978,1.978,0,0,1,48,136.316a2.042,2.042,0,0,1,0-.38Zm2.184.079a.76.76,0,0,0-.839.807.839.839,0,0,0,.491.712.412.412,0,0,0,.222,0c.617,0,1.06-.332,1.045-.87S51.074,135.952,50.536,135.968Z" transform="translate(24.613 67.635)" fill="#fff"/>
    <path id="Trazado_117777" data-name="Trazado 117777" d="M51.323,135.55a9,9,0,0,0-1.393-.3v-.57a7.673,7.673,0,0,1,1.424.506Z" transform="translate(25.604 67.305)" fill="#fff"/>
    <path id="Trazado_117778" data-name="Trazado 117778" d="M48.333,133.058v1.424l.981.111a1.328,1.328,0,0,1,0-.3,1.456,1.456,0,0,1,.174-.823,1.076,1.076,0,0,1,.95-.57,1.314,1.314,0,0,1,1.329,1.361,1.836,1.836,0,0,1-.206.95l-.4-.111a1.583,1.583,0,0,0,.19-.823.839.839,0,0,0-.855-.855c-.475,0-.823.348-.791,1.108a3.925,3.925,0,0,0,0,.522l-1.82-.19v-1.788Z" transform="translate(24.56 66.361)" fill="#fff"/>
    <path id="Trazado_117779" data-name="Trazado 117779" d="M138.694,172.944h0l-4.321-.095a.966.966,0,0,1-.712-.317,1.013,1.013,0,0,1-.3-.712l.538-42.02h6.442l-.538,42.02a1.013,1.013,0,0,1-1.108,1.124Zm0-.491a.538.538,0,0,0,.538-.522l.522-41.514H134.31l-.522,41.514a.57.57,0,0,0,.142.38.507.507,0,0,0,.364.142Z" transform="translate(66.727 63.238)" fill="#fff"/>
    <path id="Trazado_117780" data-name="Trazado 117780" d="M161.837,173.457h-4.384a1.029,1.029,0,0,1-1.013-1.029l.538-42.558,6.442.095-.538,42.543A1.045,1.045,0,0,1,161.837,173.457Zm0-.506a.506.506,0,0,0,.522-.507l.538-42.052h-5.444l-.538,42.052a.538.538,0,0,0,.522.538Z" transform="translate(78.125 63.253)" fill="#fff"/>
    <path id="Trazado_117781" data-name="Trazado 117781" d="M163.188,138.486H142.455L140,89.787a7.233,7.233,0,0,1,2.295-5.524,14.387,14.387,0,0,1,10.715-3.751h.538c6.473.4,11.411,4.4,11.253,9.116ZM142.929,138h19.784L164.3,89.629c.142-4.447-4.59-8.214-10.794-8.594h-.522a13.943,13.943,0,0,0-10.351,3.609,6.758,6.758,0,0,0-2.152,5.144Z" transform="translate(69.244 38.647)" fill="#fff"/>
    <path id="Trazado_117782" data-name="Trazado 117782" d="M169.745,143.436H164.87v-.206L166.453,87.6c.142-5.1-4.59-9.5-10.794-9.86h-.522a13.01,13.01,0,0,0-9.8,3.5,8.61,8.61,0,0,0-2.675,6.473l2.453,55.726h-5.286l-3.561-60.142a7.914,7.914,0,0,1,2.516-6.03c3.387-3.482,9.718-5.539,16.3-5.255h.776c9.338.491,16.492,5.413,16.254,11.19Zm-4.368-.491h3.893l2.358-59.857c.222-5.508-6.711-10.193-15.827-10.667h-.76c-6.489-.206-12.661,1.788-15.922,5.207a7.5,7.5,0,0,0-2.374,5.65l3.529,59.652h4.3l-2.406-55.2a9.069,9.069,0,0,1,2.817-6.837A13.485,13.485,0,0,1,155.2,77.169h.522c6.473.459,11.411,5.017,11.253,10.382Z" transform="translate(66.916 34.143)" fill="#fff"/>
    <path id="Trazado_117783" data-name="Trazado 117783" d="M176.654,131.044H133.7V128.67h42.954Zm-42.479-.491h41.957v-1.361H134.175Z" transform="translate(65.331 64.236)" fill="#fff"/>
    <path id="Trazado_117784" data-name="Trazado 117784" d="M130.6,131.038l-.38-.317a145.873,145.873,0,0,1,10.193-10.667l3.165-3.165.079-.079h29.66v.095c3.5,4.606,6.521,8.7,9.86,13.817l-.411.269c-3.308-5.049-6.331-9.132-9.765-13.69H143.894c-1.029,1.045-2.1,2.089-3.165,3.165A144.711,144.711,0,0,0,130.6,131.038Z" transform="translate(63.156 57.913)" fill="#fff"/>
    <path id="Trazado_117785" data-name="Trazado 117785" d="M182.415,131.267H131.263a1.583,1.583,0,0,1-1.583-1.583v-2.216a2.358,2.358,0,0,1,2.342-2.358H182.1a2.263,2.263,0,0,1,2.263,2.263v1.947A1.947,1.947,0,0,1,182.415,131.267ZM132.022,125.6a1.868,1.868,0,0,0-1.852,1.868v2.216a1.092,1.092,0,0,0,1.076,1.092h51.168a1.456,1.456,0,0,0,1.456-1.456v-1.947A1.773,1.773,0,0,0,182.1,125.6Z" transform="translate(62.809 62.326)" fill="#fff"/>
    <path id="Trazado_117786" data-name="Trazado 117786" d="M64.637,177.81c-3.339.285-9.132.76-13.706.965a13.39,13.39,0,0,1-5.239-.522,1.821,1.821,0,0,0,0,.3.934.934,0,0,0,.886.886,159.712,159.712,0,0,0,17.948,0,.681.681,0,0,0,.554-1.013A5.3,5.3,0,0,0,64.637,177.81Z" transform="translate(23.257 87.251)" fill="url(#linear-gradient-7)"/>
    <path id="Trazado_117787" data-name="Trazado 117787" d="M50.929,181.258c4.574-.206,10.367-.681,13.706-.965-3.276-4.02-13.706-6.742-13.706-6.742H47.985a12.361,12.361,0,0,0-2.295,7.185,13.39,13.39,0,0,0,5.239.522Z" transform="translate(23.267 84.769)" fill="url(#linear-gradient-8)"/>
    <path id="Trazado_117788" data-name="Trazado 117788" d="M46.83,170.52l.269,5.508a1.266,1.266,0,0,0,1.06,1.171,4.843,4.843,0,0,0,2.216-.19,1.472,1.472,0,0,0,1-1.124l.95-5.3Z" transform="translate(24.014 83.004)" fill="url(#linear-gradient-9)"/>
    <path id="Trazado_117789" data-name="Trazado 117789" d="M26.143,182.613a2.849,2.849,0,0,1-2.374-2.263h0a2.612,2.612,0,0,0,1.266,2.786,6.742,6.742,0,0,0,3.514.712,3.165,3.165,0,0,0,2.627-1.583h0a6.948,6.948,0,0,1-5.033.348Z" transform="translate(14.737 88.731)" fill="url(#linear-gradient-10)"/>
    <path id="Trazado_117790" data-name="Trazado 117790" d="M32.963,171.58H30.494c-3.7-.111-6.014,9.971-6.774,13.88a2.849,2.849,0,0,0,2.374,2.263,6.948,6.948,0,0,0,5.033-.332,35.626,35.626,0,0,0,3.466-11.285A4.21,4.21,0,0,0,32.963,171.58Z" transform="translate(14.739 83.621)" fill="url(#linear-gradient-11)"/>
    <path id="Trazado_117791" data-name="Trazado 117791" d="M28.725,168.38l-1.345,5.365a1.472,1.472,0,0,0,.76,1.583,5.318,5.318,0,0,0,2.786.681,1.219,1.219,0,0,0,1-.823l1.978-5.634Z" transform="translate(16.855 81.757)" fill="url(#linear-gradient-12)"/>
    <path id="Trazado_117792" data-name="Trazado 117792" d="M76.022,124.374s-12.044,75.273-11.854,75.684a9.939,9.939,0,0,1-6.948.19s1.092-40.232,3.64-55.663c0,0-20.575,35.959-27.08,53.811a16.4,16.4,0,0,1-6.22-2.263s22.158-64.748,28.029-73.373Z" transform="translate(16.976 55.174)" fill="url(#linear-gradient-13)"/>
    <path id="Trazado_117793" data-name="Trazado 117793" d="M48.962,139.153h-.095a.158.158,0,0,1,0-.222l4.495-7.185a.19.19,0,0,1,.111,0l3.308-.665a.174.174,0,0,1,.206.127.158.158,0,0,1-.142.19l-3.165.665L49.1,139.074a.142.142,0,0,1-.142.079Z" transform="translate(24.961 65.249)" fill="url(#linear-gradient-14)"/>
    <path id="Trazado_117794" data-name="Trazado 117794" d="M104.055,77.2a80.571,80.571,0,0,0-13.073,4.067A4.606,4.606,0,0,0,88.766,83.5C87.294,86.664,82.878,94.847,74.3,98.725A23.741,23.741,0,0,1,78.383,109.5c5.16-3.83,9.607-10.224,11.728-20.733a4.194,4.194,0,0,0,3.656-.095,37.049,37.049,0,0,0,3.244-1.852,4.242,4.242,0,0,0,1.883-2.516,14.956,14.956,0,0,0,.142-3.925l4.178-1.282a1.488,1.488,0,0,0,.839-1.9Z" transform="translate(37.031 37.744)" fill="url(#linear-gradient-15)"/>
    <path id="Trazado_117795" data-name="Trazado 117795" d="M102.625,101.79a23.74,23.74,0,0,0-4.083-10.778c-5.334,2.406-12.266,3.165-21.1.127a9.117,9.117,0,0,0-2.516-.506c-4.7-.269-18.011-.886-30.672,3.371a14.687,14.687,0,0,0-7.328,6.821c-3.466,7.913-9.322,21.984,4.59,31.939a25.18,25.18,0,0,1,3.577-5.872c-2.516-4.226-2.168-9.243,2.295-16.776,3.245,8.768,4.748,21.556,5.08,27.222a12.171,12.171,0,0,1-.95,5.444l-.079.19a.633.633,0,0,0,.443.87,73.863,73.863,0,0,0,20.575,1.219,1.124,1.124,0,0,0,1-.87c4.273-17.964,4.273-30.214,3.165-37.985C80.657,107.155,92.923,109.023,102.625,101.79Z" transform="translate(16.263 43.579)" fill="#dad5ed"/>
    <path id="Trazado_117796" data-name="Trazado 117796" d="M61.769,104.756a.127.127,0,0,1-.142-.127C60.614,97,58.557,93.677,58.462,93.646a.158.158,0,0,1,0-.19.127.127,0,0,1,.19,0s2.121,3.4,3.165,11.079a.142.142,0,0,1-.111.158Z" transform="translate(29.783 46.317)" fill="url(#linear-gradient-16)"/>
    <path id="Trazado_117797" data-name="Trazado 117797" d="M47.456,84s-.886,9.385-1.583,12.155a.934.934,0,0,0,.443,1.076,9.18,9.18,0,0,0,8.847-.127,1.994,1.994,0,0,0,1.108-1.868l-.4-9.053Z" transform="translate(23.457 41.546)" fill="url(#linear-gradient-17)"/>
    <path id="Trazado_117798" data-name="Trazado 117798" d="M56.439,76.37s2.849,6.521,3.039,9.939.918,5.634-3.039,6.331a8.4,8.4,0,0,1-9.085-4.748s-2.833-5.191-2.2-7.36S56.439,76.37,56.439,76.37Z" transform="translate(23.019 37.696)" fill="url(#linear-gradient-18)"/>
    <path id="Trazado_117799" data-name="Trazado 117799" d="M50.591,88.122l.237-.111a.538.538,0,0,0,.253-.744c-.554-1.076-1.583-3.545-.237-4.115,1.82-.744,8.99-2.216,10.525-4.748a4.748,4.748,0,0,0-1.852-6.5.285.285,0,0,0-.364.111l-.158.317a.269.269,0,0,1-.491,0,.269.269,0,0,0-.491,0c-.475.76-1.757,1.994-5.191,2.627-4.875.9-8.1,2.88-8.182,6.331a.269.269,0,0,1-.427.222c-.348-.222-.934-.317-1.709.332-1.329,1.124-.791,4.052,2.152,6.457a.253.253,0,0,1,0,.427c-.522.348-1.329,1.171.728,2.263a7,7,0,0,0,4.337.95.269.269,0,0,0,.222-.332l-.665-2.96a.269.269,0,0,1,.269-.317Z" transform="translate(21.351 35.38)" fill="url(#linear-gradient-19)"/>
    <path id="Trazado_117800" data-name="Trazado 117800" d="M48.751,83.708s-1.076-4.162-2.944-2.991.965,4.748,2.469,4.748Z" transform="translate(23.229 40.008)" fill="url(#linear-gradient-20)"/>
    <path id="Trazado_117801" data-name="Trazado 117801" d="M86,86.043h-.095a.158.158,0,0,1,0-.222,30.452,30.452,0,0,1,4.036-4.257c.443-.253.681-.506.744-.775a.775.775,0,0,0-.127-.586l-3.387.681-1.852,1.583a.174.174,0,0,1-.222-.253l1.883-1.583h0l3.545-.712a.19.19,0,0,1,.174,0,1.25,1.25,0,0,1,.237.95,1.678,1.678,0,0,1-.918.981,32.54,32.54,0,0,0-3.941,4.178.189.189,0,0,1-.079.016Z" transform="translate(42.906 39.676)" fill="#f8a570"/>
    <path id="Trazado_117802" data-name="Trazado 117802" d="M43.014,92.241l5.935,13.184L53,104.158,46.433,91.5a.475.475,0,0,0-.522-.253l-2.627.475a.364.364,0,0,0-.269.522Z" transform="translate(22.052 45.157)" fill="url(#linear-gradient-21)"/>
    <path id="Trazado_117803" data-name="Trazado 117803" d="M60.927,102.32,57.7,90.45l-3.419.016L57.9,102.32Z" transform="translate(27.679 44.824)" fill="url(#linear-gradient-22)"/>
    <path id="Trazado_117804" data-name="Trazado 117804" d="M57.734,100.258a73.706,73.706,0,0,0,17.046-2.944.427.427,0,0,1,.491.237l3.514,8.863a103.048,103.048,0,0,1-3.656,33.775c-2.754,18.992-4.637,36.972-7.818,52.419a.87.87,0,0,1-.855.76c-19.388.506-31.163-1.583-36.133-5.049a.95.95,0,0,1-.269-1.282c5.9-10.208,21.018-47.781,23.234-50.14l-2.611-25.212a41.782,41.782,0,0,0,6.283-10.857.839.839,0,0,1,.776-.57Z" transform="translate(15.214 45.143)" fill="url(#linear-gradient-23)"/>
    <rect id="Rectángulo_6924" data-name="Rectángulo 6924" width="40.802" height="6.267" transform="translate(83.343 148.888) rotate(18.61)" fill="url(#linear-gradient-24)"/>
    <path id="Trazado_117805" data-name="Trazado 117805" d="M50.72,134.339l-2.9-.981a.776.776,0,0,1-.491-.965L59.156,97.32l4.352,1.472L51.7,133.848A.791.791,0,0,1,50.72,134.339Z" transform="translate(24.095 47.524)" fill="url(#linear-gradient-25)"/>
    <path id="Trazado_117806" data-name="Trazado 117806" d="M0,0H4.637V36.117A1.583,1.583,0,0,1,3.055,37.7H1.947A1.947,1.947,0,0,1,0,35.753Z" transform="translate(119.292 156.897) rotate(18.61)" fill="url(#linear-gradient-26)"/>
    <path id="Trazado_117807" data-name="Trazado 117807" d="M93,73.945,76.71,131.982l7.075,2.39a1.456,1.456,0,0,0,1.852-.76l21.145-55C109.931,67.108,96.794,64.465,93,73.945Zm-8.641,55.79a1.108,1.108,0,0,1-1.3.776l-4.637-1.583L93.344,78.139c3.26-8.372,12-7,9.069,3.055Z" transform="translate(38.186 32.462)" fill="url(#linear-gradient-27)"/>
    <path id="Trazado_117808" data-name="Trazado 117808" d="M82.8,124.423,78.16,122.84,90.568,79.712c2.77-7.075,11.427-5.492,9.021,3.055L84.032,123.821a.981.981,0,0,1-1.234.6Z" transform="translate(39.115 36.358)" fill="url(#linear-gradient-28)"/>
    <path id="Trazado_117809" data-name="Trazado 117809" d="M98,118.911l-45.692-15.4a1.235,1.235,0,0,1-.776-1.583l.174-.554A9.227,9.227,0,0,1,63.39,95.6L93.62,105.775a9.5,9.5,0,0,1,5.919,11.949l-.19.538a1,1,0,0,1-1.345.649Z" transform="translate(25.569 46.828)" fill="url(#linear-gradient-29)"/>
    <path id="Trazado_117810" data-name="Trazado 117810" d="M53.068,121.668l6.821-2.327c-.839-.111-1.693-.222-2.532-.3s-1.424-.142-2.137-.174-1.282,0-1.029-.95a3.324,3.324,0,0,1,.617-1.282,4.97,4.97,0,0,0-1.883.791l-.459.364a3.039,3.039,0,0,1-2.706.332c-.791-.285-1.583-.6-2.342-.95a23.549,23.549,0,0,1-5.571-3.7,6.948,6.948,0,0,0-3.577,5.872A27.317,27.317,0,0,0,53.068,121.668Z" transform="translate(19.596 56.427)" fill="url(#linear-gradient-30)"/>
    <path id="Trazado_117811" data-name="Trazado 117811" d="M46,118.831c.111,0,.348.823.427.95a4.162,4.162,0,0,0,1.678,1.583,6.489,6.489,0,0,0,7.629-2.295,5.239,5.239,0,0,0,.76-2.659c0-1.029-.87-2.327-1.409-.775a2.105,2.105,0,0,1-1.029,1,12.013,12.013,0,0,1-4.384,1.488C48.6,118.324,47.14,119.274,46,118.831Z" transform="translate(23.537 57.198)" fill="url(#linear-gradient-31)"/>
    <rect id="Rectángulo_6925" data-name="Rectángulo 6925" width="134.291" height="8.61" transform="translate(58.388 243.442)" fill="#241753"/>
    <rect id="Rectángulo_6926" data-name="Rectángulo 6926" width="5.919" height="62.453" transform="translate(60.917 206.676)" fill="#241753"/>
    <rect id="Rectángulo_6927" data-name="Rectángulo 6927" width="5.919" height="62.453" transform="translate(183.557 206.676)" fill="#241753"/>
    <rect id="Rectángulo_6928" data-name="Rectángulo 6928" width="135.937" height="13.39" transform="translate(58.232 204.55)" fill="#241753"/>
    <rect id="Rectángulo_6929" data-name="Rectángulo 6929" width="144.99" height="8.151" rx="2.02" transform="translate(55.276 197.663)" fill="url(#linear-gradient-32)"/>
    <rect id="Rectángulo_6930" data-name="Rectángulo 6930" width="53.052" height="4.21" transform="translate(140.712 155.503)" fill="url(#linear-gradient-33)"/>
    <path id="Trazado_117812" data-name="Trazado 117812" d="M95.865,103.35h.712a1.2,1.2,0,0,1,1.2,1.2v18.676H94.52V104.7A1.345,1.345,0,0,1,95.865,103.35Z" transform="translate(47.646 51.034)" fill="url(#linear-gradient-34)"/>
    <path id="Trazado_117813" data-name="Trazado 117813" d="M127.6,103.35h.712a1.472,1.472,0,0,1,1.472,1.472v18.422H126.51V104.379a1.092,1.092,0,0,1,1.092-1.029Z" transform="translate(63.477 51.033)" fill="url(#linear-gradient-35)"/>
    <path id="Trazado_117814" data-name="Trazado 117814" d="M127.765,126.673l-12.994,8.8L103.55,88.8l3.213-1.709Z" transform="translate(51.462 42.157)" fill="url(#linear-gradient-36)"/>
    <path id="Trazado_117815" data-name="Trazado 117815" d="M114.645,134.476,103.55,88.356l.95-.506,12,48.082Z" transform="translate(51.824 42.538)" fill="#fff" opacity="0.37"/>
    <path id="Trazado_117816" data-name="Trazado 117816" d="M116.1,111.1a.649.649,0,0,0-.506.285c-.965,1.583-5.634,8.863-5.508,9.116l5.27,11.775a.712.712,0,0,0,1.092.206l7.692-5.808a.633.633,0,0,1,.317-.142l5.508-1.2a.728.728,0,0,0,.554-1.013L123.6,111.27a48.872,48.872,0,0,0-7.5-.174ZM126.462,122.9a.589.589,0,0,1-.427.475l-3.165,1.124-.19.095-5,3.26c-.237.158-.538.174-.586,0l-1.3-3.355a1.092,1.092,0,0,1,.411-1.314c1.314-.886,4.1-2.738,6.331-4.162a1.187,1.187,0,0,1,1.583.348Z" transform="translate(54.782 54.794)" fill="url(#linear-gradient-37)"/>
    <rect id="Rectángulo_6931" data-name="Rectángulo 6931" width="1.82" height="1.82" rx="0.45" transform="matrix(0.919, 0.394, -0.394, 0.919, 189.768, 158.3)" fill="url(#linear-gradient-38)"/>
    <rect id="Rectángulo_6932" data-name="Rectángulo 6932" width="3.957" height="29.739" transform="matrix(0.919, 0.394, -0.394, 0.919, 187.86, 160.809)" fill="url(#linear-gradient-39)"/>
    <path id="Trazado_117817" data-name="Trazado 117817" d="M133.587,109.035l-8.7-3.735-1.472,3.434,8.7,3.719,4.115.174.285-.665Z" transform="translate(61.591 52.369)" fill="url(#linear-gradient-40)"/>
    <rect id="Rectángulo_6933" data-name="Rectángulo 6933" width="8.024" height="44.157" rx="0.42" transform="matrix(0.846, -0.533, 0.533, 0.846, 142.933, 142.264)" fill="url(#linear-gradient-41)"/>
    <path id="Trazado_117818" data-name="Trazado 117818" d="M101.029,93.691l-4.463,2.817a.427.427,0,0,0-.127.554l22.268,35.357a.681.681,0,0,0,.934.237l4.02-2.516a.7.7,0,0,0,.19-.95L101.583,93.818a.411.411,0,0,0-.554-.127Z" transform="translate(47.856 45.647)" fill="#fff" opacity="0.14"/>
    <path id="Trazado_117819" data-name="Trazado 117819" d="M101.233,93.64a.206.206,0,0,1,0,.285l-3.007,1.868a.206.206,0,0,1-.285,0h0a.206.206,0,0,1,0-.285l2.849-1.788a.206.206,0,0,1,.285,0Z" transform="translate(49.307 46.657)" fill="url(#linear-gradient-42)"/>
    <path id="Trazado_117820" data-name="Trazado 117820" d="M100.994,94.222a.237.237,0,0,1-.079.317l-1.456.918a.224.224,0,0,1-.317-.317l1.456-.9a.222.222,0,0,1,.4-.016Z" transform="translate(49.94 46.911)" fill="url(#linear-gradient-43)"/>
    <path id="Trazado_117821" data-name="Trazado 117821" d="M101.3,94.759a.222.222,0,0,1,0,.317l-1.456.918a.228.228,0,0,1-.253-.38l1.456-.918a.222.222,0,0,1,.253.063Z" transform="translate(50.142 47.2)" fill="url(#linear-gradient-44)"/>
    <path id="Trazado_117822" data-name="Trazado 117822" d="M101.667,95.308a.237.237,0,0,1,0,.317l-1.456.918a.228.228,0,1,1-.253-.38l1.456-.918A.237.237,0,0,1,101.667,95.308Z" transform="translate(50.325 47.477)" fill="url(#linear-gradient-45)"/>
    <path id="Trazado_117823" data-name="Trazado 117823" d="M102,95.88a.237.237,0,0,1,0,.317l-1.456.918a.261.261,0,0,1-.317-.4l1.456-.918a.237.237,0,0,1,.317.079Z" transform="translate(50.481 47.747)" fill="url(#linear-gradient-46)"/>
    <path id="Trazado_117824" data-name="Trazado 117824" d="M103.045,96.64a.206.206,0,0,1,0,.3l-2.912,1.852a.222.222,0,0,1-.3,0h0a.222.222,0,0,1,0-.3L102.68,96.7a.206.206,0,0,1,.285,0Z" transform="translate(50.243 48.163)" fill="url(#linear-gradient-47)"/>
    <path id="Trazado_117825" data-name="Trazado 117825" d="M102.884,97.232a.237.237,0,0,1-.079.317l-1.456.9a.222.222,0,0,1-.317,0,.237.237,0,0,1,0-.317l1.456-.918a.237.237,0,0,1,.4.016Z" transform="translate(50.876 48.423)" fill="url(#linear-gradient-48)"/>
    <path id="Trazado_117826" data-name="Trazado 117826" d="M103.2,97.772a.222.222,0,0,1,0,.317l-1.456.918a.237.237,0,1,1-.237-.4l1.456-.918a.222.222,0,0,1,.237.079Z" transform="translate(51.061 48.708)" fill="url(#linear-gradient-49)"/>
    <path id="Trazado_117827" data-name="Trazado 117827" d="M103.547,98.312a.237.237,0,0,1,0,.317l-1.456.918a.237.237,0,0,1-.317,0,.222.222,0,0,1,0-.317l1.456-.918a.237.237,0,0,1,.317,0Z" transform="translate(51.242 48.993)" fill="url(#linear-gradient-50)"/>
    <path id="Trazado_117828" data-name="Trazado 117828" d="M103.87,98.868a.237.237,0,0,1,0,.317l-1.456.918a.237.237,0,0,1-.237-.4l1.456-.9A.222.222,0,0,1,103.87,98.868Z" transform="translate(51.441 49.266)" fill="url(#linear-gradient-51)"/>
    <path id="Trazado_117829" data-name="Trazado 117829" d="M104.911,99.672a.206.206,0,0,1,0,.285l-2.849,1.788a.222.222,0,0,1-.3,0h0a.206.206,0,0,1,0-.285l2.849-1.788A.222.222,0,0,1,104.911,99.672Z" transform="translate(51.201 49.656)" fill="url(#linear-gradient-52)"/>
    <path id="Trazado_117830" data-name="Trazado 117830" d="M104.755,100.222a.237.237,0,0,1,0,.317l-1.456.918a.237.237,0,1,1-.237-.4l1.456-.918A.237.237,0,0,1,104.755,100.222Z" transform="translate(51.829 49.939)" fill="url(#linear-gradient-53)"/>
    <path id="Trazado_117831" data-name="Trazado 117831" d="M105.095,100.764a.237.237,0,0,1,0,.317l-1.456.918a.224.224,0,0,1-.317-.317l1.456-.918a.222.222,0,0,1,.317,0Z" transform="translate(52.012 50.222)" fill="url(#linear-gradient-54)"/>
    <path id="Trazado_117832" data-name="Trazado 117832" d="M105.435,101.312a.222.222,0,0,1,0,.317l-1.456.918a.222.222,0,0,1-.317,0,.237.237,0,0,1,0-.316l1.456-.918A.237.237,0,0,1,105.435,101.312Z" transform="translate(52.18 50.5)" fill="url(#linear-gradient-55)"/>
    <path id="Trazado_117833" data-name="Trazado 117833" d="M105.777,101.883a.253.253,0,0,1,0,.317l-1.456.9a.228.228,0,0,1-.253-.38l1.456-.918a.237.237,0,0,1,.253.079Z" transform="translate(52.361 50.772)" fill="url(#linear-gradient-56)"/>
    <path id="Trazado_117834" data-name="Trazado 117834" d="M106.8,102.672a.222.222,0,0,1,0,.3l-2.849,1.788a.206.206,0,0,1-.285,0h0a.222.222,0,0,1,0-.3l2.849-1.788a.222.222,0,0,1,.3,0Z" transform="translate(52.141 51.161)" fill="url(#linear-gradient-57)"/>
    <path id="Trazado_117835" data-name="Trazado 117835" d="M106.713,103.228a.237.237,0,0,1,0,.317l-1.583.965a.228.228,0,0,1-.253-.38l1.456-.918a.237.237,0,0,1,.38.016Z" transform="translate(52.758 51.439)" fill="url(#linear-gradient-58)"/>
    <path id="Trazado_117836" data-name="Trazado 117836" d="M106.985,103.772a.237.237,0,0,1,0,.317l-1.456.918a.224.224,0,0,1-.317-.317l1.456-.918a.237.237,0,0,1,.317,0Z" transform="translate(52.948 51.735)" fill="url(#linear-gradient-59)"/>
    <path id="Trazado_117837" data-name="Trazado 117837" d="M107.31,104.332a.237.237,0,0,1,0,.317l-1.456.918a.237.237,0,0,1-.237-.4l1.456-.918a.237.237,0,0,1,.237.079Z" transform="translate(53.145 52.004)" fill="url(#linear-gradient-60)"/>
    <path id="Trazado_117838" data-name="Trazado 117838" d="M107.659,104.883a.222.222,0,0,1,0,.317l-1.456.918a.237.237,0,0,1-.253-.4l1.456-.918a.237.237,0,0,1,.253.079Z" transform="translate(53.304 52.279)" fill="url(#linear-gradient-61)"/>
    <rect id="Rectángulo_6934" data-name="Rectángulo 6934" width="3.789" height="0.46" rx="0.13" transform="matrix(0.849, -0.529, 0.529, 0.849, 158.588, 161.181)" fill="url(#linear-gradient-62)"/>
    <path id="Trazado_117839" data-name="Trazado 117839" d="M108.527,106.222a.237.237,0,0,1,0,.317l-1.456.918a.237.237,0,0,1-.317,0,.222.222,0,0,1,0-.317l1.456-.918a.237.237,0,0,1,.317,0Z" transform="translate(53.708 52.966)" fill="url(#linear-gradient-63)"/>
    <path id="Trazado_117840" data-name="Trazado 117840" d="M108.885,106.778a.237.237,0,0,1,0,.317l-1.456.918a.237.237,0,1,1-.237-.4l1.456-.9A.222.222,0,0,1,108.885,106.778Z" transform="translate(53.874 53.237)" fill="url(#linear-gradient-64)"/>
    <path id="Trazado_117841" data-name="Trazado 117841" d="M109.214,107.312a.237.237,0,0,1,0,.317l-1.456.918a.2.2,0,1,1-.237-.317l1.456-.918A.237.237,0,0,1,109.214,107.312Z" transform="translate(54.067 53.528)" fill="url(#linear-gradient-65)"/>
    <path id="Trazado_117842" data-name="Trazado 117842" d="M109.565,107.872a.222.222,0,0,1,0,.317l-1.456.918a.222.222,0,0,1-.317,0,.237.237,0,0,1,0-.317l1.456-.918a.237.237,0,0,1,.317,0Z" transform="translate(54.225 53.794)" fill="url(#linear-gradient-66)"/>
    <path id="Trazado_117843" data-name="Trazado 117843" d="M110.575,108.681a.222.222,0,0,1,0,.3l-2.849,1.788a.206.206,0,0,1-.285,0h0a.222.222,0,0,1,0-.3l2.849-1.788A.206.206,0,0,1,110.575,108.681Z" transform="translate(54.012 54.179)" fill="url(#linear-gradient-67)"/>
    <path id="Trazado_117844" data-name="Trazado 117844" d="M110.415,109.222a.222.222,0,0,1,0,.317l-1.456.918a.222.222,0,0,1-.317,0,.237.237,0,0,1,0-.317l1.456-.918a.237.237,0,0,1,.317,0Z" transform="translate(54.646 54.472)" fill="url(#linear-gradient-68)"/>
    <path id="Trazado_117845" data-name="Trazado 117845" d="M110.757,109.793a.253.253,0,0,1,0,.317l-1.456.9a.228.228,0,0,1-.253-.38l1.456-.918A.237.237,0,0,1,110.757,109.793Z" transform="translate(54.828 54.745)" fill="url(#linear-gradient-69)"/>
    <path id="Trazado_117846" data-name="Trazado 117846" d="M111.115,110.332a.237.237,0,0,1,0,.317l-1.456.918a.224.224,0,1,1-.317-.317l1.456-.918a.237.237,0,0,1,.317,0Z" transform="translate(54.993 55.03)" fill="url(#linear-gradient-70)"/>
    <path id="Trazado_117847" data-name="Trazado 117847" d="M111.494,110.9a.237.237,0,0,1-.079.317l-1.456.918a.224.224,0,1,1-.317-.316l1.456-.918a.237.237,0,0,1,.4,0Z" transform="translate(55.14 55.29)" fill="url(#linear-gradient-71)"/>
    <path id="Trazado_117848" data-name="Trazado 117848" d="M112.465,111.686a.206.206,0,0,1,0,.285l-2.849,1.788a.206.206,0,0,1-.285,0h0a.206.206,0,0,1,0-.285l2.849-1.8a.206.206,0,0,1,.285.079Z" transform="translate(54.948 55.695)" fill="url(#linear-gradient-72)"/>
    <path id="Trazado_117849" data-name="Trazado 117849" d="M112.315,112.243a.222.222,0,0,1,0,.317l-1.456.918a.237.237,0,1,1-.237-.4l1.44-.918A.237.237,0,0,1,112.315,112.243Z" transform="translate(55.573 55.974)" fill="url(#linear-gradient-73)"/>
    <path id="Trazado_117850" data-name="Trazado 117850" d="M112.677,112.8a.237.237,0,0,1,0,.317l-1.456.918a.237.237,0,0,1-.317-.079.222.222,0,0,1,0-.317l1.456-.918a.237.237,0,0,1,.317.079Z" transform="translate(55.764 56.244)" fill="url(#linear-gradient-74)"/>
    <path id="Trazado_117851" data-name="Trazado 117851" d="M113,113.334a.237.237,0,0,1,0,.317l-1.456.918a.253.253,0,0,1-.317,0,.237.237,0,0,1,0-.317l1.456-.918a.222.222,0,0,1,.317,0Z" transform="translate(55.929 56.535)" fill="url(#linear-gradient-75)"/>
    <path id="Trazado_117852" data-name="Trazado 117852" d="M113.384,113.9a.237.237,0,0,1-.079.317l-1.456.918a.222.222,0,0,1-.317,0,.237.237,0,0,1,0-.317l1.456-.918a.253.253,0,0,1,.4,0Z" transform="translate(56.076 56.801)" fill="url(#linear-gradient-76)"/>
    <path id="Trazado_117853" data-name="Trazado 117853" d="M114.365,114.685a.206.206,0,0,1,0,.285l-2.849,1.8a.206.206,0,0,1-.285,0h0a.206.206,0,0,1,0-.285l2.849-1.788a.206.206,0,0,1,.285,0Z" transform="translate(55.888 57.201)" fill="url(#linear-gradient-77)"/>
    <path id="Trazado_117854" data-name="Trazado 117854" d="M114.2,115.23a.237.237,0,0,1,0,.317l-1.456.918a.224.224,0,1,1-.317-.317l1.456-.918A.253.253,0,0,1,114.2,115.23Z" transform="translate(56.524 57.492)" fill="url(#linear-gradient-78)"/>
    <path id="Trazado_117855" data-name="Trazado 117855" d="M114.545,115.8a.206.206,0,0,1,0,.3l-1.456.918a.222.222,0,0,1-.317,0,.237.237,0,0,1,0-.317l1.456-.918a.237.237,0,0,1,.317.016Z" transform="translate(56.692 57.769)" fill="url(#linear-gradient-79)"/>
    <path id="Trazado_117856" data-name="Trazado 117856" d="M114.9,116.342a.253.253,0,0,1,0,.317l-1.456.918a.237.237,0,0,1-.317,0,.222.222,0,0,1,0-.317l1.456-.918A.237.237,0,0,1,114.9,116.342Z" transform="translate(56.863 58.048)" fill="url(#linear-gradient-80)"/>
    <path id="Trazado_117857" data-name="Trazado 117857" d="M108.454,114.735l.744,16.46a1.029,1.029,0,0,1-.87,1.045l-7.217,1.345a1.662,1.662,0,0,1-1.978-2.058l3.419-10.462a2.612,2.612,0,0,0-.158-2.01,20.892,20.892,0,0,0-2.833-5.476Z" transform="translate(49.704 56.114)" fill="url(#linear-gradient-81)"/>
    <path id="Trazado_117858" data-name="Trazado 117858" d="M100.3,115.161a.427.427,0,0,1,.633.142l.918,1.883a.412.412,0,0,1-.158.538h-.127a.4.4,0,0,1-.586-.206l-.791-1.963a.443.443,0,0,1,.111-.4Z" transform="translate(50.492 57.403)" fill="url(#linear-gradient-82)"/>
    <rect id="Rectángulo_6935" data-name="Rectángulo 6935" width="5.207" height="0.364" rx="0.09" transform="translate(126.001 164.436) rotate(2.75)" fill="url(#linear-gradient-83)"/>
    <path id="Trazado_117859" data-name="Trazado 117859" d="M87.839,109.006l-1.583.965a.364.364,0,0,0-.206.332v.285a.364.364,0,0,0,.095.285l1.583,1.583a.427.427,0,0,0,.3.127l2.991.158.19-3.7-3.15-.032a.364.364,0,0,0-.222,0Z" transform="translate(43.407 54.318)" fill="url(#linear-gradient-84)"/>
    <rect id="Rectángulo_6936" data-name="Rectángulo 6936" width="3.165" height="3.703" transform="translate(134.778 163.396) rotate(2.75)" fill="url(#linear-gradient-85)"/>
    <path id="Trazado_117860" data-name="Trazado 117860" d="M1.757,0h1.82V4.59H1.836A1.836,1.836,0,0,1,0,2.754v-1A1.757,1.757,0,0,1,1.757,0Z" transform="translate(136.086 162.983) rotate(2.75)" fill="url(#linear-gradient-86)"/>
    <path id="Trazado_117861" data-name="Trazado 117861" d="M2.675,0h.9V7.059H2.8A2.8,2.8,0,0,1,0,4.258V2.675A2.659,2.659,0,0,1,2.675,0Z" transform="translate(138.328 162.004) rotate(2.74)" fill="url(#linear-gradient-87)"/>
    <path id="Trazado_117862" data-name="Trazado 117862" d="M114.1,118.142,93.53,115.293l.332-7.043h20.781a4.953,4.953,0,1,1-.538,9.892Z" transform="translate(46.518 53.772)" fill="url(#linear-gradient-88)"/>
    <rect id="Rectángulo_6937" data-name="Rectángulo 6937" width="3.339" height="4.796" rx="0.83" transform="translate(132.192 162.744) rotate(2.75)" fill="url(#linear-gradient-89)"/>
    <path id="Trazado_117863" data-name="Trazado 117863" d="M120.846,116.328l-1.076-.111,1.314-11.427.87.079Z" transform="translate(60.178 51.995)" fill="url(#linear-gradient-90)"/>
    <path id="Trazado_117864" data-name="Trazado 117864" d="M122.148,110.376l-1.583-.174a.554.554,0,0,0-.617.491l-1.377,9.86a1.314,1.314,0,0,0,1.171,1.583h.776a1.345,1.345,0,0,0,1.472-1.219l.728-9.939a.57.57,0,0,0-.57-.6Z" transform="translate(59.504 54.684)" fill="url(#linear-gradient-91)"/>
    <rect id="Rectángulo_6938" data-name="Rectángulo 6938" width="0.411" height="10.382" transform="matrix(0.994, 0.106, -0.106, 0.994, 179.865, 165.53)" fill="#fff" opacity="0.24"/>
    <rect id="Rectángulo_6939" data-name="Rectángulo 6939" width="0.411" height="10.382" transform="matrix(0.994, 0.105, -0.105, 0.994, 180.588, 165.577)" fill="#fff" opacity="0.24"/>
    <rect id="Rectángulo_6940" data-name="Rectángulo 6940" width="0.411" height="10.382" transform="matrix(0.994, 0.106, -0.106, 0.994, 181.277, 165.665)" fill="#fff" opacity="0.24"/>
    <path id="Trazado_117865" data-name="Trazado 117865" d="M121.824,102.442h-.538a.285.285,0,0,0-.317.158l-.57,1.583h0l.19,2.073a.3.3,0,0,0,.269.237h.57a.285.285,0,0,0,.332-.174l.57-1.978v-.079l-.237-1.583a.285.285,0,0,0-.269-.237Z" transform="translate(60.499 51.023)" fill="url(#linear-gradient-92)"/>
    <rect id="Rectángulo_6941" data-name="Rectángulo 6941" width="58.512" height="25.323" rx="6.26" transform="translate(138.407 172.464)" fill="url(#linear-gradient-93)"/>
    <rect id="Rectángulo_6942" data-name="Rectángulo 6942" width="63.893" height="6.695" rx="1.66" transform="translate(135.984 189.219)" fill="url(#linear-gradient-94)"/>
    <rect id="Rectángulo_6943" data-name="Rectángulo 6943" width="63.893" height="7.391" rx="1.83" transform="translate(135.984 181.227)" fill="url(#linear-gradient-95)"/>
    <rect id="Rectángulo_6944" data-name="Rectángulo 6944" width="63.893" height="7.534" rx="1.86" transform="translate(135.984 173.045)" fill="url(#linear-gradient-96)"/>
    <path id="Trazado_117866" data-name="Trazado 117866" d="M151.349,60.782c-1-4.068-3.165-2.6-6.742-3.735s-2.722-5.682-5-7c-3.039-1.757-5.713,0-7.486,2.532-2.944,4.131-5.16.918-8.784,2.675-2.073,1-1.14,2.295-3.973,2.912-1.978.427-4.162-.364-6.109.222a3.45,3.45,0,0,0-2.754,2.58,11.554,11.554,0,0,0,1.3.491c5.555,1.8,13.025.9,18.6,1.013C132.294,62.523,152.061,63.662,151.349,60.782Z" transform="translate(54.228 24.273)" fill="#fff" opacity="0.35"/>
    <path id="Trazado_117867" data-name="Trazado 117867" d="M180.606,122.185l.174-1.14h0a.364.364,0,0,1,.712.111l-.174,1.155a.364.364,0,1,1-.712-.111Z" transform="translate(88.719 60.294)" fill="#fff"/>
    <path id="Trazado_117868" data-name="Trazado 117868" d="M180.8,120.767l.111-1.14h0a.348.348,0,0,1,.4-.317.364.364,0,0,1,.332.4l-.127,1.155a.358.358,0,1,1-.712-.063Z" transform="translate(88.84 59.552)" fill="#fff"/>
    <path id="Trazado_117869" data-name="Trazado 117869" d="M180.921,119.344v-1.155h0a.364.364,0,0,1,.38-.348.348.348,0,0,1,.348.38v1.155a.364.364,0,0,1-.38.348.348.348,0,0,1-.348-.38Z" transform="translate(88.91 58.815)" fill="#fff"/>
    <path id="Trazado_117870" data-name="Trazado 117870" d="M181.006,117.9v-1.155h0a.364.364,0,1,1,.728,0v1.171a.372.372,0,0,1-.744,0Z" transform="translate(88.952 58.081)" fill="#fff"/>
    <path id="Trazado_117871" data-name="Trazado 117871" d="M180.969,116.455l-.079-1.14h0a.4.4,0,0,1,.348-.4.38.38,0,0,1,.4.348v1.171a.364.364,0,1,1-.728,0Z" transform="translate(88.894 57.349)" fill="#fff"/>
    <path id="Trazado_117872" data-name="Trazado 117872" d="M180.887,115.012l-.127-1.14h0a.374.374,0,0,1,.744-.079l.111,1.155a.364.364,0,1,1-.728,0Z" transform="translate(88.817 56.616)" fill="#fff"/>
    <path id="Trazado_117873" data-name="Trazado 117873" d="M180.74,113.593l-.174-1.124h0a.38.38,0,1,1,.744-.111l.174,1.155a.38.38,0,0,1-.316.427.364.364,0,0,1-.412-.317Z" transform="translate(88.695 55.871)" fill="#fff"/>
    <path id="Trazado_117874" data-name="Trazado 117874" d="M180.521,112.153l-.237-1.124h0a.38.38,0,1,1,.744-.158l.222,1.155a.371.371,0,0,1-.728.142Z" transform="translate(88.535 55.164)" fill="#fff"/>
    <path id="Trazado_117875" data-name="Trazado 117875" d="M180.229,110.747l-.285-1.124h0a.384.384,0,0,1,.744-.19l.269,1.14a.348.348,0,0,1-.269.443.364.364,0,0,1-.459-.269Z" transform="translate(88.336 54.453)" fill="#fff"/>
    <path id="Trazado_117876" data-name="Trazado 117876" d="M179.878,109.333l-.332-1.092h0a.38.38,0,1,1,.728-.222l.332,1.108a.38.38,0,0,1-.728.222Z" transform="translate(88.101 53.749)" fill="#fff"/>
    <path id="Trazado_117877" data-name="Trazado 117877" d="M179.469,107.95l-.38-1.076h0a.364.364,0,0,1,.222-.475.38.38,0,0,1,.491.222l.38,1.108a.38.38,0,0,1-.712.253Z" transform="translate(87.83 53.06)" fill="#fff"/>
    <path id="Trazado_117878" data-name="Trazado 117878" d="M178.987,106.581l-.427-1.06h0a.38.38,0,0,1,.206-.491.4.4,0,0,1,.506.206l.427,1.076a.4.4,0,0,1-.206.506.38.38,0,0,1-.506-.222Z" transform="translate(87.52 52.37)" fill="#fff"/>
    <path id="Trazado_117879" data-name="Trazado 117879" d="M178.439,105.258l-.427-1.06h0a.4.4,0,0,1,.19-.506.411.411,0,0,1,.522.19l.475,1.06a.382.382,0,1,1-.7.317Z" transform="translate(87.198 51.697)" fill="#fff"/>
    <path id="Trazado_117880" data-name="Trazado 117880" d="M177.848,103.909l-.522-1.013h0a.4.4,0,0,1,.7-.348l.522,1.045a.4.4,0,0,1-.7.348Z" transform="translate(86.807 51.062)" fill="#fff"/>
    <path id="Trazado_117881" data-name="Trazado 117881" d="M177.225,102.649l-.57-1h0a.412.412,0,0,1,.142-.522.4.4,0,0,1,.538.142l.57,1.013a.39.39,0,1,1-.681.38Z" transform="translate(86.402 50.401)" fill="#fff"/>
    <path id="Trazado_117882" data-name="Trazado 117882" d="M176.494,101.382l-.6-.965h0a.384.384,0,1,1,.649-.411l.617,1a.4.4,0,0,1-.127.538.38.38,0,0,1-.522-.127Z" transform="translate(85.946 49.774)" fill="#fff"/>
    <path id="Trazado_117883" data-name="Trazado 117883" d="M175.72,100.153l-.633-.95h0a.4.4,0,0,1,.649-.443l.649.965a.386.386,0,1,1-.633.443Z" transform="translate(85.486 49.172)" fill="#fff"/>
    <path id="Trazado_117884" data-name="Trazado 117884" d="M174.919,98.978l-.681-.918h0a.38.38,0,0,1,.079-.538.4.4,0,0,1,.554,0l.7.934a.4.4,0,0,1,0,.554.38.38,0,0,1-.538,0Z" transform="translate(84.972 48.561)" fill="#fff"/>
    <path id="Trazado_117885" data-name="Trazado 117885" d="M174.07,97.821l-.728-.886h0a.4.4,0,0,1,0-.554.38.38,0,0,1,.538,0l.744.9a.38.38,0,0,1,0,.538.4.4,0,0,1-.554,0Z" transform="translate(84.429 47.99)" fill="#fff"/>
    <path id="Trazado_117886" data-name="Trazado 117886" d="M173.144,96.694l-.76-.839h0a.38.38,0,0,1,0-.554.4.4,0,0,1,.554,0l.776.87a.38.38,0,0,1,0,.554.4.4,0,0,1-.554,0Z" transform="translate(83.867 47.448)" fill="#fff"/>
    <path id="Trazado_117887" data-name="Trazado 117887" d="M172.2,95.645l-.807-.823h0a.4.4,0,1,1,.554-.554l.823.839a.4.4,0,0,1,0,.554.38.38,0,0,1-.538,0Z" transform="translate(83.265 46.906)" fill="#fff"/>
    <path id="Trazado_117888" data-name="Trazado 117888" d="M171.165,94.593l-.839-.776h0a.386.386,0,1,1,.522-.57l.855.791a.386.386,0,1,1-.522.57Z" transform="translate(82.665 46.424)" fill="#fff"/>
    <path id="Trazado_117889" data-name="Trazado 117889" d="M170.131,93.631l-.886-.744h0a.4.4,0,1,1,.506-.6l.886.744a.4.4,0,0,1-.506.6Z" transform="translate(82.005 45.931)" fill="#fff"/>
    <path id="Trazado_117890" data-name="Trazado 117890" d="M169,92.67l-.918-.7h0a.4.4,0,0,1,0-.554.411.411,0,0,1,.554,0l.918.712a.38.38,0,0,1,.079.538.4.4,0,0,1-.554,0Z" transform="translate(81.364 45.506)" fill="#fff"/>
    <path id="Trazado_117891" data-name="Trazado 117891" d="M167.871,91.8l-.95-.649h0a.4.4,0,1,1,.459-.649l.95.665a.38.38,0,0,1,.111.538.4.4,0,0,1-.554.095Z" transform="translate(80.657 45.065)" fill="#fff"/>
    <path id="Trazado_117892" data-name="Trazado 117892" d="M166.675,90.985l-.965-.6h0a.4.4,0,1,1,.427-.681l.981.617a.411.411,0,0,1,.127.554.4.4,0,0,1-.538.127Z" transform="translate(79.938 44.668)" fill="#fff"/>
    <path id="Trazado_117893" data-name="Trazado 117893" d="M165.443,90.218l-1-.554h0a.4.4,0,0,1,.38-.7l1.029.57a.4.4,0,1,1-.38.7Z" transform="translate(79.191 44.306)" fill="#fff"/>
    <path id="Trazado_117894" data-name="Trazado 117894" d="M164.2,89.524l-1.029-.506h0a.4.4,0,1,1,.348-.712l1.045.506a.4.4,0,0,1,.19.538.412.412,0,0,1-.538.174Z" transform="translate(78.44 43.979)" fill="#fff"/>
    <path id="Trazado_117895" data-name="Trazado 117895" d="M162.907,88.883l-1.06-.443h0a.412.412,0,0,1-.206-.522.4.4,0,0,1,.522-.206l1.076.443a.411.411,0,0,1,.206.522.38.38,0,0,1-.522.206Z" transform="translate(77.66 43.686)" fill="#fff"/>
    <path id="Trazado_117896" data-name="Trazado 117896" d="M161.587,88.316l-1.076-.38h0a.4.4,0,0,1-.253-.506.412.412,0,0,1,.506-.253l1.092.412a.4.4,0,1,1-.269.728Z" transform="translate(76.859 43.425)" fill="#fff"/>
    <path id="Trazado_117897" data-name="Trazado 117897" d="M160.241,87.818l-1.14-.332h0a.4.4,0,0,1,.237-.76l1.124.348a.4.4,0,0,1-.237.76Z" transform="translate(79.531 43.201)" fill="#fff"/>
    <path id="Trazado_117898" data-name="Trazado 117898" d="M158.828,87.385,157.72,87.1h0a.4.4,0,0,1,.19-.76l1.14.285a.4.4,0,0,1,.269.491.38.38,0,0,1-.475.285Z" transform="translate(78.864 43.017)" fill="#fff"/>
    <path id="Trazado_117899" data-name="Trazado 117899" d="M157.458,87.032l-1.124-.253h0a.4.4,0,0,1,.174-.776l1.14.253a.4.4,0,0,1-.174.776Z" transform="translate(78.142 42.844)" fill="#fff"/>
    <path id="Trazado_117900" data-name="Trazado 117900" d="M156.054,86.725l-1.14-.206h0a.4.4,0,0,1-.332-.459.38.38,0,0,1,.459-.317l1.155.19a.38.38,0,0,1,.317.459.4.4,0,0,1-.459.332Z" transform="translate(77.424 42.715)" fill="#fff"/>
    <path id="Trazado_117901" data-name="Trazado 117901" d="M154.62,86.48l-1.14-.158h0a.38.38,0,0,1-.348-.443.411.411,0,0,1,.443-.348l1.155.158a.4.4,0,1,1-.095.791Z" transform="translate(76.706 42.613)" fill="#fff"/>
    <path id="Trazado_117902" data-name="Trazado 117902" d="M153.185,86.333l-1.14-.111h0a.38.38,0,0,1-.364-.427.4.4,0,0,1,.427-.364l1.155.095a.412.412,0,0,1,.364.443.4.4,0,0,1-.427.364Z" transform="translate(75.989 42.564)" fill="#fff"/>
    <path id="Trazado_117903" data-name="Trazado 117903" d="M151.755,86.138H150.6a.412.412,0,0,1-.38-.427.38.38,0,0,1,.412-.38H151.8a.4.4,0,0,1,.38.412.411.411,0,0,1-.427.38Z" transform="translate(75.266 42.515)" fill="#fff"/>
    <path id="Trazado_117904" data-name="Trazado 117904" d="M150.317,86.071h-1.171a.4.4,0,0,1,0-.791h1.171a.4.4,0,0,1,0,.791Z" transform="translate(74.538 42.491)" fill="#fff"/>
    <path id="Trazado_117905" data-name="Trazado 117905" d="M148.867,86.077H147.7a.38.38,0,0,1-.4-.4.4.4,0,0,1,.38-.412h1.171a.412.412,0,0,1,0,.807Z" transform="translate(73.823 42.486)" fill="#fff"/>
    <path id="Trazado_117906" data-name="Trazado 117906" d="M147.4,86.12h-1.14a.38.38,0,0,1-.411-.38.411.411,0,0,1,.38-.427h1.155a.412.412,0,1,1,0,.807Z" transform="translate(73.099 42.503)" fill="#fff"/>
    <path id="Trazado_117907" data-name="Trazado 117907" d="M145.945,86.208l-1.14.095h0a.4.4,0,1,1,0-.791l1.155-.111a.411.411,0,0,1,.443.38.4.4,0,0,1-.364.427Z" transform="translate(72.387 42.549)" fill="#fff"/>
    <path id="Trazado_117908" data-name="Trazado 117908" d="M144.53,86.349l-1.155.127h0a.38.38,0,0,1-.443-.348.411.411,0,0,1,.348-.459l1.155-.127a.38.38,0,0,1,.443.348A.412.412,0,0,1,144.53,86.349Z" transform="translate(71.655 42.617)" fill="#fff"/>
    <path id="Trazado_117909" data-name="Trazado 117909" d="M143.08,86.527l-1.14.158h0a.411.411,0,0,1-.459-.348.4.4,0,0,1,.348-.443l1.14-.174a.411.411,0,0,1,.127.807Z" transform="translate(70.938 42.708)" fill="#fff"/>
    <path id="Trazado_117910" data-name="Trazado 117910" d="M141.656,86.749l-1.14.19h0a.427.427,0,0,1-.475-.332.4.4,0,0,1,.332-.459l1.14-.206a.427.427,0,0,1,.475.332.4.4,0,0,1-.332.459Z" transform="translate(70.223 42.817)" fill="#fff"/>
    <path id="Trazado_117911" data-name="Trazado 117911" d="M140.228,86.994l-1.14.237h0a.427.427,0,0,1-.475-.317.411.411,0,0,1,.316-.491l1.14-.222a.4.4,0,0,1,.158.791Z" transform="translate(69.514 42.945)" fill="#fff"/>
    <path id="Trazado_117912" data-name="Trazado 117912" d="M138.8,87.3l-1.124.253h0a.405.405,0,1,1-.174-.791l1.124-.253a.405.405,0,1,1,.174.791Z" transform="translate(68.806 43.095)" fill="#fff"/>
    <path id="Trazado_117913" data-name="Trazado 117913" d="M137.378,87.63l-1.108.269h0a.4.4,0,1,1-.127-.791l1.124-.285a.4.4,0,0,1,.459.285.412.412,0,0,1-.285.506Z" transform="translate(68.1 43.256)" fill="#fff"/>
    <path id="Trazado_117914" data-name="Trazado 117914" d="M135.969,87.987l-1.108.3h0a.412.412,0,0,1-.506-.285.427.427,0,0,1,.285-.506l1.124-.3a.411.411,0,0,1,.506.285.427.427,0,0,1-.285.506Z" transform="translate(67.404 43.438)" fill="#fff"/>
    <path id="Trazado_117915" data-name="Trazado 117915" d="M134.594,88.373l-1.092.332h0a.412.412,0,0,1-.506-.269.427.427,0,0,1,.285-.522l1.108-.317a.4.4,0,0,1,.506.269.411.411,0,0,1-.269.506Z" transform="translate(66.729 43.637)" fill="#fff"/>
    <path id="Trazado_117916" data-name="Trazado 117916" d="M133.178,88.808l-1.092.348h0a.413.413,0,0,1-.237-.791l1.108-.348a.411.411,0,1,1,.237.776Z" transform="translate(66.02 43.834)" fill="#fff"/>
    <path id="Trazado_117917" data-name="Trazado 117917" d="M131.8,89.292l-1.092.38h0a.412.412,0,0,1-.506-.253.4.4,0,0,1,.253-.522l1.092-.38a.427.427,0,0,1,.522.253.412.412,0,0,1-.253.522Z" transform="translate(65.339 44.099)" fill="#fff"/>
    <path id="Trazado_117918" data-name="Trazado 117918" d="M130.433,89.728l-1.092.4h0a.412.412,0,1,1-.269-.776l1.092-.4a.412.412,0,1,1,.269.776Z" transform="translate(64.641 44.309)" fill="#fff"/>
    <path id="Trazado_117919" data-name="Trazado 117919" d="M129.053,90.222l-1.076.411h0a.427.427,0,0,1-.538-.237.411.411,0,0,1,.237-.522l1.092-.412a.38.38,0,0,1,.522.237.4.4,0,0,1-.237.522Z" transform="translate(63.974 44.565)" fill="#fff"/>
    <path id="Trazado_117920" data-name="Trazado 117920" d="M127.689,90.762l-1.06.412h0a.416.416,0,0,1-.3-.776l1.076-.427a.412.412,0,0,1,.538.237.4.4,0,0,1-.237.522Z" transform="translate(63.304 44.822)" fill="#fff"/>
    <path id="Trazado_117921" data-name="Trazado 117921" d="M126.342,91.293l-1.06.443h0a.412.412,0,0,1-.538-.222.4.4,0,0,1,.222-.538l1.06-.443a.4.4,0,0,1,.538.222A.412.412,0,0,1,126.342,91.293Z" transform="translate(62.633 45.101)" fill="#fff"/>
    <path id="Trazado_117922" data-name="Trazado 117922" d="M125,91.85l-1.06.459h0a.412.412,0,0,1-.554-.206.443.443,0,0,1,.222-.554l1.06-.459a.427.427,0,0,1,.538.222.4.4,0,0,1-.206.538Z" transform="translate(61.967 45.385)" fill="#fff"/>
    <path id="Trazado_117923" data-name="Trazado 117923" d="M123.677,92.442l-1.045.459h0a.411.411,0,1,1-.332-.744l1.06-.475a.411.411,0,0,1,.538.206.4.4,0,0,1-.206.538Z" transform="translate(61.292 45.678)" fill="#fff"/>
    <path id="Trazado_117924" data-name="Trazado 117924" d="M122.339,93.027l-1.045.491h0a.411.411,0,1,1-.348-.744l1.045-.491a.427.427,0,0,1,.554.206.412.412,0,0,1-.206.538Z" transform="translate(60.641 45.979)" fill="#fff"/>
    <path id="Trazado_117925" data-name="Trazado 117925" d="M121.008,93.653l-1.045.506h0a.412.412,0,0,1-.538-.206.4.4,0,0,1,.19-.538l1.045-.506a.411.411,0,1,1,.348.744Z" transform="translate(59.997 46.285)" fill="#fff"/>
    <path id="Trazado_117926" data-name="Trazado 117926" d="M119.7,94.29l-1.045.506h0a.414.414,0,1,1-.364-.744l1.045-.506a.411.411,0,0,1,.554.19.4.4,0,0,1-.19.538Z" transform="translate(59.343 46.609)" fill="#fff"/>
    <path id="Trazado_117927" data-name="Trazado 117927" d="M118.388,94.929l-1.029.522h0a.414.414,0,0,1-.364-.744l1.029-.522a.427.427,0,0,1,.554.174.412.412,0,0,1-.19.554Z" transform="translate(58.7 46.931)" fill="#fff"/>
    <path id="Trazado_117928" data-name="Trazado 117928" d="M117.1,95.6l-1.029.538h0a.427.427,0,0,1-.554-.174.4.4,0,0,1,.174-.554l1.029-.538a.411.411,0,0,1,.554.174A.443.443,0,0,1,117.1,95.6Z" transform="translate(58.058 47.27)" fill="#fff"/>
    <path id="Trazado_117929" data-name="Trazado 117929" d="M115.794,96.287l-1.013.538h0a.412.412,0,0,1-.554-.158.427.427,0,0,1,.174-.57l1.013-.538a.4.4,0,0,1,.554.174.412.412,0,0,1-.158.554Z" transform="translate(57.421 47.615)" fill="#fff"/>
    <path id="Trazado_117930" data-name="Trazado 117930" d="M114.515,96.965l-1.013.554h0a.407.407,0,0,1-.4-.712l1.013-.57a.412.412,0,0,1,.554.174.4.4,0,0,1-.158.554Z" transform="translate(56.786 47.958)" fill="#fff"/>
    <path id="Trazado_117931" data-name="Trazado 117931" d="M113.239,97.661l-1,.57h0a.412.412,0,1,1-.412-.712l1.013-.57a.412.412,0,0,1,.554.158.4.4,0,0,1-.158.554Z" transform="translate(56.149 48.313)" fill="#fff"/>
    <path id="Trazado_117932" data-name="Trazado 117932" d="M111.961,98.372l-1,.57h0a.411.411,0,0,1-.554-.142.427.427,0,0,1,.142-.57l1.013-.57a.411.411,0,0,1,.4.712Z" transform="translate(55.529 48.682)" fill="#fff"/>
    <path id="Trazado_117933" data-name="Trazado 117933" d="M110.728,99.112l-1,.57h0a.412.412,0,1,1-.412-.7l1-.586a.412.412,0,0,1,.554.142A.427.427,0,0,1,110.728,99.112Z" transform="translate(54.878 49.039)" fill="#fff"/>
    <path id="Trazado_117934" data-name="Trazado 117934" d="M109.441,99.854l-1,.6h0a.412.412,0,0,1-.554-.142.427.427,0,0,1,.142-.57l1-.586a.411.411,0,1,1,.411.7Z" transform="translate(54.277 49.395)" fill="#fff"/>
    <path id="Trazado_117935" data-name="Trazado 117935" d="M108.193,100.586l-1,.6h0a.412.412,0,0,1-.554-.142.4.4,0,0,1,.142-.554l.981-.6a.412.412,0,0,1,.554.142.4.4,0,0,1-.127.554Z" transform="translate(53.659 49.788)" fill="#fff"/>
    <path id="Trazado_117936" data-name="Trazado 117936" d="M106.941,101.348l-.981.6h0a.412.412,0,0,1-.57-.127.427.427,0,0,1,.142-.57l.981-.6a.409.409,0,0,1,.427.7Z" transform="translate(53.041 50.168)" fill="#fff"/>
    <path id="Trazado_117937" data-name="Trazado 117937" d="M105.7,102.1l-.981.617h0a.427.427,0,0,1-.57-.127.412.412,0,0,1,.142-.57l.981-.6a.4.4,0,0,1,.554.127.411.411,0,0,1-.127.554Z" transform="translate(52.425 50.552)" fill="#fff"/>
    <path id="Trazado_117938" data-name="Trazado 117938" d="M104.459,102.888l-.981.617a.409.409,0,0,1-.427-.7l.981-.617a.409.409,0,0,1,.427.7Z" transform="translate(51.815 50.941)" fill="#fff"/>
    <path id="Trazado_117939" data-name="Trazado 117939" d="M103.233,103.668l-.981.617a.411.411,0,0,1-.554-.127.38.38,0,0,1,.111-.554l.981-.633a.411.411,0,0,1,.554.127A.427.427,0,0,1,103.233,103.668Z" transform="translate(51.203 51.332)" fill="#fff"/>
    <path id="Trazado_117940" data-name="Trazado 117940" d="M102,104.433l-.981.633a.412.412,0,0,1-.554-.127.38.38,0,0,1,.111-.554l.981-.633a.411.411,0,0,1,.443.681Z" transform="translate(50.595 51.737)" fill="#fff"/>
    <path id="Trazado_117941" data-name="Trazado 117941" d="M100.767,105.269l-.965.633a.411.411,0,0,1-.57-.111.427.427,0,0,1,.127-.57l.965-.617a.4.4,0,0,1,.443.665Z" transform="translate(49.99 52.148)" fill="#fff"/>
    <path id="Trazado_117942" data-name="Trazado 117942" d="M99.589,106.032l-.981.633a.4.4,0,0,1-.554-.111.427.427,0,0,1,.111-.57l.965-.633a.427.427,0,0,1,.57.127.412.412,0,0,1-.111.554Z" transform="translate(49.404 52.527)" fill="#fff"/>
    <path id="Trazado_117943" data-name="Trazado 117943" d="M98.312,106.829l-.95.633a.4.4,0,1,1-.459-.665l.965-.633a.4.4,0,1,1,.443.665Z" transform="translate(48.78 52.931)" fill="#fff"/>
    <path id="Trazado_117944" data-name="Trazado 117944" d="M97.1,107.653l-.965.633a.4.4,0,1,1-.443-.665l.95-.649a.411.411,0,1,1,.459.681Z" transform="translate(48.179 53.326)" fill="#fff"/>
    <path id="Trazado_117945" data-name="Trazado 117945" d="M95.884,108.44l-.965.649a.4.4,0,1,1-.443-.665l.965-.649a.4.4,0,0,1,.554.111.38.38,0,0,1-.111.554Z" transform="translate(47.575 53.739)" fill="#fff"/>
    <path id="Trazado_117946" data-name="Trazado 117946" d="M94.662,109.276l-.95.633a.4.4,0,1,1-.459-.665l.965-.649a.4.4,0,0,1,.554.111A.412.412,0,0,1,94.662,109.276Z" transform="translate(46.972 54.151)" fill="#fff"/>
    <path id="Trazado_117947" data-name="Trazado 117947" d="M93.454,110.069l-.965.633a.4.4,0,0,1-.443-.665l.965-.633a.4.4,0,0,1,.443.665Z" transform="translate(46.372 54.559)" fill="#fff"/>
    <path id="Trazado_117948" data-name="Trazado 117948" d="M92.244,110.88l-.965.649a.4.4,0,1,1-.443-.665l.95-.649a.4.4,0,1,1,.459.665Z" transform="translate(45.772 54.964)" fill="#fff"/>
    <path id="Trazado_117949" data-name="Trazado 117949" d="M91.021,111.7l-.95.633a.38.38,0,0,1-.554-.111.4.4,0,0,1,.095-.554l.965-.649a.406.406,0,0,1,.443.681Z" transform="translate(45.171 55.373)" fill="#fff"/>
    <path id="Trazado_117950" data-name="Trazado 117950" d="M89.815,112.509l-.965.649a.427.427,0,0,1-.554-.111.4.4,0,0,1,.111-.554l.965-.649a.4.4,0,0,1,.443.665Z" transform="translate(44.568 55.784)" fill="#fff"/>
    <path id="Trazado_117951" data-name="Trazado 117951" d="M88.584,113.316l-.965.649a.4.4,0,1,1-.443-.665l.95-.649a.443.443,0,0,1,.57.111.412.412,0,0,1-.111.554Z" transform="translate(43.959 56.193)" fill="#fff"/>
    <path id="Trazado_117952" data-name="Trazado 117952" d="M87.382,114.142l-.965.633a.4.4,0,0,1-.554-.111.411.411,0,0,1,.111-.554l.965-.633a.4.4,0,0,1,.554.095.412.412,0,0,1-.111.57Z" transform="translate(43.366 56.6)" fill="#fff"/>
    <path id="Trazado_117953" data-name="Trazado 117953" d="M86.174,114.95l-.965.633a.4.4,0,0,1-.443-.665l.965-.633a.4.4,0,0,1,.554.111.427.427,0,0,1-.111.554Z" transform="translate(42.766 57.009)" fill="#fff"/>
    <path id="Trazado_117954" data-name="Trazado 117954" d="M84.957,115.748l-.965.649a.411.411,0,0,1-.554-.111.38.38,0,0,1,.111-.554l.965-.649a.411.411,0,0,1,.554.111.4.4,0,0,1-.111.554Z" transform="translate(42.159 57.412)" fill="#fff"/>
    <path id="Trazado_117955" data-name="Trazado 117955" d="M83.735,116.56l-.965.633a.4.4,0,1,1-.443-.665l.965-.633a.4.4,0,0,1,.554.111A.411.411,0,0,1,83.735,116.56Z" transform="translate(41.557 57.817)" fill="#fff"/>
    <path id="Trazado_117956" data-name="Trazado 117956" d="M82.5,117.358l-.965.633a.427.427,0,0,1-.554-.111.412.412,0,0,1,.127-.554l.965-.633a.4.4,0,1,1,.427.665Z" transform="translate(40.951 58.221)" fill="#fff"/>
    <path id="Trazado_117957" data-name="Trazado 117957" d="M81.282,118.16l-.981.617a.38.38,0,0,1-.538-.111.411.411,0,0,1,.111-.554l.981-.617a.38.38,0,0,1,.538.111.4.4,0,0,1-.111.554Z" transform="translate(40.345 58.622)" fill="#fff"/>
    <path id="Trazado_117958" data-name="Trazado 117958" d="M80.052,118.948l-.981.617a.38.38,0,0,1-.538-.111.412.412,0,0,1,.111-.554l.981-.617a.4.4,0,1,1,.427.665Z" transform="translate(39.736 59.02)" fill="#fff"/>
    <path id="Trazado_117959" data-name="Trazado 117959" d="M78.828,119.767l-.981.617a.4.4,0,1,1-.427-.681l1.029-.681a.38.38,0,0,1,.538.127.412.412,0,0,1-.158.617Z" transform="translate(39.12 59.389)" fill="#fff"/>
    <path id="Trazado_117960" data-name="Trazado 117960" d="M77.6,120.523l-.981.6a.4.4,0,1,1-.411-.665l.965-.617a.4.4,0,0,1,.427.681Z" transform="translate(38.495 59.803)" fill="#fff"/>
    <path id="Trazado_117961" data-name="Trazado 117961" d="M76.346,121.272l-.981.6a.411.411,0,0,1-.554-.127.4.4,0,0,1,.127-.538l1-.617h0a.4.4,0,0,1,.412.681Z" transform="translate(37.895 60.182)" fill="#fff"/>
    <path id="Trazado_117962" data-name="Trazado 117962" d="M75.112,122.046l-.981.6a.4.4,0,1,1-.412-.665h0l.981-.6h0a.412.412,0,0,1,.554.127A.4.4,0,0,1,75.112,122.046Z" transform="translate(37.261 60.578)" fill="#fff"/>
    <path id="Trazado_117963" data-name="Trazado 117963" d="M73.833,122.818l-1,.6a.4.4,0,0,1-.4-.681h0l.981-.6h0a.4.4,0,1,1,.4.681Z" transform="translate(36.668 60.95)" fill="#fff"/>
    <path id="Trazado_117964" data-name="Trazado 117964" d="M72.573,123.568l-1,.586a.4.4,0,0,1-.4-.681h0l1-.586h0a.4.4,0,1,1,.4.681Z" transform="translate(36.043 61.327)" fill="#fff"/>
    <path id="Trazado_117965" data-name="Trazado 117965" d="M71.313,124.278l-1,.57a.4.4,0,0,1-.4-.681h0l1-.57h0a.4.4,0,1,1,.4.681Z" transform="translate(35.419 61.684)" fill="#fff"/>
    <path id="Trazado_117966" data-name="Trazado 117966" d="M70.057,125.03l-1.013.57a.38.38,0,0,1-.522-.158.364.364,0,0,1,.142-.522h0l1.013-.57h0a.4.4,0,0,1,.538.142A.411.411,0,0,1,70.057,125.03Z" transform="translate(34.779 62.073)" fill="#fff"/>
    <path id="Trazado_117967" data-name="Trazado 117967" d="M68.789,125.777l-1.013.554a.4.4,0,0,1-.538-.158.38.38,0,0,1,.158-.522h0l1.076-.633h0a.38.38,0,0,1,.522.158.4.4,0,0,1-.206.6Z" transform="translate(34.146 62.41)" fill="#fff"/>
    <path id="Trazado_117968" data-name="Trazado 117968" d="M67.5,126.44l-1.013.554a.4.4,0,0,1-.38-.7h0l1.013-.538h0a.4.4,0,0,1,.364.7Z" transform="translate(33.509 62.796)" fill="#fff"/>
    <path id="Trazado_117969" data-name="Trazado 117969" d="M66.205,127.139l-1.013.554a.412.412,0,0,1-.538-.174.4.4,0,0,1,.174-.522h0l1.013-.538h0a.4.4,0,0,1,.538.158.38.38,0,0,1-.174.522Z" transform="translate(32.872 63.135)" fill="#fff"/>
    <path id="Trazado_117970" data-name="Trazado 117970" d="M64.921,127.821l-1.029.538a.412.412,0,0,1-.538-.174.4.4,0,0,1,.174-.522h0l1.029-.538h0a.412.412,0,0,1,.538.174A.4.4,0,0,1,64.921,127.821Z" transform="translate(32.228 63.475)" fill="#fff"/>
    <path id="Trazado_117971" data-name="Trazado 117971" d="M63.565,128.491,62.536,129a.4.4,0,0,1-.348-.7h0l1.029-.506h0a.411.411,0,0,1,.538.174.38.38,0,0,1-.19.522Z" transform="translate(31.593 63.813)" fill="#fff"/>
    <path id="Trazado_117972" data-name="Trazado 117972" d="M62.3,129.132l-1.045.506a.393.393,0,1,1-.332-.712h0l1.029-.491h0a.38.38,0,0,1,.522.19A.4.4,0,0,1,62.3,129.132Z" transform="translate(30.93 64.133)" fill="#fff"/>
    <path id="Trazado_117973" data-name="Trazado 117973" d="M60.987,129.777l-1.045.475a.4.4,0,1,1-.332-.712h0l1.06-.475h0a.4.4,0,1,1,.317.712Z" transform="translate(30.256 64.435)" fill="#fff"/>
    <path id="Trazado_117974" data-name="Trazado 117974" d="M59.589,130.359l-1.06.443a.38.38,0,0,1-.506-.19.4.4,0,0,1,.206-.522h0l1.06-.443h0a.4.4,0,0,1,.3.728Z" transform="translate(29.59 64.756)" fill="#fff"/>
    <path id="Trazado_117975" data-name="Trazado 117975" d="M58.305,130.939l-1.076.427a.4.4,0,1,1-.285-.728h0l1.076-.427h0a.38.38,0,0,1,.506.222A.4.4,0,0,1,58.305,130.939Z" transform="translate(28.917 65.032)" fill="#fff"/>
    <path id="Trazado_117976" data-name="Trazado 117976" d="M56.927,131.467l-1.092.4a.388.388,0,1,1-.269-.728h0l1.076-.4h0a.38.38,0,0,1,.491.222A.4.4,0,0,1,56.927,131.467Z" transform="translate(28.26 65.302)" fill="#fff"/>
    <path id="Trazado_117977" data-name="Trazado 117977" d="M55.531,131.97l-1.092.364a.4.4,0,0,1-.491-.253.38.38,0,0,1,.237-.491h0l1.076-.364h0a.4.4,0,0,1,.491.253A.411.411,0,0,1,55.531,131.97Z" transform="translate(27.577 65.552)" fill="#fff"/>
    <path id="Trazado_117978" data-name="Trazado 117978" d="M54.145,132.42l-1.124.332a.388.388,0,0,1-.222-.744h0l1.092-.332h0a.38.38,0,0,1,.475.253A.4.4,0,0,1,54.145,132.42Z" transform="translate(26.885 65.779)" fill="#fff"/>
    <path id="Trazado_117979" data-name="Trazado 117979" d="M52.722,132.828l-1.124.285a.412.412,0,0,1-.475-.285.38.38,0,0,1,.285-.459h0l1.124-.285h0a.384.384,0,1,1,.19.744Z" transform="translate(26.183 65.989)" fill="#fff"/>
    <path id="Trazado_117980" data-name="Trazado 117980" d="M51.3,133.183l-1.14.253a.412.412,0,0,1-.459-.3.38.38,0,0,1,.3-.459h0l1.124-.253h0a.39.39,0,0,1,.174.76Z" transform="translate(25.48 66.161)" fill="#fff"/>
    <path id="Trazado_117981" data-name="Trazado 117981" d="M49.86,133.483l-1.155.19a.364.364,0,0,1-.443-.317.4.4,0,0,1,.317-.443h0l1.14-.19h0a.38.38,0,0,1,.459.3.411.411,0,0,1-.317.459Z" transform="translate(24.769 66.314)" fill="#fff"/>
    <path id="Trazado_117982" data-name="Trazado 117982" d="M48.4,133.734l-1.155.158a.4.4,0,0,1-.427-.348.38.38,0,0,1,.3-.491h0l1.14-.142h0a.383.383,0,1,1,.095.76Z" transform="translate(24.047 66.411)" fill="#fff"/>
    <path id="Trazado_117983" data-name="Trazado 117983" d="M46.892,133.852l-1.155.095a.4.4,0,0,1,0-.776h1.14a.38.38,0,0,1,.427.348.4.4,0,0,1-.411.332Z" transform="translate(23.364 66.548)" fill="#fff"/>
    <path id="Trazado_117984" data-name="Trazado 117984" d="M45.451,133.97H44.28a.38.38,0,1,1,0-.76h1.14a.4.4,0,0,1,.4.38.38.38,0,0,1-.364.38Z" transform="translate(22.611 66.57)" fill="#fff"/>
    <path id="Trazado_117985" data-name="Trazado 117985" d="M43.981,134H42.81a.4.4,0,0,1-.38-.4.412.412,0,0,1,.4-.38h1.14a.38.38,0,0,1,.38.4A.4.4,0,0,1,43.981,134Z" transform="translate(21.883 66.574)" fill="#fff"/>
    <path id="Trazado_117986" data-name="Trazado 117986" d="M42.484,133.971l-1.155-.095a.4.4,0,0,1-.348-.427.38.38,0,0,1,.412-.348h0l1.14.095h0a.388.388,0,1,1-.047.776Z" transform="translate(21.164 66.51)" fill="#fff"/>
    <path id="Trazado_117987" data-name="Trazado 117987" d="M41.02,133.839l-1.155-.158a.383.383,0,1,1,.095-.76h0l1.14.158h0a.382.382,0,0,1-.079.76Z" transform="translate(20.445 66.417)" fill="#fff"/>
    <path id="Trazado_117988" data-name="Trazado 117988" d="M39.533,133.634l-1.14-.222a.4.4,0,0,1-.3-.459.38.38,0,0,1,.443-.3h0l1.124.237h0a.4.4,0,0,1,.3.443.38.38,0,0,1-.427.3Z" transform="translate(23.109 66.279)" fill="#fff"/>
    <path id="Trazado_117989" data-name="Trazado 117989" d="M38.092,133.39l-1.124-.3a.411.411,0,0,1-.285-.475.38.38,0,0,1,.475-.269h0l1.108.3h0a.382.382,0,0,1-.174.744Z" transform="translate(22.287 66.118)" fill="#fff"/>
    <path id="Trazado_117990" data-name="Trazado 117990" d="M36.654,132.964l-1.108-.38a.364.364,0,0,1-.237-.475.4.4,0,0,1,.491-.253h0l1.092.364h0a.39.39,0,0,1-.237.744Z" transform="translate(21.478 65.868)" fill="#fff"/>
    <path id="Trazado_117991" data-name="Trazado 117991" d="M35.262,132.494l-1.076-.459a.38.38,0,1,1,.285-.7h0l1.06.443h0a.387.387,0,0,1-.3.712Z" transform="translate(20.67 65.588)" fill="#fff"/>
    <path id="Trazado_117992" data-name="Trazado 117992" d="M33.873,131.91l-1.045-.522a.4.4,0,0,1-.174-.522.38.38,0,0,1,.522-.158h0l1.029.522h0a.4.4,0,0,1,.158.522.364.364,0,0,1-.491.158Z" transform="translate(19.922 65.271)" fill="#fff"/>
    <path id="Trazado_117993" data-name="Trazado 117993" d="M32.534,131.247l-1-.617a.38.38,0,1,1,.4-.649h0l.965.586h0a.364.364,0,0,1,.127.522.38.38,0,0,1-.491.158Z" transform="translate(19.187 64.9)" fill="#fff"/>
    <path id="Trazado_117994" data-name="Trazado 117994" d="M31.255,130.506l-.95-.681a.4.4,0,0,1-.079-.538.38.38,0,0,1,.538-.079h0l.934.681h0a.4.4,0,0,1,.079.538.38.38,0,0,1-.522.079Z" transform="translate(18.488 64.498)" fill="#fff"/>
    <path id="Trazado_117995" data-name="Trazado 117995" d="M30.059,129.612l-.886-.776a.38.38,0,1,1,.506-.554l.87.744h0a.38.38,0,0,1,0,.538.4.4,0,0,1-.491.047Z" transform="translate(17.817 63.998)" fill="#fff"/>
    <path id="Trazado_117996" data-name="Trazado 117996" d="M28.906,128.618l-.807-.839a.4.4,0,0,1,0-.538.38.38,0,0,1,.538,0h0l.791.807h0a.381.381,0,1,1-.554.522Z" transform="translate(17.229 63.489)" fill="#fff"/>
    <path id="Trazado_117997" data-name="Trazado 117997" d="M27.885,127.574l-.744-.918a.375.375,0,0,1,.522-.538h0l.712.886h0a.38.38,0,0,1-.586.475Z" transform="translate(16.667 62.929)" fill="#fff"/>
    <path id="Trazado_117998" data-name="Trazado 117998" d="M26.929,126.385l-.665-.965a.382.382,0,1,1,.633-.427h0l.633.95h0a.38.38,0,1,1-.633.412Z" transform="translate(16.183 62.326)" fill="#fff"/>
    <path id="Trazado_117999" data-name="Trazado 117999" d="M26.091,125.152l-.586-1.029a.379.379,0,0,1,.665-.364h0l.554,1h0a.38.38,0,0,1-.649.364Z" transform="translate(15.755 61.699)" fill="#fff"/>
    <path id="Trazado_118000" data-name="Trazado 118000" d="M25.353,123.865l-.491-1.076a.382.382,0,1,1,.7-.317h0l.475,1.045h0a.348.348,0,0,1-.174.491.364.364,0,0,1-.506-.142Z" transform="translate(15.384 61.03)" fill="#fff"/>
    <path id="Trazado_118001" data-name="Trazado 118001" d="M24.724,122.5l-.4-1.108a.37.37,0,0,1,.7-.253h0l.4,1.076h0a.381.381,0,1,1-.712.269Z" transform="translate(15.08 60.351)" fill="#fff"/>
    <path id="Trazado_118002" data-name="Trazado 118002" d="M24.211,121.1l-.317-1.124a.4.4,0,0,1,.269-.475.38.38,0,0,1,.459.269h0l.317,1.092h0a.364.364,0,0,1-.269.459.38.38,0,0,1-.459-.222Z" transform="translate(14.833 59.646)" fill="#fff"/>
    <path id="Trazado_118003" data-name="Trazado 118003" d="M23.8,119.661l-.222-1.155a.38.38,0,0,1,.744-.142h0l.222,1.108h0a.364.364,0,0,1-.3.443A.38.38,0,0,1,23.8,119.661Z" transform="translate(14.656 58.938)" fill="#fff"/>
    <path id="Trazado_118004" data-name="Trazado 118004" d="M23.523,118.2l-.142-1.171a.38.38,0,0,1,.332-.412.4.4,0,0,1,.427.332h0l.127,1.124h0a.377.377,0,0,1-.744.127Z" transform="translate(14.54 58.202)" fill="#fff"/>
    <path id="Trazado_118005" data-name="Trazado 118005" d="M23.33,116.711v-1.155a.38.38,0,0,1,.364-.4.4.4,0,0,1,.4.364h0v1.14h0a.38.38,0,0,1-.744,0Z" transform="translate(14.511 57.471)" fill="#fff"/>
    <path id="Trazado_118006" data-name="Trazado 118006" d="M23.313,115.254V114.1a.38.38,0,1,1,.744,0h0v1.14h0a.38.38,0,0,1-.4.348.348.348,0,0,1-.348-.332Z" transform="translate(14.497 56.705)" fill="#fff"/>
    <path id="Trazado_118007" data-name="Trazado 118007" d="M23.411,113.739l.142-1.171a.38.38,0,0,1,.427-.317.364.364,0,0,1,.317.411h0l-.142,1.14h0a.38.38,0,0,1-.427.317.348.348,0,0,1-.317-.38Z" transform="translate(14.557 56.007)" fill="#fff"/>
    <path id="Trazado_118008" data-name="Trazado 118008" d="M23.632,112.248l.253-1.14a.364.364,0,0,1,.443-.285.38.38,0,0,1,.285.443h0l-.253,1.108h0a.4.4,0,0,1-.443.3A.38.38,0,0,1,23.632,112.248Z" transform="translate(14.684 55.287)" fill="#fff"/>
    <path id="Trazado_118009" data-name="Trazado 118009" d="M24,110.787l.348-1.108a.364.364,0,0,1,.459-.253.38.38,0,0,1,.253.475h0l-.332,1.076h0a.376.376,0,0,1-.728-.19Z" transform="translate(14.898 54.583)" fill="#fff"/>
    <path id="Trazado_118010" data-name="Trazado 118010" d="M24.469,109.362l.222-.538c0-.19.158-.364.222-.538a.376.376,0,0,1,.7.285h0l-.237.522-.206.522h0a.38.38,0,1,1-.7-.285Z" transform="translate(15.145 53.902)" fill="#fff"/>
    <path id="Trazado_118011" data-name="Trazado 118011" d="M25.064,107.986l.554-1.045a.368.368,0,1,1,.649.348h0l-.538,1.013h0a.38.38,0,0,1-.506.158.348.348,0,0,1-.158-.475Z" transform="translate(15.499 53.249)" fill="#fff"/>
    <path id="Trazado_118012" data-name="Trazado 118012" d="M25.779,106.654l.633-.981a.38.38,0,0,1,.522-.111.364.364,0,0,1,.111.506h0l-.617.965h0a.38.38,0,0,1-.633-.411Z" transform="translate(15.924 52.626)" fill="#fff"/>
    <path id="Trazado_118013" data-name="Trazado 118013" d="M26.619,105.378l.728-.918a.348.348,0,0,1,.506,0,.364.364,0,0,1,.079.522h0l-.7.886h0a.364.364,0,0,1-.522,0,.38.38,0,0,1-.095-.491Z" transform="translate(16.398 52.049)" fill="#fff"/>
    <path id="Trazado_118014" data-name="Trazado 118014" d="M27.556,104.206l.791-.855a.38.38,0,0,1,.538,0,.364.364,0,0,1,0,.522h0l-.76.839h0a.38.38,0,0,1-.522,0,.4.4,0,0,1-.047-.506Z" transform="translate(16.933 51.492)" fill="#fff"/>
    <path id="Trazado_118015" data-name="Trazado 118015" d="M28.592,103.11l.855-.807a.38.38,0,0,1,.506.554h0l-.839.776h0a.364.364,0,0,1-.491-.538Z" transform="translate(17.527 50.993)" fill="#fff"/>
    <path id="Trazado_118016" data-name="Trazado 118016" d="M29.732,102.092l.918-.712a.366.366,0,1,1,.459.57h0l-.9.7h0a.38.38,0,1,1-.459-.586Z" transform="translate(18.128 50.52)" fill="#fff"/>
    <path id="Trazado_118017" data-name="Trazado 118017" d="M30.889,101.171l.981-.649a.364.364,0,0,1,.506.111.38.38,0,0,1-.095.506h0l-.95.633h0a.374.374,0,0,1-.443-.6Z" transform="translate(18.839 50.103)" fill="#fff"/>
    <path id="Trazado_118018" data-name="Trazado 118018" d="M32.155,100.326l1.013-.57a.38.38,0,0,1,.364.649h0l-1,.57h0a.376.376,0,0,1-.38-.649Z" transform="translate(19.551 49.742)" fill="#fff"/>
    <path id="Trazado_118019" data-name="Trazado 118019" d="M33.455,99.613l1.076-.491a.365.365,0,0,1,.3.665h0l-1.029.475h0a.364.364,0,0,1-.491-.174A.38.38,0,0,1,33.455,99.613Z" transform="translate(20.309 49.418)" fill="#fff"/>
    <path id="Trazado_118020" data-name="Trazado 118020" d="M34.835,98.989l1.092-.412a.38.38,0,0,1,.475.222.364.364,0,0,1-.222.475h0l-1.076.4h0a.348.348,0,0,1-.475-.206.364.364,0,0,1,.206-.475Z" transform="translate(21.08 49.152)" fill="#fff"/>
    <path id="Trazado_118021" data-name="Trazado 118021" d="M36.237,98.459l1.124-.3a.364.364,0,1,1,.206.7h0l-1.108.3h0a.348.348,0,0,1-.443-.253.364.364,0,0,1,.222-.443Z" transform="translate(21.894 48.943)" fill="#fff"/>
    <path id="Trazado_118022" data-name="Trazado 118022" d="M37.678,98.083l1.155-.222a.38.38,0,0,1,.427.285.4.4,0,0,1-.285.443h0l-1.124.206h0a.367.367,0,0,1-.174-.712Z" transform="translate(22.717 48.805)" fill="#fff"/>
    <path id="Trazado_118023" data-name="Trazado 118023" d="M39.14,97.771l1.171-.111a.364.364,0,0,1,0,.728h0l-1.14.111h0a.364.364,0,0,1-.411-.317.38.38,0,0,1,.38-.411Z" transform="translate(20.065 48.709)" fill="#fff"/>
    <path id="Trazado_118024" data-name="Trazado 118024" d="M40.654,97.62h1.171a.348.348,0,0,1,.364.348.364.364,0,0,1-.364.38H40.654a.364.364,0,0,1,0-.728Z" transform="translate(20.823 48.692)" fill="#fff"/>
    <path id="Trazado_118025" data-name="Trazado 118025" d="M42.146,97.63h1.171a.365.365,0,1,1-.063.728h-1.14a.364.364,0,1,1,0-.728Z" transform="translate(21.546 48.697)" fill="#fff"/>
    <path id="Trazado_118026" data-name="Trazado 118026" d="M43.618,97.782,44.789,98a.364.364,0,0,1,.285.427.348.348,0,0,1-.427.285h0l-1.124-.206h0a.369.369,0,1,1,.127-.728Z" transform="translate(22.273 48.765)" fill="#fff"/>
    <path id="Trazado_118027" data-name="Trazado 118027" d="M45.088,98.1l1.124.364a.365.365,0,0,1-.222.7h0l-1.076-.348h0a.365.365,0,0,1,.222-.7Z" transform="translate(22.988 48.924)" fill="#fff"/>
    <path id="Trazado_118028" data-name="Trazado 118028" d="M46.51,98.623l1.076.522a.38.38,0,0,1,.158.491.364.364,0,0,1-.491.158h0l-1.029-.554h0a.34.34,0,1,1,.285-.617Z" transform="translate(23.663 49.165)" fill="#fff"/>
    <path id="Trazado_118029" data-name="Trazado 118029" d="M47.865,99.379a8.39,8.39,0,0,1,.95.728.348.348,0,0,1,0,.506.38.38,0,0,1-.522,0,9.388,9.388,0,0,0-.886-.681.38.38,0,0,1-.095-.506.364.364,0,0,1,.554-.047Z" transform="translate(24.275 49.504)" fill="#fff"/>
    <path id="Trazado_118030" data-name="Trazado 118030" d="M49,100.339l.38.459.206.237.174.237a.364.364,0,0,1,0,.506.38.38,0,0,1-.522,0h0a2.708,2.708,0,0,0-.174-.222l-.174-.222-.364-.412h0a.364.364,0,0,1,0-.506.38.38,0,0,1,.475-.079Z" transform="translate(24.858 50.01)" fill="#fff"/>
    <path id="Trazado_118031" data-name="Trazado 118031" d="M49.926,101.633a9.844,9.844,0,0,1,.459,1.124.358.358,0,1,1-.681.222c-.127-.348-.269-.681-.427-1.013a.348.348,0,0,1,.158-.491.364.364,0,0,1,.491.158Z" transform="translate(25.261 50.58)" fill="#fff"/>
    <path id="Trazado_118032" data-name="Trazado 118032" d="M50.449,103.112a9.987,9.987,0,0,1,.158,1.2.38.38,0,0,1-.411.38.364.364,0,0,1-.38-.348,4.373,4.373,0,0,0-.142-1.092.348.348,0,0,1,.285-.427.38.38,0,0,1,.491.285Z" transform="translate(25.479 51.268)" fill="#fff"/>
    <path id="Trazado_118033" data-name="Trazado 118033" d="M50.58,104.666a10.223,10.223,0,0,1-.174,1.187.364.364,0,0,1-.443.269.348.348,0,0,1-.269-.427,6.488,6.488,0,0,0,.158-1.092.365.365,0,1,1,.728.063Z" transform="translate(25.489 52.002)" fill="#fff"/>
    <path id="Trazado_118034" data-name="Trazado 118034" d="M50.353,106.181a7.154,7.154,0,0,1-.57,1.092.36.36,0,0,1-.6-.4,5.619,5.619,0,0,0,.506-.965.348.348,0,0,1,.475-.19.332.332,0,0,1,.19.459Z" transform="translate(25.207 52.718)" fill="#fff"/>
    <path id="Trazado_118035" data-name="Trazado 118035" d="M49.614,107.515a5.967,5.967,0,0,1-.981.791.364.364,0,0,1-.38-.617,4.937,4.937,0,0,0,.839-.681.38.38,0,0,1,.522,0A.364.364,0,0,1,49.614,107.515Z" transform="translate(24.699 53.336)" fill="#fff"/>
  </g>
</svg>
