<svg xmlns="http://www.w3.org/2000/svg" width="876" height="202" viewBox="0 0 876 202">
  <g id="Grupo_18897" data-name="Grupo 18897" transform="translate(-522 -1769)">
    <g id="Grupo_18862" data-name="Grupo 18862">
      <path id="Trazado_35176" data-name="Trazado 35176" d="M101,0A101,101,0,1,1,0,101,101,101,0,0,1,101,0Z" transform="translate(522 1769)" fill="#fd8f25"/>
      <path id="Trazado_35177" data-name="Trazado 35177" d="M101,0A101,101,0,1,1,0,101,101,101,0,0,1,101,0Z" transform="translate(859 1769)" fill="#00ffe2"/>
      <path id="Trazado_35178" data-name="Trazado 35178" d="M101,0A101,101,0,1,1,0,101,101,101,0,0,1,101,0Z" transform="translate(1196 1769)" fill="#472ea6"/>
      <path id="Trazado_35179" data-name="Trazado 35179" d="M-30.54.215A7.5,7.5,0,0,1-34.848-.972,4.761,4.761,0,0,1-36.942-4.3l3.33-.763A2.828,2.828,0,0,0-32.586-3.1a3.4,3.4,0,0,0,2.175.682,2.81,2.81,0,0,0,1.7-.478,1.612,1.612,0,0,0,.645-1.413,1.506,1.506,0,0,0-.548-1.149,3.58,3.58,0,0,0-1.09-.7q-.542-.209-1.746-.575-.161-.054-.236-.075Q-32.3-7-32.678-7.133t-.929-.36a6.188,6.188,0,0,1-.9-.451,6.607,6.607,0,0,1-.747-.559,2.926,2.926,0,0,1-.623-.714,3.8,3.8,0,0,1-.376-.892,3.935,3.935,0,0,1-.15-1.106,4.155,4.155,0,0,1,.725-2.444,4.441,4.441,0,0,1,1.955-1.558,7.116,7.116,0,0,1,2.8-.521,8.84,8.84,0,0,1,2.025.226,7.093,7.093,0,0,1,1.81.693,4.434,4.434,0,0,1,1.445,1.278,4.807,4.807,0,0,1,.822,1.885l-3.115.773a2.524,2.524,0,0,0-2.793-2.224,3.058,3.058,0,0,0-1.729.451,1.529,1.529,0,0,0-.677,1.364q0,.849,1.128,1.375a16.808,16.808,0,0,0,2.159.741q.634.193,1.031.322t1,.376A6.942,6.942,0,0,1-26.845-8a7.234,7.234,0,0,1,.816.6,3.211,3.211,0,0,1,.693.773,4.182,4.182,0,0,1,.424.961,4.018,4.018,0,0,1,.172,1.2,4.706,4.706,0,0,1-.312,1.751A3.811,3.811,0,0,1-25.9-1.4a4.959,4.959,0,0,1-1.284.908,6.228,6.228,0,0,1-1.579.537A9.082,9.082,0,0,1-30.54.215Zm18.756-5.9-.032.741H-20a2.859,2.859,0,0,0,.881,2.02,2.817,2.817,0,0,0,1.944.7A2.715,2.715,0,0,0-15.721-2.6a2.344,2.344,0,0,0,.929-1.112l2.836.419A4.821,4.821,0,0,1-13.89-.709a5.749,5.749,0,0,1-3.266.924,5.978,5.978,0,0,1-4.3-1.52,5.546,5.546,0,0,1-1.6-4.216,5.579,5.579,0,0,1,1.6-4.216,5.8,5.8,0,0,1,4.2-1.542,5.544,5.544,0,0,1,3.964,1.407A5.52,5.52,0,0,1-11.784-5.683ZM-17.23-9.088a2.445,2.445,0,0,0-2.686,2.127h5.07a2.326,2.326,0,0,0-.763-1.579A2.417,2.417,0,0,0-17.23-9.088ZM-4.437.2A5.9,5.9,0,0,1-8.7-1.386a5.491,5.491,0,0,1-1.654-4.146A5.479,5.479,0,0,1-8.707-9.679a5.918,5.918,0,0,1,4.27-1.579A5.884,5.884,0,0,1-.859-10.194a4.748,4.748,0,0,1,1.848,3l-2.857.312a2.448,2.448,0,0,0-.924-1.45,2.809,2.809,0,0,0-1.676-.483,2.533,2.533,0,0,0-2.02.9,3.538,3.538,0,0,0-.773,2.385,3.542,3.542,0,0,0,.773,2.379,2.526,2.526,0,0,0,2.02.908A2.785,2.785,0,0,0-2.8-2.729a2.505,2.505,0,0,0,.929-1.45l2.857.312a4.761,4.761,0,0,1-1.864,3A5.86,5.86,0,0,1-4.437.2ZM7.3,0A3.335,3.335,0,0,1,4.813-.9a3.489,3.489,0,0,1-.881-2.551V-8.669H1.762v-2.374h.7A1.822,1.822,0,0,0,3.835-11.5a2.378,2.378,0,0,0,.44-1.644v-1.461H7.068v3.566H9.346v2.374H7.068v4.888q0,1.429,1.278,1.429h1V0Zm9.539.215a6.944,6.944,0,0,1-3.126-.677,5.058,5.058,0,0,1-2.143-1.987A5.922,5.922,0,0,1,10.8-5.532a5.4,5.4,0,0,1,1.676-4.189,6.217,6.217,0,0,1,4.372-1.536,6.232,6.232,0,0,1,4.383,1.536A5.4,5.4,0,0,1,22.9-5.532a5.432,5.432,0,0,1-1.676,4.206A6.219,6.219,0,0,1,16.844.215Zm-.032-2.46A2.835,2.835,0,0,0,19-3.147a3.378,3.378,0,0,0,.833-2.385A3.378,3.378,0,0,0,19-7.917a2.835,2.835,0,0,0-2.186-.9,2.731,2.731,0,0,0-2.122.908,3.409,3.409,0,0,0-.822,2.379,3.409,3.409,0,0,0,.822,2.379A2.731,2.731,0,0,0,16.812-2.245ZM28.166-9.292a3.585,3.585,0,0,1,1.45-1.327,4.425,4.425,0,0,1,2.159-.553v2.761a4.183,4.183,0,0,0-2.643.666,2.908,2.908,0,0,0-.816,2.363V0H25.2V-11.043h2.965Zm-64.228,23.77a4.671,4.671,0,0,1,3.577,1.445,5.026,5.026,0,0,1,1.354,3.572,4.9,4.9,0,0,1-1.343,3.55,4.756,4.756,0,0,1-3.588,1.391h-3.233V30h-3.223V14.478Zm-.537,7.262a2.368,2.368,0,0,0,1.772-.607,2.308,2.308,0,0,0,.591-1.681,2.289,2.289,0,0,0-.6-1.66,2.347,2.347,0,0,0-1.767-.618h-2.7v4.565Zm10.731-1.031a3.585,3.585,0,0,1,1.45-1.327,4.425,4.425,0,0,1,2.159-.553v2.761a4.183,4.183,0,0,0-2.643.666,2.908,2.908,0,0,0-.816,2.363V30h-3.115V18.957h2.965Zm7-3.405a1.737,1.737,0,0,1-1.268-.521,1.71,1.71,0,0,1-.526-1.262,1.69,1.69,0,0,1,.532-1.251,1.742,1.742,0,0,1,1.262-.521,1.712,1.712,0,0,1,1.246.521,1.7,1.7,0,0,1,.526,1.251,1.71,1.71,0,0,1-.526,1.262A1.712,1.712,0,0,1-18.863,17.3ZM-20.442,30V18.957h3.115V30Zm19.4-11.258a4.219,4.219,0,0,1,2.847.9,3.209,3.209,0,0,1,1.042,2.573V30H-.247V23.093a1.845,1.845,0,0,0-.494-1.4,1.731,1.731,0,0,0-1.246-.473,2,2,0,0,0-1.5.6,2.732,2.732,0,0,0-.58,1.944V30H-7.2V23.125A1.894,1.894,0,0,0-7.691,21.7a1.762,1.762,0,0,0-1.278-.478,1.932,1.932,0,0,0-1.493.634,3.027,3.027,0,0,0-.58,2.073V30h-3.083V18.957h3.083v1.3a3.755,3.755,0,0,1,3.2-1.515,4.722,4.722,0,0,1,2.079.424A2.829,2.829,0,0,1-4.458,20.4,3.9,3.9,0,0,1-1.042,18.742ZM14.91,27a10.331,10.331,0,0,0,.269,2.7V30h-2.89l-.247-1.2A3.591,3.591,0,0,1,10.5,29.86a5.7,5.7,0,0,1-2,.354,5.254,5.254,0,0,1-1.031-.1,3.506,3.506,0,0,1-.929-.328,2.82,2.82,0,0,1-.768-.575,2.52,2.52,0,0,1-.516-.875,3.488,3.488,0,0,1-.193-1.2,3.322,3.322,0,0,1,.2-1.2,2.807,2.807,0,0,1,.537-.9,3.258,3.258,0,0,1,.87-.655,6.658,6.658,0,0,1,1.1-.473,13.092,13.092,0,0,1,1.311-.344l1.815-.408a2,2,0,0,0,.822-.349.7.7,0,0,0,.242-.553,1.14,1.14,0,0,0-.542-1.063A2.533,2.533,0,0,0,10.1,20.88a1.894,1.894,0,0,0-2.159,1.687L5.2,22.072a3.708,3.708,0,0,1,1.6-2.519,6.362,6.362,0,0,1,3.47-.811q4.641,0,4.641,3.985ZM9.464,28.12a2.488,2.488,0,0,0,1.912-.8,3.372,3.372,0,0,0,.741-2.369L9.5,25.692a3.1,3.1,0,0,0-1.1.451.927.927,0,0,0-.381.795,1.029,1.029,0,0,0,.408.875A1.689,1.689,0,0,0,9.464,28.12Zm11.419-7.412a3.585,3.585,0,0,1,1.45-1.327,4.425,4.425,0,0,1,2.159-.553v2.761a4.183,4.183,0,0,0-2.643.666,2.908,2.908,0,0,0-.816,2.363V30H17.918V18.957h2.965Zm7-3.405a1.737,1.737,0,0,1-1.268-.521,1.71,1.71,0,0,1-.526-1.262,1.69,1.69,0,0,1,.532-1.251,1.742,1.742,0,0,1,1.262-.521,1.778,1.778,0,0,1,0,3.556ZM26.308,30V18.957h3.115V30Zm11.462.215a6.944,6.944,0,0,1-3.126-.677A5.058,5.058,0,0,1,32.5,27.551a5.922,5.922,0,0,1-.779-3.083A5.4,5.4,0,0,1,33.4,20.278a6.217,6.217,0,0,1,4.372-1.536,6.232,6.232,0,0,1,4.383,1.536,5.4,5.4,0,0,1,1.676,4.189,5.432,5.432,0,0,1-1.676,4.206A6.219,6.219,0,0,1,37.77,30.215Zm-.032-2.46a2.835,2.835,0,0,0,2.186-.9,3.378,3.378,0,0,0,.833-2.385,3.378,3.378,0,0,0-.833-2.385,2.835,2.835,0,0,0-2.186-.9,2.731,2.731,0,0,0-2.122.908,3.409,3.409,0,0,0-.822,2.379,3.409,3.409,0,0,0,.822,2.379A2.731,2.731,0,0,0,37.737,27.755Z" transform="translate(624 1862)" fill="#00223d"/>
      <path id="Trazado_33302" data-name="Trazado 33302" d="M-30.54.215A7.5,7.5,0,0,1-34.848-.972,4.761,4.761,0,0,1-36.942-4.3l3.33-.763A2.828,2.828,0,0,0-32.586-3.1a3.4,3.4,0,0,0,2.175.682,2.81,2.81,0,0,0,1.7-.478,1.612,1.612,0,0,0,.645-1.413,1.506,1.506,0,0,0-.548-1.149,3.58,3.58,0,0,0-1.09-.7q-.542-.209-1.746-.575-.161-.054-.236-.075Q-32.3-7-32.678-7.133t-.929-.36a6.188,6.188,0,0,1-.9-.451,6.607,6.607,0,0,1-.747-.559,2.926,2.926,0,0,1-.623-.714,3.8,3.8,0,0,1-.376-.892,3.935,3.935,0,0,1-.15-1.106,4.155,4.155,0,0,1,.725-2.444,4.441,4.441,0,0,1,1.955-1.558,7.116,7.116,0,0,1,2.8-.521,8.84,8.84,0,0,1,2.025.226,7.093,7.093,0,0,1,1.81.693,4.434,4.434,0,0,1,1.445,1.278,4.807,4.807,0,0,1,.822,1.885l-3.115.773a2.524,2.524,0,0,0-2.793-2.224,3.058,3.058,0,0,0-1.729.451,1.529,1.529,0,0,0-.677,1.364q0,.849,1.128,1.375a16.808,16.808,0,0,0,2.159.741q.634.193,1.031.322t1,.376A6.942,6.942,0,0,1-26.845-8a7.234,7.234,0,0,1,.816.6,3.211,3.211,0,0,1,.693.773,4.182,4.182,0,0,1,.424.961,4.018,4.018,0,0,1,.172,1.2,4.706,4.706,0,0,1-.312,1.751A3.811,3.811,0,0,1-25.9-1.4a4.959,4.959,0,0,1-1.284.908,6.228,6.228,0,0,1-1.579.537A9.082,9.082,0,0,1-30.54.215Zm18.756-5.9-.032.741H-20a2.859,2.859,0,0,0,.881,2.02,2.817,2.817,0,0,0,1.944.7A2.715,2.715,0,0,0-15.721-2.6a2.344,2.344,0,0,0,.929-1.112l2.836.419A4.821,4.821,0,0,1-13.89-.709a5.749,5.749,0,0,1-3.266.924,5.978,5.978,0,0,1-4.3-1.52,5.546,5.546,0,0,1-1.6-4.216,5.579,5.579,0,0,1,1.6-4.216,5.8,5.8,0,0,1,4.2-1.542,5.544,5.544,0,0,1,3.964,1.407A5.52,5.52,0,0,1-11.784-5.683ZM-17.23-9.088a2.445,2.445,0,0,0-2.686,2.127h5.07a2.326,2.326,0,0,0-.763-1.579A2.417,2.417,0,0,0-17.23-9.088ZM-4.437.2A5.9,5.9,0,0,1-8.7-1.386a5.491,5.491,0,0,1-1.654-4.146A5.479,5.479,0,0,1-8.707-9.679a5.918,5.918,0,0,1,4.27-1.579A5.884,5.884,0,0,1-.859-10.194a4.748,4.748,0,0,1,1.848,3l-2.857.312a2.448,2.448,0,0,0-.924-1.45,2.809,2.809,0,0,0-1.676-.483,2.533,2.533,0,0,0-2.02.9,3.538,3.538,0,0,0-.773,2.385,3.542,3.542,0,0,0,.773,2.379,2.526,2.526,0,0,0,2.02.908A2.785,2.785,0,0,0-2.8-2.729a2.505,2.505,0,0,0,.929-1.45l2.857.312a4.761,4.761,0,0,1-1.864,3A5.86,5.86,0,0,1-4.437.2ZM7.3,0A3.335,3.335,0,0,1,4.813-.9a3.489,3.489,0,0,1-.881-2.551V-8.669H1.762v-2.374h.7A1.822,1.822,0,0,0,3.835-11.5a2.378,2.378,0,0,0,.44-1.644v-1.461H7.068v3.566H9.346v2.374H7.068v4.888q0,1.429,1.278,1.429h1V0Zm9.539.215a6.944,6.944,0,0,1-3.126-.677,5.058,5.058,0,0,1-2.143-1.987A5.922,5.922,0,0,1,10.8-5.532a5.4,5.4,0,0,1,1.676-4.189,6.217,6.217,0,0,1,4.372-1.536,6.232,6.232,0,0,1,4.383,1.536A5.4,5.4,0,0,1,22.9-5.532a5.432,5.432,0,0,1-1.676,4.206A6.219,6.219,0,0,1,16.844.215Zm-.032-2.46A2.835,2.835,0,0,0,19-3.147a3.378,3.378,0,0,0,.833-2.385A3.378,3.378,0,0,0,19-7.917a2.835,2.835,0,0,0-2.186-.9,2.731,2.731,0,0,0-2.122.908,3.409,3.409,0,0,0-.822,2.379,3.409,3.409,0,0,0,.822,2.379A2.731,2.731,0,0,0,16.812-2.245ZM28.166-9.292a3.585,3.585,0,0,1,1.45-1.327,4.425,4.425,0,0,1,2.159-.553v2.761a4.183,4.183,0,0,0-2.643.666,2.908,2.908,0,0,0-.816,2.363V0H25.2V-11.043h2.965ZM-53.3,30.215a7.5,7.5,0,0,1-4.308-1.187A4.761,4.761,0,0,1-59.705,25.7l3.33-.763a2.828,2.828,0,0,0,1.026,1.96,3.4,3.4,0,0,0,2.175.682,2.81,2.81,0,0,0,1.7-.478,1.612,1.612,0,0,0,.645-1.413,1.506,1.506,0,0,0-.548-1.149,3.58,3.58,0,0,0-1.09-.7q-.542-.209-1.746-.575-.161-.054-.236-.075-.612-.193-.988-.322t-.929-.36a6.188,6.188,0,0,1-.9-.451,6.607,6.607,0,0,1-.747-.559,2.926,2.926,0,0,1-.623-.714,3.8,3.8,0,0,1-.376-.892,3.935,3.935,0,0,1-.15-1.106,4.155,4.155,0,0,1,.725-2.444,4.441,4.441,0,0,1,1.955-1.558,7.116,7.116,0,0,1,2.8-.521,8.84,8.84,0,0,1,2.025.226,7.093,7.093,0,0,1,1.81.693,4.434,4.434,0,0,1,1.445,1.278,4.807,4.807,0,0,1,.822,1.885l-3.115.773A2.524,2.524,0,0,0-53.5,16.895a3.058,3.058,0,0,0-1.729.451A1.529,1.529,0,0,0-55.9,18.71q0,.849,1.128,1.375a16.808,16.808,0,0,0,2.159.741q.634.193,1.031.322t1,.376a6.942,6.942,0,0,1,.978.478,7.233,7.233,0,0,1,.816.6,3.211,3.211,0,0,1,.693.773,4.182,4.182,0,0,1,.424.961,4.018,4.018,0,0,1,.172,1.2,4.706,4.706,0,0,1-.312,1.751,3.811,3.811,0,0,1-.854,1.321,4.959,4.959,0,0,1-1.284.908,6.228,6.228,0,0,1-1.579.537A9.082,9.082,0,0,1-53.3,30.215Zm18.756-5.9-.032.741h-8.186a2.859,2.859,0,0,0,.881,2.02,2.817,2.817,0,0,0,1.944.7,2.715,2.715,0,0,0,1.456-.381,2.344,2.344,0,0,0,.929-1.112l2.836.419a4.821,4.821,0,0,1-1.934,2.589,5.749,5.749,0,0,1-3.266.924,5.978,5.978,0,0,1-4.3-1.52,5.546,5.546,0,0,1-1.6-4.216,5.579,5.579,0,0,1,1.6-4.216,5.8,5.8,0,0,1,4.2-1.542,5.544,5.544,0,0,1,3.964,1.407A5.52,5.52,0,0,1-34.547,24.317Zm-5.446-3.405a2.445,2.445,0,0,0-2.686,2.127h5.07a2.326,2.326,0,0,0-.763-1.579A2.417,2.417,0,0,0-39.993,20.912ZM-27.2,30.2a5.9,5.9,0,0,1-4.265-1.59,5.491,5.491,0,0,1-1.654-4.146,5.479,5.479,0,0,1,1.649-4.146,5.918,5.918,0,0,1,4.27-1.579,5.884,5.884,0,0,1,3.577,1.063,4.748,4.748,0,0,1,1.848,3l-2.857.312a2.448,2.448,0,0,0-.924-1.45,2.809,2.809,0,0,0-1.676-.483,2.533,2.533,0,0,0-2.02.9,3.538,3.538,0,0,0-.773,2.385,3.542,3.542,0,0,0,.773,2.379,2.526,2.526,0,0,0,2.02.908,2.785,2.785,0,0,0,1.67-.483,2.505,2.505,0,0,0,.929-1.45l2.857.312a4.761,4.761,0,0,1-1.864,3A5.86,5.86,0,0,1-27.2,30.2Zm14.942-11.247h3.094V30H-12.1l-.075-1.332a4.217,4.217,0,0,1-3.513,1.547,4.3,4.3,0,0,1-3.051-.994A3.684,3.684,0,0,1-19.8,26.391V18.957h3.1v6.768a1.909,1.909,0,0,0,.553,1.515,2.1,2.1,0,0,0,1.434.483,2.49,2.49,0,0,0,1.756-.628,2.7,2.7,0,0,0,.693-2.046ZM.559,18.742a4.3,4.3,0,0,1,3.051.994,3.684,3.684,0,0,1,1.063,2.831V30h-3.1V23.232a1.923,1.923,0,0,0-.553-1.525,2.084,2.084,0,0,0-1.423-.483,2.908,2.908,0,0,0-.924.14,2.373,2.373,0,0,0-.773.435,1.923,1.923,0,0,0-.553.833,3.85,3.85,0,0,0-.209,1.278V30H-5.962V18.957h3.094v1.225A4.255,4.255,0,0,1,.559,18.742ZM15.5,13.5h3.094V30H15.662l-.075-1.439a3.154,3.154,0,0,1-1.4,1.251,4.719,4.719,0,0,1-2.068.446,5.371,5.371,0,0,1-2.062-.4,4.967,4.967,0,0,1-2.836-2.943A6.717,6.717,0,0,1,6.8,24.5a6.278,6.278,0,0,1,.73-3.078,5.005,5.005,0,0,1,1.928-2,5.31,5.31,0,0,1,2.659-.677,4.837,4.837,0,0,1,2,.4,3.128,3.128,0,0,1,1.38,1.144ZM12.826,27.69a2.754,2.754,0,0,0,2.089-.881,3.225,3.225,0,0,0,.833-2.31,3.232,3.232,0,0,0-.838-2.315,2.751,2.751,0,0,0-2.084-.886,2.783,2.783,0,0,0-2.1.87A3.231,3.231,0,0,0,9.894,24.5a3.216,3.216,0,0,0,.833,2.32A2.783,2.783,0,0,0,12.826,27.69ZM30.852,27a10.331,10.331,0,0,0,.269,2.7V30H28.23l-.247-1.2a3.591,3.591,0,0,1-1.547,1.063,5.7,5.7,0,0,1-2,.354,5.254,5.254,0,0,1-1.031-.1,3.506,3.506,0,0,1-.929-.328,2.82,2.82,0,0,1-.768-.575,2.52,2.52,0,0,1-.516-.875,3.488,3.488,0,0,1-.193-1.2,3.321,3.321,0,0,1,.2-1.2,2.807,2.807,0,0,1,.537-.9,3.258,3.258,0,0,1,.87-.655,6.658,6.658,0,0,1,1.1-.473,13.092,13.092,0,0,1,1.311-.344l1.815-.408a2,2,0,0,0,.822-.349.7.7,0,0,0,.242-.553,1.14,1.14,0,0,0-.542-1.063,2.533,2.533,0,0,0-1.316-.322,1.894,1.894,0,0,0-2.159,1.687l-2.739-.494a3.708,3.708,0,0,1,1.6-2.519,6.362,6.362,0,0,1,3.47-.811q4.641,0,4.641,3.985ZM25.405,28.12a2.488,2.488,0,0,0,1.912-.8,3.372,3.372,0,0,0,.741-2.369l-2.621.741a3.1,3.1,0,0,0-1.1.451.927.927,0,0,0-.381.795,1.029,1.029,0,0,0,.408.875A1.689,1.689,0,0,0,25.405,28.12Zm11.419-7.412a3.585,3.585,0,0,1,1.45-1.327,4.425,4.425,0,0,1,2.159-.553v2.761a4.183,4.183,0,0,0-2.643.666,2.908,2.908,0,0,0-.816,2.363V30H33.859V18.957h2.965Zm7-3.405a1.737,1.737,0,0,1-1.268-.521,1.71,1.71,0,0,1-.526-1.262,1.69,1.69,0,0,1,.532-1.251,1.742,1.742,0,0,1,1.262-.521,1.778,1.778,0,0,1,0,3.556ZM42.249,30V18.957h3.115V30Zm11.462.215a6.944,6.944,0,0,1-3.126-.677,5.058,5.058,0,0,1-2.143-1.987,5.922,5.922,0,0,1-.779-3.083,5.4,5.4,0,0,1,1.676-4.189,6.217,6.217,0,0,1,4.372-1.536,6.232,6.232,0,0,1,4.383,1.536,5.4,5.4,0,0,1,1.676,4.189,5.432,5.432,0,0,1-1.676,4.206A6.219,6.219,0,0,1,53.711,30.215Zm-.032-2.46a2.835,2.835,0,0,0,2.186-.9,3.378,3.378,0,0,0,.833-2.385,3.378,3.378,0,0,0-.833-2.385,2.835,2.835,0,0,0-2.186-.9,2.731,2.731,0,0,0-2.122.908,3.409,3.409,0,0,0-.822,2.379,3.409,3.409,0,0,0,.822,2.379A2.731,2.731,0,0,0,53.679,27.755Z" transform="translate(960 1862)" fill="#00223d"/>
      <path id="Trazado_33301" data-name="Trazado 33301" d="M-30.54.215A7.5,7.5,0,0,1-34.848-.972,4.761,4.761,0,0,1-36.942-4.3l3.33-.763A2.828,2.828,0,0,0-32.586-3.1a3.4,3.4,0,0,0,2.175.682,2.81,2.81,0,0,0,1.7-.478,1.612,1.612,0,0,0,.645-1.413,1.506,1.506,0,0,0-.548-1.149,3.58,3.58,0,0,0-1.09-.7q-.542-.209-1.746-.575-.161-.054-.236-.075Q-32.3-7-32.678-7.133t-.929-.36a6.188,6.188,0,0,1-.9-.451,6.607,6.607,0,0,1-.747-.559,2.926,2.926,0,0,1-.623-.714,3.8,3.8,0,0,1-.376-.892,3.935,3.935,0,0,1-.15-1.106,4.155,4.155,0,0,1,.725-2.444,4.441,4.441,0,0,1,1.955-1.558,7.116,7.116,0,0,1,2.8-.521,8.84,8.84,0,0,1,2.025.226,7.093,7.093,0,0,1,1.81.693,4.434,4.434,0,0,1,1.445,1.278,4.807,4.807,0,0,1,.822,1.885l-3.115.773a2.524,2.524,0,0,0-2.793-2.224,3.058,3.058,0,0,0-1.729.451,1.529,1.529,0,0,0-.677,1.364q0,.849,1.128,1.375a16.808,16.808,0,0,0,2.159.741q.634.193,1.031.322t1,.376A6.942,6.942,0,0,1-26.845-8a7.234,7.234,0,0,1,.816.6,3.211,3.211,0,0,1,.693.773,4.182,4.182,0,0,1,.424.961,4.018,4.018,0,0,1,.172,1.2,4.706,4.706,0,0,1-.312,1.751A3.811,3.811,0,0,1-25.9-1.4a4.959,4.959,0,0,1-1.284.908,6.228,6.228,0,0,1-1.579.537A9.082,9.082,0,0,1-30.54.215Zm18.756-5.9-.032.741H-20a2.859,2.859,0,0,0,.881,2.02,2.817,2.817,0,0,0,1.944.7A2.715,2.715,0,0,0-15.721-2.6a2.344,2.344,0,0,0,.929-1.112l2.836.419A4.821,4.821,0,0,1-13.89-.709a5.749,5.749,0,0,1-3.266.924,5.978,5.978,0,0,1-4.3-1.52,5.546,5.546,0,0,1-1.6-4.216,5.579,5.579,0,0,1,1.6-4.216,5.8,5.8,0,0,1,4.2-1.542,5.544,5.544,0,0,1,3.964,1.407A5.52,5.52,0,0,1-11.784-5.683ZM-17.23-9.088a2.445,2.445,0,0,0-2.686,2.127h5.07a2.326,2.326,0,0,0-.763-1.579A2.417,2.417,0,0,0-17.23-9.088ZM-4.437.2A5.9,5.9,0,0,1-8.7-1.386a5.491,5.491,0,0,1-1.654-4.146A5.479,5.479,0,0,1-8.707-9.679a5.918,5.918,0,0,1,4.27-1.579A5.884,5.884,0,0,1-.859-10.194a4.748,4.748,0,0,1,1.848,3l-2.857.312a2.448,2.448,0,0,0-.924-1.45,2.809,2.809,0,0,0-1.676-.483,2.533,2.533,0,0,0-2.02.9,3.538,3.538,0,0,0-.773,2.385,3.542,3.542,0,0,0,.773,2.379,2.526,2.526,0,0,0,2.02.908A2.785,2.785,0,0,0-2.8-2.729a2.505,2.505,0,0,0,.929-1.45l2.857.312a4.761,4.761,0,0,1-1.864,3A5.86,5.86,0,0,1-4.437.2ZM7.3,0A3.335,3.335,0,0,1,4.813-.9a3.489,3.489,0,0,1-.881-2.551V-8.669H1.762v-2.374h.7A1.822,1.822,0,0,0,3.835-11.5a2.378,2.378,0,0,0,.44-1.644v-1.461H7.068v3.566H9.346v2.374H7.068v4.888q0,1.429,1.278,1.429h1V0Zm9.539.215a6.944,6.944,0,0,1-3.126-.677,5.058,5.058,0,0,1-2.143-1.987A5.922,5.922,0,0,1,10.8-5.532a5.4,5.4,0,0,1,1.676-4.189,6.217,6.217,0,0,1,4.372-1.536,6.232,6.232,0,0,1,4.383,1.536A5.4,5.4,0,0,1,22.9-5.532a5.432,5.432,0,0,1-1.676,4.206A6.219,6.219,0,0,1,16.844.215Zm-.032-2.46A2.835,2.835,0,0,0,19-3.147a3.378,3.378,0,0,0,.833-2.385A3.378,3.378,0,0,0,19-7.917a2.835,2.835,0,0,0-2.186-.9,2.731,2.731,0,0,0-2.122.908,3.409,3.409,0,0,0-.822,2.379,3.409,3.409,0,0,0,.822,2.379A2.731,2.731,0,0,0,16.812-2.245ZM28.166-9.292a3.585,3.585,0,0,1,1.45-1.327,4.425,4.425,0,0,1,2.159-.553v2.761a4.183,4.183,0,0,0-2.643.666,2.908,2.908,0,0,0-.816,2.363V0H25.2V-11.043h2.965Zm-64.228,23.77a4.671,4.671,0,0,1,3.577,1.445,5.026,5.026,0,0,1,1.354,3.572,4.9,4.9,0,0,1-1.343,3.55,4.756,4.756,0,0,1-3.588,1.391h-3.233V30h-3.223V14.478Zm-.537,7.262a2.368,2.368,0,0,0,1.772-.607,2.308,2.308,0,0,0,.591-1.681,2.289,2.289,0,0,0-.6-1.66,2.347,2.347,0,0,0-1.767-.618h-2.7v4.565Zm10.731-1.031a3.585,3.585,0,0,1,1.45-1.327,4.425,4.425,0,0,1,2.159-.553v2.761a4.183,4.183,0,0,0-2.643.666,2.908,2.908,0,0,0-.816,2.363V30h-3.115V18.957h2.965Zm7-3.405a1.737,1.737,0,0,1-1.268-.521,1.71,1.71,0,0,1-.526-1.262,1.69,1.69,0,0,1,.532-1.251,1.742,1.742,0,0,1,1.262-.521,1.712,1.712,0,0,1,1.246.521,1.7,1.7,0,0,1,.526,1.251,1.71,1.71,0,0,1-.526,1.262A1.712,1.712,0,0,1-18.863,17.3ZM-20.442,30V18.957h3.115V30Zm19.4-11.258a4.219,4.219,0,0,1,2.847.9,3.209,3.209,0,0,1,1.042,2.573V30H-.247V23.093a1.845,1.845,0,0,0-.494-1.4,1.731,1.731,0,0,0-1.246-.473,2,2,0,0,0-1.5.6,2.732,2.732,0,0,0-.58,1.944V30H-7.2V23.125A1.894,1.894,0,0,0-7.691,21.7a1.762,1.762,0,0,0-1.278-.478,1.932,1.932,0,0,0-1.493.634,3.027,3.027,0,0,0-.58,2.073V30h-3.083V18.957h3.083v1.3a3.755,3.755,0,0,1,3.2-1.515,4.722,4.722,0,0,1,2.079.424A2.829,2.829,0,0,1-4.458,20.4,3.9,3.9,0,0,1-1.042,18.742ZM14.91,27a10.331,10.331,0,0,0,.269,2.7V30h-2.89l-.247-1.2A3.591,3.591,0,0,1,10.5,29.86a5.7,5.7,0,0,1-2,.354,5.254,5.254,0,0,1-1.031-.1,3.506,3.506,0,0,1-.929-.328,2.82,2.82,0,0,1-.768-.575,2.52,2.52,0,0,1-.516-.875,3.488,3.488,0,0,1-.193-1.2,3.322,3.322,0,0,1,.2-1.2,2.807,2.807,0,0,1,.537-.9,3.258,3.258,0,0,1,.87-.655,6.658,6.658,0,0,1,1.1-.473,13.092,13.092,0,0,1,1.311-.344l1.815-.408a2,2,0,0,0,.822-.349.7.7,0,0,0,.242-.553,1.14,1.14,0,0,0-.542-1.063A2.533,2.533,0,0,0,10.1,20.88a1.894,1.894,0,0,0-2.159,1.687L5.2,22.072a3.708,3.708,0,0,1,1.6-2.519,6.362,6.362,0,0,1,3.47-.811q4.641,0,4.641,3.985ZM9.464,28.12a2.488,2.488,0,0,0,1.912-.8,3.372,3.372,0,0,0,.741-2.369L9.5,25.692a3.1,3.1,0,0,0-1.1.451.927.927,0,0,0-.381.795,1.029,1.029,0,0,0,.408.875A1.689,1.689,0,0,0,9.464,28.12Zm11.419-7.412a3.585,3.585,0,0,1,1.45-1.327,4.425,4.425,0,0,1,2.159-.553v2.761a4.183,4.183,0,0,0-2.643.666,2.908,2.908,0,0,0-.816,2.363V30H17.918V18.957h2.965Zm7-3.405a1.737,1.737,0,0,1-1.268-.521,1.71,1.71,0,0,1-.526-1.262,1.69,1.69,0,0,1,.532-1.251,1.742,1.742,0,0,1,1.262-.521,1.778,1.778,0,0,1,0,3.556ZM26.308,30V18.957h3.115V30Zm11.462.215a6.944,6.944,0,0,1-3.126-.677A5.058,5.058,0,0,1,32.5,27.551a5.922,5.922,0,0,1-.779-3.083A5.4,5.4,0,0,1,33.4,20.278a6.217,6.217,0,0,1,4.372-1.536,6.232,6.232,0,0,1,4.383,1.536,5.4,5.4,0,0,1,1.676,4.189,5.432,5.432,0,0,1-1.676,4.206A6.219,6.219,0,0,1,37.77,30.215Zm-.032-2.46a2.835,2.835,0,0,0,2.186-.9,3.378,3.378,0,0,0,.833-2.385,3.378,3.378,0,0,0-.833-2.385,2.835,2.835,0,0,0-2.186-.9,2.731,2.731,0,0,0-2.122.908,3.409,3.409,0,0,0-.822,2.379,3.409,3.409,0,0,0,.822,2.379A2.731,2.731,0,0,0,37.737,27.755Z" transform="translate(624 1862)" fill="#00223d"/>
      <path id="Trazado_33303" data-name="Trazado 33303" d="M-30.54.215A7.5,7.5,0,0,1-34.848-.972,4.761,4.761,0,0,1-36.942-4.3l3.33-.763A2.828,2.828,0,0,0-32.586-3.1a3.4,3.4,0,0,0,2.175.682,2.81,2.81,0,0,0,1.7-.478,1.612,1.612,0,0,0,.645-1.413,1.506,1.506,0,0,0-.548-1.149,3.58,3.58,0,0,0-1.09-.7q-.542-.209-1.746-.575-.161-.054-.236-.075Q-32.3-7-32.678-7.133t-.929-.36a6.188,6.188,0,0,1-.9-.451,6.607,6.607,0,0,1-.747-.559,2.926,2.926,0,0,1-.623-.714,3.8,3.8,0,0,1-.376-.892,3.935,3.935,0,0,1-.15-1.106,4.155,4.155,0,0,1,.725-2.444,4.441,4.441,0,0,1,1.955-1.558,7.116,7.116,0,0,1,2.8-.521,8.84,8.84,0,0,1,2.025.226,7.093,7.093,0,0,1,1.81.693,4.434,4.434,0,0,1,1.445,1.278,4.807,4.807,0,0,1,.822,1.885l-3.115.773a2.524,2.524,0,0,0-2.793-2.224,3.058,3.058,0,0,0-1.729.451,1.529,1.529,0,0,0-.677,1.364q0,.849,1.128,1.375a16.808,16.808,0,0,0,2.159.741q.634.193,1.031.322t1,.376A6.942,6.942,0,0,1-26.845-8a7.234,7.234,0,0,1,.816.6,3.211,3.211,0,0,1,.693.773,4.182,4.182,0,0,1,.424.961,4.018,4.018,0,0,1,.172,1.2,4.706,4.706,0,0,1-.312,1.751A3.811,3.811,0,0,1-25.9-1.4a4.959,4.959,0,0,1-1.284.908,6.228,6.228,0,0,1-1.579.537A9.082,9.082,0,0,1-30.54.215Zm18.756-5.9-.032.741H-20a2.859,2.859,0,0,0,.881,2.02,2.817,2.817,0,0,0,1.944.7A2.715,2.715,0,0,0-15.721-2.6a2.344,2.344,0,0,0,.929-1.112l2.836.419A4.821,4.821,0,0,1-13.89-.709a5.749,5.749,0,0,1-3.266.924,5.978,5.978,0,0,1-4.3-1.52,5.546,5.546,0,0,1-1.6-4.216,5.579,5.579,0,0,1,1.6-4.216,5.8,5.8,0,0,1,4.2-1.542,5.544,5.544,0,0,1,3.964,1.407A5.52,5.52,0,0,1-11.784-5.683ZM-17.23-9.088a2.445,2.445,0,0,0-2.686,2.127h5.07a2.326,2.326,0,0,0-.763-1.579A2.417,2.417,0,0,0-17.23-9.088ZM-4.437.2A5.9,5.9,0,0,1-8.7-1.386a5.491,5.491,0,0,1-1.654-4.146A5.479,5.479,0,0,1-8.707-9.679a5.918,5.918,0,0,1,4.27-1.579A5.884,5.884,0,0,1-.859-10.194a4.748,4.748,0,0,1,1.848,3l-2.857.312a2.448,2.448,0,0,0-.924-1.45,2.809,2.809,0,0,0-1.676-.483,2.533,2.533,0,0,0-2.02.9,3.538,3.538,0,0,0-.773,2.385,3.542,3.542,0,0,0,.773,2.379,2.526,2.526,0,0,0,2.02.908A2.785,2.785,0,0,0-2.8-2.729a2.505,2.505,0,0,0,.929-1.45l2.857.312a4.761,4.761,0,0,1-1.864,3A5.86,5.86,0,0,1-4.437.2ZM7.3,0A3.335,3.335,0,0,1,4.813-.9a3.489,3.489,0,0,1-.881-2.551V-8.669H1.762v-2.374h.7A1.822,1.822,0,0,0,3.835-11.5a2.378,2.378,0,0,0,.44-1.644v-1.461H7.068v3.566H9.346v2.374H7.068v4.888q0,1.429,1.278,1.429h1V0Zm9.539.215a6.944,6.944,0,0,1-3.126-.677,5.058,5.058,0,0,1-2.143-1.987A5.922,5.922,0,0,1,10.8-5.532a5.4,5.4,0,0,1,1.676-4.189,6.217,6.217,0,0,1,4.372-1.536,6.232,6.232,0,0,1,4.383,1.536A5.4,5.4,0,0,1,22.9-5.532a5.432,5.432,0,0,1-1.676,4.206A6.219,6.219,0,0,1,16.844.215Zm-.032-2.46A2.835,2.835,0,0,0,19-3.147a3.378,3.378,0,0,0,.833-2.385A3.378,3.378,0,0,0,19-7.917a2.835,2.835,0,0,0-2.186-.9,2.731,2.731,0,0,0-2.122.908,3.409,3.409,0,0,0-.822,2.379,3.409,3.409,0,0,0,.822,2.379A2.731,2.731,0,0,0,16.812-2.245ZM28.166-9.292a3.585,3.585,0,0,1,1.45-1.327,4.425,4.425,0,0,1,2.159-.553v2.761a4.183,4.183,0,0,0-2.643.666,2.908,2.908,0,0,0-.816,2.363V0H25.2V-11.043h2.965Zm-62.133,23.77v2.836h-3.685V30h-3.19V17.313h-3.706V14.478Zm10.656,9.84-.032.741h-8.186a2.859,2.859,0,0,0,.881,2.02,2.817,2.817,0,0,0,1.944.7,2.715,2.715,0,0,0,1.456-.381,2.344,2.344,0,0,0,.929-1.112l2.836.419a4.821,4.821,0,0,1-1.934,2.589,5.749,5.749,0,0,1-3.266.924,5.978,5.978,0,0,1-4.3-1.52,5.546,5.546,0,0,1-1.6-4.216,5.579,5.579,0,0,1,1.6-4.216,5.8,5.8,0,0,1,4.2-1.542,5.544,5.544,0,0,1,3.964,1.407A5.52,5.52,0,0,1-23.311,24.317Zm-5.446-3.405a2.445,2.445,0,0,0-2.686,2.127h5.07a2.326,2.326,0,0,0-.763-1.579A2.417,2.417,0,0,0-28.757,20.912Zm10.764-.2a3.585,3.585,0,0,1,1.45-1.327,4.425,4.425,0,0,1,2.159-.553v2.761a4.183,4.183,0,0,0-2.643.666,2.908,2.908,0,0,0-.816,2.363V30h-3.115V18.957h2.965Zm10.355,9.5a5.9,5.9,0,0,1-4.265-1.59,5.491,5.491,0,0,1-1.654-4.146,5.479,5.479,0,0,1,1.649-4.146,5.918,5.918,0,0,1,4.27-1.579,5.884,5.884,0,0,1,3.577,1.063,4.748,4.748,0,0,1,1.848,3l-2.857.312a2.448,2.448,0,0,0-.924-1.45,2.809,2.809,0,0,0-1.676-.483,2.533,2.533,0,0,0-2.02.9,3.538,3.538,0,0,0-.773,2.385,3.542,3.542,0,0,0,.773,2.379,2.526,2.526,0,0,0,2.02.908A2.785,2.785,0,0,0-6,27.271a2.505,2.505,0,0,0,.929-1.45l2.857.312a4.761,4.761,0,0,1-1.864,3A5.86,5.86,0,0,1-7.638,30.2ZM1.568,17.3A1.737,1.737,0,0,1,.3,16.782,1.71,1.71,0,0,1-.226,15.52a1.69,1.69,0,0,1,.532-1.251,1.742,1.742,0,0,1,1.262-.521,1.712,1.712,0,0,1,1.246.521,1.764,1.764,0,0,1,0,2.514A1.712,1.712,0,0,1,1.568,17.3ZM-.011,30V18.957H3.1V30Zm15.372-3a10.331,10.331,0,0,0,.269,2.7V30H12.74l-.247-1.2a3.591,3.591,0,0,1-1.547,1.063,5.7,5.7,0,0,1-2,.354,5.254,5.254,0,0,1-1.031-.1,3.506,3.506,0,0,1-.929-.328,2.82,2.82,0,0,1-.768-.575A2.52,2.52,0,0,1,5.7,28.34a3.488,3.488,0,0,1-.193-1.2,3.322,3.322,0,0,1,.2-1.2,2.807,2.807,0,0,1,.537-.9,3.258,3.258,0,0,1,.87-.655,6.658,6.658,0,0,1,1.1-.473,13.092,13.092,0,0,1,1.311-.344l1.815-.408a2,2,0,0,0,.822-.349.7.7,0,0,0,.242-.553,1.14,1.14,0,0,0-.542-1.063,2.533,2.533,0,0,0-1.316-.322A1.894,1.894,0,0,0,8.39,22.566L5.65,22.072a3.708,3.708,0,0,1,1.6-2.519,6.362,6.362,0,0,1,3.47-.811q4.641,0,4.641,3.985ZM9.915,28.12a2.488,2.488,0,0,0,1.912-.8,3.372,3.372,0,0,0,.741-2.369l-2.621.741a3.1,3.1,0,0,0-1.1.451.927.927,0,0,0-.381.795,1.029,1.029,0,0,0,.408.875A1.689,1.689,0,0,0,9.915,28.12Zm11.419-7.412a3.585,3.585,0,0,1,1.45-1.327,4.425,4.425,0,0,1,2.159-.553v2.761a4.183,4.183,0,0,0-2.643.666,2.908,2.908,0,0,0-.816,2.363V30H18.369V18.957h2.965Zm7-3.405a1.737,1.737,0,0,1-1.268-.521,1.71,1.71,0,0,1-.526-1.262,1.69,1.69,0,0,1,.532-1.251,1.742,1.742,0,0,1,1.262-.521,1.778,1.778,0,0,1,0,3.556ZM26.759,30V18.957h3.115V30Zm11.462.215a6.944,6.944,0,0,1-3.126-.677,5.058,5.058,0,0,1-2.143-1.987,5.922,5.922,0,0,1-.779-3.083,5.4,5.4,0,0,1,1.676-4.189,6.217,6.217,0,0,1,4.372-1.536A6.232,6.232,0,0,1,42.6,20.278a5.4,5.4,0,0,1,1.676,4.189A5.432,5.432,0,0,1,42.6,28.673,6.219,6.219,0,0,1,38.221,30.215Zm-.032-2.46a2.835,2.835,0,0,0,2.186-.9,3.378,3.378,0,0,0,.833-2.385,3.378,3.378,0,0,0-.833-2.385,2.835,2.835,0,0,0-2.186-.9,2.731,2.731,0,0,0-2.122.908,3.409,3.409,0,0,0-.822,2.379,3.409,3.409,0,0,0,.822,2.379A2.731,2.731,0,0,0,38.188,27.755Z" transform="translate(1297 1862)" fill="#fff"/>
    </g>
  </g>
</svg>
