<svg xmlns="http://www.w3.org/2000/svg" width="300" height="200" viewBox="0 0 300 200">
  <g id="Grupo_54991" data-name="Grupo 54991" transform="translate(-240 -6618.826)">
    <g id="CF1_cuaternario" transform="translate(240 6618.826)">
      <rect id="Rectángulo_5540" data-name="Rectángulo 5540" width="300" height="200" fill="none"/>
      <path id="Trazado_103916" data-name="Trazado 103916" d="M236.73,177.35a24.07,24.07,0,1,1,24.07-24.07,24.07,24.07,0,0,1-24.07,24.07Zm0-43.43a19.36,19.36,0,1,0,19.35,19.357,19.36,19.36,0,0,0-19.35-19.357Z" fill="#f25585"/>
      <path id="Trazado_103917" data-name="Trazado 103917" d="M270.73,83.73a19.14,19.14,0,1,1,19.15-19.143A19.14,19.14,0,0,1,270.73,83.73Zm0-33.56a14.42,14.42,0,1,0,14.43,14.423A14.42,14.42,0,0,0,270.73,50.17Z" fill="#2cffe2"/>
      <path id="Trazado_103918" data-name="Trazado 103918" d="M30.51,97.41A22.13,22.13,0,1,1,52.64,75.28,22.13,22.13,0,0,1,30.51,97.41Zm0-39.54A17.41,17.41,0,1,0,47.92,75.28,17.41,17.41,0,0,0,30.51,57.87Z" fill="#bbabf5"/>
      <path id="Trazado_103919" data-name="Trazado 103919" d="M61.08,183.2a16.31,16.31,0,1,1,16.31-16.31A16.31,16.31,0,0,1,61.08,183.2Zm0-27.9a11.59,11.59,0,1,0,11.59,11.59A11.59,11.59,0,0,0,61.08,155.3Z" fill="#fd8f25"/>
      <path id="Trazado_103920" data-name="Trazado 103920" d="M80.42,137.15a8,8,0,1,1,8-8A8,8,0,0,1,80.42,137.15Zm0-11.33a3.31,3.31,0,1,0,3.3,3.31,3.31,3.31,0,0,0-3.3-3.31Z" fill="#f25585"/>
      <circle id="Elipse_4163" data-name="Elipse 4163" cx="4.49" cy="4.49" r="4.49" transform="translate(12.085 109.214) rotate(-13.28)" fill="#2cffe2"/>
      <circle id="Elipse_4164" data-name="Elipse 4164" cx="4.49" cy="4.49" r="4.49" transform="translate(136.228 163.555) rotate(-13.28)" fill="#fd8f25"/>
      <circle id="Elipse_4165" data-name="Elipse 4165" cx="4.49" cy="4.49" r="4.49" transform="translate(250.699 105.542) rotate(-13.28)" fill="#fd8f25"/>
      <circle id="Elipse_4166" data-name="Elipse 4166" cx="4.49" cy="4.49" r="4.49" transform="translate(214.274 26.314) rotate(-79.1)" fill="#bbabf5"/>
      <circle id="Elipse_4167" data-name="Elipse 4167" cx="4.49" cy="4.49" r="4.49" transform="matrix(0.851, -0.526, 0.526, 0.851, 63.073, 21.302)" fill="#fd8f25"/>
      <circle id="Elipse_4168" data-name="Elipse 4168" cx="4.49" cy="4.49" r="4.49" transform="translate(142.95 38.8)" fill="#f25585"/>
      <circle id="Elipse_4169" data-name="Elipse 4169" cx="4.49" cy="4.49" r="4.49" transform="translate(58.98 133.27)" fill="#bbabf5"/>
      <path id="Trazado_103921" data-name="Trazado 103921" d="M175.92,178.67a8,8,0,1,1,8-8A8,8,0,0,1,175.92,178.67Zm0-11.33a3.31,3.31,0,1,0,3.31,3.31,3.31,3.31,0,0,0-3.31-3.31Z" fill="#bbabf5"/>
      <rect id="Rectángulo_5541" data-name="Rectángulo 5541" width="4.72" height="32.05" transform="translate(189.484 127.575) rotate(-59.66)" fill="#f25585"/>
      <rect id="Rectángulo_5542" data-name="Rectángulo 5542" width="67.24" height="4.72" transform="translate(189.365 90.48) rotate(-18.29)" fill="#2cffe2"/>
      <rect id="Rectángulo_5543" data-name="Rectángulo 5543" width="4.72" height="53.06" transform="translate(49.012 82.336) rotate(-73.3)" fill="#bbabf5"/>
      <rect id="Rectángulo_5544" data-name="Rectángulo 5544" width="15.58" height="4.72" transform="translate(84.778 123.915) rotate(-12.19)" fill="#f25585"/>
      <rect id="Rectángulo_5545" data-name="Rectángulo 5545" width="41.96" height="4.72" transform="translate(72.109 158.026) rotate(-28.87)" fill="#fd8f25"/>
      <rect id="Rectángulo_5546" data-name="Rectángulo 5546" width="4.72" height="14.99" transform="translate(165.378 152.36) rotate(-24.78)" fill="#bbabf5"/>
      <path id="Trazado_103922" data-name="Trazado 103922" d="M114.28,38.92a8,8,0,1,1-5.488,2.761A8,8,0,0,1,114.28,38.92Zm.85,11.3a3.3,3.3,0,1,0-3.54-3,3.3,3.3,0,0,0,3.54,3Z" fill="#2cffe2"/>
      <rect id="Rectángulo_5547" data-name="Rectángulo 5547" width="4.72" height="14.99" transform="matrix(0.874, -0.486, 0.486, 0.874, 115.361, 53.568)" fill="#2cffe2"/>
      <path id="Trazado_103923" data-name="Trazado 103923" d="M192.92,28.06a8,8,0,1,1-5.114-3.414A8,8,0,0,1,192.92,28.06Zm-9.41,6.32a3.31,3.31,0,1,0,.9-4.59,3.31,3.31,0,0,0-.9,4.59Z" fill="#fd8f25"/>
      <path id="Trazado_103924" data-name="Trazado 103924" d="M184.75,38.67l-16.13,27.7-4.03-2.45,16.13-27.7Z" fill="#fd8f25"/>
      <path id="Trazado_103925" data-name="Trazado 103925" d="M190.3,100.82l5.33-.37a50.32,50.32,0,0,0-20.17-32.31l-2.79,4.53a44.92,44.92,0,0,1,17.63,28.15Z" fill="#fd8f25"/>
      <path id="Trazado_103926" data-name="Trazado 103926" d="M146.12,64a44.63,44.63,0,0,1,26.55,8.71l2.79-4.53a50.12,50.12,0,0,0-58.33-.26L120.55,72a44.62,44.62,0,0,1,25.57-8Z" fill="#bbabf5"/>
      <path id="Trazado_103927" data-name="Trazado 103927" d="M120.55,72l-3.42-4.09A50.79,50.79,0,0,0,103.68,82l4.6,2.67A45.36,45.36,0,0,1,120.55,72Z" fill="#f25585"/>
      <path id="Trazado_103928" data-name="Trazado 103928" d="M195.63,100.45l-5.33.37a44.47,44.47,0,0,1,.73,8.05A44.92,44.92,0,1,1,108.28,84.7l-4.6-2.7a50.225,50.225,0,1,0,91.95,18.45Z" fill="#2cffe2"/>
      <path id="Trazado_103929" data-name="Trazado 103929" d="M69.25,165.27a.5.5,0,0,0-.38-.49l-1.76-.39,1-1.53a.5.5,0,0,0-.06-.62L65.71,160a.5.5,0,0,0-.61-.07l-1.52,1-.4-1.76a.49.49,0,0,0-.48-.39H59.46a.49.49,0,0,0-.48.39l-.4,1.76-1.52-1a.51.51,0,0,0-.62.07l-2.29,2.29a.5.5,0,0,0-.06.62l1,1.53-1.76.39a.49.49,0,0,0-.39.49v3.24a.5.5,0,0,0,.39.49l1.76.39-1,1.53a.48.48,0,0,0,.06.61l2.29,2.3a.51.51,0,0,0,.62.07l1.52-1,.4,1.76a.49.49,0,0,0,.48.39H62.7a.49.49,0,0,0,.48-.39l.4-1.76,1.52,1a.51.51,0,0,0,.62-.07l2.28-2.3a.47.47,0,0,0,.07-.61l-1-1.53,1.76-.4a.47.47,0,0,0,.38-.48Zm-8.18,5.24h0a3.41,3.41,0,0,1,0-6.81h.07a3.41,3.41,0,0,1,0,6.81Z" fill="#472ea6"/>
      <path id="Trazado_103930" data-name="Trazado 103930" d="M270.73,54.65c-6.35,0-11.52,4.06-11.52,9.05s5.17,9,11.52,9h1l.9,2.19a.49.49,0,0,0,.39.31h.1a.52.52,0,0,0,.39-.17l3.3-3.67c3.39-1.67,5.42-4.53,5.42-7.68C282.26,58.71,277.09,54.65,270.73,54.65ZM266.42,66a1.38,1.38,0,1,1,1.37-1.37A1.38,1.38,0,0,1,266.42,66Zm4.35,0a1.38,1.38,0,1,1,1.37-1.37A1.38,1.38,0,0,1,270.77,66Zm4.14,0a1.37,1.37,0,1,1,.975-.4,1.38,1.38,0,0,1-.975.4Z" fill="#472ea6"/>
      <g id="Grupo_54550" data-name="Grupo 54550">
        <path id="Trazado_103931" data-name="Trazado 103931" d="M149,135.2l16.34-6.59a1.08,1.08,0,0,0,.61-1.37l-.22-.63a.32.32,0,0,1,0-.3c3.29-4.29,1-10,1-10l-3.29-8.41h0c-.06-.29-1-4.29-4-4.29a3.77,3.77,0,0,0-3.19,1.42.32.32,0,0,1-.57-.11c-.21-.86-.89-2-3-2.19a3.12,3.12,0,0,0-3.61,2,.31.31,0,0,1-.57,0c-.75-1.55-2.35-3.36-4.37-2.68a3.64,3.64,0,0,0-2.32,2,.32.32,0,0,1-.59,0L138,95.4s-1.61-5.19-5-3.91-1.55,5.72-1.55,5.72l7.76,20.49a.32.32,0,0,1-.47.39l-3.7-2.24h0c-.26-.24-4.18-3.57-6.65-1s.25,5.43.46,5.65h0l18.37,13.34.1.12.31.66a1.09,1.09,0,0,0,1.37.58Z" fill="#472ea6"/>
        <path id="Trazado_103932" data-name="Trazado 103932" d="M171.87,138.48l-3.68-8.28a1.2,1.2,0,0,0-1.56-.63l-18,7.26a1.21,1.21,0,0,0-.65,1.63l3.75,8.13a1.22,1.22,0,0,0,1.54.62l18-7.11a1.21,1.21,0,0,0,.6-1.62Z" fill="#472ea6"/>
        <path id="Trazado_103933" data-name="Trazado 103933" d="M127.52,84.05a2.14,2.14,0,0,0,2,1.38,2.06,2.06,0,0,0,.77-.14,2.16,2.16,0,0,0,1.24-2.79l-2.25-5.84a2.16,2.16,0,0,0-4,1.55Z" fill="#472ea6"/>
        <path id="Trazado_103934" data-name="Trazado 103934" d="M117.76,87.65l5.72,2.54a2.16,2.16,0,1,0,1.75-3.94l-5.72-2.54a2.16,2.16,0,1,0-1.75,3.94Z" fill="#472ea6"/>
        <path id="Trazado_103935" data-name="Trazado 103935" d="M148.06,96.33l-5.72-2.54a2.16,2.16,0,1,0-1.75,3.94l5.72,2.54a2.12,2.12,0,0,0,.88.19,2.16,2.16,0,0,0,.87-4.13Z" fill="#472ea6"/>
        <path id="Trazado_103936" data-name="Trazado 103936" d="M126.21,94.6a2.16,2.16,0,0,0-2.79-1.24l-5.84,2.25a2.15,2.15,0,1,0,1.55,4L125,97.38a2.15,2.15,0,0,0,1.21-2.78Z" fill="#472ea6"/>
        <path id="Trazado_103937" data-name="Trazado 103937" d="M139.61,89.38a2.17,2.17,0,0,0,2.79,1.24l5.84-2.25a2.16,2.16,0,1,0-1.55-4l-5.84,2.26A2.15,2.15,0,0,0,139.61,89.38Z" fill="#472ea6"/>
        <path id="Trazado_103938" data-name="Trazado 103938" d="M128.57,107.14l2.54-5.73a2.154,2.154,0,1,0-3.94-1.74l-2.54,5.72a2.17,2.17,0,0,0,1.09,2.85,2.31,2.31,0,0,0,.88.18,2.15,2.15,0,0,0,1.97-1.28Z" fill="#472ea6"/>
        <path id="Trazado_103939" data-name="Trazado 103939" d="M135.8,85.41a2.31,2.31,0,0,0,.88.18,2.15,2.15,0,0,0,2-1.28l2.54-5.72a2.16,2.16,0,1,0-3.94-1.75l-2.54,5.72A2.17,2.17,0,0,0,135.8,85.41Z" fill="#472ea6"/>
      </g>
      <path id="Trazado_103940" data-name="Trazado 103940" d="M242.11,139.81H231.34a2.27,2.27,0,0,0-2.25,2.3v22.33a2.28,2.28,0,0,0,2.25,2.31h10.77a2.29,2.29,0,0,0,2.26-2.31V142.11A2.28,2.28,0,0,0,242.11,139.81Zm-4,25.05a.55.55,0,0,1-.55.55h-1.71a.55.55,0,0,1-.55-.55v-.94a.55.55,0,0,1,.55-.55h1.71a.55.55,0,0,1,.55.55Zm3.06-3.06h-8.93a1.1,1.1,0,0,1-1.1-1.1V143.49a1.1,1.1,0,0,1,1.1-1.1h8.93a1.1,1.1,0,0,1,1.1,1.1V160.7a1.1,1.1,0,0,1-1.08,1.1Z" fill="#472ea6"/>
      <path id="Trazado_103941" data-name="Trazado 103941" d="M38.4,72.19a4.481,4.481,0,0,0-.73,0v-.67a6.74,6.74,0,0,0-13.16-2h-.59A7.16,7.16,0,0,0,24,83.8H38.4a5.81,5.81,0,1,0,0-11.61Z" fill="#472ea6"/>
    </g>
  </g>
</svg>
