<svg xmlns="http://www.w3.org/2000/svg" xmlns:xlink="http://www.w3.org/1999/xlink" width="853.443" height="361" viewBox="0 0 853.443 361">
  <defs>
    <clipPath id="clip-path">
      <rect id="Rectángulo_3604" data-name="Rectángulo 3604" width="853.443" height="361" fill="none"/>
    </clipPath>
  </defs>
  <g id="Grupo_18896" data-name="Grupo 18896" transform="translate(-533 -1114)">
    <g id="Grupo_12630" data-name="Grupo 12630" transform="translate(533 1114)">
      <g id="Grupo_12629" data-name="Grupo 12629" clip-path="url(#clip-path)">
        <path id="Trazado_33129" data-name="Trazado 33129" d="M531.488,98.682a2.031,2.031,0,0,1-.214-.012c-2.267-.253-15.673-.228-20.648-.2A1.61,1.61,0,0,1,509,96.861v-.43a29.462,29.462,0,0,0-8.27-20.158,28.128,28.128,0,0,1,39.674-39.841,28.122,28.122,0,0,1,1.385,39.753,30.158,30.158,0,0,0-8.352,20.545,1.951,1.951,0,0,1-1.953,1.953m-14.069-3.451c4.491,0,10.033.027,12.83.146a33.5,33.5,0,0,1,9.19-21.391,24.909,24.909,0,1,0-36.358.078A32.794,32.794,0,0,1,512.2,95.243c1.251-.005,3.119-.011,5.215-.011" transform="translate(-119.483 -6.996)" fill="#8e8e8e"/>
        <path id="Trazado_33130" data-name="Trazado 33130" d="M537.276,126.031H516.818a1.515,1.515,0,1,1,0-3.031h20.458a1.515,1.515,0,1,1,0,3.031" transform="translate(-124.865 -29.805)" fill="#8e8e8e"/>
        <path id="Trazado_33131" data-name="Trazado 33131" d="M537.276,132.031H516.818a1.515,1.515,0,1,1,0-3.031h20.458a1.515,1.515,0,1,1,0,3.031" transform="translate(-124.865 -31.259)" fill="#8e8e8e"/>
        <path id="Trazado_33132" data-name="Trazado 33132" d="M527.967,147.446a7.049,7.049,0,0,1-7.041-7.041v-4.42a1.611,1.611,0,0,1,1.611-1.611H533.4a1.61,1.61,0,0,1,1.61,1.611v4.42a7.049,7.049,0,0,1-7.04,7.041m-3.819-9.85V140.4a3.819,3.819,0,1,0,7.639,0V137.6Z" transform="translate(-126.228 -32.561)" fill="#8e8e8e"/>
        <path id="Trazado_33133" data-name="Trazado 33133" d="M535.052,72.572a4.543,4.543,0,0,1-1.577,3.556,8.028,8.028,0,0,1-4.553,1.726v3.229h-1.978v-3.14a15.369,15.369,0,0,1-6.056-1.13v-3.14a15.1,15.1,0,0,0,2.991,1.049,13.512,13.512,0,0,0,3.066.439V69.6l-1.25-.461a8.794,8.794,0,0,1-3.563-2.239,4.756,4.756,0,0,1-1.123-3.221,4.193,4.193,0,0,1,1.6-3.378,7.921,7.921,0,0,1,4.338-1.606v-2.5h1.978v2.455a16.4,16.4,0,0,1,5.728,1.221l-1.086,2.722a15.975,15.975,0,0,0-4.642-1.1V66.9l1.131.431a10.346,10.346,0,0,1,3.913,2.291,4.245,4.245,0,0,1,1.086,2.946M524.5,63.645a1.99,1.99,0,0,0,.528,1.414,5.441,5.441,0,0,0,1.912,1.116V61.547a3.484,3.484,0,0,0-1.815.73,1.75,1.75,0,0,0-.625,1.368m7.037,9.151a1.852,1.852,0,0,0-.6-1.421,6.209,6.209,0,0,0-2.016-1.078v4.746q2.619-.4,2.619-2.247" transform="translate(-126.219 -13.616)"/>
        <path id="Trazado_33134" data-name="Trazado 33134" d="M535.264,106.307l-3.219-.136c.43-10.184,2.467-28.5,11.282-36.724l2.2,2.355c-8.273,7.722-9.932,26.7-10.261,34.506" transform="translate(-128.922 -16.828)" fill="#8e8e8e"/>
        <path id="Trazado_33135" data-name="Trazado 33135" d="M519.849,106.069c-.344-7.747-2.031-26.6-10.252-34.269l2.2-2.355c8.762,8.178,10.823,26.367,11.271,36.481Z" transform="translate(-123.483 -16.828)" fill="#8e8e8e"/>
        <path id="Trazado_33136" data-name="Trazado 33136" d="M508.537,69.027a1.611,1.611,0,0,1-1.611-1.611l0-.232a1.587,1.587,0,0,1,1.628-1.594,1.612,1.612,0,0,1,1.594,1.628v.2a1.611,1.611,0,0,1-1.611,1.611" transform="translate(-122.835 -15.893)" fill="#fd8f25"/>
        <path id="Trazado_33137" data-name="Trazado 33137" d="M510.52,58.129a1.611,1.611,0,0,1-1.44-2.33c.071-.142.145-.284.22-.424a1.611,1.611,0,1,1,2.837,1.527c-.059.111-.117.222-.173.335a1.611,1.611,0,0,1-1.443.892m28.32-.067a1.612,1.612,0,0,1-1.465-.94q-.077-.17-.161-.337a1.611,1.611,0,0,1,2.884-1.437c.071.143.14.286.206.431a1.611,1.611,0,0,1-1.463,2.283m-23.968-5.114a1.611,1.611,0,0,1-.96-2.9c.126-.094.254-.186.383-.276a1.611,1.611,0,1,1,1.845,2.641c-.1.073-.208.147-.31.223a1.6,1.6,0,0,1-.958.317m19.712-.133a1.6,1.6,0,0,1-.962-.32c-.1-.075-.2-.147-.3-.219a1.611,1.611,0,1,1,1.84-2.644q.2.138.39.281a1.611,1.611,0,0,1-.965,2.9M521.1,50.308a1.611,1.611,0,0,1-.258-3.2c.156-.026.312-.048.469-.07a1.611,1.611,0,0,1,.427,3.194c-.126.017-.251.036-.375.055a1.633,1.633,0,0,1-.262.022m7.241-.058a1.611,1.611,0,0,1-.224-.016c-.123-.017-.248-.033-.373-.046a1.611,1.611,0,0,1,.343-3.2c.159.017.317.036.474.058a1.611,1.611,0,0,1-.221,3.207" transform="translate(-123.316 -11.383)" fill="#fd8f25"/>
        <path id="Trazado_33138" data-name="Trazado 33138" d="M549.537,69.027a1.611,1.611,0,0,1-1.611-1.611V67.2a1.611,1.611,0,1,1,3.222,0v.215a1.611,1.611,0,0,1-1.611,1.611" transform="translate(-132.77 -15.893)" fill="#fd8f25"/>
        <rect id="Rectángulo_3546" data-name="Rectángulo 3546" width="45.461" height="109.864" transform="translate(491.211)" fill="#472ea6"/>
        <path id="Trazado_33139" data-name="Trazado 33139" d="M652.7,125.136v78.11H604.97V77.1H652.7v39.325" transform="translate(-146.593 -18.682)" fill="#fff"/>
        <path id="Trazado_33140" data-name="Trazado 33140" d="M653.8,204.341H602.844V74.971H653.8v40.937h-3.222V78.193h-44.51V201.12h44.51v-76.5H653.8Z" transform="translate(-146.078 -18.167)" fill="#8e8e8e"/>
        <path id="Trazado_33141" data-name="Trazado 33141" d="M646.885,93.031h-3.031V90h3.031Zm-9.85,0H634V90h3.031Zm-9.85,0h-3.031V90h3.031Zm-9.85,0H614.3V90h3.031Z" transform="translate(-148.855 -21.808)" fill="#8e8e8e"/>
        <path id="Trazado_33142" data-name="Trazado 33142" d="M646.885,103.031h-3.031V100h3.031Zm-9.85,0H634V100h3.031Zm-9.85,0h-3.031V100h3.031Zm-9.85,0H614.3V100h3.031Z" transform="translate(-148.855 -24.231)" fill="#8e8e8e"/>
        <path id="Trazado_33143" data-name="Trazado 33143" d="M646.885,113.031h-3.031V110h3.031Zm-9.85,0H634V110h3.031Zm-9.85,0h-3.031V110h3.031Zm-9.85,0H614.3V110h3.031Z" transform="translate(-148.855 -26.655)" fill="#8e8e8e"/>
        <path id="Trazado_33144" data-name="Trazado 33144" d="M646.885,123.031h-3.031V120h3.031Zm-9.85,0H634V120h3.031Zm-9.85,0h-3.031V120h3.031Zm-9.85,0H614.3V120h3.031Z" transform="translate(-148.855 -29.078)" fill="#8e8e8e"/>
        <path id="Trazado_33145" data-name="Trazado 33145" d="M646.885,133.031h-3.031V130h3.031Zm-9.85,0H634V130h3.031Zm-9.85,0h-3.031V130h3.031Zm-9.85,0H614.3V130h3.031Z" transform="translate(-148.855 -31.501)" fill="#8e8e8e"/>
        <path id="Trazado_33146" data-name="Trazado 33146" d="M646.885,143.031h-3.031V140h3.031Zm-9.85,0H634V140h3.031Zm-9.85,0h-3.031V140h3.031Zm-9.85,0H614.3V140h3.031Z" transform="translate(-148.855 -33.924)" fill="#8e8e8e"/>
        <path id="Trazado_33147" data-name="Trazado 33147" d="M646.885,153.031h-3.031V150h3.031Zm-9.85,0H634V150h3.031Zm-9.85,0h-3.031V150h3.031Zm-9.85,0H614.3V150h3.031Z" transform="translate(-148.855 -36.347)" fill="#8e8e8e"/>
        <path id="Trazado_33148" data-name="Trazado 33148" d="M646.885,163.031h-3.031V160h3.031Zm-9.85,0H634V160h3.031Zm-9.85,0h-3.031V160h3.031Zm-9.85,0H614.3V160h3.031Z" transform="translate(-148.855 -38.77)" fill="#8e8e8e"/>
        <path id="Trazado_33149" data-name="Trazado 33149" d="M646.885,173.031h-3.031V170h3.031Zm-9.85,0H634V170h3.031Zm-9.85,0h-3.031V170h3.031Zm-9.85,0H614.3V170h3.031Z" transform="translate(-148.855 -41.193)" fill="#8e8e8e"/>
        <path id="Trazado_33150" data-name="Trazado 33150" d="M646.885,183.031h-3.031V180h3.031Zm-9.85,0H634V180h3.031Zm-9.85,0h-3.031V180h3.031Zm-9.85,0H614.3V180h3.031Z" transform="translate(-148.855 -43.617)" fill="#8e8e8e"/>
        <path id="Trazado_33151" data-name="Trazado 33151" d="M646.885,193.031h-3.031V190h3.031Zm-9.85,0H634V190h3.031Zm-9.85,0h-3.031V190h3.031Zm-9.85,0H614.3V190h3.031Z" transform="translate(-148.855 -46.04)" fill="#8e8e8e"/>
        <path id="Trazado_33152" data-name="Trazado 33152" d="M646.885,203.031h-3.031V200h3.031Zm-9.85,0H634V200h3.031Zm-9.85,0h-3.031V200h3.031Zm-9.85,0H614.3V200h3.031Z" transform="translate(-148.855 -48.463)" fill="#8e8e8e"/>
        <rect id="Rectángulo_3547" data-name="Rectángulo 3547" width="57.205" height="7.198" transform="translate(453.641 50.007)" fill="#ccc"/>
        <rect id="Rectángulo_3548" data-name="Rectángulo 3548" width="63.267" height="78.042" transform="translate(507.247 106.076)" fill="#ccc"/>
        <rect id="Rectángulo_3549" data-name="Rectángulo 3549" width="43.946" height="3.031" transform="translate(516.972 113.653)" fill="#8e8e8e"/>
        <rect id="Rectángulo_3550" data-name="Rectángulo 3550" width="43.946" height="3.031" transform="translate(516.972 123.503)" fill="#8e8e8e"/>
        <rect id="Rectángulo_3551" data-name="Rectángulo 3551" width="43.946" height="3.031" transform="translate(516.972 133.353)" fill="#8e8e8e"/>
        <rect id="Rectángulo_3552" data-name="Rectángulo 3552" width="43.946" height="3.031" transform="translate(516.972 143.203)" fill="#8e8e8e"/>
        <rect id="Rectángulo_3553" data-name="Rectángulo 3553" width="43.946" height="3.031" transform="translate(516.972 153.052)" fill="#8e8e8e"/>
        <rect id="Rectángulo_3554" data-name="Rectángulo 3554" width="43.946" height="3.031" transform="translate(516.972 162.902)" fill="#8e8e8e"/>
        <rect id="Rectángulo_3555" data-name="Rectángulo 3555" width="43.946" height="3.031" transform="translate(516.972 172.752)"/>
        <rect id="Rectángulo_3556" data-name="Rectángulo 3556" width="32.202" height="10.229" transform="translate(522.779 87.892)" fill="#ccc"/>
        <path id="Trazado_33153" data-name="Trazado 33153" d="M718.035,124.031H715V121h3.031Zm-9.85,0h-3.031V121h3.031Zm-9.85,0H695.3V121h3.031Z" transform="translate(-168.482 -29.32)"/>
        <path id="Trazado_33154" data-name="Trazado 33154" d="M670.568,27.572H658.759V10.207h11.809Zm-8.588-3.222h5.366V13.429h-5.366Z" transform="translate(-159.627 -2.473)"/>
        <path id="Trazado_33155" data-name="Trazado 33155" d="M693.234,27.572H681.426V10.207h11.808Zm-8.587-3.222h5.365V13.429h-5.365Z" transform="translate(-165.119 -2.473)"/>
        <path id="Trazado_33156" data-name="Trazado 33156" d="M670.568,53.572H658.759V36.207h11.809Zm-8.588-3.222h5.366V39.429h-5.366Z" transform="translate(-159.627 -8.773)"/>
        <path id="Trazado_33157" data-name="Trazado 33157" d="M693.234,53.572H681.426V36.207h11.808Zm-8.587-3.222h5.365V39.429h-5.365Z" transform="translate(-165.119 -8.773)"/>
        <path id="Trazado_33158" data-name="Trazado 33158" d="M693.234,79.572H681.426V62.207h11.808Zm-8.587-3.222h5.365V65.429h-5.365Z" transform="translate(-165.119 -15.074)"/>
        <path id="Trazado_33159" data-name="Trazado 33159" d="M693.234,105.572H681.426V88.207h11.808Zm-8.587-3.222h5.365V91.429h-5.365Z" transform="translate(-165.119 -21.374)"/>
        <rect id="Rectángulo_3557" data-name="Rectángulo 3557" width="73.495" height="7.956" transform="translate(502.133 98.12)" fill="#fff"/>
        <path id="Trazado_33160" data-name="Trazado 33160" d="M737.31,138.551H660.593V127.374H737.31Zm-73.5-3.222h70.274V130.6H663.815Z" transform="translate(-160.071 -30.865)" fill="#8e8e8e"/>
        <path id="Trazado_33161" data-name="Trazado 33161" d="M452.051,275.891c-1.738-5.487.6-11.581,4.36-15.939s8.782-7.388,13.528-10.644c2.264-1.553,4.769-4.113,3.639-6.615a5.941,5.941,0,0,0-2.025-2.14,132.691,132.691,0,0,0-20.992-12.83,25.746,25.746,0,0,0,2.206,11.69c-3.692,1.168-7.838,1.818-11.342.167s-5.725-6.363-3.584-9.59c1.361-2.051,3.942-2.891,6.368-3.3a31.642,31.642,0,0,1,18.563,2.521c1.545-4.029-1.875-8.218-5.4-10.7s-7.773-4.8-8.958-8.949c4.016-5.311,12.647-5,17.934-.947s7.915,10.629,9.789,17.018c.75,2.556,1.493,5.267,3.4,7.128s5.416,2.365,7.088.292c1-1.244,1.062-2.984,1.7-4.45,1.552-3.586,6.006-4.745,8.91-7.359a21.243,21.243,0,0,0,4.317-6.411l10.01-19.7a85.4,85.4,0,0,0-50.379,2.248l2.012-2.488c-10.4-3.626-21.042,4.633-32.008,5.634-2.537.232-5.217.1-7.474,1.277s-3.713,4.383-2.059,6.321a11.825,11.825,0,0,0-9.656,5.711,24.2,24.2,0,0,1-2.053,3.507,8,8,0,0,1-4.041,2.4c-6.349,1.753-12.779-1.841-19.179-3.4s-15.279.836-15.545,7.417l4.951,2.21q-1.2,4.069-2.4,8.136c2.912,4,8.935,3.574,13.735,2.386s10.361-2.587,14.3.405c2.822,2.146,3.8,5.869,4.895,9.241a61.777,61.777,0,0,0,13.234,22.618c8.691,9.443,20.064,15.908,31.239,22.217-.876-3.41-1.834-6.97-4.214-9.566s-6.653-3.822-9.482-1.725q-1.16-3.562-2.319-7.124a26.774,26.774,0,0,1,16.94,3.339" transform="translate(-89.941 -46.612)" fill="#00ffe2"/>
        <path id="Trazado_33162" data-name="Trazado 33162" d="M495.019,366.279c3.322-2.145,7.153-4.154,8.652-7.814.687-1.676.859-3.66,2.144-4.936,1.561-1.551,4.351-1.6,5.511-3.469,1.221-1.97-.187-4.516.034-6.823.354-3.7,4.852-6.674,3.657-10.189-1.206-3.544-6.329-2.948-9.81-4.324a20.425,20.425,0,0,1-5-3.507,31.178,31.178,0,0,0-14.787-6.516c-1.636-.25-3.588-.249-4.607,1.056-.7.9-.72,2.128-.963,3.241-1.063,4.854-6.748,8.352-6.1,13.278.775,5.853,9.757,7.626,10.789,13.439.461,2.588-.864,5.111-1.923,7.516a41.341,41.341,0,0,0-3.473,17.816c.124,4.155,1.572,9.1,5.589,10.169-2.091-7.417,3.815-14.759,10.289-18.939" transform="translate(-114.784 -77.195)" fill="#00ffe2"/>
        <path id="Trazado_33163" data-name="Trazado 33163" d="M590.247,259.341a21.021,21.021,0,0,1-10.406,1.512,8.053,8.053,0,0,0-1.387,6.5,22,22,0,0,0,8.318.594c-2.125,4.976-9.31,5.03-14.276,2.878s-9.736-5.73-15.128-5.27c-4.488.383-8.246,3.543-11.164,6.974-3.357,3.945-6.128,8.7-6.335,13.872s2.779,10.717,7.758,12.146c4.5,1.292,9.629-.853,13.875,1.116,3.77,1.748,5.518,6.22,5.767,10.367s-.632,8.3-.428,12.45c.233,4.738,2.193,9.73,6.306,12.094s10.44.771,11.772-3.782c.725-2.476-.03-5.37,1.354-7.548.866-1.365,2.44-2.186,3.217-3.6,1.619-2.952-.946-6.477-.874-9.843.153-7.169,11.829-11.695,9.165-18.353a11.609,11.609,0,0,1-11.1-18.483q3.682,7.7,7.366,15.391c2.6.215,5.345.253,7.687-.906s4.109-3.867,3.38-6.377c-1.947.083-4.017.112-5.694-.882s-2.661-3.405-1.486-4.96c11.88-2.412,24.406,8.975,23.133,21.032,6.246.5,7.092-9.611,12.422-12.906,4.835-2.988,12.034,2.941,10.029,8.259-.755,2-2.468,3.985-1.72,5.986,1,2.678,5.913,3.707,4.907,6.384l3.881-3.491a6.389,6.389,0,0,0,7.037,7,8.759,8.759,0,0,0,.7-12.041c-1.118,2.48-3.2,4.7-5.87,5.2s-5.79-1.295-6.045-4,3.366-5.077,5.452-3.333a9.9,9.9,0,0,0-3.479-7.268c9.675-.952,16.481-12.815,12.418-21.648,1.135-2.3,4.347.64,4.886,3.15,1.591,1.622,4.37-.367,5.047-2.537s.572-4.75,2.177-6.36c1-1,2.453-1.384,3.68-2.1,4.145-2.406,4.682-9.176.968-12.2,3.705-4.127,9.883-4.545,15.392-5.186,10.19-1.187,11.517-4.129,20.723-8.655.067-4.724-5.845-7.174-10.556-6.817s-.9,2.16-5.363.6c-2.473-.866-4.521-2.694-7-3.548-7.048-2.429-16.3,3.238-21.629-1.981-1.094-1.072-1.887-2.541-3.291-3.151-4.021-1.749-9.592,4.591-12.257,1.109q.585-2.354,1.169-4.707c-3.372-2.315-8.005-1.423-11.7.323s-7.1,4.267-11.1,5.13c-3.585.774-7.37.142-10.941.98s-7.121,4.137-6.165,7.678a35.458,35.458,0,0,0-28.772,6.014,4.824,4.824,0,0,1,4.827-4.649,20.622,20.622,0,0,0-32.127,12.384,12.689,12.689,0,0,0,9.582,2.159,7.059,7.059,0,0,0,1.409-5.752l5.088-1.412q.044,2.98.089,5.958c-4.986,2.551-10.885,2.653-16.074,4.764s-9.873,7.874-7.562,12.976a23,23,0,0,0,18.887-4.648c-.2,2.34-.366,4.82.7,6.912s3.857,3.488,5.842,2.234a8.054,8.054,0,0,0,2.245-2.909c1.283-2.123,3.245-4.015,5.692-4.428s5.284,1.155,5.586,3.616" transform="translate(-130.816 -51.035)" fill="#00ffe2"/>
        <path id="Trazado_33164" data-name="Trazado 33164" d="M717.218,359.892c-2.478-3.811-1.462-9.3-4.405-12.762a3.443,3.443,0,0,0-3.457-1.383c-.89.287-1.5,1.093-2.3,1.584-2.364,1.46-5.948-1.069-5.364-3.786-1.306-1.043-3.3-.283-4.478.906s-1.958,2.76-3.307,3.748a20.863,20.863,0,0,1-3.586,1.689,10.457,10.457,0,0,0-5.785,10.18c.324,3.372,3.508,6.885,6.68,5.7,2.248-.841,3.422-3.655,5.768-4.16,2.9-.626,5.016,2.514,7.338,4.36,2.5,1.987,5.795,2.594,8.942,3.138,2.791.483,6.564.4,7.374-2.311.765-2.564-1.966-4.659-3.425-6.9" transform="translate(-165.864 -83.127)" fill="#88b04b"/>
        <path id="Trazado_33165" data-name="Trazado 33165" d="M723.618,335.284a17.643,17.643,0,0,0-13.85-4.467c1.819,2.043,3.712,4.14,6.194,5.292s5.729,1.116,7.656-.826" transform="translate(-171.987 -80.133)" fill="#88b04b"/>
        <path id="Trazado_33166" data-name="Trazado 33166" d="M612.31,356.85c.771,1.024,1.873,1.754,2.687,2.746.389.743,1.463-.131,1.718-.93A19.325,19.325,0,0,0,617,347.924c-4.195-.179-7.217,5.572-4.69,8.926" transform="translate(-148.148 -84.306)" fill="#88b04b"/>
        <path id="Trazado_33167" data-name="Trazado 33167" d="M446.862,263.875H429.934V138.739h16.928Zm-13.706-3.222h10.485V141.961H433.156Z" transform="translate(-104.179 -33.618)" fill="#8e8e8e"/>
        <path id="Trazado_33168" data-name="Trazado 33168" d="M472.424,281.178H455.5V210.146h16.928Zm-13.707-3.222H469.2V213.368H458.718Z" transform="translate(-110.373 -50.921)" fill="#8e8e8e"/>
        <path id="Trazado_33169" data-name="Trazado 33169" d="M497.987,270.8H481.06V167.3h16.927Zm-13.707-3.222h10.484v-97.05H484.281Z" transform="translate(-116.568 -40.54)" fill="#8e8e8e"/>
        <path id="Trazado_33170" data-name="Trazado 33170" d="M523.55,288.1H506.622V238.708H523.55Zm-13.706-3.222h10.485V241.93H509.844Z" transform="translate(-122.762 -57.842)" fill="#8e8e8e"/>
        <path id="Trazado_33171" data-name="Trazado 33171" d="M549.112,292.944H532.184V258.7h16.928Zm-13.707-3.222h10.485v-27.8H535.406Z" transform="translate(-128.956 -62.687)" fill="#8e8e8e"/>
        <path id="Trazado_33172" data-name="Trazado 33172" d="M574.675,283.6H557.747V220.143h16.928Zm-13.706-3.222h10.485V223.365H560.969Z" transform="translate(-135.15 -53.344)" fill="#8e8e8e"/>
        <rect id="Rectángulo_3558" data-name="Rectángulo 3558" width="3.031" height="168.206" transform="translate(305.577 62.13)" fill="#8e8e8e"/>
        <path id="Trazado_33173" data-name="Trazado 33173" d="M398.14,81.153l5.141-8.9,5.14,8.9Z" transform="translate(-96.475 -17.507)"/>
        <path id="Trazado_33174" data-name="Trazado 33174" d="M543.964,303.031H381.819a1.515,1.515,0,0,1,0-3.031H543.964a1.515,1.515,0,1,1,0,3.031" transform="translate(-92.153 -72.694)" fill="#8e8e8e"/>
        <path id="Trazado_33175" data-name="Trazado 33175" d="M419.276,261.031h-.758a1.515,1.515,0,1,1,0-3.031h.758a1.515,1.515,0,1,1,0,3.031m-9.85,0h-.758a1.515,1.515,0,0,1,0-3.031h.758a1.515,1.515,0,1,1,0,3.031m-9.85,0h-.758a1.515,1.515,0,0,1,0-3.031h.758a1.515,1.515,0,1,1,0,3.031" transform="translate(-96.272 -62.517)"/>
        <path id="Trazado_33176" data-name="Trazado 33176" d="M419.276,211.031h-.758a1.515,1.515,0,1,1,0-3.031h.758a1.515,1.515,0,1,1,0,3.031m-9.85,0h-.758a1.515,1.515,0,0,1,0-3.031h.758a1.515,1.515,0,1,1,0,3.031m-9.85,0h-.758a1.515,1.515,0,0,1,0-3.031h.758a1.515,1.515,0,1,1,0,3.031" transform="translate(-96.272 -50.401)"/>
        <path id="Trazado_33177" data-name="Trazado 33177" d="M419.276,161.031h-.758a1.515,1.515,0,1,1,0-3.031h.758a1.515,1.515,0,1,1,0,3.031m-9.85,0h-.758a1.515,1.515,0,0,1,0-3.031h.758a1.515,1.515,0,1,1,0,3.031m-9.85,0h-.758a1.515,1.515,0,0,1,0-3.031h.758a1.515,1.515,0,1,1,0,3.031" transform="translate(-96.272 -38.286)"/>
        <path id="Trazado_33178" data-name="Trazado 33178" d="M419.276,110.031h-.758a1.515,1.515,0,1,1,0-3.031h.758a1.515,1.515,0,1,1,0,3.031m-9.85,0h-.758a1.515,1.515,0,0,1,0-3.031h.758a1.515,1.515,0,1,1,0,3.031m-9.85,0h-.758a1.515,1.515,0,0,1,0-3.031h.758a1.515,1.515,0,1,1,0,3.031" transform="translate(-96.272 -25.928)"/>
        <rect id="Rectángulo_3559" data-name="Rectángulo 3559" width="3.031" height="77.284" transform="translate(810.954 143.96)" fill="#8e8e8e"/>
        <rect id="Rectángulo_3560" data-name="Rectángulo 3560" width="80.703" height="36.791" transform="matrix(1, -0.002, 0.002, 1, 772.677, 131.263)" fill="#00ffe2"/>
        <path id="Trazado_33179" data-name="Trazado 33179" d="M1095.022,180.993l.041,23.227-67.542.116-.039-23.227Zm3.217-3.227-73.986.127.052,29.67,73.983-.127Z" transform="translate(-248.191 -43.075)"/>
        <path id="Trazado_33180" data-name="Trazado 33180" d="M1032.161,179.546c.008,4.451-3.044,6.83-6.812,6.836-1.884,0-1.293-3.632.88-5.787s5.93-2.829,5.933-1.049" transform="translate(-248.183 -43.259)"/>
        <path id="Trazado_33181" data-name="Trazado 33181" d="M1111.139,179.414c.008,4.451,3.066,6.819,6.835,6.812,1.885,0,1.281-3.637-.9-5.784s-5.939-2.808-5.936-1.028" transform="translate(-269.245 -43.226)"/>
        <path id="Trazado_33182" data-name="Trazado 33182" d="M1111.2,213.407c-.008-4.451,3.044-6.83,6.812-6.836,1.885,0,1.293,3.632-.88,5.787s-5.929,2.828-5.933,1.049" transform="translate(-269.26 -50.055)"/>
        <path id="Trazado_33183" data-name="Trazado 33183" d="M1032.217,213.544c-.008-4.451-3.067-6.819-6.836-6.812-1.885,0-1.281,3.638.9,5.784s5.939,2.809,5.936,1.028" transform="translate(-248.192 -50.094)"/>
        <path id="Trazado_33184" data-name="Trazado 33184" d="M1076.934,197.94a3.57,3.57,0,0,1-1.29,2.879,6.433,6.433,0,0,1-3.625,1.308l0,2.309-1.543,0,0-2.263a12.536,12.536,0,0,1-4.822-.961l-.005-2.973a12.986,12.986,0,0,0,2.361.852,12.64,12.64,0,0,0,2.462.435l-.005-3.491-.755-.292a8.424,8.424,0,0,1-3.162-1.9,3.669,3.669,0,0,1-.934-2.549,3.33,3.33,0,0,1,1.274-2.689,6.493,6.493,0,0,1,3.563-1.285l0-1.721,1.543,0,0,1.677a12.82,12.82,0,0,1,4.664,1.028l-1.054,2.638a12.287,12.287,0,0,0-3.606-.872l.006,3.322a17.423,17.423,0,0,1,3.129,1.459,4.275,4.275,0,0,1,1.364,1.36,3.375,3.375,0,0,1,.437,1.734M1069,191.286a1.061,1.061,0,0,0,.345.815,4.034,4.034,0,0,0,1.11.658l0-2.648c-.968.146-1.452.536-1.451,1.175m4.539,6.828a1.015,1.015,0,0,0-.384-.8,5.1,5.1,0,0,0-1.149-.673l0,2.8q1.532-.264,1.53-1.333" transform="translate(-258.214 -44.972)"/>
        <path id="Trazado_33185" data-name="Trazado 33185" d="M1055.218,198.016a1.929,1.929,0,1,1-1.932-1.925,1.93,1.93,0,0,1,1.932,1.925" transform="translate(-254.76 -47.516)"/>
        <path id="Trazado_33186" data-name="Trazado 33186" d="M1093.986,197.95a1.929,1.929,0,1,1-1.932-1.925,1.929,1.929,0,0,1,1.932,1.925" transform="translate(-264.154 -47.5)"/>
        <path id="Trazado_33187" data-name="Trazado 33187" d="M1094.454,254.321a12.965,12.965,0,1,1,7.074-2.107,12.976,12.976,0,0,1-7.074,2.107m-.041-22.73a9.784,9.784,0,1,0,2.025.211,9.827,9.827,0,0,0-2.025-.211" transform="translate(-262.052 -55.337)" fill="#8e8e8e"/>
        <path id="Trazado_33188" data-name="Trazado 33188" d="M1096.334,249.639a3.57,3.57,0,0,1-3.117.494,6.426,6.426,0,0,1-3.075-2.32l-1.931,1.265-.845-1.29,1.894-1.24a12.514,12.514,0,0,1-1.832-4.564l2.486-1.63a13.017,13.017,0,0,0,.578,2.443,12.646,12.646,0,0,0,.981,2.3l2.92-1.914-.168-.792a8.428,8.428,0,0,1-.135-3.689,3.666,3.666,0,0,1,1.624-2.175,3.325,3.325,0,0,1,2.947-.4,6.491,6.491,0,0,1,3.025,2.281l1.441-.944.846,1.29-1.4.919a12.831,12.831,0,0,1,1.69,4.468l-2.785.559a12.153,12.153,0,0,0-1.242-3.5l-2.778,1.821a17.3,17.3,0,0,1,.489,3.417,4.294,4.294,0,0,1-.393,1.886,3.376,3.376,0,0,1-1.213,1.314m1.237-10.277a1.069,1.069,0,0,0-.495.735,4.072,4.072,0,0,0,.058,1.29l2.214-1.452q-.976-1.1-1.777-.573m-3.236,7.534a1.008,1.008,0,0,0,.458-.758,5.053,5.053,0,0,0-.063-1.332l-2.346,1.537q1.055,1.139,1.951.552" transform="translate(-263.484 -57.174)" fill="#fd8f25"/>
        <rect id="Rectángulo_3561" data-name="Rectángulo 3561" width="3.031" height="17.789" transform="translate(795.991 208.204) rotate(-63.435)" fill="#8e8e8e"/>
        <rect id="Rectángulo_3562" data-name="Rectángulo 3562" width="11.029" height="3.03" transform="translate(812.406 196.039) rotate(-27.86)" fill="#8e8e8e"/>
        <path id="Trazado_33189" data-name="Trazado 33189" d="M1025.629,273a14.515,14.515,0,1,0,15.522-24.532c-6.774-4.287-30.248-1.963-30.248-1.963s7.952,22.209,14.726,26.5" transform="translate(-244.956 -59.579)" fill="#472ea6"/>
        <path id="Trazado_33190" data-name="Trazado 33190" d="M1082.139,338.742h-35.755l-9.932-32.075h55.618Z" transform="translate(-251.148 -74.31)" fill="#ccc"/>
        <rect id="Rectángulo_3563" data-name="Rectángulo 3563" width="73.495" height="13.638" transform="translate(776.036 219.729)" fill="#ccc"/>
        <path id="Trazado_33191" data-name="Trazado 33191" d="M1086.08,396.826h-.011c-.222,0-.444-.005-.663-.017a1.611,1.611,0,1,1,.161-3.217q.248.013.5.012a1.611,1.611,0,1,1,.011,3.222m5.158-1.24a1.611,1.611,0,0,1-.734-3.046c.151-.077.3-.158.446-.242a1.611,1.611,0,0,1,1.616,2.787q-.293.17-.6.325a1.606,1.606,0,0,1-.731.177m-10.842-.273a1.6,1.6,0,0,1-.8-.214c-.2-.114-.4-.235-.589-.361a1.611,1.611,0,0,1,1.767-2.694c.14.092.283.178.427.262a1.61,1.61,0,0,1-.8,3.007m15.205-3.666a1.611,1.611,0,0,1-1.346-2.494q.138-.209.262-.427a1.611,1.611,0,0,1,2.793,1.606c-.115.2-.236.4-.361.588a1.607,1.607,0,0,1-1.348.727m-19.368-.488a1.609,1.609,0,0,1-1.395-.8q-.168-.29-.322-.589a1.611,1.611,0,0,1,2.862-1.48q.118.23.247.452a1.611,1.611,0,0,1-1.392,2.419m21.186-5.105-.086,0a1.612,1.612,0,0,1-1.525-1.693q.014-.253.014-.51a1.632,1.632,0,0,1,1.611-1.634,1.591,1.591,0,0,1,1.611,1.587v.047c0,.227-.006.455-.018.679a1.611,1.611,0,0,1-1.607,1.527m-22.716-.57a1.611,1.611,0,0,1-1.609-1.535l0-.1q0-.327.016-.652a1.611,1.611,0,1,1,3.217.163c-.007.144-.011.289-.011.434v.08a1.611,1.611,0,0,1-1.611,1.611m-.026-1.611h0Zm21.5-3.613a1.61,1.61,0,0,1-1.433-.874c-.077-.149-.158-.3-.244-.445a1.611,1.611,0,0,1,2.782-1.625c.114.2.223.395.327.6a1.611,1.611,0,0,1-1.431,2.348m-19.971-.46a1.612,1.612,0,0,1-1.395-2.414q.172-.3.358-.584a1.611,1.611,0,0,1,2.7,1.759c-.092.14-.18.284-.264.43a1.61,1.61,0,0,1-1.4.808m16.017-3.894a1.6,1.6,0,0,1-.871-.257c-.144-.092-.289-.182-.439-.267a1.611,1.611,0,0,1,1.606-2.793q.294.169.578.352a1.611,1.611,0,0,1-.874,2.965m-11.865-.274a1.611,1.611,0,0,1-.81-3q.292-.17.594-.325a1.611,1.611,0,1,1,1.47,2.866c-.151.078-.3.16-.448.245a1.6,1.6,0,0,1-.806.217m6.269-1.524-.079,0q-.239-.013-.481-.012a1.627,1.627,0,0,1-1.629-1.611,1.6,1.6,0,0,1,1.594-1.611h.036q.32,0,.636.015a1.611,1.611,0,0,1-.076,3.22" transform="translate(-260.026 -89.868)"/>
        <path id="Trazado_33192" data-name="Trazado 33192" d="M156.08,148.827h-.011c-.224,0-.446-.005-.666-.017a1.611,1.611,0,1,1,.166-3.217c.166.009.333.013.5.013a1.611,1.611,0,1,1,.011,3.222m5.158-1.24a1.611,1.611,0,0,1-.736-3.044c.152-.078.3-.159.449-.245a1.611,1.611,0,0,1,1.616,2.787q-.292.169-.595.325a1.616,1.616,0,0,1-.733.177m-10.841-.274a1.6,1.6,0,0,1-.8-.216c-.2-.114-.392-.232-.583-.357a1.611,1.611,0,0,1,1.759-2.7c.142.092.286.181.433.266a1.611,1.611,0,0,1-.805,3.007m15.205-3.665a1.611,1.611,0,0,1-1.349-2.49q.14-.215.267-.435a1.611,1.611,0,0,1,2.789,1.612q-.172.3-.356.58a1.61,1.61,0,0,1-1.352.732m-19.367-.488a1.611,1.611,0,0,1-1.395-.8c-.112-.195-.221-.392-.324-.593a1.611,1.611,0,1,1,2.866-1.472c.078.152.16.3.245.449a1.612,1.612,0,0,1-1.392,2.419m21.186-5.105-.086,0a1.61,1.61,0,0,1-1.524-1.693c.008-.168.013-.339.013-.51a1.631,1.631,0,0,1,1.611-1.634,1.591,1.591,0,0,1,1.611,1.587h-1.611l1.611.014c0,.26-.006.486-.017.711a1.611,1.611,0,0,1-1.607,1.526m-22.718-.542a1.635,1.635,0,0,1-1.61-1.64c0-.01,0-.023,0-.036q0-.32.016-.636a1.611,1.611,0,1,1,3.218.157q-.012.244-.012.492l0,.08a1.586,1.586,0,0,1-1.61,1.583m21.478-5.249a1.611,1.611,0,0,1-1.434-.873c-.078-.152-.161-.3-.246-.449a1.611,1.611,0,0,1,2.785-1.621c.113.195.222.392.326.593a1.612,1.612,0,0,1-1.431,2.35m-19.97-.463a1.61,1.61,0,0,1-1.395-2.414q.17-.3.355-.582a1.611,1.611,0,0,1,2.7,1.753q-.139.214-.266.435a1.611,1.611,0,0,1-1.4.808m16.016-3.893a1.6,1.6,0,0,1-.875-.261q-.213-.138-.433-.263a1.611,1.611,0,0,1,1.6-2.8q.3.17.584.357a1.611,1.611,0,0,1-.878,2.963m-11.865-.276a1.611,1.611,0,0,1-.812-3q.293-.17.6-.327a1.611,1.611,0,1,1,1.469,2.867q-.226.116-.446.244a1.6,1.6,0,0,1-.808.219m6.269-1.523-.082,0q-.239-.013-.48-.012a1.626,1.626,0,0,1-1.628-1.611,1.6,1.6,0,0,1,1.593-1.611h.035q.322,0,.64.015a1.611,1.611,0,0,1-.079,3.22" transform="translate(-34.673 -29.774)"/>
        <path id="Trazado_33193" data-name="Trazado 33193" d="M621.08,401.826h-.011c-.222,0-.444-.005-.663-.017a1.611,1.611,0,1,1,.161-3.217q.248.012.5.012a1.611,1.611,0,1,1,.011,3.222m5.158-1.24a1.611,1.611,0,0,1-.734-3.046c.151-.077.3-.158.446-.242a1.611,1.611,0,0,1,1.616,2.787q-.293.17-.6.325a1.606,1.606,0,0,1-.731.177m-10.842-.273a1.6,1.6,0,0,1-.8-.214c-.2-.114-.4-.235-.589-.361a1.611,1.611,0,0,1,1.767-2.694c.14.092.283.178.427.262a1.61,1.61,0,0,1-.8,3.007m15.205-3.666a1.611,1.611,0,0,1-1.346-2.494q.138-.209.262-.427a1.611,1.611,0,0,1,2.793,1.606c-.115.2-.236.4-.361.588a1.608,1.608,0,0,1-1.348.727m-19.368-.488a1.609,1.609,0,0,1-1.395-.8q-.168-.29-.322-.589a1.611,1.611,0,0,1,2.862-1.48q.118.23.247.452a1.611,1.611,0,0,1-1.392,2.419m21.186-5.105-.086,0a1.612,1.612,0,0,1-1.524-1.693q.014-.253.014-.51a1.632,1.632,0,0,1,1.611-1.634,1.591,1.591,0,0,1,1.611,1.587v.047c0,.227-.006.455-.018.679a1.61,1.61,0,0,1-1.607,1.527m-22.716-.57a1.611,1.611,0,0,1-1.609-1.535l0-.1q0-.327.016-.652a1.611,1.611,0,1,1,3.217.163c-.007.144-.011.289-.011.434v.08a1.611,1.611,0,0,1-1.611,1.611m-.026-1.611h0Zm21.5-3.613a1.611,1.611,0,0,1-1.434-.874c-.077-.149-.158-.3-.244-.445a1.611,1.611,0,0,1,2.782-1.625c.114.2.223.395.327.6a1.61,1.61,0,0,1-1.431,2.348m-19.971-.46a1.612,1.612,0,0,1-1.395-2.414q.172-.3.358-.584a1.611,1.611,0,0,1,2.7,1.759c-.092.14-.18.284-.264.43a1.61,1.61,0,0,1-1.4.808m16.017-3.895a1.6,1.6,0,0,1-.871-.257c-.144-.092-.289-.182-.439-.267a1.611,1.611,0,0,1,1.606-2.793c.2.113.389.23.578.352a1.611,1.611,0,0,1-.874,2.965m-11.865-.274a1.611,1.611,0,0,1-.81-3q.292-.17.594-.325a1.611,1.611,0,1,1,1.47,2.866c-.151.078-.3.16-.448.245a1.6,1.6,0,0,1-.806.217m6.269-1.524-.079,0q-.239-.012-.481-.012a1.627,1.627,0,0,1-1.629-1.611,1.6,1.6,0,0,1,1.593-1.611h.036q.319,0,.636.015a1.611,1.611,0,0,1-.076,3.22" transform="translate(-147.35 -91.079)" fill="#f474ff"/>
        <rect id="Rectángulo_3564" data-name="Rectángulo 3564" width="3.031" height="12.123" transform="translate(702.605 218.213)" fill="#00ffe2"/>
        <rect id="Rectángulo_3565" data-name="Rectángulo 3565" width="12.123" height="3.031" transform="translate(698.059 222.76)" fill="#00ffe2"/>
        <rect id="Rectángulo_3566" data-name="Rectángulo 3566" width="3.031" height="12.123" transform="translate(249.508 103.803)"/>
        <rect id="Rectángulo_3567" data-name="Rectángulo 3567" width="12.123" height="3.031" transform="translate(244.962 108.349)"/>
        <rect id="Rectángulo_3568" data-name="Rectángulo 3568" width="3.031" height="12.123" transform="translate(595.771 142.445)" fill="#f474ff"/>
        <rect id="Rectángulo_3569" data-name="Rectángulo 3569" width="12.123" height="3.031" transform="translate(591.225 146.991)" fill="#f474ff"/>
        <rect id="Rectángulo_3570" data-name="Rectángulo 3570" width="3.031" height="12.123" transform="translate(184.347 279.586)"/>
        <rect id="Rectángulo_3571" data-name="Rectángulo 3571" width="12.123" height="3.031" transform="translate(179.801 284.132)"/>
        <path id="Trazado_33194" data-name="Trazado 33194" d="M342.99,415.031h-.758a1.515,1.515,0,0,1,0-3.031h.758a1.515,1.515,0,0,1,0,3.031m-6.061,0h-.758a1.515,1.515,0,0,1,0-3.031h.758a1.515,1.515,0,0,1,0,3.031m-6.061,0h-.758a1.515,1.515,0,0,1,0-3.031h.758a1.515,1.515,0,0,1,0,3.031m-6.061,0h-.758a1.515,1.515,0,0,1,0-3.031h.758a1.515,1.515,0,1,1,0,3.031m-6.061,0h-.758a1.515,1.515,0,0,1,0-3.031h.758a1.515,1.515,0,0,1,0,3.031m-6.061,0h-.758a1.515,1.515,0,0,1,0-3.031h.758a1.515,1.515,0,0,1,0,3.031m-6.061,0h-.758a1.515,1.515,0,0,1,0-3.031h.758a1.515,1.515,0,0,1,0,3.031m-6.061,0H299.8a1.515,1.515,0,0,1,0-3.031h.758a1.515,1.515,0,0,1,0,3.031m-6.061,0h-.758a1.515,1.515,0,0,1,0-3.031h.758a1.515,1.515,0,0,1,0,3.031m-6.061,0h-.758a1.515,1.515,0,0,1,0-3.031h.758a1.515,1.515,0,1,1,0,3.031m-6.061,0h-.758a1.515,1.515,0,0,1,0-3.031h.758a1.515,1.515,0,0,1,0,3.031m-6.061,0h-.758a1.515,1.515,0,0,1,0-3.031h.758a1.515,1.515,0,0,1,0,3.031m-6.061,0h-.758a1.515,1.515,0,0,1,0-3.031h.758a1.515,1.515,0,0,1,0,3.031m-6.061,0h-.758a1.515,1.515,0,0,1,0-3.031h.758a1.515,1.515,0,0,1,0,3.031m-6.061,0h-.758a1.515,1.515,0,0,1,0-3.031h.758a1.515,1.515,0,0,1,0,3.031m-6.061,0h-.758a1.515,1.515,0,0,1,0-3.031h.758a1.515,1.515,0,1,1,0,3.031m-6.061,0h-.758a1.515,1.515,0,0,1,0-3.031h.758a1.515,1.515,0,0,1,0,3.031m-6.061,0h-.758a1.515,1.515,0,0,1,0-3.031h.758a1.515,1.515,0,0,1,0,3.031m-6.061,0h-.758a1.515,1.515,0,0,1,0-3.031h.758a1.515,1.515,0,0,1,0,3.031m-6.061,0h-.758a1.515,1.515,0,0,1,0-3.031h.758a1.515,1.515,0,0,1,0,3.031m-6.061,0H221A1.515,1.515,0,1,1,221,412h.758a1.515,1.515,0,0,1,0,3.031m-6.061,0h-.758a1.515,1.515,0,0,1,0-3.031h.758a1.515,1.515,0,0,1,0,3.031m-6.061,0h-.758a1.515,1.515,0,0,1,0-3.031h.758a1.515,1.515,0,0,1,0,3.031m-6.061,0h-.758a1.515,1.515,0,1,1,0-3.031h.758a1.515,1.515,0,0,1,0,3.031" transform="translate(-48.779 -99.834)" fill="#f474ff"/>
        <path id="Trazado_33195" data-name="Trazado 33195" d="M270.252,428.031h-.758a1.515,1.515,0,1,1,0-3.031h.758a1.515,1.515,0,1,1,0,3.031m-6.061,0h-.758a1.515,1.515,0,0,1,0-3.031h.758a1.515,1.515,0,1,1,0,3.031m-6.061,0h-.758a1.515,1.515,0,1,1,0-3.031h.758a1.515,1.515,0,0,1,0,3.031m-6.061,0h-.758a1.515,1.515,0,1,1,0-3.031h.758a1.515,1.515,0,1,1,0,3.031m-6.061,0h-.758a1.515,1.515,0,1,1,0-3.031h.758a1.515,1.515,0,1,1,0,3.031m-6.061,0h-.758a1.515,1.515,0,1,1,0-3.031h.758a1.515,1.515,0,1,1,0,3.031m-6.061,0h-.758a1.515,1.515,0,1,1,0-3.031h.758a1.515,1.515,0,1,1,0,3.031m-6.061,0h-.758a1.515,1.515,0,1,1,0-3.031h.758a1.515,1.515,0,1,1,0,3.031m-6.061,0H221A1.515,1.515,0,1,1,221,425h.758a1.515,1.515,0,1,1,0,3.031m-6.061,0h-.758a1.515,1.515,0,1,1,0-3.031h.758a1.515,1.515,0,1,1,0,3.031m-6.061,0h-.758a1.515,1.515,0,1,1,0-3.031h.758a1.515,1.515,0,1,1,0,3.031m-6.061,0h-.758a1.515,1.515,0,1,1,0-3.031h.758a1.515,1.515,0,1,1,0,3.031" transform="translate(-48.779 -102.984)" fill="#f474ff"/>
        <path id="Trazado_33196" data-name="Trazado 33196" d="M893.682,113.152c.511,0,1.029.009,1.54.027a43.63,43.63,0,0,1,21.286,6.361l-14.155,16.834a22.377,22.377,0,0,0-7.871-1.73c-.261-.009-.521-.014-.78-.014A22.38,22.38,0,0,0,874.2,146.079L855.759,135.06a43.829,43.829,0,0,1,37.923-21.908m0-3.222a47.06,47.06,0,0,0-42.21,26.32l24.166,14.445A19.174,19.174,0,0,1,893.7,137.851c.223,0,.445,0,.669.011a19.029,19.029,0,0,1,8.826,2.513l18.094-21.52a46.832,46.832,0,0,0-25.957-8.9c-.552-.019-1.1-.029-1.652-.029" transform="translate(-206.324 -26.638)" fill="#8e8e8e"/>
        <path id="Trazado_33197" data-name="Trazado 33197" d="M937.832,121.711l-18.094,21.52a19.276,19.276,0,0,1,7.654,8.125l24.659-13.134a47.3,47.3,0,0,0-14.219-16.511" transform="translate(-222.866 -29.492)" fill="#ccc"/>
        <path id="Trazado_33198" data-name="Trazado 33198" d="M933.968,143.5l-24.659,13.134A19.128,19.128,0,1,1,874.1,158.83l-24.166-14.445a47.054,47.054,0,1,0,84.037-.883" transform="translate(-204.783 -34.773)" fill="#fd8f25"/>
        <rect id="Rectángulo_3572" data-name="Rectángulo 3572" width="28.367" height="10.346" transform="translate(649.889 167.961) rotate(-54.581)" fill="#fff"/>
        <path id="Trazado_33199" data-name="Trazado 33199" d="M865.821,221.807l-11.057-7.863L873.072,188.2l11.058,7.863Zm-6.563-8.622,5.805,4.129,14.573-20.492-5.807-4.129Z" transform="translate(-207.122 -45.604)" fill="#8e8e8e"/>
        <rect id="Rectángulo_3573" data-name="Rectángulo 3573" width="10.346" height="28.368" transform="matrix(0.904, -0.427, 0.427, 0.904, 701.303, 149.463)" fill="#fff"/>
        <path id="Trazado_33200" data-name="Trazado 33200" d="M936.241,222.962,922.756,194.4l12.268-5.792L948.51,217.17Zm-9.2-27.028,10.734,22.74,6.443-3.041-10.735-22.74Z" transform="translate(-223.597 -45.701)" fill="#8e8e8e"/>
        <path id="Trazado_33201" data-name="Trazado 33201" d="M899.14,252.838h0a3.158,3.158,0,0,1-.236-4.46l1.13-1.257a3.158,3.158,0,1,1,4.7,4.224L903.6,252.6a3.159,3.159,0,0,1-4.46.236" transform="translate(-217.621 -59.627)" fill="#fff"/>
        <path id="Trazado_33202" data-name="Trazado 33202" d="M900.731,254.744a4.737,4.737,0,0,1-3.182-1.223h0a4.776,4.776,0,0,1-.357-6.736l1.13-1.256a4.769,4.769,0,1,1,7.092,6.378l-1.129,1.256a4.738,4.738,0,0,1-3.294,1.574q-.13.007-.259.007m-1.029-3.619a1.549,1.549,0,0,0,2.186-.116l1.13-1.257a1.549,1.549,0,0,0-.115-2.186,1.551,1.551,0,0,0-2.187.117l-1.129,1.256a1.55,1.55,0,0,0,.115,2.186" transform="translate(-217.107 -59.113)" fill="#8e8e8e"/>
        <path id="Trazado_33203" data-name="Trazado 33203" d="M896.486,205.719c.257.236,14.144,11.4,14.405,11.644l8.3,7.654a2.912,2.912,0,0,1-3.216,4.856l1.1.74a3,3,0,0,1,1.071,3.86,2.913,2.913,0,0,1-4.183,1.065l-1.2-.808a2.914,2.914,0,0,1,.651,4.267,3,3,0,0,1-3.971.52l-3.205-2.133a2.912,2.912,0,1,1-3.216,4.856l-4.058-2.725-23.439-15.742-4.367-2.932,13.4-19.387,11.937,4.266" transform="translate(-211.093 -48.815)" fill="#fff"/>
        <path id="Trazado_33204" data-name="Trazado 33204" d="M903.893,243.718a4.493,4.493,0,0,1-2.488-.753l-33.227-22.316L883.207,198.9l13.41,4.792.222.205c.34.286,3.91,3.164,7.063,5.707,5.981,4.822,7.218,5.824,7.362,5.955l8.213,7.575a4.528,4.528,0,0,1-.469,7.674,4.492,4.492,0,0,1-.163,3.8,4.541,4.541,0,0,1-2.884,2.264,4.459,4.459,0,0,1-1.035.138,4.548,4.548,0,0,1-.986,2.377,4.611,4.611,0,0,1-5.7,1.095,4.527,4.527,0,0,1-3.435,3.141,4.582,4.582,0,0,1-.91.092m-31.209-23.923,30.509,20.489a1.3,1.3,0,0,0,1.795-.372,1.3,1.3,0,0,0-.36-1.8l-.01-.007,1.782-2.684.015.01,3.192,2.126a1.4,1.4,0,0,0,1.827-.192,1.3,1.3,0,0,0-.271-1.9l-.025-.017,1.787-2.68.042.028,1.171.786A1.3,1.3,0,0,0,916,233.1a1.4,1.4,0,0,0-.539-1.759l-1.109-.746,1.787-2.68a1.3,1.3,0,0,0,1.438-2.17l-.2-.159-8.3-7.653c-.239-.2-3.936-3.185-7.2-5.815-4.571-3.685-6.312-5.091-6.922-5.592l-10.507-3.754Z" transform="translate(-210.372 -48.197)" fill="#8e8e8e"/>
        <path id="Trazado_33205" data-name="Trazado 33205" d="M891.424,247.535l-.418-.413a3.273,3.273,0,0,1-.028-4.63L893.442,240a3.273,3.273,0,0,1,4.629-.028l.418.414a3.274,3.274,0,0,1,.028,4.629l-2.465,2.494a3.273,3.273,0,0,1-4.629.028" transform="translate(-215.668 -57.919)" fill="#fff"/>
        <path id="Trazado_33206" data-name="Trazado 33206" d="M893.21,249.576a4.853,4.853,0,0,1-3.433-1.41l-.418-.413a4.884,4.884,0,0,1-.042-6.908l2.465-2.5a4.849,4.849,0,0,1,3.445-1.451h.03a4.848,4.848,0,0,1,3.433,1.41l.418.413a4.892,4.892,0,0,1,.042,6.908l-2.465,2.494a4.851,4.851,0,0,1-3.445,1.452Zm-1.168-3.7a1.653,1.653,0,0,0,1.168.48h.01a1.652,1.652,0,0,0,1.173-.494l2.464-2.5a1.665,1.665,0,0,0-.014-2.352l-.418-.413a1.651,1.651,0,0,0-1.168-.48h-.01a1.648,1.648,0,0,0-1.172.494l-2.465,2.494a1.661,1.661,0,0,0,.014,2.352Z" transform="translate(-215.153 -57.404)" fill="#8e8e8e"/>
        <path id="Trazado_33207" data-name="Trazado 33207" d="M882.5,241.874h0a3.568,3.568,0,0,1,.023-5.045l4.982-4.936a3.568,3.568,0,1,1,5.023,5.069l-4.982,4.936a3.567,3.567,0,0,1-5.045-.023" transform="translate(-213.592 -55.941)" fill="#fff"/>
        <path id="Trazado_33208" data-name="Trazado 33208" d="M884.518,244.029h-.024a5.179,5.179,0,0,1-3.621-8.858l4.982-4.936a5.179,5.179,0,0,1,7.29,7.358l-4.983,4.936a5.142,5.142,0,0,1-3.644,1.5m4.982-12.071a1.951,1.951,0,0,0-1.377.566l-4.983,4.936a1.958,1.958,0,0,0,1.368,3.347h.01a1.944,1.944,0,0,0,1.377-.567l4.982-4.936a1.956,1.956,0,0,0-1.377-3.347" transform="translate(-213.077 -55.427)" fill="#8e8e8e"/>
        <path id="Trazado_33209" data-name="Trazado 33209" d="M876.593,234.733l-.03-.03a3.547,3.547,0,0,1,.1-5.015l4.006-3.846a3.547,3.547,0,0,1,5.015.1l.029.03a3.547,3.547,0,0,1-.1,5.015l-4.007,3.846a3.546,3.546,0,0,1-5.014-.1" transform="translate(-212.165 -54.485)" fill="#fff"/>
        <path id="Trazado_33210" data-name="Trazado 33210" d="M878.64,236.919l-.108,0a5.123,5.123,0,0,1-3.609-1.578l-.027-.027a5.167,5.167,0,0,1,.14-7.3l4.006-3.846a5.179,5.179,0,0,1,7.174,7.472l-4.007,3.846a5.126,5.126,0,0,1-3.569,1.437m3.973-10.971a1.922,1.922,0,0,0-1.34.539l-4.006,3.846a1.939,1.939,0,0,0-.056,2.738l-1.133,1.146,1.162-1.116a1.919,1.919,0,0,0,1.356.595,1.879,1.879,0,0,0,1.38-.539l4.007-3.847a1.936,1.936,0,0,0,.056-2.737,1.955,1.955,0,0,0-1.387-.626h-.041" transform="translate(-211.651 -53.97)" fill="#8e8e8e"/>
        <rect id="Rectángulo_3574" data-name="Rectángulo 3574" width="3.221" height="6.495" transform="matrix(0.559, -0.829, 0.829, 0.559, 698.593, 178.766)" fill="#8e8e8e"/>
        <rect id="Rectángulo_3575" data-name="Rectángulo 3575" width="3.222" height="7.097" transform="translate(695.238 183.51) rotate(-55.844)" fill="#8e8e8e"/>
        <rect id="Rectángulo_3576" data-name="Rectángulo 3576" width="3.222" height="6.146" transform="translate(689.485 186.563) rotate(-54.615)" fill="#8e8e8e"/>
        <path id="Trazado_33211" data-name="Trazado 33211" d="M930.976,226.848a11.676,11.676,0,0,0,3.769-5.588L930.5,212.4l-6.968,7.616Z" transform="translate(-223.786 -51.468)" fill="#fff"/>
        <path id="Trazado_33212" data-name="Trazado 33212" d="M930.29,227.9l-9.355-8.591,9.3-10.17,5.37,11.221-.162.523a13.032,13.032,0,0,1-4.219,6.256Zm-5.414-8.763,5.472,5.025a10.238,10.238,0,0,0,2.262-3.6l-3.1-6.483Z" transform="translate(-223.156 -50.678)" fill="#8e8e8e"/>
        <path id="Trazado_33213" data-name="Trazado 33213" d="M921.766,207.594a7.109,7.109,0,0,0-8.8-4.855l-2.238.647-.008,0-1.441.417-.015,0-15.355,4.448a2.912,2.912,0,0,0,1.727,5.563l8.549-2.475a10.827,10.827,0,0,0,11.074,5.637l1.656-.583a7.11,7.11,0,0,0,4.854-8.8" transform="translate(-216.11 -49.058)" fill="#fff"/>
        <path id="Trazado_33214" data-name="Trazado 33214" d="M913.153,218.185a12.165,12.165,0,0,1-7.617-2.664,13.484,13.484,0,0,1-2.641-2.792l-7.329,2.123a4.523,4.523,0,0,1-5.631-2.988,4.528,4.528,0,0,1,2.979-5.661L912,200.676a8.72,8.72,0,0,1,4.89,16.741l-1.934.646a13.533,13.533,0,0,1-1.8.123m-7.909-7.769a9.356,9.356,0,0,0,9.123,4.473l1.582-.555a5.5,5.5,0,1,0-3.054-10.564l-19.056,5.517a1.3,1.3,0,0,0,.8,2.478l10.436-3.022Z" transform="translate(-215.595 -48.543)" fill="#8e8e8e"/>
        <rect id="Rectángulo_3577" data-name="Rectángulo 3577" width="92.438" height="3.222" transform="translate(742.16 315.738)" fill="#00ffe2"/>
        <rect id="Rectángulo_3578" data-name="Rectángulo 3578" width="92.438" height="3.222" transform="translate(742.16 326.346)" fill="#00ffe2"/>
        <rect id="Rectángulo_3579" data-name="Rectángulo 3579" width="92.438" height="3.222" transform="translate(742.16 336.953)" fill="#00ffe2"/>
        <rect id="Rectángulo_3580" data-name="Rectángulo 3580" width="12.881" height="12.123" transform="translate(725.491 311.288)" fill="#ccc"/>
        <rect id="Rectángulo_3581" data-name="Rectángulo 3581" width="12.881" height="12.123" transform="translate(725.491 332.503)" fill="#ccc"/>
        <path id="Trazado_33215" data-name="Trazado 33215" d="M963.511,414.777,955.545,397a1.611,1.611,0,0,1,2.941-1.317l4.932,11.01,12.049-28.655a1.611,1.611,0,0,1,2.97,1.249Z" transform="translate(-231.508 -91.364)" fill="#fd8f25"/>
        <path id="Trazado_33216" data-name="Trazado 33216" d="M519.7,404.724c-87.1,0-157.969-70.864-157.969-157.969a1.611,1.611,0,1,1,3.222,0c0,85.328,69.419,154.747,154.747,154.747s154.747-69.419,154.747-154.747a1.611,1.611,0,0,1,3.222,0c0,87.105-70.865,157.969-157.969,157.969" transform="translate(-87.652 -59.402)" fill="#8e8e8e"/>
        <path id="Trazado_33217" data-name="Trazado 33217" d="M660.112,264.206H639.8a1.515,1.515,0,0,1-1.493-1.776l10.277-58.862a1.515,1.515,0,0,1,1.493-1.255h0a1.516,1.516,0,0,1,1.49,1.261l10.039,58.863a1.515,1.515,0,0,1-1.493,1.77M641.6,261.175h16.716l-8.26-48.436Z" transform="translate(-154.665 -49.023)" fill="#8e8e8e"/>
        <rect id="Rectángulo_3582" data-name="Rectángulo 3582" width="34.33" height="3.222" transform="matrix(0.446, -0.895, 0.895, 0.446, 483.689, 212.254)" fill="#8e8e8e"/>
        <rect id="Rectángulo_3583" data-name="Rectángulo 3583" width="3.222" height="34.33" transform="translate(488.709 182.956) rotate(-26.459)" fill="#8e8e8e"/>
        <path id="Trazado_33218" data-name="Trazado 33218" d="M687.733,275.521h-3.222V260.178h-8.76v15.342h-3.221V256.957h15.2Z" transform="translate(-162.964 -62.264)" fill="#8e8e8e"/>
        <rect id="Rectángulo_3584" data-name="Rectángulo 3584" width="3.031" height="13.638" transform="translate(516.214 182.602)" fill="#8e8e8e"/>
        <rect id="Rectángulo_3585" data-name="Rectángulo 3585" width="3.031" height="35.611" transform="translate(459.388 177.298)" fill="#8e8e8e"/>
        <rect id="Rectángulo_3586" data-name="Rectángulo 3586" width="83.345" height="3.031" transform="translate(450.296 212.152)" fill="#8e8e8e"/>
        <path id="Trazado_33219" data-name="Trazado 33219" d="M674.423,235.692l2.6-6.252L621.8,205.94l-2.6,6.252Z" transform="translate(-150.041 -49.902)" fill="#ccc"/>
        <path id="Trazado_33220" data-name="Trazado 33220" d="M607.851,222.949l13.8-33.189-11.268-10.889c-8.286,11.787-8.3,41.679-8.3,41.679Z" transform="translate(-145.892 -43.343)" fill="#fff"/>
        <path id="Trazado_33221" data-name="Trazado 33221" d="M608.184,224.188l-8.106-3.369v-1.012c0-1.24.114-30.51,8.579-42.55l1.018-1.449,13.284,12.839Zm-5.062-5.386,3.426,1.424,12.819-30.836-9.188-8.881c-6.2,10.82-6.965,33.275-7.057,38.292" transform="translate(-145.408 -42.601)" fill="#8e8e8e"/>
        <path id="Trazado_33222" data-name="Trazado 33222" d="M1001.293,289H964.536a57.356,57.356,0,0,1-57.291-57.292V152.9a51.806,51.806,0,0,0-103.612,0v37.76A48.387,48.387,0,0,1,755.3,238.995H696.7a1.61,1.61,0,1,1,0-3.221h58.6a45.163,45.163,0,0,0,45.111-45.112V152.9a55.028,55.028,0,0,1,110.055,0V231.71a54.131,54.131,0,0,0,54.069,54.07h36.757a1.611,1.611,0,0,1,0,3.222" transform="translate(-168.431 -23.717)" fill="#8e8e8e"/>
        <path id="Trazado_33223" data-name="Trazado 33223" d="M752.088,392.532a6.662,6.662,0,1,1,6.662-6.662,6.669,6.669,0,0,1-6.662,6.662m0-10.1a3.44,3.44,0,1,0,3.44,3.44,3.444,3.444,0,0,0-3.44-3.44" transform="translate(-180.628 -91.888)" fill="#8e8e8e"/>
        <path id="Trazado_33224" data-name="Trazado 33224" d="M778.963,392.532a6.662,6.662,0,1,1,6.661-6.662,6.669,6.669,0,0,1-6.661,6.662m0-10.1a3.44,3.44,0,1,0,3.44,3.44,3.444,3.444,0,0,0-3.44-3.44" transform="translate(-187.14 -91.888)" fill="#8e8e8e"/>
        <path id="Trazado_33225" data-name="Trazado 33225" d="M799.213,392.532a6.662,6.662,0,1,1,6.662-6.662,6.669,6.669,0,0,1-6.662,6.662m0-10.1a3.44,3.44,0,1,0,3.44,3.44,3.444,3.444,0,0,0-3.44-3.44" transform="translate(-192.047 -91.888)" fill="#8e8e8e"/>
        <path id="Trazado_33226" data-name="Trazado 33226" d="M826.088,392.532a6.662,6.662,0,1,1,6.662-6.662,6.669,6.669,0,0,1-6.662,6.662m0-10.1a3.44,3.44,0,1,0,3.44,3.44,3.444,3.444,0,0,0-3.44-3.44" transform="translate(-198.559 -91.888)" fill="#8e8e8e"/>
        <path id="Trazado_33227" data-name="Trazado 33227" d="M754.368,380.157a1.611,1.611,0,0,1-1.312-2.541l4.294-6.061a1.61,1.61,0,1,1,2.628,1.862l-4.294,6.061a1.608,1.608,0,0,1-1.315.68" transform="translate(-182.404 -89.868)" fill="#8e8e8e"/>
        <path id="Trazado_33228" data-name="Trazado 33228" d="M780.665,380.157a1.608,1.608,0,0,1-1.315-.68l-4.294-6.061a1.61,1.61,0,1,1,2.628-1.862l4.294,6.061a1.611,1.611,0,0,1-1.312,2.541" transform="translate(-187.735 -89.868)" fill="#8e8e8e"/>
        <path id="Trazado_33229" data-name="Trazado 33229" d="M798.368,380.157a1.611,1.611,0,0,1-1.312-2.541l4.294-6.061a1.61,1.61,0,1,1,2.628,1.862l-4.294,6.061a1.608,1.608,0,0,1-1.315.68" transform="translate(-193.066 -89.868)" fill="#8e8e8e"/>
        <path id="Trazado_33230" data-name="Trazado 33230" d="M824.665,380.157a1.608,1.608,0,0,1-1.315-.68l-4.294-6.061a1.61,1.61,0,1,1,2.628-1.862l4.294,6.061a1.611,1.611,0,0,1-1.312,2.541" transform="translate(-198.397 -89.868)" fill="#8e8e8e"/>
        <path id="Trazado_33231" data-name="Trazado 33231" d="M860.088,392.532a6.662,6.662,0,1,1,6.661-6.662,6.669,6.669,0,0,1-6.661,6.662m0-10.1a3.44,3.44,0,1,0,3.44,3.44,3.444,3.444,0,0,0-3.44-3.44" transform="translate(-206.798 -91.888)" fill="#8e8e8e"/>
        <path id="Trazado_33232" data-name="Trazado 33232" d="M886.963,392.532a6.662,6.662,0,1,1,6.662-6.662,6.669,6.669,0,0,1-6.662,6.662m0-10.1a3.44,3.44,0,1,0,3.44,3.44,3.444,3.444,0,0,0-3.44-3.44" transform="translate(-213.31 -91.888)" fill="#8e8e8e"/>
        <path id="Trazado_33233" data-name="Trazado 33233" d="M907.213,392.532a6.662,6.662,0,1,1,6.661-6.662,6.669,6.669,0,0,1-6.661,6.662m0-10.1a3.44,3.44,0,1,0,3.44,3.44,3.444,3.444,0,0,0-3.44-3.44" transform="translate(-218.217 -91.888)" fill="#8e8e8e"/>
        <path id="Trazado_33234" data-name="Trazado 33234" d="M934.088,392.532a6.662,6.662,0,1,1,6.661-6.662,6.669,6.669,0,0,1-6.661,6.662m0-10.1a3.44,3.44,0,1,0,3.44,3.44,3.444,3.444,0,0,0-3.44-3.44" transform="translate(-224.729 -91.888)" fill="#8e8e8e"/>
        <path id="Trazado_33235" data-name="Trazado 33235" d="M862.368,380.157a1.611,1.611,0,0,1-1.312-2.541l4.294-6.061a1.61,1.61,0,1,1,2.628,1.862l-4.294,6.061a1.608,1.608,0,0,1-1.315.68" transform="translate(-208.574 -89.868)" fill="#8e8e8e"/>
        <path id="Trazado_33236" data-name="Trazado 33236" d="M888.665,380.157a1.608,1.608,0,0,1-1.315-.68l-4.294-6.061a1.61,1.61,0,1,1,2.628-1.862l4.294,6.061a1.611,1.611,0,0,1-1.312,2.541" transform="translate(-213.905 -89.868)" fill="#8e8e8e"/>
        <path id="Trazado_33237" data-name="Trazado 33237" d="M906.368,380.157a1.611,1.611,0,0,1-1.312-2.541l4.294-6.061a1.61,1.61,0,1,1,2.628,1.862l-4.294,6.061a1.608,1.608,0,0,1-1.315.68" transform="translate(-219.236 -89.868)" fill="#8e8e8e"/>
        <path id="Trazado_33238" data-name="Trazado 33238" d="M932.665,380.157a1.608,1.608,0,0,1-1.315-.68l-4.294-6.061a1.61,1.61,0,1,1,2.628-1.862l4.294,6.061a1.611,1.611,0,0,1-1.312,2.541" transform="translate(-224.567 -89.868)" fill="#8e8e8e"/>
        <path id="Trazado_33239" data-name="Trazado 33239" d="M800.465,332.123A12.123,12.123,0,1,1,788.342,320a12.123,12.123,0,0,1,12.123,12.123" transform="translate(-188.089 -77.541)" fill="#472ea6"/>
        <path id="Trazado_33240" data-name="Trazado 33240" d="M905.465,332.123A12.123,12.123,0,1,1,893.342,320a12.123,12.123,0,0,1,12.123,12.123" transform="translate(-213.532 -77.541)" fill="#472ea6"/>
        <path id="Trazado_33241" data-name="Trazado 33241" d="M844.671,307.752a1.611,1.611,0,0,1-.411-3.169q.441-.117.871-.26a1.611,1.611,0,0,1,1.017,3.057q-.525.175-1.064.317a1.627,1.627,0,0,1-.413.054m-8.967-.2a1.608,1.608,0,0,1-.484-.075q-.532-.167-1.05-.366a1.611,1.611,0,0,1,1.156-3.007q.424.164.86.3a1.612,1.612,0,0,1-.482,3.149m17.324-5.177a1.611,1.611,0,0,1-1.245-2.633c.193-.234.378-.476.557-.722a1.611,1.611,0,1,1,2.61,1.888q-.325.45-.677.877a1.608,1.608,0,0,1-1.246.589m-25.435-.568a1.609,1.609,0,0,1-1.293-.647q-.331-.441-.634-.9a1.611,1.611,0,0,1,2.69-1.773q.252.383.526.749a1.611,1.611,0,0,1-1.289,2.575m29.075-8.677c-.033,0-.067,0-.1,0a1.611,1.611,0,0,1-1.508-1.708c.018-.3.028-.6.028-.909,0-.179,0-.35-.009-.521a1.611,1.611,0,1,1,3.22-.112q.011.318.011.639c0,.367-.011.736-.034,1.1a1.612,1.612,0,0,1-1.606,1.512m-32.3-.722a1.611,1.611,0,0,1-1.61-1.586l0-.312c0-.267.005-.533.017-.8a1.633,1.633,0,0,1,1.684-1.535A1.612,1.612,0,0,1,826,289.863c-.011.214-.014.43-.014.647l0,.263a1.611,1.611,0,0,1-1.587,1.635Zm29.523-9.388a1.607,1.607,0,0,1-1.333-.7q-.256-.375-.533-.733a1.611,1.611,0,1,1,2.542-1.978q.342.439.655.9a1.61,1.61,0,0,1-1.33,2.516m-26.641-.12a1.61,1.61,0,0,1-1.321-2.53q.317-.457.662-.891a1.611,1.611,0,1,1,2.526,2q-.282.357-.542.73a1.608,1.608,0,0,1-1.324.692m18.8-5.978a1.623,1.623,0,0,1-.549-.1q-.427-.155-.865-.284a1.611,1.611,0,1,1,.907-3.091q.534.157,1.055.346a1.611,1.611,0,0,1-.549,3.126m-10.893-.049a1.611,1.611,0,0,1-.536-3.13c.349-.124.7-.236,1.06-.337a1.611,1.611,0,0,1,.877,3.1q-.439.124-.865.274a1.6,1.6,0,0,1-.536.092" transform="translate(-199.366 -66.236)"/>
        <path id="Trazado_33242" data-name="Trazado 33242" d="M843.281,302.249a9.188,9.188,0,1,1,9.188-9.188,9.2,9.2,0,0,1-9.188,9.188m0-15.154a5.966,5.966,0,1,0,5.966,5.966,5.972,5.972,0,0,0-5.966-5.966" transform="translate(-202.113 -68.787)" fill="#472ea6"/>
        <rect id="Rectángulo_3587" data-name="Rectángulo 3587" width="7.28" height="3.222" transform="translate(615.918 237.661) rotate(-36.461)" fill="#fd8f25"/>
        <path id="Trazado_33243" data-name="Trazado 33243" d="M816.447,316.959l-9.9,1.121,3.976-9.13Z" transform="translate(-195.439 -74.863)" fill="#fd8f25"/>
        <rect id="Rectángulo_3588" data-name="Rectángulo 3588" width="3.222" height="7.28" transform="translate(657.131 235.926) rotate(-53.532)" fill="#fd8f25"/>
        <path id="Trazado_33244" data-name="Trazado 33244" d="M876.746,308.949l3.975,9.131-9.895-1.121Z" transform="translate(-211.014 -74.863)" fill="#fd8f25"/>
        <path id="Trazado_33245" data-name="Trazado 33245" d="M771.7,354.561a1.611,1.611,0,0,1-1.139-2.75l4.8-4.8a1.61,1.61,0,0,1,2.278,2.278l-4.8,4.8a1.606,1.606,0,0,1-1.139.472" transform="translate(-186.605 -83.972)" fill="#8e8e8e"/>
        <path id="Trazado_33246" data-name="Trazado 33246" d="M809.5,354.561a1.606,1.606,0,0,1-1.139-.472l-4.8-4.8a1.61,1.61,0,0,1,2.278-2.278l4.8,4.8a1.611,1.611,0,0,1-1.139,2.75" transform="translate(-194.601 -83.972)" fill="#8e8e8e"/>
        <path id="Trazado_33247" data-name="Trazado 33247" d="M876.7,354.561a1.611,1.611,0,0,1-1.139-2.75l4.8-4.8a1.61,1.61,0,0,1,2.278,2.278l-4.8,4.8a1.606,1.606,0,0,1-1.139.472" transform="translate(-212.048 -83.972)" fill="#8e8e8e"/>
        <path id="Trazado_33248" data-name="Trazado 33248" d="M914.5,354.561a1.606,1.606,0,0,1-1.139-.472l-4.8-4.8a1.61,1.61,0,0,1,2.278-2.278l4.8,4.8a1.611,1.611,0,0,1-1.139,2.75" transform="translate(-220.044 -83.972)" fill="#8e8e8e"/>
        <path id="Trazado_33249" data-name="Trazado 33249" d="M774.716,362.415a8.082,8.082,0,1,1-8.081-8.081,8.081,8.081,0,0,1,8.081,8.081" transform="translate(-183.808 -85.86)" fill="#ccc"/>
        <path id="Trazado_33250" data-name="Trazado 33250" d="M817.716,362.415a8.082,8.082,0,1,1-8.081-8.081,8.081,8.081,0,0,1,8.081,8.081" transform="translate(-194.228 -85.86)" fill="#ccc"/>
        <path id="Trazado_33251" data-name="Trazado 33251" d="M882.716,362.415a8.082,8.082,0,1,1-8.082-8.081,8.081,8.081,0,0,1,8.082,8.081" transform="translate(-209.978 -85.86)" fill="#ccc"/>
        <path id="Trazado_33252" data-name="Trazado 33252" d="M925.716,362.415a8.082,8.082,0,1,1-8.081-8.081,8.081,8.081,0,0,1,8.081,8.081" transform="translate(-220.398 -85.86)" fill="#ccc"/>
        <rect id="Rectángulo_3589" data-name="Rectángulo 3589" width="73.495" height="3.031" transform="translate(776.1 231.852)" fill="#848484"/>
        <path id="Trazado_33253" data-name="Trazado 33253" d="M290.351,202.376a29.765,29.765,0,0,1,14.473-1.865l38.124,4.575c2.347.282,6.395-5.553.157-6.75l-42.32-10.952a23.917,23.917,0,0,0-11.815-.043Z" transform="translate(-70.022 -45.221)" fill="#fff"/>
        <path id="Trazado_33254" data-name="Trazado 33254" d="M342.592,206.191a3,3,0,0,1-.351-.02L304.117,201.6a28.244,28.244,0,0,0-13.691,1.765,1.611,1.611,0,0,1-2.2-1.351l-1.38-15.036a1.611,1.611,0,0,1,1.212-1.71,25.589,25.589,0,0,1,12.611.046l42.272,10.939c3.807.752,4.83,3.166,4.516,5.183-.392,2.519-2.735,4.759-4.87,4.759m-41.811-8.016a31.185,31.185,0,0,1,3.72.222l38.124,4.575a2.886,2.886,0,0,0,1.668-2.162c.042-.67-.633-1.143-2.007-1.406l-.1-.023-42.32-10.952a22.383,22.383,0,0,0-9.677-.333l1.061,11.555a31.543,31.543,0,0,1,9.531-1.475" transform="translate(-69.507 -44.706)" fill="#8e8e8e"/>
        <path id="Trazado_33255" data-name="Trazado 33255" d="M207.058,217.194l22.83-1.677,2.6.8a3.441,3.441,0,0,0,1.015.295l37.959,4.642c1.317.161,6.2.559,7.051-2.3a3.087,3.087,0,0,0-1.262-3.3c-.036.076-9.689-3.225-19.611-6.64l15.142-4.471a25.3,25.3,0,0,1,14.595.063l37.261,11.3c2.294.7,7.037-5.521,1-7.9L285,188.566a20.6,20.6,0,0,0-11.718-1.889l-42.039,5.706c.786.088-23.582.607-23.582.607a.668.668,0,0,0-.947.477l-.145,25.677c-.134.458.092-2.074.489-1.951" transform="translate(-50.045 -45.19)" fill="#fff"/>
        <path id="Trazado_33256" data-name="Trazado 33256" d="M272.857,222.474a17.21,17.21,0,0,1-2.1-.135L232.8,217.7a5,5,0,0,1-1.386-.383l-2.215-.683-21.521,1.581,0,.427a1.6,1.6,0,0,1-.065.444,1.7,1.7,0,0,1-1.4,1.2,1.615,1.615,0,0,1-1.591-.844,2.729,2.729,0,0,1-.158-1.427l.142-25.073a1.611,1.611,0,0,1,.065-.445,2.375,2.375,0,0,1,1.349-1.537,2.208,2.208,0,0,1,1.4-.1c8.647-.185,21.424-.479,23.021-.571l.089-.015,42.039-5.707a22.263,22.263,0,0,1,12.63,2.033l40.581,19.419c3.87,1.551,4.395,4.566,3.59,6.879-.858,2.468-3.41,4.736-5.7,4.039l-37.261-11.3a23.773,23.773,0,0,0-13.67-.06l-10.305,3.043c11.2,3.844,14,4.767,14.571,4.931a2.391,2.391,0,0,1,1.2.7,4.491,4.491,0,0,1,1.358,4.654c-.683,2.3-3.126,3.576-6.688,3.576m-43.478-9.082a1.624,1.624,0,0,1,.474.071l2.6.8a1.637,1.637,0,0,1,.195.074,1.856,1.856,0,0,0,.541.161l37.96,4.642c2.38.294,4.971-.014,5.311-1.159a1.372,1.372,0,0,0-.475-1.394c-.408-.106-.88-.263-1.433-.446-1.068-.352-2.592-.866-4.426-1.489-3.66-1.243-8.556-2.924-13.519-4.632a1.611,1.611,0,0,1,.068-3.069l15.142-4.471a26.984,26.984,0,0,1,15.518.068l37.2,11.286a3.383,3.383,0,0,0,1.9-2.461c.06-.379.242-1.536-1.9-2.379-.036-.014-.071-.03-.105-.046L283.8,189.5a19.068,19.068,0,0,0-10.806-1.746l-42.039,5.708,0-.022a8.584,8.584,0,0,1-1.152.095c-.649.023-1.576.051-2.688.082-2.215.061-5.167.133-8.12.2-4.756.111-9.512.214-11.179.251l-.118,20.908,21.57-1.584q.059,0,.118,0M206.1,218.227a1.457,1.457,0,0,0,.222.048,1.5,1.5,0,0,1-.222-.048" transform="translate(-49.536 -44.675)" fill="#8e8e8e"/>
        <path id="Trazado_33257" data-name="Trazado 33257" d="M335.658,273.525l1.03-6.984-2.648-.39a19.41,19.41,0,0,0-.539-3.923l2.444-1.091-2.88-6.445-2.454,1.1a19.743,19.743,0,0,0-2.556-3.013l1.483-2.244-5.889-3.892-1.479,2.236a19.355,19.355,0,0,0-3.778-1.172l.047-2.68-7.058-.124-.048,2.682a19.312,19.312,0,0,0-4.726,1.434l-1.524-2.228-5.827,3.986,1.534,2.241a19.8,19.8,0,0,0-2.5,3.04l-2.493-1.066-2.776,6.491,2.466,1.055a19.294,19.294,0,0,0-.483,3.927l-2.641.433,1.141,6.967,2.636-.432a19.3,19.3,0,0,0,1.71,3.572l-1.995,1.781,4.7,5.265,1.994-1.781a19.414,19.414,0,0,0,3.356,2.106l-.725,2.566,6.793,1.919.729-2.58c.49.045.983.077,1.481.086l.349,0a19.355,19.355,0,0,0,2.127-.12l.769,2.567,6.762-2.026-.776-2.59a19.708,19.708,0,0,0,3.3-2.15l2.053,1.774,4.617-5.339-2.047-1.771A19.446,19.446,0,0,0,333,273.133Zm-21.352,5.782a12.468,12.468,0,0,1-12.247-12.684,12.525,12.525,0,0,1,12.462-12.25h.223a12.468,12.468,0,0,1-.212,24.935Z" transform="translate(-70.843 -59.343)" fill="#ccc"/>
        <path id="Trazado_33258" data-name="Trazado 33258" d="M318.945,279.533a8.344,8.344,0,1,1,8.344-8.344,8.353,8.353,0,0,1-8.344,8.344m0-13.467a5.123,5.123,0,1,0,5.123,5.123,5.129,5.129,0,0,0-5.123-5.123" transform="translate(-75.263 -63.691)"/>
        <path id="Trazado_33259" data-name="Trazado 33259" d="M373.958,333.556l5.78-1.644-2.684-9.435-5.792,1.647a29.224,29.224,0,0,0-3.471-5.535l4-4.5-7.329-6.519-3.992,4.486a28.8,28.8,0,0,0-5.91-2.806l.961-5.933-9.683-1.567-.96,5.927a29.124,29.124,0,0,0-7.931,1.164l-2.64-5.369-8.8,4.329,2.631,5.352a28.838,28.838,0,0,0-4.84,4.432l-5.1-3.107-5.1,8.378,5.12,3.12a29.371,29.371,0,0,0-1.655,6.042c-.015.092-.024.186-.039.278l-6.009.117.189,9.808,5.992-.115a28.679,28.679,0,0,0,1.959,6.247l-5,3.319,5.424,8.173,5.006-3.322a28.794,28.794,0,0,0,4.992,4.233l-2.435,5.478,8.963,3.986,2.441-5.492c.817.206,1.643.383,2.485.52a29.332,29.332,0,0,0,3.995.349l.89,5.955,9.7-1.449-.883-5.91a28.729,28.729,0,0,0,5.965-2.737l3.91,4.505,7.409-6.43-3.913-4.509a28.8,28.8,0,0,0,3.538-5.521l5.741,1.709,2.8-9.4-5.761-1.715a28.808,28.808,0,0,0,.042-6.54m-46.287,15.707a21.563,21.563,0,0,1,17.454-34.175A21.587,21.587,0,0,1,366.438,340.1a21.458,21.458,0,0,1-21.251,18.118,21.731,21.731,0,0,1-3.476-.282,21.413,21.413,0,0,1-14.04-8.669" transform="translate(-75.241 -73.119)" fill="#fd8f25"/>
        <path id="Trazado_33260" data-name="Trazado 33260" d="M353.054,354.56a9.921,9.921,0,1,1,9.92-9.92,9.931,9.931,0,0,1-9.92,9.92m0-16.62a6.7,6.7,0,1,0,6.7,6.7,6.708,6.708,0,0,0-6.7-6.7" transform="translate(-83.146 -81.107)"/>
        <path id="Trazado_33261" data-name="Trazado 33261" d="M348.322,360.114a2.83,2.83,0,0,1-.413-.029c-.384-.054-.764-.121-1.141-.2a2.922,2.922,0,0,1,1.184-5.723c.256.053.514.1.777.136a2.921,2.921,0,0,1-.406,5.813m7.654-.863a2.922,2.922,0,0,1-1.05-5.649q.368-.142.726-.307a2.922,2.922,0,0,1,2.437,5.311q-.523.24-1.065.449a2.906,2.906,0,0,1-1.049.2m-15.528-2.711a2.91,2.91,0,0,1-1.908-.711q-.438-.378-.85-.782a2.921,2.921,0,0,1,4.086-4.176c.189.185.383.364.583.536a2.922,2.922,0,0,1-1.911,5.133m22.395-2.532a2.922,2.922,0,0,1-2.35-4.654q.234-.317.448-.652a2.922,2.922,0,0,1,4.914,3.162q-.314.486-.657.953a2.914,2.914,0,0,1-2.355,1.19m-27.091-4.725a2.924,2.924,0,0,1-2.8-2.09q-.165-.556-.294-1.127a2.921,2.921,0,0,1,5.7-1.293c.058.257.125.508.2.757a2.923,2.923,0,0,1-2.8,3.754m30.049-3.4c-.061,0-.123,0-.184-.006a2.922,2.922,0,0,1-2.735-3.1c.017-.262.025-.477.025-.743a2.9,2.9,0,0,1,2.885-2.941h.037a2.793,2.793,0,0,1,2.911,2.755v.137c0,.389-.008.773-.031,1.155a2.917,2.917,0,0,1-2.908,2.74m-30.076-5.245a2.925,2.925,0,0,1-2.807-3.735c.108-.373.227-.739.357-1.1a2.921,2.921,0,1,1,5.5,1.977c-.088.246-.17.5-.242.751a2.923,2.923,0,0,1-2.8,2.109m28.126-3.274a2.921,2.921,0,0,1-2.547-1.484q-.194-.344-.409-.673a2.922,2.922,0,0,1,4.895-3.191q.316.484.6.99a2.922,2.922,0,0,1-2.541,4.359m-23.478-4.014a2.922,2.922,0,0,1-1.923-5.122q.433-.377.887-.729a2.922,2.922,0,0,1,3.573,4.624q-.316.244-.617.506a2.911,2.911,0,0,1-1.92.721m17.277-2.013a2.908,2.908,0,0,1-1.372-.344q-.344-.183-.7-.344a2.922,2.922,0,0,1,2.4-5.327q.533.241,1.049.515a2.922,2.922,0,0,1-1.377,5.5m-9.439-1.615a2.921,2.921,0,0,1-.425-5.811q.572-.085,1.153-.135a2.922,2.922,0,0,1,.483,5.824c-.262.02-.521.051-.78.089a2.99,2.99,0,0,1-.432.032" transform="translate(-80.59 -78.454)" fill="#ccc"/>
        <path id="Trazado_33262" data-name="Trazado 33262" d="M286.964,320.434l1.232-8.347-7.422-1.1a22.356,22.356,0,0,0-.568-4.169l6.843-3.057-3.441-7.7-6.849,3.06a22.538,22.538,0,0,0-2.722-3.206l4.138-6.259L271.136,285,267,291.257a22.306,22.306,0,0,0-4.019-1.246l.13-7.5-8.436-.149-.131,7.5a22.272,22.272,0,0,0-5.12,1.534l-4.234-6.189-6.964,4.764,4.237,6.193a22.466,22.466,0,0,0-2.672,3.249l-6.895-2.95-3.319,7.757,6.891,2.948a22.553,22.553,0,0,0-.5,4.179l-7.4,1.214,1.365,8.326,7.4-1.213a22.294,22.294,0,0,0,1.815,3.8l-5.594,4.995,5.62,6.293,5.594-4.994A22.406,22.406,0,0,0,248.329,332l-2.037,7.212,8.121,2.293,2.039-7.221c.506.043,1.016.076,1.532.086.135,0,.267,0,.4,0a22.342,22.342,0,0,0,2.275-.115l2.153,7.181,8.082-2.424-2.153-7.182a22.406,22.406,0,0,0,3.529-2.289l5.675,4.906,5.519-6.382-5.673-4.9a22.32,22.32,0,0,0,1.755-3.826Zm-43.467-4.6a3.775,3.775,0,1,1,3.775-3.775,3.775,3.775,0,0,1-3.775,3.775m14.771-22.321a3.775,3.775,0,1,1-3.775,3.774,3.775,3.775,0,0,1,3.775-3.774m0,37.092a3.775,3.775,0,1,1,3.776-3.775,3.775,3.775,0,0,1-3.776,3.775m.117-10.183-.156,0a8.464,8.464,0,0,1,.141-16.927l.155,0a8.464,8.464,0,0,1-.14,16.927m14.654-4.588a3.775,3.775,0,1,1,3.775-3.775,3.775,3.775,0,0,1-3.775,3.775" transform="translate(-55.385 -68.421)" fill="#472ea6"/>
        <path id="Trazado_33263" data-name="Trazado 33263" d="M320.818,232.942a1.516,1.516,0,0,1-1.515-1.515v-.758a1.515,1.515,0,1,1,3.031,0v.758a1.516,1.516,0,0,1-1.515,1.515m0-7.577a1.516,1.516,0,0,1-1.515-1.515v-.758a1.515,1.515,0,1,1,3.031,0v.758a1.516,1.516,0,0,1-1.515,1.515m0-7.577a1.516,1.516,0,0,1-1.515-1.515v-.758a1.515,1.515,0,1,1,3.031,0v.758a1.516,1.516,0,0,1-1.515,1.515" transform="translate(-77.372 -51.855)"/>
        <path id="Trazado_33264" data-name="Trazado 33264" d="M356.818,281.826a1.516,1.516,0,0,1-1.515-1.515v-.758a1.515,1.515,0,1,1,3.031,0v.758a1.516,1.516,0,0,1-1.515,1.515m0-7.577a1.516,1.516,0,0,1-1.515-1.515v-.758a1.515,1.515,0,1,1,3.031,0v.758a1.516,1.516,0,0,1-1.515,1.515m0-7.577a1.516,1.516,0,0,1-1.515-1.515V264.4a1.515,1.515,0,1,1,3.031,0v.758a1.516,1.516,0,0,1-1.515,1.515m0-7.577a1.516,1.516,0,0,1-1.515-1.515v-.758a1.515,1.515,0,1,1,3.031,0v.758a1.516,1.516,0,0,1-1.515,1.515m0-7.577A1.516,1.516,0,0,1,355.3,250v-.758a1.515,1.515,0,1,1,3.031,0V250a1.516,1.516,0,0,1-1.515,1.515m0-7.577a1.516,1.516,0,0,1-1.515-1.515v-.758a1.515,1.515,0,1,1,3.031,0v.758a1.516,1.516,0,0,1-1.515,1.515m0-7.577a1.516,1.516,0,0,1-1.515-1.515v-.758a1.515,1.515,0,1,1,3.031,0v.758a1.516,1.516,0,0,1-1.515,1.515m0-7.577a1.516,1.516,0,0,1-1.515-1.515v-.758a1.515,1.515,0,1,1,3.031,0v.758a1.516,1.516,0,0,1-1.515,1.515" transform="translate(-86.095 -54.521)"/>
        <path id="Trazado_33265" data-name="Trazado 33265" d="M265.818,269.1a1.516,1.516,0,0,1-1.515-1.515v-.758a1.515,1.515,0,0,1,3.031,0v.758a1.516,1.516,0,0,1-1.515,1.515m0-7.577A1.516,1.516,0,0,1,264.3,260v-.758a1.515,1.515,0,0,1,3.031,0V260a1.516,1.516,0,0,1-1.515,1.515m0-7.577a1.516,1.516,0,0,1-1.515-1.515v-.758a1.515,1.515,0,1,1,3.031,0v.758a1.516,1.516,0,0,1-1.515,1.515m0-7.577a1.516,1.516,0,0,1-1.515-1.515v-.758a1.515,1.515,0,1,1,3.031,0v.758a1.516,1.516,0,0,1-1.515,1.515m0-7.577a1.516,1.516,0,0,1-1.515-1.515v-.758a1.515,1.515,0,1,1,3.031,0v.758a1.516,1.516,0,0,1-1.515,1.515" transform="translate(-64.044 -56.944)"/>
        <rect id="Rectángulo_3590" data-name="Rectángulo 3590" width="20.501" height="46.219" transform="translate(138.137 138.025)" fill="#ccc"/>
        <path id="Trazado_33266" data-name="Trazado 33266" d="M558.329,358.792a3.693,3.693,0,0,1-3.492-2.494l-2.447-7.118a1.611,1.611,0,1,1,3.047-1.047l2.447,7.118a.479.479,0,0,0,.484.317.471.471,0,0,0,.407-.624l-5-14.54a1.611,1.611,0,1,1,3.047-1.047l5,14.54a3.692,3.692,0,0,1-3.2,4.883c-.1.008-.2.012-.293.012" transform="translate(-133.831 -81.968)" fill="#8e8e8e"/>
        <path id="Trazado_33267" data-name="Trazado 33267" d="M567.122,316.063l13.716-8.986a3.176,3.176,0,0,1,4.844,2.6l1.993,25.057a3.173,3.173,0,0,1-4.432,3.3l-15.111-7.156Z" transform="translate(-137.422 -74.287)" fill="#ccc"/>
        <path id="Trazado_33268" data-name="Trazado 33268" d="M550.384,335.831a8.545,8.545,0,0,1-.672-17.063l8.109-.645,1.356,17.034-8.109.646q-.343.027-.683.027m4.481-14.241-4.9.389a5.323,5.323,0,0,0,.845,10.613l4.9-.39Z" transform="translate(-131.297 -77.086)" fill="#8e8e8e"/>
        <path id="Trazado_33269" data-name="Trazado 33269" d="M593.6,318.907a1.611,1.611,0,0,1-.68-3.072l.84-.389a1.61,1.61,0,1,1,1.357,2.921l-.839.39a1.6,1.6,0,0,1-.677.151m8.391-3.9a1.611,1.611,0,0,1-.68-3.072l.84-.39a1.611,1.611,0,0,1,1.357,2.922l-.839.389a1.6,1.6,0,0,1-.677.151m8.391-3.9a1.611,1.611,0,0,1-.679-3.073l.348-.161A1.611,1.611,0,0,1,611.4,310.8l-.348.161a1.611,1.611,0,0,1-.677.15" transform="translate(-143.446 -74.566)"/>
        <path id="Trazado_33270" data-name="Trazado 33270" d="M612.91,342.153a1.588,1.588,0,0,1-.44-.062l-.89-.252a1.611,1.611,0,1,1,.879-3.1l.89.252a1.611,1.611,0,0,1-.439,3.161m-8.9-2.523a1.589,1.589,0,0,1-.44-.062l-.89-.252a1.611,1.611,0,0,1,.879-3.1l.89.252a1.611,1.611,0,0,1-.439,3.161m-8.9-2.524a1.605,1.605,0,0,1-.439-.061l-.368-.1a1.611,1.611,0,1,1,.877-3.1l.368.1a1.611,1.611,0,0,1-.438,3.162" transform="translate(-143.723 -80.879)"/>
        <path id="Trazado_33271" data-name="Trazado 33271" d="M594.306,328.779a1.515,1.515,0,0,1-.118-3.026l.755-.06a1.516,1.516,0,1,1,.24,3.022l-.755.06c-.04,0-.081,0-.121,0m9.063-.721a1.515,1.515,0,0,1-.118-3.026l.755-.06a1.516,1.516,0,1,1,.239,3.022l-.755.06c-.04,0-.081,0-.121,0m9.064-.721a1.515,1.515,0,0,1-.12-3.025l.755-.061a1.515,1.515,0,1,1,.242,3.02l-.755.061c-.042,0-.082.005-.123.005" transform="translate(-143.642 -78.569)"/>
        <path id="Trazado_33272" data-name="Trazado 33272" d="M475.008,448.767l-2.24-2.315,29-28.067,19.771,4.494,31.3-60.676,2.864,1.477L523.26,426.574l-20.5-4.661Z" transform="translate(-114.558 -87.767)" fill="#8e8e8e"/>
        <path id="Trazado_33273" data-name="Trazado 33273" d="M583.708,365.613l-.745-15.723L569.718,358.4Z" transform="translate(-138.051 -84.783)" fill="#8e8e8e"/>
        <path id="Trazado_33274" data-name="Trazado 33274" d="M520.5,385.892l-.705-.088-19.939-2.491,5.719-16.189,7.014.441,1.447.091.489-.32,20.487-13.422-21.731,7.763-5.6-2.291a9.076,9.076,0,0,0-17.633-2.832l-9.51,26.918,2.406.849L470.5,443.195l21.453-47.95,24.415-2.836-2.215,24.446,8.674-27.333a2.8,2.8,0,0,0-2.324-3.629" transform="translate(-114.008 -84.93)" fill="#fff"/>
        <path id="Trazado_33275" data-name="Trazado 33275" d="M469.984,444.289a1.61,1.61,0,0,1-1.576-1.943l12.155-57.494-1.074-.379a1.61,1.61,0,0,1-.982-2.056l9.51-26.918a10.69,10.69,0,0,1,13.642-6.52,10.746,10.746,0,0,1,7.041,8.775l4.107,1.681,21.151-7.556a1.611,1.611,0,0,1,1.424,2.864l-20.976,13.743a1.608,1.608,0,0,1-.984.261l-7.246-.455-4.648,13.155,18.658,2.331a4.414,4.414,0,0,1,3.66,5.715l-8.675,27.333a1.611,1.611,0,0,1-3.14-.633l2.037-22.471-21.535,2.5-21.08,47.113a1.611,1.611,0,0,1-1.47.953m12.1-62.318.886.313a1.611,1.611,0,0,1,1.04,1.852l-9.32,44.089,15.281-34.154a1.608,1.608,0,0,1,1.284-.942l24.415-2.837a1.61,1.61,0,0,1,1.79,1.746l-.88,9.713,4.2-13.232a1.191,1.191,0,0,0-.988-1.543l-20.645-2.58a1.611,1.611,0,0,1-1.319-2.134l5.72-16.189A1.611,1.611,0,0,1,505.162,365l7.926.5.04-.027,9.164-6-8.984,3.209a1.608,1.608,0,0,1-1.152-.026l-5.6-2.291a1.612,1.612,0,0,1-1-1.456,7.5,7.5,0,0,0-4.972-6.885,7.47,7.47,0,0,0-9.532,4.554Z" transform="translate(-113.494 -84.414)" fill="#8e8e8e"/>
        <path id="Trazado_33276" data-name="Trazado 33276" d="M512.392,347.909a5.95,5.95,0,1,0-4.382-7.182,5.949,5.949,0,0,0,4.382,7.182" transform="translate(-123.057 -81.46)" fill="#fff"/>
        <path id="Trazado_33277" data-name="Trazado 33277" d="M513.29,349.175a7.613,7.613,0,0,1-1.793-.215,7.516,7.516,0,1,1,1.793.215m-.022-11.9a4.345,4.345,0,1,0,1.029.123,4.372,4.372,0,0,0-1.029-.123" transform="translate(-122.541 -80.945)" fill="#8e8e8e"/>
        <path id="Trazado_33278" data-name="Trazado 33278" d="M80.507,244.861a1.612,1.612,0,0,1-1.495-1.009c-4.725-11.749-4.146-25.688-4.094-26.743a14.7,14.7,0,0,1,9.749-13.814l1.492-3.119a1.61,1.61,0,0,1,2.921.033,18.584,18.584,0,0,1,.861,2.282,15.485,15.485,0,0,1,5.875,1.962l.148.074a1.6,1.6,0,0,1,.408.29,1.62,1.62,0,0,1,.476.78,10.3,10.3,0,0,0,4.113,5.159,13.793,13.793,0,0,0,2.319,1.338h0a4.352,4.352,0,0,1,2.407,2.807,4.189,4.189,0,0,1-.357,3.157,1.61,1.61,0,0,1-.221.419c-.139.189-.268.373-.392.549-1.923,2.735-3.651,3.593-8.278,1.068a.574.574,0,0,0-.388-.089,6.824,6.824,0,0,1-3.848.845c-.226-.017-.449-.045-.671-.084,1.155,4.6,3.707,6.84,7.745,6.84h.035a1.734,1.734,0,0,1,.524.083,1.612,1.612,0,0,1,1.227,1.768,56.567,56.567,0,0,1-3.644,14.383,1.61,1.61,0,0,1-1.482.987l-15.43.033Zm6.884-39.8-.117.244a1.615,1.615,0,0,1-1,.851,11.448,11.448,0,0,0-8.135,10.986c0,.029,0,.058,0,.087-.008.136-.636,13.313,3.473,24.405l13.238-.029a52.882,52.882,0,0,0,2.789-10.883c-5.506-.711-8.963-5.071-9.811-12.462a1.611,1.611,0,0,1,2.624-1.427,3.563,3.563,0,0,0,2,.8,3.624,3.624,0,0,0,2.035-.448,3.608,3.608,0,0,1,3.5.076c2.914,1.59,3.049,1.4,4.1-.093.075-.108.153-.218.233-.33a1.649,1.649,0,0,1,.156-.277.952.952,0,0,0,.113-.8,1.138,1.138,0,0,0-.627-.736,17.047,17.047,0,0,1-2.863-1.649,14.065,14.065,0,0,1-5.144-6.259,10.649,10.649,0,0,0-4.492-1.424H89.45c-.221,0-.442.009-.661.023a1.616,1.616,0,0,1-1.4-.656" transform="translate(-18.142 -48.284)" fill="#8e8e8e"/>
        <path id="Trazado_33279" data-name="Trazado 33279" d="M80.915,267.02a4.813,4.813,0,0,1-4.808-4.8l0-1.6a4.808,4.808,0,0,1,4.8-4.818l15.394-.033h.01a4.814,4.814,0,0,1,4.808,4.8l0,1.6a4.814,4.814,0,0,1-4.8,4.818l-15.394.033Zm15.39-8.027h0l-15.394.033a1.586,1.586,0,0,0-1.583,1.59l0,1.6a1.586,1.586,0,0,0,1.586,1.583h0l15.394-.033a1.588,1.588,0,0,0,1.583-1.59l0-1.6a1.589,1.589,0,0,0-1.587-1.583" transform="translate(-18.441 -61.977)" fill="#8e8e8e"/>
        <path id="Trazado_33280" data-name="Trazado 33280" d="M75.7,274.814A3.821,3.821,0,0,1,71.882,271l0-.568a3.822,3.822,0,0,1,3.814-3.831l23.791-.05h.008a3.822,3.822,0,0,1,3.822,3.814l0,.569a3.826,3.826,0,0,1-3.814,3.83l-23.791.05Zm23.79-5.042h0l-23.791.05a.6.6,0,0,0-.6.6l0,.568a.6.6,0,0,0,.6.6h0l23.791-.05a.6.6,0,0,0,.6-.6l0-.57a.6.6,0,0,0-.6-.6" transform="translate(-17.418 -64.589)" fill="#8e8e8e"/>
        <path id="Trazado_33281" data-name="Trazado 33281" d="M56.872,361.9H6.219v-3.031H56.872A41.073,41.073,0,0,0,97.9,317.845v-89.6A29.282,29.282,0,0,1,127.148,199h12.424v3.031H127.148a26.249,26.249,0,0,0-26.219,26.218v89.6A44.107,44.107,0,0,1,56.872,361.9" transform="translate(-1.507 -48.221)" fill="#8e8e8e"/>
        <path id="Trazado_33282" data-name="Trazado 33282" d="M94.227,379.591H28.288a9.461,9.461,0,0,1-9.461-9.46V323.4h84.861v46.731a9.46,9.46,0,0,1-9.46,9.46" transform="translate(-4.562 -78.365)" fill="#ccc"/>
        <path id="Trazado_33283" data-name="Trazado 33283" d="M85.608,313.881H82.577v-.574a10.537,10.537,0,0,0-10.526-10.525H67.465a10.537,10.537,0,0,0-10.526,10.525H53.908a13.571,13.571,0,0,1,13.557-13.556h4.587a13.571,13.571,0,0,1,13.557,13.556Z" transform="translate(-13.063 -72.634)" fill="#8e8e8e"/>
        <path id="Trazado_33284" data-name="Trazado 33284" d="M92.8,344.807H29.637A10.99,10.99,0,0,1,18.661,333.83V316.915a1.516,1.516,0,0,1,1.515-1.515h82.082a1.515,1.515,0,0,1,1.515,1.515V333.83A10.989,10.989,0,0,1,92.8,344.807M21.692,318.431v15.4a7.955,7.955,0,0,0,7.945,7.947H92.8a7.955,7.955,0,0,0,7.945-7.947v-15.4Z" transform="translate(-4.522 -76.426)" fill="#8e8e8e"/>
        <rect id="Rectángulo_3591" data-name="Rectángulo 3591" width="9.748" height="12.042" transform="translate(51.822 262.646)" fill="#fd8f25"/>
        <path id="Trazado_33285" data-name="Trazado 33285" d="M140.134,335H107.175a7.956,7.956,0,0,0-7.956,7.956v45.082h21.215v3.471a6.4,6.4,0,0,0,6.378,6.379h.036a6.232,6.232,0,0,0,6.263-6.211l.049-50.56A6.141,6.141,0,0,1,139.41,335h-.088a5.949,5.949,0,0,1,6.116,6.021v3.829h-6.819" transform="translate(-24.042 -81.175)" fill="#fff"/>
        <path id="Trazado_33286" data-name="Trazado 33286" d="M126.363,398.919a7.911,7.911,0,0,1-7.929-7.894v-1.956h-19.7a1.516,1.516,0,0,1-1.515-1.515V342.471A9.481,9.481,0,0,1,106.69,333h32.959v.041a7.48,7.48,0,0,1,6.819,7.5v3.829a1.516,1.516,0,0,1-1.515,1.515h-6.819V342.85h5.3v-2.313a4.452,4.452,0,0,0-4.557-4.506,4.618,4.618,0,0,0-4.691,4.6l-.048,50.561a7.762,7.762,0,0,1-7.778,7.725M100.25,386.038h19.7a1.516,1.516,0,0,1,1.515,1.515v3.471a4.869,4.869,0,0,0,4.863,4.864,4.735,4.735,0,0,0,4.783-4.7l.049-50.561a7.566,7.566,0,0,1,1.529-4.6h-26a6.448,6.448,0,0,0-6.44,6.44Z" transform="translate(-23.558 -80.691)" fill="#8e8e8e"/>
        <path id="Trazado_33287" data-name="Trazado 33287" d="M122.318,414.712H88.569a6.851,6.851,0,0,1-6.85-6.851v-3.694H116.13s-1.515,10.545,6.188,10.545" transform="translate(-19.802 -97.936)" fill="#fff"/>
        <path id="Trazado_33288" data-name="Trazado 33288" d="M122.758,415.807h-34.7a8.471,8.471,0,0,1-8.462-8.462v-3.694a1.611,1.611,0,0,1,1.611-1.611h34.412a1.611,1.611,0,0,1,1.594,1.84c-.194,1.384-.317,5.423,1.427,7.429a3.936,3.936,0,0,0,3.166,1.275h.955ZM82.815,405.263v2.083a5.247,5.247,0,0,0,5.24,5.24h27.522a13.5,13.5,0,0,1-1.688-7.323Z" transform="translate(-19.287 -97.42)" fill="#8e8e8e"/>
        <line id="Línea_26" data-name="Línea 26" x2="22.731" transform="translate(79.787 264.432)" fill="#fff"/>
        <rect id="Rectángulo_3592" data-name="Rectángulo 3592" width="22.731" height="3.031" transform="translate(79.787 262.917)" fill="#8e8e8e"/>
        <line id="Línea_27" data-name="Línea 27" x2="22.731" transform="translate(79.787 269.736)" fill="#fff"/>
        <rect id="Rectángulo_3593" data-name="Rectángulo 3593" width="22.731" height="3.031" transform="translate(79.787 268.221)" fill="#8e8e8e"/>
        <line id="Línea_28" data-name="Línea 28" x2="22.731" transform="translate(79.787 275.04)" fill="#fff"/>
        <rect id="Rectángulo_3594" data-name="Rectángulo 3594" width="22.731" height="3.031" transform="translate(79.787 273.524)" fill="#8e8e8e"/>
        <line id="Línea_29" data-name="Línea 29" x2="22.731" transform="translate(79.787 280.343)" fill="#fff"/>
        <rect id="Rectángulo_3595" data-name="Rectángulo 3595" width="22.731" height="3.031" transform="translate(79.787 278.828)" fill="#8e8e8e"/>
        <line id="Línea_30" data-name="Línea 30" x2="22.731" transform="translate(79.787 285.647)" fill="#fff"/>
        <rect id="Rectángulo_3596" data-name="Rectángulo 3596" width="22.731" height="3.031" transform="translate(79.787 284.132)" fill="#8e8e8e"/>
        <line id="Línea_31" data-name="Línea 31" x2="22.731" transform="translate(79.787 290.951)" fill="#fff"/>
        <rect id="Rectángulo_3597" data-name="Rectángulo 3597" width="22.731" height="3.031" transform="translate(79.787 289.436)" fill="#8e8e8e"/>
        <line id="Línea_32" data-name="Línea 32" x2="22.731" transform="translate(79.787 296.255)" fill="#fff"/>
        <rect id="Rectángulo_3598" data-name="Rectángulo 3598" width="22.731" height="3.031" transform="translate(79.787 294.74)" fill="#8e8e8e"/>
        <path id="Trazado_33289" data-name="Trazado 33289" d="M22.96,380.876V376H15.383v4.817a19,19,0,1,0,22.5,18.632,19.273,19.273,0,0,0-14.92-18.572" transform="translate(0 -91.11)" fill="#00ffe2"/>
        <path id="Trazado_33290" data-name="Trazado 33290" d="M28.687,408.308a5.059,5.059,0,0,1-1.939,4.207,8.433,8.433,0,0,1-5.348,1.526,12.755,12.755,0,0,1-5.583-1.059v-3.108a15.087,15.087,0,0,0,2.922,1.018,12.376,12.376,0,0,0,2.881.371,4.585,4.585,0,0,0,2.881-.742,2.422,2.422,0,0,0,.927-1.994,2.5,2.5,0,0,0-.852-1.911,12.838,12.838,0,0,0-3.519-1.856,9.3,9.3,0,0,1-3.877-2.544,5.383,5.383,0,0,1-1.127-3.438,4.812,4.812,0,0,1,1.787-3.96,7.413,7.413,0,0,1,4.8-1.443,14.11,14.11,0,0,1,5.747,1.265l-1.045,2.681a12.557,12.557,0,0,0-4.785-1.127,3.671,3.671,0,0,0-2.42.694,2.281,2.281,0,0,0-.824,1.836,2.587,2.587,0,0,0,.33,1.34,3.372,3.372,0,0,0,1.086,1.052,18.316,18.316,0,0,0,2.723,1.306,14.936,14.936,0,0,1,3.244,1.718,5.066,5.066,0,0,1,1.512,1.8,5.421,5.421,0,0,1,.481,2.365" transform="translate(-3.833 -95.321)"/>
        <rect id="Rectángulo_3599" data-name="Rectángulo 3599" width="3.031" height="26.519" transform="translate(16.899 295.497)"/>
        <path id="Trazado_33291" data-name="Trazado 33291" d="M49.364,375.925H46.142v-16.03a1.79,1.79,0,1,0-3.579,0v10.686a5.011,5.011,0,1,1-10.023,0v-2.429a3.247,3.247,0,0,0-6.493,0v2.915H22.825v-2.915a6.468,6.468,0,0,1,12.937,0v2.429a1.79,1.79,0,1,0,3.579,0V359.894a5.011,5.011,0,1,1,10.023,0Z" transform="translate(-5.531 -85.993)"/>
        <path id="Trazado_33292" data-name="Trazado 33292" d="M50.817,398.024l-1.331-11.341-11.219,1.39,9.664-6.111-1.742-4.83,5.284,1.99,8.989-9.945-4.506,12.369,8.61,3.115L54.554,386.3Zm.66-13.878.371,3.161.963-3.02,2.776-.456-2.547-.921,1.3-3.57-2.219,2.456L50,381l.689,1.912-2.626,1.661Z" transform="translate(-9.273 -89.457)"/>
        <path id="Trazado_33293" data-name="Trazado 33293" d="M1034.209,373.163A15.154,15.154,0,1,1,1019.065,358a15.153,15.153,0,0,1,15.145,15.164" transform="translate(-243.26 -86.748)" fill="#fd8f25"/>
        <path id="Trazado_33294" data-name="Trazado 33294" d="M1028.688,379.308a5.062,5.062,0,0,1-1.939,4.207,8.437,8.437,0,0,1-5.349,1.526,12.754,12.754,0,0,1-5.582-1.059v-3.108a15.068,15.068,0,0,0,2.922,1.018,12.371,12.371,0,0,0,2.881.371,4.587,4.587,0,0,0,2.881-.742,2.422,2.422,0,0,0,.927-1.994,2.5,2.5,0,0,0-.852-1.911,12.84,12.84,0,0,0-3.52-1.856,9.3,9.3,0,0,1-3.877-2.544,5.379,5.379,0,0,1-1.128-3.438,4.812,4.812,0,0,1,1.788-3.96,7.413,7.413,0,0,1,4.8-1.443,14.114,14.114,0,0,1,5.747,1.265l-1.045,2.681a12.56,12.56,0,0,0-4.786-1.127,3.67,3.67,0,0,0-2.419.694,2.279,2.279,0,0,0-.825,1.836,2.58,2.58,0,0,0,.33,1.34,3.364,3.364,0,0,0,1.086,1.052,18.3,18.3,0,0,0,2.722,1.306,14.931,14.931,0,0,1,3.245,1.718,5.052,5.052,0,0,1,1.512,1.8,5.409,5.409,0,0,1,.482,2.365" transform="translate(-246.148 -88.294)"/>
        <rect id="Rectángulo_3600" data-name="Rectángulo 3600" width="3.031" height="26.519" transform="translate(774.585 273.524)"/>
        <path id="Trazado_33295" data-name="Trazado 33295" d="M264.209,127.163A15.154,15.154,0,1,1,249.065,112a15.154,15.154,0,0,1,15.145,15.163" transform="translate(-56.678 -27.139)" fill="#f474ff"/>
        <path id="Trazado_33296" data-name="Trazado 33296" d="M258.687,133.308a5.059,5.059,0,0,1-1.939,4.207,8.433,8.433,0,0,1-5.348,1.526,12.756,12.756,0,0,1-5.583-1.058v-3.108a15.09,15.09,0,0,0,2.922,1.018,12.373,12.373,0,0,0,2.881.371,4.585,4.585,0,0,0,2.881-.742,2.422,2.422,0,0,0,.927-1.994,2.5,2.5,0,0,0-.852-1.911,12.839,12.839,0,0,0-3.519-1.856,9.3,9.3,0,0,1-3.877-2.544,5.383,5.383,0,0,1-1.127-3.438,4.812,4.812,0,0,1,1.787-3.96,7.413,7.413,0,0,1,4.8-1.443,14.11,14.11,0,0,1,5.747,1.265l-1.045,2.681a12.557,12.557,0,0,0-4.785-1.127,3.671,3.671,0,0,0-2.42.694,2.281,2.281,0,0,0-.825,1.836,2.587,2.587,0,0,0,.33,1.34,3.372,3.372,0,0,0,1.086,1.052,18.315,18.315,0,0,0,2.723,1.306,14.936,14.936,0,0,1,3.244,1.718,5.066,5.066,0,0,1,1.512,1.8,5.42,5.42,0,0,1,.481,2.365" transform="translate(-59.565 -28.684)"/>
        <rect id="Rectángulo_3601" data-name="Rectángulo 3601" width="3.031" height="26.519" transform="translate(191.166 87.134)"/>
        <path id="Trazado_33299" data-name="Trazado 33299" d="M193.209,287.163A15.154,15.154,0,1,1,178.065,272a15.153,15.153,0,0,1,15.145,15.163" transform="translate(-39.474 -65.91)" fill="#ccc"/>
        <path id="Trazado_33300" data-name="Trazado 33300" d="M187.687,293.308a5.059,5.059,0,0,1-1.939,4.207,8.433,8.433,0,0,1-5.348,1.526,12.755,12.755,0,0,1-5.583-1.059v-3.108a15.087,15.087,0,0,0,2.922,1.018,12.376,12.376,0,0,0,2.881.371,4.585,4.585,0,0,0,2.881-.742,2.422,2.422,0,0,0,.927-1.994,2.5,2.5,0,0,0-.852-1.911,12.837,12.837,0,0,0-3.519-1.856,9.3,9.3,0,0,1-3.877-2.544,5.38,5.38,0,0,1-1.127-3.438,4.809,4.809,0,0,1,1.787-3.959,7.409,7.409,0,0,1,4.8-1.444,14.11,14.11,0,0,1,5.747,1.265l-1.045,2.681a12.556,12.556,0,0,0-4.785-1.127,3.676,3.676,0,0,0-2.42.694,2.282,2.282,0,0,0-.824,1.836,2.59,2.59,0,0,0,.33,1.341,3.362,3.362,0,0,0,1.086,1.051,18.3,18.3,0,0,0,2.723,1.307,14.906,14.906,0,0,1,3.244,1.718,5.066,5.066,0,0,1,1.512,1.8,5.42,5.42,0,0,1,.481,2.365" transform="translate(-42.361 -67.455)" fill="#8e8e8e"/>
        <rect id="Rectángulo_3603" data-name="Rectángulo 3603" width="3.031" height="26.519" transform="translate(137.371 208.364)" fill="#8e8e8e"/>
      </g>
    </g>
  </g>
</svg>
