<svg xmlns="http://www.w3.org/2000/svg" width="593.419" height="348.399" viewBox="0 0 593.419 348.399">
  <g id="Grupo_54990" data-name="Grupo 54990" transform="translate(-810 -5804.426)">
    <g id="CF1_manufactura" transform="translate(794.12 5680.684)">
      <path id="Trazado_108836" data-name="Trazado 108836" d="M397.274,205.771h0a1.44,1.44,0,0,1-1.454-1.454V141.154a1.454,1.454,0,0,1,1.454-1.454h0a1.454,1.454,0,0,1,1.468,1.454v63.163a1.454,1.454,0,0,1-1.468,1.454Z" transform="translate(136.373 5.728)" fill="#12263f"/>
      <rect id="Rectángulo_5905" data-name="Rectángulo 5905" width="593.419" height="2.052" rx="0.75" transform="translate(15.88 470.09)" fill="#12263f"/>
      <path id="Trazado_108837" data-name="Trazado 108837" d="M206.188,314.3a3.628,3.628,0,0,1-2.025-.625,2.161,2.161,0,0,1-.707-3.071,11.945,11.945,0,0,0,1.359-4.281h.435a12.123,12.123,0,0,1-1.44,4.4,1.862,1.862,0,0,0,.6,2.718,3,3,0,0,0,3.044.217l.245.272A3.111,3.111,0,0,1,206.188,314.3Z" transform="translate(67.196 65.533)" fill="#9182ca"/>
      <path id="Trazado_108838" data-name="Trazado 108838" d="M536.885,205.912V428.777a15.764,15.764,0,0,1-15.791,15.791h-353a15.981,15.981,0,0,1-16.076-14.092,6.1,6.1,0,0,0-.082-1.21V373.115a16.185,16.185,0,0,1,12.23-5.558H380.648a19.84,19.84,0,0,0,19.745-16.8,20.646,20.646,0,0,0,.19-2.718V297.151a18.222,18.222,0,0,0-1.074-6.17,18.876,18.876,0,0,0-17.816-12.353h-76.9c-16.633,0-31.255,11.537-39.069,26.486a54.357,54.357,0,0,0-5.069,13.589,8.153,8.153,0,0,1-4.919,1.644H186.769A13.25,13.25,0,0,1,173.4,307.234v-100.7a20.387,20.387,0,0,1,.3-3.547,22.11,22.11,0,0,1,17.911-9.051H519.3a21.471,21.471,0,0,1,17.3,8.711,21.415,21.415,0,0,1,.285,3.261Z" transform="translate(48.836 25.196)" fill="#9182ca"/>
      <path id="Trazado_108839" data-name="Trazado 108839" d="M536.885,208.281V431.146a15.764,15.764,0,0,1-15.791,15.791H167.772a15.777,15.777,0,0,1-15.75-14.092,6.1,6.1,0,0,0-.082-1.209V375.484a15.791,15.791,0,0,1,15.75-14.541h212.4a19.555,19.555,0,0,0,19.555-19.555V290.537a18.536,18.536,0,0,0-18.522-18.522H305.581c-19.446,0-36,16.43-42.032,35.468a53.255,53.255,0,0,0-1.93,8.4,8.154,8.154,0,0,1-3.03,5.232,7.9,7.9,0,0,1-4.824,1.644H186.1a13.114,13.114,0,0,1-13.114-13.114V208.906a21.512,21.512,0,0,1,21.566-21.566H515.944a20.955,20.955,0,0,1,20.7,17.668A21.411,21.411,0,0,1,536.885,208.281Z" transform="translate(48.836 22.827)" fill="#b5abdb"/>
      <rect id="Rectángulo_5906" data-name="Rectángulo 5906" width="7.488" height="26.431" transform="translate(270.843 345.435)" fill="#9182ca"/>
      <rect id="Rectángulo_5907" data-name="Rectángulo 5907" width="8.765" height="4.702" transform="translate(278.331 351.782)" fill="#9182ca"/>
      <path id="Trazado_108840" data-name="Trazado 108840" d="M214.8,294.454a4.417,4.417,0,1,1,1.3,3.128A4.43,4.43,0,0,1,214.8,294.454Z" transform="translate(71.399 59.679)" fill="#9182ca"/>
      <rect id="Rectángulo_5908" data-name="Rectángulo 5908" width="4.919" height="3.873" transform="translate(266.997 363.197)" fill="#9182ca"/>
      <rect id="Rectángulo_5909" data-name="Rectángulo 5909" width="11.401" height="7.406" transform="translate(284.922 202.598)" fill="#9182ca"/>
      <path id="Trazado_108841" data-name="Trazado 108841" d="M414.465,197.471H389.243a4.335,4.335,0,0,1-4.321-4.566l.421-7.08v-.068l.272-4.77.775-13.29.245-4.186.584-10.165.217-3.71a4.321,4.321,0,0,1,4.308-4.077H411.53a4.362,4.362,0,0,1,4.308,4.077l.2,2.976.584,8.575.082,1.359.965,14.119.761,11.293.34,4.933a4.321,4.321,0,0,1-4.308,4.58Z" transform="translate(132.459 7.831)" fill="#f25585"/>
      <g id="Grupo_54970" data-name="Grupo 54970" transform="translate(274.227 209.882)" opacity="0.3">
        <path id="Trazado_108842" data-name="Trazado 108842" d="M222.746,304.365H205.99V187.252h.72V303.659h15.315V187.13h.72Z" transform="translate(-205.99 -187.13)" fill="#bd6b1c"/>
      </g>
      <path id="Trazado_108843" data-name="Trazado 108843" d="M435.21,211.5h0a16.1,16.1,0,0,1,16.1,16.1v30.848a16.1,16.1,0,0,1-16.1,16.1h0Z" transform="translate(150.511 31.499)" fill="#9182ca"/>
      <rect id="Rectángulo_5910" data-name="Rectángulo 5910" width="53.311" height="1.264" transform="translate(246.967 382.358)" fill="#bd6b1c"/>
      <path id="Trazado_108844" data-name="Trazado 108844" d="M207.6,230.57l-5.123-5.993V187.22H207.6Z" transform="translate(66.977 22.784)" fill="#9182ca"/>
      <g id="Grupo_54971" data-name="Grupo 54971" transform="translate(274.227 326.764)" opacity="0.3">
        <rect id="Rectángulo_5911" data-name="Rectángulo 5911" width="0.707" height="18.672" fill="#bd6b1c"/>
      </g>
      <g id="Grupo_54972" data-name="Grupo 54972" transform="translate(200.831 453.525)" opacity="0.3">
        <rect id="Rectángulo_5912" data-name="Rectángulo 5912" width="384.904" height="0.707" transform="translate(0 0)" fill="#bd6b1c"/>
      </g>
      <path id="Trazado_108845" data-name="Trazado 108845" d="M232.72,201.824a2.854,2.854,0,1,1,2.84,2.854,2.854,2.854,0,0,1-2.84-2.854Z" transform="translate(77.831 27.002)" fill="#9182ca"/>
      <path id="Trazado_108846" data-name="Trazado 108846" d="M241,201.824a2.854,2.854,0,1,1,2.854,2.854A2.854,2.854,0,0,1,241,201.824Z" transform="translate(80.803 27.002)" fill="#9182ca"/>
      <path id="Trazado_108847" data-name="Trazado 108847" d="M249.19,201.824a2.854,2.854,0,1,1,2.84,2.854A2.854,2.854,0,0,1,249.19,201.824Z" transform="translate(83.743 27.002)" fill="#9182ca"/>
      <rect id="Rectángulo_5913" data-name="Rectángulo 5913" width="1.848" height="9.975" transform="translate(289.732 195.26)" fill="#9182ca"/>
      <path id="Trazado_108848" data-name="Trazado 108848" d="M206.671,316.821h-.177l-.584-10.491h1.359Z" transform="translate(68.208 65.537)" fill="#9182ca"/>
      <path id="Trazado_108849" data-name="Trazado 108849" d="M208.251,316.821h-.177l-.584-10.491h1.373Z" transform="translate(68.775 65.537)" fill="#9182ca"/>
      <path id="Trazado_108850" data-name="Trazado 108850" d="M209.988,314.565h-3.927A1.359,1.359,0,0,1,204.7,313.1a.408.408,0,1,1,.8,0,.557.557,0,0,0,.544.584h3.927a.557.557,0,0,0,.571-.544.408.408,0,1,1,.815,0,1.359,1.359,0,0,1-1.372,1.427Z" transform="translate(67.772 67.793)" fill="#32478e"/>
      <path id="Trazado_108851" data-name="Trazado 108851" d="M399.955,323.721H387.616a5.436,5.436,0,0,1-5.436-5.436h0a5.436,5.436,0,0,1,5.436-5.436h12.339a5.436,5.436,0,0,1,5.436,5.436h0A5.436,5.436,0,0,1,399.955,323.721Z" transform="translate(131.477 67.877)" fill="#9182ca"/>
      <path id="Trazado_108852" data-name="Trazado 108852" d="M424.941,324.2H387.6a5.721,5.721,0,0,1-5.707-5.708v-.272a5.708,5.708,0,0,1,5.708-5.694h37.344a5.708,5.708,0,0,1,5.694,5.694v.272a5.707,5.707,0,0,1-5.694,5.707ZM387.6,313.237a5,5,0,0,0-5,4.987v.272a4.987,4.987,0,0,0,5,4.987h37.343a4.987,4.987,0,0,0,4.987-4.987v-.272a5,5,0,0,0-4.987-4.987Z" transform="translate(131.373 67.762)" fill="#9182ca"/>
      <path id="Trazado_108853" data-name="Trazado 108853" d="M386.118,309.384h0a1.508,1.508,0,0,1-1.508-1.508v-4.987a1.508,1.508,0,0,1,1.508-1.508h0a1.508,1.508,0,0,1,1.508,1.508v4.987A1.508,1.508,0,0,1,386.118,309.384Z" transform="translate(132.349 63.76)" fill="#9182ca"/>
      <path id="Trazado_108854" data-name="Trazado 108854" d="M400.932,309.384h0a1.522,1.522,0,0,1-1.522-1.508v-4.987a1.522,1.522,0,0,1,1.522-1.508h0a1.508,1.508,0,0,1,1.508,1.508v4.987A1.508,1.508,0,0,1,400.932,309.384Z" transform="translate(137.662 63.76)" fill="#9182ca"/>
      <path id="Trazado_108855" data-name="Trazado 108855" d="M415.728,309.384h0a1.508,1.508,0,0,1-1.508-1.508v-4.987a1.508,1.508,0,0,1,1.508-1.508h0a1.522,1.522,0,0,1,1.522,1.508v4.987A1.522,1.522,0,0,1,415.728,309.384Z" transform="translate(142.977 63.76)" fill="#9182ca"/>
      <path id="Trazado_108856" data-name="Trazado 108856" d="M386.2,163.58s13.385,1.549,30.236-6.55l.516,7.678s-8.045,9.961-31.527,12.162Z" transform="translate(132.644 11.948)" fill="#ef2a66"/>
      <path id="Trazado_108857" data-name="Trazado 108857" d="M418.433,179.713a41.652,41.652,0,0,1-13.4,9.513H389.243a4.335,4.335,0,0,1-4.321-4.566l.421-7.08v-.068a98.034,98.034,0,0,0,32.3-9.091Z" transform="translate(132.459 16.036)" fill="#ef2a66"/>
      <path id="Trazado_108858" data-name="Trazado 108858" d="M415.587,152.446c-2.84,2.623-11.483,9.051-29.407,10.939l.584-10.165a43.377,43.377,0,0,0,26.255-7.311,4.308,4.308,0,0,1,2.365,3.56Z" transform="translate(132.913 7.957)" fill="#ef2a66"/>
      <path id="Trazado_108859" data-name="Trazado 108859" d="M206.4,195.587l-.231-.231,15.193-14.8h.068c53-2.609,103.007-16.158,103.5-16.307l.1.313c-.5.136-50.566,13.684-103.523,16.307Z" transform="translate(68.301 14.539)" fill="#ef2a66"/>
      <path id="Trazado_108860" data-name="Trazado 108860" d="M320.39,216.528a1.549,1.549,0,0,1,.272,1.631h0a10.1,10.1,0,0,1-3.193,3.52,6.154,6.154,0,0,0-.516.435l-.122.1-.082.082c-1.359,1.359-.883,1.6-3.411,4.226-2.895,3-4.879,3.058-5.436,2.786s.489-1.821,1.563-3.615l.163-.258.421-.72c1.264-2.147.938-3.166.639-6.373-.245-2.6-4.077-14.554-4.077-14.554l5.531-.951s1.658,9.513,3.492,10.98c.992.788,2.093.788,3.03,1.359l.19.122a6.918,6.918,0,0,1,1.536,1.237Z" transform="translate(104.353 28.387)" fill="#fc7955"/>
      <path id="Trazado_108861" data-name="Trazado 108861" d="M320.089,213.265a1.549,1.549,0,0,1,.272,1.631h0a11.551,11.551,0,0,1-3.207,3.506l-.5.448-.122.1-.082.082c-1.359,1.359-.883,1.6-3.411,4.226-2.895,3-4.879,3.058-5.436,2.786s.489-1.821,1.563-3.615a12.353,12.353,0,0,0,5.15-3.791c1.739-2.215,2.894-5.069,4.077-6.713l.19.122A6.919,6.919,0,0,1,320.089,213.265Z" transform="translate(104.653 31.65)" fill="#12263f"/>
      <path id="Trazado_108862" data-name="Trazado 108862" d="M288.3,213.508c-.34,1.712-2.718,1.359-5.436.761s-2.079.122-5.939-.3-5.042-1.875-5.164-2.446,1.807-.693,3.859-.924l.775-.1c2.31-.3,4.009-1.78,6.115-3.017s4.96-5.9,4.96-5.9l5.313.421s-2.786,4.226-3.873,6.074a6.455,6.455,0,0,0-.516,3.574,6.715,6.715,0,0,1-.1,1.848Z" transform="translate(91.842 27.942)" fill="#fc7955"/>
      <path id="Trazado_108863" data-name="Trazado 108863" d="M282.824,211.889c-2.718-.666-2.079.122-5.939-.3s-5.042-1.875-5.164-2.446,1.807-.693,3.859-.924h0a10.871,10.871,0,0,0,5.544,1.712c2.623.068,5.436-.679,7.216-.652a6.717,6.717,0,0,1,0,1.807C287.974,212.84,285.542,212.555,282.824,211.889Z" transform="translate(91.828 30.322)" fill="#12263f"/>
      <path id="Trazado_108864" data-name="Trazado 108864" d="M298.89,187.656,303.864,201l6.468,17.367a10.288,10.288,0,0,0,3.438-.313,15.03,15.03,0,0,0,3.329-1.617s-1.794-18.713-5.15-29.462a19.161,19.161,0,0,0-2.881-6.238C303.864,174.651,298.89,187.656,298.89,187.656Z" transform="translate(101.582 19.875)" fill="#9182ca"/>
      <path id="Trazado_108865" data-name="Trazado 108865" d="M310.359,170.5c3.248-1.06,12.516.3,21.824,2.12l1.943-3.207,20.112-1.576s6.645,14.717,3,24.094a3.384,3.384,0,0,1-3.4,2.3H337.688c-10,0-21.159-6.876-22.6-7.175-2.365-.462-3.316,4.267-5.68,9.227S287.19,218.27,287.19,218.27a17.5,17.5,0,0,1-4.321-.448,4.254,4.254,0,0,1-1.848-1.169S303.021,172.868,310.359,170.5Z" transform="translate(95.167 15.828)" fill="#9182ca"/>
      <path id="Trazado_108866" data-name="Trazado 108866" d="M318.422,155.457c6.061,5.436,20.86,15.206,20.941,15.179s4.729,3.18,8.154,1.916c5.694-2.106,10.4-10.26,3.194-19.936-3.588-4.838-6.686-6.523-5.626-12.638,1.155-6.618-1.359-15.152-9.064-15.913a20.873,20.873,0,0,0-7.311,0C321.507,125.859,308.3,151.5,318.422,155.457Z" transform="translate(107.271 0)" fill="#12263f"/>
      <path id="Trazado_108867" data-name="Trazado 108867" d="M324,146.874s3.357,2.161,5.911,1.685,4.729-3.574,4.7-3.588c-.978-.272-1.7-1.468-1.2-7.352h-.448l-7.692.883s0,2.392-.2,4.634C324.951,145.081,324.476,146.7,324,146.874Z" transform="translate(110.594 4.981)" fill="#fc7955"/>
      <path id="Trazado_108868" data-name="Trazado 108868" d="M325.054,138.543s0,2.392-.2,4.634c4.24.231,6.795-3.452,7.9-5.517Z" transform="translate(110.9 4.995)" fill="#ec6343"/>
      <path id="Trazado_108869" data-name="Trazado 108869" d="M324.449,144.194s10,.978,10.518-5.259,2.161-10.314-4.2-11.211-7.814,1.359-8.493,3.425S321.853,143.772,324.449,144.194Z" transform="translate(109.86 1.356)" fill="#fc7955"/>
      <path id="Trazado_108870" data-name="Trazado 108870" d="M324.58,127.273s1.25,7.624,6.958,9.431c4.158,1.359,6.034.448,6.034.448a17.014,17.014,0,0,1-2.718-6.346,3.058,3.058,0,0,0-2.038-2.324C329.866,127.436,326.292,124.786,324.58,127.273Z" transform="translate(110.803 0.896)" fill="#12263f"/>
      <path id="Trazado_108871" data-name="Trazado 108871" d="M327.566,128.581a6.631,6.631,0,0,0-3.547,2.854,12.72,12.72,0,0,0-1.794,6.17s-1.753-7.053.8-9.676S327.566,128.581,327.566,128.581Z" transform="translate(109.747 1.137)" fill="#12263f"/>
      <path id="Trazado_108872" data-name="Trazado 108872" d="M344.264,165.719c-.19.747-.34,1.454-.462,2.093-.2,1.033-.34,1.93-.448,2.718-.3,2.46-.2,3.927-.408,5.517a13.5,13.5,0,0,1-.761,3c-.408,1.142-11.279,2.161-17.462,1.753a8.344,8.344,0,0,1-4-.87c-2.215-1.916-1.984,2.31-2.3-17.87-.136-9.839,8.357-18.6,8.357-18.6s.679,4.213,9.1-.788c.3-.177,3.615,4.729,6.795,10.776C346.221,160.134,345.256,161.547,344.264,165.719Z" transform="translate(108.595 6.792)" fill="#364154"/>
      <path id="Trazado_108873" data-name="Trazado 108873" d="M302.55,198.924l6.469,17.367a10.288,10.288,0,0,0,3.438-.313,15.03,15.03,0,0,0,3.329-1.617s-1.794-18.713-5.15-29.462Z" transform="translate(102.895 21.951)" fill="#9182ca"/>
      <path id="Trazado_108874" data-name="Trazado 108874" d="M329.268,143.25s-8.67,1.468-9.689,5.2-8.058,24.61-8.058,24.61,5.436,1.862,7.488-.177S326.088,154,326.088,154Z" transform="translate(106.115 7.002)" fill="#364154"/>
      <path id="Trazado_108875" data-name="Trazado 108875" d="M300.928,161.909l-2.052-.815a5,5,0,0,0-1.9-.068c-.666.217-2.337.19-2.337.462s1.9,1.128,1.9,1.128h0c-.72,1.644-4.362,2.582-4.525,3.194s1.468,1.1,2.392,1.359a5.055,5.055,0,0,0,4.281-.965c.815-.856,2.188-2.038,2.188-2.038Z" transform="translate(99.109 13.36)" fill="#fc7955"/>
      <path id="Trazado_108876" data-name="Trazado 108876" d="M326.43,137.134a1.726,1.726,0,0,1-1.536,1.019c-1.1,0-1.359-.163-1.617-.394a3.4,3.4,0,0,1-.408-.693,9.513,9.513,0,0,1,3.56.068Z" transform="translate(110.189 4.733)" fill="#fff"/>
      <path id="Trazado_108877" data-name="Trazado 108877" d="M318.858,160.7l-20.982,1.6a6.6,6.6,0,0,0,.91,4.349s18.93,3.7,23.876,1.807,4.389-10.871,4.389-10.871Z" transform="translate(101.196 12.149)" fill="#364154"/>
      <path id="Trazado_108878" data-name="Trazado 108878" d="M325.508,161.07l-1.359-1.712a4.96,4.96,0,0,0-1.617-.992c-.693-.136-2.134-.978-2.269-.734s1.1,1.9,1.1,1.9h0c-1.44,1.074-5.069.122-5.517.571s.747,1.685,1.44,2.337a5.137,5.137,0,0,0,4.213,1.25c1.128-.353,2.908-.707,2.908-.707Z" transform="translate(107.632 12.148)" fill="#fc7955"/>
      <path id="Trazado_108879" data-name="Trazado 108879" d="M341.738,163.317c-.3,2.46-.2,3.927-.408,5.517-7.882,0-18.4-6.074-18.4-6.074Z" transform="translate(110.21 14.005)" fill="#12263f"/>
      <path id="Trazado_108880" data-name="Trazado 108880" d="M322.93,161.662s12.23-.367,14.323-7.338c2.269-7.651,4.824,3.153,4.824,3.153l-1.386,6.9H327.238Z" transform="translate(110.21 9.993)" fill="#12263f"/>
      <path id="Trazado_108881" data-name="Trazado 108881" d="M334.754,142.67s7.95.516,9.947,3.628,4.457,18.862,3.424,24.271-26.526-1.033-26.526-1.033l.815-4.7s14.7.1,15.546-1.821C339.076,160.458,334.754,142.67,334.754,142.67Z" transform="translate(109.733 6.794)" fill="#364154"/>
      <path id="Trazado_108882" data-name="Trazado 108882" d="M346.276,163.343c-9.784,0-19.338-.734-27.016-2.718a.163.163,0,0,1-.109-.2.149.149,0,0,1,.19-.109c8.752,2.283,25.738,4.308,57.075.924,18.712-2.011,33.878-5.055,33.973-5.1a.177.177,0,0,1,.19.136.149.149,0,0,1-.122.177c-.163,0-15.329,3.085-34.068,5.11a288,288,0,0,1-30.114,1.78Z" transform="translate(108.852 11.628)" fill="#ef2a66"/>
      <path id="Trazado_108883" data-name="Trazado 108883" d="M304.079,164.6a96.658,96.658,0,0,1-9.676-.5.163.163,0,1,1,0-.326c19.718,2.038,30.44-2.718,30.549-2.718a.155.155,0,1,1,.122.285C325.02,161.394,317.7,164.6,304.079,164.6Z" transform="translate(99.913 13.387)" fill="#ef2a66"/>
      <circle id="Elipse_4342" data-name="Elipse 4342" cx="29.01" cy="29.01" r="29.01" transform="translate(506.266 286.143) rotate(-8.616)" fill="#12263f"/>
      <path id="Trazado_108884" data-name="Trazado 108884" d="M384.2,267.484a21.824,21.824,0,1,1,21.824,21.824A21.824,21.824,0,0,1,384.2,267.484Z" transform="translate(132.202 43.76)" fill="#e7e7e7"/>
      <circle id="Elipse_4343" data-name="Elipse 4343" cx="17.693" cy="17.693" r="17.693" transform="translate(513.83 266.084) rotate(-82.98)" fill="#12263f"/>
      <path id="Trazado_108885" data-name="Trazado 108885" d="M387,220.888a13.345,13.345,0,1,1,13.345,13.331A13.345,13.345,0,0,1,387,220.888Z" transform="translate(133.207 30.074)" fill="#e7e7e7"/>
      <path id="Trazado_108886" data-name="Trazado 108886" d="M355.19,258.436s10.4,2.854,15.791,1.508S386.717,253,386.717,253l1.631,2.854s-8.466,12.624-16.307,14.051S355.19,258.436,355.19,258.436Z" transform="translate(121.79 46.395)" fill="#9182ca"/>
      <path id="Trazado_108887" data-name="Trazado 108887" d="M390.912,283.5s5.436,2.134,7.2,1.563,4.96-2.324,5.517-3.764-3.7.38-5.137,0a9.512,9.512,0,0,0-5.83,0C389.852,282.114,390.912,283.5,390.912,283.5Z" transform="translate(134.541 56.35)" fill="#fc7955"/>
      <path id="Trazado_108888" data-name="Trazado 108888" d="M354.84,374.589s.408,6.55,1.617,8.154h18.726a3.343,3.343,0,0,0-2.99-2.718c-2.962-.516-7.909-2.6-9.7-6.509S354.84,374.589,354.84,374.589Z" transform="translate(121.664 89.114)" fill="#12263f"/>
      <path id="Trazado_108889" data-name="Trazado 108889" d="M330.51,373.923s-1.237,8.154.367,8.3c.217,0,7.719,0,9.757.313a50.741,50.741,0,0,0,8.874.068.883.883,0,0,0,.8-1.359,3.574,3.574,0,0,0-2.541-1.631c-2.949-.571-7.868-2.718-9.513-6.672C336.367,368.827,330.51,373.923,330.51,373.923Z" transform="translate(112.768 88.87)" fill="#12263f"/>
      <path id="Trazado_108890" data-name="Trazado 108890" d="M372.408,314.011s-4.7,16.484-18.2,45.076-14.527,41.638-14.527,41.638l-9.3-.435s.87-34.041,7.243-48.473,7.678-53.936,7.678-53.936Z" transform="translate(112.888 62.504)" fill="#12263f"/>
      <path id="Trazado_108891" data-name="Trazado 108891" d="M374.992,299.33a411.326,411.326,0,0,1-4.077,56.817c-4.4,31.255-2.908,44.6-2.908,44.6l-10.573.353s-6.319-31.323-4.5-46.992-8.656-53.787-8.656-53.787Z" transform="translate(117.874 63.024)" fill="#364154"/>
      <path id="Trazado_108892" data-name="Trazado 108892" d="M351.53,258.741l4.987,3.683,7.2-1.508c-.1-.666-.571-3.384-1.006-5.843l-.082-.435c-.367-2.106-.693-3.9-.693-3.9l-6.727-3.357-2.514-1.25s.2,2.324.231,2.718A21.648,21.648,0,0,1,351.53,258.741Z" transform="translate(120.476 43.929)" fill="#fc7955"/>
      <path id="Trazado_108893" data-name="Trazado 108893" d="M377.128,316.543c.448,4.539-35.971,9.934-36.107,2.3-.122-6.713,3.887-43.676,5.123-48.922,2.188-9.349,4.158-14.69,8.33-15.927,1.536-.448,7.216,1.033,11.32,2.215a6.213,6.213,0,0,1,.842.3,8.576,8.576,0,0,1,2.718,1.726,8.711,8.711,0,0,1,2.392,3.859c.625,2.133,1.359,4.851,1.943,7.868a59.212,59.212,0,0,1,1.1,8.548c0,.6,0,1.209,0,1.807,0,2.229.231,5.123.5,8.33.163,2.011.38,4.158.584,6.36.068.625.136,1.25.19,1.889s.747,14.948.951,18.74v.163h0v.163A1.619,1.619,0,0,1,377.128,316.543Z" transform="translate(116.703 46.721)" fill="#9182ca"/>
      <path id="Trazado_108894" data-name="Trazado 108894" d="M352.981,248.56c1.481,2.827,6.985,5.273,9.281,6.183l-.082-.435c-.367-2.106-.693-3.9-.693-3.9l-6.727-3.357C353.28,246.984,352.369,247.405,352.981,248.56Z" transform="translate(120.927 44.257)" fill="#ec6343"/>
      <path id="Trazado_108895" data-name="Trazado 108895" d="M366.08,254.5s-12.149,3.764-14.4-3.819-5.327-12.23,2.337-14.948,10.015-.285,11.388,2.066S369.178,253.321,366.08,254.5Z" transform="translate(119.61 39.768)" fill="#fc7955"/>
      <path id="Trazado_108896" data-name="Trazado 108896" d="M366.335,238.155s-.775,8.847-2.609,8.466-3.479-.666-3.221,2,2.8,5.735-2.827,6.21-13.739-14.065-12.23-16.81C349.96,230.083,372.777,228.48,366.335,238.155Z" transform="translate(118.227 38.667)" fill="#12263f"/>
      <path id="Trazado_108897" data-name="Trazado 108897" d="M378.39,254.758s2.256-4.4,4.077-5.748,6.414-.9,6.591-.544c.516,1.1-3.805,2.718-4.321,3.71s1.536.938,0,2.65a16.905,16.905,0,0,1-4.593,2.786Z" transform="translate(130.117 44.636)" fill="#fc7955"/>
      <path id="Trazado_108898" data-name="Trazado 108898" d="M382.07,251.951l2.867-.313c1.033-.122,2.038-.571,2.46-.6,1.006,0,.3,1.536-1.862,2.324-1.835.666-2.351,1.753-4.077,2.052C379.379,255.769,382.07,251.951,382.07,251.951Z" transform="translate(130.935 45.691)" fill="#fc7955"/>
      <path id="Trazado_108899" data-name="Trazado 108899" d="M363.443,254.686c-.163,0-9.8-2.922-10.871-2.568s-1.672,2.365-1.672,2.365l14.907,4.281S365.454,255.583,363.443,254.686Z" transform="translate(120.25 46.067)" fill="#9182ca"/>
      <path id="Trazado_108900" data-name="Trazado 108900" d="M392.15,281.941a9.513,9.513,0,0,1,3.234-1.78c1.495-.326,2.813-1.7,2.813-1.033s-1.128,2.256-1.128,2.813S392.15,281.941,392.15,281.941Z" transform="translate(135.056 55.708)" fill="#fc7955"/>
      <path id="Trazado_108901" data-name="Trazado 108901" d="M369.869,283.18c-7.732-2.935-13.589-14.35-13.589-14.35l13.046,4.213v1.807C369.394,277.079,369.6,279.932,369.869,283.18Z" transform="translate(122.181 52.077)" fill="#9182ca"/>
      <path id="Trazado_108902" data-name="Trazado 108902" d="M407.672,290.672v-.1a2.84,2.84,0,0,0-1.536-3.289c-4.851-2.351-17.435-8.412-18.848-9.173s-16.212-14.948-20.615-19.215a2.881,2.881,0,0,0-2.881-.652l-12.23,3.982a2.867,2.867,0,0,0-.72,5.1c8.969,6.156,27.763,18.957,31.133,20.683,5.952,3.044,18.006,4.634,22.45,5.137a2.867,2.867,0,0,0,2.949-1.712,4.89,4.89,0,0,0,.3-.761Z" transform="translate(119.778 48.227)" fill="#9182ca"/>
      <path id="Trazado_108903" data-name="Trazado 108903" d="M144.076,297.37s-14.948,1.359-22.884,24.746-5.653,66.846-11.565,71.208-37.751-6.795-40.292.38,0,8.018-7.012,4.62-18.889-4.566-16.307,1.1-13.168,1.875-12.733,9.621h80.177s37.955-3.941,36.691-20.914-14.7-56.559-6.645-71.534A73.627,73.627,0,0,1,162,293.85Z" transform="translate(6.243 61.057)" fill="#b2204d"/>
      <path id="Trazado_108904" data-name="Trazado 108904" d="M113.858,402.069l-3.37,1.25s-14.636-20.289-16.4-38.145a27.015,27.015,0,0,1,.476-9.118s-.136-.829-.394-2.269c-.109-.666-.258-1.481-.421-2.419-.476-2.718-1.128-6.455-1.875-10.695-1.726-9.771-3.954-22.259-5.68-31.446l.91-.285,9.812-3.18,2.038-6.441,7.311-1.93s1.631,3.207,3.085,18.291c.272,1.984.516,4.172.707,6.536a129.276,129.276,0,0,1-.693,26.445c-.34,2.623-.761,5.327-1.359,8.154a37.275,37.275,0,0,0-.285,8.018C108.5,379.388,113.858,402.069,113.858,402.069Z" transform="translate(25.237 62.328)" fill="#364154"/>
      <path id="Trazado_108905" data-name="Trazado 108905" d="M110.047,322.218l-15.94,31.568c-.109-.666-.258-1.481-.421-2.419-.476-2.718-1.128-6.455-1.875-10.695-1.726-9.771-3.954-22.259-5.68-31.446l.91-.285,9.812-3.18,2.038-6.441,7.311-1.93s1.631,3.207,3.085,18.291C109.612,317.665,109.857,319.853,110.047,322.218Z" transform="translate(25.215 62.328)" fill="#12263f"/>
      <path id="Trazado_108906" data-name="Trazado 108906" d="M106.931,302.422l-.367-3.153c-6.156,1.631-22.613-4.58-22.613-4.58s-5.966,5.245-5.191,17.816c.381,6.142,1.087,32.207,1.807,39.925.272,2.8.5,4.783.6,5.585h0a1.155,1.155,0,0,1-.177.693,35.794,35.794,0,0,0-2.718,5.653c-7.162,19.025,1.1,42.575,1.1,42.575l2.147-.856s4.7-26.146,8.521-37.7a22.219,22.219,0,0,1,1.835-4.43,49.819,49.819,0,0,0,4.607-12.23,302.135,302.135,0,0,0,6.183-32.547C102.882,319.151,106.931,302.422,106.931,302.422Z" transform="translate(21.346 61.359)" fill="#364154"/>
      <path id="Trazado_108907" data-name="Trazado 108907" d="M140.687,301.881l-.462,3.085h-.557c-1.114-.082-3.846-.231-6.931-.571-4.648-.448-10.151-1.264-12.339-2.623-3.343-2.038-8.819-8.276-12.393-14.527-.1-.149-.177-.313-.258-.462a22.721,22.721,0,0,1-3.261-9.227,13.671,13.671,0,0,1,.435-4.185,10.722,10.722,0,0,1,1.889-3.764,1.835,1.835,0,0,1,.353-.435,8.724,8.724,0,0,1,2.432-2.066c.612-.258,1.264,0,1.957.788h0a11.837,11.837,0,0,1,1.753,2.6v.082c.136.231.258.489.408.761a.9.9,0,0,1,.109.177c.272.584.557,1.2.843,1.835,3.126,6.795,6.469,17.19,9.254,20.275,1.2,1.359,6.672,3.927,11.035,5.857C138.145,300.861,140.687,301.881,140.687,301.881Z" transform="translate(31.797 51.423)" fill="#fc7955"/>
      <path id="Trazado_108908" data-name="Trazado 108908" d="M112.673,278.31a19.188,19.188,0,0,1-7.094,1.658c-10.6.584-12.991-8.7-13.44-14.867a9.05,9.05,0,0,1,3.642-.448,17.5,17.5,0,0,1,2.174.19c1.359-.679,3.628-3.954,4.974-9.513l.448.217,7.651,3.588s-.815,2.487-1.359,4.865a9.716,9.716,0,0,0-.53,4.158c.612.245.965.408.965.408h0A52.675,52.675,0,0,1,112.673,278.31Z" transform="translate(27.372 47.231)" fill="#fc7955"/>
      <path id="Trazado_108909" data-name="Trazado 108909" d="M119.883,282.846a5.044,5.044,0,0,1-.258.625c-2.718,5.775-7.651,29.706-7.651,29.706.707,4.294-32.315-.843-32.411-4.756-1.155-4.158,4.077-10.871,7.121-14.174a9.508,9.508,0,0,0,.992-1.359,9.282,9.282,0,0,0,1.359-3.955,134.369,134.369,0,0,0,.408-13.915h0l1.671-1.209a14.469,14.469,0,0,0,2.038-1.7,3.085,3.085,0,0,0,.978-1.916,10.764,10.764,0,0,0,0-1.617,2.094,2.094,0,0,0-.1-.761,21.484,21.484,0,0,0-1.59-5.11c2.84-1.155,7.9-.462,7.9-.462v.734c0,1.848,0,6.591.6,7.488.734,1.114,14.269,6.007,14.948,4.484s-1.223-8.466-1.359-8.738h0a21.524,21.524,0,0,1,6.156,3.261C118.048,271.254,122,277.247,119.883,282.846Z" transform="translate(22.799 49.639)" fill="#9182ca"/>
      <path id="Trazado_108910" data-name="Trazado 108910" d="M105.505,242.127c0-.462-.38-5.436-7.909-5.667,0,0,3.7.435,4.349,2.066,0,0-2.528-2.011-4.58-1.359s-3.261,4.24-3.275,5.436,1.128,5,2.432,5.327a3.846,3.846,0,0,0,1.576,0,19.971,19.971,0,0,0-1.006,1.807c-3.017,6.183.1,12.23,2.636,11.537,1.631-.421,2.093,2.365,2.093,2.365l15.859-12.856S111.851,238.729,105.505,242.127Z" transform="translate(28.072 40.458)" fill="#12263f"/>
      <path id="Trazado_108911" data-name="Trazado 108911" d="M108.006,259.118s-.815,2.487-1.359,4.865c-4.471-1.25-5.83-5.939-6.237-8.453Z" transform="translate(30.341 47.303)" fill="#ec6343"/>
      <path id="Trazado_108912" data-name="Trazado 108912" d="M109.165,265.245s-10.681-2.473-9.05-9.1,1.359-11.415,8.262-10.124,7.583,4.158,7.583,6.509S111.978,265.707,109.165,265.245Z" transform="translate(30.174 43.812)" fill="#fc7955"/>
      <path id="Trazado_108913" data-name="Trazado 108913" d="M117.256,249.1c-1.155-2.405-2.5-2.283-3.343-1.848a7.664,7.664,0,0,0-9.947-.856A13.1,13.1,0,0,1,98,252.819s1.644,1.671,6.4,1.644a7.814,7.814,0,0,0,4.24-1.6,25.44,25.44,0,0,1-5.572,4.158c5.966-1.142,9.947-8.031,10.355-8.765a8.439,8.439,0,0,1,1.563,3.669c.109,1.821-.516,5.354.516,5.436C115.462,257.412,118.982,252.669,117.256,249.1Z" transform="translate(29.476 43.505)" fill="#12263f"/>
      <path id="Trazado_108914" data-name="Trazado 108914" d="M110.311,267.51s2.568,4.5,2.962,5.653c0,0-3.343-.136-4.688,2.432C108.585,275.6,108.259,268.176,110.311,267.51Z" transform="translate(33.268 51.603)" fill="#9182ca"/>
      <path id="Trazado_108915" data-name="Trazado 108915" d="M100.9,302.468c-6.523-.068-12.027-6.795-15.41-12.23a9.282,9.282,0,0,0,1.359-3.954,134.37,134.37,0,0,0,.408-13.915h0l1.671-1.209a14.469,14.469,0,0,0,2.038-1.7C96.307,278.483,109.733,302.564,100.9,302.468Z" transform="translate(24.985 52.303)" fill="#9182ca"/>
      <path id="Trazado_108916" data-name="Trazado 108916" d="M92.012,381.107H75.025a9.3,9.3,0,0,1,.476-4.539c.843-1.889,2.174-2.718,1.862-5.028a6.061,6.061,0,0,0,5.313,1.984,18.834,18.834,0,0,0,2.935,3.819C86.726,378.185,91.672,377.9,92.012,381.107Z" transform="translate(21.195 88.943)" fill="#12263f"/>
      <path id="Trazado_108917" data-name="Trazado 108917" d="M118.839,380.906H101.866a7.053,7.053,0,0,1,.489-4.539,3.316,3.316,0,0,0-.122-3.914,6.685,6.685,0,0,0,2.854.544,5.911,5.911,0,0,0,2.514-.9,58.607,58.607,0,0,0,4.838,5.082C113.553,377.984,118.5,377.7,118.839,380.906Z" transform="translate(30.801 89.144)" fill="#12263f"/>
      <path id="Trazado_108918" data-name="Trazado 108918" d="M126.652,309.582l-.693,2.636-10.328-2.188h0c-3.18-.761-6.795-1.685-9.757-2.718a25.82,25.82,0,0,1-5.2-2.324,2.716,2.716,0,0,1-.353-.245c-2.99-2.174-6.536-8.548-9.281-15.383-.381-.938-.747-1.875-1.1-2.8a69.091,69.091,0,0,1-2.908-9.689,26.4,26.4,0,0,1-.679-4.607,10.667,10.667,0,0,1,0-1.359c0-7.393,3.723-8.412,3.723-8.412l.245-.082a2.331,2.331,0,0,1,2,1.182,23.3,23.3,0,0,1,2.718,4.811c1.44,3.289,2.976,7.542,4.4,11.782.788,2.324,1.549,4.634,2.324,6.795.435,1.359.87,2.528,1.277,3.642a34.828,34.828,0,0,0,2.134,4.974,12.229,12.229,0,0,0,3.139,2.827C110.929,300.45,126.652,309.582,126.652,309.582Z" transform="translate(25.285 49.769)" fill="#fc7955"/>
      <path id="Trazado_108919" data-name="Trazado 108919" d="M94.957,268.465c-4.906-1.359-8.7,2.473-8.7,2.473,0-7.379,3.737-8.385,3.737-8.385C91.478,261.942,93.191,264.551,94.957,268.465Z" transform="translate(25.262 49.792)" fill="#9182ca"/>
      <path id="Trazado_108920" data-name="Trazado 108920" d="M251.054,314c.149.394-60.554,31.188-60.554,31.188a27.179,27.179,0,0,0,16.824,1.155c9.812-2.283,47.563-23.958,47.563-23.958Z" transform="translate(62.677 68.29)" fill="#12263f"/>
      <path id="Trazado_108921" data-name="Trazado 108921" d="M217.138,321.811S197,354.248,143.252,294.958a7.624,7.624,0,0,0-7.542-2.3l-20.9,5.218a3.968,3.968,0,0,1,2.718.856,5.259,5.259,0,0,1,1.1,1.93c4.308,12.04,20.452,52.36,46.639,63.5,30.875,13.154,63.625,5.558,88.113-42.358Z" transform="translate(35.509 60.547)" fill="#fd8f25"/>
      <path id="Trazado_108922" data-name="Trazado 108922" d="M301.37,329.285a2.72,2.72,0,0,0-.149.272c-1.2,2.066-3.927,7.134-6.931,12.692l-4.294,7.9c-2.432,4.444-4.648,8.412-5.939,10.5s-2.283,3.628-2.718,4.226h0a1.006,1.006,0,0,0-.136.625,33.3,33.3,0,0,1-.082,5.585,42.834,42.834,0,0,1-14,27.722l-3.615.544s5.123-19.025,6.632-29.706a19.935,19.935,0,0,0,.272-4.254,44.97,44.97,0,0,1,1.169-11.619,260.312,260.312,0,0,1,7.406-26.88c.177-.53,5.259-18.944,5.259-18.944,4.281,3.737,19.868,5.273,19.868,5.273S306.751,319.7,301.37,329.285Z" transform="translate(88.883 66.118)" fill="#9182ca"/>
      <path id="Trazado_108923" data-name="Trazado 108923" d="M257.92,380.849h15.057a8.357,8.357,0,0,0-.435-4.077c-.747-1.671-1.835-1.726-.136-4.362-.965.992-4.077,1.359-6.224,1.1a18.492,18.492,0,0,1-2.623,4C262.622,378.24,258.219,377.982,257.92,380.849Z" transform="translate(86.876 89.255)" fill="#12263f"/>
      <path id="Trazado_108924" data-name="Trazado 108924" d="M294.22,326a2.727,2.727,0,0,0-.149.272c-1.2,2.066-7.637,13.956-10.64,19.514a80.64,80.64,0,0,0,1.06-28.687Z" transform="translate(96.032 69.402)" fill="#9182ca"/>
      <path id="Trazado_108925" data-name="Trazado 108925" d="M248.453,273.233s-.6-6.523,6.686-6.523a8.465,8.465,0,0,0-3.343,1.807,8.616,8.616,0,0,1,9.7,1.454c5.055,4.2,1.916,14.7,3.452,16.7s7.515,2.392,6.795,8.847S252.72,310.06,253.916,315.4c0,0-7.162-10.532-2.038-15.329a9.513,9.513,0,0,0-2.718,5.137s-.679-5.436,2.8-7.2c3.071-1.536,5.585-7.189,5.313-8.154S248.453,273.233,248.453,273.233Z" transform="translate(83.474 51.316)" fill="#12263f"/>
      <path id="Trazado_108926" data-name="Trazado 108926" d="M263.624,291.66s-10.369,26.146-12.6,25.181-15.4-5.15-15.4-5.15l-.87,3.207s12.529,9.648,19.025,10.07S268.964,306.4,268.964,306.4Z" transform="translate(78.563 60.271)" fill="#fc7955"/>
      <path id="Trazado_108927" data-name="Trazado 108927" d="M242.805,328.156a13.046,13.046,0,1,1-5.273,17.666A13.046,13.046,0,0,1,242.805,328.156Zm9.988,18.482a28.538,28.538,0,1,0,.027,0Z" transform="translate(78.998 72.805)" fill="#12263f"/>
      <path id="Trazado_108928" data-name="Trazado 108928" d="M233.176,312.92a13.046,13.046,0,1,1,9.635,15.736,13.046,13.046,0,0,1-9.635-15.736Zm4.933,1.2a7.963,7.963,0,1,0,9.608-5.9,7.963,7.963,0,0,0-9.608,5.9Z" transform="translate(77.865 64.314)" fill="#12263f"/>
      <path id="Trazado_108929" data-name="Trazado 108929" d="M252.19,270.868c-.1-.394,8.629,3.941,9.064,4.43,4.077,4.539,2.935,10.464.584,10.532-1.495,0-1.209,2.528-1.209,2.528l-16.728-7.08S245.87,269.523,252.19,270.868Z" transform="translate(81.844 52.77)" fill="#12263f"/>
      <path id="Trazado_108930" data-name="Trazado 108930" d="M254.7,292.06s-2.229,2.31-2.229,9.214c0,0,3.071,4.851,11.035,6.074C263.5,307.348,256.656,292.06,254.7,292.06Z" transform="translate(84.92 60.415)" fill="#364154"/>
      <path id="Trazado_108931" data-name="Trazado 108931" d="M282.7,315.223V312.4c5.626.707,19.419-6.727,19.419-6.727s5.884,3.914,6.686,15.111c.394,5.436,2.895,28.538,3.166,35.455.1,2.487.136,4.281.149,4.987h0a.952.952,0,0,0,.231.584,31.756,31.756,0,0,1,3.058,4.675c8.588,15.981,4.077,37.7,4.077,37.7l-2-.5s-7.257-22.518-12.013-32.261a20.645,20.645,0,0,0-2.147-3.683,44.135,44.135,0,0,1-5.517-10.273C294.265,349.088,282.7,315.223,282.7,315.223Z" transform="translate(95.77 65.3)" fill="#9182ca"/>
      <path id="Trazado_108932" data-name="Trazado 108932" d="M300.9,380.878h15.084a8.276,8.276,0,0,0-.421-4.077c-.761-1.672-1.943-2.446-1.658-4.471a5.436,5.436,0,0,1-4.716,1.807,16.511,16.511,0,0,1-2.623,3.4C305.6,378.269,301.2,378.01,300.9,380.878Z" transform="translate(102.303 89.226)" fill="#12263f"/>
      <path id="Trazado_108933" data-name="Trazado 108933" d="M263.935,313.029c2.025.34-.34,1.957,2.46,2.256,3.968.435,8.072.734,10.219,1.59a2.3,2.3,0,0,1,1.468,1.2c.938,2.8,5.042,7.121,5.042,7.121,26.309-1.2,29.2-12.23,29.2-12.23-17.082-16.579-32.777-26.363-44.763-27.654-2.052-.231-4.648,1.074-6.5,1.9-4.2,1.862-6.958,7.257-6.958,7.257S256.216,311.711,263.935,313.029Z" transform="translate(85.509 57.981)" fill="#364154"/>
      <path id="Trazado_108934" data-name="Trazado 108934" d="M263.15,313.013c3.968.435,8.072.734,10.219,1.59a41.882,41.882,0,0,0-5.313-22.993S264.02,308.053,263.15,313.013Z" transform="translate(88.753 60.253)" fill="#12263f"/>
      <path id="Trazado_108935" data-name="Trazado 108935" d="M262.748,290s9.988-.544,11.755,5.721-3.329,31.255-4.43,33.892c-2,4.715-11.755,18.142-11.755,18.142l-3.588-1.1s6.509-20.506,7.963-22.531C264.963,320.905,259.758,292.721,262.748,290Z" transform="translate(85.731 59.672)" fill="#fc7955"/>
      <path id="Trazado_108936" data-name="Trazado 108936" d="M255.674,331.785a5.585,5.585,0,0,1-.856,2.419c-.666.815-2.623,2.813-2.718,3.968,0,0,.109.516.53.421s1.875-1.536,2.623-1.427a14.947,14.947,0,0,1-.8,2.99,8.426,8.426,0,0,0,.163,4c.231.571,3.153-3.03,4.349-4.648s0-8.154,0-8.154Z" transform="translate(84.787 74.517)" fill="#fc7955"/>
      <path id="Trazado_108937" data-name="Trazado 108937" d="M275.226,304.594c0,.136-9.513,1.726-15.342-1.264,0,0-4.933-15.437,2.106-14.7s11.211,2.962,11.388,6.333a65.1,65.1,0,0,0,1.848,9.635Z" transform="translate(86.978 59.173)" fill="#364154"/>
      <path id="Trazado_108938" data-name="Trazado 108938" d="M236.915,305.548s-2.582-.544-3.547.815-.313,5.436,1.44,5.245,1.916-2.718,2.106-3.656a8.67,8.67,0,0,0,0-2.405Z" transform="translate(77.903 65.218)" fill="#fc7955"/>
      <path id="Trazado_108939" data-name="Trazado 108939" d="M262.094,288.105s-2.786,10.369-6.958,7.257a8.643,8.643,0,0,0-1.481-3.438c-1.087-1.889-2.405-3.819-2.405-3.819l5.653-4.947.34-.3a14.949,14.949,0,0,0,4.851,5.246Z" transform="translate(84.482 57.112)" fill="#fc7955"/>
      <path id="Trazado_108940" data-name="Trazado 108940" d="M251.25,288.027s1.359,1.93,2.405,3.819c3.52-2.161,3.52-6.509,3.248-8.765Z" transform="translate(84.482 57.191)" fill="#ec6343"/>
      <path id="Trazado_108941" data-name="Trazado 108941" d="M253.573,293.183s8.534-4.743,5.436-10.015-3.982-9.431-9.513-6.618-5.436,5.436-4.892,7.433S251.276,294.284,253.573,293.183Z" transform="translate(82.009 54.522)" fill="#fc7955"/>
      <path id="Trazado_108942" data-name="Trazado 108942" d="M243.5,281.092c.394-2.337,1.59-2.555,2.419-2.405a6.8,6.8,0,0,1,8.29-3.18,11.687,11.687,0,0,0,6.727,4.077s-.992,1.835-5.069,2.976a7,7,0,0,1-4.077-.313,22.587,22.587,0,0,0,5.789,2.174c-5.436.489-10.491-4.417-11.021-4.947a7.705,7.705,0,0,0-.421,3.52c.353,1.59,1.753,4.457.9,4.824C247.092,287.791,242.92,284.611,243.5,281.092Z" transform="translate(81.682 54.328)" fill="#12263f"/>
      <path id="Trazado_108943" data-name="Trazado 108943" d="M255.588,340.79c0-.435-66.588-14.622-66.588-14.622a27.1,27.1,0,0,1,15.967-5.436c10.083-.326,52.061,10.953,52.061,10.953Z" transform="translate(62.138 70.703)" fill="#12263f"/>
      <path id="Trazado_108944" data-name="Trazado 108944" d="M218.69,325.68a1.454,1.454,0,1,1-1.44,1.468,1.454,1.454,0,0,1,1.44-1.468Z" transform="translate(72.278 72.482)" fill="#9182ca"/>
      <path id="Trazado_108945" data-name="Trazado 108945" d="M115.751,296.42a41.232,41.232,0,0,1,5.15,2.324,10.708,10.708,0,0,1,2.718,3.927.449.449,0,0,1-.448.462c-.448,0-1.359-1.658-2.106-1.359a14.949,14.949,0,0,0,1.359,2.718,8.575,8.575,0,0,1,.734,3.954c-.109.6-3.751-2.283-5.273-3.588-.8-.707-.775-2.392-1.033-4.308-.217-1.685-4.851-2.65-4.851-2.65Z" transform="translate(34.501 61.98)" fill="#fc7955"/>
    </g>
  </g>
</svg>
