<svg xmlns="http://www.w3.org/2000/svg" width="304.261" height="200" viewBox="0 0 304.261 200">
  <g id="Grupo_54992" data-name="Grupo 54992" transform="translate(-237 -7197.826)">
    <g id="CF1_quinario" transform="translate(237 7197.826)">
      <g id="Layer_1" data-name="Layer 1">
        <rect id="Rectángulo_5548" data-name="Rectángulo 5548" width="300" height="200" fill="none"/>
        <g id="Grupo_54559" data-name="Grupo 54559">
          <path id="Trazado_103942" data-name="Trazado 103942" d="M153,61.31c-13.64,11.76-28.35,31.83-25.88,50.87,1.41,10.88,11,20.39,21.91,21.09,10.14.64,16.23-6.46,19.57-15.14,3.14-8.15.3-18.44,6.13-25.63,4.46-5.52,12-6.31,18.44-4.17s11.75,7.07,13.33,13.72c.95,4,.64,9.4-2.66,12.3-2.53,2.21-7.84,2.8-9.26-1.08-2.12-5.75,10.36-12.26,15-12.23,7.57,0,14.3,5.28,21.78,3.61,6.51-1.45,10.79-7.8,11.54-13.75" fill="none" stroke="#fcf6e0" stroke-miterlimit="10" stroke-width="2"/>
          <path id="Trazado_103943" data-name="Trazado 103943" d="M271.63,22.05c3.85-5.06,9.88-1.79,14.6,2.72,4.92,4.68,5.48,11.62,4.45,17.65-1,5.84-2.92,10.64-.22,16.76,3,6.8,11.35,8.14,12.79.39a7.581,7.581,0,0,0,0-.81" fill="none" stroke="#fcf6e0" stroke-miterlimit="10" stroke-width="2"/>
          <g id="Grupo_54554" data-name="Grupo 54554">
            <g id="Grupo_54551" data-name="Grupo 54551">
              <path id="Trazado_103944" data-name="Trazado 103944" d="M255.79,10.13c4.92,1.34,12.85,9.2,19.58,16.2,6.38,6.65,13.31,27,8.95,33.24C281.08,64.19,270.54,65,267.21,65c-16.73.16-27.41-10-30.55-12.43a58.218,58.218,0,0,1-4.52-3.77c-.69-.66-2.08-1.56-2.41-2.47-1.53-4.12,9.4-19.24,11.39-22.09C241.12,24.26,251.1,8.86,255.79,10.13Z" fill="#ef2a66"/>
              <path id="Trazado_103945" data-name="Trazado 103945" d="M284.32,59.57C280.47,64.49,271,65,264.1,65.08c-6.1-.37-11.05-2.37-16.32-4.6-6.27-2.93-17.68-13.24-18-14.08-.5-1.33.09-3.82,1-5.64a93.489,93.489,0,0,1,9.39-15.07s11,9.29,16.48,16.75c1.73,2.34,3.72,6.05,5.77,6.64C267.62,50.59,284.32,59.57,284.32,59.57Z" fill="#bfaa94" opacity="0.4"/>
            </g>
            <path id="Trazado_103946" data-name="Trazado 103946" d="M257.19,32.41a5.85,5.85,0,0,0,1.17,4c.6.31,4.17-2.52,5.19-5.63.91-2.77.2-6.9-1.12-7.55C262.43,23.19,257.41,26.58,257.19,32.41Z" fill="#472ea6"/>
            <g id="Grupo_54552" data-name="Grupo 54552">
              <path id="Trazado_103947" data-name="Trazado 103947" d="M249.49,43.4a5.88,5.88,0,0,1,4.12-.26c.49.46-.94,4.79-3.52,6.81-2.29,1.8-6.42,2.54-7.48,1.52C242.61,51.47,244.08,45.59,249.49,43.4Z" fill="#472ea6"/>
              <path id="Trazado_103948" data-name="Trazado 103948" d="M249.76,49.72c-2.1,1.65-5.74,2.4-7.15,1.73h0c1.06,1,5.19.28,7.48-1.52,2.58-2,4-6.35,3.52-6.81a.74.74,0,0,0-.26-.11C253.6,43.87,252.19,47.81,249.76,49.72Z" fill="#771b30" opacity="0.3"/>
            </g>
            <g id="Grupo_54553" data-name="Grupo 54553">
              <path id="Trazado_103949" data-name="Trazado 103949" d="M269.5,50.3c1.76-2.48,8.56-7.31,7.47-8.19-.52-.42-8.79-1.8-13.06,4.22s-.25,13.37.32,13.72C265.42,60.79,267.74,52.79,269.5,50.3Z" fill="#472ea6"/>
              <path id="Trazado_103950" data-name="Trazado 103950" d="M264.1,59.92c1.25-.64,3.32-7.49,4.93-9.75,1.76-2.49,8.55-7.31,7.47-8.19l-.13-.07a2.39,2.39,0,0,1,.61.2c1.09.89-5.71,5.71-7.47,8.19s-4.09,10.49-5.27,9.76a.46.46,0,0,1-.14-.14Z" fill="#771b30" opacity="0.3"/>
            </g>
          </g>
          <g id="Grupo_54558" data-name="Grupo 54558">
            <g id="Grupo_54555" data-name="Grupo 54555">
              <path id="Trazado_103951" data-name="Trazado 103951" d="M265.05,52.12c4.2,2.89,9.08,12.93,13.1,21.77,3.82,8.38,3.62,29.89-2.57,34.32-4.58,3.29-14.78.55-17.94-.53-15.84-5.39-22.57-18.48-24.71-21.84a57.5,57.5,0,0,1-3-5.06c-.43-.85-1.44-2.16-1.45-3.13-.07-4.39,15.24-15,18.08-17.07C246.54,60.58,261.05,49.36,265.05,52.12Z" fill="#bbabf5"/>
              <path id="Trazado_103952" data-name="Trazado 103952" d="M275.58,108.21c-5.26,3.37-14.38.72-20.89-1.5-5.64-2.37-9.64-5.89-13.88-9.75-4.94-4.83-12.29-18.35-12.32-19.24,0-1.42,1.36-3.58,2.83-5a94,94,0,0,1,13.86-11.11s7.3,12.41,10,21.27c.85,2.79,1.5,6.94,3.24,8.18C262.8,94.21,275.58,108.21,275.58,108.21Z" fill="#771b30" opacity="0.1"/>
            </g>
            <path id="Trazado_103953" data-name="Trazado 103953" d="M259,73.6a5.85,5.85,0,0,0-.21,4.12c.46.49,4.77-1,6.77-3.59,1.77-2.31,2.47-6.44,1.44-7.5C267,66.63,261.13,68.17,259,73.6Z" fill="#472ea6"/>
            <path id="Trazado_103954" data-name="Trazado 103954" d="M265.32,73.8c1.62-2.11,2.34-5.76,1.65-7.16h0c1,1.06.33,5.19-1.44,7.5-2,2.6-6.31,4.08-6.77,3.59a.74.74,0,0,1-.11-.26C259.51,77.7,263.44,76.25,265.32,73.8Z" fill="#771b30" opacity="0.3"/>
            <g id="Grupo_54556" data-name="Grupo 54556">
              <path id="Trazado_103955" data-name="Trazado 103955" d="M248.09,81.41a5.84,5.84,0,0,1,4,1.13c.31.6-2.48,4.2-5.58,5.25-2.75.94-6.9.27-7.56-1.05C238.92,86.74,242.26,81.69,248.09,81.41Z" fill="#472ea6"/>
              <path id="Trazado_103956" data-name="Trazado 103956" d="M246.25,87.47c-2.53.86-6.21.37-7.32-.74h0c.66,1.32,4.81,2,7.56,1.05,3.1-1.05,5.89-4.65,5.58-5.25a1.06,1.06,0,0,0-.21-.19C251.81,83.23,249.16,86.48,246.25,87.47Z" fill="#771b30" opacity="0.3"/>
            </g>
            <g id="Grupo_54557" data-name="Grupo 54557">
              <path id="Trazado_103957" data-name="Trazado 103957" d="M263.19,92.58c2.73-2,8-9.49,9-8.3.47.57,2,9.71-4.6,14.46s-14.77.33-15.16-.29C251.62,97.14,260.45,94.54,263.19,92.58Z" fill="#472ea6"/>
              <path id="Trazado_103958" data-name="Trazado 103958" d="M252.39,98.18c1.69,1.14,8.86,4.26,14.81,0s5.3-12.06,4.77-14a.35.35,0,0,1,.23.12c.47.57,2,9.71-4.6,14.46s-14.77.33-15.16-.29a.33.33,0,0,1-.05-.29Z" fill="#771b30" opacity="0.3"/>
            </g>
          </g>
        </g>
        <g id="Grupo_54571" data-name="Grupo 54571">
          <g id="Grupo_54568" data-name="Grupo 54568">
            <g id="Grupo_54560" data-name="Grupo 54560">
              <path id="Trazado_103959" data-name="Trazado 103959" d="M158.87,22.44c-5.31-2.85-9.77,2.42-12.89,6.07a172.384,172.384,0,0,0-11,14.61,186.439,186.439,0,0,0-10.59,17.24c-2.43,4.56-5,9.52-6,14.66a20.09,20.09,0,0,0,1.11,11.22,14.41,14.41,0,0,0,9.61,8.06,21.16,21.16,0,0,0,18.93-4.52,86.459,86.459,0,0,0,10.3-11.41c4-5,7.8-10.23,11.43-15.53a150.759,150.759,0,0,0,8.39-13.35c1.83-3.34,3.58-7.2,2.13-11.07a6.64,6.64,0,0,0-3.26-3.67c-2.17-1.11-4.09,2.16-1.92,3.27s2.09,3.46,1.68,5.26a9,9,0,0,1-.41,1.34c.21-.54-.18.38-.26.56-.16.34-.33.68-.5,1a121.654,121.654,0,0,1-7,11.58C162.54,67,156,76.24,148.34,84.25c-.71.74-1.44,1.47-2.2,2.17-.33.31-.67.62-1,.91l-.45.38-.19.16h-.05a17.46,17.46,0,0,1-7.14,2.88c-3.85.78-8.12.29-11.31-2.17S121.81,82,121.91,78a7.843,7.843,0,0,1,.06-1.19c0-.09.09-.74,0-.3.06-.47.16-.94.26-1.4a27.683,27.683,0,0,1,.87-3,56.13,56.13,0,0,1,2.9-6.64,156,156,0,0,1,9.23-15.94c3.24-5,6.65-9.87,10.32-14.55,1.45-1.84,2.93-3.65,4.51-5.39a20.44,20.44,0,0,1,3.37-3.28c1.07-.72,2.29-1.25,3.51-.59,2.15,1.15,4.07-2.12,1.92-3.28Z" fill="#bbabf5"/>
              <path id="Trazado_103960" data-name="Trazado 103960" d="M120.07,77c-.25,3.71.24,7.63,2.39,10.66A13.55,13.55,0,0,0,132.3,93a22.48,22.48,0,0,0,11.2-2.22" fill="none" stroke="#472ea6" stroke-miterlimit="10" stroke-width="7.58"/>
              <path id="Trazado_103961" data-name="Trazado 103961" d="M124.7,90.3a52,52,0,0,0-13.26,26.92c-1.31,8.35-.3,17.81,4.89,24.76a22.36,22.36,0,0,0,11.07,7.87,45.11,45.11,0,0,0,14.78,2.07,46.2,46.2,0,0,0,27.28-9c3.86-2.95,7.38-6.67,9-11.35a13,13,0,0,0-2.1-12.34,17.4,17.4,0,0,0-10.59-6.09,21.46,21.46,0,0,0-13.28,2.35,42.14,42.14,0,0,0-11.44,9,46.37,46.37,0,0,0-8.79,12.45A27.4,27.4,0,0,0,130,152.38a33.54,33.54,0,0,0,5.64,14,37.1,37.1,0,0,0,55.78,6.25c1.41-1.3-.7-3.41-2.11-2.11a34.72,34.72,0,0,1-24.25,9,34,34,0,0,1-22.61-9.72c-6.48-6.3-10.86-15.6-9.6-24.77a29.3,29.3,0,0,1,5.48-12.72,54.59,54.59,0,0,1,9.4-10.16c6.17-5.17,14.7-8.68,22.32-4.43,3,1.68,5.55,4.47,6.05,8,.63,4.43-1.93,8.62-4.89,11.68-6.12,6.31-14.86,9.95-23.47,11.11a46.589,46.589,0,0,1-13.29-.11c-4.5-.69-9.16-2-12.7-5-5.9-5-8-13.11-7.83-20.6.17-8.94,3.55-17.84,8.61-25.15a48.581,48.581,0,0,1,4.29-5.31c1.3-1.4-.81-3.52-2.11-2.11Z" fill="#472ea6"/>
              <circle id="Elipse_4170" data-name="Elipse 4170" cx="9.25" cy="9.25" r="9.25" transform="translate(180.517 170.149) rotate(-48.27)" fill="#bbabf5"/>
              <path id="Trazado_103962" data-name="Trazado 103962" d="M195,175.1a5.86,5.86,0,1,0-7.13-4.22A5.86,5.86,0,0,0,195,175.1Z" fill="#472ea6"/>
              <path id="Trazado_103963" data-name="Trazado 103963" d="M159.91,30.69l-1.55-2.36a3.32,3.32,0,0,1-.61-4.66h0a3.33,3.33,0,0,1,4.66-.61L164,25.42Z" fill="#bbabf5"/>
              <path id="Trazado_103964" data-name="Trazado 103964" d="M171.28,30.06l2.43,1.77a3.31,3.31,0,0,1,.72,4.64h0a3.32,3.32,0,0,1-4.64.73l-2.43-1.77Z" fill="#bbabf5"/>
            </g>
            <g id="Grupo_54567" data-name="Grupo 54567">
              <g id="Grupo_54562" data-name="Grupo 54562">
                <path id="Trazado_103965" data-name="Trazado 103965" d="M196.15,122.43c-.23-10,3.4-22.71,9.35-30.73,2.36-3.19,6.2-6.33,9.88-4.87,2.34.92,3.29,3.58,3.74,6,.73,4-2,11.2-3.92,13.48,4.17-1.31,5.45-2,10.13-2.08,2.33,0,5.23.42,7,2,2.1,1.83,2.47,5.1,1.46,7.69a14.08,14.08,0,0,1-5.43,6.17c-8.69,6-22,5.52-32.09,2.49" fill="#ec5a65"/>
                <g id="Grupo_54561" data-name="Grupo 54561">
                  <path id="Trazado_103966" data-name="Trazado 103966" d="M228.34,120.09a14.08,14.08,0,0,0,5.43-6.17c1-2.59.64-5.86-1.46-7.69-1.75-1.53-4.65-2-7-2a30.9,30.9,0,0,0-10,2c-6.84,5.36-12.46,10.54-19.21,16v.15l.1.15C206.39,125.61,219.65,126,228.34,120.09Z" fill="#ec5a65"/>
                </g>
              </g>
              <g id="Grupo_54564" data-name="Grupo 54564">
                <path id="Trazado_103967" data-name="Trazado 103967" d="M199.71,138.22a31.252,31.252,0,0,1,17-7.49c2.28-.17,5.1.32,5.85,2.49.48,1.37-.33,2.78-1.24,3.91-1.46,1.82-5.65,3.35-7.37,3.37a16,16,0,0,1,4.72,3.64,6.24,6.24,0,0,1,1.78,3.79,4,4,0,0,1-2.81,3.54,8.1,8.1,0,0,1-4.75-.05c-5.87-1.56-10.68-7.52-13.18-13.1" fill="#ec5a65"/>
                <g id="Grupo_54563" data-name="Grupo 54563">
                  <path id="Trazado_103968" data-name="Trazado 103968" d="M212.86,151.42a8.1,8.1,0,0,0,4.75.05,4,4,0,0,0,2.81-3.54,6.24,6.24,0,0,0-1.78-3.79,17.49,17.49,0,0,0-4.62-3.61c-4.92-1-9.31-1.48-14.25-2.37l-.06.06v.1C202.18,143.9,207,149.86,212.86,151.42Z" fill="#ec5a65"/>
                </g>
              </g>
              <g id="Grupo_54566" data-name="Grupo 54566">
                <path id="Trazado_103969" data-name="Trazado 103969" d="M183.42,109a25.83,25.83,0,0,1-9-12.3c-.53-1.81-.63-4.16,1-5.14,1-.63,2.3-.23,3.36.3,1.72.86,3.69,3.95,4,5.33a13.06,13.06,0,0,1,2.09-4.44,5.13,5.13,0,0,1,2.73-2.1,3.34,3.34,0,0,1,3.34,1.64,6.61,6.61,0,0,1,.79,3.82c-.21,5-4.15,9.91-8.19,12.89" fill="#ec5a65"/>
                <g id="Grupo_54565" data-name="Grupo 54565">
                  <path id="Trazado_103970" data-name="Trazado 103970" d="M191.7,96.15a6.61,6.61,0,0,0-.79-3.82,3.34,3.34,0,0,0-3.34-1.64,5.13,5.13,0,0,0-2.73,2.1,14.73,14.73,0,0,0-2.09,4.35c.09,4.12.46,7.73.62,11.86h.09C187.55,106.06,191.49,101.14,191.7,96.15Z" fill="#ec5a65"/>
                </g>
              </g>
            </g>
          </g>
          <g id="Grupo_54570" data-name="Grupo 54570">
            <g id="Grupo_54569" data-name="Grupo 54569">
              <path id="Trazado_103971" data-name="Trazado 103971" d="M188.3,45l7.2-1.88,1-.27a1.92,1.92,0,0,0,1.32-2.33,1.94,1.94,0,0,0-2.33-1.33l-7.2,1.88-1,.27a1.9,1.9,0,0,0,1,3.66Z" fill="#f3fefa"/>
              <path id="Trazado_103972" data-name="Trazado 103972" d="M185.55,55.8l6.77,4.63a1.9,1.9,0,0,0,2.59-.68,2,2,0,0,0-.68-2.6l-6.77-4.63a1.9,1.9,0,0,0-2.59.68A1.94,1.94,0,0,0,185.55,55.8Z" fill="#f3fefa"/>
              <path id="Trazado_103973" data-name="Trazado 103973" d="M115.68,61c-2.92-2.11-5.88-4.15-8.79-6.26a1.9,1.9,0,0,0-2.59.68,2,2,0,0,0,.68,2.6c2.91,2.1,5.87,4.14,8.78,6.25a1.91,1.91,0,0,0,2.6-.68,1.94,1.94,0,0,0-.68-2.59Z" fill="#f3fefa"/>
              <path id="Trazado_103974" data-name="Trazado 103974" d="M111.07,71.45,99.69,73.31l-1.62.26a1.91,1.91,0,0,0-1.32,2.33,1.94,1.94,0,0,0,2.33,1.33l11.39-1.86,1.61-.26a1.92,1.92,0,0,0,1.33-2.33,2,2,0,0,0-2.34-1.33Z" fill="#f3fefa"/>
            </g>
            <path id="Trazado_103975" data-name="Trazado 103975" d="M205.3,164.68A13.21,13.21,0,0,1,190.12,181a2,2,0,0,0-2.33,1.33,1.91,1.91,0,0,0,1.33,2.33,17,17,0,0,0,19.83-21c-.59-2.37-4.24-1.36-3.65,1Z" fill="#bbabf5"/>
            <path id="Trazado_103976" data-name="Trazado 103976" d="M178.91,181a29.42,29.42,0,0,1-27.84.46c-2.16-1.13-4.08,2.14-1.91,3.28a33.4,33.4,0,0,0,31.66-.46C182.95,183.07,181.04,179.8,178.91,181Z" fill="#f3fefa"/>
          </g>
        </g>
        <g id="Grupo_54575" data-name="Grupo 54575">
          <g id="Grupo_54573" data-name="Grupo 54573">
            <path id="Trazado_103977" data-name="Trazado 103977" d="M10.63,102c-1.87,2.92,1,6.63,4,8.38s6.62,3.51,7.13,7a9.41,9.41,0,0,1-.77,4.45c-2.52,7-6.14,13.51-7.81,20.72s-.61,15.25,4.15,20.83c8.82,10.32,34.44,16.29,43.91-17.93C67.27,123.43,73.93,71.93,75,49.17c.24-5,.67-10.47,4-14.16a1.89,1.89,0,0,1,1.52-.82c.61.09,1,.69,1.28,1.25,1.44,2.89,1.91,6.17,2.85,9.27s2.56,6.23,5.38,7.7,7,.35,7.87-2.78c-1.76,2.57-6,1.67-7.84-.84S88,43,87.62,39.84s-1.25-6.51-3.81-8.23a7.08,7.08,0,0,0-4.39-1.11c-3.75.22-7,2.85-9.08,6.08s-3,7-4,10.73c-7.32,29.58-12.35,60-24,88.05-1.54,3.7-4,7.91-7.88,8.07s-.62-8.07,1.3-11.64c3.55-6.58,7.47-13,9.93-20.11s3.35-15.05.71-22.06c-2.25,3.32-6.2,4.89-9.94,6.15A130.72,130.72,0,0,1,10.63,102" fill="#fd8f25"/>
            <path id="Trazado_103978" data-name="Trazado 103978" d="M62.36,79.41c-2.23.52-4.07-1.77-5.3.21-.36.58-15.43,53.41-15.73,57a38.18,38.18,0,0,0,9,1.91" fill="none" stroke="#674858" stroke-miterlimit="10" stroke-width="2"/>
            <path id="Trazado_103979" data-name="Trazado 103979" d="M71.72,47c-7.89,32.43-6.89,66.81-16.94,98.61" fill="none" stroke="#674858" stroke-miterlimit="10" stroke-width="1"/>
            <path id="Trazado_103980" data-name="Trazado 103980" d="M31.42,155.49a6.44,6.44,0,0,1,5.22-7.38,6.31,6.31,0,0,1,6.93,5.7,6.43,6.43,0,0,1-5.22,7.38,6.32,6.32,0,0,1-6.93-5.7" fill="#fed2a8"/>
            <path id="Trazado_103981" data-name="Trazado 103981" d="M24,139.48a3.55,3.55,0,0,1,3-4,3.49,3.49,0,0,1,3.9,3.05,3.54,3.54,0,0,1-3,4,3.47,3.47,0,0,1-3.9-3" fill="#fed2a8"/>
            <path id="Trazado_103982" data-name="Trazado 103982" d="M48.12,127.66a3.48,3.48,0,1,1,3.44,3.59,3.53,3.53,0,0,1-3.44-3.59" fill="#fed2a8"/>
            <path id="Trazado_103983" data-name="Trazado 103983" d="M51.18,117.79a3.47,3.47,0,1,1,3.43,3.59,3.53,3.53,0,0,1-3.43-3.59" fill="#fed2a8"/>
            <path id="Trazado_103984" data-name="Trazado 103984" d="M53.28,108a3.6,3.6,0,1,1,3.56,3.59A3.6,3.6,0,0,1,53.28,108" fill="#fed2a8"/>
            <path id="Trazado_103985" data-name="Trazado 103985" d="M57.36,91.62a2.85,2.85,0,1,1,2.8,3.13,3,3,0,0,1-2.8-3.13" fill="#ef2a66"/>
            <path id="Trazado_103986" data-name="Trazado 103986" d="M58.75,83.51a2.85,2.85,0,1,1,2.8,3.13,3,3,0,0,1-2.8-3.13" fill="#ef2a66"/>
            <path id="Trazado_103987" data-name="Trazado 103987" d="M60.68,75.32a2.85,2.85,0,1,1,2.8,3.13,3,3,0,0,1-2.8-3.13" fill="#472ea6"/>
            <path id="Trazado_103988" data-name="Trazado 103988" d="M66.38,61.26c-2.06,6.84-2.78,14.06-3.24,21.17-.3,4.54-.52,9-.52,13.6,0,6.61.09,13.38-1.58,19.81a29.76,29.76,0,0,1-3.67,8.59c-1.6,2.51-3.36,4.88-5.1,7.28-3.58,4.93-6.76,10.33-7.58,16.53-.51,3.82-.55,8.65-3.44,11.54C38,163,32.1,163,28,162c-4.91-1.23-10.1-4.27-11.39-9.63-1.24-5.15,1.38-10.14,4.3-14.15,3.4-4.67,7.72-8.6,10.78-13.53a31.44,31.44,0,0,0,4.92-16.27,46.57,46.57,0,0,0-2-13.31,122.409,122.409,0,0,1-23.43,5.49c-1.83,2.92,1,6.64,3.91,8.4s6.79,3.48,7,7c.79,13.32-5.78,19.4-7.4,26.61s-1.52,13.79,3.16,19.37c8.66,10.35,33.79,16.37,43-17.83,5.8-21.54,12.1-71.65,13.29-95C70.07,51.64,67.76,56.68,66.38,61.26Z" fill="#fd8f25" opacity="0.3"/>
            <g id="Grupo_54572" data-name="Grupo 54572">
              <path id="Trazado_103989" data-name="Trazado 103989" d="M7.22,106.37c-1.81-4.54,6.07-12.16,17.62-17s22.37-5.1,24.16-.56-6,12.19-17.59,17-22.37,5.1-24.19.56" fill="#fed2a8"/>
              <path id="Trazado_103990" data-name="Trazado 103990" d="M48,94.53l-25.12-.87-5,15.8a48.1,48.1,0,0,0,14-3.7C39.3,102.64,45.21,98.38,48,94.53Z" fill="#fed2a8" opacity="0.3"/>
              <path id="Trazado_103991" data-name="Trazado 103991" d="M11.65,103c-1-2.61,5.18-7.71,13.91-11.37s16.65-4.52,17.7-1.91-5.19,7.71-13.92,11.37S12.69,105.58,11.65,103" fill="#ef2a66"/>
              <path id="Trazado_103992" data-name="Trazado 103992" d="M41.92,93.26a16,16,0,0,0-6.28,1.19c-2,.94-3.36,2.49-5,3.81a8.29,8.29,0,0,1-6.48,2,20.48,20.48,0,0,0-4.93-.39c-1.77.22-7.86,1.34-5.27,4.15a.19.19,0,0,1,0,.27c3.12.63,9.13-.54,15.58-3.25,5.61-2.36,10.18-5.3,12.46-7.8Z" fill="#bfaa94" opacity="0.4"/>
            </g>
            <path id="Trazado_103993" data-name="Trazado 103993" d="M63.12,65.94a3.44,3.44,0,0,1,2.74-4,3.38,3.38,0,0,1,3.66,3.09,3.43,3.43,0,0,1-2.74,4,3.37,3.37,0,0,1-3.66-3.08" fill="#fed2a8"/>
            <path id="Trazado_103994" data-name="Trazado 103994" d="M43.57,138.05a4.19,4.19,0,0,1,5.58-2.19,4.37,4.37,0,0,1,2.12,5.71,4.18,4.18,0,0,1-5.57,2.18,4.35,4.35,0,0,1-2.13-5.7" fill="#fed2a8"/>
            <path id="Trazado_103995" data-name="Trazado 103995" d="M25.61,125.44a6.44,6.44,0,0,1,5.22-7.39,6.31,6.31,0,0,1,6.93,5.7,6.43,6.43,0,0,1-5.22,7.39,6.33,6.33,0,0,1-6.93-5.7" fill="#fed2a8"/>
          </g>
          <g id="Grupo_54574" data-name="Grupo 54574">
            <path id="Trazado_103996" data-name="Trazado 103996" d="M25.72,64.27c-1.53-.23-1,1.42-1.06,2.39,0,1.42-.25,2.86-.32,4.28-.09,1.67.09,4-.74,5.49-.79,0-1.49-.51-2.27-.59a3.11,3.11,0,0,0-3.07,2.24c-.47,1.67.22,2.31,1.68,3A3.36,3.36,0,0,0,23.22,81c1.44-1.06,1.38-2.9,1.71-4.48s.33-3.3.65-4.92a21.84,21.84,0,0,0,.49-4c.29.69,1.14.8,1.69,1.21a3.21,3.21,0,0,1,1.16,1.5c.65,1.79-1.27,2.63-2,4,.94.12,2.52-1,3.09-1.7a3.8,3.8,0,0,0,.69-3.52c-.44-1.2-1.7-1.84-2.7-2.63a18.94,18.94,0,0,1-2.31-2.19" fill="#fcf6e0"/>
            <path id="Trazado_103997" data-name="Trazado 103997" d="M40,59.71c-1.08.26-.32,1.23-.08,1.88.37.95.59,2,.92,2.94.39,1.14,1.11,2.63,1,3.86-.54.2-1.13,0-1.67.2A2.27,2.27,0,0,0,38.7,70.9c.14,1.24.77,1.49,1.92,1.55a2.4,2.4,0,0,0,2.16-.94c.68-1.09.15-2.3,0-3.45s-.66-2.28-.86-3.45a15.78,15.78,0,0,0-.73-2.77c.38.38,1,.23,1.45.36a2.31,2.31,0,0,1,1.17.69c.91,1-.16,2.1-.26,3.2.65-.17,1.41-1.34,1.61-2a2.73,2.73,0,0,0-.47-2.54,5.42,5.42,0,0,0-2.49-1,12.8,12.8,0,0,1-2.2-.84" fill="#ef2a66"/>
            <path id="Trazado_103998" data-name="Trazado 103998" d="M51.22,47.52c-.68.16-.2.78,0,1.18.23.6.37,1.25.58,1.86a6.09,6.09,0,0,1,.6,2.43c-.33.12-.71,0-1.05.12a1.43,1.43,0,0,0-.92,1.46c.08.78.48.93,1.21,1a1.49,1.49,0,0,0,1.3-.57c.43-.68.1-1.45,0-2.17s-.41-1.44-.54-2.17a10.63,10.63,0,0,0-.46-1.75c.24.24.62.15.91.23a1.47,1.47,0,0,1,.74.43c.57.65-.1,1.32-.17,2,.42-.11.89-.85,1-1.23a1.74,1.74,0,0,0-.3-1.6,3.4,3.4,0,0,0-1.56-.65,8.48,8.48,0,0,1-1.34-.54" fill="#fcf6e0"/>
          </g>
        </g>
      </g>
    </g>
  </g>
</svg>
