<svg xmlns="http://www.w3.org/2000/svg" width="643" height="440" viewBox="0 0 643 440">
  <g id="Grupo_55228" data-name="Grupo 55228" transform="translate(-215 -7775)">
    <rect id="Rectángulo_5801" data-name="Rectángulo 5801" width="643" height="440" transform="translate(215 7775)" fill="#fd8f25" opacity="0.1"/>
    <path id="Trazado_35322" data-name="Trazado 35322" d="M7.269,17.176A7.089,7.089,0,0,1,4.68,16.71a6.087,6.087,0,0,1-2.061-1.3,5.864,5.864,0,0,1-1.354-2.065,7.2,7.2,0,0,1-.492-2.7A6.879,6.879,0,0,1,1.617,7.2,5.744,5.744,0,0,1,3.933,4.915a6.935,6.935,0,0,1,3.335-.791A6.739,6.739,0,0,1,11,5.152a5.629,5.629,0,0,1,2.276,2.83l-2.461.9A3.479,3.479,0,0,0,9.448,7.165a3.891,3.891,0,0,0-2.18-.615A3.73,3.73,0,0,0,4.491,7.657,4.075,4.075,0,0,0,3.4,10.646,4.081,4.081,0,0,0,4.5,13.638,3.726,3.726,0,0,0,7.269,14.75a3.876,3.876,0,0,0,2.175-.62,3.5,3.5,0,0,0,1.367-1.718l2.461.9A5.652,5.652,0,0,1,11,16.143,6.718,6.718,0,0,1,7.269,17.176ZM20.716,4.3a3.822,3.822,0,0,1,2.927,1.182A4.112,4.112,0,0,1,24.75,8.4a4.011,4.011,0,0,1-1.1,2.9,3.891,3.891,0,0,1-2.936,1.138H18.07V17H15.434V4.3Zm-.439,5.941a1.938,1.938,0,0,0,1.45-.5,1.888,1.888,0,0,0,.483-1.375,1.873,1.873,0,0,0-.488-1.358,1.92,1.92,0,0,0-1.446-.505H18.07v3.735ZM32.247,4.3a3.822,3.822,0,0,1,2.927,1.182A4.112,4.112,0,0,1,36.281,8.4a4.011,4.011,0,0,1-1.1,2.9,3.891,3.891,0,0,1-2.936,1.138H29.6V17H26.965V4.3Zm-.439,5.941a1.938,1.938,0,0,0,1.45-.5,1.888,1.888,0,0,0,.483-1.375,1.873,1.873,0,0,0-.488-1.358,1.92,1.92,0,0,0-1.446-.505H29.6v3.735Zm7.831,1.178a1.379,1.379,0,0,1-1.015-.431A1.411,1.411,0,0,1,38.2,9.96a1.456,1.456,0,0,1,1.441-1.441,1.411,1.411,0,0,1,1.028.426A1.379,1.379,0,0,1,41.1,9.96a1.471,1.471,0,0,1-1.459,1.459Zm0,5.757A1.456,1.456,0,0,1,38.2,15.734a1.411,1.411,0,0,1,.426-1.028,1.379,1.379,0,0,1,1.015-.431A1.471,1.471,0,0,1,41.1,15.734a1.379,1.379,0,0,1-.431,1.015A1.411,1.411,0,0,1,39.639,17.176Z" transform="translate(262 7797)" fill="#00223d"/>
    <path id="Trazado_35323" data-name="Trazado 35323" d="M0,0H244" transform="translate(333.5 7813.5)" fill="none" stroke="#707070" stroke-width="1"/>
    <path id="Trazado_35324" data-name="Trazado 35324" d="M55.733,4.625a3.664,3.664,0,0,1,1.938.514,3.473,3.473,0,0,1,1.3,1.375,4.036,4.036,0,0,1,.453,1.907A3.755,3.755,0,0,1,58.4,11.116a3.514,3.514,0,0,1-2.667,1.077H52.622V17H51.049V4.625Zm-.229,6.2a2.25,2.25,0,0,0,1.723-.664A2.455,2.455,0,0,0,57.852,8.4a2.463,2.463,0,0,0-.624-1.745A2.234,2.234,0,0,0,55.5,5.987H52.622v4.834Zm7.77-.94a2.612,2.612,0,0,1,1.072-1.16,3.229,3.229,0,0,1,1.661-.457V9.7A2.846,2.846,0,0,0,64,10.338a2.68,2.68,0,0,0-.69,2.048V17H61.789V8.36h1.485Zm11.971,2.628-.018.413h-6.75a3.053,3.053,0,0,0,.826,2.21,2.713,2.713,0,0,0,1.969.769,2.59,2.59,0,0,0,1.433-.413,2.68,2.68,0,0,0,.984-1.143l1.371.29a3.9,3.9,0,0,1-1.477,1.854,4.028,4.028,0,0,1-2.294.677,4.174,4.174,0,0,1-3.111-1.2,4.479,4.479,0,0,1-1.187-3.287A4.458,4.458,0,0,1,68.183,9.4a4.122,4.122,0,0,1,3.063-1.2,3.9,3.9,0,0,1,2.9,1.107A4.376,4.376,0,0,1,75.245,12.509Zm-4-3.146a2.694,2.694,0,0,0-1.8.611,2.8,2.8,0,0,0-.91,1.78h5.177a2.567,2.567,0,0,0-.756-1.78A2.441,2.441,0,0,0,71.246,9.362Zm9.967,7.8a4.161,4.161,0,0,1-3.094-1.239A4.421,4.421,0,0,1,76.9,12.676a4.43,4.43,0,0,1,1.217-3.243,4.5,4.5,0,0,1,5.6-.483,3.815,3.815,0,0,1,1.455,2.1l-1.424.229a2.63,2.63,0,0,0-.976-1.345A2.656,2.656,0,0,0,81.2,9.459a2.554,2.554,0,0,0-2,.888,3.382,3.382,0,0,0-.787,2.329A3.365,3.365,0,0,0,79.2,15a2.56,2.56,0,0,0,2,.883,2.656,2.656,0,0,0,1.564-.475,2.63,2.63,0,0,0,.976-1.345l1.424.237A3.819,3.819,0,0,1,83.7,16.4,4.185,4.185,0,0,1,81.213,17.158ZM88.183,6.33A1.035,1.035,0,0,1,87.154,5.3a.975.975,0,0,1,.3-.721,1,1,0,0,1,.725-.3.987.987,0,0,1,.716.3.975.975,0,0,1,.3.721.989.989,0,0,1-.3.725A.979.979,0,0,1,88.183,6.33ZM87.409,17V8.36h1.529V17Zm8.262.167a4.554,4.554,0,0,1-2.215-.536,3.9,3.9,0,0,1-1.56-1.569,4.819,4.819,0,0,1-.576-2.386,4.4,4.4,0,0,1,1.226-3.256,4.6,4.6,0,0,1,6.253,0,4.41,4.41,0,0,1,1.222,3.256A4.413,4.413,0,0,1,98.8,15.941,4.232,4.232,0,0,1,95.671,17.167ZM95.662,15.9a2.654,2.654,0,0,0,2.043-.888,3.326,3.326,0,0,0,.813-2.338,3.314,3.314,0,0,0-.813-2.329,2.654,2.654,0,0,0-2.043-.888,2.617,2.617,0,0,0-2.026.888,3.336,3.336,0,0,0-.8,2.329,3.348,3.348,0,0,0,.8,2.338A2.617,2.617,0,0,0,95.662,15.9Zm12.938-.3h6.161V17h-8.35V15.849l4.957-5.124a5.872,5.872,0,0,0,1.116-1.468,2.928,2.928,0,0,0,.308-1.274,2.136,2.136,0,0,0-.624-1.639,2.548,2.548,0,0,0-3.309.053,2.741,2.741,0,0,0-.628,1.991V9.3L106.71,9.16V8.4a3.912,3.912,0,0,1,1.046-2.94,4.33,4.33,0,0,1,5.48-.075,3.27,3.27,0,0,1,1.05,2.566,3.892,3.892,0,0,1-.417,1.789,7.689,7.689,0,0,1-1.34,1.78Zm13.245-2.654V11.691h6.3v1.257Zm19.116-8.323a3.664,3.664,0,0,1,1.938.514,3.473,3.473,0,0,1,1.3,1.375,4.036,4.036,0,0,1,.453,1.907,3.755,3.755,0,0,1-1.024,2.694,3.514,3.514,0,0,1-2.667,1.077H137.85V17h-1.573V4.625Zm-.229,6.2a2.25,2.25,0,0,0,1.723-.664,2.455,2.455,0,0,0,.624-1.753,2.463,2.463,0,0,0-.624-1.745,2.234,2.234,0,0,0-1.723-.672H137.85v4.834Zm7.77-.94a2.612,2.612,0,0,1,1.072-1.16,3.229,3.229,0,0,1,1.661-.457V9.7a2.846,2.846,0,0,0-2.008.642,2.68,2.68,0,0,0-.69,2.048V17h-1.521V8.36H148.5Zm11.971,2.628-.018.413h-6.75a3.053,3.053,0,0,0,.826,2.21,2.713,2.713,0,0,0,1.969.769,2.59,2.59,0,0,0,1.433-.413,2.68,2.68,0,0,0,.984-1.143l1.371.29a3.9,3.9,0,0,1-1.477,1.854,4.028,4.028,0,0,1-2.294.677,4.174,4.174,0,0,1-3.111-1.2,4.479,4.479,0,0,1-1.187-3.287A4.458,4.458,0,0,1,153.411,9.4a4.122,4.122,0,0,1,3.063-1.2,3.9,3.9,0,0,1,2.9,1.107A4.376,4.376,0,0,1,160.473,12.509Zm-4-3.146a2.694,2.694,0,0,0-1.8.611,2.8,2.8,0,0,0-.91,1.78h5.177a2.567,2.567,0,0,0-.756-1.78A2.441,2.441,0,0,0,156.474,9.362Zm9.967,7.8a4.161,4.161,0,0,1-3.094-1.239,4.421,4.421,0,0,1-1.222-3.243,4.43,4.43,0,0,1,1.217-3.243,4.5,4.5,0,0,1,5.6-.483,3.815,3.815,0,0,1,1.455,2.1l-1.424.229A2.63,2.63,0,0,0,168,9.934a2.656,2.656,0,0,0-1.564-.475,2.554,2.554,0,0,0-2,.888,3.382,3.382,0,0,0-.787,2.329A3.365,3.365,0,0,0,164.432,15a2.56,2.56,0,0,0,2,.883A2.656,2.656,0,0,0,168,15.409a2.63,2.63,0,0,0,.976-1.345l1.424.237a3.819,3.819,0,0,1-1.463,2.1A4.185,4.185,0,0,1,166.44,17.158ZM173.41,6.33A1.035,1.035,0,0,1,172.382,5.3a.975.975,0,0,1,.3-.721,1,1,0,0,1,.725-.3.987.987,0,0,1,.716.3.975.975,0,0,1,.3.721.989.989,0,0,1-.3.725A.979.979,0,0,1,173.41,6.33ZM172.637,17V8.36h1.529V17Zm8.262.167a4.554,4.554,0,0,1-2.215-.536,3.9,3.9,0,0,1-1.56-1.569,4.819,4.819,0,0,1-.576-2.386,4.4,4.4,0,0,1,1.226-3.256,4.6,4.6,0,0,1,6.253,0,4.41,4.41,0,0,1,1.222,3.256,4.413,4.413,0,0,1-1.226,3.265A4.232,4.232,0,0,1,180.9,17.167ZM180.89,15.9a2.654,2.654,0,0,0,2.043-.888,3.326,3.326,0,0,0,.813-2.338,3.314,3.314,0,0,0-.813-2.329,2.654,2.654,0,0,0-2.043-.888,2.617,2.617,0,0,0-2.026.888,3.336,3.336,0,0,0-.8,2.329,3.348,3.348,0,0,0,.8,2.338A2.617,2.617,0,0,0,180.89,15.9ZM195.919,4.625h1.424V17h-1.5V6.286l-2.971,2.575V7.235Zm-97.572,30a3.664,3.664,0,0,1,1.938.514,3.473,3.473,0,0,1,1.3,1.375,4.036,4.036,0,0,1,.453,1.907,3.755,3.755,0,0,1-1.024,2.694,3.514,3.514,0,0,1-2.667,1.077H95.236V47H93.663V34.625Zm-.229,6.2a2.25,2.25,0,0,0,1.723-.664,2.763,2.763,0,0,0,0-3.5,2.234,2.234,0,0,0-1.723-.672H95.236v4.834Zm7.77-.94a2.612,2.612,0,0,1,1.072-1.16,3.229,3.229,0,0,1,1.661-.457V39.7a2.846,2.846,0,0,0-2.008.642,2.68,2.68,0,0,0-.69,2.048V47H104.4V38.36h1.485Zm11.971,2.628-.018.413h-6.75a3.053,3.053,0,0,0,.826,2.21,2.713,2.713,0,0,0,1.969.769,2.59,2.59,0,0,0,1.433-.413,2.68,2.68,0,0,0,.984-1.143l1.371.29A3.9,3.9,0,0,1,116.2,46.49a4.028,4.028,0,0,1-2.294.677,4.174,4.174,0,0,1-3.111-1.2,4.479,4.479,0,0,1-1.187-3.287A4.458,4.458,0,0,1,110.8,39.4a4.122,4.122,0,0,1,3.063-1.2,3.9,3.9,0,0,1,2.9,1.107A4.376,4.376,0,0,1,117.859,42.509Zm-4-3.146a2.694,2.694,0,0,0-1.8.611,2.8,2.8,0,0,0-.91,1.78h5.177a2.567,2.567,0,0,0-.756-1.78A2.441,2.441,0,0,0,113.86,39.362Zm9.967,7.8a4.161,4.161,0,0,1-3.094-1.239,4.922,4.922,0,0,1,0-6.486,4.5,4.5,0,0,1,5.6-.483,3.815,3.815,0,0,1,1.455,2.1l-1.424.229a2.63,2.63,0,0,0-.976-1.345,2.656,2.656,0,0,0-1.564-.475,2.554,2.554,0,0,0-2,.888,3.835,3.835,0,0,0,0,4.654,2.56,2.56,0,0,0,2,.883,2.656,2.656,0,0,0,1.564-.475,2.63,2.63,0,0,0,.976-1.345l1.424.237a3.819,3.819,0,0,1-1.463,2.1A4.185,4.185,0,0,1,123.827,47.158ZM130.8,36.33a1.035,1.035,0,0,1-1.028-1.028.975.975,0,0,1,.3-.721,1,1,0,0,1,.725-.3.987.987,0,0,1,.716.3.975.975,0,0,1,.3.721.989.989,0,0,1-.3.725A.979.979,0,0,1,130.8,36.33ZM130.023,47V38.36h1.529V47Zm8.262.167a4.554,4.554,0,0,1-2.215-.536,3.9,3.9,0,0,1-1.56-1.569,4.819,4.819,0,0,1-.576-2.386,4.4,4.4,0,0,1,1.226-3.256,4.6,4.6,0,0,1,6.253,0,4.956,4.956,0,0,1,0,6.521A4.232,4.232,0,0,1,138.285,47.167Zm-.009-1.266a2.654,2.654,0,0,0,2.043-.888,3.755,3.755,0,0,0,0-4.667,2.654,2.654,0,0,0-2.043-.888,2.617,2.617,0,0,0-2.026.888,3.788,3.788,0,0,0,0,4.667A2.617,2.617,0,0,0,138.276,45.9Zm15.029-11.276h1.424V47h-1.5V36.286l-2.971,2.575V37.235Z" transform="translate(332 7785)" fill="#00223d"/>
    <path id="Trazado_35325" data-name="Trazado 35325" d="M17.526,17l4.948-6.627L17.667,4.3h3.208l3.164,4.166L27.2,4.3h3.208L25.6,10.373,30.551,17H27.194l-3.155-4.491L20.883,17ZM40.509,4.3h2.408V17H40.4V6.9L37.477,9.617v-2.6ZM51.619,17.176A3.961,3.961,0,0,1,48.2,15.532a8.3,8.3,0,0,1-1.191-4.887A8.3,8.3,0,0,1,48.2,5.759a4.383,4.383,0,0,1,6.829,0,8.3,8.3,0,0,1,1.187,4.887,8.3,8.3,0,0,1-1.191,4.887A3.952,3.952,0,0,1,51.619,17.176Zm0-2.285a1.67,1.67,0,0,0,1.525-1.042,7.251,7.251,0,0,0,.541-3.2,7.2,7.2,0,0,0-.545-3.2A1.673,1.673,0,0,0,51.619,6.4q-2.074,0-2.074,4.245T51.619,14.891Zm10.749,2.285a3.961,3.961,0,0,1-3.415-1.644,8.3,8.3,0,0,1-1.191-4.887,8.3,8.3,0,0,1,1.187-4.887,4.383,4.383,0,0,1,6.829,0,8.3,8.3,0,0,1,1.187,4.887,8.3,8.3,0,0,1-1.191,4.887A3.952,3.952,0,0,1,62.368,17.176Zm0-2.285a1.67,1.67,0,0,0,1.525-1.042,7.251,7.251,0,0,0,.541-3.2,7.2,7.2,0,0,0-.545-3.2A1.673,1.673,0,0,0,62.368,6.4q-2.074,0-2.074,4.245T62.368,14.891Z" transform="translate(582 7801)" fill="#00223d"/>
    <path id="Trazado_35327" data-name="Trazado 35327" d="M7.269,17.176A7.089,7.089,0,0,1,4.68,16.71a6.087,6.087,0,0,1-2.061-1.3,5.864,5.864,0,0,1-1.354-2.065,7.2,7.2,0,0,1-.492-2.7A6.879,6.879,0,0,1,1.617,7.2,5.744,5.744,0,0,1,3.933,4.915a6.935,6.935,0,0,1,3.335-.791A6.739,6.739,0,0,1,11,5.152a5.629,5.629,0,0,1,2.276,2.83l-2.461.9A3.479,3.479,0,0,0,9.448,7.165a3.891,3.891,0,0,0-2.18-.615A3.73,3.73,0,0,0,4.491,7.657,4.075,4.075,0,0,0,3.4,10.646,4.081,4.081,0,0,0,4.5,13.638,3.726,3.726,0,0,0,7.269,14.75a3.876,3.876,0,0,0,2.175-.62,3.5,3.5,0,0,0,1.367-1.718l2.461.9A5.652,5.652,0,0,1,11,16.143,6.718,6.718,0,0,1,7.269,17.176ZM20.716,4.3a3.822,3.822,0,0,1,2.927,1.182A4.112,4.112,0,0,1,24.75,8.4a4.011,4.011,0,0,1-1.1,2.9,3.891,3.891,0,0,1-2.936,1.138H18.07V17H15.434V4.3Zm-.439,5.941a1.938,1.938,0,0,0,1.45-.5,1.888,1.888,0,0,0,.483-1.375,1.873,1.873,0,0,0-.488-1.358,1.92,1.92,0,0,0-1.446-.505H18.07v3.735ZM32.247,4.3a3.822,3.822,0,0,1,2.927,1.182A4.112,4.112,0,0,1,36.281,8.4a4.011,4.011,0,0,1-1.1,2.9,3.891,3.891,0,0,1-2.936,1.138H29.6V17H26.965V4.3Zm-.439,5.941a1.938,1.938,0,0,0,1.45-.5,1.888,1.888,0,0,0,.483-1.375,1.873,1.873,0,0,0-.488-1.358,1.92,1.92,0,0,0-1.446-.505H29.6v3.735Zm7.831,1.178a1.379,1.379,0,0,1-1.015-.431A1.411,1.411,0,0,1,38.2,9.96a1.456,1.456,0,0,1,1.441-1.441,1.411,1.411,0,0,1,1.028.426A1.379,1.379,0,0,1,41.1,9.96a1.471,1.471,0,0,1-1.459,1.459Zm0,5.757A1.456,1.456,0,0,1,38.2,15.734a1.411,1.411,0,0,1,.426-1.028,1.379,1.379,0,0,1,1.015-.431A1.471,1.471,0,0,1,41.1,15.734a1.379,1.379,0,0,1-.431,1.015A1.411,1.411,0,0,1,39.639,17.176Z" transform="translate(266 7917)" fill="#00223d"/>
    <path id="Trazado_35328" data-name="Trazado 35328" d="M0,0H244" transform="translate(341.5 7930.5)" fill="none" stroke="#707070" stroke-width="1"/>
    <path id="Trazado_35329" data-name="Trazado 35329" d="M67.915,13.643a3.482,3.482,0,0,1-.316,1.516,2.866,2.866,0,0,1-.883,1.085,4.319,4.319,0,0,1-1.292.65,6.34,6.34,0,0,1-1.586.272v1.125h-.826V17.167A5.154,5.154,0,0,1,60.15,16.2,3.7,3.7,0,0,1,58.7,13.9l1.6-.387a2.6,2.6,0,0,0,.932,1.564,3.345,3.345,0,0,0,1.784.712V11.3l-.088-.026q-.51-.141-.831-.237t-.773-.268a4.781,4.781,0,0,1-.734-.338,5.472,5.472,0,0,1-.6-.422,2.129,2.129,0,0,1-.5-.549,2.915,2.915,0,0,1-.3-.694,3.064,3.064,0,0,1-.119-.875,3.34,3.34,0,0,1,.316-1.472,2.9,2.9,0,0,1,.861-1.068,4.181,4.181,0,0,1,1.252-.642,5.282,5.282,0,0,1,1.516-.246V3.3h.826v1.2a5.107,5.107,0,0,1,2.54.888,3.363,3.363,0,0,1,1.345,2.083l-1.521.4a2.389,2.389,0,0,0-.826-1.371,3.053,3.053,0,0,0-1.538-.624v4.219q.4.105.659.18t.637.2a5.953,5.953,0,0,1,.633.237q.25.114.571.286a2.835,2.835,0,0,1,.523.347,4.765,4.765,0,0,1,.422.422,2.109,2.109,0,0,1,.347.523,3.181,3.181,0,0,1,.207.624A3.337,3.337,0,0,1,67.915,13.643ZM60.646,7.877a1.546,1.546,0,0,0,.176.747,1.53,1.53,0,0,0,.527.554,4.108,4.108,0,0,0,.729.378q.378.149.932.308V5.829a3,3,0,0,0-1.683.563A1.741,1.741,0,0,0,60.646,7.877Zm3.19,7.928a3.263,3.263,0,0,0,1.8-.589,1.756,1.756,0,0,0,.668-1.529,1.79,1.79,0,0,0-.193-.809,1.662,1.662,0,0,0-.554-.6,4.427,4.427,0,0,0-.765-.417,9.313,9.313,0,0,0-.958-.334Zm15.258-2.689v1.4H77.188V17H75.667V14.513H69.743V13.106l5.15-8.481h2.294v8.49Zm-7.778,0h4.351V5.741Zm11.039,4.061a.987.987,0,0,1-.716-.3,1.022,1.022,0,0,1,.716-1.74.994.994,0,0,1,.721.3,1,1,0,0,1,0,1.437A1,1,0,0,1,82.355,17.176Zm12.252-4.3a4.176,4.176,0,0,1-.562,2.224,3.974,3.974,0,0,1-1.556,1.512,4.437,4.437,0,0,1-2.145.527,4.32,4.32,0,0,1-3.076-1.165,3.934,3.934,0,0,1-1.239-3A4.873,4.873,0,0,1,87.1,10l4.14-5.379h1.793L89.6,8.958a3.853,3.853,0,0,1,1.072-.149,3.933,3.933,0,0,1,1.9.475,3.8,3.8,0,0,1,1.45,1.419A4.242,4.242,0,0,1,94.607,12.878Zm-4.3,2.848a2.688,2.688,0,0,0,2.813-2.874A2.719,2.719,0,0,0,90.283,10a2.66,2.66,0,0,0-2.021.848,2.842,2.842,0,0,0-.782,2.07,2.739,2.739,0,0,0,.8,2.065A2.834,2.834,0,0,0,90.31,15.726Zm10.16,1.441a3.447,3.447,0,0,1-3.05-1.617A8.623,8.623,0,0,1,96.348,10.8a8.662,8.662,0,0,1,1.059-4.737,3.705,3.705,0,0,1,6.113,0,8.637,8.637,0,0,1,1.063,4.733,8.6,8.6,0,0,1-1.077,4.742A3.44,3.44,0,0,1,100.47,17.167Zm0-1.406a2.093,2.093,0,0,0,1.925-1.239,8.08,8.08,0,0,0,.668-3.718,7.851,7.851,0,0,0-.681-3.713,2.115,2.115,0,0,0-3.828,0,7.891,7.891,0,0,0-.677,3.718,8.122,8.122,0,0,0,.664,3.722A2.091,2.091,0,0,0,100.47,15.761ZM110.6,17.167a3.447,3.447,0,0,1-3.05-1.617,8.623,8.623,0,0,1-1.072-4.746,8.662,8.662,0,0,1,1.059-4.737,3.705,3.705,0,0,1,6.113,0,8.637,8.637,0,0,1,1.063,4.733,8.6,8.6,0,0,1-1.077,4.742A3.44,3.44,0,0,1,110.6,17.167Zm0-1.406a2.093,2.093,0,0,0,1.925-1.239A8.08,8.08,0,0,0,113.2,10.8a7.851,7.851,0,0,0-.681-3.713,2.115,2.115,0,0,0-3.828,0,7.891,7.891,0,0,0-.677,3.718,8.122,8.122,0,0,0,.664,3.722A2.091,2.091,0,0,0,110.6,15.761Zm11.241-2.812V11.691h6.3v1.257Zm23.045.694a3.482,3.482,0,0,1-.316,1.516,2.866,2.866,0,0,1-.883,1.085,4.319,4.319,0,0,1-1.292.65,6.34,6.34,0,0,1-1.586.272v1.125h-.826V17.167a5.154,5.154,0,0,1-2.861-.967,3.7,3.7,0,0,1-1.455-2.3l1.6-.387a2.6,2.6,0,0,0,.932,1.564,3.345,3.345,0,0,0,1.784.712V11.3l-.088-.026q-.51-.141-.831-.237t-.773-.268a4.781,4.781,0,0,1-.734-.338,5.472,5.472,0,0,1-.6-.422,2.129,2.129,0,0,1-.5-.549,2.915,2.915,0,0,1-.3-.694,3.064,3.064,0,0,1-.119-.875,3.34,3.34,0,0,1,.316-1.472,2.9,2.9,0,0,1,.861-1.068,4.181,4.181,0,0,1,1.252-.642,5.282,5.282,0,0,1,1.516-.246V3.3h.826v1.2a5.107,5.107,0,0,1,2.54.888A3.363,3.363,0,0,1,144.7,7.464l-1.521.4a2.389,2.389,0,0,0-.826-1.371,3.053,3.053,0,0,0-1.538-.624v4.219q.4.105.659.18t.637.2a5.953,5.953,0,0,1,.633.237q.25.114.571.286a2.835,2.835,0,0,1,.523.347,4.765,4.765,0,0,1,.422.422,2.109,2.109,0,0,1,.347.523,3.181,3.181,0,0,1,.207.624A3.337,3.337,0,0,1,144.89,13.643Zm-7.269-5.766a1.546,1.546,0,0,0,.176.747,1.53,1.53,0,0,0,.527.554,4.108,4.108,0,0,0,.729.378q.378.149.932.308V5.829a3,3,0,0,0-1.683.563A1.741,1.741,0,0,0,137.621,7.877Zm3.19,7.928a3.263,3.263,0,0,0,1.8-.589,1.756,1.756,0,0,0,.668-1.529,1.79,1.79,0,0,0-.193-.809,1.662,1.662,0,0,0-.554-.6,4.427,4.427,0,0,0-.765-.417,9.313,9.313,0,0,0-.958-.334Zm15.258-2.689v1.4h-1.907V17h-1.521V14.513h-5.924V13.106l5.15-8.481h2.294v8.49Zm-7.778,0h4.351V5.741Zm11.039,4.061a.987.987,0,0,1-.716-.3,1.022,1.022,0,0,1,.716-1.74.994.994,0,0,1,.721.3,1,1,0,0,1,0,1.437A1,1,0,0,1,159.33,17.176ZM167.4,4.625h1.424V17h-1.5V6.286l-2.971,2.575V7.235Zm10.046,12.542a3.447,3.447,0,0,1-3.05-1.617,8.623,8.623,0,0,1-1.072-4.746,8.662,8.662,0,0,1,1.059-4.737,3.705,3.705,0,0,1,6.113,0,8.637,8.637,0,0,1,1.063,4.733,8.6,8.6,0,0,1-1.077,4.742A3.44,3.44,0,0,1,177.444,17.167Zm0-1.406a2.093,2.093,0,0,0,1.925-1.239,8.08,8.08,0,0,0,.668-3.718,7.851,7.851,0,0,0-.681-3.713,2.115,2.115,0,0,0-3.828,0,7.891,7.891,0,0,0-.677,3.718,8.122,8.122,0,0,0,.664,3.722A2.091,2.091,0,0,0,177.444,15.761Zm10.134,1.406a3.447,3.447,0,0,1-3.05-1.617,8.623,8.623,0,0,1-1.072-4.746,8.662,8.662,0,0,1,1.059-4.737,3.705,3.705,0,0,1,6.113,0,8.637,8.637,0,0,1,1.063,4.733,8.6,8.6,0,0,1-1.077,4.742A3.44,3.44,0,0,1,187.578,17.167Zm0-1.406a2.093,2.093,0,0,0,1.925-1.239,8.08,8.08,0,0,0,.668-3.718,7.851,7.851,0,0,0-.681-3.713,2.115,2.115,0,0,0-3.828,0,7.891,7.891,0,0,0-.677,3.718,8.122,8.122,0,0,0,.664,3.722A2.091,2.091,0,0,0,187.578,15.761ZM106.4,43.643a3.482,3.482,0,0,1-.316,1.516,2.866,2.866,0,0,1-.883,1.085,4.319,4.319,0,0,1-1.292.65,6.34,6.34,0,0,1-1.586.272v1.125H101.5V47.167a5.154,5.154,0,0,1-2.861-.967,3.7,3.7,0,0,1-1.455-2.3l1.6-.387a2.6,2.6,0,0,0,.932,1.564,3.345,3.345,0,0,0,1.784.712V41.3l-.088-.026q-.51-.141-.831-.237t-.773-.268a4.781,4.781,0,0,1-.734-.338,5.472,5.472,0,0,1-.6-.422,2.129,2.129,0,0,1-.5-.549,2.915,2.915,0,0,1-.3-.694,3.064,3.064,0,0,1-.119-.875,3.34,3.34,0,0,1,.316-1.472,2.9,2.9,0,0,1,.861-1.068,4.181,4.181,0,0,1,1.252-.642,5.282,5.282,0,0,1,1.516-.246V33.3h.826v1.2a5.107,5.107,0,0,1,2.54.888,3.363,3.363,0,0,1,1.345,2.083l-1.521.4a2.389,2.389,0,0,0-.826-1.371,3.053,3.053,0,0,0-1.538-.624v4.219q.4.105.659.18t.637.2a5.953,5.953,0,0,1,.633.237q.25.114.571.286a2.835,2.835,0,0,1,.523.347,4.765,4.765,0,0,1,.422.422,2.109,2.109,0,0,1,.347.523,3.181,3.181,0,0,1,.207.624A3.337,3.337,0,0,1,106.4,43.643Zm-7.269-5.766a1.546,1.546,0,0,0,.176.747,1.53,1.53,0,0,0,.527.554,4.108,4.108,0,0,0,.729.378q.378.149.932.308V35.829a3,3,0,0,0-1.683.563A1.741,1.741,0,0,0,99.134,37.877Zm3.19,7.928a3.263,3.263,0,0,0,1.8-.589,1.756,1.756,0,0,0,.668-1.529,1.79,1.79,0,0,0-.193-.809,1.662,1.662,0,0,0-.554-.6,4.427,4.427,0,0,0-.765-.417,9.313,9.313,0,0,0-.958-.334Zm15.258-2.689v1.4h-1.907V47h-1.521V44.513H108.23V43.106l5.15-8.481h2.294v8.49Zm-7.778,0h4.351V35.741Zm11.039,4.061a.987.987,0,0,1-.716-.3,1.022,1.022,0,0,1,.716-1.74.994.994,0,0,1,.721.3,1,1,0,0,1,0,1.437A1,1,0,0,1,120.843,47.176Zm8.068-12.551h1.424V47h-1.5V36.286l-2.971,2.575V37.235Zm10.046,12.542a3.447,3.447,0,0,1-3.05-1.617,8.623,8.623,0,0,1-1.072-4.746,8.662,8.662,0,0,1,1.059-4.737,3.705,3.705,0,0,1,6.113,0A8.637,8.637,0,0,1,143.07,40.8a8.6,8.6,0,0,1-1.077,4.742A3.44,3.44,0,0,1,138.957,47.167Zm0-1.406a2.093,2.093,0,0,0,1.925-1.239,8.08,8.08,0,0,0,.668-3.718,7.851,7.851,0,0,0-.681-3.713,2.115,2.115,0,0,0-3.828,0,7.891,7.891,0,0,0-.677,3.718,8.122,8.122,0,0,0,.664,3.722A2.091,2.091,0,0,0,138.957,45.761Zm10.134,1.406a3.447,3.447,0,0,1-3.05-1.617,8.623,8.623,0,0,1-1.072-4.746,8.662,8.662,0,0,1,1.059-4.737,3.705,3.705,0,0,1,6.113,0A8.637,8.637,0,0,1,153.2,40.8a8.6,8.6,0,0,1-1.077,4.742A3.44,3.44,0,0,1,149.091,47.167Zm0-1.406a2.093,2.093,0,0,0,1.925-1.239,8.08,8.08,0,0,0,.668-3.718A7.851,7.851,0,0,0,151,37.09a2.115,2.115,0,0,0-3.828,0A7.891,7.891,0,0,0,146.5,40.8a8.122,8.122,0,0,0,.664,3.722A2.091,2.091,0,0,0,149.091,45.761Z" transform="translate(336 7902)" fill="#00223d"/>
    <path id="Trazado_35330" data-name="Trazado 35330" d="M17.526,17l4.948-6.627L17.667,4.3h3.208l3.164,4.166L27.2,4.3h3.208L25.6,10.373,30.551,17H27.194l-3.155-4.491L20.883,17ZM40.509,4.3h2.408V17H40.4V6.9L37.477,9.617v-2.6ZM51.619,17.176A3.961,3.961,0,0,1,48.2,15.532a8.3,8.3,0,0,1-1.191-4.887A8.3,8.3,0,0,1,48.2,5.759a4.383,4.383,0,0,1,6.829,0,8.3,8.3,0,0,1,1.187,4.887,8.3,8.3,0,0,1-1.191,4.887A3.952,3.952,0,0,1,51.619,17.176Zm0-2.285a1.67,1.67,0,0,0,1.525-1.042,7.251,7.251,0,0,0,.541-3.2,7.2,7.2,0,0,0-.545-3.2A1.673,1.673,0,0,0,51.619,6.4q-2.074,0-2.074,4.245T51.619,14.891Zm10.749,2.285a3.961,3.961,0,0,1-3.415-1.644,8.3,8.3,0,0,1-1.191-4.887,8.3,8.3,0,0,1,1.187-4.887,4.383,4.383,0,0,1,6.829,0,8.3,8.3,0,0,1,1.187,4.887,8.3,8.3,0,0,1-1.191,4.887A3.952,3.952,0,0,1,62.368,17.176Zm0-2.285a1.67,1.67,0,0,0,1.525-1.042,7.251,7.251,0,0,0,.541-3.2,7.2,7.2,0,0,0-.545-3.2A1.673,1.673,0,0,0,62.368,6.4q-2.074,0-2.074,4.245T62.368,14.891Z" transform="translate(586 7918)" fill="#00223d"/>
    <path id="Trazado_35332" data-name="Trazado 35332" d="M7.269,17.176A7.089,7.089,0,0,1,4.68,16.71a6.087,6.087,0,0,1-2.061-1.3,5.864,5.864,0,0,1-1.354-2.065,7.2,7.2,0,0,1-.492-2.7A6.879,6.879,0,0,1,1.617,7.2,5.744,5.744,0,0,1,3.933,4.915a6.935,6.935,0,0,1,3.335-.791A6.739,6.739,0,0,1,11,5.152a5.629,5.629,0,0,1,2.276,2.83l-2.461.9A3.479,3.479,0,0,0,9.448,7.165a3.891,3.891,0,0,0-2.18-.615A3.73,3.73,0,0,0,4.491,7.657,4.075,4.075,0,0,0,3.4,10.646,4.081,4.081,0,0,0,4.5,13.638,3.726,3.726,0,0,0,7.269,14.75a3.876,3.876,0,0,0,2.175-.62,3.5,3.5,0,0,0,1.367-1.718l2.461.9A5.652,5.652,0,0,1,11,16.143,6.718,6.718,0,0,1,7.269,17.176ZM20.716,4.3a3.822,3.822,0,0,1,2.927,1.182A4.112,4.112,0,0,1,24.75,8.4a4.011,4.011,0,0,1-1.1,2.9,3.891,3.891,0,0,1-2.936,1.138H18.07V17H15.434V4.3Zm-.439,5.941a1.938,1.938,0,0,0,1.45-.5,1.888,1.888,0,0,0,.483-1.375,1.873,1.873,0,0,0-.488-1.358,1.92,1.92,0,0,0-1.446-.505H18.07v3.735ZM32.247,4.3a3.822,3.822,0,0,1,2.927,1.182A4.112,4.112,0,0,1,36.281,8.4a4.011,4.011,0,0,1-1.1,2.9,3.891,3.891,0,0,1-2.936,1.138H29.6V17H26.965V4.3Zm-.439,5.941a1.938,1.938,0,0,0,1.45-.5,1.888,1.888,0,0,0,.483-1.375,1.873,1.873,0,0,0-.488-1.358,1.92,1.92,0,0,0-1.446-.505H29.6v3.735Zm7.831,1.178a1.379,1.379,0,0,1-1.015-.431A1.411,1.411,0,0,1,38.2,9.96a1.456,1.456,0,0,1,1.441-1.441,1.411,1.411,0,0,1,1.028.426A1.379,1.379,0,0,1,41.1,9.96a1.471,1.471,0,0,1-1.459,1.459Zm0,5.757A1.456,1.456,0,0,1,38.2,15.734a1.411,1.411,0,0,1,.426-1.028,1.379,1.379,0,0,1,1.015-.431A1.471,1.471,0,0,1,41.1,15.734a1.379,1.379,0,0,1-.431,1.015A1.411,1.411,0,0,1,39.639,17.176Z" transform="translate(266 8034)" fill="#00223d"/>
    <path id="Trazado_35335" data-name="Trazado 35335" d="M0,0H145" transform="translate(341.5 8050.5)" fill="none" stroke="#707070" stroke-width="1"/>
    <path id="Trazado_35333" data-name="Trazado 35333" d="M61.865,13.643a3.482,3.482,0,0,1-.316,1.516,2.866,2.866,0,0,1-.883,1.085,4.319,4.319,0,0,1-1.292.65,6.34,6.34,0,0,1-1.586.272v1.125h-.826V17.167A5.154,5.154,0,0,1,54.1,16.2a3.7,3.7,0,0,1-1.455-2.3l1.6-.387a2.6,2.6,0,0,0,.932,1.564,3.345,3.345,0,0,0,1.784.712V11.3l-.088-.026q-.51-.141-.831-.237t-.773-.268a4.781,4.781,0,0,1-.734-.338,5.472,5.472,0,0,1-.6-.422,2.129,2.129,0,0,1-.5-.549,2.915,2.915,0,0,1-.3-.694,3.064,3.064,0,0,1-.119-.875,3.34,3.34,0,0,1,.316-1.472,2.9,2.9,0,0,1,.861-1.068,4.181,4.181,0,0,1,1.252-.642,5.282,5.282,0,0,1,1.516-.246V3.3h.826v1.2a5.107,5.107,0,0,1,2.54.888,3.363,3.363,0,0,1,1.345,2.083l-1.521.4a2.389,2.389,0,0,0-.826-1.371,3.053,3.053,0,0,0-1.538-.624v4.219q.4.105.659.18t.637.2a5.953,5.953,0,0,1,.633.237q.25.114.571.286a2.835,2.835,0,0,1,.523.347,4.765,4.765,0,0,1,.422.422,2.109,2.109,0,0,1,.347.523,3.181,3.181,0,0,1,.207.624A3.337,3.337,0,0,1,61.865,13.643ZM54.6,7.877a1.546,1.546,0,0,0,.176.747,1.53,1.53,0,0,0,.527.554,4.108,4.108,0,0,0,.729.378q.378.149.932.308V5.829a3,3,0,0,0-1.683.563A1.741,1.741,0,0,0,54.6,7.877Zm3.19,7.928a3.263,3.263,0,0,0,1.8-.589,1.756,1.756,0,0,0,.668-1.529,1.79,1.79,0,0,0-.193-.809,1.662,1.662,0,0,0-.554-.6,4.427,4.427,0,0,0-.765-.417,9.313,9.313,0,0,0-.958-.334ZM68.07,9.037a4.8,4.8,0,0,1,3.375,1.042,3.778,3.778,0,0,1,1.116,2.9,4.107,4.107,0,0,1-1.147,3.01,4.026,4.026,0,0,1-3,1.165,4.769,4.769,0,0,1-1.551-.25,4.19,4.19,0,0,1-1.31-.721,3.3,3.3,0,0,1-.914-1.217A4,4,0,0,1,64.3,13.3a5.645,5.645,0,0,1,.044-.633l1.556-.132a6.186,6.186,0,0,0-.07.694,2.794,2.794,0,0,0,.224,1.151,1.968,1.968,0,0,0,.6.787,2.738,2.738,0,0,0,.813.426,2.968,2.968,0,0,0,.918.141,2.538,2.538,0,0,0,1.92-.756,2.69,2.69,0,0,0,.725-1.942,2.559,2.559,0,0,0-.751-1.951,3.368,3.368,0,0,0-2.377-.712H64.774l.765-5.73h6.486V6.058h-5.2l-.4,2.979Zm10.424,8.13a3.447,3.447,0,0,1-3.05-1.617A8.623,8.623,0,0,1,74.372,10.8a8.662,8.662,0,0,1,1.059-4.737,3.705,3.705,0,0,1,6.113,0A8.637,8.637,0,0,1,82.607,10.8a8.6,8.6,0,0,1-1.077,4.742A3.44,3.44,0,0,1,78.494,17.167Zm0-1.406a2.093,2.093,0,0,0,1.925-1.239,8.08,8.08,0,0,0,.668-3.718,7.851,7.851,0,0,0-.681-3.713,2.115,2.115,0,0,0-3.828,0A7.891,7.891,0,0,0,75.9,10.8a8.122,8.122,0,0,0,.664,3.722A2.091,2.091,0,0,0,78.494,15.761Zm10.134,1.406a3.447,3.447,0,0,1-3.05-1.617A8.623,8.623,0,0,1,84.506,10.8a8.662,8.662,0,0,1,1.059-4.737,3.705,3.705,0,0,1,6.113,0A8.637,8.637,0,0,1,92.741,10.8a8.6,8.6,0,0,1-1.077,4.742A3.44,3.44,0,0,1,88.628,17.167Zm0-1.406a2.093,2.093,0,0,0,1.925-1.239,8.08,8.08,0,0,0,.668-3.718A7.851,7.851,0,0,0,90.54,7.09a2.115,2.115,0,0,0-3.828,0,7.891,7.891,0,0,0-.677,3.718,8.122,8.122,0,0,0,.664,3.722A2.091,2.091,0,0,0,88.628,15.761ZM53.9,43.643a3.482,3.482,0,0,1-.316,1.516,2.866,2.866,0,0,1-.883,1.085,4.319,4.319,0,0,1-1.292.65,6.34,6.34,0,0,1-1.586.272v1.125H49V47.167a5.154,5.154,0,0,1-2.861-.967,3.7,3.7,0,0,1-1.455-2.3l1.6-.387a2.6,2.6,0,0,0,.932,1.564A3.345,3.345,0,0,0,49,45.787V41.3l-.088-.026q-.51-.141-.831-.237t-.773-.268a4.781,4.781,0,0,1-.734-.338,5.472,5.472,0,0,1-.6-.422,2.129,2.129,0,0,1-.5-.549,2.915,2.915,0,0,1-.3-.694,3.064,3.064,0,0,1-.119-.875,3.34,3.34,0,0,1,.316-1.472,2.9,2.9,0,0,1,.861-1.068,4.181,4.181,0,0,1,1.252-.642A5.282,5.282,0,0,1,49,34.467V33.3h.826v1.2a5.107,5.107,0,0,1,2.54.888,3.363,3.363,0,0,1,1.345,2.083l-1.521.4a2.389,2.389,0,0,0-.826-1.371,3.053,3.053,0,0,0-1.538-.624v4.219q.4.105.659.18t.637.2a5.953,5.953,0,0,1,.633.237q.25.114.571.286a2.835,2.835,0,0,1,.523.347,4.765,4.765,0,0,1,.422.422,2.109,2.109,0,0,1,.347.523,3.181,3.181,0,0,1,.207.624A3.337,3.337,0,0,1,53.9,43.643Zm-7.269-5.766a1.546,1.546,0,0,0,.176.747,1.53,1.53,0,0,0,.527.554,4.108,4.108,0,0,0,.729.378q.378.149.932.308V35.829a3,3,0,0,0-1.683.563A1.741,1.741,0,0,0,46.634,37.877Zm3.19,7.928a3.263,3.263,0,0,0,1.8-.589,1.756,1.756,0,0,0,.668-1.529,1.79,1.79,0,0,0-.193-.809,1.662,1.662,0,0,0-.554-.6,4.427,4.427,0,0,0-.765-.417,9.313,9.313,0,0,0-.958-.334Zm15.258-2.689v1.4H63.175V47H61.654V44.513H55.73V43.106l5.15-8.481h2.294v8.49Zm-7.778,0h4.351V35.741Zm11.039,4.061a.987.987,0,0,1-.716-.3,1.022,1.022,0,0,1,.716-1.74.994.994,0,0,1,.721.3,1,1,0,0,1,0,1.437A1,1,0,0,1,68.343,47.176Zm8.068-12.551h1.424V47h-1.5V36.286l-2.971,2.575V37.235ZM86.457,47.167a3.447,3.447,0,0,1-3.05-1.617A8.623,8.623,0,0,1,82.335,40.8a8.662,8.662,0,0,1,1.059-4.737,3.705,3.705,0,0,1,6.113,0A8.637,8.637,0,0,1,90.57,40.8a8.6,8.6,0,0,1-1.077,4.742A3.44,3.44,0,0,1,86.457,47.167Zm0-1.406a2.093,2.093,0,0,0,1.925-1.239A8.08,8.08,0,0,0,89.05,40.8a7.851,7.851,0,0,0-.681-3.713,2.115,2.115,0,0,0-3.828,0,7.891,7.891,0,0,0-.677,3.718,8.122,8.122,0,0,0,.664,3.722A2.091,2.091,0,0,0,86.457,45.761Zm10.134,1.406a3.447,3.447,0,0,1-3.05-1.617A8.623,8.623,0,0,1,92.469,40.8a8.662,8.662,0,0,1,1.059-4.737,3.705,3.705,0,0,1,6.113,0A8.637,8.637,0,0,1,100.7,40.8a8.6,8.6,0,0,1-1.077,4.742A3.44,3.44,0,0,1,96.591,47.167Zm0-1.406a2.093,2.093,0,0,0,1.925-1.239,8.08,8.08,0,0,0,.668-3.718A7.851,7.851,0,0,0,98.5,37.09a2.115,2.115,0,0,0-3.828,0A7.891,7.891,0,0,0,94,40.8a8.122,8.122,0,0,0,.664,3.722A2.091,2.091,0,0,0,96.591,45.761Z" transform="translate(341 8024)" fill="#00223d"/>
    <path id="Trazado_35334" data-name="Trazado 35334" d="M17.526,17l4.948-6.627L17.667,4.3h3.208l3.164,4.166L27.2,4.3h3.208L25.6,10.373,30.551,17H27.194l-3.155-4.491L20.883,17ZM40.509,4.3h2.408V17H40.4V6.9L37.477,9.617v-2.6ZM51.619,17.176A3.961,3.961,0,0,1,48.2,15.532a8.3,8.3,0,0,1-1.191-4.887A8.3,8.3,0,0,1,48.2,5.759a4.383,4.383,0,0,1,6.829,0,8.3,8.3,0,0,1,1.187,4.887,8.3,8.3,0,0,1-1.191,4.887A3.952,3.952,0,0,1,51.619,17.176Zm0-2.285a1.67,1.67,0,0,0,1.525-1.042,7.251,7.251,0,0,0,.541-3.2,7.2,7.2,0,0,0-.545-3.2A1.673,1.673,0,0,0,51.619,6.4q-2.074,0-2.074,4.245T51.619,14.891Zm10.749,2.285a3.961,3.961,0,0,1-3.415-1.644,8.3,8.3,0,0,1-1.191-4.887,8.3,8.3,0,0,1,1.187-4.887,4.383,4.383,0,0,1,6.829,0,8.3,8.3,0,0,1,1.187,4.887,8.3,8.3,0,0,1-1.191,4.887A3.952,3.952,0,0,1,62.368,17.176Zm0-2.285a1.67,1.67,0,0,0,1.525-1.042,7.251,7.251,0,0,0,.541-3.2,7.2,7.2,0,0,0-.545-3.2A1.673,1.673,0,0,0,62.368,6.4q-2.074,0-2.074,4.245T62.368,14.891Z" transform="translate(478 8038)" fill="#00223d"/>
    <path id="Trazado_35337" data-name="Trazado 35337" d="M7.269,17.176A7.089,7.089,0,0,1,4.68,16.71a6.087,6.087,0,0,1-2.061-1.3,5.864,5.864,0,0,1-1.354-2.065,7.2,7.2,0,0,1-.492-2.7A6.879,6.879,0,0,1,1.617,7.2,5.744,5.744,0,0,1,3.933,4.915a6.935,6.935,0,0,1,3.335-.791A6.739,6.739,0,0,1,11,5.152a5.629,5.629,0,0,1,2.276,2.83l-2.461.9A3.479,3.479,0,0,0,9.448,7.165a3.891,3.891,0,0,0-2.18-.615A3.73,3.73,0,0,0,4.491,7.657,4.075,4.075,0,0,0,3.4,10.646,4.081,4.081,0,0,0,4.5,13.638,3.726,3.726,0,0,0,7.269,14.75a3.876,3.876,0,0,0,2.175-.62,3.5,3.5,0,0,0,1.367-1.718l2.461.9A5.652,5.652,0,0,1,11,16.143,6.718,6.718,0,0,1,7.269,17.176ZM20.716,4.3a3.822,3.822,0,0,1,2.927,1.182A4.112,4.112,0,0,1,24.75,8.4a4.011,4.011,0,0,1-1.1,2.9,3.891,3.891,0,0,1-2.936,1.138H18.07V17H15.434V4.3Zm-.439,5.941a1.938,1.938,0,0,0,1.45-.5,1.888,1.888,0,0,0,.483-1.375,1.873,1.873,0,0,0-.488-1.358,1.92,1.92,0,0,0-1.446-.505H18.07v3.735ZM32.247,4.3a3.822,3.822,0,0,1,2.927,1.182A4.112,4.112,0,0,1,36.281,8.4a4.011,4.011,0,0,1-1.1,2.9,3.891,3.891,0,0,1-2.936,1.138H29.6V17H26.965V4.3Zm-.439,5.941a1.938,1.938,0,0,0,1.45-.5,1.888,1.888,0,0,0,.483-1.375,1.873,1.873,0,0,0-.488-1.358,1.92,1.92,0,0,0-1.446-.505H29.6v3.735Zm7.831,1.178a1.379,1.379,0,0,1-1.015-.431A1.411,1.411,0,0,1,38.2,9.96a1.456,1.456,0,0,1,1.441-1.441,1.411,1.411,0,0,1,1.028.426A1.379,1.379,0,0,1,41.1,9.96a1.471,1.471,0,0,1-1.459,1.459Zm0,5.757A1.456,1.456,0,0,1,38.2,15.734a1.411,1.411,0,0,1,.426-1.028,1.379,1.379,0,0,1,1.015-.431A1.471,1.471,0,0,1,41.1,15.734a1.379,1.379,0,0,1-.431,1.015A1.411,1.411,0,0,1,39.639,17.176Z" transform="translate(266 8161)" fill="#00223d"/>
    <path id="Trazado_35338" data-name="Trazado 35338" d="M17.1,15.2V11.806H13.7V9.881H17.1V6.5h1.916V9.881H22.4v1.925H19.011V15.2ZM28.328,4.3h2.408V17H28.213V6.9L25.3,9.617v-2.6ZM38.47,14.741h5.414V17H34.928V15.093l5.054-5.159a3.18,3.18,0,0,0,1.1-2.188,1.548,1.548,0,0,0-.453-1.178,1.782,1.782,0,0,0-1.279-.431q-1.8,0-1.8,2.048v.94L35.025,8.87V8.237a3.961,3.961,0,0,1,1.16-3.054,4.443,4.443,0,0,1,3.146-1.077,4.655,4.655,0,0,1,3.063.976,3.288,3.288,0,0,1,1.182,2.681,3.8,3.8,0,0,1-.4,1.74,7.274,7.274,0,0,1-1.27,1.7Zm9.413,5.493H46.073l1.1-5.748h2.6ZM55.732,4.3H58.14V17H55.618V6.9L52.7,9.617v-2.6ZM66.85,4.133a4.911,4.911,0,0,1,2.369.576A4.333,4.333,0,0,1,70.9,6.3a4.265,4.265,0,0,1,.615,2.254,5.189,5.189,0,0,1-1.134,3.094L66.428,17H63.545l3.287-4.3a4.208,4.208,0,0,1-.571.035,4.155,4.155,0,0,1-2.013-.505,3.968,3.968,0,0,1-1.516-1.472,4.163,4.163,0,0,1-.584-2.2,4.072,4.072,0,0,1,1.38-3.168A4.772,4.772,0,0,1,66.85,4.133ZM69.135,8.65A2.076,2.076,0,0,0,66.92,6.409a2.284,2.284,0,0,0-1.648.62,2.141,2.141,0,0,0-.655,1.6,2.172,2.172,0,0,0,.615,1.635,2.229,2.229,0,0,0,1.661.642,2.127,2.127,0,0,0,1.608-.642A2.3,2.3,0,0,0,69.135,8.65Z" transform="translate(329 8161)" fill="#00223d"/>
  </g>
</svg>
