<svg xmlns="http://www.w3.org/2000/svg" width="506" height="98" viewBox="0 0 506 98">
  <g id="Grupo_55223" data-name="Grupo 55223" transform="translate(-181 -6554)">
    <g id="Grupo_18872" data-name="Grupo 18872" transform="translate(-241 -6054)">
      <path id="Trazado_35299" data-name="Trazado 35299" d="M7,0H499a7,7,0,0,1,7,7V91a7,7,0,0,1-7,7H7a7,7,0,0,1-7-7V7A7,7,0,0,1,7,0Z" transform="translate(422 12608)" fill="#dee4f0"/>
      <path id="Trazado_35300" data-name="Trazado 35300" d="M7.269,17.176A7.089,7.089,0,0,1,4.68,16.71a6.087,6.087,0,0,1-2.061-1.3,5.864,5.864,0,0,1-1.354-2.065,7.2,7.2,0,0,1-.492-2.7A6.879,6.879,0,0,1,1.617,7.2,5.744,5.744,0,0,1,3.933,4.915a6.935,6.935,0,0,1,3.335-.791A6.739,6.739,0,0,1,11,5.152a5.629,5.629,0,0,1,2.276,2.83l-2.461.9A3.479,3.479,0,0,0,9.448,7.165a3.891,3.891,0,0,0-2.18-.615A3.73,3.73,0,0,0,4.491,7.657,4.075,4.075,0,0,0,3.4,10.646,4.081,4.081,0,0,0,4.5,13.638,3.726,3.726,0,0,0,7.269,14.75a3.876,3.876,0,0,0,2.175-.62,3.5,3.5,0,0,0,1.367-1.718l2.461.9A5.652,5.652,0,0,1,11,16.143,6.718,6.718,0,0,1,7.269,17.176ZM20.716,4.3a3.822,3.822,0,0,1,2.927,1.182A4.112,4.112,0,0,1,24.75,8.4a4.011,4.011,0,0,1-1.1,2.9,3.891,3.891,0,0,1-2.936,1.138H18.07V17H15.434V4.3Zm-.439,5.941a1.938,1.938,0,0,0,1.45-.5,1.888,1.888,0,0,0,.483-1.375,1.873,1.873,0,0,0-.488-1.358,1.92,1.92,0,0,0-1.446-.505H18.07v3.735ZM32.247,4.3a3.822,3.822,0,0,1,2.927,1.182A4.112,4.112,0,0,1,36.281,8.4a4.011,4.011,0,0,1-1.1,2.9,3.891,3.891,0,0,1-2.936,1.138H29.6V17H26.965V4.3Zm-.439,5.941a1.938,1.938,0,0,0,1.45-.5,1.888,1.888,0,0,0,.483-1.375,1.873,1.873,0,0,0-.488-1.358,1.92,1.92,0,0,0-1.446-.505H29.6v3.735Zm7.831,1.178a1.379,1.379,0,0,1-1.015-.431A1.411,1.411,0,0,1,38.2,9.96a1.456,1.456,0,0,1,1.441-1.441,1.411,1.411,0,0,1,1.028.426A1.379,1.379,0,0,1,41.1,9.96a1.471,1.471,0,0,1-1.459,1.459Zm0,5.757A1.456,1.456,0,0,1,38.2,15.734a1.411,1.411,0,0,1,.426-1.028,1.379,1.379,0,0,1,1.015-.431A1.471,1.471,0,0,1,41.1,15.734a1.379,1.379,0,0,1-.431,1.015A1.411,1.411,0,0,1,39.639,17.176Z" transform="translate(476 12648)" fill="#00223d"/>
      <path id="Trazado_35301" data-name="Trazado 35301" d="M0,0H244" transform="translate(551.5 12664.5)" fill="none" stroke="#707070" stroke-width="1"/>
      <path id="Trazado_35302" data-name="Trazado 35302" d="M55.733,4.625a3.664,3.664,0,0,1,1.938.514,3.473,3.473,0,0,1,1.3,1.375,4.036,4.036,0,0,1,.453,1.907A3.755,3.755,0,0,1,58.4,11.116a3.514,3.514,0,0,1-2.667,1.077H52.622V17H51.049V4.625Zm-.229,6.2a2.25,2.25,0,0,0,1.723-.664A2.455,2.455,0,0,0,57.852,8.4a2.463,2.463,0,0,0-.624-1.745A2.234,2.234,0,0,0,55.5,5.987H52.622v4.834Zm7.77-.94a2.612,2.612,0,0,1,1.072-1.16,3.229,3.229,0,0,1,1.661-.457V9.7A2.846,2.846,0,0,0,64,10.338a2.68,2.68,0,0,0-.69,2.048V17H61.789V8.36h1.485Zm11.971,2.628-.018.413h-6.75a3.053,3.053,0,0,0,.826,2.21,2.713,2.713,0,0,0,1.969.769,2.59,2.59,0,0,0,1.433-.413,2.68,2.68,0,0,0,.984-1.143l1.371.29a3.9,3.9,0,0,1-1.477,1.854,4.028,4.028,0,0,1-2.294.677,4.174,4.174,0,0,1-3.111-1.2,4.479,4.479,0,0,1-1.187-3.287A4.458,4.458,0,0,1,68.183,9.4a4.122,4.122,0,0,1,3.063-1.2,3.9,3.9,0,0,1,2.9,1.107A4.376,4.376,0,0,1,75.245,12.509Zm-4-3.146a2.694,2.694,0,0,0-1.8.611,2.8,2.8,0,0,0-.91,1.78h5.177a2.567,2.567,0,0,0-.756-1.78A2.441,2.441,0,0,0,71.246,9.362Zm9.967,7.8a4.161,4.161,0,0,1-3.094-1.239A4.421,4.421,0,0,1,76.9,12.676a4.43,4.43,0,0,1,1.217-3.243,4.5,4.5,0,0,1,5.6-.483,3.815,3.815,0,0,1,1.455,2.1l-1.424.229a2.63,2.63,0,0,0-.976-1.345A2.656,2.656,0,0,0,81.2,9.459a2.554,2.554,0,0,0-2,.888,3.382,3.382,0,0,0-.787,2.329A3.365,3.365,0,0,0,79.2,15a2.56,2.56,0,0,0,2,.883,2.656,2.656,0,0,0,1.564-.475,2.63,2.63,0,0,0,.976-1.345l1.424.237A3.819,3.819,0,0,1,83.7,16.4,4.185,4.185,0,0,1,81.213,17.158ZM88.183,6.33A1.035,1.035,0,0,1,87.154,5.3a.975.975,0,0,1,.3-.721,1,1,0,0,1,.725-.3.987.987,0,0,1,.716.3.975.975,0,0,1,.3.721.989.989,0,0,1-.3.725A.979.979,0,0,1,88.183,6.33ZM87.409,17V8.36h1.529V17Zm8.262.167a4.554,4.554,0,0,1-2.215-.536,3.9,3.9,0,0,1-1.56-1.569,4.819,4.819,0,0,1-.576-2.386,4.4,4.4,0,0,1,1.226-3.256,4.6,4.6,0,0,1,6.253,0,4.41,4.41,0,0,1,1.222,3.256A4.413,4.413,0,0,1,98.8,15.941,4.232,4.232,0,0,1,95.671,17.167ZM95.662,15.9a2.654,2.654,0,0,0,2.043-.888,3.326,3.326,0,0,0,.813-2.338,3.314,3.314,0,0,0-.813-2.329,2.654,2.654,0,0,0-2.043-.888,2.617,2.617,0,0,0-2.026.888,3.336,3.336,0,0,0-.8,2.329,3.348,3.348,0,0,0,.8,2.338A2.617,2.617,0,0,0,95.662,15.9Zm12.938-.3h6.161V17h-8.35V15.849l4.957-5.124a5.872,5.872,0,0,0,1.116-1.468,2.928,2.928,0,0,0,.308-1.274,2.136,2.136,0,0,0-.624-1.639,2.548,2.548,0,0,0-3.309.053,2.741,2.741,0,0,0-.628,1.991V9.3L106.71,9.16V8.4a3.912,3.912,0,0,1,1.046-2.94,4.33,4.33,0,0,1,5.48-.075,3.27,3.27,0,0,1,1.05,2.566,3.892,3.892,0,0,1-.417,1.789,7.689,7.689,0,0,1-1.34,1.78Zm13.245-2.654V11.691h6.3v1.257Zm19.116-8.323a3.664,3.664,0,0,1,1.938.514,3.473,3.473,0,0,1,1.3,1.375,4.036,4.036,0,0,1,.453,1.907,3.755,3.755,0,0,1-1.024,2.694,3.514,3.514,0,0,1-2.667,1.077H137.85V17h-1.573V4.625Zm-.229,6.2a2.25,2.25,0,0,0,1.723-.664,2.455,2.455,0,0,0,.624-1.753,2.463,2.463,0,0,0-.624-1.745,2.234,2.234,0,0,0-1.723-.672H137.85v4.834Zm7.77-.94a2.612,2.612,0,0,1,1.072-1.16,3.229,3.229,0,0,1,1.661-.457V9.7a2.846,2.846,0,0,0-2.008.642,2.68,2.68,0,0,0-.69,2.048V17h-1.521V8.36H148.5Zm11.971,2.628-.018.413h-6.75a3.053,3.053,0,0,0,.826,2.21,2.713,2.713,0,0,0,1.969.769,2.59,2.59,0,0,0,1.433-.413,2.68,2.68,0,0,0,.984-1.143l1.371.29a3.9,3.9,0,0,1-1.477,1.854,4.028,4.028,0,0,1-2.294.677,4.174,4.174,0,0,1-3.111-1.2,4.479,4.479,0,0,1-1.187-3.287A4.458,4.458,0,0,1,153.411,9.4a4.122,4.122,0,0,1,3.063-1.2,3.9,3.9,0,0,1,2.9,1.107A4.376,4.376,0,0,1,160.473,12.509Zm-4-3.146a2.694,2.694,0,0,0-1.8.611,2.8,2.8,0,0,0-.91,1.78h5.177a2.567,2.567,0,0,0-.756-1.78A2.441,2.441,0,0,0,156.474,9.362Zm9.967,7.8a4.161,4.161,0,0,1-3.094-1.239,4.421,4.421,0,0,1-1.222-3.243,4.43,4.43,0,0,1,1.217-3.243,4.5,4.5,0,0,1,5.6-.483,3.815,3.815,0,0,1,1.455,2.1l-1.424.229A2.63,2.63,0,0,0,168,9.934a2.656,2.656,0,0,0-1.564-.475,2.554,2.554,0,0,0-2,.888,3.382,3.382,0,0,0-.787,2.329A3.365,3.365,0,0,0,164.432,15a2.56,2.56,0,0,0,2,.883A2.656,2.656,0,0,0,168,15.409a2.63,2.63,0,0,0,.976-1.345l1.424.237a3.819,3.819,0,0,1-1.463,2.1A4.185,4.185,0,0,1,166.44,17.158ZM173.41,6.33A1.035,1.035,0,0,1,172.382,5.3a.975.975,0,0,1,.3-.721,1,1,0,0,1,.725-.3.987.987,0,0,1,.716.3.975.975,0,0,1,.3.721.989.989,0,0,1-.3.725A.979.979,0,0,1,173.41,6.33ZM172.637,17V8.36h1.529V17Zm8.262.167a4.554,4.554,0,0,1-2.215-.536,3.9,3.9,0,0,1-1.56-1.569,4.819,4.819,0,0,1-.576-2.386,4.4,4.4,0,0,1,1.226-3.256,4.6,4.6,0,0,1,6.253,0,4.41,4.41,0,0,1,1.222,3.256,4.413,4.413,0,0,1-1.226,3.265A4.232,4.232,0,0,1,180.9,17.167ZM180.89,15.9a2.654,2.654,0,0,0,2.043-.888,3.326,3.326,0,0,0,.813-2.338,3.314,3.314,0,0,0-.813-2.329,2.654,2.654,0,0,0-2.043-.888,2.617,2.617,0,0,0-2.026.888,3.336,3.336,0,0,0-.8,2.329,3.348,3.348,0,0,0,.8,2.338A2.617,2.617,0,0,0,180.89,15.9ZM195.919,4.625h1.424V17h-1.5V6.286l-2.971,2.575V7.235Zm-97.572,30a3.664,3.664,0,0,1,1.938.514,3.473,3.473,0,0,1,1.3,1.375,4.036,4.036,0,0,1,.453,1.907,3.755,3.755,0,0,1-1.024,2.694,3.514,3.514,0,0,1-2.667,1.077H95.236V47H93.663V34.625Zm-.229,6.2a2.25,2.25,0,0,0,1.723-.664,2.763,2.763,0,0,0,0-3.5,2.234,2.234,0,0,0-1.723-.672H95.236v4.834Zm7.77-.94a2.612,2.612,0,0,1,1.072-1.16,3.229,3.229,0,0,1,1.661-.457V39.7a2.846,2.846,0,0,0-2.008.642,2.68,2.68,0,0,0-.69,2.048V47H104.4V38.36h1.485Zm11.971,2.628-.018.413h-6.75a3.053,3.053,0,0,0,.826,2.21,2.713,2.713,0,0,0,1.969.769,2.59,2.59,0,0,0,1.433-.413,2.68,2.68,0,0,0,.984-1.143l1.371.29A3.9,3.9,0,0,1,116.2,46.49a4.028,4.028,0,0,1-2.294.677,4.174,4.174,0,0,1-3.111-1.2,4.479,4.479,0,0,1-1.187-3.287A4.458,4.458,0,0,1,110.8,39.4a4.122,4.122,0,0,1,3.063-1.2,3.9,3.9,0,0,1,2.9,1.107A4.376,4.376,0,0,1,117.859,42.509Zm-4-3.146a2.694,2.694,0,0,0-1.8.611,2.8,2.8,0,0,0-.91,1.78h5.177a2.567,2.567,0,0,0-.756-1.78A2.441,2.441,0,0,0,113.86,39.362Zm9.967,7.8a4.161,4.161,0,0,1-3.094-1.239,4.922,4.922,0,0,1,0-6.486,4.5,4.5,0,0,1,5.6-.483,3.815,3.815,0,0,1,1.455,2.1l-1.424.229a2.63,2.63,0,0,0-.976-1.345,2.656,2.656,0,0,0-1.564-.475,2.554,2.554,0,0,0-2,.888,3.835,3.835,0,0,0,0,4.654,2.56,2.56,0,0,0,2,.883,2.656,2.656,0,0,0,1.564-.475,2.63,2.63,0,0,0,.976-1.345l1.424.237a3.819,3.819,0,0,1-1.463,2.1A4.185,4.185,0,0,1,123.827,47.158ZM130.8,36.33a1.035,1.035,0,0,1-1.028-1.028.975.975,0,0,1,.3-.721,1,1,0,0,1,.725-.3.987.987,0,0,1,.716.3.975.975,0,0,1,.3.721.989.989,0,0,1-.3.725A.979.979,0,0,1,130.8,36.33ZM130.023,47V38.36h1.529V47Zm8.262.167a4.554,4.554,0,0,1-2.215-.536,3.9,3.9,0,0,1-1.56-1.569,4.819,4.819,0,0,1-.576-2.386,4.4,4.4,0,0,1,1.226-3.256,4.6,4.6,0,0,1,6.253,0,4.956,4.956,0,0,1,0,6.521A4.232,4.232,0,0,1,138.285,47.167Zm-.009-1.266a2.654,2.654,0,0,0,2.043-.888,3.755,3.755,0,0,0,0-4.667,2.654,2.654,0,0,0-2.043-.888,2.617,2.617,0,0,0-2.026.888,3.788,3.788,0,0,0,0,4.667A2.617,2.617,0,0,0,138.276,45.9Zm15.029-11.276h1.424V47h-1.5V36.286l-2.971,2.575V37.235Z" transform="translate(546 12636)" fill="#00223d"/>
      <path id="Trazado_35303" data-name="Trazado 35303" d="M17.526,17l4.948-6.627L17.667,4.3h3.208l3.164,4.166L27.2,4.3h3.208L25.6,10.373,30.551,17H27.194l-3.155-4.491L20.883,17ZM40.509,4.3h2.408V17H40.4V6.9L37.477,9.617v-2.6ZM51.619,17.176A3.961,3.961,0,0,1,48.2,15.532a8.3,8.3,0,0,1-1.191-4.887A8.3,8.3,0,0,1,48.2,5.759a4.383,4.383,0,0,1,6.829,0,8.3,8.3,0,0,1,1.187,4.887,8.3,8.3,0,0,1-1.191,4.887A3.952,3.952,0,0,1,51.619,17.176Zm0-2.285a1.67,1.67,0,0,0,1.525-1.042,7.251,7.251,0,0,0,.541-3.2,7.2,7.2,0,0,0-.545-3.2A1.673,1.673,0,0,0,51.619,6.4q-2.074,0-2.074,4.245T51.619,14.891Zm10.749,2.285a3.961,3.961,0,0,1-3.415-1.644,8.3,8.3,0,0,1-1.191-4.887,8.3,8.3,0,0,1,1.187-4.887,4.383,4.383,0,0,1,6.829,0,8.3,8.3,0,0,1,1.187,4.887,8.3,8.3,0,0,1-1.191,4.887A3.952,3.952,0,0,1,62.368,17.176Zm0-2.285a1.67,1.67,0,0,0,1.525-1.042,7.251,7.251,0,0,0,.541-3.2,7.2,7.2,0,0,0-.545-3.2A1.673,1.673,0,0,0,62.368,6.4q-2.074,0-2.074,4.245T62.368,14.891Z" transform="translate(796 12652)" fill="#00223d"/>
    </g>
  </g>
</svg>
