<svg xmlns="http://www.w3.org/2000/svg" width="643" height="354" viewBox="0 0 643 354">
  <g id="Grupo_55229" data-name="Grupo 55229" transform="translate(-215 -8236)">
    <path id="Trazado_35342" data-name="Trazado 35342" d="M9.009,6.62H4.3V9.5H8.473V11.8H4.3v2.874H9.009V17H1.644V4.3H9.009ZM15.6,17.176a5.681,5.681,0,0,1-2.558-.554A4.138,4.138,0,0,1,11.29,15a4.846,4.846,0,0,1-.637-2.522,4.42,4.42,0,0,1,1.371-3.428A5.086,5.086,0,0,1,15.6,7.789a5.1,5.1,0,0,1,3.586,1.257,4.42,4.42,0,0,1,1.371,3.428,4.444,4.444,0,0,1-1.371,3.441A5.088,5.088,0,0,1,15.6,17.176Zm-.026-2.013a2.319,2.319,0,0,0,1.789-.738,2.764,2.764,0,0,0,.681-1.951,2.764,2.764,0,0,0-.681-1.951,2.319,2.319,0,0,0-1.789-.738,2.234,2.234,0,0,0-1.736.743,2.789,2.789,0,0,0-.672,1.947,2.789,2.789,0,0,0,.672,1.947A2.234,2.234,0,0,0,15.574,15.163ZM23.1,9.846V7.921h7.761V9.846Zm0,3.858V11.779h7.761V13.7Z" transform="translate(270 8282)" fill="#00223d"/>
    <path id="Trazado_35343" data-name="Trazado 35343" d="M0,0H200" transform="translate(324.5 8294.5)" fill="none" stroke="#707070" stroke-width="1"/>
    <path id="Trazado_35341" data-name="Trazado 35341" d="M46.566,4.3h2.8L44.676,17h-2.9L37.109,4.3H39.9l3.331,9.624Zm10.89,10.248a8.453,8.453,0,0,0,.22,2.206V17H55.311l-.2-.984a2.938,2.938,0,0,1-1.266.87,4.664,4.664,0,0,1-1.635.29,4.3,4.3,0,0,1-.844-.079,2.868,2.868,0,0,1-.76-.268,2.307,2.307,0,0,1-.628-.47,2.062,2.062,0,0,1-.422-.716,2.853,2.853,0,0,1-.158-.98,2.718,2.718,0,0,1,.167-.98A2.3,2.3,0,0,1,50,12.948a2.666,2.666,0,0,1,.712-.536,5.447,5.447,0,0,1,.9-.387,10.712,10.712,0,0,1,1.072-.281l1.485-.334a1.638,1.638,0,0,0,.672-.286.57.57,0,0,0,.2-.453.932.932,0,0,0-.444-.87,2.072,2.072,0,0,0-1.077-.264,1.549,1.549,0,0,0-1.767,1.38l-2.241-.4a3.034,3.034,0,0,1,1.31-2.061,5.2,5.2,0,0,1,2.839-.664q3.8,0,3.8,3.261ZM53,15.462a2.036,2.036,0,0,0,1.564-.655,2.759,2.759,0,0,0,.606-1.938l-2.145.606a2.534,2.534,0,0,0-.9.369.758.758,0,0,0-.312.65.842.842,0,0,0,.334.716A1.382,1.382,0,0,0,53,15.462ZM62.342,9.4a2.933,2.933,0,0,1,1.187-1.085A3.62,3.62,0,0,1,65.3,7.859v2.259a3.423,3.423,0,0,0-2.162.545,2.379,2.379,0,0,0-.668,1.934V17H59.917V7.965h2.426Zm5.73-2.786a1.421,1.421,0,0,1-1.037-.426A1.4,1.4,0,0,1,66.6,5.152a1.382,1.382,0,0,1,.435-1.024A1.425,1.425,0,0,1,68.073,3.7a1.463,1.463,0,0,1,1.45,1.45,1.463,1.463,0,0,1-1.45,1.459ZM66.781,17V7.965H69.33V17Zm12.577-2.452a8.453,8.453,0,0,0,.22,2.206V17H77.213l-.2-.984a2.938,2.938,0,0,1-1.266.87,4.664,4.664,0,0,1-1.635.29,4.3,4.3,0,0,1-.844-.079,2.868,2.868,0,0,1-.76-.268,2.307,2.307,0,0,1-.628-.47,2.062,2.062,0,0,1-.422-.716,2.853,2.853,0,0,1-.158-.98,2.718,2.718,0,0,1,.167-.98,2.3,2.3,0,0,1,.439-.734,2.666,2.666,0,0,1,.712-.536,5.447,5.447,0,0,1,.9-.387,10.712,10.712,0,0,1,1.072-.281l1.485-.334a1.638,1.638,0,0,0,.672-.286.57.57,0,0,0,.2-.453A.932.932,0,0,0,76.5,9.8a2.072,2.072,0,0,0-1.077-.264,1.549,1.549,0,0,0-1.767,1.38l-2.241-.4a3.034,3.034,0,0,1,1.31-2.061,5.2,5.2,0,0,1,2.839-.664q3.8,0,3.8,3.261Zm-4.456.914a2.036,2.036,0,0,0,1.564-.655,2.759,2.759,0,0,0,.606-1.938l-2.145.606a2.534,2.534,0,0,0-.9.369.758.758,0,0,0-.312.65.842.842,0,0,0,.334.716A1.382,1.382,0,0,0,74.9,15.462Zm10.8,1.705a4.827,4.827,0,0,1-3.489-1.3,4.493,4.493,0,0,1-1.354-3.393A4.483,4.483,0,0,1,82.21,9.081a5.364,5.364,0,0,1,6.42-.422,3.885,3.885,0,0,1,1.512,2.452l-2.338.255a2,2,0,0,0-.756-1.187,2.3,2.3,0,0,0-1.371-.4,2.072,2.072,0,0,0-1.652.738,2.894,2.894,0,0,0-.633,1.951,2.9,2.9,0,0,0,.633,1.947,2.067,2.067,0,0,0,1.652.743,2.278,2.278,0,0,0,1.367-.4,2.05,2.05,0,0,0,.76-1.187l2.338.255a3.9,3.9,0,0,1-1.525,2.452A4.8,4.8,0,0,1,85.7,17.167ZM93.236,6.611A1.421,1.421,0,0,1,92.2,6.185a1.4,1.4,0,0,1-.431-1.033A1.382,1.382,0,0,1,92.2,4.128,1.425,1.425,0,0,1,93.236,3.7a1.463,1.463,0,0,1,1.45,1.45,1.463,1.463,0,0,1-1.45,1.459ZM91.944,17V7.965h2.549V17Zm8.6-10.266,2.3-3.234,1.248.879-2,2.355Zm.782,10.441a5.681,5.681,0,0,1-2.558-.554A4.138,4.138,0,0,1,97.011,15a4.846,4.846,0,0,1-.637-2.522,4.42,4.42,0,0,1,1.371-3.428,5.731,5.731,0,0,1,7.163,0,4.42,4.42,0,0,1,1.371,3.428,4.444,4.444,0,0,1-1.371,3.441A5.088,5.088,0,0,1,101.322,17.176Zm-.026-2.013a2.319,2.319,0,0,0,1.789-.738,2.764,2.764,0,0,0,.681-1.951,2.764,2.764,0,0,0-.681-1.951,2.319,2.319,0,0,0-1.789-.738,2.234,2.234,0,0,0-1.736.743,2.789,2.789,0,0,0-.672,1.947,2.789,2.789,0,0,0,.672,1.947A2.234,2.234,0,0,0,101.3,15.163Zm12.2-7.374a3.522,3.522,0,0,1,2.5.813,3.014,3.014,0,0,1,.87,2.316V17h-2.54V11.463a1.574,1.574,0,0,0-.453-1.248,1.705,1.705,0,0,0-1.165-.4,2.379,2.379,0,0,0-.756.114,1.942,1.942,0,0,0-.633.356,1.573,1.573,0,0,0-.453.681,3.15,3.15,0,0,0-.171,1.046V17H108.16V7.965h2.531v1A3.481,3.481,0,0,1,113.495,7.789ZM130.4,3.5h2.531V17h-2.4l-.062-1.178a2.58,2.58,0,0,1-1.147,1.024,3.861,3.861,0,0,1-1.692.365,4.394,4.394,0,0,1-1.687-.325,4.064,4.064,0,0,1-2.32-2.408,5.5,5.5,0,0,1-.343-1.978,5.137,5.137,0,0,1,.6-2.518,4.1,4.1,0,0,1,1.578-1.639,4.345,4.345,0,0,1,2.175-.554,3.957,3.957,0,0,1,1.639.33,2.559,2.559,0,0,1,1.129.936Zm-2.188,11.61a2.253,2.253,0,0,0,1.709-.721,2.638,2.638,0,0,0,.681-1.89,2.644,2.644,0,0,0-.686-1.894,2.251,2.251,0,0,0-1.705-.725,2.277,2.277,0,0,0-1.718.712,2.644,2.644,0,0,0-.681,1.907,2.631,2.631,0,0,0,.681,1.9A2.277,2.277,0,0,0,128.208,15.11Zm15.838-2.76-.026.606h-6.7a2.339,2.339,0,0,0,.721,1.652,2.3,2.3,0,0,0,1.591.571,2.221,2.221,0,0,0,1.191-.312,1.918,1.918,0,0,0,.76-.91l2.32.343a3.945,3.945,0,0,1-1.582,2.118,4.7,4.7,0,0,1-2.672.756,4.891,4.891,0,0,1-3.52-1.244,4.538,4.538,0,0,1-1.305-3.45,4.565,4.565,0,0,1,1.31-3.45,4.746,4.746,0,0,1,3.437-1.261,4.536,4.536,0,0,1,3.243,1.151A4.517,4.517,0,0,1,144.045,12.351Zm-4.456-2.786a2,2,0,0,0-2.2,1.74h4.148a1.9,1.9,0,0,0-.624-1.292A1.978,1.978,0,0,0,139.589,9.564Zm23.959,7.963-2.2.835-1.626-1.828a7.2,7.2,0,0,1-3.059.642,7.043,7.043,0,0,1-3.371-.8,5.823,5.823,0,0,1-2.347-2.29,6.8,6.8,0,0,1-.857-3.445,6.8,6.8,0,0,1,.857-3.45,5.808,5.808,0,0,1,2.342-2.281,7.6,7.6,0,0,1,6.75,0A5.808,5.808,0,0,1,162.384,7.2a6.8,6.8,0,0,1,.857,3.45,6.394,6.394,0,0,1-1.687,4.579ZM152.72,10.646a4.247,4.247,0,0,0,1.107,3.107,4.133,4.133,0,0,0,5.678,0,4.247,4.247,0,0,0,1.107-3.107A4.02,4.02,0,0,0,159.5,7.657a4.17,4.17,0,0,0-5.66,0A4.02,4.02,0,0,0,152.72,10.646ZM48.209,34.3h2.8L46.32,47h-2.9L38.752,34.3h2.795l3.331,9.624ZM59.1,44.548a8.453,8.453,0,0,0,.22,2.206V47H56.955l-.2-.984a2.938,2.938,0,0,1-1.266.87,4.664,4.664,0,0,1-1.635.29,4.3,4.3,0,0,1-.844-.079,2.868,2.868,0,0,1-.76-.268,2.307,2.307,0,0,1-.628-.47,2.062,2.062,0,0,1-.422-.716,2.853,2.853,0,0,1-.158-.98,2.718,2.718,0,0,1,.167-.98,2.3,2.3,0,0,1,.439-.734,2.666,2.666,0,0,1,.712-.536,5.447,5.447,0,0,1,.9-.387,10.712,10.712,0,0,1,1.072-.281l1.485-.334a1.638,1.638,0,0,0,.672-.286.57.57,0,0,0,.2-.453.932.932,0,0,0-.444-.87,2.072,2.072,0,0,0-1.077-.264,1.549,1.549,0,0,0-1.767,1.38l-2.241-.4a3.034,3.034,0,0,1,1.31-2.061,5.2,5.2,0,0,1,2.839-.664q3.8,0,3.8,3.261Zm-4.456.914a2.036,2.036,0,0,0,1.564-.655,2.759,2.759,0,0,0,.606-1.938l-2.145.606a2.534,2.534,0,0,0-.9.369.758.758,0,0,0-.312.65.842.842,0,0,0,.334.716A1.382,1.382,0,0,0,54.643,45.462ZM63.986,39.4a2.933,2.933,0,0,1,1.187-1.085,3.62,3.62,0,0,1,1.767-.453v2.259a3.423,3.423,0,0,0-2.162.545,2.379,2.379,0,0,0-.668,1.934V47H61.56V37.965h2.426Zm5.73-2.786a1.421,1.421,0,0,1-1.037-.426,1.4,1.4,0,0,1-.431-1.033,1.382,1.382,0,0,1,.435-1.024,1.425,1.425,0,0,1,1.033-.426,1.455,1.455,0,0,1,0,2.909ZM68.424,47V37.965h2.549V47ZM81,44.548a8.453,8.453,0,0,0,.22,2.206V47H78.857l-.2-.984a2.938,2.938,0,0,1-1.266.87,4.664,4.664,0,0,1-1.635.29,4.3,4.3,0,0,1-.844-.079,2.868,2.868,0,0,1-.76-.268,2.307,2.307,0,0,1-.628-.47,2.062,2.062,0,0,1-.422-.716,2.853,2.853,0,0,1-.158-.98,2.718,2.718,0,0,1,.167-.98,2.3,2.3,0,0,1,.439-.734,2.666,2.666,0,0,1,.712-.536,5.447,5.447,0,0,1,.9-.387,10.712,10.712,0,0,1,1.072-.281l1.485-.334a1.638,1.638,0,0,0,.672-.286.57.57,0,0,0,.2-.453.932.932,0,0,0-.444-.87,2.072,2.072,0,0,0-1.077-.264,1.549,1.549,0,0,0-1.767,1.38l-2.241-.4a3.034,3.034,0,0,1,1.31-2.061,5.2,5.2,0,0,1,2.839-.664q3.8,0,3.8,3.261Zm-4.456.914a2.036,2.036,0,0,0,1.564-.655,2.759,2.759,0,0,0,.606-1.938l-2.145.606a2.534,2.534,0,0,0-.9.369.758.758,0,0,0-.312.65.842.842,0,0,0,.334.716A1.382,1.382,0,0,0,76.545,45.462Zm10.8,1.705a4.827,4.827,0,0,1-3.489-1.3,4.934,4.934,0,0,1,0-6.785,5.364,5.364,0,0,1,6.42-.422,3.885,3.885,0,0,1,1.512,2.452l-2.338.255a2,2,0,0,0-.756-1.187,2.3,2.3,0,0,0-1.371-.4,2.072,2.072,0,0,0-1.652.738,3.318,3.318,0,0,0,0,3.9,2.067,2.067,0,0,0,1.652.743,2.278,2.278,0,0,0,1.367-.4,2.05,2.05,0,0,0,.76-1.187l2.338.255a3.9,3.9,0,0,1-1.525,2.452A4.8,4.8,0,0,1,87.347,47.167Zm7.532-10.556a1.421,1.421,0,0,1-1.037-.426,1.4,1.4,0,0,1-.431-1.033,1.382,1.382,0,0,1,.435-1.024,1.425,1.425,0,0,1,1.033-.426,1.455,1.455,0,0,1,0,2.909ZM93.587,47V37.965h2.549V47Zm8.6-10.266,2.3-3.234,1.248.879-2,2.355Zm.782,10.441a5.681,5.681,0,0,1-2.558-.554A4.138,4.138,0,0,1,98.654,45a4.846,4.846,0,0,1-.637-2.522,4.42,4.42,0,0,1,1.371-3.428,5.731,5.731,0,0,1,7.163,0,4.42,4.42,0,0,1,1.371,3.428,4.444,4.444,0,0,1-1.371,3.441A5.088,5.088,0,0,1,102.965,47.176Zm-.026-2.013a2.319,2.319,0,0,0,1.789-.738,3.135,3.135,0,0,0,0-3.9,2.319,2.319,0,0,0-1.789-.738,2.234,2.234,0,0,0-1.736.743,3.155,3.155,0,0,0,0,3.894A2.234,2.234,0,0,0,102.939,45.163Zm12.2-7.374a3.522,3.522,0,0,1,2.5.813,3.014,3.014,0,0,1,.87,2.316V47h-2.54V41.463a1.574,1.574,0,0,0-.453-1.248,1.705,1.705,0,0,0-1.165-.4,2.379,2.379,0,0,0-.756.114,1.942,1.942,0,0,0-.633.356,1.573,1.573,0,0,0-.453.681,3.15,3.15,0,0,0-.171,1.046V47H109.8V37.965h2.531v1A3.481,3.481,0,0,1,115.138,37.789Zm16.9-4.289h2.531V47h-2.4l-.062-1.178a2.58,2.58,0,0,1-1.147,1.024,3.861,3.861,0,0,1-1.692.365,4.394,4.394,0,0,1-1.687-.325,4.064,4.064,0,0,1-2.32-2.408,5.5,5.5,0,0,1-.343-1.978,5.137,5.137,0,0,1,.6-2.518,4.1,4.1,0,0,1,1.578-1.639,4.345,4.345,0,0,1,2.175-.554,3.957,3.957,0,0,1,1.639.33,2.559,2.559,0,0,1,1.129.936Zm-2.188,11.61a2.253,2.253,0,0,0,1.709-.721,2.96,2.96,0,0,0,0-3.784,2.251,2.251,0,0,0-1.705-.725,2.277,2.277,0,0,0-1.718.712,3,3,0,0,0,0,3.806A2.277,2.277,0,0,0,129.851,45.11Zm15.838-2.76-.026.606h-6.7a2.339,2.339,0,0,0,.721,1.652,2.3,2.3,0,0,0,1.591.571,2.221,2.221,0,0,0,1.191-.312,1.918,1.918,0,0,0,.76-.91l2.32.343a3.945,3.945,0,0,1-1.582,2.118,4.7,4.7,0,0,1-2.672.756,4.891,4.891,0,0,1-3.52-1.244,4.538,4.538,0,0,1-1.305-3.45,4.565,4.565,0,0,1,1.31-3.45,4.746,4.746,0,0,1,3.437-1.261,4.136,4.136,0,0,1,4.474,4.579Zm-4.456-2.786a2,2,0,0,0-2.2,1.74h4.148a1.9,1.9,0,0,0-.624-1.292A1.978,1.978,0,0,0,141.233,39.564ZM157.906,34.3a3.822,3.822,0,0,1,2.927,1.182A4.112,4.112,0,0,1,161.94,38.4a4.011,4.011,0,0,1-1.1,2.9,3.891,3.891,0,0,1-2.936,1.138H155.26V47h-2.637V34.3Zm-.439,5.941a1.938,1.938,0,0,0,1.45-.5,2.166,2.166,0,0,0,0-2.733,1.92,1.92,0,0,0-1.446-.505H155.26v3.735Z" transform="translate(324 8268)" fill="#00223d"/>
    <path id="Trazado_35345" data-name="Trazado 35345" d="M9.009,6.62H4.3V9.5H8.473V11.8H4.3v2.874H9.009V17H1.644V4.3H9.009ZM15.6,17.176a5.681,5.681,0,0,1-2.558-.554A4.138,4.138,0,0,1,11.29,15a4.846,4.846,0,0,1-.637-2.522,4.42,4.42,0,0,1,1.371-3.428A5.086,5.086,0,0,1,15.6,7.789a5.1,5.1,0,0,1,3.586,1.257,4.42,4.42,0,0,1,1.371,3.428,4.444,4.444,0,0,1-1.371,3.441A5.088,5.088,0,0,1,15.6,17.176Zm-.026-2.013a2.319,2.319,0,0,0,1.789-.738,2.764,2.764,0,0,0,.681-1.951,2.764,2.764,0,0,0-.681-1.951,2.319,2.319,0,0,0-1.789-.738,2.234,2.234,0,0,0-1.736.743,2.789,2.789,0,0,0-.672,1.947,2.789,2.789,0,0,0,.672,1.947A2.234,2.234,0,0,0,15.574,15.163ZM23.1,9.846V7.921h7.761V9.846Zm0,3.858V11.779h7.761V13.7Z" transform="translate(266 8402)" fill="#00223d"/>
    <path id="Trazado_35347" data-name="Trazado 35347" d="M0,0H151" transform="translate(320.5 8414.5)" fill="none" stroke="#707070" stroke-width="1"/>
    <path id="Trazado_35346" data-name="Trazado 35346" d="M73.672,14.741h5.414V17H70.13V15.093l5.054-5.159a3.18,3.18,0,0,0,1.1-2.188,1.548,1.548,0,0,0-.453-1.178,1.782,1.782,0,0,0-1.279-.431q-1.8,0-1.8,2.048v.94L70.227,8.87V8.237a3.961,3.961,0,0,1,1.16-3.054,4.443,4.443,0,0,1,3.146-1.077,4.655,4.655,0,0,1,3.063.976,3.288,3.288,0,0,1,1.182,2.681,3.8,3.8,0,0,1-.4,1.74,7.274,7.274,0,0,1-1.27,1.7ZM85.124,8.765Q90,8.765,90,12.772a4.281,4.281,0,0,1-1.23,3.212,4.447,4.447,0,0,1-3.243,1.2,5.38,5.38,0,0,1-2.272-.47,3.92,3.92,0,0,1-1.648-1.4,3.742,3.742,0,0,1-.624-2.14,3.951,3.951,0,0,1,.053-.633l2.514-.114a3.715,3.715,0,0,0-.062.563,1.71,1.71,0,0,0,.571,1.4,2.153,2.153,0,0,0,1.415.47,1.95,1.95,0,0,0,1.477-.541,2.013,2.013,0,0,0,.519-1.455,1.811,1.811,0,0,0-.633-1.485,3.389,3.389,0,0,0-2.127-.519H81.38L81.907,4.3h7.5V6.559H84.184l-.167,2.206ZM60.576,34.3h2.408V47H60.462V36.9l-2.918,2.716v-2.6ZM70.719,44.741h5.414V47H67.177V45.093l5.054-5.159a3.18,3.18,0,0,0,1.1-2.188,1.548,1.548,0,0,0-.453-1.178,1.782,1.782,0,0,0-1.279-.431q-1.8,0-1.8,2.048v.94l-2.522-.255v-.633a3.961,3.961,0,0,1,1.16-3.054,4.443,4.443,0,0,1,3.146-1.077,4.655,4.655,0,0,1,3.063.976,3.288,3.288,0,0,1,1.182,2.681,3.8,3.8,0,0,1-.4,1.74,7.274,7.274,0,0,1-1.27,1.7Zm9.413,5.493H78.321l1.1-5.748h2.6ZM87.98,34.3h2.408V47H87.866V36.9l-2.918,2.716v-2.6ZM99.1,34.133a4.911,4.911,0,0,1,2.369.576A4.333,4.333,0,0,1,103.15,36.3a4.265,4.265,0,0,1,.615,2.254,5.189,5.189,0,0,1-1.134,3.094L98.677,47H95.794l3.287-4.3a4.208,4.208,0,0,1-.571.035,4.155,4.155,0,0,1-2.013-.505,3.968,3.968,0,0,1-1.516-1.472,4.163,4.163,0,0,1-.584-2.2,4.072,4.072,0,0,1,1.38-3.168A4.772,4.772,0,0,1,99.1,34.133Zm2.285,4.518a2.076,2.076,0,0,0-2.215-2.241,2.284,2.284,0,0,0-1.648.62,2.141,2.141,0,0,0-.655,1.6,2.172,2.172,0,0,0,.615,1.635,2.229,2.229,0,0,0,1.661.642,2.127,2.127,0,0,0,1.608-.642A2.3,2.3,0,0,0,101.384,38.65Z" transform="translate(312 8388)" fill="#00223d"/>
    <path id="Trazado_35349" data-name="Trazado 35349" d="M9.009,6.62H4.3V9.5H8.473V11.8H4.3v2.874H9.009V17H1.644V4.3H9.009ZM15.6,17.176a5.681,5.681,0,0,1-2.558-.554A4.138,4.138,0,0,1,11.29,15a4.846,4.846,0,0,1-.637-2.522,4.42,4.42,0,0,1,1.371-3.428A5.086,5.086,0,0,1,15.6,7.789a5.1,5.1,0,0,1,3.586,1.257,4.42,4.42,0,0,1,1.371,3.428,4.444,4.444,0,0,1-1.371,3.441A5.088,5.088,0,0,1,15.6,17.176Zm-.026-2.013a2.319,2.319,0,0,0,1.789-.738,2.764,2.764,0,0,0,.681-1.951,2.764,2.764,0,0,0-.681-1.951,2.319,2.319,0,0,0-1.789-.738,2.234,2.234,0,0,0-1.736.743,2.789,2.789,0,0,0-.672,1.947,2.789,2.789,0,0,0,.672,1.947A2.234,2.234,0,0,0,15.574,15.163ZM23.1,9.846V7.921h7.761V9.846Zm0,3.858V11.779h7.761V13.7Z" transform="translate(265 8520)" fill="#00223d"/>
    <path id="Trazado_35350" data-name="Trazado 35350" d="M39.47,15.2V11.806H36.077V9.881H39.47V6.5h1.916V9.881H44.77v1.925H41.386V15.2ZM50.1,14.741H55.51V17H46.554V15.093l5.054-5.159a3.18,3.18,0,0,0,1.1-2.188,1.548,1.548,0,0,0-.453-1.178,1.782,1.782,0,0,0-1.279-.431q-1.8,0-1.8,2.048v.94L46.65,8.87V8.237a3.961,3.961,0,0,1,1.16-3.054,4.443,4.443,0,0,1,3.146-1.077,4.655,4.655,0,0,1,3.063.976A3.288,3.288,0,0,1,55.2,7.763a3.8,3.8,0,0,1-.4,1.74,7.274,7.274,0,0,1-1.27,1.7Zm9.413,5.493H57.7l1.1-5.748h2.6Zm8.209-3.059A3.961,3.961,0,0,1,64.3,15.532a8.3,8.3,0,0,1-1.191-4.887A8.3,8.3,0,0,1,64.3,5.759a4.383,4.383,0,0,1,6.829,0,8.3,8.3,0,0,1,1.187,4.887,8.3,8.3,0,0,1-1.191,4.887A3.952,3.952,0,0,1,67.718,17.176Zm0-2.285a1.67,1.67,0,0,0,1.525-1.042,7.251,7.251,0,0,0,.541-3.2,7.2,7.2,0,0,0-.545-3.2A1.673,1.673,0,0,0,67.718,6.4q-2.074,0-2.074,4.245T67.718,14.891ZM78.2,8.765q4.878,0,4.878,4.008a4.281,4.281,0,0,1-1.23,3.212,4.447,4.447,0,0,1-3.243,1.2,5.38,5.38,0,0,1-2.272-.47,3.92,3.92,0,0,1-1.648-1.4,3.742,3.742,0,0,1-.624-2.14,3.951,3.951,0,0,1,.053-.633l2.514-.114a3.715,3.715,0,0,0-.062.563,1.71,1.71,0,0,0,.571,1.4,2.153,2.153,0,0,0,1.415.47,1.95,1.95,0,0,0,1.477-.541,2.013,2.013,0,0,0,.519-1.455,1.811,1.811,0,0,0-.633-1.485,3.389,3.389,0,0,0-2.127-.519H74.459L74.986,4.3h7.5V6.559H77.263L77.1,8.765Z" transform="translate(291 8520)" fill="#00223d"/>
    <rect id="Rectángulo_5802" data-name="Rectángulo 5802" width="643" height="354" transform="translate(215 8236)" fill="#2cffe2" opacity="0.1"/>
  </g>
</svg>
