<svg xmlns="http://www.w3.org/2000/svg" width="151" height="151" viewBox="0 0 151 151">
  <g id="Grupo_55217" data-name="Grupo 55217" transform="translate(-1147 -3442)">
    <g id="CF1_acordeon" transform="translate(1146.656 3442)">
      <circle id="Elipse_4255" data-name="Elipse 4255" cx="75.5" cy="75.5" r="75.5" transform="translate(0.344)" fill="#bbabf5"/>
      <rect id="Rectángulo_5798" data-name="Rectángulo 5798" width="114.544" height="107.403" transform="translate(14.742 19.385)" fill="none"/>
      <g id="Grupo_18540" data-name="Grupo 18540" transform="translate(14.727 19.391)">
        <path id="Trazado_34203" data-name="Trazado 34203" d="M56.568,42.216a14.388,14.388,0,0,0,2.4-3.019l4.439.574,1.615-5.752L61.1,32.236a14.811,14.811,0,0,0-.438-3.986l3.457-2.627L61.1,20.4l-3.925,1.434a14.131,14.131,0,0,0-3.246-2.582l.544-4.167L48.687,13.44,47,17.3a14.222,14.222,0,0,0-4.152.483l-2.551-3.306L35.069,17.4l1.51,3.94A13.965,13.965,0,0,0,34.058,24.6l-4.212-.559L28.23,29.79l3.956,1.781a14.146,14.146,0,0,0,.528,3.971l-3.472,2.672,3.019,5.224,4.182-1.585a14.509,14.509,0,0,0,3.019,2.37l-.574,4.529,5.767,1.631,1.857-4.137a14.508,14.508,0,0,0,3.774-.453L53.08,49.4l5.209-2.914Zm-14.8-5.027a7.337,7.337,0,1,1,5.31,1.879,7.337,7.337,0,0,1-5.31-1.879h0" transform="translate(0.032 -12.54)" fill="#ef2a66"/>
        <path id="Trazado_34204" data-name="Trazado 34204" d="M44.928,51.608a.71.71,0,0,1-.257,0L38.9,49.978a1,1,0,0,1-.71-1.072l.483-3.835a15.777,15.777,0,0,1-2.25-1.8L32.85,44.648a1,1,0,0,1-1.208-.438l-2.929-5.224a.981.981,0,0,1,.242-1.253l3.019-2.28a14.841,14.841,0,0,1-.393-2.944L28.185,31a.981.981,0,0,1-.544-1.147L29.257,24.1a1,1,0,0,1,1.072-.71l3.563.468A15.836,15.836,0,0,1,35.749,21.4l-1.283-3.337a1,1,0,0,1,.438-1.208l5.224-2.914a.981.981,0,0,1,1.253.257L43.539,17a13.95,13.95,0,0,1,3.155-.362l1.51-3.216a.951.951,0,0,1,1.147-.544l5.707,1.706a.981.981,0,0,1,.694,1.057l-.377,3.472a15.234,15.234,0,0,1,2.446,1.948L61.188,19.8a.966.966,0,0,1,1.193.438l2.944,5.224a1,1,0,0,1-.257,1.253l-2.929,2.25a16.141,16.141,0,0,1,.317,3.019l3.427,1.51a1,1,0,0,1,.544,1.162l-1.691,5.707a.981.981,0,0,1-1.072.71l-3.759-.5a16.607,16.607,0,0,1-1.766,2.2l1.389,3.608a.981.981,0,0,1-.438,1.208l-5.224,2.914a.966.966,0,0,1-1.238-.257l-2.4-3.11a14.222,14.222,0,0,1-2.763.317l-1.51,3.578a1,1,0,0,1-.891.574m-4.786-3.321,4.152,1.178,1.51-3.367a.951.951,0,0,1,.876-.589h0a13.2,13.2,0,0,0,3.518-.408,1,1,0,0,1,1.012.347l2.265,3.019,3.729-2.174-1.313-3.427a.951.951,0,0,1,.242-1.042,13.421,13.421,0,0,0,2.25-2.808,1,1,0,0,1,.966-.468l3.593.468,1.162-4.137-3.246-1.51a.981.981,0,0,1-.574-.921,12.863,12.863,0,0,0-.408-3.714.981.981,0,0,1,.362-1.012L63.12,25.61l-2.114-3.759-3.17,1.208a.951.951,0,0,1-1.057-.257,14.161,14.161,0,0,0-3.019-2.416.966.966,0,0,1-.483-.951L53.7,16.1l-4.152-1.178L48.2,17.941a.966.966,0,0,1-.921.589,12.954,12.954,0,0,0-3.88.453.966.966,0,0,1-1.027-.347l-2.1-2.536-3.744,2.1,1.208,3.14A.966.966,0,0,1,37.5,22.38,13.875,13.875,0,0,0,35.145,25.4a.981.981,0,0,1-.966.5L30.8,25.444,29.71,29.551,32.9,30.985a.951.951,0,0,1,.574.891,13.83,13.83,0,0,0,.5,3.7.981.981,0,0,1-.347,1.042l-2.808,2.129,2.114,3.774,3.4-1.3a.981.981,0,0,1,1.042.226,13.588,13.588,0,0,0,2.914,2.234.966.966,0,0,1,.483.966Zm6.839-7.941a8.364,8.364,0,0,1-8.349-7.865,8.213,8.213,0,0,1,2.1-6.039A8.334,8.334,0,1,1,47.63,40.3h-.559m0-14.69a6.4,6.4,0,1,0,4.273,1.631,6.4,6.4,0,0,0-4.273-1.631" transform="translate(-0.285 -12.844)" fill="#12263f"/>
        <path id="Trazado_34205" data-name="Trazado 34205" d="M71.04,28.36a11.444,11.444,0,0,0-3.019-.574L66.813,24.54l-4.529.966.2,3.382A11.323,11.323,0,0,0,59.9,30.609l-3.019-1.4-2.551,3.9,2.461,2.174a11.7,11.7,0,0,0-.619,3.14L53.15,39.547l.951,4.529,3.231-.2a10.749,10.749,0,0,0,1.827,2.672L57.8,49.481l3.88,2.536,2.174-2.446a11.187,11.187,0,0,0,3.155.574l1.132,3.019,4.529-.951-.211-3.352a10.75,10.75,0,0,0,2.551-1.781L78.03,48.5l2.551-3.88-2.6-2.295a11.49,11.49,0,0,0,.528-3.019L81.8,38.082l-.951-4.529-3.518.211a12.077,12.077,0,0,0-1.661-2.431l1.51-3.186-3.88-2.536Zm1.812,11.972A5.707,5.707,0,1,1,68.7,33.4h0a5.722,5.722,0,0,1,4.152,6.93" transform="translate(12.735 -6.882)" fill="#2cffe2"/>
        <path id="Trazado_34206" data-name="Trazado 34206" d="M68.4,54.328a.815.815,0,0,1-.77-.528l-.951-2.612a10.915,10.915,0,0,1-2.31-.423l-1.827,2.083A.83.83,0,0,1,61.488,53l-3.88-2.536a.815.815,0,0,1-.3-1.027l1.147-2.446a11.5,11.5,0,0,1-1.359-1.978l-2.7.136a.83.83,0,0,1-.845-.649L52.6,39.97a.815.815,0,0,1,.528-.936l2.567-.951a12.078,12.078,0,0,1,.453-2.31l-2.068-1.812A.815.815,0,0,1,53.94,32.9l2.551-3.9a.83.83,0,0,1,1.027-.287L60.084,29.9a11.821,11.821,0,0,1,1.872-1.238l-.166-2.853a.83.83,0,0,1,.649-.861L66.969,24a.8.8,0,0,1,.936.513l1.012,2.763a12.274,12.274,0,0,1,2.1.408l1.993-2.159a.83.83,0,0,1,1.057-.151l3.88,2.536a.815.815,0,0,1,.3,1.027l-1.268,2.627a13.331,13.331,0,0,1,1.178,1.721l3.019-.181a.815.815,0,0,1,.861.649l.936,4.529a.815.815,0,0,1-.513.936l-2.793,1.027a12.487,12.487,0,0,1-.377,2.1l2.2,1.932a.83.83,0,0,1,.136,1.072l-2.551,3.88a.785.785,0,0,1-1.012.287l-2.612-1.193A11.836,11.836,0,0,1,73.611,49.6l.166,2.838a.815.815,0,0,1-.634.845l-4.529.951h-.166M64.16,48.953a.77.77,0,0,1,.257,0,10.115,10.115,0,0,0,2.929.513.83.83,0,0,1,.74.544l.891,2.416,3.17-.664L71.981,49.1a.815.815,0,0,1,.453-.77,10.568,10.568,0,0,0,2.355-1.646.815.815,0,0,1,.891-.151l2.461,1.132,1.706-2.521-2.068-1.827a.8.8,0,0,1-.226-.861,10.568,10.568,0,0,0,.5-2.733A.8.8,0,0,1,78.578,39l2.627-.966-.664-3.17-2.808.181a.815.815,0,0,1-.785-.453,9.9,9.9,0,0,0-1.51-2.25.83.83,0,0,1-.136-.891L76.5,28.9l-2.733-1.872-1.857,2.1a.83.83,0,0,1-.876.226,9.964,9.964,0,0,0-2.718-.468.845.845,0,0,1-.725-.544l-.951-2.582-3.17.664.166,2.687a.815.815,0,0,1-.468.785,10.16,10.16,0,0,0-2.4,1.661.83.83,0,0,1-.891.136L57.457,30.58,55.691,33.3,57.623,35a.8.8,0,0,1,.226.891,10.085,10.085,0,0,0-.574,2.914.83.83,0,0,1-.528.725l-2.4.876L55,43.563l2.536-.151a.861.861,0,0,1,.785.453,10.357,10.357,0,0,0,1.691,2.491.815.815,0,0,1,.151.891l-1.072,2.295,2.7,1.646L63.5,49.27A.785.785,0,0,1,64.1,49m3.5-3.352a6.507,6.507,0,1,1,6.341-4.952h0A6.552,6.552,0,0,1,67.6,45.617m0-11.383a4.88,4.88,0,0,0-1.253,9.6h0A4.881,4.881,0,0,0,68.8,34.384h0a4.529,4.529,0,0,0-1.193-.151" transform="translate(12.444 -7.169)" fill="#12263f"/>
        <path id="Trazado_34207" data-name="Trazado 34207" d="M74.963,63.755a19.174,19.174,0,0,0-.317-5.254l5.043-3.487L76.05,47.691l-5.722,1.842a20.019,20.019,0,0,0-4.091-3.638l1.072-5.812-7.79-2.612-2.642,5.148a20.351,20.351,0,0,0-5.662.332l-3.231-4.68-7.368,3.623,1.721,5.435a19.868,19.868,0,0,0-3.789,4.318l-5.662-1.072L30.26,58.319l5.178,2.6a19.627,19.627,0,0,0,.468,5.646l-4.831,3.291,3.638,7.322,5.722-1.812A19.627,19.627,0,0,0,44.6,78.912L43.455,84.8l7.79,2.612,2.778-5.36a19.884,19.884,0,0,0,5.269-.393l3.548,4.922,7.352-3.638-1.917-5.9A19.626,19.626,0,0,0,71.7,73.13l6.13,1.117L80.474,66.5ZM55.337,72.209a10.04,10.04,0,1,1,7.121-2.962,10.04,10.04,0,0,1-7.121,2.962" transform="translate(1.067 -0.291)" fill="#fd8f25"/>
        <path id="Trazado_34208" data-name="Trazado 34208" d="M51.652,89.089a1.646,1.646,0,0,1-.393,0l-7.79-2.627a1.238,1.238,0,0,1-.815-1.389l.936-5.088A21.047,21.047,0,0,1,40.4,77.268L35.5,78.777a1.238,1.238,0,0,1-1.51-.619l-3.638-7.337a1.223,1.223,0,0,1,.408-1.51l4.106-2.838a20.94,20.94,0,0,1-.317-4.348l-4.393-2.28a1.223,1.223,0,0,1-.619-1.51l2.627-7.745a1.253,1.253,0,0,1,1.389-.815l4.846.876a19.838,19.838,0,0,1,2.929-3.337l-1.51-4.65a1.223,1.223,0,0,1,.619-1.51L47.8,37.516a1.253,1.253,0,0,1,1.51.408l2.823,4.061a21.272,21.272,0,0,1,4.378-.257l2.28-4.439a1.208,1.208,0,0,1,1.51-.6l7.79,2.612a1.253,1.253,0,0,1,.815,1.4l-.891,5.073a20.985,20.985,0,0,1,3.125,2.778l4.952-1.6a1.223,1.223,0,0,1,1.51.634l3.654,7.322a1.253,1.253,0,0,1-.408,1.51l-4.393,3.019a20.562,20.562,0,0,1,.242,3.971l4.741,2.476a1.223,1.223,0,0,1,.6,1.51l-2.627,7.745a1.238,1.238,0,0,1-1.389.815l-5.36-1.012A19.717,19.717,0,0,1,70.1,77.962l1.676,5.148a1.238,1.238,0,0,1-.634,1.51L63.79,88.183a1.268,1.268,0,0,1-1.51-.408l-3.019-4.408a20.865,20.865,0,0,1-3.986.3l-2.431,4.725a1.223,1.223,0,0,1-1.1.679m-6.371-4.68,5.767,1.948,2.31-4.529a1.208,1.208,0,0,1,1.163-.664,19.477,19.477,0,0,0,4.952-.362,1.223,1.223,0,0,1,1.268.5l2.823,4.227,5.45-2.672-1.51-4.892a1.238,1.238,0,0,1,.362-1.313,18.645,18.645,0,0,0,3.08-3.684,1.238,1.238,0,0,1,1.253-.528l5.088.921L79.31,67.62l-4.529-2.31a1.238,1.238,0,0,1-.679-1.193,18.117,18.117,0,0,0-.287-4.937,1.238,1.238,0,0,1,.513-1.253l4.257-2.869L75.9,49.639l-4.71,1.51a1.238,1.238,0,0,1-1.313-.377,18.328,18.328,0,0,0-3.835-3.412,1.238,1.238,0,0,1-.528-1.253l.876-4.771L60.619,39.4,58.46,43.616a1.253,1.253,0,0,1-1.208.664,18.5,18.5,0,0,0-5.314.317,1.238,1.238,0,0,1-1.253-.513l-2.733-3.865L42.5,42.936l1.434,4.393a1.253,1.253,0,0,1-.393,1.329A18.117,18.117,0,0,0,40,52.7a1.253,1.253,0,0,1-1.253.544l-4.529-.83-1.932,5.722,4.182,2.129a1.208,1.208,0,0,1,.664,1.178,18.313,18.313,0,0,0,.408,5.284,1.238,1.238,0,0,1-.513,1.283l-3.9,2.687,2.687,5.42,4.635-1.51a1.253,1.253,0,0,1,1.313.347,18.238,18.238,0,0,0,3.9,3.321,1.223,1.223,0,0,1,.559,1.268Zm10.4-10.568a11.278,11.278,0,1,1,0-22.54h.075a11.278,11.278,0,1,1,0,22.54h0m0-20.08h0a8.8,8.8,0,0,0,0,17.6h0a8.8,8.8,0,1,0,0-17.6" transform="translate(0.661 -0.73)" fill="#12263f"/>
        <path id="Trazado_34209" data-name="Trazado 34209" d="M29.011,52.234a9.647,9.647,0,1,0-9.451-9.828c0,.242,0,.483,0,.71A9.8,9.8,0,0,0,29,52.173" transform="translate(-4.387 -2.599)" fill="#12263f"/>
        <path id="Trazado_34210" data-name="Trazado 34210" d="M28.587,74.889,21.038,74a4.424,4.424,0,0,1-4.031-4.831V69l2.748-19.249a4.7,4.7,0,0,1,5.209-3.91A11.731,11.731,0,0,1,35.531,58.69v.393L33.825,70.994a4.7,4.7,0,0,1-5.209,3.91" transform="translate(-5.699 3.958)" fill="#12263f"/>
        <path id="Trazado_34211" data-name="Trazado 34211" d="M37.787,93.483a3.759,3.759,0,0,1-3.669-3.352l-1.781-15.6L23.43,67.214a3.774,3.774,0,1,1,4.529-6.039l.272.226,11.263,9.255,2.068,18.66a3.759,3.759,0,0,1-3.337,4.152h-.408" transform="translate(-3.184 11.407)" fill="#12263f"/>
        <path id="Trazado_34212" data-name="Trazado 34212" d="M13.269,95.021A3.774,3.774,0,0,1,9.9,89.57l8.379-16.743L21.2,62.35a3.761,3.761,0,1,1,7.337,1.661,1.691,1.691,0,0,1-.091.347L25.347,75.545l-8.7,17.377a3.789,3.789,0,0,1-3.382,2.1" transform="translate(-9.51 10.897)" fill="#12263f"/>
        <path id="Trazado_34213" data-name="Trazado 34213" d="M36.347,63.06,23.861,54.651a3.1,3.1,0,1,1,3.412-5.178h0l10.568,7.141,8.137-.876a3.1,3.1,0,1,1,.679,6.16Z" transform="translate(-2.906 5.566)" fill="#12263f"/>
        <path id="Trazado_34214" data-name="Trazado 34214" d="M81.641,56.384a9.647,9.647,0,1,0-9.451-9.828v.725a9.8,9.8,0,0,0,9.436,9.058" transform="translate(22.44 -0.484)" fill="#12263f"/>
        <path id="Trazado_34215" data-name="Trazado 34215" d="M70.84,76.255l-7.02-2.9a4.424,4.424,0,0,1-2.506-5.737.543.543,0,0,1,0-.136L69.164,49.7a4.7,4.7,0,0,1,6.039-2.37,11.746,11.746,0,0,1,6.628,15.2l-.151.362L76.818,73.9a4.7,4.7,0,0,1-6.039,2.355" transform="translate(16.74 4.555)" fill="#12263f"/>
        <path id="Trazado_34216" data-name="Trazado 34216" d="M77.223,95.62H76.8a3.774,3.774,0,0,1-3.261-4.212L75.548,75.8l-8.787-8.062a3.761,3.761,0,1,1,5.088-5.541L83.5,72.9,81,92.374a3.744,3.744,0,0,1-3.789,3.246" transform="translate(19.052 11.807)" fill="#12263f"/>
        <path id="Trazado_34217" data-name="Trazado 34217" d="M59.269,96.183a3.759,3.759,0,0,1-3.759-3.774,3.669,3.669,0,0,1,.3-1.51l6.749-15.852.468-11.172a3.774,3.774,0,0,1,7.549,0c0,.121,0,.242,0,.347l-.528,12.531L62.727,93.858a3.759,3.759,0,0,1-3.457,2.325" transform="translate(13.938 11.244)" fill="#12263f"/>
        <path id="Trazado_34218" data-name="Trazado 34218" d="M55.977,63.528a3.11,3.11,0,0,1-1.631-5.752l13.588-8.319,8.847-1.615A3.095,3.095,0,0,1,77.9,53.881l-7.7,1.4L57.592,63.06a3.019,3.019,0,0,1-1.615.468" transform="translate(12.596 4.993)" fill="#12263f"/>
      </g>
    </g>
  </g>
</svg>
