<svg xmlns="http://www.w3.org/2000/svg" xmlns:xlink="http://www.w3.org/1999/xlink" width="156" height="156" viewBox="0 0 156 156">
  <defs>
    <clipPath id="clip-path">
      <rect id="Rectángulo_4680" data-name="Rectángulo 4680" width="86.432" height="77.777" fill="none"/>
    </clipPath>
  </defs>
  <g id="Grupo_18912" data-name="Grupo 18912" transform="translate(-422 -5483)">
    <g id="Elipse_980" data-name="Elipse 980" transform="translate(422 5483)" fill="#fff" stroke="#fd8f25" stroke-width="2">
      <circle cx="78" cy="78" r="78" stroke="none"/>
      <circle cx="78" cy="78" r="77" fill="none"/>
    </g>
    <g id="Grupo_18525" data-name="Grupo 18525" transform="translate(457 5522.412)" clip-path="url(#clip-path)">
      <path id="Trazado_34107" data-name="Trazado 34107" d="M48.539,52.481a8.205,8.205,0,1,0-7.771-7.763,8.206,8.206,0,0,0,7.771,7.763" transform="translate(-32.527 -28.796)" fill="#7eb9c7"/>
      <path id="Trazado_34108" data-name="Trazado 34108" d="M25.083,137.422v11.707h-5.96v17.838c4.061.286,6.026,5.154,6.026,5.154H11.918V148.986h-5.5V131.751c0-6.585,5.567-9.878,5.567-9.878" transform="translate(-5.12 -97.265)" fill="#7eb9c7"/>
      <path id="Trazado_34109" data-name="Trazado 34109" d="M316.823,52.481a8.205,8.205,0,1,1,7.771-7.763,8.206,8.206,0,0,1-7.771,7.763" transform="translate(-245.964 -28.796)" fill="#7eb9c7"/>
      <path id="Trazado_34110" data-name="Trazado 34110" d="M342.029,121.874s5.568,3.292,5.568,9.878v17.236h-5.5v23.135H328.863s1.965-4.867,6.026-5.154V149.13h-5.96V137.423" transform="translate(-262.459 -97.265)" fill="#7eb9c7"/>
      <path id="Trazado_34111" data-name="Trazado 34111" d="M102.12,132.706l7.4,7.4,5.215-.062a3.912,3.912,0,0,0,.149,1.31,7.967,7.967,0,0,0,2.747,3.479q.486.415.959.841h-13.2L97.5,137.781" transform="translate(-77.814 -105.91)" fill="#7eb9c7"/>
      <path id="Trazado_34112" data-name="Trazado 34112" d="M250.252,132.706l-7.4,7.4-5.215-.062a3.907,3.907,0,0,1-.149,1.31,7.966,7.966,0,0,1-2.746,3.479c-.324.277-.642.558-.959.841h13.2l7.894-7.894" transform="translate(-186.576 -105.91)" fill="#7eb9c7"/>
      <path id="Trazado_34113" data-name="Trazado 34113" d="M197.023,155.017a3.829,3.829,0,0,0-3.869-3.549c-1.35,0-2.539,1.223-3.234,2.242-.7-1.019-1.884-2.242-3.234-2.242a3.849,3.849,0,0,0-3.408,2.028,3.661,3.661,0,0,0-.423,1.522" transform="translate(-145.934 -120.884)" fill="#7eb9c7"/>
      <path id="Trazado_34114" data-name="Trazado 34114" d="M201.946,196.933c.9.809,1.791,1.635,2.722,2.42.669.565.771.45,1.324-.1.731-.729,1.557-1.516,2.375-2.319" transform="translate(-161.169 -157.169)" fill="#7eb9c7"/>
      <path id="Trazado_34115" data-name="Trazado 34115" d="M195.653,150.518q-.006-.149-.022-.3a4.259,4.259,0,0,0-3.869-3.9,4.038,4.038,0,0,0-3.724,2.126,4.036,4.036,0,0,0-3.746-2.125,4.265,4.265,0,0,0-3.854,3.978,4.746,4.746,0,0,0,.137,1.626,1.984,1.984,0,0,0,.45.833L188,160.375l6.761-7.4a3.446,3.446,0,0,0,.895-2.453" transform="translate(-143.99 -116.768)" fill="#7eb9c7"/>
      <path id="Trazado_34116" data-name="Trazado 34116" d="M43.831,48.669q-.238,0-.477-.012a9.53,9.53,0,1,1,.477.012m.006-16.41a6.91,6.91,0,0,0-6.895,7.275,6.963,6.963,0,0,0,6.542,6.536,6.91,6.91,0,0,0,7.258-7.263A6.961,6.961,0,0,0,44.2,32.268q-.184-.009-.366-.009" transform="translate(-27.407 -23.678)" fill="#3d4451"/>
      <path id="Trazado_34117" data-name="Trazado 34117" d="M21.948,168.295H5.5V145.161H0V126.629c0-7.241,5.95-10.843,6.2-10.993a1.3,1.3,0,1,1,1.319,2.23,10.739,10.739,0,0,0-4.931,8.762v15.94h5.5V165.7H17.8a5.544,5.544,0,0,0-3.891-2.566l-1.2-.085v-20.34h5.96V132.3a1.3,1.3,0,0,1,2.591,0v13H15.3v15.448c3.982,1.045,5.847,5.553,5.932,5.763Z" transform="translate(0 -92.143)" fill="#3d4451"/>
      <path id="Trazado_34118" data-name="Trazado 34118" d="M311.29,48.668a9.488,9.488,0,1,1,.477-.012q-.239.012-.477.012m-.005-16.41c-.122,0-.244,0-.367.009a6.961,6.961,0,0,0-6.539,6.538,6.91,6.91,0,0,0,7.258,7.263,6.963,6.963,0,0,0,6.542-6.536,6.91,6.91,0,0,0-6.895-7.275" transform="translate(-240.844 -23.677)" fill="#3d4451"/>
      <path id="Trazado_34119" data-name="Trazado 34119" d="M335.8,168.3H319.354l.719-1.781c.085-.209,1.95-4.717,5.932-5.763V145.3h-5.96v-13a1.3,1.3,0,1,1,2.591,0v10.412h5.96v20.34l-1.2.085a5.561,5.561,0,0,0-3.883,2.566h9.7V142.57h5.5V126.63c0-5.779-4.882-8.733-4.931-8.762a1.3,1.3,0,1,1,1.319-2.23c.253.15,6.2,3.752,6.2,10.993v18.531h-5.5Z" transform="translate(-254.87 -92.144)" fill="#3d4451"/>
      <path id="Trazado_34120" data-name="Trazado 34120" d="M116.861,141.848H99.737l-8.273-8.273a1.3,1.3,0,0,1,1.832-1.832l7.514,7.514h9.323a6.727,6.727,0,0,1-1.614-2.664q-.051-.179-.091-.361l-4.559.055L96.083,128.5a1.3,1.3,0,1,1,1.832-1.832l7.015,7.015,6.055-.072L110.908,135a2.609,2.609,0,0,0,.1.877,6.937,6.937,0,0,0,2.344,2.854c.3.253.608.526.981.861Z" transform="translate(-72.693 -100.788)" fill="#3d4451"/>
      <path id="Trazado_34121" data-name="Trazado 34121" d="M234.1,141.848H216.978l2.529-2.261c.376-.336.687-.609.98-.86a6.939,6.939,0,0,0,2.344-2.854,2.613,2.613,0,0,0,.1-.877l-.078-1.385,6.056.072,7.015-7.015a1.3,1.3,0,1,1,1.832,1.832l-7.787,7.787-4.559-.055q-.039.181-.091.361a6.727,6.727,0,0,1-1.614,2.663h9.323l7.514-7.514a1.3,1.3,0,0,1,1.832,1.832Z" transform="translate(-173.166 -100.788)" fill="#3d4451"/>
      <path id="Trazado_34122" data-name="Trazado 34122" d="M177.736,151.193l-.074,0a1.3,1.3,0,0,1-1.22-1.367,4.943,4.943,0,0,1,.572-2.057,5.136,5.136,0,0,1,4.552-2.715,4.743,4.743,0,0,1,3.234,1.525,4.746,4.746,0,0,1,3.234-1.525,5.148,5.148,0,0,1,2.941.893,5.235,5.235,0,0,1,2.222,3.886,1.3,1.3,0,0,1-2.588.132,2.534,2.534,0,0,0-2.574-2.32,3.33,3.33,0,0,0-2.164,1.677l-1.07,1.568-1.07-1.568a3.327,3.327,0,0,0-2.164-1.677,2.55,2.55,0,0,0-2.264,1.341,2.372,2.372,0,0,0-.273.987,1.3,1.3,0,0,1-1.292,1.222" transform="translate(-140.813 -115.763)" fill="#3d4451"/>
      <path id="Trazado_34123" data-name="Trazado 34123" d="M200.217,195.9a2.38,2.38,0,0,1-1.506-.68c-.674-.569-1.329-1.162-1.962-1.734q-.393-.356-.788-.71a1.3,1.3,0,0,1,1.727-1.932q.4.359.8.72c.538.487,1.092.988,1.649,1.467.379-.376.776-.76,1.192-1.163.333-.323.671-.651,1.009-.982a1.3,1.3,0,1,1,1.816,1.849c-.341.335-.684.667-1.021.994-.476.462-.926.9-1.347,1.318l-.019.018a2.274,2.274,0,0,1-1.55.836" transform="translate(-156.049 -152.047)" fill="#3d4451"/>
      <path id="Trazado_34124" data-name="Trazado 34124" d="M195.653,150.518q-.006-.149-.022-.3a4.259,4.259,0,0,0-3.869-3.9,4.038,4.038,0,0,0-3.724,2.126,4.036,4.036,0,0,0-3.746-2.125,4.265,4.265,0,0,0-3.854,3.978,4.746,4.746,0,0,0,.137,1.626,1.984,1.984,0,0,0,.45.833L188,160.375l6.761-7.4a3.446,3.446,0,0,0,.895-2.453" transform="translate(-143.99 -116.768)" fill="#f04f4c"/>
      <path id="Trazado_34125" data-name="Trazado 34125" d="M182.878,157.174l-7.928-8.667a3.293,3.293,0,0,1-.747-1.376,6.041,6.041,0,0,1-.176-2.069A5.566,5.566,0,0,1,179.1,139.9a5.215,5.215,0,0,1,3.823,1.362,5.212,5.212,0,0,1,3.793-1.364,5.569,5.569,0,0,1,5.088,5.061c.013.127.022.254.028.38h0a4.76,4.76,0,0,1-1.233,3.381Zm-3.48-14.689q-.075,0-.15,0a2.964,2.964,0,0,0-2.639,2.8,3.447,3.447,0,0,0,.1,1.183.691.691,0,0,0,.154.29l6.015,6.575,5.8-6.357a2.148,2.148,0,0,0,.557-1.526c0-.073-.008-.147-.016-.221a2.962,2.962,0,0,0-2.649-2.74,2.752,2.752,0,0,0-2.526,1.467l-1.129,2.008-1.129-2.008a2.768,2.768,0,0,0-2.391-1.471" transform="translate(-138.87 -111.647)" fill="#3d4451"/>
      <path id="Trazado_34126" data-name="Trazado 34126" d="M196.029,300.943v10.578l-7.15,4.033-7.15-4.033v-9.569" transform="translate(-145.035 -240.177)" fill="#fdc345"/>
      <path id="Trazado_34127" data-name="Trazado 34127" d="M177.949,322.889l-9.981-5.37V307.127h1.453v9.524l8.528,4.588,8.528-4.588v-9.524h1.453v10.392Z" transform="translate(-134.052 -245.112)" fill="#3d4451"/>
      <rect id="Rectángulo_4675" data-name="Rectángulo 4675" width="1.453" height="10.244" transform="translate(43.033 66.741)" fill="#3d4451"/>
      <path id="Trazado_34128" data-name="Trazado 34128" d="M196.029,257.623l-7.15,4.034-7.15-4.034v-8.067l7.15-4.034,7.15,4.034Z" transform="translate(-145.035 -195.947)" fill="#fdc345"/>
      <path id="Trazado_34129" data-name="Trazado 34129" d="M177.95,252.069l-9.981-5.37V235.873l9.981-5.37,9.981,5.37V246.7Zm-8.528-6.238,8.528,4.588,8.528-4.588v-9.09l-8.528-4.588-8.528,4.588Z" transform="translate(-134.053 -183.96)" fill="#3d4451"/>
      <rect id="Rectángulo_4676" data-name="Rectángulo 4676" width="1.453" height="10.244" transform="translate(43.033 57.073)" fill="#3d4451"/>
      <rect id="Rectángulo_4677" data-name="Rectángulo 4677" width="10.447" height="1.453" transform="translate(43.558 56.431) rotate(-26.928)" fill="#3d4451"/>
      <rect id="Rectángulo_4678" data-name="Rectángulo 4678" width="1.453" height="10.368" transform="translate(34.331 52.993) rotate(-62.846)" fill="#3d4451"/>
      <rect id="Rectángulo_4679" data-name="Rectángulo 4679" width="1.453" height="10.42" transform="translate(39.206 50.382) rotate(-61.945)" fill="#3d4451"/>
      <path id="Trazado_34130" data-name="Trazado 34130" d="M175.007,30.892a9.716,9.716,0,1,1,9.834,9.632,9.734,9.734,0,0,1-9.834-9.632" transform="translate(-139.669 -16.778)" fill="#fdc345"/>
      <path id="Trazado_34131" data-name="Trazado 34131" d="M197.271,34.591l.022,1.827-1.229.015-.022-1.776a6.867,6.867,0,0,1-3.191-.736l-.028-2.332a4.911,4.911,0,0,0,1.465.715,6.712,6.712,0,0,0,1.731.366l-.037-3.065a6.5,6.5,0,0,1-2.709-1.554,3.126,3.126,0,0,1-.745-2.075,3.06,3.06,0,0,1,.907-2.263A3.927,3.927,0,0,1,195.9,22.6l-.019-1.566,1.229-.015.019,1.532a6.243,6.243,0,0,1,2.659.54l.028,2.273a6.372,6.372,0,0,0-2.663-.843l.039,3.191a6.757,6.757,0,0,1,2.662,1.488,2.914,2.914,0,0,1,.825,2.057,2.974,2.974,0,0,1-.865,2.263,4.263,4.263,0,0,1-2.538,1.071m-1.319-7.351-.033-2.668q-1.167.224-1.155,1.235.011.867,1.188,1.433m1.264,2.831.031,2.55q1.2-.2,1.189-1.218-.01-.825-1.22-1.332" transform="translate(-153.652 -16.776)" fill="#3d4451"/>
      <path id="Trazado_34132" data-name="Trazado 34132" d="M166.166,23.481A11.74,11.74,0,0,1,166.025,0h.145a11.74,11.74,0,0,1,.141,23.48h-.145m0-22.281h-.13a10.538,10.538,0,1,0,.13,0" transform="translate(-123.246)" fill="#3d4451"/>
      <path id="Trazado_34133" data-name="Trazado 34133" d="M175.31,30.311a9.427,9.427,0,0,1-.112-18.853h.116a9.427,9.427,0,0,1,.113,18.853h-.118m0-18.168h-.108a8.745,8.745,0,1,0,.108,0" transform="translate(-132.391 -9.144)" fill="#3d4451"/>
    </g>
  </g>
</svg>
