<svg xmlns="http://www.w3.org/2000/svg" width="84" height="84" viewBox="0 0 84 84">
  <g id="Grupo_18921" data-name="Grupo 18921" transform="translate(-1279 -8500)">
    <circle id="Elipse_979" data-name="Elipse 979" cx="42" cy="42" r="42" transform="translate(1279 8500)" fill="#00ffe2"/>
    <path id="Trazado_35446" data-name="Trazado 35446" d="M1.714-.688V-4.717A8.131,8.131,0,0,0,6.636-3.179,4.431,4.431,0,0,0,9.4-3.94a2.529,2.529,0,0,0,.989-2.124A2.414,2.414,0,0,0,9.163-8.232,6.337,6.337,0,0,0,5.8-8.994H3.853v-3.545h1.8q4.1,0,4.1-2.725,0-2.563-3.149-2.563a7.18,7.18,0,0,0-4.1,1.362v-3.779a11.328,11.328,0,0,1,5.156-1.113,7.781,7.781,0,0,1,5.017,1.45,4.615,4.615,0,0,1,1.794,3.765q0,4.116-4.175,5.156v.073a5.676,5.676,0,0,1,3.516,1.619A4.564,4.564,0,0,1,15.1-6.006a5.636,5.636,0,0,1-2.153,4.658A9.31,9.31,0,0,1,7,.366,11.494,11.494,0,0,1,1.714-.688Z" transform="translate(1312 8548)" fill="#00223d"/>
  </g>
</svg>
