<svg xmlns="http://www.w3.org/2000/svg" xmlns:xlink="http://www.w3.org/1999/xlink" width="156" height="156" viewBox="0 0 156 156">
  <defs>
    <clipPath id="clip-path">
      <rect id="Rectángulo_4690" data-name="Rectángulo 4690" width="96.287" height="89.07" fill="none"/>
    </clipPath>
  </defs>
  <g id="Grupo_18915" data-name="Grupo 18915" transform="translate(-422 -6123)">
    <g id="Elipse_982" data-name="Elipse 982" transform="translate(422 6123)" fill="#fff" stroke="#fd8f25" stroke-width="2">
      <circle cx="78" cy="78" r="78" stroke="none"/>
      <circle cx="78" cy="78" r="77" fill="none"/>
    </g>
    <g id="Grupo_18537" data-name="Grupo 18537" transform="translate(448 6151.649)">
      <g id="Grupo_18536" data-name="Grupo 18536" clip-path="url(#clip-path)">
        <path id="Trazado_34153" data-name="Trazado 34153" d="M197.047,29.412a27.809,27.809,0,0,1,3.626-3.968,14.521,14.521,0,0,1,2.064-1.476,11.19,11.19,0,0,0-22.323.845,10.708,10.708,0,0,0,1.21,4.95,45.045,45.045,0,0,1,6.764,5.535,11.392,11.392,0,0,0,5.014.314c.357-2.33,2.262-4.427,3.645-6.2" transform="translate(-136.353 -10.481)" fill="#fdc345"/>
        <path id="Trazado_34154" data-name="Trazado 34154" d="M198.864,290.692c2.115,0,3.681-2.409,3.237-4.954-1.848-10.6-9.531-18.4-18.742-18.4h-7.964c-9.209,0-16.89,7.851-18.741,18.467-.444,2.55,1.128,4.957,3.247,4.953Z" transform="translate(-118.34 -202.052)" fill="#7eb9c7"/>
        <path id="Trazado_34155" data-name="Trazado 34155" d="M134.173,121.912s-22.12,9.746-29.879-18.92c0,0,33.625-1.362,29.879,18.92" transform="translate(-78.824 -77.825)" fill="#6b968b"/>
        <path id="Trazado_34156" data-name="Trazado 34156" d="M236.9,101.933s-5.032-27.768,38.3-25.294c0,0-12.175,36.984-38.3,25.294" transform="translate(-178.912 -57.805)" fill="#6b968b"/>
        <path id="Trazado_34157" data-name="Trazado 34157" d="M242.613,82.24a25.269,25.269,0,0,1-8.2-1.445l-.485-.166-.124-.5a21.258,21.258,0,0,1,3.813-16.851c5.758-7.657,16.808-11.845,32.844-12.448l1.264-.047-.317,1.224a62.506,62.506,0,0,1-4.3,11.079c-4.968,9.955-10.617,14.525-14.481,16.6a20.857,20.857,0,0,1-10.013,2.546m-7.072-3.056c5.843,1.876,11.286,1.491,16.188-1.146,10.763-5.789,16.124-20.847,17.5-25.266-14.712.749-24.828,4.654-30.081,11.614a19.757,19.757,0,0,0-3.605,14.8" transform="translate(-176.399 -38.383)" fill="#3d4451"/>
        <path id="Trazado_34158" data-name="Trazado 34158" d="M125.024,97.525a23,23,0,0,1-12.293-3.436c-6.574-4.13-10.916-11.7-12.907-22.505l-.232-1.257,1.269.151A67.949,67.949,0,0,1,112.2,73.045c8.2,2.607,13.9,6.208,16.939,10.7a14.646,14.646,0,0,1,1.875,12.511l-.14.522-.521.142a21.819,21.819,0,0,1-5.326.6m5.078-1.51h0ZM101.929,72.539c1.988,9.571,5.955,16.282,11.8,19.956a22.127,22.127,0,0,0,15.6,2.731,12.713,12.713,0,0,0-1.752-10.419c-5.719-8.456-21.088-11.527-25.649-12.267" transform="translate(-75.27 -53.152)" fill="#3d4451"/>
        <path id="Trazado_34159" data-name="Trazado 34159" d="M230.17,178.952a1.177,1.177,0,0,1-1.177-1.177V154.059a1.177,1.177,0,0,1,2.354,0v23.716a1.177,1.177,0,0,1-1.177,1.177" transform="translate(-173.069 -115.546)" fill="#3d4451"/>
        <path id="Trazado_34160" data-name="Trazado 34160" d="M238.31,113.732a.942.942,0,0,1-.558-1.7l22.291-16.366a.941.941,0,0,1,1.114,1.518l-22.292,16.366a.936.936,0,0,1-.556.183" transform="translate(-179.399 -72.164)" fill="#3d4451"/>
        <path id="Trazado_34161" data-name="Trazado 34161" d="M161.8,122.088a.938.938,0,0,1-.571-.194l-21.964-16.8a.941.941,0,1,1,1.144-1.5l21.965,16.8a.942.942,0,0,1-.573,1.689" transform="translate(-104.973 -78.151)" fill="#3d4451"/>
        <path id="Trazado_34162" data-name="Trazado 34162" d="M129.178,276.151a4.437,4.437,0,0,1-3.411-1.666,6.4,6.4,0,0,1-1.3-5.181,28.99,28.99,0,0,1,7.776-15.52,20.541,20.541,0,0,1,14.472-6.252h9.01a20.586,20.586,0,0,1,14.472,6.215,28.8,28.8,0,0,1,7.777,15.477,6.4,6.4,0,0,1-1.3,5.175,4.44,4.44,0,0,1-3.409,1.673l-44.081.079Zm44.086-1.14h0Zm-26.552-25.357a18.192,18.192,0,0,0-12.975,5.633,26.852,26.852,0,0,0-7.183,14.382,4.258,4.258,0,0,0,.835,3.449,2.355,2.355,0,0,0,1.788.911h0l44.081-.079a2.356,2.356,0,0,0,1.788-.915,4.262,4.262,0,0,0,.832-3.447,26.667,26.667,0,0,0-7.18-14.334,18.237,18.237,0,0,0-12.979-5.6Z" transform="translate(-93.993 -187.081)" fill="#3d4451"/>
        <path id="Trazado_34163" data-name="Trazado 34163" d="M214.774,49.474v1.92a.044.044,0,0,1-.044.044h-1.26a.044.044,0,0,1-.044-.044V49.533a.043.043,0,0,0-.043-.043,7.515,7.515,0,0,1-3.421-.836.044.044,0,0,1-.024-.04V46.174a.042.042,0,0,1,.068-.034,5.644,5.644,0,0,0,1.528.749,7.431,7.431,0,0,0,1.845.421.044.044,0,0,0,.047-.044V43.984a.043.043,0,0,0-.029-.041,7.083,7.083,0,0,1-2.919-1.729,3.251,3.251,0,0,1-.614-1.105,3.652,3.652,0,0,1,1.577-4.215,4.674,4.674,0,0,1,1.946-.614.043.043,0,0,0,.039-.042V34.6a.044.044,0,0,1,.044-.043h1.26a.044.044,0,0,1,.044.043V36.2a.044.044,0,0,0,.042.043,6.848,6.848,0,0,1,2.842.613.045.045,0,0,1,.023.039v2.389a.043.043,0,0,1-.065.037,6.976,6.976,0,0,0-2.792-.915.045.045,0,0,0-.05.044v3.418a.044.044,0,0,0,.029.041,7.359,7.359,0,0,1,2.868,1.655,3.194,3.194,0,0,1,.877,2.265,3.259,3.259,0,0,1-.978,2.468,4.642,4.642,0,0,1-2.757,1.135.043.043,0,0,0-.039.043m-1.347-8.185v-2.8a.046.046,0,0,0-.054-.043q-1.229.244-1.228,1.328,0,.926,1.217,1.554a.045.045,0,0,0,.065-.039m1.347,3.259v2.675a.045.045,0,0,0,.053.044q1.267-.217,1.267-1.311,0-.882-1.256-1.448a.045.045,0,0,0-.063.04" transform="translate(-158.483 -26.121)" fill="#3d4451"/>
        <path id="Trazado_34164" data-name="Trazado 34164" d="M189.82,14.64c.553-.292,1.1-.585,1.653-.886A17.5,17.5,0,0,0,156.887,17.5c0,.3.01.6.025.9q.932.328,1.852.686A15.7,15.7,0,0,1,189.82,14.64" transform="translate(-118.573 -0.001)" fill="#3d4451"/>
        <path id="Trazado_34165" data-name="Trazado 34165" d="M200.065,29.929l.281-.188c.322-.212.651-.413.982-.61a12.925,12.925,0,0,0-25.8,1.553,13.842,13.842,0,0,0,.265,2.691c.1.046.205.089.307.135q.614.277,1.228.563a12.347,12.347,0,0,1-.473-3.389,11.609,11.609,0,1,1,23.206-.755" transform="translate(-132.664 -13.065)" fill="#3d4451"/>
        <path id="Trazado_34166" data-name="Trazado 34166" d="M176.557,292.847c0-.78,1.212-1.412,2.707-1.412s2.707.633,2.707,1.412-1.212,1.412-2.707,1.412-2.707-.632-2.707-1.412" transform="translate(-133.439 -220.262)" fill="#3d4451"/>
        <path id="Trazado_34167" data-name="Trazado 34167" d="M222.819,277.427c0-.78,1.212-1.412,2.707-1.412s2.707.632,2.707,1.412-1.212,1.412-2.707,1.412-2.707-.632-2.707-1.412" transform="translate(-168.403 -208.608)" fill="#3d4451"/>
        <path id="Trazado_34168" data-name="Trazado 34168" d="M269.08,293.811c0-.78,1.212-1.412,2.707-1.412s2.707.632,2.707,1.412-1.212,1.412-2.707,1.412-2.707-.632-2.707-1.412" transform="translate(-203.367 -220.991)" fill="#3d4451"/>
        <path id="Trazado_34169" data-name="Trazado 34169" d="M48.284,198.589a6.413,6.413,0,1,0-6.067-6.074,6.413,6.413,0,0,0,6.067,6.074" transform="translate(-31.901 -140.404)" fill="#4b5360"/>
        <path id="Trazado_34170" data-name="Trazado 34170" d="M33.122,208.573l-.441-.493a2,2,0,0,0-3.053,0l-7.895,8.826h-.569a8.332,8.332,0,0,0-4.493-1.391,8.336,8.336,0,0,0-4.519,1.391h-.13L4.127,208.08a2,2,0,0,0-3.053,0l-.441.493a2.62,2.62,0,0,0,0,3.414l7.674,8.579v10.077a3.078,3.078,0,0,0,1.77,2.785v9.406a2.265,2.265,0,0,0,2.265,2.265H13.67a2.265,2.265,0,0,0,2.265-2.265v-9.11H17.5v9.11a2.265,2.265,0,0,0,2.265,2.265H21.09a2.265,2.265,0,0,0,2.265-2.265v-9.406a3.079,3.079,0,0,0,1.77-2.785V220.89h.035l7.963-8.9a2.62,2.62,0,0,0,0-3.414" transform="translate(0 -156.729)" fill="#4b5360"/>
      </g>
    </g>
  </g>
</svg>
