<svg xmlns="http://www.w3.org/2000/svg" width="84" height="84" viewBox="0 0 84 84">
  <g id="Grupo_18920" data-name="Grupo 18920" transform="translate(-918 -8498)">
    <circle id="Elipse_977" data-name="Elipse 977" cx="42" cy="42" r="42" transform="translate(918 8498)" fill="#00ffe2"/>
    <path id="Trazado_35445" data-name="Trazado 35445" d="M6.284-3.838H15.19V0H1.216V-1.582a7.364,7.364,0,0,1,.542-2.893,9.6,9.6,0,0,1,1.362-2.3,11.817,11.817,0,0,1,1.794-1.8Q5.889-9.36,6.768-9.99q.923-.659,1.619-1.26a9.224,9.224,0,0,0,1.172-1.194,4.539,4.539,0,0,0,.71-1.2,3.572,3.572,0,0,0,.234-1.3,2.605,2.605,0,0,0-.762-2.036,3.386,3.386,0,0,0-2.329-.688,7.823,7.823,0,0,0-5.186,2.153v-4.072a11.131,11.131,0,0,1,6.182-1.772,9.129,9.129,0,0,1,2.864.417,6.059,6.059,0,0,1,2.146,1.194,5.092,5.092,0,0,1,1.34,1.882A6.352,6.352,0,0,1,15.22-15.4a6.96,6.96,0,0,1-.447,2.578,7.922,7.922,0,0,1-1.187,2.051A10.763,10.763,0,0,1,11.88-9.075q-.967.769-2.007,1.487-.7.5-1.355.989a12.846,12.846,0,0,0-1.15.967,5.248,5.248,0,0,0-.791.93A1.606,1.606,0,0,0,6.284-3.838Z" transform="translate(951 8548)" fill="#00223d"/>
  </g>
</svg>
