<svg xmlns="http://www.w3.org/2000/svg" xmlns:xlink="http://www.w3.org/1999/xlink" width="151" height="151" viewBox="0 0 151 151">
  <defs>
    <clipPath id="clip-path">
      <rect id="Rectángulo_5797" data-name="Rectángulo 5797" width="139.183" height="91.007" fill="none"/>
    </clipPath>
  </defs>
  <g id="CF1_acordeon_copia_4" data-name="CF1_acordeon copia 4" transform="translate(-0.172)">
    <circle id="Elipse_4253" data-name="Elipse 4253" cx="75.5" cy="75.5" r="75.5" transform="translate(0.172)" fill="#bbabf5"/>
    <path id="Trazado_34265" data-name="Trazado 34265" d="M72.193,75.546,57.246,83.593,42.3,75.546V59.467L57.246,51.42l14.946,8.047Z" transform="translate(21.617 26.211)" fill="#f5fafc"/>
    <path id="Trazado_34266" data-name="Trazado 34266" d="M66.538,72.537,55.819,78.576,45.1,72.537V60.459L55.819,54.42l10.719,6.039Z" transform="translate(23.045 27.74)" fill="#fd8f25"/>
    <path id="Trazado_34267" data-name="Trazado 34267" d="M57.583,85.092,41.64,76.517V59.26l15.943-8.59,15.943,8.59V76.517Zm-13.89-9.768,13.965,7.549,13.95-7.549V60.438l-13.95-7.549L43.693,60.438Z" transform="translate(21.281 25.828)" fill="#3d4451"/>
    <rect id="Rectángulo_4724" data-name="Rectángulo 4724" width="1.978" height="16.547" transform="translate(77.867 93.302)" fill="#3d4451"/>
    <rect id="Rectángulo_4725" data-name="Rectángulo 4725" width="16.879" height="1.993" transform="matrix(0.892, -0.453, 0.453, 0.892, 70.892, 92.434)" fill="#3d4451"/>
    <rect id="Rectángulo_4726" data-name="Rectángulo 4726" width="1.978" height="16.743" transform="translate(70.95 86.549) rotate(-62.85)" fill="#3d4451"/>
    <g id="Grupo_18549" data-name="Grupo 18549" transform="translate(9.265 25.515)">
      <g id="Grupo_54892" data-name="Grupo 54892" clip-path="url(#clip-path)">
        <g id="Grupo_18548" data-name="Grupo 18548" transform="translate(0 0.052)">
          <path id="Trazado_34268" data-name="Trazado 34268" d="M41.715,63.462l3.608,9.164c-11.2,2.023-22.782,13.92-22.782,13.92l.755-13.92L12.29,68.1S26.527,53,39.058,53" transform="translate(-2.945 1.449)" fill="#ef2a66"/>
          <path id="Trazado_34269" data-name="Trazado 34269" d="M21.931,89.842l.876-16.109L11,68.932l1.117-1.193a72.469,72.469,0,0,1,8.847-7.654c6.99-5.133,13.3-7.745,18.736-7.745v2.234c-3.4,0-9.179,1.268-17.392,7.292a72.935,72.935,0,0,0-7.4,6.25L25.1,72.269,24.452,84.18c3.684-3.367,11.746-9.994,19.989-11.987l-3.11-7.987,2.083-.815,4.091,10.462-1.329.257C35.458,76.043,24.1,87.592,24,87.7Z" transform="translate(-3.602 1.113)" fill="#3d4451"/>
          <path id="Trazado_34270" data-name="Trazado 34270" d="M71.718,63.462,68.11,72.627c11.2,2.023,22.782,13.92,22.782,13.92l-.755-13.92L101.143,68.1S86.906,53,74.375,53" transform="translate(25.509 1.449)" fill="#ef2a66"/>
          <path id="Trazado_34271" data-name="Trazado 34271" d="M92.69,89.842l-2.083-2.129c-.106-.121-11.459-11.67-22.163-13.588L67.1,73.884l4.091-10.462,2.083.815L70.15,72.208c8.243,2.008,16.305,8.636,19.989,12.078l-.649-11.912L99.68,68.222a72.934,72.934,0,0,0-7.4-6.25C87.753,58.636,81.05,54.68,74.89,54.68V52.34c5.435,0,11.746,2.612,18.736,7.745a72.468,72.468,0,0,1,8.847,7.654l1.117,1.193L91.8,73.733Z" transform="translate(24.994 1.113)" fill="#3d4451"/>
          <path id="Trazado_34272" data-name="Trazado 34272" d="M114.093,55.906l-8.817,19.9c-23.99-18.026-52.7-18.011-76.68,0Q24.2,65.84,19.78,55.906c29.259-22.178,65.055-22.178,94.313,0" transform="translate(0.873 -5.548)" fill="#fff"/>
          <path id="Trazado_34273" data-name="Trazado 34273" d="M106.311,78.567c-24.156-18.781-53.384-18.766-77.525,0Q23.668,67.44,18.58,56.329C32.711,45.217,49.409,37.91,67.526,37.91s34.83,7.307,48.976,18.419L106.311,78.567M29.677,74.415c23.809-17.226,51.935-17.226,75.744,0l7.549-17.483c-28.323-20.683-62.413-20.683-90.72,0L29.8,74.415" transform="translate(0.262 -6.243)" fill="#3d4451"/>
          <path id="Trazado_34274" data-name="Trazado 34274" d="M106.972,55.683c-1.857,3.5-3.337,7.171-5.194,10.674C89.957,59.624,78.528,54.581,64.7,54.974S40.015,60.031,28.284,66.855A72.891,72.891,0,0,0,23,56.167C36.588,48.1,48.847,43.032,64.774,42.579s28.685,5,42.273,13.029" transform="translate(2.515 -3.876)" fill="#ef2a66"/>
          <path id="Trazado_34275" data-name="Trazado 34275" d="M102.9,68.11C90.926,61.18,79.377,55.851,65.321,56.258S40.138,61.633,28.227,68.593A81.783,81.783,0,0,0,21.78,56.334c6.945-4.122,13.874-8.575,21.574-11.142a75.215,75.215,0,0,1,21.967-3.186c16.8-.393,29.8,5.511,44.024,13.89-2.325,4.016-4.122,8.258-6.447,12.274M29.661,65.709c11.5-6.658,22.284-11.021,35.675-11.4s24.714,4.3,36.445,10.9c1.51-3.019,2.7-6.039,4.137-9.149C92.858,48.408,80.584,43.531,65.306,43.878S38.13,48.845,25.237,56.56a72.738,72.738,0,0,1,4.424,9.149" transform="translate(1.893 -4.164)" fill="#3d4451"/>
          <path id="Trazado_34276" data-name="Trazado 34276" d="M75.665,32.465H66.229v-13.5a1.51,1.51,0,0,0-.664-1.178h-5.4c-.891,0-1.117.453-1.117.453s-4.892,11.172-7.05,14.8a7.715,7.715,0,0,1-6.522,3.472V55.76h6.371l4.137,3.548H73.536a4.529,4.529,0,0,0,3.019-1.072l2.114-1.766a4.62,4.62,0,0,0,1.57-3.487V37.069A4.529,4.529,0,0,0,75.71,32.54" transform="translate(13.968 -16.499)" fill="#f5fafc"/>
          <path id="Trazado_34277" data-name="Trazado 34277" d="M73.9,35.034H65.021V24.466a1.268,1.268,0,0,0-.619-.936H59.3c-.83,0-1.042.347-1.042.347s-4.62,8.756-6.643,11.58-6.145,2.718-6.145,2.718v15.1h6.039l3.82,2.778H71.936a4.816,4.816,0,0,0,2.778-.845l1.993-1.374a3.412,3.412,0,0,0,1.51-2.763V38.642a3.563,3.563,0,0,0-2.1-3.095,5,5,0,0,0-2.234-.513" transform="translate(13.968 -13.573)" fill="#fd8f25"/>
          <path id="Trazado_34278" data-name="Trazado 34278" d="M73.99,61.118H55.873l-4.137-3.563H44.58v-22h1.389a6.341,6.341,0,0,0,5.284-2.778c2.083-3.518,6.93-14.554,6.975-14.66h0a2.446,2.446,0,0,1,2.295-1.178h5.812l.332.226a2.868,2.868,0,0,1,1.268,2.295V31.617h8.107a6.039,6.039,0,0,1,5.933,5.948V53.418a6.039,6.039,0,0,1-2.129,4.529l-2.114,1.766a5.948,5.948,0,0,1-3.8,1.374M56.915,58.43h17.06a3.306,3.306,0,0,0,2.1-.755l2.114-1.766A3.276,3.276,0,0,0,79.364,53.4v-15.9A3.276,3.276,0,0,0,76.1,34.229H65.339V19.555H60.583c-.876,1.978-5,11.263-6.975,14.6a8.681,8.681,0,0,1-6.341,4.016v16.7h5.5Z" transform="translate(13.515 -16.935)" fill="#3d4451"/>
          <rect id="Rectángulo_4727" data-name="Rectángulo 4727" width="21.182" height="25.333" transform="translate(40.672 17.068)" fill="#7eb9c7"/>
          <path id="Trazado_34279" data-name="Trazado 34279" d="M56.079,55.366H32.15V27.36H56.079ZM34.943,52.678H53.332V30.032H34.852Z" transform="translate(7.179 -11.62)" fill="#3d4451"/>
          <rect id="Rectángulo_4728" data-name="Rectángulo 4728" width="17.785" height="4.982" transform="translate(42.424 18.653)" fill="#f5fafc"/>
          <path id="Trazado_34280" data-name="Trazado 34280" d="M18,45l3.925-5.073a.83.83,0,0,0,.136-.83l-2.37-5.948,5.073,3.925a.861.861,0,0,0,.83.121l5.994-2.37-3.925,5.058a.876.876,0,0,0-.121.83L29.9,46.753l-5.058-3.925a.83.83,0,0,0-.83-.121Z" transform="translate(-0.034 -8.669)" fill="#fd8f25"/>
          <path id="Trazado_34281" data-name="Trazado 34281" d="M32.2,49.545,25.09,44.034a.151.151,0,0,0-.136,0L16.59,47.356,22.1,40.245a.151.151,0,0,0,0-.136L18.779,31.73l7.111,5.526a.151.151,0,0,0,.136,0L34.4,33.949l-5.5,7.1a.136.136,0,0,0,0,.136Zm-7.186-6.96a1.51,1.51,0,0,1,.951.317l3.019,2.34-1.419-3.548a1.51,1.51,0,0,1,.226-1.51l2.34-3.019-3.548,1.4a1.51,1.51,0,0,1-1.51-.211l-3.019-2.34,1.4,3.548a1.51,1.51,0,0,1-.211,1.51l-2.34,3.019,3.533-1.389a1.51,1.51,0,0,1,.574-.121" transform="translate(-0.753 -9.393)" fill="#3d4451"/>
          <path id="Trazado_34282" data-name="Trazado 34282" d="M7.21,60.038l2.808-4.907a.8.8,0,0,0,0-.74L7.21,49.47l4.907,2.808a.725.725,0,0,0,.74,0l4.922-2.808L14.97,54.392a.8.8,0,0,0,0,.74l2.808,4.907L12.932,57.23a.8.8,0,0,0-.74,0Z" transform="translate(-5.534 -0.35)" fill="#fd8f25"/>
          <path id="Trazado_34283" data-name="Trazado 34283" d="M20.02,62.28l-6.9-3.9H13l-6.9,3.9,3.94-6.915a.166.166,0,0,0,0-.121L6.1,48.36,13,52.346a.091.091,0,0,0,.121,0l6.9-3.94-3.94,6.9a.166.166,0,0,0,0,.121ZM9.452,51.712l1.676,2.929a1.359,1.359,0,0,1,0,1.359L9.452,58.928l2.929-1.676a1.359,1.359,0,0,1,1.359,0l2.914,1.676L15.007,56a1.359,1.359,0,0,1,0-1.359l1.661-2.929-2.914,1.676a1.359,1.359,0,0,1-1.359,0Z" transform="translate(-6.1 -0.916)" fill="#3d4451"/>
          <path id="Trazado_34284" data-name="Trazado 34284" d="M75.37,33.42l5.677,3.246a.876.876,0,0,0,.861,0l5.677-3.246L84.338,39.1a.876.876,0,0,0,0,.861l3.246,5.677-5.677-3.246a.966.966,0,0,0-.861,0L75.37,45.634,78.6,39.957a.876.876,0,0,0,0-.861Z" transform="translate(29.21 -8.531)" fill="#fd8f25"/>
          <path id="Trazado_34285" data-name="Trazado 34285" d="M90.189,48.239,82.2,43.71h-.136L74.08,48.239l4.529-7.987a.211.211,0,0,0,0-.136L74.08,32.13l7.987,4.529a.121.121,0,0,0,.136,0l7.987-4.529L85.66,40.117a.211.211,0,0,0,0,.136ZM77.96,36.025l1.932,3.457a1.615,1.615,0,0,1,0,1.51L77.96,44.374,81.342,42.5a1.646,1.646,0,0,1,1.51,0l3.382,1.932-1.857-3.442a1.615,1.615,0,0,1,0-1.51L86.309,36.1l-3.382,1.872a1.646,1.646,0,0,1-1.51,0Z" transform="translate(28.552 -9.189)" fill="#3d4451"/>
          <path id="Trazado_34286" data-name="Trazado 34286" d="M88.915,47.63l5.692,3.246a.845.845,0,0,0,.845,0l5.677-3.246-3.246,5.677a.876.876,0,0,0,0,.861l3.246,5.677-5.692-3.231a.845.845,0,0,0-.845,0L88.9,59.844l3.261-5.616a.876.876,0,0,0,0-.861Z" transform="translate(36.106 -1.288)" fill="#fd8f25"/>
          <path id="Trazado_34287" data-name="Trazado 34287" d="M103.729,62.439,95.742,57.91a.136.136,0,0,0-.151,0L87.62,62.439l4.529-7.987a.106.106,0,0,0,0-.136L87.62,46.33l7.971,4.529h.151l7.971-4.529-4.529,7.987a.121.121,0,0,0,0,.136ZM91.515,50.21l1.932,3.382a1.615,1.615,0,0,1,0,1.51l-1.932,3.472L94.9,56.642a1.51,1.51,0,0,1,1.51,0l3.382,1.932-1.932-3.4a1.615,1.615,0,0,1,0-1.51l1.932-3.382-3.382,1.932a1.615,1.615,0,0,1-1.51,0Z" transform="translate(35.454 -1.951)" fill="#3d4451"/>
        </g>
      </g>
    </g>
  </g>
</svg>
