<svg id="CF1_acordeon_copia_2" data-name="CF1_acordeon copia 2" xmlns="http://www.w3.org/2000/svg" xmlns:xlink="http://www.w3.org/1999/xlink" width="150" height="151" viewBox="0 0 150 151">
  <defs>
    <clipPath id="clip-path">
      <rect id="Rectángulo_5795" data-name="Rectángulo 5795" width="142.444" height="132.978" fill="none"/>
    </clipPath>
  </defs>
  <ellipse id="Elipse_4251" data-name="Elipse 4251" cx="75" cy="75.5" rx="75" ry="75.5" fill="#bbabf5"/>
  <g id="Grupo_54890" data-name="Grupo 54890" transform="translate(7.35 8.998)" clip-path="url(#clip-path)">
    <g id="Grupo_18544" data-name="Grupo 18544" transform="translate(-0.06 -0.015)">
      <path id="Trazado_34243" data-name="Trazado 34243" d="M16.26,66.075a48.723,48.723,0,1,0,0-.01v.01" transform="translate(0.74 -0.159)" fill="#56ffe8"/>
      <path id="Trazado_34244" data-name="Trazado 34244" d="M62,80.978a19.083,19.083,0,1,1,19.1,19.068h0A19.083,19.083,0,0,1,62,80.978" transform="translate(24.055 22.56)" fill="#ef2a66"/>
      <path id="Trazado_34245" data-name="Trazado 34245" d="M81.562,101.9a20.472,20.472,0,1,1,20.472-20.472A20.472,20.472,0,0,1,81.562,101.9m0-38.136A17.679,17.679,0,1,0,99.226,81.432h0A17.679,17.679,0,0,0,81.562,63.768" transform="translate(23.591 22.091)" fill="#3d4451"/>
      <path id="Trazado_34246" data-name="Trazado 34246" d="M84.605,113.9A29.47,29.47,0,1,1,114.06,84.49,29.47,29.47,0,0,1,84.605,113.9m0-54.486A25.031,25.031,0,1,0,109.622,84.49h0A25.047,25.047,0,0,0,84.605,59.55" transform="translate(20.548 19.032)" fill="#3d4451"/>
      <path id="Trazado_34247" data-name="Trazado 34247" d="M130.746,75.172a4.242,4.242,0,0,1-4.242-4.227,56.479,56.479,0,1,0-112.959,0,4.273,4.273,0,1,1-8.545,0,64.994,64.994,0,1,1,129.988,0,4.227,4.227,0,0,1-4.242,4.242" transform="translate(-5 -5.95)" fill="#3d4451"/>
      <path id="Trazado_34248" data-name="Trazado 34248" d="M71.448,107.493l-.121-6.628L81.9,100.7,82,107.357Zm-8.53-.136-3.276-.453a62.562,62.562,0,0,1-12.395-3.019l-3.14-1.117,2.25-6.265,3.125,1.117a57.613,57.613,0,0,0,11.1,2.748l3.306.483ZM36.226,98.751l-2.778-1.842a64.178,64.178,0,0,1-9.889-8.122L21.2,86.432l4.71-4.71,2.355,2.355a57.37,57.37,0,0,0,8.862,7.232L39.91,93.15ZM15.769,79.562l-1.736-2.853A64.028,64.028,0,0,1,8.522,65.19L7.39,62.065,13.671,59.8l1.117,3.14a57.747,57.747,0,0,0,4.937,10.312l1.736,2.853Z" transform="translate(-3.782 21.499)" fill="#3d4451"/>
      <path id="Trazado_34249" data-name="Trazado 34249" d="M29.6,88.545a3.684,3.684,0,0,1-1.812-6.884L56.609,65.416l-.5-45.292a3.669,3.669,0,0,1,3.623-3.714h0a3.684,3.684,0,0,1,3.684,3.639l.559,49.685L31.4,88.077a3.593,3.593,0,0,1-1.8.468" transform="translate(5.668 -0.618)" fill="#3d4451"/>
      <path id="Trazado_34250" data-name="Trazado 34250" d="M42.26,53.16a9.345,9.345,0,1,1,9.345,9.33,9.345,9.345,0,0,1-9.345-9.33" transform="translate(13.993 13.344)" fill="#3d4451"/>
      <path id="Trazado_34251" data-name="Trazado 34251" d="M77.953,82.187v3.019H66.66a7.549,7.549,0,0,1,1.1-3.2,20.909,20.909,0,0,1,3.623-4.031,24.156,24.156,0,0,0,2.672-2.748,3.578,3.578,0,0,0,.664-2.008,2.25,2.25,0,0,0-.574-1.661,2.476,2.476,0,0,0-3.216,0,3.155,3.155,0,0,0-.74,2.053l-3.216-.332a5.269,5.269,0,0,1,1.8-3.8,6.039,6.039,0,0,1,3.774-1.162,5.511,5.511,0,0,1,3.91,1.344,4.348,4.348,0,0,1,1.419,3.337,5.6,5.6,0,0,1-.408,2.159A8.59,8.59,0,0,1,76.232,77.3a20.244,20.244,0,0,1-2.114,2.144A25.334,25.334,0,0,0,72.186,81.3a5.374,5.374,0,0,0-.649.891Z" transform="translate(26.43 25.835)" fill="#f5fafc"/>
      <path id="Trazado_34252" data-name="Trazado 34252" d="M82.079,85.189V81.807H75.21V78.984L82.442,68.31h2.718V78.969h2.083v2.838H85.2v3.382Zm0-6.22V73.232l-3.865,5.737Z" transform="translate(30.789 25.837)" fill="#f5fafc"/>
      <path id="Trazado_34253" data-name="Trazado 34253" d="M93.457,63.3,77.469,45.185a2.808,2.808,0,0,1,4.2-3.714L93.548,54.907l12.44-13.482a2.8,2.8,0,1,1,4.122,3.789Z" transform="translate(31.64 11.672)" fill="#3d4451"/>
    </g>
  </g>
</svg>
