<svg xmlns="http://www.w3.org/2000/svg" xmlns:xlink="http://www.w3.org/1999/xlink" width="156" height="156" viewBox="0 0 156 156">
  <defs>
    <clipPath id="clip-path">
      <rect id="Rectángulo_4729" data-name="Rectángulo 4729" width="114.302" height="74.739" fill="none"/>
    </clipPath>
  </defs>
  <g id="Grupo_18927" data-name="Grupo 18927" transform="translate(-422 -11208)">
    <g id="Elipse_988" data-name="Elipse 988" transform="translate(422 11208)" fill="#fff" stroke="#fd8f25" stroke-width="2">
      <circle cx="78" cy="78" r="78" stroke="none"/>
      <circle cx="78" cy="78" r="77" fill="none"/>
    </g>
    <g id="Grupo_18550" data-name="Grupo 18550" transform="translate(446 11243.07)">
      <path id="Trazado_34265" data-name="Trazado 34265" d="M237.619,229.892l-12.275,6.6-12.275-6.6V216.683l12.275-6.6,12.275,6.6Z" transform="translate(-169.655 -167.274)" fill="#f5fafc"/>
      <path id="Trazado_34266" data-name="Trazado 34266" d="M247.395,243.147l-8.8,4.962-8.8-4.962v-9.924l8.8-4.962,8.8,4.962Z" transform="translate(-182.979 -181.751)" fill="#fdc345"/>
      <path id="Trazado_34267" data-name="Trazado 34267" d="M222.159,233.8l-13.09-7.043V212.579l13.09-7.043,13.09,7.043v14.182Zm-11.46-8.017,11.46,6.166,11.46-6.166V213.553l-11.46-6.166-11.46,6.166Z" transform="translate(-166.47 -163.657)" fill="#3d4451"/>
      <rect id="Rectángulo_4724" data-name="Rectángulo 4724" width="1.63" height="13.588" transform="translate(54.692 55.678)" fill="#3d4451"/>
      <rect id="Rectángulo_4725" data-name="Rectángulo 4725" width="13.856" height="1.63" transform="matrix(0.892, -0.453, 0.453, 0.892, 55.307, 54.959)" fill="#3d4451"/>
      <rect id="Rectángulo_4726" data-name="Rectángulo 4726" width="1.63" height="13.752" transform="translate(43.068 50.134) rotate(-62.846)" fill="#3d4451"/>
      <g id="Grupo_18549" data-name="Grupo 18549">
        <g id="Grupo_18548" data-name="Grupo 18548" clip-path="url(#clip-path)">
          <path id="Trazado_34268" data-name="Trazado 34268" d="M61.826,228.673l2.962,7.563c-9.2,1.66-18.706,11.437-18.706,11.437l.624-11.437-9.041-3.689s11.691-12.36,21.979-12.36" transform="translate(-29.991 -175.323)" fill="#f04f4c"/>
          <path id="Trazado_34269" data-name="Trazado 34269" d="M38.844,246.484l.721-13.224-9.676-3.948.919-.972a58.88,58.88,0,0,1,7.255-6.289c5.746-4.219,10.924-6.358,15.389-6.358v1.831c-2.792,0-7.536,1.038-14.281,5.984a60.227,60.227,0,0,0-6.075,5.133l8.368,3.415-.533,9.776c3.025-2.76,9.643-8.2,16.419-9.846l-2.568-6.558,1.705-.668,3.368,8.6-1.1.2c-8.8,1.588-18.119,11.079-18.212,11.175Z" transform="translate(-23.799 -171.744)" fill="#3d4451"/>
          <path id="Trazado_34270" data-name="Trazado 34270" d="M380.3,228.673l-2.962,7.563c9.2,1.66,18.706,11.437,18.706,11.437l-.624-11.437,9.041-3.689s-11.691-12.36-21.979-12.36" transform="translate(-300.454 -175.323)" fill="#f04f4c"/>
          <path id="Trazado_34271" data-name="Trazado 34271" d="M392.173,246.484l-1.7-1.75c-.093-.1-9.416-9.587-18.212-11.175l-1.1-.2,3.368-8.6,1.705.668-2.568,6.558c6.776,1.647,13.394,7.086,16.419,9.846l-.533-9.776,8.368-3.415a60.223,60.223,0,0,0-6.075-5.133c-3.723-2.73-9.223-5.984-14.281-5.984v-1.831c4.466,0,9.643,2.139,15.389,6.358a58.881,58.881,0,0,1,7.255,6.289l.919.972-9.676,3.948Z" transform="translate(-295.536 -171.744)" fill="#3d4451"/>
          <path id="Trazado_34272" data-name="Trazado 34272" d="M160.693,149.816l-7.242,16.333c-19.7-14.794-43.274-14.79-62.963,0q-3.622-8.166-7.242-16.333c24.025-18.216,53.423-18.216,77.447,0" transform="translate(-66.284 -108.412)" fill="#fff"/>
          <path id="Trazado_34273" data-name="Trazado 34273" d="M147.965,161.247c-19.826-15.416-43.844-15.41-63.663,0q-4.194-9.127-8.385-18.254c11.612-9.124,25.267-15.131,40.217-15.131s28.6,6.006,40.217,15.131q-4.193,9.127-8.385,18.254m-62.932-3.4c19.553-14.156,42.649-14.157,62.2,0l6.147-14.368c-23.252-16.981-51.245-16.979-74.495,0l6.146,14.368" transform="translate(-60.449 -101.809)" fill="#3d4451"/>
          <path id="Trazado_34274" data-name="Trazado 34274" d="M171.557,167.174c-1.519,2.881-2.738,5.892-4.257,8.773-9.718-5.533-19.1-9.678-30.454-9.355-11.252.32-20.27,4.16-29.905,9.757a59.541,59.541,0,0,0-4.4-8.773c11.107-6.621,21.227-10.792,34.3-11.1,13.185-.307,23.529,4.1,34.712,10.7" transform="translate(-81.649 -124.584)" fill="#f04f4c"/>
          <path id="Trazado_34275" data-name="Trazado 34275" d="M162.032,173.924c-9.836-5.691-19.322-10.059-30.861-9.734-11.44.323-20.68,4.435-30.459,10.136a67.249,67.249,0,0,0-5.3-10.073c5.7-3.377,11.4-7.037,17.718-9.148a62.026,62.026,0,0,1,18.037-2.667c13.8-.318,24.48,4.526,36.157,11.413-1.91,3.293-3.386,6.781-5.3,10.073m-60.169-1.971c9.449-5.463,18.3-9.048,29.308-9.357,11.144-.312,20.366,3.574,29.951,8.955,1.181-2.484,2.21-5.028,3.391-7.512-10.717-6.288-20.8-10.3-33.342-10.008-12.451.289-22.281,4.074-32.915,10.41a57.6,57.6,0,0,1,3.607,7.512" transform="translate(-75.974 -121.366)" fill="#3d4451"/>
          <path id="Trazado_34276" data-name="Trazado 34276" d="M264.307,17.446l-7.752-.009.008-7.361s0-3.1,0-3.71a1.288,1.288,0,0,0-.548-.974l-4.441-.005c-.73,0-.913.364-.913.364s-4.025,9.181-5.793,12.159a6.348,6.348,0,0,1-5.357,2.853L239.5,36.581l5.232.006,3.4,2.923,14.417.016a3.781,3.781,0,0,0,2.43-.88l1.732-1.448a3.783,3.783,0,0,0,1.356-2.9l.015-13.069a3.782,3.782,0,0,0-3.777-3.786" transform="translate(-190.7 -4.289)" fill="#f5fafc"/>
          <path id="Trazado_34277" data-name="Trazado 34277" d="M262.858,49.853l-7.3-.008.007-5.758s0-2.427,0-2.9a1.009,1.009,0,0,0-.516-.762l-4.182,0c-.688,0-.86.285-.86.285s-3.789,7.181-5.453,9.51-5.045,2.231-5.045,2.231L239.5,64.817l4.928.006,3.206,2.287,13.579.015a4.028,4.028,0,0,0,2.289-.688l1.631-1.133a2.788,2.788,0,0,0,1.276-2.266l.011-10.223a2.9,2.9,0,0,0-1.722-2.536,4.125,4.125,0,0,0-1.836-.426" transform="translate(-190.697 -32.183)" fill="#fdc345"/>
          <path id="Trazado_34278" data-name="Trazado 34278" d="M258.262,36.334h-.005l-14.823-.017-3.4-2.923-5.924-.007.02-18.051,1.135.04a5.2,5.2,0,0,0,4.375-2.316c1.713-2.886,5.691-11.948,5.731-12.04l.024-.05A2.019,2.019,0,0,1,247.283,0h0l4.772.006.276.184a2.348,2.348,0,0,1,1.037,1.888l-.011,9.974,6.655.007a4.879,4.879,0,0,1,4.873,4.884l-.015,13.069a4.869,4.869,0,0,1-1.749,3.737L261.391,35.2a4.887,4.887,0,0,1-3.13,1.136m-14.014-2.211,14.011.015h0a2.689,2.689,0,0,0,1.722-.625l1.732-1.449a2.677,2.677,0,0,0,.962-2.056l.015-13.069a2.684,2.684,0,0,0-2.681-2.687l-8.85-.01L251.176,2.2l-3.892,0a.183.183,0,0,0-.035,0c-.715,1.623-4.1,9.251-5.725,11.985a7.091,7.091,0,0,1-5.2,3.31l-.015,13.7,4.541.005Z" transform="translate(-186.406)" fill="#3d4451"/>
          <rect id="Rectángulo_4727" data-name="Rectángulo 4727" width="20.804" height="17.39" transform="matrix(0.001, -1, 1, 0.001, 33.395, 34.858)" fill="#7eb9c7"/>
          <path id="Trazado_34279" data-name="Trazado 34279" d="M178.092,86.606l-19.585-.022.026-23,19.585.022ZM160.7,84.391l15.2.017.021-18.609-15.195-.017Z" transform="translate(-126.21 -50.629)" fill="#3d4451"/>
          <rect id="Rectángulo_4728" data-name="Rectángulo 4728" width="4.088" height="14.6" transform="matrix(0.001, -1, 1, 0.001, 34.84, 19.449)" fill="#f5fafc"/>
          <path id="Trazado_34280" data-name="Trazado 34280" d="M72.481,108.559l3.227-4.159a.7.7,0,0,0,.1-.682l-1.938-4.894,4.159,3.227a.7.7,0,0,0,.682.1l4.894-1.938-3.227,4.159a.694.694,0,0,0-.1.682l1.938,4.894-4.159-3.227a.7.7,0,0,0-.682-.1Z" transform="translate(-57.713 -78.688)" fill="#fdc345"/>
          <path id="Trazado_34281" data-name="Trazado 34281" d="M76.643,104.811,70.8,100.279a.114.114,0,0,0-.11-.016l-6.874,2.722,4.532-5.842a.113.113,0,0,0,.016-.11l-2.723-6.874,5.842,4.532a.113.113,0,0,0,.11.016l6.875-2.722-4.532,5.842a.113.113,0,0,0-.016.111Zm-5.913-5.72a1.281,1.281,0,0,1,.785.268l2.476,1.921-1.154-2.914a1.283,1.283,0,0,1,.178-1.253l1.921-2.476L72.022,95.79a1.283,1.283,0,0,1-1.253-.178L68.293,93.69,69.447,96.6a1.283,1.283,0,0,1-.178,1.253l-1.921,2.477,2.914-1.154a1.274,1.274,0,0,1,.468-.089" transform="translate(-50.813 -71.789)" fill="#3d4451"/>
          <path id="Trazado_34282" data-name="Trazado 34282" d="M6.758,206.908l2.3-4.033a.613.613,0,0,0,0-.607l-2.3-4.033,4.033,2.3a.613.613,0,0,0,.607,0l4.033-2.3-2.3,4.033a.614.614,0,0,0,0,.607l2.3,4.033-4.033-2.3a.612.612,0,0,0-.607,0Z" transform="translate(-5.381 -157.844)" fill="#fdc345"/>
          <path id="Trazado_34283" data-name="Trazado 34283" d="M11.426,202.9l-5.664-3.231a.1.1,0,0,0-.1,0L0,202.9l3.231-5.664a.1.1,0,0,0,0-.1L0,191.478l5.664,3.232a.1.1,0,0,0,.1,0l5.664-3.232L8.2,197.142a.1.1,0,0,0,0,.1Zm-8.672-8.672,1.37,2.4a1.132,1.132,0,0,1,0,1.117l-1.37,2.4,2.4-1.37a1.131,1.131,0,0,1,1.117,0l2.4,1.37-1.37-2.4a1.132,1.132,0,0,1,0-1.117l1.37-2.4-2.4,1.37a1.132,1.132,0,0,1-1.117,0Z" transform="translate(0 -152.463)" fill="#3d4451"/>
          <path id="Trazado_34284" data-name="Trazado 34284" d="M421.467,100.532l4.669,2.663a.709.709,0,0,0,.7,0l4.668-2.663-2.663,4.668a.709.709,0,0,0,0,.7l2.663,4.668-4.668-2.663a.71.71,0,0,0-.7,0l-4.669,2.663,2.663-4.668a.71.71,0,0,0,0-.7Z" transform="translate(-335.591 -80.048)" fill="#fdc345"/>
          <path id="Trazado_34285" data-name="Trazado 34285" d="M426.872,105.937l-6.557-3.741a.114.114,0,0,0-.114,0l-6.557,3.741,3.741-6.557a.114.114,0,0,0,0-.114l-3.741-6.557L420.2,96.45a.116.116,0,0,0,.114,0l6.557-3.741-3.741,6.557a.115.115,0,0,0,0,.114ZM416.832,95.9l1.586,2.78a1.309,1.309,0,0,1,0,1.293l-1.586,2.78,2.78-1.586a1.308,1.308,0,0,1,1.292,0l2.78,1.586-1.586-2.78a1.31,1.31,0,0,1,0-1.292l1.586-2.78-2.78,1.586a1.312,1.312,0,0,1-1.293,0Z" transform="translate(-329.362 -73.819)" fill="#3d4451"/>
          <path id="Trazado_34286" data-name="Trazado 34286" d="M503.878,187l4.669,2.663a.708.708,0,0,0,.7,0L513.918,187l-2.663,4.668a.71.71,0,0,0,0,.7l2.663,4.668-4.669-2.663a.709.709,0,0,0-.7,0l-4.669,2.663,2.664-4.668a.71.71,0,0,0,0-.7Z" transform="translate(-401.21 -148.897)" fill="#fdc345"/>
          <path id="Trazado_34287" data-name="Trazado 34287" d="M509.283,192.4l-6.557-3.741a.114.114,0,0,0-.113,0l-6.557,3.741,3.741-6.557a.116.116,0,0,0,0-.114l-3.741-6.557,6.557,3.741a.114.114,0,0,0,.114,0l6.557-3.741-3.741,6.557a.115.115,0,0,0,0,.114Zm-10.04-10.04,1.586,2.78a1.309,1.309,0,0,1,0,1.292l-1.586,2.78,2.78-1.586a1.309,1.309,0,0,1,1.292,0l2.78,1.586-1.586-2.78a1.31,1.31,0,0,1,0-1.293l1.586-2.78-2.78,1.586a1.309,1.309,0,0,1-1.293,0Z" transform="translate(-394.981 -142.668)" fill="#3d4451"/>
        </g>
      </g>
    </g>
  </g>
</svg>
