<svg xmlns="http://www.w3.org/2000/svg" width="151" height="151" viewBox="0 0 151 151">
  <g id="CF1_acordeon_copia" data-name="CF1_acordeon copia" transform="translate(0.212)">
    <circle id="Elipse_4254" data-name="Elipse 4254" cx="75.5" cy="75.5" r="75.5" transform="translate(-0.212)" fill="#bbabf5"/>
    <g id="Grupo_18542" data-name="Grupo 18542" transform="translate(16.333 5.833)">
      <path id="Trazado_34219" data-name="Trazado 34219" d="M70.906,57.237A13.8,13.8,0,1,1,57.107,43,14.025,14.025,0,0,1,70.891,57.282" transform="translate(5.489 16.086)" fill="#56ffe8"/>
      <path id="Trazado_34220" data-name="Trazado 34220" d="M57.881,77.657A19.37,19.37,0,1,1,76.616,57.668V58.3A19.1,19.1,0,0,1,57.881,77.657m0-35.252A15.9,15.9,0,1,0,73.144,58.921V58.3A15.611,15.611,0,0,0,57.881,42.4" transform="translate(2.722 14.009)" fill="#3d4451"/>
      <path id="Trazado_34221" data-name="Trazado 34221" d="M60.467,87.9A7.639,7.639,0,1,1,52.828,80a7.775,7.775,0,0,1,7.639,7.911" transform="translate(6.446 34.946)" fill="#2cffe2"/>
      <path id="Trazado_34222" data-name="Trazado 34222" d="M53.557,97.972a9.526,9.526,0,1,1,9.255-9.8v.272a9.391,9.391,0,0,1-9.255,9.526m0-15.822A6.3,6.3,0,1,0,59.6,88.732v-.287a6.175,6.175,0,0,0-6.039-6.3" transform="translate(5.717 34.397)" fill="#3d4451"/>
      <path id="Trazado_34223" data-name="Trazado 34223" d="M61.811,54.538a7.987,7.987,0,1,1-7.987-8.258,8.122,8.122,0,0,1,7.987,8.258" transform="translate(6.778 17.757)" fill="#3d4451"/>
      <rect id="Rectángulo_4697" data-name="Rectángulo 4697" width="24.76" height="2.506" transform="translate(73.693 60.779) rotate(-33.19)" fill="#3d4451"/>
      <rect id="Rectángulo_4698" data-name="Rectángulo 4698" width="3.08" height="32.641" transform="translate(72.549 85.923) rotate(-63.45)" fill="#3d4451"/>
      <rect id="Rectángulo_4699" data-name="Rectángulo 4699" width="2.506" height="32.686" transform="translate(15.247 51.823) rotate(-66.05)" fill="#3d4451"/>
      <rect id="Rectángulo_4700" data-name="Rectángulo 4700" width="34.241" height="3.08" transform="translate(19.81 101.774) rotate(-32.06)" fill="#3d4451"/>
      <rect id="Rectángulo_4701" data-name="Rectángulo 4701" width="23.642" height="2.431" transform="translate(59.132 113.561) rotate(-89.39)" fill="#3d4451"/>
      <rect id="Rectángulo_4702" data-name="Rectángulo 4702" width="3.08" height="24.216" transform="translate(55.81 31.086) rotate(-4.97)" fill="#3d4451"/>
      <rect id="Rectángulo_4703" data-name="Rectángulo 4703" width="29.923" height="2.219" transform="translate(11.649 85.934) rotate(-86.5)" fill="#3d4451"/>
      <rect id="Rectángulo_4704" data-name="Rectángulo 4704" width="31.433" height="2.219" transform="matrix(0.818, -0.576, 0.576, 0.818, 18.149, 43.947)" fill="#3d4451"/>
      <rect id="Rectángulo_4705" data-name="Rectángulo 4705" width="2.672" height="40.718" transform="matrix(0.374, -0.928, 0.928, 0.374, 57.884, 24.846)" fill="#3d4451"/>
      <rect id="Rectángulo_4706" data-name="Rectángulo 4706" width="2.672" height="27.9" transform="translate(104.275 53.715) rotate(-9.2)" fill="#3d4451"/>
      <rect id="Rectángulo_4707" data-name="Rectángulo 4707" width="2.672" height="31.176" transform="translate(20.647 111.848) rotate(-71.928)" fill="#3d4451"/>
      <rect id="Rectángulo_4708" data-name="Rectángulo 4708" width="34.135" height="2.672" transform="matrix(0.924, -0.383, 0.383, 0.924, 66.49, 121.496)" fill="#3d4451"/>
      <path id="Trazado_34224" data-name="Trazado 34224" d="M22.243,73.777A5.782,5.782,0,1,0,17,67.481a7.55,7.55,0,0,0,0,.83,5.646,5.646,0,0,0,5.224,5.465" transform="translate(-7.929 25.89)" fill="#3d4451"/>
      <path id="Trazado_34225" data-name="Trazado 34225" d="M33.081,85.175a2.2,2.2,0,0,0,1.963-2.385,2.339,2.339,0,0,0,0-.317c-1.027-5.918-5.194-11.2-10.191-11.2s-9.164,5.284-10.191,11.2a2.174,2.174,0,0,0,1.585,2.642h.317Z" transform="translate(-9.15 30.496)" fill="#3d4451"/>
      <path id="Trazado_34226" data-name="Trazado 34226" d="M22.492,76.265h-.408a8.183,8.183,0,1,1,.408,0m0-14.146A5.9,5.9,0,0,0,16.6,68.006q0,.159,0,.317a5.9,5.9,0,0,0,11.776,0V67.7a6.039,6.039,0,0,0-5.586-5.571h-.317" transform="translate(-9.4 24.701)" fill="#3d4451"/>
      <path id="Trazado_34227" data-name="Trazado 34227" d="M34.437,86.5h-19.9a3.488,3.488,0,0,1-3.533-3.518,3.593,3.593,0,0,1,0-.694C12.44,75.115,18.192,69.71,24.4,69.71s12.048,5.42,13.482,12.516a3.518,3.518,0,0,1-2.718,4.2,3.623,3.623,0,0,1-.694,0M24.518,72c-5.6,0-10.025,5.42-11.081,10.674a1.223,1.223,0,0,0,.242.966,1.132,1.132,0,0,0,.891.408H34.437a1.087,1.087,0,0,0,.876-.317,1.117,1.117,0,0,0,.242-.966C34.512,77.515,30.074,72.1,24.488,72.1" transform="translate(-10.989 29.701)" fill="#3d4451"/>
      <path id="Trazado_34228" data-name="Trazado 34228" d="M85.759,70.825a5.782,5.782,0,1,0-5.194-6.3,5.088,5.088,0,0,0,0,.83,5.646,5.646,0,0,0,5.193,5.465" transform="translate(24.468 24.388)" fill="#3d4451"/>
      <path id="Trazado_34229" data-name="Trazado 34229" d="M96.668,82.2a2.189,2.189,0,0,0,1.948-2.31v-.317c-1.027-5.9-5.209-11.2-10.191-11.2s-9.179,5.3-10.191,11.2a2.174,2.174,0,0,0,1.51,2.642h.3Z" transform="translate(23.252 29.018)" fill="#3d4451"/>
      <path id="Trazado_34230" data-name="Trazado 34230" d="M86.158,73.509H85.8a8.485,8.485,0,1,1,.408,0M85.8,71.153A5.918,5.918,0,0,0,92,65.567v-.619a5.9,5.9,0,0,0-11.776,0,4.227,4.227,0,0,0,0,.619A6.039,6.039,0,0,0,85.8,71.153" transform="translate(22.922 22.988)" fill="#3d4451"/>
      <path id="Trazado_34231" data-name="Trazado 34231" d="M97.991,83.533h-19.9a3.472,3.472,0,0,1-3.427-4.2c1.51-7.171,7.186-12.576,13.376-12.576s11.957,5.4,13.391,12.576a3.5,3.5,0,0,1-2.748,4.137,2.643,2.643,0,0,1-.694,0M88.042,69.115c-5.586,0-10.025,5.435-11.066,10.689a1.162,1.162,0,0,0,1.117,1.374h19.9a1.147,1.147,0,0,0,.891-.423,1.193,1.193,0,0,0,.242-.951c-1.057-5.254-5.48-10.689-11.081-10.689" transform="translate(21.431 28.197)" fill="#3d4451"/>
      <path id="Trazado_34232" data-name="Trazado 34232" d="M50.544,17.9a5.782,5.782,0,1,0-5.224-5.782A5.782,5.782,0,0,0,50.544,17.9" transform="translate(6.511 -2.592)" fill="#3d4451"/>
      <path id="Trazado_34233" data-name="Trazado 34233" d="M61.4,29.229a2.189,2.189,0,0,0,1.948-2.34,2.34,2.34,0,0,0,0-.317c-1.012-5.9-5.193-11.2-10.191-11.2s-9.164,5.3-10.176,11.2a2.159,2.159,0,0,0,1.51,2.642h.3Z" transform="translate(5.283 2.001)" fill="#3d4451"/>
      <path id="Trazado_34234" data-name="Trazado 34234" d="M50.809,20.375h-.453a8.26,8.26,0,1,1,.785-16.5h.075a8.253,8.253,0,1,1-.408,16.5m-.3-2.355a5.888,5.888,0,0,0,6.19-5.586,4.243,4.243,0,0,0,0-.619,5.888,5.888,0,0,0-11.761,0,4.228,4.228,0,0,0,0,.619,5.948,5.948,0,0,0,5.571,5.586" transform="translate(5.068 -3.864)" fill="#3d4451"/>
      <path id="Trazado_34235" data-name="Trazado 34235" d="M62.731,30.553h-19.9a3.472,3.472,0,0,1-3.427-4.2C40.84,19.185,46.592,13.78,52.782,13.78s11.957,5.4,13.391,12.576a3.472,3.472,0,0,1-3.442,4.2M52.8,16.135c-5.6,0-10.025,5.435-11.081,10.689a1.193,1.193,0,0,0,.242.951,1.117,1.117,0,0,0,.891.423h19.9a1.117,1.117,0,0,0,.876-.423,1.087,1.087,0,0,0,.242-.951C62.822,21.57,58.383,16.135,52.8,16.135" transform="translate(3.457 1.191)" fill="#3d4451"/>
      <path id="Trazado_34236" data-name="Trazado 34236" d="M89.217,37.321a8.439,8.439,0,1,1-8.439-8.741,8.575,8.575,0,0,1,8.439,8.741" transform="translate(20.286 8.735)" fill="#ef2a66"/>
      <path id="Trazado_34237" data-name="Trazado 34237" d="M81.441,47.809a10.085,10.085,0,1,1,9.768-10.387,2.232,2.232,0,0,1,0,.317,9.934,9.934,0,0,1-9.768,10.07m0-17.483a7.413,7.413,0,1,0,7.1,7.73v-.317a7.262,7.262,0,0,0-7.1-7.413" transform="translate(19.623 8.258)" fill="#3d4451"/>
      <path id="Trazado_34238" data-name="Trazado 34238" d="M30.354,39.97a7.428,7.428,0,1,1-7.428-7.7,7.549,7.549,0,0,1,7.428,7.7" transform="translate(-8.688 10.616)" fill="#fd8f25"/>
      <path id="Trazado_34239" data-name="Trazado 34239" d="M23.508,49.264A8.892,8.892,0,1,1,32.143,40.1v.272a8.772,8.772,0,0,1-8.636,8.892m0-15.384a6.492,6.492,0,1,0,6.22,6.764v-.272a6.356,6.356,0,0,0-6.22-6.492" transform="translate(-9.269 10.215)" fill="#3d4451"/>
      <path id="Trazado_34240" data-name="Trazado 34240" d="M22.424,41.66,28.6,50.915,16.4,50.7Z" transform="translate(-8.231 15.403)" fill="#3d4451"/>
      <path id="Trazado_34241" data-name="Trazado 34241" d="M55.55,87.775l7.186-8.485,3.17,11.776Z" transform="translate(11.726 34.584)" fill="#3d4451"/>
      <path id="Trazado_34242" data-name="Trazado 34242" d="M79.2,33.02,68.09,32.854l7.066-9.934Z" transform="translate(18.118 5.85)" fill="#3d4451"/>
    </g>
  </g>
</svg>
