<svg xmlns="http://www.w3.org/2000/svg" xmlns:xlink="http://www.w3.org/1999/xlink" width="156" height="156" viewBox="0 0 156 156">
  <defs>
    <clipPath id="clip-path">
      <rect id="Rectángulo_4685" data-name="Rectángulo 4685" width="107.906" height="100.672" fill="none"/>
    </clipPath>
  </defs>
  <g id="Grupo_18914" data-name="Grupo 18914" transform="translate(-422 -5837)">
    <g id="Grupo_18913" data-name="Grupo 18913">
      <g id="Elipse_981" data-name="Elipse 981" transform="translate(422 5837)" fill="#fff" stroke="#fd8f25" stroke-width="2">
        <circle cx="78" cy="78" r="78" stroke="none"/>
        <circle cx="78" cy="78" r="77" fill="none"/>
      </g>
    </g>
    <g id="Grupo_18527" data-name="Grupo 18527" transform="translate(446 5859.214)" clip-path="url(#clip-path)">
      <path id="Trazado_34134" data-name="Trazado 34134" d="M108.551,331.825H35.936a12.2,12.2,0,0,1-12.2-12.2v-1.663a12.2,12.2,0,0,1,12.2-12.2h72.615a12.2,12.2,0,0,1,12.2,12.2v1.663a12.2,12.2,0,0,1-12.2,12.2" transform="translate(-18.641 -240.116)" fill="#c7ddeb"/>
      <path id="Trazado_34135" data-name="Trazado 34135" d="M111.011,350.972H39.966a12.9,12.9,0,0,1-12.889-12.889v-.991A12.9,12.9,0,0,1,39.966,324.2h71.044A12.9,12.9,0,0,1,123.9,337.092v.991a12.9,12.9,0,0,1-12.889,12.889M39.966,326.862a10.242,10.242,0,0,0-10.231,10.23v.991a10.242,10.242,0,0,0,10.231,10.23h71.044a10.242,10.242,0,0,0,10.23-10.23v-.991a10.242,10.242,0,0,0-10.23-10.23Z" transform="translate(-21.263 -254.595)" fill="#3d4451"/>
      <path id="Trazado_34136" data-name="Trazado 34136" d="M84.073,361.2a6.711,6.711,0,1,1,6.711,6.711,6.711,6.711,0,0,1-6.711-6.711" transform="translate(-66.022 -278.376)" fill="#f3fdff"/>
      <path id="Trazado_34137" data-name="Trazado 34137" d="M86.779,365a7.806,7.806,0,1,1,7.806-7.807A7.815,7.815,0,0,1,86.779,365m0-13.423a5.616,5.616,0,1,0,5.616,5.616,5.622,5.622,0,0,0-5.616-5.616" transform="translate(-62.017 -274.371)" fill="#3d4451"/>
      <path id="Trazado_34138" data-name="Trazado 34138" d="M358.688,362.324a6.711,6.711,0,1,1,6.711,6.711,6.711,6.711,0,0,1-6.711-6.711" transform="translate(-281.676 -279.261)" fill="#f3fdff"/>
      <path id="Trazado_34139" data-name="Trazado 34139" d="M361.394,366.126a7.806,7.806,0,1,1,7.806-7.807,7.815,7.815,0,0,1-7.806,7.807m0-13.423a5.616,5.616,0,1,0,5.616,5.616,5.622,5.622,0,0,0-5.616-5.616" transform="translate(-277.671 -275.256)" fill="#3d4451"/>
      <path id="Trazado_34140" data-name="Trazado 34140" d="M220.984,362.324a6.711,6.711,0,1,1,6.711,6.711,6.711,6.711,0,0,1-6.711-6.711" transform="translate(-173.538 -279.261)" fill="#f3fdff"/>
      <path id="Trazado_34141" data-name="Trazado 34141" d="M223.69,366.126a7.806,7.806,0,1,1,7.806-7.807,7.815,7.815,0,0,1-7.806,7.807m0-13.423a5.616,5.616,0,1,0,5.616,5.616,5.622,5.622,0,0,0-5.616-5.616" transform="translate(-169.533 -275.256)" fill="#3d4451"/>
      <path id="Trazado_34142" data-name="Trazado 34142" d="M228.917,229.474H217.739a2.576,2.576,0,0,1-2.576-2.576V215.721a2.576,2.576,0,0,1,2.576-2.576h11.178a2.576,2.576,0,0,1,2.576,2.576V226.9a2.576,2.576,0,0,1-2.576,2.576" transform="translate(-168.966 -167.382)" fill="#f04f4c"/>
      <path id="Trazado_34143" data-name="Trazado 34143" d="M224.411,226.2H213.234a3.812,3.812,0,0,1-3.808-3.808V211.216a3.812,3.812,0,0,1,3.808-3.808h11.178a3.812,3.812,0,0,1,3.807,3.808v11.178a3.812,3.812,0,0,1-3.807,3.808m-11.178-16.329a1.345,1.345,0,0,0-1.344,1.344v11.178a1.345,1.345,0,0,0,1.344,1.344h11.178a1.345,1.345,0,0,0,1.344-1.344V211.216a1.345,1.345,0,0,0-1.344-1.344Z" transform="translate(-164.461 -162.876)" fill="#3d4451"/>
      <rect id="Rectángulo_4683" data-name="Rectángulo 4683" width="15.24" height="15.24" transform="translate(76.539 46.308)" fill="#fdc345"/>
      <path id="Trazado_34144" data-name="Trazado 34144" d="M369.541,228.739H352.658V211.856h16.883ZM354.3,227.1h13.6V213.5H354.3Z" transform="translate(-276.941 -166.369)" fill="#3d4451"/>
      <rect id="Rectángulo_4684" data-name="Rectángulo 4684" width="15.24" height="15.24" transform="translate(18.165 46.308)" fill="#fdc345"/>
      <path id="Trazado_34145" data-name="Trazado 34145" d="M97.663,228.739H80.78V211.856H97.663ZM82.423,227.1h13.6V213.5h-13.6Z" transform="translate(-63.436 -166.369)" fill="#3d4451"/>
      <path id="Trazado_34146" data-name="Trazado 34146" d="M226.426,0V23.332c0,1.718,2.087,2.883,3.98,2.222l12.863-4.489a3.665,3.665,0,0,0,2.653-3.333V0" transform="translate(-177.811)" fill="#c7ddeb"/>
    </g>
  </g>
</svg>
