<svg xmlns="http://www.w3.org/2000/svg" xmlns:xlink="http://www.w3.org/1999/xlink" width="156" height="156" viewBox="0 0 156 156">
  <defs>
    <clipPath id="clip-path">
      <rect id="Rectángulo_4711" data-name="Rectángulo 4711" width="94.346" height="88.081" fill="none"/>
    </clipPath>
  </defs>
  <g id="Grupo_18925" data-name="Grupo 18925" transform="translate(-422 -10494)">
    <g id="Elipse_986" data-name="Elipse 986" transform="translate(422 10494)" fill="#fff" stroke="#fd8f25" stroke-width="2">
      <circle cx="78" cy="78" r="78" stroke="none"/>
      <circle cx="78" cy="78" r="77" fill="none"/>
    </g>
    <g id="Grupo_18545" data-name="Grupo 18545" transform="translate(456 10525.396)">
      <g id="Grupo_18544" data-name="Grupo 18544" clip-path="url(#clip-path)">
        <path id="Trazado_34243" data-name="Trazado 34243" d="M38.145,70.9a32.295,32.295,0,1,1,32.295,32.3A32.295,32.295,0,0,1,38.145,70.9" transform="translate(-26.926 -27.25)" fill="#c7ddeb"/>
        <path id="Trazado_34244" data-name="Trazado 34244" d="M193.718,202.8a12.633,12.633,0,1,1,12.633,12.633A12.633,12.633,0,0,1,193.718,202.8" transform="translate(-136.742 -134.233)" fill="#f04f4c"/>
        <path id="Trazado_34245" data-name="Trazado 34245" d="M204.126,214.131a13.561,13.561,0,1,1,13.561-13.561,13.576,13.576,0,0,1-13.561,13.561m0-25.267a11.706,11.706,0,1,0,11.706,11.706,11.719,11.719,0,0,0-11.706-11.706" transform="translate(-134.517 -132.007)" fill="#3d4451"/>
        <path id="Trazado_34246" data-name="Trazado 34246" d="M189.829,205.791a19.518,19.518,0,1,1,19.518-19.518,19.54,19.54,0,0,1-19.518,19.518m0-36.094a16.577,16.577,0,1,0,16.576,16.576A16.6,16.6,0,0,0,189.829,169.7" transform="translate(-120.22 -117.71)" fill="#3d4451"/>
        <path id="Trazado_34247" data-name="Trazado 34247" d="M83.258,45.844a2.81,2.81,0,0,1-2.81-2.81,37.414,37.414,0,0,0-74.828,0,2.81,2.81,0,1,1-5.62,0,43.034,43.034,0,0,1,86.068,0,2.81,2.81,0,0,1-2.81,2.81" fill="#3d4451"/>
        <path id="Trazado_34248" data-name="Trazado 34248" d="M50.438,214.672l-.073-4.411,6.957-.115.073,4.411Zm-5.646-.091-2.183-.314a42.25,42.25,0,0,1-8.208-2.035l-2.077-.743,1.486-4.154,2.077.743a37.859,37.859,0,0,0,7.349,1.822l2.184.314ZM27.11,208.875l-1.838-1.219a42.735,42.735,0,0,1-6.545-5.347l-1.561-1.558,3.116-3.123,1.561,1.558a38.29,38.29,0,0,0,5.867,4.793l1.839,1.219ZM13.56,196.169l-1.146-1.885a42.3,42.3,0,0,1-3.649-7.629l-.748-2.075,4.151-1.5.748,2.075a37.92,37.92,0,0,0,3.268,6.833l1.146,1.885Z" transform="translate(-5.659 -129.237)" fill="#3d4451"/>
        <path id="Trazado_34249" data-name="Trazado 34249" d="M73.431,83.244a2.437,2.437,0,0,1-1.2-4.56L91.33,67.92l-.338-30.026A2.436,2.436,0,0,1,93.4,35.43h.028a2.436,2.436,0,0,1,2.436,2.409l.37,32.91L74.625,82.93a2.427,2.427,0,0,1-1.194.314" transform="translate(-50.112 -25.009)" fill="#3d4451"/>
        <path id="Trazado_34250" data-name="Trazado 34250" d="M126.577,134.866a6.182,6.182,0,1,1,6.183,6.183,6.183,6.183,0,0,1-6.183-6.183" transform="translate(-89.349 -90.836)" fill="#3d4451"/>
        <path id="Trazado_34251" data-name="Trazado 34251" d="M217,221.2v1.981h-7.476a5.141,5.141,0,0,1,.729-2.129,14.148,14.148,0,0,1,2.4-2.667,15.154,15.154,0,0,0,1.769-1.822,2.347,2.347,0,0,0,.44-1.305,1.485,1.485,0,0,0-.383-1.1,1.628,1.628,0,0,0-2.121.019,2.067,2.067,0,0,0-.456,1.336l-2.125-.213a3.483,3.483,0,0,1,1.191-2.527,4,4,0,0,1,2.5-.766,3.618,3.618,0,0,1,2.588.888,2.911,2.911,0,0,1,.941,2.208,3.851,3.851,0,0,1-.269,1.431,5.808,5.808,0,0,1-.854,1.422,13.6,13.6,0,0,1-1.4,1.42q-1.009.926-1.279,1.229a3.656,3.656,0,0,0-.436.592Z" transform="translate(-147.9 -149.656)" fill="#f5fafc"/>
        <path id="Trazado_34252" data-name="Trazado 34252" d="M243.135,223.183v-2.239h-4.554v-1.867l4.827-7.066H245.2v7.058h1.381v1.874H245.2v2.239Zm0-4.113v-3.8l-2.558,3.8Z" transform="translate(-168.41 -149.656)" fill="#f5fafc"/>
        <path id="Trazado_34253" data-name="Trazado 34253" d="M255.071,132.677,244.477,120.7a1.855,1.855,0,0,1,2.779-2.459l7.873,8.9,8.242-8.929a1.855,1.855,0,0,1,2.727,2.517Z" transform="translate(-172.244 -83.024)" fill="#3d4451"/>
      </g>
    </g>
  </g>
</svg>
