<svg xmlns="http://www.w3.org/2000/svg" xmlns:xlink="http://www.w3.org/1999/xlink" width="152" height="151" viewBox="0 0 152 151">
  <defs>
    <clipPath id="clip-path">
      <rect id="Rectángulo_5796" data-name="Rectángulo 5796" width="140.436" height="102.33" fill="none"/>
    </clipPath>
  </defs>
  <g id="CF1_acordeon_copia_3" data-name="CF1_acordeon copia 3" transform="translate(0.444)">
    <ellipse id="Elipse_4252" data-name="Elipse 4252" cx="76" cy="75.5" rx="76" ry="75.5" transform="translate(-0.444)" fill="#bbabf5"/>
    <g id="Grupo_54891" data-name="Grupo 54891" transform="translate(2.074 18.706)" clip-path="url(#clip-path)">
      <g id="Grupo_18546" data-name="Grupo 18546" transform="translate(-0.015 0)">
        <path id="Trazado_34254" data-name="Trazado 34254" d="M126.438,44.484,99.851,20.328a10.266,10.266,0,0,0-6.869-2.6h0L74.488,17.52H56.024A10.312,10.312,0,0,0,49.139,20.1L24.44,42.114,40.549,58.419l6.341-7.4L47.267,39.4h2.6A4.439,4.439,0,0,1,54.3,43.925h0V94.7h51.029l-.03-40.219,5.812,5.843Z" transform="translate(10.767 -9.775)" fill="#56ffe8"/>
        <path id="Trazado_34255" data-name="Trazado 34255" d="M104.627,91.666l-57.37-.076V57.365l-5.163,4.257L20.67,40.033,48.162,15.545a12.682,12.682,0,0,1,8.394-3.155H76.183l17.951.211h1.661a12.486,12.486,0,0,1,8.409,3.2L131.59,40.365,110.107,61.955l-5.42-4.529ZM50.533,88.254l50.772.091V50.224l8.545,7.217,17-16.954-24.9-22.208A9.194,9.194,0,0,0,96.776,16l-20.623-.242H56.526a9.3,9.3,0,0,0-6.175,2.31L25.516,40.184,42.3,57.169l8.288-6.945Z" transform="translate(8.845 -12.39)" fill="#3d4451"/>
        <path id="Trazado_34256" data-name="Trazado 34256" d="M63.182,29.92h0a17.86,17.86,0,0,1-12.229-4.756,15.7,15.7,0,0,1-5.1-11.58h3.367a12.4,12.4,0,0,0,4.031,9.058,14.448,14.448,0,0,0,9.934,3.85h0c7.715,0,13.98-5.8,14-12.923h3.367c0,8.983-7.805,16.275-17.362,16.275" transform="translate(21.681 -11.788)" fill="#3d4451"/>
        <rect id="Rectángulo_4713" data-name="Rectángulo 4713" width="12.682" height="3.442" transform="translate(56.295 42.299) rotate(-89.89)" fill="#3d4451"/>
        <rect id="Rectángulo_4714" data-name="Rectángulo 4714" width="12.682" height="3.442" transform="translate(110.206 42.375) rotate(-89.89)" fill="#3d4451"/>
        <rect id="Rectángulo_4715" data-name="Rectángulo 4715" width="9.466" height="51.875" transform="matrix(0.002, -1, 1, 0.002, 58.812, 45.859)" fill="#ef2a66"/>
        <path id="Trazado_34257" data-name="Trazado 34257" d="M93.969,48.081,39.06,47.991V35.49l54.894.091ZM42.11,44.956l48.825.075V38.6H42.095Z" transform="translate(18.219 -0.615)" fill="#3d4451"/>
        <path id="Trazado_34258" data-name="Trazado 34258" d="M29.918,51.62a5.948,5.948,0,0,0-3.789,1.3L14.051,62.973a11.081,11.081,0,0,0-1.389,15.611,12.983,12.983,0,0,0,1.359,1.374L26.1,90.043a5.933,5.933,0,0,0,3.789,1.313l60.767.091a5.027,5.027,0,0,0,5.36-4.529V56.27a5.043,5.043,0,0,0-5.39-4.529Z" transform="translate(3.447 7.607)" fill="#f5fafc"/>
        <path id="Trazado_34259" data-name="Trazado 34259" d="M32.722,57.41a5.345,5.345,0,0,0-3.14.981L19.572,65.94A7.745,7.745,0,0,0,17.7,76.75a7.549,7.549,0,0,0,1.857,1.872l9.979,7.549a5.344,5.344,0,0,0,3.14.981l50.4.075c2.476,0,4.529-1.51,4.529-3.4V60.958c0-1.872-1.993-3.4-4.529-3.4Z" transform="translate(6.607 10.558)" fill="#fd8f25"/>
        <path id="Trazado_34260" data-name="Trazado 34260" d="M91.164,95.345h0l-60.782-.091a7.549,7.549,0,0,1-4.876-1.8L13.427,82.89A13.588,13.588,0,0,1,12.37,63.761a14.537,14.537,0,0,1,1.087-1.072L25.535,52.2a7.4,7.4,0,0,1,4.876-1.766h0l60.767.091A7.458,7.458,0,0,1,96.1,52.332a6.039,6.039,0,0,1,2.129,4.6V88.9a6.779,6.779,0,0,1-7.05,6.4M30.427,53.8a4.167,4.167,0,0,0-2.687.966L15.662,65.241a10.206,10.206,0,0,0-.785,14.433,5.949,5.949,0,0,0,.755.755L27.709,91a4.076,4.076,0,0,0,2.687.966l60.752.091h0a3.457,3.457,0,0,0,3.729-3.019V57.088a2.808,2.808,0,0,0-1.012-2.114,4.031,4.031,0,0,0-2.7-.981L30.382,53.9Z" transform="translate(2.863 7)" fill="#3d4451"/>
        <path id="Trazado_34261" data-name="Trazado 34261" d="M14.73,67.433a5.058,5.058,0,1,1,5.043,5.073,5.058,5.058,0,0,1-5.043-5.073h0" transform="translate(5.818 13.097)" fill="#fff"/>
        <path id="Trazado_34262" data-name="Trazado 34262" d="M20.185,74.08h0a6.235,6.235,0,0,1,0-12.47h0a6.235,6.235,0,1,1,0,12.47m0-10.1a3.865,3.865,0,0,0,0,7.73h0a3.865,3.865,0,1,0,0-7.73Z" transform="translate(5.42 12.699)" fill="#3d4451"/>
        <path id="Trazado_34263" data-name="Trazado 34263" d="M26.076,70.693H7.521a6.4,6.4,0,0,1,0-12.8H19.388a1.193,1.193,0,0,1,0,2.37H7.536a4.016,4.016,0,1,0,0,8.032H26.091a1.193,1.193,0,0,1,0,2.385" transform="translate(-1.12 10.803)" fill="#3d4451"/>
        <rect id="Rectángulo_4716" data-name="Rectángulo 4716" width="27.9" height="17.664" transform="translate(60.722 72.347)" fill="#f5fafc"/>
        <path id="Trazado_34264" data-name="Trazado 34264" d="M36.123,82.425v3.759H33.6V82.531a14.176,14.176,0,0,1-6.567-1.51V76.235a10.176,10.176,0,0,0,3.019,1.51,13.588,13.588,0,0,0,3.563.755l-.075-6.3A13.482,13.482,0,0,1,27.97,69a6.371,6.371,0,0,1-1.51-4.273,6.3,6.3,0,0,1,1.872-4.65,8.017,8.017,0,0,1,4.982-2.355V54.51h2.521v3.155a12.651,12.651,0,0,1,5.465,1.1v4.68a13.044,13.044,0,0,0-5.48-1.736l.091,6.552a14.01,14.01,0,0,1,5.465,3.019,6.039,6.039,0,0,1,1.706,4.227A6.13,6.13,0,0,1,41.3,80.16a8.741,8.741,0,0,1-5.163,2.265m-2.7-15.1v-5.5c-1.6.317-2.385,1.162-2.37,2.536s.83,2.174,2.446,3.019m2.6,5.812v5.254c1.646-.287,2.461-1.117,2.446-2.506,0-1.132-.845-2.053-2.506-2.748" transform="translate(11.796 9.08)" fill="#3d4451"/>
        <rect id="Rectángulo_4717" data-name="Rectángulo 4717" width="3.608" height="14.524" transform="translate(67.591 74.204)" fill="#3d4451"/>
        <rect id="Rectángulo_4718" data-name="Rectángulo 4718" width="2.295" height="14.524" transform="translate(73.826 74.204)" fill="#3d4451"/>
        <rect id="Rectángulo_4719" data-name="Rectángulo 4719" width="1.812" height="14.524" transform="translate(77.51 74.204)" fill="#3d4451"/>
        <rect id="Rectángulo_4720" data-name="Rectángulo 4720" width="2.597" height="14.524" transform="translate(62.881 74.204)" fill="#3d4451"/>
        <rect id="Rectángulo_4721" data-name="Rectángulo 4721" width="4.65" height="14.524" transform="translate(81.541 74.204)" fill="#3d4451"/>
      </g>
    </g>
  </g>
</svg>
