<svg xmlns="http://www.w3.org/2000/svg" xmlns:xlink="http://www.w3.org/1999/xlink" width="156" height="156" viewBox="0 0 156 156">
  <defs>
    <clipPath id="clip-path">
      <rect id="Rectángulo_4709" data-name="Rectángulo 4709" width="94.187" height="101.446" fill="none"/>
    </clipPath>
  </defs>
  <g id="Grupo_18924" data-name="Grupo 18924" transform="translate(-422 -10208)">
    <g id="Elipse_985" data-name="Elipse 985" transform="translate(422 10208)" fill="#fff" stroke="#fd8f25" stroke-width="2">
      <circle cx="78" cy="78" r="78" stroke="none"/>
      <circle cx="78" cy="78" r="77" fill="none"/>
    </g>
    <g id="Grupo_18543" data-name="Grupo 18543" transform="translate(453 10231)">
      <g id="Grupo_18542" data-name="Grupo 18542" clip-path="url(#clip-path)">
        <path id="Trazado_34219" data-name="Trazado 34219" d="M206.667,235.479A10.57,10.57,0,1,1,196.1,224.533a10.76,10.76,0,0,1,10.564,10.946" transform="translate(-148.153 -179.289)" fill="#c7ddeb"/>
        <path id="Trazado_34220" data-name="Trazado 34220" d="M173.453,231.022a14.842,14.842,0,1,1,14.362-14.834,14.62,14.62,0,0,1-14.362,14.834m0-27.013a12.188,12.188,0,1,0,11.707,12.179,11.963,11.963,0,0,0-11.707-12.179" transform="translate(-127.034 -160.78)" fill="#3d4451"/>
        <path id="Trazado_34221" data-name="Trazado 34221" d="M207.947,443.151a5.859,5.859,0,1,1-5.855-6.067,5.964,5.964,0,0,1,5.855,6.067" transform="translate(-156.695 -349.01)" fill="#7eb9c7"/>
        <path id="Trazado_34222" data-name="Trazado 34222" d="M197.186,445.549a7.308,7.308,0,1,1,7.093-7.305,7.21,7.21,0,0,1-7.093,7.305m0-12.134a4.834,4.834,0,1,0,4.617,4.829,4.732,4.732,0,0,0-4.617-4.829" transform="translate(-151.788 -344.103)" fill="#3d4451"/>
        <path id="Trazado_34223" data-name="Trazado 34223" d="M212.246,249.859a6.119,6.119,0,1,1-6.116-6.337,6.229,6.229,0,0,1,6.116,6.337" transform="translate(-159.711 -194.452)" fill="#3d4451"/>
        <rect id="Rectángulo_4697" data-name="Rectángulo 4697" width="18.98" height="1.923" transform="translate(56.448 46.576) rotate(-33.189)" fill="#3d4451"/>
        <rect id="Rectángulo_4698" data-name="Rectángulo 4698" width="2.361" height="25.018" transform="translate(55.578 65.855) rotate(-63.449)" fill="#3d4451"/>
        <rect id="Rectángulo_4699" data-name="Rectángulo 4699" width="1.923" height="25.051" transform="matrix(0.406, -0.914, 0.914, 0.406, 11.655, 39.716)" fill="#3d4451"/>
        <rect id="Rectángulo_4700" data-name="Rectángulo 4700" width="26.246" height="2.36" transform="translate(15.15 77.996) rotate(-32.055)" fill="#3d4451"/>
        <rect id="Rectángulo_4701" data-name="Rectángulo 4701" width="18.123" height="1.866" transform="translate(45.294 87.027) rotate(-89.394)" fill="#3d4451"/>
        <rect id="Rectángulo_4702" data-name="Rectángulo 4702" width="2.36" height="18.561" transform="translate(42.74 23.827) rotate(-4.969)" fill="#3d4451"/>
        <rect id="Rectángulo_4703" data-name="Rectángulo 4703" width="22.939" height="1.699" transform="matrix(0.061, -0.998, 0.998, 0.061, 8.898, 65.851)" fill="#3d4451"/>
        <rect id="Rectángulo_4704" data-name="Rectángulo 4704" width="24.089" height="1.699" transform="translate(13.881 33.683) rotate(-35.151)" fill="#3d4451"/>
        <rect id="Rectángulo_4705" data-name="Rectángulo 4705" width="2.045" height="31.202" transform="translate(44.337 19.046) rotate(-68.061)" fill="#3d4451"/>
        <rect id="Rectángulo_4706" data-name="Rectángulo 4706" width="2.045" height="21.379" transform="translate(79.888 41.174) rotate(-9.197)" fill="#3d4451"/>
        <rect id="Rectángulo_4707" data-name="Rectángulo 4707" width="2.045" height="23.898" transform="translate(15.861 85.797) rotate(-71.87)" fill="#3d4451"/>
        <rect id="Rectángulo_4708" data-name="Rectángulo 4708" width="26.158" height="2.045" transform="translate(50.92 93.107) rotate(-22.545)" fill="#3d4451"/>
        <path id="Trazado_34224" data-name="Trazado 34224" d="M38.411,344.023a4.426,4.426,0,1,0-4-4.184,4.325,4.325,0,0,0,4,4.184" transform="translate(-27.474 -267.644)" fill="#3d4451"/>
        <path id="Trazado_34225" data-name="Trazado 34225" d="M34.636,397.7a1.669,1.669,0,0,0,1.456-2.063c-.783-4.534-3.982-8.59-7.809-8.59s-7.026,4.056-7.809,8.59a1.669,1.669,0,0,0,1.455,2.063Z" transform="translate(-16.325 -309.06)" fill="#3d4451"/>
        <path id="Trazado_34226" data-name="Trazado 34226" d="M24.624,333.829q-.158,0-.318-.008a6.339,6.339,0,1,1,.318.008m0-10.843a4.517,4.517,0,0,0-4.507,4.756,4.552,4.552,0,0,0,4.277,4.273,4.517,4.517,0,0,0,4.745-4.748,4.551,4.551,0,0,0-4.275-4.275c-.08,0-.16-.006-.24-.006" transform="translate(-14.617 -256.459)" fill="#3d4451"/>
        <path id="Trazado_34227" data-name="Trazado 34227" d="M17.938,390.951H2.687a2.689,2.689,0,0,1-2.634-3.222c1.1-5.495,5.508-9.638,10.259-9.638s9.163,4.144,10.26,9.638a2.689,2.689,0,0,1-2.634,3.222M10.312,379.9c-4.288,0-7.682,4.161-8.485,8.184a.887.887,0,0,0,.184.738.862.862,0,0,0,.677.32H17.938a.862.862,0,0,0,.677-.32.887.887,0,0,0,.184-.738c-.8-4.023-4.2-8.184-8.486-8.184" transform="translate(0 -301.904)" fill="#3d4451"/>
        <path id="Trazado_34228" data-name="Trazado 34228" d="M403.476,327.066a4.426,4.426,0,1,0-4-4.184,4.325,4.325,0,0,0,4,4.184" transform="translate(-318.978 -254.104)" fill="#3d4451"/>
        <path id="Trazado_34229" data-name="Trazado 34229" d="M399.7,380.748a1.669,1.669,0,0,0,1.456-2.063c-.782-4.534-3.981-8.59-7.809-8.59s-7.026,4.056-7.809,8.589a1.669,1.669,0,0,0,1.455,2.063Z" transform="translate(-307.828 -295.52)" fill="#3d4451"/>
        <path id="Trazado_34230" data-name="Trazado 34230" d="M389.69,316.874q-.158,0-.318-.008a6.339,6.339,0,1,1,.318.008m-.227-1.815a4.518,4.518,0,0,0,4.745-4.748,4.552,4.552,0,0,0-4.275-4.274,4.518,4.518,0,0,0-4.747,4.75,4.553,4.553,0,0,0,4.277,4.273" transform="translate(-306.121 -242.92)" fill="#3d4451"/>
        <path id="Trazado_34231" data-name="Trazado 34231" d="M383,373.994H367.753a2.69,2.69,0,0,1-2.634-3.222c1.1-5.495,5.508-9.639,10.259-9.639s9.163,4.144,10.26,9.639A2.69,2.69,0,0,1,383,373.994m-7.626-11.051c-4.288,0-7.682,4.161-8.485,8.184a.886.886,0,0,0,.183.738.863.863,0,0,0,.677.32H383a.863.863,0,0,0,.677-.32.886.886,0,0,0,.183-.738c-.8-4.023-4.2-8.184-8.486-8.184" transform="translate(-291.504 -288.364)" fill="#3d4451"/>
        <path id="Trazado_34232" data-name="Trazado 34232" d="M200.995,22.844a4.426,4.426,0,0,0,.437-8.832,4.426,4.426,0,0,0-.437,8.832" transform="translate(-157.297 -11.184)" fill="#3d4451"/>
        <path id="Trazado_34233" data-name="Trazado 34233" d="M197.219,76.526a1.669,1.669,0,0,0,1.456-2.063c-.783-4.534-3.981-8.59-7.809-8.59s-7.026,4.056-7.809,8.589a1.669,1.669,0,0,0,1.455,2.063Z" transform="translate(-146.147 -52.6)" fill="#3d4451"/>
        <path id="Trazado_34234" data-name="Trazado 34234" d="M187.209,12.652q-.158,0-.318-.008A6.326,6.326,0,1,1,187.544.009,6.326,6.326,0,0,1,191.69,10.8a6.345,6.345,0,0,1-4.481,1.853m-.227-1.815a4.518,4.518,0,0,0,4.745-4.748,4.552,4.552,0,0,0-4.275-4.274,4.518,4.518,0,0,0-4.747,4.75,4.552,4.552,0,0,0,4.277,4.273" transform="translate(-144.44 0)" fill="#3d4451"/>
        <path id="Trazado_34235" data-name="Trazado 34235" d="M180.522,69.772H165.271a2.69,2.69,0,0,1-2.634-3.222c1.1-5.495,5.508-9.639,10.259-9.639s9.163,4.144,10.26,9.639a2.689,2.689,0,0,1-2.634,3.222M172.9,58.721c-4.288,0-7.682,4.161-8.485,8.184a.887.887,0,0,0,.184.738.862.862,0,0,0,.677.32h15.251a.862.862,0,0,0,.677-.32.887.887,0,0,0,.184-.738c-.8-4.023-4.2-8.184-8.486-8.184" transform="translate(-129.823 -45.444)" fill="#3d4451"/>
        <path id="Trazado_34236" data-name="Trazado 34236" d="M365.085,148.568a6.471,6.471,0,1,1-6.467-6.7,6.587,6.587,0,0,1,6.467,6.7" transform="translate(-281.191 -113.28)" fill="#f04f4c"/>
        <path id="Trazado_34237" data-name="Trazado 34237" d="M354.561,152.236a7.728,7.728,0,1,1,7.491-7.725,7.619,7.619,0,0,1-7.491,7.725m0-13.4A5.682,5.682,0,1,0,360,144.511a5.57,5.57,0,0,0-5.443-5.677" transform="translate(-277.135 -109.223)" fill="#3d4451"/>
        <path id="Trazado_34238" data-name="Trazado 34238" d="M37.158,169.016a5.694,5.694,0,1,1-5.691-5.9,5.8,5.8,0,0,1,5.691,5.9" transform="translate(-20.582 -130.25)" fill="#fdc345"/>
        <path id="Trazado_34239" data-name="Trazado 34239" d="M27.815,172.182a6.822,6.822,0,1,1,6.613-6.818,6.725,6.725,0,0,1-6.613,6.818m0-11.794a4.98,4.98,0,1,0,4.769,4.975,4.881,4.881,0,0,0-4.769-4.975" transform="translate(-16.93 -126.598)" fill="#3d4451"/>
        <path id="Trazado_34240" data-name="Trazado 34240" d="M35.532,216.987l4.73,7.091-9.346-.157Z" transform="translate(-24.687 -173.263)" fill="#3d4451"/>
        <path id="Trazado_34241" data-name="Trazado 34241" d="M255.718,439.577l5.506-6.508,2.435,9.025Z" transform="translate(-204.19 -345.805)" fill="#3d4451"/>
        <path id="Trazado_34242" data-name="Trazado 34242" d="M336.222,117.143l-8.523-.119,5.424-7.613Z" transform="translate(-261.666 -87.364)" fill="#3d4451"/>
      </g>
    </g>
  </g>
</svg>
