<svg xmlns="http://www.w3.org/2000/svg" xmlns:xlink="http://www.w3.org/1999/xlink" width="156" height="156" viewBox="0 0 156 156">
  <defs>
    <clipPath id="clip-path">
      <rect id="Rectángulo_4692" data-name="Rectángulo 4692" width="87.881" height="89.991" fill="none"/>
    </clipPath>
  </defs>
  <g id="Grupo_18916" data-name="Grupo 18916" transform="translate(-422 -6334)">
    <g id="Elipse_983" data-name="Elipse 983" transform="translate(422 6334)" fill="#fff" stroke="#fd8f25" stroke-width="2">
      <circle cx="78" cy="78" r="78" stroke="none"/>
      <circle cx="78" cy="78" r="77" fill="none"/>
    </g>
    <g id="Grupo_18539" data-name="Grupo 18539" transform="translate(456 6361)">
      <g id="Grupo_18538" data-name="Grupo 18538" clip-path="url(#clip-path)">
        <path id="Trazado_34171" data-name="Trazado 34171" d="M113.379,115.633a7.774,7.774,0,1,0-7.354-7.363,7.774,7.774,0,0,0,7.354,7.363" transform="translate(-81.17 -76.638)" fill="#7eb9c7"/>
        <path id="Trazado_34172" data-name="Trazado 34172" d="M107.766,186.117a2.56,2.56,0,0,0,2.508-3.065c-1.339-6.745-6.837-12.784-13.425-12.791s-12.1,6.019-13.452,12.762a2.559,2.559,0,0,0,2.5,3.071Z" transform="translate(-63.814 -130.358)" fill="#7eb9c7"/>
        <path id="Trazado_34173" data-name="Trazado 34173" d="M95.792,104.941q-.225,0-.45-.011h0a8.793,8.793,0,1,1,.45.012m-.347-2.015a6.771,6.771,0,1,0-6.4-6.412,6.786,6.786,0,0,0,6.4,6.412Z" transform="translate(-66.632 -66.909)" fill="#3d4451"/>
        <path id="Trazado_34174" data-name="Trazado 34174" d="M89.784,175.413h0l-21.867-.024a3.563,3.563,0,0,1-3.483-4.271c1.554-7.736,7.754-13.567,14.424-13.567h.012c6.676.007,12.87,5.854,14.407,13.6a3.562,3.562,0,0,1-3.489,4.263M78.853,159.556a11.447,11.447,0,0,0-7.971,3.559,16.5,16.5,0,0,0-4.487,8.4,1.564,1.564,0,0,0,.323,1.3,1.544,1.544,0,0,0,1.2.568l21.867.024h0a1.543,1.543,0,0,0,1.2-.565,1.563,1.563,0,0,0,.325-1.3,16.492,16.492,0,0,0-4.468-8.407,11.446,11.446,0,0,0-7.974-3.577Z" transform="translate(-49.276 -120.628)" fill="#3d4451"/>
        <path id="Trazado_34175" data-name="Trazado 34175" d="M95.792,104.941q-.225,0-.45-.011h0a8.793,8.793,0,1,1,.45.012m-.347-2.015a6.771,6.771,0,1,0-6.4-6.412,6.786,6.786,0,0,0,6.4,6.412Z" transform="translate(-66.632 -66.909)" fill="#3d4451"/>
        <path id="Trazado_34176" data-name="Trazado 34176" d="M89.784,175.413h0l-21.867-.024a3.563,3.563,0,0,1-3.483-4.271c1.554-7.736,7.754-13.567,14.424-13.567h.012c6.676.007,12.87,5.854,14.407,13.6a3.562,3.562,0,0,1-3.489,4.263M78.853,159.556a11.447,11.447,0,0,0-7.971,3.559,16.5,16.5,0,0,0-4.487,8.4,1.564,1.564,0,0,0,.323,1.3,1.544,1.544,0,0,0,1.2.568l21.867.024h0a1.543,1.543,0,0,0,1.2-.565,1.563,1.563,0,0,0,.325-1.3,16.492,16.492,0,0,0-4.468-8.407,11.446,11.446,0,0,0-7.974-3.577Z" transform="translate(-49.276 -120.628)" fill="#3d4451"/>
        <path id="Trazado_34177" data-name="Trazado 34177" d="M235.659,115.633a7.774,7.774,0,1,0-7.354-7.363,7.774,7.774,0,0,0,7.354,7.363" transform="translate(-174.793 -76.638)" fill="#7eb9c7"/>
        <path id="Trazado_34178" data-name="Trazado 34178" d="M230.046,186.117a2.56,2.56,0,0,0,2.508-3.065c-1.339-6.745-6.837-12.784-13.425-12.791s-12.1,6.019-13.452,12.762a2.559,2.559,0,0,0,2.5,3.071Z" transform="translate(-157.437 -130.358)" fill="#7eb9c7"/>
        <path id="Trazado_34179" data-name="Trazado 34179" d="M218.073,104.941q-.225,0-.45-.011h0a8.793,8.793,0,1,1,.45.012m-.347-2.015a6.77,6.77,0,1,0-6.4-6.412,6.787,6.787,0,0,0,6.4,6.412Z" transform="translate(-160.255 -66.909)" fill="#3d4451"/>
        <path id="Trazado_34180" data-name="Trazado 34180" d="M212.064,175.413h0l-21.867-.024a3.562,3.562,0,0,1-3.483-4.271c1.554-7.736,7.754-13.567,14.423-13.567h.012c6.676.007,12.87,5.854,14.407,13.6a3.562,3.562,0,0,1-3.489,4.263m-10.931-15.857a11.448,11.448,0,0,0-7.971,3.559,16.494,16.494,0,0,0-4.486,8.4,1.562,1.562,0,0,0,.322,1.3,1.544,1.544,0,0,0,1.2.568l21.867.024h0a1.542,1.542,0,0,0,1.2-.565,1.563,1.563,0,0,0,.325-1.3,16.491,16.491,0,0,0-4.468-8.407,11.445,11.445,0,0,0-7.974-3.577Z" transform="translate(-142.898 -120.628)" fill="#3d4451"/>
        <path id="Trazado_34181" data-name="Trazado 34181" d="M218.073,104.941q-.225,0-.45-.011h0a8.793,8.793,0,1,1,.45.012m-.347-2.015a6.77,6.77,0,1,0-6.4-6.412,6.787,6.787,0,0,0,6.4,6.412Z" transform="translate(-160.255 -66.909)" fill="#3d4451"/>
        <path id="Trazado_34182" data-name="Trazado 34182" d="M212.064,175.413h0l-21.867-.024a3.562,3.562,0,0,1-3.483-4.271c1.554-7.736,7.754-13.567,14.423-13.567h.012c6.676.007,12.87,5.854,14.407,13.6a3.562,3.562,0,0,1-3.489,4.263m-10.931-15.857a11.448,11.448,0,0,0-7.971,3.559,16.494,16.494,0,0,0-4.486,8.4,1.562,1.562,0,0,0,.322,1.3,1.544,1.544,0,0,0,1.2.568l21.867.024h0a1.542,1.542,0,0,0,1.2-.565,1.563,1.563,0,0,0,.325-1.3,16.491,16.491,0,0,0-4.468-8.407,11.445,11.445,0,0,0-7.974-3.577Z" transform="translate(-142.898 -120.628)" fill="#3d4451"/>
        <path id="Trazado_34183" data-name="Trazado 34183" d="M49.021,261.7a7.773,7.773,0,1,0-7.354-7.363,7.774,7.774,0,0,0,7.354,7.363" transform="translate(-31.894 -188.477)" fill="#7eb9c7"/>
        <path id="Trazado_34184" data-name="Trazado 34184" d="M43.408,332.187a2.56,2.56,0,0,0,2.508-3.065c-1.339-6.745-6.837-12.784-13.425-12.791s-12.1,6.019-13.452,12.762a2.56,2.56,0,0,0,2.5,3.071Z" transform="translate(-14.539 -242.196)" fill="#7eb9c7"/>
        <path id="Trazado_34185" data-name="Trazado 34185" d="M31.434,251.012q-.225,0-.45-.012a8.793,8.793,0,1,1,.45.012m.021-15.546a6.756,6.756,0,1,0,.35.009q-.175-.009-.35-.009" transform="translate(-17.356 -178.747)" fill="#3d4451"/>
        <path id="Trazado_34186" data-name="Trazado 34186" d="M25.425,321.485h0l-21.867-.024A3.562,3.562,0,0,1,.072,317.19c1.554-7.737,7.754-13.567,14.423-13.567h.013c6.676.007,12.87,5.854,14.407,13.6a3.562,3.562,0,0,1-3.489,4.263m0-2.005h0a1.544,1.544,0,0,0,1.2-.566,1.562,1.562,0,0,0,.325-1.3,16.493,16.493,0,0,0-4.468-8.407,11.446,11.446,0,0,0-7.974-3.577h-.011a11.446,11.446,0,0,0-7.971,3.56,16.5,16.5,0,0,0-4.487,8.4,1.564,1.564,0,0,0,.323,1.3,1.542,1.542,0,0,0,1.2.568Z" transform="translate(-0.001 -232.467)" fill="#3d4451"/>
        <path id="Trazado_34187" data-name="Trazado 34187" d="M31.434,251.012q-.225,0-.45-.012a8.793,8.793,0,1,1,.45.012m.021-15.546a6.756,6.756,0,1,0,.35.009q-.175-.009-.35-.009" transform="translate(-17.356 -178.747)" fill="#3d4451"/>
        <path id="Trazado_34188" data-name="Trazado 34188" d="M25.425,321.485h0l-21.867-.024A3.562,3.562,0,0,1,.072,317.19c1.554-7.737,7.754-13.567,14.423-13.567h.013c6.676.007,12.87,5.854,14.407,13.6a3.562,3.562,0,0,1-3.489,4.263m0-2.005h0a1.544,1.544,0,0,0,1.2-.566,1.562,1.562,0,0,0,.325-1.3,16.493,16.493,0,0,0-4.468-8.407,11.446,11.446,0,0,0-7.974-3.577h-.011a11.446,11.446,0,0,0-7.971,3.56,16.5,16.5,0,0,0-4.487,8.4,1.564,1.564,0,0,0,.323,1.3,1.542,1.542,0,0,0,1.2.568Z" transform="translate(-0.001 -232.467)" fill="#3d4451"/>
        <path id="Trazado_34189" data-name="Trazado 34189" d="M171.3,261.7a7.773,7.773,0,1,0-7.354-7.363A7.774,7.774,0,0,0,171.3,261.7" transform="translate(-125.517 -188.477)" fill="#7eb9c7"/>
        <path id="Trazado_34190" data-name="Trazado 34190" d="M165.688,332.187a2.56,2.56,0,0,0,2.508-3.065c-1.339-6.745-6.837-12.784-13.425-12.791s-12.1,6.019-13.452,12.762a2.559,2.559,0,0,0,2.5,3.071Z" transform="translate(-108.161 -242.196)" fill="#7eb9c7"/>
        <path id="Trazado_34191" data-name="Trazado 34191" d="M153.715,251.012q-.225,0-.45-.012a8.793,8.793,0,1,1,.45.012m.021-15.546a6.756,6.756,0,1,0,.35.009q-.175-.009-.35-.009" transform="translate(-110.98 -178.747)" fill="#3d4451"/>
        <path id="Trazado_34192" data-name="Trazado 34192" d="M147.705,321.485h0l-21.867-.024a3.562,3.562,0,0,1-3.483-4.271c1.554-7.737,7.753-13.567,14.423-13.567h.013c6.676.007,12.869,5.854,14.407,13.6a3.563,3.563,0,0,1-3.489,4.263m0-2.005h0a1.543,1.543,0,0,0,1.2-.566,1.563,1.563,0,0,0,.325-1.3,16.493,16.493,0,0,0-4.468-8.407,11.446,11.446,0,0,0-7.974-3.577h-.011a11.445,11.445,0,0,0-7.97,3.56,16.5,16.5,0,0,0-4.487,8.4,1.563,1.563,0,0,0,.323,1.3,1.542,1.542,0,0,0,1.2.568Z" transform="translate(-93.623 -232.467)" fill="#3d4451"/>
        <path id="Trazado_34193" data-name="Trazado 34193" d="M153.715,251.012q-.225,0-.45-.012a8.793,8.793,0,1,1,.45.012m.021-15.546a6.756,6.756,0,1,0,.35.009q-.175-.009-.35-.009" transform="translate(-110.98 -178.747)" fill="#3d4451"/>
        <path id="Trazado_34194" data-name="Trazado 34194" d="M147.705,321.485h0l-21.867-.024a3.562,3.562,0,0,1-3.483-4.271c1.554-7.737,7.753-13.567,14.423-13.567h.013c6.676.007,12.869,5.854,14.407,13.6a3.563,3.563,0,0,1-3.489,4.263m0-2.005h0a1.543,1.543,0,0,0,1.2-.566,1.563,1.563,0,0,0,.325-1.3,16.493,16.493,0,0,0-4.468-8.407,11.446,11.446,0,0,0-7.974-3.577h-.011a11.445,11.445,0,0,0-7.97,3.56,16.5,16.5,0,0,0-4.487,8.4,1.563,1.563,0,0,0,.323,1.3,1.542,1.542,0,0,0,1.2.568Z" transform="translate(-93.623 -232.467)" fill="#3d4451"/>
        <path id="Trazado_34195" data-name="Trazado 34195" d="M289.9,261.7a7.773,7.773,0,1,0-7.354-7.363A7.774,7.774,0,0,0,289.9,261.7" transform="translate(-216.324 -188.477)" fill="#7eb9c7"/>
        <path id="Trazado_34196" data-name="Trazado 34196" d="M284.29,332.187a2.56,2.56,0,0,0,2.508-3.065c-1.339-6.745-6.837-12.784-13.425-12.791s-12.1,6.019-13.452,12.762a2.56,2.56,0,0,0,2.5,3.071Z" transform="translate(-198.968 -242.196)" fill="#7eb9c7"/>
        <path id="Trazado_34197" data-name="Trazado 34197" d="M272.317,251.012q-.225,0-.45-.012a8.793,8.793,0,1,1,.45.012m.021-15.546a6.756,6.756,0,1,0,.35.009q-.175-.009-.35-.009" transform="translate(-201.787 -178.747)" fill="#3d4451"/>
        <path id="Trazado_34198" data-name="Trazado 34198" d="M266.307,321.485h0l-21.867-.024a3.562,3.562,0,0,1-3.483-4.271c1.554-7.737,7.754-13.567,14.423-13.567h.013c6.676.007,12.87,5.854,14.407,13.6a3.562,3.562,0,0,1-3.489,4.263m0-2.005h0a1.544,1.544,0,0,0,1.2-.566,1.562,1.562,0,0,0,.325-1.3,16.493,16.493,0,0,0-4.468-8.407,11.446,11.446,0,0,0-7.974-3.577h-.011a11.446,11.446,0,0,0-7.971,3.56,16.5,16.5,0,0,0-4.487,8.4,1.564,1.564,0,0,0,.323,1.3,1.542,1.542,0,0,0,1.2.568Z" transform="translate(-184.43 -232.467)" fill="#3d4451"/>
        <path id="Trazado_34199" data-name="Trazado 34199" d="M272.317,251.012q-.225,0-.45-.012a8.793,8.793,0,1,1,.45.012m.021-15.546a6.756,6.756,0,1,0,.35.009q-.175-.009-.35-.009" transform="translate(-201.787 -178.747)" fill="#3d4451"/>
        <path id="Trazado_34200" data-name="Trazado 34200" d="M266.307,321.485h0l-21.867-.024a3.562,3.562,0,0,1-3.483-4.271c1.554-7.737,7.754-13.567,14.423-13.567h.013c6.676.007,12.87,5.854,14.407,13.6a3.562,3.562,0,0,1-3.489,4.263m0-2.005h0a1.544,1.544,0,0,0,1.2-.566,1.562,1.562,0,0,0,.325-1.3,16.493,16.493,0,0,0-4.468-8.407,11.446,11.446,0,0,0-7.974-3.577h-.011a11.446,11.446,0,0,0-7.971,3.56,16.5,16.5,0,0,0-4.487,8.4,1.564,1.564,0,0,0,.323,1.3,1.542,1.542,0,0,0,1.2.568Z" transform="translate(-184.43 -232.467)" fill="#3d4451"/>
        <path id="Trazado_34201" data-name="Trazado 34201" d="M153.4,19.449a9.746,9.746,0,0,0,.333-2.6l2.773-1.238-1.1-3.915-2.952.38A9.766,9.766,0,0,0,150.8,9.918l1.051-2.745L148.3,5.183l-1.76,2.28a9.763,9.763,0,0,0-2.79-.356L142.586,4.5,138.67,5.6l.362,2.807a9.745,9.745,0,0,0-2.239,1.762l-2.646-1.012L132.157,12.7l2.263,1.745a9.735,9.735,0,0,0-.31,2.791l-2.633,1.175,1.1,3.915,2.92-.376a9.766,9.766,0,0,0,1.7,2.115l-1.065,2.782,3.548,1.99,1.857-2.405a9.753,9.753,0,0,0,2.608.291l1.249,2.8,3.917-1.1-.4-3.061a9.761,9.761,0,0,0,2.033-1.6l2.885,1.1,1.991-3.546ZM143.07,21.783a4.992,4.992,0,1,1,5.809-4.016,4.993,4.993,0,0,1-5.809,4.016" transform="translate(-100.664 -3.446)" fill="#fdc345"/>
        <path id="Trazado_34202" data-name="Trazado 34202" d="M141.954,27.13a1.055,1.055,0,0,1-.963-.625l-.973-2.179a10.8,10.8,0,0,1-1.493-.167l-1.45,1.879a1.054,1.054,0,0,1-1.351.275l-3.548-1.99a1.055,1.055,0,0,1-.469-1.3l.821-2.144a10.844,10.844,0,0,1-1-1.244l-2.259.291a1.053,1.053,0,0,1-1.15-.76l-1.1-3.915A1.055,1.055,0,0,1,127.6,14l2.009-.9a10.769,10.769,0,0,1,.188-1.683l-1.73-1.335a1.055,1.055,0,0,1-.275-1.352l1.991-3.546a1.055,1.055,0,0,1,1.3-.469l2.011.769a10.825,10.825,0,0,1,1.364-1.074l-.275-2.133a1.055,1.055,0,0,1,.761-1.15l3.917-1.1A1.054,1.054,0,0,1,140.1.624l.89,1.992a10.783,10.783,0,0,1,1.685.214l1.342-1.739a1.055,1.055,0,0,1,1.351-.275l3.548,1.99a1.054,1.054,0,0,1,.469,1.3l-.813,2.122a10.821,10.821,0,0,1,.977,1.268l2.276-.293a1.054,1.054,0,0,1,1.15.76l1.1,3.915a1.054,1.054,0,0,1-.585,1.249l-2.166.966a10.824,10.824,0,0,1-.19,1.49l1.889,1.457a1.054,1.054,0,0,1,.275,1.351l-1.991,3.546a1.055,1.055,0,0,1-1.3.469l-2.259-.864a10.833,10.833,0,0,1-1.149.9l.309,2.4a1.055,1.055,0,0,1-.761,1.15l-3.917,1.1a1.051,1.051,0,0,1-.285.04M140.7,22.225a1.055,1.055,0,0,1,.963.625l.878,1.965,2.162-.607-.278-2.158a1.055,1.055,0,0,1,.509-1.043,8.7,8.7,0,0,0,1.813-1.426,1.054,1.054,0,0,1,1.133-.25l2.034.778,1.1-1.957-1.7-1.314a1.054,1.054,0,0,1-.374-1.108,8.7,8.7,0,0,0,.3-2.322,1.054,1.054,0,0,1,.625-.971l1.941-.866-.608-2.161-2.049.264a1.052,1.052,0,0,1-1.052-.526,8.712,8.712,0,0,0-1.479-1.922,1.055,1.055,0,0,1-.247-1.131l.725-1.894-1.959-1.1-1.2,1.559a1.057,1.057,0,0,1-1.117.372,8.679,8.679,0,0,0-2.489-.317,1.045,1.045,0,0,1-.982-.624l-.793-1.775-2.163.607.246,1.9a1.055,1.055,0,0,1-.522,1.05,8.69,8.69,0,0,0-2,1.572,1.055,1.055,0,0,1-1.143.26l-1.8-.687-1.1,1.957,1.542,1.189a1.055,1.055,0,0,1,.376,1.1,8.685,8.685,0,0,0-.277,2.489,1.054,1.054,0,0,1-.624,1l-1.8.8.608,2.161,2.017-.26a1.051,1.051,0,0,1,1.04.5,8.707,8.707,0,0,0,1.521,1.886A1.054,1.054,0,0,1,134.741,21L134,22.929l1.959,1.1,1.3-1.685a1.053,1.053,0,0,1,1.091-.378,8.6,8.6,0,0,0,2.326.259h.025m-.172-2.751a6.091,6.091,0,0,1-1.1-.1,6.021,6.021,0,1,1,1.1.1m-.023-9.987a3.954,3.954,0,1,0,.715.065,4,4,0,0,0-.715-.065" transform="translate(-97.218 0.001)" fill="#3d4451"/>
      </g>
    </g>
  </g>
</svg>
