<svg xmlns="http://www.w3.org/2000/svg" xmlns:xlink="http://www.w3.org/1999/xlink" width="156" height="156" viewBox="0 0 156 156">
  <defs>
    <clipPath id="clip-path">
      <rect id="Rectángulo_4722" data-name="Rectángulo 4722" width="105.187" height="76.651" fill="none"/>
    </clipPath>
  </defs>
  <g id="Grupo_18926" data-name="Grupo 18926" transform="translate(-422 -10929)">
    <g id="Elipse_987" data-name="Elipse 987" transform="translate(422 10929)" fill="#fff" stroke="#fd8f25" stroke-width="2">
      <circle cx="78" cy="78" r="78" stroke="none"/>
      <circle cx="78" cy="78" r="77" fill="none"/>
    </g>
    <g id="Grupo_18547" data-name="Grupo 18547" transform="translate(442 10964.067)">
      <g id="Grupo_18546" data-name="Grupo 18546" clip-path="url(#clip-path)">
        <path id="Trazado_34254" data-name="Trazado 34254" d="M204.219,48.439,184.3,30.375a7.708,7.708,0,0,0-5.146-1.947v.029L165.3,28.294l-13.831-.022a7.708,7.708,0,0,0-5.152,1.931L127.834,46.66,139.9,58.867l4.759-5.535.277-8.708,1.943,0a3.335,3.335,0,0,1,3.33,3.341l-.059,38.026,38.225.06.037-30.16,4.356,4.37Z" transform="translate(-101.474 -22.442)" fill="#c7ddeb"/>
        <path id="Trazado_34255" data-name="Trazado 34255" d="M170.086,59.381l-43.015-.067.04-25.636-3.865,3.24L107.2,20.7,127.792,2.365A9.421,9.421,0,0,1,134.073,0h.015l14.673.023,13.447.159V.165l1.249,0a9.421,9.421,0,0,1,6.289,2.384l20.535,18.4-16.1,16.171-4.059-3.424Zm-40.518-2.556,38.029.059.045-28.549,6.4,5.4,12.623-12.681L168.083,4.408A6.887,6.887,0,0,0,164.2,2.7l-15.451-.183-14.66-.023h-.011a6.932,6.932,0,0,0-4.623,1.733L110.821,20.812,123.4,33.532l6.208-5.2Z" transform="translate(-85.095 -0.001)" fill="#3d4451"/>
        <path id="Trazado_34256" data-name="Trazado 34256" d="M258.165,18.751h-.022a13.363,13.363,0,0,1-9.158-3.561,11.769,11.769,0,0,1-3.827-8.671l2.519,0a9.274,9.274,0,0,0,3.028,6.828,10.851,10.851,0,0,0,7.441,2.881h.018c5.773,0,10.473-4.337,10.482-9.677l2.519,0c-.011,6.726-5.841,12.191-13,12.191" transform="translate(-194.606 -5.175)" fill="#3d4451"/>
        <rect id="Rectángulo_4713" data-name="Rectángulo 4713" width="9.501" height="2.579" transform="matrix(0.002, -1, 1, 0.002, 42.163, 31.681)" fill="#3d4451"/>
        <rect id="Rectángulo_4714" data-name="Rectángulo 4714" width="9.501" height="2.579" transform="matrix(0.002, -1, 1, 0.002, 82.541, 31.744)" fill="#3d4451"/>
        <rect id="Rectángulo_4715" data-name="Rectángulo 4715" width="7.09" height="38.853" transform="translate(44.038 34.346) rotate(-89.911)" fill="#f04f4c"/>
        <path id="Trazado_34257" data-name="Trazado 34257" d="M249.167,136.084l-41.125-.064.015-9.363,41.125.064Zm-38.849-2.333,36.58.057.007-4.817-36.58-.057Z" transform="translate(-165.142 -100.539)" fill="#3d4451"/>
        <path id="Trazado_34258" data-name="Trazado 34258" d="M63.934,215.1a4.451,4.451,0,0,0-2.842.981l-9.05,7.529a8.3,8.3,0,0,0-.02,12.713l9.027,7.557a4.451,4.451,0,0,0,2.839.99l45.544.071c2.231,0,4.042-1.52,4.045-3.4l.036-22.951c0-1.883-1.8-3.412-4.034-3.415Z" transform="translate(-38.951 -170.746)" fill="#f5fafc"/>
        <path id="Trazado_34259" data-name="Trazado 34259" d="M95.424,246.9a3.952,3.952,0,0,0-2.355.732l-7.5,5.62a5.813,5.813,0,0,0-.015,9.492l7.482,5.643a3.953,3.953,0,0,0,2.353.739l37.747.059c1.849,0,3.35-1.134,3.352-2.54l.027-17.136c0-1.406-1.495-2.547-3.344-2.55Z" transform="translate(-65.968 -195.991)" fill="#fdc345"/>
        <path id="Trazado_34260" data-name="Trazado 34260" d="M104.4,242.342h-.01l-45.522-.071a5.556,5.556,0,0,1-3.655-1.34l-9.022-7.88a10.144,10.144,0,0,1,.024-15.138l9.046-7.852a5.553,5.553,0,0,1,3.651-1.328h.009l45.522.071a5.549,5.549,0,0,1,3.677,1.358,4.562,4.562,0,0,1,1.6,3.452l-.037,23.934a5.066,5.066,0,0,1-5.282,4.793M58.911,211.226a3.106,3.106,0,0,0-2.016.717L47.848,219.8a7.652,7.652,0,0,0-.018,11.377l9.022,7.88a3.1,3.1,0,0,0,2.019.724l45.522.071h.006a2.586,2.586,0,0,0,2.789-2.3l.037-23.934a2.1,2.1,0,0,0-.757-1.58,3.059,3.059,0,0,0-2.03-.733l-45.522-.071Z" transform="translate(-33.984 -165.691)" fill="#3d4451"/>
        <path id="Trazado_34261" data-name="Trazado 34261" d="M74.625,277.973a3.783,3.783,0,1,1,3.777,3.789,3.783,3.783,0,0,1-3.777-3.789" transform="translate(-59.237 -217.655)" fill="#fff"/>
        <path id="Trazado_34262" data-name="Trazado 34262" d="M74.975,279.22h-.007a4.675,4.675,0,0,1,.007-9.349h.007a4.675,4.675,0,0,1-.007,9.349m0-7.565a2.891,2.891,0,0,0,0,5.782h0a2.891,2.891,0,0,0,0-5.782Z" transform="translate(-55.804 -214.222)" fill="#3d4451"/>
        <path id="Trazado_34263" data-name="Trazado 34263" d="M18.684,259.014h0l-13.9-.022a4.793,4.793,0,0,1,.008-9.586H4.8l8.885.014a.892.892,0,0,1,0,1.784h0L4.8,251.191h0a3.009,3.009,0,0,0,0,6.018l13.9.022a.892.892,0,0,1,0,1.784" transform="translate(0 -197.978)" fill="#3d4451"/>
        <rect id="Rectángulo_4716" data-name="Rectángulo 4716" width="20.897" height="13.235" transform="translate(45.473 54.186)" fill="#f5fafc"/>
        <path id="Trazado_34264" data-name="Trazado 34264" d="M145.916,251.774l.034,2.813-1.893.023-.033-2.736a10.574,10.574,0,0,1-4.916-1.133l-.044-3.592a7.555,7.555,0,0,0,2.257,1.1,10.335,10.335,0,0,0,2.666.564l-.058-4.72a10.014,10.014,0,0,1-4.172-2.393,4.812,4.812,0,0,1-1.148-3.2,4.712,4.712,0,0,1,1.4-3.486,6.051,6.051,0,0,1,3.792-1.713l-.029-2.412,1.893-.023.029,2.36a9.609,9.609,0,0,1,4.1.832l.043,3.5a9.8,9.8,0,0,0-4.1-1.3l.06,4.914a10.4,10.4,0,0,1,4.1,2.291,4.489,4.489,0,0,1,1.271,3.168,4.581,4.581,0,0,1-1.332,3.486,6.564,6.564,0,0,1-3.909,1.649m-2.031-11.323-.05-4.11q-1.8.346-1.779,1.9.016,1.336,1.829,2.208m1.946,4.36.048,3.928q1.851-.307,1.832-1.877-.015-1.271-1.879-2.052" transform="translate(-110.027 -183.265)" fill="#3d4451"/>
        <rect id="Rectángulo_4717" data-name="Rectángulo 4717" width="2.698" height="10.876" transform="translate(50.619 55.58)" fill="#3d4451"/>
        <rect id="Rectángulo_4718" data-name="Rectángulo 4718" width="1.717" height="10.876" transform="translate(55.287 55.58)" fill="#3d4451"/>
        <rect id="Rectángulo_4719" data-name="Rectángulo 4719" width="1.362" height="10.876" transform="translate(58.054 55.58)" fill="#3d4451"/>
        <rect id="Rectángulo_4720" data-name="Rectángulo 4720" width="1.945" height="10.876" transform="translate(47.098 55.58)" fill="#3d4451"/>
        <rect id="Rectángulo_4721" data-name="Rectángulo 4721" width="3.486" height="10.876" transform="translate(61.065 55.58)" fill="#3d4451"/>
      </g>
    </g>
  </g>
</svg>
