<svg xmlns="http://www.w3.org/2000/svg" xmlns:xlink="http://www.w3.org/1999/xlink" width="156" height="156" viewBox="0 0 156 156">
  <defs>
    <clipPath id="clip-path">
      <rect id="Rectángulo_4695" data-name="Rectángulo 4695" width="94.346" height="88.465" fill="none"/>
    </clipPath>
  </defs>
  <g id="Grupo_18923" data-name="Grupo 18923" transform="translate(-422 -9875)">
    <g id="Elipse_984" data-name="Elipse 984" transform="translate(422 9875)" fill="#fff" stroke="#fd8f25" stroke-width="2">
      <circle cx="78" cy="78" r="78" stroke="none"/>
      <circle cx="78" cy="78" r="77" fill="none"/>
    </g>
    <g id="Grupo_18540" data-name="Grupo 18540" transform="translate(453 9904.93)" clip-path="url(#clip-path)">
      <path id="Trazado_34203" data-name="Trazado 34203" d="M146.051,27.878a11.754,11.754,0,0,0,1.986-2.478l3.653.48,1.327-4.742-3.3-1.479a11.833,11.833,0,0,0-.359-3.277l2.819-2.169-2.421-4.306L146.5,11.146a11.9,11.9,0,0,0-2.666-2.136l.437-3.43-4.751-1.347-1.394,3.129a11.809,11.809,0,0,0-3.43.4l-2.1-2.723-4.3,2.4,1.244,3.238a11.742,11.742,0,0,0-2.081,2.686l-3.469-.456-1.327,4.742,3.262,1.463a11.842,11.842,0,0,0,.433,3.265l-2.857,2.2,2.421,4.305,3.44-1.307a11.9,11.9,0,0,0,2.519,1.954l-.469,3.68,4.751,1.347,1.521-3.413a11.832,11.832,0,0,0,3.114-.363l2.293,2.969,4.3-2.4Zm-12.177-4.141a6.041,6.041,0,1,1,8.549-.465,6.052,6.052,0,0,1-8.549.465" transform="translate(-99.4 -3.43)" fill="#f04f4c"/>
      <path id="Trazado_34204" data-name="Trazado 34204" d="M132.73,31.929a.807.807,0,0,1-.219-.031l-4.751-1.347a.8.8,0,0,1-.577-.874l.4-3.164a12.734,12.734,0,0,1-1.851-1.437L122.773,26.2a.8.8,0,0,1-.985-.357l-2.421-4.305a.8.8,0,0,1,.21-1.029l2.439-1.876a12.629,12.629,0,0,1-.32-2.428L118.9,14.953a.8.8,0,0,1-.444-.949l1.327-4.742a.8.8,0,0,1,.878-.58l2.944.387a12.522,12.522,0,0,1,1.566-2.019L124.114,4.3a.8.8,0,0,1,.358-.989l4.3-2.4a.8.8,0,0,1,1.027.21l1.783,2.309a12.616,12.616,0,0,1,2.6-.3l1.18-2.648a.8.8,0,0,1,.952-.446l4.751,1.347a.8.8,0,0,1,.577.874l-.371,2.917a12.686,12.686,0,0,1,2.012,1.611l2.769-1.052a.8.8,0,0,1,.985.357l2.421,4.305a.8.8,0,0,1-.21,1.029l-2.411,1.855a12.635,12.635,0,0,1,.268,2.438l2.82,1.265a.8.8,0,0,1,.444.949l-1.327,4.742a.8.8,0,0,1-.878.58l-3.143-.413a12.558,12.558,0,0,1-1.454,1.816l1.146,2.981a.8.8,0,0,1-.358.989l-4.3,2.4a.8.8,0,0,1-1.027-.21l-1.978-2.562a12.634,12.634,0,0,1-2.271.265l-1.31,2.939a.8.8,0,0,1-.733.476M128.862,29.2l3.417.968,1.238-2.777a.8.8,0,0,1,.733-.476h.014a11.118,11.118,0,0,0,2.9-.338.8.8,0,0,1,.833.287l1.87,2.421,3.087-1.724-1.084-2.82a.8.8,0,0,1,.2-.87,10.96,10.96,0,0,0,1.851-2.309.8.8,0,0,1,.793-.383l2.963.39.953-3.406-2.668-1.2a.8.8,0,0,1-.474-.757,11.024,11.024,0,0,0-.334-3.055.8.8,0,0,1,.288-.834l2.269-1.746-1.742-3.1-2.615.994a.8.8,0,0,1-.872-.2,11.108,11.108,0,0,0-2.487-1.992.8.8,0,0,1-.389-.793l.349-2.745-3.417-.968-1.111,2.494a.8.8,0,0,1-.758.476,11.006,11.006,0,0,0-3.2.374.8.8,0,0,1-.844-.284l-1.68-2.176-3.087,1.724.995,2.588a.8.8,0,0,1-.192.866,10.946,10.946,0,0,0-1.939,2.5.8.8,0,0,1-.8.4l-2.779-.365-.953,3.406,2.631,1.18a.8.8,0,0,1,.474.738,11.046,11.046,0,0,0,.4,3.044.8.8,0,0,1-.284.851l-2.306,1.775,1.742,3.1,2.795-1.062a.8.8,0,0,1,.857.187,11.108,11.108,0,0,0,2.349,1.822.8.8,0,0,1,.394.8Zm5.628-6.542a6.883,6.883,0,0,1-6.869-6.475,6.784,6.784,0,0,1,1.722-4.951,6.876,6.876,0,0,1,11.971,4.2,6.82,6.82,0,0,1-6.824,7.227m-.046-12.1a5.279,5.279,0,1,0,3.512,1.34,5.215,5.215,0,0,0-3.512-1.34" transform="translate(-95.97 -0.001)" fill="#3d4451"/>
      <path id="Trazado_34205" data-name="Trazado 34205" d="M300.654,79.893a9.192,9.192,0,0,0-2.424-.473l-.983-2.675-3.748.789.167,2.789a9.22,9.22,0,0,0-2.132,1.419l-2.511-1.155-2.1,3.2,2.028,1.79a9.156,9.156,0,0,0-.514,2.591l-2.523.929.781,3.737,2.66-.165a9.119,9.119,0,0,0,1.511,2.206l-1.122,2.415,3.2,2.085,1.785-2.011a9.193,9.193,0,0,0,2.6.464l.934,2.54,3.748-.789-.165-2.758a9.211,9.211,0,0,0,2.1-1.465l2.544,1.17,2.1-3.2-2.14-1.889a9.152,9.152,0,0,0,.442-2.425l2.707-1-.78-3.737-2.9.18a9.116,9.116,0,0,0-1.371-2l1.223-2.634-3.2-2.085Zm1.525,9.825a4.7,4.7,0,1,1-3.4-5.69,4.714,4.714,0,0,1,3.4,5.69" transform="translate(-231.698 -62.192)" fill="#7eb9c7"/>
      <path id="Trazado_34206" data-name="Trazado 34206" d="M295.394,98.168a.672.672,0,0,1-.63-.44l-.781-2.125a9.886,9.886,0,0,1-1.907-.341l-1.5,1.688a.672.672,0,0,1-.87.117l-3.2-2.085a.673.673,0,0,1-.243-.847l.936-2.017a9.79,9.79,0,0,1-1.112-1.624l-2.222.138a.67.67,0,0,1-.7-.534l-.78-3.737a.672.672,0,0,1,.426-.768l2.117-.779a9.823,9.823,0,0,1,.376-1.9l-1.7-1.5a.672.672,0,0,1-.117-.873l2.1-3.2a.672.672,0,0,1,.843-.242l2.121.976a9.889,9.889,0,0,1,1.543-1.028l-.14-2.35a.672.672,0,0,1,.532-.7l3.748-.789a.673.673,0,0,1,.769.426l.835,2.271a9.856,9.856,0,0,1,1.727.337l1.625-1.83a.672.672,0,0,1,.869-.117l3.2,2.085a.672.672,0,0,1,.243.847l-1.04,2.24a9.811,9.811,0,0,1,.968,1.415l2.469-.153a.673.673,0,0,1,.7.534l.78,3.737a.672.672,0,0,1-.426.768l-2.3.846a9.8,9.8,0,0,1-.315,1.726l1.817,1.6a.673.673,0,0,1,.117.873l-2.1,3.2a.673.673,0,0,1-.843.242l-2.145-.987a9.9,9.9,0,0,1-1.517,1.06l.139,2.33a.673.673,0,0,1-.533.7l-3.748.789a.682.682,0,0,1-.139.014m-3.534-4.348a.67.67,0,0,1,.212.035,8.511,8.511,0,0,0,2.411.43.672.672,0,0,1,.609.44l.733,1.994,2.612-.55-.13-2.18a.672.672,0,0,1,.366-.639,8.547,8.547,0,0,0,1.943-1.358.671.671,0,0,1,.739-.119l2.018.928,1.462-2.229-1.7-1.5a.673.673,0,0,1-.194-.712,8.472,8.472,0,0,0,.409-2.247.672.672,0,0,1,.44-.6l2.162-.8-.543-2.6-2.32.144a.669.669,0,0,1-.642-.369,8.444,8.444,0,0,0-1.269-1.856.672.672,0,0,1-.11-.733l.977-2.105-2.229-1.451-1.529,1.723a.672.672,0,0,1-.719.19,8.529,8.529,0,0,0-2.247-.439.672.672,0,0,1-.592-.439l-.783-2.129-2.612.55.132,2.211a.672.672,0,0,1-.38.646,8.558,8.558,0,0,0-1.976,1.316.671.671,0,0,1-.728.108l-1.985-.913L284.933,80.8l1.591,1.4a.672.672,0,0,1,.189.729,8.49,8.49,0,0,0-.477,2.4.672.672,0,0,1-.439.6l-1.978.728.543,2.6,2.079-.129a.668.668,0,0,1,.646.377,8.45,8.45,0,0,0,1.4,2.044.672.672,0,0,1,.117.74l-.876,1.887,2.229,1.451,1.4-1.578a.672.672,0,0,1,.5-.226m2.878-2.756a5.368,5.368,0,0,1-4.6-2.612,5.31,5.31,0,0,1-.588-4.059,5.394,5.394,0,0,1,6.528-3.89,5.346,5.346,0,0,1,3.885,6.508,5.4,5.4,0,0,1-5.22,4.052m.026-9.378a4.048,4.048,0,0,0-3.916,3.04,4,4,0,0,0,2.909,4.872,4.046,4.046,0,0,0,4.9-2.918,4,4,0,0,0-2.909-4.872,4.024,4.024,0,0,0-.982-.122" transform="translate(-228.824 -59.319)" fill="#3d4451"/>
      <path id="Trazado_34207" data-name="Trazado 34207" d="M172.956,183.148a16.076,16.076,0,0,0-.255-4.339l4.152-2.861-3-6.035-4.707,1.521a16.19,16.19,0,0,0-3.37-3l.875-4.789-6.407-2.156-2.177,4.249a16.3,16.3,0,0,0-4.668.273l-2.7-3.886-6.062,2.987,1.452,4.457a16.168,16.168,0,0,0-3.117,3.552l-4.633-.839-2.165,6.379,4.232,2.15a16.082,16.082,0,0,0,.349,4.638l-3.942,2.717,3,6.035,4.655-1.5a16.2,16.2,0,0,0,3.433,2.92l-.887,4.853,6.407,2.155,2.3-4.482a16.283,16.283,0,0,0,4.351-.324l2.9,4.169L169.03,199l-1.584-4.862a16.161,16.161,0,0,0,2.831-3.223l5.052.915,2.165-6.379ZM156.788,190.1a8.267,8.267,0,1,1,8.259-8.31,8.285,8.285,0,0,1-8.259,8.31" transform="translate(-110.352 -130.865)" fill="#fdc345"/>
      <path id="Trazado_34208" data-name="Trazado 34208" d="M149.077,199.3a1.02,1.02,0,0,1-.324-.053l-6.407-2.156a1.016,1.016,0,0,1-.676-1.146l.767-4.194a17.221,17.221,0,0,1-2.619-2.23l-4.037,1.3a1.016,1.016,0,0,1-1.223-.515l-3-6.035a1.016,1.016,0,0,1,.333-1.289l3.39-2.336a17.086,17.086,0,0,1-.268-3.574l-3.645-1.851a1.017,1.017,0,0,1-.5-1.233l2.165-6.379a1.017,1.017,0,0,1,1.144-.673l3.981.721a17.175,17.175,0,0,1,2.415-2.753l-1.246-3.823a1.017,1.017,0,0,1,.517-1.227l6.061-2.987a1.017,1.017,0,0,1,1.284.332l2.327,3.347a17.271,17.271,0,0,1,3.607-.213l1.872-3.654a1.016,1.016,0,0,1,1.229-.5l6.407,2.156a1.017,1.017,0,0,1,.676,1.146l-.758,4.145a17.223,17.223,0,0,1,2.573,2.291L169.2,164.6a1.016,1.016,0,0,1,1.223.515l3,6.035a1.017,1.017,0,0,1-.333,1.289l-3.614,2.491a17.111,17.111,0,0,1,.193,3.267l3.944,2a1.016,1.016,0,0,1,.5,1.233l-2.165,6.379a1.015,1.015,0,0,1-1.144.674l-4.409-.8a17.164,17.164,0,0,1-2.122,2.417l1.38,4.237a1.017,1.017,0,0,1-.517,1.227l-6.061,2.987a1.017,1.017,0,0,1-1.284-.332l-2.522-3.627a17.223,17.223,0,0,1-3.284.243l-2,3.9a1.017,1.017,0,0,1-.9.553m-5.249-3.855,4.744,1.6,1.9-3.7a1.011,1.011,0,0,1,.966-.551,15.277,15.277,0,0,0,4.079-.3,1.017,1.017,0,0,1,1.045.414l2.4,3.451,4.487-2.211-1.311-4.024a1.017,1.017,0,0,1,.3-1.081,15.151,15.151,0,0,0,2.653-3.02,1.014,1.014,0,0,1,1.027-.437l4.189.759,1.6-4.715-3.751-1.9a1.017,1.017,0,0,1-.553-.984,15.074,15.074,0,0,0-.239-4.065,1.017,1.017,0,0,1,.421-1.033l3.426-2.361-2.218-4.462-3.874,1.251a1.015,1.015,0,0,1-1.088-.31,15.179,15.179,0,0,0-3.158-2.813,1.016,1.016,0,0,1-.436-1.029l.717-3.923-4.744-1.6-1.778,3.47a1.014,1.014,0,0,1-.991.549,15.288,15.288,0,0,0-4.377.257,1.017,1.017,0,0,1-1.039-.416l-2.2-3.167-4.487,2.211,1.18,3.62A1.017,1.017,0,0,1,142.4,166a15.156,15.156,0,0,0-2.921,3.329,1.015,1.015,0,0,1-1.035.448l-3.771-.683-1.6,4.715,3.447,1.751a1.017,1.017,0,0,1,.554.977,15.054,15.054,0,0,0,.327,4.344,1.017,1.017,0,0,1-.415,1.059l-3.217,2.216,2.218,4.462,3.822-1.234a1.015,1.015,0,0,1,1.072.292,15.2,15.2,0,0,0,3.218,2.737,1.017,1.017,0,0,1,.456,1.041Zm8.57-8.666a9.312,9.312,0,0,1-9.318-9.234,9.3,9.3,0,0,1,9.27-9.332h.05a9.312,9.312,0,0,1,9.319,9.234,9.3,9.3,0,0,1-9.27,9.332h-.05m0-16.533h-.039a7.25,7.25,0,1,0,.037,14.5h.039a7.25,7.25,0,1,0-.038-14.5" transform="translate(-106.007 -126.52)" fill="#3d4451"/>
      <path id="Trazado_34209" data-name="Trazado 34209" d="M73.623,147.851a7.942,7.942,0,1,0-7.775-7.509,8.077,8.077,0,0,0,7.775,7.509" transform="translate(-53.353 -106.96)" fill="#3d4451"/>
      <path id="Trazado_34210" data-name="Trazado 34210" d="M58.721,240.163l-6.222-.736a3.641,3.641,0,0,1-3.242-4.114l2.269-15.854a3.863,3.863,0,0,1,4.292-3.223,9.655,9.655,0,0,1,8.6,10.908l-1.4,9.8a3.863,3.863,0,0,1-4.292,3.223" transform="translate(-39.887 -175.209)" fill="#3d4451"/>
      <path id="Trazado_34211" data-name="Trazado 34211" d="M94.829,339.684a3.1,3.1,0,0,1-3.074-2.757l-1.419-12.855L83,318.042a3.1,3.1,0,1,1,3.932-4.785l9.285,7.63,1.7,15.36a3.1,3.1,0,0,1-3.082,3.437" transform="translate(-66.343 -253.284)" fill="#3d4451"/>
      <path id="Trazado_34212" data-name="Trazado 34212" d="M3.095,335.356a3.1,3.1,0,0,1-2.767-4.482L7.213,317.1l2.4-8.64a3.1,3.1,0,1,1,5.968,1.654l-2.556,9.219L5.867,333.644a3.1,3.1,0,0,1-2.772,1.713" transform="translate(0 -248.13)" fill="#3d4451"/>
      <path id="Trazado_34213" data-name="Trazado 34213" d="M96.4,248.538l-10.284-6.919a2.554,2.554,0,1,1,2.851-4.238L97.7,243.26l6.712-.726a2.554,2.554,0,0,1,.549,5.078Z" transform="translate(-68.869 -192.014)" fill="#3d4451"/>
      <path id="Trazado_34214" data-name="Trazado 34214" d="M418.735,175.068a7.942,7.942,0,1,0-7.775-7.509,8.076,8.076,0,0,0,7.775,7.509" transform="translate(-333.021 -129.016)" fill="#3d4451"/>
      <path id="Trazado_34215" data-name="Trazado 34215" d="M345.689,247.96l-5.792-2.388a3.641,3.641,0,0,1-2.012-4.836l6.464-14.654a3.863,3.863,0,0,1,5-1.945,9.655,9.655,0,0,1,5.334,12.823l-3.994,9.054a3.863,3.863,0,0,1-5,1.945" transform="translate(-273.564 -181.395)" fill="#3d4451"/>
      <path id="Trazado_34216" data-name="Trazado 34216" d="M376.767,345.277a3.131,3.131,0,0,1-.4-.026,3.1,3.1,0,0,1-2.677-3.466l1.653-12.859-7.241-6.639a3.1,3.1,0,0,1,4.186-4.565l9.607,8.81-2.063,16.043a3.1,3.1,0,0,1-3.068,2.7" transform="translate(-297.487 -256.813)" fill="#3d4451"/>
      <path id="Trazado_34217" data-name="Trazado 34217" d="M304.661,340.128a3.1,3.1,0,0,1-2.849-4.307l5.561-13.108.388-9.194a3.1,3.1,0,1,1,6.188.261l-.435,10.317-6,14.143a3.1,3.1,0,0,1-2.852,1.888" transform="translate(-244.379 -251.663)" fill="#3d4451"/>
      <path id="Trazado_34218" data-name="Trazado 34218" d="M286.845,242.27a2.554,2.554,0,0,1-1.341-4.729l11.144-6.858,7.285-1.325a2.554,2.554,0,0,1,.914,5.025l-6.34,1.153-10.326,6.355a2.543,2.543,0,0,1-1.336.379" transform="translate(-230.379 -185.832)" fill="#3d4451"/>
    </g>
  </g>
</svg>
