<svg xmlns="http://www.w3.org/2000/svg" width="760" height="540" viewBox="0 0 760 540">
  <g id="Grupo_55213" data-name="Grupo 55213" transform="translate(-622 -6921)">
    <g id="CF1_slide_copia_3" data-name="CF1_slide copia 3" transform="translate(622 6921)">
      <g id="Layer_1" data-name="Layer 1">
        <rect id="Rectángulo_6005" data-name="Rectángulo 6005" width="760" height="540" fill="#f1eefd"/>
        <path id="Trazado_110093" data-name="Trazado 110093" d="M30.55,336c13.1-29.46,41.47-44.75,70.38-50.2,35.22-6.65,65-12.73,78.4-52.17,11.95-35.3,10.24-74.79,21.81-109.69,10-30.14,30.6-51,59.27-59.84,27.07-8.38,55.39-6.27,82.75-12.5,23.75-5.41,51.61-24.67,63.58-46.62,1.93-3.54.92-1.65,2-4.93H0V540H46c16.73-41.3,8.38-72.3-5-105.77C28.36,402.56,15.61,369.54,30.55,336Z" fill="#dad5ed"/>
        <path id="Trazado_110094" data-name="Trazado 110094" d="M0,0V540H51.35c17-43.52,6.51-77-5.71-107.63C34,403.21,20.81,370.17,35.12,338c14.67-33,48.11-43.8,66.74-47.32,34.84-6.57,67.75-12.78,82.21-55.48,6.2-18.31,8.82-37.77,11.35-56.59,2.41-17.86,4.9-36.33,10.47-53.13,9.49-28.65,28.85-48.23,56-56.63,14.58-4.51,29.36-5.86,45-7.29,12.26-1.12,24.94-2.28,37.38-5.11,26.52-6,54.63-26.69,66.86-49.1l.11-.2A14.3,14.3,0,0,0,413,3.21c.07-.28.17-.66.48-1.6L414.05,0Z" fill="#cec8e8"/>
        <path id="Trazado_110095" data-name="Trazado 110095" d="M30.55,336c13.1-29.46,41.47-44.75,70.38-50.2,35.22-6.65,65-12.73,78.4-52.17,11.95-35.3,10.24-74.79,21.81-109.69,10-30.13,30.6-51,59.27-59.84,27.07-8.38,55.39-6.27,82.75-12.5,23.75-5.41,51.61-24.67,63.58-46.62,1.93-3.54.92-1.65,2-4.93H0V540H46c16.73-41.3,8.38-72.3-5-105.77C28.36,402.56,15.61,369.54,30.55,336Z" fill="#fff"/>
        <rect id="Rectángulo_6006" data-name="Rectángulo 6006" width="12.37" height="27.14" transform="translate(187.52 423.85)" fill="#394a63"/>
        <rect id="Rectángulo_6007" data-name="Rectángulo 6007" width="12.37" height="27.14" transform="translate(345.63 423.85)" fill="#394a63"/>
        <rect id="Rectángulo_6008" data-name="Rectángulo 6008" width="182.75" height="197.65" transform="translate(181.6 235.94)" fill="#9182ca"/>
        <rect id="Rectángulo_6009" data-name="Rectángulo 6009" width="182.75" height="32.48" transform="translate(181.6 203.46)" fill="#6c58b7"/>
        <rect id="Rectángulo_6010" data-name="Rectángulo 6010" width="182.75" height="5.8" transform="translate(181.6 235.94)" fill="#95b5cb"/>
        <path id="Trazado_110096" data-name="Trazado 110096" d="M328.11,235.94h36.24V203.46H328.11s15.66,4.06,15.66,15.8S328.11,235.94,328.11,235.94Z" fill="#576286" opacity="0.3"/>
        <rect id="Rectángulo_6011" data-name="Rectángulo 6011" width="183.19" height="4.52" transform="translate(181.17 429.07)" fill="#394a63"/>
        <rect id="Rectángulo_6012" data-name="Rectángulo 6012" width="7.54" height="45.82" transform="translate(181.6 190.12)" fill="#95b5cb"/>
        <path id="Trazado_110097" data-name="Trazado 110097" d="M181.6,241.74H364.36V429.07h-39.3V247.97L181.6,244.49Z" fill="#dad5ed" opacity="0.3"/>
        <path id="Trazado_110098" data-name="Trazado 110098" d="M268.33,417.47H190.9V252.18l77.43,2.89Z" fill="#f1f1f1"/>
        <rect id="Rectángulo_6013" data-name="Rectángulo 6013" width="16.53" height="27.14" transform="translate(477.52 423.85)" fill="#394a63"/>
        <rect id="Rectángulo_6014" data-name="Rectángulo 6014" width="16.53" height="27.14" transform="translate(644.12 423.85)" fill="#394a63"/>
        <rect id="Rectángulo_6015" data-name="Rectángulo 6015" width="200.09" height="365.96" transform="translate(469.04 67.62)" fill="#9182ca"/>
        <rect id="Rectángulo_6016" data-name="Rectángulo 6016" width="200.09" height="4.18" transform="translate(469.04 118.08)" fill="#95b5cb"/>
        <rect id="Rectángulo_6017" data-name="Rectángulo 6017" width="200.09" height="65.25" transform="translate(469.04 122.26)" fill="#5c708d"/>
        <rect id="Rectángulo_6018" data-name="Rectángulo 6018" width="153.11" height="57.42" transform="translate(492.53 130.09)" fill="#394a63"/>
        <path id="Trazado_110099" data-name="Trazado 110099" d="M679,193a6.52,6.52,0,0,0-6.51-6.38H465.71A6.5,6.5,0,0,0,459.2,193h0v31.46H679Z" fill="#6c58b7"/>
        <rect id="Rectángulo_6019" data-name="Rectángulo 6019" width="200.09" height="4.52" transform="translate(469.04 429.07)" fill="#394a63"/>
        <g id="Grupo_54983" data-name="Grupo 54983" opacity="0.2">
          <rect id="Rectángulo_6020" data-name="Rectángulo 6020" width="19.66" height="47.56" transform="translate(497.46 133.28)" fill="#394a63"/>
          <rect id="Rectángulo_6021" data-name="Rectángulo 6021" width="19.66" height="47.56" transform="translate(522.18 133.28)" fill="#394a63"/>
          <rect id="Rectángulo_6022" data-name="Rectángulo 6022" width="19.66" height="47.56" transform="translate(546.9 133.28)" fill="#394a63"/>
          <rect id="Rectángulo_6023" data-name="Rectángulo 6023" width="19.66" height="47.56" transform="translate(571.61 133.28)" fill="#394a63"/>
          <rect id="Rectángulo_6024" data-name="Rectángulo 6024" width="19.66" height="47.56" transform="translate(596.33 133.28)" fill="#394a63"/>
          <rect id="Rectángulo_6025" data-name="Rectángulo 6025" width="19.66" height="47.56" transform="translate(621.05 133.28)" fill="#394a63"/>
        </g>
        <g id="Grupo_54984" data-name="Grupo 54984" opacity="0.2">
          <rect id="Rectángulo_6026" data-name="Rectángulo 6026" width="19.66" height="35.52" transform="translate(497.46 145.31)" fill="#394a63"/>
          <rect id="Rectángulo_6027" data-name="Rectángulo 6027" width="19.66" height="35.52" transform="translate(522.18 145.31)" fill="#394a63"/>
          <rect id="Rectángulo_6028" data-name="Rectángulo 6028" width="19.66" height="35.52" transform="translate(546.9 145.31)" fill="#394a63"/>
          <rect id="Rectángulo_6029" data-name="Rectángulo 6029" width="19.66" height="35.52" transform="translate(571.61 145.31)" fill="#394a63"/>
          <rect id="Rectángulo_6030" data-name="Rectángulo 6030" width="19.66" height="35.52" transform="translate(596.33 145.31)" fill="#394a63"/>
          <rect id="Rectángulo_6031" data-name="Rectángulo 6031" width="19.66" height="35.52" transform="translate(621.05 145.31)" fill="#394a63"/>
        </g>
        <rect id="Rectángulo_6032" data-name="Rectángulo 6032" width="98.31" height="21.31" transform="translate(519.93 82.24)" fill="#394a63"/>
        <circle id="Elipse_4373" data-name="Elipse 4373" cx="4.06" cy="4.06" r="4.06" transform="translate(575.55 88.92)" fill="#5c708d"/>
        <circle id="Elipse_4374" data-name="Elipse 4374" cx="2.74" cy="2.74" r="2.74" transform="translate(576.87 90.24)" fill="#95b5cb"/>
        <path id="Trazado_110100" data-name="Trazado 110100" d="M579.61,90.24a2.73,2.73,0,0,0-2.4,1.44,2.72,2.72,0,0,0,4.8,0,2.73,2.73,0,0,0-2.4-1.44Z" fill="#f3c23b" opacity="0.2"/>
        <circle id="Elipse_4375" data-name="Elipse 4375" cx="4.06" cy="4.06" r="4.06" transform="translate(589.51 88.92)" fill="#5c708d"/>
        <circle id="Elipse_4376" data-name="Elipse 4376" cx="2.74" cy="2.74" r="2.74" transform="translate(590.83 90.24)" fill="#95b5cb"/>
        <path id="Trazado_110101" data-name="Trazado 110101" d="M593.57,90.24a2.71,2.71,0,0,0-2.4,1.44,2.71,2.71,0,0,0,4.79,0,2.7,2.7,0,0,0-2.39-1.44Z" fill="#f3c23b" opacity="0.2"/>
        <circle id="Elipse_4377" data-name="Elipse 4377" cx="4.06" cy="4.06" r="4.06" transform="translate(603.47 88.92)" fill="#5c708d"/>
        <path id="Trazado_110102" data-name="Trazado 110102" d="M610.26,93a2.73,2.73,0,1,1-.8-1.937,2.74,2.74,0,0,1,.8,1.937Z" fill="#95b5cb"/>
        <path id="Trazado_110103" data-name="Trazado 110103" d="M607.53,90.24a2.71,2.71,0,0,0-2.4,1.44,2.71,2.71,0,0,0,4.79,0,2.7,2.7,0,0,0-2.39-1.44Z" fill="#f3c23b" opacity="0.2"/>
        <circle id="Elipse_4378" data-name="Elipse 4378" cx="5.43" cy="5.43" r="5.43" transform="translate(541.47 87.5)" fill="#5c708d"/>
        <path id="Trazado_110104" data-name="Trazado 110104" d="M550.57,92.93a3.66,3.66,0,1,1-1.072-2.6,3.67,3.67,0,0,1,1.072,2.6Z" fill="#f3c23b"/>
        <path id="Trazado_110105" data-name="Trazado 110105" d="M546.9,89.26a3.66,3.66,0,0,0-3.21,1.93,3.63,3.63,0,0,0,6.42,0A3.66,3.66,0,0,0,546.9,89.26Z" fill="#f3c23b" opacity="0.2"/>
        <circle id="Elipse_4379" data-name="Elipse 4379" cx="5.43" cy="5.43" r="5.43" transform="translate(555.69 87.5)" fill="#5c708d"/>
        <path id="Trazado_110106" data-name="Trazado 110106" d="M564.78,92.93a3.66,3.66,0,1,1-1.068-2.594,3.67,3.67,0,0,1,1.068,2.594Z" fill="#9cd02c"/>
        <path id="Trazado_110107" data-name="Trazado 110107" d="M561.12,89.26a3.65,3.65,0,0,0-3.21,1.93,3.63,3.63,0,0,0,6.42,0A3.67,3.67,0,0,0,561.12,89.26Z" fill="#f3c23b" opacity="0.2"/>
        <circle id="Elipse_4380" data-name="Elipse 4380" cx="5.43" cy="5.43" r="5.43" transform="translate(527.26 87.5)" fill="#5c708d"/>
        <path id="Trazado_110108" data-name="Trazado 110108" d="M536.35,92.93a3.66,3.66,0,1,1-1.068-2.594,3.67,3.67,0,0,1,1.068,2.594Z" fill="#f13d3d"/>
        <path id="Trazado_110109" data-name="Trazado 110109" d="M532.69,89.26a3.65,3.65,0,0,0-3.21,1.93,3.63,3.63,0,0,0,6.42,0A3.66,3.66,0,0,0,532.69,89.26Z" fill="#f3c23b" opacity="0.2"/>
        <g id="Grupo_54985" data-name="Grupo 54985" opacity="0.1">
          <rect id="Rectángulo_6033" data-name="Rectángulo 6033" width="15.01" height="37.84" transform="translate(472.09 186.64)" fill="#5c708d"/>
          <rect id="Rectángulo_6034" data-name="Rectángulo 6034" width="15.01" height="37.84" transform="translate(500.36 186.64)" fill="#5c708d"/>
          <rect id="Rectángulo_6035" data-name="Rectángulo 6035" width="15.01" height="37.84" transform="translate(528.63 186.64)" fill="#5c708d"/>
          <rect id="Rectángulo_6036" data-name="Rectángulo 6036" width="15.01" height="37.84" transform="translate(556.91 186.64)" fill="#5c708d"/>
          <rect id="Rectángulo_6037" data-name="Rectángulo 6037" width="15.01" height="37.84" transform="translate(585.18 186.64)" fill="#5c708d"/>
          <rect id="Rectángulo_6038" data-name="Rectángulo 6038" width="15.01" height="37.84" transform="translate(613.45 186.64)" fill="#5c708d"/>
          <rect id="Rectángulo_6039" data-name="Rectángulo 6039" width="15.01" height="37.84" transform="translate(641.73 186.64)" fill="#5c708d"/>
          <path id="Trazado_110110" data-name="Trazado 110110" d="M679,224.48V193h0a6.52,6.52,0,0,0-6.51-6.38H670v37.84Z" fill="#5c708d"/>
        </g>
        <rect id="Rectángulo_6040" data-name="Rectángulo 6040" width="219.81" height="13.05" rx="1.83" transform="translate(459.18 217.96)" fill="#95b5cb"/>
        <path id="Trazado_110111" data-name="Trazado 110111" d="M469.91,224.48a4.35,4.35,0,1,1-4.35-4.35,4.35,4.35,0,0,1,4.35,4.35Z" fill="#5c708d"/>
        <path id="Trazado_110112" data-name="Trazado 110112" d="M676.38,224.48a4.35,4.35,0,1,1-4.35-4.35,4.35,4.35,0,0,1,4.35,4.35Z" fill="#5c708d"/>
        <path id="Trazado_110113" data-name="Trazado 110113" d="M672.47,218H465.71a6.53,6.53,0,1,0,0,13H672.47a6.53,6.53,0,0,0,0-13ZM672,229.27H465.78a4.79,4.79,0,1,1,0-9.57H672a4.79,4.79,0,0,1,0,9.57Z" fill="#a2c4d7"/>
        <rect id="Rectángulo_6041" data-name="Rectángulo 6041" width="4.13" height="9.57" transform="translate(474.04 219.7)" fill="#6c58b7"/>
        <rect id="Rectángulo_6042" data-name="Rectángulo 6042" width="4.13" height="9.57" transform="translate(483.83 219.7)" fill="#6c58b7"/>
        <rect id="Rectángulo_6043" data-name="Rectángulo 6043" width="4.13" height="9.57" transform="translate(493.62 219.7)" fill="#6c58b7"/>
        <rect id="Rectángulo_6044" data-name="Rectángulo 6044" width="4.13" height="9.57" transform="translate(503.4 219.7)" fill="#6c58b7"/>
        <rect id="Rectángulo_6045" data-name="Rectángulo 6045" width="4.13" height="9.57" transform="translate(513.19 219.7)" fill="#6c58b7"/>
        <rect id="Rectángulo_6046" data-name="Rectángulo 6046" width="4.13" height="9.57" transform="translate(522.98 219.7)" fill="#6c58b7"/>
        <rect id="Rectángulo_6047" data-name="Rectángulo 6047" width="4.13" height="9.57" transform="translate(532.76 219.7)" fill="#6c58b7"/>
        <rect id="Rectángulo_6048" data-name="Rectángulo 6048" width="4.13" height="9.57" transform="translate(542.55 219.7)" fill="#6c58b7"/>
        <rect id="Rectángulo_6049" data-name="Rectángulo 6049" width="4.13" height="9.57" transform="translate(552.34 219.7)" fill="#6c58b7"/>
        <rect id="Rectángulo_6050" data-name="Rectángulo 6050" width="4.13" height="9.57" transform="translate(562.13 219.7)" fill="#6c58b7"/>
        <rect id="Rectángulo_6051" data-name="Rectángulo 6051" width="4.13" height="9.57" transform="translate(571.91 219.7)" fill="#6c58b7"/>
        <rect id="Rectángulo_6052" data-name="Rectángulo 6052" width="4.13" height="9.57" transform="translate(581.7 219.7)" fill="#6c58b7"/>
        <rect id="Rectángulo_6053" data-name="Rectángulo 6053" width="4.13" height="9.57" transform="translate(591.49 219.7)" fill="#6c58b7"/>
        <rect id="Rectángulo_6054" data-name="Rectángulo 6054" width="4.13" height="9.57" transform="translate(601.27 219.7)" fill="#6c58b7"/>
        <rect id="Rectángulo_6055" data-name="Rectángulo 6055" width="4.13" height="9.57" transform="translate(611.06 219.7)" fill="#6c58b7"/>
        <rect id="Rectángulo_6056" data-name="Rectángulo 6056" width="4.13" height="9.57" transform="translate(620.85 219.7)" fill="#6c58b7"/>
        <rect id="Rectángulo_6057" data-name="Rectángulo 6057" width="4.13" height="9.57" transform="translate(630.64 219.7)" fill="#6c58b7"/>
        <rect id="Rectángulo_6058" data-name="Rectángulo 6058" width="4.13" height="9.57" transform="translate(640.42 219.7)" fill="#6c58b7"/>
        <rect id="Rectángulo_6059" data-name="Rectángulo 6059" width="4.13" height="9.57" transform="translate(650.21 219.7)" fill="#6c58b7"/>
        <rect id="Rectángulo_6060" data-name="Rectángulo 6060" width="4.13" height="9.57" transform="translate(660 219.7)" fill="#6c58b7"/>
        <path id="Trazado_110114" data-name="Trazado 110114" d="M595.92,180.85l.51-.39a91.061,91.061,0,0,0-11.48-2.6l-.76.65a113.541,113.541,0,0,0-15.2-1c-1.62,0-3.22,0-4.81.1l.42-.69a52.861,52.861,0,0,0-10.32.83l-.79.78h0a88.9,88.9,0,0,0-16.39,3.7l.66-1.23c-5.46,1.8-11.5,6.13-13.29,7.47a2.487,2.487,0,0,0-.26.19l-.32.24h0c-3.63,2.89-5.71,6.14-5.71,9.56,0,11.38,22.73,9.06,50.78,9.06s50.78,2,50.78-9.06C619.77,191.35,610.23,184.69,595.92,180.85Z" fill="#ec9e38"/>
        <path id="Trazado_110115" data-name="Trazado 110115" d="M553.49,178.52S538.9,195.46,534.84,194s2.36-11.85,2.36-11.85a101.54,101.54,0,0,1,16.29-3.63Z" fill="#df8d2d"/>
        <path id="Trazado_110116" data-name="Trazado 110116" d="M564.31,177.59s-9.45,13.55-6.08,17.1,26-16.18,26-16.18a168.765,168.765,0,0,0-19.92-.92Z" fill="#df8d2d"/>
        <path id="Trazado_110117" data-name="Trazado 110117" d="M595.92,180.85S582,192.62,584.47,195.29s22.1-10.69,22.1-10.69S599.1,181.63,595.92,180.85Z" fill="#df8d2d"/>
        <path id="Trazado_110118" data-name="Trazado 110118" d="M617.67,192.79a8.1,8.1,0,0,1,.35,2.1c0,10.65-21.95,8.75-49,8.75s-49,2.24-49-8.75a8.371,8.371,0,0,1,.33-2.15,9.94,9.94,0,0,0-2.08,5.75c0,11.38,22.73,9.06,50.78,9.06s50.78,2,50.78-9.06a9.789,9.789,0,0,0-2.16-5.7Z" fill="#df8d2d"/>
        <path id="Trazado_110119" data-name="Trazado 110119" d="M522.55,191.61c.45-1.32,8.44-7.91,10.7-7.11s-4.63,12.56-6.94,12.8S521.77,193.86,522.55,191.61Z" fill="#efa843"/>
        <path id="Trazado_110120" data-name="Trazado 110120" d="M607.36,186.39c1.16.09,9.19,5.89,9.33,8.78s-11.51.07-12.46-2.54S605.38,186.24,607.36,186.39Z" fill="#efa843"/>
        <path id="Trazado_110121" data-name="Trazado 110121" d="M548.33,192.08c-1.58-.84,4.41-12.22,6-13.2s7.18-.79,7.63,0S551.36,193.67,548.33,192.08Z" fill="#efa843"/>
        <path id="Trazado_110122" data-name="Trazado 110122" d="M576.05,189.64c-1.33-1.37,7.1-10.12,8.84-10.5s7.05,1.81,7.32,2.68S578.57,192.24,576.05,189.64Z" fill="#efa843"/>
        <path id="Trazado_110123" data-name="Trazado 110123" d="M537.8,180.99l1.06.7-2.14,1.33Z" fill="#df8d2d"/>
        <path id="Trazado_110124" data-name="Trazado 110124" d="M564.6,176.91l1.05.64-2.73,2.02Z" fill="#df8d2d"/>
        <path id="Trazado_110125" data-name="Trazado 110125" d="M538.86,181.69s-5.41,8.73-4,12.35c0,0-4.52-1,3-13Z" fill="#efa843"/>
        <path id="Trazado_110126" data-name="Trazado 110126" d="M565.65,177.55s-8,11.13-7.42,17.14c0,0-3.88-2.19,6.37-17.78Z" fill="#efa843"/>
        <path id="Trazado_110127" data-name="Trazado 110127" d="M596.43,180.46s-14.35,11.18-12,14.83c0,0,.08-4.09,13.13-14Z" fill="#efa843"/>
        <path id="Trazado_110128" data-name="Trazado 110128" d="M539.43,182.48A51.4,51.4,0,0,1,551,179.75s-6.65,7.16-11.38,6.88C537.11,186.87,539.43,182.48,539.43,182.48Z" fill="#e49232"/>
        <path id="Trazado_110129" data-name="Trazado 110129" d="M566,178.33s10.42-.36,15.82.95c0,0-8.27,6.34-14.28,5.69S566,178.33,566,178.33Z" fill="#e49232"/>
        <path id="Trazado_110130" data-name="Trazado 110130" d="M597.88,182.24s-4.73,4-2.51,5.69,9.36-3.2,9.36-3.2a29.8,29.8,0,0,0-6.85-2.49Z" fill="#e49232"/>
        <rect id="Rectángulo_6061" data-name="Rectángulo 6061" width="83.3" height="198.06" transform="translate(585.83 231.01)" fill="#dad5ed" opacity="0.3"/>
        <path id="Trazado_110131" data-name="Trazado 110131" d="M552.23,256.81a308.469,308.469,0,0,0-72.1,16.24V417.47h72.1Z" fill="#f1f1f1"/>
        <path id="Trazado_110132" data-name="Trazado 110132" d="M669.13,230.72H469v39.43s29.58-22.62,100.33-22.62,99.76,22.62,99.76,22.62Z" fill="#576286" opacity="0.3"/>
        <rect id="Rectángulo_6062" data-name="Rectángulo 6062" width="110.63" height="32.48" transform="translate(348.55 193.02)" fill="#6c58b7"/>
        <rect id="Rectángulo_6063" data-name="Rectángulo 6063" width="110.63" height="5.22" transform="translate(348.55 225.5)" fill="#95b5cb"/>
        <path id="Trazado_110133" data-name="Trazado 110133" d="M443.23,225.5h15.95V193H443.23s12.18,2.6,12.18,15.65S443.23,225.5,443.23,225.5Z" fill="#576286" opacity="0.3"/>
        <path id="Trazado_110134" data-name="Trazado 110134" d="M356.45,191.36v19.42h3.63V190A28.464,28.464,0,0,0,356.45,191.36Z" fill="#fff" opacity="0.2"/>
        <path id="Trazado_110135" data-name="Trazado 110135" d="M451.31,200.46l18.24,1.98v12.62l-18.24-5.9Z" fill="#95b5cb"/>
        <rect id="Rectángulo_6064" data-name="Rectángulo 6064" width="9.35" height="12.61" transform="translate(469.04 202.44)" fill="#88a8be"/>
        <path id="Trazado_110136" data-name="Trazado 110136" d="M451.31,185.69l18.24-1.98V171.09L451.31,177Z" fill="#95b5cb"/>
        <rect id="Rectángulo_6065" data-name="Rectángulo 6065" width="9.35" height="12.61" transform="translate(469.04 171.09)" fill="#88a8be"/>
        <rect id="Rectángulo_6066" data-name="Rectángulo 6066" width="3.48" height="2.94" transform="translate(471.98 215.02)" fill="#95b5cb"/>
        <rect id="Rectángulo_6067" data-name="Rectángulo 6067" width="3.48" height="2.94" transform="translate(471.98 183.65)" fill="#95b5cb"/>
        <rect id="Rectángulo_6068" data-name="Rectángulo 6068" width="104.69" height="5.22" transform="translate(364.35 256.23)" fill="#5c708d"/>
        <rect id="Rectángulo_6069" data-name="Rectángulo 6069" width="10.44" height="3.48" transform="translate(385.52 230.72)" fill="#5c708d"/>
        <rect id="Rectángulo_6070" data-name="Rectángulo 6070" width="10.44" height="3.48" transform="translate(437.43 230.72)" fill="#5c708d"/>
        <rect id="Rectángulo_6071" data-name="Rectángulo 6071" width="5.8" height="28.13" transform="translate(387.84 230.72)" fill="#5c708d"/>
        <rect id="Rectángulo_6072" data-name="Rectángulo 6072" width="5.8" height="28.13" transform="translate(439.75 230.72)" fill="#5c708d"/>
        <path id="Trazado_110137" data-name="Trazado 110137" d="M307.13,212.27s-2,5.73-14.5,6.21c-6.22.24-21.87-.31-38,0-30,.58-51.6-.76-47.72-9.13,0,0,3.45-12.74,51-12.74,0,0,38.08-1.94,49.48,12A4.05,4.05,0,0,1,307.13,212.27Z" fill="#4a557a" opacity="0.3"/>
        <path id="Trazado_110138" data-name="Trazado 110138" d="M283.85,188.87l.51-.39a90.679,90.679,0,0,0-11.47-2.6l-.77.65a113.541,113.541,0,0,0-15.2-1c-1.62,0-3.22,0-4.8.1l.41-.69a52.861,52.861,0,0,0-10.32.83l-.79.78h0a89.09,89.09,0,0,0-16.39,3.7l.66-1.23c-5.45,1.8-11.49,6.13-13.29,7.47l-.26.19-.32.24h0c-3.63,2.89-5.71,6.14-5.71,9.56,0,11.38,22.74,9.06,50.78,9.06s50.79,2,50.79-9.06C307.71,199.37,298.16,192.71,283.85,188.87Z" fill="#df912b"/>
        <path id="Trazado_110139" data-name="Trazado 110139" d="M241.42,186.54s-14.59,16.94-18.64,15.52,2.35-11.85,2.35-11.85a101.539,101.539,0,0,1,16.29-3.67Z" fill="#d28020"/>
        <path id="Trazado_110140" data-name="Trazado 110140" d="M252.24,185.61s-9.45,13.55-6.07,17.1,26-16.18,26-16.18a168.755,168.755,0,0,0-19.93-.92Z" fill="#d28020"/>
        <path id="Trazado_110141" data-name="Trazado 110141" d="M283.85,188.87s-13.91,11.77-11.45,14.44,22.11-10.69,22.11-10.69S287,189.65,283.85,188.87Z" fill="#d28020"/>
        <path id="Trazado_110142" data-name="Trazado 110142" d="M305.6,200.81a8.1,8.1,0,0,1,.35,2.1c0,10.65-21.95,8.75-49,8.75s-49,2.24-49-8.75a8.35,8.35,0,0,1,.32-2.15,10,10,0,0,0-2.08,5.75c0,11.38,22.74,9.06,50.78,9.06s50.79,2,50.79-9.06A9.8,9.8,0,0,0,305.6,200.81Z" fill="#d28020"/>
        <path id="Trazado_110143" data-name="Trazado 110143" d="M210.48,199.63c.45-1.32,8.44-7.91,10.71-7.11s-4.63,12.57-6.95,12.8S209.71,201.88,210.48,199.63Z" fill="#e29b36"/>
        <path id="Trazado_110144" data-name="Trazado 110144" d="M295.3,194.41c1.15.09,9.18,5.89,9.32,8.78s-11.51.07-12.45-2.54S293.31,194.26,295.3,194.41Z" fill="#e29b36"/>
        <path id="Trazado_110145" data-name="Trazado 110145" d="M236.27,200.1c-1.59-.84,4.4-12.22,6-13.2s7.18-.79,7.63-.05S239.3,201.69,236.27,200.1Z" fill="#e29b36"/>
        <path id="Trazado_110146" data-name="Trazado 110146" d="M264,197.66c-1.32-1.37,7.1-10.12,8.85-10.5s7.05,1.81,7.31,2.68S266.5,200.26,264,197.66Z" fill="#e29b36"/>
        <path id="Trazado_110147" data-name="Trazado 110147" d="M225.73,189.01l1.06.7-2.14,1.33Z" fill="#d28020"/>
        <path id="Trazado_110148" data-name="Trazado 110148" d="M252.53,184.93l1.05.64-2.73,2.02Z" fill="#d28020"/>
        <path id="Trazado_110149" data-name="Trazado 110149" d="M226.79,189.71s-5.41,8.73-4,12.35c0,0-4.53-1,2.95-13.05Z" fill="#e29b36"/>
        <path id="Trazado_110150" data-name="Trazado 110150" d="M253.58,185.57s-8,11.13-7.41,17.14c0,0-3.88-2.19,6.36-17.78Z" fill="#e29b36"/>
        <path id="Trazado_110151" data-name="Trazado 110151" d="M284.36,188.48s-14.34,11.18-12,14.83c0,0,.08-4.09,13.14-14Z" fill="#e29b36"/>
        <path id="Trazado_110152" data-name="Trazado 110152" d="M227.36,190.5a51.581,51.581,0,0,1,11.57-2.73s-6.65,7.16-11.38,6.88C225,194.89,227.36,190.5,227.36,190.5Z" fill="#d78525"/>
        <path id="Trazado_110153" data-name="Trazado 110153" d="M253.88,186.35s10.42-.36,15.82,1c0,0-8.27,6.34-14.27,5.69S253.88,186.35,253.88,186.35Z" fill="#d78525"/>
        <path id="Trazado_110154" data-name="Trazado 110154" d="M285.81,190.26s-4.73,4-2.51,5.69,9.36-3.2,9.36-3.2a29.8,29.8,0,0,0-6.85-2.49Z" fill="#d78525"/>
        <path id="Trazado_110155" data-name="Trazado 110155" d="M308.64,209.3s-2,6.38-14.94,7.11c-6.41.36-22.81,0-39.15,0-30.88.87-53.14,1.12-49.15-11.53,0,0,3.55-21.53,52.49-21.53,0,0,39.22-.65,51,20.44a8.7,8.7,0,0,1-.25,5.51Z" fill="#88a8be" opacity="0.2"/>
        <path id="Trazado_110156" data-name="Trazado 110156" d="M308.85,203.79l16.46-7.32s1.74,1.89,1.45,3.62-2.32,3.19-2,4.79,2.32,2.61,2.18,5.36-3.92,6.17-3.92,6.17l-14.35-7.11a8.74,8.74,0,0,0,.18-5.51Z" fill="#88a8be" opacity="0.7"/>
        <path id="Trazado_110157" data-name="Trazado 110157" d="M237.75,184.83c-29.83,4.85-32.35,20-32.35,20-3.1,9.83,9.69,11.86,30,11.87C233.11,200.75,237.73,184.88,237.75,184.83Z" fill="#d42727" opacity="0.6"/>
        <path id="Trazado_110158" data-name="Trazado 110158" d="M308.85,203.79c-11.74-21.09-51-20.44-51-20.44-48.94,0-52.49,21.53-52.49,21.53-4,12.65,18.27,12.4,49.15,11.53,16.34,0,32.74.36,39.15,0,12.91-.73,14.94-7.11,14.94-7.11a8.7,8.7,0,0,0,.25-5.51Zm-1.56,5s-2,6.05-14.54,6.74c-6.25.34-22.22,0-38.13,0-30.08.82-51.76,1.06-47.87-10.93,0,0,3.46-20.41,51.12-20.41,0,0,38.19-.62,49.63,19.38a8.09,8.09,0,0,1-.21,5.25Z" fill="#88a8be" opacity="0.5"/>
        <path id="Trazado_110159" data-name="Trazado 110159" d="M308.64,209.3l10,5c1.87-1.2,2.93-3,2.8-4.28-.33-3.26-1.42-3.81-2.07-5.33-.57-1.33,1-3.81.85-5.94l-11.41,5.07a8.68,8.68,0,0,1-.17,5.48Z" fill="#d42727" opacity="0.8"/>
        <path id="Trazado_110160" data-name="Trazado 110160" d="M308.85,203.79c-6.16-11.07-19.88-16.14-31.54-18.47,0,0,1.23,11.68-.52,31.23,7.42.11,13.53,0,16.91-.14,12.91-.73,14.94-7.11,14.94-7.11a8.7,8.7,0,0,0,.21-5.51Z" fill="#d42727" opacity="0.6"/>
        <g id="Grupo_54986" data-name="Grupo 54986" opacity="0.5">
          <path id="Trazado_110161" data-name="Trazado 110161" d="M319.78,205.34c.23.43,3.51,1,5.88,1.32a4.85,4.85,0,0,1-.93-1.78c-.18-1,.57-2,1.22-3C323.37,203.06,319.53,204.89,319.78,205.34Z" fill="#6c4977" opacity="0.4"/>
          <path id="Trazado_110162" data-name="Trazado 110162" d="M254.55,216.41c13.5,0,32.74.36,39.15,0,12.91-.73,14.94-7.11,14.94-7.11L323,216.41a18.788,18.788,0,0,0,3-3.61l-15.58-6.4-.86-2.91-.68.3a26,26,0,0,0-3-4.3c.13,3.42-.07,11.41-50.1,11.41-54.95,0-46.91-7.26-48.7-9.9a12.85,12.85,0,0,0-1.62,3.88C201.41,217.53,223.67,217.28,254.55,216.41Z" fill="#833a5c" opacity="0.3"/>
        </g>
        <path id="Trazado_110163" data-name="Trazado 110163" d="M308.73,203.5a8.74,8.74,0,0,1-.21,6.07l1.87,1a9.25,9.25,0,0,0,0-7.94Z" fill="#d9beb3"/>
        <path id="Trazado_110164" data-name="Trazado 110164" d="M311.29,206.77l-2.14-.42h0a9.7,9.7,0,0,1-.62,3.21l1.87,1a9.85,9.85,0,0,0,.89-3.79Z" fill="#833a5c" opacity="0.3"/>
        <path id="Trazado_110165" data-name="Trazado 110165" d="M288.78,193.67c0,2.6-15.11-.15-30.74-.15-22.91,0-32.69,1.6-32.69.15s8.24-7.19,32.55-7.4C272.07,186.15,288.78,191.06,288.78,193.67Z" fill="#f1f1f1" opacity="0.15"/>
        <path id="Trazado_110166" data-name="Trazado 110166" d="M297.85,227.06s-2,5.73-14.5,6.21c-6.22.24-21.87-.31-38,0-30,.58-51.6-.76-47.72-9.13,0,0,3.45-12.74,51-12.74,0,0,38.07-1.94,49.47,12a4.05,4.05,0,0,1-.25,3.66Z" fill="#576286" opacity="0.3"/>
        <path id="Trazado_110167" data-name="Trazado 110167" d="M274.57,203.66l.51-.39a90.677,90.677,0,0,0-11.47-2.6l-.77.65a113.54,113.54,0,0,0-15.2-1c-1.62,0-3.22,0-4.8.1l.41-.69a52.861,52.861,0,0,0-10.32.83l-.79.78h0a89.089,89.089,0,0,0-16.39,3.7l.66-1.23c-5.45,1.8-11.49,6.13-13.29,7.47l-.26.19-.32.24h0c-3.63,2.89-5.71,6.14-5.71,9.56,0,11.38,22.74,9.06,50.78,9.06s50.79,2,50.79-9.06C298.43,214.16,288.88,207.5,274.57,203.66Z" fill="#ec9e38"/>
        <path id="Trazado_110168" data-name="Trazado 110168" d="M232.14,201.33s-14.59,16.94-18.64,15.52S215.85,205,215.85,205a101.541,101.541,0,0,1,16.29-3.67Z" fill="#df8d2d"/>
        <path id="Trazado_110169" data-name="Trazado 110169" d="M243,200.4s-9.45,13.55-6.07,17.1,25.95-16.19,25.95-16.19A169.726,169.726,0,0,0,243,200.4Z" fill="#df8d2d"/>
        <path id="Trazado_110170" data-name="Trazado 110170" d="M274.57,203.66s-13.91,11.77-11.45,14.44,22.11-10.69,22.11-10.69S277.75,204.44,274.57,203.66Z" fill="#df8d2d"/>
        <path id="Trazado_110171" data-name="Trazado 110171" d="M296.32,215.6a8.1,8.1,0,0,1,.35,2.1c0,10.65-21.95,8.75-49,8.75s-49,2.24-49-8.75a8.35,8.35,0,0,1,.32-2.15,10,10,0,0,0-2.08,5.75c0,11.38,22.74,9.06,50.78,9.06s50.79,2,50.79-9.06A9.8,9.8,0,0,0,296.32,215.6Z" fill="#df8d2d"/>
        <path id="Trazado_110172" data-name="Trazado 110172" d="M201.2,214.42c.45-1.32,8.44-7.91,10.71-7.11s-4.63,12.56-6.95,12.8S200.43,216.67,201.2,214.42Z" fill="#efa843"/>
        <path id="Trazado_110173" data-name="Trazado 110173" d="M286,209.2c1.16.09,9.18,5.89,9.32,8.78s-11.51.07-12.45-2.54S284,209.05,286,209.2Z" fill="#efa843"/>
        <path id="Trazado_110174" data-name="Trazado 110174" d="M227,214.89c-1.59-.84,4.4-12.22,6-13.2s7.18-.79,7.63-.05S230,216.48,227,214.89Z" fill="#efa843"/>
        <path id="Trazado_110175" data-name="Trazado 110175" d="M254.7,212.45c-1.32-1.37,7.1-10.12,8.85-10.5s7.05,1.81,7.31,2.68S257.22,215.05,254.7,212.45Z" fill="#efa843"/>
        <path id="Trazado_110176" data-name="Trazado 110176" d="M216.45,203.8l1.06.7-2.14,1.33Z" fill="#df8d2d"/>
        <path id="Trazado_110177" data-name="Trazado 110177" d="M243.25,199.72l1.05.64-2.73,2.02Z" fill="#df8d2d"/>
        <path id="Trazado_110178" data-name="Trazado 110178" d="M217.51,204.5s-5.41,8.73-4,12.35c0,0-4.53-1,2.95-13Z" fill="#efa843"/>
        <path id="Trazado_110179" data-name="Trazado 110179" d="M244.3,200.36s-8,11.13-7.41,17.14c0,0-3.88-2.19,6.36-17.78Z" fill="#efa843"/>
        <path id="Trazado_110180" data-name="Trazado 110180" d="M275.08,203.27s-14.34,11.18-12,14.83c0,0,.08-4.09,13.14-14Z" fill="#efa843"/>
        <path id="Trazado_110181" data-name="Trazado 110181" d="M218.08,205.29a51.579,51.579,0,0,1,11.57-2.73s-6.65,7.16-11.38,6.88C215.76,209.68,218.08,205.29,218.08,205.29Z" fill="#e49232"/>
        <path id="Trazado_110182" data-name="Trazado 110182" d="M244.6,201.14s10.42-.36,15.82,1c0,0-8.27,6.34-14.27,5.69S244.6,201.14,244.6,201.14Z" fill="#e49232"/>
        <path id="Trazado_110183" data-name="Trazado 110183" d="M276.53,205.05s-4.72,4-2.51,5.69,9.36-3.2,9.36-3.2a29.8,29.8,0,0,0-6.85-2.49Z" fill="#e49232"/>
        <path id="Trazado_110184" data-name="Trazado 110184" d="M299.36,224.09s-2,6.38-14.94,7.11c-6.41.36-22.81,0-39.15,0-30.88.87-53.14,1.12-49.15-11.53,0,0,3.55-21.53,52.49-21.53,0,0,39.22-.65,51,20.44a8.7,8.7,0,0,1-.25,5.51Z" fill="#95b5cb" opacity="0.2"/>
        <path id="Trazado_110185" data-name="Trazado 110185" d="M299.57,218.58,316,211.26s1.74,1.88,1.45,3.62-2.32,3.19-2,4.79,2.32,2.61,2.18,5.36-3.92,6.17-3.92,6.17l-14.35-7.11a8.74,8.74,0,0,0,.21-5.51Z" fill="#95b5cb" opacity="0.7"/>
        <path id="Trazado_110186" data-name="Trazado 110186" d="M228.47,199.62c-29.83,4.85-32.35,20-32.35,20-3.1,9.83,9.69,11.86,30,11.87C223.83,215.54,228.45,199.67,228.47,199.62Z" fill="#e13434" opacity="0.6"/>
        <path id="Trazado_110187" data-name="Trazado 110187" d="M299.57,218.58c-11.74-21.09-51-20.44-51-20.44-48.94,0-52.49,21.53-52.49,21.53-4,12.65,18.27,12.4,49.15,11.53,16.34,0,32.74.36,39.15,0,12.91-.73,14.94-7.11,14.94-7.11a8.7,8.7,0,0,0,.25-5.51Zm-1.56,5s-2,6-14.54,6.73c-6.25.35-22.22,0-38.13,0-30.08.83-51.76,1.07-47.87-10.92,0,0,3.46-20.41,51.12-20.41,0,0,38.19-.62,49.63,19.38a8.09,8.09,0,0,1-.22,5.25Z" fill="#95b5cb" opacity="0.5"/>
        <path id="Trazado_110188" data-name="Trazado 110188" d="M299.36,224.09l10,5c1.87-1.21,2.93-3,2.8-4.28-.33-3.26-1.42-3.81-2.07-5.33-.57-1.33,1-3.81.85-5.94l-11.41,5.07a8.68,8.68,0,0,1-.17,5.48Z" fill="#e13434" opacity="0.8"/>
        <path id="Trazado_110189" data-name="Trazado 110189" d="M299.57,218.58c-6.16-11.07-19.88-16.14-31.54-18.47,0,0,1.23,11.68-.52,31.23,7.42.11,13.53,0,16.91-.14,12.91-.73,14.94-7.11,14.94-7.11a8.7,8.7,0,0,0,.21-5.51Z" fill="#e13434" opacity="0.6"/>
        <g id="Grupo_54987" data-name="Grupo 54987" opacity="0.5">
          <path id="Trazado_110190" data-name="Trazado 110190" d="M310.5,220.13c.23.43,3.51,1,5.88,1.31a4.739,4.739,0,0,1-.93-1.77c-.18-1,.57-2,1.22-3C314.09,217.85,310.25,219.68,310.5,220.13Z" fill="#795683" opacity="0.4"/>
          <path id="Trazado_110191" data-name="Trazado 110191" d="M245.27,231.2c13.5,0,32.74.36,39.15,0,12.91-.73,14.94-7.11,14.94-7.11l14.35,7.11a18.789,18.789,0,0,0,3-3.61l-15.58-6.4-.86-2.91-.68.3a26,26,0,0,0-3-4.3c.13,3.42-.07,11.41-50.1,11.41-54.95,0-46.91-7.26-48.7-9.9a12.85,12.85,0,0,0-1.62,3.88C192.13,232.32,214.39,232.07,245.27,231.2Z" fill="#904769" opacity="0.3"/>
        </g>
        <path id="Trazado_110192" data-name="Trazado 110192" d="M299.45,218.29a8.74,8.74,0,0,1-.21,6.07l1.87,1a9.25,9.25,0,0,0,0-7.94Z" fill="#e6cbc0"/>
        <path id="Trazado_110193" data-name="Trazado 110193" d="M302,221.56l-2.14-.42h0a9.7,9.7,0,0,1-.62,3.21l1.87,1a9.85,9.85,0,0,0,.89-3.79Z" fill="#904769" opacity="0.3"/>
        <path id="Trazado_110194" data-name="Trazado 110194" d="M279.5,208.45c0,2.61-15.11-.14-30.74-.14-22.9,0-32.69,1.6-32.69.14s8.24-7.18,32.55-7.39C262.79,200.94,279.5,205.85,279.5,208.45Z" fill="#fff" opacity="0.15"/>
        <rect id="Rectángulo_6073" data-name="Rectángulo 6073" width="94.75" height="27.55" transform="translate(356.45 193.02)" fill="#fff" opacity="0.5"/>
        <rect id="Rectángulo_6074" data-name="Rectángulo 6074" width="94.76" height="1.15" transform="translate(356.45 219.42)" fill="#576286" opacity="0.3"/>
        <rect id="Rectángulo_6075" data-name="Rectángulo 6075" width="94.76" height="1.15" transform="translate(356.45 217.55)" fill="#576286" opacity="0.3"/>
        <rect id="Rectángulo_6076" data-name="Rectángulo 6076" width="94.76" height="1.15" transform="translate(356.45 215.69)" fill="#576286" opacity="0.3"/>
        <rect id="Rectángulo_6077" data-name="Rectángulo 6077" width="94.76" height="1.15" transform="translate(356.45 213.82)" fill="#576286" opacity="0.3"/>
        <rect id="Rectángulo_6078" data-name="Rectángulo 6078" width="27.77" height="27.55" transform="translate(356.45 193.02)" fill="#e13434" opacity="0.7"/>
        <rect id="Rectángulo_6079" data-name="Rectángulo 6079" width="27.77" height="27.55" transform="translate(423.44 193.02)" fill="#e13434" opacity="0.7"/>
        <path id="Trazado_110195" data-name="Trazado 110195" d="M356.45,191.36v19.42h94.76c2,0,2-36.1,0-36.1C451.21,174.68,388.57,177.42,356.45,191.36Z" fill="#95b5cb" opacity="0.4"/>
        <path id="Trazado_110196" data-name="Trazado 110196" d="M384.22,210.78H356.45V191.36a125.279,125.279,0,0,1,28-8.42Z" fill="#e13434" opacity="0.7"/>
        <path id="Trazado_110197" data-name="Trazado 110197" d="M423.44,210.78V176.93s15.8-1.34,27.77-2.25c2,0,2,36.1,0,36.1Z" fill="#e13434" opacity="0.7"/>
        <path id="Trazado_110198" data-name="Trazado 110198" d="M356.45,205.07s68.55.91,95.84-1.26c0,0,.11,4.46-1.08,7H356.45Z" fill="#795683" opacity="0.3"/>
        <path id="Trazado_110199" data-name="Trazado 110199" d="M388.7,182.07v13.92h2.7V181.6Z" fill="#e13434" opacity="0.4"/>
        <path id="Trazado_110200" data-name="Trazado 110200" d="M394.62,180.96v15.03h2.87V180.4Z" fill="#e13434" opacity="0.4"/>
        <path id="Trazado_110201" data-name="Trazado 110201" d="M364.21,192.94c-.26,1.74,82.65-1.95,84-6.52s.65-8.48-.22-9.13S365.51,184.25,364.21,192.94Z" fill="#fff" opacity="0.1"/>
      </g>
    </g>
  </g>
</svg>
