<svg xmlns="http://www.w3.org/2000/svg" width="939.86" height="607.4" viewBox="0 0 939.86 607.4">
  <g id="Grupo_55524" data-name="Grupo 55524" transform="translate(-329 -3900)">
    <g id="CF1_grafica_1" data-name="CF1_grafica 1" transform="translate(317.41 3819.9)">
      <text id="_28_000_26_000_24_000_22_000_20_000_18_000_16_000_14_000_12_000_10_000" data-name="$ 28,000
$ 26,000
$ 24,000
$ 22,000
$ 20,000
$ 18,000
$ 16,000
$ 14,000
$ 12,000
$ 10,000" transform="translate(75.51 97.1)" fill="#12263f" font-size="16" font-family="Roboto-Regular, Roboto"><tspan x="0" y="0">$ 28,000</tspan><tspan x="0" y="57">$ 26,000</tspan><tspan x="0" y="114">$ 24,000</tspan><tspan x="0" y="171">$ 22,000</tspan><tspan x="0" y="228">$ 20,000</tspan><tspan x="0" y="285">$ 18,000</tspan><tspan x="0" y="342">$ 16,000</tspan><tspan x="0" y="399">$ 14,000</tspan><tspan x="0" y="456">$ 12,000</tspan><tspan x="0" y="513">$ 10,000</tspan></text>
      <text id="_8" data-name="8" transform="translate(166.35 643.95)" fill="#12263f" font-size="16" font-family="Roboto-Regular, Roboto"><tspan x="0" y="0">8</tspan></text>
      <text id="_13" data-name="13" transform="translate(311.17 643.95)" fill="#12263f" font-size="16" font-family="Roboto-Regular, Roboto"><tspan x="0" y="0">13</tspan></text>
      <text id="_16.5" data-name="16.5" transform="translate(476.28 643.95)" fill="#12263f" font-size="16" font-family="Roboto-Regular, Roboto"><tspan x="0" y="0">16.5</tspan></text>
      <text id="Cantidad" transform="translate(521.45 682.5)" fill="#12263f" font-size="18" font-family="Roboto-Bold, Roboto" font-weight="700"><tspan x="0" y="0">Cantidad</tspan></text>
      <text id="_18" data-name="18" transform="translate(567.39 643.95)" fill="#12263f" font-size="16" font-family="Roboto-Regular, Roboto"><tspan x="0" y="0">18</tspan></text>
      <text id="_19.8" data-name="19.8" transform="translate(628.96 643.95)" fill="#12263f" font-size="16" font-family="Roboto-Regular, Roboto"><tspan x="0" y="0">19.8</tspan></text>
      <text id="_23" data-name="23" transform="translate(745.39 643.95)" fill="#12263f" font-size="16" font-family="Roboto-Regular, Roboto"><tspan x="0" y="0">23</tspan></text>
      <g id="Grupo_18866" data-name="Grupo 18866">
        <path id="Trazado_34049" data-name="Trazado 34049" d="M172.82,93.1V603.69H951.45" fill="none" stroke="#472ea6" stroke-width="1"/>
        <path id="Trazado_34050" data-name="Trazado 34050" d="M159.2,374.1h13.54" fill="none" stroke="#472ea6" stroke-width="1"/>
        <path id="Trazado_34051" data-name="Trazado 34051" d="M159.2,319.1h13.54" fill="none" stroke="#472ea6" stroke-width="1"/>
        <path id="Trazado_34052" data-name="Trazado 34052" d="M159.2,264.1h13.54" fill="none" stroke="#472ea6" stroke-width="1"/>
        <path id="Trazado_34053" data-name="Trazado 34053" d="M159.2,209.1h13.54" fill="none" stroke="#472ea6" stroke-width="1"/>
        <path id="Trazado_34054" data-name="Trazado 34054" d="M159.2,148.1h13.54" fill="none" stroke="#472ea6" stroke-width="1"/>
        <path id="Trazado_34055" data-name="Trazado 34055" d="M159.2,93.1h13.54" fill="none" stroke="#472ea6" stroke-width="1"/>
        <path id="Trazado_34058" data-name="Trazado 34058" d="M322.38,602.69V622" fill="none" stroke="#472ea6" stroke-width="1"/>
        <path id="Trazado_34060" data-name="Trazado 34060" d="M492.38,602.69V622" fill="none" stroke="#472ea6" stroke-width="1"/>
        <path id="Trazado_34062" data-name="Trazado 34062" d="M576.38,602.69V622" fill="none" stroke="#472ea6" stroke-width="1"/>
        <path id="Trazado_34063" data-name="Trazado 34063" d="M173.38,603.69V623" fill="none" stroke="#472ea6" stroke-width="1"/>
        <path id="Trazado_34072" data-name="Trazado 34072" d="M159.2,549.1h13.54" fill="none" stroke="#472ea6" stroke-width="1"/>
        <path id="Trazado_34073" data-name="Trazado 34073" d="M159.2,488.1h13.54" fill="none" stroke="#472ea6" stroke-width="1"/>
        <path id="Trazado_34074" data-name="Trazado 34074" d="M159.2,433.1h13.54" fill="none" stroke="#472ea6" stroke-width="1"/>
        <path id="Trazado_34075" data-name="Trazado 34075" d="M646.38,602.69V622" fill="none" stroke="#472ea6" stroke-width="1"/>
        <path id="Trazado_34076" data-name="Trazado 34076" d="M754.38,602.69V622" fill="none" stroke="#472ea6" stroke-width="1"/>
        <path id="Trazado_34077" data-name="Trazado 34077" d="M191.22,317.1H646.38V590.61" fill="none" stroke="#fd8f25" stroke-width="2" stroke-dasharray="6"/>
        <path id="Trazado_34078" data-name="Trazado 34078" d="M576.38,593.1V319.93" fill="none" stroke="#fd8f25" stroke-width="2" stroke-dasharray="6"/>
        <path id="Trazado_34079" data-name="Trazado 34079" d="M492.38,593.1V319.93" fill="none" stroke="#fd8f25" stroke-width="2" stroke-dasharray="6"/>
        <path id="Trazado_34080" data-name="Trazado 34080" d="M303.54,436l105.71-68L501,311.66l68.24-60.59,32.4-64.77,26.77-58.8" fill="none" stroke="#472ea6" stroke-width="2"/>
        <path id="Trazado_35226" data-name="Trazado 35226" d="M304,430.1a5.5,5.5,0,1,1-5.5,5.5,5.5,5.5,0,0,1,5.5-5.5Z" fill="#472ea6"/>
        <path id="Trazado_35227" data-name="Trazado 35227" d="M403,367.1a5.5,5.5,0,1,1-5.5,5.5,5.5,5.5,0,0,1,5.5-5.5Z" fill="#472ea6"/>
        <path id="Trazado_35228" data-name="Trazado 35228" d="M492,312.1a5.5,5.5,0,1,1-5.5,5.5,5.5,5.5,0,0,1,5.5-5.5Z" fill="#472ea6"/>
        <path id="Trazado_35229" data-name="Trazado 35229" d="M566,249.1a5.5,5.5,0,1,1-5.5,5.5,5.5,5.5,0,0,1,5.5-5.5Z" fill="#472ea6"/>
        <path id="Trazado_35230" data-name="Trazado 35230" d="M604,179.1a5.5,5.5,0,1,1-5.5,5.5A5.5,5.5,0,0,1,604,179.1Z" fill="#472ea6"/>
        <path id="Trazado_35231" data-name="Trazado 35231" d="M628,122.1a5.5,5.5,0,1,1-5.5,5.5,5.5,5.5,0,0,1,5.5-5.5Z" fill="#472ea6"/>
        <path id="Trazado_34081" data-name="Trazado 34081" d="M389.37,441.28l94.31-68.83,92.84-55.37L639.6,254l31.61-65.76,32.6-63.46" fill="none" stroke="#472ea6" stroke-width="2"/>
        <path id="Trazado_35232" data-name="Trazado 35232" d="M389,436.1a5.5,5.5,0,1,1-5.5,5.5A5.5,5.5,0,0,1,389,436.1Z" fill="#472ea6"/>
        <path id="Trazado_35233" data-name="Trazado 35233" d="M639,249.1a5.5,5.5,0,1,1-5.5,5.5,5.5,5.5,0,0,1,5.5-5.5Z" fill="#472ea6"/>
        <path id="Trazado_35234" data-name="Trazado 35234" d="M669,185.1a5.5,5.5,0,1,1-5.5,5.5,5.5,5.5,0,0,1,5.5-5.5Z" fill="#472ea6"/>
        <path id="Trazado_35235" data-name="Trazado 35235" d="M704,119.1a5.5,5.5,0,1,1-5.5,5.5,5.5,5.5,0,0,1,5.5-5.5Z" fill="#472ea6"/>
        <path id="Trazado_35236" data-name="Trazado 35236" d="M450,391.1a5.5,5.5,0,1,1-5.5,5.5A5.5,5.5,0,0,1,450,391.1Z" fill="#472ea6"/>
        <path id="Trazado_35237" data-name="Trazado 35237" d="M576,312.1a5.5,5.5,0,1,1-5.5,5.5,5.5,5.5,0,0,1,5.5-5.5Z" fill="#472ea6"/>
        <path id="Trazado_34082" data-name="Trazado 34082" d="M444.54,444.33l102.73-67L649.63,316l71.62-59.58,34-62.15,37.56-60.84" fill="none" stroke="#472ea6" stroke-width="2"/>
        <path id="Trazado_35238" data-name="Trazado 35238" d="M646,312.1a5.5,5.5,0,1,1-5.5,5.5A5.5,5.5,0,0,1,646,312.1Z" fill="#472ea6"/>
        <path id="Trazado_35239" data-name="Trazado 35239" d="M443,441.1a5.5,5.5,0,1,1-5.5,5.5,5.5,5.5,0,0,1,5.5-5.5Z" fill="#472ea6"/>
        <path id="Trazado_35240" data-name="Trazado 35240" d="M492,408.1a5.5,5.5,0,1,1-5.5,5.5,5.5,5.5,0,0,1,5.5-5.5Z" fill="#472ea6"/>
        <path id="Trazado_35241" data-name="Trazado 35241" d="M718,254.1a5.5,5.5,0,1,1-5.5,5.5A5.5,5.5,0,0,1,718,254.1Z" fill="#472ea6"/>
        <path id="Trazado_35242" data-name="Trazado 35242" d="M755,190.1a5.5,5.5,0,1,1-5.5,5.5,5.5,5.5,0,0,1,5.5-5.5Z" fill="#472ea6"/>
        <path id="Trazado_35243" data-name="Trazado 35243" d="M793,127.1a5.5,5.5,0,1,1-5.5,5.5,5.5,5.5,0,0,1,5.5-5.5Z" fill="#472ea6"/>
        <path id="Trazado_34083" data-name="Trazado 34083" d="M340.88,254.1h85.44l50.18,50.18" fill="none" stroke="#101010" stroke-width="1"/>
        <path id="Trazado_35244" data-name="Trazado 35244" d="M482.72,310.78l-9.9-2.83,7.07-7.07Z" fill="#404040"/>
        <path id="Trazado_34084" data-name="Trazado 34084" d="M368.88,190.1h77.7L564.91,308.43" fill="none" stroke="#707070" stroke-width="1"/>
        <path id="Trazado_35245" data-name="Trazado 35245" d="M570.72,313.78l-9.9-2.83,7.07-7.07Z" fill="#404040"/>
        <path id="Trazado_34085" data-name="Trazado 34085" d="M368.88,127.1h76.95L636.71,311.3" fill="none" stroke="#707070" stroke-width="1"/>
        <path id="Trazado_35246" data-name="Trazado 35246" d="M639.72,313.78l-9.9-2.83,7.07-7.07Z" fill="#404040"/>
        <path id="Trazado_35253" data-name="Trazado 35253" d="M488.82,294.77h4v2.33H486.2V284.4h2.64Z" fill="#00223d"/>
        <path id="Trazado_35254" data-name="Trazado 35254" d="M575.12,297.28a7.28,7.28,0,0,1-3.36-.88l1.12-2.17a3.31,3.31,0,0,0,1.92.67,1.41,1.41,0,0,0,1.18-.5,2.73,2.73,0,0,0,.39-1.6v-8.4H579v8.89a3.65,3.65,0,0,1-3.88,4Z" fill="#00223d"/>
        <path id="Trazado_35255" data-name="Trazado 35255" d="M656.74,297.1h-2.63l-.83-9.57-3.22,9.57h-1.71l-3.21-9.57-.85,9.57h-2.63l1.06-12.7h3.76l2.71,8,2.74-8h3.76Z" fill="#00223d"/>
        <path id="Trazado_35256" data-name="Trazado 35256" d="M618.7,236.1l-4-5.4h-.93v5.4h-2.64V223.4h2.64v5h.9l4-5h3.22L617,229.47l5.07,6.63Z" fill="#00223d"/>
        <path id="Trazado_35257" data-name="Trazado 35257" d="M626.4,110.28a6.12,6.12,0,0,1-3.52-1,3.92,3.92,0,0,1-1.72-2.72l2.73-.62a2.31,2.31,0,0,0,.84,1.6,2.84,2.84,0,0,0,1.78.56,2.37,2.37,0,0,0,1.39-.39,1.31,1.31,0,0,0,.52-1.16,1.22,1.22,0,0,0-.44-.94,3.159,3.159,0,0,0-.9-.58c-.29-.11-.77-.27-1.42-.47l-.2-.06-.81-.26-.76-.3a5,5,0,0,1-.73-.36,4.739,4.739,0,0,1-.62-.46,2.36,2.36,0,0,1-.51-.58,3.34,3.34,0,0,1-.31-.73,3.5,3.5,0,0,1-.12-.91,3.4,3.4,0,0,1,.59-2,3.62,3.62,0,0,1,1.6-1.27,6,6,0,0,1,2.29-.43,7.1,7.1,0,0,1,1.66.19,5.541,5.541,0,0,1,1.48.57,3.47,3.47,0,0,1,1.18,1,4,4,0,0,1,.67,1.54l-2.54.64a2.07,2.07,0,0,0-2.28-1.82h0a2.41,2.41,0,0,0-1.41.37,1.24,1.24,0,0,0-.56,1.11c0,.46.31.84.92,1.13a14.178,14.178,0,0,0,1.77.6l.85.27.81.3a4.6,4.6,0,0,1,.8.4,5.419,5.419,0,0,1,.67.48,2.91,2.91,0,0,1,.57.64,3.182,3.182,0,0,1,.34.78,3.28,3.28,0,0,1,.15,1,4,4,0,0,1-.26,1.44,3.189,3.189,0,0,1-.7,1.08,4.07,4.07,0,0,1-1.05.74,5.311,5.311,0,0,1-1.29.44A7.75,7.75,0,0,1,626.4,110.28Zm8.47-1.59h1.4v7.41h-1.46v-5.89l-1.7,1.58v-1.51Z" fill="#00223d"/>
        <path id="Trazado_35258" data-name="Trazado 35258" d="M704.4,110.28a6.12,6.12,0,0,1-3.52-1,3.92,3.92,0,0,1-1.72-2.72l2.73-.62a2.31,2.31,0,0,0,.84,1.6,2.84,2.84,0,0,0,1.78.56,2.37,2.37,0,0,0,1.39-.39,1.31,1.31,0,0,0,.52-1.16,1.22,1.22,0,0,0-.44-.94,3.16,3.16,0,0,0-.9-.58c-.29-.11-.77-.27-1.42-.47l-.2-.06-.81-.26-.76-.3a5,5,0,0,1-.73-.36,4.739,4.739,0,0,1-.62-.46,2.358,2.358,0,0,1-.51-.58,3.337,3.337,0,0,1-.31-.73,3.5,3.5,0,0,1-.12-.91,3.4,3.4,0,0,1,.59-2,3.62,3.62,0,0,1,1.6-1.27,6,6,0,0,1,2.29-.43,7.1,7.1,0,0,1,1.66.19,5.541,5.541,0,0,1,1.48.57,3.47,3.47,0,0,1,1.18,1,4,4,0,0,1,.67,1.54l-2.54.64a2.07,2.07,0,0,0-2.28-1.82h0a2.41,2.41,0,0,0-1.41.37,1.24,1.24,0,0,0-.56,1.11c0,.46.31.84.92,1.13a14.181,14.181,0,0,0,1.77.6l.85.27.81.3a4.6,4.6,0,0,1,.8.4,5.415,5.415,0,0,1,.67.48,2.911,2.911,0,0,1,.57.64,3.18,3.18,0,0,1,.34.78,3.28,3.28,0,0,1,.15,1,4,4,0,0,1-.26,1.44,3.189,3.189,0,0,1-.7,1.08,4.068,4.068,0,0,1-1.05.74,5.312,5.312,0,0,1-1.29.44,7.753,7.753,0,0,1-1.46.18Zm8.68,5.92a2.31,2.31,0,0,1-2-1,6.23,6.23,0,0,1,0-5.7,2.5,2.5,0,0,1,4,0,6.23,6.23,0,0,1,0,5.7,2.31,2.31,0,0,1-2,1Zm0-1.33a1,1,0,0,0,.89-.61,5.62,5.62,0,0,0,0-3.74,1,1,0,0,0-.89-.6c-.8,0-1.21.82-1.21,2.47s.41,2.48,1.21,2.48Z" fill="#00223d"/>
        <path id="Trazado_35259" data-name="Trazado 35259" d="M790.4,110.28a6.12,6.12,0,0,1-3.52-1,3.92,3.92,0,0,1-1.72-2.72l2.73-.62a2.31,2.31,0,0,0,.84,1.6,2.84,2.84,0,0,0,1.78.56,2.37,2.37,0,0,0,1.39-.39,1.31,1.31,0,0,0,.52-1.16,1.22,1.22,0,0,0-.44-.94,3.159,3.159,0,0,0-.9-.58c-.29-.11-.77-.27-1.42-.47l-.2-.06-.81-.26-.76-.3a5,5,0,0,1-.73-.36,4.739,4.739,0,0,1-.62-.46,2.36,2.36,0,0,1-.51-.58,3.341,3.341,0,0,1-.31-.73,3.5,3.5,0,0,1-.12-.91,3.4,3.4,0,0,1,.59-2,3.619,3.619,0,0,1,1.6-1.27,6,6,0,0,1,2.29-.43,7.1,7.1,0,0,1,1.66.19,5.54,5.54,0,0,1,1.48.57,3.47,3.47,0,0,1,1.18,1,4,4,0,0,1,.67,1.54l-2.54.64a2.07,2.07,0,0,0-2.28-1.82h0a2.41,2.41,0,0,0-1.41.37,1.24,1.24,0,0,0-.56,1.11c0,.46.31.84.92,1.13a14.181,14.181,0,0,0,1.77.6l.85.27.81.3a4.6,4.6,0,0,1,.8.4,5.412,5.412,0,0,1,.67.48,2.91,2.91,0,0,1,.57.64,3.18,3.18,0,0,1,.34.78,3.28,3.28,0,0,1,.15,1,4,4,0,0,1-.26,1.44,3.189,3.189,0,0,1-.7,1.08,4.069,4.069,0,0,1-1.05.74,5.31,5.31,0,0,1-1.29.44,7.751,7.751,0,0,1-1.46.18Zm8.12,4.5h3.16v1.32h-5.23V115l2.95-3a1.85,1.85,0,0,0,.64-1.28.92.92,0,0,0-.26-.69,1,1,0,0,0-.75-.25q-1,0-1,1.2v.55l-1.47-.15V111a2.26,2.26,0,0,1,.68-1.78,2.55,2.55,0,0,1,1.83-.63,2.69,2.69,0,0,1,1.79.57,1.91,1.91,0,0,1,.69,1.56,2.41,2.41,0,0,1-.23,1,4.46,4.46,0,0,1-.75,1Z" fill="#00223d"/>
        <g id="Grupo_18506" data-name="Grupo 18506">
          <path id="Trazado_34086" data-name="Trazado 34086" d="M383.54,421.93H358.69" fill="none" stroke="#472ea6" stroke-width="2"/>
          <path id="Polígono_19" data-name="Polígono 19" d="M351,422.1l10-5.5v11Z" fill="#472ea6"/>
        </g>
        <g id="Grupo_18507" data-name="Grupo 18507">
          <path id="Trazado_34086-2" data-name="Trazado 34086-2" d="M443,413.93h24.85" fill="none" stroke="#472ea6" stroke-width="2"/>
          <path id="Polígono_19-2" data-name="Polígono 19-2" d="M475.54,414.1l-10,5.5v-11Z" fill="#472ea6"/>
        </g>
        <g id="Grupo_18508" data-name="Grupo 18508">
          <path id="Trazado_34086-3" data-name="Trazado 34086-3" d="M489.54,347.93H464.69" fill="none" stroke="#472ea6" stroke-width="2"/>
          <path id="Polígono_19-3" data-name="Polígono 19-3" d="M457,348.1l10-5.5v11Z" fill="#472ea6"/>
        </g>
        <g id="Grupo_18509" data-name="Grupo 18509">
          <path id="Trazado_34086-4" data-name="Trazado 34086-4" d="M547,347.93h24.85" fill="none" stroke="#472ea6" stroke-width="2"/>
          <path id="Polígono_19-4" data-name="Polígono 19-4" d="M579.54,348.1l-10,5.5v-11Z" fill="#472ea6"/>
        </g>
        <g id="Grupo_18510" data-name="Grupo 18510">
          <path id="Trazado_34086-5" data-name="Trazado 34086-5" d="M634.54,205.93H609.69" fill="none" stroke="#472ea6" stroke-width="2"/>
          <path id="Polígono_19-5" data-name="Polígono 19-5" d="M602,206.1l10-5.5v11Z" fill="#472ea6"/>
        </g>
        <g id="Grupo_18511" data-name="Grupo 18511">
          <path id="Trazado_34086-6" data-name="Trazado 34086-6" d="M713,159.93h24.85" fill="none" stroke="#472ea6" stroke-width="2"/>
          <path id="Polígono_19-6" data-name="Polígono 19-6" d="M745.54,160.1l-10,5.5v-11Z" fill="#472ea6"/>
        </g>
        <g id="Grupo">
          <text id="P_20.000_" data-name="P=20.000 " transform="translate(267.32 133.73)" fill="#12263f" font-size="16" font-family="Roboto-Regular, Roboto"><tspan x="0" y="0">P=20.000 </tspan></text>
          <text id="Q_19.8_millones" data-name="Q=19.8 millones" transform="translate(267.32 154.73)" fill="#12263f" font-size="16" font-family="Roboto-Regular, Roboto"><tspan x="0" y="0">Q=19.8 millones</tspan></text>
          <text id="P_20.000_2" data-name="P=20.000 " transform="translate(267.32 196.73)" fill="#12263f" font-size="16" font-family="Roboto-Regular, Roboto"><tspan x="0" y="0">P=20.000 </tspan></text>
          <text id="Q_18_millones" data-name="Q=18 millones" transform="translate(267.32 217.73)" fill="#12263f" font-size="16" font-family="Roboto-Regular, Roboto"><tspan x="0" y="0">Q=18 millones</tspan></text>
          <text id="P_20.000" data-name="P=20.000" transform="translate(267.32 259.73)" fill="#12263f" font-size="16" font-family="Roboto-Regular, Roboto"><tspan x="0" y="0">P=20.000</tspan></text>
          <text id="Q_16.6_millones" data-name="Q=16.6 millones" transform="translate(267.32 280.73)" fill="#12263f" font-size="16" font-family="Roboto-Regular, Roboto"><tspan x="0" y="0">Q=16.6 millones</tspan></text>
        </g>
      </g>
      <text id="Precio" transform="translate(30.59 398.03) rotate(-90)" fill="#12263f" font-size="18" font-family="Roboto-Bold, Roboto" font-weight="700"><tspan x="0" y="0">P</tspan><tspan y="0" letter-spacing="-0.01em">r</tspan><tspan y="0">ecio</tspan></text>
    </g>
  </g>
</svg>
