<svg xmlns="http://www.w3.org/2000/svg" width="924.708" height="628.212" viewBox="0 0 924.708 628.212">
  <g id="Grupo_18910" data-name="Grupo 18910" transform="translate(-464.202 -4405.999)">
    <g id="Grupo_18866" data-name="Grupo 18866">
      <path id="Trazado_34049" data-name="Trazado 34049" d="M6211.281,1499v510.586H6989.91" transform="translate(-5601 2915)" fill="none" stroke="#472ea6" stroke-width="1"/>
      <path id="Trazado_34050" data-name="Trazado 34050" d="M6197.659,1868H6211.2" transform="translate(-5601 2827)" fill="none" stroke="#472ea6" stroke-width="1"/>
      <path id="Trazado_34051" data-name="Trazado 34051" d="M6197.659,1868H6211.2" transform="translate(-5601 2772)" fill="none" stroke="#472ea6" stroke-width="1"/>
      <path id="Trazado_34052" data-name="Trazado 34052" d="M6197.659,1868H6211.2" transform="translate(-5601 2717)" fill="none" stroke="#472ea6" stroke-width="1"/>
      <path id="Trazado_34053" data-name="Trazado 34053" d="M6197.659,1868H6211.2" transform="translate(-5601 2662)" fill="none" stroke="#472ea6" stroke-width="1"/>
      <path id="Trazado_34054" data-name="Trazado 34054" d="M6197.659,1868H6211.2" transform="translate(-5601 2601)" fill="none" stroke="#472ea6" stroke-width="1"/>
      <path id="Trazado_34055" data-name="Trazado 34055" d="M6197.659,1868H6211.2" transform="translate(-5601 2546)" fill="none" stroke="#472ea6" stroke-width="1"/>
      <path id="Trazado_35208" data-name="Trazado 35208" d="M5.4.176A5.082,5.082,0,0,1,2.079-.888,3.494,3.494,0,0,1,.773-3.744a3.559,3.559,0,0,1,.532-1.947A3.644,3.644,0,0,1,2.777-7a3.217,3.217,0,0,1-1.05-1.081,2.792,2.792,0,0,1-.382-1.441,2.979,2.979,0,0,1,1.134-2.421A4.46,4.46,0,0,1,5.4-12.876a4.387,4.387,0,0,1,2.878.927A2.983,2.983,0,0,1,9.4-9.527,2.845,2.845,0,0,1,9.035-8.09,3.244,3.244,0,0,1,8.016-7,3.626,3.626,0,0,1,9.475-5.691,3.582,3.582,0,0,1,10-3.744,3.649,3.649,0,0,1,9.4-1.657,3.817,3.817,0,0,1,7.748-.29,5.7,5.7,0,0,1,5.4.176Zm0-7.919a1.689,1.689,0,0,0,1.2-.475,1.537,1.537,0,0,0,.5-1.16,1.5,1.5,0,0,0-.5-1.143,1.706,1.706,0,0,0-1.2-.466,1.713,1.713,0,0,0-1.217.466,1.506,1.506,0,0,0-.5,1.143,1.539,1.539,0,0,0,.5,1.165A1.7,1.7,0,0,0,5.4-7.743Zm0,5.651a2.122,2.122,0,0,0,1.485-.536,1.854,1.854,0,0,0,.589-1.441A1.8,1.8,0,0,0,6.877-5.48,2.137,2.137,0,0,0,5.4-6.012a2.161,2.161,0,0,0-1.5.532A1.8,1.8,0,0,0,3.3-4.069,1.847,1.847,0,0,0,3.9-2.628,2.15,2.15,0,0,0,5.4-2.092Z" transform="translate(605 4970)" fill="#00223d"/>
      <path id="Trazado_34058" data-name="Trazado 34058" d="M6255.836,1924.586v19.352" transform="translate(-5496 2999)" fill="none" stroke="#472ea6" stroke-width="1"/>
      <path id="Trazado_35209" data-name="Trazado 35209" d="M5.027-12.7H7.436V0H4.913V-10.1L2-7.383v-2.6ZM16.1.176a4.557,4.557,0,0,1-3.463-1.16,5.031,5.031,0,0,1-1.09-3.551l2.593-.114a9.181,9.181,0,0,0,.04.932A3.22,3.22,0,0,0,14.339-3a1.29,1.29,0,0,0,.334.541,1.517,1.517,0,0,0,.571.312,2.823,2.823,0,0,0,.857.114,2.059,2.059,0,0,0,1.5-.51,1.782,1.782,0,0,0,.523-1.336,1.8,1.8,0,0,0-.5-1.375,1.885,1.885,0,0,0-1.345-.47h-.492V-7.69h.457a1.374,1.374,0,0,0,1.05-.448,1.6,1.6,0,0,0,.417-1.134,1.278,1.278,0,0,0-.457-1.055,1.858,1.858,0,0,0-1.2-.369,1.8,1.8,0,0,0-.686.119,1.279,1.279,0,0,0-.461.3,1.341,1.341,0,0,0-.272.466,2.448,2.448,0,0,0-.132.554,5.529,5.529,0,0,0-.031.615l-2.558-.123A4.066,4.066,0,0,1,13-11.817a4.156,4.156,0,0,1,3.023-1.059,4.322,4.322,0,0,1,2.9.971,3.042,3.042,0,0,1,1.143,2.413,2.746,2.746,0,0,1-.488,1.635,2.793,2.793,0,0,1-1.112.967,3.13,3.13,0,0,1,.809.36,3.315,3.315,0,0,1,.708.606A2.706,2.706,0,0,1,20.5-5a3.713,3.713,0,0,1,.193,1.23A3.589,3.589,0,0,1,19.441-.9,4.958,4.958,0,0,1,16.1.176Z" transform="translate(744 4970)" fill="#00223d"/>
      <path id="Trazado_34060" data-name="Trazado 34060" d="M6255.836,1924.586v19.352" transform="translate(-5326 2999)" fill="none" stroke="#472ea6" stroke-width="1"/>
      <path id="Trazado_35210" data-name="Trazado 35210" d="M5.027-12.7H7.436V0H4.913V-10.1L2-7.383v-2.6ZM20.795-4.263a4.14,4.14,0,0,1-.374,1.784,4.21,4.21,0,0,1-1.028,1.411,4.842,4.842,0,0,1-1.507.905,5,5,0,0,1-1.8.33,4.989,4.989,0,0,1-1.833-.338A4.513,4.513,0,0,1,12.766-1.1a4.308,4.308,0,0,1-.98-1.411,4.3,4.3,0,0,1-.36-1.745,5.278,5.278,0,0,1,1.125-3.1L16.506-12.7H19.38l-3.3,4.3a4.282,4.282,0,0,1,.58-.035,4.14,4.14,0,0,1,1.56.3,4.224,4.224,0,0,1,1.314.831,3.843,3.843,0,0,1,.91,1.323A4.443,4.443,0,0,1,20.795-4.263Zm-2.479-.062A2.17,2.17,0,0,0,17.7-5.963,2.238,2.238,0,0,0,16.04-6.6a2.145,2.145,0,0,0-1.608.642,2.266,2.266,0,0,0-.642,1.6,2.173,2.173,0,0,0,.589,1.63,2.183,2.183,0,0,0,1.635.62,2.289,2.289,0,0,0,1.652-.615A2.145,2.145,0,0,0,18.316-4.324ZM24.39.176A1.386,1.386,0,0,1,23.375-.25a1.386,1.386,0,0,1-.426-1.015,1.411,1.411,0,0,1,.426-1.028,1.379,1.379,0,0,1,1.015-.431,1.4,1.4,0,0,1,1.028.431,1.4,1.4,0,0,1,.431,1.028A1.379,1.379,0,0,1,25.418-.25,1.411,1.411,0,0,1,24.39.176Zm8.033-8.411q4.878,0,4.878,4.008a4.281,4.281,0,0,1-1.23,3.212,4.447,4.447,0,0,1-3.243,1.2,5.38,5.38,0,0,1-2.272-.47,3.92,3.92,0,0,1-1.648-1.4,3.742,3.742,0,0,1-.624-2.14,3.951,3.951,0,0,1,.053-.633L30.85-4.57a3.715,3.715,0,0,0-.062.563,1.71,1.71,0,0,0,.571,1.4,2.153,2.153,0,0,0,1.415.47,1.95,1.95,0,0,0,1.477-.541,2.013,2.013,0,0,0,.519-1.455,1.811,1.811,0,0,0-.633-1.485,3.389,3.389,0,0,0-2.127-.519H28.679l.527-6.565h7.5v2.259H31.482l-.167,2.206Z" transform="translate(911 4970)" fill="#00223d"/>
      <path id="Trazado_34062" data-name="Trazado 34062" d="M6255.836,1924.586v19.352" transform="translate(-5242 2999)" fill="none" stroke="#472ea6" stroke-width="1"/>
      <path id="Trazado_35211" data-name="Trazado 35211" d="M5.027-12.7H7.436V0H4.913V-10.1L2-7.383v-2.6ZM16.146.176A5.082,5.082,0,0,1,12.828-.888a3.494,3.494,0,0,1-1.305-2.856,3.559,3.559,0,0,1,.532-1.947A3.644,3.644,0,0,1,13.526-7a3.217,3.217,0,0,1-1.05-1.081,2.792,2.792,0,0,1-.382-1.441,2.979,2.979,0,0,1,1.134-2.421,4.46,4.46,0,0,1,2.918-.927,4.387,4.387,0,0,1,2.878.927,2.983,2.983,0,0,1,1.129,2.421,2.845,2.845,0,0,1-.369,1.437A3.244,3.244,0,0,1,18.765-7a3.626,3.626,0,0,1,1.459,1.314,3.582,3.582,0,0,1,.527,1.947,3.649,3.649,0,0,1-.606,2.087A3.817,3.817,0,0,1,18.5-.29,5.7,5.7,0,0,1,16.146.176Zm0-7.919a1.689,1.689,0,0,0,1.2-.475,1.537,1.537,0,0,0,.5-1.16,1.5,1.5,0,0,0-.5-1.143,1.706,1.706,0,0,0-1.2-.466,1.713,1.713,0,0,0-1.217.466,1.506,1.506,0,0,0-.5,1.143,1.539,1.539,0,0,0,.5,1.165A1.7,1.7,0,0,0,16.146-7.743Zm0,5.651a2.122,2.122,0,0,0,1.485-.536,1.854,1.854,0,0,0,.589-1.441,1.8,1.8,0,0,0-.593-1.411,2.137,2.137,0,0,0-1.481-.532,2.161,2.161,0,0,0-1.5.532,1.8,1.8,0,0,0-.593,1.411,1.847,1.847,0,0,0,.593,1.441A2.15,2.15,0,0,0,16.146-2.092Z" transform="translate(1004 4970)" fill="#00223d"/>
      <path id="Trazado_34063" data-name="Trazado 34063" d="M6255.836,1924.586v19.352" transform="translate(-5645 3000)" fill="none" stroke="#472ea6" stroke-width="1"/>
      <path id="Trazado_34072" data-name="Trazado 34072" d="M6197.659,1868H6211.2" transform="translate(-5601 3002)" fill="none" stroke="#472ea6" stroke-width="1"/>
      <path id="Trazado_34073" data-name="Trazado 34073" d="M6197.659,1868H6211.2" transform="translate(-5601 2941)" fill="none" stroke="#472ea6" stroke-width="1"/>
      <path id="Trazado_34074" data-name="Trazado 34074" d="M6197.659,1868H6211.2" transform="translate(-5601 2886)" fill="none" stroke="#472ea6" stroke-width="1"/>
      <path id="Trazado_35212" data-name="Trazado 35212" d="M10.951-3.647A3.782,3.782,0,0,1,10.608-2,3.1,3.1,0,0,1,9.659-.831a4.659,4.659,0,0,1-1.371.7,6.688,6.688,0,0,1-1.661.3V1.406H5.651V.167A5.667,5.667,0,0,1,2.5-.91,3.9,3.9,0,0,1,.967-3.5l2.725-.633A2.372,2.372,0,0,0,4.32-2.707a2.421,2.421,0,0,0,1.332.686V-5.44q-.07-.026-.2-.066l-.193-.057q-.483-.149-.8-.259t-.765-.294a4.857,4.857,0,0,1-.734-.369,5.594,5.594,0,0,1-.611-.457,2.328,2.328,0,0,1-.505-.584,3.214,3.214,0,0,1-.308-.729,3.174,3.174,0,0,1-.123-.9,3.272,3.272,0,0,1,1.182-2.659,4.944,4.944,0,0,1,3.063-1.05V-14h.976v1.169a6.324,6.324,0,0,1,1.881.453A4.152,4.152,0,0,1,10-11.294a3.776,3.776,0,0,1,.87,1.767l-2.54.633a1.989,1.989,0,0,0-1.705-1.767v3.12a.414.414,0,0,0,.066.022l.075.022q.51.149.839.259t.813.312a6.4,6.4,0,0,1,.8.391,5.474,5.474,0,0,1,.677.488,2.627,2.627,0,0,1,.567.633,3.422,3.422,0,0,1,.347.787A3.288,3.288,0,0,1,10.951-3.647ZM4.069-9.22a.971.971,0,0,0,.4.8,4.148,4.148,0,0,0,1.178.576V-10.7a2.153,2.153,0,0,0-1.147.453A1.263,1.263,0,0,0,4.069-9.22ZM6.627-1.986A2.08,2.08,0,0,0,7.8-2.443a1.309,1.309,0,0,0,.426-1.063,1.248,1.248,0,0,0-.417-.949,3.7,3.7,0,0,0-1.182-.659ZM21.753-12.7h2.408V0H21.639V-10.1L18.721-7.383v-2.6ZM32.862.176a3.961,3.961,0,0,1-3.415-1.644,8.3,8.3,0,0,1-1.191-4.887,8.3,8.3,0,0,1,1.187-4.887,3.966,3.966,0,0,1,3.419-1.635,3.957,3.957,0,0,1,3.41,1.635,8.3,8.3,0,0,1,1.187,4.887,8.3,8.3,0,0,1-1.191,4.887A3.952,3.952,0,0,1,32.862.176Zm0-2.285a1.67,1.67,0,0,0,1.525-1.042,7.251,7.251,0,0,0,.541-3.2,7.2,7.2,0,0,0-.545-3.2A1.673,1.673,0,0,0,32.862-10.6q-2.074,0-2.074,4.245T32.862-2.109Zm8.446,5.344H39.5l1.1-5.748h2.6ZM49.518.176A3.961,3.961,0,0,1,46.1-1.468a8.3,8.3,0,0,1-1.191-4.887A8.3,8.3,0,0,1,46.1-11.241a3.966,3.966,0,0,1,3.419-1.635,3.957,3.957,0,0,1,3.41,1.635,8.3,8.3,0,0,1,1.187,4.887,8.3,8.3,0,0,1-1.191,4.887A3.952,3.952,0,0,1,49.518.176Zm0-2.285a1.67,1.67,0,0,0,1.525-1.042,7.251,7.251,0,0,0,.541-3.2,7.2,7.2,0,0,0-.545-3.2A1.673,1.673,0,0,0,49.518-10.6q-2.074,0-2.074,4.245T49.518-2.109ZM60.267.176a3.961,3.961,0,0,1-3.415-1.644,8.3,8.3,0,0,1-1.191-4.887,8.3,8.3,0,0,1,1.187-4.887,3.966,3.966,0,0,1,3.419-1.635,3.957,3.957,0,0,1,3.41,1.635,8.3,8.3,0,0,1,1.187,4.887,8.3,8.3,0,0,1-1.191,4.887A3.952,3.952,0,0,1,60.267.176Zm0-2.285a1.67,1.67,0,0,0,1.525-1.042,7.251,7.251,0,0,0,.541-3.2,7.2,7.2,0,0,0-.545-3.2A1.673,1.673,0,0,0,60.267-10.6q-2.074,0-2.074,4.245T60.267-2.109Z" transform="translate(522 4931)" fill="#00223d"/>
      <path id="Trazado_35213" data-name="Trazado 35213" d="M10.951-3.647A3.782,3.782,0,0,1,10.608-2,3.1,3.1,0,0,1,9.659-.831a4.659,4.659,0,0,1-1.371.7,6.688,6.688,0,0,1-1.661.3V1.406H5.651V.167A5.667,5.667,0,0,1,2.5-.91,3.9,3.9,0,0,1,.967-3.5l2.725-.633A2.372,2.372,0,0,0,4.32-2.707a2.421,2.421,0,0,0,1.332.686V-5.44q-.07-.026-.2-.066l-.193-.057q-.483-.149-.8-.259t-.765-.294a4.857,4.857,0,0,1-.734-.369,5.594,5.594,0,0,1-.611-.457,2.328,2.328,0,0,1-.505-.584,3.214,3.214,0,0,1-.308-.729,3.174,3.174,0,0,1-.123-.9,3.272,3.272,0,0,1,1.182-2.659,4.944,4.944,0,0,1,3.063-1.05V-14h.976v1.169a6.324,6.324,0,0,1,1.881.453A4.152,4.152,0,0,1,10-11.294a3.776,3.776,0,0,1,.87,1.767l-2.54.633a1.989,1.989,0,0,0-1.705-1.767v3.12a.414.414,0,0,0,.066.022l.075.022q.51.149.839.259t.813.312a6.4,6.4,0,0,1,.8.391,5.474,5.474,0,0,1,.677.488,2.627,2.627,0,0,1,.567.633,3.422,3.422,0,0,1,.347.787A3.288,3.288,0,0,1,10.951-3.647ZM4.069-9.22a.971.971,0,0,0,.4.8,4.148,4.148,0,0,0,1.178.576V-10.7a2.153,2.153,0,0,0-1.147.453A1.263,1.263,0,0,0,4.069-9.22ZM6.627-1.986A2.08,2.08,0,0,0,7.8-2.443a1.309,1.309,0,0,0,.426-1.063,1.248,1.248,0,0,0-.417-.949,3.7,3.7,0,0,0-1.182-.659ZM21.753-12.7h2.408V0H21.639V-10.1L18.721-7.383v-2.6ZM31.9-2.259H37.31V0H28.354V-1.907l5.054-5.159a3.18,3.18,0,0,0,1.1-2.188,1.548,1.548,0,0,0-.453-1.178,1.782,1.782,0,0,0-1.279-.431q-1.8,0-1.8,2.048v.94L28.45-8.13v-.633a3.961,3.961,0,0,1,1.16-3.054,4.443,4.443,0,0,1,3.146-1.077,4.655,4.655,0,0,1,3.063.976A3.288,3.288,0,0,1,37-9.237a3.8,3.8,0,0,1-.4,1.74,7.274,7.274,0,0,1-1.27,1.7Zm9.413,5.493H39.5l1.1-5.748h2.6ZM49.518.176A3.961,3.961,0,0,1,46.1-1.468a8.3,8.3,0,0,1-1.191-4.887A8.3,8.3,0,0,1,46.1-11.241a3.966,3.966,0,0,1,3.419-1.635,3.957,3.957,0,0,1,3.41,1.635,8.3,8.3,0,0,1,1.187,4.887,8.3,8.3,0,0,1-1.191,4.887A3.952,3.952,0,0,1,49.518.176Zm0-2.285a1.67,1.67,0,0,0,1.525-1.042,7.251,7.251,0,0,0,.541-3.2,7.2,7.2,0,0,0-.545-3.2A1.673,1.673,0,0,0,49.518-10.6q-2.074,0-2.074,4.245T49.518-2.109ZM60.267.176a3.961,3.961,0,0,1-3.415-1.644,8.3,8.3,0,0,1-1.191-4.887,8.3,8.3,0,0,1,1.187-4.887,3.966,3.966,0,0,1,3.419-1.635,3.957,3.957,0,0,1,3.41,1.635,8.3,8.3,0,0,1,1.187,4.887,8.3,8.3,0,0,1-1.191,4.887A3.952,3.952,0,0,1,60.267.176Zm0-2.285a1.67,1.67,0,0,0,1.525-1.042,7.251,7.251,0,0,0,.541-3.2,7.2,7.2,0,0,0-.545-3.2A1.673,1.673,0,0,0,60.267-10.6q-2.074,0-2.074,4.245T60.267-2.109Z" transform="translate(522 4876)" fill="#00223d"/>
      <path id="Trazado_35214" data-name="Trazado 35214" d="M10.951-3.647A3.782,3.782,0,0,1,10.608-2,3.1,3.1,0,0,1,9.659-.831a4.659,4.659,0,0,1-1.371.7,6.688,6.688,0,0,1-1.661.3V1.406H5.651V.167A5.667,5.667,0,0,1,2.5-.91,3.9,3.9,0,0,1,.967-3.5l2.725-.633A2.372,2.372,0,0,0,4.32-2.707a2.421,2.421,0,0,0,1.332.686V-5.44q-.07-.026-.2-.066l-.193-.057q-.483-.149-.8-.259t-.765-.294a4.857,4.857,0,0,1-.734-.369,5.594,5.594,0,0,1-.611-.457,2.328,2.328,0,0,1-.505-.584,3.214,3.214,0,0,1-.308-.729,3.174,3.174,0,0,1-.123-.9,3.272,3.272,0,0,1,1.182-2.659,4.944,4.944,0,0,1,3.063-1.05V-14h.976v1.169a6.324,6.324,0,0,1,1.881.453A4.152,4.152,0,0,1,10-11.294a3.776,3.776,0,0,1,.87,1.767l-2.54.633a1.989,1.989,0,0,0-1.705-1.767v3.12a.414.414,0,0,0,.066.022l.075.022q.51.149.839.259t.813.312a6.4,6.4,0,0,1,.8.391,5.474,5.474,0,0,1,.677.488,2.627,2.627,0,0,1,.567.633,3.422,3.422,0,0,1,.347.787A3.288,3.288,0,0,1,10.951-3.647ZM4.069-9.22a.971.971,0,0,0,.4.8,4.148,4.148,0,0,0,1.178.576V-10.7a2.153,2.153,0,0,0-1.147.453A1.263,1.263,0,0,0,4.069-9.22ZM6.627-1.986A2.08,2.08,0,0,0,7.8-2.443a1.309,1.309,0,0,0,.426-1.063,1.248,1.248,0,0,0-.417-.949,3.7,3.7,0,0,0-1.182-.659ZM21.753-12.7h2.408V0H21.639V-10.1L18.721-7.383v-2.6ZM37.767-4.667v2.259H36.237V0H33.706V-2.408H27.861V-4.676l4.5-8.024h3.876v8.033Zm-7.559,0h3.5V-11.18Zm11.1,7.9H39.5l1.1-5.748h2.6ZM49.518.176A3.961,3.961,0,0,1,46.1-1.468a8.3,8.3,0,0,1-1.191-4.887A8.3,8.3,0,0,1,46.1-11.241a3.966,3.966,0,0,1,3.419-1.635,3.957,3.957,0,0,1,3.41,1.635,8.3,8.3,0,0,1,1.187,4.887,8.3,8.3,0,0,1-1.191,4.887A3.952,3.952,0,0,1,49.518.176Zm0-2.285a1.67,1.67,0,0,0,1.525-1.042,7.251,7.251,0,0,0,.541-3.2,7.2,7.2,0,0,0-.545-3.2A1.673,1.673,0,0,0,49.518-10.6q-2.074,0-2.074,4.245T49.518-2.109ZM60.267.176a3.961,3.961,0,0,1-3.415-1.644,8.3,8.3,0,0,1-1.191-4.887,8.3,8.3,0,0,1,1.187-4.887,3.966,3.966,0,0,1,3.419-1.635,3.957,3.957,0,0,1,3.41,1.635,8.3,8.3,0,0,1,1.187,4.887,8.3,8.3,0,0,1-1.191,4.887A3.952,3.952,0,0,1,60.267.176Zm0-2.285a1.67,1.67,0,0,0,1.525-1.042,7.251,7.251,0,0,0,.541-3.2,7.2,7.2,0,0,0-.545-3.2A1.673,1.673,0,0,0,60.267-10.6q-2.074,0-2.074,4.245T60.267-2.109Z" transform="translate(522 4815)" fill="#00223d"/>
      <path id="Trazado_35215" data-name="Trazado 35215" d="M10.951-3.647A3.782,3.782,0,0,1,10.608-2,3.1,3.1,0,0,1,9.659-.831a4.659,4.659,0,0,1-1.371.7,6.688,6.688,0,0,1-1.661.3V1.406H5.651V.167A5.667,5.667,0,0,1,2.5-.91,3.9,3.9,0,0,1,.967-3.5l2.725-.633A2.372,2.372,0,0,0,4.32-2.707a2.421,2.421,0,0,0,1.332.686V-5.44q-.07-.026-.2-.066l-.193-.057q-.483-.149-.8-.259t-.765-.294a4.857,4.857,0,0,1-.734-.369,5.594,5.594,0,0,1-.611-.457,2.328,2.328,0,0,1-.505-.584,3.214,3.214,0,0,1-.308-.729,3.174,3.174,0,0,1-.123-.9,3.272,3.272,0,0,1,1.182-2.659,4.944,4.944,0,0,1,3.063-1.05V-14h.976v1.169a6.324,6.324,0,0,1,1.881.453A4.152,4.152,0,0,1,10-11.294a3.776,3.776,0,0,1,.87,1.767l-2.54.633a1.989,1.989,0,0,0-1.705-1.767v3.12a.414.414,0,0,0,.066.022l.075.022q.51.149.839.259t.813.312a6.4,6.4,0,0,1,.8.391,5.474,5.474,0,0,1,.677.488,2.627,2.627,0,0,1,.567.633,3.422,3.422,0,0,1,.347.787A3.288,3.288,0,0,1,10.951-3.647ZM4.069-9.22a.971.971,0,0,0,.4.8,4.148,4.148,0,0,0,1.178.576V-10.7a2.153,2.153,0,0,0-1.147.453A1.263,1.263,0,0,0,4.069-9.22ZM6.627-1.986A2.08,2.08,0,0,0,7.8-2.443a1.309,1.309,0,0,0,.426-1.063,1.248,1.248,0,0,0-.417-.949,3.7,3.7,0,0,0-1.182-.659ZM21.753-12.7h2.408V0H21.639V-10.1L18.721-7.383v-2.6ZM37.521-4.263a4.14,4.14,0,0,1-.374,1.784,4.21,4.21,0,0,1-1.028,1.411,4.842,4.842,0,0,1-1.507.905,5,5,0,0,1-1.8.33,4.989,4.989,0,0,1-1.833-.338A4.513,4.513,0,0,1,29.492-1.1a4.308,4.308,0,0,1-.98-1.411,4.3,4.3,0,0,1-.36-1.745,5.278,5.278,0,0,1,1.125-3.1L33.231-12.7h2.874l-3.3,4.3a4.282,4.282,0,0,1,.58-.035,4.14,4.14,0,0,1,1.56.3,4.224,4.224,0,0,1,1.314.831,3.843,3.843,0,0,1,.91,1.323A4.443,4.443,0,0,1,37.521-4.263Zm-2.479-.062a2.17,2.17,0,0,0-.615-1.639A2.238,2.238,0,0,0,32.766-6.6a2.145,2.145,0,0,0-1.608.642,2.266,2.266,0,0,0-.642,1.6,2.173,2.173,0,0,0,.589,1.63,2.183,2.183,0,0,0,1.635.62,2.289,2.289,0,0,0,1.652-.615A2.145,2.145,0,0,0,35.042-4.324Zm6.267,7.559H39.5l1.1-5.748h2.6ZM49.518.176A3.961,3.961,0,0,1,46.1-1.468a8.3,8.3,0,0,1-1.191-4.887A8.3,8.3,0,0,1,46.1-11.241a3.966,3.966,0,0,1,3.419-1.635,3.957,3.957,0,0,1,3.41,1.635,8.3,8.3,0,0,1,1.187,4.887,8.3,8.3,0,0,1-1.191,4.887A3.952,3.952,0,0,1,49.518.176Zm0-2.285a1.67,1.67,0,0,0,1.525-1.042,7.251,7.251,0,0,0,.541-3.2,7.2,7.2,0,0,0-.545-3.2A1.673,1.673,0,0,0,49.518-10.6q-2.074,0-2.074,4.245T49.518-2.109ZM60.267.176a3.961,3.961,0,0,1-3.415-1.644,8.3,8.3,0,0,1-1.191-4.887,8.3,8.3,0,0,1,1.187-4.887,3.966,3.966,0,0,1,3.419-1.635,3.957,3.957,0,0,1,3.41,1.635,8.3,8.3,0,0,1,1.187,4.887,8.3,8.3,0,0,1-1.191,4.887A3.952,3.952,0,0,1,60.267.176Zm0-2.285a1.67,1.67,0,0,0,1.525-1.042,7.251,7.251,0,0,0,.541-3.2,7.2,7.2,0,0,0-.545-3.2A1.673,1.673,0,0,0,60.267-10.6q-2.074,0-2.074,4.245T60.267-2.109Z" transform="translate(522 4760)" fill="#00223d"/>
      <path id="Trazado_35216" data-name="Trazado 35216" d="M10.951-3.647A3.782,3.782,0,0,1,10.608-2,3.1,3.1,0,0,1,9.659-.831a4.659,4.659,0,0,1-1.371.7,6.688,6.688,0,0,1-1.661.3V1.406H5.651V.167A5.667,5.667,0,0,1,2.5-.91,3.9,3.9,0,0,1,.967-3.5l2.725-.633A2.372,2.372,0,0,0,4.32-2.707a2.421,2.421,0,0,0,1.332.686V-5.44q-.07-.026-.2-.066l-.193-.057q-.483-.149-.8-.259t-.765-.294a4.857,4.857,0,0,1-.734-.369,5.594,5.594,0,0,1-.611-.457,2.328,2.328,0,0,1-.505-.584,3.214,3.214,0,0,1-.308-.729,3.174,3.174,0,0,1-.123-.9,3.272,3.272,0,0,1,1.182-2.659,4.944,4.944,0,0,1,3.063-1.05V-14h.976v1.169a6.324,6.324,0,0,1,1.881.453A4.152,4.152,0,0,1,10-11.294a3.776,3.776,0,0,1,.87,1.767l-2.54.633a1.989,1.989,0,0,0-1.705-1.767v3.12a.414.414,0,0,0,.066.022l.075.022q.51.149.839.259t.813.312a6.4,6.4,0,0,1,.8.391,5.474,5.474,0,0,1,.677.488,2.627,2.627,0,0,1,.567.633,3.422,3.422,0,0,1,.347.787A3.288,3.288,0,0,1,10.951-3.647ZM4.069-9.22a.971.971,0,0,0,.4.8,4.148,4.148,0,0,0,1.178.576V-10.7a2.153,2.153,0,0,0-1.147.453A1.263,1.263,0,0,0,4.069-9.22ZM6.627-1.986A2.08,2.08,0,0,0,7.8-2.443a1.309,1.309,0,0,0,.426-1.063,1.248,1.248,0,0,0-.417-.949,3.7,3.7,0,0,0-1.182-.659ZM21.753-12.7h2.408V0H21.639V-10.1L18.721-7.383v-2.6ZM32.871.176A5.082,5.082,0,0,1,29.553-.888a3.494,3.494,0,0,1-1.305-2.856,3.559,3.559,0,0,1,.532-1.947A3.644,3.644,0,0,1,30.252-7,3.217,3.217,0,0,1,29.2-8.086a2.792,2.792,0,0,1-.382-1.441,2.979,2.979,0,0,1,1.134-2.421,4.46,4.46,0,0,1,2.918-.927,4.387,4.387,0,0,1,2.878.927,2.983,2.983,0,0,1,1.129,2.421A2.845,2.845,0,0,1,36.51-8.09,3.244,3.244,0,0,1,35.49-7a3.626,3.626,0,0,1,1.459,1.314,3.582,3.582,0,0,1,.527,1.947,3.649,3.649,0,0,1-.606,2.087A3.817,3.817,0,0,1,35.222-.29,5.7,5.7,0,0,1,32.871.176Zm0-7.919a1.689,1.689,0,0,0,1.2-.475,1.537,1.537,0,0,0,.5-1.16,1.5,1.5,0,0,0-.5-1.143,1.706,1.706,0,0,0-1.2-.466,1.713,1.713,0,0,0-1.217.466,1.506,1.506,0,0,0-.5,1.143,1.539,1.539,0,0,0,.5,1.165A1.7,1.7,0,0,0,32.871-7.743Zm0,5.651a2.122,2.122,0,0,0,1.485-.536,1.854,1.854,0,0,0,.589-1.441,1.8,1.8,0,0,0-.593-1.411,2.137,2.137,0,0,0-1.481-.532,2.161,2.161,0,0,0-1.5.532,1.8,1.8,0,0,0-.593,1.411,1.847,1.847,0,0,0,.593,1.441A2.15,2.15,0,0,0,32.871-2.092Zm8.438,5.326H39.5l1.1-5.748h2.6ZM49.518.176A3.961,3.961,0,0,1,46.1-1.468a8.3,8.3,0,0,1-1.191-4.887A8.3,8.3,0,0,1,46.1-11.241a3.966,3.966,0,0,1,3.419-1.635,3.957,3.957,0,0,1,3.41,1.635,8.3,8.3,0,0,1,1.187,4.887,8.3,8.3,0,0,1-1.191,4.887A3.952,3.952,0,0,1,49.518.176Zm0-2.285a1.67,1.67,0,0,0,1.525-1.042,7.251,7.251,0,0,0,.541-3.2,7.2,7.2,0,0,0-.545-3.2A1.673,1.673,0,0,0,49.518-10.6q-2.074,0-2.074,4.245T49.518-2.109ZM60.267.176a3.961,3.961,0,0,1-3.415-1.644,8.3,8.3,0,0,1-1.191-4.887,8.3,8.3,0,0,1,1.187-4.887,3.966,3.966,0,0,1,3.419-1.635,3.957,3.957,0,0,1,3.41,1.635,8.3,8.3,0,0,1,1.187,4.887,8.3,8.3,0,0,1-1.191,4.887A3.952,3.952,0,0,1,60.267.176Zm0-2.285a1.67,1.67,0,0,0,1.525-1.042,7.251,7.251,0,0,0,.541-3.2,7.2,7.2,0,0,0-.545-3.2A1.673,1.673,0,0,0,60.267-10.6q-2.074,0-2.074,4.245T60.267-2.109Z" transform="translate(522 4699)" fill="#00223d"/>
      <path id="Trazado_35217" data-name="Trazado 35217" d="M10.951-3.647A3.782,3.782,0,0,1,10.608-2,3.1,3.1,0,0,1,9.659-.831a4.659,4.659,0,0,1-1.371.7,6.688,6.688,0,0,1-1.661.3V1.406H5.651V.167A5.667,5.667,0,0,1,2.5-.91,3.9,3.9,0,0,1,.967-3.5l2.725-.633A2.372,2.372,0,0,0,4.32-2.707a2.421,2.421,0,0,0,1.332.686V-5.44q-.07-.026-.2-.066l-.193-.057q-.483-.149-.8-.259t-.765-.294a4.857,4.857,0,0,1-.734-.369,5.594,5.594,0,0,1-.611-.457,2.328,2.328,0,0,1-.505-.584,3.214,3.214,0,0,1-.308-.729,3.174,3.174,0,0,1-.123-.9,3.272,3.272,0,0,1,1.182-2.659,4.944,4.944,0,0,1,3.063-1.05V-14h.976v1.169a6.324,6.324,0,0,1,1.881.453A4.152,4.152,0,0,1,10-11.294a3.776,3.776,0,0,1,.87,1.767l-2.54.633a1.989,1.989,0,0,0-1.705-1.767v3.12a.414.414,0,0,0,.066.022l.075.022q.51.149.839.259t.813.312a6.4,6.4,0,0,1,.8.391,5.474,5.474,0,0,1,.677.488,2.627,2.627,0,0,1,.567.633,3.422,3.422,0,0,1,.347.787A3.288,3.288,0,0,1,10.951-3.647ZM4.069-9.22a.971.971,0,0,0,.4.8,4.148,4.148,0,0,0,1.178.576V-10.7a2.153,2.153,0,0,0-1.147.453A1.263,1.263,0,0,0,4.069-9.22ZM6.627-1.986A2.08,2.08,0,0,0,7.8-2.443a1.309,1.309,0,0,0,.426-1.063,1.248,1.248,0,0,0-.417-.949,3.7,3.7,0,0,0-1.182-.659Zm14.52-.272h5.414V0H17.6V-1.907l5.054-5.159a3.18,3.18,0,0,0,1.1-2.188,1.548,1.548,0,0,0-.453-1.178,1.782,1.782,0,0,0-1.279-.431q-1.8,0-1.8,2.048v.94L17.7-8.13v-.633a3.961,3.961,0,0,1,1.16-3.054,4.443,4.443,0,0,1,3.146-1.077,4.655,4.655,0,0,1,3.063.976,3.288,3.288,0,0,1,1.182,2.681,3.8,3.8,0,0,1-.4,1.74,7.274,7.274,0,0,1-1.27,1.7ZM32.862.176a3.961,3.961,0,0,1-3.415-1.644,8.3,8.3,0,0,1-1.191-4.887,8.3,8.3,0,0,1,1.187-4.887,3.966,3.966,0,0,1,3.419-1.635,3.957,3.957,0,0,1,3.41,1.635,8.3,8.3,0,0,1,1.187,4.887,8.3,8.3,0,0,1-1.191,4.887A3.952,3.952,0,0,1,32.862.176Zm0-2.285a1.67,1.67,0,0,0,1.525-1.042,7.251,7.251,0,0,0,.541-3.2,7.2,7.2,0,0,0-.545-3.2A1.673,1.673,0,0,0,32.862-10.6q-2.074,0-2.074,4.245T32.862-2.109Zm8.446,5.344H39.5l1.1-5.748h2.6ZM49.518.176A3.961,3.961,0,0,1,46.1-1.468a8.3,8.3,0,0,1-1.191-4.887A8.3,8.3,0,0,1,46.1-11.241a3.966,3.966,0,0,1,3.419-1.635,3.957,3.957,0,0,1,3.41,1.635,8.3,8.3,0,0,1,1.187,4.887,8.3,8.3,0,0,1-1.191,4.887A3.952,3.952,0,0,1,49.518.176Zm0-2.285a1.67,1.67,0,0,0,1.525-1.042,7.251,7.251,0,0,0,.541-3.2,7.2,7.2,0,0,0-.545-3.2A1.673,1.673,0,0,0,49.518-10.6q-2.074,0-2.074,4.245T49.518-2.109ZM60.267.176a3.961,3.961,0,0,1-3.415-1.644,8.3,8.3,0,0,1-1.191-4.887,8.3,8.3,0,0,1,1.187-4.887,3.966,3.966,0,0,1,3.419-1.635,3.957,3.957,0,0,1,3.41,1.635,8.3,8.3,0,0,1,1.187,4.887,8.3,8.3,0,0,1-1.191,4.887A3.952,3.952,0,0,1,60.267.176Zm0-2.285a1.67,1.67,0,0,0,1.525-1.042,7.251,7.251,0,0,0,.541-3.2,7.2,7.2,0,0,0-.545-3.2A1.673,1.673,0,0,0,60.267-10.6q-2.074,0-2.074,4.245T60.267-2.109Z" transform="translate(522 4644)" fill="#00223d"/>
      <path id="Trazado_35218" data-name="Trazado 35218" d="M10.951-3.647A3.782,3.782,0,0,1,10.608-2,3.1,3.1,0,0,1,9.659-.831a4.659,4.659,0,0,1-1.371.7,6.688,6.688,0,0,1-1.661.3V1.406H5.651V.167A5.667,5.667,0,0,1,2.5-.91,3.9,3.9,0,0,1,.967-3.5l2.725-.633A2.372,2.372,0,0,0,4.32-2.707a2.421,2.421,0,0,0,1.332.686V-5.44q-.07-.026-.2-.066l-.193-.057q-.483-.149-.8-.259t-.765-.294a4.857,4.857,0,0,1-.734-.369,5.594,5.594,0,0,1-.611-.457,2.328,2.328,0,0,1-.505-.584,3.214,3.214,0,0,1-.308-.729,3.174,3.174,0,0,1-.123-.9,3.272,3.272,0,0,1,1.182-2.659,4.944,4.944,0,0,1,3.063-1.05V-14h.976v1.169a6.324,6.324,0,0,1,1.881.453A4.152,4.152,0,0,1,10-11.294a3.776,3.776,0,0,1,.87,1.767l-2.54.633a1.989,1.989,0,0,0-1.705-1.767v3.12a.414.414,0,0,0,.066.022l.075.022q.51.149.839.259t.813.312a6.4,6.4,0,0,1,.8.391,5.474,5.474,0,0,1,.677.488,2.627,2.627,0,0,1,.567.633,3.422,3.422,0,0,1,.347.787A3.288,3.288,0,0,1,10.951-3.647ZM4.069-9.22a.971.971,0,0,0,.4.8,4.148,4.148,0,0,0,1.178.576V-10.7a2.153,2.153,0,0,0-1.147.453A1.263,1.263,0,0,0,4.069-9.22ZM6.627-1.986A2.08,2.08,0,0,0,7.8-2.443a1.309,1.309,0,0,0,.426-1.063,1.248,1.248,0,0,0-.417-.949,3.7,3.7,0,0,0-1.182-.659Zm14.52-.272h5.414V0H17.6V-1.907l5.054-5.159a3.18,3.18,0,0,0,1.1-2.188,1.548,1.548,0,0,0-.453-1.178,1.782,1.782,0,0,0-1.279-.431q-1.8,0-1.8,2.048v.94L17.7-8.13v-.633a3.961,3.961,0,0,1,1.16-3.054,4.443,4.443,0,0,1,3.146-1.077,4.655,4.655,0,0,1,3.063.976,3.288,3.288,0,0,1,1.182,2.681,3.8,3.8,0,0,1-.4,1.74,7.274,7.274,0,0,1-1.27,1.7Zm10.749,0H37.31V0H28.354V-1.907l5.054-5.159a3.18,3.18,0,0,0,1.1-2.188,1.548,1.548,0,0,0-.453-1.178,1.782,1.782,0,0,0-1.279-.431q-1.8,0-1.8,2.048v.94L28.45-8.13v-.633a3.961,3.961,0,0,1,1.16-3.054,4.443,4.443,0,0,1,3.146-1.077,4.655,4.655,0,0,1,3.063.976A3.288,3.288,0,0,1,37-9.237a3.8,3.8,0,0,1-.4,1.74,7.274,7.274,0,0,1-1.27,1.7Zm9.413,5.493H39.5l1.1-5.748h2.6ZM49.518.176A3.961,3.961,0,0,1,46.1-1.468a8.3,8.3,0,0,1-1.191-4.887A8.3,8.3,0,0,1,46.1-11.241a3.966,3.966,0,0,1,3.419-1.635,3.957,3.957,0,0,1,3.41,1.635,8.3,8.3,0,0,1,1.187,4.887,8.3,8.3,0,0,1-1.191,4.887A3.952,3.952,0,0,1,49.518.176Zm0-2.285a1.67,1.67,0,0,0,1.525-1.042,7.251,7.251,0,0,0,.541-3.2,7.2,7.2,0,0,0-.545-3.2A1.673,1.673,0,0,0,49.518-10.6q-2.074,0-2.074,4.245T49.518-2.109ZM60.267.176a3.961,3.961,0,0,1-3.415-1.644,8.3,8.3,0,0,1-1.191-4.887,8.3,8.3,0,0,1,1.187-4.887,3.966,3.966,0,0,1,3.419-1.635,3.957,3.957,0,0,1,3.41,1.635,8.3,8.3,0,0,1,1.187,4.887,8.3,8.3,0,0,1-1.191,4.887A3.952,3.952,0,0,1,60.267.176Zm0-2.285a1.67,1.67,0,0,0,1.525-1.042,7.251,7.251,0,0,0,.541-3.2,7.2,7.2,0,0,0-.545-3.2A1.673,1.673,0,0,0,60.267-10.6q-2.074,0-2.074,4.245T60.267-2.109Z" transform="translate(522 4593)" fill="#00223d"/>
      <path id="Trazado_35219" data-name="Trazado 35219" d="M10.951-3.647A3.782,3.782,0,0,1,10.608-2,3.1,3.1,0,0,1,9.659-.831a4.659,4.659,0,0,1-1.371.7,6.688,6.688,0,0,1-1.661.3V1.406H5.651V.167A5.667,5.667,0,0,1,2.5-.91,3.9,3.9,0,0,1,.967-3.5l2.725-.633A2.372,2.372,0,0,0,4.32-2.707a2.421,2.421,0,0,0,1.332.686V-5.44q-.07-.026-.2-.066l-.193-.057q-.483-.149-.8-.259t-.765-.294a4.857,4.857,0,0,1-.734-.369,5.594,5.594,0,0,1-.611-.457,2.328,2.328,0,0,1-.505-.584,3.214,3.214,0,0,1-.308-.729,3.174,3.174,0,0,1-.123-.9,3.272,3.272,0,0,1,1.182-2.659,4.944,4.944,0,0,1,3.063-1.05V-14h.976v1.169a6.324,6.324,0,0,1,1.881.453A4.152,4.152,0,0,1,10-11.294a3.776,3.776,0,0,1,.87,1.767l-2.54.633a1.989,1.989,0,0,0-1.705-1.767v3.12a.414.414,0,0,0,.066.022l.075.022q.51.149.839.259t.813.312a6.4,6.4,0,0,1,.8.391,5.474,5.474,0,0,1,.677.488,2.627,2.627,0,0,1,.567.633,3.422,3.422,0,0,1,.347.787A3.288,3.288,0,0,1,10.951-3.647ZM4.069-9.22a.971.971,0,0,0,.4.8,4.148,4.148,0,0,0,1.178.576V-10.7a2.153,2.153,0,0,0-1.147.453A1.263,1.263,0,0,0,4.069-9.22ZM6.627-1.986A2.08,2.08,0,0,0,7.8-2.443a1.309,1.309,0,0,0,.426-1.063,1.248,1.248,0,0,0-.417-.949,3.7,3.7,0,0,0-1.182-.659Zm14.52-.272h5.414V0H17.6V-1.907l5.054-5.159a3.18,3.18,0,0,0,1.1-2.188,1.548,1.548,0,0,0-.453-1.178,1.782,1.782,0,0,0-1.279-.431q-1.8,0-1.8,2.048v.94L17.7-8.13v-.633a3.961,3.961,0,0,1,1.16-3.054,4.443,4.443,0,0,1,3.146-1.077,4.655,4.655,0,0,1,3.063.976,3.288,3.288,0,0,1,1.182,2.681,3.8,3.8,0,0,1-.4,1.74,7.274,7.274,0,0,1-1.27,1.7Zm16.62-2.408v2.259H36.237V0H33.706V-2.408H27.861V-4.676l4.5-8.024h3.876v8.033Zm-7.559,0h3.5V-11.18Zm11.1,7.9H39.5l1.1-5.748h2.6ZM49.518.176A3.961,3.961,0,0,1,46.1-1.468a8.3,8.3,0,0,1-1.191-4.887A8.3,8.3,0,0,1,46.1-11.241a3.966,3.966,0,0,1,3.419-1.635,3.957,3.957,0,0,1,3.41,1.635,8.3,8.3,0,0,1,1.187,4.887,8.3,8.3,0,0,1-1.191,4.887A3.952,3.952,0,0,1,49.518.176Zm0-2.285a1.67,1.67,0,0,0,1.525-1.042,7.251,7.251,0,0,0,.541-3.2,7.2,7.2,0,0,0-.545-3.2A1.673,1.673,0,0,0,49.518-10.6q-2.074,0-2.074,4.245T49.518-2.109ZM60.267.176a3.961,3.961,0,0,1-3.415-1.644,8.3,8.3,0,0,1-1.191-4.887,8.3,8.3,0,0,1,1.187-4.887,3.966,3.966,0,0,1,3.419-1.635,3.957,3.957,0,0,1,3.41,1.635,8.3,8.3,0,0,1,1.187,4.887,8.3,8.3,0,0,1-1.191,4.887A3.952,3.952,0,0,1,60.267.176Zm0-2.285a1.67,1.67,0,0,0,1.525-1.042,7.251,7.251,0,0,0,.541-3.2,7.2,7.2,0,0,0-.545-3.2A1.673,1.673,0,0,0,60.267-10.6q-2.074,0-2.074,4.245T60.267-2.109Z" transform="translate(522 4536)" fill="#00223d"/>
      <path id="Trazado_35220" data-name="Trazado 35220" d="M10.951-3.647A3.782,3.782,0,0,1,10.608-2,3.1,3.1,0,0,1,9.659-.831a4.659,4.659,0,0,1-1.371.7,6.688,6.688,0,0,1-1.661.3V1.406H5.651V.167A5.667,5.667,0,0,1,2.5-.91,3.9,3.9,0,0,1,.967-3.5l2.725-.633A2.372,2.372,0,0,0,4.32-2.707a2.421,2.421,0,0,0,1.332.686V-5.44q-.07-.026-.2-.066l-.193-.057q-.483-.149-.8-.259t-.765-.294a4.857,4.857,0,0,1-.734-.369,5.594,5.594,0,0,1-.611-.457,2.328,2.328,0,0,1-.505-.584,3.214,3.214,0,0,1-.308-.729,3.174,3.174,0,0,1-.123-.9,3.272,3.272,0,0,1,1.182-2.659,4.944,4.944,0,0,1,3.063-1.05V-14h.976v1.169a6.324,6.324,0,0,1,1.881.453A4.152,4.152,0,0,1,10-11.294a3.776,3.776,0,0,1,.87,1.767l-2.54.633a1.989,1.989,0,0,0-1.705-1.767v3.12a.414.414,0,0,0,.066.022l.075.022q.51.149.839.259t.813.312a6.4,6.4,0,0,1,.8.391,5.474,5.474,0,0,1,.677.488,2.627,2.627,0,0,1,.567.633,3.422,3.422,0,0,1,.347.787A3.288,3.288,0,0,1,10.951-3.647ZM4.069-9.22a.971.971,0,0,0,.4.8,4.148,4.148,0,0,0,1.178.576V-10.7a2.153,2.153,0,0,0-1.147.453A1.263,1.263,0,0,0,4.069-9.22ZM6.627-1.986A2.08,2.08,0,0,0,7.8-2.443a1.309,1.309,0,0,0,.426-1.063,1.248,1.248,0,0,0-.417-.949,3.7,3.7,0,0,0-1.182-.659Zm14.52-.272h5.414V0H17.6V-1.907l5.054-5.159a3.18,3.18,0,0,0,1.1-2.188,1.548,1.548,0,0,0-.453-1.178,1.782,1.782,0,0,0-1.279-.431q-1.8,0-1.8,2.048v.94L17.7-8.13v-.633a3.961,3.961,0,0,1,1.16-3.054,4.443,4.443,0,0,1,3.146-1.077,4.655,4.655,0,0,1,3.063.976,3.288,3.288,0,0,1,1.182,2.681,3.8,3.8,0,0,1-.4,1.74,7.274,7.274,0,0,1-1.27,1.7Zm16.374-2a4.14,4.14,0,0,1-.374,1.784,4.21,4.21,0,0,1-1.028,1.411,4.842,4.842,0,0,1-1.507.905,5,5,0,0,1-1.8.33,4.989,4.989,0,0,1-1.833-.338A4.513,4.513,0,0,1,29.492-1.1a4.308,4.308,0,0,1-.98-1.411,4.3,4.3,0,0,1-.36-1.745,5.278,5.278,0,0,1,1.125-3.1L33.231-12.7h2.874l-3.3,4.3a4.282,4.282,0,0,1,.58-.035,4.14,4.14,0,0,1,1.56.3,4.224,4.224,0,0,1,1.314.831,3.843,3.843,0,0,1,.91,1.323A4.443,4.443,0,0,1,37.521-4.263Zm-2.479-.062a2.17,2.17,0,0,0-.615-1.639A2.238,2.238,0,0,0,32.766-6.6a2.145,2.145,0,0,0-1.608.642,2.266,2.266,0,0,0-.642,1.6,2.173,2.173,0,0,0,.589,1.63,2.183,2.183,0,0,0,1.635.62,2.289,2.289,0,0,0,1.652-.615A2.145,2.145,0,0,0,35.042-4.324Zm6.267,7.559H39.5l1.1-5.748h2.6ZM49.518.176A3.961,3.961,0,0,1,46.1-1.468a8.3,8.3,0,0,1-1.191-4.887A8.3,8.3,0,0,1,46.1-11.241a3.966,3.966,0,0,1,3.419-1.635,3.957,3.957,0,0,1,3.41,1.635,8.3,8.3,0,0,1,1.187,4.887,8.3,8.3,0,0,1-1.191,4.887A3.952,3.952,0,0,1,49.518.176Zm0-2.285a1.67,1.67,0,0,0,1.525-1.042,7.251,7.251,0,0,0,.541-3.2,7.2,7.2,0,0,0-.545-3.2A1.673,1.673,0,0,0,49.518-10.6q-2.074,0-2.074,4.245T49.518-2.109ZM60.267.176a3.961,3.961,0,0,1-3.415-1.644,8.3,8.3,0,0,1-1.191-4.887,8.3,8.3,0,0,1,1.187-4.887,3.966,3.966,0,0,1,3.419-1.635,3.957,3.957,0,0,1,3.41,1.635,8.3,8.3,0,0,1,1.187,4.887,8.3,8.3,0,0,1-1.191,4.887A3.952,3.952,0,0,1,60.267.176Zm0-2.285a1.67,1.67,0,0,0,1.525-1.042,7.251,7.251,0,0,0,.541-3.2,7.2,7.2,0,0,0-.545-3.2A1.673,1.673,0,0,0,60.267-10.6q-2.074,0-2.074,4.245T60.267-2.109Z" transform="translate(522 4475)" fill="#00223d"/>
      <path id="Trazado_35221" data-name="Trazado 35221" d="M10.951-3.647A3.782,3.782,0,0,1,10.608-2,3.1,3.1,0,0,1,9.659-.831a4.659,4.659,0,0,1-1.371.7,6.688,6.688,0,0,1-1.661.3V1.406H5.651V.167A5.667,5.667,0,0,1,2.5-.91,3.9,3.9,0,0,1,.967-3.5l2.725-.633A2.372,2.372,0,0,0,4.32-2.707a2.421,2.421,0,0,0,1.332.686V-5.44q-.07-.026-.2-.066l-.193-.057q-.483-.149-.8-.259t-.765-.294a4.857,4.857,0,0,1-.734-.369,5.594,5.594,0,0,1-.611-.457,2.328,2.328,0,0,1-.505-.584,3.214,3.214,0,0,1-.308-.729,3.174,3.174,0,0,1-.123-.9,3.272,3.272,0,0,1,1.182-2.659,4.944,4.944,0,0,1,3.063-1.05V-14h.976v1.169a6.324,6.324,0,0,1,1.881.453A4.152,4.152,0,0,1,10-11.294a3.776,3.776,0,0,1,.87,1.767l-2.54.633a1.989,1.989,0,0,0-1.705-1.767v3.12a.414.414,0,0,0,.066.022l.075.022q.51.149.839.259t.813.312a6.4,6.4,0,0,1,.8.391,5.474,5.474,0,0,1,.677.488,2.627,2.627,0,0,1,.567.633,3.422,3.422,0,0,1,.347.787A3.288,3.288,0,0,1,10.951-3.647ZM4.069-9.22a.971.971,0,0,0,.4.8,4.148,4.148,0,0,0,1.178.576V-10.7a2.153,2.153,0,0,0-1.147.453A1.263,1.263,0,0,0,4.069-9.22ZM6.627-1.986A2.08,2.08,0,0,0,7.8-2.443a1.309,1.309,0,0,0,.426-1.063,1.248,1.248,0,0,0-.417-.949,3.7,3.7,0,0,0-1.182-.659Zm14.52-.272h5.414V0H17.6V-1.907l5.054-5.159a3.18,3.18,0,0,0,1.1-2.188,1.548,1.548,0,0,0-.453-1.178,1.782,1.782,0,0,0-1.279-.431q-1.8,0-1.8,2.048v.94L17.7-8.13v-.633a3.961,3.961,0,0,1,1.16-3.054,4.443,4.443,0,0,1,3.146-1.077,4.655,4.655,0,0,1,3.063.976,3.288,3.288,0,0,1,1.182,2.681,3.8,3.8,0,0,1-.4,1.74,7.274,7.274,0,0,1-1.27,1.7ZM32.871.176A5.082,5.082,0,0,1,29.553-.888a3.494,3.494,0,0,1-1.305-2.856,3.559,3.559,0,0,1,.532-1.947A3.644,3.644,0,0,1,30.252-7,3.217,3.217,0,0,1,29.2-8.086a2.792,2.792,0,0,1-.382-1.441,2.979,2.979,0,0,1,1.134-2.421,4.46,4.46,0,0,1,2.918-.927,4.387,4.387,0,0,1,2.878.927,2.983,2.983,0,0,1,1.129,2.421A2.845,2.845,0,0,1,36.51-8.09,3.244,3.244,0,0,1,35.49-7a3.626,3.626,0,0,1,1.459,1.314,3.582,3.582,0,0,1,.527,1.947,3.649,3.649,0,0,1-.606,2.087A3.817,3.817,0,0,1,35.222-.29,5.7,5.7,0,0,1,32.871.176Zm0-7.919a1.689,1.689,0,0,0,1.2-.475,1.537,1.537,0,0,0,.5-1.16,1.5,1.5,0,0,0-.5-1.143,1.706,1.706,0,0,0-1.2-.466,1.713,1.713,0,0,0-1.217.466,1.506,1.506,0,0,0-.5,1.143,1.539,1.539,0,0,0,.5,1.165A1.7,1.7,0,0,0,32.871-7.743Zm0,5.651a2.122,2.122,0,0,0,1.485-.536,1.854,1.854,0,0,0,.589-1.441,1.8,1.8,0,0,0-.593-1.411,2.137,2.137,0,0,0-1.481-.532,2.161,2.161,0,0,0-1.5.532,1.8,1.8,0,0,0-.593,1.411,1.847,1.847,0,0,0,.593,1.441A2.15,2.15,0,0,0,32.871-2.092Zm8.438,5.326H39.5l1.1-5.748h2.6ZM49.518.176A3.961,3.961,0,0,1,46.1-1.468a8.3,8.3,0,0,1-1.191-4.887A8.3,8.3,0,0,1,46.1-11.241a3.966,3.966,0,0,1,3.419-1.635,3.957,3.957,0,0,1,3.41,1.635,8.3,8.3,0,0,1,1.187,4.887,8.3,8.3,0,0,1-1.191,4.887A3.952,3.952,0,0,1,49.518.176Zm0-2.285a1.67,1.67,0,0,0,1.525-1.042,7.251,7.251,0,0,0,.541-3.2,7.2,7.2,0,0,0-.545-3.2A1.673,1.673,0,0,0,49.518-10.6q-2.074,0-2.074,4.245T49.518-2.109ZM60.267.176a3.961,3.961,0,0,1-3.415-1.644,8.3,8.3,0,0,1-1.191-4.887,8.3,8.3,0,0,1,1.187-4.887,3.966,3.966,0,0,1,3.419-1.635,3.957,3.957,0,0,1,3.41,1.635,8.3,8.3,0,0,1,1.187,4.887,8.3,8.3,0,0,1-1.191,4.887A3.952,3.952,0,0,1,60.267.176Zm0-2.285a1.67,1.67,0,0,0,1.525-1.042,7.251,7.251,0,0,0,.541-3.2,7.2,7.2,0,0,0-.545-3.2A1.673,1.673,0,0,0,60.267-10.6q-2.074,0-2.074,4.245T60.267-2.109Z" transform="translate(522 4420)" fill="#00223d"/>
      <path id="Trazado_34075" data-name="Trazado 34075" d="M6255.836,1924.586v19.352" transform="translate(-5172 2999)" fill="none" stroke="#472ea6" stroke-width="1"/>
      <path id="Trazado_35222" data-name="Trazado 35222" d="M5.027-12.7H7.436V0H4.913V-10.1L2-7.383v-2.6Zm11.118-.167a4.911,4.911,0,0,1,2.369.576A4.333,4.333,0,0,1,20.2-10.7a4.265,4.265,0,0,1,.615,2.254,5.189,5.189,0,0,1-1.134,3.094L15.724,0H12.841l3.287-4.3a4.208,4.208,0,0,1-.571.035,4.155,4.155,0,0,1-2.013-.505A3.968,3.968,0,0,1,12.028-6.24a4.163,4.163,0,0,1-.584-2.2,4.072,4.072,0,0,1,1.38-3.168A4.772,4.772,0,0,1,16.146-12.867ZM18.431-8.35a2.17,2.17,0,0,0-.584-1.622,2.168,2.168,0,0,0-1.63-.62,2.284,2.284,0,0,0-1.648.62,2.141,2.141,0,0,0-.655,1.6,2.172,2.172,0,0,0,.615,1.635,2.229,2.229,0,0,0,1.661.642A2.127,2.127,0,0,0,17.8-6.741,2.3,2.3,0,0,0,18.431-8.35ZM24.39.176A1.386,1.386,0,0,1,23.375-.25a1.386,1.386,0,0,1-.426-1.015,1.411,1.411,0,0,1,.426-1.028,1.379,1.379,0,0,1,1.015-.431,1.4,1.4,0,0,1,1.028.431,1.4,1.4,0,0,1,.431,1.028A1.379,1.379,0,0,1,25.418-.25,1.411,1.411,0,0,1,24.39.176Zm8.306,0A5.082,5.082,0,0,1,29.377-.888a3.494,3.494,0,0,1-1.305-2.856A3.559,3.559,0,0,1,28.6-5.691,3.644,3.644,0,0,1,30.076-7a3.217,3.217,0,0,1-1.05-1.081,2.792,2.792,0,0,1-.382-1.441,2.979,2.979,0,0,1,1.134-2.421,4.46,4.46,0,0,1,2.918-.927,4.387,4.387,0,0,1,2.878.927A2.983,2.983,0,0,1,36.7-9.527a2.845,2.845,0,0,1-.369,1.437A3.244,3.244,0,0,1,35.314-7a3.626,3.626,0,0,1,1.459,1.314A3.582,3.582,0,0,1,37.3-3.744a3.649,3.649,0,0,1-.606,2.087A3.817,3.817,0,0,1,35.046-.29,5.7,5.7,0,0,1,32.7.176Zm0-7.919a1.689,1.689,0,0,0,1.2-.475,1.537,1.537,0,0,0,.5-1.16,1.5,1.5,0,0,0-.5-1.143,1.706,1.706,0,0,0-1.2-.466,1.713,1.713,0,0,0-1.217.466,1.506,1.506,0,0,0-.5,1.143,1.539,1.539,0,0,0,.5,1.165A1.7,1.7,0,0,0,32.7-7.743Zm0,5.651a2.122,2.122,0,0,0,1.485-.536,1.854,1.854,0,0,0,.589-1.441,1.8,1.8,0,0,0-.593-1.411A2.137,2.137,0,0,0,32.7-6.012a2.161,2.161,0,0,0-1.5.532A1.8,1.8,0,0,0,30.6-4.069,1.847,1.847,0,0,0,31.2-2.628,2.15,2.15,0,0,0,32.7-2.092Z" transform="translate(1068 4970)" fill="#00223d"/>
      <path id="Trazado_34076" data-name="Trazado 34076" d="M6255.836,1924.586v19.352" transform="translate(-5064 2999)" fill="none" stroke="#472ea6" stroke-width="1"/>
      <path id="Trazado_35223" data-name="Trazado 35223" d="M4.421-2.259H9.835V0H.879V-1.907L5.933-7.066a3.18,3.18,0,0,0,1.1-2.188,1.548,1.548,0,0,0-.453-1.178A1.782,1.782,0,0,0,5.3-10.863q-1.8,0-1.8,2.048v.94L.976-8.13v-.633a3.961,3.961,0,0,1,1.16-3.054,4.443,4.443,0,0,1,3.146-1.077,4.655,4.655,0,0,1,3.063.976A3.288,3.288,0,0,1,9.527-9.237a3.8,3.8,0,0,1-.4,1.74,7.274,7.274,0,0,1-1.27,1.7ZM16.1.176a4.557,4.557,0,0,1-3.463-1.16,5.031,5.031,0,0,1-1.09-3.551l2.593-.114a9.181,9.181,0,0,0,.04.932A3.22,3.22,0,0,0,14.339-3a1.29,1.29,0,0,0,.334.541,1.517,1.517,0,0,0,.571.312,2.823,2.823,0,0,0,.857.114,2.059,2.059,0,0,0,1.5-.51,1.782,1.782,0,0,0,.523-1.336,1.8,1.8,0,0,0-.5-1.375,1.885,1.885,0,0,0-1.345-.47h-.492V-7.69h.457a1.374,1.374,0,0,0,1.05-.448,1.6,1.6,0,0,0,.417-1.134,1.278,1.278,0,0,0-.457-1.055,1.858,1.858,0,0,0-1.2-.369,1.8,1.8,0,0,0-.686.119,1.279,1.279,0,0,0-.461.3,1.341,1.341,0,0,0-.272.466,2.448,2.448,0,0,0-.132.554,5.529,5.529,0,0,0-.031.615l-2.558-.123A4.066,4.066,0,0,1,13-11.817a4.156,4.156,0,0,1,3.023-1.059,4.322,4.322,0,0,1,2.9.971,3.042,3.042,0,0,1,1.143,2.413,2.746,2.746,0,0,1-.488,1.635,2.793,2.793,0,0,1-1.112.967,3.13,3.13,0,0,1,.809.36,3.315,3.315,0,0,1,.708.606A2.706,2.706,0,0,1,20.5-5a3.713,3.713,0,0,1,.193,1.23A3.589,3.589,0,0,1,19.441-.9,4.958,4.958,0,0,1,16.1.176Z" transform="translate(1182 4970)" fill="#00223d"/>
      <path id="Trazado_34077" data-name="Trazado 34077" d="M6247.677,3443h455.159v273.51" transform="translate(-5619 1195)" fill="none" stroke="#fd8f25" stroke-width="2" stroke-dasharray="6"/>
      <path id="Trazado_34078" data-name="Trazado 34078" d="M6632.836,3719V3445.828" transform="translate(-5619 1195)" fill="none" stroke="#fd8f25" stroke-width="2" stroke-dasharray="6"/>
      <path id="Trazado_34079" data-name="Trazado 34079" d="M6632.836,3719V3445.828" transform="translate(-5703 1195)" fill="none" stroke="#fd8f25" stroke-width="2" stroke-dasharray="6"/>
      <path id="Trazado_35224" data-name="Trazado 35224" d="M7.269.176A7.089,7.089,0,0,1,4.68-.29a6.087,6.087,0,0,1-2.061-1.3A5.864,5.864,0,0,1,1.266-3.656a7.2,7.2,0,0,1-.492-2.7A6.879,6.879,0,0,1,1.617-9.8a5.744,5.744,0,0,1,2.316-2.281,6.935,6.935,0,0,1,3.335-.791A6.739,6.739,0,0,1,11-11.848a5.629,5.629,0,0,1,2.276,2.83l-2.461.9A3.479,3.479,0,0,0,9.448-9.835a3.891,3.891,0,0,0-2.18-.615A3.73,3.73,0,0,0,4.491-9.343,4.075,4.075,0,0,0,3.4-6.354,4.081,4.081,0,0,0,4.5-3.362,3.726,3.726,0,0,0,7.269-2.25a3.876,3.876,0,0,0,2.175-.62,3.5,3.5,0,0,0,1.367-1.718l2.461.9A5.652,5.652,0,0,1,11-.857,6.718,6.718,0,0,1,7.269.176Zm15.24-2.628a8.453,8.453,0,0,0,.22,2.206V0H20.364l-.2-.984a2.938,2.938,0,0,1-1.266.87,4.664,4.664,0,0,1-1.635.29A4.3,4.3,0,0,1,16.418.1a2.868,2.868,0,0,1-.76-.268,2.307,2.307,0,0,1-.628-.47,2.062,2.062,0,0,1-.422-.716,2.853,2.853,0,0,1-.158-.98,2.718,2.718,0,0,1,.167-.98,2.3,2.3,0,0,1,.439-.734,2.666,2.666,0,0,1,.712-.536,5.447,5.447,0,0,1,.9-.387,10.712,10.712,0,0,1,1.072-.281l1.485-.334a1.638,1.638,0,0,0,.672-.286.57.57,0,0,0,.2-.453.932.932,0,0,0-.444-.87,2.072,2.072,0,0,0-1.077-.264A1.549,1.549,0,0,0,16.8-6.082l-2.241-.4a3.034,3.034,0,0,1,1.31-2.061,5.2,5.2,0,0,1,2.839-.664q3.8,0,3.8,3.261Zm-4.456.914a2.036,2.036,0,0,0,1.564-.655,2.759,2.759,0,0,0,.606-1.938l-2.145.606a2.534,2.534,0,0,0-.9.369.758.758,0,0,0-.312.65.842.842,0,0,0,.334.716A1.382,1.382,0,0,0,18.053-1.538ZM30.3-9.211a3.522,3.522,0,0,1,2.5.813,3.014,3.014,0,0,1,.87,2.316V0h-2.54V-5.537a1.574,1.574,0,0,0-.453-1.248,1.705,1.705,0,0,0-1.165-.4,2.379,2.379,0,0,0-.756.114,1.942,1.942,0,0,0-.633.356,1.573,1.573,0,0,0-.453.681A3.15,3.15,0,0,0,27.5-4.983V0H24.97V-9.035H27.5v1A3.481,3.481,0,0,1,30.3-9.211ZM39.489,0A2.729,2.729,0,0,1,37.45-.734a2.854,2.854,0,0,1-.721-2.087V-7.093H34.954V-9.035h.571a1.491,1.491,0,0,0,1.125-.378,1.946,1.946,0,0,0,.36-1.345v-1.2H39.3v2.918h1.863v1.942H39.3v4q0,1.169,1.046,1.169h.817V0Zm4.922-10.389a1.421,1.421,0,0,1-1.037-.426,1.4,1.4,0,0,1-.431-1.033,1.382,1.382,0,0,1,.435-1.024,1.425,1.425,0,0,1,1.033-.426,1.4,1.4,0,0,1,1.02.426,1.389,1.389,0,0,1,.431,1.024,1.4,1.4,0,0,1-.431,1.033A1.4,1.4,0,0,1,44.411-10.389ZM43.119,0V-9.035h2.549V0ZM54.694-13.5h2.531V0h-2.4l-.062-1.178A2.58,2.58,0,0,1,53.618-.154a3.861,3.861,0,0,1-1.692.365,4.394,4.394,0,0,1-1.687-.325,4.189,4.189,0,0,1-1.384-.918,4.187,4.187,0,0,1-.936-1.49A5.5,5.5,0,0,1,47.575-4.5a5.137,5.137,0,0,1,.6-2.518A4.1,4.1,0,0,1,49.75-8.657a4.345,4.345,0,0,1,2.175-.554,3.957,3.957,0,0,1,1.639.33,2.559,2.559,0,0,1,1.129.936ZM52.506-1.89a2.253,2.253,0,0,0,1.709-.721A2.638,2.638,0,0,0,54.9-4.5a2.644,2.644,0,0,0-.686-1.894,2.251,2.251,0,0,0-1.705-.725,2.277,2.277,0,0,0-1.718.712A2.644,2.644,0,0,0,50.106-4.5a2.631,2.631,0,0,0,.681,1.9A2.277,2.277,0,0,0,52.506-1.89Zm14.748-.562a8.453,8.453,0,0,0,.22,2.206V0H65.109l-.2-.984a2.938,2.938,0,0,1-1.266.87,4.664,4.664,0,0,1-1.635.29A4.3,4.3,0,0,1,61.163.1a2.868,2.868,0,0,1-.76-.268,2.307,2.307,0,0,1-.628-.47,2.062,2.062,0,0,1-.422-.716,2.853,2.853,0,0,1-.158-.98,2.718,2.718,0,0,1,.167-.98,2.3,2.3,0,0,1,.439-.734,2.666,2.666,0,0,1,.712-.536,5.447,5.447,0,0,1,.9-.387,10.712,10.712,0,0,1,1.072-.281l1.485-.334a1.638,1.638,0,0,0,.672-.286.57.57,0,0,0,.2-.453.932.932,0,0,0-.444-.87,2.072,2.072,0,0,0-1.077-.264,1.549,1.549,0,0,0-1.767,1.38l-2.241-.4a3.034,3.034,0,0,1,1.31-2.061,5.2,5.2,0,0,1,2.839-.664q3.8,0,3.8,3.261ZM62.8-1.538a2.036,2.036,0,0,0,1.564-.655,2.759,2.759,0,0,0,.606-1.938l-2.145.606a2.534,2.534,0,0,0-.9.369.758.758,0,0,0-.312.65.842.842,0,0,0,.334.716A1.382,1.382,0,0,0,62.8-1.538ZM75.92-13.5h2.531V0h-2.4L75.99-1.178A2.58,2.58,0,0,1,74.843-.154a3.861,3.861,0,0,1-1.692.365,4.394,4.394,0,0,1-1.687-.325,4.189,4.189,0,0,1-1.384-.918,4.187,4.187,0,0,1-.936-1.49A5.5,5.5,0,0,1,68.8-4.5a5.137,5.137,0,0,1,.6-2.518,4.1,4.1,0,0,1,1.578-1.639,4.345,4.345,0,0,1,2.175-.554,3.957,3.957,0,0,1,1.639.33,2.559,2.559,0,0,1,1.129.936ZM73.731-1.89a2.253,2.253,0,0,0,1.709-.721,2.638,2.638,0,0,0,.681-1.89,2.644,2.644,0,0,0-.686-1.894,2.251,2.251,0,0,0-1.705-.725,2.277,2.277,0,0,0-1.718.712A2.644,2.644,0,0,0,71.332-4.5a2.631,2.631,0,0,0,.681,1.9A2.277,2.277,0,0,0,73.731-1.89Z" transform="translate(945 5034)" fill="#00223d"/>
      <path id="Trazado_35225" data-name="Trazado 35225" d="M6.926-12.7a3.822,3.822,0,0,1,2.927,1.182A4.112,4.112,0,0,1,10.96-8.6a4.011,4.011,0,0,1-1.1,2.9A3.891,3.891,0,0,1,6.926-4.553H4.28V0H1.644V-12.7ZM6.486-6.759a1.938,1.938,0,0,0,1.45-.5A1.888,1.888,0,0,0,8.42-8.631a1.873,1.873,0,0,0-.488-1.358,1.92,1.92,0,0,0-1.446-.505H4.28v3.735Zm8.78-.844a2.933,2.933,0,0,1,1.187-1.085,3.62,3.62,0,0,1,1.767-.453v2.259a3.423,3.423,0,0,0-2.162.545A2.379,2.379,0,0,0,15.39-4.4V0H12.841V-9.035h2.426ZM28.151-4.649l-.026.606h-6.7a2.339,2.339,0,0,0,.721,1.652,2.3,2.3,0,0,0,1.591.571,2.221,2.221,0,0,0,1.191-.312,1.918,1.918,0,0,0,.76-.91l2.32.343A3.945,3.945,0,0,1,26.429-.58a4.7,4.7,0,0,1-2.672.756,4.891,4.891,0,0,1-3.52-1.244,4.538,4.538,0,0,1-1.305-3.45,4.565,4.565,0,0,1,1.31-3.45,4.746,4.746,0,0,1,3.437-1.261,4.536,4.536,0,0,1,3.243,1.151A4.517,4.517,0,0,1,28.151-4.649ZM23.7-7.436A2,2,0,0,0,21.5-5.7h4.148a1.9,1.9,0,0,0-.624-1.292A1.978,1.978,0,0,0,23.7-7.436ZM34.163.167a4.827,4.827,0,0,1-3.489-1.3A4.493,4.493,0,0,1,29.32-4.526a4.483,4.483,0,0,1,1.349-3.393,4.842,4.842,0,0,1,3.494-1.292,4.814,4.814,0,0,1,2.927.87A3.885,3.885,0,0,1,38.6-5.889l-2.338.255a2,2,0,0,0-.756-1.187,2.3,2.3,0,0,0-1.371-.4,2.072,2.072,0,0,0-1.652.738,2.894,2.894,0,0,0-.633,1.951,2.9,2.9,0,0,0,.633,1.947,2.067,2.067,0,0,0,1.652.743,2.278,2.278,0,0,0,1.367-.4,2.05,2.05,0,0,0,.76-1.187l2.338.255A3.9,3.9,0,0,1,37.077-.712,4.8,4.8,0,0,1,34.163.167ZM41.7-10.389a1.421,1.421,0,0,1-1.037-.426,1.4,1.4,0,0,1-.431-1.033,1.382,1.382,0,0,1,.435-1.024A1.425,1.425,0,0,1,41.7-13.3a1.4,1.4,0,0,1,1.02.426,1.389,1.389,0,0,1,.431,1.024,1.4,1.4,0,0,1-.431,1.033A1.4,1.4,0,0,1,41.7-10.389ZM40.4,0V-9.035h2.549V0Zm9.378.176a5.681,5.681,0,0,1-2.558-.554A4.138,4.138,0,0,1,45.47-2a4.846,4.846,0,0,1-.637-2.522A4.42,4.42,0,0,1,46.2-7.954a5.086,5.086,0,0,1,3.577-1.257,5.1,5.1,0,0,1,3.586,1.257,4.42,4.42,0,0,1,1.371,3.428,4.444,4.444,0,0,1-1.371,3.441A5.088,5.088,0,0,1,49.781.176Zm-.026-2.013a2.319,2.319,0,0,0,1.789-.738,2.764,2.764,0,0,0,.681-1.951,2.764,2.764,0,0,0-.681-1.951,2.319,2.319,0,0,0-1.789-.738,2.234,2.234,0,0,0-1.736.743,2.789,2.789,0,0,0-.672,1.947,2.789,2.789,0,0,0,.672,1.947A2.234,2.234,0,0,0,49.755-1.837Z" transform="translate(477.5 4704.5) rotate(-90)" fill="#00223d"/>
      <path id="Trazado_34080" data-name="Trazado 34080" d="M6530,2779.945l105.711-68.039,91.7-56.344,68.234-60.594,32.406-64.766,26.766-58.8" transform="translate(-5789 1977)" fill="none" stroke="#472ea6" stroke-width="2"/>
      <path id="Trazado_35226" data-name="Trazado 35226" d="M5.5,0A5.5,5.5,0,1,1,0,5.5,5.5,5.5,0,0,1,5.5,0Z" transform="translate(736 4751)" fill="#472ea6"/>
      <path id="Trazado_35227" data-name="Trazado 35227" d="M5.5,0A5.5,5.5,0,1,1,0,5.5,5.5,5.5,0,0,1,5.5,0Z" transform="translate(835 4688)" fill="#472ea6"/>
      <path id="Trazado_35228" data-name="Trazado 35228" d="M5.5,0A5.5,5.5,0,1,1,0,5.5,5.5,5.5,0,0,1,5.5,0Z" transform="translate(924 4633)" fill="#472ea6"/>
      <path id="Trazado_35229" data-name="Trazado 35229" d="M5.5,0A5.5,5.5,0,1,1,0,5.5,5.5,5.5,0,0,1,5.5,0Z" transform="translate(998 4570)" fill="#472ea6"/>
      <path id="Trazado_35230" data-name="Trazado 35230" d="M5.5,0A5.5,5.5,0,1,1,0,5.5,5.5,5.5,0,0,1,5.5,0Z" transform="translate(1036 4500)" fill="#472ea6"/>
      <path id="Trazado_35231" data-name="Trazado 35231" d="M5.5,0A5.5,5.5,0,1,1,0,5.5,5.5,5.5,0,0,1,5.5,0Z" transform="translate(1060 4443)" fill="#472ea6"/>
      <path id="Trazado_34081" data-name="Trazado 34081" d="M6589.828,2786.182l94.307-68.828,92.844-55.375,63.083-63.12,31.609-65.755,32.594-63.464" transform="translate(-5763 1976)" fill="none" stroke="#472ea6" stroke-width="2"/>
      <path id="Trazado_35232" data-name="Trazado 35232" d="M5.5,0A5.5,5.5,0,1,1,0,5.5,5.5,5.5,0,0,1,5.5,0Z" transform="translate(821 4757)" fill="#472ea6"/>
      <path id="Trazado_35233" data-name="Trazado 35233" d="M5.5,0A5.5,5.5,0,1,1,0,5.5,5.5,5.5,0,0,1,5.5,0Z" transform="translate(1071 4570)" fill="#472ea6"/>
      <path id="Trazado_35234" data-name="Trazado 35234" d="M5.5,0A5.5,5.5,0,1,1,0,5.5,5.5,5.5,0,0,1,5.5,0Z" transform="translate(1101 4506)" fill="#472ea6"/>
      <path id="Trazado_35235" data-name="Trazado 35235" d="M5.5,0A5.5,5.5,0,1,1,0,5.5,5.5,5.5,0,0,1,5.5,0Z" transform="translate(1136 4440)" fill="#472ea6"/>
      <path id="Trazado_35236" data-name="Trazado 35236" d="M5.5,0A5.5,5.5,0,1,1,0,5.5,5.5,5.5,0,0,1,5.5,0Z" transform="translate(882 4712)" fill="#472ea6"/>
      <path id="Trazado_35237" data-name="Trazado 35237" d="M5.5,0A5.5,5.5,0,1,1,0,5.5,5.5,5.5,0,0,1,5.5,0Z" transform="translate(1008 4633)" fill="#472ea6"/>
      <path id="Trazado_34082" data-name="Trazado 34082" d="M6627,2785.234l102.734-66.984,102.354-61.341,71.62-59.576,33.984-62.151,37.557-60.844" transform="translate(-5745 1980)" fill="none" stroke="#472ea6" stroke-width="2"/>
      <path id="Trazado_35238" data-name="Trazado 35238" d="M5.5,0A5.5,5.5,0,1,1,0,5.5,5.5,5.5,0,0,1,5.5,0Z" transform="translate(1078 4633)" fill="#472ea6"/>
      <path id="Trazado_35239" data-name="Trazado 35239" d="M5.5,0A5.5,5.5,0,1,1,0,5.5,5.5,5.5,0,0,1,5.5,0Z" transform="translate(875 4762)" fill="#472ea6"/>
      <path id="Trazado_35240" data-name="Trazado 35240" d="M5.5,0A5.5,5.5,0,1,1,0,5.5,5.5,5.5,0,0,1,5.5,0Z" transform="translate(924 4729)" fill="#472ea6"/>
      <path id="Trazado_35241" data-name="Trazado 35241" d="M5.5,0A5.5,5.5,0,1,1,0,5.5,5.5,5.5,0,0,1,5.5,0Z" transform="translate(1150 4575)" fill="#472ea6"/>
      <path id="Trazado_35242" data-name="Trazado 35242" d="M5.5,0A5.5,5.5,0,1,1,0,5.5,5.5,5.5,0,0,1,5.5,0Z" transform="translate(1187 4511)" fill="#472ea6"/>
      <path id="Trazado_35243" data-name="Trazado 35243" d="M5.5,0A5.5,5.5,0,1,1,0,5.5,5.5,5.5,0,0,1,5.5,0Z" transform="translate(1225 4448)" fill="#472ea6"/>
      <path id="Trazado_34083" data-name="Trazado 34083" d="M6419.344,3375h85.438l50.177,50.177" transform="translate(-5641 1200)" fill="none" stroke="#101010" stroke-width="1"/>
      <path id="Trazado_35244" data-name="Trazado 35244" d="M5,0l5,9H0Z" transform="translate(923.718 4628.146) rotate(135)" fill="#404040"/>
      <path id="Trazado_34084" data-name="Trazado 34084" d="M6397.344,3316h77.693l118.33,118.329" transform="translate(-5591 1195)" fill="none" stroke="#707070" stroke-width="1"/>
      <path id="Trazado_35245" data-name="Trazado 35245" d="M5,0l5,9H0Z" transform="translate(1011.718 4631.146) rotate(135)" fill="#404040"/>
      <path id="Trazado_34085" data-name="Trazado 34085" d="M6434.713,3253h76.948l190.874,184.2" transform="translate(-5628.37 1195)" fill="none" stroke="#707070" stroke-width="1"/>
      <path id="Trazado_35246" data-name="Trazado 35246" d="M5,0l5,9H0Z" transform="translate(1080.718 4631.146) rotate(135)" fill="#404040"/>
      <path id="Trazado_35247" data-name="Trazado 35247" d="M6.627-12.375a3.664,3.664,0,0,1,1.938.514,3.473,3.473,0,0,1,1.3,1.375,4.036,4.036,0,0,1,.453,1.907A3.755,3.755,0,0,1,9.294-5.884,3.514,3.514,0,0,1,6.627-4.808H3.516V0H1.942V-12.375ZM6.4-6.179a2.25,2.25,0,0,0,1.723-.664A2.455,2.455,0,0,0,8.745-8.6a2.463,2.463,0,0,0-.624-1.745A2.234,2.234,0,0,0,6.4-11.013H3.516v4.834Zm7.058-1.063V-8.49h6.715v1.248Zm0,3.595V-4.9h6.715v1.248ZM25.55-1.4h6.161V0h-8.35V-1.151l4.957-5.124a5.872,5.872,0,0,0,1.116-1.468,2.928,2.928,0,0,0,.308-1.274,2.136,2.136,0,0,0-.624-1.639,2.27,2.27,0,0,0-1.617-.584,2.269,2.269,0,0,0-1.692.637,2.741,2.741,0,0,0-.628,1.991V-7.7L23.66-7.84V-8.6a3.912,3.912,0,0,1,1.046-2.94A3.842,3.842,0,0,1,27.5-12.56a3.873,3.873,0,0,1,2.685.94,3.27,3.27,0,0,1,1.05,2.566,3.892,3.892,0,0,1-.417,1.789,7.689,7.689,0,0,1-1.34,1.78ZM37.688.167a3.447,3.447,0,0,1-3.05-1.617A8.623,8.623,0,0,1,33.565-6.2a8.662,8.662,0,0,1,1.059-4.737,3.444,3.444,0,0,1,3.063-1.608,3.436,3.436,0,0,1,3.05,1.613A8.637,8.637,0,0,1,41.8-6.2a8.6,8.6,0,0,1-1.077,4.742A3.44,3.44,0,0,1,37.688.167Zm0-1.406a2.093,2.093,0,0,0,1.925-1.239A8.08,8.08,0,0,0,40.28-6.2,7.851,7.851,0,0,0,39.6-9.91a2.105,2.105,0,0,0-1.912-1.217,2.1,2.1,0,0,0-1.916,1.213A7.891,7.891,0,0,0,35.095-6.2a8.122,8.122,0,0,0,.664,3.722A2.091,2.091,0,0,0,37.688-1.239ZM44.376.176a.987.987,0,0,1-.716-.3.975.975,0,0,1-.3-.721.979.979,0,0,1,.3-.716.979.979,0,0,1,.716-.3.994.994,0,0,1,.721.3.973.973,0,0,1,.308.716.975.975,0,0,1-.3.721A1,1,0,0,1,44.376.176Zm7.98-.009a3.447,3.447,0,0,1-3.05-1.617A8.623,8.623,0,0,1,48.234-6.2a8.662,8.662,0,0,1,1.059-4.737,3.444,3.444,0,0,1,3.063-1.608,3.436,3.436,0,0,1,3.05,1.613A8.637,8.637,0,0,1,56.47-6.2a8.6,8.6,0,0,1-1.077,4.742A3.44,3.44,0,0,1,52.356.167Zm0-1.406a2.093,2.093,0,0,0,1.925-1.239A8.08,8.08,0,0,0,54.949-6.2a7.851,7.851,0,0,0-.681-3.713,2.105,2.105,0,0,0-1.912-1.217A2.1,2.1,0,0,0,50.44-9.914,7.891,7.891,0,0,0,49.764-6.2a8.122,8.122,0,0,0,.664,3.722A2.091,2.091,0,0,0,52.356-1.239ZM62.49.167A3.447,3.447,0,0,1,59.44-1.45,8.623,8.623,0,0,1,58.368-6.2a8.662,8.662,0,0,1,1.059-4.737,3.444,3.444,0,0,1,3.063-1.608,3.436,3.436,0,0,1,3.05,1.613A8.637,8.637,0,0,1,66.6-6.2a8.6,8.6,0,0,1-1.077,4.742A3.44,3.44,0,0,1,62.49.167Zm0-1.406a2.093,2.093,0,0,0,1.925-1.239A8.08,8.08,0,0,0,65.083-6.2,7.851,7.851,0,0,0,64.4-9.91a2.105,2.105,0,0,0-1.912-1.217,2.1,2.1,0,0,0-1.916,1.213A7.891,7.891,0,0,0,59.9-6.2a8.122,8.122,0,0,0,.664,3.722A2.091,2.091,0,0,0,62.49-1.239ZM72.624.167a3.447,3.447,0,0,1-3.05-1.617A8.623,8.623,0,0,1,68.5-6.2a8.662,8.662,0,0,1,1.059-4.737,3.444,3.444,0,0,1,3.063-1.608,3.436,3.436,0,0,1,3.05,1.613A8.637,8.637,0,0,1,76.737-6.2a8.6,8.6,0,0,1-1.077,4.742A3.44,3.44,0,0,1,72.624.167Zm0-1.406a2.093,2.093,0,0,0,1.925-1.239A8.08,8.08,0,0,0,75.217-6.2a7.851,7.851,0,0,0-.681-3.713,2.105,2.105,0,0,0-1.912-1.217,2.1,2.1,0,0,0-1.916,1.213A7.891,7.891,0,0,0,70.031-6.2a8.122,8.122,0,0,0,.664,3.722A2.091,2.091,0,0,0,72.624-1.239Z" transform="translate(691 4581)" fill="#00223d"/>
      <path id="Trazado_35248" data-name="Trazado 35248" d="M13.825.624l-1.415.483L10.67-.756A6.4,6.4,0,0,1,7.251.167,6.643,6.643,0,0,1,4.808-.277,5.859,5.859,0,0,1,2.843-1.525,5.615,5.615,0,0,1,1.538-3.533,7.2,7.2,0,0,1,1.063-6.2a7.144,7.144,0,0,1,.475-2.65,5.622,5.622,0,0,1,1.305-2A5.859,5.859,0,0,1,4.808-12.1a6.643,6.643,0,0,1,2.443-.444,6.619,6.619,0,0,1,2.435.444A5.859,5.859,0,0,1,11.65-10.85a5.67,5.67,0,0,1,1.31,2,7.086,7.086,0,0,1,.479,2.65,6.281,6.281,0,0,1-1.705,4.579ZM2.628-6.2a5.866,5.866,0,0,0,.36,2.1,4.236,4.236,0,0,0,.989,1.556,4.377,4.377,0,0,0,1.468.94,4.9,4.9,0,0,0,1.806.33,4.863,4.863,0,0,0,1.8-.33,4.388,4.388,0,0,0,1.463-.94A4.19,4.19,0,0,0,11.5-4.091a5.931,5.931,0,0,0,.356-2.1,5.286,5.286,0,0,0-.62-2.615,4.123,4.123,0,0,0-1.652-1.67,4.829,4.829,0,0,0-2.333-.558,4.854,4.854,0,0,0-2.338.558,4.143,4.143,0,0,0-1.661,1.67A5.256,5.256,0,0,0,2.628-6.2ZM16.963-7.242V-8.49h6.715v1.248Zm0,3.595V-4.9h6.715v1.248Zm14.186-8.728h1.424V0h-1.5V-10.714L28.1-8.139V-9.765ZM45.466-4.122A4.176,4.176,0,0,1,44.9-1.9,3.974,3.974,0,0,1,43.348-.387,4.437,4.437,0,0,1,41.2.141a4.32,4.32,0,0,1-3.076-1.165,3.934,3.934,0,0,1-1.239-3A4.873,4.873,0,0,1,37.96-7l4.14-5.379h1.793L40.456-8.042a3.853,3.853,0,0,1,1.072-.149,3.933,3.933,0,0,1,1.9.475A3.8,3.8,0,0,1,44.877-6.3,4.242,4.242,0,0,1,45.466-4.122Zm-4.3,2.848A2.772,2.772,0,0,0,43.2-2.061a2.749,2.749,0,0,0,.778-2.087,2.815,2.815,0,0,0-.817-2.087A2.8,2.8,0,0,0,41.142-7a2.66,2.66,0,0,0-2.021.848,2.842,2.842,0,0,0-.782,2.07,2.739,2.739,0,0,0,.8,2.065A2.834,2.834,0,0,0,41.168-1.274ZM49.14.176a.987.987,0,0,1-.716-.3.975.975,0,0,1-.3-.721.979.979,0,0,1,.3-.716.979.979,0,0,1,.716-.3.994.994,0,0,1,.721.3.973.973,0,0,1,.308.716.975.975,0,0,1-.3.721A1,1,0,0,1,49.14.176Zm12.252-4.3A4.176,4.176,0,0,1,60.829-1.9,3.974,3.974,0,0,1,59.273-.387a4.437,4.437,0,0,1-2.145.527,4.32,4.32,0,0,1-3.076-1.165,3.934,3.934,0,0,1-1.239-3A4.873,4.873,0,0,1,53.886-7l4.14-5.379h1.793L56.382-8.042a3.853,3.853,0,0,1,1.072-.149,3.933,3.933,0,0,1,1.9.475A3.8,3.8,0,0,1,60.8-6.3,4.242,4.242,0,0,1,61.392-4.122Zm-4.3,2.848a2.772,2.772,0,0,0,2.035-.787,2.749,2.749,0,0,0,.778-2.087,2.815,2.815,0,0,0-.817-2.087A2.8,2.8,0,0,0,57.067-7a2.66,2.66,0,0,0-2.021.848,2.842,2.842,0,0,0-.782,2.07,2.739,2.739,0,0,0,.8,2.065A2.834,2.834,0,0,0,57.094-1.274ZM77.238-8.807a2.785,2.785,0,0,1,2.013.734,2.722,2.722,0,0,1,.765,2.061V0H78.5V-5.616a1.952,1.952,0,0,0-.475-1.424,1.616,1.616,0,0,0-1.2-.483,1.706,1.706,0,0,0-1.318.545A2.343,2.343,0,0,0,75-5.344V0H73.45V-5.555a2.042,2.042,0,0,0-.479-1.472,1.629,1.629,0,0,0-1.226-.5,1.69,1.69,0,0,0-1.314.558,2.424,2.424,0,0,0-.505,1.674V0H68.405V-8.64h1.521v1.116a2.625,2.625,0,0,1,.989-.949,2.82,2.82,0,0,1,1.375-.334,2.935,2.935,0,0,1,1.477.365,2.271,2.271,0,0,1,.958,1.05,2.689,2.689,0,0,1,1.037-1.05A2.966,2.966,0,0,1,77.238-8.807Zm6.5-1.863a.989.989,0,0,1-.725-.3.989.989,0,0,1-.3-.725.975.975,0,0,1,.3-.721,1,1,0,0,1,.725-.3.987.987,0,0,1,.716.3.975.975,0,0,1,.3.721.989.989,0,0,1-.3.725A.979.979,0,0,1,83.733-10.67ZM82.96,0V-8.64h1.529V0Zm4.623,0V-13.5h1.538V0Zm4.632,0V-13.5h1.538V0Zm8.271.167a4.554,4.554,0,0,1-2.215-.536,3.9,3.9,0,0,1-1.56-1.569,4.819,4.819,0,0,1-.576-2.386,4.4,4.4,0,0,1,1.226-3.256,4.232,4.232,0,0,1,3.125-1.226,4.228,4.228,0,0,1,3.129,1.226,4.41,4.41,0,0,1,1.222,3.256,4.413,4.413,0,0,1-1.226,3.265A4.232,4.232,0,0,1,100.485.167ZM100.477-1.1a2.654,2.654,0,0,0,2.043-.888,3.326,3.326,0,0,0,.813-2.338,3.314,3.314,0,0,0-.813-2.329,2.654,2.654,0,0,0-2.043-.888,2.617,2.617,0,0,0-2.026.888,3.336,3.336,0,0,0-.8,2.329,3.348,3.348,0,0,0,.8,2.338A2.617,2.617,0,0,0,100.477-1.1ZM111.3-8.807a3.005,3.005,0,0,1,2.175.782,2.918,2.918,0,0,1,.813,2.206V0h-1.521V-5.476a2.043,2.043,0,0,0-.527-1.547,1.885,1.885,0,0,0-1.354-.5,2.09,2.09,0,0,0-1.538.593,2.407,2.407,0,0,0-.606,1.762V0h-1.521V-8.64h1.521v1.107A2.885,2.885,0,0,1,111.3-8.807Zm13.482,4.315-.018.413h-6.75a3.053,3.053,0,0,0,.826,2.21,2.713,2.713,0,0,0,1.969.769,2.59,2.59,0,0,0,1.433-.413,2.68,2.68,0,0,0,.984-1.143l1.371.29A3.9,3.9,0,0,1,123.117-.51a4.028,4.028,0,0,1-2.294.677,4.174,4.174,0,0,1-3.111-1.2,4.479,4.479,0,0,1-1.187-3.287A4.458,4.458,0,0,1,117.716-7.6a4.122,4.122,0,0,1,3.063-1.2,3.9,3.9,0,0,1,2.9,1.107A4.376,4.376,0,0,1,124.778-4.491Zm-4-3.146a2.694,2.694,0,0,0-1.8.611,2.8,2.8,0,0,0-.91,1.78h5.177a2.567,2.567,0,0,0-.756-1.78A2.441,2.441,0,0,0,120.779-7.638Zm9.114,7.8a4.1,4.1,0,0,1-2.329-.624,2.581,2.581,0,0,1-1.134-1.775l1.327-.378a1.851,1.851,0,0,0,.708,1.2,2.3,2.3,0,0,0,1.419.426,2.832,2.832,0,0,0,.831-.114,1.331,1.331,0,0,0,.637-.426,1.142,1.142,0,0,0,.255-.787,1.147,1.147,0,0,0-.07-.356,1.526,1.526,0,0,0-.141-.286.87.87,0,0,0-.246-.237,3.245,3.245,0,0,0-.3-.185,3.067,3.067,0,0,0-.391-.163q-.259-.092-.417-.141t-.483-.141q-.325-.092-.5-.145a9.372,9.372,0,0,1-.9-.316,3.932,3.932,0,0,1-.729-.417,1.679,1.679,0,0,1-.567-.681,2.3,2.3,0,0,1-.189-.967,2.234,2.234,0,0,1,.422-1.38,2.374,2.374,0,0,1,1.094-.813,4.374,4.374,0,0,1,1.534-.25,3.754,3.754,0,0,1,2.1.563,2.4,2.4,0,0,1,1.05,1.688l-1.248.316a1.655,1.655,0,0,0-.659-1.094,2.1,2.1,0,0,0-1.239-.365,2.139,2.139,0,0,0-1.16.3,1.019,1.019,0,0,0-.483.927.923.923,0,0,0,.127.479,1.521,1.521,0,0,0,.259.338,1.594,1.594,0,0,0,.475.259q.343.136.51.185t.633.163q.088.026.132.035.51.132.831.233a5.105,5.105,0,0,1,.747.316,2.484,2.484,0,0,1,.672.47,2.178,2.178,0,0,1,.422.668,2.358,2.358,0,0,1,.176.932,2.516,2.516,0,0,1-.259,1.165,2.028,2.028,0,0,1-.708.8A3.422,3.422,0,0,1,131.1.022,4.8,4.8,0,0,1,129.894.167Z" transform="translate(691 4600)" fill="#00223d"/>
      <path id="Trazado_35249" data-name="Trazado 35249" d="M6.627-12.375a3.664,3.664,0,0,1,1.938.514,3.473,3.473,0,0,1,1.3,1.375,4.036,4.036,0,0,1,.453,1.907A3.755,3.755,0,0,1,9.294-5.884,3.514,3.514,0,0,1,6.627-4.808H3.516V0H1.942V-12.375ZM6.4-6.179a2.25,2.25,0,0,0,1.723-.664A2.455,2.455,0,0,0,8.745-8.6a2.463,2.463,0,0,0-.624-1.745A2.234,2.234,0,0,0,6.4-11.013H3.516v4.834Zm7.058-1.063V-8.49h6.715v1.248Zm0,3.595V-4.9h6.715v1.248ZM25.55-1.4h6.161V0h-8.35V-1.151l4.957-5.124a5.872,5.872,0,0,0,1.116-1.468,2.928,2.928,0,0,0,.308-1.274,2.136,2.136,0,0,0-.624-1.639,2.27,2.27,0,0,0-1.617-.584,2.269,2.269,0,0,0-1.692.637,2.741,2.741,0,0,0-.628,1.991V-7.7L23.66-7.84V-8.6a3.912,3.912,0,0,1,1.046-2.94A3.842,3.842,0,0,1,27.5-12.56a3.873,3.873,0,0,1,2.685.94,3.27,3.27,0,0,1,1.05,2.566,3.892,3.892,0,0,1-.417,1.789,7.689,7.689,0,0,1-1.34,1.78ZM37.688.167a3.447,3.447,0,0,1-3.05-1.617A8.623,8.623,0,0,1,33.565-6.2a8.662,8.662,0,0,1,1.059-4.737,3.444,3.444,0,0,1,3.063-1.608,3.436,3.436,0,0,1,3.05,1.613A8.637,8.637,0,0,1,41.8-6.2a8.6,8.6,0,0,1-1.077,4.742A3.44,3.44,0,0,1,37.688.167Zm0-1.406a2.093,2.093,0,0,0,1.925-1.239A8.08,8.08,0,0,0,40.28-6.2,7.851,7.851,0,0,0,39.6-9.91a2.105,2.105,0,0,0-1.912-1.217,2.1,2.1,0,0,0-1.916,1.213A7.891,7.891,0,0,0,35.095-6.2a8.122,8.122,0,0,0,.664,3.722A2.091,2.091,0,0,0,37.688-1.239ZM44.376.176a.987.987,0,0,1-.716-.3.975.975,0,0,1-.3-.721.979.979,0,0,1,.3-.716.979.979,0,0,1,.716-.3.994.994,0,0,1,.721.3.973.973,0,0,1,.308.716.975.975,0,0,1-.3.721A1,1,0,0,1,44.376.176Zm7.98-.009a3.447,3.447,0,0,1-3.05-1.617A8.623,8.623,0,0,1,48.234-6.2a8.662,8.662,0,0,1,1.059-4.737,3.444,3.444,0,0,1,3.063-1.608,3.436,3.436,0,0,1,3.05,1.613A8.637,8.637,0,0,1,56.47-6.2a8.6,8.6,0,0,1-1.077,4.742A3.44,3.44,0,0,1,52.356.167Zm0-1.406a2.093,2.093,0,0,0,1.925-1.239A8.08,8.08,0,0,0,54.949-6.2a7.851,7.851,0,0,0-.681-3.713,2.105,2.105,0,0,0-1.912-1.217A2.1,2.1,0,0,0,50.44-9.914,7.891,7.891,0,0,0,49.764-6.2a8.122,8.122,0,0,0,.664,3.722A2.091,2.091,0,0,0,52.356-1.239ZM62.49.167A3.447,3.447,0,0,1,59.44-1.45,8.623,8.623,0,0,1,58.368-6.2a8.662,8.662,0,0,1,1.059-4.737,3.444,3.444,0,0,1,3.063-1.608,3.436,3.436,0,0,1,3.05,1.613A8.637,8.637,0,0,1,66.6-6.2a8.6,8.6,0,0,1-1.077,4.742A3.44,3.44,0,0,1,62.49.167Zm0-1.406a2.093,2.093,0,0,0,1.925-1.239A8.08,8.08,0,0,0,65.083-6.2,7.851,7.851,0,0,0,64.4-9.91a2.105,2.105,0,0,0-1.912-1.217,2.1,2.1,0,0,0-1.916,1.213A7.891,7.891,0,0,0,59.9-6.2a8.122,8.122,0,0,0,.664,3.722A2.091,2.091,0,0,0,62.49-1.239ZM72.624.167a3.447,3.447,0,0,1-3.05-1.617A8.623,8.623,0,0,1,68.5-6.2a8.662,8.662,0,0,1,1.059-4.737,3.444,3.444,0,0,1,3.063-1.608,3.436,3.436,0,0,1,3.05,1.613A8.637,8.637,0,0,1,76.737-6.2a8.6,8.6,0,0,1-1.077,4.742A3.44,3.44,0,0,1,72.624.167Zm0-1.406a2.093,2.093,0,0,0,1.925-1.239A8.08,8.08,0,0,0,75.217-6.2a7.851,7.851,0,0,0-.681-3.713,2.105,2.105,0,0,0-1.912-1.217,2.1,2.1,0,0,0-1.916,1.213A7.891,7.891,0,0,0,70.031-6.2a8.122,8.122,0,0,0,.664,3.722A2.091,2.091,0,0,0,72.624-1.239Z" transform="translate(691 4519)" fill="#00223d"/>
      <path id="Trazado_35250" data-name="Trazado 35250" d="M13.825.624l-1.415.483L10.67-.756A6.4,6.4,0,0,1,7.251.167,6.643,6.643,0,0,1,4.808-.277,5.859,5.859,0,0,1,2.843-1.525,5.615,5.615,0,0,1,1.538-3.533,7.2,7.2,0,0,1,1.063-6.2a7.144,7.144,0,0,1,.475-2.65,5.622,5.622,0,0,1,1.305-2A5.859,5.859,0,0,1,4.808-12.1a6.643,6.643,0,0,1,2.443-.444,6.619,6.619,0,0,1,2.435.444A5.859,5.859,0,0,1,11.65-10.85a5.67,5.67,0,0,1,1.31,2,7.086,7.086,0,0,1,.479,2.65,6.281,6.281,0,0,1-1.705,4.579ZM2.628-6.2a5.866,5.866,0,0,0,.36,2.1,4.236,4.236,0,0,0,.989,1.556,4.377,4.377,0,0,0,1.468.94,4.9,4.9,0,0,0,1.806.33,4.863,4.863,0,0,0,1.8-.33,4.388,4.388,0,0,0,1.463-.94A4.19,4.19,0,0,0,11.5-4.091a5.931,5.931,0,0,0,.356-2.1,5.286,5.286,0,0,0-.62-2.615,4.123,4.123,0,0,0-1.652-1.67,4.829,4.829,0,0,0-2.333-.558,4.854,4.854,0,0,0-2.338.558,4.143,4.143,0,0,0-1.661,1.67A5.256,5.256,0,0,0,2.628-6.2ZM16.963-7.242V-8.49h6.715v1.248Zm0,3.595V-4.9h6.715v1.248Zm14.186-8.728h1.424V0h-1.5V-10.714L28.1-8.139V-9.765ZM44.2-.853a4.457,4.457,0,0,1-3,1.02,4.462,4.462,0,0,1-3-1.024A3.369,3.369,0,0,1,37-3.551a3.329,3.329,0,0,1,.624-2.021,3.577,3.577,0,0,1,1.7-1.248A3.056,3.056,0,0,1,38.1-7.879,2.694,2.694,0,0,1,37.652-9.4a2.861,2.861,0,0,1,1.011-2.254,3.72,3.72,0,0,1,2.54-.883,3.655,3.655,0,0,1,2.509.888A2.87,2.87,0,0,1,44.719-9.4a2.753,2.753,0,0,1-.439,1.525,2.974,2.974,0,0,1-1.2,1.059,3.647,3.647,0,0,1,1.688,1.252A3.31,3.31,0,0,1,45.4-3.551,3.371,3.371,0,0,1,44.2-.853Zm-3-6.469a2.094,2.094,0,0,0,1.5-.58,1.887,1.887,0,0,0,.611-1.424,1.826,1.826,0,0,0-.611-1.393,2.121,2.121,0,0,0-1.5-.567,2.138,2.138,0,0,0-1.512.563,1.829,1.829,0,0,0-.606,1.4A1.887,1.887,0,0,0,39.7-7.9,2.105,2.105,0,0,0,41.2-7.321Zm0,6.082a2.756,2.756,0,0,0,1.9-.677,2.283,2.283,0,0,0,.76-1.793,2.237,2.237,0,0,0-.76-1.767,2.778,2.778,0,0,0-1.9-.668,2.807,2.807,0,0,0-1.916.668,2.231,2.231,0,0,0-.765,1.767,2.277,2.277,0,0,0,.765,1.793A2.785,2.785,0,0,0,41.2-1.239ZM61.313-8.807a2.785,2.785,0,0,1,2.013.734,2.722,2.722,0,0,1,.765,2.061V0H62.569V-5.616a1.952,1.952,0,0,0-.475-1.424,1.616,1.616,0,0,0-1.2-.483,1.706,1.706,0,0,0-1.318.545,2.343,2.343,0,0,0-.5,1.635V0H57.524V-5.555a2.042,2.042,0,0,0-.479-1.472,1.629,1.629,0,0,0-1.226-.5,1.69,1.69,0,0,0-1.314.558A2.424,2.424,0,0,0,54-5.291V0H52.479V-8.64H54v1.116a2.625,2.625,0,0,1,.989-.949,2.82,2.82,0,0,1,1.375-.334,2.935,2.935,0,0,1,1.477.365,2.271,2.271,0,0,1,.958,1.05,2.689,2.689,0,0,1,1.037-1.05A2.966,2.966,0,0,1,61.313-8.807Zm6.5-1.863a.989.989,0,0,1-.725-.3.989.989,0,0,1-.3-.725.975.975,0,0,1,.3-.721,1,1,0,0,1,.725-.3.987.987,0,0,1,.716.3.975.975,0,0,1,.3.721.989.989,0,0,1-.3.725A.979.979,0,0,1,67.808-10.67ZM67.034,0V-8.64h1.529V0Zm4.623,0V-13.5H73.2V0Zm4.632,0V-13.5h1.538V0ZM84.56.167a4.554,4.554,0,0,1-2.215-.536,3.9,3.9,0,0,1-1.56-1.569,4.819,4.819,0,0,1-.576-2.386,4.4,4.4,0,0,1,1.226-3.256A4.232,4.232,0,0,1,84.56-8.807a4.228,4.228,0,0,1,3.129,1.226A4.41,4.41,0,0,1,88.91-4.324a4.413,4.413,0,0,1-1.226,3.265A4.232,4.232,0,0,1,84.56.167ZM84.551-1.1a2.654,2.654,0,0,0,2.043-.888,3.326,3.326,0,0,0,.813-2.338,3.314,3.314,0,0,0-.813-2.329,2.654,2.654,0,0,0-2.043-.888,2.617,2.617,0,0,0-2.026.888,3.336,3.336,0,0,0-.8,2.329,3.348,3.348,0,0,0,.8,2.338A2.617,2.617,0,0,0,84.551-1.1ZM95.37-8.807a3.005,3.005,0,0,1,2.175.782,2.918,2.918,0,0,1,.813,2.206V0H96.838V-5.476a2.043,2.043,0,0,0-.527-1.547,1.885,1.885,0,0,0-1.354-.5,2.09,2.09,0,0,0-1.538.593,2.407,2.407,0,0,0-.606,1.762V0H91.292V-8.64h1.521v1.107A2.885,2.885,0,0,1,95.37-8.807Zm13.482,4.315-.018.413h-6.75a3.053,3.053,0,0,0,.826,2.21,2.713,2.713,0,0,0,1.969.769,2.59,2.59,0,0,0,1.433-.413,2.68,2.68,0,0,0,.984-1.143l1.371.29A3.9,3.9,0,0,1,107.191-.51,4.028,4.028,0,0,1,104.9.167a4.174,4.174,0,0,1-3.111-1.2A4.479,4.479,0,0,1,100.6-4.324,4.458,4.458,0,0,1,101.791-7.6a4.122,4.122,0,0,1,3.063-1.2,3.9,3.9,0,0,1,2.9,1.107A4.376,4.376,0,0,1,108.853-4.491Zm-4-3.146a2.694,2.694,0,0,0-1.8.611,2.8,2.8,0,0,0-.91,1.78h5.177a2.567,2.567,0,0,0-.756-1.78A2.441,2.441,0,0,0,104.854-7.638Zm9.114,7.8a4.1,4.1,0,0,1-2.329-.624A2.581,2.581,0,0,1,110.5-2.232l1.327-.378a1.851,1.851,0,0,0,.708,1.2,2.3,2.3,0,0,0,1.419.426,2.832,2.832,0,0,0,.831-.114,1.331,1.331,0,0,0,.637-.426,1.142,1.142,0,0,0,.255-.787,1.147,1.147,0,0,0-.07-.356,1.526,1.526,0,0,0-.141-.286.87.87,0,0,0-.246-.237,3.245,3.245,0,0,0-.3-.185,3.067,3.067,0,0,0-.391-.163q-.259-.092-.417-.141t-.483-.141q-.325-.092-.5-.145a9.372,9.372,0,0,1-.9-.316,3.932,3.932,0,0,1-.729-.417,1.679,1.679,0,0,1-.567-.681,2.3,2.3,0,0,1-.189-.967,2.234,2.234,0,0,1,.422-1.38,2.374,2.374,0,0,1,1.094-.813,4.374,4.374,0,0,1,1.534-.25,3.754,3.754,0,0,1,2.1.563,2.4,2.4,0,0,1,1.05,1.688l-1.248.316a1.655,1.655,0,0,0-.659-1.094,2.1,2.1,0,0,0-1.239-.365,2.139,2.139,0,0,0-1.16.3,1.019,1.019,0,0,0-.483.927.923.923,0,0,0,.127.479,1.521,1.521,0,0,0,.259.338,1.594,1.594,0,0,0,.475.259q.343.136.51.185t.633.163q.088.026.132.035.51.132.831.233a5.105,5.105,0,0,1,.747.316,2.484,2.484,0,0,1,.672.47,2.178,2.178,0,0,1,.422.668,2.358,2.358,0,0,1,.176.932,2.516,2.516,0,0,1-.259,1.165,2.028,2.028,0,0,1-.708.8,3.422,3.422,0,0,1-1.006.435A4.8,4.8,0,0,1,113.968.167Z" transform="translate(691 4538)" fill="#00223d"/>
      <path id="Trazado_35251" data-name="Trazado 35251" d="M6.627-12.375a3.664,3.664,0,0,1,1.938.514,3.473,3.473,0,0,1,1.3,1.375,4.036,4.036,0,0,1,.453,1.907A3.755,3.755,0,0,1,9.294-5.884,3.514,3.514,0,0,1,6.627-4.808H3.516V0H1.942V-12.375ZM6.4-6.179a2.25,2.25,0,0,0,1.723-.664A2.455,2.455,0,0,0,8.745-8.6a2.463,2.463,0,0,0-.624-1.745A2.234,2.234,0,0,0,6.4-11.013H3.516v4.834Zm7.058-1.063V-8.49h6.715v1.248Zm0,3.595V-4.9h6.715v1.248ZM25.55-1.4h6.161V0h-8.35V-1.151l4.957-5.124a5.872,5.872,0,0,0,1.116-1.468,2.928,2.928,0,0,0,.308-1.274,2.136,2.136,0,0,0-.624-1.639,2.27,2.27,0,0,0-1.617-.584,2.269,2.269,0,0,0-1.692.637,2.741,2.741,0,0,0-.628,1.991V-7.7L23.66-7.84V-8.6a3.912,3.912,0,0,1,1.046-2.94A3.842,3.842,0,0,1,27.5-12.56a3.873,3.873,0,0,1,2.685.94,3.27,3.27,0,0,1,1.05,2.566,3.892,3.892,0,0,1-.417,1.789,7.689,7.689,0,0,1-1.34,1.78ZM37.688.167a3.447,3.447,0,0,1-3.05-1.617A8.623,8.623,0,0,1,33.565-6.2a8.662,8.662,0,0,1,1.059-4.737,3.444,3.444,0,0,1,3.063-1.608,3.436,3.436,0,0,1,3.05,1.613A8.637,8.637,0,0,1,41.8-6.2a8.6,8.6,0,0,1-1.077,4.742A3.44,3.44,0,0,1,37.688.167Zm0-1.406a2.093,2.093,0,0,0,1.925-1.239A8.08,8.08,0,0,0,40.28-6.2,7.851,7.851,0,0,0,39.6-9.91a2.105,2.105,0,0,0-1.912-1.217,2.1,2.1,0,0,0-1.916,1.213A7.891,7.891,0,0,0,35.095-6.2a8.122,8.122,0,0,0,.664,3.722A2.091,2.091,0,0,0,37.688-1.239ZM44.376.176a.987.987,0,0,1-.716-.3.975.975,0,0,1-.3-.721.979.979,0,0,1,.3-.716.979.979,0,0,1,.716-.3.994.994,0,0,1,.721.3.973.973,0,0,1,.308.716.975.975,0,0,1-.3.721A1,1,0,0,1,44.376.176Zm7.98-.009a3.447,3.447,0,0,1-3.05-1.617A8.623,8.623,0,0,1,48.234-6.2a8.662,8.662,0,0,1,1.059-4.737,3.444,3.444,0,0,1,3.063-1.608,3.436,3.436,0,0,1,3.05,1.613A8.637,8.637,0,0,1,56.47-6.2a8.6,8.6,0,0,1-1.077,4.742A3.44,3.44,0,0,1,52.356.167Zm0-1.406a2.093,2.093,0,0,0,1.925-1.239A8.08,8.08,0,0,0,54.949-6.2a7.851,7.851,0,0,0-.681-3.713,2.105,2.105,0,0,0-1.912-1.217A2.1,2.1,0,0,0,50.44-9.914,7.891,7.891,0,0,0,49.764-6.2a8.122,8.122,0,0,0,.664,3.722A2.091,2.091,0,0,0,52.356-1.239ZM62.49.167A3.447,3.447,0,0,1,59.44-1.45,8.623,8.623,0,0,1,58.368-6.2a8.662,8.662,0,0,1,1.059-4.737,3.444,3.444,0,0,1,3.063-1.608,3.436,3.436,0,0,1,3.05,1.613A8.637,8.637,0,0,1,66.6-6.2a8.6,8.6,0,0,1-1.077,4.742A3.44,3.44,0,0,1,62.49.167Zm0-1.406a2.093,2.093,0,0,0,1.925-1.239A8.08,8.08,0,0,0,65.083-6.2,7.851,7.851,0,0,0,64.4-9.91a2.105,2.105,0,0,0-1.912-1.217,2.1,2.1,0,0,0-1.916,1.213A7.891,7.891,0,0,0,59.9-6.2a8.122,8.122,0,0,0,.664,3.722A2.091,2.091,0,0,0,62.49-1.239ZM72.624.167a3.447,3.447,0,0,1-3.05-1.617A8.623,8.623,0,0,1,68.5-6.2a8.662,8.662,0,0,1,1.059-4.737,3.444,3.444,0,0,1,3.063-1.608,3.436,3.436,0,0,1,3.05,1.613A8.637,8.637,0,0,1,76.737-6.2a8.6,8.6,0,0,1-1.077,4.742A3.44,3.44,0,0,1,72.624.167Zm0-1.406a2.093,2.093,0,0,0,1.925-1.239A8.08,8.08,0,0,0,75.217-6.2a7.851,7.851,0,0,0-.681-3.713,2.105,2.105,0,0,0-1.912-1.217,2.1,2.1,0,0,0-1.916,1.213A7.891,7.891,0,0,0,70.031-6.2a8.122,8.122,0,0,0,.664,3.722A2.091,2.091,0,0,0,72.624-1.239Z" transform="translate(691 4457)" fill="#00223d"/>
      <path id="Trazado_35252" data-name="Trazado 35252" d="M13.825.624l-1.415.483L10.67-.756A6.4,6.4,0,0,1,7.251.167,6.643,6.643,0,0,1,4.808-.277,5.859,5.859,0,0,1,2.843-1.525,5.615,5.615,0,0,1,1.538-3.533,7.2,7.2,0,0,1,1.063-6.2a7.144,7.144,0,0,1,.475-2.65,5.622,5.622,0,0,1,1.305-2A5.859,5.859,0,0,1,4.808-12.1a6.643,6.643,0,0,1,2.443-.444,6.619,6.619,0,0,1,2.435.444A5.859,5.859,0,0,1,11.65-10.85a5.67,5.67,0,0,1,1.31,2,7.086,7.086,0,0,1,.479,2.65,6.281,6.281,0,0,1-1.705,4.579ZM2.628-6.2a5.866,5.866,0,0,0,.36,2.1,4.236,4.236,0,0,0,.989,1.556,4.377,4.377,0,0,0,1.468.94,4.9,4.9,0,0,0,1.806.33,4.863,4.863,0,0,0,1.8-.33,4.388,4.388,0,0,0,1.463-.94A4.19,4.19,0,0,0,11.5-4.091a5.931,5.931,0,0,0,.356-2.1,5.286,5.286,0,0,0-.62-2.615,4.123,4.123,0,0,0-1.652-1.67,4.829,4.829,0,0,0-2.333-.558,4.854,4.854,0,0,0-2.338.558,4.143,4.143,0,0,0-1.661,1.67A5.256,5.256,0,0,0,2.628-6.2ZM16.963-7.242V-8.49h6.715v1.248Zm0,3.595V-4.9h6.715v1.248Zm14.186-8.728h1.424V0h-1.5V-10.714L28.1-8.139V-9.765Zm10.02-.141a4.324,4.324,0,0,1,3.072,1.165,3.927,3.927,0,0,1,1.244,3A4.873,4.873,0,0,1,44.4-5.379L40.263,0H38.443l3.419-4.307a3.992,3.992,0,0,1-1.037.132,3.863,3.863,0,0,1-1.885-.479,3.845,3.845,0,0,1-1.446-1.424,4.225,4.225,0,0,1-.589-2.167,4.445,4.445,0,0,1,.321-1.745,3.84,3.84,0,0,1,.91-1.354A4.235,4.235,0,0,1,39.5-12.2,4.476,4.476,0,0,1,41.168-12.516ZM39.2-6.144a2.82,2.82,0,0,0,2.03.773,2.646,2.646,0,0,0,2.017-.848,2.85,2.85,0,0,0,.778-2.07,2.763,2.763,0,0,0-.8-2.057,2.806,2.806,0,0,0-2.021-.747,2.79,2.79,0,0,0-2.035.787,2.733,2.733,0,0,0-.787,2.087A2.808,2.808,0,0,0,39.2-6.144ZM49.14.176a.987.987,0,0,1-.716-.3.975.975,0,0,1-.3-.721.979.979,0,0,1,.3-.716.979.979,0,0,1,.716-.3.994.994,0,0,1,.721.3.973.973,0,0,1,.308.716.975.975,0,0,1-.3.721A1,1,0,0,1,49.14.176ZM60.126-.853a4.457,4.457,0,0,1-3,1.02,4.462,4.462,0,0,1-3-1.024,3.369,3.369,0,0,1-1.2-2.694,3.329,3.329,0,0,1,.624-2.021,3.577,3.577,0,0,1,1.7-1.248,3.056,3.056,0,0,1-1.217-1.059A2.694,2.694,0,0,1,53.578-9.4a2.861,2.861,0,0,1,1.011-2.254,3.72,3.72,0,0,1,2.54-.883,3.655,3.655,0,0,1,2.509.888A2.87,2.87,0,0,1,60.645-9.4a2.753,2.753,0,0,1-.439,1.525,2.974,2.974,0,0,1-1.2,1.059A3.647,3.647,0,0,1,60.7-5.568a3.31,3.31,0,0,1,.624,2.017A3.371,3.371,0,0,1,60.126-.853Zm-3-6.469a2.094,2.094,0,0,0,1.5-.58,1.887,1.887,0,0,0,.611-1.424,1.826,1.826,0,0,0-.611-1.393,2.121,2.121,0,0,0-1.5-.567,2.138,2.138,0,0,0-1.512.563,1.829,1.829,0,0,0-.606,1.4A1.887,1.887,0,0,0,55.622-7.9,2.105,2.105,0,0,0,57.129-7.321Zm0,6.082a2.756,2.756,0,0,0,1.9-.677,2.283,2.283,0,0,0,.76-1.793,2.237,2.237,0,0,0-.76-1.767,2.778,2.778,0,0,0-1.9-.668,2.807,2.807,0,0,0-1.916.668,2.231,2.231,0,0,0-.765,1.767,2.277,2.277,0,0,0,.765,1.793A2.785,2.785,0,0,0,57.129-1.239ZM77.238-8.807a2.785,2.785,0,0,1,2.013.734,2.722,2.722,0,0,1,.765,2.061V0H78.5V-5.616a1.952,1.952,0,0,0-.475-1.424,1.616,1.616,0,0,0-1.2-.483,1.706,1.706,0,0,0-1.318.545A2.343,2.343,0,0,0,75-5.344V0H73.45V-5.555a2.042,2.042,0,0,0-.479-1.472,1.629,1.629,0,0,0-1.226-.5,1.69,1.69,0,0,0-1.314.558,2.424,2.424,0,0,0-.505,1.674V0H68.405V-8.64h1.521v1.116a2.625,2.625,0,0,1,.989-.949,2.82,2.82,0,0,1,1.375-.334,2.935,2.935,0,0,1,1.477.365,2.271,2.271,0,0,1,.958,1.05,2.689,2.689,0,0,1,1.037-1.05A2.966,2.966,0,0,1,77.238-8.807Zm6.5-1.863a.989.989,0,0,1-.725-.3.989.989,0,0,1-.3-.725.975.975,0,0,1,.3-.721,1,1,0,0,1,.725-.3.987.987,0,0,1,.716.3.975.975,0,0,1,.3.721.989.989,0,0,1-.3.725A.979.979,0,0,1,83.733-10.67ZM82.96,0V-8.64h1.529V0Zm4.623,0V-13.5h1.538V0Zm4.632,0V-13.5h1.538V0Zm8.271.167a4.554,4.554,0,0,1-2.215-.536,3.9,3.9,0,0,1-1.56-1.569,4.819,4.819,0,0,1-.576-2.386,4.4,4.4,0,0,1,1.226-3.256,4.232,4.232,0,0,1,3.125-1.226,4.228,4.228,0,0,1,3.129,1.226,4.41,4.41,0,0,1,1.222,3.256,4.413,4.413,0,0,1-1.226,3.265A4.232,4.232,0,0,1,100.485.167ZM100.477-1.1a2.654,2.654,0,0,0,2.043-.888,3.326,3.326,0,0,0,.813-2.338,3.314,3.314,0,0,0-.813-2.329,2.654,2.654,0,0,0-2.043-.888,2.617,2.617,0,0,0-2.026.888,3.336,3.336,0,0,0-.8,2.329,3.348,3.348,0,0,0,.8,2.338A2.617,2.617,0,0,0,100.477-1.1ZM111.3-8.807a3.005,3.005,0,0,1,2.175.782,2.918,2.918,0,0,1,.813,2.206V0h-1.521V-5.476a2.043,2.043,0,0,0-.527-1.547,1.885,1.885,0,0,0-1.354-.5,2.09,2.09,0,0,0-1.538.593,2.407,2.407,0,0,0-.606,1.762V0h-1.521V-8.64h1.521v1.107A2.885,2.885,0,0,1,111.3-8.807Zm13.482,4.315-.018.413h-6.75a3.053,3.053,0,0,0,.826,2.21,2.713,2.713,0,0,0,1.969.769,2.59,2.59,0,0,0,1.433-.413,2.68,2.68,0,0,0,.984-1.143l1.371.29A3.9,3.9,0,0,1,123.117-.51a4.028,4.028,0,0,1-2.294.677,4.174,4.174,0,0,1-3.111-1.2,4.479,4.479,0,0,1-1.187-3.287A4.458,4.458,0,0,1,117.716-7.6a4.122,4.122,0,0,1,3.063-1.2,3.9,3.9,0,0,1,2.9,1.107A4.376,4.376,0,0,1,124.778-4.491Zm-4-3.146a2.694,2.694,0,0,0-1.8.611,2.8,2.8,0,0,0-.91,1.78h5.177a2.567,2.567,0,0,0-.756-1.78A2.441,2.441,0,0,0,120.779-7.638Zm9.114,7.8a4.1,4.1,0,0,1-2.329-.624,2.581,2.581,0,0,1-1.134-1.775l1.327-.378a1.851,1.851,0,0,0,.708,1.2,2.3,2.3,0,0,0,1.419.426,2.832,2.832,0,0,0,.831-.114,1.331,1.331,0,0,0,.637-.426,1.142,1.142,0,0,0,.255-.787,1.147,1.147,0,0,0-.07-.356,1.526,1.526,0,0,0-.141-.286.87.87,0,0,0-.246-.237,3.245,3.245,0,0,0-.3-.185,3.067,3.067,0,0,0-.391-.163q-.259-.092-.417-.141t-.483-.141q-.325-.092-.5-.145a9.372,9.372,0,0,1-.9-.316,3.932,3.932,0,0,1-.729-.417,1.679,1.679,0,0,1-.567-.681,2.3,2.3,0,0,1-.189-.967,2.234,2.234,0,0,1,.422-1.38,2.374,2.374,0,0,1,1.094-.813,4.374,4.374,0,0,1,1.534-.25,3.754,3.754,0,0,1,2.1.563,2.4,2.4,0,0,1,1.05,1.688l-1.248.316a1.655,1.655,0,0,0-.659-1.094,2.1,2.1,0,0,0-1.239-.365,2.139,2.139,0,0,0-1.16.3,1.019,1.019,0,0,0-.483.927.923.923,0,0,0,.127.479,1.521,1.521,0,0,0,.259.338,1.594,1.594,0,0,0,.475.259q.343.136.51.185t.633.163q.088.026.132.035.51.132.831.233a5.105,5.105,0,0,1,.747.316,2.484,2.484,0,0,1,.672.47,2.178,2.178,0,0,1,.422.668,2.358,2.358,0,0,1,.176.932,2.516,2.516,0,0,1-.259,1.165,2.028,2.028,0,0,1-.708.8A3.422,3.422,0,0,1,131.1.022,4.8,4.8,0,0,1,129.894.167Z" transform="translate(691 4476)" fill="#00223d"/>
      <path id="Trazado_35253" data-name="Trazado 35253" d="M4.28-2.329H8.262V0H1.644V-12.7H4.28Z" transform="translate(922 4618)" fill="#00223d"/>
      <path id="Trazado_35254" data-name="Trazado 35254" d="M3.577.176A7.182,7.182,0,0,1,.22-.7L1.336-2.874A3.317,3.317,0,0,0,3.261-2.2,1.389,1.389,0,0,0,4.438-2.7a2.653,2.653,0,0,0,.387-1.6V-12.7H7.462v8.886A3.949,3.949,0,0,1,6.4-.866,3.855,3.855,0,0,1,3.577.176Z" transform="translate(1009 4618)" fill="#00223d"/>
      <path id="Trazado_35255" data-name="Trazado 35255" d="M16.2,0H13.57l-.835-9.571L9.519,0H7.813L4.6-9.571,3.753,0H1.116L2.18-12.7H5.941L8.648-4.729,11.391-12.7h3.762Z" transform="translate(1078 4618)" fill="#00223d"/>
      <path id="Trazado_35256" data-name="Trazado 35256" d="M9.158,0,5.212-5.4H4.28V0H1.644V-12.7H4.28v4.992h.9L9.158-12.7h3.217L7.453-6.627,12.524,0Z" transform="translate(1047 4557)" fill="#00223d"/>
      <path id="Trazado_35257" data-name="Trazado 35257" d="M5.862.176A6.136,6.136,0,0,1,2.338-.8,3.9,3.9,0,0,1,.624-3.516L3.349-4.14a2.314,2.314,0,0,0,.839,1.6,2.785,2.785,0,0,0,1.78.558,2.3,2.3,0,0,0,1.389-.391,1.319,1.319,0,0,0,.527-1.156,1.233,1.233,0,0,0-.448-.94,2.929,2.929,0,0,0-.892-.576q-.444-.171-1.428-.47-.132-.044-.193-.062-.5-.158-.809-.264t-.76-.294A5.063,5.063,0,0,1,2.615-6.5,5.405,5.405,0,0,1,2-6.957a2.394,2.394,0,0,1-.51-.584,3.1,3.1,0,0,1-.308-.729,3.219,3.219,0,0,1-.123-.905,3.4,3.4,0,0,1,.593-2,3.633,3.633,0,0,1,1.6-1.274,5.822,5.822,0,0,1,2.29-.426,7.233,7.233,0,0,1,1.657.185,5.8,5.8,0,0,1,1.481.567,3.628,3.628,0,0,1,1.182,1.046,3.933,3.933,0,0,1,.672,1.542L7.989-8.9A2.065,2.065,0,0,0,5.7-10.723a2.5,2.5,0,0,0-1.415.369,1.251,1.251,0,0,0-.554,1.116q0,.694.923,1.125a13.752,13.752,0,0,0,1.767.606q.519.158.844.264t.817.308a5.68,5.68,0,0,1,.8.391,5.918,5.918,0,0,1,.668.488,2.627,2.627,0,0,1,.567.633,3.422,3.422,0,0,1,.347.787,3.288,3.288,0,0,1,.141.98,3.85,3.85,0,0,1-.255,1.433,3.118,3.118,0,0,1-.7,1.081A4.058,4.058,0,0,1,8.6-.4,5.1,5.1,0,0,1,7.313.04,7.431,7.431,0,0,1,5.862.176Zm8.47-1.584h1.4V6H14.265V.109l-1.7,1.584V.176Z" transform="translate(1058 4431)" fill="#00223d"/>
      <path id="Trazado_35258" data-name="Trazado 35258" d="M5.862.176A6.136,6.136,0,0,1,2.338-.8,3.9,3.9,0,0,1,.624-3.516L3.349-4.14a2.314,2.314,0,0,0,.839,1.6,2.785,2.785,0,0,0,1.78.558,2.3,2.3,0,0,0,1.389-.391,1.319,1.319,0,0,0,.527-1.156,1.233,1.233,0,0,0-.448-.94,2.929,2.929,0,0,0-.892-.576q-.444-.171-1.428-.47-.132-.044-.193-.062-.5-.158-.809-.264t-.76-.294A5.063,5.063,0,0,1,2.615-6.5,5.405,5.405,0,0,1,2-6.957a2.394,2.394,0,0,1-.51-.584,3.1,3.1,0,0,1-.308-.729,3.219,3.219,0,0,1-.123-.905,3.4,3.4,0,0,1,.593-2,3.633,3.633,0,0,1,1.6-1.274,5.822,5.822,0,0,1,2.29-.426,7.233,7.233,0,0,1,1.657.185,5.8,5.8,0,0,1,1.481.567,3.628,3.628,0,0,1,1.182,1.046,3.933,3.933,0,0,1,.672,1.542L7.989-8.9A2.065,2.065,0,0,0,5.7-10.723a2.5,2.5,0,0,0-1.415.369,1.251,1.251,0,0,0-.554,1.116q0,.694.923,1.125a13.752,13.752,0,0,0,1.767.606q.519.158.844.264t.817.308a5.68,5.68,0,0,1,.8.391,5.918,5.918,0,0,1,.668.488,2.627,2.627,0,0,1,.567.633,3.422,3.422,0,0,1,.347.787,3.288,3.288,0,0,1,.141.98,3.85,3.85,0,0,1-.255,1.433,3.118,3.118,0,0,1-.7,1.081A4.058,4.058,0,0,1,8.6-.4,5.1,5.1,0,0,1,7.313.04,7.431,7.431,0,0,1,5.862.176ZM14.542,6.1a2.31,2.31,0,0,1-1.992-.959,4.843,4.843,0,0,1-.695-2.85,4.842,4.842,0,0,1,.692-2.85,2.313,2.313,0,0,1,1.994-.954,2.308,2.308,0,0,1,1.989.954,4.842,4.842,0,0,1,.692,2.85,4.843,4.843,0,0,1-.695,2.85A2.305,2.305,0,0,1,14.542,6.1Zm0-1.333a.974.974,0,0,0,.889-.608,4.23,4.23,0,0,0,.315-1.869A4.2,4.2,0,0,0,15.429.425a.976.976,0,0,0-.887-.608q-1.21,0-1.21,2.476T14.542,4.77Z" transform="translate(1136 4431)" fill="#00223d"/>
      <path id="Trazado_35259" data-name="Trazado 35259" d="M5.862.176A6.136,6.136,0,0,1,2.338-.8,3.9,3.9,0,0,1,.624-3.516L3.349-4.14a2.314,2.314,0,0,0,.839,1.6,2.785,2.785,0,0,0,1.78.558,2.3,2.3,0,0,0,1.389-.391,1.319,1.319,0,0,0,.527-1.156,1.233,1.233,0,0,0-.448-.94,2.929,2.929,0,0,0-.892-.576q-.444-.171-1.428-.47-.132-.044-.193-.062-.5-.158-.809-.264t-.76-.294A5.063,5.063,0,0,1,2.615-6.5,5.405,5.405,0,0,1,2-6.957a2.394,2.394,0,0,1-.51-.584,3.1,3.1,0,0,1-.308-.729,3.219,3.219,0,0,1-.123-.905,3.4,3.4,0,0,1,.593-2,3.633,3.633,0,0,1,1.6-1.274,5.822,5.822,0,0,1,2.29-.426,7.233,7.233,0,0,1,1.657.185,5.8,5.8,0,0,1,1.481.567,3.628,3.628,0,0,1,1.182,1.046,3.933,3.933,0,0,1,.672,1.542L7.989-8.9A2.065,2.065,0,0,0,5.7-10.723a2.5,2.5,0,0,0-1.415.369,1.251,1.251,0,0,0-.554,1.116q0,.694.923,1.125a13.752,13.752,0,0,0,1.767.606q.519.158.844.264t.817.308a5.68,5.68,0,0,1,.8.391,5.918,5.918,0,0,1,.668.488,2.627,2.627,0,0,1,.567.633,3.422,3.422,0,0,1,.347.787,3.288,3.288,0,0,1,.141.98,3.85,3.85,0,0,1-.255,1.433,3.118,3.118,0,0,1-.7,1.081A4.058,4.058,0,0,1,8.6-.4,5.1,5.1,0,0,1,7.313.04,7.431,7.431,0,0,1,5.862.176Zm8.116,4.507h3.158V6H11.912V4.888L14.86,1.878A1.855,1.855,0,0,0,15.5.6a.9.9,0,0,0-.264-.687,1.039,1.039,0,0,0-.746-.251Q13.44-.337,13.44.858v.549l-1.471-.149V.889a2.31,2.31,0,0,1,.677-1.782,2.592,2.592,0,0,1,1.835-.628,2.715,2.715,0,0,1,1.787.569,1.918,1.918,0,0,1,.69,1.564,2.217,2.217,0,0,1-.233,1.015,4.243,4.243,0,0,1-.741.989Z" transform="translate(1222 4431)" fill="#00223d"/>
      <g id="Grupo_18506" data-name="Grupo 18506" transform="translate(-18 -87)">
        <path id="Trazado_34086" data-name="Trazado 34086" d="M6638,3118.828h-24.852" transform="translate(-5799 1711)" fill="none" stroke="#472ea6" stroke-width="2"/>
        <path id="Polgono_19" data-name="Polgono 19" d="M5.5,0,11,10H0Z" transform="translate(806.5 4835.5) rotate(-90)" fill="#472ea6"/>
      </g>
      <g id="Grupo_18507" data-name="Grupo 18507" transform="translate(880.5 4729.5)">
        <path id="Trazado_34086-2" data-name="Trazado 34086" d="M6613.148,3118.828H6638" transform="translate(-6613.148 -3113.5)" fill="none" stroke="#472ea6" stroke-width="2"/>
        <path id="Polgono_19-2" data-name="Polgono 19" d="M5.5,0,11,10H0Z" transform="translate(32.5) rotate(90)" fill="#472ea6"/>
      </g>
      <g id="Grupo_18508" data-name="Grupo 18508" transform="translate(894.5 4663.5)">
        <path id="Trazado_34086-3" data-name="Trazado 34086" d="M6638,3118.828h-24.852" transform="translate(-6605.5 -3113.5)" fill="none" stroke="#472ea6" stroke-width="2"/>
        <path id="Polgono_19-3" data-name="Polgono 19" d="M5.5,0,11,10H0Z" transform="translate(0 11) rotate(-90)" fill="#472ea6"/>
      </g>
      <g id="Grupo_18509" data-name="Grupo 18509" transform="translate(984.5 4663.5)">
        <path id="Trazado_34086-4" data-name="Trazado 34086" d="M6613.148,3118.828H6638" transform="translate(-6613.148 -3113.5)" fill="none" stroke="#472ea6" stroke-width="2"/>
        <path id="Polgono_19-4" data-name="Polgono 19" d="M5.5,0,11,10H0Z" transform="translate(32.5) rotate(90)" fill="#472ea6"/>
      </g>
      <g id="Grupo_18510" data-name="Grupo 18510" transform="translate(1039.5 4521.5)">
        <path id="Trazado_34086-5" data-name="Trazado 34086" d="M6638,3118.828h-24.852" transform="translate(-6605.5 -3113.5)" fill="none" stroke="#472ea6" stroke-width="2"/>
        <path id="Polgono_19-5" data-name="Polgono 19" d="M5.5,0,11,10H0Z" transform="translate(0 11) rotate(-90)" fill="#472ea6"/>
      </g>
      <g id="Grupo_18511" data-name="Grupo 18511" transform="translate(1150.5 4475.5)">
        <path id="Trazado_34086-6" data-name="Trazado 34086" d="M6613.148,3118.828H6638" transform="translate(-6613.148 -3113.5)" fill="none" stroke="#472ea6" stroke-width="2"/>
        <path id="Polgono_19-6" data-name="Polgono 19" d="M5.5,0,11,10H0Z" transform="translate(32.5) rotate(90)" fill="#472ea6"/>
      </g>
    </g>
  </g>
</svg>
