<svg xmlns="http://www.w3.org/2000/svg" width="689.603" height="534.634" viewBox="0 0 689.603 534.634">
  <g id="Grupo_18917" data-name="Grupo 18917" transform="translate(-505.644 -6853.542)">
    <g id="Grupo_18867" data-name="Grupo 18867">
      <path id="Trazado_34090" data-name="Trazado 34090" d="M6202,5368.542V5793.37h587.526" transform="translate(-5619 1485)" fill="none" stroke="#472ea6" stroke-width="2"/>
      <path id="Trazado_34091" data-name="Trazado 34091" d="M6202,5580.956h227.755v211.336" transform="translate(-5619 1485)" fill="none" stroke="#707070" stroke-width="1"/>
      <path id="Trazado_34092" data-name="Trazado 34092" d="M6202,5580.955h300.354v263.336" transform="translate(-5619 1433)" fill="none" stroke="#707070" stroke-width="1"/>
      <path id="Trazado_34093" data-name="Trazado 34093" d="M6202,5742.24l482.354-345.323" transform="translate(-5620 1488)" fill="none" stroke="#fd8f25" stroke-width="2"/>
      <path id="Trazado_35260" data-name="Trazado 35260" d="M6.926-12.7a3.822,3.822,0,0,1,2.927,1.182A4.112,4.112,0,0,1,10.96-8.6a4.011,4.011,0,0,1-1.1,2.9A3.891,3.891,0,0,1,6.926-4.553H4.28V0H1.644V-12.7ZM6.486-6.759a1.938,1.938,0,0,0,1.45-.5A1.888,1.888,0,0,0,8.42-8.631a1.873,1.873,0,0,0-.488-1.358,1.92,1.92,0,0,0-1.446-.505H4.28v3.735ZM16.559-12.7h2.408V0H16.444V-10.1L13.526-7.383v-2.6Z" transform="translate(537 7018)" fill="#00223d"/>
      <path id="Trazado_35261" data-name="Trazado 35261" d="M6.926-12.7a3.822,3.822,0,0,1,2.927,1.182A4.112,4.112,0,0,1,10.96-8.6a4.011,4.011,0,0,1-1.1,2.9A3.891,3.891,0,0,1,6.926-4.553H4.28V0H1.644V-12.7ZM6.486-6.759a1.938,1.938,0,0,0,1.45-.5A1.888,1.888,0,0,0,8.42-8.631a1.873,1.873,0,0,0-.488-1.358,1.92,1.92,0,0,0-1.446-.505H4.28v3.735ZM16.919.176A3.961,3.961,0,0,1,13.5-1.468a8.3,8.3,0,0,1-1.191-4.887A8.3,8.3,0,0,1,13.5-11.241a3.966,3.966,0,0,1,3.419-1.635,3.957,3.957,0,0,1,3.41,1.635,8.3,8.3,0,0,1,1.187,4.887,8.3,8.3,0,0,1-1.191,4.887A3.952,3.952,0,0,1,16.919.176Zm0-2.285a1.67,1.67,0,0,0,1.525-1.042,7.251,7.251,0,0,0,.541-3.2,7.2,7.2,0,0,0-.545-3.2A1.673,1.673,0,0,0,16.919-10.6q-2.074,0-2.074,4.245T16.919-2.109Z" transform="translate(537 7071)" fill="#00223d"/>
      <path id="Trazado_35262" data-name="Trazado 35262" d="M14.212.527l-2.2.835L10.389-.466A7.2,7.2,0,0,1,7.33.176a7.043,7.043,0,0,1-3.371-.8,5.823,5.823,0,0,1-2.347-2.29A6.8,6.8,0,0,1,.756-6.354,6.8,6.8,0,0,1,1.613-9.8a5.808,5.808,0,0,1,2.342-2.281,7.068,7.068,0,0,1,3.375-.791,7.068,7.068,0,0,1,3.375.791A5.808,5.808,0,0,1,13.047-9.8a6.8,6.8,0,0,1,.857,3.45,6.394,6.394,0,0,1-1.687,4.579ZM3.384-6.354A4.247,4.247,0,0,0,4.491-3.248,3.8,3.8,0,0,0,7.33-2.118a3.8,3.8,0,0,0,2.839-1.129,4.247,4.247,0,0,0,1.107-3.107A4.02,4.02,0,0,0,10.16-9.343,3.851,3.851,0,0,0,7.33-10.45,3.851,3.851,0,0,0,4.5-9.343,4.02,4.02,0,0,0,3.384-6.354ZM20.206.176a3.961,3.961,0,0,1-3.415-1.644A8.3,8.3,0,0,1,15.6-6.354a8.3,8.3,0,0,1,1.187-4.887,3.966,3.966,0,0,1,3.419-1.635,3.957,3.957,0,0,1,3.41,1.635A8.3,8.3,0,0,1,24.8-6.354a8.3,8.3,0,0,1-1.191,4.887A3.952,3.952,0,0,1,20.206.176Zm0-2.285a1.67,1.67,0,0,0,1.525-1.042,7.251,7.251,0,0,0,.541-3.2,7.2,7.2,0,0,0-.545-3.2A1.673,1.673,0,0,0,20.206-10.6q-2.074,0-2.074,4.245T20.206-2.109Z" transform="translate(800 7309)" fill="#00223d"/>
      <path id="Trazado_35263" data-name="Trazado 35263" d="M14.212.527l-2.2.835L10.389-.466A7.2,7.2,0,0,1,7.33.176a7.043,7.043,0,0,1-3.371-.8,5.823,5.823,0,0,1-2.347-2.29A6.8,6.8,0,0,1,.756-6.354,6.8,6.8,0,0,1,1.613-9.8a5.808,5.808,0,0,1,2.342-2.281,7.068,7.068,0,0,1,3.375-.791,7.068,7.068,0,0,1,3.375.791A5.808,5.808,0,0,1,13.047-9.8a6.8,6.8,0,0,1,.857,3.45,6.394,6.394,0,0,1-1.687,4.579ZM3.384-6.354A4.247,4.247,0,0,0,4.491-3.248,3.8,3.8,0,0,0,7.33-2.118a3.8,3.8,0,0,0,2.839-1.129,4.247,4.247,0,0,0,1.107-3.107A4.02,4.02,0,0,0,10.16-9.343,3.851,3.851,0,0,0,7.33-10.45,3.851,3.851,0,0,0,4.5-9.343,4.02,4.02,0,0,0,3.384-6.354ZM19.846-12.7h2.408V0H19.731V-10.1L16.813-7.383v-2.6Z" transform="translate(870 7309)" fill="#00223d"/>
      <g id="Grupo_18514" data-name="Grupo 18514" transform="translate(835.5 7314.5)">
        <path id="Trazado_34086" data-name="Trazado 34086" d="M6613.148,3118.828H6638" transform="translate(-6613.148 -3113.5)" fill="none" stroke="#472ea6" stroke-width="2"/>
        <path id="Polígono_19" data-name="Polígono 19" d="M5.5,0,11,10H0Z" transform="translate(32.5) rotate(90)" fill="#472ea6"/>
      </g>
      <g id="Grupo_18515" data-name="Grupo 18515" transform="translate(516.25 7054.25) rotate(-90)">
        <path id="Trazado_34086-2" data-name="Trazado 34086" d="M6613.148,3118.828H6638" transform="translate(-6613.148 -3113.5)" fill="none" stroke="#472ea6" stroke-width="2"/>
        <path id="Polígono_19-2" data-name="Polígono 19" d="M5.5,0,11,10H0Z" transform="translate(32.5) rotate(90)" fill="#472ea6"/>
      </g>
      <path id="Trazado_35264" data-name="Trazado 35264" d="M6.926-12.7a3.822,3.822,0,0,1,2.927,1.182A4.112,4.112,0,0,1,10.96-8.6a4.011,4.011,0,0,1-1.1,2.9A3.891,3.891,0,0,1,6.926-4.553H4.28V0H1.644V-12.7ZM6.486-6.759a1.938,1.938,0,0,0,1.45-.5A1.888,1.888,0,0,0,8.42-8.631a1.873,1.873,0,0,0-.488-1.358,1.92,1.92,0,0,0-1.446-.505H4.28v3.735Zm8.78-.844a2.933,2.933,0,0,1,1.187-1.085,3.62,3.62,0,0,1,1.767-.453v2.259a3.423,3.423,0,0,0-2.162.545A2.379,2.379,0,0,0,15.39-4.4V0H12.841V-9.035h2.426ZM28.151-4.649l-.026.606h-6.7a2.339,2.339,0,0,0,.721,1.652,2.3,2.3,0,0,0,1.591.571,2.221,2.221,0,0,0,1.191-.312,1.918,1.918,0,0,0,.76-.91l2.32.343A3.945,3.945,0,0,1,26.429-.58a4.7,4.7,0,0,1-2.672.756,4.891,4.891,0,0,1-3.52-1.244,4.538,4.538,0,0,1-1.305-3.45,4.565,4.565,0,0,1,1.31-3.45,4.746,4.746,0,0,1,3.437-1.261,4.536,4.536,0,0,1,3.243,1.151A4.517,4.517,0,0,1,28.151-4.649ZM23.7-7.436A2,2,0,0,0,21.5-5.7h4.148a1.9,1.9,0,0,0-.624-1.292A1.978,1.978,0,0,0,23.7-7.436ZM34.163.167a4.827,4.827,0,0,1-3.489-1.3A4.493,4.493,0,0,1,29.32-4.526a4.483,4.483,0,0,1,1.349-3.393,4.842,4.842,0,0,1,3.494-1.292,4.814,4.814,0,0,1,2.927.87A3.885,3.885,0,0,1,38.6-5.889l-2.338.255a2,2,0,0,0-.756-1.187,2.3,2.3,0,0,0-1.371-.4,2.072,2.072,0,0,0-1.652.738,2.894,2.894,0,0,0-.633,1.951,2.9,2.9,0,0,0,.633,1.947,2.067,2.067,0,0,0,1.652.743,2.278,2.278,0,0,0,1.367-.4,2.05,2.05,0,0,0,.76-1.187l2.338.255A3.9,3.9,0,0,1,37.077-.712,4.8,4.8,0,0,1,34.163.167ZM41.7-10.389a1.421,1.421,0,0,1-1.037-.426,1.4,1.4,0,0,1-.431-1.033,1.382,1.382,0,0,1,.435-1.024A1.425,1.425,0,0,1,41.7-13.3a1.4,1.4,0,0,1,1.02.426,1.389,1.389,0,0,1,.431,1.024,1.4,1.4,0,0,1-.431,1.033A1.4,1.4,0,0,1,41.7-10.389ZM40.4,0V-9.035h2.549V0Zm9.378.176a5.681,5.681,0,0,1-2.558-.554A4.138,4.138,0,0,1,45.47-2a4.846,4.846,0,0,1-.637-2.522A4.42,4.42,0,0,1,46.2-7.954a5.086,5.086,0,0,1,3.577-1.257,5.1,5.1,0,0,1,3.586,1.257,4.42,4.42,0,0,1,1.371,3.428,4.444,4.444,0,0,1-1.371,3.441A5.088,5.088,0,0,1,49.781.176Zm-.026-2.013a2.319,2.319,0,0,0,1.789-.738,2.764,2.764,0,0,0,.681-1.951,2.764,2.764,0,0,0-.681-1.951,2.319,2.319,0,0,0-1.789-.738,2.234,2.234,0,0,0-1.736.743,2.789,2.789,0,0,0-.672,1.947,2.789,2.789,0,0,0,.672,1.947A2.234,2.234,0,0,0,49.755-1.837Z" transform="translate(504 6891)" fill="#00223d"/>
      <path id="Trazado_35265" data-name="Trazado 35265" d="M4.28-2.329H8.262V0H1.644V-12.7H4.28ZM17.35-2.452a8.453,8.453,0,0,0,.22,2.206V0H15.205L15-.984a2.938,2.938,0,0,1-1.266.87A4.664,4.664,0,0,1,12.1.176,4.3,4.3,0,0,1,11.259.1a2.868,2.868,0,0,1-.76-.268,2.307,2.307,0,0,1-.628-.47,2.062,2.062,0,0,1-.422-.716,2.853,2.853,0,0,1-.158-.98,2.718,2.718,0,0,1,.167-.98A2.3,2.3,0,0,1,9.9-4.052a2.666,2.666,0,0,1,.712-.536,5.447,5.447,0,0,1,.9-.387,10.712,10.712,0,0,1,1.072-.281l1.485-.334a1.638,1.638,0,0,0,.672-.286.57.57,0,0,0,.2-.453.932.932,0,0,0-.444-.87,2.072,2.072,0,0,0-1.077-.264,1.549,1.549,0,0,0-1.767,1.38L9.4-6.486a3.034,3.034,0,0,1,1.31-2.061,5.2,5.2,0,0,1,2.839-.664q3.8,0,3.8,3.261Zm-4.456.914a2.036,2.036,0,0,0,1.564-.655,2.759,2.759,0,0,0,.606-1.938l-2.145.606a2.534,2.534,0,0,0-.9.369.758.758,0,0,0-.312.65.842.842,0,0,0,.334.716A1.382,1.382,0,0,0,12.894-1.538ZM28.7.176a5.681,5.681,0,0,1-2.558-.554A4.138,4.138,0,0,1,24.385-2a4.846,4.846,0,0,1-.637-2.522,4.42,4.42,0,0,1,1.371-3.428A5.086,5.086,0,0,1,28.7-9.211a5.1,5.1,0,0,1,3.586,1.257,4.42,4.42,0,0,1,1.371,3.428,4.444,4.444,0,0,1-1.371,3.441A5.088,5.088,0,0,1,28.7.176ZM28.67-1.837a2.319,2.319,0,0,0,1.789-.738,2.764,2.764,0,0,0,.681-1.951,2.764,2.764,0,0,0-.681-1.951,2.319,2.319,0,0,0-1.789-.738,2.234,2.234,0,0,0-1.736.743,2.789,2.789,0,0,0-.672,1.947,2.789,2.789,0,0,0,.672,1.947A2.234,2.234,0,0,0,28.67-1.837Zm11.962-9.642h-.053q-.246,0-.374,0t-.36.031a1.459,1.459,0,0,0-.365.079,1.859,1.859,0,0,0-.3.163.809.809,0,0,0-.264.264,1.593,1.593,0,0,0-.158.391,2.042,2.042,0,0,0-.066.545v.967h1.942v1.942H38.689V0H36.167V-7.093H34.4V-9.035h1.767v-.976a5.284,5.284,0,0,1,.114-1.151,3.5,3.5,0,0,1,.308-.875,2.047,2.047,0,0,1,.514-.628,3.034,3.034,0,0,1,.668-.422,3.817,3.817,0,0,1,.831-.255,7.285,7.285,0,0,1,.954-.127q.47-.031,1.077-.031Zm9.9,6.829-.026.606H43.8a2.339,2.339,0,0,0,.721,1.652,2.3,2.3,0,0,0,1.591.571,2.221,2.221,0,0,0,1.191-.312,1.918,1.918,0,0,0,.76-.91l2.32.343A3.945,3.945,0,0,1,48.806-.58a4.7,4.7,0,0,1-2.672.756,4.891,4.891,0,0,1-3.52-1.244,4.538,4.538,0,0,1-1.305-3.45,4.565,4.565,0,0,1,1.31-3.45,4.746,4.746,0,0,1,3.437-1.261A4.536,4.536,0,0,1,49.3-8.077,4.517,4.517,0,0,1,50.528-4.649ZM46.072-7.436a2,2,0,0,0-2.2,1.74h4.148A1.9,1.9,0,0,0,47.4-6.987,1.978,1.978,0,0,0,46.072-7.436ZM54.879-7.6a2.933,2.933,0,0,1,1.187-1.085,3.62,3.62,0,0,1,1.767-.453v2.259a3.423,3.423,0,0,0-2.162.545A2.379,2.379,0,0,0,55-4.4V0H52.453V-9.035h2.426ZM63.2,0a2.729,2.729,0,0,1-2.039-.734,2.854,2.854,0,0,1-.721-2.087V-7.093H58.667V-9.035h.571a1.491,1.491,0,0,0,1.125-.378,1.946,1.946,0,0,0,.36-1.345v-1.2h2.285v2.918h1.863v1.942H63.009v4q0,1.169,1.046,1.169h.817V0Zm11-2.452a8.453,8.453,0,0,0,.22,2.206V0H72.062l-.2-.984a2.938,2.938,0,0,1-1.266.87,4.664,4.664,0,0,1-1.635.29A4.3,4.3,0,0,1,68.115.1a2.868,2.868,0,0,1-.76-.268,2.307,2.307,0,0,1-.628-.47,2.062,2.062,0,0,1-.422-.716,2.853,2.853,0,0,1-.158-.98,2.718,2.718,0,0,1,.167-.98,2.3,2.3,0,0,1,.439-.734,2.666,2.666,0,0,1,.712-.536,5.447,5.447,0,0,1,.9-.387,10.712,10.712,0,0,1,1.072-.281l1.485-.334a1.638,1.638,0,0,0,.672-.286.57.57,0,0,0,.2-.453.932.932,0,0,0-.444-.87,2.072,2.072,0,0,0-1.077-.264A1.549,1.549,0,0,0,68.5-6.082l-2.241-.4a3.034,3.034,0,0,1,1.31-2.061,5.2,5.2,0,0,1,2.839-.664q3.8,0,3.8,3.261Zm-4.456.914a2.036,2.036,0,0,0,1.564-.655,2.759,2.759,0,0,0,.606-1.938l-2.145.606a2.534,2.534,0,0,0-.9.369.758.758,0,0,0-.312.65.842.842,0,0,0,.334.716A1.382,1.382,0,0,0,69.75-1.538Zm19-.914a8.453,8.453,0,0,0,.22,2.206V0H86.607l-.2-.984a2.938,2.938,0,0,1-1.266.87A4.664,4.664,0,0,1,83.5.176,4.3,4.3,0,0,1,82.661.1a2.868,2.868,0,0,1-.76-.268,2.307,2.307,0,0,1-.628-.47,2.062,2.062,0,0,1-.422-.716,2.853,2.853,0,0,1-.158-.98,2.718,2.718,0,0,1,.167-.98,2.3,2.3,0,0,1,.439-.734,2.666,2.666,0,0,1,.712-.536,5.447,5.447,0,0,1,.9-.387,10.712,10.712,0,0,1,1.072-.281l1.485-.334a1.638,1.638,0,0,0,.672-.286.57.57,0,0,0,.2-.453.932.932,0,0,0-.444-.87,2.072,2.072,0,0,0-1.077-.264,1.549,1.549,0,0,0-1.767,1.38l-2.241-.4a3.034,3.034,0,0,1,1.31-2.061,5.2,5.2,0,0,1,2.839-.664q3.8,0,3.8,3.261ZM84.3-1.538a2.036,2.036,0,0,0,1.564-.655,2.759,2.759,0,0,0,.606-1.938l-2.145.606a2.534,2.534,0,0,0-.9.369.758.758,0,0,0-.312.65.842.842,0,0,0,.334.716A1.382,1.382,0,0,0,84.3-1.538Zm12.9-7.5h2.531V0h-2.4l-.062-1.09A3.45,3.45,0,0,1,94.395.176a3.522,3.522,0,0,1-2.5-.813,3.014,3.014,0,0,1-.87-2.316V-9.035h2.54V-3.5a1.562,1.562,0,0,0,.453,1.239,1.718,1.718,0,0,0,1.173.4,2.038,2.038,0,0,0,1.437-.514A2.209,2.209,0,0,0,97.2-4.052Zm15.855-.176a3.452,3.452,0,0,1,2.329.734,2.626,2.626,0,0,1,.853,2.1V0H113.7V-5.651a1.509,1.509,0,0,0-.4-1.143,1.416,1.416,0,0,0-1.02-.387,1.633,1.633,0,0,0-1.23.492,2.235,2.235,0,0,0-.475,1.591V0h-2.558V-5.625a1.549,1.549,0,0,0-.4-1.165,1.441,1.441,0,0,0-1.046-.391,1.581,1.581,0,0,0-1.222.519,2.476,2.476,0,0,0-.475,1.7V0h-2.522V-9.035h2.522v1.063a3.072,3.072,0,0,1,2.619-1.239,3.863,3.863,0,0,1,1.7.347,2.315,2.315,0,0,1,1.068,1.006A3.2,3.2,0,0,1,113.054-9.211ZM127.2-4.649l-.026.606h-6.7a2.339,2.339,0,0,0,.721,1.652,2.3,2.3,0,0,0,1.591.571,2.221,2.221,0,0,0,1.191-.312,1.918,1.918,0,0,0,.76-.91l2.32.343A3.945,3.945,0,0,1,125.473-.58,4.7,4.7,0,0,1,122.8.176a4.891,4.891,0,0,1-3.52-1.244,4.538,4.538,0,0,1-1.305-3.45,4.565,4.565,0,0,1,1.31-3.45,4.746,4.746,0,0,1,3.437-1.261,4.536,4.536,0,0,1,3.243,1.151A4.517,4.517,0,0,1,127.2-4.649Zm-4.456-2.786a2,2,0,0,0-2.2,1.74h4.148a1.9,1.9,0,0,0-.624-1.292A1.978,1.978,0,0,0,122.739-7.436Zm11.716-1.775a3.522,3.522,0,0,1,2.5.813,3.014,3.014,0,0,1,.87,2.316V0h-2.54V-5.537a1.574,1.574,0,0,0-.453-1.248,1.705,1.705,0,0,0-1.165-.4,2.379,2.379,0,0,0-.756.114,1.942,1.942,0,0,0-.633.356,1.573,1.573,0,0,0-.453.681,3.15,3.15,0,0,0-.171,1.046V0H129.12V-9.035h2.531v1A3.481,3.481,0,0,1,134.455-9.211ZM143.64,0A2.729,2.729,0,0,1,141.6-.734a2.854,2.854,0,0,1-.721-2.087V-7.093H139.1V-9.035h.571a1.491,1.491,0,0,0,1.125-.378,1.946,1.946,0,0,0,.36-1.345v-1.2h2.285v2.918h1.863v1.942h-1.863v4q0,1.169,1.046,1.169h.817V0Zm11-2.452a8.453,8.453,0,0,0,.22,2.206V0H152.5l-.2-.984a2.938,2.938,0,0,1-1.266.87,4.664,4.664,0,0,1-1.635.29A4.3,4.3,0,0,1,148.553.1a2.868,2.868,0,0,1-.76-.268,2.307,2.307,0,0,1-.628-.47,2.062,2.062,0,0,1-.422-.716,2.853,2.853,0,0,1-.158-.98,2.718,2.718,0,0,1,.167-.98,2.3,2.3,0,0,1,.439-.734,2.666,2.666,0,0,1,.712-.536,5.447,5.447,0,0,1,.9-.387,10.712,10.712,0,0,1,1.072-.281l1.485-.334a1.638,1.638,0,0,0,.672-.286.57.57,0,0,0,.2-.453.932.932,0,0,0-.444-.87,2.072,2.072,0,0,0-1.077-.264,1.549,1.549,0,0,0-1.767,1.38l-2.241-.4a3.034,3.034,0,0,1,1.31-2.061,5.2,5.2,0,0,1,2.839-.664q3.8,0,3.8,3.261Zm-4.456.914a2.036,2.036,0,0,0,1.564-.655,2.759,2.759,0,0,0,.606-1.938l-2.145.606a2.534,2.534,0,0,0-.9.369A.758.758,0,0,0,149-2.5a.842.842,0,0,0,.334.716A1.382,1.382,0,0,0,150.188-1.538ZM5.4,30.167a4.827,4.827,0,0,1-3.489-1.3A4.493,4.493,0,0,1,.554,25.474,4.483,4.483,0,0,1,1.9,22.081,4.842,4.842,0,0,1,5.4,20.789a4.814,4.814,0,0,1,2.927.87,3.885,3.885,0,0,1,1.512,2.452L7.5,24.366a2,2,0,0,0-.756-1.187,2.3,2.3,0,0,0-1.371-.4,2.072,2.072,0,0,0-1.652.738,2.894,2.894,0,0,0-.633,1.951,2.9,2.9,0,0,0,.633,1.947,2.067,2.067,0,0,0,1.652.743,2.278,2.278,0,0,0,1.367-.4,2.05,2.05,0,0,0,.76-1.187l2.338.255A3.9,3.9,0,0,1,8.31,29.288,4.8,4.8,0,0,1,5.4,30.167Zm12.226-9.2h2.531V30h-2.4l-.062-1.09a3.45,3.45,0,0,1-2.874,1.266,3.522,3.522,0,0,1-2.5-.813,3.014,3.014,0,0,1-.87-2.316V20.965h2.54V26.5a1.562,1.562,0,0,0,.453,1.239,1.718,1.718,0,0,0,1.173.4,2.038,2.038,0,0,0,1.437-.514,2.209,2.209,0,0,0,.567-1.674Zm12.56,6.583a8.453,8.453,0,0,0,.22,2.206V30H28.037l-.2-.984a2.938,2.938,0,0,1-1.266.87,4.664,4.664,0,0,1-1.635.29,4.3,4.3,0,0,1-.844-.079,2.868,2.868,0,0,1-.76-.268,2.307,2.307,0,0,1-.628-.47,2.062,2.062,0,0,1-.422-.716,2.853,2.853,0,0,1-.158-.98,2.718,2.718,0,0,1,.167-.98,2.3,2.3,0,0,1,.439-.734,2.666,2.666,0,0,1,.712-.536,5.447,5.447,0,0,1,.9-.387,10.712,10.712,0,0,1,1.072-.281l1.485-.334a1.638,1.638,0,0,0,.672-.286.57.57,0,0,0,.2-.453.932.932,0,0,0-.444-.87,2.072,2.072,0,0,0-1.077-.264,1.549,1.549,0,0,0-1.767,1.38l-2.241-.4a3.034,3.034,0,0,1,1.31-2.061,5.2,5.2,0,0,1,2.839-.664q3.8,0,3.8,3.261Zm-4.456.914a2.036,2.036,0,0,0,1.564-.655,2.759,2.759,0,0,0,.606-1.938l-2.145.606a2.534,2.534,0,0,0-.9.369.758.758,0,0,0-.312.65.842.842,0,0,0,.334.716A1.382,1.382,0,0,0,25.726,28.462Zm12.252-7.673a3.522,3.522,0,0,1,2.5.813,3.014,3.014,0,0,1,.87,2.316V30H38.8V24.463a1.574,1.574,0,0,0-.453-1.248,1.705,1.705,0,0,0-1.165-.4,2.379,2.379,0,0,0-.756.114,1.942,1.942,0,0,0-.633.356,1.573,1.573,0,0,0-.453.681,3.15,3.15,0,0,0-.171,1.046V30H32.643V20.965h2.531v1A3.481,3.481,0,0,1,37.978,20.789ZM50.2,16.5h2.531V30h-2.4l-.062-1.178a2.58,2.58,0,0,1-1.147,1.024,3.861,3.861,0,0,1-1.692.365,4.394,4.394,0,0,1-1.687-.325,4.064,4.064,0,0,1-2.32-2.408,5.5,5.5,0,0,1-.343-1.978,5.137,5.137,0,0,1,.6-2.518,4.1,4.1,0,0,1,1.578-1.639,4.345,4.345,0,0,1,2.175-.554,3.957,3.957,0,0,1,1.639.33,2.559,2.559,0,0,1,1.129.936ZM48.015,28.11a2.253,2.253,0,0,0,1.709-.721,2.96,2.96,0,0,0,0-3.784,2.251,2.251,0,0,0-1.705-.725,2.277,2.277,0,0,0-1.718.712,2.644,2.644,0,0,0-.681,1.907,2.631,2.631,0,0,0,.681,1.9A2.277,2.277,0,0,0,48.015,28.11Zm11.549,2.065a5.681,5.681,0,0,1-2.558-.554A4.138,4.138,0,0,1,55.252,28a4.846,4.846,0,0,1-.637-2.522,4.42,4.42,0,0,1,1.371-3.428,5.731,5.731,0,0,1,7.163,0,4.42,4.42,0,0,1,1.371,3.428,4.444,4.444,0,0,1-1.371,3.441A5.088,5.088,0,0,1,59.563,30.176Zm-.026-2.013a2.319,2.319,0,0,0,1.789-.738,2.764,2.764,0,0,0,.681-1.951,2.764,2.764,0,0,0-.681-1.951,2.319,2.319,0,0,0-1.789-.738,2.234,2.234,0,0,0-1.736.743,3.155,3.155,0,0,0,0,3.894A2.234,2.234,0,0,0,59.537,28.163Zm18.949-.615a8.453,8.453,0,0,0,.22,2.206V30H76.342l-.2-.984a2.938,2.938,0,0,1-1.266.87,4.664,4.664,0,0,1-1.635.29A4.3,4.3,0,0,1,72.4,30.1a2.868,2.868,0,0,1-.76-.268,2.307,2.307,0,0,1-.628-.47,2.062,2.062,0,0,1-.422-.716,2.853,2.853,0,0,1-.158-.98,2.718,2.718,0,0,1,.167-.98,2.3,2.3,0,0,1,.439-.734,2.666,2.666,0,0,1,.712-.536,5.447,5.447,0,0,1,.9-.387,10.712,10.712,0,0,1,1.072-.281L75.2,24.41a1.638,1.638,0,0,0,.672-.286.57.57,0,0,0,.2-.453.932.932,0,0,0-.444-.87,2.072,2.072,0,0,0-1.077-.264,1.549,1.549,0,0,0-1.767,1.38l-2.241-.4a3.034,3.034,0,0,1,1.31-2.061,5.2,5.2,0,0,1,2.839-.664q3.8,0,3.8,3.261Zm-4.456.914a2.036,2.036,0,0,0,1.564-.655,2.759,2.759,0,0,0,.606-1.938l-2.145.606a2.534,2.534,0,0,0-.9.369.758.758,0,0,0-.312.65.842.842,0,0,0,.334.716A1.382,1.382,0,0,0,74.03,28.462Zm12.9-7.5h2.531V30h-2.4L87,28.91a3.45,3.45,0,0,1-2.874,1.266,3.522,3.522,0,0,1-2.5-.813,3.014,3.014,0,0,1-.87-2.316V20.965H83.3V26.5a1.562,1.562,0,0,0,.453,1.239,1.718,1.718,0,0,0,1.173.4,2.038,2.038,0,0,0,1.437-.514,2.209,2.209,0,0,0,.567-1.674Zm15.855-.176a3.452,3.452,0,0,1,2.329.734,2.626,2.626,0,0,1,.853,2.1V30h-2.531V24.349a1.509,1.509,0,0,0-.4-1.143,1.416,1.416,0,0,0-1.02-.387,1.633,1.633,0,0,0-1.23.492,2.235,2.235,0,0,0-.475,1.591V30H97.752V24.375a1.549,1.549,0,0,0-.4-1.165,1.441,1.441,0,0,0-1.046-.391,1.581,1.581,0,0,0-1.222.519,2.476,2.476,0,0,0-.475,1.7V30H92.083V20.965h2.522v1.063a3.072,3.072,0,0,1,2.619-1.239,3.863,3.863,0,0,1,1.7.347,2.315,2.315,0,0,1,1.068,1.006A3.2,3.2,0,0,1,102.788,20.789Zm14.142,4.562-.026.606h-6.7a2.339,2.339,0,0,0,.721,1.652,2.3,2.3,0,0,0,1.591.571,2.221,2.221,0,0,0,1.191-.312,1.918,1.918,0,0,0,.76-.91l2.32.343a3.945,3.945,0,0,1-1.582,2.118,4.7,4.7,0,0,1-2.672.756,4.891,4.891,0,0,1-3.52-1.244,4.538,4.538,0,0,1-1.305-3.45,4.565,4.565,0,0,1,1.31-3.45,4.746,4.746,0,0,1,3.437-1.261,4.536,4.536,0,0,1,3.243,1.151A4.517,4.517,0,0,1,116.93,25.351Zm-4.456-2.786a2,2,0,0,0-2.2,1.74h4.148a1.9,1.9,0,0,0-.624-1.292A1.978,1.978,0,0,0,112.474,22.564Zm11.716-1.775a3.522,3.522,0,0,1,2.5.813,3.014,3.014,0,0,1,.87,2.316V30h-2.54V24.463a1.574,1.574,0,0,0-.453-1.248,1.705,1.705,0,0,0-1.165-.4,2.379,2.379,0,0,0-.756.114,1.942,1.942,0,0,0-.633.356,1.573,1.573,0,0,0-.453.681,3.15,3.15,0,0,0-.171,1.046V30h-2.531V20.965h2.531v1A3.481,3.481,0,0,1,124.189,20.789ZM133.374,30a2.729,2.729,0,0,1-2.039-.734,2.854,2.854,0,0,1-.721-2.087V22.907h-1.775V20.965h.571a1.491,1.491,0,0,0,1.125-.378,1.946,1.946,0,0,0,.36-1.345v-1.2h2.285v2.918h1.863v1.942h-1.863v4q0,1.169,1.046,1.169h.817V30Zm11-2.452a8.453,8.453,0,0,0,.22,2.206V30h-2.364l-.2-.984a2.938,2.938,0,0,1-1.266.87,4.664,4.664,0,0,1-1.635.29,4.3,4.3,0,0,1-.844-.079,2.868,2.868,0,0,1-.76-.268,2.307,2.307,0,0,1-.628-.47,2.062,2.062,0,0,1-.422-.716,2.853,2.853,0,0,1-.158-.98,2.718,2.718,0,0,1,.167-.98,2.3,2.3,0,0,1,.439-.734,2.666,2.666,0,0,1,.712-.536,5.447,5.447,0,0,1,.9-.387,10.712,10.712,0,0,1,1.072-.281l1.485-.334a1.638,1.638,0,0,0,.672-.286.57.57,0,0,0,.2-.453.932.932,0,0,0-.444-.87,2.072,2.072,0,0,0-1.077-.264,1.549,1.549,0,0,0-1.767,1.38l-2.241-.4a3.034,3.034,0,0,1,1.31-2.061,5.2,5.2,0,0,1,2.839-.664q3.8,0,3.8,3.261Zm-4.456.914a2.036,2.036,0,0,0,1.564-.655,2.759,2.759,0,0,0,.606-1.938l-2.145.606a2.534,2.534,0,0,0-.9.369.758.758,0,0,0-.312.65.842.842,0,0,0,.334.716A1.382,1.382,0,0,0,139.922,28.462Zm20.092-3.111-.026.606h-6.7a2.339,2.339,0,0,0,.721,1.652,2.3,2.3,0,0,0,1.591.571,2.221,2.221,0,0,0,1.191-.312,1.918,1.918,0,0,0,.76-.91l2.32.343a3.945,3.945,0,0,1-1.582,2.118,4.7,4.7,0,0,1-2.672.756,4.891,4.891,0,0,1-3.52-1.244,4.538,4.538,0,0,1-1.305-3.45,4.565,4.565,0,0,1,1.31-3.45,4.746,4.746,0,0,1,3.437-1.261,4.536,4.536,0,0,1,3.243,1.151A4.517,4.517,0,0,1,160.014,25.351Zm-4.456-2.786a2,2,0,0,0-2.2,1.74h4.148a1.9,1.9,0,0,0-.624-1.292A1.978,1.978,0,0,0,155.558,22.564ZM161.938,30V16.5H164.5V30Zm15.152-9.211a4.394,4.394,0,0,1,1.688.325,4.223,4.223,0,0,1,1.384.914,4.135,4.135,0,0,1,.936,1.49,5.9,5.9,0,0,1,0,3.964,4.135,4.135,0,0,1-.936,1.49,4.223,4.223,0,0,1-1.384.914,4.394,4.394,0,0,1-1.687.325,3.921,3.921,0,0,1-1.635-.334,2.562,2.562,0,0,1-1.134-.949v5.467h-2.531V20.965h2.4l.07,1.213a2.475,2.475,0,0,1,1.129-1.024A3.881,3.881,0,0,1,177.091,20.789Zm-.571,7.321a2.274,2.274,0,0,0,1.709-.708,2.628,2.628,0,0,0,.681-1.9,2.628,2.628,0,0,0-.681-1.9,2.419,2.419,0,0,0-3.432.013,2.947,2.947,0,0,0,0,3.779A2.278,2.278,0,0,0,176.52,28.11Zm9.255-5.713a2.933,2.933,0,0,1,1.187-1.085,3.62,3.62,0,0,1,1.767-.453v2.259a3.423,3.423,0,0,0-2.162.545A2.379,2.379,0,0,0,185.9,25.6V30h-2.549V20.965h2.426Zm12.885,2.953-.026.606h-6.7a2.339,2.339,0,0,0,.721,1.652,2.3,2.3,0,0,0,1.591.571,2.221,2.221,0,0,0,1.191-.312,1.918,1.918,0,0,0,.76-.91l2.32.343a3.945,3.945,0,0,1-1.582,2.118,4.7,4.7,0,0,1-2.672.756,4.891,4.891,0,0,1-3.52-1.244,4.538,4.538,0,0,1-1.305-3.45,4.565,4.565,0,0,1,1.31-3.45,4.746,4.746,0,0,1,3.437-1.261,4.536,4.536,0,0,1,3.243,1.151A4.517,4.517,0,0,1,198.659,25.351ZM194.2,22.564a2,2,0,0,0-2.2,1.74h4.148a1.9,1.9,0,0,0-.624-1.292A1.978,1.978,0,0,0,194.2,22.564Zm10.468,7.6a4.827,4.827,0,0,1-3.489-1.3,4.493,4.493,0,0,1-1.354-3.393,4.483,4.483,0,0,1,1.349-3.393,5.364,5.364,0,0,1,6.42-.422,3.885,3.885,0,0,1,1.512,2.452l-2.338.255a2,2,0,0,0-.756-1.187,2.3,2.3,0,0,0-1.371-.4,2.072,2.072,0,0,0-1.652.738,2.894,2.894,0,0,0-.633,1.951,2.9,2.9,0,0,0,.633,1.947,2.067,2.067,0,0,0,1.652.743,2.278,2.278,0,0,0,1.367-.4,2.05,2.05,0,0,0,.76-1.187l2.338.255a3.9,3.9,0,0,1-1.525,2.452A4.8,4.8,0,0,1,204.671,30.167ZM212.2,19.611a1.421,1.421,0,0,1-1.037-.426,1.4,1.4,0,0,1-.431-1.033,1.382,1.382,0,0,1,.435-1.024A1.425,1.425,0,0,1,212.2,16.7a1.455,1.455,0,0,1,0,2.909ZM210.911,30V20.965h2.549V30Zm9.378.176a5.681,5.681,0,0,1-2.558-.554A4.138,4.138,0,0,1,215.978,28a4.846,4.846,0,0,1-.637-2.522,4.42,4.42,0,0,1,1.371-3.428,5.731,5.731,0,0,1,7.163,0,4.42,4.42,0,0,1,1.371,3.428,4.444,4.444,0,0,1-1.371,3.441A5.088,5.088,0,0,1,220.289,30.176Zm-.026-2.013a2.319,2.319,0,0,0,1.789-.738,2.764,2.764,0,0,0,.681-1.951,2.764,2.764,0,0,0-.681-1.951,2.319,2.319,0,0,0-1.789-.738,2.234,2.234,0,0,0-1.736.743,3.155,3.155,0,0,0,0,3.894A2.234,2.234,0,0,0,220.263,28.163Z" transform="translate(970 7083)" fill="#00223d"/>
      <path id="Trazado_35266" data-name="Trazado 35266" d="M7.269.176A7.089,7.089,0,0,1,4.68-.29a6.087,6.087,0,0,1-2.061-1.3A5.864,5.864,0,0,1,1.266-3.656a7.2,7.2,0,0,1-.492-2.7A6.879,6.879,0,0,1,1.617-9.8a5.744,5.744,0,0,1,2.316-2.281,6.935,6.935,0,0,1,3.335-.791A6.739,6.739,0,0,1,11-11.848a5.629,5.629,0,0,1,2.276,2.83l-2.461.9A3.479,3.479,0,0,0,9.448-9.835a3.891,3.891,0,0,0-2.18-.615A3.73,3.73,0,0,0,4.491-9.343,4.075,4.075,0,0,0,3.4-6.354,4.081,4.081,0,0,0,4.5-3.362,3.726,3.726,0,0,0,7.269-2.25a3.876,3.876,0,0,0,2.175-.62,3.5,3.5,0,0,0,1.367-1.718l2.461.9A5.652,5.652,0,0,1,11-.857,6.718,6.718,0,0,1,7.269.176Zm15.24-2.628a8.453,8.453,0,0,0,.22,2.206V0H20.364l-.2-.984a2.938,2.938,0,0,1-1.266.87,4.664,4.664,0,0,1-1.635.29A4.3,4.3,0,0,1,16.418.1a2.868,2.868,0,0,1-.76-.268,2.307,2.307,0,0,1-.628-.47,2.062,2.062,0,0,1-.422-.716,2.853,2.853,0,0,1-.158-.98,2.718,2.718,0,0,1,.167-.98,2.3,2.3,0,0,1,.439-.734,2.666,2.666,0,0,1,.712-.536,5.447,5.447,0,0,1,.9-.387,10.712,10.712,0,0,1,1.072-.281l1.485-.334a1.638,1.638,0,0,0,.672-.286.57.57,0,0,0,.2-.453.932.932,0,0,0-.444-.87,2.072,2.072,0,0,0-1.077-.264A1.549,1.549,0,0,0,16.8-6.082l-2.241-.4a3.034,3.034,0,0,1,1.31-2.061,5.2,5.2,0,0,1,2.839-.664q3.8,0,3.8,3.261Zm-4.456.914a2.036,2.036,0,0,0,1.564-.655,2.759,2.759,0,0,0,.606-1.938l-2.145.606a2.534,2.534,0,0,0-.9.369.758.758,0,0,0-.312.65.842.842,0,0,0,.334.716A1.382,1.382,0,0,0,18.053-1.538ZM30.3-9.211a3.522,3.522,0,0,1,2.5.813,3.014,3.014,0,0,1,.87,2.316V0h-2.54V-5.537a1.574,1.574,0,0,0-.453-1.248,1.705,1.705,0,0,0-1.165-.4,2.379,2.379,0,0,0-.756.114,1.942,1.942,0,0,0-.633.356,1.573,1.573,0,0,0-.453.681A3.15,3.15,0,0,0,27.5-4.983V0H24.97V-9.035H27.5v1A3.481,3.481,0,0,1,30.3-9.211ZM39.489,0A2.729,2.729,0,0,1,37.45-.734a2.854,2.854,0,0,1-.721-2.087V-7.093H34.954V-9.035h.571a1.491,1.491,0,0,0,1.125-.378,1.946,1.946,0,0,0,.36-1.345v-1.2H39.3v2.918h1.863v1.942H39.3v4q0,1.169,1.046,1.169h.817V0Zm4.922-10.389a1.421,1.421,0,0,1-1.037-.426,1.4,1.4,0,0,1-.431-1.033,1.382,1.382,0,0,1,.435-1.024,1.425,1.425,0,0,1,1.033-.426,1.4,1.4,0,0,1,1.02.426,1.389,1.389,0,0,1,.431,1.024,1.4,1.4,0,0,1-.431,1.033A1.4,1.4,0,0,1,44.411-10.389ZM43.119,0V-9.035h2.549V0ZM54.694-13.5h2.531V0h-2.4l-.062-1.178A2.58,2.58,0,0,1,53.618-.154a3.861,3.861,0,0,1-1.692.365,4.394,4.394,0,0,1-1.687-.325,4.189,4.189,0,0,1-1.384-.918,4.187,4.187,0,0,1-.936-1.49A5.5,5.5,0,0,1,47.575-4.5a5.137,5.137,0,0,1,.6-2.518A4.1,4.1,0,0,1,49.75-8.657a4.345,4.345,0,0,1,2.175-.554,3.957,3.957,0,0,1,1.639.33,2.559,2.559,0,0,1,1.129.936ZM52.506-1.89a2.253,2.253,0,0,0,1.709-.721A2.638,2.638,0,0,0,54.9-4.5a2.644,2.644,0,0,0-.686-1.894,2.251,2.251,0,0,0-1.705-.725,2.277,2.277,0,0,0-1.718.712A2.644,2.644,0,0,0,50.106-4.5a2.631,2.631,0,0,0,.681,1.9A2.277,2.277,0,0,0,52.506-1.89Zm14.748-.562a8.453,8.453,0,0,0,.22,2.206V0H65.109l-.2-.984a2.938,2.938,0,0,1-1.266.87,4.664,4.664,0,0,1-1.635.29A4.3,4.3,0,0,1,61.163.1a2.868,2.868,0,0,1-.76-.268,2.307,2.307,0,0,1-.628-.47,2.062,2.062,0,0,1-.422-.716,2.853,2.853,0,0,1-.158-.98,2.718,2.718,0,0,1,.167-.98,2.3,2.3,0,0,1,.439-.734,2.666,2.666,0,0,1,.712-.536,5.447,5.447,0,0,1,.9-.387,10.712,10.712,0,0,1,1.072-.281l1.485-.334a1.638,1.638,0,0,0,.672-.286.57.57,0,0,0,.2-.453.932.932,0,0,0-.444-.87,2.072,2.072,0,0,0-1.077-.264,1.549,1.549,0,0,0-1.767,1.38l-2.241-.4a3.034,3.034,0,0,1,1.31-2.061,5.2,5.2,0,0,1,2.839-.664q3.8,0,3.8,3.261ZM62.8-1.538a2.036,2.036,0,0,0,1.564-.655,2.759,2.759,0,0,0,.606-1.938l-2.145.606a2.534,2.534,0,0,0-.9.369.758.758,0,0,0-.312.65.842.842,0,0,0,.334.716A1.382,1.382,0,0,0,62.8-1.538ZM75.92-13.5h2.531V0h-2.4L75.99-1.178A2.58,2.58,0,0,1,74.843-.154a3.861,3.861,0,0,1-1.692.365,4.394,4.394,0,0,1-1.687-.325,4.189,4.189,0,0,1-1.384-.918,4.187,4.187,0,0,1-.936-1.49A5.5,5.5,0,0,1,68.8-4.5a5.137,5.137,0,0,1,.6-2.518,4.1,4.1,0,0,1,1.578-1.639,4.345,4.345,0,0,1,2.175-.554,3.957,3.957,0,0,1,1.639.33,2.559,2.559,0,0,1,1.129.936ZM73.731-1.89a2.253,2.253,0,0,0,1.709-.721,2.638,2.638,0,0,0,.681-1.89,2.644,2.644,0,0,0-.686-1.894,2.251,2.251,0,0,0-1.705-.725,2.277,2.277,0,0,0-1.718.712A2.644,2.644,0,0,0,71.332-4.5a2.631,2.631,0,0,0,.681,1.9A2.277,2.277,0,0,0,73.731-1.89ZM89.956.176A5.681,5.681,0,0,1,87.4-.378,4.138,4.138,0,0,1,85.645-2a4.846,4.846,0,0,1-.637-2.522,4.42,4.42,0,0,1,1.371-3.428,5.086,5.086,0,0,1,3.577-1.257,5.1,5.1,0,0,1,3.586,1.257,4.42,4.42,0,0,1,1.371,3.428,4.444,4.444,0,0,1-1.371,3.441A5.088,5.088,0,0,1,89.956.176ZM89.93-1.837a2.319,2.319,0,0,0,1.789-.738A2.764,2.764,0,0,0,92.4-4.526a2.764,2.764,0,0,0-.681-1.951,2.319,2.319,0,0,0-1.789-.738,2.234,2.234,0,0,0-1.736.743,2.789,2.789,0,0,0-.672,1.947,2.789,2.789,0,0,0,.672,1.947A2.234,2.234,0,0,0,89.93-1.837Zm11.962-9.642h-.053q-.246,0-.374,0t-.36.031a1.459,1.459,0,0,0-.365.079,1.859,1.859,0,0,0-.3.163.809.809,0,0,0-.264.264,1.593,1.593,0,0,0-.158.391,2.042,2.042,0,0,0-.066.545v.967h1.942v1.942H99.949V0H97.427V-7.093H95.66V-9.035h1.767v-.976a5.284,5.284,0,0,1,.114-1.151,3.5,3.5,0,0,1,.308-.875,2.047,2.047,0,0,1,.514-.628,3.034,3.034,0,0,1,.668-.422,3.817,3.817,0,0,1,.831-.255,7.285,7.285,0,0,1,.954-.127q.47-.031,1.077-.031ZM105.75-7.6a2.933,2.933,0,0,1,1.187-1.085,3.62,3.62,0,0,1,1.767-.453v2.259a3.423,3.423,0,0,0-2.162.545,2.379,2.379,0,0,0-.668,1.934V0h-2.549V-9.035h2.426Zm12.885,2.953-.026.606h-6.7a2.339,2.339,0,0,0,.721,1.652,2.3,2.3,0,0,0,1.591.571,2.221,2.221,0,0,0,1.191-.312,1.918,1.918,0,0,0,.76-.91l2.32.343A3.945,3.945,0,0,1,116.912-.58a4.7,4.7,0,0,1-2.672.756,4.891,4.891,0,0,1-3.52-1.244,4.538,4.538,0,0,1-1.305-3.45,4.565,4.565,0,0,1,1.31-3.45,4.746,4.746,0,0,1,3.437-1.261A4.536,4.536,0,0,1,117.4-8.077,4.517,4.517,0,0,1,118.635-4.649Zm-4.456-2.786a2,2,0,0,0-2.2,1.74h4.148a1.9,1.9,0,0,0-.624-1.292A1.978,1.978,0,0,0,114.179-7.436Zm10.468,7.6a4.827,4.827,0,0,1-3.489-1.3A4.493,4.493,0,0,1,119.8-4.526a4.483,4.483,0,0,1,1.349-3.393,4.842,4.842,0,0,1,3.494-1.292,4.814,4.814,0,0,1,2.927.87,3.885,3.885,0,0,1,1.512,2.452l-2.338.255a2,2,0,0,0-.756-1.187,2.3,2.3,0,0,0-1.371-.4,2.072,2.072,0,0,0-1.652.738,2.894,2.894,0,0,0-.633,1.951,2.9,2.9,0,0,0,.633,1.947,2.067,2.067,0,0,0,1.652.743,2.278,2.278,0,0,0,1.367-.4,2.05,2.05,0,0,0,.76-1.187l2.338.255A3.9,3.9,0,0,1,127.56-.712,4.8,4.8,0,0,1,124.646.167Zm7.532-10.556a1.421,1.421,0,0,1-1.037-.426,1.4,1.4,0,0,1-.431-1.033,1.382,1.382,0,0,1,.435-1.024,1.425,1.425,0,0,1,1.033-.426,1.4,1.4,0,0,1,1.02.426,1.389,1.389,0,0,1,.431,1.024,1.4,1.4,0,0,1-.431,1.033A1.4,1.4,0,0,1,132.179-10.389ZM130.887,0V-9.035h2.549V0Zm11.575-13.5h2.531V0h-2.4l-.062-1.178a2.58,2.58,0,0,1-1.147,1.024,3.861,3.861,0,0,1-1.692.365,4.394,4.394,0,0,1-1.687-.325,4.189,4.189,0,0,1-1.384-.918,4.187,4.187,0,0,1-.936-1.49,5.5,5.5,0,0,1-.343-1.978,5.137,5.137,0,0,1,.6-2.518,4.1,4.1,0,0,1,1.578-1.639,4.345,4.345,0,0,1,2.175-.554,3.957,3.957,0,0,1,1.639.33,2.559,2.559,0,0,1,1.129.936ZM140.273-1.89a2.253,2.253,0,0,0,1.709-.721,2.638,2.638,0,0,0,.681-1.89,2.644,2.644,0,0,0-.686-1.894,2.251,2.251,0,0,0-1.705-.725,2.277,2.277,0,0,0-1.718.712,2.644,2.644,0,0,0-.681,1.907,2.631,2.631,0,0,0,.681,1.9A2.277,2.277,0,0,0,140.273-1.89Zm14.748-.562a8.453,8.453,0,0,0,.22,2.206V0h-2.364l-.2-.984a2.938,2.938,0,0,1-1.266.87,4.664,4.664,0,0,1-1.635.29A4.3,4.3,0,0,1,148.931.1a2.868,2.868,0,0,1-.76-.268,2.307,2.307,0,0,1-.628-.47,2.062,2.062,0,0,1-.422-.716,2.853,2.853,0,0,1-.158-.98,2.718,2.718,0,0,1,.167-.98,2.3,2.3,0,0,1,.439-.734,2.666,2.666,0,0,1,.712-.536,5.447,5.447,0,0,1,.9-.387,10.712,10.712,0,0,1,1.072-.281l1.485-.334a1.638,1.638,0,0,0,.672-.286.57.57,0,0,0,.2-.453.932.932,0,0,0-.444-.87,2.072,2.072,0,0,0-1.077-.264,1.549,1.549,0,0,0-1.767,1.38l-2.241-.4a3.034,3.034,0,0,1,1.31-2.061,5.2,5.2,0,0,1,2.839-.664q3.8,0,3.8,3.261Zm-4.456.914a2.036,2.036,0,0,0,1.564-.655,2.759,2.759,0,0,0,.606-1.938l-2.145.606a2.534,2.534,0,0,0-.9.369.758.758,0,0,0-.312.65.842.842,0,0,0,.334.716A1.382,1.382,0,0,0,150.565-1.538Z" transform="translate(1015 7309)" fill="#00223d"/>
      <path id="Trazado_35267" data-name="Trazado 35267" d="M7.269.176a6.9,6.9,0,0,1-3.335-.8,5.766,5.766,0,0,1-2.316-2.29A6.886,6.886,0,0,1,.773-6.354,6.879,6.879,0,0,1,1.617-9.8a5.744,5.744,0,0,1,2.316-2.281,6.935,6.935,0,0,1,3.335-.791,6.909,6.909,0,0,1,3.331.791A5.752,5.752,0,0,1,12.911-9.8a6.879,6.879,0,0,1,.844,3.45,6.886,6.886,0,0,1-.844,3.445A5.766,5.766,0,0,1,10.6-.62,6.885,6.885,0,0,1,7.269.176ZM4.491-3.349A3.73,3.73,0,0,0,7.269-2.241a3.723,3.723,0,0,0,2.777-1.112,4.1,4.1,0,0,0,1.09-3,4.075,4.075,0,0,0-1.09-2.988A3.73,3.73,0,0,0,7.269-10.45,3.73,3.73,0,0,0,4.491-9.343,4.075,4.075,0,0,0,3.4-6.354,4.118,4.118,0,0,0,4.491-3.349Zm16.453-8.13h-.053q-.246,0-.374,0t-.36.031a1.459,1.459,0,0,0-.365.079,1.859,1.859,0,0,0-.3.163.809.809,0,0,0-.264.264,1.593,1.593,0,0,0-.158.391A2.042,2.042,0,0,0,19-10v.967h1.942v1.942H19V0H16.479V-7.093H14.713V-9.035h1.767v-.976a5.284,5.284,0,0,1,.114-1.151,3.5,3.5,0,0,1,.308-.875,2.047,2.047,0,0,1,.514-.628,3.034,3.034,0,0,1,.668-.422,3.817,3.817,0,0,1,.831-.255,7.285,7.285,0,0,1,.954-.127q.47-.031,1.077-.031Zm9.9,6.829-.026.606h-6.7a2.339,2.339,0,0,0,.721,1.652,2.3,2.3,0,0,0,1.591.571,2.221,2.221,0,0,0,1.191-.312,1.918,1.918,0,0,0,.76-.91L30.7-2.7A3.945,3.945,0,0,1,29.118-.58a4.7,4.7,0,0,1-2.672.756,4.891,4.891,0,0,1-3.52-1.244,4.538,4.538,0,0,1-1.305-3.45,4.565,4.565,0,0,1,1.31-3.45,4.746,4.746,0,0,1,3.437-1.261A4.536,4.536,0,0,1,29.61-8.077,4.517,4.517,0,0,1,30.841-4.649ZM26.385-7.436a2,2,0,0,0-2.2,1.74h4.148a1.9,1.9,0,0,0-.624-1.292A1.978,1.978,0,0,0,26.385-7.436ZM35.191-7.6a2.933,2.933,0,0,1,1.187-1.085,3.62,3.62,0,0,1,1.767-.453v2.259a3.423,3.423,0,0,0-2.162.545A2.379,2.379,0,0,0,35.314-4.4V0H32.766V-9.035h2.426ZM43.515,0a2.729,2.729,0,0,1-2.039-.734,2.854,2.854,0,0,1-.721-2.087V-7.093H38.979V-9.035h.571a1.491,1.491,0,0,0,1.125-.378,1.946,1.946,0,0,0,.36-1.345v-1.2h2.285v2.918h1.863v1.942H43.321v4q0,1.169,1.046,1.169h.817V0Zm11-2.452a8.453,8.453,0,0,0,.22,2.206V0H52.374l-.2-.984a2.938,2.938,0,0,1-1.266.87,4.664,4.664,0,0,1-1.635.29A4.3,4.3,0,0,1,48.428.1a2.868,2.868,0,0,1-.76-.268,2.307,2.307,0,0,1-.628-.47,2.062,2.062,0,0,1-.422-.716,2.853,2.853,0,0,1-.158-.98,2.718,2.718,0,0,1,.167-.98,2.3,2.3,0,0,1,.439-.734,2.666,2.666,0,0,1,.712-.536,5.447,5.447,0,0,1,.9-.387,10.712,10.712,0,0,1,1.072-.281l1.485-.334a1.638,1.638,0,0,0,.672-.286.57.57,0,0,0,.2-.453.932.932,0,0,0-.444-.87,2.072,2.072,0,0,0-1.077-.264,1.549,1.549,0,0,0-1.767,1.38l-2.241-.4a3.034,3.034,0,0,1,1.31-2.061,5.2,5.2,0,0,1,2.839-.664q3.8,0,3.8,3.261Zm-4.456.914a2.036,2.036,0,0,0,1.564-.655,2.759,2.759,0,0,0,.606-1.938l-2.145.606a2.534,2.534,0,0,0-.9.369.758.758,0,0,0-.312.65.842.842,0,0,0,.334.716A1.382,1.382,0,0,0,50.063-1.538Z" transform="translate(821 7388)" fill="#00223d"/>
      <path id="Trazado_34094" data-name="Trazado 34094" d="M6526.838,5897h58.021" transform="translate(-5619 1485)" fill="none" stroke="#fd8f25" stroke-width="2"/>
    </g>
  </g>
</svg>
