<svg xmlns="http://www.w3.org/2000/svg" xmlns:xlink="http://www.w3.org/1999/xlink" width="1235.98" height="490" viewBox="0 0 1235.98 490">
  <defs>
    <linearGradient id="linear-gradient" x1="1.061" y1="1.13" x2="0.324" y2="0.337" gradientUnits="objectBoundingBox">
      <stop offset="0" stop-color="#dae3fe"/>
      <stop offset="1" stop-color="#e9effd"/>
    </linearGradient>
    <linearGradient id="linear-gradient-2" x1="0.477" y1="1.002" x2="0.806" y2="-1.506" gradientUnits="objectBoundingBox">
      <stop offset="0" stop-color="#120c2a"/>
      <stop offset="1" stop-color="#472ea6"/>
    </linearGradient>
    <linearGradient id="linear-gradient-3" x1="0.53" y1="0.031" x2="0.475" y2="0.86" xlink:href="#linear-gradient-2"/>
    <linearGradient id="linear-gradient-4" x1="0.612" y1="-0.188" x2="0.786" y2="-1.235" gradientUnits="objectBoundingBox">
      <stop offset="0" stop-color="#4f52ff"/>
      <stop offset="1" stop-color="#4042e2"/>
    </linearGradient>
    <linearGradient id="linear-gradient-5" x1="0.5" y1="-3.399" x2="0.5" y2="-1.495" xlink:href="#linear-gradient-2"/>
    <linearGradient id="linear-gradient-6" x1="-43.291" y1="0.501" x2="-42.29" y2="0.501" xlink:href="#linear-gradient-2"/>
    <linearGradient id="linear-gradient-7" x1="0.193" y1="-0.372" x2="0.694" y2="1.262" xlink:href="#linear-gradient-4"/>
    <linearGradient id="linear-gradient-8" x1="-155.261" y1="0.5" x2="-154.263" y2="0.5" gradientUnits="objectBoundingBox">
      <stop offset="0" stop-color="#febbba"/>
      <stop offset="1" stop-color="#ff928e"/>
    </linearGradient>
    <linearGradient id="linear-gradient-9" x1="-125.283" y1="0.503" x2="-124.28" y2="0.503" xlink:href="#linear-gradient-2"/>
    <linearGradient id="linear-gradient-10" x1="-84.422" y1="0.5" x2="-83.426" y2="0.5" xlink:href="#linear-gradient-4"/>
    <linearGradient id="linear-gradient-11" x1="-140.731" y1="0.503" x2="-139.731" y2="0.503" xlink:href="#linear-gradient-8"/>
    <linearGradient id="linear-gradient-12" x1="2.105" y1="-1.114" x2="1.233" y2="-0.234" xlink:href="#linear-gradient-4"/>
    <linearGradient id="linear-gradient-13" x1="0.885" y1="-3.604" x2="0.752" y2="-2.16" gradientUnits="objectBoundingBox">
      <stop offset="0" stop-color="#f9aac2"/>
      <stop offset="1" stop-color="#f25585"/>
    </linearGradient>
    <linearGradient id="linear-gradient-14" x1="-89.245" y1="0.101" x2="-91.633" y2="1.142" xlink:href="#linear-gradient-8"/>
    <linearGradient id="linear-gradient-15" x1="1.313" y1="-6.241" x2="1.017" y2="-3.729" xlink:href="#linear-gradient-13"/>
    <linearGradient id="linear-gradient-16" x1="1.628" y1="-7.828" x2="1.232" y2="-4.879" xlink:href="#linear-gradient-13"/>
    <linearGradient id="linear-gradient-17" x1="-41.478" y1="0.5" x2="-40.478" y2="0.5" xlink:href="#linear-gradient-8"/>
    <linearGradient id="linear-gradient-18" x1="-59.405" y1="-0.003" x2="-59.419" y2="1.889" xlink:href="#linear-gradient-8"/>
    <linearGradient id="linear-gradient-19" x1="-19.304" y1="71.495" x2="-20.824" y2="72.833" xlink:href="#linear-gradient-8"/>
    <linearGradient id="linear-gradient-20" x1="-11.344" y1="45.588" x2="-10.322" y2="45.588" xlink:href="#linear-gradient-2"/>
    <linearGradient id="linear-gradient-21" x1="-61.113" y1="204.53" x2="-57.819" y2="202.174" xlink:href="#linear-gradient-8"/>
    <linearGradient id="linear-gradient-22" x1="-112.588" y1="0.5" x2="-111.588" y2="0.5" xlink:href="#linear-gradient-8"/>
    <linearGradient id="linear-gradient-23" x1="-4.517" y1="-0.218" x2="-5.86" y2="1.834" xlink:href="#linear-gradient-2"/>
    <linearGradient id="linear-gradient-24" x1="-0.002" y1="0.498" x2="1" y2="0.498" xlink:href="#linear-gradient-2"/>
    <linearGradient id="linear-gradient-25" x1="-22.416" y1="-17.767" x2="-22.62" y2="-13.844" xlink:href="#linear-gradient-8"/>
    <linearGradient id="linear-gradient-26" x1="-5.371" y1="-0.454" x2="-6.034" y2="1.454" xlink:href="#linear-gradient-4"/>
    <linearGradient id="linear-gradient-27" x1="-5.334" y1="-0.454" x2="-5.996" y2="1.453" xlink:href="#linear-gradient-4"/>
    <linearGradient id="linear-gradient-28" x1="-61.601" y1="-1.222" x2="-63.29" y2="3.818" xlink:href="#linear-gradient-8"/>
    <linearGradient id="linear-gradient-29" x1="80.804" y1="-6.553" x2="80.593" y2="-3.149" gradientUnits="objectBoundingBox">
      <stop offset="0" stop-color="#e1473d"/>
      <stop offset="1" stop-color="#e9605a"/>
    </linearGradient>
    <linearGradient id="linear-gradient-30" x1="83.531" y1="-6.793" x2="83.314" y2="-3.273" xlink:href="#linear-gradient-13"/>
    <linearGradient id="linear-gradient-31" x1="196.427" y1="-11.185" x2="195.914" y2="-5.568" xlink:href="#linear-gradient-13"/>
    <linearGradient id="linear-gradient-32" x1="49.867" y1="-2.907" x2="49.738" y2="-0.821" xlink:href="#linear-gradient-29"/>
    <linearGradient id="linear-gradient-33" x1="51.561" y1="-3.024" x2="51.428" y2="-0.867" xlink:href="#linear-gradient-13"/>
    <linearGradient id="linear-gradient-34" x1="120.745" y1="-5.155" x2="120.431" y2="-1.72" xlink:href="#linear-gradient-13"/>
    <linearGradient id="linear-gradient-35" x1="48.266" y1="-3.746" x2="48.14" y2="-1.719" xlink:href="#linear-gradient-29"/>
    <linearGradient id="linear-gradient-36" x1="49.912" y1="-3.892" x2="49.782" y2="-1.796" xlink:href="#linear-gradient-13"/>
    <linearGradient id="linear-gradient-37" x1="116.472" y1="-6.537" x2="116.168" y2="-3.198" xlink:href="#linear-gradient-13"/>
    <linearGradient id="linear-gradient-38" x1="60.461" y1="-3.556" x2="60.305" y2="-1.021" xlink:href="#linear-gradient-29"/>
    <linearGradient id="linear-gradient-39" x1="62.512" y1="-3.694" x2="62.35" y2="-1.073" xlink:href="#linear-gradient-13"/>
    <linearGradient id="linear-gradient-40" x1="146.81" y1="-6.225" x2="146.428" y2="-2.049" xlink:href="#linear-gradient-13"/>
  </defs>
  <g id="Grupo_56940" data-name="Grupo 56940" transform="translate(-181.51 -8004)">
    <g id="Grupo_56938" data-name="Grupo 56938">
      <g id="Grupo_56810" data-name="Grupo 56810" transform="translate(986.928 7236.183)">
        <rect id="Rectángulo_6264" data-name="Rectángulo 6264" width="490" height="490" transform="translate(-59.438 767.817)" fill="#e9e4fd"/>
        <path id="Trazado_114990" data-name="Trazado 114990" d="M-59.418,767.817V1257.8H-3.666l-.011-.309c-.855-22.178.932-80.538,35.91-143.291,35.209-63.169,92.106-109.6,169.109-137.995a270.016,270.016,0,0,0,90.618-55.469,294.743,294.743,0,0,0,54.3-68.405c25.68-44.218,33.2-81.4,33.5-82.959l.305-1.552Z" transform="translate(0)" fill="#cec8e8"/>
        <path id="Trazado_114991" data-name="Trazado 114991" d="M371.869,767.817S342.8,915.47,198.553,968.667C19.508,1034.7-14.552,1183.912-11.7,1257.8H-805.418V767.817Z" transform="translate(0)" fill="#fff"/>
      </g>
      <g id="CF1_contador_1_copia_2" data-name="CF1_contador 1 copia 2" transform="translate(928.206 8060.195)">
        <path id="Trazado_116816" data-name="Trazado 116816" d="M371.46,253.64c-35,81.76-127.3,116.87-199.64,110.88-19.75-1.63-59.49-4.92-90.52-34.26C21.7,273.9,30.88,156.11,87.93,86.76c7.34-8.93,58.19-68.77,137.43-68,58,.59,98.74,33.36,103.69,37.44a159.89,159.89,0,0,1,32.49,36.86C390.75,138.78,393.32,202.55,371.46,253.64Z" fill="url(#linear-gradient)"/>
        <g id="Grupo_56566" data-name="Grupo 56566">
          <path id="Trazado_116817" data-name="Trazado 116817" d="M67.72,20.08C62,48.28,35.6,213.72,186.4,266.41c0,0,45.43-104.44-114.67-247.67a2.44,2.44,0,0,0-4.01,1.34Z" fill="#b5abdb"/>
          <path id="Trazado_116818" data-name="Trazado 116818" d="M75.35,51c2.94,8.71,6.06,17.35,9.25,26s6.48,17.2,9.88,25.74q10.17,25.62,21.64,50.72c7.64,16.72,15.89,33.17,25,49.18q6.78,12,14.43,23.55a231.166,231.166,0,0,0,16.55,22.16,1,1,0,1,0,1.5-1.29h0A230.6,230.6,0,0,1,157,225.13q-7.67-11.4-14.48-23.36c-9.12-15.91-17.38-32.32-25.16-49s-15-33.51-21.87-50.54q-5.16-12.77-10-25.66C82.28,68,79.12,59.4,76.15,50.72h0a.422.422,0,1,0-.8.27Z" fill="#fff" opacity="0.45"/>
        </g>
        <g id="Grupo_56567" data-name="Grupo 56567">
          <path id="Trazado_116819" data-name="Trazado 116819" d="M160.74,277.66s1.92-28.06-23.75-59C113.18,190,54.3,123.37,42.49,88.34a1.51,1.51,0,0,0-2.94.32c-1.75,17.48-2.68,61.6,23.64,107.91C97.14,256.33,160.74,277.66,160.74,277.66Z" fill="#b5abdb"/>
          <path id="Trazado_116820" data-name="Trazado 116820" d="M49.89,120.62a65,65,0,0,0,1.64,11.53c.11.47.2.95.31,1.42L52.2,135l.73,2.82.84,2.8c.29.93.54,1.87.89,2.78A135.659,135.659,0,0,0,64,164.75c.86,1.75,1.9,3.4,2.88,5.08l1.48,2.52c.26.41.49.85.76,1.25l.8,1.22,3.21,4.88c.52.83,1.12,1.59,1.69,2.38l1.73,2.35,1.73,2.36.87,1.17.92,1.13,3.69,4.53c.62.75,1.22,1.53,1.86,2.26l1.91,2.19,3.83,4.39,3.88,4.35c1.29,1.44,2.58,2.9,3.89,4.32,2.62,2.87,5.25,5.73,7.91,8.55s5.34,5.64,8,8.45l8.11,8.35c5.41,5.56,10.83,11.1,16.06,16.82,1.32,1.41,2.58,2.88,3.86,4.33.64.72,1.24,1.48,1.86,2.22s1.23,1.49,1.82,2.26c1.15,1.55,2.35,3.06,3.39,4.69L151,268c.13.2.27.39.39.6l.36.63,1.45,2.51h0a.21.21,0,0,0,.37-.2,69.268,69.268,0,0,0-6.19-9.9c-.58-.79-1.19-1.54-1.78-2.31s-1.19-1.54-1.83-2.28c-1.25-1.49-2.47-3-3.77-4.44l-1.93-2.19c-.64-.73-1.31-1.44-2-2.15l-2-2.15-2-2.13c-2.65-2.84-5.33-5.64-8-8.46-5.34-5.63-10.68-11.25-16-16.93S97.74,207.19,92.6,201.39L88.79,197l-1.91-2.19c-.64-.73-1.23-1.49-1.85-2.23l-3.68-4.48-.92-1.1-.87-1.15-1.73-2.33a170.558,170.558,0,0,1-12.66-19.38,136.658,136.658,0,0,1-9.73-21c-.36-.9-.62-1.83-.95-2.74l-.92-2.75-.81-2.78-.41-1.39c-.12-.47-.23-.94-.35-1.41-.22-.94-.48-1.88-.68-2.82l-.58-2.85c-.32-1.9-.67-3.82-.8-5.75C49.94,120.65,49.89,120.61,49.89,120.62Z" fill="#fff" opacity="0.45"/>
        </g>
        <g id="Grupo_56568" data-name="Grupo 56568">
          <path id="Trazado_116821" data-name="Trazado 116821" d="M195.72,302.12l-6.83,47.14h79.24l-10.32-47.14Z" fill="url(#linear-gradient-2)"/>
          <path id="Trazado_116822" data-name="Trazado 116822" d="M62.6,151.19v140.3a21.289,21.289,0,0,0,20.727,21.28c51.253,1.32,230.473,4.52,279.253,3.81A15.67,15.67,0,0,0,378,301.36c.94-32.59,2.47-111-3.18-147.35a16.12,16.12,0,0,0-15.41-13.65c-42.94-1.37-232.93-5.73-281.69-4.64A15.47,15.47,0,0,0,62.6,151.19Z" fill="url(#linear-gradient-3)"/>
          <path id="Trazado_116823" data-name="Trazado 116823" d="M71.4,150.51V283.8a12.33,12.33,0,0,0,12.151,12.33l272,3.36a12,12,0,0,0,12.18-11.95l.45-132.1a8.78,8.78,0,0,0-8.56-8.81L81.14,141a9.51,9.51,0,0,0-9.74,9.51Z" fill="url(#linear-gradient-4)"/>
          <path id="Trazado_116824" data-name="Trazado 116824" d="M369.79,305h0L71.4,299.87a.38.38,0,0,1-.38-.38.39.39,0,0,1,.39-.37L369.8,304.2a.39.39,0,0,1,.37.39.38.38,0,0,1-.38.41Z" fill="#b5abdb"/>
          <path id="Trazado_116825" data-name="Trazado 116825" d="M223.54,311.17a3.49,3.49,0,1,1,3.48-3.48A3.49,3.49,0,0,1,223.54,311.17Zm0-6.21a2.71,2.71,0,1,1,0,.04Z" fill="#b5abdb"/>
          <path id="Trazado_116826" data-name="Trazado 116826" d="M285.2,361.79h-116c-3.15,0-5.52-2.24-4.91-4.65l1.49-5.89c.45-1.77,2.4-3.07,4.71-3.14l111.81-3.49c2.41-.07,4.55,1.21,5.08,3.05l2.68,9.37C290.78,359.48,288.4,361.79,285.2,361.79Z" fill="url(#linear-gradient-5)"/>
          <path id="Trazado_116827" data-name="Trazado 116827" d="M231.65,349.71a.38.38,0,0,1-.37-.38.37.37,0,0,1,.37-.38l4.79-.07a.38.38,0,0,1,.01.76l-4.79.07Z" fill="#b5abdb"/>
          <path id="Trazado_116828" data-name="Trazado 116828" d="M168.61,358.55h-.06a.38.38,0,0,1-.32-.43l.69-4.28a4.77,4.77,0,0,1,4.65-4l50.82-.74h0a.38.38,0,1,1,0,.75l-50.82.75a4,4,0,0,0-3.92,3.39l-.68,4.28a.38.38,0,0,1-.36.28Z" fill="#b5abdb"/>
        </g>
        <g id="Grupo_56570" data-name="Grupo 56570">
          <path id="Trazado_116829" data-name="Trazado 116829" d="M309.78,19.55,120.23,18.39a10.84,10.84,0,0,0-10.9,11.38l12.91,266.74,211.06,2.57L345,58.47Z" fill="#bdd0fb"/>
          <path id="Trazado_116830" data-name="Trazado 116830" d="M317.66,57.32a10.85,10.85,0,0,1-10.43-11.7l2-25.72,35.79,38.41Z" fill="#7d97f4"/>
          <g id="Grupo_56569" data-name="Grupo 56569">
            <path id="Trazado_116831" data-name="Trazado 116831" d="M151.22,39.43l-.52,4.17h-7.76l-3,24.15h-5.05l3-24.15h-7.78l.51-4.17Z" fill="#fff"/>
            <path id="Trazado_116832" data-name="Trazado 116832" d="M170.69,67.75h-3.94a1.62,1.62,0,0,1-1.05-.32,1.34,1.34,0,0,1-.49-.84L164,60.68H153.48l-2.63,5.91a2.1,2.1,0,0,1-.7.8,1.81,1.81,0,0,1-1.1.36h-4l13.68-28.32h5.19ZM155.06,57.09h8.25l-1.92-9.69c-.11-.47-.21-1-.32-1.49s-.2-1.11-.29-1.76c-.25.65-.49,1.26-.73,1.81s-.47,1-.68,1.46Z" fill="#fff"/>
            <path id="Trazado_116833" data-name="Trazado 116833" d="M181.09,52.63l-6.37-13.2h4.61a1.35,1.35,0,0,1,.73.15,1,1,0,0,1,.38.5l4.35,9.77a6.172,6.172,0,0,1,.47-.82l6-8.9a1.36,1.36,0,0,1,1.16-.7h5.3l-9.63,13,7.11,15.36h-4.55a1.06,1.06,0,0,1-.79-.28,1.929,1.929,0,0,1-.44-.6l-4.91-11.34c-.07.1-.13.21-.19.31a3.213,3.213,0,0,1-.19.31l-7.32,10.72a1.94,1.94,0,0,1-.73.68,1.88,1.88,0,0,1-.86.2h-5.07Z" fill="#fff"/>
          </g>
          <path id="Trazado_116834" data-name="Trazado 116834" d="M311.05,219.32H146.62a9.17,9.17,0,0,1-9.17-8.9L134,97.64a9.19,9.19,0,0,1,9.18-9.46H311.05a9.18,9.18,0,0,1,9.18,9.18V210.14a9.18,9.18,0,0,1-9.18,9.18Z" fill="#fff" opacity="0.39"/>
          <path id="Trazado_116835" data-name="Trazado 116835" d="M310,220H145.59a9.77,9.77,0,0,1-9.81-9.51L132.35,97.66a9.8,9.8,0,0,1,9.8-10.11H310a9.82,9.82,0,0,1,9.81,9.81V210.14A9.82,9.82,0,0,1,310,220ZM142.15,88.81a8.56,8.56,0,0,0-8.55,8.81L137,210.4a8.51,8.51,0,0,0,8.55,8.29H310a8.56,8.56,0,0,0,8.55-8.55V97.36A8.56,8.56,0,0,0,310,88.81Z" fill="#fff"/>
          <rect id="Rectángulo_6832" data-name="Rectángulo 6832" width="131.27" height="1.26" transform="matrix(0.005, -1, 1, 0.005, 189.945, 218.941)" fill="#fff"/>
          <rect id="Rectángulo_6833" data-name="Rectángulo 6833" width="1.26" height="186.12" transform="translate(133.073 101.513) rotate(-89.72)" fill="#fff"/>
          <rect id="Rectángulo_6834" data-name="Rectángulo 6834" width="185.29" height="1.26" transform="translate(133.68 130.86)" fill="#fff"/>
          <rect id="Rectángulo_6835" data-name="Rectángulo 6835" width="183.61" height="1.26" transform="translate(135.36 163.14)" fill="#fff"/>
          <rect id="Rectángulo_6836" data-name="Rectángulo 6836" width="182.02" height="1.26" transform="translate(137.167 190.051) rotate(-0.15)" fill="#fff"/>
          <rect id="Rectángulo_6837" data-name="Rectángulo 6837" width="78.14" height="6.89" rx="2.18" transform="translate(213.78 48.99)" fill="#fff" opacity="0.55"/>
          <rect id="Rectángulo_6838" data-name="Rectángulo 6838" width="179.98" height="13.5" rx="4.05" transform="translate(139.21 241.86)" fill="#fff" opacity="0.42"/>
          <rect id="Rectángulo_6839" data-name="Rectángulo 6839" width="78.14" height="6.89" rx="2.18" transform="translate(214.12 59.96)" fill="#fff" opacity="0.55"/>
        </g>
        <g id="Grupo_56581" data-name="Grupo 56581">
          <g id="Grupo_56576" data-name="Grupo 56576">
            <g id="Grupo_56571" data-name="Grupo 56571">
              <path id="Trazado_116836" data-name="Trazado 116836" d="M278.58,363.47c4.13.36,11.31.94,17,1.19,3.4.15,5.36-.18,6.49-.64v.36a1.17,1.17,0,0,1-1.12,1.11,196.281,196.281,0,0,1-22.22,0,.84.84,0,0,1-.68-1.25,6.814,6.814,0,0,1,.53-.77Z" fill="url(#linear-gradient-6)"/>
              <path id="Trazado_116837" data-name="Trazado 116837" d="M295.55,364.66c-5.66-.25-12.84-.83-17-1.19,4.06-5,17-8.35,17-8.35h3.64A15.36,15.36,0,0,1,302,364C300.91,364.48,299,364.81,295.55,364.66Z" fill="url(#linear-gradient-7)"/>
              <path id="Trazado_116838" data-name="Trazado 116838" d="M299.81,349.17l-.34,6.75a1.55,1.55,0,0,1-1.32,1.45,6,6,0,0,1-2.74-.23,1.8,1.8,0,0,1-1.22-1.4L293,349.17Z" fill="url(#linear-gradient-8)"/>
            </g>
            <g id="Grupo_56573" data-name="Grupo 56573">
              <g id="Grupo_56572" data-name="Grupo 56572">
                <path id="Trazado_116839" data-name="Trazado 116839" d="M347.15,364.61a3.28,3.28,0,0,0,3-2.18h0a2.32,2.32,0,0,1-1.57,2.66,10.38,10.38,0,0,1-4.35.68,4.36,4.36,0,0,1-3.26-1.51h0C342.26,365,344.16,365,347.15,364.61Z" fill="url(#linear-gradient-9)"/>
                <path id="Trazado_116840" data-name="Trazado 116840" d="M338.7,349.13h3c4.58-.1,7.46,9.56,8.4,13.3a3.28,3.28,0,0,1-3,2.18c-3,.42-4.89.34-6.24-.33-2.47-3.26-3.7-8-4.29-10.81A3.79,3.79,0,0,1,338.7,349.13Z" fill="url(#linear-gradient-10)"/>
              </g>
              <path id="Trazado_116841" data-name="Trazado 116841" d="M341.31,342.86,343,349.5a1.78,1.78,0,0,1-.93,2,6.38,6.38,0,0,1-3.46.84,1.52,1.52,0,0,1-1.23-1l-2.45-7Z" fill="url(#linear-gradient-11)"/>
            </g>
            <path id="Trazado_116842" data-name="Trazado 116842" d="M343.31,344.78c-2.08,1.84-8.84,2.09-8.84,2.09-24.33-58.4-34.28-66.7-34.28-66.7,3.51,22,.57,70.84.57,70.84-4,1.78-9.2,0-9.2,0a376,376,0,0,0-12.42-92.36c16.44-.37,25.19-6,28.05-8.26C320.89,272.49,343.31,344.78,343.31,344.78Z" fill="url(#linear-gradient-12)"/>
            <path id="Trazado_116843" data-name="Trazado 116843" d="M303,183.23c3.11,15.53,2,43.32,1.26,56-.2,3.57,2.28,8.51,4.29,11.87a1.05,1.05,0,0,1-.42,1.49c-3.37,1.73-14.77,7.09-28,7.76a1.9,1.9,0,0,1-1.9-1.41c-9.8-36.6-21.19-60-21.19-60C269.64,178.87,303,183.23,303,183.23Z" fill="url(#linear-gradient-13)"/>
            <g id="Grupo_56574" data-name="Grupo 56574">
              <path id="Trazado_116844" data-name="Trazado 116844" d="M322.53,227.79c-1,7.24-3.95,15.13-9.86,23.51l-2.25-1.84A69.151,69.151,0,0,0,311.54,227C315.19,226.29,319.49,227,322.53,227.79Z" fill="url(#linear-gradient-14)"/>
              <path id="Trazado_116845" data-name="Trazado 116845" d="M299.53,202.39,303,183.23s23.23,17.76,19.52,44.56c-3-.77-7.34-1.5-11-.79C310.48,218.4,307.31,209.06,299.53,202.39Z" fill="url(#linear-gradient-15)"/>
            </g>
            <g id="Grupo_56575" data-name="Grupo 56575">
              <path id="Trazado_116846" data-name="Trazado 116846" d="M257.07,198.94l9,19.31c-1.45,11.66-7.71,16.7-14.47,18.64a40.84,40.84,0,0,0-3-12.58C257.19,215.4,257.07,198.94,257.07,198.94Z" fill="url(#linear-gradient-16)"/>
              <path id="Trazado_116847" data-name="Trazado 116847" d="M248.56,224.31a40.84,40.84,0,0,1,3,12.58c-18,7-22.78-6.57-22.78-6.57l3.33-.59C239.64,230.53,244.89,228.1,248.56,224.31Z" fill="url(#linear-gradient-17)"/>
            </g>
            <path id="Trazado_116848" data-name="Trazado 116848" d="M265.33,175.1l4.33,15.9a3.11,3.11,0,0,0,4.14,2.06,65.72,65.72,0,0,0,6.24-2.85,4.17,4.17,0,0,0,1.47-6l-9-13.42Z" fill="url(#linear-gradient-18)"/>
          </g>
          <g id="Grupo_56577" data-name="Grupo 56577">
            <path id="Trazado_116849" data-name="Trazado 116849" d="M255.86,163c0,.28,3.61,18.16,3.61,18.16l10.17-2.3-.94-17.47S256.52,158.44,255.86,163Z" fill="url(#linear-gradient-19)"/>
            <path id="Trazado_116850" data-name="Trazado 116850" d="M266.41,165.3l1.22,9.15a1,1,0,0,1,0,.35c-.1.72-.64,3.16-3.1,2.47-2.24-.64-4.29-1.18-5.71-.75a1.29,1.29,0,0,0-.89,1.49,55.942,55.942,0,0,0,2.34,8.34,1.29,1.29,0,0,0,1.56.76,42.3,42.3,0,0,0,9-3.67,1.31,1.31,0,0,0,.63-1.16c-.1-2.31-.37-9.34-.14-11.31s2.48-3,3.46-3.35a1.27,1.27,0,0,0,.71-.71c.46-1.14,1.09-3.79-2.25-4.88a1.29,1.29,0,0,1-.82-1.67,3.35,3.35,0,0,0-1.88-4.63,4.73,4.73,0,0,0-5.64,1.36,1.29,1.29,0,0,1-1.64.2,1,1,0,0,0-1.16,0,1.27,1.27,0,0,1-1.8-.54,3.86,3.86,0,0,0-4.48-2.23c-4.55.78-5.07,5.83-3.87,8.79s6.1,1.83,8.55.34c1.87-1.14,4.29,0,5.34.69a1.27,1.27,0,0,1,.57.96Z" fill="url(#linear-gradient-20)"/>
            <path id="Trazado_116851" data-name="Trazado 116851" d="M271.7,174.31s-1.88-5.25.05-6.53,4.77-.62,4.14,3.18C275.11,175.69,271.7,174.31,271.7,174.31Z" fill="url(#linear-gradient-21)"/>
          </g>
          <path id="Trazado_116852" data-name="Trazado 116852" d="M230.13,232.8c-.91.71-4-.77-5.92-1.79a2.2,2.2,0,0,1-1.06-2.59c.46-1.44,1.22-3.3,2.16-3.54C226.87,224.49,233.86,229.88,230.13,232.8Z" fill="url(#linear-gradient-22)"/>
          <g id="Grupo_56580" data-name="Grupo 56580">
            <g id="Grupo_56579" data-name="Grupo 56579">
              <path id="Trazado_116853" data-name="Trazado 116853" d="M358.17,267.94,188.31,207.53l-9,25,169.8,62.1a7.91,7.91,0,0,0,9.56-3.46c2-3.41,3.88-8.74,4-16.71a6.78,6.78,0,0,0-4.5-6.52Z" fill="url(#linear-gradient-23)"/>
              <g id="Grupo_56578" data-name="Grupo 56578">
                <path id="Trazado_116854" data-name="Trazado 116854" d="M135.76,201.08,159.23,204c0,3.23-1.08,7.4-4.66,12.2L135,203.23a1.18,1.18,0,0,1,.76-2.15Z" fill="url(#linear-gradient-24)"/>
                <path id="Trazado_116855" data-name="Trazado 116855" d="M188.31,207.53a32.68,32.68,0,0,1-9,25L154.55,216.2c3.58-4.8,4.63-9,4.66-12.2Z" fill="url(#linear-gradient-25)"/>
              </g>
            </g>
            <path id="Trazado_116856" data-name="Trazado 116856" d="M356.07,275.59a.5.5,0,0,0,.47-.33.51.51,0,0,0-.31-.64L193.72,217.19a.5.5,0,0,0-.63.31.48.48,0,0,0,.3.63L355.9,275.57A.469.469,0,0,0,356.07,275.59Z" fill="url(#linear-gradient-26)"/>
            <path id="Trazado_116857" data-name="Trazado 116857" d="M353.26,285.39a.507.507,0,1,0,.17-1L190.92,227a.49.49,0,0,0-.64.3.51.51,0,0,0,.31.64L353.1,285.36A.45.45,0,0,0,353.26,285.39Z" fill="url(#linear-gradient-27)"/>
          </g>
          <path id="Trazado_116858" data-name="Trazado 116858" d="M311.35,249.15l-10.49-.86-4.54,4.19s1.08,1.48,4.44.63a47.1,47.1,0,0,1,8-1.06s4.63,2.09,4.69-1.83Z" fill="url(#linear-gradient-28)"/>
        </g>
        <g id="Grupo_56586" data-name="Grupo 56586">
          <g id="Grupo_56582" data-name="Grupo 56582">
            <circle id="Elipse_4529" data-name="Elipse 4529" cx="16.44" cy="16.44" r="16.44" transform="translate(73.131 153.577) rotate(-69.74)" fill="url(#linear-gradient-29)"/>
            <circle id="Elipse_4530" data-name="Elipse 4530" cx="15.9" cy="15.9" r="15.9" transform="translate(72.797 137.127) rotate(-27.57)" fill="url(#linear-gradient-30)"/>
            <path id="Trazado_116859" data-name="Trazado 116859" d="M80,141.43a.69.69,0,0,1-.25,0,.54.54,0,0,1-.41-.63,15.14,15.14,0,0,1,10.92-11.63A15.709,15.709,0,0,1,93,128.7a.54.54,0,0,1,.58.49.53.53,0,0,1-.49.57,13.6,13.6,0,0,0-2.52.45A14.07,14.07,0,0,0,80.39,141,.52.52,0,0,1,80,141.43Z" fill="#fff" opacity="0.78"/>
            <circle id="Elipse_4531" data-name="Elipse 4531" cx="13.45" cy="13.45" r="13.45" transform="matrix(0.497, -0.868, 0.868, 0.497, 76.31, 149.084)" fill="#fff" opacity="0.78"/>
            <path id="Trazado_116860" data-name="Trazado 116860" d="M96,154.1l-.38-1.41a12,12,0,0,1-4.2.21.84.84,0,0,1-.71-.84v-1.41a.86.86,0,0,1,1-.85,9.78,9.78,0,0,0,3.87-.22c1.42-.38,2.34-1.15,2.08-2.14s-1.21-1.19-3.32-1.19c-3,0-5.37-.68-6-3.16-.6-2.23.57-4.38,3.28-5.61l-.38-1.41a.85.85,0,0,1,.6-1l.83-.23a.87.87,0,0,1,1,.6l.34,1.27a11.151,11.151,0,0,1,3.29-.29.85.85,0,0,1,.78.85v1.31a.85.85,0,0,1-.93.85,8.63,8.63,0,0,0-3.23.28c-1.68.45-2,1.28-1.81,1.91s1.37,1,3.74,1.1c3.38.09,5,1,5.66,3.37.58,2.14-.49,4.49-3.43,5.81l.43,1.58a.85.85,0,0,1-.6,1l-.83.23A.86.86,0,0,1,96,154.1Z" fill="url(#linear-gradient-31)"/>
          </g>
          <g id="Grupo_56583" data-name="Grupo 56583">
            <circle id="Elipse_4532" data-name="Elipse 4532" cx="26.83" cy="26.83" r="26.83" transform="translate(91.938 81.547) rotate(-20.48)" fill="url(#linear-gradient-32)"/>
            <circle id="Elipse_4533" data-name="Elipse 4533" cx="25.94" cy="25.94" r="25.94" transform="translate(94.59 79.136) rotate(-15.33)" fill="url(#linear-gradient-33)"/>
            <path id="Trazado_116861" data-name="Trazado 116861" d="M103.12,93a.59.59,0,0,1-.23,0,.51.51,0,0,1-.39-.59,24.36,24.36,0,0,1,17.56-18.7,25.86,25.86,0,0,1,4.36-.77.5.5,0,0,1,.08,1,22.21,22.21,0,0,0-4.18.74A23.33,23.33,0,0,0,103.48,92.6.5.5,0,0,1,103.12,93Z" fill="#fff" opacity="0.78"/>
            <circle id="Elipse_4534" data-name="Elipse 4534" cx="22.053" cy="22.053" r="22.053" transform="translate(96.863 94.029) rotate(-38.125)" fill="#fff" opacity="0.78"/>
            <path id="Trazado_116862" data-name="Trazado 116862" d="M129.34,114l-.62-2.3a19.64,19.64,0,0,1-6.85.35,1.38,1.38,0,0,1-1.17-1.38v-2.3a1.39,1.39,0,0,1,1.58-1.38,16.06,16.06,0,0,0,6.32-.36c2.31-.63,3.83-1.88,3.39-3.49-.39-1.45-2-2-5.41-1.94-4.93,0-8.77-1.12-9.87-5.16-1-3.65.92-7.16,5.35-9.16l-.63-2.31a1.39,1.39,0,0,1,1-1.7l1.36-.37a1.4,1.4,0,0,1,1.71,1l.56,2.07a17.33,17.33,0,0,1,5.37-.47,1.38,1.38,0,0,1,1.28,1.38v2.14A1.39,1.39,0,0,1,131.17,90a14.37,14.37,0,0,0-5.27.45c-2.75.75-3.22,2.1-3,3.12.34,1.25,2.23,1.67,6.09,1.8,5.52.15,8.21,1.69,9.24,5.5.95,3.49-.79,7.33-5.59,9.48l.69,2.58a1.37,1.37,0,0,1-1,1.7l-1.36.37a1.4,1.4,0,0,1-1.63-1Z" fill="url(#linear-gradient-34)"/>
          </g>
          <g id="Grupo_56584" data-name="Grupo 56584">
            <circle id="Elipse_4535" data-name="Elipse 4535" cx="27.61" cy="27.61" r="27.61" transform="translate(126.67 170.613) rotate(-76.35)" fill="url(#linear-gradient-35)"/>
            <circle id="Elipse_4536" data-name="Elipse 4536" cx="26.69" cy="26.69" r="26.69" transform="translate(127.651 169.72) rotate(-75.96)" fill="url(#linear-gradient-36)"/>
            <path id="Trazado_116863" data-name="Trazado 116863" d="M136,145.84a.591.591,0,0,1-.23,0,.51.51,0,0,1-.39-.59A25.05,25.05,0,0,1,153.43,126a26.449,26.449,0,0,1,4.48-.79.5.5,0,0,1,.54.46.49.49,0,0,1-.46.53,24.4,24.4,0,0,0-4.3.77,24,24,0,0,0-17.34,18.46A.5.5,0,0,1,136,145.84Z" fill="#fff" opacity="0.78"/>
            <circle id="Elipse_4537" data-name="Elipse 4537" cx="22.59" cy="22.59" r="22.59" transform="translate(137.368 128.911) rotate(-1.94)" fill="#fff" opacity="0.78"/>
            <path id="Trazado_116864" data-name="Trazado 116864" d="M163,167.5l-.64-2.38a19.871,19.871,0,0,1-7.05.37,1.43,1.43,0,0,1-1.2-1.42V161.7a1.45,1.45,0,0,1,1.64-1.42,16.55,16.55,0,0,0,6.49-.37c2.38-.65,3.94-1.94,3.49-3.59-.4-1.49-2-2-5.57-2-5.07,0-9-1.15-10.15-5.31-1-3.75.95-7.36,5.51-9.42l-.65-2.38a1.43,1.43,0,0,1,1-1.75l1.39-.38a1.43,1.43,0,0,1,1.76,1l.58,2.13a18.45,18.45,0,0,1,5.53-.49,1.44,1.44,0,0,1,1.31,1.43v2.19a1.43,1.43,0,0,1-1.57,1.43,15,15,0,0,0-5.42.46c-2.83.77-3.32,2.16-3,3.21.35,1.29,2.29,1.72,6.27,1.85,5.68.15,8.45,1.74,9.51,5.66,1,3.59-.81,7.54-5.76,9.75l.72,2.66a1.43,1.43,0,0,1-1,1.76l-1.39.37a1.43,1.43,0,0,1-1.8-.99Z" fill="url(#linear-gradient-37)"/>
          </g>
          <g id="Grupo_56585" data-name="Grupo 56585">
            <circle id="Elipse_4538" data-name="Elipse 4538" cx="22.08" cy="22.08" r="22.08" transform="matrix(0.977, -0.211, 0.211, 0.977, 155.01, 79.974)" fill="url(#linear-gradient-38)"/>
            <circle id="Elipse_4539" data-name="Elipse 4539" cx="21.35" cy="21.35" r="21.35" transform="translate(157.128 115.055) rotate(-82.02)" fill="url(#linear-gradient-39)"/>
            <path id="Trazado_116865" data-name="Trazado 116865" d="M162.08,93.47a.53.53,0,0,1-.25,0,.54.54,0,0,1-.43-.64A20.15,20.15,0,0,1,176,77.35a19.241,19.241,0,0,1,3.61-.64.54.54,0,0,1,.59.49.55.55,0,0,1-.5.59,19.23,19.23,0,0,0-17.18,15.26.56.56,0,0,1-.44.42Z" fill="#fff" opacity="0.78"/>
            <circle id="Elipse_4540" data-name="Elipse 4540" cx="18.07" cy="18.07" r="18.07" transform="translate(156.985 91.188) rotate(-31.37)" fill="#fff" opacity="0.78"/>
            <path id="Trazado_116866" data-name="Trazado 116866" d="M183.63,110.65l-.52-1.9a16,16,0,0,1-5.64.29,1.12,1.12,0,0,1-.95-1.13V106a1.14,1.14,0,0,1,1.3-1.13,13.37,13.37,0,0,0,5.2-.3c1.9-.52,3.15-1.55,2.79-2.87s-1.61-1.61-4.45-1.6c-4.06,0-7.22-.92-8.12-4.25-.82-3,.76-5.89,4.4-7.54l-.52-1.89a1.16,1.16,0,0,1,.81-1.41l1.11-.3a1.14,1.14,0,0,1,1.41.81l.46,1.7a14.92,14.92,0,0,1,4.43-.39,1.15,1.15,0,0,1,1,1.14v1.76a1.15,1.15,0,0,1-1.26,1.14,11.68,11.68,0,0,0-4.34.37c-2.26.61-2.65,1.72-2.42,2.56.28,1,1.82,1.38,5,1.49,4.54.12,6.75,1.39,7.6,4.52.78,2.87-.65,6-4.6,7.8l.57,2.12a1.15,1.15,0,0,1-.8,1.41l-1.12.3a1.13,1.13,0,0,1-1.34-.79Z" fill="url(#linear-gradient-40)"/>
          </g>
        </g>
      </g>
      <path id="Trazado_35323" data-name="Trazado 35323" d="M0,0H244" transform="translate(363 8073.5)" fill="none" stroke="#707070" stroke-width="1"/>
      <path id="Trazado_35328" data-name="Trazado 35328" d="M0,0H244" transform="translate(371 8190.5)" fill="none" stroke="#707070" stroke-width="1"/>
      <path id="Trazado_35335" data-name="Trazado 35335" d="M0,0H145" transform="translate(371 8310.5)" fill="none" stroke="#707070" stroke-width="1"/>
      <path id="Trazado_118405" data-name="Trazado 118405" d="M31.588,13.99V19H29.9V6.2h4.72a4.742,4.742,0,0,1,3.292,1.072A3.635,3.635,0,0,1,39.1,10.114a3.587,3.587,0,0,1-1.165,2.87A4.954,4.954,0,0,1,34.6,13.99Zm0-1.38h3.032a3.032,3.032,0,0,0,2.074-.638,2.334,2.334,0,0,0,.721-1.845A2.411,2.411,0,0,0,36.695,8.3a2.84,2.84,0,0,0-1.978-.713H31.588ZM45.6,10.949a4.873,4.873,0,0,0-.8-.062,2.143,2.143,0,0,0-2.171,1.362V19H41V9.49h1.582l.026,1.1a2.532,2.532,0,0,1,2.268-1.274,1.661,1.661,0,0,1,.721.123Zm5.44,8.227a4.155,4.155,0,0,1-3.146-1.27,4.714,4.714,0,0,1-1.213-3.4v-.3a5.707,5.707,0,0,1,.541-2.527,4.217,4.217,0,0,1,1.512-1.74,3.8,3.8,0,0,1,2.1-.628,3.562,3.562,0,0,1,2.883,1.222,5.289,5.289,0,0,1,1.028,3.5v.677H48.305a3.38,3.38,0,0,0,.822,2.272,2.583,2.583,0,0,0,2,.866,2.832,2.832,0,0,0,1.459-.352,3.666,3.666,0,0,0,1.046-.932l.993.773A3.993,3.993,0,0,1,51.039,19.176Zm-.2-8.525a2.169,2.169,0,0,0-1.652.716,3.482,3.482,0,0,0-.826,2.008h4.764v-.123a3.1,3.1,0,0,0-.668-1.92A2.042,2.042,0,0,0,50.836,10.65Zm9.606,7.2a2.342,2.342,0,0,0,1.521-.527A1.855,1.855,0,0,0,62.684,16h1.538a2.949,2.949,0,0,1-.562,1.556,3.7,3.7,0,0,1-1.384,1.178,3.994,3.994,0,0,1-1.833.439,3.918,3.918,0,0,1-3.089-1.3,5.163,5.163,0,0,1-1.147-3.546v-.272a5.725,5.725,0,0,1,.51-2.47A3.883,3.883,0,0,1,58.18,9.912a4.157,4.157,0,0,1,2.254-.6,3.814,3.814,0,0,1,2.659.958,3.424,3.424,0,0,1,1.129,2.487H62.684a2.241,2.241,0,0,0-.7-1.516,2.174,2.174,0,0,0-1.551-.593,2.276,2.276,0,0,0-1.92.892,4.19,4.19,0,0,0-.681,2.58v.308a4.106,4.106,0,0,0,.677,2.531A2.287,2.287,0,0,0,60.443,17.849ZM67.817,19H66.191V9.49h1.626ZM66.059,6.968A.971.971,0,0,1,66.3,6.3a.907.907,0,0,1,.716-.272.922.922,0,0,1,.721.272.96.96,0,0,1,.246.668.929.929,0,0,1-.246.659.938.938,0,0,1-.721.264.924.924,0,0,1-.716-.264A.938.938,0,0,1,66.059,6.968Zm3.929,7.189a5.617,5.617,0,0,1,.549-2.514,4.1,4.1,0,0,1,1.529-1.723A4.163,4.163,0,0,1,74.3,9.314a4.01,4.01,0,0,1,3.142,1.345,5.174,5.174,0,0,1,1.2,3.577v.114a5.666,5.666,0,0,1-.532,2.492,4.038,4.038,0,0,1-1.521,1.718,4.211,4.211,0,0,1-2.272.615,4,4,0,0,1-3.133-1.345,5.147,5.147,0,0,1-1.2-3.56Zm1.635.193a4.068,4.068,0,0,0,.734,2.54,2.487,2.487,0,0,0,3.933-.013,4.449,4.449,0,0,0,.729-2.72,4.061,4.061,0,0,0-.743-2.536A2.361,2.361,0,0,0,74.3,10.65a2.335,2.335,0,0,0-1.942.958A4.416,4.416,0,0,0,71.623,14.351ZM93.358,19H84.973V17.831l4.43-4.922a10.524,10.524,0,0,0,1.358-1.815,3.029,3.029,0,0,0,.374-1.446A2.3,2.3,0,0,0,90.528,8a2.12,2.12,0,0,0-1.617-.642,2.511,2.511,0,0,0-1.885.69,2.635,2.635,0,0,0-.672,1.92H84.727a3.774,3.774,0,0,1,1.138-2.856,4.219,4.219,0,0,1,3.045-1.09,4.054,4.054,0,0,1,2.821.936,3.193,3.193,0,0,1,1.037,2.492q0,1.89-2.408,4.5l-3.428,3.718h6.425Zm5.273-4.772H94.342V12.9h4.289Zm7.98-.237V19h-1.687V6.2h4.72a4.742,4.742,0,0,1,3.292,1.072,3.635,3.635,0,0,1,1.191,2.839,3.587,3.587,0,0,1-1.165,2.87,4.954,4.954,0,0,1-3.335,1.006Zm0-1.38h3.032a3.032,3.032,0,0,0,2.074-.638,2.334,2.334,0,0,0,.721-1.845,2.411,2.411,0,0,0-.721-1.831,2.84,2.84,0,0,0-1.978-.713h-3.129Zm14.01-1.661a4.873,4.873,0,0,0-.8-.062,2.143,2.143,0,0,0-2.171,1.362V19h-1.626V9.49h1.582l.026,1.1A2.532,2.532,0,0,1,119.9,9.314a1.661,1.661,0,0,1,.721.123Zm5.44,8.227a4.155,4.155,0,0,1-3.146-1.27,4.714,4.714,0,0,1-1.213-3.4v-.3a5.707,5.707,0,0,1,.541-2.527,4.217,4.217,0,0,1,1.512-1.74,3.8,3.8,0,0,1,2.1-.628,3.562,3.562,0,0,1,2.883,1.222,5.289,5.289,0,0,1,1.028,3.5v.677h-6.442a3.38,3.38,0,0,0,.822,2.272,2.583,2.583,0,0,0,2,.866,2.832,2.832,0,0,0,1.459-.352,3.666,3.666,0,0,0,1.046-.932l.993.773A3.993,3.993,0,0,1,126.062,19.176Zm-.2-8.525a2.169,2.169,0,0,0-1.652.716,3.482,3.482,0,0,0-.826,2.008h4.764v-.123a3.1,3.1,0,0,0-.668-1.92A2.042,2.042,0,0,0,125.86,10.65Zm9.606,7.2a2.342,2.342,0,0,0,1.521-.527A1.855,1.855,0,0,0,137.708,16h1.538a2.949,2.949,0,0,1-.562,1.556,3.7,3.7,0,0,1-1.384,1.178,3.994,3.994,0,0,1-1.833.439,3.918,3.918,0,0,1-3.089-1.3,5.163,5.163,0,0,1-1.147-3.546v-.272a5.725,5.725,0,0,1,.51-2.47A3.883,3.883,0,0,1,133.2,9.912a4.157,4.157,0,0,1,2.254-.6,3.814,3.814,0,0,1,2.659.958,3.424,3.424,0,0,1,1.129,2.487h-1.538a2.241,2.241,0,0,0-.7-1.516,2.174,2.174,0,0,0-1.551-.593,2.276,2.276,0,0,0-1.92.892,4.19,4.19,0,0,0-.681,2.58v.308a4.106,4.106,0,0,0,.677,2.531A2.287,2.287,0,0,0,135.466,17.849ZM142.84,19h-1.626V9.49h1.626ZM141.083,6.968a.971.971,0,0,1,.242-.668.907.907,0,0,1,.716-.272.922.922,0,0,1,.721.272.96.96,0,0,1,.246.668.929.929,0,0,1-.246.659.938.938,0,0,1-.721.264.924.924,0,0,1-.716-.264A.938.938,0,0,1,141.083,6.968Zm3.929,7.189a5.617,5.617,0,0,1,.549-2.514,4.1,4.1,0,0,1,1.529-1.723,4.163,4.163,0,0,1,2.237-.606,4.01,4.01,0,0,1,3.142,1.345,5.174,5.174,0,0,1,1.2,3.577v.114a5.666,5.666,0,0,1-.532,2.492,4.038,4.038,0,0,1-1.521,1.718,4.211,4.211,0,0,1-2.272.615,4,4,0,0,1-3.133-1.345,5.147,5.147,0,0,1-1.2-3.56Zm1.635.193a4.068,4.068,0,0,0,.734,2.54,2.487,2.487,0,0,0,3.933-.013,4.449,4.449,0,0,0,.729-2.72,4.061,4.061,0,0,0-.743-2.536,2.361,2.361,0,0,0-1.973-.971,2.335,2.335,0,0,0-1.942.958A4.416,4.416,0,0,0,146.646,14.351ZM160.884,19H159.25V8.163l-3.278,1.2V7.891l4.658-1.749h.255ZM66.872,53.99V59H65.185V46.2H69.9A4.742,4.742,0,0,1,73.2,47.275a3.635,3.635,0,0,1,1.191,2.839,3.587,3.587,0,0,1-1.165,2.87,4.954,4.954,0,0,1-3.335,1.006Zm0-1.38H69.9a3.032,3.032,0,0,0,2.074-.638,2.334,2.334,0,0,0,.721-1.845,2.411,2.411,0,0,0-.721-1.831A2.84,2.84,0,0,0,70,47.583H66.872Zm14.01-1.661a4.873,4.873,0,0,0-.8-.062,2.143,2.143,0,0,0-2.171,1.362V59H76.285V49.49h1.582l.026,1.1a2.532,2.532,0,0,1,2.268-1.274,1.661,1.661,0,0,1,.721.123Zm5.44,8.227a4.155,4.155,0,0,1-3.146-1.27,4.714,4.714,0,0,1-1.213-3.4v-.3a5.707,5.707,0,0,1,.541-2.527,4.217,4.217,0,0,1,1.512-1.74,3.8,3.8,0,0,1,2.1-.628A3.562,3.562,0,0,1,89,50.536a5.289,5.289,0,0,1,1.028,3.5v.677H83.589a3.38,3.38,0,0,0,.822,2.272,2.583,2.583,0,0,0,2,.866,2.832,2.832,0,0,0,1.459-.352,3.666,3.666,0,0,0,1.046-.932l.993.773A3.993,3.993,0,0,1,86.322,59.176Zm-.2-8.525a2.169,2.169,0,0,0-1.652.716,3.482,3.482,0,0,0-.826,2.008h4.764v-.123a3.1,3.1,0,0,0-.668-1.92A2.042,2.042,0,0,0,86.12,50.65Zm9.606,7.2a2.342,2.342,0,0,0,1.521-.527A1.855,1.855,0,0,0,97.968,56h1.538a2.949,2.949,0,0,1-.562,1.556,3.7,3.7,0,0,1-1.384,1.178,3.994,3.994,0,0,1-1.833.439,3.918,3.918,0,0,1-3.089-1.3,5.163,5.163,0,0,1-1.147-3.546v-.272a5.725,5.725,0,0,1,.51-2.47,3.883,3.883,0,0,1,1.463-1.679,4.157,4.157,0,0,1,2.254-.6,3.814,3.814,0,0,1,2.659.958,3.424,3.424,0,0,1,1.129,2.487H97.968a2.241,2.241,0,0,0-.7-1.516,2.174,2.174,0,0,0-1.551-.593,2.276,2.276,0,0,0-1.92.892,4.19,4.19,0,0,0-.681,2.58v.308a4.106,4.106,0,0,0,.677,2.531A2.287,2.287,0,0,0,95.727,57.849ZM103.1,59h-1.626V49.49H103.1Zm-1.758-12.032a.971.971,0,0,1,.242-.668.907.907,0,0,1,.716-.272.922.922,0,0,1,.721.272.96.96,0,0,1,.246.668.929.929,0,0,1-.246.659.938.938,0,0,1-.721.264.924.924,0,0,1-.716-.264A.938.938,0,0,1,101.343,46.968Zm3.929,7.189a5.617,5.617,0,0,1,.549-2.514,4.1,4.1,0,0,1,1.529-1.723,4.163,4.163,0,0,1,2.237-.606,4.01,4.01,0,0,1,3.142,1.345,5.174,5.174,0,0,1,1.2,3.577v.114a5.666,5.666,0,0,1-.532,2.492,4.038,4.038,0,0,1-1.521,1.718,4.211,4.211,0,0,1-2.272.615,4,4,0,0,1-3.133-1.345,5.147,5.147,0,0,1-1.2-3.56Zm1.635.193a4.068,4.068,0,0,0,.734,2.54,2.487,2.487,0,0,0,3.933-.013,4.449,4.449,0,0,0,.729-2.72,4.061,4.061,0,0,0-.743-2.536,2.361,2.361,0,0,0-1.973-.971,2.335,2.335,0,0,0-1.942.958A4.416,4.416,0,0,0,106.906,54.351ZM125.6,59h-1.635V48.163l-3.278,1.2V47.891l4.658-1.749h.255Z" transform="translate(384.5 8043)" fill="#12263f"/>
      <path id="Trazado_118408" data-name="Trazado 118408" d="M41.81,15.7a1.83,1.83,0,0,0-.567-1.362,5.071,5.071,0,0,0-1.912-1A6.128,6.128,0,0,1,36.6,11.85a3.286,3.286,0,0,1-.857-2.333,3.378,3.378,0,0,1,.839-2.364,3.567,3.567,0,0,1,2.307-1.1V4.129H40.2V6.063A3.387,3.387,0,0,1,42.5,7.3a4.454,4.454,0,0,1,.822,2.839H41.7a3.061,3.061,0,0,0-.589-1.975,1.935,1.935,0,0,0-1.591-.732,2.2,2.2,0,0,0-1.6.541,2.015,2.015,0,0,0-.554,1.51,1.841,1.841,0,0,0,.584,1.431,5.384,5.384,0,0,0,1.925.969,8.1,8.1,0,0,1,2.092.959,3.365,3.365,0,0,1,1.107,1.217,3.519,3.519,0,0,1,.356,1.626,3.258,3.258,0,0,1-.892,2.391,3.956,3.956,0,0,1-2.5,1.072v1.679h-1.3V19.149a3.79,3.79,0,0,1-2.562-1.165,3.93,3.93,0,0,1-.927-2.755h1.626a2.586,2.586,0,0,0,.642,1.881,2.422,2.422,0,0,0,1.819.659,2.729,2.729,0,0,0,1.811-.554A1.87,1.87,0,0,0,41.81,15.7Zm10.512-1H54.1v1.327H52.322V19H50.687V16.029H44.86v-.958L50.59,6.2h1.731Zm-5.616,0h3.981V8.427l-.193.352Zm9.062,3.445a1.018,1.018,0,0,1,.25-.7.954.954,0,0,1,.751-.281.983.983,0,0,1,.76.281,1,1,0,0,1,.259.7.944.944,0,0,1-.259.677,1,1,0,0,1-.76.272.9.9,0,0,1-1-.949ZM66.683,6.194v1.38h-.3A4.281,4.281,0,0,0,63.361,8.7a4.681,4.681,0,0,0-1.3,3.067,3.471,3.471,0,0,1,2.76-1.16,3.319,3.319,0,0,1,2.667,1.178,4.543,4.543,0,0,1,1,3.041,4.528,4.528,0,0,1-1.077,3.164,3.707,3.707,0,0,1-2.887,1.187,3.653,3.653,0,0,1-2.979-1.411A5.591,5.591,0,0,1,60.4,14.131v-.624a8.424,8.424,0,0,1,1.507-5.4,5.536,5.536,0,0,1,4.487-1.912ZM64.547,11.96a2.733,2.733,0,0,0-2.514,1.758v.6a4.2,4.2,0,0,0,.712,2.549,2.133,2.133,0,0,0,1.775.967,2.067,2.067,0,0,0,1.727-.809,3.355,3.355,0,0,0,.628-2.118,3.356,3.356,0,0,0-.637-2.131A2.042,2.042,0,0,0,64.547,11.96Zm13.887,1.582a7.436,7.436,0,0,1-.976,4.245,4.054,4.054,0,0,1-6.082.031,7.058,7.058,0,0,1-1.02-4.056V11.591A7.271,7.271,0,0,1,71.333,7.4a4.127,4.127,0,0,1,6.1-.048,7.017,7.017,0,0,1,1,4.083Zm-1.626-2.224a5.958,5.958,0,0,0-.58-3.01,2,2,0,0,0-1.837-.945,1.97,1.97,0,0,0-1.819.94,5.817,5.817,0,0,0-.589,2.892v2.6a6.053,6.053,0,0,0,.6,3.063,1.993,1.993,0,0,0,1.824.989,1.966,1.966,0,0,0,1.789-.932,5.834,5.834,0,0,0,.611-2.936Zm11.733,2.224a7.436,7.436,0,0,1-.976,4.245,4.054,4.054,0,0,1-6.082.031,7.058,7.058,0,0,1-1.02-4.056V11.591A7.271,7.271,0,0,1,81.44,7.4a4.127,4.127,0,0,1,6.1-.048,7.017,7.017,0,0,1,1,4.083Zm-1.626-2.224a5.958,5.958,0,0,0-.58-3.01A2,2,0,0,0,84.5,7.363a1.97,1.97,0,0,0-1.819.94A5.817,5.817,0,0,0,82.09,11.2v2.6a6.053,6.053,0,0,0,.6,3.063,1.993,1.993,0,0,0,1.824.989,1.966,1.966,0,0,0,1.789-.932,5.834,5.834,0,0,0,.611-2.936Zm11.716,2.909H94.342V12.9h4.289ZM110.962,15.7a1.83,1.83,0,0,0-.567-1.362,5.071,5.071,0,0,0-1.912-1,6.128,6.128,0,0,1-2.729-1.49,3.286,3.286,0,0,1-.857-2.333,3.378,3.378,0,0,1,.839-2.364,3.567,3.567,0,0,1,2.307-1.1V4.129h1.31V6.063a3.387,3.387,0,0,1,2.3,1.239,4.454,4.454,0,0,1,.822,2.839h-1.617a3.061,3.061,0,0,0-.589-1.975,1.935,1.935,0,0,0-1.591-.732,2.2,2.2,0,0,0-1.6.541,2.015,2.015,0,0,0-.554,1.51,1.841,1.841,0,0,0,.584,1.431,5.384,5.384,0,0,0,1.925.969,8.1,8.1,0,0,1,2.092.959,3.365,3.365,0,0,1,1.107,1.217,3.519,3.519,0,0,1,.356,1.626,3.258,3.258,0,0,1-.892,2.391,3.956,3.956,0,0,1-2.5,1.072v1.679h-1.3V19.149a3.79,3.79,0,0,1-2.562-1.165,3.93,3.93,0,0,1-.927-2.755h1.626a2.586,2.586,0,0,0,.642,1.881,2.422,2.422,0,0,0,1.819.659,2.729,2.729,0,0,0,1.811-.554A1.87,1.87,0,0,0,110.962,15.7Zm10.512-1h1.775v1.327h-1.775V19h-1.635V16.029h-5.827v-.958l5.73-8.868h1.731Zm-5.616,0h3.981V8.427l-.193.352Zm9.062,3.445a1.018,1.018,0,0,1,.25-.7.954.954,0,0,1,.751-.281.983.983,0,0,1,.76.281,1,1,0,0,1,.259.7.944.944,0,0,1-.259.677,1,1,0,0,1-.76.272.9.9,0,0,1-1-.949ZM134.8,19h-1.635V8.163l-3.278,1.2V7.891l4.658-1.749h.255Zm12.788-5.458a7.436,7.436,0,0,1-.976,4.245,4.054,4.054,0,0,1-6.082.031,7.058,7.058,0,0,1-1.02-4.056V11.591a7.271,7.271,0,0,1,.976-4.192,4.127,4.127,0,0,1,6.1-.048,7.017,7.017,0,0,1,1,4.083Zm-1.626-2.224a5.958,5.958,0,0,0-.58-3.01,2,2,0,0,0-1.837-.945,1.97,1.97,0,0,0-1.819.94,5.817,5.817,0,0,0-.589,2.892v2.6a6.053,6.053,0,0,0,.6,3.063,1.993,1.993,0,0,0,1.824.989,1.966,1.966,0,0,0,1.789-.932,5.834,5.834,0,0,0,.611-2.936Zm11.733,2.224a7.436,7.436,0,0,1-.976,4.245,4.054,4.054,0,0,1-6.082.031,7.058,7.058,0,0,1-1.02-4.056V11.591a7.271,7.271,0,0,1,.976-4.192,4.127,4.127,0,0,1,6.1-.048,7.017,7.017,0,0,1,1,4.083Zm-1.626-2.224a5.958,5.958,0,0,0-.58-3.01,2,2,0,0,0-1.837-.945,1.97,1.97,0,0,0-1.819.94,5.817,5.817,0,0,0-.589,2.892v2.6a6.053,6.053,0,0,0,.6,3.063,1.993,1.993,0,0,0,1.824.989,1.966,1.966,0,0,0,1.789-.932,5.834,5.834,0,0,0,.611-2.936ZM76.386,55.7a1.83,1.83,0,0,0-.567-1.362,5.071,5.071,0,0,0-1.912-1,6.128,6.128,0,0,1-2.729-1.49,3.286,3.286,0,0,1-.857-2.333,3.378,3.378,0,0,1,.839-2.364,3.567,3.567,0,0,1,2.307-1.1V44.129h1.31v1.934a3.387,3.387,0,0,1,2.3,1.239,4.454,4.454,0,0,1,.822,2.839H76.281a3.061,3.061,0,0,0-.589-1.975,1.935,1.935,0,0,0-1.591-.732,2.2,2.2,0,0,0-1.6.541,2.015,2.015,0,0,0-.554,1.51,1.841,1.841,0,0,0,.584,1.431,5.384,5.384,0,0,0,1.925.969,8.1,8.1,0,0,1,2.092.959,3.365,3.365,0,0,1,1.107,1.217,3.519,3.519,0,0,1,.356,1.626,3.258,3.258,0,0,1-.892,2.391,3.956,3.956,0,0,1-2.5,1.072v1.679h-1.3V59.149a3.79,3.79,0,0,1-2.562-1.165,3.93,3.93,0,0,1-.927-2.755h1.626A2.586,2.586,0,0,0,72.1,57.11a2.422,2.422,0,0,0,1.819.659,2.729,2.729,0,0,0,1.811-.554A1.87,1.87,0,0,0,76.386,55.7Zm10.512-1h1.775v1.327H86.9V59H85.263V56.029H79.436v-.958l5.73-8.868H86.9Zm-5.616,0h3.981V48.427l-.193.352Zm9.062,3.445a1.018,1.018,0,0,1,.25-.7.954.954,0,0,1,.751-.281.983.983,0,0,1,.76.281,1,1,0,0,1,.259.7.944.944,0,0,1-.259.677,1,1,0,0,1-.76.272.9.9,0,0,1-1-.949Zm9.879.853H98.587V48.163l-3.278,1.2V47.891l4.658-1.749h.255Zm12.788-5.458a7.436,7.436,0,0,1-.976,4.245,4.054,4.054,0,0,1-6.082.031,7.058,7.058,0,0,1-1.02-4.056V51.591a7.271,7.271,0,0,1,.976-4.192,4.127,4.127,0,0,1,6.1-.048,7.017,7.017,0,0,1,1,4.083Zm-1.626-2.224a5.958,5.958,0,0,0-.58-3.01,2,2,0,0,0-1.837-.945,1.97,1.97,0,0,0-1.819.94,5.817,5.817,0,0,0-.589,2.892v2.6a6.053,6.053,0,0,0,.6,3.063,1.993,1.993,0,0,0,1.824.989,1.966,1.966,0,0,0,1.789-.932,5.834,5.834,0,0,0,.611-2.936Zm11.733,2.224a7.436,7.436,0,0,1-.976,4.245,4.054,4.054,0,0,1-6.082.031,7.058,7.058,0,0,1-1.02-4.056V51.591a7.271,7.271,0,0,1,.976-4.192,4.127,4.127,0,0,1,6.1-.048,7.017,7.017,0,0,1,1,4.083Zm-1.626-2.224a5.958,5.958,0,0,0-.58-3.01,2,2,0,0,0-1.837-.945,1.97,1.97,0,0,0-1.819.94,5.817,5.817,0,0,0-.589,2.892v2.6a6.053,6.053,0,0,0,.6,3.063,1.993,1.993,0,0,0,1.824.989,1.966,1.966,0,0,0,1.789-.932,5.834,5.834,0,0,0,.611-2.936Z" transform="translate(384.5 8160)" fill="#12263f"/>
      <path id="Trazado_118411" data-name="Trazado 118411" d="M83.809,15.7a1.83,1.83,0,0,0-.567-1.362,5.071,5.071,0,0,0-1.912-1A6.128,6.128,0,0,1,78.6,11.85a3.286,3.286,0,0,1-.857-2.333,3.378,3.378,0,0,1,.839-2.364,3.567,3.567,0,0,1,2.307-1.1V4.129H82.2V6.063A3.387,3.387,0,0,1,84.5,7.3a4.454,4.454,0,0,1,.822,2.839H83.7a3.061,3.061,0,0,0-.589-1.975,1.935,1.935,0,0,0-1.591-.732,2.2,2.2,0,0,0-1.6.541,2.015,2.015,0,0,0-.554,1.51,1.841,1.841,0,0,0,.584,1.431,5.384,5.384,0,0,0,1.925.969,8.1,8.1,0,0,1,2.092.959,3.365,3.365,0,0,1,1.107,1.217,3.519,3.519,0,0,1,.356,1.626,3.258,3.258,0,0,1-.892,2.391,3.956,3.956,0,0,1-2.5,1.072v1.679h-1.3V19.149a3.79,3.79,0,0,1-2.562-1.165,3.93,3.93,0,0,1-.927-2.755h1.626a2.586,2.586,0,0,0,.642,1.881,2.422,2.422,0,0,0,1.819.659,2.729,2.729,0,0,0,1.811-.554A1.87,1.87,0,0,0,83.809,15.7Zm4.395-3.12.65-6.381H95.41v1.5H90.233L89.847,11.2a4.13,4.13,0,0,1,2.136-.554A3.531,3.531,0,0,1,94.76,11.8a4.53,4.53,0,0,1,1.028,3.125,4.372,4.372,0,0,1-1.068,3.116,3.892,3.892,0,0,1-2.984,1.138,4.045,4.045,0,0,1-2.769-.94,3.754,3.754,0,0,1-1.222-2.6h1.538a2.582,2.582,0,0,0,.782,1.657,2.432,2.432,0,0,0,1.67.558,2.194,2.194,0,0,0,1.78-.773,3.233,3.233,0,0,0,.646-2.136,2.968,2.968,0,0,0-.7-2.061A2.377,2.377,0,0,0,91.6,12.1a2.681,2.681,0,0,0-1.67.466l-.431.352Zm17.385.958a7.436,7.436,0,0,1-.976,4.245,4.054,4.054,0,0,1-6.082.031,7.058,7.058,0,0,1-1.02-4.056V11.591A7.271,7.271,0,0,1,98.486,7.4a4.127,4.127,0,0,1,6.1-.048,7.017,7.017,0,0,1,1,4.083Zm-1.626-2.224a5.958,5.958,0,0,0-.58-3.01,2,2,0,0,0-1.837-.945,1.97,1.97,0,0,0-1.819.94,5.817,5.817,0,0,0-.589,2.892v2.6a6.053,6.053,0,0,0,.6,3.063,1.993,1.993,0,0,0,1.824.989,1.966,1.966,0,0,0,1.789-.932,5.834,5.834,0,0,0,.611-2.936ZM115.7,13.542a7.436,7.436,0,0,1-.976,4.245,4.054,4.054,0,0,1-6.082.031,7.058,7.058,0,0,1-1.02-4.056V11.591a7.271,7.271,0,0,1,.976-4.192,4.127,4.127,0,0,1,6.1-.048,7.017,7.017,0,0,1,1,4.083Zm-1.626-2.224a5.958,5.958,0,0,0-.58-3.01,2,2,0,0,0-1.837-.945,1.97,1.97,0,0,0-1.819.94,5.817,5.817,0,0,0-.589,2.892v2.6a6.053,6.053,0,0,0,.6,3.063,1.993,1.993,0,0,0,1.824.989,1.966,1.966,0,0,0,1.789-.932,5.834,5.834,0,0,0,.611-2.936ZM76.386,55.7a1.83,1.83,0,0,0-.567-1.362,5.071,5.071,0,0,0-1.912-1,6.128,6.128,0,0,1-2.729-1.49,3.286,3.286,0,0,1-.857-2.333,3.378,3.378,0,0,1,.839-2.364,3.567,3.567,0,0,1,2.307-1.1V44.129h1.31v1.934a3.387,3.387,0,0,1,2.3,1.239,4.454,4.454,0,0,1,.822,2.839H76.281a3.061,3.061,0,0,0-.589-1.975,1.935,1.935,0,0,0-1.591-.732,2.2,2.2,0,0,0-1.6.541,2.015,2.015,0,0,0-.554,1.51,1.841,1.841,0,0,0,.584,1.431,5.384,5.384,0,0,0,1.925.969,8.1,8.1,0,0,1,2.092.959,3.365,3.365,0,0,1,1.107,1.217,3.519,3.519,0,0,1,.356,1.626,3.258,3.258,0,0,1-.892,2.391,3.956,3.956,0,0,1-2.5,1.072v1.679h-1.3V59.149a3.79,3.79,0,0,1-2.562-1.165,3.93,3.93,0,0,1-.927-2.755h1.626A2.586,2.586,0,0,0,72.1,57.11a2.422,2.422,0,0,0,1.819.659,2.729,2.729,0,0,0,1.811-.554A1.87,1.87,0,0,0,76.386,55.7Zm10.512-1h1.775v1.327H86.9V59H85.263V56.029H79.436v-.958l5.73-8.868H86.9Zm-5.616,0h3.981V48.427l-.193.352Zm9.062,3.445a1.018,1.018,0,0,1,.25-.7.954.954,0,0,1,.751-.281.983.983,0,0,1,.76.281,1,1,0,0,1,.259.7.944.944,0,0,1-.259.677,1,1,0,0,1-.76.272.9.9,0,0,1-1-.949Zm9.879.853H98.587V48.163l-3.278,1.2V47.891l4.658-1.749h.255Zm12.788-5.458a7.436,7.436,0,0,1-.976,4.245,4.054,4.054,0,0,1-6.082.031,7.058,7.058,0,0,1-1.02-4.056V51.591a7.271,7.271,0,0,1,.976-4.192,4.127,4.127,0,0,1,6.1-.048,7.017,7.017,0,0,1,1,4.083Zm-1.626-2.224a5.958,5.958,0,0,0-.58-3.01,2,2,0,0,0-1.837-.945,1.97,1.97,0,0,0-1.819.94,5.817,5.817,0,0,0-.589,2.892v2.6a6.053,6.053,0,0,0,.6,3.063,1.993,1.993,0,0,0,1.824.989,1.966,1.966,0,0,0,1.789-.932,5.834,5.834,0,0,0,.611-2.936Zm11.733,2.224a7.436,7.436,0,0,1-.976,4.245,4.054,4.054,0,0,1-6.082.031,7.058,7.058,0,0,1-1.02-4.056V51.591a7.271,7.271,0,0,1,.976-4.192,4.127,4.127,0,0,1,6.1-.048,7.017,7.017,0,0,1,1,4.083Zm-1.626-2.224a5.958,5.958,0,0,0-.58-3.01,2,2,0,0,0-1.837-.945,1.97,1.97,0,0,0-1.819.94,5.817,5.817,0,0,0-.589,2.892v2.6a6.053,6.053,0,0,0,.6,3.063,1.993,1.993,0,0,0,1.824.989,1.966,1.966,0,0,0,1.789-.932,5.834,5.834,0,0,0,.611-2.936Z" transform="translate(358 8284)" fill="#12263f"/>
      <path id="Trazado_118404" data-name="Trazado 118404" d="M11.32,14.667a4.673,4.673,0,0,1-.721,2.36,4.35,4.35,0,0,1-1.85,1.586,6.3,6.3,0,0,1-2.72.563,5.025,5.025,0,0,1-3.973-1.644,6.786,6.786,0,0,1-1.45-4.641v-.633a7.746,7.746,0,0,1,.655-3.292,4.961,4.961,0,0,1,1.885-2.18,5.26,5.26,0,0,1,2.848-.769A5.516,5.516,0,0,1,9.738,7.245a4.844,4.844,0,0,1,1.608,3.379H8.271a2.292,2.292,0,0,0-.589-1.679,2.422,2.422,0,0,0-1.687-.51A1.843,1.843,0,0,0,4.307,9.3a5.536,5.536,0,0,0-.562,2.751v.905a6.125,6.125,0,0,0,.514,2.927,1.882,1.882,0,0,0,1.771.879,2.369,2.369,0,0,0,1.626-.5,2.126,2.126,0,0,0,.6-1.591Zm4.544-.009V19H12.779V6.2h5.106a5.948,5.948,0,0,1,2.6.541,4.074,4.074,0,0,1,1.749,1.538,4.2,4.2,0,0,1,.62,2.263,3.7,3.7,0,0,1-1.34,2.993,5.561,5.561,0,0,1-3.678,1.121Zm0-2.382h2.021a1.906,1.906,0,0,0,1.367-.448,1.665,1.665,0,0,0,.47-1.266,2.059,2.059,0,0,0-.483-1.433,1.712,1.712,0,0,0-1.318-.545H15.864ZM27.58,14.658V19H24.5V6.2H29.6a5.948,5.948,0,0,1,2.6.541,4.074,4.074,0,0,1,1.749,1.538,4.2,4.2,0,0,1,.62,2.263,3.7,3.7,0,0,1-1.34,2.993,5.561,5.561,0,0,1-3.678,1.121Zm0-2.382H29.6a1.906,1.906,0,0,0,1.367-.448,1.665,1.665,0,0,0,.47-1.266,2.059,2.059,0,0,0-.483-1.433,1.712,1.712,0,0,0-1.318-.545H27.58Zm10.336,3.85a1.686,1.686,0,0,1,1.169.417,1.457,1.457,0,0,1,0,2.136,1.844,1.844,0,0,1-2.342,0,1.456,1.456,0,0,1,0-2.127A1.672,1.672,0,0,1,37.916,16.126Zm0-7.014a1.686,1.686,0,0,1,1.169.417,1.457,1.457,0,0,1,0,2.136,1.844,1.844,0,0,1-2.342,0,1.456,1.456,0,0,1,0-2.127A1.672,1.672,0,0,1,37.916,9.112Z" transform="translate(290 8062)" fill="#12263f"/>
      <path id="Trazado_118407" data-name="Trazado 118407" d="M11.32,14.667a4.673,4.673,0,0,1-.721,2.36,4.35,4.35,0,0,1-1.85,1.586,6.3,6.3,0,0,1-2.72.563,5.025,5.025,0,0,1-3.973-1.644,6.786,6.786,0,0,1-1.45-4.641v-.633a7.746,7.746,0,0,1,.655-3.292,4.961,4.961,0,0,1,1.885-2.18,5.26,5.26,0,0,1,2.848-.769A5.516,5.516,0,0,1,9.738,7.245a4.844,4.844,0,0,1,1.608,3.379H8.271a2.292,2.292,0,0,0-.589-1.679,2.422,2.422,0,0,0-1.687-.51A1.843,1.843,0,0,0,4.307,9.3a5.536,5.536,0,0,0-.562,2.751v.905a6.125,6.125,0,0,0,.514,2.927,1.882,1.882,0,0,0,1.771.879,2.369,2.369,0,0,0,1.626-.5,2.126,2.126,0,0,0,.6-1.591Zm4.544-.009V19H12.779V6.2h5.106a5.948,5.948,0,0,1,2.6.541,4.074,4.074,0,0,1,1.749,1.538,4.2,4.2,0,0,1,.62,2.263,3.7,3.7,0,0,1-1.34,2.993,5.561,5.561,0,0,1-3.678,1.121Zm0-2.382h2.021a1.906,1.906,0,0,0,1.367-.448,1.665,1.665,0,0,0,.47-1.266,2.059,2.059,0,0,0-.483-1.433,1.712,1.712,0,0,0-1.318-.545H15.864ZM27.58,14.658V19H24.5V6.2H29.6a5.948,5.948,0,0,1,2.6.541,4.074,4.074,0,0,1,1.749,1.538,4.2,4.2,0,0,1,.62,2.263,3.7,3.7,0,0,1-1.34,2.993,5.561,5.561,0,0,1-3.678,1.121Zm0-2.382H29.6a1.906,1.906,0,0,0,1.367-.448,1.665,1.665,0,0,0,.47-1.266,2.059,2.059,0,0,0-.483-1.433,1.712,1.712,0,0,0-1.318-.545H27.58Zm10.336,3.85a1.686,1.686,0,0,1,1.169.417,1.457,1.457,0,0,1,0,2.136,1.844,1.844,0,0,1-2.342,0,1.456,1.456,0,0,1,0-2.127A1.672,1.672,0,0,1,37.916,16.126Zm0-7.014a1.686,1.686,0,0,1,1.169.417,1.457,1.457,0,0,1,0,2.136,1.844,1.844,0,0,1-2.342,0,1.456,1.456,0,0,1,0-2.127A1.672,1.672,0,0,1,37.916,9.112Z" transform="translate(290 8184)" fill="#12263f"/>
      <path id="Trazado_118410" data-name="Trazado 118410" d="M11.32,14.667a4.673,4.673,0,0,1-.721,2.36,4.35,4.35,0,0,1-1.85,1.586,6.3,6.3,0,0,1-2.72.563,5.025,5.025,0,0,1-3.973-1.644,6.786,6.786,0,0,1-1.45-4.641v-.633a7.746,7.746,0,0,1,.655-3.292,4.961,4.961,0,0,1,1.885-2.18,5.26,5.26,0,0,1,2.848-.769A5.516,5.516,0,0,1,9.738,7.245a4.844,4.844,0,0,1,1.608,3.379H8.271a2.292,2.292,0,0,0-.589-1.679,2.422,2.422,0,0,0-1.687-.51A1.843,1.843,0,0,0,4.307,9.3a5.536,5.536,0,0,0-.562,2.751v.905a6.125,6.125,0,0,0,.514,2.927,1.882,1.882,0,0,0,1.771.879,2.369,2.369,0,0,0,1.626-.5,2.126,2.126,0,0,0,.6-1.591Zm4.544-.009V19H12.779V6.2h5.106a5.948,5.948,0,0,1,2.6.541,4.074,4.074,0,0,1,1.749,1.538,4.2,4.2,0,0,1,.62,2.263,3.7,3.7,0,0,1-1.34,2.993,5.561,5.561,0,0,1-3.678,1.121Zm0-2.382h2.021a1.906,1.906,0,0,0,1.367-.448,1.665,1.665,0,0,0,.47-1.266,2.059,2.059,0,0,0-.483-1.433,1.712,1.712,0,0,0-1.318-.545H15.864ZM27.58,14.658V19H24.5V6.2H29.6a5.948,5.948,0,0,1,2.6.541,4.074,4.074,0,0,1,1.749,1.538,4.2,4.2,0,0,1,.62,2.263,3.7,3.7,0,0,1-1.34,2.993,5.561,5.561,0,0,1-3.678,1.121Zm0-2.382H29.6a1.906,1.906,0,0,0,1.367-.448,1.665,1.665,0,0,0,.47-1.266,2.059,2.059,0,0,0-.483-1.433,1.712,1.712,0,0,0-1.318-.545H27.58Zm10.336,3.85a1.686,1.686,0,0,1,1.169.417,1.457,1.457,0,0,1,0,2.136,1.844,1.844,0,0,1-2.342,0,1.456,1.456,0,0,1,0-2.127A1.672,1.672,0,0,1,37.916,16.126Zm0-7.014a1.686,1.686,0,0,1,1.169.417,1.457,1.457,0,0,1,0,2.136,1.844,1.844,0,0,1-2.342,0,1.456,1.456,0,0,1,0-2.127A1.672,1.672,0,0,1,37.916,9.112Z" transform="translate(290 8306)" fill="#12263f"/>
      <path id="Trazado_118413" data-name="Trazado 118413" d="M11.32,14.667a4.673,4.673,0,0,1-.721,2.36,4.35,4.35,0,0,1-1.85,1.586,6.3,6.3,0,0,1-2.72.563,5.025,5.025,0,0,1-3.973-1.644,6.786,6.786,0,0,1-1.45-4.641v-.633a7.746,7.746,0,0,1,.655-3.292,4.961,4.961,0,0,1,1.885-2.18,5.26,5.26,0,0,1,2.848-.769A5.516,5.516,0,0,1,9.738,7.245a4.844,4.844,0,0,1,1.608,3.379H8.271a2.292,2.292,0,0,0-.589-1.679,2.422,2.422,0,0,0-1.687-.51A1.843,1.843,0,0,0,4.307,9.3a5.536,5.536,0,0,0-.562,2.751v.905a6.125,6.125,0,0,0,.514,2.927,1.882,1.882,0,0,0,1.771.879,2.369,2.369,0,0,0,1.626-.5,2.126,2.126,0,0,0,.6-1.591Zm4.544-.009V19H12.779V6.2h5.106a5.948,5.948,0,0,1,2.6.541,4.074,4.074,0,0,1,1.749,1.538,4.2,4.2,0,0,1,.62,2.263,3.7,3.7,0,0,1-1.34,2.993,5.561,5.561,0,0,1-3.678,1.121Zm0-2.382h2.021a1.906,1.906,0,0,0,1.367-.448,1.665,1.665,0,0,0,.47-1.266,2.059,2.059,0,0,0-.483-1.433,1.712,1.712,0,0,0-1.318-.545H15.864ZM27.58,14.658V19H24.5V6.2H29.6a5.948,5.948,0,0,1,2.6.541,4.074,4.074,0,0,1,1.749,1.538,4.2,4.2,0,0,1,.62,2.263,3.7,3.7,0,0,1-1.34,2.993,5.561,5.561,0,0,1-3.678,1.121Zm0-2.382H29.6a1.906,1.906,0,0,0,1.367-.448,1.665,1.665,0,0,0,.47-1.266,2.059,2.059,0,0,0-.483-1.433,1.712,1.712,0,0,0-1.318-.545H27.58Zm18.984,2.391a4.673,4.673,0,0,1-.721,2.36,4.35,4.35,0,0,1-1.85,1.586,6.3,6.3,0,0,1-2.72.563A5.025,5.025,0,0,1,37.3,17.532a6.786,6.786,0,0,1-1.45-4.641v-.633a7.746,7.746,0,0,1,.655-3.292,4.961,4.961,0,0,1,1.885-2.18,5.26,5.26,0,0,1,2.848-.769,5.516,5.516,0,0,1,3.744,1.226,4.844,4.844,0,0,1,1.608,3.379H43.515a2.292,2.292,0,0,0-.589-1.679,2.422,2.422,0,0,0-1.687-.51,1.843,1.843,0,0,0-1.687.861,5.536,5.536,0,0,0-.562,2.751v.905A6.126,6.126,0,0,0,39.5,15.88a1.882,1.882,0,0,0,1.771.879,2.369,2.369,0,0,0,1.626-.5,2.126,2.126,0,0,0,.6-1.591Zm4.544-.009V19H48.023V6.2H53.13a5.948,5.948,0,0,1,2.6.541,4.074,4.074,0,0,1,1.749,1.538,4.2,4.2,0,0,1,.62,2.263,3.7,3.7,0,0,1-1.34,2.993,5.561,5.561,0,0,1-3.678,1.121Zm0-2.382H53.13a1.906,1.906,0,0,0,1.367-.448,1.665,1.665,0,0,0,.47-1.266,2.059,2.059,0,0,0-.483-1.433,1.712,1.712,0,0,0-1.318-.545H51.108Zm11.716,2.382V19H59.739V6.2h5.106a5.948,5.948,0,0,1,2.6.541,4.074,4.074,0,0,1,1.749,1.538,4.2,4.2,0,0,1,.62,2.263,3.7,3.7,0,0,1-1.34,2.993,5.561,5.561,0,0,1-3.678,1.121Zm0-2.382h2.021a1.906,1.906,0,0,0,1.367-.448,1.665,1.665,0,0,0,.47-1.266A2.059,2.059,0,0,0,66.2,9.13a1.712,1.712,0,0,0-1.318-.545H62.824Zm10.336,3.85a1.686,1.686,0,0,1,1.169.417,1.457,1.457,0,0,1,0,2.136,1.844,1.844,0,0,1-2.342,0,1.456,1.456,0,0,1,0-2.127A1.672,1.672,0,0,1,73.16,16.126Zm0-7.014a1.686,1.686,0,0,1,1.169.417,1.457,1.457,0,0,1,0,2.136,1.844,1.844,0,0,1-2.342,0,1.456,1.456,0,0,1,0-2.127A1.672,1.672,0,0,1,73.16,9.112ZM86.546,11.74h3v2.54h-3v3.437H83.777V14.28H80.771V11.74h3.006V8.4h2.769ZM101.821,19H98.851V9.543l-2.918.853V8.146L101.549,6.2h.272Zm12.788,0h-8.93V17.066l4.113-4.324a4.909,4.909,0,0,0,1.521-2.751,1.913,1.913,0,0,0-.36-1.257,1.287,1.287,0,0,0-1.046-.431,1.3,1.3,0,0,0-1.1.576,2.366,2.366,0,0,0-.422,1.437h-2.971A4.2,4.2,0,0,1,106,8.141a4.129,4.129,0,0,1,1.635-1.56,4.856,4.856,0,0,1,2.338-.562,4.777,4.777,0,0,1,3.195.958,3.42,3.42,0,0,1,1.121,2.751,4,4,0,0,1-.281,1.472,6.456,6.456,0,0,1-.875,1.5,22.029,22.029,0,0,1-1.912,2.1l-1.652,1.907h5.036Zm2.584,3.445-1.494-.7.3-.6a4.874,4.874,0,0,0,.642-2.18v-2.2h2.373L119,18.675a4.767,4.767,0,0,1-.519,2.057A5.226,5.226,0,0,1,117.193,22.445ZM127.521,19H124.55V9.543l-2.918.853V8.146L127.248,6.2h.272Zm9.694-4.948a3.128,3.128,0,0,1-2.145.861,3.463,3.463,0,0,1-2.76-1.178,4.64,4.64,0,0,1-1.02-3.146,4.722,4.722,0,0,1,.571-2.285,4.287,4.287,0,0,1,1.6-1.67,4.373,4.373,0,0,1,2.281-.615,4.245,4.245,0,0,1,2.29.637,4.29,4.29,0,0,1,1.6,1.8,6.189,6.189,0,0,1,.589,2.685v1.134a7.693,7.693,0,0,1-.831,3.674,5.734,5.734,0,0,1-2.369,2.391,7.4,7.4,0,0,1-3.586.835h-.185V16.8l.563-.009Q136.872,16.645,137.215,14.052Zm-1.345-1.274a1.442,1.442,0,0,0,1.389-.835v-1.23a3.2,3.2,0,0,0-.413-1.819,1.3,1.3,0,0,0-1.116-.589,1.225,1.225,0,0,0-1.046.668,2.968,2.968,0,0,0-.422,1.617,2.661,2.661,0,0,0,.431,1.6A1.378,1.378,0,0,0,135.87,12.777Zm7.822,3.349a1.686,1.686,0,0,1,1.169.417,1.457,1.457,0,0,1,0,2.136,1.844,1.844,0,0,1-2.342,0,1.456,1.456,0,0,1,0-2.127A1.672,1.672,0,0,1,143.692,16.126Zm0-7.014a1.686,1.686,0,0,1,1.169.417,1.457,1.457,0,0,1,0,2.136,1.844,1.844,0,0,1-2.342,0,1.456,1.456,0,0,1,0-2.127A1.672,1.672,0,0,1,143.692,9.112Z" transform="translate(290 8404)" fill="#12263f"/>
      <path id="Trazado_118406" data-name="Trazado 118406" d="M5.739,10.457,7.831,6.2h3.524L7.778,12.549,11.452,19H7.893L5.739,14.667,3.586,19H.035L3.7,12.549.132,6.2H3.647ZM23.317,19H20.347V9.543l-2.918.853V8.146L23.045,6.2h.272Zm12.744-5.229a6.11,6.11,0,0,1-1.165,4,4.024,4.024,0,0,1-3.283,1.406,4.046,4.046,0,0,1-3.3-1.415,6.1,6.1,0,0,1-1.169-3.99V11.433a6.11,6.11,0,0,1,1.165-4A4.034,4.034,0,0,1,31.6,6.027a4.036,4.036,0,0,1,3.3,1.415,6.116,6.116,0,0,1,1.169,4ZM33.1,11.055a4.564,4.564,0,0,0-.36-2.061A1.2,1.2,0,0,0,31.6,8.313a1.176,1.176,0,0,0-1.112.633,4.3,4.3,0,0,0-.374,1.916v3.27a4.6,4.6,0,0,0,.36,2.1,1.209,1.209,0,0,0,1.143.664,1.193,1.193,0,0,0,1.116-.646,4.39,4.39,0,0,0,.369-2.026Zm13.386,2.716a6.11,6.11,0,0,1-1.165,4,4.024,4.024,0,0,1-3.283,1.406,4.046,4.046,0,0,1-3.3-1.415,6.1,6.1,0,0,1-1.169-3.99V11.433a6.11,6.11,0,0,1,1.165-4,4.034,4.034,0,0,1,3.292-1.406,4.036,4.036,0,0,1,3.3,1.415,6.116,6.116,0,0,1,1.169,4Zm-2.962-2.716a4.564,4.564,0,0,0-.36-2.061,1.2,1.2,0,0,0-1.143-.681,1.176,1.176,0,0,0-1.112.633,4.3,4.3,0,0,0-.374,1.916v3.27a4.6,4.6,0,0,0,.36,2.1,1.209,1.209,0,0,0,1.143.664,1.193,1.193,0,0,0,1.116-.646,4.39,4.39,0,0,0,.369-2.026Z" transform="translate(641 8062)" fill="#12263f"/>
      <path id="Trazado_118409" data-name="Trazado 118409" d="M5.739,10.457,7.831,6.2h3.524L7.778,12.549,11.452,19H7.893L5.739,14.667,3.586,19H.035L3.7,12.549.132,6.2H3.647ZM23.317,19H20.347V9.543l-2.918.853V8.146L23.045,6.2h.272Zm12.744-5.229a6.11,6.11,0,0,1-1.165,4,4.024,4.024,0,0,1-3.283,1.406,4.046,4.046,0,0,1-3.3-1.415,6.1,6.1,0,0,1-1.169-3.99V11.433a6.11,6.11,0,0,1,1.165-4A4.034,4.034,0,0,1,31.6,6.027a4.036,4.036,0,0,1,3.3,1.415,6.116,6.116,0,0,1,1.169,4ZM33.1,11.055a4.564,4.564,0,0,0-.36-2.061A1.2,1.2,0,0,0,31.6,8.313a1.176,1.176,0,0,0-1.112.633,4.3,4.3,0,0,0-.374,1.916v3.27a4.6,4.6,0,0,0,.36,2.1,1.209,1.209,0,0,0,1.143.664,1.193,1.193,0,0,0,1.116-.646,4.39,4.39,0,0,0,.369-2.026Zm13.386,2.716a6.11,6.11,0,0,1-1.165,4,4.024,4.024,0,0,1-3.283,1.406,4.046,4.046,0,0,1-3.3-1.415,6.1,6.1,0,0,1-1.169-3.99V11.433a6.11,6.11,0,0,1,1.165-4,4.034,4.034,0,0,1,3.292-1.406,4.036,4.036,0,0,1,3.3,1.415,6.116,6.116,0,0,1,1.169,4Zm-2.962-2.716a4.564,4.564,0,0,0-.36-2.061,1.2,1.2,0,0,0-1.143-.681,1.176,1.176,0,0,0-1.112.633,4.3,4.3,0,0,0-.374,1.916v3.27a4.6,4.6,0,0,0,.36,2.1,1.209,1.209,0,0,0,1.143.664,1.193,1.193,0,0,0,1.116-.646,4.39,4.39,0,0,0,.369-2.026Z" transform="translate(641 8179)" fill="#12263f"/>
      <path id="Trazado_118412" data-name="Trazado 118412" d="M5.739,10.457,7.831,6.2h3.524L7.778,12.549,11.452,19H7.893L5.739,14.667,3.586,19H.035L3.7,12.549.132,6.2H3.647ZM23.317,19H20.347V9.543l-2.918.853V8.146L23.045,6.2h.272Zm12.744-5.229a6.11,6.11,0,0,1-1.165,4,4.024,4.024,0,0,1-3.283,1.406,4.046,4.046,0,0,1-3.3-1.415,6.1,6.1,0,0,1-1.169-3.99V11.433a6.11,6.11,0,0,1,1.165-4A4.034,4.034,0,0,1,31.6,6.027a4.036,4.036,0,0,1,3.3,1.415,6.116,6.116,0,0,1,1.169,4ZM33.1,11.055a4.564,4.564,0,0,0-.36-2.061A1.2,1.2,0,0,0,31.6,8.313a1.176,1.176,0,0,0-1.112.633,4.3,4.3,0,0,0-.374,1.916v3.27a4.6,4.6,0,0,0,.36,2.1,1.209,1.209,0,0,0,1.143.664,1.193,1.193,0,0,0,1.116-.646,4.39,4.39,0,0,0,.369-2.026Zm13.386,2.716a6.11,6.11,0,0,1-1.165,4,4.024,4.024,0,0,1-3.283,1.406,4.046,4.046,0,0,1-3.3-1.415,6.1,6.1,0,0,1-1.169-3.99V11.433a6.11,6.11,0,0,1,1.165-4,4.034,4.034,0,0,1,3.292-1.406,4.036,4.036,0,0,1,3.3,1.415,6.116,6.116,0,0,1,1.169,4Zm-2.962-2.716a4.564,4.564,0,0,0-.36-2.061,1.2,1.2,0,0,0-1.143-.681,1.176,1.176,0,0,0-1.112.633,4.3,4.3,0,0,0-.374,1.916v3.27a4.6,4.6,0,0,0,.36,2.1,1.209,1.209,0,0,0,1.143.664,1.193,1.193,0,0,0,1.116-.646,4.39,4.39,0,0,0,.369-2.026Z" transform="translate(530 8300)" fill="#12263f"/>
    </g>
  </g>
</svg>
