<svg xmlns="http://www.w3.org/2000/svg" width="191.99" height="210.305" viewBox="0 0 191.99 210.305">
  <g id="Grupo_55223" data-name="Grupo 55223" transform="translate(-46.73 -59.23)">
    <g id="Layer_1" data-name="Layer 1">
      <g id="Grupo_54903" data-name="Grupo 54903">
        <g id="Grupo_54901" data-name="Grupo 54901">
          <path id="Trazado_105712" data-name="Trazado 105712" d="M220.8,93.74h-.1v-33H99.1v33H99c-11.2,20.11-17.92,45.86-17.92,73.92,0,27.11,6.27,52.05,16.78,71.84,0,0,1.31,7.83,62,7.83,58.94,0,62-7.83,62-7.83,10.52-19.79,16.79-44.73,16.79-71.84C238.72,139.6,232,113.85,220.8,93.74ZM218.39,237c-1.48,1-11.45,6-58.49,6-30.94,0-45.76-2.06-52.76-3.79a19.869,19.869,0,0,1-5.61-2c-10.56-20-16.15-44-16.15-69.57,0-25.89,6-51.1,17-71.11a4.31,4.31,0,0,0,1-2.81V65h113V93.74a4.31,4.31,0,0,0,1,2.81c10.95,20,17,45.22,17,71.11C234.41,193.08,228.88,217,218.39,237Z" fill="#bcbec0" opacity="0.7"/>
          <path id="Trazado_105713" data-name="Trazado 105713" d="M223.27,108.82a124.86,124.86,0,0,0-5.83-12.27,4.31,4.31,0,0,1-1-2.81V65h-113V93.74a4.31,4.31,0,0,1-1,2.81,122.62,122.62,0,0,0-5.83,12.27C116.25,105.72,203.55,105.72,223.27,108.82Z" fill="#fff" opacity="0.5"/>
          <path id="Trazado_105714" data-name="Trazado 105714" d="M101.53,237.23a19.869,19.869,0,0,0,5.61,2C114.14,241,129,243,159.9,243c47,0,57-5.06,58.49-6,10.49-20,16-43.91,16-69.33,0-20.84-3.91-41.24-11.14-58.84-19.72-3.1-107-3.1-126.74,0-7.24,17.6-11.15,38-11.15,58.84C85.38,193.18,91,217.23,101.53,237.23Z" fill="#781533"/>
          <path id="Trazado_105715" data-name="Trazado 105715" d="M96.25,109.16c13.77.87,35.84,1.43,60.72,1.43,28.58,0,53.45-.74,66.28-1.83a.19.19,0,0,0-.05-.13c-19.72-3.1-107-3.1-126.74,0C96.39,108.81,96.33,109,96.25,109.16Z" fill="#ff78c9" opacity="0.5"/>
          <g id="Grupo_54895" data-name="Grupo 54895">
            <path id="Trazado_105716" data-name="Trazado 105716" d="M225.72,77.22a4,4,0,0,1-4,4H98.11a4,4,0,0,1-4-4h0a4,4,0,0,1,4-4H221.69a4,4,0,0,1,4,4Z" fill="#d1d3d4"/>
            <g id="Grupo_54894" data-name="Grupo 54894" opacity="0.5">
              <path id="Trazado_105717" data-name="Trazado 105717" d="M221.69,73.19H98.11a4,4,0,0,0-4,4H225.72a4,4,0,0,0-4.03-4Z" fill="#fff"/>
            </g>
          </g>
          <g id="Grupo_54897" data-name="Grupo 54897">
            <path id="Trazado_105718" data-name="Trazado 105718" d="M225.72,63.25a4,4,0,0,1-4,4H98.11a4,4,0,0,1-4-4h0a4,4,0,0,1,4-4H221.69a4,4,0,0,1,4,4Z" fill="#d1d3d4"/>
            <g id="Grupo_54896" data-name="Grupo 54896" opacity="0.5">
              <path id="Trazado_105719" data-name="Trazado 105719" d="M221.69,59.23H98.11a4,4,0,0,0-4,4H225.72a4,4,0,0,0-4.03-4Z" fill="#fff"/>
            </g>
          </g>
          <g id="Grupo_54899" data-name="Grupo 54899">
            <path id="Trazado_105720" data-name="Trazado 105720" d="M225.72,91.77a4,4,0,0,1-4,4H98.11a4,4,0,0,1-4-4h0a4,4,0,0,1,4-4H221.69a4,4,0,0,1,4,4Z" fill="#d1d3d4"/>
            <g id="Grupo_54898" data-name="Grupo 54898" opacity="0.5">
              <path id="Trazado_105721" data-name="Trazado 105721" d="M221.69,87.75H98.11a4,4,0,0,0-4,4H225.72a4,4,0,0,0-4.03-4Z" fill="#fff"/>
            </g>
          </g>
          <g id="Grupo_54900" data-name="Grupo 54900">
            <path id="Trazado_105722" data-name="Trazado 105722" d="M181.91,143.63a8.79,8.79,0,1,0-8.79,8.78,8.79,8.79,0,0,0,8.79-8.78Z" fill="#4f001f"/>
            <path id="Trazado_105723" data-name="Trazado 105723" d="M196.58,121.87a5.42,5.42,0,1,0-5.41,5.41,5.42,5.42,0,0,0,5.41-5.41Z" fill="#4f001f"/>
            <path id="Trazado_105724" data-name="Trazado 105724" d="M220.54,197.9a4.4,4.4,0,1,0-4.4,4.4,4.4,4.4,0,0,0,4.4-4.4Z" fill="#4f001f"/>
            <path id="Trazado_105725" data-name="Trazado 105725" d="M159.4,164a13.8,13.8,0,1,0-13.79,13.8A13.8,13.8,0,0,0,159.4,164Z" fill="#4f001f"/>
            <path id="Trazado_105726" data-name="Trazado 105726" d="M196,181.14a11.42,11.42,0,1,0-11.42,11.42A11.42,11.42,0,0,0,196,181.14Z" fill="#4f001f"/>
            <path id="Trazado_105727" data-name="Trazado 105727" d="M149.3,218.16a3.69,3.69,0,1,0-3.69,3.69A3.69,3.69,0,0,0,149.3,218.16Z" fill="#4f001f"/>
            <path id="Trazado_105728" data-name="Trazado 105728" d="M181.53,206.56a8.41,8.41,0,1,0-8.4,8.4,8.41,8.41,0,0,0,8.4-8.4Z" fill="#4f001f"/>
            <path id="Trazado_105729" data-name="Trazado 105729" d="M202.22,161a5.64,5.64,0,1,0-5.64,5.64A5.64,5.64,0,0,0,202.22,161Z" fill="#4f001f"/>
            <path id="Trazado_105730" data-name="Trazado 105730" d="M206.12,221.94a7.47,7.47,0,1,0-2.188,5.292,7.48,7.48,0,0,0,2.188-5.292Z" fill="#4f001f"/>
            <path id="Trazado_105731" data-name="Trazado 105731" d="M103.24,174.76a7,7,0,1,0-7,7,7,7,0,0,0,7-7Z" fill="#4f001f"/>
            <path id="Trazado_105732" data-name="Trazado 105732" d="M149.14,125.87a7.66,7.66,0,1,0-7.66,7.66,7.66,7.66,0,0,0,7.66-7.66Z" fill="#4f001f"/>
            <path id="Trazado_105733" data-name="Trazado 105733" d="M151.86,194.28a6.25,6.25,0,1,0-6.25,6.24,6.25,6.25,0,0,0,6.25-6.24Z" fill="#4f001f"/>
            <path id="Trazado_105734" data-name="Trazado 105734" d="M116.86,139a5.16,5.16,0,1,0-5.15,5.15A5.16,5.16,0,0,0,116.86,139Z" fill="#4f001f"/>
            <path id="Trazado_105735" data-name="Trazado 105735" d="M117.92,207.89a4.8,4.8,0,1,0-4.8,4.8,4.8,4.8,0,0,0,4.8-4.8Z" fill="#4f001f"/>
            <path id="Trazado_105736" data-name="Trazado 105736" d="M223.84,170.56a3.31,3.31,0,1,0-3.3,3.31,3.31,3.31,0,0,0,3.3-3.31Z" fill="#4f001f"/>
            <path id="Trazado_105737" data-name="Trazado 105737" d="M135.46,228.33a5.24,5.24,0,1,0-5.24,5.23,5.24,5.24,0,0,0,5.24-5.23Z" fill="#4f001f"/>
            <path id="Trazado_105738" data-name="Trazado 105738" d="M211.85,142.1a4.5,4.5,0,1,0-1.314,3.188,4.51,4.51,0,0,0,1.314-3.188Z" fill="#4f001f"/>
          </g>
          <path id="Trazado_105739" data-name="Trazado 105739" d="M159.9,212.65c31.28,0,56.64-36.19,56.64-80.82a112.878,112.878,0,0,0-2.62-24.35c-17.06-2.24-91-2.24-108,0a112.88,112.88,0,0,0-2.62,24.35C103.26,176.46,128.62,212.65,159.9,212.65Z" fill="#ff78c9" opacity="0.1"/>
          <path id="Trazado_105740" data-name="Trazado 105740" d="M207.81,93.74h-.11l-.12-34.51H165.94l.12,34.51h.1c11.19,20.11,17.92,45.86,17.92,73.92,0,27.11-6.27,52.05-16.79,71.84,0,0-28.41,7.25-20.39,7.25,58.94,0,62-7.25,62-7.25,10.51-19.79,16.78-44.73,16.78-71.84C225.72,139.6,219,113.85,207.81,93.74Z" fill="#2d2d2d" opacity="0.1"/>
          <path id="Trazado_105741" data-name="Trazado 105741" d="M133.46,239.5c-10.51-19.79-16.78-44.73-16.78-71.84,0-28.06,6.72-53.81,17.91-73.92h.11V59.23H114.55V93.74h-.1c-11.2,20.11-17.92,45.86-17.92,73.92,0,27.11,6.27,52.05,16.78,71.84,0,0,1.32,7.25,62,7.25C178.86,246.75,133.46,239.5,133.46,239.5Z" fill="#fff" opacity="0.1"/>
          <path id="Trazado_105742" data-name="Trazado 105742" d="M125.51,169.39c0-28.06-15.65-28.06-15.65,0C109.86,196.5,125.51,196.5,125.51,169.39Z" fill="#fff" opacity="0.5"/>
          <path id="Trazado_105743" data-name="Trazado 105743" d="M123.83,135.21c2.85-12.66-4.21-14.25-7.06-1.59C114,145.85,121.07,147.44,123.83,135.21Z" fill="#fff" opacity="0.5"/>
        </g>
        <g id="Grupo_54902" data-name="Grupo 54902" opacity="0.3">
          <path id="Trazado_105744" data-name="Trazado 105744" d="M221.93,239.5c10.52-19.79,16.79-44.73,16.79-71.84s-6.28-52.08-16.81-71.88a4,4,0,1,0-.22-8h-1V83.8H198.5c-9.76,0-18.73-.85-18.73,7.92a18.67,18.67,0,0,0,1.35,7,18.72,18.72,0,0,0,.12,14.25,18.6,18.6,0,0,0-1.47,7.28,18.834,18.834,0,0,0,1.071,6.263C171.61,147.29,166.77,171.15,166.77,196.14a178.9,178.9,0,0,0,7.22,51C219.35,246,221.93,239.5,221.93,239.5Z" fill="#3b1f20"/>
        </g>
      </g>
      <g id="Grupo_54907" data-name="Grupo 54907">
        <g id="Grupo_54905" data-name="Grupo 54905">
          <path id="Trazado_105745" data-name="Trazado 105745" d="M103.71,227.28c1.8,5.49,5.5,17.42,3.5,22.83-3.73,10.07-18.58,9.76-25.4,10-9.26.36-30.54-.2-34.25-8.7-4.8-11,12.62-27.13,18.64-34.4,6.8-8.13,16.8-12.64,23.54-10.23C95.43,208.82,101.83,221.54,103.71,227.28Z" fill="#b3204d"/>
          <g id="Grupo_54904" data-name="Grupo 54904" opacity="0.6">
            <path id="Trazado_105746" data-name="Trazado 105746" d="M101.71,222.31a48.11,48.11,0,0,1,2,5c1.8,5.49,5.5,17.42,3.5,22.83-3.73,10.07-18.58,9.76-25.4,10-9.26.36-30.54-.2-34.25-8.7a11.78,11.78,0,0,1-.3-7.84c1.4,4.07,4.92,10.24,16.77,10.62C100.69,255.39,105.51,243.91,101.71,222.31Z" fill="#b81f30" opacity="0.8"/>
          </g>
          <path id="Trazado_105747" data-name="Trazado 105747" d="M84,214.16c2.52.51,5,6.74,5.38,9.28.93,6.87-7,8.54-12.16,10.5-3.85,1.47-12.62,5.05-15.57,2.18C57.85,232.39,74.13,212.19,84,214.16Z" fill="#ff9499" opacity="0.3"/>
          <path id="Trazado_105748" data-name="Trazado 105748" d="M86,238.16a1.48,1.48,0,0,1,1,1.21c0,.9-1.13,1.34-1.65,1.58a2.641,2.641,0,0,1-2.49,0C82.17,240.21,84.17,237.78,86,238.16Z" fill="#efbf14"/>
          <path id="Trazado_105749" data-name="Trazado 105749" d="M77.79,233.21a1.48,1.48,0,0,1,1,1.21c0,.9-1.13,1.35-1.65,1.58a2.641,2.641,0,0,1-2.49,0C73.93,235.26,75.93,232.84,77.79,233.21Z" fill="#efbf14"/>
          <path id="Trazado_105750" data-name="Trazado 105750" d="M72.89,221.89a1.47,1.47,0,0,1,1.36.79c.34.83-.58,1.65-1,2.06s-1.63,1.15-2.34.84C70,225.18,71,222.2,72.89,221.89Z" fill="#efbf14"/>
          <path id="Trazado_105751" data-name="Trazado 105751" d="M72.91,244a1.48,1.48,0,0,1,.75,1.38c-.14.88-1.37,1.1-1.92,1.24-.76.18-2,.13-2.43-.51C68.73,245.29,71.15,243.28,72.91,244Z" fill="#efbf14"/>
          <path id="Trazado_105752" data-name="Trazado 105752" d="M63.19,234.37a1.48,1.48,0,0,1,1.24,1c.22.87-.82,1.56-1.28,1.9-.62.46-1.77.91-2.43.5C59.86,237.21,61.3,234.4,63.19,234.37Z" fill="#efbf14"/>
          <path id="Trazado_105753" data-name="Trazado 105753" d="M86.83,222.11a1.47,1.47,0,0,1,1.08,1.13c.1.9-1,1.43-1.53,1.7-.68.38-1.88.66-2.48.16C83.13,224.45,84.94,221.88,86.83,222.11Z" fill="#efbf14"/>
          <path id="Trazado_105754" data-name="Trazado 105754" d="M62.93,248.23a1.48,1.48,0,0,1,.45,1.5c-.32.84-1.56.81-2.13.82-.78,0-2-.27-2.28-1C58.57,248.64,61.35,247.17,62.93,248.23Z" fill="#efbf14"/>
          <path id="Trazado_105755" data-name="Trazado 105755" d="M84.48,210.37a1.48,1.48,0,0,1,.46,1.51c-.32.84-1.57.8-2.14.82-.77,0-2-.28-2.28-1C80.13,210.79,82.91,209.31,84.48,210.37Z" fill="#efbf14"/>
          <path id="Trazado_105756" data-name="Trazado 105756" d="M71.77,254.47A1.49,1.49,0,0,1,72,256c-.42.79-1.65.61-2.22.56-.77-.07-1.93-.51-2.14-1.26C67.4,254.36,70.33,253.23,71.77,254.47Z" fill="#ed9515"/>
          <path id="Trazado_105757" data-name="Trazado 105757" d="M83.11,248.1a1.47,1.47,0,0,1,.58,1.46c-.25.86-1.49.93-2.06,1-.77.09-2-.11-2.35-.79C78.81,248.88,81.45,247.18,83.11,248.1Z" fill="#efbf14"/>
          <path id="Trazado_105758" data-name="Trazado 105758" d="M98.14,249.47a1.47,1.47,0,0,1,.57,1.46c-.24.87-1.48.94-2,1-.77.09-2-.1-2.36-.79C93.83,250.26,96.48,248.55,98.14,249.47Z" fill="#ed9515"/>
          <path id="Trazado_105759" data-name="Trazado 105759" d="M52.88,245a1.45,1.45,0,0,1,1.11,1.1c.12.89-1,1.45-1.48,1.74-.67.4-1.86.71-2.47.22C49.25,247.48,51,244.86,52.88,245Z" fill="#efbf14"/>
          <path id="Trazado_105760" data-name="Trazado 105760" d="M105.74,234c-.71-2.6-1.46-5-2-6.69-1.62-5-6.61-15.1-11.61-19.1-.57,1.42-.63,3.73.75,7.33a24.159,24.159,0,0,0,1.6,3.46,9.06,9.06,0,0,0-7.2.52c-1.81.83,2.09,5.43,5.15,6.12s1.11,3.2,1.11,3.2-1.67,7.1,0,11.28c.88,2.2,5.71.56,7.66-2.37,0,0-.14,7.38.69,9.05s2.09,2.79,2.79,2.09a16,16,0,0,0,2.78-3.48C107.85,244.73,106.93,239.54,105.74,234Z" fill="#700026" opacity="0.5"/>
          <path id="Trazado_105761" data-name="Trazado 105761" d="M101.62,233.57a18.2,18.2,0,0,1-9.52,6.27c-.25-4.83-.93-12.43,4.55-14.6-1.47-1-7.44-5.88-9-7.33-6.26-6,4.42-3.58,7.45-2.08-2.4-1.69-1.56-10.47-1.41-13.45,1.66.09,3.62,4.55,4.44,6,1.72,3,3.65,6.19,5.58,9.15,2.23-1.66,4.07-5.66,7.15-6,.76,3.84-.28,9.28-3.37,11.87,3.46,0,7.39,2,10.63,3.07-.63,1.53-3.88,3.83-5.56,4.41.85,2.06,1.64,4.55,2.36,6.9.79,2.59.49,5.09.84,7.74-1.08-.63-5-5.68-6-6.67.35,2.76-4.19,6.53-6,8.06C102.76,242.55,101.62,233.57,101.62,233.57Z" fill="#377a18"/>
        </g>
        <g id="Grupo_54906" data-name="Grupo 54906">
          <path id="Trazado_105762" data-name="Trazado 105762" d="M111.86,235c-2.81,3.27-8.76,10.46-8.92,14.77-.3,8,10,12,14.68,14.15,6.29,2.88,21.15,8.56,26.13,3.75,6.45-6.23-1-22.33-3.07-29.07-2.34-7.55-8-13.53-13.33-13.78C122.84,224.57,114.79,231.53,111.86,235Z" fill="#b3204d"/>
          <path id="Trazado_105763" data-name="Trazado 105763" d="M114.66,232.09a34.369,34.369,0,0,0-2.8,2.87c-2.81,3.28-8.76,10.46-8.92,14.77-.3,8,10,12,14.68,14.15,6.29,2.88,21.15,8.56,26.13,3.75a8.81,8.81,0,0,0,2.45-5.33c-2.13,2.41-7.74,1.43-16-1.69C104.52,251,112.26,237,114.66,232.09Z" fill="#781533"/>
          <path id="Trazado_105764" data-name="Trazado 105764" d="M130,235.25c-2.26-.45-6.44,3.39-7.38,5.49-1.76,3.9,2.53,8,4.39,9.94,2.52,2.7,8.71,8.49,12.14,7.12C143.59,256,138.86,237,130,235.25Z" fill="#fff" opacity="0.3"/>
          <path id="Trazado_105765" data-name="Trazado 105765" d="M121,247.5a1.09,1.09,0,0,0-1,.56c-.28.61.39,1.25.69,1.56s1.18.9,1.72.68C123.05,250,122.36,247.78,121,247.5Z" fill="#efbf14"/>
          <path id="Trazado_105766" data-name="Trazado 105766" d="M128.07,246.43a1.11,1.11,0,0,0-1,.56c-.27.61.4,1.25.69,1.56s1.19.9,1.73.68C130.15,249,129.46,246.71,128.07,246.43Z" fill="#efbf14"/>
          <path id="Trazado_105767" data-name="Trazado 105767" d="M134.67,240a1.12,1.12,0,0,0-1.16.15c-.47.48-.06,1.31.1,1.71s.79,1.26,1.37,1.24C135.74,243.11,135.88,240.76,134.67,240Z" fill="#efbf14"/>
          <path id="Trazado_105768" data-name="Trazado 105768" d="M128.36,255.28a1.09,1.09,0,0,0-.91.74c-.15.65.63,1.15,1,1.4s1.33.66,1.82.34S129.78,255.28,128.36,255.28Z" fill="#efbf14"/>
          <path id="Trazado_105769" data-name="Trazado 105769" d="M137.82,251.39a1.12,1.12,0,0,0-1.13.32c-.4.54.12,1.31.34,1.68s1,1.13,1.54,1C139.31,254.3,139.12,252,137.82,251.39Z" fill="#efbf14"/>
          <path id="Trazado_105770" data-name="Trazado 105770" d="M125,236.2a1.08,1.08,0,0,0-1.07.47c-.32.59.3,1.28.57,1.61s1.11,1,1.67.81C126.87,238.87,126.36,236.58,125,236.2Z" fill="#efbf14"/>
          <path id="Trazado_105771" data-name="Trazado 105771" d="M134.05,261a1.11,1.11,0,0,0-.74.91c0,.67.85,1,1.24,1.18s1.44.37,1.86,0S135.44,260.76,134.05,261Z" fill="#efbf14"/>
          <path id="Trazado_105772" data-name="Trazado 105772" d="M130,228.76a1.11,1.11,0,0,0-.74.91c0,.67.85,1,1.24,1.18s1.44.37,1.86,0S131.34,228.48,130,228.76Z" fill="#efbf14"/>
          <path id="Trazado_105773" data-name="Trazado 105773" d="M126.17,262.83a1.12,1.12,0,0,0-.63,1c.07.66,1,.89,1.38,1s1.47.2,1.83-.25S127.51,262.39,126.17,262.83Z" fill="#efbf14"/>
          <path id="Trazado_105774" data-name="Trazado 105774" d="M120.15,255.2a1.1,1.1,0,0,0-.81.85c-.08.66.76,1.07,1.13,1.27s1.41.5,1.85.13S121.56,255,120.15,255.2Z" fill="#efbf14"/>
          <path id="Trazado_105775" data-name="Trazado 105775" d="M109.39,251.87a1.11,1.11,0,0,0-.82.84c-.08.67.76,1.07,1.13,1.28s1.41.5,1.86.13S110.79,251.71,109.39,251.87Z" fill="#efbf14"/>
          <path id="Trazado_105776" data-name="Trazado 105776" d="M141.9,261.7a1.08,1.08,0,0,0-1.08.45c-.34.58.27,1.28.52,1.62s1.09,1,1.65.86C143.71,264.42,143.26,262.12,141.9,261.7Z" fill="#efbf14"/>
          <path id="Trazado_105777" data-name="Trazado 105777" d="M119.85,238.06a7.767,7.767,0,0,0-.36-1c1.37-.3,6.53-1.55,8.57-3.83,2.37-2.65-7.65-2.79-7.65-2.79a10.27,10.27,0,0,0,4.58-2.07c1.72-1.47,2.68-3.68.09-3.19-4.56,1.46-10.73,6.91-13.22,9.82a77,77,0,0,0-5.91,7.68c.22,1.86.54,3.49.54,3.49a7.91,7.91,0,0,0,1.25,2.37,16.4,16.4,0,0,0,4.18-7.65s4.17,4.87,5.84,5.56C117.76,246.41,120.83,241.12,119.85,238.06Z" fill="#700026" opacity="0.5"/>
          <path id="Trazado_105778" data-name="Trazado 105778" d="M111.51,239.9a13.58,13.58,0,0,0,4.79,7c1.54-3.27,4.18-8.32,1-11.38,1.31-.28,6.82-1.94,8.28-2.51,6-2.34-2-3.73-4.55-3.56,2.14-.48,4.06-6.78,4.8-8.89-1.17-.41-3.79,2.12-4.76,2.86-2,1.57-4.29,3.24-6.46,4.73-1.07-1.78-1.2-5.07-3.22-6.2-1.62,2.43-2.45,6.48-1.05,9.16-2.38-1-5.67-.75-8.22-.92,0,1.24,1.59,3.75,2.58,4.64-1.17,1.17-2.42,2.67-3.59,4.08-1.28,1.57-1.79,3.38-2.79,5.11.93-.13,5-2.51,6.08-2.88-1,1.8,1,5.69,1.84,7.27C108.17,245.77,111.51,239.9,111.51,239.9Z" fill="#92b01a"/>
        </g>
      </g>
    </g>
  </g>
</svg>
