<svg xmlns="http://www.w3.org/2000/svg" xmlns:xlink="http://www.w3.org/1999/xlink" width="1235.98" height="490" viewBox="0 0 1235.98 490">
  <defs>
    <linearGradient id="linear-gradient" x1="1.082" y1="1.018" x2="0.336" y2="0.362" gradientUnits="objectBoundingBox">
      <stop offset="0" stop-color="#dae3fe"/>
      <stop offset="1" stop-color="#e9effd"/>
    </linearGradient>
    <linearGradient id="linear-gradient-2" x1="-3.281" y1="0.212" x2="-8.986" y2="1.858" xlink:href="#linear-gradient"/>
    <linearGradient id="linear-gradient-3" x1="0.867" y1="0.198" x2="-0.218" y2="1.114" gradientUnits="objectBoundingBox">
      <stop offset="0" stop-color="#4f52ff"/>
      <stop offset="1" stop-color="#4042e2"/>
    </linearGradient>
    <linearGradient id="linear-gradient-4" x1="0" y1="0.5" x2="1" y2="0.5" xlink:href="#linear-gradient"/>
    <linearGradient id="linear-gradient-5" x1="0" y1="0.5" x2="1" y2="0.5" xlink:href="#linear-gradient"/>
    <linearGradient id="linear-gradient-6" x1="0" y1="0.5" x2="1" y2="0.5" xlink:href="#linear-gradient"/>
    <linearGradient id="linear-gradient-7" x1="0" y1="0.5" x2="1" y2="0.5" xlink:href="#linear-gradient"/>
    <linearGradient id="linear-gradient-8" x1="0" y1="0.5" x2="1" y2="0.5" xlink:href="#linear-gradient"/>
    <linearGradient id="linear-gradient-14" x1="0" y1="0.5" x2="1" y2="0.5" xlink:href="#linear-gradient"/>
    <linearGradient id="linear-gradient-16" y1="0.5" x2="1" y2="0.5" gradientUnits="objectBoundingBox">
      <stop offset="0" stop-color="#120c2a"/>
      <stop offset="1" stop-color="#472ea6"/>
    </linearGradient>
    <linearGradient id="linear-gradient-17" x1="-1.041" y1="2.887" x2="3.053" y2="-3.456" xlink:href="#linear-gradient-3"/>
    <linearGradient id="linear-gradient-18" x1="-1.77" y1="4.017" x2="2.324" y2="-2.326" xlink:href="#linear-gradient-3"/>
    <linearGradient id="linear-gradient-19" x1="-2.471" y1="5.104" x2="1.622" y2="-1.239" xlink:href="#linear-gradient-3"/>
    <linearGradient id="linear-gradient-20" x1="3.051" y1="-4.258" x2="0.812" y2="-0.084" gradientUnits="objectBoundingBox">
      <stop offset="0" stop-color="#f9aac2"/>
      <stop offset="1" stop-color="#f25585"/>
    </linearGradient>
    <linearGradient id="linear-gradient-21" x1="-0.555" y1="2.133" x2="3.539" y2="-4.206" xlink:href="#linear-gradient-3"/>
    <linearGradient id="linear-gradient-22" x1="-1.284" y1="3.262" x2="2.81" y2="-3.077" xlink:href="#linear-gradient-3"/>
    <linearGradient id="linear-gradient-23" x1="-1.985" y1="4.349" x2="2.109" y2="-1.991" xlink:href="#linear-gradient-3"/>
    <linearGradient id="linear-gradient-24" x1="-2.716" y1="5.478" x2="1.38" y2="-0.861" xlink:href="#linear-gradient-3"/>
    <linearGradient id="linear-gradient-25" x1="-0.124" y1="1.467" x2="3.969" y2="-4.873" xlink:href="#linear-gradient-3"/>
    <linearGradient id="linear-gradient-26" x1="-0.853" y1="2.596" x2="3.24" y2="-3.743" xlink:href="#linear-gradient-3"/>
    <linearGradient id="linear-gradient-27" x1="-1.554" y1="3.682" x2="2.539" y2="-2.658" xlink:href="#linear-gradient-3"/>
    <linearGradient id="linear-gradient-28" x1="0.348" y1="0.735" x2="4.442" y2="-5.604" xlink:href="#linear-gradient-3"/>
    <linearGradient id="linear-gradient-29" x1="-0.381" y1="1.864" x2="3.713" y2="-4.475" xlink:href="#linear-gradient-3"/>
    <linearGradient id="linear-gradient-30" x1="-1.082" y1="2.95" x2="3.012" y2="-3.389" xlink:href="#linear-gradient-3"/>
    <linearGradient id="linear-gradient-31" x1="1.298" y1="-18.021" x2="0.471" y2="1.126" xlink:href="#linear-gradient-3"/>
    <linearGradient id="linear-gradient-32" x1="-10.628" y1="0.498" x2="-9.628" y2="0.498" xlink:href="#linear-gradient-16"/>
    <linearGradient id="linear-gradient-33" x1="-38.394" y1="0.497" x2="-37.396" y2="0.497" gradientUnits="objectBoundingBox">
      <stop offset="0" stop-color="#febbba"/>
      <stop offset="1" stop-color="#ff928e"/>
    </linearGradient>
    <linearGradient id="linear-gradient-34" x1="2.229" y1="-13.332" x2="0.417" y2="1.07" xlink:href="#linear-gradient-3"/>
    <linearGradient id="linear-gradient-35" x1="-26.158" y1="0.5" x2="-25.159" y2="0.5" xlink:href="#linear-gradient-16"/>
    <linearGradient id="linear-gradient-36" x1="-42.547" y1="0.501" x2="-41.55" y2="0.501" xlink:href="#linear-gradient-33"/>
    <linearGradient id="linear-gradient-37" x1="1.916" y1="-1.232" x2="0.208" y2="0.864" xlink:href="#linear-gradient-3"/>
    <linearGradient id="linear-gradient-38" x1="7.632" y1="-18.388" x2="6.948" y2="-17.296" xlink:href="#linear-gradient-20"/>
    <linearGradient id="linear-gradient-39" x1="5.14" y1="-9.658" x2="1.686" y2="-2.097" xlink:href="#linear-gradient-16"/>
    <linearGradient id="linear-gradient-40" x1="-23.543" y1="0.099" x2="-25.933" y2="1.142" xlink:href="#linear-gradient-33"/>
    <linearGradient id="linear-gradient-41" x1="14.075" y1="-32.195" x2="12.567" y2="-30.296" xlink:href="#linear-gradient-20"/>
    <linearGradient id="linear-gradient-42" x1="24.728" y1="-37.661" x2="22.707" y2="-35.43" xlink:href="#linear-gradient-20"/>
    <linearGradient id="linear-gradient-43" x1="-6.542" y1="0.501" x2="-5.542" y2="0.501" xlink:href="#linear-gradient-33"/>
    <linearGradient id="linear-gradient-44" x1="-12.301" y1="-0.005" x2="-12.315" y2="1.888" xlink:href="#linear-gradient-33"/>
    <linearGradient id="linear-gradient-45" x1="0.028" y1="-0.037" x2="1.029" y2="0.962" xlink:href="#linear-gradient-16"/>
    <linearGradient id="linear-gradient-46" x1="0.159" y1="-0.007" x2="0.789" y2="0.93" xlink:href="#linear-gradient-16"/>
    <linearGradient id="linear-gradient-47" x1="52.973" y1="90.313" x2="51.448" y2="91.651" xlink:href="#linear-gradient-33"/>
    <linearGradient id="linear-gradient-48" x1="-67.091" y1="0.422" x2="-64.124" y2="0.702" xlink:href="#linear-gradient-16"/>
    <linearGradient id="linear-gradient-49" x1="134.743" y1="257.541" x2="138.063" y2="255.185" xlink:href="#linear-gradient-33"/>
    <linearGradient id="linear-gradient-50" x1="-15.19" y1="-1.224" x2="-16.884" y2="3.819" xlink:href="#linear-gradient-33"/>
    <linearGradient id="linear-gradient-51" x1="-15.083" y1="0.5" x2="-14.083" y2="0.5" xlink:href="#linear-gradient-33"/>
    <linearGradient id="linear-gradient-52" x1="1.28" y1="-3.923" x2="0.785" y2="-1.059" xlink:href="#linear-gradient-16"/>
    <linearGradient id="linear-gradient-53" x1="1104.501" y1="0.499" x2="1105.501" y2="0.499" xlink:href="#linear-gradient-33"/>
    <linearGradient id="linear-gradient-54" x1="333.935" y1="0.803" x2="338.823" y2="-0.515" xlink:href="#linear-gradient-16"/>
    <linearGradient id="linear-gradient-55" x1="692.678" y1="-2.221" x2="685.659" y2="5.381" xlink:href="#linear-gradient-16"/>
    <linearGradient id="linear-gradient-56" x1="1281.881" y1="0.501" x2="1282.883" y2="0.501" xlink:href="#linear-gradient-33"/>
    <linearGradient id="linear-gradient-57" x1="235.538" y1="0.721" x2="238.983" y2="-0.572" xlink:href="#linear-gradient-16"/>
    <linearGradient id="linear-gradient-58" x1="1.398" y1="-0.922" x2="0.379" y2="0.372" xlink:href="#linear-gradient-20"/>
    <linearGradient id="linear-gradient-59" x1="216.428" y1="0.5" x2="217.428" y2="0.5" xlink:href="#linear-gradient-33"/>
    <linearGradient id="linear-gradient-60" x1="588.467" y1="1.603" x2="590.463" y2="4.268" xlink:href="#linear-gradient-33"/>
    <linearGradient id="linear-gradient-61" x1="1560.838" y1="0.706" x2="1562.858" y2="-1.072" xlink:href="#linear-gradient-33"/>
    <linearGradient id="linear-gradient-62" x1="3.387" y1="-3.075" x2="0.83" y2="0.231" xlink:href="#linear-gradient-20"/>
    <linearGradient id="linear-gradient-63" x1="171.092" y1="0.5" x2="172.092" y2="0.5" xlink:href="#linear-gradient-33"/>
    <linearGradient id="linear-gradient-64" x1="0" y1="0.499" x2="0.999" y2="0.499" xlink:href="#linear-gradient-3"/>
    <linearGradient id="linear-gradient-65" x1="-0.036" y1="-12.815" x2="0.336" y2="-3.579" xlink:href="#linear-gradient-16"/>
    <linearGradient id="linear-gradient-66" x1="0.203" y1="-9.108" x2="0.398" y2="-2.796" xlink:href="#linear-gradient-16"/>
    <linearGradient id="linear-gradient-67" x1="548.739" y1="0.5" x2="549.739" y2="0.5" xlink:href="#linear-gradient-33"/>
    <linearGradient id="linear-gradient-68" x1="433.337" y1="0.5" x2="434.338" y2="0.5" xlink:href="#linear-gradient-33"/>
    <linearGradient id="linear-gradient-69" x1="240.748" y1="137.256" x2="240.426" y2="136.19" xlink:href="#linear-gradient-33"/>
    <linearGradient id="linear-gradient-70" x1="183.331" y1="103.599" x2="183.536" y2="104.775" xlink:href="#linear-gradient-16"/>
    <linearGradient id="linear-gradient-71" x1="783.235" y1="661.801" x2="782.293" y2="657.159" xlink:href="#linear-gradient-33"/>
    <linearGradient id="linear-gradient-72" x1="92.952" y1="-1.716" x2="44.812" y2="-0.562" xlink:href="#linear-gradient-16"/>
    <linearGradient id="linear-gradient-73" x1="88.532" y1="-1.595" x2="40.393" y2="-0.449" xlink:href="#linear-gradient-16"/>
    <linearGradient id="linear-gradient-74" x1="4.025" y1="-1.325" x2="1.827" y2="-0.189" xlink:href="#linear-gradient-16"/>
    <linearGradient id="linear-gradient-75" x1="4.382" y1="-1.508" x2="2.177" y2="-0.368" xlink:href="#linear-gradient-16"/>
    <linearGradient id="linear-gradient-76" x1="2.938" y1="-61.715" x2="1.371" y2="-21.726" xlink:href="#linear-gradient-16"/>
    <linearGradient id="linear-gradient-77" x1="5.388" y1="-90.421" x2="2.343" y2="-33.779" xlink:href="#linear-gradient-16"/>
    <linearGradient id="linear-gradient-78" x1="5.567" y1="-93.75" x2="2.522" y2="-37.108" xlink:href="#linear-gradient-16"/>
    <linearGradient id="linear-gradient-79" x1="5.464" y1="-98.91" x2="2.579" y2="-41.135" xlink:href="#linear-gradient-16"/>
    <linearGradient id="linear-gradient-80" x1="5.633" y1="-102.27" x2="2.747" y2="-44.495" xlink:href="#linear-gradient-16"/>
    <linearGradient id="linear-gradient-81" x1="0.948" y1="-1.674" x2="-0.009" y2="3.289" xlink:href="#linear-gradient-20"/>
    <linearGradient id="linear-gradient-82" x1="3.853" y1="-5.189" x2="-0.738" y2="2.245" xlink:href="#linear-gradient-20"/>
    <linearGradient id="linear-gradient-83" x1="-21.845" y1="-16.464" x2="-21.174" y2="-17.243" xlink:href="#linear-gradient-20"/>
    <linearGradient id="linear-gradient-84" x1="-21.519" y1="-18.433" x2="-23.57" y2="-15.334" xlink:href="#linear-gradient-20"/>
    <linearGradient id="linear-gradient-85" x1="-300.205" y1="9.082" x2="-302.912" y2="11.811" xlink:href="#linear-gradient-20"/>
    <linearGradient id="linear-gradient-86" x1="-13.509" y1="-9.597" x2="-12.838" y2="-10.375" xlink:href="#linear-gradient-20"/>
    <linearGradient id="linear-gradient-87" x1="-12.905" y1="-11.337" x2="-14.956" y2="-8.238" xlink:href="#linear-gradient-20"/>
    <linearGradient id="linear-gradient-88" x1="-184.608" y1="5.389" x2="-187.32" y2="8.107" xlink:href="#linear-gradient-20"/>
    <linearGradient id="linear-gradient-89" x1="-13.085" y1="-9.323" x2="-12.415" y2="-10.101" xlink:href="#linear-gradient-20"/>
    <linearGradient id="linear-gradient-90" x1="-12.471" y1="-11.056" x2="-14.523" y2="-7.957" xlink:href="#linear-gradient-20"/>
    <linearGradient id="linear-gradient-91" x1="-179.478" y1="4.839" x2="-182.202" y2="7.561" xlink:href="#linear-gradient-20"/>
    <linearGradient id="linear-gradient-92" x1="-16.385" y1="-12.009" x2="-15.714" y2="-12.788" xlink:href="#linear-gradient-20"/>
    <linearGradient id="linear-gradient-93" x1="-15.884" y1="-13.835" x2="-17.935" y2="-10.735" xlink:href="#linear-gradient-20"/>
    <linearGradient id="linear-gradient-94" x1="-225.824" y1="5.968" x2="-228.546" y2="8.698" xlink:href="#linear-gradient-20"/>
  </defs>
  <g id="Grupo_56937" data-name="Grupo 56937" transform="translate(-181.51 -7476)">
    <g id="Grupo_56936" data-name="Grupo 56936">
      <g id="Grupo_56935" data-name="Grupo 56935">
        <rect id="Rectángulo_6264" data-name="Rectángulo 6264" width="490" height="490" transform="translate(927.49 7476)" fill="#e9e4fd"/>
        <path id="Trazado_114990" data-name="Trazado 114990" d="M-59.418,767.817V1257.8H-3.666l-.011-.309c-.855-22.178.932-80.538,35.91-143.291,35.209-63.169,92.106-109.6,169.109-137.995a270.016,270.016,0,0,0,90.618-55.469,294.743,294.743,0,0,0,54.3-68.405c25.68-44.218,33.2-81.4,33.5-82.959l.305-1.552Z" transform="translate(986.928 6708.183)" fill="#cec8e8"/>
        <path id="Trazado_114991" data-name="Trazado 114991" d="M371.869,767.817S342.8,915.47,198.553,968.667C19.508,1034.7-14.552,1183.912-11.7,1257.8H-805.418V767.817Z" transform="translate(986.928 6708.183)" fill="#fff"/>
      </g>
    </g>
    <path id="Trazado_35312" data-name="Trazado 35312" d="M0,0H127" transform="translate(368.5 7813.5)" fill="none" stroke="#707070" stroke-width="1"/>
    <path id="Trazado_35307" data-name="Trazado 35307" d="M0,0H383" transform="translate(368.5 7573.5)" fill="none" stroke="#707070" stroke-width="1"/>
    <path id="Trazado_35316" data-name="Trazado 35316" d="M0,0H204" transform="translate(368.5 7696.5)" fill="none" stroke="#707070" stroke-width="1"/>
    <path id="Trazado_118392" data-name="Trazado 118392" d="M10.9,14.939a4.708,4.708,0,0,1-1.5,3.133,4.911,4.911,0,0,1-3.353,1.1A4.509,4.509,0,0,1,2.413,17.55,6.542,6.542,0,0,1,1.046,13.2v-1.23a7.291,7.291,0,0,1,.637-3.138A4.76,4.76,0,0,1,3.489,6.752,5.029,5.029,0,0,1,6.2,6.027a4.624,4.624,0,0,1,3.27,1.138A4.765,4.765,0,0,1,10.9,10.316H9.2a3.677,3.677,0,0,0-.954-2.222A2.885,2.885,0,0,0,6.2,7.407,3.019,3.019,0,0,0,3.661,8.6a5.492,5.492,0,0,0-.918,3.4v1.24a5.645,5.645,0,0,0,.87,3.316A2.812,2.812,0,0,0,6.047,17.8,3.247,3.247,0,0,0,8.2,17.159a3.536,3.536,0,0,0,1-2.219ZM18.817,19a3.416,3.416,0,0,1-.229-1,3.628,3.628,0,0,1-2.707,1.178,3.357,3.357,0,0,1-2.307-.8,2.573,2.573,0,0,1-.9-2.017A2.688,2.688,0,0,1,13.8,14.056a5.325,5.325,0,0,1,3.177-.822h1.582v-.747a1.826,1.826,0,0,0-.51-1.358,2.049,2.049,0,0,0-1.5-.505,2.371,2.371,0,0,0-1.459.439,1.3,1.3,0,0,0-.589,1.063H12.867a2.244,2.244,0,0,1,.505-1.375A3.449,3.449,0,0,1,14.744,9.7a4.613,4.613,0,0,1,1.9-.387,3.759,3.759,0,0,1,2.575.822,2.964,2.964,0,0,1,.967,2.263v4.377a5.351,5.351,0,0,0,.334,2.083V19Zm-2.7-1.239a2.858,2.858,0,0,0,1.45-.4,2.392,2.392,0,0,0,.993-1.028V14.386H17.288q-2.988,0-2.988,1.749a1.48,1.48,0,0,0,.51,1.2A1.959,1.959,0,0,0,16.119,17.761ZM24.275,9.49l.053,1.2a3.465,3.465,0,0,1,2.848-1.371q3.015,0,3.041,3.4V19H28.591V12.707a2.189,2.189,0,0,0-.47-1.521,1.884,1.884,0,0,0-1.437-.492,2.347,2.347,0,0,0-1.389.422,2.865,2.865,0,0,0-.932,1.107V19H22.737V9.49Zm10.6-2.3v2.3H36.65v1.257H34.875v5.9a1.32,1.32,0,0,0,.237.858,1,1,0,0,0,.809.286,3.937,3.937,0,0,0,.773-.105V19a4.742,4.742,0,0,1-1.248.175,2.025,2.025,0,0,1-1.644-.659,2.832,2.832,0,0,1-.554-1.872v-5.9H31.518V9.49h1.731v-2.3ZM40.315,19H38.689V9.49h1.626ZM38.558,6.968A.971.971,0,0,1,38.8,6.3a.907.907,0,0,1,.716-.272.922.922,0,0,1,.721.272.96.96,0,0,1,.246.668.929.929,0,0,1-.246.659.938.938,0,0,1-.721.264.924.924,0,0,1-.716-.264A.938.938,0,0,1,38.558,6.968Zm3.964,7.2a5.571,5.571,0,0,1,1.037-3.52,3.529,3.529,0,0,1,5.361-.189V5.5h1.626V19H49.052l-.079-1.02a3.311,3.311,0,0,1-2.716,1.2,3.248,3.248,0,0,1-2.694-1.354,5.634,5.634,0,0,1-1.042-3.533Zm1.626.185a4.218,4.218,0,0,0,.668,2.531,2.159,2.159,0,0,0,1.846.914,2.372,2.372,0,0,0,2.259-1.389V12.039a2.39,2.39,0,0,0-2.241-1.345,2.17,2.17,0,0,0-1.863.923A4.644,4.644,0,0,0,44.147,14.351ZM58.939,19a3.416,3.416,0,0,1-.229-1A3.628,3.628,0,0,1,56,19.176a3.357,3.357,0,0,1-2.307-.8,2.573,2.573,0,0,1-.9-2.017,2.688,2.688,0,0,1,1.129-2.307,5.325,5.325,0,0,1,3.177-.822h1.582v-.747a1.826,1.826,0,0,0-.51-1.358,2.049,2.049,0,0,0-1.5-.505,2.371,2.371,0,0,0-1.459.439,1.3,1.3,0,0,0-.589,1.063H52.989a2.244,2.244,0,0,1,.505-1.375A3.449,3.449,0,0,1,54.866,9.7a4.613,4.613,0,0,1,1.9-.387,3.759,3.759,0,0,1,2.575.822,2.964,2.964,0,0,1,.967,2.263v4.377a5.351,5.351,0,0,0,.334,2.083V19Zm-2.7-1.239a2.858,2.858,0,0,0,1.45-.4,2.392,2.392,0,0,0,.993-1.028V14.386H57.41q-2.988,0-2.988,1.749a1.48,1.48,0,0,0,.51,1.2A1.959,1.959,0,0,0,56.241,17.761Zm6.223-3.595a5.571,5.571,0,0,1,1.037-3.52,3.529,3.529,0,0,1,5.361-.189V5.5h1.626V19H68.994l-.079-1.02a3.311,3.311,0,0,1-2.716,1.2,3.248,3.248,0,0,1-2.694-1.354,5.634,5.634,0,0,1-1.042-3.533Zm1.626.185a4.218,4.218,0,0,0,.668,2.531A2.159,2.159,0,0,0,66.6,17.8a2.372,2.372,0,0,0,2.259-1.389V12.039a2.39,2.39,0,0,0-2.241-1.345,2.17,2.17,0,0,0-1.863.923A4.644,4.644,0,0,0,64.09,14.351Zm12.946-.193a5.617,5.617,0,0,1,.549-2.514,4.1,4.1,0,0,1,1.529-1.723,4.163,4.163,0,0,1,2.237-.606,4.01,4.01,0,0,1,3.142,1.345,5.174,5.174,0,0,1,1.2,3.577v.114a5.666,5.666,0,0,1-.532,2.492,4.038,4.038,0,0,1-1.521,1.718,4.211,4.211,0,0,1-2.272.615,4,4,0,0,1-3.133-1.345,5.147,5.147,0,0,1-1.2-3.56Zm1.635.193a4.068,4.068,0,0,0,.734,2.54,2.487,2.487,0,0,0,3.933-.013,4.449,4.449,0,0,0,.729-2.72,4.061,4.061,0,0,0-.743-2.536,2.361,2.361,0,0,0-1.973-.971,2.335,2.335,0,0,0-1.942.958A4.416,4.416,0,0,0,78.671,14.351ZM88.532,19V10.747h-1.5V9.49h1.5V8.515A3.238,3.238,0,0,1,89.35,6.15a3.088,3.088,0,0,1,2.312-.835,4.293,4.293,0,0,1,1.116.148l-.088,1.311a4.67,4.67,0,0,0-.879-.079,1.586,1.586,0,0,0-1.222.463,1.877,1.877,0,0,0-.431,1.327V9.49h2.03v1.257h-2.03V19Zm9.4.176a4.155,4.155,0,0,1-3.146-1.27,4.714,4.714,0,0,1-1.213-3.4v-.3a5.707,5.707,0,0,1,.541-2.527,4.217,4.217,0,0,1,1.512-1.74,3.8,3.8,0,0,1,2.1-.628,3.562,3.562,0,0,1,2.883,1.222,5.289,5.289,0,0,1,1.028,3.5v.677H95.194a3.38,3.38,0,0,0,.822,2.272,2.583,2.583,0,0,0,2,.866,2.832,2.832,0,0,0,1.459-.352,3.666,3.666,0,0,0,1.046-.932l.993.773A3.993,3.993,0,0,1,97.928,19.176Zm-.2-8.525a2.169,2.169,0,0,0-1.652.716,3.482,3.482,0,0,0-.826,2.008h4.764v-.123a3.1,3.1,0,0,0-.668-1.92A2.042,2.042,0,0,0,97.726,10.65Zm10.389.3a4.873,4.873,0,0,0-.8-.062,2.143,2.143,0,0,0-2.171,1.362V19h-1.626V9.49H105.1l.026,1.1a2.532,2.532,0,0,1,2.268-1.274,1.661,1.661,0,0,1,.721.123Zm4.14-3.762v2.3h1.775v1.257h-1.775v5.9a1.32,1.32,0,0,0,.237.858,1,1,0,0,0,.809.286,3.937,3.937,0,0,0,.773-.105V19a4.742,4.742,0,0,1-1.248.175,2.025,2.025,0,0,1-1.644-.659,2.832,2.832,0,0,1-.554-1.872v-5.9H108.9V9.49h1.731v-2.3ZM121.8,19a3.416,3.416,0,0,1-.229-1,3.628,3.628,0,0,1-2.707,1.178,3.357,3.357,0,0,1-2.307-.8,2.573,2.573,0,0,1-.9-2.017,2.688,2.688,0,0,1,1.129-2.307,5.325,5.325,0,0,1,3.177-.822h1.582v-.747a1.826,1.826,0,0,0-.51-1.358,2.049,2.049,0,0,0-1.5-.505,2.371,2.371,0,0,0-1.459.439,1.3,1.3,0,0,0-.589,1.063h-1.635a2.244,2.244,0,0,1,.505-1.375,3.449,3.449,0,0,1,1.371-1.05,4.613,4.613,0,0,1,1.9-.387,3.759,3.759,0,0,1,2.575.822,2.964,2.964,0,0,1,.967,2.263v4.377a5.351,5.351,0,0,0,.334,2.083V19Zm-2.7-1.239a2.858,2.858,0,0,0,1.45-.4,2.392,2.392,0,0,0,.993-1.028V14.386H120.27q-2.988,0-2.988,1.749a1.48,1.48,0,0,0,.51,1.2A1.959,1.959,0,0,0,119.1,17.761Zm6.223-3.595a5.571,5.571,0,0,1,1.037-3.52,3.529,3.529,0,0,1,5.361-.189V5.5h1.626V19h-1.494l-.079-1.02a3.311,3.311,0,0,1-2.716,1.2,3.248,3.248,0,0,1-2.694-1.354,5.634,5.634,0,0,1-1.042-3.533Zm1.626.185a4.218,4.218,0,0,0,.668,2.531,2.159,2.159,0,0,0,1.846.914,2.372,2.372,0,0,0,2.259-1.389V12.039a2.39,2.39,0,0,0-2.241-1.345,2.17,2.17,0,0,0-1.863.923A4.644,4.644,0,0,0,126.949,14.351ZM141.741,19a3.416,3.416,0,0,1-.229-1,3.628,3.628,0,0,1-2.707,1.178,3.357,3.357,0,0,1-2.307-.8,2.573,2.573,0,0,1-.9-2.017,2.688,2.688,0,0,1,1.129-2.307,5.325,5.325,0,0,1,3.177-.822h1.582v-.747a1.826,1.826,0,0,0-.51-1.358,2.049,2.049,0,0,0-1.5-.505,2.371,2.371,0,0,0-1.459.439,1.3,1.3,0,0,0-.589,1.063h-1.635a2.244,2.244,0,0,1,.505-1.375,3.449,3.449,0,0,1,1.371-1.05,4.613,4.613,0,0,1,1.9-.387,3.759,3.759,0,0,1,2.575.822,2.964,2.964,0,0,1,.967,2.263v4.377a5.351,5.351,0,0,0,.334,2.083V19Zm-2.7-1.239a2.858,2.858,0,0,0,1.45-.4,2.392,2.392,0,0,0,.993-1.028V14.386h-1.274q-2.988,0-2.988,1.749a1.48,1.48,0,0,0,.51,1.2A1.959,1.959,0,0,0,139.043,17.761ZM158.335,19H149.95V17.831l4.43-4.922a10.524,10.524,0,0,0,1.358-1.815,3.029,3.029,0,0,0,.374-1.446A2.3,2.3,0,0,0,155.5,8a2.12,2.12,0,0,0-1.617-.642,2.511,2.511,0,0,0-1.885.69,2.635,2.635,0,0,0-.672,1.92H149.7a3.774,3.774,0,0,1,1.138-2.856,4.219,4.219,0,0,1,3.045-1.09,4.054,4.054,0,0,1,2.821.936,3.193,3.193,0,0,1,1.037,2.492q0,1.89-2.408,4.5l-3.428,3.718h6.425Zm9.729-4.772h-4.289V12.9h4.289Zm9.853,3.621a2.342,2.342,0,0,0,1.521-.527A1.855,1.855,0,0,0,180.158,16H181.7a2.949,2.949,0,0,1-.562,1.556,3.7,3.7,0,0,1-1.384,1.178,3.994,3.994,0,0,1-1.833.439,3.918,3.918,0,0,1-3.089-1.3,5.163,5.163,0,0,1-1.147-3.546v-.272a5.725,5.725,0,0,1,.51-2.47,3.883,3.883,0,0,1,1.463-1.679,4.157,4.157,0,0,1,2.254-.6,3.814,3.814,0,0,1,2.659.958A3.424,3.424,0,0,1,181.7,12.76h-1.538a2.241,2.241,0,0,0-.7-1.516,2.174,2.174,0,0,0-1.551-.593,2.276,2.276,0,0,0-1.92.892,4.19,4.19,0,0,0-.681,2.58v.308a4.106,4.106,0,0,0,.677,2.531A2.287,2.287,0,0,0,177.917,17.849ZM189.4,19a3.416,3.416,0,0,1-.229-1,3.628,3.628,0,0,1-2.707,1.178,3.357,3.357,0,0,1-2.307-.8,2.573,2.573,0,0,1-.9-2.017,2.688,2.688,0,0,1,1.129-2.307,5.325,5.325,0,0,1,3.177-.822h1.582v-.747a1.826,1.826,0,0,0-.51-1.358,2.049,2.049,0,0,0-1.5-.505,2.371,2.371,0,0,0-1.459.439,1.3,1.3,0,0,0-.589,1.063h-1.635a2.244,2.244,0,0,1,.505-1.375,3.449,3.449,0,0,1,1.371-1.05,4.613,4.613,0,0,1,1.9-.387,3.759,3.759,0,0,1,2.575.822,2.964,2.964,0,0,1,.967,2.263v4.377a5.351,5.351,0,0,0,.334,2.083V19Zm-2.7-1.239a2.858,2.858,0,0,0,1.45-.4,2.392,2.392,0,0,0,.993-1.028V14.386h-1.274q-2.988,0-2.988,1.749a1.48,1.48,0,0,0,.51,1.2A1.959,1.959,0,0,0,186.7,17.761Zm8.156-8.271.053,1.2a3.465,3.465,0,0,1,2.848-1.371q3.015,0,3.041,3.4V19h-1.626V12.707a2.189,2.189,0,0,0-.47-1.521,1.884,1.884,0,0,0-1.437-.492,2.347,2.347,0,0,0-1.389.422,2.865,2.865,0,0,0-.932,1.107V19h-1.626V9.49Zm10.6-2.3v2.3h1.775v1.257h-1.775v5.9a1.32,1.32,0,0,0,.237.858,1,1,0,0,0,.809.286,3.937,3.937,0,0,0,.773-.105V19a4.742,4.742,0,0,1-1.248.175,2.025,2.025,0,0,1-1.644-.659,2.832,2.832,0,0,1-.554-1.872v-5.9H202.1V9.49h1.731v-2.3ZM210.894,19h-1.626V9.49h1.626ZM209.136,6.968a.971.971,0,0,1,.242-.668.907.907,0,0,1,.716-.272.922.922,0,0,1,.721.272.96.96,0,0,1,.246.668.929.929,0,0,1-.246.659.938.938,0,0,1-.721.264.924.924,0,0,1-.716-.264A.938.938,0,0,1,209.136,6.968Zm3.964,7.2a5.571,5.571,0,0,1,1.037-3.52,3.529,3.529,0,0,1,5.361-.189V5.5h1.626V19H219.63l-.079-1.02a3.311,3.311,0,0,1-2.716,1.2,3.248,3.248,0,0,1-2.694-1.354,5.634,5.634,0,0,1-1.042-3.533Zm1.626.185a4.218,4.218,0,0,0,.668,2.531,2.159,2.159,0,0,0,1.846.914,2.372,2.372,0,0,0,2.259-1.389V12.039a2.39,2.39,0,0,0-2.241-1.345,2.17,2.17,0,0,0-1.863.923A4.644,4.644,0,0,0,214.726,14.351ZM229.518,19a3.416,3.416,0,0,1-.229-1,3.628,3.628,0,0,1-2.707,1.178,3.357,3.357,0,0,1-2.307-.8,2.573,2.573,0,0,1-.9-2.017,2.688,2.688,0,0,1,1.129-2.307,5.325,5.325,0,0,1,3.177-.822h1.582v-.747a1.826,1.826,0,0,0-.51-1.358,2.049,2.049,0,0,0-1.5-.505,2.371,2.371,0,0,0-1.459.439,1.3,1.3,0,0,0-.589,1.063h-1.635a2.244,2.244,0,0,1,.505-1.375,3.449,3.449,0,0,1,1.371-1.05,4.613,4.613,0,0,1,1.9-.387,3.759,3.759,0,0,1,2.575.822,2.964,2.964,0,0,1,.967,2.263v4.377a5.351,5.351,0,0,0,.334,2.083V19Zm-2.7-1.239a2.858,2.858,0,0,0,1.45-.4,2.392,2.392,0,0,0,.993-1.028V14.386h-1.274q-2.988,0-2.988,1.749a1.48,1.48,0,0,0,.51,1.2A1.959,1.959,0,0,0,226.819,17.761Zm6.223-3.595a5.571,5.571,0,0,1,1.037-3.52,3.529,3.529,0,0,1,5.361-.189V5.5h1.626V19h-1.494l-.079-1.02a3.311,3.311,0,0,1-2.716,1.2,3.248,3.248,0,0,1-2.694-1.354,5.634,5.634,0,0,1-1.042-3.533Zm1.626.185a4.218,4.218,0,0,0,.668,2.531,2.159,2.159,0,0,0,1.846.914,2.372,2.372,0,0,0,2.259-1.389V12.039a2.39,2.39,0,0,0-2.241-1.345,2.17,2.17,0,0,0-1.863.923A4.644,4.644,0,0,0,234.668,14.351Zm12.946-.193a5.617,5.617,0,0,1,.549-2.514,4.1,4.1,0,0,1,1.529-1.723,4.163,4.163,0,0,1,2.237-.606,4.01,4.01,0,0,1,3.142,1.345,5.174,5.174,0,0,1,1.2,3.577v.114a5.666,5.666,0,0,1-.532,2.492,4.038,4.038,0,0,1-1.521,1.718,4.211,4.211,0,0,1-2.272.615,4,4,0,0,1-3.133-1.345,5.147,5.147,0,0,1-1.2-3.56Zm1.635.193a4.068,4.068,0,0,0,.734,2.54,2.487,2.487,0,0,0,3.933-.013,4.449,4.449,0,0,0,.729-2.72,4.061,4.061,0,0,0-.743-2.536,2.361,2.361,0,0,0-1.973-.971,2.335,2.335,0,0,0-1.942.958A4.416,4.416,0,0,0,249.249,14.351ZM259.11,19V10.747h-1.5V9.49h1.5V8.515a3.238,3.238,0,0,1,.817-2.364,3.088,3.088,0,0,1,2.312-.835,4.293,4.293,0,0,1,1.116.148l-.088,1.311a4.67,4.67,0,0,0-.879-.079,1.586,1.586,0,0,0-1.222.463,1.877,1.877,0,0,0-.431,1.327V9.49h2.03v1.257h-2.03V19Zm9.4.176a4.155,4.155,0,0,1-3.146-1.27,4.714,4.714,0,0,1-1.213-3.4v-.3a5.707,5.707,0,0,1,.541-2.527,4.217,4.217,0,0,1,1.512-1.74,3.8,3.8,0,0,1,2.1-.628,3.562,3.562,0,0,1,2.883,1.222,5.289,5.289,0,0,1,1.028,3.5v.677h-6.442a3.38,3.38,0,0,0,.822,2.272,2.583,2.583,0,0,0,2,.866,2.832,2.832,0,0,0,1.459-.352,3.666,3.666,0,0,0,1.046-.932l.993.773A3.993,3.993,0,0,1,268.506,19.176Zm-.2-8.525a2.169,2.169,0,0,0-1.652.716,3.482,3.482,0,0,0-.826,2.008h4.764v-.123a3.1,3.1,0,0,0-.668-1.92A2.042,2.042,0,0,0,268.3,10.65Zm10.389.3a4.873,4.873,0,0,0-.8-.062,2.143,2.143,0,0,0-2.171,1.362V19H274.1V9.49h1.582l.026,1.1a2.532,2.532,0,0,1,2.268-1.274,1.661,1.661,0,0,1,.721.123Zm4.14-3.762v2.3h1.775v1.257h-1.775v5.9a1.32,1.32,0,0,0,.237.858,1,1,0,0,0,.809.286,3.937,3.937,0,0,0,.773-.105V19a4.742,4.742,0,0,1-1.248.175,2.025,2.025,0,0,1-1.644-.659,2.832,2.832,0,0,1-.554-1.872v-5.9h-1.731V9.49h1.731v-2.3ZM292.377,19a3.416,3.416,0,0,1-.229-1,3.628,3.628,0,0,1-2.707,1.178,3.357,3.357,0,0,1-2.307-.8,2.573,2.573,0,0,1-.9-2.017,2.688,2.688,0,0,1,1.129-2.307,5.325,5.325,0,0,1,3.177-.822h1.582v-.747a1.826,1.826,0,0,0-.51-1.358,2.049,2.049,0,0,0-1.5-.505,2.371,2.371,0,0,0-1.459.439,1.3,1.3,0,0,0-.589,1.063h-1.635a2.244,2.244,0,0,1,.505-1.375A3.449,3.449,0,0,1,288.3,9.7a4.613,4.613,0,0,1,1.9-.387,3.759,3.759,0,0,1,2.575.822,2.964,2.964,0,0,1,.967,2.263v4.377a5.351,5.351,0,0,0,.334,2.083V19Zm-2.7-1.239a2.858,2.858,0,0,0,1.45-.4,2.392,2.392,0,0,0,.993-1.028V14.386h-1.274q-2.988,0-2.988,1.749a1.48,1.48,0,0,0,.51,1.2A1.959,1.959,0,0,0,289.679,17.761Zm6.223-3.595a5.571,5.571,0,0,1,1.037-3.52,3.529,3.529,0,0,1,5.361-.189V5.5h1.626V19h-1.494l-.079-1.02a3.311,3.311,0,0,1-2.716,1.2,3.248,3.248,0,0,1-2.694-1.354,5.634,5.634,0,0,1-1.042-3.533Zm1.626.185a4.218,4.218,0,0,0,.668,2.531,2.159,2.159,0,0,0,1.846.914,2.372,2.372,0,0,0,2.259-1.389V12.039a2.39,2.39,0,0,0-2.241-1.345,2.17,2.17,0,0,0-1.863.923A4.644,4.644,0,0,0,297.527,14.351ZM312.319,19a3.416,3.416,0,0,1-.229-1,3.628,3.628,0,0,1-2.707,1.178,3.357,3.357,0,0,1-2.307-.8,2.573,2.573,0,0,1-.9-2.017,2.688,2.688,0,0,1,1.129-2.307,5.325,5.325,0,0,1,3.177-.822h1.582v-.747a1.826,1.826,0,0,0-.51-1.358,2.049,2.049,0,0,0-1.5-.505,2.371,2.371,0,0,0-1.459.439A1.3,1.3,0,0,0,308,12.127h-1.635a2.244,2.244,0,0,1,.505-1.375,3.449,3.449,0,0,1,1.371-1.05,4.613,4.613,0,0,1,1.9-.387,3.759,3.759,0,0,1,2.575.822,2.964,2.964,0,0,1,.967,2.263v4.377a5.351,5.351,0,0,0,.334,2.083V19Zm-2.7-1.239a2.858,2.858,0,0,0,1.45-.4,2.392,2.392,0,0,0,.993-1.028V14.386H310.79q-2.988,0-2.988,1.749a1.48,1.48,0,0,0,.51,1.2A1.959,1.959,0,0,0,309.621,17.761ZM321.416,19h-1.635V8.163l-3.278,1.2V7.891l4.658-1.749h.255Z" transform="translate(392 7547)" fill="#12263f"/>
    <path id="Trazado_118396" data-name="Trazado 118396" d="M6.407,19H4.772V8.163l-3.278,1.2V7.891L6.152,6.142h.255Zm13.148,0H11.171V17.831l4.43-4.922a10.524,10.524,0,0,0,1.358-1.815,3.029,3.029,0,0,0,.374-1.446A2.3,2.3,0,0,0,16.726,8a2.12,2.12,0,0,0-1.617-.642,2.511,2.511,0,0,0-1.885.69,2.635,2.635,0,0,0-.672,1.92H10.925a3.774,3.774,0,0,1,1.138-2.856,4.219,4.219,0,0,1,3.045-1.09,4.054,4.054,0,0,1,2.821.936,3.193,3.193,0,0,1,1.037,2.492q0,1.89-2.408,4.5l-3.428,3.718h6.425Zm1.925-.853a1.018,1.018,0,0,1,.25-.7.954.954,0,0,1,.751-.281.983.983,0,0,1,.76.281,1,1,0,0,1,.259.7.944.944,0,0,1-.259.677,1,1,0,0,1-.76.272.9.9,0,0,1-1-.949Zm5.282-5.563.65-6.381H33.97v1.5H28.793L28.406,11.2a4.13,4.13,0,0,1,2.136-.554A3.531,3.531,0,0,1,33.319,11.8a4.53,4.53,0,0,1,1.028,3.125,4.372,4.372,0,0,1-1.068,3.116A3.892,3.892,0,0,1,30.3,19.176a4.045,4.045,0,0,1-2.769-.94,3.754,3.754,0,0,1-1.222-2.6h1.538a2.582,2.582,0,0,0,.782,1.657,2.432,2.432,0,0,0,1.67.558,2.194,2.194,0,0,0,1.78-.773,3.233,3.233,0,0,0,.646-2.136,2.968,2.968,0,0,0-.7-2.061,2.377,2.377,0,0,0-1.859-.778,2.681,2.681,0,0,0-1.67.466l-.431.352Zm17.385.958a7.436,7.436,0,0,1-.976,4.245,3.47,3.47,0,0,1-3.05,1.389,3.5,3.5,0,0,1-3.032-1.358,7.058,7.058,0,0,1-1.02-4.056V11.591A7.271,7.271,0,0,1,37.046,7.4,3.5,3.5,0,0,1,40.1,6.027,3.528,3.528,0,0,1,43.146,7.35a7.017,7.017,0,0,1,1,4.083Zm-1.626-2.224a5.958,5.958,0,0,0-.58-3.01A2,2,0,0,0,40.1,7.363a1.97,1.97,0,0,0-1.819.94A5.817,5.817,0,0,0,37.7,11.2v2.6a6.053,6.053,0,0,0,.6,3.063,1.993,1.993,0,0,0,1.824.989,1.966,1.966,0,0,0,1.789-.932,5.834,5.834,0,0,0,.611-2.936Zm11.733,2.224a7.436,7.436,0,0,1-.976,4.245,3.47,3.47,0,0,1-3.05,1.389A3.5,3.5,0,0,1,47.2,17.818a7.058,7.058,0,0,1-1.02-4.056V11.591A7.271,7.271,0,0,1,47.153,7.4a3.5,3.5,0,0,1,3.059-1.371A3.528,3.528,0,0,1,53.253,7.35a7.017,7.017,0,0,1,1,4.083Zm-1.626-2.224a5.958,5.958,0,0,0-.58-3.01,2,2,0,0,0-1.837-.945,1.97,1.97,0,0,0-1.819.94A5.817,5.817,0,0,0,47.8,11.2v2.6a6.053,6.053,0,0,0,.6,3.063,1.993,1.993,0,0,0,1.824.989,1.966,1.966,0,0,0,1.789-.932,5.834,5.834,0,0,0,.611-2.936Zm7.26,2.909H55.6V12.9h4.289ZM71.1,19H69.469V8.163l-3.278,1.2V7.891l4.658-1.749H71.1Zm12.788-5.458a7.436,7.436,0,0,1-.976,4.245,4.054,4.054,0,0,1-6.082.031,7.058,7.058,0,0,1-1.02-4.056V11.591A7.271,7.271,0,0,1,76.79,7.4a4.127,4.127,0,0,1,6.1-.048,7.017,7.017,0,0,1,1,4.083Zm-1.626-2.224a5.958,5.958,0,0,0-.58-3.01,2,2,0,0,0-1.837-.945,1.97,1.97,0,0,0-1.819.94A5.817,5.817,0,0,0,77.44,11.2v2.6a6.053,6.053,0,0,0,.6,3.063,1.993,1.993,0,0,0,1.824.989,1.966,1.966,0,0,0,1.789-.932,5.834,5.834,0,0,0,.611-2.936Zm3.911,6.829a1.018,1.018,0,0,1,.25-.7.954.954,0,0,1,.751-.281.983.983,0,0,1,.76.281,1,1,0,0,1,.259.7.944.944,0,0,1-.259.677,1,1,0,0,1-.76.272.9.9,0,0,1-1-.949Zm12.56-4.605a7.436,7.436,0,0,1-.976,4.245,4.054,4.054,0,0,1-6.082.031,7.058,7.058,0,0,1-1.02-4.056V11.591A7.271,7.271,0,0,1,91.635,7.4a4.127,4.127,0,0,1,6.1-.048,7.017,7.017,0,0,1,1,4.083ZM97.11,11.318a5.958,5.958,0,0,0-.58-3.01,2,2,0,0,0-1.837-.945,1.97,1.97,0,0,0-1.819.94,5.817,5.817,0,0,0-.589,2.892v2.6a6.053,6.053,0,0,0,.6,3.063,1.993,1.993,0,0,0,1.824.989,1.966,1.966,0,0,0,1.789-.932,5.834,5.834,0,0,0,.611-2.936Zm11.733,2.224a7.436,7.436,0,0,1-.976,4.245,4.054,4.054,0,0,1-6.082.031,7.058,7.058,0,0,1-1.02-4.056V11.591a7.271,7.271,0,0,1,.976-4.192,4.127,4.127,0,0,1,6.1-.048,7.017,7.017,0,0,1,1,4.083Zm-1.626-2.224a5.958,5.958,0,0,0-.58-3.01,2,2,0,0,0-1.837-.945,1.97,1.97,0,0,0-1.819.94,5.817,5.817,0,0,0-.589,2.892v2.6a6.053,6.053,0,0,0,.6,3.063,1.993,1.993,0,0,0,1.824.989,1.966,1.966,0,0,0,1.789-.932,5.834,5.834,0,0,0,.611-2.936Zm11.733,2.224a7.436,7.436,0,0,1-.976,4.245,4.054,4.054,0,0,1-6.082.031,7.058,7.058,0,0,1-1.02-4.056V11.591A7.271,7.271,0,0,1,111.85,7.4a4.127,4.127,0,0,1,6.1-.048,7.017,7.017,0,0,1,1,4.083Zm-1.626-2.224a5.958,5.958,0,0,0-.58-3.01,2,2,0,0,0-1.837-.945,1.97,1.97,0,0,0-1.819.94A5.817,5.817,0,0,0,112.5,11.2v2.6a6.053,6.053,0,0,0,.6,3.063,1.993,1.993,0,0,0,1.824.989,1.966,1.966,0,0,0,1.789-.932,5.834,5.834,0,0,0,.611-2.936Z" transform="translate(418 7673)" fill="#12263f"/>
    <path id="Trazado_118401" data-name="Trazado 118401" d="M54.865,19H46.48V17.831l4.43-4.922a10.524,10.524,0,0,0,1.358-1.815,3.029,3.029,0,0,0,.374-1.446A2.3,2.3,0,0,0,52.035,8a2.12,2.12,0,0,0-1.617-.642,2.511,2.511,0,0,0-1.885.69,2.635,2.635,0,0,0-.672,1.92H46.234a3.774,3.774,0,0,1,1.138-2.856,4.219,4.219,0,0,1,3.045-1.09,4.054,4.054,0,0,1,2.821.936,3.193,3.193,0,0,1,1.037,2.492q0,1.89-2.408,4.5L48.44,17.673h6.425Zm1.925-.853a1.018,1.018,0,0,1,.25-.7.954.954,0,0,1,.751-.281.983.983,0,0,1,.76.281,1,1,0,0,1,.259.7.944.944,0,0,1-.259.677,1,1,0,0,1-.76.272.9.9,0,0,1-1-.949Zm5.282-5.563.65-6.381h6.557v1.5H64.1L63.715,11.2a4.13,4.13,0,0,1,2.136-.554A3.531,3.531,0,0,1,68.628,11.8a4.53,4.53,0,0,1,1.028,3.125,4.372,4.372,0,0,1-1.068,3.116A3.892,3.892,0,0,1,65.6,19.176a4.045,4.045,0,0,1-2.769-.94,3.754,3.754,0,0,1-1.222-2.6h1.538a2.582,2.582,0,0,0,.782,1.657,2.432,2.432,0,0,0,1.67.558,2.194,2.194,0,0,0,1.78-.773,3.233,3.233,0,0,0,.646-2.136,2.968,2.968,0,0,0-.7-2.061,2.377,2.377,0,0,0-1.859-.778,2.681,2.681,0,0,0-1.67.466l-.431.352Zm17.385.958a7.436,7.436,0,0,1-.976,4.245,4.054,4.054,0,0,1-6.082.031,7.058,7.058,0,0,1-1.02-4.056V11.591A7.271,7.271,0,0,1,72.355,7.4a4.127,4.127,0,0,1,6.1-.048,7.017,7.017,0,0,1,1,4.083Zm-1.626-2.224a5.958,5.958,0,0,0-.58-3.01,2,2,0,0,0-1.837-.945,1.97,1.97,0,0,0-1.819.94,5.817,5.817,0,0,0-.589,2.892v2.6a6.053,6.053,0,0,0,.6,3.063,1.993,1.993,0,0,0,1.824.989,1.966,1.966,0,0,0,1.789-.932,5.834,5.834,0,0,0,.611-2.936Zm11.733,2.224a7.436,7.436,0,0,1-.976,4.245,4.054,4.054,0,0,1-6.082.031,7.058,7.058,0,0,1-1.02-4.056V11.591A7.271,7.271,0,0,1,82.462,7.4a4.127,4.127,0,0,1,6.1-.048,7.017,7.017,0,0,1,1,4.083Zm-1.626-2.224a5.958,5.958,0,0,0-.58-3.01,2,2,0,0,0-1.837-.945A1.97,1.97,0,0,0,83.7,8.3a5.817,5.817,0,0,0-.589,2.892v2.6a6.053,6.053,0,0,0,.6,3.063,1.993,1.993,0,0,0,1.824.989,1.966,1.966,0,0,0,1.789-.932,5.834,5.834,0,0,0,.611-2.936ZM46.77,59H45.135V48.163l-3.278,1.2V47.891l4.658-1.749h.255Zm12.788-5.458a7.436,7.436,0,0,1-.976,4.245,4.054,4.054,0,0,1-6.082.031,7.058,7.058,0,0,1-1.02-4.056V51.591a7.271,7.271,0,0,1,.976-4.192,4.127,4.127,0,0,1,6.1-.048,7.017,7.017,0,0,1,1,4.083Zm-1.626-2.224a5.958,5.958,0,0,0-.58-3.01,2,2,0,0,0-1.837-.945,1.97,1.97,0,0,0-1.819.94,5.817,5.817,0,0,0-.589,2.892v2.6a6.053,6.053,0,0,0,.6,3.063,1.993,1.993,0,0,0,1.824.989,1.966,1.966,0,0,0,1.789-.932,5.834,5.834,0,0,0,.611-2.936Zm3.911,6.829a1.018,1.018,0,0,1,.25-.7.954.954,0,0,1,.751-.281.983.983,0,0,1,.76.281,1,1,0,0,1,.259.7.944.944,0,0,1-.259.677,1,1,0,0,1-.76.272.9.9,0,0,1-1-.949ZM74.4,53.542a7.436,7.436,0,0,1-.976,4.245,4.054,4.054,0,0,1-6.082.031,7.058,7.058,0,0,1-1.02-4.056V51.591A7.271,7.271,0,0,1,67.3,47.4a4.127,4.127,0,0,1,6.1-.048,7.017,7.017,0,0,1,1,4.083Zm-1.626-2.224a5.958,5.958,0,0,0-.58-3.01,2,2,0,0,0-1.837-.945,1.97,1.97,0,0,0-1.819.94,5.817,5.817,0,0,0-.589,2.892v2.6a6.053,6.053,0,0,0,.6,3.063,1.993,1.993,0,0,0,1.824.989,1.966,1.966,0,0,0,1.789-.932,5.834,5.834,0,0,0,.611-2.936ZM84.51,53.542a7.436,7.436,0,0,1-.976,4.245,4.054,4.054,0,0,1-6.082.031,7.058,7.058,0,0,1-1.02-4.056V51.591a7.271,7.271,0,0,1,.976-4.192,4.127,4.127,0,0,1,6.1-.048,7.017,7.017,0,0,1,1,4.083Zm-1.626-2.224a5.958,5.958,0,0,0-.58-3.01,2,2,0,0,0-1.837-.945,1.97,1.97,0,0,0-1.819.94,5.817,5.817,0,0,0-.589,2.892v2.6a6.053,6.053,0,0,0,.6,3.063,1.993,1.993,0,0,0,1.824.989,1.966,1.966,0,0,0,1.789-.932,5.834,5.834,0,0,0,.611-2.936Zm11.733,2.224a7.436,7.436,0,0,1-.976,4.245,4.054,4.054,0,0,1-6.082.031,7.058,7.058,0,0,1-1.02-4.056V51.591a7.271,7.271,0,0,1,.976-4.192,4.127,4.127,0,0,1,6.1-.048,7.017,7.017,0,0,1,1,4.083Zm-1.626-2.224a5.958,5.958,0,0,0-.58-3.01,2,2,0,0,0-1.837-.945,1.97,1.97,0,0,0-1.819.94,5.817,5.817,0,0,0-.589,2.892v2.6a6.053,6.053,0,0,0,.6,3.063,1.993,1.993,0,0,0,1.824.989,1.966,1.966,0,0,0,1.789-.932,5.834,5.834,0,0,0,.611-2.936Z" transform="translate(372 7783)" fill="#12263f"/>
    <path id="Trazado_118403" data-name="Trazado 118403" d="M11.188,14.737a4.528,4.528,0,0,1-1.525,3.252,5.355,5.355,0,0,1-3.625,1.187,4.816,4.816,0,0,1-3.872-1.657A6.793,6.793,0,0,1,.756,12.971v-.782a7.671,7.671,0,0,1,.65-3.252A4.874,4.874,0,0,1,3.265,6.779a5.207,5.207,0,0,1,2.808-.751A5.217,5.217,0,0,1,9.642,7.214a4.866,4.866,0,0,1,1.564,3.331H8.569a2.673,2.673,0,0,0-.69-1.8,2.555,2.555,0,0,0-1.806-.558A2.24,2.24,0,0,0,4.1,9.134a5.3,5.3,0,0,0-.672,2.931v.967a5.667,5.667,0,0,0,.628,3.032,2.2,2.2,0,0,0,1.982.958,2.6,2.6,0,0,0,1.824-.558,2.521,2.521,0,0,0,.69-1.727Zm4.368-.246V19H12.92V6.2h4.992a5.776,5.776,0,0,1,2.536.527,3.886,3.886,0,0,1,1.683,1.5,4.178,4.178,0,0,1,.589,2.21,3.674,3.674,0,0,1-1.288,2.966,5.363,5.363,0,0,1-3.564,1.085Zm0-2.136h2.355a2.316,2.316,0,0,0,1.6-.492,1.79,1.79,0,0,0,.549-1.406A2.111,2.111,0,0,0,19.5,8.937a2.068,2.068,0,0,0-1.529-.6H15.557Zm19.02,2.382a4.528,4.528,0,0,1-1.525,3.252,5.355,5.355,0,0,1-3.625,1.187,4.816,4.816,0,0,1-3.872-1.657,6.793,6.793,0,0,1-1.411-4.548v-.782a7.671,7.671,0,0,1,.65-3.252,4.874,4.874,0,0,1,1.859-2.158,5.207,5.207,0,0,1,2.808-.751,5.217,5.217,0,0,1,3.568,1.187,4.866,4.866,0,0,1,1.564,3.331H31.957a2.673,2.673,0,0,0-.69-1.8,2.555,2.555,0,0,0-1.806-.558,2.24,2.24,0,0,0-1.973.945,5.3,5.3,0,0,0-.672,2.931v.967a5.667,5.667,0,0,0,.628,3.032,2.2,2.2,0,0,0,1.982.958,2.6,2.6,0,0,0,1.824-.558,2.521,2.521,0,0,0,.69-1.727Zm12.243-1.846a7.725,7.725,0,0,1-.668,3.313,5.03,5.03,0,0,1-1.912,2.2,5.649,5.649,0,0,1-5.691.009,5.08,5.08,0,0,1-1.934-2.184,7.5,7.5,0,0,1-.694-3.265v-.633A7.685,7.685,0,0,1,36.6,9,5.072,5.072,0,0,1,38.527,6.8a5.64,5.64,0,0,1,5.687,0A5.072,5.072,0,0,1,46.138,9a7.663,7.663,0,0,1,.681,3.318Zm-2.672-.58a5.385,5.385,0,0,0-.721-3.059,2.546,2.546,0,0,0-4.1-.013,5.324,5.324,0,0,0-.729,3.028v.624a5.453,5.453,0,0,0,.721,3.041,2.524,2.524,0,0,0,4.113.04,5.421,5.421,0,0,0,.721-3.037Zm4.544,5.44a1.279,1.279,0,0,1,.409-.984,1.588,1.588,0,0,1,2.057,0,1.279,1.279,0,0,1,.409.984,1.261,1.261,0,0,1-.4.971,1.614,1.614,0,0,1-2.065,0A1.261,1.261,0,0,1,48.691,17.752Zm0-7.2a1.279,1.279,0,0,1,.409-.984,1.588,1.588,0,0,1,2.057,0,1.279,1.279,0,0,1,.409.984,1.261,1.261,0,0,1-.4.971,1.614,1.614,0,0,1-2.065,0A1.261,1.261,0,0,1,48.691,10.554Zm14.563,1.283h3.173v2.294H63.255v3.586H60.838V14.131H57.656V11.837h3.182V8.4h2.417ZM81.105,19H72.334V17.26l4.14-4.412a10.212,10.212,0,0,0,1.261-1.626A2.612,2.612,0,0,0,78.144,9.9a1.955,1.955,0,0,0-.431-1.34,1.555,1.555,0,0,0-1.23-.488,1.677,1.677,0,0,0-1.358.593,2.35,2.35,0,0,0-.5,1.56H72.079a4.2,4.2,0,0,1,.558-2.136,3.934,3.934,0,0,1,1.578-1.516,4.8,4.8,0,0,1,2.312-.549,4.54,4.54,0,0,1,3.072.949,3.358,3.358,0,0,1,1.094,2.681,4.3,4.3,0,0,1-.492,1.934,10.745,10.745,0,0,1-1.687,2.294L75.6,16.952h5.5Zm1.934-6.293.738-6.5h7.172V8.321H85.86l-.316,2.751a4.027,4.027,0,0,1,1.925-.483,3.689,3.689,0,0,1,2.865,1.134A4.529,4.529,0,0,1,91.371,14.9a4.64,4.64,0,0,1-.523,2.219,3.691,3.691,0,0,1-1.5,1.521,4.678,4.678,0,0,1-2.3.541,4.968,4.968,0,0,1-2.153-.47,3.819,3.819,0,0,1-1.569-1.323,3.605,3.605,0,0,1-.611-1.942h2.514a1.878,1.878,0,0,0,.558,1.244,1.769,1.769,0,0,0,1.252.444,1.562,1.562,0,0,0,1.327-.62,2.87,2.87,0,0,0,.466-1.753,2.374,2.374,0,0,0-.536-1.67,1.967,1.967,0,0,0-1.521-.58,2.2,2.2,0,0,0-1.468.475l-.246.229Z" transform="translate(287 7897)" fill="#12263f"/>
    <path id="Trazado_118399" data-name="Trazado 118399" d="M46.77,19H45.135V8.163l-3.278,1.2V7.891l4.658-1.749h.255Zm12.788-5.458a7.436,7.436,0,0,1-.976,4.245,4.054,4.054,0,0,1-6.082.031,7.058,7.058,0,0,1-1.02-4.056V11.591A7.271,7.271,0,0,1,52.457,7.4a4.127,4.127,0,0,1,6.1-.048,7.017,7.017,0,0,1,1,4.083Zm-1.626-2.224a5.958,5.958,0,0,0-.58-3.01,2,2,0,0,0-1.837-.945A1.97,1.97,0,0,0,53.7,8.3a5.817,5.817,0,0,0-.589,2.892v2.6a6.053,6.053,0,0,0,.6,3.063,1.993,1.993,0,0,0,1.824.989,1.966,1.966,0,0,0,1.789-.932,5.834,5.834,0,0,0,.611-2.936Zm3.911,6.829a1.018,1.018,0,0,1,.25-.7.954.954,0,0,1,.751-.281.983.983,0,0,1,.76.281,1,1,0,0,1,.259.7.944.944,0,0,1-.259.677,1,1,0,0,1-.76.272.9.9,0,0,1-1-.949ZM74.4,13.542a7.436,7.436,0,0,1-.976,4.245,4.054,4.054,0,0,1-6.082.031,7.058,7.058,0,0,1-1.02-4.056V11.591A7.271,7.271,0,0,1,67.3,7.4a4.127,4.127,0,0,1,6.1-.048,7.017,7.017,0,0,1,1,4.083Zm-1.626-2.224a5.958,5.958,0,0,0-.58-3.01,2,2,0,0,0-1.837-.945,1.97,1.97,0,0,0-1.819.94,5.817,5.817,0,0,0-.589,2.892v2.6a6.053,6.053,0,0,0,.6,3.063,1.993,1.993,0,0,0,1.824.989,1.966,1.966,0,0,0,1.789-.932,5.834,5.834,0,0,0,.611-2.936ZM84.51,13.542a7.436,7.436,0,0,1-.976,4.245,4.054,4.054,0,0,1-6.082.031,7.058,7.058,0,0,1-1.02-4.056V11.591A7.271,7.271,0,0,1,77.409,7.4a4.127,4.127,0,0,1,6.1-.048,7.017,7.017,0,0,1,1,4.083Zm-1.626-2.224a5.958,5.958,0,0,0-.58-3.01,2,2,0,0,0-1.837-.945,1.97,1.97,0,0,0-1.819.94,5.817,5.817,0,0,0-.589,2.892v2.6a6.053,6.053,0,0,0,.6,3.063,1.993,1.993,0,0,0,1.824.989,1.966,1.966,0,0,0,1.789-.932,5.834,5.834,0,0,0,.611-2.936Zm11.733,2.224a7.436,7.436,0,0,1-.976,4.245,4.054,4.054,0,0,1-6.082.031,7.058,7.058,0,0,1-1.02-4.056V11.591A7.271,7.271,0,0,1,87.516,7.4a4.127,4.127,0,0,1,6.1-.048,7.017,7.017,0,0,1,1,4.083Zm-1.626-2.224a5.958,5.958,0,0,0-.58-3.01,2,2,0,0,0-1.837-.945,1.97,1.97,0,0,0-1.819.94,5.817,5.817,0,0,0-.589,2.892v2.6a6.053,6.053,0,0,0,.6,3.063,1.993,1.993,0,0,0,1.824.989,1.966,1.966,0,0,0,1.789-.932,5.834,5.834,0,0,0,.611-2.936Z" transform="translate(418 7708)" fill="#12263f"/>
    <path id="Trazado_118393" data-name="Trazado 118393" d="M106.629,14.939a4.708,4.708,0,0,1-1.5,3.133,4.911,4.911,0,0,1-3.353,1.1,4.509,4.509,0,0,1-3.634-1.626A6.542,6.542,0,0,1,96.777,13.2v-1.23a7.291,7.291,0,0,1,.637-3.138A4.76,4.76,0,0,1,99.22,6.752a5.029,5.029,0,0,1,2.707-.725,4.624,4.624,0,0,1,3.27,1.138,4.765,4.765,0,0,1,1.433,3.151h-1.7a3.677,3.677,0,0,0-.954-2.222,2.885,2.885,0,0,0-2.052-.688,3.019,3.019,0,0,0-2.536,1.2,5.492,5.492,0,0,0-.918,3.4v1.24a5.645,5.645,0,0,0,.87,3.316,2.812,2.812,0,0,0,2.435,1.231,3.247,3.247,0,0,0,2.158-.637,3.536,3.536,0,0,0,1-2.219ZM114.548,19a3.416,3.416,0,0,1-.229-1,3.628,3.628,0,0,1-2.707,1.178,3.357,3.357,0,0,1-2.307-.8,2.573,2.573,0,0,1-.9-2.017,2.688,2.688,0,0,1,1.129-2.307,5.325,5.325,0,0,1,3.177-.822h1.582v-.747a1.826,1.826,0,0,0-.51-1.358,2.049,2.049,0,0,0-1.5-.505,2.371,2.371,0,0,0-1.459.439,1.3,1.3,0,0,0-.589,1.063H108.6a2.244,2.244,0,0,1,.505-1.375,3.449,3.449,0,0,1,1.371-1.05,4.613,4.613,0,0,1,1.9-.387,3.759,3.759,0,0,1,2.575.822,2.964,2.964,0,0,1,.967,2.263v4.377a5.351,5.351,0,0,0,.334,2.083V19Zm-2.7-1.239a2.858,2.858,0,0,0,1.45-.4,2.392,2.392,0,0,0,.993-1.028V14.386h-1.274q-2.988,0-2.988,1.749a1.48,1.48,0,0,0,.51,1.2A1.959,1.959,0,0,0,111.85,17.761Zm8.156-8.271.053,1.2a3.465,3.465,0,0,1,2.848-1.371q3.015,0,3.041,3.4V19h-1.626V12.707a2.189,2.189,0,0,0-.47-1.521,1.884,1.884,0,0,0-1.437-.492,2.347,2.347,0,0,0-1.389.422,2.865,2.865,0,0,0-.932,1.107V19h-1.626V9.49Zm10.6-2.3v2.3h1.775v1.257h-1.775v5.9a1.32,1.32,0,0,0,.237.858,1,1,0,0,0,.809.286,3.937,3.937,0,0,0,.773-.105V19a4.742,4.742,0,0,1-1.248.175,2.025,2.025,0,0,1-1.644-.659,2.832,2.832,0,0,1-.554-1.872v-5.9h-1.731V9.49h1.731v-2.3ZM136.046,19H134.42V9.49h1.626ZM134.289,6.968a.971.971,0,0,1,.242-.668.907.907,0,0,1,.716-.272.922.922,0,0,1,.721.272.96.96,0,0,1,.246.668.929.929,0,0,1-.246.659.938.938,0,0,1-.721.264.924.924,0,0,1-.716-.264A.938.938,0,0,1,134.289,6.968Zm3.964,7.2a5.571,5.571,0,0,1,1.037-3.52,3.529,3.529,0,0,1,5.361-.189V5.5h1.626V19h-1.494l-.079-1.02a3.311,3.311,0,0,1-2.716,1.2,3.248,3.248,0,0,1-2.694-1.354,5.634,5.634,0,0,1-1.042-3.533Zm1.626.185a4.218,4.218,0,0,0,.668,2.531,2.159,2.159,0,0,0,1.846.914,2.372,2.372,0,0,0,2.259-1.389V12.039a2.39,2.39,0,0,0-2.241-1.345,2.17,2.17,0,0,0-1.863.923A4.644,4.644,0,0,0,139.878,14.351ZM154.67,19a3.416,3.416,0,0,1-.229-1,3.628,3.628,0,0,1-2.707,1.178,3.357,3.357,0,0,1-2.307-.8,2.573,2.573,0,0,1-.9-2.017,2.688,2.688,0,0,1,1.129-2.307,5.325,5.325,0,0,1,3.177-.822h1.582v-.747a1.826,1.826,0,0,0-.51-1.358,2.049,2.049,0,0,0-1.5-.505,2.371,2.371,0,0,0-1.459.439,1.3,1.3,0,0,0-.589,1.063H148.72a2.244,2.244,0,0,1,.505-1.375A3.449,3.449,0,0,1,150.6,9.7a4.613,4.613,0,0,1,1.9-.387,3.759,3.759,0,0,1,2.575.822,2.964,2.964,0,0,1,.967,2.263v4.377a5.351,5.351,0,0,0,.334,2.083V19Zm-2.7-1.239a2.858,2.858,0,0,0,1.45-.4,2.392,2.392,0,0,0,.993-1.028V14.386h-1.274q-2.988,0-2.988,1.749a1.48,1.48,0,0,0,.51,1.2A1.959,1.959,0,0,0,151.972,17.761Zm6.223-3.595a5.571,5.571,0,0,1,1.037-3.52,3.529,3.529,0,0,1,5.361-.189V5.5h1.626V19h-1.494l-.079-1.02a3.311,3.311,0,0,1-2.716,1.2,3.248,3.248,0,0,1-2.694-1.354,5.634,5.634,0,0,1-1.042-3.533Zm1.626.185a4.218,4.218,0,0,0,.668,2.531,2.159,2.159,0,0,0,1.846.914,2.372,2.372,0,0,0,2.259-1.389V12.039a2.39,2.39,0,0,0-2.241-1.345,2.17,2.17,0,0,0-1.863.923A4.644,4.644,0,0,0,159.821,14.351Zm12.946-.193a5.617,5.617,0,0,1,.549-2.514,4.1,4.1,0,0,1,1.529-1.723,4.163,4.163,0,0,1,2.237-.606,4.01,4.01,0,0,1,3.142,1.345,5.174,5.174,0,0,1,1.2,3.577v.114a5.666,5.666,0,0,1-.532,2.492,4.038,4.038,0,0,1-1.521,1.718,4.211,4.211,0,0,1-2.272.615,4,4,0,0,1-3.133-1.345,5.147,5.147,0,0,1-1.2-3.56Zm1.635.193a4.068,4.068,0,0,0,.734,2.54,2.487,2.487,0,0,0,3.933-.013,4.449,4.449,0,0,0,.729-2.72,4.061,4.061,0,0,0-.743-2.536,2.361,2.361,0,0,0-1.973-.971,2.335,2.335,0,0,0-1.942.958A4.416,4.416,0,0,0,174.4,14.351ZM184.263,19V10.747h-1.5V9.49h1.5V8.515a3.238,3.238,0,0,1,.817-2.364,3.088,3.088,0,0,1,2.312-.835,4.293,4.293,0,0,1,1.116.148l-.088,1.311a4.67,4.67,0,0,0-.879-.079,1.586,1.586,0,0,0-1.222.463,1.877,1.877,0,0,0-.431,1.327V9.49h2.03v1.257h-2.03V19Zm9.4.176a4.155,4.155,0,0,1-3.146-1.27,4.714,4.714,0,0,1-1.213-3.4v-.3a5.707,5.707,0,0,1,.541-2.527,4.217,4.217,0,0,1,1.512-1.74,3.8,3.8,0,0,1,2.1-.628,3.562,3.562,0,0,1,2.883,1.222,5.289,5.289,0,0,1,1.028,3.5v.677h-6.442a3.38,3.38,0,0,0,.822,2.272,2.583,2.583,0,0,0,2,.866,2.832,2.832,0,0,0,1.459-.352,3.666,3.666,0,0,0,1.046-.932l.993.773A3.993,3.993,0,0,1,193.659,19.176Zm-.2-8.525a2.169,2.169,0,0,0-1.652.716,3.482,3.482,0,0,0-.826,2.008h4.764v-.123a3.1,3.1,0,0,0-.668-1.92A2.042,2.042,0,0,0,193.457,10.65Zm10.389.3a4.873,4.873,0,0,0-.8-.062,2.143,2.143,0,0,0-2.171,1.362V19h-1.626V9.49h1.582l.026,1.1a2.532,2.532,0,0,1,2.268-1.274,1.661,1.661,0,0,1,.721.123Zm4.14-3.762v2.3h1.775v1.257h-1.775v5.9a1.32,1.32,0,0,0,.237.858,1,1,0,0,0,.809.286,3.937,3.937,0,0,0,.773-.105V19a4.742,4.742,0,0,1-1.248.175,2.025,2.025,0,0,1-1.644-.659,2.832,2.832,0,0,1-.554-1.872v-5.9h-1.731V9.49h1.731v-2.3ZM217.53,19a3.416,3.416,0,0,1-.229-1,3.628,3.628,0,0,1-2.707,1.178,3.357,3.357,0,0,1-2.307-.8,2.573,2.573,0,0,1-.9-2.017,2.688,2.688,0,0,1,1.129-2.307,5.325,5.325,0,0,1,3.177-.822h1.582v-.747a1.826,1.826,0,0,0-.51-1.358,2.049,2.049,0,0,0-1.5-.505,2.371,2.371,0,0,0-1.459.439,1.3,1.3,0,0,0-.589,1.063H211.58a2.244,2.244,0,0,1,.505-1.375,3.449,3.449,0,0,1,1.371-1.05,4.613,4.613,0,0,1,1.9-.387,3.759,3.759,0,0,1,2.575.822A2.964,2.964,0,0,1,218.9,12.4v4.377a5.351,5.351,0,0,0,.334,2.083V19Zm-2.7-1.239a2.858,2.858,0,0,0,1.45-.4,2.392,2.392,0,0,0,.993-1.028V14.386H216q-2.988,0-2.988,1.749a1.48,1.48,0,0,0,.51,1.2A1.959,1.959,0,0,0,214.832,17.761Zm6.223-3.595a5.571,5.571,0,0,1,1.037-3.52,3.529,3.529,0,0,1,5.361-.189V5.5h1.626V19h-1.494l-.079-1.02a3.311,3.311,0,0,1-2.716,1.2,3.248,3.248,0,0,1-2.694-1.354,5.634,5.634,0,0,1-1.042-3.533Zm1.626.185a4.218,4.218,0,0,0,.668,2.531,2.159,2.159,0,0,0,1.846.914,2.372,2.372,0,0,0,2.259-1.389V12.039a2.39,2.39,0,0,0-2.241-1.345,2.17,2.17,0,0,0-1.863.923A4.644,4.644,0,0,0,222.68,14.351ZM237.472,19a3.416,3.416,0,0,1-.229-1,3.628,3.628,0,0,1-2.707,1.178,3.357,3.357,0,0,1-2.307-.8,2.573,2.573,0,0,1-.9-2.017,2.688,2.688,0,0,1,1.129-2.307,5.325,5.325,0,0,1,3.177-.822h1.582v-.747a1.826,1.826,0,0,0-.51-1.358,2.049,2.049,0,0,0-1.5-.505,2.371,2.371,0,0,0-1.459.439,1.3,1.3,0,0,0-.589,1.063h-1.635a2.244,2.244,0,0,1,.505-1.375A3.449,3.449,0,0,1,233.4,9.7a4.613,4.613,0,0,1,1.9-.387,3.759,3.759,0,0,1,2.575.822,2.964,2.964,0,0,1,.967,2.263v4.377a5.351,5.351,0,0,0,.334,2.083V19Zm-2.7-1.239a2.858,2.858,0,0,0,1.45-.4,2.392,2.392,0,0,0,.993-1.028V14.386h-1.274q-2.988,0-2.988,1.749a1.48,1.48,0,0,0,.51,1.2A1.959,1.959,0,0,0,234.774,17.761ZM246.569,19h-1.635V8.163l-3.278,1.2V7.891l4.658-1.749h.255Z" transform="translate(392 7580)" fill="#12263f"/>
    <path id="Trazado_118394" data-name="Trazado 118394" d="M11.32,14.667a4.673,4.673,0,0,1-.721,2.36,4.35,4.35,0,0,1-1.85,1.586,6.3,6.3,0,0,1-2.72.563,5.025,5.025,0,0,1-3.973-1.644,6.786,6.786,0,0,1-1.45-4.641v-.633a7.746,7.746,0,0,1,.655-3.292,4.961,4.961,0,0,1,1.885-2.18,5.26,5.26,0,0,1,2.848-.769A5.516,5.516,0,0,1,9.738,7.245a4.844,4.844,0,0,1,1.608,3.379H8.271a2.292,2.292,0,0,0-.589-1.679,2.422,2.422,0,0,0-1.687-.51A1.843,1.843,0,0,0,4.307,9.3a5.536,5.536,0,0,0-.562,2.751v.905a6.125,6.125,0,0,0,.514,2.927,1.882,1.882,0,0,0,1.771.879,2.369,2.369,0,0,0,1.626-.5,2.126,2.126,0,0,0,.6-1.591Zm4.544-.009V19H12.779V6.2h5.106a5.948,5.948,0,0,1,2.6.541,4.074,4.074,0,0,1,1.749,1.538,4.2,4.2,0,0,1,.62,2.263,3.7,3.7,0,0,1-1.34,2.993,5.561,5.561,0,0,1-3.678,1.121Zm0-2.382h2.021a1.906,1.906,0,0,0,1.367-.448,1.665,1.665,0,0,0,.47-1.266,2.059,2.059,0,0,0-.483-1.433,1.712,1.712,0,0,0-1.318-.545H15.864Zm18.984,2.391a4.673,4.673,0,0,1-.721,2.36,4.35,4.35,0,0,1-1.85,1.586,6.3,6.3,0,0,1-2.72.563,5.025,5.025,0,0,1-3.973-1.644,6.786,6.786,0,0,1-1.45-4.641v-.633a7.746,7.746,0,0,1,.655-3.292,4.961,4.961,0,0,1,1.885-2.18,5.26,5.26,0,0,1,2.848-.769,5.516,5.516,0,0,1,3.744,1.226,4.844,4.844,0,0,1,1.608,3.379H31.8a2.292,2.292,0,0,0-.589-1.679,2.422,2.422,0,0,0-1.687-.51,1.843,1.843,0,0,0-1.687.861,5.536,5.536,0,0,0-.562,2.751v.905a6.126,6.126,0,0,0,.514,2.927,1.882,1.882,0,0,0,1.771.879,2.369,2.369,0,0,0,1.626-.5,2.126,2.126,0,0,0,.6-1.591Zm12.3-1.8a7.546,7.546,0,0,1-.694,3.313A5.132,5.132,0,0,1,44.477,18.4a5.494,5.494,0,0,1-2.914.778,5.572,5.572,0,0,1-2.9-.751,5.123,5.123,0,0,1-1.973-2.149,7.329,7.329,0,0,1-.743-3.208v-.721a7.58,7.58,0,0,1,.69-3.318A5.119,5.119,0,0,1,38.615,6.81,5.854,5.854,0,0,1,44.446,6.8,5.211,5.211,0,0,1,46.428,9a7.362,7.362,0,0,1,.716,3.274Zm-3.138-.536a5.381,5.381,0,0,0-.637-2.9,2.044,2.044,0,0,0-1.824-.989q-2.32,0-2.452,3.48l-.009.94a5.535,5.535,0,0,0,.624,2.892,2.041,2.041,0,0,0,1.854,1.011,2.016,2.016,0,0,0,1.8-.993,5.383,5.383,0,0,0,.642-2.856Zm6.434,3.8a1.686,1.686,0,0,1,1.169.417,1.457,1.457,0,0,1,0,2.136,1.844,1.844,0,0,1-2.342,0,1.456,1.456,0,0,1,0-2.127A1.672,1.672,0,0,1,50.44,16.126Zm0-7.014a1.686,1.686,0,0,1,1.169.417,1.457,1.457,0,0,1,0,2.136,1.844,1.844,0,0,1-2.342,0,1.456,1.456,0,0,1,0-2.127A1.672,1.672,0,0,1,50.44,9.112Z" transform="translate(287 7558)" fill="#12263f"/>
    <path id="Trazado_118400" data-name="Trazado 118400" d="M11.32,14.667a4.673,4.673,0,0,1-.721,2.36,4.35,4.35,0,0,1-1.85,1.586,6.3,6.3,0,0,1-2.72.563,5.025,5.025,0,0,1-3.973-1.644,6.786,6.786,0,0,1-1.45-4.641v-.633a7.746,7.746,0,0,1,.655-3.292,4.961,4.961,0,0,1,1.885-2.18,5.26,5.26,0,0,1,2.848-.769A5.516,5.516,0,0,1,9.738,7.245a4.844,4.844,0,0,1,1.608,3.379H8.271a2.292,2.292,0,0,0-.589-1.679,2.422,2.422,0,0,0-1.687-.51A1.843,1.843,0,0,0,4.307,9.3a5.536,5.536,0,0,0-.562,2.751v.905a6.125,6.125,0,0,0,.514,2.927,1.882,1.882,0,0,0,1.771.879,2.369,2.369,0,0,0,1.626-.5,2.126,2.126,0,0,0,.6-1.591Zm4.544-.009V19H12.779V6.2h5.106a5.948,5.948,0,0,1,2.6.541,4.074,4.074,0,0,1,1.749,1.538,4.2,4.2,0,0,1,.62,2.263,3.7,3.7,0,0,1-1.34,2.993,5.561,5.561,0,0,1-3.678,1.121Zm0-2.382h2.021a1.906,1.906,0,0,0,1.367-.448,1.665,1.665,0,0,0,.47-1.266,2.059,2.059,0,0,0-.483-1.433,1.712,1.712,0,0,0-1.318-.545H15.864Zm18.984,2.391a4.673,4.673,0,0,1-.721,2.36,4.35,4.35,0,0,1-1.85,1.586,6.3,6.3,0,0,1-2.72.563,5.025,5.025,0,0,1-3.973-1.644,6.786,6.786,0,0,1-1.45-4.641v-.633a7.746,7.746,0,0,1,.655-3.292,4.961,4.961,0,0,1,1.885-2.18,5.26,5.26,0,0,1,2.848-.769,5.516,5.516,0,0,1,3.744,1.226,4.844,4.844,0,0,1,1.608,3.379H31.8a2.292,2.292,0,0,0-.589-1.679,2.422,2.422,0,0,0-1.687-.51,1.843,1.843,0,0,0-1.687.861,5.536,5.536,0,0,0-.562,2.751v.905a6.126,6.126,0,0,0,.514,2.927,1.882,1.882,0,0,0,1.771.879,2.369,2.369,0,0,0,1.626-.5,2.126,2.126,0,0,0,.6-1.591Zm12.3-1.8a7.546,7.546,0,0,1-.694,3.313A5.132,5.132,0,0,1,44.477,18.4a5.494,5.494,0,0,1-2.914.778,5.572,5.572,0,0,1-2.9-.751,5.123,5.123,0,0,1-1.973-2.149,7.329,7.329,0,0,1-.743-3.208v-.721a7.58,7.58,0,0,1,.69-3.318A5.119,5.119,0,0,1,38.615,6.81,5.854,5.854,0,0,1,44.446,6.8,5.211,5.211,0,0,1,46.428,9a7.362,7.362,0,0,1,.716,3.274Zm-3.138-.536a5.381,5.381,0,0,0-.637-2.9,2.044,2.044,0,0,0-1.824-.989q-2.32,0-2.452,3.48l-.009.94a5.535,5.535,0,0,0,.624,2.892,2.041,2.041,0,0,0,1.854,1.011,2.016,2.016,0,0,0,1.8-.993,5.383,5.383,0,0,0,.642-2.856Zm6.434,3.8a1.686,1.686,0,0,1,1.169.417,1.457,1.457,0,0,1,0,2.136,1.844,1.844,0,0,1-2.342,0,1.456,1.456,0,0,1,0-2.127A1.672,1.672,0,0,1,50.44,16.126Zm0-7.014a1.686,1.686,0,0,1,1.169.417,1.457,1.457,0,0,1,0,2.136,1.844,1.844,0,0,1-2.342,0,1.456,1.456,0,0,1,0-2.127A1.672,1.672,0,0,1,50.44,9.112Z" transform="translate(287 7803)" fill="#12263f"/>
    <path id="Trazado_118395" data-name="Trazado 118395" d="M5.739,10.457,7.831,6.2h3.524L7.778,12.549,11.452,19H7.893L5.739,14.667,3.586,19H.035L3.7,12.549.132,6.2H3.647ZM23.317,19H20.347V9.543l-2.918.853V8.146L23.045,6.2h.272Zm12.744-5.229a6.11,6.11,0,0,1-1.165,4,4.024,4.024,0,0,1-3.283,1.406,4.046,4.046,0,0,1-3.3-1.415,6.1,6.1,0,0,1-1.169-3.99V11.433a6.11,6.11,0,0,1,1.165-4A4.034,4.034,0,0,1,31.6,6.027a4.036,4.036,0,0,1,3.3,1.415,6.116,6.116,0,0,1,1.169,4ZM33.1,11.055a4.564,4.564,0,0,0-.36-2.061A1.2,1.2,0,0,0,31.6,8.313a1.176,1.176,0,0,0-1.112.633,4.3,4.3,0,0,0-.374,1.916v3.27a4.6,4.6,0,0,0,.36,2.1,1.209,1.209,0,0,0,1.143.664,1.193,1.193,0,0,0,1.116-.646,4.39,4.39,0,0,0,.369-2.026Zm13.386,2.716a6.11,6.11,0,0,1-1.165,4,4.024,4.024,0,0,1-3.283,1.406,4.046,4.046,0,0,1-3.3-1.415,6.1,6.1,0,0,1-1.169-3.99V11.433a6.11,6.11,0,0,1,1.165-4,4.034,4.034,0,0,1,3.292-1.406,4.036,4.036,0,0,1,3.3,1.415,6.116,6.116,0,0,1,1.169,4Zm-2.962-2.716a4.564,4.564,0,0,0-.36-2.061,1.2,1.2,0,0,0-1.143-.681,1.176,1.176,0,0,0-1.112.633,4.3,4.3,0,0,0-.374,1.916v3.27a4.6,4.6,0,0,0,.36,2.1,1.209,1.209,0,0,0,1.143.664,1.193,1.193,0,0,0,1.116-.646,4.39,4.39,0,0,0,.369-2.026Z" transform="translate(764 7558)" fill="#12263f"/>
    <path id="Trazado_118398" data-name="Trazado 118398" d="M5.739,10.457,7.831,6.2h3.524L7.778,12.549,11.452,19H7.893L5.739,14.667,3.586,19H.035L3.7,12.549.132,6.2H3.647ZM23.317,19H20.347V9.543l-2.918.853V8.146L23.045,6.2h.272Zm12.744-5.229a6.11,6.11,0,0,1-1.165,4,4.024,4.024,0,0,1-3.283,1.406,4.046,4.046,0,0,1-3.3-1.415,6.1,6.1,0,0,1-1.169-3.99V11.433a6.11,6.11,0,0,1,1.165-4A4.034,4.034,0,0,1,31.6,6.027a4.036,4.036,0,0,1,3.3,1.415,6.116,6.116,0,0,1,1.169,4ZM33.1,11.055a4.564,4.564,0,0,0-.36-2.061A1.2,1.2,0,0,0,31.6,8.313a1.176,1.176,0,0,0-1.112.633,4.3,4.3,0,0,0-.374,1.916v3.27a4.6,4.6,0,0,0,.36,2.1,1.209,1.209,0,0,0,1.143.664,1.193,1.193,0,0,0,1.116-.646,4.39,4.39,0,0,0,.369-2.026Zm13.386,2.716a6.11,6.11,0,0,1-1.165,4,4.024,4.024,0,0,1-3.283,1.406,4.046,4.046,0,0,1-3.3-1.415,6.1,6.1,0,0,1-1.169-3.99V11.433a6.11,6.11,0,0,1,1.165-4,4.034,4.034,0,0,1,3.292-1.406,4.036,4.036,0,0,1,3.3,1.415,6.116,6.116,0,0,1,1.169,4Zm-2.962-2.716a4.564,4.564,0,0,0-.36-2.061,1.2,1.2,0,0,0-1.143-.681,1.176,1.176,0,0,0-1.112.633,4.3,4.3,0,0,0-.374,1.916v3.27a4.6,4.6,0,0,0,.36,2.1,1.209,1.209,0,0,0,1.143.664,1.193,1.193,0,0,0,1.116-.646,4.39,4.39,0,0,0,.369-2.026Z" transform="translate(602 7686)" fill="#12263f"/>
    <path id="Trazado_118402" data-name="Trazado 118402" d="M5.739,10.457,7.831,6.2h3.524L7.778,12.549,11.452,19H7.893L5.739,14.667,3.586,19H.035L3.7,12.549.132,6.2H3.647ZM23.317,19H20.347V9.543l-2.918.853V8.146L23.045,6.2h.272Zm12.744-5.229a6.11,6.11,0,0,1-1.165,4,4.024,4.024,0,0,1-3.283,1.406,4.046,4.046,0,0,1-3.3-1.415,6.1,6.1,0,0,1-1.169-3.99V11.433a6.11,6.11,0,0,1,1.165-4A4.034,4.034,0,0,1,31.6,6.027a4.036,4.036,0,0,1,3.3,1.415,6.116,6.116,0,0,1,1.169,4ZM33.1,11.055a4.564,4.564,0,0,0-.36-2.061A1.2,1.2,0,0,0,31.6,8.313a1.176,1.176,0,0,0-1.112.633,4.3,4.3,0,0,0-.374,1.916v3.27a4.6,4.6,0,0,0,.36,2.1,1.209,1.209,0,0,0,1.143.664,1.193,1.193,0,0,0,1.116-.646,4.39,4.39,0,0,0,.369-2.026Zm13.386,2.716a6.11,6.11,0,0,1-1.165,4,4.024,4.024,0,0,1-3.283,1.406,4.046,4.046,0,0,1-3.3-1.415,6.1,6.1,0,0,1-1.169-3.99V11.433a6.11,6.11,0,0,1,1.165-4,4.034,4.034,0,0,1,3.292-1.406,4.036,4.036,0,0,1,3.3,1.415,6.116,6.116,0,0,1,1.169,4Zm-2.962-2.716a4.564,4.564,0,0,0-.36-2.061,1.2,1.2,0,0,0-1.143-.681,1.176,1.176,0,0,0-1.112.633,4.3,4.3,0,0,0-.374,1.916v3.27a4.6,4.6,0,0,0,.36,2.1,1.209,1.209,0,0,0,1.143.664,1.193,1.193,0,0,0,1.116-.646,4.39,4.39,0,0,0,.369-2.026Z" transform="translate(515 7801)" fill="#12263f"/>
    <path id="Trazado_118397" data-name="Trazado 118397" d="M8.9,13.568H4.052v3.059h5.73V19H.967V6.2H9.8V8.585H4.052v2.7H8.9Zm1.459.589a5.613,5.613,0,0,1,.554-2.536,3.96,3.96,0,0,1,1.591-1.709,4.791,4.791,0,0,1,2.435-.6,4.373,4.373,0,0,1,3.366,1.323,5.076,5.076,0,0,1,1.23,3.6v.105A4.925,4.925,0,0,1,18.3,17.871a4.384,4.384,0,0,1-3.344,1.305A4.434,4.434,0,0,1,11.7,17.958a4.761,4.761,0,0,1-1.327-3.3Zm2.962.185a3.538,3.538,0,0,0,.413,1.934,1.376,1.376,0,0,0,1.222.615q1.582,0,1.617-2.435v-.3q0-2.558-1.635-2.558-1.485,0-1.608,2.206Zm9.36,1.784a1.686,1.686,0,0,1,1.169.417,1.457,1.457,0,0,1,0,2.136,1.844,1.844,0,0,1-2.342,0,1.456,1.456,0,0,1,0-2.127A1.672,1.672,0,0,1,22.685,16.126Zm0-7.014a1.686,1.686,0,0,1,1.169.417,1.457,1.457,0,0,1,0,2.136,1.844,1.844,0,0,1-2.342,0,1.456,1.456,0,0,1,0-2.127A1.672,1.672,0,0,1,22.685,9.112Z" transform="translate(287 7686)" fill="#12263f"/>
    <g id="CF1_contador_1" data-name="CF1_contador 1" transform="translate(930.597 7508.978)">
      <path id="Trazado_116936" data-name="Trazado 116936" d="M379.27,268.16C343.44,351.28,248,397.84,165.2,385.28c-13.47-2-50.39-8.13-83.09-36.85-62.94-55.3-76.4-164.79-25.63-241.95,37-56.15,103.2-88,166.14-86.4,13.56.35,65.51,2.46,111.18,39.55a169.821,169.821,0,0,1,34.83,38.94C399.94,146.79,402.63,214,379.27,268.16Z" fill="url(#linear-gradient)"/>
      <g id="Grupo_56609" data-name="Grupo 56609">
        <g id="Grupo_56607" data-name="Grupo 56607">
          <path id="Trazado_116937" data-name="Trazado 116937" d="M123.7,240.65s1.09-45.83-20-58.1S42.43,162.62,40.93,96.81c-.88-38.53-1.83-55.37-2.47-62.72a4.33,4.33,0,0,1,5.12-4.64c20,3.76,84.94,19.27,98.55,63.59C158.28,145.6,123.7,240.65,123.7,240.65Z" fill="#bdd0fb"/>
          <path id="Trazado_116938" data-name="Trazado 116938" d="M59,47.76c22,19.57,47.36,54.24,60.89,88.85,1.73,5.71,6.81,17.85,9,39.42,2,18,1,37-1.4,49.58a1.46,1.46,0,0,1-1.71,1.16,1.49,1.49,0,0,1-1.18-1.68,201,201,0,0,0-4.65-72.4C112,123,94.17,94.3,75.75,69.92l-1.9-2.4C59.58,49.19,56.58,49.06,57.91,47.78A.83.83,0,0,1,59,47.76Z" fill="url(#linear-gradient-2)"/>
        </g>
        <g id="Grupo_56608" data-name="Grupo 56608">
          <path id="Trazado_116939" data-name="Trazado 116939" d="M157.62,328.77c2.86,1.4-27-36.2-36.4-95.24-4.41-27.82-4.47-62.67-20.32-76.11C87.71,146.24,42.83,153.3,28.14,156a2.21,2.21,0,0,0-1,3.86c7,5.91,22.11,19.86,26,33.92,5.18,18.54,22.79,30.32,38.57,33.51s24.55,6.29,32.23,31.51S149.51,324.79,157.62,328.77Z" fill="#b5abdb"/>
          <path id="Trazado_116940" data-name="Trazado 116940" d="M48.8,163.81c18.73.79,38.85,9.34,49.05,25.37l1,1.53c2.22,3.59,14.83,29.09,21.83,50.23a.5.5,0,0,1-.94.33c-4.88-11.94-11.89-27.08-17.47-38.4-6-12.36-10.18-20.73-23.83-28.74a76,76,0,0,0-29.67-9.51.4.4,0,0,1-.36-.44.41.41,0,0,1,.39-.37Z" fill="#bdd0fb"/>
        </g>
      </g>
      <g id="Grupo_56614" data-name="Grupo 56614">
        <path id="Trazado_116941" data-name="Trazado 116941" d="M358.16,373H114.5a14.72,14.72,0,0,1-14.56-14.61L93.86,42A14.75,14.75,0,0,1,108.1,26.8l249.75-5.57a14.72,14.72,0,0,1,14.88,14.9v321.9A14.74,14.74,0,0,1,358.16,373Z" fill="url(#linear-gradient-3)"/>
        <rect id="Rectángulo_6843" data-name="Rectángulo 6843" width="241.49" height="291.89" rx="8.77" transform="translate(114.62 65.56)" fill="#b5abdb"/>
        <g id="Grupo_56610" data-name="Grupo 56610">
          <rect id="Rectángulo_6844" data-name="Rectángulo 6844" width="133.48" height="10.52" transform="translate(213.21 78.3)" fill="#bdd0fb"/>
          <rect id="Rectángulo_6845" data-name="Rectángulo 6845" width="133.48" height="6.09" transform="translate(213.21 93.26)" fill="#bdd0fb"/>
          <rect id="Rectángulo_6846" data-name="Rectángulo 6846" width="133.48" height="6.09" transform="translate(213.21 103.78)" fill="#bdd0fb"/>
          <rect id="Rectángulo_6847" data-name="Rectángulo 6847" width="133.48" height="6.09" transform="translate(213.21 114.3)" fill="#bdd0fb"/>
        </g>
        <g id="Grupo_56611" data-name="Grupo 56611">
          <rect id="Rectángulo_6848" data-name="Rectángulo 6848" width="76.44" height="10.52" transform="translate(131.79 210.12)" fill="#bdd0fb"/>
          <rect id="Rectángulo_6849" data-name="Rectángulo 6849" width="76.44" height="6.09" transform="translate(131.79 225.08)" fill="#bdd0fb"/>
          <rect id="Rectángulo_6850" data-name="Rectángulo 6850" width="76.44" height="6.09" transform="translate(131.79 235.6)" fill="#bdd0fb"/>
          <rect id="Rectángulo_6851" data-name="Rectángulo 6851" width="76.44" height="6.09" transform="translate(131.79 246.13)" fill="#bdd0fb"/>
        </g>
        <g id="Grupo_56612" data-name="Grupo 56612">
          <rect id="Rectángulo_6852" data-name="Rectángulo 6852" width="7.45" height="31.73" transform="translate(202.33 157.35)" fill="url(#linear-gradient-4)"/>
          <rect id="Rectángulo_6853" data-name="Rectángulo 6853" width="7.45" height="20.82" transform="translate(214.77 168.25)" fill="url(#linear-gradient-5)"/>
          <rect id="Rectángulo_6854" data-name="Rectángulo 6854" width="7.45" height="47.77" transform="translate(227.22 141.3)" fill="url(#linear-gradient-6)"/>
          <rect id="Rectángulo_6855" data-name="Rectángulo 6855" width="7.45" height="11.48" transform="translate(239.67 177.6)" fill="url(#linear-gradient-7)"/>
          <rect id="Rectángulo_6856" data-name="Rectángulo 6856" width="7.45" height="41.39" transform="translate(252.11 147.69)" fill="url(#linear-gradient-8)"/>
          <rect id="Rectángulo_6857" data-name="Rectángulo 6857" width="7.45" height="34.22" transform="translate(264.56 154.86)" fill="url(#linear-gradient-7)"/>
          <rect id="Rectángulo_6858" data-name="Rectángulo 6858" width="7.45" height="26.43" transform="translate(277.01 162.65)" fill="url(#linear-gradient-4)"/>
          <rect id="Rectángulo_6859" data-name="Rectángulo 6859" width="7.45" height="57.43" transform="translate(289.46 131.64)" fill="url(#linear-gradient-6)"/>
          <rect id="Rectángulo_6860" data-name="Rectángulo 6860" width="7.45" height="51.36" transform="translate(301.9 137.72)" fill="url(#linear-gradient-7)"/>
          <rect id="Rectángulo_6861" data-name="Rectángulo 6861" width="7.45" height="42.17" transform="translate(314.35 146.91)" fill="url(#linear-gradient-8)"/>
          <rect id="Rectángulo_6862" data-name="Rectángulo 6862" width="7.45" height="10.41" transform="translate(326.8 178.67)" fill="url(#linear-gradient-14)"/>
          <rect id="Rectángulo_6863" data-name="Rectángulo 6863" width="7.45" height="30.64" transform="translate(339.24 158.44)" fill="url(#linear-gradient-7)"/>
        </g>
        <rect id="Rectángulo_6864" data-name="Rectángulo 6864" width="214.9" height="6.09" transform="translate(131.79 338.07)" fill="#bdd0fb"/>
        <rect id="Rectángulo_6865" data-name="Rectángulo 6865" width="60.95" height="110.78" rx="8.65" transform="translate(131.79 78.3)" fill="#bdd0fb"/>
        <rect id="Rectángulo_6866" data-name="Rectángulo 6866" width="75.88" height="65.36" rx="17" transform="translate(132.34 263.3)" fill="#fff" opacity="0.57"/>
        <g id="Grupo_56613" data-name="Grupo 56613">
          <path id="Trazado_116942" data-name="Trazado 116942" d="M284.07,269.06a3.14,3.14,0,0,1-3.1-3.71l9.5-52.64a3.17,3.17,0,0,1,1.31-2,3.13,3.13,0,0,1,2.37-.5,57.26,57.26,0,0,1,46,47.58,3.13,3.13,0,0,1-.58,2.35,3.17,3.17,0,0,1-2.08,1.24l-53,7.68a3.4,3.4,0,0,1-.42,0Z" fill="#bdd0fb"/>
          <path id="Trazado_116943" data-name="Trazado 116943" d="M270.12,327.55a46.79,46.79,0,1,1,8.69-92.76,3.15,3.15,0,0,1,2.52,3.65l-6.88,38.12L312.81,271a3.16,3.16,0,0,1,3.56,2.65,46.81,46.81,0,0,1-46.25,53.9Z" fill="#bdd0fb"/>
        </g>
      </g>
      <g id="Grupo_56618" data-name="Grupo 56618">
        <g id="Grupo_56615" data-name="Grupo 56615">
          <path id="Trazado_116944" data-name="Trazado 116944" d="M76.72,209.78c-.81,29.19-3.47,129.88-2.2,165.56.13,3.78,3.56,6.82,7.83,6.94,21.11.61,98.53,2.16,133.07.88,7.2-.27,12.92-5.43,13.07-11.8.71-30.64,2.3-116.82-1.47-156.3-.45-4.73-4.64-8.49-10-9-23-2-100.74-7-130.58-5.3C81.07,201.1,76.86,205,76.72,209.78Z" fill="url(#linear-gradient-16)"/>
          <rect id="Rectángulo_6867" data-name="Rectángulo 6867" width="135.37" height="41.92" rx="8.59" transform="translate(82.79 214.06)" fill="#7d97f4"/>
          <path id="Trazado_116945" data-name="Trazado 116945" d="M212.13,222.51a5.67,5.67,0,0,0-4-1.73L97.56,219a5.67,5.67,0,0,0-5.73,5.14l-2.3,24.53c-.19,2,3.12,3.7,7.33,3.76l108.73,1.31c4.21.05,7.69-1.55,7.72-3.56l.41-23.66a5.62,5.62,0,0,0-1.59-4.01Z" fill="#fff" opacity="0.2"/>
        </g>
        <path id="Trazado_116946" data-name="Trazado 116946" d="M112.34,281.06a7.91,7.91,0,0,1-7.91,7.9H94.81a7.9,7.9,0,0,1-7.9-7.9h0a7.9,7.9,0,0,1,7.9-7.9h9.62a7.9,7.9,0,0,1,7.91,7.9Z" fill="url(#linear-gradient-17)"/>
        <path id="Trazado_116947" data-name="Trazado 116947" d="M148.07,281.06a7.9,7.9,0,0,1-7.9,7.9h-9.62a7.91,7.91,0,0,1-7.91-7.9h0a7.9,7.9,0,0,1,7.91-7.9h9.62a7.9,7.9,0,0,1,7.9,7.9Z" fill="url(#linear-gradient-18)"/>
        <path id="Trazado_116948" data-name="Trazado 116948" d="M182.43,281.06a7.9,7.9,0,0,1-7.9,7.9h-9.62a7.91,7.91,0,0,1-7.91-7.9h0a7.9,7.9,0,0,1,7.91-7.9h9.62a7.9,7.9,0,0,1,7.9,7.9Z" fill="url(#linear-gradient-19)"/>
        <path id="Trazado_116949" data-name="Trazado 116949" d="M217.26,282.22a8,8,0,0,1-8,8h-9.3a8,8,0,0,1-8-8h0a8,8,0,0,1,8-8h9.3A8,8,0,0,1,217.26,282.22Z" fill="url(#linear-gradient-20)"/>
        <path id="Trazado_116950" data-name="Trazado 116950" d="M112.34,305.8a7.91,7.91,0,0,1-7.91,7.9H94.81a7.9,7.9,0,0,1-7.9-7.9h0a7.91,7.91,0,0,1,7.9-7.91h9.62A7.91,7.91,0,0,1,112.34,305.8Z" fill="url(#linear-gradient-21)"/>
        <path id="Trazado_116951" data-name="Trazado 116951" d="M148.07,305.8a7.9,7.9,0,0,1-7.9,7.9h-9.62a7.91,7.91,0,0,1-7.91-7.9h0a7.91,7.91,0,0,1,7.91-7.91h9.62a7.91,7.91,0,0,1,7.9,7.91Z" fill="url(#linear-gradient-22)"/>
        <path id="Trazado_116952" data-name="Trazado 116952" d="M182.43,305.8a7.9,7.9,0,0,1-7.9,7.9h-9.62a7.91,7.91,0,0,1-7.91-7.9h0a7.91,7.91,0,0,1,7.91-7.91h9.62A7.91,7.91,0,0,1,182.43,305.8Z" fill="url(#linear-gradient-23)"/>
        <path id="Trazado_116953" data-name="Trazado 116953" d="M218.16,305.8a7.9,7.9,0,0,1-7.9,7.9h-9.62a7.9,7.9,0,0,1-7.9-7.9h0a7.9,7.9,0,0,1,7.9-7.91h9.62a7.91,7.91,0,0,1,7.9,7.91Z" fill="url(#linear-gradient-24)"/>
        <g id="Grupo_56616" data-name="Grupo 56616">
          <path id="Trazado_116954" data-name="Trazado 116954" d="M112.34,327.71a7.91,7.91,0,0,1-7.91,7.9H94.81a7.9,7.9,0,0,1-7.9-7.9h0a7.91,7.91,0,0,1,7.9-7.91h9.62A7.91,7.91,0,0,1,112.34,327.71Z" opacity="0.63" fill="url(#linear-gradient-25)"/>
          <path id="Trazado_116955" data-name="Trazado 116955" d="M148.07,327.71a7.9,7.9,0,0,1-7.9,7.9h-9.62a7.91,7.91,0,0,1-7.91-7.9h0a7.91,7.91,0,0,1,7.91-7.91h9.62a7.91,7.91,0,0,1,7.9,7.91Z" opacity="0.63" fill="url(#linear-gradient-26)"/>
          <path id="Trazado_116956" data-name="Trazado 116956" d="M182.43,327.71a7.9,7.9,0,0,1-7.9,7.9h-9.62a7.91,7.91,0,0,1-7.91-7.9h0a7.91,7.91,0,0,1,7.91-7.91h9.62A7.91,7.91,0,0,1,182.43,327.71Z" opacity="0.63" fill="url(#linear-gradient-27)"/>
        </g>
        <g id="Grupo_56617" data-name="Grupo 56617">
          <path id="Trazado_116957" data-name="Trazado 116957" d="M112.34,351.76a7.91,7.91,0,0,1-7.91,7.9H94.81a7.9,7.9,0,0,1-7.9-7.9h0a7.91,7.91,0,0,1,7.9-7.91h9.62a7.91,7.91,0,0,1,7.91,7.91Z" opacity="0.63" fill="url(#linear-gradient-28)"/>
          <path id="Trazado_116958" data-name="Trazado 116958" d="M148.07,351.76a7.9,7.9,0,0,1-7.9,7.9h-9.62a7.91,7.91,0,0,1-7.91-7.9h0a7.91,7.91,0,0,1,7.91-7.91h9.62a7.91,7.91,0,0,1,7.9,7.91Z" opacity="0.63" fill="url(#linear-gradient-29)"/>
          <path id="Trazado_116959" data-name="Trazado 116959" d="M182.43,351.76a7.9,7.9,0,0,1-7.9,7.9h-9.62a7.91,7.91,0,0,1-7.91-7.9h0a7.91,7.91,0,0,1,7.91-7.91h9.62a7.91,7.91,0,0,1,7.9,7.91Z" opacity="0.63" fill="url(#linear-gradient-30)"/>
        </g>
        <rect id="Rectángulo_6868" data-name="Rectángulo 6868" width="20.62" height="39.17" rx="10" transform="translate(194.11 321.95)" fill="#7d97f4"/>
      </g>
      <g id="Grupo_56627" data-name="Grupo 56627">
        <g id="Grupo_56624" data-name="Grupo 56624">
          <g id="Grupo_56619" data-name="Grupo 56619">
            <path id="Trazado_116960" data-name="Trazado 116960" d="M304.52,279.93c3.27.28,8.94.74,13.41.94a12.81,12.81,0,0,0,5.12-.5,2.535,2.535,0,0,1,0,.28.93.93,0,0,1-.87.88,155.67,155.67,0,0,1-17.56,0,.65.65,0,0,1-.53-1A5.908,5.908,0,0,1,304.52,279.93Z" fill="url(#linear-gradient-31)"/>
            <path id="Trazado_116961" data-name="Trazado 116961" d="M317.93,280.87c-4.47-.2-10.14-.66-13.41-.94,3.21-3.94,13.41-6.59,13.41-6.59h2.88a12.06,12.06,0,0,1,2.24,7A12.81,12.81,0,0,1,317.93,280.87Z" fill="url(#linear-gradient-32)"/>
            <path id="Trazado_116962" data-name="Trazado 116962" d="M321.29,268.64,321,274a1.21,1.21,0,0,1-1,1.14,4.52,4.52,0,0,1-2.16-.18,1.43,1.43,0,0,1-1-1.1l-.93-5.19Z" fill="url(#linear-gradient-33)"/>
          </g>
          <g id="Grupo_56621" data-name="Grupo 56621">
            <g id="Grupo_56620" data-name="Grupo 56620">
              <path id="Trazado_116963" data-name="Trazado 116963" d="M358.69,280.83a2.58,2.58,0,0,0,2.32-1.72h0a1.85,1.85,0,0,1-1.24,2.1,8.219,8.219,0,0,1-3.44.54,3.43,3.43,0,0,1-2.57-1.19h0C354.83,281.1,356.32,281.16,358.69,280.83Z" fill="url(#linear-gradient-34)"/>
              <path id="Trazado_116964" data-name="Trazado 116964" d="M352,268.6h2.37c3.62-.07,5.89,7.56,6.63,10.51a2.58,2.58,0,0,1-2.32,1.72c-2.37.33-3.86.27-4.93-.26-2-2.57-2.92-6.34-3.39-8.53A3,3,0,0,1,352,268.6Z" fill="url(#linear-gradient-35)"/>
            </g>
            <path id="Trazado_116965" data-name="Trazado 116965" d="M354.08,263.65l1.31,5.25a1.4,1.4,0,0,1-.74,1.61,5,5,0,0,1-2.73.66,1.18,1.18,0,0,1-1-.79L349,264.86Z" fill="url(#linear-gradient-36)"/>
          </g>
          <path id="Trazado_116966" data-name="Trazado 116966" d="M355.65,265.17c-1.64,1.45-7,1.65-7,1.65-19.22-46.13-27.08-52.68-27.08-52.68,2.78,17.41.45,55.95.45,55.95-3.17,1.4-7.26,0-7.26,0A297.41,297.41,0,0,0,305,197.14c13-.3,19.89-4.74,22.15-6.52C338,208.07,355.65,265.17,355.65,265.17Z" fill="url(#linear-gradient-37)"/>
          <path id="Trazado_116967" data-name="Trazado 116967" d="M323.82,137.57c2.46,12.26,1.58,34.21,1,44.22-.16,2.82,1.8,6.72,3.39,9.38a.84.84,0,0,1-.34,1.18,57.91,57.91,0,0,1-22.1,6.12,1.48,1.48,0,0,1-1.5-1.11C296.53,168.45,287.54,150,287.54,150,297.47,134.13,323.82,137.57,323.82,137.57Z" fill="url(#linear-gradient-38)"/>
          <path id="Trazado_116968" data-name="Trazado 116968" d="M320.28,213.05a.62.62,0,0,0,.32-.09.63.63,0,0,0,.21-.85,19.32,19.32,0,0,0-7.62-6.61.613.613,0,0,0-.54,1.1,18.56,18.56,0,0,1,7.11,6.15.6.6,0,0,0,.52.3Z" fill="url(#linear-gradient-39)"/>
          <g id="Grupo_56622" data-name="Grupo 56622">
            <path id="Trazado_116969" data-name="Trazado 116969" d="M339.24,172.77c-.79,5.71-3.12,11.94-7.79,18.56l-1.77-1.45a55,55,0,0,0,.88-17.74,21.21,21.21,0,0,1,8.68.63Z" fill="url(#linear-gradient-40)"/>
            <path id="Trazado_116970" data-name="Trazado 116970" d="M321.07,152.7l2.75-15.13s18.35,14,15.42,35.2a21.21,21.21,0,0,0-8.68-.63C329.72,165.35,327.22,158,321.07,152.7Z" fill="url(#linear-gradient-41)"/>
          </g>
          <g id="Grupo_56623" data-name="Grupo 56623">
            <path id="Trazado_116971" data-name="Trazado 116971" d="M287.54,150l7.08,15.25c-1.14,9.21-6.09,13.19-11.43,14.72a32.37,32.37,0,0,0-2.37-9.93C287.63,163,287.54,150,287.54,150Z" fill="url(#linear-gradient-42)"/>
            <path id="Trazado_116972" data-name="Trazado 116972" d="M280.82,170a32.37,32.37,0,0,1,2.37,9.93c-14.23,5.52-18-5.19-18-5.19l2.63-.46C273.77,174.92,277.92,173,280.82,170Z" fill="url(#linear-gradient-43)"/>
          </g>
          <path id="Trazado_116973" data-name="Trazado 116973" d="M294.06,131.15l3.42,12.57a2.45,2.45,0,0,0,3.27,1.63,48.921,48.921,0,0,0,4.93-2.26,3.29,3.29,0,0,0,1.16-4.73l-7.11-10.6Z" fill="url(#linear-gradient-44)"/>
        </g>
        <path id="Trazado_116974" data-name="Trazado 116974" d="M258.68,166.35l87.61,31.89a6.71,6.71,0,0,1,3.81,9.08l-.27.58a6.23,6.23,0,0,1-8.29,3.08l-85.07-39.35Z" fill="url(#linear-gradient-45)"/>
        <g id="Grupo_56625" data-name="Grupo 56625" opacity="0.15">
          <ellipse id="Elipse_4553" data-name="Elipse 4553" cx="43.25" cy="42.47" rx="43.25" ry="42.47" transform="translate(175.16 104.7)" fill="#7d97f4"/>
        </g>
        <path id="Trazado_116975" data-name="Trazado 116975" d="M170.28,147.17c0,26.1,21.55,47.26,48.13,47.26s48.12-21.16,48.12-47.26S245,99.92,218.41,99.92,170.28,121.07,170.28,147.17Zm7.07,0c0-22.26,18.38-40.31,41.06-40.31s41,18,41,40.31-18.38,40.32-41,40.32S177.35,169.44,177.35,147.17Z" fill="url(#linear-gradient-46)"/>
        <path id="Trazado_116976" data-name="Trazado 116976" d="M262.87,152.92h0a.22.22,0,0,1-.19-.25c.14-1.1.24-2.23.3-3.34a.22.22,0,1,1,.44.02c-.05,1.12-.15,2.26-.3,3.38a.22.22,0,0,1-.25.19Zm-.33-13.21a.21.21,0,0,1-.21-.18,43.333,43.333,0,0,0-2.57-8.78h0a44.42,44.42,0,0,0-41.35-27.36,45,45,0,0,0-23.95,6.84.225.225,0,1,1-.24-.38,45.53,45.53,0,0,1,24.19-6.91,44.87,44.87,0,0,1,41.76,27.64h0a42.939,42.939,0,0,1,2.59,8.87.23.23,0,0,1-.18.26Z" fill="#bdd0fb"/>
        <g id="Grupo_56626" data-name="Grupo 56626">
          <path id="Trazado_116977" data-name="Trazado 116977" d="M286.58,121.6c0,.22,2.85,14.34,2.85,14.34l8-1.81-.75-13.8S287.1,118,286.58,121.6Z" fill="url(#linear-gradient-47)"/>
          <path id="Trazado_116978" data-name="Trazado 116978" d="M294.92,123.4l1,7.24a1.219,1.219,0,0,1,0,.27c-.09.57-.51,2.5-2.46,2-1.76-.5-3.38-.93-4.5-.59a1,1,0,0,0-.7,1.18,43.91,43.91,0,0,0,1.84,6.58,1,1,0,0,0,1.24.6,32.539,32.539,0,0,0,7.08-2.9,1,1,0,0,0,.49-.91c-.07-1.83-.29-7.38-.11-8.93s2-2.34,2.74-2.65a1,1,0,0,0,.56-.56,2.64,2.64,0,0,0-1.78-3.85,1,1,0,0,1-.64-1.32,2.65,2.65,0,0,0-1.49-3.66,3.73,3.73,0,0,0-4.45,1.07,1,1,0,0,1-1.3.16.81.81,0,0,0-.92,0,1,1,0,0,1-1.42-.43,3,3,0,0,0-3.53-1.77c-3.6.62-4,4.61-3.06,7s4.81,1.44,6.75.26c1.47-.89,3.39,0,4.22.55A1,1,0,0,1,294.92,123.4Z" fill="url(#linear-gradient-48)"/>
          <path id="Trazado_116979" data-name="Trazado 116979" d="M299.09,130.52s-1.48-4.14,0-5.16,3.77-.48,3.27,2.52C301.79,131.61,299.09,130.52,299.09,130.52Z" fill="url(#linear-gradient-49)"/>
        </g>
        <path id="Trazado_116980" data-name="Trazado 116980" d="M330.41,189.63l-8.28-.67-3.59,3.3s.85,1.18,3.5.5a38.5,38.5,0,0,1,6.29-.84s3.66,1.65,3.7-1.44Z" fill="url(#linear-gradient-50)"/>
        <path id="Trazado_116981" data-name="Trazado 116981" d="M266.25,176.72c-.71.56-3.17-.61-4.67-1.41a1.74,1.74,0,0,1-.83-2.05c.36-1.14,1-2.61,1.7-2.79C263.68,170.16,269.21,174.42,266.25,176.72Z" fill="url(#linear-gradient-51)"/>
        <path id="Trazado_116982" data-name="Trazado 116982" d="M344.56,209.65a.22.22,0,0,1-.21-.14.23.23,0,0,1,.14-.29c2.51-.87,3.83-2.28,3.91-4.2a4.66,4.66,0,0,0-3-4.49l-10.52-4.1a.22.22,0,0,1-.12-.29A.21.21,0,0,1,335,196l10.52,4.1a5.11,5.11,0,0,1,3.34,4.92c-.1,2.12-1.51,3.67-4.22,4.6Z" fill="#bdd0fb"/>
        <path id="Trazado_116983" data-name="Trazado 116983" d="M331.67,195.18h-.08l-1.36-.54a.21.21,0,0,1-.13-.28.23.23,0,0,1,.29-.13l1.36.53a.216.216,0,0,1-.08.42Z" fill="#bdd0fb"/>
      </g>
      <g id="Grupo_56632" data-name="Grupo 56632">
        <path id="Trazado_116984" data-name="Trazado 116984" d="M65.7,376.41s-.63,3.57-.94,7.11a2.44,2.44,0,0,0,2.33,2.64c4.71.19,14.79.58,18.4.41a.79.79,0,0,0,.7-1.08h0a1.75,1.75,0,0,0-.91-1l-16.64-7.65Z" fill="url(#linear-gradient-52)"/>
        <path id="Trazado_116985" data-name="Trazado 116985" d="M65.18,374.31l.51,4.27s2.92,1.36,4.91-.17l-1.21-4.76Z" fill="url(#linear-gradient-53)"/>
        <path id="Trazado_116986" data-name="Trazado 116986" d="M65.57,294c-.22,1.11-1.18,55.69,4.65,80.15a.83.83,0,0,1-.48,1A14.65,14.65,0,0,1,65,376a1.42,1.42,0,0,1-1.42-1c-1.67-5.68-9.66-34.11-10.7-61.27-1.17-30.35,0-1,0-1L53.55,294Z" fill="url(#linear-gradient-54)"/>
        <path id="Trazado_116987" data-name="Trazado 116987" d="M46.56,378.27a25.6,25.6,0,0,0-2,6.6,1.49,1.49,0,0,0,1.31,1.78c1.55.15,4,.35,5.87.34a1.48,1.48,0,0,0,1.46-1.66,12.46,12.46,0,0,0-2.92-6.86Z" fill="url(#linear-gradient-55)"/>
        <path id="Trazado_116988" data-name="Trazado 116988" d="M45.68,372.77l1.18,6.47a4.19,4.19,0,0,0,3.49.24l-.57-7Z" fill="url(#linear-gradient-56)"/>
        <path id="Trazado_116989" data-name="Trazado 116989" d="M42.47,295.63c-4.77,28.8,1,71.18,3,79.47a1.28,1.28,0,0,0,1,1,8.47,8.47,0,0,0,3.73-.15,1.19,1.19,0,0,0,.86-1.09c.26-6.7-.21-47.87,4.23-64.14a3.75,3.75,0,0,1,1.43-2l8.63-6.13.66-9.92Z" fill="url(#linear-gradient-57)"/>
        <g id="Grupo_56628" data-name="Grupo 56628">
          <path id="Trazado_116990" data-name="Trazado 116990" d="M72.88,241.07c-14.3-.24-30.08,3.75-30.08,3.75-4.26,24.87-.74,53.56-.74,53.56,11.07,2.9,23.55-1.77,23.55-1.77C67.45,286.21,76,257,76,257a47.22,47.22,0,0,0,17.48-5.55,30.75,30.75,0,0,1-6.06-12.68,48.07,48.07,0,0,1-14.54,2.3Z" fill="url(#linear-gradient-58)"/>
          <path id="Trazado_116991" data-name="Trazado 116991" d="M115.12,220a2.75,2.75,0,0,0-3.19-.9c-2.1,8.89-13.13,16.1-24.47,19.62a30.75,30.75,0,0,0,6.06,12.68C112.33,240.83,115.12,220,115.12,220Z" fill="url(#linear-gradient-59)"/>
        </g>
        <g id="Grupo_56629" data-name="Grupo 56629">
          <path id="Trazado_116992" data-name="Trazado 116992" d="M114.78,220.44c.14.47-1.56,1.18-2.56-.73,0-.92-.59-4.84,0-5.59a73.5,73.5,0,0,1,8.57-9,1.34,1.34,0,0,1,.17,1.86l-2.74,2.86a13.589,13.589,0,0,1,1.6,3.16,3.84,3.84,0,0,1-.39,2.83,33.091,33.091,0,0,1-1.75,2.88,3.79,3.79,0,0,1-2.9,1.73Z" fill="url(#linear-gradient-60)"/>
          <path id="Trazado_116993" data-name="Trazado 116993" d="M117,211.74l-2.5,2.12-.79,2.11,2.23,2.47s.75-4.18,1.31-5.09S117.49,212,117,211.74Z" fill="url(#linear-gradient-61)"/>
        </g>
        <path id="Trazado_116994" data-name="Trazado 116994" d="M48.29,258.67,42.8,244.82s-13.35,9.08-15.55,20.59a31.509,31.509,0,0,1,11.61,3.11C39.85,263.08,48.29,258.67,48.29,258.67Z" fill="url(#linear-gradient-62)"/>
        <path id="Trazado_116995" data-name="Trazado 116995" d="M60,271.7s-15,8.47-20.06,1.24a5.69,5.69,0,0,1-1-4.42,31.51,31.51,0,0,0-11.61-3.11A15.93,15.93,0,0,0,29,276.29c8.87,16.22,33-.89,33-.89Z" fill="url(#linear-gradient-63)"/>
        <g id="Grupo_56630" data-name="Grupo 56630">
          <path id="Trazado_116996" data-name="Trazado 116996" d="M58.16,282.42l8.18-28.58a.84.84,0,0,1,.71-.6c1.48-.17,5.78-.66,10.74-1.08a141.815,141.815,0,0,1,15.73-.65A1.68,1.68,0,0,1,95,253.94c-3.06,6.16-11.81,23.46-16.34,29.39a.82.82,0,0,1-.68.33l-19-.17a.84.84,0,0,1-.82-1.07Z" fill="url(#linear-gradient-64)"/>
          <path id="Trazado_116997" data-name="Trazado 116997" d="M78.64,249.68l5.93-1a.43.43,0,0,1,.47.56L84.46,251a.47.47,0,0,1-.35.29l-5.71.76a.42.42,0,0,1-.47-.52l.36-1.55A.44.44,0,0,1,78.64,249.68Z" fill="url(#linear-gradient-65)"/>
          <path id="Trazado_116998" data-name="Trazado 116998" d="M74.19,254.71l.49-2.55a.57.57,0,0,1,.52-.47l12-1.22a.59.59,0,0,1,.64.72l-.77,3.18a.6.6,0,0,1-.54.45l-11.71.59a.6.6,0,0,1-.63-.7Z" fill="url(#linear-gradient-66)"/>
          <path id="Trazado_116999" data-name="Trazado 116999" d="M60.13,275.52s-1.14-4.69-.68-6.36,1.35-3.8,4.32-3.32a43.318,43.318,0,0,1,6.48,1.72A1.71,1.71,0,0,1,67.81,269l1.4,1.08s-.2,1.74-2.1.81l1.3,1.44a1.52,1.52,0,0,1-2.22.51C64.78,272,64.11,276.08,60.13,275.52Z" fill="url(#linear-gradient-67)"/>
        </g>
        <path id="Trazado_117000" data-name="Trazado 117000" d="M58.39,229.46l-4.55,13.16a.48.48,0,0,0,.22.57c1.24.69,5.71,2.67,11.09-.75a2.17,2.17,0,0,0,1-1.59l1.48-11.39Z" fill="url(#linear-gradient-68)"/>
        <g id="Grupo_56631" data-name="Grupo 56631">
          <path id="Trazado_117001" data-name="Trazado 117001" d="M68.29,217.28s5,9.4,4.36,13.2-6.83,3.53-12.24.44l-3.78-10.15Z" fill="url(#linear-gradient-69)"/>
          <path id="Trazado_117002" data-name="Trazado 117002" d="M60.65,225.93a.38.38,0,0,0,.17-.56,10.27,10.27,0,0,1-1.39-3s-.9-.58,2.28-1.34,7.94-2,8.94-4.66-1.59-9.29-5.67-4a.38.38,0,0,1-.61,0c-.67-.87-2.43-2.67-4.87-1.58a3.68,3.68,0,0,0-2.5,3.6.39.39,0,0,1-.46.4,4.48,4.48,0,0,0-5.22,2.43c-1.06,2.34-.37,3.67.26,4.32a.38.38,0,0,1-.16.64,2.32,2.32,0,0,0-1.64,2.65c.13,2.46,2.88,2.25,3.66,2.13a.41.41,0,0,1,.35.12c.67.75,3.69,3.9,7,4.28a.39.39,0,0,0,.41-.52l-1.41-4.11a.39.39,0,0,1,.21-.49Z" fill="url(#linear-gradient-70)"/>
          <path id="Trazado_117003" data-name="Trazado 117003" d="M61.22,226.52s-3.56-2.44-3.82-.39,3.21,3,4.92,2.21Z" fill="url(#linear-gradient-71)"/>
        </g>
      </g>
      <g id="Grupo_56633" data-name="Grupo 56633">
        <path id="Trazado_117004" data-name="Trazado 117004" d="M295.59,382.88c.63,0,1.15-.37,1.15-.82V283.57c0-.46-.52-.83-1.15-.83s-1.14.37-1.14.83v98.49C294.45,382.51,295,382.88,295.59,382.88Z" fill="url(#linear-gradient-72)"/>
        <path id="Trazado_117005" data-name="Trazado 117005" d="M316.46,382.88c.63,0,1.14-.37,1.14-.83v-99.2c0-.46-.51-.83-1.14-.83s-1.15.37-1.15.83v99.2C315.31,382.51,315.83,382.88,316.46,382.88Z" fill="url(#linear-gradient-73)"/>
        <path id="Trazado_117006" data-name="Trazado 117006" d="M392.54,383.65a1.19,1.19,0,0,0,.45-.08,1,1,0,0,0,.6-1.34L346,282.2s-2.73-.52-2.48,0l48,100.83a1.15,1.15,0,0,0,1.02.62Z" fill="url(#linear-gradient-74)"/>
        <path id="Trazado_117007" data-name="Trazado 117007" d="M356.44,383.65a1.16,1.16,0,0,0,.45-.08,1,1,0,0,0,.61-1.34l-47.36-99.55c-.25-.52-2.78-.62-2.53-.1L355.39,383a1.16,1.16,0,0,0,1.05.65Z" fill="url(#linear-gradient-75)"/>
        <rect id="Rectángulo_6869" data-name="Rectángulo 6869" width="70.11" height="2.88" rx="1.44" transform="translate(362.98 284.6) rotate(180)" fill="url(#linear-gradient-76)"/>
        <rect id="Rectángulo_6870" data-name="Rectángulo 6870" width="36.2" height="2.04" transform="translate(317.94 300.78)" fill="url(#linear-gradient-77)"/>
        <rect id="Rectángulo_6871" data-name="Rectángulo 6871" width="36.2" height="2.04" transform="translate(328.7 324.01)" fill="url(#linear-gradient-78)"/>
        <path id="Trazado_117008" data-name="Trazado 117008" d="M340,349.29h36.2a1,1,0,1,0,0-2H340a1,1,0,0,0,0,2Z" fill="url(#linear-gradient-79)"/>
        <path id="Trazado_117009" data-name="Trazado 117009" d="M350.88,372.52h36.2a1,1,0,0,0,0-2h-36.2a1,1,0,0,0,0,2Z" fill="url(#linear-gradient-80)"/>
      </g>
      <g id="Grupo_56634" data-name="Grupo 56634">
        <path id="Trazado_117010" data-name="Trazado 117010" d="M285.93,47.59l13.24-11A7.11,7.11,0,0,1,303.71,35h64.1a7.11,7.11,0,0,1,7.11,7.11v22a7.11,7.11,0,0,1-7.11,7.11h-64.1a7.11,7.11,0,0,1-4.54-1.64l-13.24-11a7.12,7.12,0,0,1,0-10.99Z" fill="url(#linear-gradient-81)"/>
        <rect id="Rectángulo_6872" data-name="Rectángulo 6872" width="22.31" height="22.31" rx="5.44" transform="translate(342.92 41.19)" fill="#fff"/>
        <path id="Trazado_117011" data-name="Trazado 117011" d="M347.86,49.5l5.98,10.89,6.46-16.08-7.05,8.47Z" fill="url(#linear-gradient-82)"/>
      </g>
      <g id="Grupo_56639" data-name="Grupo 56639">
        <g id="Grupo_56635" data-name="Grupo 56635">
          <circle id="Elipse_4554" data-name="Elipse 4554" cx="14.91" cy="14.91" r="14.91" transform="matrix(0.585, -0.811, 0.811, 0.585, 70.797, 181.46)" fill="url(#linear-gradient-83)"/>
          <circle id="Elipse_4555" data-name="Elipse 4555" cx="14.42" cy="14.42" r="14.42" transform="translate(72.965 169.818) rotate(-21.14)" fill="url(#linear-gradient-84)"/>
          <path id="Trazado_117012" data-name="Trazado 117012" d="M80,172a.43.43,0,0,1-.22-.06.49.49,0,0,1-.18-.66,13.84,13.84,0,0,1,15.17-6.59.483.483,0,1,1-.22.94,12.83,12.83,0,0,0-14.11,6.13A.48.48,0,0,1,80,172Z" fill="#fff" opacity="0.78"/>
          <circle id="Elipse_4556" data-name="Elipse 4556" cx="12.2" cy="12.2" r="12.2" transform="translate(74.645 178.223) rotate(-44.38)" fill="#fff" opacity="0.78"/>
          <path id="Trazado_117013" data-name="Trazado 117013" d="M90.24,187.4l.07-1.33a10.809,10.809,0,0,1-3.68-1,.76.76,0,0,1-.37-.93l.4-1.22a.77.77,0,0,1,1.07-.45,9.14,9.14,0,0,0,3.4.9c1.33.07,2.35-.33,2.39-1.26s-.69-1.37-2.52-2c-2.6-.86-4.44-2.11-4.32-4.43.11-2.1,1.72-3.62,4.41-3.91l.07-1.33a.76.76,0,0,1,.81-.73h.78a.77.77,0,0,1,.73.81l-.06,1.19a9.811,9.811,0,0,1,2.92.68.76.76,0,0,1,.43,1l-.36,1.13a.79.79,0,0,1-1,.47,8.14,8.14,0,0,0-2.86-.68c-1.58-.08-2.07.55-2.1,1.14s.89,1.27,2.91,2c2.89,1,4,2.31,3.93,4.5-.1,2-1.68,3.73-4.6,4l-.07,1.48a.77.77,0,0,1-.81.73h-.78a.77.77,0,0,1-.79-.76Z" fill="url(#linear-gradient-85)"/>
        </g>
        <g id="Grupo_56636" data-name="Grupo 56636">
          <circle id="Elipse_4557" data-name="Elipse 4557" cx="24.34" cy="24.34" r="24.34" transform="translate(80.143 149.606) rotate(-89.41)" fill="url(#linear-gradient-86)"/>
          <circle id="Elipse_4558" data-name="Elipse 4558" cx="23.53" cy="23.53" r="23.53" transform="matrix(0.173, -0.985, 0.985, 0.173, 77.496, 144.621)" fill="url(#linear-gradient-87)"/>
          <path id="Trazado_117014" data-name="Trazado 117014" d="M85.83,115.2a.39.39,0,0,1-.2-.06.46.46,0,0,1-.17-.62,22.1,22.1,0,0,1,20.41-11.16,23.121,23.121,0,0,1,4,.56.452.452,0,0,1-.21.88,22.251,22.251,0,0,0-3.82-.54A21.19,21.19,0,0,0,86.25,115,.46.46,0,0,1,85.83,115.2Z" fill="#fff" opacity="0.78"/>
          <circle id="Elipse_4559" data-name="Elipse 4559" cx="19.92" cy="19.92" r="19.92" transform="translate(78.277 117.814) rotate(-27.99)" fill="#fff" opacity="0.78"/>
          <path id="Trazado_117015" data-name="Trazado 117015" d="M102.51,140.73l.11-2.17a17.7,17.7,0,0,1-6-1.62,1.27,1.27,0,0,1-.61-1.52l.65-2a1.26,1.26,0,0,1,1.76-.73,14.66,14.66,0,0,0,5.54,1.47c2.17.11,3.83-.55,3.91-2.06s-1.14-2.23-4.12-3.2c-4.25-1.4-7.24-3.44-7-7.23.18-3.42,2.82-5.91,7.2-6.39l.11-2.16a1.26,1.26,0,0,1,1.32-1.2l1.27.07a1.26,1.26,0,0,1,1.2,1.32l-.1,2a16,16,0,0,1,4.77,1.11,1.25,1.25,0,0,1,.71,1.55l-.61,1.84a1.26,1.26,0,0,1-1.7.77,13,13,0,0,0-4.68-1.1c-2.57-.14-3.36.89-3.41,1.85-.06,1.18,1.44,2.07,4.74,3.27,4.71,1.69,6.6,3.78,6.42,7.35-.17,3.28-2.75,6.1-7.51,6.59l-.12,2.42a1.27,1.27,0,0,1-1.33,1.2l-1.27-.07a1.25,1.25,0,0,1-1.25-1.36Z" fill="url(#linear-gradient-88)"/>
        </g>
        <g id="Grupo_56637" data-name="Grupo 56637">
          <circle id="Elipse_4560" data-name="Elipse 4560" cx="24.919" cy="24.919" r="24.919" transform="translate(102.221 179.62) rotate(-59.826)" fill="url(#linear-gradient-89)"/>
          <circle id="Elipse_4561" data-name="Elipse 4561" cx="24.21" cy="24.21" r="24.21" transform="matrix(0.435, -0.9, 0.9, 0.435, 105.137, 182.037)" fill="url(#linear-gradient-90)"/>
          <path id="Trazado_117016" data-name="Trazado 117016" d="M118,160.18a.66.66,0,0,1-.2-.06.46.46,0,0,1-.17-.62,22.71,22.71,0,0,1,21-11.48,23.429,23.429,0,0,1,4.09.58.452.452,0,1,1-.21.88,22.419,22.419,0,0,0-3.93-.56,21.81,21.81,0,0,0-20.15,11,.48.48,0,0,1-.43.26Z" fill="#fff" opacity="0.78"/>
          <circle id="Elipse_4562" data-name="Elipse 4562" cx="20.49" cy="20.49" r="20.49" transform="translate(112.398 184.961) rotate(-73)" fill="#fff" opacity="0.78"/>
          <path id="Trazado_117017" data-name="Trazado 117017" d="M135.19,186.46l.11-2.23a18.4,18.4,0,0,1-6.18-1.67,1.3,1.3,0,0,1-.63-1.56l.67-2.05a1.31,1.31,0,0,1,1.81-.76,14.9,14.9,0,0,0,5.7,1.51c2.24.12,4-.55,4-2.11.07-1.4-1.18-2.3-4.24-3.29-4.37-1.44-7.46-3.54-7.26-7.44.18-3.52,2.9-6.08,7.41-6.57l.11-2.23a1.3,1.3,0,0,1,1.37-1.23l1.3.07a1.3,1.3,0,0,1,1.24,1.36l-.11,2a16.691,16.691,0,0,1,4.91,1.14,1.3,1.3,0,0,1,.73,1.6l-.62,1.89a1.3,1.3,0,0,1-1.76.79,13.58,13.58,0,0,0-4.81-1.13c-2.65-.14-3.46.92-3.51,1.91-.07,1.21,1.48,2.13,4.88,3.36,4.85,1.74,6.79,3.89,6.6,7.56-.18,3.37-2.83,6.28-7.72,6.79l-.13,2.49a1.3,1.3,0,0,1-1.36,1.23l-1.31-.07a1.29,1.29,0,0,1-1.2-1.36Z" fill="url(#linear-gradient-91)"/>
        </g>
        <g id="Grupo_56638" data-name="Grupo 56638">
          <circle id="Elipse_4563" data-name="Elipse 4563" cx="20.03" cy="20.03" r="20.03" transform="translate(135.879 136.19) rotate(-80.91)" fill="url(#linear-gradient-92)"/>
          <circle id="Elipse_4564" data-name="Elipse 4564" cx="19.36" cy="19.36" r="19.36" transform="translate(135.791 134.378) rotate(-77.75)" fill="url(#linear-gradient-93)"/>
          <path id="Trazado_117018" data-name="Trazado 117018" d="M143.27,111.21a.43.43,0,0,1-.22-.06.48.48,0,0,1-.18-.67,18.27,18.27,0,0,1,16.9-9.25,17.28,17.28,0,0,1,3.29.47.492.492,0,1,1-.22.96,18.19,18.19,0,0,0-3.12-.45,17.34,17.34,0,0,0-16,8.76A.49.49,0,0,1,143.27,111.21Z" fill="#fff" opacity="0.78"/>
          <circle id="Elipse_4565" data-name="Elipse 4565" cx="16.39" cy="16.39" r="16.39" transform="translate(139.12 108.498) rotate(-15.16)" fill="#fff" opacity="0.78"/>
          <path id="Trazado_117019" data-name="Trazado 117019" d="M157,132.1l.09-1.78a14.48,14.48,0,0,1-4.94-1.34,1,1,0,0,1-.51-1.24l.54-1.64a1,1,0,0,1,1.44-.61,12.1,12.1,0,0,0,4.57,1.21c1.79.09,3.15-.45,3.21-1.69s-.93-1.84-3.39-2.63c-3.49-1.15-6-2.83-5.8-5.95.15-2.82,2.32-4.87,5.92-5.26l.1-1.78a1,1,0,0,1,1.09-1h1a1,1,0,0,1,1,1.09l-.09,1.6a13.41,13.41,0,0,1,3.93.91,1,1,0,0,1,.58,1.28l-.5,1.52a1,1,0,0,1-1.4.62,10.94,10.94,0,0,0-3.85-.9c-2.12-.11-2.77.74-2.81,1.53-.05,1,1.19,1.7,3.9,2.69,3.88,1.38,5.44,3.1,5.29,6-.14,2.7-2.27,5-6.18,5.43l-.1,2a1,1,0,0,1-1.09,1l-1.05-.06A1,1,0,0,1,157,132.1Z" fill="url(#linear-gradient-94)"/>
        </g>
      </g>
    </g>
  </g>
</svg>
