<svg xmlns="http://www.w3.org/2000/svg" xmlns:xlink="http://www.w3.org/1999/xlink" width="428.191" height="426.268" viewBox="0 0 428.191 426.268">
  <defs>
    <linearGradient id="linear-gradient" x1="1.091" y1="1.163" x2="0.386" y2="0.408" gradientUnits="objectBoundingBox">
      <stop offset="0" stop-color="#dae3fe"/>
      <stop offset="1" stop-color="#e9effd"/>
    </linearGradient>
    <linearGradient id="linear-gradient-2" x1="-0.818" y1="-1.695" x2="1.822" y2="2.7" gradientUnits="objectBoundingBox">
      <stop offset="0" stop-color="#febbba"/>
      <stop offset="1" stop-color="#ff928e"/>
    </linearGradient>
    <linearGradient id="linear-gradient-3" x1="0.278" y1="-0.522" x2="0.567" y2="1.027" gradientUnits="objectBoundingBox">
      <stop offset="0" stop-color="#f57fa3"/>
      <stop offset="1" stop-color="#ef2a66"/>
    </linearGradient>
    <linearGradient id="linear-gradient-4" x1="0.855" y1="-0.355" x2="0.144" y2="1.356" gradientUnits="objectBoundingBox">
      <stop offset="0" stop-color="#2b3582"/>
      <stop offset="1" stop-color="#150e42"/>
    </linearGradient>
    <linearGradient id="linear-gradient-5" x1="1.298" y1="-0.28" x2="0.11" y2="0.882" gradientUnits="objectBoundingBox">
      <stop offset="0" stop-color="#120c2a"/>
      <stop offset="1" stop-color="#35237d"/>
    </linearGradient>
    <linearGradient id="linear-gradient-6" x1="1.299" y1="-0.28" x2="0.11" y2="0.882" xlink:href="#linear-gradient-5"/>
    <linearGradient id="linear-gradient-7" x1="1.298" y1="-0.28" x2="0.11" y2="0.882" xlink:href="#linear-gradient-5"/>
    <linearGradient id="linear-gradient-10" x1="1.194" y1="-0.092" x2="0.197" y2="0.804" xlink:href="#linear-gradient-3"/>
    <linearGradient id="linear-gradient-11" x1="0.901" y1="1.088" x2="0.184" y2="0.218" xlink:href="#linear-gradient-3"/>
    <linearGradient id="linear-gradient-12" x1="1.002" y1="-0.139" x2="0.179" y2="0.909" xlink:href="#linear-gradient-3"/>
    <linearGradient id="linear-gradient-13" x1="0.874" y1="0.979" x2="0.115" y2="0.102" xlink:href="#linear-gradient-3"/>
    <linearGradient id="linear-gradient-14" x1="-0.022" y1="-0.346" x2="0.342" y2="0.297" xlink:href="#linear-gradient-5"/>
    <linearGradient id="linear-gradient-15" x1="0.367" y1="0.302" x2="1.039" y2="1.263" xlink:href="#linear-gradient-2"/>
    <linearGradient id="linear-gradient-16" x1="0" y1="0.5" x2="1.001" y2="0.5" xlink:href="#linear-gradient-5"/>
    <linearGradient id="linear-gradient-17" x1="0.163" y1="1.602" x2="1.197" y2="-1.187" xlink:href="#linear-gradient-2"/>
    <linearGradient id="linear-gradient-18" x1="-0.008" y1="0.498" x2="0.998" y2="0.498" xlink:href="#linear-gradient-5"/>
    <linearGradient id="linear-gradient-19" x1="0.308" y1="1.697" x2="0.772" y2="-1.193" xlink:href="#linear-gradient-2"/>
    <linearGradient id="linear-gradient-20" x1="0.697" y1="0.003" x2="0.292" y2="1.06" xlink:href="#linear-gradient-5"/>
    <linearGradient id="linear-gradient-21" x1="0.187" y1="1.859" x2="0.442" y2="0.809" xlink:href="#linear-gradient-2"/>
    <linearGradient id="linear-gradient-22" x1="0.223" y1="0.742" x2="1.399" y2="-0.91" xlink:href="#linear-gradient-2"/>
    <linearGradient id="linear-gradient-23" x1="0.061" y1="1.329" x2="1.521" y2="-1.033" xlink:href="#linear-gradient-2"/>
    <linearGradient id="linear-gradient-24" x1="0.121" y1="-0.335" x2="0.822" y2="0.993" xlink:href="#linear-gradient-5"/>
    <linearGradient id="linear-gradient-25" x1="-1.471" y1="3.256" x2="3.896" y2="-4.345" xlink:href="#linear-gradient-2"/>
    <linearGradient id="linear-gradient-26" x1="1.32" y1="1.604" x2="3.321" y2="4.271" xlink:href="#linear-gradient-2"/>
    <linearGradient id="linear-gradient-27" x1="0.002" y1="0.502" x2="1.006" y2="0.502" xlink:href="#linear-gradient-2"/>
  </defs>
  <g id="Grupo_56929" data-name="Grupo 56929" transform="translate(-276.809 -1912.967)">
    <g id="CF1_curva-96" transform="translate(237.992 1874.807)">
      <path id="Trazado_117350" data-name="Trazado 117350" d="M414.2,405.08a163.51,163.51,0,0,1-28.65,23.26c-74.22,49.55-159,35.27-185.27,30.39-42.32-7.88-78-13.44-108.73-41.16-69.74-63-66.34-194.44-13.06-275.85C84.81,132.06,138,53.19,223,42.08c2.08-.27,3.63-.43,5-.57,13.15-1.39,94.65-8.74,161.11,46.93a198.288,198.288,0,0,1,39,44.27C480.05,212.88,480.21,337,414.2,405.08Z" fill="url(#linear-gradient)"/>
      <g id="Grupo_56868" data-name="Grupo 56868">
        <g id="Grupo_56863" data-name="Grupo 56863">
          <g id="Grupo_56860" data-name="Grupo 56860">
            <path id="Trazado_117351" data-name="Trazado 117351" d="M272.25,176.17a.51.51,0,0,1-.44-.24c-.36-.59-.71-1.19-1.06-1.8a.52.52,0,0,1,.2-.71.51.51,0,0,1,.7.2c.34.6.69,1.19,1,1.77a.52.52,0,0,1-.17.71.54.54,0,0,1-.23.07Z" fill="#c9bcf7"/>
            <path id="Trazado_117352" data-name="Trazado 117352" d="M268.24,168.28a.51.51,0,0,1-.48-.32c-.54-1.28-1-2.61-1.47-4a.51.51,0,0,1,.32-.65.53.53,0,0,1,.66.33c.43,1.31.92,2.61,1.44,3.88a.51.51,0,0,1-.28.67.43.43,0,0,1-.19.09ZM265,157.81a.51.51,0,0,1-.5-.41c-.05-.23-.1-.46-.14-.69-.23-1.15-.42-2.32-.57-3.47a.51.51,0,1,1,1-.14c.15,1.13.34,2.28.56,3.41.05.23.09.45.14.68a.51.51,0,0,1-.4.61Zm-1.21-10.89a.53.53,0,0,1-.52-.51c0-.32,0-.64,0-1,0-1.09,0-2.18.1-3.26a.52.52,0,1,1,1,.06c-.06,1.06-.09,2.13-.09,3.2v.94a.53.53,0,0,1-.51.53Zm.86-10.93h-.09a.52.52,0,0,1-.42-.6c.25-1.38.54-2.77.89-4.12a.51.51,0,0,1,.62-.38.52.52,0,0,1,.38.63c-.34,1.33-.63,2.69-.87,4.05a.52.52,0,0,1-.5.43Zm2.92-10.57a.57.57,0,0,1-.18,0,.52.52,0,0,1-.3-.67,37.629,37.629,0,0,1,1.65-3.88.512.512,0,0,1,.93.43c-.58,1.25-1.12,2.53-1.61,3.82a.53.53,0,0,1-.48.3Zm4.86-9.82a.53.53,0,0,1-.27-.08.52.52,0,0,1-.17-.71c.74-1.19,1.53-2.37,2.35-3.51a.52.52,0,1,1,.83.61c-.8,1.11-1.58,2.27-2.3,3.44a.52.52,0,0,1-.43.25Zm6.61-8.74a.54.54,0,0,1-.35-.14.52.52,0,0,1,0-.73c.95-1,1.94-2,3-3a.52.52,0,1,1,.71.75c-1,1-2,1.94-2.91,3a.52.52,0,0,1-.44.12Zm8.13-7.34a.514.514,0,0,1-.3-.93c1.12-.84,2.29-1.64,3.47-2.39a.51.51,0,0,1,.71.16.52.52,0,0,1-.16.71c-1.15.73-2.3,1.52-3.41,2.35a.5.5,0,0,1-.3.1Zm9.38-5.67a.53.53,0,0,1-.47-.29.52.52,0,0,1,.24-.69c1.26-.61,2.56-1.18,3.87-1.69a.51.51,0,0,1,.67.29.53.53,0,0,1-.29.67c-1.29.5-2.56,1.06-3.8,1.66a.59.59,0,0,1-.21.05Zm10.28-3.8a.51.51,0,0,1-.13-1c1.25-.33,2.53-.63,3.81-.88h.3a.5.5,0,0,1,.6.41.51.51,0,0,1-.41.6l-.29.06c-1.26.24-2.52.53-3.75.86Zm25.9-.89h-.1c-1.35-.27-2.73-.48-4.1-.64a.519.519,0,1,1,.13-1.03c1.39.17,2.79.39,4.16.65a.52.52,0,0,1,.41.61.51.51,0,0,1-.49.41Zm-15.09-.91a.52.52,0,0,1,0-1c1.38-.1,2.78-.15,4.15-.15a.53.53,0,0,1,.56.52.5.5,0,0,1-.51.51c-1.4,0-2.77.05-4.12.15Z" fill="#c9bcf7"/>
            <path id="Trazado_117353" data-name="Trazado 117353" d="M341.3,91.52a.39.39,0,0,1-.18,0c-.64-.23-1.29-.45-1.93-.65a.523.523,0,0,1,.31-1c.66.21,1.32.44,2,.67a.53.53,0,0,1,.32.66A.54.54,0,0,1,341.3,91.52Z" fill="#c9bcf7"/>
          </g>
          <g id="Grupo_56861" data-name="Grupo 56861">
            <path id="Trazado_117354" data-name="Trazado 117354" d="M374.44,122a.53.53,0,0,1-.47-.31c-.29-.63-.58-1.25-.88-1.85a.52.52,0,0,1,.23-.69.54.54,0,0,1,.7.23c.3.61.6,1.24.89,1.89a.52.52,0,0,1-.25.68.59.59,0,0,1-.22.05Z" fill="#c9bcf7"/>
            <path id="Trazado_117355" data-name="Trazado 117355" d="M321.72,204c-1,0-2.07,0-3.1-.08a.52.52,0,1,1,.06-1c1,.06,2,.09,3,.08h1a.53.53,0,0,1,.52.51.51.51,0,0,1-.51.52Zm7.7-.52a.518.518,0,0,1-.07-1.03c1.11-.15,2.25-.34,3.36-.55l.66-.14a.52.52,0,0,1,.61.4.51.51,0,0,1-.4.61l-.67.14c-1.14.22-2.29.41-3.42.56ZM312,203.14h-.09c-1.36-.23-2.73-.51-4.07-.84a.52.52,0,0,1,.25-1c1.32.33,2.66.61,4,.83a.52.52,0,0,1,.42.6.51.51,0,0,1-.51.41ZM339.93,201a.518.518,0,0,1-.16-1.01c1.29-.42,2.57-.9,3.82-1.41a.53.53,0,0,1,.68.28.52.52,0,0,1-.29.67c-1.27.53-2.57,1-3.89,1.44A.45.45,0,0,1,339.93,201Zm9.88-4.32a.52.52,0,0,1-.25-1c1.18-.66,2.36-1.36,3.49-2.1a.52.52,0,0,1,.56.87c-1.15.75-2.34,1.47-3.55,2.13a.47.47,0,0,1-.25.11Zm8.89-6.08a.52.52,0,0,1-.39-.19.51.51,0,0,1,.06-.73c1-.86,2.07-1.78,3-2.71a.52.52,0,0,1,.72.74,36.932,36.932,0,0,1-3.1,2.77.5.5,0,0,1-.29.13Zm7.62-7.64a.5.5,0,0,1-.33-.12.51.51,0,0,1-.07-.72c.86-1,1.7-2.13,2.48-3.23a.53.53,0,0,1,.73-.12.51.51,0,0,1,.11.72c-.8,1.12-1.65,2.23-2.53,3.29a.51.51,0,0,1-.39.22Zm6.07-8.91a.57.57,0,0,1-.25-.06.51.51,0,0,1-.2-.7c.66-1.19,1.28-2.41,1.85-3.64a.52.52,0,0,1,.94.44c-.59,1.25-1.22,2.49-1.89,3.7a.5.5,0,0,1-.45.27Zm4.33-9.87a.45.45,0,0,1-.16,0,.52.52,0,0,1-.33-.65c.43-1.29.81-2.61,1.14-3.92a.52.52,0,1,1,1,.26c-.33,1.33-.73,2.67-1.16,4a.51.51,0,0,1-.49.32Zm2.42-10.52h-.07a.52.52,0,0,1-.44-.58c.18-1.34.31-2.71.39-4.06a.52.52,0,0,1,.55-.48.51.51,0,0,1,.48.54c-.08,1.38-.22,2.77-.4,4.13a.52.52,0,0,1-.51.46Zm.41-10.77a.52.52,0,0,1-.51-.49c-.08-1.35-.2-2.72-.37-4.06a.51.51,0,1,1,1-.13c.17,1.36.3,2.76.38,4.13a.52.52,0,0,1-.49.55ZM378,132.23a.52.52,0,0,1-.5-.4c-.32-1.32-.69-2.64-1.1-3.92a.514.514,0,1,1,.98-.31c.42,1.3.8,2.64,1.13,4a.52.52,0,0,1-.38.62Z" fill="#c9bcf7"/>
            <path id="Trazado_117356" data-name="Trazado 117356" d="M301.55,200.33a.39.39,0,0,1-.18,0c-.67-.25-1.32-.5-1.94-.76a.52.52,0,1,1,.4-.95c.6.25,1.24.5,1.9.75a.52.52,0,0,1-.18,1Z" fill="#c9bcf7"/>
          </g>
          <g id="Grupo_56862" data-name="Grupo 56862">
            <path id="Trazado_117357" data-name="Trazado 117357" d="M299.7,184.17a.69.69,0,0,0,.81,0l6.91-4.88A36.77,36.77,0,0,0,319,182.05l4,7.45a.69.69,0,0,0,.73.35l10-1.62a.7.7,0,0,0,.58-.57l1.44-8.33A36.92,36.92,0,0,0,346,173.05l8.1,2.44a.71.71,0,0,0,.77-.26l5.93-8.24a.69.69,0,0,0,0-.8l-4.87-6.92a36.7,36.7,0,0,0,2.74-11.62l7.45-4a.69.69,0,0,0,.36-.72l-1.63-10a.68.68,0,0,0-.57-.57l-8.33-1.44a36.679,36.679,0,0,0-6.28-10.15l2.44-8.11a.68.68,0,0,0-.26-.76l-8.28-5.9a.69.69,0,0,0-.81,0l-6.91,4.88a36.77,36.77,0,0,0-11.62-2.75l-4-7.45a.69.69,0,0,0-.73-.35l-10,1.62a.73.73,0,0,0-.58.57l-1.44,8.33a37.059,37.059,0,0,0-10.15,6.28l-8.1-2.44a.7.7,0,0,0-.76.26l-5.94,8.24a.69.69,0,0,0,0,.8l4.87,6.92a37,37,0,0,0-2.74,11.62l-7.45,4a.69.69,0,0,0-.36.72l1.63,10a.69.69,0,0,0,.57.57l8.33,1.44a36.73,36.73,0,0,0,6.28,10.16l-2.44,8.1a.68.68,0,0,0,.26.76Z" fill="#c9bcf7"/>
            <path id="Trazado_117358" data-name="Trazado 117358" d="M321.64,154.85a9.735,9.735,0,1,1,3.88-.77h0a9.75,9.75,0,0,1-3.88.77Zm3.57-1.52Zm-3.58-16.51a8.24,8.24,0,1,0,3.27,15.8h0a8.24,8.24,0,0,0-3.27-15.8Z" fill="#bdd0fb"/>
            <path id="Trazado_117359" data-name="Trazado 117359" d="M321.71,170.14h-1.29l.08-1.55a23.791,23.791,0,0,0,5.05-.28l.85-.15a23.75,23.75,0,0,0,19.05-23.78,22.848,22.848,0,0,0-.3-3.27,23.725,23.725,0,1,0-41.57,19.04l-1.19,1a25.27,25.27,0,1,1,23.37,8.66h0a25.422,25.422,0,0,1-4.05.33Z" fill="#bdd0fb"/>
          </g>
        </g>
        <g id="Grupo_56867" data-name="Grupo 56867">
          <g id="Grupo_56864" data-name="Grupo 56864">
            <path id="Trazado_117360" data-name="Trazado 117360" d="M363.5,117.42a.52.52,0,0,1-.44-.25,19.138,19.138,0,0,1-1-1.83.52.52,0,0,1,.92-.48c.31.6.65,1.2,1,1.77a.52.52,0,0,1-.17.71A.56.56,0,0,1,363.5,117.42Z" fill="#c9bcf7"/>
            <path id="Trazado_117361" data-name="Trazado 117361" d="M359.87,109a.51.51,0,0,1-.5-.38c-.21-.78-.39-1.58-.55-2.37s-.24-1.34-.33-2a.52.52,0,0,1,.44-.58.51.51,0,0,1,.58.44c.09.66.2,1.32.33,2s.32,1.54.53,2.29a.53.53,0,0,1-.36.64Zm-1-11.46h0a.52.52,0,0,1-.47-.56,33.279,33.279,0,0,1,.69-4.42.52.52,0,1,1,1,.23,32.822,32.822,0,0,0-.67,4.28.52.52,0,0,1-.58.44Zm3-11.11a.59.59,0,0,1-.22-.05.51.51,0,0,1-.24-.69,32.413,32.413,0,0,1,2.17-3.91.52.52,0,0,1,.87.57,31.715,31.715,0,0,0-2.11,3.78.51.51,0,0,1-.5.27ZM368.5,77a.51.51,0,0,1-.37-.15.52.52,0,0,1,0-.73,32.422,32.422,0,0,1,3.39-2.92.514.514,0,0,1,.62.82,32.8,32.8,0,0,0-3.28,2.83A.51.51,0,0,1,368.5,77Zm9.5-6.5a.5.5,0,0,1-.47-.3.52.52,0,0,1,.26-.69A33.933,33.933,0,0,1,382,68a.521.521,0,1,1,.29,1,34.13,34.13,0,0,0-4.06,1.52.52.52,0,0,1-.23-.02Zm11.15-2.82a.516.516,0,0,1-.04-1.03,33.479,33.479,0,0,1,4.48,0,.52.52,0,0,1-.07,1,31.281,31.281,0,0,0-4.33,0Z" fill="#c9bcf7"/>
            <path id="Trazado_117362" data-name="Trazado 117362" d="M402.57,69.52a.57.57,0,0,1-.18,0c-.63-.23-1.28-.44-1.93-.63a.51.51,0,0,1-.35-.64.52.52,0,0,1,.64-.35c.67.2,1.34.41,2,.65a.51.51,0,0,1,.31.66A.5.5,0,0,1,402.57,69.52Z" fill="#c9bcf7"/>
          </g>
          <g id="Grupo_56865" data-name="Grupo 56865">
            <path id="Trazado_117363" data-name="Trazado 117363" d="M421.68,87.61a.51.51,0,0,1-.48-.32c-.26-.61-.55-1.24-.85-1.84a.52.52,0,1,1,.93-.46c.31.62.6,1.26.87,1.9a.52.52,0,0,1-.27.68A.51.51,0,0,1,421.68,87.61Z" fill="#c9bcf7"/>
            <path id="Trazado_117364" data-name="Trazado 117364" d="M391.45,133.13a32.661,32.661,0,0,1-3.7-.21.51.51,0,1,1,.123-1,31.669,31.669,0,0,0,4.25.19h0a.51.51,0,0,1,.52.51.52.52,0,0,1-.51.53Zm7.66-.9a.52.52,0,0,1-.12-1,31.933,31.933,0,0,0,4.07-1.26.533.533,0,1,1,.37,1,34,34,0,0,1-4.2,1.29Zm10.39-4.49a.51.51,0,0,1-.29-.94,31.661,31.661,0,0,0,3.4-2.58.53.53,0,0,1,.73,0,.52.52,0,0,1-.06.73,33.578,33.578,0,0,1-3.5,2.66.48.48,0,0,1-.28.13Zm8.23-7.76a.5.5,0,0,1-.31-.1.51.51,0,0,1-.1-.73,32.57,32.57,0,0,0,2.32-3.57.515.515,0,1,1,.9.5,33.31,33.31,0,0,1-2.4,3.69.49.49,0,0,1-.41.23Zm5.11-10.1a.39.39,0,0,1-.15,0,.51.51,0,0,1-.34-.64,32.991,32.991,0,0,0,1-4.16.51.51,0,0,1,.59-.42.52.52,0,0,1,.43.59,35.108,35.108,0,0,1-1,4.29.52.52,0,0,1-.53.34Zm1.37-11.24a.51.51,0,0,1-.51-.48,33.6,33.6,0,0,0-.51-4.24.514.514,0,1,1,1.01-.19,33.844,33.844,0,0,1,.53,4.37.52.52,0,0,1-.49.54Z" fill="#c9bcf7"/>
            <path id="Trazado_117365" data-name="Trazado 117365" d="M380.92,131.38h-.17c-.66-.22-1.32-.47-2-.74a.51.51,0,0,1-.28-.67.53.53,0,0,1,.68-.28c.61.26,1.25.5,1.9.72a.51.51,0,0,1,.32.65A.5.5,0,0,1,380.92,131.38Z" fill="#c9bcf7"/>
          </g>
          <g id="Grupo_56866" data-name="Grupo 56866">
            <path id="Trazado_117366" data-name="Trazado 117366" d="M379,121.72a.39.39,0,0,0,.46,0L383.4,119a20.84,20.84,0,0,0,6.57,1.56l2.27,4.21a.38.38,0,0,0,.41.2l5.66-.92a.39.39,0,0,0,.33-.32l.81-4.71a20.93,20.93,0,0,0,5.75-3.56l4.58,1.38a.39.39,0,0,0,.43-.14l3.36-4.66a.39.39,0,0,0,0-.46l-2.76-3.91a20.841,20.841,0,0,0,1.56-6.57l4.21-2.27a.38.38,0,0,0,.2-.41l-.92-5.66a.38.38,0,0,0-.32-.33l-4.71-.81a20.93,20.93,0,0,0-3.56-5.75l1.38-4.58a.39.39,0,0,0-.14-.43l-4.66-3.36a.39.39,0,0,0-.46,0l-3.91,2.76a20.84,20.84,0,0,0-6.57-1.56l-2.27-4.21a.37.37,0,0,0-.4-.2l-5.67.92a.38.38,0,0,0-.33.32l-.81,4.71a20.93,20.93,0,0,0-5.75,3.56l-4.58-1.38a.39.39,0,0,0-.43.14l-3.36,4.66a.39.39,0,0,0,0,.46l2.76,3.91a20.841,20.841,0,0,0-1.56,6.57l-4.21,2.27a.38.38,0,0,0-.2.41l.92,5.66a.39.39,0,0,0,.32.33l4.71.81a20.931,20.931,0,0,0,3.56,5.75l-1.38,4.58a.39.39,0,0,0,.14.43Z" fill="#c9bcf7"/>
            <path id="Trazado_117367" data-name="Trazado 117367" d="M391.45,105.46a5.87,5.87,0,1,1,2.32-.48h0a5.78,5.78,0,0,1-2.32.48Zm2-1.19Zm-2-9a4.32,4.32,0,1,0,1.73,8.29h0a4.32,4.32,0,0,0-1.73-8.29Z" fill="#bdd0fb"/>
            <path id="Trazado_117368" data-name="Trazado 117368" d="M391.48,114.12h-.74l.08-1.55a13.649,13.649,0,0,0,2.78-.15h0a13.12,13.12,0,0,0,11-12.89,12.73,12.73,0,0,0-.18-2.12,13.08,13.08,0,0,0-26,2.09,13.714,13.714,0,0,0,.17,2.1,13.06,13.06,0,0,0,2.91,6.33l-1.18,1a14.83,14.83,0,0,1-3.45-9.44,14.635,14.635,0,1,1,16.98,14.41h0a15.38,15.38,0,0,1-2.37.22Z" fill="#bdd0fb"/>
          </g>
        </g>
      </g>
      <g id="Grupo_56870" data-name="Grupo 56870">
        <g id="Grupo_56869" data-name="Grupo 56869">
          <path id="Trazado_117369" data-name="Trazado 117369" d="M156.11,38.16h-.9c-45.16,0-81.77,37-81.77,82.67h82.67Z" fill="url(#linear-gradient-2)"/>
          <path id="Trazado_117370" data-name="Trazado 117370" d="M155.75,121,200.3,51.33a82.23,82.23,0,0,0-43.48-13h-1.51Z" fill="#c9bcf7"/>
          <path id="Trazado_117371" data-name="Trazado 117371" d="M156.11,120.82l82.58,3.71q0-.78.06-1.56a82.62,82.62,0,0,0-38.09-71.8Z" fill="#9182ca"/>
          <path id="Trazado_117372" data-name="Trazado 117372" d="M147.2,129.12l-81.61-2.84a82.69,82.69,0,0,0,58,81.82l24-78.42a.44.44,0,0,0-.39-.56Z" fill="#b3204d"/>
          <path id="Trazado_117373" data-name="Trazado 117373" d="M155.78,120.69,133.65,200.2a73.31,73.31,0,0,0,20.56,3,82.71,82.71,0,0,0,78.4-52Z" fill="url(#linear-gradient-3)"/>
          <path id="Trazado_117374" data-name="Trazado 117374" d="M232.69,152a82.4,82.4,0,0,0,6.05-27.54h0l-82.58-3.79Z" fill="#7d97f4"/>
        </g>
        <path id="Trazado_117375" data-name="Trazado 117375" d="M156.44,200.58c-1.15,0-2.32,0-3.47-.07a1.036,1.036,0,0,1,.09-2.07c1.12.05,2.26.08,3.38.08a78.77,78.77,0,0,0,63.43-32.28,1.031,1.031,0,1,1,1.67,1.21A80.38,80.38,0,0,1,156.44,200.58Z" fill="#fff" opacity="0.63"/>
        <path id="Trazado_117376" data-name="Trazado 117376" d="M235.13,110a1,1,0,0,1-1-.89,78.57,78.57,0,0,0-33.22-53.62,1.035,1.035,0,1,1,1.18-1.7,80.66,80.66,0,0,1,34.08,55,1,1,0,0,1-.88,1.17Z" fill="#c9bcf7"/>
        <path id="Trazado_117377" data-name="Trazado 117377" d="M88.6,79.72a1.08,1.08,0,0,1-.54-.15,1,1,0,0,1-.34-1.42,80.37,80.37,0,0,1,36.78-32,1.035,1.035,0,1,1,.82,1.9A78.26,78.26,0,0,0,89.48,79.22,1,1,0,0,1,88.6,79.72Z" fill="#fff" opacity="0.63"/>
        <path id="Trazado_117378" data-name="Trazado 117378" d="M121.61,205.2l-1-.43A113.139,113.139,0,0,1,100.75,194a1.032,1.032,0,1,1,1.14-1.72,111.53,111.53,0,0,0,18.42,10.1l12-38.51a1.045,1.045,0,1,1,2,.61Z" fill="#fff" opacity="0.63"/>
        <path id="Trazado_117379" data-name="Trazado 117379" d="M140.6,142a1.1,1.1,0,0,1-.31,0,1,1,0,0,1-.68-1.3l2.29-7.31-42-1.17a1.035,1.035,0,1,1,0-2.07h0l42.93,1.2a1.35,1.35,0,0,1,1.07.57,1.32,1.32,0,0,1,.2,1.2l-2.56,8.2A1,1,0,0,1,140.6,142Zm2.22-8.63Z" fill="#fff" opacity="0.63"/>
      </g>
      <g id="Grupo_56871" data-name="Grupo 56871">
        <rect id="Rectángulo_6906" data-name="Rectángulo 6906" width="42.86" height="157.49" rx="4.38" transform="translate(97.58 305.56)" fill="#c9bcf7"/>
        <path id="Trazado_117380" data-name="Trazado 117380" d="M84.16,390.44c0-1.14-2.38-2.26-4.8-2.26H44.84c-2.42,0-4.58,1.12-4.58,2.26v70c0,1.14,2.16,2.66,4.58,2.66H79.36c2.42,0,4.8-1.52,4.8-2.66Z" fill="#c9bcf7"/>
        <path id="Trazado_117381" data-name="Trazado 117381" d="M247.52,291.62H213a4.68,4.68,0,0,0-4.43,4.83v161.7c0,2.64,2,5.42,4.43,5.42h34.49c2.42,0,5.49-2.78,5.49-5.42V296.45C253,293.81,249.94,291.62,247.52,291.62Z" fill="#c9bcf7"/>
        <rect id="Rectángulo_6907" data-name="Rectángulo 6907" width="42.86" height="206.03" rx="4.38" transform="translate(152.32 257.02)" fill="#c9bcf7"/>
        <path id="Trazado_117382" data-name="Trazado 117382" d="M443.55,176.44a4.94,4.94,0,0,0-4.86-4.62H404.16a4.61,4.61,0,0,0-4.5,4.62V458c0,2.54,2.08,5,4.5,5h34.53a5.32,5.32,0,0,0,4.86-5Z" fill="#c9bcf7"/>
        <rect id="Rectángulo_6908" data-name="Rectángulo 6908" width="42.86" height="238.56" rx="4.38" transform="translate(275.21 224.49)" fill="#c9bcf7"/>
        <rect id="Rectángulo_6909" data-name="Rectángulo 6909" width="42.86" height="276.78" rx="4.38" transform="translate(339.76 186.8)" fill="#c9bcf7"/>
      </g>
      <g id="Grupo_56872" data-name="Grupo 56872">
        <path id="Trazado_117383" data-name="Trazado 117383" d="M185.43,176.06l-.75-1.36,66.43-36.29,61.87,27.2,53.18-52.17L428.58,76.6l.79,1.34-62.26,36.74-53.8,52.77-.48-.21-61.65-27.11Z" fill="url(#linear-gradient-4)"/>
        <circle id="Elipse_4566" data-name="Elipse 4566" cx="7.15" cy="7.15" r="7.15" transform="translate(175.447 172.202) rotate(-26.56)" fill="url(#linear-gradient-5)"/>
        <circle id="Elipse_4567" data-name="Elipse 4567" cx="7.15" cy="7.15" r="7.15" transform="translate(242.152 143.904) rotate(-72.23)" fill="url(#linear-gradient-6)"/>
        <circle id="Elipse_4568" data-name="Elipse 4568" cx="7.15" cy="7.15" r="7.15" transform="translate(303.036 165.155) rotate(-45)" fill="url(#linear-gradient-7)"/>
        <circle id="Elipse_4569" data-name="Elipse 4569" cx="7.15" cy="7.15" r="7.15" transform="translate(357.78 106.91)" fill="url(#linear-gradient-7)"/>
        <circle id="Elipse_4570" data-name="Elipse 4570" cx="7.15" cy="7.15" r="7.15" transform="translate(418.873 77.262) rotate(-45)" fill="url(#linear-gradient-7)"/>
      </g>
      <g id="Grupo_56873" data-name="Grupo 56873">
        <path id="Trazado_117384" data-name="Trazado 117384" d="M311.57,433.43l79.3-151.92H374.62a3.55,3.55,0,0,1-2.74-5.8l84.51-103A6,6,0,0,1,467,176.84l-6,100.73a10.06,10.06,0,0,1-11.19,9.4l-11.33-1.29L359.81,456.07a12.53,12.53,0,0,1-11.37,7.28H321.17Z" fill="url(#linear-gradient-10)"/>
        <path id="Trazado_117385" data-name="Trazado 117385" d="M386.86,270.76a.77.77,0,0,1-.61-1.24L456,178.83a2.92,2.92,0,0,1,5.21,2.11L460,191.81a.775.775,0,0,1-1.54-.17l1.23-10.87a1.36,1.36,0,0,0-2.44-1l-69.79,90.68a.76.76,0,0,1-.6.31Z" fill="#fff" opacity="0.63"/>
        <path id="Trazado_117386" data-name="Trazado 117386" d="M246,326.88l56,124.36a20.53,20.53,0,0,0,18.72,12.11h28.86a10.55,10.55,0,0,0,9.22-5.43l1-1.85h0a8.26,8.26,0,0,1-7.35-4.5L277.87,305.42Z" fill="url(#linear-gradient-11)"/>
        <path id="Trazado_117387" data-name="Trazado 117387" d="M285.41,320.18h0A12.24,12.24,0,0,0,267.63,323L185.32,446.67a35.57,35.57,0,0,1-29.6,15.86H144.13l-9.42-27.15S211.23,318,231,300.3c0,0,19.64-17.71,39-4.32a32.29,32.29,0,0,1,11.37,14.33Z" fill="url(#linear-gradient-12)"/>
        <path id="Trazado_117388" data-name="Trazado 117388" d="M45.18,362.35S59,345.13,85.66,342.45c0,0,12.68,4.32,37.94,49.59s42,65.91,61.72,54.63l-1.63,2.71a29.69,29.69,0,0,1-25.43,14.36H147.38a37.241,37.241,0,0,1-30.231-15.491C97.49,420.92,57.26,366.59,45.18,362.35Z" fill="url(#linear-gradient-13)"/>
        <path id="Trazado_117389" data-name="Trazado 117389" d="M457.42,208.68h-.09a.77.77,0,0,1-.68-.86l.55-4.91a.775.775,0,1,1,1.54.17l-.56,4.92a.78.78,0,0,1-.76.68Z" fill="#fff" opacity="0.63"/>
      </g>
      <g id="Grupo_56876" data-name="Grupo 56876">
        <path id="Trazado_117390" data-name="Trazado 117390" d="M247.79,227.42s5.28,2.57,6.25,5.52c.78,2.36,6.61,2.67,7.19,7.32a5.33,5.33,0,0,0,4.46,4.69c6,.91,15.14,4,16.61,14.35,1.12,7.9-2.9,10.89-7.13,11.93a6,6,0,0,0-4.53,6.91c.6,3-.3,6.47-5.5,9.22-11.67,6.15-23.32-14.58-23.32-14.58l-2.38-36.2Z" fill="url(#linear-gradient-14)"/>
        <path id="Trazado_117391" data-name="Trazado 117391" d="M192.89,208.33s15,40.91,40.58,53.7c0,0-8.51,13.89-12.95,14.73,0,0-27.32-35-30.11-63.61Z" fill="url(#linear-gradient-15)"/>
        <path id="Trazado_117392" data-name="Trazado 117392" d="M295.73,454.43l.76,6.21a2.57,2.57,0,0,0,2.25,2.24,40.142,40.142,0,0,0,8.3.13,2.2,2.2,0,0,0,1.84-2.85c-.76-2.39-2.15-6-4.16-8.11h-6.88a2.13,2.13,0,0,0-2.11,2.38Z" fill="url(#linear-gradient-16)"/>
        <path id="Trazado_117393" data-name="Trazado 117393" d="M241.82,381.75l-1.16,6.83s3.89,39.41,4.59,55.17a12.49,12.49,0,0,1-1.83,7l-6.77,11,17.19-10.14.35-2.1-2.82-3.87,3.69-44.14a13.51,13.51,0,0,0-1.54-7.49L250,387.33Z" fill="url(#linear-gradient-17)"/>
        <path id="Trazado_117394" data-name="Trazado 117394" d="M235.52,463.35H241a3.33,3.33,0,0,0,2.62-1.29c1.71-2.22,5.25-6.56,7-6.67,2.28-.15,2,8,2,8h1.27l1.62-10.08a6,6,0,0,0-3.13-6.24h0s-.52,3.86-3.34,5.57-11.51,7.81-11.51,7.81a7.891,7.891,0,0,0-2.23.06,1.45,1.45,0,0,0,.22,2.84Z" fill="url(#linear-gradient-18)"/>
        <path id="Trazado_117395" data-name="Trazado 117395" d="M265.37,385s22.79,43.24,26.42,53.11A95.121,95.121,0,0,1,296.73,457c.07,1.22,1.59,2.39,5.77,2.39,2.15,0,3.21-.87,3.72-1.7a2.45,2.45,0,0,0,.1-2.36c-1.32-2.67-5.51-11.2-7.06-15.06-1.85-4.62-5.82-25.55-8-32.82S286.6,392.26,277.1,385C277.1,385,270.58,378.6,265.37,385Z" fill="url(#linear-gradient-19)"/>
        <path id="Trazado_117396" data-name="Trazado 117396" d="M251,314.16c-5.87-24.92,9-39,9-39-9.4-9-26.52-13.12-26.52-13.12s-16.34,11.94-14.4,21.29c1.14,5.48,11.48,32.82,11.48,32.82A22.74,22.74,0,0,0,251,314.16Z" fill="#9182ca"/>
        <path id="Trazado_117397" data-name="Trazado 117397" d="M264,326.49c-2.39-7.21-13-12.33-13-12.33a22.74,22.74,0,0,1-20.42,2s-2.14,8.21-.66,15.83,10.77,56.61,10.77,56.61c14.64,3,37.16-3,37.16-3C268.5,369,266.4,333.7,264,326.49Z" fill="url(#linear-gradient-20)"/>
        <path id="Trazado_117398" data-name="Trazado 117398" d="M244.15,245.57,248.93,267c.46,1.89-1.27,1.58-3.18,1.22-3.13-.59-7.16-1.81-8.51-4.25a2.2,2.2,0,0,1-.25-.8l-2.05-14.89a2.67,2.67,0,0,1,1.56-2.81l4-1.76a2.67,2.67,0,0,1,3.65,1.86Z" fill="url(#linear-gradient-21)"/>
        <path id="Trazado_117399" data-name="Trazado 117399" d="M260,275.15s33.36,23.87,4.27,49A7.48,7.48,0,0,1,261,326c-1.1.33-4.36,2.79-6,4.08a1.14,1.14,0,0,1-1.66-.3h0a1.53,1.53,0,0,1-.08-1.48l4.13-8.73a3.17,3.17,0,0,1,4.13-.18h0a1.58,1.58,0,0,0,2.39-.54c2.25-4.58,6.49-18.06-10.89-33.28a1.89,1.89,0,0,1-.42-2.29C253.78,281,256.57,276.29,260,275.15Z" fill="url(#linear-gradient-22)"/>
        <g id="Grupo_56874" data-name="Grupo 56874">
          <path id="Trazado_117400" data-name="Trazado 117400" d="M238.54,225.12s-5.66,2.39-9.51,10.57-1,12,2.64,12.48,9,.44,14.72-4.84S245.9,222.29,238.54,225.12Z" fill="url(#linear-gradient-23)"/>
          <path id="Trazado_117401" data-name="Trazado 117401" d="M242.55,239s4.27-12-6.34-12.11l-2.5,1.74s-3.89-6.63,2.5-9.8,13.87-.55,16.59,8.06,3.18,14.37-1.34,18.49-6.39-.55-6.39-.55,2.46-3.85,1.46-5.92-3.32.43-3.32.43Z" fill="url(#linear-gradient-24)"/>
          <path id="Trazado_117402" data-name="Trazado 117402" d="M243.74,240.29s2.16-6.16,5-3.71-2.34,5.7-4.38,6.75Z" fill="url(#linear-gradient-25)"/>
        </g>
        <g id="Grupo_56875" data-name="Grupo 56875">
          <path id="Trazado_117403" data-name="Trazado 117403" d="M191.45,215.78c-.23.72,2.42,1.83,4-1.14.06-1.43.93-7.54.07-8.71-4.54-6.19-13.34-14-13.34-14a2.09,2.09,0,0,0-.26,2.91l4.27,4.45c-.9,1.62-2,3-2.5,4.93a6,6,0,0,0,.6,4.41c.75,1.35,1.77,3.1,2.74,4.48A5.91,5.91,0,0,0,191.45,215.78Z" fill="url(#linear-gradient-26)"/>
          <path id="Trazado_117404" data-name="Trazado 117404" d="M189.29,212.73c-.32-1.79-1.31-6.68-2-7.79a2.49,2.49,0,0,1-.48-2,1.85,1.85,0,0,1,1-1.11l.24-.12,4.17,3.54,1.26,3.38-.74.28-1.19-3.19-3.6-3a.93.93,0,0,0-.39.49,1.85,1.85,0,0,0,.38,1.33c.9,1.45,2,7.79,2.09,8.06Z" fill="url(#linear-gradient-27)"/>
        </g>
      </g>
    </g>
  </g>
</svg>
