<svg xmlns="http://www.w3.org/2000/svg" xmlns:xlink="http://www.w3.org/1999/xlink" width="356.734" height="337.243" viewBox="0 0 356.734 337.243">
  <defs>
    <linearGradient id="linear-gradient" x1="1.021" y1="-0.022" x2="0.152" y2="0.948" gradientUnits="objectBoundingBox">
      <stop offset="0" stop-color="#9182ca"/>
      <stop offset="1" stop-color="#6c58b8"/>
    </linearGradient>
    <linearGradient id="linear-gradient-2" x1="0.926" y1="1.054" x2="0.074" y2="0.122" xlink:href="#linear-gradient"/>
    <linearGradient id="linear-gradient-3" x1="0.93" y1="-0.024" x2="0.084" y2="0.964" xlink:href="#linear-gradient"/>
    <linearGradient id="linear-gradient-4" x1="0.57" y1="0.612" x2="-0.159" y2="-0.433" xlink:href="#linear-gradient"/>
    <linearGradient id="linear-gradient-5" x1="0.939" y1="-0.484" x2="-1.893" y2="6.014" gradientUnits="objectBoundingBox">
      <stop offset="0" stop-color="#35237d"/>
      <stop offset="1" stop-color="#472ea6"/>
    </linearGradient>
    <linearGradient id="linear-gradient-6" y1="0.5" x2="1" y2="0.5" gradientUnits="objectBoundingBox">
      <stop offset="0" stop-color="#febbba"/>
      <stop offset="1" stop-color="#ff928e"/>
    </linearGradient>
    <linearGradient id="linear-gradient-7" x1="-0.001" y1="0.5" x2="1" y2="0.5" xlink:href="#linear-gradient-5"/>
    <linearGradient id="linear-gradient-8" x1="3.08" y1="-2.224" x2="-3.939" y2="5.387" xlink:href="#linear-gradient-5"/>
    <linearGradient id="linear-gradient-9" x1="0" y1="0.5" x2="1" y2="0.5" xlink:href="#linear-gradient-6"/>
    <linearGradient id="linear-gradient-10" x1="0" y1="0.5" x2="1" y2="0.5" xlink:href="#linear-gradient-5"/>
    <linearGradient id="linear-gradient-11" x1="1.228" y1="-0.573" x2="0.302" y2="0.475" gradientUnits="objectBoundingBox">
      <stop offset="0" stop-color="#f57fa3"/>
      <stop offset="1" stop-color="#ef2a66"/>
    </linearGradient>
    <linearGradient id="linear-gradient-12" x1="0" y1="0.5" x2="1" y2="0.5" xlink:href="#linear-gradient-6"/>
    <linearGradient id="linear-gradient-13" x1="80.935" y1="1.605" x2="82.936" y2="4.277" xlink:href="#linear-gradient-6"/>
    <linearGradient id="linear-gradient-14" x1="0.338" y1="0.706" x2="2.359" y2="-1.073" xlink:href="#linear-gradient-6"/>
    <linearGradient id="linear-gradient-15" x1="2.988" y1="-2.226" x2="0.663" y2="0.455" xlink:href="#linear-gradient-11"/>
    <linearGradient id="linear-gradient-16" x1="0" y1="0.5" x2="1" y2="0.5" xlink:href="#linear-gradient-6"/>
    <linearGradient id="linear-gradient-17" x1="0.384" y1="-0.062" x2="0.898" y2="2.427" xlink:href="#linear-gradient-5"/>
    <linearGradient id="linear-gradient-18" x1="1.308" y1="-2.283" x2="-0.543" y2="4.065" xlink:href="#linear-gradient"/>
    <linearGradient id="linear-gradient-19" x1="1.24" y1="-2.806" x2="0.27" y2="1.549" xlink:href="#linear-gradient"/>
    <linearGradient id="linear-gradient-20" x1="0" y1="0.5" x2="1.001" y2="0.5" xlink:href="#linear-gradient-6"/>
    <linearGradient id="linear-gradient-21" x1="-0.324" y1="2.002" x2="0.663" y2="0.303" xlink:href="#linear-gradient-6"/>
    <linearGradient id="linear-gradient-22" x1="-173.75" y1="4.261" x2="-174.823" y2="5.542" xlink:href="#linear-gradient-6"/>
    <linearGradient id="linear-gradient-23" x1="-123.36" y1="3.235" x2="-122.453" y2="3.235" xlink:href="#linear-gradient-5"/>
    <linearGradient id="linear-gradient-24" x1="-0.574" y1="1.371" x2="1.997" y2="-0.671" xlink:href="#linear-gradient-6"/>
    <linearGradient id="linear-gradient-25" x1="-279.549" y1="-0.345" x2="-279.186" y2="0.297" xlink:href="#linear-gradient-5"/>
    <linearGradient id="linear-gradient-26" x1="-871.359" y1="-76.007" x2="-869.307" y2="-81.402" xlink:href="#linear-gradient-5"/>
    <linearGradient id="linear-gradient-27" x1="-653.631" y1="1.602" x2="-652.597" y2="-1.187" xlink:href="#linear-gradient-6"/>
    <linearGradient id="linear-gradient-28" x1="-541.235" y1="-52.73" x2="-539.971" y2="-56.403" xlink:href="#linear-gradient-5"/>
    <linearGradient id="linear-gradient-29" x1="-290.551" y1="1.698" x2="-290.088" y2="-1.193" xlink:href="#linear-gradient-6"/>
    <linearGradient id="linear-gradient-30" x1="-0.149" y1="0.864" x2="0.817" y2="0.362" xlink:href="#linear-gradient-5"/>
    <linearGradient id="linear-gradient-31" x1="2.455" y1="-0.701" x2="0.892" y2="0.324" xlink:href="#linear-gradient-11"/>
    <linearGradient id="linear-gradient-32" x1="0.429" y1="1.282" x2="0.557" y2="0.002" xlink:href="#linear-gradient-6"/>
    <linearGradient id="linear-gradient-33" x1="-504.084" y1="0.5" x2="-503.084" y2="0.5" xlink:href="#linear-gradient-6"/>
    <linearGradient id="linear-gradient-34" x1="-622.134" y1="-63.143" x2="-620.602" y2="-65.393" xlink:href="#linear-gradient-6"/>
    <linearGradient id="linear-gradient-35" x1="-511.956" y1="-57.326" x2="-511.325" y2="-55.923" xlink:href="#linear-gradient-5"/>
    <linearGradient id="linear-gradient-36" x1="-2361.281" y1="-201.302" x2="-2355.449" y2="-208.447" xlink:href="#linear-gradient-6"/>
    <linearGradient id="linear-gradient-37" x1="-0.184" y1="1.294" x2="0.486" y2="0.516" gradientUnits="objectBoundingBox">
      <stop offset="0" stop-color="#e1473d"/>
      <stop offset="1" stop-color="#e9605a"/>
    </linearGradient>
    <linearGradient id="linear-gradient-38" x1="0.699" y1="-0.135" x2="0.329" y2="1.046" xlink:href="#linear-gradient-11"/>
    <linearGradient id="linear-gradient-39" x1="1.667" y1="-1.612" x2="-0.084" y2="1.548" xlink:href="#linear-gradient-11"/>
    <linearGradient id="linear-gradient-40" x1="0.642" y1="-2.029" x2="0.193" y2="5.969" xlink:href="#linear-gradient-11"/>
    <linearGradient id="linear-gradient-41" x1="0.702" y1="-3.1" x2="0.253" y2="4.898" xlink:href="#linear-gradient-11"/>
    <linearGradient id="linear-gradient-42" x1="0.762" y1="-4.171" x2="0.313" y2="3.828" xlink:href="#linear-gradient-11"/>
    <linearGradient id="linear-gradient-43" x1="0.822" y1="-5.241" x2="0.373" y2="2.757" xlink:href="#linear-gradient-11"/>
    <linearGradient id="linear-gradient-44" x1="0.882" y1="-6.312" x2="0.433" y2="1.686" xlink:href="#linear-gradient-11"/>
    <linearGradient id="linear-gradient-46" x1="0.853" y1="-0.373" x2="0.271" y2="1.066" xlink:href="#linear-gradient-11"/>
    <linearGradient id="linear-gradient-47" x1="1.894" y1="-1.735" x2="-0.066" y2="1.4" xlink:href="#linear-gradient-11"/>
    <linearGradient id="linear-gradient-48" x1="0.627" y1="-2.976" x2="0.365" y2="4.175" xlink:href="#linear-gradient-11"/>
    <linearGradient id="linear-gradient-49" x1="0.669" y1="-4.101" x2="0.407" y2="3.049" xlink:href="#linear-gradient-11"/>
    <linearGradient id="linear-gradient-50" x1="0.71" y1="-5.226" x2="0.448" y2="1.924" xlink:href="#linear-gradient-11"/>
  </defs>
  <g id="Grupo_54993" data-name="Grupo 54993" transform="translate(-285 -3362.785)">
    <g id="CF1_curva" transform="translate(265.47 3329.356)">
      <g id="Grupo_54649" data-name="Grupo 54649" transform="translate(22.451 33.428)">
        <g id="Grupo_54644" data-name="Grupo 54644" transform="translate(0 28.505)">
          <g id="Grupo_54641" data-name="Grupo 54641" transform="translate(33.983 34.755)" opacity="0.3">
            <path id="Trazado_104354" data-name="Trazado 104354" d="M137.323,112.36a1.355,1.355,0,0,1,1.6.85c.521,1.443.986,2.927,1.379,4.418a1.355,1.355,0,0,1-.954,1.66h0a1.339,1.339,0,0,1-1.6-.962c-.385-1.411-.8-2.823-1.315-4.194a1.347,1.347,0,0,1,.8-1.732Zm2.75,11.483a1.108,1.108,0,0,1,.16,0,1.355,1.355,0,0,1,1.516,1.171c.192,1.532.321,3.079.377,4.611a1.356,1.356,0,1,1-2.71.1c-.056-1.451-.176-2.927-.361-4.378a1.363,1.363,0,0,1,1.018-1.508Zm.16,11.811a1.235,1.235,0,0,1,.457,0,1.347,1.347,0,0,1,1.211,1.483c-.152,1.524-.369,3.063-.658,4.571a1.355,1.355,0,1,1-2.662-.5c.273-1.435.481-2.895.625-4.346A1.339,1.339,0,0,1,140.234,135.654ZM137.74,147.2a1.275,1.275,0,0,1,.754,0,1.355,1.355,0,0,1,.858,1.716c-.5,1.451-1.05,2.9-1.668,4.314a1.356,1.356,0,1,1-2.486-1.083c.585-1.339,1.115-2.718,1.6-4.1A1.347,1.347,0,0,1,137.74,147.2Zm-5,10.7a1.4,1.4,0,0,1,1.034.16,1.355,1.355,0,0,1,.449,1.868c-.8,1.307-1.668,2.6-2.574,3.833a1.357,1.357,0,0,1-2.189-1.6c.866-1.179,1.692-2.406,2.454-3.648a1.371,1.371,0,0,1,.826-.609Zm-7.217,9.334a1.339,1.339,0,0,1,1.267.337,1.363,1.363,0,0,1,0,1.924c-1.074,1.1-2.205,2.165-3.368,3.167a1.355,1.355,0,0,1-1.772-2.045c1.1-.962,2.173-1.973,3.207-3.015a1.3,1.3,0,0,1,.642-.369ZM78.041,182.29a1.507,1.507,0,0,1,.569,0c1.435.273,2.895.473,4.354.617a1.358,1.358,0,1,1-.265,2.7c-1.532-.152-3.071-.369-4.587-.649a1.355,1.355,0,0,1-.072-2.654Zm38.321-7.578a1.355,1.355,0,0,1,1.066,2.454c-1.291.8-2.63,1.6-4.009,2.341a1.361,1.361,0,0,1-1.275-2.406c1.291-.69,2.566-1.435,3.785-2.229A1.4,1.4,0,0,1,116.362,174.713Zm-26.534,8.42a1.017,1.017,0,0,1,.273,0c1.451-.064,2.927-.184,4.378-.369a1.355,1.355,0,1,1,.337,2.686c-1.524.192-3.071.329-4.6.393a1.355,1.355,0,0,1-.385-2.67Zm15.973-3.159a1.356,1.356,0,0,1,.8,2.59c-1.443.521-2.927.994-4.41,1.4h0a1.357,1.357,0,1,1-.674-2.63,42.937,42.937,0,0,0,4.186-1.323Z" transform="translate(-67.819 -112.319)" fill="#bbabf5"/>
            <path id="Trazado_104355" data-name="Trazado 104355" d="M66.609,196.351a1.347,1.347,0,0,1,.8.056c.65.249,1.323.489,1.989.714a1.355,1.355,0,0,1-.866,2.566c-.7-.233-1.4-.489-2.093-.746a1.363,1.363,0,0,1-.8-1.756,1.339,1.339,0,0,1,.97-.834Z" transform="translate(-65.552 -128.961)" fill="#bbabf5"/>
          </g>
          <g id="Grupo_54642" data-name="Grupo 54642" opacity="0.3">
            <path id="Trazado_104356" data-name="Trazado 104356" d="M29.483,160.608a1.347,1.347,0,0,1,1.6.8c.273.641.561,1.291.866,1.924A1.358,1.358,0,0,1,29.5,164.5c-.313-.674-.617-1.355-.906-2.029a1.355,1.355,0,0,1,.714-1.78Z" transform="translate(-24.225 -87.122)" fill="#bbabf5"/>
            <path id="Trazado_104357" data-name="Trazado 104357" d="M64.29,70.543c.6-.152,1.219-.289,1.828-.417a1.356,1.356,0,0,1,.561,2.654c-1.419.3-2.823.658-4.186,1.066a1.359,1.359,0,1,1-.8-2.6C62.558,70.992,63.424,70.759,64.29,70.543Zm8.917-1.419a1.082,1.082,0,0,1,.233,0c1.507-.112,3.039-.16,4.547-.144a1.363,1.363,0,0,1,0,2.718c-1.435,0-2.887,0-4.322.128a1.355,1.355,0,0,1-.425-2.662Zm-18.17,4.683a1.355,1.355,0,0,1,.874,2.51c-1.3.593-2.6,1.259-3.849,1.965a1.375,1.375,0,1,1-1.331-2.406c1.315-.746,2.678-1.435,4.057-2.061A1.163,1.163,0,0,1,55.037,73.806ZM84.826,69.6a1.3,1.3,0,0,1,.529,0c1.491.225,2.991.513,4.466.866A1.356,1.356,0,0,1,89.2,73.1c-1.4-.329-2.823-.609-4.242-.8a1.355,1.355,0,0,1-.128-2.654ZM45.077,79.732a1.355,1.355,0,0,1,1.147,2.406c-1.139.866-2.261,1.8-3.328,2.758a1.357,1.357,0,1,1-1.82-2.013c1.123-1.01,2.3-1.989,3.5-2.9A1.5,1.5,0,0,1,45.077,79.732Zm-8.412,8.011a1.379,1.379,0,0,1,1.2.281,1.355,1.355,0,0,1,.16,1.908c-.922,1.1-1.812,2.253-2.646,3.424a1.363,1.363,0,0,1-2.205-1.6c.866-1.227,1.8-2.406,2.782-3.592A1.339,1.339,0,0,1,36.666,87.743Zm-6.471,9.622a1.371,1.371,0,0,1,.954.12,1.355,1.355,0,0,1,.577,1.828c-.666,1.275-1.283,2.59-1.836,3.913a1.357,1.357,0,0,1-2.5-1.05c.585-1.387,1.235-2.774,1.932-4.122a1.387,1.387,0,0,1,.866-.658Zm-4.2,10.841a1.339,1.339,0,0,1,.666,0,1.355,1.355,0,0,1,.962,1.66c-.369,1.387-.682,2.807-.93,4.226a1.357,1.357,0,1,1-2.67-.481c.265-1.483.593-2.975.986-4.442a1.347,1.347,0,0,1,.978-.93Zm-1.732,11.5a1.187,1.187,0,0,1,.377-.04,1.363,1.363,0,0,1,1.3,1.451c-.056,1.435-.048,2.887,0,4.322a1.357,1.357,0,0,1-2.71.128c-.072-1.516-.072-3.047,0-4.547a1.347,1.347,0,0,1,1.026-1.283Zm.842,11.587h.08a1.355,1.355,0,0,1,1.6,1.091c.192,1.034.417,2.085.666,3.1l.289,1.107a1.363,1.363,0,0,1-.954,1.668,1.339,1.339,0,0,1-1.66-.954c-.1-.385-.208-.8-.3-1.163-.265-1.083-.505-2.181-.706-3.272a1.363,1.363,0,0,1,.978-1.548Z" transform="translate(-23.173 -68.976)" fill="#bbabf5"/>
            <path id="Trazado_104358" data-name="Trazado 104358" d="M113.849,73.42a1.363,1.363,0,0,1,.8.048c.682.265,1.371.553,2.053.85a1.356,1.356,0,0,1-1.083,2.486c-.641-.281-1.3-.553-1.949-.8a1.347,1.347,0,0,1,.16-2.574Z" transform="translate(-40.93 -69.849)" fill="#bbabf5"/>
          </g>
          <g id="Grupo_54643" data-name="Grupo 54643" transform="translate(13.415 13.668)">
            <path id="Trazado_104359" data-name="Trazado 104359" d="M101.411,91.617a.641.641,0,0,0-.738,0l-6.415,4.322a33.51,33.51,0,0,0-10.512-2.718l-3.52-6.856a.625.625,0,0,0-.65-.337l-9.125,1.3a.65.65,0,0,0-.537.513L68.455,95.4a33.831,33.831,0,0,0-9.366,5.549l-7.337-2.406a.649.649,0,0,0-.706.225l-5.549,7.4a.625.625,0,0,0,0,.73l4.322,6.415a33.5,33.5,0,0,0-2.71,10.544l-6.864,3.512a.641.641,0,0,0-.337.658l1.307,9.157a.633.633,0,0,0,.505.529l7.57,1.459a33.406,33.406,0,0,0,5.5,9.374l-2.366,7.345a.617.617,0,0,0,.225.7l7.377,5.589a.625.625,0,0,0,.738,0l6.415-4.322a33.5,33.5,0,0,0,10.528,2.718l3.52,6.864a.625.625,0,0,0,.65.337l9.157-1.307a.641.641,0,0,0,.537-.505l1.459-7.57a33.806,33.806,0,0,0,9.366-5.541l7.337,2.366a.65.65,0,0,0,.706-.225l5.549-7.4a.641.641,0,0,0,0-.738l-4.322-6.415a33.558,33.558,0,0,0,2.71-10.545l6.864-3.512a.649.649,0,0,0,.337-.658l-1.307-9.157a.633.633,0,0,0-.505-.529l-7.57-1.459a33.405,33.405,0,0,0-5.533-9.334l2.406-7.345a.617.617,0,0,0-.225-.7Z" transform="translate(-39.902 -86.022)" fill="#bbabf5"/>
            <path id="Trazado_104360" data-name="Trazado 104360" d="M86.252,125.662a9.31,9.31,0,1,1-1.3.425A8.477,8.477,0,0,1,86.252,125.662Zm3.921,15.957a9.277,9.277,0,0,0,1.01-.329,7.121,7.121,0,1,0-1.01.329Z" transform="translate(-47.684 -93.821)" fill="#bdd0fb"/>
            <path id="Trazado_104361" data-name="Trazado 104361" d="M79.495,109.361a22.58,22.58,0,0,1,2.309-.449h0c.249,0,.489-.072.738-.1a23.325,23.325,0,0,1,3.665-.112h.465a.537.537,0,0,1,.489.409.594.594,0,0,1,0,.168.545.545,0,0,1-.577.505,21.37,21.37,0,0,0-4.635.168A21.8,21.8,0,0,0,63.465,134.6c.112.746.257,1.475.433,2.2a21.779,21.779,0,0,0,42.691-8.347,22.1,22.1,0,0,0-.417-2.173,21.875,21.875,0,0,0-4.21-8.46.585.585,0,0,1-.112-.208.545.545,0,0,1,.954-.473,22.757,22.757,0,0,1,4.418,8.885,21.548,21.548,0,0,1,.441,2.277,22.874,22.874,0,0,1-44.832,8.788,19.915,19.915,0,0,1-.449-2.309,22.861,22.861,0,0,1,17.1-25.411Z" transform="translate(-44.31 -90.51)" fill="#bdd0fb"/>
          </g>
        </g>
        <g id="Grupo_54648" data-name="Grupo 54648" transform="translate(74.23)">
          <g id="Grupo_54645" data-name="Grupo 54645" transform="translate(36.696 17.475)" opacity="0.3">
            <path id="Trazado_104362" data-name="Trazado 104362" d="M197.38,55.252a.8.8,0,0,1,.922.385c.361.617.706,1.251,1.026,1.884a.85.85,0,0,1-.369,1.131.8.8,0,0,1-1.123-.377c-.3-.6-.633-1.2-.978-1.788a.8.8,0,0,1,.3-1.147.722.722,0,0,1,.217-.088Z" transform="translate(-168.486 -55.222)" fill="#bbabf5"/>
            <path id="Trazado_104363" data-name="Trazado 104363" d="M193.127,62.532a.8.8,0,0,1,.986.529,30.74,30.74,0,0,1,1.066,3.528c.056.249.12.5.176.754a.866.866,0,0,1-.633,1,.85.85,0,0,1-1-.633l-.168-.722c-.281-1.131-.625-2.269-1.018-3.368a.8.8,0,0,1,.505-1.066Zm1.908,8.484a.464.464,0,0,1,.112,0,.8.8,0,0,1,.922.754,37.536,37.536,0,0,1,.168,4.45.838.838,0,0,1-1.676,0,35.861,35.861,0,0,0-.16-4.25.8.8,0,0,1,.633-.954Zm-.208,8.724a.722.722,0,0,1,.321,0,.8.8,0,0,1,.706.946,35.165,35.165,0,0,1-.93,4.362.8.8,0,0,1-1.026.585.842.842,0,0,1-.585-1.034,33.6,33.6,0,0,0,.89-4.154A.8.8,0,0,1,194.827,79.74Zm-2.333,8.339a.8.8,0,0,1,.97,1.139,36.263,36.263,0,0,1-1.965,4.009.833.833,0,0,1-1.459-.8,33.679,33.679,0,0,0,1.876-3.865A.874.874,0,0,1,192.494,88.08Zm-4.314,7.554a.83.83,0,0,1,.874,1.315,36.432,36.432,0,0,1-2.879,3.4.839.839,0,1,1-1.211-1.163,35.344,35.344,0,0,0,2.75-3.207.866.866,0,0,1,.465-.345Zm-6.014,6.279a.818.818,0,1,1,.738,1.459,36.883,36.883,0,0,1-3.624,2.6.842.842,0,0,1-1.155-.273.8.8,0,0,1,.265-1.147,36.158,36.158,0,0,0,3.456-2.478A.754.754,0,0,1,182.166,101.912Zm-7.361,4.611a.848.848,0,0,1,.553,1.6,36.136,36.136,0,0,1-4.146,1.6.842.842,0,0,1-.513-1.6,34.239,34.239,0,0,0,3.953-1.548Zm-12.589,3.207h.144a33.719,33.719,0,0,0,3.673-.441l.545-.1a.817.817,0,1,1,.313,1.6l-.577.1a36.63,36.63,0,0,1-3.841.465.836.836,0,0,1-.257-1.652Z" transform="translate(-161.507 -56.664)" fill="#bbabf5"/>
          </g>
          <g id="Grupo_54646" data-name="Grupo 54646" opacity="0.3">
            <path id="Trazado_104364" data-name="Trazado 104364" d="M141.841,34.56a.829.829,0,0,1,.417,1.6,36,36,0,0,0-4.009,1.3.837.837,0,0,1-.617-1.556,36.171,36.171,0,0,1,4.17-1.363Zm4.21-.8h.088a34.617,34.617,0,0,1,4.37-.329.8.8,0,0,1,.85.8.85.85,0,0,1-.8.858,33.052,33.052,0,0,0-4.17.313.837.837,0,1,1-.313-1.644Zm-12.156,4.009a.842.842,0,0,1,.938.417.8.8,0,0,1-.337,1.131,35.955,35.955,0,0,0-3.544,2.221.8.8,0,0,1-1.171-.192.842.842,0,0,1,.2-1.171,36.083,36.083,0,0,1,3.713-2.325.617.617,0,0,1,.2-.144Zm20.7-4.106a.914.914,0,0,1,.3,0,34.481,34.481,0,0,1,4.322.738.824.824,0,0,1-.377,1.6,34.166,34.166,0,0,0-4.13-.706.873.873,0,0,1-.112-1.7Zm-27.656,9.045a.8.8,0,0,1,.8.241.842.842,0,0,1-.048,1.187,34.36,34.36,0,0,0-2.927,2.983.836.836,0,0,1-1.267-1.091,36.367,36.367,0,0,1,3.039-3.151.858.858,0,0,1,.4-.168Zm-5.557,6.5a.826.826,0,0,1,.9,1.275,35.356,35.356,0,0,0-2.1,3.616.839.839,0,0,1-1.5-.754,37.331,37.331,0,0,1,2.205-3.793.8.8,0,0,1,.5-.369Zm-3.833,7.618a.8.8,0,0,1,.986,1.075,33.68,33.68,0,0,0-1.171,4.009.823.823,0,0,1-1.6-.369,36.632,36.632,0,0,1,1.227-4.21A.85.85,0,0,1,117.553,56.82Z" transform="translate(-115.744 -33.428)" fill="#bbabf5"/>
            <path id="Trazado_104365" data-name="Trazado 104365" d="M174.48,36.071a.858.858,0,0,1,.489,0c.674.249,1.339.513,1.989.8a.84.84,0,0,1-.674,1.54c-.617-.273-1.251-.529-1.892-.8a.793.793,0,0,1,.088-1.54Z" transform="translate(-127.253 -33.945)" fill="#bbabf5"/>
          </g>
          <g id="Grupo_54647" data-name="Grupo 54647" transform="translate(7.994 9.043)">
            <path id="Trazado_104366" data-name="Trazado 104366" d="M166.838,48.462a.433.433,0,0,0-.5,0L162.1,51.357a22.324,22.324,0,0,0-7.056-1.812l-2.349-4.6a.425.425,0,0,0-.433-.233l-6.134.874a.433.433,0,0,0-.353.345l-.978,5.06a22.7,22.7,0,0,0-6.271,3.713l-4.907-1.6a.425.425,0,0,0-.473.144L129.431,58.2a.425.425,0,0,0,0,.489l2.895,4.274a22.38,22.38,0,0,0-1.812,7.056l-4.571,2.374a.417.417,0,0,0-.225.441l.866,6.126a.433.433,0,0,0,.345.353l5.06.978a22.7,22.7,0,0,0,3.713,6.271l-1.6,4.907a.425.425,0,0,0,.144.473l4.956,3.713a.425.425,0,0,0,.489,0l4.274-2.895a22.38,22.38,0,0,0,7.056,1.812l2.349,4.595a.433.433,0,0,0,.441.225l6.126-.874a.433.433,0,0,0,.361-.345l.97-5.06a22.387,22.387,0,0,0,6.271-3.713l4.907,1.6a.441.441,0,0,0,.473-.152l3.713-4.956a.409.409,0,0,0,0-.489l-2.895-4.274a22.38,22.38,0,0,0,1.812-7.056l4.595-2.349a.425.425,0,0,0,.225-.441l-.874-6.126a.417.417,0,0,0-.337-.353l-5.068-.978a22.508,22.508,0,0,0-3.713-6.271l1.6-4.907a.433.433,0,0,0-.152-.473Z" transform="translate(-125.713 -44.706)" fill="#bbabf5"/>
            <path id="Trazado_104367" data-name="Trazado 104367" d="M156.7,71.092a6.415,6.415,0,1,1-.9.3,7.352,7.352,0,0,1,.9-.3Zm2.622,10.681a5.14,5.14,0,0,0,.65-.217,4.659,4.659,0,1,0-3.536-8.62h0a4.659,4.659,0,0,0,2.887,8.821Z" transform="translate(-130.89 -49.896)" fill="#bdd0fb"/>
            <path id="Trazado_104368" data-name="Trazado 104368" d="M152.037,59.746a15.8,15.8,0,0,1,1.6-.3,16.037,16.037,0,0,1,3.207-.128h.144a.8.8,0,0,1,.754.633,1.357,1.357,0,0,1,0,.265.8.8,0,0,1-.9.8,13.92,13.92,0,0,0-3,.112h-.16a13.888,13.888,0,0,0-6.367,2.686,14.642,14.642,0,0,0-2.686,2.678h0l-.056.08a14.025,14.025,0,0,0-2.686,10.424,14.083,14.083,0,1,0,27.889-3.945c-.072-.473-.16-.938-.273-1.4a14.08,14.08,0,0,0-2.726-5.477.986.986,0,0,1-.168-.329.819.819,0,1,1,1.467-.73,15.777,15.777,0,1,1-27.568,13.784c-.128-.521-.233-1.058-.313-1.6a15.8,15.8,0,0,1,11.836-17.545Z" transform="translate(-128.553 -47.594)" fill="#bdd0fb"/>
          </g>
        </g>
      </g>
      <g id="Grupo_54650" data-name="Grupo 54650" transform="translate(19.53 84.903)">
        <path id="Trazado_104369" data-name="Trazado 104369" d="M300.5,319.986l67.076-128.491H353.824a3,3,0,0,1-2.317-4.907l71.486-87.123a5.044,5.044,0,0,1,8.933,3.5l-5.028,85.2a8.516,8.516,0,0,1-9.462,7.954l-9.582-1.1L341.3,339.134a10.585,10.585,0,0,1-9.622,6.15H308.623Z" transform="translate(-75.2 -97.622)" fill="url(#linear-gradient)"/>
        <path id="Trazado_104370" data-name="Trazado 104370" d="M231.35,258.064l47.31,105.181A17.368,17.368,0,0,0,294.5,373.477h24.409a8.916,8.916,0,0,0,7.794-4.586l.866-1.564h0a6.96,6.96,0,0,1-6.214-3.809L258.333,239.91Z" transform="translate(-61.499 -125.814)" fill="url(#linear-gradient-2)"/>
        <path id="Trazado_104371" data-name="Trazado 104371" d="M241.424,249.375h0a10.36,10.36,0,0,0-15.043,2.406L156.763,356.36a30.062,30.062,0,0,1-25.034,13.407h-9.791L114,346.818s64.686-99.255,81.365-114.266c0,0,16.615-14.971,32.989-3.648a27.264,27.264,0,0,1,9.622,12.124Z" transform="translate(-38.248 -122.794)" fill="url(#linear-gradient-3)"/>
        <path id="Trazado_104372" data-name="Trazado 104372" d="M19.53,295.839S31.181,281.277,53.762,279c0,0,10.729,3.656,32.075,41.946s35.555,55.746,52.193,46.211l-1.371,2.285a25.114,25.114,0,0,1-21.49,12.116h-9.205c-10.136,0-18.932-15.6-24.858-23.831C64.483,334.609,29.746,299.391,19.53,295.839Z" transform="translate(-19.53 -133.559)" fill="url(#linear-gradient-4)"/>
        <path id="Trazado_104373" data-name="Trazado 104373" d="M454.181,136.485h-.072a.649.649,0,0,1-.569-.714l.473-4.162a.65.65,0,1,1,1.283.144l-.473,4.162a.65.65,0,0,1-.641.569Z" transform="translate(-105.522 -104.228)" fill="#bdd0fb"/>
        <path id="Trazado_104374" data-name="Trazado 104374" d="M379.761,183.895a.618.618,0,0,1-.393-.136.641.641,0,0,1-.112-.906l59.025-76.69a2.454,2.454,0,0,1,4.386,1.772l-1.042,9.189a.65.65,0,1,1-1.283-.144l1.042-9.189a1.171,1.171,0,0,0-2.085-.842l-59.025,76.674A.658.658,0,0,1,379.761,183.895Z" transform="translate(-90.777 -99.123)" fill="#bdd0fb"/>
        <path id="Trazado_104375" data-name="Trazado 104375" d="M212.77,291.6a.585.585,0,0,1-.361-.112.633.633,0,0,1-.176-.89l30.527-45.249a5.364,5.364,0,0,1,9.294.706.65.65,0,1,1-1.171.545,4.065,4.065,0,0,0-7.056-.529L213.3,291.317a.634.634,0,0,1-.529.281Z" transform="translate(-57.689 -126.423)" fill="#bdd0fb"/>
        <path id="Trazado_104376" data-name="Trazado 104376" d="M202.842,317.243a.682.682,0,0,1-.361-.112.65.65,0,0,1-.168-.9l1.957-2.9a.644.644,0,0,1,1.066.722l-1.957,2.9a.641.641,0,0,1-.537.289Z" transform="translate(-55.723 -140.305)" fill="#fff"/>
      </g>
      <g id="Grupo_54655" data-name="Grupo 54655" transform="translate(124.846 119.991)">
        <path id="Trazado_104377" data-name="Trazado 104377" d="M216.022,430.65s-.858,4.811-1.275,9.622a3.312,3.312,0,0,0,3.159,3.576c6.375.265,20.047.8,24.922.561a1.075,1.075,0,0,0,.986-1.451h0a2.406,2.406,0,0,0-1.227-1.291L220,431.3Z" transform="translate(-163.523 -198.695)" fill="url(#linear-gradient-5)"/>
        <path id="Trazado_104378" data-name="Trazado 104378" d="M215.47,426.888l.682,5.789s3.953,1.836,6.647-.233l-1.6-6.455Z" transform="translate(-163.669 -197.771)" fill="url(#linear-gradient-6)"/>
        <path id="Trazado_104379" data-name="Trazado 104379" d="M211.69,291.37c-.3,1.516-1.6,75.447,6.311,108.581a1.123,1.123,0,0,1-.658,1.307,19.622,19.622,0,0,1-6.415,1.307A1.941,1.941,0,0,1,209,401.177c-2.253-7.69-13.078-46.2-14.49-82.993-1.6-41.112,0-1.4,0-1.4l.922-25.411Z" transform="translate(-159.375 -171.098)" fill="url(#linear-gradient-7)"/>
        <path id="Trazado_104380" data-name="Trazado 104380" d="M183.328,433.8s-1.363,2.446-2.678,8.941a2.013,2.013,0,0,0,1.772,2.406c2.109.2,5.348.473,7.946.449a2,2,0,0,0,1.989-2.237,16.967,16.967,0,0,0-3.953-9.286Z" transform="translate(-156.761 -199.319)" fill="url(#linear-gradient-8)"/>
        <path id="Trazado_104381" data-name="Trazado 104381" d="M182.51,424.435l1.6,8.756s1.6,1.179,4.723.321l-.8-9.422Z" transform="translate(-157.138 -197.395)" fill="url(#linear-gradient-9)"/>
        <path id="Trazado_104382" data-name="Trazado 104382" d="M176.485,293.19c-6.463,39.011,1.4,96.416,4.057,107.65a1.764,1.764,0,0,0,1.411,1.331,11.813,11.813,0,0,0,5.06-.208,1.6,1.6,0,0,0,1.155-1.475c.353-9.085-.289-64.847,5.733-86.882a4.98,4.98,0,0,1,1.932-2.758l11.691-8.315.89-13.431Z" transform="translate(-155.451 -170.648)" fill="url(#linear-gradient-10)"/>
        <g id="Grupo_54651" data-name="Grupo 54651" transform="translate(18.618 18.634)">
          <path id="Trazado_104383" data-name="Trazado 104383" d="M217.687,201.215c-19.365-.321-40.743,5.084-40.743,5.084-5.773,33.678-1.01,72.553-1.01,72.553,15,3.929,31.914-2.406,31.914-2.406,2.494-14.081,14.121-53.725,14.121-53.725a63.732,63.732,0,0,0,23.679-7.513c-4.891-5.677-7.217-12.9-8.2-17.168A65.208,65.208,0,0,1,217.687,201.215Z" transform="translate(-174.087 -171.24)" fill="url(#linear-gradient-11)"/>
          <path id="Trazado_104384" data-name="Trazado 104384" d="M290.555,166.087a3.7,3.7,0,0,0-4.306-1.211c-2.855,12.028-17.8,21.8-33.149,26.574,1,4.266,3.312,11.491,8.2,17.168C286.786,194.289,290.555,166.087,290.555,166.087Z" transform="translate(-189.742 -164.618)" fill="url(#linear-gradient-12)"/>
        </g>
        <g id="Grupo_54652" data-name="Grupo 54652" transform="translate(115.123 0)">
          <path id="Trazado_104385" data-name="Trazado 104385" d="M298.289,162.068c.2.633-2.109,1.6-3.464-.994-.048-1.243-.8-6.559-.064-7.57,3.953-5.381,11.6-12.124,11.6-12.124a1.812,1.812,0,0,1,.233,2.526l-3.689,3.873a16.914,16.914,0,0,1,2.165,4.282,5.212,5.212,0,0,1-.521,3.833,40.761,40.761,0,0,1-2.406,3.9,5.124,5.124,0,0,1-3.857,2.277Z" transform="translate(-294.438 -141.38)" fill="url(#linear-gradient-13)"/>
          <path id="Trazado_104386" data-name="Trazado 104386" d="M301.842,152.49l-3.384,2.863-1.059,2.863,3.015,3.344s1.01-5.669,1.764-6.9S302.548,152.843,301.842,152.49Z" transform="translate(-295.025 -143.581)" fill="url(#linear-gradient-14)"/>
        </g>
        <path id="Trazado_104387" data-name="Trazado 104387" d="M179.878,227.126l-7.433-18.756s-18.09,12.293-21.065,27.881a42.66,42.66,0,0,1,15.733,4.218C168.444,233.108,179.878,227.126,179.878,227.126Z" transform="translate(-150.97 -154.653)" fill="url(#linear-gradient-15)"/>
        <path id="Trazado_104388" data-name="Trazado 104388" d="M195.59,251.664s-20.319,11.483-27.167,1.676a7.706,7.706,0,0,1-1.411-5.982,42.659,42.659,0,0,0-15.725-4.218,21.474,21.474,0,0,0,2.341,14.746c12,21.963,44.656-1.227,44.656-1.227Z" transform="translate(-150.869 -161.542)" fill="url(#linear-gradient-16)"/>
        <g id="Grupo_54653" data-name="Grupo 54653" transform="translate(42.226 58.954)">
          <path id="Trazado_104389" data-name="Trazado 104389" d="M203.578,261.518l11.09-38.714a1.107,1.107,0,0,1,.954-.8c2-.241,7.826-.9,14.546-1.459,8.1-.69,17.5-1.243,23.118-.8a1.131,1.131,0,0,1,.922,1.6c-3.207,6.463-16.334,32.748-22.917,41.36a1.107,1.107,0,0,1-.922.513l-25.716-.241a1.131,1.131,0,0,1-1.074-1.459Z" transform="translate(-203.529 -215.829)" fill="url(#linear-gradient-17)"/>
          <path id="Trazado_104390" data-name="Trazado 104390" d="M237.943,216.247l8.019-1.339a.577.577,0,0,1,.641.746l-.8,2.406a.593.593,0,0,1-.473.393l-7.73,1.034a.585.585,0,0,1-.641-.706l.489-2.1A.585.585,0,0,1,237.943,216.247Z" transform="translate(-210.15 -214.901)" fill="url(#linear-gradient-18)"/>
          <path id="Trazado_104391" data-name="Trazado 104391" d="M230.677,223.65l.666-3.456a.8.8,0,0,1,.7-.641l16.238-1.644a.8.8,0,0,1,.858.978l-1.034,4.3a.8.8,0,0,1-.738.609l-15.861.8a.8.8,0,0,1-.826-.946Z" transform="translate(-208.905 -215.496)" fill="url(#linear-gradient-19)"/>
          <path id="Trazado_104392" data-name="Trazado 104392" d="M206.666,256.958s-1.54-6.351-.922-8.6,1.836-5.148,5.854-4.506a58.42,58.42,0,0,1,8.756,2.341,2.3,2.3,0,0,1-3.3,1.981l1.892,1.467s-.273,2.349-2.855,1.1l1.764,1.948a2.053,2.053,0,0,1-3.007.69C212.969,252.139,212.055,257.72,206.666,256.958Z" transform="translate(-203.939 -220.618)" fill="url(#linear-gradient-20)"/>
        </g>
        <path id="Trazado_104393" data-name="Trazado 104393" d="M202.466,182.42l-6.158,17.825a.633.633,0,0,0,.289.8c1.684.93,7.738,3.616,15.027-1.01a3.007,3.007,0,0,0,1.4-2.157l2-15.428Z" transform="translate(-159.862 -149.511)" fill="url(#linear-gradient-21)"/>
        <g id="Grupo_54654" data-name="Grupo 54654" transform="translate(32.703 4.836)">
          <path id="Trazado_104394" data-name="Trazado 104394" d="M213.015,158.2c.241.225,10.208,19.734,10.208,19.734L212,183.375,199.84,166.3S208.981,154.4,213.015,158.2Z" transform="translate(-193.275 -149.401)" fill="url(#linear-gradient-22)"/>
          <path id="Trazado_104395" data-name="Trazado 104395" d="M203.157,164.763a1.8,1.8,0,0,0,.128,1.6l5.613,9.358a2.352,2.352,0,0,0,.313.385c.666.617,2.951,2.406,4.715,0,1.508-2.1,2.919-4.009,4.434-4.811a1.788,1.788,0,0,1,2.406.8,67.5,67.5,0,0,1,3.841,9.109,1.8,1.8,0,0,1-1.042,2.2,49.82,49.82,0,0,1-10.785,3.087,1.812,1.812,0,0,1-1.692-.722c-1.724-2.357-6.567-8.941-8.219-10.585s-4.37-.954-5.613-.585a1.788,1.788,0,0,1-1.427-.192c-1.3-.8-3.56-2.726-1.491-6.014a1.812,1.812,0,0,0-.553-2.446c-1.451-.946-3.023-2.734-1.524-5.613a5.638,5.638,0,0,1,6.062-2.967,1.868,1.868,0,0,0,1.957-1.091,1.179,1.179,0,0,1,.922-.73,1.732,1.732,0,0,0,1.411-2.045,4.6,4.6,0,0,1,2.566-5.268c4.859-2.67,9.109,1.684,10.192,5.356s-4.346,6.263-7.762,6.7C205.058,160.593,203.686,163.327,203.157,164.763Z" transform="translate(-191.652 -147.411)" fill="url(#linear-gradient-23)"/>
          <path id="Trazado_104396" data-name="Trazado 104396" d="M206.245,184.825s-2.157-6.319-4.923-6.086-4.939,2.991-1.516,6.078C204.072,188.666,206.245,184.825,206.245,184.825Z" transform="translate(-192.92 -153.617)" fill="url(#linear-gradient-24)"/>
        </g>
      </g>
      <g id="Grupo_54657" data-name="Grupo 54657" transform="translate(57.045 136.353)">
        <path id="Trazado_104397" data-name="Trazado 104397" d="M130.949,173.3s-5.036,2.406-5.958,5.26c-.746,2.261-6.311,2.55-6.864,6.984a5.092,5.092,0,0,1-4.258,4.482c-5.685.866-14.434,3.817-15.845,13.688-1.074,7.538,2.766,10.424,6.8,11.378a5.725,5.725,0,0,1,4.33,6.6c-.577,2.863.281,6.174,5.244,8.821,11.13,5.87,22.244-13.912,22.244-13.912l2.277-34.544Z" transform="translate(-72.562 -164.066)" fill="url(#linear-gradient-25)"/>
        <path id="Trazado_104398" data-name="Trazado 104398" d="M78.956,442.859l-.714,5.918a2.454,2.454,0,0,1-2.149,2.141,37.516,37.516,0,0,1-7.922.12,2.085,2.085,0,0,1-1.756-2.71c.722-2.285,2.053-5.717,4.009-7.738h6.567a2.021,2.021,0,0,1,1.965,2.269Z" transform="translate(-66.315 -217.026)" fill="url(#linear-gradient-26)"/>
        <path id="Trazado_104399" data-name="Trazado 104399" d="M143.088,356.93l1.107,6.519s-3.7,37.64-4.37,52.642a11.8,11.8,0,0,0,1.74,6.7l6.415,10.48-16.4-9.678-.329-2,2.686-3.689-3.52-42.122a12.83,12.83,0,0,1,1.475-7.145l3.392-6.375Z" transform="translate(-79.007 -200.45)" fill="url(#linear-gradient-27)"/>
        <path id="Trazado_104400" data-name="Trazado 104400" d="M149.01,450.152h-5.236a3.208,3.208,0,0,1-2.5-1.227c-1.6-2.125-5.012-6.263-6.623-6.367-2.181-.144-1.9,7.594-1.9,7.594H131.53l-1.548-9.622a5.693,5.693,0,0,1,2.983-5.95h0s.5,3.681,3.207,5.3,10.978,7.457,10.978,7.457a7.483,7.483,0,0,1,2.125.056,1.387,1.387,0,0,1-.265,2.758Z" transform="translate(-78.915 -215.835)" fill="url(#linear-gradient-28)"/>
        <path id="Trazado_104401" data-name="Trazado 104401" d="M108.5,360.121s-21.747,41.256-25.2,50.686a90.746,90.746,0,0,0-4.715,18.018c-.072,1.163-1.516,2.277-5.5,2.277-2.061,0-3.063-.8-3.56-1.6a2.341,2.341,0,0,1-.088-2.253c1.259-2.542,5.252-10.681,6.728-14.369,1.764-4.4,5.565-24.369,7.65-31.313s4.434-14.474,13.5-21.41C97.31,360.121,103.516,354.027,108.5,360.121Z" transform="translate(-66.883 -200.546)" fill="url(#linear-gradient-29)"/>
        <path id="Trazado_104402" data-name="Trazado 104402" d="M133.216,264.212c5.613-23.767-8.6-37.206-8.6-37.206,8.965-8.612,25.3-12.525,25.3-12.525s15.588,11.395,13.744,20.319c-1.091,5.228-10.961,31.313-10.961,31.313A21.688,21.688,0,0,1,133.216,264.212Z" transform="translate(-77.867 -172.226)" fill="url(#linear-gradient-30)"/>
        <path id="Trazado_104403" data-name="Trazado 104403" d="M116.573,288.271c2.285-6.88,12.437-11.771,12.437-11.771a21.688,21.688,0,0,0,19.485,1.9s2.045,7.826.633,15.1-10.28,54.014-10.28,54.014c-13.968,2.831-35.458-2.847-35.458-2.847C112.291,328.87,114.3,295.151,116.573,288.271Z" transform="translate(-73.661 -184.514)" fill="url(#linear-gradient-31)"/>
        <path id="Trazado_104404" data-name="Trazado 104404" d="M142.315,194.409,137.753,214.9c-.433,1.8,1.211,1.508,3.039,1.163,2.983-.561,6.832-1.724,8.123-4.009a2.317,2.317,0,0,0,.233-.8l1.957-14.209a2.542,2.542,0,0,0-1.491-2.678l-3.777-1.676a2.55,2.55,0,0,0-3.52,1.724Z" transform="translate(-80.456 -167.863)" fill="url(#linear-gradient-32)"/>
        <path id="Trazado_104405" data-name="Trazado 104405" d="M120.806,230.1s-31.834,22.773-4.073,46.7a7.217,7.217,0,0,0,3.143,1.82c1.05.313,4.162,2.662,5.733,3.889a1.075,1.075,0,0,0,1.6-.281h0a1.5,1.5,0,0,0,.088-1.411l-3.969-8.3a3.039,3.039,0,0,0-3.945-.168h0a1.5,1.5,0,0,1-2.277-.513c-2.141-4.37-6.2-17.224,10.424-31.754a1.8,1.8,0,0,0,.393-2.181C126.723,235.633,124.069,231.183,120.806,230.1Z" transform="translate(-74.053 -175.32)" fill="url(#linear-gradient-33)"/>
        <g id="Grupo_54656" data-name="Grupo 54656" transform="translate(52.847)">
          <path id="Trazado_104406" data-name="Trazado 104406" d="M151.423,171.419s4.811,3.288,6.936,11.659-1.3,11.37-4.811,11.226-8.484-1.3-12.838-7.329S145.056,167.4,151.423,171.419Z" transform="translate(-133.67 -163.549)" fill="url(#linear-gradient-34)"/>
          <path id="Trazado_104407" data-name="Trazado 104407" d="M143.655,181.86s-1.78-11.988,8.179-10.16l2.013,2.1s4.875-5.493-.521-9.622-12.878-3.087-17.016,4.466-5.613,12.83-2.173,17.553,6.078.674,6.078.674-1.6-4.065-.273-5.806,3.031,1.01,3.031,1.01Z" transform="translate(-132.221 -161.785)" fill="url(#linear-gradient-35)"/>
          <path id="Trazado_104408" data-name="Trazado 104408" d="M143.513,186.934s-.874-6.166-4.009-4.4,1.131,5.765,2.855,7.121Z" transform="translate(-133.442 -165.833)" fill="url(#linear-gradient-36)"/>
        </g>
      </g>
      <g id="Grupo_54659" data-name="Grupo 54659" transform="translate(191.513 68.715)">
        <path id="Trazado_104409" data-name="Trazado 104409" d="M234.988,93.324c7.8-20.576,50.229-23.872,55.858,6.367,5.132,27.552-50.694,36.477-50.694,36.477C269.444,120.78,227.186,113.9,234.988,93.324Z" transform="translate(-234.008 -77.434)" fill="#e4ddfb"/>
        <g id="Grupo_54658" data-name="Grupo 54658" transform="translate(7.968 19.418)">
          <path id="Trazado_104410" data-name="Trazado 104410" d="M288.208,102.772l-25.291-.249a.337.337,0,0,1-.337-.337.353.353,0,0,1,.345-.337l25.275.281a.321.321,0,1,1,.008.641Z" transform="translate(-247.637 -101.69)" fill="#fff"/>
          <path id="Trazado_104411" data-name="Trazado 104411" d="M251.735,102.4l-7.505-.088a.337.337,0,0,1,0-.666l7.505.08a.329.329,0,0,1,.329.337A.337.337,0,0,1,251.735,102.4Z" transform="translate(-243.945 -101.65)" fill="#fff"/>
          <path id="Trazado_104412" data-name="Trazado 104412" d="M293.1,109.23l-9.486-.1a.353.353,0,0,1-.337-.345.345.345,0,0,1,.345-.329l9.486.1a.333.333,0,1,1-.008.666Z" transform="translate(-251.738 -102.999)" fill="#fff"/>
          <path id="Trazado_104413" data-name="Trazado 104413" d="M262.086,108.9l-16.839-.184a.337.337,0,1,1,0-.674l16.839.184a.329.329,0,0,1,.329.337.337.337,0,0,1-.329.337Z" transform="translate(-244.136 -102.916)" fill="#fff"/>
          <path id="Trazado_104414" data-name="Trazado 104414" d="M290.213,115.586l-25.235-.273a.345.345,0,0,1-.329-.345.329.329,0,0,1,.337-.329l25.235.273a.337.337,0,0,1-.008.674Z" transform="translate(-248.047 -104.224)" fill="#fff"/>
          <path id="Trazado_104415" data-name="Trazado 104415" d="M254.926,115.2l-8.732-.1a.337.337,0,1,1,0-.666l8.732.1a.333.333,0,0,1,0,.666Z" transform="translate(-244.313 -104.183)" fill="#fff"/>
        </g>
      </g>
      <g id="Grupo_54661" data-name="Grupo 54661" transform="translate(274.617 185.44)">
        <g id="Grupo_54660" data-name="Grupo 54660" transform="translate(0 0)">
          <circle id="Elipse_4204" data-name="Elipse 4204" cx="38.001" cy="38.001" r="38.001" transform="translate(1.346 69.699) rotate(-66.501)" fill="url(#linear-gradient-37)"/>
          <circle id="Elipse_4205" data-name="Elipse 4205" cx="36.621" cy="36.621" r="36.621" transform="matrix(0.555, -0.832, 0.832, 0.555, 0, 61.677)" fill="url(#linear-gradient-38)"/>
          <path id="Trazado_104416" data-name="Trazado 104416" d="M363.108,264.311a.858.858,0,0,1-.385-.1.8.8,0,0,1-.369-1.123A34.48,34.48,0,0,1,393.323,244a35.285,35.285,0,0,1,6.247.561.843.843,0,1,1-.3,1.66,33.021,33.021,0,0,0-35.4,17.593A.8.8,0,0,1,363.108,264.311Z" transform="translate(-342.522 -227.162)" fill="#fff" opacity="0.78"/>
          <circle id="Elipse_4206" data-name="Elipse 4206" cx="31" cy="31" r="31" transform="matrix(0.984, -0.178, 0.178, 0.984, 15.551, 27.341)" fill="#f57fa3" opacity="0.78"/>
          <path id="Trazado_104417" data-name="Trazado 104417" d="M395.557,305.883v-3.368a27.52,27.52,0,0,1-9.462-2.053,1.957,1.957,0,0,1-1.082-2.3l.858-3.143a1.973,1.973,0,0,1,2.67-1.291,22.87,22.87,0,0,0,8.74,1.844c3.384,0,5.91-1.147,5.91-3.5,0-2.125-1.957-3.384-6.655-4.651-6.736-1.852-11.547-4.787-11.547-10.689,0-5.332,3.905-9.414,10.673-10.5v-3.368a1.965,1.965,0,0,1,1.965-1.965h1.981a1.965,1.965,0,0,1,1.965,1.965v3.023a25.418,25.418,0,0,1,7.505,1.347,1.964,1.964,0,0,1,1.219,2.365l-.8,2.9a1.965,1.965,0,0,1-2.59,1.323,20.552,20.552,0,0,0-7.353-1.331c-4.009,0-5.164,1.66-5.164,3.151,0,1.836,2.406,3.1,7.634,4.707,7.457,2.237,10.561,5.34,10.561,10.905,0,5.108-3.793,9.7-11.138,10.849v3.785a1.965,1.965,0,0,1-1.965,1.965H397.5A1.965,1.965,0,0,1,395.557,305.883Z" transform="translate(-347.018 -230.509)" fill="url(#linear-gradient-39)"/>
        </g>
        <rect id="Rectángulo_5584" data-name="Rectángulo 5584" width="74.229" height="14.137" rx="3.63" transform="translate(13.666 99.221)" fill="url(#linear-gradient-40)"/>
        <rect id="Rectángulo_5585" data-name="Rectángulo 5585" width="74.229" height="14.137" rx="3.63" transform="translate(13.722 116.013)" fill="url(#linear-gradient-41)"/>
        <rect id="Rectángulo_5586" data-name="Rectángulo 5586" width="74.229" height="14.137" rx="3.63" transform="translate(13.786 132.804)" fill="url(#linear-gradient-42)"/>
        <rect id="Rectángulo_5587" data-name="Rectángulo 5587" width="74.229" height="14.137" rx="3.63" transform="translate(13.843 149.595)" fill="url(#linear-gradient-43)"/>
        <rect id="Rectángulo_5588" data-name="Rectángulo 5588" width="74.229" height="14.137" rx="3.63" transform="translate(13.899 166.386)" fill="url(#linear-gradient-44)"/>
      </g>
      <g id="Grupo_54663" data-name="Grupo 54663" transform="translate(192.769 223.983)">
        <g id="Grupo_54662" data-name="Grupo 54662" transform="translate(0 0)">
          <circle id="Elipse_4207" data-name="Elipse 4207" cx="37.88" cy="37.88" r="37.88" transform="translate(0.47 71.012) rotate(-68.56)" fill="url(#linear-gradient-37)"/>
          <circle id="Elipse_4208" data-name="Elipse 4208" cx="36.621" cy="36.621" r="36.621" transform="matrix(0.472, -0.882, 0.882, 0.472, 0, 64.579)" fill="url(#linear-gradient-46)"/>
          <path id="Trazado_104418" data-name="Trazado 104418" d="M259.523,309.991a.923.923,0,0,1-.377-.088.842.842,0,0,1-.369-1.131,34.713,34.713,0,0,1,37.2-18.491.8.8,0,0,1,.674.97.842.842,0,0,1-.978.682,33.349,33.349,0,0,0-5.942-.537,32.876,32.876,0,0,0-29.453,18.13.8.8,0,0,1-.754.465Z" transform="translate(-240.154 -274.762)" fill="#fff" opacity="0.78"/>
          <circle id="Elipse_4209" data-name="Elipse 4209" cx="31" cy="31" r="31" transform="translate(16.447 22.627) rotate(-5.65)" fill="#f57fa3" opacity="0.78"/>
          <path id="Trazado_104419" data-name="Trazado 104419" d="M291.977,351.543v-3.376a27.334,27.334,0,0,1-9.462-2.053,1.957,1.957,0,0,1-1.083-2.3l.858-3.143a1.965,1.965,0,0,1,2.67-1.283,22.837,22.837,0,0,0,8.74,1.836c3.384,0,5.91-1.147,5.91-3.5,0-2.117-1.957-3.384-6.664-4.643-6.712-1.836-11.531-4.763-11.531-10.681,0-5.332,3.905-9.406,10.673-10.5v-3.384a1.965,1.965,0,0,1,1.965-1.965h1.981A1.965,1.965,0,0,1,298,308.515v3.031a24.9,24.9,0,0,1,7.505,1.347,1.949,1.949,0,0,1,1.219,2.358l-.794,2.887a1.957,1.957,0,0,1-2.59,1.323,20.585,20.585,0,0,0-7.353-1.331c-4.009,0-5.164,1.66-5.164,3.151,0,1.844,2.406,3.1,7.634,4.707,7.457,2.237,10.553,5.34,10.553,10.905,0,5.108-3.785,9.7-11.13,10.849v3.777a1.965,1.965,0,0,1-1.965,1.965h-1.98a1.965,1.965,0,0,1-1.957-1.941Z" transform="translate(-244.647 -278.098)" fill="url(#linear-gradient-47)"/>
        </g>
        <rect id="Rectángulo_5589" data-name="Rectángulo 5589" width="74.229" height="14.137" rx="3.63" transform="translate(15.159 94.261)" fill="url(#linear-gradient-48)"/>
        <rect id="Rectángulo_5590" data-name="Rectángulo 5590" width="74.229" height="14.137" rx="3.63" transform="translate(15.215 111.053)" fill="url(#linear-gradient-49)"/>
        <rect id="Rectángulo_5591" data-name="Rectángulo 5591" width="74.229" height="14.137" rx="3.63" transform="translate(15.271 127.844)" fill="url(#linear-gradient-50)"/>
      </g>
    </g>
  </g>
</svg>
