<svg xmlns="http://www.w3.org/2000/svg" width="723.98" height="554.509" viewBox="0 0 723.98 554.509">
  <g id="Grupo_18922" data-name="Grupo 18922" transform="translate(-574.644 -9085.702)">
    <g id="Grupo_18869" data-name="Grupo 18869">
      <path id="Trazado_34098" data-name="Trazado 34098" d="M6224,7744.516v483.727h639.523" transform="translate(-5619 1378)" fill="none" stroke="#472ea6" stroke-width="2"/>
      <path id="Trazado_34099" data-name="Trazado 34099" d="M6673.229,7915.7c16.449-7.861,460.8-378.073,460.8-378.073" transform="translate(-6068 1690.375)" fill="none" stroke="#fd8f25" stroke-width="2"/>
      <path id="Trazado_34100" data-name="Trazado 34100" d="M6224.229,8039.037h542.7" transform="translate(-5619 1378)" fill="none" stroke="#fd8f25" stroke-width="2"/>
      <path id="Trazado_34101" data-name="Trazado 34101" d="M6415.9,7816.292v412.818" transform="translate(-5619 1378)" fill="none" stroke="#fd8f25" stroke-width="2"/>
      <path id="Trazado_35277" data-name="Trazado 35277" d="M7.269.176A7.089,7.089,0,0,1,4.68-.29a6.087,6.087,0,0,1-2.061-1.3A5.864,5.864,0,0,1,1.266-3.656a7.2,7.2,0,0,1-.492-2.7A6.879,6.879,0,0,1,1.617-9.8a5.744,5.744,0,0,1,2.316-2.281,6.935,6.935,0,0,1,3.335-.791A6.739,6.739,0,0,1,11-11.848a5.629,5.629,0,0,1,2.276,2.83l-2.461.9A3.479,3.479,0,0,0,9.448-9.835a3.891,3.891,0,0,0-2.18-.615A3.73,3.73,0,0,0,4.491-9.343,4.075,4.075,0,0,0,3.4-6.354,4.081,4.081,0,0,0,4.5-3.362,3.726,3.726,0,0,0,7.269-2.25a3.876,3.876,0,0,0,2.175-.62,3.5,3.5,0,0,0,1.367-1.718l2.461.9A5.652,5.652,0,0,1,11-.857,6.718,6.718,0,0,1,7.269.176Z" transform="translate(790 9640)" fill="#00223d"/>
      <path id="Trazado_35278" data-name="Trazado 35278" d="M7.269.176A7.089,7.089,0,0,1,4.68-.29a6.087,6.087,0,0,1-2.061-1.3A5.864,5.864,0,0,1,1.266-3.656a7.2,7.2,0,0,1-.492-2.7A6.879,6.879,0,0,1,1.617-9.8a5.744,5.744,0,0,1,2.316-2.281,6.935,6.935,0,0,1,3.335-.791A6.739,6.739,0,0,1,11-11.848a5.629,5.629,0,0,1,2.276,2.83l-2.461.9A3.479,3.479,0,0,0,9.448-9.835a3.891,3.891,0,0,0-2.18-.615A3.73,3.73,0,0,0,4.491-9.343,4.075,4.075,0,0,0,3.4-6.354,4.081,4.081,0,0,0,4.5-3.362,3.726,3.726,0,0,0,7.269-2.25a3.876,3.876,0,0,0,2.175-.62,3.5,3.5,0,0,0,1.367-1.718l2.461.9A5.652,5.652,0,0,1,11-.857,6.718,6.718,0,0,1,7.269.176Zm15.24-2.628a8.453,8.453,0,0,0,.22,2.206V0H20.364l-.2-.984a2.938,2.938,0,0,1-1.266.87,4.664,4.664,0,0,1-1.635.29A4.3,4.3,0,0,1,16.418.1a2.868,2.868,0,0,1-.76-.268,2.307,2.307,0,0,1-.628-.47,2.062,2.062,0,0,1-.422-.716,2.853,2.853,0,0,1-.158-.98,2.718,2.718,0,0,1,.167-.98,2.3,2.3,0,0,1,.439-.734,2.666,2.666,0,0,1,.712-.536,5.447,5.447,0,0,1,.9-.387,10.712,10.712,0,0,1,1.072-.281l1.485-.334a1.638,1.638,0,0,0,.672-.286.57.57,0,0,0,.2-.453.932.932,0,0,0-.444-.87,2.072,2.072,0,0,0-1.077-.264A1.549,1.549,0,0,0,16.8-6.082l-2.241-.4a3.034,3.034,0,0,1,1.31-2.061,5.2,5.2,0,0,1,2.839-.664q3.8,0,3.8,3.261Zm-4.456.914a2.036,2.036,0,0,0,1.564-.655,2.759,2.759,0,0,0,.606-1.938l-2.145.606a2.534,2.534,0,0,0-.9.369.758.758,0,0,0-.312.65.842.842,0,0,0,.334.716A1.382,1.382,0,0,0,18.053-1.538ZM30.3-9.211a3.522,3.522,0,0,1,2.5.813,3.014,3.014,0,0,1,.87,2.316V0h-2.54V-5.537a1.574,1.574,0,0,0-.453-1.248,1.705,1.705,0,0,0-1.165-.4,2.379,2.379,0,0,0-.756.114,1.942,1.942,0,0,0-.633.356,1.573,1.573,0,0,0-.453.681A3.15,3.15,0,0,0,27.5-4.983V0H24.97V-9.035H27.5v1A3.481,3.481,0,0,1,30.3-9.211ZM39.489,0A2.729,2.729,0,0,1,37.45-.734a2.854,2.854,0,0,1-.721-2.087V-7.093H34.954V-9.035h.571a1.491,1.491,0,0,0,1.125-.378,1.946,1.946,0,0,0,.36-1.345v-1.2H39.3v2.918h1.863v1.942H39.3v4q0,1.169,1.046,1.169h.817V0Zm4.922-10.389a1.421,1.421,0,0,1-1.037-.426,1.4,1.4,0,0,1-.431-1.033,1.382,1.382,0,0,1,.435-1.024,1.425,1.425,0,0,1,1.033-.426,1.4,1.4,0,0,1,1.02.426,1.389,1.389,0,0,1,.431,1.024,1.4,1.4,0,0,1-.431,1.033A1.4,1.4,0,0,1,44.411-10.389ZM43.119,0V-9.035h2.549V0ZM54.694-13.5h2.531V0h-2.4l-.062-1.178A2.58,2.58,0,0,1,53.618-.154a3.861,3.861,0,0,1-1.692.365,4.394,4.394,0,0,1-1.687-.325,4.189,4.189,0,0,1-1.384-.918,4.187,4.187,0,0,1-.936-1.49A5.5,5.5,0,0,1,47.575-4.5a5.137,5.137,0,0,1,.6-2.518A4.1,4.1,0,0,1,49.75-8.657a4.345,4.345,0,0,1,2.175-.554,3.957,3.957,0,0,1,1.639.33,2.559,2.559,0,0,1,1.129.936ZM52.506-1.89a2.253,2.253,0,0,0,1.709-.721A2.638,2.638,0,0,0,54.9-4.5a2.644,2.644,0,0,0-.686-1.894,2.251,2.251,0,0,0-1.705-.725,2.277,2.277,0,0,0-1.718.712A2.644,2.644,0,0,0,50.106-4.5a2.631,2.631,0,0,0,.681,1.9A2.277,2.277,0,0,0,52.506-1.89Zm14.748-.562a8.453,8.453,0,0,0,.22,2.206V0H65.109l-.2-.984a2.938,2.938,0,0,1-1.266.87,4.664,4.664,0,0,1-1.635.29A4.3,4.3,0,0,1,61.163.1a2.868,2.868,0,0,1-.76-.268,2.307,2.307,0,0,1-.628-.47,2.062,2.062,0,0,1-.422-.716,2.853,2.853,0,0,1-.158-.98,2.718,2.718,0,0,1,.167-.98,2.3,2.3,0,0,1,.439-.734,2.666,2.666,0,0,1,.712-.536,5.447,5.447,0,0,1,.9-.387,10.712,10.712,0,0,1,1.072-.281l1.485-.334a1.638,1.638,0,0,0,.672-.286.57.57,0,0,0,.2-.453.932.932,0,0,0-.444-.87,2.072,2.072,0,0,0-1.077-.264,1.549,1.549,0,0,0-1.767,1.38l-2.241-.4a3.034,3.034,0,0,1,1.31-2.061,5.2,5.2,0,0,1,2.839-.664q3.8,0,3.8,3.261ZM62.8-1.538a2.036,2.036,0,0,0,1.564-.655,2.759,2.759,0,0,0,.606-1.938l-2.145.606a2.534,2.534,0,0,0-.9.369.758.758,0,0,0-.312.65.842.842,0,0,0,.334.716A1.382,1.382,0,0,0,62.8-1.538ZM75.92-13.5h2.531V0h-2.4L75.99-1.178A2.58,2.58,0,0,1,74.843-.154a3.861,3.861,0,0,1-1.692.365,4.394,4.394,0,0,1-1.687-.325,4.189,4.189,0,0,1-1.384-.918,4.187,4.187,0,0,1-.936-1.49A5.5,5.5,0,0,1,68.8-4.5a5.137,5.137,0,0,1,.6-2.518,4.1,4.1,0,0,1,1.578-1.639,4.345,4.345,0,0,1,2.175-.554,3.957,3.957,0,0,1,1.639.33,2.559,2.559,0,0,1,1.129.936ZM73.731-1.89a2.253,2.253,0,0,0,1.709-.721,2.638,2.638,0,0,0,.681-1.89,2.644,2.644,0,0,0-.686-1.894,2.251,2.251,0,0,0-1.705-.725,2.277,2.277,0,0,0-1.718.712A2.644,2.644,0,0,0,71.332-4.5a2.631,2.631,0,0,0,.681,1.9A2.277,2.277,0,0,0,73.731-1.89Z" transform="translate(1197 9640)" fill="#00223d"/>
      <path id="Trazado_35279" data-name="Trazado 35279" d="M6.926-12.7a3.822,3.822,0,0,1,2.927,1.182A4.112,4.112,0,0,1,10.96-8.6a4.011,4.011,0,0,1-1.1,2.9A3.891,3.891,0,0,1,6.926-4.553H4.28V0H1.644V-12.7ZM6.486-6.759a1.938,1.938,0,0,0,1.45-.5A1.888,1.888,0,0,0,8.42-8.631a1.873,1.873,0,0,0-.488-1.358,1.92,1.92,0,0,0-1.446-.505H4.28v3.735Z" transform="translate(573 9423)" fill="#00223d"/>
      <path id="Trazado_35280" data-name="Trazado 35280" d="M6.926-12.7a3.822,3.822,0,0,1,2.927,1.182A4.112,4.112,0,0,1,10.96-8.6a4.011,4.011,0,0,1-1.1,2.9A3.891,3.891,0,0,1,6.926-4.553H4.28V0H1.644V-12.7ZM6.486-6.759a1.938,1.938,0,0,0,1.45-.5A1.888,1.888,0,0,0,8.42-8.631a1.873,1.873,0,0,0-.488-1.358,1.92,1.92,0,0,0-1.446-.505H4.28v3.735Zm8.78-.844a2.933,2.933,0,0,1,1.187-1.085,3.62,3.62,0,0,1,1.767-.453v2.259a3.423,3.423,0,0,0-2.162.545A2.379,2.379,0,0,0,15.39-4.4V0H12.841V-9.035h2.426ZM28.151-4.649l-.026.606h-6.7a2.339,2.339,0,0,0,.721,1.652,2.3,2.3,0,0,0,1.591.571,2.221,2.221,0,0,0,1.191-.312,1.918,1.918,0,0,0,.76-.91l2.32.343A3.945,3.945,0,0,1,26.429-.58a4.7,4.7,0,0,1-2.672.756,4.891,4.891,0,0,1-3.52-1.244,4.538,4.538,0,0,1-1.305-3.45,4.565,4.565,0,0,1,1.31-3.45,4.746,4.746,0,0,1,3.437-1.261,4.536,4.536,0,0,1,3.243,1.151A4.517,4.517,0,0,1,28.151-4.649ZM23.7-7.436A2,2,0,0,0,21.5-5.7h4.148a1.9,1.9,0,0,0-.624-1.292A1.978,1.978,0,0,0,23.7-7.436ZM34.163.167a4.827,4.827,0,0,1-3.489-1.3A4.493,4.493,0,0,1,29.32-4.526a4.483,4.483,0,0,1,1.349-3.393,4.842,4.842,0,0,1,3.494-1.292,4.814,4.814,0,0,1,2.927.87A3.885,3.885,0,0,1,38.6-5.889l-2.338.255a2,2,0,0,0-.756-1.187,2.3,2.3,0,0,0-1.371-.4,2.072,2.072,0,0,0-1.652.738,2.894,2.894,0,0,0-.633,1.951,2.9,2.9,0,0,0,.633,1.947,2.067,2.067,0,0,0,1.652.743,2.278,2.278,0,0,0,1.367-.4,2.05,2.05,0,0,0,.76-1.187l2.338.255A3.9,3.9,0,0,1,37.077-.712,4.8,4.8,0,0,1,34.163.167ZM41.7-10.389a1.421,1.421,0,0,1-1.037-.426,1.4,1.4,0,0,1-.431-1.033,1.382,1.382,0,0,1,.435-1.024A1.425,1.425,0,0,1,41.7-13.3a1.4,1.4,0,0,1,1.02.426,1.389,1.389,0,0,1,.431,1.024,1.4,1.4,0,0,1-.431,1.033A1.4,1.4,0,0,1,41.7-10.389ZM40.4,0V-9.035h2.549V0Zm9.378.176a5.681,5.681,0,0,1-2.558-.554A4.138,4.138,0,0,1,45.47-2a4.846,4.846,0,0,1-.637-2.522A4.42,4.42,0,0,1,46.2-7.954a5.086,5.086,0,0,1,3.577-1.257,5.1,5.1,0,0,1,3.586,1.257,4.42,4.42,0,0,1,1.371,3.428,4.444,4.444,0,0,1-1.371,3.441A5.088,5.088,0,0,1,49.781.176Zm-.026-2.013a2.319,2.319,0,0,0,1.789-.738,2.764,2.764,0,0,0,.681-1.951,2.764,2.764,0,0,0-.681-1.951,2.319,2.319,0,0,0-1.789-.738,2.234,2.234,0,0,0-1.736.743,2.789,2.789,0,0,0-.672,1.947,2.789,2.789,0,0,0,.672,1.947A2.234,2.234,0,0,0,49.755-1.837Z" transform="translate(576 9099)" fill="#00223d"/>
      <path id="Trazado_35281" data-name="Trazado 35281" d="M-57.313-12.7a3.822,3.822,0,0,1,2.927,1.182A4.112,4.112,0,0,1-53.279-8.6a4.011,4.011,0,0,1-1.1,2.9,3.891,3.891,0,0,1-2.936,1.138h-2.646V0H-62.6V-12.7Zm-.439,5.941a1.938,1.938,0,0,0,1.45-.5,1.888,1.888,0,0,0,.483-1.375,1.873,1.873,0,0,0-.488-1.358,1.92,1.92,0,0,0-1.446-.505h-2.206v3.735Zm14.546,2.109-.026.606h-6.7a2.339,2.339,0,0,0,.721,1.652,2.3,2.3,0,0,0,1.591.571,2.221,2.221,0,0,0,1.191-.312,1.918,1.918,0,0,0,.76-.91l2.32.343A3.945,3.945,0,0,1-44.93-.58,4.7,4.7,0,0,1-47.6.176a4.891,4.891,0,0,1-3.52-1.244,4.538,4.538,0,0,1-1.305-3.45,4.565,4.565,0,0,1,1.31-3.45,4.746,4.746,0,0,1,3.437-1.261,4.536,4.536,0,0,1,3.243,1.151A4.517,4.517,0,0,1-43.207-4.649Zm-4.456-2.786a2,2,0,0,0-2.2,1.74h4.148a1.9,1.9,0,0,0-.624-1.292A1.978,1.978,0,0,0-47.663-7.436Zm8.807-.167A2.933,2.933,0,0,1-37.67-8.688,3.62,3.62,0,0,1-35.9-9.141v2.259a3.423,3.423,0,0,0-2.162.545A2.379,2.379,0,0,0-38.733-4.4V0h-2.549V-9.035h2.426Zm10.116-3.876h-.053q-.246,0-.374,0t-.36.031a1.459,1.459,0,0,0-.365.079,1.859,1.859,0,0,0-.3.163.809.809,0,0,0-.264.264,1.593,1.593,0,0,0-.158.391,2.042,2.042,0,0,0-.066.545v.967h1.942v1.942h-1.942V0h-2.522V-7.093h-1.767V-9.035h1.767v-.976a5.284,5.284,0,0,1,.114-1.151,3.5,3.5,0,0,1,.308-.875,2.047,2.047,0,0,1,.514-.628,3.034,3.034,0,0,1,.668-.422,3.817,3.817,0,0,1,.831-.255,7.285,7.285,0,0,1,.954-.127q.47-.031,1.077-.031Zm9.9,6.829-.026.606h-6.7a2.339,2.339,0,0,0,.721,1.652,2.3,2.3,0,0,0,1.591.571,2.221,2.221,0,0,0,1.191-.312,1.918,1.918,0,0,0,.76-.91l2.32.343A3.945,3.945,0,0,1-20.566-.58a4.7,4.7,0,0,1-2.672.756,4.891,4.891,0,0,1-3.52-1.244,4.538,4.538,0,0,1-1.305-3.45,4.565,4.565,0,0,1,1.31-3.45,4.746,4.746,0,0,1,3.437-1.261,4.536,4.536,0,0,1,3.243,1.151A4.517,4.517,0,0,1-18.844-4.649ZM-23.3-7.436A2,2,0,0,0-25.5-5.7h4.148a1.9,1.9,0,0,0-.624-1.292A1.978,1.978,0,0,0-23.3-7.436Zm10.468,7.6a4.827,4.827,0,0,1-3.489-1.3,4.493,4.493,0,0,1-1.354-3.393,4.483,4.483,0,0,1,1.349-3.393,4.842,4.842,0,0,1,3.494-1.292,4.814,4.814,0,0,1,2.927.87A3.885,3.885,0,0,1-8.394-5.889l-2.338.255a2,2,0,0,0-.756-1.187,2.3,2.3,0,0,0-1.371-.4,2.072,2.072,0,0,0-1.652.738,2.894,2.894,0,0,0-.633,1.951,2.9,2.9,0,0,0,.633,1.947,2.067,2.067,0,0,0,1.652.743,2.278,2.278,0,0,0,1.367-.4,2.05,2.05,0,0,0,.76-1.187l2.338.255A3.9,3.9,0,0,1-9.918-.712,4.8,4.8,0,0,1-12.832.167ZM-3.226,0A2.729,2.729,0,0,1-5.265-.734a2.854,2.854,0,0,1-.721-2.087V-7.093H-7.761V-9.035h.571a1.491,1.491,0,0,0,1.125-.378,1.946,1.946,0,0,0,.36-1.345v-1.2h2.285v2.918h1.863v1.942H-3.419v4q0,1.169,1.046,1.169h.817V0Zm11-2.452A8.453,8.453,0,0,0,8-.246V0H5.634l-.2-.984a2.938,2.938,0,0,1-1.266.87,4.664,4.664,0,0,1-1.635.29A4.3,4.3,0,0,1,1.688.1a2.868,2.868,0,0,1-.76-.268A2.307,2.307,0,0,1,.3-.642a2.062,2.062,0,0,1-.422-.716,2.853,2.853,0,0,1-.158-.98,2.718,2.718,0,0,1,.167-.98,2.3,2.3,0,0,1,.439-.734,2.666,2.666,0,0,1,.712-.536,5.447,5.447,0,0,1,.9-.387,10.712,10.712,0,0,1,1.072-.281L4.491-5.59a1.638,1.638,0,0,0,.672-.286.57.57,0,0,0,.2-.453.932.932,0,0,0-.444-.87,2.072,2.072,0,0,0-1.077-.264,1.549,1.549,0,0,0-1.767,1.38l-2.241-.4a3.034,3.034,0,0,1,1.31-2.061,5.2,5.2,0,0,1,2.839-.664q3.8,0,3.8,3.261Zm-4.456.914a2.036,2.036,0,0,0,1.564-.655,2.759,2.759,0,0,0,.606-1.938l-2.145.606a2.534,2.534,0,0,0-.9.369.758.758,0,0,0-.312.65.842.842,0,0,0,.334.716A1.382,1.382,0,0,0,3.322-1.538ZM20.944-9.211a3.452,3.452,0,0,1,2.329.734,2.626,2.626,0,0,1,.853,2.1V0H21.595V-5.651a1.509,1.509,0,0,0-.4-1.143,1.416,1.416,0,0,0-1.02-.387,1.633,1.633,0,0,0-1.23.492A2.235,2.235,0,0,0,18.466-5.1V0H15.908V-5.625a1.549,1.549,0,0,0-.4-1.165,1.441,1.441,0,0,0-1.046-.391,1.581,1.581,0,0,0-1.222.519,2.476,2.476,0,0,0-.475,1.7V0H10.239V-9.035h2.522v1.063a3.072,3.072,0,0,1,2.619-1.239,3.863,3.863,0,0,1,1.7.347,2.315,2.315,0,0,1,1.068,1.006A3.2,3.2,0,0,1,20.944-9.211ZM35.086-4.649l-.026.606h-6.7a2.339,2.339,0,0,0,.721,1.652,2.3,2.3,0,0,0,1.591.571,2.221,2.221,0,0,0,1.191-.312,1.918,1.918,0,0,0,.76-.91l2.32.343A3.945,3.945,0,0,1,33.363-.58a4.7,4.7,0,0,1-2.672.756,4.891,4.891,0,0,1-3.52-1.244,4.538,4.538,0,0,1-1.305-3.45,4.565,4.565,0,0,1,1.31-3.45,4.746,4.746,0,0,1,3.437-1.261,4.536,4.536,0,0,1,3.243,1.151A4.517,4.517,0,0,1,35.086-4.649ZM30.63-7.436a2,2,0,0,0-2.2,1.74h4.148a1.9,1.9,0,0,0-.624-1.292A1.978,1.978,0,0,0,30.63-7.436ZM42.346-9.211a3.522,3.522,0,0,1,2.5.813,3.014,3.014,0,0,1,.87,2.316V0h-2.54V-5.537a1.574,1.574,0,0,0-.453-1.248,1.705,1.705,0,0,0-1.165-.4,2.379,2.379,0,0,0-.756.114,1.942,1.942,0,0,0-.633.356,1.573,1.573,0,0,0-.453.681,3.15,3.15,0,0,0-.171,1.046V0H37.011V-9.035h2.531v1A3.481,3.481,0,0,1,42.346-9.211ZM51.53,0a2.729,2.729,0,0,1-2.039-.734,2.854,2.854,0,0,1-.721-2.087V-7.093H47V-9.035h.571a1.491,1.491,0,0,0,1.125-.378,1.946,1.946,0,0,0,.36-1.345v-1.2h2.285v2.918H53.2v1.942H51.337v4q0,1.169,1.046,1.169H53.2V0ZM63.624-4.649l-.026.606H56.9a2.339,2.339,0,0,0,.721,1.652,2.3,2.3,0,0,0,1.591.571A2.221,2.221,0,0,0,60.4-2.131a1.918,1.918,0,0,0,.76-.91l2.32.343A3.945,3.945,0,0,1,61.9-.58a4.7,4.7,0,0,1-2.672.756,4.891,4.891,0,0,1-3.52-1.244A4.538,4.538,0,0,1,54.4-4.518a4.565,4.565,0,0,1,1.31-3.45A4.746,4.746,0,0,1,59.15-9.229a4.536,4.536,0,0,1,3.243,1.151A4.517,4.517,0,0,1,63.624-4.649ZM59.168-7.436a2,2,0,0,0-2.2,1.74h4.148A1.9,1.9,0,0,0,60.5-6.987,1.978,1.978,0,0,0,59.168-7.436ZM-43.194,19.611a1.421,1.421,0,0,1-1.037-.426,1.4,1.4,0,0,1-.431-1.033,1.382,1.382,0,0,1,.435-1.024,1.425,1.425,0,0,1,1.033-.426,1.4,1.4,0,0,1,1.02.426,1.389,1.389,0,0,1,.431,1.024,1.4,1.4,0,0,1-.431,1.033A1.4,1.4,0,0,1-43.194,19.611ZM-44.486,30V20.965h2.549V30Zm10.5-9.211a3.522,3.522,0,0,1,2.5.813,3.014,3.014,0,0,1,.87,2.316V30h-2.54V24.463a1.574,1.574,0,0,0-.453-1.248,1.705,1.705,0,0,0-1.165-.4,2.379,2.379,0,0,0-.756.114,1.942,1.942,0,0,0-.633.356,1.573,1.573,0,0,0-.453.681,3.15,3.15,0,0,0-.171,1.046V30h-2.531V20.965h2.531v1A3.481,3.481,0,0,1-33.983,20.789Zm14.317,4.562-.026.606h-6.7a2.339,2.339,0,0,0,.721,1.652,2.3,2.3,0,0,0,1.591.571,2.221,2.221,0,0,0,1.191-.312,1.918,1.918,0,0,0,.76-.91l2.32.343a3.945,3.945,0,0,1-1.582,2.118,4.7,4.7,0,0,1-2.672.756,4.891,4.891,0,0,1-3.52-1.244,4.538,4.538,0,0,1-1.305-3.45,4.565,4.565,0,0,1,1.31-3.45,4.746,4.746,0,0,1,3.437-1.261A4.536,4.536,0,0,1-20.9,21.923,4.517,4.517,0,0,1-19.666,25.351Zm-4.456-2.786a2,2,0,0,0-2.2,1.74h4.148a1.9,1.9,0,0,0-.624-1.292A1.978,1.978,0,0,0-24.122,22.564Zm9.563,7.611a5.049,5.049,0,0,1-2.637-.633,2.675,2.675,0,0,1-1.292-1.881l2.118-.6a1.7,1.7,0,0,0,1.811,1.345,1.87,1.87,0,0,0,.923-.207.719.719,0,0,0,.36-.7.739.739,0,0,0-.149-.466,1.183,1.183,0,0,0-.461-.334,5.749,5.749,0,0,0-.615-.237q-.3-.1-.8-.233t-.835-.259a5.593,5.593,0,0,1-.8-.338,3.393,3.393,0,0,1-.659-.466,1.878,1.878,0,0,1-.492-.708,2.552,2.552,0,0,1-.171-.967,2.308,2.308,0,0,1,.98-2.021,4.379,4.379,0,0,1,2.562-.686,4.489,4.489,0,0,1,2.364.58A2.625,2.625,0,0,1-11.14,23.18l-1.96.439a1.535,1.535,0,0,0-1.608-1.143,1.761,1.761,0,0,0-.888.2.649.649,0,0,0-.352.6.685.685,0,0,0,.053.272.539.539,0,0,0,.185.22,2.692,2.692,0,0,0,.255.167,1.923,1.923,0,0,0,.36.145q.237.075.4.114l.461.119.47.123q.483.132.848.264a4.967,4.967,0,0,1,.778.369,2.792,2.792,0,0,1,.681.532,2.372,2.372,0,0,1,.444.747,2.759,2.759,0,0,1,.176,1.006,2.718,2.718,0,0,1-.3,1.31,2.276,2.276,0,0,1-.831.883,4.043,4.043,0,0,1-1.173.475A6.087,6.087,0,0,1-14.559,30.176ZM-9.022,30V16.5h2.558V30ZM2.58,17.37l-2,2.355H-.971l2.3-3.234Zm.984,10.178a8.453,8.453,0,0,0,.22,2.206V30H1.419l-.2-.984a2.938,2.938,0,0,1-1.266.87,4.664,4.664,0,0,1-1.635.29,4.3,4.3,0,0,1-.844-.079,2.868,2.868,0,0,1-.76-.268,2.307,2.307,0,0,1-.628-.47,2.062,2.062,0,0,1-.422-.716,2.853,2.853,0,0,1-.158-.98,2.718,2.718,0,0,1,.167-.98,2.3,2.3,0,0,1,.439-.734,2.666,2.666,0,0,1,.712-.536,5.447,5.447,0,0,1,.9-.387,10.712,10.712,0,0,1,1.072-.281L.277,24.41a1.638,1.638,0,0,0,.672-.286.57.57,0,0,0,.2-.453A.932.932,0,0,0,.7,22.8a2.072,2.072,0,0,0-1.077-.264,1.549,1.549,0,0,0-1.767,1.38l-2.241-.4a3.034,3.034,0,0,1,1.31-2.061,5.2,5.2,0,0,1,2.839-.664q3.8,0,3.8,3.261Zm-4.456.914a2.036,2.036,0,0,0,1.564-.655,2.759,2.759,0,0,0,.606-1.938l-2.145.606a2.534,2.534,0,0,0-.9.369.758.758,0,0,0-.312.65.842.842,0,0,0,.334.716A1.382,1.382,0,0,0-.892,28.462Zm10.1,1.714a5.049,5.049,0,0,1-2.637-.633,2.675,2.675,0,0,1-1.292-1.881l2.118-.6a1.7,1.7,0,0,0,1.811,1.345,1.87,1.87,0,0,0,.923-.207.719.719,0,0,0,.36-.7.739.739,0,0,0-.149-.466,1.183,1.183,0,0,0-.461-.334,5.749,5.749,0,0,0-.615-.237q-.3-.1-.8-.233t-.835-.259a5.593,5.593,0,0,1-.8-.338,3.393,3.393,0,0,1-.659-.466,1.878,1.878,0,0,1-.492-.708,2.552,2.552,0,0,1-.171-.967,2.308,2.308,0,0,1,.98-2.021,4.379,4.379,0,0,1,2.562-.686,4.489,4.489,0,0,1,2.364.58,2.625,2.625,0,0,1,1.213,1.811l-1.96.439a1.535,1.535,0,0,0-1.608-1.143,1.761,1.761,0,0,0-.888.2.649.649,0,0,0-.352.6.685.685,0,0,0,.053.272.539.539,0,0,0,.185.22,2.692,2.692,0,0,0,.255.167,1.923,1.923,0,0,0,.36.145q.237.075.4.114l.461.119.47.123q.483.132.848.264a4.967,4.967,0,0,1,.778.369,2.792,2.792,0,0,1,.681.532,2.372,2.372,0,0,1,.444.747,2.759,2.759,0,0,1,.176,1.006,2.718,2.718,0,0,1-.3,1.31,2.276,2.276,0,0,1-.831.883,4.043,4.043,0,0,1-1.173.475A6.087,6.087,0,0,1,9.207,30.176ZM18.11,30a2.729,2.729,0,0,1-2.039-.734,2.854,2.854,0,0,1-.721-2.087V22.907H13.575V20.965h.571a1.491,1.491,0,0,0,1.125-.378,1.946,1.946,0,0,0,.36-1.345v-1.2h2.285v2.918H19.78v1.942H17.917v4q0,1.169,1.046,1.169h.817V30Zm4.922-10.389a1.421,1.421,0,0,1-1.037-.426,1.4,1.4,0,0,1-.431-1.033A1.382,1.382,0,0,1,22,17.128a1.425,1.425,0,0,1,1.033-.426,1.455,1.455,0,0,1,0,2.909ZM21.74,30V20.965h2.549V30Zm9.255.167a4.827,4.827,0,0,1-3.489-1.3,4.493,4.493,0,0,1-1.354-3.393A4.483,4.483,0,0,1,27.5,22.081a4.842,4.842,0,0,1,3.494-1.292,4.814,4.814,0,0,1,2.927.87,3.885,3.885,0,0,1,1.512,2.452l-2.338.255a2,2,0,0,0-.756-1.187,2.3,2.3,0,0,0-1.371-.4,2.072,2.072,0,0,0-1.652.738,2.894,2.894,0,0,0-.633,1.951,2.9,2.9,0,0,0,.633,1.947,2.067,2.067,0,0,0,1.652.743,2.278,2.278,0,0,0,1.367-.4,2.05,2.05,0,0,0,.76-1.187l2.338.255a3.9,3.9,0,0,1-1.525,2.452A4.8,4.8,0,0,1,30.995,30.167Zm13.649-2.619a8.453,8.453,0,0,0,.22,2.206V30H42.5l-.2-.984a2.938,2.938,0,0,1-1.266.87,4.664,4.664,0,0,1-1.635.29,4.3,4.3,0,0,1-.844-.079,2.868,2.868,0,0,1-.76-.268,2.307,2.307,0,0,1-.628-.47,2.062,2.062,0,0,1-.422-.716,2.853,2.853,0,0,1-.158-.98,2.718,2.718,0,0,1,.167-.98,2.3,2.3,0,0,1,.439-.734,2.666,2.666,0,0,1,.712-.536,5.447,5.447,0,0,1,.9-.387,10.712,10.712,0,0,1,1.072-.281l1.485-.334a1.638,1.638,0,0,0,.672-.286.57.57,0,0,0,.2-.453.932.932,0,0,0-.444-.87,2.072,2.072,0,0,0-1.077-.264,1.549,1.549,0,0,0-1.767,1.38l-2.241-.4a3.034,3.034,0,0,1,1.31-2.061,5.2,5.2,0,0,1,2.839-.664q3.8,0,3.8,3.261Zm-4.456.914a2.036,2.036,0,0,0,1.564-.655,2.759,2.759,0,0,0,.606-1.938l-2.145.606a2.534,2.534,0,0,0-.9.369A.758.758,0,0,0,39,27.5a.842.842,0,0,0,.334.716A1.382,1.382,0,0,0,40.188,28.462Z" transform="translate(808 9140)" fill="#00223d"/>
      <path id="Trazado_35282" data-name="Trazado 35282" d="M-57.313-12.7a3.822,3.822,0,0,1,2.927,1.182A4.112,4.112,0,0,1-53.279-8.6a4.011,4.011,0,0,1-1.1,2.9,3.891,3.891,0,0,1-2.936,1.138h-2.646V0H-62.6V-12.7Zm-.439,5.941a1.938,1.938,0,0,0,1.45-.5,1.888,1.888,0,0,0,.483-1.375,1.873,1.873,0,0,0-.488-1.358,1.92,1.92,0,0,0-1.446-.505h-2.206v3.735Zm14.546,2.109-.026.606h-6.7a2.339,2.339,0,0,0,.721,1.652,2.3,2.3,0,0,0,1.591.571,2.221,2.221,0,0,0,1.191-.312,1.918,1.918,0,0,0,.76-.91l2.32.343A3.945,3.945,0,0,1-44.93-.58,4.7,4.7,0,0,1-47.6.176a4.891,4.891,0,0,1-3.52-1.244,4.538,4.538,0,0,1-1.305-3.45,4.565,4.565,0,0,1,1.31-3.45,4.746,4.746,0,0,1,3.437-1.261,4.536,4.536,0,0,1,3.243,1.151A4.517,4.517,0,0,1-43.207-4.649Zm-4.456-2.786a2,2,0,0,0-2.2,1.74h4.148a1.9,1.9,0,0,0-.624-1.292A1.978,1.978,0,0,0-47.663-7.436Zm8.807-.167A2.933,2.933,0,0,1-37.67-8.688,3.62,3.62,0,0,1-35.9-9.141v2.259a3.423,3.423,0,0,0-2.162.545A2.379,2.379,0,0,0-38.733-4.4V0h-2.549V-9.035h2.426Zm10.116-3.876h-.053q-.246,0-.374,0t-.36.031a1.459,1.459,0,0,0-.365.079,1.859,1.859,0,0,0-.3.163.809.809,0,0,0-.264.264,1.593,1.593,0,0,0-.158.391,2.042,2.042,0,0,0-.066.545v.967h1.942v1.942h-1.942V0h-2.522V-7.093h-1.767V-9.035h1.767v-.976a5.284,5.284,0,0,1,.114-1.151,3.5,3.5,0,0,1,.308-.875,2.047,2.047,0,0,1,.514-.628,3.034,3.034,0,0,1,.668-.422,3.817,3.817,0,0,1,.831-.255,7.285,7.285,0,0,1,.954-.127q.47-.031,1.077-.031Zm9.9,6.829-.026.606h-6.7a2.339,2.339,0,0,0,.721,1.652,2.3,2.3,0,0,0,1.591.571,2.221,2.221,0,0,0,1.191-.312,1.918,1.918,0,0,0,.76-.91l2.32.343A3.945,3.945,0,0,1-20.566-.58a4.7,4.7,0,0,1-2.672.756,4.891,4.891,0,0,1-3.52-1.244,4.538,4.538,0,0,1-1.305-3.45,4.565,4.565,0,0,1,1.31-3.45,4.746,4.746,0,0,1,3.437-1.261,4.536,4.536,0,0,1,3.243,1.151A4.517,4.517,0,0,1-18.844-4.649ZM-23.3-7.436A2,2,0,0,0-25.5-5.7h4.148a1.9,1.9,0,0,0-.624-1.292A1.978,1.978,0,0,0-23.3-7.436Zm10.468,7.6a4.827,4.827,0,0,1-3.489-1.3,4.493,4.493,0,0,1-1.354-3.393,4.483,4.483,0,0,1,1.349-3.393,4.842,4.842,0,0,1,3.494-1.292,4.814,4.814,0,0,1,2.927.87A3.885,3.885,0,0,1-8.394-5.889l-2.338.255a2,2,0,0,0-.756-1.187,2.3,2.3,0,0,0-1.371-.4,2.072,2.072,0,0,0-1.652.738,2.894,2.894,0,0,0-.633,1.951,2.9,2.9,0,0,0,.633,1.947,2.067,2.067,0,0,0,1.652.743,2.278,2.278,0,0,0,1.367-.4,2.05,2.05,0,0,0,.76-1.187l2.338.255A3.9,3.9,0,0,1-9.918-.712,4.8,4.8,0,0,1-12.832.167ZM-3.226,0A2.729,2.729,0,0,1-5.265-.734a2.854,2.854,0,0,1-.721-2.087V-7.093H-7.761V-9.035h.571a1.491,1.491,0,0,0,1.125-.378,1.946,1.946,0,0,0,.36-1.345v-1.2h2.285v2.918h1.863v1.942H-3.419v4q0,1.169,1.046,1.169h.817V0Zm11-2.452A8.453,8.453,0,0,0,8-.246V0H5.634l-.2-.984a2.938,2.938,0,0,1-1.266.87,4.664,4.664,0,0,1-1.635.29A4.3,4.3,0,0,1,1.688.1a2.868,2.868,0,0,1-.76-.268A2.307,2.307,0,0,1,.3-.642a2.062,2.062,0,0,1-.422-.716,2.853,2.853,0,0,1-.158-.98,2.718,2.718,0,0,1,.167-.98,2.3,2.3,0,0,1,.439-.734,2.666,2.666,0,0,1,.712-.536,5.447,5.447,0,0,1,.9-.387,10.712,10.712,0,0,1,1.072-.281L4.491-5.59a1.638,1.638,0,0,0,.672-.286.57.57,0,0,0,.2-.453.932.932,0,0,0-.444-.87,2.072,2.072,0,0,0-1.077-.264,1.549,1.549,0,0,0-1.767,1.38l-2.241-.4a3.034,3.034,0,0,1,1.31-2.061,5.2,5.2,0,0,1,2.839-.664q3.8,0,3.8,3.261Zm-4.456.914a2.036,2.036,0,0,0,1.564-.655,2.759,2.759,0,0,0,.606-1.938l-2.145.606a2.534,2.534,0,0,0-.9.369.758.758,0,0,0-.312.65.842.842,0,0,0,.334.716A1.382,1.382,0,0,0,3.322-1.538ZM20.944-9.211a3.452,3.452,0,0,1,2.329.734,2.626,2.626,0,0,1,.853,2.1V0H21.595V-5.651a1.509,1.509,0,0,0-.4-1.143,1.416,1.416,0,0,0-1.02-.387,1.633,1.633,0,0,0-1.23.492A2.235,2.235,0,0,0,18.466-5.1V0H15.908V-5.625a1.549,1.549,0,0,0-.4-1.165,1.441,1.441,0,0,0-1.046-.391,1.581,1.581,0,0,0-1.222.519,2.476,2.476,0,0,0-.475,1.7V0H10.239V-9.035h2.522v1.063a3.072,3.072,0,0,1,2.619-1.239,3.863,3.863,0,0,1,1.7.347,2.315,2.315,0,0,1,1.068,1.006A3.2,3.2,0,0,1,20.944-9.211ZM35.086-4.649l-.026.606h-6.7a2.339,2.339,0,0,0,.721,1.652,2.3,2.3,0,0,0,1.591.571,2.221,2.221,0,0,0,1.191-.312,1.918,1.918,0,0,0,.76-.91l2.32.343A3.945,3.945,0,0,1,33.363-.58a4.7,4.7,0,0,1-2.672.756,4.891,4.891,0,0,1-3.52-1.244,4.538,4.538,0,0,1-1.305-3.45,4.565,4.565,0,0,1,1.31-3.45,4.746,4.746,0,0,1,3.437-1.261,4.536,4.536,0,0,1,3.243,1.151A4.517,4.517,0,0,1,35.086-4.649ZM30.63-7.436a2,2,0,0,0-2.2,1.74h4.148a1.9,1.9,0,0,0-.624-1.292A1.978,1.978,0,0,0,30.63-7.436ZM42.346-9.211a3.522,3.522,0,0,1,2.5.813,3.014,3.014,0,0,1,.87,2.316V0h-2.54V-5.537a1.574,1.574,0,0,0-.453-1.248,1.705,1.705,0,0,0-1.165-.4,2.379,2.379,0,0,0-.756.114,1.942,1.942,0,0,0-.633.356,1.573,1.573,0,0,0-.453.681,3.15,3.15,0,0,0-.171,1.046V0H37.011V-9.035h2.531v1A3.481,3.481,0,0,1,42.346-9.211ZM51.53,0a2.729,2.729,0,0,1-2.039-.734,2.854,2.854,0,0,1-.721-2.087V-7.093H47V-9.035h.571a1.491,1.491,0,0,0,1.125-.378,1.946,1.946,0,0,0,.36-1.345v-1.2h2.285v2.918H53.2v1.942H51.337v4q0,1.169,1.046,1.169H53.2V0ZM63.624-4.649l-.026.606H56.9a2.339,2.339,0,0,0,.721,1.652,2.3,2.3,0,0,0,1.591.571A2.221,2.221,0,0,0,60.4-2.131a1.918,1.918,0,0,0,.76-.91l2.32.343A3.945,3.945,0,0,1,61.9-.58a4.7,4.7,0,0,1-2.672.756,4.891,4.891,0,0,1-3.52-1.244A4.538,4.538,0,0,1,54.4-4.518a4.565,4.565,0,0,1,1.31-3.45A4.746,4.746,0,0,1,59.15-9.229a4.536,4.536,0,0,1,3.243,1.151A4.517,4.517,0,0,1,63.624-4.649ZM59.168-7.436a2,2,0,0,0-2.2,1.74h4.148A1.9,1.9,0,0,0,60.5-6.987,1.978,1.978,0,0,0,59.168-7.436Zm-86.7,37.611a6.572,6.572,0,0,1-1.956-.277,4.6,4.6,0,0,1-1.569-.831,3.717,3.717,0,0,1-1.059-1.45,5.226,5.226,0,0,1-.382-2.065V17.3h2.637v7.893a2.761,2.761,0,0,0,.637,2.013,2.278,2.278,0,0,0,1.692.642,2.3,2.3,0,0,0,1.7-.646,2.739,2.739,0,0,0,.646-2.008V17.3h2.637v8.253a5.226,5.226,0,0,1-.382,2.065A3.7,3.7,0,0,1-24,29.068a4.651,4.651,0,0,1-1.573.831A6.6,6.6,0,0,1-27.536,30.176Zm13.008-9.387a3.522,3.522,0,0,1,2.5.813,3.014,3.014,0,0,1,.87,2.316V30H-13.7V24.463a1.574,1.574,0,0,0-.453-1.248,1.705,1.705,0,0,0-1.165-.4,2.379,2.379,0,0,0-.756.114,1.942,1.942,0,0,0-.633.356,1.573,1.573,0,0,0-.453.681,3.15,3.15,0,0,0-.171,1.046V30h-2.531V20.965h2.531v1A3.481,3.481,0,0,1-14.528,20.789Zm7.11-1.178a1.421,1.421,0,0,1-1.037-.426,1.4,1.4,0,0,1-.431-1.033,1.382,1.382,0,0,1,.435-1.024A1.425,1.425,0,0,1-7.418,16.7a1.4,1.4,0,0,1,1.02.426,1.389,1.389,0,0,1,.431,1.024A1.4,1.4,0,0,1-6.4,19.185,1.4,1.4,0,0,1-7.418,19.611ZM-8.71,30V20.965h2.549V30Zm8.534,0a2.729,2.729,0,0,1-2.039-.734,2.854,2.854,0,0,1-.721-2.087V22.907H-4.711V20.965h.571a1.491,1.491,0,0,0,1.125-.378,1.946,1.946,0,0,0,.36-1.345v-1.2H-.369v2.918H1.494v1.942H-.369v4q0,1.169,1.046,1.169h.817V30Zm11-2.452a8.453,8.453,0,0,0,.22,2.206V30H8.684l-.2-.984a2.938,2.938,0,0,1-1.266.87,4.664,4.664,0,0,1-1.635.29,4.3,4.3,0,0,1-.844-.079,2.868,2.868,0,0,1-.76-.268,2.307,2.307,0,0,1-.628-.47,2.062,2.062,0,0,1-.422-.716,2.853,2.853,0,0,1-.158-.98,2.718,2.718,0,0,1,.167-.98,2.3,2.3,0,0,1,.439-.734,2.666,2.666,0,0,1,.712-.536,5.447,5.447,0,0,1,.9-.387,10.712,10.712,0,0,1,1.072-.281l1.485-.334a1.638,1.638,0,0,0,.672-.286.57.57,0,0,0,.2-.453.932.932,0,0,0-.444-.87,2.072,2.072,0,0,0-1.077-.264,1.549,1.549,0,0,0-1.767,1.38l-2.241-.4a3.034,3.034,0,0,1,1.31-2.061,5.2,5.2,0,0,1,2.839-.664q3.8,0,3.8,3.261Zm-4.456.914a2.036,2.036,0,0,0,1.564-.655,2.759,2.759,0,0,0,.606-1.938L6.4,26.476a2.534,2.534,0,0,0-.9.369.758.758,0,0,0-.312.65.842.842,0,0,0,.334.716A1.382,1.382,0,0,0,6.372,28.462ZM15.715,22.4A2.933,2.933,0,0,1,16.9,21.312a3.62,3.62,0,0,1,1.767-.453v2.259a3.423,3.423,0,0,0-2.162.545,2.379,2.379,0,0,0-.668,1.934V30H13.289V20.965h2.426Zm5.73-2.786a1.421,1.421,0,0,1-1.037-.426,1.4,1.4,0,0,1-.431-1.033,1.382,1.382,0,0,1,.435-1.024,1.425,1.425,0,0,1,1.033-.426,1.455,1.455,0,0,1,0,2.909ZM20.153,30V20.965H22.7V30ZM32.73,27.548a8.453,8.453,0,0,0,.22,2.206V30H30.586l-.2-.984a2.938,2.938,0,0,1-1.266.87,4.664,4.664,0,0,1-1.635.29,4.3,4.3,0,0,1-.844-.079,2.868,2.868,0,0,1-.76-.268,2.307,2.307,0,0,1-.628-.47,2.062,2.062,0,0,1-.422-.716,2.853,2.853,0,0,1-.158-.98,2.718,2.718,0,0,1,.167-.98,2.3,2.3,0,0,1,.439-.734,2.666,2.666,0,0,1,.712-.536,5.447,5.447,0,0,1,.9-.387,10.712,10.712,0,0,1,1.072-.281l1.485-.334a1.638,1.638,0,0,0,.672-.286.57.57,0,0,0,.2-.453.932.932,0,0,0-.444-.87,2.072,2.072,0,0,0-1.077-.264,1.549,1.549,0,0,0-1.767,1.38l-2.241-.4a3.034,3.034,0,0,1,1.31-2.061,5.2,5.2,0,0,1,2.839-.664q3.8,0,3.8,3.261Zm-4.456.914a2.036,2.036,0,0,0,1.564-.655,2.759,2.759,0,0,0,.606-1.938l-2.145.606a2.534,2.534,0,0,0-.9.369.758.758,0,0,0-.312.65.842.842,0,0,0,.334.716A1.382,1.382,0,0,0,28.274,28.462Z" transform="translate(1084 9173)" fill="#00223d"/>
      <path id="Trazado_35283" data-name="Trazado 35283" d="M-57.313-12.7a3.822,3.822,0,0,1,2.927,1.182A4.112,4.112,0,0,1-53.279-8.6a4.011,4.011,0,0,1-1.1,2.9,3.891,3.891,0,0,1-2.936,1.138h-2.646V0H-62.6V-12.7Zm-.439,5.941a1.938,1.938,0,0,0,1.45-.5,1.888,1.888,0,0,0,.483-1.375,1.873,1.873,0,0,0-.488-1.358,1.92,1.92,0,0,0-1.446-.505h-2.206v3.735Zm14.546,2.109-.026.606h-6.7a2.339,2.339,0,0,0,.721,1.652,2.3,2.3,0,0,0,1.591.571,2.221,2.221,0,0,0,1.191-.312,1.918,1.918,0,0,0,.76-.91l2.32.343A3.945,3.945,0,0,1-44.93-.58,4.7,4.7,0,0,1-47.6.176a4.891,4.891,0,0,1-3.52-1.244,4.538,4.538,0,0,1-1.305-3.45,4.565,4.565,0,0,1,1.31-3.45,4.746,4.746,0,0,1,3.437-1.261,4.536,4.536,0,0,1,3.243,1.151A4.517,4.517,0,0,1-43.207-4.649Zm-4.456-2.786a2,2,0,0,0-2.2,1.74h4.148a1.9,1.9,0,0,0-.624-1.292A1.978,1.978,0,0,0-47.663-7.436Zm8.807-.167A2.933,2.933,0,0,1-37.67-8.688,3.62,3.62,0,0,1-35.9-9.141v2.259a3.423,3.423,0,0,0-2.162.545A2.379,2.379,0,0,0-38.733-4.4V0h-2.549V-9.035h2.426Zm10.116-3.876h-.053q-.246,0-.374,0t-.36.031a1.459,1.459,0,0,0-.365.079,1.859,1.859,0,0,0-.3.163.809.809,0,0,0-.264.264,1.593,1.593,0,0,0-.158.391,2.042,2.042,0,0,0-.066.545v.967h1.942v1.942h-1.942V0h-2.522V-7.093h-1.767V-9.035h1.767v-.976a5.284,5.284,0,0,1,.114-1.151,3.5,3.5,0,0,1,.308-.875,2.047,2.047,0,0,1,.514-.628,3.034,3.034,0,0,1,.668-.422,3.817,3.817,0,0,1,.831-.255,7.285,7.285,0,0,1,.954-.127q.47-.031,1.077-.031Zm9.9,6.829-.026.606h-6.7a2.339,2.339,0,0,0,.721,1.652,2.3,2.3,0,0,0,1.591.571,2.221,2.221,0,0,0,1.191-.312,1.918,1.918,0,0,0,.76-.91l2.32.343A3.945,3.945,0,0,1-20.566-.58a4.7,4.7,0,0,1-2.672.756,4.891,4.891,0,0,1-3.52-1.244,4.538,4.538,0,0,1-1.305-3.45,4.565,4.565,0,0,1,1.31-3.45,4.746,4.746,0,0,1,3.437-1.261,4.536,4.536,0,0,1,3.243,1.151A4.517,4.517,0,0,1-18.844-4.649ZM-23.3-7.436A2,2,0,0,0-25.5-5.7h4.148a1.9,1.9,0,0,0-.624-1.292A1.978,1.978,0,0,0-23.3-7.436Zm10.468,7.6a4.827,4.827,0,0,1-3.489-1.3,4.493,4.493,0,0,1-1.354-3.393,4.483,4.483,0,0,1,1.349-3.393,4.842,4.842,0,0,1,3.494-1.292,4.814,4.814,0,0,1,2.927.87A3.885,3.885,0,0,1-8.394-5.889l-2.338.255a2,2,0,0,0-.756-1.187,2.3,2.3,0,0,0-1.371-.4,2.072,2.072,0,0,0-1.652.738,2.894,2.894,0,0,0-.633,1.951,2.9,2.9,0,0,0,.633,1.947,2.067,2.067,0,0,0,1.652.743,2.278,2.278,0,0,0,1.367-.4,2.05,2.05,0,0,0,.76-1.187l2.338.255A3.9,3.9,0,0,1-9.918-.712,4.8,4.8,0,0,1-12.832.167ZM-3.226,0A2.729,2.729,0,0,1-5.265-.734a2.854,2.854,0,0,1-.721-2.087V-7.093H-7.761V-9.035h.571a1.491,1.491,0,0,0,1.125-.378,1.946,1.946,0,0,0,.36-1.345v-1.2h2.285v2.918h1.863v1.942H-3.419v4q0,1.169,1.046,1.169h.817V0Zm11-2.452A8.453,8.453,0,0,0,8-.246V0H5.634l-.2-.984a2.938,2.938,0,0,1-1.266.87,4.664,4.664,0,0,1-1.635.29A4.3,4.3,0,0,1,1.688.1a2.868,2.868,0,0,1-.76-.268A2.307,2.307,0,0,1,.3-.642a2.062,2.062,0,0,1-.422-.716,2.853,2.853,0,0,1-.158-.98,2.718,2.718,0,0,1,.167-.98,2.3,2.3,0,0,1,.439-.734,2.666,2.666,0,0,1,.712-.536,5.447,5.447,0,0,1,.9-.387,10.712,10.712,0,0,1,1.072-.281L4.491-5.59a1.638,1.638,0,0,0,.672-.286.57.57,0,0,0,.2-.453.932.932,0,0,0-.444-.87,2.072,2.072,0,0,0-1.077-.264,1.549,1.549,0,0,0-1.767,1.38l-2.241-.4a3.034,3.034,0,0,1,1.31-2.061,5.2,5.2,0,0,1,2.839-.664q3.8,0,3.8,3.261Zm-4.456.914a2.036,2.036,0,0,0,1.564-.655,2.759,2.759,0,0,0,.606-1.938l-2.145.606a2.534,2.534,0,0,0-.9.369.758.758,0,0,0-.312.65.842.842,0,0,0,.334.716A1.382,1.382,0,0,0,3.322-1.538ZM20.944-9.211a3.452,3.452,0,0,1,2.329.734,2.626,2.626,0,0,1,.853,2.1V0H21.595V-5.651a1.509,1.509,0,0,0-.4-1.143,1.416,1.416,0,0,0-1.02-.387,1.633,1.633,0,0,0-1.23.492A2.235,2.235,0,0,0,18.466-5.1V0H15.908V-5.625a1.549,1.549,0,0,0-.4-1.165,1.441,1.441,0,0,0-1.046-.391,1.581,1.581,0,0,0-1.222.519,2.476,2.476,0,0,0-.475,1.7V0H10.239V-9.035h2.522v1.063a3.072,3.072,0,0,1,2.619-1.239,3.863,3.863,0,0,1,1.7.347,2.315,2.315,0,0,1,1.068,1.006A3.2,3.2,0,0,1,20.944-9.211ZM35.086-4.649l-.026.606h-6.7a2.339,2.339,0,0,0,.721,1.652,2.3,2.3,0,0,0,1.591.571,2.221,2.221,0,0,0,1.191-.312,1.918,1.918,0,0,0,.76-.91l2.32.343A3.945,3.945,0,0,1,33.363-.58a4.7,4.7,0,0,1-2.672.756,4.891,4.891,0,0,1-3.52-1.244,4.538,4.538,0,0,1-1.305-3.45,4.565,4.565,0,0,1,1.31-3.45,4.746,4.746,0,0,1,3.437-1.261,4.536,4.536,0,0,1,3.243,1.151A4.517,4.517,0,0,1,35.086-4.649ZM30.63-7.436a2,2,0,0,0-2.2,1.74h4.148a1.9,1.9,0,0,0-.624-1.292A1.978,1.978,0,0,0,30.63-7.436ZM42.346-9.211a3.522,3.522,0,0,1,2.5.813,3.014,3.014,0,0,1,.87,2.316V0h-2.54V-5.537a1.574,1.574,0,0,0-.453-1.248,1.705,1.705,0,0,0-1.165-.4,2.379,2.379,0,0,0-.756.114,1.942,1.942,0,0,0-.633.356,1.573,1.573,0,0,0-.453.681,3.15,3.15,0,0,0-.171,1.046V0H37.011V-9.035h2.531v1A3.481,3.481,0,0,1,42.346-9.211ZM51.53,0a2.729,2.729,0,0,1-2.039-.734,2.854,2.854,0,0,1-.721-2.087V-7.093H47V-9.035h.571a1.491,1.491,0,0,0,1.125-.378,1.946,1.946,0,0,0,.36-1.345v-1.2h2.285v2.918H53.2v1.942H51.337v4q0,1.169,1.046,1.169H53.2V0ZM63.624-4.649l-.026.606H56.9a2.339,2.339,0,0,0,.721,1.652,2.3,2.3,0,0,0,1.591.571A2.221,2.221,0,0,0,60.4-2.131a1.918,1.918,0,0,0,.76-.91l2.32.343A3.945,3.945,0,0,1,61.9-.58a4.7,4.7,0,0,1-2.672.756,4.891,4.891,0,0,1-3.52-1.244A4.538,4.538,0,0,1,54.4-4.518a4.565,4.565,0,0,1,1.31-3.45A4.746,4.746,0,0,1,59.15-9.229a4.536,4.536,0,0,1,3.243,1.151A4.517,4.517,0,0,1,63.624-4.649ZM59.168-7.436a2,2,0,0,0-2.2,1.74h4.148A1.9,1.9,0,0,0,60.5-6.987,1.978,1.978,0,0,0,59.168-7.436ZM-23.467,25.351l-.026.606h-6.7a2.339,2.339,0,0,0,.721,1.652,2.3,2.3,0,0,0,1.591.571,2.221,2.221,0,0,0,1.191-.312,1.918,1.918,0,0,0,.76-.91l2.32.343a3.945,3.945,0,0,1-1.582,2.118,4.7,4.7,0,0,1-2.672.756,4.891,4.891,0,0,1-3.52-1.244,4.538,4.538,0,0,1-1.305-3.45,4.565,4.565,0,0,1,1.31-3.45,4.746,4.746,0,0,1,3.437-1.261A4.536,4.536,0,0,1-24.7,21.923,4.517,4.517,0,0,1-23.467,25.351Zm-4.456-2.786a2,2,0,0,0-2.2,1.74h4.148a1.9,1.9,0,0,0-.624-1.292A1.978,1.978,0,0,0-27.923,22.564ZM-21.542,30V16.5h2.558V30Zm11.6-12.63-2,2.355h-1.556l2.3-3.234Zm.984,10.178a8.453,8.453,0,0,0,.22,2.206V30H-11.1l-.2-.984a2.938,2.938,0,0,1-1.266.87,4.664,4.664,0,0,1-1.635.29,4.3,4.3,0,0,1-.844-.079,2.868,2.868,0,0,1-.76-.268,2.307,2.307,0,0,1-.628-.47,2.062,2.062,0,0,1-.422-.716,2.853,2.853,0,0,1-.158-.98,2.718,2.718,0,0,1,.167-.98,2.3,2.3,0,0,1,.439-.734,2.666,2.666,0,0,1,.712-.536,5.447,5.447,0,0,1,.9-.387,10.712,10.712,0,0,1,1.072-.281l1.485-.334a1.638,1.638,0,0,0,.672-.286.57.57,0,0,0,.2-.453.932.932,0,0,0-.444-.87,2.072,2.072,0,0,0-1.077-.264,1.549,1.549,0,0,0-1.767,1.38l-2.241-.4a3.034,3.034,0,0,1,1.31-2.061,5.2,5.2,0,0,1,2.839-.664q3.8,0,3.8,3.261Zm-4.456.914a2.036,2.036,0,0,0,1.564-.655,2.759,2.759,0,0,0,.606-1.938l-2.145.606a2.534,2.534,0,0,0-.9.369.758.758,0,0,0-.312.65.842.842,0,0,0,.334.716A1.382,1.382,0,0,0-13.412,28.462Zm10.1,1.714a5.049,5.049,0,0,1-2.637-.633,2.675,2.675,0,0,1-1.292-1.881l2.118-.6a1.7,1.7,0,0,0,1.811,1.345,1.87,1.87,0,0,0,.923-.207.719.719,0,0,0,.36-.7.739.739,0,0,0-.149-.466,1.183,1.183,0,0,0-.461-.334,5.749,5.749,0,0,0-.615-.237q-.3-.1-.8-.233t-.835-.259a5.593,5.593,0,0,1-.8-.338,3.393,3.393,0,0,1-.659-.466,1.878,1.878,0,0,1-.492-.708,2.552,2.552,0,0,1-.171-.967,2.308,2.308,0,0,1,.98-2.021,4.379,4.379,0,0,1,2.562-.686,4.489,4.489,0,0,1,2.364.58A2.625,2.625,0,0,1,.105,23.18l-1.96.439a1.535,1.535,0,0,0-1.608-1.143,1.761,1.761,0,0,0-.888.2.649.649,0,0,0-.352.6.685.685,0,0,0,.053.272.539.539,0,0,0,.185.22,2.692,2.692,0,0,0,.255.167,1.923,1.923,0,0,0,.36.145q.237.075.4.114l.461.119.47.123q.483.132.848.264a4.967,4.967,0,0,1,.778.369,2.792,2.792,0,0,1,.681.532,2.372,2.372,0,0,1,.444.747A2.759,2.759,0,0,1,.4,27.354a2.718,2.718,0,0,1-.3,1.31,2.276,2.276,0,0,1-.831.883,4.043,4.043,0,0,1-1.173.475A6.087,6.087,0,0,1-3.313,30.176ZM5.59,30a2.729,2.729,0,0,1-2.039-.734,2.854,2.854,0,0,1-.721-2.087V22.907H1.055V20.965h.571a1.491,1.491,0,0,0,1.125-.378,1.946,1.946,0,0,0,.36-1.345v-1.2H5.4v2.918H7.26v1.942H5.4v4q0,1.169,1.046,1.169H7.26V30Zm4.922-10.389a1.421,1.421,0,0,1-1.037-.426,1.4,1.4,0,0,1-.431-1.033,1.382,1.382,0,0,1,.435-1.024,1.425,1.425,0,0,1,1.033-.426,1.455,1.455,0,0,1,0,2.909ZM9.22,30V20.965h2.549V30Zm9.255.167a4.827,4.827,0,0,1-3.489-1.3,4.493,4.493,0,0,1-1.354-3.393,4.483,4.483,0,0,1,1.349-3.393,4.842,4.842,0,0,1,3.494-1.292,4.814,4.814,0,0,1,2.927.87,3.885,3.885,0,0,1,1.512,2.452l-2.338.255a2,2,0,0,0-.756-1.187,2.3,2.3,0,0,0-1.371-.4,2.072,2.072,0,0,0-1.652.738,2.894,2.894,0,0,0-.633,1.951A2.9,2.9,0,0,0,16.8,27.42a2.067,2.067,0,0,0,1.652.743,2.278,2.278,0,0,0,1.367-.4,2.05,2.05,0,0,0,.76-1.187l2.338.255a3.9,3.9,0,0,1-1.525,2.452A4.8,4.8,0,0,1,18.475,30.167Zm13.649-2.619a8.453,8.453,0,0,0,.22,2.206V30H29.979l-.2-.984a2.938,2.938,0,0,1-1.266.87,4.664,4.664,0,0,1-1.635.29,4.3,4.3,0,0,1-.844-.079,2.868,2.868,0,0,1-.76-.268,2.307,2.307,0,0,1-.628-.47,2.062,2.062,0,0,1-.422-.716,2.853,2.853,0,0,1-.158-.98,2.718,2.718,0,0,1,.167-.98,2.3,2.3,0,0,1,.439-.734,2.666,2.666,0,0,1,.712-.536,5.447,5.447,0,0,1,.9-.387,10.712,10.712,0,0,1,1.072-.281l1.485-.334a1.638,1.638,0,0,0,.672-.286.57.57,0,0,0,.2-.453.932.932,0,0,0-.444-.87,2.072,2.072,0,0,0-1.077-.264,1.549,1.549,0,0,0-1.767,1.38l-2.241-.4a3.034,3.034,0,0,1,1.31-2.061,5.2,5.2,0,0,1,2.839-.664q3.8,0,3.8,3.261Zm-4.456.914a2.036,2.036,0,0,0,1.564-.655,2.759,2.759,0,0,0,.606-1.938l-2.145.606a2.534,2.534,0,0,0-.9.369.758.758,0,0,0-.312.65.842.842,0,0,0,.334.716A1.382,1.382,0,0,0,27.668,28.462Z" transform="translate(1235 9408)" fill="#00223d"/>
      <path id="Trazado_35284" data-name="Trazado 35284" d="M11,0,22,19H0Z" transform="translate(1263.5 9595.5) rotate(90)" fill="#472ea6"/>
      <path id="Trazado_35285" data-name="Trazado 35285" d="M11,0,22,19H0Z" transform="translate(594 9112)" fill="#472ea6"/>
    </g>
  </g>
</svg>
