<svg xmlns="http://www.w3.org/2000/svg" width="760" height="540" viewBox="0 0 760 540">
  <g id="Grupo_55210" data-name="Grupo 55210" transform="translate(-622 -5045)">
    <g id="CF1_slide" transform="translate(622 5045)">
      <g id="Layer_1" data-name="Layer 1">
        <rect id="Rectángulo_6182" data-name="Rectángulo 6182" width="760" height="540" fill="#f1eefd"/>
        <path id="Trazado_110410" data-name="Trazado 110410" d="M30.55,336c13.1-29.46,41.47-44.75,70.38-50.2,35.22-6.65,65-12.73,78.4-52.17,11.95-35.3,10.24-74.79,21.81-109.69,10-30.14,30.6-51,59.27-59.84,27.07-8.38,55.39-6.27,82.75-12.5,23.75-5.41,51.61-24.67,63.58-46.62,1.93-3.54.92-1.65,2-4.93H0V540H46c16.73-41.3,8.38-72.3-5-105.77C28.36,402.56,15.61,369.54,30.55,336Z" fill="#dad5ed"/>
        <path id="Trazado_110411" data-name="Trazado 110411" d="M0,0V540H51.35c17-43.52,6.51-77-5.71-107.63C34,403.21,20.81,370.17,35.12,338c14.67-33,48.11-43.8,66.74-47.32,34.84-6.57,67.75-12.78,82.21-55.48,6.2-18.31,8.82-37.77,11.35-56.59,2.41-17.86,4.9-36.33,10.47-53.13,9.49-28.65,28.85-48.23,56-56.63,14.58-4.51,29.36-5.86,45-7.29,12.26-1.12,24.94-2.28,37.38-5.11,26.52-6,54.63-26.69,66.86-49.1l.11-.2A14.3,14.3,0,0,0,413,3.21c.07-.28.17-.66.48-1.6L414.05,0Z" fill="#cec8e8"/>
        <path id="Trazado_110412" data-name="Trazado 110412" d="M30.55,336c13.1-29.46,41.47-44.75,70.38-50.2,35.22-6.65,65-12.73,78.4-52.17,11.95-35.3,10.24-74.79,21.81-109.69,10-30.13,30.6-51,59.27-59.84,27.07-8.38,55.39-6.27,82.75-12.5,23.75-5.41,51.61-24.67,63.58-46.62,1.93-3.54.92-1.65,2-4.93H0V540H46c16.73-41.3,8.38-72.3-5-105.77C28.36,402.56,15.61,369.54,30.55,336Z" fill="#fff"/>
        <path id="foot_left" data-name="foot left" d="M289.32,496.89s.12-5.34,1.36-7.41c.44-.72,1.42.17,2,.17,3.53,10.59,10.23,1.86,9.73,7.24Z" fill="#3a3c49"/>
        <path id="Trazado_110413" data-name="Trazado 110413" d="M279.48,238.27s-7.69,4.57-8.42,11.54,4.81,23.56,3.37,33.42-4.09,22.35-4.09,22.35l6.19,1.93s2-22.36,1.51-33.18-4.81-18.51-3.85-23.8,6.49-10.09,6.49-10.09Z" fill="#494e63"/>
        <path id="Trazado_110414" data-name="Trazado 110414" d="M286.08,240.33s-14.86-12.23-16-11.59-4.9,7.2-2.17,8.36,16.41,4.45,16.41,4.45Z" fill="#494e63"/>
        <path id="Trazado_110415" data-name="Trazado 110415" d="M315.8,122.92s15.24-7.21,33.51,9.3C349.31,132.22,331.21,152.53,315.8,122.92Z" fill="#e6cbc0"/>
        <path id="Trazado_110416" data-name="Trazado 110416" d="M380.62,219.48c6.3,19.66,3.89,30.41,5.51,52.6l-5.08,1.9s-16.54-22.9-22.42-44.43c-4.4-16.14,2.84-23.51,7.51-25.52C375.19,200.13,377.55,209.89,380.62,219.48Z" fill="#e3a976"/>
        <path id="Trazado_110417" data-name="Trazado 110417" d="M377,154.74c6,8.89,1.44,42.31,1.27,57.45-.2,18.28-7.74,17.69-13.89,16.71-13.53-2.17-12.26-50.54-5.95-65.51S377,154.74,377,154.74Z" fill="#f2e1d1"/>
        <path id="Trazado_110418" data-name="Trazado 110418" d="M387,261.47c-.28-12.75-1.74-27.65-6.33-42-3.07-9.59-5.43-19.35-14.48-15.45-4.67,2-11.91,9.38-7.51,25.52,2.91,10.64,7.23,23.44,12.06,31.82Z" fill="#f2e1d1"/>
        <path id="foot_left-2" data-name="foot left" d="M339.5,496.89s.24-5.34,1.53-7.41c.45-.72,1.41.17,2,.17,3.29,10.59,10.18,1.86,9.56,7.24Z" fill="#3a3c49"/>
        <path id="Trazado_110419" data-name="Trazado 110419" d="M287.54,374.32a.14.14,0,0,0,0-.06,4.8,4.8,0,0,1-.09-1.3c.85-11.76-8.75-80-8.72-92.19s2.41-27.07,3.67-33.78c3.52-18.81,22.17-4.2,37.91,9.34.3-.36.58-.72.89-1.07,10.87-12,35,3.92,35,3.92l-6.57,117.46c-.75,10.29,1.39,27.1,1.18,42.74-.47,34.83-2.67,71.49-2.67,71.49h-9.32s-15-56.88-15.62-71.21c-.32-7.15,2.87-41.83,2.87-41.83-2.29-25.15-6.31-66.74-6.31-66.74s-3,36-8.33,63c-.1,3.61-3.19,32.28-4.53,47.13-1.26,14-6.89,39.62-11.09,69.63h-8.42s-10.7-58.23-9.19-70.68S287.54,374.32,287.54,374.32Z" fill="#484b59"/>
        <path id="Trazado_110420" data-name="Trazado 110420" d="M282.6,420.19c1.59-12.45,9.59-45.87,9.59-45.87v-.06a5.228,5.228,0,0,1-.08-1.3c.93-11.76-8.2-80-8.09-92.19s2.59-27.07,3.9-33.78c1-5,3-7.59,5.7-8.53-5.53-1.38-9.72.58-11.21,8.53-1.26,6.71-3.63,21.6-3.67,33.78s9.57,80.43,8.72,92.19a4.8,4.8,0,0,0,.09,1.3.14.14,0,0,1,0,.06s-7.76,33.42-9.28,45.87,9.19,70.68,9.19,70.68h3.85S281,432.64,282.6,420.19Z" fill="#3c3f4c"/>
        <path id="Trazado_110421" data-name="Trazado 110421" d="M377,154.74c-4.14-8.56-28.75-19.74-41-22.84-16.67-4.21-52.69,4.06-58.37,9-3,2.6-1.53,24-1.55,34.74,0,13.47,4.32,41.77,4,52.85-.36,12.27-2.74,36.81-2.85,39.61-.52,13.11,79.52,9.69,81.24-1.93.6-4.09-3.06-24.27-1.71-33.15,3.43-22.69,1.88-24.25,10.18-38.23S378.47,158.16,377,154.74Z" fill="#f2e1d1"/>
        <path id="Trazado_110422" data-name="Trazado 110422" d="M358.39,266.14c.6-4.09-3.06-24.27-1.71-33.15,3-20,.62-20.74,6.24-33.69-19.46,3-58.75,1.25-59.88-1.29-7-15.77-1.72-52.76-1.72-52.76l11.9-3.47L311,131.67c-14.93,1.87-30,6.17-33.46,9.2-3,2.6-1.53,24-1.55,34.74,0,13.47,4.32,41.77,4,52.85-.36,12.27-2.74,36.81-2.85,39.61C276.63,281.18,356.67,277.76,358.39,266.14Z" fill="#e6cbc0"/>
        <path id="Trazado_110423" data-name="Trazado 110423" d="M306.87,132.2s9.12,19,24,20.92c17.22,2.25,24.6-13.65,24.6-13.65s-6.73-4.05-19.57-7.57S306.87,132.2,306.87,132.2Z" fill="#e3a976"/>
        <path id="Trazado_110424" data-name="Trazado 110424" d="M365.78,180v28.7s6.25,0,11.06,3.37c0,0-11.3-1.44-16.11,8.17l13,41.15h-3a134.341,134.341,0,0,1-12.94-35.84C354,207.74,365.78,180,365.78,180Z" fill="#e6cbc0"/>
        <path id="Trazado_110425" data-name="Trazado 110425" d="M345,134.73c-2.73-.95-5.79-1.93-9.07-2.83-12.84-3.51-29.06.3-29.06.3a56.122,56.122,0,0,0,6.35,9.58C328,144.28,339.29,138.38,345,134.73Z" fill="#d49156"/>
        <path id="Trazado_110426" data-name="Trazado 110426" d="M347.8,139.61l-32.98-8.19L325.27,94.7l27.44,3.34Z" fill="#e3a976"/>
        <path id="Trazado_110427" data-name="Trazado 110427" d="M314.82,131.42,328.4,142.6c11.78-1.2,20.12-9.1,20.12-9.1l.16-1.4-26.1-36.71Z" fill="#d49156"/>
        <path id="Trazado_110428" data-name="Trazado 110428" d="M330.3,377.79l-5.54-66.22,6.93-6.67-23.1,2.57,7.19,4.62-10,66.47S302.88,416,302.06,424s-9.5,66.87-9.5,66.87h3.31c4.2-30,9.83-55.6,11.09-69.63,1.34-14.85,4.43-43.52,4.53-47.13,5.31-27,8.33-63,8.33-63s4,41.59,6.31,66.74c0,0-3.19,34.68-2.87,41.83.66,14.33,15.62,71.21,15.62,71.21h4.6s-15.7-64.56-16.48-69.95S330.3,377.79,330.3,377.79Z" fill="#3c3f4c"/>
        <path id="Trazado_110429" data-name="Trazado 110429" d="M305.37,132.5s2.54,1,8.24-1.2l2.19-8.38s3.46,7.58,13.65,14.2l-1.35,17.26S316,151.13,305.37,132.5Z" fill="#f2e1d1"/>
        <path id="Trazado_110430" data-name="Trazado 110430" d="M343.24,137.25,343.18,154s9-5.17,13.38-14.22a46.071,46.071,0,0,1-7.25-4.22V132.2A17.29,17.29,0,0,1,343.24,137.25Z" fill="#f2e1d1"/>
        <path id="Trazado_110431" data-name="Trazado 110431" d="M305.37,132.5l8.41-1.85,2-7.73a57.41,57.41,0,0,0,7.36,9.17l-2.45,11.29,2.52,7.63s-8.79-6.07-11.63-9.36S305.18,134.77,305.37,132.5Z" fill="#e6cbc0"/>
        <path id="Trazado_110432" data-name="Trazado 110432" d="M343.9,271.54c-.39-8.29-1.41-32-.82-39.64.72-9.37,2.89-21.15,5.54-33.54s2.88-48.67,2.88-48.67l-32.84-1.2s-2.88,41.82-3.84,48.07-4.57,26.93-5.29,35.58c-.62,7.36-.71,34.19-.72,42.05C320.15,274.31,334.33,273.37,343.9,271.54Z" fill="#e6cbc0"/>
        <path id="Trazado_110433" data-name="Trazado 110433" d="M343.28,271.54c-.39-8.29-1.41-32-.82-39.64.72-9.37,2.89-21.15,5.54-33.54s2.87-48.67,2.87-48.67l-31-1.2S317,190.31,316,196.56s-4.57,26.93-5.29,35.58c-.61,7.36-.71,34.19-.72,42.05a178.229,178.229,0,0,0,33.29-2.65Z" fill="#f2e1d1"/>
        <path id="Trazado_110434" data-name="Trazado 110434" d="M323.41,149l27,1.08-1.08,30.29C346.85,194.82,323.41,149,323.41,149Z" fill="#f8e6d8"/>
        <path id="Trazado_110435" data-name="Trazado 110435" d="M326.29,158.4a1.8,1.8,0,1,1-1.8-1.8,1.8,1.8,0,0,1,1.8,1.8Z" fill="#494e63"/>
        <path id="Trazado_110436" data-name="Trazado 110436" d="M347,158.76a1.81,1.81,0,1,1-1.8-1.8,1.81,1.81,0,0,1,1.8,1.8Z" fill="#494e63"/>
        <path id="Trazado_110437" data-name="Trazado 110437" d="M325.57,181.84a1.79,1.79,0,1,1-.524-1.276,1.8,1.8,0,0,1,.524,1.276Z" fill="#494e63"/>
        <path id="Trazado_110438" data-name="Trazado 110438" d="M346.31,182.74a1.81,1.81,0,1,1-1.81-1.8,1.81,1.81,0,0,1,1.81,1.8Z" fill="#494e63"/>
        <path id="Trazado_110439" data-name="Trazado 110439" d="M322.15,205.28a1.81,1.81,0,1,1-1.81-1.8,1.81,1.81,0,0,1,1.81,1.8Z" fill="#494e63"/>
        <path id="Trazado_110440" data-name="Trazado 110440" d="M342.88,206.18a1.8,1.8,0,1,1-1.8-1.8,1.8,1.8,0,0,1,1.8,1.8Z" fill="#494e63"/>
        <path id="Trazado_110441" data-name="Trazado 110441" d="M318.72,229.8a1.8,1.8,0,1,1-1.8-1.8A1.8,1.8,0,0,1,318.72,229.8Z" fill="#494e63"/>
        <path id="Trazado_110442" data-name="Trazado 110442" d="M339.46,229.84a1.81,1.81,0,1,1-1.81-1.81,1.81,1.81,0,0,1,1.81,1.81Z" fill="#494e63"/>
        <path id="Trazado_110443" data-name="Trazado 110443" d="M318.11,252.88a1.81,1.81,0,1,1-1.8-1.81,1.81,1.81,0,0,1,1.8,1.81Z" fill="#494e63"/>
        <path id="Trazado_110444" data-name="Trazado 110444" d="M338.84,252.62a1.8,1.8,0,1,1-1.8-1.8,1.8,1.8,0,0,1,1.8,1.8Z" fill="#494e63"/>
        <path id="Trazado_110445" data-name="Trazado 110445" d="M296.31,177.6l-8.18-8.32S286,198.37,293.18,209,296.31,177.6,296.31,177.6Z" fill="#dfbcb9"/>
        <path id="Trazado_110446" data-name="Trazado 110446" d="M385.73,271.18c.26-.38,3.56-2.76,4.5-2.18.57.35-1.29,3.16-1.29,3.16Z" fill="#f2bc82"/>
        <path id="Trazado_110447" data-name="Trazado 110447" d="M359.77,351.5c.39-2.61.6-45.82-.48-79.57-.62-19.14-3.1-35.73-2.61-38.94,2.21-14.65,2.37-20.49,4.42-26.56h0A127.33,127.33,0,0,0,365.78,180l-69.47-2.38c-.93,23.14-7.18,38.3-16.43,48v2.85c-.84,24.37-3,26.8-3.3,50.44-.37,34.23.55,72.87.48,74.52C276.55,366.53,358.05,363.12,359.77,351.5Z" fill="#494e63"/>
        <path id="Trazado_110448" data-name="Trazado 110448" d="M277.07,353.42c-.52,13.11,81,9.7,82.7-1.92.06-.4.11-1.76.16-3.88-27.82,9.19-66.71,5.6-69.87,2.44-3.37-3.37-2.41-25.49-1-61.55,1.11-27.56,1.93-65.76,2.25-82.25a53.1,53.1,0,0,1-11.46,19.35c0,1,0,2,0,2.85-.84,24.37-3,26.8-3.3,50.44C276.22,313.13,277.14,351.77,277.07,353.42Z" fill="#494e63" opacity="0.2"/>
        <path id="Trazado_110449" data-name="Trazado 110449" d="M356.68,233c2-13.33,2.33-19.37,3.91-24.92-5.44,3.48-14.26,6.46-28.47,5.92-23.57-.88-35-8.42-39.34-12.33-2.89,10.31-7.35,18.12-12.9,24v2.85c-.11,3-.23,5.74-.37,8.18a68,68,0,0,0,13.18.43c33.71-1.65,54,1.93,64.45,4.87C356.74,237.41,356.49,234.22,356.68,233Z" fill="#494e63" opacity="0.2"/>
        <path id="Trazado_110450" data-name="Trazado 110450" d="M313.61,131.3s-6.53,19.94-2.88,48.8h-3.85s-3.4-44.59,7.44-51.5Z" fill="#494e63"/>
        <path id="Trazado_110451" data-name="Trazado 110451" d="M367.26,256.11l2.53,5.46,18.22.98-.36-6.9Z" fill="#f7e7da"/>
        <path id="Trazado_110452" data-name="Trazado 110452" d="M349.31,135.58a183.167,183.167,0,0,1-.12,46.2h3.61s3.43-39.3-3.49-48.23Z" fill="#494e63"/>
        <rect id="Rectángulo_6183" data-name="Rectángulo 6183" width="292.65" height="149.26" transform="translate(224.68 323.14)" fill="#6c58b7"/>
        <rect id="Rectángulo_6184" data-name="Rectángulo 6184" width="9.48" height="207.6" transform="translate(219.6 289.29)" fill="#5c708d"/>
        <rect id="Rectángulo_6185" data-name="Rectángulo 6185" width="9.48" height="207.6" transform="translate(510.42 289.29)" fill="#5c708d"/>
        <rect id="Rectángulo_6186" data-name="Rectángulo 6186" width="324.49" height="44.6" transform="translate(208.76 281.76)" fill="#6c58b7"/>
        <rect id="Rectángulo_6187" data-name="Rectángulo 6187" width="324.49" height="7.79" transform="translate(208.76 318.71)" fill="#f8a9c1"/>
        <path id="Trazado_110453" data-name="Trazado 110453" d="M519.91,326.35H219.6v42.07s25.88-33.19,149.85-33.19,150.46,33.19,150.46,33.19Z" fill="#576286" opacity="0.4"/>
        <rect id="Rectángulo_6188" data-name="Rectángulo 6188" width="324.49" height="1.09" transform="translate(208.76 318.71)" fill="#95b5cb"/>
        <g id="Grupo_54988" data-name="Grupo 54988" opacity="0.5">
          <path id="Trazado_110454" data-name="Trazado 110454" d="M432.13,296.27c0,6.07-29.22,11-65.27,11s-65.27-4.93-65.27-11,29.22-11,65.27-11S432.13,290.19,432.13,296.27Z" fill="#fff"/>
          <ellipse id="Elipse_4396" data-name="Elipse 4396" cx="30.67" cy="5.17" rx="30.67" ry="5.17" transform="translate(297.27 299.57)" fill="#fff"/>
          <path id="Trazado_110455" data-name="Trazado 110455" d="M416.26,307.18c0,3-14.47,5.45-32.33,5.45s-32.33-2.44-32.33-5.45,14.47-5.44,32.33-5.44S416.26,304.18,416.26,307.18Z" fill="#fff"/>
          <ellipse id="Elipse_4397" data-name="Elipse 4397" cx="18.51" cy="3.12" rx="18.51" ry="3.12" transform="translate(262.41 286.83)" fill="#fff"/>
          <ellipse id="Elipse_4398" data-name="Elipse 4398" cx="9.27" cy="1.56" rx="9.27" ry="1.56" transform="translate(250.39 299.34)" fill="#fff"/>
          <ellipse id="Elipse_4399" data-name="Elipse 4399" cx="4.64" cy="0.78" rx="4.64" ry="0.78" transform="translate(288.25 309.83)" fill="#fff"/>
          <path id="Trazado_110456" data-name="Trazado 110456" d="M426.64,313.53c0,.43-2.08.78-4.64.78s-4.64-.35-4.64-.78,2.08-.78,4.64-.78S426.64,313.1,426.64,313.53Z" fill="#fff"/>
          <ellipse id="Elipse_4400" data-name="Elipse 4400" cx="4.64" cy="0.78" rx="4.64" ry="0.78" transform="translate(236.86 292)" fill="#fff"/>
          <ellipse id="Elipse_4401" data-name="Elipse 4401" cx="4.64" cy="0.78" rx="4.64" ry="0.78" transform="translate(427.22 305.54)" fill="#fff"/>
          <ellipse id="Elipse_4402" data-name="Elipse 4402" cx="9.27" cy="1.56" rx="9.27" ry="1.56" transform="translate(427.8 286.35)" fill="#fff"/>
          <path id="Trazado_110457" data-name="Trazado 110457" d="M380.15,313.25c0,.86-4.15,1.56-9.27,1.56s-9.27-.7-9.27-1.56,4.15-1.57,9.27-1.57S380.15,312.38,380.15,313.25Z" fill="#fff"/>
          <path id="Trazado_110458" data-name="Trazado 110458" d="M356.11,309.78c0,2.1-10.11,3.81-22.58,3.81S311,311.88,311,309.78s10.11-3.8,22.58-3.8S356.11,307.68,356.11,309.78Z" fill="#fff"/>
        </g>
        <path id="Trazado_110459" data-name="Trazado 110459" d="M524.68,303.47c0,2.89-11.46,5.24-25.59,5.24s-25.59-2.35-25.59-5.24,11.46-5.23,25.59-5.23S524.68,300.58,524.68,303.47Z" fill="#576286" opacity="0.2"/>
        <path id="Trazado_110460" data-name="Trazado 110460" d="M527.58,295c0,8.82-12.76,11.47-28.49,11.47S470.6,303.77,470.6,295s12.76-20.46,28.49-20.46S527.58,286.13,527.58,295Z" fill="#eedec6"/>
        <path id="Trazado_110461" data-name="Trazado 110461" d="M518.93,281.2c4,3.53,6.5,7.78,6.5,11.49,0,8.16-11.79,10.61-26.34,10.61s-26.34-2.45-26.34-10.61c0-3.71,2.46-8,6.5-11.49-5.33,4-8.65,9.26-8.65,13.75,0,8.82,12.76,11.47,28.49,11.47s28.49-2.65,28.49-11.47C527.58,290.46,524.26,285.24,518.93,281.2Z" fill="#e4c7ab"/>
        <ellipse id="Elipse_4403" data-name="Elipse 4403" cx="10.24" cy="7.09" rx="10.24" ry="7.09" transform="translate(477.001 282.659) rotate(-26.9)" fill="#eedec6" opacity="0.2"/>
        <ellipse id="Elipse_4404" data-name="Elipse 4404" cx="6.79" cy="1.39" rx="6.79" ry="1.39" transform="translate(439.46 306.36)" fill="#576286" opacity="0.2"/>
        <path id="Trazado_110462" data-name="Trazado 110462" d="M453.64,302.94c0,3.72-3.31,5.41-7.39,5.41s-7.39-1.69-7.39-5.41,3.31-8.05,7.39-8.05S453.64,299.22,453.64,302.94Z" fill="#eedec6"/>
        <path id="Trazado_110463" data-name="Trazado 110463" d="M452.34,298.71a7,7,0,0,1,.64,2.79c0,3.38-3,4.92-6.73,4.92s-6.73-1.54-6.73-4.92a7.2,7.2,0,0,1,.63-2.79,8.28,8.28,0,0,0-1.29,4.23c0,3.72,3.31,5.41,7.39,5.41s7.39-1.69,7.39-5.41a8.2,8.2,0,0,0-1.3-4.23Z" fill="#e4c7ab"/>
        <path id="Trazado_110464" data-name="Trazado 110464" d="M446.32,300.76c-1.17,1.52-3.08,2-4.28,1.07s-1.23-2.89-.07-4.41,3.09-2,4.29-1.07S447.48,299.25,446.32,300.76Z" fill="#eedec6" opacity="0.2"/>
        <ellipse id="Elipse_4405" data-name="Elipse 4405" cx="6.79" cy="1.39" rx="6.79" ry="1.39" transform="translate(457.97 309.25)" fill="#576286" opacity="0.2"/>
        <path id="Trazado_110465" data-name="Trazado 110465" d="M472.15,305.82c0,3.72-3.31,5.41-7.39,5.41s-7.39-1.69-7.39-5.41,3.31-8.05,7.39-8.05S472.15,302.11,472.15,305.82Z" fill="#eedec6"/>
        <path id="Trazado_110466" data-name="Trazado 110466" d="M470.85,301.59a7.07,7.07,0,0,1,.64,2.79c0,3.39-3,4.93-6.73,4.93s-6.73-1.54-6.73-4.93a7.07,7.07,0,0,1,.64-2.79,8.2,8.2,0,0,0-1.3,4.23c0,3.72,3.31,5.41,7.39,5.41s7.39-1.69,7.39-5.41a8.2,8.2,0,0,0-1.3-4.23Z" fill="#e4c7ab"/>
        <path id="Trazado_110467" data-name="Trazado 110467" d="M464.83,303.65c-1.17,1.51-3.08,2-4.28,1.07s-1.23-2.9-.07-4.41,3.09-2,4.29-1.08S466,302.13,464.83,303.65Z" fill="#eedec6" opacity="0.2"/>
        <ellipse id="Elipse_4406" data-name="Elipse 4406" cx="6.79" cy="1.39" rx="6.79" ry="1.39" transform="translate(447.39 313.94)" fill="#576286" opacity="0.2"/>
        <path id="Trazado_110468" data-name="Trazado 110468" d="M461.57,310.51c0,3.72-3.3,5.41-7.39,5.41s-7.39-1.69-7.39-5.41,3.31-8.05,7.39-8.05S461.57,306.79,461.57,310.51Z" fill="#eedec6"/>
        <path id="Trazado_110469" data-name="Trazado 110469" d="M460.28,306.28a7,7,0,0,1,.63,2.79c0,3.39-3,4.93-6.73,4.93s-6.73-1.54-6.73-4.93a7,7,0,0,1,.64-2.79,8.2,8.2,0,0,0-1.3,4.23c0,3.72,3.31,5.41,7.39,5.41s7.4-1.69,7.4-5.41A8.3,8.3,0,0,0,460.28,306.28Z" fill="#e4c7ab"/>
        <path id="Trazado_110470" data-name="Trazado 110470" d="M454.25,308.34c-1.16,1.51-3.08,2-4.28,1.07s-1.23-2.9-.06-4.42,3.08-2,4.28-1.07S455.42,306.82,454.25,308.34Z" fill="#eedec6" opacity="0.2"/>
        <g id="Grupo_54989" data-name="Grupo 54989" opacity="0.2">
          <path id="Trazado_110471" data-name="Trazado 110471" d="M367.46,305.1c0,1-5.09,1.91-11.38,1.91s-11.37-.86-11.37-1.91,5.09-1.92,11.37-1.92S367.46,304,367.46,305.1Z" fill="#fff"/>
          <path id="Trazado_110472" data-name="Trazado 110472" d="M361.45,297.05c0,2.09-10.05,3.79-22.45,3.79s-22.46-1.7-22.46-3.79,10-3.78,22.46-3.78S361.45,295,361.45,297.05Z" fill="#fff"/>
          <path id="Trazado_110473" data-name="Trazado 110473" d="M415.54,292.33c0,1.28-6.14,2.31-13.71,2.31s-13.71-1-13.71-2.31,6.14-2.31,13.71-2.31S415.54,291.06,415.54,292.33Z" fill="#fff"/>
        </g>
        <path id="Trazado_110474" data-name="Trazado 110474" d="M377.51,264.28c.26-.37,4.5-2.32,5.08-2s-1.29,3.16-1.29,3.16Z" fill="#f2bc82"/>
        <path id="Trazado_110475" data-name="Trazado 110475" d="M381.45,266.36c.26-.38,3.56-2.76,4.5-2.18.57.35-1.29,3.16-1.29,3.16Z" fill="#f2bc82"/>
        <ellipse id="Elipse_4407" data-name="Elipse 4407" cx="25.59" cy="5.24" rx="25.59" ry="5.24" transform="translate(342.97 286.31)" fill="#576286" opacity="0.4"/>
        <path id="Trazado_110476" data-name="Trazado 110476" d="M397,283.17c0,8.82-12.75,11.47-28.48,11.47s-28.49-2.65-28.49-11.47,12.75-20.46,28.49-20.46S397,274.35,397,283.17Z" fill="#eedec6"/>
        <path id="Trazado_110477" data-name="Trazado 110477" d="M376.82,270.56c1,4.71-4.1,9.83-11.47,11.44s-14.17-.9-15.2-5.61,4.1-9.83,11.47-11.44S375.79,265.85,376.82,270.56Z" fill="#eedec6" opacity="0.2"/>
        <path id="Trazado_110478" data-name="Trazado 110478" d="M353.39,286.93c-.43.84-1.78,1-3,.39s-1.9-1.83-1.47-2.67,1.78-1,3-.39S353.82,286.08,353.39,286.93Z" fill="#e4ceb4"/>
        <path id="Trazado_110479" data-name="Trazado 110479" d="M358.42,284.61c-.37.87-1.71,1.14-3,.59s-2-1.69-1.66-2.56,1.71-1.14,3-.59S358.79,283.74,358.42,284.61Z" fill="#e4ceb4"/>
        <path id="Trazado_110480" data-name="Trazado 110480" d="M361.29,280.47c-.25.91-1.54,1.35-2.89,1s-2.23-1.4-2-2.31,1.54-1.36,2.89-1S361.53,279.55,361.29,280.47Z" fill="#e4ceb4"/>
        <path id="Trazado_110481" data-name="Trazado 110481" d="M363,276.91c-.24.91-1.53,1.36-2.88,1s-2.23-1.4-2-2.31,1.54-1.36,2.89-1S363.28,276,363,276.91Z" fill="#e4ceb4"/>
        <path id="Trazado_110482" data-name="Trazado 110482" d="M354.78,267.68c.39.86-.31,2-1.58,2.61s-2.61.36-3-.5.31-2,1.58-2.61S354.38,266.82,354.78,267.68Z" fill="#e4ceb4"/>
        <path id="Trazado_110483" data-name="Trazado 110483" d="M382.13,265.6a2.05,2.05,0,1,1-2.57.66,1.89,1.89,0,0,1,2.57-.66Z" fill="#e4ceb4"/>
        <path id="Trazado_110484" data-name="Trazado 110484" d="M384.84,267.22a2.06,2.06,0,1,1-2.57.66,1.88,1.88,0,0,1,2.57-.66Z" fill="#e4ceb4"/>
        <path id="Trazado_110485" data-name="Trazado 110485" d="M387.67,269.06a2.05,2.05,0,1,1-2.63.34A1.89,1.89,0,0,1,387.67,269.06Z" fill="#e4ceb4"/>
        <path id="Trazado_110486" data-name="Trazado 110486" d="M389.87,270.69a1.62,1.62,0,1,1-2.07.27,1.49,1.49,0,0,1,2.07-.27Z" fill="#e4ceb4"/>
        <path id="Trazado_110487" data-name="Trazado 110487" d="M388.4,269.42c4,3.53,6.5,7.78,6.5,11.49,0,8.16-11.79,10.61-26.34,10.61s-26.35-2.45-26.35-10.61c0-3.71,2.47-8,6.5-11.49-5.32,4-8.64,9.26-8.64,13.75,0,8.82,12.75,11.47,28.49,11.47S397,292,397,283.17C397,278.68,393.72,273.46,388.4,269.42Z" fill="#e4c7ab"/>
        <path id="Trazado_110488" data-name="Trazado 110488" d="M340.85,279.26l.23.24c.22.23.44.45.67.66s.3.26.46.39.45.36.68.53l.49.34c.22.15.43.28.65.41l.49.29.55.28.5.24.37.15a4.987,4.987,0,0,0,.48.18h0c.2.19.41.38.63.6l.24.22.65.59c.54.43,2.9,2.86,4,2.16a.4.4,0,0,0,.18-.27c.25-.87-2.4-2.66-2.61-3a9.9,9.9,0,0,0-1.06-1q.46-.4,1-.93c.73.44,1.52.92,1.91,1.12.8.41,4.49,2.87,5.71,1.67s-3.87-2.65-4.27-3.06c-.17-.16-1-.75-1.88-1.38.24-.29.48-.58.7-.88,1,.2,2.28.46,2.79.61.86.25,4.58,2.51,5.56,1.11s-3.75-2.91-4.22-3.23a15.728,15.728,0,0,0-2.65-.72,8.48,8.48,0,0,0,.45-.91,21.452,21.452,0,0,1,2.31.26c.88.19,4.6,2,5.23.9.86-1.47-3.94-2.47-4.43-2.77a31.192,31.192,0,0,0-4-.83,21.8,21.8,0,0,0-5.25-.91c.61-.53,1.36-1.16,1.86-1.54,1-.72,3.74-1.65,3-3-.11-.21-.65-.09-1.38.18C345.94,271.06,342.34,275.23,340.85,279.26Z" fill="#e4c7ab"/>
        <path id="Trazado_110489" data-name="Trazado 110489" d="M384,268.63c.26-.37,3.56-2.75,4.5-2.17.57.35-1.29,3.15-1.29,3.15Z" fill="#f2bc82"/>
        <path id="Trazado_110490" data-name="Trazado 110490" d="M284.53,140.91c4.24,6.8,4.07,17.36,9.57,52.38s5.07,35.67-1.48,41.8c-5.69,5.31-22.35-1.85-27.66-35-4.36-27.22.06-39,1.3-43.9C268.78,146.08,280.92,135.14,284.53,140.91Z" fill="#e6cbc0"/>
        <path id="Trazado_110491" data-name="Trazado 110491" d="M305.84,226.81c16.25,12.74,22.58,27.16,36.38,44.61l-3.13,4.42s-29.91-11-46.86-25.54c-12.71-10.89-21.85-30.35-19.12-34.62C278.41,207.37,297.91,220.6,305.84,226.81Z" fill="#f2bc82"/>
        <path id="Trazado_110492" data-name="Trazado 110492" d="M297.7,219.31c19.22,14.22,32.81,33.24,39.95,43.06l-9.73,13.48a208.2,208.2,0,0,1-35.69-24.11c-12.71-10.89-25.64-35.39-22.91-39.67C274.63,203.76,289.61,213.31,297.7,219.31Z" fill="#e6cbc0"/>
        <path id="Trazado_110493" data-name="Trazado 110493" d="M294.16,249.09c-9.67-8.27-19.45-24.41-22.38-33.56a81.329,81.329,0,0,1-4.9-18.09c-4.36-27.22.06-39,1.3-43.91a24.49,24.49,0,0,1,3.28-7.23,26.7,26.7,0,0,0-5.2,9.88c-1.24,4.94-5.66,16.68-1.3,43.9a81.621,81.621,0,0,0,4.89,18.1c2.94,9.14,12.72,25.28,22.38,33.56a208.2,208.2,0,0,0,35.69,24.11l1.91-2.65a208.27,208.27,0,0,1-35.67-24.11Z" fill="#dfbcb9"/>
        <path id="Trazado_110494" data-name="Trazado 110494" d="M339.09,275.84c1.5,4,6.62,6.48,7.94,6.6s7.81-7.39,6.73-9.19-11.54-1.83-11.54-1.83S339.35,274.73,339.09,275.84Z" fill="#f2bc82"/>
        <path id="Trazado_110495" data-name="Trazado 110495" d="M351.33,274.85s3.65.21,4.53.41,4.6,2,5.23.9c.86-1.47-3.94-2.47-4.43-2.77a58.183,58.183,0,0,0-5.81-1.14Z" fill="#f2bc82"/>
        <path id="Trazado_110496" data-name="Trazado 110496" d="M350.32,277.89s3.22.6,4.09.86,4.58,2.51,5.56,1.11-3.75-2.91-4.22-3.23a54.18,54.18,0,0,0-5.73-1.36Z" fill="#f2bc82"/>
        <path id="Trazado_110497" data-name="Trazado 110497" d="M348,279.74s2.6,1.64,3.41,2.05,4.49,2.87,5.71,1.67-3.87-2.65-4.27-3.06-4.66-3.29-4.66-3.29Z" fill="#f2bc82"/>
        <path id="Trazado_110498" data-name="Trazado 110498" d="M345.75,281.65s1.67,1.63,2.2,2.07,2.9,2.86,4,2.16-2.19-2.89-2.43-3.26-3.21-2.9-3.21-2.9Z" fill="#f2bc82"/>
        <path id="Trazado_110499" data-name="Trazado 110499" d="M342.22,271.42a16.259,16.259,0,0,1,4.09-2.29c2.28-.83,5.64-2.62,5.95-2.06.78,1.39-2,2.32-3,3a35.5,35.5,0,0,0-2.87,2.42Z" fill="#f2bc82"/>
        <path id="Trazado_110500" data-name="Trazado 110500" d="M348.32,283.12c-.32-.26-1-.91-1.53-1.42-1.86-.58-6-2.94-7.34-6.46,0-.15-.3.32-.36.6,1.33,3.53,5.48,5.88,7.33,6.46.54.51,1.22,1.16,1.53,1.42.54.43,2.9,2.86,4,2.16a.44.44,0,0,0,.17-.55C351,285.7,348.82,283.53,348.32,283.12Z" fill="#e3a976"/>
        <path id="Trazado_110501" data-name="Trazado 110501" d="M321.43,273.73l13.88-16.04,3.79,5.04-10.46,15.69Z" fill="#f2e1d1"/>
        <circle id="Elipse_4408" data-name="Elipse 4408" cx="0.99" cy="0.99" r="0.99" transform="translate(323.77 272.02)" fill="#dfbcb9"/>
        <circle id="Elipse_4409" data-name="Elipse 4409" cx="0.99" cy="0.99" r="0.99" transform="translate(326.48 274)" fill="#dfbcb9"/>
        <path id="Trazado_110502" data-name="Trazado 110502" d="M386.21,258.23a1,1,0,1,1,.17-1.4A1,1,0,0,1,386.21,258.23Z" fill="#e6cbc0"/>
        <path id="Trazado_110503" data-name="Trazado 110503" d="M386.32,261.58a1,1,0,1,1,.17-1.39A1,1,0,0,1,386.32,261.58Z" fill="#e6cbc0"/>
        <path id="Trazado_110504" data-name="Trazado 110504" d="M312.23,81.43s-1.38,18.45,6.4,26.13c7.41,7.3,10.55-40.73,10.55-40.73Z" fill="#855634"/>
        <path id="Trazado_110505" data-name="Trazado 110505" d="M319.4,93.13c-5.76,35.76,17.21,40,24.72,40.56,11.9.88,18-8.23,20.56-31.63,4.39-21.69,15.69-34.88-10.48-40.51C332.28,56.83,323.6,67.08,319.4,93.13Z" fill="#f3bd83"/>
        <path id="Trazado_110506" data-name="Trazado 110506" d="M346.94,60.52c-11,3-17.44,12.17-20.74,33.47-5.36,34.59,7.15,35.75,16.54,39.57-8.59-1-28.78-6.64-23.34-40.43C323.1,70.18,330.29,59.51,346.94,60.52Z" fill="#e1a26a"/>
        <path id="Trazado_110507" data-name="Trazado 110507" d="M311.68,94.3A6.71,6.71,0,1,0,320,90.23a6.53,6.53,0,0,0-8.32,4.07Z" fill="#e1a26a"/>
        <path id="Trazado_110508" data-name="Trazado 110508" d="M332.13,83.93A20.86,20.86,0,0,1,346,81.15l.48-3.44s-7.3-2.14-14.37,4.06Z" fill="#855634"/>
        <path id="Trazado_110509" data-name="Trazado 110509" d="M367.46,91.63c-.34-2.49-4.41-6-8.45-7.15l1.75-3.79s7.14,2.2,8.14,8.73Z" fill="#855634"/>
        <path id="Trazado_110510" data-name="Trazado 110510" d="M317,92.45a4,4,0,0,1,2.44.34,3.639,3.639,0,0,0-.57,0,3.81,3.81,0,0,0-3.13,4.38,3.58,3.58,0,0,0,2.11,2.53,3.74,3.74,0,0,1-4-2.88A3.82,3.82,0,0,1,317,92.45Z" fill="#d59256"/>
        <path id="Trazado_110511" data-name="Trazado 110511" d="M344,88.12s.33,6.27-4.61,5.95a7.28,7.28,0,0,1-5-4.48C337.73,87.76,341,86.49,344,88.12Z" fill="#ffe3ca"/>
        <path id="Trazado_110512" data-name="Trazado 110512" d="M344.58,89a19.19,19.19,0,0,0-10.92,1l-.13-.57s3.85-3.36,11.24-2.2Z" fill="#855634"/>
        <path id="Trazado_110513" data-name="Trazado 110513" d="M336.33,91.27A3.19,3.19,0,1,0,339.41,88a3.19,3.19,0,0,0-3.08,3.27Z" fill="#855634"/>
        <path id="Trazado_110514" data-name="Trazado 110514" d="M364.57,95.18s-1.1,4.38-5.24,2.83c-4-1.48-2-6.46-2-6.46C358,90.51,364.73,92.36,364.57,95.18Z" fill="#ffe3ca"/>
        <path id="Trazado_110515" data-name="Trazado 110515" d="M364.85,96.3a12.44,12.44,0,0,0-7.91-4.73l.43-1.56s6.16,1.25,7.75,5.77Z" fill="#855634"/>
        <path id="Trazado_110516" data-name="Trazado 110516" d="M357,95.23a3.07,3.07,0,1,0,.842-2.2A3.06,3.06,0,0,0,357,95.23Z" fill="#855634"/>
        <path id="Trazado_110517" data-name="Trazado 110517" d="M355.39,114.9l-18.79-4.49s1.23,9.1,7.57,10.61S355.39,114.9,355.39,114.9Z" fill="#996237"/>
        <path id="Trazado_110518" data-name="Trazado 110518" d="M352.62,115l-14.81-3.5s.16,3,13.21,5.22Z" fill="#f7e6c8"/>
        <path id="Trazado_110519" data-name="Trazado 110519" d="M338,115.11c1.1,2.47,3,5.15,6.18,5.91a7.4,7.4,0,0,0,3.72-.1C345.66,115.27,340.36,115,338,115.11Z" fill="#996237" opacity="0.4"/>
        <path id="Trazado_110520" data-name="Trazado 110520" d="M336.8,110.09c.17.19.33.65.24.73s-.53-.1-.71-.29-.16-.38,0-.5A.34.34,0,0,1,336.8,110.09Z" fill="#996237"/>
        <path id="Trazado_110521" data-name="Trazado 110521" d="M355.65,115.23c-.25.06-.73,0-.76-.15s.36-.41.6-.47.41,0,.46.21S355.9,115.16,355.65,115.23Z" fill="#996237"/>
        <path id="Trazado_110522" data-name="Trazado 110522" d="M329.72,73.86s13.34-6,26.86-1.27a24.47,24.47,0,0,1,13.09,10.8c1.29-5,1.82-9.3.27-12.79-6.23-4.32-15.84-9.42-26.16-9C326.11,62.32,329.72,73.86,329.72,73.86Z" fill="#e1a26a"/>
        <path id="Trazado_110523" data-name="Trazado 110523" d="M347.08,124.8c-.13,1.11-1.61,1.83-3.21,1.64s-2.72-1.23-2.59-2.34,1.41-.47,3-.27S347.22,123.68,347.08,124.8Z" fill="#e0a16a"/>
        <path id="Trazado_110524" data-name="Trazado 110524" d="M351.43,93.67c-.45-.27-2.88,2.89-1.44,5.23s5.48.57,5.59,4.62-7.94,2.68-8.3,3.31,10.45,2,10.24-3.47c-.19-5-5.89-3.24-6.62-5.8C350.36,95.64,351.88,93.94,351.43,93.67Z" fill="#d59256"/>
        <path id="Trazado_110525" data-name="Trazado 110525" d="M320,90.23a4,4,0,0,1,1.46,3.21c-.06,2.11-.58,5.48-.58,5.48l3.84.72s1.68-20.43,7.69-29.29a54.249,54.249,0,0,0-10.28,4S318.45,87.94,320,90.23Z" fill="#855634"/>
        <path id="Trazado_110526" data-name="Trazado 110526" d="M312.23,81.43s15.09-16.21,41.6-12.06c9.61,2.68,13.09,6.22,16.42,11.55l5.65-27.11C358,27.52,315.19,45.1,316.33,48a140.861,140.861,0,0,0-4.1,33.43Z" fill="#f2e1d1"/>
        <path id="Trazado_110527" data-name="Trazado 110527" d="M337.14,40.2c-11.94,1.72-21.35,6.41-20.81,7.78a140.86,140.86,0,0,0-4.1,33.45s7.11-7.63,20.13-11.08C333.89,55.21,335.83,45,337.14,40.2Z" fill="#e6cbc0"/>
        <path id="Trazado_110528" data-name="Trazado 110528" d="M312.45,74.66a20.747,20.747,0,0,1-.07,2.09c5.28-4.15,19.63-13.08,42.33-9.54,9.07,2.43,13.14,5.43,16.39,9.63l.39-1.88c-3.28-3.94-7.55-6.83-16.38-9.19C333.23,62.35,318.81,70.08,312.45,74.66Z" fill="#e6cbc0"/>
        <path id="Trazado_110529" data-name="Trazado 110529" d="M370.47,70.91,374.55,52a31.368,31.368,0,0,0-4.15-4.36l-4.48,19.22a23,23,0,0,1,4.55,4.05Z" fill="#f7e7da"/>
        <path id="Trazado_110530" data-name="Trazado 110530" d="M362.67,64.75l4.42-19.54a32.73,32.73,0,0,0-7.39-3.53l-5.16,20.15A47.151,47.151,0,0,1,362.67,64.75Z" fill="#f7e7da"/>
        <path id="Trazado_110531" data-name="Trazado 110531" d="M332.36,70.35c-.78.21-1.52.45-2.26.69-.4.12-.82.26-1.28.43h0a47.45,47.45,0,0,0-13.06,7l-3.53,3s-.1,1.4-.09,3.55c1.88-1.81,6.68-5.42,18.37-11.2A23.515,23.515,0,0,1,332.36,70.35Z" fill="#855634" opacity="0.3"/>
        <path id="Trazado_110532" data-name="Trazado 110532" d="M337.47,265.17l-5.33,7.99,6.94,2.68.37-.6-4.86-2.95,4-5.61Z" fill="#e3a976"/>
        <path id="Trazado_110533" data-name="Trazado 110533" d="M383.35,262.67c1,.8-1.05,6-2.58,5.34s.07-3.17.5-4.26S382.11,261.68,383.35,262.67Z" fill="#f2bc82"/>
        <path id="Trazado_110534" data-name="Trazado 110534" d="M389.19,266.88c.91.84-1.6,4.65-3,3.87s.37-2.57.9-3.37S388.08,265.85,389.19,266.88Z" fill="#f2bc82"/>
        <path id="Trazado_110535" data-name="Trazado 110535" d="M390.72,269.17c.85.49-.57,2.84-1.83,2.4s-.1-1.56.2-2.05S389.67,268.57,390.72,269.17Z" fill="#f2bc82"/>
        <path id="Trazado_110536" data-name="Trazado 110536" d="M386.62,264.67c.87,1-2.08,5.75-3.5,4.89s.62-3.14,1.24-4.15S385.56,263.49,386.62,264.67Z" fill="#f2bc82"/>
        <path id="Trazado_110537" data-name="Trazado 110537" d="M383.35,262.67a1.9,1.9,0,0,0-.66-.36l.18.12c1,.78-.93,5.61-2.44,5.34a1,1,0,0,0,.34.24C382.3,268.63,384.36,263.47,383.35,262.67Z" fill="#e3a976"/>
        <path id="Trazado_110538" data-name="Trazado 110538" d="M386.62,264.67a2.448,2.448,0,0,0-.46-.39l.1.09c.86.95-2,5.58-3.43,4.9a1,1,0,0,0,.29.29C384.54,270.42,387.49,265.64,386.62,264.67Z" fill="#e3a976"/>
        <path id="Trazado_110539" data-name="Trazado 110539" d="M389.19,266.88a1.85,1.85,0,0,0-.78-.48,2.86,2.86,0,0,1,.3.24c.86.8-1.33,4.21-2.79,3.91a1,1,0,0,0,.24.2C387.59,271.53,390.1,267.72,389.19,266.88Z" fill="#e3a976"/>
        <path id="Trazado_110540" data-name="Trazado 110540" d="M390.72,269.17a3,3,0,0,0-.41-.17c.8.5-.51,2.69-1.74,2.4a1.179,1.179,0,0,0,.32.17C390.15,272,391.57,269.66,390.72,269.17Z" fill="#e3a976"/>
      </g>
    </g>
  </g>
</svg>
