<svg xmlns="http://www.w3.org/2000/svg" xmlns:xlink="http://www.w3.org/1999/xlink" width="439" height="326.927" viewBox="0 0 439 326.927">
  <defs>
    <clipPath id="clip-path">
      <path id="Trazado_109211" data-name="Trazado 109211" d="M106.592,181.869c-14.037-31.61-45.71-11.1-50.337,9.675-2.034,9.162,2.291,19.076,9.95,26.965,1.924,11.444,3.665,26.708,2.355,40.662,0,0,20.157,9.813,32.471,6.826,6.789-1.649,2.025-18.169-3.592-32.6a36.787,36.787,0,0,0,7.962-.376C130.991,228.945,106.592,181.869,106.592,181.869Z" transform="translate(-55.753 -165.562)" fill="#da8c8d"/>
    </clipPath>
    <clipPath id="clip-path-2">
      <path id="Trazado_109216" data-name="Trazado 109216" d="M231.62,223.27s-10.262.513-11.517.916S209.8,235.117,209.8,235.117L162.61,294.488l31.216,16.006,30.016-67.581,6.194-3.4Z" transform="translate(-162.61 -223.27)" fill="#da8c8d"/>
    </clipPath>
    <clipPath id="clip-path-3">
      <path id="Trazado_109220" data-name="Trazado 109220" d="M142.821,441.4l12.433-92.8s-30.538-89.3-60.068-93.986-43.979,19.735-46.892,38.9S38.61,441.4,38.61,441.4H149.959" transform="translate(-38.61 -254.032)" fill="#f9dd89"/>
    </clipPath>
    <clipPath id="clip-path-4">
      <path id="Trazado_109227" data-name="Trazado 109227" d="M245.187,217.42l-2.281,5.442a3.152,3.152,0,0,0,0,2.382l1.53,3.986a1.951,1.951,0,0,1,.064,1.209l-4.444,16.272a8.97,8.97,0,0,0,2.291,8.667l1.329,1.329a3.335,3.335,0,0,1,.834,3.289l-.165.568-16.382-3.784a3.344,3.344,0,0,1-2.547-3.839l5.965-34.249Z" transform="translate(-225.364 -217.42)" fill="#8296c9"/>
    </clipPath>
    <clipPath id="clip-path-5">
      <path id="Trazado_109234" data-name="Trazado 109234" d="M225.13,335.411l65.922-21.321v18.838l-61.863,41.2Z" transform="translate(-225.13 -314.09)" fill="#da8c8d"/>
    </clipPath>
    <clipPath id="clip-path-6">
      <path id="Trazado_109238" data-name="Trazado 109238" d="M88.812,254.393a35.091,35.091,0,0,1,30.886,14.66c15.054,20.917,53.553,67.975,58.565,67.975,6.414,0,34.019-10.326,34.019-10.326l4.664,44.6s-46.334,17.986-55.322,16.061S83.983,341.16,72.805,324.887C55.067,299.059,54.435,256.885,88.812,254.393Z" transform="translate(-60.833 -254.317)" fill="#f9dd89"/>
    </clipPath>
    <clipPath id="clip-path-7">
      <path id="Trazado_109242" data-name="Trazado 109242" d="M290.42,315.511l3.8-4.315a20.963,20.963,0,0,0,4.334-7.77l1.832-5.983A.421.421,0,0,1,301,297.2c.98.568,3.179,2,3.262,3.363.119,1.759.623,11.077.623,11.077l19.79,2.584s-9.483,11.141-11.911,12.9-20.615,5.287-20.615,5.287Z" transform="translate(-290.42 -297.148)" fill="#da8c8d"/>
    </clipPath>
  </defs>
  <g id="Grupo_54991" data-name="Grupo 54991" transform="translate(-266 -1736)">
    <g id="CF1_oferta" transform="translate(253.42 1632.82)">
      <rect id="Rectángulo_5948" data-name="Rectángulo 5948" width="57.035" height="56.852" transform="translate(80.051 346.227)" fill="#dad5ed"/>
      <rect id="Rectángulo_5949" data-name="Rectángulo 5949" width="12.461" height="11.444" transform="translate(102.343 346.227)" fill="#fff"/>
      <rect id="Rectángulo_5950" data-name="Rectángulo 5950" width="16.052" height="56.852" transform="translate(137.086 346.227)" fill="#9182ca"/>
      <rect id="Rectángulo_5951" data-name="Rectángulo 5951" width="6.093" height="11.444" transform="translate(142.986 346.227)" fill="#dad5ed"/>
      <rect id="Rectángulo_5952" data-name="Rectángulo 5952" width="58.4" height="92.026" transform="translate(192.252 225.734)" fill="#dad5ed"/>
      <rect id="Rectángulo_5953" data-name="Rectángulo 5953" width="25.938" height="92.026" transform="translate(250.652 225.734)" fill="#9182ca"/>
      <rect id="Rectángulo_5954" data-name="Rectángulo 5954" width="15.677" height="15.658" transform="translate(214.672 225.734)" fill="#f2f3f7"/>
      <rect id="Rectángulo_5955" data-name="Rectángulo 5955" width="10.042" height="15.658" transform="translate(258.064 225.734)" fill="#dad5ed"/>
      <rect id="Rectángulo_5956" data-name="Rectángulo 5956" width="65.116" height="59.811" transform="translate(83.074 257.949)" fill="#dad5ed"/>
      <rect id="Rectángulo_5957" data-name="Rectángulo 5957" width="31.078" height="59.811" transform="translate(148.19 257.949)" fill="#9182ca"/>
      <rect id="Rectángulo_5958" data-name="Rectángulo 5958" width="35.32" height="32.444" transform="translate(360.81 369.536)" fill="#dad5ed"/>
      <rect id="Rectángulo_5959" data-name="Rectángulo 5959" width="8.677" height="10.243" transform="translate(374.132 369.536)" fill="#fff"/>
      <rect id="Rectángulo_5960" data-name="Rectángulo 5960" width="35.32" height="32.444" transform="translate(363.458 337.092)" fill="#dad5ed"/>
      <rect id="Rectángulo_5961" data-name="Rectángulo 5961" width="8.677" height="10.243" transform="translate(376.779 337.092)" fill="#fff"/>
      <path id="Trazado_109203" data-name="Trazado 109203" d="M425.355,394.306h-29.86a.459.459,0,1,1,0-.916h29.86a.459.459,0,1,1,0,.916Z" transform="translate(-32.037 -24.312)" fill="#9182ca"/>
      <rect id="Rectángulo_5962" data-name="Rectángulo 5962" width="20.203" height="32.444" transform="translate(396.13 369.536)" fill="#9182ca"/>
      <rect id="Rectángulo_5963" data-name="Rectángulo 5963" width="20.203" height="32.444" transform="translate(398.778 337.092)" fill="#9182ca"/>
      <path id="Trazado_109204" data-name="Trazado 109204" d="M451.59,394.306H434.045a.459.459,0,1,1,0-.916H451.59a.459.459,0,1,1,0,.916Z" transform="translate(-35.267 -24.312)" fill="#dad5ed"/>
      <rect id="Rectángulo_5964" data-name="Rectángulo 5964" width="65.189" height="64.988" transform="translate(265.898 337.046)" fill="#dad5ed"/>
      <rect id="Rectángulo_5965" data-name="Rectángulo 5965" width="14.238" height="13.075" transform="translate(291.378 337.046)" fill="#fff"/>
      <rect id="Rectángulo_5966" data-name="Rectángulo 5966" width="18.343" height="64.988" transform="translate(331.087 337.046)" fill="#9182ca"/>
      <rect id="Rectángulo_5967" data-name="Rectángulo 5967" width="6.963" height="13.075" transform="translate(337.831 337.046)" fill="#dad5ed"/>
      <rect id="Rectángulo_5968" data-name="Rectángulo 5968" width="13.175" height="194.377" transform="translate(434.089 234.383)" fill="#8296c9"/>
      <rect id="Rectángulo_5969" data-name="Rectángulo 5969" width="13.175" height="194.377" transform="translate(49.238 234.383)" fill="#8296c9"/>
      <rect id="Rectángulo_5970" data-name="Rectángulo 5970" width="83.404" height="48.313" transform="translate(163.72 353.667)" fill="#dad5ed"/>
      <rect id="Rectángulo_5971" data-name="Rectángulo 5971" width="21.266" height="48.313" transform="translate(225.868 353.667)" fill="#9182ca"/>
      <rect id="Rectángulo_5972" data-name="Rectángulo 5972" width="62.148" height="0.87" transform="translate(163.72 365.678)" fill="#9182ca"/>
      <rect id="Rectángulo_5973" data-name="Rectángulo 5973" width="7.705" height="20.991" transform="translate(192.252 353.667)" fill="#fff"/>
      <rect id="Rectángulo_5974" data-name="Rectángulo 5974" width="7.705" height="20.991" transform="translate(232.648 353.667)" fill="#dad5ed"/>
      <rect id="Rectángulo_5975" data-name="Rectángulo 5975" width="66.802" height="81.26" transform="translate(301.53 236.5)" fill="#dad5ed"/>
      <rect id="Rectángulo_5976" data-name="Rectángulo 5976" width="27.789" height="81.26" transform="translate(368.332 236.5)" fill="#9182ca"/>
      <rect id="Rectángulo_5977" data-name="Rectángulo 5977" width="8.603" height="81.26" transform="translate(331.802 236.5)" fill="#f2f3f7"/>
      <rect id="Rectángulo_5978" data-name="Rectángulo 5978" width="5.717" height="81.26" transform="translate(379.372 236.5)" fill="#dad5ed"/>
      <rect id="Rectángulo_5979" data-name="Rectángulo 5979" width="15.109" height="19.277" transform="translate(346.819 240.504)" fill="#9182ca"/>
      <rect id="Rectángulo_5980" data-name="Rectángulo 5980" width="57.09" height="56.907" transform="translate(306.734 179.593)" fill="#dad5ed"/>
      <rect id="Rectángulo_5981" data-name="Rectángulo 5981" width="12.47" height="11.453" transform="translate(329.044 179.593)" fill="#fff"/>
      <rect id="Rectángulo_5982" data-name="Rectángulo 5982" width="16.061" height="56.907" transform="translate(363.824 179.593)" fill="#9182ca"/>
      <rect id="Rectángulo_5983" data-name="Rectángulo 5983" width="6.102" height="11.453" transform="translate(369.725 179.593)" fill="#dad5ed"/>
      <path id="Trazado_109205" data-name="Trazado 109205" d="M384.4,249.08H333.586a.449.449,0,0,1-.476-.431.458.458,0,0,1,.476-.44H384.4a.458.458,0,0,1,.467.44.449.449,0,0,1-.467.431Z" transform="translate(-26.852 -12.15)" fill="#9182ca"/>
      <rect id="Rectángulo_5984" data-name="Rectángulo 5984" width="371.676" height="5.012" transform="translate(62.413 317.76)" fill="#8296c9"/>
      <rect id="Rectángulo_5985" data-name="Rectángulo 5985" width="371.676" height="5.012" transform="translate(62.413 401.979)" fill="#8296c9"/>
      <path id="Trazado_109206" data-name="Trazado 109206" d="M78.53,160.455s17.72-8.246,33.3,10.5c9.538,11.489,13.5,37.3,15.127,55.578a18.022,18.022,0,0,1-18.434,19.607l-17.747-.458Z" transform="translate(-5.525 -4.647)" fill="#343766"/>
      <path id="Trazado_109207" data-name="Trazado 109207" d="M106.592,181.869c-14.037-31.61-45.71-11.1-50.337,9.675-2.034,9.162,2.291,19.076,9.95,26.965,1.924,11.444,3.665,26.708,2.355,40.662,0,0,20.157,9.813,32.471,6.826,6.789-1.649,2.025-18.169-3.592-32.6a36.787,36.787,0,0,0,7.962-.376C130.991,228.945,106.592,181.869,106.592,181.869Z" transform="translate(-3.617 -5.226)" fill="#da8c8d"/>
      <g id="Grupo_54976" data-name="Grupo 54976" transform="translate(52.136 160.336)" clip-path="url(#clip-path)">
        <path id="Trazado_109208" data-name="Trazado 109208" d="M100.142,239.239S95.4,239,88.03,235.29c0,0,4.462,14.879,17.885,13.743l-5.772-9.758" transform="translate(-58.457 -171.403)" fill="#c17276"/>
        <path id="Trazado_109209" data-name="Trazado 109209" d="M106.832,172.35s5.552,25.8-18.838,38.481L84.33,163.572S96.956,160.265,106.832,172.35Z" transform="translate(-58.147 -165.36)" fill="#c17276"/>
        <path id="Trazado_109210" data-name="Trazado 109210" d="M117.928,219.56a28.87,28.87,0,0,1-12.708,1.475s2.437,6.918,7.669,5.69S117.928,219.56,117.928,219.56Z" transform="translate(-59.897 -170.085)" fill="#f2f3f7"/>
      </g>
      <path id="Trazado_109212" data-name="Trazado 109212" d="M244.569,227.39s5.4,4.719,5.186,6.23-4.453,3.747-4.453,3.747,3.088,4.581,1.832,5.791-4.2,1.832-4.2,1.832,2.749,3.115.632,3.995a20.825,20.825,0,0,1-4.3,1.209s-.156-6.872,0-8.173S244.569,227.39,244.569,227.39Z" transform="translate(-18.985 -10.406)" fill="#da8c8d"/>
      <path id="Trazado_109213" data-name="Trazado 109213" d="M231.62,223.27s-10.262.513-11.517.916S209.8,235.117,209.8,235.117L162.61,294.488l31.216,16.006,30.016-67.581,6.194-3.4Z" transform="translate(-12.569 -10.061)" fill="#da8c8d"/>
      <g id="Grupo_54977" data-name="Grupo 54977" transform="translate(150.041 213.209)" clip-path="url(#clip-path-2)">
        <path id="Trazado_109214" data-name="Trazado 109214" d="M164.366,295.08l38.491,6.111-13.4,21.531L158.09,309.666Z" transform="translate(-162.231 -229.286)" fill="#c17276"/>
        <path id="Trazado_109215" data-name="Trazado 109215" d="M228.284,236.25s-1.6,6.771-6.624,8.9l6.762,7.128-.137-16.025" transform="translate(-167.557 -224.357)" fill="#c17276"/>
      </g>
      <path id="Trazado_109217" data-name="Trazado 109217" d="M160.465,298.75l36.887,13.982-19.626,37.382L146.08,316.781Z" transform="translate(-11.184 -16.384)" fill="#f4c54e"/>
      <path id="Trazado_109218" data-name="Trazado 109218" d="M142.821,441.4l12.433-92.8s-30.538-89.3-60.068-93.986-43.979,19.735-46.892,38.9S38.61,441.4,38.61,441.4H149.959" transform="translate(-2.181 -12.638)" fill="#f9dd89"/>
      <g id="Grupo_54978" data-name="Grupo 54978" transform="translate(36.429 241.395)" clip-path="url(#clip-path-3)">
        <path id="Trazado_109219" data-name="Trazado 109219" d="M156.253,389.614,102.26,357.4s10.234,48.065,51.538,55.285l1.832-18.6" transform="translate(-43.942 -262.692)" fill="#f4c54e"/>
      </g>
      <path id="Trazado_109221" data-name="Trazado 109221" d="M252.507,214.767l-21.586,1.979a3.408,3.408,0,0,1-2.978-1.292l-3.986-5.149a2.107,2.107,0,0,1,0-2.648,40.314,40.314,0,0,1,23.822-13.807Z" transform="translate(-17.669 -7.596)" fill="#8296c9"/>
      <path id="Trazado_109222" data-name="Trazado 109222" d="M246.749,217.4,244,224.023l1.668,4.334,3.207-3.143a1.063,1.063,0,0,0,.156-1.31l-1.072-1.759a1.585,1.585,0,0,1-.11-1.448l1.5-3.537Z" transform="translate(-19.387 -9.549)" fill="#39548b"/>
      <path id="Trazado_109223" data-name="Trazado 109223" d="M249.5,192.5l4.709,22.722a.916.916,0,0,0,1.026.76l4.16-.376a.971.971,0,0,0,.916-.98l-.394-23.116a.962.962,0,0,0-1.054-.916l-8.466.779a.916.916,0,0,0-.9,1.127Z" transform="translate(-19.846 -7.322)" fill="#39548b"/>
      <path id="Trazado_109224" data-name="Trazado 109224" d="M236.089,208.368l15.072-1.383-.843-4.1L237.775,206a2.226,2.226,0,0,0-1.686,2.364Z" transform="translate(-18.724 -8.352)" fill="#dad5ed"/>
      <path id="Trazado_109225" data-name="Trazado 109225" d="M245.187,217.42l-2.281,5.442a3.152,3.152,0,0,0,0,2.382l1.53,3.986a1.951,1.951,0,0,1,.064,1.209l-4.444,16.272a8.97,8.97,0,0,0,2.291,8.667l1.329,1.329a3.335,3.335,0,0,1,.834,3.289l-.165.568-16.382-3.784a3.344,3.344,0,0,1-2.547-3.839l5.965-34.249Z" transform="translate(-17.826 -9.57)" fill="#8296c9"/>
      <g id="Grupo_54979" data-name="Grupo 54979" transform="translate(207.538 207.85)" clip-path="url(#clip-path-4)">
        <path id="Trazado_109226" data-name="Trazado 109226" d="M231.808,218.688l14.962-1.338-1.118,2.547-15.182.8,1.338-2.007" transform="translate(-225.792 -217.414)" fill="#39548b"/>
      </g>
      <path id="Trazado_109228" data-name="Trazado 109228" d="M230.77,223.66s9.089,13.065,8.585,13.468-5.241.5-6.056,0-7.33-2.932-7.33-2.932S224.622,224.017,230.77,223.66Z" transform="translate(-17.866 -10.093)" fill="#da8c8d"/>
      <path id="Trazado_109229" data-name="Trazado 109229" d="M335.282,261.082,259.51,250.875l41.377-33.195,73.82,7.174Z" transform="translate(-20.687 -9.592)" fill="#ffe9d3"/>
      <path id="Trazado_109230" data-name="Trazado 109230" d="M335.282,264.117,350.445,314.3l-69.459-9.061L259.51,253.91Z" transform="translate(-20.687 -12.627)" fill="#fd8f25"/>
      <path id="Trazado_109231" data-name="Trazado 109231" d="M381.635,225.51l12.937,47.378-37.2,39.031L342.21,261.738Z" transform="translate(-27.615 -10.248)" fill="#febc7c"/>
      <path id="Trazado_109232" data-name="Trazado 109232" d="M225.13,335.411l65.922-21.321v18.838l-61.863,41.2Z" transform="translate(-17.806 -17.669)" fill="#da8c8d"/>
      <g id="Grupo_54980" data-name="Grupo 54980" transform="translate(207.324 296.421)" clip-path="url(#clip-path-5)">
        <path id="Trazado_109233" data-name="Trazado 109233" d="M230.637,335.207s10.656,29.017,8.933,35.733-16.776,4.929-16.776,4.929l-4.325-38.646,12.167-2.043" transform="translate(-224.572 -315.857)" fill="#c17276"/>
      </g>
      <path id="Trazado_109235" data-name="Trazado 109235" d="M88.812,254.393a35.091,35.091,0,0,1,30.886,14.66c15.054,20.917,53.553,67.975,58.565,67.975,6.414,0,34.019-10.326,34.019-10.326l4.664,44.6s-46.334,17.986-55.322,16.061S83.983,341.16,72.805,324.887C55.067,299.059,54.435,256.885,88.812,254.393Z" transform="translate(-4.042 -12.662)" fill="#f9dd89"/>
      <g id="Grupo_54981" data-name="Grupo 54981" transform="translate(56.79 241.656)" clip-path="url(#clip-path-6)">
        <path id="Trazado_109236" data-name="Trazado 109236" d="M187.838,344.365s-10.8,6.8-10.179,21.742c0,0-8.732-17.408,6.249-24.317h0l3.931,2.575" transform="translate(-70.408 -261.645)" fill="#f4c54e"/>
        <path id="Trazado_109237" data-name="Trazado 109237" d="M120.858,269.774S88.79,268.8,74.68,295.74h0s4.444-32.92,43.979-32.92l2.181,6.954" transform="translate(-61.993 -255.03)" fill="#f4c54e"/>
      </g>
      <path id="Trazado_109239" data-name="Trazado 109239" d="M290.34,232.564l13.368-11.434,18.746,2.162L309.526,235.13Z" transform="translate(-23.269 -9.881)" fill="#f2f3f7"/>
      <path id="Trazado_109240" data-name="Trazado 109240" d="M290.42,315.511l3.8-4.315a20.963,20.963,0,0,0,4.334-7.77l1.832-5.983A.421.421,0,0,1,301,297.2c.98.568,3.179,2,3.262,3.363.119,1.759.623,11.077.623,11.077l19.79,2.584s-9.483,11.141-11.911,12.9-20.615,5.287-20.615,5.287Z" transform="translate(-23.276 -16.25)" fill="#da8c8d"/>
      <g id="Grupo_54982" data-name="Grupo 54982" transform="translate(267.144 280.898)" clip-path="url(#clip-path-7)">
        <path id="Trazado_109241" data-name="Trazado 109241" d="M306.19,313h0a2.886,2.886,0,0,0,3,2.959l15.42-.559L306.19,313" transform="translate(-291.741 -298.476)" fill="#c17276"/>
      </g>
      <path id="Trazado_109243" data-name="Trazado 109243" d="M113.182,263.53s-46.013,2.868-43.227,49.33c1.732,28.962,9.739,83.212,77.4,95.553l-4.489,32.8H38.61l8.044-146.688a49.32,49.32,0,0,1,13.075-31.033C70.247,252.279,91.375,244.106,113.182,263.53Z" transform="translate(-2.181 -12.453)" fill="#35237d"/>
      <path id="Trazado_109244" data-name="Trazado 109244" d="M90.478,161.735s1.658,25.883-1.411,46.773c-1.118,7.632-2.666,17.83-4.178,27.7a32.718,32.718,0,0,1-48,23.749l-.788-.44-3.665-3.665a21.275,21.275,0,0,1-4.453-23.016L39.3,205.622S53,141.368,90.478,161.735Z" transform="translate(-1.155 -4.571)" fill="#343766"/>
      <path id="Trazado_109245" data-name="Trazado 109245" d="M43.829,361.89s10.738,5.791,38.2,10.078c0,0,6.038,10.995,10.005,15.484,0,0-24.637-.339-49.091-9.281Z" transform="translate(-2.543 -21.673)" fill="#f5f5f9"/>
      <path id="Trazado_109246" data-name="Trazado 109246" d="M42.043,394.56s31.857,9.226,62.917,8.154c0,0,10.656,7.568,15.768,9.41,0,0-37.125,6.808-79.528-2.217Z" transform="translate(-2.398 -24.41)" fill="#f5f5f9"/>
      <path id="Trazado_109247" data-name="Trazado 109247" d="M450.92,459.788H13.24c-.366,0-.66-.522-.66-1.164s.293-1.154.66-1.154H450.92c.366,0,.66.513.66,1.154S451.259,459.788,450.92,459.788Z" transform="translate(0 -29.681)" fill="#1f1949"/>
      <path id="Trazado_109248" data-name="Trazado 109248" d="M263.55,103.18a21.33,21.33,0,0,0-21.33,21.33c0,22.906,21.33,53.782,21.33,53.782s21.339-30.886,21.339-53.782a21.33,21.33,0,0,0-21.339-21.33Zm0,30.4a10.573,10.573,0,1,1,10.537-10.564A10.573,10.573,0,0,1,263.55,133.58Z" transform="translate(-19.238)" fill="#ef2a66"/>
    </g>
  </g>
</svg>
