<svg xmlns="http://www.w3.org/2000/svg" width="99" height="100" viewBox="0 0 99 100">
  <g id="Grupo_55512" data-name="Grupo 55512" transform="translate(-752 -4848)">
    <g id="CF1_iconos_copia_3" data-name="CF1_iconos  copia 3" transform="translate(751.892 4847.661)">
      <ellipse id="Elipse_4463" data-name="Elipse 4463" cx="49.5" cy="50" rx="49.5" ry="50" transform="translate(0.108 0.339)" fill="#bbabf5"/>
      <g id="Grupo_55464" data-name="Grupo 55464" transform="translate(10.88 1.006)">
        <path id="Trazado_111558" data-name="Trazado 111558" d="M39.516,63.6,56.7,52.508,54.944,47.64,28.16,63.59Z" transform="translate(-20.942 -16.846)" fill="#5b5555"/>
        <path id="Trazado_111559" data-name="Trazado 111559" d="M80.2,37.785a10.291,10.291,0,1,1-20.578-.4,2.578,2.578,0,0,1,5.151,0,5.142,5.142,0,1,0,7.151-4.727,7.694,7.694,0,0,1-4.607-7.1V23.67h5.142v1.888a2.551,2.551,0,0,0,1.527,2.35,10.251,10.251,0,0,1,6.214,9.85Z" transform="translate(-31.338 -8.926)" fill="#d1e4ff"/>
        <path id="Trazado_111560" data-name="Trazado 111560" d="M79.747,46.51A10.164,10.164,0,0,1,75,47.675V42.532a5.149,5.149,0,0,0,2.009-9.87A7.486,7.486,0,0,1,75,31.364V23.67h2.571v1.888a2.551,2.551,0,0,0,1.5,2.35,10.288,10.288,0,0,1,.67,18.574Z" transform="translate(-36.418 -8.926)" fill="#b9d7ff"/>
        <path id="Trazado_111561" data-name="Trazado 111561" d="M103.474,63.6,77.32,47.535a2.538,2.538,0,0,0-1.152-.275H69.312a2.538,2.538,0,0,0-1.152.275,1.661,1.661,0,0,0,.77,1.393l23.3,14.657Z" transform="translate(-34.158 -16.72)" fill="#5b5555"/>
        <path id="Trazado_111562" data-name="Trazado 111562" d="M105.734,63.59H94.485L75,51.3V47.225c5.357.121,2.919-.75,8.966,2.973l21.092,12.977Z" transform="translate(-36.418 -16.706)" fill="#463f3f"/>
        <path id="Trazado_111563" data-name="Trazado 111563" d="M80.817,4.215A2.565,2.565,0,0,0,78.246,1.65H60.421A2.565,2.565,0,0,0,57.85,4.215V9.531a2.558,2.558,0,0,0,.629,1.687l4.459,5.149a2.578,2.578,0,0,0,1.942.917h8.906a2.578,2.578,0,0,0,1.949-.884l4.459-5.149a2.558,2.558,0,0,0,.629-1.687Z" transform="translate(-30.752 -1.65)" fill="#fda551"/>
        <path id="Trazado_111564" data-name="Trazado 111564" d="M86.49,9.531a2.544,2.544,0,0,1-.629,1.687l-4.466,5.149a2.565,2.565,0,0,1-1.942.917H75V1.65h8.912a2.565,2.565,0,0,1,2.571,2.565Z" transform="translate(-36.418 -1.65)" fill="#ffb966"/>
        <path id="Trazado_111565" data-name="Trazado 111565" d="M91.972,71.05H19.951a2.571,2.571,0,0,0-2.571,2.571v36.158a2.571,2.571,0,0,0,2.571,2.571H91.972a2.571,2.571,0,0,0,2.571-2.571V73.621a2.571,2.571,0,0,0-2.571-2.571Z" transform="translate(-17.38 -24.58)" fill="#f25585"/>
        <path id="Trazado_111566" data-name="Trazado 111566" d="M113.582,73.621v36.158a2.571,2.571,0,0,1-2.571,2.571H75V71.05h36.011a2.571,2.571,0,0,1,2.571,2.571Z" transform="translate(-36.418 -24.58)" fill="#ef2a66"/>
        <g id="Grupo_55463" data-name="Grupo 55463" transform="translate(12.863 56.841)">
          <path id="Trazado_111567" data-name="Trazado 111567" d="M39.161,86.54a2.571,2.571,0,0,0-2.571,2.571v15.434a2.571,2.571,0,1,0,5.142,0V89.111a2.571,2.571,0,0,0-2.571-2.571Z" transform="translate(-36.59 -86.54)" fill="#ef2a66"/>
          <path id="Trazado_111568" data-name="Trazado 111568" d="M61.871,86.54A2.571,2.571,0,0,0,59.3,89.111v15.434a2.571,2.571,0,1,0,5.142,0V89.111a2.571,2.571,0,0,0-2.571-2.571Z" transform="translate(-44.094 -86.54)" fill="#ef2a66"/>
          <g id="Grupo_55462" data-name="Grupo 55462" transform="translate(30.861)">
            <path id="Trazado_111569" data-name="Trazado 111569" d="M85.251,86.54a2.571,2.571,0,0,0-2.571,2.571v15.434a2.578,2.578,0,0,0,5.149,0V89.111a2.571,2.571,0,0,0-2.578-2.571Z" transform="translate(-82.68 -86.54)" fill="#781533"/>
            <path id="Trazado_111570" data-name="Trazado 111570" d="M108.3,86.54a2.571,2.571,0,0,0-2.571,2.571v15.434a2.571,2.571,0,1,0,5.142,0V89.111A2.571,2.571,0,0,0,108.3,86.54Z" transform="translate(-90.296 -86.54)" fill="#781533"/>
          </g>
        </g>
      </g>
    </g>
  </g>
</svg>
