<svg xmlns="http://www.w3.org/2000/svg" xmlns:xlink="http://www.w3.org/1999/xlink" width="295" height="549.41" viewBox="0 0 295 549.41">
  <defs>
    <linearGradient id="linear-gradient" y1="0.5" x2="1" y2="0.5" gradientUnits="objectBoundingBox">
      <stop offset="0" stop-color="#09005d"/>
      <stop offset="1" stop-color="#1a0f91"/>
    </linearGradient>
    <linearGradient id="linear-gradient-2" x1="1.483" y1="1.173" x2="0.056" y2="0.308" xlink:href="#linear-gradient"/>
    <linearGradient id="linear-gradient-3" x1="-0.753" y1="1.765" x2="0.537" y2="0.527" xlink:href="#linear-gradient"/>
    <linearGradient id="linear-gradient-4" x1="3.31" y1="-2.554" x2="1.355" y2="-0.428" xlink:href="#linear-gradient"/>
    <linearGradient id="linear-gradient-5" x1="1.591" y1="-4.399" x2="1.081" y2="-2.204" xlink:href="#linear-gradient"/>
    <linearGradient id="linear-gradient-6" x1="0.295" y1="2.092" x2="0.015" y2="4.283" xlink:href="#linear-gradient"/>
    <linearGradient id="linear-gradient-7" x1="2.135" y1="-0.609" x2="1.427" y2="-0.147" xlink:href="#linear-gradient"/>
    <linearGradient id="linear-gradient-8" x1="0" y1="0.5" x2="0.999" y2="0.5" xlink:href="#linear-gradient"/>
    <linearGradient id="linear-gradient-9" x1="1.899" y1="-5.607" x2="1.074" y2="-2.008" xlink:href="#linear-gradient"/>
    <linearGradient id="linear-gradient-10" x1="1.436" y1="-0.472" x2="1.144" y2="-0.133" xlink:href="#linear-gradient"/>
    <linearGradient id="linear-gradient-11" x1="2.605" y1="-6.838" x2="1.417" y2="-2.697" xlink:href="#linear-gradient"/>
    <linearGradient id="linear-gradient-12" x1="1.484" y1="-0.567" x2="-1.897" y2="3.159" xlink:href="#linear-gradient"/>
    <linearGradient id="linear-gradient-13" x1="0.939" y1="-0.079" x2="-1.477" y2="3.746" xlink:href="#linear-gradient"/>
    <linearGradient id="linear-gradient-14" x1="0.364" y1="1.271" x2="0.595" y2="0.239" gradientUnits="objectBoundingBox">
      <stop offset="0" stop-color="#4f52ff"/>
      <stop offset="1" stop-color="#4042e2"/>
    </linearGradient>
    <linearGradient id="linear-gradient-15" x1="0" y1="0.499" x2="1.001" y2="0.499" xlink:href="#linear-gradient-14"/>
    <linearGradient id="linear-gradient-16" x1="442.397" y1="1.155" x2="442.865" y2="-0.533" xlink:href="#linear-gradient"/>
    <linearGradient id="linear-gradient-17" x1="989.76" y1="1.005" x2="989.794" y2="-0.001" xlink:href="#linear-gradient"/>
    <linearGradient id="linear-gradient-18" x1="502.991" y1="0.507" x2="503.993" y2="0.507" xlink:href="#linear-gradient"/>
    <linearGradient id="linear-gradient-19" x1="-916.765" y1="254.922" x2="-916.684" y2="253.2" gradientUnits="objectBoundingBox">
      <stop offset="0" stop-color="#f9b776"/>
      <stop offset="1" stop-color="#f47960"/>
    </linearGradient>
    <linearGradient id="linear-gradient-20" x1="318.326" y1="1.107" x2="318.392" y2="-0.096" gradientUnits="objectBoundingBox">
      <stop offset="0" stop-color="#a22b25"/>
      <stop offset="1" stop-color="#c0423c"/>
    </linearGradient>
    <linearGradient id="linear-gradient-21" x1="1.459" y1="-0.434" x2="-2.866" y2="3.384" xlink:href="#linear-gradient-14"/>
    <linearGradient id="linear-gradient-22" x1="266.841" y1="0.991" x2="266.609" y2="0.266" xlink:href="#linear-gradient"/>
    <linearGradient id="linear-gradient-23" x1="1.393" y1="1.257" x2="-0.105" y2="0.101" xlink:href="#linear-gradient-14"/>
    <linearGradient id="linear-gradient-24" x1="0.331" y1="1.35" x2="0.826" y2="-0.497" xlink:href="#linear-gradient-20"/>
    <linearGradient id="linear-gradient-25" x1="2814.811" y1="-22.081" x2="2814.17" y2="-17.251" xlink:href="#linear-gradient-20"/>
    <linearGradient id="linear-gradient-26" x1="690.55" y1="-6.825" x2="690.393" y2="-5.287" xlink:href="#linear-gradient-20"/>
    <linearGradient id="linear-gradient-27" x1="1773.313" y1="1.846" x2="1775.187" y2="-1.479" xlink:href="#linear-gradient"/>
    <linearGradient id="linear-gradient-28" x1="2.533" y1="-0.345" x2="1.527" y2="0.066" xlink:href="#linear-gradient"/>
    <linearGradient id="linear-gradient-29" x1="205.001" y1="145.095" x2="205.037" y2="144.444" xlink:href="#linear-gradient-20"/>
    <linearGradient id="linear-gradient-30" x1="0.56" y1="0.416" x2="1.742" y2="-2.558" xlink:href="#linear-gradient-14"/>
  </defs>
  <g id="Grupo_56923" data-name="Grupo 56923" transform="translate(-1020 -4548.705)">
    <rect id="Rectángulo_6681" data-name="Rectángulo 6681" width="295" height="549" rx="13" transform="translate(1020 4548.705)" fill="#fee7ee"/>
    <g id="Grupo_56922" data-name="Grupo 56922">
      <g id="CF1_tarejta_6" data-name="CF1_tarejta 6" transform="translate(1020 4506.635)">
        <rect id="Rectángulo_6702" data-name="Rectángulo 6702" width="295" height="19.08" transform="translate(0 572.4)" fill="#472ea6"/>
        <g id="Grupo_56362" data-name="Grupo 56362">
          <g id="Grupo_56354" data-name="Grupo 56354">
            <g id="Grupo_56352" data-name="Grupo 56352">
              <path id="Trazado_115791" data-name="Trazado 115791" d="M107.51,548.52s2-15.55-4.79-20.45-20.14-8.91-18.36-31.35c1-13.13,1.3-18.89,1.34-21.42a1.48,1.48,0,0,1,1.9-1.4c6.67,2,28.22,9.51,31.31,25.06C122.58,517.39,107.51,548.52,107.51,548.52Z" fill="#91b3fa"/>
              <path id="Trazado_115792" data-name="Trazado 115792" d="M92.23,480.67c6.78,7.42,14.21,20.08,17.6,32.33a55.73,55.73,0,0,1,1.7,13.72,62.29,62.29,0,0,1-2.2,16.82.51.51,0,0,1-.62.34.5.5,0,0,1-.34-.62,68.79,68.79,0,0,0,.93-24.79c-1.69-10.36-6.74-20.75-12.16-29.68l-.56-.89c-4.22-6.73-5.24-6.88-4.74-7.26a.28.28,0,0,1,.39.03Z" fill="#7d97f4"/>
            </g>
            <g id="Grupo_56353" data-name="Grupo 56353">
              <path id="Trazado_115793" data-name="Trazado 115793" d="M116,579.67c.93.58-7.93-13.25-9.07-33.65-.53-9.62.66-21.48-4.26-26.6-4.1-4.26-19.61-3.42-24.7-3a.76.76,0,0,0-.48,1.28c2.19,2.25,6.83,7.52,7.68,12.44,1.11,6.49,6.69,11.11,11.95,12.74s8.13,3,9.87,11.84S113.36,578,116,579.67Z" fill="#bdd0fb"/>
              <path id="Trazado_115794" data-name="Trazado 115794" d="M84.71,519.78c6.34.92,12.89,4.53,15.8,10.34l.27.55a122.116,122.116,0,0,1,5.69,17.84.17.17,0,0,1-.14.21.18.18,0,0,1-.2-.13c-1.24-4.23-3.1-9.62-4.61-13.67-1.6-4.41-2.74-7.4-7.1-10.6a25.931,25.931,0,0,0-9.76-4.26.15.15,0,0,1-.11-.17A.14.14,0,0,1,84.71,519.78Z" fill="#91b3fa"/>
            </g>
          </g>
          <g id="Grupo_56359" data-name="Grupo 56359">
            <g id="Grupo_56356" data-name="Grupo 56356">
              <rect id="Rectángulo_6703" data-name="Rectángulo 6703" width="2" height="11.45" transform="translate(183.67 453.34)" fill="url(#linear-gradient)"/>
              <g id="Grupo_56355" data-name="Grupo 56355">
                <path id="Trazado_115795" data-name="Trazado 115795" d="M182.61,445.38,176,443a15.559,15.559,0,0,0-5.28-.92h0a2.81,2.81,0,0,0-2.81,2.81v8.22a2.81,2.81,0,0,0,2.81,2.81h0A15.56,15.56,0,0,0,176,455l6.62-2.4Z" fill="url(#linear-gradient-2)"/>
                <path id="Trazado_115796" data-name="Trazado 115796" d="M186.73,445.38l6.62-2.39a15.549,15.549,0,0,1,5.27-.92h0a2.81,2.81,0,0,1,2.82,2.81v8.22a2.81,2.81,0,0,1-2.82,2.81h0a15.551,15.551,0,0,1-5.271-.92l-6.619-2.4Z" fill="url(#linear-gradient-3)"/>
              </g>
              <rect id="Rectángulo_6704" data-name="Rectángulo 6704" width="6.12" height="11.7" rx="3.06" transform="translate(181.61 443.41)" fill="url(#linear-gradient-4)"/>
            </g>
            <g id="Grupo_56357" data-name="Grupo 56357">
              <path id="Trazado_115797" data-name="Trazado 115797" d="M174.2,501.08v3.14c0,1.46-4,2.65-8.84,2.65s-8.85-1.19-8.85-2.65v-3.14Z" fill="url(#linear-gradient-5)"/>
              <ellipse id="Elipse_4504" data-name="Elipse 4504" cx="8.85" cy="2.65" rx="8.85" ry="2.65" transform="translate(156.51 498.43)" fill="url(#linear-gradient-6)"/>
            </g>
            <g id="Grupo_56358" data-name="Grupo 56358">
              <path id="Trazado_115798" data-name="Trazado 115798" d="M206,535.72v36c0,2.13-4,3.85-8.84,3.85s-8.85-1.72-8.85-3.85v-36Z" fill="url(#linear-gradient-7)"/>
              <ellipse id="Elipse_4505" data-name="Elipse 4505" cx="8.85" cy="3.12" rx="8.85" ry="3.12" transform="translate(188.27 532.6)" fill="url(#linear-gradient-8)"/>
            </g>
            <ellipse id="Elipse_4506" data-name="Elipse 4506" cx="6.59" cy="1.97" rx="6.59" ry="1.97" transform="translate(158.74 498.85)" fill="url(#linear-gradient-9)"/>
            <path id="Trazado_115799" data-name="Trazado 115799" d="M190.42,535.19H203.6v-55A19.49,19.49,0,0,0,180.26,461l-4.39.88a21.39,21.39,0,0,0-17.12,20.91v17.88h13.17V482.83a8.17,8.17,0,0,1,6.55-8l4.39-.89a6.32,6.32,0,0,1,7.56,6.2Z" fill="url(#linear-gradient-10)"/>
            <ellipse id="Elipse_4507" data-name="Elipse 4507" cx="6.59" cy="2.29" rx="6.59" ry="2.29" transform="translate(190.42 532.9)" fill="url(#linear-gradient-11)"/>
            <path id="Trazado_115800" data-name="Trazado 115800" d="M170.63,463.83a18.1,18.1,0,0,1,4.88,11.57.49.49,0,0,0,.66.43l2.8-1a.5.5,0,0,0,.33-.47c0-5-.82-9.35-3.08-12.67a.49.49,0,0,0-.56-.19l-4.82,1.5a.49.49,0,0,0-.21.83Z" fill="url(#linear-gradient-12)"/>
            <path id="Trazado_115801" data-name="Trazado 115801" d="M186.92,474.86l1.82,1.77a.3.3,0,0,0,.3.07c5.5-1.84,8.81-4.89,10.12-9a.67.67,0,0,0-.2-.72l-4.69-4.12a.61.61,0,0,0-1,.3c-.92,3.59-3.16,7.39-6.38,11.34a.29.29,0,0,0,.03.36Z" fill="url(#linear-gradient-13)"/>
          </g>
          <path id="Trazado_115802" data-name="Trazado 115802" d="M166.11,510.86a.57.57,0,0,0-1,0c-1.5,2.25-6,9.33-6,12.48a6.51,6.51,0,1,0,13,0C172.14,520.19,167.6,513.11,166.11,510.86Z" fill="url(#linear-gradient-14)"/>
          <path id="Trazado_115803" data-name="Trazado 115803" d="M88,584.23c50.52-22,98.57-31.78,138.33-.35a1.85,1.85,0,0,1-.93,3.28c-40.25,4.9-86.42,4.84-136.64,1.39a2.26,2.26,0,0,1-.76-4.32Z" fill="#7d97f4"/>
          <path id="Trazado_115804" data-name="Trazado 115804" d="M139.79,571.62c0,.57.5,1.24,1.72,2,8.64,5.29,19,1.59,28.52,2.24,2.09.15,4.16.48,6.25.6,5.45.3,10.83-.94,16-2.56,2.16-.68,5.68-1.23,7.46-2.64s-.39-2.87-2-3.13c-10.05-1.67-20.3-1.4-30.42-.63-5.11.39-10.2.91-15.3,1.38C150.09,569.05,139.77,568.65,139.79,571.62Z" fill="url(#linear-gradient-15)"/>
          <g id="Grupo_56361" data-name="Grupo 56361">
            <path id="Trazado_115805" data-name="Trazado 115805" d="M117.38,505.64c.86-1.63,2.38-1.59,3.77-1.62,3.21-.07,7.13-.4,9.76,2.37a4,4,0,0,1,1.13,2.38c.08.85-5.61,4.33-6,5.24-1.07,2.3-5.91,6.19-6.7,5a15.86,15.86,0,0,1-2.73-8.88A10.09,10.09,0,0,1,117.38,505.64Z" fill="url(#linear-gradient-16)"/>
            <path id="Trazado_115806" data-name="Trazado 115806" d="M94.9,565.3a2.79,2.79,0,0,1,.34-1.63,2,2,0,0,1,2.55-.32,2.84,2.84,0,0,1,1.61,2.29.85.85,0,0,1,0,.32,4.63,4.63,0,0,0-.88,1,4.42,4.42,0,0,1,0,.63,13,13,0,0,0,0,1.87c.06.55,3,2.65,3.16,3.06.61,1.39-.6,2.33-1.89,2.53-3.39.46-4.41-3-4.61-4.38S94.88,565.63,94.9,565.3Z" fill="url(#linear-gradient-17)"/>
            <path id="Trazado_115807" data-name="Trazado 115807" d="M132.12,577.12a3.59,3.59,0,0,1,2.94-2,.871.871,0,0,1,.4,0,5.29,5.29,0,0,0,3.06,1.83c2.13.42,4.35,0,6.48.46h.08a2.93,2.93,0,0,1,0,1.83,2.87,2.87,0,0,1-3,1.8c-1.71,0-3.41-.1-5.12-.15-.83,0-1.66-.07-2.49-.12a3.59,3.59,0,0,1-2.06-.47C131.44,579.59,131.6,578.14,132.12,577.12Z" fill="url(#linear-gradient-18)"/>
            <g id="Grupo_56360" data-name="Grupo 56360">
              <path id="Trazado_115808" data-name="Trazado 115808" d="M134.39,541.64c.06-.78,2-1.15,3.55-1a1.569,1.569,0,0,1,1.15.49c.15.26-.12.5-.6.6-.08,0-.27.09-.07,0l-.19.07h0a2.69,2.69,0,0,1-.27.07s.14.13-.11,0h0v.06h0a.63.63,0,0,0-.12.11,2.22,2.22,0,0,1-.86.39C135.79,542.75,134.35,542.19,134.39,541.64Z" fill="url(#linear-gradient-19)"/>
              <path id="Trazado_115809" data-name="Trazado 115809" d="M138,542h-.08Z" fill="#fff"/>
            </g>
            <path id="Trazado_115810" data-name="Trazado 115810" d="M127.52,533.15a1.15,1.15,0,0,1,1.58-.06c1.18,1,2,2.08,3.51,2.58s5.29,2.62,9.24,2.8c1.21-.62,2.49-.11,3.8.06.81.1.44.83-.42.88a2.449,2.449,0,0,0-1.1.15h.05c.7,1.39,1.12,1.18,3,2s0,1.31-.86,1.31c-5.74-.46-3.85-1.19-7.37-2.16a41.39,41.39,0,0,0-4.39-1.09,12,12,0,0,1-7.85-4.89,1.08,1.08,0,0,1,.81-1.58Z" fill="url(#linear-gradient-20)"/>
            <path id="Trazado_115811" data-name="Trazado 115811" d="M121.8,528.09c-.12-.74-.19-1.5-.24-2.25a5.13,5.13,0,0,1,.1-2.21,1.38,1.38,0,0,1,1.55-.91c1.77.13,2.73,1.87,3.51,3.3l1.68,3.09a14.628,14.628,0,0,1,1.45,2.91c.08.32-1.54,1.61-2.15,1.92s-1.47.81-2.23,1.14c-1.55.66-1.55.66-2.46-2.38a23.533,23.533,0,0,1-1.21-4.61Z" fill="url(#linear-gradient-21)"/>
            <path id="Trazado_115812" data-name="Trazado 115812" d="M99,570.19a11.88,11.88,0,0,0,4.7,2.23,47.875,47.875,0,0,0,10.15,1.85,7,7,0,0,0,3.76-.6,5.29,5.29,0,0,0,2.47-3.37,74.482,74.482,0,0,0,2-10.15c.27-1.8.51-3.61.7-5.42.46-2,1.24-4.43.27-6.26s-3.27-2.53-5.28-2.47a5.449,5.449,0,0,0-2.93.62c-1,.7-1.13,1.86-1.25,3-.27,2.5-.52,5-.77,7.5-.13,1.25-.26,2.49-.4,3.74a10.3,10.3,0,0,1-.63,3.06c-.87,1.93-3,2.4-4.91,2.32a48.371,48.371,0,0,1-7.17-1.12,1.37,1.37,0,0,0-1.48.61,3.54,3.54,0,0,0,.77,4.46Z" fill="url(#linear-gradient-22)"/>
            <path id="Trazado_115813" data-name="Trazado 115813" d="M107.24,542.29c.24-8.45,5.79-19,5.79-19,2-2.36,4.24-3.47,6.42-3l.14.07c1.55.3,3,1.51,4.35,2.45a10.089,10.089,0,0,1,1.74,2.8,14.21,14.21,0,0,1,.66,5c0,2.36-3.18,15.94-3,18.4,0,.32-3.47,3.24-16.52.09C106.82,549.12,106.93,544.41,107.24,542.29Z" fill="url(#linear-gradient-23)"/>
            <path id="Trazado_115814" data-name="Trazado 115814" d="M120.54,516.93c.26-.45.49-.85,1-.88a3.439,3.439,0,0,1,1.73.45.55.55,0,0,1,.23.61l-.06.17c0,.65-.06,1.3-.1,2v.64c0,.23.1.16.14.24l.06.17a1.87,1.87,0,0,1,.25,1.64,2,2,0,0,1-2.39,1.07,3.55,3.55,0,0,1-2.08-1.8C118.88,520.28,120.28,517.39,120.54,516.93Z" fill="url(#linear-gradient-24)"/>
            <path id="Trazado_115815" data-name="Trazado 115815" d="M118.05,513.58a2.18,2.18,0,0,1,1.27-2,.88.88,0,0,1,.87.23l.09.07c.31.24.14,2.1.14,2.63,0,.89-.51,1.68-1.42,1.2A2.27,2.27,0,0,1,118.05,513.58Z" fill="url(#linear-gradient-25)"/>
            <path id="Trazado_115816" data-name="Trazado 115816" d="M120.71,511.07a4.32,4.32,0,0,1,2-1.8c.42-.2.1-.38.59-.5a8.671,8.671,0,0,1,2.58-.43,3.23,3.23,0,0,1,2.51,1.27,4.67,4.67,0,0,1,1,4.29c-.27,1.82-1,6.21-2.66,7.29a3.1,3.1,0,0,1-3.78.07c-.52-.4-3.63-3-3.28-5.59C119.9,513.89,119.81,512.71,120.71,511.07Z" fill="url(#linear-gradient-26)"/>
            <path id="Trazado_115817" data-name="Trazado 115817" d="M120,509.72c.16-.48.92-.59,1.1-.09a4,4,0,0,1,.57-.86c.4-.46,2.14-1,2.06-.78-.64,1.45-1.7,2.76-1.86,4s.1,2.83,0,3.47-1.15-.25-1.29-.6a12.529,12.529,0,0,1-.4-1.95,6.46,6.46,0,0,1-.18-3.19Z" fill="url(#linear-gradient-27)"/>
            <path id="Trazado_115818" data-name="Trazado 115818" d="M106.77,545.5c.59-2.26,15,3.06,21,4.67a34.1,34.1,0,0,1,4.84,1.65A6.63,6.63,0,0,1,136.3,555a15.87,15.87,0,0,1,1.1,5.09,55.006,55.006,0,0,1,.24,6c0,2-.12,4-.23,6.05s-.16,3.85-1.76,4.92a5.45,5.45,0,0,1-3.7.66c0-2.57-.08-5.13-.32-7.67a19,19,0,0,0-2.06-7.77,7,7,0,0,0-.95-1.61c-1.85-2.29-5-2.55-7.58-2.63-2.33-.08-4.78.14-7.24.21a11.32,11.32,0,0,1-5.3-2.15C105.47,553.62,105.8,549.2,106.77,545.5Z" fill="url(#linear-gradient-28)"/>
            <path id="Trazado_115819" data-name="Trazado 115819" d="M120.67,533.66s.82,3.46,5.87,5a66.8,66.8,0,0,0,8.18,2.39,7.179,7.179,0,0,1,3,.89c.27.15,1.72,1.17,2.15,1.36,1.36.61,3,.55,1.93,1.35a5.47,5.47,0,0,1-5.18.2c-1.31-.6-1.07-.84-2.18-.95a47,47,0,0,1-8.65-1.73c-2.83-.9-3.67-.71-6-2.12s-3.55-5.53-4.9-7.12C114.54,532.39,120.67,533.66,120.67,533.66Z" fill="url(#linear-gradient-29)"/>
            <path id="Trazado_115820" data-name="Trazado 115820" d="M113.21,523.46a3,3,0,0,1,4.64.4,1.22,1.22,0,0,1,.07.17,13,13,0,0,1,1.23,3.48c.27.85.6,1.71.89,2.58l1.48,3.28c.34.76-3,2.44-4.2,2.6s-2.37.52-3.24-.22a7.52,7.52,0,0,1-1.6-2.87,13,13,0,0,1-.9-3.29C111.32,527.55,111.63,525,113.21,523.46Z" fill="url(#linear-gradient-30)"/>
          </g>
        </g>
      </g>
    </g>
  </g>
</svg>
