<svg xmlns="http://www.w3.org/2000/svg" xmlns:xlink="http://www.w3.org/1999/xlink" width="295" height="549.171" viewBox="0 0 295 549.171">
  <defs>
    <linearGradient id="linear-gradient" x1="-62.248" y1="79.632" x2="-60.065" y2="81.59" gradientUnits="objectBoundingBox">
      <stop offset="0" stop-color="#ef2a66"/>
      <stop offset="1" stop-color="#f25585"/>
    </linearGradient>
    <linearGradient id="linear-gradient-2" x1="0.006" y1="0.501" x2="1" y2="0.501" gradientUnits="objectBoundingBox">
      <stop offset="0" stop-color="#6c58b8"/>
      <stop offset="1" stop-color="#b5abdb"/>
    </linearGradient>
    <linearGradient id="linear-gradient-3" x1="0.727" y1="-0.21" x2="0.215" y2="1.341" gradientUnits="objectBoundingBox">
      <stop offset="0" stop-color="#241753"/>
      <stop offset="1" stop-color="#472ea6"/>
    </linearGradient>
    <linearGradient id="linear-gradient-4" x1="0.455" y1="0.692" x2="0.748" y2="-0.714" xlink:href="#linear-gradient"/>
    <linearGradient id="linear-gradient-5" x1="0.445" y1="-14.945" x2="0.464" y2="-9.665" xlink:href="#linear-gradient-3"/>
    <linearGradient id="linear-gradient-6" x1="2.417" y1="-1.247" x2="4.435" y2="-3.164" xlink:href="#linear-gradient-2"/>
    <linearGradient id="linear-gradient-7" x1="2.433" y1="-0.725" x2="5.289" y2="-2.643" xlink:href="#linear-gradient-2"/>
    <linearGradient id="linear-gradient-8" x1="1.817" y1="-0.203" x2="5.407" y2="-2.122" xlink:href="#linear-gradient-2"/>
    <linearGradient id="linear-gradient-9" x1="0.721" y1="0.322" x2="3.083" y2="-1.595" xlink:href="#linear-gradient-2"/>
    <linearGradient id="linear-gradient-10" x1="0.503" y1="-0.684" x2="0.494" y2="2.507" xlink:href="#linear-gradient-2"/>
    <linearGradient id="linear-gradient-11" x1="0.501" y1="-0.684" x2="0.492" y2="2.507" xlink:href="#linear-gradient-2"/>
    <linearGradient id="linear-gradient-12" x1="0.502" y1="-0.684" x2="0.494" y2="2.507" xlink:href="#linear-gradient-2"/>
    <linearGradient id="linear-gradient-13" x1="0.502" y1="-0.684" x2="0.493" y2="2.507" xlink:href="#linear-gradient-2"/>
    <linearGradient id="linear-gradient-14" x1="0.42" y1="1.286" x2="0.141" y2="4.029" gradientUnits="objectBoundingBox">
      <stop offset="0" stop-color="#e1473d"/>
      <stop offset="1" stop-color="#e9605a"/>
    </linearGradient>
    <linearGradient id="linear-gradient-15" x1="0.514" y1="0.486" x2="0.365" y2="2.351" xlink:href="#linear-gradient-2"/>
    <linearGradient id="linear-gradient-16" x1="0.5" y1="0.432" x2="0.365" y2="2.297" xlink:href="#linear-gradient-2"/>
    <linearGradient id="linear-gradient-17" y1="0.499" x2="1" y2="0.499" gradientUnits="objectBoundingBox">
      <stop offset="0" stop-color="#dae3fe"/>
      <stop offset="1" stop-color="#e9effd"/>
    </linearGradient>
    <linearGradient id="linear-gradient-18" x1="0.462" y1="-0.484" x2="0.474" y2="-0.148" gradientUnits="objectBoundingBox">
      <stop offset="0" stop-color="#ff928e"/>
      <stop offset="1" stop-color="#feb3b1"/>
    </linearGradient>
    <linearGradient id="linear-gradient-19" x1="-0.015" y1="0.478" x2="0.978" y2="0.478" xlink:href="#linear-gradient-17"/>
    <linearGradient id="linear-gradient-20" x1="-73.852" y1="139.081" x2="-73.512" y2="140.649" xlink:href="#linear-gradient-14"/>
    <linearGradient id="linear-gradient-21" x1="-115.323" y1="68.117" x2="-115.371" y2="73.859" xlink:href="#linear-gradient-3"/>
    <linearGradient id="linear-gradient-22" x1="-63.199" y1="12.063" x2="-62.378" y2="9.252" xlink:href="#linear-gradient-18"/>
    <linearGradient id="linear-gradient-23" x1="-66.777" y1="49.208" x2="-66.805" y2="53.314" xlink:href="#linear-gradient-3"/>
    <linearGradient id="linear-gradient-24" x1="-41.319" y1="12.047" x2="-40.781" y2="9.241" xlink:href="#linear-gradient-18"/>
    <linearGradient id="linear-gradient-25" x1="-35.33" y1="15.743" x2="-33.812" y2="12.856" xlink:href="#linear-gradient-2"/>
    <linearGradient id="linear-gradient-26" x1="-33.79" y1="14.486" x2="-33.973" y2="15.728" xlink:href="#linear-gradient-2"/>
    <linearGradient id="linear-gradient-27" x1="-118.195" y1="33.898" x2="-118.401" y2="31.886" xlink:href="#linear-gradient-18"/>
    <linearGradient id="linear-gradient-28" x1="0" y1="0.5" x2="1" y2="0.5" xlink:href="#linear-gradient-14"/>
    <linearGradient id="linear-gradient-29" x1="0" y1="0.494" x2="0.994" y2="0.494" xlink:href="#linear-gradient-17"/>
    <linearGradient id="linear-gradient-30" x1="-56.752" y1="11.404" x2="-57.022" y2="10.468" xlink:href="#linear-gradient-18"/>
    <linearGradient id="linear-gradient-31" x1="0" y1="0.5" x2="1" y2="0.5" xlink:href="#linear-gradient"/>
    <linearGradient id="linear-gradient-32" x1="-38.088" y1="16.7" x2="-38.066" y2="17.279" xlink:href="#linear-gradient-18"/>
    <linearGradient id="linear-gradient-33" x1="-104.556" y1="279.284" x2="-104.488" y2="289.507" xlink:href="#linear-gradient-18"/>
    <linearGradient id="linear-gradient-34" x1="1.12" y1="-0.08" x2="0.313" y2="0.824" xlink:href="#linear-gradient-18"/>
    <linearGradient id="linear-gradient-35" x1="-94.289" y1="81.886" x2="-96.358" y2="83.479" xlink:href="#linear-gradient-14"/>
    <linearGradient id="linear-gradient-36" x1="2.225" y1="-1.305" x2="-0.687" y2="1.692" xlink:href="#linear-gradient-18"/>
    <linearGradient id="linear-gradient-37" x1="-60.902" y1="54.318" x2="-62.241" y2="55.371" xlink:href="#linear-gradient-14"/>
    <linearGradient id="linear-gradient-38" x1="-0.003" y1="0.499" x2="0.999" y2="0.499" xlink:href="#linear-gradient-17"/>
    <linearGradient id="linear-gradient-39" x1="-0.006" y1="0.498" x2="0.992" y2="0.498" xlink:href="#linear-gradient-3"/>
    <linearGradient id="linear-gradient-40" x1="0" y1="0.496" x2="1" y2="0.496" xlink:href="#linear-gradient-18"/>
    <linearGradient id="linear-gradient-41" x1="0" y1="0.505" x2="1.002" y2="0.505" xlink:href="#linear-gradient-3"/>
    <linearGradient id="linear-gradient-42" x1="0" y1="0.499" x2="0.999" y2="0.499" xlink:href="#linear-gradient-18"/>
    <linearGradient id="linear-gradient-43" x1="1.321" y1="-0.333" x2="0.921" y2="0.093" xlink:href="#linear-gradient-3"/>
    <linearGradient id="linear-gradient-44" x1="2.583" y1="-1.729" x2="-4.385" y2="5.707" gradientUnits="objectBoundingBox">
      <stop offset="0" stop-color="#020039"/>
      <stop offset="1" stop-color="#090056"/>
    </linearGradient>
    <linearGradient id="linear-gradient-45" x1="0.736" y1="-2.55" x2="0.49" y2="0.458" xlink:href="#linear-gradient-14"/>
    <linearGradient id="linear-gradient-46" x1="0" y1="0.499" x2="0.998" y2="0.499" xlink:href="#linear-gradient-18"/>
    <linearGradient id="linear-gradient-47" x1="0.534" y1="0.356" x2="0.389" y2="1.961" xlink:href="#linear-gradient"/>
    <linearGradient id="linear-gradient-48" x1="1.837" y1="-1.614" x2="-0.445" y2="1.547" xlink:href="#linear-gradient-18"/>
    <linearGradient id="linear-gradient-49" x1="1.134" y1="-2.796" x2="-0.699" y2="5.665" xlink:href="#linear-gradient-18"/>
    <linearGradient id="linear-gradient-50" x1="1.699" y1="-1.142" x2="-0.951" y2="2.814" xlink:href="#linear-gradient-18"/>
    <linearGradient id="linear-gradient-51" x1="528.21" y1="215.292" x2="526.992" y2="216.589" xlink:href="#linear-gradient-18"/>
    <linearGradient id="linear-gradient-52" x1="0.846" y1="-0.405" x2="0.234" y2="1.393" xlink:href="#linear-gradient-3"/>
    <linearGradient id="linear-gradient-53" x1="1462.762" y1="677.697" x2="1465.476" y2="675.163" xlink:href="#linear-gradient-18"/>
    <linearGradient id="linear-gradient-54" x1="0.5" y1="1.311" x2="0.5" y2="5.87" xlink:href="#linear-gradient-2"/>
    <linearGradient id="linear-gradient-55" x1="0.662" y1="-12.764" x2="0.574" y2="-5.601" xlink:href="#linear-gradient-3"/>
  </defs>
  <g id="Grupo_56919" data-name="Grupo 56919" transform="translate(-1125 -3887.705)">
    <rect id="Rect치ngulo_6509" data-name="Rect치ngulo 6509" width="295" height="549" rx="13" transform="translate(1125 3887.705)" fill="#fee7ee"/>
    <g id="CF1_tarejta_4" data-name="CF1_tarejta 4" transform="translate(1125 3844.025)">
      <rect id="Rect치ngulo_6680" data-name="Rect치ngulo 6680" width="295" height="19.08" transform="translate(0 572.4)" fill="#472ea6"/>
      <g id="Grupo_56321" data-name="Grupo 56321">
        <g id="Grupo_56294" data-name="Grupo 56294">
          <g id="Grupo_56292" data-name="Grupo 56292">
            <path id="Trazado_115336" data-name="Trazado 115336" d="M73.51,535.16h-.05l-.91-.28a.17.17,0,0,1-.13-.17v-.73a3.44,3.44,0,0,1-.8-.67l-.73.12a.17.17,0,0,1-.18-.1l-.45-.84a.2.2,0,0,1,0-.21l.5-.53a3.63,3.63,0,0,1-.09-1l-.6-.44a.17.17,0,0,1-.06-.19l.28-.91a.18.18,0,0,1,.17-.13h.73a3.7,3.7,0,0,1,.67-.8l-.11-.73a.16.16,0,0,1,.09-.18l.84-.45a.2.2,0,0,1,.21,0l.53.5a3.63,3.63,0,0,1,1-.09l.44-.6a.17.17,0,0,1,.19-.06l.92.28a.17.17,0,0,1,.12.16v.74a3.438,3.438,0,0,1,.8.67l.73-.12a.17.17,0,0,1,.18.1l.45.84a.18.18,0,0,1,0,.21l-.5.53a3.63,3.63,0,0,1,.09,1l.6.44a.17.17,0,0,1,.06.19l-.28.91a.17.17,0,0,1-.16.13h-.74a3.44,3.44,0,0,1-.67.8l.12.73a.17.17,0,0,1-.1.18l-.84.45a.2.2,0,0,1-.21,0l-.53-.5a3.63,3.63,0,0,1-1,.09l-.43.6a.21.21,0,0,1-.15.06Zm-.87-.49.86.26.48-.67h.07a3.571,3.571,0,0,0,1.08-.1h.06l.6.57.79-.42-.12-.81h0a3.29,3.29,0,0,0,.7-.83v-.06h.83l.26-.85-.67-.49v-.06a3.61,3.61,0,0,0-.1-1.09v-.06l.57-.6-.42-.79-.81.12h0A3.52,3.52,0,0,0,76,528h-.06v-.83l-.85-.26-.49.67h-.06a3.639,3.639,0,0,0-1.09.1h-.06l-.6-.57-.79.42.13.81h0a3.52,3.52,0,0,0-.7.84v.06h-.82l-.27.85.67.49v.06a3.61,3.61,0,0,0,.1,1.09v.06l-.57.6.42.79.82-.12h0a3.47,3.47,0,0,0,.83.7h.06Zm5.09-6.09ZM72.8,527.05Zm1.46,6.26a2.568,2.568,0,0,1-.72-.11,2.406,2.406,0,0,1,1.41-4.6,2.4,2.4,0,0,1,1.42,1.19,2,2,0,0,1,.19.48.09.09,0,0,1-.07.13.11.11,0,0,1-.14-.07,2.35,2.35,0,0,0-.17-.44,2.19,2.19,0,0,0-1.3-1.07,2.16,2.16,0,0,0-1.67.15,2.2,2.2,0,1,0,2.05,3.89,2.25,2.25,0,0,0,.85-.8.11.11,0,0,1,.19.11,2.44,2.44,0,0,1-.94.89,2.49,2.49,0,0,1-1.1.25Z" fill="#91b3fa"/>
            <path id="Trazado_115337" data-name="Trazado 115337" d="M74.28,531.85h0a.93.93,0,0,1-.66-.32.96.96,0,1,1,1.35.07.93.93,0,0,1-.69.25Zm0-1.7a.73.73,0,0,0-.49.19.743.743,0,0,0,1,1.1.73.73,0,0,0,.06-1,.72.72,0,0,0-.51-.25Z" fill="#91b3fa"/>
          </g>
          <g id="Grupo_56293" data-name="Grupo 56293">
            <path id="Trazado_115338" data-name="Trazado 115338" d="M85.81,530.89a.3.3,0,0,1-.28-.19L85,529.3a7,7,0,0,1-2-.7l-1.32.74a.3.3,0,0,1-.35,0L79.82,528a.29.29,0,0,1-.07-.33l.58-1.4a7,7,0,0,1-.93-1.93L77.94,524a.29.29,0,0,1-.22-.27l-.11-1.92a.3.3,0,0,1,.18-.3l1.4-.57a7.29,7.29,0,0,1,.7-2l-.74-1.32a.29.29,0,0,1,0-.34l1.28-1.44a.29.29,0,0,1,.34-.08l1.4.58a7.262,7.262,0,0,1,1.92-.93l.41-1.46a.32.32,0,0,1,.27-.22l1.93-.11a.31.31,0,0,1,.29.18l.58,1.4a7.368,7.368,0,0,1,2,.71l1.32-.75a.32.32,0,0,1,.35,0l1.44,1.28a.33.33,0,0,1,.08.34l-.59,1.4a7.2,7.2,0,0,1,.94,1.93l1.46.41a.28.28,0,0,1,.21.27l.12,1.92a.3.3,0,0,1-.19.29l-1.4.58a7.12,7.12,0,0,1-.7,2l.74,1.33a.29.29,0,0,1,0,.34l-1.28,1.44a.29.29,0,0,1-.34.08l-1.4-.58a7.262,7.262,0,0,1-1.92.93L88,530.56a.31.31,0,0,1-.27.22l-1.93.11Zm-2.88-2.67h.08a6.748,6.748,0,0,0,2.09.73h.09l.64,1.54,1.87-.11.46-1.61h.08a6.741,6.741,0,0,0,2-1l.07-.05,1.55.64,1.25-1.4-.82-1.46v-.08a6.81,6.81,0,0,0,.73-2.1v-.09l1.55-.63-.11-1.88-1.61-.45v-.09a6.78,6.78,0,0,0-1-2l-.06-.08.65-1.54-1.41-1.25-1.46.82-.08-.05a6.726,6.726,0,0,0-2.09-.72h-.09l-.64-1.55-1.87.11-.46,1.61h-.08a6.741,6.741,0,0,0-2,1h-.07L80.7,516l-1.25,1.4.82,1.46v.08A6.85,6.85,0,0,0,79.5,521v.09l-1.55.64.11,1.88,1.61.45v.09a6.779,6.779,0,0,0,1,2l.06.08-.65,1.54L81.47,529ZM94.54,520.8Zm-8.3,6.2a4.78,4.78,0,0,1-3.19-1.22,4.72,4.72,0,0,1-1.61-3.32A4.81,4.81,0,0,1,86,517.38a4.74,4.74,0,0,1,3.48,1.21,4.8,4.8,0,0,1,1.61,3.32,5,5,0,0,1,0,1,.17.17,0,0,1-.33,0,4.3,4.3,0,0,0,0-1,4.49,4.49,0,1,0-4.22,4.74,4.56,4.56,0,0,0,2.26-.77.17.17,0,0,1,.23,0,.15.15,0,0,1,0,.23,4.819,4.819,0,0,1-2.43.83Z" fill="#91b3fa"/>
            <path id="Trazado_115339" data-name="Trazado 115339" d="M86.28,524.09a1.88,1.88,0,1,1,.57-.09A2.238,2.238,0,0,1,86.28,524.09Zm0-3.42a1.469,1.469,0,0,0-.46.07,1.5,1.5,0,0,0-.91.76,1.52,1.52,0,0,0-.1,1.18,1.55,1.55,0,0,0,1.94,1,1.57,1.57,0,0,0,.9-.76,1.55,1.55,0,0,0-1.37-2.26Z" fill="#91b3fa"/>
          </g>
        </g>
        <g id="Grupo_56297" data-name="Grupo 56297">
          <g id="Grupo_56296" data-name="Grupo 56296">
            <path id="Trazado_115340" data-name="Trazado 115340" d="M232.63,499.55a2.05,2.05,0,0,0-.22-1.57c-4.22-7.05-19.35-32.29-19.83-32.56s-18.42-12.59-18.42-12.59c-3.29-2.26-4,.37-4,.37l-3.27,26.51,19.92,32.38a2,2,0,0,0,2.69.72l22.1-12A2,2,0,0,0,232.63,499.55Zm-39.38-37.17a2.88,2.88,0,1,1,3.91-1.12,2.88,2.88,0,0,1-3.91,1.12Z" fill="url(#linear-gradient)"/>
            <g id="Grupo_56295" data-name="Grupo 56295" opacity="0.86">
              <path id="Trazado_115341" data-name="Trazado 115341" d="M204.35,484.36c2.63,3.56,2.42,6.49.71,7.74s-4.5.52-6.92-2.72-2.55-6.31-.64-7.72S202.1,481.32,204.35,484.36Zm6,14.81-5.67-22.79,1.34-1,5.67,22.8ZM199.87,488c1.42,2,3,3,3.93,2.32s.4-2.38-1.12-4.44c-1.38-1.87-2.87-3.1-3.89-2.35S198.47,486.05,199.87,488Zm18.24-2.9c2.61,3.54,2.43,6.47.71,7.75s-4.5.51-6.92-2.77-2.55-6.31-.66-7.71,4.62-.37,6.87,2.68Zm-4.48,3.59c1.4,1.94,3,3,3.93,2.32s.4-2.38-1.12-4.44c-1.4-1.9-2.88-3.1-3.89-2.35s-.32,2.52,1.08,4.42Z" fill="#fff"/>
            </g>
          </g>
          <path id="Trazado_115342" data-name="Trazado 115342" d="M193.64,460.52a1.19,1.19,0,0,1-1.1-.74h0a15.06,15.06,0,0,0-11.4-8.2,1.2,1.2,0,1,1,.39-2.36,17.43,17.43,0,0,1,13.22,9.64,1.2,1.2,0,0,1-.65,1.56A1.06,1.06,0,0,1,193.64,460.52Z" fill="url(#linear-gradient-2)"/>
        </g>
        <g id="Grupo_56298" data-name="Grupo 56298">
          <path id="Trazado_115343" data-name="Trazado 115343" d="M182.35,581a5.29,5.29,0,0,1-5.4,5.09l-71.29.16a5.39,5.39,0,0,1-5.5-5.09L96.83,448.37a5.51,5.51,0,0,1,5.57-5.69l75.68.36a5.64,5.64,0,0,1,5.61,5.72Z" fill="url(#linear-gradient-3)"/>
          <path id="Trazado_115344" data-name="Trazado 115344" d="M175.92,456.43a5.54,5.54,0,0,0-5.56-5.53l-60.06-.26a5.41,5.41,0,0,0-5.52,5.49L107.25,569a5.32,5.32,0,0,0,5.46,5l57.06-.09a5.22,5.22,0,0,0,5.36-5Z" fill="url(#linear-gradient-4)"/>
          <path id="Trazado_115345" data-name="Trazado 115345" d="M149.38,446.61a1.05,1.05,0,0,1-1.06,1.06l-15.63-.07a1.1,1.1,0,0,1-1.08-1.07h0a1.06,1.06,0,0,1,1-1.07l15.65.08a1.07,1.07,0,0,1,1.07,1.07Z" fill="url(#linear-gradient-5)"/>
        </g>
        <g id="Grupo_56304" data-name="Grupo 56304">
          <g id="Grupo_56299" data-name="Grupo 56299">
            <path id="Trazado_115346" data-name="Trazado 115346" d="M102.57,450.72a1.14,1.14,0,0,0-1,.53c-4.4,6.93-8.79,13.92-13.19,20.81h13c3.38-6.89,6.76-14.12,10.14-21.34Z" fill="url(#linear-gradient-6)"/>
            <path id="Trazado_115347" data-name="Trazado 115347" d="M114.34,472h-13l10.14-21.33h9.58Q117.73,461.36,114.34,472Z" fill="#91b3fa"/>
            <path id="Trazado_115348" data-name="Trazado 115348" d="M127.3,472h-13q3.38-10.66,6.76-21.33h9.58Q129,461.36,127.3,472Z" fill="url(#linear-gradient-7)"/>
            <path id="Trazado_115349" data-name="Trazado 115349" d="M140.26,472h-13q1.7-10.66,3.38-21.33h9.58Z" fill="#91b3fa"/>
            <path id="Trazado_115350" data-name="Trazado 115350" d="M153.22,472h-13V450.69h9.58Q151.52,461.36,153.22,472Z" fill="url(#linear-gradient-8)"/>
            <path id="Trazado_115351" data-name="Trazado 115351" d="M166.18,472h-13q-1.69-10.66-3.38-21.33h9.58Q162.79,461.36,166.18,472Z" fill="#91b3fa"/>
            <path id="Trazado_115352" data-name="Trazado 115352" d="M179.14,472h-13q-3.39-10.66-6.76-21.33H169Z" fill="url(#linear-gradient-9)"/>
            <path id="Trazado_115353" data-name="Trazado 115353" d="M178.91,451.25a1.14,1.14,0,0,0-1-.53h-9c3.38,7.22,6.77,14.45,10.15,21.34h13C187.7,465.17,183.3,458.18,178.91,451.25Z" fill="#91b3fa"/>
          </g>
          <g id="Grupo_56300" data-name="Grupo 56300">
            <path id="Trazado_115354" data-name="Trazado 115354" d="M88.4,472.06v3.5c0,3.08,3,5.39,6.53,5.39h.14c3.57,0,6.44-2.31,6.44-5.39v-3.5Z" fill="url(#linear-gradient-10)"/>
            <path id="Trazado_115355" data-name="Trazado 115355" d="M101.51,472.06v3.5c0,3.08,2.75,5.39,6.26,5.39h.14c3.51,0,6.27-2.31,6.27-5.39v-3.5Z" fill="#bdd0fb"/>
          </g>
          <g id="Grupo_56301" data-name="Grupo 56301">
            <path id="Trazado_115356" data-name="Trazado 115356" d="M114.18,472.06v3.5c0,3.08,3.08,5.39,6.65,5.39H121c3.57,0,6.33-2.31,6.33-5.39v-3.5Z" fill="url(#linear-gradient-11)"/>
            <path id="Trazado_115357" data-name="Trazado 115357" d="M127.3,472.06v3.5c0,3.08,2.86,5.39,6.37,5.39h.13c3.51,0,6.5-2.31,6.5-5.39v-3.5Z" fill="#bdd0fb"/>
          </g>
          <g id="Grupo_56302" data-name="Grupo 56302">
            <path id="Trazado_115358" data-name="Trazado 115358" d="M140.3,472.06v3.5c0,3.08,2.85,5.39,6.42,5.39h.14c3.57,0,6.44-2.31,6.44-5.39v-3.5Z" fill="url(#linear-gradient-12)"/>
            <path id="Trazado_115359" data-name="Trazado 115359" d="M153.3,472.06v3.5c0,3.08,2.75,5.39,6.26,5.39h.14c3.5,0,6.49-2.31,6.49-5.39v-3.5Z" fill="#bdd0fb"/>
          </g>
          <g id="Grupo_56303" data-name="Grupo 56303">
            <path id="Trazado_115360" data-name="Trazado 115360" d="M166.19,472.06v3.5c0,3.08,2.86,5.39,6.43,5.39h.13c3.57,0,6.56-2.31,6.56-5.39v-3.5Z" fill="url(#linear-gradient-13)"/>
            <path id="Trazado_115361" data-name="Trazado 115361" d="M179.31,472.06v3.5c0,3.08,2.63,5.39,6.14,5.39h.14c3.51,0,6.39-2.31,6.39-5.39v-3.5Z" fill="#bdd0fb"/>
          </g>
        </g>
        <g id="Grupo_56306" data-name="Grupo 56306">
          <path id="Trazado_115362" data-name="Trazado 115362" d="M161.08,546.4a7.78,7.78,0,0,1-7.78,7.78H127.41a7.78,7.78,0,0,1-7.78-7.78h0a7.78,7.78,0,0,1,7.78-7.78H153.3a7.78,7.78,0,0,1,7.78,7.78Z" fill="url(#linear-gradient-14)"/>
          <g id="Grupo_56305" data-name="Grupo 56305">
            <path id="Trazado_115363" data-name="Trazado 115363" d="M128.65,542.08a13.261,13.261,0,0,1,2.38-.19,4.33,4.33,0,0,1,2.58.57,1.9,1.9,0,0,1,.93,1.68,2.09,2.09,0,0,1-1.49,2h0a2.26,2.26,0,0,1,1.81,2.22,2.35,2.35,0,0,1-.87,1.86,5,5,0,0,1-3.33.84,16.384,16.384,0,0,1-2-.12Zm1.62,3.54h.84c1.14,0,1.78-.53,1.78-1.29s-.64-1.23-1.68-1.23a4.51,4.51,0,0,0-.94.07Zm0,4.14h.87c1.05,0,2-.4,2-1.51s-.91-1.47-2-1.47h-.82Z" fill="#fff"/>
            <path id="Trazado_115364" data-name="Trazado 115364" d="M138,542v5.24c0,1.76.74,2.57,1.84,2.57s1.9-.81,1.9-2.57V542h1.64v5.13c0,2.77-1.43,4-3.59,4s-3.43-1.16-3.43-4V542Z" fill="#fff"/>
            <path id="Trazado_115365" data-name="Trazado 115365" d="M147.25,550.94V547.2l-2.84-5.2h1.86l1.08,2.3c.31.67.54,1.18.78,1.79h0c.23-.57.48-1.13.79-1.79L150,542h1.85l-3,5.2v3.78Z" fill="#fff"/>
          </g>
        </g>
        <g id="Grupo_56309" data-name="Grupo 56309">
          <g id="Grupo_56307" data-name="Grupo 56307">
            <path id="Trazado_115366" data-name="Trazado 115366" d="M171.27,543.65,161,541.76a.3.3,0,0,0-.33.22l-3.58,15.52a.29.29,0,0,0,0,.22.3.3,0,0,0,.19.12l13.86,2.06a.29.29,0,0,0,.23-.07.28.28,0,0,0,.1-.21V543.93A.28.28,0,0,0,171.27,543.65Z" fill="#91b3fa"/>
            <path id="Trazado_115367" data-name="Trazado 115367" d="M163.66,543a.37.37,0,1,1-.37-.37A.37.37,0,0,1,163.66,543Z" fill="url(#linear-gradient-15)"/>
            <path id="Trazado_115368" data-name="Trazado 115368" d="M168.73,544.12a.37.37,0,1,1-.37-.37.37.37,0,0,1,.37.37Z" fill="url(#linear-gradient-16)"/>
          </g>
          <path id="Trazado_115369" data-name="Trazado 115369" d="M168.36,544.18h0a.06.06,0,0,1-.06-.06c0-.07,0-6.5-1.6-6.67h-.08c-1.54,0-3.22,5.3-3.26,5.6a.07.07,0,0,1-.13,0c0-.13,1.23-4.11,2.6-5.34a1.18,1.18,0,0,1,.88-.37c1.7.19,1.71,6.53,1.71,6.8A.06.06,0,0,1,168.36,544.18Z" fill="url(#linear-gradient-17)"/>
          <path id="Trazado_115370" data-name="Trazado 115370" d="M182.36,518.57s-5.62,12.83-13.62,14.82c-1.54.3-3.36.17-4.17.67s.19,2.12.64,3.3.63.62.83.25-.64-1.56.46-2,.76.25.24.87a2.41,2.41,0,0,0-.46,1.61,12.353,12.353,0,0,0,1.65-.73,2.76,2.76,0,0,0,1.14-1.42,19.72,19.72,0,0,0,15.7-12.16S185.18,513.41,182.36,518.57Z" fill="url(#linear-gradient-18)"/>
          <path id="Trazado_115371" data-name="Trazado 115371" d="M205.74,548.9a.06.06,0,0,1-.06,0s-.68-4.24-2-5a.72.72,0,0,0-.68,0c-1.77.7-.88,4.68-.87,4.72a.136.136,0,0,1,0,.07.06.06,0,0,1-.08,0c0-.17-.92-4.13,1-4.87a.87.87,0,0,1,.8.06c1.35.77,2,4.89,2.05,5.07a.07.07,0,0,1-.06.07Z" fill="url(#linear-gradient-19)"/>
          <path id="Trazado_115372" data-name="Trazado 115372" d="M207.52,548.54l-6.64-.61-1.48.82,1.26,1.59,6.07-.62Z" fill="url(#linear-gradient-20)"/>
          <path id="Trazado_115373" data-name="Trazado 115373" d="M206.56,589l.11,2.54a1,1,0,0,0,.84,1,16.143,16.143,0,0,0,3.36.31.89.89,0,0,0,.84-1.09,9.06,9.06,0,0,0-1.43-3.42l-2.79-.22a.86.86,0,0,0-.93.88Z" fill="url(#linear-gradient-21)"/>
          <path id="Trazado_115374" data-name="Trazado 115374" d="M187,557.79l-.69,2.74s.34,16.1.12,22.52a5.06,5.06,0,0,1-1,2.79l-3.09,4.24,7.3-3.57.2-.84-1-1.66,2.89-17.79a5.56,5.56,0,0,0-.38-3.09l-1.24-2.82Z" fill="url(#linear-gradient-22)"/>
          <path id="Trazado_115375" data-name="Trazado 115375" d="M181.85,590.69l2.23.17a1.31,1.31,0,0,0,1.1-.44c.77-.84,2.34-2.49,3-2.48.93,0,.56,3.29.56,3.29h.52l1-4a2.42,2.42,0,0,0-1.07-2.62h0a3.43,3.43,0,0,1-1.54,2.15c-1.2.6-4.91,2.8-4.91,2.8a3.548,3.548,0,0,0-.91,0,.59.59,0,0,0,.02,1.13Z" fill="url(#linear-gradient-23)"/>
          <path id="Trazado_115376" data-name="Trazado 115376" d="M196.44,559.85s7.88,18.26,9,22.38a39,39,0,0,1,1.41,7.81c0,.5.57,1,2.26,1.15a1.64,1.64,0,0,0,1.57-.57,1,1,0,0,0,.11-1c-.45-1.13-1.88-4.72-2.38-6.33-.61-1.93-1.56-10.55-2.21-13.57s-1.41-6.3-5-9.55C201.2,560.22,198.75,557.43,196.44,559.85Z" fill="url(#linear-gradient-24)"/>
          <path id="Trazado_115377" data-name="Trazado 115377" d="M192.84,530.67c-1.6-10.29,4.89-15.54,4.89-15.54a22.54,22.54,0,0,0-7.12-4.86,5.71,5.71,0,0,0-6.12.86c-1.86,1.61-3.89,3.89-3.62,6s3.62,13.68,3.62,13.68a9.26,9.26,0,0,0,8.35-.14Z" fill="url(#linear-gradient-25)"/>
          <path id="Trazado_115378" data-name="Trazado 115378" d="M197.74,536.08c-.75-3-4.9-5.41-4.9-5.41a9.26,9.26,0,0,1-8.35.16,16.671,16.671,0,0,0-.77,6.4c.36,3.13,2.58,23.3,2.58,23.3,5.85,1.66,15.17,0,15.17,0C198.21,553.48,198.48,539.08,197.74,536.08Z" fill="url(#linear-gradient-26)"/>
          <path id="Trazado_115379" data-name="Trazado 115379" d="M190.27,503.91l1.26,8.86c.13.78-.56.6-1.33.4-1.25-.34-2.85-1-3.32-2a1,1,0,0,1-.07-.34l-.36-6.1a1.07,1.07,0,0,1,.72-1.09l1.66-.59a1.09,1.09,0,0,1,1.44.86Z" fill="url(#linear-gradient-27)"/>
          <path id="Trazado_115380" data-name="Trazado 115380" d="M210.72,564.42l2.28-1.3-5.48-14.58-1.32.89Z" fill="url(#linear-gradient-28)"/>
          <path id="Trazado_115381" data-name="Trazado 115381" d="M204.54,550.43h-.06s.3-4.28-.92-5.67a1.11,1.11,0,0,0-.83-.42,1.09,1.09,0,0,0-.84.33c-1.31,1.22-1.39,5.43-1.39,5.47s0,.07-.06.06a.05.05,0,0,1-.06-.06c0-.17.07-4.3,1.43-5.56a1.21,1.21,0,0,1,.93-.36,1.32,1.32,0,0,1,.92.47c1.27,1.45,1,5.71.94,5.75S204.57,550.43,204.54,550.43Z" fill="url(#linear-gradient-29)"/>
          <path id="Trazado_115382" data-name="Trazado 115382" d="M194.55,519.14c.33.43,5.26,6.3,6.68,12.85a37.7,37.7,0,0,1,.93,10.93s-1.43,1.07-.92,1.83.38,1.27,1,1.42,1.48.36,1.38-.95,1.46-1.56,1.2-2.35,1.5-21.92-7-27.66l-.12-.08C194.13,516.43,194,518.45,194.55,519.14Z" fill="url(#linear-gradient-30)"/>
          <path id="Trazado_115383" data-name="Trazado 115383" d="M199.39,548.8l6.81.63,4.52,14.99-9.77.26Z" fill="url(#linear-gradient-31)"/>
          <path id="Trazado_115384" data-name="Trazado 115384" d="M210.86,564.19h0a.1.1,0,0,1-.07-.11l.44-1.67-3.45-10.7a.1.1,0,0,1,.06-.11.09.09,0,0,1,.11.06l3.46,10.72h0l-.44,1.69a.1.1,0,0,1-.11.12Z" fill="url(#linear-gradient-32)"/>
          <path id="Trazado_115385" data-name="Trazado 115385" d="M212.83,563.15h0l-1.17-.57a.09.09,0,0,1-.05-.12.1.1,0,0,1,.12,0l1.18.56a.09.09,0,0,1,0,.12A.1.1,0,0,1,212.83,563.15Z" fill="url(#linear-gradient-33)"/>
          <g id="Grupo_56308" data-name="Grupo 56308">
            <path id="Trazado_115386" data-name="Trazado 115386" d="M188.88,496.89a9.61,9.61,0,0,0-4.93,4.18c-2.23,3.45-1.17,5.33.43,5.78a7.66,7.66,0,0,0,6.92-1.29C194.2,503.53,192.36,496.06,188.88,496.89Z" fill="url(#linear-gradient-34)"/>
            <path id="Trazado_115387" data-name="Trazado 115387" d="M189.84,503.36s2.65-5.13-2.12-5.84l-1.23.64s-1.35-3.23,1.72-4.27a6.18,6.18,0,0,1,7.9,4.86c.7,4-.36,6.45-2.65,8s-2.84-.64-2.84-.64,1.34-1.58,1-2.57-1.52,0-1.52,0Z" fill="url(#linear-gradient-35)"/>
            <path id="Trazado_115388" data-name="Trazado 115388" d="M190.3,504s1.34-2.65,2.49-1.37-1.4,2.42-2.38,2.77Z" fill="url(#linear-gradient-36)"/>
            <path id="Trazado_115389" data-name="Trazado 115389" d="M193.82,498s9.26-2.85,10.79,6.81,2.57,12.77,4.87,11.1c0,0-.38,3.61-4.79,2C193.24,513.68,200.21,500.26,193.82,498Z" fill="url(#linear-gradient-37)"/>
          </g>
        </g>
        <g id="Grupo_56310" data-name="Grupo 56310">
          <path id="Trazado_115390" data-name="Trazado 115390" d="M72.36,518.52l.31.14a.172.172,0,1,1-.15.31l-.3-.15a.17.17,0,0,1,.14-.3Z" fill="#fff"/>
          <path id="Trazado_115391" data-name="Trazado 115391" d="M73.37,519l.3.14a.18.18,0,0,1,.08.23.17.17,0,0,1-.23.07l-.3-.14a.168.168,0,0,1,.15-.3Z" fill="#fff"/>
          <path id="Trazado_115392" data-name="Trazado 115392" d="M74.37,519.48l.3.15a.17.17,0,0,1,.08.22.18.18,0,0,1-.23.08l-.3-.15a.16.16,0,0,1-.07-.22.17.17,0,0,1,.22-.08Z" fill="#fff"/>
          <path id="Trazado_115393" data-name="Trazado 115393" d="M75.37,520l.3.15a.16.16,0,0,1,.07.22.17.17,0,0,1-.22.08l-.3-.15a.16.16,0,0,1-.07-.22.17.17,0,0,1,.22-.08Z" fill="#fff"/>
          <path id="Trazado_115394" data-name="Trazado 115394" d="M76.36,520.47l.3.15a.163.163,0,1,1-.15.29l-.29-.15a.161.161,0,1,1,.14-.29Z" fill="#fff"/>
          <path id="Trazado_115395" data-name="Trazado 115395" d="M77.36,521l.29.15a.161.161,0,1,1-.14.29l-.3-.15a.163.163,0,1,1,.15-.29Z" fill="#fff"/>
          <path id="Trazado_115396" data-name="Trazado 115396" d="M78.35,521.47l.29.16a.16.16,0,0,1,.08.22.18.18,0,0,1-.23.07l-.29-.15a.17.17,0,0,1,.15-.3Z" fill="#fff"/>
          <path id="Trazado_115397" data-name="Trazado 115397" d="M79.34,522l.29.16a.163.163,0,1,1-.15.29l-.3-.15a.17.17,0,1,1,.16-.3Z" fill="#fff"/>
          <path id="Trazado_115398" data-name="Trazado 115398" d="M80.32,522.5l.3.16a.15.15,0,0,1,.06.22.16.16,0,0,1-.22.07l-.29-.16a.163.163,0,1,1,.15-.29Z" fill="#fff"/>
          <path id="Trazado_115399" data-name="Trazado 115399" d="M81.3,523l.3.16a.15.15,0,0,1,.06.22.16.16,0,0,1-.22.07l-.29-.16a.163.163,0,1,1,.15-.29Z" fill="#fff"/>
          <path id="Trazado_115400" data-name="Trazado 115400" d="M82.28,523.55l.3.16a.166.166,0,0,1-.16.29l-.29-.16a.163.163,0,0,1,.15-.29Z" fill="#fff"/>
          <path id="Trazado_115401" data-name="Trazado 115401" d="M83.26,524.08l.29.16a.18.18,0,0,1,.07.23.19.19,0,0,1-.23.06l-.29-.16a.15.15,0,0,1-.06-.22.16.16,0,0,1,.22-.07Z" fill="#fff"/>
          <path id="Trazado_115402" data-name="Trazado 115402" d="M84.23,524.62l.29.16a.18.18,0,0,1,.07.23.19.19,0,0,1-.23.06l-.29-.16a.18.18,0,0,1-.06-.23.17.17,0,0,1,.22-.06Z" fill="#fff"/>
          <path id="Trazado_115403" data-name="Trazado 115403" d="M85.2,525.16l.29.17a.161.161,0,1,1-.16.28l-.29-.16a.17.17,0,0,1,.16-.29Z" fill="#fff"/>
          <path id="Trazado_115404" data-name="Trazado 115404" d="M86.17,525.71l.29.17a.16.16,0,0,1,.06.22.15.15,0,0,1-.22.06L86,526a.166.166,0,0,1,.16-.29Z" fill="#fff"/>
          <path id="Trazado_115405" data-name="Trazado 115405" d="M87.13,526.27l.29.16a.166.166,0,0,1-.16.29l-.29-.17a.17.17,0,0,1-.06-.22.16.16,0,0,1,.22-.06Z" fill="#fff"/>
          <path id="Trazado_115406" data-name="Trazado 115406" d="M88.1,526.83l.28.17a.15.15,0,0,1,.06.22.16.16,0,0,1-.22,0l-.29-.16a.18.18,0,0,1-.06-.23.17.17,0,0,1,.23,0Z" fill="#fff"/>
          <path id="Trazado_115407" data-name="Trazado 115407" d="M89.05,527.39l.29.17a.164.164,0,1,1-.17.28l-.28-.17a.161.161,0,1,1,.16-.28Z" fill="#fff"/>
          <path id="Trazado_115408" data-name="Trazado 115408" d="M90,528l.28.17a.17.17,0,0,1,.06.22.16.16,0,0,1-.22.06l-.29-.17A.164.164,0,1,1,90,528Z" fill="#fff"/>
          <path id="Trazado_115409" data-name="Trazado 115409" d="M91,528.54l.28.17a.16.16,0,0,1,.06.22.15.15,0,0,1-.22.05l-.29-.17a.16.16,0,0,1-.05-.22.15.15,0,0,1,.22-.05Z" fill="#fff"/>
          <path id="Trazado_115410" data-name="Trazado 115410" d="M91.91,529.12l.28.17a.15.15,0,0,1,0,.22.16.16,0,0,1-.22.06l-.28-.18a.156.156,0,1,1,.22-.22Z" fill="#fff"/>
          <path id="Trazado_115411" data-name="Trazado 115411" d="M92.85,529.7l.29.18a.17.17,0,0,1,0,.22.16.16,0,0,1-.23,0l-.28-.18a.16.16,0,0,1-.05-.22.17.17,0,0,1,.22,0Z" fill="#fff"/>
          <path id="Trazado_115412" data-name="Trazado 115412" d="M93.79,530.29l.29.18a.17.17,0,0,1,0,.22.16.16,0,0,1-.23,0l-.28-.18a.16.16,0,0,1,.17-.27Z" fill="#fff"/>
          <path id="Trazado_115413" data-name="Trazado 115413" d="M94.73,530.89l.28.18a.15.15,0,0,1,0,.22.16.16,0,0,1-.22.05l-.28-.18a.16.16,0,0,1,0-.22.15.15,0,0,1,.22-.05Z" fill="#fff"/>
          <path id="Trazado_115414" data-name="Trazado 115414" d="M95.67,531.49l.28.18a.16.16,0,0,1,0,.22.15.15,0,0,1-.22.05l-.28-.18a.16.16,0,0,1,0-.22.15.15,0,0,1,.22,0Z" fill="#fff"/>
          <path id="Trazado_115415" data-name="Trazado 115415" d="M96.6,532.1l.28.18a.16.16,0,0,1,0,.22.15.15,0,0,1-.22,0l-.28-.19a.156.156,0,1,1,.22-.22Z" fill="#fff"/>
          <path id="Trazado_115416" data-name="Trazado 115416" d="M97.53,532.71l.28.18a.16.16,0,0,1,0,.22.15.15,0,0,1-.22,0l-.28-.18a.17.17,0,0,1,0-.23.16.16,0,0,1,.22,0Z" fill="#fff"/>
          <path id="Trazado_115417" data-name="Trazado 115417" d="M98.45,533.33l.28.18a.16.16,0,0,1,0,.22.15.15,0,0,1-.22,0l-.27-.19a.15.15,0,0,1,0-.22.16.16,0,0,1,.22,0Z" fill="#fff"/>
          <path id="Trazado_115418" data-name="Trazado 115418" d="M99.37,534l.28.19a.156.156,0,1,1-.22.22l-.27-.19a.15.15,0,0,1,0-.22.16.16,0,0,1,.22,0Z" fill="#fff"/>
          <path id="Trazado_115419" data-name="Trazado 115419" d="M100.29,534.58l.28.19a.156.156,0,0,1-.22.22l-.28-.19a.16.16,0,0,1,0-.22.15.15,0,0,1,.22,0Z" fill="#fff"/>
          <path id="Trazado_115420" data-name="Trazado 115420" d="M101.21,535.21l.27.19a.16.16,0,0,1-.18.26l-.28-.19a.161.161,0,0,1,.19-.26Z" fill="#fff"/>
          <path id="Trazado_115421" data-name="Trazado 115421" d="M102.12,535.85l.27.19a.16.16,0,0,1-.18.26l-.28-.2a.16.16,0,1,1,.19-.25Z" fill="#fff"/>
          <path id="Trazado_115422" data-name="Trazado 115422" d="M103,536.49l.27.19a.15.15,0,0,1,0,.22.16.16,0,0,1-.22,0l-.27-.19a.16.16,0,1,1,.18-.26Z" fill="#fff"/>
          <path id="Trazado_115423" data-name="Trazado 115423" d="M103.93,537.14l.27.19a.156.156,0,0,1-.22.22l-.27-.2a.16.16,0,1,1,.19-.25Z" fill="#fff"/>
          <path id="Trazado_115424" data-name="Trazado 115424" d="M104.83,537.85l.27.17a.13.13,0,0,1,0,.2.16.16,0,0,1-.22,0l-.27-.2a.13.13,0,0,1,0-.2.12.12,0,0,1,.22,0Z" fill="#fff"/>
          <path id="Trazado_115425" data-name="Trazado 115425" d="M105.72,538.45l.27.2a.16.16,0,0,1-.19.25l-.26-.2a.154.154,0,1,1,.18-.25Z" fill="#fff"/>
          <path id="Trazado_115426" data-name="Trazado 115426" d="M106.61,539.12l.27.2a.16.16,0,0,1-.19.25l-.27-.2a.17.17,0,0,1,0-.22.16.16,0,0,1,.22,0Z" fill="#fff"/>
          <path id="Trazado_115427" data-name="Trazado 115427" d="M107.5,539.79l.26.2a.156.156,0,1,1-.22.22l-.26-.2a.16.16,0,1,1,.19-.25Z" fill="#fff"/>
          <path id="Trazado_115428" data-name="Trazado 115428" d="M108.38,540.47l.26.21a.15.15,0,0,1,0,.21.16.16,0,0,1-.22,0l-.26-.2a.16.16,0,1,1,.19-.25Z" fill="#fff"/>
          <path id="Trazado_115429" data-name="Trazado 115429" d="M109.25,541.16l.27.2a.16.16,0,0,1-.2.25l-.26-.21a.15.15,0,0,1,0-.22.14.14,0,0,1,.21,0Z" fill="#fff"/>
          <path id="Trazado_115430" data-name="Trazado 115430" d="M110.13,541.85l.26.2a.15.15,0,0,1,0,.22.16.16,0,0,1-.22,0l-.26-.21a.17.17,0,0,1,0-.22.15.15,0,0,1,.22,0Z" fill="#fff"/>
          <path id="Trazado_115431" data-name="Trazado 115431" d="M111,542.54l.26.21a.16.16,0,1,1-.2.24l-.26-.21a.16.16,0,0,1,0-.22.17.17,0,0,1,.22,0Z" fill="#fff"/>
          <path id="Trazado_115432" data-name="Trazado 115432" d="M111.86,543.24l.26.21a.14.14,0,0,1,0,.21.15.15,0,0,1-.21,0l-.26-.21a.16.16,0,0,1,0-.22.15.15,0,0,1,.22,0Z" fill="#fff"/>
          <path id="Trazado_115433" data-name="Trazado 115433" d="M112.73,543.94l.25.21a.16.16,0,0,1,0,.22.17.17,0,0,1-.22,0l-.26-.21a.16.16,0,1,1,.2-.24Z" fill="#fff"/>
          <path id="Trazado_115434" data-name="Trazado 115434" d="M113.59,544.64l.26.21a.16.16,0,1,1-.2.24l-.26-.21a.16.16,0,0,1,.2-.24Z" fill="#fff"/>
          <path id="Trazado_115435" data-name="Trazado 115435" d="M114.45,545.34l.26.21a.17.17,0,0,1,0,.22.15.15,0,0,1-.22,0l-.26-.21a.152.152,0,0,1,.22-.21Z" fill="#fff"/>
          <path id="Trazado_115436" data-name="Trazado 115436" d="M115.31,546.05l.26.21a.16.16,0,0,1-.2.24l-.26-.21a.17.17,0,0,1,0-.22.15.15,0,0,1,.22,0Z" fill="#fff"/>
          <path id="Trazado_115437" data-name="Trazado 115437" d="M116.17,546.75l.25.21a.16.16,0,0,1,0,.22.15.15,0,0,1-.22,0L116,547a.16.16,0,0,1,.2-.24Z" fill="#fff"/>
          <path id="Trazado_115438" data-name="Trazado 115438" d="M117,547.46l.25.21a.15.15,0,0,1,0,.21.16.16,0,0,1-.22,0l-.26-.22a.16.16,0,0,1,0-.21.15.15,0,0,1,.22,0Z" fill="#fff"/>
          <path id="Trazado_115439" data-name="Trazado 115439" d="M117.89,548.16l.25.21a.16.16,0,0,1,0,.22.17.17,0,0,1-.22,0l-.26-.21a.16.16,0,0,1,.2-.24Z" fill="#fff"/>
          <path id="Trazado_115440" data-name="Trazado 115440" d="M118.75,548.86l.26.21a.16.16,0,0,1-.2.24l-.26-.21a.152.152,0,0,1,.22-.21Z" fill="#fff"/>
          <path id="Trazado_115441" data-name="Trazado 115441" d="M119.61,549.56l.26.21a.17.17,0,0,1,0,.22.16.16,0,0,1-.21,0l-.26-.21a.14.14,0,0,1,0-.21.15.15,0,0,1,.21,0Z" fill="#fff"/>
          <path id="Trazado_115442" data-name="Trazado 115442" d="M120.47,550.26l.26.21a.15.15,0,0,1,0,.21.16.16,0,0,1-.22,0l-.26-.21a.17.17,0,0,1,0-.22.16.16,0,0,1,.21,0Z" fill="#fff"/>
          <path id="Trazado_115443" data-name="Trazado 115443" d="M121.34,551l.26.2a.16.16,0,0,1,0,.22.17.17,0,0,1-.22,0l-.26-.21a.15.15,0,0,1,0-.21.14.14,0,0,1,.21,0Z" fill="#fff"/>
          <path id="Trazado_115444" data-name="Trazado 115444" d="M122.21,551.65l.26.2a.15.15,0,1,1-.18.24l-.27-.21a.15.15,0,0,1,0-.21.14.14,0,0,1,.21,0Z" fill="#fff"/>
          <path id="Trazado_115445" data-name="Trazado 115445" d="M123.09,552.33l.26.21a.15.15,0,1,1-.19.23l-.26-.2a.15.15,0,0,1,0-.21.16.16,0,0,1,.22,0Z" fill="#fff"/>
          <path id="Trazado_115446" data-name="Trazado 115446" d="M124,553l.27.2a.153.153,0,0,1-.19.24l-.26-.2A.15.15,0,1,1,124,553Z" fill="#fff"/>
          <path id="Trazado_115447" data-name="Trazado 115447" d="M124.85,553.68l.26.21a.15.15,0,0,1,0,.21.16.16,0,0,1-.21,0l-.27-.2a.17.17,0,0,1,0-.22.16.16,0,0,1,.21,0Z" fill="#fff"/>
          <path id="Trazado_115448" data-name="Trazado 115448" d="M125.73,554.35l.27.2a.15.15,0,1,1-.18.24l-.27-.2a.15.15,0,1,1,.18-.24Z" fill="#fff"/>
          <path id="Trazado_115449" data-name="Trazado 115449" d="M126.62,555l.27.2a.15.15,0,1,1-.17.24l-.27-.2a.145.145,0,0,1,.21-.2Z" fill="#fff"/>
          <path id="Trazado_115450" data-name="Trazado 115450" d="M127.52,555.66l.27.2a.148.148,0,1,1-.21.21l-.27-.19a.148.148,0,1,1,.21-.21Z" fill="#fff"/>
          <path id="Trazado_115451" data-name="Trazado 115451" d="M128.43,556.31l.27.19a.16.16,0,0,1,0,.21.15.15,0,0,1-.21,0l-.27-.19a.15.15,0,0,1,0-.21.16.16,0,0,1,.21,0Z" fill="#fff"/>
          <path id="Trazado_115452" data-name="Trazado 115452" d="M129.34,556.94l.27.19a.145.145,0,0,1-.2.21l-.28-.19a.15.15,0,0,1,0-.21A.16.16,0,0,1,129.34,556.94Z" fill="#fff"/>
          <path id="Trazado_115453" data-name="Trazado 115453" d="M130.26,557.57l.27.18a.136.136,0,1,1-.16.21l-.28-.19a.14.14,0,0,1,0-.2.15.15,0,0,1,.21,0Z" fill="#fff"/>
          <path id="Trazado_115454" data-name="Trazado 115454" d="M131.18,558.18l.28.18a.16.16,0,0,1,0,.21.17.17,0,0,1-.21,0l-.28-.18a.15.15,0,0,1,0-.21.14.14,0,0,1,.2,0Z" fill="#fff"/>
          <path id="Trazado_115455" data-name="Trazado 115455" d="M132.11,558.78l.29.18a.14.14,0,0,1,0,.2.15.15,0,0,1-.2.05L132,559a.146.146,0,0,1,.15-.25Z" fill="#fff"/>
          <path id="Trazado_115456" data-name="Trazado 115456" d="M133.05,559.37l.29.17a.149.149,0,0,1-.21.21l-.28-.17a.15.15,0,0,1-.05-.2.14.14,0,0,1,.2,0Z" fill="#fff"/>
          <path id="Trazado_115457" data-name="Trazado 115457" d="M134,559.94l.29.17a.15.15,0,0,1-.15.26l-.29-.17a.16.16,0,0,1,0-.21.15.15,0,0,1,.2,0Z" fill="#fff"/>
          <path id="Trazado_115458" data-name="Trazado 115458" d="M135,560.5l.29.17a.15.15,0,1,1-.15.25l-.29-.16a.15.15,0,0,1,.15-.26Z" fill="#fff"/>
          <path id="Trazado_115459" data-name="Trazado 115459" d="M135.92,561.05l.3.16a.15.15,0,0,1,.05.2.14.14,0,0,1-.2.06l-.29-.16a.16.16,0,0,1-.06-.2.15.15,0,0,1,.2-.06Z" fill="#fff"/>
          <path id="Trazado_115460" data-name="Trazado 115460" d="M136.9,561.58l.29.15a.146.146,0,1,1-.13.26l-.3-.15a.15.15,0,1,1,.14-.26Z" fill="#fff"/>
          <path id="Trazado_115461" data-name="Trazado 115461" d="M137.88,562.09l.3.15a.16.16,0,0,1,.07.2.15.15,0,0,1-.2.06l-.3-.15a.145.145,0,1,1,.13-.26Z" fill="#fff"/>
          <path id="Trazado_115462" data-name="Trazado 115462" d="M138.88,562.58l.3.15a.14.14,0,0,1,.06.19.13.13,0,0,1-.19.07l-.3-.14a.15.15,0,0,1-.07-.2.16.16,0,0,1,.2-.07Z" fill="#fff"/>
          <path id="Trazado_115463" data-name="Trazado 115463" d="M139.88,563.06l.3.14a.148.148,0,0,1-.12.27l-.31-.14a.15.15,0,0,1,.13-.27Z" fill="#fff"/>
          <path id="Trazado_115464" data-name="Trazado 115464" d="M140.89,563.52l.3.13a.15.15,0,0,1,.08.2.16.16,0,0,1-.2.07l-.3-.13a.148.148,0,1,1,.12-.27Z" fill="#fff"/>
          <path id="Trazado_115465" data-name="Trazado 115465" d="M141.9,564l.31.13a.14.14,0,0,1,.08.19.15.15,0,0,1-.19.08l-.31-.13a.15.15,0,0,1-.08-.19.14.14,0,0,1,.19-.08Z" fill="#fff"/>
          <path id="Trazado_115466" data-name="Trazado 115466" d="M142.93,564.38l.31.13a.15.15,0,1,1-.11.27l-.31-.13a.146.146,0,0,1,.11-.27Z" fill="#fff"/>
          <path id="Trazado_115467" data-name="Trazado 115467" d="M144,564.79l.31.12a.14.14,0,0,1,.09.19.15.15,0,0,1-.19.08l-.31-.12a.144.144,0,0,1,.1-.27Z" fill="#fff"/>
          <path id="Trazado_115468" data-name="Trazado 115468" d="M145,565.18l.31.11a.142.142,0,1,1-.09.27l-.32-.11a.14.14,0,0,1-.08-.18.13.13,0,0,1,.18-.09Z" fill="#fff"/>
          <path id="Trazado_115469" data-name="Trazado 115469" d="M146.05,565.55l.31.11a.142.142,0,1,1-.09.27l-.32-.11a.15.15,0,0,1-.09-.18.16.16,0,0,1,.19-.09Z" fill="#fff"/>
          <path id="Trazado_115470" data-name="Trazado 115470" d="M147.1,565.91l.31.1a.15.15,0,0,1,.1.18.14.14,0,0,1-.19.09l-.31-.1a.143.143,0,1,1,.09-.27Z" fill="#fff"/>
          <path id="Trazado_115471" data-name="Trazado 115471" d="M148.15,566.25l.32.1a.14.14,0,0,1,.1.17.15.15,0,0,1-.18.1l-.32-.1a.14.14,0,0,1-.1-.18.15.15,0,0,1,.18-.09Z" fill="#fff"/>
          <path id="Trazado_115472" data-name="Trazado 115472" d="M149.21,566.57l.32.09a.15.15,0,0,1,.1.18.14.14,0,0,1-.18.1l-.32-.1a.13.13,0,0,1-.09-.17.14.14,0,0,1,.17-.1Z" fill="#fff"/>
          <path id="Trazado_115473" data-name="Trazado 115473" d="M150.28,566.88l.32.09a.141.141,0,1,1-.08.27l-.32-.09a.15.15,0,0,1-.1-.17.14.14,0,0,1,.18-.1Z" fill="#fff"/>
          <path id="Trazado_115474" data-name="Trazado 115474" d="M151.35,567.17l.32.08a.144.144,0,0,1-.07.28l-.32-.09a.14.14,0,0,1,.07-.27Z" fill="#fff"/>
          <path id="Trazado_115475" data-name="Trazado 115475" d="M152.42,567.44l.33.08a.15.15,0,0,1,.1.18.14.14,0,0,1-.17.1l-.32-.08a.143.143,0,1,1,.06-.28Z" fill="#fff"/>
          <path id="Trazado_115476" data-name="Trazado 115476" d="M153.5,567.7l.33.08a.144.144,0,1,1-.07.28l-.32-.08a.143.143,0,1,1,.06-.28Z" fill="#fff"/>
          <path id="Trazado_115477" data-name="Trazado 115477" d="M154.59,568l.32.07a.13.13,0,0,1,.11.17.16.16,0,0,1-.17.11l-.33-.07a.15.15,0,0,1-.1-.17.13.13,0,0,1,.16-.11Z" fill="#fff"/>
          <path id="Trazado_115478" data-name="Trazado 115478" d="M155.67,568.18l.33.06a.16.16,0,0,1,.11.17.14.14,0,0,1-.17.11l-.33-.06a.16.16,0,0,1-.11-.17.14.14,0,0,1,.17-.11Z" fill="#fff"/>
          <path id="Trazado_115479" data-name="Trazado 115479" d="M156.76,568.39l.33.06a.16.16,0,0,1,.11.17.14.14,0,0,1-.17.11l-.32-.06a.15.15,0,0,1-.12-.17.16.16,0,0,1,.17-.11Z" fill="#fff"/>
          <path id="Trazado_115480" data-name="Trazado 115480" d="M157.85,568.59l.33.06a.13.13,0,0,1,.11.16.14.14,0,0,1-.16.12l-.33-.06a.13.13,0,0,1-.11-.16.14.14,0,0,1,.16-.12Z" fill="#fff"/>
          <path id="Trazado_115481" data-name="Trazado 115481" d="M158.94,568.78l.33.05a.141.141,0,1,1-.04.28l-.33-.05a.15.15,0,0,1-.12-.16.14.14,0,0,1,.16-.12Z" fill="#fff"/>
          <path id="Trazado_115482" data-name="Trazado 115482" d="M160,569h.33a.14.14,0,0,1,0,.28H160a.14.14,0,0,1,0-.28Z" fill="#fff"/>
          <path id="Trazado_115483" data-name="Trazado 115483" d="M161.14,569.11h.33a.14.14,0,1,1,0,.28h-.33a.141.141,0,1,1,.04-.28Z" fill="#fff"/>
          <path id="Trazado_115484" data-name="Trazado 115484" d="M162.24,569.25h.33a.141.141,0,0,1-.03.28h-.34a.14.14,0,1,1,0-.28Z" fill="#fff"/>
          <path id="Trazado_115485" data-name="Trazado 115485" d="M163.34,569.38h.33a.14.14,0,0,1,.13.15.15.15,0,0,1-.16.13h-.33a.14.14,0,0,1-.12-.16.13.13,0,0,1,.15-.12Z" fill="#fff"/>
          <path id="Trazado_115486" data-name="Trazado 115486" d="M164.44,569.5h.34a.141.141,0,0,1-.03.28h-.33a.15.15,0,0,1-.13-.16.14.14,0,0,1,.15-.12Z" fill="#fff"/>
          <path id="Trazado_115487" data-name="Trazado 115487" d="M165.55,569.6h.33a.14.14,0,0,1,.13.15.15.15,0,0,1-.15.13h-.33a.14.14,0,0,1-.13-.15.13.13,0,0,1,.15-.13Z" fill="#fff"/>
          <path id="Trazado_115488" data-name="Trazado 115488" d="M166.65,569.69h.34a.16.16,0,0,1,.13.15.14.14,0,0,1-.15.13h-.34a.14.14,0,0,1-.12-.15.13.13,0,0,1,.14-.13Z" fill="#fff"/>
          <path id="Trazado_115489" data-name="Trazado 115489" d="M167.76,569.77h.33a.14.14,0,1,1,0,.27h-.34a.14.14,0,1,1,0-.27Z" fill="#fff"/>
          <path id="Trazado_115490" data-name="Trazado 115490" d="M168.87,569.83h.33a.13.13,0,0,1,.13.14.12.12,0,0,1-.14.13h-.33a.14.14,0,1,1,0-.28Z" fill="#fff"/>
          <path id="Trazado_115491" data-name="Trazado 115491" d="M170,569.88h.33a.12.12,0,0,1,.13.14.13.13,0,0,1-.14.13H170a.14.14,0,0,1-.14-.14.15.15,0,0,1,.15-.14Z" fill="#fff"/>
          <path id="Trazado_115492" data-name="Trazado 115492" d="M171.09,569.92h.33a.14.14,0,0,1,.14.14.15.15,0,0,1-.15.14h-.33a.13.13,0,0,1-.13-.14A.14.14,0,0,1,171.09,569.92Z" fill="#fff"/>
          <path id="Trazado_115493" data-name="Trazado 115493" d="M172.2,570h.33a.14.14,0,1,1,0,.28h-.34a.14.14,0,0,1,0-.27Z" fill="#fff"/>
          <path id="Trazado_115494" data-name="Trazado 115494" d="M173.31,570h.33a.14.14,0,1,1,0,.28h-.33a.14.14,0,0,1,0-.28Z" fill="#fff"/>
          <path id="Trazado_115495" data-name="Trazado 115495" d="M174.42,570h.33a.13.13,0,0,1,.14.13.14.14,0,0,1-.14.14h-.33a.13.13,0,0,1-.14-.13A.14.14,0,0,1,174.42,570Z" fill="#fff"/>
          <path id="Trazado_115496" data-name="Trazado 115496" d="M175.53,570h.33a.14.14,0,1,1,0,.27h-.34a.135.135,0,1,1,0-.27Z" fill="#fff"/>
          <path id="Trazado_115497" data-name="Trazado 115497" d="M176.64,569.92H177a.14.14,0,0,1,.14.13.13.13,0,0,1-.13.14h-.34a.135.135,0,1,1,0-.27Z" fill="#fff"/>
          <path id="Trazado_115498" data-name="Trazado 115498" d="M177.74,569.88h.34a.14.14,0,0,1,.14.13.15.15,0,0,1-.13.15h-.33a.135.135,0,1,1-.02-.27Z" fill="#fff"/>
          <path id="Trazado_115499" data-name="Trazado 115499" d="M178.85,569.83h.34a.13.13,0,0,1,.14.13.14.14,0,0,1-.13.14h-.33a.15.15,0,0,1-.15-.13.13.13,0,0,1,.13-.14Z" fill="#fff"/>
          <path id="Trazado_115500" data-name="Trazado 115500" d="M180,569.76h.33a.135.135,0,1,1,.02.27h-.33a.14.14,0,0,1-.15-.13A.15.15,0,0,1,180,569.76Z" fill="#fff"/>
          <path id="Trazado_115501" data-name="Trazado 115501" d="M181.07,569.68h.33a.13.13,0,0,1,.14.12.14.14,0,0,1-.12.15h-.33a.135.135,0,1,1-.02-.27Z" fill="#fff"/>
          <path id="Trazado_115502" data-name="Trazado 115502" d="M182.17,569.59h.34a.12.12,0,0,1,.14.12.13.13,0,0,1-.12.14h-.33a.136.136,0,1,1-.03-.27Z" fill="#fff"/>
          <path id="Trazado_115503" data-name="Trazado 115503" d="M183.28,569.49h.33a.136.136,0,0,1,.03.27h-.33a.13.13,0,0,1-.15-.12A.14.14,0,0,1,183.28,569.49Z" fill="#fff"/>
          <path id="Trazado_115504" data-name="Trazado 115504" d="M184.38,569.38h.34a.12.12,0,0,1,.14.12.13.13,0,0,1-.11.15h-.34a.12.12,0,0,1-.14-.12.13.13,0,0,1,.11-.15Z" fill="#fff"/>
          <path id="Trazado_115505" data-name="Trazado 115505" d="M185.49,569.26h.33a.13.13,0,0,1,.15.11.14.14,0,0,1-.12.15h-.33a.14.14,0,0,1,0-.27Z" fill="#fff"/>
          <path id="Trazado_115506" data-name="Trazado 115506" d="M186.59,569.13h.33a.14.14,0,0,1,.15.12.13.13,0,0,1-.11.15h-.34a.12.12,0,0,1-.14-.12.13.13,0,0,1,.11-.15Z" fill="#fff"/>
          <path id="Trazado_115507" data-name="Trazado 115507" d="M187.69,569h.33a.13.13,0,0,1,.15.11.12.12,0,0,1-.11.15h-.33a.14.14,0,0,1,0-.27Z" fill="#fff"/>
          <path id="Trazado_115508" data-name="Trazado 115508" d="M188.79,568.84h.33a.132.132,0,1,1,.04.26l-.33.05a.13.13,0,0,1-.15-.11.14.14,0,0,1,.11-.16Z" fill="#fff"/>
          <path id="Trazado_115509" data-name="Trazado 115509" d="M189.89,568.69l.33-.05a.13.13,0,0,1,.15.11.12.12,0,0,1-.11.15l-.33.05a.13.13,0,1,1,0-.26Z" fill="#fff"/>
          <path id="Trazado_115510" data-name="Trazado 115510" d="M191,568.52h.33a.13.13,0,0,1,0,.26H191a.12.12,0,0,1-.15-.11.13.13,0,0,1,.11-.15Z" fill="#fff"/>
          <path id="Trazado_115511" data-name="Trazado 115511" d="M192.09,568.35l.33-.06a.13.13,0,0,1,.15.11.14.14,0,0,1-.11.16l-.33.05a.13.13,0,0,1,0-.26Z" fill="#fff"/>
          <path id="Trazado_115512" data-name="Trazado 115512" d="M193.18,568.17l.33-.06a.14.14,0,0,1,.16.11.13.13,0,0,1-.11.15l-.33.06a.13.13,0,0,1-.15-.11.12.12,0,0,1,.1-.15Z" fill="#fff"/>
          <path id="Trazado_115513" data-name="Trazado 115513" d="M194.28,568l.33-.06a.13.13,0,0,1,0,.26l-.32.06a.14.14,0,0,1-.16-.11.13.13,0,0,1,.11-.15Z" fill="#fff"/>
          <path id="Trazado_115514" data-name="Trazado 115514" d="M195.37,567.78l.33-.06a.13.13,0,0,1,.15.11.12.12,0,0,1-.1.15l-.33.06a.13.13,0,0,1-.15-.11.12.12,0,0,1,.1-.15Z" fill="#fff"/>
          <path id="Trazado_115515" data-name="Trazado 115515" d="M196.46,567.58l.33-.06a.13.13,0,1,1,.05.25l-.33.07a.133.133,0,0,1-.05-.26Z" fill="#fff"/>
          <path id="Trazado_115516" data-name="Trazado 115516" d="M197.55,567.37l.33-.07a.132.132,0,0,1,.05.26l-.32.06a.129.129,0,1,1-.06-.25Z" fill="#fff"/>
          <path id="Trazado_115517" data-name="Trazado 115517" d="M198.64,567.14l.33-.06a.13.13,0,1,1,.05.25l-.32.07a.13.13,0,0,1-.16-.1.14.14,0,0,1,.1-.16Z" fill="#fff"/>
          <path id="Trazado_115518" data-name="Trazado 115518" d="M199.73,566.91l.32-.07a.133.133,0,1,1,.06.26l-.33.07a.132.132,0,0,1-.05-.26Z" fill="#fff"/>
          <path id="Trazado_115519" data-name="Trazado 115519" d="M200.81,566.67l.33-.07a.13.13,0,0,1,.05.25l-.32.08a.133.133,0,1,1-.06-.26Z" fill="#fff"/>
          <path id="Trazado_115520" data-name="Trazado 115520" d="M201.89,566.42l.33-.08a.133.133,0,0,1,.06.26l-.33.07a.11.11,0,0,1-.15-.09.13.13,0,0,1,.09-.16Z" fill="#fff"/>
          <path id="Trazado_115521" data-name="Trazado 115521" d="M203,566.16l.32-.08a.13.13,0,1,1,.07.25l-.33.08a.11.11,0,0,1-.15-.09.13.13,0,0,1,.09-.16Z" fill="#fff"/>
          <path id="Trazado_115522" data-name="Trazado 115522" d="M204.05,565.89l.32-.09a.129.129,0,1,1,.06.25l-.32.09a.14.14,0,0,1-.16-.1A.13.13,0,0,1,204.05,565.89Z" fill="#fff"/>
          <path id="Trazado_115523" data-name="Trazado 115523" d="M205.12,565.6l.32-.09a.13.13,0,0,1,.07.25l-.32.09a.13.13,0,1,1-.07-.25Z" fill="#fff"/>
          <path id="Trazado_115524" data-name="Trazado 115524" d="M206.19,565.3l.32-.09a.13.13,0,1,1,.07.25l-.32.09a.13.13,0,0,1-.07-.25Z" fill="#fff"/>
          <path id="Trazado_115525" data-name="Trazado 115525" d="M207.25,565l.32-.09a.12.12,0,0,1,.16.08.13.13,0,0,1-.08.16l-.32.1a.131.131,0,0,1-.08-.25Z" fill="#fff"/>
          <path id="Trazado_115526" data-name="Trazado 115526" d="M208.31,564.67l.32-.1a.13.13,0,0,1,.08.24l-.32.1a.12.12,0,0,1-.16-.08.13.13,0,0,1,.08-.16Z" fill="#fff"/>
          <path id="Trazado_115527" data-name="Trazado 115527" d="M209.37,564.33l.32-.1a.12.12,0,0,1,.16.08.13.13,0,0,1-.08.16l-.32.1a.13.13,0,1,1-.08-.24Z" fill="#fff"/>
          <path id="Trazado_115528" data-name="Trazado 115528" d="M210.42,564l.32-.11a.12.12,0,0,1,.16.08.13.13,0,0,1-.08.16l-.31.11a.14.14,0,0,1-.17-.08.13.13,0,0,1,.08-.16Z" fill="#fff"/>
          <path id="Trazado_115529" data-name="Trazado 115529" d="M211.47,563.61l.31-.11a.13.13,0,0,1,.17.07.14.14,0,0,1-.08.17l-.31.11a.14.14,0,0,1-.17-.08A.13.13,0,0,1,211.47,563.61Z" fill="#fff"/>
          <path id="Trazado_115530" data-name="Trazado 115530" d="M212.51,563.23l.31-.12a.13.13,0,0,1,.17.07.14.14,0,0,1-.08.17l-.31.12a.13.13,0,0,1-.16-.08.12.12,0,0,1,.07-.16Z" fill="#fff"/>
          <path id="Trazado_115531" data-name="Trazado 115531" d="M213.55,562.83l.31-.12a.123.123,0,0,1,.09.23l-.31.12a.123.123,0,0,1-.09-.23Z" fill="#fff"/>
          <path id="Trazado_115532" data-name="Trazado 115532" d="M214.58,562.41l.3-.12a.126.126,0,1,1,.1.23l-.31.13a.12.12,0,0,1-.16-.07.13.13,0,0,1,.07-.17Z" fill="#fff"/>
          <path id="Trazado_115533" data-name="Trazado 115533" d="M215.6,562l.3-.13a.126.126,0,1,1,.1.23l-.3.14a.14.14,0,0,1-.17-.07.13.13,0,0,1,.07-.17Z" fill="#fff"/>
          <path id="Trazado_115534" data-name="Trazado 115534" d="M216.61,561.54l.3-.14a.127.127,0,0,1,.11.23l-.3.13a.123.123,0,1,1-.11-.22Z" fill="#fff"/>
          <path id="Trazado_115535" data-name="Trazado 115535" d="M217.62,561.07l.3-.14a.11.11,0,0,1,.16.06.12.12,0,0,1-.05.16l-.31.15a.13.13,0,0,1-.1-.23Z" fill="#fff"/>
          <path id="Trazado_115536" data-name="Trazado 115536" d="M218.61,560.59l.3-.15a.13.13,0,0,1,.17,0,.12.12,0,0,1-.06.17l-.29.15a.125.125,0,0,1-.12-.22Z" fill="#fff"/>
          <path id="Trazado_115537" data-name="Trazado 115537" d="M219.6,560.08l.3-.15a.13.13,0,0,1,.17.05.12.12,0,0,1-.06.17l-.29.16a.12.12,0,0,1-.17-.06.13.13,0,0,1,0-.17Z" fill="#fff"/>
          <path id="Trazado_115538" data-name="Trazado 115538" d="M220.58,559.57l.29-.16a.121.121,0,0,1,.12.21l-.29.16a.11.11,0,0,1-.17,0,.12.12,0,0,1,.05-.16Z" fill="#fff"/>
          <path id="Trazado_115539" data-name="Trazado 115539" d="M221.55,559l.29-.17a.12.12,0,0,1,.17.17l-.28.16a.111.111,0,1,1-.13-.17Z" fill="#fff"/>
          <path id="Trazado_115540" data-name="Trazado 115540" d="M222.51,558.47l.28-.17a.112.112,0,1,1,.13.17l-.28.17a.123.123,0,1,1-.13-.21Z" fill="#fff"/>
          <path id="Trazado_115541" data-name="Trazado 115541" d="M223.46,557.89l.28-.17a.124.124,0,0,1,.17.18l-.28.17a.12.12,0,1,1-.17-.17Z" fill="#fff"/>
          <path id="Trazado_115542" data-name="Trazado 115542" d="M224.39,557.3l.28-.19a.13.13,0,0,1,.17,0,.12.12,0,0,1,0,.17l-.27.18a.124.124,0,0,1-.18-.17Z" fill="#fff"/>
          <path id="Trazado_115543" data-name="Trazado 115543" d="M225.31,556.68l.28-.19a.13.13,0,0,1,.17,0,.14.14,0,0,1,0,.18l-.28.19a.12.12,0,0,1-.17-.17Z" fill="#fff"/>
          <path id="Trazado_115544" data-name="Trazado 115544" d="M226.22,556.05l.27-.2a.13.13,0,0,1,.17,0,.12.12,0,0,1,0,.17l-.28.2a.12.12,0,0,1-.17-.17Z" fill="#fff"/>
          <path id="Trazado_115545" data-name="Trazado 115545" d="M227.12,555.39l.26-.2a.12.12,0,1,1,.17.17l-.27.2a.12.12,0,0,1-.17,0,.13.13,0,0,1,0-.18Z" fill="#fff"/>
          <path id="Trazado_115546" data-name="Trazado 115546" d="M228,554.72l.26-.21a.12.12,0,1,1,.17.17l-.26.2a.121.121,0,0,1-.15-.19Z" fill="#fff"/>
          <path id="Trazado_115547" data-name="Trazado 115547" d="M228.86,554l.26-.21a.12.12,0,0,1,.17,0,.13.13,0,0,1,0,.18l-.25.21a.12.12,0,1,1-.17-.17Z" fill="#fff"/>
          <path id="Trazado_115548" data-name="Trazado 115548" d="M229.71,553.32l.25-.22a.127.127,0,1,1,.18.18l-.25.21a.12.12,0,1,1-.17-.17Z" fill="#fff"/>
          <path id="Trazado_115549" data-name="Trazado 115549" d="M230.55,552.59l.24-.22a.13.13,0,0,1,.18,0,.14.14,0,0,1,0,.18l-.25.22a.12.12,0,1,1-.17-.17Z" fill="#fff"/>
          <path id="Trazado_115550" data-name="Trazado 115550" d="M231.36,551.84l.25-.23a.12.12,0,1,1,.16.18l-.24.23a.124.124,0,0,1-.17-.18Z" fill="#fff"/>
          <path id="Trazado_115551" data-name="Trazado 115551" d="M232.17,551.07l.23-.23a.12.12,0,0,1,.17.17l-.23.24a.13.13,0,1,1-.18-.18Z" fill="#fff"/>
          <path id="Trazado_115552" data-name="Trazado 115552" d="M233,550.29l.23-.24a.12.12,0,0,1,.17.17l-.23.24a.12.12,0,1,1-.17-.17Z" fill="#fff"/>
          <path id="Trazado_115553" data-name="Trazado 115553" d="M233.71,549.49l.23-.24a.12.12,0,1,1,.18.16l-.23.24a.12.12,0,1,1-.17-.17Z" fill="#fff"/>
          <path id="Trazado_115554" data-name="Trazado 115554" d="M234.46,548.67l.22-.25a.12.12,0,1,1,.17.17l-.22.25a.12.12,0,1,1-.17-.17Z" fill="#fff"/>
          <path id="Trazado_115555" data-name="Trazado 115555" d="M235.19,547.84l.22-.25a.12.12,0,1,1,.17.17l-.21.26a.124.124,0,0,1-.19-.16Z" fill="#fff"/>
          <path id="Trazado_115556" data-name="Trazado 115556" d="M235.9,547l.22-.26a.11.11,0,0,1,.16,0,.12.12,0,0,1,0,.17l-.21.26a.121.121,0,1,1-.19-.15Z" fill="#fff"/>
          <path id="Trazado_115557" data-name="Trazado 115557" d="M236.6,546.12l.2-.26a.121.121,0,1,1,.19.15l-.2.26a.12.12,0,1,1-.17-.17Z" fill="#fff"/>
          <path id="Trazado_115558" data-name="Trazado 115558" d="M237.27,545.25l.2-.27a.13.13,0,0,1,.17,0,.12.12,0,0,1,0,.17l-.2.27a.113.113,0,1,1-.16-.16Z" fill="#fff"/>
          <path id="Trazado_115559" data-name="Trazado 115559" d="M237.93,544.35l.19-.27a.13.13,0,0,1,.17,0,.14.14,0,0,1,0,.17l-.2.27a.11.11,0,0,1-.16,0,.12.12,0,0,1,0-.17Z" fill="#fff"/>
          <path id="Trazado_115560" data-name="Trazado 115560" d="M238.56,543.44l.19-.27a.117.117,0,0,1,.17.16l-.19.28a.11.11,0,0,1-.16,0,.13.13,0,0,1,0-.17Z" fill="#fff"/>
          <path id="Trazado_115561" data-name="Trazado 115561" d="M239.18,542.52l.18-.28a.13.13,0,0,1,.17,0,.11.11,0,0,1,0,.16l-.18.28a.117.117,0,0,1-.16-.17Z" fill="#fff"/>
          <path id="Trazado_115562" data-name="Trazado 115562" d="M239.78,541.59l.18-.28a.11.11,0,0,1,.16,0,.13.13,0,0,1,0,.16l-.18.28a.113.113,0,1,1-.16-.16Z" fill="#fff"/>
          <path id="Trazado_115563" data-name="Trazado 115563" d="M240.36,540.65l.17-.29a.117.117,0,0,1,.17.16l-.18.29a.12.12,0,0,1-.16,0,.13.13,0,0,1,0-.16Z" fill="#fff"/>
          <path id="Trazado_115564" data-name="Trazado 115564" d="M240.93,539.69l.17-.28a.12.12,0,0,1,.16,0,.13.13,0,0,1,0,.16l-.17.29a.11.11,0,0,1-.16,0,.12.12,0,0,1,0-.16Z" fill="#fff"/>
          <path id="Trazado_115565" data-name="Trazado 115565" d="M241.48,538.73l.17-.29a.12.12,0,1,1,.2.12l-.16.29a.13.13,0,0,1-.16,0,.12.12,0,0,1-.05-.16Z" fill="#fff"/>
          <path id="Trazado_115566" data-name="Trazado 115566" d="M242,537.76l.16-.29a.1.1,0,1,1,.16.11l-.16.29a.12.12,0,0,1-.21-.11Z" fill="#fff"/>
          <path id="Trazado_115567" data-name="Trazado 115567" d="M242.55,536.79l.16-.3a.11.11,0,0,1,.15,0,.12.12,0,0,1,0,.16l-.15.3a.12.12,0,0,1-.16,0,.11.11,0,0,1,0-.15Z" fill="#fff"/>
          <path id="Trazado_115568" data-name="Trazado 115568" d="M243.06,535.8l.16-.29a.112.112,0,0,1,.2.1l-.15.3a.12.12,0,0,1-.16.05.13.13,0,0,1-.05-.16Z" fill="#fff"/>
          <path id="Trazado_115569" data-name="Trazado 115569" d="M243.57,534.81l.14-.29a.1.1,0,1,1,.16.1l-.15.3a.11.11,0,0,1-.15.05.12.12,0,0,1-.05-.16Z" fill="#fff"/>
          <path id="Trazado_115570" data-name="Trazado 115570" d="M244.06,533.82l.14-.3a.12.12,0,1,1,.21.1l-.15.3a.112.112,0,0,1-.2-.1Z" fill="#fff"/>
          <path id="Trazado_115571" data-name="Trazado 115571" d="M244.53,532.82l.14-.31a.13.13,0,0,1,.16,0,.11.11,0,0,1,0,.15l-.14.3a.11.11,0,0,1-.15.06.12.12,0,0,1-.06-.15Z" fill="#fff"/>
          <path id="Trazado_115572" data-name="Trazado 115572" d="M245,531.81l.14-.3a.114.114,0,1,1,.21.09l-.14.3a.114.114,0,1,1-.21-.09Z" fill="#fff"/>
          <path id="Trazado_115573" data-name="Trazado 115573" d="M245.45,530.8l.14-.31a.11.11,0,0,1,.15-.06.13.13,0,0,1,.06.15l-.14.31a.11.11,0,0,1-.15.06.12.12,0,0,1-.06-.15Z" fill="#fff"/>
          <path id="Trazado_115574" data-name="Trazado 115574" d="M245.89,529.78l.13-.31a.114.114,0,1,1,.21.09l-.13.31a.11.11,0,0,1-.15.06.13.13,0,0,1-.06-.15Z" fill="#fff"/>
          <path id="Trazado_115575" data-name="Trazado 115575" d="M246.32,528.75l.13-.3a.112.112,0,0,1,.21.08l-.13.31a.11.11,0,0,1-.15.06.12.12,0,0,1-.06-.15Z" fill="#fff"/>
          <path id="Trazado_115576" data-name="Trazado 115576" d="M246.74,527.72l.12-.31a.12.12,0,0,1,.15-.06.11.11,0,0,1,.06.15l-.12.31a.114.114,0,0,1-.21-.09Z" fill="#fff"/>
          <path id="Trazado_115577" data-name="Trazado 115577" d="M247.14,526.69l.12-.31a.12.12,0,0,1,.15-.07.11.11,0,0,1,.06.15l-.12.31a.11.11,0,0,1-.14.07.12.12,0,0,1-.07-.15Z" fill="#fff"/>
          <path id="Trazado_115578" data-name="Trazado 115578" d="M247.53,525.65l.12-.31a.11.11,0,0,1,.14-.07.12.12,0,0,1,.07.15l-.11.31a.117.117,0,1,1-.22-.08Z" fill="#fff"/>
          <path id="Trazado_115579" data-name="Trazado 115579" d="M247.91,524.61l.11-.32a.112.112,0,0,1,.21.08l-.11.31a.111.111,0,0,1-.21-.07Z" fill="#fff"/>
          <path id="Trazado_115580" data-name="Trazado 115580" d="M248.27,523.56l.11-.32a.112.112,0,1,1,.21.08l-.1.31a.115.115,0,0,1-.22-.07Z" fill="#fff"/>
          <path id="Trazado_115581" data-name="Trazado 115581" d="M248.62,522.51l.11-.32a.1.1,0,0,1,.14-.07.11.11,0,0,1,.07.14l-.1.32a.115.115,0,0,1-.22-.07Z" fill="#fff"/>
          <path id="Trazado_115582" data-name="Trazado 115582" d="M249,521.45l.1-.32a.111.111,0,0,1,.21.07l-.1.32a.111.111,0,1,1-.21-.07Z" fill="#fff"/>
          <path id="Trazado_115583" data-name="Trazado 115583" d="M249.28,520.39l.09-.32a.114.114,0,1,1,.22.06l-.1.32a.109.109,0,1,1-.21-.06Z" fill="#fff"/>
          <path id="Trazado_115584" data-name="Trazado 115584" d="M249.58,519.32l.09-.32a.114.114,0,1,1,.22.06l-.09.32a.114.114,0,0,1-.22-.06Z" fill="#fff"/>
          <path id="Trazado_115585" data-name="Trazado 115585" d="M249.87,518.25l.09-.32a.11.11,0,1,1,.21.05l-.08.32a.113.113,0,0,1-.22-.05Z" fill="#fff"/>
          <path id="Trazado_115586" data-name="Trazado 115586" d="M250.15,517.17l.07-.32a.113.113,0,0,1,.22.05l-.08.33a.109.109,0,1,1-.21-.06Z" fill="#fff"/>
          <path id="Trazado_115587" data-name="Trazado 115587" d="M250.4,516.09l.07-.32a.13.13,0,0,1,.14-.09.12.12,0,0,1,.08.14l-.07.32a.13.13,0,0,1-.14.09.12.12,0,0,1-.08-.14Z" fill="#fff"/>
          <path id="Trazado_115588" data-name="Trazado 115588" d="M250.64,515l.06-.33a.1.1,0,0,1,.13-.08.11.11,0,0,1,.09.13l-.07.32a.11.11,0,0,1-.13.09.1.1,0,0,1-.08-.13Z" fill="#fff"/>
          <path id="Trazado_115589" data-name="Trazado 115589" d="M250.85,513.92l.06-.33a.11.11,0,0,1,.22,0l-.06.33a.11.11,0,0,1-.22,0Z" fill="#fff"/>
          <path id="Trazado_115590" data-name="Trazado 115590" d="M251.05,512.83v-.33a.11.11,0,0,1,.22,0v.33a.11.11,0,0,1-.22,0Z" fill="#fff"/>
          <path id="Trazado_115591" data-name="Trazado 115591" d="M251.23,511.73v-.33a.11.11,0,0,1,.22,0l-.05.33a.1.1,0,0,1-.12.09.11.11,0,0,1-.09-.13Z" fill="#fff"/>
          <path id="Trazado_115592" data-name="Trazado 115592" d="M251.38,510.63v-.33a.1.1,0,0,1,.12-.09.12.12,0,0,1,.1.12v.33a.13.13,0,0,1-.13.1.11.11,0,0,1-.09-.13Z" fill="#fff"/>
          <path id="Trazado_115593" data-name="Trazado 115593" d="M251.51,509.53v-.33a.11.11,0,0,1,.22,0v.34a.11.11,0,0,1-.21,0Z" fill="#fff"/>
          <path id="Trazado_115594" data-name="Trazado 115594" d="M251.61,508.43v-.33a.11.11,0,1,1,.21,0v.34a.12.12,0,0,1-.12.1A.11.11,0,0,1,251.61,508.43Z" fill="#fff"/>
          <path id="Trazado_115595" data-name="Trazado 115595" d="M251.69,507.32V507a.11.11,0,0,1,.12-.1.1.1,0,0,1,.1.11v.33a.11.11,0,1,1-.21,0Z" fill="#fff"/>
          <path id="Trazado_115596" data-name="Trazado 115596" d="M251.73,506.22v-.34a.1.1,0,0,1,.11-.1.11.11,0,0,1,.11.11v.33a.11.11,0,0,1-.22,0Z" fill="#fff"/>
          <path id="Trazado_115597" data-name="Trazado 115597" d="M251.75,505.11v-.34a.12.12,0,0,1,.11-.11.1.1,0,0,1,.1.11v.34a.105.105,0,0,1-.21,0Z" fill="#fff"/>
          <path id="Trazado_115598" data-name="Trazado 115598" d="M251.73,504v-.33a.11.11,0,0,1,.22,0V504a.11.11,0,0,1-.11.11.1.1,0,0,1-.11-.1Z" fill="#fff"/>
          <path id="Trazado_115599" data-name="Trazado 115599" d="M251.68,502.89v-.33a.106.106,0,1,1,.21-.02v.34a.1.1,0,0,1-.1.11.11.11,0,0,1-.11-.1Z" fill="#fff"/>
          <path id="Trazado_115600" data-name="Trazado 115600" d="M251.59,501.79v-.33a.11.11,0,1,1,.21,0v.34a.11.11,0,0,1-.1.11.1.1,0,0,1-.12-.09Z" fill="#fff"/>
          <path id="Trazado_115601" data-name="Trazado 115601" d="M251.46,500.69v-.33a.11.11,0,0,1,.21,0l.05.33a.12.12,0,0,1-.09.12.11.11,0,0,1-.17-.12Z" fill="#fff"/>
          <path id="Trazado_115602" data-name="Trazado 115602" d="M251.29,499.59l-.06-.32a.11.11,0,0,1,.09-.13.1.1,0,0,1,.12.09l.06.33a.1.1,0,0,1-.08.12.11.11,0,0,1-.13-.09Z" fill="#fff"/>
          <path id="Trazado_115603" data-name="Trazado 115603" d="M251.08,498.51l-.08-.33a.107.107,0,1,1,.21-.04l.07.32a.1.1,0,1,1-.2.05Z" fill="#fff"/>
          <path id="Trazado_115604" data-name="Trazado 115604" d="M250.81,497.44l-.09-.33a.11.11,0,0,1,.21-.05l.09.32a.109.109,0,0,1-.21.06Z" fill="#fff"/>
          <path id="Trazado_115605" data-name="Trazado 115605" d="M250.5,496.38l-.11-.32a.106.106,0,0,1,.2-.07l.11.32a.106.106,0,0,1-.2.07Z" fill="#fff"/>
          <path id="Trazado_115606" data-name="Trazado 115606" d="M250.13,495.33,250,495a.11.11,0,0,1,.2-.07l.12.31a.1.1,0,0,1-.06.13.09.09,0,0,1-.13-.04Z" fill="#fff"/>
          <path id="Trazado_115607" data-name="Trazado 115607" d="M249.7,494.31l-.14-.3a.105.105,0,0,1,.19-.09l.14.31a.088.088,0,1,1-.14.08Z" fill="#fff"/>
          <path id="Trazado_115608" data-name="Trazado 115608" d="M249.22,493.32l-.16-.29a.107.107,0,1,1,.19-.1l.15.29a.1.1,0,1,1-.14.14Z" fill="#fff"/>
          <path id="Trazado_115609" data-name="Trazado 115609" d="M248.68,492.36l-.18-.29a.1.1,0,0,1,.14-.14l.18.29a.1.1,0,0,1-.14.14Z" fill="#fff"/>
          <path id="Trazado_115610" data-name="Trazado 115610" d="M248.08,491.43l-.19-.27a.1.1,0,0,1,0-.15.11.11,0,0,1,.15,0l.19.27a.11.11,0,0,1,0,.15.1.1,0,0,1-.14,0Z" fill="#fff"/>
          <path id="Trazado_115611" data-name="Trazado 115611" d="M247.42,490.54l-.21-.26a.09.09,0,0,1,0-.14.1.1,0,0,1,.14,0l.21.26a.11.11,0,0,1,0,.15.1.1,0,0,1-.15,0Z" fill="#fff"/>
          <path id="Trazado_115612" data-name="Trazado 115612" d="M246.71,489.7l-.23-.24a.1.1,0,0,1,0-.15.09.09,0,0,1,.14,0l.23.24a.1.1,0,1,1-.14.15Z" fill="#fff"/>
          <path id="Trazado_115613" data-name="Trazado 115613" d="M245.94,488.91l-.24-.23a.1.1,0,0,1,0-.15.11.11,0,0,1,.15,0l.24.23a.11.11,0,0,1,0,.15.1.1,0,0,1-.14,0Z" fill="#fff"/>
          <path id="Trazado_115614" data-name="Trazado 115614" d="M245.12,488.17l-.26-.21a.11.11,0,1,1,.14-.16l.25.21a.1.1,0,1,1-.13.16Z" fill="#fff"/>
          <path id="Trazado_115615" data-name="Trazado 115615" d="M244.25,487.48l-.26-.19a.11.11,0,0,1,0-.15.1.1,0,0,1,.15,0l.27.19a.12.12,0,0,1,0,.15.1.1,0,0,1-.15,0Z" fill="#fff"/>
          <path id="Trazado_115616" data-name="Trazado 115616" d="M243.35,486.85l-.28-.18a.1.1,0,0,1,.11-.17l.28.18a.1.1,0,1,1-.11.17Z" fill="#fff"/>
          <path id="Trazado_115617" data-name="Trazado 115617" d="M242.41,486.27l-.3-.16a.11.11,0,0,1,0-.14.1.1,0,0,1,.14,0l.29.16a.11.11,0,0,1,0,.14.1.1,0,0,1-.14,0Z" fill="#fff"/>
          <path id="Trazado_115618" data-name="Trazado 115618" d="M241.43,485.75l-.3-.15a.09.09,0,0,1,0-.13.1.1,0,0,1,.13-.05l.3.15a.117.117,0,0,1-.14.18Z" fill="#fff"/>
          <path id="Trazado_115619" data-name="Trazado 115619" d="M240.43,485.28l-.31-.13a.1.1,0,0,1,.08-.19l.31.14a.1.1,0,1,1-.08.18Z" fill="#fff"/>
          <path id="Trazado_115620" data-name="Trazado 115620" d="M239.41,484.87l-.32-.12a.1.1,0,0,1,.07-.19l.32.12a.1.1,0,1,1-.07.19Z" fill="#fff"/>
          <path id="Trazado_115621" data-name="Trazado 115621" d="M238.36,484.5l-.32-.11a.09.09,0,0,1-.06-.12.1.1,0,0,1,.13-.07l.31.1a.1.1,0,0,1,.07.13.11.11,0,0,1-.13.07Z" fill="#fff"/>
          <path id="Trazado_115622" data-name="Trazado 115622" d="M237.3,484.17l-.32-.09a.1.1,0,1,1,.06-.19l.32.09a.1.1,0,1,1-.06.19Z" fill="#fff"/>
          <path id="Trazado_115623" data-name="Trazado 115623" d="M236.23,483.89l-.32-.07a.11.11,0,0,1-.08-.13.1.1,0,0,1,.12-.07l.33.07a.11.11,0,0,1,.07.13.1.1,0,0,1-.12.07Z" fill="#fff"/>
          <path id="Trazado_115624" data-name="Trazado 115624" d="M235.15,483.65l-.33-.06a.1.1,0,0,1-.08-.12.11.11,0,0,1,.12-.08l.33.07a.1.1,0,1,1-.04.19Z" fill="#fff"/>
          <path id="Trazado_115625" data-name="Trazado 115625" d="M234.06,483.46h-.33a.1.1,0,0,1-.08-.11.09.09,0,0,1,.11-.09l.33.05a.1.1,0,0,1,.08.12.09.09,0,0,1-.11.08Z" fill="#fff"/>
          <path id="Trazado_115626" data-name="Trazado 115626" d="M233,483.31h-.33a.1.1,0,1,1,.02-.19h.34a.1.1,0,0,1,.08.11.09.09,0,0,1-.11.09Z" fill="#fff"/>
          <path id="Trazado_115627" data-name="Trazado 115627" d="M231.86,483.2h-.33a.09.09,0,0,1-.09-.11.1.1,0,0,1,.1-.09h.34a.12.12,0,0,1,.09.11.09.09,0,0,1-.11.09Z" fill="#fff"/>
          <path id="Trazado_115628" data-name="Trazado 115628" d="M230.76,483.14h-.34a.1.1,0,1,1,.01-.2h.33a.09.09,0,0,1,.1.1.11.11,0,0,1-.1.1Z" fill="#fff"/>
          <path id="Trazado_115629" data-name="Trazado 115629" d="M229.65,483.11h-.34a.1.1,0,0,1-.09-.1.09.09,0,0,1,.1-.1h.33a.1.1,0,0,1,.1.1.11.11,0,0,1-.1.1Z" fill="#fff"/>
          <path id="Trazado_115630" data-name="Trazado 115630" d="M228.54,483.12h-.33a.1.1,0,1,1-.01-.2h.33a.1.1,0,0,1,0,.2Z" fill="#fff"/>
          <path id="Trazado_115631" data-name="Trazado 115631" d="M227.43,483.16h-.33a.1.1,0,1,1-.01-.19h.33a.09.09,0,0,1,.11.09.1.1,0,0,1-.1.1Z" fill="#fff"/>
          <path id="Trazado_115632" data-name="Trazado 115632" d="M226.33,483.24H226a.1.1,0,1,1-.02-.19h.33a.1.1,0,1,1,.02.19Z" fill="#fff"/>
          <path id="Trazado_115633" data-name="Trazado 115633" d="M225.22,483.35h-.33a.1.1,0,1,1-.02-.19h.33a.1.1,0,1,1,.02.19Z" fill="#fff"/>
          <path id="Trazado_115634" data-name="Trazado 115634" d="M224.13,483.5h-.33a.1.1,0,0,1-.12-.08.11.11,0,0,1,.09-.11l.33-.05a.1.1,0,0,1,.03.2Z" fill="#fff"/>
          <path id="Trazado_115635" data-name="Trazado 115635" d="M223,483.67l-.33.05a.1.1,0,1,1,0-.19l.33-.06a.1.1,0,0,1,.03.2Z" fill="#fff"/>
          <path id="Trazado_115636" data-name="Trazado 115636" d="M221.94,483.86l-.33.07a.1.1,0,0,1-.11-.08.09.09,0,0,1,.07-.11l.33-.07a.12.12,0,0,1,.12.08.1.1,0,0,1-.08.11Z" fill="#fff"/>
          <path id="Trazado_115637" data-name="Trazado 115637" d="M220.85,484.08l-.32.07a.094.094,0,1,1-.05-.18l.33-.08a.12.12,0,0,1,.12.08.1.1,0,0,1-.08.11Z" fill="#fff"/>
          <path id="Trazado_115638" data-name="Trazado 115638" d="M219.77,484.33l-.32.08a.1.1,0,0,1-.12-.08.09.09,0,0,1,.07-.11l.33-.08a.09.09,0,0,1,.11.07.1.1,0,0,1-.07.12Z" fill="#fff"/>
          <path id="Trazado_115639" data-name="Trazado 115639" d="M218.69,484.59l-.32.09a.11.11,0,0,1-.12-.07.1.1,0,0,1,.07-.12l.32-.08a.093.093,0,1,1,.05.18Z" fill="#fff"/>
          <path id="Trazado_115640" data-name="Trazado 115640" d="M217.62,484.88l-.32.09a.1.1,0,0,1-.05-.19l.32-.09a.1.1,0,1,1,.05.19Z" fill="#fff"/>
          <path id="Trazado_115641" data-name="Trazado 115641" d="M216.55,485.18l-.32.1a.1.1,0,1,1,0-.19l.32-.09a.09.09,0,0,1,.12.06.1.1,0,0,1-.07.12Z" fill="#fff"/>
          <path id="Trazado_115642" data-name="Trazado 115642" d="M215.49,485.5l-.32.1a.09.09,0,0,1-.12-.06.1.1,0,0,1,.06-.12l.32-.1a.095.095,0,0,1,.06.18Z" fill="#fff"/>
          <path id="Trazado_115643" data-name="Trazado 115643" d="M214.43,485.84l-.32.1a.09.09,0,0,1-.12-.06.1.1,0,0,1,.07-.12l.31-.11a.1.1,0,0,1,.12.07.09.09,0,0,1-.06.12Z" fill="#fff"/>
          <path id="Trazado_115644" data-name="Trazado 115644" d="M213.38,486.18l-.32.11a.095.095,0,0,1-.06-.18l.32-.11a.095.095,0,0,1,.06.18Z" fill="#fff"/>
          <path id="Trazado_115645" data-name="Trazado 115645" d="M212.33,486.54l-.32.11a.071.071,0,1,1-.06-.12l.31-.11a.092.092,0,1,1,.07.17Z" fill="#fff"/>
          <path id="Trazado_115646" data-name="Trazado 115646" d="M211.28,486.92,211,487a.1.1,0,0,1-.07-.18l.32-.11a.09.09,0,0,1,.12.05.11.11,0,0,1-.06.13Z" fill="#fff"/>
          <path id="Trazado_115647" data-name="Trazado 115647" d="M210.24,487.3l-.32.11a.1.1,0,0,1-.12-.05.11.11,0,0,1,.06-.13l.31-.11a.117.117,0,0,1,.12.18Z" fill="#fff"/>
          <path id="Trazado_115648" data-name="Trazado 115648" d="M209.2,487.68l-.32.12a.09.09,0,0,1-.12-.05.1.1,0,0,1,.06-.12l.31-.12a.092.092,0,1,1,.07.17Z" fill="#fff"/>
          <path id="Trazado_115649" data-name="Trazado 115649" d="M208.16,488.08l-.31.12a.092.092,0,1,1-.07-.17l.31-.12a.092.092,0,1,1,.07.17Z" fill="#fff"/>
          <path id="Trazado_115650" data-name="Trazado 115650" d="M207.12,488.48l-.31.12a.09.09,0,0,1-.12-.05.1.1,0,0,1,.05-.12l.31-.12a.092.092,0,1,1,.07.17Z" fill="#fff"/>
        </g>
        <path id="Trazado_115651" data-name="Trazado 115651" d="M53.89,509.61a.16.16,0,0,1-.09,0l-.15-.1a.17.17,0,0,1,0-.23.16.16,0,0,1,.23-.05l.15.1a.17.17,0,0,1,0,.23A.16.16,0,0,1,53.89,509.61Zm-.79-.54L53,509l-.28-.2a.17.17,0,0,1,0-.23.19.19,0,0,1,.24,0l.27.19a.17.17,0,0,1,0,.23A.16.16,0,0,1,53.1,509.07Zm-.9-.65a.17.17,0,0,1-.1,0l-.27-.2a.166.166,0,0,1,.24-.23l.27.2a.16.16,0,0,1,0,.23.15.15,0,0,1-.14,0Zm-.89-.66a.18.18,0,0,1-.1,0l-.27-.2a.17.17,0,0,1,.2-.27l.27.21a.16.16,0,0,1,0,.23A.17.17,0,0,1,51.31,507.76Zm-.88-.69a.17.17,0,0,1-.1,0l-.26-.21a.17.17,0,0,1,.24-.24l.25.2a.17.17,0,0,1,0,.24.16.16,0,0,1-.13.01Zm-.86-.7a.15.15,0,0,1-.11,0l-.25-.22a.163.163,0,1,1,.21-.25l.26.21a.17.17,0,0,1,0,.24.16.16,0,0,1-.11.02Zm-.84-.73a.15.15,0,0,1-.11,0l-.25-.22a.166.166,0,1,1,.23-.24l.25.22a.16.16,0,0,1,0,.24.17.17,0,0,1-.12,0Zm-.82-.74a.21.21,0,0,1-.12,0l-.24-.23a.16.16,0,0,1,0-.23.17.17,0,0,1,.24,0l.24.23a.13.13,0,0,1-.12.23Zm-.8-.77a.18.18,0,0,1-.12-.05l-.24-.24a.17.17,0,0,1,0-.23.16.16,0,0,1,.24,0l.23.23a.17.17,0,0,1,0,.24.21.21,0,0,1-.11.05Zm-.78-.79a.16.16,0,0,1-.12-.06L46,503a.16.16,0,0,1,0-.23.17.17,0,0,1,.24,0l.22.25a.16.16,0,0,1,0,.23.21.21,0,0,1-.13.09Zm-.75-.82a.14.14,0,0,1-.12-.06l-.23-.25a.16.16,0,0,1,0-.23.17.17,0,0,1,.24,0,2.616,2.616,0,0,0,.22.25.17.17,0,0,1,0,.24.15.15,0,0,1-.11.05Zm-.72-.85a.16.16,0,0,1-.13-.06l-.21-.26a.16.16,0,0,1,0-.23.17.17,0,0,1,.24,0l.21.26a.17.17,0,0,1-.11.29Zm-.69-.87a.16.16,0,0,1-.13-.06l-.21-.27a.17.17,0,0,1,0-.23.16.16,0,0,1,.23,0l.2.27a.16.16,0,0,1,0,.23.19.19,0,0,1-.09.06Zm-.66-.9a.15.15,0,0,1-.13-.07l-.19-.27a.19.19,0,0,1,0-.24.16.16,0,0,1,.23.05l.19.27a.16.16,0,0,1,0,.23.17.17,0,0,1-.1.03Zm-.61-.9a.17.17,0,0,1-.14-.08l-.18-.29a.168.168,0,1,1,.29-.17l.17.28a.151.151,0,0,1-.14.26Zm-.57-1a.17.17,0,0,1-.14-.08c-.06-.1-.11-.2-.16-.3a.15.15,0,0,1,.06-.22.16.16,0,0,1,.23.06l.16.29a.17.17,0,0,1-.06.23.15.15,0,0,1-.09.02Zm-.51-1a.16.16,0,0,1-.15-.09l-.15-.31a.17.17,0,0,1,.3-.14l.15.3a.17.17,0,0,1-.08.22Zm-.46-1a.18.18,0,0,1-.16-.1l-.12-.31a.16.16,0,0,1,.09-.22.17.17,0,0,1,.21.09l.13.31a.16.16,0,0,1-.09.22Zm-.4-1a.17.17,0,0,1-.16-.12.963.963,0,0,0-.11-.31.18.18,0,0,1,.11-.22.17.17,0,0,1,.21.11,1.124,1.124,0,0,0,.1.31.16.16,0,0,1-.1.22Zm-.33-1.06a.16.16,0,0,1-.16-.13l-.09-.32a.165.165,0,1,1,.32-.08l.09.32a.17.17,0,0,1-.12.2Zm-.26-1.08a.16.16,0,0,1-.16-.14,1.942,1.942,0,0,0-.07-.33.17.17,0,0,1,.14-.19.16.16,0,0,1,.19.13l.06.33a.16.16,0,0,1-.13.19Zm-.18-1.1a.18.18,0,0,1-.17-.15v-.33a.17.17,0,0,1,.15-.18.15.15,0,0,1,.18.14v.33a.16.16,0,0,1-.14.19Zm-.11-1.11a.16.16,0,0,1-.17-.15c0-.11,0-.23,0-.34a.17.17,0,0,1,.16-.17.16.16,0,0,1,.18.15v.33a.17.17,0,0,1-.16.18Zm0-1.15c-.1,0-.17-.05-.17-.14V489a.18.18,0,0,1,.16-.18h0a.18.18,0,0,1,.16.18v.33a.15.15,0,0,1-.16.15Zm0-1.11h0c-.1,0-.17-.06-.16-.15s0-.22,0-.33a.17.17,0,0,1,.18-.15.18.18,0,0,1,.16.18v.31a.15.15,0,0,1-.21.14Zm.08-1.07h0a.17.17,0,0,1-.15-.18v-.33a.17.17,0,0,1,.19-.15.16.16,0,0,1,.14.18v.33a.16.16,0,0,1-.21.15Zm.12-1.1h0a.17.17,0,0,1-.14-.19v-.33a.17.17,0,0,1,.19-.14.16.16,0,0,1,.14.19c0,.11,0,.21,0,.32a.18.18,0,0,1-.22.15Zm.17-1.1h0a.17.17,0,0,1-.13-.2l.06-.33a.16.16,0,0,1,.19-.13.19.19,0,0,1,.14.2l-.06.32a.18.18,0,0,1-.23.14Zm.22-1.09h0a.17.17,0,0,1-.13-.2,1.324,1.324,0,0,1,.08-.33.164.164,0,0,1,.32.07.566.566,0,0,1-.07.33.17.17,0,0,1-.23.1Zm.25-1.08h0a.16.16,0,0,1-.12-.2,1.666,1.666,0,0,1,.08-.32.17.17,0,0,1,.21-.12.16.16,0,0,1,.12.2l-.09.32a.16.16,0,0,1-.23.17Zm.29-1.07h0a.18.18,0,0,1-.12-.21,1.069,1.069,0,0,1,.1-.32.15.15,0,0,1,.2-.11.18.18,0,0,1,.12.21,1.244,1.244,0,0,1-.1.31.17.17,0,0,1-.23.12Zm.33-1.07h0a.16.16,0,0,1-.11-.21l.1-.31a.17.17,0,1,1,.32.1,1.314,1.314,0,0,1-.1.32.17.17,0,0,1-.24.1Zm.35-1.05h0a.17.17,0,0,1-.11-.21l.12-.32a.16.16,0,0,1,.21-.1.17.17,0,0,1,.1.22,1.053,1.053,0,0,1-.11.31.16.16,0,0,1-.24.1Zm.39-1h-.06a.16.16,0,0,1-.1-.21l.12-.31a.166.166,0,1,1,.31.12l-.12.31a.16.16,0,0,1-.18.05Zm.41-1h-.07a.18.18,0,0,1-.09-.22c0-.1.09-.21.13-.31a.18.18,0,0,1,.22-.09.16.16,0,0,1,.09.22l-.13.31a.16.16,0,0,1-.18.01Zm.44-1h-.07a.17.17,0,0,1-.09-.22l.14-.3a.16.16,0,0,1,.22-.09.17.17,0,0,1,.08.22c0,.1-.09.2-.13.31a.18.18,0,0,1-.18-.02Zm.46-1h-.08a.19.19,0,0,1-.08-.23l.15-.3a.17.17,0,0,1,.3.14c-.05.1-.1.21-.14.31a.16.16,0,0,1-.18-.04Zm.48-1h-.08a.16.16,0,0,1-.07-.22l.15-.3a.17.17,0,0,1,.22-.08.18.18,0,0,1,.08.23l-.15.3a.19.19,0,0,1-.22-.05Zm.5-1h-.08a.17.17,0,0,1-.07-.23l.16-.29a.163.163,0,1,1,.29.15l-.15.3a.19.19,0,0,1-.18-.04Zm.52-1h-.08a.17.17,0,0,1-.06-.23l.16-.29a.16.16,0,0,1,.22-.07.18.18,0,0,1,.07.23l-.16.29a.16.16,0,0,1-.18-.02Zm.54-1h-.08a.17.17,0,0,1-.06-.23l.16-.29a.17.17,0,1,1,.29.17l-.16.29a.18.18,0,0,1-.18,0Zm.56-1h-.08a.17.17,0,0,1-.06-.23l.17-.29a.17.17,0,1,1,.29.17c-.06.1-.12.19-.17.29a.19.19,0,0,1-.18.04Zm.58-.95h-.09a.15.15,0,0,1,0-.22l.18-.29a.16.16,0,0,1,.23-.05.17.17,0,0,1,.05.23l-.18.28a.16.16,0,0,1-.22.03Zm.6-.94a.17.17,0,0,1-.14-.26l.18-.28a.17.17,0,0,1,.23-.05.18.18,0,0,1,0,.24l-.18.27a.19.19,0,0,1-.12.06Zm.61-.93a.17.17,0,0,1-.14-.26l.19-.27a.16.16,0,0,1,.23-.05.17.17,0,0,1,0,.23l-.18.28a.17.17,0,0,1-.08.05Zm.63-.91a.13.13,0,0,1-.1-.24l.19-.27a.163.163,0,1,1,.23.23l-.19.27a.16.16,0,0,1-.16-.02Zm.64-.91a.191.191,0,0,1-.1,0,.16.16,0,0,1,0-.23,3.156,3.156,0,0,1,.19-.27.17.17,0,0,1,.24,0,.16.16,0,0,1,0,.23l-.19.27a.17.17,0,0,1-.17-.02Zm.66-.89a.14.14,0,0,1-.1,0,.16.16,0,0,1,0-.23l.2-.27a.171.171,0,1,1,.27.21,2.557,2.557,0,0,0-.2.26.21.21,0,0,1-.2.01Zm.68-.88a.21.21,0,0,1-.1,0,.16.16,0,0,1,0-.23l.21-.27a.17.17,0,0,1,.26.21l-.21.26a.17.17,0,0,1-.19.01Zm.7-.87a.15.15,0,0,1-.11,0,.16.16,0,0,1,0-.23l.21-.26a.17.17,0,0,1,.24,0,.16.16,0,0,1,0,.23l-.21.26a.18.18,0,0,1-.16-.02Zm.71-.85a.211.211,0,0,1-.11,0,.17.17,0,0,1,0-.24c.08-.08.15-.17.22-.25a.17.17,0,1,1,.25.22l-.21.25a.18.18,0,0,1-.15,0Zm.73-.84a.15.15,0,0,1-.11,0,.17.17,0,0,1,0-.24c.07-.08.15-.16.22-.25a.18.18,0,0,1,.24,0,.17.17,0,0,1,0,.24l-.22.24a.18.18,0,0,1-.16-.01Z" fill="url(#linear-gradient-38)"/>
        <g id="Grupo_56312" data-name="Grupo 56312">
          <g id="Grupo_56311" data-name="Grupo 56311">
            <path id="Trazado_115652" data-name="Trazado 115652" d="M217.24,463.22a7.57,7.57,0,1,1,7.56-7.57,7.57,7.57,0,0,1-7.56,7.57Zm0-14.92a7.35,7.35,0,1,0,7.34,7.35A7.35,7.35,0,0,0,217.24,448.3Z" fill="#91b3fa"/>
            <path id="Trazado_115653" data-name="Trazado 115653" d="M217.24,461.93a6.28,6.28,0,1,1,6.28-6.28,6.28,6.28,0,0,1-6.28,6.28Zm0-12.18a5.9,5.9,0,1,0,5.89,5.9A5.9,5.9,0,0,0,217.24,449.75Z" fill="#91b3fa"/>
          </g>
          <path id="Trazado_115654" data-name="Trazado 115654" d="M219.09,454.63h.62a.14.14,0,0,0,.14-.14v-.42a1.44,1.44,0,0,0-1.44-1.44h-2.35a1.44,1.44,0,0,0-1.44,1.44v.77a1.43,1.43,0,0,0,1.44,1.44h2.35a.54.54,0,0,1,.54.53v.42a.53.53,0,0,1-.54.53h-2.35a.53.53,0,0,1-.54-.53h0a.15.15,0,0,0-.14-.15h-.62a.15.15,0,0,0-.14.15h0a1.44,1.44,0,0,0,1.44,1.44h2.35a1.44,1.44,0,0,0,1.44-1.44v-.42a1.43,1.43,0,0,0-1.44-1.43h-2.35a.54.54,0,0,1-.54-.54v-.77a.53.53,0,0,1,.54-.53h2.35a.53.53,0,0,1,.54.53v.42a.14.14,0,0,0,.14.14Z" fill="#91b3fa"/>
          <path id="Trazado_115655" data-name="Trazado 115655" d="M217.59,459.24c0,.13-.16.24-.35.24h0c-.2,0-.36-.11-.36-.24v-7.18c0-.13.16-.24.36-.24h0c.19,0,.35.11.35.24Z" fill="#91b3fa"/>
        </g>
        <g id="Grupo_56314" data-name="Grupo 56314">
          <g id="Grupo_56313" data-name="Grupo 56313">
            <path id="Trazado_115656" data-name="Trazado 115656" d="M229.69,473.66a5.11,5.11,0,1,1,3.62-1.493,5.12,5.12,0,0,1-3.62,1.493Zm0-10a4.89,4.89,0,1,0,4.9,4.89,4.89,4.89,0,0,0-4.9-4.89Z" fill="#91b3fa"/>
            <path id="Trazado_115657" data-name="Trazado 115657" d="M229.69,472.76a4.22,4.22,0,1,1,4.22-4.21A4.22,4.22,0,0,1,229.69,472.76Zm0-8.17a4,4,0,1,0,4,4A4,4,0,0,0,229.69,464.59Z" fill="#91b3fa"/>
          </g>
          <path id="Trazado_115658" data-name="Trazado 115658" d="M230.94,467.86h.41a.09.09,0,0,0,.1-.09v-.28a1,1,0,0,0-1-1H228.9a1,1,0,0,0-1,1V468a1,1,0,0,0,1,1h1.58a.36.36,0,0,1,.36.36v.28a.36.36,0,0,1-.36.36H228.9a.36.36,0,0,1-.35-.36h0a.1.1,0,0,0-.1-.09H228a.09.09,0,0,0-.09.09h0a1,1,0,0,0,1,1h1.58a1,1,0,0,0,1-1v-.28a1,1,0,0,0-1-1H228.9a.35.35,0,0,1-.35-.35v-.52a.36.36,0,0,1,.35-.36h1.58a.36.36,0,0,1,.36.36v.28a.09.09,0,0,0,.1.09Z" fill="#91b3fa"/>
          <path id="Trazado_115659" data-name="Trazado 115659" d="M229.93,471c0,.09-.1.16-.24.16h0c-.13,0-.23-.07-.23-.16v-4.82c0-.09.1-.16.23-.16h0c.14,0,.24.07.24.16Z" fill="#91b3fa"/>
        </g>
        <g id="Grupo_56315" data-name="Grupo 56315" opacity="0.8">
          <path id="Trazado_115660" data-name="Trazado 115660" d="M160.67,497.4a1.24,1.24,0,0,0-1-.41l-36.51.76-.92-2.93a1,1,0,0,0-1-.66l-5,.14a.93.93,0,0,0-1,.92.89.89,0,0,0,1,.88l4.28-.1,7.75,24.76a1,1,0,0,0,1,.71l25.62.34a.97.97,0,1,0,0-1.93L130,519.64l-2-6.43h27.34a1.25,1.25,0,0,0,1.21-.87l4.31-13.95a1.1,1.1,0,0,0-.19-.99Z" fill="#fff"/>
          <path id="Trazado_115661" data-name="Trazado 115661" d="M133,523a3.69,3.69,0,0,0-3.82,3.65,3.89,3.89,0,0,0,3.82,3.82,3.69,3.69,0,0,0,3.85-3.66A3.88,3.88,0,0,0,133,523Zm0,5.48a1.82,1.82,0,0,1-1.79-1.78A1.73,1.73,0,0,1,133,525a1.81,1.81,0,0,1,1.79,1.78,1.72,1.72,0,0,1-1.79,1.7Z" fill="#fff"/>
          <path id="Trazado_115662" data-name="Trazado 115662" d="M150.09,523.26a3.84,3.84,0,0,0-4,3.75,4,4,0,0,0,4,3.91,3.84,3.84,0,0,0,4-3.74A4,4,0,0,0,150.09,523.26Zm0,5.62a1.89,1.89,0,0,1-1.88-1.83,1.8,1.8,0,0,1,1.88-1.75,1.88,1.88,0,0,1,1.88,1.83,1.79,1.79,0,0,1-1.88,1.75Z" fill="#fff"/>
        </g>
        <g id="Grupo_56319" data-name="Grupo 56319">
          <g id="Grupo_56317" data-name="Grupo 56317">
            <path id="Trazado_115663" data-name="Trazado 115663" d="M23,582.87s-.76,1.2-.95,4.58a.54.54,0,0,0,.54.58h6a.34.34,0,0,0,.33-.46,9.55,9.55,0,0,0-3.77-5Z" fill="url(#linear-gradient-39)"/>
            <path id="Trazado_115664" data-name="Trazado 115664" d="M22.7,580.58l.34,2.84a.54.54,0,0,0,.47.47,4.851,4.851,0,0,0,1.26,0,.89.89,0,0,0,.73-.87v-2.74Z" fill="url(#linear-gradient-40)"/>
            <path id="Trazado_115665" data-name="Trazado 115665" d="M37.77,582.56a8.41,8.41,0,0,0-1.12,4.22,1.05,1.05,0,0,0,1.06,1H47a.45.45,0,0,0,.26-.81,40.42,40.42,0,0,0-7.72-4.44Z" fill="url(#linear-gradient-41)"/>
            <path id="Trazado_115666" data-name="Trazado 115666" d="M36.82,579.49l.72,3.51a.71.71,0,0,0,.85.56,2.47,2.47,0,0,0,.82-.34.83.83,0,0,0,.37-.84l-.75-4.25Z" fill="url(#linear-gradient-42)"/>
            <path id="Trazado_115667" data-name="Trazado 115667" d="M24,530.75a10,10,0,0,0-3,4.88c-.47,2.66,1.34,45.94,1.34,45.94s2.51.42,3.8-.36c0,0,1.54-28.09,2.7-34.59,0,0,6.12,29.1,7.82,34.36,0,0,2.41.29,3.19-.17,0,0-1.6-37.71-3.61-44.42Z" fill="url(#linear-gradient-43)"/>
            <path id="Trazado_115668" data-name="Trazado 115668" d="M28.82,545.56a.11.11,0,0,1-.12-.09l-1.05-4L25.38,540a.122.122,0,0,1,.14-.2l2.3,1.47a.14.14,0,0,1,.05.08l1.07,4.09a.12.12,0,0,1-.09.15Z" fill="url(#linear-gradient-44)"/>
            <path id="Trazado_115669" data-name="Trazado 115669" d="M48.81,505.74c-10.57-.88-13.34,1.31-13.34,1.31l5.08,8s10.39-.21,17.83-5.94a18.251,18.251,0,0,1-3-4.45A13.89,13.89,0,0,1,48.81,505.74Z" fill="url(#linear-gradient-45)"/>
            <path id="Trazado_115670" data-name="Trazado 115670" d="M65.36,490.23a.33.33,0,0,0-.62-.13L63.39,493a3.06,3.06,0,0,0-.24,1.79l.47,1.67a2.85,2.85,0,0,1-.59,2.3,20,20,0,0,1-7.63,5.94,18.25,18.25,0,0,0,3,4.45,18.24,18.24,0,0,0,6.34-8.81,1.41,1.41,0,0,0,1-1.41Z" fill="url(#linear-gradient-46)"/>
            <path id="Trazado_115671" data-name="Trazado 115671" d="M52.28,510.39c-3.72-4-10.8-5.82-14.91-6.56a3.75,3.75,0,0,0-4.2,2.38c-1.85,5-6.87,17.88-7.84,20.1-.8,1.82-1.64,3.6-2.17,4.71a1.34,1.34,0,0,0,.63,1.78A98.912,98.912,0,0,0,36,537.08a.86.86,0,0,0,1.1-.83,2.72,2.72,0,0,1,.39-1.39L47,519c5.94,6.59,11.15,7.19,15.15,5.75a29.56,29.56,0,0,1-1.33-6.25C54.91,517.46,52.28,510.39,52.28,510.39Z" fill="url(#linear-gradient-47)"/>
            <path id="Trazado_115672" data-name="Trazado 115672" d="M70.59,517.36l-1.07-1.42c-3.45,2.37-6.34,2.94-8.7,2.53a29.56,29.56,0,0,0,1.33,6.25C67.41,522.82,70.59,517.36,70.59,517.36Z" fill="url(#linear-gradient-48)"/>
            <path id="Trazado_115673" data-name="Trazado 115673" d="M69.84,517.39l6,.23,5.53-3.08c-.79-.5-5.28.51-5.28.51s-4.69-.71-6-.71c-1.06,0-.91,1.52-.83,2v.17Z" fill="url(#linear-gradient-49)"/>
            <path id="Trazado_115674" data-name="Trazado 115674" d="M43,496.46l-3.17,7.74s3.64,2.52,6.57,2.28l1.58-7Z" fill="url(#linear-gradient-50)"/>
            <g id="Grupo_56316" data-name="Grupo 56316">
              <path id="Trazado_115675" data-name="Trazado 115675" d="M48.37,491.19c.07.1,2.29,8.12,2.29,8.12l-4.6,1.17-3.24-7.28S47.16,489.47,48.37,491.19Z" fill="url(#linear-gradient-51)"/>
              <path id="Trazado_115676" data-name="Trazado 115676" d="M44.56,494.3l1.4,4a1,1,0,0,0,.07.15c.19.27.92,1.15,1.77.35a5.31,5.31,0,0,1,2.2-1.51.59.59,0,0,1,.67.42,25.821,25.821,0,0,1,.77,3.87.58.58,0,0,1-.48.63,19.059,19.059,0,0,1-4.4.37.61.61,0,0,1-.49-.34c-.44-1-1.79-3.87-2.29-4.62s-1.62-.69-2.1-.65a.56.56,0,0,1-.43-.14,1.53,1.53,0,0,1-.1-2.45.58.58,0,0,0,0-.84,1.52,1.52,0,0,1-.2-2.27,2.17,2.17,0,0,1,2.58-.62.57.57,0,0,0,.7-.26.48.48,0,0,1,.48-.23.57.57,0,0,0,.62-.59,1.75,1.75,0,0,1,1.36-1.83c2-.63,3.27,1.32,3.39,2.77s-2.1,2-3.4,1.9c-1-.07-1.73.91-2,1.39a.59.59,0,0,0-.12.5Z" fill="url(#linear-gradient-52)"/>
              <path id="Trazado_115677" data-name="Trazado 115677" d="M44.28,499.06s-.33-2.52-1.37-2.65-2.07.74-1,2.16C43.18,500.32,44.28,499.06,44.28,499.06Z" fill="url(#linear-gradient-53)"/>
            </g>
          </g>
          <g id="Grupo_56318" data-name="Grupo 56318">
            <path id="Trazado_115678" data-name="Trazado 115678" d="M67.69,483.76l54.67-.34a2.17,2.17,0,0,1,2.26,2.12l-.23,28.36a2.18,2.18,0,0,1-2.31,2.09L68,514.46a2.16,2.16,0,0,1-2.17-2.07l-.36-26.49a2.17,2.17,0,0,1,2.22-2.14Z" fill="url(#linear-gradient-54)"/>
            <path id="Trazado_115679" data-name="Trazado 115679" d="M122.15,514.16l-54.09-1.52a.29.29,0,0,1-.28-.28l-.36-26.49a.274.274,0,0,1,.29-.28l54.66-.34a.28.28,0,0,1,.21.08.22.22,0,0,1,.08.2l-.23,28.36a.28.28,0,0,1-.28.27Zm.22-28.75-54.66.35a.12.12,0,0,0-.09,0,.09.09,0,0,0,0,.08l.36,26.49a.13.13,0,0,0,.13.11L122.15,514a.12.12,0,0,0,.12-.11l.23-28.36a.1.1,0,0,0,0-.08.13.13,0,0,0-.13-.04Z" fill="#91b3fa"/>
            <path id="Trazado_115680" data-name="Trazado 115680" d="M70.85,489.42h0a1.49,1.49,0,0,0,1.26,1.65h46.5a1.5,1.5,0,0,0,1.27-1.65h0a1.5,1.5,0,0,0-1.27-1.66H72.11C71.41,487.76,70.85,488.5,70.85,489.42Z" fill="url(#linear-gradient-55)"/>
            <path id="Trazado_115681" data-name="Trazado 115681" d="M72.14,497l32.92-.24a1.18,1.18,0,0,1,1.3,1h0a1.18,1.18,0,0,1-1.29,1L72.15,499a1.18,1.18,0,0,1-1.3-1h0A1.178,1.178,0,0,1,72.14,497Z" fill="#91b3fa"/>
            <path id="Trazado_115682" data-name="Trazado 115682" d="M70.85,502.19h0a.93.93,0,0,0,.86,1H93.56a.93.93,0,0,0,.86-1v-.61a.92.92,0,0,0-.88-1l-21.85.61a.93.93,0,0,0-.84,1Z" fill="#91b3fa"/>
          </g>
        </g>
        <g id="Grupo_56320" data-name="Grupo 56320">
          <path id="Trazado_115683" data-name="Trazado 115683" d="M55.22,456.61l.97,2.96,1.59-1.92Z" fill="#b5abdb"/>
          <path id="Trazado_115684" data-name="Trazado 115684" d="M68,450.57l-5.72,9.63a.8.8,0,0,1-.5.36.81.81,0,0,1-.61-.1l-9.45-6.11a.33.33,0,0,1-.14-.33.35.35,0,0,1,.25-.25Z" fill="#91b3fa"/>
          <path id="Trazado_115685" data-name="Trazado 115685" d="M55.22,456.61,68,450.57,56.74,457.6l.24.83Z" fill="#b5abdb"/>
          <path id="Trazado_115686" data-name="Trazado 115686" d="M57.65,458.18l-1.46,1.39.55-1.97Z" fill="#b5abdb"/>
        </g>
      </g>
    </g>
  </g>
</svg>
