<svg xmlns="http://www.w3.org/2000/svg" width="101" height="100" viewBox="0 0 101 100">
  <g id="Grupo_55510" data-name="Grupo 55510" transform="translate(-750 -4539)">
    <g id="CF1_iconos_copia" data-name="CF1_iconos  copia" transform="translate(749.659 4538.661)">
      <ellipse id="Elipse_4473" data-name="Elipse 4473" cx="50.5" cy="50" rx="50.5" ry="50" transform="translate(0.341 0.339)" fill="#bbabf5"/>
      <path id="Trazado_111651" data-name="Trazado 111651" d="M43.906,90.346v33.975a49.651,49.651,0,0,1-7.332-2.049q-2.062-.75-4.018-1.674c-.442-.208-.891-.429-1.339-.67q-1.7-.85-3.348-1.841A49.844,49.844,0,0,1,8.17,95.7V90.346a13.472,13.472,0,0,1,9.984-13.024,5.506,5.506,0,0,1,.67-.154,12.587,12.587,0,0,1,1.754-.261c.362,0,.73-.047,1.1-.047h8.745a13.445,13.445,0,0,1,2.856.307l.157.034.462.114h0A13.492,13.492,0,0,1,43.906,90.346Z" transform="translate(-2.284 -25.495)" fill="#2ba1cf"/>
      <path id="Trazado_111652" data-name="Trazado 111652" d="M46.744,90.346v33.975a49.65,49.65,0,0,1-7.332-2.049q-2.062-.75-4.018-1.674c-.442-.208-.891-.429-1.339-.67q-1.7-.85-3.348-1.841A49.958,49.958,0,0,1,16.76,105.512V90.346A13.473,13.473,0,0,1,26.779,77.322a5.486,5.486,0,0,1,.668-.154,12.587,12.587,0,0,1,1.754-.261c.362,0,.73-.047,1.1-.047H33.3a13.445,13.445,0,0,1,2.856.307l.157.034.462.114h0A13.492,13.492,0,0,1,46.744,90.346Z" transform="translate(-5.122 -25.495)" fill="#66baed"/>
      <path id="Trazado_111653" data-name="Trazado 111653" d="M38.889,77.317l-.033.147L34.838,96.213a3.93,3.93,0,0,1-3.817,3.114h-.067a3.93,3.93,0,0,1-3.817-3.114L23.12,77.464V77.31Z" transform="translate(-7.224 -25.643)" fill="#f2f0ec"/>
      <path id="Trazado_111654" data-name="Trazado 111654" d="M30.935,81.432,24.868,84.78,23,76.223,26.79,74" transform="translate(-7.184 -24.55)" fill="#d8d5d0"/>
      <path id="Trazado_111655" data-name="Trazado 111655" d="M34.85,81.432l6.073,3.348L42.765,76.2l-3.8-2.2" transform="translate(-11.099 -24.55)" fill="#d8d5d0"/>
      <path id="Trazado_111656" data-name="Trazado 111656" d="M7.79,53.031V32.709A18.079,18.079,0,0,1,25.909,14.59a18.843,18.843,0,0,1,2.826.214,18.126,18.126,0,0,1,15.3,17.9V53.031" transform="translate(-2.158 -4.92)" fill="#cc7a3b"/>
      <path id="Trazado_111657" data-name="Trazado 111657" d="M15.243,33.5c0,7.191,4.212,15.514,6.529,19.532H7.79V32.709A18.079,18.079,0,0,1,25.782,14.59C20.211,14.731,15.243,23.663,15.243,33.5Z" transform="translate(-2.158 -4.92)" fill="#a35418"/>
      <path id="Trazado_111658" data-name="Trazado 111658" d="M37.252,69.11v5.9a4.814,4.814,0,0,1-9.622,0v-5.9Z" transform="translate(-8.714 -22.934)" fill="#eab599"/>
      <path id="Trazado_111659" data-name="Trazado 111659" d="M38.7,77.36v.375a4.808,4.808,0,0,1-3.348,4.593A4.8,4.8,0,0,1,32,78.364h.971a16.592,16.592,0,0,0,5.725-1Z" transform="translate(-10.158 -25.66)" fill="#f6caae"/>
      <path id="Trazado_111660" data-name="Trazado 111660" d="M10.856,52.459A4.466,4.466,0,0,1,7.1,56.872a4.137,4.137,0,0,1-.716.06,4.473,4.473,0,0,1,0-8.932,4.139,4.139,0,0,1,.716.06,4.473,4.473,0,0,1,3.756,4.4Z" transform="translate(-0.297 -15.959)" fill="#f6caae"/>
      <path id="Trazado_111661" data-name="Trazado 111661" d="M13.006,52.483A4.466,4.466,0,0,1,9.249,56.9a16.82,16.82,0,0,1,0-8.825A4.473,4.473,0,0,1,13.006,52.483Z" transform="translate(-2.446 -15.982)" fill="#eab599"/>
      <path id="Trazado_111662" data-name="Trazado 111662" d="M9.281,53.87a1.6,1.6,0,1,1-1.6-1.6,1.6,1.6,0,0,1,1.6,1.6Z" transform="translate(-1.593 -17.37)" fill="#eab599"/>
      <path id="Trazado_111663" data-name="Trazado 111663" d="M38.123,41.131v15.4a16.5,16.5,0,0,1-8.812,4.386h-.08A16.653,16.653,0,0,1,10,44.465V38.131a16.606,16.606,0,0,1,.174-2.39,10.553,10.553,0,0,0,13.251-.85,9.374,9.374,0,0,0,2.5-3.89,10.968,10.968,0,0,0,3.435,6.857,12.274,12.274,0,0,0,8.765,3.274Z" transform="translate(-2.889 -10.342)" fill="#eab599"/>
      <path id="Trazado_111664" data-name="Trazado 111664" d="M40.674,41.131v15.4a16.5,16.5,0,0,1-8.812,4.386h-.08A16.639,16.639,0,0,1,17.72,44.479v-6.85a10.439,10.439,0,0,0,8.229-2.739A9.414,9.414,0,0,0,28.474,31a10.968,10.968,0,0,0,3.435,6.857,12.274,12.274,0,0,0,8.765,3.274Z" transform="translate(-5.439 -10.342)" fill="#f6caae"/>
      <path id="Trazado_111665" data-name="Trazado 111665" d="M45.491,47.8A2.765,2.765,0,0,0,40,47.8" transform="translate(-12.801 -15.089)" fill="#eab599"/>
      <path id="Trazado_111666" data-name="Trazado 111666" d="M27.041,47.635a2.765,2.765,0,1,0-5.531,0" transform="translate(-6.692 -14.925)" fill="#eab599"/>
      <path id="Trazado_111667" data-name="Trazado 111667" d="M26.6,49.855A1.888,1.888,0,1,1,24.708,48,1.888,1.888,0,0,1,26.6,49.855Z" transform="translate(-7.125 -15.959)" fill="#3d4159"/>
      <path id="Trazado_111668" data-name="Trazado 111668" d="M45.027,49.855A1.888,1.888,0,1,1,43.138,48a1.888,1.888,0,0,1,1.888,1.855Z" transform="translate(-13.214 -15.959)" fill="#3d4159"/>
      <path id="Trazado_111669" data-name="Trazado 111669" d="M35.364,57.065h-3.8a.817.817,0,1,1,0-1.627h3.776a.817.817,0,0,1,0,1.627Z" transform="translate(-9.718 -18.416)" fill="#eab599"/>
      <path id="Trazado_111670" data-name="Trazado 111670" d="M32.637,64.341A8.4,8.4,0,0,1,28.579,63.3a.743.743,0,1,1,.71-1.3,6.91,6.91,0,0,0,6.7,0,.743.743,0,0,1,.7,1.3A8.4,8.4,0,0,1,32.637,64.341Z" transform="translate(-8.879 -20.542)" fill="#eab599"/>
      <path id="Trazado_111671" data-name="Trazado 111671" d="M27.08,49.87a.81.81,0,1,1-.8-.81.81.81,0,0,1,.8.81Z" transform="translate(-7.997 -16.309)" fill="#fff"/>
      <path id="Trazado_111672" data-name="Trazado 111672" d="M45.66,49.87a.81.81,0,1,1-.81-.81.81.81,0,0,1,.81.81Z" transform="translate(-14.136 -16.309)" fill="#fff"/>
      <path id="Trazado_111673" data-name="Trazado 111673" d="M49.721,56.616a2.069,2.069,0,1,1-.606-1.47,2.076,2.076,0,0,1,.606,1.47Z" transform="translate(-14.641 -18.12)" fill="#eab599"/>
      <path id="Trazado_111674" data-name="Trazado 111674" d="M22.081,56.616a2.069,2.069,0,1,1-.613-1.477A2.076,2.076,0,0,1,22.081,56.616Z" transform="translate(-5.509 -18.12)" fill="#eab599"/>
      <path id="Trazado_111675" data-name="Trazado 111675" d="M125.243,89.418v6.227A49.732,49.732,0,0,1,87.88,124.13h0V89.418a14.1,14.1,0,0,1,12.95-14.061c.382,0,.763-.047,1.152-.047h9.187a14.061,14.061,0,0,1,14.108,14.1Z" transform="translate(-28.621 -24.982)" fill="#bfd5de"/>
      <path id="Trazado_111676" data-name="Trazado 111676" d="M128.769,89.422v6.227a49.945,49.945,0,0,1-24.192,24.433,48.879,48.879,0,0,1-6.026,2.344v-33a14.1,14.1,0,0,1,14.1-14.1h2.009A14.1,14.1,0,0,1,128.769,89.422Z" transform="translate(-32.146 -24.986)" fill="#d5fff9"/>
      <path id="Trazado_111677" data-name="Trazado 111677" d="M90.518,49.777a4.687,4.687,0,0,1-3.93,4.627,4.594,4.594,0,0,1-.75.06,4.687,4.687,0,0,1,0-9.374,5.484,5.484,0,0,1,.75.06,4.687,4.687,0,0,1,3.93,4.627Z" transform="translate(-26.397 -14.997)" fill="#d3a489"/>
      <path id="Trazado_111678" data-name="Trazado 111678" d="M117.673,82.92,113.883,89,110.1,82.927" transform="translate(-35.963 -27.497)" fill="#ef2a66"/>
      <path id="Trazado_111679" data-name="Trazado 111679" d="M118.334,108.359l-5.1,6.421-5.089-6.421,5.1-18.749Z" transform="translate(-35.318 -29.707)" fill="#ef2a66"/>
      <path id="Trazado_111680" data-name="Trazado 111680" d="M92.893,49.813a4.687,4.687,0,0,1-3.93,4.627,17.449,17.449,0,0,1,0-9.24,4.687,4.687,0,0,1,3.93,4.613Z" transform="translate(-28.773 -15.034)" fill="#bf8e75"/>
      <path id="Trazado_111681" data-name="Trazado 111681" d="M89,51.267A1.674,1.674,0,1,1,87.324,49.6,1.674,1.674,0,0,1,89,51.267Z" transform="translate(-27.884 -16.488)" fill="#bf8e75"/>
      <path id="Trazado_111682" data-name="Trazado 111682" d="M111.666,80.1l-6.348,3.529-1.928-8.986,3.944-2.323" transform="translate(-33.746 -23.995)" fill="#bfd5de"/>
      <path id="Trazado_111683" data-name="Trazado 111683" d="M115.75,80.1l6.348,3.529,1.935-8.986-3.944-2.323" transform="translate(-37.83 -23.995)" fill="#bfd5de"/>
      <path id="Trazado_111684" data-name="Trazado 111684" d="M136.37,49.777a4.687,4.687,0,1,0,4.687-4.687,5.569,5.569,0,0,0-.75.06,4.687,4.687,0,0,0-3.937,4.627Z" transform="translate(-44.643 -14.997)" fill="#d3a489"/>
      <g id="Grupo_55477" data-name="Grupo 55477" transform="translate(60.511 14.83)">
        <path id="Trazado_111685" data-name="Trazado 111685" d="M136.37,49.81a4.687,4.687,0,0,0,3.924,4.62,17.449,17.449,0,0,0,0-9.24,4.687,4.687,0,0,0-3.924,4.62Z" transform="translate(-105.154 -29.861)" fill="#bf8e75"/>
        <path id="Trazado_111686" data-name="Trazado 111686" d="M144.2,51.267a1.674,1.674,0,1,1-1.674-1.667,1.674,1.674,0,0,1,1.674,1.667Z" transform="translate(-106.634 -31.318)" fill="#bf8e75"/>
        <path id="Trazado_111687" data-name="Trazado 111687" d="M124.569,39.762a17.409,17.409,0,0,1-14.61,17.155,16.74,16.74,0,0,1-2.8.228A17.409,17.409,0,0,1,89.75,39.735c0-4.553,1.58-11.383,4.439-14.483,3.181-3.455,7.908-2.926,12.97-2.926a17.376,17.376,0,0,1,17.409,17.409Z" transform="translate(-89.75 -22.297)" fill="#bf8e75"/>
        <path id="Trazado_111688" data-name="Trazado 111688" d="M118.311,67.21v6.174a5.035,5.035,0,0,1-3.529,4.808,5.229,5.229,0,0,1-1.493.221,5.029,5.029,0,0,1-5.029-5.029V67.21Z" transform="translate(-95.866 -37.136)" fill="#bf8e75"/>
      </g>
      <path id="Trazado_111689" data-name="Trazado 111689" d="M119.8,75.84v.4a5.035,5.035,0,0,1-3.529,4.808,5.022,5.022,0,0,1-3.5-4.151h1.011a17.455,17.455,0,0,0,2.792-.221A16.846,16.846,0,0,0,119.8,75.84Z" transform="translate(-36.845 -25.158)" fill="#d3a489"/>
      <path id="Trazado_111690" data-name="Trazado 111690" d="M127.324,39.885a17.409,17.409,0,0,1-14.61,17.155,17.409,17.409,0,0,1,0-34.37,17.409,17.409,0,0,1,14.53,15.454C127.3,38.72,127.324,39.3,127.324,39.885Z" transform="translate(-31.995 -7.59)" fill="#d3a489"/>
      <path id="Trazado_111691" data-name="Trazado 111691" d="M113.515,59.9a8.785,8.785,0,0,1-4.238-1.091.777.777,0,0,1,.743-1.339,7.225,7.225,0,0,0,7,0,.777.777,0,1,1,.743,1.339A8.792,8.792,0,0,1,113.515,59.9Z" transform="translate(-35.594 -19.03)" fill="#bf8e75"/>
      <path id="Trazado_111692" data-name="Trazado 111692" d="M108.238,45.9a2.009,2.009,0,1,1-2.009-1.975,1.975,1.975,0,0,1,2.009,1.975Z" transform="translate(-34.02 -14.611)" fill="#3d4159"/>
      <path id="Trazado_111693" data-name="Trazado 111693" d="M125.241,45.9a1.975,1.975,0,1,1-.59-1.409A1.975,1.975,0,0,1,125.241,45.9Z" transform="translate(-39.66 -14.611)" fill="#3d4159"/>
      <path id="Trazado_111694" data-name="Trazado 111694" d="M108.777,45.924a.844.844,0,1,1-.844-.844A.844.844,0,0,1,108.777,45.924Z" transform="translate(-34.968 -14.994)" fill="#fff"/>
      <path id="Trazado_111695" data-name="Trazado 111695" d="M125.9,45.924a.844.844,0,1,1-.844-.844A.844.844,0,0,1,125.9,45.924Z" transform="translate(-40.625 -14.994)" fill="#fff"/>
      <path id="Trazado_111696" data-name="Trazado 111696" d="M116.331,53.451H112.38a.85.85,0,1,1,0-1.7h3.951a.85.85,0,1,1,0,1.7Z" transform="translate(-36.435 -17.198)" fill="#bf8e75"/>
      <path id="Trazado_111697" data-name="Trazado 111697" d="M124.31,95.69H131.9v2.323H124.31Z" transform="translate(-40.658 -31.716)" fill="#bfd5de"/>
      <path id="Trazado_111698" data-name="Trazado 111698" d="M114.23,14.964a10.553,10.553,0,0,1,9.776,10l.054,1h3.033l1.634,10.867,3.957-1.225-.529-10.68a10.553,10.553,0,0,0-10.58-10.044Z" transform="translate(-37.327 -5.019)" fill="#2a2f4f"/>
      <path id="Trazado_111699" data-name="Trazado 111699" d="M132.986,8.67A10.755,10.755,0,1,1,117.78,23.883Z" transform="translate(-38.5 -2.964)" fill="#3d4159"/>
      <path id="Trazado_111700" data-name="Trazado 111700" d="M108.509,25.938h-13.2L93.677,36.806,89.72,35.58l.529-10.646a10.553,10.553,0,0,1,10.58-10.044l19.063.074,2.518,4.533" transform="translate(-29.229 -5.019)" fill="#3d4159"/>
      <path id="Trazado_111701" data-name="Trazado 111701" d="M108.174,14.964a10.559,10.559,0,0,0-9.783,10l-.047,1H95.311L93.677,36.806,89.72,35.58l.529-10.646a10.553,10.553,0,0,1,10.58-10.044Z" transform="translate(-29.229 -5.019)" fill="#2a2f4f"/>
      <path id="Trazado_111702" data-name="Trazado 111702" d="M86.734,128.753v3.73a49.884,49.884,0,0,1-42.184,0v-3.73a15.9,15.9,0,0,1,11.785-15.36c.248-.067.5-.127.75-.181a16.217,16.217,0,0,1,2.069-.308c.429-.033.864-.054,1.3-.054H70.831a15.6,15.6,0,0,1,3.348.362l.187.04.542.134h0a15.648,15.648,0,0,1,4.942,2.29,15.876,15.876,0,0,1,6.883,13.077Z" transform="translate(-14.304 -37.386)" fill="#12263f"/>
      <path id="Trazado_111703" data-name="Trazado 111703" d="M80.788,113.39l-.04.181-5.069,23.59-.783.074c-.375,0-.75.047-1.125.06-.763.04-1.533.054-2.31.054s-1.587,0-2.37-.054l-1.065-.067-.8-.054-5.069-23.59-.04-.181Z" transform="translate(-20.11 -37.564)" fill="#66baed"/>
      <path id="Trazado_111704" data-name="Trazado 111704" d="M78.227,121.42l-4.265,6.85-4.272-6.85" transform="translate(-22.611 -40.218)" fill="#6c58b8"/>
      <path id="Trazado_111705" data-name="Trazado 111705" d="M77.81,142.388c-.375,0-.75.047-1.125.06-.763.04-1.533.054-2.31.054s-1.587,0-2.37-.054l-1.065-.067,3.435-13.392Z" transform="translate(-23.024 -42.719)" fill="#6c58b8"/>
      <path id="Trazado_111706" data-name="Trazado 111706" d="M71.454,118.258,64.3,122.276,62.12,112.145l4.446-2.625" transform="translate(-20.11 -36.286)" fill="#2ba1cf"/>
      <path id="Trazado_111707" data-name="Trazado 111707" d="M76.06,118.242l7.165,4.018,2.169-10.164-4.446-2.625" transform="translate(-24.716 -36.269)" fill="#2ba1cf"/>
      <path id="Trazado_111708" data-name="Trazado 111708" d="M86.812,127.056h2.277l-3.971,9.655a49.679,49.679,0,0,1-5.6.569l6.97-23.717.054-.174,4.9,1.594Z" transform="translate(-25.859 -37.564)" fill="#415165"/>
      <path id="Trazado_111709" data-name="Trazado 111709" d="M66.645,137.281a49.806,49.806,0,0,1-5.6-.583l-3.957-9.642h2.27L54.72,115l4.875-1.614.054.174Z" transform="translate(-17.665 -37.564)" fill="#415165"/>
      <path id="Trazado_111710" data-name="Trazado 111710" d="M78.93,103.7v6.964a5.678,5.678,0,0,1-4.018,5.424,5.765,5.765,0,0,1-1.681.248,5.671,5.671,0,0,1-5.671-5.671V103.7Z" transform="translate(-21.907 -34.363)" fill="#eab599"/>
      <path id="Trazado_111711" data-name="Trazado 111711" d="M80.608,113.44v.442a5.678,5.678,0,0,1-4.018,5.424,5.678,5.678,0,0,1-3.951-4.687c.382,0,.763.033,1.145.033a19.586,19.586,0,0,0,3.154-.254A19.131,19.131,0,0,0,80.608,113.44Z" transform="translate(-23.586 -37.581)" fill="#f6caae"/>
      <path id="Trazado_111712" data-name="Trazado 111712" d="M47.613,84.056a5.277,5.277,0,0,1-4.434,5.21,5.009,5.009,0,0,1-.843.067,5.276,5.276,0,0,1,0-10.553,5.008,5.008,0,0,1,.844.067,5.276,5.276,0,0,1,4.433,5.209Z" transform="translate(-11.83 -26.129)" fill="#f6caae"/>
      <path id="Trazado_111713" data-name="Trazado 111713" d="M50.289,84.089a5.277,5.277,0,0,1-4.434,5.21,19.833,19.833,0,0,1,0-10.419A5.276,5.276,0,0,1,50.289,84.089Z" transform="translate(-14.506 -26.162)" fill="#eab599"/>
      <path id="Trazado_111714" data-name="Trazado 111714" d="M45.9,85.728a1.888,1.888,0,1,1-1.888-1.888A1.888,1.888,0,0,1,45.9,85.728Z" transform="translate(-13.501 -27.801)" fill="#eab599"/>
      <path id="Trazado_111715" data-name="Trazado 111715" d="M99.31,84.056a5.283,5.283,0,0,0,4.433,5.209,5.008,5.008,0,0,0,.844.067,5.276,5.276,0,1,0,0-10.553,5.008,5.008,0,0,0-.844.067A5.283,5.283,0,0,0,99.31,84.056Z" transform="translate(-32.398 -26.129)" fill="#f6caae"/>
      <path id="Trazado_111716" data-name="Trazado 111716" d="M99.31,84.089a5.283,5.283,0,0,0,4.433,5.209,19.833,19.833,0,0,0,0-10.419A5.283,5.283,0,0,0,99.31,84.089Z" transform="translate(-32.398 -26.162)" fill="#eab599"/>
      <path id="Trazado_111717" data-name="Trazado 111717" d="M86.015,61.626V69.1A19.632,19.632,0,0,1,69.53,88.476h-.094a20.005,20.005,0,0,1-3.06.234A19.632,19.632,0,0,1,46.75,69.1V61.626A19.606,19.606,0,0,1,66.376,42h0a19.92,19.92,0,0,1,3.053.234A19.639,19.639,0,0,1,86.015,61.626Z" transform="translate(-15.031 -13.976)" fill="#eab599"/>
      <path id="Trazado_111718" data-name="Trazado 111718" d="M108.136,85.728a1.888,1.888,0,1,1-1.888-1.888A1.888,1.888,0,0,1,108.136,85.728Z" transform="translate(-34.066 -27.801)" fill="#eab599"/>
      <path id="Trazado_111719" data-name="Trazado 111719" d="M89.025,61.728V69.2A19.626,19.626,0,0,1,72.546,88.579h-.094A19.639,19.639,0,0,1,55.88,69.161V61.728A19.639,19.639,0,0,1,72.452,42.31,19.632,19.632,0,0,1,89.025,61.728Z" transform="translate(-18.048 -14.079)" fill="#f6caae"/>
      <path id="Trazado_111720" data-name="Trazado 111720" d="M67.619,79.67a2.223,2.223,0,1,1-.649-1.576A2.23,2.23,0,0,1,67.619,79.67Z" transform="translate(-20.453 -25.686)" fill="#3d4159"/>
      <path id="Trazado_111721" data-name="Trazado 111721" d="M86.8,79.67a2.223,2.223,0,1,1-.649-1.576A2.23,2.23,0,0,1,86.8,79.67Z" transform="translate(-26.791 -25.686)" fill="#3d4159"/>
      <path id="Trazado_111722" data-name="Trazado 111722" d="M68.2,79.668a.958.958,0,1,1-.452-.9.958.958,0,0,1,.452.9Z" transform="translate(-21.486 -26.08)" fill="#fff"/>
      <path id="Trazado_111723" data-name="Trazado 111723" d="M87.505,79.707a.951.951,0,1,1-.283-.684A.957.957,0,0,1,87.505,79.707Z" transform="translate(-27.864 -26.119)" fill="#fff"/>
      <path id="Trazado_111724" data-name="Trazado 111724" d="M76.677,86.89H72.225a.964.964,0,1,1,0-1.922h4.453a.964.964,0,1,1,0,1.922Z" transform="translate(-23.103 -28.173)" fill="#eab599"/>
      <path id="Trazado_111725" data-name="Trazado 111725" d="M73.483,95.493A9.917,9.917,0,0,1,68.7,94.26a.873.873,0,1,1,.837-1.533,8.149,8.149,0,0,0,7.894,0,.873.873,0,1,1,.837,1.533A9.9,9.9,0,0,1,73.483,95.493Z" transform="translate(-22.132 -30.702)" fill="#eab599"/>
      <path id="Trazado_111726" data-name="Trazado 111726" d="M86.015,53.379v7.653H82.359V55.006L55.984,50.138,50.4,49.1V61.032H46.75V53.379a15.8,15.8,0,0,1,15.8-15.809h8.276A15.809,15.809,0,0,1,86.015,53.379Z" transform="translate(-15.031 -12.513)" fill="#2a2f4f"/>
      <path id="Trazado_111727" data-name="Trazado 111727" d="M90.571,53.386v7.653H86.915V55.013L60.54,50.145A15.8,15.8,0,0,1,75.385,37.59a15.809,15.809,0,0,1,15.186,15.8Z" transform="translate(-19.588 -12.519)" fill="#3d4159"/>
    </g>
  </g>
</svg>
