<svg xmlns="http://www.w3.org/2000/svg" width="100" height="100" viewBox="0 0 100 100">
  <g id="Grupo_55511" data-name="Grupo 55511" transform="translate(-751 -4699)">
    <g id="CF1_iconos_copia_2" data-name="CF1_iconos  copia 2" transform="translate(751 4698.661)">
      <circle id="Elipse_4462" data-name="Elipse 4462" cx="50" cy="50" r="50" transform="translate(0 0.339)" fill="#bbabf5"/>
      <g id="_025---Analysis" data-name="025---Analysis" transform="translate(10.385 9.389)">
        <path id="Shape" d="M56.794,61.1A22.826,22.826,0,1,0,34.081,70.08C34.389,70.141,32.581,70.8,56.794,61.1Z" transform="translate(-15.513 -17.692)" fill="#f3d55b"/>
        <path id="Shape-2" data-name="Shape" d="M105.905,105.1v7.138a1.426,1.426,0,0,1-1.426,1.426H74.522L68.81,99.4Z" transform="translate(-33.121 -42.331)" fill="#14a085"/>
        <path id="Shape-3" data-name="Shape" d="M70.94,76.944h44.233a1.426,1.426,0,0,0,1.426-1.426V28.439L102.33,14.17H72.366A1.426,1.426,0,0,0,70.94,15.6Z" transform="translate(-33.825 -14.17)" fill="#81ccb8"/>
        <path id="Shape-4" data-name="Shape" d="M117.82,14.17V27.013a1.426,1.426,0,0,0,1.46,1.426h12.843Z" transform="translate(-49.314 -14.17)" fill="#26b99a"/>
        <path id="Shape-5" data-name="Shape" d="M26.012,58.092,18.593,62.4A22.873,22.873,0,0,1,22.216,34.83L28.282,40.9a14.269,14.269,0,0,0-2.27,17.2Z" transform="translate(-15.52 -20.996)" fill="#26b99a"/>
        <path id="Shape-6" data-name="Shape" d="M41.661,24.82v8.564a14.209,14.209,0,0,0-10.084,4.178L25.51,31.5A22.833,22.833,0,0,1,41.661,24.82Z" transform="translate(-18.814 -17.689)" fill="#f0c419"/>
        <path id="Shape-7" data-name="Shape" d="M69.41,36.237l-7.419,4.279A14.262,14.262,0,0,0,49.63,33.384V24.82A22.833,22.833,0,0,1,69.41,36.237Z" transform="translate(-26.784 -17.689)" fill="#3b97d3"/>
        <path id="Shape-8" data-name="Shape" d="M73.559,66.719c-.583-2.1-3.448-3.823-7.3-4.54a14.269,14.269,0,0,0,1.225-16.07L74.9,41.83a22.833,22.833,0,0,1-1.346,24.889Z" transform="translate(-32.278 -23.309)" fill="#ff5364"/>
        <path id="Shape-9" data-name="Shape" d="M46.107,63.974c-6.944,0-8.772-7.131-5.7-7.131a1.426,1.426,0,0,1,1.426,1.426c0,1.547,1.962,2.852,4.279,2.852s4.265-1.306,4.265-2.852-1.962-2.852-4.285-2.852c-3.91,0-7.1-2.565-7.1-5.712S42.177,44,46.107,44c6.944,0,8.778,7.131,5.712,7.131A1.426,1.426,0,0,1,50.372,49.7c0-1.547-1.962-2.852-4.285-2.852s-4.279,1.339-4.279,2.852,1.962,2.852,4.279,2.852c3.937,0,7.138,2.565,7.138,5.712S50.044,63.974,46.107,63.974Z" transform="translate(-23.261 -24.026)" fill="#e57e25"/>
        <path id="Shape-10" data-name="Shape" d="M48.926,64.574A1.433,1.433,0,0,1,47.5,63.148V43.341a1.433,1.433,0,0,1,2.859,0V63.148A1.433,1.433,0,0,1,48.926,64.574Z" transform="translate(-26.08 -23.367)" fill="#e57e25"/>
        <path id="Shape-11" data-name="Shape" d="M98.063,31.939H80.941a1.433,1.433,0,0,1,0-2.859H98.063a1.433,1.433,0,0,1,0,2.859Z" transform="translate(-36.688 -19.096)" fill="#fff"/>
        <path id="Shape-12" data-name="Shape" d="M98.018,23.412H80.9a1.426,1.426,0,0,1,0-2.852H98.018a1.426,1.426,0,1,1,0,2.852Z" transform="translate(-36.643 -16.281)" fill="#fff"/>
        <path id="Shape-13" data-name="Shape" d="M100.849,40.462H89.466a1.426,1.426,0,0,1,0-2.852h11.383a1.426,1.426,0,0,1,0,2.852Z" transform="translate(-39.475 -21.915)" fill="#fff"/>
        <path id="Shape-14" data-name="Shape" d="M91.546,67.537a1.426,1.426,0,0,1-1.1-2.337l7.138-8.564a1.426,1.426,0,0,1,2.1-.094l1.734,1.7,4.687-5.892a1.426,1.426,0,0,1,1.038-.529,1.406,1.406,0,0,1,1.085.415l3.12,3.114,3.294-4.393a1.428,1.428,0,1,1,2.283,1.714l-4.279,5.7a1.413,1.413,0,0,1-1.045.569,1.393,1.393,0,0,1-1.1-.415l-3.154-3.154-4.687,5.892a1.42,1.42,0,0,1-2.123.114l-1.748-1.748L92.658,67a1.433,1.433,0,0,1-1.1.516Z" transform="translate(-40.162 -26.137)" fill="#e64c3c"/>
        <g id="Grupo_55461" data-name="Grupo 55461" transform="translate(47.112 44.223)">
          <path id="Shape-15" data-name="Shape" d="M90.142,94.489H87.3a1.426,1.426,0,1,1,0-2.852h2.852V83.079H87.3a1.433,1.433,0,0,1,0-2.859h2.852A2.859,2.859,0,0,1,93,83.079v8.557a2.852,2.852,0,0,1-2.859,2.852Z" transform="translate(-85.87 -80.217)" fill="#fff"/>
          <path id="Shape-16" data-name="Shape" d="M99.381,91.592h-5.7a1.426,1.426,0,1,1,0-2.852h5.7a1.426,1.426,0,1,1,0,2.852Z" transform="translate(-87.978 -83.032)" fill="#fff"/>
          <path id="Shape-17" data-name="Shape" d="M121.477,83.077H108.641a1.433,1.433,0,0,1,0-2.859h12.836a1.433,1.433,0,1,1,0,2.859Z" transform="translate(-92.953 -80.215)" fill="#fff"/>
          <path id="Shape-18" data-name="Shape" d="M121.432,100.122H108.6a1.426,1.426,0,0,1,0-2.852h12.836a1.426,1.426,0,1,1,0,2.852Z" transform="translate(-92.908 -85.85)" fill="#fff"/>
          <path id="Shape-19" data-name="Shape" d="M121.432,91.592H108.6a1.426,1.426,0,0,1,0-2.852h12.836a1.426,1.426,0,0,1,0,2.852Z" transform="translate(-92.908 -83.032)" fill="#fff"/>
        </g>
        <path id="Shape-20" data-name="Shape" d="M115.8,66.131H91.546A1.426,1.426,0,0,1,90.12,64.7V47.556a1.426,1.426,0,0,1,2.852,0v15.7H115.8a1.426,1.426,0,1,1,0,2.852Z" transform="translate(-40.162 -24.73)" fill="#33907c"/>
        <path id="Shape-21" data-name="Shape" d="M56.79,76.628h0c-.583-2.1-3.448-3.823-7.3-4.54a21.1,21.1,0,0,0-4.018-.368c-5.879,0-10.713,2.223-11.343,5.082-.1.509-.074-.783-.074,14.731-7.613-3.06-18.548-.261-18.548,4.446v14.269c0,3.154,5.109,5.712,11.417,5.712,6.194,0,11.229-2.471,11.383-5.537,7.245,2.906,18.568.462,18.568-4.453,0-31.069.047-28.719-.121-29.321Z" transform="translate(-15.51 -33.185)" fill="#f3d55b"/>
        <path id="Shape-22" data-name="Shape" d="M38.38,108.094v7.131c-.167,3.067-5.2,5.538-11.383,5.538-6.308,0-11.417-2.551-11.417-5.7V107.92c0,3.154,5.109,5.712,11.417,5.712C33.19,113.632,38.226,111.161,38.38,108.094Z" transform="translate(-15.533 -45.146)" fill="#f0c419"/>
        <path id="Shape-23" data-name="Shape" d="M38.38,105.1a.5.5,0,0,1,0,.174c-.167,3.067-5.2,5.537-11.383,5.537-6.308,0-11.417-2.558-11.417-5.712,0-4.647,10.9-7.519,18.548-4.446C36.712,101.688,38.38,103.3,38.38,105.1Z" transform="translate(-15.533 -42.323)" fill="#f9eab0"/>
        <path id="Shape-24" data-name="Shape" d="M68.178,112.19v7.131c0,3.154-5.109,5.7-11.417,5.7a19.585,19.585,0,0,1-7.151-1.252c.04-.147,0-.5,0-7.138a17.884,17.884,0,0,0,5.236,1.172,1.654,1.654,0,0,0,.475.087h1.426C63.069,117.895,68.178,115.337,68.178,112.19Z" transform="translate(-26.777 -46.557)" fill="#f0c419"/>
        <path id="Shape-25" data-name="Shape" d="M66.073,90.88v7.131c0,1.614-1.339,3.08-3.515,4.111a20.576,20.576,0,0,1-15.039.341c0-2.3-2.136-3.77-4.279-4.62V90.88c0,3.154,5.109,5.7,11.383,5.7S66.073,94.034,66.073,90.88Z" transform="translate(-24.672 -39.516)" fill="#f0c419"/>
        <path id="Shape-26" data-name="Shape" d="M35.8,84.924a1.281,1.281,0,0,0-.2-.047A22.846,22.846,0,0,1,20.1,73.889l7.419-4.279a14.349,14.349,0,0,0,8.149,6.508c-.1.482-.074-.1-.074,7.761A3.1,3.1,0,0,0,35.8,84.924Z" transform="translate(-17.027 -32.488)" fill="#955ba5"/>
        <path id="Shape-27" data-name="Shape" d="M66.09,77.4c0,3.154-5.109,5.712-11.417,5.712S43.29,80.559,43.29,77.4a3.227,3.227,0,0,1,.074-.623c.616-2.859,5.464-5.082,11.343-5.082a21.1,21.1,0,0,1,4.018.368C61.724,72.637,66.09,74.378,66.09,77.4Z" transform="translate(-24.689 -33.178)" fill="#f9eab0"/>
      </g>
    </g>
  </g>
</svg>
