<svg xmlns="http://www.w3.org/2000/svg" width="295" height="549.39" viewBox="0 0 295 549.39">
  <g id="Grupo_56929" data-name="Grupo 56929" transform="translate(-1125 -5900.705)">
    <rect id="Rectángulo_6716" data-name="Rectángulo 6716" width="295" height="549" rx="13" transform="translate(1125 5900.705)" fill="#fee7ee"/>
    <g id="CF1_tarejta_4_copia" data-name="CF1_tarejta 4 copia" transform="translate(1125 5858.615)">
      <rect id="Rectángulo_6710" data-name="Rectángulo 6710" width="295" height="19.08" transform="translate(0 572.4)" fill="#472ea6"/>
      <g id="Grupo_56372" data-name="Grupo 56372">
        <path id="Trazado_115865" data-name="Trazado 115865" d="M95.29,423.06a2.71,2.71,0,0,1-2.71-2.71,14.29,14.29,0,0,1,14.28-14.28h27.65a2.71,2.71,0,1,1,0,5.42H106.86A8.87,8.87,0,0,0,98,420.35,2.71,2.71,0,0,1,95.29,423.06Z" fill="#ffb957"/>
        <path id="Trazado_115866" data-name="Trazado 115866" d="M150.22,396.09H138.08a6.82,6.82,0,0,0-6.82,6.82V415l3.25,3.25h19.28l3.26-3.25V402.91a6.82,6.82,0,0,0-6.83-6.82Z" fill="#f3e8d2"/>
        <path id="Trazado_115867" data-name="Trazado 115867" d="M157.05,415H131.26v6.51l12.89,6.5,12.9-6.5Z" fill="#e4d5bd"/>
        <path id="Trazado_115868" data-name="Trazado 115868" d="M164.18,436.2H124.13l-3.26-3.2v-4.24a7.23,7.23,0,0,1,7.24-7.23H160.2a7.23,7.23,0,0,1,7.23,7.23V433Z" fill="#ffe17a"/>
        <path id="Trazado_115869" data-name="Trazado 115869" d="M120.87,439.46,144.15,446l23.28-6.51V433H120.87Z" fill="#f8ce58"/>
        <path id="Trazado_115870" data-name="Trazado 115870" d="M185.81,572.15H102.49C92,572.15,92,560.68,92,560.68l10.64-111.41a10.84,10.84,0,0,1,10.79-9.81h61.5a10.85,10.85,0,0,1,10.8,9.81l10.64,111.41S196.34,572.15,185.81,572.15Z" fill="#fd8f25"/>
        <path id="Trazado_115871" data-name="Trazado 115871" d="M196.34,560.68a10.86,10.86,0,0,1-10.53,8.22H102.49A10.84,10.84,0,0,1,92,560.68l-.28,2.85a10.85,10.85,0,0,0,10.8,11.88h83.32a10.85,10.85,0,0,0,10.8-11.88Z" fill="#be6b1c"/>
        <path id="Trazado_115872" data-name="Trazado 115872" d="M167.32,502.34c-1.12-17.16-11.07-30.58-23.17-30.58s-22,13.32-23.15,30.38c-.08,1.13,0,32.91,23.15,32.91S167.39,503.41,167.32,502.34Z" fill="#f3e8d2"/>
        <path id="Trazado_115873" data-name="Trazado 115873" d="M144.15,532.92c-12.1,0-22-13.42-23.17-30.58-.07,1.07-.11,2.16-.11,3.26,0,18.68,10.43,33.83,23.28,33.83s23.28-15.15,23.28-33.83a31.985,31.985,0,0,0-.11-3.26C166.19,519.5,156.25,532.92,144.15,532.92Z" fill="#e4d5bd"/>
      </g>
      <g id="Grupo_56375" data-name="Grupo 56375">
        <rect id="Rectángulo_6711" data-name="Rectángulo 6711" width="38.8" height="4.85" transform="translate(69.7 428.72)" fill="#949bb4"/>
        <rect id="Rectángulo_6712" data-name="Rectángulo 6712" width="9.7" height="14.55" transform="translate(60 438.42)" fill="#7f8398"/>
        <g id="Grupo_56373" data-name="Grupo 56373">
          <path id="Trazado_115874" data-name="Trazado 115874" d="M60,440.84h9.7a2.42,2.42,0,0,0,2.43-2.42v-9.7a2.43,2.43,0,0,0-2.43-2.43H60a2.42,2.42,0,0,0-2.42,2.43v9.7A2.42,2.42,0,0,0,60,440.84Z" fill="#aeb8d1"/>
          <path id="Trazado_115875" data-name="Trazado 115875" d="M113.36,436h-2.43a4.85,4.85,0,0,1-4.85-4.85h0a4.85,4.85,0,0,1,4.85-4.85h2.43a2.42,2.42,0,0,1,2.42,2.43v4.85a2.42,2.42,0,0,1-2.42,2.42Z" fill="#aeb8d1"/>
        </g>
        <path id="Trazado_115876" data-name="Trazado 115876" d="M31.68,468.7a7.33,7.33,0,0,1,6.3-3.61H91.73A7.33,7.33,0,0,1,98,468.7c8,13.52,12.9,31.91,12.9,52.18S106,559.54,98,573.06a7.32,7.32,0,0,1-6.3,3.6H38a7.32,7.32,0,0,1-6.3-3.6c-8-13.52-12.91-31.92-12.91-52.18S23.69,482.22,31.68,468.7Z" fill="#6c58b8"/>
        <path id="Trazado_115877" data-name="Trazado 115877" d="M91.53,571.81A4.85,4.85,0,0,0,86.68,567H73.53a24.12,24.12,0,0,1-23.26-17.38c-2.56-9-4.82-21.68-4.82-38.4,0-17.38,2.49-33.35,6.64-46.09H38a7.34,7.34,0,0,0-6.3,3.6c-8,13.53-12.91,31.92-12.91,52.19s4.92,38.66,12.91,52.18a7.32,7.32,0,0,0,6.3,3.6H86.7a4.85,4.85,0,0,0,4.85-4.85Z" fill="#472ea6"/>
        <path id="Trazado_115878" data-name="Trazado 115878" d="M77,450.54H52.73a4.85,4.85,0,0,0-4.85,4.85v9.7H81.83v-9.7A4.85,4.85,0,0,0,77,450.54Z" fill="#aeb8d1"/>
        <g id="Grupo_56374" data-name="Grupo 56374">
          <path id="Trazado_115879" data-name="Trazado 115879" d="M64.85,450.54H52.73a4.85,4.85,0,0,0-4.85,4.85v9.7H60v-9.7a4.85,4.85,0,0,1,4.85-4.85Z" fill="#949bb4"/>
          <path id="Trazado_115880" data-name="Trazado 115880" d="M64.85,438.42v-9.7a2.43,2.43,0,0,1,2.43-2.43H60a2.42,2.42,0,0,0-2.42,2.43v9.7A2.42,2.42,0,0,0,60,440.84h7.28a2.42,2.42,0,0,1-2.43-2.42Z" fill="#949bb4"/>
        </g>
      </g>
      <g id="Grupo_56376" data-name="Grupo 56376">
        <path id="Trazado_115881" data-name="Trazado 115881" d="M232.48,422.07h9.59v24.16h-9.59Z" fill="#e1dde1"/>
        <path id="Trazado_115882" data-name="Trazado 115882" d="M246.75,457.72H227.58V445a2.7,2.7,0,0,1,2.71-2.7h13.76a2.7,2.7,0,0,1,2.7,2.7Z" fill="#5f98d6"/>
        <path id="Trazado_115883" data-name="Trazado 115883" d="M237.17,442.33v15.39h9.58V445a2.7,2.7,0,0,0-2.7-2.7Z" fill="#3c86cf"/>
        <path id="Trazado_115884" data-name="Trazado 115884" d="M219.92,473V457.64a3.81,3.81,0,0,1,3.81-3.81h26.88a3.82,3.82,0,0,1,3.81,3.81V473Z" fill="#fd8f25"/>
        <path id="Trazado_115885" data-name="Trazado 115885" d="M250.61,453.83H241a3.82,3.82,0,0,1,3.81,3.81V473h9.58V457.64a3.82,3.82,0,0,0-3.78-3.81Z" fill="#fc6930"/>
        <path id="Trazado_115886" data-name="Trazado 115886" d="M272.34,575.17H202a14.34,14.34,0,0,1-14.35-14.34V528.25a62,62,0,0,1,13.418-38.518L219.92,466h34.5l18.84,23.76a61.94,61.94,0,0,1,13.43,38.52v32.58a14.35,14.35,0,0,1-14.35,14.34Z" fill="#f25585"/>
        <path id="Trazado_115887" data-name="Trazado 115887" d="M273.26,489.73,254.42,466h-9.58l18.84,23.76a62,62,0,0,1,13.42,38.52v32.58a14.34,14.34,0,0,1-14.34,14.34h9.58a14.35,14.35,0,0,0,14.35-14.34V528.25a61.944,61.944,0,0,0-13.434-38.525Z" fill="#f57fa3"/>
        <path id="Trazado_115888" data-name="Trazado 115888" d="M286.69,528.25v32.58a14.34,14.34,0,0,1-14.35,14.34H202a14.34,14.34,0,0,1-14.34-14.34V528.25a61.91,61.91,0,0,1,6-26.57h0c10.17-1.89,22.09-1.78,31.26,5.13C245.06,522,258.43,529.7,286,519.23a63,63,0,0,1,.66,9Z" fill="#ef2a66"/>
        <path id="Trazado_115889" data-name="Trazado 115889" d="M286,519.23a88.693,88.693,0,0,1-9.23,3q.3,3,.3,6v32.58a14.34,14.34,0,0,1-14.34,14.34h9.58a14.34,14.34,0,0,0,14.35-14.34V528.25a62.992,62.992,0,0,0-.66-9.02Z" fill="#f25585"/>
        <path id="Trazado_115890" data-name="Trazado 115890" d="M255.13,417.67a1.28,1.28,0,0,0-1.27-1.28H218A28.83,28.83,0,0,0,200.84,422l-5.65,4.14a1.27,1.27,0,0,0-.28,1.78l4.16,5.67a1.27,1.27,0,0,0,1.78.28l5.66-4.14A19.39,19.39,0,0,1,218,426h35.85a1.28,1.28,0,0,0,1.28-1.28v-7Z" fill="#f2eff2"/>
      </g>
      <g id="Grupo_56379" data-name="Grupo 56379">
        <path id="Trazado_115891" data-name="Trazado 115891" d="M98.12,539.71a39.5,39.5,0,0,1,48.77-38.39,57.861,57.861,0,0,0,27.13,0,39.49,39.49,0,1,1,0,76.78,57.86,57.86,0,0,0-27.13,0,39.5,39.5,0,0,1-48.77-38.39Z" fill="#febc7c"/>
        <g id="Grupo_56377" data-name="Grupo 56377" opacity="0.32">
          <path id="Trazado_115892" data-name="Trazado 115892" d="M143.9,539.71a39.521,39.521,0,0,1,30.462-38.471l-.342.081a57.861,57.861,0,0,1-27.13,0,39.49,39.49,0,1,0,0,76.78,57.86,57.86,0,0,1,27.13,0l.34.08a39.52,39.52,0,0,1-30.46-38.47Z" fill="#fda551"/>
        </g>
        <ellipse id="Elipse_4511" data-name="Elipse 4511" cx="35.12" cy="22.57" rx="35.12" ry="22.57" transform="translate(125.33 517.14)" fill="#fda551"/>
        <path id="Trazado_115893" data-name="Trazado 115893" d="M146.49,555.92a4.48,4.48,0,0,1-2.81-4.22v-.31a15.7,15.7,0,1,0-31.39,0v.1a4.54,4.54,0,0,1-2.91,4.28,17.63,17.63,0,1,0,16,31.24,4.43,4.43,0,0,1,4.81,0,17.64,17.64,0,1,0,16.33-31.11Z" fill="#eaf5fb"/>
        <path id="Trazado_115894" data-name="Trazado 115894" d="M114.58,572.24a17.631,17.631,0,0,1,11.334-16.471,4.49,4.49,0,0,0,2.856-4.248v-.11a15.67,15.67,0,0,1,7.47-13.36,15.7,15.7,0,0,0-23.93,13.36v.11a4.52,4.52,0,0,1-2.92,4.27A17.64,17.64,0,1,0,124,587.84a17.62,17.62,0,0,1-9.42-15.6Z" fill="#cceafb"/>
        <circle id="Elipse_4512" data-name="Elipse 4512" cx="15.19" cy="15.19" r="15.19" transform="translate(192.39 489.54)" fill="#eaf5fb"/>
        <path id="Trazado_115895" data-name="Trazado 115895" d="M204,503.81a15.21,15.21,0,0,1,8.47-13.45,14.938,14.938,0,0,0-4.75-.81,15.19,15.19,0,1,0,6.55,28.8A15.22,15.22,0,0,1,204,503.81Z" fill="#cceafb"/>
        <circle id="Elipse_4513" data-name="Elipse 4513" cx="8.94" cy="8.94" r="8.94" transform="translate(103.03 503.23)" fill="#eaf5fb"/>
        <path id="Trazado_115896" data-name="Trazado 115896" d="M109.88,511.63a9,9,0,0,1,5-7.92,8.94,8.94,0,1,0-3,17.4,8.779,8.779,0,0,0,4.06-.92,9,9,0,0,1-6.06-8.56Z" fill="#cceafb"/>
        <g id="Grupo_56378" data-name="Grupo 56378">
          <path id="Trazado_115897" data-name="Trazado 115897" d="M140.39,528.26v3.5a1.88,1.88,0,1,0,3.76,0v-3.5a1.88,1.88,0,0,0-3.76,0Z" fill="#12263f"/>
          <path id="Trazado_115898" data-name="Trazado 115898" d="M176.75,528.26v3.5a1.89,1.89,0,0,0,3.77,0v-3.5a1.89,1.89,0,0,0-3.77,0Z" fill="#12263f"/>
          <path id="Trazado_115899" data-name="Trazado 115899" d="M163.83,530.42a4.47,4.47,0,0,1-6.75,0,1.882,1.882,0,0,0-2.84,2.47,8.24,8.24,0,0,0,12.43,0,1.882,1.882,0,0,0-2.84-2.47Z" fill="#12263f"/>
        </g>
      </g>
    </g>
  </g>
</svg>
