<svg xmlns="http://www.w3.org/2000/svg" xmlns:xlink="http://www.w3.org/1999/xlink" width="276" height="276" viewBox="0 0 276 276">
  <defs>
    <linearGradient id="linear-gradient" x1="6378.156" y1="407.602" x2="6377.833" y2="408.772" gradientUnits="objectBoundingBox">
      <stop offset="0" stop-color="#a737d5"/>
      <stop offset="1" stop-color="#ef497a"/>
    </linearGradient>
    <linearGradient id="linear-gradient-2" x1="0.847" y1="0.099" x2="-0.449" y2="1.595" gradientUnits="objectBoundingBox">
      <stop offset="0" stop-color="#241753"/>
      <stop offset="1" stop-color="#472ea6"/>
    </linearGradient>
    <linearGradient id="linear-gradient-3" x1="0.002" y1="0.499" x2="1" y2="0.499" gradientUnits="objectBoundingBox">
      <stop offset="0" stop-color="#dae3fe"/>
      <stop offset="1" stop-color="#e9effd"/>
    </linearGradient>
    <linearGradient id="linear-gradient-4" x1="0" y1="0.5" x2="1" y2="0.5" xlink:href="#linear-gradient-3"/>
    <linearGradient id="linear-gradient-5" x1="0.525" y1="0.469" x2="-0.103" y2="1.237" gradientUnits="objectBoundingBox">
      <stop offset="0" stop-color="#4042e2"/>
      <stop offset="1" stop-color="#4f52ff"/>
    </linearGradient>
    <linearGradient id="linear-gradient-6" x1="0.565" y1="1.673" x2="0.613" y2="2.658" xlink:href="#linear-gradient-5"/>
    <linearGradient id="linear-gradient-7" x1="0.241" y1="-2.176" x2="0.408" y2="-0.457" xlink:href="#linear-gradient-5"/>
    <linearGradient id="linear-gradient-8" x1="-13.537" y1="67.985" x2="-12.428" y2="67.338" gradientUnits="objectBoundingBox">
      <stop offset="0" stop-color="#ef2a66"/>
      <stop offset="1" stop-color="#f57fa3"/>
    </linearGradient>
    <linearGradient id="linear-gradient-9" x1="-43.028" y1="73.732" x2="-39.49" y2="73.036" xlink:href="#linear-gradient-8"/>
    <linearGradient id="linear-gradient-10" x1="15.488" y1="-21.368" x2="14.353" y2="-22.259" xlink:href="#linear-gradient-8"/>
    <linearGradient id="linear-gradient-11" x1="37.059" y1="-21.47" x2="34.207" y2="-22.365" xlink:href="#linear-gradient-8"/>
    <linearGradient id="linear-gradient-12" x1="0.001" y1="0.5" x2="1" y2="0.5" xlink:href="#linear-gradient-2"/>
    <linearGradient id="linear-gradient-13" x1="0" y1="0.5" x2="1" y2="0.5" xlink:href="#linear-gradient-3"/>
    <linearGradient id="linear-gradient-14" x1="0" y1="0.5" x2="0.999" y2="0.5" xlink:href="#linear-gradient-2"/>
    <linearGradient id="linear-gradient-15" x1="-0.001" y1="0.499" x2="0.998" y2="0.499" xlink:href="#linear-gradient-3"/>
    <linearGradient id="linear-gradient-16" x1="0.001" y1="0.5" x2="1" y2="0.5" xlink:href="#linear-gradient-2"/>
    <linearGradient id="linear-gradient-17" x1="34.588" y1="13.35" x2="36.993" y2="12.393" xlink:href="#linear-gradient-2"/>
    <linearGradient id="linear-gradient-18" x1="263.207" y1="0.501" x2="264.204" y2="0.501" gradientUnits="objectBoundingBox">
      <stop offset="0" stop-color="#f25585"/>
      <stop offset="1" stop-color="#f9aac2"/>
    </linearGradient>
    <linearGradient id="linear-gradient-19" x1="80.043" y1="0.5" x2="81.047" y2="0.5" xlink:href="#linear-gradient-2"/>
    <linearGradient id="linear-gradient-20" x1="87.576" y1="15.004" x2="93.507" y2="13.882" xlink:href="#linear-gradient-2"/>
    <linearGradient id="linear-gradient-21" x1="305.077" y1="0.496" x2="306.077" y2="0.496" xlink:href="#linear-gradient-18"/>
    <linearGradient id="linear-gradient-22" x1="56.103" y1="0.5" x2="57.103" y2="0.5" xlink:href="#linear-gradient-2"/>
    <linearGradient id="linear-gradient-23" x1="27.297" y1="0.666" x2="27.06" y2="1.31" xlink:href="#linear-gradient-8"/>
    <linearGradient id="linear-gradient-24" x1="51.572" y1="0.5" x2="52.572" y2="0.5" xlink:href="#linear-gradient-18"/>
    <linearGradient id="linear-gradient-25" x1="2322.188" y1="1.605" x2="2324.18" y2="4.278" xlink:href="#linear-gradient-18"/>
    <linearGradient id="linear-gradient-26" x1="0.375" y1="-3.449" x2="0.533" y2="1.388" xlink:href="#linear-gradient-18"/>
    <linearGradient id="linear-gradient-27" x1="68.147" y1="1.126" x2="67.551" y2="2.774" xlink:href="#linear-gradient-8"/>
    <linearGradient id="linear-gradient-28" x1="40.756" y1="0.5" x2="41.756" y2="0.5" xlink:href="#linear-gradient-18"/>
    <linearGradient id="linear-gradient-29" x1="38.438" y1="-0.063" x2="38.951" y2="2.432" xlink:href="#linear-gradient-5"/>
    <linearGradient id="linear-gradient-30" x1="200.967" y1="-3.494" x2="200.392" y2="1.803" xlink:href="#linear-gradient-2"/>
    <linearGradient id="linear-gradient-31" x1="105.061" y1="-1.232" x2="104.918" y2="1.144" xlink:href="#linear-gradient-2"/>
    <linearGradient id="linear-gradient-32" x1="130.668" y1="0.499" x2="131.666" y2="0.499" xlink:href="#linear-gradient-18"/>
    <linearGradient id="linear-gradient-33" x1="0.71" y1="-0.364" x2="0.318" y2="1.383" xlink:href="#linear-gradient-18"/>
    <linearGradient id="linear-gradient-34" x1="1.19" y1="0.047" x2="0.208" y2="0.768" xlink:href="#linear-gradient-18"/>
    <linearGradient id="linear-gradient-35" x1="-124.919" y1="-237.443" x2="-124.714" y2="-236.269" xlink:href="#linear-gradient-2"/>
    <linearGradient id="linear-gradient-36" x1="3.472" y1="-2.704" x2="0.271" y2="0.767" xlink:href="#linear-gradient-18"/>
    <linearGradient id="linear-gradient-37" x1="0.756" y1="-0.057" x2="0.264" y2="0.791" xlink:href="#linear-gradient-18"/>
    <linearGradient id="linear-gradient-38" x1="0" y1="0.5" x2="0.998" y2="0.5" xlink:href="#linear-gradient-18"/>
    <linearGradient id="linear-gradient-39" x1="1.704" y1="-5.581" x2="0.5" y2="0.572" xlink:href="#linear-gradient-2"/>
    <linearGradient id="linear-gradient-40" x1="1.464" y1="-14.742" x2="0.606" y2="-0.839" xlink:href="#linear-gradient-2"/>
    <linearGradient id="linear-gradient-41" x1="0" y1="0.5" x2="0.991" y2="0.5" xlink:href="#linear-gradient-18"/>
    <linearGradient id="linear-gradient-42" x1="0" y1="0.5" x2="1" y2="0.5" xlink:href="#linear-gradient-18"/>
    <linearGradient id="linear-gradient-43" x1="0.309" y1="-0.003" x2="2.334" y2="3.285" xlink:href="#linear-gradient-8"/>
    <linearGradient id="linear-gradient-44" x1="-0.399" y1="-0.039" x2="1.338" y2="1.172" xlink:href="#linear-gradient-5"/>
    <linearGradient id="linear-gradient-45" y1="0.501" x2="1" y2="0.501" gradientUnits="objectBoundingBox">
      <stop offset="0" stop-color="#f9b776"/>
      <stop offset="1" stop-color="#f47960"/>
    </linearGradient>
    <linearGradient id="linear-gradient-46" x1="0.95" y1="0.532" x2="4.931" y2="0.807" xlink:href="#linear-gradient-18"/>
    <linearGradient id="linear-gradient-47" x1="0.782" y1="0.162" x2="0.062" y2="1.094" xlink:href="#linear-gradient-2"/>
  </defs>
  <g id="Grupo_56932" data-name="Grupo 56932" transform="translate(-1000 -4064)">
    <g id="CF1_acordeon_copia_6" data-name="CF1_acordeon copia 6" transform="translate(999.993 4064.2)">
      <rect id="Rectángulo_6791" data-name="Rectángulo 6791" width="276" height="276" transform="translate(0.007 -0.201)" fill="none"/>
      <g id="Grupo_56477" data-name="Grupo 56477" transform="translate(10.471 9.979)">
        <path id="Trazado_116103" data-name="Trazado 116103" d="M115.228,225.05l-.239-.193c-.441-.368-.919-.781-1.425-1.259l-.524-.487.7.156a16.6,16.6,0,0,0,1.646.276h.221Zm-.919-1.269.671.579.11-.46Z" transform="translate(-19.59 -27.977)" fill="url(#linear-gradient)"/>
        <path id="Trazado_116104" data-name="Trazado 116104" d="M96.628,164.7a6.739,6.739,0,1,1-6.334-7.116A6.739,6.739,0,0,1,96.628,164.7Z" transform="translate(-17.18 -22.69)" fill="#bdd0fb"/>
        <path id="Trazado_116105" data-name="Trazado 116105" d="M254.938,173.915A6.739,6.739,0,1,1,248.6,166.8,6.739,6.739,0,0,1,254.938,173.915Z" transform="translate(-29.95 -23.433)" fill="#bdd0fb"/>
        <path id="Trazado_116106" data-name="Trazado 116106" d="M156.022,240.29a6.739,6.739,0,1,1-7.842,5.415,6.739,6.739,0,0,1,7.842-5.415Z" transform="translate(-22.416 -29.354)" fill="#bdd0fb"/>
        <path id="Trazado_116107" data-name="Trazado 116107" d="M184.512,84.29a6.739,6.739,0,1,1-5.045,1.087A6.739,6.739,0,0,1,184.512,84.29Z" transform="translate(-24.714 -16.77)" fill="#bdd0fb"/>
        <path id="Trazado_116108" data-name="Trazado 116108" d="M208.488,244.255c.689,1.728.515,3.346-.377,3.613s-2.179-.919-2.868-2.648-.515-3.337.386-3.6S207.808,242.527,208.488,244.255Z" transform="translate(-26.994 -29.467)" fill="#bdd0fb"/>
        <path id="Trazado_116109" data-name="Trazado 116109" d="M241.705,216.261c1.489,1.122,2.179,2.593,1.554,3.291s-2.335.34-3.815-.772-2.179-2.593-1.554-3.291S240.225,215.139,241.705,216.261Z" transform="translate(-29.643 -27.333)" fill="#bdd0fb"/>
        <path id="Trazado_116110" data-name="Trazado 116110" d="M246.02,132.531c1.682-.8,3.3-.735,3.631.147s-.772,2.225-2.445,3.025-3.3.735-3.631-.138S244.347,133.331,246.02,132.531Z" transform="translate(-30.115 -20.625)" fill="#bdd0fb"/>
        <path id="Trazado_116111" data-name="Trazado 116111" d="M102.66,205.951c1.673-.8,3.3-.735,3.622.138s-.763,2.234-2.445,3.034-3.3.735-3.622-.138S100.978,206.787,102.66,205.951Z" transform="translate(-18.551 -26.547)" fill="#bdd0fb"/>
        <path id="Trazado_116112" data-name="Trazado 116112" d="M215.916,101.118c1.02-1.554,2.436-2.344,3.172-1.765s.506,2.308-.515,3.861-2.436,2.344-3.172,1.765S214.849,102.691,215.916,101.118Z" transform="translate(-27.811 -17.978)" fill="#bdd0fb"/>
        <path id="Trazado_116113" data-name="Trazado 116113" d="M131.477,238.328c1.02-1.554,2.445-2.344,3.181-1.765s.5,2.308-.515,3.861-2.445,2.344-3.181,1.765S130.466,239.882,131.477,238.328Z" transform="translate(-21.001 -29.047)" fill="#bdd0fb"/>
        <g id="Grupo_56445" data-name="Grupo 56445" transform="translate(43.656 11.432)">
          <g id="Grupo_56443" data-name="Grupo 56443" transform="translate(0 0.288)">
            <path id="Trazado_116114" data-name="Trazado 116114" d="M176.568,38.158c-.322.193-.625.359-.919.524l-.919.487a.323.323,0,1,1-.285-.579l.919-.478c.3-.156.616-.331.919-.506h0a.322.322,0,0,1,.331.552Z" transform="translate(-68.185 -24.729)" fill="#7d97f4"/>
            <path id="Trazado_116115" data-name="Trazado 116115" d="M172.388,40.216c-.662.267-1.324.533-1.986.772a.323.323,0,0,1-.221-.607c.662-.239,1.315-.487,1.958-.763a.324.324,0,0,1,.248.6Z" transform="translate(-67.838 -24.893)" fill="#7d97f4"/>
            <path id="Trazado_116116" data-name="Trazado 116116" d="M168.015,41.775c-.68.2-1.37.386-2.059.552a.317.317,0,0,1-.147-.616c.68-.165,1.361-.349,2.023-.542a.313.313,0,0,1,.4.211.322.322,0,0,1-.221.4Z" transform="translate(-67.483 -25.018)" fill="#7d97f4"/>
            <path id="Trazado_116117" data-name="Trazado 116117" d="M163.5,42.835c-.7.12-1.407.221-2.114.294a.322.322,0,0,1-.349-.285.313.313,0,0,1,.285-.34c.69-.074,1.379-.175,2.069-.294a.322.322,0,0,1,.368.257.313.313,0,0,1-.257.368Z" transform="translate(-67.118 -25.103)" fill="#7d97f4"/>
            <path id="Trazado_116118" data-name="Trazado 116118" d="M158.886,43.315h-2.142a.313.313,0,0,1-.294-.322.322.322,0,0,1,.322-.3h2.1a.313.313,0,0,1,.018.625Z" transform="translate(-66.747 -25.143)" fill="#7d97f4"/>
            <path id="Trazado_116119" data-name="Trazado 116119" d="M154.241,43.063c-.708-.092-1.407-.211-2.105-.368a.313.313,0,1,1,.138-.607c.671.147,1.361.267,2.05.359a.3.3,0,0,1,.267.349.313.313,0,0,1-.349.267Z" transform="translate(-66.377 -25.093)" fill="#7d97f4"/>
            <path id="Trazado_116120" data-name="Trazado 116120" d="M149.717,42.025c-.68-.221-1.342-.46-2-.717a.306.306,0,1,1,.221-.57c.653.248,1.305.487,1.977.7a.31.31,0,0,1-.193.588Z" transform="translate(-66.027 -24.983)" fill="#7d97f4"/>
            <path id="Trazado_116121" data-name="Trazado 116121" d="M145.4,40.348l-1.94-.919a.313.313,0,0,1-.147-.4.3.3,0,0,1,.4-.147h0l1.9.919h0a.322.322,0,0,1,.156.414.313.313,0,0,1-.4.147Z" transform="translate(-65.686 -24.833)" fill="#7d97f4"/>
            <path id="Trazado_116122" data-name="Trazado 116122" d="M141.256,38.306q-.919-.515-1.839-1.076a.3.3,0,0,1,.322-.515c.6.368,1.2.717,1.839,1.057a.313.313,0,0,1,.12.414.3.3,0,0,1-.414.12Z" transform="translate(-65.362 -24.657)" fill="#7d97f4"/>
            <path id="Trazado_116123" data-name="Trazado 116123" d="M137.331,35.834c-.57-.414-1.14-.864-1.673-1.333a.3.3,0,1,1,.4-.45,20.228,20.228,0,0,0,1.636,1.3.3.3,0,1,1-.359.487Z" transform="translate(-65.059 -24.437)" fill="#7d97f4"/>
            <path id="Trazado_116124" data-name="Trazado 116124" d="M133.89,32.671a9.285,9.285,0,0,1-1.223-1.839.294.294,0,0,1,.129-.4.285.285,0,0,1,.4.129,8.982,8.982,0,0,0,1.158,1.682.3.3,0,0,1,0,.423.294.294,0,0,1-.423,0Z" transform="translate(-64.826 -24.151)" fill="#7d97f4"/>
            <path id="Trazado_116125" data-name="Trazado 116125" d="M132,28.4a5.085,5.085,0,0,1,0-1.122,2.326,2.326,0,0,1,.1-.552,4.072,4.072,0,0,1,.165-.542.285.285,0,0,1,.377-.175.294.294,0,0,1,.175.377h0a3.933,3.933,0,0,0-.138.469,4.143,4.143,0,0,0-.092.487,4.488,4.488,0,0,0,0,.993.3.3,0,1,1-.588.055Z" transform="translate(-64.772 -23.795)" fill="#7d97f4"/>
            <path id="Trazado_116126" data-name="Trazado 116126" d="M133.986,24.357a6.8,6.8,0,0,1,2.078-.717.294.294,0,0,1,.1.579,6.307,6.307,0,0,0-1.9.653.294.294,0,0,1-.285-.515Z" transform="translate(-64.922 -23.606)" fill="#7d97f4"/>
            <path id="Trazado_116127" data-name="Trazado 116127" d="M138.628,23.609a3.88,3.88,0,0,1,1.085.368,2.308,2.308,0,0,1,.5.349,3.4,3.4,0,0,1,.386.423.294.294,0,0,1-.046.4.3.3,0,0,1-.414-.046,2.363,2.363,0,0,0-.322-.359,1.839,1.839,0,0,0-.377-.257,2.951,2.951,0,0,0-.919-.3.294.294,0,1,1,.1-.579Z" transform="translate(-65.28 -23.603)" fill="#7d97f4"/>
            <path id="Trazado_116128" data-name="Trazado 116128" d="M141.517,27.145a6.527,6.527,0,0,1-.4,2.17.294.294,0,0,1-.552-.184,5.681,5.681,0,0,0,.368-1.967.294.294,0,0,1,.285-.3A.3.3,0,0,1,141.517,27.145Z" transform="translate(-65.466 -23.866)" fill="#7d97f4"/>
            <path id="Trazado_116129" data-name="Trazado 116129" d="M140.038,31.642a13.79,13.79,0,0,1-1.223,1.774.288.288,0,1,1-.45-.359,11.95,11.95,0,0,0,1.177-1.7.276.276,0,0,1,.386-.11.294.294,0,0,1,.11.4Z" transform="translate(-65.283 -24.216)" fill="#7d97f4"/>
            <path id="Trazado_116130" data-name="Trazado 116130" d="M137.056,35.266a19.431,19.431,0,0,1-1.673,1.342.285.285,0,0,1-.331-.46,15.94,15.94,0,0,0,1.618-1.305.294.294,0,0,1,.4,0,.285.285,0,0,1,0,.4Z" transform="translate(-65.014 -24.503)" fill="#7d97f4"/>
            <path id="Trazado_116131" data-name="Trazado 116131" d="M133.249,37.958c-.616.359-1.25.68-1.894.984a.28.28,0,1,1-.239-.506c.634-.294,1.25-.616,1.839-.919a.282.282,0,0,1,.285.487Z" transform="translate(-64.691 -24.722)" fill="#7d97f4"/>
            <path id="Trazado_116132" data-name="Trazado 116132" d="M129.041,39.953c-.331.129-.662.239-1,.359l-1.011.34a.276.276,0,1,1-.175-.524h0l.993-.34c.331-.11.662-.221.984-.349a.285.285,0,0,1,.368.156.294.294,0,0,1-.156.368h0Z" transform="translate(-64.344 -24.879)" fill="#7d97f4"/>
            <path id="Trazado_116133" data-name="Trazado 116133" d="M124.618,41.332c-.689.165-1.388.313-2.087.432a.276.276,0,0,1-.1-.542c.689-.12,1.379-.267,2.059-.432a.279.279,0,0,1,.129.542Z" transform="translate(-63.985 -24.989)" fill="#7d97f4"/>
            <path id="Trazado_116134" data-name="Trazado 116134" d="M120.059,42.151q-1.057.12-2.124.193a.272.272,0,0,1-.037-.542,17.966,17.966,0,0,0,2.1-.2.278.278,0,0,1,.064.552Z" transform="translate(-63.617 -25.055)" fill="#7d97f4"/>
            <path id="Trazado_116135" data-name="Trazado 116135" d="M115.435,42.472h-2.124a.276.276,0,1,1,0-.542h2.124a.276.276,0,1,1,0,.552Z" transform="translate(-63.241 -25.081)" fill="#7d97f4"/>
            <path id="Trazado_116136" data-name="Trazado 116136" d="M110.791,42.381l-2.114-.138a.267.267,0,0,1,0-.533h0l2.105.138h0a.267.267,0,0,1,0,.533Z" transform="translate(-62.872 -25.064)" fill="#7d97f4"/>
            <path id="Trazado_116137" data-name="Trazado 116137" d="M106.224,42.013l-2.105-.23a.268.268,0,1,1,.055-.533h0l2.1.23h0a.267.267,0,1,1-.055.524Z" transform="translate(-62.507 -25.026)" fill="#7d97f4"/>
            <path id="Trazado_116138" data-name="Trazado 116138" d="M101.646,41.459l-2.1-.285a.265.265,0,0,1,.074-.524l2.1.285h0a.267.267,0,0,1,.23.3.257.257,0,0,1-.3.221Z" transform="translate(-62.139 -24.978)" fill="#7d97f4"/>
            <path id="Trazado_116139" data-name="Trazado 116139" d="M97.095,40.818l-2.114-.3a.276.276,0,0,1-.221-.3A.267.267,0,0,1,95.072,40l2.1.3a.276.276,0,0,1,.221.3.267.267,0,0,1-.294.221Z" transform="translate(-61.771 -24.925)" fill="#7d97f4"/>
            <path id="Trazado_116140" data-name="Trazado 116140" d="M92.543,40.161l-2.1-.276h0a.257.257,0,1,1,.064-.506l2.1.276a.257.257,0,0,1,.23.294.267.267,0,0,1-.294.221Z" transform="translate(-61.402 -24.875)" fill="#7d97f4"/>
            <path id="Trazado_116141" data-name="Trazado 116141" d="M87.982,39.585l-2.1-.221h0a.257.257,0,1,1,.055-.506l2.105.211a.257.257,0,1,1,0,.515h0Z" transform="translate(-61.033 -24.833)" fill="#7d97f4"/>
            <path id="Trazado_116142" data-name="Trazado 116142" d="M83.414,39.176l-2.105-.11h0a.253.253,0,0,1,.028-.506l2.124.1a.258.258,0,0,1-.028.515h0Z" transform="translate(-60.667 -24.809)" fill="#7d97f4"/>
            <path id="Trazado_116143" data-name="Trazado 116143" d="M78.794,39.026H76.7a.23.23,0,0,1-.248-.239.239.239,0,0,1,.239-.257h2.124a.239.239,0,0,1,.257.248.248.248,0,0,1-.239.257h0Z" transform="translate(-60.294 -24.807)" fill="#7d97f4"/>
            <path id="Trazado_116144" data-name="Trazado 116144" d="M74.263,39.216l-2.087.23h0a.257.257,0,0,1-.276-.221.248.248,0,0,1,.221-.267l2.105-.239a.248.248,0,0,1,.276.221.239.239,0,0,1-.221.276h0Z" transform="translate(-59.927 -24.822)" fill="#7d97f4"/>
            <path id="Trazado_116145" data-name="Trazado 116145" d="M69.725,39.808c-.689.12-1.379.248-2.059.4a.231.231,0,1,1-.1-.45c.689-.165,1.379-.3,2.078-.432a.248.248,0,0,1,.285.193.257.257,0,0,1-.193.285Z" transform="translate(-59.563 -24.871)" fill="#7d97f4"/>
            <path id="Trazado_116146" data-name="Trazado 116146" d="M65.282,40.831c-.671.2-1.333.423-1.986.671a.23.23,0,0,1-.156-.423q.993-.377,2.013-.689a.239.239,0,0,1,.285.156A.23.23,0,0,1,65.282,40.831Z" transform="translate(-59.211 -24.956)" fill="#7d97f4"/>
            <path id="Trazado_116147" data-name="Trazado 116147" d="M61.031,42.454c-.625.3-1.241.634-1.839.993a.211.211,0,0,1-.285-.074.221.221,0,0,1,.064-.294q.919-.552,1.839-1.02a.218.218,0,0,1,.184.4Z" transform="translate(-58.876 -25.09)" fill="#7d97f4"/>
          </g>
          <g id="Grupo_56444" data-name="Grupo 56444" transform="translate(103.666)">
            <path id="Trazado_116148" data-name="Trazado 116148" d="M177.73,30.21l.7,5.617,3.5-2.887Z" transform="translate(-172.13 -23.848)" fill="#7d97f4"/>
            <path id="Trazado_116149" data-name="Trazado 116149" d="M202.107,23.29,188.583,38.477a1.416,1.416,0,0,1-2.059.083L171.815,24.421a.6.6,0,0,1-.138-.634.588.588,0,0,1,.533-.359Z" transform="translate(-171.638 -23.29)" fill="#bbabf5"/>
            <path id="Trazado_116150" data-name="Trazado 116150" d="M177.73,29.652,202.6,23.29l-22.5,8.651.129,1.572Z" transform="translate(-172.13 -23.29)" fill="#7d97f4"/>
            <path id="Trazado_116151" data-name="Trazado 116151" d="M181.588,34.051l-3.1,1.977,1.673-3.328Z" transform="translate(-172.191 -24.049)" fill="#7d97f4"/>
          </g>
        </g>
        <g id="Grupo_56452" data-name="Grupo 56452" transform="translate(28.545)">
          <path id="Trazado_116152" data-name="Trazado 116152" d="M247.1,112.821A101.127,101.127,0,0,1,146.021,213.947c-55.831,0-103.581-47.235-103.581-103.066S90.19,11.74,146.021,11.74A101.127,101.127,0,0,1,247.1,112.821Z" transform="translate(-42.44 -10.926)" fill="url(#linear-gradient-2)"/>
          <g id="Grupo_56446" data-name="Grupo 56446" transform="translate(7.713 5.438)">
            <path id="Trazado_116153" data-name="Trazado 116153" d="M51.051,93.347h-.064a.2.2,0,0,1-.147-.257,91.127,91.127,0,0,1,4.1-11.951.214.214,0,1,1,.4.165,89.874,89.874,0,0,0-4.091,11.951A.211.211,0,0,1,51.051,93.347Z" transform="translate(-50.83 -21.952)" fill="url(#linear-gradient-3)"/>
            <path id="Trazado_116154" data-name="Trazado 116154" d="M67.853,56.577a.221.221,0,0,1-.129,0,.2.2,0,0,1,0-.294c18.635-24.758,48.623-39.513,80.23-39.513a95.868,95.868,0,0,1,38.851,8.136.214.214,0,0,1-.165.4,95.252,95.252,0,0,0-38.686-8.109c-31.515,0-61.411,14.709-79.982,39.3A.23.23,0,0,1,67.853,56.577Z" transform="translate(-52.188 -16.77)" fill="url(#linear-gradient-4)"/>
          </g>
          <path id="Trazado_116155" data-name="Trazado 116155" d="M234.555,114.016a87.5,87.5,0,0,1-87.5,87.5c-48.32,0-89.663-40.883-89.663-89.175S98.76,26.56,147.062,26.56A87.493,87.493,0,0,1,234.555,114.016Z" transform="translate(-43.646 -12.122)" fill="url(#linear-gradient-5)"/>
          <path id="Trazado_116156" data-name="Trazado 116156" d="M236.553,114.013A87.493,87.493,0,0,0,149.06,26.52a91.749,91.749,0,0,0-66.9,28.729l67.4,56.079,13.864,89a87.511,87.511,0,0,0,73.133-86.316Z" transform="translate(-45.644 -12.118)" fill="url(#linear-gradient-6)"/>
          <path id="Trazado_116157" data-name="Trazado 116157" d="M222.829,108.151c0,43.613-36.093,78.961-80.607,78.961s-82.6-36.893-82.6-80.506,38.042-77.426,82.6-77.426S222.829,64.538,222.829,108.151Z" transform="translate(-43.826 -12.333)" fill="url(#linear-gradient-7)"/>
          <path id="Trazado_116158" data-name="Trazado 116158" d="M128.679,47.765c.689,1.728.515,3.346-.377,3.613s-2.179-.919-2.859-2.638-.515-3.346.377-3.613S128.027,46,128.679,47.765Z" transform="translate(-49.102 -13.616)" fill="#bdd0fb"/>
          <path id="Trazado_116159" data-name="Trazado 116159" d="M94.365,74.3c1.48,1.122,2.179,2.593,1.554,3.291s-2.335.349-3.824-.772-2.17-2.593-1.544-3.291S92.885,73.179,94.365,74.3Z" transform="translate(-46.302 -15.881)" fill="#bdd0fb"/>
          <g id="Grupo_56449" data-name="Grupo 56449" transform="translate(48.12 36.734)">
            <g id="Grupo_56447" data-name="Grupo 56447" transform="translate(0 64.528)">
              <path id="Trazado_116160" data-name="Trazado 116160" d="M188.334,137.155a3.264,3.264,0,0,0-3.411,1.517q-.736,1.214-1.572,2.4a40.874,40.874,0,0,1-56.916,9.782,40.45,40.45,0,0,1-8.991-8.7L98.69,150.108a60.8,60.8,0,0,0,100.943,2.464,61.6,61.6,0,0,0,4.8-8.035,3.236,3.236,0,0,0-2.262-4.6Z" transform="translate(-95.097 -122.301)" fill="url(#linear-gradient-8)"/>
              <path id="Trazado_116161" data-name="Trazado 116161" d="M125.109,148.681,101.574,158.9a4.854,4.854,0,0,1-6.785-4.716L96.334,125.6a4.863,4.863,0,0,1,7.971-3.466l21.981,18.387a4.854,4.854,0,0,1-1.177,8.164Z" transform="translate(-94.782 -121.003)" fill="url(#linear-gradient-9)"/>
            </g>
            <g id="Grupo_56448" data-name="Grupo 56448" transform="translate(2.47)">
              <path id="Trazado_116162" data-name="Trazado 116162" d="M112.887,88.411a3.254,3.254,0,0,0,3.677-1.158,40.782,40.782,0,0,1,56.723-8.8l14.875-13.68A60.933,60.933,0,0,0,129.6,54.1a60.29,60.29,0,0,0-31.643,25.07,3.236,3.236,0,0,0,1.728,4.781Q105.367,85.841,112.887,88.411Z" transform="translate(-97.469 -50.812)" fill="url(#linear-gradient-10)"/>
              <path id="Trazado_116163" data-name="Trazado 116163" d="M171.1,74.207,190.69,57.659a4.863,4.863,0,0,1,7.86,2.565L205.307,88.1a4.854,4.854,0,0,1-6.628,5.608L172.321,82.371a4.845,4.845,0,0,1-1.223-8.164Z" transform="translate(-103.269 -51.272)" fill="url(#linear-gradient-11)"/>
            </g>
          </g>
          <g id="Grupo_56450" data-name="Grupo 56450" transform="translate(101.878 81.905)">
            <path id="Trazado_116164" data-name="Trazado 116164" d="M154.859,120.313l52.88-1.719a1.544,1.544,0,0,1,1.4,2.262l-3.208,6.187a1.554,1.554,0,0,0,1.839,2.206l50.177-14.121a1.544,1.544,0,0,0-.055-3L207.8,100a1.544,1.544,0,0,0-1.839,2.023l2.758,7.805a1.554,1.554,0,0,1-1.351,2.068l-52.687,5.3a1.544,1.544,0,0,0-1.425,1.618h0a1.535,1.535,0,0,0,1.6,1.5Z" transform="translate(-153.258 -99.946)" fill="url(#linear-gradient-12)"/>
            <path id="Trazado_116165" data-name="Trazado 116165" d="M246.441,117.683a.221.221,0,0,1-.211-.156.211.211,0,0,1,.156-.257l10.784-2.675a.432.432,0,0,0,0-.837c-11.418-2.7-38.005-9.009-38.492-9.193a.2.2,0,0,1-.129-.267.211.211,0,0,1,.267-.129c.588.2,29.575,7.079,38.447,9.193a.846.846,0,0,1,0,1.646l-10.784,2.675Z" transform="translate(-158.524 -100.286)" fill="url(#linear-gradient-13)"/>
          </g>
          <g id="Grupo_56451" data-name="Grupo 56451" transform="translate(43.218)">
            <path id="Trazado_116166" data-name="Trazado 116166" d="M146.954,107.564,118.289,54.3a1.544,1.544,0,0,1,1.361-2.28h6.978a1.554,1.554,0,0,0,1.131-2.611L92.125,11.347A1.544,1.544,0,0,0,89.5,12.772L101.787,62.82a1.544,1.544,0,0,0,2.638.68l5.636-6.068a1.544,1.544,0,0,1,2.455.239l31.717,51.483a1.554,1.554,0,0,0,2.105.524h0a1.563,1.563,0,0,0,.616-2.114Z" transform="translate(-89.45 -10.855)" fill="url(#linear-gradient-14)"/>
            <path id="Trazado_116167" data-name="Trazado 116167" d="M103.043,56.648a.211.211,0,0,1-.211-.184c-.074-.487-4.974-20.133-9.533-38.364a.827.827,0,0,1,.423-.919.846.846,0,0,1,1.039.193l7.355,8.348a.211.211,0,0,1,0,.294.23.23,0,0,1-.3,0l-7.355-8.338a.4.4,0,0,0-.515-.1.414.414,0,0,0-.221.478c2.225,8.881,9.478,37.877,9.552,38.41a.211.211,0,0,1-.184.239Z" transform="translate(-89.759 -11.357)" fill="url(#linear-gradient-15)"/>
          </g>
          <path id="Trazado_116168" data-name="Trazado 116168" d="M161,118.308a7.189,7.189,0,1,1-2.106-5.093A7.2,7.2,0,0,1,161,118.308Z" transform="translate(-50.842 -18.942)" fill="url(#linear-gradient-16)"/>
        </g>
        <g id="Grupo_56461" data-name="Grupo 56461" transform="translate(0 50.313)">
          <g id="Grupo_56456" data-name="Grupo 56456" transform="translate(16.622)">
            <g id="Grupo_56453" data-name="Grupo 56453" transform="translate(24.524 13.244)">
              <path id="Trazado_116169" data-name="Trazado 116169" d="M95.092,82.224a.432.432,0,0,1-.349-.193c-.3-.46-.634-.919-.919-1.361a.432.432,0,0,1,.092-.6.414.414,0,0,1,.588.092c.34.46.671.919.984,1.4a.423.423,0,0,1-.12.588A.4.4,0,0,1,95.092,82.224Z" transform="translate(-59.178 -79.989)" fill="#7d97f4"/>
              <path id="Trazado_116170" data-name="Trazado 116170" d="M65.411,133.627H64.354a.423.423,0,0,1-.414-.432.414.414,0,0,1,.432-.414,31.792,31.792,0,0,0,3.374-.064.423.423,0,1,1,.055.837C67.011,133.6,66.2,133.627,65.411,133.627Zm7.833-.919a.432.432,0,0,1-.414-.322.423.423,0,0,1,.313-.515l1.324-.349c.644-.193,1.278-.4,1.9-.625a.425.425,0,1,1,.285.8c-.634.23-1.3.441-1.958.634l-1.351.368Zm8.274-3.291a.423.423,0,0,1-.211-.791,31.586,31.586,0,0,0,2.841-1.839.425.425,0,0,1,.5.689,28.235,28.235,0,0,1-2.914,1.839.423.423,0,0,1-.184.064Zm7.1-5.415a.414.414,0,0,1-.294-.129.423.423,0,0,1,0-.6,30.558,30.558,0,0,0,2.243-2.51.425.425,0,1,1,.662.533,34.015,34.015,0,0,1-2.3,2.574.432.432,0,0,1-.285.092Zm5.369-7.143a.425.425,0,0,1-.377-.625,30.742,30.742,0,0,0,1.489-3.025.424.424,0,1,1,.781.331,25.58,25.58,0,0,1-1.526,3.107.423.423,0,0,1-.34.175Zm3.245-8.274h-.1a.423.423,0,0,1-.313-.506,31.449,31.449,0,0,0,.616-3.319.423.423,0,0,1,.478-.359.414.414,0,0,1,.359.478,32.842,32.842,0,0,1-.625,3.392.423.423,0,0,1-.386.23Zm.873-8.89a.423.423,0,0,1-.423-.4,24.081,24.081,0,0,0-.3-3.346.423.423,0,0,1,.349-.487.441.441,0,0,1,.487.359,33.343,33.343,0,0,1,.313,3.448.423.423,0,0,1-.4.432ZM96.53,90.906a.414.414,0,0,1-.4-.294c-.349-1.066-.754-2.124-1.2-3.144a.432.432,0,0,1,.221-.561.414.414,0,0,1,.552.221,31.082,31.082,0,0,1,1.232,3.227.423.423,0,0,1-.267.533Z" transform="translate(-56.774 -80.544)" fill="#7d97f4"/>
              <path id="Trazado_116171" data-name="Trazado 116171" d="M58.218,136.893h-.092c-.552-.11-1.112-.248-1.664-.386a.423.423,0,0,1-.3-.515.414.414,0,0,1,.515-.3c.533.138,1.085.267,1.627.377a.423.423,0,0,1,.331.5A.432.432,0,0,1,58.218,136.893Z" transform="translate(-56.145 -84.481)" fill="#7d97f4"/>
            </g>
            <g id="Grupo_56454" data-name="Grupo 56454">
              <path id="Trazado_116172" data-name="Trazado 116172" d="M35.146,120.634a.432.432,0,0,1-.359-.2c-.294-.487-.588-.984-.855-1.48a.423.423,0,1,1,.735-.4c.267.487.552.965.846,1.443a.423.423,0,0,1-.138.579.414.414,0,0,1-.23.064Z" transform="translate(-29.824 -69.834)" fill="#7d97f4"/>
              <path id="Trazado_116173" data-name="Trazado 116173" d="M31.741,109.938a.432.432,0,0,1-.4-.285c-.184-.533-.359-1.076-.515-1.627s-.3-1.085-.432-1.636a.423.423,0,0,1,.818-.193c.129.533.267,1.066.423,1.6s.322,1.066.506,1.581a.432.432,0,0,1-.257.542Zm-1.784-8.614a.4.4,0,0,1-.414-.386c-.055-.735-.074-1.471-.074-2.2v-1.2a.423.423,0,0,1,.441-.414.432.432,0,0,1,.4.441c0,.386,0,.781,0,1.177,0,.708,0,1.425.064,2.133a.414.414,0,0,1-.386.45Zm.607-8.761h-.083a.432.432,0,0,1-.331-.506,33.788,33.788,0,0,1,.864-3.282.414.414,0,0,1,.533-.276.423.423,0,0,1,.276.524,32.976,32.976,0,0,0-.846,3.208.414.414,0,0,1-.4.331Zm2.923-8.274a.377.377,0,0,1-.193,0,.423.423,0,0,1-.184-.57,33.444,33.444,0,0,1,1.719-3.043.423.423,0,0,1,.588-.12.414.414,0,0,1,.12.579A33.1,33.1,0,0,0,33.883,84a.414.414,0,0,1-.377.267Zm5.01-7.217a.432.432,0,0,1-.285-.11.423.423,0,0,1,0-.6c.763-.827,1.581-1.636,2.418-2.381a.423.423,0,1,1,.561.625c-.818.735-1.609,1.517-2.353,2.326a.414.414,0,0,1-.322.12Zm6.766-5.59a.432.432,0,0,1-.359-.2.414.414,0,0,1,.138-.579,33.461,33.461,0,0,1,2.969-1.655.424.424,0,1,1,.368.763,29.566,29.566,0,0,0-2.887,1.609.506.506,0,0,1-.23.064Zm8.007-3.677a.414.414,0,0,1-.4-.294.432.432,0,0,1,.285-.533l.211-.055a30.783,30.783,0,0,1,3.089-.745.421.421,0,1,1,.156.827c-1,.193-2.013.432-3.006.726l-.211.064Zm12.034-1.269h0c-1.1-.092-2.216-.12-3.319-.1a.423.423,0,1,1,0-.846,32.263,32.263,0,0,1,3.4.11.423.423,0,0,1,0,.837Z" transform="translate(-29.47 -65.583)" fill="#7d97f4"/>
              <path id="Trazado_116174" data-name="Trazado 116174" d="M75.91,68.007a.322.322,0,0,1-.129,0c-.524-.156-1.066-.313-1.609-.45a.423.423,0,0,1-.3-.515.414.414,0,0,1,.515-.3c.561.138,1.112.294,1.646.469a.423.423,0,0,1,.285.524.432.432,0,0,1-.4.276Z" transform="translate(-33.05 -65.675)" fill="#7d97f4"/>
            </g>
            <g id="Grupo_56455" data-name="Grupo 56455" transform="translate(8.131 8.298)">
              <path id="Trazado_116175" data-name="Trazado 116175" d="M73.76,76.6a.386.386,0,0,0-.45,0l-3.677,3.1a20.851,20.851,0,0,0-6.684-.919l-2.629-3.99a.4.4,0,0,0-.423-.165L54.38,76.053a.377.377,0,0,0-.294.349L53.7,81.165a20.685,20.685,0,0,0-5.4,4.054L43.624,84.3a.377.377,0,0,0-.414.184L40.287,89.42a.4.4,0,0,0,0,.45l3.107,3.677a20.86,20.86,0,0,0-.919,6.684l-3.981,2.629a.386.386,0,0,0-.165.432l1.425,5.516a.414.414,0,0,0,.349.294l4.762.377a20.887,20.887,0,0,0,4.054,5.4L48,119.556a.414.414,0,0,0,.184.423l4.937,2.914a.423.423,0,0,0,.46,0l3.677-3.1a21.016,21.016,0,0,0,6.674.919l2.593,3.953a.377.377,0,0,0,.423.156l5.516-1.425a.386.386,0,0,0,.294-.349l.386-4.762a21,21,0,0,0,5.387-4.054l4.689.919a.377.377,0,0,0,.414-.184l2.914-4.937a.368.368,0,0,0,0-.45l-3.1-3.677a20.6,20.6,0,0,0,.919-6.684l3.99-2.638a.4.4,0,0,0,.165-.423L87.09,90.643a.386.386,0,0,0-.349-.294l-4.762-.386a20.584,20.584,0,0,0-4.054-5.387l.919-4.689a.386.386,0,0,0-.184-.414Z" transform="translate(-38.314 -74.609)" fill="#bbabf5"/>
              <path id="Trazado_116176" data-name="Trazado 116176" d="M65.136,107.167a5.81,5.81,0,0,1-1.627-.239A5.718,5.718,0,0,1,62.387,96.41h0a5.718,5.718,0,1,1,2.758,10.756Zm0-10.2a4.358,4.358,0,0,0-2.124.552h0a4.477,4.477,0,1,0,3.42-.349,4.652,4.652,0,0,0-1.315-.2ZM62.709,96.971Z" transform="translate(-40.014 -76.313)" fill="#bdd0fb"/>
              <path id="Trazado_116177" data-name="Trazado 116177" d="M64.268,115.264a14.47,14.47,0,0,1-3.576-28.5h.092a14.627,14.627,0,0,1,2.593-.4h.4v1.232A13.2,13.2,0,1,0,73.562,91.4l.919-.919a14.479,14.479,0,0,1-6.573,24.307,14.839,14.839,0,0,1-3.641.478Z" transform="translate(-39.238 -75.557)" fill="#bdd0fb"/>
            </g>
          </g>
          <g id="Grupo_56460" data-name="Grupo 56460" transform="translate(0 63.155)">
            <g id="Grupo_56457" data-name="Grupo 56457" transform="translate(12.588 6.683)">
              <path id="Trazado_116178" data-name="Trazado 116178" d="M45.73,143.8a.432.432,0,0,1-.368-.2,15.388,15.388,0,0,0-.919-1.37.432.432,0,0,1,.083-.6.423.423,0,0,1,.6.092,17.056,17.056,0,0,1,.919,1.443.42.42,0,0,1-.313.634Z" transform="translate(-26.637 -141.548)" fill="#7d97f4"/>
              <path id="Trazado_116179" data-name="Trazado 116179" d="M32.84,169.6a.424.424,0,0,1-.064-.846,17.339,17.339,0,0,0,2.133-.469l.827-.267a.425.425,0,0,1,.285.8c-.294.1-.579.193-.919.276a15.93,15.93,0,0,1-2.234.5Zm7.52-3.135a.432.432,0,0,1-.34-.175.414.414,0,0,1,.092-.588,16.99,16.99,0,0,0,2.262-2.059.423.423,0,1,1,.625.57,17.136,17.136,0,0,1-2.39,2.151.4.4,0,0,1-.248.1Zm5.157-6.307a.423.423,0,0,1-.386-.607,16,16,0,0,0,1.048-2.868.423.423,0,0,1,.515-.3.432.432,0,0,1,.3.524,17.936,17.936,0,0,1-1.094,3.061.441.441,0,0,1-.386.193Zm1.6-7.989a.414.414,0,0,1-.423-.4,17.66,17.66,0,0,0-.432-3.015.423.423,0,1,1,.818-.2,17.808,17.808,0,0,1,.46,3.181.432.432,0,0,1-.4.441Z" transform="translate(-25.671 -142.084)" fill="#7d97f4"/>
              <path id="Trazado_116180" data-name="Trazado 116180" d="M27.158,171.366h-.064c-.57-.092-1.14-.211-1.7-.359a.414.414,0,0,1-.294-.515.423.423,0,0,1,.515-.3,15.627,15.627,0,0,0,1.609.34.423.423,0,0,1-.064.837Z" transform="translate(-25.082 -143.857)" fill="#7d97f4"/>
            </g>
            <g id="Grupo_56458" data-name="Grupo 56458">
              <path id="Trazado_116181" data-name="Trazado 116181" d="M14.471,162.8a.4.4,0,0,1-.359-.2,16.244,16.244,0,0,1-.837-1.517.414.414,0,0,1,.193-.561.423.423,0,0,1,.57.193c.239.5.506.974.791,1.443a.414.414,0,0,1-.138.579.4.4,0,0,1-.221.064Z" transform="translate(-11.539 -136.392)" fill="#7d97f4"/>
              <path id="Trazado_116182" data-name="Trazado 116182" d="M12.015,154.45a.432.432,0,0,1-.423-.359,17.265,17.265,0,0,1-.2-2.666v-.487a.423.423,0,1,1,.846,0v.46a16.755,16.755,0,0,0,.193,2.539.414.414,0,0,1-.35.477Zm.68-7.989a.331.331,0,0,1-.129,0,.423.423,0,0,1-.267-.533,18.388,18.388,0,0,1,1.278-2.887.426.426,0,0,1,.745.414,16.6,16.6,0,0,0-1.223,2.758.414.414,0,0,1-.4.248ZM17,139.7a.432.432,0,0,1-.3-.129.423.423,0,0,1,0-.6,17.521,17.521,0,0,1,2.464-1.967.423.423,0,0,1,.588.129.414.414,0,0,1-.129.579,17.552,17.552,0,0,0-2.344,1.839A.4.4,0,0,1,17,139.7Zm6.95-4a.432.432,0,0,1-.414-.3.423.423,0,0,1,.294-.524,16.924,16.924,0,0,1,3.1-.6.432.432,0,0,1,.46.377.414.414,0,0,1-.377.46,16.264,16.264,0,0,0-2.951.579Z" transform="translate(-11.39 -134.279)" fill="#7d97f4"/>
              <path id="Trazado_116183" data-name="Trazado 116183" d="M35.372,135.821h-.129a16.172,16.172,0,0,0-1.59-.414.423.423,0,0,1,.165-.827,17.174,17.174,0,0,1,1.673.432.423.423,0,0,1,.285.524A.432.432,0,0,1,35.372,135.821Z" transform="translate(-13.161 -134.303)" fill="#7d97f4"/>
            </g>
            <g id="Grupo_56459" data-name="Grupo 56459" transform="translate(4.445 4.363)">
              <path id="Trazado_116184" data-name="Trazado 116184" d="M34.4,140.059a.193.193,0,0,0-.23,0l-1.839,1.59a10.674,10.674,0,0,0-3.429-.487l-1.351-2.05a.221.221,0,0,0-.221-.083l-2.85.735a.184.184,0,0,0-.147.184l-.2,2.445a10.508,10.508,0,0,0-2.758,2.078l-2.409-.487a.193.193,0,0,0-.211.092l-1.5,2.537a.193.193,0,0,0,0,.23l1.59,1.839a10.71,10.71,0,0,0-.487,3.429l-2.05,1.351a.221.221,0,0,0-.083.221l.735,2.85a.2.2,0,0,0,.184.156l2.445.193a10.508,10.508,0,0,0,2.078,2.758l-.487,2.409a.193.193,0,0,0,.092.211l2.464,1.563a.193.193,0,0,0,.23,0l1.839-1.59a10.71,10.71,0,0,0,3.429.487l1.388,2.023a.2.2,0,0,0,.221.083l2.85-.735a.2.2,0,0,0,.156-.175l.193-2.445a10.738,10.738,0,0,0,2.758-2.087l2.409.487a.193.193,0,0,0,.211-.092l1.5-2.537a.193.193,0,0,0,0-.23l-1.59-1.839a10.674,10.674,0,0,0,.487-3.429l2.05-1.351a.2.2,0,0,0,.083-.221l-.735-2.85a.184.184,0,0,0-.175-.147l-2.445-.2a10.738,10.738,0,0,0-2.087-2.758L37,141.806a.193.193,0,0,0-.092-.211Z" transform="translate(-16.225 -139.025)" fill="#bbabf5"/>
              <path id="Trazado_116185" data-name="Trazado 116185" d="M29.894,156.034a3.522,3.522,0,0,1-.919-.129,3.227,3.227,0,0,1-1.94-1.563,3.264,3.264,0,0,1-.267-2.473,3.227,3.227,0,0,1,1.563-1.94h0a3.252,3.252,0,1,1,1.563,6.1Zm0-5.231a2.069,2.069,0,0,0-.919.239h0a2,2,0,1,0,.947-.239Zm-1.25-.313Z" transform="translate(-17.065 -139.868)" fill="#bdd0fb"/>
              <path id="Trazado_116186" data-name="Trazado 116186" d="M29.475,160.2a7.741,7.741,0,0,1-1.931-15.224h0a7.289,7.289,0,0,1,1.535-.23h.092l.055,1.269a6.325,6.325,0,0,0-1.37.2h0a6.482,6.482,0,1,0,6.169,1.673l.919-.919A7.75,7.75,0,0,1,29.5,160.222Z" transform="translate(-16.673 -139.487)" fill="#bdd0fb"/>
            </g>
          </g>
        </g>
        <g id="Grupo_56466" data-name="Grupo 56466" transform="translate(25.47 143.035)">
          <path id="Trazado_116187" data-name="Trazado 116187" d="M64.58,279.25s-.377,2.17-.57,4.312a1.48,1.48,0,0,0,1.416,1.6c2.85.12,8.954.349,11.142.248a.478.478,0,0,0,.423-.653h0a1.066,1.066,0,0,0-.552-.579l-10.113-4.6Z" transform="translate(-41.104 -175.54)" fill="url(#linear-gradient-17)"/>
          <path id="Trazado_116188" data-name="Trazado 116188" d="M64.29,277.835l.3,2.592s1.774.818,2.979-.11l-.735-2.878Z" transform="translate(-41.127 -175.394)" fill="url(#linear-gradient-18)"/>
          <path id="Trazado_116189" data-name="Trazado 116189" d="M63.842,224.939c-.129.671-.708,33.73,2.822,48.541a.506.506,0,0,1-.294.588,8.872,8.872,0,0,1-2.878.588.919.919,0,0,1-.855-.625c-1.011-3.438-5.856-20.657-6.435-37.113-.708-18.387,0-.625,0-.625l.414-11.363Z" transform="translate(-40.449 -171.158)" fill="url(#linear-gradient-19)"/>
          <path id="Trazado_116190" data-name="Trazado 116190" d="M51.894,280.48a15.629,15.629,0,0,0-1.2,4,.919.919,0,0,0,.791,1.076c.919.092,2.39.211,3.549.2a.919.919,0,0,0,.919-1,7.594,7.594,0,0,0-1.765-4.146Z" transform="translate(-40.03 -175.639)" fill="url(#linear-gradient-20)"/>
          <path id="Trazado_116191" data-name="Trazado 116191" d="M51.44,276.847l.717,3.916a2.556,2.556,0,0,0,2.114.147l-.349-4.211Z" transform="translate(-40.09 -175.334)" fill="url(#linear-gradient-21)"/>
          <path id="Trazado_116192" data-name="Trazado 116192" d="M49.233,225.843c-2.887,17.467.625,43.108,1.839,48.127a.791.791,0,0,0,.616.6,5.231,5.231,0,0,0,2.262-.092.708.708,0,0,0,.515-.662c.156-4.054-.129-28.987,2.565-38.842a2.243,2.243,0,0,1,.864-1.241l5.222-3.677.4-6Z" transform="translate(-39.823 -171.087)" fill="url(#linear-gradient-22)"/>
          <g id="Grupo_56462" data-name="Grupo 56462" transform="translate(8.329 8.332)">
            <path id="Trazado_116193" data-name="Trazado 116193" d="M67.649,189.966a81.657,81.657,0,0,0-18.221,2.28c-2.574,15.059-.45,32.434-.45,32.434,6.711,1.756,14.268-1.076,14.268-1.076,1.122-6.3,6.316-24.013,6.316-24.013a28.5,28.5,0,0,0,10.627-3.365,18.469,18.469,0,0,1-3.677-7.676,28.859,28.859,0,0,1-8.862,1.416Z" transform="translate(-48.154 -176.556)" fill="url(#linear-gradient-23)"/>
            <path id="Trazado_116194" data-name="Trazado 116194" d="M95.72,176.162a1.655,1.655,0,0,0-1.931-.542C92.512,181,85.828,185.365,78.97,187.5a18.47,18.47,0,0,0,3.677,7.676C94.029,188.766,95.72,176.162,95.72,176.162Z" transform="translate(-50.64 -175.503)" fill="url(#linear-gradient-24)"/>
          </g>
          <g id="Grupo_56463" data-name="Grupo 56463" transform="translate(51.53)">
            <path id="Trazado_116195" data-name="Trazado 116195" d="M96.85,175.688c.092.285-.919.717-1.544-.441,0-.561-.359-2.933,0-3.383a44.129,44.129,0,0,1,5.185-5.424.809.809,0,0,1,.1,1.131L98.937,169.3a8.476,8.476,0,0,1,.919,1.912,2.381,2.381,0,0,1-.23,1.719c-.294.524-.69,1.2-1.066,1.738a2.3,2.3,0,0,1-1.71,1.02Z" transform="translate(-95.147 -166.44)" fill="url(#linear-gradient-25)"/>
            <path id="Trazado_116196" data-name="Trazado 116196" d="M98.235,170.77l-1.517,1.287-.478,1.278,1.351,1.489a17.192,17.192,0,0,1,.791-3.08C98.722,171.193,98.548,170.981,98.235,170.77Z" transform="translate(-95.235 -166.789)" fill="url(#linear-gradient-26)"/>
          </g>
          <path id="Trazado_116197" data-name="Trazado 116197" d="M52.042,200.954l-3.328-8.384s-8.09,5.516-9.414,12.457a19.251,19.251,0,0,1,7.079,1.894C46.93,203.63,52.042,200.954,52.042,200.954Z" transform="translate(-39.111 -168.548)" fill="url(#linear-gradient-27)"/>
          <path id="Trazado_116198" data-name="Trazado 116198" d="M59.1,209.935s-9.083,5.13-12.154.754a3.447,3.447,0,0,1-.625-2.675,19.251,19.251,0,0,0-7.033-1.894,9.625,9.625,0,0,0,1.039,6.6c5.369,9.818,19.968-.542,19.968-.542Z" transform="translate(-39.095 -169.641)" fill="url(#linear-gradient-28)"/>
          <g id="Grupo_56464" data-name="Grupo 56464" transform="translate(18.896 26.361)">
            <path id="Trazado_116199" data-name="Trazado 116199" d="M59.659,215.686l4.955-17.311a.515.515,0,0,1,.432-.359c.919-.1,3.493-.4,6.5-.653A74.143,74.143,0,0,1,81.879,197a.5.5,0,0,1,.414.726c-1.425,2.887-7.3,14.645-10.241,18.5a.506.506,0,0,1-.414.193l-11.5-.11a.515.515,0,0,1-.478-.616Z" transform="translate(-59.649 -195.262)" fill="url(#linear-gradient-29)"/>
            <path id="Trazado_116200" data-name="Trazado 116200" d="M73.113,195.717l3.595-.6a.248.248,0,0,1,.285.331l-.34,1.076a.276.276,0,0,1-.211.175l-3.457.469a.257.257,0,0,1-.285-.322l.211-.919a.267.267,0,0,1,.2-.211Z" transform="translate(-60.701 -195.114)" fill="url(#linear-gradient-30)"/>
            <path id="Trazado_116201" data-name="Trazado 116201" d="M70.22,198.854l.3-1.544a.34.34,0,0,1,.313-.285l7.254-.745a.359.359,0,0,1,.386.441l-.46,1.921a.359.359,0,0,1-.331.276l-7.1.359a.368.368,0,0,1-.368-.423Z" transform="translate(-60.501 -195.208)" fill="url(#linear-gradient-31)"/>
            <path id="Trazado_116202" data-name="Trazado 116202" d="M60.958,212.272s-.689-2.841-.414-3.852.818-2.3,2.62-2.013a25.834,25.834,0,0,1,3.926,1.048,1.03,1.03,0,0,1-1.48.919l.846.662s-.12,1.048-1.269.487l.781.919a.919.919,0,0,1-1.333.184C63.716,210.111,63.33,212.612,60.958,212.272Z" transform="translate(-59.716 -196.021)" fill="url(#linear-gradient-32)"/>
          </g>
          <path id="Trazado_116203" data-name="Trazado 116203" d="M59.576,182.44l-2.758,7.971a.285.285,0,0,0,.129.349,6.481,6.481,0,0,0,6.72-.45,1.379,1.379,0,0,0,.671-.919l.919-6.9Z" transform="translate(-40.523 -167.731)" fill="url(#linear-gradient-33)"/>
          <g id="Grupo_56465" data-name="Grupo 56465" transform="translate(13.799 3.18)">
            <path id="Trazado_116204" data-name="Trazado 116204" d="M65.72,174.42s3.025,5.691,2.638,8-4.137,2.133-7.41.267l-2.289-6.15Z" transform="translate(-54.471 -170.264)" fill="url(#linear-gradient-34)"/>
            <path id="Trazado_116205" data-name="Trazado 116205" d="M60.72,179.3a.23.23,0,0,0,.1-.34,6.435,6.435,0,0,1-.837-1.793s-.542-.349,1.379-.809,4.808-1.177,5.415-2.822-.919-5.626-3.429-2.418a.239.239,0,0,1-.377,0,2.409,2.409,0,0,0-2.942-.919,2.225,2.225,0,0,0-1.526,2.151.23.23,0,0,1-.276.239,2.7,2.7,0,0,0-3.162,1.471c-.644,1.416-.221,2.225.156,2.611a.239.239,0,0,1-.1.4,1.407,1.407,0,0,0-.993,1.609c.083,1.48,1.747,1.351,2.225,1.287a.23.23,0,0,1,.2.074c.414.45,2.243,2.353,4.22,2.593a.239.239,0,0,0,.248-.322l-.855-2.491a.23.23,0,0,1,.129-.285Z" transform="translate(-54.104 -169.899)" fill="url(#linear-gradient-35)"/>
            <path id="Trazado_116206" data-name="Trazado 116206" d="M61.476,180.446s-2.16-1.48-2.317-.239,1.94,1.839,2.979,1.342Z" transform="translate(-54.511 -170.691)" fill="url(#linear-gradient-36)"/>
          </g>
        </g>
        <g id="Grupo_56476" data-name="Grupo 56476" transform="translate(129.166 83.485)">
          <g id="Grupo_56470" data-name="Grupo 56470">
            <g id="Grupo_56467" data-name="Grupo 56467" transform="translate(31.692 17.047)">
              <path id="Trazado_116207" data-name="Trazado 116207" d="M236.331,122.435a.432.432,0,0,1-.349-.184c-.3-.46-.634-.919-.919-1.37a.423.423,0,0,1,.083-.588.432.432,0,0,1,.6.083c.34.46.671.919.984,1.4a.423.423,0,0,1-.11.588A.46.46,0,0,1,236.331,122.435Z" transform="translate(-190.284 -120.208)" fill="#7d97f4"/>
              <path id="Trazado_116208" data-name="Trazado 116208" d="M197.673,189.147h0c-1.112,0-2.234-.064-3.337-.156a.432.432,0,0,1-.386-.46.423.423,0,0,1,.46-.386c1.085.092,2.179.147,3.264.156a.423.423,0,1,1,0,.846Zm5.36-.294a.424.424,0,0,1-.046-.846c1.076-.129,2.17-.3,3.236-.515a.414.414,0,0,1,.5.331.423.423,0,0,1-.331.5c-1.094.211-2.2.4-3.3.524Zm8.458-1.912a.414.414,0,0,1-.4-.285.4.4,0,0,1,.267-.533c1.03-.349,2.059-.735,3.061-1.158a.423.423,0,0,1,.552.221.414.414,0,0,1-.23.552c-1.011.432-2.069.837-3.117,1.186a.358.358,0,0,1-.165.018Zm7.9-3.567a.423.423,0,0,1-.211-.791c.919-.542,1.839-1.14,2.758-1.756a.414.414,0,0,1,.588.1.423.423,0,0,1-.11.588c-.919.634-1.839,1.241-2.813,1.839a.359.359,0,0,1-.211.018Zm7-5.111a.45.45,0,0,1-.322-.138.423.423,0,0,1,0-.6c.8-.726,1.59-1.5,2.344-2.289a.432.432,0,0,1,.6,0,.423.423,0,0,1,0,.6c-.763.809-1.563,1.59-2.39,2.335a.386.386,0,0,1-.23.092Zm5.8-6.435a.4.4,0,0,1-.248-.083.414.414,0,0,1-.092-.588c.644-.919,1.25-1.839,1.839-2.758a.421.421,0,1,1,.717.441c-.588.919-1.214,1.839-1.839,2.758A.4.4,0,0,1,232.185,171.827Zm4.376-7.474a.414.414,0,0,1-.175-.046.423.423,0,0,1-.211-.561,26.8,26.8,0,0,0,1.241-3.025.426.426,0,0,1,.8.294c-.386,1.039-.809,2.078-1.269,3.089a.423.423,0,0,1-.386.248Zm2.758-8.219h-.1a.414.414,0,0,1-.313-.506c.239-1.057.441-2.142.6-3.218a.432.432,0,0,1,.478-.359.423.423,0,0,1,.359.478c-.156,1.1-.368,2.206-.616,3.291a.4.4,0,0,1-.386.313Zm1.039-8.6h0a.414.414,0,0,1-.414-.432v-.689c0-.864,0-1.728-.083-2.583a.432.432,0,0,1,.4-.45.423.423,0,0,1,.441.4c.055.864.083,1.747.083,2.629v.708a.423.423,0,0,1-.414.414ZM239.6,138.9a.423.423,0,0,1-.414-.349c-.2-1.057-.45-2.133-.745-3.19a.423.423,0,0,1,.3-.515.414.414,0,0,1,.515.294c.294,1.076.552,2.17.754,3.254a.423.423,0,0,1-.331.5Zm-2.482-8.274a.4.4,0,0,1-.386-.257c-.423-1.011-.919-2-1.37-2.979a.4.4,0,0,1,.184-.561.414.414,0,0,1,.57.184c.5.984.919,2,1.4,3.034a.432.432,0,0,1-.23.552.525.525,0,0,1-.147-.009Z" transform="translate(-186.974 -120.738)" fill="#7d97f4"/>
              <path id="Trazado_116209" data-name="Trazado 116209" d="M188.429,193.462h-.092c-.561-.129-1.122-.257-1.664-.4a.414.414,0,0,1-.294-.515.423.423,0,0,1,.515-.3c.524.138,1.076.276,1.627.4a.423.423,0,0,1,.322.506.432.432,0,0,1-.414.322Z" transform="translate(-186.362 -126.018)" fill="#7d97f4"/>
            </g>
            <g id="Grupo_56468" data-name="Grupo 56468">
              <path id="Trazado_116210" data-name="Trazado 116210" d="M159.107,172.578a.432.432,0,0,1-.368-.2c-.294-.478-.588-.974-.864-1.471a.423.423,0,0,1,.156-.579.432.432,0,0,1,.579.165c.276.487.561.965.855,1.443a.432.432,0,0,1-.138.579A.4.4,0,0,1,159.107,172.578Z" transform="translate(-152.368 -107.199)" fill="#7d97f4"/>
              <path id="Trazado_116211" data-name="Trazado 116211" d="M155.466,160.81a.441.441,0,0,1-.4-.267c-.4-1.011-.791-2.05-1.122-3.089a.424.424,0,0,1,.809-.257c.322,1.02.7,2.041,1.1,3.025a.423.423,0,0,1-.239.552A.3.3,0,0,1,155.466,160.81Zm-2.418-8.182a.414.414,0,0,1-.414-.34c-.211-1.076-.377-2.17-.5-3.254a.425.425,0,1,1,.846-.092c.12,1.057.276,2.133.478,3.181a.423.423,0,0,1-.34.5Zm-.745-8.495h0a.432.432,0,0,1-.414-.432c0-1.094.074-2.2.175-3.282a.424.424,0,1,1,.846.074c-.1,1.066-.156,2.151-.175,3.218a.432.432,0,0,1-.432.441Zm.993-8.476H153.2a.414.414,0,0,1-.322-.506c.23-1.066.515-2.133.827-3.181a.423.423,0,0,1,.533-.276.414.414,0,0,1,.276.524c-.3,1.02-.579,2.069-.809,3.117a.423.423,0,0,1-.414.34Zm2.666-8.1a.358.358,0,0,1-.165,0,.423.423,0,0,1-.221-.561c.45-.993.919-1.986,1.453-2.942a.423.423,0,1,1,.745.4c-.506.919-.984,1.912-1.425,2.9a.414.414,0,0,1-.386.23Zm4.229-7.355a.4.4,0,0,1-.239-.083.414.414,0,0,1-.1-.588c.634-.919,1.315-1.765,2.013-2.6a.423.423,0,0,1,.644.542c-.68.827-1.342,1.682-1.967,2.556a.432.432,0,0,1-.349.147Zm5.626-6.435a.441.441,0,0,1-.313-.138.423.423,0,0,1,0-.6c.8-.745,1.636-1.462,2.491-2.142a.414.414,0,0,1,.588.064.423.423,0,0,1-.064.6c-.837.662-1.655,1.37-2.445,2.105a.414.414,0,0,1-.294.11Zm6.8-5.148a.432.432,0,0,1-.368-.2.423.423,0,0,1,.147-.579c.919-.57,1.894-1.1,2.868-1.6a.423.423,0,0,1,.57.184.432.432,0,0,1-.184.57c-.919.487-1.9,1.011-2.822,1.563a.359.359,0,0,1-.211.064Zm7.695-3.677a.423.423,0,0,1-.147-.827c.827-.294,1.664-.57,2.51-.809l.625-.175a.423.423,0,1,1,.221.809l-.607.175c-.827.239-1.655.506-2.464.8a.368.368,0,0,1-.138.037Zm8.274-2.068a.424.424,0,0,1-.064-.846c1.076-.156,2.179-.276,3.264-.349a.424.424,0,1,1,.064.846c-1.066.074-2.151.184-3.208.34Zm11.758-.055h-.064c-1.057-.138-2.133-.248-3.2-.313a.423.423,0,1,1,0-.837c1.085.055,2.188.165,3.273.313a.424.424,0,1,1-.055.846Z" transform="translate(-151.89 -101.665)" fill="#7d97f4"/>
              <path id="Trazado_116212" data-name="Trazado 116212" d="M211.819,104.465h-.129q-.8-.248-1.6-.469a.423.423,0,1,1,.211-.818c.552.147,1.1.3,1.646.478a.414.414,0,0,1,.276.524.423.423,0,0,1-.4.285Z" transform="translate(-156.558 -101.786)" fill="#7d97f4"/>
            </g>
            <g id="Grupo_56469" data-name="Grupo 56469" transform="translate(10.326 10.534)">
              <path id="Trazado_116213" data-name="Trazado 116213" d="M208.977,115.676a.515.515,0,0,0-.588.055l-4.707,4.008a26.937,26.937,0,0,0-8.642-1.232l-3.411-5.157a.515.515,0,0,0-.552-.211l-7.18,1.839a.5.5,0,0,0-.377.45l-.5,6.16a26.853,26.853,0,0,0-6.978,5.249l-6.058-1.241a.524.524,0,0,0-.542.239l-3.769,6.435a.515.515,0,0,0,.046.588l4.008,4.707a26.936,26.936,0,0,0-1.223,8.642l-5.157,3.411a.5.5,0,0,0-.211.542l1.839,7.189a.5.5,0,0,0,.45.377l6.16.5a27.35,27.35,0,0,0,5.24,6.978l-1.232,6.058a.5.5,0,0,0,.239.533l6.38,3.778a.5.5,0,0,0,.588-.055l4.716-4.008a26.845,26.845,0,0,0,8.633,1.232l3.411,5.157a.506.506,0,0,0,.552.211l7.18-1.839a.515.515,0,0,0,.386-.45l.487-6.16a26.854,26.854,0,0,0,6.978-5.249l6.058,1.241a.515.515,0,0,0,.542-.239l3.778-6.435a.515.515,0,0,0,0-.588l-4.008-4.707a26.937,26.937,0,0,0,1.223-8.642l5.157-3.4a.506.506,0,0,0,.211-.552l-1.839-7.189a.506.506,0,0,0-.45-.377l-6.16-.5a26.937,26.937,0,0,0-5.24-6.969L215.651,120a.5.5,0,0,0-.239-.552Z" transform="translate(-163.123 -113.123)" fill="#fda551"/>
              <path id="Trazado_116214" data-name="Trazado 116214" d="M197.858,155.04a7.235,7.235,0,1,1,3.448-.919A7.235,7.235,0,0,1,197.858,155.04Zm0-13.174a5.939,5.939,0,1,0,5.849,4.954,5.948,5.948,0,0,0-5.849-4.954Z" transform="translate(-165.334 -115.337)" fill="#bdd0fb"/>
              <path id="Trazado_116215" data-name="Trazado 116215" d="M196.793,165.52a18.531,18.531,0,0,1-4.624-36.479h0a18.479,18.479,0,0,1,3.521-.561h.386l.046,1.269a17.467,17.467,0,0,0-3.631.533l-.441.12h0a17.173,17.173,0,0,0-9.524,6.831c-.211.3-.4.625-.6.919a17.258,17.258,0,1,0,27.01-3.493l.919-.919a18.534,18.534,0,0,1-13.027,31.708Z" transform="translate(-164.343 -114.362)" fill="#bdd0fb"/>
            </g>
          </g>
          <g id="Grupo_56474" data-name="Grupo 56474" transform="translate(72.93 59.439)">
            <g id="Grupo_56471" data-name="Grupo 56471" transform="translate(16.188 8.814)">
              <path id="Trazado_116216" data-name="Trazado 116216" d="M275.192,178.116a.441.441,0,0,1-.359-.193c-.285-.469-.607-.919-.919-1.37a.432.432,0,0,1,.074-.561.423.423,0,0,1,.6.092c.34.46.662.919.965,1.425a.414.414,0,0,1-.359.644Z" transform="translate(-250.845 -175.908)" fill="#7d97f4"/>
              <path id="Trazado_116217" data-name="Trazado 116217" d="M257.1,211.921a.423.423,0,0,1,0-.846,22.3,22.3,0,0,0,3.291-.524.423.423,0,0,1,.506.313.414.414,0,0,1-.313.506,21.548,21.548,0,0,1-3.42.552Zm8.5-2.482a.423.423,0,0,1-.193-.8,21.257,21.257,0,0,0,2.8-1.784.414.414,0,0,1,.6.083.423.423,0,0,1-.083.588,21.512,21.512,0,0,1-2.923,1.839A.4.4,0,0,1,265.607,209.439Zm6.812-5.672a.487.487,0,0,1-.267-.092.423.423,0,0,1-.064-.6,20.776,20.776,0,0,0,1.839-2.758.432.432,0,0,1,.579-.156.423.423,0,0,1,.156.579,22.364,22.364,0,0,1-1.931,2.868A.413.413,0,0,1,272.419,203.766Zm3.981-7.925h-.12a.423.423,0,0,1-.294-.524,21.833,21.833,0,0,0,.607-3.273.423.423,0,1,1,.837.092,22.593,22.593,0,0,1-.625,3.4.432.432,0,0,1-.4.322Zm.487-8.844a.423.423,0,0,1-.414-.368,21.273,21.273,0,0,0-.616-2.758l-.138-.46a.414.414,0,0,1,.276-.524.423.423,0,0,1,.533.276l.138.478a22.313,22.313,0,0,1,.644,2.9.423.423,0,0,1-.359.478Z" transform="translate(-249.461 -176.469)" fill="#7d97f4"/>
              <path id="Trazado_116218" data-name="Trazado 116218" d="M250.944,214.075h-.12c-.561-.1-1.131-.23-1.682-.368a.432.432,0,0,1-.3-.515.423.423,0,0,1,.515-.3c.533.138,1.085.257,1.627.349a.424.424,0,1,1-.074.846Z" transform="translate(-248.827 -178.89)" fill="#7d97f4"/>
            </g>
            <g id="Grupo_56472" data-name="Grupo 56472">
              <path id="Trazado_116219" data-name="Trazado 116219" d="M235.04,203.117a.4.4,0,0,1-.359-.2c-.3-.478-.588-.984-.855-1.5a.432.432,0,0,1,.184-.57.423.423,0,0,1,.57.184c.257.5.533.975.818,1.443a.414.414,0,0,1-.138.579.4.4,0,0,1-.221.064Z" transform="translate(-231.426 -169.101)" fill="#7d97f4"/>
              <path id="Trazado_116220" data-name="Trazado 116220" d="M232.139,193.771a.423.423,0,0,1-.414-.331,21.851,21.851,0,0,1-.506-3.365.423.423,0,0,1,.386-.45.432.432,0,0,1,.46.386,20.491,20.491,0,0,0,.487,3.245.423.423,0,0,1-.322.506Zm-.2-8.715h-.074a.414.414,0,0,1-.34-.487,22.6,22.6,0,0,1,.855-3.3.423.423,0,0,1,.542-.257.414.414,0,0,1,.257.533,22.063,22.063,0,0,0-.827,3.172.423.423,0,0,1-.414.34Zm3.236-8.1a.414.414,0,0,1-.23-.064.423.423,0,0,1-.12-.588,21.015,21.015,0,0,1,2.078-2.694.423.423,0,1,1,.625.561,22.908,22.908,0,0,0-2,2.593.4.4,0,0,1-.359.193Zm6.15-6.178a.423.423,0,0,1-.359-.193.432.432,0,0,1,.12-.588,22.982,22.982,0,0,1,2.979-1.655.432.432,0,0,1,.561.211.423.423,0,0,1-.2.561,21.275,21.275,0,0,0-2.868,1.59.423.423,0,0,1-.239.074Zm8.081-3.264a.423.423,0,0,1-.414-.34.432.432,0,0,1,.34-.5,20.915,20.915,0,0,1,3.392-.359.423.423,0,1,1,0,.846,21.591,21.591,0,0,0-3.254.34Z" transform="translate(-231.219 -166.32)" fill="#7d97f4"/>
              <path id="Trazado_116221" data-name="Trazado 116221" d="M262.09,168.179h-.12c-.533-.165-1.066-.313-1.6-.432a.423.423,0,0,1-.322-.506.432.432,0,0,1,.506-.322c.552.129,1.112.276,1.664.45a.423.423,0,0,1-.129.827Z" transform="translate(-233.544 -166.368)" fill="#7d97f4"/>
            </g>
            <g id="Grupo_56473" data-name="Grupo 56473" transform="translate(5.465 5.626)">
              <path id="Trazado_116222" data-name="Trazado 116222" d="M260.732,173.773a.248.248,0,0,0-.3,0l-2.418,2.059a13.789,13.789,0,0,0-4.44-.625l-1.756-2.657a.248.248,0,0,0-.276-.1l-3.677.919a.267.267,0,0,0-.193.23l-.257,3.163a13.855,13.855,0,0,0-3.576,2.694l-3.117-.634a.257.257,0,0,0-.276.129l-1.94,3.273a.267.267,0,0,0,0,.3l2.059,2.418a14.066,14.066,0,0,0-.634,4.44l-2.648,1.747a.276.276,0,0,0-.11.285l.919,3.677a.267.267,0,0,0,.23.193l3.162.257a13.855,13.855,0,0,0,2.694,3.576l-.634,3.117a.267.267,0,0,0,.12.276l3.282,1.94a.267.267,0,0,0,.3,0l2.418-2.059a14.066,14.066,0,0,0,4.44.634l1.747,2.648a.267.267,0,0,0,.285.11l3.677-.919a.267.267,0,0,0,.2-.23l.248-3.163a14.057,14.057,0,0,0,3.585-2.694l3.117.634a.285.285,0,0,0,.276-.12l1.931-3.282a.258.258,0,0,0,0-.3l-2.059-2.418a13.789,13.789,0,0,0,.625-4.44l2.648-1.747a.257.257,0,0,0,.11-.285l-.919-3.677a.267.267,0,0,0-.23-.2l-3.163-.248a14.057,14.057,0,0,0-2.694-3.585l.634-3.117a.267.267,0,0,0-.129-.276Z" transform="translate(-237.163 -172.439)" fill="#bbabf5"/>
              <path id="Trazado_116223" data-name="Trazado 116223" d="M254.971,194.288a4.054,4.054,0,1,1,1.912-.5,3.925,3.925,0,0,1-1.912.5Zm0-6.775a2.758,2.758,0,0,0-1.315.34h0a2.716,2.716,0,1,0,2.087-.276,2.877,2.877,0,0,0-.781-.083Zm-1.618-.211Z" transform="translate(-238.27 -173.548)" fill="#bdd0fb"/>
              <path id="Trazado_116224" data-name="Trazado 116224" d="M254.427,199.66a9.855,9.855,0,0,1-9.524-7.355,9.753,9.753,0,0,1-.313-2.445,9.855,9.855,0,0,1,7.355-9.524h.074a9.635,9.635,0,0,1,1.774-.276h.221l.055,1.269a8.577,8.577,0,0,0-8.154,9.69,7.57,7.57,0,0,0,.193.993,8.559,8.559,0,1,0,14.3-8.21l.919-.919a9.837,9.837,0,0,1-6.9,16.824Z" transform="translate(-237.762 -173.054)" fill="#bdd0fb"/>
            </g>
          </g>
          <g id="Grupo_56475" data-name="Grupo 56475" transform="translate(21.52 70.536)">
            <path id="Trazado_116225" data-name="Trazado 116225" d="M201.663,184.305S190.787,198.233,203.2,212.4l4.67-.432s-8.982-14.424-4.983-25.925l6.61.487,3.677-2.39Z" transform="translate(-177.069 -178.854)" fill="url(#linear-gradient-37)"/>
            <path id="Trazado_116226" data-name="Trazado 116226" d="M208.54,258.187s8.816,19.214,13.441,27.175c0,0,.919,5,0,6.582l-.781.349,3.677-.11s.322-6.739.074-7.116a.919.919,0,0,0-.763-.349s-1.563-12.411-6.1-15.059l-4.394-15.151Z" transform="translate(-177.979 -184.53)" fill="url(#linear-gradient-38)"/>
            <path id="Trazado_116227" data-name="Trazado 116227" d="M220.61,295.878a43.619,43.619,0,0,0,4.4,0,1.232,1.232,0,0,0,1.186-.974l1.177-6.16a1.122,1.122,0,0,0-.846-1.287l-.653-.147a3.5,3.5,0,0,0-.644,2.491c.294,1.2.561,4.33-.184,4.689a10.736,10.736,0,0,1-2.878.432S220.656,295.088,220.61,295.878Z" transform="translate(-178.953 -187.176)" fill="url(#linear-gradient-39)"/>
            <path id="Trazado_116228" data-name="Trazado 116228" d="M199.435,296.468a.322.322,0,0,0,.156.607c2.6,0,8.43-.11,8.945-.322.662-.276-.248-2.684-1.2-3.493l-5.3,1.728Z" transform="translate(-177.231 -187.656)" fill="url(#linear-gradient-40)"/>
            <path id="Trazado_116229" data-name="Trazado 116229" d="M197.66,257.18s5.7,27.58,7.355,32.931l-3.815,2.4s1.912-.331,3.328-.432a5.006,5.006,0,0,0,2.758-1.728l-.46-.726S205.4,262.209,205.75,259.1Z" transform="translate(-177.102 -184.746)" fill="url(#linear-gradient-41)"/>
            <path id="Trazado_116230" data-name="Trazado 116230" d="M181.717,186.535s-.791,14.342,12.264,21.669l-3.144,7.162s-11.813-7.143-11.381-26.661a2.216,2.216,0,0,0-.552-1.526l-2.51-2.914a4.532,4.532,0,0,1-.965-4.036l.331-1.324a.69.69,0,0,1,1.011-.423l.267.147a4.6,4.6,0,0,1,1.894,2.105l1.232,2.758a2.657,2.657,0,0,0,2.648,1.563l.763-.074Z" transform="translate(-175.298 -178.39)" fill="url(#linear-gradient-42)"/>
            <path id="Trazado_116231" data-name="Trazado 116231" d="M194.858,209.649c2.179.607,9.579,2.547,14.195,2.473l-2.832,16,.221,2.611h-9.193a72.513,72.513,0,0,0-4.661-9.065c-.588-.864-.147-1.9.184-2.905l-.46-.3a1.269,1.269,0,0,1-.5-1.443l2.252-6.886a.68.68,0,0,1,.791-.478Z" transform="translate(-176.625 -180.91)" fill="url(#linear-gradient-43)"/>
            <path id="Trazado_116232" data-name="Trazado 116232" d="M196.811,231.022,197,232.6s-2.611,7.824,1.305,26.1c0,0,8.485,2.409,15.463-3.346,0,0-1.967-17.256-2.51-18.056-2.675-4-4.459-4.872-4.459-4.872l-.083-1.728S199.257,232.051,196.811,231.022Z" transform="translate(-176.979 -182.61)" fill="url(#linear-gradient-44)"/>
            <path id="Trazado_116233" data-name="Trazado 116233" d="M200.81,210.53c0-.046,1.931-5.93,1.931-5.93l2.8.257,1.1,6.674S202.244,212.424,200.81,210.53Z" transform="translate(-177.356 -180.504)" fill="url(#linear-gradient-45)"/>
            <path id="Trazado_116234" data-name="Trazado 116234" d="M204.8,194.485c-.184.12-6,2.528-4.753,8.568a1.131,1.131,0,0,0,.644.809,9.947,9.947,0,0,0,4.891.809c3.052-.313,5.047-5.635,4.964-7.18S206.655,193.336,204.8,194.485Z" transform="translate(-177.28 -179.665)" fill="url(#linear-gradient-46)"/>
            <path id="Trazado_116235" data-name="Trazado 116235" d="M206.649,191.987c-.156,0-3.365,1.14-1.774,3.466s2.188,3.677,1.434,4.716-2.2.4-2.068,2.335a1.085,1.085,0,0,1-.46.984c-1.434.965-4.928,3.953-1.471,8.2a1.094,1.094,0,0,1,.129,1.214c-1.02,1.839-3.144,7.152,4.6,10.113s10.37-2.059,11.142-4.054a1.076,1.076,0,0,1,1.048-.671c.837.046,2.023-.1,1.967-1.214a2.758,2.758,0,0,0-.919-1.774,1.066,1.066,0,0,1,.2-1.673,2.05,2.05,0,0,0,1.03-1.3c.46-1.71-.46-6.821-5.36-7.695a1.14,1.14,0,0,1-.919-.864h0a1.048,1.048,0,0,1,.4-1.039,2.758,2.758,0,0,0,.919-3.585,4.027,4.027,0,0,0-3.135-2.381,1.066,1.066,0,0,1-.919-1.269C212.864,193.825,212.561,191.168,206.649,191.987Z" transform="translate(-177.357 -179.474)" fill="url(#linear-gradient-47)"/>
          </g>
        </g>
      </g>
    </g>
  </g>
</svg>
