<svg xmlns="http://www.w3.org/2000/svg" width="99" height="100" viewBox="0 0 99 100">
  <g id="Grupo_55509" data-name="Grupo 55509" transform="translate(-752 -4389)">
    <g id="CF1_iconos_" data-name="CF1_iconos " transform="translate(751.63 4388.661)">
      <ellipse id="Elipse_4474" data-name="Elipse 4474" cx="49.5" cy="50" rx="49.5" ry="50" transform="translate(0.37 0.339)" fill="#bbabf5"/>
      <path id="Trazado_111728" data-name="Trazado 111728" d="M56.081,5.67,17.74,26.829V82.358h6.609V34.764H87.813V82.358h6.609V28.148Z" transform="translate(-6.612 -1.973)" fill="#472ea6"/>
      <g id="Grupo_55478" data-name="Grupo 55478" transform="translate(11.128 37.465)">
        <path id="Trazado_111729" data-name="Trazado 111729" d="M122.39,99.021H129V56.1q-3.261,2.31-6.609,4.406Z" transform="translate(-52.317 -56.1)" fill="#35237d"/>
        <path id="Trazado_111730" data-name="Trazado 111730" d="M17.74,114.137h6.609V101.85q-3.415.837-6.609,1.513Z" transform="translate(-17.74 -71.216)" fill="#35237d"/>
      </g>
      <rect id="Rectángulo_6418" data-name="Rectángulo 6418" width="63.464" height="10.58" transform="translate(17.737 32.784)" fill="#e5e5e5"/>
      <rect id="Rectángulo_6419" data-name="Rectángulo 6419" width="63.464" height="2.645" transform="translate(17.737 36.755)" fill="#cfcfcf"/>
      <rect id="Rectángulo_6420" data-name="Rectángulo 6420" width="13.224" height="5.29" transform="translate(42.86 22.211)" fill="#e5e5e5"/>
      <rect id="Rectángulo_6421" data-name="Rectángulo 6421" width="15.863" height="15.863" transform="translate(60.048 48.654)" fill="#fdb62f"/>
      <rect id="Rectángulo_6422" data-name="Rectángulo 6422" width="5.29" height="5.29" transform="translate(65.331 48.654)" fill="#fd7b2f"/>
      <path id="Trazado_111731" data-name="Trazado 111731" d="M90.8,91.213h15.863V80.5A35.086,35.086,0,0,1,90.8,88.093Z" transform="translate(-30.752 -26.697)" fill="#ffa230"/>
      <rect id="Rectángulo_6423" data-name="Rectángulo 6423" width="15.863" height="15.863" transform="translate(60.048 64.516)" fill="#fdb62f"/>
      <rect id="Rectángulo_6424" data-name="Rectángulo 6424" width="5.29" height="5.29" transform="translate(65.331 64.516)" fill="#fd7b2f"/>
      <path id="Trazado_111732" data-name="Trazado 111732" d="M90.8,114.913h15.863V104.2A35.167,35.167,0,0,1,90.8,111.793Z" transform="translate(-30.752 -34.528)" fill="#ffa230"/>
      <rect id="Rectángulo_6425" data-name="Rectángulo 6425" width="15.863" height="15.863" transform="translate(44.179 64.516)" fill="#fdb62f"/>
      <rect id="Rectángulo_6426" data-name="Rectángulo 6426" width="5.29" height="5.29" transform="translate(49.469 64.516)" fill="#fd7b2f"/>
      <path id="Trazado_111733" data-name="Trazado 111733" d="M67.1,114.913H82.969V104.2A35.22,35.22,0,0,1,67.1,111.78Z" transform="translate(-22.921 -34.528)" fill="#ffa230"/>
      <rect id="Rectángulo_6427" data-name="Rectángulo 6427" width="13.224" height="2.645" transform="translate(42.86 27.501)" fill="#3e8cc7"/>
    </g>
  </g>
</svg>
