<svg xmlns="http://www.w3.org/2000/svg" xmlns:xlink="http://www.w3.org/1999/xlink" width="300" height="300" viewBox="0 0 300 300">
  <defs>
    <linearGradient id="linear-gradient" y1="0.5" x2="1" y2="0.5" gradientUnits="objectBoundingBox">
      <stop offset="0" stop-color="#b5abdb"/>
      <stop offset="1" stop-color="#6c58b8"/>
    </linearGradient>
    <linearGradient id="linear-gradient-2" x1="0" y1="0.499" x2="1" y2="0.499" xlink:href="#linear-gradient"/>
    <linearGradient id="linear-gradient-3" x1="0" y1="0.5" x2="1" y2="0.5" xlink:href="#linear-gradient"/>
    <linearGradient id="linear-gradient-4" y1="0.5" x2="1" y2="0.5" gradientUnits="objectBoundingBox">
      <stop offset="0" stop-color="#f57fa3"/>
      <stop offset="1" stop-color="#ef2a66"/>
    </linearGradient>
    <linearGradient id="linear-gradient-5" x1="0" y1="0.5" x2="1" y2="0.5" xlink:href="#linear-gradient"/>
    <linearGradient id="linear-gradient-6" x1="0" y1="0.499" x2="1" y2="0.499" xlink:href="#linear-gradient"/>
    <linearGradient id="linear-gradient-7" x1="0" y1="0.5" x2="1.001" y2="0.5" xlink:href="#linear-gradient"/>
    <linearGradient id="linear-gradient-8" x1="0" y1="0.5" x2="1.001" y2="0.5" xlink:href="#linear-gradient"/>
    <linearGradient id="linear-gradient-9" x1="0" y1="0.5" x2="1" y2="0.5" xlink:href="#linear-gradient"/>
  </defs>
  <g id="Grupo_55518" data-name="Grupo 55518" transform="translate(-245 -6415)">
    <g id="CF1_empresa" transform="translate(245 6415)">
      <rect id="Rectángulo_6479" data-name="Rectángulo 6479" width="300" height="300" fill="none"/>
      <path id="Trazado_112045" data-name="Trazado 112045" d="M278.47,212.57,262.53,203a4.14,4.14,0,0,1-1.95-3.84q.26-3,.25-6a69.164,69.164,0,0,0-.84-10.95,4.08,4.08,0,0,1,1.93-4.16L278.57,168a4,4,0,0,0,1.53-5.22l-7.84-16a4,4,0,0,0-4.88-2L250.55,151a4,4,0,0,1-4.57-1.34,72.08,72.08,0,0,0-16.52-15.51,4.08,4.08,0,0,1-1.53-4.75l3.74-10.23a4.14,4.14,0,0,0-2-5.08l-15.86-7.76a3.63,3.63,0,0,0-1-.34,4,4,0,0,0-4.23,1.87l-7.19,11.9-1.74,2.9a70.7,70.7,0,0,0-10-.71,72.322,72.322,0,0,0-13.36,1.24,4,4,0,0,1-4.17-1.85L164,107.88a4.11,4.11,0,0,0-5.34-1.57l-12.2,6L143,114a4.15,4.15,0,0,0-2.09,5.16l5.09,14.1a4,4,0,0,1-1.22,4.51A71.47,71.47,0,0,0,134,148.61a12.514,12.514,0,0,0-.81,1,1.812,1.812,0,0,1-.28.33,4.06,4.06,0,0,1-4.39,1l-16.63-6a2.84,2.84,0,0,0-.57-.16,4.13,4.13,0,0,0-4.48,2.19l-7.76,15.8a4.1,4.1,0,0,0,1.56,5.32l16.63,10a4,4,0,0,1,1.89,4.08,72.41,72.41,0,0,0-.83,11q0,3,.24,5.91a4.2,4.2,0,0,1-2,3.92l-16,9.66A4,4,0,0,0,99,217.83l7.77,15.78A4.19,4.19,0,0,0,112,235.7l13.32-4.84a4.09,4.09,0,0,1,4.81,1.57A71.91,71.91,0,0,0,145,248.77a4.08,4.08,0,0,1,1.3,4.61l-5.44,15a4.19,4.19,0,0,0,2.09,5.19l15.73,7.74a4,4,0,0,0,5.24-1.54l.43-.69,8.34-13.83a4.14,4.14,0,0,1,4.29-1.93h0a71.38,71.38,0,0,0,12.59,1.12c2.29,0,4.55-.12,6.8-.33a4,4,0,0,1,3.88,1.93l8.2,13.63a4.19,4.19,0,0,0,5.42,1.6l15.72-7.74a4.511,4.511,0,0,0,1.16-.85,4.16,4.16,0,0,0,.89-4.22l-4.1-11.23a4.11,4.11,0,0,1,1.56-4.79,71.45,71.45,0,0,0,19.94-20,4,4,0,0,1,4.06-1.75,4.162,4.162,0,0,1,.67.18l13.46,4.9a4.11,4.11,0,0,0,5.06-2l.18-.37,7.6-15.4a4.15,4.15,0,0,0-1.6-5.43ZM152.64,182.21a47.691,47.691,0,0,1,3.21-8.3c2.64-5.3,9.16-11.86,14.48-14.48.57-.28,1.13-.55,1.7-.81C206.84,143,240.4,177.16,223.53,212c-2.22,4.55-7.11,9.89-11.88,13.2a26.522,26.522,0,0,1-3.25,1.91,44.35,44.35,0,0,1-14.4,4.26C167.16,234.34,145.07,209.67,152.64,182.21Z" fill="#b5abdb"/>
      <path id="Trazado_112046" data-name="Trazado 112046" d="M280.06,266.31l-3.56-2.15a.91.91,0,0,1-.43-.85c0-.44.05-.89.05-1.34a16.288,16.288,0,0,0-.18-2.44.9.9,0,0,1,.43-.93l3.71-2.24a.89.89,0,0,0,.34-1.17l-1.75-3.56a.88.88,0,0,0-1.08-.44l-3.76,1.37a.88.88,0,0,1-1-.3,15.77,15.77,0,0,0-3.69-3.46.92.92,0,0,1-.34-1.06l.83-2.29a.91.91,0,0,0-.45-1.13l-3.54-1.73a.58.58,0,0,0-.22-.08.88.88,0,0,0-.94.42l-1.61,2.65-.39.65a16.517,16.517,0,0,0-2.24-.16,16.267,16.267,0,0,0-3,.28.89.89,0,0,1-.93-.41l-1.8-3a.92.92,0,0,0-1.19-.35l-2.72,1.34-.78.38a.94.94,0,0,0-.47,1.16l1.14,3.14a.88.88,0,0,1-.28,1,15.631,15.631,0,0,0-2.39,2.42,1.741,1.741,0,0,0-.18.22l-.07.08a.91.91,0,0,1-1,.22l-3.71-1.34h-.12a.94.94,0,0,0-1,.49L240,255.19a.91.91,0,0,0,.35,1.18l3.71,2.24a.88.88,0,0,1,.42.91,16.532,16.532,0,0,0-.18,2.45,11.475,11.475,0,0,0,.05,1.32.92.92,0,0,1-.45.88l-3.57,2.15a.91.91,0,0,0-.34,1.16l1.74,3.52a.94.94,0,0,0,1.16.47l3-1.08a.9.9,0,0,1,1.07.35,16.24,16.24,0,0,0,3.32,3.65.89.89,0,0,1,.29,1l-1.21,3.35a.94.94,0,0,0,.47,1.16l3.51,1.73a.91.91,0,0,0,1.17-.35l.09-.15,1.86-3.09a.92.92,0,0,1,1-.43h0a16.106,16.106,0,0,0,2.8.25,11.054,11.054,0,0,0,1.52-.07.9.9,0,0,1,.87.43l1.83,3a.93.93,0,0,0,1.21.36l3.51-1.73a1.239,1.239,0,0,0,.26-.19.92.92,0,0,0,.19-.94l-.91-2.51a.92.92,0,0,1,.16-.9,1,1,0,0,1,.19-.17,15.92,15.92,0,0,0,4.45-4.47.9.9,0,0,1,.9-.39h.15l3,1.1a.92.92,0,0,0,1.13-.46v-.08l1.69-3.43a.93.93,0,0,0-.35-1.1ZM252,259.53a11.131,11.131,0,0,1,.71-1.85,8.42,8.42,0,0,1,3.23-3.23,3.391,3.391,0,0,1,.39-.18,8.68,8.68,0,0,1,11.49,11.9,8.79,8.79,0,0,1-2.65,2.95,5.761,5.761,0,0,1-.73.43,10,10,0,0,1-3.21.95A8.61,8.61,0,0,1,252,259.53Z" fill="url(#linear-gradient)"/>
      <path id="Trazado_112047" data-name="Trazado 112047" d="M145,99.88l-5.65-2.62a1.37,1.37,0,0,1-.79-1.2,19.358,19.358,0,0,0-.13-2,22.231,22.231,0,0,0-.67-3.6,1.36,1.36,0,0,1,.49-1.46l5.17-3.94a1.33,1.33,0,0,0,.32-1.79l-3.18-5a1.32,1.32,0,0,0-1.69-.47l-5.38,2.63a1.3,1.3,0,0,1-1.56-.28,24.42,24.42,0,0,0-6.06-4.56,1.38,1.38,0,0,1-.68-1.52l.88-3.54a1.41,1.41,0,0,0-.86-1.62l-5.56-2a1,1,0,0,0-.34-.08,1.33,1.33,0,0,0-1.34.77l-2,4.22-.47,1a25.241,25.241,0,0,0-3.36.13,24.16,24.16,0,0,0-4.4.89,1.32,1.32,0,0,1-1.45-.46l-3.17-4.17a1.38,1.38,0,0,0-1.84-.33L97.46,71.3l-1.1.7a1.4,1.4,0,0,0-.51,1.79l2.21,4.5a1.32,1.32,0,0,1-.25,1.54,24.33,24.33,0,0,0-3.18,4,3.612,3.612,0,0,0-.23.36,1.25,1.25,0,0,1-.09.12,1.35,1.35,0,0,1-1.42.5L87.15,83.4h-.2a1.37,1.37,0,0,0-1.41.89l-2,5.53a1.37,1.37,0,0,0,.71,1.71l5.89,2.73a1.36,1.36,0,0,1,.78,1.29A22.909,22.909,0,0,0,91,99.2c.07.66.17,1.32.29,2a1.38,1.38,0,0,1-.53,1.37l-5,3.79a1.34,1.34,0,0,0-.32,1.78l3.16,5a1.39,1.39,0,0,0,1.79.51l4.26-2.09a1.36,1.36,0,0,1,1.65.34,23.73,23.73,0,0,0,5.54,4.9,1.37,1.37,0,0,1,.6,1.49l-1.27,5.18a1.42,1.42,0,0,0,.88,1.65l5.52,2a1.34,1.34,0,0,0,1.68-.71l.12-.24,2.28-4.9a1.37,1.37,0,0,1,1.35-.79h0a23,23,0,0,0,4.22-.08c.77-.08,1.51-.2,2.25-.35a1.34,1.34,0,0,1,1.36.5l3.22,4.23a1.39,1.39,0,0,0,1.86.34l5-3.14a1.35,1.35,0,0,0,.35-.32,1.38,1.38,0,0,0,.15-1.44l-1.77-3.58a1.42,1.42,0,0,1,.09-1.37,1.37,1.37,0,0,1,.26-.28,24.05,24.05,0,0,0,5.91-7.38,1.34,1.34,0,0,1,1.28-.73h.23l4.66,1.14a1.35,1.35,0,0,0,1.6-.86l.05-.12,2-5.4a1.39,1.39,0,0,0-.72-1.76Zm-43-5.55a16,16,0,0,1,.77-2.88,12.66,12.66,0,0,1,4.29-5.34l.54-.33c11-6.45,23.4,3.7,19,15.89a13.2,13.2,0,0,1-3.48,4.82,8,8,0,0,1-1,.75,14.65,14.65,0,0,1-4.63,1.93A12.89,12.89,0,0,1,102,94.33Z" fill="url(#linear-gradient-2)"/>
      <path id="Trazado_112048" data-name="Trazado 112048" d="M179.29,258.89a1.14,1.14,0,0,1,.21,1.24h0a7.83,7.83,0,0,1-2.45,2.69,4.775,4.775,0,0,0-.39.33l-.09.07-.07.07c-1.08,1-.67,1.22-2.61,3.23-2.2,2.3-3.72,2.34-4.15,2.13s.37-1.4,1.2-2.77l.12-.2.32-.54c1-1.65.72-2.42.49-4.88-.18-2-3.1-11.12-3.1-11.12l4.23-.73s1.27,7.27,2.68,8.39c.75.6,1.59.61,2.31,1.05l.15.1a5.16,5.16,0,0,1,1.15.94Z" fill="#fa9960"/>
      <path id="Trazado_112049" data-name="Trazado 112049" d="M179.29,258.89a1.14,1.14,0,0,1,.21,1.24h0a9.141,9.141,0,0,1-2.45,2.68,4.759,4.759,0,0,0-.39.34l-.09.07-.07.07c-1.08,1-.67,1.22-2.61,3.23-2.2,2.3-3.72,2.34-4.15,2.13s.37-1.4,1.2-2.77a9.29,9.29,0,0,0,3.93-2.89c1.33-1.7,2.21-3.88,3.12-5.14l.15.1a5.16,5.16,0,0,1,1.15.94Z" fill="#a4389c"/>
      <path id="Trazado_112050" data-name="Trazado 112050" d="M145.2,256.24c-.26,1.31-2.12,1.09-4.2.58s-1.58.1-4.54-.23-3.85-1.43-3.94-1.87,1.38-.53,2.95-.71l.59-.07c1.77-.22,3.06-1.36,4.67-2.3s3.8-4.51,3.8-4.51l4.05.32s-2.12,3.24-3,4.64a5,5,0,0,0-.4,2.77A4.56,4.56,0,0,1,145.2,256.24Z" fill="#fa9960"/>
      <path id="Trazado_112051" data-name="Trazado 112051" d="M141,256.82c-2.08-.5-1.58.1-4.54-.23s-3.85-1.43-3.94-1.87,1.38-.53,2.95-.71h0a8.32,8.32,0,0,0,4.24,1.32c2,0,4.13-.53,5.51-.5a4.56,4.56,0,0,1,0,1.38C144.94,257.55,143.08,257.33,141,256.82Z" fill="#a4389c"/>
      <path id="Trazado_112052" data-name="Trazado 112052" d="M154.23,196.66s-1-2.36-2-2.46-4.45-.63-4.69-.15a3.32,3.32,0,0,0,.73,2.85c.72.63,5.22,1.65,5.22,1.65Z" fill="#fa9960"/>
      <path id="Trazado_112053" data-name="Trazado 112053" d="M160.75,230.31l8.74,23.52a8,8,0,0,0,2.63-.24,11.24,11.24,0,0,0,2.55-1.24s-2.17-22.59-6.15-27.29S160.75,230.31,160.75,230.31Z" fill="#ff7635"/>
      <path id="Trazado_112054" data-name="Trazado 112054" d="M195.33,220.79s-25.12-8.5-30.73-6.69-22.42,35.28-22.42,35.28a3.29,3.29,0,0,0,1.42.89,13.4,13.4,0,0,0,3.29.34s15.18-13,17-16.81,2.53-7.41,4.34-7.05,23.31,8.86,28.19,3.8A14.11,14.11,0,0,0,200,218.91Z" fill="url(#linear-gradient-3)"/>
      <path id="Trazado_112055" data-name="Trazado 112055" d="M180,181.27a14.32,14.32,0,0,1-1.07-4.92,14.86,14.86,0,0,0,1.76,5.44c5.22,3.43,15.23,14.88,15,17.05,0,0,3.52-6,3.58-6s6.51-8.27-1.2-13c-3.92-2.41-3.9-5.5-3.74-8.18s-1.07-14.25-8.92-11.23a5.22,5.22,0,0,0-1.82-.47,1.53,1.53,0,0,1,.69.33,6.07,6.07,0,0,0-3.29.63C178.13,162.53,175.55,177.2,180,181.27Z" fill="#5c2776"/>
      <path id="Trazado_112056" data-name="Trazado 112056" d="M181,182s2.53,1.33,4.44.81,3-2.83,3-2.83c-.76-.16-1-1.21-1-5.72l-.34.07-5.81,1.15s.14,1.83.14,3.55C181.39,180.44,181.31,181.81,181,182Z" fill="#fa9960"/>
      <path id="Trazado_112057" data-name="Trazado 112057" d="M181.25,175.44s.14,1.83.14,3.55c3.25-.09,5-3.05,5.67-4.7Z" fill="#eb8d5a"/>
      <path id="Trazado_112058" data-name="Trazado 112058" d="M187.66,173.66a17.12,17.12,0,0,0,2.11-5c.29-1.64-.55-7.73-6.66-6.85a8.25,8.25,0,0,0-3.45,1.3c-1.33.9-3.24,2.84-1.1,8.15l.56,1.79Z" fill="#5c2776"/>
      <path id="Trazado_112059" data-name="Trazado 112059" d="M180.17,177.07s7.68.13,7.69-4.66,1-8-3.91-8.28-5.86,1.54-6.25,3.14S178.17,176.92,180.17,177.07Z" fill="#fa9960"/>
      <path id="Trazado_112060" data-name="Trazado 112060" d="M180.45,164s2.11,5.61,5.34,6.44,4.63,0,4.63,0a9.14,9.14,0,0,1-3-5.41S182,161.34,180.45,164Z" fill="#5c2776"/>
      <path id="Trazado_112061" data-name="Trazado 112061" d="M181,164.47a6.83,6.83,0,0,0-1.95,2.47c-.38,1.22-.56,3.73-1.29,3.65,0,0-1.58-3.82.2-6S181,164.47,181,164.47Z" fill="#5c2776"/>
      <path id="Trazado_112062" data-name="Trazado 112062" d="M198.09,202.64c.76-3.18-1.82-9.35-4.51-14.46-2.45-4.63-5-8.38-5.21-8.24-6.44,3.82-7,.64-7,.64s-5.85.78-7.51,3.63c-2.29,3.94-4.79,15.78-7.24,15.6-1.13-.08-12.45-4.33-12.45-4.33a4.94,4.94,0,0,0-1.53,3.93,119.3,119.3,0,0,0,10.32,6.14c2.51,1.26,4.77,2.14,5.83,1.89,2.15-.5,5.52-5.5,7.34-8.44h0c2.32,13.14-.84,16.13.76,17.52s4.1-.7,9.4,1.6c3.48,1.51,8.3,3.69,11.55,4.07,1.71.2,3-.1,3.39-1.25C202.43,217.58,196.64,208.7,198.09,202.64Z" fill="#a4389c"/>
      <path id="Trazado_112063" data-name="Trazado 112063" d="M181.88,174.17s-.15.61-1.66.51c0,0-1.27-.07-1.23-.74a4.07,4.07,0,0,1,2.89.23Z" fill="#fff"/>
      <path id="Trazado_112064" data-name="Trazado 112064" d="M201.22,220.92c-.41,1.15-1.68,1.45-3.39,1.25-2.25-1-12-4.75-11.85-7.3.16-3.77,1.87-3.89.66-8.55-1-3.74,8-10.7,9.44-12.21,2.69,5.11,2.77,5.35,2,8.53C196.64,208.7,202.43,217.58,201.22,220.92Z" fill="#5d236e"/>
      <path id="Trazado_112065" data-name="Trazado 112065" d="M176.11,199c-1.82,2.94-5.19,7.94-7.34,8.44-1.06.25-3.32-.63-5.83-1.89a15.339,15.339,0,0,0,5.33.29c1.86-.18,2.41-2.47,5.36-5.91C175.54,197.71,176,198.27,176.11,199Z" fill="#5d236e"/>
      <path id="Trazado_112066" data-name="Trazado 112066" d="M185.11,206.23a4.61,4.61,0,0,0-3.17-1c-1.53.3-2.29,1.35-2.23,1.83a2.75,2.75,0,0,0,2,2,22.213,22.213,0,0,0,4.52-.72Z" fill="#fa9960"/>
      <path id="Trazado_112067" data-name="Trazado 112067" d="M188.37,179.94s6.26.38,8.43,3.41c3.06,4.25,8.36,21.63,6.91,25.61l-19.06-.08s-.46-2.16.18-3.2,11.09-2.73,11.57-3.22-6-9.39-6-10.84S188.37,179.94,188.37,179.94Z" fill="#a4389c"/>
      <path id="Trazado_112068" data-name="Trazado 112068" d="M179.28,200.23H156.24l4.16,14.51h23.07Z" fill="#ffde60"/>
      <rect id="Rectángulo_6480" data-name="Rectángulo 6480" width="30.16" height="0.57" transform="translate(160.48 214.17)" fill="#ff7635"/>
      <path id="Trazado_112069" data-name="Trazado 112069" d="M169.57,207.25a1.33,1.33,0,0,0-1.19-.92.67.67,0,0,0-.66.92,1.33,1.33,0,0,0,1.19.92.67.67,0,0,0,.66-.92Z" fill="#ff7635"/>
      <rect id="Rectángulo_6481" data-name="Rectángulo 6481" width="40.96" height="10.76" rx="2.31" transform="translate(53.12 238.94)" fill="#a4389c"/>
      <path id="Trazado_112070" data-name="Trazado 112070" d="M94.08,246.28v1.12a2.32,2.32,0,0,1-2.31,2.31H55.43a2.32,2.32,0,0,1-2.31-2.31v-1.21h40.3a2.39,2.39,0,0,1,.66.09Z" fill="#a4389c"/>
      <path id="Trazado_112071" data-name="Trazado 112071" d="M61.87,249.71l-1.64,6.2h0l-6.82,25.83H52.7l3.94-21.43v-.06l2-10.6Z" fill="#a4389c"/>
      <path id="Trazado_112072" data-name="Trazado 112072" d="M61.87,249.71l-1.64,6.2h0c-.09.05-3.07,1.59-3.58,4.34l2-10.6Z" fill="#4e1b62"/>
      <path id="Trazado_112073" data-name="Trazado 112073" d="M94.08,281.74h-.72l-5.55-21h0l-1.27-4.79h0l-1.64-6.2,3.28-.06,1.11,6.06.84,4.54v.06Z" fill="#a4389c"/>
      <path id="Trazado_112074" data-name="Trazado 112074" d="M83,257.83Z" fill="#f3c6a6"/>
      <path id="Trazado_112075" data-name="Trazado 112075" d="M89.29,255.71a9.09,9.09,0,0,0-1.48,5l-1.27-4.79h0l-1.64-6.2,3.28-.06Z" fill="#4e1b62"/>
      <g id="man">
        <path id="Trazado_112076" data-name="Trazado 112076" d="M48.14,117.91c.84-.88,1.42-.55,1.42-.55s10,7.66,10.92,8.22,13.93.93,13.93.93,5.19-.06,6.45,2.61a5.6,5.6,0,0,1-6.56,7.64c-4.76-1.39-14.22-4.22-16-5.31-3.94-2.41-11.05-12-11.05-12a3.82,3.82,0,0,1,.89-1.54Z" fill="#ffa100"/>
        <path id="Trazado_112077" data-name="Trazado 112077" d="M58.89,110.47l-5-3a1.28,1.28,0,0,1-.61-1.2c.05-.61.08-1.23.08-1.86a22.576,22.576,0,0,0-.261-3.425,1.26,1.26,0,0,1,.6-1.3l5.2-3.14a1.25,1.25,0,0,0,.48-1.63l-2.45-5a1.25,1.25,0,0,0-1.53-.61l-5.25,1.91a1.26,1.26,0,0,1-1.43-.42A22.5,22.5,0,0,0,43.57,86a1.27,1.27,0,0,1-.47-1.48l1.17-3.2a1.31,1.31,0,0,0-.64-1.59l-5-2.42a1.28,1.28,0,0,0-.31-.11,1.23,1.23,0,0,0-1.32.59l-2.2,3.67-.54.91a21.791,21.791,0,0,0-3.14-.22,22.771,22.771,0,0,0-4.17.38,1.22,1.22,0,0,1-1.3-.57l-2.53-4.2a1.28,1.28,0,0,0-1.67-.48l-3.81,1.87-1.09.54a1.29,1.29,0,0,0-.65,1.61l1.59,4.39a1.24,1.24,0,0,1-.38,1.41,22.43,22.43,0,0,0-3.36,3.39,3.758,3.758,0,0,0-.25.31l-.09.1a1.26,1.26,0,0,1-1.37.32l-5.2-1.88a1.15,1.15,0,0,0-.17-.06A1.31,1.31,0,0,0,5.26,90L2.84,94.91a1.29,1.29,0,0,0,.49,1.66l5.19,3.12A1.23,1.23,0,0,1,9.11,101a22.82,22.82,0,0,0-.26,3.44,14.009,14.009,0,0,0,.08,1.84,1.3,1.3,0,0,1-.63,1.23l-5,3a1.24,1.24,0,0,0-.47,1.62l2.43,4.93a1.31,1.31,0,0,0,1.62.65L11,116.19a1.28,1.28,0,0,1,1.5.49,22.57,22.57,0,0,0,4.65,5.1,1.28,1.28,0,0,1,.41,1.44l-1.7,4.69a1.31,1.31,0,0,0,.65,1.62L21.47,132a1.25,1.25,0,0,0,1.63-.49l.14-.21,2.6-4.32a1.29,1.29,0,0,1,1.34-.6h0a23.07,23.07,0,0,0,3.93.35,13.76,13.76,0,0,0,2.13-.11,1.28,1.28,0,0,1,1.21.61l2.55,4.2a1.29,1.29,0,0,0,1.69.5l4.92-2.41a1.61,1.61,0,0,0,.36-.27,1.32,1.32,0,0,0,.28-1.32L43,124.42a1.28,1.28,0,0,1,.23-1.25,1.2,1.2,0,0,1,.26-.24,22.24,22.24,0,0,0,6.23-6.26,1.25,1.25,0,0,1,1.27-.54l.21.05,4.21,1.53a1.28,1.28,0,0,0,1.58-.63L57,117l2.37-4.81A1.3,1.3,0,0,0,58.89,110.47ZM19.58,101a14.91,14.91,0,0,1,1-2.6,11.76,11.76,0,0,1,4.52-4.52l.53-.25c10.88-4.9,21.37,5.78,16.09,16.66A12.12,12.12,0,0,1,38,114.41a7.411,7.411,0,0,1-1,.6,13.87,13.87,0,0,1-4.5,1.33A12,12,0,0,1,19.58,101Z" fill="url(#linear-gradient-4)"/>
        <path id="Trazado_112078" data-name="Trazado 112078" d="M37.11,120.42s0-3.68-.56-4.75-1.92-2.41-2.68-2-1,4-.75,4.66a28.421,28.421,0,0,0,2,3.05Z" fill="#ffb27b"/>
        <path id="Trazado_112079" data-name="Trazado 112079" d="M82.77,238.94c.82-.7.33-4.64.33-4.64s-4.23-3.38-4.81-.79-4,3.75-6,4.07a2.12,2.12,0,0,0-1.88,1.36Z" fill="#5d237b"/>
        <path id="Trazado_112080" data-name="Trazado 112080" d="M83.24,234.49c-3.91.6-5.34-.33-5.34-.33,0-3.85-1.14-12.54-2.77-22.53-2.15-13.15-5.06-28.55-6.9-38-1.06-5.46-1.77-9-1.77-9l3.2-.07,16-.31s-1.2,17.65-.87,26.38a16.23,16.23,0,0,0,.53,4.35C88,201.58,83.24,234.49,83.24,234.49Z" fill="#0e1d2f"/>
        <path id="Trazado_112081" data-name="Trazado 112081" d="M84.75,190.62c-2.17,4-7.6,14.5-9.62,21-2.15-13.15-5.06-28.55-6.9-38a27.54,27.54,0,0,1,1.43-9l16-.31S84.42,181.89,84.75,190.62Z" fill="#0e1d2f"/>
        <path id="Trazado_112082" data-name="Trazado 112082" d="M69.33,238.94c.82-.7.33-4.64.33-4.64s-4.22-3.38-4.81-.79-4,3.75-6,4.07A2.12,2.12,0,0,0,57,238.94Z" fill="#5d237b"/>
        <path id="Trazado_112083" data-name="Trazado 112083" d="M59.53,164.23s6.26,58,5,69.69c0,0,1.34,1.05,5.3.81,0,0,7.16-33.41,5.64-38.82-1.06-3.76,3.14-30.3,3.14-30.3Z" fill="#12263f"/>
        <path id="Trazado_112084" data-name="Trazado 112084" d="M75,122.76s-8,4-11.93,2.17a12.06,12.06,0,0,1,3.52-3c0-.71-.06-1.35-.07-1.92,0-1.89.06-3,.06-3l3.44-2.5,2.33-1.69a15.33,15.33,0,0,0-.1,2.91A11.49,11.49,0,0,0,75,122.76Z" fill="#ffb27b"/>
        <path id="Trazado_112085" data-name="Trazado 112085" d="M72.21,115.74s-1.85,3.7-5.73,4.23c0-1.89.06-3,.06-3l3.44-2.5a7.71,7.71,0,0,1,2.23,1.27Z" fill="#ff9759"/>
        <path id="Trazado_112086" data-name="Trazado 112086" d="M65.65,116.78s7.13,2.54,8.65-1.92,3.45-7.15-1-9-6-.41-6.82,1S63.83,116,65.65,116.78Z" fill="#ffb27b"/>
        <path id="Trazado_112087" data-name="Trazado 112087" d="M86.12,164.23c-1.12,2.33-25.84,2.23-27.06.59-.5-.67-1.07-7.34-1.39-15.1-.18-4.3-.29-8.93-.27-13.06,0-6.73.42-12.12,1.37-12.54,5.29-2.29,8.57-3.76,15.49-3.55a5.76,5.76,0,0,1,5,3.22,41.84,41.84,0,0,1,4.2,16.74C83.74,151.63,87.53,161.3,86.12,164.23Z" fill="url(#linear-gradient-5)"/>
        <path id="Trazado_112088" data-name="Trazado 112088" d="M65.4,132.09s-.8,11.6-7.73,17.63c-.18-4.3-.29-8.93-.27-13.06C59.47,133.89,62.2,131.9,65.4,132.09Z" fill="#ffa100"/>
        <path id="Trazado_112089" data-name="Trazado 112089" d="M68.81,120.82s-7.6.05-10,2.26c-1.71,1.59-12.7,10.25-13.4,10.14S37.65,119,37.65,119s-3.48.29-4.07,1.8c0,0,3.29,17.63,10.39,21.47,0,0,17.94-3.41,23.26-9.34C70,129.85,68.81,120.82,68.81,120.82Z" fill="url(#linear-gradient-6)"/>
        <path id="Trazado_112090" data-name="Trazado 112090" d="M66,103.37s.42,4.26,1.7,5.43.94,2.76,1.08,3,1.47-.46,1.7-.06c.53.9-.3,1.55-.83,1.77s1.35,3.88,2.73,4c2.39.24,6.07-6.37,6.39-8.3.4-2.53-1-6.48-5.14-6.28C67.15,103.24,65.84,101.84,66,103.37Z" fill="#5c2776"/>
      </g>
      <rect id="Rectángulo_6482" data-name="Rectángulo 6482" width="7.62" height="47.48" transform="translate(251.03 84.72)" fill="url(#linear-gradient-7)"/>
      <rect id="Rectángulo_6483" data-name="Rectángulo 6483" width="7.62" height="60.71" transform="translate(263.86 71.48)" fill="url(#linear-gradient-8)"/>
      <rect id="Rectángulo_6484" data-name="Rectángulo 6484" width="7.62" height="36" transform="translate(277.49 96.2)" fill="url(#linear-gradient-9)"/>
      <path id="Trazado_112091" data-name="Trazado 112091" d="M271.07,62.4h-6.46a.67.67,0,1,0,0,1.34h6.46a.67.67,0,1,0,0-1.34Z" fill="#ff7635"/>
      <path id="Trazado_112092" data-name="Trazado 112092" d="M266.08,66.17a.67.67,0,1,0,0-1.34h-1.47a.67.67,0,1,0,0,1.34Z" fill="#ff7635"/>
      <path id="Trazado_112093" data-name="Trazado 112093" d="M284.53,89.11h-6.46a.68.68,0,0,0-.67.67h0a.68.68,0,0,0,.67.67h6.46a.67.67,0,0,0,.66-.67h0a.67.67,0,0,0-.66-.67Z" fill="#ff7635"/>
      <path id="Trazado_112094" data-name="Trazado 112094" d="M278.07,92.88h1.47a.67.67,0,1,0,0-1.34h-1.47a.67.67,0,1,0,0,1.34Z" fill="#ff7635"/>
    </g>
  </g>
</svg>
