<svg xmlns="http://www.w3.org/2000/svg" xmlns:xlink="http://www.w3.org/1999/xlink" width="300" height="300" viewBox="0 0 300 300">
  <defs>
    <clipPath id="clip-path">
      <rect id="Rect치ngulo_6442" data-name="Rect치ngulo 6442" width="241.9" height="177.15" transform="translate(30.2 99.15)" fill="none"/>
    </clipPath>
    <linearGradient id="linear-gradient" x1="0.761" y1="-0.048" x2="0.425" y2="0.603" gradientUnits="objectBoundingBox">
      <stop offset="0" stop-color="#cb236d"/>
      <stop offset="1" stop-color="#4c246d"/>
    </linearGradient>
    <linearGradient id="linear-gradient-2" x1="0.936" y1="0.335" x2="0.259" y2="0.635" xlink:href="#linear-gradient"/>
    <linearGradient id="linear-gradient-3" x1="0.116" y1="0.841" x2="0.878" y2="0.201" gradientUnits="objectBoundingBox">
      <stop offset="0" stop-color="#9182ca"/>
      <stop offset="1" stop-color="#472ea6"/>
    </linearGradient>
    <linearGradient id="linear-gradient-4" y1="0.5" x2="1" y2="0.5" gradientUnits="objectBoundingBox">
      <stop offset="0" stop-color="#febbba"/>
      <stop offset="1" stop-color="#ff928e"/>
    </linearGradient>
    <linearGradient id="linear-gradient-5" x1="46.798" y1="-50.795" x2="47.981" y2="-51.604" xlink:href="#linear-gradient-4"/>
    <linearGradient id="linear-gradient-6" x1="-200.491" y1="45.139" x2="-201.682" y2="46.429" xlink:href="#linear-gradient-4"/>
    <linearGradient id="linear-gradient-7" x1="-144.616" y1="29.923" x2="-143.593" y2="29.923" gradientUnits="objectBoundingBox">
      <stop offset="0" stop-color="#241753"/>
      <stop offset="1" stop-color="#472ea6"/>
    </linearGradient>
    <linearGradient id="linear-gradient-8" x1="-562.511" y1="144.915" x2="-559.852" y2="142.363" xlink:href="#linear-gradient-4"/>
    <linearGradient id="linear-gradient-9" x1="0.023" y1="0.867" x2="1.202" y2="-0.024" xlink:href="#linear-gradient-3"/>
    <linearGradient id="linear-gradient-10" x1="0.772" y1="-6.302" x2="0.569" y2="-1.295" xlink:href="#linear-gradient-7"/>
    <linearGradient id="linear-gradient-11" x1="-80.442" y1="-120.854" x2="-80.215" y2="-120.854" xlink:href="#linear-gradient-4"/>
    <linearGradient id="linear-gradient-12" y1="0.5" x2="1.001" y2="0.5" gradientUnits="objectBoundingBox">
      <stop offset="0" stop-color="#9cfffb"/>
      <stop offset="1" stop-color="#9bfffa"/>
    </linearGradient>
    <linearGradient id="linear-gradient-13" x1="0" y1="0.5" x2="1" y2="0.5" xlink:href="#linear-gradient-12"/>
    <linearGradient id="linear-gradient-14" x1="-0.157" y1="8.817" x2="1.024" y2="-6.192" xlink:href="#linear-gradient-7"/>
    <linearGradient id="linear-gradient-15" x1="1.046" y1="-0.122" x2="2.927" y2="-1.957" xlink:href="#linear-gradient-7"/>
    <linearGradient id="linear-gradient-16" x1="-0.242" y1="16.938" x2="3.664" y2="-70.124" xlink:href="#linear-gradient-3"/>
    <linearGradient id="linear-gradient-17" x1="-0.184" y1="12.51" x2="3.037" y2="-44.666" xlink:href="#linear-gradient-3"/>
    <linearGradient id="linear-gradient-18" x1="-0.226" y1="13.394" x2="2.936" y2="-43.443" xlink:href="#linear-gradient-3"/>
    <linearGradient id="linear-gradient-19" x1="-0.328" y1="14.639" x2="3.019" y2="-42.922" xlink:href="#linear-gradient-3"/>
    <linearGradient id="linear-gradient-20" x1="0.506" y1="0.248" x2="0.446" y2="1.228" gradientUnits="objectBoundingBox">
      <stop offset="0" stop-color="#fed2a8"/>
      <stop offset="1" stop-color="#fda551"/>
    </linearGradient>
    <linearGradient id="linear-gradient-21" x1="10.25" y1="-1.046" x2="-3.14" y2="1.07" gradientUnits="objectBoundingBox">
      <stop offset="0" stop-color="#e1473d"/>
      <stop offset="1" stop-color="#e9605a"/>
    </linearGradient>
    <linearGradient id="linear-gradient-22" x1="11.338" y1="-1.212" x2="-2.057" y2="0.909" xlink:href="#linear-gradient-21"/>
    <linearGradient id="linear-gradient-23" x1="0.933" y1="1.761" x2="0.628" y2="0.615" xlink:href="#linear-gradient-3"/>
  </defs>
  <g id="Grupo_55520" data-name="Grupo 55520" transform="translate(-245 -7819)">
    <g id="CF1_empresa_copia_3" data-name="CF1_empresa copia 3" transform="translate(245 7819)">
      <rect id="Rect치ngulo_6441" data-name="Rect치ngulo 6441" width="300" height="300" fill="none"/>
      <g id="Grupo_55479" data-name="Grupo 55479" opacity="0.3">
        <path id="Trazado_111765" data-name="Trazado 111765" d="M104.63,80.58a1.05,1.05,0,0,1,1.28.6c.47,1.11.89,2.25,1.26,3.4a1.06,1.06,0,0,1-.68,1.33h0a1.06,1.06,0,0,1-1.32-.69c-.35-1.09-.76-2.17-1.2-3.23a1.07,1.07,0,0,1,.57-1.39Zm2.61,8.87h.12a1.07,1.07,0,0,1,1.23.86c.21,1.19.37,2.4.48,3.59a1.06,1.06,0,0,1-1,1.15,1,1,0,0,1-1.15-1c-.11-1.13-.26-2.28-.46-3.41A1.06,1.06,0,0,1,107.24,89.45Zm.59,9.23a1,1,0,0,1,.35,0,1.06,1.06,0,0,1,1,1.11,27.365,27.365,0,0,1-.33,3.61,1.06,1.06,0,1,1-2.1-.29c.15-1.13.26-2.28.31-3.42a1.07,1.07,0,0,1,.77-1.01Zm-1.49,9.14a1,1,0,0,1,.59,0,1.07,1.07,0,0,1,.74,1.31c-.33,1.16-.71,2.32-1.13,3.44a1.068,1.068,0,1,1-2-.75c.4-1.06.76-2.16,1.07-3.27a1,1,0,0,1,.73-.73Zm-3.49,8.57a1,1,0,0,1,.81.08,1.06,1.06,0,0,1,.43,1.44c-.57,1.06-1.2,2.1-1.86,3.11a1.07,1.07,0,0,1-1.78-1.17c.63-1,1.23-1.95,1.77-2.95a1,1,0,0,1,.63-.51ZM97.55,124a1.07,1.07,0,0,1,1.11,1.72c-.8.9-1.64,1.78-2.51,2.62a1.064,1.064,0,1,1-1.47-1.54c.83-.79,1.63-1.62,2.38-2.48a1.1,1.1,0,0,1,.49-.32ZM61,137.65a1,1,0,0,1,.45,0c1.13.15,2.28.26,3.42.31a1.061,1.061,0,1,1-.1,2.12c-1.2-.06-2.41-.16-3.61-.32a1.08,1.08,0,0,1-.91-1.2,1.06,1.06,0,0,1,.75-.91Zm29.68-7.46a1.06,1.06,0,0,1,.93,1.88c-1,.7-2,1.37-3,2a1.061,1.061,0,0,1-1.09-1.82c1-.59,1.94-1.22,2.87-1.89a.92.92,0,0,1,.32-.17Zm-20.43,7.64h.21c1.14-.1,2.28-.26,3.41-.46a1.061,1.061,0,1,1,.37,2.09c-1.18.21-2.39.38-3.58.49a1.07,1.07,0,0,1-.41-2.08Zm12.37-3.1a1.063,1.063,0,1,1,.72,2c-1.11.47-2.25.89-3.39,1.27h0a1.06,1.06,0,0,1-.64-2c1.09-.36,2.17-.76,3.22-1.21Z" fill="#7d97f4"/>
        <path id="Trazado_111766" data-name="Trazado 111766" d="M53.76,136a1,1,0,0,1,.63,0c.52.17,1.06.33,1.59.48a1.06,1.06,0,0,1-.58,2c-.56-.15-1.12-.32-1.66-.5a1.07,1.07,0,0,1-.69-1.34A1.11,1.11,0,0,1,53.76,136Z" fill="#7d97f4"/>
      </g>
      <g id="Grupo_55480" data-name="Grupo 55480" opacity="0.3">
        <path id="Trazado_111767" data-name="Trazado 111767" d="M29.32,114.75a1.06,1.06,0,0,1,1.26.55c.24.5.49,1,.75,1.48a1.06,1.06,0,0,1-1.87,1c-.27-.51-.54-1-.79-1.55a1.06,1.06,0,0,1,.49-1.42Z" fill="#7d97f4"/>
        <path id="Trazado_111768" data-name="Trazado 111768" d="M54.51,57.06l1.42-.4a1.065,1.065,0,1,1,.54,2.06c-1.1.29-2.18.62-3.23,1a1.07,1.07,0,0,1-1.36-.65,1.05,1.05,0,0,1,.64-1.35C53.17,57.49,53.84,57.27,54.51,57.06Zm6.92-1.46h.18c1.17-.15,2.37-.25,3.55-.29a1.061,1.061,0,0,1,.08,2.12,27.346,27.346,0,0,0-3.37.28,1.07,1.07,0,0,1-1.19-.93,1.05,1.05,0,0,1,.75-1.18ZM47.4,60a1.063,1.063,0,0,1,.8,1.96c-1,.52-2,1.09-2.94,1.69a1.06,1.06,0,0,1-1.13-1.79,32.24,32.24,0,0,1,3.09-1.78Zm23.14-4.48a1.1,1.1,0,0,1,.41,0c1.17.12,2.36.28,3.53.5A1.06,1.06,0,0,1,74.09,58c-1.1-.21-2.23-.36-3.35-.47a1.07,1.07,0,0,1-.2-2.08ZM39.84,65a1.07,1.07,0,0,1,1,1.83c-.86.72-1.7,1.49-2.5,2.29a1.061,1.061,0,1,1-1.5-1.5c.84-.84,1.72-1.65,2.63-2.41A1,1,0,0,1,39.84,65Zm-6.26,6.6a1.09,1.09,0,0,1,1,.17,1.06,1.06,0,0,1,.2,1.49c-.68.9-1.33,1.83-1.93,2.78A1.081,1.081,0,1,1,31,74.92c.63-1,1.31-2,2-2.92a1,1,0,0,1,.58-.38ZM28.9,79.43a1.08,1.08,0,0,1,.75,0,1.06,1.06,0,0,1,.52,1.41c-.46,1-.9,2.08-1.28,3.14a1.065,1.065,0,0,1-2-.73c.4-1.11.85-2.22,1.34-3.29a1.11,1.11,0,0,1,.67-.53ZM26,88.08a1.18,1.18,0,0,1,.53,0,1.07,1.07,0,0,1,.82,1.26c-.24,1.1-.43,2.23-.57,3.34a1.06,1.06,0,0,1-2.1-.26c.14-1.18.34-2.36.59-3.52a1,1,0,0,1,.73-.82Zm-.89,9.06a.92.92,0,0,1,.29,0,1.06,1.06,0,0,1,1.08,1c0,1.13.07,2.26.18,3.38a1.06,1.06,0,1,1-2.11.21c-.12-1.18-.18-2.38-.2-3.56a1.07,1.07,0,0,1,.8-1.03Zm1.11,9h.07a1.06,1.06,0,0,1,1.28.79c.19.8.4,1.61.64,2.4l.27.86a1.06,1.06,0,0,1-2,.65c-.1-.29-.19-.59-.28-.89-.25-.84-.48-1.69-.68-2.54a1.06,1.06,0,0,1,.74-1.24Z" fill="#7d97f4"/>
        <path id="Trazado_111769" data-name="Trazado 111769" d="M79.47,57.36a1.08,1.08,0,0,1,.64,0c.55.18,1.1.38,1.64.58a1.068,1.068,0,1,1-.75,2c-.51-.19-1-.38-1.56-.55a1.067,1.067,0,0,1,.03-2.03Z" fill="#7d97f4"/>
      </g>
      <path id="Trazado_111770" data-name="Trazado 111770" d="M81.66,69.57a.5.5,0,0,0-.58,0L76.26,73.2a26.37,26.37,0,0,0-8.36-1.7l-3-5.22a.48.48,0,0,0-.52-.24l-7.12,1.38a.5.5,0,0,0-.39.42l-.84,6a26.27,26.27,0,0,0-7.11,4.71L43.06,77a.52.52,0,0,0-.54.2l-4.05,6a.51.51,0,0,0,0,.58L42.1,88.6A26.15,26.15,0,0,0,40.43,97l-5.23,3a.51.51,0,0,0-.24.53l1.39,7.11a.49.49,0,0,0,.41.4l6,.84a26.3,26.3,0,0,0,4.71,7.1L45.9,121.8a.48.48,0,0,0,.2.54l6,4a.5.5,0,0,0,.57,0l4.83-3.64a26.37,26.37,0,0,0,8.35,1.7l3,5.22a.48.48,0,0,0,.52.24l7.11-1.38a.5.5,0,0,0,.4-.42l.84-6a26.27,26.27,0,0,0,7.11-4.71L90.7,119a.5.5,0,0,0,.54-.2l4.05-6a.5.5,0,0,0,0-.58l-3.64-4.82A26.43,26.43,0,0,0,93.34,99l5.23-3a.51.51,0,0,0,.24-.53l-1.39-7.11a.5.5,0,0,0-.42-.4l-6-.84A26.22,26.22,0,0,0,86.31,80l1.56-5.84a.48.48,0,0,0-.2-.54Z" fill="#f9aac2"/>
      <path id="Trazado_111771" data-name="Trazado 111771" d="M64.78,91a7.362,7.362,0,1,1-.98.39A6.81,6.81,0,0,1,64.78,91Zm3.71,12.32a5.6,5.6,0,1,0-3.5-.1,5.45,5.45,0,0,0,3.5.11Z" fill="#bdd0fb"/>
      <path id="Trazado_111772" data-name="Trazado 111772" d="M61.6,81a17.831,17.831,0,0,1,1.78-.45h0l.58-.1a18.28,18.28,0,0,1,2.86-.23h.36a.43.43,0,0,1,.4.31.51.51,0,0,1,0,.13.42.42,0,0,1-.43.41,17.6,17.6,0,0,0-3.62.32,17.08,17.08,0,0,0-13.49,20c.12.58.26,1.14.42,1.7a17.06,17.06,0,0,0,33.07-8.23c-.11-.57-.25-1.13-.41-1.68a16.92,16.92,0,0,0-3.63-6.45.32.32,0,0,1-.09-.17.4.4,0,0,1,.12-.43.42.42,0,0,1,.6,0A17.9,17.9,0,0,1,84,92.92a17.6,17.6,0,0,1,.44,1.77,17.91,17.91,0,0,1-34.72,8.64c-.17-.59-.32-1.18-.44-1.79A17.92,17.92,0,0,1,61.6,81Z" fill="#bdd0fb"/>
      <g id="Grupo_55481" data-name="Grupo 55481" opacity="0.3">
        <path id="Trazado_111773" data-name="Trazado 111773" d="M131.23,43.3a.67.67,0,0,1,.74.27q.45.7.87,1.44a.65.65,0,0,1-.24.89.66.66,0,0,1-.9-.24c-.26-.47-.54-.92-.83-1.37a.65.65,0,0,1,.19-.91Z" fill="#7d97f4"/>
        <path id="Trazado_111774" data-name="Trazado 111774" d="M133.59,47.76a.66.66,0,0,1,.79.38,28.378,28.378,0,0,1,1,2.72,2.231,2.231,0,0,0,.17.58.69.69,0,0,1-.46.81.67.67,0,0,1-.81-.46,2.066,2.066,0,0,0-.16-.56c-.26-.87-.58-1.74-.93-2.59a.65.65,0,0,1,.35-.85Zm1.83,6.56h.09a.66.66,0,0,1,.75.55,29,29,0,0,1,.31,3.48.66.66,0,0,1-.64.67.65.65,0,0,1-.67-.63,26.42,26.42,0,0,0-.3-3.32.66.66,0,0,1,.46-.75Zm.18,6.81a.74.74,0,0,1,.26,0,.65.65,0,0,1,.59.71,28.5,28.5,0,0,1-.56,3.45.65.65,0,0,1-.78.5.66.66,0,0,1-.5-.78,26.5,26.5,0,0,0,.53-3.29.67.67,0,0,1,.46-.59Zm-1.49,6.65a.64.64,0,0,1,.41,0,.66.66,0,0,1,.4.84,31.332,31.332,0,0,1-1.38,3.21.66.66,0,0,1-.89.28.65.65,0,0,1-.28-.88,26.812,26.812,0,0,0,1.31-3.06.68.68,0,0,1,.43-.39ZM131,73.86a.65.65,0,0,1,.73,1,28.481,28.481,0,0,1-2.11,2.77.65.65,0,0,1-.93.07.66.66,0,0,1-.07-.92,25.739,25.739,0,0,0,2-2.65.66.66,0,0,1,.38-.27ZM126.59,79a.63.63,0,0,1,.67.18.67.67,0,0,1,0,.93,29.514,29.514,0,0,1-2.73,2.17.66.66,0,1,1-.76-1.07,27.241,27.241,0,0,0,2.61-2.07A.52.52,0,0,1,126.59,79ZM121,82.91a.66.66,0,0,1,.5,1.21,28.481,28.481,0,0,1-3.19,1.43.652.652,0,1,1-.46-1.22,28.58,28.58,0,0,0,3-1.37Zm-9.73,3h.12a25.368,25.368,0,0,0,2.85-.5l.43-.09a.654.654,0,0,1,.31,1.27l-.45.1a27.913,27.913,0,0,1-3,.52.66.66,0,0,1-.73-.57.68.68,0,0,1,.48-.71Z" fill="#7d97f4"/>
      </g>
      <g id="Grupo_55482" data-name="Grupo 55482" opacity="0.3">
        <path id="Trazado_111775" data-name="Trazado 111775" d="M99.68,32.07a.65.65,0,0,1,.82.43.66.66,0,0,1-.43.82A27.561,27.561,0,0,0,97,34.49a.653.653,0,0,1-.54-1.19,28.15,28.15,0,0,1,3.2-1.23Zm3.26-.82h.07a27.71,27.71,0,0,1,3.4-.43.66.66,0,0,1,.09,1.31,27.231,27.231,0,0,0-3.25.41.66.66,0,0,1-.77-.52.65.65,0,0,1,.46-.77Zm-9.35,3.59a.67.67,0,0,1,.75.29.65.65,0,0,1-.22.9,26.291,26.291,0,0,0-2.68,1.88.65.65,0,0,1-.92-.1.66.66,0,0,1,.1-.93,28.889,28.889,0,0,1,2.81-2Zm16-4a.91.91,0,0,1,.23,0,27.839,27.839,0,0,1,3.41.41.64.64,0,0,1,.53.76.66.66,0,0,1-.76.53,25.5,25.5,0,0,0-3.25-.39.66.66,0,0,1-.16-1.28ZM88.35,39a.68.68,0,0,1,.65.16.66.66,0,0,1,0,.93,29.712,29.712,0,0,0-2.15,2.47.66.66,0,1,1-1-.8,27.938,27.938,0,0,1,2.26-2.59.62.62,0,0,1,.24-.17Zm-4.09,5.31a.64.64,0,0,1,.52.06.66.66,0,0,1,.23.9,27.6,27.6,0,0,0-1.5,2.91.66.66,0,1,1-1.2-.53,29.258,29.258,0,0,1,1.57-3,.64.64,0,0,1,.38-.33Zm-2.7,6.13a.62.62,0,0,1,.38,0,.65.65,0,0,1,.43.82,26.7,26.7,0,0,0-.75,3.18.67.67,0,0,1-.76.54.66.66,0,0,1-.54-.76,29.5,29.5,0,0,1,.8-3.34.63.63,0,0,1,.44-.43Z" fill="#7d97f4"/>
        <path id="Trazado_111776" data-name="Trazado 111776" d="M116.25,32a.62.62,0,0,1,.38,0q.81.26,1.59.54a.66.66,0,0,1,.38.85.65.65,0,0,1-.84.38c-.5-.18-1-.36-1.52-.52a.66.66,0,0,1-.43-.82.67.67,0,0,1,.44-.43Z" fill="#7d97f4"/>
      </g>
      <path id="Trazado_111777" data-name="Trazado 111777" d="M118.18,40.28a.33.33,0,0,0-.39,0l-3.23,2.43A17.78,17.78,0,0,0,109,41.58l-2-3.49a.32.32,0,0,0-.35-.16l-4.76.92a.34.34,0,0,0-.27.28l-.56,4a17.71,17.71,0,0,0-4.76,3.16l-3.9-1a.34.34,0,0,0-.36.14l-2.71,4a.33.33,0,0,0,0,.39L91.72,53a17.84,17.84,0,0,0-1.14,5.6l-3.49,2a.32.32,0,0,0-.16.35l.92,4.76a.33.33,0,0,0,.28.26l4,.57a17.5,17.5,0,0,0,3.16,4.75L94.24,75.2a.34.34,0,0,0,.14.36l4,2.71a.35.35,0,0,0,.39,0L102,75.86a17.56,17.56,0,0,0,5.6,1.13l2,3.5a.33.33,0,0,0,.35.16l4.76-.93a.32.32,0,0,0,.26-.28l.57-4a17.47,17.47,0,0,0,4.75-3.15l3.91,1a.34.34,0,0,0,.36-.13l2.71-4a.35.35,0,0,0,0-.39l-2.43-3.23A17.5,17.5,0,0,0,126,60l3.5-2a.33.33,0,0,0,.16-.35l-.93-4.76a.33.33,0,0,0-.28-.27l-4-.56a17.68,17.68,0,0,0-3.15-4.76l1-3.9a.33.33,0,0,0-.13-.36Z" fill="#f9aac2"/>
      <path id="Trazado_111778" data-name="Trazado 111778" d="M106.86,54.53a5.1,5.1,0,1,1-.68.27A4.37,4.37,0,0,1,106.86,54.53Zm2.48,8.25a3,3,0,0,0,.5-.19,3.65,3.65,0,1,0-3.11-6.6h0a3.648,3.648,0,0,0,2.61,6.79Z" fill="#bdd0fb"/>
      <path id="Trazado_111779" data-name="Trazado 111779" d="M104.66,47.55a11.438,11.438,0,0,1,1.22-.3,12.31,12.31,0,0,1,2.5-.23h.12a.65.65,0,0,1,.61.47.64.64,0,0,1,0,.2.66.66,0,0,1-.67.64,11.51,11.51,0,0,0-2.34.21h-.13a11,11,0,0,0-6.86,4.56h0a.431.431,0,0,0,0,.07,10.92,10.92,0,0,0-1.68,8.28,10.38,10.38,0,0,0,.27,1.1,11.031,11.031,0,1,0,21.41-5.32,9.642,9.642,0,0,0-.27-1.09A11,11,0,0,0,116.46,52a.69.69,0,0,1-.14-.25.65.65,0,0,1,1.11-.63,12.34,12.34,0,0,1,2.63,4.68,10.219,10.219,0,0,1,.31,1.21,12.369,12.369,0,0,1-24,6,10.059,10.059,0,0,1-.31-1.23,12.38,12.38,0,0,1,8.6-14.23Z" fill="#bdd0fb"/>
      <g id="Grupo_55483" data-name="Grupo 55483" clip-path="url(#clip-path)">
        <path id="Trazado_111780" data-name="Trazado 111780" d="M253.51,387.77c-62-76.51-138.59-96.43-138.59-96.43l1.94,18.94,128.91,90.15c4.31-2.31,6.77-6.54,8.13-9.52a3,3,0,0,0-.39-3.14Z" fill="url(#linear-gradient)"/>
        <path id="Trazado_111781" data-name="Trazado 111781" d="M252.17,396c-19.35-21.21-67-67.37-119.26-86.54a17.76,17.76,0,0,1-9.9-9l-7.82-16.31s-38.14-8.94-61.64,15.66c0,0,1.43,23.41,31,32,27.55,8,109.18,40.41,157.33,76.75a3.08,3.08,0,0,0,3.73,0,23.1,23.1,0,0,0,7.24-9.28A3.11,3.11,0,0,0,252.17,396Z" fill="url(#linear-gradient-2)"/>
        <path id="Trazado_111782" data-name="Trazado 111782" d="M49.41,299.52s7.78,3.4,21.11-2.76S120.13,290,120.13,290s-11.75-44,14.36-75.43c0,0,21,39.36,35.8,45.23l6.62.31V232s-5.61-34.66-41.12-60.55l-11-10S85.86,153.66,59.43,200,49.41,299.52,49.41,299.52Z" fill="url(#linear-gradient-3)"/>
        <path id="Trazado_111783" data-name="Trazado 111783" d="M179.15,178.27c.37-2,.5-6.5-4.2-12.06a12.28,12.28,0,0,0-14.36-3.64c-7.15,4-10.17,17.08-10.17,17.08l7.56-4c1.15,3.33,12.31,6.91,12.31,6.91h.06c.11,7.23-.06,28.32-5.19,43-2,5.74-6.1,16.42,7.4,34.72l7.43-.31S196.65,231.62,179.15,178.27Z" fill="url(#linear-gradient-4)"/>
        <path id="Trazado_111784" data-name="Trazado 111784" d="M141.36,135.41l-20.7,29.23a4.87,4.87,0,0,0,.43,6.17c2.78,3,7.49,7.18,12.56,8.13a4,4,0,0,0,4-1.7l11-16.9S150.82,133.79,141.36,135.41Z" fill="url(#linear-gradient-5)"/>
        <path id="Trazado_111785" data-name="Trazado 111785" d="M155.1,116.41c.35.46,11.55,36.77,11.55,36.77l-20.87,6L130.05,126.3S149.33,108.71,155.1,116.41Z" fill="url(#linear-gradient-6)"/>
        <path id="Trazado_111786" data-name="Trazado 111786" d="M138.33,131.69l6.65,17.2a4,4,0,0,0,.59,1c1.11,1.39,4.36,4.69,8,1.16,2.72-2.67,5.28-5.13,7.73-6.35a3.88,3.88,0,0,1,5.44,2.4,117.646,117.646,0,0,1,3.5,15.08,3.91,3.91,0,0,1-3.06,4.4,86.321,86.321,0,0,1-18.16,2,3.9,3.9,0,0,1-3.37-2.18c-2.41-4.86-8.44-16.92-10.72-20.13-2.08-3-6.8-2.94-9.2-2.71a3.91,3.91,0,0,1-3-1c-1.92-1.8-4.49-5.43-.83-9.93a3.93,3.93,0,0,0-.23-5.25c-2-2.11-3.7-5.46-.51-9.68,3.39-4.46,8-4.22,11.06-3.33a3.87,3.87,0,0,0,4-1.45,2,2,0,0,1,1.27-.71,3.87,3.87,0,0,0,3.39-3.67c.08-2.82,1.3-6.1,6-7.7,9.1-3.13,15.09,5.58,15.85,12.18s-9.3,9.44-15.28,9.16c-4.13-.19-7.19,3.61-8.67,6a3.93,3.93,0,0,0-.45,3.51Z" fill="url(#linear-gradient-7)"/>
        <path id="Trazado_111787" data-name="Trazado 111787" d="M137.47,152.85s-1.82-11.45-6.62-11.87-9.33,3.64-4.39,10C132.61,158.79,137.47,152.85,137.47,152.85Z" fill="url(#linear-gradient-8)"/>
        <path id="Trazado_111788" data-name="Trazado 111788" d="M85.53,165.74s-41.72,26.62-50.86,57.51S46,260.23,65.45,263l1.46-23.59s-13.63,0-4.93-12.9S94.05,205,94.05,205,153.28,149.1,85.53,165.74Z" fill="url(#linear-gradient-9)"/>
        <path id="Trazado_111789" data-name="Trazado 111789" d="M66.91,239.91c-.24,0-5.87,0-7.77-3.61-1.3-2.44-.49-5.85,2.39-10.12,8.7-12.89,31.37-21.35,32.34-21.7a.55.55,0,0,1,.69.32.54.54,0,0,1-.32.69c-.24.08-23.32,8.69-31.82,21.29-2.64,3.92-3.43,6.95-2.33,9,1.59,3,6.77,3.05,6.82,3.05a.54.54,0,1,1,0,1.07Z" fill="url(#linear-gradient-10)"/>
        <path id="Trazado_111790" data-name="Trazado 111790" d="M65.45,263s-6.1-10.08,1.93-22.11l53.89,8.92s25.79-4.37,27-4.28S166.37,256,166.37,256s-.57,1.2-4.57,1-1.38.48-1.38.48l-.15,2a5.56,5.56,0,0,1-5-1.74c-2.24-2.38-8.46-3.53-8.46-3.53s-13.21,9.76-26.2,5Z" fill="url(#linear-gradient-11)"/>
        <path id="Trazado_111791" data-name="Trazado 111791" d="M143.86,433a3,3,0,0,1-1.27-.27,3.3,3.3,0,0,1-1.67-4.3L208,268.54a3.17,3.17,0,0,1,4.21-1.71,3.31,3.31,0,0,1,1.68,4.3L146.8,431A3.19,3.19,0,0,1,143.86,433Z" fill="url(#linear-gradient-12)"/>
        <path id="Trazado_111792" data-name="Trazado 111792" d="M219.48,433a3.19,3.19,0,0,1-2.94-2L149.41,271.13a3.3,3.3,0,0,1,1.67-4.3,3.17,3.17,0,0,1,4.21,1.71l67.13,159.85a3.31,3.31,0,0,1-1.68,4.3,3,3,0,0,1-1.26.31Z" fill="url(#linear-gradient-13)"/>
        <path id="Trazado_111793" data-name="Trazado 111793" d="M269.13,263.77a5.94,5.94,0,0,0-.36-2.8c-.33-.77-.81-1.22-1.33-1.22H93.5c-.67,0-1.3.67-1.66,1.79a7.13,7.13,0,0,0-.13,3.73l1.88,8c.43,1.83,1.37,3,2.4,3H266.25c1,0,1.78-1.33,2-3.18Z" fill="url(#linear-gradient-14)"/>
      </g>
      <path id="Trazado_111794" data-name="Trazado 111794" d="M193.9,70.7c-22.77,10.87-37.74,33.5-20.05,32.44,33.2-2,10.79,16.51,28.25,16s44.48-4.27,62.17-22.6.49-22.7-6.68-22C234,76.86,265.23,36.65,193.9,70.7Z" fill="#bdd0fb"/>
      <path id="Trazado_111795" data-name="Trazado 111795" d="M186.18,128.11c0,2.58,1.95,6.81,6.21,6.73s9.27-4.44,9.22-7-3.54-4.6-7.8-4.52S186.13,125.53,186.18,128.11Z" fill="#bdd0fb"/>
      <path id="Trazado_111796" data-name="Trazado 111796" d="M179.79,138.5a2.34,2.34,0,0,0,2.45,2.22c1.33,0,4-1.35,3.94-2.6a3.157,3.157,0,0,0-3-2.48C181.85,135.66,179.76,137.25,179.79,138.5Z" fill="#bdd0fb"/>
      <path id="Trazado_111797" data-name="Trazado 111797" d="M228.94,91.18c0-.43-.48-.8-1.23-1.1.82-.45,1.27-.93,1.23-1.4-.12-1.43-4.63-2.23-10.09-1.79s-9.79,2-9.67,3.38c0,.43.48.81,1.22,1.11-.81.45-1.26.93-1.22,1.4s.48.8,1.22,1.11c-.81.44-1.26.92-1.22,1.4s.48.8,1.22,1.1c-.81.45-1.26.93-1.22,1.4,0,.63,1,1.14,2.44,1.47a13.563,13.563,0,0,0,0,1.54c.22,2.63,3.17,4.69,7.08,4.69s7.3-2.81,7.33-5.44a13,13,0,0,0-.07-1.72c1.87-.63,3-1.39,2.95-2.13,0-.43-.48-.81-1.23-1.11.82-.45,1.27-.93,1.23-1.4s-.48-.8-1.23-1.11C228.53,92.14,229,91.66,228.94,91.18Z" fill="url(#linear-gradient-15)"/>
      <path id="Trazado_111798" data-name="Trazado 111798" d="M216.33,99.83a23.922,23.922,0,0,1-4.33-.35.133.133,0,1,1,.05-.26,28.07,28.07,0,0,0,7.21.23,31.141,31.141,0,0,0,6-1,.12.12,0,0,1,.16.08.13.13,0,0,1-.08.17,31.76,31.76,0,0,1-6.1,1C218.26,99.79,217.27,99.83,216.33,99.83Z" fill="url(#linear-gradient-16)"/>
      <path id="Trazado_111799" data-name="Trazado 111799" d="M216.35,97.32a21,21,0,0,1-5.31-.57.14.14,0,0,1-.09-.17.13.13,0,0,1,.16-.09,25.3,25.3,0,0,0,8.15.45,25.89,25.89,0,0,0,7.92-1.72.13.13,0,0,1,.17.06.14.14,0,0,1-.06.18,26.18,26.18,0,0,1-8,1.74C218.28,97.28,217.29,97.32,216.35,97.32Z" fill="url(#linear-gradient-17)"/>
      <path id="Trazado_111800" data-name="Trazado 111800" d="M216.33,94.82a19.2,19.2,0,0,1-5.61-.68.13.13,0,0,1-.08-.16.14.14,0,0,1,.17-.09,23.7,23.7,0,0,0,8.45.54,25.59,25.59,0,0,0,7.92-1.72.13.13,0,0,1,.17.06.14.14,0,0,1-.06.18,25.89,25.89,0,0,1-8,1.74C218.26,94.78,217.27,94.82,216.33,94.82Z" fill="url(#linear-gradient-18)"/>
      <path id="Trazado_111801" data-name="Trazado 111801" d="M216.34,92.31a22.89,22.89,0,0,1-4.72-.43.133.133,0,0,1,.06-.26,27.32,27.32,0,0,0,7.58.31,26.14,26.14,0,0,0,7.88-1.71.13.13,0,1,1,.1.24,26,26,0,0,1-8,1.73Q217.77,92.31,216.34,92.31Z" fill="url(#linear-gradient-19)"/>
      <path id="Trazado_111802" data-name="Trazado 111802" d="M205.52,78.53a18.48,18.48,0,0,0-3.31-6.45A42.7,42.7,0,0,1,193,48.29c-.95-16.52,13.71-24.8,27.09-23.68s26.57,11.09,25.13,26.46c-.89,9.46-6.19,16.64-10.13,20.76a22,22,0,0,0-5.26,9.31c-1.18,4.28-4,9.6-10.69,9.92C210.49,91.48,206.9,83.41,205.52,78.53Z" fill="url(#linear-gradient-20)"/>
      <path id="Trazado_111803" data-name="Trazado 111803" d="M221.36,87.77l4.69-30.44c.09-.63.4-1,.69-.95s.43.71.34,1.34v.05l-5.33,30.16c0,.23-.16.37-.26.32S221.33,88,221.36,87.77Z" fill="url(#linear-gradient-21)"/>
      <path id="Trazado_111804" data-name="Trazado 111804" d="M216.51,88l-4.68-30.44c-.1-.63-.41-1-.69-.94s-.44.7-.35,1.33h0l5.33,30.16c0,.23.16.37.26.32S216.54,88.23,216.51,88Z" fill="url(#linear-gradient-22)"/>
      <path id="Trazado_111805" data-name="Trazado 111805" d="M226,54.71a.49.49,0,0,0-.61-.16l-2.61,1.22-.9-2.57a.53.53,0,0,0-.32-.32.63.63,0,0,0-.8.24h0L218.62,57l-2-5.56h0a.62.62,0,0,0-.3-.34.79.79,0,0,0-1,.19l-3,4.13a.37.37,0,0,0,.1.52.51.51,0,0,0,.64-.07L215.73,53l2.37,5.3h0a.41.41,0,0,0,.2.21.51.51,0,0,0,.63-.17l2.29-3.67.86,1.86h0a.48.48,0,0,0,.61.16l3.1-1.44a.37.37,0,0,0,.21-.54Z" fill="#fff" opacity="0.79"/>
      <path id="Trazado_111806" data-name="Trazado 111806" d="M235.2,67.77a.45.45,0,0,1-.36-.73A35.579,35.579,0,0,0,237,63.73a.46.46,0,0,1,.62-.17.47.47,0,0,1,.17.63,37.551,37.551,0,0,1-2.24,3.4A.46.46,0,0,1,235.2,67.77Z" fill="#fff" opacity="0.79"/>
      <path id="Trazado_111807" data-name="Trazado 111807" d="M239.05,61.16a.39.39,0,0,1-.18,0,.46.46,0,0,1-.24-.6,27.91,27.91,0,0,0,.64-21.15.47.47,0,0,1,.23-.61.46.46,0,0,1,.6.23,28.85,28.85,0,0,1-.63,21.9.45.45,0,0,1-.42.23Z" fill="#fff" opacity="0.79"/>
      <path id="Trazado_111808" data-name="Trazado 111808" d="M235.61,172.72c-3.7-8.8-17.08-35.5-40.75-27.25a.36.36,0,0,0,0,.69c5.22,1,24.56,5.86,40.07,26.91a.382.382,0,1,0,.68-.35Z" fill="#dad5ed"/>
      <path id="Trazado_111809" data-name="Trazado 111809" d="M235.4,173.27c-5.32-5-21.17-24.42-42.21-15.55a.24.24,0,0,0,.06.46c5.21.55,31,3.82,42.05,15.52C235.59,174,235.71,173.56,235.4,173.27Z" fill="#dad5ed"/>
      <path id="Trazado_111810" data-name="Trazado 111810" d="M234.9,171.07c-.5-6.64-3.47-31.69-19.6-36.86a.13.13,0,0,0-.15.2c1.94,2.74,16.09,23,19.5,36.7a.13.13,0,0,0,.25-.04Z" fill="#dad5ed"/>
      <path id="Trazado_111811" data-name="Trazado 111811" d="M236.51,178.67a.14.14,0,0,0,.17-.22c-2.85-2.84-14.66-13.27-29.64-8.13C190.07,176.14,219.79,169.6,236.51,178.67Z" fill="#dad5ed"/>
      <path id="Trazado_111812" data-name="Trazado 111812" d="M236.12,173.47a.43.43,0,0,1-.85.07c-1.79-7.87-5.58-29.57,5.46-35.09C253.79,131.92,237.89,147.74,236.12,173.47Z" fill="#dad5ed"/>
      <path id="Trazado_111813" data-name="Trazado 111813" d="M235.36,173.42c1.85-4.83,9-19.84,23.88-11.73a.28.28,0,0,1-.12.53,35,35,0,0,0-23.28,11.48.28.28,0,0,1-.48-.28Z" fill="#dad5ed"/>
      <path id="Trazado_111814" data-name="Trazado 111814" d="M235.76,174.63c.68-3,4.24-9,22.35-3.49a.1.1,0,0,1,0,.19c-3.56-.37-15.58-1.19-21.48,3.82a.52.52,0,0,1-.87-.52Z" fill="#dad5ed"/>
      <path id="Trazado_111815" data-name="Trazado 111815" d="M241,256.31V251.1l-.08-5.26c0-3.51-.11-7-.19-10.52-.16-7-.36-14-.68-21s-.75-14-1.42-21c-.34-3.48-.76-7-1.32-10.4a58.891,58.891,0,0,0-2.41-10.18l.31-.13a40.515,40.515,0,0,1,1.74,5l.35,1.28c.11.42.21.85.31,1.28l.31,1.29.27,1.29c.7,3.46,1.24,6.94,1.66,10.44s.76,7,1,10.5.47,7,.64,10.53.27,7,.35,10.53.11,7,.09,10.54-.06,7-.15,10.54l-.18,5.27-.12,2.63-.08,1.32v.66a2.589,2.589,0,0,1-.07.7Z" fill="#dad5ed"/>
      <path id="Trazado_111816" data-name="Trazado 111816" d="M247.09,194.28c2.48-5.9,11.44-23.78,27.3-18.25a.24.24,0,0,1,0,.46c-3.49.65-16.45,3.92-26.84,18a.253.253,0,0,1-.46-.21Z" fill="#dad5ed"/>
      <path id="Trazado_111817" data-name="Trazado 111817" d="M247.23,194.65c3.56-3.36,14.18-16.36,28.28-10.42a.16.16,0,0,1-.05.31c-3.48.37-20.78,2.56-28.16,10.4C247.1,195.14,247,194.85,247.23,194.65Z" fill="#dad5ed"/>
      <path id="Trazado_111818" data-name="Trazado 111818" d="M247.56,193.18c.34-4.45,2.33-21.23,13.14-24.7a.09.09,0,0,1,.1.14c-1.31,1.83-10.78,15.4-13.07,24.58a.09.09,0,0,1-.17-.02Z" fill="#dad5ed"/>
      <path id="Trazado_111819" data-name="Trazado 111819" d="M246.49,198.27a.093.093,0,0,1-.11-.15c1.91-1.9,9.81-8.89,19.85-5.45C277.6,196.57,257.69,192.19,246.49,198.27Z" fill="#dad5ed"/>
      <path id="Trazado_111820" data-name="Trazado 111820" d="M246.75,194.79a.29.29,0,0,0,.57,0c1.2-5.27,3.74-19.81-3.66-23.5C234.91,167,245.56,177.55,246.75,194.79Z" fill="#dad5ed"/>
      <path id="Trazado_111821" data-name="Trazado 111821" d="M247.26,194.75c-1.24-3.24-6-13.29-16-7.86a.19.19,0,0,0,.08.36,23.45,23.45,0,0,1,15.6,7.69.19.19,0,0,0,.32-.19Z" fill="#dad5ed"/>
      <path id="Trazado_111822" data-name="Trazado 111822" d="M247,195.56c-.46-2-2.84-6-15-2.33a.06.06,0,0,0,0,.12c2.38-.25,10.44-.8,14.39,2.56a.352.352,0,1,0,.61-.35Z" fill="#dad5ed"/>
      <path id="Trazado_111823" data-name="Trazado 111823" d="M244.65,256.42a1.805,1.805,0,0,0-.05-.54v-1.49c0-.65-.06-1.31-.09-2l-.13-3.93c-.09-2.63-.09-5.26-.11-7.88s0-5.26,0-7.89.12-5.25.23-7.88.26-5.25.44-7.88.44-5.24.76-7.86l.26-2,.3-2c.21-1.3.43-2.6.71-3.9.13-.64.28-1.29.44-1.93l.25-1,.27-.95a27.694,27.694,0,0,1,1.35-3.73l.31.12a38.163,38.163,0,0,0-1,3.77l-.2,1c-.06.32-.11.64-.17,1l-.18,1-.15,1c-.1.64-.2,1.29-.28,1.94s-.19,1.29-.26,1.94c-.15,1.3-.29,2.6-.43,3.9-.5,5.2-.86,10.43-1.12,15.66s-.43,10.47-.56,15.72c-.07,2.62-.09,5.24-.15,7.86v7.86Z" fill="#dad5ed"/>
      <path id="Trazado_111824" data-name="Trazado 111824" d="M229.5,205.19c-3.17-5.16-14-20.57-26.33-12.77a.24.24,0,0,0,.12.43c3.06,0,14.57,1,25.9,12.63C229.37,205.67,229.64,205.42,229.5,205.19Z" fill="#dad5ed"/>
      <path id="Trazado_111825" data-name="Trazado 111825" d="M229.45,205.56c-3.62-2.59-14.93-13.12-25.72-5.22a.16.16,0,0,0,.1.29c3-.22,18-1,25.61,5.21C229.65,206,229.66,205.71,229.45,205.56Z" fill="#dad5ed"/>
      <path id="Trazado_111826" data-name="Trazado 111826" d="M228.9,204.22c-1.1-4.14-5.84-19.65-15.58-21.15-.07,0-.11.08,0,.14,1.43,1.52,11.89,12.78,15.49,21.07C228.8,204.37,228.92,204.32,228.9,204.22Z" fill="#dad5ed"/>
      <path id="Trazado_111827" data-name="Trazado 111827" d="M230.73,208.85c.09,0,.15-.09.07-.15-2-1.49-9.89-6.79-17.71-1.91C204.23,212.33,220.19,205,230.73,208.85Z" fill="#dad5ed"/>
      <path id="Trazado_111828" data-name="Trazado 111828" d="M229.88,205.61a.25.25,0,0,1-.47.14c-2-4.78-6.78-18.08-1.22-22.78C234.76,177.41,227.73,189.15,229.88,205.61Z" fill="#dad5ed"/>
      <path id="Trazado_111829" data-name="Trazado 111829" d="M229.44,205.66c.45-3.26,2.65-13.52,12-10a.2.2,0,0,1,0,.36,19.17,19.17,0,0,0-11.73,9.8.17.17,0,0,1-.27-.16Z" fill="#dad5ed"/>
      <path id="Trazado_111830" data-name="Trazado 111830" d="M229.81,206.38c0-2,1.3-6.13,12.19-4.65.06,0,.07.12,0,.12-2.05.16-8.93,1-11.65,4.77C230.18,206.86,229.81,206.7,229.81,206.38Z" fill="#dad5ed"/>
      <path id="Trazado_111831" data-name="Trazado 111831" d="M242.69,257.44l-.31-1.62-.33-1.66-.67-3.31L240,244.22q-.7-3.3-1.46-6.6T237,231q-1.57-6.57-3.44-13.06l-.48-1.62-.49-1.61c-.33-1.08-.67-2.15-1-3.21a47.916,47.916,0,0,0-2.55-6.21l.28-.17a25.553,25.553,0,0,1,1.65,3c.25.52.5,1,.71,1.56s.44,1,.64,1.57c.84,2.11,1.58,4.26,2.24,6.42,1.33,4.33,2.41,8.72,3.44,13.12.51,2.21,1,4.41,1.48,6.62s.89,4.43,1.32,6.65.84,4.43,1.21,6.66l.55,3.35.26,1.67.12.84.06.42a4.62,4.62,0,0,1,.05.46Z" fill="#dad5ed"/>
      <path id="Trazado_111832" data-name="Trazado 111832" d="M234.85,235.49h14.41c1,0,1.65,1.43,1.44,2.92a108.1,108.1,0,0,1-4.29,19.71c-.42,1.23-1.22,2-2.09,2h-4.7c-.85,0-1.64-.76-2-2a96.089,96.089,0,0,1-4.42-19.34C233,237.09,233.77,235.49,234.85,235.49Z" fill="url(#linear-gradient-23)"/>
    </g>
  </g>
</svg>
