<svg xmlns="http://www.w3.org/2000/svg" width="1076" height="446" viewBox="0 0 1076 446">
  <g id="Grupo_55524" data-name="Grupo 55524" transform="translate(-262 -2680)">
    <g id="Grupo_55523" data-name="Grupo 55523" transform="translate(4039.836 2075)">
      <g id="Grupo_18878" data-name="Grupo 18878">
        <path id="Trazado_35418" data-name="Trazado 35418" d="M-3350.836,605h222v85h-222Z" fill="#472ea6"/>
        <path id="Trazado_35419" data-name="Trazado 35419" d="M-3319.113,654.215a8.4,8.4,0,0,1-3.1-.564,7.253,7.253,0,0,1-2.47-1.585,7.1,7.1,0,0,1-1.622-2.513,8.885,8.885,0,0,1-.586-3.277,8.858,8.858,0,0,1,.6-3.314,7.2,7.2,0,0,1,1.655-2.535,7.4,7.4,0,0,1,2.519-1.6,8.677,8.677,0,0,1,3.164-.569,8.462,8.462,0,0,1,4.034.951,6.926,6.926,0,0,1,2.8,2.7l-2.825,1.5a4.146,4.146,0,0,0-1.638-1.762,4.706,4.706,0,0,0-2.369-.591,4.5,4.5,0,0,0-3.389,1.364,5.2,5.2,0,0,0-1.317,3.78,5.361,5.361,0,0,0,1.31,3.793,4.549,4.549,0,0,0,3.511,1.418,5.178,5.178,0,0,0,1.891-.333,3.784,3.784,0,0,0,1.509-1.078,3.92,3.92,0,0,0,.859-1.842h-4.246v-2.591h7.294V654h-2.536v-2.148A5.664,5.664,0,0,1-3319.113,654.215Zm20.9-5.9-.032.741h-8.182a2.855,2.855,0,0,0,.881,2.02,2.816,2.816,0,0,0,1.944.7,2.719,2.719,0,0,0,1.456-.376,2.351,2.351,0,0,0,.929-1.112l2.836.419a4.826,4.826,0,0,1-1.934,2.584,5.747,5.747,0,0,1-3.266.924,5.98,5.98,0,0,1-4.3-1.52,5.542,5.542,0,0,1-1.6-4.216,5.578,5.578,0,0,1,1.6-4.216,5.8,5.8,0,0,1,4.2-1.542,5.544,5.544,0,0,1,3.964,1.407,5.525,5.525,0,0,1,1.508,4.189Zm-5.442-3.4a2.444,2.444,0,0,0-2.681,2.127h5.07a2.327,2.327,0,0,0-.77-1.579A2.415,2.415,0,0,0-3303.655,644.912Zm10.764-.2a3.582,3.582,0,0,1,1.45-1.327,4.413,4.413,0,0,1,2.159-.553v2.761a4.182,4.182,0,0,0-2.643.666,2.907,2.907,0,0,0-.816,2.363V654h-3.116V642.957h2.965Zm15.747,3.605-.032.741h-8.185a2.855,2.855,0,0,0,.881,2.02,2.816,2.816,0,0,0,1.944.7,2.725,2.725,0,0,0,1.455-.378,2.349,2.349,0,0,0,.929-1.112l2.836.419a4.825,4.825,0,0,1-1.933,2.584,5.746,5.746,0,0,1-3.266.924,5.98,5.98,0,0,1-4.3-1.52,5.542,5.542,0,0,1-1.6-4.216,5.578,5.578,0,0,1,1.6-4.216,5.8,5.8,0,0,1,4.2-1.542,5.544,5.544,0,0,1,3.964,1.407A5.525,5.525,0,0,1-3277.144,648.317Zm-5.446-3.405a2.444,2.444,0,0,0-2.686,2.127h5.07a2.331,2.331,0,0,0-.763-1.579A2.42,2.42,0,0,0-3282.59,644.912Zm14.319-2.17a4.3,4.3,0,0,1,3.051.994,3.688,3.688,0,0,1,1.064,2.83V654h-3.1v-6.768a1.925,1.925,0,0,0-.553-1.525,2.084,2.084,0,0,0-1.427-.483,2.92,2.92,0,0,0-.924.14,2.36,2.36,0,0,0-.776.436,1.911,1.911,0,0,0-.553.833,3.831,3.831,0,0,0-.209,1.278V654h-3.093V642.957h3.094v1.225A4.254,4.254,0,0,1-3268.271,642.742ZM-3257.045,654a3.332,3.332,0,0,1-2.491-.9,3.487,3.487,0,0,1-.881-2.551v-5.218h-2.17v-2.374h.7a1.822,1.822,0,0,0,1.375-.462,2.38,2.38,0,0,0,.44-1.644V639.39h2.793v3.566H-3255v2.374h-2.279v4.888q0,1.43,1.278,1.429h1V654Zm14.781-5.683-.032.741h-8.186a2.855,2.855,0,0,0,.881,2.02,2.817,2.817,0,0,0,1.944.7,2.712,2.712,0,0,0,1.456-.378,2.351,2.351,0,0,0,.929-1.112l2.836.412a4.823,4.823,0,0,1-1.933,2.591,5.751,5.751,0,0,1-3.267.924,5.98,5.98,0,0,1-4.3-1.52,5.542,5.542,0,0,1-1.6-4.216,5.576,5.576,0,0,1,1.6-4.216,5.8,5.8,0,0,1,4.2-1.542,5.54,5.54,0,0,1,3.963,1.407A5.523,5.523,0,0,1-3242.264,648.317Zm-5.446-3.405a2.444,2.444,0,0,0-2.686,2.127h5.07a2.33,2.33,0,0,0-.763-1.579A2.419,2.419,0,0,0-3247.71,644.912Zm20.636,9.3a8.4,8.4,0,0,1-3.1-.564,7.251,7.251,0,0,1-2.471-1.584,7.118,7.118,0,0,1-1.621-2.511,8.883,8.883,0,0,1-.585-3.276,8.858,8.858,0,0,1,.6-3.314,7.192,7.192,0,0,1,1.654-2.535,7.393,7.393,0,0,1,2.519-1.6,8.675,8.675,0,0,1,3.164-.569,8.462,8.462,0,0,1,4.034.951,6.924,6.924,0,0,1,2.8,2.7l-2.825,1.5a4.146,4.146,0,0,0-1.638-1.762,4.707,4.707,0,0,0-2.369-.591,4.5,4.5,0,0,0-3.389,1.364,5.2,5.2,0,0,0-1.317,3.779,5.364,5.364,0,0,0,1.311,3.792,4.55,4.55,0,0,0,3.513,1.418,5.178,5.178,0,0,0,1.891-.333,3.777,3.777,0,0,0,1.5-1.08,3.92,3.92,0,0,0,.859-1.842h-4.243v-2.588h7.294V654h-2.535v-2.148a5.663,5.663,0,0,1-5.046,2.363Zm20.9-5.9-.032.741h-8.186a2.855,2.855,0,0,0,.881,2.02,2.816,2.816,0,0,0,1.944.7,2.711,2.711,0,0,0,1.456-.381,2.35,2.35,0,0,0,.929-1.112l2.836.419a4.825,4.825,0,0,1-1.934,2.589,5.746,5.746,0,0,1-3.266.924,5.979,5.979,0,0,1-4.3-1.52,5.543,5.543,0,0,1-1.6-4.216,5.576,5.576,0,0,1,1.61-4.214,5.8,5.8,0,0,1,4.2-1.542,5.544,5.544,0,0,1,3.964,1.407,5.524,5.524,0,0,1,1.5,4.19Zm-5.442-3.4a2.444,2.444,0,0,0-2.686,2.127h5.07a2.33,2.33,0,0,0-.763-1.579A2.419,2.419,0,0,0-3211.616,644.912Zm14.319-2.17a4.3,4.3,0,0,1,3.051.994,3.684,3.684,0,0,1,1.063,2.831V654h-3.1v-6.768a1.926,1.926,0,0,0-.553-1.525,2.086,2.086,0,0,0-1.423-.483,2.923,2.923,0,0,0-.924.14,2.372,2.372,0,0,0-.773.435,1.911,1.911,0,0,0-.553.833,3.836,3.836,0,0,0-.209,1.278V654h-3.094V642.957h3.094v1.225A4.254,4.254,0,0,1-3197.3,642.742Zm17.5,5.575-.032.741h-8.187a2.856,2.856,0,0,0,.881,2.02,2.816,2.816,0,0,0,1.944.7,2.725,2.725,0,0,0,1.455-.378,2.35,2.35,0,0,0,.929-1.112l2.836.419a4.825,4.825,0,0,1-1.934,2.589,5.746,5.746,0,0,1-3.266.924,5.983,5.983,0,0,1-4.3-1.52,5.55,5.55,0,0,1-1.6-4.216,5.585,5.585,0,0,1,1.6-4.216,5.8,5.8,0,0,1,4.2-1.542,5.545,5.545,0,0,1,3.965,1.407,5.52,5.52,0,0,1,1.509,4.184Zm-5.446-3.405a2.444,2.444,0,0,0-2.686,2.127h5.07a2.331,2.331,0,0,0-.763-1.579,2.422,2.422,0,0,0-1.622-.548Zm10.764-.2a3.583,3.583,0,0,1,1.45-1.327,4.413,4.413,0,0,1,2.158-.553v2.761a4.184,4.184,0,0,0-2.643.666,2.915,2.915,0,0,0-.816,2.363V654h-3.115V642.957h2.965Zm14.414,6.288a10.3,10.3,0,0,0,.269,2.7v.3h-2.89l-.25-1.2a3.6,3.6,0,0,1-1.544,1.06,5.7,5.7,0,0,1-2,.354,5.233,5.233,0,0,1-1.031-.1,3.472,3.472,0,0,1-.929-.328,2.808,2.808,0,0,1-.768-.575,2.522,2.522,0,0,1-.517-.875,3.479,3.479,0,0,1-.192-1.2,3.336,3.336,0,0,1,.2-1.2,2.814,2.814,0,0,1,.538-.9,3.254,3.254,0,0,1,.869-.655,6.649,6.649,0,0,1,1.1-.473,13.062,13.062,0,0,1,1.311-.344l1.815-.408a2.009,2.009,0,0,0,.822-.349.7.7,0,0,0,.242-.553,1.141,1.141,0,0,0-.542-1.063,2.536,2.536,0,0,0-1.316-.322,1.894,1.894,0,0,0-2.147,1.6c-.005.032-.008.063-.011.095l-2.739-.494a3.707,3.707,0,0,1,1.6-2.519,6.36,6.36,0,0,1,3.47-.811q4.641,0,4.641,3.985Zm-5.446,1.12a2.49,2.49,0,0,0,1.912-.8,3.375,3.375,0,0,0,.741-2.369l-2.621.741a3.1,3.1,0,0,0-1.1.451.927.927,0,0,0-.38.795,1.029,1.029,0,0,0,.408.875A1.686,1.686,0,0,0-3165.511,652.12Zm8.454,1.88V637.5h3.126V654Z" fill="#fff"/>
        <path id="Trazado_34813" data-name="Trazado 34813" d="M-3638.836,777V735.646h840V777" fill="none" stroke="#01223d" stroke-width="2"/>
        <path id="Trazado_34814" data-name="Trazado 34814" d="M-3359.836,735.646V777" fill="none" stroke="#01223d" stroke-width="2"/>
        <path id="Trazado_34815" data-name="Trazado 34815" d="M-3078.836,735.646V777" fill="none" stroke="#01223d" stroke-width="2"/>
        <path id="Trazado_34816" data-name="Trazado 34816" d="M-3644.216,863.879v81.6h-64.42v20.5" fill="none" stroke="#01223d" stroke-width="2"/>
        <path id="Trazado_35427" data-name="Trazado 35427" d="M-3777.836,966h130v85h-130Z" fill="#fdc0d2"/>
        <path id="Trazado_35438" data-name="Trazado 35438" d="M-3753.686,1003.625a3.668,3.668,0,0,1,1.938.514,3.475,3.475,0,0,1,1.3,1.375,4.042,4.042,0,0,1,.453,1.907,3.758,3.758,0,0,1-1.024,2.694,3.516,3.516,0,0,1-2.667,1.077h-3.111V1016h-1.573v-12.375Zm-.229,6.2a2.252,2.252,0,0,0,1.723-.664,2.462,2.462,0,0,0,.625-1.761,2.464,2.464,0,0,0-.624-1.745,2.239,2.239,0,0,0-1.723-.672h-2.883v4.834Zm7.77-.94a2.61,2.61,0,0,1,1.072-1.16,3.227,3.227,0,0,1,1.661-.457v1.432a2.845,2.845,0,0,0-2.008.642,2.677,2.677,0,0,0-.69,2.048V1016h-1.521v-8.64h1.485Zm8.051,7.282a4.545,4.545,0,0,1-2.215-.536,3.888,3.888,0,0,1-1.56-1.569,4.808,4.808,0,0,1-.576-2.386,4.4,4.4,0,0,1,1.226-3.256,4.229,4.229,0,0,1,3.125-1.226,4.231,4.231,0,0,1,3.129,1.226,4.414,4.414,0,0,1,1.222,3.256,4.419,4.419,0,0,1-1.226,3.265A4.232,4.232,0,0,1-3738.094,1016.167Zm-.009-1.267a2.655,2.655,0,0,0,2.043-.888,3.333,3.333,0,0,0,.813-2.338,3.32,3.32,0,0,0-.813-2.329,2.655,2.655,0,0,0-2.043-.888,2.615,2.615,0,0,0-2.026.888,3.331,3.331,0,0,0-.8,2.329,3.339,3.339,0,0,0,.8,2.338A2.614,2.614,0,0,0-3738.1,1014.9Zm13.122-12.4h1.521V1016h-1.468l-.035-1.679a3.189,3.189,0,0,1-1.23,1.362,3.434,3.434,0,0,1-1.828.5,3.875,3.875,0,0,1-1.565-.319,3.912,3.912,0,0,1-1.288-.9,4.146,4.146,0,0,1-.87-1.428,5.187,5.187,0,0,1-.321-1.854,4.537,4.537,0,0,1,1.173-3.243,3.789,3.789,0,0,1,2.87-1.248,3.449,3.449,0,0,1,1.806.488,3.2,3.2,0,0,1,1.235,1.321Zm-2.724,12.366a2.589,2.589,0,0,0,2.008-.91,3.287,3.287,0,0,0,.813-2.272,3.283,3.283,0,0,0-.817-2.268,2.588,2.588,0,0,0-2-.914,2.64,2.64,0,0,0-2.021.883,3.248,3.248,0,0,0-.817,2.3,3.248,3.248,0,0,0,.817,2.3A2.643,2.643,0,0,0-3727.705,1014.866Zm12.718-7.506h1.52V1016h-1.459l-.035-1.143a2.708,2.708,0,0,1-1.075.972,3.306,3.306,0,0,1-1.509.338,3,3,0,0,1-2.175-.782,2.914,2.914,0,0,1-.816-2.206v-5.819h1.521v5.476a2.044,2.044,0,0,0,.532,1.547,1.88,1.88,0,0,0,1.358.51,2.069,2.069,0,0,0,1.534-.6,2.441,2.441,0,0,0,.6-1.767Zm8.2,8.8a4.157,4.157,0,0,1-3.094-1.241,4.421,4.421,0,0,1-1.222-3.243,4.423,4.423,0,0,1,1.218-3.243,4.156,4.156,0,0,1,3.1-1.239,4.191,4.191,0,0,1,2.5.756,3.819,3.819,0,0,1,1.449,2.1l-1.42.228a2.633,2.633,0,0,0-.98-1.344,2.661,2.661,0,0,0-1.56-.475,2.552,2.552,0,0,0-2,.888,3.372,3.372,0,0,0-.787,2.329,3.36,3.36,0,0,0,.788,2.324,2.558,2.558,0,0,0,2,.883,2.663,2.663,0,0,0,1.559-.474,2.632,2.632,0,0,0,.98-1.345l1.42.236a3.824,3.824,0,0,1-1.459,2.1,4.187,4.187,0,0,1-2.492.758Zm9.782,0a4.161,4.161,0,0,1-3.094-1.239,4.421,4.421,0,0,1-1.222-3.243,4.427,4.427,0,0,1,1.217-3.243,4.156,4.156,0,0,1,3.1-1.239,4.191,4.191,0,0,1,2.5.756,3.825,3.825,0,0,1,1.455,2.1l-1.424.229a2.636,2.636,0,0,0-.976-1.345,2.657,2.657,0,0,0-1.564-.475,2.552,2.552,0,0,0-2,.888,3.372,3.372,0,0,0-.787,2.329,3.364,3.364,0,0,0,.787,2.322,2.558,2.558,0,0,0,2,.883,2.657,2.657,0,0,0,1.564-.475,2.635,2.635,0,0,0,.976-1.345l1.424.237a3.82,3.82,0,0,1-1.464,2.1,4.187,4.187,0,0,1-2.492.758Zm6.969-10.83a.987.987,0,0,1-.725-.3.985.985,0,0,1-.3-.725.971.971,0,0,1,.3-.721,1,1,0,0,1,.725-.3.987.987,0,0,1,.716.3.978.978,0,0,1,.3.721.992.992,0,0,1-.3.725A.983.983,0,0,1-3690.036,1005.33Zm-.773,10.67v-8.64h1.529V1016Zm7.682-10.125,2.206-2.865.809.589-1.969,2.276Zm.58,10.292a4.544,4.544,0,0,1-2.215-.536,3.887,3.887,0,0,1-1.56-1.569,4.8,4.8,0,0,1-.576-2.386,4.4,4.4,0,0,1,1.226-3.256,4.229,4.229,0,0,1,3.125-1.226,4.232,4.232,0,0,1,3.129,1.226,4.414,4.414,0,0,1,1.222,3.256,4.418,4.418,0,0,1-1.226,3.265A4.232,4.232,0,0,1-3682.547,1016.167Zm-.009-1.267a2.656,2.656,0,0,0,2.043-.888,3.333,3.333,0,0,0,.813-2.338,3.321,3.321,0,0,0-.813-2.329,2.656,2.656,0,0,0-2.043-.888,2.615,2.615,0,0,0-2.026.888,3.332,3.332,0,0,0-.8,2.329,3.341,3.341,0,0,0,.8,2.338A2.614,2.614,0,0,0-3682.556,1014.9Zm10.82-7.707a3.006,3.006,0,0,1,2.175.782,2.92,2.92,0,0,1,.813,2.206V1016h-1.521v-5.476a2.044,2.044,0,0,0-.527-1.547,1.885,1.885,0,0,0-1.354-.5,2.089,2.089,0,0,0-1.538.593,2.4,2.4,0,0,0-.606,1.762V1016h-1.521v-8.64h1.521v1.107A2.884,2.884,0,0,1-3671.736,1007.193Z" fill="#00223d"/>
        <path id="Trazado_35428" data-name="Trazado 35428" d="M-3638.836,966h130v85h-130Z" fill="#fdc0d2"/>
        <path id="Trazado_35433" data-name="Trazado 35433" d="M-3610.854,1005.167a6.56,6.56,0,0,1-2.435-.444,5.865,5.865,0,0,1-1.956-1.248,5.548,5.548,0,0,1-1.3-2.008,7.245,7.245,0,0,1-.47-2.663,7.12,7.12,0,0,1,.479-2.65,5.554,5.554,0,0,1,3.248-3.254,6.615,6.615,0,0,1,2.435-.439,6.3,6.3,0,0,1,3.292.87,5.425,5.425,0,0,1,2.175,2.417l-1.45.6a4.08,4.08,0,0,0-1.622-1.762,4.656,4.656,0,0,0-2.4-.62,4.914,4.914,0,0,0-1.8.325,4.307,4.307,0,0,0-1.459.932,4.185,4.185,0,0,0-.98,1.529,5.65,5.65,0,0,0-.353,2.048,5.681,5.681,0,0,0,.356,2.061,4.192,4.192,0,0,0,.98,1.534,4.383,4.383,0,0,0,1.459.936,4.855,4.855,0,0,0,1.8.33,4.656,4.656,0,0,0,2.4-.62,4.09,4.09,0,0,0,1.619-1.75l1.45.589a5.4,5.4,0,0,1-2.172,2.42A6.309,6.309,0,0,1-3610.854,1005.167Zm11.408,0a4.544,4.544,0,0,1-2.215-.536,3.887,3.887,0,0,1-1.56-1.569,4.808,4.808,0,0,1-.576-2.386,4.4,4.4,0,0,1,1.226-3.256,4.229,4.229,0,0,1,3.125-1.226,4.231,4.231,0,0,1,3.13,1.225,4.414,4.414,0,0,1,1.222,3.256,4.419,4.419,0,0,1-1.226,3.265,4.235,4.235,0,0,1-3.125,1.227Zm-.008-1.267a2.656,2.656,0,0,0,2.043-.888,3.336,3.336,0,0,0,.813-2.338,3.323,3.323,0,0,0-.813-2.329,2.656,2.656,0,0,0-2.043-.888,2.615,2.615,0,0,0-2.026.888,3.332,3.332,0,0,0-.8,2.329,3.341,3.341,0,0,0,.8,2.338A2.614,2.614,0,0,0-3599.454,1003.9Zm10.818-7.707a3.006,3.006,0,0,1,2.175.782,2.921,2.921,0,0,1,.813,2.206V1005h-1.519v-5.476a2.045,2.045,0,0,0-.527-1.547,1.884,1.884,0,0,0-1.354-.5,2.089,2.089,0,0,0-1.538.593,2.4,2.4,0,0,0-.606,1.762V1005h-1.521v-8.64h1.521v1.108A2.883,2.883,0,0,1-3588.636,996.193Zm8.685,8.807a2.27,2.27,0,0,1-1.687-.62,2.343,2.343,0,0,1-.615-1.727v-5.08h-1.768V996.36h.65a1.254,1.254,0,0,0,.954-.3,1.5,1.5,0,0,0,.281-1.018v-1.564h1.415v2.882h1.985v1.213h-1.989v4.927a1.306,1.306,0,0,0,.33.954,1.151,1.151,0,0,0,.866.338h.793V1005Zm4.9-7.119a2.61,2.61,0,0,1,1.072-1.16,3.227,3.227,0,0,1,1.661-.457V997.7a2.845,2.845,0,0,0-2.008.642,2.677,2.677,0,0,0-.69,2.048V1005h-1.525v-8.64h1.485Zm8.051,7.286a4.545,4.545,0,0,1-2.215-.536,3.888,3.888,0,0,1-1.56-1.569,4.808,4.808,0,0,1-.576-2.386,4.395,4.395,0,0,1,1.226-3.256,4.6,4.6,0,0,1,6.253,0,4.414,4.414,0,0,1,1.222,3.256,4.42,4.42,0,0,1-1.226,3.265,4.233,4.233,0,0,1-3.129,1.226Zm-.014-1.267a2.656,2.656,0,0,0,2.043-.888,3.333,3.333,0,0,0,.813-2.338,3.321,3.321,0,0,0-.813-2.329,2.656,2.656,0,0,0-2.043-.888,2.615,2.615,0,0,0-2.026.888,3.332,3.332,0,0,0-.8,2.329,3.341,3.341,0,0,0,.8,2.338A2.614,2.614,0,0,0-3567.014,1003.9Zm6.741,1.1V991.5h1.537V1005Zm15.689-13.5h1.521V1005h-1.473l-.035-1.679a3.19,3.19,0,0,1-1.23,1.362,3.435,3.435,0,0,1-1.828.5,3.923,3.923,0,0,1-2.852-1.217,4.15,4.15,0,0,1-.87-1.428,5.193,5.193,0,0,1-.321-1.854,4.542,4.542,0,0,1,1.172-3.243,3.793,3.793,0,0,1,2.871-1.248,3.448,3.448,0,0,1,1.806.488,3.2,3.2,0,0,1,1.239,1.319Zm-2.725,12.366a2.589,2.589,0,0,0,2.008-.91,3.287,3.287,0,0,0,.813-2.272,3.283,3.283,0,0,0-.817-2.268,2.588,2.588,0,0,0-2-.914,2.64,2.64,0,0,0-2.021.883,3.248,3.248,0,0,0-.817,2.3,3.248,3.248,0,0,0,.817,2.3A2.644,2.644,0,0,0-3547.309,1003.866Zm14.9-3.357-.018.413h-6.75a3.049,3.049,0,0,0,.826,2.21,2.713,2.713,0,0,0,1.969.769,2.592,2.592,0,0,0,1.433-.413,2.687,2.687,0,0,0,.984-1.143l1.371.29a3.912,3.912,0,0,1-1.477,1.854,4.027,4.027,0,0,1-2.294.677,4.171,4.171,0,0,1-3.111-1.2,4.477,4.477,0,0,1-1.187-3.287,4.453,4.453,0,0,1,1.19-3.279,4.121,4.121,0,0,1,3.063-1.2,3.9,3.9,0,0,1,2.9,1.107,4.377,4.377,0,0,1,1.1,3.2Zm-4-3.146a2.688,2.688,0,0,0-1.8.611,2.791,2.791,0,0,0-.91,1.78h5.183a2.572,2.572,0,0,0-.756-1.78,2.443,2.443,0,0,0-1.718-.612Zm-63.149,27.8a4.16,4.16,0,0,1-3.094-1.239,4.421,4.421,0,0,1-1.222-3.243,4.427,4.427,0,0,1,1.217-3.243,4.5,4.5,0,0,1,5.6-.483,3.825,3.825,0,0,1,1.455,2.1l-1.424.229a2.635,2.635,0,0,0-.976-1.345,2.656,2.656,0,0,0-1.564-.475,2.552,2.552,0,0,0-2,.888,3.834,3.834,0,0,0,0,4.654,2.558,2.558,0,0,0,2,.883,2.657,2.657,0,0,0,1.564-.475,2.635,2.635,0,0,0,.976-1.345l1.424.237a3.826,3.826,0,0,1-1.463,2.1,4.187,4.187,0,0,1-2.5.752Zm8.191.009a2.939,2.939,0,0,1-1.894-.593,2.128,2.128,0,0,1-.743-1.771,2.5,2.5,0,0,1,.237-1.129,1.991,1.991,0,0,1,.7-.787,4.239,4.239,0,0,1,1.015-.488,9.364,9.364,0,0,1,1.314-.312l1.4-.229q.765-.141.765-.8a1.51,1.51,0,0,0-.541-1.288,2.206,2.206,0,0,0-1.367-.409,2.237,2.237,0,0,0-1.354.4,1.652,1.652,0,0,0-.642,1.213l-1.371-.29a2.635,2.635,0,0,1,1.081-1.85,4.034,4.034,0,0,1,2.355-.62,4.814,4.814,0,0,1,1.252.154,3.414,3.414,0,0,1,1.046.483,2.177,2.177,0,0,1,.747.932,3.481,3.481,0,0,1,.268,1.419v3.568a1.449,1.449,0,0,0,.2.9.854.854,0,0,0,.681.233h.141V1025h-.759a1.441,1.441,0,0,1-1.635-1.169h-.065a3.3,3.3,0,0,1-2.832,1.336Zm.352-1.23a2.305,2.305,0,0,0,1.854-.835,3.441,3.441,0,0,0,.7-2.285l-2.285.439a3.081,3.081,0,0,0-1.34.479,1.109,1.109,0,0,0-.435.945,1.1,1.1,0,0,0,.417.949,1.785,1.785,0,0,0,1.087.3Zm7.079,1.058v-13.5h1.538V1025Zm5.405-10.67a1.034,1.034,0,0,1-1.025-1.03.971.971,0,0,1,.3-.721,1,1,0,0,1,.725-.3.987.987,0,0,1,.716.3.978.978,0,0,1,.3.721.993.993,0,0,1-.3.725.98.98,0,0,1-.712.3Zm-.77,10.67v-8.64h1.529V1025Zm11-13.5h1.525V1025h-1.468l-.035-1.679a3.19,3.19,0,0,1-1.23,1.362,3.435,3.435,0,0,1-1.828.5,3.923,3.923,0,0,1-2.852-1.217,4.15,4.15,0,0,1-.87-1.428,5.187,5.187,0,0,1-.321-1.854,4.537,4.537,0,0,1,1.173-3.243,3.789,3.789,0,0,1,2.87-1.248,3.448,3.448,0,0,1,1.806.488A3.207,3.207,0,0,1-3568.3,1018Zm-2.721,12.366a2.589,2.589,0,0,0,2.008-.91,3.571,3.571,0,0,0,0-4.54,2.588,2.588,0,0,0-2-.914,2.64,2.64,0,0,0-2.021.883,3.639,3.639,0,0,0,0,4.6A2.642,2.642,0,0,0-3571.022,1023.866Zm9.334,1.3a2.94,2.94,0,0,1-1.894-.593,2.128,2.128,0,0,1-.743-1.771,2.5,2.5,0,0,1,.237-1.129,1.99,1.99,0,0,1,.7-.787,4.241,4.241,0,0,1,1.015-.488,9.372,9.372,0,0,1,1.314-.312l1.4-.229c.509-.094.765-.361.765-.8a1.51,1.51,0,0,0-.541-1.288,2.206,2.206,0,0,0-1.367-.409,2.238,2.238,0,0,0-1.354.4,1.652,1.652,0,0,0-.642,1.213l-1.371-.29a2.635,2.635,0,0,1,1.081-1.85,4.032,4.032,0,0,1,2.355-.62,4.807,4.807,0,0,1,1.252.154,3.407,3.407,0,0,1,1.046.483,2.177,2.177,0,0,1,.747.932,3.481,3.481,0,0,1,.272,1.418v3.568a1.451,1.451,0,0,0,.2.9.855.855,0,0,0,.681.233h.141v1.1h-.756a1.441,1.441,0,0,1-1.635-1.169h-.07a3.3,3.3,0,0,1-2.833,1.336Zm.352-1.23a2.305,2.305,0,0,0,1.854-.835,3.44,3.44,0,0,0,.7-2.285l-2.285.439a3.082,3.082,0,0,0-1.34.479,1.111,1.111,0,0,0-.429.946,1.1,1.1,0,0,0,.417.949,1.782,1.782,0,0,0,1.083.308Zm13.289-12.436h1.521V1025h-1.468l-.035-1.679a3.19,3.19,0,0,1-1.23,1.362,3.435,3.435,0,0,1-1.828.5,3.923,3.923,0,0,1-2.849-1.216,4.146,4.146,0,0,1-.87-1.428,5.187,5.187,0,0,1-.321-1.854,4.537,4.537,0,0,1,1.173-3.243,3.789,3.789,0,0,1,2.87-1.248,3.449,3.449,0,0,1,1.806.488,3.2,3.2,0,0,1,1.231,1.318Zm-2.725,12.366a2.589,2.589,0,0,0,2.008-.91,3.571,3.571,0,0,0,0-4.54,2.588,2.588,0,0,0-2-.914,2.64,2.64,0,0,0-2.021.883,3.639,3.639,0,0,0,0,4.6A2.642,2.642,0,0,0-3550.772,1023.866Z" fill="#00223d"/>
        <path id="Trazado_35429" data-name="Trazado 35429" d="M-3492.836,966h130v85h-130Z" fill="#fdc0d2"/>
        <path id="Trazado_35439" data-name="Trazado 35439" d="M-3473.319,1016.167a6.557,6.557,0,0,1-2.435-.444,5.865,5.865,0,0,1-1.956-1.248,5.548,5.548,0,0,1-1.3-2.008,7.25,7.25,0,0,1-.47-2.663,7.119,7.119,0,0,1,.475-2.65,5.687,5.687,0,0,1,1.3-2.008,5.725,5.725,0,0,1,1.951-1.246,6.612,6.612,0,0,1,2.435-.439,6.3,6.3,0,0,1,3.292.87,5.425,5.425,0,0,1,2.175,2.417l-1.45.6a4.08,4.08,0,0,0-1.622-1.762,4.656,4.656,0,0,0-2.4-.62,4.915,4.915,0,0,0-1.8.325,4.307,4.307,0,0,0-1.459.932,4.185,4.185,0,0,0-.98,1.529,5.656,5.656,0,0,0-.353,2.048,5.686,5.686,0,0,0,.356,2.061,4.2,4.2,0,0,0,.98,1.534,4.385,4.385,0,0,0,1.459.936,4.855,4.855,0,0,0,1.8.33,4.657,4.657,0,0,0,2.4-.62,4.088,4.088,0,0,0,1.622-1.753l1.45.589a5.4,5.4,0,0,1-2.174,2.423A6.31,6.31,0,0,1-3473.319,1016.167Zm11.408,0a4.544,4.544,0,0,1-2.215-.536,3.887,3.887,0,0,1-1.56-1.569,4.8,4.8,0,0,1-.576-2.386,4.4,4.4,0,0,1,1.226-3.257,4.229,4.229,0,0,1,3.125-1.226,4.232,4.232,0,0,1,3.129,1.226,4.413,4.413,0,0,1,1.222,3.256,4.419,4.419,0,0,1-1.226,3.265A4.236,4.236,0,0,1-3461.911,1016.167Zm-.009-1.267a2.656,2.656,0,0,0,2.043-.888,3.333,3.333,0,0,0,.813-2.338,3.32,3.32,0,0,0-.813-2.329,2.656,2.656,0,0,0-2.043-.888,2.615,2.615,0,0,0-2.026.888,3.332,3.332,0,0,0-.8,2.329,3.341,3.341,0,0,0,.8,2.338A2.614,2.614,0,0,0-3461.92,1014.9Zm10.819-7.708a3.006,3.006,0,0,1,2.175.782,2.92,2.92,0,0,1,.813,2.206V1016h-1.523v-5.476a2.045,2.045,0,0,0-.527-1.547,1.884,1.884,0,0,0-1.354-.5,2.089,2.089,0,0,0-1.538.593,2.4,2.4,0,0,0-.606,1.762V1016h-1.521v-8.64h1.521v1.107a2.885,2.885,0,0,1,2.56-1.274Zm8.684,8.808a2.27,2.27,0,0,1-1.687-.62,2.344,2.344,0,0,1-.615-1.727v-5.08h-1.767v-1.213h.65a1.25,1.25,0,0,0,.954-.3,1.5,1.5,0,0,0,.277-1.015v-1.564h1.415v2.879h1.986v1.213h-1.986v4.927a1.306,1.306,0,0,0,.33.954,1.152,1.152,0,0,0,.866.338h.791V1016Zm5.3.167a2.939,2.939,0,0,1-1.894-.593,2.127,2.127,0,0,1-.743-1.774,2.5,2.5,0,0,1,.237-1.129,1.992,1.992,0,0,1,.7-.787,4.215,4.215,0,0,1,1.019-.484,9.367,9.367,0,0,1,1.314-.312l1.4-.229q.765-.141.765-.8a1.51,1.51,0,0,0-.541-1.288,2.206,2.206,0,0,0-1.367-.409,2.238,2.238,0,0,0-1.354.4,1.651,1.651,0,0,0-.642,1.213l-1.371-.29a2.636,2.636,0,0,1,1.081-1.85,4.032,4.032,0,0,1,2.355-.62,4.807,4.807,0,0,1,1.252.154,3.407,3.407,0,0,1,1.046.483,2.177,2.177,0,0,1,.747.932,3.474,3.474,0,0,1,.267,1.416v3.568a1.45,1.45,0,0,0,.2.9.855.855,0,0,0,.681.233h.141v1.1h-.756a1.441,1.441,0,0,1-1.637-1.169h-.07A3.3,3.3,0,0,1-3437.117,1016.167Zm.352-1.23a2.306,2.306,0,0,0,1.854-.837,3.441,3.441,0,0,0,.7-2.285l-2.285.439a3.061,3.061,0,0,0-1.34.481,1.109,1.109,0,0,0-.435.945,1.1,1.1,0,0,0,.417.949,1.782,1.782,0,0,0,1.088.308Zm11.662-7.744a3.77,3.77,0,0,1,2.857,1.248,4.56,4.56,0,0,1,1.169,3.244,4.586,4.586,0,0,1-1.159,3.252,3.758,3.758,0,0,1-2.867,1.248,3.458,3.458,0,0,1-1.841-.5,3.163,3.163,0,0,1-1.235-1.364l-.035,1.679h-1.468v-13.5h1.512l.009,6.513a3.18,3.18,0,0,1,1.235-1.332A3.466,3.466,0,0,1-3425.1,1007.193Zm-.333,7.673a2.643,2.643,0,0,0,2.021-.883,3.257,3.257,0,0,0,.817-2.3,3.257,3.257,0,0,0-.817-2.3,2.643,2.643,0,0,0-2.021-.883,2.585,2.585,0,0,0-2,.914,3.27,3.27,0,0,0-.822,2.271,3.279,3.279,0,0,0,.813,2.272A2.584,2.584,0,0,0-3425.436,1014.866Zm7.523-9.536a.987.987,0,0,1-.725-.3.984.984,0,0,1-.3-.725.97.97,0,0,1,.3-.721,1,1,0,0,1,.725-.3.987.987,0,0,1,.716.3.978.978,0,0,1,.3.721.992.992,0,0,1-.3.725A.983.983,0,0,1-3417.913,1005.33Zm-.774,10.67v-8.64h1.529V1016Zm4.623,0v-13.5h1.538V1016Zm5.405-10.67a.987.987,0,0,1-.725-.3.985.985,0,0,1-.3-.725.971.971,0,0,1,.3-.721,1,1,0,0,1,.725-.3.987.987,0,0,1,.716.3.977.977,0,0,1,.3.721.991.991,0,0,1-.3.725.979.979,0,0,1-.715.3Zm-.777,10.67v-8.64h1.529V1016Zm11-13.5h1.521V1016h-1.46l-.035-1.679a3.184,3.184,0,0,1-1.226,1.363,3.436,3.436,0,0,1-1.828.5,3.879,3.879,0,0,1-1.572-.32,3.912,3.912,0,0,1-1.288-.9,4.15,4.15,0,0,1-.87-1.428,5.187,5.187,0,0,1-.321-1.854,4.539,4.539,0,0,1,1.179-3.241,3.788,3.788,0,0,1,2.87-1.248,3.449,3.449,0,0,1,1.806.488,3.205,3.205,0,0,1,1.232,1.319Zm-2.716,12.366a2.589,2.589,0,0,0,2.008-.91,3.287,3.287,0,0,0,.808-2.271,3.285,3.285,0,0,0-.817-2.268,2.588,2.588,0,0,0-2-.914,2.641,2.641,0,0,0-2.021.883,3.247,3.247,0,0,0-.817,2.3,3.247,3.247,0,0,0,.817,2.3A2.643,2.643,0,0,0-3401.152,1014.866Zm9.334,1.3a2.939,2.939,0,0,1-1.894-.593,2.126,2.126,0,0,1-.743-1.773,2.5,2.5,0,0,1,.237-1.129,1.99,1.99,0,0,1,.7-.787,4.21,4.21,0,0,1,1.018-.484,9.356,9.356,0,0,1,1.314-.312l1.4-.229q.765-.141.765-.8a1.51,1.51,0,0,0-.541-1.288,2.206,2.206,0,0,0-1.367-.409,2.238,2.238,0,0,0-1.354.4,1.652,1.652,0,0,0-.642,1.213l-1.371-.29a2.635,2.635,0,0,1,1.081-1.85,4.033,4.033,0,0,1,2.355-.62,4.809,4.809,0,0,1,1.252.154,3.413,3.413,0,0,1,1.046.483,2.177,2.177,0,0,1,.747.932,3.488,3.488,0,0,1,.268,1.416v3.568a1.45,1.45,0,0,0,.2.9.855.855,0,0,0,.681.233h.141v1.1h-.756a1.441,1.441,0,0,1-1.635-1.169h-.07a3.3,3.3,0,0,1-2.832,1.336Zm.352-1.23a2.306,2.306,0,0,0,1.854-.836,3.439,3.439,0,0,0,.7-2.285l-2.285.439a3.082,3.082,0,0,0-1.34.479,1.109,1.109,0,0,0-.435.945,1.1,1.1,0,0,0,.417.949,1.783,1.783,0,0,0,1.088.31Zm13.288-12.436h1.521V1016h-1.468l-.035-1.679a3.19,3.19,0,0,1-1.23,1.362,3.436,3.436,0,0,1-1.828.5,3.892,3.892,0,0,1-1.564-.321,3.912,3.912,0,0,1-1.288-.9,4.145,4.145,0,0,1-.87-1.428,5.187,5.187,0,0,1-.321-1.854,4.536,4.536,0,0,1,1.173-3.243,3.788,3.788,0,0,1,2.87-1.248,3.448,3.448,0,0,1,1.806.488,3.2,3.2,0,0,1,1.234,1.323Zm-2.724,12.366a2.589,2.589,0,0,0,2.008-.91,3.287,3.287,0,0,0,.813-2.272,3.283,3.283,0,0,0-.817-2.268,2.588,2.588,0,0,0-2-.914,2.64,2.64,0,0,0-2.021.883,3.248,3.248,0,0,0-.817,2.3,3.248,3.248,0,0,0,.817,2.3A2.644,2.644,0,0,0-3380.9,1014.866Z" fill="#00223d"/>
        <path id="Trazado_35430" data-name="Trazado 35430" d="M-3353.836,966h130v85h-130Z" fill="#fdc0d2"/>
        <path id="Trazado_34817" data-name="Trazado 34817" d="M-3644.216,945.3h66.262v20.549" fill="none" stroke="#01223d" stroke-width="2"/>
        <path id="Trazado_34818" data-name="Trazado 34818" d="M-3360.216,857.559v87.918h-64.42v20.5" fill="none" stroke="#01223d" stroke-width="2"/>
        <path id="Trazado_34819" data-name="Trazado 34819" d="M-3360.216,945.3h66.262v20.549" fill="none" stroke="#01223d" stroke-width="2"/>
        <path id="Trazado_35440" data-name="Trazado 35440" d="M-3315.412,1003.625v1.433h-3.173V1016h-1.564v-10.942h-3.182v-1.433Zm8.156,7.884-.018.413h-6.75a3.049,3.049,0,0,0,.826,2.21,2.713,2.713,0,0,0,1.969.769,2.592,2.592,0,0,0,1.433-.413,2.687,2.687,0,0,0,.984-1.143l1.371.29a3.9,3.9,0,0,1-1.476,1.855,4.027,4.027,0,0,1-2.294.677,4.171,4.171,0,0,1-3.111-1.2,4.477,4.477,0,0,1-1.187-3.287,4.455,4.455,0,0,1,1.192-3.28,4.121,4.121,0,0,1,3.063-1.2,3.9,3.9,0,0,1,2.9,1.107,4.377,4.377,0,0,1,1.1,3.2Zm-4-3.146a2.688,2.688,0,0,0-1.8.611,2.79,2.79,0,0,0-.91,1.78h5.177a2.572,2.572,0,0,0-.756-1.78,2.443,2.443,0,0,0-1.709-.612Zm9.12,7.8a4.1,4.1,0,0,1-2.329-.624,2.577,2.577,0,0,1-1.134-1.775l1.327-.378a1.847,1.847,0,0,0,.708,1.2,2.3,2.3,0,0,0,1.419.426,2.85,2.85,0,0,0,.831-.114,1.333,1.333,0,0,0,.637-.426,1.145,1.145,0,0,0,.255-.787,1.163,1.163,0,0,0-.07-.356,1.581,1.581,0,0,0-.141-.286.894.894,0,0,0-.246-.237,3.335,3.335,0,0,0-.3-.185,3.168,3.168,0,0,0-.391-.163q-.259-.091-.417-.141t-.483-.141c-.217-.061-.384-.11-.5-.145a9.145,9.145,0,0,1-.9-.316,3.9,3.9,0,0,1-.729-.417,1.669,1.669,0,0,1-.567-.681,2.279,2.279,0,0,1-.189-.967,2.231,2.231,0,0,1,.422-1.38,2.37,2.37,0,0,1,1.1-.813,4.373,4.373,0,0,1,1.534-.25,3.751,3.751,0,0,1,2.1.563,2.4,2.4,0,0,1,1.05,1.688l-1.248.316a1.659,1.659,0,0,0-.659-1.094,2.1,2.1,0,0,0-1.239-.365,2.138,2.138,0,0,0-1.16.3,1.018,1.018,0,0,0-.483.927.907.907,0,0,0,.127.479,1.519,1.519,0,0,0,.259.338,1.59,1.59,0,0,0,.475.259c.228.091.4.152.51.185s.322.087.633.163c.058.017.1.029.132.035q.51.132.831.233a5.143,5.143,0,0,1,.747.316,2.489,2.489,0,0,1,.672.47,2.2,2.2,0,0,1,.419.676,2.366,2.366,0,0,1,.176.932,2.528,2.528,0,0,1-.259,1.165,2.039,2.039,0,0,1-.708.8,3.448,3.448,0,0,1-1.009.425A4.812,4.812,0,0,1-3302.136,1016.167Zm9.211,0a4.549,4.549,0,0,1-2.219-.536,3.89,3.89,0,0,1-1.56-1.569,4.8,4.8,0,0,1-.576-2.386,4.4,4.4,0,0,1,1.226-3.257,4.229,4.229,0,0,1,3.125-1.226,4.231,4.231,0,0,1,3.129,1.226,4.412,4.412,0,0,1,1.221,3.257,4.418,4.418,0,0,1-1.226,3.265,4.234,4.234,0,0,1-3.124,1.226Zm-.011-1.267a2.655,2.655,0,0,0,2.043-.888,3.333,3.333,0,0,0,.813-2.338,3.32,3.32,0,0,0-.813-2.329,2.657,2.657,0,0,0-2.043-.886,2.614,2.614,0,0,0-2.026.888,3.331,3.331,0,0,0-.8,2.329,3.339,3.339,0,0,0,.8,2.338A2.617,2.617,0,0,0-3292.936,1014.9Zm8.225-6.019a2.606,2.606,0,0,1,1.075-1.16,3.227,3.227,0,0,1,1.661-.457v1.436a2.845,2.845,0,0,0-2.008.642,2.677,2.677,0,0,0-.69,2.048V1016h-1.524v-8.64h1.486Zm11.975,2.628-.018.413h-6.754a3.049,3.049,0,0,0,.826,2.21,2.713,2.713,0,0,0,1.969.769,2.592,2.592,0,0,0,1.433-.413,2.69,2.69,0,0,0,.984-1.143l1.371.29a3.9,3.9,0,0,1-1.477,1.855,4.027,4.027,0,0,1-2.294.677,4.17,4.17,0,0,1-3.111-1.2,4.475,4.475,0,0,1-1.187-3.291,4.451,4.451,0,0,1,1.191-3.276,4.121,4.121,0,0,1,3.063-1.2,3.9,3.9,0,0,1,2.9,1.1A4.379,4.379,0,0,1-3272.736,1011.509Zm-4-3.146a2.688,2.688,0,0,0-1.8.611,2.79,2.79,0,0,0-.91,1.78h5.177a2.572,2.572,0,0,0-.756-1.78,2.441,2.441,0,0,0-1.711-.612Zm7.866.519a2.61,2.61,0,0,1,1.072-1.16,3.23,3.23,0,0,1,1.662-.458v1.436a2.846,2.846,0,0,0-2.008.642,2.679,2.679,0,0,0-.692,2.044V1016h-1.523v-8.64h1.485Zm4.711-3.015,2.2-2.867.809.589-1.969,2.276Zm-.2,10.133v-8.64h1.529V1016Zm6.62.167a2.937,2.937,0,0,1-1.9-.593,2.127,2.127,0,0,1-.739-1.774,2.507,2.507,0,0,1,.239-1.127,1.99,1.99,0,0,1,.7-.787,4.188,4.188,0,0,1,1.017-.486,9.356,9.356,0,0,1,1.314-.312l1.4-.229q.765-.141.765-.8a1.51,1.51,0,0,0-.541-1.288,2.207,2.207,0,0,0-1.367-.409,2.238,2.238,0,0,0-1.354.4,1.652,1.652,0,0,0-.642,1.213l-1.371-.29a2.635,2.635,0,0,1,1.079-1.854,4.033,4.033,0,0,1,2.355-.62,4.806,4.806,0,0,1,1.252.154,3.413,3.413,0,0,1,1.046.483,2.178,2.178,0,0,1,.747.932,3.492,3.492,0,0,1,.27,1.42v3.568a1.451,1.451,0,0,0,.2.9.855.855,0,0,0,.681.233h.141v1.1h-.756a1.442,1.442,0,0,1-1.636-1.169h-.07A3.3,3.3,0,0,1-3257.736,1016.167Zm.352-1.23a2.3,2.3,0,0,0,1.848-.837,3.441,3.441,0,0,0,.7-2.285l-2.285.439a3.08,3.08,0,0,0-1.34.479,1.109,1.109,0,0,0-.435.945,1.1,1.1,0,0,0,.417.949,1.783,1.783,0,0,0,1.093.31Z" fill="#00223d"/>
        <path id="Trazado_35431" data-name="Trazado 35431" d="M-3208.836,966h130v85h-130Z" fill="#fdc0d2"/>
        <path id="Trazado_35441" data-name="Trazado 35441" d="M-3178.192,1016.167a5.65,5.65,0,0,1-3.23-.875,3.7,3.7,0,0,1-1.613-2.4l1.591-.378a2.606,2.606,0,0,0,1.116,1.686,3.768,3.768,0,0,0,2.188.615,4.574,4.574,0,0,0,.817-.07,3.126,3.126,0,0,0,.743-.233,2.31,2.31,0,0,0,.611-.4,1.677,1.677,0,0,0,.4-.606,2.1,2.1,0,0,0,.141-.826,1.789,1.789,0,0,0-.11-.584,1.85,1.85,0,0,0-.246-.461,1.671,1.671,0,0,0-.417-.374,5.681,5.681,0,0,0-.5-.3,4.669,4.669,0,0,0-.62-.25q-.391-.132-.655-.207l-.712-.2c-.059-.017-.1-.029-.132-.035q-.51-.132-.831-.229c-.214-.065-.471-.154-.769-.268a5.026,5.026,0,0,1-.734-.338,4.946,4.946,0,0,1-.6-.422,2.14,2.14,0,0,1-.5-.549,2.825,2.825,0,0,1-.3-.7,3.078,3.078,0,0,1-.119-.879,3.134,3.134,0,0,1,.576-1.9,3.358,3.358,0,0,1,1.485-1.16,5.4,5.4,0,0,1,2.043-.369,5.6,5.6,0,0,1,2.975.76,3.39,3.39,0,0,1,1.578,2.246l-1.529.387a2.329,2.329,0,0,0-1.021-1.518,3.53,3.53,0,0,0-1.934-.51,3.837,3.837,0,0,0-.949.114,2.823,2.823,0,0,0-.822.352,1.7,1.7,0,0,0-.593.646,1.953,1.953,0,0,0-.22.945,1.51,1.51,0,0,0,.088.523,1.566,1.566,0,0,0,.22.417,1.562,1.562,0,0,0,.378.343,3.877,3.877,0,0,0,.461.272,4.677,4.677,0,0,0,.576.224c.24.079.445.144.615.193s.4.109.677.18a14.3,14.3,0,0,1,2.382.791,3.018,3.018,0,0,1,1.836,2.28,4.149,4.149,0,0,1,.035.536,3.463,3.463,0,0,1-.356,1.6,2.893,2.893,0,0,1-.976,1.107,4.664,4.664,0,0,1-1.388.617A6.387,6.387,0,0,1-3178.192,1016.167Zm14.511-4.658-.018.413h-6.75a3.049,3.049,0,0,0,.826,2.21,2.713,2.713,0,0,0,1.969.769,2.592,2.592,0,0,0,1.433-.413,2.694,2.694,0,0,0,.985-1.142l1.371.29a3.908,3.908,0,0,1-1.478,1.854,4.023,4.023,0,0,1-2.293.677,4.171,4.171,0,0,1-3.111-1.2,4.473,4.473,0,0,1-1.189-3.291,4.454,4.454,0,0,1,1.192-3.276,4.121,4.121,0,0,1,3.063-1.2,3.9,3.9,0,0,1,2.905,1.1,4.38,4.38,0,0,1,1.094,3.209Zm-4-3.146a2.688,2.688,0,0,0-1.8.611,2.791,2.791,0,0,0-.91,1.78h5.177a2.572,2.572,0,0,0-.756-1.78,2.441,2.441,0,0,0-1.711-.612Zm6.381,7.637v-13.5h1.538V1016Zm12.19-4.491-.018.413h-6.75a3.049,3.049,0,0,0,.826,2.21,2.71,2.71,0,0,0,1.97.768,2.592,2.592,0,0,0,1.433-.413,2.688,2.688,0,0,0,.984-1.143l1.371.29a3.9,3.9,0,0,1-1.477,1.856,4.027,4.027,0,0,1-2.294.677,4.171,4.171,0,0,1-3.111-1.2,4.477,4.477,0,0,1-1.187-3.287,4.455,4.455,0,0,1,1.192-3.28,4.121,4.121,0,0,1,3.063-1.2,3.9,3.9,0,0,1,2.9,1.1,4.379,4.379,0,0,1,1.1,3.209Zm-4-3.146a2.688,2.688,0,0,0-1.8.611,2.79,2.79,0,0,0-.91,1.78h5.184a2.571,2.571,0,0,0-.756-1.78,2.442,2.442,0,0,0-1.716-.612Zm9.968,7.8a4.161,4.161,0,0,1-3.094-1.239,4.416,4.416,0,0,1-1.221-3.243,4.425,4.425,0,0,1,1.221-3.243,4.156,4.156,0,0,1,3.1-1.239,4.19,4.19,0,0,1,2.5.756,3.825,3.825,0,0,1,1.455,2.1l-1.424.229a2.63,2.63,0,0,0-.981-1.345,2.656,2.656,0,0,0-1.564-.475,2.552,2.552,0,0,0-2,.888,3.378,3.378,0,0,0-.786,2.329,3.359,3.359,0,0,0,.786,2.324,2.558,2.558,0,0,0,2,.883,2.663,2.663,0,0,0,1.564-.474,2.633,2.633,0,0,0,.976-1.345l1.423.236a3.827,3.827,0,0,1-1.463,2.1A4.187,4.187,0,0,1-3143.142,1016.158Zm9.782,0a4.158,4.158,0,0,1-3.093-1.239,4.421,4.421,0,0,1-1.222-3.243,4.427,4.427,0,0,1,1.217-3.243,4.156,4.156,0,0,1,3.1-1.239,4.191,4.191,0,0,1,2.5.756,3.825,3.825,0,0,1,1.455,2.1l-1.424.229a2.635,2.635,0,0,0-.976-1.345,2.656,2.656,0,0,0-1.564-.475,2.552,2.552,0,0,0-2,.888,3.372,3.372,0,0,0-.787,2.329,3.359,3.359,0,0,0,.786,2.324,2.558,2.558,0,0,0,2,.883,2.657,2.657,0,0,0,1.564-.475,2.635,2.635,0,0,0,.976-1.345l1.424.237a3.82,3.82,0,0,1-1.464,2.1,4.186,4.186,0,0,1-2.491.758Zm6.97-10.828a.987.987,0,0,1-.725-.3.985.985,0,0,1-.3-.725.971.971,0,0,1,.3-.721,1,1,0,0,1,.725-.3.987.987,0,0,1,.716.3.978.978,0,0,1,.3.721.992.992,0,0,1-.3.725A.983.983,0,0,1-3126.39,1005.33Zm-.773,10.67v-8.64h1.527V1016Zm7.682-10.125,2.206-2.865.809.589-1.97,2.276Zm.58,10.292a4.544,4.544,0,0,1-2.215-.536,3.887,3.887,0,0,1-1.56-1.569,4.8,4.8,0,0,1-.576-2.386,4.4,4.4,0,0,1,1.226-3.257,4.228,4.228,0,0,1,3.125-1.226,4.232,4.232,0,0,1,3.129,1.226,4.414,4.414,0,0,1,1.222,3.256,4.419,4.419,0,0,1-1.226,3.265A4.236,4.236,0,0,1-3118.9,1016.167Zm-.009-1.267a2.656,2.656,0,0,0,2.043-.888,3.333,3.333,0,0,0,.813-2.338,3.321,3.321,0,0,0-.813-2.329,2.656,2.656,0,0,0-2.043-.888,2.615,2.615,0,0,0-2.026.888,3.332,3.332,0,0,0-.8,2.329,3.341,3.341,0,0,0,.8,2.338A2.614,2.614,0,0,0-3118.91,1014.9Zm10.819-7.707a3.006,3.006,0,0,1,2.175.782,2.92,2.92,0,0,1,.813,2.206V1016h-1.52v-5.476a2.044,2.044,0,0,0-.527-1.547,1.885,1.885,0,0,0-1.354-.5,2.089,2.089,0,0,0-1.538.593,2.4,2.4,0,0,0-.606,1.762V1016h-1.521v-8.64h1.521v1.107A2.884,2.884,0,0,1-3108.091,1007.193Z" fill="#00223d"/>
        <path id="Trazado_35432" data-name="Trazado 35432" d="M-3070.74,965.986h130v85h-130Z" fill="#fdc0d2"/>
        <path id="Trazado_35434" data-name="Trazado 35434" d="M-3053.564,1007.208a5.654,5.654,0,0,1-3.23-.875,3.7,3.7,0,0,1-1.613-2.4l1.591-.378a2.613,2.613,0,0,0,1.116,1.686,3.772,3.772,0,0,0,2.188.615,4.565,4.565,0,0,0,.817-.07,3.115,3.115,0,0,0,.743-.233,2.234,2.234,0,0,0,.611-.4,1.656,1.656,0,0,0,.4-.606,2.063,2.063,0,0,0,.141-.826,1.769,1.769,0,0,0-.11-.584,1.813,1.813,0,0,0-.246-.461,1.637,1.637,0,0,0-.417-.374,5.565,5.565,0,0,0-.5-.3,4.552,4.552,0,0,0-.62-.25c-.26-.088-.479-.157-.655-.207l-.712-.2c-.058-.017-.1-.029-.132-.035q-.51-.132-.831-.229t-.769-.268a5.119,5.119,0,0,1-.734-.338,5.071,5.071,0,0,1-.6-.422,2.162,2.162,0,0,1-.5-.549,2.911,2.911,0,0,1-.3-.7,3.139,3.139,0,0,1-.119-.879,3.144,3.144,0,0,1,.576-1.9,3.376,3.376,0,0,1,1.485-1.16,5.409,5.409,0,0,1,2.043-.369,5.6,5.6,0,0,1,2.975.76,3.385,3.385,0,0,1,1.584,2.249l-1.529.387a2.326,2.326,0,0,0-1.028-1.521,3.526,3.526,0,0,0-1.934-.51,3.853,3.853,0,0,0-.949.114,2.838,2.838,0,0,0-.822.352,1.712,1.712,0,0,0-.593.646,1.981,1.981,0,0,0-.22.945,1.551,1.551,0,0,0,.088.523,1.629,1.629,0,0,0,.22.417,1.58,1.58,0,0,0,.378.343,4.039,4.039,0,0,0,.461.272,4.8,4.8,0,0,0,.576.224c.24.079.445.144.615.193s.4.109.677.18a14.337,14.337,0,0,1,2.382.791,3.013,3.013,0,0,1,1.838,2.28,3.864,3.864,0,0,1,.035.536,3.441,3.441,0,0,1-.356,1.6,2.872,2.872,0,0,1-.976,1.107,4.665,4.665,0,0,1-1.389.62A6.375,6.375,0,0,1-3053.564,1007.208Zm14.511-4.658-.018.413h-6.75a3.054,3.054,0,0,0,.826,2.21,2.713,2.713,0,0,0,1.969.769,2.588,2.588,0,0,0,1.433-.413,2.676,2.676,0,0,0,.984-1.143l1.371.29a3.891,3.891,0,0,1-1.477,1.855,4.023,4.023,0,0,1-2.294.677,4.174,4.174,0,0,1-3.111-1.2,4.484,4.484,0,0,1-1.187-3.287,4.459,4.459,0,0,1,1.192-3.28,4.124,4.124,0,0,1,3.063-1.2,3.9,3.9,0,0,1,2.9,1.107A4.378,4.378,0,0,1-3039.053,1002.55Zm-4-3.146a2.7,2.7,0,0,0-1.8.611,2.8,2.8,0,0,0-.91,1.78h5.181a2.564,2.564,0,0,0-.756-1.78,2.442,2.442,0,0,0-1.715-.612Zm12.639-1h1.477v8.2a4.7,4.7,0,0,1-1.116,3.366,4.058,4.058,0,0,1-3.094,1.171,4.084,4.084,0,0,1-4.192-2.646l1.257-.61a2.856,2.856,0,0,0,2.892,2,2.478,2.478,0,0,0,2.025-.844,3.589,3.589,0,0,0,.7-2.355v-1.6a3.038,3.038,0,0,1-1.23,1.244,3.571,3.571,0,0,1-1.8.47,3.7,3.7,0,0,1-2.795-1.217,4.294,4.294,0,0,1-1.151-3.072,4.255,4.255,0,0,1,1.152-3.07,3.744,3.744,0,0,1,2.807-1.207,3.49,3.49,0,0,1,1.811.483,3.106,3.106,0,0,1,1.222,1.274Zm-2.742,7.1a2.612,2.612,0,0,0,1.991-.888,3,3,0,0,0,.822-2.109,3.017,3.017,0,0,0-.817-2.118,2.609,2.609,0,0,0-2-.888,2.634,2.634,0,0,0-1.991.861,3.006,3.006,0,0,0-.813,2.145,2.984,2.984,0,0,0,.826,2.134,2.631,2.631,0,0,0,1.982.862Zm12.691-7.1h1.521v8.637h-1.459l-.035-1.143a2.7,2.7,0,0,1-1.072.971,3.287,3.287,0,0,1-1.512.339,3.006,3.006,0,0,1-2.175-.782,2.921,2.921,0,0,1-.813-2.206V998.4h1.521v5.476a2.051,2.051,0,0,0,.532,1.547,1.884,1.884,0,0,0,1.358.51,2.066,2.066,0,0,0,1.534-.6,2.432,2.432,0,0,0,.6-1.767Zm6.1,1.521a2.616,2.616,0,0,1,1.072-1.16,3.229,3.229,0,0,1,1.661-.46v1.436a2.848,2.848,0,0,0-2.008.642,2.685,2.685,0,0,0-.69,2.048v4.61h-1.52V998.4h1.485Zm5.291-3.551a.99.99,0,0,1-.725-.3.993.993,0,0,1-.3-.725.98.98,0,0,1,.3-.721,1,1,0,0,1,.725-.3.988.988,0,0,1,.716.3.976.976,0,0,1,.3.721.984.984,0,0,1-.3.725.977.977,0,0,1-.716.3Zm-.773,10.667V998.4h1.529v8.64Zm11-13.5h1.521v13.5h-1.465l-.035-1.679a3.169,3.169,0,0,1-1.23,1.363,3.425,3.425,0,0,1-1.826.5,3.877,3.877,0,0,1-1.567-.321,3.933,3.933,0,0,1-1.288-.9,4.176,4.176,0,0,1-.87-1.428,5.231,5.231,0,0,1-.321-1.854,4.546,4.546,0,0,1,1.174-3.241,3.787,3.787,0,0,1,2.872-1.248,3.442,3.442,0,0,1,1.8.488,3.206,3.206,0,0,1,1.238,1.319Zm-2.721,12.366a2.586,2.586,0,0,0,2.008-.91,3.278,3.278,0,0,0,.813-2.272,3.274,3.274,0,0,0-.817-2.268,2.585,2.585,0,0,0-2-.914,2.643,2.643,0,0,0-2.021.883,3.258,3.258,0,0,0-.817,2.3,3.257,3.257,0,0,0,.817,2.3A2.643,2.643,0,0,0-3001.568,1005.907Zm9.334,1.3a2.941,2.941,0,0,1-1.894-.593,2.131,2.131,0,0,1-.743-1.773,2.533,2.533,0,0,1,.237-1.129,2.007,2.007,0,0,1,.7-.787,4.259,4.259,0,0,1,1.019-.484,9.4,9.4,0,0,1,1.314-.312l1.4-.229q.765-.141.765-.8a1.509,1.509,0,0,0-.546-1.288,2.2,2.2,0,0,0-1.367-.409,2.248,2.248,0,0,0-1.354.4,1.66,1.66,0,0,0-.642,1.213l-1.371-.29a2.643,2.643,0,0,1,1.081-1.85,4.045,4.045,0,0,1,2.355-.62,4.8,4.8,0,0,1,1.252.154,3.392,3.392,0,0,1,1.046.483,2.162,2.162,0,0,1,.747.932,3.455,3.455,0,0,1,.272,1.416v3.568a1.459,1.459,0,0,0,.2.9.852.852,0,0,0,.681.232h.141v1.1h-.756a1.442,1.442,0,0,1-1.635-1.169h-.07a3.3,3.3,0,0,1-2.832,1.336Zm.352-1.23a2.3,2.3,0,0,0,1.854-.836,3.435,3.435,0,0,0,.7-2.285l-2.285.439a3.081,3.081,0,0,0-1.34.479,1.115,1.115,0,0,0-.435.945,1.1,1.1,0,0,0,.417.949,1.782,1.782,0,0,0,1.089.31Zm13.288-12.436h1.521v13.5h-1.468l-.035-1.679a3.178,3.178,0,0,1-1.23,1.362,3.422,3.422,0,0,1-1.828.5,3.879,3.879,0,0,1-1.564-.321,3.932,3.932,0,0,1-1.288-.9,4.179,4.179,0,0,1-.87-1.428,5.248,5.248,0,0,1-.326-1.849,4.545,4.545,0,0,1,1.173-3.243,3.79,3.79,0,0,1,2.87-1.248,3.444,3.444,0,0,1,1.806.488,3.193,3.193,0,0,1,1.239,1.318Zm-2.724,12.366a2.586,2.586,0,0,0,2.008-.91,3.278,3.278,0,0,0,.813-2.272,3.274,3.274,0,0,0-.817-2.268,2.585,2.585,0,0,0-2-.914,2.643,2.643,0,0,0-2.021.883,3.258,3.258,0,0,0-.817,2.3,3.257,3.257,0,0,0,.817,2.3A2.643,2.643,0,0,0-2981.318,1005.907Zm19.573-3.357-.018.413h-6.749a3.053,3.053,0,0,0,.826,2.21,2.712,2.712,0,0,0,1.969.769,2.586,2.586,0,0,0,1.435-.413,2.674,2.674,0,0,0,.984-1.143l1.371.29a3.9,3.9,0,0,1-1.479,1.855,4.023,4.023,0,0,1-2.294.677,4.174,4.174,0,0,1-3.111-1.2,4.485,4.485,0,0,1-1.187-3.287,4.459,4.459,0,0,1,1.191-3.28,4.124,4.124,0,0,1,3.063-1.2,3.9,3.9,0,0,1,2.9,1.107A4.377,4.377,0,0,1-2961.745,1002.55Zm-4-3.146a2.7,2.7,0,0,0-1.8.611,2.8,2.8,0,0,0-.91,1.78h5.177a2.564,2.564,0,0,0-.756-1.78,2.444,2.444,0,0,0-1.71-.612Zm-58.037,16.967a.99.99,0,0,1-.725-.3.992.992,0,0,1-.3-.725.979.979,0,0,1,.3-.721,1,1,0,0,1,.725-.3.988.988,0,0,1,.716.3.976.976,0,0,1,.3.721.984.984,0,0,1-.3.725A.976.976,0,0,1-3023.782,1016.371Zm-.778,10.67v-8.64h1.529v8.64Zm10.878-8.64h1.477v8.2a4.7,4.7,0,0,1-1.116,3.366,4.054,4.054,0,0,1-3.092,1.174,4.084,4.084,0,0,1-4.192-2.646l1.257-.615a2.856,2.856,0,0,0,2.892,2,2.48,2.48,0,0,0,2.025-.839,3.589,3.589,0,0,0,.7-2.355v-1.6a3.039,3.039,0,0,1-1.23,1.244,3.572,3.572,0,0,1-1.8.47,3.7,3.7,0,0,1-2.795-1.217,4.293,4.293,0,0,1-1.151-3.072,4.256,4.256,0,0,1,1.152-3.07,3.741,3.741,0,0,1,2.808-1.208,3.49,3.49,0,0,1,1.811.483,3.1,3.1,0,0,1,1.222,1.274Zm-2.742,7.1a2.611,2.611,0,0,0,1.991-.888,3,3,0,0,0,.822-2.109,3.015,3.015,0,0,0-.817-2.118,2.609,2.609,0,0,0-2-.888,2.634,2.634,0,0,0-1.991.861,3.007,3.007,0,0,0-.813,2.145,2.978,2.978,0,0,0,.822,2.131,2.633,2.633,0,0,0,1.988.868Zm8.088-9.13a.99.99,0,0,1-.725-.3.992.992,0,0,1-.3-.725.98.98,0,0,1,.3-.721,1,1,0,0,1,.725-.3.987.987,0,0,1,.716.3.975.975,0,0,1,.3.721.984.984,0,0,1-.3.725A.975.975,0,0,1-3008.336,1016.371Zm-.773,10.67v-8.64h1.527v8.64Zm12.182-4.491-.018.413h-6.75a3.053,3.053,0,0,0,.826,2.21,2.711,2.711,0,0,0,1.969.769,2.588,2.588,0,0,0,1.433-.413,2.676,2.676,0,0,0,.985-1.142l1.371.29a3.886,3.886,0,0,1-1.478,1.854,4.022,4.022,0,0,1-2.294.677,4.173,4.173,0,0,1-3.111-1.2,4.482,4.482,0,0,1-1.188-3.291,4.463,4.463,0,0,1,1.192-3.276,4.124,4.124,0,0,1,3.063-1.2,3.9,3.9,0,0,1,2.905,1.1,4.373,4.373,0,0,1,1.094,3.209Zm-4-3.146a2.7,2.7,0,0,0-1.8.611,2.8,2.8,0,0,0-.91,1.78h5.18a2.564,2.564,0,0,0-.756-1.78,2.446,2.446,0,0,0-1.714-.612Zm10.459-1.169a3,3,0,0,1,2.175.782,2.913,2.913,0,0,1,.813,2.206v5.818H-2989v-5.476a2.038,2.038,0,0,0-.527-1.547,1.886,1.886,0,0,0-1.354-.5,2.092,2.092,0,0,0-1.538.593,2.41,2.41,0,0,0-.606,1.762v5.168h-1.521v-8.64h1.521v1.107a2.886,2.886,0,0,1,2.557-1.274Zm13.486,4.315-.018.413h-6.75a3.054,3.054,0,0,0,.826,2.21,2.712,2.712,0,0,0,1.969.769,2.589,2.589,0,0,0,1.433-.413,2.675,2.675,0,0,0,.984-1.143l1.371.29a3.9,3.9,0,0,1-1.477,1.854,4.023,4.023,0,0,1-2.294.677,4.174,4.174,0,0,1-3.111-1.2,4.485,4.485,0,0,1-1.187-3.287,4.461,4.461,0,0,1,1.189-3.279,4.124,4.124,0,0,1,3.063-1.2,3.9,3.9,0,0,1,2.9,1.1A4.372,4.372,0,0,1-2976.982,1022.55Zm-4-3.146a2.7,2.7,0,0,0-1.8.611,2.8,2.8,0,0,0-.91,1.78h5.177a2.563,2.563,0,0,0-.756-1.78,2.442,2.442,0,0,0-1.711-.612Z" fill="#00223d"/>
        <path id="Trazado_34820" data-name="Trazado 34820" d="M-3074.216,859.609v85.867h-64.42v20.5" fill="none" stroke="#01223d" stroke-width="2"/>
        <path id="Trazado_34821" data-name="Trazado 34821" d="M-3074.216,945.3h66.262v20.549" fill="none" stroke="#01223d" stroke-width="2"/>
        <path id="Trazado_34822" data-name="Trazado 34822" d="M-2794.216,859.926v85.551h-64.42v20.5" fill="none" stroke="#01223d" stroke-width="2"/>
        <path id="Trazado_34823" data-name="Trazado 34823" d="M-2794.216,945.3h66.262v20.549" fill="none" stroke="#01223d" stroke-width="2"/>
        <path id="Trazado_35435" data-name="Trazado 35435" d="M-2928.836,966h130v85h-130Z" fill="#fdc0d2"/>
        <path id="Trazado_35436" data-name="Trazado 35436" d="M-2918,1005V992.625h1.573V1005Zm9.141-8.807a3.006,3.006,0,0,1,2.175.782,2.92,2.92,0,0,1,.813,2.206V1005h-1.521v-5.476a2.044,2.044,0,0,0-.527-1.547,1.884,1.884,0,0,0-1.354-.5,2.089,2.089,0,0,0-1.538.593,2.4,2.4,0,0,0-.606,1.762V1005h-1.516v-8.64h1.521v1.107A2.884,2.884,0,0,1-2908.862,996.193Zm11.026.167h1.626l-3.521,8.64h-1.292l-3.5-8.64h1.617l2.531,6.873Zm10.644,4.148-.018.413h-6.75a3.049,3.049,0,0,0,.826,2.21,2.714,2.714,0,0,0,1.969.769,2.594,2.594,0,0,0,1.429-.412,2.688,2.688,0,0,0,.984-1.143l1.371.29a3.9,3.9,0,0,1-1.477,1.855,4.027,4.027,0,0,1-2.294.677,4.17,4.17,0,0,1-3.111-1.2,4.476,4.476,0,0,1-1.187-3.287,4.45,4.45,0,0,1,1.191-3.28,4.121,4.121,0,0,1,3.063-1.2,3.9,3.9,0,0,1,2.9,1.107,4.376,4.376,0,0,1,1.1,3.2Zm-4-3.146a2.688,2.688,0,0,0-1.8.611,2.791,2.791,0,0,0-.91,1.78h5.177a2.572,2.572,0,0,0-.756-1.78,2.443,2.443,0,0,0-1.715-.611Zm9.114,7.8a4.1,4.1,0,0,1-2.329-.624,2.576,2.576,0,0,1-1.134-1.775l1.327-.378a1.848,1.848,0,0,0,.708,1.2,2.3,2.3,0,0,0,1.419.426,2.847,2.847,0,0,0,.831-.114,1.333,1.333,0,0,0,.637-.426,1.145,1.145,0,0,0,.255-.787,1.163,1.163,0,0,0-.07-.356,1.581,1.581,0,0,0-.141-.286.9.9,0,0,0-.246-.237,3.3,3.3,0,0,0-.3-.185,3.165,3.165,0,0,0-.391-.163q-.26-.091-.417-.141t-.483-.141c-.217-.061-.384-.11-.5-.145a9.135,9.135,0,0,1-.9-.316,3.9,3.9,0,0,1-.729-.417,1.667,1.667,0,0,1-.567-.681,2.283,2.283,0,0,1-.189-.967,2.231,2.231,0,0,1,.422-1.38,2.368,2.368,0,0,1,1.094-.813,4.373,4.373,0,0,1,1.534-.25,3.751,3.751,0,0,1,2.1.563,2.4,2.4,0,0,1,1.05,1.688l-1.248.316a1.659,1.659,0,0,0-.659-1.094,2.1,2.1,0,0,0-1.232-.361,2.137,2.137,0,0,0-1.16.3,1.018,1.018,0,0,0-.483.927.907.907,0,0,0,.127.479,1.518,1.518,0,0,0,.259.338,1.59,1.59,0,0,0,.475.259c.228.091.4.152.51.185s.322.087.633.163c.058.017.1.029.132.035q.51.132.831.233a5.142,5.142,0,0,1,.747.316,2.49,2.49,0,0,1,.672.47,2.179,2.179,0,0,1,.422.668,2.362,2.362,0,0,1,.176.932,2.528,2.528,0,0,1-.259,1.165,2.039,2.039,0,0,1-.708.8,3.434,3.434,0,0,1-1.006.435,4.779,4.779,0,0,1-1.214.144Zm8.328-.162a2.267,2.267,0,0,1-1.686-.62,2.344,2.344,0,0,1-.615-1.727v-5.08h-1.767V996.36h.65a1.25,1.25,0,0,0,.954-.3,1.5,1.5,0,0,0,.278-1.018v-1.564h1.415v2.882h1.985v1.213h-1.986v4.927a1.305,1.305,0,0,0,.33.954,1.151,1.151,0,0,0,.866.338h.79V1005Zm4.184-10.67a.987.987,0,0,1-.725-.3.985.985,0,0,1-.3-.725.971.971,0,0,1,.3-.721,1,1,0,0,1,.725-.3.987.987,0,0,1,.716.3.977.977,0,0,1,.3.721.991.991,0,0,1-.3.725A.983.983,0,0,1-2869.566,994.33Zm-.77,10.67v-8.64h1.529V1005Zm10.877-8.64h1.477v8.2a4.708,4.708,0,0,1-1.117,3.367,4.057,4.057,0,0,1-3.093,1.173,4.082,4.082,0,0,1-4.193-2.641l1.257-.615a2.856,2.856,0,0,0,2.892,2,2.481,2.481,0,0,0,2.025-.844,3.6,3.6,0,0,0,.7-2.355v-1.6a3.054,3.054,0,0,1-1.231,1.239,3.579,3.579,0,0,1-1.8.47,3.7,3.7,0,0,1-2.794-1.217,4.287,4.287,0,0,1-1.154-3.072,4.25,4.25,0,0,1,1.154-3.065,3.738,3.738,0,0,1,2.81-1.207,3.494,3.494,0,0,1,1.811.483,3.119,3.119,0,0,1,1.221,1.275Zm-2.742,7.1a2.615,2.615,0,0,0,1.991-.888,3.01,3.01,0,0,0,.822-2.109,3.023,3.023,0,0,0-.818-2.116,2.611,2.611,0,0,0-2-.888,2.629,2.629,0,0,0-1.986.861,3,3,0,0,0-.813,2.145,2.971,2.971,0,0,0,.822,2.135,2.632,2.632,0,0,0,1.982.862Zm9.307,1.707a2.94,2.94,0,0,1-1.894-.593,2.128,2.128,0,0,1-.742-1.774,2.5,2.5,0,0,1,.237-1.129,1.99,1.99,0,0,1,.7-.787,4.206,4.206,0,0,1,1.018-.484,9.356,9.356,0,0,1,1.314-.312l1.4-.229q.765-.141.765-.8a1.512,1.512,0,0,0-.54-1.288,2.206,2.206,0,0,0-1.367-.409,2.238,2.238,0,0,0-1.354.4,1.652,1.652,0,0,0-.642,1.213l-1.371-.29a2.636,2.636,0,0,1,1.081-1.85,4.033,4.033,0,0,1,2.355-.62,4.809,4.809,0,0,1,1.252.154,3.413,3.413,0,0,1,1.046.483,2.177,2.177,0,0,1,.747.932,3.474,3.474,0,0,1,.267,1.416v3.568a1.451,1.451,0,0,0,.2.9.855.855,0,0,0,.681.233h.141v1.1h-.756a1.441,1.441,0,0,1-1.635-1.169h-.07A3.3,3.3,0,0,1-2852.894,1005.167Zm.352-1.23a2.305,2.305,0,0,0,1.854-.837,3.439,3.439,0,0,0,.7-2.285l-2.285.439a3.082,3.082,0,0,0-1.34.479,1.109,1.109,0,0,0-.435.945,1.1,1.1,0,0,0,.417.949A1.778,1.778,0,0,0-2852.542,1003.937Zm10.494,1.221a4.161,4.161,0,0,1-3.094-1.239,4.42,4.42,0,0,1-1.222-3.243,4.423,4.423,0,0,1,1.218-3.243,4.156,4.156,0,0,1,3.1-1.239,4.191,4.191,0,0,1,2.5.756,3.825,3.825,0,0,1,1.455,2.1l-1.424.229a2.635,2.635,0,0,0-.976-1.345,2.656,2.656,0,0,0-1.564-.475,2.552,2.552,0,0,0-2,.888,3.372,3.372,0,0,0-.787,2.329,3.359,3.359,0,0,0,.786,2.324,2.558,2.558,0,0,0,2,.883,2.657,2.657,0,0,0,1.564-.475,2.634,2.634,0,0,0,.976-1.345l1.424.237a3.82,3.82,0,0,1-1.464,2.1A4.187,4.187,0,0,1-2842.048,1005.158Zm6.97-10.828a.987.987,0,0,1-.725-.3.985.985,0,0,1-.3-.725.971.971,0,0,1,.3-.721,1,1,0,0,1,.725-.3.987.987,0,0,1,.716.3.978.978,0,0,1,.3.721.992.992,0,0,1-.3.725A.983.983,0,0,1-2835.078,994.33Zm-.774,10.67v-8.64h1.529V1005Zm7.682-10.125,2.206-2.865.809.589-1.969,2.276Zm.58,10.292a4.544,4.544,0,0,1-2.215-.536,3.887,3.887,0,0,1-1.56-1.569,4.816,4.816,0,0,1-.571-2.386,4.4,4.4,0,0,1,1.226-3.256,4.229,4.229,0,0,1,3.125-1.226,4.231,4.231,0,0,1,3.129,1.226,4.412,4.412,0,0,1,1.22,3.256,4.418,4.418,0,0,1-1.226,3.265A4.234,4.234,0,0,1-2827.59,1005.167Zm-.009-1.267a2.656,2.656,0,0,0,2.043-.888,3.336,3.336,0,0,0,.813-2.338,3.323,3.323,0,0,0-.813-2.329,2.656,2.656,0,0,0-2.043-.888,2.615,2.615,0,0,0-2.026.888,3.332,3.332,0,0,0-.8,2.329,3.341,3.341,0,0,0,.8,2.338A2.614,2.614,0,0,0-2827.6,1003.9Zm10.82-7.707a3.006,3.006,0,0,1,2.175.782,2.92,2.92,0,0,1,.813,2.206V1005h-1.521v-5.476a2.049,2.049,0,0,0-.524-1.546,1.885,1.885,0,0,0-1.354-.5,2.089,2.089,0,0,0-1.538.593,2.407,2.407,0,0,0-.608,1.761V1005h-1.521v-8.64h1.521v1.107A2.884,2.884,0,0,1-2816.779,996.193Zm-78.432,26.315-.018.413h-6.75a3.049,3.049,0,0,0,.826,2.21,2.714,2.714,0,0,0,1.969.769,2.593,2.593,0,0,0,1.433-.413,2.688,2.688,0,0,0,.984-1.143l1.371.29a3.913,3.913,0,0,1-1.477,1.854,4.027,4.027,0,0,1-2.294.677,4.171,4.171,0,0,1-3.111-1.2,4.477,4.477,0,0,1-1.187-3.287,4.457,4.457,0,0,1,1.194-3.278,4.121,4.121,0,0,1,3.063-1.2,3.9,3.9,0,0,1,2.9,1.107,4.377,4.377,0,0,1,1.1,3.2Zm-4-3.146a2.688,2.688,0,0,0-1.8.611,2.791,2.791,0,0,0-.91,1.78h5.185a2.572,2.572,0,0,0-.756-1.78,2.446,2.446,0,0,0-1.716-.611Zm19.89-1.169a2.786,2.786,0,0,1,2.013.734,2.724,2.724,0,0,1,.765,2.061V1027h-1.521v-5.616a1.958,1.958,0,0,0-.472-1.424,1.619,1.619,0,0,0-1.2-.483,1.7,1.7,0,0,0-1.318.545,2.337,2.337,0,0,0-.5,1.635V1027h-1.552v-5.555a2.048,2.048,0,0,0-.479-1.472,1.631,1.631,0,0,0-1.226-.5,1.69,1.69,0,0,0-1.314.558,2.421,2.421,0,0,0-.5,1.674V1027h-1.521v-8.64h1.521v1.116a2.618,2.618,0,0,1,.989-.949,2.825,2.825,0,0,1,1.375-.334,2.945,2.945,0,0,1,1.477.365,2.274,2.274,0,0,1,.953,1.05,2.678,2.678,0,0,1,1.037-1.05,2.955,2.955,0,0,1,1.481-.365Zm13.285,4.316-.018.413h-6.75a3.049,3.049,0,0,0,.826,2.21,2.713,2.713,0,0,0,1.969.769,2.593,2.593,0,0,0,1.433-.413,2.688,2.688,0,0,0,.984-1.143l1.371.29a3.906,3.906,0,0,1-1.478,1.855,4.027,4.027,0,0,1-2.294.677,4.171,4.171,0,0,1-3.111-1.2,4.477,4.477,0,0,1-1.187-3.287,4.451,4.451,0,0,1,1.191-3.28,4.121,4.121,0,0,1,3.063-1.2,3.9,3.9,0,0,1,2.9,1.1A4.381,4.381,0,0,1-2866.036,1022.509Zm-4-3.146a2.688,2.688,0,0,0-1.8.611,2.79,2.79,0,0,0-.91,1.78h5.177a2.572,2.572,0,0,0-.756-1.78,2.441,2.441,0,0,0-1.711-.612Zm7.866.519a2.61,2.61,0,0,1,1.072-1.16,3.229,3.229,0,0,1,1.662-.458v1.436a2.846,2.846,0,0,0-2.008.642,2.678,2.678,0,0,0-.69,2.048V1027h-1.522v-8.64h1.486Zm8,7.277a4.161,4.161,0,0,1-3.1-1.24,4.421,4.421,0,0,1-1.222-3.243,4.427,4.427,0,0,1,1.217-3.243,4.156,4.156,0,0,1,3.1-1.239,4.191,4.191,0,0,1,2.5.756,3.825,3.825,0,0,1,1.455,2.1l-1.424.229a2.635,2.635,0,0,0-.976-1.345,2.656,2.656,0,0,0-1.564-.475,2.552,2.552,0,0,0-2,.888,3.372,3.372,0,0,0-.787,2.329,3.359,3.359,0,0,0,.786,2.324,2.559,2.559,0,0,0,2,.883,2.657,2.657,0,0,0,1.564-.475,2.633,2.633,0,0,0,.976-1.345l1.424.237a3.827,3.827,0,0,1-1.463,2.1,4.187,4.187,0,0,1-2.492.758Zm8.191.009a2.939,2.939,0,0,1-1.894-.593,2.128,2.128,0,0,1-.743-1.771,2.5,2.5,0,0,1,.237-1.129,1.989,1.989,0,0,1,.7-.787,4.241,4.241,0,0,1,1.015-.488,9.364,9.364,0,0,1,1.314-.312l1.4-.229q.765-.141.765-.8a1.51,1.51,0,0,0-.541-1.288,2.206,2.206,0,0,0-1.367-.409,2.238,2.238,0,0,0-1.354.4,1.652,1.652,0,0,0-.642,1.213l-1.371-.29a2.635,2.635,0,0,1,1.081-1.85,4.032,4.032,0,0,1,2.355-.62,4.807,4.807,0,0,1,1.252.154,3.407,3.407,0,0,1,1.046.483,2.177,2.177,0,0,1,.747.932,3.486,3.486,0,0,1,.268,1.419v3.568a1.449,1.449,0,0,0,.2.9.855.855,0,0,0,.681.233h.141v1.1h-.757a1.441,1.441,0,0,1-1.635-1.169h-.07a3.3,3.3,0,0,1-2.83,1.336Zm.352-1.23a2.3,2.3,0,0,0,1.854-.835,3.439,3.439,0,0,0,.7-2.285l-2.285.439a3.082,3.082,0,0,0-1.34.479,1.109,1.109,0,0,0-.435.945,1.1,1.1,0,0,0,.417.949,1.785,1.785,0,0,0,1.087.307Zm13.291-12.438h1.521V1027h-1.473l-.035-1.679a3.19,3.19,0,0,1-1.23,1.362,3.436,3.436,0,0,1-1.828.5,3.925,3.925,0,0,1-2.855-1.216,4.145,4.145,0,0,1-.87-1.428,5.187,5.187,0,0,1-.321-1.854,4.537,4.537,0,0,1,1.173-3.243,3.789,3.789,0,0,1,2.87-1.248,3.451,3.451,0,0,1,1.806.488,3.207,3.207,0,0,1,1.242,1.318Zm-2.729,12.366a2.59,2.59,0,0,0,2.008-.91,3.289,3.289,0,0,0,.813-2.272,3.285,3.285,0,0,0-.817-2.268,2.588,2.588,0,0,0-2-.914,2.64,2.64,0,0,0-2.021.883,3.247,3.247,0,0,0-.817,2.3,3.247,3.247,0,0,0,.817,2.3A2.643,2.643,0,0,0-2835.065,1025.866Zm10.978,1.3a4.545,4.545,0,0,1-2.215-.536,3.89,3.89,0,0,1-1.56-1.569,4.8,4.8,0,0,1-.576-2.386,4.4,4.4,0,0,1,1.226-3.256,4.6,4.6,0,0,1,6.253,0,4.416,4.416,0,0,1,1.223,3.257,4.419,4.419,0,0,1-1.226,3.265,4.232,4.232,0,0,1-3.125,1.226Zm-.009-1.266a2.656,2.656,0,0,0,2.043-.888,3.333,3.333,0,0,0,.813-2.338,3.32,3.32,0,0,0-.813-2.329,2.656,2.656,0,0,0-2.043-.888,2.615,2.615,0,0,0-2.026.888,3.333,3.333,0,0,0-.8,2.329,3.34,3.34,0,0,0,.8,2.338A2.615,2.615,0,0,0-2824.1,1025.9Zm9.475,1.266a4.1,4.1,0,0,1-2.329-.624,2.576,2.576,0,0,1-1.134-1.775l1.327-.378a1.846,1.846,0,0,0,.708,1.2,2.3,2.3,0,0,0,1.419.426,2.853,2.853,0,0,0,.831-.114,1.331,1.331,0,0,0,.637-.426,1.191,1.191,0,0,0,.185-1.143,1.579,1.579,0,0,0-.141-.286.9.9,0,0,0-.246-.237,3.288,3.288,0,0,0-.3-.185,3.162,3.162,0,0,0-.391-.163q-.26-.091-.417-.141t-.483-.141c-.217-.061-.384-.11-.5-.145a9.15,9.15,0,0,1-.9-.316,3.9,3.9,0,0,1-.729-.417,1.666,1.666,0,0,1-.567-.681,2.286,2.286,0,0,1-.185-.966,2.229,2.229,0,0,1,.422-1.38,2.368,2.368,0,0,1,1.094-.813,4.375,4.375,0,0,1,1.534-.25,3.75,3.75,0,0,1,2.1.563,2.4,2.4,0,0,1,1.05,1.688l-1.248.316a1.659,1.659,0,0,0-.659-1.094,2.1,2.1,0,0,0-1.239-.365,2.137,2.137,0,0,0-1.16.3,1.018,1.018,0,0,0-.483.927.909.909,0,0,0,.127.479,1.519,1.519,0,0,0,.259.338,1.591,1.591,0,0,0,.475.259c.228.091.4.152.51.185s.322.087.633.163c.058.017.1.029.132.035.34.088.616.166.831.233a5.143,5.143,0,0,1,.747.316,2.487,2.487,0,0,1,.672.47,2.18,2.18,0,0,1,.422.668,2.37,2.37,0,0,1,.176.932,2.531,2.531,0,0,1-.259,1.165,2.04,2.04,0,0,1-.708.8,3.437,3.437,0,0,1-1.006.435,4.775,4.775,0,0,1-1.208.143Z" fill="#00223d"/>
        <path id="Trazado_35443" data-name="Trazado 35443" d="M-2792.836,966h91v85h-91Z" fill="#fdc0d2"/>
        <path id="Trazado_35444" data-name="Trazado 35444" d="M-2763.577,1003.625h1.661l-4.535,12.375h-1.617l-4.535-12.375h1.652l3.691,10.406Zm10.4,7.884-.018.413h-6.75a3.049,3.049,0,0,0,.826,2.21,2.713,2.713,0,0,0,1.969.769,2.592,2.592,0,0,0,1.433-.413,2.685,2.685,0,0,0,.981-1.142l1.371.29a3.911,3.911,0,0,1-1.471,1.854,4.031,4.031,0,0,1-2.3.677,4.171,4.171,0,0,1-3.111-1.2,4.473,4.473,0,0,1-1.189-3.291,4.455,4.455,0,0,1,1.2-3.276,4.121,4.121,0,0,1,3.063-1.2,3.9,3.9,0,0,1,2.905,1.1,4.377,4.377,0,0,1,1.094,3.209Zm-4-3.146a2.689,2.689,0,0,0-1.8.611,2.791,2.791,0,0,0-.91,1.78h5.177a2.571,2.571,0,0,0-.756-1.78,2.441,2.441,0,0,0-1.712-.612Zm10.458-1.17a3.006,3.006,0,0,1,2.175.782,2.926,2.926,0,0,1,.808,2.207V1016h-1.516v-5.476a2.051,2.051,0,0,0-.527-1.546,1.884,1.884,0,0,0-1.354-.5,2.089,2.089,0,0,0-1.538.593,2.4,2.4,0,0,0-.606,1.762V1016h-1.52v-8.64h1.521v1.107A2.884,2.884,0,0,1-2746.719,1007.193Zm8.683,8.807a2.27,2.27,0,0,1-1.687-.62,2.338,2.338,0,0,1-.613-1.727v-5.08h-1.769v-1.213h.65a1.25,1.25,0,0,0,.954-.3,1.5,1.5,0,0,0,.277-1.015v-1.564h1.415v2.879h1.986v1.213h-1.986v4.927a1.306,1.306,0,0,0,.33.954,1.151,1.151,0,0,0,.866.338h.791V1016Zm5.3.167a2.939,2.939,0,0,1-1.894-.593,2.127,2.127,0,0,1-.743-1.774,2.492,2.492,0,0,1,.237-1.127,1.99,1.99,0,0,1,.7-.787,4.219,4.219,0,0,1,1.019-.486,9.356,9.356,0,0,1,1.314-.312l1.4-.229q.765-.141.765-.8a1.51,1.51,0,0,0-.541-1.288,2.206,2.206,0,0,0-1.367-.409,2.238,2.238,0,0,0-1.354.4,1.652,1.652,0,0,0-.642,1.213l-1.371-.29a2.634,2.634,0,0,1,1.077-1.854,4.033,4.033,0,0,1,2.355-.62,4.806,4.806,0,0,1,1.252.154,3.413,3.413,0,0,1,1.046.483,2.178,2.178,0,0,1,.747.932,3.478,3.478,0,0,1,.272,1.42v3.568a1.45,1.45,0,0,0,.2.9.855.855,0,0,0,.681.233h.141v1.1h-.756a1.441,1.441,0,0,1-1.638-1.169h-.07A3.3,3.3,0,0,1-2732.736,1016.167Zm.352-1.23a2.305,2.305,0,0,0,1.854-.837,3.439,3.439,0,0,0,.7-2.285l-2.285.439a3.082,3.082,0,0,0-1.34.479,1.109,1.109,0,0,0-.435.945,1.1,1.1,0,0,0,.417.949A1.777,1.777,0,0,0-2732.384,1014.937Zm9.817,1.23a4.1,4.1,0,0,1-2.329-.624,2.576,2.576,0,0,1-1.134-1.775l1.327-.378a1.846,1.846,0,0,0,.708,1.2,2.3,2.3,0,0,0,1.419.426,2.847,2.847,0,0,0,.831-.114,1.333,1.333,0,0,0,.637-.426,1.145,1.145,0,0,0,.255-.787,1.163,1.163,0,0,0-.07-.356,1.579,1.579,0,0,0-.141-.286.9.9,0,0,0-.246-.237,3.3,3.3,0,0,0-.3-.185,3.165,3.165,0,0,0-.391-.163q-.26-.091-.417-.141t-.483-.141c-.217-.061-.384-.11-.5-.145a9.1,9.1,0,0,1-.9-.316,3.9,3.9,0,0,1-.729-.417,1.667,1.667,0,0,1-.567-.681,2.279,2.279,0,0,1-.189-.967,2.229,2.229,0,0,1,.422-1.38,2.368,2.368,0,0,1,1.094-.813,4.373,4.373,0,0,1,1.534-.25,3.751,3.751,0,0,1,2.1.563,2.4,2.4,0,0,1,1.05,1.688l-1.248.316a1.659,1.659,0,0,0-.659-1.094,2.1,2.1,0,0,0-1.239-.365,2.139,2.139,0,0,0-1.16.3,1.018,1.018,0,0,0-.483.927.909.909,0,0,0,.127.479,1.519,1.519,0,0,0,.259.338,1.591,1.591,0,0,0,.475.259c.228.091.4.152.51.185s.322.087.633.163c.058.017.1.029.132.035q.51.132.831.233a5.166,5.166,0,0,1,.747.316,2.491,2.491,0,0,1,.672.47,2.184,2.184,0,0,1,.422.668,2.365,2.365,0,0,1,.176.932,2.528,2.528,0,0,1-.259,1.165,2.04,2.04,0,0,1-.708.8,3.434,3.434,0,0,1-1.006.435A4.834,4.834,0,0,1-2722.567,1016.167Z" fill="#00223d"/>
        <path id="Trazado_35420" data-name="Trazado 35420" d="M-3777.836,777h269v85h-269Z" fill="#c0b6db"/>
        <path id="Trazado_35421" data-name="Trazado 35421" d="M-3690.423,811.215a8.4,8.4,0,0,1-3.1-.564,7.246,7.246,0,0,1-2.471-1.584,7.112,7.112,0,0,1-1.622-2.514,8.873,8.873,0,0,1-.585-3.276,8.853,8.853,0,0,1,.6-3.314,7.192,7.192,0,0,1,1.654-2.535,7.4,7.4,0,0,1,2.519-1.6,8.677,8.677,0,0,1,3.164-.569,8.462,8.462,0,0,1,4.034.951,6.925,6.925,0,0,1,2.8,2.7l-2.825,1.5a4.148,4.148,0,0,0-1.638-1.762,4.706,4.706,0,0,0-2.369-.591,4.5,4.5,0,0,0-3.389,1.364,5.2,5.2,0,0,0-1.316,3.779,5.365,5.365,0,0,0,1.311,3.792,4.55,4.55,0,0,0,3.513,1.418,5.179,5.179,0,0,0,1.891-.333,3.777,3.777,0,0,0,1.5-1.077,3.917,3.917,0,0,0,.859-1.842h-4.245v-2.591h7.3V811h-2.535v-2.148A5.662,5.662,0,0,1-3690.423,811.215Zm20.9-5.9-.032.741h-8.181a2.855,2.855,0,0,0,.881,2.02,2.816,2.816,0,0,0,1.944.7,2.715,2.715,0,0,0,1.455-.376,2.349,2.349,0,0,0,.929-1.112l2.836.419a4.826,4.826,0,0,1-1.934,2.584,5.747,5.747,0,0,1-3.266.924,5.98,5.98,0,0,1-4.3-1.52,5.542,5.542,0,0,1-1.6-4.216,5.578,5.578,0,0,1,1.6-4.216,5.8,5.8,0,0,1,4.2-1.542,5.544,5.544,0,0,1,3.964,1.407,5.525,5.525,0,0,1,1.508,4.189Zm-5.446-3.405a2.444,2.444,0,0,0-2.686,2.127h5.07a2.331,2.331,0,0,0-.763-1.579,2.415,2.415,0,0,0-1.617-.546Zm10.764-.2a3.582,3.582,0,0,1,1.45-1.327,4.414,4.414,0,0,1,2.159-.553v2.761a4.182,4.182,0,0,0-2.643.666,2.907,2.907,0,0,0-.816,2.363V811h-3.115V799.957h2.965Zm15.748,3.609-.032.741h-8.186a2.855,2.855,0,0,0,.881,2.02,2.816,2.816,0,0,0,1.944.7,2.712,2.712,0,0,0,1.459-.38,2.35,2.35,0,0,0,.929-1.112l2.836.419a4.825,4.825,0,0,1-1.933,2.584,5.746,5.746,0,0,1-3.266.924,5.98,5.98,0,0,1-4.3-1.52,5.543,5.543,0,0,1-1.6-4.216,5.578,5.578,0,0,1,1.6-4.216,5.8,5.8,0,0,1,4.2-1.542,5.544,5.544,0,0,1,3.964,1.407,5.524,5.524,0,0,1,1.507,4.189Zm-5.446-3.4a2.444,2.444,0,0,0-2.683,2.125h5.07a2.33,2.33,0,0,0-.763-1.579,2.42,2.42,0,0,0-1.621-.548Zm14.319-2.17a4.3,4.3,0,0,1,3.051.994,3.688,3.688,0,0,1,1.067,2.828V811h-3.1v-6.768a1.927,1.927,0,0,0-.553-1.525,2.086,2.086,0,0,0-1.423-.483,2.923,2.923,0,0,0-.924.14,2.372,2.372,0,0,0-.773.435,1.911,1.911,0,0,0-.553.833,3.83,3.83,0,0,0-.209,1.278V811h-3.1V799.957h3.094v1.225a4.254,4.254,0,0,1,3.426-1.44ZM-3628.355,811a3.334,3.334,0,0,1-2.492-.9,3.487,3.487,0,0,1-.881-2.551v-5.218h-2.17v-2.374h.7a1.823,1.823,0,0,0,1.373-.457,2.38,2.38,0,0,0,.44-1.644V796.4h2.794v3.566h2.277v2.374h-2.277v4.888q0,1.43,1.278,1.429h1V811Zm14.781-5.683-.032.741h-8.186a2.855,2.855,0,0,0,.881,2.02,2.816,2.816,0,0,0,1.944.7,2.712,2.712,0,0,0,1.456-.378,2.351,2.351,0,0,0,.929-1.112l2.836.412a4.823,4.823,0,0,1-1.933,2.591,5.747,5.747,0,0,1-3.266.924,5.98,5.98,0,0,1-4.3-1.52,5.542,5.542,0,0,1-1.6-4.216,5.578,5.578,0,0,1,1.6-4.216,5.8,5.8,0,0,1,4.2-1.542,5.544,5.544,0,0,1,3.964,1.407A5.524,5.524,0,0,1-3613.574,805.317Zm-5.446-3.405a2.444,2.444,0,0,0-2.686,2.127h5.07a2.331,2.331,0,0,0-.763-1.579A2.42,2.42,0,0,0-3619.02,801.912Zm21.345-7.412h3.094V811h-2.933l-.075-1.439a3.16,3.16,0,0,1-1.4,1.251,4.721,4.721,0,0,1-2.068.446,5.357,5.357,0,0,1-2.062-.4,5.11,5.11,0,0,1-1.692-1.123,5.1,5.1,0,0,1-1.144-1.821,6.7,6.7,0,0,1-.422-2.414,6.264,6.264,0,0,1,.73-3.078,5,5,0,0,1,1.928-2,5.305,5.305,0,0,1,2.659-.677,4.843,4.843,0,0,1,2,.4,3.137,3.137,0,0,1,1.38,1.144Zm-2.675,14.19a2.755,2.755,0,0,0,2.089-.881,3.23,3.23,0,0,0,.833-2.31,3.236,3.236,0,0,0-.838-2.315,2.752,2.752,0,0,0-2.084-.884,2.782,2.782,0,0,0-2.1.87,3.229,3.229,0,0,0-.833,2.33,3.214,3.214,0,0,0,.833,2.32A2.782,2.782,0,0,0-3600.35,808.69Zm19.357-3.373-.032.741h-8.186a2.855,2.855,0,0,0,.881,2.02,2.817,2.817,0,0,0,1.944.7,2.712,2.712,0,0,0,1.456-.378,2.351,2.351,0,0,0,.929-1.112l2.836.419a4.824,4.824,0,0,1-1.933,2.584,5.748,5.748,0,0,1-3.266.924,5.98,5.98,0,0,1-4.3-1.52,5.542,5.542,0,0,1-1.6-4.216,5.577,5.577,0,0,1,1.6-4.216,5.8,5.8,0,0,1,4.2-1.542,5.544,5.544,0,0,1,3.964,1.407A5.524,5.524,0,0,1-3580.993,805.317Zm-5.443-3.405a2.444,2.444,0,0,0-2.686,2.127h5.07a2.331,2.331,0,0,0-.763-1.579A2.42,2.42,0,0,0-3586.436,801.912Zm-103.515,27.83a5.367,5.367,0,0,1,2.063.4,5.164,5.164,0,0,1,1.692,1.117,5.073,5.073,0,0,1,1.144,1.821,6.775,6.775,0,0,1,.416,2.42,6.785,6.785,0,0,1-.419,2.422,5.072,5.072,0,0,1-1.144,1.821,5.164,5.164,0,0,1-1.692,1.117,5.365,5.365,0,0,1-2.062.4,4.791,4.791,0,0,1-2-.408,3.123,3.123,0,0,1-1.386-1.16v6.682h-3.094V829.957h2.933l.086,1.482a3.013,3.013,0,0,1,1.38-1.251A4.737,4.737,0,0,1-3689.951,829.742Zm-.7,8.948a2.781,2.781,0,0,0,2.089-.865,3.218,3.218,0,0,0,.833-2.326,3.218,3.218,0,0,0-.833-2.326,2.781,2.781,0,0,0-2.089-.865,2.781,2.781,0,0,0-2.105.881,3.209,3.209,0,0,0-.838,2.31,3.209,3.209,0,0,0,.838,2.31,2.787,2.787,0,0,0,2.107.881Zm11.315-6.982a3.581,3.581,0,0,1,1.45-1.327,4.414,4.414,0,0,1,2.159-.553v2.761a4.182,4.182,0,0,0-2.643.666,2.909,2.909,0,0,0-.816,2.363V841h-3.115V829.957h2.965Zm10.5,9.507a6.935,6.935,0,0,1-3.126-.677,5.051,5.051,0,0,1-2.143-1.987,5.914,5.914,0,0,1-.779-3.083,5.4,5.4,0,0,1,1.676-4.189,6.216,6.216,0,0,1,4.372-1.537,6.231,6.231,0,0,1,4.383,1.536,5.4,5.4,0,0,1,1.676,4.189,5.433,5.433,0,0,1-1.676,4.206A6.218,6.218,0,0,1-3668.836,841.215Zm-.032-2.46a2.836,2.836,0,0,0,2.186-.9,3.381,3.381,0,0,0,.833-2.385,3.381,3.381,0,0,0-.833-2.385,2.836,2.836,0,0,0-2.186-.9,2.731,2.731,0,0,0-2.122.908,3.4,3.4,0,0,0-.822,2.379,3.4,3.4,0,0,0,.822,2.379,2.73,2.73,0,0,0,2.126.9Zm16.225-14.255h3.094V841h-2.933l-.075-1.439a3.161,3.161,0,0,1-1.4,1.251,4.721,4.721,0,0,1-2.068.446,5.357,5.357,0,0,1-2.062-.4,5.11,5.11,0,0,1-1.692-1.123,5.107,5.107,0,0,1-1.144-1.821,6.712,6.712,0,0,1-.419-2.417,6.264,6.264,0,0,1,.73-3.078,5,5,0,0,1,1.928-2,5.306,5.306,0,0,1,2.659-.677,4.844,4.844,0,0,1,2,.4,3.136,3.136,0,0,1,1.38,1.144Zm-2.675,14.19a2.755,2.755,0,0,0,2.089-.881,3.229,3.229,0,0,0,.833-2.31,3.235,3.235,0,0,0-.838-2.315,2.752,2.752,0,0,0-2.084-.886,2.781,2.781,0,0,0-2.1.87,3.226,3.226,0,0,0-.833,2.331,3.213,3.213,0,0,0,.833,2.32A2.781,2.781,0,0,0-3655.318,838.69Zm16.282-8.733h3.1V841h-2.936l-.075-1.332a4.217,4.217,0,0,1-3.513,1.547,4.3,4.3,0,0,1-3.051-.994,3.678,3.678,0,0,1-1.063-2.831v-7.433h3.1v6.768a1.9,1.9,0,0,0,.553,1.515,2.1,2.1,0,0,0,1.434.483,2.491,2.491,0,0,0,1.756-.628,2.706,2.706,0,0,0,.7-2.047Zm11.293,11.243a5.9,5.9,0,0,1-4.265-1.59,5.488,5.488,0,0,1-1.654-4.146,5.477,5.477,0,0,1,1.649-4.146,5.915,5.915,0,0,1,4.27-1.579,5.886,5.886,0,0,1,3.577,1.063,4.754,4.754,0,0,1,1.848,3l-2.857.312a2.452,2.452,0,0,0-.924-1.45,2.808,2.808,0,0,0-1.676-.483,2.531,2.531,0,0,0-2.02.9,3.529,3.529,0,0,0-.773,2.385,3.536,3.536,0,0,0,.773,2.379,2.526,2.526,0,0,0,2.02.908,2.79,2.79,0,0,0,1.67-.483,2.507,2.507,0,0,0,.929-1.45l2.857.312a4.761,4.761,0,0,1-1.864,3A5.858,5.858,0,0,1-3627.743,841.2Zm12.622,0a5.9,5.9,0,0,1-4.265-1.59,5.488,5.488,0,0,1-1.65-4.142,5.476,5.476,0,0,1,1.649-4.146,5.916,5.916,0,0,1,4.27-1.579,5.886,5.886,0,0,1,3.577,1.063,4.754,4.754,0,0,1,1.848,3l-2.857.312a2.453,2.453,0,0,0-.924-1.45,2.81,2.81,0,0,0-1.676-.483,2.531,2.531,0,0,0-2.02.9,3.527,3.527,0,0,0-.773,2.385,3.535,3.535,0,0,0,.773,2.379,2.526,2.526,0,0,0,2.02.908,2.789,2.789,0,0,0,1.67-.483,2.507,2.507,0,0,0,.929-1.45l2.857.312a4.762,4.762,0,0,1-1.864,3A5.861,5.861,0,0,1-3615.121,841.2Zm9.206-12.9a1.734,1.734,0,0,1-1.268-.521,1.7,1.7,0,0,1-.526-1.262,1.687,1.687,0,0,1,.532-1.251,1.742,1.742,0,0,1,1.262-.521,1.779,1.779,0,0,1,1.777,1.779,1.778,1.778,0,0,1-1.777,1.777Zm-1.579,12.7V829.957h3.115V841Zm10.506-12.547,2.815-3.953,1.525,1.074-2.438,2.879Zm.952,12.762a6.937,6.937,0,0,1-3.126-.677,5.052,5.052,0,0,1-2.143-1.987,5.912,5.912,0,0,1-.779-3.083,5.4,5.4,0,0,1,1.676-4.189,6.215,6.215,0,0,1,4.372-1.537,6.23,6.23,0,0,1,4.383,1.536,5.4,5.4,0,0,1,1.676,4.189,5.432,5.432,0,0,1-1.676,4.206A6.217,6.217,0,0,1-3596.036,841.215Zm-.032-2.46a2.835,2.835,0,0,0,2.186-.9,3.38,3.38,0,0,0,.833-2.385,3.38,3.38,0,0,0-.833-2.385,2.835,2.835,0,0,0-2.186-.9,2.73,2.73,0,0,0-2.122.908,3.4,3.4,0,0,0-.822,2.379,3.4,3.4,0,0,0,.822,2.379,2.73,2.73,0,0,0,2.126.9Zm14.91-9.013a4.3,4.3,0,0,1,3.051.994,3.69,3.69,0,0,1,1.071,2.83V841h-3.1v-6.768a1.926,1.926,0,0,0-.553-1.525,2.086,2.086,0,0,0-1.423-.483,2.92,2.92,0,0,0-.924.14,2.371,2.371,0,0,0-.773.435,1.913,1.913,0,0,0-.553.833,3.836,3.836,0,0,0-.209,1.278V841h-3.1V829.957h3.094v1.225a4.254,4.254,0,0,1,3.426-1.44Z" fill="#00223d"/>
        <path id="Trazado_35422" data-name="Trazado 35422" d="M-3492.836,777h269v85h-269Z" fill="#c0b6db"/>
        <path id="Trazado_35423" data-name="Trazado 35423" d="M-3416.423,811.215a8.4,8.4,0,0,1-3.1-.564,7.246,7.246,0,0,1-2.471-1.584,7.112,7.112,0,0,1-1.622-2.514,8.873,8.873,0,0,1-.585-3.276,8.853,8.853,0,0,1,.6-3.314,7.192,7.192,0,0,1,1.654-2.535,7.4,7.4,0,0,1,2.519-1.6,8.677,8.677,0,0,1,3.164-.569,8.462,8.462,0,0,1,4.034.951,6.925,6.925,0,0,1,2.8,2.7l-2.825,1.5a4.148,4.148,0,0,0-1.638-1.762,4.706,4.706,0,0,0-2.369-.591,4.5,4.5,0,0,0-3.389,1.364,5.2,5.2,0,0,0-1.316,3.779,5.365,5.365,0,0,0,1.311,3.792,4.55,4.55,0,0,0,3.513,1.418,5.179,5.179,0,0,0,1.891-.333,3.777,3.777,0,0,0,1.5-1.077,3.917,3.917,0,0,0,.859-1.842h-4.245v-2.591h7.3V811h-2.535v-2.148A5.662,5.662,0,0,1-3416.423,811.215Zm20.9-5.9-.032.741h-8.181a2.855,2.855,0,0,0,.881,2.02,2.816,2.816,0,0,0,1.944.7,2.715,2.715,0,0,0,1.455-.376,2.349,2.349,0,0,0,.929-1.112l2.836.419a4.826,4.826,0,0,1-1.934,2.584,5.747,5.747,0,0,1-3.266.924,5.98,5.98,0,0,1-4.3-1.52,5.542,5.542,0,0,1-1.6-4.216,5.578,5.578,0,0,1,1.6-4.216,5.8,5.8,0,0,1,4.2-1.542,5.544,5.544,0,0,1,3.964,1.407,5.525,5.525,0,0,1,1.508,4.189Zm-5.446-3.405a2.444,2.444,0,0,0-2.686,2.127h5.07a2.331,2.331,0,0,0-.763-1.579,2.415,2.415,0,0,0-1.617-.546Zm10.764-.2a3.582,3.582,0,0,1,1.45-1.327,4.414,4.414,0,0,1,2.159-.553v2.761a4.182,4.182,0,0,0-2.643.666,2.907,2.907,0,0,0-.816,2.363V811h-3.115V799.957h2.965Zm15.748,3.609-.032.741h-8.186a2.855,2.855,0,0,0,.881,2.02,2.816,2.816,0,0,0,1.944.7,2.712,2.712,0,0,0,1.459-.38,2.35,2.35,0,0,0,.929-1.112l2.836.419a4.825,4.825,0,0,1-1.933,2.584,5.746,5.746,0,0,1-3.266.924,5.98,5.98,0,0,1-4.3-1.52,5.543,5.543,0,0,1-1.6-4.216,5.578,5.578,0,0,1,1.6-4.216,5.8,5.8,0,0,1,4.2-1.542,5.544,5.544,0,0,1,3.964,1.407,5.524,5.524,0,0,1,1.507,4.189Zm-5.446-3.4a2.444,2.444,0,0,0-2.683,2.125h5.07a2.33,2.33,0,0,0-.763-1.579,2.42,2.42,0,0,0-1.621-.548Zm14.319-2.17a4.3,4.3,0,0,1,3.051.994,3.688,3.688,0,0,1,1.067,2.828V811h-3.1v-6.768a1.927,1.927,0,0,0-.553-1.525,2.086,2.086,0,0,0-1.423-.483,2.923,2.923,0,0,0-.924.14,2.372,2.372,0,0,0-.773.435,1.911,1.911,0,0,0-.553.833,3.83,3.83,0,0,0-.209,1.278V811h-3.1V799.957h3.094v1.225a4.254,4.254,0,0,1,3.426-1.44ZM-3354.355,811a3.334,3.334,0,0,1-2.492-.9,3.487,3.487,0,0,1-.881-2.551v-5.218h-2.17v-2.374h.7a1.823,1.823,0,0,0,1.373-.457,2.38,2.38,0,0,0,.44-1.644V796.4h2.794v3.566h2.277v2.374h-2.277v4.888q0,1.43,1.278,1.429h1V811Zm14.781-5.683-.032.741h-8.186a2.855,2.855,0,0,0,.881,2.02,2.816,2.816,0,0,0,1.944.7,2.712,2.712,0,0,0,1.456-.378,2.351,2.351,0,0,0,.929-1.112l2.836.412a4.823,4.823,0,0,1-1.933,2.591,5.747,5.747,0,0,1-3.266.924,5.98,5.98,0,0,1-4.3-1.52,5.542,5.542,0,0,1-1.6-4.216,5.578,5.578,0,0,1,1.6-4.216,5.8,5.8,0,0,1,4.2-1.542,5.544,5.544,0,0,1,3.964,1.407A5.524,5.524,0,0,1-3339.574,805.317Zm-5.446-3.405a2.444,2.444,0,0,0-2.686,2.127h5.07a2.331,2.331,0,0,0-.763-1.579A2.42,2.42,0,0,0-3345.02,801.912Zm21.345-7.412h3.094V811h-2.933l-.075-1.439a3.16,3.16,0,0,1-1.4,1.251,4.721,4.721,0,0,1-2.068.446,5.357,5.357,0,0,1-2.062-.4,5.11,5.11,0,0,1-1.692-1.123,5.1,5.1,0,0,1-1.144-1.821,6.7,6.7,0,0,1-.422-2.414,6.264,6.264,0,0,1,.73-3.078,5,5,0,0,1,1.928-2,5.305,5.305,0,0,1,2.659-.677,4.843,4.843,0,0,1,2,.4,3.137,3.137,0,0,1,1.38,1.144Zm-2.675,14.19a2.755,2.755,0,0,0,2.089-.881,3.23,3.23,0,0,0,.833-2.31,3.236,3.236,0,0,0-.838-2.315,2.752,2.752,0,0,0-2.084-.884,2.782,2.782,0,0,0-2.1.87,3.229,3.229,0,0,0-.833,2.33,3.214,3.214,0,0,0,.833,2.32A2.782,2.782,0,0,0-3326.35,808.69Zm19.357-3.373-.032.741h-8.186a2.855,2.855,0,0,0,.881,2.02,2.817,2.817,0,0,0,1.944.7,2.712,2.712,0,0,0,1.456-.378,2.351,2.351,0,0,0,.929-1.112l2.836.419a4.824,4.824,0,0,1-1.933,2.584,5.748,5.748,0,0,1-3.266.924,5.98,5.98,0,0,1-4.3-1.52,5.542,5.542,0,0,1-1.6-4.216,5.577,5.577,0,0,1,1.6-4.216,5.8,5.8,0,0,1,4.2-1.542,5.544,5.544,0,0,1,3.964,1.407A5.524,5.524,0,0,1-3306.993,805.317Zm-5.443-3.405a2.444,2.444,0,0,0-2.686,2.127h5.07a2.331,2.331,0,0,0-.763-1.579A2.42,2.42,0,0,0-3312.436,801.912Zm-80.346,26.389a1.734,1.734,0,0,1-1.268-.521,1.7,1.7,0,0,1-.526-1.262,1.687,1.687,0,0,1,.532-1.251,1.742,1.742,0,0,1,1.262-.521,1.716,1.716,0,0,1,1.246.521,1.705,1.705,0,0,1,.526,1.251,1.713,1.713,0,0,1-.526,1.262,1.713,1.713,0,0,1-1.249.52Zm-1.582,12.7V829.957h3.115V841Zm12.837-11.258a4.3,4.3,0,0,1,3.051.994,3.684,3.684,0,0,1,1.063,2.831V841h-3.1v-6.768a1.927,1.927,0,0,0-.553-1.525,2.086,2.086,0,0,0-1.423-.483,2.923,2.923,0,0,0-.924.14,2.372,2.372,0,0,0-.773.435,1.911,1.911,0,0,0-.553.833,3.83,3.83,0,0,0-.209,1.278V841h-3.094V829.957h3.094v1.225A4.254,4.254,0,0,1-3381.527,829.742ZM-3365.36,838a10.313,10.313,0,0,0,.269,2.7v.3h-2.89l-.247-1.2a3.6,3.6,0,0,1-1.547,1.06,5.7,5.7,0,0,1-2,.354,5.231,5.231,0,0,1-1.031-.1,3.474,3.474,0,0,1-.929-.328,2.81,2.81,0,0,1-.768-.575,2.5,2.5,0,0,1-.516-.875,3.452,3.452,0,0,1-.193-1.2,3.311,3.311,0,0,1,.2-1.2,2.793,2.793,0,0,1,.537-.9,3.244,3.244,0,0,1,.87-.655,6.6,6.6,0,0,1,1.1-.473,13.074,13.074,0,0,1,1.311-.344l1.815-.408a2.009,2.009,0,0,0,.822-.349.7.7,0,0,0,.242-.553,1.141,1.141,0,0,0-.542-1.054,2.537,2.537,0,0,0-1.316-.322,1.894,1.894,0,0,0-2.152,1.6c-.005.031-.008.062-.011.093l-2.739-.494a3.707,3.707,0,0,1,1.6-2.519,6.361,6.361,0,0,1,3.47-.811q4.641,0,4.641,3.985Zm-5.447,1.12a2.49,2.49,0,0,0,1.912-.8,3.374,3.374,0,0,0,.741-2.369l-2.621.741a3.092,3.092,0,0,0-1.1.451.926.926,0,0,0-.381.795,1.029,1.029,0,0,0,.408.875A1.686,1.686,0,0,0-3370.807,839.12Zm14.971-9.378a4.3,4.3,0,0,1,3.051.994,3.686,3.686,0,0,1,1.063,2.831V841h-3.1v-6.768a1.926,1.926,0,0,0-.553-1.525,2.086,2.086,0,0,0-1.423-.483,2.92,2.92,0,0,0-.924.14,2.374,2.374,0,0,0-.773.435,1.913,1.913,0,0,0-.553.833,3.836,3.836,0,0,0-.209,1.278V841h-3.1V829.957h3.094v1.225A4.252,4.252,0,0,1-3355.836,829.742Zm15.168.215-4.855,8.658h4.7V841h-9.1l4.834-8.658h-4.452v-2.385Zm10.8,8.043a10.313,10.313,0,0,0,.269,2.7v.3h-2.89l-.247-1.2a3.6,3.6,0,0,1-1.547,1.063,5.7,5.7,0,0,1-2,.354,5.233,5.233,0,0,1-1.031-.1,3.472,3.472,0,0,1-.929-.328,2.808,2.808,0,0,1-.768-.575,2.5,2.5,0,0,1-.516-.875,3.452,3.452,0,0,1-.193-1.2,3.316,3.316,0,0,1,.2-1.2,2.793,2.793,0,0,1,.537-.9,3.243,3.243,0,0,1,.87-.655,6.6,6.6,0,0,1,1.1-.473,13.062,13.062,0,0,1,1.311-.344l1.815-.408a2.009,2.009,0,0,0,.822-.349.7.7,0,0,0,.242-.553,1.141,1.141,0,0,0-.542-1.063,2.536,2.536,0,0,0-1.316-.322,1.894,1.894,0,0,0-2.145,1.6c0,.03-.008.059-.01.089l-2.739-.494a3.707,3.707,0,0,1,1.6-2.519,6.361,6.361,0,0,1,3.47-.811q4.641,0,4.641,3.985Zm-5.447,1.12a2.49,2.49,0,0,0,1.912-.8,3.374,3.374,0,0,0,.741-2.369l-2.621.741a3.092,3.092,0,0,0-1.1.451.925.925,0,0,0-.381.795,1.029,1.029,0,0,0,.408.875A1.686,1.686,0,0,0-3335.315,839.12Zm12.343,2.1a6.168,6.168,0,0,1-3.223-.773,3.266,3.266,0,0,1-1.579-2.3l2.589-.73a2.079,2.079,0,0,0,2.213,1.644,2.293,2.293,0,0,0,1.128-.252.879.879,0,0,0,.44-.854.9.9,0,0,0-.183-.569,1.45,1.45,0,0,0-.564-.408,6.994,6.994,0,0,0-.752-.29q-.372-.118-.983-.285t-1.021-.317a6.769,6.769,0,0,1-.972-.414,4.137,4.137,0,0,1-.806-.569,2.284,2.284,0,0,1-.6-.865,3.1,3.1,0,0,1-.209-1.182,2.816,2.816,0,0,1,1.2-2.471,5.35,5.35,0,0,1,3.131-.838,5.493,5.493,0,0,1,2.89.709,3.211,3.211,0,0,1,1.482,2.213l-2.4.537a1.877,1.877,0,0,0-1.966-1.4,2.151,2.151,0,0,0-1.085.247.791.791,0,0,0-.43.73.824.824,0,0,0,.064.333.654.654,0,0,0,.226.269,3.4,3.4,0,0,0,.312.2,2.305,2.305,0,0,0,.44.177c.193.061.354.107.483.14l.564.145.575.15q.591.16,1.037.322a6.129,6.129,0,0,1,.951.451,3.426,3.426,0,0,1,.833.65,2.9,2.9,0,0,1,.542.913,3.4,3.4,0,0,1,.215,1.23,3.331,3.331,0,0,1-.371,1.6,2.794,2.794,0,0,1-1.015,1.08,4.969,4.969,0,0,1-1.434.58A7.406,7.406,0,0,1-3322.972,841.215Zm-80.764-.215v-9.446h-1.748v-2.3h1.748v-1a4.056,4.056,0,0,1,1.135-3.068,4.4,4.4,0,0,1,3.176-1.091,7.324,7.324,0,0,1,1.6.217l-.033,2.432a4,4,0,0,0-.955-.1q-1.77,0-1.77,1.661v.945h2.334v2.3h-2.334V841Z" fill="#00223d"/>
        <path id="Trazado_35424" data-name="Trazado 35424" d="M-3208.836,777h267v85h-267Z" fill="#c0b6db"/>
        <path id="Trazado_35425" data-name="Trazado 35425" d="M-3125.423,811.215a8.4,8.4,0,0,1-3.1-.564,7.246,7.246,0,0,1-2.471-1.584,7.112,7.112,0,0,1-1.622-2.514,8.873,8.873,0,0,1-.585-3.276,8.853,8.853,0,0,1,.6-3.314,7.192,7.192,0,0,1,1.654-2.535,7.4,7.4,0,0,1,2.519-1.6,8.677,8.677,0,0,1,3.164-.569,8.462,8.462,0,0,1,4.034.951,6.925,6.925,0,0,1,2.8,2.7l-2.825,1.5a4.148,4.148,0,0,0-1.638-1.762,4.706,4.706,0,0,0-2.369-.591,4.5,4.5,0,0,0-3.389,1.364,5.2,5.2,0,0,0-1.316,3.779,5.365,5.365,0,0,0,1.311,3.792,4.55,4.55,0,0,0,3.513,1.418,5.179,5.179,0,0,0,1.891-.333,3.777,3.777,0,0,0,1.5-1.077,3.917,3.917,0,0,0,.859-1.842h-4.245v-2.591h7.3V811h-2.535v-2.148A5.662,5.662,0,0,1-3125.423,811.215Zm20.9-5.9-.032.741h-8.181a2.855,2.855,0,0,0,.881,2.02,2.816,2.816,0,0,0,1.944.7,2.715,2.715,0,0,0,1.455-.376,2.349,2.349,0,0,0,.929-1.112l2.836.419a4.826,4.826,0,0,1-1.934,2.584,5.747,5.747,0,0,1-3.266.924,5.98,5.98,0,0,1-4.3-1.52,5.542,5.542,0,0,1-1.6-4.216,5.578,5.578,0,0,1,1.6-4.216,5.8,5.8,0,0,1,4.2-1.542,5.544,5.544,0,0,1,3.964,1.407,5.525,5.525,0,0,1,1.508,4.189Zm-5.446-3.405a2.444,2.444,0,0,0-2.686,2.127h5.07a2.331,2.331,0,0,0-.763-1.579,2.415,2.415,0,0,0-1.617-.546Zm10.764-.2a3.582,3.582,0,0,1,1.45-1.327,4.414,4.414,0,0,1,2.159-.553v2.761a4.182,4.182,0,0,0-2.643.666,2.907,2.907,0,0,0-.816,2.363V811h-3.115V799.957h2.965Zm15.748,3.609-.032.741h-8.186a2.855,2.855,0,0,0,.881,2.02,2.816,2.816,0,0,0,1.944.7,2.712,2.712,0,0,0,1.459-.38,2.35,2.35,0,0,0,.929-1.112l2.836.419a4.825,4.825,0,0,1-1.933,2.584,5.746,5.746,0,0,1-3.266.924,5.98,5.98,0,0,1-4.3-1.52,5.543,5.543,0,0,1-1.6-4.216,5.578,5.578,0,0,1,1.6-4.216,5.8,5.8,0,0,1,4.2-1.542,5.544,5.544,0,0,1,3.964,1.407,5.524,5.524,0,0,1,1.507,4.189Zm-5.446-3.4a2.444,2.444,0,0,0-2.683,2.125h5.07a2.33,2.33,0,0,0-.763-1.579,2.42,2.42,0,0,0-1.621-.548Zm14.319-2.17a4.3,4.3,0,0,1,3.051.994,3.688,3.688,0,0,1,1.067,2.828V811h-3.1v-6.768a1.927,1.927,0,0,0-.553-1.525,2.086,2.086,0,0,0-1.423-.483,2.923,2.923,0,0,0-.924.14,2.372,2.372,0,0,0-.773.435,1.911,1.911,0,0,0-.553.833,3.83,3.83,0,0,0-.209,1.278V811h-3.1V799.957h3.094v1.225a4.254,4.254,0,0,1,3.426-1.44ZM-3063.355,811a3.334,3.334,0,0,1-2.492-.9,3.487,3.487,0,0,1-.881-2.551v-5.218h-2.17v-2.374h.7a1.823,1.823,0,0,0,1.373-.457,2.38,2.38,0,0,0,.44-1.644V796.4h2.794v3.566h2.277v2.374h-2.277v4.888q0,1.43,1.278,1.429h1V811Zm14.781-5.683-.032.741h-8.186a2.855,2.855,0,0,0,.881,2.02,2.816,2.816,0,0,0,1.944.7,2.712,2.712,0,0,0,1.456-.378,2.351,2.351,0,0,0,.929-1.112l2.836.412a4.823,4.823,0,0,1-1.933,2.591,5.747,5.747,0,0,1-3.266.924,5.98,5.98,0,0,1-4.3-1.52,5.542,5.542,0,0,1-1.6-4.216,5.578,5.578,0,0,1,1.6-4.216,5.8,5.8,0,0,1,4.2-1.542,5.544,5.544,0,0,1,3.964,1.407A5.524,5.524,0,0,1-3048.574,805.317Zm-5.446-3.405a2.444,2.444,0,0,0-2.686,2.127h5.07a2.331,2.331,0,0,0-.763-1.579A2.42,2.42,0,0,0-3054.02,801.912Zm21.345-7.412h3.094V811h-2.933l-.075-1.439a3.16,3.16,0,0,1-1.4,1.251,4.721,4.721,0,0,1-2.068.446,5.357,5.357,0,0,1-2.062-.4,5.11,5.11,0,0,1-1.692-1.123,5.1,5.1,0,0,1-1.144-1.821,6.7,6.7,0,0,1-.422-2.414,6.264,6.264,0,0,1,.73-3.078,5,5,0,0,1,1.928-2,5.305,5.305,0,0,1,2.659-.677,4.843,4.843,0,0,1,2,.4,3.137,3.137,0,0,1,1.38,1.144Zm-2.675,14.19a2.755,2.755,0,0,0,2.089-.881,3.23,3.23,0,0,0,.833-2.31,3.236,3.236,0,0,0-.838-2.315,2.752,2.752,0,0,0-2.084-.884,2.782,2.782,0,0,0-2.1.87,3.229,3.229,0,0,0-.833,2.33,3.214,3.214,0,0,0,.833,2.32A2.782,2.782,0,0,0-3035.35,808.69Zm19.357-3.373-.032.741h-8.186a2.855,2.855,0,0,0,.881,2.02,2.817,2.817,0,0,0,1.944.7,2.712,2.712,0,0,0,1.456-.378,2.351,2.351,0,0,0,.929-1.112l2.836.419a4.824,4.824,0,0,1-1.933,2.584,5.748,5.748,0,0,1-3.266.924,5.98,5.98,0,0,1-4.3-1.52,5.542,5.542,0,0,1-1.6-4.216,5.577,5.577,0,0,1,1.6-4.216,5.8,5.8,0,0,1,4.2-1.542,5.544,5.544,0,0,1,3.964,1.407A5.524,5.524,0,0,1-3015.993,805.317Zm-5.443-3.405a2.444,2.444,0,0,0-2.686,2.127h5.07a2.331,2.331,0,0,0-.763-1.579A2.42,2.42,0,0,0-3021.436,801.912Zm-70.209,33.406-.032.741h-8.186a2.855,2.855,0,0,0,.881,2.02,2.816,2.816,0,0,0,1.944.7,2.712,2.712,0,0,0,1.456-.381,2.349,2.349,0,0,0,.929-1.112l2.836.419a4.825,4.825,0,0,1-1.934,2.589,5.747,5.747,0,0,1-3.266.924,5.979,5.979,0,0,1-4.3-1.52,5.542,5.542,0,0,1-1.6-4.216,5.578,5.578,0,0,1,1.6-4.216,5.8,5.8,0,0,1,4.2-1.542,5.544,5.544,0,0,1,3.964,1.407,5.526,5.526,0,0,1,1.508,4.186Zm-5.446-3.4a2.444,2.444,0,0,0-2.686,2.127h5.07a2.331,2.331,0,0,0-.763-1.579,2.416,2.416,0,0,0-1.621-.549Zm10.764-.2a3.579,3.579,0,0,1,1.45-1.327,4.414,4.414,0,0,1,2.159-.553v2.761a4.182,4.182,0,0,0-2.643.666,2.908,2.908,0,0,0-.816,2.363V841h-3.115V829.957h2.965Zm9.313,9.507a6.167,6.167,0,0,1-3.222-.779,3.266,3.266,0,0,1-1.579-2.3l2.589-.73a2.079,2.079,0,0,0,2.213,1.644,2.288,2.288,0,0,0,1.127-.255.879.879,0,0,0,.44-.854.9.9,0,0,0-.183-.569,1.449,1.449,0,0,0-.564-.408,6.957,6.957,0,0,0-.752-.29c-.248-.079-.575-.174-.983-.285s-.749-.217-1.021-.317a6.783,6.783,0,0,1-.972-.414,4.137,4.137,0,0,1-.806-.569,2.284,2.284,0,0,1-.6-.865,3.121,3.121,0,0,1-.209-1.178,2.816,2.816,0,0,1,1.2-2.471,5.35,5.35,0,0,1,3.131-.838,5.493,5.493,0,0,1,2.89.709,3.212,3.212,0,0,1,1.479,2.213l-2.4.537a1.877,1.877,0,0,0-1.96-1.4,2.151,2.151,0,0,0-1.085.247.791.791,0,0,0-.43.73.828.828,0,0,0,.064.333.655.655,0,0,0,.226.269,3.337,3.337,0,0,0,.312.2,2.293,2.293,0,0,0,.44.177c.193.061.354.107.483.14l.564.145.575.15q.591.16,1.037.322a6.118,6.118,0,0,1,.951.451,3.425,3.425,0,0,1,.833.65,2.9,2.9,0,0,1,.542.913,3.4,3.4,0,0,1,.215,1.23,3.336,3.336,0,0,1-.367,1.61,2.8,2.8,0,0,1-1.015,1.08,4.967,4.967,0,0,1-1.434.58,7.459,7.459,0,0,1-1.729.188Zm11.913,0a6.936,6.936,0,0,1-3.126-.677,5.052,5.052,0,0,1-2.143-1.987,5.914,5.914,0,0,1-.779-3.083,5.4,5.4,0,0,1,1.676-4.189,6.214,6.214,0,0,1,4.372-1.536,6.231,6.231,0,0,1,4.383,1.536,5.4,5.4,0,0,1,1.676,4.189,5.432,5.432,0,0,1-1.676,4.206,6.221,6.221,0,0,1-4.383,1.536Zm-.035-2.465a2.835,2.835,0,0,0,2.186-.9,3.381,3.381,0,0,0,.833-2.385,3.381,3.381,0,0,0-.833-2.385,2.835,2.835,0,0,0-2.186-.9,2.731,2.731,0,0,0-2.122.908,3.4,3.4,0,0,0-.822,2.379,3.4,3.4,0,0,0,.822,2.379A2.729,2.729,0,0,0-3065.136,838.755Zm14.91-9.013a4.3,4.3,0,0,1,3.051.994,3.684,3.684,0,0,1,1.063,2.831V841h-3.1v-6.768a1.927,1.927,0,0,0-.553-1.525,2.086,2.086,0,0,0-1.423-.483,2.923,2.923,0,0,0-.924.14,2.372,2.372,0,0,0-.773.435,1.911,1.911,0,0,0-.553.833,3.83,3.83,0,0,0-.209,1.278V841h-3.1V829.957h3.094v1.225a4.253,4.253,0,0,1,3.426-1.44Zm16.17,8.258a10.3,10.3,0,0,0,.269,2.7v.3h-2.89l-.247-1.2a3.6,3.6,0,0,1-1.547,1.063,5.7,5.7,0,0,1-2,.354,5.231,5.231,0,0,1-1.031-.1,3.472,3.472,0,0,1-.929-.328,2.808,2.808,0,0,1-.768-.575,2.5,2.5,0,0,1-.516-.875,3.452,3.452,0,0,1-.193-1.2,3.316,3.316,0,0,1,.2-1.2,2.793,2.793,0,0,1,.537-.9,3.243,3.243,0,0,1,.87-.655,6.6,6.6,0,0,1,1.1-.473,13.062,13.062,0,0,1,1.311-.344l1.815-.408a2.009,2.009,0,0,0,.822-.349.7.7,0,0,0,.242-.553,1.141,1.141,0,0,0-.542-1.063,2.536,2.536,0,0,0-1.316-.322,1.9,1.9,0,0,0-2.149,1.6c0,.029-.008.058-.01.087l-2.739-.494a3.707,3.707,0,0,1,1.6-2.519,6.36,6.36,0,0,1,3.47-.811q4.641,0,4.641,3.985Zm-5.446,1.12a2.49,2.49,0,0,0,1.912-.8,3.373,3.373,0,0,0,.741-2.369l-2.621.741a3.092,3.092,0,0,0-1.1.451.925.925,0,0,0-.381.795,1.029,1.029,0,0,0,.408.875A1.686,1.686,0,0,0-3039.5,839.12Zm8.454,1.88V824.5h3.126V841Zm-78.774-11.282a5.36,5.36,0,0,1,2.063.4,5.161,5.161,0,0,1,1.692,1.117,5.046,5.046,0,0,1,1.144,1.821,6.727,6.727,0,0,1,.416,2.42,6.737,6.737,0,0,1-.419,2.422,5.046,5.046,0,0,1-1.144,1.821,5.141,5.141,0,0,1-1.692,1.117,5.359,5.359,0,0,1-2.062.4,4.8,4.8,0,0,1-2-.408,3.128,3.128,0,0,1-1.386-1.16v6.682h-3.094V829.933h2.933l.086,1.482a3.026,3.026,0,0,1,1.38-1.251A4.757,4.757,0,0,1-3109.822,829.718Zm-.7,8.948a2.774,2.774,0,0,0,2.089-.865,3.206,3.206,0,0,0,.833-2.326,3.208,3.208,0,0,0-.833-2.326,2.778,2.778,0,0,0-2.089-.865,2.787,2.787,0,0,0-2.1.881,3.221,3.221,0,0,0-.838,2.31,3.217,3.217,0,0,0,.838,2.31,2.783,2.783,0,0,0,2.107.881Z" fill="#00223d"/>
        <path id="Trazado_35437" data-name="Trazado 35437" d="M-2926.836,777h225v85h-225Z" fill="#c0b6db"/>
        <path id="Trazado_35442" data-name="Trazado 35442" d="M-2866.423,811.215a8.4,8.4,0,0,1-3.1-.564,7.246,7.246,0,0,1-2.471-1.584,7.112,7.112,0,0,1-1.622-2.514,8.873,8.873,0,0,1-.585-3.276,8.853,8.853,0,0,1,.6-3.314,7.192,7.192,0,0,1,1.654-2.535,7.4,7.4,0,0,1,2.519-1.6,8.677,8.677,0,0,1,3.164-.569,8.462,8.462,0,0,1,4.034.951,6.925,6.925,0,0,1,2.8,2.7l-2.825,1.5a4.148,4.148,0,0,0-1.638-1.762,4.706,4.706,0,0,0-2.369-.591,4.5,4.5,0,0,0-3.389,1.364,5.2,5.2,0,0,0-1.316,3.779,5.365,5.365,0,0,0,1.311,3.792,4.55,4.55,0,0,0,3.513,1.418,5.179,5.179,0,0,0,1.891-.333,3.777,3.777,0,0,0,1.5-1.077,3.917,3.917,0,0,0,.859-1.842h-4.245v-2.591h7.3V811h-2.535v-2.148A5.662,5.662,0,0,1-2866.423,811.215Zm20.9-5.9-.032.741h-8.181a2.855,2.855,0,0,0,.881,2.02,2.816,2.816,0,0,0,1.944.7,2.715,2.715,0,0,0,1.455-.376,2.349,2.349,0,0,0,.929-1.112l2.836.419a4.826,4.826,0,0,1-1.934,2.584,5.747,5.747,0,0,1-3.266.924,5.98,5.98,0,0,1-4.3-1.52,5.542,5.542,0,0,1-1.6-4.216,5.578,5.578,0,0,1,1.6-4.216,5.8,5.8,0,0,1,4.2-1.542,5.544,5.544,0,0,1,3.964,1.407,5.525,5.525,0,0,1,1.508,4.189Zm-5.446-3.405a2.444,2.444,0,0,0-2.686,2.127h5.07a2.331,2.331,0,0,0-.763-1.579,2.415,2.415,0,0,0-1.617-.546Zm10.764-.2a3.582,3.582,0,0,1,1.45-1.327,4.414,4.414,0,0,1,2.159-.553v2.761a4.182,4.182,0,0,0-2.643.666,2.907,2.907,0,0,0-.816,2.363V811h-3.115V799.957h2.965Zm15.748,3.609-.032.741h-8.186a2.855,2.855,0,0,0,.881,2.02,2.816,2.816,0,0,0,1.944.7,2.712,2.712,0,0,0,1.459-.38,2.35,2.35,0,0,0,.929-1.112l2.836.419a4.825,4.825,0,0,1-1.933,2.584,5.746,5.746,0,0,1-3.266.924,5.98,5.98,0,0,1-4.3-1.52,5.543,5.543,0,0,1-1.6-4.216,5.578,5.578,0,0,1,1.6-4.216,5.8,5.8,0,0,1,4.2-1.542,5.544,5.544,0,0,1,3.964,1.407,5.524,5.524,0,0,1,1.507,4.189Zm-5.446-3.4a2.444,2.444,0,0,0-2.683,2.125h5.07a2.33,2.33,0,0,0-.763-1.579,2.42,2.42,0,0,0-1.621-.548Zm14.319-2.17a4.3,4.3,0,0,1,3.051.994,3.688,3.688,0,0,1,1.067,2.828V811h-3.1v-6.768a1.927,1.927,0,0,0-.553-1.525,2.086,2.086,0,0,0-1.423-.483,2.923,2.923,0,0,0-.924.14,2.372,2.372,0,0,0-.773.435,1.911,1.911,0,0,0-.553.833,3.83,3.83,0,0,0-.209,1.278V811h-3.1V799.957h3.094v1.225a4.254,4.254,0,0,1,3.426-1.44ZM-2804.355,811a3.334,3.334,0,0,1-2.492-.9,3.487,3.487,0,0,1-.881-2.551v-5.218h-2.17v-2.374h.7a1.823,1.823,0,0,0,1.373-.457,2.38,2.38,0,0,0,.44-1.644V796.4h2.794v3.566h2.277v2.374h-2.277v4.888q0,1.43,1.278,1.429h1V811Zm14.781-5.683-.032.741h-8.186a2.855,2.855,0,0,0,.881,2.02,2.816,2.816,0,0,0,1.944.7,2.712,2.712,0,0,0,1.456-.378,2.351,2.351,0,0,0,.929-1.112l2.836.412a4.823,4.823,0,0,1-1.933,2.591,5.747,5.747,0,0,1-3.266.924,5.98,5.98,0,0,1-4.3-1.52,5.542,5.542,0,0,1-1.6-4.216,5.578,5.578,0,0,1,1.6-4.216,5.8,5.8,0,0,1,4.2-1.542,5.544,5.544,0,0,1,3.964,1.407A5.524,5.524,0,0,1-2789.574,805.317Zm-5.446-3.405a2.444,2.444,0,0,0-2.686,2.127h5.07a2.331,2.331,0,0,0-.763-1.579A2.42,2.42,0,0,0-2795.02,801.912Zm21.345-7.412h3.094V811h-2.933l-.075-1.439a3.16,3.16,0,0,1-1.4,1.251,4.721,4.721,0,0,1-2.068.446,5.357,5.357,0,0,1-2.062-.4,5.11,5.11,0,0,1-1.692-1.123,5.1,5.1,0,0,1-1.144-1.821,6.7,6.7,0,0,1-.422-2.414,6.264,6.264,0,0,1,.73-3.078,5,5,0,0,1,1.928-2,5.305,5.305,0,0,1,2.659-.677,4.843,4.843,0,0,1,2,.4,3.137,3.137,0,0,1,1.38,1.144Zm-2.675,14.19a2.755,2.755,0,0,0,2.089-.881,3.23,3.23,0,0,0,.833-2.31,3.236,3.236,0,0,0-.838-2.315,2.752,2.752,0,0,0-2.084-.884,2.782,2.782,0,0,0-2.1.87,3.229,3.229,0,0,0-.833,2.33,3.214,3.214,0,0,0,.833,2.32A2.782,2.782,0,0,0-2776.35,808.69Zm19.357-3.373-.032.741h-8.186a2.855,2.855,0,0,0,.881,2.02,2.817,2.817,0,0,0,1.944.7,2.712,2.712,0,0,0,1.456-.378,2.351,2.351,0,0,0,.929-1.112l2.836.419a4.824,4.824,0,0,1-1.933,2.584,5.748,5.748,0,0,1-3.266.924,5.98,5.98,0,0,1-4.3-1.52,5.542,5.542,0,0,1-1.6-4.216,5.577,5.577,0,0,1,1.6-4.216,5.8,5.8,0,0,1,4.2-1.542,5.544,5.544,0,0,1,3.964,1.407A5.524,5.524,0,0,1-2756.993,805.317Zm-5.443-3.405a2.444,2.444,0,0,0-2.686,2.127h5.07a2.331,2.331,0,0,0-.763-1.579A2.42,2.42,0,0,0-2762.436,801.912Zm-70.8,33.405-.032.741h-8.186a2.855,2.855,0,0,0,.881,2.02,2.816,2.816,0,0,0,1.944.7,2.711,2.711,0,0,0,1.456-.381,2.35,2.35,0,0,0,.929-1.112l2.836.419a4.828,4.828,0,0,1-1.928,2.587,5.747,5.747,0,0,1-3.266.924,5.98,5.98,0,0,1-4.3-1.52,5.542,5.542,0,0,1-1.6-4.216,5.578,5.578,0,0,1,1.6-4.216,5.8,5.8,0,0,1,4.2-1.542,5.547,5.547,0,0,1,3.966,1.407A5.524,5.524,0,0,1-2833.236,835.317Zm-5.446-3.405a2.444,2.444,0,0,0-2.686,2.127h5.07a2.33,2.33,0,0,0-.763-1.579A2.42,2.42,0,0,0-2838.682,831.912Zm10.764-.2a3.581,3.581,0,0,1,1.45-1.327,4.414,4.414,0,0,1,2.159-.553v2.761a4.181,4.181,0,0,0-2.643.666,2.908,2.908,0,0,0-.816,2.363V841h-3.115V829.957h2.965Zm10.355,9.5a5.9,5.9,0,0,1-4.265-1.59,5.487,5.487,0,0,1-1.654-4.146,5.475,5.475,0,0,1,1.646-4.155,5.915,5.915,0,0,1,4.27-1.579,5.886,5.886,0,0,1,3.577,1.063,4.752,4.752,0,0,1,1.853,2.995l-2.857.312a2.453,2.453,0,0,0-.924-1.45,2.81,2.81,0,0,0-1.676-.483,2.531,2.531,0,0,0-2.02.9,3.529,3.529,0,0,0-.773,2.385,3.535,3.535,0,0,0,.773,2.379,2.526,2.526,0,0,0,2.02.908,2.789,2.789,0,0,0,1.67-.483,2.507,2.507,0,0,0,.929-1.45l2.858.315a4.763,4.763,0,0,1-1.864,3,5.86,5.86,0,0,1-3.563,1.067ZM-2800.88,838a10.3,10.3,0,0,0,.269,2.7v.3h-2.89l-.247-1.2a3.6,3.6,0,0,1-1.547,1.06,5.7,5.7,0,0,1-2,.354,5.231,5.231,0,0,1-1.031-.1,3.472,3.472,0,0,1-.929-.328,2.808,2.808,0,0,1-.768-.575,2.5,2.5,0,0,1-.513-.871,3.452,3.452,0,0,1-.193-1.2,3.316,3.316,0,0,1,.2-1.2,2.794,2.794,0,0,1,.537-.9,3.241,3.241,0,0,1,.87-.655,6.609,6.609,0,0,1,1.1-.473,13.078,13.078,0,0,1,1.311-.344l1.815-.408a2.009,2.009,0,0,0,.822-.349.7.7,0,0,0,.238-.545,1.141,1.141,0,0,0-.541-1.066,2.536,2.536,0,0,0-1.316-.322,1.9,1.9,0,0,0-2.149,1.6c0,.029-.008.058-.01.087l-2.739-.494a3.707,3.707,0,0,1,1.6-2.519,6.359,6.359,0,0,1,3.47-.811q4.641,0,4.641,3.985Zm-5.446,1.12a2.49,2.49,0,0,0,1.912-.8,3.374,3.374,0,0,0,.741-2.369l-2.621.741a3.092,3.092,0,0,0-1.1.451.925.925,0,0,0-.381.795,1.029,1.029,0,0,0,.408.875A1.686,1.686,0,0,0-2806.326,839.12Zm16.038-14.62h3.094V841h-2.933l-.075-1.439a3.161,3.161,0,0,1-1.4,1.251,4.721,4.721,0,0,1-2.068.446,5.358,5.358,0,0,1-2.062-.4,4.966,4.966,0,0,1-2.836-2.943,6.711,6.711,0,0,1-.419-2.417,6.264,6.264,0,0,1,.73-3.078,5,5,0,0,1,1.928-2,5.306,5.306,0,0,1,2.659-.677,4.845,4.845,0,0,1,2,.4,3.135,3.135,0,0,1,1.38,1.144Zm-2.675,14.19a2.755,2.755,0,0,0,2.089-.881,3.229,3.229,0,0,0,.833-2.31,3.235,3.235,0,0,0-.838-2.315,2.751,2.751,0,0,0-2.084-.886,2.782,2.782,0,0,0-2.1.87,3.225,3.225,0,0,0-.833,2.332,3.214,3.214,0,0,0,.833,2.32A2.782,2.782,0,0,0-2792.963,838.69Zm19.357-3.373-.032.741h-8.185a2.855,2.855,0,0,0,.881,2.02,2.816,2.816,0,0,0,1.944.7,2.712,2.712,0,0,0,1.456-.381,2.35,2.35,0,0,0,.929-1.112l2.836.419a4.825,4.825,0,0,1-1.934,2.589,5.747,5.747,0,0,1-3.266.924,5.98,5.98,0,0,1-4.3-1.52,5.542,5.542,0,0,1-1.6-4.216,5.578,5.578,0,0,1,1.6-4.216,5.8,5.8,0,0,1,4.2-1.542,5.544,5.544,0,0,1,3.964,1.407A5.523,5.523,0,0,1-2773.606,835.317Zm-5.446-3.405a2.444,2.444,0,0,0-2.684,2.127h5.07a2.331,2.331,0,0,0-.763-1.579A2.415,2.415,0,0,0-2779.052,831.912Zm12.944,9.3a6.935,6.935,0,0,1-3.126-.677,5.05,5.05,0,0,1-2.143-1.987,5.911,5.911,0,0,1-.779-3.083,5.4,5.4,0,0,1,1.676-4.189,6.215,6.215,0,0,1,4.372-1.536,6.231,6.231,0,0,1,4.383,1.536,5.4,5.4,0,0,1,1.676,4.189,5.432,5.432,0,0,1-1.676,4.206,6.221,6.221,0,0,1-4.382,1.544Zm-.032-2.46a2.835,2.835,0,0,0,2.186-.9,3.38,3.38,0,0,0,.833-2.385,3.381,3.381,0,0,0-.833-2.385,2.835,2.835,0,0,0-2.186-.9,2.73,2.73,0,0,0-2.122.908,3.4,3.4,0,0,0-.822,2.379,3.4,3.4,0,0,0,.822,2.379,2.731,2.731,0,0,0,2.126.907Z" fill="#00223d"/>
        <path id="Trazado_35426" data-name="Trazado 35426" d="M-3568.952,908.215a8.432,8.432,0,0,1-4.077-.972,7.039,7.039,0,0,1-2.831-2.8,8.411,8.411,0,0,1-1.031-4.21,8.4,8.4,0,0,1,1.031-4.216,7.01,7.01,0,0,1,2.831-2.788,8.477,8.477,0,0,1,4.077-.967,8.447,8.447,0,0,1,4.071.967,7.043,7.043,0,0,1,2.825,2.788,8.421,8.421,0,0,1,1.031,4.216,8.435,8.435,0,0,1-1.031,4.211,7.052,7.052,0,0,1-2.831,2.8A8.425,8.425,0,0,1-3568.952,908.215Zm-3.4-4.308a4.558,4.558,0,0,0,3.4,1.354,4.553,4.553,0,0,0,3.394-1.361,5.017,5.017,0,0,0,1.332-3.667,4.981,4.981,0,0,0-1.332-3.652,4.561,4.561,0,0,0-3.395-1.354,4.558,4.558,0,0,0-3.4,1.354,4.973,4.973,0,0,0-1.331,3.652A5.031,5.031,0,0,0-3572.347,903.907Zm20.356-7.165a5.367,5.367,0,0,1,2.063.4,5.155,5.155,0,0,1,1.692,1.115,5.072,5.072,0,0,1,1.144,1.821,6.779,6.779,0,0,1,.419,2.422,6.779,6.779,0,0,1-.419,2.422,5.072,5.072,0,0,1-1.144,1.821,5.161,5.161,0,0,1-1.692,1.117,5.367,5.367,0,0,1-2.062.4,4.792,4.792,0,0,1-2-.408,3.123,3.123,0,0,1-1.386-1.16v6.679h-3.092V896.957h2.932l.086,1.482a3.012,3.012,0,0,1,1.38-1.251,4.739,4.739,0,0,1,2.08-.446Zm-.7,8.948a2.781,2.781,0,0,0,2.089-.865,3.216,3.216,0,0,0,.835-2.325,3.217,3.217,0,0,0-.833-2.326,2.781,2.781,0,0,0-2.089-.865,2.78,2.78,0,0,0-2.1.881,3.21,3.21,0,0,0-.842,2.31,3.209,3.209,0,0,0,.838,2.31,2.781,2.781,0,0,0,2.109.88Zm18.737-3.373-.032.741h-8.186a2.856,2.856,0,0,0,.881,2.02,2.816,2.816,0,0,0,1.944.7,2.711,2.711,0,0,0,1.456-.378,2.35,2.35,0,0,0,.929-1.112l2.836.412a4.826,4.826,0,0,1-1.934,2.591,5.746,5.746,0,0,1-3.266.924,5.98,5.98,0,0,1-4.3-1.52,5.543,5.543,0,0,1-1.6-4.216,5.578,5.578,0,0,1,1.6-4.216,5.8,5.8,0,0,1,4.2-1.542,5.544,5.544,0,0,1,3.964,1.407A5.525,5.525,0,0,1-3533.954,902.317Zm-5.446-3.405a2.444,2.444,0,0,0-2.686,2.127h5.07a2.33,2.33,0,0,0-.763-1.579A2.42,2.42,0,0,0-3539.4,898.912Zm10.764-.2a3.583,3.583,0,0,1,1.45-1.327,4.414,4.414,0,0,1,2.159-.553v2.761a4.181,4.181,0,0,0-2.643.666,2.908,2.908,0,0,0-.816,2.363V908h-3.116V896.957h2.966Zm14.415,6.288a10.3,10.3,0,0,0,.269,2.7v.3h-2.89l-.247-1.2a3.594,3.594,0,0,1-1.547,1.06,5.7,5.7,0,0,1-2,.354,5.235,5.235,0,0,1-1.031-.1,3.472,3.472,0,0,1-.929-.328,2.808,2.808,0,0,1-.768-.575,2.5,2.5,0,0,1-.516-.875,3.452,3.452,0,0,1-.193-1.2,3.316,3.316,0,0,1,.2-1.2,2.793,2.793,0,0,1,.537-.9,3.243,3.243,0,0,1,.87-.655,6.6,6.6,0,0,1,1.1-.473,13.062,13.062,0,0,1,1.311-.344l1.819-.4a2.007,2.007,0,0,0,.822-.349.7.7,0,0,0,.242-.553,1.142,1.142,0,0,0-.545-1.066,2.535,2.535,0,0,0-1.319-.32,1.9,1.9,0,0,0-2.149,1.6c0,.029-.008.058-.01.087l-2.741-.495a3.707,3.707,0,0,1,1.6-2.519,6.36,6.36,0,0,1,3.47-.811q4.641,0,4.641,3.985Zm-5.446,1.12a2.491,2.491,0,0,0,1.912-.8,3.376,3.376,0,0,0,.741-2.369l-2.622.741a3.092,3.092,0,0,0-1.1.451.925.925,0,0,0-.381.795,1.029,1.029,0,0,0,.408.875A1.691,1.691,0,0,0-3519.667,906.12Zm13.2,2.08a5.9,5.9,0,0,1-4.265-1.59,5.487,5.487,0,0,1-1.654-4.146,5.479,5.479,0,0,1,1.648-4.143,5.916,5.916,0,0,1,4.27-1.579,5.887,5.887,0,0,1,3.577,1.063,4.755,4.755,0,0,1,1.848,3l-2.857.312a2.453,2.453,0,0,0-.924-1.45,2.811,2.811,0,0,0-1.677-.483,2.53,2.53,0,0,0-2.019.9,3.534,3.534,0,0,0-.774,2.385,3.542,3.542,0,0,0,.774,2.379,2.526,2.526,0,0,0,2.019.908,2.786,2.786,0,0,0,1.67-.483,2.5,2.5,0,0,0,.929-1.45l2.858.312a4.767,4.767,0,0,1-1.864,3A5.862,5.862,0,0,1-3506.465,908.2Zm9.206-12.9a1.734,1.734,0,0,1-1.268-.521,1.7,1.7,0,0,1-.526-1.262,1.687,1.687,0,0,1,.532-1.251,1.742,1.742,0,0,1,1.262-.521,1.716,1.716,0,0,1,1.246.521,1.705,1.705,0,0,1,.526,1.251,1.712,1.712,0,0,1-.526,1.262A1.715,1.715,0,0,1-3497.259,895.3Zm-1.577,12.7V896.957h3.115V908Zm11.46.215a6.935,6.935,0,0,1-3.126-.677,5.051,5.051,0,0,1-2.143-1.987,5.916,5.916,0,0,1-.779-3.083,5.4,5.4,0,0,1,1.676-4.189,6.215,6.215,0,0,1,4.372-1.536,6.231,6.231,0,0,1,4.383,1.536,5.4,5.4,0,0,1,1.676,4.189,5.434,5.434,0,0,1-1.676,4.206A6.219,6.219,0,0,1-3487.376,908.215Zm-.032-2.46a2.835,2.835,0,0,0,2.186-.9,3.381,3.381,0,0,0,.833-2.385,3.381,3.381,0,0,0-.833-2.385,2.835,2.835,0,0,0-2.186-.9,2.731,2.731,0,0,0-2.122.908,3.4,3.4,0,0,0-.822,2.379,3.4,3.4,0,0,0,.822,2.379A2.729,2.729,0,0,0-3487.408,905.755Zm14.91-9.013a4.3,4.3,0,0,1,3.051.994,3.685,3.685,0,0,1,1.063,2.831V908h-3.1v-6.768a1.926,1.926,0,0,0-.553-1.525,2.086,2.086,0,0,0-1.423-.483,2.923,2.923,0,0,0-.924.14,2.372,2.372,0,0,0-.773.435,1.909,1.909,0,0,0-.553.833,3.824,3.824,0,0,0-.209,1.278V908h-3.1V896.957h3.094v1.225A4.254,4.254,0,0,1-3472.5,896.742Zm16.162,8.258a10.3,10.3,0,0,0,.269,2.7v.3h-2.89l-.247-1.2a3.6,3.6,0,0,1-1.542,1.06,5.693,5.693,0,0,1-2,.354,5.235,5.235,0,0,1-1.031-.1,3.472,3.472,0,0,1-.929-.328,2.815,2.815,0,0,1-.768-.575,2.5,2.5,0,0,1-.516-.875,3.457,3.457,0,0,1-.193-1.2,3.316,3.316,0,0,1,.2-1.2,2.793,2.793,0,0,1,.537-.9,3.244,3.244,0,0,1,.87-.655,6.6,6.6,0,0,1,1.1-.473,13.1,13.1,0,0,1,1.311-.344l1.815-.408a2.006,2.006,0,0,0,.822-.349.7.7,0,0,0,.242-.553,1.141,1.141,0,0,0-.542-1.063,2.537,2.537,0,0,0-1.316-.322,1.9,1.9,0,0,0-2.149,1.6c0,.029-.008.058-.01.087l-2.739-.494a3.707,3.707,0,0,1,1.6-2.519,6.359,6.359,0,0,1,3.47-.811q4.641,0,4.641,3.985Zm-5.441,1.12a2.49,2.49,0,0,0,1.912-.8,3.374,3.374,0,0,0,.741-2.369l-2.621.741a3.093,3.093,0,0,0-1.1.451.926.926,0,0,0-.381.795,1.029,1.029,0,0,0,.408.875A1.687,1.687,0,0,0-3461.777,906.12Zm8.454,1.88V891.5h3.126V908Zm16.715-5.683-.032.741h-8.186a2.855,2.855,0,0,0,.881,2.02,2.817,2.817,0,0,0,1.944.7,2.707,2.707,0,0,0,1.455-.381,2.339,2.339,0,0,0,.929-1.112l2.836.419a4.814,4.814,0,0,1-1.934,2.589,5.742,5.742,0,0,1-3.266.924,5.983,5.983,0,0,1-4.3-1.52,5.55,5.55,0,0,1-1.6-4.216,5.585,5.585,0,0,1,1.6-4.216,5.8,5.8,0,0,1,4.2-1.542,5.541,5.541,0,0,1,3.964,1.407A5.522,5.522,0,0,1-3436.608,902.317Zm-5.446-3.405a2.445,2.445,0,0,0-2.682,2.127h5.07a2.327,2.327,0,0,0-.77-1.579,2.415,2.415,0,0,0-1.619-.548Zm11.688,9.3a6.168,6.168,0,0,1-3.223-.773,3.266,3.266,0,0,1-1.579-2.3l2.589-.73a2.079,2.079,0,0,0,2.213,1.644,2.286,2.286,0,0,0,1.13-.253.88.88,0,0,0,.44-.854.9.9,0,0,0-.183-.569,1.449,1.449,0,0,0-.564-.408,7,7,0,0,0-.752-.29q-.372-.119-.983-.285t-1.021-.317a6.783,6.783,0,0,1-.972-.414,4.128,4.128,0,0,1-.806-.569,2.281,2.281,0,0,1-.6-.865,3.1,3.1,0,0,1-.209-1.182,2.817,2.817,0,0,1,1.2-2.471,5.351,5.351,0,0,1,3.131-.838,5.491,5.491,0,0,1,2.89.709,3.211,3.211,0,0,1,1.482,2.213l-2.4.537a1.877,1.877,0,0,0-1.966-1.4,2.151,2.151,0,0,0-1.085.247.791.791,0,0,0-.43.73.828.828,0,0,0,.064.333.654.654,0,0,0,.226.269,3.325,3.325,0,0,0,.312.2,2.293,2.293,0,0,0,.44.177c.193.061.354.107.483.14l.564.145.574.15q.592.16,1.038.322a6.118,6.118,0,0,1,.951.451,3.4,3.4,0,0,1,.832.65,2.883,2.883,0,0,1,.543.913,3.388,3.388,0,0,1,.215,1.23,3.321,3.321,0,0,1-.372,1.6,2.785,2.785,0,0,1-1.014,1.08,4.963,4.963,0,0,1-1.435.58,7.418,7.418,0,0,1-1.724.2Z" fill="#00223d"/>
        <text id="Estratgicos_Tcticos" data-name="Estratgicos 
Tcticos" transform="translate(-3643.336 624.782)" fill="#12263f" font-size="18" font-family="Roboto-Bold, Roboto" font-weight="700"><tspan x="0" y="19">Estratgicos </tspan><tspan x="0" y="40.6">Tcticos</tspan></text>
        <path id="Trazado_113165" data-name="Trazado 113165" d="M-2906.616,1013.317v6.5a3.188,3.188,0,0,0-1.242-1.318,3.445,3.445,0,0,0-1.806-.488,3.787,3.787,0,0,0-2.87,1.248,4.542,4.542,0,0,0-1.173,3.243,5.239,5.239,0,0,0,.321,1.854,4.19,4.19,0,0,0,.87,1.428,3.929,3.929,0,0,0,2.855,1.216,3.431,3.431,0,0,0,1.828-.5,3.183,3.183,0,0,0,1.23-1.362l.035,1.679h1.473v-13.5Zm-.721,11.456a2.589,2.589,0,0,1-2.008.91,2.65,2.65,0,0,1-2.017-.881,3.25,3.25,0,0,1-.817-2.3,3.247,3.247,0,0,1,.817-2.3,2.643,2.643,0,0,1,2.021-.883,2.585,2.585,0,0,1,2,.914,3.272,3.272,0,0,1,.817,2.268A3.28,3.28,0,0,1-2907.337,1024.773Z" fill="#00223d"/>
      </g>
      <g id="Grupo_55521" data-name="Grupo 55521">
        <path id="Trazado_113166" data-name="Trazado 113166" d="M-2860.671,829.542l.1,1.3a4.083,4.083,0,0,1,3.341-1.514,3.1,3.1,0,0,1,3.083,1.772,3.989,3.989,0,0,1,3.491-1.772,3.466,3.466,0,0,1,2.814,1.1,5.057,5.057,0,0,1,.924,3.314v7.422h-3.115v-7.412a2.213,2.213,0,0,0-.387-1.445,1.715,1.715,0,0,0-1.364-.456,1.938,1.938,0,0,0-1.934,1.332l.011,7.981h-3.1v-7.4a2.188,2.188,0,0,0-.4-1.461,1.729,1.729,0,0,0-1.353-.451,2.01,2.01,0,0,0-1.912,1.1v8.217h-3.1V829.542Z" fill="#00223d"/>
      </g>
      <g id="Grupo_55522" data-name="Grupo 55522">
        <path id="Trazado_113167" data-name="Trazado 113167" d="M-3033.633,1018.979a3.267,3.267,0,0,1,2.656-1.253q2.847,0,2.873,3.212v5.935h-1.536v-5.943a2.064,2.064,0,0,0-.444-1.435,1.776,1.776,0,0,0-1.357-.465,2.216,2.216,0,0,0-1.312.4,2.712,2.712,0,0,0-.88,1.045v6.4h-1.535v-12.75h1.535Z" fill="#00223d"/>
      </g>
    </g>
  </g>
</svg>
