<svg xmlns="http://www.w3.org/2000/svg" xmlns:xlink="http://www.w3.org/1999/xlink" width="300" height="300" viewBox="0 0 300 300">
  <defs>
    <linearGradient id="linear-gradient" x1="1.026" y1="0.009" x2="0.118" y2="0.933" gradientUnits="objectBoundingBox">
      <stop offset="0" stop-color="#f57fa3"/>
      <stop offset="1" stop-color="#ef2a66"/>
    </linearGradient>
    <linearGradient id="linear-gradient-2" x1="0.814" y1="1.033" x2="0.125" y2="0.087" xlink:href="#linear-gradient"/>
    <linearGradient id="linear-gradient-3" x1="0.819" y1="0.007" x2="0.202" y2="0.971" xlink:href="#linear-gradient"/>
    <linearGradient id="linear-gradient-4" x1="0.903" y1="0.939" x2="-0.13" y2="-0.092" xlink:href="#linear-gradient"/>
    <linearGradient id="linear-gradient-5" x1="36.296" y1="-2.473" x2="-3.263" y2="0.813" gradientUnits="objectBoundingBox">
      <stop offset="0" stop-color="#fed2a8"/>
      <stop offset="1" stop-color="#fda551"/>
    </linearGradient>
    <linearGradient id="linear-gradient-6" x1="0.511" y1="-0.33" x2="0.47" y2="0.966" gradientUnits="objectBoundingBox">
      <stop offset="0" stop-color="#09005d"/>
      <stop offset="1" stop-color="#1a0f91"/>
    </linearGradient>
    <linearGradient id="linear-gradient-7" x1="1.8" y1="-1.262" x2="-0.041" y2="1.233" gradientUnits="objectBoundingBox">
      <stop offset="0" stop-color="#e1473d"/>
      <stop offset="1" stop-color="#e9605a"/>
    </linearGradient>
    <linearGradient id="linear-gradient-8" x1="0.745" y1="-0.018" x2="0.26" y2="1.008" xlink:href="#linear-gradient"/>
    <linearGradient id="linear-gradient-9" x1="0.047" y1="1.105" x2="0.978" y2="-0.141" xlink:href="#linear-gradient"/>
    <linearGradient id="linear-gradient-10" x1="0.596" y1="-6.185" x2="0.53" y2="-1.61" xlink:href="#linear-gradient-6"/>
    <linearGradient id="linear-gradient-11" x1="237.38" y1="7.037" x2="236.245" y2="8.44" gradientUnits="objectBoundingBox">
      <stop offset="0" stop-color="#febbba"/>
      <stop offset="1" stop-color="#ff928e"/>
    </linearGradient>
    <linearGradient id="linear-gradient-12" x1="-2.218" y1="28.634" x2="-0.1" y2="6.59" gradientUnits="objectBoundingBox">
      <stop offset="0" stop-color="#472ea6"/>
      <stop offset="1" stop-color="#6c58b8"/>
    </linearGradient>
    <linearGradient id="linear-gradient-13" x1="290.366" y1="160.619" x2="291.816" y2="165.542" xlink:href="#linear-gradient-12"/>
    <linearGradient id="linear-gradient-14" x1="456.054" y1="113.087" x2="458.32" y2="116.54" xlink:href="#linear-gradient-12"/>
    <linearGradient id="linear-gradient-15" x1="225.1" y1="47.906" x2="226.22" y2="49.364" xlink:href="#linear-gradient-12"/>
    <linearGradient id="linear-gradient-16" x1="1561.852" y1="163.945" x2="1569.687" y2="168.96" xlink:href="#linear-gradient-12"/>
    <linearGradient id="linear-gradient-17" x1="210.715" y1="0.501" x2="211.719" y2="0.501" xlink:href="#linear-gradient-11"/>
    <linearGradient id="linear-gradient-18" x1="516.267" y1="-5.619" x2="515.057" y2="0.571" gradientUnits="objectBoundingBox">
      <stop offset="0" stop-color="#53d8ff"/>
      <stop offset="1" stop-color="#3840f7"/>
    </linearGradient>
    <linearGradient id="linear-gradient-19" x1="429.496" y1="-1.295" x2="426.794" y2="0.974" xlink:href="#linear-gradient-12"/>
    <linearGradient id="linear-gradient-20" x1="365.377" y1="-14.736" x2="364.512" y2="-0.837" xlink:href="#linear-gradient-18"/>
    <linearGradient id="linear-gradient-21" x1="358.98" y1="0.499" x2="359.979" y2="0.499" xlink:href="#linear-gradient-11"/>
    <linearGradient id="linear-gradient-22" x1="304.539" y1="0.062" x2="305.257" y2="1.331" xlink:href="#linear-gradient"/>
    <linearGradient id="linear-gradient-23" x1="536.371" y1="-3.457" x2="532.985" y2="2.45" xlink:href="#linear-gradient-12"/>
    <linearGradient id="linear-gradient-24" x1="587.504" y1="0.501" x2="588.504" y2="0.501" xlink:href="#linear-gradient-11"/>
    <linearGradient id="linear-gradient-25" x1="322.786" y1="0.531" x2="326.767" y2="0.807" xlink:href="#linear-gradient-11"/>
    <linearGradient id="linear-gradient-26" x1="276.057" y1="0.537" x2="277.641" y2="2.558" xlink:href="#linear-gradient-11"/>
    <linearGradient id="linear-gradient-27" x1="278.175" y1="0.095" x2="277.359" y2="1.138" xlink:href="#linear-gradient-6"/>
    <linearGradient id="linear-gradient-28" x1="756.868" y1="-1.576" x2="752.094" y2="0.766" xlink:href="#linear-gradient-12"/>
    <linearGradient id="linear-gradient-29" x1="1796.245" y1="-1.954" x2="1789.63" y2="1.617" xlink:href="#linear-gradient-12"/>
  </defs>
  <g id="CF1_200" transform="translate(-0.029 -0.107)">
    <rect id="Rectángulo_6949" data-name="Rectángulo 6949" width="300" height="300" transform="translate(0.029 0.107)" fill="none"/>
    <rect id="Rectángulo_6950" data-name="Rectángulo 6950" width="29.834" height="108.335" rx="1.9" transform="translate(88.149 169.819)" fill="#91b3fa"/>
    <path id="Trazado_118302" data-name="Trazado 118302" d="M133.521,109.58h-23.74a3.324,3.324,0,0,0-3.039,3.466V227.364a3.434,3.434,0,0,0,3.039,3.593h23.74a3.767,3.767,0,0,0,3.434-3.593V113.046A3.656,3.656,0,0,0,133.521,109.58Z" transform="translate(53.045 47.276)" fill="#91b3fa"/>
    <rect id="Rectángulo_6951" data-name="Rectángulo 6951" width="29.834" height="142.094" rx="1.9" transform="translate(123.23 136.06)" fill="#91b3fa"/>
    <rect id="Rectángulo_6952" data-name="Rectángulo 6952" width="29.834" height="190.366" rx="1.9" transform="translate(243.13 87.788)" fill="#91b3fa"/>
    <rect id="Rectángulo_6953" data-name="Rectángulo 6953" width="29.834" height="164.061" rx="1.9" transform="translate(202.995 114.076)" fill="#91b3fa"/>
    <path id="Trazado_118303" data-name="Trazado 118303" d="M124.44,240.31l55.267-105.882H168.375a2.469,2.469,0,0,1-1.9-4.052l58.892-71.822a4.162,4.162,0,0,1,7.359,2.88L228.6,131.642a7.011,7.011,0,0,1-7.8,6.552l-7.913-.9-54.84,118.7a8.721,8.721,0,0,1-7.913,5.065H131.135Z" transform="translate(56.427 16.668)" fill="url(#linear-gradient)"/>
    <path id="Trazado_118304" data-name="Trazado 118304" d="M95.57,131.426l39.013,86.668a14.244,14.244,0,0,0,13.041,8.436h20.116a7.328,7.328,0,0,0,6.426-3.783l.712-1.282h0a5.761,5.761,0,0,1-5.112-3.165L117.775,116.47Z" transform="translate(45.723 51.291)" fill="url(#linear-gradient-2)"/>
    <path id="Trazado_118305" data-name="Trazado 118305" d="M151.57,130.512h0a8.531,8.531,0,0,0-12.392,1.963L81.8,218.62A24.769,24.769,0,0,1,61.23,229.7H53.158L46.59,210.707s53.273-81.777,67.027-94.107c0,0,13.69-12.329,27.175-3.007a22.442,22.442,0,0,1,7.913,9.987Z" transform="translate(22.081 47.584)" fill="url(#linear-gradient-3)"/>
    <path id="Trazado_118306" data-name="Trazado 118306" d="M7.13,146.65a43.334,43.334,0,0,1,28.283-13.88s8.831,3.007,26.447,34.566,29.3,45.9,43,38.079l-1.14,1.883a20.654,20.654,0,0,1-17.71,10.018H78.367A25.955,25.955,0,0,1,57.3,206.525C43.6,187.468,15.55,149.594,7.13,146.65Z" transform="translate(5.072 60.789)" fill="url(#linear-gradient-4)"/>
    <path id="Trazado_118307" data-name="Trazado 118307" d="M188.853,75.6h0a.617.617,0,0,1-.522-.665l.4-3.419a.589.589,0,0,1,1.171.127l-.506,3.434a.617.617,0,0,1-.538.522Z" transform="translate(93.654 35.658)" fill="#fff" opacity="0.72"/>
    <path id="Trazado_118308" data-name="Trazado 118308" d="M157.822,125.17a.633.633,0,0,1-.364-.127.57.57,0,0,1-.111-.823l48.588-63.213a2.073,2.073,0,0,1,3.719,1.5l-.855,7.581a.585.585,0,0,1-.649.522.57.57,0,0,1-.522-.649l.855-7.581a.871.871,0,0,0-.554-.934.886.886,0,0,0-1.06.285l-48.636,63.2A.554.554,0,0,1,157.822,125.17Z" transform="translate(75.527 29.041)" fill="#fff" opacity="0.72"/>
    <path id="Trazado_118309" data-name="Trazado 118309" d="M88.085,157.868a.569.569,0,0,1-.317-.095.6.6,0,0,1-.174-.823l25.165-37.225a4.479,4.479,0,0,1,7.755.586.6.6,0,0,1-.269.791.586.586,0,0,1-.791-.285,3.308,3.308,0,0,0-5.714-.427L88.592,157.615a.633.633,0,0,1-.506.253Z" transform="translate(43.558 57.578)" fill="#fff" opacity="0.72"/>
    <path id="Trazado_118310" data-name="Trazado 118310" d="M83.955,150.534a.57.57,0,0,1-.317-.1.6.6,0,0,1-.174-.823l1.583-2.39a.593.593,0,0,1,.981.665l-1.583,2.39A.617.617,0,0,1,83.955,150.534Z" transform="translate(42.31 73.427)" fill="#fff" opacity="0.72"/>
    <path id="Trazado_118311" data-name="Trazado 118311" d="M60.68,227.688a.87.87,0,0,1-.87-.87V123.785a.87.87,0,0,1,.87-.855.855.855,0,0,1,.855.855V226.818a.87.87,0,0,1-.855.87Z" transform="translate(30.616 55.055)" fill="#7d97f4"/>
    <path id="Trazado_118312" data-name="Trazado 118312" d="M45.92,227.688a.87.87,0,0,1-.87-.87V123.785a.87.87,0,0,1,.87-.855.855.855,0,0,1,.855.855V226.818a.87.87,0,0,1-.855.87Z" transform="translate(23.275 55.055)" fill="#7d97f4"/>
    <path id="Trazado_118313" data-name="Trazado 118313" d="M9.661,228.317a1.235,1.235,0,0,1-.348,0,.886.886,0,0,1-.459-1.14L52.947,123.5a.839.839,0,0,1,1.124-.459.855.855,0,0,1,.459,1.124L10.452,227.8A.886.886,0,0,1,9.661,228.317Z" transform="translate(6.039 55.075)" fill="#7d97f4"/>
    <path id="Trazado_118314" data-name="Trazado 118314" d="M26.857,228.315a1.234,1.234,0,0,1-.332,0,.871.871,0,0,1-.459-1.14L70.143,123.494a.858.858,0,0,1,1.583.665L27.585,227.793A.886.886,0,0,1,26.857,228.315Z" transform="translate(16.065 55.077)" fill="#7d97f4"/>
    <path id="Trazado_118315" data-name="Trazado 118315" d="M76.513,124.962H36.139a1.219,1.219,0,0,1-1.219-1.219h0a1.219,1.219,0,0,1,1.219-1.2H76.513a1.2,1.2,0,0,1,1.219,1.2h0a1.2,1.2,0,0,1-1.219,1.219Z" transform="translate(17.783 61.33)" fill="#7d97f4"/>
    <path id="Trazado_118316" data-name="Trazado 118316" d="M60.552,134.635H33.25a.863.863,0,1,1,0-1.725h27.3a.863.863,0,1,1,0,1.725Z" transform="translate(16.707 66.511)" fill="#7d97f4"/>
    <rect id="Rectángulo_6954" data-name="Rectángulo 6954" width="27.301" height="1.725" transform="translate(44.647 218.018)" fill="#7d97f4"/>
    <rect id="Rectángulo_6955" data-name="Rectángulo 6955" width="27.301" height="1.725" transform="translate(36.543 236.57)" fill="#7d97f4"/>
    <path id="Trazado_118317" data-name="Trazado 118317" d="M44.762,171.835H17.445a.855.855,0,0,1-.855-.855.87.87,0,0,1,.855-.871H44.762a.871.871,0,0,1,.855.871.855.855,0,0,1-.855.855Z" transform="translate(10.584 82.547)" fill="#7d97f4"/>
    <path id="Trazado_118318" data-name="Trazado 118318" d="M39.562,184.225H12.26a.863.863,0,1,1,0-1.725h27.3a.863.863,0,1,1,0,1.725Z" transform="translate(7.554 89.766)" fill="#7d97f4"/>
    <rect id="Rectángulo_6956" data-name="Rectángulo 6956" width="3.846" height="80.464" transform="translate(168.283 136.162)" fill="url(#linear-gradient-5)"/>
    <path id="Trazado_118319" data-name="Trazado 118319" d="M175.818,144.35H84.56a65.205,65.205,0,0,0,4.047,22.6l15.958,42.967a8.2,8.2,0,0,0,7.676,5.35h35.88a8.182,8.182,0,0,0,7.676-5.349l15.954-42.955a64.89,64.89,0,0,0,4.068-22.617Z" transform="translate(40.044 67.537)" fill="url(#linear-gradient-6)"/>
    <ellipse id="Elipse_4597" data-name="Elipse 4597" cx="72.519" cy="72.519" rx="72.519" ry="72.519" transform="translate(73.831 144.81) rotate(-72.93)" fill="url(#linear-gradient-7)"/>
    <ellipse id="Elipse_4598" data-name="Elipse 4598" cx="70.113" cy="70.113" rx="70.113" ry="70.113" transform="translate(71.001 129.941) rotate(-64.54)" fill="url(#linear-gradient-8)"/>
    <path id="Trazado_118320" data-name="Trazado 118320" d="M78.224,56.745a1.092,1.092,0,0,1-.586-.158,1.3,1.3,0,0,1-.586-1.757,65.761,65.761,0,0,1,59.382-35.658,64.984,64.984,0,0,1,11.9,1.2,1.314,1.314,0,1,1-.507,2.564A64.019,64.019,0,0,0,136.4,21.784,63.133,63.133,0,0,0,79.426,56.033,1.314,1.314,0,0,1,78.224,56.745Z" transform="translate(37.202 11.593)" fill="#fff" opacity="0.78"/>
    <ellipse id="Elipse_4599" data-name="Elipse 4599" cx="59.335" cy="59.335" rx="59.335" ry="59.335" transform="matrix(0.233, -0.972, 0.972, 0.233, 100.548, 142.218)" fill="#fff" opacity="0.78"/>
    <path id="Trazado_118321" data-name="Trazado 118321" d="M118.4,121.377v-6.457a52.672,52.672,0,0,1-17.932-4.131,3.719,3.719,0,0,1-2.026-4.432l1.709-6a3.767,3.767,0,0,1,5.144-2.406,43.413,43.413,0,0,0,16.682,3.7c6.473,0,11.332-2.073,11.379-6.568,0-4.067-3.656-6.521-12.661-9.037-12.8-3.656-21.968-9.37-21.857-20.686.127-10.208,7.676-17.932,20.575-19.879V39.029a3.767,3.767,0,0,1,3.8-3.719h3.8a3.767,3.767,0,0,1,3.719,3.8V44.9a48.082,48.082,0,0,1,14.244,2.738,3.751,3.751,0,0,1,2.485,4.59l-1.583,5.555a3.751,3.751,0,0,1-4.985,2.469,39.2,39.2,0,0,0-14.054-2.706c-7.692,0-9.923,3.07-9.955,5.935,0,3.514,4.558,5.983,14.513,9.164,14.244,4.447,20.1,10.446,19.989,21.1-.111,9.781-7.454,18.486-21.54,20.575v7.233a3.783,3.783,0,0,1-3.814,3.719h-3.783a3.751,3.751,0,0,1-3.846-3.893Z" transform="translate(48.114 16.792)" fill="url(#linear-gradient-9)"/>
    <path id="Trazado_118322" data-name="Trazado 118322" d="M153.4,197.829h0a.9.9,0,0,1-.855-.934v-1.06a.87.87,0,0,1,1-.791.9.9,0,0,1,.855.934v1.06a.87.87,0,0,1-1,.791Zm.174-3.529h0a.886.886,0,0,1-.855-.918v-1.06a.9.9,0,0,1,.934-.855.886.886,0,0,1,.839.934v1.06a.886.886,0,0,1-.95.839Zm.158-3.545h0a.9.9,0,0,1-.855-.918v-1.06a.9.9,0,0,1,.918-.855.886.886,0,0,1,.855.918v1.06a.871.871,0,0,1-.918.855Zm.158-3.529h0a.871.871,0,0,1-.839-.918v-1.045h1.773v1.06a.9.9,0,0,1-.934.9Zm.127-3.561h0a.87.87,0,0,1-.855-.9V181.7a.886.886,0,0,1,.918-.855.9.9,0,0,1,.855.918v1.045a.886.886,0,0,1-.918.855Zm.127-3.529h0a.871.871,0,0,1-.855-.9v-1.06a.9.9,0,0,1,.918-.87.886.886,0,0,1,.855.918v1.045a.9.9,0,0,1-.918.87Zm.111-3.529h0a.886.886,0,0,1-.855-.918v-1.045h1.773v1.045a.886.886,0,0,1-.918.918Zm.095-3.545h0a.9.9,0,0,1-.87-.9V171.1a.886.886,0,0,1,.886-.87h0a.9.9,0,0,1,.871.9v1.06a.9.9,0,0,1-.886.87Zm0-3.545h0a.87.87,0,0,1-.87-.886v-1.06a.9.9,0,0,1,.9-.871h0a.9.9,0,0,1,.87.9v1.045a.87.87,0,0,1-.839.87Zm0-3.529h0a.886.886,0,0,1-.87-.9v-1.045h1.773v1.06a.886.886,0,0,1-.776.886Zm0-3.545h0a.886.886,0,0,1-.886-.886v-1.06a.886.886,0,0,1,.886-.886h0a.9.9,0,0,1,.886.9v1.06a.886.886,0,0,1-.712.87Zm0-3.529h0a.886.886,0,0,1-.886-.886v-1.06a.886.886,0,0,1,.886-.886h0a.886.886,0,0,1,.886.886v1.06a.886.886,0,0,1-.7.886Zm0-3.545a.886.886,0,0,1-.886-.886v-1.06a.886.886,0,0,1,.886-.886h0a.886.886,0,0,1,.886.886v1.06a.886.886,0,0,1-.886.886Zm0-3.529a.886.886,0,0,1-.886-.871v-1.076a.9.9,0,0,1,.886-.886h0a.9.9,0,0,1,.9.87v1.06a.871.871,0,0,1-.87.9Zm0-3.545a.886.886,0,0,1-.886-.871v-1.06a.886.886,0,0,1,.87-.9h0a.886.886,0,0,1,.886.871v1.06a.87.87,0,0,1-.87.9Zm0-3.529a.9.9,0,0,1-.9-.87v-1.076a.886.886,0,0,1,.855-.918.9.9,0,0,1,.918.87v1.06a.9.9,0,0,1-.87.918Zm-.111-3.545a.886.886,0,0,1-.886-.855c0-.364,0-.712,0-1.06a.886.886,0,0,1,.855-.918h0a.886.886,0,0,1,.886.855c0,.348,0,.712,0,1.06a.886.886,0,0,1-.855.918Zm-.127-3.545a.87.87,0,0,1-.886-.839v-1.06a.887.887,0,1,1,1.773-.079v1.06a.886.886,0,0,1-.855.918Zm-.158-3.529a.87.87,0,0,1-.886-.839v-1.06a.886.886,0,0,1,.839-.934.87.87,0,0,1,.934.839v1.06a.9.9,0,0,1-.839.934Zm-.206-3.545a.87.87,0,0,1-.87-.823l-.079-1.06a.888.888,0,1,1,1.773-.111v1.06a.87.87,0,0,1-.823.934Zm-.206-3.529a.9.9,0,0,1-.886-.823l-.079-1.06a.886.886,0,0,1,.823-.95.9.9,0,0,1,.95.823l.079,1.06a.886.886,0,0,1-.823.95Zm-.269-3.529a.886.886,0,0,1-.886-.823V121.67a.886.886,0,1,1,1.757-.158l.095,1.06a.918.918,0,0,1-.807.965Zm-.317-3.529a.87.87,0,0,1-.87-.807l-.111-1.045a.891.891,0,0,1,1.773-.174l.095,1.06a.886.886,0,0,1-.791.965Zm-.348-3.529a.886.886,0,0,1-.886-.791c0-.348-.079-.7-.111-1.045a.886.886,0,0,1,.791-.981.87.87,0,0,1,.965.775,7.765,7.765,0,0,0,.127,1.06.886.886,0,0,1-.791.981Zm-.4-3.514a.886.886,0,0,1-.886-.776,8.406,8.406,0,0,0-.127-1.06.886.886,0,0,1,1.757-.222c0,.364.095.712.127,1.06a.886.886,0,0,1-.776,1Zm-.459-3.514a.855.855,0,0,1-.87-.76,8.591,8.591,0,0,0-.158-1.06.886.886,0,0,1,1.757-.237,7.936,7.936,0,0,0,.158,1.045.918.918,0,0,1-.76,1.013Zm-.506-3.5a.886.886,0,0,1-.87-.76,6,6,0,0,0-.174-1.045.889.889,0,1,1,1.757-.269,7.931,7.931,0,0,0,.158,1.045.886.886,0,0,1-.744,1.013Zm-.57-3.5a.886.886,0,0,1-.87-.744l-.19-1.029a.893.893,0,0,1,1.757-.317,6,6,0,0,0,.174,1.045.87.87,0,0,1-.712,1.029Zm-.633-3.482a.9.9,0,0,1-.87-.728,4.561,4.561,0,0,0-.206-1.029.888.888,0,1,1,1.741-.348c.079.348.142.7.206,1.045a.886.886,0,0,1-.7,1.045Zm-.7-3.482a.886.886,0,0,1-.87-.7,5.977,5.977,0,0,0-.222-1.029.886.886,0,1,1,1.725-.38,6.15,6.15,0,0,0,.222,1.045.855.855,0,0,1-.681,1.045Zm-.791-3.45a.87.87,0,0,1-.855-.681c-.095-.332-.174-.681-.253-1.029a.871.871,0,0,1,.649-1.06.886.886,0,0,1,1.076.649c.079.332.158.681.253,1.029a.9.9,0,0,1-.665,1.076Zm-.87-3.434a.886.886,0,0,1-.855-.649,4.118,4.118,0,0,0-.269-1.029.886.886,0,1,1,1.709-.459l.285,1.029a.871.871,0,0,1-.633,1.076.617.617,0,0,1-.206.032Zm-.95-3.4a.9.9,0,0,1-.855-.633c-.095-.348-.19-.681-.3-1.013a.886.886,0,1,1,1.694-.522l.316,1.029a.886.886,0,0,1-.6,1.108Zm-1.06-3.387a.87.87,0,0,1-.839-.6l-.332-1a.886.886,0,1,1,1.678-.57l.332,1.013a.886.886,0,0,1-.554,1.124.871.871,0,0,1-.253.032Zm-1.171-3.339a.87.87,0,0,1-.823-.57l-.38-.981a.892.892,0,1,1,1.662-.649l.38,1.013a.9.9,0,0,1-.522,1.14,1.092,1.092,0,0,1-.285.047Zm-1.282-3.292a.886.886,0,0,1-.823-.554c-.142-.317-.269-.633-.411-.965a.886.886,0,0,1,1.583-.7c.142.332.285.665.412,1a.871.871,0,0,1-.475,1.155.823.823,0,0,1-.253.063Zm-1.44-3.245a.871.871,0,0,1-.791-.506l-.459-.95a.886.886,0,0,1,1.583-.776c.158.332.316.649.459.981a.886.886,0,0,1-.427,1.171.823.823,0,0,1-.332.079ZM140.2,68.776a.9.9,0,0,1-.791-.475c-.158-.3-.317-.617-.491-.918a.9.9,0,1,1,1.583-.855l.522.95a.882.882,0,0,1-.776,1.3Zm-1.741-3.086a.9.9,0,0,1-.744-.427l-.538-.886a.889.889,0,1,1,1.5-.95l.554.918a.886.886,0,0,1-.3,1.219.807.807,0,0,1-.427.127Zm-1.9-2.975a.934.934,0,0,1-.744-.38c-.19-.3-.4-.586-.586-.855a.89.89,0,0,1,1.44-1.045l.617.886a.886.886,0,0,1-.237,1.234.791.791,0,0,1-.443.158Zm-2.01-2.849a.886.886,0,0,1-.7-.332c-.206-.285-.427-.554-.649-.823a.886.886,0,0,1,1.361-1.124c.237.269.459.554.681.839a.886.886,0,0,1-.7,1.44Zm-2.295-2.691a.87.87,0,0,1-.649-.285l-.712-.76a.886.886,0,0,1,0-1.25.9.9,0,0,1,1.266,0l.728.791a.886.886,0,0,1-.649,1.488Zm-2.5-2.5a.9.9,0,0,1-.6-.237l-.76-.7a.886.886,0,1,1,1.155-1.329c.285.237.554.475.807.728a.886.886,0,0,1-.6,1.583ZM127.066,52.4a.855.855,0,0,1-.538-.19l-.839-.617a.89.89,0,1,1,1.045-1.44l.87.649a.9.9,0,0,1,.158,1.25.886.886,0,0,1-.744.348Zm-2.9-2.026a.839.839,0,0,1-.475-.142l-.886-.538a.911.911,0,1,1,.9-1.583c.317.174.617.364.934.57a.87.87,0,0,1,.269,1.219.886.886,0,0,1-.791.475ZM121,48.629a.9.9,0,0,1-.4-.095l-.934-.459a.886.886,0,0,1-.427-1.171.9.9,0,0,1,1.187-.427l.981.475a.9.9,0,0,1,.4,1.187.886.886,0,0,1-.776.491Zm-3.165-1.44a.807.807,0,0,1-.317,0l-.965-.364a.886.886,0,1,1,.586-1.662l1.029.38a.886.886,0,0,1-.332,1.709ZM114.5,46.065h-.253l-1-.285a.886.886,0,1,1,.443-1.709l1.045.285A.886.886,0,0,1,114.5,46.1Zm-3.434-.823h-.253l-1.013-.19a.882.882,0,1,1,.285-1.741l1.06.19a.886.886,0,0,1,.712,1.045.9.9,0,0,1-.823.7ZM95.918,44.8a.889.889,0,0,1-.095-1.773l1.06-.111a.889.889,0,1,1,.142,1.773l-1.045.095Zm11.649,0h-.095l-1.045-.095a.918.918,0,0,1-.807-.965.9.9,0,0,1,.965-.807l1.076.111a.886.886,0,0,1,.791.981.9.9,0,0,1-.918.665Zm-8.119-.206a.886.886,0,0,1-.886-.855.87.87,0,0,1,.839-.918h1.076a.886.886,0,0,1,0,1.773H99.432Zm4.59,0h-1.029a.9.9,0,0,1-.886-.9.886.886,0,0,1,.9-.87H104.1a.886.886,0,0,1,0,1.773Z" transform="translate(46.272 18.23)" fill="#fff"/>
    <path id="Trazado_118323" data-name="Trazado 118323" d="M143.24,199.608h0a.9.9,0,0,1-.871-.9v-1.045h1.773v1.029a.886.886,0,0,1-.9.918Zm0-3.545h0a.886.886,0,0,1-.886-.886v-1.013a.886.886,0,0,1,.886-.886h0a.9.9,0,0,1,.886.9v1.06a.886.886,0,0,1-.855.823Zm0-3.529h0a.9.9,0,0,1-.886-.9v-1.06a.87.87,0,0,1,.886-.87h0a.886.886,0,0,1,.886.886v1.06a.886.886,0,0,1-.823.934Zm0-3.545h0a.886.886,0,0,1-.886-.886v-1.06h1.773v1.06a.886.886,0,0,1-.791.886Zm0-3.545h0a.886.886,0,0,1-.886-.886V183.5a.87.87,0,0,1,.886-.87h0a.886.886,0,0,1,.886.886v1.045a.886.886,0,0,1-.76.886Zm0-3.529h0a.855.855,0,0,1-.87-.886v-1.108h1.773v1.045a.9.9,0,0,1-.744.95Zm0-3.529h0a.9.9,0,0,1-.886-.9v-1.06a.886.886,0,0,1,.886-.886h0a.9.9,0,0,1,.87.9v1.06a.886.886,0,0,1-.7.839Zm0-3.545h0a.886.886,0,0,1-.886-.886v-1.06h1.773v1.06a.886.886,0,0,1-.7.886Zm0-3.545h0a.855.855,0,0,1-.87-.886v-1.06a.9.9,0,0,1,.886-.886h0a.9.9,0,0,1,.886.9v1.06a.9.9,0,0,1-.7.87Zm0-3.529a.886.886,0,0,1-.886-.886v-1.06a.886.886,0,0,1,.886-.886h0a.886.886,0,0,1,.886.886v1.06a.886.886,0,0,1-.681.886Zm0-3.545a.886.886,0,0,1-.886-.886v-1.06a.886.886,0,0,1,.886-.886h0a.886.886,0,0,1,.886.886v1.06A.886.886,0,0,1,143.24,164.219Zm0-3.529a.886.886,0,0,1-.886-.886v-1.06a.9.9,0,0,1,.886-.9h0a.9.9,0,0,1,.9.886v1.06a.9.9,0,0,1-.886.9Zm0-3.545a.9.9,0,0,1-.9-.886V155.2a.886.886,0,0,1,.886-.886h0a.886.886,0,0,1,.886.871v1a.9.9,0,0,1-.886.9Zm0-3.545a.87.87,0,0,1-.886-.87v-1.06a.87.87,0,0,1,.87-.9h0a.886.886,0,0,1,.886.871v1.076a.886.886,0,0,1-.886.886Zm0-3.529a.886.886,0,0,1-.886-.886v-1.06a.886.886,0,0,1,.87-.9h0a.9.9,0,0,1,.886.886v1.06a.9.9,0,0,1-.87.9Zm0-3.545a.9.9,0,0,1-.886-.87v-1.06a.886.886,0,0,1,.87-.9.871.871,0,0,1,.9.87v1.06a.886.886,0,0,1-.87.9Zm0-3.545a.886.886,0,0,1-.886-.871v-1.06a.894.894,0,0,1,1.788-.032v1.06a.886.886,0,0,1-.87.9Zm0-3.529a.886.886,0,0,1-.886-.871v-1.06a.886.886,0,0,1,.855-.918h0a.886.886,0,0,1,.886.871v1.06a.886.886,0,0,1-.87.9Zm-.111-3.545a.886.886,0,0,1-.886-.855v-1.06a.886.886,0,0,1,1.773,0v1.06a.886.886,0,0,1-.855.918Zm-.237-3.466a.871.871,0,0,1-.87-.855v-1.06a.886.886,0,0,1,1.773,0v1.06a.886.886,0,0,1-.855.918Zm-.142-3.529a.918.918,0,0,1-.886-.855v-1.06a.886.886,0,0,1,.855-.918.87.87,0,0,1,.918.839v1.06a.886.886,0,0,1-.839.934Zm-.158-3.545a.871.871,0,0,1-.886-.839v-1.06a.9.9,0,0,1,.839-.934.871.871,0,0,1,.934.839v1.06a.886.886,0,0,1-.839.934Zm-.174-3.609a.886.886,0,0,1-.886-.839v-1.06a.871.871,0,0,1,.823-.934.9.9,0,0,1,.95.823v1.076a.9.9,0,0,1-.839.934Zm-.237-3.561a.886.886,0,0,1-.886-.839l-.079-1.045a.886.886,0,0,1,.823-.95.87.87,0,0,1,.95.823v1.06a.9.9,0,0,1-.839.95Zm-.269-3.529a.886.886,0,0,1-.87-.823l-.095-1.06a.886.886,0,0,1,.823-.95.87.87,0,0,1,.95.807c0,.348,0,.712,0,1.06a.87.87,0,0,1-.807.95Zm-.285-3.529a.886.886,0,0,1-.886-.823l-.095-1.045a.89.89,0,1,1,1.773-.158l.095,1.06a.871.871,0,0,1-.807.95Zm-.332-3.529a.9.9,0,0,1-.886-.807l-.095-1.045a.886.886,0,1,1,1.757-.19,3.459,3.459,0,0,0,.111,1.06.9.9,0,0,1-.791.981Zm-.38-3.529a.87.87,0,0,1-.871-.775,3.047,3.047,0,0,0-.127-1.06.886.886,0,0,1,.776-.981.87.87,0,0,1,.981.776,3.047,3.047,0,0,0,.127,1.06.886.886,0,0,1-.775.981Zm-.427-3.514a.855.855,0,0,1-.87-.76l-.142-1.06a.886.886,0,1,1,1.757-.237l.142,1.06a.886.886,0,0,1-.76,1Zm-.475-3.5a.886.886,0,0,1-.886-.76,5.955,5.955,0,0,0-.158-1.045.9.9,0,0,1,.744-1.013.886.886,0,0,1,1.013.744,8.594,8.594,0,0,0,.158,1.06.87.87,0,0,1-.744,1Zm-.554-3.5a.886.886,0,0,1-.87-.744l-.19-1.045a.891.891,0,0,1,1.757-.3,6.434,6.434,0,0,0,.174,1.06.871.871,0,0,1-.728,1.013Zm-.633-3.482a.9.9,0,0,1-.87-.728l-.19-1.029a.888.888,0,0,1,1.741-.348,4.88,4.88,0,0,0,.206,1.045A.918.918,0,0,1,139,90.07Zm-.7-3.482a.886.886,0,0,1-.87-.7,4.786,4.786,0,0,0-.222-1.029.886.886,0,1,1,1.725-.38q.111.491.237,1.045a.886.886,0,0,1-.681,1.045Zm-.807-3.434a.87.87,0,0,1-.855-.681,4.882,4.882,0,0,0-.253-1.029.886.886,0,0,1,1.709-.443c.095.348.174.7.269,1.045a.886.886,0,0,1-.649,1.076Zm-.9-3.434a.9.9,0,0,1-.855-.633l-.285-1.013a.886.886,0,0,1,.6-1.108.87.87,0,0,1,1.092.6c.111.348.206.681.3,1.029a.87.87,0,0,1-.6,1.092.744.744,0,0,1-.253.063Zm-1.029-3.387a.9.9,0,0,1-.839-.6l-.332-1a.886.886,0,1,1,1.678-.57c.111.332.222.665.348,1.013a.918.918,0,0,1-.57,1.124.87.87,0,0,1-.285.063Zm-1.171-3.339a.87.87,0,0,1-.823-.57l-.38-.981a.871.871,0,0,1,.506-1.14.855.855,0,0,1,1.14.491c.142.332.269.665.4,1.013a.886.886,0,0,1-.522,1.14,1.014,1.014,0,0,1-.317.079Zm-1.3-3.245a.871.871,0,0,1-.807-.522l-.427-.965a.87.87,0,0,1,.443-1.171.886.886,0,0,1,1.171.443c.142.317.285.649.443.981a.9.9,0,0,1-.459,1.171A.982.982,0,0,1,132.92,69.764ZM131.338,66.6a.886.886,0,0,1-.791-.475l-.491-.934a.9.9,0,1,1,1.583-.839l.506.965a.886.886,0,0,1-.4,1.187.9.9,0,0,1-.411.063Zm-1.725-3.165a.9.9,0,0,1-.76-.427c-.174-.3-.364-.6-.554-.886a.886.886,0,0,1,.285-1.219.87.87,0,0,1,1.219.269l.57.918a.886.886,0,0,1-.3,1.219.949.949,0,0,1-.411.174Zm-1.947-2.944a.855.855,0,0,1-.712-.38l-.617-.823a.886.886,0,1,1,1.409-1.076l.649.87a.886.886,0,0,1-.206,1.234.934.934,0,0,1-.475.222Zm-2.2-2.77a.934.934,0,0,1-.665-.3c-.222-.269-.459-.522-.7-.776a.891.891,0,1,1,1.314-1.2l.728.807a.9.9,0,0,1-.681,1.472Zm-2.453-2.548a.9.9,0,0,1-.6-.237l-.76-.681a.887.887,0,1,1,1.155-1.345l.823.728a.962.962,0,0,1-.57,1.583Zm-2.706-2.263a.807.807,0,0,1-.522-.174l-.839-.6a.87.87,0,0,1-.222-1.234.886.886,0,0,1,1.234-.222l.886.633a.886.886,0,0,1,.174,1.25.918.918,0,0,1-.665.4Zm-2.944-1.947a.791.791,0,0,1-.443-.127l-.9-.506a.9.9,0,1,1,.855-1.583l.95.538a.886.886,0,0,1-.459,1.583ZM114.2,49.379a.76.76,0,0,1-.364-.079l-.95-.4a.9.9,0,0,1-.491-1.155.886.886,0,0,1,1.155-.491l1.013.427a.886.886,0,0,1-.364,1.693Zm-3.292-1.266h-.285l-.981-.317a.87.87,0,0,1-.6-1.092.886.886,0,0,1,1.108-.6l1.029.317a.886.886,0,0,1,.57,1.124.9.9,0,0,1-.76.586Zm-3.308-.918h-.206l-1.013-.222a.888.888,0,1,1,.348-1.741l1.06.237a.886.886,0,0,1-.19,1.741Zm-3.482-.617h-.127l-1.029-.127a.892.892,0,1,1,.206-1.773l1.076.142a.87.87,0,0,1,.744,1,.9.9,0,0,1-.886.76Zm-3.514-.364H99.557a.87.87,0,0,1-.839-.918.886.886,0,0,1,.918-.855h1.076a.886.886,0,0,1,0,1.773ZM96,46.1a.886.886,0,1,1,0-1.773h1.092a.855.855,0,0,1,.87.886.886.886,0,0,1-.886.886h-1.06Z" transform="translate(46.73 18.847)" fill="#fff"/>
    <path id="Trazado_118324" data-name="Trazado 118324" d="M137.438,200.637a.886.886,0,0,1-.886-.855v-1.076a.886.886,0,0,1,.871-.9h0a.886.886,0,0,1,.886.871v1.06a.855.855,0,0,1-.855.9Zm0-3.529a.9.9,0,0,1-.886-.871v-1.06a.87.87,0,0,1,.87-.9h0a.886.886,0,0,1,.886.855v1.06a.886.886,0,0,1-.855.918Zm0-3.545a.886.886,0,0,1-.886-.871v-1.013a.871.871,0,0,1,.855-.9.9.9,0,0,1,.918.87v1.06a.87.87,0,0,1-.855.9Zm0-3.545a.886.886,0,0,1-.886-.855V188.1a.886.886,0,0,1,1.773,0v1.06a.871.871,0,0,1-.87.9Zm-.095-3.529a.886.886,0,0,1-.886-.871v-1.06a.886.886,0,0,1,.87-.9.855.855,0,0,1,.9.855v1.06a.886.886,0,0,1-.855.918Zm-.095-3.545a.886.886,0,0,1-.886-.855v-1.06a.9.9,0,0,1,.87-.918h0a.87.87,0,0,1,.886.87v1.06a.87.87,0,0,1-.855.9Zm-.095-3.529a.886.886,0,0,1-.886-.871v-1.06a.886.886,0,0,1,1.773,0v1.06a.886.886,0,0,1-.855.918Zm-.111-3.545a.886.886,0,0,1-.886-.855v-1.06a.9.9,0,0,1,.87-.918.855.855,0,0,1,.9.855v1.06a.9.9,0,0,1-.87.918Zm-.095-3.545a.886.886,0,0,1-.886-.855v-1.06a.886.886,0,0,1,1.773,0v1.076a.886.886,0,0,1-.87.9Zm-.127-3.529a.886.886,0,0,1-.886-.855v-1.06a.886.886,0,0,1,1.773,0v1.06a.886.886,0,0,1-.855.918Zm-.111-3.545a.886.886,0,0,1-.886-.855v-1.06a.886.886,0,0,1,1.773,0v1.06a.9.9,0,0,1-.855.918Zm-.142-3.529a.9.9,0,0,1-.886-.855V159.8a.886.886,0,0,1,1.773,0v1.076a.886.886,0,0,1-.839.918Zm-.127-3.545a.87.87,0,0,1-.886-.855v-1.06a.886.886,0,0,1,.855-.918.9.9,0,0,1,.918.855v1.06a.886.886,0,0,1-.855.918Zm-.158-3.529a.918.918,0,0,1-.886-.855v-1.06a.887.887,0,1,1,1.773-.079v1.06a.886.886,0,0,1-.839.934Zm-.142-3.545a.87.87,0,0,1-.886-.839V149.2a.886.886,0,0,1,.839-.934.9.9,0,0,1,.918.855v1.06a.886.886,0,0,1-.855.918Zm-.174-3.529a.9.9,0,0,1-.886-.855V145.67a.87.87,0,0,1,.839-.934.886.886,0,0,1,.934.839v1.06a.886.886,0,0,1-.839.934Zm-.174-3.545a.87.87,0,0,1-.886-.839v-1.06a.9.9,0,0,1,.839-.934.886.886,0,0,1,.934.839v1.06a.886.886,0,0,1-.839.934Zm-.19-3.529a.87.87,0,0,1-.886-.839V138.6a.888.888,0,1,1,1.773-.095v1.06a.9.9,0,0,1-.839.934Zm-.206-3.529a.886.886,0,0,1-.886-.839v-1.06a.888.888,0,0,1,1.773-.111v1.06a.9.9,0,0,1-.839.95Zm-.222-3.545a.886.886,0,0,1-.886-.823v-1.06a.87.87,0,0,1,.823-.934.9.9,0,0,1,.95.823v1.06a.886.886,0,0,1-.823.934Zm-.475-3.466a.886.886,0,0,1-.886-.823v-1.06a.9.9,0,0,1,.823-.95.886.886,0,0,1,.95.823V129a.886.886,0,0,1-.823.95Zm-.253-3.529a.886.886,0,0,1-.886-.823v-1.045a.889.889,0,0,1,1.773-.142v1.06a.886.886,0,0,1-.823.95Zm-.285-3.529a.871.871,0,0,1-.871-.807l-.095-1.06a.886.886,0,0,1,.807-.965.918.918,0,0,1,.965.823l.079,1.06a.87.87,0,0,1-.807.95Zm-.3-3.529a.87.87,0,0,1-.871-.807l-.095-1.045a.886.886,0,0,1,1.757-.174l.095,1.06a.886.886,0,0,1-.807.965Zm-.317-3.514a.886.886,0,0,1-.886-.807l-.095-1.06a.886.886,0,1,1,1.757-.174l.111,1.06a.886.886,0,0,1-.807.965Zm-.348-3.529a.886.886,0,0,1-.886-.791,3.46,3.46,0,0,0-.111-1.06.886.886,0,0,1,.791-.965.87.87,0,0,1,.965.776,7.761,7.761,0,0,0,.127,1.06.9.9,0,0,1-.791.981Zm-.4-3.514a.87.87,0,0,1-.87-.791,7.838,7.838,0,0,0-.127-1.045.893.893,0,1,1,1.773-.222,3.408,3.408,0,0,0,.111,1.06.87.87,0,0,1-.776.981Zm-.411-3.514a.9.9,0,0,1-.886-.776,3,3,0,0,0-.127-1.06.886.886,0,1,1,1.757-.222l.142,1.06a.886.886,0,0,1-.775.981Zm-.522-3.577a.886.886,0,0,1-.886-.76l-.142-1.06a.886.886,0,0,1,1.757-.237l.142,1.045a.87.87,0,0,1-.744,1Zm-.443-3.419a.886.886,0,0,1-.87-.76,6,6,0,0,0-.174-1.045.9.9,0,0,1,.744-1.013.886.886,0,0,1,1.013.744,7.931,7.931,0,0,0,.158,1.045.886.886,0,0,1-.744,1.013Zm-.554-3.5a.886.886,0,0,1-.87-.744l-.19-1.045a.891.891,0,0,1,1.757-.3,6,6,0,0,0,.174,1.045.886.886,0,0,1-.728,1.029Zm-.617-3.482a.886.886,0,0,1-.87-.728,6.094,6.094,0,0,0-.206-1.045.886.886,0,1,1,1.741-.332,6.086,6.086,0,0,0,.206,1.045.886.886,0,0,1-.712,1.045Zm-.7-3.482a.87.87,0,0,1-.855-.7,6.148,6.148,0,0,0-.222-1.045.871.871,0,0,1,.681-1.045.855.855,0,0,1,1.124.586,6.148,6.148,0,0,0,.222,1.045.87.87,0,0,1-.681,1.045Zm-.76-3.45a.886.886,0,0,1-.855-.681,3.916,3.916,0,0,0-.253-1.029.889.889,0,0,1,1.725-.427,5.02,5.02,0,0,0,.253,1.045.886.886,0,0,1-.665,1.06Zm-.855-3.5a.886.886,0,0,1-.855-.665c-.095-.332-.174-.681-.269-1.013a.887.887,0,0,1,1.709-.475c.095.348.19.7.269,1.045a.87.87,0,0,1-.617,1.076Zm-.95-3.4a.886.886,0,0,1-.855-.633c-.111-.332-.206-.681-.317-1.013a.886.886,0,1,1,1.694-.522c.111.332.221.681.316,1.029a.886.886,0,0,1-.586,1.092ZM125.9,74.117a.886.886,0,0,1-.839-.586c-.111-.348-.237-.665-.348-1a.886.886,0,0,1,.522-1.14.9.9,0,0,1,1.14.538c.127.332.237.665.364,1.013a.886.886,0,0,1-.839,1.171Zm-1.234-3.308a.855.855,0,0,1-.823-.554c-.142-.332-.269-.649-.412-.965a.886.886,0,1,1,1.583-.7c.127.332.269.665.411,1a.9.9,0,0,1-.491,1.155.823.823,0,0,1-.269.047Zm-1.409-3.165a.87.87,0,0,1-.807-.506c-.158-.317-.3-.633-.459-.934a.9.9,0,0,1,.4-1.2.886.886,0,0,1,1.187.411l.475.965a.9.9,0,0,1-.427,1.187.934.934,0,0,1-.364-.016Zm-1.583-3.165a.934.934,0,0,1-.776-.459c-.158-.3-.332-.6-.506-.9a.884.884,0,1,1,1.519-.9c.19.3.364.617.538.934a.886.886,0,0,1-.332,1.2.9.9,0,0,1-.491.063Zm-1.852-3.007a.886.886,0,0,1-.728-.4l-.6-.855a.886.886,0,0,1,1.44-1.029l.617.886a.886.886,0,0,1-.222,1.234.871.871,0,0,1-.554.095Zm-2.2-2.9a.839.839,0,0,1-.681-.317c-.222-.253-.443-.522-.681-.776a.9.9,0,0,1,0-1.25.886.886,0,0,1,1.25,0l.712.823a.886.886,0,0,1-.111,1.25A.871.871,0,0,1,117.622,58.575Zm-2.406-2.564a.855.855,0,0,1-.617-.253l-.76-.7a.884.884,0,0,1,1.25-1.25c.285.237.538.475.807.728a.886.886,0,0,1-.6,1.583Zm-2.706-2.279a.807.807,0,0,1-.522-.174l-.839-.586a.889.889,0,1,1,1-1.472l.886.633a.886.886,0,0,1,.19,1.25.87.87,0,0,1-.681.348Zm-2.96-1.9a.839.839,0,0,1-.427-.127l-.918-.475a.892.892,0,0,1,.823-1.583l.95.522a.886.886,0,0,1,.348,1.2.918.918,0,0,1-.744.459Zm-3.165-1.583a.854.854,0,0,1-.332-.079l-.965-.364a.886.886,0,0,1,.633-1.583l1.013.4a.886.886,0,0,1-.348,1.709Zm-3.324-1.171h-.253L101.8,48.81a.87.87,0,0,1-.633-1.076.886.886,0,0,1,1.076-.633l1.06.285a.918.918,0,0,1,.6,1.108.9.9,0,0,1-.823.633Zm-3.434-.823h-.174a7.6,7.6,0,0,1-1.013-.19.891.891,0,0,1,.3-1.757l1.06.19a.9.9,0,0,1-.174,1.773Zm-3.5-.554h-.095l-1.029-.047a.891.891,0,1,1,.174-1.773l1.076.111a.888.888,0,0,1-.111,1.773Z" transform="translate(46.464 19.516)" fill="#fff"/>
    <path id="Trazado_118325" data-name="Trazado 118325" d="M124.632,203.172h0a.871.871,0,0,1-.87-.886v-.554a.886.886,0,0,1,.886-.886h0a.9.9,0,0,1,.886.9v.538a.886.886,0,0,1-.9.886Zm0-3.023h0a.855.855,0,0,1-.87-.886V198.2H125.6v1.06a.9.9,0,0,1-.95.95Zm0-3.545h0a.886.886,0,0,1-.886-.886v-1.06a.886.886,0,0,1,.886-.886h0a.886.886,0,0,1,.886.886v1.06a.9.9,0,0,1-.87.95Zm0-3.529h0a.9.9,0,0,1-.886-.886v-1.076a.886.886,0,0,1,.886-.87h0a.886.886,0,0,1,.886.886v1.06a.886.886,0,0,1-.855.95Zm0-3.545h0a.886.886,0,0,1-.886-.886v-1.06a.886.886,0,0,1,.886-.886h0a.886.886,0,0,1,.886.886v1.06a.886.886,0,0,1-.839.95Zm0-3.545h0a.886.886,0,0,1-.886-.886v-.918a.886.886,0,0,1,.886-.886h0a.9.9,0,0,1,.886.886v1.076a.886.886,0,0,1-.823.791Zm0-3.529h0a.886.886,0,0,1-.886-.886v-1.06a.886.886,0,0,1,.886-.886h0a.886.886,0,0,1,.886.886v1.06a.886.886,0,0,1-.823,1.029Zm0-3.545a.886.886,0,0,1-.886-.886v-1.06a.886.886,0,0,1,1.773,0v1.06a.886.886,0,0,1-.823.95Zm0-3.529a.886.886,0,0,1-.886-.886v-1.06a.9.9,0,0,1,.886-.9h0a.886.886,0,0,1,.886.886v1.076A.886.886,0,0,1,124.632,175.38Zm0-3.545a.886.886,0,0,1-.886-.886v-1.013a.855.855,0,0,1,.87-.886h0a.9.9,0,0,1,.886.886V171a.886.886,0,0,1-.886.886Zm0-3.545a.886.886,0,0,1-.886-.886v-1.06a.886.886,0,0,1,.871-.886h0a.886.886,0,0,1,.886.886v1.06a.886.886,0,0,1-.886.886Zm0-3.545a.871.871,0,0,1-.886-.87v-1.06a.9.9,0,0,1,.886-.9h0a.9.9,0,0,1,.886.886v1.06a.886.886,0,0,1-.886.886Zm0-3.529a.9.9,0,0,1-.886-.886v-1.06a.855.855,0,0,1,.87-.886h0a.87.87,0,0,1,.886.87v1.187a.87.87,0,0,1-.87.9Zm0-3.545a.9.9,0,0,1-.886-.87v-1.06a.87.87,0,0,1,.87-.9h0a.9.9,0,0,1,.886.87v1.06a.871.871,0,0,1-.87.9Zm0-3.545a.87.87,0,0,1-.886-.87v-1.06a.886.886,0,0,1,.87-.9.9.9,0,0,1,.9.87v1.076a.9.9,0,0,1-.886.886Zm0-3.529a.9.9,0,0,1-.886-.87v-1.076a.886.886,0,1,1,1.773,0v1.06a.886.886,0,0,1-.87.9Zm0-3.545a.886.886,0,0,1-.886-.871v-1.06a.87.87,0,0,1,.87-.9.9.9,0,0,1,.9.871V146.2a.886.886,0,0,1-.87.9Zm0-3.545a.871.871,0,0,1-.886-.855v-1.06a.9.9,0,0,1,.87-.918h0a.886.886,0,0,1,.886.871v1.06A.886.886,0,0,1,124.632,143.5Zm-.095-3.529a.886.886,0,0,1-.886-.871v-1.06a.886.886,0,0,1,.855-.918.9.9,0,0,1,.918.87v1.06a.9.9,0,0,1-.87.918Zm-.111-3.545a.886.886,0,0,1-.886-.855v-1.06a.886.886,0,0,1,.855-.918.9.9,0,0,1,.918.855v1.06a.886.886,0,0,1-.855.918Zm-.111-3.545a.871.871,0,0,1-.886-.855v-1.06a.9.9,0,0,1,.855-.918.886.886,0,0,1,.918.855v1.06a.886.886,0,0,1-.855.918Zm-.142-3.529a.886.886,0,0,1-.886-.855v-1.06a.887.887,0,1,1,1.773-.079v1.06a.9.9,0,0,1-.855.934ZM124,125.811a.9.9,0,0,1-.886-.839v-1.06a.886.886,0,0,1,.839-.934.9.9,0,0,1,.934.839v1.076a.871.871,0,0,1-.839.918Zm-.174-3.529a.87.87,0,0,1-.886-.839v-1.06a.888.888,0,1,1,1.773-.095v1.06a.87.87,0,0,1-.823.934Zm-.222-3.529a.9.9,0,0,1-.886-.839v-1.06a.87.87,0,0,1,.823-.934.886.886,0,0,1,.95.823c0,.348,0,.712,0,1.06a.87.87,0,0,1-.823.934Zm-.237-3.545a.886.886,0,0,1-.886-.823,4.65,4.65,0,0,0-.079-1.045.889.889,0,0,1,1.773-.142v1.06a.886.886,0,0,1-.823.95Zm-.285-3.529a.871.871,0,0,1-.87-.807l-.095-1.06a.87.87,0,0,1,.807-.95.886.886,0,0,1,.965.807v1.06a.87.87,0,0,1-.807.95Zm-.554-3.466a.886.886,0,0,1-.886-.807l-.095-1.06a.886.886,0,1,1,1.757-.174l.111,1.06a.886.886,0,0,1-.807.965Zm-.348-3.529a.886.886,0,0,1-.886-.791,3.409,3.409,0,0,0-.111-1.06.9.9,0,0,1,.791-.981.87.87,0,0,1,.965.791,8.073,8.073,0,0,0,.127,1.06.9.9,0,0,1-.791.981Zm-.4-3.514a.9.9,0,0,1-.886-.791,2.959,2.959,0,0,0-.127-1.045.886.886,0,1,1,1.757-.222c0,.348.095.7.127,1.06a.87.87,0,0,1-.776.981Zm-.443-3.514a.9.9,0,0,1-.886-.776l-.142-1.045a.887.887,0,1,1,1.757-.253l.142,1.06a.886.886,0,0,1-.76,1Zm-.491-3.5a.9.9,0,0,1-.886-.744,5.958,5.958,0,0,0-.158-1.045.89.89,0,1,1,1.757-.285,8.592,8.592,0,0,0,.158,1.06.886.886,0,0,1-.744,1.013Zm-.57-3.5a.87.87,0,0,1-.87-.728l-.19-1.045a.886.886,0,1,1,1.741-.317l.19,1.06a.9.9,0,0,1-.728,1.029Zm-.649-3.482a.886.886,0,0,1-.87-.712,5.92,5.92,0,0,0-.206-1.029.889.889,0,0,1,1.741-.364,6.583,6.583,0,0,0,.206,1.06.886.886,0,0,1-.7,1.029Zm-.728-3.45a.9.9,0,0,1-.87-.7L117.8,82a.886.886,0,0,1,.665-1.06.871.871,0,0,1,1.06.649c.095.348.174.7.253,1.045a.9.9,0,0,1-.681,1.06Zm-.839-3.45a.9.9,0,0,1-.855-.665,3.838,3.838,0,0,0-.269-1.013.893.893,0,1,1,1.725-.459,4.3,4.3,0,0,0,.269,1.029.886.886,0,0,1-.633,1.076.617.617,0,0,1-.253.032Zm-.934-3.4a.9.9,0,0,1-.855-.649c-.095-.332-.19-.665-.3-1a.886.886,0,1,1,1.694-.522c.111.332.206.681.316,1.029a.87.87,0,0,1-.6,1.092.712.712,0,0,1-.269.048ZM116.1,73.487a.886.886,0,0,1-.839-.586c-.111-.348-.222-.665-.348-1a.891.891,0,0,1,1.678-.6l.348,1.013a.87.87,0,0,1-.554,1.124A.9.9,0,0,1,116.1,73.487Zm-1.282-3.26a.918.918,0,0,1-.839-.554c-.127-.332-.253-.665-.4-.981a.886.886,0,0,1,1.583-.681c.127.332.269.665.412,1a.9.9,0,0,1-.506,1.155A1.125,1.125,0,0,1,114.82,70.227ZM113.4,67.061a.871.871,0,0,1-.791-.506l-.459-.95a.9.9,0,0,1,.4-1.187.886.886,0,0,1,1.187.4l.475.981a.886.886,0,0,1-.427,1.171.791.791,0,0,1-.38-.032ZM111.813,63.9a.9.9,0,0,1-.776-.443l-.522-.9a.886.886,0,0,1,.317-1.219.9.9,0,0,1,1.219.3c.174.317.364.617.538.95a.9.9,0,0,1-.332,1.2.918.918,0,0,1-.475,0Zm-1.9-3.165a.871.871,0,0,1-.728-.38l-.6-.855a.89.89,0,0,1,1.44-1.045l.633.9a.886.886,0,0,1-.237,1.219.87.87,0,0,1-.506.158Zm-2.137-2.8a.9.9,0,0,1-.681-.317c-.222-.269-.443-.522-.681-.776a.886.886,0,0,1,1.314-1.187c.253.253.491.538.728.807a.886.886,0,0,1-.111,1.25.855.855,0,0,1-.57.269Zm-2.437-2.548a.855.855,0,0,1-.6-.237l-.776-.681a.9.9,0,0,1-.095-1.25.886.886,0,0,1,1.25-.111l.823.728a.918.918,0,0,1,0,1.266.87.87,0,0,1-.6.332Zm-2.754-2.216a.87.87,0,0,1-.506-.158q-.427-.3-.855-.57a.889.889,0,1,1,.95-1.5l.918.617a.87.87,0,0,1,.222,1.234.9.9,0,0,1-.728.427Zm-3.023-1.8a.854.854,0,0,1-.4-.095l-.918-.443a.886.886,0,1,1,.712-1.583q.491.222,1,.475a.871.871,0,0,1,.4,1.187.886.886,0,0,1-.791.506ZM96.3,50.016a.9.9,0,0,1-.285,0l-.965-.364a.886.886,0,1,1,.475-1.583l1.045.332a.849.849,0,0,1-.269,1.662Z" transform="translate(46.825 20.325)" fill="#fff"/>
    <rect id="Rectángulo_6957" data-name="Rectángulo 6957" width="102.621" height="12.567" rx="3.41" transform="translate(118.835 209.058)" fill="url(#linear-gradient-10)"/>
    <path id="Trazado_118326" data-name="Trazado 118326" d="M65.563,36.81S64.534,63.716,45.7,72.357l8.388,5.9S71.023,59.094,68.459,41.954Z" transform="translate(23.312 18.26)" fill="url(#linear-gradient-11)"/>
    <path id="Trazado_118327" data-name="Trazado 118327" d="M2.5,0H24.12A2.485,2.485,0,0,1,26.6,2.485V2.9H0V2.485A2.485,2.485,0,0,1,2.485,0Z" transform="translate(116.427 26.135) rotate(57.75)" fill="url(#linear-gradient-12)"/>
    <path id="Trazado_118328" data-name="Trazado 118328" d="M83.852,38.89,109.7,49.415l-1,3.355L64.29,55.936Z" transform="translate(31.954 19.58)" fill="url(#linear-gradient-13)"/>
    <path id="Trazado_118329" data-name="Trazado 118329" d="M54.81,34.081V33.97L51.645,28.3a7.565,7.565,0,0,1,3.339-10.129l11.079-6.22a7.581,7.581,0,0,1,10.351,2.453l3.165,5.666a2.5,2.5,0,1,1-4.368,2.437l-3.165-5.65a2.643,2.643,0,0,0-3.545-.538l-11.079,6.2A2.643,2.643,0,0,0,56,25.866l3.165,5.666a2.5,2.5,0,0,1-4.289,2.548Z" transform="translate(25.74 6.751)" fill="url(#linear-gradient-14)"/>
    <path id="Trazado_118330" data-name="Trazado 118330" d="M107.745,43.968,90.13,16.033A3.64,3.64,0,0,0,85.287,14.8L55.311,31.4l-.174.111-3.909,2.469A3.624,3.624,0,0,0,50.088,39L69.777,70.209a3.624,3.624,0,0,0,5.017,1.14l3.973-2.469.174-.111,27.839-19.91a3.624,3.624,0,0,0,.965-4.891Z" transform="translate(24.555 8.781)" fill="url(#linear-gradient-15)"/>
    <path id="Trazado_118331" data-name="Trazado 118331" d="M99.141,57.935,100.724,42.2a.475.475,0,0,0-.411-.506l-1.029-.111a.617.617,0,0,0-.285,0l-6.22,5.919-.459,3.7,5.033,6.869a.38.38,0,0,0,.253.111l1.029.111a.459.459,0,0,0,.506-.364Z" transform="translate(46.613 20.905)" fill="url(#linear-gradient-16)"/>
    <path id="Trazado_118332" data-name="Trazado 118332" d="M61,48.947a.554.554,0,0,1-.459-.237L52.531,36.048a2.865,2.865,0,0,1,1.013-4.068l21.43-11.965a.538.538,0,0,1,.522.934L54.066,32.9a1.808,1.808,0,0,0-.633,2.532l8.008,12.661a.538.538,0,0,1-.158.728.491.491,0,0,1-.285.127Z" transform="translate(26.429 12.063)" fill="#bdd0fb"/>
    <path id="Trazado_118333" data-name="Trazado 118333" d="M57.6,96.4s-11.079,23.994-16.776,33.933c0,0-1.155,6.252,0,8.214l.965.443-4.558-.142a81.857,81.857,0,0,1,0-8.879,1.155,1.155,0,0,1,.95-.443s1.947-15.494,7.613-18.8L51.289,91.73Z" transform="translate(19.124 44.706)" fill="url(#linear-gradient-17)"/>
    <path id="Trazado_118334" data-name="Trazado 118334" d="M44.41,126.252c0,.111-3.561,0-5.508,0a1.583,1.583,0,0,1-1.472-1.219l-1.424-7.66a1.409,1.409,0,0,1,1.045-1.583l.823-.19a4.4,4.4,0,0,1,.807,3.165c-.38,1.583-.7,5.4.222,5.856a13.421,13.421,0,0,0,3.593.538S44.347,125.254,44.41,126.252Z" transform="translate(18.701 57.612)" fill="url(#linear-gradient-18)"/>
    <path id="Trazado_118335" data-name="Trazado 118335" d="M45.976,114.421,51.943,81.39l11.079,6.885s-7.454,20.686-11.538,28.9-9.639,17.41-9.639,17.41-1.82.459-4.115-2.295C37.73,132.321,39.107,119.928,45.976,114.421Z" transform="translate(19.37 39.528)" fill="url(#linear-gradient-19)"/>
    <path id="Trazado_118336" data-name="Trazado 118336" d="M60.911,123.9a.4.4,0,0,1-.206.744c-3.245,0-10.509-.127-11.158-.4s.3-3.339,1.583-4.368l6.616,2.168Z" transform="translate(25.267 59.931)" fill="url(#linear-gradient-20)"/>
    <path id="Trazado_118337" data-name="Trazado 118337" d="M62.393,93.72s-7.122,34.408-9.132,41.15l4.748,2.991s-2.39-.411-4.147-.538a6.062,6.062,0,0,1-3.4-2.168l.57-.9s1.788-34.218,1.345-38.111Z" transform="translate(25.82 45.774)" fill="url(#linear-gradient-21)"/>
    <path id="Trazado_118338" data-name="Trazado 118338" d="M66.322,59.262c-2.738.76-11.965,3.165-17.742,3.165L52.125,82.4l-.285,3.26H63.394A89.437,89.437,0,0,1,69.2,74.345c.744-1.092.19-2.374-.237-3.624l.586-.38a1.583,1.583,0,0,0,.617-1.978l-2.8-8.547A.855.855,0,0,0,66.322,59.262Z" transform="translate(24.746 29.435)" fill="url(#linear-gradient-22)"/>
    <path id="Trazado_118339" data-name="Trazado 118339" d="M65.4,74.91,65.224,76.4a1.947,1.947,0,0,0,.111.9,36.56,36.56,0,0,1,1.108,16.349,24.2,24.2,0,0,1-13.738.617A8.2,8.2,0,0,1,46.8,85.2a15.732,15.732,0,0,1,.554-2.437A11.87,11.87,0,0,1,52.372,77a1.219,1.219,0,0,0,.586-1l.079-1.472S62.343,76.192,65.4,74.91Z" transform="translate(23.852 37.073)" fill="url(#linear-gradient-23)"/>
    <path id="Trazado_118340" data-name="Trazado 118340" d="M58.356,62.981,55.935,55.59l-3.5.317L51.06,64.247S56.568,65.355,58.356,62.981Z" transform="translate(26.185 27.945)" fill="url(#linear-gradient-24)"/>
    <path id="Trazado_118341" data-name="Trazado 118341" d="M55.1,48.4c.222.142,7.5,3.165,5.935,10.7a1.456,1.456,0,0,1-.807,1.013,12.25,12.25,0,0,1-6.109,1c-3.8-.38-6.331-7.027-6.188-8.958S52.791,46.961,55.1,48.4Z" transform="translate(24.547 24.149)" fill="url(#linear-gradient-25)"/>
    <path id="Trazado_118342" data-name="Trazado 118342" d="M60.192,70.421a1.583,1.583,0,0,1,1.329-2.089A16.966,16.966,0,0,0,72.79,63.425c2.564-2.564,3.165-11.854,3.165-11.854s.538-4.321,1.583-4.321,0,2.706,0,2.706a4.843,4.843,0,0,0,5.381-.538c2.706-2.168-.538,3.165-3.165,4.3,0,0,1.029,21.224-16.682,21.556a1.583,1.583,0,0,1-1.488-.981Z" transform="translate(30.372 23.539)" fill="url(#linear-gradient-26)"/>
    <path id="Trazado_118343" data-name="Trazado 118343" d="M64.909,64.567a9.955,9.955,0,0,0-.823-4,3.941,3.941,0,0,1,.491-4.131A6.331,6.331,0,0,0,65.859,50.1c-1.361-3.276-5.713-4.59-9.734-2.912a8.182,8.182,0,0,0-5.144,5.967,5.46,5.46,0,0,1-2.089,3.514,9.987,9.987,0,0,0-3.434,4.891,5.555,5.555,0,0,1-2.5,3.165,15.146,15.146,0,0,0-6.331,7.027,15.368,15.368,0,1,0,27.855-.4,3.878,3.878,0,0,1-.19-3.165,9.971,9.971,0,0,0,.617-3.624Z" transform="translate(18.102 22.848)" fill="url(#linear-gradient-27)"/>
    <path id="Trazado_118344" data-name="Trazado 118344" d="M50.222,136.978c-.617-.19,2.295-46.357,2.295-46.357L50.681,86l13.769.918s-5.508,41.815-8.721,50.519a12.788,12.788,0,0,1-5.508-.459Z" transform="translate(25.624 41.799)" fill="url(#linear-gradient-28)"/>
    <path id="Trazado_118345" data-name="Trazado 118345" d="M60.016,59.73l-2.532.6S59.13,77.567,54.54,83.9l2.754.459S62.121,74.544,60.016,59.73Z" transform="translate(27.93 29.714)" fill="url(#linear-gradient-29)"/>
    <path id="Trazado_118346" data-name="Trazado 118346" d="M147.064,210.594s-24.69-3.8-25.893-19.8c-.965-12.851,6.489,1.393,16.444,11.079a.855.855,0,0,0,1.234-1.171c-7.027-8.072-16.919-20.955-13.849-26.352,4.621-8.151,4.637-3.165,10.762,8.214s10.161,11.775,7.154,3.64-14.07-16.9-12.377-21.778,7.518-10.762,9.734-13.722,16.159,8.61,14.925,15.036-7.676,15.257-6.157,20.923,5.745-4.3,7.613-9.955,3.957-8.784,7.09-2.026-2.216,14.972-7.391,19.325-6.885,8.594-4.178,6.663,10.541-8.562,11.807-12.218S171.39,200.892,147.064,210.594Z" transform="translate(59.461 70.962)" fill="#91b3fa"/>
    <path id="Trazado_118347" data-name="Trazado 118347" d="M138.131,204.231a.221.221,0,0,1-.095-.206c2.564-18.992-3.165-44.157-3.165-44.41a.222.222,0,0,1,.174-.253.237.237,0,0,1,.269.158c0,.253,5.745,25.529,3.165,44.569a.222.222,0,0,1-.253.174Z" transform="translate(67.851 76.281)" fill="#fff" opacity="0.53"/>
    <path id="Trazado_118348" data-name="Trazado 118348" d="M142.3,207.911s-18.058-17.6-9.67-31.464c6.742-11.079,4.511,4.938,7.027,18.755a.87.87,0,0,0,1.709-.237c-1.045-10.778-1.583-27.175,4.068-29.818,8.594-3.988,5.714,0,4.02,13.089s1.456,15.637,3.767,7.185-1.583-22.158,2.6-25.165,12.5-4.447,16.064-5.587,8.246,16.571,3.45,21.129-15.273,8.056-17.41,13.6,7.265-.158,12.108-3.719,8.4-4.906,7.011,2.5-10.6,11.079-17.41,11.554-10.683,3.023-7.328,3.023,13.69-.839,16.871-3.165S168.017,214.226,142.3,207.911Z" transform="translate(63.854 73.519)" fill="#bdd0fb"/>
    <path id="Trazado_118349" data-name="Trazado 118349" d="M137.849,201.688a.317.317,0,0,1,0-.237c13.247-14.086,23.36-38.143,23.455-38.38a.223.223,0,1,1,.411.174c-.095.237-10.24,24.373-23.535,38.523a.222.222,0,0,1-.317,0,.158.158,0,0,1-.016-.079Z" transform="translate(68.522 78.365)" fill="#fff" opacity="0.53"/>
  </g>
</svg>
