<svg xmlns="http://www.w3.org/2000/svg" xmlns:xlink="http://www.w3.org/1999/xlink" width="267.838" height="261.396" viewBox="0 0 267.838 261.396">
  <defs>
    <linearGradient id="linear-gradient" x1="0.531" y1="0.127" x2="0.328" y2="1.541" gradientUnits="objectBoundingBox">
      <stop offset="0" stop-color="#09005d"/>
      <stop offset="1" stop-color="#1a0f91"/>
    </linearGradient>
    <linearGradient id="linear-gradient-2" x1="0.639" y1="-14.086" x2="0.128" y2="39.148" gradientUnits="objectBoundingBox">
      <stop offset="0" stop-color="#53d8ff"/>
      <stop offset="1" stop-color="#3840f7"/>
    </linearGradient>
    <linearGradient id="linear-gradient-3" x1="0.598" y1="-8.029" x2="0.176" y2="28.044" xlink:href="#linear-gradient-2"/>
    <linearGradient id="linear-gradient-4" x1="0.583" y1="-6.836" x2="0.168" y2="29.099" xlink:href="#linear-gradient-2"/>
    <linearGradient id="linear-gradient-5" x1="0.575" y1="-5.731" x2="0.136" y2="30.684" xlink:href="#linear-gradient-2"/>
    <linearGradient id="linear-gradient-6" x1="0.568" y1="-0.01" x2="0.364" y2="1.079" gradientUnits="objectBoundingBox">
      <stop offset="0" stop-color="#fed2a8"/>
      <stop offset="1" stop-color="#fd8f25"/>
    </linearGradient>
    <linearGradient id="linear-gradient-7" x1="157.993" y1="3.214" x2="155.154" y2="9.599" xlink:href="#linear-gradient"/>
    <linearGradient id="linear-gradient-8" x1="627.566" y1="7.484" x2="628.573" y2="7.484" gradientUnits="objectBoundingBox">
      <stop offset="0" stop-color="#febbba"/>
      <stop offset="1" stop-color="#ff928e"/>
    </linearGradient>
    <linearGradient id="linear-gradient-9" x1="198.262" y1="0.498" x2="195.246" y2="1.354" xlink:href="#linear-gradient"/>
    <linearGradient id="linear-gradient-10" x1="391.651" y1="2.182" x2="384.629" y2="9.746" xlink:href="#linear-gradient"/>
    <linearGradient id="linear-gradient-11" x1="730.797" y1="5.861" x2="731.81" y2="5.861" xlink:href="#linear-gradient-8"/>
    <linearGradient id="linear-gradient-12" x1="132.736" y1="0.424" x2="130.718" y2="1.266" xlink:href="#linear-gradient"/>
    <linearGradient id="linear-gradient-13" x1="210.901" y1="-5.589" x2="209.999" y2="-4.214" gradientUnits="objectBoundingBox">
      <stop offset="0" stop-color="#f9aac2"/>
      <stop offset="1" stop-color="#f25585"/>
    </linearGradient>
    <linearGradient id="linear-gradient-14" x1="121.228" y1="1.675" x2="122.222" y2="1.675" xlink:href="#linear-gradient-8"/>
    <linearGradient id="linear-gradient-15" x1="1004.031" y1="3.974" x2="1006.015" y2="6.657" xlink:href="#linear-gradient-8"/>
    <linearGradient id="linear-gradient-16" x1="877.377" y1="6.358" x2="879.391" y2="4.579" xlink:href="#linear-gradient-8"/>
    <linearGradient id="linear-gradient-17" x1="531.363" y1="-14.075" x2="529.098" y2="-10.574" xlink:href="#linear-gradient-13"/>
    <linearGradient id="linear-gradient-18" x1="96.499" y1="2.645" x2="97.501" y2="2.645" xlink:href="#linear-gradient-8"/>
    <linearGradient id="linear-gradient-19" x1="241.488" y1="3.07" x2="242.479" y2="3.07" xlink:href="#linear-gradient-8"/>
    <linearGradient id="linear-gradient-20" x1="-234.699" y1="-194.75" x2="-235.023" y2="-195.815" xlink:href="#linear-gradient-8"/>
    <linearGradient id="linear-gradient-21" x1="-176.958" y1="-150.053" x2="-176.753" y2="-148.874" xlink:href="#linear-gradient"/>
    <linearGradient id="linear-gradient-22" x1="-764.267" y1="-939.497" x2="-765.214" y2="-944.109" xlink:href="#linear-gradient-8"/>
    <linearGradient id="linear-gradient-23" x1="83.701" y1="-0.063" x2="84.215" y2="2.429" xlink:href="#linear-gradient"/>
    <linearGradient id="linear-gradient-24" x1="286.3" y1="0.499" x2="287.299" y2="0.499" xlink:href="#linear-gradient-8"/>
    <linearGradient id="linear-gradient-25" x1="0.388" y1="-10.038" x2="0.495" y2="0.398" gradientUnits="objectBoundingBox">
      <stop offset="0" stop-color="#6c58b8"/>
      <stop offset="1" stop-color="#472ea6"/>
    </linearGradient>
    <linearGradient id="linear-gradient-26" x1="-0.005" y1="0.501" x2="0.995" y2="0.501" xlink:href="#linear-gradient-8"/>
    <linearGradient id="linear-gradient-27" x1="0.383" y1="-3.578" x2="0.505" y2="0.524" xlink:href="#linear-gradient-25"/>
    <linearGradient id="linear-gradient-28" x1="0" y1="0.5" x2="1" y2="0.5" xlink:href="#linear-gradient-8"/>
    <linearGradient id="linear-gradient-29" x1="0.366" y1="0.85" x2="0.6" y2="0.282" xlink:href="#linear-gradient-8"/>
    <linearGradient id="linear-gradient-30" x1="1.924" y1="-2.115" x2="0.335" y2="1.087" xlink:href="#linear-gradient-25"/>
    <linearGradient id="linear-gradient-31" x1="0.767" y1="0.214" x2="11.465" y2="-10.911" xlink:href="#linear-gradient"/>
    <linearGradient id="linear-gradient-32" x1="0" y1="0.5" x2="1" y2="0.5" xlink:href="#linear-gradient-8"/>
    <linearGradient id="linear-gradient-33" x1="41.158" y1="-11.924" x2="40.119" y2="-11.173" xlink:href="#linear-gradient-8"/>
    <linearGradient id="linear-gradient-34" x1="33.311" y1="-9.447" x2="34.08" y2="-8.553" xlink:href="#linear-gradient"/>
    <linearGradient id="linear-gradient-35" x1="168.884" y1="-43.875" x2="164.603" y2="-41.251" xlink:href="#linear-gradient-8"/>
    <linearGradient id="linear-gradient-36" x1="151.478" y1="-1387.597" x2="150.247" y2="-1373.258" xlink:href="#linear-gradient"/>
    <linearGradient id="linear-gradient-37" x1="-227.829" y1="-202.933" x2="-230.455" y2="-201.634" xlink:href="#linear-gradient"/>
    <linearGradient id="linear-gradient-38" x1="-1.05" y1="2.832" x2="0.735" y2="-0.03" xlink:href="#linear-gradient-8"/>
    <linearGradient id="linear-gradient-39" x1="0.47" y1="0.998" x2="0.639" y2="-1.152" xlink:href="#linear-gradient-8"/>
    <linearGradient id="linear-gradient-40" x1="-0.001" y1="0.5" x2="1" y2="0.5" xlink:href="#linear-gradient"/>
    <linearGradient id="linear-gradient-41" x1="0.619" y1="-0.242" x2="0.442" y2="0.664" xlink:href="#linear-gradient"/>
    <linearGradient id="linear-gradient-42" x1="-0.289" y1="2.507" x2="0.449" y2="0.733" gradientUnits="objectBoundingBox">
      <stop offset="0" stop-color="#ef2a66"/>
      <stop offset="1" stop-color="#b3204d"/>
    </linearGradient>
    <linearGradient id="linear-gradient-43" x1="0.752" y1="1.909" x2="0.44" y2="0.31" xlink:href="#linear-gradient-8"/>
    <linearGradient id="linear-gradient-44" x1="-235.652" y1="-135.226" x2="-234.251" y2="-134.474" xlink:href="#linear-gradient-8"/>
    <linearGradient id="linear-gradient-45" x1="-150.305" y1="-186.288" x2="-150.641" y2="-183.31" xlink:href="#linear-gradient"/>
    <linearGradient id="linear-gradient-46" x1="-990.462" y1="-439.641" x2="-984.587" y2="-437.2" xlink:href="#linear-gradient-8"/>
    <linearGradient id="linear-gradient-47" x1="0.623" y1="0.497" x2="1.624" y2="0.497" xlink:href="#linear-gradient-8"/>
    <linearGradient id="linear-gradient-48" x1="-5.806" y1="-34.828" x2="-6.545" y2="-32.409" xlink:href="#linear-gradient"/>
    <linearGradient id="linear-gradient-49" x1="0.733" y1="0.134" x2="0.332" y2="0.8" xlink:href="#linear-gradient"/>
    <linearGradient id="linear-gradient-50" x1="58.384" y1="4.473" x2="58.399" y2="8.117" xlink:href="#linear-gradient"/>
    <linearGradient id="linear-gradient-51" x1="180.792" y1="1.167" x2="180.528" y2="-0.577" xlink:href="#linear-gradient-8"/>
    <linearGradient id="linear-gradient-52" x1="96.077" y1="3.699" x2="96.103" y2="7.126" xlink:href="#linear-gradient"/>
    <linearGradient id="linear-gradient-53" x1="188.371" y1="1.129" x2="188.085" y2="-0.789" xlink:href="#linear-gradient-8"/>
    <linearGradient id="linear-gradient-54" x1="813.037" y1="2.369" x2="814.417" y2="1.878" xlink:href="#linear-gradient-25"/>
    <linearGradient id="linear-gradient-55" x1="21.58" y1="0.161" x2="20.988" y2="1.632" xlink:href="#linear-gradient-25"/>
    <linearGradient id="linear-gradient-56" x1="48.914" y1="0.5" x2="49.914" y2="0.5" xlink:href="#linear-gradient-8"/>
    <linearGradient id="linear-gradient-57" x1="27.627" y1="0.5" x2="28.626" y2="0.5" xlink:href="#linear-gradient-8"/>
    <linearGradient id="linear-gradient-58" x1="97.206" y1="1.029" x2="98.494" y2="0.222" xlink:href="#linear-gradient-8"/>
    <linearGradient id="linear-gradient-59" x1="82.004" y1="0.175" x2="80.687" y2="1.493" xlink:href="#linear-gradient-8"/>
    <linearGradient id="linear-gradient-60" x1="1.637" y1="-2.121" x2="0.754" y2="-0.158" gradientUnits="objectBoundingBox">
      <stop offset="0" stop-color="#e1473d"/>
      <stop offset="1" stop-color="#e9605a"/>
    </linearGradient>
    <linearGradient id="linear-gradient-61" x1="244.068" y1="2.763" x2="247.327" y2="0.439" xlink:href="#linear-gradient-8"/>
    <linearGradient id="linear-gradient-62" x1="-1.287" y1="3.146" x2="0.762" y2="0.112" xlink:href="#linear-gradient-25"/>
    <linearGradient id="linear-gradient-63" x1="-1.296" y1="3.158" x2="0.754" y2="0.125" xlink:href="#linear-gradient-25"/>
    <linearGradient id="linear-gradient-64" x1="-1.736" y1="3.814" x2="0.31" y2="0.781" xlink:href="#linear-gradient-25"/>
    <linearGradient id="linear-gradient-65" x1="-1.747" y1="3.826" x2="0.302" y2="0.793" xlink:href="#linear-gradient-25"/>
    <linearGradient id="linear-gradient-66" x1="0.857" y1="-10.862" x2="0.637" y2="-3.912" xlink:href="#linear-gradient"/>
    <linearGradient id="linear-gradient-67" x1="0.211" y1="32.946" x2="0.464" y2="4.255" xlink:href="#linear-gradient-25"/>
  </defs>
  <g id="Grupo_55215" data-name="Grupo 55215" transform="translate(-1105 -497.936)">
    <g id="CF1_tema_5" data-name="CF1_tema 5" transform="translate(1070.73 405.041)">
      <path id="Trazado_111076" data-name="Trazado 111076" d="M263.294,270.783a74.508,74.508,0,0,1-11.394,9.6c-37.184,26.68-81.182,18.927-90.532,17-13.81-2.8-40.5-8.2-59.8-30.913-29.2-34.333-24.649-88.425-2.006-124.127,4.145-6.536,26.024-42.78,70.5-48.578,26.914-3.514,58.287,3.577,81.006,22.611C298.756,156.309,295.361,237.024,263.294,270.783Z" transform="translate(-17.292)" fill="#f1eefd"/>
      <g id="Grupo_55132" data-name="Grupo 55132" transform="translate(38.169 108.647)">
        <g id="Grupo_55127" data-name="Grupo 55127" transform="translate(0 1.739)">
          <g id="Grupo_55124" data-name="Grupo 55124">
            <path id="Trazado_111077" data-name="Trazado 111077" d="M40.892,234.716a.763.763,0,0,1-.442-.688c0-1,0-2.006.05-3.009a.732.732,0,0,1,.782-.7c1.016.05.669,1.035.681,3.729a.738.738,0,0,1-.757.738A.769.769,0,0,1,40.892,234.716Z" transform="translate(-40.45 -161.11)" fill="#dad5ed"/>
            <path id="Trazado_111078" data-name="Trazado 111078" d="M42.046,181.216c.322-1.893.719-3.785,1.192-5.634a.744.744,0,0,1,.915-.53c1.1.3.328.877-.631,6.435a.738.738,0,0,1-.877.568A.757.757,0,0,1,42.046,181.216Zm4.057-14.51c.707-1.785,1.5-3.577,2.322-5.262a.757.757,0,0,1,1.363.631c-.82,1.684-1.584,3.413-2.271,5.161a.763.763,0,0,1-1.413-.562Zm6.94-13.368c1.054-1.6,2.189-3.154,3.369-4.669a.758.758,0,0,1,1.205.921c-1.155,1.476-2.265,3.016-3.3,4.574a.757.757,0,0,1-1.255-.845Zm9.621-10.593a.738.738,0,0,1,0-1.054c1.369-1.337,2.807-2.643,4.284-3.874a.758.758,0,1,1,.99,1.148c-1.445,1.2-2.858,2.479-4.2,3.785a.763.763,0,0,1-1.06-.025Zm11.646-9.463a.744.744,0,0,1,.214-1.035c1.621-1.028,3.306-2.013,5-2.915a.753.753,0,1,1,.738,1.312c-1.666.883-3.318,1.848-4.9,2.858a.77.77,0,0,1-1.035-.215Zm13.779-6.473a.776.776,0,0,1-.391-.41.732.732,0,0,1,.423-.965c1.8-.681,3.659-1.306,5.514-1.848a.77.77,0,0,1,.953.5.744.744,0,0,1-.5.927c-1.817.53-3.634,1.142-5.407,1.811a.77.77,0,0,1-.574-.013Zm14.611-3.9a.757.757,0,0,1-.435-.555.738.738,0,0,1,.631-.858c1.893-.3,3.861-.543,5.8-.7a.776.776,0,0,1,.826.694.744.744,0,0,1-.681.808c-1.893.151-3.785.385-5.678.688a.744.744,0,0,1-.442-.069Zm14.712-1.577a.738.738,0,0,1,.776-.713c1.943.088,3.911.252,5.848.486a.745.745,0,0,1-.158,1.483c-1.893-.233-3.829-.391-5.728-.479a.77.77,0,0,1-.719-.77Zm47.26,19.557c-4.284-3.785-5.306-3.785-4.618-4.681a.763.763,0,0,1,1.06-.139c1.558,1.18,3.091,2.429,4.555,3.716a.744.744,0,1,1-.978,1.11ZM132.5,123.4a.732.732,0,0,1,.908-.536c1.893.473,3.785,1.028,5.678,1.647a.744.744,0,1,1-.467,1.413c-1.817-.631-3.678-1.155-5.527-1.621a.757.757,0,0,1-.561-.915ZM152.42,132.1c-4.946-2.839-5.962-2.65-5.476-3.672a.776.776,0,0,1,1.009-.341c1.766.839,3.52,1.76,5.211,2.725a.744.744,0,1,1-.744,1.262Z" transform="translate(-41.037 -120.618)" fill="#dad5ed"/>
            <path id="Trazado_111079" data-name="Trazado 111079" d="M248.748,164.853c-1.609-1.981-2.637-2.681-1.893-3.337a.763.763,0,0,1,1.066.082c1.741,1.981,2.631,2.782,1.893,3.382A.864.864,0,0,1,248.748,164.853Z" transform="translate(-116.546 -135.648)" fill="#dad5ed"/>
          </g>
          <g id="Grupo_55125" data-name="Grupo 55125" transform="translate(14.538 80.397)">
            <path id="Trazado_111080" data-name="Trazado 111080" d="M275.742,252.436a.763.763,0,0,1-.435-.782c.12-.972.221-1.956.3-2.927a.738.738,0,0,1,.814-.669.77.77,0,0,1,.694.814c-.082,1-.189,2-.309,2.99a.738.738,0,0,1-.845.631.884.884,0,0,1-.221-.057Z" transform="translate(-141.675 -248.053)" fill="#dad5ed"/>
            <path id="Trazado_111081" data-name="Trazado 111081" d="M96.383,315.011c-1.893-.934-3.785-1.956-5.558-3.041a.738.738,0,0,1-.265-1.022c.6-.991.959,0,6.479,2.732a.744.744,0,0,1,.353,1A.776.776,0,0,1,96.383,315.011ZM105.4,318c.366-1.091.965-.2,6.9,1.293a.757.757,0,0,1,.561.908.744.744,0,0,1-.908.536c-2.031-.511-4.076-1.11-6.075-1.792A.751.751,0,0,1,105.4,318ZM82.384,306.09c-1.634-1.312-3.243-2.707-4.763-4.158a.738.738,0,0,1,0-1.054c.808-.826.94.214,5.741,4.063A.751.751,0,0,1,83.456,306a.763.763,0,0,1-1.073.095Zm39.443,16.4a.763.763,0,0,1-.442-.757.732.732,0,0,1,.826-.631c2.044.227,4.12.372,6.17.429a.77.77,0,0,1,.751.763.738.738,0,0,1-.763.725c-2.095-.057-4.214-.208-6.309-.442a.745.745,0,0,1-.233-.082Zm16.359.032a.757.757,0,0,1-.442-.593.726.726,0,0,1,.631-.82c2.031-.221,4.082-.53,6.094-.921a.776.776,0,0,1,.9.593.725.725,0,0,1-.58.871c-2.05.4-4.145.713-6.221.94a.783.783,0,0,1-.379-.063Zm15.93-3.5a.8.8,0,0,1-.4-.435.732.732,0,0,1,.454-.946c1.931-.631,3.861-1.394,5.722-2.208a.77.77,0,0,1,1,.385.719.719,0,0,1-.372.978c-1.893.833-3.867,1.59-5.836,2.252a.763.763,0,0,1-.568-.025Zm14.693-6.851a.763.763,0,0,1-.328-.29.726.726,0,0,1,.233-1.022c1.735-1.054,3.438-2.2,5.079-3.388a.763.763,0,0,1,1.06.158.738.738,0,0,1-.145,1.041c-1.672,1.224-3.413,2.385-5.186,3.464a.77.77,0,0,1-.738.038Zm12.523-10.031c-.833-.833.221-.908,4.176-5.47a.757.757,0,0,1,1.155.978c-1.35,1.558-2.782,3.072-4.265,4.511A.763.763,0,0,1,181.332,302.147Zm10.34-12.334c-1-.631,0-.934,2.826-6.258a.759.759,0,0,1,1.344.707c-.959,1.817-2.013,3.615-3.154,5.337A.745.745,0,0,1,191.672,289.813Zm7.236-14.334a.744.744,0,0,1-.4-.934c.688-1.893,1.306-3.848,1.83-5.785a.751.751,0,0,1,.927-.517.763.763,0,0,1,.536.921c-.536,1.981-1.161,3.968-1.893,5.905a.744.744,0,0,1-.965.435Z" transform="translate(-68.627 -255.495)" fill="#dad5ed"/>
            <path id="Trazado_111082" data-name="Trazado 111082" d="M65.51,307.537c-1.653-2.057-2.524-2.9-1.7-3.457s1.192.435,2.883,2.524a.738.738,0,0,1-.12,1.047.763.763,0,0,1-1.06-.114Z" transform="translate(-63.494 -268.676)" fill="#dad5ed"/>
          </g>
          <g id="Grupo_55126" data-name="Grupo 55126" transform="translate(19.782 18.694)">
            <path id="Trazado_111083" data-name="Trazado 111083" d="M78.168,232.625l10.826-.574a48.32,48.32,0,0,0,10.946,10.782c-.315,10.378-1.073,11.085,0,11.533l12.081,5a.89.89,0,0,0,1.009-.221l7.11-7.949a48.06,48.06,0,0,0,15.324.107l7.28,8.063a.921.921,0,0,0,1.009.233l11.987-4.82a.871.871,0,0,0,.543-.864l-.763-10.7a45.69,45.69,0,0,0,10.725-10.593l10.839.751a.877.877,0,0,0,.877-.536l4.864-11.816a.877.877,0,0,0-.246-1l-8.2-7.148a45.9,45.9,0,0,0-.158-15.1c7.722-7.034,8.731-6.94,8.277-8.025-5.211-11.577-4.8-12.5-5.987-12.441l-10.832.568a48.137,48.137,0,0,0-10.933-10.75c.315-10.378,1.073-11.091,0-11.533-12.094-4.763-12.327-5.634-13.091-4.782l-7.116,7.924a48.062,48.062,0,0,0-15.324-.107c-7.192-7.64-7.211-8.731-8.3-8.3C99.144,155.31,98.3,154.862,98.4,156.01l.763,10.681a45.834,45.834,0,0,0-10.725,10.593c-10.359-.479-11.268-1.262-11.709-.189-4.6,11.779-5.508,12.037-4.618,12.813l8.2,7.148a45.9,45.9,0,0,0,.158,15.1c-7.7,7.009-8.738,6.94-8.284,8.025C77.385,231.76,76.975,232.688,78.168,232.625Z" transform="translate(-71.805 -150.25)" fill="#dad5ed"/>
            <path id="Trazado_111084" data-name="Trazado 111084" d="M139.83,227.725a12.428,12.428,0,0,1,14.3-10.46A12.807,12.807,0,0,1,165,231.549a12.428,12.428,0,0,1-14.3,10.46h0A12.807,12.807,0,0,1,139.83,227.725Zm11.022,13.167Zm2.965-21.419a10.2,10.2,0,0,0-11.741,8.593A10.523,10.523,0,0,0,151,239.788a10.214,10.214,0,0,0,11.741-8.593,10.517,10.517,0,0,0-8.927-11.722Z" transform="translate(-96.876 -174.926)" fill="#fff"/>
            <path id="Trazado_111085" data-name="Trazado 111085" d="M127.775,247.051h0a33.66,33.66,0,0,1-4.9-2.77,1.129,1.129,0,0,1-.4-1.394.851.851,0,0,1,.095-.164,1.136,1.136,0,0,1,1.577-.271,31.546,31.546,0,0,0,5.678,3.079h0c15.141,6.246,32.3-.366,38.926-14.75.17-.366.334-.738.486-1.117,6.309-15.249-1.319-32.711-16.788-39.115s-33.147.631-39.411,15.867c-3.729,9.053-1.483,15.463-1.893,16.4a1.148,1.148,0,0,1-2.158-.315,31.475,31.475,0,0,1,2.486-18.151c11.615-25.2,48.578-24.163,59.644,1.64a31.45,31.45,0,0,1,.246,24.554q-.246.631-.53,1.211a31.311,31.311,0,0,1-16.914,16.024A32.806,32.806,0,0,1,129,247.6C128.589,247.417,128.185,247.24,127.775,247.051Z" transform="translate(-85.383 -163.458)" fill="#fff"/>
          </g>
        </g>
        <g id="Grupo_55131" data-name="Grupo 55131" transform="translate(137.046 0)">
          <path id="Trazado_111086" data-name="Trazado 111086" d="M281.905,179.2a26.416,26.416,0,0,0,6.511,5.545l.126,6.056c0,.669.587.41,7.262,2.694.631.2.549-.379,4.183-5.047a26.358,26.358,0,0,0,8.523-.688l4.372,4.252c.486.467.707-.126,7.041-3.23a.492.492,0,0,0,.265-.511l-.852-6a26.307,26.307,0,0,0,5.539-6.517c5.785-.233,6.309.164,6.523-.467,2.088-6.883,2.58-7.072,2.057-7.463l-4.845-3.64a26.379,26.379,0,0,0-.694-8.523l4.2-4.366c.461-.486-.126-.713-3.23-7.041-.3-.58-.631-.126-6.517.587a26.416,26.416,0,0,0-6.511-5.545l-.12-6.05c0-.675-.587-.416-7.262-2.7-.631-.2-.536.36-4.189,5.047a26.358,26.358,0,0,0-8.523.688l-4.372-4.2a.5.5,0,0,0-.574-.082l-6.467,3.23a.492.492,0,0,0-.265.511l.852,6a26.308,26.308,0,0,0-5.539,6.517c-5.785.233-6.309-.164-6.517.467-2.088,6.883-2.58,7.072-2.057,7.463l4.839,3.64a26.534,26.534,0,0,0,.694,8.523c-3.924,4.258-4.587,4.353-4.284,4.94l3.318,6.473C275.691,180.372,276.051,179.918,281.905,179.2Z" transform="translate(-262.461 -122.534)" fill="#dad5ed"/>
          <g id="Grupo_55130" data-name="Grupo 55130">
            <path id="Trazado_111087" data-name="Trazado 111087" d="M308.56,175.523a7.571,7.571,0,1,1,7.079,8.056h0a7.571,7.571,0,0,1-7.079-8.056Zm7.154,6.94Zm-4.9-6.782a5.331,5.331,0,0,0,4.971,5.678h0a5.325,5.325,0,1,0-4.971-5.678Z" transform="translate(-276.454 -136.536)" fill="#fff"/>
            <g id="Grupo_55128" data-name="Grupo 55128">
              <path id="Trazado_111088" data-name="Trazado 111088" d="M259.774,196.139c-.29-.978-.549-1.975-.763-2.978a.757.757,0,0,1,.58-.9c1.022-.214.877.927,1.628,3.445a.754.754,0,1,1-1.445.429Z" transform="translate(-258.164 -145.316)" fill="#dad5ed"/>
              <path id="Trazado_111089" data-name="Trazado 111089" d="M257.68,155.67a39.924,39.924,0,0,1,.738-6.157.752.752,0,0,1,1.476.29c-1.079,5.4-.233,6.706-1.5,6.656a.757.757,0,0,1-.719-.789Zm4.3-14.7a.757.757,0,0,1-.353-1.009,40.3,40.3,0,0,1,3.154-5.35.765.765,0,0,1,1.262.864,37.95,37.95,0,0,0-3.028,5.148.757.757,0,0,1-1.035.347Zm9.735-12.561a.752.752,0,0,1-.177-1.255,40.611,40.611,0,0,1,5.047-3.659.757.757,0,1,1,.795,1.262,37.724,37.724,0,0,0-4.826,3.514A.751.751,0,0,1,271.717,128.409Zm13.924-7.659a.744.744,0,0,1-.4-.467.757.757,0,0,1,.5-.94A39.688,39.688,0,0,1,291.8,118a.749.749,0,0,1,.221,1.483,36.854,36.854,0,0,0-5.829,1.262A.744.744,0,0,1,285.64,120.75Zm15.394-2.214a.751.751,0,0,1,.833-.669,39.84,39.84,0,0,1,6.094,1.18.753.753,0,1,1-.4,1.451,38.164,38.164,0,0,0-5.861-1.129.751.751,0,0,1-.669-.833Z" transform="translate(-257.679 -117.862)" fill="#dad5ed"/>
              <path id="Trazado_111090" data-name="Trazado 111090" d="M353.2,128.761c-2.277-1.565-3.281-1.729-2.77-2.612a.751.751,0,0,1,1.035-.271c.877.511,1.748,1.06,2.593,1.64a.763.763,0,0,1-.858,1.262Z" transform="translate(-291.868 -120.782)" fill="#dad5ed"/>
            </g>
            <g id="Grupo_55129" data-name="Grupo 55129" transform="translate(15.373 30.795)">
              <path id="Trazado_111091" data-name="Trazado 111091" d="M380.387,170.476c-.347-2.751-.9-3.6.1-3.785a.751.751,0,0,1,.89.587c.208.991.379,2.013.5,3.028a.754.754,0,0,1-1.5.189Z" transform="translate(-318.173 -166.675)" fill="#dad5ed"/>
              <path id="Trazado_111092" data-name="Trazado 111092" d="M299.977,219.512c.391-1.186,1.262.038,6.656.934a.757.757,0,0,1-.246,1.489,40.318,40.318,0,0,1-5.93-1.47.751.751,0,0,1-.479-.953Zm15.488,2.145a.757.757,0,0,1,.688-.814c5.476-.448,6.41-1.6,6.706-.372a.751.751,0,0,1-.555.908,39.686,39.686,0,0,1-6.025.965.744.744,0,0,1-.826-.688Zm15.078-4.107c-.587-1.1.9-.9,5.274-4.158a.753.753,0,0,1,.9,1.2,39.909,39.909,0,0,1-5.154,3.268.757.757,0,0,1-1.035-.315Zm12.258-9.7c-.978-.789.479-1.18,3.224-5.892a.752.752,0,1,1,1.3.757,39.019,39.019,0,0,1-3.464,5.047.751.751,0,0,1-1.073.088Zm6.94-14.668c1.5-5.281.751-6.568,2-6.416a.757.757,0,0,1,.631.839,39.164,39.164,0,0,1-1.2,5.987.751.751,0,0,1-.927.524.763.763,0,0,1-.511-.934Z" transform="translate(-288.65 -174.085)" fill="#dad5ed"/>
              <path id="Trazado_111093" data-name="Trazado 111093" d="M284.869,231.559c-.858-.555-1.7-1.148-2.523-1.76a.757.757,0,0,1-.145-1.06c.631-.833,1.262.126,3.476,1.552a.757.757,0,0,1-.82,1.262Z" transform="translate(-282.046 -189.469)" fill="#dad5ed"/>
            </g>
            <path id="Trazado_111094" data-name="Trazado 111094" d="M300.528,185.6a1.131,1.131,0,1,1,1.091-1.981,16.435,16.435,0,0,0,15.715.4c12.946-6.631,11.419-25.746-2.448-30.219a16.441,16.441,0,0,0-19.936,8.744c-3.445,7.482.454,11.356-1.937,11.924a1.129,1.129,0,0,1-1.356-.845,18.674,18.674,0,1,1,12.466,13.564h0A18.718,18.718,0,0,1,300.528,185.6Z" transform="translate(-270.043 -130)" fill="#fff"/>
          </g>
        </g>
      </g>
      <g id="Grupo_55134" data-name="Grupo 55134" transform="translate(173.25 106.279)">
        <path id="Trazado_111095" data-name="Trazado 111095" d="M291.661,198.3c0-.353-.391-.631-1-.9.662-.366,1.028-.757,1-1.142-.095-1.167-3.785-1.817-8.233-1.457s-7.987,1.59-7.9,2.757c.032.353.391.631,1,.9-.662.366-1.035.757-1,1.142s.391.662,1,.908c-.662.366-1.035.757-1,1.142s.391.631,1,.9c-.662.366-1.035.757-1,1.142.044.517.789.934,1.994,1.2a9.6,9.6,0,0,0,.032,1.262c.17,2.145,2.587,3.829,5.779,3.829s5.949-2.3,5.981-4.448a10.672,10.672,0,0,0-.063-1.407c1.527-.5,2.46-1.129,2.41-1.735,0-.353-.391-.631-1-.9.662-.366,1.028-.757,1-1.142s-.391-.631-1-.908C291.326,199.079,291.692,198.676,291.661,198.3Z" transform="translate(-262.301 -143.858)" fill="url(#linear-gradient)"/>
        <g id="Grupo_55133" data-name="Grupo 55133" transform="translate(14.419 53.649)">
          <path id="Trazado_111096" data-name="Trazado 111096" d="M282.664,210.915a18.925,18.925,0,0,1-3.533-.29.107.107,0,0,1-.082-.126.1.1,0,0,1,.12-.082,23.064,23.064,0,0,0,5.886.183,25.139,25.139,0,0,0,4.94-.852.108.108,0,0,1,.057.208,25.066,25.066,0,0,1-4.978.858C284.247,210.883,283.433,210.915,282.664,210.915Z" transform="translate(-278.02 -203.059)" fill="url(#linear-gradient-2)"/>
          <path id="Trazado_111097" data-name="Trazado 111097" d="M282.234,207.341a16.808,16.808,0,0,1-4.34-.467.108.108,0,1,1,.057-.208,20.737,20.737,0,0,0,6.65.366,20.971,20.971,0,0,0,6.467-1.407.114.114,0,0,1,.145.05.107.107,0,0,1-.057.145,21.185,21.185,0,0,1-6.536,1.426C283.8,207.309,282.978,207.341,282.234,207.341Z" transform="translate(-277.565 -201.535)" fill="url(#linear-gradient-3)"/>
          <path id="Trazado_111098" data-name="Trazado 111098" d="M282.063,204.1a15.69,15.69,0,0,1-4.574-.549.107.107,0,0,1-.063-.139.1.1,0,0,1,.132-.063,19.589,19.589,0,0,0,6.9.435,20.819,20.819,0,0,0,6.467-1.407.114.114,0,0,1,.145.057.1.1,0,0,1-.057.139,21,21,0,0,1-6.536,1.457C283.646,204.066,282.833,204.1,282.063,204.1Z" transform="translate(-277.419 -200.336)" fill="url(#linear-gradient-4)"/>
          <path id="Trazado_111099" data-name="Trazado 111099" d="M282.491,200.859a18.3,18.3,0,0,1-3.848-.347.107.107,0,1,1,.044-.208,22.4,22.4,0,0,0,6.183.246,20.951,20.951,0,0,0,6.435-1.394.107.107,0,0,1,.088.2,21.212,21.212,0,0,1-6.5,1.413C284.068,200.827,283.248,200.859,282.491,200.859Z" transform="translate(-277.834 -199.147)" fill="url(#linear-gradient-5)"/>
        </g>
        <path id="Trazado_111100" data-name="Trazado 111100" d="M264.807,158.2a15.142,15.142,0,0,0-2.7-5.262,34.869,34.869,0,0,1-7.508-19.419c-.776-13.488,11.192-20.245,22.081-19.33s21.7,9.053,20.516,21.6c-.726,7.722-5.047,13.583-8.265,16.946a17.873,17.873,0,0,0-4.3,7.571c-.965,3.489-3.262,7.836-8.725,8.1C268.863,168.8,265.93,162.209,264.807,158.2Z" transform="translate(-254.563 -114.11)" fill="url(#linear-gradient-6)"/>
        <path id="Trazado_111101" data-name="Trazado 111101" d="M291.3,181l3.823-24.851c.076-.511.328-.858.561-.77s.36.58.278,1.091v.044l-4.353,24.6c0,.183-.126.3-.208.259A.385.385,0,0,1,291.3,181Z" transform="translate(-268.119 -129.339)" fill="#6c58b8"/>
        <path id="Trazado_111102" data-name="Trazado 111102" d="M282.278,181.306l-3.785-24.844c-.082-.517-.334-.858-.561-.77s-.36.574-.284,1.085v.044l4.347,24.6c.038.189.126.3.215.265a.435.435,0,0,0,.069-.385Z" transform="translate(-263.076 -129.453)" fill="#6c58b8"/>
        <path id="Trazado_111103" data-name="Trazado 111103" d="M290.782,151.46a.391.391,0,0,0-.5-.126l-2.126.99-.726-2.1a.461.461,0,0,0-.259-.265.536.536,0,0,0-.631.2h0l-1.747,3.192-1.621-4.542h0a.5.5,0,0,0-.246-.278.631.631,0,0,0-.8.158l-2.448,3.369a.3.3,0,0,0,.088.423.416.416,0,0,0,.524-.057l2.151-2.4,1.937,4.322h0a.347.347,0,0,0,.177.164.4.4,0,0,0,.5-.132l1.893-3,.7,1.514h0a.4.4,0,0,0,.5.132l2.523-1.18A.3.3,0,0,0,290.782,151.46Z" transform="translate(-263.814 -126.786)" fill="#fff"/>
        <path id="Trazado_111104" data-name="Trazado 111104" d="M308.927,168.106a.5.5,0,0,1-.29-.095.486.486,0,0,1-.1-.675,28.265,28.265,0,0,0,1.773-2.694.486.486,0,1,1,.839.486,28.2,28.2,0,0,1-1.836,2.782A.467.467,0,0,1,308.927,168.106Z" transform="translate(-274.451 -132.662)" fill="#fff"/>
        <path id="Trazado_111105" data-name="Trazado 111105" d="M313.907,150.888a.536.536,0,0,1-.2-.038.492.492,0,0,1-.252-.631,22.667,22.667,0,0,0,.524-17.179.486.486,0,1,1,.883-.4,23.264,23.264,0,0,1-.517,17.968A.473.473,0,0,1,313.907,150.888Z" transform="translate(-276.289 -120.839)" fill="#fff"/>
      </g>
      <g id="Grupo_55158" data-name="Grupo 55158" transform="translate(34.27 151.362)">
        <g id="Grupo_55140" data-name="Grupo 55140" transform="translate(60.075 0)">
          <path id="Trazado_111106" data-name="Trazado 111106" d="M185.6,441.94s-.631,3.382-.959,6.732a2.3,2.3,0,0,0,2.183,2.524c4.46.233,14.006.681,17.431.561a.751.751,0,0,0,.669-1.022h0a1.659,1.659,0,0,0-.852-.915l-15.7-7.4Z" transform="translate(-149.846 -280.2)" fill="url(#linear-gradient-7)"/>
          <path id="Trazado_111107" data-name="Trazado 111107" d="M185.42,438.437l.442,4.057s2.751,1.312,4.65-.12l-1.1-4.523Z" transform="translate(-150.137 -278.69)" fill="url(#linear-gradient-8)"/>
          <path id="Trazado_111108" data-name="Trazado 111108" d="M179.781,318.076c-.215,1.06-1.615,52.761,3.691,75.984a.776.776,0,0,1-.473.908,13.632,13.632,0,0,1-4.5.877,1.363,1.363,0,0,1-1.337-.984c-1.527-5.394-8.832-32.4-9.583-58.149-.833-28.762,0-.978,0-.978L168.4,318Z" transform="translate(-143.413 -234.452)" fill="url(#linear-gradient-9)"/>
          <path id="Trazado_111109" data-name="Trazado 111109" d="M156.242,444.47a24.079,24.079,0,0,0-1.931,6.233,1.407,1.407,0,0,0,1.218,1.7c1.476.158,3.741.366,5.558.372a1.4,1.4,0,0,0,1.407-1.552,11.861,11.861,0,0,0-2.713-6.523Z" transform="translate(-138.642 -281.134)" fill="url(#linear-gradient-10)"/>
          <path id="Trazado_111110" data-name="Trazado 111110" d="M156.14,436.082l1.066,6.132a3.953,3.953,0,0,0,3.306.259l-.473-6.593Z" transform="translate(-139.329 -277.963)" fill="url(#linear-gradient-11)"/>
          <path id="Trazado_111111" data-name="Trazado 111111" d="M151.277,318.763c-4.782,27.242.341,67.442,2.12,75.315a1.262,1.262,0,0,0,.978.94,8.2,8.2,0,0,0,3.565-.114,1.11,1.11,0,0,0,.814-1.028c.315-6.347.233-45.354,4.593-60.729a3.533,3.533,0,0,1,1.369-1.893l8.208-5.747.719-9.388Z" transform="translate(-136.801 -233.758)" fill="url(#linear-gradient-12)"/>
          <g id="Grupo_55135" data-name="Grupo 55135" transform="translate(12.983 12.964)">
            <path id="Trazado_111112" data-name="Trazado 111112" d="M180.865,237.582c-13.545-.353-28.529,3.287-28.529,3.287-4.265,23.526-1.192,50.736-1.192,50.736,10.466,2.852,22.34-1.47,22.34-1.47,1.836-9.829,10.233-37.468,10.233-37.468a44.642,44.642,0,0,0,16.611-5.1A29.033,29.033,0,0,1,194.7,235.5a45.24,45.24,0,0,1-13.835,2.082Z" transform="translate(-150.073 -216.964)" fill="url(#linear-gradient-13)"/>
            <path id="Trazado_111113" data-name="Trazado 111113" d="M247.2,207.167a2.587,2.587,0,0,0-3-.877c-2.076,8.4-12.618,15.141-23.343,18.365a29.032,29.032,0,0,0,5.628,12.063C244.369,226.863,247.2,207.167,247.2,207.167Z" transform="translate(-176.198 -206.119)" fill="url(#linear-gradient-14)"/>
          </g>
          <g id="Grupo_55136" data-name="Grupo 55136" transform="translate(81.013)">
            <path id="Trazado_111114" data-name="Trazado 111114" d="M260.552,199.986c.132.448-1.489,1.1-2.416-.713,0-.871-.517-4.593,0-5.293a68.818,68.818,0,0,1,8.2-8.41,1.262,1.262,0,0,1,.145,1.773l-2.624,2.681a12.873,12.873,0,0,1,1.489,3.009,3.647,3.647,0,0,1-.391,2.675,30.3,30.3,0,0,1-1.691,2.713,3.583,3.583,0,0,1-2.713,1.565Z" transform="translate(-257.906 -185.57)" fill="url(#linear-gradient-15)"/>
            <path id="Trazado_111115" data-name="Trazado 111115" d="M263.668,195.39l-2.385,1.987-.763,1.987,2.088,2.366a29.254,29.254,0,0,1,1.262-4.814C264.381,196.059,264.16,195.649,263.668,195.39Z" transform="translate(-258.871 -189.195)" fill="url(#linear-gradient-16)"/>
          </g>
          <path id="Trazado_111116" data-name="Trazado 111116" d="M150,257.177l-5.047-13.167S132.189,252.489,130,263.372a29.784,29.784,0,0,1,10.971,3.053C141.987,261.284,150,257.177,150,257.177Z" transform="translate(-129.681 -207.141)" fill="url(#linear-gradient-17)"/>
          <path id="Trazado_111117" data-name="Trazado 111117" d="M160.727,280.958s-14.283,7.892-19.015.991a5.4,5.4,0,0,1-.946-4.2,29.785,29.785,0,0,0-10.952-3.053,15.047,15.047,0,0,0,1.539,10.328c8.246,15.444,31.241-.549,31.241-.549Z" transform="translate(-129.494 -218.469)" fill="url(#linear-gradient-18)"/>
          <path id="Trazado_111118" data-name="Trazado 111118" d="M174.7,221.16l-4.416,12.428a.448.448,0,0,0,.2.543A10.094,10.094,0,0,0,181,233.5a2.12,2.12,0,0,0,.99-1.5l1.5-10.776Z" transform="translate(-144.54 -198.707)" fill="url(#linear-gradient-19)"/>
          <g id="Grupo_55137" data-name="Grupo 55137" transform="translate(22.055 4.489)">
            <path id="Trazado_111119" data-name="Trazado 111119" d="M185.858,203s4.65,8.952,4.006,12.548-6.5,3.281-11.6.309L174.78,206.2Z" transform="translate(-168.264 -196.492)" fill="url(#linear-gradient-20)"/>
            <path id="Trazado_111120" data-name="Trazado 111120" d="M174.722,207.331a.366.366,0,0,0,.17-.536,9.551,9.551,0,0,1-1.262-2.807s-.845-.555,2.177-1.262,7.533-1.773,8.5-4.328-1.413-8.832-5.331-3.836a.366.366,0,0,1-.58,0c-.631-.833-2.271-2.561-4.593-1.546a3.459,3.459,0,0,0-2.41,3.337.366.366,0,0,1-.442.366,4.239,4.239,0,0,0-4.965,2.259c-1.028,2.208-.385,3.476.208,4.094a.366.366,0,0,1-.164.631,2.214,2.214,0,0,0-1.577,2.524c.1,2.328,2.713,2.151,3.451,2.05a.379.379,0,0,1,.328.12c.631.707,3.464,3.722,6.561,4.113a.372.372,0,0,0,.391-.486l-1.306-3.911a.372.372,0,0,1,.208-.454Z" transform="translate(-164.452 -192.685)" fill="url(#linear-gradient-21)"/>
            <path id="Trazado_111121" data-name="Trazado 111121" d="M179.456,216.1s-3.35-2.341-3.615-.4,3.009,2.852,4.643,2.139Z" transform="translate(-168.65 -200.895)" fill="url(#linear-gradient-22)"/>
          </g>
          <g id="Grupo_55139" data-name="Grupo 55139" transform="translate(28.306 45.532)">
            <g id="Grupo_55138" data-name="Grupo 55138">
              <path id="Trazado_111122" data-name="Trazado 111122" d="M174.392,287.172,182.177,260a.789.789,0,0,1,.669-.574c1.407-.164,5.5-.631,10.208-1.022,5.678-.479,12.283-.871,16.226-.536a.795.795,0,0,1,.631,1.142c-2.246,4.536-11.463,22.983-16.081,29.021a.789.789,0,0,1-.631.315l-18.05-.158a.795.795,0,0,1-.757-1.016Z" transform="translate(-174.36 -257.742)" fill="url(#linear-gradient-23)"/>
              <path id="Trazado_111123" data-name="Trazado 111123" d="M176.956,288.583s-1.085-4.454-.631-6.038,1.262-3.615,4.107-3.154a41.5,41.5,0,0,1,6.151,1.64,1.61,1.61,0,0,1-2.309,1.394l1.331,1.035s-.2,1.647-2.006.763l1.262,1.369a1.439,1.439,0,0,1-2.107.486C181.378,285.189,180.741,289.107,176.956,288.583Z" transform="translate(-175.045 -265.709)" fill="url(#linear-gradient-24)"/>
            </g>
            <path id="Trazado_111124" data-name="Trazado 111124" d="M203.17,318.664a2.284,2.284,0,1,0,2.284-2.284,2.284,2.284,0,0,0-2.284,2.284Z" transform="translate(-184.994 -279.386)" fill="#dad5ed"/>
            <path id="Trazado_111125" data-name="Trazado 111125" d="M187.8,317.423l-.58-.17,1.584-5.375a2.448,2.448,0,0,1,1.842-1.716c5.047-1.047,18.245-1.262,18.807-1.262v.631c-.139,0-13.728.221-18.693,1.262a1.842,1.842,0,0,0-1.388,1.293Z" transform="translate(-179.107 -276.625)" fill="#dad5ed"/>
          </g>
        </g>
        <g id="Grupo_55141" data-name="Grupo 55141" transform="translate(0 125.755)">
          <path id="Trazado_111126" data-name="Trazado 111126" d="M39.463,394.57c-.833,1.23-4.126,29.021-4.643,39.279a1.211,1.211,0,0,0,1.211,1.262h0a1.218,1.218,0,0,0,1.2-1.028l6.031-38.61Z" transform="translate(-34.472 -388.47)" fill="#7d97f4"/>
          <path id="Trazado_111127" data-name="Trazado 111127" d="M81.964,394.57c.826,1.23,4.126,29.021,4.643,39.279a1.218,1.218,0,0,1-1.218,1.262h0a1.218,1.218,0,0,1-1.2-1.028l-6.025-38.61Z" transform="translate(-50.47 -388.47)" fill="#7d97f4"/>
          <path id="Trazado_111128" data-name="Trazado 111128" d="M34.27,388.831v.3a4.132,4.132,0,0,0,4.208,4.031l27.873.473a4.164,4.164,0,0,0,4.359-3.785v-.278a4.113,4.113,0,0,0-4.2-4.17l-27.885-.5A4.151,4.151,0,0,0,34.27,388.831Z" transform="translate(-34.27 -384.901)" fill="#7d97f4"/>
        </g>
        <g id="Grupo_55144" data-name="Grupo 55144" transform="translate(8.276 43.151)">
          <path id="Trazado_111129" data-name="Trazado 111129" d="M134.617,451.84a.839.839,0,0,0-.145-.3c-1.337-1.7-4.019-4.378-7.665-4.328-5.344.076-7.211.631-11.356.031l-.978,3.249a1.893,1.893,0,0,0,0,.972c.978.385,3.154.808,8.126.808C128.371,452.269,132.617,452,134.617,451.84Z" transform="translate(-72.127 -325.296)" fill="url(#linear-gradient-25)"/>
          <path id="Trazado_111130" data-name="Trazado 111130" d="M117.295,441.71,116.09,445.8a7.085,7.085,0,0,0,5.009.24l.461-3.546Z" transform="translate(-72.747 -323.266)" fill="url(#linear-gradient-26)"/>
          <g id="Grupo_55142" data-name="Grupo 55142" transform="translate(72.168 116.003)">
            <path id="Trazado_111131" data-name="Trazado 111131" d="M171.535,494.9c-3.861,3.1-5.836,4.151-6.845,4.46a1.893,1.893,0,0,0,2.334,0l13.665-10.977a.852.852,0,0,0-.032-1.382C179.2,488.394,176.065,491.258,171.535,494.9Z" transform="translate(-162.854 -455.986)" fill="#dad5ed"/>
            <path id="Trazado_111132" data-name="Trazado 111132" d="M179.584,438.351a.758.758,0,0,0-.3-.139c-2.1-.486-5.861-.883-8.675,1.438-4.12,3.407-5.211,5.047-8.832,7.142l1.262,3.154a1.931,1.931,0,0,0,.58.77c1.009-.315,2.984-1.356,6.845-4.46C174.991,442.6,178.126,439.726,179.584,438.351Z" transform="translate(-161.78 -437.84)" fill="url(#linear-gradient-27)"/>
          </g>
          <path id="Trazado_111133" data-name="Trazado 111133" d="M73.847,367.85s29.652,2.416,35.746,5.28-4.946,43.014-4.946,43.014-1.659.795-5.344-.347c0,0,3.785-29.652.965-36.055L68.15,374.493Z" transform="translate(-55.052 -296.003)" fill="#12263f"/>
          <path id="Trazado_111134" data-name="Trazado 111134" d="M157.1,442.068c.278.252,2.946,5.64,2.946,5.64s2.978-.631,3.583-2.524l-2.675-4.864Z" transform="translate(-87.884 -322.753)" fill="url(#linear-gradient-28)"/>
          <path id="Trazado_111135" data-name="Trazado 111135" d="M48.317,367.45a15.078,15.078,0,0,0-.927,5.394,8.132,8.132,0,0,0,7.76,7.955l35.065,1.6a1.691,1.691,0,0,1,1.552,1.262c.826,3.186,4.852,12.971,24.541,32.5a1.59,1.59,0,0,0,1.962.215l2.8-1.773a.631.631,0,0,0,.214-.871L100.869,378.9a7.912,7.912,0,0,0-4.8-3.564L66.183,367.7Z" transform="translate(-47.388 -295.855)" fill="#12263f"/>
          <path id="Trazado_111136" data-name="Trazado 111136" d="M99.2,281.13s-3.754,6.637-7.571,9.854l7.918,4.416s1.779-7.028,5.855-9.085Z" transform="translate(-63.719 -263.993)" fill="url(#linear-gradient-29)"/>
          <path id="Trazado_111137" data-name="Trazado 111137" d="M47.85,340.96s9.463,2.3,18.5,0c0,0,12.618-17.034,17.532-21.627,0,0,7.8,12.315,25.166,14.056l.972-2.164S96.2,324.853,91.943,315.062s-5.968-13.968-9.842-16.523c-2.41-1.6-3.855-2.681-4.6-3.274a1.262,1.262,0,0,0-1.419-.088C71.975,297.681,52.638,310.923,47.85,340.96Z" transform="translate(-47.559 -269.113)" fill="url(#linear-gradient-30)"/>
          <path id="Trazado_111138" data-name="Trazado 111138" d="M101.087,327.706a.631.631,0,0,1-.486-.233,37.64,37.64,0,0,1-4.763-8.448.631.631,0,0,1,1.136-.435,37.373,37.373,0,0,0,4.593,8.138.631.631,0,0,1-.114.852.574.574,0,0,1-.366.126Z" transform="translate(-65.271 -277.726)" fill="url(#linear-gradient-31)"/>
          <path id="Trazado_111139" data-name="Trazado 111139" d="M143.21,349.479l1.956-.524,5.937-1.369a2.713,2.713,0,0,1,2.082.347l5.1,3.211H144.194Z" transform="translate(-82.757 -288.496)" fill="url(#linear-gradient-32)"/>
          <g id="Grupo_55143" data-name="Grupo 55143" transform="translate(25.717)">
            <path id="Trazado_111140" data-name="Trazado 111140" d="M106.858,265.34s3.647,6.069,4.284,9.425,1.647,5.451-2.17,6.643a8.374,8.374,0,0,1-9.589-3.451s-3.476-4.814-3.154-7.022S106.858,265.34,106.858,265.34Z" transform="translate(-91.124 -258.165)" fill="url(#linear-gradient-33)"/>
            <path id="Trazado_111141" data-name="Trazado 111141" d="M97.424,271.167l.492-.063s-2.58-3.905-.89-4.877,8.58-3.344,9.779-6.063a4.713,4.713,0,0,0-2.656-6.189.265.265,0,0,0-.315.17l-.12.328a.271.271,0,0,1-.5,0h0a.265.265,0,0,0-.486,0c-.366.808-1.476,2.2-4.788,3.274-4.706,1.527-7.634,3.893-7.274,7.236a.265.265,0,0,1-.379.271c-.385-.17-.972-.2-1.647.543-1.18,1.262-.252,4.107,2.959,6.1a.259.259,0,0,1,.044.423c-.479.41-1.155,1.331,1.016,2.151s3.438.555,3.893.372a.271.271,0,0,0,.164-.3l-.574-2.927a.265.265,0,0,1,.227-.315Z" transform="translate(-88.151 -253.967)" fill="url(#linear-gradient-34)"/>
            <path id="Trazado_111142" data-name="Trazado 111142" d="M100.962,280.5s-1.609-3.968-3.3-2.574,1.565,4.479,3.066,4.416Z" transform="translate(-91.486 -262.701)" fill="url(#linear-gradient-35)"/>
          </g>
        </g>
        <g id="Grupo_55145" data-name="Grupo 55145" transform="translate(62.052 78.364)">
          <path id="Trazado_111143" data-name="Trazado 111143" d="M133.859,356.069h.069l30.106-.032a1.344,1.344,0,0,0,0-2.688H133.922a1.35,1.35,0,0,0-.063,2.694Z" transform="translate(-132.627 -325.865)" fill="url(#linear-gradient-36)"/>
          <path id="Trazado_111144" data-name="Trazado 111144" d="M193.4,310.5v.063l-12.668,27.311a1.356,1.356,0,0,0,.631,1.792,1.338,1.338,0,0,0,1.785-.631l12.668-27.311a1.344,1.344,0,1,0-2.41-1.192Z" transform="translate(-150.337 -309.784)" fill="url(#linear-gradient-37)"/>
        </g>
        <g id="Grupo_55151" data-name="Grupo 55151" transform="translate(114.486 39.808)">
          <g id="Grupo_55146" data-name="Grupo 55146" transform="translate(50.938 88.507)">
            <rect id="Rect치ngulo_6375" data-name="Rect치ngulo 6375" width="3.18" height="34.364" transform="translate(15.356 7.697)" fill="#7d97f4"/>
            <path id="Trazado_111145" data-name="Trazado 111145" d="M329.108,455.469H301.28a2.069,2.069,0,0,1,2.069-2.069h23.69a2.069,2.069,0,0,1,2.069,2.069Z" transform="translate(-298.252 -412.746)" fill="#7d97f4"/>
            <rect id="Rect치ngulo_6376" data-name="Rect치ngulo 6376" width="34.995" height="9.924" rx="4.962" fill="#7d97f4"/>
          </g>
          <g id="Grupo_55147" data-name="Grupo 55147" transform="translate(3.382 66.836)">
            <path id="Trazado_111146" data-name="Trazado 111146" d="M279.587,364.84a27.658,27.658,0,0,0-10.031,4.284,2.65,2.65,0,0,0-1.167,2.524,111.732,111.732,0,0,0,11.867,37.222,4.006,4.006,0,0,1,.385,2.751l-1.5,6.94-2.776,2.606h7.154l4.757-12.889-2.031-.631a3.855,3.855,0,0,1-2.694-3.609l-.24-13.823a15.7,15.7,0,0,0-3.785-10.41l11.419-.555Z" transform="translate(-238.548 -358.386)" fill="url(#linear-gradient-38)"/>
            <path id="Trazado_111147" data-name="Trazado 111147" d="M276.6,447.538c-.631.852,7.009,1.975,10.883.114,0,0,5.369-9.337,5.369-14.144,0,0-.429-.984-3.577-.757,0,0-1.8,11.053-3.71,12.29s-5.318.126-5.318.126A11.2,11.2,0,0,0,276.6,447.538Z" transform="translate(-241.572 -383.44)" fill="#ef2a66"/>
            <path id="Trazado_111148" data-name="Trazado 111148" d="M274,381.108c-.057-.107-12.3-1.47-12.3-1.47a28.392,28.392,0,0,1-.852,8.832c-1.262,5.123-19.223,27.317-19.223,27.317l1.893,5.968a30.283,30.283,0,0,1-17.2.991l11.678-7s10.927-37.222,17.614-43.884l12.271-4.24Z" transform="translate(-223.027 -359.412)" fill="url(#linear-gradient-39)"/>
            <path id="Trazado_111149" data-name="Trazado 111149" d="M318.67,354.61s7.053,10.492,7.634,15.274-1.937,6.725-9.331,7.053-27.128.315-27.128.315L273,362.843s12.283-4.416,15.476-5.628S318.67,354.61,318.67,354.61Z" transform="translate(-240.257 -354.61)" fill="url(#linear-gradient-40)"/>
            <path id="Trazado_111150" data-name="Trazado 111150" d="M240.872,450.22s2.031,1.962.662,4.145c0,0-16.069,2.852-20.434,1.558,0,0,.908-2.069,5.823-4.416l-.366.278a.587.587,0,0,0,.391,1.054C230.185,452.649,236.878,452.056,240.872,450.22Z" transform="translate(-221.1 -389.901)" fill="#ef2a66"/>
          </g>
          <g id="Grupo_55149" data-name="Grupo 55149" transform="translate(38.226)">
            <path id="Trazado_111151" data-name="Trazado 111151" d="M294.031,249c14.416-2.454,21.2,9.306,20.706,11.772a.448.448,0,0,0,.562.517c1.659-.442,5.312-1.009,7.571,1.836,2,2.524.5,4.87-.713,6.17a.454.454,0,0,0,.379.77c3.047-.385,9.653-.479,10.725,5.716,1.009,5.773-3.009,7.4-5.394,7.861a.454.454,0,0,0-.151.826c1.186.757,2.568,2.315,2.013,5.388-.877,4.826-10.328,4.416-11.432,4.366a.441.441,0,0,1-.2-.057l-15.141-8.637a.435.435,0,0,1-.221-.315l-3.06-17.665a.442.442,0,0,1,.12-.391l-9.867-13.93C286.34,252.707,293.848,249.029,294.031,249Z" transform="translate(-280.99 -248.669)" fill="url(#linear-gradient-41)"/>
            <path id="Trazado_111152" data-name="Trazado 111152" d="M306.646,330.171s-8.2-7.817-12.252-13a10.99,10.99,0,0,1-1.861-9.886c1.848-6.214,5.123-12.656,5.426-13.659.454-1.533,9.665-1.47,9.665-1.47s18.113,11.76,25.235,31.67l-8.025,2.492a93.785,93.785,0,0,0-9.4-12.984s8.088,10.687,8.372,15.059Z" transform="translate(-282.142 -264.722)" fill="url(#linear-gradient-42)"/>
            <path id="Trazado_111153" data-name="Trazado 111153" d="M299.63,278.347c.095.315,2.524,8.284,2.688,8.448s5.268.442,7.659-1.2l-5.93-11.6Z" transform="translate(-284.93 -258.019)" fill="url(#linear-gradient-43)"/>
            <g id="Grupo_55148" data-name="Grupo 55148" transform="translate(0 1.433)">
              <path id="Trazado_111154" data-name="Trazado 111154" d="M284.241,262.926s-1.161,4.568,2.057,10.725,6.845,6.132,8.832,4.17,4.416-5.3,3.861-11.236S285.906,257.122,284.241,262.926Z" transform="translate(-279.175 -254.271)" fill="url(#linear-gradient-44)"/>
              <path id="Trazado_111155" data-name="Trazado 111155" d="M291.7,263.558s-5.325-8.151-10.328-1.741l-.088,2.334s-5.855-.694-4.833-6.063,6.088-8.725,12.618-6.4,10.252,4.713,10.675,9.381-3.293,3.647-3.293,3.647-1.218-3.293-2.94-3.634-1.262,2.221-1.262,2.221Z" transform="translate(-276.33 -250.941)" fill="url(#linear-gradient-45)"/>
              <path id="Trazado_111156" data-name="Trazado 111156" d="M302.153,267.921s-2.763-4.17.069-4.795,2.391,4.069,2.082,5.8Z" transform="translate(-285.416 -255.418)" fill="url(#linear-gradient-46)"/>
            </g>
            <path id="Trazado_111157" data-name="Trazado 111157" d="M288.66,349.3l6.031-5.81,8.347,3.527s8.3,1.262,13.059,0l4.751-1.262,10.725-3.35,1.691,4.77a2.871,2.871,0,0,1-1.054,3.3,18.622,18.622,0,0,1-2.713,1.691c-1.413.631-34.875-.429-34.875-.429Z" transform="translate(-280.881 -283.267)" fill="url(#linear-gradient-47)"/>
          </g>
          <g id="Grupo_55150" data-name="Grupo 55150" transform="translate(0 37.002)">
            <path id="Trazado_111158" data-name="Trazado 111158" d="M303.4,355.812h-.082l-34.989-.038a1.577,1.577,0,1,1,0-3.154l35,.038a1.578,1.578,0,1,1,.076,3.154Z" transform="translate(-234.568 -324.041)" fill="url(#linear-gradient-48)"/>
            <path id="Trazado_111159" data-name="Trazado 111159" d="M218.043,307.32h29.141a5.552,5.552,0,0,1,5.047,3.186l13.476,28.566H229.462a3.382,3.382,0,0,1-3.154-2.132L215.9,310.5a2.322,2.322,0,0,1,2.139-3.18Z" transform="translate(-215.739 -307.32)" fill="url(#linear-gradient-49)"/>
            <path id="Trazado_111160" data-name="Trazado 111160" d="M249.208,328.83c.631,1.962.164,3.867-1.041,4.252s-2.7-.883-3.331-2.845-.164-3.867,1.041-4.258S248.577,326.868,249.208,328.83Z" transform="translate(-226.375 -314.181)" fill="#7d97f4"/>
          </g>
        </g>
        <g id="Grupo_55155" data-name="Grupo 55155" transform="translate(182.919 8.294)">
          <g id="Grupo_55152" data-name="Grupo 55152" transform="translate(21.375 76.661)">
            <path id="Trazado_111161" data-name="Trazado 111161" d="M377.011,448.93a42.722,42.722,0,0,1,.511,4.46,1.893,1.893,0,0,1-1.729,2.025c-3.583.347-11.741.99-16.946.24a.877.877,0,0,1-.479-1.508,27.071,27.071,0,0,1,15.867-6.738Z" transform="translate(-358.091 -367.174)" fill="url(#linear-gradient-50)"/>
            <path id="Trazado_111162" data-name="Trazado 111162" d="M387.3,441.393l-1.811,4.416a1.476,1.476,0,0,1-1.52.915,8.2,8.2,0,0,1-1.476-.284,1.943,1.943,0,0,1-1.262-2.416l1.369-4.574Z" transform="translate(-366.601 -364.236)" fill="url(#linear-gradient-51)"/>
            <path id="Trazado_111163" data-name="Trazado 111163" d="M436.993,455.42a19.113,19.113,0,0,0-5.047,6.94,1.653,1.653,0,0,0,1.571,2.2h7.463a1.76,1.76,0,0,0,1.735-2.057C442.236,459.8,440.867,455.433,436.993,455.42Z" transform="translate(-385.319 -370.131)" fill="url(#linear-gradient-52)"/>
            <path id="Trazado_111164" data-name="Trazado 111164" d="M443.857,448.835s-.732,3.243-1.262,5.388a.688.688,0,0,1-.9.467,6.308,6.308,0,0,0-2.713-.5.53.53,0,0,1-.587-.524l-.069-5.388Z" transform="translate(-387.709 -367.495)" fill="url(#linear-gradient-53)"/>
            <path id="Trazado_111165" data-name="Trazado 111165" d="M403.6,328.621l-22.081,67.29s4.233,2.77,6.246,2.65L414,344.488s4.587,33.317,2.366,57.24l7.5.574s12.2-61.133,2.959-82.072Z" transform="translate(-366.739 -320.23)" fill="#12263f"/>
            <path id="Trazado_111166" data-name="Trazado 111166" d="M432.127,353.527h0a.208.208,0,0,0,.183-.24l-.852-6.795a.221.221,0,0,0-.24-.183.214.214,0,0,0-.189.24l.858,6.795A.214.214,0,0,0,432.127,353.527Z" transform="translate(-385.013 -329.856)" fill="url(#linear-gradient-54)"/>
          </g>
          <path id="Trazado_111167" data-name="Trazado 111167" d="M397.428,239.67s17.873,1.59,15.343,14.321a173.953,173.953,0,0,1,14.51,40.49,1.262,1.262,0,0,1-1.047,1.527l-29.759,5.1a1.609,1.609,0,0,1-1.823-1.18l-7.11-27.481-2.77,12.775-8.832-2.29,7.413-37.544S384.381,239.878,397.428,239.67Z" transform="translate(-343.304 -213.833)" fill="url(#linear-gradient-55)"/>
          <path id="Trazado_111168" data-name="Trazado 111168" d="M392.421,331.13h.05a.221.221,0,0,0,.17-.265l-2.486-11.387a.221.221,0,0,0-.265-.17.227.227,0,0,0-.164.265l2.479,11.356A.214.214,0,0,0,392.421,331.13Z" transform="translate(-348.392 -243.226)" fill="#dad5ed"/>
          <path id="Trazado_111169" data-name="Trazado 111169" d="M393.287,331.939a4.234,4.234,0,0,1,3.072-.4l2.069.511a.744.744,0,0,0,.927-.631L401.5,312.35c2.675,1.262,6.542,1.123,7.817,1.028l-4.934,22.485H387.13Z" transform="translate(-347.435 -240.661)" fill="url(#linear-gradient-56)"/>
          <path id="Trazado_111170" data-name="Trazado 111170" d="M324.21,270.245l.517-1.735a3.451,3.451,0,0,1,2.006-2.2l9.463-3.785s.139-1.211-1.994-2.031a2.851,2.851,0,0,1-1.64-3.218s2.921,1.331,7.192,3.445a9.968,9.968,0,0,1,4.536,4.946l21.381,26.056-2.524,1.729a6.7,6.7,0,0,1-9.716-2.385l-11.577-22.207a43.146,43.146,0,0,1-17.646,1.382Z" transform="translate(-324.21 -220.333)" fill="url(#linear-gradient-57)"/>
          <g id="Grupo_55154" data-name="Grupo 55154" transform="translate(27.66)">
            <path id="Trazado_111171" data-name="Trazado 111171" d="M397.461,220.295l5.5,15.381s-4.87,3.785-8.422,2.524l-2.77-8.832S393.883,218.6,397.461,220.295Z" transform="translate(-376.808 -206.615)" fill="url(#linear-gradient-58)"/>
            <g id="Grupo_55153" data-name="Grupo 55153">
              <path id="Trazado_111172" data-name="Trazado 111172" d="M374.79,209.855c0,.24,5.293,14.99,5.293,14.99l8.359-3.2-2.94-14.719S374.79,205.887,374.79,209.855Z" transform="translate(-370.54 -201.702)" fill="url(#linear-gradient-59)"/>
              <path id="Trazado_111173" data-name="Trazado 111173" d="M381.552,207.52l2.151,7.634a.941.941,0,0,1,.044.3c0,.631-.151,2.763-2.334,2.473-1.981-.265-3.785-.479-4.94.063a1.11,1.11,0,0,0-.574,1.375,48.166,48.166,0,0,0,3.009,6.795,1.11,1.11,0,0,0,1.426.454A35.608,35.608,0,0,0,387.5,222.4a1.1,1.1,0,0,0,.391-1.06c-.366-1.956-1.457-7.892-1.508-9.6-.044-1.6,1.747-2.814,2.523-3.274a1.072,1.072,0,0,0,.511-.688,2.87,2.87,0,0,0-2.523-3.867,1.1,1.1,0,0,1-.9-1.319,2.865,2.865,0,0,0-2.164-3.7,4.088,4.088,0,0,0-4.624,1.848,1.11,1.11,0,0,1-1.375.366.877.877,0,0,0-.984.177,1.091,1.091,0,0,1-1.6-.246,3.306,3.306,0,0,0-4.076-1.344c-3.785,1.218-3.6,5.571-2.208,7.943s5.4.808,7.306-.763c1.445-1.192,3.647-.479,4.618-.069a1.123,1.123,0,0,1,.662.719Z" transform="translate(-368.054 -198.717)" fill="url(#linear-gradient-60)"/>
              <path id="Trazado_111174" data-name="Trazado 111174" d="M397.572,220.087s-2.233-4.227-.757-5.552,3.981-1.11,3.918,2.2C400.644,220.857,397.572,220.087,397.572,220.087Z" transform="translate(-378.484 -204.275)" fill="url(#linear-gradient-61)"/>
            </g>
          </g>
          <path id="Trazado_111175" data-name="Trazado 111175" d="M415.22,344.822c1.224,0,2.095-.095,2.183-.1h.164l6.5-30.339a.223.223,0,1,0-.435-.095L417.2,344.324c-.972.088-6.145.429-8.87-1.508l5.634-26.358-1.173-2.214a.222.222,0,0,0-.391.208l1.1,2.076-5.678,26.5.114.082C409.921,344.538,413.1,344.822,415.22,344.822Z" transform="translate(-355.072 -241.311)" fill="#dad5ed"/>
        </g>
        <g id="Grupo_55156" data-name="Grupo 55156" transform="translate(46.847 110.962)">
          <path id="Trazado_111176" data-name="Trazado 111176" d="M109.67,424.263a1.047,1.047,0,0,1-.448-.1,1.262,1.262,0,0,1-.593-1.628L132.408,362.2a1.1,1.1,0,0,1,1.489-.631,1.262,1.262,0,0,1,.593,1.621l-23.772,60.338a1.123,1.123,0,0,1-1.047.732Z" transform="translate(-108.526 -361.461)" fill="url(#linear-gradient-62)"/>
          <path id="Trazado_111177" data-name="Trazado 111177" d="M138.22,424.256a1.129,1.129,0,0,1-1.041-.751L113.4,363.174a1.262,1.262,0,0,1,.593-1.621,1.1,1.1,0,0,1,1.489.631l23.778,60.332a1.262,1.262,0,0,1-.593,1.628,1.027,1.027,0,0,1-.448.114Z" transform="translate(-110.288 -361.454)" fill="url(#linear-gradient-63)"/>
          <path id="Trazado_111178" data-name="Trazado 111178" d="M365.46,424.263a1.073,1.073,0,0,1-.448-.1,1.262,1.262,0,0,1-.593-1.628L388.2,362.2a1.1,1.1,0,0,1,1.489-.631,1.262,1.262,0,0,1,.631,1.621l-23.778,60.332a1.142,1.142,0,0,1-1.079.738Z" transform="translate(-202.942 -361.461)" fill="url(#linear-gradient-64)"/>
          <path id="Trazado_111179" data-name="Trazado 111179" d="M394.01,424.256a1.129,1.129,0,0,1-1.041-.751l-23.778-60.332a1.262,1.262,0,0,1,.593-1.621,1.1,1.1,0,0,1,1.489.631l23.778,60.332a1.262,1.262,0,0,1-.593,1.628,1.028,1.028,0,0,1-.448.114Z" transform="translate(-204.704 -361.454)" fill="url(#linear-gradient-65)"/>
        </g>
        <g id="Grupo_55157" data-name="Grupo 55157" transform="translate(204.867 103.106)">
          <path id="Trazado_111180" data-name="Trazado 111180" d="M360.66,402.2H395.1V398.65H360.66C361.4,398.65,361.4,402.2,360.66,402.2Z" transform="translate(-359.613 -367.327)" fill="#dad5ed"/>
          <path id="Trazado_111181" data-name="Trazado 111181" d="M394.166,353.359a.322.322,0,0,0,.322-.322v-2.908a.322.322,0,0,0-.322-.328H359.322a.322.322,0,0,1-.322-.322v-.158a.322.322,0,0,1,.322-.322h37.14a1.489,1.489,0,0,1,1.489,1.489v2.3a1.4,1.4,0,0,1-1.407,1.4H359.322a.322.322,0,0,1-.322-.322v-.158a.322.322,0,0,1,.322-.322Z" transform="translate(-359 -349)" fill="url(#linear-gradient-66)"/>
        </g>
        <path id="Trazado_111182" data-name="Trazado 111182" d="M299.889,358.764a1.06,1.06,0,0,0-.429-1.123,2.581,2.581,0,0,0-1.577-.492H91.527a2.776,2.776,0,0,0-1.975.719,1.123,1.123,0,0,0-.158,1.5l2.24,3.211a3.5,3.5,0,0,0,2.839,1.2h202a2.348,2.348,0,0,0,2.328-1.262Z" transform="translate(-54.538 -248.901)" fill="url(#linear-gradient-67)"/>
      </g>
    </g>
  </g>
</svg>
