<svg xmlns="http://www.w3.org/2000/svg" width="679.298" height="547.211" viewBox="0 0 679.298 547.211">
  <g id="Grupo_18918" data-name="Grupo 18918" transform="translate(-549.202 -7733)">
    <g id="Grupo_18868" data-name="Grupo 18868">
      <path id="Trazado_34095" data-name="Trazado 34095" d="M6197.719,6332v502.508h614.766" transform="translate(-5603 1418)" fill="none" stroke="#472ea6" stroke-width="2"/>
      <path id="Trazado_34096" data-name="Trazado 34096" d="M6595.115,6257.84l332.285-39.769,174.054-20.831" transform="translate(-5957 1894.082)" fill="none" stroke="#fd8f25" stroke-width="2"/>
      <path id="Trazado_34097" data-name="Trazado 34097" d="M6650.911,6495.136l172.339-452.818" transform="translate(-5958 1726.682)" fill="none" stroke="#fd8f25" stroke-width="2"/>
      <path id="Trazado_35268" data-name="Trazado 35268" d="M7.269.176a6.9,6.9,0,0,1-3.335-.8,5.766,5.766,0,0,1-2.316-2.29A6.886,6.886,0,0,1,.773-6.354,6.879,6.879,0,0,1,1.617-9.8a5.744,5.744,0,0,1,2.316-2.281,6.935,6.935,0,0,1,3.335-.791,6.909,6.909,0,0,1,3.331.791A5.752,5.752,0,0,1,12.911-9.8a6.879,6.879,0,0,1,.844,3.45,6.886,6.886,0,0,1-.844,3.445A5.766,5.766,0,0,1,10.6-.62,6.885,6.885,0,0,1,7.269.176ZM4.491-3.349A3.73,3.73,0,0,0,7.269-2.241a3.723,3.723,0,0,0,2.777-1.112,4.1,4.1,0,0,0,1.09-3,4.075,4.075,0,0,0-1.09-2.988A3.73,3.73,0,0,0,7.269-10.45,3.73,3.73,0,0,0,4.491-9.343,4.075,4.075,0,0,0,3.4-6.354,4.118,4.118,0,0,0,4.491-3.349Zm14.467,1.09h5.414V0H15.416V-1.907L20.47-7.066a3.18,3.18,0,0,0,1.1-2.188,1.548,1.548,0,0,0-.453-1.178,1.782,1.782,0,0,0-1.279-.431q-1.8,0-1.8,2.048v.94L15.513-8.13v-.633a3.961,3.961,0,0,1,1.16-3.054,4.443,4.443,0,0,1,3.146-1.077,4.655,4.655,0,0,1,3.063.976,3.288,3.288,0,0,1,1.182,2.681,3.8,3.8,0,0,1-.4,1.74,7.274,7.274,0,0,1-1.27,1.7Z" transform="translate(1163 8097)" fill="#00223d"/>
      <path id="Trazado_35269" data-name="Trazado 35269" d="M7.269.176a6.9,6.9,0,0,1-3.335-.8,5.766,5.766,0,0,1-2.316-2.29A6.886,6.886,0,0,1,.773-6.354,6.879,6.879,0,0,1,1.617-9.8a5.744,5.744,0,0,1,2.316-2.281,6.935,6.935,0,0,1,3.335-.791,6.909,6.909,0,0,1,3.331.791A5.752,5.752,0,0,1,12.911-9.8a6.879,6.879,0,0,1,.844,3.45,6.886,6.886,0,0,1-.844,3.445A5.766,5.766,0,0,1,10.6-.62,6.885,6.885,0,0,1,7.269.176ZM4.491-3.349A3.73,3.73,0,0,0,7.269-2.241a3.723,3.723,0,0,0,2.777-1.112,4.1,4.1,0,0,0,1.09-3,4.075,4.075,0,0,0-1.09-2.988A3.73,3.73,0,0,0,7.269-10.45,3.73,3.73,0,0,0,4.491-9.343,4.075,4.075,0,0,0,3.4-6.354,4.118,4.118,0,0,0,4.491-3.349ZM19.564-12.7h2.408V0H19.45V-10.1L16.532-7.383v-2.6Z" transform="translate(853 7756)" fill="#00223d"/>
      <path id="Trazado_35270" data-name="Trazado 35270" d="M7.269.176a6.9,6.9,0,0,1-3.335-.8,5.766,5.766,0,0,1-2.316-2.29A6.886,6.886,0,0,1,.773-6.354,6.879,6.879,0,0,1,1.617-9.8a5.744,5.744,0,0,1,2.316-2.281,6.935,6.935,0,0,1,3.335-.791,6.909,6.909,0,0,1,3.331.791A5.752,5.752,0,0,1,12.911-9.8a6.879,6.879,0,0,1,.844,3.45,6.886,6.886,0,0,1-.844,3.445A5.766,5.766,0,0,1,10.6-.62,6.885,6.885,0,0,1,7.269.176ZM4.491-3.349A3.73,3.73,0,0,0,7.269-2.241a3.723,3.723,0,0,0,2.777-1.112,4.1,4.1,0,0,0,1.09-3,4.075,4.075,0,0,0-1.09-2.988A3.73,3.73,0,0,0,7.269-10.45,3.73,3.73,0,0,0,4.491-9.343,4.075,4.075,0,0,0,3.4-6.354,4.118,4.118,0,0,0,4.491-3.349Zm16.453-8.13h-.053q-.246,0-.374,0t-.36.031a1.459,1.459,0,0,0-.365.079,1.859,1.859,0,0,0-.3.163.809.809,0,0,0-.264.264,1.593,1.593,0,0,0-.158.391A2.042,2.042,0,0,0,19-10v.967h1.942v1.942H19V0H16.479V-7.093H14.713V-9.035h1.767v-.976a5.284,5.284,0,0,1,.114-1.151,3.5,3.5,0,0,1,.308-.875,2.047,2.047,0,0,1,.514-.628,3.034,3.034,0,0,1,.668-.422,3.817,3.817,0,0,1,.831-.255,7.285,7.285,0,0,1,.954-.127q.47-.031,1.077-.031Zm9.9,6.829-.026.606h-6.7a2.339,2.339,0,0,0,.721,1.652,2.3,2.3,0,0,0,1.591.571,2.221,2.221,0,0,0,1.191-.312,1.918,1.918,0,0,0,.76-.91L30.7-2.7A3.945,3.945,0,0,1,29.118-.58a4.7,4.7,0,0,1-2.672.756,4.891,4.891,0,0,1-3.52-1.244,4.538,4.538,0,0,1-1.305-3.45,4.565,4.565,0,0,1,1.31-3.45,4.746,4.746,0,0,1,3.437-1.261A4.536,4.536,0,0,1,29.61-8.077,4.517,4.517,0,0,1,30.841-4.649ZM26.385-7.436a2,2,0,0,0-2.2,1.74h4.148a1.9,1.9,0,0,0-.624-1.292A1.978,1.978,0,0,0,26.385-7.436ZM35.191-7.6a2.933,2.933,0,0,1,1.187-1.085,3.62,3.62,0,0,1,1.767-.453v2.259a3.423,3.423,0,0,0-2.162.545A2.379,2.379,0,0,0,35.314-4.4V0H32.766V-9.035h2.426ZM43.515,0a2.729,2.729,0,0,1-2.039-.734,2.854,2.854,0,0,1-.721-2.087V-7.093H38.979V-9.035h.571a1.491,1.491,0,0,0,1.125-.378,1.946,1.946,0,0,0,.36-1.345v-1.2h2.285v2.918h1.863v1.942H43.321v4q0,1.169,1.046,1.169h.817V0Zm11-2.452a8.453,8.453,0,0,0,.22,2.206V0H52.374l-.2-.984a2.938,2.938,0,0,1-1.266.87,4.664,4.664,0,0,1-1.635.29A4.3,4.3,0,0,1,48.428.1a2.868,2.868,0,0,1-.76-.268,2.307,2.307,0,0,1-.628-.47,2.062,2.062,0,0,1-.422-.716,2.853,2.853,0,0,1-.158-.98,2.718,2.718,0,0,1,.167-.98,2.3,2.3,0,0,1,.439-.734,2.666,2.666,0,0,1,.712-.536,5.447,5.447,0,0,1,.9-.387,10.712,10.712,0,0,1,1.072-.281l1.485-.334a1.638,1.638,0,0,0,.672-.286.57.57,0,0,0,.2-.453.932.932,0,0,0-.444-.87,2.072,2.072,0,0,0-1.077-.264,1.549,1.549,0,0,0-1.767,1.38l-2.241-.4a3.034,3.034,0,0,1,1.31-2.061,5.2,5.2,0,0,1,2.839-.664q3.8,0,3.8,3.261Zm-4.456.914a2.036,2.036,0,0,0,1.564-.655,2.759,2.759,0,0,0,.606-1.938l-2.145.606a2.534,2.534,0,0,0-.9.369.758.758,0,0,0-.312.65.842.842,0,0,0,.334.716A1.382,1.382,0,0,0,50.063-1.538Zm12.885-8.851a1.421,1.421,0,0,1-1.037-.426,1.4,1.4,0,0,1-.431-1.033,1.382,1.382,0,0,1,.435-1.024,1.425,1.425,0,0,1,1.033-.426,1.4,1.4,0,0,1,1.02.426,1.389,1.389,0,0,1,.431,1.024,1.4,1.4,0,0,1-.431,1.033A1.4,1.4,0,0,1,62.947-10.389ZM61.655,0V-9.035H64.2V0Zm10.5-9.211a3.522,3.522,0,0,1,2.5.813,3.014,3.014,0,0,1,.87,2.316V0h-2.54V-5.537a1.574,1.574,0,0,0-.453-1.248,1.705,1.705,0,0,0-1.165-.4,2.379,2.379,0,0,0-.756.114,1.942,1.942,0,0,0-.633.356,1.573,1.573,0,0,0-.453.681,3.15,3.15,0,0,0-.171,1.046V0H66.823V-9.035h2.531v1A3.481,3.481,0,0,1,72.158-9.211ZM86.476-4.649l-.026.606h-6.7a2.339,2.339,0,0,0,.721,1.652,2.3,2.3,0,0,0,1.591.571,2.221,2.221,0,0,0,1.191-.312,1.918,1.918,0,0,0,.76-.91l2.32.343A3.945,3.945,0,0,1,84.753-.58a4.7,4.7,0,0,1-2.672.756,4.891,4.891,0,0,1-3.52-1.244,4.538,4.538,0,0,1-1.305-3.45,4.565,4.565,0,0,1,1.31-3.45A4.746,4.746,0,0,1,82-9.229a4.536,4.536,0,0,1,3.243,1.151A4.517,4.517,0,0,1,86.476-4.649ZM82.02-7.436a2,2,0,0,0-2.2,1.74h4.148a1.9,1.9,0,0,0-.624-1.292A1.978,1.978,0,0,0,82.02-7.436ZM88.4,0V-13.5h2.558V0ZM100-12.63l-2,2.355H96.451l2.3-3.234Zm.984,10.178a8.453,8.453,0,0,0,.22,2.206V0H98.842l-.2-.984a2.938,2.938,0,0,1-1.266.87,4.664,4.664,0,0,1-1.635.29A4.3,4.3,0,0,1,94.9.1a2.868,2.868,0,0,1-.76-.268,2.307,2.307,0,0,1-.628-.47,2.062,2.062,0,0,1-.422-.716,2.853,2.853,0,0,1-.158-.98,2.718,2.718,0,0,1,.167-.98,2.3,2.3,0,0,1,.439-.734,2.666,2.666,0,0,1,.712-.536,5.447,5.447,0,0,1,.9-.387,10.712,10.712,0,0,1,1.072-.281L97.7-5.59a1.638,1.638,0,0,0,.672-.286.57.57,0,0,0,.2-.453.932.932,0,0,0-.444-.87,2.072,2.072,0,0,0-1.077-.264,1.549,1.549,0,0,0-1.767,1.38l-2.241-.4a3.034,3.034,0,0,1,1.31-2.061,5.2,5.2,0,0,1,2.839-.664q3.8,0,3.8,3.261Zm-4.456.914a2.036,2.036,0,0,0,1.564-.655A2.759,2.759,0,0,0,98.7-4.131l-2.145.606a2.534,2.534,0,0,0-.9.369.758.758,0,0,0-.312.65.842.842,0,0,0,.334.716A1.382,1.382,0,0,0,96.53-1.538Zm10.1,1.714a5.049,5.049,0,0,1-2.637-.633A2.675,2.675,0,0,1,102.7-2.338l2.118-.6a1.7,1.7,0,0,0,1.811,1.345,1.87,1.87,0,0,0,.923-.207.719.719,0,0,0,.36-.7.739.739,0,0,0-.149-.466A1.183,1.183,0,0,0,107.3-3.3a5.749,5.749,0,0,0-.615-.237q-.3-.1-.8-.233t-.835-.259a5.593,5.593,0,0,1-.8-.338,3.393,3.393,0,0,1-.659-.466,1.878,1.878,0,0,1-.492-.708,2.552,2.552,0,0,1-.171-.967,2.308,2.308,0,0,1,.98-2.021,4.379,4.379,0,0,1,2.562-.686,4.489,4.489,0,0,1,2.364.58,2.625,2.625,0,0,1,1.213,1.811l-1.96.439a1.535,1.535,0,0,0-1.608-1.143,1.761,1.761,0,0,0-.888.2.649.649,0,0,0-.352.6.685.685,0,0,0,.053.272.539.539,0,0,0,.185.22,2.692,2.692,0,0,0,.255.167,1.923,1.923,0,0,0,.36.145q.237.075.4.114l.461.119.47.123q.483.132.848.264a4.967,4.967,0,0,1,.778.369,2.792,2.792,0,0,1,.681.532,2.372,2.372,0,0,1,.444.747,2.759,2.759,0,0,1,.176,1.006,2.718,2.718,0,0,1-.3,1.31,2.276,2.276,0,0,1-.831.883,4.043,4.043,0,0,1-1.173.475A6.087,6.087,0,0,1,106.629.176Zm8.9-.176a2.729,2.729,0,0,1-2.039-.734,2.854,2.854,0,0,1-.721-2.087V-7.093H111V-9.035h.571a1.491,1.491,0,0,0,1.125-.378,1.946,1.946,0,0,0,.36-1.345v-1.2h2.285v2.918H117.2v1.942h-1.863v4q0,1.169,1.046,1.169h.817V0Zm4.922-10.389a1.421,1.421,0,0,1-1.037-.426,1.4,1.4,0,0,1-.431-1.033,1.382,1.382,0,0,1,.435-1.024,1.425,1.425,0,0,1,1.033-.426,1.4,1.4,0,0,1,1.02.426,1.389,1.389,0,0,1,.431,1.024,1.4,1.4,0,0,1-.431,1.033A1.4,1.4,0,0,1,120.454-10.389ZM119.162,0V-9.035h2.549V0Zm9.255.167a4.827,4.827,0,0,1-3.489-1.3,4.493,4.493,0,0,1-1.354-3.393,4.483,4.483,0,0,1,1.349-3.393,4.842,4.842,0,0,1,3.494-1.292,4.814,4.814,0,0,1,2.927.87,3.885,3.885,0,0,1,1.512,2.452l-2.338.255a2,2,0,0,0-.756-1.187,2.3,2.3,0,0,0-1.371-.4,2.072,2.072,0,0,0-1.652.738,2.894,2.894,0,0,0-.633,1.951,2.9,2.9,0,0,0,.633,1.947,2.067,2.067,0,0,0,1.652.743,2.278,2.278,0,0,0,1.367-.4,2.05,2.05,0,0,0,.76-1.187l2.338.255a3.9,3.9,0,0,1-1.525,2.452A4.8,4.8,0,0,1,128.417.167Zm13.649-2.619a8.453,8.453,0,0,0,.22,2.206V0h-2.364l-.2-.984a2.938,2.938,0,0,1-1.266.87,4.664,4.664,0,0,1-1.635.29A4.3,4.3,0,0,1,135.976.1a2.868,2.868,0,0,1-.76-.268,2.307,2.307,0,0,1-.628-.47,2.062,2.062,0,0,1-.422-.716,2.853,2.853,0,0,1-.158-.98,2.718,2.718,0,0,1,.167-.98,2.3,2.3,0,0,1,.439-.734,2.666,2.666,0,0,1,.712-.536,5.447,5.447,0,0,1,.9-.387,10.712,10.712,0,0,1,1.072-.281l1.485-.334a1.638,1.638,0,0,0,.672-.286.57.57,0,0,0,.2-.453.932.932,0,0,0-.444-.87,2.072,2.072,0,0,0-1.077-.264,1.549,1.549,0,0,0-1.767,1.38l-2.241-.4a3.034,3.034,0,0,1,1.31-2.061,5.2,5.2,0,0,1,2.839-.664q3.8,0,3.8,3.261Zm-4.456.914a2.036,2.036,0,0,0,1.564-.655,2.759,2.759,0,0,0,.606-1.938l-2.145.606a2.534,2.534,0,0,0-.9.369.758.758,0,0,0-.312.65.842.842,0,0,0,.334.716A1.382,1.382,0,0,0,137.61-1.538Z" transform="translate(891 7833)" fill="#00223d"/>
      <path id="Trazado_35271" data-name="Trazado 35271" d="M7.269.176a6.9,6.9,0,0,1-3.335-.8,5.766,5.766,0,0,1-2.316-2.29A6.886,6.886,0,0,1,.773-6.354,6.879,6.879,0,0,1,1.617-9.8a5.744,5.744,0,0,1,2.316-2.281,6.935,6.935,0,0,1,3.335-.791,6.909,6.909,0,0,1,3.331.791A5.752,5.752,0,0,1,12.911-9.8a6.879,6.879,0,0,1,.844,3.45,6.886,6.886,0,0,1-.844,3.445A5.766,5.766,0,0,1,10.6-.62,6.885,6.885,0,0,1,7.269.176ZM4.491-3.349A3.73,3.73,0,0,0,7.269-2.241a3.723,3.723,0,0,0,2.777-1.112,4.1,4.1,0,0,0,1.09-3,4.075,4.075,0,0,0-1.09-2.988A3.73,3.73,0,0,0,7.269-10.45,3.73,3.73,0,0,0,4.491-9.343,4.075,4.075,0,0,0,3.4-6.354,4.118,4.118,0,0,0,4.491-3.349Zm16.453-8.13h-.053q-.246,0-.374,0t-.36.031a1.459,1.459,0,0,0-.365.079,1.859,1.859,0,0,0-.3.163.809.809,0,0,0-.264.264,1.593,1.593,0,0,0-.158.391A2.042,2.042,0,0,0,19-10v.967h1.942v1.942H19V0H16.479V-7.093H14.713V-9.035h1.767v-.976a5.284,5.284,0,0,1,.114-1.151,3.5,3.5,0,0,1,.308-.875,2.047,2.047,0,0,1,.514-.628,3.034,3.034,0,0,1,.668-.422,3.817,3.817,0,0,1,.831-.255,7.285,7.285,0,0,1,.954-.127q.47-.031,1.077-.031Zm9.9,6.829-.026.606h-6.7a2.339,2.339,0,0,0,.721,1.652,2.3,2.3,0,0,0,1.591.571,2.221,2.221,0,0,0,1.191-.312,1.918,1.918,0,0,0,.76-.91L30.7-2.7A3.945,3.945,0,0,1,29.118-.58a4.7,4.7,0,0,1-2.672.756,4.891,4.891,0,0,1-3.52-1.244,4.538,4.538,0,0,1-1.305-3.45,4.565,4.565,0,0,1,1.31-3.45,4.746,4.746,0,0,1,3.437-1.261A4.536,4.536,0,0,1,29.61-8.077,4.517,4.517,0,0,1,30.841-4.649ZM26.385-7.436a2,2,0,0,0-2.2,1.74h4.148a1.9,1.9,0,0,0-.624-1.292A1.978,1.978,0,0,0,26.385-7.436ZM35.191-7.6a2.933,2.933,0,0,1,1.187-1.085,3.62,3.62,0,0,1,1.767-.453v2.259a3.423,3.423,0,0,0-2.162.545A2.379,2.379,0,0,0,35.314-4.4V0H32.766V-9.035h2.426ZM43.515,0a2.729,2.729,0,0,1-2.039-.734,2.854,2.854,0,0,1-.721-2.087V-7.093H38.979V-9.035h.571a1.491,1.491,0,0,0,1.125-.378,1.946,1.946,0,0,0,.36-1.345v-1.2h2.285v2.918h1.863v1.942H43.321v4q0,1.169,1.046,1.169h.817V0Zm11-2.452a8.453,8.453,0,0,0,.22,2.206V0H52.374l-.2-.984a2.938,2.938,0,0,1-1.266.87,4.664,4.664,0,0,1-1.635.29A4.3,4.3,0,0,1,48.428.1a2.868,2.868,0,0,1-.76-.268,2.307,2.307,0,0,1-.628-.47,2.062,2.062,0,0,1-.422-.716,2.853,2.853,0,0,1-.158-.98,2.718,2.718,0,0,1,.167-.98,2.3,2.3,0,0,1,.439-.734,2.666,2.666,0,0,1,.712-.536,5.447,5.447,0,0,1,.9-.387,10.712,10.712,0,0,1,1.072-.281l1.485-.334a1.638,1.638,0,0,0,.672-.286.57.57,0,0,0,.2-.453.932.932,0,0,0-.444-.87,2.072,2.072,0,0,0-1.077-.264,1.549,1.549,0,0,0-1.767,1.38l-2.241-.4a3.034,3.034,0,0,1,1.31-2.061,5.2,5.2,0,0,1,2.839-.664q3.8,0,3.8,3.261Zm-4.456.914a2.036,2.036,0,0,0,1.564-.655,2.759,2.759,0,0,0,.606-1.938l-2.145.606a2.534,2.534,0,0,0-.9.369.758.758,0,0,0-.312.65.842.842,0,0,0,.334.716A1.382,1.382,0,0,0,50.063-1.538ZM70.154-4.649l-.026.606h-6.7a2.339,2.339,0,0,0,.721,1.652,2.3,2.3,0,0,0,1.591.571,2.221,2.221,0,0,0,1.191-.312,1.918,1.918,0,0,0,.76-.91l2.32.343A3.945,3.945,0,0,1,68.432-.58,4.7,4.7,0,0,1,65.76.176a4.891,4.891,0,0,1-3.52-1.244,4.538,4.538,0,0,1-1.305-3.45,4.565,4.565,0,0,1,1.31-3.45,4.746,4.746,0,0,1,3.437-1.261,4.536,4.536,0,0,1,3.243,1.151A4.517,4.517,0,0,1,70.154-4.649ZM65.7-7.436A2,2,0,0,0,63.5-5.7h4.148a1.9,1.9,0,0,0-.624-1.292A1.978,1.978,0,0,0,65.7-7.436ZM72.079,0V-13.5h2.558V0Zm11.6-12.63-2,2.355H80.13l2.3-3.234Zm.984,10.178a8.453,8.453,0,0,0,.22,2.206V0H82.521l-.2-.984a2.938,2.938,0,0,1-1.266.87,4.664,4.664,0,0,1-1.635.29A4.3,4.3,0,0,1,78.574.1a2.868,2.868,0,0,1-.76-.268,2.307,2.307,0,0,1-.628-.47,2.062,2.062,0,0,1-.422-.716,2.853,2.853,0,0,1-.158-.98,2.718,2.718,0,0,1,.167-.98,2.3,2.3,0,0,1,.439-.734,2.666,2.666,0,0,1,.712-.536,5.447,5.447,0,0,1,.9-.387,10.712,10.712,0,0,1,1.072-.281l1.485-.334a1.638,1.638,0,0,0,.672-.286.57.57,0,0,0,.2-.453A.932.932,0,0,0,81.8-7.2a2.072,2.072,0,0,0-1.077-.264,1.549,1.549,0,0,0-1.767,1.38l-2.241-.4a3.034,3.034,0,0,1,1.31-2.061,5.2,5.2,0,0,1,2.839-.664q3.8,0,3.8,3.261Zm-4.456.914a2.036,2.036,0,0,0,1.564-.655,2.759,2.759,0,0,0,.606-1.938l-2.145.606a2.534,2.534,0,0,0-.9.369.758.758,0,0,0-.312.65.842.842,0,0,0,.334.716A1.382,1.382,0,0,0,80.209-1.538ZM90.308.176a5.049,5.049,0,0,1-2.637-.633,2.675,2.675,0,0,1-1.292-1.881l2.118-.6a1.7,1.7,0,0,0,1.811,1.345A1.87,1.87,0,0,0,91.23-1.8a.719.719,0,0,0,.36-.7.739.739,0,0,0-.149-.466A1.183,1.183,0,0,0,90.98-3.3a5.749,5.749,0,0,0-.615-.237q-.3-.1-.8-.233t-.835-.259a5.593,5.593,0,0,1-.8-.338,3.393,3.393,0,0,1-.659-.466,1.878,1.878,0,0,1-.492-.708,2.552,2.552,0,0,1-.171-.967,2.308,2.308,0,0,1,.98-2.021,4.379,4.379,0,0,1,2.562-.686,4.489,4.489,0,0,1,2.364.58A2.625,2.625,0,0,1,93.727-6.82l-1.96.439a1.535,1.535,0,0,0-1.608-1.143,1.761,1.761,0,0,0-.888.2.649.649,0,0,0-.352.6.685.685,0,0,0,.053.272.539.539,0,0,0,.185.22,2.692,2.692,0,0,0,.255.167,1.923,1.923,0,0,0,.36.145q.237.075.4.114l.461.119.47.123q.483.132.848.264a4.967,4.967,0,0,1,.778.369,2.792,2.792,0,0,1,.681.532,2.372,2.372,0,0,1,.444.747,2.759,2.759,0,0,1,.176,1.006,2.718,2.718,0,0,1-.3,1.31,2.276,2.276,0,0,1-.831.883,4.043,4.043,0,0,1-1.173.475A6.087,6.087,0,0,1,90.308.176ZM99.211,0a2.729,2.729,0,0,1-2.039-.734,2.854,2.854,0,0,1-.721-2.087V-7.093H94.676V-9.035h.571a1.491,1.491,0,0,0,1.125-.378,1.946,1.946,0,0,0,.36-1.345v-1.2h2.285v2.918h1.863v1.942H99.018v4q0,1.169,1.046,1.169h.817V0Zm4.922-10.389a1.421,1.421,0,0,1-1.037-.426,1.4,1.4,0,0,1-.431-1.033,1.382,1.382,0,0,1,.435-1.024,1.425,1.425,0,0,1,1.033-.426,1.4,1.4,0,0,1,1.02.426,1.389,1.389,0,0,1,.431,1.024,1.4,1.4,0,0,1-.431,1.033A1.4,1.4,0,0,1,104.133-10.389ZM102.841,0V-9.035h2.549V0ZM112.1.167a4.827,4.827,0,0,1-3.489-1.3,4.493,4.493,0,0,1-1.354-3.393A4.483,4.483,0,0,1,108.6-7.919,4.842,4.842,0,0,1,112.1-9.211a4.814,4.814,0,0,1,2.927.87,3.885,3.885,0,0,1,1.512,2.452l-2.338.255a2,2,0,0,0-.756-1.187,2.3,2.3,0,0,0-1.371-.4,2.072,2.072,0,0,0-1.652.738,2.894,2.894,0,0,0-.633,1.951,2.9,2.9,0,0,0,.633,1.947,2.067,2.067,0,0,0,1.652.743,2.278,2.278,0,0,0,1.367-.4,2.05,2.05,0,0,0,.76-1.187l2.338.255a3.9,3.9,0,0,1-1.525,2.452A4.8,4.8,0,0,1,112.1.167Zm13.649-2.619a8.453,8.453,0,0,0,.22,2.206V0H123.6l-.2-.984a2.938,2.938,0,0,1-1.266.87,4.664,4.664,0,0,1-1.635.29A4.3,4.3,0,0,1,119.654.1a2.868,2.868,0,0,1-.76-.268,2.307,2.307,0,0,1-.628-.47,2.062,2.062,0,0,1-.422-.716,2.853,2.853,0,0,1-.158-.98,2.718,2.718,0,0,1,.167-.98,2.3,2.3,0,0,1,.439-.734A2.666,2.666,0,0,1,119-4.588a5.447,5.447,0,0,1,.9-.387,10.712,10.712,0,0,1,1.072-.281l1.485-.334a1.638,1.638,0,0,0,.672-.286.57.57,0,0,0,.2-.453.932.932,0,0,0-.444-.87,2.072,2.072,0,0,0-1.077-.264,1.549,1.549,0,0,0-1.767,1.38l-2.241-.4a3.034,3.034,0,0,1,1.31-2.061,5.2,5.2,0,0,1,2.839-.664q3.8,0,3.8,3.261Zm-4.456.914a2.036,2.036,0,0,0,1.564-.655,2.759,2.759,0,0,0,.606-1.938l-2.145.606a2.534,2.534,0,0,0-.9.369.758.758,0,0,0-.312.65.842.842,0,0,0,.334.716A1.382,1.382,0,0,0,121.289-1.538Z" transform="translate(988 8169)" fill="#00223d"/>
      <g id="Grupo_18517" data-name="Grupo 18517" transform="translate(1022.073 8147.888) rotate(-150)">
        <path id="Trazado_34086" data-name="Trazado 34086" d="M6613.148,3118.828H6638" transform="translate(-6613.148 -3113.5)" fill="none" stroke="#472ea6" stroke-width="2"/>
        <path id="Polígono_19" data-name="Polígono 19" d="M5.5,0,11,10H0Z" transform="translate(32.5) rotate(90)" fill="#472ea6"/>
      </g>
      <g id="Grupo_18518" data-name="Grupo 18518" transform="translate(911.573 7847.638) rotate(150)">
        <path id="Trazado_34086-2" data-name="Trazado 34086" d="M6613.148,3118.828H6638" transform="translate(-6613.148 -3113.5)" fill="none" stroke="#472ea6" stroke-width="2"/>
        <path id="Polígono_19-2" data-name="Polígono 19" d="M5.5,0,11,10H0Z" transform="translate(32.5) rotate(90)" fill="#472ea6"/>
      </g>
      <path id="Trazado_35272" data-name="Trazado 35272" d="M7.269.176a6.9,6.9,0,0,1-3.335-.8,5.766,5.766,0,0,1-2.316-2.29A6.886,6.886,0,0,1,.773-6.354,6.879,6.879,0,0,1,1.617-9.8a5.744,5.744,0,0,1,2.316-2.281,6.935,6.935,0,0,1,3.335-.791,6.909,6.909,0,0,1,3.331.791A5.752,5.752,0,0,1,12.911-9.8a6.879,6.879,0,0,1,.844,3.45,6.886,6.886,0,0,1-.844,3.445A5.766,5.766,0,0,1,10.6-.62,6.885,6.885,0,0,1,7.269.176ZM4.491-3.349A3.73,3.73,0,0,0,7.269-2.241a3.723,3.723,0,0,0,2.777-1.112,4.1,4.1,0,0,0,1.09-3,4.075,4.075,0,0,0-1.09-2.988A3.73,3.73,0,0,0,7.269-10.45,3.73,3.73,0,0,0,4.491-9.343,4.075,4.075,0,0,0,3.4-6.354,4.118,4.118,0,0,0,4.491-3.349Z" transform="translate(587 8280)" fill="#00223d"/>
      <path id="Trazado_35273" data-name="Trazado 35273" d="M7.269.176A7.089,7.089,0,0,1,4.68-.29a6.087,6.087,0,0,1-2.061-1.3A5.864,5.864,0,0,1,1.266-3.656a7.2,7.2,0,0,1-.492-2.7A6.879,6.879,0,0,1,1.617-9.8a5.744,5.744,0,0,1,2.316-2.281,6.935,6.935,0,0,1,3.335-.791A6.739,6.739,0,0,1,11-11.848a5.629,5.629,0,0,1,2.276,2.83l-2.461.9A3.479,3.479,0,0,0,9.448-9.835a3.891,3.891,0,0,0-2.18-.615A3.73,3.73,0,0,0,4.491-9.343,4.075,4.075,0,0,0,3.4-6.354,4.081,4.081,0,0,0,4.5-3.362,3.726,3.726,0,0,0,7.269-2.25a3.876,3.876,0,0,0,2.175-.62,3.5,3.5,0,0,0,1.367-1.718l2.461.9A5.652,5.652,0,0,1,11-.857,6.718,6.718,0,0,1,7.269.176Zm15.24-2.628a8.453,8.453,0,0,0,.22,2.206V0H20.364l-.2-.984a2.938,2.938,0,0,1-1.266.87,4.664,4.664,0,0,1-1.635.29A4.3,4.3,0,0,1,16.418.1a2.868,2.868,0,0,1-.76-.268,2.307,2.307,0,0,1-.628-.47,2.062,2.062,0,0,1-.422-.716,2.853,2.853,0,0,1-.158-.98,2.718,2.718,0,0,1,.167-.98,2.3,2.3,0,0,1,.439-.734,2.666,2.666,0,0,1,.712-.536,5.447,5.447,0,0,1,.9-.387,10.712,10.712,0,0,1,1.072-.281l1.485-.334a1.638,1.638,0,0,0,.672-.286.57.57,0,0,0,.2-.453.932.932,0,0,0-.444-.87,2.072,2.072,0,0,0-1.077-.264A1.549,1.549,0,0,0,16.8-6.082l-2.241-.4a3.034,3.034,0,0,1,1.31-2.061,5.2,5.2,0,0,1,2.839-.664q3.8,0,3.8,3.261Zm-4.456.914a2.036,2.036,0,0,0,1.564-.655,2.759,2.759,0,0,0,.606-1.938l-2.145.606a2.534,2.534,0,0,0-.9.369.758.758,0,0,0-.312.65.842.842,0,0,0,.334.716A1.382,1.382,0,0,0,18.053-1.538ZM30.3-9.211a3.522,3.522,0,0,1,2.5.813,3.014,3.014,0,0,1,.87,2.316V0h-2.54V-5.537a1.574,1.574,0,0,0-.453-1.248,1.705,1.705,0,0,0-1.165-.4,2.379,2.379,0,0,0-.756.114,1.942,1.942,0,0,0-.633.356,1.573,1.573,0,0,0-.453.681A3.15,3.15,0,0,0,27.5-4.983V0H24.97V-9.035H27.5v1A3.481,3.481,0,0,1,30.3-9.211ZM39.489,0A2.729,2.729,0,0,1,37.45-.734a2.854,2.854,0,0,1-.721-2.087V-7.093H34.954V-9.035h.571a1.491,1.491,0,0,0,1.125-.378,1.946,1.946,0,0,0,.36-1.345v-1.2H39.3v2.918h1.863v1.942H39.3v4q0,1.169,1.046,1.169h.817V0Zm4.922-10.389a1.421,1.421,0,0,1-1.037-.426,1.4,1.4,0,0,1-.431-1.033,1.382,1.382,0,0,1,.435-1.024,1.425,1.425,0,0,1,1.033-.426,1.4,1.4,0,0,1,1.02.426,1.389,1.389,0,0,1,.431,1.024,1.4,1.4,0,0,1-.431,1.033A1.4,1.4,0,0,1,44.411-10.389ZM43.119,0V-9.035h2.549V0ZM54.694-13.5h2.531V0h-2.4l-.062-1.178A2.58,2.58,0,0,1,53.618-.154a3.861,3.861,0,0,1-1.692.365,4.394,4.394,0,0,1-1.687-.325,4.189,4.189,0,0,1-1.384-.918,4.187,4.187,0,0,1-.936-1.49A5.5,5.5,0,0,1,47.575-4.5a5.137,5.137,0,0,1,.6-2.518A4.1,4.1,0,0,1,49.75-8.657a4.345,4.345,0,0,1,2.175-.554,3.957,3.957,0,0,1,1.639.33,2.559,2.559,0,0,1,1.129.936ZM52.506-1.89a2.253,2.253,0,0,0,1.709-.721A2.638,2.638,0,0,0,54.9-4.5a2.644,2.644,0,0,0-.686-1.894,2.251,2.251,0,0,0-1.705-.725,2.277,2.277,0,0,0-1.718.712A2.644,2.644,0,0,0,50.106-4.5a2.631,2.631,0,0,0,.681,1.9A2.277,2.277,0,0,0,52.506-1.89Zm14.748-.562a8.453,8.453,0,0,0,.22,2.206V0H65.109l-.2-.984a2.938,2.938,0,0,1-1.266.87,4.664,4.664,0,0,1-1.635.29A4.3,4.3,0,0,1,61.163.1a2.868,2.868,0,0,1-.76-.268,2.307,2.307,0,0,1-.628-.47,2.062,2.062,0,0,1-.422-.716,2.853,2.853,0,0,1-.158-.98,2.718,2.718,0,0,1,.167-.98,2.3,2.3,0,0,1,.439-.734,2.666,2.666,0,0,1,.712-.536,5.447,5.447,0,0,1,.9-.387,10.712,10.712,0,0,1,1.072-.281l1.485-.334a1.638,1.638,0,0,0,.672-.286.57.57,0,0,0,.2-.453.932.932,0,0,0-.444-.87,2.072,2.072,0,0,0-1.077-.264,1.549,1.549,0,0,0-1.767,1.38l-2.241-.4a3.034,3.034,0,0,1,1.31-2.061,5.2,5.2,0,0,1,2.839-.664q3.8,0,3.8,3.261ZM62.8-1.538a2.036,2.036,0,0,0,1.564-.655,2.759,2.759,0,0,0,.606-1.938l-2.145.606a2.534,2.534,0,0,0-.9.369.758.758,0,0,0-.312.65.842.842,0,0,0,.334.716A1.382,1.382,0,0,0,62.8-1.538ZM75.92-13.5h2.531V0h-2.4L75.99-1.178A2.58,2.58,0,0,1,74.843-.154a3.861,3.861,0,0,1-1.692.365,4.394,4.394,0,0,1-1.687-.325,4.189,4.189,0,0,1-1.384-.918,4.187,4.187,0,0,1-.936-1.49A5.5,5.5,0,0,1,68.8-4.5a5.137,5.137,0,0,1,.6-2.518,4.1,4.1,0,0,1,1.578-1.639,4.345,4.345,0,0,1,2.175-.554,3.957,3.957,0,0,1,1.639.33,2.559,2.559,0,0,1,1.129.936ZM73.731-1.89a2.253,2.253,0,0,0,1.709-.721,2.638,2.638,0,0,0,.681-1.89,2.644,2.644,0,0,0-.686-1.894,2.251,2.251,0,0,0-1.705-.725,2.277,2.277,0,0,0-1.718.712A2.644,2.644,0,0,0,71.332-4.5a2.631,2.631,0,0,0,.681,1.9A2.277,2.277,0,0,0,73.731-1.89Z" transform="translate(887 8280)" fill="#00223d"/>
      <path id="Trazado_35274" data-name="Trazado 35274" d="M6.926-12.7a3.822,3.822,0,0,1,2.927,1.182A4.112,4.112,0,0,1,10.96-8.6a4.011,4.011,0,0,1-1.1,2.9A3.891,3.891,0,0,1,6.926-4.553H4.28V0H1.644V-12.7ZM6.486-6.759a1.938,1.938,0,0,0,1.45-.5A1.888,1.888,0,0,0,8.42-8.631a1.873,1.873,0,0,0-.488-1.358,1.92,1.92,0,0,0-1.446-.505H4.28v3.735Zm8.78-.844a2.933,2.933,0,0,1,1.187-1.085,3.62,3.62,0,0,1,1.767-.453v2.259a3.423,3.423,0,0,0-2.162.545A2.379,2.379,0,0,0,15.39-4.4V0H12.841V-9.035h2.426ZM28.151-4.649l-.026.606h-6.7a2.339,2.339,0,0,0,.721,1.652,2.3,2.3,0,0,0,1.591.571,2.221,2.221,0,0,0,1.191-.312,1.918,1.918,0,0,0,.76-.91l2.32.343A3.945,3.945,0,0,1,26.429-.58a4.7,4.7,0,0,1-2.672.756,4.891,4.891,0,0,1-3.52-1.244,4.538,4.538,0,0,1-1.305-3.45,4.565,4.565,0,0,1,1.31-3.45,4.746,4.746,0,0,1,3.437-1.261,4.536,4.536,0,0,1,3.243,1.151A4.517,4.517,0,0,1,28.151-4.649ZM23.7-7.436A2,2,0,0,0,21.5-5.7h4.148a1.9,1.9,0,0,0-.624-1.292A1.978,1.978,0,0,0,23.7-7.436ZM34.163.167a4.827,4.827,0,0,1-3.489-1.3A4.493,4.493,0,0,1,29.32-4.526a4.483,4.483,0,0,1,1.349-3.393,4.842,4.842,0,0,1,3.494-1.292,4.814,4.814,0,0,1,2.927.87A3.885,3.885,0,0,1,38.6-5.889l-2.338.255a2,2,0,0,0-.756-1.187,2.3,2.3,0,0,0-1.371-.4,2.072,2.072,0,0,0-1.652.738,2.894,2.894,0,0,0-.633,1.951,2.9,2.9,0,0,0,.633,1.947,2.067,2.067,0,0,0,1.652.743,2.278,2.278,0,0,0,1.367-.4,2.05,2.05,0,0,0,.76-1.187l2.338.255A3.9,3.9,0,0,1,37.077-.712,4.8,4.8,0,0,1,34.163.167ZM41.7-10.389a1.421,1.421,0,0,1-1.037-.426,1.4,1.4,0,0,1-.431-1.033,1.382,1.382,0,0,1,.435-1.024A1.425,1.425,0,0,1,41.7-13.3a1.4,1.4,0,0,1,1.02.426,1.389,1.389,0,0,1,.431,1.024,1.4,1.4,0,0,1-.431,1.033A1.4,1.4,0,0,1,41.7-10.389ZM40.4,0V-9.035h2.549V0Zm9.378.176a5.681,5.681,0,0,1-2.558-.554A4.138,4.138,0,0,1,45.47-2a4.846,4.846,0,0,1-.637-2.522A4.42,4.42,0,0,1,46.2-7.954a5.086,5.086,0,0,1,3.577-1.257,5.1,5.1,0,0,1,3.586,1.257,4.42,4.42,0,0,1,1.371,3.428,4.444,4.444,0,0,1-1.371,3.441A5.088,5.088,0,0,1,49.781.176Zm-.026-2.013a2.319,2.319,0,0,0,1.789-.738,2.764,2.764,0,0,0,.681-1.951,2.764,2.764,0,0,0-.681-1.951,2.319,2.319,0,0,0-1.789-.738,2.234,2.234,0,0,0-1.736.743,2.789,2.789,0,0,0-.672,1.947,2.789,2.789,0,0,0,.672,1.947A2.234,2.234,0,0,0,49.755-1.837Z" transform="translate(562.5 8028.5) rotate(-90)" fill="#00223d"/>
      <path id="Trazado_35275" data-name="Trazado 35275" d="M11,0,22,19H0Z" transform="translate(584 7733)" fill="#472ea6"/>
      <path id="Trazado_35276" data-name="Trazado 35276" d="M11,0,22,19H0Z" transform="translate(1228.5 8241.5) rotate(90)" fill="#472ea6"/>
    </g>
  </g>
</svg>
