<svg xmlns="http://www.w3.org/2000/svg" xmlns:xlink="http://www.w3.org/1999/xlink" width="468" height="356.127" viewBox="0 0 468 356.127">
  <defs>
    <linearGradient id="linear-gradient" x1="0.459" y1="1.018" x2="0.564" y2="-0.445" gradientUnits="objectBoundingBox">
      <stop offset="0" stop-color="#6c58b8"/>
      <stop offset="1" stop-color="#12263f"/>
    </linearGradient>
    <linearGradient id="linear-gradient-2" x1="1.25" y1="-4.623" x2="-0.094" y2="4.562" gradientUnits="objectBoundingBox">
      <stop offset="0" stop-color="#2cffe2"/>
      <stop offset="1" stop-color="#472ea6"/>
    </linearGradient>
    <linearGradient id="linear-gradient-3" x1="1.391" y1="-1.416" x2="-3.151" y2="8.353" xlink:href="#linear-gradient-2"/>
    <linearGradient id="linear-gradient-4" x1="1.654" y1="-5.669" x2="-0.064" y2="3.515" xlink:href="#linear-gradient-2"/>
    <linearGradient id="linear-gradient-5" x1="2.154" y1="-3.059" x2="-2.386" y2="6.71" xlink:href="#linear-gradient-2"/>
    <linearGradient id="linear-gradient-6" x1="1.729" y1="-0.13" x2="-1.657" y2="1.466" gradientUnits="objectBoundingBox">
      <stop offset="0" stop-color="#fed2a8"/>
      <stop offset="0.66" stop-color="#fd8f25"/>
      <stop offset="1" stop-color="#ef2a66"/>
    </linearGradient>
    <linearGradient id="linear-gradient-7" x1="1.288" y1="0.127" x2="-2.097" y2="1.724" xlink:href="#linear-gradient-6"/>
    <linearGradient id="linear-gradient-8" x1="0.303" y1="4.446" x2="0.441" y2="1.688" xlink:href="#linear-gradient-6"/>
    <linearGradient id="linear-gradient-9" y1="0.481" x2="1.002" y2="0.481" gradientUnits="objectBoundingBox">
      <stop offset="0" stop-color="#ef2a66"/>
      <stop offset="1" stop-color="#472ea6"/>
    </linearGradient>
    <linearGradient id="linear-gradient-10" x1="0.772" y1="-6.72" x2="0.499" y2="0.847" xlink:href="#linear-gradient-9"/>
    <linearGradient id="linear-gradient-11" y1="0.499" x2="1" y2="0.499" gradientUnits="objectBoundingBox">
      <stop offset="0" stop-color="#f9b776"/>
      <stop offset="1" stop-color="#f47960"/>
    </linearGradient>
    <linearGradient id="linear-gradient-12" x1="0" y1="0.498" x2="0.998" y2="0.498" xlink:href="#linear-gradient-9"/>
    <linearGradient id="linear-gradient-13" x1="0.734" y1="-1.864" x2="0.423" y2="1.098" xlink:href="#linear-gradient-9"/>
    <linearGradient id="linear-gradient-14" x1="0" y1="0.503" y2="0.503" xlink:href="#linear-gradient-11"/>
    <linearGradient id="linear-gradient-15" x1="0" y1="0.5" y2="0.5" xlink:href="#linear-gradient-11"/>
    <linearGradient id="linear-gradient-16" x1="0" y1="0.499" y2="0.499" xlink:href="#linear-gradient-11"/>
    <linearGradient id="linear-gradient-17" x1="-45.125" y1="89.649" x2="-46.646" y2="90.986" xlink:href="#linear-gradient-11"/>
    <linearGradient id="linear-gradient-18" x1="-126.757" y1="255.569" x2="-123.462" y2="253.217" xlink:href="#linear-gradient-11"/>
    <linearGradient id="linear-gradient-19" x1="0.4" y1="15.45" x2="1.457" y2="16.028" gradientUnits="objectBoundingBox">
      <stop offset="0" stop-color="#b37cff"/>
      <stop offset="1" stop-color="#f895e7"/>
    </linearGradient>
    <linearGradient id="linear-gradient-20" x1="0.848" y1="27.997" x2="1.905" y2="28.574" xlink:href="#linear-gradient-19"/>
    <linearGradient id="linear-gradient-21" x1="-0.28" y1="0.954" x2="1.879" y2="-0.303" xlink:href="#linear-gradient-2"/>
    <linearGradient id="linear-gradient-22" x1="0.51" y1="0.13" x2="0.757" y2="-20.787" xlink:href="#linear-gradient-2"/>
    <linearGradient id="linear-gradient-23" x1="-0.367" y1="0.557" x2="2.929" y2="0.343" xlink:href="#linear-gradient-6"/>
    <linearGradient id="linear-gradient-24" x1="0" y1="0.5" x2="0.999" y2="0.5" xlink:href="#linear-gradient-11"/>
    <linearGradient id="linear-gradient-25" x1="0.531" y1="0.006" x2="0.327" y2="3.202" xlink:href="#linear-gradient-9"/>
    <linearGradient id="linear-gradient-27" x1="0.311" y1="2.213" x2="0.471" y2="0.817" gradientUnits="objectBoundingBox">
      <stop offset="0" stop-color="#472ea6"/>
      <stop offset="1" stop-color="#ef2a66"/>
    </linearGradient>
    <linearGradient id="linear-gradient-28" x1="0.554" y1="-2.162" x2="0.395" y2="6.263" xlink:href="#linear-gradient-9"/>
    <linearGradient id="linear-gradient-29" x1="0.705" y1="1.886" x2="0.474" y2="0.327" xlink:href="#linear-gradient-11"/>
    <linearGradient id="linear-gradient-30" x1="0.107" y1="0.3" x2="1.389" y2="1.092" xlink:href="#linear-gradient-11"/>
    <linearGradient id="linear-gradient-31" x1="-2.146" y1="-0.897" x2="2.524" y2="1.653" xlink:href="#linear-gradient-11"/>
    <linearGradient id="linear-gradient-32" x1="0.623" y1="0.5" x2="1.622" y2="0.5" xlink:href="#linear-gradient-11"/>
    <linearGradient id="linear-gradient-33" x1="1.284" y1="-0.304" x2="-0.556" y2="1.583" xlink:href="#linear-gradient-2"/>
    <linearGradient id="linear-gradient-34" x1="-398.686" y1="0.504" x2="-397.687" y2="0.504" xlink:href="#linear-gradient-2"/>
    <linearGradient id="linear-gradient-35" x1="-1425.584" y1="0.5" x2="-1424.579" y2="0.5" xlink:href="#linear-gradient-11"/>
    <linearGradient id="linear-gradient-36" x1="-1053.794" y1="0.504" x2="-1052.793" y2="0.504" xlink:href="#linear-gradient-2"/>
    <linearGradient id="linear-gradient-37" x1="-1199.263" y1="0.501" x2="-1198.26" y2="0.501" xlink:href="#linear-gradient-11"/>
    <linearGradient id="linear-gradient-38" x1="-886.424" y1="1.081" x2="-885.829" y2="-0.081" xlink:href="#linear-gradient-2"/>
    <linearGradient id="linear-gradient-39" x1="-256.676" y1="0.308" x2="-257.546" y2="1.354" xlink:href="#linear-gradient-11"/>
    <linearGradient id="linear-gradient-40" x1="-745.792" y1="1.479" x2="-745.519" y2="0.434" xlink:href="#linear-gradient-11"/>
    <linearGradient id="linear-gradient-41" x1="-532.785" y1="0.35" x2="-533.896" y2="1.107" xlink:href="#linear-gradient-11"/>
    <linearGradient id="linear-gradient-42" x1="-2180.258" y1="-0.687" x2="-2184.798" y2="1.783" xlink:href="#linear-gradient-11"/>
    <linearGradient id="linear-gradient-43" x1="-295.064" y1="-0.753" x2="-295.417" y2="0.28" xlink:href="#linear-gradient-11"/>
    <linearGradient id="linear-gradient-44" x1="1.344" y1="-4.338" x2="0.772" y2="-1.25" xlink:href="#linear-gradient-11"/>
    <linearGradient id="linear-gradient-45" x1="217.696" y1="-0.306" x2="215.866" y2="1.584" xlink:href="#linear-gradient-2"/>
    <linearGradient id="linear-gradient-46" x1="473.617" y1="-190.045" x2="467.493" y2="-192.744" xlink:href="#linear-gradient-2"/>
    <linearGradient id="linear-gradient-47" x1="65.22" y1="-56.785" x2="64.259" y2="-58.398" xlink:href="#linear-gradient-2"/>
    <linearGradient id="linear-gradient-48" x1="76.277" y1="-230.664" x2="75.365" y2="-233.725" xlink:href="#linear-gradient-2"/>
    <linearGradient id="linear-gradient-49" x1="-1145.052" y1="-358.921" x2="-1141.974" y2="-360.013" xlink:href="#linear-gradient-2"/>
  </defs>
  <g id="Grupo_54991" data-name="Grupo 54991" transform="translate(-940 -1262.34)">
    <g id="CF1_tema_1" data-name="CF1_tema 1" transform="translate(928.82 1204.068)">
      <path id="Trazado_106918" data-name="Trazado 106918" d="M394.7,372.192a5.781,5.781,0,0,1-5.761,5.761H77.208a5.781,5.781,0,0,1-5.761-5.761l-2.6-179.147c0-3.165,3.733-9.347,10.572-8.887l304.66-7.838a14.521,14.521,0,0,1,14.9,14.854Z" transform="translate(-1.165 -2.384)" fill="#12263f"/>
      <path id="Trazado_106919" data-name="Trazado 106919" d="M389.185,366.806a5.477,5.477,0,0,1-5.458,5.457H84.887a5.467,5.467,0,0,1-5.448-5.457L76.99,204.158c.284-9.8,8.867-13.306,14.07-13.1l291.981-7.838a10.2,10.2,0,0,1,10.464,10.445Z" transform="translate(-1.329 -2.524)" fill="url(#linear-gradient)"/>
      <path id="Trazado_106920" data-name="Trazado 106920" d="M82.765,291.157a.51.51,0,0,1-.509-.51l-.2-13.188a.509.509,0,0,1,.509-.519.5.5,0,0,1,.519.5l.2,13.188a.529.529,0,0,1-.509.529Z" transform="translate(-1.432 -4.416)" fill="#f1eefd"/>
      <path id="Trazado_106921" data-name="Trazado 106921" d="M82.274,257.121a.519.519,0,0,1-.519-.51L81,206.1a10.778,10.778,0,0,1,3.106-8.074c3.723-3.566,9.553-3.39,9.8-3.38l93.238-2.5a.5.5,0,0,1,.529.5.519.519,0,0,1-.5.529l-93.277,2.5c-.265,0-5.663-.176-9.073,3.1a9.739,9.739,0,0,0-2.792,7.319l.735,50.509a.5.5,0,0,1-.5.519Z" transform="translate(-1.41 -2.704)" fill="#f1eefd"/>
      <path id="Trazado_106922" data-name="Trazado 106922" d="M92.908,358.034c.314-13.443.2-132.469-.568-142.747s15.236-12.208,39.819-13.365,231.968-5.732,237.308-6.173c12-.98,14.491,16.97,13.286,55.917-.9,29.267-2.391,77.463-3.086,99.636a12.228,12.228,0,0,1-12.2,11.856c-49.911.137-241.188.686-253.926,1.058C98.865,364.657,92.79,363.364,92.908,358.034Z" transform="translate(-1.639 -2.776)" fill="#fff" opacity="0.18"/>
      <path id="Trazado_106923" data-name="Trazado 106923" d="M411.788,396.967H60.038a7.9,7.9,0,0,1-7.838-7.838h0a7.9,7.9,0,0,1,7.838-7.838H411.788a7.9,7.9,0,0,1,7.838,7.838h0a7.9,7.9,0,0,1-7.838,7.838Z" transform="translate(-0.828 -6.524)" fill="#12263f"/>
      <g id="Grupo_54943" data-name="Grupo 54943" transform="translate(222.475 124.887)" opacity="0.54">
        <path id="Trazado_106924" data-name="Trazado 106924" d="M315.091,126.73l-83.832-.47a4.4,4.4,0,0,0-3.8,6.663l.421.705a4.4,4.4,0,0,0,3.772,2.136h83.411a4.4,4.4,0,0,0,4.4-4.4v-.235A4.389,4.389,0,0,0,315.091,126.73Z" transform="translate(-226.83 -126.26)" fill="url(#linear-gradient-2)"/>
        <path id="Trazado_106925" data-name="Trazado 106925" d="M328.86,131.239v.137a4.4,4.4,0,0,0,4.4,4.4h18.616a4.39,4.39,0,0,0,4.243-3.263h0a4.389,4.389,0,0,0-4.213-5.536l-18.616-.137a4.389,4.389,0,0,0-4.429,4.4Z" transform="translate(-228.891 -126.272)" fill="url(#linear-gradient-3)"/>
      </g>
      <g id="Grupo_54944" data-name="Grupo 54944" transform="translate(222.457 140.681)" opacity="0.54">
        <path id="Trazado_106926" data-name="Trazado 106926" d="M294.926,142.85l-63.687-.47a4.409,4.409,0,0,0-3.8,6.672l.421.7a4.4,4.4,0,0,0,3.772,2.136H294.9a4.4,4.4,0,0,0,4.4-4.4v-.235A4.39,4.39,0,0,0,294.926,142.85Z" transform="translate(-226.812 -142.38)" fill="url(#linear-gradient-4)"/>
        <path id="Trazado_106927" data-name="Trazado 106927" d="M308.28,147.359v.137a4.4,4.4,0,0,0,4.4,4.4H331.3a4.4,4.4,0,0,0,4.252-3.263h0a4.4,4.4,0,0,0-4.213-5.536l-18.616-.137a4.4,4.4,0,0,0-4.439,4.4Z" transform="translate(-228.457 -142.392)" fill="url(#linear-gradient-5)"/>
      </g>
      <g id="Grupo_54945" data-name="Grupo 54945" transform="translate(148.392 319.995)" opacity="0.54">
        <path id="Trazado_106928" data-name="Trazado 106928" d="M185.313,325.782l71.751-.392a3.762,3.762,0,0,1,3.253,5.7l-.363.6a3.762,3.762,0,0,1-3.233,1.832H185.342a3.772,3.772,0,0,1-3.772-3.772v-.2a3.772,3.772,0,0,1,3.743-3.772Z" transform="translate(-151.833 -325.39)" fill="#2cffe2"/>
        <path id="Trazado_106929" data-name="Trazado 106929" d="M174.676,329.642v.118a3.772,3.772,0,0,1-3.762,3.772H154.992a3.762,3.762,0,0,1-3.645-2.8h0A3.762,3.762,0,0,1,154.924,326l15.922-.118a3.753,3.753,0,0,1,3.831,3.762Z" transform="translate(-151.22 -325.4)" fill="#2cffe2"/>
      </g>
      <g id="Grupo_54946" data-name="Grupo 54946" transform="translate(165.653 333.506)" opacity="0.54">
        <path id="Trazado_106930" data-name="Trazado 106930" d="M202.922,339.582l54.487-.4a3.772,3.772,0,0,1,3.253,5.712l-.363.6a3.752,3.752,0,0,1-3.233,1.822H202.922a3.762,3.762,0,0,1-3.762-3.762v-.2a3.762,3.762,0,0,1,3.762-3.772Z" transform="translate(-169.45 -339.18)" fill="#2cffe2"/>
        <path id="Trazado_106931" data-name="Trazado 106931" d="M192.3,343.442v.118a3.762,3.762,0,0,1-3.762,3.762H172.6a3.762,3.762,0,0,1-3.635-2.792h0a3.753,3.753,0,0,1,3.606-4.732l15.932-.118a3.763,3.763,0,0,1,3.792,3.762Z" transform="translate(-168.837 -339.19)" fill="#2cffe2"/>
      </g>
      <path id="Trazado_106932" data-name="Trazado 106932" d="M17.42,370c-1.039,1.538-5.154,36.253-5.8,49.108a1.509,1.509,0,0,0,1.519,1.587h0a1.519,1.519,0,0,0,1.5-1.284l7.544-48.3Z" transform="translate(-0.009 -6.296)" fill="url(#linear-gradient-6)"/>
      <path id="Trazado_106933" data-name="Trazado 106933" d="M51.262,370c1.039,1.538,5.154,36.253,5.8,49.108a1.509,1.509,0,0,1-1.519,1.587h0a1.509,1.509,0,0,1-1.5-1.284l-7.544-48.3Z" transform="translate(-0.713 -6.296)" fill="url(#linear-gradient-7)"/>
      <path id="Trazado_106934" data-name="Trazado 106934" d="M11.18,367.108v.372a5.164,5.164,0,0,0,5.262,5.017l34.842.588a5.2,5.2,0,0,0,5.448-4.723v-.353a5.144,5.144,0,0,0-5.252-5.2l-34.852-.627a5.183,5.183,0,0,0-5.448,4.928Z" transform="translate(0 -6.138)" fill="url(#linear-gradient-8)"/>
      <path id="Trazado_106935" data-name="Trazado 106935" d="M80.151,418.78c-6.192,0-8.936-.529-10.161-.98a2.352,2.352,0,0,0,2.283,1.813H94.191a1.058,1.058,0,0,0,.98-1.342C92.721,418.447,87.411,418.78,80.151,418.78Z" transform="translate(-1.188 -7.261)" fill="url(#linear-gradient-9)"/>
      <path id="Trazado_106936" data-name="Trazado 106936" d="M95.209,418.131a.98.98,0,0,0-.176-.372c-1.666-2.136-5.017-5.477-9.582-5.418-6.682.1-9.014.823-14.2.049L70,416.445a2.332,2.332,0,0,0,0,1.215c1.225.48,3.968.98,10.161.98C87.409,418.669,92.72,418.336,95.209,418.131Z" transform="translate(-1.186 -7.151)" fill="url(#linear-gradient-10)"/>
      <path id="Trazado_106937" data-name="Trazado 106937" d="M72.779,407.92l-1.5,5.115s3.331,1.519,6.261.3l.568-4.439Z" transform="translate(-1.214 -7.062)" fill="url(#linear-gradient-11)"/>
      <path id="Trazado_106938" data-name="Trazado 106938" d="M118.984,415.317c-4.83,3.919-7.3,5.183-8.554,5.575a2.342,2.342,0,0,0,2.939,0l17.078-13.717a1.058,1.058,0,0,0,0-1.685C128.566,407.175,124.647,410.761,118.984,415.317Z" transform="translate(-2.005 -7.013)" fill="url(#linear-gradient-12)"/>
      <path id="Trazado_106939" data-name="Trazado 106939" d="M130.341,405.447a1.107,1.107,0,0,0-.372-.186c-2.626-.608-7.329-1.1-10.846,1.8-5.144,4.262-6.506,6.281-11.042,8.936l1.577,3.919a2.274,2.274,0,0,0,.725.98c1.254-.392,3.723-1.7,8.554-5.575C124.6,410.747,128.519,407.161,130.341,405.447Z" transform="translate(-1.957 -6.999)" fill="url(#linear-gradient-13)"/>
      <path id="Trazado_106940" data-name="Trazado 106940" d="M39.852,348.46s37.086,3.028,44.689,6.614-6.2,53.762-6.2,53.762-2.077.98-6.682-.431c0,0,4.723-37.037,1.205-45.071L32.69,356.769Z" transform="translate(-0.434 -5.861)" fill="#12263f"/>
      <path id="Trazado_106941" data-name="Trazado 106941" d="M104.32,408.955c.343.314,3.684,7.055,3.684,7.055s3.723-.813,4.478-3.165l-3.351-6.075Z" transform="translate(-1.881 -7.039)" fill="url(#linear-gradient-14)"/>
      <path id="Trazado_106942" data-name="Trazado 106942" d="M17.166,348.14A18.861,18.861,0,0,0,16,354.92a10.161,10.161,0,0,0,9.7,9.945l43.836,1.96A2.1,2.1,0,0,1,71.5,368.4c1.029,3.988,6.065,16.216,30.678,40.632a1.96,1.96,0,0,0,2.45.274l3.508-2.214a.823.823,0,0,0,.265-1.1L82.862,362.455a9.867,9.867,0,0,0-6-4.448l-37.35-9.553Z" transform="translate(-0.097 -5.855)" fill="#12263f"/>
      <path id="Trazado_106943" data-name="Trazado 106943" d="M68.737,279.66S56.391,286.979,51.6,291.006l9.9,5.516s5.35-6.173,10.445-8.75Z" transform="translate(-0.816 -4.471)" fill="url(#linear-gradient-15)"/>
      <path id="Trazado_106944" data-name="Trazado 106944" d="M16.38,347.276s11.836,2.881,23.123,0c0,0,15.814-21.242,21.928-27.033,0,0,9.8,15.393,31.461,17.578l1.205-2.7s-17.274-7.966-22.6-20.213-7.476-17.46-12.3-20.654c-3.008-1.96-4.821-3.351-5.751-4.1a1.548,1.548,0,0,0-1.773-.108C46.538,293.171,22.367,309.729,16.38,347.276Z" transform="translate(-0.105 -4.677)" fill="#d5fff9"/>
      <path id="Trazado_106945" data-name="Trazado 106945" d="M93.14,334.549l2.44-.647L103,332.188a3.469,3.469,0,0,1,2.616.441l6.379,4.007H94.355Z" transform="translate(-1.655 -5.531)" fill="url(#linear-gradient-16)"/>
      <path id="Trazado_106946" data-name="Trazado 106946" d="M81.094,273.721c0,.255-3.38,17.029-3.38,17.029l-9.533-2.165.882-16.372S80.477,269.439,81.094,273.721Z" transform="translate(-1.151 -4.303)" fill="url(#linear-gradient-17)"/>
      <path id="Trazado_106947" data-name="Trazado 106947" d="M71.089,275.79l-1.146,8.583a1.784,1.784,0,0,0,0,.323c.1.676.6,2.939,2.939,2.312,2.1-.6,4.027-1.107,5.35-.706a1.215,1.215,0,0,1,.833,1.4,52.174,52.174,0,0,1-2.195,7.839,1.2,1.2,0,0,1-1.46.715A38.878,38.878,0,0,1,67,292.819a1.2,1.2,0,0,1-.588-1.088c.088-2.165.343-8.75.137-10.592s-2.332-2.773-3.253-3.145a1.234,1.234,0,0,1-.666-.666c-.421-1.068-.98-3.557,2.116-4.576a1.205,1.205,0,0,0,.764-1.558,3.145,3.145,0,0,1,1.754-4.341,4.429,4.429,0,0,1,5.291,1.274,1.205,1.205,0,0,0,1.538.176.98.98,0,0,1,1.088,0,1.2,1.2,0,0,0,1.7-.509,3.606,3.606,0,0,1,4.194-2.1c4.272.735,4.752,5.467,3.625,8.24s-5.712,1.715-8.015.323c-1.744-1.068-4.017,0-5,.647A1.2,1.2,0,0,0,71.089,275.79Z" transform="translate(-1.033 -4.187)" fill="#12263f"/>
      <path id="Trazado_106948" data-name="Trazado 106948" d="M66.128,284.442s1.764-4.9,0-6.124-4.478-.578-3.919,2.988C62.924,285.735,66.128,284.442,66.128,284.442Z" transform="translate(-1.029 -4.433)" fill="url(#linear-gradient-18)"/>
      <path id="Trazado_106949" data-name="Trazado 106949" d="M86.159,340.191h37.722a1.685,1.685,0,1,0,0-3.361H86.237a1.685,1.685,0,0,0-.078,3.361Z" transform="translate(-1.484 -5.626)" fill="#2cffe2"/>
      <path id="Trazado_106950" data-name="Trazado 106950" d="M139.24,302.621a.3.3,0,0,0,0,.078l-15.834,34.146a1.679,1.679,0,0,0,3.047,1.411l15.834-34.146a1.678,1.678,0,0,0-3.008-1.489Z" transform="translate(-2.264 -4.916)" fill="#2cffe2"/>
      <path id="Trazado_106951" data-name="Trazado 106951" d="M102.879,342.19c-.157.676-15.863,59.572-19.851,74.465a2.7,2.7,0,0,0,2.587,3.41h0a2.675,2.675,0,0,0,2.6-2.048l17.431-70.683Z" transform="translate(-1.449 -5.734)" fill="#0e1d2f"/>
      <path id="Trazado_106952" data-name="Trazado 106952" d="M112.013,342.19c.167.676,15.873,59.572,19.851,74.465a2.694,2.694,0,0,1-2.587,3.41h0a2.685,2.685,0,0,1-2.6-2.048L109.25,347.334Z" transform="translate(-1.981 -5.734)" fill="#0e1d2f"/>
      <path id="Trazado_106953" data-name="Trazado 106953" d="M112.538,340.22h-9.8v7.838a2.028,2.028,0,0,0,2.018,2.038H106.1v17.636a1.538,1.538,0,0,0,1.528,1.548h0a1.538,1.538,0,0,0,1.528-1.548V350.1h.7a2.694,2.694,0,0,0,2.685-2.7Z" transform="translate(-1.849 -5.695)" fill="#0e1d2f"/>
      <path id="Trazado_106954" data-name="Trazado 106954" d="M78.163,338.3h54.663a1.666,1.666,0,0,1,1.617,1.264l.764,2.988a1.685,1.685,0,0,1-1.626,2.116l-56.035-.323a1.685,1.685,0,0,1-1.617-2.107l.666-2.665a1.666,1.666,0,0,1,1.568-1.274Z" transform="translate(-1.307 -5.656)" fill="#0e1d2f"/>
      <path id="Trazado_106955" data-name="Trazado 106955" d="M98.06,142.37c-1.058-9.053,9.24-21.82,27.875-10.543.509-4.282,23.888-17.636,34.714,10.435,1.852-6.8,18.822-3.39,21.879,8.1,6.33-2.832,21.712,11.4,1.431,13.825-25.926,3.145-85.321,2.234-95.972-13.325S98.06,142.37,98.06,142.37Z" transform="translate(-1.49 -1.345)" opacity="0.6" fill="url(#linear-gradient-19)"/>
      <path id="Trazado_106956" data-name="Trazado 106956" d="M211.85,175.6c-.588-5,5.1-12.052,15.4-5.82.284-2.371,13.208-9.739,19.194,5.761.98-3.753,10.4-1.871,12.081,4.478,3.527-1.568,12,6.31.784,7.672-14.325,1.734-47.158,1.235-53.047-7.368S211.85,175.6,211.85,175.6Z" transform="translate(-3.906 -2.175)" opacity="0.6" fill="url(#linear-gradient-20)"/>
      <rect id="Rect치ngulo_5824" data-name="Rect치ngulo 5824" width="3.469" height="37.487" transform="translate(423.021 369.093)" fill="url(#linear-gradient-21)"/>
      <path id="Trazado_106957" data-name="Trazado 106957" d="M420.043,412.19H445.89a2.254,2.254,0,0,1,2.254,2.254H417.77a2.253,2.253,0,0,1,2.254-2.254Z" transform="translate(-8.212 -7.148)" fill="url(#linear-gradient-22)"/>
      <rect id="Rect치ngulo_5825" data-name="Rect치ngulo 5825" width="38.173" height="10.827" rx="3.81" transform="translate(406.266 360.686)" fill="url(#linear-gradient-23)"/>
      <path id="Trazado_106958" data-name="Trazado 106958" d="M406.908,350a30.247,30.247,0,0,0-10.935,4.654,2.939,2.939,0,0,0-1.274,2.763,122.564,122.564,0,0,0,12.933,40.593,4.4,4.4,0,0,1,.421,3.008l-1.636,7.6-3.028,2.832h7.838l5.193-14.06-2.224-.7a4.2,4.2,0,0,1-2.939-3.919l-.265-15.079a17.127,17.127,0,0,0-4.125-11.356l12.463-.608Z" transform="translate(-7.746 -5.892)" fill="url(#linear-gradient-24)"/>
      <path id="Trazado_106959" data-name="Trazado 106959" d="M400.459,413.827c-.705.931,7.652,2.165,11.875.127,0,0,5.879-10.19,5.879-15.432,0,0-.461-1.068-3.919-.823,0,0-1.96,12.061-4.037,13.414s-5.81.137-5.81.137S401.508,412.455,400.459,413.827Z" transform="translate(-7.862 -6.855)" fill="url(#linear-gradient-25)"/>
      <path id="Trazado_106960" data-name="Trazado 106960" d="M417.138,366.619c-.059-.108-13.414-1.607-13.414-1.607a30.7,30.7,0,0,1-.931,9.651c-1.362,5.585-20.968,29.8-20.968,29.8l2.058,6.516a33.127,33.127,0,0,1-18.753,1.137l12.737-7.652s11.914-40.623,19.224-47.873L410.465,352Z" transform="translate(-7.149 -5.932)" fill="url(#linear-gradient-15)"/>
      <path id="Trazado_106961" data-name="Trazado 106961" d="M447.742,342.8s7.691,11.434,8.328,16.657-2.107,7.339-10.18,7.691-29.619.343-29.619.343L397.88,351.814s13.4-4.781,16.892-6.134S447.742,342.8,447.742,342.8Z" transform="translate(-7.81 -5.747)" fill="url(#linear-gradient-27)"/>
      <path id="Trazado_106962" data-name="Trazado 106962" d="M383.035,410s2.214,2.146.715,4.536c0,0-17.529,3.106-22.29,1.7,0,0,.98-2.254,6.349-4.821l-.392.3a.637.637,0,0,0,.421,1.146C371.366,412.606,378.646,411.96,383.035,410Z" transform="translate(-7.075 -7.104)" fill="url(#linear-gradient-28)"/>
      <path id="Trazado_106963" data-name="Trazado 106963" d="M427.212,340.4s-8.955-8.524-13.365-14.178a11.983,11.983,0,0,1-2.028-10.778c2.009-6.78,5.585-13.805,5.879-14.9.5-1.675,10.543-1.607,10.543-1.607S448,311.756,455.774,333.488l-8.691,2.743s-5.154-8.652-10.259-14.158c0,0,8.818,11.65,9.142,16.421Z" transform="translate(-8.082 -4.861)" fill="#ef2a66"/>
      <path id="Trazado_106964" data-name="Trazado 106964" d="M416.63,290.972c.1.353,2.724,9.044,2.939,9.22s5.751.48,8.358-1.3L423.5,289.62Z" transform="translate(-8.189 -4.673)" fill="url(#linear-gradient-29)"/>
      <path id="Trazado_106965" data-name="Trazado 106965" d="M420.8,272.364s-4.732,1.96-7.946,8.818-.813,10,2.2,10.435,7.525.363,12.306-4.056S426.977,270.042,420.8,272.364Z" transform="translate(-8.082 -4.319)" fill="url(#linear-gradient-30)"/>
      <path id="Trazado_106966" data-name="Trazado 106966" d="M424.267,283.811s3.576-9.974-5.33-10.121l-2.087,1.45s-3.253-5.546,2.087-8.191a11.366,11.366,0,0,1,15.589,6.859c2.273,7.192.98,11.846-2.841,15.285s-5.34-.461-5.34-.461,2.058-3.224,1.225-4.9-2.773.353-2.773.353Z" transform="translate(-8.174 -4.194)" fill="#781533"/>
      <path id="Trazado_106967" data-name="Trazado 106967" d="M425.46,285.236s1.8-5.154,4.213-3.1-1.96,4.762-3.664,5.634Z" transform="translate(-8.367 -4.512)" fill="url(#linear-gradient-31)"/>
      <path id="Trazado_106968" data-name="Trazado 106968" d="M408.92,341.744l6.574-6.349,9.112,3.851s9.053,1.4,14.246,0l5.183-1.4,11.758-3.655,1.832,5.2a3.126,3.126,0,0,1-1.137,3.6,20.5,20.5,0,0,1-2.939,1.852c-1.538.666-38.046-.47-38.046-.47Z" transform="translate(-8.033 -5.573)" fill="url(#linear-gradient-32)"/>
      <path id="Trazado_106969" data-name="Trazado 106969" d="M434.219,275.1a2.028,2.028,0,0,1,1.215-3.38c5.193-.813,13.129,0,16.461,11.14,3.743,12.541,6.192,18.812,8.691,19.91a2.038,2.038,0,0,1,.118,3.743,8.612,8.612,0,0,1-5.438.2C436.11,302.491,440.911,281.935,434.219,275.1Z" transform="translate(-8.533 -4.306)" fill="#781533"/>
      <path id="Trazado_106970" data-name="Trazado 106970" d="M433.518,344.929h-38.3a1.715,1.715,0,0,1,0-3.419H433.43a1.715,1.715,0,0,1,.088,3.419Z" transform="translate(-7.724 -5.721)" fill="#12263f"/>
      <path id="Trazado_106971" data-name="Trazado 106971" d="M360.208,309.57h31.785a6.055,6.055,0,0,1,5.487,3.478l14.7,31.168H372.691a3.665,3.665,0,0,1-3.42-2.332l-11.4-28.836a2.538,2.538,0,0,1,2.332-3.478Z" transform="translate(-6.999 -5.076)" fill="#12263f"/>
      <path id="Trazado_106972" data-name="Trazado 106972" d="M383.015,325.814c.686,2.146.176,4.223-1.137,4.644s-2.939-.98-3.635-3.106-.176-4.223,1.137-4.644S382.32,323.678,383.015,325.814Z" transform="translate(-7.407 -5.339)" fill="url(#linear-gradient-33)"/>
      <path id="Trazado_106973" data-name="Trazado 106973" d="M485.447,346.334a1.411,1.411,0,0,0-.333-1.215,1.616,1.616,0,0,0-1.215-.539H324.583a1.842,1.842,0,0,0-1.529.784,1.617,1.617,0,0,0-.118,1.627l1.724,3.508a2.459,2.459,0,0,0,2.195,1.313H482.8a1.813,1.813,0,0,0,1.8-1.391Z" transform="translate(-6.293 -5.783)" fill="#12263f"/>
      <path id="Trazado_106974" data-name="Trazado 106974" d="M333.7,420.214a1.372,1.372,0,0,1-.549-.108,1.45,1.45,0,0,1-.735-1.881l29.325-69.742a1.382,1.382,0,0,1,1.832-.745,1.431,1.431,0,0,1,.735,1.871l-29.316,69.742a1.411,1.411,0,0,1-1.293.862Z" transform="translate(-6.486 -5.844)" fill="#12263f"/>
      <path id="Trazado_106975" data-name="Trazado 106975" d="M366.817,420.214a1.411,1.411,0,0,1-1.293-.862l-29.316-69.742a1.431,1.431,0,0,1,.735-1.871,1.382,1.382,0,0,1,1.832.745L368.1,418.225a1.45,1.45,0,0,1-.735,1.881A1.372,1.372,0,0,1,366.817,420.214Z" transform="translate(-6.562 -5.844)" fill="#12263f"/>
      <path id="Trazado_106976" data-name="Trazado 106976" d="M445.891,420.214a1.411,1.411,0,0,1-.559-.108,1.45,1.45,0,0,1-.725-1.881l29.316-69.742a1.391,1.391,0,0,1,1.842-.745,1.421,1.421,0,0,1,.725,1.871l-29.316,69.742A1.4,1.4,0,0,1,445.891,420.214Z" transform="translate(-8.752 -5.844)" fill="#12263f"/>
      <path id="Trazado_106977" data-name="Trazado 106977" d="M479,420.214a1.4,1.4,0,0,1-1.284-.862l-29.326-69.742a1.44,1.44,0,0,1,.735-1.871,1.381,1.381,0,0,1,1.832.745l29.326,69.742a1.44,1.44,0,0,1-.735,1.881,1.332,1.332,0,0,1-.549.108Z" transform="translate(-8.828 -5.844)" fill="#12263f"/>
      <g id="Grupo_54947" data-name="Grupo 54947" transform="translate(130.183 207.864)" opacity="0.8">
        <path id="Trazado_106978" data-name="Trazado 106978" d="M194.5,254.972a1.186,1.186,0,0,1-1.048-1.734c.118-.216,11.758-22.32,22.006-41.661a1.176,1.176,0,0,1,1.6-.49,48.3,48.3,0,0,1,24.387,31.354,1.137,1.137,0,0,1-.137.892,1.205,1.205,0,0,1-.735.539l-45.8,11.072a1.3,1.3,0,0,1-.274.029Zm22.486-41.23c-8.162,15.4-17.039,32.245-20.223,38.291l42.132-10.151a45.943,45.943,0,0,0-21.908-28.14Z" transform="translate(-133.861 -210.947)" fill="#e2d5f9"/>
        <path id="Trazado_106979" data-name="Trazado 106979" d="M180.934,311.679A48.274,48.274,0,1,1,203.47,220.7a1.176,1.176,0,0,1,.49,1.6c-8.3,15.677-17.519,33.166-20.782,39.349l43.258-10.435a1.2,1.2,0,0,1,1.431.872A48.324,48.324,0,0,1,180.934,311.7Zm-.118-94.218a45.894,45.894,0,1,0,45.012,36.311l-44.64,10.778a1.176,1.176,0,0,1-1.313-1.7c.108-.216,11.327-21.556,21.438-40.593a45.834,45.834,0,0,0-11.758-3.919,46.913,46.913,0,0,0-8.74-.872Z" transform="translate(-132.636 -211.032)" fill="#e2d5f9"/>
        <path id="Trazado_106980" data-name="Trazado 106980" d="M181.122,302.784a39.2,39.2,0,1,1,7.339-77.708A39.926,39.926,0,0,1,193,226.222a.3.3,0,0,1-.186.568,38.559,38.559,0,1,0,26.9,35.743.294.294,0,1,1,.588,0A39.192,39.192,0,0,1,181.1,302.8Z" transform="translate(-132.823 -211.219)" fill="#fff"/>
        <path id="Trazado_106981" data-name="Trazado 106981" d="M192.579,231.038h-.1c-.549-.176-1.117-.333-1.685-.49a.274.274,0,0,1-.206-.353.294.294,0,0,1,.4-.2c.578.147,1.156.314,1.724.5a.294.294,0,0,1-.088.578Z" transform="translate(-133.806 -211.332)" fill="#2cffe2"/>
        <path id="Trazado_106982" data-name="Trazado 106982" d="M181.279,298.562c-.813,0-1.626,0-2.44-.078a.314.314,0,0,1-.274-.323.3.3,0,0,1,.314-.274,31.349,31.349,0,0,0,3.459.069h0a.284.284,0,0,1,.294.294.294.294,0,0,1-.284.3Zm4.546-.3a.294.294,0,0,1-.294-.255.314.314,0,0,1,.255-.333,33.448,33.448,0,0,0,3.4-.627.3.3,0,1,1,.137.578c-1.137.265-2.3.48-3.459.637Zm-10.425-.2h0l-.656-.127c-.931-.176-1.871-.392-2.773-.647a.294.294,0,0,1-.216-.363.314.314,0,0,1,.372-.206c.892.245,1.813.461,2.724.637l.647.118a.313.313,0,0,1,.245.343.3.3,0,0,1-.343.225Zm17.156-1.46a.294.294,0,0,1-.1-.568c1.088-.382,2.165-.823,3.2-1.3a.294.294,0,0,1,.255.529,27.471,27.471,0,0,1-3.263,1.332Zm-23.917-.441a.2.2,0,0,1-.108,0,34.851,34.851,0,0,1-3.214-1.431.3.3,0,0,1,.274-.529,32.552,32.552,0,0,0,3.155,1.411.3.3,0,0,1,.167.382.294.294,0,0,1-.274.186Zm30.276-2.5a.294.294,0,0,1-.147-.549,33.442,33.442,0,0,0,2.881-1.96.294.294,0,0,1,.412.059.3.3,0,0,1-.059.421c-.98.7-1.96,1.342-2.939,1.96A.294.294,0,0,1,198.916,293.663ZM162.477,293a.244.244,0,0,1-.157,0,34.386,34.386,0,0,1-2.851-2.048.3.3,0,0,1-.049-.421.294.294,0,0,1,.421,0,33.886,33.886,0,0,0,2.8,2.018.284.284,0,0,1,.088.4.3.3,0,0,1-.3.069Zm42.043-3.478a.294.294,0,0,1-.216-.1.284.284,0,0,1,0-.421c.843-.774,1.666-1.6,2.43-2.449a.3.3,0,0,1,.421,0,.294.294,0,0,1,0,.412,33.146,33.146,0,0,1-2.479,2.5.314.314,0,0,1-.206.078Zm-47.471-.872a.264.264,0,0,1-.206-.088c-.833-.813-1.636-1.685-2.391-2.577a.3.3,0,0,1,0-.421.294.294,0,0,1,.421,0,33.707,33.707,0,0,0,2.342,2.538.368.368,0,0,1-.216.568Zm52.126-4.311a.313.313,0,0,1-.176-.059.294.294,0,0,1-.059-.412,33.314,33.314,0,0,0,1.891-2.89.294.294,0,0,1,.4-.1.284.284,0,0,1,.108.4,32.329,32.329,0,0,1-1.96,2.939.284.284,0,0,1-.255.137ZM152.591,283.3a.294.294,0,0,1-.245-.137,32.322,32.322,0,0,1-1.822-3.008.294.294,0,1,1,.519-.274c.549.98,1.146,2.009,1.793,2.939a.3.3,0,0,1-.078.412.362.362,0,0,1-.216.088Zm60.042-4.948a.265.265,0,0,1-.118,0,.294.294,0,0,1-.147-.392c.47-1.039.9-2.126,1.274-3.214a.294.294,0,0,1,.372-.186.3.3,0,0,1,.186.372,33.9,33.9,0,0,1-1.293,3.273A.3.3,0,0,1,212.633,278.349Zm-63.4-1.166a.294.294,0,0,1-.284-.176c-.451-1.078-.843-2.195-1.186-3.312a.314.314,0,0,1,.2-.372.3.3,0,0,1,.372.2c.333,1.107.725,2.195,1.166,3.263a.294.294,0,0,1-.167.382.2.2,0,0,1-.088.02Zm65.647-5.428h-.069a.294.294,0,0,1-.225-.353c.1-.431.186-.862.274-1.284.137-.705.245-1.421.333-2.126a.3.3,0,0,1,.333-.255.294.294,0,0,1,.255.333c-.088.715-.206,1.44-.343,2.156-.078.431-.176.872-.274,1.3a.3.3,0,0,1-.274.225Zm-67.655-1.244a.3.3,0,0,1-.294-.245c-.216-1.146-.382-2.322-.49-3.488a.294.294,0,0,1,.274-.314.284.284,0,0,1,.314.264,33.589,33.589,0,0,0,.49,3.429.294.294,0,0,1-.235.343Zm-.617-6.947h0a.294.294,0,0,1-.284-.294,32.584,32.584,0,0,1,.216-3.518.3.3,0,0,1,.588.069,33.939,33.939,0,0,0-.216,3.449.294.294,0,0,1-.294.294Zm.784-6.917h-.059a.294.294,0,0,1-.225-.353,33.219,33.219,0,0,1,.911-3.39.293.293,0,1,1,.559.176c-.353,1.088-.647,2.214-.892,3.341a.3.3,0,0,1-.284.225Zm2.146-6.633a.245.245,0,0,1-.118,0,.294.294,0,0,1-.147-.392,34.907,34.907,0,0,1,1.577-3.145.294.294,0,0,1,.51.294,33.62,33.62,0,0,0-1.548,3.086.284.284,0,0,1-.265.157Zm3.439-6.055a.313.313,0,0,1-.176-.059.3.3,0,0,1-.069-.411,32.844,32.844,0,0,1,2.195-2.734.294.294,0,1,1,.441.382c-.754.872-1.48,1.783-2.146,2.714a.265.265,0,0,1-.235.108Zm4.585-5.242a.274.274,0,0,1-.216-.1.284.284,0,0,1,0-.411,34.661,34.661,0,0,1,2.685-2.273.3.3,0,0,1,.421.059.294.294,0,0,1-.059.411c-.911.7-1.8,1.45-2.645,2.234a.313.313,0,0,1-.176.078Zm5.536-4.223a.284.284,0,0,1-.245-.137.294.294,0,0,1,.1-.411,34.526,34.526,0,0,1,3.077-1.685.3.3,0,0,1,.4.137.294.294,0,0,1-.137.392,32.6,32.6,0,0,0-3.037,1.666.284.284,0,0,1-.147.039Zm6.281-3.028a.3.3,0,0,1-.108-.578c1.107-.4,2.234-.745,3.361-1.039a.3.3,0,1,1,.147.578c-1.107.284-2.224.627-3.3.98Zm17.176-1.656h0a34.126,34.126,0,0,0-3.439-.363.3.3,0,0,1-.284-.314.314.314,0,0,1,.314-.284,35.023,35.023,0,0,1,3.5.382.292.292,0,0,1-.078.578Zm-10.425-.059a.295.295,0,1,1-.049-.588c1.166-.176,2.342-.284,3.508-.343a.3.3,0,0,1,0,.6,33.925,33.925,0,0,0-3.449.323Z" transform="translate(-132.912 -211.308)" fill="#2cffe2"/>
        <path id="Trazado_106983" data-name="Trazado 106983" d="M217.194,265.491h0a.294.294,0,0,1-.284-.3v-1.754a.294.294,0,0,1,.294-.3.284.284,0,0,1,.3.284V265.2A.3.3,0,0,1,217.194,265.491Z" transform="translate(-134.338 -212.001)" fill="#2cffe2"/>
        <path id="Trazado_106984" data-name="Trazado 106984" d="M181.635,278.841a14.113,14.113,0,0,1-1.568-.078,14.777,14.777,0,1,1,3.077-29.394,14.538,14.538,0,0,1,1.734.284.3.3,0,1,1-.127.578,13.723,13.723,0,0,0-1.666-.274,14.168,14.168,0,1,0,12.62,15.569,14.492,14.492,0,0,0,0-3.057.3.3,0,1,1,.588-.059,14.954,14.954,0,0,1,0,3.175,14.766,14.766,0,0,1-14.7,13.227Z" transform="translate(-133.327 -211.722)" fill="#fff"/>
        <path id="Trazado_106985" data-name="Trazado 106985" d="M199.384,249.952a.225.225,0,0,1-.108,0,.274.274,0,0,1-.167-.363c.147-.441,15.138-26.641,18.146-31.883a.3.3,0,0,1,.176-.137.323.323,0,0,1,.235,0c.1.059,9.8,6.075,14.971,15.373a.3.3,0,0,1-.519.284c-4.644-8.319-12.943-13.972-14.511-14.991-6.183,10.778-17.685,30.932-17.95,31.53A.3.3,0,0,1,199.384,249.952Z" transform="translate(-133.978 -211.081)" fill="#fff"/>
      </g>
      <g id="Grupo_54948" data-name="Grupo 54948" transform="translate(267.957 224.425)" opacity="0.8">
        <path id="Trazado_106986" data-name="Trazado 106986" d="M281.99,283.4h-7.153a1.587,1.587,0,0,1-1.587-1.587V260.427a1.577,1.577,0,0,1,1.587-1.587h7.153a1.587,1.587,0,0,1,1.587,1.587v21.389A1.6,1.6,0,0,1,281.99,283.4Zm-5.565-3.184h3.968v-18.2h-3.968Z" transform="translate(-273.25 -228.476)" fill="#e2d5f9"/>
        <path id="Trazado_106987" data-name="Trazado 106987" d="M296.315,283.117h-9.8a1.6,1.6,0,0,1-1.587-1.587V246.257a1.6,1.6,0,0,1,1.587-1.587h9.8a1.6,1.6,0,0,1,1.587,1.587V281.53A1.6,1.6,0,0,1,296.315,283.117Zm-8.181-3.184h6.584V247.815h-6.584Z" transform="translate(-273.486 -228.19)" fill="#e2d5f9"/>
        <path id="Trazado_106988" data-name="Trazado 106988" d="M315.028,282.963h-13.56a1.587,1.587,0,0,1-1.587-1.587V238.6a1.587,1.587,0,0,1,1.587-1.6h13.56a1.587,1.587,0,0,1,1.587,1.587v42.778a1.587,1.587,0,0,1-1.587,1.6Zm-11.973-3.184H313.44V240.184H303.055Z" transform="translate(-273.788 -228.035)" fill="#e2d5f9"/>
        <path id="Trazado_106989" data-name="Trazado 106989" d="M340.032,282.778H323.787a1.6,1.6,0,0,1-1.587-1.587V229.437a1.6,1.6,0,0,1,1.587-1.587h16.245a1.6,1.6,0,0,1,1.587,1.587V281.19a1.6,1.6,0,0,1-1.587,1.587Zm-14.7-3.184h13.071V231.025H325.375Z" transform="translate(-274.239 -227.85)" fill="#e2d5f9"/>
      </g>
      <path id="Trazado_106990" data-name="Trazado 106990" d="M281.688,407.35c3.557.3,9.72.8,14.579.98a14.119,14.119,0,0,0,5.565-.549,2.933,2.933,0,0,1,0,.3.98.98,0,0,1-.98.98,169.508,169.508,0,0,1-19.087,0,.715.715,0,0,1-.578-1.078,5.991,5.991,0,0,1,.5-.637Z" transform="translate(-5.451 -7.05)" fill="url(#linear-gradient-34)"/>
      <path id="Trazado_106991" data-name="Trazado 106991" d="M296.279,408.222c-4.9-.216-11.023-.715-14.579-.98,3.5-4.292,14.579-7.172,14.579-7.172h3.126a13.109,13.109,0,0,1,2.44,7.642A14.119,14.119,0,0,1,296.279,408.222Z" transform="translate(-5.464 -6.903)" fill="#12263f"/>
      <path id="Trazado_106992" data-name="Trazado 106992" d="M300.19,394.81l-.294,5.8a1.323,1.323,0,0,1-1.127,1.244,5.183,5.183,0,0,1-2.351-.2,1.577,1.577,0,0,1-1.058-1.205l-.98-5.644Z" transform="translate(-5.72 -6.797)" fill="url(#linear-gradient-35)"/>
      <path id="Trazado_106993" data-name="Trazado 106993" d="M337.271,414.12a3.067,3.067,0,0,0,2.567-2.42h0a2.753,2.753,0,0,1-1.342,2.939,7.005,7.005,0,0,1-3.733.754,3.439,3.439,0,0,1-2.8-1.666h0C333.067,414.492,334.7,414.581,337.271,414.12Z" transform="translate(-6.479 -7.138)" fill="url(#linear-gradient-36)"/>
      <path id="Trazado_106994" data-name="Trazado 106994" d="M329.961,396.64h2.577c3.919-.108,6.4,10.611,7.211,14.756a3.067,3.067,0,0,1-2.528,2.42c-2.567.461-4.2.372-5.36-.372-2.126-3.606-3.175-8.9-3.684-11.983C327.57,397.973,329.961,396.64,329.961,396.64Z" transform="translate(-6.4 -6.834)" fill="#12263f"/>
      <path id="Trazado_106995" data-name="Trazado 106995" d="M332.147,391.15l1.44,5.693a1.558,1.558,0,0,1-.813,1.754,5.536,5.536,0,0,1-2.939.725,1.283,1.283,0,0,1-1.058-.862l-2.107-6Z" transform="translate(-6.372 -6.723)" fill="url(#linear-gradient-37)"/>
      <path id="Trazado_106996" data-name="Trazado 106996" d="M280.81,314.5s12.806,80.05,12.6,80.491a10.651,10.651,0,0,0,7.388.206s-1.156-42.8-3.87-59.2c0,0,21.859,38.212,28.8,57.309a17.235,17.235,0,0,0,6.614-2.41s-23.515-68.841-29.806-78.012Z" transform="translate(-5.446 -5.142)" fill="#12263f"/>
      <path id="Trazado_106997" data-name="Trazado 106997" d="M296.558,335.987a.509.509,0,0,1-.441-.235l-4.664-7.456-3.3-.666a.51.51,0,0,1-.4-.607.5.5,0,0,1,.6-.4l3.527.705a.51.51,0,0,1,.333.235l4.781,7.642a.509.509,0,0,1-.157.705A.49.49,0,0,1,296.558,335.987Z" transform="translate(-5.586 -5.42)" fill="url(#linear-gradient-38)"/>
      <path id="Trazado_106998" data-name="Trazado 106998" d="M220.828,234.53s8.642,1.9,13.9,4.331a4.83,4.83,0,0,1,2.352,2.361c1.568,3.449,6.271,12.081,15.393,16.2-1.313,1.744-3.429,5.369-4.35,11.473-5.477-4.086-10.21-10.9-12.473-22.055a4.468,4.468,0,0,1-3.919-.108c-1.137-.559-2.459-1.342-3.439-1.96a4.5,4.5,0,0,1-1.96-2.685,15.767,15.767,0,0,1-.157-4.164l-4.438-1.382A1.577,1.577,0,0,1,220.828,234.53Z" transform="translate(-4.232 -3.56)" fill="url(#linear-gradient-39)"/>
      <path id="Trazado_106999" data-name="Trazado 106999" d="M248.69,269.351c.921-6.1,3.037-9.729,4.35-11.473,5.663,2.567,13.031,3.38,22.418.127a10.521,10.521,0,0,1,2.685-.529c5-.294,21.467-.823,35.087,3.674a10.572,10.572,0,0,1,6.388,5.82c3.684,8.456,9.651,27.719-6.917,37.438a40.663,40.663,0,0,0-4-7.564c2.675-4.5,3.459-10.641-1.274-18.616-3.449,9.318-5.066,22.918-5.409,28.934a12.923,12.923,0,0,0,.98,5.791l.078.2a.686.686,0,0,1-.48.98,78.208,78.208,0,0,1-21.918,1.283,1.186,1.186,0,0,1-1.068-.911c-4.536-19.106-4.546-32.138-3.439-40.378C271.98,275,259.007,277.023,248.69,269.351Z" transform="translate(-4.797 -4.02)" fill="#dad5ed"/>
      <path id="Trazado_107000" data-name="Trazado 107000" d="M276.759,274.8h-.069a.529.529,0,0,1-.451-.578c1.1-8.27,3.3-11.807,3.39-11.954a.519.519,0,0,1,.872.549s-2.175,3.527-3.233,11.542a.519.519,0,0,1-.51.441Z" transform="translate(-5.353 -4.116)" fill="#eeaa4e"/>
      <path id="Trazado_107001" data-name="Trazado 107001" d="M300.059,246.12s.98,9.974,1.773,12.924a.98.98,0,0,1-.47,1.156c-1.411.8-4.791,2.116-9.416-.147a2.077,2.077,0,0,1-1.166-1.96l.412-9.631Z" transform="translate(-5.647 -3.794)" fill="url(#linear-gradient-40)"/>
      <path id="Trazado_107002" data-name="Trazado 107002" d="M290.93,233.1s-3.018,6.927-3.224,10.572-.98,6,3.224,6.731a8.955,8.955,0,0,0,9.671-4.987s3.008-5.585,2.332-7.838S290.93,233.1,290.93,233.1Z" transform="translate(-5.581 -3.531)" fill="url(#linear-gradient-41)"/>
      <path id="Trazado_107003" data-name="Trazado 107003" d="M299.14,242.644l-.235-.108a.568.568,0,0,1-.284-.794c.588-1.146,1.744-3.772.255-4.38-1.96-.794-9.553-2.352-11.2-5.056a5.036,5.036,0,0,1,1.96-6.908.274.274,0,0,1,.372.118l.176.333a.284.284,0,0,0,.529-.049h0a.284.284,0,0,1,.519-.078c.5.813,1.871,2.126,5.516,2.792,5.193.98,8.622,3.057,8.71,6.643a.284.284,0,0,0,.441.245c.382-.235.98-.343,1.813.343,1.431,1.2.843,4.3-2.283,6.859a.284.284,0,0,0,0,.461c.568.372,1.411,1.244-.784,2.42a7.368,7.368,0,0,1-4.6.98.284.284,0,0,1-.235-.343l.7-3.155a.284.284,0,0,0-.284-.343Z" transform="translate(-5.571 -3.375)" fill="#12263f"/>
      <path id="Trazado_107004" data-name="Trazado 107004" d="M299.26,243.62s1.146-4.429,3.135-3.184-.98,4.958-2.626,5.124Z" transform="translate(-5.818 -3.675)" fill="url(#linear-gradient-42)"/>
      <path id="Trazado_107005" data-name="Trazado 107005" d="M233.484,246.029a.529.529,0,0,1-.4-.2,29.267,29.267,0,0,0-4.086-4.36,2.077,2.077,0,0,1-1.127-1.264,1.587,1.587,0,0,1,.294-1.274.529.529,0,0,1,.529-.216l3.772.754a.539.539,0,0,1,.235.118l1.96,1.724a.514.514,0,1,1-.676.774l-1.9-1.626-3.253-.656a.246.246,0,0,0,0,.167c0,.176.265.392.637.6,1.137.647,4.047,4.213,4.38,4.615a.519.519,0,0,1-.078.725A.49.49,0,0,1,233.484,246.029Z" transform="translate(-4.376 -3.644)" fill="#f8a570"/>
      <path id="Trazado_107006" data-name="Trazado 107006" d="M299.059,312.034l-13.609-.294s11.865-3.361,12.61-2.44c0,0,7.358-4.84,11.385-11.64a40.666,40.666,0,0,1,4,7.564C309.827,307.35,305.085,311.034,299.059,312.034Z" transform="translate(-5.539 -4.835)" fill="url(#linear-gradient-43)"/>
      <path id="Trazado_107007" data-name="Trazado 107007" d="M299.39,309.93s.274,5.418-6.859,4.634c-3.87-.431-10.112-4.037-10.112-4.037S298.714,310.488,299.39,309.93Z" transform="translate(-5.478 -5.083)" fill="url(#linear-gradient-44)"/>
      <path id="Trazado_107008" data-name="Trazado 107008" d="M296.159,311.348H262.229a1.5,1.5,0,1,1,0-3h33.852a1.5,1.5,0,0,1,.078,3Z" transform="translate(-5.04 -5.051)" fill="#12263f"/>
      <path id="Trazado_107009" data-name="Trazado 107009" d="M231.154,280.37h28.218a5.369,5.369,0,0,1,4.9,3.047L277.3,310.763H242.2a3.253,3.253,0,0,1-3.028-2.038l-10.112-25.308a2.224,2.224,0,0,1,2.1-3.047Z" transform="translate(-4.397 -4.486)" fill="#12263f"/>
      <path id="Trazado_107010" data-name="Trazado 107010" d="M251.378,294.622c.607,1.881.157,3.7-.98,4.076s-2.606-.852-3.224-2.724-.157-3.7.98-4.076S250.77,292.751,251.378,294.622Z" transform="translate(-4.761 -4.717)" fill="url(#linear-gradient-45)"/>
      <path id="Trazado_107011" data-name="Trazado 107011" d="M297.083,75.85l1.548,13.3-9.671-4.664Z" transform="translate(-5.61 -0.355)" fill="url(#linear-gradient-46)"/>
      <path id="Trazado_107012" data-name="Trazado 107012" d="M235.32,74.809,274.884,102.1a3.38,3.38,0,0,0,4.791-.98l25.945-40.76a1.381,1.381,0,0,0,0-1.519,1.362,1.362,0,0,0-1.421-.529Z" transform="translate(-4.527 0)" fill="url(#linear-gradient-47)"/>
      <path id="Trazado_107013" data-name="Trazado 107013" d="M296,75.836,235.32,75.15l56.515,7.28.588,3.674Z" transform="translate(-4.527 -0.341)" fill="url(#linear-gradient-48)"/>
      <path id="Trazado_107014" data-name="Trazado 107014" d="M290.45,86.47l8.211,2.812-5.712-6.7Z" transform="translate(-5.64 -0.491)" fill="url(#linear-gradient-49)"/>
      <path id="Trazado_107015" data-name="Trazado 107015" d="M368.864,173.055a.549.549,0,0,1-.323.245.509.509,0,0,1-.617-.392c-.186-.784-.372-1.626-.568-2.518a.519.519,0,0,1,.98-.216l.559,2.508A.49.49,0,0,1,368.864,173.055Zm-1.127-5.026a.549.549,0,0,1-.323.245.519.519,0,0,1-.617-.392c-.186-.8-.372-1.646-.578-2.508a.509.509,0,0,1,.98-.235c.206.862.4,1.7.578,2.518a.49.49,0,0,1-.039.372Zm-1.186-5.017a.529.529,0,0,1-.314.245.51.51,0,0,1-.627-.372c-.206-.813-.421-1.646-.647-2.489a.51.51,0,0,1,.98-.265c.235.843.451,1.675.656,2.5A.509.509,0,0,1,366.551,163.012Zm-1.342-4.968a.529.529,0,0,1-.3.235.51.51,0,0,1-.637-.353c-.235-.8-.48-1.626-.745-2.449a.514.514,0,1,1,.98-.314c.265.833.519,1.656.754,2.479a.519.519,0,0,1-.049.4Zm-1.568-4.9a.451.451,0,0,1-.274.225.5.5,0,0,1-.647-.314c-.284-.813-.578-1.626-.872-2.41a.509.509,0,0,1,.294-.666.529.529,0,0,1,.666.3c.294.794.6,1.607.882,2.43a.51.51,0,0,1-.049.421Zm-1.822-4.811a.587.587,0,0,1-.245.216.519.519,0,0,1-.676-.284c-.323-.794-.666-1.577-.98-2.342a.533.533,0,1,1,.98-.421c.353.764.7,1.568,1.029,2.371a.509.509,0,0,1-.108.451Zm-2.136-4.683a.46.46,0,0,1-.216.2.519.519,0,0,1-.7-.225c-.382-.764-.784-1.519-1.186-2.254a.519.519,0,0,1,.9-.5c.412.745.823,1.519,1.205,2.293a.509.509,0,0,1-.01.48Zm-2.5-4.487a.756.756,0,0,1-.176.176.51.51,0,0,1-.705-.176c-.451-.725-.921-1.44-1.391-2.126a.519.519,0,0,1,.137-.715.51.51,0,0,1,.715.127c.48.705.98,1.44,1.411,2.175a.529.529,0,0,1,.01.529Zm-2.939-4.243a.46.46,0,0,1-.127.147.519.519,0,0,1-.725-.1c-.519-.676-1.058-1.342-1.6-1.96a.518.518,0,0,1,.784-.676c.549.647,1.1,1.333,1.636,2.018a.519.519,0,0,1,.059.558ZM350.9,131l-.088.108a.5.5,0,0,1-.725,0c-.6-.607-1.205-1.205-1.822-1.764a.513.513,0,0,1,.686-.764c.637.578,1.264,1.186,1.871,1.813a.519.519,0,0,1,.108.617Zm-3.811-3.449a.206.206,0,0,1,0,.059.519.519,0,0,1-.725.078c-.656-.529-1.342-.98-2.038-1.509a.519.519,0,0,1-.127-.715.51.51,0,0,1,.715-.127c.705.48,1.411.98,2.1,1.548a.51.51,0,0,1,.108.676Zm-4.233-2.939a.519.519,0,0,1-.705.186h0c-.725-.431-1.47-.833-2.224-1.215a.51.51,0,0,1-.235-.686.529.529,0,0,1,.7-.235c.774.392,1.538.813,2.283,1.244a.519.519,0,0,1,.216.735Zm-4.6-2.293a.519.519,0,0,1-.647.216c-.774-.314-1.568-.617-2.371-.892a.5.5,0,0,1-.323-.647.51.51,0,0,1,.647-.323c.823.274,1.646.588,2.44.911a.519.519,0,0,1,.284.676Zm-4.9-1.636a.5.5,0,0,1-.568.235c-.813-.216-1.646-.4-2.479-.568a.509.509,0,0,1,.2-.98c.862.167,1.715.363,2.538.588a.519.519,0,0,1,.372.627.512.512,0,0,1-.01.127Zm-7.966,5.732h0c-.46.745-.98,1.48-1.431,2.175a.514.514,0,1,1-.843-.588c.48-.686.98-1.4,1.4-2.126a.513.513,0,0,1,.872.539Zm1.293-2.234a.511.511,0,0,1-.892-.5c.4-.745.784-1.509,1.146-2.273a.51.51,0,0,1,.686-.245.519.519,0,0,1,.245.686q-.558,1.176-1.176,2.322Zm-4.243,6.437v.059c-.549.686-1.117,1.352-1.7,1.96a.519.519,0,0,1-.764-.7c.568-.617,1.117-1.264,1.656-1.96a.509.509,0,0,1,.715-.088.519.519,0,0,1,.137.754Zm6.437-11.091a36.533,36.533,0,0,0-1.078.4c-.823-.118-1.675-.206-2.528-.274a.519.519,0,1,1,.088-.98c.862.069,1.734.167,2.577.284h.088q.441-1.117.823-2.234a.519.519,0,0,1,.98.333c-.274.8-.588,1.626-.911,2.43a.157.157,0,0,1,.01.069Zm-9.906,14.893a.3.3,0,0,1-.088.108c-.637.607-1.3,1.186-1.96,1.724a.512.512,0,1,1-.647-.794c.637-.519,1.274-1.088,1.9-1.675a.51.51,0,0,1,.725,0,.519.519,0,0,1,.117.666Zm11.571-19.763a.528.528,0,1,1-.98-.392c.225-.823.431-1.656.607-2.469a.51.51,0,1,1,1,.206c-.176.843-.382,1.7-.617,2.538a.6.6,0,0,1,.039.147Zm1.058-5.036a.519.519,0,0,1-.519.255.51.51,0,0,1-.431-.588c.118-.843.206-1.7.255-2.518a.519.519,0,0,1,1.029.069c-.059.852-.147,1.724-.265,2.6a.528.528,0,0,1-.02.216Zm-16.657,28.032a.509.509,0,0,1-.157.167,23.627,23.627,0,0,1-2.234,1.372.519.519,0,1,1-.5-.9c.725-.4,1.45-.843,2.156-1.323a.519.519,0,0,1,.715.137.51.51,0,0,1,.108.578ZM331.9,104.5a.519.519,0,0,1-.98-.255,21,21,0,0,0-.176-2.518.519.519,0,0,1,.451-.568.529.529,0,0,1,.578.451c.1.843.157,1.724.176,2.616a.539.539,0,0,1,.039.3Zm-8.6,14.834a.519.519,0,0,1-.451.255h-2.547a.515.515,0,1,1-.02-1.029h2.6a.519.519,0,0,1,.5.529A.559.559,0,0,1,323.293,119.332Zm-12.737,20.86a.441.441,0,0,1-.235.206c-.823.353-1.646.656-2.459.921a.529.529,0,0,1-.647-.333.509.509,0,0,1,.333-.647c.784-.255,1.577-.549,2.371-.882a.519.519,0,0,1,.676.265.529.529,0,0,1-.039.431Zm20.831-40.73a.549.549,0,0,1-.323.245.519.519,0,0,1-.627-.382,17.328,17.328,0,0,0-.745-2.381.526.526,0,0,1,.98-.382,18.388,18.388,0,0,1,.784,2.518.51.51,0,0,1-.1.343Zm-25.73,42.249a.49.49,0,0,1-.333.235,22.734,22.734,0,0,1-2.606.4.519.519,0,0,1-.1-1.029,20.369,20.369,0,0,0,2.489-.372.51.51,0,0,1,.607.392.529.529,0,0,1-.059.372Zm12.473-22.33a.558.558,0,0,1-.412.255,25.012,25.012,0,0,0-2.547.206.519.519,0,0,1-.568-.461.509.509,0,0,1,.461-.558c.872-.1,1.734-.167,2.587-.216a.519.519,0,0,1,.549.48.588.588,0,0,1-.088.294Zm11.346-24.711a.607.607,0,0,1-.176.176.509.509,0,0,1-.705-.176,13.593,13.593,0,0,0-1.46-1.96.51.51,0,0,1,.049-.725.519.519,0,0,1,.725,0,14.456,14.456,0,0,1,1.568,2.156.539.539,0,0,1-.02.529Zm-28.953,47.491a.5.5,0,0,1-.461.255,17.47,17.47,0,0,1-2.636-.314.519.519,0,0,1-.4-.607.509.509,0,0,1,.607-.4,16.528,16.528,0,0,0,2.469.294.509.509,0,0,1,.49.539A.47.47,0,0,1,300.522,142.162ZM312.986,119.9a.519.519,0,0,1-.372.255c-.715.1-1.45.216-2.195.343l-.323.059a.519.519,0,1,1-.176-.98l.323-.059c.745-.127,1.5-.245,2.234-.343a.519.519,0,0,1,.578.431.47.47,0,0,1-.069.294Zm13.09-29.061h0a.519.519,0,0,1-.725.1,11.937,11.937,0,0,0-1.293-.872c-.255-.147-.519-.294-.8-.431a.529.529,0,0,1-.225-.7.519.519,0,0,1,.7-.225c.294.147.578.3.862.47a13.309,13.309,0,0,1,1.391.98.51.51,0,0,1,.1.676ZM307.92,120.812a.49.49,0,0,1-.333.235c-.843.186-1.675.392-2.469.607a.519.519,0,0,1-.274-.98c.813-.216,1.666-.421,2.528-.607a.509.509,0,0,1,.607.392.49.49,0,0,1-.059.353Zm-12.4,20.311a.519.519,0,0,1-.647.206,11.248,11.248,0,0,1-1.538-.764,9.615,9.615,0,0,1-.813-.519.519.519,0,0,1,.6-.843c.235.167.48.333.735.48a11.758,11.758,0,0,0,1.411.7.519.519,0,0,1,.284.676Zm7.446-18.979a.558.558,0,0,1-.284.235c-.833.265-1.636.559-2.391.862a.526.526,0,1,1-.382-.98c.774-.314,1.6-.617,2.449-.892a.509.509,0,0,1,.647.323A.519.519,0,0,1,302.962,122.145ZM321.51,88.537a.529.529,0,0,1-.6.225,17.059,17.059,0,0,0-2.44-.549.519.519,0,0,1-.421-.588.509.509,0,0,1,.588-.431,17.949,17.949,0,0,1,2.577.588.519.519,0,0,1,.343.637Zm-30.1,49.578a.6.6,0,0,1-.127.147.529.529,0,0,1-.725-.1,7.632,7.632,0,0,1-1.264-2.44.519.519,0,0,1,.98-.294,6.644,6.644,0,0,0,1.088,2.107.519.519,0,0,1,.049.578Zm6.78-14.031a.569.569,0,0,1-.206.2,23.023,23.023,0,0,0-2.195,1.235.519.519,0,1,1-.558-.872c.705-.441,1.479-.882,2.293-1.284a.509.509,0,0,1,.686.225.529.529,0,0,1-.02.5Zm-4.311,2.773a.48.48,0,0,1-.118.127,13.375,13.375,0,0,0-1.744,1.754.519.519,0,0,1-.725.069.5.5,0,0,1-.069-.725,14.206,14.206,0,0,1,1.881-1.881.51.51,0,0,1,.725.059.539.539,0,0,1,.069.6Zm-3.919,6.437a.529.529,0,0,1-.5.255.519.519,0,0,1-.461-.558,8.2,8.2,0,0,1,.745-2.636.513.513,0,0,1,.931.431,7.26,7.26,0,0,0-.647,2.3.47.47,0,0,1-.049.206Zm26.455-45.571a.519.519,0,0,1-.461.255h-2.136a.519.519,0,0,1-.539-.5.51.51,0,0,1,.49-.529h2.224a.5.5,0,0,1,.421.774Z" transform="translate(-5.611 -0.579)" fill="#9182ca"/>
    </g>
  </g>
</svg>
