<svg xmlns="http://www.w3.org/2000/svg" xmlns:xlink="http://www.w3.org/1999/xlink" width="549.632" height="421.651" viewBox="0 0 549.632 421.651">
  <defs>
    <linearGradient id="linear-gradient" y1="0.499" x2="1.001" y2="0.499" gradientUnits="objectBoundingBox">
      <stop offset="0" stop-color="#dae3fe"/>
      <stop offset="1" stop-color="#e9effd"/>
    </linearGradient>
    <linearGradient id="linear-gradient-2" x1="0" y1="0.5" x2="0.999" y2="0.5" xlink:href="#linear-gradient"/>
    <linearGradient id="linear-gradient-3" x1="0.003" y1="0.502" x2="1" y2="0.502" xlink:href="#linear-gradient"/>
    <linearGradient id="linear-gradient-4" x1="0.003" y1="0.499" x2="1.003" y2="0.499" xlink:href="#linear-gradient"/>
    <linearGradient id="linear-gradient-5" x1="4.181" y1="-18.947" x2="2.813" y2="-11.752" gradientUnits="objectBoundingBox">
      <stop offset="0" stop-color="#ff928e"/>
      <stop offset="1" stop-color="#fe7062"/>
    </linearGradient>
    <linearGradient id="linear-gradient-6" x1="1.449" y1="-17.204" x2="1.062" y2="-9.995" xlink:href="#linear-gradient-5"/>
    <linearGradient id="linear-gradient-7" x1="2.852" y1="-8.941" x2="1.817" y2="-4.797" xlink:href="#linear-gradient-5"/>
    <linearGradient id="linear-gradient-8" x1="1.04" y1="-0.823" x2="0.859" y2="-0.38" xlink:href="#linear-gradient-5"/>
    <linearGradient id="linear-gradient-9" x1="0.75" y1="-17.306" x2="0.663" y2="-11.145" xlink:href="#linear-gradient-5"/>
    <linearGradient id="linear-gradient-10" x1="0.553" y1="-0.52" x2="0.439" y2="1.691" xlink:href="#linear-gradient-5"/>
    <linearGradient id="linear-gradient-11" x1="0.501" y1="-2.049" x2="0.501" y2="1.324" xlink:href="#linear-gradient-5"/>
    <linearGradient id="linear-gradient-12" x1="0.754" y1="-1.057" x2="0.334" y2="1.517" xlink:href="#linear-gradient-5"/>
    <linearGradient id="linear-gradient-13" x1="1.186" y1="-1.139" x2="0.521" y2="0.314" xlink:href="#linear-gradient-5"/>
    <linearGradient id="linear-gradient-14" x1="0.001" y1="0.5" x2="0.999" y2="0.5" gradientUnits="objectBoundingBox">
      <stop offset="0" stop-color="#e1473d"/>
      <stop offset="1" stop-color="#e9605a"/>
    </linearGradient>
  </defs>
  <g id="Grupo_56942" data-name="Grupo 56942" transform="translate(-765.368 -568.71)">
    <g id="Grupo_56923" data-name="Grupo 56923" transform="translate(-360.199 196.71)">
      <path id="Trazado_118363" data-name="Trazado 118363" d="M0,0H375V421H0Z" transform="translate(1125.567 372.189)" fill="#f5f3fc"/>
      <path id="Trazado_118360" data-name="Trazado 118360" d="M-19.418,767.817v421.651h7.978l-.01-.266c-.736-19.086.8-69.307,30.9-123.309,30.3-54.36,79.262-94.314,145.526-118.751a232.36,232.36,0,0,0,77.981-47.734,253.641,253.641,0,0,0,46.731-58.866c22.1-38.052,28.566-70.047,28.831-71.39l.263-1.336Z" transform="translate(1184.334 -395.817)" fill="#e2def0"/>
      <path id="Trazado_118361" data-name="Trazado 118361" d="M53.441,767.817S28.425,894.879-95.705,940.657c-154.076,56.822-183.387,185.229-180.936,248.811h-.777V767.817Z" transform="translate(1442.617 -395.817)" fill="#fff"/>
    </g>
    <g id="CF1_nuevo_banner" data-name="CF1 nuevo_banner" transform="translate(888.942 537.871)">
      <g id="Layer_1" data-name="Layer 1" transform="translate(50.538 55.433)">
        <g id="Grupo_55064" data-name="Grupo 55064">
          <path id="Trazado_110751" data-name="Trazado 110751" d="M380.947,380.23a134.64,134.64,0,0,1-20.6,17.344c-67.3,48.286-146.939,34.21-163.869,30.776-24.995-5.073-73.3-14.886-108.227-55.964C35.367,310.263,43.652,212.347,84.6,147.72c7.494-11.821,47.1-77.433,127.588-87.955,48.719-6.361,105.5,6.444,146.626,40.93C445.132,173.009,438.982,319.1,380.947,380.23Z" transform="translate(-50.592 -55.652)" fill="#f1eefd"/>
          <g id="Grupo_55019" data-name="Grupo 55019" transform="translate(25.939)">
            <path id="Trazado_110752" data-name="Trazado 110752" d="M92.317,57.695a2.025,2.025,0,0,1,3.508-1.6c13.459,14.73,45.193,58.081,31.126,128.628-17.593,88.5-1.491,122.561,20.152,144.15,0,0-31.108-11.756-48.618-46.344C55.5,197.6,96.653,92.319,92.317,57.695Z" transform="translate(-78.715 -55.433)" fill="#f9aac2"/>
            <path id="Trazado_110753" data-name="Trazado 110753" d="M102.871,89.055c1.059,10.127,1.924,20.18,2.412,30.3s.783,20.253.709,30.38-.433,20.253-1.169,30.307-1.841,20.125-2.974,30.205-2.274,20.253-2.412,30.537a102.648,102.648,0,0,0,3.894,30.693c.736,2.476,1.528,4.953,2.449,7.365s1.841,4.806,2.909,7.172A106.488,106.488,0,0,0,135.9,323.3a1.961,1.961,0,0,0,2.651-2.882h0c-1.841-1.712-3.618-3.452-5.321-5.266-.921-.921-1.7-1.841-2.55-2.762s-1.657-1.841-2.44-2.826a102.811,102.811,0,0,1-8.691-12.1,112.645,112.645,0,0,1-12.078-27.2,97.966,97.966,0,0,1-3.02-14.555,111.692,111.692,0,0,1-.865-14.9c.055-10,1.132-20.06,2.163-30.141s1.979-20.253,2.513-30.38q.433-7.623.58-15.264c.064-2.541.074-5.091.092-7.632s0-5.091-.055-7.641q-.276-15.264-1.473-30.482c-.856-10.127-1.979-20.253-3.5-30.279a.516.516,0,0,0-.6-.442.525.525,0,0,0-.442.516Z" transform="translate(-80.357 -58.061)" fill="#fff"/>
          </g>
          <g id="Grupo_55020" data-name="Grupo 55020" transform="translate(0 26.027)">
            <path id="Trazado_110754" data-name="Trazado 110754" d="M107.977,314.434a5.1,5.1,0,0,1-8.286,1.841c-14.527-13.607-52.217-55.9-47.384-124.587,4.078-58,.783-89.889-1.722-104.241a3.195,3.195,0,0,1,5.358-2.854C80.524,108.032,154.514,191.918,107.977,314.434Z" transform="translate(-50.538 -83.705)" fill="#91b3fa"/>
            <path id="Trazado_110755" data-name="Trazado 110755" d="M104.79,319.947a1.163,1.163,0,0,1-.239.12,1.418,1.418,0,0,1-1.841-.792c-.322-.819-32.553-83.1-30.528-164.053a1.418,1.418,0,1,1,2.826.074c-2.016,80.351,30,162.129,30.334,162.949A1.418,1.418,0,0,1,104.79,319.947Z" transform="translate(-52.249 -89.264)" fill="#fff"/>
          </g>
          <g id="Grupo_55027" data-name="Grupo 55027" transform="translate(202.142 1.673)">
            <g id="Grupo_55024" data-name="Grupo 55024">
              <g id="Grupo_55021" data-name="Grupo 55021" transform="translate(4.864)">
                <path id="Trazado_110756" data-name="Trazado 110756" d="M275.851,95.876a.544.544,0,0,1-.2,0,.469.469,0,0,1-.212-.608c.267-.543.534-1.086.81-1.629a.455.455,0,1,1,.81.414c-.276.534-.543,1.068-.8,1.611A.46.46,0,0,1,275.851,95.876Z" transform="translate(-275.396 -60.119)" fill="#f9aac2"/>
                <path id="Trazado_110757" data-name="Trazado 110757" d="M388.828,97.877a.442.442,0,0,1-.423-.295c-.414-1.114-.865-2.219-1.344-3.3a.453.453,0,0,1,.829-.368c.479,1.1.921,2.219,1.363,3.351a.442.442,0,0,1-.267.58A.433.433,0,0,1,388.828,97.877Zm-3.977-8.534a.47.47,0,0,1-.4-.23c-.58-1.031-1.2-2.062-1.841-3.056a.451.451,0,0,1,.129-.626.46.46,0,0,1,.626.138c.654,1,1.28,2.053,1.841,3.093a.451.451,0,0,1-.175.617A.368.368,0,0,1,384.851,89.343ZM279.9,86.332a.46.46,0,0,1-.239-.074.451.451,0,0,1-.138-.626c.644-1.013,1.335-2.016,2.044-2.983a.451.451,0,1,1,.727.525c-.69.921-1.372,1.952-2.007,2.946a.469.469,0,0,1-.405.212Zm99.73-4.815a.442.442,0,0,1-.359-.175c-.727-.921-1.5-1.841-2.283-2.762a.442.442,0,0,1,0-.635.451.451,0,0,1,.635,0c.8.921,1.583,1.841,2.32,2.762a.451.451,0,0,1-.074.635.414.414,0,0,1-.258.175Zm-94.059-2.7a.451.451,0,0,1-.341-.755c.792-.921,1.629-1.786,2.477-2.633a.451.451,0,0,1,.635,0,.433.433,0,0,1,0,.635c-.829.838-1.648,1.712-2.43,2.6A.469.469,0,0,1,285.572,78.82Zm87.661-4.235a.46.46,0,0,1-.295-.074c-.865-.81-1.768-1.6-2.67-2.357a.442.442,0,0,1-.055-.635.451.451,0,0,1,.635-.064c.921.764,1.841,1.565,2.762,2.394a.46.46,0,0,1,0,.635.442.442,0,0,1-.377.1Zm-80.9-2.32a.451.451,0,0,1-.285-.8c.921-.773,1.841-1.519,2.845-2.237a.454.454,0,1,1,.543.727c-.921.709-1.906,1.445-2.808,2.2A.451.451,0,0,1,292.329,72.265ZM365.877,68.7a.488.488,0,0,1-.249-.074c-.976-.672-1.989-1.316-3-1.915a.454.454,0,0,1,.46-.783c1.031.617,2.053,1.27,3.047,1.942a.46.46,0,0,1,.12.635A.442.442,0,0,1,365.877,68.7Zm-65.861-1.9a.469.469,0,0,1-.4-.212.46.46,0,0,1,.157-.626c1.031-.617,2.1-1.215,3.158-1.768a.469.469,0,0,1,.617.193.451.451,0,0,1-.193.608c-1.05.552-2.1,1.132-3.112,1.74A.433.433,0,0,1,300.017,66.806Zm57.695-2.762a.5.5,0,0,1-.193,0c-1.068-.506-2.163-.985-3.259-1.427a.451.451,0,0,1-.258-.589.46.46,0,0,1,.589-.249c1.114.442,2.228.921,3.314,1.445a.451.451,0,0,1-.193.865ZM308.44,62.626a.451.451,0,0,1-.414-.285.442.442,0,0,1,.249-.589c1.1-.451,2.246-.875,3.388-1.252a.442.442,0,0,1,.571.276.46.46,0,0,1-.276.58c-1.123.377-2.256.792-3.342,1.234a.4.4,0,0,1-.175.018Zm40.507-1.942h-.129c-1.132-.341-2.292-.644-3.443-.921a.471.471,0,1,1,.2-.921c1.169.276,2.348.58,3.5.921a.465.465,0,1,1-.129.921Zm-31.5-.921a.46.46,0,0,1-.442-.35.451.451,0,0,1,.341-.543c1.169-.267,2.357-.516,3.544-.718a.451.451,0,0,1,.525.368.46.46,0,0,1-.368.525c-1.169.2-2.348.442-3.5.709Zm22.3-1.068h-.064c-1.169-.156-2.357-.285-3.544-.377a.462.462,0,0,1,.074-.921c1.2.092,2.4.221,3.59.377a.46.46,0,0,1,.387.516.451.451,0,0,1-.47.4Zm-12.99-.368a.46.46,0,0,1-.451-.423.442.442,0,0,1,.414-.479c1.2-.092,2.412-.157,3.618-.175a.46.46,0,0,1,0,.921c-1.178,0-2.375.083-3.554.175Z" transform="translate(-275.718 -57.25)" fill="#f9aac2"/>
                <path id="Trazado_110758" data-name="Trazado 110758" d="M400.6,109.12a.47.47,0,0,1-.442-.35c-.138-.58-.276-1.169-.433-1.74a.451.451,0,0,1,.313-.562.46.46,0,0,1,.562.322q.239.921.442,1.768a.451.451,0,0,1-.331.543Z" transform="translate(-285.265 -61.156)" fill="#f9aac2"/>
              </g>
              <g id="Grupo_55022" data-name="Grupo 55022" transform="translate(0 72.574)">
                <path id="Trazado_110759" data-name="Trazado 110759" d="M392.311,159.838a.46.46,0,0,1-.239-.074.442.442,0,0,1-.138-.617c.313-.516.626-1.022.921-1.537a.452.452,0,1,1,.783.451c-.313.525-.626,1.049-.921,1.565a.442.442,0,0,1-.405.212Z" transform="translate(-279.777 -137.773)" fill="#f9aac2"/>
                <path id="Trazado_110760" data-name="Trazado 110760" d="M330.932,187.527c-.994,0-2.007,0-3-.074a.451.451,0,0,1-.433-.47.469.469,0,0,1,.479-.433c1.16.055,2.338.083,3.508.064h0a.46.46,0,1,1,0,.921Zm6.288-.322a.46.46,0,1,1,0-.921c1.151-.12,2.329-.276,3.48-.46a.452.452,0,1,1,.138.893c-1.169.193-2.357.35-3.526.469Zm-14.978-.295h-.064c-1.169-.175-2.348-.377-3.508-.608a.442.442,0,0,1-.35-.534.451.451,0,0,1,.525-.359c1.142.239,2.311.433,3.462.6a.461.461,0,1,1-.064.921Zm24.1-1.344a.464.464,0,0,1-.12-.921c1.132-.285,2.265-.617,3.369-.976a.454.454,0,1,1,.276.865c-1.123.359-2.274.69-3.415.994Zm-33.142-.654h-.129c-1.132-.341-2.274-.718-3.379-1.123a.46.46,0,0,1,.313-.856c1.086.405,2.209.773,3.323,1.114a.465.465,0,1,1-.129.921Zm41.916-2.338a.456.456,0,0,1-.175-.875c1.068-.46,2.136-.921,3.176-1.473a.451.451,0,0,1,.608.2.442.442,0,0,1-.2.608c-1.059.525-2.145,1.031-3.222,1.5a.653.653,0,0,1-.239.037Zm-50.56-1a.378.378,0,0,1-.193-.046c-1.068-.506-2.127-1.049-3.167-1.62a.453.453,0,1,1,.442-.792c1.013.562,2.062,1.1,3.112,1.6a.451.451,0,0,1-.193.856Zm58.772-3.3a.442.442,0,0,1-.377-.212.451.451,0,0,1,.138-.626c.994-.617,1.979-1.27,2.928-1.942a.452.452,0,0,1,.525.736c-.967.681-1.97,1.353-2.974,1.979a.442.442,0,0,1-.294.064Zm-66.8-1.316a.433.433,0,0,1-.258-.083c-.976-.663-1.942-1.362-2.882-2.081a.453.453,0,1,1,.552-.718c.921.709,1.841,1.4,2.835,2.053a.442.442,0,0,1,.12.626.451.451,0,0,1-.423.2Zm74.275-4.17a.451.451,0,0,1-.295-.8c.921-.755,1.749-1.556,2.6-2.357a.442.442,0,0,1,.635,0,.46.46,0,0,1,0,.644c-.856.819-1.74,1.62-2.633,2.394a.47.47,0,0,1-.359.12Zm-81.52-1.611a.46.46,0,0,1-.313-.12c-.764-.718-1.537-1.464-2.274-2.228l-.258-.267a.453.453,0,1,1,.654-.626l.249.267c.736.746,1.491,1.482,2.246,2.191a.46.46,0,0,1,0,.644.47.47,0,0,1-.359.138Zm88.075-4.944a.442.442,0,0,1-.341-.746c.764-.921,1.51-1.841,2.219-2.762a.442.442,0,0,1,.635-.083.46.46,0,0,1,.083.635c-.718.921-1.473,1.841-2.246,2.762a.442.442,0,0,1-.4.193Zm-94.372-1.841a.442.442,0,0,1-.359-.175c-.737-.921-1.455-1.841-2.136-2.845a.452.452,0,0,1,.736-.525c.672.921,1.381,1.9,2.108,2.808a.451.451,0,0,1-.074.635.46.46,0,0,1-.331.092Zm-5.211-7.669a.46.46,0,0,1-.4-.23c-.589-1.022-1.151-2.081-1.676-3.13a.453.453,0,1,1,.81-.405c.515,1.031,1.068,2.081,1.648,3.093a.442.442,0,0,1-.166.617.488.488,0,0,1-.276.046Zm-3.986-8.368a.46.46,0,0,1-.423-.285c-.423-1.1-.819-2.228-1.188-3.36a.454.454,0,0,1,.865-.276c.359,1.114.746,2.228,1.169,3.3a.451.451,0,0,1-.258.589Z" transform="translate(-270.274 -136.72)" fill="#f9aac2"/>
                <path id="Trazado_110761" data-name="Trazado 110761" d="M270.93,138.768a.442.442,0,0,1-.442-.35c-.138-.6-.258-1.188-.368-1.786a.468.468,0,1,1,.921-.166c.11.58.23,1.169.359,1.758a.46.46,0,0,1-.35.534Z" transform="translate(-270.112 -136.082)" fill="#f9aac2"/>
              </g>
              <g id="Grupo_55023" data-name="Grupo 55023" transform="translate(13.641 14.029)">
                <path id="Trazado_110762" data-name="Trazado 110762" d="M284.93,122.995a.746.746,0,0,0,.47.718l8.286,3.305a39.146,39.146,0,0,0,4.281,11.876l-4.281,7.853a.746.746,0,0,0,.1.847l7.236,7.926a.737.737,0,0,0,.829.184l8.212-3.544a39.045,39.045,0,0,0,11.434,5.358l2.522,8.589a.755.755,0,0,0,.672.525l10.716.5a.737.737,0,0,0,.718-.469l3.3-8.286a39.062,39.062,0,0,0,11.876-4.281l7.853,4.281a.737.737,0,0,0,.847-.1l7.926-7.236a.727.727,0,0,0,.184-.829l-3.517-8.2a38.841,38.841,0,0,0,5.367-11.434l8.58-2.522a.727.727,0,0,0,.525-.672l.5-10.725a.718.718,0,0,0-.46-.709l-8.286-3.305a38.84,38.84,0,0,0-4.29-11.876l4.281-7.853a.727.727,0,0,0-.1-.847l-7.227-7.936a.737.737,0,0,0-.838-.175L354.436,87.5a38.841,38.841,0,0,0-11.443-5.4l-2.522-8.58a.718.718,0,0,0-.672-.525l-10.716-.5a.737.737,0,0,0-.718.46l-3.3,8.286a38.923,38.923,0,0,0-11.876,4.29l-7.871-4.281a.727.727,0,0,0-.847.1l-7.926,7.264a.755.755,0,0,0-.184.838l3.544,8.212a39.044,39.044,0,0,0-5.358,11.434l-8.626,2.532a.746.746,0,0,0-.525.672Z" transform="translate(-284.93 -72.489)" fill="#f9aac2"/>
                <path id="Trazado_110763" data-name="Trazado 110763" d="M335.431,133.241a10.2,10.2,0,1,1,8.534-4.6A10.2,10.2,0,0,1,335.431,133.241Zm0-19.047a8.847,8.847,0,1,0,4.861,1.464,8.737,8.737,0,0,0-4.824-1.491Z" transform="translate(-288.129 -75.692)" fill="url(#linear-gradient)"/>
                <path id="Trazado_110764" data-name="Trazado 110764" d="M334.394,148.146a26.5,26.5,0,0,1-19.646-8.654c-.276-.3-.543-.608-.8-.921a27.327,27.327,0,0,1-2.081-2.863h0c-.11-.166-.212-.341-.322-.516h0l-.138-.221,1.178-.69a24.664,24.664,0,0,0,3.176,4.327h0a25.225,25.225,0,0,0,35.48,1.777l.138-.129a25.216,25.216,0,1,0-41.142-25.924l-1.307-.387a26.587,26.587,0,1,1,25.464,34.219Z" transform="translate(-286.835 -74.275)" fill="url(#linear-gradient-2)"/>
              </g>
            </g>
            <path id="Trazado_110765" data-name="Trazado 110765" d="M395.488,133.176l4.787,1.473a21.533,21.533,0,0,0,2.928,6.444l-2.044,4.6a.405.405,0,0,0,.092.469l4.391,4.106a.405.405,0,0,0,.47.064L410.54,148a22.013,22.013,0,0,0,6.628,2.486l1.786,4.686a.414.414,0,0,0,.405.258l6-.193a.433.433,0,0,0,.387-.295l1.473-4.787a21.975,21.975,0,0,0,6.444-2.928l4.6,2.044a.405.405,0,0,0,.47-.092l4.106-4.391a.405.405,0,0,0,.064-.47l-2.348-4.428a21.616,21.616,0,0,0,2.486-6.628l4.686-1.786a.433.433,0,0,0,.267-.405l-.2-6a.414.414,0,0,0-.295-.387l-4.787-1.473a21.837,21.837,0,0,0-2.918-6.444l2.044-4.6a.414.414,0,0,0-.1-.469l-4.391-4.134a.414.414,0,0,0-.479-.064l-4.428,2.348a21.828,21.828,0,0,0-6.619-2.495l-1.8-4.677a.424.424,0,0,0-.4-.267l-6.012.2a.4.4,0,0,0-.378.285l-1.482,4.8a21.946,21.946,0,0,0-6.444,2.918l-4.6-2.044a.405.405,0,0,0-.47.092l-4.1,4.428a.414.414,0,0,0-.055.479l2.338,4.428a22.1,22.1,0,0,0-2.486,6.619l-4.686,1.841a.414.414,0,0,0-.258.4l.193,6.012A.414.414,0,0,0,395.488,133.176Z" transform="translate(-280.026 -60.834)" fill="#f9aac2"/>
            <path id="Trazado_110766" data-name="Trazado 110766" d="M423.239,136.7a6.039,6.039,0,1,1,1.676-.239,5.809,5.809,0,0,1-1.676.239Zm0-10.679a4.409,4.409,0,0,0-1.289.184,4.658,4.658,0,0,0-.967,8.552h0a4.6,4.6,0,0,0,3.544.405,4.668,4.668,0,0,0-1.28-9.142Z" transform="translate(-281.788 -62.598)" fill="url(#linear-gradient-3)"/>
            <g id="Grupo_55025" data-name="Grupo 55025" transform="translate(109.132 35.489)">
              <path id="Trazado_110767" data-name="Trazado 110767" d="M389.111,126.2h-.074a.451.451,0,0,1-.378-.516c.092-.608.2-1.215.322-1.841a.47.47,0,1,1,.921.193c-.129.571-.23,1.169-.322,1.749A.451.451,0,0,1,389.111,126.2Z" transform="translate(-388.654 -97.997)" fill="#f9aac2"/>
              <path id="Trazado_110768" data-name="Trazado 110768" d="M391.451,116.357a.534.534,0,0,1-.175,0,.469.469,0,0,1-.249-.6,33.262,33.262,0,0,1,1.537-3.2l.157-.285a.453.453,0,0,1,.792.442l-.156.285a32.442,32.442,0,0,0-1.491,3.066.451.451,0,0,1-.414.295Zm5.183-8.433a.47.47,0,0,1-.295-.11.451.451,0,0,1-.046-.635,31.526,31.526,0,0,1,2.661-2.762.442.442,0,0,1,.635,0,.451.451,0,0,1,0,.644,32.427,32.427,0,0,0-2.578,2.7.479.479,0,0,1-.377.193Zm47.55-1.657a.46.46,0,0,1-.322-.138,30.949,30.949,0,0,0-2.762-2.5.452.452,0,1,1,.561-.709,34.343,34.343,0,0,1,2.854,2.578.46.46,0,0,1-.331.773Zm-40.037-4.76a.469.469,0,0,1-.387-.212.46.46,0,0,1,.129-.709,33.2,33.2,0,0,1,3.379-1.841.46.46,0,0,1,.6.221.442.442,0,0,1-.221.6,33.137,33.137,0,0,0-3.277,1.786.442.442,0,0,1-.221.157Zm32.093-1.114a.488.488,0,0,1-.212-.055,31.153,31.153,0,0,0-3.388-1.593.451.451,0,0,1-.258-.589.442.442,0,0,1,.58-.258,32.221,32.221,0,0,1,3.489,1.593.46.46,0,0,1,.193.617.47.47,0,0,1-.405.239Zm-23.015-2.762a.464.464,0,0,1-.11-.921,32.892,32.892,0,0,1,3.775-.727.46.46,0,0,1,.506.4.451.451,0,0,1-.387.506,31.126,31.126,0,0,0-3.682.7Zm13.625-.488h-.083a33.525,33.525,0,0,0-3.682-.442.451.451,0,0,1-.433-.479.46.46,0,0,1,.479-.423,30.986,30.986,0,0,1,3.811.46.462.462,0,0,1-.074.921Z" transform="translate(-388.84 -95.8)" fill="#f9aac2"/>
              <path id="Trazado_110769" data-name="Trazado 110769" d="M453.88,113.79a.479.479,0,0,1-.4-.221q-.442-.773-.921-1.519a.46.46,0,0,1,.129-.626.451.451,0,0,1,.626.129c.341.506.663,1.031.967,1.556a.46.46,0,0,1-.157.626A.525.525,0,0,1,453.88,113.79Z" transform="translate(-393.722 -97.034)" fill="#f9aac2"/>
            </g>
            <g id="Grupo_55026" data-name="Grupo 55026" transform="translate(112.416 75.133)">
              <path id="Trazado_110770" data-name="Trazado 110770" d="M457.281,141.512a.314.314,0,0,1-.129,0,.451.451,0,0,1-.3-.562c.175-.571.331-1.151.46-1.722a.472.472,0,1,1,.921.212c-.138.589-.3,1.188-.479,1.768A.442.442,0,0,1,457.281,141.512Z" transform="translate(-397.351 -138.862)" fill="#f9aac2"/>
              <path id="Trazado_110771" data-name="Trazado 110771" d="M423.768,165.06a.46.46,0,0,1,0-.921,32.577,32.577,0,0,0,3.682-.451.442.442,0,0,1,.525.359.451.451,0,0,1-.359.525,32.555,32.555,0,0,1-3.747.47Zm-6.039-.166h-.055a33.835,33.835,0,0,1-3.682-.672.46.46,0,0,1-.331-.552.451.451,0,0,1,.543-.331,32.028,32.028,0,0,0,3.618.654.454.454,0,0,1-.092.9Zm15.558-1.933a.451.451,0,0,1-.377-.322.442.442,0,0,1,.258-.58,33.15,33.15,0,0,0,3.342-1.519.451.451,0,0,1,.617.184.47.47,0,0,1-.193.617A33.807,33.807,0,0,1,433.5,162.9.359.359,0,0,1,433.287,162.961Zm-24.939-.709a.415.415,0,0,1-.184,0c-.792-.359-1.565-.746-2.32-1.169-.35-.184-.69-.387-1.031-.589a.451.451,0,0,1-.147-.617.442.442,0,0,1,.617-.156l.994.571c.737.405,1.491.792,2.256,1.142a.451.451,0,0,1,.23.6.442.442,0,0,1-.414.221Zm33.4-4.143a.461.461,0,0,1-.359-.166.451.451,0,0,1,.074-.635,32.841,32.841,0,0,0,2.762-2.449.451.451,0,0,1,.644,0,.46.46,0,0,1,0,.644,31.833,31.833,0,0,1-2.845,2.532.451.451,0,0,1-.276.074Zm-41.575-1.169a.451.451,0,0,1-.295-.11,31.876,31.876,0,0,1-2.67-2.679.451.451,0,1,1,.672-.6,31.41,31.41,0,0,0,2.6,2.6.46.46,0,0,1,0,.644A.451.451,0,0,1,400.173,156.94Zm48.185-5.984a.46.46,0,0,1-.377-.709c.525-.783,1.031-1.6,1.491-2.43l.387-.727a.453.453,0,1,1,.8.424l-.4.736c-.47.856-.985,1.7-1.528,2.5a.46.46,0,0,1-.377.2Z" transform="translate(-392.607 -139.496)" fill="#f9aac2"/>
              <path id="Trazado_110772" data-name="Trazado 110772" d="M393.583,149.426a.451.451,0,0,1-.387-.221c-.313-.525-.617-1.068-.921-1.611a.442.442,0,0,1,.193-.608.46.46,0,0,1,.608.193c.276.525.571,1.05.865,1.556a.451.451,0,0,1-.156.626.506.506,0,0,1-.2.064Z" transform="translate(-392.222 -139.503)" fill="#f9aac2"/>
            </g>
            <path id="Trazado_110773" data-name="Trazado 110773" d="M422.613,145.062a15.227,15.227,0,0,1-12.161-6.085l-.322-.451,1.114-.773a14.226,14.226,0,0,0,1.924,2.228,14.066,14.066,0,0,0,2.882,2.071,13.883,13.883,0,0,0,10.854.976l.212-.074h0a13.809,13.809,0,0,0,5.008-3.066h0a1.455,1.455,0,0,0,.12-.12c.129-.12.258-.258.377-.387a13.727,13.727,0,0,0,3.738-9.436v-.469a13.809,13.809,0,0,0-27.342-2.467l-1.326-.285a15.181,15.181,0,0,1,30.021,2.707c0,.166,0,.341,0,.516a15.181,15.181,0,0,1-15.19,15.172Z" transform="translate(-281.034 -61.811)" fill="url(#linear-gradient-4)"/>
          </g>
          <g id="Grupo_55029" data-name="Grupo 55029" transform="translate(9.622 67.819)">
            <path id="Trazado_110774" data-name="Trazado 110774" d="M294.467,140.783,178.893,129.1,63.126,140.111,60.99,396.336,176.7,391.024l115.611,8.065,115.6-9.7,2.117-253.528Z" transform="translate(-60.99 -129.1)" fill="#fff"/>
            <path id="Trazado_110775" data-name="Trazado 110775" d="M179.95,385.863,70.01,390.9l2.025-243.06L182.021,137.39Z" transform="translate(-61.706 -129.758)" fill="#7d97f4"/>
            <path id="Trazado_110776" data-name="Trazado 110776" d="M299.278,393.514l-109.848-7.65L191.5,137.39l109.811,11.084Z" transform="translate(-71.186 -129.758)" fill="#91b3fa"/>
            <path id="Trazado_110777" data-name="Trazado 110777" d="M418.588,384.87l-109.838,9.2,2.035-245.04L420.6,144.36Z" transform="translate(-80.659 -130.311)" fill="#7d97f4"/>
            <rect id="Rectángulo_6291" data-name="Rectángulo 6291" width="2.486" height="248.547" transform="translate(117.912 7.61) rotate(0.51)" fill="#fff" opacity="0.47"/>
            <g id="Grupo_55028" data-name="Grupo 55028" transform="translate(23.581 54.931)">
              <path id="Trazado_110778" data-name="Trazado 110778" d="M276.845,315.96q-.663,5.211-1.086,10.431c-.064.829.1,1.961.921,2.044a1.555,1.555,0,0,0,1.215-.727c1.381-1.583,2.863-3.627,2.2-5.643-.258-.755-.783-1.381-.985-2.145-.313-1.151.175-2.375.046-3.563s-1.547-2.357-2.348-1.491Z" transform="translate(-101.619 -198.754)" fill="#6c58b8"/>
              <path id="Trazado_110779" data-name="Trazado 110779" d="M172.853,191.951c-5.441-2.872-8.866-3.259-14.73-2.624-5.524.6-9.261,3.379-13.054,7.365a9.98,9.98,0,0,1-2.817,2.394c-4.686,2.163-10.633,1.731-15.42,3.867-5.689,2.541-7.3,10.449-12.5,13.947-3.01,2.025-6.813,2.283-10.127,3.682-4.9,2.145-7.153,6.592-9.933,10.928-1.712,2.67-8.009,7.236-7.65,10.348a3.9,3.9,0,0,0,.6,1.583c1.731,2.762,4.327,3.093,7.061,3.894,3.609,1.05,5.781,2.67,8.976,4.935,3.333,2.357,7.862,4.41,8.157,8.58.129,1.933-.773,3.756-1.215,5.634-1.989,8.5,5.395,16.12,12.585,20.714s15.65,9.133,17.943,17.538a4.6,4.6,0,0,0,.921,2.154c2.09,2.062,3.682-2.605,4.3-4.1a2.983,2.983,0,0,0-.6-2.909,15.169,15.169,0,0,0-2.3-2.035,13.34,13.34,0,0,1-4.649-9.1,2.081,2.081,0,0,1,.212-1.3c1.243-1.841,4.345-2.661,5.874-4.944,2.173-3.268,2.67-6.371,3.047-10.246,1.363-14.251,14.334-9.206,22.481-15.531a7.807,7.807,0,0,0,2.909-4.925,5.174,5.174,0,0,0-.451-3.066,6.444,6.444,0,0,0-4.143-3.148,18.356,18.356,0,0,0-5.266-.4l-4.916.1a3.553,3.553,0,0,0-1.427.23,3.222,3.222,0,0,0-1.39,1.51,12.511,12.511,0,0,0-1.547,6.564c-2.154.755-4.253-1.3-5.432-3.323a24.856,24.856,0,0,1-2.882-7.567,4.5,4.5,0,0,1,.184-3.075,3.93,3.93,0,0,1,1.188-1.215,12.962,12.962,0,0,1,6.2-2.642c3.839-.423,7.577,1.473,10.725,3.793s7.945,4.9,11.342,1.694c1.749-1.657,1.777-4.668.562-6.767-1.979-3.415-7.033-5.2-10.329-6.932a6.444,6.444,0,0,1-2.964-4.2,19.479,19.479,0,0,1-.35-5.33,16.359,16.359,0,0,1,14.251.985c.608.35,1.261.838,1.326,1.547a3.122,3.122,0,0,1-.921,1.933c-3.94,5.155-.4,9.317,4.244,12.226.11-13.073.138-26.21.147-39.3a52.9,52.9,0,0,1-8.212-3.48Z" transform="translate(-86.604 -188.791)" fill="#472ea6"/>
              <path id="Trazado_110780" data-name="Trazado 110780" d="M222.141,203.575c-.635-.856-1.9-.635-2.946-.635-3.323,0-5.975-2.882-9.206-3.83a19.332,19.332,0,0,0-5.2-.469,52.724,52.724,0,0,1-15.65-2.661c0,13.091,0,26.228-.147,39.3a44.639,44.639,0,0,0,8.4,3.922c2.329.819,4.6,2.173,7.043,1.666,2.311-.47,4.391-3.075,6.785-3.738,1.74-.488,3.59-.23,5.349-.6s3.6-1.731,3.526-3.59c-.064-1.51-1.344-2.642-2.624-3.379a12.4,12.4,0,0,1-2.421-2.062c-1.933-3.876.921-7.282,1.952-10.624,1.556-4.842-.755-7.687,4.032-10.366C222.077,205.941,222.878,204.523,222.141,203.575Z" transform="translate(-94.732 -189.34)" fill="#6c58b8"/>
              <path id="Trazado_110781" data-name="Trazado 110781" d="M154.275,335.97a17.382,17.382,0,0,1,1.694,4.824c.792,6.141-4.318,13.69-6.49,19.333a9.63,9.63,0,0,0-.921,4.87,9.483,9.483,0,0,0,.654,2.007c1.97,4.806,5.846,9.206,9.289,12.889,1.178-3.185,1.1-10.808.764-14.2a7.522,7.522,0,0,1,.11-3.333c1.27-3.342,5.422-7.954,8.286-9.952s6.49-3.526,7.218-6.941c.276-1.316,0-2.762.46-4a13.652,13.652,0,0,1,1.077-2.136c1.841-3.489,2.845-10.228-.792-12.7-4.06-2.762-9.8,1.289-13.294-3.231a22.754,22.754,0,0,0-1.51-2.09,4.925,4.925,0,0,0-4.364-1.234C146.2,321.839,151.218,329.535,154.275,335.97Z" transform="translate(-91.52 -199.183)" fill="#472ea6"/>
              <path id="Trazado_110782" data-name="Trazado 110782" d="M224.6,274.847c3.25,2.145,8.847-2.569,10.9-8.074a6.5,6.5,0,0,1,.967-1.961c.921-1.123,2.615-1.27,4.06-1.059a15.71,15.71,0,0,0,4.318.488,6.647,6.647,0,0,0,4.741-3.83,20.592,20.592,0,0,0,1.648-6.214,7.043,7.043,0,0,1,4.6.423c1.1.506,2.209,1.63,1.9,2.854a3.425,3.425,0,0,1-.921,1.409,40.652,40.652,0,0,0-3.388,4.133c-.644.921-1.27,2.062-.792,3.056,1.316,2.762,3.682,1.307,3.02,5.192-.865,4.87-7.264,6.868-3.609,12.677a7.807,7.807,0,0,0,6.232,3.544c1.758.083,3.922-.856,3.949-2.679a5.212,5.212,0,0,1,0-1.6,1.906,1.906,0,0,1,1.62-1.1c2.191-.341,4.318.792,6.343,1.74a2.126,2.126,0,0,0,1.924.2c1.9-1.123,1.013-2.053,3.59-2.3,2.191-.212,4.769,1.537,6.012,3.277a1.574,1.574,0,0,1,.377,1.427c-.166.423-.617.635-.847,1.022a1.537,1.537,0,0,0,.6,1.86,5.431,5.431,0,0,0,2.044.654c3.3.7,3.379,3.959,5.717,5.579,1.887,1.326,6.711,1.583,6.288-2.21-.156-1.39-1.5-2.532-1.28-3.9.193-1.215,1.51-1.841,2.688-2.016s2.44,0,3.489-.608a16.172,16.172,0,0,0,1.841-1.5c3.94-2.974,13.275-.451,16.295,2.882,2.826,3.1,3.139,8.46,6.776,10.477a16.682,16.682,0,0,0-5.524-10.744,5.054,5.054,0,0,1-1.482-1.675,4.392,4.392,0,0,1-.2-1.9,41.63,41.63,0,0,1,1.648-9.372c-.1.368,2.311-6.269.571-5.017,3.1-2.246,9.878-5.938,13.763-5.7a5.763,5.763,0,0,1,4.87,3.241,4.741,4.741,0,0,1-1.335,5.625c-1.6,1.132-3.821.921-5.45,2.016a4.373,4.373,0,0,0-1.5,5.109,7.273,7.273,0,0,1,4.253-2.909c2.274-.543,4.852,0,6.813-1.28a5.524,5.524,0,0,0,2.228-4.6,10.358,10.358,0,0,0-1.473-5.054,15.843,15.843,0,0,1-1.685-3.434,7.466,7.466,0,0,1,1.206-5.864A16.313,16.313,0,0,1,361.3,250.35a1.98,1.98,0,0,1,1.215.81c.359.644,0,1.464.166,2.191a1.583,1.583,0,0,0,2.651.681,5.4,5.4,0,0,0,.663-2.3c.5-2.035,2.513-3.287,4.465-3.867,2.394-.718,8.81-4,9.473.341a4.171,4.171,0,0,0,.2,1.132c.451.976,1.952.838,2.661.046,1.473-1.639,1.731-4.318,3.158-6.15,1.261-1.611,3.13-2.578,4.18-4.382a8.985,8.985,0,0,0-3.922-12.484c-4.364-2.071-9.436-1.151-14.168-.276-3.25.608-14.417,2.928-15.218-2.522a3.949,3.949,0,0,0-.258-1.326c-.258-.488-.8-.746-1.132-1.188a6.738,6.738,0,0,1-.663-2.016c-.829-2.449-3.931-2.9-6.444-2.928.249-1.519.387-3.369-.792-4.308a4.06,4.06,0,0,0-2.412-.626c-2.182-.1-7.457.709-9.271-.608-2.4-1.758-.746-4.741-1.8-7.162-1.114-2.559-5.248-2.918-5.708-5.689-.1-.608,0-1.224-.055-1.841-.175-1.473-1.335-2.587-2.421-3.554-1.961-1.758-4.2-3.627-6.794-3.554-.488.4-.046,1.234.506,1.537s1.252.46,1.528,1.031c.534,1.1-.994,2.016-2.173,2.246-.055,1.611,1.51,2.679,2.762,3.682a12.18,12.18,0,0,1,4.051,6.849,44.4,44.4,0,0,1-12.539.534c-5.036-.5-8.285,7.77-14.242,5.524a15.6,15.6,0,0,0-2.587-1.123c-2.329-.46-4.2,1.841-6.288,2.964-3.176,1.749-7.07.838-10.477-.359-4.069-1.436-9.022-3.508-13.119-1.022-1.537.921-2.762,2.366-4.382,3.112-3.406,1.565-7.273-.359-10.983-.727-9.16-.921-14.665,8.359-17.639,16.083a9.207,9.207,0,0,0-.8,3.682,3.544,3.544,0,0,0,1.786,3.084c1.648.773,3.563-.451,4.6-1.952s1.722-3.342,3.038-4.6,3.728-1.694,4.769-.166a4.658,4.658,0,0,1,.534,2.661c0,1.749,0,3.489,0,5.238a6.951,6.951,0,0,1-.377,2.826c-.626,1.473-2.127,2.274-3.526,2.974l-9.086,4.557a13.4,13.4,0,0,0-2.928,1.786c-3.959,3.462-1.3,8.286-4.355,11.572-1.234,1.335-3.277,1.74-4.29,3.268a6.9,6.9,0,0,0-.709,3.968C222.294,271.837,223.242,273.936,224.6,274.847Z" transform="translate(-97.361 -188.768)" fill="#6c58b8"/>
              <path id="Trazado_110783" data-name="Trazado 110783" d="M338.425,313.561c-1.224,2.292-1.059,5.293-3.83,6.564-1.841.838-4.207.451-5.708,1.841-1.712,1.593-1.27,4.41-.921,6.757a2.339,2.339,0,0,1-.055,1.261c-.442,1.04-2.025,1.013-2.568,1.989s.11,1.906.81,2.55a6.444,6.444,0,0,0,7.926.6c.635-.433,1.316-1.022,2.053-.828s1.151,1.3,1.39,2.182a8.47,8.47,0,0,0,3.029,4.806c4.888,3.489,11.756-.764,17.188,4.17a4.446,4.446,0,0,1,1.491,2.219c.212.967-.1,2.081.423,2.909.663,1.04,2.283.921,3.167.064a7.365,7.365,0,0,0,1.611-3.287,5.422,5.422,0,0,1,1.841-3.084c1.712-1.114,3.682-.69,4.6-2.955,1.178-2.882-2.348-5.266-1.234-7.9.506-1.169,1.307-2.449.8-3.627a5.33,5.33,0,0,0-1.243-1.455c-2.09-2.163-2.449-4.2-5.229-5.524-1.777-.847-5.468.249-6.2-2.817-.193-.8.083-1.841-.516-2.357a1.841,1.841,0,0,0-1.28-.322c-3.121,0-6.822.055-8.6-2.6-1.97-2.928-2.2-5.036-6.187-3.581a4.87,4.87,0,0,0-2.771,2.421Z" transform="translate(-105.541 -198.445)" fill="#6c58b8"/>
              <path id="Trazado_110784" data-name="Trazado 110784" d="M237.137,296.064c-.644.921-1.013,2.053-1.694,2.964-1.933,2.541-2.762.295-4.944,1.151a18.351,18.351,0,0,1-2.209,1.013c-1.583.377-3.158-.718-4.787-.727-6.269,0-2.983,10.4.055,12.4a3.387,3.387,0,0,0,1.933.368l6.2-.064a2.827,2.827,0,0,1,1.7.35c1.5,1.059.074,3.682.976,5.321.617,1.123,2.053,1.326,3.277,1.556,2.587.488,3.158,3.406,4.741,5.2,2.044,2.32,3.986,3.25,5.137,6.61.681,2,.921,4.152,1.841,6.048a9.013,9.013,0,0,0,10.652,4.677,9.5,9.5,0,0,0,5.984-10.246c-.423-2.513-1.841-4.7-2.762-7.043-1.961-4.723-.635-10.477,4.787-11.379,1.372-.221,3.112-.3,3.618-1.639.736-1.924-2.1-4.17-.921-5.837.423-.608,1.243-.819,1.611-1.455.506-.856-.064-1.97-.764-2.661a5.993,5.993,0,0,1-1.841-2.246c-1.62-5.376-6.951-2.016-10.5-1.307a9.206,9.206,0,0,1-7.613-1.353C247.466,295.318,241.27,290.135,237.137,296.064Z" transform="translate(-97.189 -197.068)" fill="#6c58b8"/>
              <path id="Trazado_110785" data-name="Trazado 110785" d="M253.169,204.811c.469-.921,1.611-1.114,2.605-1.178a37.671,37.671,0,0,1,10.21.681c-2.762,2.255-5.883,4.6-9.409,4.511-1.6-.055-3.268-.626-4.76-.046a3.793,3.793,0,0,1,.5-3.277Z" transform="translate(-99.706 -189.94)" fill="#6c58b8"/>
              <path id="Trazado_110786" data-name="Trazado 110786" d="M210.364,249.5c3.489,2.854,15.77-.921,10.035-4.6a7.762,7.762,0,0,0-3.112-.921,11.812,11.812,0,0,0-4.364-.147,4.2,4.2,0,0,0-3.259,2.762,2.615,2.615,0,0,0,.7,2.909Z" transform="translate(-96.359 -193.128)" fill="#6c58b8"/>
              <path id="Trazado_110787" data-name="Trazado 110787" d="M375.163,222.489c2.154,1.952,5.174,2.43,8.009,2.835,1.418.193,3.268.138,3.756-1.252s-1.142-2.817-2.642-2.983-3.093.239-4.483-.368c-1.224-.543-2.2-1.841-3.535-1.841-1.556,0-2.5,2.366-1.409,3.517Z" transform="translate(-109.45 -191.158)" fill="#6c58b8"/>
            </g>
            <path id="Trazado_110788" data-name="Trazado 110788" d="M418.628,385.49,308.78,394.7l2.044-245.04,109.811-4.677Z" transform="translate(-80.661 -130.361)" fill="#fff" opacity="0.12"/>
          </g>
          <g id="Grupo_55034" data-name="Grupo 55034" transform="translate(44.725 99.681)">
            <rect id="Rectángulo_6292" data-name="Rectángulo 6292" width="113.245" height="30.435" rx="14.26" fill="#6c58b8"/>
            <g id="Grupo_55032" data-name="Grupo 55032" transform="translate(6.972 3.121)">
              <g id="Grupo_55031" data-name="Grupo 55031" transform="translate(7.206 5.054)">
                <path id="Trazado_110789" data-name="Trazado 110789" d="M132.439,179.867H116.466a.773.773,0,1,1,0-1.537h15.973a.773.773,0,1,1,0,1.537Z" transform="translate(-114.606 -173.045)" fill="#fff"/>
                <g id="Grupo_55030" data-name="Grupo 55030" transform="translate(6.122 0.948)">
                  <path id="Trazado_110790" data-name="Trazado 110790" d="M121.934,189.758c-.423,0-.764-.562-.764-1.261V174.89c0-.7.341-1.27.764-1.27s.773.571.773,1.27v13.653C122.68,189.2,122.33,189.758,121.934,189.758Z" transform="translate(-121.17 -173.62)" fill="#fff"/>
                  <path id="Trazado_110791" data-name="Trazado 110791" d="M128.244,189.758c-.423,0-.764-.562-.764-1.261V174.89c0-.7.341-1.27.764-1.27s.773.571.773,1.27v13.653C129.017,189.2,128.677,189.758,128.244,189.758Z" transform="translate(-121.671 -173.62)" fill="#fff"/>
                </g>
                <path id="Trazado_110792" data-name="Trazado 110792" d="M131.958,185.657h-15.4a.773.773,0,1,1,0-1.537h15.4a.773.773,0,1,1,0,1.537Z" transform="translate(-114.614 -173.505)" fill="#fff"/>
                <path id="Trazado_110793" data-name="Trazado 110793" d="M132.721,190.514H115.883a1.363,1.363,0,0,1-1.363-1.362v-15.2a1.363,1.363,0,0,1,1.363-1.363h16.838a1.363,1.363,0,0,1,1.363,1.363v15.2A1.363,1.363,0,0,1,132.721,190.514ZM117.236,187.8h14.131V175.306H117.236Z" transform="translate(-114.52 -172.59)" fill="#fff"/>
              </g>
              <path id="Trazado_110794" data-name="Trazado 110794" d="M115.261,190.078h-7.208a1.362,1.362,0,0,1-1-.451,1.335,1.335,0,0,1-.35-1.04l1.952-20.253A1.363,1.363,0,0,1,110,167.1h3.48a1.372,1.372,0,0,1,1.353,1.243l1.777,20.254a1.39,1.39,0,0,1-.359,1.04,1.372,1.372,0,0,1-.994.442Zm-5.708-2.716h4.226l-1.537-17.593h-1Z" transform="translate(-106.693 -167.1)" fill="#fff"/>
            </g>
            <g id="Grupo_55033" data-name="Grupo 55033" transform="translate(40.82 7.328)" opacity="0.79">
              <rect id="Rectángulo_6293" data-name="Rectángulo 6293" width="37.653" height="2.882" rx="1.35" fill="#fff"/>
              <rect id="Rectángulo_6294" data-name="Rectángulo 6294" width="37.653" height="2.882" rx="1.35" transform="translate(0 6.122)" fill="#fff"/>
              <rect id="Rectángulo_6295" data-name="Rectángulo 6295" width="15.337" height="2.882" rx="1.35" transform="translate(0 12.235)" fill="#fff"/>
            </g>
            <path id="Trazado_110795" data-name="Trazado 110795" d="M198.679,189.218l15.162-9.206a.8.8,0,0,0,0-1.261l-15.236-9.1c-.35-.212-.746.129-.746.626v2.974a.635.635,0,0,1-.525.69l-7.991.064c-.295,0-.525.3-.525.69v9.611a.635.635,0,0,0,.525.69l8-.064a.626.626,0,0,1,.525.69v2.964C197.934,189.1,198.33,189.429,198.679,189.218Z" transform="translate(-106.241 -164.177)" fill="#fff"/>
          </g>
          <g id="Grupo_55037" data-name="Grupo 55037" transform="translate(257.009 125.753)">
            <rect id="Rectángulo_6296" data-name="Rectángulo 6296" width="113.245" height="30.435" rx="14.26" fill="#6c58b8"/>
            <g id="Grupo_55035" data-name="Grupo 55035" transform="translate(7.337 9.372)">
              <path id="Trazado_110796" data-name="Trazado 110796" d="M355.374,214.04H344.327a.644.644,0,0,1-.626-.5,1.363,1.363,0,0,0-.092-.249h0a1.64,1.64,0,0,0-.157-.276,2.007,2.007,0,0,0-1.657-.921,2.035,2.035,0,0,0-1.657.921,1.636,1.636,0,0,0-.157.276h0a1.364,1.364,0,0,0-.092.249.644.644,0,0,1-.626.5h-.552a1.031,1.031,0,0,1-1.031-1.031v-9.768a1.031,1.031,0,0,1,1.031-1.031h16.663a1.031,1.031,0,0,1,1.031,1.031v9.768A1.031,1.031,0,0,1,355.374,214.04Zm-10.559-1.289h10.3v-9.206H338.987v8.939l.12-.184a3.287,3.287,0,0,1,5.441,0,2.894,2.894,0,0,1,.258.469Z" transform="translate(-337.68 -202.21)" fill="#fff"/>
              <path id="Trazado_110797" data-name="Trazado 110797" d="M365.131,214.223h-.47a.654.654,0,0,1-.635-.5,1.318,1.318,0,0,0-.083-.249h0a1.639,1.639,0,0,0-.157-.276,2,2,0,0,0-3.314,0,1.642,1.642,0,0,0-.157.276h0a1.315,1.315,0,0,0-.083.249.654.654,0,0,1-.635.5h-.147a1.031,1.031,0,0,1-1.031-1.031v-7.641a1.031,1.031,0,0,1,1.031-1.031h1.666a4.888,4.888,0,0,1,5.082,5.422v3.25a1.031,1.031,0,0,1-1.068,1.031ZM362.112,211a3.314,3.314,0,0,1,2.762,1.436v-2.605a3.683,3.683,0,0,0-.921-2.882,3.756,3.756,0,0,0-2.808-1.142H359.7v6.269A3.287,3.287,0,0,1,362.112,211Z" transform="translate(-339.327 -202.393)" fill="#fff"/>
              <path id="Trazado_110798" data-name="Trazado 110798" d="M342.03,217.569a1.745,1.745,0,1,1,1.74-1.749A1.749,1.749,0,0,1,342.03,217.569Zm0-2.2a.414.414,0,0,0-.322.147h0a.478.478,0,0,0-.11.285.46.46,0,0,0,.921,0,.479.479,0,0,0-.11-.285h0A.414.414,0,0,0,342.03,215.369Z" transform="translate(-337.887 -203.152)" fill="#fff"/>
              <path id="Trazado_110799" data-name="Trazado 110799" d="M362.28,217.569a1.749,1.749,0,0,1-1.74-1.749,1.745,1.745,0,0,1,3.489,0,1.758,1.758,0,0,1-1.749,1.749Zm0-2.2a.414.414,0,0,0-.322.147h0a.423.423,0,0,0-.111.285.46.46,0,1,0,.921,0,.423.423,0,0,0-.11-.285h0A.414.414,0,0,0,362.28,215.369Z" transform="translate(-339.495 -203.152)" fill="#fff"/>
            </g>
            <g id="Grupo_55036" data-name="Grupo 55036" transform="translate(40.498 7.328)" opacity="0.84">
              <rect id="Rectángulo_6297" data-name="Rectángulo 6297" width="37.653" height="2.882" rx="1.35" fill="#fff"/>
              <rect id="Rectángulo_6298" data-name="Rectángulo 6298" width="37.653" height="2.882" rx="1.35" transform="translate(0 6.122)" fill="#fff"/>
              <rect id="Rectángulo_6299" data-name="Rectángulo 6299" width="15.337" height="2.882" rx="1.35" transform="translate(0 12.244)" fill="#fff"/>
            </g>
            <path id="Trazado_110800" data-name="Trazado 110800" d="M428.919,217.549l15.172-9.206a.81.81,0,0,0,0-1.261l-15.245-9.086c-.35-.2-.746.129-.746.635v2.964a.626.626,0,0,1-.525.69l-7.991.064a.626.626,0,0,0-.525.69v9.611a.626.626,0,0,0,.525.69l8-.055a.621.621,0,0,1,.525.681v2.974C428.211,217.42,428.57,217.76,428.919,217.549Z" transform="translate(-336.803 -192.499)" fill="#fff"/>
          </g>
          <g id="Grupo_55040" data-name="Grupo 55040" transform="translate(192.658 295.661)">
            <rect id="Rectángulo_6300" data-name="Rectángulo 6300" width="113.245" height="30.435" rx="14.26" fill="#6c58b8"/>
            <g id="Grupo_55038" data-name="Grupo 55038" transform="translate(3.327 3.342)">
              <path id="Trazado_110801" data-name="Trazado 110801" d="M279.341,386.342h6.84a.921.921,0,0,0,.921-.921v-4.281a.921.921,0,0,0-.921-.921h-6.84a.921.921,0,0,0-.921.921v4.281A.921.921,0,0,0,279.341,386.342Zm.46-1.4v-3.351h5.92v3.351Z" transform="translate(-264.614 -380.22)" fill="#fff"/>
              <path id="Trazado_110802" data-name="Trazado 110802" d="M296.01,390.113a1.528,1.528,0,0,0-1.335-.792h-3.756V388.4a.921.921,0,0,0-.921-.921h-6.84a.921.921,0,0,0-.921.921v3.968h-.562V388.4a.921.921,0,0,0-.921-.921h-6.84a.921.921,0,0,0-.921.921v4.032l-8.111.064a1.464,1.464,0,0,0-1.2,2.3L267,399.623a3.333,3.333,0,0,0,2.762,1.436h19.011a2.762,2.762,0,0,0,2.375-1.307l4.916-8.046a1.538,1.538,0,0,0-.055-1.593Zm-12.4,2.219v-3.452h5.91v.479h-1.841a2.614,2.614,0,0,0-2.136,1.123l-1.289,1.841Zm-9.271-3.452h5.919v3.508l-5.781.046h-.138Zm20.447,2.1-4.907,8.028a1.4,1.4,0,0,1-1.188.654H269.681a1.924,1.924,0,0,1-1.583-.838L264.783,394a.092.092,0,0,1,0-.074.055.055,0,0,1,.055,0l9.648-.074,7.31-.055h2.835a.755.755,0,0,0,.571-.3l1.5-2.182a1.188,1.188,0,0,1,.976-.516h7a.1.1,0,0,1,.11.147Z" transform="translate(-263.424 -380.796)" fill="#fff"/>
            </g>
            <g id="Grupo_55039" data-name="Grupo 55039" transform="translate(39.273 7.328)" opacity="0.75">
              <rect id="Rectángulo_6301" data-name="Rectángulo 6301" width="37.653" height="2.882" rx="1.35" fill="#fff"/>
              <rect id="Rectángulo_6302" data-name="Rectángulo 6302" width="37.653" height="2.882" rx="1.35" transform="translate(0 6.122)" fill="#fff"/>
              <rect id="Rectángulo_6303" data-name="Rectángulo 6303" width="15.337" height="2.882" rx="1.35" transform="translate(0 12.244)" fill="#fff"/>
            </g>
            <path id="Trazado_110803" data-name="Trazado 110803" d="M357.681,402.108l15.172-9.206a.81.81,0,0,0,0-1.261l-15.245-9.1c-.341-.212-.736.129-.736.635v2.964c0,.377-.23.69-.516.69l-8,.064c-.285,0-.516.313-.516.69V397.2c0,.387.23.69.525.69l7.991-.064a.626.626,0,0,1,.525.69v2.974C356.945,401.979,357.341,402.292,357.681,402.108Z" transform="translate(-266.798 -377.058)" fill="#fff"/>
          </g>
          <g id="Grupo_55047" data-name="Grupo 55047" transform="translate(0.821 234.471)">
            <g id="Grupo_55042" data-name="Grupo 55042" transform="translate(0 65.168)">
              <path id="Trazado_110804" data-name="Trazado 110804" d="M51.43,444.138V393.219A12.217,12.217,0,0,1,63.5,380.993c20.079-.212,61.5-.221,95.385,2.633a9.206,9.206,0,0,1,8.387,8.81l3.167,49.244A11.655,11.655,0,0,1,159,453.721l-95.909,1.841A11.443,11.443,0,0,1,51.43,444.138Z" transform="translate(-51.43 -380.911)" fill="#6e2ee1"/>
              <path id="Trazado_110805" data-name="Trazado 110805" d="M64.067,399.929c-.092,4.336,0,11.213.147,15.65a3.922,3.922,0,0,0,4.391,3.8l16.571-1.933a3.931,3.931,0,0,0,3.425-4.483l-2.035-13.533a3.922,3.922,0,0,0-3.876-3.342h-14.7A3.913,3.913,0,0,0,64.067,399.929Z" transform="translate(-52.43 -382.116)" fill="#fff"/>
              <path id="Trazado_110806" data-name="Trazado 110806" d="M110.763,424.39l13.809,1.482a3.1,3.1,0,0,0,3.434-3.314l-3.01-41c-5.781-.184-11.48-.322-16.985-.414V421.3a3.121,3.121,0,0,0,2.753,3.093Z" transform="translate(-55.922 -380.929)" fill="#fff" opacity="0.37"/>
              <path id="Trazado_110807" data-name="Trazado 110807" d="M116.931,417.3a1.39,1.39,0,0,0,1.39,1.307h.083a1.381,1.381,0,0,0,1.3-1.464l-2.081-35.784-2.762-.064Z" transform="translate(-56.466 -380.941)" fill="#fff"/>
              <g id="Grupo_55041" data-name="Grupo 55041" transform="translate(15.253 18.035)">
                <path id="Trazado_110808" data-name="Trazado 110808" d="M72.268,413.238a.46.46,0,0,1-.46-.433l-.718-11.268a.46.46,0,0,1,.433-.5.451.451,0,0,1,.488.433l.718,11.277a.46.46,0,0,1-.433.488Z" transform="translate(-68.244 -400.544)" fill="#12263f"/>
                <path id="Trazado_110809" data-name="Trazado 110809" d="M73.928,413.22a.451.451,0,0,1-.46-.442l-.377-11.489a.46.46,0,0,1,.442-.479.433.433,0,0,1,.479.442l.377,11.489a.46.46,0,0,1-.451.479Z" transform="translate(-68.402 -400.526)" fill="#12263f"/>
                <path id="Trazado_110810" data-name="Trazado 110810" d="M76.023,413.227a.46.46,0,0,1-.46-.442c-.092-1.887-.543-11.314-.543-11.508a.47.47,0,0,1,.921,0c0,.249.35,7.6.534,11.471a.46.46,0,0,1-.442.479Zm-.074-11.968Z" transform="translate(-68.556 -400.533)" fill="#12263f"/>
                <path id="Trazado_110811" data-name="Trazado 110811" d="M79.353,413.656a.921.921,0,0,1-.921-.921c-.4-11.139-.322-11.388-.285-11.554a.928.928,0,0,1,1.814.368c0,.672.175,7.144.313,11.112a.921.921,0,0,1-.921.921Z" transform="translate(-68.801 -400.502)" fill="#12263f"/>
                <path id="Trazado_110812" data-name="Trazado 110812" d="M81.59,413.23a.46.46,0,0,1-.46-.46V401.5a.47.47,0,1,1,.921,0V412.77a.46.46,0,0,1-.46.46Z" transform="translate(-69.04 -400.536)" fill="#12263f"/>
                <path id="Trazado_110813" data-name="Trazado 110813" d="M83.3,413.24a.46.46,0,0,1-.46-.451c-.092-3.913-.295-10.311-.479-11.047a.451.451,0,0,1,0-.479.46.46,0,0,1,.635-.129c.249.166.488.322.746,11.673a.451.451,0,0,1-.451.469Z" transform="translate(-69.133 -400.546)" fill="#12263f"/>
                <path id="Trazado_110814" data-name="Trazado 110814" d="M69.537,414.23a.921.921,0,0,1-.921-.921L68,401.516a.922.922,0,1,1,1.841-.1l.617,11.839a.921.921,0,0,1-.921.976Z" transform="translate(-67.998 -400.505)" fill="#12263f"/>
              </g>
            </g>
            <g id="Grupo_55044" data-name="Grupo 55044" transform="translate(14.96)">
              <path id="Trazado_110815" data-name="Trazado 110815" d="M67.68,367.7V321.324c0-6.094,4.235-11.047,9.5-11.121,15.807-.2,48.4-.212,75.067,2.394,3.682.35,6.444,3.8,6.6,8.028l2.495,44.843c.184,5.929-3.867,10.882-8.994,10.992l-75.49,1.666C71.823,378.236,67.68,373.532,67.68,367.7Z" transform="translate(-67.68 -310.123)" fill="#f25585"/>
              <path id="Trazado_110816" data-name="Trazado 110816" d="M77.627,327.438c-.074,3.94,0,10.21.11,14.251a3.263,3.263,0,0,0,3.452,3.462L94.2,343.393a3.526,3.526,0,0,0,2.688-4.088l-1.593-12.318a3.277,3.277,0,0,0-3.056-3.047H80.73a3.342,3.342,0,0,0-3.1,3.5Z" transform="translate(-68.467 -311.22)" fill="#fff"/>
              <path id="Trazado_110817" data-name="Trazado 110817" d="M114.362,349.713l10.845,1.353a2.651,2.651,0,0,0,2.707-3.029l-2.375-37.34c-4.548-.166-9.031-.285-13.358-.377V346.9A2.762,2.762,0,0,0,114.362,349.713Z" transform="translate(-71.213 -310.139)" fill="#fff" opacity="0.37"/>
              <path id="Trazado_110818" data-name="Trazado 110818" d="M119.24,343.242a1.178,1.178,0,0,0,1.086,1.2h.064a1.206,1.206,0,0,0,1.022-1.326l-1.6-32.608-2.191-.055Z" transform="translate(-71.645 -310.149)" fill="#fff"/>
              <g id="Grupo_55043" data-name="Grupo 55043" transform="translate(11.996 16.458)">
                <path id="Trazado_110819" data-name="Trazado 110819" d="M84.08,339.562a.387.387,0,0,1-.359-.4L83.15,328.9a.414.414,0,0,1,.341-.451.377.377,0,0,1,.387.4l.562,10.237a.4.4,0,0,1-.341.442Z" transform="translate(-80.904 -328.036)" fill="#12263f"/>
                <path id="Trazado_110820" data-name="Trazado 110820" d="M85.363,339.545a.405.405,0,0,1-.368-.414L84.7,328.673a.405.405,0,0,1,.35-.433.375.375,0,0,1,.377.405l.295,10.421a.4.4,0,0,1-.35.442Z" transform="translate(-81.027 -328.019)" fill="#12263f"/>
                <path id="Trazado_110821" data-name="Trazado 110821" d="M87.032,339.544a.387.387,0,0,1-.359-.405c-.074-1.721-.423-10.311-.423-10.486a.368.368,0,1,1,.727,0c0,.23.276,6.932.423,10.449a.4.4,0,0,1-.35.433Zm-.092-10.891Z" transform="translate(-81.15 -328.018)" fill="#12263f"/>
                <path id="Trazado_110822" data-name="Trazado 110822" d="M89.656,339.97a.782.782,0,0,1-.727-.81c-.3-10.127-.258-10.366-.221-10.513a.737.737,0,0,1,.921-.6.865.865,0,0,1,.534.921c0,.608.138,6.509.249,10.127a.81.81,0,0,1-.7.865Z" transform="translate(-81.343 -328.002)" fill="#12263f"/>
                <path id="Trazado_110823" data-name="Trazado 110823" d="M91.419,339.562a.4.4,0,0,1-.359-.424V328.874a.387.387,0,0,1,.359-.423.4.4,0,0,1,.368.423v10.265A.405.405,0,0,1,91.419,339.562Z" transform="translate(-81.532 -328.036)" fill="#12263f"/>
                <path id="Trazado_110824" data-name="Trazado 110824" d="M92.762,339.558a.4.4,0,0,1-.359-.414c-.074-3.572-.23-9.39-.377-10.127a.479.479,0,0,1,0-.433.341.341,0,0,1,.506-.12c.2.147.387.295.589,10.633a.414.414,0,0,1-.359.433Z" transform="translate(-81.605 -328.032)" fill="#12263f"/>
                <path id="Trazado_110825" data-name="Trazado 110825" d="M81.9,340.456a.8.8,0,0,1-.727-.8l-.451-10.734a.81.81,0,0,1,.69-.921.8.8,0,0,1,.764.8l.479,10.78a.8.8,0,0,1-.681.921Z" transform="translate(-80.711 -328)" fill="#12263f"/>
              </g>
            </g>
            <g id="Grupo_55046" data-name="Grupo 55046" transform="translate(78.961 73.699)">
              <path id="Trazado_110826" data-name="Trazado 110826" d="M147.437,455.727A10.044,10.044,0,0,1,137.2,445.684V400.969a10.707,10.707,0,0,1,10.587-10.716c17.63-.193,53.994-.2,83.776,2.311a8.046,8.046,0,0,1,7.365,7.733l2.762,43.269a10.219,10.219,0,0,1-10.035,10.6Z" transform="translate(-137.2 -390.177)" fill="#fd8f25"/>
              <path id="Trazado_110827" data-name="Trazado 110827" d="M148.287,406.87c-.074,3.8,0,9.841.129,13.736a3.443,3.443,0,0,0,3.839,3.342l14.509-1.7a3.443,3.443,0,0,0,3.01-3.931l-1.786-11.876a3.443,3.443,0,0,0-3.406-2.937H151.7a3.434,3.434,0,0,0-3.415,3.369Z" transform="translate(-138.078 -391.235)" fill="#fff"/>
              <path id="Trazado_110828" data-name="Trazado 110828" d="M189.258,428.336l12.106,1.28a2.762,2.762,0,0,0,3.01-2.909l-2.661-35.978c-5.082-.157-10.127-.276-14.914-.359v35.259a2.762,2.762,0,0,0,2.458,2.707Z" transform="translate(-141.138 -390.193)" fill="#fff" opacity="0.37"/>
              <path id="Trazado_110829" data-name="Trazado 110829" d="M194.7,422.113a1.215,1.215,0,0,0,1.215,1.142h.064a1.224,1.224,0,0,0,1.151-1.289l-1.841-31.421-2.449-.055Z" transform="translate(-141.617 -390.202)" fill="#fff"/>
              <g id="Grupo_55045" data-name="Grupo 55045" transform="translate(13.376 15.879)">
                <path id="Trazado_110830" data-name="Trazado 110830" d="M155.481,418.557a.414.414,0,0,1-.405-.387l-.626-9.9a.405.405,0,0,1,.387-.423.387.387,0,0,1,.423.377l.617,9.887a.405.405,0,0,1-.377.433Z" transform="translate(-151.946 -407.46)" fill="#12263f"/>
                <path id="Trazado_110831" data-name="Trazado 110831" d="M156.936,418.537a.405.405,0,0,1-.405-.4l-.331-10.127a.405.405,0,0,1,.4-.414.377.377,0,0,1,.414.4l.331,10.081a.414.414,0,0,1-.4.423Z" transform="translate(-152.085 -407.44)" fill="#12263f"/>
                <path id="Trazado_110832" data-name="Trazado 110832" d="M158.784,418.543a.414.414,0,0,1-.405-.387c-.083-1.657-.479-9.943-.479-10.127a.414.414,0,0,1,.819,0c0,.221.3,6.674.469,10.072a.414.414,0,0,1-.387.423Zm-.064-10.495Z" transform="translate(-152.22 -407.446)" fill="#12263f"/>
                <path id="Trazado_110833" data-name="Trazado 110833" d="M161.706,418.928a.81.81,0,0,1-.81-.783c-.341-9.777-.285-10-.249-10.127a.81.81,0,0,1,1-.562.8.8,0,0,1,.589.921c0,.589.157,6.279.276,9.758a.81.81,0,0,1-.783.847Z" transform="translate(-152.436 -407.426)" fill="#12263f"/>
                <path id="Trazado_110834" data-name="Trazado 110834" d="M163.675,418.557a.405.405,0,0,1-.405-.405v-9.9a.4.4,0,0,1,.405-.405.405.405,0,0,1,.405.405v9.86a.405.405,0,0,1-.405.442Z" transform="translate(-152.646 -407.46)" fill="#12263f"/>
                <path id="Trazado_110835" data-name="Trazado 110835" d="M165.174,418.554a.405.405,0,0,1-.405-.4c-.074-3.443-.258-9.059-.424-9.731a.414.414,0,0,1,0-.423.405.405,0,0,1,.562-.12c.221.147.433.285.654,10.256a.405.405,0,0,1-.4.414Z" transform="translate(-152.727 -407.457)" fill="#12263f"/>
                <path id="Trazado_110836" data-name="Trazado 110836" d="M153.083,419.429a.819.819,0,0,1-.81-.773l-.543-10.394a.819.819,0,0,1,1.629-.083l.534,10.394a.8.8,0,0,1-.764.847Z" transform="translate(-151.73 -407.43)" fill="#12263f"/>
              </g>
            </g>
          </g>
          <g id="Grupo_55059" data-name="Grupo 55059" transform="translate(48.847 87.258)">
            <g id="Grupo_55052" data-name="Grupo 55052" transform="translate(16.039 63.186)">
              <g id="Grupo_55051" data-name="Grupo 55051" transform="translate(1.297 1.602)">
                <g id="Grupo_55048" data-name="Grupo 55048" transform="translate(150.212 62.053)">
                  <path id="Trazado_110837" data-name="Trazado 110837" d="M290.69,294.932a2.034,2.034,0,0,1-1.39-.552l-2.983-2.808a2.025,2.025,0,1,1,2.762-2.955l2.983,2.762a2.035,2.035,0,0,1-1.39,3.517Z" transform="translate(-285.594 -287.994)" fill="#fff"/>
                  <path id="Trazado_110838" data-name="Trazado 110838" d="M321.077,323.508a2.034,2.034,0,0,1-1.39-.552l-8.147-7.687a2.025,2.025,0,1,1,2.762-2.955L322.477,320a2.035,2.035,0,0,1-1.4,3.508Zm-16.341-15.374a2.035,2.035,0,0,1-1.39-.552l-8.175-7.687a2.025,2.025,0,0,1,2.762-2.955l8.175,7.687a2.025,2.025,0,0,1-1.39,3.508Z" transform="translate(-286.309 -288.667)" fill="#fff"/>
                  <path id="Trazado_110839" data-name="Trazado 110839" d="M331.97,338.781a2.164,2.164,0,0,1-.589-.083,2.025,2.025,0,0,1-1.353-2.532l.819-2.716-2.071-1.942a2.035,2.035,0,0,1,2.762-2.964l2.992,2.808a2.034,2.034,0,0,1,.552,2.071l-1.188,3.922a2.025,2.025,0,0,1-1.924,1.436Z" transform="translate(-288.981 -291.18)" fill="#fff"/>
                  <path id="Trazado_110840" data-name="Trazado 110840" d="M326.135,358.167a2.161,2.161,0,0,1-.589-.083,2.044,2.044,0,0,1-1.353-2.532l3.379-11.167a2.03,2.03,0,0,1,3.885,1.178l-3.379,11.158a2.025,2.025,0,0,1-1.943,1.445Z" transform="translate(-288.651 -292.357)" fill="#fff"/>
                </g>
                <g id="Grupo_55049" data-name="Grupo 55049" transform="translate(85.393)">
                  <path id="Trazado_110841" data-name="Trazado 110841" d="M217.224,273.385a2.035,2.035,0,0,1-2.035-2.025v-4.1a2.035,2.035,0,1,1,4.06,0v4.1A2.035,2.035,0,0,1,217.224,273.385Z" transform="translate(-215.185 -224.123)" fill="#fff"/>
                  <path id="Trazado_110842" data-name="Trazado 110842" d="M217.224,259.052a2.035,2.035,0,0,1-2.035-2.025V245.335a2.035,2.035,0,1,1,4.06,0v11.692A2.035,2.035,0,0,1,217.224,259.052Zm0-23.384a2.025,2.025,0,0,1-2.035-2.025v-2.43a2.035,2.035,0,1,1,4.06,0v2.394a2.025,2.025,0,0,1-2.025,2.062Z" transform="translate(-215.185 -221.261)" fill="#fff"/>
                  <path id="Trazado_110843" data-name="Trazado 110843" d="M217.225,228.9a2.035,2.035,0,0,1-2.035-2.035v-4.1a2.025,2.025,0,0,1,2.025-2.025h4.106a2.035,2.035,0,0,1,0,4.06H219.25v2.071a2.035,2.035,0,0,1-2.025,2.025Z" transform="translate(-215.185 -220.602)" fill="#fff"/>
                  <path id="Trazado_110844" data-name="Trazado 110844" d="M230.623,224.78a2.035,2.035,0,1,1,0-4.06h13.064a2.035,2.035,0,1,1,0,4.06Zm26.155,0a2.035,2.035,0,0,1,0-4.06h13.082a2.035,2.035,0,0,1,0,4.06Zm26.155,0a2.035,2.035,0,0,1,0-4.06h13.082a2.035,2.035,0,0,1,0,4.06Z" transform="translate(-216.238 -220.6)" fill="#fff"/>
                  <path id="Trazado_110845" data-name="Trazado 110845" d="M320.256,224.65a2.035,2.035,0,0,1,0-4.06h4.1a2.035,2.035,0,0,1,0,4.06h-4.106Z" transform="translate(-223.376 -220.59)" fill="#fff"/>
                </g>
                <g id="Grupo_55050" data-name="Grupo 55050" transform="translate(0 57.994)">
                  <path id="Trazado_110846" data-name="Trazado 110846" d="M128.423,287.65h-4.1a2.035,2.035,0,0,1,0-4.06h4.1a2.035,2.035,0,1,1,0,4.06Z" transform="translate(-122.428 -283.585)" fill="url(#linear-gradient-5)"/>
                  <path id="Trazado_110847" data-name="Trazado 110847" d="M161.671,287.65h-2.366a2.035,2.035,0,0,1,0-4.06h2.366a2.035,2.035,0,0,1,0,4.06Zm-13.726,0H136.566a2.035,2.035,0,0,1,0-4.06h11.37a2.035,2.035,0,0,1,0,4.06Z" transform="translate(-123.4 -283.585)" fill="url(#linear-gradient-6)"/>
                  <path id="Trazado_110848" data-name="Trazado 110848" d="M174.612,290.651a2,2,0,0,1-1.482-.644l-2.191-2.357h-3.222a2.035,2.035,0,0,1,0-4.06h4.1a2.025,2.025,0,0,1,1.491.644l2.762,3a2.025,2.025,0,0,1-.1,2.863,1.988,1.988,0,0,1-1.353.552Z" transform="translate(-125.873 -283.585)" fill="url(#linear-gradient-7)"/>
                  <path id="Trazado_110849" data-name="Trazado 110849" d="M238.73,359.08a2.007,2.007,0,0,1-1.455-.617c-.608-.626-1.224-1.178-1.841-1.712a17.344,17.344,0,0,1-3-3.195c-.8-1.068-1.593-1.989-2.43-2.964l-.681-.8a2.028,2.028,0,0,1,3.093-2.624l.672.783c.856.994,1.74,2.025,2.624,3.213a.8.8,0,0,1,.064.092,14.048,14.048,0,0,0,2.375,2.477c.617.552,1.307,1.178,2.016,1.906a2.035,2.035,0,0,1-1.455,3.443Zm-16.24-17.4a2.062,2.062,0,0,1-1.473-.626c-2.615-2.762-5.165-5.524-7.632-8.221l-.69-.764a2.036,2.036,0,1,1,2.992-2.762l.69.764c2.458,2.688,4.99,5.459,7.577,8.157a2.035,2.035,0,0,1-1.464,3.434Zm-16.645-17.86a2.026,2.026,0,0,1-1.455-.617c-1.768-1.841-3.415-3.443-5.054-4.99l-.1-.1-3.4-3.682a2.033,2.033,0,0,1,2.983-2.762c1.1,1.2,2.219,2.412,3.351,3.627,1.666,1.574,3.342,3.231,5.128,5.073a2.035,2.035,0,0,1-1.455,3.443Zm-16.728-17.74a2.007,2.007,0,0,1-1.5-.663c-2.808-3.075-5.524-6.039-8.2-9.059a2.028,2.028,0,1,1,3.02-2.707c2.707,3,5.376,5.956,8.184,9.04a2.025,2.025,0,0,1-1.5,3.388Z" transform="translate(-126.911 -284.331)" fill="url(#linear-gradient-8)"/>
                  <path id="Trazado_110850" data-name="Trazado 110850" d="M387.693,372.52a2.053,2.053,0,0,1-.921-.212,21.444,21.444,0,0,0-2.624-.221,2.035,2.035,0,1,1,.212-4.06c3.434.184,4.134.4,4.76,1.04a2.035,2.035,0,0,1-1.455,3.452ZM386.91,372.336ZM386.247,371.9Zm0,0Zm-99.656.46a2.035,2.035,0,0,1,0-4.06c3.839,0,7.936,0,12.207-.064h0a2.035,2.035,0,0,1,0,4.06c-4.272,0-8.378.055-12.217.064Zm-12.207,0h0c-5.827,0-9.851-.11-12.309-.258a2.029,2.029,0,0,1,.23-4.051c2.384.138,6.343.221,12.1.249a2.035,2.035,0,0,1,0,4.06Zm36.631-.166a2.035,2.035,0,0,1,0-4.06l12.216-.11h0a2.035,2.035,0,0,1,0,4.06Zm24.433-.221a2.035,2.035,0,0,1,0-4.06l12.217-.1h0a2.035,2.035,0,0,1,0,4.06l-12.207.1Zm36.631-.147H359.909a2.035,2.035,0,0,1,0-4.06h12.235a2.035,2.035,0,0,1,0,4.06Z" transform="translate(-133.363 -290.268)" fill="url(#linear-gradient-9)"/>
                </g>
              </g>
              <circle id="Elipse_4425" data-name="Elipse 4425" cx="5.247" cy="5.247" r="5.247" transform="translate(0 55.31)" fill="#fff"/>
              <circle id="Elipse_4426" data-name="Elipse 4426" cx="5.247" cy="5.247" r="5.247" transform="translate(83.988 45.064)" fill="#fff"/>
              <circle id="Elipse_4427" data-name="Elipse 4427" cx="5.247" cy="5.247" r="5.247" transform="translate(83.988)" fill="#fff"/>
              <circle id="Elipse_4428" data-name="Elipse 4428" cx="5.247" cy="5.247" r="5.247" transform="translate(148.523 60.429)" fill="#fff"/>
              <circle id="Elipse_4429" data-name="Elipse 4429" cx="5.247" cy="5.247" r="5.247" transform="translate(115.739 135.201)" fill="#fff"/>
              <path id="Trazado_110851" data-name="Trazado 110851" d="M280.7,290.44a2.183,2.183,0,0,1-.479-.055l-12.631-3.038a2.025,2.025,0,1,1,.921-3.94l12.631,3.029a2.035,2.035,0,0,1-.47,4Zm-25.262-6.067a2.181,2.181,0,0,1-.479-.055L242.33,281.28a2.035,2.035,0,0,1,.921-3.949l12.631,3.038a2.035,2.035,0,0,1-.47,4ZM230.177,278.3a2.179,2.179,0,0,1-.479-.055L217.077,275.2a2.025,2.025,0,1,1,.921-3.94l12.686,3.029a2.035,2.035,0,0,1-.47,4Z" transform="translate(-128.514 -223.005)" fill="#fff"/>
            </g>
            <g id="Grupo_55054" data-name="Grupo 55054" transform="translate(0 51.618)">
              <g id="Grupo_55053" data-name="Grupo 55053" transform="translate(0.565 0.392)">
                <circle id="Elipse_4430" data-name="Elipse 4430" cx="19.471" cy="19.471" r="19.471" transform="translate(0.035)" fill="#f25585"/>
                <path id="Trazado_110852" data-name="Trazado 110852" d="M143.152,226.73H104.247s-1.547,10.808,15.825,40.406a4.262,4.262,0,0,0,7.291,0C144.736,237.547,143.152,226.73,143.152,226.73Z" transform="translate(-104.212 -208.299)" fill="#f25585"/>
              </g>
              <path id="Trazado_110853" data-name="Trazado 110853" d="M123.66,268.2v.11h0a4.833,4.833,0,0,1-4.134-2.384c-10.127-17.3-13.874-28.235-15.209-34.357a19.525,19.525,0,0,1-.663-4.207,9.759,9.759,0,0,1,0-2.117v-.313a20.033,20.033,0,0,1,39.982.2v1.142a19.968,19.968,0,0,1-.8,5.625c-1.381,6.122-5.128,16.948-15.107,33.961a4.723,4.723,0,0,1-4.069,2.338Zm-18.928-42.219c0,.295,0,.709.055,1.335h0a18.467,18.467,0,0,0,.635,3.968h0c1.307,6.039,4.99,16.847,15.08,34.063a3.683,3.683,0,0,0,3.148,1.8h0a3.82,3.82,0,0,0,3.158-1.841c9.924-16.893,13.625-27.618,14.978-33.667h0a18.844,18.844,0,0,0,.654-5.33l-.11-.083h0a7.511,7.511,0,0,1,.083-.921h.055a18.882,18.882,0,0,0-37.7.2v.571Z" transform="translate(-103.597 -206.284)" fill="#fff" opacity="0.8"/>
              <circle id="Elipse_4431" data-name="Elipse 4431" cx="11.241" cy="11.241" r="11.241" transform="translate(8.895 8.558)" fill="#fff"/>
              <path id="Trazado_110854" data-name="Trazado 110854" d="M124.445,238.642a11.876,11.876,0,1,1,11.867-11.876,11.876,11.876,0,0,1-11.867,11.876Zm0-22.491a10.615,10.615,0,1,0,10.615,10.615,10.615,10.615,0,0,0-10.615-10.615Z" transform="translate(-104.309 -206.968)" fill="url(#linear-gradient-10)"/>
            </g>
            <g id="Grupo_55056" data-name="Grupo 55056" transform="translate(111.302 127.666)">
              <g id="Grupo_55055" data-name="Grupo 55055" transform="translate(0 0)">
                <circle id="Elipse_4432" data-name="Elipse 4432" cx="19.471" cy="19.471" r="19.471" transform="translate(0 37.901) rotate(-76.72)" fill="#f25585"/>
                <path id="Trazado_110855" data-name="Trazado 110855" d="M267.7,313.22H228.8s-1.547,10.845,15.835,40.4a4.244,4.244,0,0,0,7.282,0C269.276,324.065,267.7,313.22,267.7,313.22Z" transform="translate(-224.836 -290.822)" fill="#f25585"/>
              </g>
              <path id="Trazado_110856" data-name="Trazado 110856" d="M248.21,354.666v.11h0a4.824,4.824,0,0,1-4.124-2.384c-10.127-17.3-13.874-28.235-15.209-34.357a19.543,19.543,0,0,1-.672-4.207,9.759,9.759,0,0,1,0-2.117l.055-.313a20.033,20.033,0,0,1,39.973.193,8.122,8.122,0,0,1,0,1.077v.074a19.968,19.968,0,0,1-.8,5.625c-1.381,6.122-5.128,16.948-15.107,33.961a4.723,4.723,0,0,1-4.115,2.338Zm-18.928-42.219a11.335,11.335,0,0,0,.055,1.335h0a18,18,0,0,0,.635,3.968h0c1.316,6.039,5,16.838,15.089,34.063a3.682,3.682,0,0,0,3.149,1.8h0a3.839,3.839,0,0,0,3.158-1.841c9.915-16.893,13.625-27.618,14.978-33.676h0a18.845,18.845,0,0,0,.654-5.33l-.12-.083h0a6.615,6.615,0,0,1,.092-.921h.055a18.882,18.882,0,0,0-37.745.193v.5Z" transform="translate(-224.787 -289.202)" fill="#fff" opacity="0.8"/>
              <circle id="Elipse_4433" data-name="Elipse 4433" cx="11.241" cy="11.241" r="11.241" transform="matrix(0.957, -0.29, 0.29, 0.957, 9.459, 15.902)" fill="#fff"/>
              <path id="Trazado_110857" data-name="Trazado 110857" d="M248.975,325.132a11.876,11.876,0,1,1,11.867-11.876A11.876,11.876,0,0,1,248.975,325.132Zm0-22.491a10.615,10.615,0,1,0,10.605,10.615A10.615,10.615,0,0,0,248.975,302.641Z" transform="translate(-225.497 -289.882)" fill="url(#linear-gradient-11)"/>
            </g>
            <g id="Grupo_55058" data-name="Grupo 55058" transform="translate(184.077)">
              <g id="Grupo_55057" data-name="Grupo 55057" transform="translate(0.574 0.326)">
                <circle id="Elipse_4434" data-name="Elipse 4434" cx="19.471" cy="19.471" r="19.471" transform="translate(0.027)" fill="#f25585"/>
                <path id="Trazado_110858" data-name="Trazado 110858" d="M343.1,170.58h-38.9s-1.556,10.808,15.825,40.406a4.253,4.253,0,0,0,7.282,0C344.686,181.4,343.1,170.58,343.1,170.58Z" transform="translate(-304.171 -152.159)" fill="#f25585"/>
              </g>
              <path id="Trazado_110859" data-name="Trazado 110859" d="M323.61,212.066v.11h0a4.806,4.806,0,0,1-4.124-2.384c-10.127-17.3-13.883-28.235-15.218-34.357a19.522,19.522,0,0,1-.663-4.207,9.753,9.753,0,0,1,0-2.117l.055-.313a20.033,20.033,0,0,1,39.973.193,8.932,8.932,0,0,1,0,1.077v.074a20.015,20.015,0,0,1-.8,5.625c-1.381,6.113-5.119,16.948-15.107,33.961a4.714,4.714,0,0,1-4.115,2.338Zm-18.928-42.219c0,.285,0,.709.055,1.335h0a18.652,18.652,0,0,0,.635,3.968h0c1.316,6.039,5,16.838,15.08,34.063a3.682,3.682,0,0,0,3.158,1.8h0a3.839,3.839,0,0,0,3.158-1.841c9.924-16.9,13.625-27.618,14.988-33.676h0a18.78,18.78,0,0,0,.644-5.321l-.11-.083h0a7.991,7.991,0,0,1,.083-.921h.055a18.882,18.882,0,0,0-37.745.193v.488Z" transform="translate(-303.547 -150.215)" fill="#fff" opacity="0.8"/>
              <circle id="Elipse_4435" data-name="Elipse 4435" cx="11.241" cy="11.241" r="11.241" transform="matrix(0.957, -0.29, 0.29, 0.957, 6.115, 12.263)" fill="#fff"/>
              <path id="Trazado_110860" data-name="Trazado 110860" d="M324.4,182.493a11.867,11.867,0,1,1,11.867-11.867A11.867,11.867,0,0,1,324.4,182.493Zm0-22.481a10.624,10.624,0,1,0,7.533,3.1A10.615,10.615,0,0,0,324.4,160.012Z" transform="translate(-304.26 -150.894)" fill="url(#linear-gradient-12)"/>
            </g>
          </g>
          <g id="Grupo_55063" data-name="Grupo 55063" transform="translate(238.735 158.739)">
            <path id="Trazado_110861" data-name="Trazado 110861" d="M385.742,454.55c4.152.359,11.37.921,17.05,1.2,3.425.147,5.386-.184,6.527-.635v.359a1.178,1.178,0,0,1-1.114,1.114,200.036,200.036,0,0,1-22.334,0,.838.838,0,0,1-.681-1.261A7.1,7.1,0,0,1,385.742,454.55Z" transform="translate(-315.831 -245.857)" fill="#7d97f4"/>
            <path id="Trazado_110862" data-name="Trazado 110862" d="M402.85,455.024c-5.68-.249-12.889-.838-17.05-1.2,4.078-5.008,17.05-8.387,17.05-8.387h3.682a15.347,15.347,0,0,1,2.863,8.948A17.063,17.063,0,0,1,402.85,455.024Z" transform="translate(-315.889 -245.134)" fill="#12263f"/>
            <path id="Trazado_110863" data-name="Trazado 110863" d="M408.41,438.94l-.341,6.785a1.547,1.547,0,0,1-1.326,1.455,6.011,6.011,0,0,1-2.762-.221,1.841,1.841,0,0,1-1.224-1.409l-1.188-6.61Z" transform="translate(-317.141 -244.618)" fill="#6c58b8"/>
            <g id="Grupo_55060" data-name="Grupo 55060" transform="translate(123.072 196.411)">
              <path id="Trazado_110864" data-name="Trazado 110864" d="M454.61,462.806a3.563,3.563,0,0,0,2.964-2.826h0a3.222,3.222,0,0,1-1.583,3.452,8.285,8.285,0,0,1-4.373.921,4.033,4.033,0,0,1-3.268-1.952h0C449.7,463.248,451.609,463.349,454.61,462.806Z" transform="translate(-443.927 -442.699)" fill="#7d97f4"/>
              <path id="Trazado_110865" data-name="Trazado 110865" d="M445.732,441.21h3.029c4.6-.12,7.485,12.428,8.433,17.28a3.563,3.563,0,0,1-2.964,2.826c-3,.543-4.907.442-6.269-.423-2.486-4.226-3.682-10.421-4.308-14.039C442.979,442.747,445.732,441.21,445.732,441.21Z" transform="translate(-443.545 -441.209)" fill="#12263f"/>
            </g>
            <path id="Trazado_110866" data-name="Trazado 110866" d="M448.225,434.37l1.685,6.674a1.841,1.841,0,0,1-.921,2.053,6.444,6.444,0,0,1-3.471.838,1.5,1.5,0,0,1-1.234-1l-2.495-7.061Z" transform="translate(-320.334 -244.255)" fill="#6c58b8"/>
            <path id="Trazado_110867" data-name="Trazado 110867" d="M384.68,338.757s15,93.709,14.73,94.225a12.493,12.493,0,0,0,8.654.239s-1.353-50.091-4.529-69.3c0,0,25.584,44.779,33.7,67.085a20.308,20.308,0,0,0,7.752-2.817s-27.554-80.59-34.9-91.316Z" transform="translate(-315.8 -236.515)" fill="#12263f"/>
            <path id="Trazado_110868" data-name="Trazado 110868" d="M403.653,364.8a.433.433,0,0,0,.368-.672l-5.6-8.948a.46.46,0,0,0-.285-.2l-4.124-.829a.451.451,0,0,0-.525.35.442.442,0,0,0,.35.516l3.931.792,5.524,8.792a.451.451,0,0,0,.359.2Z" transform="translate(-316.499 -237.886)" fill="#6c58b8"/>
            <path id="Trazado_110869" data-name="Trazado 110869" d="M309.989,239.25s10.127,2.228,16.267,5.073a5.579,5.579,0,0,1,2.762,2.762c1.841,4.032,7.365,14.141,18.026,18.965-1.537,2.044-4.014,6.288-5.1,13.423-6.444-4.778-11.968-12.741-14.6-25.777a5.229,5.229,0,0,1-4.548-.129,45.26,45.26,0,0,1-4.032-2.292,5.3,5.3,0,0,1-2.348-3.139,18.607,18.607,0,0,1-.175-4.879l-5.2-1.611a1.841,1.841,0,0,1-1.05-2.394Z" transform="translate(-309.86 -228.765)" fill="#fcd4e0"/>
            <path id="Trazado_110870" data-name="Trazado 110870" d="M344.66,281.723c1.086-7.135,3.563-11.379,5.1-13.423,6.628,3,15.255,3.959,26.247.147a11.719,11.719,0,0,1,3.139-.617c5.846-.341,25.124-.967,41.069,4.3a12.391,12.391,0,0,1,7.475,6.8c4.318,9.906,11.3,32.452-8.092,43.83a48.79,48.79,0,0,0-4.658-8.856c3.121-5.266,4.042-12.456-1.5-21.828-4.023,10.872-5.947,26.827-6.343,33.888a15.025,15.025,0,0,0,1.188,6.776l.092.23a.8.8,0,0,1-.562,1.1c-10.918,2.449-22.27,1.786-25.657,1.51a1.418,1.418,0,0,1-1.252-1.068c-5.3-22.371-5.321-37.625-4.014-47.273C371.919,288.342,356.738,290.708,344.66,281.723Z" transform="translate(-312.623 -231.017)" fill="url(#linear-gradient-13)"/>
            <path id="Trazado_110871" data-name="Trazado 110871" d="M379.6,288.318a.451.451,0,0,0,.442-.387c1.243-9.418,3.784-13.533,3.811-13.57a.444.444,0,1,0-.755-.469c-.1.166-2.661,4.281-3.94,13.92a.442.442,0,0,0,.387.5Z" transform="translate(-315.362 -231.498)" fill="url(#linear-gradient-14)"/>
            <path id="Trazado_110872" data-name="Trazado 110872" d="M407.961,253.7s1.1,11.673,2.081,15.126a1.188,1.188,0,0,1-.562,1.353c-1.648.921-5.606,2.476-11.047-.175a2.467,2.467,0,0,1-1.363-2.311l.479-11.287Z" transform="translate(-316.783 -229.912)" fill="#fcd4e0"/>
            <g id="Grupo_55061" data-name="Grupo 55061" transform="translate(75.986)">
              <path id="Trazado_110873" data-name="Trazado 110873" d="M397.016,237.47s-3.535,8.111-3.765,12.373-1.16,7.024,3.765,7.88,9.077-1.593,11.324-5.837c0,0,3.517-6.536,2.762-9.206S397.016,237.47,397.016,237.47Z" transform="translate(-392.449 -228.624)" fill="#fcd4e0"/>
              <path id="Trazado_110874" data-name="Trazado 110874" d="M406.6,248.077l-.285-.129a.672.672,0,0,1-.322-.921c.69-1.335,2.044-4.41.295-5.128-2.255-.921-11.176-2.762-13.109-5.92a5.883,5.883,0,0,1,2.255-8.083.331.331,0,0,1,.442.138l.212.387a.331.331,0,0,0,.617-.055h0a.331.331,0,0,1,.6-.092c.6.921,2.191,2.486,6.444,3.277,6.076,1.123,10.127,3.581,10.191,7.77a.341.341,0,0,0,.525.276c.442-.267,1.16-.4,2.127.405,1.666,1.409.985,5.045-2.679,8.037a.332.332,0,0,0,0,.534c.663.433,1.648,1.464-.921,2.835a8.626,8.626,0,0,1-5.312,1.16.322.322,0,0,1-.267-.405l.81-3.682a.331.331,0,0,0-.331-.405Z" transform="translate(-392.399 -227.861)" fill="#12263f"/>
              <path id="Trazado_110875" data-name="Trazado 110875" d="M407.66,250.319s1.353-5.183,3.682-3.682-1.206,5.809-3.075,6Z" transform="translate(-393.61 -229.33)" fill="#fcd4e0"/>
            </g>
            <path id="Trazado_110876" data-name="Trazado 110876" d="M325.313,252.88a.46.46,0,0,0,.276-.1.442.442,0,0,0,.064-.626c-.387-.469-3.775-4.6-5.082-5.358-.479-.267-.764-.543-.819-.8a.626.626,0,0,1,.055-.414l3.986.8,2.265,1.933a.451.451,0,0,0,.626,0,.442.442,0,0,0-.055-.626l-2.348-2.016a.377.377,0,0,0-.193-.092l-4.419-.921a.433.433,0,0,0-.451.184,1.657,1.657,0,0,0-.331,1.363,2.3,2.3,0,0,0,1.243,1.372c.985.552,3.83,3.9,4.833,5.146A.451.451,0,0,0,325.313,252.88Z" transform="translate(-310.574 -229.194)" fill="#f8a570"/>
            <path id="Trazado_110877" data-name="Trazado 110877" d="M406.5,332.372l-15.65.193,5.468-5.146a4.078,4.078,0,0,1,5-.469,12.125,12.125,0,0,1,2.762,2.476s9.74-3.563,14.463-11.526a48.788,48.788,0,0,1,4.677,8.856A48.221,48.221,0,0,1,406.5,332.372Z" transform="translate(-316.29 -235.009)" fill="#fcd4e0"/>
            <g id="Grupo_55062" data-name="Grupo 55062" transform="translate(10.556 63.77)">
              <path id="Trazado_110878" data-name="Trazado 110878" d="M402.416,335.493h-.092l-39.586-.046a1.758,1.758,0,1,1,0-3.508H402.37a1.758,1.758,0,0,1,.083,3.507Z" transform="translate(-324.464 -299.893)" fill="#12263f"/>
              <path id="Trazado_110879" data-name="Trazado 110879" d="M323.954,297.13H356.93a6.3,6.3,0,0,1,5.689,3.572l15.255,32.01H336.888a3.821,3.821,0,0,1-3.554-2.394L321.5,300.693a2.615,2.615,0,0,1,2.449-3.563Z" transform="translate(-321.327 -297.13)" fill="#12263f"/>
              <ellipse id="Elipse_4436" data-name="Elipse 4436" cx="2.596" cy="4.189" rx="2.596" ry="4.189" transform="translate(19.617 14.056) rotate(-18.24)" fill="#7d97f4"/>
            </g>
          </g>
        </g>
      </g>
    </g>
  </g>
</svg>
