<svg xmlns="http://www.w3.org/2000/svg" xmlns:xlink="http://www.w3.org/1999/xlink" width="216" height="216" viewBox="0 0 216 216">
  <defs>
    <linearGradient id="linear-gradient" x1="-49.96" y1="0.726" x2="-51.359" y2="1.892" gradientUnits="objectBoundingBox">
      <stop offset="0" stop-color="#35237d"/>
      <stop offset="1" stop-color="#6c58b8"/>
    </linearGradient>
    <linearGradient id="linear-gradient-2" x1="-25.831" y1="-0.836" x2="-26.351" y2="-0.59" xlink:href="#linear-gradient"/>
    <linearGradient id="linear-gradient-3" x1="-182.696" y1="-2.692" x2="-186.399" y2="-2.212" xlink:href="#linear-gradient"/>
    <linearGradient id="linear-gradient-4" x1="0.55" y1="1.042" x2="0.405" y2="-0.263" xlink:href="#linear-gradient"/>
    <linearGradient id="linear-gradient-5" x1="0.501" y1="0.497" x2="-0.519" y2="2.364" gradientUnits="objectBoundingBox">
      <stop offset="0" stop-color="#fff"/>
      <stop offset="1" stop-color="#fff"/>
    </linearGradient>
    <linearGradient id="linear-gradient-6" x1="0.455" y1="0.249" x2="0.556" y2="1.176" gradientUnits="objectBoundingBox">
      <stop offset="0" stop-color="#f25585"/>
      <stop offset="1" stop-color="#b3204d"/>
    </linearGradient>
    <linearGradient id="linear-gradient-7" x1="677.15" y1="0.499" x2="678.151" y2="0.499" gradientUnits="objectBoundingBox">
      <stop offset="0" stop-color="#febbba"/>
      <stop offset="1" stop-color="#ff928e"/>
    </linearGradient>
    <linearGradient id="linear-gradient-8" x1="1.117" y1="-0.344" x2="0.922" y2="-0.055" gradientUnits="objectBoundingBox">
      <stop offset="0" stop-color="#4f52ff"/>
      <stop offset="1" stop-color="#4042e2"/>
    </linearGradient>
    <linearGradient id="linear-gradient-9" x1="7.592" y1="-4.162" x2="4.955" y2="-2.476" xlink:href="#linear-gradient"/>
    <linearGradient id="linear-gradient-10" x1="907" y1="0.5" x2="908" y2="0.5" xlink:href="#linear-gradient"/>
    <linearGradient id="linear-gradient-11" x1="0" y1="0.497" x2="1" y2="0.497" xlink:href="#linear-gradient-8"/>
    <linearGradient id="linear-gradient-12" x1="2393.231" y1="-0.841" x2="2392.718" y2="2.384" xlink:href="#linear-gradient-7"/>
    <linearGradient id="linear-gradient-13" x1="-0.001" y1="0.5" x2="1" y2="0.5" xlink:href="#linear-gradient-8"/>
    <linearGradient id="linear-gradient-14" x1="630.928" y1="0.5" x2="631.928" y2="0.5" xlink:href="#linear-gradient"/>
    <linearGradient id="linear-gradient-15" x1="2446.425" y1="-0.224" x2="2445.901" y2="2.535" xlink:href="#linear-gradient-7"/>
    <linearGradient id="linear-gradient-16" x1="2.337" y1="-0.499" x2="1.712" y2="-0.152" xlink:href="#linear-gradient"/>
    <linearGradient id="linear-gradient-17" x1="238.445" y1="-23.577" x2="237.72" y2="-23.12" xlink:href="#linear-gradient-6"/>
    <linearGradient id="linear-gradient-18" x1="1017.077" y1="-0.223" x2="1016.264" y2="2.966" xlink:href="#linear-gradient-7"/>
    <linearGradient id="linear-gradient-19" x1="646.501" y1="202.655" x2="645.428" y2="203.937" xlink:href="#linear-gradient-7"/>
    <linearGradient id="linear-gradient-20" x1="456.716" y1="134.774" x2="457.622" y2="134.774" xlink:href="#linear-gradient"/>
    <linearGradient id="linear-gradient-21" x1="1840.398" y1="674.286" x2="1842.855" y2="671.638" xlink:href="#linear-gradient-7"/>
    <linearGradient id="linear-gradient-22" x1="6.065" y1="-3.819" x2="3.855" y2="-2.1" gradientUnits="objectBoundingBox">
      <stop offset="0" stop-color="#e1473d"/>
      <stop offset="1" stop-color="#e9605a"/>
    </linearGradient>
    <linearGradient id="linear-gradient-23" x1="0.5" y1="-8.659" x2="0.5" y2="-4.057" xlink:href="#linear-gradient-8"/>
    <linearGradient id="linear-gradient-24" x1="260.619" y1="5.381" x2="259.785" y2="6.768" xlink:href="#linear-gradient-6"/>
    <linearGradient id="linear-gradient-25" x1="876.836" y1="60.53" x2="878.096" y2="60.53" xlink:href="#linear-gradient-7"/>
    <linearGradient id="linear-gradient-26" x1="0.5" y1="-0.397" x2="0.5" y2="-0.276" xlink:href="#linear-gradient-6"/>
    <linearGradient id="linear-gradient-27" x1="0.418" y1="-0.003" x2="0.274" y2="-0.96" xlink:href="#linear-gradient-7"/>
    <linearGradient id="linear-gradient-28" x1="436.134" y1="265.981" x2="444.529" y2="276.545" xlink:href="#linear-gradient-6"/>
    <linearGradient id="linear-gradient-29" x1="294.048" y1="297.579" x2="293.609" y2="299.676" xlink:href="#linear-gradient-7"/>
    <linearGradient id="linear-gradient-30" x1="397.549" y1="262.314" x2="395.615" y2="262.801" xlink:href="#linear-gradient-6"/>
    <linearGradient id="linear-gradient-31" x1="400.07" y1="261.212" x2="397.825" y2="262.921" xlink:href="#linear-gradient-6"/>
    <linearGradient id="linear-gradient-32" x1="273.967" y1="273.575" x2="273.632" y2="277.124" xlink:href="#linear-gradient-8"/>
    <linearGradient id="linear-gradient-33" x1="354.322" y1="237.917" x2="354.485" y2="241.198" xlink:href="#linear-gradient-6"/>
    <linearGradient id="linear-gradient-34" x1="427.675" y1="289.074" x2="426.77" y2="290.996" xlink:href="#linear-gradient-6"/>
    <linearGradient id="linear-gradient-35" x1="226.814" y1="288.376" x2="226.643" y2="289.294" xlink:href="#linear-gradient-6"/>
    <linearGradient id="linear-gradient-36" x1="389.738" y1="317.178" x2="389.567" y2="318.095" xlink:href="#linear-gradient-6"/>
    <linearGradient id="linear-gradient-37" x1="441.078" y1="284.289" x2="443.409" y2="285.854" xlink:href="#linear-gradient-6"/>
    <linearGradient id="linear-gradient-38" x1="274.162" y1="307.185" x2="271.451" y2="313.924" xlink:href="#linear-gradient-6"/>
    <linearGradient id="linear-gradient-39" x1="226.453" y1="394.61" x2="224.223" y2="403.278" xlink:href="#linear-gradient-6"/>
    <linearGradient id="linear-gradient-40" x1="210.6" y1="283.528" x2="208.532" y2="289.768" xlink:href="#linear-gradient-6"/>
    <linearGradient id="linear-gradient-41" x1="188.614" y1="168.638" x2="186.762" y2="172.352" xlink:href="#linear-gradient-6"/>
    <linearGradient id="linear-gradient-42" x1="0.535" y1="15.366" x2="1.789" y2="16.096" xlink:href="#linear-gradient-8"/>
    <linearGradient id="linear-gradient-43" x1="1.599" y1="-0.687" x2="2.931" y2="-2.181" xlink:href="#linear-gradient-8"/>
    <linearGradient id="linear-gradient-44" x1="2.379" y1="-1.171" x2="1.644" y2="-0.527" xlink:href="#linear-gradient-6"/>
    <linearGradient id="linear-gradient-45" x1="11.375" y1="249.961" x2="10.088" y2="260.277" xlink:href="#linear-gradient"/>
    <linearGradient id="linear-gradient-46" x1="0.323" y1="1.367" x2="1.083" y2="-0.779" xlink:href="#linear-gradient-22"/>
  </defs>
  <g id="Grupo_56916" data-name="Grupo 56916" transform="translate(-275 -7176)">
    <g id="CF1_icon_copia" data-name="CF1_icon copia" transform="translate(275 7176)">
      <rect id="Rectángulo_6913" data-name="Rectángulo 6913" width="216" height="216" fill="none"/>
      <path id="Trazado_117460" data-name="Trazado 117460" d="M78.676,168.633s7.034-13.68-.994-26.338C70.237,130.538,50.934,103.5,51.654,87.655c0-.72-1.3-.4-1.735.4-4.694,8.554-14.573,29.866-9.439,49.9C47.1,163.787,78.676,168.633,78.676,168.633Z" transform="translate(-10.931 -24.431)" fill="#bdd0fb"/>
      <path id="Trazado_117461" data-name="Trazado 117461" d="M52.153,108.47a34.257,34.257,0,0,0-1.606,8.878,38.549,38.549,0,0,0,.569,8.971,37.871,37.871,0,0,0,1.037,4.363l.346,1.066c.122.353.259.72.389,1.058l.2.526.216.518c.144.338.288.72.439,1.03l.475,1.015c.086.166.158.338.245.5l.266.5.526.994.569.965.281.49.31.468.6.95c.418.619.85,1.246,1.274,1.865q2.621,3.715,5.378,7.265,1.44,1.814,2.837,3.6T69.39,157c.958,1.166,1.922,2.333,2.88,3.514s1.9,2.369,2.786,3.6a34.6,34.6,0,0,1,2.426,3.874,16.92,16.92,0,0,1,.893,2.059,13.269,13.269,0,0,1,.569,2.225.115.115,0,0,1-.094.122.108.108,0,0,1-.122-.086h0a13.205,13.205,0,0,0-.641-2.16,19.264,19.264,0,0,0-.965-2.023,32.615,32.615,0,0,0-2.506-3.744c-1.836-2.39-3.816-4.68-5.76-6.984a178.554,178.554,0,0,1-11.232-14.3c-.432-.619-.864-1.246-1.289-1.879l-.583-.958-.31-.49-.288-.5-.569-.986-.533-1.022-.266-.5c-.086-.173-.166-.346-.245-.518L53.06,135.2a35.6,35.6,0,0,1-2.225-22.392,25.92,25.92,0,0,1,1.31-4.32h0S52.153,108.462,52.153,108.47Z" transform="translate(-13.993 -30.371)" fill="#fff" opacity="0.45"/>
      <path id="Trazado_117462" data-name="Trazado 117462" d="M42.439,33.418c-.482-.886.778-1.526,1.822-.929,10.613,6.062,37.145,24.437,41.033,57.816,4.838,41.882,20.412,56.743,37.138,65.585,0,0-20.657-3.766-37.159-18.828C44.743,100.1,51.057,49.2,42.439,33.418Z" transform="translate(-11.853 -9.032)" fill="#91b3fa"/>
      <path id="Trazado_117463" data-name="Trazado 117463" d="M57.308,51.357a44.236,44.236,0,0,1,3.91,5c.3.439.6.864.886,1.31L62.953,59l.418.67.4.72.8,1.368a97.2,97.2,0,0,1,5.443,11.4l1.145,2.959c.346.994.677,2,1.015,3l.5,1.476c.151.5.3,1.015.446,1.519l.878,3.046c.079.252.144.511.2.77l.187.77.382,1.534.374,1.541c.122.518.252,1.03.353,1.548l.612,3.11c.209,1.037.418,2.074.6,3.089a103.456,103.456,0,0,0,7.769,23.76c.432.95.886,1.894,1.332,2.837s.929,1.872,1.44,2.794c.958,1.858,1.966,3.686,3.01,5.5s2.117,3.6,3.247,5.35c.562.886,1.138,1.75,1.728,2.614s1.181,1.728,1.793,2.542h0a.75.75,0,1,1-1.2.907c-1.31-1.706-2.5-3.442-3.658-5.213s-2.268-3.6-3.341-5.4-2.1-3.658-3.06-5.558c-.49-.936-.958-1.886-1.44-2.83s-.922-1.908-1.354-2.88-.864-1.93-1.289-2.88-.814-1.951-1.2-2.938c-.778-1.973-1.483-3.967-2.16-5.983l-.482-1.512c-.158-.5-.3-1.015-.454-1.519-.31-1.015-.569-2.045-.842-3.067-.511-2.052-.986-4.118-1.354-6.214l-1.13-6.185c-.086-.511-.209-1.022-.324-1.534l-.346-1.526-.331-1.512-.173-.763c-.058-.259-.115-.511-.187-.763L71.9,82.525c-.144-.5-.274-1.008-.418-1.512L71,79.523c-.324-.994-.634-1.994-.965-2.988L68.972,73.59a95.1,95.1,0,0,0-5.119-11.441l-.72-1.382-.374-.72-.4-.67-.8-1.354c-.266-.454-.562-.886-.835-1.325s-.59-.886-.864-1.3-.583-.871-.9-1.289c-.641-.871-1.26-1.692-1.944-2.477h0a.2.2,0,1,1,.3-.266Z" transform="translate(-15.944 -14.356)" fill="#fff" opacity="0.47"/>
      <path id="Trazado_117464" data-name="Trazado 117464" d="M210.215,132.572s-11.383-15.178-4.241-32.256c6.631-15.84,24.53-52.74,20.383-71.87-.187-.85,1.5-.72,2.2.13,7.481,9.446,23.9,33.329,21.794,58.766C247.633,120.124,210.215,132.572,210.215,132.572Z" transform="translate(-57.013 -7.804)" fill="#91b3fa"/>
      <path id="Trazado_117465" data-name="Trazado 117465" d="M236.323,53a32.7,32.7,0,0,1,2.506,5.04,46,46,0,0,1,1.778,5.342,44.919,44.919,0,0,1,1.08,5.53,47.515,47.515,0,0,1,.4,5.688,45.971,45.971,0,0,1-1.368,11.167l-.374,1.368c-.065.223-.122.454-.194.72l-.216.67-.432,1.346L239,91.2l-.245.67c-.086.216-.187.432-.274.648l-.562,1.3c-.382.857-.778,1.7-1.174,2.549a220.021,220.021,0,0,1-10.692,19.742c-1.908,3.211-3.845,6.4-5.58,9.691a39.021,39.021,0,0,0-2.275,5.076,22.5,22.5,0,0,0-.756,2.664,16.793,16.793,0,0,0-.338,2.75h0a.133.133,0,0,1-.266,0,16.77,16.77,0,0,1,.223-2.822,23.858,23.858,0,0,1,.72-2.743,40.738,40.738,0,0,1,2.16-5.213c.814-1.692,1.728-3.326,2.635-4.961s1.85-3.254,2.772-4.874,1.858-3.24,2.765-4.874,1.814-3.254,2.693-4.9q2.65-4.925,5.04-9.979c.389-.842.792-1.685,1.166-2.534l.547-1.274c.086-.216.18-.425.266-.641l.252-.648.49-1.3.439-1.318.216-.655c.072-.216.122-.446.187-.662l.374-1.339c.115-.446.216-.9.324-1.346l.158-.677.13-.677c.086-.454.18-.907.259-1.368l.2-1.368a45.759,45.759,0,0,0,.41-5.53,46.719,46.719,0,0,0-1.159-11.038,41.9,41.9,0,0,0-3.787-10.469h0Z" transform="translate(-60.715 -14.84)" fill="#fff" opacity="0.45"/>
      <path id="Trazado_117466" data-name="Trazado 117466" d="M257.073,52.548a.893.893,0,0,0-1.735-.079c-2.549,8.64-9.936,31.082-21,42.9-18,19.238-30.24,50.71-19.1,67.234C215.2,162.6,277.118,152.03,257.073,52.548Z" transform="translate(-59.073 -14.51)" fill="#bdd0fb"/>
      <path id="Trazado_117467" data-name="Trazado 117467" d="M258.5,69.886a4.832,4.832,0,0,1-.1.792l-.108.72-.238,1.44-.54,2.945q-.562,2.938-1.2,5.861-1.274,5.839-2.83,11.628c-2.074,7.7-4.5,15.322-7.315,22.8a179.148,179.148,0,0,1-9.835,21.859c-1.922,3.514-3.946,6.97-6.185,10.289a98.6,98.6,0,0,1-7.308,9.511.324.324,0,0,1-.454,0,.331.331,0,0,1-.043-.439,134.116,134.116,0,0,0,12.456-20.16,223.927,223.927,0,0,0,9.547-21.751c2.815-7.409,5.3-14.947,7.56-22.558q1.685-5.659,3.2-11.419c.5-1.922.994-3.845,1.44-5.76l.677-2.88.331-1.44.151-.72.137-.677v-.086a.335.335,0,0,1,.655.043Z" transform="translate(-62.239 -19.486)" fill="#fff" opacity="0.43"/>
      <path id="Trazado_117468" data-name="Trazado 117468" d="M101.98,211.257h-.3a2.614,2.614,0,0,1-2.3-2.88L115.833,65.1a2.624,2.624,0,1,1,5.213.6L104.587,208.91A2.628,2.628,0,0,1,101.98,211.257Z" transform="translate(-27.82 -17.577)" fill="url(#linear-gradient)"/>
      <path id="Trazado_117469" data-name="Trazado 117469" d="M215.16,211.249A2.621,2.621,0,0,1,212.6,209.2L180.485,65.945a2.624,2.624,0,1,1,5.119-1.152L217.716,208.03a2.621,2.621,0,0,1-1.98,3.132,2.667,2.667,0,0,1-.576.086Z" transform="translate(-50.518 -17.569)" fill="url(#linear-gradient-2)"/>
      <path id="Trazado_117470" data-name="Trazado 117470" d="M152.321,239.463a2.621,2.621,0,0,1-2.621-2.621V166.131a2.621,2.621,0,0,1,5.242,0v70.69a2.621,2.621,0,0,1-2.621,2.642Z" transform="translate(-41.916 -45.783)" fill="url(#linear-gradient-3)"/>
      <path id="Trazado_117471" data-name="Trazado 117471" d="M80.454,41.4,89.67,157.521a4.637,4.637,0,0,0,4.738,4.27l96.286-2.347a4.644,4.644,0,0,0,4.471-5.371L176.733,38.289a4.644,4.644,0,0,0-4.687-3.91L84.969,36.4a4.637,4.637,0,0,0-4.514,5Z" transform="translate(-22.523 -9.626)" fill="url(#linear-gradient-4)"/>
      <path id="Trazado_117472" data-name="Trazado 117472" d="M89.889,40.886,170.637,39a4.644,4.644,0,0,1,4.687,3.91l17.4,109.274a4.637,4.637,0,0,1-4.471,5.364l-89.438,2.16a4.637,4.637,0,0,1-4.738-4.27L85.374,45.89a4.637,4.637,0,0,1,4.514-5Z" transform="translate(-23.901 -10.92)" fill="#91b3fa"/>
      <g id="Grupo_56897" data-name="Grupo 56897" transform="translate(68.035 34.659)">
        <path id="Trazado_117473" data-name="Trazado 117473" d="M98.566,49.817l72.54-1.678a4.154,4.154,0,0,1,4.212,3.5L190.949,149.8a4.169,4.169,0,0,1-4.018,4.824l-80.352,1.958a4.162,4.162,0,0,1-4.255-3.83L94.505,54.317a4.176,4.176,0,0,1,4.061-4.5Z" transform="translate(-94.492 -48.138)" opacity="0.71" fill="url(#linear-gradient-5)"/>
      </g>
      <path id="Trazado_117474" data-name="Trazado 117474" d="M159.792,149.272s-38.21,1.26-44.539-22.471c-5.09-19.073,10.145.266,27.871,12.024a1.31,1.31,0,0,0,1.534-2.117c-12.859-10.174-31.385-26.755-28.3-35.748,4.658-13.579,6.07-6.163,18.518,9.36s18.6,14.839,11.8,3.442-25.92-21.47-24.775-29.268,8.266-18.317,10.8-23.407,26.726,8.352,26.676,18.389S152.146,104.6,156.02,112.7s7.445-8.114,8.64-17.143,3.456-14.342,10.08-5.04.886,23.162-5.666,31.169-7.92,14.868-4.392,11.2,13.442-15.84,14.306-21.7S193.676,127.795,159.792,149.272Z" transform="translate(-31.992 -16.792)" fill="url(#linear-gradient-6)"/>
      <path id="Trazado_117475" data-name="Trazado 117475" d="M168.39,156.227a.338.338,0,0,1-.194-.288c-1.49-29.254-17.158-65.563-17.316-65.923a.338.338,0,0,1,.18-.446.331.331,0,0,1,.439.173c.158.367,15.876,36.785,17.374,66.161a.338.338,0,0,1-.324.353A.3.3,0,0,1,168.39,156.227Z" transform="translate(-42.238 -25.071)" fill="#fff" opacity="0.53"/>
      <path id="Trazado_117476" data-name="Trazado 117476" d="M272.558,186.92a16.819,16.819,0,0,0,3.917,2.88,32.559,32.559,0,0,1-7.15,6.358l-.886,1.987-2.83-3.4A15.438,15.438,0,0,0,272.558,186.92Z" transform="translate(-74.371 -52.338)" fill="url(#linear-gradient-7)"/>
      <path id="Trazado_117477" data-name="Trazado 117477" d="M192.947,115.571s7.387-14.27-5.227-21.341-17.417,1.109-27.9-5.76C159.82,88.434,165.335,115.139,192.947,115.571Z" transform="translate(-44.75 -24.772)" fill="#91b3fa"/>
      <path id="Trazado_117478" data-name="Trazado 117478" d="M179.033,89.61c.576,0,3.845-.778,4.666,1.03s-.72,2.952-5.04,3.074-4.975,3.017-1.555,5.27,1.3,4.723-2.686,3.146-4.025-.137-2.506,2.3-2.03,4.565-5.458,1.663A34.294,34.294,0,0,1,155.993,87.45a1.21,1.21,0,0,1,1.7-1.3C160.63,87.522,167.153,89.646,179.033,89.61Z" transform="translate(-43.673 -24.09)" fill="#ef2a66"/>
      <path id="Trazado_117479" data-name="Trazado 117479" d="M201.754,113.6a11.036,11.036,0,0,0,.72-2.239,12.957,12.957,0,0,0,.31-2.354,12.549,12.549,0,0,0-.144-2.383,11.275,11.275,0,0,0-.6-2.326,13.24,13.24,0,0,0-2.477-4.126,19.115,19.115,0,0,0-3.6-3.2h0a.562.562,0,1,0-.634.929h0a18.036,18.036,0,0,1,3.6,2.83,12.672,12.672,0,0,1,2.585,3.766,11.441,11.441,0,0,1,.72,2.16,12.351,12.351,0,0,1,.274,2.3,12.671,12.671,0,0,1-.166,2.333,11.349,11.349,0,0,1-.583,2.311Z" transform="translate(-54.622 -27.125)" fill="#fff"/>
      <path id="Trazado_117480" data-name="Trazado 117480" d="M224.738,144.19c24.674,24.4,39.161,47.138,44.446,56.16a1.4,1.4,0,0,1-1.858,1.937c-26.978-14.659-42.372-34.193-50.8-48.917A16.928,16.928,0,0,1,224.738,144.19Z" transform="translate(-60.628 -40.373)" fill="url(#linear-gradient-8)"/>
      <path id="Trazado_117481" data-name="Trazado 117481" d="M205.74,124.44c5.522,4.745,10.656,9.511,15.415,14.22a16.921,16.921,0,0,0-8.208,9.187c-7.02-12.24-9.2-21.2-9.2-21.2a2,2,0,0,1,1.994-2.2Z" transform="translate(-57.046 -34.843)" fill="url(#linear-gradient-9)"/>
      <path id="Trazado_117482" data-name="Trazado 117482" d="M254.208,273.994a.762.762,0,0,1,0-.18c.922-3.643,5.472-5.9,5.472-5.9l1.807.137a12.166,12.166,0,0,1,.72,6.048.216.216,0,0,1,0,.072A42.287,42.287,0,0,1,254.208,273.994Z" transform="translate(-71.177 -75.015)" fill="url(#linear-gradient-10)"/>
      <path id="Trazado_117483" data-name="Trazado 117483" d="M262.224,276.533a.778.778,0,0,1-.576.583,24.625,24.625,0,0,1-6.9-.1.648.648,0,0,1-.54-.655,42.283,42.283,0,0,0,8.014.173Z" transform="translate(-71.179 -77.381)" fill="url(#linear-gradient-11)"/>
      <path id="Trazado_117484" data-name="Trazado 117484" d="M264.152,264.37l-.763,3.679a.6.6,0,0,1-.518.5,5.083,5.083,0,0,1-1.181,0,.72.72,0,0,1-.6-.886l.526-3.269Z" transform="translate(-73.1 -74.024)" fill="url(#linear-gradient-12)"/>
      <path id="Trazado_117485" data-name="Trazado 117485" d="M240.155,276.354a10.707,10.707,0,0,0,3.557-.5v.6a.4.4,0,0,1-.374.4l-10.944-.072a.5.5,0,0,1-.4-.72C233.423,276.174,237.074,276.44,240.155,276.354Z" transform="translate(-64.943 -77.238)" fill="url(#linear-gradient-13)"/>
      <path id="Trazado_117486" data-name="Trazado 117486" d="M232,274.054l.043-.079a13.974,13.974,0,0,1,8.294-5.213l2.333-.072a11.131,11.131,0,0,1,1.058,5.155,10.706,10.706,0,0,1-3.557.5C237.09,274.436,233.44,274.169,232,274.054Z" transform="translate(-64.96 -75.233)" fill="url(#linear-gradient-14)"/>
      <path id="Trazado_117487" data-name="Trazado 117487" d="M246.244,263.562c0,.173-.346,2.815-.468,3.845a.49.49,0,0,1-.425.454,5.255,5.255,0,0,1-1.606,0,.72.72,0,0,1-.526-.72V263Z" transform="translate(-68.101 -73.64)" fill="url(#linear-gradient-15)"/>
      <path id="Trazado_117488" data-name="Trazado 117488" d="M247.852,196.78a207.909,207.909,0,0,0-5.522,48.3,1.037,1.037,0,0,0,.828,1.015,12.57,12.57,0,0,0,2.606.3.972.972,0,0,0,.922-.814c.792-4.622,5.314-30.694,7.92-34.927,0,0,1.7,23.22,1.152,35.28a.562.562,0,0,0,.5.59,9.438,9.438,0,0,0,2.1,0,.763.763,0,0,0,.684-.648c.562-3.917,3.794-27.23,3.658-44.028,0-.943-2.506-5.04-2.506-5.04Z" transform="translate(-67.852 -55.098)" fill="url(#linear-gradient-16)"/>
      <path id="Trazado_117489" data-name="Trazado 117489" d="M239.15,157.2a23.284,23.284,0,0,0,2.383-3.643,16.927,16.927,0,0,0,1.915-5.688c6.322,1.094,15.962,2.347,20.038,2.88a5.465,5.465,0,0,1,3.442,1.85c3.492,4.039,11.16,15.12,2.16,26.266a16.819,16.819,0,0,1-3.917-2.88c1-2.815,1.08-6.408-1.008-10.8a9.946,9.946,0,0,1-.266,1.037,64.03,64.03,0,0,0-3.053,18.461.6.6,0,0,1-.367.547c-3.794,1.519-11.1.612-13.55.245a.821.821,0,0,1-.72-.936c1.2-8.719-4.975-23.04-6.61-26.64a2.384,2.384,0,0,0-.446-.7Z" transform="translate(-66.962 -41.404)" fill="url(#linear-gradient-17)"/>
      <path id="Trazado_117490" data-name="Trazado 117490" d="M261.3,140.109l.72,7.474s-4.2,1.267-7.258-.893l2.16-6.79Z" transform="translate(-71.333 -39.172)" fill="url(#linear-gradient-18)"/>
      <path id="Trazado_117491" data-name="Trazado 117491" d="M255.4,128.237c-.1.094-4.27,8.28-4.27,8.28l4.723,2.282,5.1-7.2S257.092,126.638,255.4,128.237Z" transform="translate(-70.316 -35.817)" fill="url(#linear-gradient-19)"/>
      <path id="Trazado_117492" data-name="Trazado 117492" d="M258.359,130.518a.72.72,0,0,1-.058.662l-2.354,3.931a.72.72,0,0,1-.13.158,1.244,1.244,0,0,1-1.987,0,6.7,6.7,0,0,0-1.858-2.009.72.72,0,0,0-1.015.331,28.29,28.29,0,0,0-1.62,3.83.763.763,0,0,0,.439.922,21.248,21.248,0,0,0,4.529,1.318.763.763,0,0,0,.72-.3c.72-.994,2.758-3.751,3.449-4.45s1.836-.4,2.376-.245a.756.756,0,0,0,.6-.079,1.656,1.656,0,0,0,.626-2.527.72.72,0,0,1,.238-1.022,1.67,1.67,0,0,0,.634-2.369,2.347,2.347,0,0,0-2.542-1.246.778.778,0,0,1-.821-.454.5.5,0,0,0-.418-.3.72.72,0,0,1-.6-.857,1.93,1.93,0,0,0-1.073-2.21c-2.038-1.123-3.83.72-4.284,2.246s1.829,2.628,3.262,2.815C257.546,128.768,258.129,129.92,258.359,130.518Z" transform="translate(-69.806 -34.513)" fill="url(#linear-gradient-20)"/>
      <path id="Trazado_117493" data-name="Trazado 117493" d="M260.8,140.435s.907-2.657,2.066-2.556,2.074,1.253.641,2.556C261.714,142.048,260.8,140.435,260.8,140.435Z" transform="translate(-73.024 -38.605)" fill="url(#linear-gradient-21)"/>
      <path id="Trazado_117494" data-name="Trazado 117494" d="M274.236,167.328a23.837,23.837,0,0,0,.972-9.288l-.425.043a23.344,23.344,0,0,1-.943,9.1Z" transform="translate(-76.675 -44.251)" fill="url(#linear-gradient-22)"/>
      <path id="Trazado_117495" data-name="Trazado 117495" d="M259.576,213.606a.209.209,0,0,0,.2-.158c.468-1.8,3.96-3.78,4-3.794a.209.209,0,0,0,.079-.288.2.2,0,0,0-.288-.086c-.151.086-3.686,2.088-4.2,4.061a.209.209,0,0,0,.151.259Z" transform="translate(-72.621 -58.59)" fill="url(#linear-gradient-23)"/>
      <path id="Trazado_117496" data-name="Trazado 117496" d="M215.271,150.721c7.344,3.2,13.622-.3,18.122-2.239,5.933-2.549,9.252.346,9.252.346l-7.92,8.59c-9.785,5.278-17.352,1.5-21.766-2.232a10.137,10.137,0,0,1,2.311-4.464Z" transform="translate(-59.629 -41.281)" fill="url(#linear-gradient-24)"/>
      <path id="Trazado_117497" data-name="Trazado 117497" d="M206.811,137.87l1.886,5.17c1.915,2.88,2.16,3.967,4.543,4.99a10.138,10.138,0,0,0-2.29,4.464,20.1,20.1,0,0,1-3.6-7.754C204,138.684,206.811,137.87,206.811,137.87Z" transform="translate(-57.599 -38.604)" fill="url(#linear-gradient-25)"/>
      <path id="Trazado_117498" data-name="Trazado 117498" d="M72.814,239.628c9.137-2.239,15.746-9.425,20.916-16.027,3.874-4.946,7.488-10.08,10.843-15.322a57.727,57.727,0,0,0,6.545-13.27,14.357,14.357,0,0,0,.6-7.56c-1.116-4.63-4.262-6.7-9.562-6.977-2.966-.151-8.251.914-9.209-2.261-.842-2.772.72-5.717,1.354-8.41a9.936,9.936,0,0,0,.425-2.779c-.108-3.082-3.132-5.63-6.48-6.48-6.941-1.793-14.234,4.19-18.778,8.251a82.2,82.2,0,0,0-13.32,15.97C49.724,194.383,45.3,205.521,45.26,216.8c0,6.8,1.93,14.1,7.92,18.72A23.846,23.846,0,0,0,72.814,239.628Zm25.452-49.889c.828-3.262,3.456-5.515,5.882-5.04s3.73,3.521,2.88,6.782-3.463,5.515-5.89,5.04S97.446,193.008,98.266,189.739Z" transform="translate(-12.673 -44.861)" fill="url(#linear-gradient-26)"/>
      <path id="Trazado_117499" data-name="Trazado 117499" d="M74.09,240.647c9.05-2.21,15.6-9.36,20.722-15.876,3.845-4.9,7.423-9.994,10.75-15.185a57.085,57.085,0,0,0,6.48-13.147,14.234,14.234,0,0,0,.6-7.488c-1.109-4.594-4.226-6.631-9.482-6.912-2.938-.158-8.172.9-9.122-2.246-.835-2.743.72-5.666,1.346-8.33A10.037,10.037,0,0,0,95.8,168.7c-.108-3.053-3.1-5.573-6.415-6.43-6.876-1.771-14.1,4.162-18.6,8.179a81.094,81.094,0,0,0-13.2,15.84c-6.365,9.533-10.742,20.57-10.8,31.738,0,6.746,1.908,13.975,7.855,18.547a23.616,23.616,0,0,0,19.454,4.068Zm25.2-49.428c.814-3.233,3.427-5.465,5.832-4.982s3.686,3.485,2.88,6.718-3.427,5.465-5.832,4.99-3.672-3.492-2.858-6.725Z" transform="translate(-13.098 -45.347)" fill="url(#linear-gradient-27)"/>
      <ellipse id="Elipse_4572" data-name="Elipse 4572" cx="5.047" cy="5.702" rx="5.047" ry="5.702" transform="translate(63.693 130.377) rotate(-89.56)" fill="url(#linear-gradient-28)"/>
      <ellipse id="Elipse_4573" data-name="Elipse 4573" cx="3.96" cy="4.471" rx="3.96" ry="4.471" transform="translate(65.135 128.813) rotate(-89.56)" fill="url(#linear-gradient-29)"/>
      <ellipse id="Elipse_4574" data-name="Elipse 4574" cx="5.047" cy="5.702" rx="5.047" ry="5.702" transform="translate(49.319 142.167) rotate(-89.56)" fill="url(#linear-gradient-30)"/>
      <ellipse id="Elipse_4575" data-name="Elipse 4575" cx="4.651" cy="5.249" rx="4.651" ry="5.249" transform="translate(49.775 141.775) rotate(-89.56)" fill="#91b3fa"/>
      <ellipse id="Elipse_4576" data-name="Elipse 4576" cx="5.047" cy="5.702" rx="5.047" ry="5.702" transform="translate(38.935 159.784) rotate(-89.56)" fill="url(#linear-gradient-31)"/>
      <ellipse id="Elipse_4577" data-name="Elipse 4577" cx="4.32" cy="4.874" rx="4.32" ry="4.874" transform="translate(39.769 159.019) rotate(-89.56)" fill="url(#linear-gradient-32)"/>
      <ellipse id="Elipse_4578" data-name="Elipse 4578" cx="5.047" cy="5.702" rx="5.047" ry="5.702" transform="translate(34.755 175.093) rotate(-89.56)" fill="url(#linear-gradient-33)"/>
      <ellipse id="Elipse_4579" data-name="Elipse 4579" cx="4.183" cy="4.723" rx="4.183" ry="4.723" transform="translate(35.581 174.15) rotate(-89.56)" fill="url(#linear-gradient-34)"/>
      <ellipse id="Elipse_4580" data-name="Elipse 4580" cx="5.047" cy="5.702" rx="5.047" ry="5.702" transform="translate(39.246 189.554) rotate(-89.56)" fill="url(#linear-gradient-35)"/>
      <ellipse id="Elipse_4581" data-name="Elipse 4581" cx="4.644" cy="5.249" rx="4.644" ry="5.249" transform="translate(39.55 189.074) rotate(-89.56)" fill="#91b3fa"/>
      <ellipse id="Elipse_4582" data-name="Elipse 4582" cx="5.047" cy="5.702" rx="5.047" ry="5.702" transform="translate(54.113 193.124) rotate(-89.56)" fill="url(#linear-gradient-36)"/>
      <ellipse id="Elipse_4583" data-name="Elipse 4583" cx="4.572" cy="5.162" rx="4.572" ry="5.162" transform="translate(54.57 192.602) rotate(-89.56)" fill="url(#linear-gradient-37)"/>
      <path id="Trazado_117500" data-name="Trazado 117500" d="M108.968,192.6l-6.782-5.76a3.038,3.038,0,0,0-3.938.065l-1.577,1.44a2.311,2.311,0,0,0,.612,3.838l8.366,4.32a3.067,3.067,0,0,0,3.348-.374h0a2.268,2.268,0,0,0-.029-3.528Z" transform="translate(-26.852 -52.121)" fill="url(#linear-gradient-38)"/>
      <path id="Trazado_117501" data-name="Trazado 117501" d="M102.145,201.824l-9.3-3.132a3.11,3.11,0,0,0-3.564,1.13l-1.807,2.794c-1.094,1.685.238,3.8,2.441,3.874l11.1.331a2.945,2.945,0,0,0,2.808-1.627h0a2.506,2.506,0,0,0-1.685-3.37Z" transform="translate(-24.385 -55.584)" fill="url(#linear-gradient-39)"/>
      <path id="Trazado_117502" data-name="Trazado 117502" d="M103.134,215.275a1.93,1.93,0,0,0-1.93-1.03c-4.7.655-9.418,1.2-14.1,1.9a9.691,9.691,0,0,0-1.937.367c.072,2.556-.144,5.184.108,7.726a1.763,1.763,0,0,0,2.736,1.26c2.527-1.368,4.874-2.981,7.3-4.486,2.592-1.606,5.2-3.19,7.8-4.788C103.595,215.923,103.372,215.649,103.134,215.275Z" transform="translate(-23.841 -59.985)" fill="url(#linear-gradient-40)"/>
      <path id="Trazado_117503" data-name="Trazado 117503" d="M106.467,219.781c-2.8,2.369-10.67,8.561-14.616,11.65a1.915,1.915,0,0,0,.317,3.262l6.631,3.6a2.455,2.455,0,0,0,3.226-.72l9.158-14.911a1.958,1.958,0,0,0-1.138-2.88l-1.116-.41a2.549,2.549,0,0,0-2.462.41Z" transform="translate(-25.503 -61.381)" fill="url(#linear-gradient-41)"/>
      <path id="Trazado_117504" data-name="Trazado 117504" d="M178.132,246.747a7.553,7.553,0,0,1,4.32,3.686,5.126,5.126,0,0,1,.562,1.44,4.867,4.867,0,0,1,.094,1.022c0,4.32-3.47,7.2-7.2,8.64-4.939,1.886-9.871,1.31-14.99,1.138-5.242-.18-10.49-.36-15.732-.583-4.558-.187-9.122-.4-13.68-.72-2.642-.166-5.285-.331-7.92-.518a51.469,51.469,0,0,1-7.754-.677c1.116-2.21,1.375-5.544,1.606-8.014.18-1.85.252-3.708.324-5.573,0-.864-.317-4.162.382-4.608a1.821,1.821,0,0,1,1.015-.166c.72.036,1.634.259,2.16.3,1.3.1,2.6.216,3.9.338q3.9.367,7.783.835c10.217,1.21,20.7,2.261,30.492,5.494.4.13,5.148,1.44,5.134,1.368-.209-1.159.821-2.16,1.85-2.743a9.641,9.641,0,0,1,7.654-.655Z" transform="translate(-32.432 -67.704)" fill="url(#linear-gradient-42)"/>
      <path id="Trazado_117505" data-name="Trazado 117505" d="M203.424,256.827a5.249,5.249,0,0,1-1.548,2.52,1.123,1.123,0,0,0,.209-.526,10.281,10.281,0,0,0-.065-4.493,6.655,6.655,0,0,0-3.564-4.32,7.488,7.488,0,0,0-3.449-1.08,4.457,4.457,0,0,0-3.326,1.246c-.648.684-1.116,2.088-.317,2.822s2.491.943,3.233.151c.094-.094.209-.209.338-.166a.67.67,0,0,1-.144.612,3.06,3.06,0,0,1-1.764,1.123,3.291,3.291,0,0,1-3.01-.439,2.88,2.88,0,0,1-.929-2.268,4.992,4.992,0,0,1,4.723-4.464,12,12,0,0,1,4.565.526c2.434.684,4.666,2.03,5.155,4.658l.166.886A5.594,5.594,0,0,1,203.424,256.827Z" transform="translate(-52.944 -69.303)" fill="url(#linear-gradient-43)"/>
      <path id="Trazado_117506" data-name="Trazado 117506" d="M154.5,249.221a14.169,14.169,0,0,0-1.109-3.514c-4.846-.72-9.734-1.282-14.566-1.858l-1.562-.18c.173.6.353,1.2.554,1.822,1.44,4.73,0,9.936-.864,14.81a15.436,15.436,0,0,1-.4,1.584l.806.05c4.558.3,9.122.511,13.68.72l2.088.086A29.52,29.52,0,0,0,154.5,249.221Z" transform="translate(-38.234 -68.228)" fill="url(#linear-gradient-44)"/>
      <ellipse id="Elipse_4584" data-name="Elipse 4584" cx="9.31" cy="1.591" rx="9.31" ry="1.591" transform="translate(82.274 192.449) rotate(-84.21)" fill="#7d97f4"/>
      <ellipse id="Elipse_4585" data-name="Elipse 4585" cx="3.283" cy="0.648" rx="3.283" ry="0.648" transform="translate(78.618 186.014) rotate(-84.21)" fill="url(#linear-gradient-45)"/>
      <path id="Trazado_117507" data-name="Trazado 117507" d="M95.721,248.277a9.361,9.361,0,0,0-1.728.382c-2.239.72-4.507,1.937-5.558,4.039a15.4,15.4,0,0,0-.95,3.211c-.518,2.023-.569,4.054-2.606,4.918-2.419,1.022-4.954,1.822-7.416,2.722a3.665,3.665,0,0,0-1.966,3.946c.511,2.16,2.822,1.778,4.507,1.771,3.982,0,7.97-.079,11.938.158a25,25,0,0,0,2.938.058c1.31-.086,2.6-.374,3.91-.533,3.218-.382,6.48.065,9.713.187a7.346,7.346,0,0,0,4.32-.821c.367-.259.72-.72.547-1.123a1.138,1.138,0,0,0-.4-.425c-3.01-2.11-7.049-1.721-10.62-2.6a6.192,6.192,0,0,1-2.455-1.109c-1.217-1.008-1.67-2.642-2.066-4.169a5.27,5.27,0,0,1-.238-2.11c.439-2.707,3.42-1.224,4.831-2.678.979-1.008.677-3.326-.3-4.255C100.559,248.385,97.938,248,95.721,248.277Z" transform="translate(-21.122 -69.494)" fill="url(#linear-gradient-46)"/>
      <path id="Trazado_117508" data-name="Trazado 117508" d="M115.18,249.832l-4.255-.432a9.526,9.526,0,0,1-.655,6.523l4.068.41A9.461,9.461,0,0,0,115.18,249.832Z" transform="translate(-30.876 -69.832)" fill="#91b3fa"/>
      <path id="Trazado_117509" data-name="Trazado 117509" d="M110.742,249.36a8.7,8.7,0,0,1-.662,6.538l1.4.144a10.944,10.944,0,0,0,.662-6.538Z" transform="translate(-30.822 -69.821)" fill="#bdd0fb"/>
    </g>
  </g>
</svg>
