<svg xmlns="http://www.w3.org/2000/svg" xmlns:xlink="http://www.w3.org/1999/xlink" width="300" height="300" viewBox="0 0 300 300">
  <defs>
    <linearGradient id="linear-gradient" y1="0.5" x2="1" y2="0.5" gradientUnits="objectBoundingBox">
      <stop offset="0" stop-color="#9182ca"/>
      <stop offset="1" stop-color="#472ea6"/>
    </linearGradient>
    <linearGradient id="linear-gradient-2" x1="0" y1="0.497" x2="0.998" y2="0.497" xlink:href="#linear-gradient"/>
    <linearGradient id="linear-gradient-3" x1="0" y1="0.499" x2="1" y2="0.499" xlink:href="#linear-gradient"/>
    <linearGradient id="linear-gradient-4" x1="0" y1="0.5" x2="1" y2="0.5" xlink:href="#linear-gradient"/>
    <linearGradient id="linear-gradient-5" x1="0" y1="0.5" x2="1" y2="0.5" xlink:href="#linear-gradient"/>
  </defs>
  <g id="Grupo_55523" data-name="Grupo 55523" transform="translate(-243 -9911)">
    <g id="CF1_empresa_copia_6" data-name="CF1_empresa copia 6" transform="translate(243 9911)">
      <rect id="Rectángulo_6448" data-name="Rectángulo 6448" width="168.49" height="226.89" rx="4.79" transform="translate(45.47 53.41)" fill="#35237d"/>
      <rect id="Rectángulo_6449" data-name="Rectángulo 6449" width="138.84" height="196.35" transform="translate(60.3 68.61)" fill="#fff"/>
      <path id="Trazado_111959" data-name="Trazado 111959" d="M124.26,253.36a3.14,3.14,0,0,1-2.26-1L90.74,220.08a3.14,3.14,0,1,1,4.51-4.37L126.51,248a3.176,3.176,0,0,1-2.25,5.36Z" fill="#a5aff2"/>
      <path id="Trazado_111960" data-name="Trazado 111960" d="M93,253.36A3.13,3.13,0,0,1,90.74,248L122,215.71a3.14,3.14,0,1,1,4.51,4.37L95.25,252.4a3.1,3.1,0,0,1-2.25.96Z" fill="#a5aff2"/>
      <path id="Trazado_111961" data-name="Trazado 111961" d="M176.66,199.5a3.1,3.1,0,0,1-2.25-1l-31.26-32.33a3.14,3.14,0,0,1,4.51-4.36l31.26,32.33a3.15,3.15,0,0,1-2.26,5.32Z" fill="#a5aff2"/>
      <path id="Trazado_111962" data-name="Trazado 111962" d="M145.4,199.5a3.14,3.14,0,0,1-2.25-5.32l31.26-32.33a3.14,3.14,0,0,1,4.51,4.36l-31.26,32.33a3.14,3.14,0,0,1-2.26.96Z" fill="#a5aff2"/>
      <path id="Trazado_111963" data-name="Trazado 111963" d="M161,122.7a21,21,0,1,1,21-21,21,21,0,0,1-21,21Zm0-35.78a14.76,14.76,0,1,0,14.76,14.75A14.76,14.76,0,0,0,161,86.92Z" fill="#ef2a66"/>
      <path id="Trazado_111964" data-name="Trazado 111964" d="M150.54,48.07h-5.27l-1-1A20.08,20.08,0,0,1,139,35.3a11.49,11.49,0,1,0-18.62,0A20.08,20.08,0,0,1,115.13,47l-1,1H108.9A10.53,10.53,0,0,0,98.37,58.6V72.9a2.51,2.51,0,0,0,2.51,2.51h57.68a2.52,2.52,0,0,0,2.51-2.51V58.6A10.54,10.54,0,0,0,150.54,48.07ZM129.72,23.78a4.79,4.79,0,1,1-4.79,4.79,4.79,4.79,0,0,1,4.79-4.79Z" fill="url(#linear-gradient)"/>
      <path id="Trazado_111965" data-name="Trazado 111965" d="M162.92,255.22a3.14,3.14,0,0,1-3.13-3c-.32-7.15-3-21.21-17.51-35-23.38-22.28-35.27-40-36.34-54.12a45.29,45.29,0,0,1,4.72-23.67c4.73-9.59,12.82-18.32,24-25.95a3.134,3.134,0,0,1,3.53,5.18c-23.07,15.7-26.89,32.57-26,44,.94,12.35,12.51,29.19,34.41,50,16.06,15.31,19.08,31.17,19.45,39.27a3.13,3.13,0,0,1-3,3.27Z" fill="#ef2a66"/>
      <path id="Trazado_111966" data-name="Trazado 111966" d="M136.24,137.7a3.14,3.14,0,0,1-3.14-3.14V117.87H116a3.14,3.14,0,1,1,0-6.28h20.25a3.13,3.13,0,0,1,3.14,3.14v19.83a3.13,3.13,0,0,1-3.15,3.14Z" fill="#ef2a66"/>
      <path id="Trazado_111967" data-name="Trazado 111967" d="M240.31,123s-3.66-.16-5.37,2.37S236,135,236,135s-7.33,9.35.13,18.34,26.28,9.53,26.28,9.53,8-10.86.93-17.5c0,0,1-12.51-6.46-16.24A98.192,98.192,0,0,0,240.31,123Z" fill="#12263f"/>
      <path id="Trazado_111968" data-name="Trazado 111968" d="M208,151.82s-1.86-4.37-3.11-4.09c-.73.17-.15,2.27-.15,2.27s-3.83-2.24-5.27-2.27c-1.74,0-2.39,2.72-1.79,3.72s7.39,4.49,7.39,4.49Z" fill="#ff9dca"/>
      <path id="Trazado_111969" data-name="Trazado 111969" d="M236.75,150.38l-12,8.29-16.74-9-4.69,6.81,17.24,11.64a5.66,5.66,0,0,0,5.72.72l14.77-6.44" fill="#b3204d"/>
      <path id="Trazado_111970" data-name="Trazado 111970" d="M241.24,271.31l.54,8.3a.64.64,0,0,1-.64.69h-14.5a.49.49,0,0,1-.36-.83c.68-.73,2.29-1.75,6.07-2.2l.05-4.5Z" fill="#ef2a66"/>
      <path id="Trazado_111971" data-name="Trazado 111971" d="M264.5,271.68l1.26,7.93a.64.64,0,0,0,.65.69H280.9a.49.49,0,0,0,.36-.83c-.68-.73-2.29-1.75-6.07-2.2l-1-4.6Z" fill="#ef2a66"/>
      <path id="Trazado_111972" data-name="Trazado 111972" d="M258.58,193.65l18.25,81.45-14,.71s-14.92-66.76-17.11-66.94c-.91-.07-1.29,66.38-2,66.23s-15.18.23-15.18.23,4.45-82.64,4.48-82.64C237.5,192.69,258.58,193.65,258.58,193.65Z" fill="#12263f"/>
      <path id="Trazado_111973" data-name="Trazado 111973" d="M250.61,140l-.61,9a1.77,1.77,0,0,1-1.91,1.64l-5.32-.46a1.76,1.76,0,0,1-1.61-1.91l.48-5.54Z" fill="#ff9dca"/>
      <path id="Trazado_111974" data-name="Trazado 111974" d="M250.24,145.36l-8-.38a4.62,4.62,0,0,1-4.12-4.9l.91-13.51,14.42,2.33.1,9.8s-1,2.14-2.9,1.26Z" fill="#ff9dca"/>
      <path id="Trazado_111975" data-name="Trazado 111975" d="M241.28,146.95l7.34-1.67-7.16-.44Z" fill="#ef8fc5"/>
      <path id="Trazado_111976" data-name="Trazado 111976" d="M241.16,148.27s-2.3-.85-5.6,2.95c-2.27,2.63-5.4,9.24-4.66,11.64,1.18,3.83,4,10.57,4,10.57s-3.57,17.81-3.37,24.11a98.382,98.382,0,0,0,14.31,1.06c6.59-.12,14.7-1.06,14.7-1.06s-3.21-19.71-3-22.31,2.78-11.43,3-16.65-5.1-9.82-7.06-10S241.16,148.27,241.16,148.27Z" fill="#ef2a66"/>
      <path id="Trazado_111977" data-name="Trazado 111977" d="M234,153.33c-.33.84-.67,1.67-1,2.5s-.68,1.66-1,2.48l-.52,1.24a4.559,4.559,0,0,0-.36,1.23,4.69,4.69,0,0,0,.32,2.51q1,2.49,2,5l1.91,5v.16c-.38,2-.76,4-1.16,6-.2,1-.41,2-.62,3s-.42,2-.65,3c.13-1,.28-2,.42-3s.3-2,.45-3q.47-3,1-6v.15l-1.95-5c-.64-1.68-1.28-3.35-1.9-5a5.18,5.18,0,0,1-.27-2.78,5.07,5.07,0,0,1,.44-1.33l.58-1.22c.38-.81.78-1.61,1.18-2.42S233.54,154.13,234,153.33Z" fill="#12263f"/>
      <path id="Trazado_111978" data-name="Trazado 111978" d="M253.5,138s-6-1.9-7.62-5.5a10.35,10.35,0,0,0-6.89-5.88c-2-.39,2.09-6.79,9.63-6.25a8.69,8.69,0,0,1,8.25,7.65S257.5,136.64,253.5,138Z" fill="#12263f"/>
      <rect id="Rectángulo_6450" data-name="Rectángulo 6450" width="18.3" height="24.01" transform="translate(237.21 187.53) rotate(180)" fill="#bbabf5"/>
      <path id="Trazado_111979" data-name="Trazado 111979" d="M240.92,174.31s-3.51-2.24-3.72-1.82v2.1s-4.43.23-5.64,1c-1.47.93-.5,3.58.55,4.09s8.64-.32,8.64-.32Z" fill="#ff9dca"/>
      <path id="Trazado_111980" data-name="Trazado 111980" d="M259.22,153.78,265.84,172a5,5,0,0,1-4.42,6.19l-20.91,1.69-1.72-7.31,16.43-2.89-2.83-6.59" fill="#ef2a66"/>
      <path id="Trazado_111981" data-name="Trazado 111981" d="M252.77,163.92c.77,1.92,1.56,3.84,2.35,5.76l.08-.15-8.2,1.36-8.21,1.42h-.24v.23c.29,1.22.56,2.44.86,3.66l.87,3.65v.19h.19l5.22-.44c1.75-.14,3.49-.31,5.23-.47s3.48-.3,5.22-.48,3.48-.33,5.22-.52c-1.75.1-3.49.22-5.24.33l-5.23.36c-1.74.13-3.49.24-5.23.38l-5.23.4.23.17-.84-3.66c-.28-1.22-.58-2.43-.87-3.65l-.18.27,8.21-1.47,8.2-1.53h.14l-.06-.13C254.47,167.7,253.63,165.8,252.77,163.92Z" fill="#12263f"/>
      <path id="Trazado_111982" data-name="Trazado 111982" d="M61.7,146,54,166.13a5.31,5.31,0,0,0,3.45,7l24.46,7.27,3.6-6.71L64.44,166.5l4.29-10.84" fill="#241753"/>
      <path id="Trazado_111983" data-name="Trazado 111983" d="M71.54,133.78l.64,9.47a1.84,1.84,0,0,0,2,1.71l5.57-.47a1.86,1.86,0,0,0,1.69-2l-.51-5.81Z" fill="#ff9dca"/>
      <path id="Trazado_111984" data-name="Trazado 111984" d="M71.92,139.43l8.43-.39a4.84,4.84,0,0,0,4.31-5.13l-1-14.15-15.1,2.44-.11,10.26s1,2.25,3,1.32Z" fill="#ff9dca"/>
      <path id="Trazado_111985" data-name="Trazado 111985" d="M79.1,127s-2.38-1.68-3.91,0,1.81,3.35,3.21,4.47c0,0-2.07,9-4.93,8-3.92-1.35-5.09-2.67-7-5.65-3-4.88-1.91-13.48.7-16.25,3.66-3.88,12.18-3.11,12.18-3.11a5.52,5.52,0,0,1,6.4-2.52c3.91,1.13,4.46,8.37-1.88,11C83.92,122.9,78.4,121.14,79.1,127Z" fill="#12263f"/>
      <circle id="Elipse_4480" data-name="Elipse 4480" cx="3.06" cy="3.06" r="3.06" transform="translate(74.32 126.15)" fill="#ff9dca"/>
      <path id="Trazado_111986" data-name="Trazado 111986" d="M73,271l.57,8.69a.68.68,0,0,1-.68.73H57.68a.52.52,0,0,1-.38-.87c.72-.77,2.4-1.84,6.36-2.31l.05-4.72Z" fill="url(#linear-gradient-2)"/>
      <path id="Trazado_111987" data-name="Trazado 111987" d="M97.34,271.36l1.31,8.3a.69.69,0,0,0,.68.73h15.18a.52.52,0,0,0,.38-.87c-.71-.77-2.4-1.84-6.36-2.31l-1.09-4.82Z" fill="url(#linear-gradient-3)"/>
      <path id="Trazado_111988" data-name="Trazado 111988" d="M93.08,189.71l17.17,85.23-14.71.74S79.92,202.21,77.62,202c-1-.08-1.34,73.07-2.12,72.91s-15.89.24-15.89.24,2-86.55,2-86.56Z" fill="#12263f"/>
      <path id="Trazado_111989" data-name="Trazado 111989" d="M91.27,145.34a4.92,4.92,0,0,0-4.37-3.62,109.577,109.577,0,0,0-19.51.27c-2.13.28-5,.95-5.91,4.79l1.19,28.42-1.62,16.39H93.79L92,172.16c-.2-5,.4-10.64.28-15.26C93.83,156.32,92.55,149.37,91.27,145.34Z" fill="url(#linear-gradient-4)"/>
      <path id="Trazado_111990" data-name="Trazado 111990" d="M119.81,149.25s3.77,1.79,6.26-.19c1-.79.8-3.27-.56-4.9,0,0,5.85-3.25,5.28-4.22-.85-1.44-6.34,2.41-6.34,2.41h0a2.16,2.16,0,0,0-2.57-.18,25.82,25.82,0,0,0-4.1,3.64Z" fill="#ff9dca"/>
      <path id="Trazado_111991" data-name="Trazado 111991" d="M88.82,144.28l12.48,8.77,17.6-9.28,4.85,7.16L105.61,163a5.93,5.93,0,0,1-6,.71l-13.44-8.1" fill="url(#linear-gradient-5)"/>
      <path id="Trazado_111992" data-name="Trazado 111992" d="M88.38,156.93l8.76,5.45,1.1.67c.37.23.72.46,1.11.67a6,6,0,0,0,1.23.49,5.77,5.77,0,0,0,3.88-.33,8.479,8.479,0,0,0,1.14-.66l1.07-.71c2.88-1.88,5.75-3.79,8.62-5.68l8.6-5.7a.24.24,0,0,0,.07-.33h0l-4.87-7.15a.24.24,0,0,0-.3-.08L110,148.22l-8.77,4.7h.15l-5.79-4-5.81-4,5.71,4.11c1.9,1.37,3.81,2.74,5.72,4.09a.12.12,0,0,0,.15,0h0l8.83-4.58L119,144l-.29-.07,4.84,7.17.07-.34-8.62,5.7c-2.86,1.91-5.72,3.81-8.57,5.74l-1.07.72a8.588,8.588,0,0,1-1.08.65,5.37,5.37,0,0,1-2.43.52,5.211,5.211,0,0,1-1.24-.16,6.15,6.15,0,0,1-1.17-.45c-.74-.41-1.47-.87-2.21-1.31Z" fill="#12263f"/>
      <rect id="Rectángulo_6451" data-name="Rectángulo 6451" width="300" height="300" fill="none"/>
    </g>
  </g>
</svg>
