<svg xmlns="http://www.w3.org/2000/svg" xmlns:xlink="http://www.w3.org/1999/xlink" width="301.928" height="300" viewBox="0 0 301.928 300">
  <defs>
    <linearGradient id="linear-gradient" x1="-4872.611" y1="-26.426" x2="-4880.624" y2="-25.568" gradientUnits="objectBoundingBox">
      <stop offset="0" stop-color="#241753"/>
      <stop offset="1" stop-color="#6c58b8"/>
    </linearGradient>
    <linearGradient id="linear-gradient-2" x1="-638.909" y1="-134.613" x2="-639.228" y2="-131.166" xlink:href="#linear-gradient"/>
    <linearGradient id="linear-gradient-3" x1="806.054" y1="-16.475" x2="803.207" y2="-10.089" xlink:href="#linear-gradient"/>
    <linearGradient id="linear-gradient-4" x1="3209.984" y1="-29.813" x2="3210.984" y2="-29.813" gradientUnits="objectBoundingBox">
      <stop offset="0" stop-color="#febbba"/>
      <stop offset="1" stop-color="#ff928e"/>
    </linearGradient>
    <linearGradient id="linear-gradient-5" x1="1005.511" y1="-1.988" x2="1002.494" y2="-1.133" xlink:href="#linear-gradient"/>
    <linearGradient id="linear-gradient-6" x1="1999.784" y1="-21.03" x2="1992.725" y2="-13.505" xlink:href="#linear-gradient"/>
    <linearGradient id="linear-gradient-7" x1="3740.625" y1="-22.483" x2="3741.627" y2="-22.483" xlink:href="#linear-gradient-4"/>
    <linearGradient id="linear-gradient-8" x1="670.831" y1="-2.026" x2="668.819" y2="-1.183" xlink:href="#linear-gradient"/>
    <linearGradient id="linear-gradient-9" x1="619.474" y1="-4.651" x2="620.47" y2="-4.651" xlink:href="#linear-gradient-4"/>
    <linearGradient id="linear-gradient-10" x1="-2293.884" y1="-9.051" x2="-2291.893" y2="-6.367" xlink:href="#linear-gradient-4"/>
    <linearGradient id="linear-gradient-11" x1="4469.426" y1="-24.168" x2="4471.433" y2="-25.944" xlink:href="#linear-gradient-4"/>
    <linearGradient id="linear-gradient-12" x1="493.644" y1="-8.695" x2="494.646" y2="-8.695" xlink:href="#linear-gradient-4"/>
    <linearGradient id="linear-gradient-13" x1="-0.104" y1="1.69" x2="0.844" y2="-0.028" xlink:href="#linear-gradient-4"/>
    <linearGradient id="linear-gradient-14" x1="-33.615" y1="707.435" x2="-33.937" y2="706.369" xlink:href="#linear-gradient-4"/>
    <linearGradient id="linear-gradient-15" x1="-25.353" y1="541.385" x2="-25.149" y2="542.567" xlink:href="#linear-gradient"/>
    <linearGradient id="linear-gradient-16" x1="-110.983" y1="3386.953" x2="-111.929" y2="3382.361" xlink:href="#linear-gradient-4"/>
    <linearGradient id="linear-gradient-17" x1="447.517" y1="-0.062" x2="448.032" y2="2.43" xlink:href="#linear-gradient"/>
    <linearGradient id="linear-gradient-18" x1="1537.632" y1="0.499" x2="1538.637" y2="0.499" xlink:href="#linear-gradient-4"/>
    <linearGradient id="linear-gradient-19" x1="-258.862" y1="-21.694" x2="-259.958" y2="-20.492" xlink:href="#linear-gradient-4"/>
    <linearGradient id="linear-gradient-20" x1="-234.475" y1="-15.48" x2="-235.087" y2="-14.86" xlink:href="#linear-gradient"/>
    <linearGradient id="linear-gradient-21" x1="-1059.724" y1="-44.662" x2="-1059.499" y2="-45.572" xlink:href="#linear-gradient-4"/>
    <linearGradient id="linear-gradient-22" x1="-611.136" y1="-38.542" x2="-609.927" y2="-37.379" xlink:href="#linear-gradient-4"/>
    <linearGradient id="linear-gradient-23" x1="-721.771" y1="-48.203" x2="-723.652" y2="-46.302" xlink:href="#linear-gradient"/>
    <linearGradient id="linear-gradient-24" x1="-1709.065" y1="-145.639" x2="-1705.686" y2="-141.32" xlink:href="#linear-gradient-4"/>
    <linearGradient id="linear-gradient-25" x1="-259.999" y1="0.35" x2="-258.601" y2="-0.786" xlink:href="#linear-gradient-4"/>
    <linearGradient id="linear-gradient-26" x1="-634.532" y1="-3.034" x2="-633.536" y2="-3.034" xlink:href="#linear-gradient"/>
    <linearGradient id="linear-gradient-27" x1="-481.834" y1="-0.612" x2="-485.726" y2="-0.282" xlink:href="#linear-gradient-4"/>
    <linearGradient id="linear-gradient-28" x1="-529.209" y1="-3.661" x2="-528.216" y2="-3.661" xlink:href="#linear-gradient"/>
    <linearGradient id="linear-gradient-29" x1="1.967" y1="-0.229" x2="0.935" y2="0.315" xlink:href="#linear-gradient"/>
    <linearGradient id="linear-gradient-30" x1="-359.656" y1="-20.177" x2="-356.686" y2="-22.353" xlink:href="#linear-gradient-4"/>
    <linearGradient id="linear-gradient-31" x1="-884.192" y1="-126.946" x2="-884.605" y2="-125.824" xlink:href="#linear-gradient"/>
    <linearGradient id="linear-gradient-32" x1="-2446.061" y1="-196.934" x2="-2444.921" y2="-196.934" xlink:href="#linear-gradient-4"/>
    <linearGradient id="linear-gradient-33" x1="-353.367" y1="-33.403" x2="-352.676" y2="-34.314" xlink:href="#linear-gradient"/>
    <linearGradient id="linear-gradient-34" x1="-772.639" y1="-168.968" x2="-773.882" y2="-165.509" xlink:href="#linear-gradient"/>
    <linearGradient id="linear-gradient-35" x1="-2084.435" y1="-207.33" x2="-2083.533" y2="-207.33" xlink:href="#linear-gradient-4"/>
    <linearGradient id="linear-gradient-36" x1="-285.38" y1="-26.389" x2="-285.35" y2="-27.366" xlink:href="#linear-gradient"/>
    <linearGradient id="linear-gradient-37" x1="-656.161" y1="-101.734" x2="-655.164" y2="-101.734" xlink:href="#linear-gradient-4"/>
    <linearGradient id="linear-gradient-38" x1="-1120.139" y1="-109.962" x2="-1119.022" y2="-109.962" xlink:href="#linear-gradient-4"/>
    <linearGradient id="linear-gradient-39" x1="-317.491" y1="45.018" x2="-318.736" y2="51.833" xlink:href="#linear-gradient-4"/>
    <linearGradient id="linear-gradient-40" x1="-849.149" y1="-426.148" x2="-850.244" y2="-424.835" xlink:href="#linear-gradient-4"/>
    <linearGradient id="linear-gradient-41" x1="-936.73" y1="-423.21" x2="-935.453" y2="-423.21" xlink:href="#linear-gradient"/>
    <linearGradient id="linear-gradient-42" x1="-2652.255" y1="-1585.013" x2="-2649.827" y2="-1587.693" xlink:href="#linear-gradient-4"/>
    <linearGradient id="linear-gradient-43" x1="319.328" y1="346.394" x2="318.588" y2="348.859" xlink:href="#linear-gradient"/>
    <linearGradient id="linear-gradient-44" x1="251.569" y1="0.134" x2="251.17" y2="0.8" xlink:href="#linear-gradient"/>
  </defs>
  <g id="Grupo_55522" data-name="Grupo 55522" transform="translate(-243 -9108)">
    <g id="CF1_empresa_copia_5" data-name="CF1_empresa copia 5" transform="translate(244.928 9108)">
      <rect id="Rectángulo_6444" data-name="Rectángulo 6444" width="300" height="300" fill="none"/>
      <circle id="Elipse_4476" data-name="Elipse 4476" cx="98.93" cy="98.93" r="98.93" transform="translate(-1.928 142.017) rotate(-45)" fill="#bdd0fb"/>
      <circle id="Elipse_4477" data-name="Elipse 4477" cx="84.43" cy="84.43" r="84.43" transform="translate(53.55 57.59)" fill="#9182ca"/>
      <path id="Trazado_111880" data-name="Trazado 111880" d="M138,230.68A88.66,88.66,0,1,1,226.63,142,88.66,88.66,0,0,1,138,230.68Zm0-173.09A84.43,84.43,0,1,0,222.4,142,84.43,84.43,0,0,0,138,57.59Z" fill="#fff"/>
      <circle id="Elipse_4478" data-name="Elipse 4478" cx="51.47" cy="51.47" r="51.47" transform="translate(76.051 180.284) rotate(-76.72)" fill="#9182ca"/>
      <path id="Trazado_111881" data-name="Trazado 111881" d="M138,197.72a55.7,55.7,0,1,1,55.7-55.7A55.7,55.7,0,0,1,138,197.72Zm0-102.94a47.24,47.24,0,1,0,47.22,47.227A47.24,47.24,0,0,0,138,94.78Z" fill="#fff"/>
      <circle id="Elipse_4479" data-name="Elipse 4479" cx="19.94" cy="19.94" r="19.94" transform="translate(113.981 156.839) rotate(-76.72)" fill="#ef2a66"/>
      <path id="Trazado_111882" data-name="Trazado 111882" d="M138,166.19A24.17,24.17,0,1,1,162.15,142,24.17,24.17,0,0,1,138,166.19Zm0-39.88A15.71,15.71,0,1,0,153.69,142,15.71,15.71,0,0,0,138,126.31Z" fill="#fff"/>
      <rect id="Rectángulo_6445" data-name="Rectángulo 6445" width="2.97" height="112.48" transform="translate(154.935 129.519) rotate(-135)" fill="url(#linear-gradient)"/>
      <path id="Trazado_111883" data-name="Trazado 111883" d="M154.32,122.35c1.2-1.2,6.88,4.48,5.68,5.68L138.93,144.6a.84.84,0,0,1-1.18-1.18Z" fill="url(#linear-gradient-2)"/>
      <path id="Trazado_111884" data-name="Trazado 111884" d="M234.42,50l10.7,1.06L230.43,65.78a22.66,22.66,0,0,1-18.3,6.54h0Z" fill="#91b3fa"/>
      <path id="Trazado_111885" data-name="Trazado 111885" d="M232.32,47.93l-1.06-10.7L216.57,51.92A22.72,22.72,0,0,0,210,70.22h0Z" fill="#91b3fa"/>
      <g id="Grupo_55493" data-name="Grupo 55493" opacity="0.3">
        <path id="Trazado_111886" data-name="Trazado 111886" d="M85.48,33.12a.76.76,0,0,1-1.08,0c-.59-.58-1.2-1.15-1.83-1.68a.77.77,0,0,1-.1-1.07h0a.77.77,0,0,1,1.08-.09c.66.56,1.31,1.15,1.92,1.77a.75.75,0,0,1,0,1Zm-6.16-4.06c-.7-.44-1.42-.86-2.15-1.23a.78.78,0,0,1-.33-1,.76.76,0,0,1,1-.32c.77.4,1.53.83,2.27,1.3a.76.76,0,0,1,.23,1.05.35.35,0,0,1-.05.08.77.77,0,0,1-.97.12Zm-5.85-2.83c-.77-.28-1.57-.52-2.37-.73a.775.775,0,1,1,.39-1.5c.84.22,1.68.47,2.49.76a.77.77,0,0,1,.47,1,.76.76,0,0,1-.13.23.77.77,0,0,1-.85.24Zm-6.33-1.46c-.82-.09-1.65-.15-2.47-.18a.75.75,0,0,1-.74-.78.76.76,0,0,1,.78-.75,22.741,22.741,0,0,1,2.61.19.76.76,0,0,1,.67.84.85.85,0,0,1-.16.4.77.77,0,0,1-.69.28Zm-6.49,0c-.82.09-1.65.22-2.46.38a.77.77,0,0,1-.29-1.51c.85-.16,1.72-.3,2.58-.39a.77.77,0,0,1,.68,1.24.79.79,0,0,1-.51.27ZM54.31,26.2c-.78.27-1.56.57-2.31.91a.77.77,0,0,1-1-.39.76.76,0,0,1,.39-1c.79-.36,1.61-.68,2.43-1a.76.76,0,0,1,1,.47.78.78,0,0,1-.13.74.84.84,0,0,1-.38.26ZM34.78,46.84a.76.76,0,0,1-.55-.93c.22-.84.48-1.68.77-2.5A.77.77,0,0,1,36,43a.76.76,0,0,1,.46,1c-.27.77-.52,1.57-.72,2.37a.69.69,0,0,1-.15.28.76.76,0,0,1-.81.19ZM48.45,29c-.7.44-1.39.91-2.05,1.4a.76.76,0,0,1-1.07-.15.77.77,0,0,1,.15-1.07c.7-.52,1.42-1,2.16-1.48a.768.768,0,0,1,.81,1.3ZM37,40.56a.76.76,0,0,1-.32-1c.4-.77.83-1.53,1.3-2.26a.76.76,0,0,1,1.08-.3.77.77,0,0,1,.23,1.06c-.44.69-.86,1.41-1.24,2.14a.57.57,0,0,1-.08.13A.77.77,0,0,1,37,40.56ZM43.36,33c-.58.58-1.15,1.19-1.68,1.82a.773.773,0,0,1-1.18-1h0c.56-.66,1.15-1.31,1.77-1.92a.77.77,0,0,1,1.13,1Z" fill="#91b3fa"/>
        <path id="Trazado_111887" data-name="Trazado 111887" d="M34.69,51.89a.74.74,0,0,0,.17-.43c0-.39.07-.79.11-1.19a.765.765,0,0,0-1.52-.17c-.05.42-.09.84-.12,1.25a.77.77,0,0,0,.71.82.75.75,0,0,0,.65-.28Z" fill="#91b3fa"/>
      </g>
      <g id="Grupo_55494" data-name="Grupo 55494" opacity="0.3">
        <path id="Trazado_111888" data-name="Trazado 111888" d="M42.2,74a.76.76,0,0,0,0-1c-.26-.29-.52-.6-.77-.9a.773.773,0,0,0-1.18,1c.26.32.54.64.81,1a.77.77,0,0,0,1.09.06Z" fill="#91b3fa"/>
        <path id="Trazado_111889" data-name="Trazado 111889" d="M86.58,74.05a.76.76,0,1,1-1.14-1c.53-.6,1-1.23,1.55-1.88a.758.758,0,1,1,1.22.9c-.22.28-.43.56-.65.83S86.91,73.68,86.58,74.05Zm2.87-5.18a.76.76,0,0,1-.29-1c.4-.71.77-1.44,1.11-2.18a.77.77,0,0,1,1-.38.78.78,0,0,1,.38,1c-.36.77-.75,1.54-1.17,2.29l-.07.11a.77.77,0,0,1-.96.16ZM83.59,77c-.65.55-1.33,1.08-2,1.58a.77.77,0,0,1-.89-1.25c.66-.47,1.31-1,1.93-1.5a.77.77,0,0,1,1.09,1.07A.94.94,0,0,1,83.59,77Zm8.58-14.1a.77.77,0,0,1-.51-1c.23-.77.43-1.57.6-2.36a.77.77,0,0,1,1.5.31c-.18.84-.39,1.68-.63,2.49a.87.87,0,0,1-.14.27.78.78,0,0,1-.82.29ZM78,80.72c-.76.39-1.54.76-2.33,1.09a.764.764,0,1,1-.59-1.41c.75-.32,1.49-.67,2.21-1a.76.76,0,0,1,1,.32.77.77,0,0,1-.08.84.91.91,0,0,1-.21.16Zm-6.27,2.44c-.82.22-1.67.41-2.51.56a.78.78,0,0,1-.89-.62.77.77,0,0,1,.62-.89c.8-.14,1.6-.32,2.38-.53a.77.77,0,0,1,.94.54.74.74,0,0,1-.14.68.85.85,0,0,1-.39.26Zm-6.65,1H62.51a.75.75,0,0,1-.73-.79.76.76,0,0,1,.79-.74h2.44a.77.77,0,0,1,.63,1.25.73.73,0,0,1-.55.29Zm-6.72-.46c-.84-.15-1.68-.34-2.5-.56a.77.77,0,0,1,.39-1.48c.79.21,1.59.39,2.38.54a.76.76,0,0,1,.62.89.67.67,0,0,1-.16.34.74.74,0,0,1-.72.28Zm-6.45-1.92c-.79-.33-1.57-.7-2.32-1.1a.76.76,0,0,1-.32-1,.75.75,0,0,1,1-.32,18.974,18.974,0,0,0,2.21,1,.76.76,0,0,1,.4,1,.72.72,0,0,1-.11.19.75.75,0,0,1-.85.24ZM46.05,78.5c-.51-.36-1-.75-1.5-1.14L44,76.92a.75.75,0,0,1-.09-1.08A.77.77,0,0,1,45,75.75l.49.42c.46.37,1,.74,1.43,1.08a.78.78,0,0,1,.18,1.07h0a.76.76,0,0,1-1.05.18Z" fill="#91b3fa"/>
        <path id="Trazado_111890" data-name="Trazado 111890" d="M94.16,56.17a.74.74,0,0,0,.17-.43,8.722,8.722,0,0,1,.06-1.25.77.77,0,1,0-1.53-.05q0,.6-.06,1.2a.76.76,0,0,0,.71.81A.75.75,0,0,0,94.16,56.17Z" fill="#91b3fa"/>
      </g>
      <path id="Trazado_111891" data-name="Trazado 111891" d="M85.55,46.27a.36.36,0,0,0-.3-.29l-4.32-.55a19.22,19.22,0,0,0-3.46-5.08l1.07-4.22a.34.34,0,0,0-.15-.38L74,32.88a.36.36,0,0,0-.41,0l-3.45,2.66a18.82,18.82,0,0,0-6-1.14L61.9,30.68a.36.36,0,0,0-.38-.17L56.4,31.57a.36.36,0,0,0-.28.31l-.55,4.32a18.94,18.94,0,0,0-5.08,3.45l-4.22-1.06a.34.34,0,0,0-.38.15L43,43.1a.36.36,0,0,0,0,.42L45.7,47a18.93,18.93,0,0,0-1.14,6l-3.75,2.23a.35.35,0,0,0-.16.38l1.06,5.11A.35.35,0,0,0,42,61l4.32.55a18.64,18.64,0,0,0,3.45,5.08L48.7,70.85a.39.39,0,0,0,.15.39l4.37,2.86a.36.36,0,0,0,.42,0l3.44-2.67a18.85,18.85,0,0,0,6,1.15l2.22,3.74a.36.36,0,0,0,.38.17l5.12-1.07a.35.35,0,0,0,.28-.3l.55-4.32a19.22,19.22,0,0,0,5.08-3.46L81,68.4a.36.36,0,0,0,.39-.15l2.86-4.37a.35.35,0,0,0,0-.41L81.56,60a19.23,19.23,0,0,0,1.15-6l3.74-2.23a.36.36,0,0,0,.16-.38Z" fill="#91b3fa"/>
      <path id="Trazado_111892" data-name="Trazado 111892" d="M67.18,57.36a5.25,5.25,0,0,1-8.79-4.09,5.18,5.18,0,0,1,1.69-3.64,5.25,5.25,0,0,1,7.63,7.17,5.519,5.519,0,0,1-.53.56Zm-7.57-4a4,4,0,1,0,1.3-2.79,4.12,4.12,0,0,0-.41.43,4,4,0,0,0-.89,2.32Z" fill="#bdd0fb"/>
      <path id="Trazado_111893" data-name="Trazado 111893" d="M73.53,61.66c.28-.35.54-.7.79-1.08h0l.22-.35a12.8,12.8,0,0,0,.93-1.85h0V58.3l.06-.14a.31.31,0,0,0-.09-.35h-.08a.31.31,0,0,0-.4.18,12.3,12.3,0,0,1-18.22,5.87,9.559,9.559,0,0,1-1-.75A12.289,12.289,0,0,1,70.22,43.29q.518.345,1,.74a12.29,12.29,0,0,1,3.32,4.18.44.44,0,0,0,.08.11.33.33,0,0,0,.33,0,.31.31,0,0,0,.14-.41,12.84,12.84,0,0,0-3.48-4.39,11.56,11.56,0,0,0-1.06-.78A12.91,12.91,0,0,0,55.37,63.52a11.7,11.7,0,0,0,1.07.78,12.92,12.92,0,0,0,17.09-2.64Z" fill="#bdd0fb"/>
      <g id="Grupo_55495" data-name="Grupo 55495" opacity="0.3">
        <path id="Trazado_111894" data-name="Trazado 111894" d="M117.65,25.47a.45.45,0,0,0,0-.56c-.23-.33-.47-.66-.71-1a.49.49,0,0,0-.67-.08.47.47,0,0,0-.08.66c.24.31.47.62.68.93a.47.47,0,0,0,.66.12.28.28,0,0,0,.12-.07Z" fill="#91b3fa"/>
        <path id="Trazado_111895" data-name="Trazado 111895" d="M115.29,22.72a.48.48,0,0,1-.67,0,18.7,18.7,0,0,0-1.48-1.33l-.32-.26a.47.47,0,0,1-.09-.66.5.5,0,0,1,.67-.08l.34.27a18.529,18.529,0,0,1,1.55,1.39.47.47,0,0,1,0,.63Zm-4.46-2.94a18.63,18.63,0,0,0-2.13-1.1.475.475,0,0,1,.38-.87A20.63,20.63,0,0,1,111.32,19a.47.47,0,0,1,.16.65v.05a.47.47,0,0,1-.65.08Zm-4.38-1.93a18.92,18.92,0,0,0-2.34-.55.47.47,0,0,1-.39-.54.48.48,0,0,1,.55-.39,20.71,20.71,0,0,1,2.45.57.48.48,0,0,1,.32.59.51.51,0,0,1-.09.16.47.47,0,0,1-.5.16Zm-4.73-.8a19.23,19.23,0,0,0-2.4.05.5.5,0,1,1-.07-1,21,21,0,0,1,2.51,0,.46.46,0,0,1,.45.49.48.48,0,0,1-.1.28A.46.46,0,0,1,101.72,17.05Zm-4.78.38a18.329,18.329,0,0,0-2.31.63.474.474,0,0,1-.3-.9,22.12,22.12,0,0,1,2.42-.65.46.46,0,0,1,.56.36.5.5,0,0,1-.09.4.46.46,0,0,1-.28.16ZM92.4,19a21.42,21.42,0,0,0-2.09,1.17.46.46,0,0,1-.65-.14.47.47,0,0,1,.14-.65A19.66,19.66,0,0,1,92,18.11a.48.48,0,0,1,.63.22.49.49,0,0,1-.06.51A.52.52,0,0,1,92.4,19Zm-4,2.6a18.071,18.071,0,0,0-1.74,1.65.474.474,0,0,1-.69-.65,21.26,21.26,0,0,1,1.82-1.73.48.48,0,0,1,.67.06.47.47,0,0,1,0,.6Zm-5.2,5.71a.48.48,0,0,1-.19-.64,21.293,21.293,0,0,1,1.16-1.86l.2-.27a.472.472,0,0,1,.76.56l-.18.26a18.08,18.08,0,0,0-1.11,1.77v.06a.46.46,0,0,1-.66.08Z" fill="#91b3fa"/>
      </g>
      <g id="Grupo_55496" data-name="Grupo 55496" opacity="0.3">
        <path id="Trazado_111896" data-name="Trazado 111896" d="M116.54,49.59a19.15,19.15,0,0,1-1.69,1.8.474.474,0,0,1-.65-.69,20.32,20.32,0,0,0,1.62-1.7.46.46,0,0,1,.66-.06.47.47,0,0,1,.07.66Zm.82-1.86a.47.47,0,0,1-.14-.65A19.791,19.791,0,0,0,118.38,45a.474.474,0,0,1,.85.42A19.8,19.8,0,0,1,118,47.59h0a.47.47,0,0,1-.64.14ZM113,53a20,20,0,0,1-2.09,1.34.47.47,0,1,1-.46-.82,19.189,19.189,0,0,0,2-1.28.48.48,0,0,1,.66.1.47.47,0,0,1,0,.58A.3.3,0,0,1,113,53Zm6.63-9.53a.47.47,0,0,1-.3-.6,17.891,17.891,0,0,0,.63-2.28.48.48,0,0,1,.56-.36.47.47,0,0,1,.37.56,19.65,19.65,0,0,1-.66,2.39.64.64,0,0,1-.08.14.47.47,0,0,1-.57.12Zm-10.94,12a21,21,0,0,1-2.35.8.472.472,0,1,1-.25-.91,21.861,21.861,0,0,0,2.24-.76.47.47,0,0,1,.54.73.42.42,0,0,1-.23.06Zm-4.77,1.31a20.25,20.25,0,0,1-2.46.22.5.5,0,0,1,0-1,20.5,20.5,0,0,0,2.35-.2.47.47,0,0,1,.44.76.48.48,0,0,1-.38.14Zm-4.94.14a20.471,20.471,0,0,1-2.45-.39.47.47,0,0,1-.36-.56.49.49,0,0,1,.57-.36,18.21,18.21,0,0,0,2.33.36.49.49,0,0,1,.43.52.44.44,0,0,1-.11.25.48.48,0,0,1-.46.1Z" fill="#91b3fa"/>
        <path id="Trazado_111897" data-name="Trazado 111897" d="M121.1,38.55a.5.5,0,0,0,.11-.26c0-.4.06-.81.07-1.21a.5.5,0,1,0-1,0,7.454,7.454,0,0,1-.06,1.15.46.46,0,0,0,.43.51.48.48,0,0,0,.45-.19Z" fill="#91b3fa"/>
      </g>
      <path id="Trazado_111898" data-name="Trazado 111898" d="M115.4,31.58a.25.25,0,0,0-.2-.19L112.31,31A12.69,12.69,0,0,0,110,27.63l.72-2.83a.26.26,0,0,0-.1-.26l-2.92-1.91a.24.24,0,0,0-.28,0l-2.31,1.78a12.85,12.85,0,0,0-4-.77l-1.49-2.5a.23.23,0,0,0-.25-.11l-3.42.71a.23.23,0,0,0-.19.2l-.37,2.89a12.9,12.9,0,0,0-3.4,2.32l-2.82-.72a.25.25,0,0,0-.26.1l-1.92,2.93a.24.24,0,0,0,0,.27l1.79,2.31a12.31,12.31,0,0,0-.77,4l-2.5,1.49a.23.23,0,0,0-.12.25l.72,3.42a.23.23,0,0,0,.2.19l2.89.37a12.55,12.55,0,0,0,2.31,3.4L90.76,48a.22.22,0,0,0,.1.26l2.92,1.92a.26.26,0,0,0,.28,0l2.3-1.78a12.61,12.61,0,0,0,4,.76l1.49,2.51a.27.27,0,0,0,.26.11l3.42-.71a.27.27,0,0,0,.19-.21l.37-2.89a12.86,12.86,0,0,0,3.4-2.31l2.82.71a.23.23,0,0,0,.26-.1l1.91-2.92a.23.23,0,0,0,0-.28l-1.78-2.3a12.9,12.9,0,0,0,.77-4l2.5-1.49a.24.24,0,0,0,.11-.26Z" fill="#91b3fa"/>
      <path id="Trazado_111899" data-name="Trazado 111899" d="M103.15,39.05a3.52,3.52,0,0,1-2.57.94,3.58,3.58,0,1,1,2.94-1.33,3.41,3.41,0,0,1-.37.39ZM98.8,38.2a2.59,2.59,0,0,0,1.82.85,2.62,2.62,0,0,0,1.89-.69h0a2.63,2.63,0,0,0,.85-1.83,2.6,2.6,0,0,0-.69-1.89A2.64,2.64,0,0,0,99,34.48a3.451,3.451,0,0,0-.26.28A2.63,2.63,0,0,0,98.8,38.2Z" fill="#bdd0fb"/>
      <path id="Trazado_111900" data-name="Trazado 111900" d="M107.57,42a8.108,8.108,0,0,0,.54-.73,9.08,9.08,0,0,0,.83-1.61v-.08a.45.45,0,0,0-.14-.53.57.57,0,0,0-.13-.08.48.48,0,0,0-.61.27,7.67,7.67,0,0,1-.77,1.51h0a.35.35,0,0,0,0,.08,8.06,8.06,0,0,1-2.9,2.61,8.69,8.69,0,0,1-2,.73h-.07a7.89,7.89,0,0,1-6-1.14,6.72,6.72,0,0,1-.67-.48A7.933,7.933,0,1,1,107.82,33a.76.76,0,0,0,.13.17.47.47,0,0,0,.51.05.48.48,0,0,0,.22-.63,8.87,8.87,0,0,0-2.41-3,8,8,0,0,0-.73-.53A8.9,8.9,0,0,0,95,43.33a5.6,5.6,0,0,0,.74.54A8.91,8.91,0,0,0,107.57,42Z" fill="#bdd0fb"/>
      <path id="Trazado_111901" data-name="Trazado 111901" d="M60,265.35s-.53,2.86-.81,5.69A2,2,0,0,0,61,273.17c3.77.19,11.83.57,14.72.47a.64.64,0,0,0,.57-.86,1.48,1.48,0,0,0-.72-.78l-13.26-6.24Z" fill="url(#linear-gradient-3)"/>
      <path id="Trazado_111902" data-name="Trazado 111902" d="M59.57,263.67l.37,3.42s2.33,1.11,3.93-.1l-.93-3.82Z" fill="url(#linear-gradient-4)"/>
      <path id="Trazado_111903" data-name="Trazado 111903" d="M60.49,199.37c-.18.89-1.37,44.56,3.12,64.18a.68.68,0,0,1-.4.77,11.45,11.45,0,0,1-3.81.74,1.15,1.15,0,0,1-1.13-.84c-1.29-4.55-7.47-27.36-8.09-49.11-.7-24.29,0-.82,0-.82l.69-15Z" fill="url(#linear-gradient-5)"/>
      <path id="Trazado_111904" data-name="Trazado 111904" d="M44.64,266.7A20.46,20.46,0,0,0,43,272a1.2,1.2,0,0,0,1,1.44c1.24.13,3.15.31,4.69.31a1.19,1.19,0,0,0,1.19-1.31,10.06,10.06,0,0,0-2.29-5.51Z" fill="url(#linear-gradient-6)"/>
      <path id="Trazado_111905" data-name="Trazado 111905" d="M44,262.29l.9,5.18a3.33,3.33,0,0,0,2.79.22l-.4-5.57Z" fill="url(#linear-gradient-7)"/>
      <path id="Trazado_111906" data-name="Trazado 111906" d="M42,200.54c-4,23,.28,57,1.79,63.61a1,1,0,0,0,.83.8,6.94,6.94,0,0,0,3-.09.94.94,0,0,0,.69-.87c.26-5.36.2-38.31,3.88-51.3a3,3,0,0,1,1.16-1.62l7-4.84.61-7.93Z" fill="url(#linear-gradient-8)"/>
      <path id="Trazado_111907" data-name="Trazado 111907" d="M66.75,157.11c-11.45-.3-24.1,2.77-24.1,2.77-3.6,19.87-1,42.85-1,42.85,8.84,2.41,18.87-1.24,18.87-1.24,1.55-8.3,8.64-31.65,8.64-31.65a37.87,37.87,0,0,0,14-4.3,24.57,24.57,0,0,1-4.76-10.19A38.74,38.74,0,0,1,66.75,157.11Z" fill="#f9aac2"/>
      <path id="Trazado_111908" data-name="Trazado 111908" d="M100.71,140.57a2.19,2.19,0,0,0-2.54-.74c-1.75,7.1-10.64,12.78-19.74,15.52a24.57,24.57,0,0,0,4.76,10.19C98.32,157.22,100.71,140.57,100.71,140.57Z" fill="url(#linear-gradient-9)"/>
      <path id="Trazado_111909" data-name="Trazado 111909" d="M100.43,140.92c.11.37-1.25.93-2-.61,0-.73-.44-3.88,0-4.47a58.112,58.112,0,0,1,6.92-7.1,1.08,1.08,0,0,1,.12,1.5l-2.22,2.26a10.21,10.21,0,0,1,1.26,2.54,3.07,3.07,0,0,1-.33,2.26,25.191,25.191,0,0,1-1.43,2.29,3,3,0,0,1-2.32,1.33Z" fill="url(#linear-gradient-10)"/>
      <path id="Trazado_111910" data-name="Trazado 111910" d="M102.25,134l-2,1.68-.65,1.68,1.77,2a23.11,23.11,0,0,1,1.08-4.06C102.89,134.54,102.66,134.19,102.25,134Z" fill="url(#linear-gradient-11)"/>
      <path id="Trazado_111911" data-name="Trazado 111911" d="M46.93,171l-4.28-11.12S31.89,167,30.05,176.23a25.36,25.36,0,0,1,9.26,2.58C40.14,174.47,46.93,171,46.93,171Z" fill="#f9aac2"/>
      <path id="Trazado_111912" data-name="Trazado 111912" d="M56.17,181.52s-12.06,6.67-16.06.84a4.56,4.56,0,0,1-.8-3.55,25.36,25.36,0,0,0-9.26-2.58A12.71,12.71,0,0,0,31.34,185c7,13,26.39-.47,26.39-.47Z" fill="url(#linear-gradient-12)"/>
      <path id="Trazado_111913" data-name="Trazado 111913" d="M55.24,147.71,51.5,158.2a.39.39,0,0,0,.17.46,8.55,8.55,0,0,0,8.88-.51,1.77,1.77,0,0,0,.84-1.27l1.26-9.1Z" fill="url(#linear-gradient-13)"/>
      <path id="Trazado_111914" data-name="Trazado 111914" d="M63.26,138s3.93,7.56,3.38,10.6-5.49,2.77-9.79.26l-3-8.16Z" fill="url(#linear-gradient-14)"/>
      <path id="Trazado_111915" data-name="Trazado 111915" d="M57.08,144.9a.31.31,0,0,0,.13-.45,8.26,8.26,0,0,1-1.08-2.38s-.72-.46,1.83-1,6.37-1.49,7.19-3.66-1.2-7.44-4.5-3.23a.31.31,0,0,1-.5,0,3.19,3.19,0,0,0-3.88-1.3,2.93,2.93,0,0,0-2,2.82.31.31,0,0,1-.37.31,3.57,3.57,0,0,0-4.2,1.91c-.87,1.86-.32,2.93.17,3.45a.3.3,0,0,1-.13.51A1.88,1.88,0,0,0,48.4,144c.09,2,2.3,1.81,2.92,1.73a.3.3,0,0,1,.28.1c.53.6,2.92,3.14,5.54,3.47a.31.31,0,0,0,.33-.41l-1.1-3.3a.32.32,0,0,1,.17-.39Z" fill="url(#linear-gradient-15)"/>
      <path id="Trazado_111916" data-name="Trazado 111916" d="M57.53,145.37s-2.83-2-3.06-.34,2.55,2.41,3.92,1.81Z" fill="url(#linear-gradient-16)"/>
      <path id="Trazado_111917" data-name="Trazado 111917" d="M53.71,192.05l6.57-23a.66.66,0,0,1,.57-.48c1.19-.14,4.64-.53,8.62-.87a98.656,98.656,0,0,1,13.7-.45.67.67,0,0,1,.55,1c-1.89,3.83-9.68,19.41-13.58,24.52a.65.65,0,0,1-.54.26l-15.25-.14a.67.67,0,0,1-.64-.84Z" fill="url(#linear-gradient-17)"/>
      <path id="Trazado_111918" data-name="Trazado 111918" d="M55.29,186.51s-.91-3.77-.54-5.1,1.08-3,3.47-2.67a35.3,35.3,0,0,1,5.2,1.38,1.37,1.37,0,0,1-2,1.18l1.13.87s-.16,1.4-1.7.65l1,1.15a1.22,1.22,0,0,1-1.78.42C59,183.65,58.49,187,55.29,186.51Z" fill="url(#linear-gradient-18)"/>
      <path id="Trazado_111919" data-name="Trazado 111919" d="M69,174.61a1.94,1.94,0,1,0,.593-1.387A1.93,1.93,0,0,0,69,174.61Z" fill="#91b3fa"/>
      <path id="Trazado_111920" data-name="Trazado 111920" d="M61,175.88l1.34-4.54a1.54,1.54,0,0,1,1.17-1.09c4.19-.88,15.67-1.06,15.79-1.07v-.51c-.47,0-11.64.19-15.88,1.07a2.07,2.07,0,0,0-1.56,1.45l-1.34,4.54Z" fill="#bdd0fb"/>
      <path id="Trazado_111921" data-name="Trazado 111921" d="M231.84,141.74a.43.43,0,0,1,.8.09c.39,1.4,1.33,3.85,3.31,4.72l.29.13a1,1,0,0,0-.13-.91c-.61-.94.5-2.22.5-2.22a2.84,2.84,0,0,0,.93,1.84,2.75,2.75,0,0,1,.59,3.1c-1.07,4.16-2.67,9.67,3.58,13.69s15-7.59,15-7.59l-4.37,13.84s-6.74,5-14.59-2-2.64-17.17-2.64-17.17S229.18,146.83,231.84,141.74Z" fill="url(#linear-gradient-19)"/>
      <path id="Trazado_111922" data-name="Trazado 111922" d="M257.85,134.24s-1.81-8.12,7.49-6c0,0,4.52-.74,4.75,3.53,0,0,2.91,1.91.78,5.6,0,0,8.65-3.34,12.42,4.24s.3,11.76-3.33,12.84a3.63,3.63,0,0,1,1.55,4.82c-1.4,3.33-8.45,5.68-12.62,1.63,0,0-11.85,1.56-11.61-6.81,0,0-5.52-3.56.27-10.48S257.85,134.24,257.85,134.24Z" fill="url(#linear-gradient-20)"/>
      <path id="Trazado_111923" data-name="Trazado 111923" d="M257.34,153.07a12.75,12.75,0,0,1,12.49,3.18,3.2,3.2,0,0,1,.92,3.19c-1.39,5.12-5.06,20.25-1.84,26.79,0,0-5.67,6.25-11.85,1.21,0,0-2.78-12.09-6.41-17.4-2.51-3.66,4-13.76,5.64-16.2a1.89,1.89,0,0,1,1.05-.77Z" fill="#f9aac2"/>
      <path id="Trazado_111924" data-name="Trazado 111924" d="M262.5,142.9s2.76,7.82,3,11.27a5.93,5.93,0,0,1-5.93-1s-.3-7.81-.74-9.21Z" fill="url(#linear-gradient-21)"/>
      <path id="Trazado_111925" data-name="Trazado 111925" d="M258.66,132.23s-7.23,10.12-2.91,13.06,9.47-4.25,9.47-4.25,1.68-5.54-.08-7.42S258.66,132.23,258.66,132.23Z" fill="url(#linear-gradient-22)"/>
      <path id="Trazado_111926" data-name="Trazado 111926" d="M262,129.82s-3.32.78-3.79,2.29,4.71,2.89,6.16,3l1.17,6.07s3.45-5.71,2.09-9S262,129.82,262,129.82Z" fill="url(#linear-gradient-23)"/>
      <path id="Trazado_111927" data-name="Trazado 111927" d="M263.82,140.3s2.81-3.26,3.93-1.14-2.53,3.72-3.79,2.68Z" fill="url(#linear-gradient-24)"/>
      <path id="Trazado_111928" data-name="Trazado 111928" d="M249.84,212.83c0,.55-1,4.91-1.47,7.23a3.83,3.83,0,0,0,.41,2.75L267,253.38a4.25,4.25,0,0,1,.48,1.19,26.37,26.37,0,0,1,.66,8.15l-.94,2,4.06-.93.89-10.91-1.15-.7a5.47,5.47,0,0,1-2.21-2.59c-1.65-4-5.73-14.15-6.78-19.1-1.19-5.63-7.44-10.2-7.44-10.2l1.1-2.59Z" fill="url(#linear-gradient-25)"/>
      <path id="Trazado_111929" data-name="Trazado 111929" d="M275.73,260s-2.19-3.48-2.45-4.84-1-3.75-2.33-3a79.27,79.27,0,0,0-.42,9.15c.22,2.57-2.91,2.49-2.91,2.49a2.91,2.91,0,0,0-1.49.75.73.73,0,0,0,.49,1.23,18,18,0,0,0,4.36-.25,1.33,1.33,0,0,0,1.07-1.23l.45-7.57,2.77,3.5Z" fill="url(#linear-gradient-26)"/>
      <path id="Trazado_111930" data-name="Trazado 111930" d="M260.69,217.71s.64,27.35.73,31.23-.62,12.49-4.51,15.07l1.69,1.25a22.659,22.659,0,0,0,4.19-5.26,31.088,31.088,0,0,1,3-4.6l-.77-1.58a3.51,3.51,0,0,1-.29-2.23c.84-4.07,3.65-17.62,4.42-20.54A13.14,13.14,0,0,0,267,219.16C263.86,215.31,260.69,217.71,260.69,217.71Z" fill="url(#linear-gradient-27)"/>
      <path id="Trazado_111931" data-name="Trazado 111931" d="M264.29,266.49a.23.23,0,0,0,.24-.2,34.272,34.272,0,0,1,1.11-5.51c.5-1.09,2.15-5.65,0-6,0,0-5.37,7.84-6.4,8.9a2,2,0,0,1-2.33.37,3.84,3.84,0,0,0-1.76,1.26.71.71,0,0,0,.56,1.14h3.61a2.56,2.56,0,0,0,2.39-1.6c.63-1.59,1.73-3.92,3-5l-.66,6.34a.23.23,0,0,0,.24.26Z" fill="url(#linear-gradient-28)"/>
      <path id="Trazado_111932" data-name="Trazado 111932" d="M256.2,184.49s.81,2.6-.44,6.88L248,218.47a.84.84,0,0,0,.53,1A51.59,51.59,0,0,0,268.9,222a1.18,1.18,0,0,0,1.1-1c.68-3.09,3-13.63,3.51-15.8,1.84-8.25,3.89-17.15-5.14-22.54C264.19,184.49,260.31,185.54,256.2,184.49Z" fill="url(#linear-gradient-29)"/>
      <path id="Trazado_111933" data-name="Trazado 111933" d="M270.57,157.27s8.83,7.34,11,17.37-12.9,11.09-12.9,11.09-2.05-2.28-4.49-1.47-.18-4,2.66-4,1.53,2.26,5.56.44,6.35-7.27-3.66-15.6a4.63,4.63,0,0,1-1.33-1.8C265.49,158.42,267,155.21,270.57,157.27Z" fill="url(#linear-gradient-30)"/>
      <rect id="Rectángulo_6446" data-name="Rectángulo 6446" width="3.15" height="34.07" transform="translate(212.15 232.2)" fill="#7d97f4"/>
      <path id="Trazado_111934" data-name="Trazado 111934" d="M227.52,266.93H199.93v-1.82a.23.23,0,0,1,.23-.23H227.3a.22.22,0,0,1,.22.23Z" fill="#7d97f4"/>
      <rect id="Rectángulo_6447" data-name="Rectángulo 6447" width="36.87" height="10.46" rx="3.6" transform="translate(195.87 224.09)" fill="#7d97f4"/>
      <path id="Trazado_111935" data-name="Trazado 111935" d="M185.8,255.93s-10.18,4.38-9.6,9c0,0,10.53-2,12.41-5s.85-4.75.85-4.75Z" fill="url(#linear-gradient-31)"/>
      <path id="Trazado_111936" data-name="Trazado 111936" d="M188.3,250.91l.52,4.47a1.49,1.49,0,0,1-.94,1.57,3.67,3.67,0,0,1-1.29.2,1.72,1.72,0,0,1-1.67-1.26l-1-3.61Z" fill="url(#linear-gradient-32)"/>
      <path id="Trazado_111937" data-name="Trazado 111937" d="M210.55,216.64s-18.74-.87-28.06,4.57.48,31.52.48,31.52,2.43.52,5.94-1.35c0,0-5-19.1,3.68-22.42a50,50,0,0,1,19.88-2.83l-1.87-8.9Z" fill="url(#linear-gradient-33)"/>
      <path id="Trazado_111938" data-name="Trazado 111938" d="M178.25,262.89c2.13-.47,8.45-3.09,9.41-3.05s2.31,1.47,2.31,1.47a2.54,2.54,0,0,1-.45,1.92,17.8,17.8,0,0,1-9.21,3.85,6.84,6.84,0,0,1-5.83-2.16,8.3,8.3,0,0,1,3.77-2.03Z" fill="url(#linear-gradient-34)"/>
      <path id="Trazado_111939" data-name="Trazado 111939" d="M180.31,267.08a17.8,17.8,0,0,0,9.21-3.85,7.88,7.88,0,0,1-3,2.61c-4.11,2.33-10.92,2-12.27,1.47-1.08-.42-.75-1.43.24-2.39A6.84,6.84,0,0,0,180.31,267.08Z" fill="#9182ca"/>
      <path id="Trazado_111940" data-name="Trazado 111940" d="M192.21,259a15.381,15.381,0,0,1-2.49,3,1.69,1.69,0,0,1-1.58.47,4.33,4.33,0,0,1-1.13-.39,1.11,1.11,0,0,1-.43-1.5l2.18-4Z" fill="url(#linear-gradient-35)"/>
      <path id="Trazado_111941" data-name="Trazado 111941" d="M229.11,215.07s1.63,11.59-3.09,14S210.92,233,207.35,239s-10,17.83-15.82,21.22c0,0-3.34-1.08-4.31-2.72,0,0,6.93-18.22,9.82-22.64,2.5-3.84,6.16-9.36,11.36-11.75,1.49-.68,1.61-2.26,1.34-3.88l-.47-2.94Z" fill="url(#linear-gradient-36)"/>
      <path id="Trazado_111942" data-name="Trazado 111942" d="M185.29,201.92c6.63,1.89,9.6-16.76,9.57-17.22L205,196.58s-6.05,10.66-15.19,11.79a10.76,10.76,0,0,1-5.94-.87A9.42,9.42,0,0,0,185.29,201.92Z" fill="#f9aac2"/>
      <path id="Trazado_111943" data-name="Trazado 111943" d="M173,195.81c2.89-1.19,5.34,1.18,5.34,1.18,2.86,2.93,5.13,4.41,6.93,4.93a9.42,9.42,0,0,1-1.4,5.58,14.76,14.76,0,0,1-6.51-6.59,1.23,1.23,0,0,0-1.63-.56c-.61.3-1.24.75-1.28,1.37-.08,1.2-1.52,1.28-1.53.83a17.747,17.747,0,0,1,1.11-2.84s-3.31,2.13-4.61,2.95a1.91,1.91,0,0,1-2.39-.53S170.13,197,173,195.81Z" fill="url(#linear-gradient-37)"/>
      <path id="Trazado_111944" data-name="Trazado 111944" d="M226.56,177s-8.91-6.08-30.42,4.91a7.028,7.028,0,0,0-1.18,6c1.04,3.19,13.81,20.3,14.31,28.35,0,0,8.73,5.13,20.06,0C229.33,216.3,233.13,195.06,226.56,177Z" fill="#f9aac2"/>
      <path id="Trazado_111945" data-name="Trazado 111945" d="M208,169.26l3.52,6.89a2,2,0,0,1-.2,2.12,5.61,5.61,0,0,1-6.45,1.79,3,3,0,0,1-2.06-2.19l-1.82-7.7Z" fill="url(#linear-gradient-38)"/>
      <path id="Trazado_111946" data-name="Trazado 111946" d="M233.15,201.11c.6-4.19-10.47-12.32-10.47-12.32L226.56,177s21.14,15.08,16.69,27.4a8.62,8.62,0,0,1-2.75,4C238.27,203.81,235.23,201.9,233.15,201.11Z" fill="#f9aac2"/>
      <path id="Trazado_111947" data-name="Trazado 111947" d="M217.7,202.27s12.53,3.5,15.13-.31a2,2,0,0,0,.32-.85c2.08.79,5.12,2.7,7.35,7.29-5.95,4.68-17.42-.57-20.54-2.14a2.2,2.2,0,0,0-1.65-.14,15.251,15.251,0,0,1-4.1.83c-1.56-.09-3.24,5.57-5.91,4.14C208.3,211.09,209.51,201.42,217.7,202.27Z" fill="url(#linear-gradient-39)"/>
      <path id="Trazado_111948" data-name="Trazado 111948" d="M203.5,158c-.11.09-4.76,8.2-7.12,12.34a2.43,2.43,0,0,0,1.16,3.44l1,.44c1.4.59,4.41,1.1,5.59.14l7.46-7.88S206,155.81,203.5,158Z" fill="url(#linear-gradient-40)"/>
      <path id="Trazado_111949" data-name="Trazado 111949" d="M213.72,164.32a2.41,2.41,0,0,0,1.16-3.39,3.39,3.39,0,0,0-3.7-1.92.93.93,0,0,1-1-.67.72.72,0,0,0-.65-.52.92.92,0,0,1-.72-1.15,2.76,2.76,0,0,0-1.38-3.31c-2.84-1.72-5.49.78-6.23,2.95s2.44,3.86,4.48,4.2c1.54.27,2.3,2.05,2.57,2.89a.89.89,0,0,1-.11.79l-2.27,3.45a27.643,27.643,0,0,1,1.72,2.45l.53-.53c1-.9,2.73-.44,3.46-.19a.92.92,0,0,0,.71-.05,2.41,2.41,0,0,0,1.08-3.71.92.92,0,0,1,.35-1.29Z" fill="url(#linear-gradient-41)"/>
      <path id="Trazado_111950" data-name="Trazado 111950" d="M206.78,171.57s1.45-3.73,3.1-3.52,2.88,1.91.75,3.67C208,173.92,206.78,171.57,206.78,171.57Z" fill="url(#linear-gradient-42)"/>
      <path id="Trazado_111951" data-name="Trazado 111951" d="M201.69,210.25H172.35a1.31,1.31,0,1,1,0-2.62h29.28a1.32,1.32,0,0,1,1.31,1.32,1.3,1.3,0,0,1-1.25,1.3Z" fill="url(#linear-gradient-43)"/>
      <path id="Trazado_111952" data-name="Trazado 111952" d="M146,183.67h24.38a4.63,4.63,0,0,1,4.2,2.67l11.28,23.9h-30.3a2.82,2.82,0,0,1-2.63-1.79l-8.74-22.12a1.94,1.94,0,0,1,1.81-2.66Z" fill="url(#linear-gradient-44)"/>
      <path id="Trazado_111953" data-name="Trazado 111953" d="M163.21,195.93c.52,1.64.13,3.23-.88,3.56s-2.25-.75-2.78-2.39-.14-3.23.87-3.56S162.68,194.28,163.21,195.93Z" fill="#91b3fa"/>
      <path id="Trazado_111954" data-name="Trazado 111954" d="M150,273.05a1.15,1.15,0,0,1-.48-.1,1.17,1.17,0,0,1-.65-1.56l25.81-58.08a1.24,1.24,0,0,1,1.61-.62,1.19,1.19,0,0,1,.65,1.57l-25.81,58.07a1.23,1.23,0,0,1-1.13.72Z" fill="#91b3fa"/>
      <path id="Trazado_111955" data-name="Trazado 111955" d="M179.05,273.05a1.23,1.23,0,0,1-1.13-.72l-25.8-58.07a1.18,1.18,0,0,1,.64-1.57,1.25,1.25,0,0,1,1.62.62l25.8,58.08a1.17,1.17,0,0,1-.64,1.56A1.23,1.23,0,0,1,179.05,273.05Z" fill="#91b3fa"/>
      <path id="Trazado_111956" data-name="Trazado 111956" d="M229.85,273.05a1.22,1.22,0,0,1-1.13-1.66l25.81-58.08a1.24,1.24,0,0,1,1.61-.62,1.18,1.18,0,0,1,.65,1.57L231,272.33a1.23,1.23,0,0,1-1.15.72Z" fill="#91b3fa"/>
      <path id="Trazado_111957" data-name="Trazado 111957" d="M258.92,273.05a1.24,1.24,0,0,1-1.13-.72L232,214.26a1.18,1.18,0,0,1,.64-1.57,1.25,1.25,0,0,1,1.62.62l25.8,58.08a1.17,1.17,0,0,1-.64,1.56,1.23,1.23,0,0,1-.5.1Z" fill="#91b3fa"/>
      <path id="Trazado_111958" data-name="Trazado 111958" d="M262,211.52a1.4,1.4,0,0,0-.25-1.07,1.11,1.11,0,0,0-.89-.48H143.42a1.3,1.3,0,0,0-1.12.69,1.65,1.65,0,0,0-.09,1.44l1.27,3.08a1.77,1.77,0,0,0,1.62,1.16H260a1.4,1.4,0,0,0,1.33-1.23Z" fill="#91b3fa"/>
    </g>
  </g>
</svg>
