<svg xmlns="http://www.w3.org/2000/svg" xmlns:xlink="http://www.w3.org/1999/xlink" width="1235.98" height="490" viewBox="0 0 1235.98 490">
  <defs>
    <linearGradient id="linear-gradient" x1="1.13" y1="1.295" x2="0.236" y2="0.19" gradientUnits="objectBoundingBox">
      <stop offset="0" stop-color="#dae3fe"/>
      <stop offset="1" stop-color="#e9effd"/>
    </linearGradient>
    <linearGradient id="linear-gradient-2" x1="-0.011" y1="1.078" x2="1.49" y2="-0.548" gradientUnits="objectBoundingBox">
      <stop offset="0" stop-color="#120c2a"/>
      <stop offset="1" stop-color="#472ea6"/>
    </linearGradient>
    <linearGradient id="linear-gradient-3" y1="0.5" x2="1" y2="0.5" gradientUnits="objectBoundingBox">
      <stop offset="0" stop-color="#4f52ff"/>
      <stop offset="1" stop-color="#4042e2"/>
    </linearGradient>
    <linearGradient id="linear-gradient-4" x1="-25.934" y1="98.351" x2="-28.958" y2="101.995" xlink:href="#linear-gradient-2"/>
    <linearGradient id="linear-gradient-5" x1="-8.782" y1="158.469" x2="-9.86" y2="164.375" xlink:href="#linear-gradient-2"/>
    <linearGradient id="linear-gradient-6" x1="1.231" y1="-17.733" x2="0.86" y2="-8.475" xlink:href="#linear-gradient-2"/>
    <linearGradient id="linear-gradient-7" x1="1.653" y1="-1.03" x2="0.017" y2="1.142" xlink:href="#linear-gradient-2"/>
    <linearGradient id="linear-gradient-8" x1="-0.565" y1="2.702" x2="1.136" y2="-0.815" xlink:href="#linear-gradient-3"/>
    <linearGradient id="linear-gradient-9" x1="-1.041" y1="2.887" x2="3.054" y2="-3.455" xlink:href="#linear-gradient-3"/>
    <linearGradient id="linear-gradient-10" x1="-1.772" y1="4.017" x2="2.322" y2="-2.325" xlink:href="#linear-gradient-3"/>
    <linearGradient id="linear-gradient-11" x1="-2.472" y1="5.104" x2="1.623" y2="-1.239" xlink:href="#linear-gradient-3"/>
    <linearGradient id="linear-gradient-12" x1="1.755" y1="-2.638" x2="0.3" y2="1.001" gradientUnits="objectBoundingBox">
      <stop offset="0" stop-color="#f9aac2"/>
      <stop offset="1" stop-color="#f25585"/>
    </linearGradient>
    <linearGradient id="linear-gradient-13" x1="-0.555" y1="2.134" x2="3.54" y2="-4.209" xlink:href="#linear-gradient-3"/>
    <linearGradient id="linear-gradient-14" x1="-1.286" y1="3.264" x2="2.808" y2="-3.079" xlink:href="#linear-gradient-3"/>
    <linearGradient id="linear-gradient-15" x1="-1.986" y1="4.35" x2="2.109" y2="-1.992" xlink:href="#linear-gradient-3"/>
    <linearGradient id="linear-gradient-16" x1="-2.715" y1="5.48" x2="1.38" y2="-0.862" xlink:href="#linear-gradient-3"/>
    <linearGradient id="linear-gradient-17" x1="-0.126" y1="1.467" x2="3.969" y2="-4.875" xlink:href="#linear-gradient-3"/>
    <linearGradient id="linear-gradient-18" x1="-0.856" y1="2.597" x2="3.239" y2="-3.745" xlink:href="#linear-gradient-3"/>
    <linearGradient id="linear-gradient-19" x1="-1.555" y1="3.683" x2="2.54" y2="-2.659" xlink:href="#linear-gradient-3"/>
    <linearGradient id="linear-gradient-20" x1="0.347" y1="0.735" x2="4.442" y2="-5.608" xlink:href="#linear-gradient-3"/>
    <linearGradient id="linear-gradient-21" x1="-0.383" y1="1.865" x2="3.712" y2="-4.478" xlink:href="#linear-gradient-3"/>
    <linearGradient id="linear-gradient-22" x1="-1.082" y1="2.951" x2="3.012" y2="-3.392" xlink:href="#linear-gradient-3"/>
    <linearGradient id="linear-gradient-23" x1="-0.184" y1="1.294" x2="0.487" y2="0.516" gradientUnits="objectBoundingBox">
      <stop offset="0" stop-color="#e1473d"/>
      <stop offset="1" stop-color="#e9605a"/>
    </linearGradient>
    <linearGradient id="linear-gradient-24" x1="0.878" y1="-0.071" x2="-1.173" y2="3.028" xlink:href="#linear-gradient-12"/>
    <linearGradient id="linear-gradient-25" x1="1.302" y1="-0.303" x2="-1.591" y2="2.556" xlink:href="#linear-gradient-12"/>
    <linearGradient id="linear-gradient-27" x1="0.878" y1="-0.071" x2="-1.173" y2="3.028" xlink:href="#linear-gradient-12"/>
    <linearGradient id="linear-gradient-28" x1="1.304" y1="-0.302" x2="-1.589" y2="2.557" xlink:href="#linear-gradient-12"/>
    <linearGradient id="linear-gradient-31" x1="1.306" y1="-0.302" x2="-1.591" y2="2.557" xlink:href="#linear-gradient-12"/>
    <linearGradient id="linear-gradient-32" x1="-0.184" y1="1.294" x2="0.486" y2="0.516" xlink:href="#linear-gradient-23"/>
    <linearGradient id="linear-gradient-33" x1="0.851" y1="-0.666" x2="0.476" y2="0.579" xlink:href="#linear-gradient-12"/>
    <linearGradient id="linear-gradient-34" x1="0.843" y1="-0.389" x2="0.209" y2="1.251" xlink:href="#linear-gradient-12"/>
    <linearGradient id="linear-gradient-35" x1="359.818" y1="0.238" x2="358.982" y2="0.678" gradientUnits="objectBoundingBox">
      <stop offset="0" stop-color="#febbba"/>
      <stop offset="1" stop-color="#ff928e"/>
    </linearGradient>
    <linearGradient id="linear-gradient-36" x1="-331.801" y1="-415.632" x2="-331.991" y2="-411.91" xlink:href="#linear-gradient-2"/>
    <linearGradient id="linear-gradient-37" x1="427.964" y1="0.225" x2="431.367" y2="-1.251" xlink:href="#linear-gradient-35"/>
    <linearGradient id="linear-gradient-38" x1="-195.489" y1="-451.821" x2="-195.711" y2="-448.713" xlink:href="#linear-gradient-2"/>
    <linearGradient id="linear-gradient-39" x1="0.748" y1="-0.892" x2="0.382" y2="1.03" xlink:href="#linear-gradient-12"/>
    <linearGradient id="linear-gradient-40" x1="-302.788" y1="-59.821" x2="-302.47" y2="-59.075" xlink:href="#linear-gradient-2"/>
    <linearGradient id="linear-gradient-41" x1="-0.435" y1="-0.952" x2="0.591" y2="0.825" xlink:href="#linear-gradient-12"/>
    <linearGradient id="linear-gradient-42" x1="0.437" y1="2.235" x2="0.632" y2="-2.333" xlink:href="#linear-gradient-35"/>
    <linearGradient id="linear-gradient-43" x1="2.125" y1="1.883" x2="0.272" y2="0.375" xlink:href="#linear-gradient-35"/>
    <linearGradient id="linear-gradient-44" x1="-361.04" y1="-247.486" x2="-359.479" y2="-249.763" xlink:href="#linear-gradient-35"/>
    <linearGradient id="linear-gradient-45" x1="-234.935" y1="-348.385" x2="-234.426" y2="-346.142" xlink:href="#linear-gradient-2"/>
    <linearGradient id="linear-gradient-46" x1="-1482.46" y1="-807.286" x2="-1476.056" y2="-814.714" xlink:href="#linear-gradient-35"/>
    <linearGradient id="linear-gradient-47" x1="1.091" y1="-27.655" x2="0.457" y2="2.53" xlink:href="#linear-gradient-2"/>
    <linearGradient id="linear-gradient-48" x1="0.002" y1="-0.061" x2="0.825" y2="0.949" xlink:href="#linear-gradient-2"/>
    <linearGradient id="linear-gradient-49" x1="4.558" y1="3.12" x2="-1.033" y2="-0.492" xlink:href="#linear-gradient-3"/>
  </defs>
  <g id="Grupo_56941" data-name="Grupo 56941" transform="translate(-181.51 -8546.14)">
    <g id="Grupo_56939" data-name="Grupo 56939">
      <g id="Grupo_56811" data-name="Grupo 56811" transform="translate(986.928 7778.323)">
        <rect id="Rectángulo_6264" data-name="Rectángulo 6264" width="490" height="490" transform="translate(-59.438 767.817)" fill="#e9e4fd"/>
        <path id="Trazado_114990" data-name="Trazado 114990" d="M-59.418,767.817V1257.8H-3.666l-.011-.309c-.855-22.178.932-80.538,35.91-143.291,35.209-63.169,92.106-109.6,169.109-137.995a270.016,270.016,0,0,0,90.618-55.469,294.743,294.743,0,0,0,54.3-68.405c25.68-44.218,33.2-81.4,33.5-82.959l.305-1.552Z" transform="translate(0)" fill="#cec8e8"/>
        <path id="Trazado_114991" data-name="Trazado 114991" d="M371.869,767.817S342.8,915.47,198.553,968.667C19.508,1034.7-14.552,1183.912-11.7,1257.8H-805.418V767.817Z" transform="translate(0)" fill="#fff"/>
      </g>
      <path id="Trazado_118414" data-name="Trazado 118414" d="M44.2,16.759,47.853,6.2H49.7L44.952,19H43.458L38.721,6.2h1.837ZM56.624,19a3.416,3.416,0,0,1-.229-1,3.628,3.628,0,0,1-2.707,1.178,3.357,3.357,0,0,1-2.307-.8,2.573,2.573,0,0,1-.9-2.017,2.688,2.688,0,0,1,1.129-2.307,5.325,5.325,0,0,1,3.177-.822h1.582v-.747a1.826,1.826,0,0,0-.51-1.358,2.049,2.049,0,0,0-1.5-.505,2.371,2.371,0,0,0-1.459.439,1.3,1.3,0,0,0-.589,1.063H50.674a2.244,2.244,0,0,1,.505-1.375A3.449,3.449,0,0,1,52.55,9.7a4.613,4.613,0,0,1,1.9-.387,3.759,3.759,0,0,1,2.575.822A2.964,2.964,0,0,1,58,12.4v4.377a5.351,5.351,0,0,0,.334,2.083V19Zm-2.7-1.239a2.858,2.858,0,0,0,1.45-.4,2.392,2.392,0,0,0,.993-1.028V14.386H55.095q-2.988,0-2.988,1.749a1.48,1.48,0,0,0,.51,1.2A1.959,1.959,0,0,0,53.926,17.761Zm11.215-6.812a4.873,4.873,0,0,0-.8-.062A2.143,2.143,0,0,0,62.17,12.25V19H60.544V9.49h1.582l.026,1.1A2.532,2.532,0,0,1,64.42,9.314a1.661,1.661,0,0,1,.721.123ZM68.4,19H66.775V9.49H68.4ZM66.644,6.968a.971.971,0,0,1,.242-.668.907.907,0,0,1,.716-.272.922.922,0,0,1,.721.272.96.96,0,0,1,.246.668.929.929,0,0,1-.246.659.938.938,0,0,1-.721.264.924.924,0,0,1-.716-.264A.938.938,0,0,1,66.644,6.968ZM76.874,19a3.416,3.416,0,0,1-.229-1,3.628,3.628,0,0,1-2.707,1.178,3.357,3.357,0,0,1-2.307-.8,2.573,2.573,0,0,1-.9-2.017,2.688,2.688,0,0,1,1.129-2.307,5.325,5.325,0,0,1,3.177-.822h1.582v-.747a1.826,1.826,0,0,0-.51-1.358,2.049,2.049,0,0,0-1.5-.505,2.371,2.371,0,0,0-1.459.439,1.3,1.3,0,0,0-.589,1.063H70.924a2.244,2.244,0,0,1,.505-1.375A3.449,3.449,0,0,1,72.8,9.7a4.613,4.613,0,0,1,1.9-.387,3.759,3.759,0,0,1,2.575.822,2.964,2.964,0,0,1,.967,2.263v4.377a5.351,5.351,0,0,0,.334,2.083V19Zm-2.7-1.239a2.858,2.858,0,0,0,1.45-.4,2.392,2.392,0,0,0,.993-1.028V14.386H75.345q-2.988,0-2.988,1.749a1.48,1.48,0,0,0,.51,1.2A1.959,1.959,0,0,0,74.176,17.761Zm10.433.088a2.342,2.342,0,0,0,1.521-.527A1.855,1.855,0,0,0,86.85,16h1.538a2.949,2.949,0,0,1-.562,1.556,3.7,3.7,0,0,1-1.384,1.178,3.994,3.994,0,0,1-1.833.439,3.918,3.918,0,0,1-3.089-1.3,5.163,5.163,0,0,1-1.147-3.546v-.272a5.725,5.725,0,0,1,.51-2.47,3.883,3.883,0,0,1,1.463-1.679,4.157,4.157,0,0,1,2.254-.6,3.814,3.814,0,0,1,2.659.958,3.424,3.424,0,0,1,1.129,2.487H86.85a2.241,2.241,0,0,0-.7-1.516A2.174,2.174,0,0,0,84.6,10.65a2.276,2.276,0,0,0-1.92.892A4.19,4.19,0,0,0,82,14.122v.308a4.106,4.106,0,0,0,.677,2.531A2.287,2.287,0,0,0,84.608,17.849ZM91.982,19H90.356V9.49h1.626ZM90.225,6.968a.971.971,0,0,1,.242-.668.907.907,0,0,1,.716-.272A.922.922,0,0,1,91.9,6.3a.96.96,0,0,1,.246.668.929.929,0,0,1-.246.659.938.938,0,0,1-.721.264.924.924,0,0,1-.716-.264A.938.938,0,0,1,90.225,6.968Zm3.929,7.189a5.617,5.617,0,0,1,.549-2.514,4.1,4.1,0,0,1,1.529-1.723,4.163,4.163,0,0,1,2.237-.606,4.01,4.01,0,0,1,3.142,1.345,5.174,5.174,0,0,1,1.2,3.577v.114a5.666,5.666,0,0,1-.532,2.492,4.038,4.038,0,0,1-1.521,1.718,4.211,4.211,0,0,1-2.272.615,4,4,0,0,1-3.133-1.345,5.147,5.147,0,0,1-1.2-3.56Zm1.635.193a4.068,4.068,0,0,0,.734,2.54,2.487,2.487,0,0,0,3.933-.013,4.449,4.449,0,0,0,.729-2.72,4.061,4.061,0,0,0-.743-2.536,2.361,2.361,0,0,0-1.973-.971,2.335,2.335,0,0,0-1.942.958A4.416,4.416,0,0,0,95.788,14.351ZM99.207,5.5h1.969L98.82,8.084l-1.31,0Zm7.181,3.99.053,1.2a3.465,3.465,0,0,1,2.848-1.371q3.015,0,3.041,3.4V19H110.7V12.707a2.189,2.189,0,0,0-.47-1.521,1.884,1.884,0,0,0-1.437-.492,2.347,2.347,0,0,0-1.389.422,2.865,2.865,0,0,0-.932,1.107V19H104.85V9.49Zm12.454,4.676a5.571,5.571,0,0,1,1.037-3.52,3.529,3.529,0,0,1,5.361-.189V5.5h1.626V19h-1.494l-.079-1.02a3.311,3.311,0,0,1-2.716,1.2,3.248,3.248,0,0,1-2.694-1.354,5.634,5.634,0,0,1-1.042-3.533Zm1.626.185a4.218,4.218,0,0,0,.668,2.531,2.159,2.159,0,0,0,1.846.914,2.372,2.372,0,0,0,2.259-1.389V12.039A2.39,2.39,0,0,0,123,10.694a2.17,2.17,0,0,0-1.863.923A4.644,4.644,0,0,0,120.468,14.351Zm12.867,4.825a4.155,4.155,0,0,1-3.146-1.27,4.714,4.714,0,0,1-1.213-3.4v-.3a5.707,5.707,0,0,1,.541-2.527,4.217,4.217,0,0,1,1.512-1.74,3.8,3.8,0,0,1,2.1-.628,3.562,3.562,0,0,1,2.883,1.222,5.289,5.289,0,0,1,1.028,3.5v.677H130.6a3.38,3.38,0,0,0,.822,2.272,2.583,2.583,0,0,0,2,.866,2.832,2.832,0,0,0,1.459-.352,3.666,3.666,0,0,0,1.046-.932l.993.773A3.993,3.993,0,0,1,133.335,19.176Zm-.2-8.525a2.169,2.169,0,0,0-1.652.716,3.482,3.482,0,0,0-.826,2.008h4.764v-.123a3.1,3.1,0,0,0-.668-1.92A2.042,2.042,0,0,0,133.133,10.65Zm20.276,2.364a7.9,7.9,0,0,1-.589,3.195,4.937,4.937,0,0,1-1.652,2.1l2.285,1.793L152.3,21.162l-2.7-2.145a5.49,5.49,0,0,1-1.336.158,4.774,4.774,0,0,1-4.5-2.861,7.6,7.6,0,0,1-.664-3.186v-.923a7.822,7.822,0,0,1,.642-3.261,4.745,4.745,0,0,1,4.5-2.918,4.955,4.955,0,0,1,2.72.747,4.819,4.819,0,0,1,1.806,2.149,7.893,7.893,0,0,1,.633,3.274Zm-1.687-.826a5.808,5.808,0,0,0-.9-3.485,3.251,3.251,0,0,0-5.08-.009,5.62,5.62,0,0,0-.945,3.379v.94a5.791,5.791,0,0,0,.918,3.463,3.246,3.246,0,0,0,5.084.075,5.714,5.714,0,0,0,.923-3.415ZM44.706,56.759,48.362,46.2h1.846L45.462,59H43.968L39.23,46.2h1.837ZM57.134,59a3.416,3.416,0,0,1-.229-1A3.628,3.628,0,0,1,54.2,59.176a3.357,3.357,0,0,1-2.307-.8,2.573,2.573,0,0,1-.9-2.017,2.688,2.688,0,0,1,1.129-2.307,5.325,5.325,0,0,1,3.177-.822h1.582v-.747a1.826,1.826,0,0,0-.51-1.358,2.049,2.049,0,0,0-1.5-.505,2.371,2.371,0,0,0-1.459.439,1.3,1.3,0,0,0-.589,1.063H51.184a2.244,2.244,0,0,1,.505-1.375A3.449,3.449,0,0,1,53.06,49.7a4.613,4.613,0,0,1,1.9-.387,3.759,3.759,0,0,1,2.575.822A2.964,2.964,0,0,1,58.5,52.4v4.377a5.351,5.351,0,0,0,.334,2.083V59Zm-2.7-1.239a2.858,2.858,0,0,0,1.45-.4,2.392,2.392,0,0,0,.993-1.028V54.386H55.6q-2.988,0-2.988,1.749a1.48,1.48,0,0,0,.51,1.2A1.959,1.959,0,0,0,54.436,57.761ZM65.65,50.949a4.873,4.873,0,0,0-.8-.062A2.143,2.143,0,0,0,62.68,52.25V59H61.054V49.49h1.582l.026,1.1a2.532,2.532,0,0,1,2.268-1.274,1.661,1.661,0,0,1,.721.123ZM68.911,59H67.285V49.49h1.626ZM67.153,46.968A.971.971,0,0,1,67.4,46.3a.907.907,0,0,1,.716-.272.922.922,0,0,1,.721.272.96.96,0,0,1,.246.668.929.929,0,0,1-.246.659.938.938,0,0,1-.721.264.924.924,0,0,1-.716-.264A.938.938,0,0,1,67.153,46.968ZM77.384,59a3.416,3.416,0,0,1-.229-1,3.628,3.628,0,0,1-2.707,1.178,3.357,3.357,0,0,1-2.307-.8,2.573,2.573,0,0,1-.9-2.017,2.688,2.688,0,0,1,1.129-2.307,5.325,5.325,0,0,1,3.177-.822h1.582v-.747a1.826,1.826,0,0,0-.51-1.358,2.049,2.049,0,0,0-1.5-.505,2.371,2.371,0,0,0-1.459.439,1.3,1.3,0,0,0-.589,1.063H71.434a2.244,2.244,0,0,1,.505-1.375A3.449,3.449,0,0,1,73.31,49.7a4.613,4.613,0,0,1,1.9-.387,3.759,3.759,0,0,1,2.575.822,2.964,2.964,0,0,1,.967,2.263v4.377a5.351,5.351,0,0,0,.334,2.083V59Zm-2.7-1.239a2.858,2.858,0,0,0,1.45-.4,2.392,2.392,0,0,0,.993-1.028V54.386H75.854q-2.988,0-2.988,1.749a1.48,1.48,0,0,0,.51,1.2A1.959,1.959,0,0,0,74.686,57.761Zm10.433.088a2.342,2.342,0,0,0,1.521-.527A1.855,1.855,0,0,0,87.359,56H88.9a2.949,2.949,0,0,1-.562,1.556,3.7,3.7,0,0,1-1.384,1.178,3.994,3.994,0,0,1-1.833.439,3.918,3.918,0,0,1-3.089-1.3,5.163,5.163,0,0,1-1.147-3.546v-.272a5.725,5.725,0,0,1,.51-2.47,3.883,3.883,0,0,1,1.463-1.679,4.157,4.157,0,0,1,2.254-.6,3.814,3.814,0,0,1,2.659.958A3.424,3.424,0,0,1,88.9,52.76H87.359a2.241,2.241,0,0,0-.7-1.516,2.174,2.174,0,0,0-1.551-.593,2.276,2.276,0,0,0-1.92.892,4.19,4.19,0,0,0-.681,2.58v.308a4.106,4.106,0,0,0,.677,2.531A2.287,2.287,0,0,0,85.118,57.849ZM92.492,59H90.866V49.49h1.626ZM90.734,46.968a.971.971,0,0,1,.242-.668.907.907,0,0,1,.716-.272.922.922,0,0,1,.721.272.96.96,0,0,1,.246.668.929.929,0,0,1-.246.659.938.938,0,0,1-.721.264.924.924,0,0,1-.716-.264A.938.938,0,0,1,90.734,46.968Zm3.929,7.189a5.617,5.617,0,0,1,.549-2.514,4.1,4.1,0,0,1,1.529-1.723,4.163,4.163,0,0,1,2.237-.606,4.01,4.01,0,0,1,3.142,1.345,5.174,5.174,0,0,1,1.2,3.577v.114a5.666,5.666,0,0,1-.532,2.492,4.038,4.038,0,0,1-1.521,1.718A4.211,4.211,0,0,1,99,59.176a4,4,0,0,1-3.133-1.345,5.147,5.147,0,0,1-1.2-3.56Zm1.635.193a4.068,4.068,0,0,0,.734,2.54,2.487,2.487,0,0,0,3.933-.013,4.449,4.449,0,0,0,.729-2.72,4.061,4.061,0,0,0-.743-2.536,2.361,2.361,0,0,0-1.973-.971,2.335,2.335,0,0,0-1.942.958A4.416,4.416,0,0,0,96.3,54.351ZM99.717,45.5h1.969L99.33,48.084l-1.31,0Zm7.181,3.99.053,1.2a3.465,3.465,0,0,1,2.848-1.371q3.015,0,3.041,3.4V59h-1.626V52.707a2.189,2.189,0,0,0-.47-1.521,1.884,1.884,0,0,0-1.437-.492,2.347,2.347,0,0,0-1.389.422,2.865,2.865,0,0,0-.932,1.107V59h-1.626V49.49Zm12.454,4.676a5.571,5.571,0,0,1,1.037-3.52,3.529,3.529,0,0,1,5.361-.189V45.5h1.626V59h-1.494l-.079-1.02a3.311,3.311,0,0,1-2.716,1.2,3.248,3.248,0,0,1-2.694-1.354,5.634,5.634,0,0,1-1.042-3.533Zm1.626.185a4.218,4.218,0,0,0,.668,2.531,2.159,2.159,0,0,0,1.846.914,2.372,2.372,0,0,0,2.259-1.389V52.039a2.39,2.39,0,0,0-2.241-1.345,2.17,2.17,0,0,0-1.863.923A4.644,4.644,0,0,0,120.978,54.351Zm12.867,4.825a4.155,4.155,0,0,1-3.146-1.27,4.714,4.714,0,0,1-1.213-3.4v-.3a5.707,5.707,0,0,1,.541-2.527,4.217,4.217,0,0,1,1.512-1.74,3.8,3.8,0,0,1,2.1-.628,3.562,3.562,0,0,1,2.883,1.222,5.289,5.289,0,0,1,1.028,3.5v.677h-6.442a3.38,3.38,0,0,0,.822,2.272,2.583,2.583,0,0,0,2,.866,2.832,2.832,0,0,0,1.459-.352,3.666,3.666,0,0,0,1.046-.932l.993.773A3.993,3.993,0,0,1,133.845,59.176Zm-.2-8.525a2.169,2.169,0,0,0-1.652.716,3.482,3.482,0,0,0-.826,2.008h4.764v-.123a3.1,3.1,0,0,0-.668-1.92A2.042,2.042,0,0,0,133.643,50.65Zm12.19,3.34V59h-1.687V46.2h4.72a4.742,4.742,0,0,1,3.292,1.072,3.635,3.635,0,0,1,1.191,2.839,3.587,3.587,0,0,1-1.165,2.87,4.954,4.954,0,0,1-3.335,1.006Zm0-1.38h3.032a3.032,3.032,0,0,0,2.074-.638,2.334,2.334,0,0,0,.721-1.845,2.411,2.411,0,0,0-.721-1.831,2.84,2.84,0,0,0-1.978-.713h-3.129Z" transform="translate(312 8668)" fill="#12263f"/>
      <path id="Trazado_118417" data-name="Trazado 118417" d="M95.841,19H87.456V17.831l4.43-4.922a10.524,10.524,0,0,0,1.358-1.815,3.029,3.029,0,0,0,.374-1.446A2.3,2.3,0,0,0,93.011,8a2.12,2.12,0,0,0-1.617-.642,2.511,2.511,0,0,0-1.885.69,2.635,2.635,0,0,0-.672,1.92H87.21a3.774,3.774,0,0,1,1.138-2.856,4.219,4.219,0,0,1,3.045-1.09,4.054,4.054,0,0,1,2.821.936,3.193,3.193,0,0,1,1.037,2.492q0,1.89-2.408,4.5l-3.428,3.718h6.425Zm2.47-6.416.65-6.381h6.557v1.5h-5.177L99.954,11.2a4.13,4.13,0,0,1,2.136-.554,3.531,3.531,0,0,1,2.777,1.156,4.53,4.53,0,0,1,1.028,3.125,4.372,4.372,0,0,1-1.068,3.116,3.892,3.892,0,0,1-2.984,1.138,4.045,4.045,0,0,1-2.769-.94,3.754,3.754,0,0,1-1.222-2.6h1.538a2.582,2.582,0,0,0,.782,1.657,2.432,2.432,0,0,0,1.67.558,2.194,2.194,0,0,0,1.78-.773,3.233,3.233,0,0,0,.646-2.136,2.968,2.968,0,0,0-.7-2.061,2.377,2.377,0,0,0-1.859-.778,2.681,2.681,0,0,0-1.67.466l-.431.352ZM80.926,59H79.291V48.163l-3.278,1.2V47.891l4.658-1.749h.255Zm13.148,0H85.689V57.831l4.43-4.922a10.524,10.524,0,0,0,1.358-1.815,3.029,3.029,0,0,0,.374-1.446A2.3,2.3,0,0,0,91.244,48a2.12,2.12,0,0,0-1.617-.642,2.511,2.511,0,0,0-1.885.69,2.635,2.635,0,0,0-.672,1.92H85.443a3.774,3.774,0,0,1,1.138-2.856,4.219,4.219,0,0,1,3.045-1.09,4.054,4.054,0,0,1,2.821.936,3.193,3.193,0,0,1,1.037,2.492q0,1.89-2.408,4.5l-3.428,3.718h6.425Zm1.837,2.549-.923-.633a4.241,4.241,0,0,0,.861-2.373V57.075H97.44V58.35a4,4,0,0,1-.435,1.775A4.156,4.156,0,0,1,95.911,61.549ZM104.674,59h-1.635V48.163l-3.278,1.2V47.891l4.658-1.749h.255Zm11-5.625a3.978,3.978,0,0,1-1.217.976,3.3,3.3,0,0,1-1.551.369,3.41,3.41,0,0,1-1.929-.545,3.543,3.543,0,0,1-1.27-1.534,5.229,5.229,0,0,1-.448-2.184,5.327,5.327,0,0,1,.488-2.312,3.583,3.583,0,0,1,1.384-1.573,3.947,3.947,0,0,1,2.092-.545,3.574,3.574,0,0,1,2.993,1.419,6.191,6.191,0,0,1,1.094,3.872v.475q0,3.735-1.477,5.454a5.673,5.673,0,0,1-4.456,1.762h-.316v-1.38h.343a3.872,3.872,0,0,0,4.271-4.254Zm-2.5,0a2.511,2.511,0,0,0,1.507-.5,2.953,2.953,0,0,0,1.006-1.239v-.65a4.474,4.474,0,0,0-.694-2.6,2.122,2.122,0,0,0-3.48-.18,3.39,3.39,0,0,0-.65,2.167,3.528,3.528,0,0,0,.628,2.158A1.99,1.99,0,0,0,113.164,53.375Z" transform="translate(312 8785)" fill="#12263f"/>
      <path id="Trazado_113169" data-name="Trazado 113169" d="M0,0H200" transform="translate(334.5 8698.5)" fill="none" stroke="#707070" stroke-width="1"/>
      <path id="Trazado_113172" data-name="Trazado 113172" d="M0,0H151" transform="translate(330.5 8818.5)" fill="none" stroke="#707070" stroke-width="1"/>
      <path id="Trazado_118415" data-name="Trazado 118415" d="M8.9,13.568H4.052v3.059h5.73V19H.967V6.2H9.8V8.585H4.052v2.7H8.9Zm1.459.589a5.613,5.613,0,0,1,.554-2.536,3.96,3.96,0,0,1,1.591-1.709,4.791,4.791,0,0,1,2.435-.6,4.373,4.373,0,0,1,3.366,1.323,5.076,5.076,0,0,1,1.23,3.6v.105A4.925,4.925,0,0,1,18.3,17.871a4.384,4.384,0,0,1-3.344,1.305A4.434,4.434,0,0,1,11.7,17.958a4.761,4.761,0,0,1-1.327-3.3Zm2.962.185a3.538,3.538,0,0,0,.413,1.934,1.376,1.376,0,0,0,1.222.615q1.582,0,1.617-2.435v-.3q0-2.558-1.635-2.558-1.485,0-1.608,2.206Zm9.36,1.784a1.686,1.686,0,0,1,1.169.417,1.457,1.457,0,0,1,0,2.136,1.844,1.844,0,0,1-2.342,0,1.456,1.456,0,0,1,0-2.127A1.672,1.672,0,0,1,22.685,16.126Zm0-7.014a1.686,1.686,0,0,1,1.169.417,1.457,1.457,0,0,1,0,2.136,1.844,1.844,0,0,1-2.342,0,1.456,1.456,0,0,1,0-2.127A1.672,1.672,0,0,1,22.685,9.112Z" transform="translate(295 8688)" fill="#12263f"/>
      <path id="Trazado_118416" data-name="Trazado 118416" d="M8.9,13.568H4.052v3.059h5.73V19H.967V6.2H9.8V8.585H4.052v2.7H8.9Zm1.459.589a5.613,5.613,0,0,1,.554-2.536,3.96,3.96,0,0,1,1.591-1.709,4.791,4.791,0,0,1,2.435-.6,4.373,4.373,0,0,1,3.366,1.323,5.076,5.076,0,0,1,1.23,3.6v.105A4.925,4.925,0,0,1,18.3,17.871a4.384,4.384,0,0,1-3.344,1.305A4.434,4.434,0,0,1,11.7,17.958a4.761,4.761,0,0,1-1.327-3.3Zm2.962.185a3.538,3.538,0,0,0,.413,1.934,1.376,1.376,0,0,0,1.222.615q1.582,0,1.617-2.435v-.3q0-2.558-1.635-2.558-1.485,0-1.608,2.206Zm9.36,1.784a1.686,1.686,0,0,1,1.169.417,1.457,1.457,0,0,1,0,2.136,1.844,1.844,0,0,1-2.342,0,1.456,1.456,0,0,1,0-2.127A1.672,1.672,0,0,1,22.685,16.126Zm0-7.014a1.686,1.686,0,0,1,1.169.417,1.457,1.457,0,0,1,0,2.136,1.844,1.844,0,0,1-2.342,0,1.456,1.456,0,0,1,0-2.127A1.672,1.672,0,0,1,22.685,9.112Z" transform="translate(295 8808)" fill="#12263f"/>
      <path id="Trazado_118418" data-name="Trazado 118418" d="M8.9,13.568H4.052v3.059h5.73V19H.967V6.2H9.8V8.585H4.052v2.7H8.9Zm1.459.589a5.613,5.613,0,0,1,.554-2.536,3.96,3.96,0,0,1,1.591-1.709,4.791,4.791,0,0,1,2.435-.6,4.373,4.373,0,0,1,3.366,1.323,5.076,5.076,0,0,1,1.23,3.6v.105A4.925,4.925,0,0,1,18.3,17.871a4.384,4.384,0,0,1-3.344,1.305A4.434,4.434,0,0,1,11.7,17.958a4.761,4.761,0,0,1-1.327-3.3Zm2.962.185a3.538,3.538,0,0,0,.413,1.934,1.376,1.376,0,0,0,1.222.615q1.582,0,1.617-2.435v-.3q0-2.558-1.635-2.558-1.485,0-1.608,2.206Zm9.36,1.784a1.686,1.686,0,0,1,1.169.417,1.457,1.457,0,0,1,0,2.136,1.844,1.844,0,0,1-2.342,0,1.456,1.456,0,0,1,0-2.127A1.672,1.672,0,0,1,22.685,16.126Zm0-7.014a1.686,1.686,0,0,1,1.169.417,1.457,1.457,0,0,1,0,2.136,1.844,1.844,0,0,1-2.342,0,1.456,1.456,0,0,1,0-2.127A1.672,1.672,0,0,1,22.685,9.112ZM36.07,11.74h3v2.54h-3v3.437H33.3V14.28H30.3V11.74H33.3V8.4H36.07ZM49.228,19H40.3V17.066l4.113-4.324a4.909,4.909,0,0,0,1.521-2.751,1.913,1.913,0,0,0-.36-1.257A1.287,1.287,0,0,0,44.525,8.3a1.3,1.3,0,0,0-1.1.576A2.366,2.366,0,0,0,43,10.316H40.034a4.2,4.2,0,0,1,.589-2.175,4.129,4.129,0,0,1,1.635-1.56A4.856,4.856,0,0,1,44.6,6.019a4.777,4.777,0,0,1,3.195.958,3.42,3.42,0,0,1,1.121,2.751A4,4,0,0,1,48.63,11.2a6.456,6.456,0,0,1-.875,1.5,22.029,22.029,0,0,1-1.912,2.1l-1.652,1.907h5.036Zm2.584,3.445-1.494-.7.3-.6a4.874,4.874,0,0,0,.642-2.18v-2.2h2.373l-.009,1.907a4.767,4.767,0,0,1-.519,2.057A5.226,5.226,0,0,1,51.812,22.445Zm12.647-8.675a6.11,6.11,0,0,1-1.165,4,4.551,4.551,0,0,1-6.587-.009,6.1,6.1,0,0,1-1.169-3.99V11.433a6.11,6.11,0,0,1,1.165-4,4.551,4.551,0,0,1,6.587.009,6.116,6.116,0,0,1,1.169,4ZM61.5,11.055a4.564,4.564,0,0,0-.36-2.061,1.2,1.2,0,0,0-1.143-.681,1.176,1.176,0,0,0-1.112.633,4.3,4.3,0,0,0-.374,1.916v3.27a4.6,4.6,0,0,0,.36,2.1,1.209,1.209,0,0,0,1.143.664,1.193,1.193,0,0,0,1.116-.646,4.39,4.39,0,0,0,.369-2.026Zm4.676,1.694L66.955,6.2h7.479v2.3H69.363l-.29,2.542a3.493,3.493,0,0,1,.831-.327,4.179,4.179,0,0,1,3.938.988,4.549,4.549,0,0,1,1.024,3.168,4.541,4.541,0,0,1-.549,2.228,3.776,3.776,0,0,1-1.542,1.534,4.87,4.87,0,0,1-2.347.536,5.24,5.24,0,0,1-2.259-.5,4.052,4.052,0,0,1-1.652-1.361,3.308,3.308,0,0,1-.589-1.954H68.9a1.68,1.68,0,0,0,.448,1.114,1.423,1.423,0,0,0,1.063.412q1.494,0,1.494-2.21,0-2.044-1.828-2.044a1.824,1.824,0,0,0-1.547.667Z" transform="translate(293 8917)" fill="#12263f"/>
      <g id="CF1_contador_1_copia" data-name="CF1_contador 1 copia" transform="translate(938.987 8603.823)">
        <g id="Layer_1" data-name="Layer 1">
          <g id="Grupo_56606" data-name="Grupo 56606">
            <path id="Trazado_116867" data-name="Trazado 116867" d="M337.69,317.37a125.73,125.73,0,0,1-19.17,16.14C256,378.37,182,365.29,166.28,362.1c-23.22-4.72-68.11-13.83-100.56-52-49.09-57.74-41.45-148.7-3.37-208.74,7-11,43.76-71.94,118.55-81.72,45.26-5.92,98,6,136.22,38C397.32,124.86,391.61,260.6,337.69,317.37Z" fill="url(#linear-gradient)"/>
            <g id="Grupo_56587" data-name="Grupo 56587">
              <path id="Trazado_116868" data-name="Trazado 116868" d="M339.28,38.94a1.89,1.89,0,0,0-2.67-2.4c-16,9.25-56.31,38.8-63.62,105.25-9.17,83.37-33,109-58.27,122.08,0,0,30.86-1.7,56.07-27.44C332.69,173.22,325.73,68.41,339.28,38.94Z" fill="#bdd0fb"/>
              <path id="Trazado_116869" data-name="Trazado 116869" d="M323.32,61.9c-3.76,8.64-7.36,17.35-10.62,26.17s-6.37,17.71-9.13,26.7-5.29,18-7.46,27.18-4,18.34-5.83,27.6-3.65,18.57-6.42,27.73a95.55,95.55,0,0,1-12.05,26.11c-1.35,2-2.74,4-4.24,5.83s-3,3.74-4.58,5.55a99,99,0,0,1-34.56,25.41,1.823,1.823,0,1,1-1.55-3.3h0c2.09-1,4.17-2,6.19-3.18,1-.55,2-1.14,3-1.71s2-1.18,2.95-1.82a96.369,96.369,0,0,0,11.09-8.29,104.84,104.84,0,0,0,18.33-20.72,90.547,90.547,0,0,0,6.75-12,101.736,101.736,0,0,0,4.94-13c2.76-8.88,4.62-18.09,6.53-27.32s3.92-18.49,6.3-27.66q1.75-6.87,3.76-13.68c.66-2.28,1.36-4.54,2.06-6.8s1.44-4.5,2.19-6.74q4.51-13.45,9.84-26.6c3.6-8.74,7.43-17.38,11.59-25.86a.49.49,0,0,1,.88.41Z" fill="#fff"/>
            </g>
            <g id="Grupo_56588" data-name="Grupo 56588">
              <path id="Trazado_116870" data-name="Trazado 116870" d="M284.48,292.2a4.74,4.74,0,0,0,7.2,3.16c15.68-9.92,57.46-42,65-105.53,6.39-53.69,14.95-82.2,19.74-94.87a3,3,0,0,0-4.39-3.54C345.51,108.58,263.36,172.25,284.48,292.2Z" fill="#b5abdb"/>
              <path id="Trazado_116871" data-name="Trazado 116871" d="M289,293a1.564,1.564,0,0,0,.2.16,1.31,1.31,0,0,0,1.81-.4c.44-.7,44.21-70.2,56.46-144.44a1.313,1.313,0,1,0-2.59-.43c-12.16,73.71-55.64,142.77-56.08,143.46A1.32,1.32,0,0,0,289,293Z" fill="#bdd0fb"/>
            </g>
            <g id="Grupo_56592" data-name="Grupo 56592">
              <g id="Grupo_56589" data-name="Grupo 56589">
                <path id="Trazado_116872" data-name="Trazado 116872" d="M89.7,57.51l181.12,4.8a18.76,18.76,0,0,1,18.27,18.3l6.41,263a13.84,13.84,0,0,1-13.95,14.18L73.86,356a13.14,13.14,0,0,1-13-13.48l7-264.29A21.3,21.3,0,0,1,89.7,57.51Z" fill="url(#linear-gradient-2)"/>
                <path id="Trazado_116873" data-name="Trazado 116873" d="M104.33,352.28h0l-23.22-.92A14.25,14.25,0,0,1,67.46,336.8l.93-35.07a.41.41,0,0,1,.43-.41.42.42,0,0,1,.41.43l-.93,35.07a13.41,13.41,0,0,0,12.83,13.7l23.22.92a.41.41,0,0,1,.4.43A.42.42,0,0,1,104.33,352.28Z" fill="#fff"/>
                <path id="Trazado_116874" data-name="Trazado 116874" d="M90.31,55.39C115,59.4,199.74,72,270.2,68.49a5.74,5.74,0,0,1,6,5.56l7,264.14a6.59,6.59,0,0,1-6.37,6.76c-29.62,1-151.6,4.51-194.93-1.2a5.21,5.21,0,0,1-4.53-5.28L83.13,61.38a6.2,6.2,0,0,1,7.18-5.99Z" fill="url(#linear-gradient-3)"/>
                <path id="Trazado_116875" data-name="Trazado 116875" d="M97.17,69.2c23,3.74,102,15.51,167.74,12.21a5.35,5.35,0,0,1,5.62,5.19l6.55,246.31a6.14,6.14,0,0,1-5.94,6.3c-27.62.9-141.37,4.2-181.77-1.11a4.86,4.86,0,0,1-4.22-4.93L90.47,74.78a5.77,5.77,0,0,1,6.7-5.58Z" fill="#b5abdb"/>
                <path id="Trazado_116876" data-name="Trazado 116876" d="M192.44,24.4c-6.42-4.73-12.11-4.79-16.15-3.71a8,8,0,0,0-5.89,8.25l1.23,18.89,20.5,2.37S205,33.67,192.44,24.4ZM183,39.4a4.992,4.992,0,1,0,0-.03Z" fill="url(#linear-gradient-4)"/>
                <path id="Trazado_116877" data-name="Trazado 116877" d="M173.53,40.41a1,1,0,0,1-.64-.88l-.2-3a1,1,0,0,1,2-.13l.2,3a.995.995,0,0,1-1.36,1.01Zm-.39-5.9a1,1,0,0,1-.64-.88l-.15-2.28a8.17,8.17,0,0,1,6-8.4,15.84,15.84,0,0,1,7.77-.11,1.026,1.026,0,0,1-.46,2,13.93,13.93,0,0,0-6.79.1,6.1,6.1,0,0,0-4.49,6.29l.15,2.29a.983.983,0,0,1-1.39.99Z" fill="#bdd0fb"/>
                <path id="Trazado_116878" data-name="Trazado 116878" d="M143.25,59.27l.26-9.48a5.77,5.77,0,0,1,6.13-5.62l65.28,4a5.62,5.62,0,0,1,5.28,5.43l.31,9.12Z" fill="url(#linear-gradient-5)"/>
                <path id="Trazado_116879" data-name="Trazado 116879" d="M165.13,47.66l2.81.08Z" fill="#bdd0fb"/>
                <path id="Trazado_116880" data-name="Trazado 116880" d="M146.51,56.84a1,1,0,0,1-.64-1L146,52a5.89,5.89,0,0,1,6-5.71l10.33.28a1,1,0,1,1-.06,2L152,48.33a3.87,3.87,0,0,0-4,3.76l-.1,3.83a1,1,0,0,1-1.39.92Z" fill="#bdd0fb"/>
                <path id="Trazado_116881" data-name="Trazado 116881" d="M122.87,55.26l114.27,3a8.43,8.43,0,0,1,8.13,7.22l.08.56a7.25,7.25,0,0,1-7.37,8.3l-117.22-3.1a4.71,4.71,0,0,1-4.58-5.07l.39-5.24a6.15,6.15,0,0,1,6.3-5.67Z" fill="url(#linear-gradient-6)"/>
              </g>
              <path id="Trazado_116882" data-name="Trazado 116882" d="M264.19,307.68a3.33,3.33,0,0,1-3,3.54l-159.68.61a3.49,3.49,0,0,1-3.23-3.7v-.31a3.52,3.52,0,0,1,3.25-3.71l159.73-.25a3.226,3.226,0,0,1,2.91,3.52Z" fill="#bdd0fb"/>
              <path id="Trazado_116883" data-name="Trazado 116883" d="M264.19,324.27a3.33,3.33,0,0,1-3,3.54l-159.68.61a3.48,3.48,0,0,1-3.23-3.7v-.31a3.52,3.52,0,0,1,3.25-3.71l159.73-.25a3.226,3.226,0,0,1,2.91,3.52Z" fill="#bdd0fb"/>
              <path id="Trazado_116884" data-name="Trazado 116884" d="M264.8,205a3.33,3.33,0,0,1-3,3.54l-159.68.61a3.47,3.47,0,0,1-3.22-3.7v-.31a3.5,3.5,0,0,1,3.24-3.71l159.73-.25a3.226,3.226,0,0,1,2.91,3.52Z" fill="#bdd0fb"/>
              <path id="Trazado_116885" data-name="Trazado 116885" d="M220.81,94.16c-.05,2-.72,3.53-1.48,3.53-22.74.59-47.81-.21-74.22-1.81-.84,0-2.27.07-2.21-2V93.6c.06-2,1.41-5.16,2.25-5.15,27.76,2.72,52.76,3.49,74.4,1.88.76,0,1.33,1.59,1.27,3.54Z" fill="#bdd0fb"/>
              <path id="Trazado_116886" data-name="Trazado 116886" d="M261.39,246.22c0,1.95-.65,3.54-1.41,3.56l-75,1.43c-.84,0-1.51-1.63-1.5-3.68v-.31c0-2,.71-3.71,1.55-3.73l75-1.07c.76,0,1.36,1.56,1.34,3.51Z" fill="#bdd0fb"/>
              <path id="Trazado_116887" data-name="Trazado 116887" d="M261.52,262.63c0,1.95-.65,3.54-1.41,3.56l-75,1.43c-.84,0-1.51-1.63-1.5-3.67v-.31c0-2.05.71-3.72,1.54-3.73l75-1.08c.76,0,1.36,1.56,1.34,3.51Z" fill="#bdd0fb"/>
              <path id="Trazado_116888" data-name="Trazado 116888" d="M261.43,277.94c0,1.95-.65,3.54-1.41,3.56l-75,1.43c-.84,0-1.51-1.63-1.49-3.68v-.31c0-2,.7-3.71,1.54-3.73l75-1.07c.76,0,1.37,1.56,1.35,3.51Z" fill="#bdd0fb"/>
              <rect id="Rectángulo_6840" data-name="Rectángulo 6840" width="73.15" height="63" rx="7.15" transform="translate(100.08 226.61)" fill="#bdd0fb"/>
              <g id="Grupo_56591" data-name="Grupo 56591">
                <path id="Trazado_116889" data-name="Trazado 116889" d="M114,179.55a1.11,1.11,0,0,1-.77-.3,1,1,0,0,1,0-1.47l36.23-35a1.11,1.11,0,0,1,1.39-.09l18.46,12.91,33.36-29.65a1,1,0,0,1,1.3-.05l18,13,26.49-27.77a1,1,0,0,1,1.45,1.37l-27.06,28.41a1,1,0,0,1-1.33.1L203.4,128l-33.34,29.67a1.07,1.07,0,0,1-1.33.07l-18.43-12.9-35.54,34.39A1.12,1.12,0,0,1,114,179.55Z" fill="#fff" opacity="0.57"/>
                <g id="Grupo_56590" data-name="Grupo 56590">
                  <path id="Trazado_116890" data-name="Trazado 116890" d="M149.78,139.77a4,4,0,0,0-4.06,4.07,4.23,4.23,0,0,0,4.54,3.73,4,4,0,0,0,4-4.07,4.22,4.22,0,0,0-4.48-3.73Z" fill="#fff"/>
                  <path id="Trazado_116891" data-name="Trazado 116891" d="M113.45,174.86a4.18,4.18,0,0,0-4.19,4.2,4.25,4.25,0,0,0,4.68,3.72,4.18,4.18,0,0,0,4.18-4.19A4.27,4.27,0,0,0,113.45,174.86Z" fill="#fff"/>
                  <path id="Trazado_116892" data-name="Trazado 116892" d="M169,153.2a4,4,0,0,0-4,4.06,4.14,4.14,0,0,0,4.47,3.67,4,4,0,0,0,4-4.05A4.14,4.14,0,0,0,169,153.2Z" fill="#fff"/>
                  <path id="Trazado_116893" data-name="Trazado 116893" d="M221.63,136a3.81,3.81,0,0,0-3.81,3.93,4,4,0,0,0,4.26,3.62,3.82,3.82,0,0,0,3.8-3.93A4,4,0,0,0,221.63,136Z" fill="#fff"/>
                  <path id="Trazado_116894" data-name="Trazado 116894" d="M252.86,111.91a4,4,0,0,0-4.15-3.63,3.7,3.7,0,0,0-3.72,3.84,4,4,0,0,0,4.17,3.63,3.68,3.68,0,0,0,3.7-3.84Z" fill="#fff"/>
                  <path id="Trazado_116895" data-name="Trazado 116895" d="M202.93,123.05a3.83,3.83,0,0,0-3.87,3.94,4.11,4.11,0,0,0,4.33,3.68,3.85,3.85,0,0,0,3.87-3.94A4.11,4.11,0,0,0,202.93,123.05Z" fill="#fff"/>
                </g>
              </g>
              <path id="Trazado_116896" data-name="Trazado 116896" d="M264.24,189.9H104.82A5.81,5.81,0,0,1,99,184l2-69.39a1.26,1.26,0,1,1,2.52.07l-2,69.39a3.278,3.278,0,0,0,3.25,3.36H264.24a1.27,1.27,0,0,1,0,2.53Z" fill="#fff" opacity="0.74"/>
            </g>
            <g id="Grupo_56596" data-name="Grupo 56596">
              <g id="Grupo_56593" data-name="Grupo 56593">
                <path id="Trazado_116897" data-name="Trazado 116897" d="M211.14,198.57c-.78,28.15-3.34,125.26-2.12,159.67.13,3.65,3.43,6.58,7.55,6.7,20.36.59,95,2.08,128.34.84,6.94-.25,12.46-5.23,12.6-11.38.69-29.55,2.22-112.66-1.41-150.73-.44-4.57-4.48-8.2-9.63-8.66-22.18-2-97.16-6.76-125.94-5.11C215.34,190.2,211.27,194,211.14,198.57Z" fill="url(#linear-gradient-7)"/>
                <rect id="Rectángulo_6841" data-name="Rectángulo 6841" width="130.56" height="40.43" rx="8.28" transform="translate(216.99 202.7)" fill="url(#linear-gradient-8)"/>
                <path id="Trazado_116898" data-name="Trazado 116898" d="M341.74,210.84a5.46,5.46,0,0,0-3.84-1.66l-106.66-1.69a5.47,5.47,0,0,0-5.53,4.95L223.5,236.1c-.18,1.94,3,3.57,7.07,3.62L335.43,241c4.06,0,7.41-1.5,7.45-3.44l.39-22.82a5.45,5.45,0,0,0-1.53-3.9Z" fill="#fff" opacity="0.2"/>
              </g>
              <path id="Trazado_116899" data-name="Trazado 116899" d="M245.49,267.31a7.62,7.62,0,0,1-7.62,7.62h-9.28a7.62,7.62,0,0,1-7.62-7.62h0a7.62,7.62,0,0,1,7.62-7.62h9.28a7.62,7.62,0,0,1,7.62,7.62Z" fill="url(#linear-gradient-9)"/>
              <path id="Trazado_116900" data-name="Trazado 116900" d="M280,267.31a7.62,7.62,0,0,1-7.62,7.62H263.1a7.62,7.62,0,0,1-7.62-7.62h0a7.62,7.62,0,0,1,7.62-7.62h9.28A7.62,7.62,0,0,1,280,267.31Z" fill="url(#linear-gradient-10)"/>
              <path id="Trazado_116901" data-name="Trazado 116901" d="M313.09,267.31a7.62,7.62,0,0,1-7.62,7.62h-9.28a7.62,7.62,0,0,1-7.62-7.62h0a7.62,7.62,0,0,1,7.62-7.62h9.28a7.62,7.62,0,0,1,7.62,7.62Z" fill="url(#linear-gradient-11)"/>
              <path id="Trazado_116902" data-name="Trazado 116902" d="M346.68,268.43a7.75,7.75,0,0,1-7.74,7.75h-9a7.75,7.75,0,0,1-7.75-7.75h0a7.74,7.74,0,0,1,7.75-7.74h9A7.74,7.74,0,0,1,346.68,268.43Z" fill="url(#linear-gradient-12)"/>
              <path id="Trazado_116903" data-name="Trazado 116903" d="M245.49,291.17a7.62,7.62,0,0,1-7.62,7.62h-9.28a7.62,7.62,0,0,1-7.62-7.62h0a7.62,7.62,0,0,1,7.62-7.62h9.28A7.62,7.62,0,0,1,245.49,291.17Z" fill="url(#linear-gradient-13)"/>
              <path id="Trazado_116904" data-name="Trazado 116904" d="M280,291.17a7.62,7.62,0,0,1-7.62,7.62H263.1a7.62,7.62,0,0,1-7.62-7.62h0a7.62,7.62,0,0,1,7.62-7.62h9.28a7.62,7.62,0,0,1,7.62,7.62Z" fill="url(#linear-gradient-14)"/>
              <path id="Trazado_116905" data-name="Trazado 116905" d="M313.09,291.17a7.62,7.62,0,0,1-7.62,7.62h-9.28a7.62,7.62,0,0,1-7.62-7.62h0a7.62,7.62,0,0,1,7.62-7.62h9.28A7.62,7.62,0,0,1,313.09,291.17Z" fill="url(#linear-gradient-15)"/>
              <path id="Trazado_116906" data-name="Trazado 116906" d="M347.55,291.17a7.62,7.62,0,0,1-7.62,7.62h-9.28a7.62,7.62,0,0,1-7.62-7.62h0a7.62,7.62,0,0,1,7.62-7.62h9.28A7.62,7.62,0,0,1,347.55,291.17Z" fill="url(#linear-gradient-16)"/>
              <g id="Grupo_56594" data-name="Grupo 56594">
                <path id="Trazado_116907" data-name="Trazado 116907" d="M245.49,312.3a7.62,7.62,0,0,1-7.62,7.62h-9.28A7.62,7.62,0,0,1,221,312.3h0a7.62,7.62,0,0,1,7.62-7.62h9.28a7.62,7.62,0,0,1,7.62,7.62Z" opacity="0.63" fill="url(#linear-gradient-17)"/>
                <path id="Trazado_116908" data-name="Trazado 116908" d="M280,312.3a7.62,7.62,0,0,1-7.62,7.62H263.1a7.62,7.62,0,0,1-7.62-7.62h0a7.62,7.62,0,0,1,7.62-7.62h9.28A7.62,7.62,0,0,1,280,312.3Z" opacity="0.63" fill="url(#linear-gradient-18)"/>
                <path id="Trazado_116909" data-name="Trazado 116909" d="M313.09,312.3a7.62,7.62,0,0,1-7.62,7.62h-9.28a7.62,7.62,0,0,1-7.62-7.62h0a7.62,7.62,0,0,1,7.62-7.62h9.28A7.62,7.62,0,0,1,313.09,312.3Z" opacity="0.63" fill="url(#linear-gradient-19)"/>
              </g>
              <g id="Grupo_56595" data-name="Grupo 56595">
                <path id="Trazado_116910" data-name="Trazado 116910" d="M245.49,335.5a7.62,7.62,0,0,1-7.62,7.62h-9.28A7.62,7.62,0,0,1,221,335.5h0a7.62,7.62,0,0,1,7.62-7.62h9.28a7.62,7.62,0,0,1,7.62,7.62Z" opacity="0.63" fill="url(#linear-gradient-20)"/>
                <path id="Trazado_116911" data-name="Trazado 116911" d="M280,335.5a7.62,7.62,0,0,1-7.62,7.62H263.1a7.62,7.62,0,0,1-7.62-7.62h0a7.62,7.62,0,0,1,7.62-7.62h9.28A7.62,7.62,0,0,1,280,335.5Z" opacity="0.63" fill="url(#linear-gradient-21)"/>
                <path id="Trazado_116912" data-name="Trazado 116912" d="M313.09,335.5a7.62,7.62,0,0,1-7.62,7.62h-9.28a7.62,7.62,0,0,1-7.62-7.62h0a7.62,7.62,0,0,1,7.62-7.62h9.28A7.62,7.62,0,0,1,313.09,335.5Z" opacity="0.63" fill="url(#linear-gradient-22)"/>
              </g>
              <rect id="Rectángulo_6842" data-name="Rectángulo 6842" width="19.88" height="37.78" rx="9.65" transform="translate(324.36 306.75)" fill="#b5abdb"/>
            </g>
            <g id="Grupo_56601" data-name="Grupo 56601">
              <g id="Grupo_56597" data-name="Grupo 56597">
                <circle id="Elipse_4541" data-name="Elipse 4541" cx="27.46" cy="27.46" r="27.46" transform="translate(130.764 361.589) rotate(-78.25)" fill="url(#linear-gradient-23)"/>
                <circle id="Elipse_4542" data-name="Elipse 4542" cx="26.55" cy="26.55" r="26.55" transform="translate(131.641 359.612) rotate(-78.465)" fill="url(#linear-gradient-24)"/>
                <path id="Trazado_116913" data-name="Trazado 116913" d="M141.34,329.68a.45.45,0,0,1-.19-.05.4.4,0,0,1-.18-.56,25,25,0,0,1,26.76-13.31.422.422,0,1,1-.15.83,24.13,24.13,0,0,0-25.86,12.86.45.45,0,0,1-.38.23Z" fill="#fff" opacity="0.66"/>
                <circle id="Elipse_4543" data-name="Elipse 4543" cx="22.47" cy="22.47" r="22.47" transform="matrix(0.021, -1, 1, 0.021, 140.876, 362.854)" fill="#fff" opacity="0.59"/>
                <path id="Trazado_116914" data-name="Trazado 116914" d="M161.61,357.57v-2.44a20,20,0,0,1-6.86-1.49A1.41,1.41,0,0,1,154,352l.62-2.28a1.42,1.42,0,0,1,1.93-.93,16.67,16.67,0,0,0,6.34,1.33c2.45,0,4.28-.83,4.28-2.53,0-1.54-1.41-2.46-4.82-3.37-4.87-1.34-8.37-3.46-8.37-7.74,0-3.87,2.83-6.83,7.74-7.62v-2.44a1.43,1.43,0,0,1,1.43-1.43h1.43a1.43,1.43,0,0,1,1.43,1.43v2.19a18.218,18.218,0,0,1,5.43,1,1.42,1.42,0,0,1,.89,1.71l-.57,2.11a1.43,1.43,0,0,1-1.88,1,14.65,14.65,0,0,0-5.33-1c-2.91,0-3.74,1.2-3.74,2.29,0,1.33,1.74,2.24,5.53,3.41,5.41,1.62,7.66,3.87,7.66,7.9,0,3.71-2.75,7-8.08,7.87v2.73a1.42,1.42,0,0,1-1.42,1.43H163a1.43,1.43,0,0,1-1.39-1.49Z" fill="url(#linear-gradient-25)"/>
              </g>
              <g id="Grupo_56598" data-name="Grupo 56598">
                <circle id="Elipse_4544" data-name="Elipse 4544" cx="27.46" cy="27.46" r="27.46" transform="translate(101.496 361.586) rotate(-78.25)" fill="url(#linear-gradient-23)"/>
                <circle id="Elipse_4545" data-name="Elipse 4545" cx="26.55" cy="26.55" r="26.55" transform="translate(103.029 361.558) rotate(-79.48)" fill="url(#linear-gradient-27)"/>
                <path id="Trazado_116915" data-name="Trazado 116915" d="M112.08,329.68a.43.43,0,0,1-.38-.61,25,25,0,0,1,26.77-13.31.422.422,0,1,1-.15.83,24.348,24.348,0,0,0-4.35-.39,24,24,0,0,0-21.52,13.25.42.42,0,0,1-.37.23Z" fill="#fff" opacity="0.66"/>
                <circle id="Elipse_4546" data-name="Elipse 4546" cx="22.47" cy="22.47" r="22.47" transform="translate(111.429 362.654) rotate(-88.32)" fill="#fff" opacity="0.59"/>
                <path id="Trazado_116916" data-name="Trazado 116916" d="M132.35,357.57v-2.44a20,20,0,0,1-6.86-1.49,1.42,1.42,0,0,1-.79-1.67l.63-2.28a1.42,1.42,0,0,1,1.93-.93,16.65,16.65,0,0,0,6.33,1.33c2.46,0,4.29-.83,4.29-2.53,0-1.54-1.42-2.46-4.83-3.37-4.86-1.34-8.36-3.46-8.36-7.74,0-3.87,2.83-6.83,7.74-7.62v-2.44a1.43,1.43,0,0,1,1.42-1.43h1.44a1.42,1.42,0,0,1,1.42,1.43v2.19a18.3,18.3,0,0,1,5.44,1,1.42,1.42,0,0,1,.89,1.71l-.57,2.11a1.43,1.43,0,0,1-1.88,1,14.691,14.691,0,0,0-5.33-1c-2.91,0-3.75,1.2-3.75,2.29,0,1.33,1.75,2.24,5.54,3.41,5.41,1.62,7.65,3.87,7.65,7.9,0,3.71-2.74,7-8.07,7.87v2.73a1.43,1.43,0,0,1-1.42,1.43h-1.44a1.42,1.42,0,0,1-1.42-1.46Z" fill="url(#linear-gradient-28)"/>
              </g>
              <g id="Grupo_56599" data-name="Grupo 56599">
                <circle id="Elipse_4547" data-name="Elipse 4547" cx="27.46" cy="27.46" r="27.46" transform="translate(73.001 362.678) rotate(-80.26)" fill="url(#linear-gradient-23)"/>
                <circle id="Elipse_4548" data-name="Elipse 4548" cx="26.55" cy="26.55" r="26.55" transform="translate(73.183 360.683) rotate(-77.9)" fill="url(#linear-gradient-27)"/>
                <path id="Trazado_116917" data-name="Trazado 116917" d="M82.82,329.68a.43.43,0,0,1-.38-.61,24.82,24.82,0,0,1,22.27-13.71,25.1,25.1,0,0,1,4.5.4.42.42,0,0,1,.34.49.43.43,0,0,1-.49.34,24.348,24.348,0,0,0-4.35-.39,24,24,0,0,0-21.52,13.25A.42.42,0,0,1,82.82,329.68Z" fill="#fff" opacity="0.66"/>
                <circle id="Elipse_4549" data-name="Elipse 4549" cx="22.47" cy="22.47" r="22.47" transform="translate(82.092 362.589) rotate(-88.09)" fill="#fff" opacity="0.59"/>
                <path id="Trazado_116918" data-name="Trazado 116918" d="M103.08,357.57v-2.44a20,20,0,0,1-6.86-1.49,1.42,1.42,0,0,1-.78-1.67l.62-2.28a1.43,1.43,0,0,1,1.94-.93,16.61,16.61,0,0,0,6.33,1.33c2.46,0,4.29-.83,4.29-2.53,0-1.54-1.42-2.46-4.83-3.37-4.87-1.34-8.36-3.46-8.36-7.74,0-3.87,2.83-6.83,7.74-7.62v-2.44a1.42,1.42,0,0,1,1.42-1.43H106a1.43,1.43,0,0,1,1.42,1.43v2.19a18.3,18.3,0,0,1,5.44,1,1.42,1.42,0,0,1,.89,1.71l-.58,2.11a1.42,1.42,0,0,1-1.87,1,14.74,14.74,0,0,0-5.33-1c-2.92,0-3.75,1.2-3.75,2.29,0,1.33,1.75,2.24,5.53,3.41,5.41,1.62,7.66,3.87,7.66,7.9,0,3.71-2.75,7-8.07,7.87v2.73a1.43,1.43,0,0,1-1.43,1.43h-1.43A1.43,1.43,0,0,1,103.08,357.57Z" fill="url(#linear-gradient-31)"/>
              </g>
              <g id="Grupo_56600" data-name="Grupo 56600">
                <circle id="Elipse_4550" data-name="Elipse 4550" cx="36.01" cy="36.01" r="36.01" transform="matrix(0.125, -0.992, 0.992, 0.125, 26.672, 362.985)" fill="url(#linear-gradient-32)"/>
                <circle id="Elipse_4551" data-name="Elipse 4551" cx="34.82" cy="34.82" r="34.82" transform="translate(25.013 357.615) rotate(-76.71)" fill="url(#linear-gradient-33)"/>
                <path id="Trazado_116919" data-name="Trazado 116919" d="M38.19,317.69a.41.41,0,0,1-.19,0,.43.43,0,0,1-.19-.57,32.43,32.43,0,0,1,29.09-17.9,32.85,32.85,0,0,1,5.87.52.43.43,0,0,1,.34.49.42.42,0,0,1-.49.34A32.1,32.1,0,0,0,66.9,300a31.59,31.59,0,0,0-28.34,17.44A.4.4,0,0,1,38.19,317.69Z" fill="#fff" opacity="0.66"/>
                <circle id="Elipse_4552" data-name="Elipse 4552" cx="29.536" cy="29.536" r="29.536" transform="translate(28.656 318.857) rotate(-24.775)" fill="#fff" opacity="0.78"/>
                <path id="Trazado_116920" data-name="Trazado 116920" d="M64.76,354.4v-3.2a26.461,26.461,0,0,1-9-1.95,1.86,1.86,0,0,1-1-2.19l.82-3a1.86,1.86,0,0,1,2.53-1.22,21.86,21.86,0,0,0,8.31,1.75c3.22,0,5.62-1.1,5.62-3.33,0-2-1.85-3.22-6.33-4.42-6.38-1.75-11-4.53-11-10.15,0-5.08,3.71-8.95,10.15-10v-3.2a1.87,1.87,0,0,1,1.87-1.87h1.88a1.87,1.87,0,0,1,1.87,1.87v2.88a23.56,23.56,0,0,1,7.13,1.28,1.84,1.84,0,0,1,1.16,2.24L78,322.67a1.86,1.86,0,0,1-2.46,1.26,19.53,19.53,0,0,0-7-1.27c-3.82,0-4.91,1.58-4.91,3,0,1.75,2.29,2.95,7.26,4.48,7.09,2.12,10,5.07,10,10.36,0,4.86-3.6,9.22-10.59,10.32v3.58a1.87,1.87,0,0,1-1.86,1.87H66.63a1.87,1.87,0,0,1-1.87-1.87Z" fill="url(#linear-gradient-34)"/>
              </g>
            </g>
            <g id="Grupo_56605" data-name="Grupo 56605">
              <path id="Trazado_116921" data-name="Trazado 116921" d="M176.91,226.61c.06,0,29.42-51.44,33.39-56.28a3.07,3.07,0,0,1,2.74-1.11l8.2,1L230.87,191l-16-9.34c1.58,11-19,27.29-26.09,33.24a1.63,1.63,0,0,0-.13,2.37l2.82,2.95a32.38,32.38,0,0,1-16,9.1Z" fill="url(#linear-gradient-35)"/>
              <path id="Trazado_116922" data-name="Trazado 116922" d="M189.8,218.66a4.15,4.15,0,0,1,2.41,2.18,1.82,1.82,0,0,1-.69,2.11c-3,2.13-12.74,9-17.26,10.33a.5.5,0,0,1-.63-.6c.23-1.05,1-3.14,3.39-6.21l-.22.44a.63.63,0,0,0,.87.83C180.69,226,186.84,222.3,189.8,218.66Z" fill="url(#linear-gradient-36)"/>
              <path id="Trazado_116923" data-name="Trazado 116923" d="M188.35,239.23c.05,0,4.45-10.65,4.5-10.68a187.088,187.088,0,0,1,16.8-51.19,3.07,3.07,0,0,1,2.47-1.64l8.22-.7L234,193.47l-17.6-5.9c3.77,10.42-13.1,30.57-18.82,37.83a1.62,1.62,0,0,0,.35,2.34l3.36,2.32a32.39,32.39,0,0,1-13.83,12.16Z" fill="url(#linear-gradient-37)"/>
              <path id="Trazado_116924" data-name="Trazado 116924" d="M199.36,228.83a4.21,4.21,0,0,1,2.81,1.65,1.84,1.84,0,0,1-.25,2.21c-2.48,2.68-10.67,11.38-14.81,13.61a.51.51,0,0,1-.75-.46c0-1.07.32-3.28,2.07-6.77l-.13.48a.63.63,0,0,0,1,.63C191.93,237.9,197.2,233,199.36,228.83Z" fill="url(#linear-gradient-38)"/>
              <path id="Trazado_116925" data-name="Trazado 116925" d="M258.84,171.13s7.44,11.07,8.05,16.11-2.06,6.8-9.85,7.44c-23.17,1.92-34.59-5-34.59-5-1.59-10.1-2.71-12.68-15.95-18.17,0,0,16.74,1.33,20.11,0S258.84,171.13,258.84,171.13Z" fill="url(#linear-gradient-39)"/>
              <g id="Grupo_56603" data-name="Grupo 56603">
                <path id="Trazado_116926" data-name="Trazado 116926" d="M229.17,109.14s5.18-6.13,10.69,1.39c1,1.36,4.83.24,6.24,3.09a3.61,3.61,0,0,0,3.9,2c4-.74,10.59-.8,13.84,5.49,2.47,4.81.56,7.63-1.91,9.23a4.06,4.06,0,0,0-1.37,5.44c1.05,1.79,1.25,4.21-1.47,7.13-6.1,6.54-18.18-4.15-18.18-4.15l-9.59-22.66Z" fill="url(#linear-gradient-40)"/>
                <path id="Trazado_116927" data-name="Trazado 116927" d="M238.72,169.67s-8.66-8.25-12.93-13.72a11.59,11.59,0,0,1-2-10.43c1.94-6.56,5.4-13.35,5.72-14.41.48-1.62,10.2-1.55,10.2-1.55S258.86,142,266.37,163l-8.43,2.62A98.478,98.478,0,0,0,248,151.91s8.53,11.27,8.83,15.88Z" fill="url(#linear-gradient-41)"/>
                <path id="Trazado_116928" data-name="Trazado 116928" d="M222.21,172.92l6.51-7.08,7.52,2s8.76,1.36,13.78,0l5-1.35L266.37,163l1.78,5a3,3,0,0,1-1.1,3.48,19.242,19.242,0,0,1-2.87,1.78c-1.49.66-34.39.21-34.39.21Z" fill="url(#linear-gradient-42)"/>
                <path id="Trazado_116929" data-name="Trazado 116929" d="M233.07,117.88,239.6,130c-.43,2.65-7.11,2.72-8.14,1.14a1.7,1.7,0,0,1-.2-.53l-3.91-8.12c-.16-.79,2-3.45,2.72-3.83l2.59-1.38C233.66,116.76,229.49,116.72,233.07,117.88Z" fill="url(#linear-gradient-43)"/>
                <g id="Grupo_56602" data-name="Grupo 56602">
                  <path id="Trazado_116930" data-name="Trazado 116930" d="M219.86,115s-.74,4.1,2.49,9.32,6.43,5,8.06,3.11a11.43,11.43,0,0,0,2.7-10.15C232.22,112.1,221,109.8,219.86,115Z" fill="url(#linear-gradient-44)"/>
                  <path id="Trazado_116931" data-name="Trazado 116931" d="M229.2,117.87S224,111,220,117l.06,2.07s-5.21-.25-4.64-5,4.82-8.09,10.72-6.44,9.34,3.51,10,7.6-2.68,3.43-2.68,3.43-1.28-2.83-2.82-3-1,2-1,2Z" fill="url(#linear-gradient-45)"/>
                  <path id="Trazado_116932" data-name="Trazado 116932" d="M230.4,117.69s-2.7-3.51-.24-4.24,2.37,3.44,2.21,5Z" fill="url(#linear-gradient-46)"/>
                </g>
              </g>
              <g id="Grupo_56604" data-name="Grupo 56604">
                <path id="Trazado_116933" data-name="Trazado 116933" d="M243.76,175.73H213.75a1.34,1.34,0,1,1,0-2.68h29.94a1.34,1.34,0,0,1,.07,2.68Z" fill="url(#linear-gradient-47)"/>
                <path id="Trazado_116934" data-name="Trazado 116934" d="M186.83,148.54h24.94a4.75,4.75,0,0,1,4.3,2.731l11.52,24.439h-31a2.89,2.89,0,0,1-2.69-1.83L185,151.26a2,2,0,0,1,1.83-2.72Z" fill="url(#linear-gradient-48)"/>
                <path id="Trazado_116935" data-name="Trazado 116935" d="M204.4,161.07c.54,1.68.14,3.31-.89,3.65s-2.31-.76-2.85-2.44-.14-3.31.89-3.64S203.86,159.39,204.4,161.07Z" fill="url(#linear-gradient-49)"/>
              </g>
            </g>
          </g>
        </g>
      </g>
    </g>
  </g>
</svg>
