<svg xmlns="http://www.w3.org/2000/svg" xmlns:xlink="http://www.w3.org/1999/xlink" width="300" height="300" viewBox="0 0 300 300">
  <defs>
    <linearGradient id="linear-gradient" x1="-0.002" y1="0.501" x2="1" y2="0.501" gradientUnits="objectBoundingBox">
      <stop offset="0" stop-color="#dae3fe"/>
      <stop offset="1" stop-color="#e9effd"/>
    </linearGradient>
    <linearGradient id="linear-gradient-2" x1="-0.002" y1="0.498" x2="0.997" y2="0.498" xlink:href="#linear-gradient"/>
    <linearGradient id="linear-gradient-3" x1="-0.007" y1="0.501" x2="0.991" y2="0.501" xlink:href="#linear-gradient"/>
    <linearGradient id="linear-gradient-4" x1="0.009" y1="0.487" x2="0.996" y2="0.487" xlink:href="#linear-gradient"/>
    <clipPath id="clip-path">
      <ellipse id="Elipse_4592" data-name="Elipse 4592" cx="131.584" cy="131.584" rx="131.584" ry="131.584" fill="none"/>
    </clipPath>
    <linearGradient id="linear-gradient-5" x1="0.506" y1="0.103" x2="0.529" y2="-1.694" gradientUnits="objectBoundingBox">
      <stop offset="0" stop-color="#4042e2"/>
      <stop offset="1" stop-color="#4f52ff"/>
    </linearGradient>
    <linearGradient id="linear-gradient-6" y1="0.5" x2="1" y2="0.5" gradientUnits="objectBoundingBox">
      <stop offset="0" stop-color="#472ea6"/>
      <stop offset="1" stop-color="#6c58b8"/>
    </linearGradient>
    <linearGradient id="linear-gradient-7" x1="0.507" y1="0.303" x2="0.653" y2="-1.375" gradientUnits="objectBoundingBox">
      <stop offset="0" stop-color="#09005d"/>
      <stop offset="1" stop-color="#1a0f91"/>
    </linearGradient>
    <linearGradient id="linear-gradient-8" x1="0" y1="0.5" y2="0.5" xlink:href="#linear-gradient-6"/>
    <linearGradient id="linear-gradient-9" x1="0" y1="0.5" x2="1.001" y2="0.5" xlink:href="#linear-gradient-5"/>
    <linearGradient id="linear-gradient-10" x1="0.697" y1="0.062" x2="1.293" y2="-1.157" xlink:href="#linear-gradient-7"/>
    <linearGradient id="linear-gradient-11" x1="159.564" y1="-50.839" x2="160.646" y2="-47.709" gradientUnits="objectBoundingBox">
      <stop offset="0" stop-color="#febbba"/>
      <stop offset="1" stop-color="#ff928e"/>
    </linearGradient>
    <linearGradient id="linear-gradient-12" x1="141.435" y1="-39.035" x2="141.921" y2="-39.894" gradientUnits="objectBoundingBox">
      <stop offset="0" stop-color="#f57fa3"/>
      <stop offset="1" stop-color="#ef2a66"/>
    </linearGradient>
    <linearGradient id="linear-gradient-13" x1="965.996" y1="0.498" x2="967.022" y2="0.498" xlink:href="#linear-gradient-7"/>
    <linearGradient id="linear-gradient-14" x1="2012.585" y1="0.499" x2="2013.584" y2="0.499" xlink:href="#linear-gradient-7"/>
    <linearGradient id="linear-gradient-15" x1="3101.083" y1="0.501" x2="3102.092" y2="0.501" xlink:href="#linear-gradient-11"/>
    <linearGradient id="linear-gradient-16" x1="3719.418" y1="0.488" x2="3720.437" y2="0.488" xlink:href="#linear-gradient-11"/>
    <linearGradient id="linear-gradient-17" x1="2.023" y1="-1.352" x2="0.55" y2="0.643" xlink:href="#linear-gradient-7"/>
    <linearGradient id="linear-gradient-18" x1="1.027" y1="0.103" x2="-0.69" y2="1.201" xlink:href="#linear-gradient-6"/>
    <linearGradient id="linear-gradient-19" x1="1775.805" y1="1.329" x2="1776.033" y2="0.355" xlink:href="#linear-gradient-11"/>
    <linearGradient id="linear-gradient-20" x1="387.328" y1="-139.164" x2="386.256" y2="-137.882" xlink:href="#linear-gradient-11"/>
    <linearGradient id="linear-gradient-21" x1="273.856" y1="-91.058" x2="274.763" y2="-91.058" xlink:href="#linear-gradient-7"/>
    <linearGradient id="linear-gradient-22" x1="916.21" y1="-0.182" x2="914.389" y2="3.253" xlink:href="#linear-gradient-11"/>
    <linearGradient id="linear-gradient-23" x1="-0.378" y1="-3.362" x2="0.017" y2="-1.665" xlink:href="#linear-gradient-12"/>
    <linearGradient id="linear-gradient-24" x1="1.682" y1="-1.595" x2="-0.203" y2="1.844" xlink:href="#linear-gradient-7"/>
    <linearGradient id="linear-gradient-25" x1="3.41" y1="-2.189" x2="-3.23" y2="3.94" xlink:href="#linear-gradient-7"/>
    <linearGradient id="linear-gradient-26" x1="4.566" y1="-2.401" x2="-5.257" y2="4.746" xlink:href="#linear-gradient-7"/>
    <linearGradient id="linear-gradient-27" x1="557.07" y1="0.268" x2="559.599" y2="2.006" xlink:href="#linear-gradient-11"/>
    <linearGradient id="linear-gradient-28" x1="1.539" y1="-0.249" x2="-0.883" y2="1.786" xlink:href="#linear-gradient-6"/>
    <linearGradient id="linear-gradient-29" x1="0.856" y1="-0.774" x2="0.724" y2="-0.314" xlink:href="#linear-gradient-12"/>
    <linearGradient id="linear-gradient-30" x1="1080.147" y1="-41.226" x2="1079.206" y2="-41.226" xlink:href="#linear-gradient-7"/>
    <linearGradient id="linear-gradient-31" x1="0.005" y1="-0.053" x2="0.938" y2="1.009" xlink:href="#linear-gradient-12"/>
    <linearGradient id="linear-gradient-32" x1="549.216" y1="-0.364" x2="551.745" y2="2.062" xlink:href="#linear-gradient-11"/>
    <linearGradient id="linear-gradient-33" x1="552.674" y1="-0.706" x2="554.836" y2="6.513" xlink:href="#linear-gradient-11"/>
    <linearGradient id="linear-gradient-34" x1="1" y1="0.501" x2="0" y2="0.501" xlink:href="#linear-gradient-11"/>
    <linearGradient id="linear-gradient-35" x1="551.91" y1="-3.046" x2="551.931" y2="1.639" xlink:href="#linear-gradient-7"/>
    <linearGradient id="linear-gradient-36" x1="2186.991" y1="0.5" x2="2187.994" y2="0.5" xlink:href="#linear-gradient-11"/>
    <linearGradient id="linear-gradient-37" x1="642.682" y1="8.281" x2="646.527" y2="6.681" xlink:href="#linear-gradient-7"/>
    <linearGradient id="linear-gradient-38" x1="1354.083" y1="-3.759" x2="1354.133" y2="1.735" xlink:href="#linear-gradient-7"/>
    <linearGradient id="linear-gradient-39" x1="2524.131" y1="0.497" x2="2525.131" y2="0.497" xlink:href="#linear-gradient-11"/>
    <linearGradient id="linear-gradient-40" x1="451.437" y1="8.075" x2="454.141" y2="6.504" xlink:href="#linear-gradient-7"/>
    <linearGradient id="linear-gradient-41" x1="1.424" y1="-0.849" x2="1.263" y2="-0.607" xlink:href="#linear-gradient-12"/>
    <linearGradient id="linear-gradient-42" x1="1.822" y1="-1.926" x2="1.525" y2="-1.337" xlink:href="#linear-gradient-12"/>
    <linearGradient id="linear-gradient-43" x1="0.694" y1="-0.466" x2="0.316" y2="1.231" xlink:href="#linear-gradient-11"/>
    <linearGradient id="linear-gradient-44" x1="0.816" y1="-0.363" x2="0.407" y2="0.755" xlink:href="#linear-gradient-7"/>
    <linearGradient id="linear-gradient-45" x1="1090.008" y1="0.5" x2="1091.012" y2="0.5" xlink:href="#linear-gradient-11"/>
    <linearGradient id="linear-gradient-46" x1="286.651" y1="-212.909" x2="287.781" y2="-212.909" xlink:href="#linear-gradient-11"/>
    <linearGradient id="linear-gradient-47" x1="851.928" y1="0.5" x2="852.925" y2="0.5" xlink:href="#linear-gradient-11"/>
    <linearGradient id="linear-gradient-48" x1="254.771" y1="75.238" x2="254.449" y2="74.172" xlink:href="#linear-gradient-11"/>
    <linearGradient id="linear-gradient-49" x1="1.378" y1="-0.694" x2="2.634" y2="-2.381" xlink:href="#linear-gradient-7"/>
    <linearGradient id="linear-gradient-50" x1="828.16" y1="360.524" x2="827.215" y2="355.896" xlink:href="#linear-gradient-11"/>
    <linearGradient id="linear-gradient-51" x1="1.216" y1="-1.709" x2="1.014" y2="-1.123" xlink:href="#linear-gradient-12"/>
  </defs>
  <g id="CF1_200_copia_3" data-name="CF1_200 copia 3" transform="translate(-0.438 -0.454)">
    <rect id="Rect치ngulo_6945" data-name="Rect치ngulo 6945" width="300" height="300" transform="translate(0.438 0.454)" fill="none"/>
    <g id="Grupo_56907" data-name="Grupo 56907" transform="translate(205.427 60.103)" opacity="0.3">
      <path id="Trazado_118036" data-name="Trazado 118036" d="M140.8,39.821a.95.95,0,0,1,1.029.855c.079,1,.222,2.01.38,3.023a.918.918,0,0,1-.744,1.076h0a.95.95,0,0,1-1.092-.76c-.174-1.06-.317-2.121-.411-3.165a.934.934,0,0,1,.76-1Zm2.6,8.673c.3.965.649,1.931,1.045,2.865a.95.95,0,0,1-.522,1.234.934.934,0,0,1-1.219-.522c-.411-.981-.776-1.994-1.108-3.007a.934.934,0,0,1,.617-1.171h.111A.95.95,0,0,1,143.4,48.495Zm3.244,7.28c.506.886,1.076,1.741,1.583,2.564a.961.961,0,1,1-1.583,1.092c-.617-.87-1.2-1.773-1.741-2.691a.934.934,0,0,1,.332-1.3l.3-.111a.95.95,0,0,1,1.108.443Zm4.748,6.331c.7.744,1.44,1.456,2.184,2.121a.95.95,0,0,1-1.25,1.409c-.791-.712-1.583-1.456-2.295-2.232a.934.934,0,0,1,0-1.329.965.965,0,0,1,.475-.237.918.918,0,0,1,.934.317Zm6.093,5.144a29.39,29.39,0,0,0,2.611,1.583.918.918,0,0,1,.364,1.266.95.95,0,0,1-1.282.38c-.934-.522-1.852-1.076-2.738-1.678a.934.934,0,0,1-.253-1.3.855.855,0,0,1,.6-.4.9.9,0,0,1,.744.19Zm7.09,3.672c.95.364,1.915.7,2.9.981a.939.939,0,0,1-.522,1.8c-1.029-.3-2.058-.649-3.039-1.029a.95.95,0,0,1-.554-1.219,1,1,0,0,1,.712-.586.95.95,0,0,1,.554.095ZM199.3,67.012a.934.934,0,0,1-.222,1.314c-.87.617-1.773,1.2-2.691,1.741a.95.95,0,0,1-.95-1.583c.87-.506,1.725-1.06,2.564-1.583a1.06,1.06,0,0,1,.364-.158A.918.918,0,0,1,199.3,67.012Zm-26.906,5.983c1,.142,2.01.237,3.023.3a.934.934,0,0,1,.886,1,.965.965,0,0,1-1,.886,23.564,23.564,0,0,1-3.165-.317.934.934,0,0,1-.791-1.076.9.9,0,0,1,.744-.776.7.7,0,0,1,.253-.032Zm19.863-1.868a.95.95,0,0,1-.522,1.234c-.981.411-1.994.776-3.007,1.092a.938.938,0,1,1-.57-1.788c.965-.3,1.931-.665,2.865-1.045h.174A.934.934,0,0,1,192.253,71.127ZM180.32,73.216c1.013-.095,2.026-.222,3.023-.4a.965.965,0,0,1,1.092.776.95.95,0,0,1-.76,1.076h0c-1.045.19-2.121.317-3.165.411a.934.934,0,1,1-.253-1.852Z" transform="translate(-139.958 -39.818)" fill="#bdd0fb"/>
      <path id="Trazado_118037" data-name="Trazado 118037" d="M180.669,54.012a.934.934,0,0,0-.507.269c-.332.348-.681.7-1.045,1.029a.965.965,0,0,0,0,1.329.934.934,0,0,0,1.329,0c.38-.348.744-.712,1.092-1.076a.934.934,0,0,0,0-1.329.9.9,0,0,0-.87-.222Z" transform="translate(-117.295 -31.566)" fill="#bdd0fb"/>
    </g>
    <g id="Grupo_56908" data-name="Grupo 56908" transform="translate(214.559 24.229)" opacity="0.3">
      <path id="Trazado_118038" data-name="Trazado 118038" d="M186.89,37.194a.918.918,0,0,0-.76.95v1.472a.934.934,0,1,0,1.868,0c0-.522,0-1.029,0-1.583a.934.934,0,0,0-.965-.9Z" transform="translate(-122.187 -1.678)" fill="#bdd0fb"/>
      <path id="Trazado_118039" data-name="Trazado 118039" d="M167.053,15.157a.95.95,0,0,1,1.06.807.934.934,0,0,1-.791,1.06c-.981.142-1.978.317-2.96.538a.95.95,0,0,1-1.124-.7.965.965,0,0,1,.712-1.14l1.282-.269Zm-6.79,2.532a.95.95,0,0,1-.538,1.219c-.934.348-1.868.744-2.77,1.171a.95.95,0,1,1-.791-1.709c.934-.443,1.915-.855,2.9-1.235h.158a.918.918,0,0,1,1.045.554Zm11.918-2.96a30.373,30.373,0,0,1,3.165.111.95.95,0,0,1-.158,1.883c-.981-.079-1.994-.127-2.991-.111a.934.934,0,0,1-.934-.95.9.9,0,0,1,.76-.918Zm-19.2,6.426a.934.934,0,0,1-.285,1.3c-.823.554-1.583,1.14-2.422,1.757a.95.95,0,1,1-1.171-1.488c.823-.649,1.693-1.266,2.564-1.836a1.345,1.345,0,0,1,.348-.142.95.95,0,0,1,.965.411Zm27.4-5.555c1.013.237,2.042.506,3.039.823a.918.918,0,0,1,.617,1.171.934.934,0,0,1-1.171.617c-.95-.3-1.931-.554-2.9-.776a.934.934,0,0,1,0-1.836Zm7.818,2.722c.95.443,1.883.934,2.8,1.456a.934.934,0,0,1,.332,1.282.95.95,0,0,1-1.282.348c-.855-.506-1.757-.965-2.659-1.393a.95.95,0,0,1-.443-1.25.934.934,0,0,1,.665-.522.95.95,0,0,1,.586.079Zm7.059,4.3c.823.633,1.583,1.314,2.406,2.026a.941.941,0,1,1-1.266,1.393,29.616,29.616,0,0,0-2.295-1.931.943.943,0,0,1,.4-1.678.965.965,0,0,1,.76.142Zm5.935,5.729c.681.807,1.314,1.662,1.915,2.516a.957.957,0,0,1-1.583,1.076c-.57-.823-1.187-1.583-1.82-2.39a.934.934,0,0,1,.127-1.314.918.918,0,0,1,.411-.206.934.934,0,0,1,.95.269Zm4.558,6.916c.459.934.9,1.9,1.3,2.865a.95.95,0,0,1-.506,1.234.965.965,0,0,1-1.235-.522c-.364-.918-.791-1.836-1.234-2.722a.934.934,0,0,1,.411-1.266.7.7,0,0,1,.237-.079.95.95,0,0,1,1.029.443ZM208.662,43c.19.76.348,1.583.506,2.263l.142.823a.939.939,0,0,1-1.852.317l-.142-.776c-.142-.712-.3-1.44-.491-2.152a.934.934,0,0,1,.681-1.14h0a.95.95,0,0,1,1.155.617Z" transform="translate(-144.006 -14.73)" fill="#bdd0fb"/>
      <path id="Trazado_118040" data-name="Trazado 118040" d="M147.5,21.8a.95.95,0,0,0-.491.269c-.348.364-.712.744-1.045,1.14a.934.934,0,0,0,.079,1.329.965.965,0,0,0,1.329-.079c.317-.364.649-.728.981-1.076a.934.934,0,0,0,0-1.329A.981.981,0,0,0,147.5,21.8Z" transform="translate(-145.728 -10.622)" fill="#bdd0fb"/>
    </g>
    <path id="Trazado_118041" data-name="Trazado 118041" d="M147.614,38.444a.427.427,0,0,0,0,.506l3.624,3.941a23.741,23.741,0,0,0-.776,7.5l-4.337,3.165a.443.443,0,0,0-.158.491l1.836,6.141a.475.475,0,0,0,.412.317l5.334.222a23.741,23.741,0,0,0,4.748,5.84l-.744,5.112a.443.443,0,0,0,.222.459l5.666,3.118a.459.459,0,0,0,.506,0l3.925-3.624a23.344,23.344,0,0,0,7.518.76l3.165,4.337a.427.427,0,0,0,.475.174l6.141-1.836a.443.443,0,0,0,.317-.411l.222-5.334a22.854,22.854,0,0,0,5.84-4.748l5.286.87a.443.443,0,0,0,.459-.222l3.039-5.65a.427.427,0,0,0,0-.506l-3.624-3.925a23.438,23.438,0,0,0,.776-7.518l4.337-3.165a.427.427,0,0,0,.158-.475l-1.836-6.157a.427.427,0,0,0-.412-.3L194.4,37.3a23.487,23.487,0,0,0-4.748-5.856l.855-5.27a.427.427,0,0,0-.222-.459l-5.793-3.1a.427.427,0,0,0-.506,0l-3.925,3.624a22.869,22.869,0,0,0-7.5-.776l-3.165-4.337a.459.459,0,0,0-.491-.174l-6.141,1.852a.427.427,0,0,0-.316.4l-.222,5.349a22.806,22.806,0,0,0-5.84,4.748l-5.286-.87a.443.443,0,0,0-.459.237Z" transform="translate(68.958 13.118)" fill="#bdd0fb"/>
    <path id="Trazado_118042" data-name="Trazado 118042" d="M165.733,34.562a6.411,6.411,0,1,1-.95.111A6.22,6.22,0,0,1,165.733,34.562Zm4,9.781a4.938,4.938,0,1,0-3.434,1.583,5.4,5.4,0,0,0,.728,0,4.954,4.954,0,0,0,2.706-1.583Z" transform="translate(79.76 17.969)" fill="url(#linear-gradient)"/>
    <path id="Trazado_118043" data-name="Trazado 118043" d="M166.562,28.927a14.355,14.355,0,0,0-1.583.38h0l-.491.158a15.146,15.146,0,0,0-2.327,1h-.095l-.158.095a.348.348,0,0,0-.19.4.3.3,0,0,0,0,.111.38.38,0,0,0,.522.142,15.146,15.146,0,0,1,17.235,1.883,14.956,14.956,0,0,1,4.59,7.075,13.732,13.732,0,0,1,.364,1.583,15.1,15.1,0,0,1-29.3,7.17,12.658,12.658,0,0,1-.364-1.488,14.767,14.767,0,0,1,.19-6.552.333.333,0,0,0,0-.174.372.372,0,0,0-.728-.016,15.5,15.5,0,0,0-.206,6.869,12.56,12.56,0,0,0,.38,1.583,15.881,15.881,0,0,0,30.815-7.5c-.111-.538-.237-1.06-.4-1.583a15.827,15.827,0,0,0-18.153-11.079Z" transform="translate(73.498 17.634)" fill="url(#linear-gradient-2)"/>
    <g id="Grupo_56909" data-name="Grupo 56909" transform="translate(175.236 45.675)" opacity="0.3">
      <path id="Trazado_118044" data-name="Trazado 118044" d="M117.78,28.3a.554.554,0,0,0-.459.506,6.735,6.735,0,0,1-.111,1.488.586.586,0,1,0,1.171.032,7.112,7.112,0,0,1,.1-1.409.586.586,0,0,0-.522-.633Z" transform="translate(-117.21 -28.28)" fill="#bdd0fb"/>
      <path id="Trazado_118045" data-name="Trazado 118045" d="M117.793,31.1a.586.586,0,0,1,.633.538,20.916,20.916,0,0,0,.332,2.406.847.847,0,0,0,.111.506.586.586,0,0,1-1.14.237.9.9,0,0,0-.111-.522,23.174,23.174,0,0,1-.348-2.532.57.57,0,0,1,.459-.617Zm1.868,6.331a22.865,22.865,0,0,0,1.124,2.722.586.586,0,1,1-1.045.506,28.358,28.358,0,0,1-1.187-2.849.6.6,0,0,1,.364-.744h0a.6.6,0,0,1,.744.317Zm2.58,5.286a23.518,23.518,0,0,0,1.773,2.358.586.586,0,0,1-.886.76,28.111,28.111,0,0,1-1.852-2.485.586.586,0,0,1,.174-.807h.206a.554.554,0,0,1,.586.127Zm3.814,4.479a25.7,25.7,0,0,0,2.295,1.868.573.573,0,0,1-.665.934,23.526,23.526,0,0,1-2.406-1.947.554.554,0,0,1,0-.807.585.585,0,0,1,.317-.19.57.57,0,0,1,.459.095Zm4.748,3.419a24.137,24.137,0,0,0,2.675,1.25.586.586,0,1,1-.427,1.076,26.4,26.4,0,0,1-2.8-1.3.586.586,0,0,1,.174-1.092.649.649,0,0,1,.427.016Zm5.476,2.152a22.79,22.79,0,0,0,2.9.554.586.586,0,0,1-.142,1.155,24.515,24.515,0,0,1-3.039-.586.57.57,0,0,1,0-1.124Zm5.84.744a23.122,23.122,0,0,0,2.944-.174.586.586,0,0,1,.127,1.155,24.994,24.994,0,0,1-3.023.19.583.583,0,0,1-.111-1.155Zm9.4-1.25a.57.57,0,0,1-.332.744,24.166,24.166,0,0,1-2.564.823l-.4.111a.57.57,0,0,1-.7-.427.586.586,0,0,1,.427-.712,1.583,1.583,0,0,0,.364-.095,24.593,24.593,0,0,0,2.453-.776h.095a.586.586,0,0,1,.7.285Z" transform="translate(-117.176 -26.638)" fill="#bdd0fb"/>
    </g>
    <g id="Grupo_56910" data-name="Grupo 56910" transform="translate(180.855 23.547)" opacity="0.3">
      <path id="Trazado_118046" data-name="Trazado 118046" d="M134.4,14.649a24.564,24.564,0,0,1,3.023-.348.57.57,0,0,1,.617.538.6.6,0,0,1-.554.617,22.3,22.3,0,0,0-2.88.332.537.537,0,1,1-.174-1.06Zm-2.216,1.092a.586.586,0,0,1-.4.728,28.123,28.123,0,0,0-2.722,1.013.578.578,0,1,1-.459-1.06,25.609,25.609,0,0,1,2.849-1.06h0A.586.586,0,0,1,132.187,15.741Zm8.277-1.424a24.279,24.279,0,0,1,3.023.38.586.586,0,1,1-.222,1.14,25.134,25.134,0,0,0-2.881-.364.586.586,0,0,1,0-1.155ZM126.7,18.02a.586.586,0,0,1-.19.807,24.47,24.47,0,0,0-2.39,1.583.586.586,0,0,1-.823-.095.6.6,0,0,1,.111-.823,24.878,24.878,0,0,1,2.5-1.709l.19-.079a.57.57,0,0,1,.6.317Zm19.736-2.611a25.62,25.62,0,0,1,2.833,1.108.586.586,0,0,1-.491,1.06,23.157,23.157,0,0,0-2.691-1.06.57.57,0,0,1-.38-.728.581.581,0,0,1,.728-.38Zm5.508,2.532a25.323,25.323,0,0,1,2.5,1.757.58.58,0,1,1-.728.9,24.543,24.543,0,0,0-2.374-1.662.586.586,0,0,1-.19-.807.522.522,0,0,1,.38-.253.538.538,0,0,1,.412.095Zm4.748,3.783a27.438,27.438,0,0,1,2.01,2.295.6.6,0,0,1-.111.823.586.586,0,0,1-.807-.111,22.789,22.789,0,0,0-1.915-2.184.586.586,0,0,1,.3-.981.57.57,0,0,1,.522.174Z" transform="translate(-119.91 -14.299)" fill="#bdd0fb"/>
      <path id="Trazado_118047" data-name="Trazado 118047" d="M122.6,18.8a.507.507,0,0,0-.3.158c-.348.348-.7.712-1.013,1.076a.586.586,0,0,0,0,.823.6.6,0,0,0,.823,0c.3-.348.633-.7.965-1.029A.617.617,0,0,0,122.6,18.8Z" transform="translate(-121.113 -11.676)" fill="#bdd0fb"/>
    </g>
    <path id="Trazado_118048" data-name="Trazado 118048" d="M122.411,30.042a.285.285,0,0,0,0,.348l2.421,2.627a15.668,15.668,0,0,0-.522,5.017l-2.9,2.089a.316.316,0,0,0-.111.317l1.234,4.115a.269.269,0,0,0,.269.206l3.577.158a15.59,15.59,0,0,0,3.165,3.909l-.57,3.529a.253.253,0,0,0,.142.3L132.9,54.7a.269.269,0,0,0,.332,0l2.643-2.422a15.669,15.669,0,0,0,5.017.522l2.089,2.912a.285.285,0,0,0,.317.111l4.115-1.235a.269.269,0,0,0,.206-.269l.158-3.561a16,16,0,0,0,3.909-3.165l3.529.57a.253.253,0,0,0,.3-.142l2.042-3.783a.269.269,0,0,0,0-.332l-2.421-2.627a15.717,15.717,0,0,0,.522-5.033l2.9-2.089a.285.285,0,0,0,.111-.317l-1.234-4.115a.269.269,0,0,0-.269-.206l-3.577-.142a15.4,15.4,0,0,0-3.165-3.925l.57-3.529a.269.269,0,0,0-.142-.3l-3.783-2.042a.269.269,0,0,0-.332,0L144.094,22a15.226,15.226,0,0,0-5.017-.506l-2.089-2.912a.317.317,0,0,0-.317-.111l-4.115,1.235a.269.269,0,0,0-.206.269l-.158,3.577a15.589,15.589,0,0,0-3.909,3.165l-3.529-.57a.269.269,0,0,0-.3.142Z" transform="translate(59.894 11.676)" fill="#bdd0fb"/>
    <path id="Trazado_118049" data-name="Trazado 118049" d="M134.544,27.462a4.4,4.4,0,1,1-.649.079Zm3.419,4.257a3.165,3.165,0,0,0-3.419-3.086h0a3.271,3.271,0,1,0,.269,6.537h.475a3.165,3.165,0,0,0,2.611-3.45Z" transform="translate(65.465 16.915)" fill="url(#linear-gradient-3)"/>
    <path id="Trazado_118050" data-name="Trazado 118050" d="M135.173,23.552a8.908,8.908,0,0,0-1.076.269,9.735,9.735,0,0,0-2.058.855h-.095a.586.586,0,0,0-.285.617,1.2,1.2,0,0,0,0,.174.586.586,0,0,0,.791.222,10.224,10.224,0,0,1,1.915-.807h.111a9.607,9.607,0,0,1,4.748-.158,9.828,9.828,0,0,1,2.469.9h0a9.623,9.623,0,0,1,4.748,5.808c.095.317.174.649.237.965a9.775,9.775,0,1,1-18.992,4.637,9.492,9.492,0,0,1-.237-.965,9.828,9.828,0,0,1,.111-4.242.459.459,0,0,0,0-.253.586.586,0,0,0-.427-.443.57.57,0,0,0-.712.411,10.92,10.92,0,0,0-.127,4.748,4.259,4.259,0,0,0,.253,1.076,11.012,11.012,0,1,0,21.43-5.08,7.913,7.913,0,0,0-.269-1.092A10.936,10.936,0,0,0,135.173,23.552Z" transform="translate(62.854 14.526)" fill="url(#linear-gradient-4)"/>
    <g id="Grupo_56913" data-name="Grupo 56913" transform="translate(20.812 16.854)" clip-path="url(#clip-path)">
      <rect id="Rect치ngulo_6946" data-name="Rect치ngulo 6946" width="289.719" height="78.436" transform="translate(-15.179 193.25)" fill="#6c58b8"/>
      <path id="Trazado_118051" data-name="Trazado 118051" d="M308.082,171.746l-11.388-41.775-13.915-7.6c-1.011-2.111-17.84-23.222-19.326-22.463l-3.479-.312L244.825,85.371c-6.645-.327-18.687,20.65-20.813,21.884l-15.134,8.92-6.868-13.291-4.7.7-4.787-13.157-6.407.58L166.79,48.547c-.907-1.992-2.379-2.617-3.627-1.487l-3.137,2.721-13.87-29.049a1.695,1.695,0,0,0-2.973-.134L137.4,30.142l-2.394-1.992c-1.635-1.353-3.508-.8-4.861,1.412L115.679,53.215l-3.256.357L94.732,88.2,91.12,86.709l-4.832,9.574c-2.349,4.668-13.38-2.646-18.94-2.423-2.676,3.553-21.527,19.609-24.188,23.177-2.512-.3-16.353,9.321-18.3,10.927-4.46,3.687-2.721,11.388-4.7,12.428-1.353.714-7.3,4.906-8.92,4.46-2.869-.7-3.39,1.07-5.947-1.487a1.189,1.189,0,0,0-.8-.491,1.2,1.2,0,0,0-.743.327l-19.178,14.406c-2.973,2.245,3.211,6.794,4.579,8.191,3.821,3.9,7.924,7.879,12.889,10.317,6.526,3.211,13.1,31.354,20.01,31.22,7.7-.119,56.3-10.2,64-10.317,32.81-.535,26.849-21.6,59.659-22.121,30.551-.491,56.909,17.572,87.475,17.082,13.484-.223,73.173,23.385,86.672,23.177C321.492,215.245,309.36,173.4,308.082,171.746Z" transform="translate(-26.584 -5.345)" fill="#9182ca"/>
      <path id="Trazado_118052" data-name="Trazado 118052" d="M91.953,20.911,90.6,31.585l3.865,3.523,7.136,13.6,6.6.951L94.168,20.554a1.174,1.174,0,0,0-2.215.357Z" transform="translate(25.403 -5.286)" fill="#91b3fa"/>
      <path id="Trazado_118053" data-name="Trazado 118053" d="M106.914,39.205,105.8,44.364l2.527,4.46-1.858,11.893-6.378,9.574,6.214-2.438.342,3.94H114.7L129.57,82.11l-19.5-43.247a1.665,1.665,0,0,0-3.152.342Z" transform="translate(30.022 3.462)" fill="#91b3fa"/>
      <path id="Trazado_118054" data-name="Trazado 118054" d="M122,67.632l3.761-.342,4.787,13.157-5.694-7.106-3.865,1.174Z" transform="translate(40.193 17.776)" fill="#91b3fa"/>
      <path id="Trazado_118055" data-name="Trazado 118055" d="M46.7,101.919l8.7-12.532L61.21,86.7,73.965,73.7l4.7,4.921,7.166-6.7L98.138,57.81l5.159,9.173,3.137-2.468,2.676,2.691,9.411,3.36-7.612-.446L107.1,72.81l-1.576-4.252-4.7,5.144L97.692,62.508l-2.914,7.166-1.561,1.561-4.7,2.691-3.583,9.634-4.044,9.173-4.921-9.619-3.137-5.159L71.5,84l-2.468.223-1.561,3.806L58.95,91.84H56.378Z" transform="translate(4.039 13.163)" fill="#91b3fa"/>
      <path id="Trazado_118056" data-name="Trazado 118056" d="M172.806,76.817l-.684,1.249,2.275,2.617L170.709,84.1l-5.07,12.934,3.181-.61,1.814,2.676,13.38,1.814,5.6,5.56,19.163,2.542L186.067,88.413,177.028,76.52a2.557,2.557,0,0,0-4.222.3Z" transform="translate(61.922 21.793)" fill="#91b3fa"/>
      <path id="Trazado_118057" data-name="Trazado 118057" d="M1.79,157.037c1.264-.431,15.387,4.846,15.387,4.846L39.12,161.5l11.373.639,7.433-3.167,64.1,14.554,29.094-11.6,53.519,7.8,1.189,1.784a4.356,4.356,0,0,0,4.8,1.784l64.015-18.122L77.921,129.43Z" transform="translate(-17.816 48.017)" opacity="0.51" fill="url(#linear-gradient-5)"/>
      <path id="Trazado_118058" data-name="Trazado 118058" d="M5.48,170.4l12.295,1.011,28.038.8,10.838-1.962,64.372,14.212,27.563-11.774,30.833,1.843,27.637,5.5,29.168-5.263,46.339-2.9.7-2.275L260.039,156.51H248.711c-1.606,0-34.312-31.383-37.508-34.981h0a1.1,1.1,0,0,1-.446-.446H194.329l-9.678-10.228-25.02-10.035-52.657,16.621-2.706,13.514-32.29,5.56Z" transform="translate(-16.02 34.094)" fill="url(#linear-gradient-6)"/>
      <g id="Grupo_56911" data-name="Grupo 56911" transform="translate(55.958 134.914)" opacity="0.34">
        <path id="Trazado_118059" data-name="Trazado 118059" d="M68.451,137.719l14.956-4.3,13.945,2.334,14.762-3.241-7.582-17.141,33.36-14.554L85.206,117.411,82.5,130.94l-32.29,5.545Z" transform="translate(-50.21 -100.82)" fill="#7d97f4"/>
      </g>
      <path id="Trazado_118060" data-name="Trazado 118060" d="M147.128,122.14l-30.744,12.012-14.51,17.87-.134,10.288,8.191.55,14.435-14.212,17.84-12.785Z" transform="translate(30.825 44.469)" opacity="0.27" fill="url(#linear-gradient-7)"/>
      <path id="Trazado_118061" data-name="Trazado 118061" d="M93.962,110.61l-19.52,3L71.93,126.175l29.614.892Z" transform="translate(16.318 38.858)" fill="url(#linear-gradient-8)"/>
      <path id="Trazado_118062" data-name="Trazado 118062" d="M90.992,127.407c-2.23,0-19.074-2.587-19.074-2.587L5.48,158.716l64.8-24.708Z" transform="translate(-16.02 45.774)" opacity="0.26" fill="url(#linear-gradient-9)"/>
      <g id="Grupo_56912" data-name="Grupo 56912" transform="translate(195.079 155.593)" opacity="0.34">
        <path id="Trazado_118063" data-name="Trazado 118063" d="M157.14,165.916l11.209,1.962,46.9-2.78.7-2.275-23.221-13.083H181.4c-1.606,0-33.925-31.413-37.612-35.011l7.879,22.092-5.382,1.1Z" transform="translate(-143.79 -114.73)" fill="#7d97f4"/>
      </g>
      <path id="Trazado_118064" data-name="Trazado 118064" d="M115.176,103.4c2.423.357,17.572,12.651,17.572,12.651l-28.514,19.906-7.344,26.6,2.973-26.76,31.026-19.326L115.161,104.01Z" transform="translate(28.465 35.349)" opacity="0.27" fill="url(#linear-gradient-10)"/>
    </g>
    <path id="Trazado_118065" data-name="Trazado 118065" d="M70.434,108.57l3.672,3.466c-2.437,4.083-11.174,11.87-15.036,12.487a30.53,30.53,0,0,1-2.39-10.7A14.1,14.1,0,0,0,70.434,108.57Z" transform="translate(28.826 54.449)" fill="url(#linear-gradient-11)"/>
    <path id="Trazado_118066" data-name="Trazado 118066" d="M48.717,122.779,45.71,106.05a36.149,36.149,0,0,0,17.41,9.243,30.53,30.53,0,0,0,2.39,10.7A25.228,25.228,0,0,1,48.717,122.779Z" transform="translate(23.386 53.069)" fill="url(#linear-gradient-12)"/>
    <path id="Trazado_118067" data-name="Trazado 118067" d="M44.217,185.913c4.558.206,8.974,0,11.918-.079A60.254,60.254,0,0,0,42.1,178.111L38.583,178A14.371,14.371,0,0,0,37,184.014C37.491,184.695,39.216,185.724,44.217,185.913Z" transform="translate(19.107 87.635)" fill="url(#linear-gradient-13)"/>
    <path id="Trazado_118068" data-name="Trazado 118068" d="M56.2,183.705h0c-2.944.158-7.359.285-11.918.079-5-.222-6.726-1.25-7.312-1.994v.6a1.662,1.662,0,0,0,1.583,1.788c3.735.285,13.01.918,17.41.7a.633.633,0,0,0,.237-1.171Z" transform="translate(19.086 89.843)" fill="#7d97f4"/>
    <path id="Trazado_118069" data-name="Trazado 118069" d="M24.3,184.675a34.313,34.313,0,0,0-1.282-6.03c-.649-1.25-2.88,0-2.88,0a5.887,5.887,0,0,0-2.279,1.931c-.459.776-1.725,2.975-2.58,4.479a.934.934,0,0,0-.142.522l8.911.317a1.788,1.788,0,0,0,.253-1.219Z" transform="translate(9.739 87.687)" fill="url(#linear-gradient-14)"/>
    <path id="Trazado_118070" data-name="Trazado 118070" d="M15.14,182.82a1.029,1.029,0,0,0,1,1l6.331.174a1.8,1.8,0,0,0,1.583-.855Z" transform="translate(9.739 90.443)" fill="#7d97f4"/>
    <path id="Trazado_118071" data-name="Trazado 118071" d="M23.554,174.355c-.079.253-1.234,5.824-1.741,8.277a1.393,1.393,0,0,1-1.44,1.124,5.274,5.274,0,0,1-1.266-.111,1.694,1.694,0,0,1-1.472-1.583c-.079-2.152-.127-6.331.665-7.913C19.392,171.965,23.554,174.355,23.554,174.355Z" transform="translate(11.169 84.855)" fill="url(#linear-gradient-15)"/>
    <path id="Trazado_118072" data-name="Trazado 118072" d="M37.53,175.647c.491,0-.206,2.548.554,5.065a1.266,1.266,0,0,0,1.187,1.013,12.31,12.31,0,0,0,1.3,0,1.44,1.44,0,0,0,1.314-1.3l.617-6.536Z" transform="translate(19.523 85.24)" fill="url(#linear-gradient-16)"/>
    <path id="Trazado_118073" data-name="Trazado 118073" d="M63.015,132.165c-.222,1.076-7.913,46.436-8.467,69.892a.807.807,0,0,1-.681.791,16.016,16.016,0,0,1-4.748,0,.57.57,0,0,1-.459-.522c-.269-4.368-2.453-41.356.222-58.765,0,0-22.158,46.547-25.465,59.367a.665.665,0,0,1-.7.506,16.9,16.9,0,0,1-4.479-.791,1.171,1.171,0,0,1-.728-1.377c1.836-7.644,15.036-60.554,23.867-72.266Z" transform="translate(11.102 59.083)" fill="url(#linear-gradient-17)"/>
    <path id="Trazado_118074" data-name="Trazado 118074" d="M37.408,139.741a.253.253,0,0,1-.206-.095.269.269,0,0,1,0-.4l2.9-3.039a.291.291,0,1,1,.411.411l-2.96,3.023A.3.3,0,0,1,37.408,139.741Z" transform="translate(22.544 68.523)" fill="#7d97f4"/>
    <path id="Trazado_118075" data-name="Trazado 118075" d="M66.861,96.408c-5.682-1.488-16.159-3.814-24.5-3.324A3.783,3.783,0,0,0,38.8,96.63c-1.25,22.158-2.975,41.925-6.22,53.4A41.973,41.973,0,0,0,54.215,153.2a238.256,238.256,0,0,0,14.007-39.567s2.327-11.965,0-15.938a2.358,2.358,0,0,0-1.361-1.282Z" transform="translate(16.745 45.33)" fill="url(#linear-gradient-18)"/>
    <path id="Trazado_118076" data-name="Trazado 118076" d="M46.3,85.33s-1.44,8.562-1.868,12.519a1.583,1.583,0,0,0,.839,1.583,11.285,11.285,0,0,0,8.562.918,1.44,1.44,0,0,0,1-1.456l-.253-11.411Z" transform="translate(22.877 42.997)" fill="url(#linear-gradient-19)"/>
    <path id="Trazado_118077" data-name="Trazado 118077" d="M52.9,79.327c.158.142,6.457,12.5,6.457,12.5l-7.138,3.45L44.51,84.439S50.35,76.905,52.9,79.327Z" transform="translate(22.862 39.775)" fill="url(#linear-gradient-20)"/>
    <path id="Trazado_118078" data-name="Trazado 118078" d="M49.166,86.655a1.108,1.108,0,0,0,.095,1l3.561,6.014a.966.966,0,0,0,.19.253,1.868,1.868,0,0,0,2.991,0,10.209,10.209,0,0,1,2.817-3.039,1.14,1.14,0,0,1,1.583.506,42.813,42.813,0,0,1,2.437,5.777,1.14,1.14,0,0,1-.665,1.393,31.448,31.448,0,0,1-6.837,1.994,1.124,1.124,0,0,1-1.076-.459c-1.092-1.488-4.162-5.666-5.207-6.711A3.909,3.909,0,0,0,45.479,93a1.155,1.155,0,0,1-.918-.111,2.5,2.5,0,0,1-.934-3.973,1.14,1.14,0,0,0-.348-1.583,2.517,2.517,0,0,1-.965-3.577,3.561,3.561,0,0,1,3.846-1.883,1.171,1.171,0,0,0,1.234-.681.76.76,0,0,1,.6-.459,1.108,1.108,0,0,0,.886-1.3,2.944,2.944,0,0,1,1.583-3.355c3.07-1.693,5.777,1.076,6.457,3.4S54.168,83.458,52,83.727C50.4,84.012,49.53,85.752,49.166,86.655Z" transform="translate(21.508 37.955)" fill="url(#linear-gradient-21)"/>
    <path id="Trazado_118079" data-name="Trazado 118079" d="M49.18,89.553s-1.361-4-3.165-3.862-3.165,1.883-.965,3.846C47.8,91.99,49.18,89.553,49.18,89.553Z" transform="translate(22.688 43.432)" fill="url(#linear-gradient-22)"/>
    <path id="Trazado_118080" data-name="Trazado 118080" d="M61.784,79.655,44.042,92.95a.411.411,0,0,1-.665-.285l-.158-1.25s-7.138-7.454.459-13.928,16.286,1.187,16.286,1.187l1.678.364a.348.348,0,0,1,.142.617Z" transform="translate(20.64 37.784)" fill="url(#linear-gradient-23)"/>
    <path id="Trazado_118081" data-name="Trazado 118081" d="M32.13,143.421c6.711-11.174,11.759-23.392,16.7-36.513a75.146,75.146,0,0,1,18.407,0,.522.522,0,0,1,.443.7L53.433,149.53Z" transform="translate(16.538 52.403)" fill="url(#linear-gradient-24)"/>
    <path id="Trazado_118082" data-name="Trazado 118082" d="M45.223,116.852a143.548,143.548,0,0,0-5.286-23.74.38.38,0,0,1,.411-.491l3.973.6a1.693,1.693,0,0,1,1.377,1.2,116.5,116.5,0,0,1,4.321,21.92Z" transform="translate(20.651 46.345)" fill="url(#linear-gradient-25)"/>
    <path id="Trazado_118083" data-name="Trazado 118083" d="M50.91,114.529A66.109,66.109,0,0,0,53.965,94.65l2.738.791a1.361,1.361,0,0,1,.981,1.472A65.777,65.777,0,0,1,55.8,115.431Z" transform="translate(26.139 47.444)" fill="url(#linear-gradient-26)"/>
    <path id="Trazado_118084" data-name="Trazado 118084" d="M30.462,114.27A35.4,35.4,0,0,0,29.228,130.6l-3.7.981s-4.748-5.682-3.688-18.312a18.153,18.153,0,0,1,8.626,1Z" transform="translate(13.551 56.613)" fill="url(#linear-gradient-27)"/>
    <path id="Trazado_118085" data-name="Trazado 118085" d="M21.78,124.84c.127-1.409.317-2.912.6-4.511C24.882,106.4,42.735,95.7,46.929,93.344a.586.586,0,0,1,.855.522L47.2,112.859c-9.955,1.345-14.656,7.027-16.792,13.041a18.154,18.154,0,0,0-8.626-1.06Z" transform="translate(13.608 46.416)" fill="url(#linear-gradient-28)"/>
    <path id="Trazado_118086" data-name="Trazado 118086" d="M128.292,91.69,17.5,153.162a9.053,9.053,0,0,0-3.165,12.946l.491.712a8.5,8.5,0,0,0,11.807,2.311L132.376,98.242Z" transform="translate(8.388 43.949)" fill="url(#linear-gradient-29)"/>
    <path id="Trazado_118087" data-name="Trazado 118087" d="M18.621,143.508H18.51c-3.434-.6-4.495-2.39-4.748-3.8a5.033,5.033,0,0,1,2.453-5.3l9.29-5.46a.358.358,0,1,1,.364.617l-9.29,5.46a4.3,4.3,0,0,0-2.121,4.542c.348,1.725,1.773,2.817,4.21,3.245a.364.364,0,0,1,.269.491.332.332,0,0,1-.317.206Z" transform="translate(8.885 64.53)" fill="#fff" opacity="0.7"/>
    <path id="Trazado_118088" data-name="Trazado 118088" d="M23.241,128.8a.332.332,0,0,1-.364-.174A.348.348,0,0,1,23,128.15l1.2-.712a.358.358,0,0,1,.364.617l-1.2.7A.206.206,0,0,1,23.241,128.8Z" transform="translate(14.22 64.259)" fill="#fff"/>
    <path id="Trazado_118089" data-name="Trazado 118089" d="M100.685,83.79a3.45,3.45,0,0,1,4.637,1.947l.427,1.219a3.387,3.387,0,0,1-1.393,4.068L100.78,93.27l-2.96-8.182Z" transform="translate(49.368 42.228)" fill="url(#linear-gradient-30)"/>
    <path id="Trazado_118090" data-name="Trazado 118090" d="M69.641,51.362C132.569,101.6,142.271,162.783,143.584,174.4a2.96,2.96,0,0,1-1.472,2.944,1,1,0,0,1-1.393-.4L110.332,125a2.374,2.374,0,0,0-3.165-.617L98.4,129.515a2.279,2.279,0,0,1-3.165-.7l-7.043-12.06a2.263,2.263,0,0,1,.918-3.023l8.768-5.112a2.39,2.39,0,0,0,1.013-3.165L68.059,52.533a.9.9,0,0,1,.3-1.3,1.092,1.092,0,0,1,1.282.127Z" transform="translate(32.876 23.43)" fill="url(#linear-gradient-31)"/>
    <path id="Trazado_118091" data-name="Trazado 118091" d="M119.389,139.73h0c.285,0,.506-.174.443-.475-4.194-24.215-17.315-44.189-17.41-44.315a.506.506,0,0,0-.728-.111.57.57,0,0,0-.142.76c.127.19,13.12,19.942,17.283,43.92C118.851,139.715,119.1,139.778,119.389,139.73Z" transform="translate(50.87 46.71)" fill="#fff" opacity="0.7"/>
    <path id="Trazado_118092" data-name="Trazado 118092" d="M27.887,123h4.574s-3.719,2.232-3.846,4.574a23.44,23.44,0,0,0,2.232,8.5c.807,1.456-10.367-2.137-6.426-13.073Z" transform="translate(14.655 61.661)" fill="url(#linear-gradient-32)"/>
    <path id="Trazado_118093" data-name="Trazado 118093" d="M71.013,112.995a2.39,2.39,0,0,0,1.583-1.345c.57-1.266,1.2-3.308-.158-3.925-2.042-.934-5.745,2.865-5.745,2.865l-1.8,2.928h0a.475.475,0,0,0,.253.886,32.3,32.3,0,0,0,5.872-1.409Z" transform="translate(32.921 54.243)" fill="url(#linear-gradient-33)"/>
    <path id="Trazado_118094" data-name="Trazado 118094" d="M139.25,110.5s7.913,18.28,12.8,15.827,8.546-22.553,8.546-22.553S145.359,100.138,139.25,110.5Z" transform="translate(69.356 51.545)" fill="url(#linear-gradient-34)"/>
    <path id="Trazado_118095" data-name="Trazado 118095" d="M164.632,179.51s.665,3.751.981,7.454a2.564,2.564,0,0,1-2.437,2.786c-4.954.206-15.526.6-19.325.427a.823.823,0,0,1-.728-1.14h0a1.836,1.836,0,0,1,.95-1l17.41-8.04Z" transform="translate(71.176 88.515)" fill="url(#linear-gradient-35)"/>
    <path id="Trazado_118096" data-name="Trazado 118096" d="M159.092,178.376l-.538,4.479s-3.055,1.424-5.144-.174l1.266-5Z" transform="translate(77.023 87.448)" fill="url(#linear-gradient-36)"/>
    <path id="Trazado_118097" data-name="Trazado 118097" d="M158.589,124.82c.222,1.171,1.234,58.465-4.89,84.152a.886.886,0,0,0,.506,1.013A15.51,15.51,0,0,0,159.19,211a1.583,1.583,0,0,0,1.488-1.076c1.757-5.967,10.145-35.816,11.237-64.32,1.219-31.86,0-1.092,0-1.092L171.2,124.82Z" transform="translate(76.57 56.647)" fill="url(#linear-gradient-37)"/>
    <path id="Trazado_118098" data-name="Trazado 118098" d="M171.985,180.75a27.271,27.271,0,0,1,2.073,6.916,1.583,1.583,0,0,1-1.377,1.868c-1.583.158-4.147.364-6.157.348a1.583,1.583,0,0,1-1.583-1.725,13.041,13.041,0,0,1,3.055-7.2Z" transform="translate(80.023 89.237)" fill="url(#linear-gradient-38)"/>
    <path id="Trazado_118099" data-name="Trazado 118099" d="M171.806,177.2l-1.234,6.79a4.448,4.448,0,0,1-3.672.237l.6-7.3Z" transform="translate(81.168 87.011)" fill="url(#linear-gradient-39)"/>
    <path id="Trazado_118100" data-name="Trazado 118100" d="M181.209,127.1c5.017,30.229-1.076,74.719-3.165,83.423a1.329,1.329,0,0,1-1.092,1.029,8.894,8.894,0,0,1-3.925-.158,1.219,1.219,0,0,1-.886-1.14c-.285-7.043.222-50.25-4.447-67.328a3.846,3.846,0,0,0-1.5-2.137l-9.053-6.442-.7-10.414Z" transform="translate(75.073 56.129)" fill="url(#linear-gradient-40)"/>
    <path id="Trazado_118101" data-name="Trazado 118101" d="M153.914,90.63a84.816,84.816,0,0,1,32.129,2.8c4.479,26.114.776,56.233.776,56.233C175.2,152.7,162.1,147.8,162.1,147.8c-1.931-10.921-10.952-41.625-10.952-41.625C143.817,105.254,149.309,91.089,153.914,90.63Z" transform="translate(69.907 43.968)" fill="url(#linear-gradient-41)"/>
    <path id="Trazado_118102" data-name="Trazado 118102" d="M168.24,106.775,174,92.23s14.023,9.5,16.318,21.6a33.236,33.236,0,0,0-12.187,3.276C177.1,111.4,168.24,106.775,168.24,106.775Z" transform="translate(81.948 46.136)" fill="url(#linear-gradient-42)"/>
    <path id="Trazado_118103" data-name="Trazado 118103" d="M160.5,112.5s15.732,8.895,21.05,1.3c1.108-1.583,2.722-3.83,2.453-5.334a29.644,29.644,0,0,1,12.044-2.58c.7,3.64-.886,7.518-3.023,11.427-9.306,17.03-34.613-.934-34.613-.934Z" transform="translate(76.221 53.033)" fill="url(#linear-gradient-43)"/>
    <path id="Trazado_118104" data-name="Trazado 118104" d="M175.4,129.141,166.8,99.07a.886.886,0,0,0-.728-.633c-1.583-.174-6.078-.681-11.285-1.124a127.016,127.016,0,0,0-17.9-.6.886.886,0,0,0-.728,1.266c2.485,5,12.661,25.323,17.758,32.049a.886.886,0,0,0,.712.348l19.926-.174a.886.886,0,0,0,.839-1.06Z" transform="translate(66.991 48.013)" fill="url(#linear-gradient-44)"/>
    <path id="Trazado_118105" data-name="Trazado 118105" d="M162.2,116.373a1.377,1.377,0,0,0,1.583-1.124,16.033,16.033,0,0,0,.475-5.555c-.475-1.757-1.409-4-4.526-3.5a45.264,45.264,0,0,0-6.806,1.8,1.8,1.8,0,0,0,2.564,1.583l-1.472,1.14s.206,1.82,2.216.839l-1.377,1.5a1.583,1.583,0,0,0,2.342.538C158.454,112.733,159.15,116.025,162.2,116.373Z" transform="translate(76.537 53.419)" fill="url(#linear-gradient-45)"/>
    <path id="Trazado_118106" data-name="Trazado 118106" d="M141.092,112.679s-3.624-3.529-4.147-5.27-.918-4.131,1.978-5.365a45.61,45.61,0,0,1,6.726-2.073,1.788,1.788,0,0,1-1.345,2.659l1.852.19s.791,1.583-1.424,1.883l1.963.554A1.583,1.583,0,0,1,145,106.95C143.244,106.855,144.938,110.906,141.092,112.679Z" transform="translate(68.498 50.302)" fill="url(#linear-gradient-46)"/>
    <path id="Trazado_118107" data-name="Trazado 118107" d="M163.987,82.76l4.748,13.817a.475.475,0,0,1-.237.586,11.19,11.19,0,0,1-11.633-.776,2.342,2.342,0,0,1-1.092-1.678L154.19,82.76Z" transform="translate(77.017 41.724)" fill="url(#linear-gradient-47)"/>
    <path id="Trazado_118108" data-name="Trazado 118108" d="M155.515,74.68s-5.239,9.86-4.574,13.849,7.185,3.7,12.851.475l3.973-10.651Z" transform="translate(75.281 37.712)" fill="url(#linear-gradient-48)"/>
    <path id="Trazado_118109" data-name="Trazado 118109" d="M162.489,86.37a.411.411,0,0,1-.174-.6,10.383,10.383,0,0,0,1.456-3.165s.95-.617-2.39-1.409-7.5-.19-8.562-3.039,4.558-5.381,5.128-6.046c.174-.19.475.222.649,0a4.194,4.194,0,0,1,5.112-1.583,3.846,3.846,0,0,1,2.627,3.719.4.4,0,0,0,.475.411c1.219-.237,2.5-.095,3.862,2.881,1.124,2.469,2.01,3.514,1.345,4.194a.427.427,0,0,0,.174.681c.807.237-.918.506-1.013,2.374-.142,2.58-.285,2.77-1.108,2.643a.459.459,0,0,0-.364.127c-.7.791-3.878,4.1-7.312,4.495a.411.411,0,0,1-.427-.538l1.488-4.321a.412.412,0,0,0-.222-.506Z" transform="translate(76.039 35.4)" fill="url(#linear-gradient-49)"/>
    <path id="Trazado_118110" data-name="Trazado 118110" d="M158.935,81.278s3.735-2.564,4-.411-3.371,3.165-5.16,2.327Z" transform="translate(79.213 40.644)" fill="url(#linear-gradient-50)"/>
    <path id="Trazado_118111" data-name="Trazado 118111" d="M152.341,72.9l16.618,17.251a.443.443,0,0,0,.76-.174l.38-1.314s8.911-6.711,1.931-14.941-17.568-1.583-17.568-1.583l-1.868.111a.38.38,0,0,0-.253.649Z" transform="translate(75.685 35.129)" fill="url(#linear-gradient-51)"/>
  </g>
</svg>
