<svg xmlns="http://www.w3.org/2000/svg" width="300" height="300" viewBox="0 0 300 300">
  <g id="Grupo_55519" data-name="Grupo 55519" transform="translate(-245 -7321)">
    <g id="CF1_empresa_copia_2" data-name="CF1_empresa copia 2" transform="translate(245 7321)">
      <rect id="Rectángulo_6428" data-name="Rectángulo 6428" width="300" height="300" fill="none"/>
      <path id="Trazado_111734" data-name="Trazado 111734" d="M42.39,32.75S18.31,31.58,31.08,105c0,0,8.6,24.91-2.25,41H188.49V32.75Z" fill="#b5abdb"/>
      <path id="Trazado_111735" data-name="Trazado 111735" d="M201.77,80.76S191,85.5,187.65,97.52l1.64.53s5.77-11.93,12.2-15.65S201.77,80.76,201.77,80.76Z" fill="#599dad"/>
      <rect id="Rectángulo_6429" data-name="Rectángulo 6429" width="166.69" height="217.39" transform="translate(52.51 76.18)" fill="#9abcef"/>
      <rect id="Rectángulo_6430" data-name="Rectángulo 6430" width="163.89" height="217.39" transform="translate(57.96 76.18)" fill="#f1eefd"/>
      <path id="Trazado_111736" data-name="Trazado 111736" d="M221.85,76.18H58c.91-12.39-.46-21.39-2.65-27.86-4.2-12.45-11.44-15.57-11.44-15.57H198.43c13.19,0,23.42,8,26.21,18.5.1.4.2.79.28,1.19C227.56,64.5,222,76,221.85,76.18Z" fill="#f1eefd"/>
      <path id="Trazado_111737" data-name="Trazado 111737" d="M221.85,76.18H58c.91-12.39-.46-21.39-2.65-27.86,16.75,3.06,58.23,9.6,102.63,8.5,28.73-.71,51.43-2.64,67-4.38C227.56,64.5,222,76,221.85,76.18Z" fill="#dad5ed"/>
      <rect id="Rectángulo_6431" data-name="Rectángulo 6431" width="90.16" height="4.08" rx="1.53" transform="translate(90.02 122.23)" fill="#bbd5fc"/>
      <rect id="Rectángulo_6432" data-name="Rectángulo 6432" width="56.18" height="4.08" rx="1.53" transform="translate(90.02 129.09)" fill="#bbd5fc"/>
      <path id="Trazado_111738" data-name="Trazado 111738" d="M81.65,132.51v-8.33h-1.1c-.66,0-1-.27-1-.83,0-.4.26-.68.79-.85a5.4,5.4,0,0,1,1.27-.2c.58,0,1-.07,1.41-.07s.56.07.65.21a2.49,2.49,0,0,1,.13,1.06v9h1.13c.74,0,1.1.32,1.1,1s-.36,1-1.1,1H80.37a1.29,1.29,0,0,1-.81-.26.85.85,0,0,1-.32-.72c0-.65.37-1,1.11-1Z" fill="#bbd5fc"/>
      <rect id="Rectángulo_6433" data-name="Rectángulo 6433" width="90.16" height="4.08" rx="1.53" transform="translate(90.02 165.17)" fill="#d2e4fd"/>
      <rect id="Rectángulo_6434" data-name="Rectángulo 6434" width="56.18" height="4.08" rx="1.53" transform="translate(90.02 172.03)" fill="#d2e4fd"/>
      <path id="Trazado_111739" data-name="Trazado 111739" d="M86.2,175.27c0,.56-.38.83-1.16.83H80.21c-.69,0-1-.28-1-.84a1,1,0,0,1,.28-.61l1.2-1.42c.81-1,1.48-1.88,2-2.62.19-.24.45-.61.8-1.11a2.79,2.79,0,0,0,.42-1.27,1.29,1.29,0,0,0-.37-.95,1.24,1.24,0,0,0-.94-.38,1.44,1.44,0,0,0-1,.36,1.67,1.67,0,0,0-.44.88,9.93,9.93,0,0,1-.27,1,.72.72,0,0,1-.72.47.82.82,0,0,1-.69-.32,1.09,1.09,0,0,1-.23-.74,3.46,3.46,0,0,1,.16-1,3.09,3.09,0,0,1,1.25-1.74,3.65,3.65,0,0,1,2.07-.57A3.21,3.21,0,0,1,85,166a2.84,2.84,0,0,1,.93,2.18,3.83,3.83,0,0,1-.66,2c-.25.38-.75,1.06-1.52,2-.39.5-1,1.23-1.85,2.18h3.18C85.82,174.41,86.2,174.7,86.2,175.27Z" fill="#d2e4fd"/>
      <rect id="Rectángulo_6435" data-name="Rectángulo 6435" width="90.16" height="4.08" rx="1.53" transform="translate(90.02 200.98)" fill="#d2e4fd"/>
      <rect id="Rectángulo_6436" data-name="Rectángulo 6436" width="56.18" height="4.08" rx="1.53" transform="translate(90.02 207.84)" fill="#d2e4fd"/>
      <path id="Trazado_111740" data-name="Trazado 111740" d="M86.2,208.5a3.17,3.17,0,0,1-1.09,2.5,3.9,3.9,0,0,1-2.64.9,3.68,3.68,0,0,1-2.1-.59A2.67,2.67,0,0,1,79,209.09a1,1,0,0,1,.24-.65.8.8,0,0,1,.62-.27,1,1,0,0,1,.74.53c.37.58.58.9.64,1a1.69,1.69,0,0,0,1.28.53,1.61,1.61,0,0,0,1.51-.78,2.12,2.12,0,0,0,.21-1c0-1-.58-1.53-1.73-1.64-.66-.06-1-.33-1-.82a.79.79,0,0,1,.57-.77l1.07-.41a1.44,1.44,0,0,0,.57-1.31,1.18,1.18,0,0,0-.33-.88,1.22,1.22,0,0,0-.88-.32,1.62,1.62,0,0,0-1.08.33,2.18,2.18,0,0,0-.56,1,.69.69,0,0,1-.69.53.7.7,0,0,1-.59-.32,1.17,1.17,0,0,1-.23-.69,2,2,0,0,1,.25-.94,2.89,2.89,0,0,1,1.3-1.21,3.78,3.78,0,0,1,1.74-.41,3.08,3.08,0,0,1,2.13.77,2.63,2.63,0,0,1,.85,2,2.79,2.79,0,0,1-1.26,2.41A2.73,2.73,0,0,1,86.2,208.5Z" fill="#d2e4fd"/>
      <rect id="Rectángulo_6437" data-name="Rectángulo 6437" width="57.51" height="4.74" rx="1.77" transform="translate(112.61 85.89)" fill="#bbd5fc"/>
      <rect id="Rectángulo_6438" data-name="Rectángulo 6438" width="86.51" height="4.74" rx="1.77" transform="translate(98.11 93.19)" fill="#bbd5fc"/>
      <path id="Trazado_111741" data-name="Trazado 111741" d="M135,148.29c-17.85,0-34.79-2.24-47.42-5.44S68,134.33,68,129.64c0-4.25,5.6-8.16,16.2-11.31h0c-10.15,3-15.59,7.44-15.59,11.31,0,4.29,7,8.53,19.32,11.64,12.59,3.19,29.32,4.95,47.13,4.95s34.55-1.76,47.14-4.95c12.27-3.11,19.31-7.35,19.31-11.64,0-4.54-7.41-10.19-19.35-14.73-13.57-5.17-30.29-7.09-47.1-7.09-31.55,0-44.53,3.69-55.8,8.3h0c11.32-4.63,24.14-9.89,55.8-9.89,16.87,0,33.67,2.86,47.31,8,12.18,4.64,19.75,10.53,19.75,15.36s-7,9.05-19.79,12.29S152.87,148.29,135,148.29Z" fill="#ef2a66"/>
      <path id="Trazado_111742" data-name="Trazado 111742" d="M243.43,190.15s-.59,5.71-1.23,6.79-3.39,4.54-4.56,5.22.71-4.55.47-5.57-1,1.86-1.48,1.92-.38-2.52-.4-3.46,2.51-3.26,3.4-5.27S243.43,190.15,243.43,190.15Z" fill="#ffb27d"/>
      <path id="Trazado_111743" data-name="Trazado 111743" d="M173.21,137.43,171.9,135s.65-4.41-4.89-7.21a2.7,2.7,0,0,0-3.16.83c-1,1.52,2,1.24,1.84,3.84a4.8,4.8,0,0,0,2.79,5L169.9,139Z" fill="#ffb27d"/>
      <path id="Trazado_111744" data-name="Trazado 111744" d="M225.51,131.51s-4.75,23.32-30.91,30.94c-8.16,2.38-26.71-24.49-26.71-24.49s.66-2.48,4.74-1.91c0,0,18.06,11.95,20.33,13.25,2,1.15,15.29-14.81,21.33-17.39a15.47,15.47,0,0,1,11.22-.4Z" fill="#fd8f25"/>
      <rect id="Rectángulo_6439" data-name="Rectángulo 6439" width="4.88" height="24.57" transform="matrix(0.152, -0.988, 0.988, 0.152, 155.163, 131.743)" fill="#c65447"/>
      <path id="Trazado_111745" data-name="Trazado 111745" d="M149.9,128.47l5.28,3.28.74-4.83Z" fill="#ffb27d"/>
      <path id="Trazado_111746" data-name="Trazado 111746" d="M182.78,132.69l-.23,1.52a1.72,1.72,0,0,1-2,1.44l-1.13-.17.74-4.83,1.23.19a1.61,1.61,0,0,1,1.39,1.85Z" fill="#ffb27d"/>
      <path id="Trazado_111747" data-name="Trazado 111747" d="M256.73,278.14s3.24,3,2.61,5.06-3.56,3.51-4,6.08-2,4-3.4,4h-6.79s-1.05-1.81,1.49-2.35,3.48-3.57,3.32-6.37a50.882,50.882,0,0,1,.24-6.55l5.38-1.25Z" fill="#233862"/>
      <path id="Trazado_111748" data-name="Trazado 111748" d="M216.93,285.79s.58,6.74-.84,7.44H197.86s0-2.11,2.93-2.58,8.07-2.18,8.94-6S216.93,285.79,216.93,285.79Z" fill="#233862"/>
      <path id="Trazado_111749" data-name="Trazado 111749" d="M201.54,190.61s1,11.81,2.09,26c1.54,19.29,3.38,43,3.57,47.47.31,7.79,1.58,20.25,1.58,20.25s3,3,9,1.72a201.232,201.232,0,0,0,6.89-36.63c0-.3.05-.62.07-.93,1.43-19.16,3.64-59.52,3.64-59.52Z" fill="#12263f"/>
      <path id="Trazado_111750" data-name="Trazado 111750" d="M201.54,190.61s1,11.81,2.09,26l21.06,32.81c0-.3.05-.62.07-.93,1.43-19.16,3.64-59.52,3.64-59.52Z" fill="#12263f"/>
      <path id="Trazado_111751" data-name="Trazado 111751" d="M205.93,192s17.33,42.78,28.72,62.88,15,25.71,15,25.71,6.53-2.57,7.12-4.32c0,0-4.36-38.81-12-48.27-4.31-5.34-9.37-21.39-9.61-27s-1.55-16.71-1.55-16.71Z" fill="#2a546d"/>
      <path id="Trazado_111752" data-name="Trazado 111752" d="M228.73,126.09s-11.73,5.66-18.49,3.56a16,16,0,0,1,4.58-3.66c-.23-1.36-.42-2.53-.52-3.53a32.294,32.294,0,0,1-.29-3.61l4.53-3.56,4.29-3.4C222.49,121.46,228.73,126.09,228.73,126.09Z" fill="#ffb27d"/>
      <path id="Trazado_111753" data-name="Trazado 111753" d="M234.91,186.49c0,.72-1.51,1.54-2.19,1.84a47.5,47.5,0,0,1-15,4.25c-6.26.64-13.67-.76-16.22-.71a1.05,1.05,0,0,1-.7-.28c-.18-.13-.31-7.68-.18-17.18v-1.28c.05-3.71.18-7.6.37-11.5.36-8.55,1-16.79,2.18-21.35a23.23,23.23,0,0,1,7.33-11.52l2.34-2a11.27,11.27,0,0,0,7.28-.87c2.71-1.31,5.62-2.72,6.09-2.36,3.53,2.59,5.92,8.4,7.2,15.82a82.759,82.759,0,0,1,1.06,14.08c0,1.84-.05,3.74-.15,5.61a176.635,176.635,0,0,0,.36,24C234.8,184.52,234.88,185.67,234.91,186.49Z" fill="#fda551"/>
      <path id="Trazado_111754" data-name="Trazado 111754" d="M234.7,186c-41.06-.09-7.57-44.56-7.57-44.56l6.65-2.16a128.129,128.129,0,0,1,.77,15c0,2,0,4-.11,6C234,171.17,234.44,180.58,234.7,186Z" fill="#fd8f25"/>
      <path id="Trazado_111755" data-name="Trazado 111755" d="M222.91,115.55s-3,5.4-8.61,6.91a32.294,32.294,0,0,1-.29-3.61l4.53-3.56Z" fill="#ed985f"/>
      <path id="Trazado_111756" data-name="Trazado 111756" d="M212,118.69s11.19,1.83,12.24-5,3.2-11.28-3.9-12.73-8.89,1-9.81,3.17S209.07,118,212,118.69Z" fill="#ffb27d"/>
      <path id="Trazado_111757" data-name="Trazado 111757" d="M228.25,100.09c.1-.11.34-.21.86-.24a2.1,2.1,0,0,0-1-.27,2.62,2.62,0,0,0-1.75-2.32,1.58,1.58,0,0,1,.76,1.13c-1.44-1.49-4.54-2.57-13.11-1.89-11.3.89-7.58,8.13-6.11,9s5.14-1.5,7.87-1.29,3.24,4.16,4.16,4.7.57-.42,1.82-1,1.37,1.5,1,2.85,1.36,3.13,1.36,3.13l1.74-1.87c1.74-1.87,3.37-9.8,2.58-11.49A3.727,3.727,0,0,0,228.25,100.09Z" fill="#2c3a64"/>
      <path id="Trazado_111758" data-name="Trazado 111758" d="M226.22,123.43s7.08,3.36,10.47,8.51c5.26,8,11.37,37.12,11.48,39.81s-4.46,21.74-4.46,21.74-4.63-.3-5.82-2.64c0,0,.92-19.57.34-20.82s-19.31-26.25-17.2-31.58S226.22,123.43,226.22,123.43Z" fill="#fda551"/>
      <path id="Trazado_111759" data-name="Trazado 111759" d="M171.87,134.84s.39-1.52-.67-2.21-2-2.54-2.47-2.29c-.92.52.51,2.15.25,4.17C168.89,135.22,170.53,137.07,171.87,134.84Z" fill="#ffb27d"/>
      <path id="Trazado_111760" data-name="Trazado 111760" d="M224.22,284.94s5.07-17.6,11-15.53S224.22,284.94,224.22,284.94Z" fill="#a8d29f"/>
      <path id="Trazado_111761" data-name="Trazado 111761" d="M228.84,284s12.92-8.48,15.76-5.86S228.84,284,228.84,284Z" fill="#a8d29f"/>
      <path id="Trazado_111762" data-name="Trazado 111762" d="M184.69,246.3H83.91a1.23,1.23,0,0,1-1.22-1.23h0a1.23,1.23,0,0,1,1.22-1.23H184.69a1.24,1.24,0,0,1,1.23,1.23h0a1.24,1.24,0,0,1-1.23,1.23Z" fill="#d2e4fd"/>
      <path id="Trazado_111763" data-name="Trazado 111763" d="M184.69,251.21H83.91A1.23,1.23,0,0,1,82.69,250h0a1.23,1.23,0,0,1,1.22-1.23H184.69a1.23,1.23,0,0,1,1.23,1.23h0a1.24,1.24,0,0,1-1.23,1.21Z" fill="#d2e4fd"/>
      <path id="Trazado_111764" data-name="Trazado 111764" d="M184.69,256.65H83.91a1.23,1.23,0,0,1-1.22-1.23h0a1.23,1.23,0,0,1,1.22-1.23H184.69a1.23,1.23,0,0,1,1.23,1.23h0A1.24,1.24,0,0,1,184.69,256.65Z" fill="#d2e4fd"/>
      <rect id="Rectángulo_6440" data-name="Rectángulo 6440" width="89.92" height="2.45" rx="0.92" transform="translate(82.69 259.63)" fill="#d2e4fd"/>
    </g>
  </g>
</svg>
