<svg xmlns="http://www.w3.org/2000/svg" width="760" height="540" viewBox="0 0 760 540">
  <g id="Grupo_55211" data-name="Grupo 55211" transform="translate(-622 -5671)">
    <g id="CF1_slide_copia" data-name="CF1_slide copia" transform="translate(622 5671)">
      <g id="Layer_1" data-name="Layer 1">
        <rect id="Rectángulo_6189" data-name="Rectángulo 6189" width="760" height="540" fill="#f1eefd"/>
        <path id="Trazado_110541" data-name="Trazado 110541" d="M30.55,336c13.1-29.46,41.47-44.75,70.38-50.2,35.22-6.65,65-12.73,78.4-52.17,11.95-35.3,10.24-74.79,21.81-109.69,10-30.14,30.6-51,59.27-59.84,27.07-8.38,55.39-6.27,82.75-12.5,23.75-5.41,51.61-24.67,63.58-46.62,1.93-3.54.92-1.65,2-4.93H0V540H46c16.73-41.3,8.38-72.3-5-105.77C28.36,402.56,15.61,369.54,30.55,336Z" fill="#dad5ed"/>
        <path id="Trazado_110542" data-name="Trazado 110542" d="M0,0V540H51.35c17-43.52,6.51-77-5.71-107.63C34,403.21,20.81,370.17,35.12,338c14.67-33,48.11-43.8,66.74-47.32,34.84-6.57,67.75-12.78,82.21-55.48,6.2-18.31,8.82-37.77,11.35-56.59,2.41-17.86,4.9-36.33,10.47-53.13,9.49-28.65,28.85-48.23,56-56.63,14.58-4.51,29.36-5.86,45-7.29,12.26-1.12,24.94-2.28,37.38-5.11,26.52-6,54.63-26.69,66.86-49.1l.11-.2A14.3,14.3,0,0,0,413,3.21c.07-.28.17-.66.48-1.6L414.05,0Z" fill="#cec8e8"/>
        <path id="Trazado_110543" data-name="Trazado 110543" d="M30.55,336c13.1-29.46,41.47-44.75,70.38-50.2,35.22-6.65,65-12.73,78.4-52.17,11.95-35.3,10.24-74.79,21.81-109.69,10-30.13,30.6-51,59.27-59.84,27.07-8.38,55.39-6.27,82.75-12.5,23.75-5.41,51.61-24.67,63.58-46.62,1.93-3.54.92-1.65,2-4.93H0V540H46c16.73-41.3,8.38-72.3-5-105.77C28.36,402.56,15.61,369.54,30.55,336Z" fill="#fff"/>
        <rect id="Rectángulo_6190" data-name="Rectángulo 6190" width="25.08" height="75.7" transform="translate(356.4 167.27)" fill="#f8a9c1"/>
        <rect id="Rectángulo_6191" data-name="Rectángulo 6191" width="25.08" height="15.63" transform="translate(356.4 170.84)" fill="#576286" opacity="0.3"/>
        <path id="Trazado_110544" data-name="Trazado 110544" d="M416.13,164a1,1,0,0,1-1-1c0-2.08.33-50.82,28.7-51.15h8.26a1,1,0,0,1,1,1v3.79a1,1,0,0,1-2,0v-2.8h-7.26c-26.42.31-26.73,48.68-26.73,49.17a1,1,0,0,1-.97.99Z" fill="#708598"/>
        <path id="Trazado_110545" data-name="Trazado 110545" d="M438,164a1,1,0,0,1-1-1c0-2.08.32-50.82,28.7-51.15h8.26a1,1,0,0,1,1,1v3.79a1,1,0,0,1-2,0v-2.8H465.7c-26.44.28-26.7,48.65-26.7,49.16A1,1,0,0,1,438,164Z" fill="#708598"/>
        <rect id="Rectángulo_6192" data-name="Rectángulo 6192" width="50.75" height="17.49" transform="translate(436.99 165.95)" fill="#f8a9c1"/>
        <path id="Trazado_110546" data-name="Trazado 110546" d="M440.76,194.81h-1.25V177.32h2.95Z" fill="#f8a9c1"/>
        <path id="Trazado_110547" data-name="Trazado 110547" d="M483.97,194.81h1.25V177.32h-2.96Z" fill="#f8a9c1"/>
        <rect id="Rectángulo_6193" data-name="Rectángulo 6193" width="147.18" height="16.5" transform="translate(345.18 157.04)" fill="#f8a9c1"/>
        <rect id="Rectángulo_6194" data-name="Rectángulo 6194" width="7.92" height="36.47" transform="translate(447.81 120.57)" fill="#5c708d"/>
        <rect id="Rectángulo_6195" data-name="Rectángulo 6195" width="12.87" height="2.06" transform="translate(445.33 154.98)" fill="#5c708d"/>
        <rect id="Rectángulo_6196" data-name="Rectángulo 6196" width="10.89" height="7.67" transform="translate(446.32 141.61)" fill="#5c708d"/>
        <rect id="Rectángulo_6197" data-name="Rectángulo 6197" width="10.89" height="7.67" transform="translate(446.32 132.7)" fill="#5c708d"/>
        <rect id="Rectángulo_6198" data-name="Rectángulo 6198" width="4.95" height="7.67" transform="translate(449.29 116.61)" fill="#5c708d"/>
        <rect id="Rectángulo_6199" data-name="Rectángulo 6199" width="6.93" height="2.06" transform="translate(446.7 154.98)" fill="#6c58b7"/>
        <rect id="Rectángulo_6200" data-name="Rectángulo 6200" width="4.62" height="4.5" transform="translate(448.55 150.03)" fill="#6c58b7"/>
        <rect id="Rectángulo_6201" data-name="Rectángulo 6201" width="4.62" height="11.76" transform="translate(448.55 120.55)" fill="#6c58b7"/>
        <rect id="Rectángulo_6202" data-name="Rectángulo 6202" width="3.2" height="3.65" transform="translate(449.98 116.59)" fill="#6c58b7"/>
        <rect id="Rectángulo_6203" data-name="Rectángulo 6203" width="6.85" height="7.67" transform="translate(447.07 141.61)" fill="#6c58b7"/>
        <rect id="Rectángulo_6204" data-name="Rectángulo 6204" width="6.85" height="7.67" transform="translate(447.07 132.7)" fill="#6c58b7"/>
        <rect id="Rectángulo_6205" data-name="Rectángulo 6205" width="7.92" height="36.47" transform="translate(469.8 120.57)" fill="#5c708d"/>
        <rect id="Rectángulo_6206" data-name="Rectángulo 6206" width="12.87" height="2.06" transform="translate(467.32 154.98)" fill="#5c708d"/>
        <rect id="Rectángulo_6207" data-name="Rectángulo 6207" width="10.89" height="7.67" transform="translate(468.31 141.61)" fill="#5c708d"/>
        <rect id="Rectángulo_6208" data-name="Rectángulo 6208" width="10.89" height="7.67" transform="translate(468.31 132.7)" fill="#5c708d"/>
        <rect id="Rectángulo_6209" data-name="Rectángulo 6209" width="4.95" height="7.67" transform="translate(471.28 116.61)" fill="#5c708d"/>
        <rect id="Rectángulo_6210" data-name="Rectángulo 6210" width="6.93" height="2.06" transform="translate(468.68 154.98)" fill="#6c58b7"/>
        <rect id="Rectángulo_6211" data-name="Rectángulo 6211" width="4.62" height="4.5" transform="translate(470.54 150.03)" fill="#6c58b7"/>
        <rect id="Rectángulo_6212" data-name="Rectángulo 6212" width="4.62" height="11.76" transform="translate(470.54 120.55)" fill="#6c58b7"/>
        <rect id="Rectángulo_6213" data-name="Rectángulo 6213" width="3.2" height="3.65" transform="translate(471.96 116.59)" fill="#6c58b7"/>
        <rect id="Rectángulo_6214" data-name="Rectángulo 6214" width="6.85" height="7.67" transform="translate(469.05 141.61)" fill="#6c58b7"/>
        <rect id="Rectángulo_6215" data-name="Rectángulo 6215" width="6.85" height="7.67" transform="translate(469.05 132.7)" fill="#6c58b7"/>
        <rect id="Rectángulo_6216" data-name="Rectángulo 6216" width="147.18" height="3.3" transform="translate(345.18 170.24)" fill="#576286" opacity="0.3"/>
        <rect id="Rectángulo_6217" data-name="Rectángulo 6217" width="50.75" height="2.31" transform="translate(436.99 181.13)" fill="#576286" opacity="0.3"/>
        <path id="Trazado_110548" data-name="Trazado 110548" d="M475.65,166.15H358.83a2.1,2.1,0,0,1-2.1-2.1h0a2.1,2.1,0,0,1,2.1-2.1H475.65a2.1,2.1,0,0,1,2.11,2.1h0a2.1,2.1,0,0,1-2.11,2.1Z" fill="#576286" opacity="0.3"/>
        <path id="Trazado_110549" data-name="Trazado 110549" d="M360.54,164.05a1.73,1.73,0,1,1-1.73-1.73,1.73,1.73,0,0,1,1.73,1.73Z" fill="#f8a9c1"/>
        <path id="Trazado_110550" data-name="Trazado 110550" d="M365.9,164.05a1.72,1.72,0,1,1-.5-1.226,1.73,1.73,0,0,1,.5,1.226Z" fill="#f8a9c1"/>
        <path id="Trazado_110551" data-name="Trazado 110551" d="M371.27,164.05a1.73,1.73,0,1,1-.51-1.227,1.74,1.74,0,0,1,.51,1.227Z" fill="#f8a9c1"/>
        <path id="Trazado_110552" data-name="Trazado 110552" d="M466.67,164.05a1.74,1.74,0,1,1-1.73-1.73,1.74,1.74,0,0,1,1.73,1.73Z" fill="#f8a9c1"/>
        <path id="Trazado_110553" data-name="Trazado 110553" d="M472,164.05a1.72,1.72,0,1,1-.5-1.226,1.73,1.73,0,0,1,.5,1.226Z" fill="#f8a9c1"/>
        <path id="Trazado_110554" data-name="Trazado 110554" d="M477.39,164.05a1.72,1.72,0,1,1-.5-1.226,1.73,1.73,0,0,1,.5,1.226Z" fill="#f8a9c1"/>
        <path id="Trazado_110555" data-name="Trazado 110555" d="M413.61,164.05a1.72,1.72,0,1,1-.5-1.226,1.73,1.73,0,0,1,.5,1.226Z" fill="#f8a9c1"/>
        <path id="Trazado_110556" data-name="Trazado 110556" d="M419,164.05a1.73,1.73,0,1,1-.51-1.227,1.74,1.74,0,0,1,.51,1.227Z" fill="#f8a9c1"/>
        <path id="Trazado_110557" data-name="Trazado 110557" d="M424.34,164.05a1.74,1.74,0,1,1-1.73-1.73A1.74,1.74,0,0,1,424.34,164.05Z" fill="#f8a9c1"/>
        <rect id="Rectángulo_6218" data-name="Rectángulo 6218" width="546.85" height="172.64" transform="translate(111.79 268.64)" fill="#9081c9"/>
        <rect id="Rectángulo_6219" data-name="Rectángulo 6219" width="57.81" height="40.39" transform="translate(523.22 365.3)" fill="#b4aada"/>
        <rect id="Rectángulo_6220" data-name="Rectángulo 6220" width="48.84" height="31.94" transform="translate(527.71 369.52)" fill="#9081c9"/>
        <rect id="Rectángulo_6221" data-name="Rectángulo 6221" width="46.2" height="29.18" transform="translate(529.03 370.9)" fill="#b4aada"/>
        <path id="Trazado_110558" data-name="Trazado 110558" d="M529.03,400.08V370.9h46.19Z" fill="#b4aada" opacity="0.2"/>
        <path id="Trazado_110559" data-name="Trazado 110559" d="M534.11,380.15v10.69S540.51,385.49,534.11,380.15Z" fill="#5c6c7f"/>
        <path id="Trazado_110560" data-name="Trazado 110560" d="M523.22,377.25H500.44V268.64h2.26V374.99h20.52Z" fill="#3d4b60"/>
        <path id="Trazado_110561" data-name="Trazado 110561" d="M523.22,383.58H494.37V268.64h2.26V381.33h26.59Z" fill="#3d4b60"/>
        <rect id="Rectángulo_6222" data-name="Rectángulo 6222" width="2.26" height="35.6" transform="translate(553.24 405.68)" fill="#3d4b60"/>
        <rect id="Rectángulo_6223" data-name="Rectángulo 6223" width="2.26" height="35.6" transform="translate(560.63 405.68)" fill="#3d4b60"/>
        <rect id="Rectángulo_6224" data-name="Rectángulo 6224" width="3.43" height="1.72" transform="translate(552.69 405.69)" fill="#3d4b60"/>
        <rect id="Rectángulo_6225" data-name="Rectángulo 6225" width="3.43" height="1.72" transform="translate(523.24 380.79) rotate(90)" fill="#3d4b60"/>
        <rect id="Rectángulo_6226" data-name="Rectángulo 6226" width="3.43" height="1.72" transform="translate(523.23 374.44) rotate(90)" fill="#3d4b60"/>
        <rect id="Rectángulo_6227" data-name="Rectángulo 6227" width="3.43" height="1.72" transform="translate(560.07 405.69)" fill="#3d4b60"/>
        <rect id="Rectángulo_6228" data-name="Rectángulo 6228" width="3.43" height="4.98" transform="translate(552.69 419.79)" fill="#3d4b60"/>
        <rect id="Rectángulo_6229" data-name="Rectángulo 6229" width="3.43" height="4.98" transform="translate(493.76 328.11)" fill="#3d4b60"/>
        <rect id="Rectángulo_6230" data-name="Rectángulo 6230" width="3.43" height="4.98" transform="translate(499.87 328.11)" fill="#3d4b60"/>
        <rect id="Rectángulo_6231" data-name="Rectángulo 6231" width="3.43" height="4.98" transform="translate(513.34 374.3) rotate(90)" fill="#3d4b60"/>
        <rect id="Rectángulo_6232" data-name="Rectángulo 6232" width="3.43" height="4.98" transform="translate(560.07 419.79)" fill="#3d4b60"/>
        <rect id="Rectángulo_6233" data-name="Rectángulo 6233" width="555.83" height="5.77" transform="translate(107.3 435.52)" fill="#3d4b60"/>
        <path id="Trazado_110562" data-name="Trazado 110562" d="M186.42,208.77l.5-.38a90.306,90.306,0,0,0-11.25-2.56l-.75.64a110.835,110.835,0,0,0-14.9-1c-1.59,0-3.16,0-4.71.1l.41-.68a51.829,51.829,0,0,0-10.12.81l-.77.77h0a87.531,87.531,0,0,0-16.06,3.62l.65-1.2c-5.35,1.76-11.27,6-13,7.32l-.25.19-.31.24h0c-3.56,2.83-5.61,6-5.61,9.37,0,11.16,22.29,8.88,49.78,8.88s49.78,1.93,49.78-8.88C209.8,219.06,200.44,212.52,186.42,208.77Z" fill="#ec9e38"/>
        <path id="Trazado_110563" data-name="Trazado 110563" d="M144.83,206.48s-14.31,16.61-18.28,15.21,2.31-11.61,2.31-11.61a98.849,98.849,0,0,1,15.97-3.6Z" fill="#df8d2d"/>
        <path id="Trazado_110564" data-name="Trazado 110564" d="M155.43,205.57s-9.26,13.28-6,16.76,25.44-15.86,25.44-15.86A166.463,166.463,0,0,0,155.43,205.57Z" fill="#df8d2d"/>
        <path id="Trazado_110565" data-name="Trazado 110565" d="M186.42,208.77s-13.64,11.53-11.23,14.14,21.67-10.47,21.67-10.47S189.53,209.53,186.42,208.77Z" fill="#df8d2d"/>
        <path id="Trazado_110566" data-name="Trazado 110566" d="M207.73,220.47a7.721,7.721,0,0,1,.34,2.06c0,10.43-21.51,8.57-48,8.57S112,233.3,112,222.53a8,8,0,0,1,.32-2.11,9.76,9.76,0,0,0-2.05,5.63c0,11.16,22.29,8.88,49.78,8.88s49.78,1.93,49.78-8.88A9.54,9.54,0,0,0,207.73,220.47Z" fill="#df8d2d"/>
        <path id="Trazado_110567" data-name="Trazado 110567" d="M114.5,219.31c.44-1.29,8.27-7.75,10.49-7s-4.53,12.32-6.8,12.55S113.74,221.52,114.5,219.31Z" fill="#efa843"/>
        <path id="Trazado_110568" data-name="Trazado 110568" d="M197.63,214.2c1.14.08,9,5.77,9.14,8.6s-11.28.07-12.21-2.49S195.69,214.05,197.63,214.2Z" fill="#efa843"/>
        <path id="Trazado_110569" data-name="Trazado 110569" d="M139.77,219.77c-1.55-.82,4.32-12,5.87-12.94s7-.77,7.48-.05S142.74,221.33,139.77,219.77Z" fill="#efa843"/>
        <path id="Trazado_110570" data-name="Trazado 110570" d="M166.94,217.38c-1.3-1.34,7-9.92,8.67-10.29s6.91,1.77,7.17,2.62S169.41,219.93,166.94,217.38Z" fill="#efa843"/>
        <path id="Trazado_110571" data-name="Trazado 110571" d="M129.45,208.9l1.04.69-2.1,1.3Z" fill="#df8d2d"/>
        <path id="Trazado_110572" data-name="Trazado 110572" d="M155.72,204.9l1.02.63-2.67,1.98Z" fill="#df8d2d"/>
        <path id="Trazado_110573" data-name="Trazado 110573" d="M130.49,209.59s-5.31,8.56-3.94,12.1c0,0-4.44-1,2.9-12.79Z" fill="#efa843"/>
        <path id="Trazado_110574" data-name="Trazado 110574" d="M156.74,205.53s-7.8,10.9-7.26,16.8c0,0-3.81-2.15,6.24-17.43Z" fill="#efa843"/>
        <path id="Trazado_110575" data-name="Trazado 110575" d="M186.92,208.39s-14.07,11-11.73,14.52c0,0,.08-4,12.88-13.68Z" fill="#efa843"/>
        <path id="Trazado_110576" data-name="Trazado 110576" d="M131,210.36a51.07,51.07,0,0,1,11.35-2.67s-6.52,7-11.16,6.74C128.77,214.66,131,210.36,131,210.36Z" fill="#e49232"/>
        <path id="Trazado_110577" data-name="Trazado 110577" d="M157,206.29s10.21-.34,15.51.93c0,0-8.11,6.22-14,5.58S157,206.29,157,206.29Z" fill="#e49232"/>
        <path id="Trazado_110578" data-name="Trazado 110578" d="M188.34,210.13s-4.64,4-2.46,5.58,9.17-3.14,9.17-3.14a28.879,28.879,0,0,0-6.71-2.44Z" fill="#e49232"/>
        <path id="Trazado_110579" data-name="Trazado 110579" d="M312.84,208.77l.5-.38a89.9,89.9,0,0,0-11.25-2.56l-.75.64a110.719,110.719,0,0,0-14.9-1c-1.59,0-3.15,0-4.71.1l.41-.68a51.669,51.669,0,0,0-10.11.81l-.78.77h0a87.531,87.531,0,0,0-16.06,3.62l.64-1.2c-5.34,1.76-11.26,6-13,7.32l-.26.19-.31.24h0c-3.56,2.83-5.6,6-5.6,9.37,0,11.16,22.28,8.88,49.77,8.88s49.78,1.93,49.78-8.88C336.22,219.06,326.87,212.52,312.84,208.77Z" fill="#ec9e38"/>
        <path id="Trazado_110580" data-name="Trazado 110580" d="M271.25,206.48S257,223.09,253,221.69s2.31-11.61,2.31-11.61a98.612,98.612,0,0,1,15.94-3.6Z" fill="#df8d2d"/>
        <path id="Trazado_110581" data-name="Trazado 110581" d="M281.86,205.57s-9.27,13.28-6,16.76,25.44-15.86,25.44-15.86a166.226,166.226,0,0,0-19.44-.9Z" fill="#df8d2d"/>
        <path id="Trazado_110582" data-name="Trazado 110582" d="M312.84,208.77s-13.63,11.53-11.22,14.14,21.66-10.47,21.66-10.47S316,209.53,312.84,208.77Z" fill="#df8d2d"/>
        <path id="Trazado_110583" data-name="Trazado 110583" d="M334.16,220.47a8.14,8.14,0,0,1,.34,2.06c0,10.43-21.52,8.57-48.06,8.57s-48.05,2.2-48.05-8.57a8,8,0,0,1,.32-2.11,9.75,9.75,0,0,0-2,5.63c0,11.16,22.28,8.88,49.77,8.88s49.78,1.93,49.78-8.88a9.6,9.6,0,0,0-2.1-5.58Z" fill="#df8d2d"/>
        <path id="Trazado_110584" data-name="Trazado 110584" d="M240.92,219.31c.45-1.29,8.28-7.75,10.5-7s-4.54,12.32-6.81,12.55S240.17,221.52,240.92,219.31Z" fill="#efa843"/>
        <path id="Trazado_110585" data-name="Trazado 110585" d="M324.06,214.2c1.13.08,9,5.77,9.14,8.6s-11.29.07-12.21-2.49S322.11,214.05,324.06,214.2Z" fill="#efa843"/>
        <path id="Trazado_110586" data-name="Trazado 110586" d="M266.2,219.77c-1.56-.82,4.32-12,5.87-12.94s7-.77,7.48-.05S269.17,221.33,266.2,219.77Z" fill="#efa843"/>
        <path id="Trazado_110587" data-name="Trazado 110587" d="M293.36,217.38c-1.29-1.34,7-9.92,8.67-10.29s6.91,1.77,7.17,2.62S295.83,219.93,293.36,217.38Z" fill="#efa843"/>
        <path id="Trazado_110588" data-name="Trazado 110588" d="M255.87,208.9l1.04.69-2.1,1.3Z" fill="#df8d2d"/>
        <path id="Trazado_110589" data-name="Trazado 110589" d="M282.14,204.9l1.03.63-2.67,1.98Z" fill="#df8d2d"/>
        <path id="Trazado_110590" data-name="Trazado 110590" d="M256.91,209.59s-5.3,8.56-3.93,12.1c0,0-4.44-1,2.89-12.79Z" fill="#efa843"/>
        <path id="Trazado_110591" data-name="Trazado 110591" d="M283.17,205.53s-7.81,10.9-7.27,16.8c0,0-3.8-2.15,6.24-17.43Z" fill="#efa843"/>
        <path id="Trazado_110592" data-name="Trazado 110592" d="M313.34,208.39s-14.06,11-11.72,14.52c0,0,.07-4,12.87-13.68Z" fill="#efa843"/>
        <path id="Trazado_110593" data-name="Trazado 110593" d="M257.47,210.36a50.89,50.89,0,0,1,11.34-2.67s-6.52,7-11.15,6.74C255.2,214.66,257.47,210.36,257.47,210.36Z" fill="#e49232"/>
        <path id="Trazado_110594" data-name="Trazado 110594" d="M283.47,206.29s10.21-.34,15.5.93c0,0-8.11,6.22-14,5.58S283.47,206.29,283.47,206.29Z" fill="#e49232"/>
        <path id="Trazado_110595" data-name="Trazado 110595" d="M314.76,210.13s-4.63,4-2.46,5.58,9.17-3.14,9.17-3.14a28.67,28.67,0,0,0-6.71-2.44Z" fill="#e49232"/>
        <path id="Trazado_110596" data-name="Trazado 110596" d="M439.26,208.77l.51-.38a90.312,90.312,0,0,0-11.25-2.56l-.75.64a110.939,110.939,0,0,0-14.9-1c-1.59,0-3.16,0-4.71.1l.41-.68a51.721,51.721,0,0,0-10.12.81l-.77.77h0a87.529,87.529,0,0,0-16.06,3.62l.65-1.2c-5.35,1.76-11.27,6-13,7.32l-.25.19-.32.24h0c-3.55,2.83-5.6,6-5.6,9.37,0,11.16,22.29,8.88,49.78,8.88s49.77,1.93,49.77-8.88C462.64,219.06,453.29,212.52,439.26,208.77Z" fill="#ec9e38"/>
        <path id="Trazado_110597" data-name="Trazado 110597" d="M397.68,206.48s-14.31,16.61-18.28,15.21,2.31-11.61,2.31-11.61a98.849,98.849,0,0,1,15.97-3.6Z" fill="#df8d2d"/>
        <path id="Trazado_110598" data-name="Trazado 110598" d="M408.28,205.57s-9.26,13.28-5.95,16.76,25.43-15.86,25.43-15.86a166.225,166.225,0,0,0-19.48-.9Z" fill="#df8d2d"/>
        <path id="Trazado_110599" data-name="Trazado 110599" d="M439.26,208.77S425.63,220.3,428,222.91s21.67-10.47,21.67-10.47S442.38,209.53,439.26,208.77Z" fill="#df8d2d"/>
        <path id="Trazado_110600" data-name="Trazado 110600" d="M460.58,220.47a7.722,7.722,0,0,1,.34,2.06c0,10.43-21.51,8.57-48.05,8.57s-48.05,2.2-48.05-8.57a8.409,8.409,0,0,1,.31-2.11,9.82,9.82,0,0,0-2,5.63c0,11.16,22.29,8.88,49.78,8.88s49.77,1.93,49.77-8.88A9.53,9.53,0,0,0,460.58,220.47Z" fill="#df8d2d"/>
        <path id="Trazado_110601" data-name="Trazado 110601" d="M367.35,219.31c.44-1.29,8.27-7.75,10.49-7s-4.54,12.32-6.81,12.55S366.59,221.52,367.35,219.31Z" fill="#efa843"/>
        <path id="Trazado_110602" data-name="Trazado 110602" d="M450.48,214.2c1.14.08,9,5.77,9.14,8.6s-11.28.07-12.21-2.49S448.53,214.05,450.48,214.2Z" fill="#efa843"/>
        <path id="Trazado_110603" data-name="Trazado 110603" d="M392.62,219.77c-1.55-.82,4.32-12,5.87-12.94s7-.77,7.48-.05S395.59,221.33,392.62,219.77Z" fill="#efa843"/>
        <path id="Trazado_110604" data-name="Trazado 110604" d="M419.78,217.38c-1.29-1.34,7-9.92,8.68-10.29s6.91,1.77,7.17,2.62S422.26,219.93,419.78,217.38Z" fill="#efa843"/>
        <path id="Trazado_110605" data-name="Trazado 110605" d="M382.3,208.9l1.04.69-2.1,1.3Z" fill="#df8d2d"/>
        <path id="Trazado_110606" data-name="Trazado 110606" d="M408.57,204.9l1.02.63-2.67,1.98Z" fill="#df8d2d"/>
        <path id="Trazado_110607" data-name="Trazado 110607" d="M383.34,209.59s-5.31,8.56-3.94,12.1c0,0-4.44-1,2.9-12.79Z" fill="#efa843"/>
        <path id="Trazado_110608" data-name="Trazado 110608" d="M409.59,205.53s-7.81,10.9-7.26,16.8c0,0-3.81-2.15,6.24-17.43Z" fill="#efa843"/>
        <path id="Trazado_110609" data-name="Trazado 110609" d="M439.77,208.39s-14.07,11-11.73,14.52c0,0,.08-4,12.87-13.68Z" fill="#efa843"/>
        <path id="Trazado_110610" data-name="Trazado 110610" d="M383.89,210.36a51.071,51.071,0,0,1,11.35-2.67s-6.52,7-11.16,6.74C381.62,214.66,383.89,210.36,383.89,210.36Z" fill="#e49232"/>
        <path id="Trazado_110611" data-name="Trazado 110611" d="M409.89,206.29s10.21-.34,15.51.93c0,0-8.11,6.22-14,5.58S409.89,206.29,409.89,206.29Z" fill="#e49232"/>
        <path id="Trazado_110612" data-name="Trazado 110612" d="M441.18,210.13s-4.63,4-2.45,5.58,9.17-3.14,9.17-3.14A28.83,28.83,0,0,0,441.18,210.13Z" fill="#e49232"/>
        <path id="Trazado_110613" data-name="Trazado 110613" d="M565.69,208.77l.5-.38a89.908,89.908,0,0,0-11.25-2.56l-.75.64a110.833,110.833,0,0,0-14.9-1c-1.59,0-3.16,0-4.71.1l.41-.68a51.67,51.67,0,0,0-10.11.81l-.78.77h0a87.341,87.341,0,0,0-16.06,3.62l.64-1.2c-5.34,1.76-11.26,6-13,7.32l-.26.19-.31.24h0c-3.56,2.83-5.6,6-5.6,9.37,0,11.16,22.28,8.88,49.77,8.88s49.78,1.93,49.78-8.88C589.07,219.06,579.72,212.52,565.69,208.77Z" fill="#ec9e38"/>
        <path id="Trazado_110614" data-name="Trazado 110614" d="M524.1,206.48s-14.3,16.61-18.27,15.21,2.31-11.61,2.31-11.61a98.61,98.61,0,0,1,15.96-3.6Z" fill="#df8d2d"/>
        <path id="Trazado_110615" data-name="Trazado 110615" d="M534.7,205.57s-9.26,13.28-6,16.76,25.44-15.86,25.44-15.86A166.463,166.463,0,0,0,534.7,205.57Z" fill="#df8d2d"/>
        <path id="Trazado_110616" data-name="Trazado 110616" d="M565.69,208.77s-13.63,11.53-11.22,14.14,21.66-10.47,21.66-10.47S568.81,209.53,565.69,208.77Z" fill="#df8d2d"/>
        <path id="Trazado_110617" data-name="Trazado 110617" d="M587,220.47a8.136,8.136,0,0,1,.34,2.06c0,10.43-21.52,8.57-48.06,8.57s-48,2.2-48-8.57a8,8,0,0,1,.32-2.11,9.75,9.75,0,0,0-2,5.63c0,11.16,22.28,8.88,49.77,8.88s49.78,1.93,49.78-8.88A9.6,9.6,0,0,0,587,220.47Z" fill="#df8d2d"/>
        <path id="Trazado_110618" data-name="Trazado 110618" d="M493.77,219.31c.44-1.29,8.28-7.75,10.5-7s-4.54,12.32-6.81,12.55S493,221.52,493.77,219.31Z" fill="#efa843"/>
        <path id="Trazado_110619" data-name="Trazado 110619" d="M576.9,214.2c1.14.08,9,5.77,9.14,8.6s-11.28.07-12.2-2.49S575,214.05,576.9,214.2Z" fill="#efa843"/>
        <path id="Trazado_110620" data-name="Trazado 110620" d="M519.05,219.77c-1.56-.82,4.32-12,5.87-12.94s7-.77,7.47-.05S522,221.33,519.05,219.77Z" fill="#efa843"/>
        <path id="Trazado_110621" data-name="Trazado 110621" d="M546.21,217.38c-1.3-1.34,7-9.92,8.67-10.29s6.91,1.77,7.17,2.62S548.68,219.93,546.21,217.38Z" fill="#efa843"/>
        <path id="Trazado_110622" data-name="Trazado 110622" d="M508.72,208.9l1.04.69-2.1,1.3Z" fill="#df8d2d"/>
        <path id="Trazado_110623" data-name="Trazado 110623" d="M534.99,204.9l1.03.63-2.67,1.98Z" fill="#df8d2d"/>
        <path id="Trazado_110624" data-name="Trazado 110624" d="M509.76,209.59s-5.3,8.56-3.93,12.1c0,0-4.44-1,2.89-12.79Z" fill="#efa843"/>
        <path id="Trazado_110625" data-name="Trazado 110625" d="M536,205.53s-7.81,10.9-7.27,16.8c0,0-3.8-2.15,6.24-17.43Z" fill="#efa843"/>
        <path id="Trazado_110626" data-name="Trazado 110626" d="M566.19,208.39s-14.06,11-11.72,14.52c0,0,.07-4,12.87-13.68Z" fill="#efa843"/>
        <path id="Trazado_110627" data-name="Trazado 110627" d="M510.32,210.36a50.889,50.889,0,0,1,11.34-2.67s-6.52,7-11.15,6.74C508.05,214.66,510.32,210.36,510.32,210.36Z" fill="#e49232"/>
        <path id="Trazado_110628" data-name="Trazado 110628" d="M536.32,206.29s10.21-.34,15.5.93c0,0-8.11,6.22-14,5.58S536.32,206.29,536.32,206.29Z" fill="#e49232"/>
        <path id="Trazado_110629" data-name="Trazado 110629" d="M567.61,210.13s-4.63,4-2.46,5.58,9.17-3.14,9.17-3.14A28.67,28.67,0,0,0,567.61,210.13Z" fill="#e49232"/>
        <path id="Trazado_110630" data-name="Trazado 110630" d="M502.18,215c-.54.25-1.1.18-1.25-.15s.14-.81.68-1.06,1.09-.18,1.25.15S502.71,214.74,502.18,215Z" fill="#ffc66c"/>
        <path id="Trazado_110631" data-name="Trazado 110631" d="M523.71,211c.56.17.93.59.82.95s-.65.5-1.21.33-.94-.6-.83-.95S523.14,210.86,523.71,211Z" fill="#ffc66c"/>
        <path id="Trazado_110632" data-name="Trazado 110632" d="M517.52,208.68c.43.4.58.95.33,1.22s-.81.17-1.24-.23-.58-.94-.33-1.22S517.09,208.28,517.52,208.68Z" fill="#ffc66c"/>
        <path id="Trazado_110633" data-name="Trazado 110633" d="M548.79,210.42c.57.17.94.6.83,1s-.65.5-1.22.33-.93-.59-.82-.95S548.23,210.25,548.79,210.42Z" fill="#ffc66c"/>
        <path id="Trazado_110634" data-name="Trazado 110634" d="M553.55,216.6c.57.17.94.6.83,1s-.65.51-1.22.33-.93-.59-.82-.95S553,216.43,553.55,216.6Z" fill="#ffc66c"/>
        <path id="Trazado_110635" data-name="Trazado 110635" d="M554.23,208.56c-.49.33-1.05.35-1.26,0s0-.82.51-1.15,1-.35,1.26,0S554.72,208.23,554.23,208.56Z" fill="#ffc66c"/>
        <path id="Trazado_110636" data-name="Trazado 110636" d="M535.61,210.28c.59,0,1.07.3,1.07.67s-.48.67-1.07.67-1.06-.3-1.06-.67S535,210.28,535.61,210.28Z" fill="#ffc66c"/>
        <path id="Trazado_110637" data-name="Trazado 110637" d="M529.41,210.08c-.42.41-1,.54-1.23.28s-.14-.81.28-1.23,1-.54,1.23-.28S529.82,209.66,529.41,210.08Z" fill="#ffc66c"/>
        <path id="Trazado_110638" data-name="Trazado 110638" d="M557.54,208.21c.38-.45.92-.62,1.2-.37s.2.79-.18,1.24-.92.61-1.21.37S557.16,208.65,557.54,208.21Z" fill="#ffc66c"/>
        <path id="Trazado_110639" data-name="Trazado 110639" d="M568.29,210.09c.38-.45.92-.61,1.2-.37s.2.8-.18,1.24-.93.62-1.21.38S567.9,210.54,568.29,210.09Z" fill="#ffc66c"/>
        <path id="Trazado_110640" data-name="Trazado 110640" d="M506,211.27c.56.17.93.6.82.95s-.65.51-1.21.33-.93-.59-.83-1S505.44,211.1,506,211.27Z" fill="#ffc66c"/>
        <path id="Trazado_110641" data-name="Trazado 110641" d="M514.07,213.89c-.55.22-1.1.12-1.25-.22s.19-.8.74-1,1.1-.13,1.24.21S514.61,213.66,514.07,213.89Z" fill="#ffc66c"/>
        <path id="Trazado_110642" data-name="Trazado 110642" d="M507.66,216.78c-.54.22-1.1.12-1.24-.22s.19-.8.74-1,1.1-.12,1.24.22S508.21,216.55,507.66,216.78Z" fill="#ffc66c"/>
        <path id="Trazado_110643" data-name="Trazado 110643" d="M527.27,206.46c-.55.22-1.1.12-1.24-.22s.18-.8.73-1,1.1-.13,1.24.21S527.81,206.23,527.27,206.46Z" fill="#ffc66c"/>
        <path id="Trazado_110644" data-name="Trazado 110644" d="M525.56,217.12c-.54.22-1.1.12-1.24-.22s.19-.8.73-1,1.11-.13,1.25.21S526.11,216.89,525.56,217.12Z" fill="#ffc66c"/>
        <path id="Trazado_110645" data-name="Trazado 110645" d="M511.24,211.1a.843.843,0,0,1-1-.36c-.1-.29.27-.61.74-.71a.832.832,0,0,1,1,.36C512.08,210.69,511.71,211,511.24,211.1Z" fill="#ffc66c"/>
        <path id="Trazado_110646" data-name="Trazado 110646" d="M533,206.67c-.41-.24-.63-.65-.48-.91s.61-.28,1,0,.63.65.48.91S533.39,206.91,533,206.67Z" fill="#ffc66c"/>
        <path id="Trazado_110647" data-name="Trazado 110647" d="M558.79,213.35c-.42-.24-.63-.65-.48-.91s.61-.28,1,0,.63.64.48.91S559.2,213.58,558.79,213.35Z" fill="#ffc66c"/>
        <path id="Trazado_110648" data-name="Trazado 110648" d="M521.91,209.15c-.42-.24-.63-.64-.48-.9s.61-.28,1,0,.63.64.47.9S522.32,209.39,521.91,209.15Z" fill="#ffc66c"/>
        <path id="Trazado_110649" data-name="Trazado 110649" d="M547.43,206.7c-.47.05-.89-.15-.92-.44s.32-.59.8-.65.89.15.93.45S547.91,206.65,547.43,206.7Z" fill="#ffc66c"/>
        <path id="Trazado_110650" data-name="Trazado 110650" d="M561,210c-.18-.45-.1-.9.18-1s.65.15.83.59.1.9-.17,1S561.22,210.45,561,210Z" fill="#ffc66c"/>
        <path id="Trazado_110651" data-name="Trazado 110651" d="M544.2,208.8c-.18-.44-.1-.9.18-1s.65.15.83.6.1.89-.17,1S544.38,209.24,544.2,208.8Z" fill="#ffc66c"/>
        <path id="Trazado_110652" data-name="Trazado 110652" d="M508,212.87c-.18-.45-.1-.9.18-1s.65.15.83.59.11.9-.17,1S508.15,213.31,508,212.87Z" fill="#ffc66c"/>
        <path id="Trazado_110653" data-name="Trazado 110653" d="M540.48,208.77c.56.17.93.59.83.95s-.66.5-1.22.33-.93-.6-.83-1S539.92,208.6,540.48,208.77Z" fill="#ffc66c"/>
        <path id="Trazado_110654" data-name="Trazado 110654" d="M541.72,212.63c.47-.09.88.08.93.37s-.29.59-.76.67-.89-.08-.93-.37S541.25,212.71,541.72,212.63Z" fill="#ffc66c"/>
        <path id="Trazado_110655" data-name="Trazado 110655" d="M572.83,212.57c.47-.08.89.09.94.37s-.29.59-.76.68-.89-.09-.94-.37S572.37,212.66,572.83,212.57Z" fill="#ffc66c"/>
        <path id="Trazado_110656" data-name="Trazado 110656" d="M524.44,220c.47-.08.89.09.94.37s-.3.59-.77.68-.88-.08-.93-.37S524,220.11,524.44,220Z" fill="#ffc66c"/>
        <path id="Trazado_110657" data-name="Trazado 110657" d="M516.1,219.19c.39.28.56.69.39.93s-.62.21-1-.07-.57-.69-.4-.92S515.71,218.92,516.1,219.19Z" fill="#ffc66c"/>
        <path id="Trazado_110658" data-name="Trazado 110658" d="M520.22,214.58c.39.27.56.68.39.92s-.62.21-1-.07-.57-.69-.4-.92S519.83,214.3,520.22,214.58Z" fill="#ffc66c"/>
        <path id="Trazado_110659" data-name="Trazado 110659" d="M553.74,212.51c.46.13.76.47.68.75s-.53.39-1,.26-.76-.47-.68-.75S553.29,212.38,553.74,212.51Z" fill="#ffc66c"/>
        <path id="Trazado_110660" data-name="Trazado 110660" d="M565.54,212.79c.46.14.76.47.67.75s-.52.4-1,.26-.76-.46-.67-.74S565.08,212.66,565.54,212.79Z" fill="#ffc66c"/>
        <path id="Trazado_110661" data-name="Trazado 110661" d="M546.71,219.33c.46.13.76.47.67.75s-.52.39-1,.26-.76-.47-.67-.75S546.25,219.2,546.71,219.33Z" fill="#ffc66c"/>
        <path id="Trazado_110662" data-name="Trazado 110662" d="M527.88,212.37c.46.13.76.46.67.74s-.52.4-1,.27-.76-.47-.67-.75S527.42,212.23,527.88,212.37Z" fill="#ffc66c"/>
        <path id="Trazado_110663" data-name="Trazado 110663" d="M547.63,215.21c.46.13.76.47.68.75s-.53.39-1,.26-.76-.47-.68-.75S547.18,215.08,547.63,215.21Z" fill="#ffc66c"/>
        <path id="Trazado_110664" data-name="Trazado 110664" d="M539.08,205.19c.58.06,1,.41,1,.78s-.55.62-1.14.55-1-.41-1-.78S538.49,205.12,539.08,205.19Z" fill="#ffc66c"/>
        <path id="Trazado_110665" data-name="Trazado 110665" d="M694.44,208.77l.51-.38a90.313,90.313,0,0,0-11.25-2.56l-.75.64a110.938,110.938,0,0,0-14.9-1c-1.59,0-3.16,0-4.71.1l.41-.68a51.718,51.718,0,0,0-10.12.81l-.77.77h0a87.531,87.531,0,0,0-16.06,3.62l.65-1.2c-5.35,1.76-11.27,6-13,7.32l-.25.19-.32.24h0c-3.55,2.83-5.6,6-5.6,9.37,0,11.16,22.29,8.88,49.78,8.88s49.77,1.93,49.77-8.88C717.82,219.06,708.47,212.52,694.44,208.77Z" fill="#ec9e38"/>
        <path id="Trazado_110666" data-name="Trazado 110666" d="M652.86,206.48s-14.31,16.61-18.28,15.21,2.31-11.61,2.31-11.61a98.852,98.852,0,0,1,15.97-3.6Z" fill="#df8d2d"/>
        <path id="Trazado_110667" data-name="Trazado 110667" d="M663.46,205.57s-9.26,13.28-6,16.76,25.43-15.86,25.43-15.86a166.229,166.229,0,0,0-19.43-.9Z" fill="#df8d2d"/>
        <path id="Trazado_110668" data-name="Trazado 110668" d="M694.44,208.77s-13.63,11.53-11.22,14.14,21.67-10.47,21.67-10.47S697.56,209.53,694.44,208.77Z" fill="#df8d2d"/>
        <path id="Trazado_110669" data-name="Trazado 110669" d="M715.76,220.47a7.721,7.721,0,0,1,.34,2.06c0,10.43-21.51,8.57-48.05,8.57s-48,2.2-48-8.57a8.413,8.413,0,0,1,.31-2.11,9.82,9.82,0,0,0-2,5.63c0,11.16,22.29,8.88,49.78,8.88s49.77,1.93,49.77-8.88a9.53,9.53,0,0,0-2.15-5.58Z" fill="#df8d2d"/>
        <path id="Trazado_110670" data-name="Trazado 110670" d="M622.53,219.31c.44-1.29,8.27-7.75,10.49-7s-4.54,12.32-6.8,12.55S621.77,221.52,622.53,219.31Z" fill="#efa843"/>
        <path id="Trazado_110671" data-name="Trazado 110671" d="M705.66,214.2c1.14.08,9,5.77,9.14,8.6s-11.28.07-12.21-2.49S703.72,214.05,705.66,214.2Z" fill="#efa843"/>
        <path id="Trazado_110672" data-name="Trazado 110672" d="M647.8,219.77c-1.55-.82,4.32-12,5.87-12.94s7-.77,7.48-.05S650.77,221.33,647.8,219.77Z" fill="#efa843"/>
        <path id="Trazado_110673" data-name="Trazado 110673" d="M675,217.38c-1.29-1.34,7-9.92,8.68-10.29s6.91,1.77,7.17,2.62S677.44,219.93,675,217.38Z" fill="#efa843"/>
        <path id="Trazado_110674" data-name="Trazado 110674" d="M637.48,208.9l1.04.69-2.1,1.3Z" fill="#df8d2d"/>
        <path id="Trazado_110675" data-name="Trazado 110675" d="M663.75,204.9l1.02.63-2.67,1.98Z" fill="#df8d2d"/>
        <path id="Trazado_110676" data-name="Trazado 110676" d="M638.52,209.59s-5.31,8.56-3.94,12.1c0,0-4.44-1,2.9-12.79Z" fill="#efa843"/>
        <path id="Trazado_110677" data-name="Trazado 110677" d="M664.77,205.53s-7.81,10.9-7.26,16.8c0,0-3.81-2.15,6.24-17.43Z" fill="#efa843"/>
        <path id="Trazado_110678" data-name="Trazado 110678" d="M695,208.39s-14.07,11-11.73,14.52c0,0,.08-4,12.87-13.68Z" fill="#efa843"/>
        <path id="Trazado_110679" data-name="Trazado 110679" d="M639.07,210.36a51.07,51.07,0,0,1,11.35-2.67s-6.52,7-11.16,6.74C636.8,214.66,639.07,210.36,639.07,210.36Z" fill="#e49232"/>
        <path id="Trazado_110680" data-name="Trazado 110680" d="M665.07,206.29s10.21-.34,15.51.93c0,0-8.11,6.22-14,5.58S665.07,206.29,665.07,206.29Z" fill="#e49232"/>
        <path id="Trazado_110681" data-name="Trazado 110681" d="M696.36,210.13s-4.63,4-2.45,5.58,9.17-3.14,9.17-3.14a28.831,28.831,0,0,0-6.72-2.44Z" fill="#e49232"/>
        <path id="Trazado_110682" data-name="Trazado 110682" d="M630.93,215c-.53.25-1.09.18-1.25-.15s.15-.81.68-1.06,1.1-.18,1.25.15S631.47,214.74,630.93,215Z" fill="#ffc66c"/>
        <path id="Trazado_110683" data-name="Trazado 110683" d="M652.46,211c.57.17.93.59.83.95s-.65.5-1.22.33-.93-.6-.82-.95S651.9,210.86,652.46,211Z" fill="#ffc66c"/>
        <path id="Trazado_110684" data-name="Trazado 110684" d="M646.28,208.68c.43.4.58.95.33,1.22s-.81.17-1.24-.23-.58-.94-.33-1.22S645.84,208.28,646.28,208.68Z" fill="#ffc66c"/>
        <path id="Trazado_110685" data-name="Trazado 110685" d="M677.55,210.42c.56.17.93.6.82,1s-.65.5-1.21.33-.93-.59-.83-.95S677,210.25,677.55,210.42Z" fill="#ffc66c"/>
        <path id="Trazado_110686" data-name="Trazado 110686" d="M682.31,216.6c.56.17.93.6.83,1s-.66.51-1.22.33-.93-.59-.83-.95S681.75,216.43,682.31,216.6Z" fill="#ffc66c"/>
        <path id="Trazado_110687" data-name="Trazado 110687" d="M683,208.56c-.49.33-1.06.35-1.26,0s0-.82.51-1.15,1-.35,1.26,0S683.48,208.23,683,208.56Z" fill="#ffc66c"/>
        <path id="Trazado_110688" data-name="Trazado 110688" d="M664.37,210.28c.59,0,1.06.3,1.06.67s-.47.67-1.06.67-1.07-.3-1.07-.67S663.78,210.28,664.37,210.28Z" fill="#ffc66c"/>
        <path id="Trazado_110689" data-name="Trazado 110689" d="M658.16,210.08c-.41.41-1,.54-1.23.28s-.13-.81.28-1.23,1-.54,1.23-.28S658.58,209.66,658.16,210.08Z" fill="#ffc66c"/>
        <path id="Trazado_110690" data-name="Trazado 110690" d="M686.3,208.21c.38-.45.92-.62,1.2-.37s.2.79-.19,1.24-.92.61-1.2.37S685.91,208.65,686.3,208.21Z" fill="#ffc66c"/>
        <path id="Trazado_110691" data-name="Trazado 110691" d="M697,210.09c.39-.45.93-.61,1.21-.37s.19.8-.19,1.24-.92.62-1.2.38S696.66,210.54,697,210.09Z" fill="#ffc66c"/>
        <path id="Trazado_110692" data-name="Trazado 110692" d="M634.75,211.27c.57.17.94.6.83.95s-.65.51-1.22.33-.93-.59-.82-1S634.19,211.1,634.75,211.27Z" fill="#ffc66c"/>
        <path id="Trazado_110693" data-name="Trazado 110693" d="M642.82,213.89c-.54.22-1.1.12-1.24-.22s.19-.8.73-1,1.1-.13,1.24.21S643.37,213.66,642.82,213.89Z" fill="#ffc66c"/>
        <path id="Trazado_110694" data-name="Trazado 110694" d="M636.42,216.78c-.54.22-1.1.12-1.24-.22s.19-.8.73-1,1.1-.12,1.24.22S637,216.55,636.42,216.78Z" fill="#ffc66c"/>
        <path id="Trazado_110695" data-name="Trazado 110695" d="M656,206.46c-.54.22-1.1.12-1.24-.22s.19-.8.74-1,1.1-.13,1.24.21S656.57,206.23,656,206.46Z" fill="#ffc66c"/>
        <path id="Trazado_110696" data-name="Trazado 110696" d="M654.32,217.12c-.55.22-1.1.12-1.24-.22s.19-.8.73-1,1.1-.13,1.24.21S654.86,216.89,654.32,217.12Z" fill="#ffc66c"/>
        <path id="Trazado_110697" data-name="Trazado 110697" d="M640,211.1a.843.843,0,0,1-1-.36c-.1-.29.28-.61.74-.71a.837.837,0,0,1,1,.36C640.84,210.69,640.46,211,640,211.1Z" fill="#ffc66c"/>
        <path id="Trazado_110698" data-name="Trazado 110698" d="M661.73,206.67c-.42-.24-.63-.65-.48-.91s.61-.28,1,0,.63.65.48.91S662.14,206.91,661.73,206.67Z" fill="#ffc66c"/>
        <path id="Trazado_110699" data-name="Trazado 110699" d="M687.54,213.35c-.41-.24-.63-.65-.47-.91s.61-.28,1,0,.63.64.48.91S688,213.58,687.54,213.35Z" fill="#ffc66c"/>
        <path id="Trazado_110700" data-name="Trazado 110700" d="M650.67,209.15c-.42-.24-.63-.64-.48-.9s.61-.28,1,0,.63.64.48.9S651.08,209.39,650.67,209.15Z" fill="#ffc66c"/>
        <path id="Trazado_110701" data-name="Trazado 110701" d="M676.19,206.7c-.48.05-.89-.15-.92-.44s.32-.59.8-.65.89.15.92.45S676.67,206.65,676.19,206.7Z" fill="#ffc66c"/>
        <path id="Trazado_110702" data-name="Trazado 110702" d="M689.8,210c-.19-.45-.11-.9.17-1s.66.15.84.59.1.9-.18,1S690,210.45,689.8,210Z" fill="#ffc66c"/>
        <path id="Trazado_110703" data-name="Trazado 110703" d="M673,208.8c-.19-.44-.11-.9.17-1s.65.15.84.6.1.89-.18,1S673.14,209.24,673,208.8Z" fill="#ffc66c"/>
        <path id="Trazado_110704" data-name="Trazado 110704" d="M636.72,212.87c-.18-.45-.1-.9.17-1s.66.15.84.59.1.9-.18,1S636.9,213.31,636.72,212.87Z" fill="#ffc66c"/>
        <path id="Trazado_110705" data-name="Trazado 110705" d="M669.24,208.77c.56.17.93.59.82.95s-.65.5-1.21.33-.94-.6-.83-1S668.67,208.6,669.24,208.77Z" fill="#ffc66c"/>
        <path id="Trazado_110706" data-name="Trazado 110706" d="M670.47,212.63c.47-.09.89.08.94.37s-.29.59-.76.67-.89-.08-.94-.37S670,212.71,670.47,212.63Z" fill="#ffc66c"/>
        <path id="Trazado_110707" data-name="Trazado 110707" d="M701.59,212.57c.47-.08.89.09.94.37s-.3.59-.77.68-.88-.09-.93-.37S701.12,212.66,701.59,212.57Z" fill="#ffc66c"/>
        <path id="Trazado_110708" data-name="Trazado 110708" d="M653.2,220c.46-.08.88.09.93.37s-.29.59-.76.68-.89-.08-.94-.37S652.73,220.11,653.2,220Z" fill="#ffc66c"/>
        <path id="Trazado_110709" data-name="Trazado 110709" d="M644.85,219.19c.39.28.57.69.4.93s-.63.21-1-.07-.56-.69-.39-.92S644.46,218.92,644.85,219.19Z" fill="#ffc66c"/>
        <path id="Trazado_110710" data-name="Trazado 110710" d="M649,214.58c.39.27.57.68.4.92s-.62.21-1-.07-.57-.69-.4-.92S648.58,214.3,649,214.58Z" fill="#ffc66c"/>
        <path id="Trazado_110711" data-name="Trazado 110711" d="M682.5,212.51c.46.13.76.47.67.75s-.52.39-1,.26-.76-.47-.67-.75S682,212.38,682.5,212.51Z" fill="#ffc66c"/>
        <path id="Trazado_110712" data-name="Trazado 110712" d="M694.29,212.79c.46.14.76.47.68.75s-.53.4-1,.26-.76-.46-.68-.74S693.84,212.66,694.29,212.79Z" fill="#ffc66c"/>
        <path id="Trazado_110713" data-name="Trazado 110713" d="M675.46,219.33c.46.13.76.47.68.75s-.53.39-1,.26-.76-.47-.68-.75S675,219.2,675.46,219.33Z" fill="#ffc66c"/>
        <path id="Trazado_110714" data-name="Trazado 110714" d="M656.63,212.37c.46.13.76.46.68.74s-.53.4-1,.27-.76-.47-.68-.75S656.18,212.23,656.63,212.37Z" fill="#ffc66c"/>
        <path id="Trazado_110715" data-name="Trazado 110715" d="M676.39,215.21c.46.13.76.47.67.75s-.52.39-1,.26-.76-.47-.67-.75S675.93,215.08,676.39,215.21Z" fill="#ffc66c"/>
        <path id="Trazado_110716" data-name="Trazado 110716" d="M667.83,205.19c.59.06,1,.41,1,.78s-.55.62-1.13.55-1-.41-1-.78S667.25,205.12,667.83,205.19Z" fill="#ffc66c"/>
        <rect id="Rectángulo_6234" data-name="Rectángulo 6234" width="65.11" height="3.47" transform="translate(661.71 234.59)" fill="#6c58b7"/>
        <path id="Trazado_110717" data-name="Trazado 110717" d="M664.56,268.68H105.87a17.05,17.05,0,0,1-17.05-17.05h0a17,17,0,0,1,17.05-17H664.56a17,17,0,0,1,17.05,17h0a17,17,0,0,1-17.05,17.05Z" fill="#6c58b7"/>
        <circle id="Elipse_4410" data-name="Elipse 4410" cx="12.11" cy="12.11" r="12.11" transform="translate(94.03 239.52)" fill="#9081c9"/>
        <path id="Trazado_110718" data-name="Trazado 110718" d="M676.3,251.63a12.12,12.12,0,1,1-12.11-12.11A12.12,12.12,0,0,1,676.3,251.63Z" fill="#9081c9"/>
        <path id="Trazado_110719" data-name="Trazado 110719" d="M664.56,234.59H105.87a17,17,0,0,0-17.05,17h0a17.05,17.05,0,0,0,17.05,17.05H664.56a17,17,0,0,0,17.05-17.05h0a17,17,0,0,0-17.05-17Zm-.36,30.89h-558a13.85,13.85,0,0,1,0-27.69h558a13.85,13.85,0,1,1,0,27.69Z" fill="#95b5cb"/>
        <path id="Trazado_110720" data-name="Trazado 110720" d="M658.64,355s-55.55-62.53-267.79-62.53S111.79,355,111.79,355V268.64H658.64Z" fill="#576286" opacity="0.3"/>
        <rect id="Rectángulo_6235" data-name="Rectángulo 6235" width="5.81" height="27.68" transform="translate(206.44 237.79)" fill="#5c708d"/>
        <rect id="Rectángulo_6236" data-name="Rectángulo 6236" width="5.81" height="27.68" transform="translate(230.2 237.79)" fill="#5c708d"/>
        <rect id="Rectángulo_6237" data-name="Rectángulo 6237" width="5.81" height="27.68" transform="translate(253.96 237.79)" fill="#5c708d"/>
        <rect id="Rectángulo_6238" data-name="Rectángulo 6238" width="5.81" height="27.68" transform="translate(277.72 237.79)" fill="#5c708d"/>
        <rect id="Rectángulo_6239" data-name="Rectángulo 6239" width="5.81" height="27.68" transform="translate(301.47 237.79)" fill="#5c708d"/>
        <rect id="Rectángulo_6240" data-name="Rectángulo 6240" width="5.81" height="27.68" transform="translate(135.49 237.79)" fill="#5c708d"/>
        <rect id="Rectángulo_6241" data-name="Rectángulo 6241" width="5.81" height="27.68" transform="translate(159.25 237.79)" fill="#5c708d"/>
        <rect id="Rectángulo_6242" data-name="Rectángulo 6242" width="5.81" height="27.68" transform="translate(183.01 237.79)" fill="#5c708d"/>
        <rect id="Rectángulo_6243" data-name="Rectángulo 6243" width="5.81" height="27.68" transform="translate(325.23 237.79)" fill="#5c708d"/>
        <rect id="Rectángulo_6244" data-name="Rectángulo 6244" width="5.81" height="27.68" transform="translate(348.99 237.79)" fill="#5c708d"/>
        <rect id="Rectángulo_6245" data-name="Rectángulo 6245" width="5.81" height="27.68" transform="translate(372.75 237.79)" fill="#5c708d"/>
        <rect id="Rectángulo_6246" data-name="Rectángulo 6246" width="5.81" height="27.68" transform="translate(396.51 237.79)" fill="#5c708d"/>
        <rect id="Rectángulo_6247" data-name="Rectángulo 6247" width="5.81" height="27.68" transform="translate(420.27 237.79)" fill="#5c708d"/>
        <rect id="Rectángulo_6248" data-name="Rectángulo 6248" width="5.81" height="27.68" transform="translate(444.02 237.79)" fill="#5c708d"/>
        <rect id="Rectángulo_6249" data-name="Rectángulo 6249" width="5.81" height="27.68" transform="translate(467.78 237.79)" fill="#5c708d"/>
        <rect id="Rectángulo_6250" data-name="Rectángulo 6250" width="5.81" height="27.68" transform="translate(491.54 237.79)" fill="#5c708d"/>
        <rect id="Rectángulo_6251" data-name="Rectángulo 6251" width="5.81" height="27.68" transform="translate(515.3 237.79)" fill="#5c708d"/>
        <rect id="Rectángulo_6252" data-name="Rectángulo 6252" width="5.81" height="27.68" transform="translate(539.06 237.79)" fill="#5c708d"/>
        <rect id="Rectángulo_6253" data-name="Rectángulo 6253" width="5.81" height="27.68" transform="translate(562.82 237.79)" fill="#5c708d"/>
        <rect id="Rectángulo_6254" data-name="Rectángulo 6254" width="5.81" height="27.68" transform="translate(586.58 237.79)" fill="#5c708d"/>
        <rect id="Rectángulo_6255" data-name="Rectángulo 6255" width="5.81" height="27.68" transform="translate(610.33 237.79)" fill="#5c708d"/>
        <rect id="Rectángulo_6256" data-name="Rectángulo 6256" width="5.81" height="27.68" transform="translate(634.09 237.79)" fill="#5c708d"/>
        <rect id="Rectángulo_6257" data-name="Rectángulo 6257" width="4.75" height="14.75" transform="translate(653.89 219.84)" fill="#f8a9c1"/>
        <rect id="Rectángulo_6258" data-name="Rectángulo 6258" width="4.75" height="14.75" transform="translate(187.96 219.84)" fill="#f8a9c1"/>
        <rect id="Rectángulo_6259" data-name="Rectángulo 6259" width="4.75" height="14.75" transform="translate(420.66 219.84)" fill="#f8a9c1"/>
        <path id="Trazado_110721" data-name="Trazado 110721" d="M423.04,219.84h-2.38v9.47h2.38v5.28h2.37V219.84Z" fill="#576286" opacity="0.3"/>
        <path id="Trazado_110722" data-name="Trazado 110722" d="M656.27,219.84h-2.38v9.47h2.38v5.28h2.37V219.84Z" fill="#576286" opacity="0.3"/>
        <path id="Trazado_110723" data-name="Trazado 110723" d="M190.34,219.84h-2.38v9.47h2.38v5.28h2.37V219.84Z" fill="#576286" opacity="0.3"/>
        <rect id="Rectángulo_6260" data-name="Rectángulo 6260" width="576.21" height="4" transform="translate(96.42 219.49)" fill="#f8a9c1"/>
        <rect id="Rectángulo_6261" data-name="Rectángulo 6261" width="576.21" height="2" transform="translate(96.42 221.49)" fill="#576286" opacity="0.3"/>
        <rect id="Rectángulo_6262" data-name="Rectángulo 6262" width="1.23" height="16.03" transform="translate(725.59 222.03)" fill="#6c58b7"/>
        <rect id="Rectángulo_6263" data-name="Rectángulo 6263" width="76.74" height="269.34" transform="translate(227.51 171.94)" fill="#f8a9c1"/>
        <rect id="Rectángulo_6264" data-name="Rectángulo 6264" width="100.62" height="10.98" transform="translate(215.57 430.31)" fill="#f8a9c1"/>
        <path id="Trazado_110724" data-name="Trazado 110724" d="M227.51,184.73h76.74V430.31h11.94v10.98H276.96V430.31H227.51V426.9h48.6V203.78l-48.6-4.05Z" fill="#576286" opacity="0.3"/>
        <rect id="Rectángulo_6265" data-name="Rectángulo 6265" width="113.69" height="91.24" transform="translate(209.03 93.5)" fill="#f8a9c1"/>
        <rect id="Rectángulo_6266" data-name="Rectángulo 6266" width="42.63" height="42.07" transform="translate(221.86 106.98)" fill="#576286" opacity="0.3"/>
        <rect id="Rectángulo_6267" data-name="Rectángulo 6267" width="42.63" height="42.07" transform="translate(221.86 103.28)" fill="#95b5cb"/>
        <rect id="Rectángulo_6268" data-name="Rectángulo 6268" width="32.84" height="32.4" transform="translate(226.76 108.11)" fill="#5c708d"/>
        <rect id="Rectángulo_6269" data-name="Rectángulo 6269" width="28.99" height="28.61" transform="translate(228.68 110.01)" fill="#394a63"/>
        <circle id="Elipse_4411" data-name="Elipse 4411" cx="3.98" cy="3.98" r="3.98" transform="translate(229.05 159.7)" fill="#5c708d"/>
        <path id="Trazado_110725" data-name="Trazado 110725" d="M235.71,163.68a2.68,2.68,0,1,1-.8-1.906,2.69,2.69,0,0,1,.8,1.906Z" fill="#95b5cb"/>
        <ellipse id="Elipse_4412" data-name="Elipse 4412" cx="2.35" cy="1.41" rx="2.35" ry="1.41" transform="translate(230.68 161)" fill="#f3c23b" opacity="0.2"/>
        <circle id="Elipse_4413" data-name="Elipse 4413" cx="3.98" cy="3.98" r="3.98" transform="translate(239.2 159.7)" fill="#5c708d"/>
        <path id="Trazado_110726" data-name="Trazado 110726" d="M245.86,163.68a2.69,2.69,0,1,1-2.68-2.68,2.69,2.69,0,0,1,2.68,2.68Z" fill="#95b5cb"/>
        <ellipse id="Elipse_4414" data-name="Elipse 4414" cx="2.35" cy="1.41" rx="2.35" ry="1.41" transform="translate(240.83 161)" fill="#f3c23b" opacity="0.2"/>
        <circle id="Elipse_4415" data-name="Elipse 4415" cx="3.98" cy="3.98" r="3.98" transform="translate(249.35 159.7)" fill="#5c708d"/>
        <path id="Trazado_110727" data-name="Trazado 110727" d="M256,163.68a2.69,2.69,0,1,1-2.68-2.68,2.69,2.69,0,0,1,2.68,2.68Z" fill="#95b5cb"/>
        <ellipse id="Elipse_4416" data-name="Elipse 4416" cx="2.35" cy="1.41" rx="2.35" ry="1.41" transform="translate(250.98 161)" fill="#f3c23b" opacity="0.2"/>
        <circle id="Elipse_4417" data-name="Elipse 4417" cx="5.33" cy="5.33" r="5.33" transform="translate(285.24 112.77)" fill="#5c708d"/>
        <path id="Trazado_110728" data-name="Trazado 110728" d="M294.16,118.1a3.6,3.6,0,1,1-3.59-3.59A3.6,3.6,0,0,1,294.16,118.1Z" fill="#f3c23b"/>
        <path id="Trazado_110729" data-name="Trazado 110729" d="M290.57,114.51a3.58,3.58,0,0,0-3.15,1.89,3.56,3.56,0,0,0,6.29,0,3.58,3.58,0,0,0-3.14-1.89Z" fill="#f3c23b" opacity="0.2"/>
        <circle id="Elipse_4418" data-name="Elipse 4418" cx="5.33" cy="5.33" r="5.33" transform="translate(299.17 112.77)" fill="#5c708d"/>
        <path id="Trazado_110730" data-name="Trazado 110730" d="M308.09,118.1a3.6,3.6,0,1,1-3.59-3.59A3.6,3.6,0,0,1,308.09,118.1Z" fill="#9cd02c"/>
        <path id="Trazado_110731" data-name="Trazado 110731" d="M304.5,114.51a3.58,3.58,0,0,0-3.15,1.89,3.56,3.56,0,0,0,6.29,0,3.57,3.57,0,0,0-3.14-1.89Z" fill="#f3c23b" opacity="0.2"/>
        <path id="Trazado_110732" data-name="Trazado 110732" d="M282,118.1a5.32,5.32,0,1,1-1.562-3.765A5.33,5.33,0,0,1,282,118.1Z" fill="#5c708d"/>
        <path id="Trazado_110733" data-name="Trazado 110733" d="M280.23,118.1a3.6,3.6,0,1,1-3.6-3.59,3.6,3.6,0,0,1,3.6,3.59Z" fill="#f13d3d"/>
        <path id="Trazado_110734" data-name="Trazado 110734" d="M276.63,114.51a3.58,3.58,0,0,0-3.14,1.89,3.56,3.56,0,0,0,6.29,0,3.58,3.58,0,0,0-3.15-1.89Z" fill="#f3c23b" opacity="0.2"/>
        <rect id="Rectángulo_6270" data-name="Rectángulo 6270" width="10.8" height="6.96" transform="translate(271.23 103.28)" fill="#5c708d"/>
        <rect id="Rectángulo_6271" data-name="Rectángulo 6271" width="9.26" height="5.42" transform="translate(272 104.05)" fill="#95b5cb"/>
        <rect id="Rectángulo_6272" data-name="Rectángulo 6272" width="10.8" height="6.96" transform="translate(285.17 103.28)" fill="#5c708d"/>
        <rect id="Rectángulo_6273" data-name="Rectángulo 6273" width="9.26" height="5.42" transform="translate(285.94 104.05)" fill="#95b5cb"/>
        <rect id="Rectángulo_6274" data-name="Rectángulo 6274" width="10.8" height="6.96" transform="translate(299.1 103.28)" fill="#5c708d"/>
        <rect id="Rectángulo_6275" data-name="Rectángulo 6275" width="9.26" height="5.42" transform="translate(299.87 104.05)" fill="#95b5cb"/>
        <circle id="Elipse_4419" data-name="Elipse 4419" cx="5.33" cy="5.33" r="5.33" transform="translate(285.24 138.53)" fill="#5c708d"/>
        <path id="Trazado_110735" data-name="Trazado 110735" d="M294.16,143.86a3.6,3.6,0,1,1-3.59-3.59,3.6,3.6,0,0,1,3.59,3.59Z" fill="#394a63"/>
        <path id="Trazado_110736" data-name="Trazado 110736" d="M290.57,140.27a3.58,3.58,0,0,0-3.15,1.89,3.56,3.56,0,0,0,6.29,0,3.58,3.58,0,0,0-3.14-1.89Z" fill="#394a63" opacity="0.2"/>
        <circle id="Elipse_4420" data-name="Elipse 4420" cx="5.33" cy="5.33" r="5.33" transform="translate(299.17 138.53)" fill="#5c708d"/>
        <path id="Trazado_110737" data-name="Trazado 110737" d="M308.09,143.86a3.6,3.6,0,1,1-3.59-3.59,3.6,3.6,0,0,1,3.59,3.59Z" fill="#394a63"/>
        <path id="Trazado_110738" data-name="Trazado 110738" d="M304.5,140.27a3.58,3.58,0,0,0-3.15,1.89,3.56,3.56,0,0,0,6.29,0,3.57,3.57,0,0,0-3.14-1.89Z" fill="#394a63" opacity="0.2"/>
        <path id="Trazado_110739" data-name="Trazado 110739" d="M282,143.86a5.33,5.33,0,1,1-5.33-5.32,5.33,5.33,0,0,1,5.33,5.32Z" fill="#5c708d"/>
        <path id="Trazado_110740" data-name="Trazado 110740" d="M280.23,143.86a3.6,3.6,0,1,1-3.6-3.59,3.6,3.6,0,0,1,3.6,3.59Z" fill="#394a63"/>
        <path id="Trazado_110741" data-name="Trazado 110741" d="M276.63,140.27a3.58,3.58,0,0,0-3.14,1.89,3.56,3.56,0,0,0,6.29,0,3.58,3.58,0,0,0-3.15-1.89Z" fill="#394a63" opacity="0.2"/>
        <rect id="Rectángulo_6276" data-name="Rectángulo 6276" width="10.8" height="6.96" transform="translate(271.23 129.04)" fill="#5c708d"/>
        <rect id="Rectángulo_6277" data-name="Rectángulo 6277" width="9.26" height="5.42" transform="translate(272 129.81)" fill="#95b5cb"/>
        <rect id="Rectángulo_6278" data-name="Rectángulo 6278" width="10.8" height="6.96" transform="translate(285.17 129.04)" fill="#5c708d"/>
        <rect id="Rectángulo_6279" data-name="Rectángulo 6279" width="9.26" height="5.42" transform="translate(285.94 129.81)" fill="#95b5cb"/>
        <rect id="Rectángulo_6280" data-name="Rectángulo 6280" width="10.8" height="6.96" transform="translate(299.1 129.04)" fill="#5c708d"/>
        <rect id="Rectángulo_6281" data-name="Rectángulo 6281" width="9.26" height="5.42" transform="translate(299.87 129.81)" fill="#95b5cb"/>
        <circle id="Elipse_4421" data-name="Elipse 4421" cx="5.33" cy="5.33" r="5.33" transform="translate(285.24 164.29)" fill="#5c708d"/>
        <circle id="Elipse_4422" data-name="Elipse 4422" cx="3.59" cy="3.59" r="3.59" transform="translate(286.98 166.03)" fill="#394a63"/>
        <path id="Trazado_110742" data-name="Trazado 110742" d="M290.57,166a3.58,3.58,0,0,0-3.15,1.89,3.56,3.56,0,0,0,6.29,0,3.58,3.58,0,0,0-3.14-1.89Z" fill="#394a63" opacity="0.2"/>
        <circle id="Elipse_4423" data-name="Elipse 4423" cx="5.33" cy="5.33" r="5.33" transform="translate(299.17 164.29)" fill="#5c708d"/>
        <circle id="Elipse_4424" data-name="Elipse 4424" cx="3.59" cy="3.59" r="3.59" transform="translate(300.91 166.03)" fill="#394a63"/>
        <path id="Trazado_110743" data-name="Trazado 110743" d="M304.5,166a3.58,3.58,0,0,0-3.15,1.89,3.56,3.56,0,0,0,6.29,0A3.57,3.57,0,0,0,304.5,166Z" fill="#394a63" opacity="0.2"/>
        <path id="Trazado_110744" data-name="Trazado 110744" d="M282,169.62a5.33,5.33,0,1,1-5.33-5.33,5.33,5.33,0,0,1,5.33,5.33Z" fill="#5c708d"/>
        <path id="Trazado_110745" data-name="Trazado 110745" d="M280.23,169.62a3.59,3.59,0,1,1-1.055-2.542,3.6,3.6,0,0,1,1.055,2.542Z" fill="#394a63"/>
        <path id="Trazado_110746" data-name="Trazado 110746" d="M276.63,166a3.58,3.58,0,0,0-3.14,1.89,3.56,3.56,0,0,0,6.29,0,3.58,3.58,0,0,0-3.15-1.89Z" fill="#394a63" opacity="0.2"/>
        <rect id="Rectángulo_6282" data-name="Rectángulo 6282" width="10.8" height="6.96" transform="translate(271.23 154.8)" fill="#5c708d"/>
        <rect id="Rectángulo_6283" data-name="Rectángulo 6283" width="9.26" height="5.42" transform="translate(272 155.57)" fill="#95b5cb"/>
        <rect id="Rectángulo_6284" data-name="Rectángulo 6284" width="10.8" height="6.96" transform="translate(285.17 154.8)" fill="#5c708d"/>
        <rect id="Rectángulo_6285" data-name="Rectángulo 6285" width="9.26" height="5.42" transform="translate(285.94 155.57)" fill="#95b5cb"/>
        <rect id="Rectángulo_6286" data-name="Rectángulo 6286" width="10.8" height="6.96" transform="translate(299.1 154.8)" fill="#5c708d"/>
        <rect id="Rectángulo_6287" data-name="Rectángulo 6287" width="9.26" height="5.42" transform="translate(299.87 155.57)" fill="#95b5cb"/>
        <path id="Trazado_110747" data-name="Trazado 110747" d="M209,93.5v91.23H322.72V93.5Zm109.29,86.9H213.44V97.83H318.32Z" fill="#95b5cb"/>
        <rect id="Rectángulo_6288" data-name="Rectángulo 6288" width="5.54" height="18.33" transform="translate(322.58 113.11)" fill="#f8a9c1"/>
        <rect id="Rectángulo_6289" data-name="Rectángulo 6289" width="5.54" height="18.33" transform="translate(322.58 141.46)" fill="#f8a9c1"/>
        <path id="Trazado_110748" data-name="Trazado 110748" d="M234.33,210.31V420.07h31.55V213.44Z" fill="#95b5cb"/>
        <rect id="Rectángulo_6290" data-name="Rectángulo 6290" width="44.06" height="10.98" transform="translate(220.4 430.31)" fill="#95b5cb"/>
      </g>
    </g>
  </g>
</svg>
